g BRM_Rookery_Egg5
v 1477.714 40.06364 -281.0728
v 1478.484 41.43379 -278.9121
v 1484.955 37.48499 -284.5369
v 1486.426 40.17261 -280.3928
v 1482.259 35.73625 -288.3752
v 1476.318 39.17213 -283.0795
v 1478.578 35.09753 -291.588
v 1474.436 38.84654 -284.7304
v 1474.295 35.63138 -293.8085
v 1472.253 39.11868 -285.8624
v 1469.831 37.28552 -294.8004
v 1469.981 39.96196 -286.3648
v 1465.596 39.89804 -294.4926
v 1467.843 41.29382 -286.1887
v 1462.037 43.21325 -292.8842
v 1466.047 42.98391 -285.3532
v 1459.525 46.90657 -290.1148
v 1464.771 44.86672 -283.9366
v 1458.307 50.6165 -286.4532
v 1464.142 46.75801 -282.077
v 1458.496 53.97988 -282.2628
v 1464.22 48.47267 -279.9579
v 1460.049 56.66748 -277.9775
v 1464.993 49.8428 -277.7891
v 1462.793 58.41625 -274.0334
v 1466.389 50.73431 -275.7811
v 1466.485 59.05494 -270.7951
v 1468.271 51.05992 -274.1302
v 1470.768 58.52111 -268.5746
v 1470.455 50.78778 -272.9982
v 1475.224 56.86696 -267.5891
v 1472.727 49.9445 -272.4958
v 1479.41 54.25444 -267.951
v 1474.864 48.61263 -272.6722
v 1482.882 50.93923 -269.7049
v 1476.657 46.92258 -273.5113
v 1485.336 47.24592 -272.5951
v 1477.928 45.03973 -274.9369
v 1486.555 43.536 -276.2814
v 1478.557 43.14841 -276.7987
v 1471.884 67.1392 -265.7346
v 1478.353 64.73775 -264.3039
v 1484.399 60.94496 -264.9025
v 1489.373 56.13203 -267.6063
v 1492.874 50.77017 -271.9477
v 1494.619 45.38419 -277.3602
v 1494.456 40.5013 -283.2682
v 1492.383 36.59951 -289.1372
v 1488.532 34.06071 -294.5605
v 1483.222 33.13344 -299.1449
v 1477.004 33.90846 -302.3686
v 1470.497 36.3099 -303.8325
v 1464.282 40.10271 -303.4435
v 1459.062 44.91564 -301.1563
v 1455.392 50.2775 -297.1546
v 1453.649 55.66347 -291.8167
v 1453.983 60.54637 -285.6817
v 1456.295 64.44816 -279.4089
v 1460.306 66.98696 -273.6595
v 1465.665 67.91425 -268.9584
v 1452.582 54.85 -304.7428
v 1457.283 48.02564 -309.8088
v 1450.393 61.70505 -297.9231
v 1450.885 67.91977 -290.0556
v 1473.759 76.31087 -264.5875
v 1465.844 77.29732 -268.6906
v 1481.981 73.25443 -262.7956
v 1451.287 60.44831 -312.5128
v 1456.777 52.42372 -318.4489
v 1463.997 41.89995 -312.6582
v 1471.946 37.07263 -313.1187
v 1480.274 34.01617 -311.2146
v 1488.19 33.02975 -307.1108
v 1494.918 34.20995 -301.348
v 1499.751 37.44122 -294.6082
v 1502.317 42.40726 -287.3102
v 1502.49 48.62199 -279.8705
v 1500.303 55.47705 -272.9018
v 1495.914 62.30141 -267.2179
v 1489.621 68.42707 -263.6882
v 1506.795 39.97778 -300.6502
v 1509.697 45.81723 -292.2811
v 1501.198 36.17818 -308.4142
v 1493.291 34.79042 -315.1793
v 1483.984 35.95035 -320.0042
v 1474.106 39.54437 -322.258
v 1464.655 45.2207 -321.7637
v 1513.197 44.11168 -307.0274
v 1516.326 50.60013 -297.873
v 1507.092 39.88982 -315.5167
v 1498.329 38.34781 -323.0407
v 1487.813 39.63666 -328.417
v 1476.55 43.63012 -330.9273
v 1465.921 49.93733 -330.3906
v 1457.282 57.94088 -326.7091
v 1451.514 66.85735 -320.094
v 1518.769 49.68411 -313.4095
v 1522.082 56.57223 -303.6554
v 1512.329 45.20218 -322.4485
v 1503.039 43.56522 -330.3857
v 1491.516 44.93343 -336.0973
v 1479.297 49.17289 -338.7646
v 1467.937 55.86857 -338.1837
v 1458.939 64.3651 -334.2271
v 1523.345 56.48087 -319.5278
v 1526.833 63.50393 -309.3353
v 1516.699 51.91118 -328.8526
v 1507.097 50.24213 -336.8324
v 1495.077 51.63714 -342.5989
v 1482.464 55.95965 -345.3291
v 1470.939 62.78651 -344.7573
v 1461.987 71.4495 -340.7115
v 1522.272 65.19232 -293.4429
v 1516.493 58.72008 -288.2827
v 1513.745 67.67664 -279.0603
v 1507.377 61.18568 -275.2789
v 1502.238 69.21027 -268.5932
v 1494.834 76.4133 -264.4506
v 1485.925 82.08963 -263.2235
v 1509.867 53.12495 -283.6109
v 1499.857 84.59667 -267.1153
v 1490.009 90.90387 -265.632
v 1508.047 76.59311 -271.7438
v 1513.175 84.1662 -276.3771
v 1504.516 92.66273 -271.5296
v 1519.164 74.70055 -284.1523
v 1517.471 91.63853 -282.29
v 1508.767 100.3015 -277.1739
v 1523.725 81.98742 -289.7686
v 1526.975 72.29292 -299.0595
v 1521.012 98.72292 -288.7467
v 1512.511 107.2195 -283.7029
v 1527.207 89.25726 -295.9274
v 1530.443 79.749 -304.8995
v 1530.309 71.12894 -314.966
v 1526.748 64.24081 -325.1443
v 1520.066 59.75891 -334.4329
v 1510.538 58.12194 -342.1284
v 1498.623 59.49014 -347.7231
v 1486.197 63.72962 -350.428
v 1475.056 70.4253 -349.8584
v 1528.824 72.66571 -330.1539
v 1532.376 79.15417 -320.3657
v 1522.421 68.44385 -338.9554
v 1513.386 66.90186 -346.1562
v 1502.179 68.19067 -351.3921
v 1490.555 72.18417 -353.9596
v 1480.206 78.49135 -353.4384
v 1529.502 81.43179 -334.3492
v 1532.612 87.27127 -325.7
v 1523.683 77.63223 -342.3043
v 1515.589 76.24448 -348.8563
v 1505.642 77.40439 -353.5677
v 1495.352 80.99841 -355.8744
v 1532.461 87.27411 -310.9119
v 1529.396 96.23067 -302.4902
v 1523.581 105.1472 -295.6599
v 1530.1 102.6397 -309.3663
v 1524.927 110.6643 -303.0945
v 1532.785 94.57901 -317.118
v 1528.531 90.20219 -337.8223
v 1531.189 95.16827 -330.5222
v 1516.872 85.79071 -350.1187
v 1523.64 86.97092 -344.5195
v 1531.449 101.383 -323.1525
v 1529.288 108.238 -316.42
v 1526.217 98.63985 -340.1835
v 1528.354 102.5417 -334.4291
v 1522.346 96.10107 -345.4614
v 1517.048 95.17378 -349.8398
v 1510.619 95.94881 -352.9632
v 1508.596 86.77715 -354.123
v 1499.815 89.8336 -356.0741
v 1528.602 107.4246 -328.6605
v 1485.689 86.67474 -355.4107
v 1456.295 64.44816 -279.4089
v 1453.983 60.54637 -285.6817
v 1453.866 72.88583 -282.0379
v 1450.885 67.91977 -290.0556
v 1459.019 76.1171 -274.678
v 1460.306 66.98696 -273.6595
v 1465.844 77.29732 -268.6906
v 1465.665 67.91425 -268.9584
v 1452.827 81.65623 -285.7884
v 1449.286 75.81677 -295.2475
v 1450.393 61.70505 -297.9231
v 1448.737 68.50902 -304.4722
v 1458.967 85.4558 -277.062
v 1467.015 86.84356 -270.002
v 1476.322 85.68367 -265.1774
v 1473.759 76.31087 -264.5875
v 1485.925 82.08963 -263.2235
v 1481.981 73.25443 -262.7956
v 1449.279 83.93385 -301.0289
v 1448.768 75.81392 -311.1922
v 1451.287 60.44831 -312.5128
v 1451.514 66.85735 -320.094
v 1453.286 90.42233 -290.4551
v 1460.171 94.64417 -280.7043
v 1469.133 96.18619 -272.8423
v 1479.453 94.89735 -267.5315
v 1490.009 90.90387 -265.632
v 1450.315 83.33903 -317.8709
v 1453.188 73.83076 -327.1582
v 1457.282 57.94088 -326.7091
v 1458.939 64.3651 -334.2271
v 1451.003 91.95908 -307.057
v 1455.273 98.84722 -295.8176
v 1462.6 103.3291 -285.4494
v 1472.116 104.9661 -277.1023
v 1483.036 103.5979 -271.5496
v 1494.15 99.35842 -269.7505
v 1455.848 81.10059 -333.6383
v 1461.987 71.4495 -340.7115
v 1453.238 90.79514 -324.205
v 1454.183 99.58408 -313.1548
v 1458.696 106.6072 -301.683
v 1466.156 111.1769 -291.1216
v 1475.849 112.8459 -282.6184
v 1486.969 111.4509 -276.9908
v 1498.268 107.1284 -275.2351
v 1508.767 100.3015 -277.1739
v 1504.516 92.66273 -271.5296
v 1499.857 84.59667 -267.1153
v 1459.912 88.38752 -339.2278
v 1466.213 78.92184 -346.035
v 1470.939 62.78651 -344.7573
v 1475.056 70.4253 -349.8584
v 1458.548 106.5158 -319.1064
v 1457.223 97.89572 -329.971
v 1480.19 119.5228 -289.1784
v 1491.11 118.1546 -283.6257
v 1512.511 107.2195 -283.7029
v 1471.381 86.49494 -349.934
v 1480.206 78.49135 -353.4384
v 1465.46 95.41138 -343.5708
v 1462.758 104.368 -334.8478
v 1464.206 112.4879 -324.6189
v 1469.014 118.9764 -314.031
v 1463.371 113.4039 -307.8291
v 1470.701 117.8858 -297.5022
v 1476.054 123.1982 -304.3529
v 1484.971 124.7402 -296.5304
v 1490.009 128.2976 -304.3917
v 1481.975 126.9099 -311.4287
v 1475.509 123.1103 -320.0762
v 1471.109 117.2708 -329.535
v 1469.754 109.9631 -338.7131
v 1472.059 101.9024 -346.5291
v 1477.876 114.466 -341.4566
v 1479.76 107.611 -348.0503
v 1477.802 93.87776 -352.2027
v 1485.689 86.67474 -355.4107
v 1484.552 100.7866 -352.8989
v 1491.569 94.66096 -355.6443
v 1495.352 80.99841 -355.8744
v 1499.815 89.8336 -356.0741
v 1478.982 120.6808 -333.739
v 1482.654 125.6468 -325.7729
v 1491.729 106.956 -352.0079
v 1497.18 102.1431 -354.1625
v 1503.738 98.35024 -354.4811
v 1508.596 86.77715 -354.123
v 1510.619 95.94881 -352.9632
v 1488.075 112.3179 -348.1876
v 1486.607 117.7038 -343.046
v 1487.405 122.5867 -337.0781
v 1490.211 126.4885 -330.891
v 1494.6 129.0273 -325.1378
v 1488.219 128.8781 -318.45
v 1495.11 130.0583 -312.4603
v 1503.025 129.0719 -308.3573
v 1499.316 127.1377 -299.567
v 1495.292 123.4514 -291.2201
v 1505.846 119.4579 -289.3234
v 1502.224 113.9152 -281.8266
v 1515.56 113.1507 -290.9706
v 1523.581 105.1472 -295.6599
v 1521.012 98.72292 -288.7467
v 1508.908 123.5436 -297.627
v 1517.69 117.8673 -298.9477
v 1524.927 110.6643 -303.0945
v 1511.219 126.0154 -306.5887
v 1518.736 121.1881 -307.553
v 1524.92 115.0624 -311.0035
v 1529.288 108.238 -316.42
v 1530.1 102.6397 -309.3663
v 1518.637 122.9853 -316.5403
v 1512.708 126.7781 -315.8434
v 1506.297 129.1796 -317.2026
v 1523.533 118.1724 -319.1835
v 1526.949 112.8105 -323.3979
v 1528.602 107.4246 -328.6605
v 1531.449 101.383 -323.1525
v 1513.397 125.8025 -324.8439
v 1508.995 127.4567 -325.765
v 1500.078 129.9546 -320.4262
v 1504.708 127.9905 -327.973
v 1500.886 127.3518 -331.2052
v 1497.874 125.603 -335.1267
v 1496 122.9154 -339.335
v 1495.516 119.552 -343.3998
v 1496.549 115.8421 -346.9124
v 1499.017 112.1488 -349.533
v 1502.682 108.8336 -351.0184
v 1507.122 106.2211 -351.2429
v 1511.826 104.5669 -350.209
v 1517.048 95.17378 -349.8398
v 1516.246 104.0331 -348.0726
v 1522.346 96.10107 -345.4614
v 1519.936 104.6718 -345.0417
v 1526.217 98.63985 -340.1835
v 1522.639 106.4205 -341.3759
v 1528.354 102.5417 -334.4291
v 1524.153 109.1081 -337.3872
v 1524.353 112.4715 -333.4185
v 1523.219 116.1815 -329.847
v 1520.86 119.8748 -327.0292
v 1517.482 123.19 -325.2906
v 1517.897 113.2452 -341.4436
v 1518.688 114.6153 -339.3872
v 1516.489 112.3537 -343.3413
v 1514.572 112.0281 -344.9072
v 1512.328 112.3003 -345.9971
v 1509.979 113.1435 -346.5059
v 1507.772 114.4754 -346.3792
v 1505.949 116.1655 -345.6134
v 1504.707 118.0483 -344.2754
v 1504.16 119.9396 -342.4934
v 1504.361 121.6543 -340.4397
v 1505.273 123.0244 -338.3184
v 1506.789 123.9159 -336.3421
v 1508.75 124.2415 -334.7125
v 1510.954 123.9694 -333.6044
v 1513.199 123.1261 -333.134
v 1515.296 121.7942 -333.3505
v 1517.018 120.1041 -334.1786
v 1518.223 118.2213 -335.5622
v 1518.801 116.33 -337.3608
v 1512.067 118.8517 -340.4131
v 1448.737 68.50902 -304.4722
v 1470.956 44.23637 -278.8356
v 1477.758 120.8249 -328.9253
v 1476.074 115.9375 -334.0483
v 1480.745 123.4023 -343.3246
v 1479.579 120.7904 -346.1201
v 1483.683 125.3367 -341.9117
v 1482.141 124.4119 -327.052
v 1487.984 126.9473 -341.2988
v 1487.848 125.9152 -327.5385
v 1492.585 127.6357 -341.5307
v 1493.442 125.8474 -329.646
v 1496.115 125.5453 -343.4736
v 1497.993 123.5334 -333.2516
v 1497.802 121.1503 -346.8359
v 1501.285 118.3767 -338.2326
v 1498.915 116.3249 -350.9264
v 1503.115 112.062 -344.2946
v 1498.846 112.3186 -354.8234
v 1487.456 124.8777 -353.6268
v 1485.721 122.5315 -355.8401
v 1491.228 127.5837 -359.6655
v 1490.277 126.3104 -360.8958
v 1494.428 126.7805 -364.1315
v 1492.676 128.4855 -358.8171
v 1494.428 126.7805 -364.1315
v 1490.088 126.6444 -352.0815
v 1494.338 128.846 -358.4665
v 1494.428 126.7805 -364.1315
v 1495.955 128.5941 -358.6594
v 1497.289 127.763 -359.3569
v 1493.003 127.4191 -351.4309
v 1495.613 126.8997 -351.8348
v 1485.033 120.0543 -358.3001
v 1489.947 124.859 -362.3062
v 1494.428 126.7805 -364.1315
v 1490.211 123.4556 -363.6675
v 1485.49 117.8492 -360.5941
v 1486.888 115.953 -362.4889
v 1491.024 122.2793 -364.7714
v 1494.428 126.7805 -364.1315
v 1489.107 114.5932 -363.7217
v 1492.377 121.4978 -365.4672
v 1494.428 126.7805 -364.1315
v 1482.135 109.9175 -356.1745
v 1485.505 107.8574 -358.4925
v 1479.875 112.8357 -353.3837
v 1482 99.76688 -349.5293
v 1478.089 103.9045 -345.3341
v 1479.248 116.527 -350.0219
v 1476.373 109.8286 -340.1788
v 1495.613 126.8997 -351.8348
v 1495.613 126.8997 -351.8348
v 1497.535 125.1814 -353.1069
v 1498.875 122.6965 -355.1115
v 1498.196 126.4976 -360.458
v 1494.428 126.7805 -364.1315
v 1495.613 126.8997 -351.8348
v 1494.428 126.7805 -364.1315
v 1498.589 125.0091 -361.8095
v 1498.254 123.5696 -363.2143
v 1494.428 126.7805 -364.1315
v 1497.318 122.3555 -364.449
v 1494.428 126.7805 -364.1315
v 1495.854 121.5379 -365.3044
v 1497.318 122.3555 -364.449
v 1502.455 106.3964 -349.5544
v 1503.115 112.062 -344.2946
v 1498.846 112.3186 -354.8234
v 1496.919 109.2921 -357.7415
v 1499.909 102.0864 -353.0834
v 1493.537 107.3644 -359.4853
v 1496.183 98.8168 -354.9991
v 1489.516 106.8011 -359.7552
v 1491.16 97.11996 -354.9458
v 1485.505 107.8574 -358.4925
v 1486.353 97.37662 -352.9268
v 1482.135 109.9175 -356.1745
v 1482 99.76688 -349.5293
v 1497.812 115.6181 -362.0269
v 1499.294 117.5599 -359.9881
v 1497.318 122.3555 -364.449
v 1498.254 123.5696 -363.2143
v 1499.677 119.9883 -357.5504
v 1498.589 125.0091 -361.8095
v 1498.875 122.6965 -355.1115
v 1498.196 126.4976 -360.458
v 1495.854 121.5379 -365.3044
v 1495.114 114.3765 -363.4326
v 1497.802 121.1503 -346.8359
v 1496.115 125.5453 -343.4736
v 1498.915 116.3249 -350.9264
v 1492.013 114.0437 -364.0516
v 1494.087 121.2359 -365.6568
v 1489.107 114.5932 -363.7217
v 1486.888 115.953 -362.4889
v 1492.377 121.4978 -365.4672
v 1494.087 121.2359 -365.6568
v 1495.854 121.5379 -365.3044
v 1505.476 42.80516 -300.2449
v 1503.056 41.30955 -296.5587
v 1516.114 43.87032 -293.974
v 1514.272 42.71907 -291.0898
v 1518.152 46.47981 -296.1688
v 1508.433 46.40854 -302.8892
v 1520.016 50.20824 -297.4039
v 1511.267 51.41175 -304.1664
v 1521.425 54.56211 -297.5816
v 1513.321 56.90033 -304.043
v 1501.002 42.01465 -292.6107
v 1512.707 43.04628 -288.0236
v 1499.757 45.33285 -289.1143
v 1511.551 44.7582 -285.2721
v 1499.829 50.27255 -286.2531
v 1511.239 47.75859 -283.1373
v 1500.905 55.09281 -284.32
v 1511.935 51.56655 -281.9442
v 1502.985 59.74816 -283.9226
v 1513.22 55.70077 -282.0044
v 1538.048 52.28734 -290.0564
v 1539.336 55.85306 -290.4255
v 1542.225 55.11252 -286.2759
v 1541.868 53.4602 -286.0628
v 1535.975 49.08593 -288.6871
v 1541.303 51.91454 -285.3973
v 1543.215 54.08755 -281.7602
v 1543.215 54.08755 -281.7602
v 1533.643 47.04644 -286.8406
v 1540.638 50.71384 -284.3409
v 1543.215 54.08755 -281.7602
v 1531.865 46.24729 -284.826
v 1540.059 50.14749 -282.9901
v 1543.215 54.08755 -281.7602
v 1542.327 56.63145 -285.9642
v 1543.215 54.08755 -281.7602
v 1539.459 58.70801 -289.8265
v 1530.614 46.36574 -282.6584
v 1539.596 50.25885 -281.5944
v 1543.215 54.08755 -281.7602
v 1529.789 47.65074 -280.3232
v 1539.257 50.9235 -280.371
v 1543.215 54.08755 -281.7602
v 1529.574 49.84581 -278.6171
v 1539.097 52.03861 -279.5053
v 1543.215 54.08755 -281.7602
v 1530.186 52.2159 -277.9417
v 1539.197 53.54118 -279.1462
v 1543.215 54.08755 -281.7602
v 1531.483 55.27631 -277.9995
v 1539.564 55.22369 -279.3524
v 1543.215 54.08755 -281.7602
v 1543.215 54.08755 -281.7602
v 1542.182 57.85678 -285.1674
v 1543.215 54.08755 -281.7602
v 1539.564 55.22369 -279.3524
v 1540.13 56.80029 -280.0936
v 1514.015 61.72042 -302.5863
v 1513.321 56.90033 -304.043
v 1521.859 58.51451 -296.6613
v 1521.425 54.56211 -297.5816
v 1521.234 61.44939 -294.7079
v 1513.287 65.22052 -299.9036
v 1519.939 63.1839 -291.9883
v 1511.841 67.32451 -296.2454
v 1518.374 63.2543 -288.8188
v 1510.022 67.8103 -292.1596
v 1516.745 61.9282 -285.744
v 1507.976 66.65318 -288.3109
v 1514.962 59.30358 -283.3287
v 1505.565 64.04381 -285.3941
v 1513.22 55.70077 -282.0044
v 1502.985 59.74816 -283.9226
v 1539.459 58.70801 -289.8265
v 1539.336 55.85306 -290.4255
v 1537.748 62.46135 -286.4018
v 1538.821 61.02897 -288.3795
v 1542.182 57.85678 -285.1674
v 1542.327 56.63145 -285.9642
v 1541.835 58.61362 -283.9989
v 1543.215 54.08755 -281.7602
v 1541.336 58.63446 -282.6151
v 1543.215 54.08755 -281.7602
v 1536.554 62.45632 -283.8847
v 1540.761 58.00007 -281.2424
v 1543.215 54.08755 -281.7602
v 1534.941 61.14017 -281.3041
v 1540.13 56.80029 -280.0936
v 1543.215 54.08755 -281.7602
v 1533.13 58.51465 -279.1659
v 1539.564 55.22369 -279.3524
v 1531.483 55.27631 -277.9995
v 1530.186 52.2159 -277.9417
v 1511.935 51.56655 -281.9442
v 1457.132 78.04704 -288.9826
v 1455.241 74.72388 -290.426
v 1454.729 78.5146 -287.8014
v 1453.338 76.0226 -288.8002
v 1453.928 72.37427 -292.4004
v 1448.24 81.24025 -288.4807
v 1447.622 78.78728 -288.7083
v 1443.417 83.26892 -289.6265
v 1443.119 81.95704 -289.7981
v 1446.952 77.16119 -289.4044
v 1442.695 80.98133 -290.4301
v 1446.156 76.37593 -290.8429
v 1442.225 80.44096 -291.3776
v 1440.505 84.41843 -292.345
v 1441.793 80.40338 -292.5094
v 1441.445 80.94663 -293.7266
v 1444.744 77.23421 -294.8745
v 1444.385 79.04649 -296.8993
v 1441.224 82.00495 -294.8558
v 1444.351 81.4818 -298.5147
v 1447.285 79.39066 -300.2522
v 1447.63 76.58791 -298.3598
v 1451.045 80.56833 -301.8123
v 1450.915 78.95714 -301.0614
v 1448.539 74.44408 -295.5218
v 1452.049 77.03393 -298.9775
v 1449.573 73.15237 -292.7198
v 1450.561 83.75645 -302.4149
v 1447.376 82.63096 -301.1437
v 1441.172 83.39116 -295.6982
v 1445.368 76.36103 -292.7717
v 1449.573 73.15237 -292.7198
v 1449.573 73.15237 -292.7198
v 1450.554 72.84474 -290.5747
v 1450.554 72.84474 -290.5747
v 1451.638 73.77522 -289.9163
v 1451.638 73.77522 -289.9163
v 1453.928 72.37427 -292.4004
v 1453.928 72.37427 -292.4004
v 1454.085 72.16628 -293.897
v 1451.638 73.77522 -289.9163
v 1451.638 73.77522 -289.9163
v 1454.085 72.16628 -293.897
v 1450.554 72.84474 -290.5747
v 1454.085 72.16628 -293.897
v 1453.714 74.61131 -296.327
v 1450.554 72.84474 -290.5747
v 1450.554 72.84474 -290.5747
v 1453.714 74.61131 -296.327
v 1449.573 73.15237 -292.7198
v 1452.049 77.03393 -298.9775
v 1456.911 81.10452 -289.4756
v 1454.85 81.73116 -288.0037
v 1455.614 84.22457 -291.0316
v 1456.911 81.10452 -289.4756
v 1453.887 84.91542 -289.8867
v 1454.85 81.73116 -288.0037
v 1452.864 87.18087 -293.3514
v 1454.771 86.91376 -292.9859
v 1452.05 88.96678 -295.4007
v 1454.23 88.78599 -296.4659
v 1451.594 89.10496 -296.684
v 1452.806 88.44565 -299.8489
v 1450.188 88.28132 -298.9487
v 1451.027 87.73988 -301.9969
v 1448.207 86.00749 -300.7015
v 1450.383 86.53087 -302.6463
v 1447.376 82.63096 -301.1437
v 1450.561 83.75645 -302.4149
v 1447.978 87.61954 -293.105
v 1448.354 86.02036 -291.5025
v 1443.257 87.05991 -291.7818
v 1443.473 86.06329 -290.7108
v 1440.505 84.41843 -292.345
v 1443.533 84.72908 -289.955
v 1442.924 87.57269 -293.011
v 1440.505 84.41843 -292.345
v 1448.74 84.05405 -289.4155
v 1448.24 81.24025 -288.4807
v 1443.417 83.26892 -289.6265
v 1440.505 84.41843 -292.345
v 1447.897 88.71719 -294.3434
v 1442.511 87.57008 -294.2376
v 1440.505 84.41843 -292.345
v 1442.059 87.09135 -295.2976
v 1441.636 86.11669 -295.9201
v 1441.315 84.83501 -296.0739
v 1447.497 88.88342 -296.0536
v 1446.651 88.27779 -297.7437
v 1445.329 86.34885 -299.0299
v 1444.593 84.09555 -299.3717
v 1441.172 83.39116 -295.6982
v 1440.505 84.41843 -292.345
v 1441.224 82.00495 -294.8558
v 1444.351 81.4818 -298.5147
v 1447.285 79.39066 -300.2522
v 1440.505 84.41843 -292.345
v 1443.417 83.26892 -289.6265
v 1443.119 81.95704 -289.7981
v 1442.695 80.98133 -290.4301
v 1440.505 84.41843 -292.345
v 1441.445 80.94663 -293.7266
v 1441.224 82.00495 -294.8558
v 1454.729 78.5146 -287.8014
vt 0.838075 0.557771
vt 0.840446 0.562566
vt 0.851454 0.549997
vt 0.856036 0.559196
vt 0.844913 0.541682
vt 0.834697 0.55342
vt 0.837 0.534936
vt 0.830647 0.549947
vt 0.828522 0.530515
vt 0.826318 0.547692
vt 0.820307 0.528887
vt 0.822132 0.546874
vt 0.813087 0.530161
vt 0.818495 0.547574
vt 0.807639 0.534288
vt 0.815758 0.549722
vt 0.804542 0.540913
vt 0.814198 0.553118
vt 0.804116 0.549405
vt 0.813973 0.557435
vt 0.806404 0.558926
vt 0.815103 0.562249
vt 0.811135 0.568493
vt 0.817476 0.56708
vt 0.81781 0.577122
vt 0.820864 0.571459
vt 0.82582 0.584001
vt 0.824934 0.574953
vt 0.834383 0.588454
vt 0.829285 0.577217
vt 0.842649 0.590041
vt 0.833488 0.578028
vt 0.849785 0.588578
vt 0.83713 0.577307
vt 0.855021 0.584055
vt 0.839851 0.575127
vt 0.857922 0.577101
vt 0.841382 0.571691
vt 0.858264 0.568527
vt 0.841586 0.567361
vt 0.841699 0.596722
vt 0.853732 0.599025
vt 0.864039 0.596729
vt 0.87149 0.589804
vt 0.875543 0.57938
vt 0.875948 0.566792
vt 0.872728 0.553373
vt 0.866179 0.540335
vt 0.856803 0.528588
vt 0.845388 0.51897
vt 0.833092 0.512552
vt 0.821119 0.510122
vt 0.810503 0.511824
vt 0.802471 0.517682
vt 0.797913 0.527237
vt 0.797331 0.539606
vt 0.800768 0.553554
vt 0.807771 0.567587
vt 0.817548 0.58021
vt 0.829222 0.590235
vt 0.794669 0.512677
vt 0.800551 0.500599
vt 0.793976 0.528471
vt 0.798495 0.546373
vt 0.85098 0.601676
vt 0.835038 0.593388
vt 0.866313 0.604551
vt 0.795125 0.497924
vt 0.801976 0.483788
vt 0.81093 0.493307
vt 0.824525 0.491251
vt 0.839856 0.494452
vt 0.855503 0.50263
vt 0.869975 0.514715
vt 0.881791 0.52932
vt 0.890017 0.54555
vt 0.894098 0.562468
vt 0.893705 0.578674
vt 0.888725 0.592303
vt 0.879334 0.601336
vt 0.897766 0.517532
vt 0.907255 0.536178
vt 0.88401 0.500694
vt 0.866981 0.486504
vt 0.848574 0.476873
vt 0.830367 0.473047
vt 0.814159 0.475328
vt 0.913426 0.505406
vt 0.923838 0.525834
vt 0.898324 0.486972
vt 0.879409 0.471175
vt 0.858573 0.460417
vt 0.837732 0.456119
vt 0.819444 0.458586
vt 0.806131 0.467948
vt 0.799202 0.483678
vt 0.928316 0.49356
vt 0.939423 0.515342
vt 0.912303 0.473914
vt 0.892195 0.457219
vt 0.869293 0.445756
vt 0.846595 0.44115
vt 0.826998 0.443756
vt 0.813211 0.453768
vt 0.94198 0.482482
vt 0.95361 0.505236
vt 0.925413 0.46219
vt 0.904577 0.445361
vt 0.880605 0.43375
vt 0.857096 0.428996
vt 0.837206 0.431583
vt 0.823608 0.441801
vt 0.945202 0.538641
vt 0.929187 0.547696
vt 0.929035 0.569169
vt 0.911817 0.575285
vt 0.90605 0.591352
vt 0.895017 0.60199
vt 0.879843 0.606159
vt 0.912046 0.555919
vt 0.910533 0.598721
vt 0.893756 0.603613
vt 0.922701 0.586821
vt 0.938153 0.579208
vt 0.92532 0.591719
vt 0.94471 0.560427
vt 0.951894 0.56883
vt 0.939083 0.581955
vt 0.958851 0.550602
vt 0.959466 0.528741
vt 0.963884 0.557135
vt 0.951401 0.570058
vt 0.970809 0.539573
vt 0.971465 0.518401
vt 0.965667 0.495334
vt 0.953898 0.472595
vt 0.937233 0.452349
vt 0.916488 0.436065
vt 0.892645 0.42476
vt 0.869418 0.420009
vt 0.85022 0.422546
vt 0.963555 0.464053
vt 0.975121 0.485943
vt 0.947555 0.444818
vt 0.927808 0.429526
vt 0.905306 0.418904
vt 0.883536 0.414361
vt 0.865731 0.416712
vt 0.970578 0.457226
vt 0.980861 0.476643
vt 0.955992 0.439786
vt 0.938222 0.425822
vt 0.918183 0.416224
vt 0.898895 0.412124
vt 0.980545 0.507649
vt 0.979925 0.527548
vt 0.973464 0.544231
vt 0.985596 0.514649
vt 0.979913 0.529918
vt 0.98598 0.496366
vt 0.974198 0.451864
vt 0.983008 0.468305
vt 0.946922 0.425142
vt 0.961858 0.437122
vt 0.987618 0.485256
vt 0.987554 0.501106
vt 0.974798 0.448732
vt 0.981846 0.461725
vt 0.965004 0.437073
vt 0.95326 0.427665
vt 0.940226 0.421252
vt 0.9302 0.416951
vt 0.913686 0.413474
vt 0.985568 0.475019
vt 0.88212 0.414231
vt 0.807771 0.567587
vt 0.800768 0.553554
vt 0.807516 0.564355
vt 0.798495 0.546373
vt 0.820109 0.580567
vt 0.817548 0.58021
vt 0.835038 0.593388
vt 0.829222 0.590235
vt 0.810356 0.558841
vt 0.799631 0.537574
vt 0.793976 0.528471
vt 0.79436 0.516543
vt 0.8254 0.578124
vt 0.843077 0.593302
vt 0.861895 0.603087
vt 0.85098 0.601676
vt 0.879843 0.606159
vt 0.866313 0.604551
vt 0.804235 0.527534
vt 0.798549 0.504309
vt 0.795125 0.497924
vt 0.799202 0.483678
vt 0.816362 0.55136
vt 0.833287 0.572974
vt 0.853055 0.58994
vt 0.873998 0.600753
vt 0.893756 0.603613
vt 0.806064 0.492134
vt 0.806641 0.470555
vt 0.806131 0.467948
vt 0.813211 0.453768
vt 0.812454 0.516882
vt 0.825434 0.542267
vt 0.843528 0.565318
vt 0.864604 0.583394
vt 0.886839 0.594742
vt 0.907675 0.597342
vt 0.816355 0.45864
vt 0.823608 0.441801
vt 0.816475 0.480588
vt 0.823568 0.505912
vt 0.837218 0.531874
vt 0.855731 0.555416
vt 0.877286 0.573888
vt 0.899997 0.585431
vt 0.921218 0.587943
vt 0.939083 0.581955
vt 0.92532 0.591719
vt 0.910533 0.598721
vt 0.829086 0.448521
vt 0.836754 0.432265
vt 0.837206 0.431583
vt 0.85022 0.422546
vt 0.836852 0.495012
vt 0.828986 0.470082
vt 0.890604 0.561769
vt 0.912967 0.573203
vt 0.951401 0.570058
vt 0.852023 0.425673
vt 0.865731 0.416712
vt 0.844866 0.440905
vt 0.844477 0.461249
vt 0.852384 0.484751
vt 0.866506 0.508785
vt 0.851163 0.520574
vt 0.869429 0.543641
vt 0.884069 0.530438
vt 0.904027 0.547506
vt 0.91701 0.531662
vt 0.898992 0.516292
vt 0.882855 0.496927
vt 0.869921 0.47543
vt 0.86262 0.454315
vt 0.862641 0.436051
vt 0.882575 0.449489
vt 0.88237 0.434045
vt 0.869912 0.422428
vt 0.88212 0.414231
vt 0.888318 0.42238
vt 0.899341 0.415349
vt 0.898895 0.412124
vt 0.913686 0.413474
vt 0.888749 0.467273
vt 0.899652 0.485391
vt 0.907283 0.425537
vt 0.915799 0.419993
vt 0.92725 0.418546
vt 0.9302 0.416951
vt 0.940226 0.421252
vt 0.902878 0.434751
vt 0.903116 0.446821
vt 0.907863 0.460596
vt 0.916298 0.474672
vt 0.927275 0.487545
vt 0.913554 0.501791
vt 0.929022 0.514875
vt 0.945296 0.523392
vt 0.936136 0.541659
vt 0.925206 0.558479
vt 0.94512 0.561444
vt 0.933887 0.57586
vt 0.961681 0.55626
vt 0.973464 0.544231
vt 0.963884 0.557135
vt 0.954271 0.544855
vt 0.969269 0.540565
vt 0.979913 0.529918
vt 0.960801 0.526391
vt 0.973664 0.523115
vt 0.982785 0.514252
vt 0.987554 0.501106
vt 0.985596 0.514649
vt 0.974631 0.504427
vt 0.964475 0.506841
vt 0.952352 0.504528
vt 0.981884 0.497638
vt 0.985608 0.487416
vt 0.985568 0.475019
vt 0.987618 0.485256
vt 0.965308 0.487408
vt 0.956994 0.485835
vt 0.93957 0.497831
vt 0.948192 0.481248
vt 0.939624 0.474201
vt 0.932078 0.465436
vt 0.926375 0.455864
vt 0.923214 0.446472
vt 0.923065 0.438207
vt 0.925967 0.431863
vt 0.931634 0.428021
vt 0.939367 0.427002
vt 0.948253 0.428842
vt 0.95326 0.427665
vt 0.957249 0.433242
vt 0.965004 0.437073
vt 0.965454 0.43978
vt 0.974798 0.448732
vt 0.972302 0.447905
vt 0.981846 0.461725
vt 0.977257 0.456933
vt 0.979882 0.466093
vt 0.97991 0.474517
vt 0.97732 0.481361
vt 0.972305 0.485839
vt 0.966698 0.449249
vt 0.969267 0.453913
vt 0.963133 0.445032
vt 0.958861 0.441642
vt 0.954278 0.439391
vt 0.94984 0.438492
vt 0.946014 0.439046
vt 0.943227 0.441035
vt 0.941794 0.444284
vt 0.941843 0.448485
vt 0.943372 0.453232
vt 0.946193 0.458053
vt 0.949998 0.462463
vt 0.954388 0.466009
vt 0.958907 0.468308
vt 0.96314 0.469118
vt 0.966738 0.468353
vt 0.969299 0.466207
vt 0.970631 0.46284
vt 0.970625 0.458595
vt 0.957955 0.452669
vt 0.79436 0.516543
vt 0.82657 0.563454
vt 0.886233 0.477548
vt 0.879651 0.46554
vt 0.894187 0.447473
vt 0.890088 0.440954
vt 0.901654 0.450909
vt 0.897789 0.482374
vt 0.911837 0.452572
vt 0.910896 0.481689
vt 0.922089 0.45223
vt 0.922783 0.477179
vt 0.928292 0.447625
vt 0.931013 0.468961
vt 0.92909 0.439509
vt 0.934731 0.457199
vt 0.928392 0.429787
vt 0.934597 0.442948
vt 0.925713 0.420685
vt 0.909409 0.425836
vt 0.904244 0.420633
vt 0.91916 0.413516
vt 0.916326 0.410632
vt 0.92548 0.403825
vt 0.922822 0.415512
vt 0.92548 0.403825
vt 0.916134 0.429503
vt 0.9266 0.416335
vt 0.92548 0.403825
vt 0.929893 0.415871
vt 0.93221 0.414212
vt 0.922844 0.431055
vt 0.928082 0.430083
vt 0.901233 0.414888
vt 0.914707 0.407332
vt 0.92548 0.403825
vt 0.914386 0.40415
vt 0.900832 0.409564
vt 0.902622 0.405159
vt 0.915376 0.401565
vt 0.92548 0.403825
vt 0.906485 0.402272
vt 0.917764 0.399929
vt 0.92548 0.403825
vt 0.88881 0.41733
vt 0.894675 0.412005
vt 0.885816 0.423844
vt 0.882316 0.429274
vt 0.876581 0.438999
vt 0.886755 0.43175
vt 0.876555 0.451182
vt 0.928082 0.430083
vt 0.928082 0.430083
vt 0.931087 0.427008
vt 0.932358 0.422218
vt 0.933337 0.411604
vt 0.92548 0.403825
vt 0.928082 0.430083
vt 0.92548 0.403825
vt 0.933225 0.408421
vt 0.931591 0.405138
vt 0.92548 0.403825
vt 0.928826 0.402266
vt 0.92548 0.403825
vt 0.925189 0.400283
vt 0.928826 0.402266
vt 0.929613 0.430608
vt 0.934597 0.442948
vt 0.925713 0.420685
vt 0.919724 0.413885
vt 0.921521 0.422258
vt 0.911361 0.409806
vt 0.911623 0.41755
vt 0.902507 0.409122
vt 0.899993 0.417317
vt 0.894675 0.412005
vt 0.890027 0.421621
vt 0.88881 0.41733
vt 0.882316 0.429274
vt 0.925604 0.406073
vt 0.929982 0.410793
vt 0.928826 0.402266
vt 0.931591 0.405138
vt 0.932339 0.41647
vt 0.933225 0.408421
vt 0.932358 0.422218
vt 0.933337 0.411604
vt 0.925189 0.400283
vt 0.919094 0.402843
vt 0.92909 0.439509
vt 0.928292 0.447625
vt 0.928392 0.429787
vt 0.912307 0.401464
vt 0.921239 0.399474
vt 0.906485 0.402272
vt 0.902622 0.405159
vt 0.917764 0.399929
vt 0.921239 0.399474
vt 0.925189 0.400283
vt 0.896751 0.519048
vt 0.89088 0.526263
vt 0.919281 0.532209
vt 0.914792 0.537856
vt 0.925075 0.528334
vt 0.905011 0.514473
vt 0.931212 0.526706
vt 0.913893 0.513042
vt 0.936816 0.527411
vt 0.921499 0.514619
vt 0.88708 0.534553
vt 0.911771 0.544245
vt 0.886497 0.542578
vt 0.910432 0.550341
vt 0.889599 0.54973
vt 0.911611 0.555509
vt 0.894718 0.554962
vt 0.915367 0.558957
vt 0.901838 0.556992
vt 0.920553 0.559909
vt 0.969733 0.542391
vt 0.974662 0.542531
vt 0.980164 0.550923
vt 0.978371 0.550939
vt 0.963432 0.544407
vt 0.976219 0.551917
vt 0.981556 0.559993
vt 0.981556 0.559993
vt 0.957341 0.547695
vt 0.974082 0.553789
vt 0.981556 0.559993
vt 0.953177 0.551641
vt 0.972527 0.55643
vt 0.981556 0.559993
vt 0.981348 0.551959
vt 0.981556 0.559993
vt 0.976739 0.544496
vt 0.950675 0.556136
vt 0.971644 0.559339
vt 0.981556 0.559993
vt 0.949777 0.561281
vt 0.971364 0.562036
vt 0.981556 0.559993
vt 0.950706 0.565373
vt 0.971741 0.564115
vt 0.981556 0.559993
vt 0.953453 0.567391
vt 0.972903 0.565252
vt 0.981556 0.559993
vt 0.958057 0.568079
vt 0.974733 0.565268
vt 0.981556 0.559993
vt 0.981556 0.559993
vt 0.981831 0.553924
vt 0.981556 0.559993
vt 0.974733 0.565268
vt 0.97691 0.564149
vt 0.925907 0.518806
vt 0.921499 0.514619
vt 0.940173 0.530294
vt 0.936816 0.527411
vt 0.940708 0.535074
vt 0.926561 0.525231
vt 0.939103 0.541152
vt 0.92486 0.533355
vt 0.9359 0.547746
vt 0.921378 0.541971
vt 0.931697 0.553783
vt 0.916413 0.549674
vt 0.926378 0.558107
vt 0.909805 0.555057
vt 0.920553 0.559909
vt 0.901838 0.556992
vt 0.976739 0.544496
vt 0.974662 0.542531
vt 0.975592 0.552556
vt 0.9769 0.548087
vt 0.981831 0.553924
vt 0.981348 0.551959
vt 0.981598 0.55654
vt 0.981556 0.559993
vt 0.980578 0.55941
vt 0.981556 0.559993
vt 0.973112 0.557776
vt 0.978983 0.562087
vt 0.981556 0.559993
vt 0.968928 0.562782
vt 0.97691 0.564149
vt 0.981556 0.559993
vt 0.963511 0.566521
vt 0.974733 0.565268
vt 0.958057 0.568079
vt 0.953453 0.567391
vt 0.915367 0.558957
vt 0.817281 0.551222
vt 0.81143 0.54735
vt 0.812531 0.55381
vt 0.808202 0.551077
vt 0.807353 0.542633
vt 0.800525 0.553101
vt 0.797841 0.551987
vt 0.791587 0.551233
vt 0.790222 0.550533
vt 0.795521 0.550111
vt 0.788784 0.548958
vt 0.793419 0.546906
vt 0.787499 0.546837
vt 0.786137 0.545839
vt 0.786574 0.544462
vt 0.786152 0.542056
vt 0.790954 0.538712
vt 0.791226 0.534942
vt 0.786285 0.539965
vt 0.79253 0.53218
vt 0.79748 0.528024
vt 0.796613 0.531274
vt 0.806007 0.525056
vt 0.804817 0.526225
vt 0.797296 0.536654
vt 0.80609 0.530096
vt 0.798721 0.542166
vt 0.806817 0.524588
vt 0.79951 0.526968
vt 0.786956 0.538556
vt 0.791764 0.542878
vt 0.798721 0.542166
vt 0.798721 0.542166
vt 0.800592 0.546557
vt 0.800592 0.546557
vt 0.803377 0.548169
vt 0.803377 0.548169
vt 0.807353 0.542633
vt 0.807353 0.542633
vt 0.807561 0.539463
vt 0.803377 0.548169
vt 0.803377 0.548169
vt 0.807561 0.539463
vt 0.800592 0.546557
vt 0.807561 0.539463
vt 0.808182 0.535017
vt 0.800592 0.546557
vt 0.800592 0.546557
vt 0.808182 0.535017
vt 0.798721 0.542166
vt 0.80609 0.530096
vt 0.818581 0.550986
vt 0.814629 0.554227
vt 0.817664 0.548539
vt 0.818581 0.550986
vt 0.814446 0.551117
vt 0.814629 0.554227
vt 0.813606 0.544443
vt 0.817451 0.54514
vt 0.812927 0.540604
vt 0.817397 0.538323
vt 0.812051 0.537946
vt 0.814213 0.531139
vt 0.808628 0.532986
vt 0.810076 0.526457
vt 0.803172 0.528739
vt 0.808032 0.524794
vt 0.79951 0.526968
vt 0.806817 0.524588
vt 0.803614 0.545072
vt 0.803487 0.548018
vt 0.793397 0.547702
vt 0.793285 0.549689
vt 0.786137 0.545839
vt 0.792655 0.550925
vt 0.79299 0.545258
vt 0.786137 0.545839
vt 0.803174 0.551879
vt 0.800525 0.553101
vt 0.791587 0.551233
vt 0.786137 0.545839
vt 0.804072 0.542758
vt 0.792121 0.542685
vt 0.786137 0.545839
vt 0.790903 0.54034
vt 0.789464 0.538786
vt 0.78807 0.538137
vt 0.803327 0.539212
vt 0.801206 0.535513
vt 0.797336 0.532328
vt 0.794516 0.531044
vt 0.786956 0.538556
vt 0.786137 0.545839
vt 0.786285 0.539965
vt 0.79253 0.53218
vt 0.79748 0.528024
vt 0.786137 0.545839
vt 0.791587 0.551233
vt 0.790222 0.550533
vt 0.788784 0.548958
vt 0.786137 0.545839
vt 0.786152 0.542056
vt 0.786285 0.539965
vt 0.812531 0.55381
vn -0.1621097 -0.8351532 0.5255852
vn -0.1254833 -0.7979391 0.5895314
vn 0.04190798 -0.8852553 0.4632138
vn 0.1038413 -0.8140933 0.5713748
vn -0.05622295 -0.9319953 0.3580834
vn -0.2183286 -0.8576254 0.4656301
vn -0.1778833 -0.9466794 0.2686182
vn -0.2876857 -0.8626434 0.4160328
vn -0.3130477 -0.927466 0.2044702
vn -0.3653188 -0.8493792 0.380916
vn -0.4484553 -0.8769934 0.1725408
vn -0.4434652 -0.8190191 0.364069
vn -0.5718147 -0.8012233 0.1762649
vn -0.5144853 -0.774839 0.3673274
vn -0.6722223 -0.7087842 0.2138744
vn -0.5717697 -0.7218083 0.3899644
vn -0.7414427 -0.6096909 0.2802492
vn -0.6105012 -0.6654978 0.4294194
vn -0.7744517 -0.513997 0.3688247
vn -0.627498 -0.6114334 0.4820741
vn -0.7687542 -0.4311382 0.4723736
vn -0.6210527 -0.5648618 0.5433459
vn -0.7236394 -0.3687593 0.583406
vn -0.5910705 -0.5301613 0.6079183
vn -0.6406368 -0.3320826 0.692319
vn -0.53985 -0.5104836 0.6693044
vn -0.5265962 -0.324214 0.7858636
vn -0.4723307 -0.5075268 0.7206388
vn -0.392888 -0.3458459 0.8520737
vn -0.3950333 -0.5214477 0.7563339
vn -0.2505999 -0.3948319 0.883916
vn -0.3152353 -0.550802 0.7728155
vn -0.1083359 -0.4679534 0.8770877
vn -0.2380662 -0.5931635 0.7690783
vn 0.01131263 -0.5515101 0.8340915
vn -0.1737046 -0.6428924 0.746
vn 0.0899303 -0.6395285 0.7634892
vn -0.130494 -0.6969692 0.7051279
vn 0.1210025 -0.7291777 0.6735416
vn -0.1141942 -0.7503816 0.6510662
vn -0.3676321 -0.1454273 0.91853
vn -0.1621161 -0.2146124 0.963151
vn 0.04181318 -0.3173401 0.9473895
vn 0.2096006 -0.4357076 0.8753436
vn 0.3141626 -0.5511172 0.7730276
vn 0.3547115 -0.668758 0.6534083
vn 0.3319488 -0.7873931 0.519444
vn 0.2482931 -0.8939695 0.3730536
vn 0.1124866 -0.9677214 0.2255261
vn -0.05859857 -0.9934747 0.09784839
vn -0.2485271 -0.9686013 0.006750184
vn -0.4375601 -0.8984013 -0.03763542
vn -0.6083043 -0.793098 -0.03100614
vn -0.7481033 -0.6631314 0.02445912
vn -0.8440743 -0.5227585 0.1194244
vn -0.8895147 -0.3870229 0.2428517
vn -0.882657 -0.2702874 0.3845274
vn -0.8237501 -0.1821453 0.5368974
vn -0.7129971 -0.1289736 0.6892031
vn -0.5557953 -0.1162226 0.8231549
vn -0.9061987 -0.4213905 -0.03512798
vn -0.7884949 -0.5955737 -0.1535179
vn -0.9597076 -0.254909 0.118249
vn -0.9500191 -0.1129679 0.291036
vn -0.3255315 0.05023362 0.944196
vn -0.5600458 0.08380309 0.8242123
vn -0.06565189 -0.03256179 0.9973111
vn -0.9338979 -0.3106402 -0.1770238
vn -0.8029681 -0.5125104 -0.3042618
vn -0.617184 -0.7549275 -0.2217393
vn -0.4082657 -0.8828285 -0.2322349
vn -0.1768492 -0.9676844 -0.1797535
vn 0.05482247 -0.9962573 -0.06682684
vn 0.2613655 -0.9607626 0.09286246
vn 0.4214452 -0.8637772 0.2761754
vn 0.5162337 -0.7277145 0.4515908
vn 0.539422 -0.5859786 0.6046925
vn 0.4924007 -0.453028 0.7431737
vn 0.3760858 -0.3102488 0.8731008
vn 0.1832169 -0.157729 0.9703367
vn 0.5643969 -0.8060279 0.1782556
vn 0.6607199 -0.6495848 0.37615
vn 0.3890536 -0.9205751 -0.03433261
vn 0.1582469 -0.9627208 -0.2193775
vn -0.1030813 -0.9322252 -0.3468867
vn -0.365942 -0.8397639 -0.4011022
vn -0.6063504 -0.6972453 -0.3823455
vn 0.6793972 -0.7292619 0.08121928
vn 0.7677328 -0.5668198 0.2988339
vn 0.4979601 -0.8533611 -0.1543071
vn 0.2508473 -0.8992071 -0.3584722
vn -0.02946893 -0.8678178 -0.4960079
vn -0.3151816 -0.7736369 -0.5496784
vn -0.58218 -0.6225967 -0.5229147
vn -0.8018409 -0.4159864 -0.4289597
vn -0.9354153 -0.1969666 -0.2936027
vn 0.7667647 -0.6417605 -0.01467929
vn 0.8447618 -0.4872172 0.2213525
vn 0.5873861 -0.7633625 -0.2688034
vn 0.3325233 -0.807511 -0.4871903
vn 0.04219863 -0.7740025 -0.6317749
vn -0.2555245 -0.679577 -0.6876644
vn -0.5414497 -0.5215267 -0.6594257
vn -0.7767681 -0.3095857 -0.5484414
vn 0.8311515 -0.5446351 -0.1120703
vn 0.9065861 -0.3985054 0.1389073
vn 0.6546394 -0.6550722 -0.3772633
vn 0.3987906 -0.6914181 -0.6024177
vn 0.1096463 -0.6537148 -0.7487555
vn -0.187152 -0.5573382 -0.8089179
vn -0.4775315 -0.397969 -0.7833161
vn -0.7168776 -0.1953784 -0.6692637
vn 0.851325 -0.3192839 0.4162973
vn 0.7775577 -0.4116203 0.4753659
vn 0.7350457 -0.2344928 0.6361768
vn 0.6304541 -0.3488612 0.6934144
vn 0.5120723 -0.1737628 0.8411828
vn 0.3093831 -9.413438E-05 0.9509374
vn 0.03375134 0.1414717 0.9893667
vn 0.6780281 -0.4978552 0.5407571
vn 0.4114515 0.1413192 0.900409
vn 0.1278996 0.2945376 0.9470424
vn 0.6174475 -0.04511517 0.7853173
vn 0.6888652 0.06500982 0.7219685
vn 0.489794 0.2548332 0.8337637
vn 0.8044173 -0.1321185 0.5791869
vn 0.7356179 0.1565876 0.6590498
vn 0.5471801 0.3376148 0.7659048
vn 0.8511774 -0.03995139 0.5233554
vn 0.9075392 -0.2266038 0.3535864
vn 0.7735347 0.2345939 0.5887358
vn 0.5903293 0.4247828 0.6863459
vn 0.8895831 0.05500861 0.4534489
vn 0.952745 -0.1281748 0.2754058
vn 0.953375 -0.2978173 0.04879585
vn 0.876228 -0.4338327 -0.2097943
vn 0.7011914 -0.5316306 -0.4750786
vn 0.4484006 -0.5604001 -0.6963395
vn 0.169623 -0.5191971 -0.8376529
vn -0.1151906 -0.4199559 -0.9002045
vn -0.389634 -0.2654851 -0.8818747
vn 0.9010825 -0.3081645 -0.3050983
vn 0.9832566 -0.1745432 -0.05235539
vn 0.7309148 -0.3941682 -0.557131
vn 0.486098 -0.4209941 -0.7658151
vn 0.2223628 -0.3799309 -0.8978904
vn -0.04199172 -0.279941 -0.9590985
vn -0.2930489 -0.1301116 -0.9472029
vn 0.9051232 -0.1559306 -0.3955219
vn 0.9861056 -0.02990565 -0.1634055
vn 0.7455732 -0.2371161 -0.6228133
vn 0.5188245 -0.2648556 -0.8128177
vn 0.2727336 -0.228947 -0.9344515
vn 0.03218415 -0.1333715 -0.9905434
vn 0.9850981 -0.00999561 0.1717025
vn 0.9225237 0.1579059 0.3521587
vn 0.808148 0.3286926 0.488731
vn 0.9379092 0.2675572 0.2207704
vn 0.8278904 0.4372576 0.351288
vn 0.9924125 0.113809 0.04652756
vn 0.8792681 0.008893876 -0.4762442
vn 0.9553296 0.1125403 -0.2732766
vn 0.5415049 -0.08187935 -0.8367009
vn 0.7377709 -0.05936393 -0.6724359
vn 0.9672323 0.238604 -0.08677374
vn 0.9212746 0.3828443 0.06843542
vn 0.8186105 0.1802668 -0.5453263
vn 0.8866242 0.2634661 -0.3801092
vn 0.6994888 0.1279925 -0.7030884
vn 0.5399938 0.1140142 -0.8339109
vn 0.3610914 0.1393877 -0.9220542
vn 0.3218661 -0.05228554 -0.9453403
vn 0.1073703 0.02904728 -0.9937947
vn 0.9005483 0.3711096 -0.2264741
vn -0.1976598 0.00623744 -0.9802508
vn -0.8237501 -0.1821453 0.5368974
vn -0.882657 -0.2702874 0.3845274
vn -0.880711 -0.003744371 0.473639
vn -0.9500191 -0.1129679 0.291036
vn -0.7499432 0.06503066 0.658298
vn -0.7129971 -0.1289736 0.6892031
vn -0.5600458 0.08380309 0.8242123
vn -0.5557953 -0.1162226 0.8231549
vn -0.902321 0.1606721 0.4000015
vn -0.9802564 0.03471422 0.1946594
vn -0.9597076 -0.254909 0.118249
vn -0.9922816 -0.1239118 -0.004801136
vn -0.756748 0.2427274 0.6069727
vn -0.5429907 0.2687346 0.7955769
vn -0.2683193 0.2331612 0.9346875
vn -0.3255315 0.05023362 0.944196
vn 0.03375134 0.1414717 0.9893667
vn -0.06565189 -0.03256179 0.9973111
vn -0.9802337 0.1739401 0.09426951
vn -0.9933044 0.001417424 -0.1155172
vn -0.9338979 -0.3106402 -0.1770238
vn -0.9354153 -0.1969666 -0.2936027
vn -0.8951247 0.3115417 0.3188941
vn -0.7392518 0.4023885 0.539991
vn -0.5081989 0.4345327 0.7435827
vn -0.2026594 0.3962916 0.8954787
vn 0.1278996 0.2945376 0.9470424
vn -0.9716257 0.1153339 -0.2064982
vn -0.9185934 -0.08873343 -0.3851137
vn -0.8018409 -0.4159864 -0.4289597
vn -0.7767681 -0.3095857 -0.5484414
vn -0.9535711 0.3011492 0.003368327
vn -0.8637024 0.4480138 0.2308717
vn -0.7018429 0.5436691 0.4602614
vn -0.4600995 0.5800512 0.6721972
vn -0.1374518 0.537322 0.832101
vn 0.2070429 0.4159892 0.8854864
vn -0.8777612 0.01246128 -0.4789361
vn -0.7168776 -0.1953784 -0.6692637
vn -0.93641 0.2188355 -0.2743126
vn -0.9070284 0.4151803 -0.0701778
vn -0.810988 0.5671902 0.1435048
vn -0.6470472 0.6667873 0.369763
vn -0.4016174 0.7063369 0.5829165
vn -0.07643715 0.6601451 0.7472388
vn 0.2682373 0.5208861 0.8103866
vn 0.5471801 0.3376148 0.7659048
vn 0.489794 0.2548332 0.8337637
vn 0.4114515 0.1413192 0.900409
vn -0.7947229 0.126047 -0.5937404
vn -0.6306738 -0.07633788 -0.7722843
vn -0.4775315 -0.397969 -0.7833161
vn -0.389634 -0.2654851 -0.8818747
vn -0.8394797 0.5254054 -0.1386472
vn -0.8704684 0.335414 -0.3602529
vn -0.333149 0.813473 0.4767321
vn -0.01825303 0.7683544 0.6397643
vn 0.5903293 0.4247828 0.6863459
vn -0.5156478 0.04824073 -0.8554416
vn -0.2930489 -0.1301116 -0.9472029
vn -0.6837261 0.2471565 -0.6866092
vn -0.7589911 0.4568823 -0.463887
vn -0.7371747 0.6356792 -0.229097
vn -0.6425154 0.7657453 -0.02842483
vn -0.7379817 0.6720344 0.06125828
vn -0.5754345 0.7719769 0.2700496
vn -0.4861621 0.8585663 0.1628194
vn -0.2536218 0.9001465 0.3541359
vn -0.1621738 0.9627775 0.2162387
vn -0.3780174 0.9247036 0.04501205
vn -0.5237527 0.8414779 -0.1326578
vn -0.6055884 0.7246515 -0.3288508
vn -0.6180595 0.5611722 -0.5505343
vn -0.5417307 0.3657385 -0.7568112
vn -0.4538221 0.6415004 -0.6184841
vn -0.3873874 0.4682737 -0.7941351
vn -0.390146 0.1733521 -0.904287
vn -0.1976598 0.00623744 -0.9802508
vn -0.2624704 0.2976824 -0.917875
vn -0.09204955 0.1493171 -0.9844955
vn 0.03218415 -0.1333715 -0.9905434
vn 0.1073703 0.02904728 -0.9937947
vn -0.4506729 0.7846854 -0.4256323
vn -0.3819941 0.8907191 -0.2463735
vn -0.1171478 0.4180694 -0.9008298
vn 0.02123063 0.2974485 -0.9545017
vn 0.1851852 0.2025858 -0.9615952
vn 0.3218661 -0.05228554 -0.9453403
vn 0.3610914 0.1393877 -0.9220542
vn -0.2180091 0.5564415 -0.8017761
vn -0.271834 0.6949828 -0.6656616
vn -0.2717832 0.8148102 -0.5120725
vn -0.2158223 0.9070064 -0.3616074
vn -0.1058417 0.9688225 -0.2240101
vn -0.251066 0.9642509 -0.08477078
vn -0.05942357 0.9962026 0.06363158
vn 0.1744185 0.9682478 0.1790932
vn 0.105509 0.9301181 0.3517784
vn 0.04117689 0.8608202 0.5072407
vn 0.3578284 0.7234486 0.5904075
vn 0.3165935 0.6226159 0.7156242
vn 0.6252643 0.525346 0.5771102
vn 0.808148 0.3286926 0.488731
vn 0.7735347 0.2345939 0.5887358
vn 0.3935571 0.8130192 0.4290836
vn 0.6479644 0.6304786 0.4273627
vn 0.8278904 0.4372576 0.351288
vn 0.4225082 0.8735726 0.2415735
vn 0.6491442 0.7208265 0.2429421
vn 0.8175387 0.5463875 0.1819098
vn 0.9212746 0.3828443 0.06843542
vn 0.9379092 0.2675572 0.2207704
vn 0.6258765 0.7788367 0.04113616
vn 0.4420049 0.896088 0.04071623
vn 0.2426281 0.9700795 -0.008795365
vn 0.7695139 0.6385924 -0.006938262
vn 0.8614463 0.4981705 -0.098673
vn 0.9005483 0.3711096 -0.2264741
vn 0.9672323 0.238604 -0.08677374
vn 0.4443761 0.8785261 -0.1752761
vn 0.304051 0.9289149 -0.2113528
vn 0.05228763 0.993376 -0.1023246
vn 0.1687296 0.9454255 -0.2787489
vn 0.0548238 0.9282001 -0.3680203
vn -0.02556298 0.8819721 -0.4706079
vn -0.06686642 0.8119264 -0.5799176
vn -0.06745152 0.7235619 -0.686956
vn -0.02918668 0.6251209 -0.779982
vn 0.04276926 0.5274087 -0.8485346
vn 0.1414342 0.4409472 -0.8863193
vn 0.2590536 0.3731456 -0.8908724
vn 0.3854687 0.3287729 -0.8621614
vn 0.5399938 0.1140142 -0.8339109
vn 0.5141147 0.3110688 -0.7993261
vn 0.6994888 0.1279925 -0.7030884
vn 0.6297166 0.3213416 -0.7072457
vn 0.8186105 0.1802668 -0.5453263
vn 0.7178621 0.3594241 -0.5962285
vn 0.8866242 0.2634661 -0.3801092
vn 0.7698197 0.4215631 -0.4792308
vn 0.7814897 0.5033368 -0.3686813
vn 0.751573 0.5992253 -0.2758025
vn 0.6819922 0.7008328 -0.2090935
vn 0.5767435 0.7981676 -0.1740559
vn 0.5928829 0.5216535 -0.613488
vn 0.6214224 0.5610389 -0.5468725
vn 0.5424569 0.4963985 -0.6777382
vn 0.4755695 0.4878175 -0.7320299
vn 0.4006023 0.4961105 -0.7703195
vn 0.3266019 0.5201544 -0.7891581
vn 0.2576279 0.5583996 -0.7885543
vn 0.1990051 0.6077014 -0.7688277
vn 0.1561261 0.6636761 -0.7315454
vn 0.132939 0.7209415 -0.6801254
vn 0.1324219 0.7736738 -0.6195914
vn 0.1557402 0.8166178 -0.5557701
vn 0.2017129 0.8453889 -0.4946004
vn 0.2664715 0.8568743 -0.4413156
vn 0.3433389 0.849381 -0.400837
vn 0.4217081 0.8239266 -0.3785596
vn 0.4989168 0.7806501 -0.3763874
vn 0.5641927 0.7250525 -0.3949497
vn 0.606368 0.6676287 -0.4319604
vn 0.625926 0.6114001 -0.4841554
vn 0.386671 0.6923681 -0.6091896
vn -0.9922816 -0.1239118 -0.004801136
vn -0.3924313 -0.7078904 0.5872724
vn -0.7165026 0.696818 -0.03269168
vn -0.9248215 0.3567686 -0.13199
vn -0.6861303 0.7120431 -0.1490635
vn -0.8498939 0.462747 -0.2520824
vn -0.4396917 0.8966531 -0.05181175
vn -0.4173659 0.9083864 0.02529418
vn -0.1733883 0.9847602 0.01356335
vn -0.1097966 0.9892727 0.0963553
vn 0.2797113 0.9574463 0.07112111
vn 0.3794937 0.9191568 0.1055235
vn 0.7685463 0.635612 0.07303435
vn 0.7562547 0.6528279 -0.04352519
vn 0.9448287 0.3274454 0.008841246
vn 0.8447685 0.4980167 -0.1958202
vn 0.9770056 0.1856636 -0.1048288
vn 0.8837517 0.3442751 -0.3169501
vn 0.9482843 -0.02931361 -0.3160658
vn -0.6100695 0.7776426 -0.1519448
vn -0.7483938 0.6047277 -0.2724172
vn -0.5676232 0.791564 -0.2263409
vn -0.6658401 0.646392 -0.3726046
vn -0.1502197 0.7193824 -0.6781762
vn -0.3739071 0.9213645 -0.1062122
vn -0.03718833 0.7224152 -0.6904588
vn -0.3881076 0.9214931 -0.01493464
vn -0.07884575 0.9964102 -0.03082416
vn 0.0300606 0.6851711 -0.7277615
vn 0.3070666 0.9516739 -0.005170924
vn 0.6531954 0.7558547 -0.04493719
vn -0.04316747 0.993443 0.1058653
vn 0.41796 0.8939563 0.1617148
vn -0.8097873 0.4248314 -0.4046763
vn -0.6835476 0.5007834 -0.5310165
vn -0.1632161 0.675948 -0.718648
vn -0.6294016 0.3549861 -0.6912587
vn -0.7905029 0.2056133 -0.5769128
vn -0.6657291 -0.02177689 -0.7458757
vn -0.4795102 0.1972693 -0.855076
vn -0.1074855 0.6653827 -0.7387237
vn -0.3852236 -0.2319761 -0.8931908
vn -0.2230557 0.04957749 -0.9735441
vn 0.0300606 0.6851711 -0.7277615
vn -0.7586679 -0.220862 -0.6128972
vn -0.5111519 -0.3838057 -0.7690365
vn -0.8884026 0.005767612 -0.4590288
vn -0.7993214 -0.3139743 -0.5123528
vn -0.9372267 -0.09678511 -0.3350206
vn -0.9145278 0.2515568 -0.3167935
vn -0.9688436 0.117741 -0.2178973
vn 0.3422875 0.9287591 0.1422881
vn 0.41796 0.8939563 0.1617148
vn 0.7975642 0.5843635 0.1497022
vn 0.9554681 0.2727876 0.1125505
vn 0.8330493 0.5356889 -0.1380805
vn 0.1644843 0.6875594 -0.7072532
vn 0.5153169 0.8306217 0.2109883
vn 0.2183303 0.6640723 -0.7150803
vn 0.8884439 0.352777 -0.2936253
vn 0.8387704 0.1775763 -0.5147144
vn 0.2073531 0.6236967 -0.7536624
vn 0.6733465 0.04222941 -0.73812
vn 0.09701872 0.6440815 -0.7587796
vn 0.3918823 -0.04651655 -0.9188386
vn 0.6733465 0.04222941 -0.73812
vn 0.8626241 0.07265531 -0.5006006
vn 0.8837517 0.3442751 -0.3169501
vn 0.9482843 -0.02931361 -0.3160658
vn 0.7485611 -0.2798941 -0.6010954
vn 0.6709357 -0.176474 -0.7202099
vn 0.3848214 -0.4269263 -0.8183193
vn 0.291307 -0.3704909 -0.8819731
vn -0.09379017 -0.4708189 -0.8772302
vn -0.2081954 -0.4620111 -0.8620907
vn -0.5111519 -0.3838057 -0.7690365
vn -0.5846985 -0.4195403 -0.694344
vn -0.7586679 -0.220862 -0.6128972
vn -0.7993214 -0.3139743 -0.5123528
vn 0.7559153 -0.3160061 -0.5733516
vn 0.9576284 -0.1350463 -0.2543825
vn 0.6733465 0.04222941 -0.73812
vn 0.8387704 0.1775763 -0.5147144
vn 0.9978703 0.06411649 -0.01199408
vn 0.8884439 0.352777 -0.2936253
vn 0.9554681 0.2727876 0.1125505
vn 0.8330493 0.5356889 -0.1380805
vn 0.3918823 -0.04651655 -0.9188386
vn 0.4095164 -0.3996693 -0.820098
vn 0.9448287 0.3274454 0.008841246
vn 0.7685463 0.635612 0.07303435
vn 0.9770056 0.1856636 -0.1048288
vn 0.01786209 -0.3667383 -0.9301527
vn 0.08261826 -0.04100371 -0.9957373
vn -0.3852236 -0.2319761 -0.8931908
vn -0.6657291 -0.02177689 -0.7458757
vn -0.2230557 0.04957749 -0.9735441
vn 0.08261826 -0.04100371 -0.9957373
vn 0.3918823 -0.04651655 -0.9188386
vn 0.3436804 -0.8246715 -0.4492221
vn 0.1682466 -0.9813955 -0.09249835
vn 0.3044652 -0.8731694 -0.3806258
vn 0.1600386 -0.9869235 -0.01922721
vn 0.4050894 -0.6319524 -0.6607108
vn 0.4686292 -0.5688707 -0.6758497
vn 0.4606011 -0.3423551 -0.8189259
vn 0.5555838 -0.2976826 -0.7763451
vn 0.4918438 -0.01984431 -0.8704573
vn 0.6230811 0.01649778 -0.7819833
vn -0.04059174 -0.942427 0.3319392
vn -0.01111085 -0.9344074 0.3560327
vn -0.2295895 -0.7149263 0.660431
vn -0.1613438 -0.7287388 0.6655133
vn -0.3146233 -0.4501289 0.8357011
vn -0.2329882 -0.4358707 0.8693292
vn -0.2682083 -0.1766059 0.9470347
vn -0.2134323 -0.09525979 0.9723025
vn -0.137364 0.1412824 0.980393
vn -0.14151 0.2317289 0.9624327
vn 0.5696322 -0.4212894 -0.7057154
vn 0.6197652 -0.07078598 -0.7815885
vn 0.8710227 -0.1582827 -0.4650442
vn 0.7944289 -0.4126661 -0.4456335
vn 0.5004346 -0.6941172 -0.5174617
vn 0.7134905 -0.6182663 -0.3296636
vn 0.9556786 -0.2751447 0.1047556
vn 0.968087 -0.2479352 0.03654775
vn 0.4087073 -0.8776758 -0.2502872
vn 0.6333384 -0.7625239 -0.1320596
vn 0.9355984 -0.3441614 0.07879499
vn 0.3065891 -0.9506266 0.04808659
vn 0.5529954 -0.8227853 0.1312268
vn 0.9259537 -0.3432622 0.1574191
vn 0.9129683 0.1385415 -0.3837903
vn 0.9784763 -0.1869592 0.08735221
vn 0.6196351 0.3278303 -0.7131476
vn 0.199882 -0.9085963 0.3667422
vn 0.4712981 -0.7755344 0.4200292
vn 0.8900591 -0.3403449 0.3032493
vn 0.09144773 -0.7349463 0.6719311
vn 0.3988964 -0.6213263 0.6744148
vn 0.8743536 -0.2682693 0.4043974
vn 0.008008524 -0.4444742 0.8957559
vn 0.3459397 -0.3722115 0.8612689
vn 0.8311065 -0.2206505 0.5104659
vn -0.02896204 -0.106316 0.9939106
vn 0.3228911 -0.09080254 0.9420702
vn 0.804543 -0.09849662 0.5856696
vn -0.02025835 0.2142303 0.9765732
vn 0.3417983 0.1751595 0.9233055
vn 0.780154 -0.03358342 0.6246855
vn 0.9810066 -0.06987578 0.1809513
vn 0.8907477 0.4041348 -0.2079507
vn 0.8238869 -0.0120265 0.5666266
vn 0.3417983 0.1751595 0.9233055
vn 0.4069836 0.3966137 0.8228378
vn 0.6465966 0.4117242 -0.6421807
vn 0.6230811 0.01649778 -0.7819833
vn 0.4951308 0.3598996 -0.7907704
vn 0.4918438 -0.01984431 -0.8704573
vn 0.4315494 0.7220643 -0.5407294
vn 0.5800778 0.7321354 -0.3570539
vn 0.3022821 0.9433252 -0.1369788
vn 0.4649192 0.8853439 0.004039092
vn 0.1737445 0.9477285 0.267626
vn 0.3506239 0.8706577 0.3449899
vn 0.06499775 0.798904 0.5979363
vn 0.2091064 0.7251279 0.6560975
vn -0.04052284 0.5455371 0.8371065
vn 0.03625302 0.4627005 0.885773
vn -0.14151 0.2317289 0.9624327
vn -0.137364 0.1412824 0.980393
vn 0.6196351 0.3278303 -0.7131476
vn 0.6197652 -0.07078598 -0.7815885
vn 0.4176894 0.9022566 -0.1070913
vn 0.5513517 0.675787 -0.4892067
vn 0.8907477 0.4041348 -0.2079507
vn 0.9129683 0.1385415 -0.3837903
vn 0.8076139 0.5866099 0.06040328
vn 0.9549944 -0.02754848 0.2953417
vn 0.6678128 0.6435599 0.3739744
vn 0.9208524 0.04483252 0.3873253
vn 0.2463067 0.9134061 0.3240713
vn 0.5235746 0.5660546 0.6367509
vn 0.8553802 0.05477072 0.5150968
vn 0.1125254 0.754584 0.6464835
vn 0.4069836 0.3966137 0.8228378
vn 0.8116477 0.06149212 0.5809017
vn 0.0252854 0.5082235 0.860854
vn 0.3417983 0.1751595 0.9233055
vn -0.02025835 0.2142303 0.9765732
vn -0.02896204 -0.106316 0.9939106
vn -0.2134323 -0.09525979 0.9723025
vn 0.4754801 -0.1087629 0.8729773
vn 0.2601391 -0.5726427 0.7774369
vn 0.1276002 -0.157948 0.9791683
vn 0.08161452 -0.4414054 0.8935884
vn 0.020544 -0.8280581 0.5602657
vn -0.1090778 0.08334211 0.9905332
vn -0.2060713 -0.1844434 0.960997
vn -0.4027891 0.08518754 0.9113199
vn -0.5255235 -0.1359648 0.8398444
vn -0.399206 -0.4124928 0.818831
vn -0.6684904 -0.3428342 0.6599889
vn -0.6247103 -0.649156 0.4339741
vn -0.7681542 -0.4789389 0.4249196
vn -0.9279328 0.1717985 0.3307959
vn -0.8372187 -0.5301756 0.1340852
vn -0.8653636 -0.4788278 -0.1478844
vn -0.6967442 -0.6754944 -0.2413602
vn -0.7053873 -0.5060641 -0.4963143
vn -0.8664997 -0.351452 -0.3544854
vn -0.6788447 -0.2924989 -0.6735089
vn -0.4604546 -0.3701043 -0.8068485
vn -0.4299126 -0.6278225 -0.6488561
vn -0.3058451 -0.3870445 -0.8698595
vn -0.1576147 -0.6620364 -0.732711
vn -0.2963454 -0.852431 -0.4307446
vn -0.04374839 -0.8170649 -0.5748837
vn -0.131336 -0.9173725 -0.3757373
vn -0.3122251 -0.190087 -0.9307966
vn -0.5075732 -0.04560032 -0.8604011
vn -0.8614379 -0.1530835 -0.4842419
vn -0.6753975 -0.7326598 0.08395186
vn -0.3201503 -0.9295226 -0.1830065
vn -0.4168081 -0.9020528 -0.1121234
vn -0.4568785 -0.8553033 0.2443733
vn -0.2817881 -0.7243008 0.6292725
vn -0.04461243 -0.6399744 0.7671
vn 0.04798068 -0.5305922 0.8462681
vn 0.2589007 -0.6568969 0.7081363
vn -0.176261 -0.878867 0.4433111
vn -0.3014325 -0.9528365 0.03523048
vn -0.1200798 -0.804287 0.5819821
vn -0.04461243 -0.6399744 0.7671
vn -0.06406173 -0.938291 0.339862
vn -0.06330768 -0.8313795 0.5520871
vn -0.5645427 -0.7912233 -0.2350686
vn -0.2421441 -0.8488826 -0.469856
vn -0.4074014 -0.8886907 -0.2103637
vn -0.2265051 -0.973977 -0.008020313
vn -0.2421441 -0.8488826 -0.469856
vn -0.3201503 -0.9295226 -0.1830065
vn -0.04374839 -0.8170649 -0.5748837
vn 0.6126947 0.423663 0.6671693
vn 0.2619027 0.3738437 0.8897459
vn 0.3827783 0.6772772 0.6283123
vn 0.6126947 0.423663 0.6671693
vn 0.2899101 0.696391 0.6564997
vn 0.2619027 0.3738437 0.8897459
vn 0.1300826 0.7685563 0.6264182
vn 0.06164068 0.7527243 0.6554438
vn 0.07232251 0.9344873 0.3485726
vn 0.1803448 0.9768555 0.1150174
vn -0.02247731 0.9903914 -0.136454
vn -0.05019272 0.9768594 -0.2079096
vn -0.2608882 0.8706823 -0.4169528
vn -0.4662117 0.80936 -0.3571877
vn -0.5386888 0.499466 -0.6784896
vn -0.5811867 0.2717631 -0.7670507
vn -0.5075732 -0.04560032 -0.8604011
vn -0.3122251 -0.190087 -0.9307966
vn 0.04153794 0.7894704 0.6123814
vn 0.0392763 0.6904607 0.7223028
vn -0.2315342 0.7620593 0.6046962
vn -0.217659 0.6149623 0.7579222
vn -0.8683475 0.2370789 0.4356218
vn -0.3002975 0.3432576 0.8899414
vn -0.3533997 0.848505 0.3938881
vn -0.912869 0.2015888 0.35501
vn -0.002008435 0.4640923 0.8857845
vn -0.1090778 0.08334211 0.9905332
vn -0.4027891 0.08518754 0.9113199
vn -0.8919855 0.2018751 0.4044853
vn -0.03949054 0.91658 0.3978964
vn -0.4939511 0.8673891 0.06040181
vn -0.9279328 0.1717985 0.3307959
vn -0.6219276 0.7496273 -0.2264177
vn -0.7445826 0.4829159 -0.4608569
vn -0.8307924 0.1602026 -0.5330282
vn -0.1767705 0.9823146 -0.06172739
vn -0.3055924 0.8350678 -0.4574659
vn -0.4755163 0.5035002 -0.7213681
vn -0.6126696 0.05979409 -0.788074
vn -0.8614379 -0.1530835 -0.4842419
vn -0.9686585 0.1121596 0.221632
vn -0.8664997 -0.351452 -0.3544854
vn -0.6788447 -0.2924989 -0.6735089
vn -0.4604546 -0.3701043 -0.8068485
vn -0.9279328 0.1717985 0.3307959
vn -0.4027891 0.08518754 0.9113199
vn -0.5255235 -0.1359648 0.8398444
vn -0.6684904 -0.3428342 0.6599889
vn -0.9650556 0.07844025 0.2500297
vn -0.8653636 -0.4788278 -0.1478844
vn -0.8664997 -0.351452 -0.3544854
vn 0.1276002 -0.157948 0.9791683
g BRM_Rookery_Egg5_0
f 3/3/3 2/2/2 1/1/1
f 4/4/4 2/2/2 3/3/3
f 3/3/3 1/1/1 5/5/5
f 5/5/5 1/1/1 6/6/6
f 5/5/5 6/6/6 7/7/7
f 7/7/7 6/6/6 8/8/8
f 7/7/7 8/8/8 9/9/9
f 9/9/9 8/8/8 10/10/10
f 9/9/9 10/10/10 11/11/11
f 11/11/11 10/10/10 12/12/12
f 11/11/11 12/12/12 13/13/13
f 13/13/13 12/12/12 14/14/14
f 13/13/13 14/14/14 15/15/15
f 15/15/15 14/14/14 16/16/16
f 15/15/15 16/16/16 17/17/17
f 17/17/17 16/16/16 18/18/18
f 17/17/17 18/18/18 19/19/19
f 19/19/19 18/18/18 20/20/20
f 19/19/19 20/20/20 21/21/21
f 21/21/21 20/20/20 22/22/22
f 21/21/21 22/22/22 23/23/23
f 23/23/23 22/22/22 24/24/24
f 23/23/23 24/24/24 25/25/25
f 25/25/25 24/24/24 26/26/26
f 25/25/25 26/26/26 27/27/27
f 27/27/27 26/26/26 28/28/28
f 27/27/27 28/28/28 29/29/29
f 29/29/29 28/28/28 30/30/30
f 29/29/29 30/30/30 31/31/31
f 31/31/31 30/30/30 32/32/32
f 31/31/31 32/32/32 33/33/33
f 33/33/33 32/32/32 34/34/34
f 33/33/33 34/34/34 35/35/35
f 35/35/35 34/34/34 36/36/36
f 35/35/35 36/36/36 37/37/37
f 37/37/37 36/36/36 38/38/38
f 37/37/37 38/38/38 39/39/39
f 39/39/39 38/38/38 40/40/40
f 39/39/39 40/40/40 4/4/4
f 4/4/4 40/40/40 2/2/2
f 41/41/41 27/27/27 29/29/29
f 42/42/42 29/29/29 31/31/31
f 41/41/41 29/29/29 42/42/42
f 43/43/43 31/31/31 33/33/33
f 42/42/42 31/31/31 43/43/43
f 44/44/44 33/33/33 35/35/35
f 43/43/43 33/33/33 44/44/44
f 45/45/45 35/35/35 37/37/37
f 44/44/44 35/35/35 45/45/45
f 46/46/46 37/37/37 39/39/39
f 45/45/45 37/37/37 46/46/46
f 47/47/47 39/39/39 4/4/4
f 46/46/46 39/39/39 47/47/47
f 47/47/47 4/4/4 48/48/48
f 48/48/48 4/4/4 3/3/3
f 48/48/48 3/3/3 49/49/49
f 49/49/49 3/3/3 5/5/5
f 49/49/49 5/5/5 50/50/50
f 50/50/50 5/5/5 7/7/7
f 50/50/50 7/7/7 51/51/51
f 51/51/51 7/7/7 9/9/9
f 51/51/51 9/9/9 52/52/52
f 52/52/52 9/9/9 11/11/11
f 52/52/52 11/11/11 53/53/53
f 53/53/53 11/11/11 13/13/13
f 53/53/53 13/13/13 54/54/54
f 54/54/54 13/13/13 15/15/15
f 54/54/54 15/15/15 55/55/55
f 55/55/55 15/15/15 17/17/17
f 55/55/55 17/17/17 56/56/56
f 56/56/56 17/17/17 19/19/19
f 56/56/56 19/19/19 57/57/57
f 57/57/57 19/19/19 21/21/21
f 57/57/57 21/21/21 58/58/58
f 58/58/58 21/21/21 23/23/23
f 58/58/58 23/23/23 59/59/59
f 59/59/59 23/23/23 25/25/25
f 59/59/59 25/25/25 60/60/60
f 60/60/60 25/25/25 27/27/27
f 60/60/60 27/27/27 41/41/41
f 61/61/61 54/54/54 55/55/55
f 62/62/62 54/54/54 61/61/61
f 63/63/63 55/55/55 56/56/56
f 61/61/61 55/55/55 63/63/63
f 64/64/64 56/56/56 57/57/57
f 63/63/63 56/56/56 64/64/64
f 65/65/65 60/60/60 41/41/41
f 66/66/66 60/60/60 65/65/65
f 65/65/65 41/41/41 67/67/67
f 67/67/67 41/41/41 42/42/42
f 68/68/68 62/62/62 61/61/61
f 69/69/69 62/62/62 68/68/68
f 69/69/69 70/70/70 62/62/62
f 70/70/70 53/53/53 62/62/62
f 70/70/70 52/52/52 53/53/53
f 71/71/71 52/52/52 70/70/70
f 71/71/71 51/51/51 52/52/52
f 72/72/72 51/51/51 71/71/71
f 72/72/72 50/50/50 51/51/51
f 73/73/73 50/50/50 72/72/72
f 73/73/73 49/49/49 50/50/50
f 74/74/74 49/49/49 73/73/73
f 74/74/74 48/48/48 49/49/49
f 75/75/75 48/48/48 74/74/74
f 75/75/75 47/47/47 48/48/48
f 76/76/76 47/47/47 75/75/75
f 76/76/76 46/46/46 47/47/47
f 77/77/77 46/46/46 76/76/76
f 77/77/77 45/45/45 46/46/46
f 78/78/78 45/45/45 77/77/77
f 78/78/78 44/44/44 45/45/45
f 79/79/79 44/44/44 78/78/78
f 79/79/79 43/43/43 44/44/44
f 80/80/80 43/43/43 79/79/79
f 80/80/80 42/42/42 43/43/43
f 67/67/67 42/42/42 80/80/80
f 81/81/81 76/76/76 75/75/75
f 82/82/82 76/76/76 81/81/81
f 82/82/82 77/77/77 76/76/76
f 81/81/81 75/75/75 83/83/83
f 83/83/83 75/75/75 74/74/74
f 83/83/83 74/74/74 84/84/84
f 84/84/84 74/74/74 73/73/73
f 84/84/84 73/73/73 85/85/85
f 85/85/85 73/73/73 72/72/72
f 85/85/85 72/72/72 86/86/86
f 86/86/86 72/72/72 71/71/71
f 86/86/86 71/71/71 87/87/87
f 87/87/87 71/71/71 70/70/70
f 87/87/87 70/70/70 69/69/69
f 88/88/88 82/82/82 81/81/81
f 89/89/89 82/82/82 88/88/88
f 90/90/90 81/81/81 83/83/83
f 88/88/88 81/81/81 90/90/90
f 91/91/91 83/83/83 84/84/84
f 90/90/90 83/83/83 91/91/91
f 92/92/92 84/84/84 85/85/85
f 91/91/91 84/84/84 92/92/92
f 93/93/93 85/85/85 86/86/86
f 92/92/92 85/85/85 93/93/93
f 94/94/94 86/86/86 87/87/87
f 93/93/93 86/86/86 94/94/94
f 95/95/95 87/87/87 69/69/69
f 94/94/94 87/87/87 95/95/95
f 95/95/95 69/69/69 96/96/96
f 96/96/96 69/69/69 68/68/68
f 97/97/97 89/89/89 88/88/88
f 98/98/98 89/89/89 97/97/97
f 99/99/99 88/88/88 90/90/90
f 97/97/97 88/88/88 99/99/99
f 100/100/100 90/90/90 91/91/91
f 99/99/99 90/90/90 100/100/100
f 101/101/101 91/91/91 92/92/92
f 100/100/100 91/91/91 101/101/101
f 102/102/102 92/92/92 93/93/93
f 101/101/101 92/92/92 102/102/102
f 103/103/103 93/93/93 94/94/94
f 102/102/102 93/93/93 103/103/103
f 104/104/104 94/94/94 95/95/95
f 103/103/103 94/94/94 104/104/104
f 105/105/105 98/98/98 97/97/97
f 106/106/106 98/98/98 105/105/105
f 107/107/107 97/97/97 99/99/99
f 105/105/105 97/97/97 107/107/107
f 108/108/108 99/99/99 100/100/100
f 107/107/107 99/99/99 108/108/108
f 109/109/109 100/100/100 101/101/101
f 108/108/108 100/100/100 109/109/109
f 110/110/110 101/101/101 102/102/102
f 109/109/109 101/101/101 110/110/110
f 111/111/111 102/102/102 103/103/103
f 110/110/110 102/102/102 111/111/111
f 112/112/112 103/103/103 104/104/104
f 111/111/111 103/103/103 112/112/112
f 106/106/106 113/113/113 98/98/98
f 113/113/113 114/114/114 98/98/98
f 113/113/113 115/115/115 114/114/114
f 115/115/115 116/116/116 114/114/114
f 115/115/115 117/117/117 116/116/116
f 117/117/117 79/79/79 116/116/116
f 117/117/117 80/80/80 79/79/79
f 118/118/118 80/80/80 117/117/117
f 118/118/118 67/67/67 80/80/80
f 119/119/119 67/67/67 118/118/118
f 116/116/116 79/79/79 78/78/78
f 116/116/116 78/78/78 120/120/120
f 114/114/114 116/116/116 120/120/120
f 120/120/120 78/78/78 77/77/77
f 120/120/120 77/77/77 82/82/82
f 121/121/121 119/119/119 118/118/118
f 122/122/122 119/119/119 121/121/121
f 123/123/123 118/118/118 117/117/117
f 121/121/121 118/118/118 123/123/123
f 123/123/123 117/117/117 115/115/115
f 89/89/89 120/120/120 82/82/82
f 114/114/114 120/120/120 89/89/89
f 124/124/124 121/121/121 123/123/123
f 125/125/125 121/121/121 124/124/124
f 124/124/124 123/123/123 126/126/126
f 126/126/126 123/123/123 115/115/115
f 126/126/126 115/115/115 113/113/113
f 98/98/98 114/114/114 89/89/89
f 127/127/127 125/125/125 124/124/124
f 128/128/128 125/125/125 127/127/127
f 129/129/129 124/124/124 126/126/126
f 127/127/127 124/124/124 129/129/129
f 130/130/130 126/126/126 113/113/113
f 129/129/129 126/126/126 130/130/130
f 130/130/130 113/113/113 106/106/106
f 131/131/131 128/128/128 127/127/127
f 132/132/132 128/128/128 131/131/131
f 133/133/133 127/127/127 129/129/129
f 131/131/131 127/127/127 133/133/133
f 134/134/134 129/129/129 130/130/130
f 133/133/133 129/129/129 134/134/134
f 135/135/135 130/130/130 106/106/106
f 134/134/134 130/130/130 135/135/135
f 135/135/135 106/106/106 136/136/136
f 136/136/136 106/106/106 105/105/105
f 136/136/136 105/105/105 137/137/137
f 137/137/137 105/105/105 107/107/107
f 137/137/137 107/107/107 138/138/138
f 138/138/138 107/107/107 108/108/108
f 138/138/138 108/108/108 139/139/139
f 139/139/139 108/108/108 109/109/109
f 139/139/139 109/109/109 140/140/140
f 140/140/140 109/109/109 110/110/110
f 140/140/140 110/110/110 141/141/141
f 141/141/141 110/110/110 111/111/111
f 142/142/142 135/135/135 136/136/136
f 143/143/143 135/135/135 142/142/142
f 143/143/143 134/134/134 135/135/135
f 144/144/144 136/136/136 137/137/137
f 142/142/142 136/136/136 144/144/144
f 145/145/145 137/137/137 138/138/138
f 144/144/144 137/137/137 145/145/145
f 146/146/146 138/138/138 139/139/139
f 145/145/145 138/138/138 146/146/146
f 147/147/147 139/139/139 140/140/140
f 146/146/146 139/139/139 147/147/147
f 148/148/148 140/140/140 141/141/141
f 147/147/147 140/140/140 148/148/148
f 149/149/149 143/143/143 142/142/142
f 150/150/150 143/143/143 149/149/149
f 151/151/151 142/142/142 144/144/144
f 149/149/149 142/142/142 151/151/151
f 152/152/152 144/144/144 145/145/145
f 151/151/151 144/144/144 152/152/152
f 153/153/153 145/145/145 146/146/146
f 152/152/152 145/145/145 153/153/153
f 154/154/154 146/146/146 147/147/147
f 153/153/153 146/146/146 154/154/154
f 150/150/150 155/155/155 143/143/143
f 155/155/155 134/134/134 143/143/143
f 155/155/155 133/133/133 134/134/134
f 156/156/156 133/133/133 155/155/155
f 156/156/156 131/131/131 133/133/133
f 157/157/157 131/131/131 156/156/156
f 158/158/158 157/157/157 156/156/156
f 159/159/159 157/157/157 158/158/158
f 160/160/160 156/156/156 155/155/155
f 158/158/158 156/156/156 160/160/160
f 160/160/160 155/155/155 150/150/150
f 161/161/161 150/150/150 149/149/149
f 162/162/162 150/150/150 161/161/161
f 162/162/162 160/160/160 150/150/150
f 163/163/163 151/151/151 152/152/152
f 164/164/164 151/151/151 163/163/163
f 161/161/161 149/149/149 164/164/164
f 164/164/164 149/149/149 151/151/151
f 165/165/165 158/158/158 160/160/160
f 165/165/165 160/160/160 162/162/162
f 166/166/166 158/158/158 165/165/165
f 167/167/167 162/162/162 161/161/161
f 168/168/168 162/162/162 167/167/167
f 168/168/168 165/165/165 162/162/162
f 169/169/169 161/161/161 164/164/164
f 167/167/167 161/161/161 169/169/169
f 170/170/170 164/164/164 163/163/163
f 169/169/169 164/164/164 170/170/170
f 170/170/170 163/163/163 171/171/171
f 171/171/171 163/163/163 172/172/172
f 163/163/163 152/152/152 172/172/172
f 172/172/172 152/152/152 153/153/153
f 172/172/172 153/153/153 173/173/173
f 173/173/173 153/153/153 154/154/154
f 174/174/174 165/165/165 168/168/168
f 154/154/154 147/147/147 175/175/175
f 175/175/175 147/147/147 148/148/148
f 62/62/62 53/53/53 54/54/54
f 178/178/178 177/177/177 176/176/176
f 179/179/179 177/177/177 178/178/178
f 178/178/178 176/176/176 180/180/180
f 180/180/180 176/176/176 181/181/181
f 180/180/180 181/181/181 182/182/182
f 182/182/182 181/181/181 183/183/183
f 184/184/184 179/179/179 178/178/178
f 185/185/185 179/179/179 184/184/184
f 185/185/185 186/186/186 179/179/179
f 187/187/187 186/186/186 185/185/185
f 188/188/188 178/178/178 180/180/180
f 184/184/184 178/178/178 188/188/188
f 189/189/189 180/180/180 182/182/182
f 188/188/188 180/180/180 189/189/189
f 189/189/189 182/182/182 190/190/190
f 190/190/190 182/182/182 191/191/191
f 190/190/190 191/191/191 192/192/192
f 192/192/192 191/191/191 193/193/193
f 194/194/194 187/187/187 185/185/185
f 195/195/195 187/187/187 194/194/194
f 195/195/195 196/196/196 187/187/187
f 197/197/197 196/196/196 195/195/195
f 198/198/198 185/185/185 184/184/184
f 194/194/194 185/185/185 198/198/198
f 199/199/199 184/184/184 188/188/188
f 198/198/198 184/184/184 199/199/199
f 200/200/200 188/188/188 189/189/189
f 199/199/199 188/188/188 200/200/200
f 201/201/201 189/189/189 190/190/190
f 200/200/200 189/189/189 201/201/201
f 202/202/202 190/190/190 192/192/192
f 201/201/201 190/190/190 202/202/202
f 203/203/203 197/197/197 195/195/195
f 204/204/204 197/197/197 203/203/203
f 204/204/204 205/205/205 197/197/197
f 206/206/206 205/205/205 204/204/204
f 207/207/207 195/195/195 194/194/194
f 203/203/203 195/195/195 207/207/207
f 208/208/208 194/194/194 198/198/198
f 207/207/207 194/194/194 208/208/208
f 209/209/209 198/198/198 199/199/199
f 208/208/208 198/198/198 209/209/209
f 210/210/210 199/199/199 200/200/200
f 209/209/209 199/199/199 210/210/210
f 211/211/211 200/200/200 201/201/201
f 210/210/210 200/200/200 211/211/211
f 211/211/211 201/201/201 212/212/212
f 212/212/212 201/201/201 202/202/202
f 213/213/213 206/206/206 204/204/204
f 214/214/214 206/206/206 213/213/213
f 215/215/215 204/204/204 203/203/203
f 213/213/213 204/204/204 215/215/215
f 216/216/216 203/203/203 207/207/207
f 215/215/215 203/203/203 216/216/216
f 217/217/217 207/207/207 208/208/208
f 216/216/216 207/207/207 217/217/217
f 218/218/218 208/208/208 209/209/209
f 217/217/217 208/208/208 218/218/218
f 219/219/219 209/209/209 210/210/210
f 218/218/218 209/209/209 219/219/219
f 220/220/220 210/210/210 211/211/211
f 219/219/219 210/210/210 220/220/220
f 221/221/221 211/211/211 212/212/212
f 220/220/220 211/211/211 221/221/221
f 221/221/221 212/212/212 222/222/222
f 222/222/222 212/212/212 223/223/223
f 212/212/212 202/202/202 223/223/223
f 223/223/223 202/202/202 224/224/224
f 225/225/225 214/214/214 213/213/213
f 226/226/226 214/214/214 225/225/225
f 226/226/226 227/227/227 214/214/214
f 228/228/228 227/227/227 226/226/226
f 229/229/229 215/215/215 216/216/216
f 230/230/230 215/215/215 229/229/229
f 225/225/225 213/213/213 230/230/230
f 230/230/230 213/213/213 215/215/215
f 231/231/231 218/218/218 219/219/219
f 232/232/232 219/219/219 220/220/220
f 231/231/231 219/219/219 232/232/232
f 233/233/233 221/221/221 222/222/222
f 234/234/234 228/228/228 226/226/226
f 235/235/235 228/228/228 234/234/234
f 236/236/236 226/226/226 225/225/225
f 234/234/234 226/226/226 236/236/236
f 237/237/237 225/225/225 230/230/230
f 236/236/236 225/225/225 237/237/237
f 238/238/238 230/230/230 229/229/229
f 237/237/237 230/230/230 238/238/238
f 238/238/238 229/229/229 239/239/239
f 239/239/239 229/229/229 240/240/240
f 229/229/229 216/216/216 240/240/240
f 240/240/240 216/216/216 217/217/217
f 240/240/240 217/217/217 241/241/241
f 241/241/241 217/217/217 218/218/218
f 241/241/241 218/218/218 231/231/231
f 242/242/242 240/240/240 241/241/241
f 239/239/239 240/240/240 242/242/242
f 243/243/243 241/241/241 231/231/231
f 242/242/242 241/241/241 243/243/243
f 244/244/244 242/242/242 243/243/243
f 245/245/245 242/242/242 244/244/244
f 245/245/245 239/239/239 242/242/242
f 246/246/246 239/239/239 245/245/245
f 246/246/246 238/238/238 239/239/239
f 247/247/247 238/238/238 246/246/246
f 247/247/247 237/237/237 238/238/238
f 248/248/248 237/237/237 247/247/247
f 248/248/248 236/236/236 237/237/237
f 249/249/249 236/236/236 248/248/248
f 250/250/250 249/249/249 248/248/248
f 251/251/251 249/249/249 250/250/250
f 251/251/251 252/252/252 249/249/249
f 252/252/252 234/234/234 249/249/249
f 249/249/249 234/234/234 236/236/236
f 252/252/252 235/235/235 234/234/234
f 253/253/253 235/235/235 252/252/252
f 254/254/254 253/253/253 252/252/252
f 254/254/254 252/252/252 251/251/251
f 255/255/255 253/253/253 254/254/254
f 255/255/255 256/256/256 253/253/253
f 257/257/257 256/256/256 255/255/255
f 258/258/258 248/248/248 247/247/247
f 250/250/250 248/248/248 258/258/258
f 258/258/258 247/247/247 259/259/259
f 260/260/260 255/255/255 254/254/254
f 261/261/261 255/255/255 260/260/260
f 261/261/261 257/257/257 255/255/255
f 262/262/262 257/257/257 261/261/261
f 262/262/262 263/263/263 257/257/257
f 264/264/264 263/263/263 262/262/262
f 260/260/260 254/254/254 265/265/265
f 265/265/265 254/254/254 251/251/251
f 265/265/265 251/251/251 266/266/266
f 266/266/266 251/251/251 250/250/250
f 267/267/267 250/250/250 258/258/258
f 266/266/266 250/250/250 267/267/267
f 268/268/268 258/258/258 259/259/259
f 267/267/267 258/258/258 268/268/268
f 268/268/268 259/259/259 269/269/269
f 269/269/269 259/259/259 270/270/270
f 259/259/259 246/246/246 270/270/270
f 259/259/259 247/247/247 246/246/246
f 270/270/270 246/246/246 245/245/245
f 270/270/270 245/245/245 271/271/271
f 271/271/271 245/245/245 244/244/244
f 271/271/271 244/244/244 272/272/272
f 272/272/272 244/244/244 273/273/273
f 244/244/244 243/243/243 273/273/273
f 273/273/273 243/243/243 274/274/274
f 243/243/243 231/231/231 274/274/274
f 274/274/274 231/231/231 232/232/232
f 274/274/274 232/232/232 275/275/275
f 275/275/275 232/232/232 276/276/276
f 232/232/232 220/220/220 276/276/276
f 276/276/276 220/220/220 221/221/221
f 276/276/276 221/221/221 233/233/233
f 277/277/277 276/276/276 233/233/233
f 275/275/275 276/276/276 277/277/277
f 277/277/277 233/233/233 278/278/278
f 278/278/278 233/233/233 279/279/279
f 273/273/273 274/274/274 280/280/280
f 280/280/280 274/274/274 275/275/275
f 280/280/280 275/275/275 281/281/281
f 281/281/281 275/275/275 277/277/277
f 281/281/281 277/277/277 282/282/282
f 282/282/282 277/277/277 278/278/278
f 283/283/283 273/273/273 280/280/280
f 284/284/284 280/280/280 281/281/281
f 283/283/283 280/280/280 284/284/284
f 285/285/285 281/281/281 282/282/282
f 284/284/284 281/281/281 285/285/285
f 285/285/285 282/282/282 286/286/286
f 286/286/286 282/282/282 287/287/287
f 288/288/288 283/283/283 284/284/284
f 289/289/289 283/283/283 288/288/288
f 289/289/289 272/272/272 283/283/283
f 272/272/272 273/273/273 283/283/283
f 290/290/290 272/272/272 289/289/289
f 291/291/291 284/284/284 285/285/285
f 288/288/288 284/284/284 291/291/291
f 292/292/292 285/285/285 286/286/286
f 291/291/291 285/285/285 292/292/292
f 292/292/292 286/286/286 293/293/293
f 293/293/293 286/286/286 294/294/294
f 295/295/295 290/290/290 289/289/289
f 296/296/296 290/290/290 295/295/295
f 296/296/296 297/297/297 290/290/290
f 297/297/297 271/271/271 290/290/290
f 290/290/290 271/271/271 272/272/272
f 297/297/297 270/270/270 271/271/271
f 269/269/269 270/270/270 297/297/297
f 298/298/298 269/269/269 297/297/297
f 298/298/298 297/297/297 296/296/296
f 299/299/299 269/269/269 298/298/298
f 299/299/299 268/268/268 269/269/269
f 300/300/300 268/268/268 299/299/299
f 300/300/300 267/267/267 268/268/268
f 301/301/301 267/267/267 300/300/300
f 301/301/301 266/266/266 267/267/267
f 302/302/302 266/266/266 301/301/301
f 302/302/302 265/265/265 266/266/266
f 303/303/303 265/265/265 302/302/302
f 303/303/303 260/260/260 265/265/265
f 304/304/304 260/260/260 303/303/303
f 304/304/304 261/261/261 260/260/260
f 305/305/305 261/261/261 304/304/304
f 305/305/305 262/262/262 261/261/261
f 306/306/306 262/262/262 305/305/305
f 306/306/306 264/264/264 262/262/262
f 307/307/307 264/264/264 306/306/306
f 307/307/307 308/308/308 264/264/264
f 309/309/309 308/308/308 307/307/307
f 309/309/309 310/310/310 308/308/308
f 311/311/311 310/310/310 309/309/309
f 311/311/311 312/312/312 310/310/310
f 313/313/313 312/312/312 311/311/311
f 313/313/313 314/314/314 312/312/312
f 315/315/315 314/314/314 313/313/313
f 315/315/315 293/293/293 314/314/314
f 316/316/316 293/293/293 315/315/315
f 316/316/316 292/292/292 293/293/293
f 317/317/317 292/292/292 316/316/316
f 317/317/317 291/291/291 292/292/292
f 318/318/318 291/291/291 317/317/317
f 318/318/318 288/288/288 291/291/291
f 319/319/319 288/288/288 318/318/318
f 319/319/319 289/289/289 288/288/288
f 295/295/295 289/289/289 319/319/319
f 320/320/320 315/315/315 313/313/313
f 321/321/321 315/315/315 320/320/320
f 321/321/321 316/316/316 315/315/315
f 320/320/320 313/313/313 322/322/322
f 322/322/322 313/313/313 311/311/311
f 322/322/322 311/311/311 323/323/323
f 323/323/323 311/311/311 309/309/309
f 323/323/323 309/309/309 324/324/324
f 324/324/324 309/309/309 307/307/307
f 324/324/324 307/307/307 325/325/325
f 325/325/325 307/307/307 306/306/306
f 325/325/325 306/306/306 326/326/326
f 326/326/326 306/306/306 305/305/305
f 326/326/326 305/305/305 327/327/327
f 327/327/327 305/305/305 304/304/304
f 327/327/327 304/304/304 328/328/328
f 328/328/328 304/304/304 303/303/303
f 328/328/328 303/303/303 329/329/329
f 329/329/329 303/303/303 302/302/302
f 329/329/329 302/302/302 330/330/330
f 330/330/330 302/302/302 301/301/301
f 330/330/330 301/301/301 331/331/331
f 331/331/331 301/301/301 300/300/300
f 331/331/331 300/300/300 332/332/332
f 332/332/332 300/300/300 299/299/299
f 332/332/332 299/299/299 333/333/333
f 333/333/333 299/299/299 298/298/298
f 333/333/333 298/298/298 334/334/334
f 334/334/334 298/298/298 296/296/296
f 334/334/334 296/296/296 335/335/335
f 335/335/335 296/296/296 295/295/295
f 335/335/335 295/295/295 336/336/336
f 336/336/336 295/295/295 319/319/319
f 336/336/336 319/319/319 337/337/337
f 337/337/337 319/319/319 318/318/318
f 337/337/337 318/318/318 338/338/338
f 338/338/338 318/318/318 317/317/317
f 338/338/338 317/317/317 339/339/339
f 339/339/339 317/317/317 316/316/316
f 339/339/339 316/316/316 321/321/321
f 340/340/340 333/333/333 334/334/334
f 340/340/340 334/334/334 335/335/335
f 340/340/340 335/335/335 336/336/336
f 340/340/340 336/336/336 337/337/337
f 340/340/340 337/337/337 338/338/338
f 340/340/340 338/338/338 339/339/339
f 340/340/340 339/339/339 321/321/321
f 340/340/340 321/321/321 320/320/320
f 340/340/340 320/320/320 322/322/322
f 340/340/340 322/322/322 323/323/323
f 340/340/340 323/323/323 324/324/324
f 340/340/340 324/324/324 325/325/325
f 340/340/340 325/325/325 326/326/326
f 340/340/340 326/326/326 327/327/327
f 340/340/340 327/327/327 328/328/328
f 340/340/340 328/328/328 329/329/329
f 340/340/340 329/329/329 330/330/330
f 340/340/340 330/330/330 331/331/331
f 340/340/340 331/331/331 332/332/332
f 340/340/340 332/332/332 333/333/333
f 341/341/341 61/61/61 63/63/63
f 68/68/68 61/61/61 341/341/341
f 342/342/342 1/1/1 2/2/2
f 342/342/342 6/6/6 1/1/1
f 342/342/342 8/8/8 6/6/6
f 342/342/342 10/10/10 8/8/8
f 342/342/342 12/12/12 10/10/10
f 342/342/342 14/14/14 12/12/12
f 342/342/342 16/16/16 14/14/14
f 342/342/342 18/18/18 16/16/16
f 342/342/342 20/20/20 18/18/18
f 342/342/342 22/22/22 20/20/20
f 342/342/342 24/24/24 22/22/22
f 342/342/342 26/26/26 24/24/24
f 342/342/342 28/28/28 26/26/26
f 342/342/342 30/30/30 28/28/28
f 342/342/342 32/32/32 30/30/30
f 342/342/342 34/34/34 32/32/32
f 342/342/342 36/36/36 34/34/34
f 342/342/342 38/38/38 36/36/36
f 342/342/342 40/40/40 38/38/38
f 342/342/342 2/2/2 40/40/40
f 345/345/345 344/344/344 343/343/343
f 346/346/346 344/344/344 345/345/345
f 345/345/345 343/343/343 347/347/347
f 347/347/347 343/343/343 348/348/348
f 347/347/347 348/348/348 349/349/349
f 349/349/349 348/348/348 350/350/350
f 349/349/349 350/350/350 351/351/351
f 351/351/351 350/350/350 352/352/352
f 351/351/351 352/352/352 353/353/353
f 353/353/353 352/352/352 354/354/354
f 353/353/353 354/354/354 355/355/355
f 355/355/355 354/354/354 356/356/356
f 355/355/355 356/356/356 357/357/357
f 357/357/357 356/356/356 358/358/358
f 357/357/357 358/358/358 359/359/359
f 345/345/345 360/360/360 346/346/346
f 346/346/346 360/360/360 361/361/361
f 360/360/360 362/362/362 361/361/361
f 361/361/361 362/362/362 363/363/363
f 363/363/363 362/362/362 364/364/364
f 360/360/360 365/365/365 362/362/362
f 362/362/362 365/365/365 366/366/366
f 367/367/367 365/365/365 360/360/360
f 367/367/367 368/368/368 365/365/365
f 365/365/365 368/368/368 369/369/369
f 368/368/368 370/370/370 369/369/369
f 370/370/370 371/371/371 369/369/369
f 372/372/372 368/368/368 367/367/367
f 372/372/372 370/370/370 368/368/368
f 373/373/373 370/370/370 372/372/372
f 373/373/373 371/371/371 370/370/370
f 361/361/361 363/363/363 374/374/374
f 374/374/374 363/363/363 375/375/375
f 375/375/375 363/363/363 376/376/376
f 377/377/377 375/375/375 376/376/376
f 378/378/378 375/375/375 377/377/377
f 374/374/374 375/375/375 378/378/378
f 378/378/378 377/377/377 379/379/379
f 379/379/379 377/377/377 380/380/380
f 380/380/380 377/377/377 381/381/381
f 379/379/379 380/380/380 382/382/382
f 382/382/382 380/380/380 383/383/383
f 383/383/383 380/380/380 384/384/384
f 349/349/349 373/373/373 372/372/372
f 349/349/349 372/372/372 347/347/347
f 347/347/347 372/372/372 367/367/367
f 347/347/347 367/367/367 345/345/345
f 345/345/345 367/367/367 360/360/360
f 385/385/385 378/378/378 379/379/379
f 385/385/385 379/379/379 386/386/386
f 387/387/387 378/378/378 385/385/385
f 387/387/387 374/374/374 378/378/378
f 385/385/385 388/388/388 387/387/387
f 387/387/387 388/388/388 389/389/389
f 387/387/387 389/389/389 390/390/390
f 390/390/390 374/374/374 387/387/387
f 390/390/390 361/361/361 374/374/374
f 390/390/390 389/389/389 391/391/391
f 390/390/390 391/391/391 346/346/346
f 346/346/346 361/361/361 390/390/390
f 346/346/346 391/391/391 344/344/344
f 351/351/351 392/392/392 349/349/349
f 351/351/351 394/394/394 393/393/393
f 353/353/353 394/394/394 351/351/351
f 353/353/353 395/395/395 394/394/394
f 395/395/395 396/396/396 394/394/394
f 394/394/394 396/396/396 371/371/371
f 371/371/371 396/396/396 397/397/397
f 394/394/394 371/371/371 398/398/398
f 396/396/396 400/400/400 399/399/399
f 400/400/400 401/401/401 399/399/399
f 401/401/401 403/403/403 402/402/402
f 406/406/406 405/405/405 404/404/404
f 409/409/409 408/408/408 407/407/407
f 409/409/409 407/407/407 410/410/410
f 410/410/410 407/407/407 411/411/411
f 410/410/410 411/411/411 412/412/412
f 412/412/412 411/411/411 413/413/413
f 412/412/412 413/413/413 414/414/414
f 414/414/414 413/413/413 415/415/415
f 414/414/414 415/415/415 416/416/416
f 416/416/416 415/415/415 417/417/417
f 416/416/416 417/417/417 418/418/418
f 418/418/418 417/417/417 419/419/419
f 410/410/410 420/420/420 409/409/409
f 409/409/409 420/420/420 421/421/421
f 420/420/420 422/422/422 421/421/421
f 421/421/421 422/422/422 423/423/423
f 421/421/421 423/423/423 424/424/424
f 424/424/424 423/423/423 425/425/425
f 424/424/424 425/425/425 426/426/426
f 426/426/426 425/425/425 427/427/427
f 420/420/420 428/428/428 422/422/422
f 429/429/429 428/428/428 420/420/420
f 430/430/430 424/424/424 426/426/426
f 430/430/430 426/426/426 431/431/431
f 432/432/432 424/424/424 430/430/430
f 432/432/432 421/421/421 424/424/424
f 409/409/409 421/421/421 432/432/432
f 410/410/410 429/429/429 420/420/420
f 412/412/412 429/429/429 410/410/410
f 412/412/412 433/433/433 429/429/429
f 433/433/433 434/434/434 429/429/429
f 429/429/429 434/434/434 428/428/428
f 414/414/414 433/433/433 412/412/412
f 414/414/414 435/435/435 433/433/433
f 416/416/416 435/435/435 414/414/414
f 416/416/416 436/436/436 435/435/435
f 435/435/435 437/437/437 433/433/433
f 433/433/433 437/437/437 434/434/434
f 439/439/439 438/438/438 384/384/384
f 438/438/438 383/383/383 384/384/384
f 442/442/442 441/441/441 440/440/440
f 443/443/443 441/441/441 442/442/442
f 442/442/442 440/440/440 444/444/444
f 444/444/444 440/440/440 445/445/445
f 444/444/444 445/445/445 446/446/446
f 446/446/446 445/445/445 447/447/447
f 446/446/446 447/447/447 448/448/448
f 448/448/448 447/447/447 449/449/449
f 443/443/443 450/450/450 441/441/441
f 451/451/451 450/450/450 443/443/443
f 451/451/451 452/452/452 450/450/450
f 453/453/453 452/452/452 451/451/451
f 453/453/453 454/454/454 452/452/452
f 455/455/455 454/454/454 453/453/453
f 455/455/455 456/456/456 454/454/454
f 457/457/457 456/456/456 455/455/455
f 457/457/457 458/458/458 456/456/456
f 459/459/459 458/458/458 457/457/457
f 446/446/446 460/460/460 444/444/444
f 446/446/446 461/461/461 460/460/460
f 448/448/448 461/461/461 446/446/446
f 461/461/461 462/462/462 460/460/460
f 460/460/460 462/462/462 463/463/463
f 460/460/460 463/463/463 464/464/464
f 444/444/444 460/460/460 464/464/464
f 464/464/464 463/463/463 465/465/465
f 465/465/465 463/463/463 466/466/466
f 463/463/463 462/462/462 467/467/467
f 464/464/464 465/465/465 468/468/468
f 468/468/468 465/465/465 469/469/469
f 469/469/469 465/465/465 470/470/470
f 468/468/468 469/469/469 471/471/471
f 471/471/471 469/469/469 472/472/472
f 472/472/472 469/469/469 473/473/473
f 461/461/461 474/474/474 462/462/462
f 462/462/462 474/474/474 475/475/475
f 476/476/476 474/474/474 461/461/461
f 471/471/471 472/472/472 477/477/477
f 477/477/477 472/472/472 478/478/478
f 478/478/478 472/472/472 479/479/479
f 477/477/477 478/478/478 480/480/480
f 480/480/480 478/478/478 481/481/481
f 481/481/481 478/478/478 482/482/482
f 480/480/480 481/481/481 483/483/483
f 483/483/483 481/481/481 484/484/484
f 484/484/484 481/481/481 485/485/485
f 483/483/483 484/484/484 486/486/486
f 486/486/486 484/484/484 487/487/487
f 487/487/487 484/484/484 488/488/488
f 486/486/486 487/487/487 489/489/489
f 489/489/489 487/487/487 490/490/490
f 490/490/490 487/487/487 491/491/491
f 455/455/455 480/480/480 483/483/483
f 455/455/455 483/483/483 457/457/457
f 457/457/457 483/483/483 486/486/486
f 453/453/453 480/480/480 455/455/455
f 453/453/453 477/477/477 480/480/480
f 451/451/451 477/477/477 453/453/453
f 451/451/451 471/471/471 477/477/477
f 443/443/443 471/471/471 451/451/451
f 443/443/443 468/468/468 471/471/471
f 442/442/442 468/468/468 443/443/443
f 442/442/442 464/464/464 468/468/468
f 444/444/444 464/464/464 442/442/442
f 474/474/474 493/493/493 492/492/492
f 496/496/496 495/495/495 494/494/494
f 499/499/499 498/498/498 497/497/497
f 500/500/500 498/498/498 499/499/499
f 499/499/499 497/497/497 501/501/501
f 501/501/501 497/497/497 502/502/502
f 501/501/501 502/502/502 503/503/503
f 503/503/503 502/502/502 504/504/504
f 503/503/503 504/504/504 505/505/505
f 505/505/505 504/504/504 506/506/506
f 505/505/505 506/506/506 507/507/507
f 507/507/507 506/506/506 508/508/508
f 507/507/507 508/508/508 509/509/509
f 509/509/509 508/508/508 510/510/510
f 509/509/509 510/510/510 511/511/511
f 511/511/511 510/510/510 512/512/512
f 499/499/499 513/513/513 500/500/500
f 500/500/500 513/513/513 514/514/514
f 503/503/503 515/515/515 501/501/501
f 501/501/501 515/515/515 516/516/516
f 516/516/516 517/517/517 513/513/513
f 513/513/513 517/517/517 518/518/518
f 516/516/516 519/519/519 517/517/517
f 515/515/515 519/519/519 516/516/516
f 517/517/517 519/519/519 520/520/520
f 515/515/515 521/521/521 519/519/519
f 519/519/519 521/521/521 522/522/522
f 523/523/523 521/521/521 515/515/515
f 523/523/523 524/524/524 521/521/521
f 521/521/521 524/524/524 525/525/525
f 526/526/526 524/524/524 523/523/523
f 526/526/526 527/527/527 524/524/524
f 524/524/524 527/527/527 528/528/528
f 529/529/529 527/527/527 526/526/526
f 529/529/529 530/530/530 527/527/527
f 531/531/531 530/530/530 529/529/529
f 505/505/505 526/526/526 523/523/523
f 505/505/505 523/523/523 503/503/503
f 503/503/503 523/523/523 515/515/515
f 507/507/507 526/526/526 505/505/505
f 507/507/507 529/529/529 526/526/526
f 509/509/509 529/529/529 507/507/507
f 509/509/509 531/531/531 529/529/529
f 511/511/511 531/531/531 509/509/509
f 511/511/511 532/532/532 531/531/531
f 533/533/533 532/532/532 511/511/511
f 499/499/499 516/516/516 513/513/513
f 501/501/501 516/516/516 499/499/499
f 536/536/536 535/535/535 534/534/534
f 537/537/537 535/535/535 536/536/536
f 537/537/537 538/538/538 535/535/535
f 536/536/536 539/539/539 537/537/537
f 537/537/537 539/539/539 540/540/540
f 539/539/539 541/541/541 540/540/540
f 540/540/540 541/541/541 542/542/542
f 540/540/540 542/542/542 543/543/543
f 543/543/543 542/542/542 544/544/544
f 543/543/543 544/544/544 545/545/545
f 545/545/545 544/544/544 546/546/546
f 546/546/546 544/544/544 547/547/547
f 548/548/548 546/546/546 547/547/547
f 549/549/549 548/548/548 547/547/547
f 550/550/550 548/548/548 549/549/549
f 550/550/550 549/549/549 551/551/551
f 551/551/551 549/549/549 552/552/552
f 551/551/551 552/552/552 553/553/553
f 554/554/554 551/551/551 553/553/553
f 555/555/555 551/551/551 554/554/554
f 555/555/555 550/550/550 551/551/551
f 554/554/554 556/556/556 555/555/555
f 555/555/555 556/556/556 557/557/557
f 555/555/555 557/557/557 558/558/558
f 558/558/558 550/550/550 555/555/555
f 558/558/558 557/557/557 559/559/559
f 558/558/558 559/559/559 560/560/560
f 554/554/554 561/561/561 556/556/556
f 562/562/562 561/561/561 554/554/554
f 553/553/553 552/552/552 563/563/563
f 564/564/564 548/548/548 550/550/550
f 558/558/558 564/564/564 550/550/550
f 565/565/565 564/564/564 558/558/558
f 564/564/564 546/546/546 548/548/548
f 545/545/545 546/546/546 564/564/564
f 566/566/566 545/545/545 564/564/564
f 567/567/567 545/545/545 566/566/566
f 568/568/568 543/543/543 545/545/545
f 569/569/569 543/543/543 568/568/568
f 570/570/570 540/540/540 543/543/543
f 537/537/537 540/540/540 570/570/570
f 570/570/570 571/571/571 537/537/537
f 574/574/574 573/573/573 572/572/572
f 577/577/577 576/576/576 575/575/575
f 580/580/580 579/579/579 578/578/578
f 583/583/583 582/582/582 581/581/581
f 583/583/583 584/584/584 582/582/582
f 586/586/586 534/534/534 585/585/585
f 536/536/536 534/534/534 586/586/586
f 589/589/589 588/588/588 587/587/587
f 590/590/590 588/588/588 589/589/589
f 589/589/589 587/587/587 591/591/591
f 591/591/591 587/587/587 592/592/592
f 591/591/591 592/592/592 593/593/593
f 593/593/593 592/592/592 594/594/594
f 593/593/593 594/594/594 595/595/595
f 595/595/595 594/594/594 596/596/596
f 595/595/595 596/596/596 597/597/597
f 597/597/597 596/596/596 598/598/598
f 597/597/597 598/598/598 599/599/599
f 599/599/599 598/598/598 600/600/600
f 599/599/599 600/600/600 601/601/601
f 601/601/601 600/600/600 602/602/602
f 591/591/591 603/603/603 589/589/589
f 589/589/589 603/603/603 604/604/604
f 589/589/589 604/604/604 590/590/590
f 603/603/603 605/605/605 604/604/604
f 604/604/604 605/605/605 606/606/606
f 606/606/606 605/605/605 607/607/607
f 608/608/608 606/606/606 607/607/607
f 603/603/603 609/609/609 605/605/605
f 605/605/605 609/609/609 610/610/610
f 611/611/611 606/606/606 608/608/608
f 604/604/604 606/606/606 611/611/611
f 611/611/611 608/608/608 612/612/612
f 612/612/612 608/608/608 613/613/613
f 613/613/613 608/608/608 614/614/614
f 615/615/615 609/609/609 603/603/603
f 615/615/615 616/616/616 609/609/609
f 609/609/609 616/616/616 617/617/617
f 616/616/616 618/618/618 617/617/617
f 618/618/618 619/619/619 617/617/617
f 619/619/619 620/620/620 617/617/617
f 621/621/621 616/616/616 615/615/615
f 621/621/621 618/618/618 616/616/616
f 622/622/622 618/618/618 621/621/621
f 622/622/622 619/619/619 618/618/618
f 623/623/623 619/619/619 622/622/622
f 623/623/623 620/620/620 619/619/619
f 624/624/624 620/620/620 623/623/623
f 624/624/624 625/625/625 620/620/620
f 620/620/620 625/625/625 626/626/626
f 625/625/625 627/627/627 626/626/626
f 628/628/628 625/625/625 624/624/624
f 593/593/593 621/621/621 615/615/615
f 593/593/593 615/615/615 591/591/591
f 591/591/591 615/615/615 603/603/603
f 595/595/595 621/621/621 593/593/593
f 595/595/595 622/622/622 621/621/621
f 597/597/597 622/622/622 595/595/595
f 597/597/597 623/623/623 622/622/622
f 599/599/599 623/623/623 597/597/597
f 599/599/599 624/624/624 623/623/623
f 601/601/601 624/624/624 599/599/599
f 601/601/601 628/628/628 624/624/624
f 629/629/629 628/628/628 601/601/601
f 632/632/632 631/631/631 630/630/630
f 633/633/633 632/632/632 630/630/630
f 636/636/636 635/635/635 634/634/634
f 637/637/637 611/611/611 612/612/612
f 590/590/590 611/611/611 637/637/637
f 590/590/590 604/604/604 611/611/611
