g BRM_Anvil_Ore
v 423.6514 61.22357 -129.9162
v 415.8888 61.22357 -136.8429
v 432.4881 71.84221 -137.8883
v 427.827 71.95708 -146.242
v 415.8888 61.22357 -154.6372
v 429.6817 71.84221 -164.349
v 450.4026 71.84221 -151.4127
v 455.5378 71.84221 -163.2358
v 411.1117 61.22357 -172.3121
v 418.3276 61.22357 -174.5979
v 430.3392 61.22357 -178.4028
v 436.7882 61.22357 -177.0891
v 455.5378 71.84221 -163.2358
v 450.289 61.22357 -190.0078
v 427.1147 61.22357 -128.722
v 444.909 61.22357 -127.886
v 461.1509 71.84221 -182.7021
v 456.7321 61.22357 -193.6892
v 427.827 71.95708 -146.242
v 441.804 71.84221 -134.4544
v 432.4881 71.84221 -137.8883
v 445.1479 71.84221 -144.8443
v 450.4026 71.84221 -151.4127
v 450.4026 71.84221 -151.4127
v 457.2098 61.22357 -147.83
v 445.1479 71.84221 -144.8443
v 453.7465 61.22357 -140.545
v 450.6414 61.22357 -139.4702
v 441.804 71.84221 -134.4544
v 450.0443 61.22357 -137.6788
v 441.804 71.84221 -134.4544
v 444.909 61.22357 -127.886
v 450.4026 71.84221 -151.4127
v 455.5378 71.84221 -163.2358
v 456.4933 61.22357 -150.2185
v 450.4026 71.84221 -151.4127
v 456.4933 61.22357 -150.2185
v 457.2098 61.22357 -147.83
v 456.4933 61.22357 -150.2185
v 455.5378 71.84221 -163.2358
v 464.9725 61.22357 -151.6516
v 472.4962 61.22357 -160.2502
v 455.5378 71.84221 -163.2358
v 472.6156 61.22357 -171.4761
v 461.1509 71.84221 -182.7021
v 474.5265 61.22357 -180.6719
v 461.1509 71.84221 -182.7021
v 456.7321 61.22357 -193.6892
v 455.5378 71.84221 -163.2358
v 450.289 61.22357 -190.0078
v 461.1509 71.84221 -182.7021
v 441.804 71.84221 -134.4544
v 444.909 61.22357 -127.886
v 432.4881 71.84221 -137.8883
v 475.185 69.39125 -121.74
v 470.8758 61.13437 -120.2513
v 473.7525 69.21221 -123.8681
v 468.9592 61.13437 -123.5037
v 478.5126 69.80722 -120.1327
v 475.6382 61.13437 -117.4635
v 473.7083 69.20666 -127.4326
v 468.9011 61.13437 -128.7889
v 474.0611 69.25078 -131.7874
v 469.3657 61.13437 -135.2938
v 475.3971 69.41776 -133.9203
v 471.1661 61.13437 -138.7205
v 477.7693 69.7143 -134.4741
v 474.5347 61.13437 -140.0563
v 482.3823 70.29091 -134.3917
v 481.7946 61.13437 -140.9856
v 485.8373 70.7228 -133.3964
v 487.951 61.13437 -140.1144
v 487.5756 70.94008 -132.6482
v 491.3196 61.13437 -139.1851
v 488.6337 71.07234 -130.983
v 493.4685 61.13437 -136.3392
v 481.5042 70.89967 -125.13
v 488.6337 71.07234 -130.983
v 488.2662 71.02641 -126.1883
v 487.9517 70.98711 -123.1976
v 487.3123 70.90718 -121.5201
v 486.3269 70.784 -121.1389
v 482.4854 70.30382 -119.9653
v 478.5126 69.80722 -120.1327
v 488.6337 71.07234 -130.983
v 488.2662 71.02641 -126.1883
v 492.7135 61.13437 -127.395
v 487.9517 70.98711 -123.1976
v 492.0746 61.13437 -121.8775
v 487.3123 70.90718 -121.5201
v 490.7969 61.13437 -118.8574
v 486.3269 70.784 -121.1389
v 488.8803 61.13437 -118.2766
v 482.4854 70.30382 -119.9653
v 481.9688 61.13437 -116.7085
v 475.6382 61.13437 -117.4635
v 478.5126 69.80722 -120.1327
v 431.32 66.64842 -186.0334
v 426.5476 61.98289 -183.5852
v 430.2434 66.47742 -187.1866
v 426.2301 61.98289 -186.171
v 434.2704 67.04572 -185.2437
v 430.5809 61.98289 -181.5442
v 431.0417 66.47212 -188.7944
v 426.6281 61.98289 -189.9288
v 432.0277 66.51427 -191.0332
v 428.4331 61.98289 -192.8975
v 433.4718 66.67374 -192.4967
v 430.8074 61.98289 -194.0625
v 435.346 66.95698 -193.2591
v 433.799 61.98289 -195.9664
v 438.3498 67.50771 -194.6549
v 438.0196 61.98289 -198.8819
v 440.8911 67.9202 -194.7012
v 441.2167 61.98289 -198.5393
v 442.4937 68.12772 -194.1899
v 437.6377 67.52003 -185.5134
v 438.3325 68.81484 -190.0148
v 440.8957 67.97865 -186.2277
v 442.6914 61.98289 -182.7445
v 444.6402 61.98289 -182.9807
v 441.7894 68.09631 -186.4041
v 446.1033 61.98289 -185.2626
v 442.45 68.17264 -187.6853
v 447.2249 61.98289 -189.3314
v 442.9224 68.21017 -189.8268
v 446.0562 61.98289 -192.4872
v 443.4408 68.25404 -193.0004
v 436.1999 61.98289 -181.357
v 443.4408 68.25404 -193.0004
v 443.4408 68.25404 -193.0004
v 443.5516 61.98289 -195.794
v 442.4937 68.12772 -194.1899
v 441.2167 61.98289 -198.5393
v 442.4937 68.12772 -194.1899
v 443.4408 68.25404 -193.0004
v 179.7999 68.76685 -350.2466
v 174.6868 61.8958 -356.4185
v 179.2431 61.8958 -357.0002
v 187.4831 61.8958 -356.2247
v 179.7999 68.76685 -350.2466
v 173.0065 61.8958 -350.699
v 174.6868 61.8958 -356.4185
v 179.7999 68.76685 -350.2466
v 176.8195 61.8958 -344.7532
v 181.9574 61.8958 -341.2633
v 176.8195 61.8958 -344.7532
v 179.7999 68.76685 -350.2466
v 179.7999 68.76685 -350.2466
v 187.4185 61.8958 -344.6563
v 181.9574 61.8958 -341.2633
v 188.9696 61.8958 -347.0152
v 179.7999 68.76685 -350.2466
v 188.5818 61.8958 -350.8929
v 187.4831 61.8958 -356.2247
v 198.1932 71.44427 -335.9903
v 185.0379 61.77402 -335.8412
v 189.5845 61.77402 -345.0834
v 198.1932 71.44427 -335.9903
v 185.187 61.77402 -328.3878
v 198.1932 71.44427 -335.9903
v 187.9447 61.77402 -325.0337
v 193.5615 61.77402 -314.8378
v 198.1932 71.44427 -335.9903
v 200.0565 71.44427 -344.1891
v 200.0565 71.44427 -344.1891
v 192.7895 61.77402 -349.7046
v 198.5675 61.77402 -312.9605
v 193.5615 61.77402 -314.8378
v 198.1932 71.44427 -335.9903
v 205.6594 61.77402 -314.6292
v 198.1932 71.44427 -335.9903
v 215.4479 61.77402 -322.276
v 205.6594 61.77402 -314.6292
v 212.6156 61.77402 -318.7729
v 198.1932 71.44427 -335.9903
v 215.6715 61.77402 -336.6611
v 215.4479 61.77402 -322.276
v 215.1497 61.77402 -342.3257
v 198.1932 71.44427 -335.9903
v 210.4569 61.77402 -346.5428
v 200.0565 71.44427 -344.1891
v 210.4569 61.77402 -346.5428
v 198.1932 71.44427 -335.9903
v 200.0565 71.44427 -344.1891
v 192.7895 61.77402 -349.7046
v 203.2988 61.77402 -348.6611
v 210.4569 61.77402 -346.5428
vt 0.383671 0.965932
vt 0.369218 0.953036
vt 0.396811 0.954902
vt 0.388057 0.939318
vt 0.369218 0.919905
vt 0.391562 0.90541
vt 0.430318 0.929606
vt 0.439923 0.907492
vt 0.360324 0.886996
vt 0.373759 0.88274
vt 0.396123 0.875656
vt 0.40813 0.878102
vt 0.439923 0.907492
vt 0.433267 0.854049
vt 0.390119 0.968156
vt 0.42325 0.969712
vt 0.450422 0.871083
vt 0.445264 0.847194
vt 0.388057 0.939318
vt 0.414236 0.961324
vt 0.396811 0.954902
vt 0.42049 0.941891
vt 0.430318 0.929606
vt 0.430318 0.929606
vt 0.446153 0.932579
vt 0.42049 0.941891
vt 0.439705 0.946143
vt 0.433924 0.948144
vt 0.414236 0.961324
vt 0.432812 0.951479
vt 0.414236 0.961324
vt 0.42325 0.969712
vt 0.430318 0.929606
vt 0.439923 0.907492
vt 0.444819 0.928132
vt 0.430318 0.929606
vt 0.444819 0.928132
vt 0.446153 0.932579
vt 0.444819 0.928132
vt 0.439923 0.907492
vt 0.460606 0.925464
vt 0.474615 0.909454
vt 0.439923 0.907492
vt 0.474837 0.888553
vt 0.450422 0.871083
vt 0.478395 0.871431
vt 0.450422 0.871083
vt 0.445264 0.847194
vt 0.439923 0.907492
vt 0.433267 0.854049
vt 0.450422 0.871083
vt 0.414236 0.961324
vt 0.42325 0.969712
vt 0.396811 0.954902
vt 0.477354 0.98419
vt 0.471623 0.983894
vt 0.474728 0.980148
vt 0.468054 0.977839
vt 0.483457 0.987349
vt 0.480489 0.989085
vt 0.474647 0.973486
vt 0.467946 0.967999
vt 0.475294 0.965366
vt 0.468811 0.955888
vt 0.477743 0.961442
vt 0.472163 0.949508
vt 0.482093 0.960515
vt 0.478435 0.947021
vt 0.490556 0.960878
vt 0.491951 0.945291
vt 0.496897 0.962896
vt 0.503413 0.946913
vt 0.500089 0.964373
vt 0.509685 0.948643
vt 0.502031 0.967535
vt 0.513686 0.953941
vt 0.488748 0.978415
vt 0.502031 0.967535
vt 0.501357 0.976483
vt 0.500779 0.98206
vt 0.499605 0.985167
vt 0.497796 0.985834
vt 0.490745 0.987848
vt 0.483457 0.987349
vt 0.502031 0.967535
vt 0.501357 0.976483
vt 0.51228 0.970594
vt 0.500779 0.98206
vt 0.511091 0.980867
vt 0.499605 0.985167
vt 0.508712 0.986489
vt 0.497796 0.985834
vt 0.505144 0.987571
vt 0.490745 0.987848
vt 0.492276 0.99049
vt 0.480489 0.989085
vt 0.483457 0.987349
vt 0.396256 0.863183
vt 0.388824 0.866251
vt 0.3943 0.860977
vt 0.388233 0.861435
vt 0.401638 0.864785
vt 0.396336 0.870052
vt 0.395791 0.857975
vt 0.388974 0.854436
vt 0.397618 0.85381
vt 0.392336 0.848907
vt 0.400263 0.851129
vt 0.396758 0.846737
vt 0.403673 0.849796
vt 0.40233 0.843191
vt 0.40911 0.847364
vt 0.410191 0.837761
vt 0.413729 0.847407
vt 0.416145 0.838399
vt 0.416658 0.848426
vt 0.407777 0.864434
vt 0.408676 0.856441
vt 0.41372 0.863247
vt 0.418892 0.867817
vt 0.422522 0.867376
vt 0.415352 0.862956
vt 0.425247 0.863127
vt 0.416563 0.860588
vt 0.427336 0.855548
vt 0.417434 0.8566
vt 0.425159 0.849671
vt 0.418388 0.850688
vt 0.406801 0.870401
vt 0.418388 0.850688
vt 0.418388 0.850688
vt 0.420494 0.843512
vt 0.416658 0.848426
vt 0.416145 0.838399
vt 0.416658 0.848426
vt 0.418388 0.850688
vt 0.290572 0.920789
vt 0.284575 0.908009
vt 0.293054 0.906926
vt 0.308389 0.908369
vt 0.290572 0.920789
vt 0.281447 0.918653
vt 0.284575 0.908009
vt 0.290572 0.920789
vt 0.288544 0.929718
vt 0.298105 0.936213
vt 0.288544 0.929718
vt 0.290572 0.920789
vt 0.290572 0.920789
vt 0.308269 0.929899
vt 0.298105 0.936213
vt 0.311155 0.925509
vt 0.290572 0.920789
vt 0.310434 0.918292
vt 0.308389 0.908369
vt 0.323566 0.947936
vt 0.3039 0.94628
vt 0.312361 0.92908
vt 0.323566 0.947936
vt 0.304177 0.96015
vt 0.323566 0.947936
vt 0.309309 0.966392
vt 0.319762 0.985366
vt 0.323566 0.947936
vt 0.327048 0.932615
vt 0.327048 0.932615
vt 0.318325 0.920481
vt 0.329078 0.988859
vt 0.319762 0.985366
vt 0.323566 0.947936
vt 0.342275 0.985754
vt 0.323566 0.947936
vt 0.360491 0.971524
vt 0.342275 0.985754
vt 0.35522 0.978043
vt 0.323566 0.947936
vt 0.360907 0.944754
vt 0.360491 0.971524
vt 0.359936 0.934212
vt 0.323566 0.947936
vt 0.351203 0.926365
vt 0.327048 0.932615
vt 0.351203 0.926365
vt 0.323566 0.947936
vt 0.327048 0.932615
vt 0.318325 0.920481
vt 0.337882 0.922422
vt 0.351203 0.926365
vn -0.3420539 0.7294151 0.5924126
vn -0.5530971 0.7880149 0.2704
vn -0.2764095 0.7849205 0.5545247
vn -0.2736128 0.9611502 0.0364181
vn -0.6189233 0.7850495 0.02512537
vn -0.1932176 0.9261461 -0.3239143
vn 0.1759573 0.97463 0.1383313
vn 0.1140822 0.9934209 0.01000503
vn -0.3985145 0.8829719 -0.2480861
vn -0.1892895 0.7791575 -0.5975642
vn -0.03448399 0.7966104 -0.6035087
vn -0.04863192 0.8500021 -0.5245296
vn 0.04268173 0.9824237 -0.1817199
vn -0.4275028 0.8268236 -0.365519
vn -0.1346871 0.6856651 0.7153479
vn 0.1665755 0.6097296 0.7749079
vn -0.1773449 0.7967405 -0.577714
vn 0.09786843 0.6956511 -0.7116821
vn -0.2736128 0.9611502 0.0364181
vn 0.4547398 0.877125 0.1544778
vn -0.2613212 0.8391051 0.4770891
vn 0.4513473 0.8184255 0.3556198
vn 0.3274034 0.9247968 0.1937987
vn 0.4482431 0.8862187 0.1170228
vn 0.7671772 0.6082941 0.2035131
vn 0.4513473 0.8184255 0.3556198
vn 0.497461 0.6399496 0.5856595
vn 0.6668772 0.579128 0.4689195
vn 0.5416329 0.8121965 0.216727
vn 0.7904791 0.5108049 0.3379663
vn 0.7940127 0.5221796 0.3112432
vn 0.4154534 0.6396385 0.646731
vn 0.6600966 0.7306719 0.1743303
vn 0.5194613 0.7907442 0.3238575
vn 0.6836269 0.6745118 0.2787255
vn 0.8109365 0.5449963 0.2129814
vn 0.8641354 0.5010036 0.04759551
vn 0.7671772 0.6082941 0.2035131
vn 0.4915294 0.6921418 0.5285248
vn 0.4421363 0.8535414 0.2756492
vn 0.2787864 0.8101996 0.515611
vn 0.4946297 0.8459608 0.1992277
vn 0.3215427 0.9428722 0.08719256
vn 0.5726115 0.8137547 0.09959621
vn 0.6214723 0.7693024 -0.1481418
vn 0.618813 0.7189668 -0.3164764
vn 0.4122823 0.8605112 -0.2992384
vn 0.09786843 0.6956511 -0.7116821
vn -0.2377813 0.9241865 -0.298897
vn -0.4275028 0.8268236 -0.365519
vn -0.4935414 0.7755997 -0.3935252
vn -0.3118872 0.4321938 0.8461293
vn -0.1766163 0.5574974 0.811174
vn -0.318814 0.7003421 0.6386538
vn -0.4449035 0.7965342 0.4093828
vn -0.6204479 0.4422352 0.6476668
vn -0.6173782 0.7562135 0.2167607
vn -0.8458574 0.5090486 0.1593572
vn -0.2968593 0.7038189 0.6453785
vn -0.2222383 0.3574599 0.9071012
vn -0.6507316 0.7592285 -0.01097894
vn -0.8554655 0.5164307 -0.03844582
vn -0.6123502 0.7808097 -0.1239494
vn -0.7709415 0.5706044 -0.2829486
vn -0.4416581 0.8193024 -0.3656249
vn -0.4395314 0.6108155 -0.6585716
vn -0.1901592 0.814831 -0.5476221
vn -0.1522051 0.5840672 -0.7973074
vn -0.0491093 0.8180928 -0.5729856
vn 0.0575266 0.5846552 -0.8092396
vn 0.07378984 0.8268704 -0.5575306
vn 0.1943267 0.5930222 -0.7813845
vn 0.2233635 0.8483216 -0.4800617
vn 0.5286567 0.6023826 -0.5980447
vn 0.5066552 0.8344643 -0.2167256
vn 0.8663495 0.4850582 -0.1189832
vn -0.1162332 0.9931138 0.01465598
vn 0.3527882 0.8921006 -0.2823066
vn -0.0172059 0.999804 0.009796827
vn -0.02096419 0.9994746 0.0247221
vn -0.05091336 0.995506 0.07984661
vn -0.08027595 0.9888199 0.1256621
vn -0.1062141 0.9852927 0.1338536
vn -0.343361 0.7774611 0.5269322
vn 0.7799972 0.5433167 -0.3105016
vn 0.9122773 0.4008684 0.0839913
vn 0.9124027 0.3982078 0.09461405
vn 0.8972996 0.4010357 0.1844553
vn 0.8750058 0.4014631 0.2705407
vn 0.7131376 0.410858 0.5680057
vn 0.5077182 0.3892422 0.7685785
vn 0.2700352 0.3406258 0.9005859
vn 0.240032 0.3299236 0.9129815
vn 0.06486074 0.3306774 0.9415124
vn 0.0498642 0.3317814 0.9420376
vn -0.2222383 0.3574599 0.9071012
vn -0.3340772 0.370661 0.8666042
vn -0.3257963 0.8732382 0.3623697
vn -0.4898872 0.7292697 0.4776781
vn -0.5517818 0.833955 0.007466377
vn -0.737258 0.6650127 -0.1192001
vn -0.1928364 0.8146631 0.5469352
vn -0.1248136 0.6437781 0.7549644
vn -0.5656739 0.7980936 -0.2075086
vn -0.6693654 0.7005581 -0.2473222
vn -0.5125587 0.802812 -0.3045923
vn -0.5447788 0.6158032 -0.5692121
vn -0.4056778 0.7363554 -0.5414853
vn -0.411384 0.4993769 -0.7624866
vn -0.3853663 0.7137524 -0.5848508
vn -0.4547715 0.5383898 -0.7094499
vn -0.3114889 0.7545711 -0.5775787
vn -0.170842 0.5858391 -0.7922156
vn -0.01035398 0.7775381 -0.6287506
vn 0.3555769 0.4828085 -0.8002881
vn 0.3851983 0.7275886 -0.5676594
vn 0.008065592 0.7447898 0.6672505
vn -0.131373 0.9910032 -0.02556994
vn 0.03457779 0.7508245 0.659596
vn 0.1290563 0.5366312 0.8338893
vn 0.316195 0.5716426 0.7571298
vn 0.342823 0.8162118 0.4650492
vn 0.7384894 0.5719625 0.3570604
vn 0.5541611 0.8054373 0.2101815
vn 0.8225812 0.5673471 0.03843757
vn 0.6229024 0.7817857 0.02834834
vn 0.8712174 0.4196692 -0.2546723
vn 0.757489 0.5794445 -0.3007564
vn 0.07355148 0.5864102 0.806668
vn 0.4106002 0.9115477 0.02209544
vn 0.8629162 0.3404605 -0.3734464
vn 0.7438696 0.282405 -0.6057271
vn 0.5778474 0.3891591 -0.7173895
vn 0.3555769 0.4828085 -0.8002881
vn 0.06024275 0.9047859 -0.4215842
vn 0.0810723 0.995538 -0.04828395
vn 0.1226145 0.8900324 -0.439099
vn -0.4237787 0.759152 -0.4940647
vn -0.01152584 0.7014155 -0.7126594
vn 0.3673942 0.8094094 -0.4581245
vn -0.4612695 0.8741924 -0.1517173
vn -0.710137 0.6944944 0.1156849
vn -0.4237787 0.759152 -0.4940647
vn -0.6332477 0.7139028 0.2988984
vn -0.5441366 0.6550983 0.5241769
vn -0.0492032 0.787594 0.6142269
vn -0.5441366 0.6550983 0.5241769
vn -0.2327049 0.8806251 0.4127321
vn 0.371383 0.8812242 0.2924359
vn 0.4121858 0.8046833 0.4273028
vn -0.0492032 0.787594 0.6142269
vn 0.5636234 0.815118 0.1338334
vn 0.3985298 0.9047319 -0.1504467
vn 0.6092793 0.7874756 -0.0930635
vn 0.3673942 0.8094094 -0.4581245
vn -0.3436886 0.9355124 0.08182121
vn -0.5877848 0.7975212 -0.1359005
vn -0.6151597 0.7354278 -0.2841206
vn -0.3480349 0.9206412 0.1768939
vn -0.5158309 0.8370754 0.1822724
vn -0.1807346 0.9729225 0.1440723
vn -0.4568853 0.8341741 0.308884
vn -0.3237055 0.8853012 0.3338512
vn -0.4286553 0.8912021 0.1483692
vn -0.6369093 0.716124 -0.2855046
vn -0.2709952 0.6854656 -0.6757948
vn -0.2829247 0.626729 -0.7260609
vn -0.02717887 0.9215155 0.3873892
vn -0.3237055 0.8853012 0.3338512
vn -0.05315802 0.9933906 0.1017318
vn 0.1169745 0.963411 0.241156
vn 0.08038619 0.9824868 0.1681006
vn 0.2542063 0.9603705 0.114314
vn 0.1169745 0.963411 0.241156
vn 0 1 0
vn 0.2468873 0.9552365 0.163003
vn 0.4834906 0.875155 -0.01845524
vn 0.2542063 0.9603705 0.114314
vn 0.4208008 0.8806011 -0.2178722
vn 0.2318092 0.9696275 0.07801931
vn 0.4879951 0.7724754 -0.4063773
vn 0.6913151 0.7052647 0.1571154
vn 0.5489036 0.8272073 -0.1201367
vn 0.339082 0.9320395 0.1277727
vn -0.09628951 0.5945887 -0.7982434
vn -0.2829247 0.626729 -0.7260609
vn 0.1698479 0.4599884 -0.8715287
vn 0.3120875 0.6981414 -0.6443601
g BRM_Anvil_Ore_0
f 3/3/3 2/2/2 1/1/1
f 4/4/4 2/2/2 3/3/3
f 5/5/5 2/2/2 4/4/4
f 6/6/6 5/5/5 4/4/4
f 4/4/4 7/7/7 6/6/6
f 7/7/7 8/8/8 6/6/6
f 9/9/9 5/5/5 6/6/6
f 10/10/10 9/9/9 6/6/6
f 11/11/11 10/10/10 6/6/6
f 12/12/12 11/11/11 6/6/6
f 13/13/13 12/12/12 6/6/6
f 14/14/14 12/12/12 13/13/13
f 15/15/15 3/3/3 1/1/1
f 15/15/15 16/16/16 3/3/3
f 18/18/18 14/14/14 17/17/17
f 21/21/21 20/20/20 19/19/19
f 19/19/19 20/20/20 22/22/22
f 22/22/22 23/23/23 19/19/19
f 26/26/26 25/25/25 24/24/24
f 27/27/27 25/25/25 26/26/26
f 28/28/28 27/27/27 26/26/26
f 29/29/29 28/28/28 26/26/26
f 30/30/30 28/28/28 29/29/29
f 32/32/32 30/30/30 31/31/31
f 35/35/35 34/34/34 33/33/33
f 38/38/38 37/37/37 36/36/36
f 41/41/41 40/40/40 39/39/39
f 42/42/42 40/40/40 41/41/41
f 42/42/42 44/44/44 43/43/43
f 43/43/43 44/44/44 45/45/45
f 44/44/44 46/46/46 45/45/45
f 46/46/46 48/48/48 47/47/47
f 51/51/51 50/50/50 49/49/49
f 54/54/54 53/53/53 52/52/52
f 57/57/57 56/56/56 55/55/55
f 58/58/58 56/56/56 57/57/57
f 55/55/55 56/56/56 59/59/59
f 59/59/59 56/56/56 60/60/60
f 61/61/61 58/58/58 57/57/57
f 62/62/62 58/58/58 61/61/61
f 63/63/63 62/62/62 61/61/61
f 64/64/64 62/62/62 63/63/63
f 65/65/65 64/64/64 63/63/63
f 66/66/66 64/64/64 65/65/65
f 67/67/67 66/66/66 65/65/65
f 68/68/68 66/66/66 67/67/67
f 69/69/69 68/68/68 67/67/67
f 70/70/70 68/68/68 69/69/69
f 71/71/71 70/70/70 69/69/69
f 72/72/72 70/70/70 71/71/71
f 73/73/73 72/72/72 71/71/71
f 74/74/74 72/72/72 73/73/73
f 75/75/75 74/74/74 73/73/73
f 76/76/76 74/74/74 75/75/75
f 77/77/77 63/63/63 61/61/61
f 77/77/77 65/65/65 63/63/63
f 77/77/77 67/67/67 65/65/65
f 77/77/77 69/69/69 67/67/67
f 77/77/77 71/71/71 69/69/69
f 77/77/77 73/73/73 71/71/71
f 77/77/77 78/78/78 73/73/73
f 77/77/77 79/79/79 78/78/78
f 77/77/77 80/80/80 79/79/79
f 77/77/77 81/81/81 80/80/80
f 77/77/77 82/82/82 81/81/81
f 77/77/77 83/83/83 82/82/82
f 83/83/83 77/77/77 84/84/84
f 77/77/77 55/55/55 84/84/84
f 77/77/77 57/57/57 55/55/55
f 77/77/77 61/61/61 57/57/57
f 86/86/86 76/76/76 85/85/85
f 87/87/87 76/76/76 86/86/86
f 88/88/88 87/87/87 86/86/86
f 89/89/89 87/87/87 88/88/88
f 90/90/90 89/89/89 88/88/88
f 91/91/91 89/89/89 90/90/90
f 92/92/92 91/91/91 90/90/90
f 93/93/93 91/91/91 92/92/92
f 94/94/94 93/93/93 92/92/92
f 95/95/95 93/93/93 94/94/94
f 95/95/95 94/94/94 96/96/96
f 96/96/96 94/94/94 97/97/97
f 100/100/100 99/99/99 98/98/98
f 101/101/101 99/99/99 100/100/100
f 98/98/98 99/99/99 102/102/102
f 102/102/102 99/99/99 103/103/103
f 104/104/104 101/101/101 100/100/100
f 105/105/105 101/101/101 104/104/104
f 106/106/106 105/105/105 104/104/104
f 107/107/107 105/105/105 106/106/106
f 108/108/108 107/107/107 106/106/106
f 109/109/109 107/107/107 108/108/108
f 110/110/110 109/109/109 108/108/108
f 111/111/111 109/109/109 110/110/110
f 112/112/112 111/111/111 110/110/110
f 113/113/113 111/111/111 112/112/112
f 114/114/114 113/113/113 112/112/112
f 115/115/115 113/113/113 114/114/114
f 116/116/116 115/115/115 114/114/114
f 103/103/103 117/117/117 102/102/102
f 117/117/117 118/118/118 102/102/102
f 118/118/118 106/106/106 104/104/104
f 118/118/118 108/108/108 106/106/106
f 118/118/118 110/110/110 108/108/108
f 118/118/118 112/112/112 110/110/110
f 118/118/118 114/114/114 112/112/112
f 118/118/118 117/117/117 119/119/119
f 117/117/117 120/120/120 119/119/119
f 120/120/120 121/121/121 119/119/119
f 119/119/119 121/121/121 122/122/122
f 118/118/118 119/119/119 122/122/122
f 121/121/121 123/123/123 122/122/122
f 122/122/122 123/123/123 124/124/124
f 118/118/118 122/122/122 124/124/124
f 123/123/123 125/125/125 124/124/124
f 124/124/124 125/125/125 126/126/126
f 118/118/118 124/124/124 126/126/126
f 125/125/125 127/127/127 126/126/126
f 126/126/126 127/127/127 128/128/128
f 129/129/129 120/120/120 117/117/117
f 118/118/118 126/126/126 130/130/130
f 129/129/129 117/117/117 103/103/103
f 127/127/127 132/132/132 131/131/131
f 131/131/131 132/132/132 133/133/133
f 132/132/132 134/134/134 133/133/133
f 118/118/118 136/136/136 135/135/135
f 118/118/118 135/135/135 114/114/114
f 118/118/118 98/98/98 102/102/102
f 118/118/118 100/100/100 98/98/98
f 118/118/118 104/104/104 100/100/100
f 139/139/139 138/138/138 137/137/137
f 140/140/140 139/139/139 137/137/137
f 143/143/143 142/142/142 141/141/141
f 142/142/142 145/145/145 144/144/144
f 148/148/148 147/147/147 146/146/146
f 151/151/151 150/150/150 149/149/149
f 150/150/150 152/152/152 149/149/149
f 152/152/152 154/154/154 153/153/153
f 154/154/154 155/155/155 153/153/153
f 158/158/158 157/157/157 156/156/156
f 157/157/157 160/160/160 159/159/159
f 160/160/160 162/162/162 161/161/161
f 162/162/162 163/163/163 159/159/159
f 165/165/165 158/158/158 164/164/164
f 167/167/167 158/158/158 166/166/166
f 170/170/170 169/169/169 168/168/168
f 171/171/171 170/170/170 168/168/168
f 174/174/174 173/173/173 172/172/172
f 175/175/175 173/173/173 174/174/174
f 178/178/178 177/177/177 176/176/176
f 177/177/177 179/179/179 176/176/176
f 179/179/179 181/181/181 180/180/180
f 184/184/184 183/183/183 182/182/182
f 187/187/187 186/186/186 185/185/185
f 188/188/188 187/187/187 185/185/185
