g BRM_Anvil_Shield1_emitter
v 370.2539 163.0941 -248.6397
v 356.6935 182.1039 -253.7589
v 352.2373 163.562 -267.6907
v 366.7293 187.7125 -240.6123
v 373.3232 200.495 -228.4642
v 380.0469 172.4359 -232.8804
v 379.9508 220.1753 -214.1558
v 387.2309 185.6222 -217.6272
v 394.6174 207.1965 -203.5014
v 398.7621 179.795 -206.9187
v 403.842 201.89 -192.361
v 408.1141 177.5539 -196.7962
v 411.7785 205.1087 -181.7191
v 414.7608 180.757 -186.5214
v 425.0178 181.9633 -174.9771
v 372.8501 139.0695 -254.5917
v 385.514 107.8294 -251.6362
v 377.1489 119.9755 -253.4513
v 380.4981 92.53397 -262.3723
v 373.4073 108.4194 -266.3631
v 397.708 88.73788 -243.9426
v 380.0469 172.4359 -232.8804
v 408.6589 74.65874 -233.4875
v 387.2309 185.6222 -217.6272
v 414.4635 93.34494 -221.4678
v 421.3088 67.4256 -224.2659
v 398.7621 179.795 -206.9187
v 417.655 115.4023 -210.5607
v 426.3253 92.57777 -211.2301
v 408.1141 177.5539 -196.7962
v 418.1347 139.9639 -198.1459
v 428.4745 115.2826 -199.5882
v 417.2018 163.5179 -190.392
v 429.3319 139.2445 -186.2931
v 427.1047 161.2984 -180.4511
v 413.9048 52.43684 -236.3075
v 402.0586 63.53272 -248.1096
v 391.3374 81.81226 -256.0594
v 418.656 212.4684 -167.8676
v 358.8954 136.6869 -268.1646
v 364.446 120.8742 -266.9941
v 345.4923 185.0892 -262.9744
v 373.3232 200.495 -228.4642
v 379.9508 220.1753 -214.1558
v 362.6032 194.3986 -220.5345
v 366.646 214.4426 -207.1163
v 356.8248 180.5954 -233.1311
v 366.7293 187.7125 -240.6123
v 348.0527 174.6149 -245.3673
v 356.6935 182.1039 -253.7589
v 338.8405 177.6554 -255.6677
v 345.4923 185.0892 -262.9744
v 394.6174 207.1965 -203.5014
v 403.842 201.89 -192.361
v 382.9265 201.74 -196.6487
v 393.1842 196.5202 -186.9626
v 411.7785 205.1087 -181.7191
v 401.238 199.2338 -176.2257
v 366.646 214.4426 -207.1163
v 379.9508 220.1753 -214.1558
v 418.656 212.4684 -167.8676
v 407.8954 205.7543 -165.7921
vt 0.714517 0.123574
vt 0.648508 0.114807
vt 0.646159 0.051913
vt 0.682374 0.168121
vt 0.697734 0.222282
vt 0.748152 0.185847
vt 0.708086 0.289894
vt 0.765615 0.25168
vt 0.774521 0.322506
vt 0.813523 0.288527
vt 0.813853 0.361781
vt 0.850856 0.325816
vt 0.842059 0.404894
vt 0.870424 0.369788
vt 0.908629 0.414536
vt 0.742041 0.088023
vt 0.811177 0.082321
vt 0.771783 0.082055
vt 0.803319 0.03502
vt 0.766181 0.028389
vt 0.868774 0.100409
vt 0.740996 0.191195
vt 0.917749 0.130914
vt 0.758663 0.257344
vt 0.92704 0.185098
vt 0.968097 0.16037
vt 0.806997 0.294656
vt 0.924676 0.238083
vt 0.970915 0.222109
vt 0.843895 0.331391
vt 0.910513 0.299311
vt 0.964723 0.278547
vt 0.891373 0.343622
vt 0.952786 0.343107
vt 0.9302 0.379642
vt 0.950575 0.108847
vt 0.900935 0.072093
vt 0.850136 0.05262
vt 0.863377 0.463507
vt 0.691739 0.036124
vt 0.724102 0.032376
vt 0.603468 0.081366
vt 0.697734 0.222282
vt 0.708086 0.289894
vt 0.661395 0.248893
vt 0.661121 0.313359
vt 0.650193 0.192413
vt 0.682374 0.168121
vt 0.621606 0.14245
vt 0.648508 0.114807
vt 0.584192 0.10507
vt 0.603468 0.081366
vt 0.774521 0.322506
vt 0.813853 0.361781
vt 0.733648 0.345215
vt 0.776875 0.378826
vt 0.842059 0.404894
vt 0.805772 0.421867
vt 0.661121 0.313359
vt 0.708086 0.289894
vt 0.863377 0.463507
vt 0.826663 0.466615
vn 0.7164374 0.2734744 -0.641817
vn 0.6760373 0.3279025 -0.659889
vn 0.6818529 0.2734294 -0.6784637
vn 0.6692472 0.3152191 -0.6728633
vn 0.6891363 0.2875823 -0.6651223
vn 0.7618685 0.2477444 -0.5984806
vn 0.7226286 0.2370722 -0.649311
vn 0.73454 0.2231828 -0.6408124
vn 0.737947 0.2001386 -0.6444988
vn 0.7349705 0.2271218 -0.638932
vn 0.7601467 0.2269771 -0.6088172
vn 0.7704135 0.2370201 -0.5918484
vn 0.7601249 0.2414089 -0.6032676
vn 0.7435009 0.233003 -0.6268302
vn 0.7405117 0.252438 -0.6228302
vn 0.6487875 0.1958673 -0.7353303
vn 0.6471464 0.2271025 -0.7277541
vn 0.6843593 0.196665 -0.7021219
vn 0.7152889 0.2818591 -0.6394664
vn 0.7693672 0.2587945 -0.5840372
vn 0.787308 0.2424271 -0.5668997
vn 0.7618685 0.2477444 -0.5984806
vn 0.7478299 0.2425818 -0.6179842
vn 0.73454 0.2231828 -0.6408124
vn 0.6733258 0.2459396 -0.6972417
vn 0.6536202 0.248141 -0.7149873
vn 0.7349705 0.2271218 -0.638932
vn 0.7123701 0.26748 -0.6488324
vn 0.6560937 0.264192 -0.7069255
vn 0.7704135 0.2370201 -0.5918484
vn 0.7399032 0.2734788 -0.614616
vn 0.6860432 0.310407 -0.6580214
vn 0.7385194 0.2414257 -0.629526
vn 0.7079815 0.2734416 -0.6511466
vn 0.7128987 0.24672 -0.6564333
vn 0.7294491 0.2528549 -0.635585
vn 0.80125 0.238682 -0.5486614
vn 0.7528518 0.2569329 -0.60597
vn 0.7862942 0.2910043 -0.5450302
vn 0.6698302 0.1802139 -0.7203127
vn 0.5885157 0.251841 -0.7682613
vn 0.6489075 0.3511942 -0.674968
vn -0.6780342 0.6212091 -0.3928979
vn -0.6212147 0.5549819 -0.5532517
vn -0.6358269 0.5851886 -0.5032676
vn -0.5635477 0.5350205 -0.6294178
vn -0.6571718 0.7163249 -0.234529
vn -0.633557 0.7711917 -0.06220151
vn -0.4911729 0.8460125 0.2073936
vn -0.3807843 0.8349414 0.3973364
vn -0.2583 0.8121416 0.5231704
vn -0.2558581 0.7843587 0.5650823
vn 0.0222653 0.7584284 0.651376
vn -0.2291997 0.8931899 0.3868843
vn -0.04763705 0.7995324 0.5987309
vn -0.3448636 0.9045914 0.2505665
vn -0.4762604 0.8792945 -0.004156926
vn -0.5155017 0.8534935 -0.07620312
vn 0.08724143 0.6935351 0.7151209
vn 0.08502514 0.6878439 0.7208617
vn -0.5448147 0.8219367 -0.1661233
vn -0.544865 0.8219274 -0.1660038
g BRM_Anvil_Shield1_emitter_0
f 3/3/3 2/2/2 1/1/1
f 2/2/2 4/4/4 1/1/1
f 4/4/4 5/5/5 1/1/1
f 1/1/1 5/5/5 6/6/6
f 5/5/5 7/7/7 6/6/6
f 6/6/6 7/7/7 8/8/8
f 7/7/7 9/9/9 8/8/8
f 8/8/8 9/9/9 10/10/10
f 9/9/9 11/11/11 10/10/10
f 10/10/10 11/11/11 12/12/12
f 11/11/11 13/13/13 12/12/12
f 12/12/12 13/13/13 14/14/14
f 14/14/14 13/13/13 15/15/15
f 16/16/16 3/3/3 1/1/1
f 1/1/1 17/17/17 16/16/16
f 16/16/16 17/17/17 18/18/18
f 17/17/17 19/19/19 18/18/18
f 18/18/18 19/19/19 20/20/20
f 18/18/18 20/20/20 16/16/16
f 17/17/17 1/1/1 21/21/21
f 21/21/21 1/1/1 22/22/22
f 22/22/22 23/23/23 21/21/21
f 24/24/24 23/23/23 22/22/22
f 23/23/23 24/24/24 25/25/25
f 26/26/26 23/23/23 25/25/25
f 25/25/25 24/24/24 27/27/27
f 25/25/25 27/27/27 28/28/28
f 29/29/29 25/25/25 28/28/28
f 26/26/26 25/25/25 29/29/29
f 28/28/28 27/27/27 30/30/30
f 28/28/28 30/30/30 31/31/31
f 32/32/32 28/28/28 31/31/31
f 29/29/29 28/28/28 32/32/32
f 33/33/33 31/31/31 30/30/30
f 31/31/31 33/33/33 34/34/34
f 32/32/32 31/31/31 34/34/34
f 14/14/14 33/33/33 30/30/30
f 34/34/34 33/33/33 35/35/35
f 33/33/33 14/14/14 35/35/35
f 35/35/35 14/14/14 15/15/15
f 36/36/36 23/23/23 26/26/26
f 36/36/36 37/37/37 23/23/23
f 37/37/37 38/38/38 21/21/21
f 38/38/38 17/17/17 21/21/21
f 38/38/38 19/19/19 17/17/17
f 23/23/23 37/37/37 21/21/21
f 13/13/13 39/39/39 15/15/15
f 41/41/41 40/40/40 16/16/16
f 40/40/40 3/3/3 16/16/16
f 16/16/16 20/20/20 41/41/41
f 42/42/42 2/2/2 3/3/3
f 45/45/45 44/44/44 43/43/43
f 46/46/46 44/44/44 45/45/45
f 45/45/45 43/43/43 47/47/47
f 47/47/47 43/43/43 48/48/48
f 47/47/47 48/48/48 49/49/49
f 49/49/49 48/48/48 50/50/50
f 49/49/49 50/50/50 51/51/51
f 51/51/51 50/50/50 52/52/52
f 55/55/55 54/54/54 53/53/53
f 56/56/56 54/54/54 55/55/55
f 56/56/56 57/57/57 54/54/54
f 58/58/58 57/57/57 56/56/56
f 55/55/55 53/53/53 59/59/59
f 59/59/59 53/53/53 60/60/60
f 58/58/58 61/61/61 57/57/57
f 62/62/62 61/61/61 58/58/58
