g GateTowers_Rocks_mesh
v 1235.781 45.36955 -894.9089
v 1227.609 45.65089 -897.747
v 1229.9 58.46798 -898.008
v 1221.092 45.32883 -905.2574
v 1222.386 49.32558 -903.2189
v 1227.609 45.65089 -897.747
v 1221.841 47.69499 -908.8528
v 1225.324 53.08525 -909.0987
v 1229.9 58.46798 -898.008
v 1228.161 60.78617 -909.6779
v 1229.9 58.46798 -898.008
v 1229.9 58.46798 -898.008
v 1232.596 64.08989 -907.9973
v 1233.42 63.91365 -911.1029
v 1234.896 62.79166 -909.7885
v 1232.596 64.08989 -907.9973
v 1233.42 63.91365 -911.1029
v 1240.701 48.9609 -905.043
v 1241.069 53.72965 -900.5247
v 1232.596 64.08989 -907.9973
v 1241.069 53.72965 -900.5247
v 1229.9 58.46798 -898.008
v 1232.596 64.08989 -907.9973
v 1235.781 45.36955 -894.9089
v 1229.9 58.46798 -898.008
v 1241.069 53.72965 -900.5247
v 1241.127 45.69638 -903.9665
v 1241.069 53.72965 -900.5247
v 1240.701 48.9609 -905.043
v 1235.781 45.36955 -894.9089
v 1241.069 53.72965 -900.5247
v 1216.624 44.59193 -901.7544
v 1208.462 45.41676 -905.2412
v 1214.855 54.11932 -906.3526
v 1216.624 44.59193 -901.7544
v 1214.855 54.11932 -906.3526
v 1221.387 44.46013 -903.4615
v 1221.387 44.46013 -903.4615
v 1214.855 54.11932 -906.3526
v 1222.09 45.24739 -907.3017
v 1214.855 54.11932 -906.3526
v 1216.854 56.21312 -908.46
v 1222.09 45.24739 -907.3017
v 1216.854 56.21312 -908.46
v 1218.519 53.92296 -910.271
v 1216.854 56.21312 -908.46
v 1216.142 56.31897 -911.3016
v 1207.26 45.43965 -907.6674
v 1214.855 54.11932 -906.3526
v 1208.462 45.41676 -905.2412
v 1207.26 45.43965 -907.6674
v 1209.699 44.82176 -909.4422
v 1214.855 54.11932 -906.3526
v 1214.855 54.11932 -906.3526
v 1209.699 44.82176 -909.4422
v 1213.141 51.10619 -910.3998
v 1216.854 56.21312 -908.46
v 1216.142 56.31897 -911.3016
v 1370.73 45.24491 -845.9362
v 1361.233 46.34058 -850.0502
v 1364.14 61.25586 -849.6152
v 1361.233 46.34058 -850.0502
v 1358.928 53.35801 -854.6079
v 1364.14 61.25586 -849.6152
v 1355.301 47.39945 -857.3068
v 1356.05 49.76561 -860.9022
v 1357.997 55.13794 -861.4839
v 1362.458 64.47708 -861.0971
v 1367.726 66.10386 -856.9471
v 1362.458 64.47708 -861.0971
v 1366.997 68.28558 -862.0376
v 1364.14 61.25586 -849.6152
v 1371.281 59.21595 -852.3235
v 1367.726 66.10386 -856.9471
v 1372.367 60.06796 -857.8366
v 1367.726 66.10386 -856.9471
v 1369.816 62.09862 -858.2921
v 1369.816 62.09862 -858.2921
v 1366.997 68.28558 -862.0376
v 1371.281 59.21595 -852.3235
v 1364.14 61.25586 -849.6152
v 1367.726 66.10386 -856.9471
v 1370.73 45.24491 -845.9362
v 1364.14 61.25586 -849.6152
v 1371.281 59.21595 -852.3235
v 1374.297 44.74003 -847.5836
v 1371.281 59.21595 -852.3235
v 1372.367 60.06796 -857.8366
v 1374.052 60.09848 -852.1385
v 1374.052 60.09848 -852.1385
v 1374.877 62.95025 -857.0208
v 1378.256 44.79325 -845.7643
v 1371.281 59.21595 -852.3235
v 1374.052 60.09848 -852.1385
v 1381.282 44.55779 -848.3085
v 1374.052 60.09848 -852.1385
v 1377.135 56.84721 -854.6206
v 1374.877 62.95025 -857.0208
v 1378.256 44.79325 -845.7643
v 1374.052 60.09848 -852.1385
v 1381.282 44.55779 -848.3085
v 1374.297 44.74003 -847.5836
v 1371.281 59.21595 -852.3235
v 1378.256 44.79325 -845.7643
v 1351.64 45.21592 -862.1688
v 1352.069 53.76236 -858.4171
v 1347.19 45.3048 -860.5156
v 1347.19 45.3048 -860.5156
v 1352.069 53.76236 -858.4171
v 1348.429 45.44451 -856.4878
v 1348.429 45.44451 -856.4878
v 1352.069 53.76236 -858.4171
v 1354.316 45.16098 -853.8905
v 1352.069 53.76236 -858.4171
v 1357.733 44.48779 -855.8888
v 1354.316 45.16098 -853.8905
v 1352.069 53.76236 -858.4171
v 1351.64 45.21592 -862.1688
v 1356.949 44.78533 -860.719
v 1352.069 53.76236 -858.4171
v 1356.949 44.78533 -860.719
v 1357.733 44.48779 -855.8888
v 1409.508 44.52345 -840.9882
v 1410.109 51.80256 -839.0991
v 1404.308 44.52679 -838.1975
v 1406.621 52.52373 -837.7018
v 1413.5 51.53096 -838.6648
v 1416.291 43.98043 -840.1192
v 1410.638 54.9947 -836.0964
v 1404.308 44.52679 -838.1975
v 1406.621 52.52373 -837.7018
v 1406.516 44.55197 -833.4448
v 1407.724 52.53622 -835.3254
v 1415.327 43.98987 -831.9817
v 1412.457 51.6165 -834.233
v 1418.076 43.42644 -834.3199
v 1414.393 51.25401 -835.7651
v 1416.291 43.98043 -840.1192
v 1413.5 51.53096 -838.6648
v 1410.638 54.9947 -836.0964
v 1410.638 54.9947 -836.0964
v 1410.638 54.9947 -836.0964
v 1410.638 54.9947 -836.0964
v 1410.109 51.80256 -839.0991
v 1413.5 51.53096 -838.6648
v 1410.638 54.9947 -836.0964
vt 0.644296 0.270361
vt 0.637341 0.267899
vt 0.641227 0.2662
vt 0.631714 0.261506
vt 0.633409 0.262785
vt 0.637341 0.267899
vt 0.632702 0.258147
vt 0.636486 0.257295
vt 0.641227 0.2662
vt 0.640079 0.255875
vt 0.641227 0.2662
vt 0.641227 0.2662
vt 0.644405 0.256927
vt 0.645089 0.254269
vt 0.64619 0.255538
vt 0.644405 0.256927
vt 0.645089 0.254269
vt 0.649059 0.261264
vt 0.650109 0.264585
vt 0.644405 0.256927
vt 0.650109 0.264585
vt 0.641227 0.2662
vt 0.644405 0.256927
vt 0.644296 0.270361
vt 0.641227 0.2662
vt 0.650109 0.264585
vt 0.648923 0.262568
vt 0.650109 0.264585
vt 0.649059 0.261264
vt 0.644296 0.270361
vt 0.650109 0.264585
vt 0.627783 0.26459
vt 0.620915 0.26151
vt 0.627644 0.259532
vt 0.627783 0.26459
vt 0.627644 0.259532
vt 0.631841 0.263145
vt 0.631841 0.263145
vt 0.627644 0.259532
vt 0.632557 0.259765
vt 0.627644 0.259532
vt 0.629667 0.257471
vt 0.632557 0.259765
vt 0.629667 0.257471
vt 0.630764 0.256188
vt 0.629667 0.257471
vt 0.62907 0.255015
vt 0.619888 0.25943
vt 0.627644 0.259532
vt 0.620915 0.26151
vt 0.619888 0.25943
vt 0.621889 0.257983
vt 0.627644 0.259532
vt 0.627644 0.259532
vt 0.621889 0.257983
vt 0.625737 0.256415
vt 0.629667 0.257471
vt 0.62907 0.255015
vt 0.756752 0.310373
vt 0.749507 0.307052
vt 0.754508 0.306061
vt 0.749507 0.307052
vt 0.748965 0.302843
vt 0.754508 0.306061
vt 0.745046 0.301267
vt 0.746057 0.298228
vt 0.748554 0.297271
vt 0.753772 0.2967
vt 0.758235 0.299828
vt 0.753772 0.2967
vt 0.758063 0.295598
vt 0.754508 0.306061
vt 0.759762 0.304109
vt 0.758235 0.299828
vt 0.760777 0.299685
vt 0.758235 0.299828
vt 0.759143 0.299138
vt 0.759143 0.299138
vt 0.758063 0.295598
vt 0.759762 0.304109
vt 0.754508 0.306061
vt 0.758235 0.299828
vt 0.756752 0.310373
vt 0.754508 0.306061
vt 0.759762 0.304109
vt 0.759453 0.309127
vt 0.759762 0.304109
vt 0.760777 0.299685
vt 0.762112 0.304175
vt 0.762112 0.304175
vt 0.763296 0.300062
vt 0.762564 0.310547
vt 0.759762 0.304109
vt 0.762112 0.304175
vt 0.764891 0.308575
vt 0.762112 0.304175
vt 0.763932 0.302515
vt 0.763296 0.300062
vt 0.762564 0.310547
vt 0.762112 0.304175
vt 0.764891 0.308575
vt 0.759453 0.309127
vt 0.759762 0.304109
vt 0.762564 0.310547
vt 0.741789 0.297657
vt 0.743644 0.299811
vt 0.738317 0.298944
vt 0.738317 0.298944
vt 0.743644 0.299811
vt 0.739313 0.302087
vt 0.739313 0.302087
vt 0.743644 0.299811
vt 0.743875 0.304148
vt 0.743644 0.299811
vt 0.746432 0.302644
vt 0.743875 0.304148
vt 0.743644 0.299811
vt 0.741789 0.297657
vt 0.745871 0.298833
vt 0.743644 0.299811
vt 0.745871 0.298833
vt 0.746432 0.302644
vt 0.786994 0.314312
vt 0.788898 0.31517
vt 0.782922 0.316498
vt 0.786299 0.316206
vt 0.791509 0.315534
vt 0.7922 0.315039
vt 0.789946 0.317259
vt 0.782922 0.316498
vt 0.786299 0.316206
vt 0.784655 0.320218
vt 0.787169 0.318073
vt 0.791446 0.321411
vt 0.790706 0.319009
vt 0.793487 0.319627
vt 0.792155 0.317836
vt 0.7922 0.315039
vt 0.791509 0.315534
vt 0.789946 0.317259
vt 0.789946 0.317259
vt 0.789946 0.317259
vt 0.789946 0.317259
vt 0.788898 0.31517
vt 0.791509 0.315534
vt 0.789946 0.317259
vn 0.01256853 0.2355681 0.9717765
vn -0.599342 0.04146583 0.7994184
vn -0.4742759 0.2811844 0.8342648
vn -0.9262617 0.1171784 0.3582017
vn -0.8923115 0.3398075 0.2971719
vn -0.599342 0.04146583 0.7994184
vn -0.9037521 0.4265349 -0.03605676
vn -0.8559545 0.5146912 0.04934533
vn -0.7561356 0.4385296 0.4857477
vn -0.7359233 0.6710017 0.09040751
vn -0.8061656 0.4974313 0.3204045
vn -0.8061656 0.4974313 0.3204045
vn -0.6035195 0.7969229 0.02604108
vn -0.5393285 0.8204659 -0.1896329
vn 0.6473738 0.6846344 0.3349372
vn 0.7052888 0.678415 0.2057203
vn 0.5457999 0.8322162 0.09756365
vn 0.9397762 0.3410656 -0.02224688
vn 0.9254673 0.2204636 -0.3080682
vn 0.7759826 0.6263161 0.07469402
vn 0.4020966 0.56523 0.7203009
vn 0.4020966 0.56523 0.7203009
vn 0.5783175 0.7080104 0.4053026
vn 0.3520768 0.09455809 0.9311824
vn 0.1708582 0.4414249 0.8808811
vn 0.614615 0.3363304 0.7135336
vn 0.9815881 -0.0691929 0.1780366
vn 0.9955479 0.08477542 -0.04120015
vn 0.9397762 0.3410656 -0.02224688
vn 0.6581581 0.08613959 0.7479358
vn 0.8725965 0.0929177 0.4795222
vn -0.0132835 0.4326153 0.9014807
vn -0.5649117 0.4989061 0.6572423
vn -0.07409969 0.5134186 0.8549331
vn -0.0132835 0.4326153 0.9014807
vn 0.3551383 0.4970266 0.7917331
vn 0.5772078 0.5664228 0.5882146
vn 0.5772078 0.5664228 0.5882146
vn 0.5583916 0.4880294 0.6708399
vn 0.7497039 0.4774316 0.4582609
vn 0.3551383 0.4970266 0.7917331
vn 0.7274112 0.4057803 0.5533673
vn 0.7497039 0.4774316 0.4582609
vn 0.7822947 0.5294684 0.3281434
vn 0.8236175 0.5655787 0.04212888
vn 0.8236175 0.5655787 0.04212888
vn 0.7342978 0.6598811 -0.1592597
vn -0.7271743 0.5808787 0.3657834
vn -0.7600705 0.5691537 0.3136188
vn -0.5649117 0.4989061 0.6572423
vn -0.4283682 0.4898505 -0.7593071
vn -0.7288414 0.5428149 -0.4173035
vn -0.7546103 0.5745761 -0.3169
vn -0.7838864 0.6044526 -0.1419822
vn -0.7288414 0.5428149 -0.4173035
vn -0.8381037 0.5442284 0.03738574
vn -0.8167869 0.5747656 0.05003508
vn -0.8267482 0.5151027 0.2261783
vn 0.1685127 0.2836089 0.9440178
vn -0.6606336 0.1209726 0.7408973
vn -0.6165382 0.4537367 0.6434311
vn -0.6606336 0.1209726 0.7408973
vn -0.8682411 0.3231447 0.3764768
vn -0.7574953 0.4084876 0.509253
vn -0.8514246 0.3359552 0.4027533
vn -0.8937711 0.4140281 0.1724939
vn -0.8880858 0.3982521 0.2295624
vn -0.658443 0.6791952 0.3242633
vn -0.2288885 0.8333802 0.5030781
vn -0.658443 0.6791952 0.3242633
vn -0.540889 0.7422621 0.3955831
vn -0.6141545 0.5106314 0.6017223
vn 0.5429109 0.5100721 0.6671388
vn 0.769998 0.633707 0.07428671
vn 0.7484353 0.612801 -0.2536133
vn 0.8152947 0.561615 -0.1410076
vn 0.7803472 0.5226122 -0.3434163
vn 0.7803472 0.5226122 -0.3434163
vn 0.8932647 0.4451163 0.06284782
vn 0.2051254 0.5987895 0.7741929
vn 0.1380917 0.711826 0.6886469
vn 0.2849133 0.8544396 0.4344624
vn 0.1685127 0.2836089 0.9440178
vn 0.1707814 0.3997951 0.9005539
vn 0.283882 0.4753392 0.8327446
vn 0.01205328 0.3134196 0.9495384
vn 0.0670777 0.9090832 0.411179
vn -0.561379 0.8116024 0.1617255
vn -0.561379 0.8116024 0.1617255
vn -0.4822221 0.733449 0.4790765
vn -0.7654378 0.6035593 0.2232062
vn 0.006097833 0.3692934 0.9292929
vn 0.1519586 0.4175405 0.8958619
vn -0.1463926 0.5995157 0.7868609
vn 0.7087458 0.4612756 0.5337642
vn 0.7409561 0.4594905 0.4897474
vn 0.7982391 0.4587863 0.3902943
vn 0.7979138 0.4519709 0.3988178
vn 0.233922 0.4278443 0.8730577
vn 0.5695788 0.4781937 0.6685139
vn 0.7087458 0.4612756 0.5337642
vn 0.01205328 0.3134196 0.9495384
vn 0.1519586 0.4175405 0.8958619
vn -0.293166 0.274693 0.9157497
vn -0.0212313 0.4027565 -0.9150609
vn -0.0212313 0.4027565 -0.9150609
vn -0.3129897 0.3948682 -0.8637804
vn -0.8641775 0.4362881 0.2506988
vn -0.6681293 0.432743 0.6052577
vn -0.6681293 0.432743 0.6052577
vn -0.6681293 0.432743 0.6052577
vn -0.3069679 0.5537023 0.7740701
vn 0.08157147 0.480764 0.8730475
vn 0.4522384 0.6087825 0.6518161
vn 0.7631883 0.5559127 0.3294006
vn 0.08157147 0.480764 0.8730475
vn 0.3427545 0.528908 -0.7763863
vn -0.0212313 0.4027565 -0.9150609
vn 0.6507232 0.5002576 -0.5712283
vn 0.7599857 0.6354451 -0.1364962
vn 0.6507232 0.5002576 -0.5712283
vn 0.7631883 0.5559127 0.3294006
vn -0.0600069 0.2553802 -0.9649768
vn -0.1384228 0.4285757 -0.8928393
vn -0.3995514 0.2079205 -0.8928201
vn -0.2524453 0.4443705 -0.8595384
vn 0.1476524 0.3902945 -0.9087734
vn 0.1421298 0.2376251 -0.9609024
vn 0.002878002 0.6849129 -0.7286193
vn -0.8830947 0.2300308 0.4089371
vn -0.8197283 0.4299149 0.3784424
vn -0.7066856 0.2618155 0.6573036
vn -0.4336977 0.429459 0.7921309
vn 0.1141978 0.3266858 0.9382085
vn 0.3309185 0.4615968 0.823056
vn 0.7962031 0.4529042 0.4011712
vn 0.821449 0.5537825 0.136186
vn 0.8948233 0.3768484 -0.2393252
vn 0.6454428 0.6413589 -0.414804
vn -0.05790017 0.722903 0.6885193
vn -0.3886205 0.661656 0.6412374
vn 0.5772045 0.8059236 -0.1316129
vn 0.4650154 0.7066982 0.5332338
vn -0.1384228 0.4285757 -0.8928393
vn 0.4749684 0.5170752 -0.7120661
vn 0.2639402 0.7616171 -0.5918403
g GateTowers_Rocks_mesh_0
f 3/3/3 2/2/2 1/1/1
f 6/6/6 5/5/5 4/4/4
f 4/4/4 5/5/5 7/7/7
f 8/8/8 7/7/7 5/5/5
f 9/9/9 5/5/5 6/6/6
f 10/10/10 8/8/8 9/9/9
f 11/11/11 8/8/8 5/5/5
f 13/13/13 10/10/10 12/12/12
f 14/14/14 10/10/10 13/13/13
f 17/17/17 16/16/16 15/15/15
f 15/15/15 16/16/16 18/18/18
f 18/18/18 20/20/20 19/19/19
f 23/23/23 22/22/22 21/21/21
f 26/26/26 25/25/25 24/24/24
f 29/29/29 28/28/28 27/27/27
f 27/27/27 31/31/31 30/30/30
f 34/34/34 33/33/33 32/32/32
f 37/37/37 36/36/36 35/35/35
f 40/40/40 39/39/39 38/38/38
f 42/42/42 41/41/41 40/40/40
f 45/45/45 44/44/44 43/43/43
f 47/47/47 46/46/46 45/45/45
f 50/50/50 49/49/49 48/48/48
f 53/53/53 52/52/52 51/51/51
f 56/56/56 55/55/55 54/54/54
f 57/57/57 56/56/56 54/54/54
f 58/58/58 56/56/56 57/57/57
f 61/61/61 60/60/60 59/59/59
f 64/64/64 63/63/63 62/62/62
f 62/62/62 63/63/63 65/65/65
f 65/65/65 63/63/63 66/66/66
f 67/67/67 66/66/66 63/63/63
f 64/64/64 67/67/67 63/63/63
f 68/68/68 67/67/67 64/64/64
f 71/71/71 70/70/70 69/69/69
f 69/69/69 70/70/70 72/72/72
f 75/75/75 74/74/74 73/73/73
f 77/77/77 76/76/76 75/75/75
f 79/79/79 74/74/74 78/78/78
f 82/82/82 81/81/81 80/80/80
f 85/85/85 84/84/84 83/83/83
f 86/86/86 85/85/85 83/83/83
f 89/89/89 88/88/88 87/87/87
f 91/91/91 88/88/88 90/90/90
f 94/94/94 93/93/93 92/92/92
f 97/97/97 96/96/96 95/95/95
f 97/97/97 98/98/98 96/96/96
f 101/101/101 100/100/100 99/99/99
f 104/104/104 103/103/103 102/102/102
f 107/107/107 106/106/106 105/105/105
f 110/110/110 109/109/109 108/108/108
f 113/113/113 112/112/112 111/111/111
f 116/116/116 115/115/115 114/114/114
f 119/119/119 118/118/118 117/117/117
f 122/122/122 121/121/121 120/120/120
f 125/125/125 124/124/124 123/123/123
f 126/126/126 124/124/124 125/125/125
f 127/127/127 123/123/123 124/124/124
f 128/128/128 123/123/123 127/127/127
f 126/126/126 129/129/129 124/124/124
f 132/132/132 131/131/131 130/130/130
f 133/133/133 131/131/131 132/132/132
f 134/134/134 133/133/133 132/132/132
f 135/135/135 133/133/133 134/134/134
f 134/134/134 136/136/136 135/135/135
f 135/135/135 136/136/136 137/137/137
f 136/136/136 138/138/138 137/137/137
f 137/137/137 138/138/138 139/139/139
f 135/135/135 140/140/140 133/133/133
f 133/133/133 141/141/141 131/131/131
f 142/142/142 137/137/137 139/139/139
f 143/143/143 135/135/135 137/137/137
f 146/146/146 145/145/145 144/144/144
