g GVG_LaserGunCtrlBtmDrum
v 1220.356 65.23508 -158.4026
v 1217.119 65.23508 -157.6432
v 1201.359 62.75124 -231.5216
v 1199.229 62.75123 -222.885
v 1223.861 65.23508 -159.2248
v 1205.487 62.75123 -237.5503
v 1233.84 65.23506 -161.5657
v 1213.606 62.75124 -247.8194
v 1243.398 65.23508 -163.808
v 1222.02 62.75125 -254.9429
v 1251.958 65.23508 -165.8158
v 1230.105 62.75123 -258.9718
v 1262.177 65.23508 -168.2132
v 1240.37 62.75124 -261.1739
v 1271.241 65.23508 -170.3394
v 1250.008 62.75124 -260.8575
v 1285.012 65.23508 -173.5698
v 1265.066 62.75122 -258.6018
v 1291.802 65.23508 -175.1624
v 1273.331 62.75127 -253.9027
v 1294.673 65.23508 -175.8359
v 1277.264 62.75124 -250.0486
v 1297.42 65.23508 -176.4804
v 1282.797 62.75123 -238.8204
v 1201.359 62.75124 -231.5216
v 1199.229 62.75123 -222.885
v 1196.982 41.6565 -234.716
v 1196.035 41.65754 -223.24
v 1205.487 62.75123 -237.5503
v 1201.004 41.65536 -244.8906
v 1211.297 41.65234 -254.8286
v 1213.606 62.75124 -247.8194
v 1219.697 41.65114 -260.1525
v 1222.02 62.75125 -254.9429
v 1227.611 41.65073 -263.6912
v 1230.105 62.75123 -258.9718
v 1237.744 41.65077 -265.8629
v 1240.37 62.75124 -261.1739
v 1247.28 41.65122 -265.5263
v 1250.008 62.75124 -260.8575
v 1262.186 41.6526 -263.2649
v 1265.066 62.75122 -258.6018
v 1270.215 41.65619 -258.5677
v 1273.331 62.75127 -253.9027
v 1277.264 62.75124 -250.0486
v 1273.331 62.75127 -253.9027
v 1273.53 41.68691 -254.6139
v 1270.215 41.65619 -258.5677
vt 0.278098 0.478007
vt 0.271731 0.479501
vt 0.239926 0.333463
vt 0.235741 0.350433
vt 0.284993 0.47639
vt 0.248037 0.321617
vt 0.304622 0.471785
vt 0.263991 0.301439
vt 0.323424 0.467375
vt 0.280523 0.287442
vt 0.340261 0.463425
vt 0.296409 0.279525
vt 0.360363 0.45871
vt 0.31658 0.275198
vt 0.378192 0.454527
vt 0.335516 0.27582
vt 0.40528 0.448173
vt 0.365104 0.280252
vt 0.418636 0.44504
vt 0.381345 0.289486
vt 0.424283 0.443716
vt 0.389073 0.297059
vt 0.429686 0.442448
vt 0.399944 0.319121
vt 0.239926 0.333463
vt 0.235741 0.350433
vt 0.224622 0.32121
vt 0.22278 0.343557
vt 0.248037 0.321617
vt 0.232455 0.301397
vt 0.252497 0.282045
vt 0.263991 0.301439
vt 0.268853 0.271678
vt 0.280523 0.287442
vt 0.284264 0.264787
vt 0.296409 0.279525
vt 0.303995 0.260558
vt 0.31658 0.275198
vt 0.322564 0.261214
vt 0.335516 0.27582
vt 0.35159 0.265617
vt 0.365104 0.280252
vt 0.367224 0.274765
vt 0.381345 0.289486
vt 0.389073 0.297059
vt 0.381345 0.289486
vt 0.373692 0.282472
vt 0.367224 0.274765
vn -0.007506992 0.9994597 -0.03200122
vn -0.04022865 0.9988777 -0.02500143
vn -0.03060615 0.9991826 -0.02640419
vn -0.07290272 0.9971771 -0.01797432
vn -0.01633888 0.9994588 -0.0285512
vn -0.0231948 0.9994112 -0.02528103
vn -0.01384057 0.9995528 -0.02650844
vn -0.01790671 0.9995499 -0.0240693
vn -0.01056829 0.9996246 -0.02527896
vn -0.01239742 0.9996318 -0.0241392
vn -0.007957888 0.9996561 -0.02498433
vn -0.007757416 0.999661 -0.02485316
vn -0.00577392 0.9996623 -0.0253371
vn -0.003495894 0.9996525 -0.02613009
vn -0.00371013 0.9996467 -0.02631994
vn -0.0002189699 0.9996088 -0.02796807
vn -0.002685462 0.9996049 -0.02797937
vn 0.006237639 0.9994863 -0.03143632
vn 0.002388939 0.9995068 -0.03131163
vn 0.01872897 0.9991562 -0.0365517
vn 0.009357531 0.9993435 -0.03500076
vn 0.06254924 0.9967819 -0.0501332
vn 0.07258962 0.9959253 -0.05351261
vn 0.1521201 0.985516 -0.07495047
vn -0.8852906 0.2436887 -0.3960761
vn -0.9687067 0.1916736 -0.1576979
vn -0.9205611 0.2395185 -0.3085416
vn -0.9852552 0.1505645 -0.08125579
vn -0.7796109 0.3056487 -0.546613
vn -0.7808002 0.3467621 -0.5197183
vn -0.641093 0.3267771 -0.694418
vn -0.6342863 0.2868518 -0.7179115
vn -0.5122195 0.2796727 -0.8120433
vn -0.4874847 0.2543006 -0.8352784
vn -0.3453228 0.2489873 -0.9048521
vn -0.2817959 0.2409921 -0.9287162
vn -0.1251272 0.2300702 -0.9650964
vn -0.04604788 0.2218135 -0.9740012
vn 0.07131005 0.2070479 -0.9757285
vn 0.1083143 0.2009919 -0.9735863
vn 0.2688936 0.1731527 -0.947478
vn 0.3851834 0.1469561 -0.911064
vn 0.5944871 0.09073047 -0.79897
vn 0.659994 0.06006853 -0.7488656
vn 0.6995704 0.0307168 -0.7139031
vn 0.659994 0.06006853 -0.7488656
vn 0.7335578 0.02985857 -0.6789709
vn 0.5944871 0.09073047 -0.79897
g GVG_LaserGunCtrlBtmDrum_0
f 3/3/3 2/2/2 1/1/1
f 4/4/4 2/2/2 3/3/3
f 5/5/5 3/3/3 1/1/1
f 6/6/6 3/3/3 5/5/5
f 7/7/7 6/6/6 5/5/5
f 8/8/8 6/6/6 7/7/7
f 9/9/9 8/8/8 7/7/7
f 10/10/10 8/8/8 9/9/9
f 11/11/11 10/10/10 9/9/9
f 12/12/12 10/10/10 11/11/11
f 13/13/13 12/12/12 11/11/11
f 14/14/14 12/12/12 13/13/13
f 15/15/15 14/14/14 13/13/13
f 16/16/16 14/14/14 15/15/15
f 17/17/17 16/16/16 15/15/15
f 18/18/18 16/16/16 17/17/17
f 19/19/19 18/18/18 17/17/17
f 20/20/20 18/18/18 19/19/19
f 21/21/21 20/20/20 19/19/19
f 22/22/22 20/20/20 21/21/21
f 23/23/23 22/22/22 21/21/21
f 24/24/24 22/22/22 23/23/23
f 27/27/27 26/26/26 25/25/25
f 28/28/28 26/26/26 27/27/27
f 29/29/29 27/27/27 25/25/25
f 30/30/30 27/27/27 29/29/29
f 30/30/30 29/29/29 31/31/31
f 31/31/31 29/29/29 32/32/32
f 31/31/31 32/32/32 33/33/33
f 33/33/33 32/32/32 34/34/34
f 33/33/33 34/34/34 35/35/35
f 35/35/35 34/34/34 36/36/36
f 35/35/35 36/36/36 37/37/37
f 37/37/37 36/36/36 38/38/38
f 37/37/37 38/38/38 39/39/39
f 39/39/39 38/38/38 40/40/40
f 39/39/39 40/40/40 41/41/41
f 41/41/41 40/40/40 42/42/42
f 41/41/41 42/42/42 43/43/43
f 43/43/43 42/42/42 44/44/44
f 47/47/47 46/46/46 45/45/45
f 48/48/48 46/46/46 47/47/47
