g GVG_RocketDishLeft_mesh
v 354.1503 206.7694 -1060.387
v 344.8994 213.0879 -1063.233
v 353.8089 199.6759 -1071.99
v 344.526 205.332 -1075.919
v 357.6291 195.7642 -1084.446
v 348.7031 201.055 -1089.539
v 365.0296 195.6296 -1095.859
v 356.7948 200.9077 -1102.018
v 374.8841 199.2927 -1104.492
v 367.5696 204.9129 -1111.457
v 385.6913 206.1956 -1109.031
v 379.3865 212.4606 -1116.42
v 395.807 215.2876 -1108.783
v 390.4469 222.402 -1116.149
v 403.6906 225.1843 -1103.788
v 399.0669 233.2232 -1110.688
v 349.7666 223.1418 -1053.411
v 381.5292 196.59 -1096.235
v 373.3466 193.5484 -1089.067
v 390.5037 202.3222 -1100.004
v 398.9037 209.8722 -1099.799
v 405.4499 218.0902 -1095.651
v 409.1463 225.7257 -1088.192
v 408.142 234.3799 -1094.806
v 387.3505 196.7221 -1086.998
v 381.5002 194.5474 -1081.872
v 367.2011 193.66 -1079.589
v 364.0289 196.9084 -1069.246
v 358.602 215.9645 -1051.404
v 358.3866 233.9633 -1047.95
v 366.4855 225.8613 -1046.41
v 364.313 202.7983 -1059.612
v 368.0088 210.4342 -1052.152
v 374.5551 218.6518 -1048.005
v 374.8387 196.9497 -1067.702
v 375.0416 201.1608 -1060.814
v 377.1067 194.6274 -1075.097
v 377.6843 206.6197 -1055.481
v 382.3652 212.4955 -1052.516
v 385.3628 199.7875 -1067.478
v 385.4685 201.9812 -1063.89
v 386.544 198.578 -1071.329
v 388.8324 198.5361 -1074.859
v 391.88 199.6689 -1077.529
v 395.2223 201.8037 -1078.932
v 393.7668 200.8203 -1089.692
v 399.7722 206.2181 -1089.546
v 404.4526 212.0937 -1086.58
v 407.0954 217.5527 -1081.247
v 398.3502 204.6152 -1078.856
v 400.788 207.6755 -1077.311
v 402.1646 210.519 -1074.533
v 402.27 212.7116 -1070.947
v 407.2982 221.7639 -1074.359
v 401.0887 213.922 -1067.094
v 405.0301 224.0864 -1066.964
v 398.8006 213.9637 -1063.565
v 400.6364 224.1661 -1060.188
v 395.7535 212.8311 -1060.895
v 394.7862 221.9915 -1055.063
v 392.4107 210.696 -1059.491
v 388.3699 217.8933 -1052.368
v 389.2831 207.8853 -1059.568
v 382.9551 226.2025 -1047.799
v 386.8448 204.824 -1061.113
v 389.9254 203.5201 -1066.144
v 389.8704 202.3794 -1068.009
v 394.2649 205.74 -1068.908
v 390.4846 201.7505 -1070.012
v 391.6747 201.7288 -1071.847
v 393.2593 202.3177 -1073.236
v 394.9973 203.4278 -1073.966
v 396.6239 204.8899 -1073.926
v 397.8915 206.4812 -1073.123
v 398.6073 207.9599 -1071.678
v 398.6622 209.0999 -1069.813
v 398.0479 209.7294 -1067.81
v 396.8581 209.7511 -1065.975
v 395.2735 209.162 -1064.586
v 393.5353 208.0519 -1063.856
v 391.909 206.5903 -1063.896
v 390.6411 204.9984 -1064.699
v 403.6906 225.1843 -1103.788
v 399.0669 233.2232 -1110.688
v 408.142 234.3799 -1094.806
v 403.934 243.2773 -1100.866
v 408.4836 241.4729 -1083.203
v 404.3076 251.033 -1088.18
v 404.6633 245.3848 -1070.747
v 400.1303 255.3103 -1074.56
v 409.43 231.616 -1078.557
v 409.1463 225.7257 -1088.192
v 406.2577 234.8645 -1068.214
v 400.1127 234.9762 -1058.737
v 397.2629 245.5192 -1059.334
v 392.0386 255.4574 -1062.081
v 387.4085 241.8563 -1050.701
v 381.2641 251.4522 -1052.642
v 376.6011 234.9529 -1046.162
v 369.4472 243.9046 -1047.68
v 366.4855 225.8613 -1046.41
v 358.3866 233.9633 -1047.95
v 391.9293 231.9349 -1051.568
v 382.9551 226.2025 -1047.799
v 374.5551 218.6518 -1048.005
v 400.6364 224.1661 -1060.188
v 405.0301 224.0864 -1066.964
v 394.7862 221.9915 -1055.063
v 388.3699 217.8933 -1052.368
v 407.2982 221.7639 -1074.359
v 407.0954 217.5527 -1081.247
v 392.0386 255.4574 -1062.081
v 394.5409 257.466 -1059.574
v 381.2641 251.4522 -1052.642
v 403.4622 257.3038 -1073.332
v 382.6619 253.0503 -1049.167
v 369.4472 243.9046 -1047.68
v 369.6338 244.729 -1043.696
v 358.3866 233.9633 -1047.95
v 357.4397 233.7687 -1043.994
v 349.7666 223.1418 -1053.411
v 347.9362 221.8382 -1050.015
v 344.8994 213.0879 -1063.233
v 342.5702 210.7539 -1060.844
v 344.526 205.332 -1075.919
v 342.1584 202.2029 -1074.83
v 348.7031 201.055 -1089.539
v 346.7636 197.4874 -1089.845
v 356.7948 200.9077 -1102.018
v 355.6848 197.3251 -1103.604
v 367.5696 204.9129 -1111.457
v 367.5638 201.7408 -1114.011
v 379.3865 212.4606 -1116.42
v 380.592 210.0621 -1119.482
v 390.4469 222.402 -1116.149
v 392.786 221.0223 -1119.184
v 399.0669 233.2232 -1110.688
v 402.2895 232.9529 -1113.163
v 403.934 243.2773 -1100.866
v 407.6556 244.0373 -1102.334
v 404.3076 251.033 -1088.18
v 408.0674 252.5882 -1088.348
v 400.1303 255.3103 -1074.56
v 394.5409 257.466 -1059.574
v 403.4622 257.3038 -1073.332
v 400.0031 247.075 -1056.701
v 408.2016 246.926 -1069.345
v 408.0674 252.5882 -1088.348
v 412.4337 242.5925 -1083.144
v 389.0864 243.0171 -1047.137
v 382.6619 253.0503 -1049.167
v 377.1138 235.37 -1042.11
v 369.6338 244.729 -1043.696
v 365.9076 225.2977 -1042.383
v 357.4397 233.7687 -1043.994
v 409.9633 235.3019 -1066.546
v 413.4795 231.7015 -1078.011
v 412.0553 234.7344 -1095.997
v 407.6556 244.0373 -1102.334
v 402.2895 232.9529 -1113.163
v 407.1239 224.5479 -1105.948
v 413.165 225.1726 -1088.69
v 384.1346 225.7008 -1043.918
v 394.0819 232.0544 -1048.095
v 403.1517 235.4258 -1056.041
v 411.12 220.7974 -1073.364
v 410.8951 216.1269 -1081.004
v 408.6045 223.3729 -1065.163
v 403.7317 223.4616 -1057.648
v 397.2435 221.0497 -1051.964
v 390.1275 216.5047 -1048.975
v 374.8241 217.3323 -1044.146
v 342.1584 202.2029 -1074.83
v 342.5702 210.7539 -1060.844
v 351.8643 196.2891 -1070.722
v 352.2426 204.1472 -1057.868
v 356.0965 191.9557 -1084.52
v 346.7636 197.4874 -1089.845
v 364.295 191.8065 -1097.164
v 355.6848 197.3251 -1103.604
v 375.2115 195.8645 -1106.728
v 367.5638 201.7408 -1114.011
v 387.1842 203.5116 -1111.756
v 380.592 210.0621 -1119.482
v 398.3903 213.5838 -1111.482
v 392.786 221.0223 -1119.184
v 407.1239 224.5479 -1105.948
v 402.2895 232.9529 -1113.163
v 347.9362 221.8382 -1050.015
v 357.174 214.3337 -1047.917
v 357.4397 233.7687 -1043.994
v 365.9076 225.2977 -1042.383
v 382.554 192.8783 -1097.605
v 373.4843 189.5069 -1089.66
v 392.5014 199.2318 -1101.783
v 401.8118 207.6002 -1101.555
v 409.068 216.7095 -1096.958
v 413.165 225.1726 -1088.69
v 412.0553 234.7344 -1095.997
v 388.9969 193.0245 -1087.381
v 382.5086 190.6127 -1081.697
v 366.6727 189.6308 -1079.155
v 363.1565 193.2311 -1067.69
v 363.4709 199.7599 -1057.011
v 367.5681 208.2232 -1048.743
v 374.8241 217.3323 -1044.146
v 375.1204 193.2769 -1065.981
v 375.3453 197.9473 -1058.342
v 377.6358 190.7013 -1074.182
v 378.2763 204.0017 -1052.427
v 383.4671 210.5182 -1049.138
v 386.7867 196.4225 -1065.733
v 386.9038 198.8563 -1061.752
v 388.0974 195.0803 -1070.007
v 390.6366 195.0341 -1073.923
v 394.0177 196.2909 -1076.885
v 397.726 198.6595 -1078.442
v 396.1129 197.5696 -1090.37
v 402.7733 203.556 -1090.207
v 407.9641 210.0725 -1086.918
v 410.8951 216.1269 -1081.004
v 401.1968 201.7791 -1078.358
v 403.9018 205.1749 -1076.644
v 405.4292 208.3299 -1073.562
v 405.5463 210.7637 -1069.581
v 411.12 220.7974 -1073.364
v 404.2356 212.1059 -1065.307
v 408.6045 223.3729 -1065.163
v 401.6964 212.1521 -1061.391
v 403.7317 223.4616 -1057.648
v 398.3151 210.8951 -1058.428
v 397.2435 221.0497 -1051.964
v 394.607 208.5267 -1056.871
v 390.1275 216.5047 -1048.975
v 391.1362 205.4071 -1056.956
v 384.1346 225.7008 -1043.918
v 388.4312 202.0113 -1058.67
v 397.2101 202.4132 -1066.966
v 399.3195 205.9195 -1077.712
v 402.6862 210.39 -1075.161
v 347.1169 246.0636 -1101.534
v 348.6371 248.0822 -1100.383
v 403.3264 213.8918 -1070.146
v 348.9262 249.6634 -1098.118
v 400.9957 215.0874 -1064.582
v 347.8738 250.2031 -1095.605
v 396.5842 213.5201 -1060.593
v 345.8819 249.4954 -1093.805
v 391.7769 209.7884 -1059.705
v 343.7113 247.8105 -1093.403
v 388.4101 205.3177 -1062.255
v 342.191 245.7919 -1094.555
v 342.191 245.7919 -1094.555
v 347.8738 250.2031 -1095.605
v 345.8819 249.4954 -1093.805
v 341.902 244.2107 -1096.819
v 348.9262 249.6634 -1098.118
v 342.9544 243.6709 -1099.332
v 348.6371 248.0822 -1100.383
v 344.9463 244.3787 -1101.133
v 347.1169 246.0636 -1101.534
v 343.7113 247.8105 -1093.403
v 341.902 244.2107 -1096.819
v 390.1006 200.6202 -1072.835
v 342.9544 243.6709 -1099.332
v 394.5122 202.1878 -1076.823
v 344.9463 244.3787 -1101.133
v 399.3195 205.9195 -1077.712
v 347.1169 246.0636 -1101.534
v 387.7698 201.8158 -1067.27
v 342.191 245.7919 -1094.555
v 388.4101 205.3177 -1062.255
v 348.088 242.6239 -1100.573
v 349.5138 244.5171 -1099.493
v 347.3853 244.1405 -1104.603
v 349.8548 247.4196 -1102.732
v 343.8593 241.4033 -1103.951
v 346.0523 241.0436 -1100.197
v 340.6236 240.2537 -1101.026
v 344.1841 240.3798 -1098.508
v 338.914 241.1307 -1096.944
v 343.1972 240.8862 -1096.151
v 339.3836 243.6991 -1093.266
v 343.4683 242.3691 -1094.028
v 345.2563 246.8119 -1107.317
v 348.1078 250.5982 -1105.157
v 341.1848 243.6513 -1106.564
v 337.4485 242.3238 -1103.186
v 335.4745 243.3364 -1098.473
v 336.0168 246.3023 -1094.226
v 338.7455 247.1852 -1107.335
v 342.2715 249.9223 -1107.987
v 335.5097 246.0355 -1104.41
v 333.8002 246.9124 -1100.329
v 334.2698 249.481 -1096.65
v 335.3267 250.3942 -1104.37
v 337.1949 251.058 -1106.058
v 339.2305 252.6382 -1106.435
v 334.3397 250.9006 -1102.013
v 334.6108 252.3835 -1099.889
v 338.8683 250.0887 -1092.066
v 341.8531 246.9782 -1091.395
v 344.894 244.2621 -1092.948
v 347.1761 242.6685 -1096.307
v 346.9297 245.8425 -1093.324
v 348.7979 246.5063 -1095.013
v 349.7849 246 -1097.37
v 346.9297 245.8425 -1093.324
v 344.894 244.2621 -1092.948
v 345.379 249.7152 -1092.047
v 341.8531 246.9782 -1091.395
v 348.6148 250.8649 -1094.973
v 348.7979 246.5063 -1095.013
v 350.3244 249.9881 -1099.054
v 349.7849 246 -1097.37
v 349.8548 247.4196 -1102.732
v 349.5138 244.5171 -1099.493
v 346.676 254.5765 -1096.196
v 342.9397 253.2491 -1092.819
v 338.8683 250.0887 -1092.066
v 348.6501 253.5641 -1100.909
v 348.1078 250.5982 -1105.157
v 340.2652 255.4971 -1095.431
v 336.7392 252.7601 -1094.78
v 336.0168 246.3023 -1094.226
v 334.2698 249.481 -1096.65
v 343.501 256.6468 -1098.357
v 345.2105 255.7698 -1102.438
v 344.7409 253.2013 -1106.117
v 336.0365 254.2766 -1098.809
v 334.6108 252.3835 -1099.889
v 338.0722 255.8568 -1099.186
v 339.9405 256.5207 -1100.875
v 340.9275 256.0143 -1103.231
v 340.6563 254.5315 -1105.355
v 339.2305 252.6382 -1106.435
v 342.2715 249.9223 -1107.987
v 336.9485 254.2321 -1103.076
v 337.1949 251.058 -1106.058
v 335.3267 250.3942 -1104.37
v 334.3397 250.9006 -1102.013
v 345.2563 246.8119 -1107.317
vt 0.482855 0.354974
vt 0.460833 0.346077
vt 0.48514 0.334153
vt 0.463412 0.323284
vt 0.49471 0.310158
vt 0.473942 0.297008
vt 0.510118 0.286546
vt 0.490829 0.271131
vt 0.529092 0.266798
vt 0.511593 0.249459
vt 0.548834 0.253861
vt 0.533181 0.235217
vt 0.566402 0.249726
vt 0.552381 0.230598
vt 0.579114 0.25512
vt 0.566262 0.236424
vt 0.466667 0.36195
vt 0.543967 0.285291
vt 0.528207 0.301649
vt 0.560371 0.274612
vt 0.574963 0.271256
vt 0.585517 0.275799
vt 0.590375 0.287628
vt 0.584961 0.269335
vt 0.555997 0.304398
vt 0.544713 0.31608
vt 0.515424 0.321238
vt 0.507517 0.341155
vt 0.488264 0.369481
vt 0.480139 0.368411
vt 0.500636 0.375402
vt 0.505683 0.358432
vt 0.510238 0.370461
vt 0.520559 0.375366
vt 0.529938 0.34434
vt 0.528668 0.35669
vt 0.535571 0.330092
vt 0.531976 0.365271
vt 0.539392 0.368754
vt 0.550671 0.343476
vt 0.550029 0.34991
vt 0.553599 0.336043
vt 0.558368 0.328732
vt 0.564261 0.322644
vt 0.570388 0.318703
vt 0.567739 0.296803
vt 0.578172 0.294459
vt 0.585706 0.297759
vt 0.589167 0.306239
vt 0.575821 0.317511
vt 0.579735 0.319257
vt 0.581524 0.323688
vt 0.58091 0.33013
vt 0.587997 0.318631
vt 0.577978 0.33761
vt 0.582349 0.33304
vt 0.573176 0.34497
vt 0.573089 0.347236
vt 0.567243 0.351084
vt 0.561651 0.359018
vt 0.561088 0.355015
vt 0.54981 0.366572
vt 0.555659 0.356164
vt 0.535123 0.372323
vt 0.551777 0.354367
vt 0.558702 0.3445
vt 0.559031 0.341154
vt 0.566879 0.337697
vt 0.560554 0.337284
vt 0.563037 0.333476
vt 0.566106 0.330308
vt 0.569295 0.328261
vt 0.57212 0.327647
vt 0.574152 0.328562
vt 0.575078 0.33087
vt 0.574755 0.334218
vt 0.573232 0.338101
vt 0.57074 0.341921
vt 0.56766 0.345096
vt 0.564463 0.347141
vt 0.561639 0.347744
vt 0.559616 0.346815
vt 0.579114 0.25512
vt 0.566262 0.236424
vt 0.584961 0.269335
vt 0.572624 0.251945
vt 0.582959 0.290275
vt 0.570381 0.274879
vt 0.573347 0.314726
vt 0.559801 0.301704
vt 0.588733 0.304987
vt 0.590375 0.287628
vt 0.580798 0.325217
vt 0.567784 0.345169
vt 0.557599 0.338867
vt 0.542504 0.328216
vt 0.538186 0.358903
vt 0.521214 0.350238
vt 0.518162 0.371724
vt 0.499289 0.364341
vt 0.500636 0.375402
vt 0.480139 0.368411
vt 0.55172 0.361726
vt 0.535123 0.372323
vt 0.520559 0.375366
vt 0.573089 0.347236
vt 0.582349 0.33304
vt 0.561651 0.359018
vt 0.54981 0.366572
vt 0.587997 0.318631
vt 0.589167 0.306239
vt 0.542504 0.328216
vt 0.547023 0.332582
vt 0.521214 0.350238
vt 0.56611 0.303326
vt 0.523525 0.356871
vt 0.499289 0.364341
vt 0.499336 0.3724
vt 0.480139 0.368411
vt 0.478225 0.376847
vt 0.466667 0.36195
vt 0.463391 0.369683
vt 0.460833 0.346077
vt 0.456982 0.352164
vt 0.463412 0.323284
vt 0.459836 0.327046
vt 0.473942 0.297008
vt 0.471433 0.298114
vt 0.490829 0.271131
vt 0.490023 0.26963
vt 0.511593 0.249459
vt 0.512881 0.245768
vt 0.533181 0.235217
vt 0.536661 0.230068
vt 0.552381 0.230598
vt 0.557834 0.224954
vt 0.566262 0.236424
vt 0.573165 0.231346
vt 0.572624 0.251945
vt 0.580215 0.24844
vt 0.570381 0.274879
vt 0.57777 0.273727
vt 0.559801 0.301704
vt 0.547023 0.332582
vt 0.56611 0.303326
vt 0.562796 0.343705
vt 0.580254 0.316944
vt 0.57777 0.273727
vt 0.590894 0.289838
vt 0.54127 0.365906
vt 0.523525 0.356871
vt 0.519073 0.380087
vt 0.499336 0.3724
vt 0.499657 0.384124
vt 0.478225 0.376847
vt 0.588453 0.328527
vt 0.597237 0.306097
vt 0.593085 0.266639
vt 0.580215 0.24844
vt 0.573165 0.231346
vt 0.586572 0.250907
vt 0.599031 0.286857
vt 0.537805 0.380713
vt 0.55621 0.36899
vt 0.574024 0.350646
vt 0.59638 0.321185
vt 0.59766 0.307446
vt 0.590129 0.337163
vt 0.579862 0.352903
vt 0.567174 0.365959
vt 0.554039 0.374317
vt 0.521661 0.384053
vt 0.459836 0.327046
vt 0.456982 0.352164
vt 0.482529 0.338383
vt 0.479992 0.361438
vt 0.493118 0.311838
vt 0.471433 0.298114
vt 0.510159 0.285724
vt 0.490023 0.26963
vt 0.531146 0.26388
vt 0.512881 0.245768
vt 0.552999 0.249554
vt 0.536661 0.230068
vt 0.572465 0.244957
vt 0.557834 0.224954
vt 0.586572 0.250907
vt 0.573165 0.231346
vt 0.463391 0.369683
vt 0.485966 0.377526
vt 0.478225 0.376847
vt 0.499657 0.384124
vt 0.547553 0.284282
vt 0.53011 0.302382
vt 0.565721 0.272459
vt 0.581898 0.268734
vt 0.593617 0.273756
vt 0.599031 0.286857
vt 0.593085 0.266639
vt 0.560847 0.305395
vt 0.548348 0.318327
vt 0.515967 0.324058
vt 0.507217 0.346102
vt 0.505184 0.365242
vt 0.510229 0.378586
vt 0.521661 0.384053
vt 0.531992 0.349622
vt 0.53059 0.363311
vt 0.538226 0.333841
vt 0.534259 0.372834
vt 0.542482 0.376717
vt 0.554944 0.348673
vt 0.554237 0.355808
vt 0.558185 0.340434
vt 0.563469 0.332334
vt 0.57 0.325592
vt 0.576794 0.321229
vt 0.57386 0.296986
vt 0.585434 0.29439
vt 0.593802 0.298046
vt 0.59766 0.307446
vt 0.582825 0.319911
vt 0.587173 0.32185
vt 0.589167 0.326765
vt 0.588494 0.333913
vt 0.59638 0.321185
vt 0.585248 0.342206
vt 0.590129 0.337163
vt 0.579924 0.350367
vt 0.579862 0.352903
vt 0.573342 0.357142
vt 0.567174 0.365959
vt 0.566515 0.361491
vt 0.554039 0.374317
vt 0.560489 0.362756
vt 0.537805 0.380713
vt 0.55618 0.360756
vt 0.57429 0.343308
vt 0.400278 0.200952
vt 0.405599 0.204123
vt 0.273939 0.130766
vt 0.276268 0.132159
vt 0.405604 0.212927
vt 0.276178 0.136147
vt 0.400273 0.223999
vt 0.273702 0.141206
vt 0.391649 0.233078
vt 0.269785 0.145398
vt 0.383055 0.236678
vt 0.265931 0.147117
vt 0.37778 0.233443
vt 0.263612 0.145712
vt 0.263612 0.145712
vt 0.273702 0.141206
vt 0.269785 0.145398
vt 0.26371 0.141724
vt 0.276178 0.136147
vt 0.266182 0.136678
vt 0.276268 0.132159
vt 0.270088 0.132494
vt 0.273939 0.130766
vt 0.265931 0.147117
vt 0.26371 0.141724
vt 0.38313 0.213634
vt 0.266182 0.136678
vt 0.391699 0.204593
vt 0.270088 0.132494
vt 0.400278 0.200952
vt 0.273939 0.130766
vt 0.377817 0.224642
vt 0.263612 0.145712
vt 0.37778 0.233443
vt 0.277525 0.134591
vt 0.279708 0.135898
vt 0.275364 0.125262
vt 0.279147 0.127516
vt 0.269113 0.128072
vt 0.273915 0.136206
vt 0.26278 0.13486
vt 0.270257 0.140123
vt 0.258767 0.143045
vt 0.267943 0.144849
vt 0.258603 0.149518
vt 0.267854 0.148585
vt 0.269658 0.118105
vt 0.274023 0.120698
vt 0.262441 0.121362
vt 0.255125 0.129212
vt 0.250484 0.13867
vt 0.250283 0.146147
vt 0.255671 0.117868
vt 0.261922 0.115039
vt 0.249328 0.12468
vt 0.2453 0.132882
vt 0.24512 0.13936
vt 0.246947 0.122479
vt 0.250615 0.118539
vt 0.254224 0.116904
vt 0.244617 0.127222
vt 0.244512 0.130964
vt 0.254614 0.148788
vt 0.262361 0.151807
vt 0.270029 0.149904
vt 0.275574 0.143604
vt 0.273641 0.148296
vt 0.277309 0.144372
vt 0.279627 0.139634
vt 0.273641 0.148296
vt 0.270029 0.149904
vt 0.268618 0.149019
vt 0.262361 0.151807
vt 0.274982 0.142209
vt 0.277309 0.144372
vt 0.279005 0.133989
vt 0.279627 0.139634
vt 0.279147 0.127516
vt 0.279708 0.135898
vt 0.269196 0.137681
vt 0.26184 0.14556
vt 0.254614 0.148788
vt 0.273852 0.128176
vt 0.274023 0.120698
vt 0.255125 0.138832
vt 0.248868 0.141639
vt 0.250283 0.146147
vt 0.24512 0.13936
vt 0.261498 0.131999
vt 0.265538 0.123761
vt 0.265695 0.117283
vt 0.246677 0.132273
vt 0.244512 0.130964
vt 0.250288 0.130645
vt 0.253966 0.126699
vt 0.2563 0.121943
vt 0.256398 0.118202
vt 0.254224 0.116904
vt 0.261922 0.115039
vt 0.248639 0.123213
vt 0.250615 0.118539
vt 0.246947 0.122479
vt 0.244617 0.127222
vt 0.269658 0.118105
vn 0.4513221 0.642947 -0.6188114
vn 0.582247 0.6107969 -0.5365777
vn 0.4614259 0.8287511 -0.3166349
vn 0.5719505 0.7930465 -0.2096421
vn 0.3628831 0.9317973 0.008342627
vn 0.4486077 0.8839247 0.1320162
vn 0.1706923 0.9364003 0.3066248
vn 0.2309916 0.8695998 0.4363934
vn -0.08588498 0.8418521 0.5328309
vn -0.04775882 0.7522405 0.6571554
vn -0.3677847 0.6625491 0.6525052
vn -0.3452165 0.5497293 0.760673
vn -0.6320911 0.4257965 0.6474243
vn -0.6160926 0.2929071 0.7311876
vn -0.8385653 0.1676439 0.5183665
vn -0.8191431 0.02084911 0.5732102
vn 0.4779298 0.3649224 -0.7990085
vn -0.2570947 0.9130087 0.3167292
vn -0.04434136 0.9907707 0.1280906
vn -0.4912284 0.7646669 0.4171082
vn -0.7110936 0.568333 0.4139364
vn -0.8832207 0.3538971 0.3076982
vn -0.9814057 0.1540067 0.1145639
vn -0.9557749 -0.07263023 0.2849898
vn -0.407362 0.9101778 0.07505063
vn -0.2556548 0.9648551 -0.06078854
vn 0.1146399 0.9861203 -0.120102
vn 0.1956481 0.8997612 -0.3900662
vn 0.3341133 0.4026733 -0.8521869
vn 0.2748714 0.09285543 -0.9569867
vn 0.1276425 0.1445046 -0.9812369
vn 0.186355 0.7448474 -0.6406826
vn 0.08817425 0.5449533 -0.8338172
vn -0.08396174 0.3305241 -0.9400555
vn -0.08585259 0.8978286 -0.4318949
vn -0.09360772 0.7863207 -0.6106859
vn -0.142758 0.960515 -0.2388115
vn -0.1648378 0.64299 -0.7479254
vn -0.2886961 0.489635 -0.8227468
vn -0.3603092 0.8231961 -0.4387771
vn -0.3658825 0.7641206 -0.5312717
vn -0.3885094 0.8571585 -0.3381412
vn -0.4462032 0.8608236 -0.2447153
vn -0.5245999 0.8336554 -0.1726663
vn -0.6117696 0.7797762 -0.1329936
vn -0.574781 0.8048075 0.1480261
vn -0.7324148 0.6647938 0.1470295
vn -0.8562776 0.5114427 0.07221349
vn -0.9275085 0.3681008 -0.06503665
vn -0.6944185 0.7074109 -0.1317299
vn -0.7599934 0.6275551 -0.1690697
vn -0.7985105 0.5523606 -0.2393301
vn -0.8041071 0.4932872 -0.3317821
vn -0.9352587 0.2566128 -0.2438054
vn -0.7759169 0.4593229 -0.4324066
vn -0.8783535 0.1939108 -0.4369139
vn -0.7182362 0.4556274 -0.5258712
vn -0.7654513 0.189574 -0.6149358
vn -0.6398497 0.4827826 -0.5979243
vn -0.6137505 0.2442465 -0.750769
vn -0.5526752 0.5366547 -0.6376144
vn -0.4463297 0.3496172 -0.823746
vn -0.4699787 0.609044 -0.6388938
vn -0.3038158 0.1341885 -0.9432334
vn -0.4043899 0.6889322 -0.6015323
vn -0.539286 0.7139046 -0.4466664
vn -0.5367081 0.7324101 -0.4189511
vn -0.6067773 0.6859992 -0.40153
vn -0.5444498 0.7434946 -0.388317
vn -0.561334 0.7454249 -0.3595079
vn -0.584788 0.7379246 -0.3368831
vn -0.6112481 0.7221376 -0.323872
vn -0.636678 0.7004753 -0.3224524
vn -0.6572114 0.6762264 -0.3328527
vn -0.669736 0.6530727 -0.3534822
vn -0.6723414 0.6345509 -0.3811853
vn -0.6646305 0.6234649 -0.4117739
vn -0.6477582 0.6215061 -0.4406125
vn -0.6243117 0.628986 -0.4632617
vn -0.5978482 0.6447655 -0.4762929
vn -0.5723759 0.6664547 -0.4777278
vn -0.5518116 0.6907383 -0.4673164
vn -0.8385653 0.1676439 0.5183665
vn -0.8191431 0.02084911 0.5732102
vn -0.9557749 -0.07263023 0.2849898
vn -0.9234543 -0.2250442 0.3107851
vn -0.9658753 -0.2584365 -0.01718292
vn -0.9131547 -0.4072935 -0.01614392
vn -0.8673289 -0.3614856 -0.3421532
vn -0.789804 -0.49818 -0.3578078
vn -0.9907005 -0.0009076897 -0.1360579
vn -0.9814057 0.1540067 0.1145639
vn -0.9096898 -0.08726675 -0.4060161
vn -0.7507073 -0.09191547 -0.6542094
vn -0.6751363 -0.3660886 -0.6404452
vn -0.5721852 -0.4838534 -0.6621857
vn -0.418552 -0.2715493 -0.8666459
vn -0.2934365 -0.3664983 -0.8829349
vn -0.1366574 -0.0922448 -0.9863142
vn 0.004011614 -0.1639871 -0.9864543
vn 0.1276425 0.1445046 -0.9812369
vn 0.2748714 0.09285543 -0.9569867
vn -0.5379544 -0.01415453 -0.8428551
vn -0.3038158 0.1341885 -0.9432334
vn -0.08396174 0.3305241 -0.9400555
vn -0.7654513 0.189574 -0.6149358
vn -0.8783535 0.1939108 -0.4369139
vn -0.6137505 0.2442465 -0.750769
vn -0.4463297 0.3496172 -0.823746
vn -0.9352587 0.2566128 -0.2438054
vn -0.9275085 0.3681008 -0.06503665
vn -0.4398099 0.8621044 -0.251681
vn -0.4639671 0.8571624 -0.2236229
vn -0.5170424 0.8374327 -0.1771262
vn -0.3999452 0.8613817 -0.3131539
vn -0.5459635 0.822643 -0.1586896
vn -0.6041728 0.7854633 -0.134248
vn -0.6334619 0.7630731 -0.1282394
vn -0.6879465 0.7141016 -0.1295706
vn -0.7131432 0.6875198 -0.1369059
vn -0.7556047 0.6342146 -0.1638085
vn -0.7728745 0.6074872 -0.1833695
vn -0.7968549 0.5579556 -0.2317495
vn -0.8035619 0.5351571 -0.2605671
vn -0.8053948 0.4969598 -0.3230638
vn -0.8005207 0.4815608 -0.3567435
vn -0.7799477 0.4604872 -0.4238316
vn -0.7642452 0.4548159 -0.4572437
vn -0.7243832 0.4540923 -0.5187185
vn -0.700227 0.4590355 -0.54678
vn -0.6471489 0.4787677 -0.5932789
vn -0.6182296 0.4935631 -0.6117088
vn -0.5600266 0.5307426 -0.6361465
vn -0.5307428 0.5531319 -0.6421505
vn -0.4762617 0.6020965 -0.6408234
vn -0.4510577 0.6286743 -0.6334948
vn -0.4085896 0.6819791 -0.6065962
vn -0.3913083 0.7087068 -0.587037
vn -0.3673235 0.7582383 -0.538654
vn -0.3606171 0.7810383 -0.5098376
vn -0.3587894 0.8192412 -0.4473412
vn -0.3636667 0.8346438 -0.4136618
vn -0.3842399 0.8557165 -0.3465676
vn 0.572192 0.4838426 0.6621878
vn 0.7898079 0.4981699 0.357813
vn 0.6751326 0.3660903 0.6404482
vn 0.8673273 0.3614867 0.3421558
vn 0.9131557 0.4072911 0.01614354
vn 0.9658743 0.2584406 0.01718279
vn 0.4185597 0.2715465 0.866643
vn 0.293439 0.3664982 0.8829342
vn 0.1366632 0.09224839 0.986313
vn -0.004017248 0.1639895 0.986454
vn -0.127645 -0.1445068 0.9812362
vn -0.2748861 -0.09285159 0.9569828
vn 0.9096896 0.08726299 0.4060174
vn 0.9907004 0.0009081226 0.1360589
vn 0.9557741 0.07263532 -0.2849914
vn 0.9234552 0.2250412 -0.3107843
vn 0.8191431 -0.02083837 -0.5732106
vn 0.8385655 -0.1676376 -0.5183682
vn 0.9814053 -0.1540073 -0.1145656
vn 0.3038228 -0.1341838 0.9432319
vn 0.537954 0.01415527 0.8428553
vn 0.7507061 0.0919155 0.6542109
vn 0.93526 -0.2566028 0.2438108
vn 0.9275088 -0.3681005 0.0650351
vn 0.8783511 -0.1939064 0.4369206
vn 0.7654528 -0.1895739 0.614934
vn 0.6137512 -0.2442511 0.7507669
vn 0.4463339 -0.3496169 0.8237439
vn 0.0839516 -0.3305198 0.9400579
vn -0.5719486 -0.7930473 0.2096443
vn -0.5822545 -0.6107939 0.5365729
vn -0.4614316 -0.8287508 0.3166277
vn -0.4513286 -0.6429467 0.6188069
vn -0.3628809 -0.9317983 -0.008339705
vn -0.4485973 -0.8839309 -0.1320104
vn -0.1706892 -0.9363999 -0.3066278
vn -0.2309794 -0.8696066 -0.4363863
vn 0.08588556 -0.8418556 -0.5328254
vn 0.04776772 -0.7522559 -0.6571373
vn 0.3677834 -0.6625601 -0.6524947
vn 0.3452204 -0.5497426 -0.7606615
vn 0.6320914 -0.4258032 -0.6474196
vn 0.6160948 -0.2929052 -0.7311865
vn 0.8385655 -0.1676376 -0.5183682
vn 0.8191431 -0.02083837 -0.5732106
vn -0.4779316 -0.3649224 0.7990076
vn -0.3341143 -0.4026724 0.852187
vn -0.2748861 -0.09285159 0.9569828
vn -0.127645 -0.1445068 0.9812362
vn 0.2570923 -0.9130073 -0.3167353
vn 0.04434107 -0.9907708 -0.1280901
vn 0.4912226 -0.7646688 -0.4171114
vn 0.7110921 -0.5683324 -0.4139399
vn 0.8832209 -0.3538967 -0.3076982
vn 0.9814053 -0.1540073 -0.1145656
vn 0.9557741 0.07263532 -0.2849914
vn 0.407361 -0.9101781 -0.0750524
vn 0.2556558 -0.9648553 0.06078171
vn -0.1146407 -0.9861201 0.1201025
vn -0.1956509 -0.8997627 0.3900611
vn -0.1863548 -0.7448427 0.6406881
vn -0.08817138 -0.5449529 0.8338178
vn 0.0839516 -0.3305198 0.9400579
vn 0.08585089 -0.8978259 0.4319009
vn 0.09360275 -0.7863212 0.6106861
vn 0.1427562 -0.9605189 0.2387975
vn 0.1648263 -0.6429887 0.747929
vn 0.2886932 -0.4896361 0.8227471
vn 0.3325756 -0.8306547 0.4465494
vn 0.3407677 -0.7644973 0.5471939
vn 0.361592 -0.869671 0.336041
vn 0.4234031 -0.8755965 0.2325097
vn 0.5085998 -0.8475312 0.1517137
vn 0.6042106 -0.7897493 0.1059505
vn 0.5747732 -0.8048133 -0.148025
vn 0.7324155 -0.6647928 -0.1470308
vn 0.8562804 -0.5114381 -0.07221499
vn 0.9275088 -0.3681005 0.0650351
vn 0.6956775 -0.711049 0.1021874
vn 0.769078 -0.6234094 0.1409954
vn 0.8132376 -0.540171 0.2164711
vn 0.8214319 -0.4740148 0.3171114
vn 0.93526 -0.2566028 0.2438108
vn 0.7924104 -0.4350041 0.4276181
vn 0.8783511 -0.1939064 0.4369206
vn 0.7305934 -0.4290749 0.5311573
vn 0.7654528 -0.1895739 0.614934
vn 0.6454075 -0.4571408 0.6119406
vn 0.6137512 -0.2442511 0.7507669
vn 0.5497938 -0.5149243 0.6577079
vn 0.4463339 -0.3496169 0.8237439
vn 0.4583243 -0.5936273 0.6614721
vn 0.3038228 -0.1341838 0.9432319
vn 0.3849232 -0.6812685 0.6226615
vn 0.6067762 -0.6859981 0.4015337
vn 0.2583488 -0.2219814 -0.9402022
vn 0.5638016 0.2913551 -0.772813
vn 0.3851327 -0.04614085 -0.921707
vn 0.6164934 0.4532109 -0.6438447
vn 0.6309718 0.7030234 -0.328074
vn 0.5938143 0.7919587 -0.1420776
vn 0.4447382 0.867982 0.2209416
vn 0.3327197 0.8549331 0.3979785
vn 0.07221275 0.7295882 0.6800636
vn -0.07664889 0.6158515 0.7841249
vn -0.3547142 0.3276894 0.8756698
vn -0.4835895 0.1525634 0.8618965
vn -0.6681765 -0.1886851 0.7196792
vn -0.7240595 -0.354804 0.591483
vn -0.6067571 0.6860116 -0.4015395
vn -0.606752 0.6860097 -0.4015504
vn -0.6067609 0.6860127 -0.4015317
vn -0.606755 0.6860116 -0.4015428
vn -0.6067597 0.6860136 -0.4015321
vn -0.6067603 0.68601 -0.4015374
vn -0.6067624 0.6860079 -0.4015379
vn -0.6067617 0.6860041 -0.4015453
vn -0.6067639 0.6860052 -0.4015399
vn -0.6067733 0.6860191 -0.4015022
vn -0.7044976 -0.7049333 0.08217265
vn -0.5518403 -0.7822509 -0.2890602
vn -0.4364679 -0.7672346 -0.4699436
vn -0.1704167 -0.6345611 -0.7538502
vn -0.01943431 -0.5161912 -0.8562528
vn 0.2583488 -0.2219814 -0.9402022
vn 0.3851327 -0.04614085 -0.921707
vn -0.7418576 -0.6126823 0.2725211
vn -0.7240595 -0.354804 0.591483
vn -0.6681765 -0.1886851 0.7196792
vn 0.6816426 -0.7137817 -0.1608699
vn 0.8819765 -0.469087 -0.04554934
vn 0.6230434 -0.5221837 -0.5823582
vn 0.9203376 -0.1335422 -0.3676212
vn 0.2041941 -0.8430388 -0.4975844
vn 0.415302 -0.9055974 -0.08612503
vn -0.1762067 -0.9735108 -0.1456984
vn 0.1846968 -0.9712569 0.1501572
vn -0.3728563 -0.8637874 0.3388946
vn 0.07792063 -0.8856825 0.457706
vn -0.3106517 -0.5557887 0.7710995
vn 0.1357428 -0.6815703 0.7190521
vn 0.378975 -0.1943659 -0.9047651
vn 0.7172981 0.2548502 -0.6484866
vn -0.1041164 -0.5693786 -0.8154556
vn -0.5474325 -0.7269016 -0.4146463
vn -0.7816398 -0.6067566 0.1445184
vn -0.7173045 -0.2548561 0.6484771
vn -0.3842031 -0.1414322 -0.9123513
vn 0.03222194 0.186075 -0.9820071
vn -0.7703282 -0.2833171 -0.5712495
vn -0.9786378 -0.1853153 -0.08902985
vn -0.9295921 0.115122 0.3501506
vn -0.7788023 0.1823866 -0.6001683
vn -0.5282909 0.2876539 -0.7988517
vn -0.2703625 0.502808 -0.8210288
vn -0.926205 0.227193 -0.3008783
vn -0.9141992 0.4049765 -0.01528957
vn -0.3789725 0.1943937 0.9047602
vn -0.01332871 -0.1671337 0.9858441
vn 0.3360687 -0.4368696 0.8343877
vn 0.606756 -0.6860126 0.4015395
vn 0.6024057 -0.245042 0.7596458
vn 0.8330203 -0.179385 0.5233528
vn 0.9397996 -0.2649714 0.2157934
vn 0.6024057 -0.245042 0.7596458
vn 0.3360687 -0.4368696 0.8343877
vn 0.4054909 0.1537112 0.9010828
vn -0.01332871 -0.1671337 0.9858441
vn 0.785878 0.284202 0.5492041
vn 0.8330203 -0.179385 0.5233528
vn 0.9825416 0.1744685 0.06459735
vn 0.9397996 -0.2649714 0.2157934
vn 0.9203376 -0.1335422 -0.3676212
vn 0.8819765 -0.469087 -0.04554934
vn 0.5474283 0.7268889 0.4146745
vn 0.1041242 0.5693828 0.8154516
vn -0.3789725 0.1943937 0.9047602
vn 0.781635 0.6067677 -0.1444978
vn 0.7172981 0.2548502 -0.6484866
vn -0.2254997 0.8307834 0.5088702
vn -0.641919 0.5032467 0.5785176
vn -0.7173045 -0.2548561 0.6484771
vn -0.9295921 0.115122 0.3501506
vn 0.1606442 0.9726465 0.1677863
vn 0.3689516 0.8746409 -0.3144486
vn 0.3198958 0.5741994 -0.7536324
vn -0.7473639 0.6478326 0.1475131
vn -0.9141992 0.4049765 -0.01528957
vn -0.4894462 0.8629783 0.1253431
vn -0.238934 0.9682633 -0.07332632
vn -0.09150334 0.9234538 -0.3726394
vn -0.1035183 0.7456756 -0.6582186
vn -0.2703625 0.502808 -0.8210288
vn 0.03222194 0.186075 -0.9820071
vn -0.606762 0.6860065 -0.4015407
vn -0.5282909 0.2876539 -0.7988517
vn -0.7788023 0.1823866 -0.6001683
vn -0.926205 0.227193 -0.3008783
vn 0.378975 -0.1943659 -0.9047651
g GVG_RocketDishLeft_mesh_0
f 3/3/3 2/2/2 1/1/1
f 4/4/4 2/2/2 3/3/3
f 5/5/5 4/4/4 3/3/3
f 6/6/6 4/4/4 5/5/5
f 7/7/7 6/6/6 5/5/5
f 8/8/8 6/6/6 7/7/7
f 9/9/9 8/8/8 7/7/7
f 10/10/10 8/8/8 9/9/9
f 11/11/11 10/10/10 9/9/9
f 12/12/12 10/10/10 11/11/11
f 13/13/13 12/12/12 11/11/11
f 14/14/14 12/12/12 13/13/13
f 15/15/15 14/14/14 13/13/13
f 16/16/16 14/14/14 15/15/15
f 2/2/2 17/17/17 1/1/1
f 9/9/9 7/7/7 18/18/18
f 18/18/18 7/7/7 19/19/19
f 7/7/7 5/5/5 19/19/19
f 20/20/20 9/9/9 18/18/18
f 11/11/11 9/9/9 20/20/20
f 21/21/21 11/11/11 20/20/20
f 13/13/13 11/11/11 21/21/21
f 22/22/22 13/13/13 21/21/21
f 15/15/15 13/13/13 22/22/22
f 23/23/23 15/15/15 22/22/22
f 24/24/24 15/15/15 23/23/23
f 18/18/18 19/19/19 25/25/25
f 25/25/25 19/19/19 26/26/26
f 19/19/19 27/27/27 26/26/26
f 19/19/19 5/5/5 27/27/27
f 5/5/5 3/3/3 27/27/27
f 27/27/27 3/3/3 28/28/28
f 3/3/3 1/1/1 28/28/28
f 1/1/1 17/17/17 29/29/29
f 17/17/17 30/30/30 29/29/29
f 29/29/29 30/30/30 31/31/31
f 28/28/28 1/1/1 32/32/32
f 1/1/1 29/29/29 32/32/32
f 32/32/32 29/29/29 33/33/33
f 29/29/29 31/31/31 33/33/33
f 33/33/33 31/31/31 34/34/34
f 28/28/28 32/32/32 35/35/35
f 35/35/35 32/32/32 36/36/36
f 32/32/32 33/33/33 36/36/36
f 37/37/37 28/28/28 35/35/35
f 27/27/27 28/28/28 37/37/37
f 26/26/26 27/27/27 37/37/37
f 36/36/36 33/33/33 38/38/38
f 33/33/33 34/34/34 38/38/38
f 38/38/38 34/34/34 39/39/39
f 35/35/35 36/36/36 40/40/40
f 40/40/40 36/36/36 41/41/41
f 36/36/36 38/38/38 41/41/41
f 42/42/42 35/35/35 40/40/40
f 37/37/37 35/35/35 42/42/42
f 43/43/43 37/37/37 42/42/42
f 26/26/26 37/37/37 43/43/43
f 44/44/44 26/26/26 43/43/43
f 25/25/25 26/26/26 44/44/44
f 45/45/45 25/25/25 44/44/44
f 46/46/46 25/25/25 45/45/45
f 46/46/46 18/18/18 25/25/25
f 20/20/20 18/18/18 46/46/46
f 47/47/47 20/20/20 46/46/46
f 21/21/21 20/20/20 47/47/47
f 48/48/48 21/21/21 47/47/47
f 22/22/22 21/21/21 48/48/48
f 49/49/49 22/22/22 48/48/48
f 23/23/23 22/22/22 49/49/49
f 50/50/50 46/46/46 45/45/45
f 47/47/47 46/46/46 50/50/50
f 51/51/51 47/47/47 50/50/50
f 48/48/48 47/47/47 51/51/51
f 52/52/52 48/48/48 51/51/51
f 49/49/49 48/48/48 52/52/52
f 53/53/53 49/49/49 52/52/52
f 54/54/54 49/49/49 53/53/53
f 55/55/55 54/54/54 53/53/53
f 56/56/56 54/54/54 55/55/55
f 57/57/57 56/56/56 55/55/55
f 58/58/58 56/56/56 57/57/57
f 59/59/59 58/58/58 57/57/57
f 60/60/60 58/58/58 59/59/59
f 61/61/61 60/60/60 59/59/59
f 62/62/62 60/60/60 61/61/61
f 63/63/63 62/62/62 61/61/61
f 39/39/39 62/62/62 63/63/63
f 39/39/39 64/64/64 62/62/62
f 34/34/34 64/64/64 39/39/39
f 65/65/65 39/39/39 63/63/63
f 38/38/38 39/39/39 65/65/65
f 41/41/41 38/38/38 65/65/65
f 41/41/41 65/65/65 66/66/66
f 67/67/67 41/41/41 66/66/66
f 68/68/68 67/67/67 66/66/66
f 68/68/68 69/69/69 67/67/67
f 68/68/68 70/70/70 69/69/69
f 68/68/68 71/71/71 70/70/70
f 68/68/68 72/72/72 71/71/71
f 68/68/68 73/73/73 72/72/72
f 68/68/68 74/74/74 73/73/73
f 68/68/68 75/75/75 74/74/74
f 68/68/68 76/76/76 75/75/75
f 68/68/68 77/77/77 76/76/76
f 68/68/68 78/78/78 77/77/77
f 68/68/68 79/79/79 78/78/78
f 68/68/68 80/80/80 79/79/79
f 68/68/68 81/81/81 80/80/80
f 68/68/68 82/82/82 81/81/81
f 68/68/68 66/66/66 82/82/82
f 66/66/66 65/65/65 82/82/82
f 82/82/82 63/63/63 81/81/81
f 65/65/65 63/63/63 82/82/82
f 81/81/81 61/61/61 80/80/80
f 63/63/63 61/61/61 81/81/81
f 80/80/80 59/59/59 79/79/79
f 61/61/61 59/59/59 80/80/80
f 79/79/79 57/57/57 78/78/78
f 59/59/59 57/57/57 79/79/79
f 78/78/78 55/55/55 77/77/77
f 57/57/57 55/55/55 78/78/78
f 77/77/77 53/53/53 76/76/76
f 55/55/55 53/53/53 77/77/77
f 76/76/76 52/52/52 75/75/75
f 53/53/53 52/52/52 76/76/76
f 52/52/52 51/51/51 75/75/75
f 75/75/75 51/51/51 74/74/74
f 51/51/51 50/50/50 74/74/74
f 74/74/74 50/50/50 73/73/73
f 50/50/50 45/45/45 73/73/73
f 73/73/73 45/45/45 72/72/72
f 45/45/45 44/44/44 72/72/72
f 72/72/72 44/44/44 71/71/71
f 44/44/44 43/43/43 71/71/71
f 71/71/71 43/43/43 70/70/70
f 43/43/43 42/42/42 70/70/70
f 70/70/70 42/42/42 69/69/69
f 42/42/42 40/40/40 69/69/69
f 69/69/69 40/40/40 67/67/67
f 40/40/40 41/41/41 67/67/67
f 85/85/85 84/84/84 83/83/83
f 86/86/86 84/84/84 85/85/85
f 87/87/87 86/86/86 85/85/85
f 88/88/88 86/86/86 87/87/87
f 89/89/89 88/88/88 87/87/87
f 90/90/90 88/88/88 89/89/89
f 87/87/87 85/85/85 91/91/91
f 91/91/91 85/85/85 92/92/92
f 93/93/93 87/87/87 91/91/91
f 89/89/89 87/87/87 93/93/93
f 94/94/94 89/89/89 93/93/93
f 95/95/95 89/89/89 94/94/94
f 95/95/95 90/90/90 89/89/89
f 96/96/96 90/90/90 95/95/95
f 97/97/97 96/96/96 95/95/95
f 98/98/98 96/96/96 97/97/97
f 99/99/99 98/98/98 97/97/97
f 100/100/100 98/98/98 99/99/99
f 101/101/101 100/100/100 99/99/99
f 102/102/102 100/100/100 101/101/101
f 103/103/103 95/95/95 94/94/94
f 97/97/97 95/95/95 103/103/103
f 104/104/104 97/97/97 103/103/103
f 99/99/99 97/97/97 104/104/104
f 105/105/105 99/99/99 104/104/104
f 101/101/101 99/99/99 105/105/105
f 94/94/94 93/93/93 106/106/106
f 106/106/106 93/93/93 107/107/107
f 108/108/108 94/94/94 106/106/106
f 103/103/103 94/94/94 108/108/108
f 109/109/109 103/103/103 108/108/108
f 104/104/104 103/103/103 109/109/109
f 107/107/107 91/91/91 110/110/110
f 91/91/91 92/92/92 110/110/110
f 110/110/110 92/92/92 111/111/111
f 93/93/93 91/91/91 107/107/107
f 114/114/114 113/113/113 112/112/112
f 113/113/113 115/115/115 112/112/112
f 116/116/116 113/113/113 114/114/114
f 117/117/117 116/116/116 114/114/114
f 118/118/118 116/116/116 117/117/117
f 119/119/119 118/118/118 117/117/117
f 120/120/120 118/118/118 119/119/119
f 121/121/121 120/120/120 119/119/119
f 122/122/122 120/120/120 121/121/121
f 123/123/123 122/122/122 121/121/121
f 124/124/124 122/122/122 123/123/123
f 125/125/125 124/124/124 123/123/123
f 126/126/126 124/124/124 125/125/125
f 127/127/127 126/126/126 125/125/125
f 128/128/128 126/126/126 127/127/127
f 129/129/129 128/128/128 127/127/127
f 130/130/130 128/128/128 129/129/129
f 131/131/131 130/130/130 129/129/129
f 132/132/132 130/130/130 131/131/131
f 133/133/133 132/132/132 131/131/131
f 134/134/134 132/132/132 133/133/133
f 135/135/135 134/134/134 133/133/133
f 136/136/136 134/134/134 135/135/135
f 137/137/137 136/136/136 135/135/135
f 138/138/138 136/136/136 137/137/137
f 139/139/139 138/138/138 137/137/137
f 140/140/140 138/138/138 139/139/139
f 141/141/141 140/140/140 139/139/139
f 142/142/142 140/140/140 141/141/141
f 143/143/143 142/142/142 141/141/141
f 115/115/115 142/142/142 143/143/143
f 112/112/112 115/115/115 143/143/143
f 146/146/146 145/145/145 144/144/144
f 147/147/147 145/145/145 146/146/146
f 147/147/147 148/148/148 145/145/145
f 149/149/149 148/148/148 147/147/147
f 146/146/146 144/144/144 150/150/150
f 150/150/150 144/144/144 151/151/151
f 150/150/150 151/151/151 152/152/152
f 152/152/152 151/151/151 153/153/153
f 152/152/152 153/153/153 154/154/154
f 154/154/154 153/153/153 155/155/155
f 156/156/156 149/149/149 147/147/147
f 157/157/157 149/149/149 156/156/156
f 157/157/157 158/158/158 149/149/149
f 158/158/158 159/159/159 149/149/149
f 149/149/149 159/159/159 148/148/148
f 158/158/158 160/160/160 159/159/159
f 161/161/161 160/160/160 158/158/158
f 162/162/162 158/158/158 157/157/157
f 163/163/163 150/150/150 152/152/152
f 164/164/164 150/150/150 163/163/163
f 164/164/164 146/146/146 150/150/150
f 165/165/165 146/146/146 164/164/164
f 165/165/165 147/147/147 146/146/146
f 156/156/156 147/147/147 165/165/165
f 166/166/166 162/162/162 157/157/157
f 167/167/167 162/162/162 166/166/166
f 168/168/168 157/157/157 156/156/156
f 166/166/166 157/157/157 168/168/168
f 169/169/169 156/156/156 165/165/165
f 168/168/168 156/156/156 169/169/169
f 170/170/170 165/165/165 164/164/164
f 169/169/169 165/165/165 170/170/170
f 171/171/171 164/164/164 163/163/163
f 170/170/170 164/164/164 171/171/171
f 163/163/163 152/152/152 172/172/172
f 172/172/172 152/152/152 154/154/154
f 175/175/175 174/174/174 173/173/173
f 176/176/176 174/174/174 175/175/175
f 175/175/175 173/173/173 177/177/177
f 177/177/177 173/173/173 178/178/178
f 177/177/177 178/178/178 179/179/179
f 179/179/179 178/178/178 180/180/180
f 179/179/179 180/180/180 181/181/181
f 181/181/181 180/180/180 182/182/182
f 181/181/181 182/182/182 183/183/183
f 183/183/183 182/182/182 184/184/184
f 183/183/183 184/184/184 185/185/185
f 185/185/185 184/184/184 186/186/186
f 185/185/185 186/186/186 187/187/187
f 187/187/187 186/186/186 188/188/188
f 176/176/176 189/189/189 174/174/174
f 190/190/190 189/189/189 176/176/176
f 190/190/190 191/191/191 189/189/189
f 192/192/192 191/191/191 190/190/190
f 193/193/193 179/179/179 181/181/181
f 194/194/194 179/179/179 193/193/193
f 195/195/195 181/181/181 183/183/183
f 193/193/193 181/181/181 195/195/195
f 196/196/196 183/183/183 185/185/185
f 195/195/195 183/183/183 196/196/196
f 197/197/197 185/185/185 187/187/187
f 196/196/196 185/185/185 197/197/197
f 197/197/197 187/187/187 198/198/198
f 198/198/198 187/187/187 199/199/199
f 200/200/200 194/194/194 193/193/193
f 201/201/201 194/194/194 200/200/200
f 201/201/201 202/202/202 194/194/194
f 202/202/202 177/177/177 194/194/194
f 202/202/202 175/175/175 177/177/177
f 203/203/203 175/175/175 202/202/202
f 203/203/203 176/176/176 175/175/175
f 204/204/204 176/176/176 203/203/203
f 194/194/194 177/177/177 179/179/179
f 204/204/204 190/190/190 176/176/176
f 205/205/205 190/190/190 204/204/204
f 205/205/205 192/192/192 190/190/190
f 206/206/206 192/192/192 205/205/205
f 207/207/207 204/204/204 203/203/203
f 208/208/208 204/204/204 207/207/207
f 208/208/208 205/205/205 204/204/204
f 209/209/209 203/203/203 202/202/202
f 207/207/207 203/203/203 209/209/209
f 209/209/209 202/202/202 201/201/201
f 210/210/210 205/205/205 208/208/208
f 210/210/210 206/206/206 205/205/205
f 211/211/211 206/206/206 210/210/210
f 212/212/212 208/208/208 207/207/207
f 213/213/213 208/208/208 212/212/212
f 213/213/213 210/210/210 208/208/208
f 214/214/214 207/207/207 209/209/209
f 212/212/212 207/207/207 214/214/214
f 214/214/214 209/209/209 215/215/215
f 215/215/215 209/209/209 201/201/201
f 215/215/215 201/201/201 216/216/216
f 216/216/216 201/201/201 200/200/200
f 216/216/216 200/200/200 217/217/217
f 217/217/217 200/200/200 218/218/218
f 200/200/200 193/193/193 218/218/218
f 218/218/218 193/193/193 195/195/195
f 218/218/218 195/195/195 219/219/219
f 219/219/219 195/195/195 196/196/196
f 219/219/219 196/196/196 220/220/220
f 220/220/220 196/196/196 197/197/197
f 220/220/220 197/197/197 221/221/221
f 221/221/221 197/197/197 198/198/198
f 222/222/222 218/218/218 219/219/219
f 217/217/217 218/218/218 222/222/222
f 223/223/223 219/219/219 220/220/220
f 222/222/222 219/219/219 223/223/223
f 224/224/224 220/220/220 221/221/221
f 223/223/223 220/220/220 224/224/224
f 224/224/224 221/221/221 225/225/225
f 225/225/225 221/221/221 226/226/226
f 225/225/225 226/226/226 227/227/227
f 227/227/227 226/226/226 228/228/228
f 227/227/227 228/228/228 229/229/229
f 229/229/229 228/228/228 230/230/230
f 229/229/229 230/230/230 231/231/231
f 231/231/231 230/230/230 232/232/232
f 231/231/231 232/232/232 233/233/233
f 233/233/233 232/232/232 234/234/234
f 233/233/233 234/234/234 235/235/235
f 235/235/235 234/234/234 211/211/211
f 234/234/234 236/236/236 211/211/211
f 211/211/211 236/236/236 206/206/206
f 235/235/235 211/211/211 237/237/237
f 237/237/237 211/211/211 210/210/210
f 237/237/237 210/210/210 213/213/213
f 238/238/238 227/227/227 229/229/229
f 238/238/238 229/229/229 231/231/231
f 238/238/238 231/231/231 233/233/233
f 238/238/238 233/233/233 235/235/235
f 238/238/238 235/235/235 237/237/237
f 238/238/238 237/237/237 213/213/213
f 238/238/238 213/213/213 212/212/212
f 238/238/238 212/212/212 214/214/214
f 238/238/238 214/214/214 215/215/215
f 238/238/238 215/215/215 216/216/216
f 238/238/238 216/216/216 217/217/217
f 238/238/238 217/217/217 222/222/222
f 238/238/238 222/222/222 223/223/223
f 238/238/238 223/223/223 224/224/224
f 238/238/238 224/224/224 225/225/225
f 238/238/238 225/225/225 227/227/227
f 241/241/241 240/240/240 239/239/239
f 242/242/242 240/240/240 241/241/241
f 242/242/242 243/243/243 240/240/240
f 244/244/244 243/243/243 242/242/242
f 244/244/244 245/245/245 243/243/243
f 246/246/246 245/245/245 244/244/244
f 246/246/246 247/247/247 245/245/245
f 248/248/248 247/247/247 246/246/246
f 248/248/248 249/249/249 247/247/247
f 250/250/250 249/249/249 248/248/248
f 250/250/250 251/251/251 249/249/249
f 252/252/252 251/251/251 250/250/250
f 255/255/255 254/254/254 253/253/253
f 253/253/253 254/254/254 256/256/256
f 254/254/254 257/257/257 256/256/256
f 256/256/256 257/257/257 258/258/258
f 257/257/257 259/259/259 258/258/258
f 258/258/258 259/259/259 260/260/260
f 261/261/261 260/260/260 259/259/259
f 262/262/262 255/255/255 253/253/253
f 265/265/265 264/264/264 263/263/263
f 265/265/265 266/266/266 264/264/264
f 267/267/267 266/266/266 265/265/265
f 267/267/267 268/268/268 266/266/266
f 269/269/269 268/268/268 267/267/267
f 263/263/263 264/264/264 270/270/270
f 263/263/263 270/270/270 271/271/271
f 271/271/271 270/270/270 272/272/272
f 275/275/275 274/274/274 273/273/273
f 276/276/276 274/274/274 275/275/275
f 275/275/275 273/273/273 277/277/277
f 277/277/277 273/273/273 278/278/278
f 277/277/277 278/278/278 279/279/279
f 279/279/279 278/278/278 280/280/280
f 279/279/279 280/280/280 281/281/281
f 281/281/281 280/280/280 282/282/282
f 281/281/281 282/282/282 283/283/283
f 283/283/283 282/282/282 284/284/284
f 285/285/285 276/276/276 275/275/275
f 286/286/286 276/276/276 285/285/285
f 287/287/287 275/275/275 277/277/277
f 285/285/285 275/275/275 287/287/287
f 288/288/288 277/277/277 279/279/279
f 287/287/287 277/277/277 288/288/288
f 289/289/289 279/279/279 281/281/281
f 288/288/288 279/279/279 289/289/289
f 290/290/290 281/281/281 283/283/283
f 289/289/289 281/281/281 290/290/290
f 291/291/291 285/285/285 287/287/287
f 292/292/292 285/285/285 291/291/291
f 293/293/293 287/287/287 288/288/288
f 291/291/291 287/287/287 293/293/293
f 294/294/294 288/288/288 289/289/289
f 293/293/293 288/288/288 294/294/294
f 295/295/295 289/289/289 290/290/290
f 294/294/294 289/289/289 295/295/295
f 296/296/296 291/291/291 293/293/293
f 297/297/297 291/291/291 296/296/296
f 297/297/297 292/292/292 291/291/291
f 298/298/298 292/292/292 297/297/297
f 299/299/299 293/293/293 294/294/294
f 296/296/296 293/293/293 299/299/299
f 300/300/300 294/294/294 295/295/295
f 299/299/299 294/294/294 300/300/300
f 290/290/290 283/283/283 301/301/301
f 301/301/301 283/283/283 302/302/302
f 283/283/283 284/284/284 302/302/302
f 302/302/302 284/284/284 303/303/303
f 304/304/304 303/303/303 284/284/284
f 304/304/304 284/284/284 282/282/282
f 304/304/304 282/282/282 280/280/280
f 304/304/304 280/280/280 278/278/278
f 304/304/304 278/278/278 273/273/273
f 304/304/304 273/273/273 274/274/274
f 304/304/304 305/305/305 303/303/303
f 304/304/304 306/306/306 305/305/305
f 304/304/304 307/307/307 306/306/306
f 304/304/304 274/274/274 307/307/307
f 310/310/310 309/309/309 308/308/308
f 311/311/311 309/309/309 310/310/310
f 310/310/310 308/308/308 312/312/312
f 312/312/312 308/308/308 313/313/313
f 312/312/312 313/313/313 314/314/314
f 314/314/314 313/313/313 315/315/315
f 314/314/314 315/315/315 316/316/316
f 316/316/316 315/315/315 317/317/317
f 318/318/318 310/310/310 312/312/312
f 319/319/319 310/310/310 318/318/318
f 319/319/319 311/311/311 310/310/310
f 320/320/320 311/311/311 319/319/319
f 321/321/321 312/312/312 314/314/314
f 318/318/318 312/312/312 321/321/321
f 322/322/322 314/314/314 316/316/316
f 321/321/321 314/314/314 322/322/322
f 323/323/323 320/320/320 319/319/319
f 324/324/324 320/320/320 323/323/323
f 324/324/324 325/325/325 320/320/320
f 326/326/326 325/325/325 324/324/324
f 327/327/327 319/319/319 318/318/318
f 323/323/323 319/319/319 327/327/327
f 328/328/328 318/318/318 321/321/321
f 327/327/327 318/318/318 328/328/328
f 329/329/329 321/321/321 322/322/322
f 328/328/328 321/321/321 329/329/329
f 330/330/330 326/326/326 324/324/324
f 331/331/331 326/326/326 330/330/330
f 332/332/332 324/324/324 323/323/323
f 330/330/330 324/324/324 332/332/332
f 333/333/333 323/323/323 327/327/327
f 332/332/332 323/323/323 333/333/333
f 334/334/334 327/327/327 328/328/328
f 333/333/333 327/327/327 334/334/334
f 335/335/335 328/328/328 329/329/329
f 334/334/334 328/328/328 335/335/335
f 335/335/335 329/329/329 336/336/336
f 336/336/336 329/329/329 337/337/337
f 329/329/329 322/322/322 337/337/337
f 338/338/338 331/331/331 330/330/330
f 338/338/338 330/330/330 332/332/332
f 338/338/338 332/332/332 333/333/333
f 338/338/338 333/333/333 334/334/334
f 338/338/338 334/334/334 335/335/335
f 338/338/338 335/335/335 336/336/336
f 338/338/338 336/336/336 339/339/339
f 338/338/338 339/339/339 340/340/340
f 338/338/338 340/340/340 341/341/341
f 338/338/338 341/341/341 331/331/331
f 337/337/337 322/322/322 342/342/342
