g GVG_Stove_Door
v 247.3436 209.0083 -271.8576
v 220.5576 209.1103 -267.2677
v 253.6038 161.2335 -281.9109
v 229.6522 144.7744 -281.3935
v 233.4149 118.1571 -287.2377
v 255.8895 118.1819 -292.337
v 257.1562 157.4818 -282.2347
v 274.7756 118.1989 -289.4096
v 269.1089 155.1054 -280.9633
v 278.371 118.2003 -288.0563
v 271.7224 157.5919 -279.983
v 284.5716 147.4177 -277.5492
v 263.5818 205.4525 -270.0444
v 277.1414 206.4273 -263.7514
v 279.4337 209.4721 -261.9157
v 259.9259 209.2567 -269.7477
v 287.2156 118.2037 -284.7272
v 287.4695 144.7045 -276.9781
v 291.5844 118.2055 -283.0828
v 307.8264 118.2054 -274.9617
v 301.815 147.4203 -270.2166
v 322.0854 118.2009 -261.9302
v 316.4985 148.7101 -256.0835
v 335.778 118.1856 -246.9157
v 328.6679 146.9186 -243.7535
v 338.5273 141.4519 -227.7287
v 341.8215 118.1478 -232.8455
v 330.3473 149.4979 -241.0477
v 333.9388 197.7795 -214.8534
v 327.5838 199.1697 -222.2503
v 323.1681 201.473 -230.2326
v 314.1482 151.8837 -257.4493
v 303.1253 152.226 -268.521
v 295.173 208.3542 -255.4347
v 309.3997 201.8934 -244.5519
v 293.305 210.3615 -255.814
v 311.1888 204.7002 -241.6696
v 292.2857 224.5456 -250.5607
v 306.8174 224.5368 -237.2803
v 304.4224 226.9176 -235.0824
v 317.756 226.9045 -220.4615
v 320.1915 224.5207 -222.6096
v 324.7785 226.8723 -204.5011
v 327.2637 224.4739 -206.4533
v 290.5028 226.9223 -247.8034
v 276.9729 224.5552 -258.2495
v 274.6865 226.9239 -255.7117
v 258.8005 224.5361 -265.1092
v 258.2398 226.9173 -261.9023
v 247.0739 224.5305 -266.9422
v 246.5709 226.9081 -263.711
v 240.7429 224.5202 -267.9092
v 240.0775 226.9019 -264.7174
v 217.9197 224.5032 -262.8318
v 218.7483 226.8899 -259.9885
v 316.0262 226.9375 -201.5078
v 309.1192 226.9572 -213.4972
v 282.7947 226.9709 -238.5186
v 294.7841 226.967 -227.4414
v 271.1963 226.9707 -244.341
v 256.0792 226.9658 -249.8144
v 244.3505 226.9576 -254.4175
v 239.5287 226.9554 -254.4175
v 221.1423 226.9404 -255.7892
v 250.0605 211.4424 -270.8502
v 319.2635 200.6012 -229.2224
v 311.4466 198.8559 -227.1999
v 326.4166 148.716 -240.0276
v 318.5476 147.1505 -237.9855
v 316.8701 144.7082 -240.6726
v 324.7379 146.1823 -242.7272
v 314.5796 147.8135 -253.0038
v 310.7383 146.0184 -246.8386
v 308.3954 149.3289 -248.1821
v 312.2318 151.0327 -254.3622
v 307.5089 200.9527 -241.475
v 303.7238 199.0694 -235.3154
v 323.1681 201.473 -230.2326
v 330.3473 149.4979 -241.0477
v 328.6679 146.9186 -243.7535
v 316.4985 148.7101 -256.0835
v 314.1482 151.8837 -257.4493
v 309.3997 201.8934 -244.5519
v 320.7081 204.4192 -231.775
v 332.0758 205.2299 -212.509
v 331.1706 201.0733 -214.9442
v 311.1888 204.7002 -241.6696
v 316.8078 203.5447 -230.7677
v 320.7081 204.4192 -231.775
v 309.2955 203.7621 -238.5885
v 305.5052 201.884 -232.4204
v 308.9997 201.7941 -228.7512
v 311.4466 198.8559 -227.1999
v 319.2635 200.6012 -229.2224
v 307.5089 200.9527 -241.475
v 303.7238 199.0694 -235.3154
v 323.1681 201.473 -230.2326
v 309.3997 201.8934 -244.5519
v 294.524 207.9146 -252.8585
v 292.3216 206.4233 -244.1171
v 302.3643 151.1619 -266.0008
v 299.7824 147.5516 -257.4492
v 292.4149 210.0877 -253.2728
v 289.3948 209.1587 -244.6507
v 276.3831 209.1587 -250.4656
v 278.7394 209.4008 -259.3093
v 276.4597 206.4273 -261.135
v 274.1469 206.4273 -252.2573
v 293.305 210.3615 -255.814
v 295.173 208.3542 -255.4347
v 303.1253 152.226 -268.521
v 277.1414 206.4273 -263.7514
v 279.4337 209.4721 -261.9157
v 250.0605 211.4424 -270.8502
v 259.9156 209.2567 -268.1913
v 259.9259 209.2567 -269.7477
v 263.5668 205.4571 -268.5115
v 263.4909 205.4804 -260.791
v 271.6466 157.5873 -278.8313
v 271.2652 157.564 -273.0307
v 259.8639 209.2567 -260.3529
v 249.9986 211.4424 -261.4553
v 250.0503 211.4424 -269.2939
v 247.3333 209.0083 -270.3012
v 247.2817 209.0083 -262.4627
v 263.5818 205.4525 -270.0444
v 271.7224 157.5919 -279.983
v 247.3436 209.0083 -271.8576
v 283.89 147.4177 -274.9328
v 281.5772 147.4177 -266.055
v 276.4597 206.4273 -261.135
v 274.1469 206.4273 -252.2573
v 286.7879 144.7045 -274.3616
v 284.4752 144.7045 -265.4839
v 297.5752 144.7979 -259.2785
v 287.4695 144.7045 -276.9781
v 301.815 147.4203 -270.2166
v 300.8499 146.8233 -267.7268
v 297.5752 144.7979 -259.2785
v 284.5716 147.4177 -277.5492
v 277.1414 206.4273 -263.7514
v 300.8499 146.8233 -267.7268
v 302.3643 151.1619 -266.0008
v 297.5752 144.7979 -259.2785
v 303.1253 152.226 -268.521
v 297.5752 144.7979 -259.2785
v 302.3643 151.1619 -266.0008
v 299.7824 147.5516 -257.4492
v 301.815 147.4203 -270.2166
v 303.1253 152.226 -268.521
v 300.8499 146.8233 -267.7268
v 253.5935 161.2335 -280.3546
v 253.5419 161.2336 -272.516
v 247.3333 209.0083 -270.3012
v 247.2817 209.0083 -262.4627
v 257.148 157.479 -280.7526
v 257.1065 157.4644 -273.2882
v 268.6106 155.1227 -273.7042
v 269.0264 155.1083 -279.7608
v 271.6466 157.5873 -278.8313
v 271.2652 157.564 -273.0307
v 271.7224 157.5919 -279.983
v 269.1089 155.1054 -280.9633
v 257.1562 157.4818 -282.2347
v 253.6038 161.2335 -281.9109
v 247.3436 209.0083 -271.8576
v 252.4085 231.8165 -258.2685
v 253.0885 231.8313 -256.9341
v 251.7272 265.2686 -253.3438
v 252.6046 265.2686 -251.6219
v 250.3607 265.2686 -254.7103
v 251.3495 231.8114 -259.3275
v 248.6388 265.2686 -255.5876
v 250.0151 231.8314 -260.0074
v 246.7301 265.2686 -255.8899
v 248.5358 231.8074 -260.2416
v 244.8214 265.2686 -255.5876
v 247.0566 231.8313 -260.0074
v 244.6631 231.818 -258.2685
v 241.733 265.2686 -253.3438
v 252.6046 265.2686 -247.8045
v 253.0885 231.8378 -253.9756
v 250.3607 265.2686 -244.7162
v 251.3495 231.8502 -251.5822
v 248.9792 271.3118 -255.3074
v 250.6743 271.3009 -254.4083
v 252.0032 271.2743 -253.0256
v 245.1737 271.2832 -255.3585
v 247.0838 271.3056 -255.6348
v 242.0404 271.1995 -253.1593
v 250.4313 271.031 -244.4287
v 252.7432 271.1312 -247.4826
v 252.836 271.2343 -251.2945
v 252.4081 275.2958 -252.971
v 253.387 274.3355 -251.8238
v 247.7121 277.8056 -253.3399
v 249.4252 277.12 -253.7678
v 251.0659 276.2462 -253.6309
v 253.9086 273.4583 -250.3008
v 260.7995 279.4747 -247.6943
v 261.0065 277.557 -247.7093
v 260.8802 275.6935 -247.2148
v 260.2798 281.2588 -247.1713
v 259.498 282.7346 -246.1915
v 244.7552 278.3589 -250.9971
v 257.4728 284.2279 -243.2804
v 256.4276 284.0992 -241.634
v 243.8008 278.1722 -249.3117
v 241.1239 271.1464 -251.4518
v 243.3333 277.691 -247.4938
v 240.7762 271.0926 -249.5499
v 243.3983 276.9621 -245.7214
v 241.0311 271.0433 -247.6398
v 255.4974 283.3843 -240.0728
v 254.7734 282.153 -238.7498
v 254.3264 280.5259 -237.7941
v 243.964 276.0674 -244.1791
v 244.9453 275.106 -243.0309
v 243.964 276.0674 -244.1791
v 254.2001 278.6624 -237.2997
v 257.4728 284.2279 -243.2804
v 259.498 282.7346 -246.1915
v 256.5937 287.8085 -244.6429
v 259.0226 285.6964 -248.7305
v 254.8164 287.6813 -241.6216
v 256.4276 284.0992 -241.634
v 254.1281 286.5515 -238.8353
v 255.4974 283.3843 -240.0728
v 253.0192 284.6149 -236.7714
v 254.7734 282.153 -238.7498
v 252.3438 282.059 -235.2815
v 254.3264 280.5259 -237.7941
v 252.3691 278.3485 -234.689
v 254.2001 278.6624 -237.2997
v 255.8624 269.9733 -238.7688
v 256.6758 272.4617 -240.1583
v 259.2815 269.0386 -243.9975
v 258.7612 272.1272 -243.3828
v 261.7664 271.7906 -248.2988
v 260.4332 274.0663 -246.2593
v 263.4788 274.5017 -252.1476
v 260.8802 275.6935 -247.2148
v 263.6647 277.4289 -252.9263
v 261.0065 277.557 -247.7093
v 263.3278 280.4464 -252.906
v 260.7995 279.4747 -247.6943
v 262.5003 283.2533 -252.0862
v 260.2798 281.2588 -247.1713
v 259.0226 285.6964 -248.7305
v 275.8993 287.654 -240.4801
v 256.5937 287.8085 -244.6429
v 262.5003 283.2533 -252.0862
v 279.8154 285.2205 -244.68
v 263.3278 280.4464 -252.906
v 280.5108 282.3693 -245.6881
v 263.6647 277.4289 -252.9263
v 280.7447 279.2282 -245.8587
v 272.2365 289.7065 -234.1256
v 270.4862 289.5487 -231.2383
v 254.8164 287.6813 -241.6216
v 269.0132 288.3645 -228.7086
v 254.1281 286.5515 -238.8353
v 267.8854 286.4273 -226.7022
v 253.0192 284.6149 -236.7714
v 267.1234 283.7954 -225.2387
v 252.3438 282.059 -235.2815
v 289.0891 283.0705 -239.9646
v 289.3696 280.0414 -240.1881
v 295.2216 283.5753 -232.7036
v 295.5124 281.1478 -232.9532
v 289.0891 276.8187 -239.3731
v 295.2635 278.3178 -232.1832
v 294.167 282.6964 -226.5163
v 294.3318 281.4296 -226.6914
v 295.2635 278.3178 -232.1832
v 293.7064 283.8475 -225.9552
v 294.5464 285.6947 -231.7909
v 294.5464 285.6947 -231.7909
v 288.3495 285.778 -238.9258
v 294.1626 280.0557 -226.3621
v 280.4746 276.1001 -245.1145
v 285.0487 288.1059 -234.62
v 292.4717 287.5377 -228.0335
v 294.5464 285.6947 -231.7909
v 281.7391 290.3374 -229.0771
v 290.0862 289.6285 -224.2934
v 288.5501 290.1182 -221.4471
v 279.9595 290.4909 -225.9855
v 291.2811 286.2792 -222.4485
v 292.9872 284.7977 -225.0971
v 290.4874 286.7558 -220.8184
v 278.4005 289.2365 -223.3526
v 287.1345 288.9781 -219.1051
v 288.5501 290.1182 -221.4471
v 286.2577 287.4799 -217.2083
v 277.3103 287.3679 -221.2448
v 285.6837 285.4718 -215.8452
v 276.5829 284.8427 -219.7175
v 289.1731 285.2162 -218.3821
v 289.6726 286.0301 -219.5351
v 288.5501 290.1182 -221.4471
v 290.4874 286.7558 -220.8184
v 288.8457 284.144 -217.5764
v 289.1731 285.2162 -218.3821
v 288.7253 282.8734 -217.2094
v 285.7654 282.136 -215.3674
v 252.3691 278.3485 -234.689
v 266.9636 279.8911 -224.5107
v 255.8624 269.9733 -238.7688
v 252.3438 282.059 -235.2815
v 267.1234 283.7954 -225.2387
v 270.1207 271.1573 -229.0888
v 259.2815 269.0386 -243.9975
v 273.4478 270.4341 -234.5484
v 261.7664 271.7906 -248.2988
v 276.9245 273.2626 -241.033
v 263.4788 274.5017 -252.1476
v 280.4746 276.1001 -245.1145
v 280.7447 279.2282 -245.8587
v 263.6647 277.4289 -252.9263
v 276.5314 280.9185 -219.0578
v 276.5829 284.8427 -219.7175
v 285.7654 282.136 -215.3674
v 285.6837 285.4718 -215.8452
v 283.3244 271.7168 -229.2531
v 286.2838 274.1482 -235.0024
v 291.8574 274.6635 -224.1563
v 288.9641 275.5493 -219.3475
v 279.9551 272.5775 -223.6936
v 285.7654 282.136 -215.3674
v 293.757 276.2565 -228.1591
v 295.2635 278.3178 -232.1832
v 289.0891 276.8187 -239.3731
v 293.848 279.29 -225.4665
v 292.526 278.345 -222.8613
v 288.9641 275.5493 -219.3475
v 290.8289 278.6166 -219.9752
v 251.1197 272.2217 -243.6736
v 254.2001 278.6624 -237.2997
v 256.6758 272.4617 -240.1583
v 244.9453 275.106 -243.0309
v 254.2001 278.6624 -237.2997
v 251.1197 272.2217 -243.6736
v 250.4313 271.031 -244.4287
v 244.9453 275.106 -243.0309
v 251.1197 272.2217 -243.6736
v 243.1929 270.9767 -244.526
v 244.9453 275.106 -243.0309
v 250.4313 271.031 -244.4287
v 241.8639 271.0034 -245.9088
v 241.733 265.2686 -246.0827
v 240.8556 265.2686 -247.8045
v 243.9832 231.8314 -253.9756
v 243.7489 231.8323 -255.4548
v 240.5533 265.2686 -249.7132
v 243.9832 231.8249 -256.9341
v 240.8556 265.2686 -251.6219
v 244.6631 231.818 -258.2685
v 241.733 265.2686 -253.3438
v 244.6631 231.8314 -252.6412
v 243.0995 265.2686 -244.7162
v 245.7222 231.8513 -251.5822
v 251.3495 231.8502 -251.5822
v 250.3607 265.2686 -244.7162
v 241.1239 271.1464 -251.4518
v 242.0404 271.1995 -253.1593
v 240.7762 271.0926 -249.5499
v 241.0311 271.0433 -247.6398
v 243.964 276.0674 -244.1791
v 243.3983 276.9621 -245.7214
v 250.4313 271.031 -244.4287
v 254.2001 278.6624 -237.2997
v 254.3264 280.5259 -237.7941
v 306.6017 231.7009 -223.9888
v 305.3498 265.9654 -218.2808
v 306.2464 231.701 -227.5284
v 304.8994 265.9654 -222.7674
v 303.665 265.9654 -224.6875
v 305.2726 231.701 -229.0433
v 301.8979 265.9654 -226.1323
v 303.8784 231.701 -230.1831
v 299.7706 265.9654 -226.9603
v 302.2001 231.7009 -230.8364
v 297.4917 265.9654 -227.0903
v 300.4022 231.701 -230.939
v 295.284 265.9654 -226.5098
v 298.6605 231.701 -230.481
v 305.9485 231.7009 -222.3106
v 304.5218 265.9654 -216.1536
v 298.9093 276.5336 -226.2581
v 300.7825 277.3466 -225.9847
v 298.0862 281.4067 -226.6616
v 296.524 280.4018 -226.9252
v 302.3011 278.0045 -224.8756
v 299.5599 282.1743 -225.3528
v 298.0862 281.4067 -226.6616
v 300.7045 282.7405 -223.2926
v 303.3346 278.3766 -223.2274
v 301.9012 284.4279 -220.3411
v 304.2726 279.3128 -220.9518
v 301.9938 285.1949 -215.5889
v 304.2311 280.0365 -216.1226
v 303.2904 279.7981 -213.8764
v 301.0837 284.9641 -213.4155
v 301.9938 285.1949 -215.5889
v 299.6651 284.3885 -211.6044
v 301.8371 279.1766 -212.0105
v 303.077 265.9654 -214.3863
v 297.8204 283.5263 -210.3365
v 299.9928 278.2126 -210.7055
v 301.9012 284.4279 -220.3411
v 301.9938 285.1949 -215.5889
v 292.9872 284.7977 -225.0971
v 292.9872 284.7977 -225.0971
v 293.7064 283.8475 -225.9552
v 294.167 282.6964 -226.5163
v 294.3318 281.4296 -226.6914
v 299.5599 282.1743 -225.3528
v 294.3318 281.4296 -226.6914
v 298.0862 281.4067 -226.6616
v 293.7064 283.8475 -225.9552
v 292.9872 284.7977 -225.0971
v 294.5464 285.6947 -231.7909
v 292.4717 287.5377 -228.0335
v 292.9872 284.7977 -225.0971
v 301.9938 285.1949 -215.5889
v 291.2811 286.2792 -222.4485
v 301.0837 284.9641 -213.4155
v 291.2811 286.2792 -222.4485
v 301.9938 285.1949 -215.5889
v 290.4874 286.7558 -220.8184
v 299.6651 284.3885 -211.6044
v 290.4874 286.7558 -220.8184
v 289.6726 286.0301 -219.5351
v 290.4874 286.7558 -220.8184
v 297.8204 283.5263 -210.3365
v 289.1731 285.2162 -218.3821
v 295.6812 282.4203 -210.2825
v 289.1731 285.2162 -218.3821
v 288.8457 284.144 -217.5764
v 295.6812 282.4203 -210.2825
v 293.855 281.569 -210.8524
v 290.4874 286.7558 -220.8184
v 288.5501 290.1182 -221.4471
v 298.6605 231.701 -230.481
v 295.284 265.9654 -226.5098
v 296.0057 231.701 -228.1131
v 292.1015 266.2946 -223.3833
v 295.2498 231.701 -224.6369
v 291.158 266.3209 -218.9671
v 299.754 231.701 -219.5872
v 296.6701 265.9654 -212.7017
v 298.9491 265.9654 -212.5716
v 301.552 231.701 -219.4846
v 301.1568 265.9654 -213.1521
v 303.2937 231.701 -219.9425
v 303.077 265.9654 -214.3863
v 304.8087 231.701 -220.9163
v 301.8371 279.1766 -212.0105
v 299.9928 278.2126 -210.7055
v 297.9055 276.9857 -210.2589
v 295.6812 282.4203 -210.2825
v 293.855 281.569 -210.8524
v 296.1224 276.2901 -210.4912
v 296.1224 276.2901 -210.4912
v 304.5218 265.9654 -216.1536
v 305.9485 231.7009 -222.3106
v 297.8204 283.5263 -210.3365
v 295.6812 282.4203 -210.2825
v 291.5215 278.2792 -219.0908
v 292.3803 274.1208 -217.8115
v 288.7253 282.8734 -217.2094
v 288.8457 284.144 -217.5764
v 293.855 281.569 -210.8524
v 297.9055 276.9857 -210.2589
v 296.1224 276.2901 -210.4912
v 293.855 281.569 -210.8524
v 296.1224 276.2901 -210.4912
v 291.5215 278.2792 -219.0908
v 291.5215 278.2792 -219.0908
v 292.3803 274.1208 -217.8115
v 292.6801 278.0594 -222.8
v 293.6436 274.1337 -222.3464
v 295.1974 279.6729 -225.7045
v 296.8353 275.2476 -225.6395
v 296.524 280.4018 -226.9252
v 293.855 281.569 -210.8524
v 288.7253 282.8734 -217.2094
v 290.8289 278.6166 -219.9752
v 296.1224 276.2901 -210.4912
v 292.3803 274.1208 -217.8115
v 291.5215 278.2792 -219.0908
v 292.6801 278.0594 -222.8
v 290.8289 278.6166 -219.9752
v 292.526 278.345 -222.8613
v 295.1974 279.6729 -225.7045
v 288.7253 282.8734 -217.2094
v 290.8289 278.6166 -219.9752
v 285.7654 282.136 -215.3674
v 288.9641 275.5493 -219.3475
v 279.9551 272.5775 -223.6936
v 285.7654 282.136 -215.3674
v 288.9641 275.5493 -219.3475
v 292.526 278.345 -222.8613
v 295.1974 279.6729 -225.7045
v 293.848 279.29 -225.4665
v 296.524 280.4018 -226.9252
v 295.1974 279.6729 -225.7045
v 294.1626 280.0557 -226.3621
v 296.524 280.4018 -226.9252
v 293.757 276.2565 -228.1591
v 294.1626 280.0557 -226.3621
v 295.2635 278.3178 -232.1832
v 250.4313 271.031 -244.4287
v 251.1197 272.2217 -243.6736
v 252.7432 271.1312 -247.4826
v 253.4194 272.283 -246.7481
v 251.1197 272.2217 -243.6736
v 256.6758 272.4617 -240.1583
v 253.4194 272.283 -246.7481
v 253.4194 272.283 -246.7481
v 258.7612 272.1272 -243.3828
v 253.4194 272.283 -246.7481
v 253.9086 273.4583 -250.3008
v 253.9086 273.4583 -250.3008
v 260.4332 274.0663 -246.2593
v 260.8802 275.6935 -247.2148
v 253.387 274.3355 -251.8238
v 252.836 271.2343 -251.2945
v 253.4194 272.283 -246.7481
v 253.9086 273.4583 -250.3008
v 252.7432 271.1312 -247.4826
v 253.4194 272.283 -246.7481
v 252.836 271.2343 -251.2945
v 252.4081 275.2958 -252.971
v 253.387 274.3355 -251.8238
v 261.0065 277.557 -247.7093
v 298.9093 276.5336 -226.2581
v 296.524 280.4018 -226.9252
v 296.8353 275.2476 -225.6395
v 292.3803 274.1208 -217.8115
v 292.1015 266.2946 -223.3833
v 293.6436 274.1337 -222.3464
v 296.8353 275.2476 -225.6395
v 294.3318 281.4296 -226.6914
v 294.1626 280.0557 -226.3621
v 298.0862 281.4067 -226.6616
v 298.0862 281.4067 -226.6616
v 294.1626 280.0557 -226.3621
v 296.524 280.4018 -226.9252
v 293.848 279.29 -225.4665
v 294.1626 280.0557 -226.3621
v 293.757 276.2565 -228.1591
v 308.6385 231.537 -225.9247
v 308.4972 231.537 -223.4907
v 300.8769 231.5369 -225.1494
v 308.02 231.5369 -228.2828
v 306.7021 231.5369 -230.3341
v 304.814 231.5369 -231.8778
v 302.5404 231.5369 -232.7628
v 300.1038 231.537 -232.9025
v 297.7428 231.5369 -232.2833
v 295.6885 231.537 -230.9656
v 294.1298 231.5365 -229.0651
v 294.1019 231.5407 -228.9948
v 305.1173 231.535 -218.6837
v 306.0448 231.537 -219.3097
v 307.6098 231.537 -221.2191
v 310.0617 227.8751 -229.8629
v 310.7684 227.8751 -227.1686
v 308.6385 231.537 -225.9247
v 308.5559 227.8751 -232.2067
v 306.3986 227.8751 -233.9706
v 303.8007 227.8751 -234.9818
v 300.1038 231.537 -232.9025
v 301.0166 227.8751 -235.1415
v 297.7428 231.5369 -232.2833
v 300.1038 231.537 -232.9025
v 298.3189 227.8751 -234.4339
v 295.6885 231.537 -230.9656
v 295.9716 227.8751 -232.9284
v 294.1298 231.5365 -229.0651
v 294.2046 227.8751 -230.7722
v 308.6385 231.537 -225.9247
v 310.6069 227.8751 -224.3875
v 308.4972 231.537 -223.4907
v 310.7684 227.8751 -227.1686
v 309.593 227.8751 -221.7919
v 307.6098 231.537 -221.2191
v 307.8259 227.8751 -219.6357
v 306.0448 231.537 -219.3097
v 305.3777 227.8742 -217.9846
v 305.1173 231.535 -218.6837
v 293.5083 227.8798 -229.0863
v 294.2046 227.8751 -230.7722
v 294.1019 231.5407 -228.9948
v 294.1298 231.5365 -229.0651
v 253.7396 231.6939 -259.1783
v 254.6583 231.6939 -257.3708
v 248.4897 231.6938 -255.368
v 252.3068 231.6938 -260.6127
v 250.5005 231.6938 -261.5337
v 248.4972 231.6938 -261.851
v 246.4931 231.6938 -261.5337
v 244.6844 231.6939 -260.6127
v 243.2482 231.6938 -259.1783
v 242.325 231.6939 -257.3707
v 242.002 231.6935 -255.3523
v 242.0115 231.697 -255.2901
v 254.2457 231.6922 -252.5013
v 254.6494 231.6939 -253.3397
v 254.9732 231.6939 -255.3671
v 256.8616 228.1868 -259.3222
v 255.6559 228.1868 -261.6942
v 253.7758 228.1868 -263.5766
v 251.4053 228.1868 -264.7852
v 248.7764 228.1868 -265.2016
v 246.1465 228.1868 -264.7852
v 243.7729 228.1868 -263.5766
v 241.8882 228.1868 -261.6942
v 242.325 231.6939 -257.3707
v 240.6766 228.1868 -259.3222
v 256.8551 228.1868 -254.0635
v 254.6494 231.6939 -253.3397
v 257.2748 228.1868 -256.6928
v 242.002 231.6935 -255.3523
v 240.6766 228.1868 -259.3222
v 242.325 231.6939 -257.3707
v 240.2569 228.1868 -256.6928
v 242.0115 231.697 -255.2901
v 240.4942 228.1913 -254.9668
v 254.6494 231.6939 -253.3397
v 255.6304 228.186 -251.5229
v 254.2457 231.6922 -252.5013
v 256.8551 228.1868 -254.0635
vt 0.097666 0.769452
vt 0.053816 0.732204
vt 0.14958 0.777065
vt 0.126265 0.743712
vt 0.155049 0.748285
vt 0.192262 0.776645
vt 0.156883 0.783118
vt 0.212301 0.809876
vt 0.172007 0.804259
vt 0.214877 0.81724
vt 0.172564 0.809166
vt 0.191195 0.834808
vt 0.118824 0.799042
vt 0.126437 0.829323
vt 0.124809 0.834899
vt 0.111169 0.792668
vt 0.221213 0.835355
vt 0.195561 0.840671
vt 0.224343 0.844303
vt 0.232855 0.880186
vt 0.202382 0.871694
vt 0.231136 0.919379
vt 0.198776 0.913302
vt 0.225595 0.960275
vt 0.196332 0.949067
vt 0.186988 0.986494
vt 0.211571 0.988027
vt 0.192905 0.954907
vt 0.129164 0.988787
vt 0.131727 0.968345
vt 0.137339 0.95008
vt 0.196141 0.907253
vt 0.198887 0.875122
vt 0.136294 0.869442
vt 0.141632 0.908389
vt 0.133222 0.865513
vt 0.137788 0.914704
vt 0.115034 0.868282
vt 0.1132 0.91017
vt 0.104927 0.908848
vt 0.099263 0.950655
vt 0.107517 0.952067
vt 0.082786 0.983977
vt 0.090815 0.985703
vt 0.106688 0.868681
vt 0.106665 0.832759
vt 0.097986 0.831996
vt 0.093052 0.793702
vt 0.085616 0.796632
vt 0.080027 0.772042
vt 0.072618 0.775077
vt 0.072962 0.760381
vt 0.065386 0.763082
vt 0.033493 0.730038
vt 0.028484 0.734672
vt 0.065879 0.973748
vt 0.076027 0.946049
vt 0.08093 0.868766
vt 0.079217 0.903528
vt 0.074641 0.841814
vt 0.062922 0.809597
vt 0.054352 0.784147
vt 0.047757 0.776261
vt 0.024859 0.744319
vt 0.09828 0.774658
vt 0.130927 0.945269
vt 0.118105 0.93565
vt 0.186521 0.950163
vt 0.173753 0.940677
vt 0.177097 0.934866
vt 0.18992 0.944333
vt 0.191858 0.914488
vt 0.178026 0.916859
vt 0.175266 0.91084
vt 0.189182 0.908449
vt 0.134638 0.909654
vt 0.120656 0.912184
vt 0.137339 0.95008
vt 0.192905 0.954907
vt 0.196332 0.949067
vt 0.198776 0.913302
vt 0.196141 0.907253
vt 0.141632 0.908389
vt 0.134821 0.943558
vt 0.118555 0.987934
vt 0.123676 0.983743
vt 0.137788 0.914704
vt 0.128413 0.938747
vt 0.134821 0.943558
vt 0.130776 0.91597
vt 0.116755 0.9185
vt 0.115601 0.929127
vt 0.118105 0.93565
vt 0.130927 0.945269
vt 0.134638 0.909654
vt 0.120656 0.912184
vt 0.137339 0.95008
vt 0.141632 0.908389
vt 0.131489 0.871967
vt 0.115199 0.880527
vt 0.194463 0.877445
vt 0.179482 0.885314
vt 0.128047 0.867571
vt 0.110499 0.874548
vt 0.102277 0.845551
vt 0.11968 0.837324
vt 0.121274 0.831764
vt 0.103756 0.840048
vt 0.133222 0.865513
vt 0.136294 0.869442
vt 0.198887 0.875122
vt 0.126437 0.829323
vt 0.124809 0.834899
vt 0.09828 0.774658
vt 0.10863 0.794764
vt 0.111169 0.792668
vt 0.116318 0.801093
vt 0.103698 0.811423
vt 0.170641 0.810574
vt 0.160954 0.817665
vt 0.095844 0.805316
vt 0.082939 0.787318
vt 0.095739 0.776755
vt 0.095127 0.771547
vt 0.082342 0.782098
vt 0.118824 0.799042
vt 0.172564 0.809166
vt 0.097666 0.769452
vt 0.186167 0.837186
vt 0.169106 0.845253
vt 0.121274 0.831764
vt 0.103756 0.840048
vt 0.190539 0.843046
vt 0.173499 0.851104
vt 0.180938 0.879913
vt 0.195561 0.840671
vt 0.202382 0.871694
vt 0.197496 0.873567
vt 0.180938 0.879913
vt 0.191195 0.834808
vt 0.126437 0.829323
vt 0.197496 0.873567
vt 0.194463 0.877445
vt 0.180938 0.879913
vt 0.198887 0.875122
vt 0.180938 0.879913
vt 0.194463 0.877445
vt 0.179482 0.885314
vt 0.202382 0.871694
vt 0.198887 0.875122
vt 0.197496 0.873567
vt 0.147095 0.779115
vt 0.134582 0.789442
vt 0.095127 0.771547
vt 0.082342 0.782098
vt 0.154524 0.78507
vt 0.142647 0.794903
vt 0.159845 0.813079
vt 0.169992 0.80572
vt 0.170641 0.810574
vt 0.160954 0.817665
vt 0.172564 0.809166
vt 0.172007 0.804259
vt 0.156883 0.783118
vt 0.14958 0.777065
vt 0.097666 0.769452
vt 0.068712 0.79095
vt 0.067448 0.793891
vt 0.038821 0.788915
vt 0.037176 0.792773
vt 0.039193 0.784737
vt 0.068999 0.787764
vt 0.038256 0.780649
vt 0.068272 0.78464
vt 0.036101 0.777051
vt 0.066643 0.781899
vt 0.03294 0.774294
vt 0.064216 0.77979
vt 0.058093 0.778254
vt 0.024905 0.772277
vt 0.030821 0.798088
vt 0.062595 0.797945
vt 0.022555 0.798653
vt 0.05628 0.798374
vt 0.034419 0.780174
vt 0.035291 0.784262
vt 0.034856 0.788417
vt 0.029209 0.773757
vt 0.032323 0.776554
vt 0.021216 0.771617
vt 0.018467 0.797853
vt 0.026727 0.797425
vt 0.033154 0.792234
vt 0.032761 0.788229
vt 0.032827 0.791695
vt 0.025194 0.77926
vt 0.028751 0.781692
vt 0.031379 0.784837
vt 0.031571 0.794899
vt 0.033001 0.808707
vt 0.034545 0.809463
vt 0.034732 0.810362
vt 0.03025 0.808167
vt 0.026559 0.807897
vt 0.016771 0.777458
vt 0.017861 0.808247
vt 0.013711 0.808834
vt 0.012733 0.778265
vt 0.017121 0.772484
vt 0.009347 0.780143
vt 0.013495 0.774572
vt 0.006946 0.782907
vt 0.010695 0.777676
vt 0.01025 0.809626
vt 0.007817 0.810545
vt 0.006651 0.8115
vt 0.005741 0.786224
vt 0.00582 0.789697
vt 0.005741 0.786224
vt 0.006863 0.812399
vt 0.017861 0.808247
vt 0.026559 0.807897
vt 0.016586 0.804041
vt 0.028245 0.802859
vt 0.009085 0.805331
vt 0.013711 0.808834
vt 0.004172 0.808349
vt 0.01025 0.809626
vt 0.000418 0.809824
vt 0.007817 0.810545
vt -0.00135 0.811356
vt 0.006651 0.8115
vt 0.00013 0.813059
vt 0.006863 0.812399
vt 0.017285 0.815054
vt 0.019134 0.813921
vt 0.031377 0.813669
vt 0.027648 0.812973
vt 0.040269 0.8112
vt 0.033549 0.811315
vt 0.047374 0.808076
vt 0.034732 0.810362
vt 0.047083 0.806637
vt 0.034545 0.809463
vt 0.044661 0.805418
vt 0.033001 0.808707
vt 0.040336 0.804543
vt 0.03025 0.808167
vt 0.028245 0.802859
vt 0.036848 0.842411
vt 0.016586 0.804041
vt 0.040336 0.804543
vt 0.050969 0.843599
vt 0.044661 0.805418
vt 0.055443 0.843947
vt 0.047083 0.806637
vt 0.058037 0.844755
vt 0.019671 0.844761
vt 0.012447 0.845913
vt 0.009085 0.805331
vt 0.00689 0.847242
vt 0.004172 0.808349
vt 0.0032 0.84857
vt 0.000418 0.809824
vt 0.0014 0.84989
vt -0.00135 0.811356
vt 0.057437 0.866236
vt 0.060112 0.866993
vt 0.053539 0.88663
vt 0.0559 0.887226
vt 0.060378 0.868301
vt 0.056044 0.88842
vt 0.04223 0.893711
vt 0.043562 0.893977
vt 0.056044 0.88842
vt 0.039906 0.893513
vt 0.049714 0.886377
vt 0.049714 0.886377
vt 0.052941 0.865916
vt 0.043647 0.89441
vt 0.058379 0.845995
vt 0.039574 0.865958
vt 0.039303 0.887825
vt 0.049714 0.886377
vt 0.024144 0.867748
vt 0.028305 0.888681
vt 0.02103 0.890011
vt 0.016329 0.869076
vt 0.029045 0.893914
vt 0.036847 0.893334
vt 0.02488 0.894784
vt 0.010519 0.870406
vt 0.015836 0.89114
vt 0.02103 0.890011
vt 0.012388 0.892614
vt 0.006662 0.871906
vt 0.0106 0.893939
vt 0.004728 0.873325
vt 0.019934 0.896284
vt 0.022047 0.895353
vt 0.02103 0.890011
vt 0.02488 0.894784
vt 0.018817 0.897064
vt 0.019934 0.896284
vt 0.018856 0.897611
vt 0.01209 0.895365
vt 0.00013 0.813059
vt 0.002517 0.851447
vt 0.017285 0.815054
vt -0.00135 0.811356
vt 0.0014 0.84989
vt 0.020269 0.852109
vt 0.031377 0.813669
vt 0.034489 0.850188
vt 0.040269 0.8112
vt 0.048378 0.846354
vt 0.047374 0.808076
vt 0.058379 0.845995
vt 0.058037 0.844755
vt 0.047083 0.806637
vt 0.006119 0.874929
vt 0.004728 0.873325
vt 0.01209 0.895365
vt 0.0106 0.893939
vt 0.038623 0.873812
vt 0.050823 0.870248
vt 0.040157 0.894635
vt 0.027502 0.89636
vt 0.024081 0.875784
vt 0.01209 0.895365
vt 0.048499 0.891917
vt 0.056044 0.88842
vt 0.060378 0.868301
vt 0.042192 0.895279
vt 0.036578 0.896889
vt 0.027502 0.89636
vt 0.029192 0.89804
vt 0.017398 0.799784
vt 0.006863 0.812399
vt 0.019134 0.813921
vt 0.00582 0.789697
vt 0.006863 0.812399
vt 0.017398 0.799784
vt 0.018467 0.797853
vt 0.00582 0.789697
vt 0.017398 0.799784
vt 0.008559 0.785648
vt 0.00582 0.789697
vt 0.018467 0.797853
vt 0.008994 0.781492
vt 0.012817 0.782388
vt 0.014462 0.77853
vt 0.050116 0.783022
vt 0.052219 0.78061
vt 0.017218 0.775369
vt 0.054969 0.778968
vt 0.020817 0.773214
vt 0.058093 0.778254
vt 0.024905 0.772277
vt 0.048861 0.785966
vt 0.012445 0.786565
vt 0.048564 0.789149
vt 0.05628 0.798374
vt 0.022555 0.798653
vt 0.017121 0.772484
vt 0.021216 0.771617
vt 0.013495 0.774572
vt 0.010695 0.777676
vt 0.005741 0.786224
vt 0.006946 0.782907
vt 0.018467 0.797853
vt 0.006863 0.812399
vt 0.006651 0.8115
vt 0.086891 0.926794
vt 0.054677 0.926883
vt 0.092206 0.92136
vt 0.061521 0.919884
vt 0.063 0.915154
vt 0.093354 0.917687
vt 0.062944 0.910199
vt 0.09331 0.913839
vt 0.06136 0.905504
vt 0.09208 0.910193
vt 0.058402 0.901528
vt 0.089784 0.907105
vt 0.054361 0.89866
vt 0.086645 0.904878
vt 0.083245 0.928025
vt 0.049982 0.928467
vt 0.052354 0.903149
vt 0.054006 0.906521
vt 0.048794 0.900321
vt 0.047682 0.897515
vt 0.053861 0.9105
vt 0.048179 0.90449
vt 0.048794 0.900321
vt 0.045969 0.909201
vt 0.052314 0.914474
vt 0.041618 0.915057
vt 0.049223 0.919071
vt 0.033274 0.921757
vt 0.040612 0.925647
vt 0.035681 0.927259
vt 0.028491 0.923322
vt 0.033274 0.921757
vt 0.023827 0.923582
vt 0.030915 0.927545
vt 0.045027 0.928523
vt 0.019665 0.922414
vt 0.026764 0.926447
vt 0.041618 0.915057
vt 0.033274 0.921757
vt 0.036847 0.893334
vt 0.036847 0.893334
vt 0.039906 0.893513
vt 0.04223 0.893711
vt 0.043562 0.893977
vt 0.048179 0.90449
vt 0.043562 0.893977
vt 0.048794 0.900321
vt 0.039906 0.893513
vt 0.036847 0.893334
vt 0.049714 0.886377
vt 0.039303 0.887825
vt 0.036847 0.893334
vt 0.033274 0.921757
vt 0.029045 0.893914
vt 0.028491 0.923322
vt 0.029045 0.893914
vt 0.033274 0.921757
vt 0.02488 0.894784
vt 0.023827 0.923582
vt 0.02488 0.894784
vt 0.022047 0.895353
vt 0.02488 0.894784
vt 0.019665 0.922414
vt 0.019934 0.896284
vt 0.017289 0.91909
vt 0.019934 0.896284
vt 0.018817 0.897064
vt 0.017289 0.91909
vt 0.016235 0.915374
vt 0.02488 0.894784
vt 0.02103 0.890011
vt 0.086645 0.904878
vt 0.054361 0.89866
vt 0.079125 0.903773
vt 0.044514 0.897655
vt 0.072391 0.9073
vt 0.035828 0.902231
vt 0.07029 0.921605
vt 0.033298 0.9202
vt 0.036255 0.924176
vt 0.072586 0.924693
vt 0.040297 0.927044
vt 0.075724 0.92692
vt 0.045027 0.928523
vt 0.079397 0.928068
vt 0.030915 0.927545
vt 0.026764 0.926447
vt 0.023884 0.923787
vt 0.017289 0.91909
vt 0.016235 0.915374
vt 0.022225 0.920596
vt 0.022225 0.920596
vt 0.049982 0.928467
vt 0.083245 0.928025
vt 0.019665 0.922414
vt 0.017289 0.91909
vt 0.028898 0.900501
vt 0.030627 0.90448
vt 0.018856 0.897611
vt 0.018817 0.897064
vt 0.016235 0.915374
vt 0.023884 0.923787
vt 0.022225 0.920596
vt 0.016235 0.915374
vt 0.022225 0.920596
vt 0.028898 0.900501
vt 0.028898 0.900501
vt 0.030627 0.90448
vt 0.036874 0.897285
vt 0.039966 0.900249
vt 0.044239 0.897137
vt 0.04923 0.900778
vt 0.047682 0.897515
vt 0.016235 0.915374
vt 0.018856 0.897611
vt 0.029192 0.89804
vt 0.022225 0.920596
vt 0.030627 0.90448
vt 0.028898 0.900501
vt 0.036874 0.897285
vt 0.029192 0.89804
vt 0.036578 0.896889
vt 0.044239 0.897137
vt 0.018856 0.897611
vt 0.029192 0.89804
vt 0.01209 0.895365
vt 0.027502 0.89636
vt 0.024081 0.875784
vt 0.01209 0.895365
vt 0.027502 0.89636
vt 0.036578 0.896889
vt 0.044239 0.897137
vt 0.042192 0.895279
vt 0.047682 0.897515
vt 0.044239 0.897137
vt 0.043647 0.89441
vt 0.047682 0.897515
vt 0.048499 0.891917
vt 0.043647 0.89441
vt 0.056044 0.88842
vt 0.018467 0.797853
vt 0.017398 0.799784
vt 0.026727 0.797425
vt 0.025706 0.799316
vt 0.017398 0.799784
vt 0.019134 0.813921
vt 0.025706 0.799316
vt 0.025706 0.799316
vt 0.027648 0.812973
vt 0.025706 0.799316
vt 0.031571 0.794899
vt 0.031571 0.794899
vt 0.033549 0.811315
vt 0.034732 0.810362
vt 0.032827 0.791695
vt 0.033154 0.792234
vt 0.025706 0.799316
vt 0.031571 0.794899
vt 0.026727 0.797425
vt 0.025706 0.799316
vt 0.033154 0.792234
vt 0.032761 0.788229
vt 0.032827 0.791695
vt 0.034545 0.809463
vt 0.052354 0.903149
vt 0.047682 0.897515
vt 0.04923 0.900778
vt 0.030627 0.90448
vt 0.044514 0.897655
vt 0.039966 0.900249
vt 0.04923 0.900778
vt 0.043562 0.893977
vt 0.043647 0.89441
vt 0.048794 0.900321
vt 0.048794 0.900321
vt 0.043647 0.89441
vt 0.047682 0.897515
vt 0.042192 0.895279
vt 0.043647 0.89441
vt 0.048499 0.891917
vt 0.092955 0.927506
vt 0.088772 0.930611
vt 0.081045 0.915848
vt 0.095972 0.92326
vt 0.097527 0.918288
vt 0.097469 0.913078
vt 0.095802 0.908138
vt 0.092691 0.903953
vt 0.08844 0.900933
vt 0.083465 0.899372
vt 0.078213 0.899423
vt 0.078057 0.899473
vt 0.076262 0.931661
vt 0.078558 0.932323
vt 0.083833 0.93227
vt 0.103537 0.92505
vt 0.100096 0.929894
vt 0.092955 0.927506
vt 0.105311 0.919379
vt 0.105245 0.913436
vt 0.103344 0.907801
vt 0.092691 0.903953
vt 0.099796 0.903028
vt 0.08844 0.900933
vt 0.092691 0.903953
vt 0.094946 0.899582
vt 0.083465 0.899372
vt 0.089271 0.897802
vt 0.078213 0.899423
vt 0.083325 0.897862
vt 0.092955 0.927506
vt 0.095325 0.933436
vt 0.088772 0.930611
vt 0.100096 0.929894
vt 0.08969 0.935329
vt 0.083833 0.93227
vt 0.083744 0.935388
vt 0.078558 0.932323
vt 0.077693 0.933642
vt 0.076262 0.931661
vt 0.07961 0.899029
vt 0.083325 0.897862
vt 0.078057 0.899473
vt 0.078213 0.899423
vt 0.072103 0.791913
vt 0.0704 0.795896
vt 0.058661 0.788532
vt 0.07249 0.787598
vt 0.071523 0.783375
vt 0.069297 0.779656
vt 0.066029 0.776807
vt 0.06204 0.775105
vt 0.05772 0.774717
vt 0.053492 0.775682
vt 0.049741 0.77792
vt 0.04965 0.77802
vt 0.061854 0.801896
vt 0.063781 0.801408
vt 0.067548 0.799159
vt 0.078744 0.797622
vt 0.080975 0.792403
vt 0.081482 0.78675
vt 0.080216 0.781217
vt 0.077299 0.776345
vt 0.073018 0.772611
vt 0.067792 0.770381
vt 0.062132 0.769874
vt 0.053492 0.775682
vt 0.056592 0.771138
vt 0.07013 0.804809
vt 0.063781 0.801408
vt 0.075007 0.801897
vt 0.049741 0.77792
vt 0.056592 0.771138
vt 0.053492 0.775682
vt 0.051715 0.77405
vt 0.04965 0.77802
vt 0.049212 0.776799
vt 0.063781 0.801408
vt 0.064297 0.806283
vt 0.061854 0.801896
vt 0.07013 0.804809
vn -0.1120603 0.2190692 -0.9692529
vn -0.1602558 0.2070943 -0.9651062
vn -0.1049451 0.2068883 -0.9727198
vn -0.1524352 0.191343 -0.969614
vn -0.1844012 0.2052811 -0.9611742
vn 0.03354943 0.2374353 -0.9708238
vn 0.1551183 0.2415269 -0.957916
vn 0.2138509 0.2488444 -0.9446397
vn 0.2142352 0.2424901 -0.9462038
vn 0.3000081 0.2462136 -0.9216149
vn 0.2952784 0.2403276 -0.9246909
vn 0.3746986 0.2512649 -0.8924499
vn 0.3739049 0.2843712 -0.8827957
vn 0.3932751 0.2469201 -0.8856439
vn 0.3602775 0.2956971 -0.8847392
vn 0.2891294 0.3302185 -0.898532
vn 0.3635142 0.2557282 -0.8958016
vn 0.3905334 0.2509719 -0.8857182
vn 0.3860518 0.2636011 -0.8840127
vn 0.4933715 0.249276 -0.8333343
vn 0.622433 0.1976116 -0.7573155
vn 0.6759256 0.2543036 -0.6917039
vn 0.6888356 0.2376257 -0.6848646
vn 0.8041043 0.2468784 -0.5408023
vn 0.8175031 0.1708731 -0.5499918
vn 0.8784208 0.1612958 -0.4498451
vn 0.8982361 0.2115599 -0.3852457
vn 0.8497357 0.163224 -0.5013055
vn 0.78733 0.3391264 -0.5148832
vn 0.8265972 0.3090817 -0.4703249
vn 0.8543677 0.3686822 -0.3662368
vn 0.6840419 0.1873481 -0.7049732
vn 0.7023763 0.1562174 -0.694452
vn 0.6741621 0.339221 -0.6560752
vn 0.6598533 0.3550431 -0.6622219
vn 0.5597639 0.3528682 -0.7497656
vn 0.6584552 0.3012364 -0.6897052
vn 0.4888224 0.5920048 -0.6407675
vn 0.5812537 0.5831529 -0.5675182
vn 0.2184155 0.9497392 -0.2242548
vn 0.2547525 0.9494038 -0.1836674
vn 0.6975986 0.5776727 -0.423852
vn 0.3962234 0.9019323 -0.171829
vn 0.7444035 0.5837644 -0.3241644
vn 0.1635129 0.951148 -0.2618796
vn 0.3284457 0.5822093 -0.7437444
vn 0.1203215 0.9495733 -0.2895395
vn 0.2292647 0.5414352 -0.8088792
vn 0.06878466 0.9500949 -0.3042834
vn 0.1168178 0.6397297 -0.7596707
vn 0.04687239 0.9501065 -0.3083839
vn 0.01205847 0.5619767 -0.8270652
vn -0.03271425 0.9463114 -0.3215969
vn -0.1728919 0.5210478 -0.8358334
vn -0.04841282 0.9740418 -0.2211305
vn 0.006078356 0.9999808 -0.001189798
vn 0.004047536 0.9999895 -0.00216513
vn 0.002206677 0.999992 -0.003341069
vn 0.002987198 0.9999919 -0.002712661
vn 0.001289045 0.9999923 -0.003730704
vn 0.0007239963 0.9999906 -0.004294878
vn 0.0002277693 0.9999865 -0.005197407
vn -0.000706427 0.9999715 -0.007518236
vn 8.140429E-05 0.9999273 -0.01205844
vn 0.1397804 0.3023564 -0.9428903
vn -0.1841437 -0.2696956 -0.9451748
vn -0.2029941 -0.1973878 -0.9590784
vn -0.3073659 0.4593683 -0.8333709
vn -0.3098172 0.5135298 -0.8001878
vn -0.2056943 0.9657524 -0.1581525
vn -0.2427218 0.9373015 -0.250104
vn 0.2078171 0.8911052 0.4034148
vn 0.2832232 0.8589675 0.4265669
vn 0.7665541 0.3100072 0.562397
vn 0.7301034 0.3879183 0.5625553
vn 0.8430313 -0.3408567 0.4160707
vn 0.8332924 -0.3885451 0.3932639
vn -0.2332482 -0.0739764 -0.9695992
vn -0.3079614 0.6099455 -0.7301551
vn -0.1783723 0.9836394 -0.02523184
vn 0.3708301 0.8058277 0.4616565
vn 0.8104503 0.191805 0.553517
vn 0.7989584 -0.4964015 0.3394867
vn 0.7873219 0.3174901 -0.5285114
vn 0.8610647 0.2123701 -0.4620245
vn 0.8119153 0.3267778 -0.4837455
vn 0.3690086 -0.9277982 -0.05498217
vn 0.05913485 -0.8549561 -0.5153185
vn -0.01191009 -0.7324421 -0.6807252
vn 0.5236033 -0.8496396 0.06286634
vn 0.4681967 -0.8833966 0.02005437
vn 0.038461 -0.8235075 -0.566
vn -0.2029941 -0.1973878 -0.9590784
vn -0.1841437 -0.2696956 -0.9451748
vn 0.8430313 -0.3408567 0.4160707
vn 0.8332924 -0.3885451 0.3932639
vn -0.2332482 -0.0739764 -0.9695992
vn 0.7989584 -0.4964015 0.3394867
vn -0.8316869 -0.4708444 -0.294283
vn -0.8570455 -0.4138706 -0.3068942
vn -0.9604936 0.1693053 -0.2208796
vn -0.9394604 0.3058355 -0.1545278
vn -0.263127 -0.9500798 -0.1676682
vn -0.3132753 -0.9262591 -0.2095296
vn 0.4128158 -0.9082425 0.06840012
vn 0.4950181 -0.8617209 0.1113291
vn 0.931008 -0.2746556 0.2403924
vn 0.9088758 -0.3433383 0.2367777
vn -0.4481384 -0.8608122 -0.2411936
vn -0.9095608 -0.2872787 -0.3002836
vn -0.945326 0.2213564 -0.2394998
vn 0.8646482 -0.4514686 0.2203626
vn 0.3162669 -0.9481089 0.03263004
vn 0.08640883 -0.9962597 0.0005693806
vn -0.4516269 -0.8922018 -0.003016402
vn -0.5747136 -0.8183454 -0.003875187
vn -0.8642901 -0.502946 -0.00692344
vn -0.8957993 -0.4439066 -0.02214666
vn -0.9657056 0.2556508 -0.04533406
vn -0.9391333 0.3382019 -0.06039911
vn -0.4898498 -0.8718008 -0.003230921
vn 0.2529417 -0.96748 0.001667438
vn 0.3502762 -0.9366436 0.002308875
vn 0.9607334 -0.2774007 0.006329331
vn 0.9371852 -0.3487776 0.006177973
vn -0.9358256 -0.3513764 -0.02765815
vn -0.8711734 0.4875635 -0.05778305
vn 0.862672 -0.5057319 0.005686112
vn 0.8373579 0.5012426 0.2181457
vn 0.873517 0.4303275 0.2275656
vn 0.931008 -0.2746556 0.2403924
vn 0.9088758 -0.3433383 0.2367777
vn 0.2156733 0.9689681 0.1207715
vn 0.3487349 0.9328078 0.09084912
vn -0.3633493 0.9296685 0.06077598
vn 0.4197414 0.9010327 0.1093492
vn -0.1916339 0.9800551 0.0526158
vn -0.6363787 0.7711159 -0.02006075
vn -0.5346733 0.8447874 -0.02142037
vn 0.9210644 0.3066972 0.2399523
vn 0.8646482 -0.4514686 0.2203626
vn -0.7150126 0.6948409 -0.07715677
vn -0.9604936 0.1693053 -0.2208796
vn -0.6878679 0.7253318 -0.02704751
vn -0.945326 0.2213564 -0.2394998
vn -0.5346733 0.8447874 -0.02142037
vn -0.9604936 0.1693053 -0.2208796
vn -0.9394604 0.3058355 -0.1545278
vn -0.9013869 0.3402619 -0.2678127
vn -0.945326 0.2213564 -0.2394998
vn -0.9034558 0.3726337 -0.2119239
vn 0.8735792 0.4866467 0.005872631
vn 0.9034263 0.4286998 0.006105592
vn 0.9607334 -0.2774007 0.006329331
vn 0.9371852 -0.3487776 0.006177973
vn 0.4438812 0.8960619 0.00652663
vn 0.4859825 0.8739575 0.00439721
vn -0.2674265 0.9633465 -0.0211274
vn -0.3675902 0.9296255 -0.0259614
vn -0.9657056 0.2556508 -0.04533406
vn -0.9391333 0.3382019 -0.06039911
vn -0.8711734 0.4875635 -0.05778305
vn -0.1067892 0.994201 -0.012664
vn 0.5731608 0.8194302 0.004566664
vn 0.9442645 0.329129 0.006215364
vn 0.862672 -0.5057319 0.005686112
vn 0.7722557 0.1078905 -0.6260838
vn 0.9711475 0.05105158 -0.2329513
vn 0.810015 0.04602018 -0.5846006
vn 0.974149 0.001284406 -0.2259023
vn 0.5884979 0.06837565 -0.8056021
vn 0.5401769 0.1307273 -0.8313358
vn 0.3102341 0.08284603 -0.9470435
vn 0.2558563 0.1369809 -0.9569607
vn 0.001511341 0.08777513 -0.9961392
vn -0.05252115 0.1260388 -0.990634
vn -0.3814193 0.08321133 -0.9206493
vn -0.3806865 0.09611947 -0.919695
vn -0.7603115 0.02894256 -0.6489135
vn -0.7557474 0.04981396 -0.6529658
vn 0.9497312 -0.03196919 0.3114302
vn 0.9106954 -0.0622157 0.4083664
vn 0.450781 -0.0967311 0.8873779
vn 0.2964857 -0.1837817 0.9371875
vn 0.3265754 0.1100338 -0.9387444
vn 0.6037812 0.02651779 -0.7967088
vn 0.8183101 -0.06429549 -0.5711694
vn -0.3689787 0.1719259 -0.9133982
vn 0.01890046 0.1771727 -0.9839983
vn -0.7131223 0.3179406 -0.6247964
vn 0.5065519 -0.2576976 0.8227983
vn 0.8940706 -0.3501345 0.2793626
vn 0.9419371 -0.2516359 -0.222337
vn 0.5957663 -0.03614067 -0.8023443
vn 0.7042251 -0.3138348 -0.6368474
vn -0.2327685 0.5651822 -0.7914466
vn 0.1599221 0.4514114 -0.8778682
vn 0.4025149 0.2316657 -0.8856143
vn 0.6619657 -0.5963643 -0.4540387
vn 0.4708954 0.175953 -0.864464
vn 0.5430946 -0.1795104 -0.8202586
vn 0.5066145 -0.5033947 -0.6999539
vn 0.3150212 0.4883575 -0.8137989
vn 0.02729209 0.7985706 -0.6012821
vn -0.4101908 0.8106322 -0.4178745
vn -0.2215278 0.9168207 -0.3322127
vn -0.3994514 0.9156032 -0.04592708
vn -0.6920947 0.7057373 -0.1514591
vn -0.920898 0.237008 -0.3094737
vn -0.7759758 0.6186151 0.1231949
vn -0.9798535 0.1994574 -0.01019049
vn -0.7880734 0.4758839 0.3904804
vn -0.9456536 0.141052 0.2929909
vn -0.5130593 0.8347104 0.2000719
vn -0.5839887 0.681219 0.4414723
vn -0.603283 0.4562675 0.6541174
vn -0.7290728 0.2796999 0.6246765
vn -0.4814026 -0.08501576 0.8723668
vn -0.7290728 0.2796999 0.6246765
vn -0.5794257 0.01230941 0.814932
vn -0.8054378 -0.3624251 -0.4689542
vn -0.8766375 -0.367189 -0.3109323
vn -0.8349808 -0.3805028 -0.397523
vn -0.8563638 -0.3813542 -0.3481523
vn -0.8088352 -0.3699687 -0.4570654
vn -0.824592 -0.2922952 -0.4843672
vn -0.8382406 -0.2200119 -0.4989465
vn -0.8175873 -0.1330262 -0.5602277
vn -0.8143399 -0.1262873 -0.5664819
vn -0.8131914 -0.1196592 -0.5695623
vn -0.8112132 -0.1099026 -0.5743297
vn -0.8103207 -0.1032466 -0.5768192
vn -0.8110065 -0.08496806 -0.5788342
vn -0.8122332 -0.07151482 -0.5789324
vn -0.8222911 -0.04827931 -0.5670153
vn -0.8312281 -0.04030299 -0.5544686
vn -0.8445818 -0.03457964 -0.5343087
vn -0.8494932 -0.03637664 -0.5263439
vn -0.8634635 -0.05873147 -0.5009805
vn -0.8747139 -0.05422237 -0.4815968
vn -0.8860576 -0.06402972 -0.4591319
vn -0.8889016 -0.05021393 -0.4553379
vn -0.8891409 -0.07326908 -0.45173
vn -0.889069 -0.08272708 -0.4502361
vn -0.8866311 -0.1055812 -0.4502643
vn -0.8853573 -0.1153881 -0.4503644
vn -0.8528029 -0.2184299 -0.4743581
vn -0.8693896 -0.290728 -0.3995483
vn 0.1168334 0.8857802 -0.4491586
vn 0.1133448 0.9250004 -0.362667
vn -0.01391355 0.9830582 -0.1827645
vn 0.1968799 0.746411 -0.6356956
vn 0.2880345 0.6941696 -0.6596702
vn 0.3497445 0.2654951 -0.8984382
vn 0.441583 0.2407929 -0.8643051
vn 0.387562 -0.04477026 -0.9207557
vn 0.4743249 -0.07930591 -0.8767705
vn -0.01922182 0.9918716 -0.1257826
vn -0.1863049 0.9730116 0.136158
vn -0.2364915 0.9545543 0.1813773
vn -0.3390788 0.8520784 0.3987329
vn -0.3896509 0.815799 0.4273689
vn -0.452017 0.6565006 0.6038937
vn -0.4929805 0.6123608 0.6180488
vn -0.5253037 0.3542834 0.7736533
vn -0.5647097 0.2809496 0.7759963
vn 0.6266438 0.2768603 -0.7284682
vn 0.6666695 -0.05531549 -0.743298
vn 0.9377753 0.2481561 -0.2428911
vn 0.9688635 -0.02439452 -0.2463906
vn 0.6247023 -0.5368201 -0.5670726
vn 0.8947638 -0.4379655 -0.08708458
vn 0.9690676 0.1604904 0.1874855
vn 0.9815274 -0.001327173 0.191317
vn 0.988725 -0.1495193 0.00816921
vn 0.9252364 0.3072869 0.2225135
vn 0.8271109 0.5447524 -0.13832
vn 0.894783 0.4346882 -0.1020265
vn 0.4429223 0.7136879 -0.5426505
vn 0.9647942 -0.1585925 0.2098105
vn 0.4307263 -0.6205785 -0.6552536
vn 0.2161175 0.9293109 -0.299457
vn 0.5927412 0.8043267 -0.04143345
vn 0.770565 0.6011817 -0.211684
vn 0.132363 0.9733392 -0.1873257
vn 0.6522215 0.7505859 0.1059618
vn 0.2324552 0.958909 0.1626591
vn -0.105879 0.9821271 0.155615
vn 0.5910814 0.8011014 0.09412494
vn 0.6800098 0.7294581 0.07401111
vn 0.6879389 0.6580986 0.3060169
vn -0.2539302 0.8680612 0.4266019
vn 0.259204 0.7654949 0.5889235
vn 0.2977699 0.8887812 0.3484264
vn 0.1739628 0.6390709 0.7492164
vn -0.3639619 0.6806321 0.6358238
vn 0.09539748 0.3719383 0.9233425
vn -0.4411391 0.3536526 0.8248188
vn 0.4334752 0.5910103 0.6802985
vn 0.243461 0.7671154 0.5935156
vn 0.5224306 0.6577508 0.5426142
vn 0.4457082 0.8248714 0.347752
vn 0.5588974 0.3040066 0.7715009
vn 0.613781 0.4314775 0.6611356
vn 0.53891 0.02742376 0.8419168
vn 0.1293279 -0.116266 0.9847622
vn -0.5426501 -0.2180804 0.8111546
vn -0.4966034 -0.2584522 0.8286058
vn -0.3309708 -0.7458193 0.5781107
vn -0.5647097 0.2809496 0.7759963
vn -0.5253037 0.3542834 0.7736533
vn -0.131419 -0.9129337 0.3863692
vn 0.1084873 -0.9937871 -0.02485741
vn 0.1937465 -0.9692257 -0.1518673
vn 0.28684 -0.8833852 -0.3706124
vn 0.2693762 -0.8964356 -0.3519088
vn 0.3607087 -0.6031384 -0.7114164
vn 0.4307263 -0.6205785 -0.6552536
vn 0.4743249 -0.07930591 -0.8767705
vn 0.387562 -0.04477026 -0.9207557
vn -0.4318754 -0.134032 0.8919187
vn -0.4411391 0.3536526 0.8248188
vn -0.1646469 -0.1611929 0.9730921
vn 0.09539748 0.3719383 0.9233425
vn 0.1906608 -0.9787109 0.075983
vn 0.3629566 -0.8960984 -0.2554801
vn 0.6805448 -0.7001526 0.215975
vn 0.3994599 -0.7361684 0.5463403
vn -0.1664932 -0.7488368 0.6415009
vn -0.01606673 -0.2476394 0.9687191
vn 0.8313894 -0.5512956 0.06974925
vn 0.7539375 -0.6117381 -0.2394883
vn 0.6247023 -0.5368201 -0.5670726
vn 0.9243376 -0.2590261 0.2801881
vn 0.8232763 -0.3311588 0.4610315
vn 0.5651506 -0.6313038 0.5310936
vn 0.6524835 -0.275112 0.7061011
vn -0.2091191 -0.7273281 0.6536537
vn -0.5118764 -0.1675525 0.8425608
vn -0.1760424 -0.9376155 0.2998106
vn -0.3997869 -0.2919061 0.8688851
vn -0.4558713 -0.3308166 0.8262819
vn 0.0944922 -0.7655161 0.6364403
vn 0.1286662 -0.4158109 0.9003035
vn -0.4465494 -0.1896998 0.8744184
vn 0.1015472 -0.6646646 0.7402088
vn -0.3951174 -0.06945163 0.9160015
vn -0.4465494 -0.1896998 0.8744184
vn 0.4014291 -0.3093624 0.8620613
vn -0.818163 0.06074291 0.5717688
vn -0.8075001 -0.09080634 0.5828359
vn -0.9504588 -0.06063132 0.3048799
vn -0.9228071 -0.1516765 0.3541489
vn -0.9932204 -0.1038815 0.05216891
vn -0.9996566 -0.02590664 -0.003946756
vn -0.9648454 -0.04922971 -0.2581662
vn -0.9498285 0.009474349 -0.3126276
vn -0.7603115 0.02894256 -0.6489135
vn -0.7557474 0.04981396 -0.6529658
vn -0.7627132 -0.1882504 0.6187329
vn -0.3779759 -0.152078 0.9132395
vn -0.3727196 -0.2147357 0.9027562
vn 0.2964857 -0.1837817 0.9371875
vn 0.450781 -0.0967311 0.8873779
vn -0.920898 0.237008 -0.3094737
vn -0.7131223 0.3179406 -0.6247964
vn -0.9798535 0.1994574 -0.01019049
vn -0.9456536 0.141052 0.2929909
vn -0.7290728 0.2796999 0.6246765
vn -0.7880734 0.4758839 0.3904804
vn 0.3327585 -0.2185768 0.9173309
vn -0.5118764 -0.1675525 0.8425608
vn -0.603283 0.4562675 0.6541174
vn 0.9907161 0.01366471 0.1352584
vn 0.9928662 0.03101323 0.1151308
vn 0.9411376 0.08254509 -0.32779
vn 0.9346336 0.08293157 -0.3458072
vn 0.7761072 0.09665616 -0.6231495
vn 0.7049341 0.1218956 -0.6987199
vn 0.5354675 0.09394038 -0.8393151
vn 0.4539097 0.1304442 -0.8814479
vn 0.2203818 0.09603383 -0.9706748
vn 0.159336 0.1221179 -0.9796424
vn -0.06802286 0.1010976 -0.9925483
vn -0.1516861 0.09759497 -0.9835987
vn -0.503714 0.1136616 -0.8563604
vn -0.4726874 0.05535138 -0.8794901
vn 0.8882365 -0.04516234 0.457161
vn 0.8610298 -0.03163573 0.5075694
vn -0.03225589 0.007933485 -0.9994481
vn 0.3909058 0.1059245 -0.9143154
vn 0.1474854 0.1149275 -0.9823644
vn -0.1971364 -0.1561708 -0.9678574
vn 0.6857542 0.2227534 -0.6929084
vn 0.4118505 0.5323397 -0.7395901
vn 0.130432 0.264852 -0.9554271
vn 0.5378054 0.6125671 -0.5792469
vn 0.8128196 0.2611795 -0.5206819
vn 0.5809908 0.6859973 -0.4380153
vn 0.9462613 0.2561263 -0.1974559
vn 0.7118485 0.700488 -0.05087588
vn 0.9450396 0.2036031 0.2558243
vn 0.8152336 0.1328415 0.5636907
vn 0.820197 0.3072943 0.4825422
vn 0.9136941 0.3969153 0.0873002
vn 0.6589173 0.2185851 0.7197559
vn 0.6278679 0.05386193 0.776454
vn 0.6675293 -0.08701045 0.7394821
vn 0.3714238 0.08657047 0.9244187
vn 0.3251219 -0.0442734 0.9446352
vn 0.5809908 0.6859973 -0.4380153
vn 0.5174452 0.848061 -0.1142063
vn 0.4462511 0.8695266 -0.2116209
vn 0.2559397 0.8996264 -0.3537899
vn 0.350418 0.6855017 -0.6381964
vn 0.2786191 0.5890169 -0.7585713
vn 0.09246346 0.3045037 -0.9480126
vn 0.4118505 0.5323397 -0.7395901
vn 0.1285157 0.5640237 -0.8156967
vn 0.1156044 0.6386336 -0.7607777
vn 0.9252364 0.3072869 0.2225135
vn 0.7822773 0.60862 0.132755
vn 0.8271109 0.5447524 -0.13832
vn 0.5927412 0.8043267 -0.04143345
vn 0.6413887 0.7658538 -0.04570125
vn 0.5174452 0.848061 -0.1142063
vn 0.5910814 0.8011014 0.09412494
vn 0.08832447 0.9925308 0.08415203
vn 0.5910814 0.8011014 0.09412494
vn 0.1520772 0.980713 -0.1227786
vn 0.4457082 0.8248714 0.347752
vn -0.1209253 0.926166 0.3572026
vn 0.3347033 0.8753065 0.3490162
vn 0.243461 0.7671154 0.5935156
vn 0.1872413 0.9245226 0.3319617
vn -0.2704611 0.8371443 0.4754372
vn 0.02630838 0.732882 0.6798469
vn -0.3241145 0.4421233 0.8363472
vn -0.3857586 0.739144 0.5521381
vn -0.5826253 0.5111684 0.6318661
vn -0.2634922 0.3632154 0.8936702
vn -0.4364974 0.2180793 0.8728755
vn 0.5622987 0.7637242 0.3170889
vn 0.5110443 0.7891253 0.3407569
vn -0.4726874 0.05535138 -0.8794901
vn -0.503714 0.1136616 -0.8563604
vn -0.8134445 -0.01439408 -0.5814644
vn -0.9113567 0.08425979 -0.4029009
vn -0.9876408 -0.1310164 0.08602486
vn -0.9298212 -0.07189728 0.36092
vn -0.42827 -0.2139876 0.8779488
vn -0.3543892 -0.2150121 0.9100429
vn 0.1071006 -0.1895015 0.9760218
vn 0.1499595 -0.1845732 0.9713109
vn 0.4120571 -0.1428871 0.8998845
vn 0.4456527 -0.1472009 0.8830206
vn 0.6675293 -0.08701045 0.7394821
vn 0.7008664 -0.0991945 0.7063617
vn 0.6278679 0.05386193 0.776454
vn 0.3251219 -0.0442734 0.9446352
vn -0.003393567 -0.1035019 0.9946235
vn -0.2634922 0.3632154 0.8936702
vn -0.616721 -0.02672712 0.786728
vn -0.5030164 -0.1164295 0.8563988
vn -0.6695542 -0.1287768 0.7315148
vn 0.8610298 -0.03163573 0.5075694
vn 0.8882365 -0.04516234 0.457161
vn 0.3714238 0.08657047 0.9244187
vn -0.2295313 0.263857 0.9368537
vn -0.8730412 -0.3928308 0.2889342
vn -0.999689 -0.01730136 -0.01796425
vn -0.7845163 -0.3392088 0.5191065
vn -0.5826253 0.5111684 0.6318661
vn -0.5318999 0.04825954 0.845431
vn -0.003393567 -0.1035019 0.9946235
vn -0.6081879 -0.07699247 0.7900504
vn -0.7055088 -0.218371 0.674219
vn -0.8626193 -0.1234458 0.4905598
vn -0.8252027 -0.5118539 0.2388429
vn -0.8252027 -0.5118539 0.2388429
vn -0.999689 -0.01730136 -0.01796425
vn -0.7598761 -0.4797245 -0.4386942
vn -0.8113907 -0.02213518 -0.5840848
vn -0.6134847 -0.2939438 -0.7329622
vn -0.5220349 -0.08369991 -0.8488074
vn -0.1971364 -0.1561708 -0.9678574
vn -0.6057988 -0.1756876 0.775978
vn -0.7845163 -0.3392088 0.5191065
vn -0.6798877 -0.7320823 -0.04252362
vn -0.7658011 -0.1031378 0.6347528
vn -0.999689 -0.01730136 -0.01796425
vn -0.7819446 -0.5965772 0.180716
vn -0.7598761 -0.4797245 -0.4386942
vn -0.6798877 -0.7320823 -0.04252362
vn -0.6657913 -0.4813819 -0.5700819
vn -0.5013435 -0.4687289 -0.7272881
vn 0.53891 0.02742376 0.8419168
vn 0.6524835 -0.275112 0.7061011
vn 0.2692626 -0.320049 0.9083315
vn 0.5462505 -0.411283 0.7296964
vn -0.1664932 -0.7488368 0.6415009
vn 0.06959105 -0.1911573 0.9790894
vn 0.2126976 -0.7648573 0.6080733
vn 0.2285186 -0.9466081 -0.2274035
vn 0.2163661 -0.9356803 -0.2787257
vn 0.1321968 -0.8991923 -0.4171058
vn 0.008699675 -0.7021267 -0.7119989
vn -0.0407854 -0.875605 -0.4813027
vn -0.02133513 -0.5168386 -0.855817
vn -0.08517413 -0.5085233 -0.8568252
vn 0.8313894 -0.5512956 0.06974925
vn 0.9647942 -0.1585925 0.2098105
vn 0.8947638 -0.4379655 -0.08708458
vn 0.4828513 -0.3582791 0.7990562
vn 0.2137152 -0.7847727 0.5817712
vn 0.8940706 -0.3501345 0.2793626
vn 0.4842238 -0.8739524 0.04164889
vn 0.145376 -0.8130608 0.5637358
vn -0.1760424 -0.9376155 0.2998106
vn 0.3639544 -0.9299158 0.05285468
vn 0.2024561 -0.9773588 0.06149214
vn 0.1421863 -0.9662058 -0.2150107
vn 0.4842238 -0.8739524 0.04164889
vn 0.505856 -0.7515129 -0.423483
vn 0.5893027 -0.6788299 -0.4380781
vn 0.4128037 -0.7197492 -0.5581705
vn 0.5066145 -0.5033947 -0.6999539
vn 0.7042251 -0.3138348 -0.6368474
vn 0.9419371 -0.2516359 -0.222337
vn 0.7074229 -0.7055974 0.04105201
vn 0.5893027 -0.6788299 -0.4380781
vn 0.8940706 -0.3501345 0.2793626
vn 0.5889212 -0.8074062 0.03559428
vn 0.9419371 -0.2516359 -0.222337
vn 0.5957663 -0.03614067 -0.8023443
vn 0.7042251 -0.3138348 -0.6368474
vn 0.5430946 -0.1795104 -0.8202586
vn -0.03225589 0.007933485 -0.9994481
vn -0.1333312 -0.3329753 -0.9334614
vn -0.5220349 -0.08369991 -0.8488074
vn -0.999689 -0.01730136 -0.01796425
vn -0.9113567 0.08425979 -0.4029009
vn -0.8113907 -0.02213518 -0.5840848
vn -0.5220349 -0.08369991 -0.8488074
vn 0.117724 -0.03691225 -0.9923602
vn -0.1269744 -0.1542126 -0.9798449
vn 0.1474854 0.1149275 -0.9823644
vn 0.130432 0.264852 -0.9554271
vn -0.1467893 0.2121407 -0.9661518
vn -0.2230422 0.02435842 -0.9745044
vn 0.9243376 -0.2590261 0.2801881
vn 0.9647942 -0.1585925 0.2098105
vn 0.8313894 -0.5512956 0.06974925
vn 0.3028876 0.9497077 -0.07946289
vn 0 1 0
vn 0.001957634 0.9999924 -0.003402319
vn 0.5232153 0.8292382 -0.1964939
vn 0.4251285 0.8387369 -0.3402735
vn 0.2984048 0.8388347 -0.4553141
vn 0.1461776 0.829569 -0.5389316
vn 0.02776232 0.8745903 -0.4840671
vn 0 1 0
vn -5.905212E-05 1 6.579529E-05
vn 0.01406019 0.999605 -0.02433626
vn 0.01444707 0.9995963 -0.02446625
vn -0.00035895 0.9999999 0.0005304054
vn -0.000671404 0.9999996 0.0005810981
vn 0 1 0
vn 0.7351142 0.5689498 -0.3686506
vn 0.8382975 0.5304258 -0.1261184
vn 0.5865933 0.8094743 -0.02567959
vn 0.5767368 0.5840676 -0.5711739
vn 0.373346 0.5768015 -0.7265761
vn 0.1329586 0.5467195 -0.8266922
vn -0.02921855 0.8101469 -0.5854984
vn -0.1345439 0.4922707 -0.8599811
vn -0.3192885 0.4420604 -0.8382347
vn -0.04277225 0.5133851 -0.8570917
vn -0.4119824 0.4123815 -0.8125343
vn -0.587871 0.3463767 -0.7310477
vn -0.6705408 0.309474 -0.6742409
vn -0.810478 0.2339102 -0.5370395
vn -0.8669057 0.1960131 -0.4583158
vn 0.8582093 0.5119236 -0.03756421
vn 0.8722487 0.4668196 0.1458136
vn 0.8653544 0.4396431 0.2405739
vn 0.8382975 0.5304258 -0.1261184
vn 0.8213094 0.3779576 0.4273159
vn 0.7830505 0.3429239 0.5188788
vn 0.6808887 0.2705638 0.6805777
vn 0.6175077 0.2334423 0.7511251
vn 0.5484662 0.1943178 0.8132807
vn 0.5484982 0.1943052 0.813262
vn -0.9125885 0.1574114 -0.3773644
vn -0.8669057 0.1960131 -0.4583158
vn -0.9138579 0.1561385 -0.3748127
vn -0.810478 0.2339102 -0.5370395
vn 0.4212514 0.86546 -0.271157
vn 0.5153791 0.8462121 -0.1353127
vn -2.40502E-05 0.9999923 -0.003936536
vn 0.3025955 0.877653 -0.3717004
vn 0.1682884 0.8835376 -0.4370816
vn 0.02429033 0.8835888 -0.4676332
vn -0.1246992 0.8778358 -0.4624442
vn -0.2734665 0.865846 -0.4189592
vn -0.4141067 0.8468993 -0.3335824
vn -0.4188703 0.8824942 -0.2138968
vn -0.000122259 0.9996023 -0.02820099
vn 0.0001471705 0.9995938 -0.02849967
vn -4.261253E-05 0.9999998 0.0006497851
vn 0.3208054 0.9457222 0.05189808
vn 0.572319 0.8193639 0.03307448
vn 0.7356597 0.6173081 -0.2788108
vn 0.5862346 0.6586925 -0.4716496
vn 0.3985473 0.6836373 -0.6113919
vn 0.1866013 0.6934021 -0.6959695
vn -0.03882646 0.68866 -0.7240441
vn -0.2678946 0.6691434 -0.6931663
vn -0.4885493 0.6337901 -0.5996913
vn -0.6837068 0.5814694 -0.4409517
vn -0.5342302 0.8204378 -0.2036655
vn -0.8300913 0.5124484 -0.2198752
vn 0.845268 0.485546 0.2230856
vn 0.5784681 0.786761 0.2153642
vn 0.8284586 0.558652 -0.03955329
vn -0.8855304 0.4614213 -0.05409432
vn -0.8300913 0.5124484 -0.2198752
vn -0.7879231 0.5375045 -0.3004435
vn -0.8998771 0.4348263 0.03387417
vn -0.9063419 0.4053248 0.1193995
vn -0.9064922 0.4037429 0.1235461
vn 0.8324394 0.459776 0.3092744
vn 0.8129573 0.4304511 0.3921892
vn 0.8128759 0.4304922 0.3923127
vn 0.845268 0.485546 0.2230856
g GVG_Stove_Door_0
f 3/3/3 2/2/2 1/1/1
f 4/4/4 2/2/2 3/3/3
f 4/4/4 3/3/3 5/5/5
f 5/5/5 3/3/3 6/6/6
f 7/7/7 6/6/6 3/3/3
f 6/6/6 7/7/7 8/8/8
f 8/8/8 7/7/7 9/9/9
f 8/8/8 9/9/9 10/10/10
f 10/10/10 9/9/9 11/11/11
f 12/12/12 10/10/10 11/11/11
f 11/11/11 13/13/13 12/12/12
f 12/12/12 13/13/13 14/14/14
f 14/14/14 13/13/13 15/15/15
f 15/15/15 13/13/13 16/16/16
f 17/17/17 10/10/10 12/12/12
f 18/18/18 17/17/17 12/12/12
f 19/19/19 17/17/17 18/18/18
f 19/19/19 18/18/18 20/20/20
f 20/20/20 18/18/18 21/21/21
f 20/20/20 21/21/21 22/22/22
f 22/22/22 21/21/21 23/23/23
f 22/22/22 23/23/23 24/24/24
f 24/24/24 23/23/23 25/25/25
f 25/25/25 26/26/26 24/24/24
f 27/27/27 24/24/24 26/26/26
f 28/28/28 26/26/26 25/25/25
f 26/26/26 28/28/28 29/29/29
f 30/30/30 29/29/29 28/28/28
f 31/31/31 30/30/30 28/28/28
f 23/23/23 21/21/21 32/32/32
f 32/32/32 21/21/21 33/33/33
f 33/33/33 34/34/34 32/32/32
f 32/32/32 34/34/34 35/35/35
f 34/34/34 36/36/36 35/35/35
f 35/35/35 36/36/36 37/37/37
f 36/36/36 38/38/38 37/37/37
f 37/37/37 38/38/38 39/39/39
f 38/38/38 40/40/40 39/39/39
f 40/40/40 41/41/41 39/39/39
f 39/39/39 41/41/41 42/42/42
f 41/41/41 43/43/43 42/42/42
f 42/42/42 43/43/43 44/44/44
f 45/45/45 40/40/40 38/38/38
f 46/46/46 45/45/45 38/38/38
f 36/36/36 46/46/46 38/38/38
f 47/47/47 45/45/45 46/46/46
f 48/48/48 47/47/47 46/46/46
f 49/49/49 47/47/47 48/48/48
f 50/50/50 49/49/49 48/48/48
f 51/51/51 49/49/49 50/50/50
f 52/52/52 51/51/51 50/50/50
f 53/53/53 51/51/51 52/52/52
f 54/54/54 53/53/53 52/52/52
f 55/55/55 53/53/53 54/54/54
f 41/41/41 56/56/56 43/43/43
f 57/57/57 56/56/56 41/41/41
f 47/47/47 58/58/58 45/45/45
f 58/58/58 59/59/59 45/45/45
f 59/59/59 57/57/57 40/40/40
f 45/45/45 59/59/59 40/40/40
f 40/40/40 57/57/57 41/41/41
f 60/60/60 58/58/58 47/47/47
f 49/49/49 60/60/60 47/47/47
f 61/61/61 60/60/60 49/49/49
f 51/51/51 61/61/61 49/49/49
f 62/62/62 61/61/61 51/51/51
f 53/53/53 62/62/62 51/51/51
f 55/55/55 63/63/63 53/53/53
f 63/63/63 62/62/62 53/53/53
f 64/64/64 63/63/63 55/55/55
f 1/1/1 54/54/54 52/52/52
f 1/1/1 52/52/52 65/65/65
f 65/65/65 52/52/52 50/50/50
f 48/48/48 65/65/65 50/50/50
f 16/16/16 65/65/65 48/48/48
f 16/16/16 48/48/48 15/15/15
f 15/15/15 48/48/48 46/46/46
f 15/15/15 46/46/46 36/36/36
f 2/2/2 54/54/54 1/1/1
f 68/68/68 67/67/67 66/66/66
f 69/69/69 67/67/67 68/68/68
f 69/69/69 68/68/68 70/70/70
f 70/70/70 68/68/68 71/71/71
f 72/72/72 70/70/70 71/71/71
f 73/73/73 70/70/70 72/72/72
f 73/73/73 72/72/72 74/74/74
f 74/74/74 72/72/72 75/75/75
f 76/76/76 74/74/74 75/75/75
f 77/77/77 74/74/74 76/76/76
f 78/78/78 68/68/68 66/66/66
f 79/79/79 68/68/68 78/78/78
f 68/68/68 79/79/79 71/71/71
f 71/71/71 79/79/79 80/80/80
f 80/80/80 72/72/72 71/71/71
f 81/81/81 72/72/72 80/80/80
f 72/72/72 81/81/81 75/75/75
f 75/75/75 81/81/81 82/82/82
f 82/82/82 76/76/76 75/75/75
f 83/83/83 76/76/76 82/82/82
f 31/31/31 84/84/84 30/30/30
f 30/30/30 84/84/84 85/85/85
f 86/86/86 30/30/30 85/85/85
f 84/84/84 42/42/42 85/85/85
f 84/84/84 39/39/39 42/42/42
f 37/37/37 39/39/39 84/84/84
f 85/85/85 42/42/42 44/44/44
f 29/29/29 30/30/30 86/86/86
f 89/89/89 88/88/88 87/87/87
f 87/87/87 88/88/88 90/90/90
f 88/88/88 91/91/91 90/90/90
f 92/92/92 91/91/91 88/88/88
f 92/92/92 88/88/88 93/93/93
f 93/93/93 88/88/88 94/94/94
f 88/88/88 89/89/89 94/94/94
f 91/91/91 95/95/95 90/90/90
f 96/96/96 95/95/95 91/91/91
f 94/94/94 89/89/89 97/97/97
f 95/95/95 98/98/98 90/90/90
f 90/90/90 98/98/98 87/87/87
f 101/101/101 100/100/100 99/99/99
f 102/102/102 100/100/100 101/101/101
f 100/100/100 103/103/103 99/99/99
f 104/104/104 103/103/103 100/100/100
f 104/104/104 105/105/105 103/103/103
f 103/103/103 105/105/105 106/106/106
f 105/105/105 107/107/107 106/106/106
f 108/108/108 107/107/107 105/105/105
f 103/103/103 109/109/109 99/99/99
f 99/99/99 109/109/109 110/110/110
f 110/110/110 101/101/101 99/99/99
f 111/111/111 101/101/101 110/110/110
f 107/107/107 112/112/112 106/106/106
f 106/106/106 112/112/112 113/113/113
f 113/113/113 103/103/103 106/106/106
f 109/109/109 103/103/103 113/113/113
f 116/116/116 115/115/115 114/114/114
f 115/115/115 116/116/116 117/117/117
f 118/118/118 115/115/115 117/117/117
f 119/119/119 118/118/118 117/117/117
f 120/120/120 118/118/118 119/119/119
f 121/121/121 115/115/115 118/118/118
f 121/121/121 122/122/122 115/115/115
f 115/115/115 122/122/122 123/123/123
f 114/114/114 115/115/115 123/123/123
f 122/122/122 124/124/124 123/123/123
f 125/125/125 124/124/124 122/122/122
f 126/126/126 119/119/119 117/117/117
f 117/117/117 116/116/116 126/126/126
f 127/127/127 119/119/119 126/126/126
f 124/124/124 128/128/128 123/123/123
f 123/123/123 128/128/128 114/114/114
f 131/131/131 130/130/130 129/129/129
f 132/132/132 130/130/130 131/131/131
f 130/130/130 133/133/133 129/129/129
f 134/134/134 133/133/133 130/130/130
f 134/134/134 135/135/135 133/133/133
f 133/133/133 136/136/136 129/129/129
f 136/136/136 133/133/133 137/137/137
f 137/137/137 133/133/133 138/138/138
f 133/133/133 139/139/139 138/138/138
f 129/129/129 136/136/136 140/140/140
f 140/140/140 131/131/131 129/129/129
f 141/141/141 131/131/131 140/140/140
f 144/144/144 143/143/143 142/142/142
f 143/143/143 145/145/145 142/142/142
f 148/148/148 147/147/147 146/146/146
f 151/151/151 150/150/150 149/149/149
f 154/154/154 153/153/153 152/152/152
f 155/155/155 153/153/153 154/154/154
f 153/153/153 156/156/156 152/152/152
f 157/157/157 156/156/156 153/153/153
f 157/157/157 158/158/158 156/156/156
f 156/156/156 158/158/158 159/159/159
f 158/158/158 160/160/160 159/159/159
f 161/161/161 160/160/160 158/158/158
f 160/160/160 162/162/162 159/159/159
f 159/159/159 162/162/162 163/163/163
f 163/163/163 156/156/156 159/159/159
f 164/164/164 156/156/156 163/163/163
f 156/156/156 164/164/164 152/152/152
f 152/152/152 164/164/164 165/165/165
f 165/165/165 154/154/154 152/152/152
f 166/166/166 154/154/154 165/165/165
f 169/169/169 168/168/168 167/167/167
f 170/170/170 168/168/168 169/169/169
f 169/169/169 167/167/167 171/171/171
f 171/171/171 167/167/167 172/172/172
f 171/171/171 172/172/172 173/173/173
f 173/173/173 172/172/172 174/174/174
f 173/173/173 174/174/174 175/175/175
f 175/175/175 174/174/174 176/176/176
f 175/175/175 176/176/176 177/177/177
f 177/177/177 176/176/176 178/178/178
f 179/179/179 177/177/177 178/178/178
f 180/180/180 177/177/177 179/179/179
f 170/170/170 181/181/181 168/168/168
f 168/168/168 181/181/181 182/182/182
f 181/181/181 183/183/183 182/182/182
f 182/182/182 183/183/183 184/184/184
f 185/185/185 171/171/171 173/173/173
f 186/186/186 171/171/171 185/185/185
f 186/186/186 169/169/169 171/171/171
f 187/187/187 169/169/169 186/186/186
f 188/188/188 175/175/175 177/177/177
f 180/180/180 188/188/188 177/177/177
f 189/189/189 175/175/175 188/188/188
f 185/185/185 173/173/173 189/189/189
f 189/189/189 173/173/173 175/175/175
f 190/190/190 188/188/188 180/180/180
f 181/181/181 191/191/191 183/183/183
f 192/192/192 191/191/191 181/181/181
f 187/187/187 170/170/170 169/169/169
f 170/170/170 192/192/192 181/181/181
f 193/193/193 170/170/170 187/187/187
f 193/193/193 192/192/192 170/170/170
f 194/194/194 187/187/187 186/186/186
f 195/195/195 187/187/187 194/194/194
f 195/195/195 193/193/193 187/187/187
f 196/196/196 189/189/189 188/188/188
f 190/190/190 196/196/196 188/188/188
f 197/197/197 189/189/189 196/196/196
f 197/197/197 185/185/185 189/189/189
f 198/198/198 185/185/185 197/197/197
f 198/198/198 186/186/186 185/185/185
f 194/194/194 186/186/186 198/198/198
f 199/199/199 193/193/193 195/195/195
f 200/200/200 194/194/194 198/198/198
f 201/201/201 194/194/194 200/200/200
f 202/202/202 195/195/195 201/201/201
f 203/203/203 198/198/198 197/197/197
f 200/200/200 198/198/198 203/203/203
f 204/204/204 197/197/197 196/196/196
f 203/203/203 197/197/197 204/204/204
f 205/205/205 204/204/204 196/196/196
f 205/205/205 196/196/196 190/190/190
f 206/206/206 204/204/204 205/205/205
f 206/206/206 205/205/205 207/207/207
f 207/207/207 205/205/205 208/208/208
f 205/205/205 190/190/190 208/208/208
f 208/208/208 190/190/190 209/209/209
f 208/208/208 209/209/209 210/210/210
f 210/210/210 209/209/209 211/211/211
f 210/210/210 211/211/211 212/212/212
f 212/212/212 211/211/211 213/213/213
f 214/214/214 208/208/208 210/210/210
f 207/207/207 208/208/208 214/214/214
f 215/215/215 210/210/210 212/212/212
f 214/214/214 210/210/210 215/215/215
f 215/215/215 212/212/212 216/216/216
f 216/216/216 212/212/212 217/217/217
f 220/220/220 219/219/219 218/218/218
f 223/223/223 222/222/222 221/221/221
f 224/224/224 222/222/222 223/223/223
f 223/223/223 221/221/221 225/225/225
f 225/225/225 221/221/221 226/226/226
f 225/225/225 226/226/226 227/227/227
f 227/227/227 226/226/226 228/228/228
f 227/227/227 228/228/228 229/229/229
f 229/229/229 228/228/228 230/230/230
f 229/229/229 230/230/230 231/231/231
f 231/231/231 230/230/230 232/232/232
f 231/231/231 232/232/232 233/233/233
f 233/233/233 232/232/232 234/234/234
f 233/233/233 234/234/234 235/235/235
f 235/235/235 234/234/234 236/236/236
f 235/235/235 236/236/236 237/237/237
f 237/237/237 236/236/236 238/238/238
f 237/237/237 238/238/238 239/239/239
f 239/239/239 238/238/238 240/240/240
f 239/239/239 240/240/240 241/241/241
f 241/241/241 240/240/240 242/242/242
f 241/241/241 242/242/242 243/243/243
f 243/243/243 242/242/242 244/244/244
f 243/243/243 244/244/244 245/245/245
f 245/245/245 244/244/244 246/246/246
f 245/245/245 246/246/246 247/247/247
f 247/247/247 246/246/246 248/248/248
f 247/247/247 248/248/248 224/224/224
f 224/224/224 248/248/248 222/222/222
f 251/251/251 250/250/250 249/249/249
f 249/249/249 250/250/250 252/252/252
f 252/252/252 250/250/250 253/253/253
f 252/252/252 253/253/253 254/254/254
f 254/254/254 253/253/253 255/255/255
f 254/254/254 255/255/255 256/256/256
f 256/256/256 255/255/255 257/257/257
f 258/258/258 250/250/250 251/251/251
f 251/251/251 259/259/259 258/258/258
f 260/260/260 259/259/259 251/251/251
f 260/260/260 261/261/261 259/259/259
f 262/262/262 261/261/261 260/260/260
f 262/262/262 263/263/263 261/261/261
f 264/264/264 263/263/263 262/262/262
f 264/264/264 265/265/265 263/263/263
f 266/266/266 265/265/265 264/264/264
f 255/255/255 267/267/267 257/257/257
f 257/257/257 267/267/267 268/268/268
f 267/267/267 269/269/269 268/268/268
f 268/268/268 269/269/269 270/270/270
f 268/268/268 270/270/270 271/271/271
f 271/271/271 270/270/270 272/272/272
f 269/269/269 273/273/273 270/270/270
f 270/270/270 273/273/273 274/274/274
f 270/270/270 274/274/274 275/275/275
f 269/269/269 276/276/276 273/273/273
f 267/267/267 277/277/277 269/269/269
f 278/278/278 276/276/276 269/269/269
f 279/279/279 277/277/277 267/267/267
f 275/275/275 274/274/274 280/280/280
f 281/281/281 268/268/268 271/271/271
f 257/257/257 268/268/268 281/281/281
f 255/255/255 279/279/279 267/267/267
f 253/253/253 279/279/279 255/255/255
f 253/253/253 282/282/282 279/279/279
f 282/282/282 283/283/283 279/279/279
f 279/279/279 283/283/283 284/284/284
f 285/285/285 283/283/283 282/282/282
f 286/286/286 283/283/283 285/285/285
f 285/285/285 287/287/287 286/286/286
f 288/288/288 287/287/287 285/285/285
f 286/286/286 289/289/289 283/283/283
f 283/283/283 289/289/289 290/290/290
f 286/286/286 291/291/291 289/289/289
f 250/250/250 282/282/282 253/253/253
f 250/250/250 285/285/285 282/282/282
f 258/258/258 285/285/285 250/250/250
f 258/258/258 288/288/288 285/285/285
f 259/259/259 288/288/288 258/258/258
f 259/259/259 292/292/292 288/288/288
f 292/292/292 293/293/293 288/288/288
f 288/288/288 293/293/293 294/294/294
f 292/292/292 295/295/295 293/293/293
f 296/296/296 295/295/295 292/292/292
f 296/296/296 297/297/297 295/295/295
f 298/298/298 297/297/297 296/296/296
f 295/295/295 299/299/299 293/293/293
f 293/293/293 299/299/299 300/300/300
f 293/293/293 300/300/300 301/301/301
f 301/301/301 300/300/300 302/302/302
f 297/297/297 303/303/303 295/295/295
f 295/295/295 303/303/303 304/304/304
f 297/297/297 305/305/305 303/303/303
f 306/306/306 305/305/305 297/297/297
f 261/261/261 292/292/292 259/259/259
f 261/261/261 296/296/296 292/292/292
f 263/263/263 296/296/296 261/261/261
f 263/263/263 298/298/298 296/296/296
f 265/265/265 298/298/298 263/263/263
f 309/309/309 308/308/308 307/307/307
f 307/307/307 308/308/308 310/310/310
f 310/310/310 308/308/308 311/311/311
f 312/312/312 308/308/308 309/309/309
f 313/313/313 312/312/312 309/309/309
f 314/314/314 312/312/312 313/313/313
f 315/315/315 314/314/314 313/313/313
f 316/316/316 314/314/314 315/315/315
f 315/315/315 317/317/317 316/316/316
f 316/316/316 317/317/317 318/318/318
f 317/317/317 319/319/319 318/318/318
f 320/320/320 319/319/319 317/317/317
f 308/308/308 321/321/321 311/311/311
f 311/311/311 321/321/321 322/322/322
f 321/321/321 323/323/323 322/322/322
f 322/322/322 323/323/323 324/324/324
f 314/314/314 325/325/325 312/312/312
f 314/314/314 326/326/326 325/325/325
f 316/316/316 326/326/326 314/314/314
f 316/316/316 318/318/318 326/326/326
f 326/326/326 327/327/327 325/325/325
f 327/327/327 328/328/328 325/325/325
f 325/325/325 328/328/328 329/329/329
f 329/329/329 330/330/330 321/321/321
f 331/331/331 327/327/327 326/326/326
f 331/331/331 326/326/326 332/332/332
f 332/332/332 326/326/326 333/333/333
f 326/326/326 318/318/318 333/333/333
f 331/331/331 334/334/334 327/327/327
f 327/327/327 334/334/334 335/335/335
f 327/327/327 335/335/335 336/336/336
f 336/336/336 335/335/335 337/337/337
f 312/312/312 325/325/325 329/329/329
f 312/312/312 329/329/329 308/308/308
f 308/308/308 329/329/329 321/321/321
f 340/340/340 339/339/339 338/338/338
f 343/343/343 342/342/342 341/341/341
f 346/346/346 345/345/345 344/344/344
f 349/349/349 348/348/348 347/347/347
f 348/348/348 350/350/350 347/347/347
f 350/350/350 351/351/351 347/347/347
f 350/350/350 352/352/352 351/351/351
f 352/352/352 353/353/353 351/351/351
f 352/352/352 354/354/354 353/353/353
f 355/355/355 354/354/354 352/352/352
f 355/355/355 356/356/356 354/354/354
f 357/357/357 356/356/356 355/355/355
f 357/357/357 358/358/358 356/356/356
f 359/359/359 358/358/358 357/357/357
f 351/351/351 353/353/353 360/360/360
f 351/351/351 360/360/360 361/361/361
f 347/347/347 351/351/351 361/361/361
f 361/361/361 360/360/360 362/362/362
f 363/363/363 361/361/361 362/362/362
f 364/364/364 361/361/361 363/363/363
f 364/364/364 347/347/347 361/361/361
f 365/365/365 359/359/359 357/357/357
f 366/366/366 359/359/359 365/365/365
f 367/367/367 357/357/357 355/355/355
f 365/365/365 357/357/357 367/367/367
f 367/367/367 355/355/355 368/368/368
f 368/368/368 355/355/355 352/352/352
f 368/368/368 352/352/352 350/350/350
f 369/369/369 368/368/368 350/350/350
f 370/370/370 368/368/368 369/369/369
f 369/369/369 350/350/350 348/348/348
f 371/371/371 347/347/347 364/364/364
f 373/373/373 369/369/369 372/372/372
f 376/376/376 375/375/375 374/374/374
f 377/377/377 375/375/375 376/376/376
f 377/377/377 376/376/376 378/378/378
f 378/378/378 376/376/376 379/379/379
f 378/378/378 379/379/379 380/380/380
f 380/380/380 379/379/379 381/381/381
f 380/380/380 381/381/381 382/382/382
f 382/382/382 381/381/381 383/383/383
f 382/382/382 383/383/383 384/384/384
f 384/384/384 383/383/383 385/385/385
f 384/384/384 385/385/385 386/386/386
f 386/386/386 385/385/385 387/387/387
f 375/375/375 388/388/388 374/374/374
f 389/389/389 388/388/388 375/375/375
f 390/390/390 382/382/382 384/384/384
f 386/386/386 390/390/390 384/384/384
f 391/391/391 382/382/382 390/390/390
f 391/391/391 380/380/380 382/382/382
f 391/391/391 390/390/390 392/392/392
f 392/392/392 390/390/390 393/393/393
f 394/394/394 380/380/380 391/391/391
f 394/394/394 391/391/391 395/395/395
f 395/395/395 391/391/391 396/396/396
f 397/397/397 394/394/394 395/395/395
f 398/398/398 394/394/394 397/397/397
f 399/399/399 398/398/398 397/397/397
f 400/400/400 398/398/398 399/399/399
f 401/401/401 400/400/400 399/399/399
f 402/402/402 400/400/400 401/401/401
f 403/403/403 389/389/389 402/402/402
f 403/403/403 402/402/402 404/404/404
f 404/404/404 402/402/402 405/405/405
f 406/406/406 403/403/403 404/404/404
f 407/407/407 403/403/403 406/406/406
f 398/398/398 378/378/378 394/394/394
f 394/394/394 378/378/378 380/380/380
f 398/398/398 377/377/377 378/378/378
f 400/400/400 377/377/377 398/398/398
f 400/400/400 375/375/375 377/377/377
f 402/402/402 375/375/375 400/400/400
f 402/402/402 389/389/389 375/375/375
f 403/403/403 408/408/408 389/389/389
f 407/407/407 408/408/408 403/403/403
f 409/409/409 407/407/407 406/406/406
f 410/410/410 407/407/407 409/409/409
f 413/413/413 412/412/412 411/411/411
f 399/399/399 415/415/415 414/414/414
f 397/397/397 415/415/415 399/399/399
f 397/397/397 416/416/416 415/415/415
f 395/395/395 416/416/416 397/397/397
f 395/395/395 417/417/417 416/416/416
f 420/420/420 419/419/419 418/418/418
f 423/423/423 422/422/422 421/421/421
f 424/424/424 422/422/422 423/423/423
f 427/427/427 426/426/426 425/425/425
f 430/430/430 429/429/429 428/428/428
f 428/428/428 429/429/429 431/431/431
f 428/428/428 433/433/433 432/432/432
f 432/432/432 435/435/435 434/434/434
f 432/432/432 434/434/434 436/436/436
f 436/436/436 434/434/434 437/437/437
f 436/436/436 439/439/439 438/438/438
f 441/441/441 439/439/439 440/440/440
f 441/441/441 440/440/440 442/442/442
f 444/444/444 443/443/443 286/286/286
f 447/447/447 446/446/446 445/445/445
f 448/448/448 446/446/446 447/447/447
f 449/449/449 448/448/448 447/447/447
f 450/450/450 448/448/448 449/449/449
f 451/451/451 450/450/450 449/449/449
f 452/452/452 450/450/450 451/451/451
f 452/452/452 451/451/451 453/453/453
f 453/453/453 451/451/451 454/454/454
f 453/453/453 454/454/454 455/455/455
f 455/455/455 454/454/454 456/456/456
f 455/455/455 456/456/456 457/457/457
f 457/457/457 456/456/456 458/458/458
f 459/459/459 455/455/455 457/457/457
f 460/460/460 455/455/455 459/459/459
f 460/460/460 453/453/453 455/455/455
f 461/461/461 453/453/453 460/460/460
f 461/461/461 452/452/452 453/453/453
f 461/461/461 460/460/460 462/462/462
f 463/463/463 461/461/461 462/462/462
f 464/464/464 452/452/452 461/461/461
f 465/465/465 450/450/450 452/452/452
f 457/457/457 458/458/458 466/466/466
f 466/466/466 458/458/458 467/467/467
f 469/469/469 460/460/460 468/468/468
f 471/471/471 465/465/465 470/470/470
f 463/463/463 473/473/473 472/472/472
f 476/476/476 475/475/475 474/474/474
f 479/479/479 478/478/478 477/477/477
f 482/482/482 481/481/481 480/480/480
f 483/483/483 481/481/481 482/482/482
f 484/484/484 483/483/483 482/482/482
f 485/485/485 483/483/483 484/484/484
f 484/484/484 486/486/486 485/485/485
f 488/488/488 480/480/480 487/487/487
f 489/489/489 480/480/480 488/488/488
f 491/491/491 450/450/450 490/490/490
f 491/491/491 448/448/448 450/450/450
f 494/494/494 493/493/493 492/492/492
f 495/495/495 493/493/493 494/494/494
f 495/495/495 496/496/496 493/493/493
f 499/499/499 498/498/498 497/497/497
f 500/500/500 498/498/498 499/499/499
f 503/503/503 502/502/502 501/501/501
f 506/506/506 505/505/505 504/504/504
f 508/508/508 506/506/506 507/507/507
f 510/510/510 506/506/506 509/509/509
f 513/513/513 512/512/512 511/511/511
f 516/516/516 515/515/515 514/514/514
f 517/517/517 515/515/515 516/516/516
f 520/520/520 519/519/519 518/518/518
f 522/522/522 519/519/519 521/521/521
f 524/524/524 522/522/522 523/523/523
f 526/526/526 522/522/522 525/525/525
f 526/526/526 525/525/525 527/527/527
f 527/527/527 525/525/525 528/528/528
f 531/531/531 530/530/530 529/529/529
f 534/534/534 533/533/533 532/532/532
f 537/537/537 536/536/536 535/535/535
f 540/540/540 539/539/539 538/538/538
f 543/543/543 542/542/542 541/541/541
f 543/543/543 386/386/386 542/542/542
f 544/544/544 386/386/386 543/543/543
f 544/544/544 390/390/390 386/386/386
f 547/547/547 546/546/546 545/545/545
f 550/550/550 549/549/549 548/548/548
f 553/553/553 552/552/552 551/551/551
f 556/556/556 555/555/555 554/554/554
f 556/556/556 554/554/554 557/557/557
f 556/556/556 557/557/557 558/558/558
f 556/556/556 558/558/558 559/559/559
f 556/556/556 559/559/559 560/560/560
f 556/556/556 560/560/560 561/561/561
f 556/556/556 561/561/561 562/562/562
f 556/556/556 562/562/562 563/563/563
f 556/556/556 563/563/563 564/564/564
f 556/556/556 564/564/564 565/565/565
f 566/566/566 556/556/556 565/565/565
f 556/556/556 566/566/566 567/567/567
f 556/556/556 567/567/567 568/568/568
f 556/556/556 568/568/568 555/555/555
f 557/557/557 569/569/569 558/558/558
f 557/557/557 570/570/570 569/569/569
f 571/571/571 570/570/570 557/557/557
f 558/558/558 569/569/569 572/572/572
f 558/558/558 572/572/572 559/559/559
f 559/559/559 572/572/572 573/573/573
f 559/559/559 573/573/573 560/560/560
f 560/560/560 573/573/573 574/574/574
f 560/560/560 574/574/574 575/575/575
f 575/575/575 574/574/574 576/576/576
f 578/578/578 576/576/576 577/577/577
f 577/577/577 576/576/576 579/579/579
f 577/577/577 579/579/579 580/580/580
f 580/580/580 579/579/579 581/581/581
f 580/580/580 581/581/581 582/582/582
f 582/582/582 581/581/581 583/583/583
f 586/586/586 585/585/585 584/584/584
f 584/584/584 585/585/585 587/587/587
f 586/586/586 588/588/588 585/585/585
f 589/589/589 588/588/588 586/586/586
f 589/589/589 590/590/590 588/588/588
f 591/591/591 590/590/590 589/589/589
f 591/591/591 592/592/592 590/590/590
f 593/593/593 592/592/592 591/591/591
f 596/596/596 595/595/595 594/594/594
f 597/597/597 595/595/595 596/596/596
f 600/600/600 599/599/599 598/598/598
f 600/600/600 598/598/598 601/601/601
f 600/600/600 601/601/601 602/602/602
f 600/600/600 602/602/602 603/603/603
f 600/600/600 603/603/603 604/604/604
f 600/600/600 604/604/604 605/605/605
f 600/600/600 605/605/605 606/606/606
f 600/600/600 606/606/606 607/607/607
f 600/600/600 607/607/607 608/608/608
f 600/600/600 608/608/608 609/609/609
f 610/610/610 600/600/600 609/609/609
f 600/600/600 610/610/610 611/611/611
f 600/600/600 611/611/611 612/612/612
f 600/600/600 612/612/612 599/599/599
f 599/599/599 613/613/613 598/598/598
f 598/598/598 613/613/613 614/614/614
f 598/598/598 614/614/614 601/601/601
f 601/601/601 614/614/614 615/615/615
f 601/601/601 615/615/615 602/602/602
f 602/602/602 615/615/615 616/616/616
f 602/602/602 616/616/616 603/603/603
f 603/603/603 616/616/616 617/617/617
f 603/603/603 617/617/617 604/604/604
f 604/604/604 617/617/617 618/618/618
f 604/604/604 618/618/618 605/605/605
f 605/605/605 618/618/618 619/619/619
f 605/605/605 619/619/619 606/606/606
f 606/606/606 619/619/619 620/620/620
f 606/606/606 620/620/620 621/621/621
f 621/621/621 620/620/620 622/622/622
f 624/624/624 623/623/623 612/612/612
f 612/612/612 623/623/623 625/625/625
f 599/599/599 625/625/625 613/613/613
f 612/612/612 625/625/625 599/599/599
f 628/628/628 627/627/627 626/626/626
f 626/626/626 627/627/627 629/629/629
f 626/626/626 629/629/629 630/630/630
f 630/630/630 629/629/629 631/631/631
f 634/634/634 633/633/633 632/632/632
f 632/632/632 633/633/633 635/635/635
