g GVG_Stove_BombBall2_mesh
v 490.753 61.19967 -203.2589
v 481.2923 59.05094 -217.8144
v 484.3145 58.42076 -199.9923
v 479.0148 58.06799 -216.659
v 483.0065 60.25343 -219.5761
v 495.5992 64.59923 -208.2393
v 483.9897 61.55775 -221.7716
v 498.3788 68.28666 -214.4461
v 484.1455 62.83623 -224.186
v 498.8195 71.90101 -221.2718
v 483.4588 63.9637 -226.5829
v 496.8782 75.08849 -228.0482
v 481.9969 64.82981 -228.7278
v 492.7451 77.53708 -234.112
v 479.9027 65.34979 -230.4106
v 486.8246 79.0071 -238.8695
v 477.3813 65.47272 -231.4667
v 479.6963 79.35464 -241.8552
v 474.6794 65.18658 -231.7927
v 472.058 78.54571 -242.7767
v 472.0616 64.51939 -231.3566
v 464.6573 76.65946 -241.5439
v 469.7842 63.53643 -230.2012
v 458.2187 73.88055 -238.2774
v 468.07 62.33394 -228.4395
v 453.3725 70.481 -233.297
v 467.0868 61.02962 -226.244
v 450.593 66.79356 -227.0901
v 466.9309 59.75115 -223.8296
v 450.1522 63.17921 -220.2645
v 467.6176 58.62367 -221.4327
v 452.0935 59.99174 -213.4881
v 469.0796 57.75756 -219.2878
v 456.2267 57.54315 -207.4243
v 471.1738 57.23758 -217.605
v 462.1472 56.07314 -202.6667
v 473.6952 57.11464 -216.5489
v 469.2755 55.72559 -199.6811
v 476.3971 57.40078 -216.2229
v 476.9138 56.53452 -198.7596
v 437.36 77.85297 -224.1636
v 441.4552 83.2859 -233.3086
v 436.7107 72.52769 -214.1068
v 439.5708 67.83135 -204.1227
v 445.6605 64.22366 -195.1886
v 454.3836 62.0578 -188.1789
v 464.8862 61.54572 -183.7799
v 476.1403 62.73759 -182.4221
v 487.0443 65.51671 -184.2385
v 496.5306 69.61108 -189.0513
v 503.6709 74.61989 -196.3893
v 507.7662 80.05283 -205.5343
v 508.4155 85.37811 -215.5911
v 505.5553 90.07446 -225.5752
v 499.4657 93.68214 -234.5093
v 490.7426 95.84801 -241.519
v 480.2399 96.36008 -245.918
v 505.537 81.24793 -190.9186
v 497.6955 75.74734 -182.8601
v 510.0342 87.21432 -200.9615
v 510.7473 93.06247 -212.0057
v 505.8258 88.58275 -186.0752
v 497.626 82.83076 -177.6484
v 487.2777 71.25096 -177.5748
v 475.3032 68.19897 -175.5801
v 462.9441 66.89008 -177.0711
v 451.4103 67.45242 -181.902
v 441.8307 69.83097 -189.5999
v 435.1431 73.79286 -199.4113
v 432.0021 78.9503 -210.3757
v 432.7152 84.79846 -221.4199
v 437.2125 90.76484 -231.4628
v 448.5956 88.29471 -240.6466
v 458.0819 92.38908 -245.4594
v 445.0539 96.26543 -239.5213
v 434.3788 98.5346 -228.4723
v 442.5786 104.2866 -236.8991
v 429.676 92.29552 -217.9704
v 428.9303 86.18011 -206.4215
v 432.2148 80.78696 -194.956
v 428.3752 100.0165 -213.966
v 433.078 106.2556 -224.4678
v 427.6295 93.90112 -202.417
v 430.914 88.50797 -190.9515
v 437.9073 84.365 -180.6918
v 439.2081 76.644 -184.6963
v 449.2255 74.15675 -176.6465
v 461.2864 73.5687 -171.5948
v 474.2103 74.93741 -170.0356
v 486.7321 78.12889 -172.1215
v 496.3252 90.55176 -173.6439
v 485.4313 85.84989 -168.1171
v 504.525 96.30375 -182.0707
v 459.9856 81.2897 -167.5904
v 447.9247 81.87775 -172.6421
v 472.9095 82.65841 -166.0312
v 493.85 98.57291 -171.0218
v 483.4321 94.07654 -165.7364
v 501.6913 104.0735 -179.0802
v 447.5646 90.27798 -170.0637
v 437.9851 92.65653 -177.7616
v 431.2975 96.61844 -187.573
v 428.1565 101.7759 -198.5373
v 428.8696 107.624 -209.5815
v 459.0985 89.71564 -165.2328
v 471.4576 91.02454 -163.7417
v 490.3083 106.5436 -169.8964
v 480.8219 102.4493 -165.0837
v 433.3485 104.7639 -184.9678
v 430.4883 109.4602 -194.952
v 439.4382 101.1562 -176.0337
v 448.1613 98.99033 -169.024
v 469.918 99.67013 -163.2673
v 458.6639 98.47826 -164.625
v 442.203 109.4926 -175.5836
v 436.9774 112.5884 -183.2501
v 449.6884 107.634 -169.5686
v 458.7008 107.1946 -165.7937
v 468.358 108.2173 -164.6286
v 468.9859 95.16821 -247.2757
v 505.5553 90.07446 -225.5752
v 508.4155 85.37811 -215.5911
v 507.6064 98.21992 -222.9701
v 510.7473 93.06247 -212.0057
v 500.9188 102.1818 -232.7814
v 499.4657 93.68214 -234.5093
v 491.3392 104.5604 -240.4793
v 490.7426 95.84801 -241.519
v 479.8054 105.1227 -245.3103
v 480.2399 96.36008 -245.918
v 507.9898 106.3304 -219.5915
v 511.2744 100.9372 -208.126
v 510.0342 87.21432 -200.9615
v 510.5287 94.82181 -196.5771
v 500.9966 110.4734 -229.8512
v 490.9792 112.9606 -237.9009
v 478.9182 113.5486 -242.9527
v 465.9944 112.1799 -244.5119
v 467.4463 103.8138 -246.8013
v 468.9859 95.16821 -247.2757
v 455.4717 100.7618 -244.8066
v 458.0819 92.38908 -245.4594
v 453.4725 108.9884 -242.426
v 442.5786 104.2866 -236.8991
v 445.0539 96.26543 -239.5213
v 448.5956 88.29471 -240.6466
v 489.6784 120.6816 -233.8965
v 499.6957 118.1944 -225.8468
v 506.689 114.0514 -215.587
v 509.9735 108.6582 -204.1215
v 509.2279 102.5428 -192.5726
v 505.8258 88.58275 -186.0752
v 504.525 96.30375 -182.0707
v 441.2778 112.0076 -232.8946
v 433.078 106.2556 -224.4678
v 506.1887 110.0399 -189.1231
v 501.6913 104.0735 -179.0802
v 506.9018 115.888 -200.1673
v 503.7607 121.0455 -211.1318
v 497.0732 125.0074 -220.9431
v 487.4936 127.3859 -228.641
v 475.9598 127.9483 -233.4719
v 477.6175 121.2696 -238.9482
v 464.6935 119.9009 -240.5074
v 452.1717 116.7094 -238.4215
v 463.6006 126.6394 -234.963
v 451.6261 123.5874 -232.9682
v 441.2083 119.091 -227.6829
v 433.3669 113.5904 -219.6244
v 428.8696 107.624 -209.5815
v 428.3752 100.0165 -213.966
v 462.7635 132.1008 -228.1209
v 451.8596 129.3216 -226.3045
v 442.3732 125.2272 -221.4917
v 435.2329 120.2184 -214.1537
v 431.1377 114.7855 -205.0087
v 430.4883 109.4602 -194.952
v 428.1565 101.7759 -198.5373
v 452.862 133.6616 -218.7215
v 462.2188 136.0464 -220.2802
v 474.0176 133.2926 -226.7631
v 484.5203 132.7805 -222.3641
v 493.2433 130.6147 -215.3544
v 499.333 127.007 -206.4203
v 502.1932 122.3107 -196.4362
v 501.5439 116.9854 -186.3795
v 497.4487 111.5524 -177.2345
v 493.85 98.57291 -171.0218
v 490.3083 106.5436 -169.8964
v 491.9823 118.4137 -176.614
v 485.8552 114.1156 -170.3172
v 480.8219 102.4493 -165.0837
v 477.7148 110.6021 -166.1873
v 495.4965 123.0757 -184.4614
v 496.0537 127.6454 -193.0912
v 493.5993 131.6754 -201.6587
v 488.3738 134.7712 -209.3252
v 469.918 99.67013 -163.2673
v 468.358 108.2173 -164.6286
v 480.6852 120.9578 -172.2656
v 474.2465 118.1789 -168.9991
v 485.5314 124.3573 -177.246
v 488.3109 128.0448 -183.4529
v 488.7516 131.6591 -190.2786
v 486.8103 134.8466 -197.0549
v 482.6772 137.2952 -203.1187
v 476.7567 138.7652 -207.8763
v 480.8884 136.6297 -215.3402
v 471.876 137.0691 -219.115
v 469.6284 139.1128 -210.862
v 461.9901 138.3038 -211.7835
v 454.5894 136.4176 -210.5507
v 448.1508 133.6387 -207.2841
v 444.7216 130.1482 -214.5916
v 438.5945 125.8501 -208.2948
v 435.0803 121.188 -200.4474
v 434.5231 116.6183 -191.8176
v 436.9774 112.5884 -183.2501
v 433.3485 104.7639 -184.9678
v 443.3046 130.2391 -202.3037
v 440.525 126.5517 -196.0969
v 440.0844 122.9373 -189.2712
v 442.0256 119.7498 -182.4948
v 446.1588 117.3013 -176.4311
v 442.203 109.4926 -175.5836
v 452.0792 115.8312 -171.6735
v 449.6884 107.634 -169.5686
v 459.2076 115.4837 -168.6879
v 458.7008 107.1946 -165.7937
v 466.8459 116.2926 -167.7663
v 455.8974 134.5849 -190.9669
v 457.6116 135.7874 -192.7286
v 459.8891 136.7703 -193.884
v 462.5068 137.4376 -194.3201
v 465.2086 137.7237 -193.9941
v 467.7301 137.6008 -192.938
v 469.8242 137.0808 -191.2552
v 470.5942 136.08 -189.0755
v 470.981 135.0327 -186.381
v 471.2666 133.7927 -184.4469
v 470.8338 132.5044 -182.1035
v 469.1197 131.3019 -180.3418
v 466.8422 130.319 -179.1864
v 464.2244 129.6517 -178.7503
v 461.5226 129.3656 -179.0763
v 459.0011 129.4885 -180.1324
v 456.907 130.0085 -181.8152
v 455.445 130.8746 -183.9601
v 454.7583 132.0021 -186.357
v 454.9142 133.2806 -188.7714
v 510.5287 94.82181 -196.5771
v 434.3788 98.5346 -228.4723
v 475.6742 60.48662 -224.4264
v 456.3676 136.9135 -183.0108
v 465.5213 130.5 -175.4481
v 461.9352 128.4751 -174.1296
v 468.0798 132.9441 -177.5909
v 469.5565 135.5781 -180.4182
v 457.6031 127.0641 -173.7398
v 453.1299 126.4142 -174.3811
v 448.919 126.5874 -175.9786
v 469.8069 138.1442 -183.6531
v 468.806 140.3911 -186.979
v 466.6522 142.099 -190.0703
v 463.5564 143.1006 -192.6246
v 459.8213 143.298 -194.3915
v 455.8127 142.6718 -195.1984
v 451.923 141.2832 -194.9661
v 448.533 139.2683 -193.7174
v 445.8118 136.8159 -191.5167
v 443.8592 134.1577 -188.5199
v 443.1444 131.568 -185.1196
v 443.6693 129.2969 -181.6241
v 445.823 127.589 -178.5328
v 443.6693 129.2969 -181.6241
v 443.665 127.8631 -199.2078
v 447.0186 130.2155 -202.6541
v 448.533 139.2683 -193.7174
v 441.7417 125.3114 -194.9128
v 441.4368 122.8104 -190.1895
v 468.806 140.3911 -186.979
v 475.1136 128.8457 -190.8866
v 469.8069 138.1442 -183.6531
v 474.8086 126.3446 -186.1634
v 469.5565 135.5781 -180.4182
v 473.7703 131.0513 -195.5758
v 466.6522 142.099 -190.0703
v 470.9102 132.7457 -199.7717
v 463.5564 143.1006 -192.6246
v 466.8133 133.763 -203.0639
v 459.8213 143.298 -194.3915
v 461.8806 134.0034 -205.1299
v 455.8127 142.6718 -195.1984
v 456.5951 133.4437 -205.7676
v 451.923 141.2832 -194.9661
v 451.474 132.1384 -204.9145
v 448.533 139.2683 -193.7174
v 447.0186 130.2155 -202.6541
v 472.8853 123.793 -181.8684
v 468.0798 132.9441 -177.5909
v 469.5317 121.4405 -178.422
v 469.5317 121.4405 -178.422
v 465.0764 119.5176 -176.1616
v 465.5213 130.5 -175.4481
v 461.9352 128.4751 -174.1296
v 468.0798 132.9441 -177.5909
v 459.9552 118.2124 -175.3085
v 457.6031 127.0641 -173.7398
v 454.6696 117.6526 -175.9462
v 453.1299 126.4142 -174.3811
v 449.737 117.8931 -178.0122
v 448.919 126.5874 -175.9786
v 445.6401 118.9103 -181.3044
v 445.823 127.589 -178.5328
v 442.78 120.6047 -185.5004
v 443.6693 129.2969 -181.6241
v 442.78 120.6047 -185.5004
v 441.4368 122.8104 -190.1895
v 443.6693 129.2969 -181.6241
v 443.6693 129.2969 -181.6241
v 443.1444 131.568 -185.1196
v 459.0984 133.4424 -180.6433
v 457.9841 132.5521 -180.2684
v 457.3998 137.712 -173.8055
v 456.2162 137.1958 -173.0928
v 458.2546 138.4511 -174.753
v 459.8984 134.4784 -181.3229
v 458.6971 139.3406 -175.843
v 460.3057 135.5584 -182.2407
v 456.6645 131.8945 -180.235
v 454.8199 136.9529 -172.6851
v 455.2688 131.534 -180.5464
v 453.3475 137.0071 -172.622
v 453.9334 131.5059 -181.1719
v 451.9431 137.3531 -172.9099
v 452.7895 131.813 -182.0505
v 450.7442 137.9571 -173.5205
v 451.9486 132.4252 -183.0961
v 449.8681 138.7599 -174.394
v 451.4933 133.2825 -184.2063
v 449.4006 139.6828 -175.445
v 451.4681 134.301 -185.2725
v 449.3875 140.6357 -176.5705
v 450.2875 140.8277 -169.2849
v 450.0811 142.1549 -169.894
v 450.9294 139.593 -168.7966
v 451.7586 138.5414 -168.704
v 453.0468 137.8334 -168.5842
v 454.4823 137.5081 -168.676
v 451.8805 140.4991 -163.3667
v 451.9357 138.8747 -162.605
v 453.6669 138.6435 -155.5399
v 454.8463 136.6348 -155.267
v 453.6605 137.3158 -162.3825
v 456.486 134.968 -155.4523
v 455.1221 136.1348 -162.4132
v 457.4735 133.4953 -155.7871
v 455.9579 135.5285 -162.3178
v 459.3722 132.7865 -157.2525
v 457.437 135.2014 -163.3762
v 461.9109 132.7149 -158.9941
v 459.5405 135.4395 -164.2862
v 463.9655 133.5233 -160.5733
v 461.0838 136.2701 -165.3673
v 457.2327 138.0921 -169.4384
v 458.2783 138.9443 -170.0345
v 455.9246 137.5972 -168.9704
v 458.9591 140.0705 -170.7002
v 459.2086 141.3603 -171.3704
v 465.9657 134.8414 -163.3134
v 461.5305 137.7411 -165.965
v 461.8923 139.284 -166.9079
v 466.4429 136.6442 -164.5365
v 465.7134 138.7219 -165.4966
v 461.4279 140.9814 -167.6902
v 453.0628 140.7974 -156.2443
v 452.0858 142.1913 -164.0617
v 453.0933 142.8858 -157.3112
v 458.9761 139.8627 -159.2794
v 453.0628 140.7974 -156.2443
v 453.0933 142.8858 -157.3112
v 453.6669 138.6435 -155.5399
v 454.8463 136.6348 -155.267
v 456.486 134.968 -155.4523
v 457.4735 133.4953 -155.7871
v 459.3722 132.7865 -157.2525
v 454.9597 146.0556 -159.9763
v 457.7187 146.6295 -162.224
v 461.5027 144.9363 -163.9089
v 465.1094 140.8758 -166.201
v 465.7134 138.7219 -165.4966
v 466.4429 136.6442 -164.5365
v 461.9109 132.7149 -158.9941
v 463.9655 133.5233 -160.5733
v 465.9657 134.8414 -163.3134
v 455.4188 146.2537 -167.4415
v 461.5027 144.9363 -163.9089
v 457.7187 146.6295 -162.224
v 458.7437 145.2987 -168.4682
v 465.1094 140.8758 -166.201
v 456.0575 145.6516 -172.9072
v 458.3604 143.9222 -172.4676
v 456.1416 142.6231 -179.5035
v 458.2166 141.2164 -178.0194
v 457.8404 138.3535 -186.3414
v 459.8252 137.4343 -184.4172
v 460.2805 136.577 -183.307
v 458.6841 140.2934 -176.9685
v 460.3057 135.5584 -182.2407
v 458.6971 139.3406 -175.843
v 459.0023 142.6875 -171.9794
v 459.2086 141.3603 -171.3704
v 461.4279 140.9814 -167.6902
v 460.8047 142.6695 -168.285
v 455.1093 137.965 -187.2783
v 453.2647 143.0233 -179.7283
v 452.6754 136.4171 -186.8699
v 450.6849 142.2642 -178.608
v 451.4681 134.301 -185.2725
v 449.3875 140.6357 -176.5705
v 453.1797 145.8878 -172.5211
v 451.0114 144.5708 -171.2298
v 450.0811 142.1549 -169.894
v 453.244 145.0028 -166.1005
v 452.0858 142.1913 -164.0617
v 454.9597 146.0556 -159.9763
v 453.0933 142.8858 -157.3112
v 451.8805 140.4991 -163.3667
v 460.8047 142.6695 -168.285
v 465.1094 140.8758 -166.201
v 458.7437 145.2987 -168.4682
v 460.8047 142.6695 -168.285
v 461.4279 140.9814 -167.6902
v 465.1094 140.8758 -166.201
v 465.7134 138.7219 -165.4966
v 460.8047 142.6695 -168.285
v 461.8923 139.284 -166.9079
vt 0.953052 0.869451
vt 0.935014 0.840073
vt 0.941141 0.87495
vt 0.930809 0.84203
vt 0.938051 0.83699
vt 0.961681 0.860763
vt 0.939622 0.833082
vt 0.966172 0.849721
vt 0.939571 0.82873
vt 0.966067 0.837394
vt 0.937899 0.824359
vt 0.961355 0.824991
vt 0.93477 0.8204
vt 0.952483 0.813737
vt 0.930488 0.817241
vt 0.940319 0.804751
vt 0.925475 0.815195
vt 0.926063 0.798928
vt 0.920223 0.814462
vt 0.91113 0.79685
vt 0.91525 0.815114
vt 0.897004 0.798718
vt 0.911044 0.817086
vt 0.885082 0.804338
vt 0.908016 0.820183
vt 0.87653 0.813143
vt 0.906462 0.8241
vt 0.872176 0.824254
vt 0.906532 0.828451
vt 0.872426 0.836574
vt 0.908215 0.832812
vt 0.877235 0.848898
vt 0.911347 0.836756
vt 0.886119 0.860031
vt 0.915619 0.8399
vt 0.898206 0.8689
vt 0.920615 0.841938
vt 0.912325 0.874654
vt 0.925848 0.842672
vt 0.927112 0.876739
vt 0.842464 0.833582
vt 0.848845 0.817143
vt 0.842902 0.851786
vt 0.85007 0.869974
vt 0.863239 0.886392
vt 0.881115 0.899469
vt 0.901973 0.907961
vt 0.923812 0.911058
vt 0.944541 0.908455
vt 0.962159 0.900382
vt 0.974947 0.887593
vt 0.981629 0.871303
vt 0.981509 0.853086
vt 0.974552 0.834725
vt 0.96141 0.818043
vt 0.943365 0.80471
vt 0.922206 0.796068
vt 0.976881 0.900761
vt 0.962796 0.914812
vt 0.984247 0.882851
vt 0.984121 0.862807
vt 0.975493 0.913007
vt 0.960722 0.927715
vt 0.943399 0.923671
vt 0.920583 0.926516
vt 0.896546 0.923099
vt 0.873587 0.913755
vt 0.853901 0.899374
vt 0.839386 0.88132
vt 0.831468 0.861316
vt 0.830957 0.84129
vt 0.837957 0.823198
vt 0.861463 0.804098
vt 0.879108 0.795761
vt 0.851836 0.808837
vt 0.829724 0.831678
vt 0.844267 0.81663
vt 0.822402 0.850635
vt 0.82296 0.871618
vt 0.831285 0.892575
vt 0.817199 0.86123
vt 0.824531 0.842238
vt 0.817773 0.882254
vt 0.826138 0.903257
vt 0.841434 0.922215
vt 0.846522 0.911489
vt 0.867175 0.926558
vt 0.891254 0.936354
vt 0.91646 0.939946
vt 0.940383 0.93698
vt 0.956003 0.938523
vt 0.935605 0.947797
vt 0.970811 0.923794
vt 0.886323 0.947148
vt 0.862162 0.937322
vt 0.911609 0.950758
vt 0.948815 0.946749
vt 0.929254 0.955633
vt 0.963007 0.932635
vt 0.858775 0.945567
vt 0.838879 0.931076
vt 0.824195 0.912898
vt 0.816164 0.892766
vt 0.815609 0.87262
vt 0.881965 0.954995
vt 0.906231 0.958465
vt 0.939449 0.952004
vt 0.921588 0.960115
vt 0.825575 0.921067
vt 0.818241 0.90269
vt 0.838994 0.937668
vt 0.857179 0.950906
vt 0.900555 0.962697
vt 0.878377 0.959524
vt 0.841803 0.941676
vt 0.830253 0.927387
vt 0.857464 0.953076
vt 0.875723 0.960498
vt 0.894824 0.963232
vt 0.900049 0.792985
vt 0.974552 0.834725
vt 0.981509 0.853086
vt 0.976461 0.842594
vt 0.984121 0.862807
vt 0.961978 0.824219
vt 0.96141 0.818043
vt 0.942086 0.809528
vt 0.943365 0.80471
vt 0.918761 0.800003
vt 0.922206 0.796068
vt 0.975041 0.852061
vt 0.983082 0.873248
vt 0.984247 0.882851
vt 0.983217 0.89425
vt 0.959839 0.832795
vt 0.938959 0.817385
vt 0.914477 0.80739
vt 0.888848 0.803816
vt 0.894338 0.796603
vt 0.900049 0.792985
vt 0.871265 0.799657
vt 0.879108 0.795761
vt 0.864641 0.807012
vt 0.844267 0.81663
vt 0.851836 0.808837
vt 0.861463 0.804098
vt 0.934104 0.827963
vt 0.95506 0.843413
vt 0.970321 0.862726
vt 0.978401 0.883959
vt 0.978548 0.905002
vt 0.975493 0.913007
vt 0.970811 0.923794
vt 0.83911 0.827165
vt 0.824531 0.842238
vt 0.97041 0.914629
vt 0.963007 0.932635
vt 0.970248 0.894466
vt 0.962479 0.874122
vt 0.947827 0.855619
vt 0.927721 0.840813
vt 0.904157 0.8312
vt 0.909538 0.817937
vt 0.883824 0.814345
vt 0.859543 0.817536
vt 0.879498 0.827747
vt 0.856213 0.83079
vt 0.83662 0.840001
vt 0.822639 0.85443
vt 0.815609 0.87262
vt 0.817199 0.86123
vt 0.876072 0.843441
vt 0.854819 0.8462
vt 0.836932 0.854582
vt 0.824163 0.867727
vt 0.817738 0.884311
vt 0.818241 0.90269
vt 0.816164 0.892766
vt 0.855439 0.863079
vt 0.873708 0.860725
vt 0.898577 0.8466
vt 0.920086 0.855371
vt 0.938448 0.868873
vt 0.95184 0.885745
vt 0.958955 0.904298
vt 0.95913 0.922691
vt 0.952393 0.939122
vt 0.948815 0.946749
vt 0.939449 0.952004
vt 0.939416 0.942943
vt 0.928296 0.954027
vt 0.921588 0.960115
vt 0.912932 0.961008
vt 0.945185 0.928814
vt 0.945007 0.913006
vt 0.938864 0.897068
vt 0.927333 0.882579
vt 0.900555 0.962697
vt 0.894824 0.963232
vt 0.915836 0.952695
vt 0.903658 0.958236
vt 0.924635 0.943903
vt 0.929185 0.932705
vt 0.929018 0.920186
vt 0.92413 0.907572
vt 0.914984 0.89611
vt 0.902473 0.88694
vt 0.911541 0.870984
vt 0.893052 0.863448
vt 0.887834 0.880977
vt 0.872522 0.878814
vt 0.858055 0.880663
vt 0.845865 0.886331
vt 0.840055 0.870261
vt 0.829066 0.881539
vt 0.823527 0.895782
vt 0.823947 0.91158
vt 0.830253 0.927387
vt 0.825575 0.921067
vt 0.837148 0.895245
vt 0.832743 0.906514
vt 0.833062 0.919027
vt 0.838052 0.931559
vt 0.847211 0.942895
vt 0.841803 0.941676
vt 0.859639 0.951943
vt 0.857464 0.953076
vt 0.874133 0.957835
vt 0.875723 0.960498
vt 0.889293 0.960004
vt 0.861313 0.919864
vt 0.864412 0.916721
vt 0.868733 0.914729
vt 0.873851 0.914085
vt 0.879264 0.914854
vt 0.88444 0.916961
vt 0.888869 0.920197
vt 0.890749 0.924266
vt 0.891862 0.929361
vt 0.892828 0.932833
vt 0.892348 0.937115
vt 0.889238 0.940242
vt 0.88492 0.942218
vt 0.879814 0.942852
vt 0.87442 0.942082
vt 0.869262 0.939984
vt 0.864844 0.936763
vt 0.861595 0.932732
vt 0.859834 0.928282
vt 0.859736 0.923848
vt 0.983217 0.89425
vt 0.829724 0.831678
vt 0.92354 0.827509
vt 0.861515 0.936926
vt 0.88218 0.949879
vt 0.87554 0.951783
vt 0.886612 0.946454
vt 0.888793 0.941701
vt 0.867202 0.952036
vt 0.858342 0.950488
vt 0.849749 0.947315
vt 0.888501 0.936081
vt 0.885756 0.930143
vt 0.880823 0.924472
vt 0.874183 0.919628
vt 0.866491 0.916092
vt 0.858509 0.914214
vt 0.851025 0.914178
vt 0.844777 0.915985
vt 0.840049 0.919567
vt 0.836964 0.924684
vt 0.836378 0.930635
vt 0.838203 0.936884
vt 0.84314 0.942514
vt 0.838203 0.936884
vt 0.838672 0.900678
vt 0.844697 0.894525
vt 0.844777 0.915985
vt 0.835624 0.908466
vt 0.835842 0.917122
vt 0.885756 0.930143
vt 0.902167 0.917918
vt 0.888501 0.936081
vt 0.902312 0.926577
vt 0.888793 0.941701
vt 0.898764 0.909202
vt 0.880823 0.924472
vt 0.892429 0.901287
vt 0.874183 0.919628
vt 0.88378 0.894958
vt 0.866491 0.916092
vt 0.873672 0.890842
vt 0.858509 0.914214
vt 0.863102 0.889346
vt 0.851025 0.914178
vt 0.853115 0.890617
vt 0.844777 0.915985
vt 0.844697 0.894525
vt 0.899194 0.93433
vt 0.886612 0.946454
vt 0.89313 0.940425
vt 0.89313 0.940425
vt 0.884718 0.944273
vt 0.88218 0.949879
vt 0.87554 0.951783
vt 0.886612 0.946454
vt 0.87478 0.945505
vt 0.867202 0.952036
vt 0.864283 0.944006
vt 0.858342 0.950488
vt 0.854244 0.939924
vt 0.849749 0.947315
vt 0.845635 0.933653
vt 0.84314 0.942514
vt 0.839294 0.925799
vt 0.838203 0.936884
vt 0.839294 0.925799
vt 0.835842 0.917122
vt 0.838203 0.936884
vt 0.838203 0.936884
vt 0.836378 0.930635
vt 0.868193 0.940437
vt 0.866213 0.940863
vt 0.863358 0.955982
vt 0.861115 0.957235
vt 0.864861 0.954335
vt 0.869487 0.939445
vt 0.865476 0.952455
vt 0.86997 0.937984
vt 0.863743 0.940683
vt 0.85835 0.957971
vt 0.861024 0.939914
vt 0.855333 0.958121
vt 0.85832 0.938633
vt 0.852359 0.957668
vt 0.855895 0.936963
vt 0.849718 0.956657
vt 0.853986 0.935067
vt 0.847667 0.955186
vt 0.85278 0.933131
vt 0.846408 0.953398
vt 0.852394 0.931343
vt 0.846066 0.951468
vt 0.847838 0.966405
vt 0.846977 0.96568
vt 0.849555 0.96692
vt 0.851593 0.966698
vt 0.85445 0.966667
vt 0.857481 0.966353
vt 0.851196 0.97835
vt 0.851844 0.979261
vt 0.855448 0.99357
vt 0.858507 0.993319
vt 0.85587 0.979098
vt 0.862386 0.992274
vt 0.859232 0.978569
vt 0.864871 0.991004
vt 0.86113 0.978524
vt 0.86896 0.987741
vt 0.864246 0.976241
vt 0.874144 0.984172
vt 0.868451 0.974483
vt 0.878064 0.981281
vt 0.871326 0.972608
vt 0.862895 0.965027
vt 0.86475 0.964143
vt 0.86039 0.965788
vt 0.865774 0.963224
vt 0.865867 0.962357
vt 0.881717 0.976227
vt 0.871765 0.971967
vt 0.872009 0.97065
vt 0.88212 0.974446
vt 0.879977 0.973306
vt 0.870517 0.969719
vt 0.85351 0.992999
vt 0.851057 0.9776
vt 0.852886 0.99166
vt 0.865876 0.986433
vt 0.85351 0.992999
vt 0.852886 0.99166
vt 0.855448 0.99357
vt 0.858507 0.993319
vt 0.862386 0.992274
vt 0.864871 0.991004
vt 0.86896 0.987741
vt 0.855657 0.987484
vt 0.861112 0.983117
vt 0.869398 0.978999
vt 0.878062 0.972716
vt 0.879977 0.973306
vt 0.88212 0.974446
vt 0.874144 0.984172
vt 0.878064 0.981281
vt 0.881717 0.976227
vt 0.856531 0.972297
vt 0.869398 0.978999
vt 0.861112 0.983117
vt 0.863641 0.969822
vt 0.878062 0.972716
vt 0.858034 0.960885
vt 0.863305 0.961112
vt 0.859196 0.946242
vt 0.863889 0.948734
vt 0.864049 0.930681
vt 0.868389 0.934257
vt 0.869592 0.936197
vt 0.865141 0.950525
vt 0.86997 0.937984
vt 0.865476 0.952455
vt 0.865016 0.96163
vt 0.865867 0.962357
vt 0.870517 0.969719
vt 0.868702 0.969166
vt 0.85861 0.928627
vt 0.85319 0.945935
vt 0.854158 0.928882
vt 0.848173 0.947933
vt 0.852394 0.931343
vt 0.846066 0.951468
vt 0.852073 0.961766
vt 0.848076 0.963893
vt 0.846977 0.96568
vt 0.852496 0.974546
vt 0.851057 0.9776
vt 0.855657 0.987484
vt 0.852886 0.99166
vt 0.851196 0.97835
vt 0.868702 0.969166
vt 0.878062 0.972716
vt 0.863641 0.969822
vt 0.868702 0.969166
vt 0.870517 0.969719
vt 0.878062 0.972716
vt 0.879977 0.973306
vt 0.868702 0.969166
vt 0.872009 0.97065
vn 0.4994633 -0.8647568 0.05227037
vn 0.322161 -0.919777 -0.2241042
vn 0.3450158 -0.9298756 0.1276545
vn 0.2447035 -0.9509779 -0.1891067
vn 0.3819452 -0.8808022 -0.2798313
vn 0.6167367 -0.7845388 -0.06430171
vn 0.4181999 -0.8378701 -0.3508311
vn 0.6853555 -0.6970751 -0.210651
vn 0.4273762 -0.7951849 -0.4301517
vn 0.6986052 -0.6109255 -0.3724525
vn 0.4085777 -0.7569232 -0.5100309
vn 0.6551881 -0.534525 -0.5338647
vn 0.3636446 -0.7268301 -0.5826498
vn 0.5593545 -0.47535 -0.6790913
vn 0.2969743 -0.7078514 -0.6409
vn 0.4204842 -0.4391932 -0.7939159
vn 0.2150917 -0.7018448 -0.6790799
vn 0.2521704 -0.4295942 -0.867098
vn 0.1260158 -0.7093987 -0.6934506
vn 0.07089356 -0.4474934 -0.8914729
vn 0.03846708 -0.7297726 -0.6826069
vn -0.1056069 -0.4911379 -0.8646565
vn -0.03899414 -0.7609752 -0.647608
vn -0.2600567 -0.5562569 -0.7892711
vn -0.09877848 -0.7999494 -0.5918815
vn -0.3773268 -0.6364735 -0.6727005
vn -0.135031 -0.84288 -0.5208837
vn -0.4459472 -0.7239379 -0.5263507
vn -0.1442081 -0.8855659 -0.4415619
vn -0.4591973 -0.8100871 -0.3645501
vn -0.125409 -0.9238284 -0.3616818
vn -0.4157797 -0.8864892 -0.2031359
vn -0.0804757 -0.9539217 -0.2890626
vn -0.3199456 -0.9456645 -0.05790859
vn -0.01380675 -0.9729002 -0.2308131
vn -0.181076 -0.9818208 0.05691537
vn 0.06807524 -0.9789066 -0.1926335
vn -0.01276381 -0.9914192 0.1300964
vn 0.1571525 -0.9713525 -0.1782623
vn 0.1685152 -0.97352 0.1544715
vn -0.7382661 -0.5243214 -0.4243232
vn -0.6568494 -0.3987755 -0.6399429
vn -0.7395353 -0.6453233 -0.1914295
vn -0.6605316 -0.7499374 0.03594065
vn -0.5089871 -0.8279237 0.2355304
vn -0.2997414 -0.8716449 0.3878021
vn -0.05327272 -0.8768236 0.477852
vn 0.2062913 -0.842953 0.4968643
vn 0.4535464 -0.7733478 0.4429771
vn 0.6642854 -0.6748227 0.3214644
vn 0.817879 -0.5570221 0.1442237
vn 0.8992961 -0.4314734 -0.0713945
vn 0.9005643 -0.3104715 -0.3042885
vn 0.8215604 -0.2058582 -0.5316586
vn 0.6700187 -0.1278716 -0.7312481
vn 0.4607715 -0.08414961 -0.8835205
vn 0.2143002 -0.07897258 -0.9735701
vn 0.8586223 -0.3837009 0.339914
vn 0.6726261 -0.5145531 0.5317982
vn 0.9650444 -0.2418505 0.1009831
vn 0.981477 -0.1028888 -0.1616073
vn 0.8649471 -0.2098173 0.4558984
vn 0.670162 -0.3465842 0.6563249
vn 0.4252649 -0.6216019 0.6578455
vn 0.1407513 -0.6943679 0.7057211
vn -0.1530643 -0.7257269 0.6707398
vn -0.4274218 -0.7126097 0.5563254
vn -0.6554666 -0.6562994 0.3736775
vn -0.8148738 -0.5623092 0.1406739
vn -0.8900384 -0.4398423 -0.1198766
vn -0.8736069 -0.3008806 -0.3824683
vn -0.7671844 -0.1590304 -0.6213996
vn -0.5032538 -0.2809723 -0.8171843
vn -0.2925167 -0.182447 -0.9386943
vn -0.5811888 -0.02817623 -0.8132808
vn -0.8340175 0.02622896 -0.5511143
vn -0.6392328 0.1629961 -0.7515409
vn -0.9456486 -0.1220914 -0.3014011
vn -0.963199 -0.2674453 -0.02684659
vn -0.8849505 -0.3956068 0.2456782
vn -0.9763401 0.06203714 -0.2071505
vn -0.8643824 0.210343 -0.4567263
vn -0.9942406 -0.083353 0.0673632
vn -0.9163316 -0.2115991 0.3399444
vn -0.7502398 -0.3101479 0.583908
vn -0.7185649 -0.4940258 0.4894926
vn -0.4803258 -0.5530735 0.6807326
vn -0.1935557 -0.5669684 0.8006766
vn 0.1136744 -0.5343506 0.8375843
vn 0.4112921 -0.4584112 0.7878439
vn 0.6383964 -0.1634535 0.7521521
vn 0.3793364 -0.2751679 0.8833948
vn 0.8334508 -0.02675219 0.5519457
vn -0.2255804 -0.3834134 0.8956046
vn -0.5122231 -0.3693507 0.7753757
vn 0.08162858 -0.3509603 0.9328256
vn 0.5787136 0.02681962 0.8150897
vn 0.3307895 -0.0798962 0.9403163
vn 0.7655107 0.1574747 0.6238551
vn -0.5217248 -0.169481 0.8361096
vn -0.7491111 -0.1127086 0.6527857
vn -0.9076435 -0.01834425 0.4193408
vn -0.9818065 0.10438 0.1586215
vn -0.9643374 0.2434528 -0.1038467
vn -0.2477423 -0.1830986 0.9513668
vn 0.04601209 -0.1522288 0.9872736
vn 0.4937232 0.2159043 0.8423911
vn 0.2677756 0.1188502 0.9561229
vn -0.8592749 0.1757045 0.48039
vn -0.9264456 0.2875471 0.2429309
vn -0.7152342 0.08964458 0.6931117
vn -0.5084226 0.0377885 0.8602781
vn 0.008377725 0.05314147 0.9985518
vn -0.2590814 0.0252101 0.9655263
vn -0.6501026 0.2880652 0.7031252
vn -0.7733524 0.36206 0.5204216
vn -0.4729045 0.2433863 0.846832
vn -0.2591048 0.2323971 0.9374734
vn -0.02963275 0.2561698 0.9661775
vn -0.045262 -0.112841 -0.9925816
vn 0.8215604 -0.2058582 -0.5316586
vn 0.9005643 -0.3104715 -0.3042885
vn 0.9063111 0.01958013 -0.4221573
vn 0.981477 -0.1028888 -0.1616073
vn 0.7469028 0.1135691 -0.6551628
vn 0.6700187 -0.1278716 -0.7312481
vn 0.5188611 0.1698816 -0.8378088
vn 0.4607715 -0.08414961 -0.8835205
vn 0.2445016 0.1829974 -0.9522241
vn 0.2143002 -0.07897258 -0.9735701
vn 0.9158819 0.2120181 -0.3408941
vn 0.9941294 0.08385641 -0.06837196
vn 0.9650444 -0.2418505 0.1009831
vn 0.9765792 -0.06149726 0.2061822
vn 0.7494947 0.3104391 -0.5847095
vn 0.5112553 0.3694843 -0.7759507
vn 0.2244864 0.3833804 -0.8958936
vn -0.08274443 0.3507614 -0.9328021
vn -0.0493143 0.1516373 -0.9872053
vn -0.045262 -0.112841 -0.9925816
vn -0.3338276 0.07887265 -0.9393287
vn -0.2925167 -0.182447 -0.9386943
vn -0.3803616 0.2748226 -0.8830616
vn -0.6392328 0.1629961 -0.7515409
vn -0.5811888 -0.02817623 -0.8132808
vn -0.5032538 -0.2809723 -0.8171843
vn 0.4812928 0.5529394 -0.6801583
vn 0.7193092 0.493737 -0.4886902
vn 0.885401 0.3951881 -0.2447273
vn 0.9633104 0.2669407 0.02785173
vn 0.9454099 0.1215506 0.3023665
vn 0.8649471 -0.2098173 0.4558984
vn 0.8334508 -0.02675219 0.5519457
vn -0.6693273 0.3470414 -0.6569348
vn -0.8643824 0.210343 -0.4567263
vn 0.8728987 0.2992794 0.3853308
vn 0.7655107 0.1574747 0.6238551
vn 0.8903679 0.4383491 0.1228622
vn 0.8162059 0.5610733 -0.1378571
vn 0.6576726 0.6554401 -0.3713017
vn 0.4302874 0.7122105 -0.5546252
vn 0.156306 0.7258278 -0.6698824
vn 0.1946501 0.5670016 -0.8003877
vn -0.112561 0.5345478 -0.8376089
vn -0.4102673 0.4587548 -0.7881781
vn -0.1374507 0.6949594 -0.7057895
vn -0.4222291 0.6226254 -0.6588326
vn -0.670151 0.5159086 -0.5336065
vn -0.8569481 0.3852558 -0.3423712
vn -0.9643374 0.2434528 -0.1038467
vn -0.9763401 0.06203714 -0.2071505
vn -0.1563208 0.8249757 -0.5431197
vn -0.4157197 0.7592674 -0.5006894
vn -0.6416665 0.6622136 -0.3869587
vn -0.8120418 0.5433172 -0.2130601
vn -0.9101697 0.4142164 0.003984053
vn -0.9264456 0.2875471 0.2429309
vn -0.9818065 0.10438 0.1586215
vn -0.3910284 0.8627053 -0.3206811
vn -0.1683435 0.9189166 -0.3567251
vn 0.1111391 0.8529081 -0.5100939
vn 0.3604788 0.8403299 -0.4048465
vn 0.567291 0.7884723 -0.2376811
vn 0.7113318 0.7024132 -0.02495647
vn 0.778502 0.5905745 0.2125005
vn 0.7622273 0.4639036 0.4514455
vn 0.6640985 0.3348023 0.6684914
vn 0.5787136 0.02681962 0.8150897
vn 0.4937232 0.2159043 0.8423911
vn 0.5336628 0.4974688 0.683907
vn 0.3871514 0.3955258 0.8328705
vn 0.2677756 0.1188502 0.9561229
vn 0.1930504 0.3123802 0.9301344
vn 0.6182417 0.6082277 0.4978317
vn 0.6326178 0.7169616 0.2928493
vn 0.5753779 0.8130273 0.0890319
vn 0.4521272 0.8870211 -0.09367284
vn 0.008377725 0.05314147 0.9985518
vn -0.02963275 0.2561698 0.9661775
vn 0.2127689 0.5849791 0.7826422
vn 0.06626505 0.5266654 0.847486
vn 0.3263087 0.6580893 0.6785581
vn 0.3949704 0.7477532 0.533726
vn 0.4100839 0.8185593 0.4022335
vn 0.3719552 0.8957257 0.243567
vn 0.3073188 0.9436195 0.1230335
vn 0.1720613 0.9850841 -0.002026133
vn 0.2749292 0.9316996 -0.2373807
vn 0.06112972 0.9426904 -0.3280214
vn 0.01840976 0.9970176 -0.07494739
vn -0.1491799 0.9834142 -0.1031591
vn -0.3143139 0.9456043 -0.08390003
vn -0.4608139 0.8872921 -0.01905841
vn -0.5851245 0.77956 -0.2234177
vn -0.7316358 0.6776171 -0.07445856
vn -0.8162189 0.5668576 0.1116207
vn -0.8305923 0.4581262 0.3166023
vn -0.7733524 0.36206 0.5204216
vn -0.8592749 0.1757045 0.48039
vn -0.5743505 0.814182 0.08502404
vn -0.6438057 0.7334313 0.2181574
vn -0.6623793 0.6529473 0.3673058
vn -0.6282547 0.5806054 0.5178741
vn -0.5447736 0.5234879 0.65512
vn -0.6501026 0.2880652 0.7031252
vn -0.4201056 0.4871863 0.7656115
vn -0.4729045 0.2433863 0.846832
vn -0.2664545 0.475253 0.8385324
vn -0.2591048 0.2323971 0.9374734
vn -0.09886291 0.4888565 0.8667442
vn -0.4930317 0.8402654 0.2255524
vn -0.4184698 0.8974518 0.1395111
vn -0.3161746 0.9452771 0.08052846
vn -0.1961503 0.9790653 0.05437135
vn -0.07014991 0.995507 0.06359897
vn 0.0494912 0.9929929 0.1073117
vn 0.175617 0.9623086 0.2076558
vn 0.2344993 0.9254378 0.2976154
vn 0.2486185 0.8861167 0.3911341
vn 0.2579921 0.8347911 0.4863783
vn 0.2253638 0.7804272 0.5832192
vn 0.1482828 0.7062651 0.6922441
vn 0.04598297 0.6584364 0.7512303
vn -0.0740397 0.6246484 0.7773883
vn -0.2000392 0.6082065 0.7681596
vn -0.3196826 0.6107209 0.7244465
vn -0.4212569 0.6319454 0.6505287
vn -0.4948178 0.6698003 0.5536451
vn -0.5331697 0.7205837 0.4432709
vn -0.5325538 0.7793216 0.3302185
vn 0.9765792 -0.06149726 0.2061822
vn -0.8340175 0.02622896 -0.5511143
vn 0.1479133 -0.8779442 -0.4553412
vn -0.2206258 0.7839197 0.5803396
vn 0.2924065 0.2872106 0.912145
vn 0.09947557 0.2211229 0.9701595
vn 0.1841186 0.5566962 0.8100553
vn -0.04880102 0.7649339 0.6422575
vn -0.0951912 0.1774803 0.9795098
vn -0.2903387 0.1464939 0.9456441
vn -0.5074134 0.1481421 0.8488731
vn -0.04513341 0.80301 0.594254
vn -0.05999025 0.8363464 0.5449091
vn -0.09192094 0.8616958 0.49903
vn -0.1378224 0.8765862 0.4610874
vn -0.1932356 0.8795587 0.4347833
vn -0.2527657 0.8703064 0.4227011
vn -0.3106013 0.8497129 0.4260457
vn -0.5550219 0.8107282 0.1861995
vn -0.7213088 0.6923547 -0.0189354
vn -0.802616 0.5841444 0.1207591
vn -0.8426685 0.4568354 0.2849759
vn -0.8115507 0.3122028 0.4938772
vn -0.6921002 0.1996848 0.6936305
vn -0.7398905 0.3975695 0.5426791
vn -0.8613355 0.4299537 -0.2706309
vn -0.7008637 0.5578681 -0.4444921
vn -0.6000417 0.7880973 -0.1373052
vn -0.9631466 0.2618208 -0.06163275
vn -0.9831421 0.07780782 0.1654614
vn 0.8508865 0.5218643 -0.06041338
vn 0.89719 0.4326677 0.08859356
vn 0.9047256 0.3746854 0.2026887
vn 0.8941157 0.2786194 0.3506112
vn 0.8592781 0.2188471 0.462328
vn 0.804528 0.5705588 -0.1649161
vn 0.7045078 0.6433048 -0.2997125
vn 0.627149 0.6773638 -0.3845291
vn 0.4817035 0.7259403 -0.4908894
vn 0.3841181 0.7425944 -0.548641
vn 0.2059774 0.7616301 -0.6144044
vn 0.1004597 0.7608135 -0.6411479
vn -0.09393987 0.7477167 -0.6573392
vn -0.1952691 0.7318324 -0.6529099
vn -0.3866222 0.6872606 -0.6149765
vn -0.4733589 0.6605545 -0.5827512
vn -0.6351532 0.5919154 -0.4962021
vn -0.7008637 0.5578681 -0.4444921
vn 0.7943144 0.1264365 0.5942041
vn 0.7190533 0.0735082 0.6910563
vn 0.6079475 -0.005214776 0.79396
vn 0.6079475 -0.005214776 0.79396
vn 0.3554561 -0.1012226 0.9291958
vn 0.2924065 0.2872106 0.912145
vn 0.09947557 0.2211229 0.9701595
vn 0.4645033 0.3881628 0.7959688
vn 0.07942051 -0.1636249 0.9833205
vn -0.0951912 0.1774803 0.9795098
vn -0.1998951 -0.2086078 0.9573529
vn -0.2903387 0.1464939 0.9456441
vn -0.4661371 -0.2371684 0.8523305
vn -0.5074134 0.1481421 0.8488731
vn -0.7234763 -0.1997584 0.6608165
vn -0.6921002 0.1996848 0.6936305
vn -0.8939775 -0.10401 0.435874
vn -0.8115507 0.3122028 0.4938772
vn -0.8939775 -0.10401 0.435874
vn -0.9831421 0.07780782 0.1654614
vn -0.8868319 0.1843124 0.4237429
vn -0.8115507 0.3122028 0.4938772
vn -0.8426685 0.4568354 0.2849759
vn 0.7665635 -0.4428471 0.465045
vn 0.5379899 -0.6432101 0.5448373
vn 0.7126299 -0.6296635 0.309326
vn 0.4532515 -0.8172453 0.3559117
vn 0.9030456 -0.3666851 0.2237201
vn 0.9186457 -0.1915051 0.3455661
vn 0.9925467 -0.06239168 0.1046823
vn 0.9769195 0.08400263 0.1963974
vn 0.2569917 -0.7753318 0.576902
vn 0.1629877 -0.9152396 0.3684717
vn -0.04910221 -0.8299461 0.5556784
vn -0.1294432 -0.9257389 0.3553195
vn -0.3508905 -0.8041849 0.4797525
vn -0.4075563 -0.8549951 0.3207509
vn -0.6181331 -0.7018741 0.3539553
vn -0.6572306 -0.7066412 0.2621185
vn -0.8239996 -0.5338312 0.1898654
vn -0.8636221 -0.4712209 0.179187
vn -0.9485732 -0.3165292 0.004249091
vn -0.9769334 -0.2046257 0.06106905
vn -0.9653013 0.03893719 -0.2582195
vn -0.9827551 0.1730964 -0.06503858
vn -0.9753836 -0.1246256 0.181921
vn -0.9585208 0.1975444 0.2054607
vn -0.8472673 -0.5091686 0.1512796
vn -0.6689352 -0.7322619 0.1277421
vn -0.4300552 -0.9018461 0.04154688
vn -0.1728849 -0.9828283 -0.06449308
vn -0.9699975 0.05833388 0.2360128
vn -0.9042225 -0.398166 0.1544198
vn -0.9556257 -0.2098824 0.2067101
vn -0.7557994 -0.6476095 0.09679438
vn -0.6851239 -0.7270792 0.04428302
vn -0.7252576 -0.6874893 0.03687747
vn -0.6261902 -0.7793603 -0.0219849
vn -0.6333553 -0.7702054 -0.0751307
vn -0.4320102 -0.8861278 -0.167764
vn -0.3527626 -0.9059216 -0.2342315
vn -0.1873974 -0.9266144 -0.3259876
vn -0.1047383 -0.9125075 -0.3954237
vn 0.03291862 -0.8830798 -0.4680667
vn 0.006276366 -0.8733804 -0.4869983
vn 0.2251655 -0.7410263 -0.6325983
vn 0.3144147 -0.9176977 -0.2428462
vn 0.6122555 -0.7305317 -0.3024345
vn 0.08487707 -0.9826931 -0.1646518
vn 0.7793555 -0.5425899 -0.3133706
vn 0.9282151 -0.1905844 -0.3195217
vn 0.09989043 -0.6563212 -0.7478399
vn 0.3833756 -0.5430636 -0.7470643
vn 0.5051706 -0.3819677 -0.7738885
vn 0.1738973 -0.4826992 -0.8583481
vn 0.3116177 -0.2839916 -0.9067762
vn 0.6466927 -0.1180968 -0.7535527
vn -0.9876249 0.01741169 0.1558647
vn -0.9049945 0.3717686 0.2068164
vn -0.9391125 0.3266753 0.1065404
vn 0.5687244 0.3543777 0.7422729
vn 0.4682649 0.3935833 0.791088
vn 0.4673516 0.3942454 0.7912984
vn 0.4697371 0.3874751 0.7932277
vn 0.473066 0.3817639 0.7940183
vn 0.55492 0.3185679 0.7684909
vn 0.638393 0.2488454 0.7283751
vn 0.6007846 0.2510278 0.7589749
vn 0.4931704 0.4063986 0.7691703
vn 0.5191568 0.4203026 0.7441922
vn 0.6177895 0.3395229 0.7092676
vn 0.6838644 0.324495 0.6534771
vn 0.6465381 0.4462563 0.6187437
vn 0.6366137 0.4070887 0.6549823
vn 0.5392159 0.2534594 0.8031217
vn 0.5933254 0.31586 0.7404036
vn 0.6429065 0.345896 0.6833938
vn 0.004712089 0.9993057 -0.03695921
vn 0.40553 0.8909461 -0.2043536
vn -0.1372606 0.9886931 -0.06037879
vn 0.5411812 0.7746232 -0.3272336
vn 0.5959586 0.5654629 -0.5701623
vn 0.2995652 0.912858 -0.2774004
vn 0.7888586 0.5343397 -0.303617
vn 0.4056994 0.813937 -0.41583
vn 0.808565 0.5567641 -0.1903586
vn 0.4676801 0.8006338 -0.3745141
vn 0.7798768 0.6047561 -0.161438
vn 0.9360589 0.3506181 0.02933864
vn 0.9703471 0.23958 -0.03206052
vn 0.9769195 0.08400263 0.1963974
vn 0.9925467 -0.06239168 0.1046823
vn 0.9414721 0.1320013 -0.3101712
vn 0.9282151 -0.1905844 -0.3195217
vn 0.6466927 -0.1180968 -0.7535527
vn 0.7434604 0.2640728 -0.6144367
vn -0.1033852 0.8209421 -0.5615742
vn -0.1794175 0.8522268 -0.4914457
vn -0.6496113 0.54261 -0.5325219
vn -0.7276974 0.5831186 -0.3611496
vn -0.9653013 0.03893719 -0.2582195
vn -0.9827551 0.1730964 -0.06503858
vn -0.3169871 0.9385055 -0.1368452
vn -0.7799364 0.6223115 0.06653905
vn -0.9585208 0.1975444 0.2054607
vn -0.5695171 0.8114207 0.1313259
vn -0.9049945 0.3717686 0.2068164
vn -0.7046328 0.7077908 0.05024661
vn -0.9391125 0.3266753 0.1065404
vn -0.9699975 0.05833388 0.2360128
vn 0.7434604 0.2640728 -0.6144367
vn 0.5285957 0.1973873 -0.8256057
vn 0.5411812 0.7746232 -0.3272336
vn 0.7099898 0.1688147 -0.6836784
vn 0.6466927 -0.1180968 -0.7535527
vn 0.4335442 -0.009440837 -0.9010828
vn 0.3116177 -0.2839916 -0.9067762
vn 0.7901618 0.3629856 -0.493848
vn 0.5051706 -0.3819677 -0.7738885
g GVG_Stove_BombBall2_mesh_0
f 3/3/3 2/2/2 1/1/1
f 4/4/4 2/2/2 3/3/3
f 2/2/2 5/5/5 1/1/1
f 1/1/1 5/5/5 6/6/6
f 5/5/5 7/7/7 6/6/6
f 6/6/6 7/7/7 8/8/8
f 7/7/7 9/9/9 8/8/8
f 8/8/8 9/9/9 10/10/10
f 9/9/9 11/11/11 10/10/10
f 10/10/10 11/11/11 12/12/12
f 11/11/11 13/13/13 12/12/12
f 12/12/12 13/13/13 14/14/14
f 13/13/13 15/15/15 14/14/14
f 14/14/14 15/15/15 16/16/16
f 15/15/15 17/17/17 16/16/16
f 16/16/16 17/17/17 18/18/18
f 17/17/17 19/19/19 18/18/18
f 18/18/18 19/19/19 20/20/20
f 19/19/19 21/21/21 20/20/20
f 20/20/20 21/21/21 22/22/22
f 21/21/21 23/23/23 22/22/22
f 22/22/22 23/23/23 24/24/24
f 23/23/23 25/25/25 24/24/24
f 24/24/24 25/25/25 26/26/26
f 25/25/25 27/27/27 26/26/26
f 26/26/26 27/27/27 28/28/28
f 27/27/27 29/29/29 28/28/28
f 28/28/28 29/29/29 30/30/30
f 29/29/29 31/31/31 30/30/30
f 30/30/30 31/31/31 32/32/32
f 31/31/31 33/33/33 32/32/32
f 32/32/32 33/33/33 34/34/34
f 33/33/33 35/35/35 34/34/34
f 34/34/34 35/35/35 36/36/36
f 35/35/35 37/37/37 36/36/36
f 36/36/36 37/37/37 38/38/38
f 37/37/37 39/39/39 38/38/38
f 38/38/38 39/39/39 40/40/40
f 39/39/39 4/4/4 40/40/40
f 40/40/40 4/4/4 3/3/3
f 28/28/28 30/30/30 41/41/41
f 42/42/42 28/28/28 41/41/41
f 41/41/41 30/30/30 43/43/43
f 30/30/30 32/32/32 43/43/43
f 43/43/43 32/32/32 44/44/44
f 32/32/32 34/34/34 44/44/44
f 44/44/44 34/34/34 45/45/45
f 34/34/34 36/36/36 45/45/45
f 45/45/45 36/36/36 46/46/46
f 36/36/36 38/38/38 46/46/46
f 46/46/46 38/38/38 47/47/47
f 38/38/38 40/40/40 47/47/47
f 47/47/47 40/40/40 48/48/48
f 40/40/40 3/3/3 48/48/48
f 48/48/48 3/3/3 49/49/49
f 3/3/3 1/1/1 49/49/49
f 49/49/49 1/1/1 50/50/50
f 1/1/1 6/6/6 50/50/50
f 50/50/50 6/6/6 51/51/51
f 6/6/6 8/8/8 51/51/51
f 51/51/51 8/8/8 52/52/52
f 8/8/8 10/10/10 52/52/52
f 52/52/52 10/10/10 53/53/53
f 10/10/10 12/12/12 53/53/53
f 53/53/53 12/12/12 54/54/54
f 12/12/12 14/14/14 54/54/54
f 54/54/54 14/14/14 55/55/55
f 14/14/14 16/16/16 55/55/55
f 55/55/55 16/16/16 56/56/56
f 16/16/16 18/18/18 56/56/56
f 56/56/56 18/18/18 57/57/57
f 58/58/58 50/50/50 51/51/51
f 59/59/59 50/50/50 58/58/58
f 60/60/60 51/51/51 52/52/52
f 58/58/58 51/51/51 60/60/60
f 61/61/61 52/52/52 53/53/53
f 60/60/60 52/52/52 61/61/61
f 62/62/62 59/59/59 58/58/58
f 63/63/63 59/59/59 62/62/62
f 63/63/63 64/64/64 59/59/59
f 64/64/64 49/49/49 59/59/59
f 59/59/59 49/49/49 50/50/50
f 64/64/64 48/48/48 49/49/49
f 65/65/65 48/48/48 64/64/64
f 65/65/65 47/47/47 48/48/48
f 66/66/66 47/47/47 65/65/65
f 66/66/66 46/46/46 47/47/47
f 67/67/67 46/46/46 66/66/66
f 67/67/67 45/45/45 46/46/46
f 68/68/68 45/45/45 67/67/67
f 68/68/68 44/44/44 45/45/45
f 69/69/69 44/44/44 68/68/68
f 69/69/69 43/43/43 44/44/44
f 70/70/70 43/43/43 69/69/69
f 70/70/70 41/41/41 43/43/43
f 71/71/71 41/41/41 70/70/70
f 71/71/71 42/42/42 41/41/41
f 72/72/72 42/42/42 71/71/71
f 72/72/72 73/73/73 42/42/42
f 73/73/73 26/26/26 42/42/42
f 24/24/24 26/26/26 73/73/73
f 74/74/74 24/24/24 73/73/73
f 22/22/22 24/24/24 74/74/74
f 26/26/26 28/28/28 42/42/42
f 75/75/75 73/73/73 72/72/72
f 76/76/76 75/75/75 72/72/72
f 77/77/77 75/75/75 76/76/76
f 78/78/78 72/72/72 71/71/71
f 76/76/76 72/72/72 78/78/78
f 79/79/79 71/71/71 70/70/70
f 78/78/78 71/71/71 79/79/79
f 79/79/79 70/70/70 80/80/80
f 81/81/81 76/76/76 78/78/78
f 82/82/82 76/76/76 81/81/81
f 83/83/83 78/78/78 79/79/79
f 81/81/81 78/78/78 83/83/83
f 84/84/84 79/79/79 80/80/80
f 83/83/83 79/79/79 84/84/84
f 84/84/84 80/80/80 85/85/85
f 85/85/85 80/80/80 86/86/86
f 80/80/80 69/69/69 86/86/86
f 80/80/80 70/70/70 69/69/69
f 86/86/86 69/69/69 68/68/68
f 86/86/86 68/68/68 87/87/87
f 87/87/87 68/68/68 67/67/67
f 87/87/87 67/67/67 88/88/88
f 88/88/88 67/67/67 66/66/66
f 88/88/88 66/66/66 89/89/89
f 89/89/89 66/66/66 65/65/65
f 89/89/89 65/65/65 90/90/90
f 90/90/90 65/65/65 64/64/64
f 90/90/90 64/64/64 63/63/63
f 91/91/91 90/90/90 63/63/63
f 92/92/92 90/90/90 91/91/91
f 92/92/92 89/89/89 90/90/90
f 91/91/91 63/63/63 93/93/93
f 93/93/93 63/63/63 62/62/62
f 94/94/94 87/87/87 88/88/88
f 95/95/95 87/87/87 94/94/94
f 95/95/95 86/86/86 87/87/87
f 85/85/85 86/86/86 95/95/95
f 96/96/96 88/88/88 89/89/89
f 94/94/94 88/88/88 96/96/96
f 96/96/96 89/89/89 92/92/92
f 97/97/97 92/92/92 91/91/91
f 98/98/98 92/92/92 97/97/97
f 98/98/98 96/96/96 92/92/92
f 99/99/99 91/91/91 93/93/93
f 97/97/97 91/91/91 99/99/99
f 100/100/100 85/85/85 95/95/95
f 101/101/101 85/85/85 100/100/100
f 101/101/101 84/84/84 85/85/85
f 102/102/102 84/84/84 101/101/101
f 102/102/102 83/83/83 84/84/84
f 103/103/103 83/83/83 102/102/102
f 103/103/103 81/81/81 83/83/83
f 104/104/104 81/81/81 103/103/103
f 105/105/105 95/95/95 94/94/94
f 100/100/100 95/95/95 105/105/105
f 106/106/106 96/96/96 98/98/98
f 106/106/106 94/94/94 96/96/96
f 105/105/105 94/94/94 106/106/106
f 107/107/107 98/98/98 97/97/97
f 108/108/108 98/98/98 107/107/107
f 108/108/108 106/106/106 98/98/98
f 109/109/109 103/103/103 102/102/102
f 110/110/110 103/103/103 109/109/109
f 111/111/111 102/102/102 101/101/101
f 109/109/109 102/102/102 111/111/111
f 111/111/111 101/101/101 112/112/112
f 113/113/113 105/105/105 106/106/106
f 113/113/113 106/106/106 108/108/108
f 114/114/114 105/105/105 113/113/113
f 114/114/114 100/100/100 105/105/105
f 112/112/112 100/100/100 114/114/114
f 112/112/112 101/101/101 100/100/100
f 115/115/115 109/109/109 111/111/111
f 116/116/116 109/109/109 115/115/115
f 117/117/117 111/111/111 112/112/112
f 115/115/115 111/111/111 117/117/117
f 118/118/118 112/112/112 114/114/114
f 117/117/117 112/112/112 118/118/118
f 118/118/118 114/114/114 119/119/119
f 119/119/119 114/114/114 113/113/113
f 57/57/57 20/20/20 120/120/120
f 18/18/18 20/20/20 57/57/57
f 20/20/20 22/22/22 120/120/120
f 120/120/120 22/22/22 74/74/74
f 123/123/123 122/122/122 121/121/121
f 124/124/124 122/122/122 123/123/123
f 123/123/123 121/121/121 125/125/125
f 125/125/125 121/121/121 126/126/126
f 125/125/125 126/126/126 127/127/127
f 127/127/127 126/126/126 128/128/128
f 127/127/127 128/128/128 129/129/129
f 129/129/129 128/128/128 130/130/130
f 131/131/131 124/124/124 123/123/123
f 132/132/132 124/124/124 131/131/131
f 132/132/132 133/133/133 124/124/124
f 134/134/134 133/133/133 132/132/132
f 135/135/135 123/123/123 125/125/125
f 131/131/131 123/123/123 135/135/135
f 136/136/136 125/125/125 127/127/127
f 135/135/135 125/125/125 136/136/136
f 137/137/137 127/127/127 129/129/129
f 136/136/136 127/127/127 137/137/137
f 137/137/137 129/129/129 138/138/138
f 138/138/138 129/129/129 139/139/139
f 129/129/129 130/130/130 139/139/139
f 139/139/139 130/130/130 140/140/140
f 139/139/139 140/140/140 141/141/141
f 141/141/141 140/140/140 142/142/142
f 143/143/143 139/139/139 141/141/141
f 138/138/138 139/139/139 143/143/143
f 143/143/143 141/141/141 144/144/144
f 144/144/144 141/141/141 145/145/145
f 141/141/141 142/142/142 145/145/145
f 145/145/145 142/142/142 146/146/146
f 147/147/147 135/135/135 136/136/136
f 148/148/148 135/135/135 147/147/147
f 148/148/148 131/131/131 135/135/135
f 149/149/149 131/131/131 148/148/148
f 149/149/149 132/132/132 131/131/131
f 150/150/150 132/132/132 149/149/149
f 150/150/150 134/134/134 132/132/132
f 151/151/151 134/134/134 150/150/150
f 151/151/151 152/152/152 134/134/134
f 153/153/153 152/152/152 151/151/151
f 154/154/154 143/143/143 144/144/144
f 154/154/154 144/144/144 155/155/155
f 156/156/156 153/153/153 151/151/151
f 157/157/157 153/153/153 156/156/156
f 158/158/158 151/151/151 150/150/150
f 156/156/156 151/151/151 158/158/158
f 159/159/159 150/150/150 149/149/149
f 158/158/158 150/150/150 159/159/159
f 160/160/160 149/149/149 148/148/148
f 159/159/159 149/149/149 160/160/160
f 160/160/160 148/148/148 161/161/161
f 161/161/161 148/148/148 147/147/147
f 161/161/161 147/147/147 162/162/162
f 162/162/162 147/147/147 163/163/163
f 147/147/147 136/136/136 163/163/163
f 163/163/163 136/136/136 137/137/137
f 163/163/163 137/137/137 164/164/164
f 164/164/164 137/137/137 138/138/138
f 164/164/164 138/138/138 165/165/165
f 165/165/165 138/138/138 143/143/143
f 165/165/165 143/143/143 154/154/154
f 166/166/166 163/163/163 164/164/164
f 162/162/162 163/163/163 166/166/166
f 167/167/167 164/164/164 165/165/165
f 166/166/166 164/164/164 167/167/167
f 168/168/168 165/165/165 154/154/154
f 167/167/167 165/165/165 168/168/168
f 168/168/168 154/154/154 169/169/169
f 169/169/169 154/154/154 155/155/155
f 169/169/169 155/155/155 170/170/170
f 170/170/170 155/155/155 171/171/171
f 172/172/172 162/162/162 166/166/166
f 173/173/173 166/166/166 167/167/167
f 172/172/172 166/166/166 173/173/173
f 174/174/174 167/167/167 168/168/168
f 173/173/173 167/167/167 174/174/174
f 175/175/175 168/168/168 169/169/169
f 174/174/174 168/168/168 175/175/175
f 176/176/176 169/169/169 170/170/170
f 175/175/175 169/169/169 176/176/176
f 176/176/176 170/170/170 177/177/177
f 177/177/177 170/170/170 178/178/178
f 179/179/179 172/172/172 173/173/173
f 180/180/180 172/172/172 179/179/179
f 180/180/180 181/181/181 172/172/172
f 181/181/181 162/162/162 172/172/172
f 181/181/181 161/161/161 162/162/162
f 182/182/182 161/161/161 181/181/181
f 182/182/182 160/160/160 161/161/161
f 183/183/183 160/160/160 182/182/182
f 183/183/183 159/159/159 160/160/160
f 184/184/184 159/159/159 183/183/183
f 184/184/184 158/158/158 159/159/159
f 185/185/185 158/158/158 184/184/184
f 185/185/185 156/156/156 158/158/158
f 186/186/186 156/156/156 185/185/185
f 186/186/186 157/157/157 156/156/156
f 187/187/187 157/157/157 186/186/186
f 187/187/187 188/188/188 157/157/157
f 189/189/189 188/188/188 187/187/187
f 190/190/190 189/189/189 187/187/187
f 191/191/191 189/189/189 190/190/190
f 191/191/191 192/192/192 189/189/189
f 193/193/193 192/192/192 191/191/191
f 194/194/194 187/187/187 186/186/186
f 190/190/190 187/187/187 194/194/194
f 195/195/195 186/186/186 185/185/185
f 194/194/194 186/186/186 195/195/195
f 196/196/196 185/185/185 184/184/184
f 195/195/195 185/185/185 196/196/196
f 196/196/196 184/184/184 197/197/197
f 193/193/193 198/198/198 192/192/192
f 199/199/199 198/198/198 193/193/193
f 200/200/200 193/193/193 191/191/191
f 201/201/201 193/193/193 200/200/200
f 201/201/201 199/199/199 193/193/193
f 202/202/202 191/191/191 190/190/190
f 200/200/200 191/191/191 202/202/202
f 203/203/203 190/190/190 194/194/194
f 202/202/202 190/190/190 203/203/203
f 204/204/204 194/194/194 195/195/195
f 203/203/203 194/194/194 204/204/204
f 205/205/205 195/195/195 196/196/196
f 204/204/204 195/195/195 205/205/205
f 206/206/206 196/196/196 197/197/197
f 205/205/205 196/196/196 206/206/206
f 206/206/206 197/197/197 207/207/207
f 207/207/207 197/197/197 208/208/208
f 197/197/197 183/183/183 208/208/208
f 197/197/197 184/184/184 183/183/183
f 208/208/208 183/183/183 182/182/182
f 208/208/208 182/182/182 209/209/209
f 209/209/209 182/182/182 181/181/181
f 209/209/209 181/181/181 180/180/180
f 210/210/210 208/208/208 209/209/209
f 207/207/207 208/208/208 210/210/210
f 211/211/211 209/209/209 180/180/180
f 210/210/210 209/209/209 211/211/211
f 211/211/211 180/180/180 212/212/212
f 212/212/212 180/180/180 179/179/179
f 212/212/212 179/179/179 213/213/213
f 213/213/213 179/179/179 214/214/214
f 179/179/179 173/173/173 214/214/214
f 214/214/214 173/173/173 174/174/174
f 214/214/214 174/174/174 215/215/215
f 215/215/215 174/174/174 175/175/175
f 215/215/215 175/175/175 216/216/216
f 216/216/216 175/175/175 176/176/176
f 216/216/216 176/176/176 217/217/217
f 217/217/217 176/176/176 177/177/177
f 217/217/217 177/177/177 218/218/218
f 218/218/218 177/177/177 219/219/219
f 220/220/220 214/214/214 215/215/215
f 213/213/213 214/214/214 220/220/220
f 221/221/221 215/215/215 216/216/216
f 220/220/220 215/215/215 221/221/221
f 222/222/222 216/216/216 217/217/217
f 221/221/221 216/216/216 222/222/222
f 223/223/223 217/217/217 218/218/218
f 222/222/222 217/217/217 223/223/223
f 223/223/223 218/218/218 224/224/224
f 224/224/224 218/218/218 225/225/225
f 224/224/224 225/225/225 226/226/226
f 226/226/226 225/225/225 227/227/227
f 226/226/226 227/227/227 228/228/228
f 228/228/228 227/227/227 229/229/229
f 228/228/228 229/229/229 230/230/230
f 230/230/230 229/229/229 199/199/199
f 220/220/220 221/221/221 231/231/231
f 232/232/232 220/220/220 231/231/231
f 213/213/213 220/220/220 232/232/232
f 233/233/233 213/213/213 232/232/232
f 212/212/212 213/213/213 233/233/233
f 234/234/234 212/212/212 233/233/233
f 211/211/211 212/212/212 234/234/234
f 235/235/235 211/211/211 234/234/234
f 210/210/210 211/211/211 235/235/235
f 236/236/236 210/210/210 235/235/235
f 207/207/207 210/210/210 236/236/236
f 237/237/237 207/207/207 236/236/236
f 206/206/206 207/207/207 237/237/237
f 238/238/238 206/206/206 237/237/237
f 205/205/205 206/206/206 238/238/238
f 239/239/239 205/205/205 238/238/238
f 204/204/204 205/205/205 239/239/239
f 240/240/240 204/204/204 239/239/239
f 203/203/203 204/204/204 240/240/240
f 241/241/241 203/203/203 240/240/240
f 202/202/202 203/203/203 241/241/241
f 242/242/242 202/202/202 241/241/241
f 200/200/200 202/202/202 242/242/242
f 243/243/243 200/200/200 242/242/242
f 201/201/201 200/200/200 243/243/243
f 244/244/244 201/201/201 243/243/243
f 230/230/230 201/201/201 244/244/244
f 230/230/230 199/199/199 201/201/201
f 245/245/245 230/230/230 244/244/244
f 228/228/228 230/230/230 245/245/245
f 246/246/246 228/228/228 245/245/245
f 226/226/226 228/228/228 246/246/246
f 247/247/247 226/226/226 246/246/246
f 224/224/224 226/226/226 247/247/247
f 248/248/248 224/224/224 247/247/247
f 223/223/223 224/224/224 248/248/248
f 249/249/249 223/223/223 248/248/248
f 222/222/222 223/223/223 249/249/249
f 250/250/250 222/222/222 249/249/249
f 221/221/221 222/222/222 250/250/250
f 231/231/231 221/221/221 250/250/250
f 251/251/251 58/58/58 60/60/60
f 62/62/62 58/58/58 251/251/251
f 155/155/155 144/144/144 252/252/252
f 253/253/253 2/2/2 4/4/4
f 253/253/253 5/5/5 2/2/2
f 253/253/253 7/7/7 5/5/5
f 253/253/253 9/9/9 7/7/7
f 253/253/253 11/11/11 9/9/9
f 253/253/253 13/13/13 11/11/11
f 253/253/253 15/15/15 13/13/13
f 253/253/253 17/17/17 15/15/15
f 253/253/253 19/19/19 17/17/17
f 253/253/253 21/21/21 19/19/19
f 253/253/253 23/23/23 21/21/21
f 253/253/253 25/25/25 23/23/23
f 253/253/253 27/27/27 25/25/25
f 253/253/253 29/29/29 27/27/27
f 253/253/253 31/31/31 29/29/29
f 253/253/253 33/33/33 31/31/31
f 253/253/253 35/35/35 33/33/33
f 253/253/253 37/37/37 35/35/35
f 253/253/253 39/39/39 37/37/37
f 253/253/253 4/4/4 39/39/39
f 256/256/256 255/255/255 254/254/254
f 255/255/255 257/257/257 254/254/254
f 257/257/257 258/258/258 254/254/254
f 259/259/259 256/256/256 254/254/254
f 260/260/260 259/259/259 254/254/254
f 261/261/261 260/260/260 254/254/254
f 258/258/258 262/262/262 254/254/254
f 262/262/262 263/263/263 254/254/254
f 263/263/263 264/264/264 254/254/254
f 264/264/264 265/265/265 254/254/254
f 265/265/265 266/266/266 254/254/254
f 266/266/266 267/267/267 254/254/254
f 267/267/267 268/268/268 254/254/254
f 268/268/268 269/269/269 254/254/254
f 269/269/269 270/270/270 254/254/254
f 270/270/270 271/271/271 254/254/254
f 271/271/271 272/272/272 254/254/254
f 272/272/272 273/273/273 254/254/254
f 274/274/274 261/261/261 254/254/254
f 275/275/275 274/274/274 254/254/254
f 270/270/270 276/276/276 271/271/271
f 270/270/270 277/277/277 276/276/276
f 278/278/278 277/277/277 270/270/270
f 271/271/271 276/276/276 279/279/279
f 271/271/271 279/279/279 272/272/272
f 272/272/272 279/279/279 280/280/280
f 283/283/283 282/282/282 281/281/281
f 283/283/283 284/284/284 282/282/282
f 285/285/285 284/284/284 283/283/283
f 281/281/281 282/282/282 286/286/286
f 281/281/281 286/286/286 287/287/287
f 287/287/287 286/286/286 288/288/288
f 287/287/287 288/288/288 289/289/289
f 289/289/289 288/288/288 290/290/290
f 289/289/289 290/290/290 291/291/291
f 291/291/291 290/290/290 292/292/292
f 291/291/291 292/292/292 293/293/293
f 293/293/293 292/292/292 294/294/294
f 293/293/293 294/294/294 295/295/295
f 295/295/295 294/294/294 296/296/296
f 295/295/295 296/296/296 297/297/297
f 297/297/297 296/296/296 298/298/298
f 285/285/285 299/299/299 284/284/284
f 300/300/300 299/299/299 285/285/285
f 300/300/300 301/301/301 299/299/299
f 304/304/304 303/303/303 302/302/302
f 305/305/305 303/303/303 304/304/304
f 304/304/304 302/302/302 306/306/306
f 305/305/305 307/307/307 303/303/303
f 308/308/308 307/307/307 305/305/305
f 308/308/308 309/309/309 307/307/307
f 310/310/310 309/309/309 308/308/308
f 310/310/310 311/311/311 309/309/309
f 312/312/312 311/311/311 310/310/310
f 312/312/312 313/313/313 311/311/311
f 314/314/314 313/313/313 312/312/312
f 314/314/314 315/315/315 313/313/313
f 316/316/316 315/315/315 314/314/314
f 319/319/319 318/318/318 317/317/317
f 321/321/321 318/318/318 320/320/320
f 324/324/324 323/323/323 322/322/322
f 325/325/325 323/323/323 324/324/324
f 324/324/324 322/322/322 326/326/326
f 326/326/326 322/322/322 327/327/327
f 326/326/326 327/327/327 328/328/328
f 328/328/328 327/327/327 329/329/329
f 325/325/325 330/330/330 323/323/323
f 331/331/331 330/330/330 325/325/325
f 331/331/331 332/332/332 330/330/330
f 333/333/333 332/332/332 331/331/331
f 333/333/333 334/334/334 332/332/332
f 335/335/335 334/334/334 333/333/333
f 335/335/335 336/336/336 334/334/334
f 337/337/337 336/336/336 335/335/335
f 337/337/337 338/338/338 336/336/336
f 339/339/339 338/338/338 337/337/337
f 339/339/339 340/340/340 338/338/338
f 341/341/341 340/340/340 339/339/339
f 341/341/341 342/342/342 340/340/340
f 343/343/343 342/342/342 341/341/341
f 344/344/344 343/343/343 341/341/341
f 345/345/345 343/343/343 344/344/344
f 346/346/346 341/341/341 339/339/339
f 344/344/344 341/341/341 346/346/346
f 347/347/347 339/339/339 337/337/337
f 346/346/346 339/339/339 347/347/347
f 348/348/348 337/337/337 335/335/335
f 347/347/347 337/337/337 348/348/348
f 349/349/349 335/335/335 333/333/333
f 348/348/348 335/335/335 349/349/349
f 350/350/350 345/345/345 344/344/344
f 350/350/350 344/344/344 351/351/351
f 351/351/351 344/344/344 346/346/346
f 352/352/352 350/350/350 351/351/351
f 352/352/352 351/351/351 353/353/353
f 353/353/353 351/351/351 354/354/354
f 351/351/351 346/346/346 354/354/354
f 354/354/354 346/346/346 347/347/347
f 353/353/353 354/354/354 355/355/355
f 355/355/355 354/354/354 356/356/356
f 354/354/354 347/347/347 356/356/356
f 356/356/356 347/347/347 348/348/348
f 355/355/355 356/356/356 357/357/357
f 357/357/357 356/356/356 358/358/358
f 356/356/356 348/348/348 358/358/358
f 358/358/358 348/348/348 349/349/349
f 357/357/357 358/358/358 359/359/359
f 359/359/359 358/358/358 360/360/360
f 358/358/358 349/349/349 360/360/360
f 359/359/359 360/360/360 361/361/361
f 361/361/361 360/360/360 362/362/362
f 361/361/361 362/362/362 363/363/363
f 363/363/363 362/362/362 364/364/364
f 362/362/362 365/365/365 364/364/364
f 364/364/364 365/365/365 366/366/366
f 365/365/365 325/325/325 366/366/366
f 365/365/365 331/331/331 325/325/325
f 367/367/367 331/331/331 365/365/365
f 362/362/362 367/367/367 365/365/365
f 360/360/360 367/367/367 362/362/362
f 367/367/367 333/333/333 331/331/331
f 349/349/349 333/333/333 367/367/367
f 360/360/360 349/349/349 367/367/367
f 366/366/366 325/325/325 324/324/324
f 366/366/366 324/324/324 368/368/368
f 368/368/368 324/324/324 326/326/326
f 368/368/368 326/326/326 369/369/369
f 369/369/369 326/326/326 328/328/328
f 363/363/363 364/364/364 370/370/370
f 370/370/370 364/364/364 371/371/371
f 364/364/364 366/366/366 371/371/371
f 371/371/371 366/366/366 368/368/368
f 371/371/371 368/368/368 372/372/372
f 372/372/372 368/368/368 369/369/369
f 373/373/373 371/371/371 372/372/372
f 370/370/370 371/371/371 373/373/373
f 373/373/373 372/372/372 374/374/374
f 374/374/374 372/372/372 375/375/375
f 376/376/376 350/350/350 352/352/352
f 376/376/376 377/377/377 350/350/350
f 378/378/378 377/377/377 376/376/376
f 381/381/381 380/380/380 379/379/379
f 380/380/380 382/382/382 379/379/379
f 382/382/382 383/383/383 379/379/379
f 383/383/383 384/384/384 379/379/379
f 384/384/384 385/385/385 379/379/379
f 385/385/385 386/386/386 379/379/379
f 381/381/381 379/379/379 387/387/387
f 387/387/387 379/379/379 388/388/388
f 388/388/388 379/379/379 389/389/389
f 389/389/389 379/379/379 390/390/390
f 390/390/390 379/379/379 391/391/391
f 391/391/391 379/379/379 392/392/392
f 386/386/386 393/393/393 379/379/379
f 393/393/393 394/394/394 379/379/379
f 379/379/379 394/394/394 395/395/395
f 392/392/392 379/379/379 395/395/395
f 398/398/398 397/397/397 396/396/396
f 396/396/396 397/397/397 399/399/399
f 397/397/397 400/400/400 399/399/399
f 401/401/401 396/396/396 399/399/399
f 401/401/401 399/399/399 402/402/402
f 401/401/401 402/402/402 403/403/403
f 403/403/403 402/402/402 404/404/404
f 403/403/403 404/404/404 405/405/405
f 405/405/405 404/404/404 406/406/406
f 404/404/404 407/407/407 406/406/406
f 408/408/408 407/407/407 404/404/404
f 402/402/402 408/408/408 404/404/404
f 408/408/408 409/409/409 407/407/407
f 410/410/410 409/409/409 408/408/408
f 411/411/411 410/410/410 408/408/408
f 411/411/411 408/408/408 402/402/402
f 412/412/412 410/410/410 411/411/411
f 413/413/413 412/412/412 411/411/411
f 413/413/413 411/411/411 414/414/414
f 414/414/414 411/411/411 402/402/402
f 415/415/415 403/403/403 405/405/405
f 416/416/416 403/403/403 415/415/415
f 416/416/416 401/401/401 403/403/403
f 417/417/417 416/416/416 415/415/415
f 418/418/418 416/416/416 417/417/417
f 419/419/419 418/418/418 417/417/417
f 420/420/420 418/418/418 419/419/419
f 418/418/418 421/421/421 416/416/416
f 421/421/421 401/401/401 416/416/416
f 422/422/422 421/421/421 418/418/418
f 420/420/420 422/422/422 418/418/418
f 423/423/423 422/422/422 420/420/420
f 421/421/421 396/396/396 401/401/401
f 421/421/421 424/424/424 396/396/396
f 422/422/422 424/424/424 421/421/421
f 424/424/424 398/398/398 396/396/396
f 422/422/422 425/425/425 424/424/424
f 423/423/423 425/425/425 422/422/422
f 425/425/425 426/426/426 424/424/424
f 426/426/426 398/398/398 424/424/424
f 427/427/427 426/426/426 425/425/425
f 425/425/425 423/423/423 428/428/428
f 431/431/431 430/430/430 429/429/429
f 434/434/434 433/433/433 432/432/432
f 435/435/435 433/433/433 434/434/434
f 402/402/402 399/399/399 436/436/436
f 437/437/437 412/412/412 413/413/413
