g GVG_Stove_BoxRocketRed_mesh
v 172.5204 256.1839 -357.9753
v 174.0384 259.1839 -353.9851
v 177.1442 269.4914 -364.4296
v 179.0389 273.6716 -359.7
v 173.4144 264.2293 -368.023
v 169.5189 252.455 -361.082
v 170.0964 227.6808 -349.2509
v 167.1159 225.1569 -352.8327
v 165.3097 248.3467 -362.9988
v 168.0847 257.6217 -369.141
v 173.4144 264.2293 -368.023
v 162.9883 223.1297 -355.4529
v 160.2895 244.2519 -363.5294
v 161.8525 251.7406 -369.5341
v 168.0847 257.6217 -369.141
v 158.1178 221.7986 -356.848
v 154.9433 240.573 -362.6075
v 155.2146 246.4077 -368.1586
v 161.8525 251.7406 -369.5341
v 152.9861 221.2952 -356.8753
v 158.0163 213.3394 -357.7622
v 151.8695 213.8385 -358.1269
v 148.1034 221.6706 -355.5298
v 146.0407 215.4346 -356.828
v 143.9548 222.8886 -352.9456
v 145.3787 235.8785 -356.8577
v 142.1303 235.3551 -352.589
v 139.3647 240.1032 -355.9135
v 136.5121 241.6042 -350.5693
v 140.9507 224.8302 -349.3813
v 140.3876 236.1707 -347.9331
v 136.5121 241.6042 -350.5693
v 139.3845 227.3041 -345.193
v 140.326 238.2426 -343.3596
v 136.4623 244.43 -345.0359
v 136.5121 241.6042 -350.5693
v 139.4042 230.0667 -340.7961
v 149.8003 237.6819 -360.3106
v 143.3425 239.4435 -360.7383
v 148.8289 242.162 -365.1308
v 155.2146 246.4077 -368.1586
v 168.0847 257.6217 -369.141
v 173.4144 264.2293 -368.023
v 166.8682 265.2765 -368.0649
v 171.744 269.4784 -367.1292
v 169.8016 297.1409 -377.6001
v 173.5237 297.9496 -374.8298
v 174.69 273.1438 -364.0687
v 176.175 299.157 -371.1288
v 165.373 296.8099 -379.1689
v 161.9459 261.3774 -368.6253
v 160.6712 296.9893 -379.3824
v 156.706 257.9347 -367.7698
v 156.157 297.6613 -378.2196
v 151.6671 255.2964 -365.57
v 152.2716 298.7601 -375.795
v 147.3363 253.7367 -362.2358
v 149.3955 300.1782 -372.3449
v 144.1553 253.4232 -358.0955
v 147.8105 301.7769 -368.2079
v 142.4495 254.3938 -353.5647
v 147.6718 303.3996 -363.7885
v 142.3901 256.5511 -349.0999
v 148.9926 304.8875 -359.519
v 143.9765 259.6721 -345.1487
v 155.2146 246.4077 -368.1586
v 148.8289 242.162 -365.1308
v 148.8289 242.162 -365.1308
v 143.3425 239.4435 -360.7383
v 143.3425 239.4435 -360.7383
v 139.3647 240.1032 -355.9135
v 139.3647 240.1032 -355.9135
v 136.5121 241.6042 -350.5693
v 143.3425 239.4435 -360.7383
v 149.8003 237.6819 -360.3106
v 148.8289 242.162 -365.1308
v 139.3647 240.1032 -355.9135
v 145.3787 235.8785 -356.8577
v 143.3425 239.4435 -360.7383
v 139.2101 248.2864 -339.8716
v 140.326 238.2426 -343.3596
v 136.4623 244.43 -345.0359
v 141.9445 241.3558 -339.3275
v 143.0738 252.1377 -335.8024
v 145.07 245.1894 -336.237
v 139.4042 230.0667 -340.7961
v 141.0004 232.8461 -336.6229
v 151.8436 206.4784 -354.4291
v 157.8996 206.0585 -354.0912
v 163.6538 206.6333 -352.1106
v 163.869 213.9879 -355.7687
v 168.5347 208.1452 -348.6854
v 168.8447 215.7186 -352.3464
v 172.0601 210.4421 -344.1569
v 172.4509 218.3576 -347.8379
v 146.0873 207.8505 -353.0921
v 141.1064 217.9669 -353.9984
v 141.1989 210.0368 -350.2158
v 137.5496 221.1819 -349.9231
v 137.657 212.8185 -346.0883
v 135.7123 224.7606 -345.0086
v 170.6948 203.6769 -342.9207
v 167.2327 202.0975 -347.6571
v 144.8186 201.7674 -352.0458
v 150.6107 200.87 -353.5195
v 156.6703 200.6203 -353.2321
v 162.3993 201.0435 -351.2113
v 139.8632 203.2227 -348.9578
v 136.23 205.0909 -344.5613
v 135.8032 215.92 -341.12
v 135.7123 224.7606 -345.0086
v 134.2716 207.1873 -339.2901
v 135.811 219.0362 -335.8001
v 135.7647 228.3512 -339.7395
v 135.7123 224.7606 -345.0086
v 137.6921 231.6044 -334.6306
v 137.6718 221.8641 -330.6485
v 160.3062 193.9948 -346.7346
v 164.4119 194.4404 -343.5505
v 167.3235 195.0766 -339.2713
v 168.756 195.8412 -334.3158
v 172.447 205.6247 -337.4695
v 137.6438 195.3246 -340.389
v 140.858 194.6372 -344.4375
v 145.1836 194.1212 -347.3039
v 150.1972 193.827 -348.7079
v 155.4081 193.7834 -348.5116
v 168.569 196.6591 -329.169
v 135.8558 196.1161 -335.5547
v 134.1755 209.3059 -333.6617
v 135.9469 211.2403 -328.2267
v 135.6688 196.9341 -330.408
v 137.1012 197.6986 -325.4524
v 139.41 212.803 -323.5146
v 140.0128 198.3349 -321.1732
v 161.8525 251.7406 -369.5341
v 161.8525 251.7406 -369.5341
v 155.2146 246.4077 -368.1586
v 149.5161 249.1073 -335.1029
v 145.07 245.1894 -336.237
v 148.6423 257.7135 -334.8325
v 143.0738 252.1377 -335.8024
v 144.0101 235.3692 -333.0798
v 154.978 263.4896 -334.8232
v 156.4535 271.0009 -340.9861
v 151.4542 267.1781 -341.2478
v 160.1645 306.933 -353.3481
v 155.6868 306.6423 -354.6676
v 147.0394 263.4362 -342.1033
v 143.0738 252.1377 -335.8024
v 148.6423 257.7135 -334.8325
v 151.6437 306.0949 -355.8181
v 143.9765 259.6721 -345.1487
v 148.9926 304.8875 -359.519
v 164.7576 306.8421 -352.5866
v 161.5969 274.4573 -341.6097
v 154.978 263.4896 -334.8232
v 169.4484 306.0266 -354.639
v 166.6695 276.7951 -344.5063
v 161.5003 268.8171 -336.006
v 172.8961 305.2843 -354.8532
v 170.5821 278.708 -346.2794
v 167.8851 272.6447 -339.838
v 170.5821 278.708 -346.2794
v 139.2101 248.2864 -339.8716
v 136.4623 244.43 -345.0359
v 142.3901 256.5511 -349.0999
v 161.5003 268.8171 -336.006
v 172.8603 275.799 -342.4934
v 167.8851 272.6447 -339.838
v 173.6685 278.9686 -350.3556
v 172.8603 275.799 -342.4934
v 136.4623 244.43 -345.0359
v 136.5121 241.6042 -350.5693
v 142.4495 254.3938 -353.5647
v 143.0738 252.1377 -335.8024
v 154.978 263.4896 -334.8232
v 149.5161 249.1073 -335.1029
v 148.6423 257.7135 -334.8325
v 154.6078 253.1296 -334.8376
v 148.2272 237.0891 -331.0161
v 153.0821 238.3567 -329.7552
v 159.8741 256.8048 -335.6264
v 161.5003 268.8171 -336.006
v 154.978 263.4896 -334.8232
v 158.1317 238.9511 -329.575
v 152.1368 236.0976 -325.4735
v 146.3333 235.5229 -327.35
v 146.1271 225.3007 -323.2311
v 151.8406 225.8147 -321.3471
v 158.1831 235.742 -324.9165
v 157.8137 225.5132 -320.8505
v 164.021 233.9803 -326.4562
v 163.5776 224.0045 -322.3862
v 168.8203 231.9935 -328.511
v 168.3546 222.2681 -324.6234
v 172.4166 228.8092 -332.5342
v 171.9291 219.5117 -328.7079
v 174.32 225.2425 -337.4193
v 171.6102 233.2062 -340.6829
v 171.6425 230.454 -345.0638
v 174.0384 259.1839 -353.9851
v 173.9378 261.1771 -349.4949
v 179.0389 273.6716 -359.7
v 178.8286 275.6269 -353.3024
v 172.233 261.9787 -344.9324
v 176.7385 276.6201 -347.7191
v 169.0848 261.5115 -340.7315
v 172.8603 275.799 -342.4934
v 170.0101 235.6693 -336.5343
v 167.0031 237.6037 -333.0185
v 163.0201 238.4052 -331.199
v 165.0166 259.4069 -338.4789
v 172.8603 275.799 -342.4934
v 167.8851 272.6447 -339.838
v 161.5003 268.8171 -336.006
v 175.7721 303.8661 -358.303
v 170.5821 278.708 -346.2794
v 172.8961 305.2843 -354.8532
v 173.6685 278.9686 -350.3556
v 177.3571 302.2675 -362.4401
v 173.6685 278.9686 -350.3556
v 175.7721 303.8661 -358.303
v 175.3386 278.011 -354.7983
v 177.496 300.6448 -366.8596
v 175.3386 278.011 -354.7983
v 176.1816 276.1579 -360.1571
v 176.175 299.157 -371.1288
v 176.1816 276.1579 -360.1571
v 174.69 273.1438 -364.0687
v 176.7385 276.6201 -347.7191
v 173.6685 278.9686 -350.3556
v 172.8603 275.799 -342.4934
v 173.6685 278.9686 -350.3556
v 178.8286 275.6269 -353.3024
v 175.3386 278.011 -354.7983
v 176.1816 276.1579 -360.1571
v 179.0389 273.6716 -359.7
v 174.69 273.1438 -364.0687
v 179.0389 273.6716 -359.7
v 176.1816 276.1579 -360.1571
v 177.1442 269.4914 -364.4296
v 171.744 269.4784 -367.1292
v 173.4144 264.2293 -368.023
v 172.8603 275.799 -342.4934
v 165.0166 259.4069 -338.4789
v 167.8851 272.6447 -339.838
v 141.199 224.1299 -326.1652
v 141.3005 234.2056 -330.1768
v 139.41 212.803 -323.5146
v 144.2687 213.6732 -320.2252
v 149.9759 214.0636 -318.2564
v 155.9908 213.8777 -317.8835
v 161.787 212.9067 -319.4642
v 166.6823 211.6938 -322.2078
v 170.3331 209.8393 -326.5811
v 173.8374 216.4202 -333.652
v 174.3353 221.6407 -342.6927
v 173.8854 213.2947 -338.9754
v 172.4509 218.3576 -347.8379
v 172.0601 210.4421 -344.1569
v 170.0964 227.6808 -349.2509
v 167.1159 225.1569 -352.8327
v 168.8447 215.7186 -352.3464
v 162.9883 223.1297 -355.4529
v 163.869 213.9879 -355.7687
v 172.5204 256.1839 -357.9753
v 172.447 205.6247 -337.4695
v 170.6948 203.6769 -342.9207
v 172.3209 207.7483 -331.8392
v 166.781 197.4506 -324.3348
v 163.5668 198.138 -320.2863
v 159.2412 198.6541 -317.4197
v 154.2276 198.9484 -316.016
v 149.0166 198.9918 -316.2121
v 144.1186 198.7805 -317.9893
v 140.0128 198.3349 -321.1732
v 168.569 196.6591 -329.169
v 135.9469 211.2403 -328.2267
v 137.6718 221.8641 -330.6485
v 141.3005 234.2056 -330.1768
v 137.6921 231.6044 -334.6306
v 141.3005 234.2056 -330.1768
v 137.6921 231.6044 -334.6306
v 144.0101 235.3692 -333.0798
v 144.0101 235.3692 -333.0798
v 137.6921 231.6044 -334.6306
v 141.0004 232.8461 -336.6229
v 135.7647 228.3512 -339.7395
v 139.4042 230.0667 -340.7961
v 135.7123 224.7606 -345.0086
v 139.4042 230.0667 -340.7961
v 135.7123 224.7606 -345.0086
v 139.3845 227.3041 -345.193
v 135.7123 224.7606 -345.0086
v 137.5496 221.1819 -349.9231
v 139.3845 227.3041 -345.193
v 140.9507 224.8302 -349.3813
v 141.1064 217.9669 -353.9984
v 143.9548 222.8886 -352.9456
v 146.0407 215.4346 -356.828
v 141.3005 234.2056 -330.1768
v 148.2272 237.0891 -331.0161
v 148.2272 237.0891 -331.0161
v 144.0101 235.3692 -333.0798
v 148.2272 237.0891 -331.0161
v 144.0101 235.3692 -333.0798
v 144.0101 235.3692 -333.0798
v 141.0004 232.8461 -336.6229
v 145.07 245.1894 -336.237
v 141.9445 241.3558 -339.3275
v 171.2111 366.6219 -394.6303
v 166.2068 362.6841 -393.5796
v 166.2496 362.1256 -395.103
v 166.7387 361.5754 -396.5291
v 171.2111 366.6219 -394.6303
v 167.6261 361.0873 -397.7184
v 171.2111 366.6219 -394.6303
v 166.6143 363.1962 -392.1078
v 139.6257 301.9774 -368.6128
v 142.3352 304.3804 -363.2429
v 167.4324 363.6117 -390.832
v 146.1399 306.1132 -357.9318
v 168.581 363.8898 -389.877
v 151.4822 307.2736 -353.956
v 169.9473 364.0037 -389.3362
v 157.8376 307.7485 -351.7049
v 171.398 363.9418 -389.2626
v 164.5847 307.4911 -351.3984
v 172.791 363.7105 -389.6633
v 171.0639 306.5268 -353.0666
v 173.9898 363.3323 -390.4992
v 176.6397 304.9498 -356.547
v 174.8772 362.8442 -391.6884
v 180.7671 302.9145 -361.4978
v 175.3662 362.294 -393.1145
v 182.3196 300.6457 -367.5071
v 175.4091 361.7355 -394.638
v 183.2619 298.4237 -375.0739
v 175.0015 361.2234 -396.1097
v 181.0407 295.9423 -381.5903
v 174.1834 360.808 -397.3854
v 171.2111 366.6219 -394.6303
v 171.2111 366.6219 -394.6303
v 171.2111 366.6219 -394.6303
v 171.2111 366.6219 -394.6303
v 171.2111 366.6219 -394.6303
v 171.2111 366.6219 -394.6303
v 171.2111 366.6219 -394.6303
v 171.2111 366.6219 -394.6303
v 171.2111 366.6219 -394.6303
v 171.2111 366.6219 -394.6303
v 171.2111 366.6219 -394.6303
v 171.2111 366.6219 -394.6303
v 174.1834 360.808 -397.3854
v 171.2111 366.6219 -394.6303
v 173.035 360.5297 -398.3405
v 173.035 360.5297 -398.3405
v 171.2111 366.6219 -394.6303
v 171.6685 360.4159 -398.8813
v 171.6685 360.4159 -398.8813
v 171.2111 366.6219 -394.6303
v 170.2178 360.4777 -398.9549
v 170.2178 360.4777 -398.9549
v 171.2111 366.6219 -394.6303
v 168.8249 360.7091 -398.5541
v 168.8249 360.7091 -398.5541
v 171.2111 366.6219 -394.6303
v 167.6261 361.0873 -397.7184
v 176.5981 293.6368 -386.6881
v 181.0407 295.9423 -381.5903
v 174.1834 360.808 -397.3854
v 173.035 360.5297 -398.3405
v 172.1987 293.263 -389.1917
v 171.6685 360.4159 -398.8813
v 165.843 292.7881 -391.443
v 170.2178 360.4777 -398.9549
v 159.0955 293.0454 -391.7493
v 168.8249 360.7091 -398.5541
v 152.6169 294.0098 -390.0806
v 167.6261 361.0873 -397.7184
v 147.0409 295.5867 -386.6009
v 166.7387 361.5754 -396.5291
v 141.3896 297.7491 -382.1511
v 166.2496 362.1256 -395.103
v 140.0237 299.9123 -375.8429
v 166.2068 362.6841 -393.5796
v 139.6257 301.9774 -368.6128
vt 0.512181 0.149002
vt 0.512731 0.155603
vt 0.515298 0.128995
vt 0.515789 0.13649
vt 0.511375 0.124413
vt 0.508788 0.144592
vt 0.522115 0.180932
vt 0.518176 0.174955
vt 0.502874 0.142802
vt 0.504417 0.125579
vt 0.511375 0.124413
vt 0.511398 0.170684
vt 0.495 0.143816
vt 0.495035 0.127829
vt 0.504417 0.125579
vt 0.502443 0.168538
vt 0.485921 0.147546
vt 0.484153 0.133358
vt 0.495035 0.127829
vt 0.492186 0.168732
vt 0.507395 0.170874
vt 0.494572 0.169899
vt 0.48163 0.171249
vt 0.481392 0.171715
vt 0.471807 0.175844
vt 0.467718 0.161519
vt 0.460391 0.170403
vt 0.452466 0.161312
vt 0.444451 0.171386
vt 0.463676 0.182067
vt 0.455272 0.179419
vt 0.444451 0.171386
vt 0.458033 0.189307
vt 0.452875 0.187669
vt 0.441377 0.181218
vt 0.444451 0.171386
vt 0.455433 0.196853
vt 0.476519 0.153643
vt 0.462163 0.151892
vt 0.472825 0.141644
vt 0.484153 0.133358
vt 0.504417 0.125579
vt 0.511375 0.124413
vt 0.497059 0.123782
vt 0.504549 0.123494
vt 0.485907 0.087306
vt 0.492701 0.092563
vt 0.507886 0.127828
vt 0.496788 0.09953
vt 0.477071 0.084264
vt 0.489237 0.124674
vt 0.467049 0.083727
vt 0.4802 0.128199
vt 0.456809 0.08575
vt 0.470824 0.134027
vt 0.447342 0.090138
vt 0.46203 0.141595
vt 0.439567 0.096472
vt 0.45469 0.150163
vt 0.43425 0.104143
vt 0.449538 0.158886
vt 0.431917 0.112405
vt 0.447091 0.166898
vt 0.432811 0.12045
vt 0.447596 0.173402
vt 0.484153 0.133358
vt 0.472825 0.141644
vt 0.472825 0.141644
vt 0.462163 0.151892
vt 0.462163 0.151892
vt 0.452466 0.161312
vt 0.452466 0.161312
vt 0.444451 0.171386
vt 0.462163 0.151892
vt 0.476519 0.153643
vt 0.472825 0.141644
vt 0.452466 0.161312
vt 0.467718 0.161519
vt 0.462163 0.151892
vt 0.443566 0.189831
vt 0.452875 0.187669
vt 0.441377 0.181218
vt 0.453442 0.194337
vt 0.448344 0.196249
vt 0.456913 0.198759
vt 0.455433 0.196853
vt 0.45613 0.203965
vt 0.498088 0.180892
vt 0.510651 0.181771
vt 0.521684 0.18545
vt 0.51861 0.174547
vt 0.530108 0.191573
vt 0.527121 0.18056
vt 0.535096 0.199546
vt 0.532091 0.18833
vt 0.485218 0.182897
vt 0.469137 0.176145
vt 0.473292 0.187594
vt 0.458999 0.18276
vt 0.463472 0.194527
vt 0.451965 0.190917
vt 0.535927 0.205258
vt 0.53071 0.196537
vt 0.486011 0.187931
vt 0.498673 0.185425
vt 0.511127 0.186118
vt 0.522165 0.189945
vt 0.474371 0.193398
vt 0.464885 0.201298
vt 0.456714 0.203023
vt 0.451965 0.190917
vt 0.45848 0.210868
vt 0.453681 0.212257
vt 0.448724 0.199822
vt 0.451965 0.190917
vt 0.4496 0.208606
vt 0.454679 0.221326
vt 0.521047 0.202244
vt 0.528512 0.208382
vt 0.53322 0.216625
vt 0.534706 0.226178
vt 0.537298 0.215263
vt 0.472747 0.214276
vt 0.480563 0.206519
vt 0.490282 0.201049
vt 0.500957 0.198393
vt 0.511555 0.198804
vt 0.532815 0.236109
vt 0.467602 0.22357
vt 0.455789 0.221178
vt 0.457085 0.23122
vt 0.465636 0.233497
vt 0.467054 0.243087
vt 0.462254 0.240006
vt 0.471726 0.251395
vt 0.495035 0.127829
vt 0.495035 0.127829
vt 0.484153 0.133358
vt 0.463531 0.199161
vt 0.456913 0.198759
vt 0.456326 0.195496
vt 0.448344 0.196249
vt 0.460061 0.209945
vt 0.466047 0.192667
vt 0.465852 0.176255
vt 0.457759 0.177635
vt 0.453956 0.132172
vt 0.444875 0.129585
vt 0.451001 0.177753
vt 0.448344 0.196249
vt 0.456326 0.195496
vt 0.436854 0.127485
vt 0.447596 0.173402
vt 0.432811 0.12045
vt 0.463654 0.133803
vt 0.474696 0.173231
vt 0.466047 0.192667
vt 0.474635 0.12997
vt 0.484592 0.166082
vt 0.476745 0.187593
vt 0.482501 0.129918
vt 0.492067 0.161457
vt 0.488686 0.177791
vt 0.492067 0.161457
vt 0.443566 0.189831
vt 0.441377 0.181218
vt 0.447091 0.166898
vt 0.476745 0.187593
vt 0.497833 0.170733
vt 0.488686 0.177791
vt 0.499301 0.152933
vt 0.497833 0.170733
vt 0.441377 0.181218
vt 0.444451 0.171386
vt 0.449538 0.158886
vt 0.448344 0.196249
vt 0.466047 0.192667
vt 0.463531 0.199161
vt 0.456326 0.195496
vt 0.471649 0.197736
vt 0.467327 0.213317
vt 0.476383 0.215276
vt 0.480601 0.194316
vt 0.476745 0.187593
vt 0.466047 0.192667
vt 0.486494 0.215358
vt 0.474869 0.225081
vt 0.463555 0.221531
vt 0.468476 0.234744
vt 0.4796 0.238331
vt 0.487543 0.226386
vt 0.492055 0.239482
vt 0.501063 0.224086
vt 0.505215 0.237068
vt 0.51264 0.22085
vt 0.516591 0.233342
vt 0.522805 0.2142
vt 0.526431 0.226365
vt 0.529828 0.206015
vt 0.520244 0.195558
vt 0.522828 0.18803
vt 0.512731 0.155603
vt 0.510387 0.16376
vt 0.515789 0.13649
vt 0.512825 0.148595
vt 0.50537 0.172688
vt 0.506636 0.159559
vt 0.498154 0.181525
vt 0.497833 0.170733
vt 0.514614 0.20278
vt 0.506485 0.208994
vt 0.49734 0.212312
vt 0.490412 0.187187
vt 0.497833 0.170733
vt 0.488686 0.177791
vt 0.476745 0.187593
vt 0.490264 0.123514
vt 0.492067 0.161457
vt 0.482501 0.129918
vt 0.499301 0.152933
vt 0.49552 0.115799
vt 0.499301 0.152933
vt 0.490264 0.123514
vt 0.504353 0.144294
vt 0.497764 0.107535
vt 0.504353 0.144294
vt 0.508384 0.134262
vt 0.496788 0.09953
vt 0.508384 0.134262
vt 0.507886 0.127828
vt 0.506636 0.159559
vt 0.499301 0.152933
vt 0.497833 0.170733
vt 0.499301 0.152933
vt 0.512825 0.148595
vt 0.504353 0.144294
vt 0.508384 0.134262
vt 0.515789 0.13649
vt 0.507886 0.127828
vt 0.515789 0.13649
vt 0.508384 0.134262
vt 0.515298 0.128995
vt 0.504549 0.123494
vt 0.511375 0.124413
vt 0.497833 0.170733
vt 0.490412 0.187187
vt 0.488686 0.177791
vt 0.459617 0.229339
vt 0.454517 0.216407
vt 0.462254 0.240006
vt 0.471038 0.246256
vt 0.482157 0.250061
vt 0.494599 0.250902
vt 0.507459 0.24815
vt 0.518826 0.243162
vt 0.528316 0.235194
vt 0.533171 0.217836
vt 0.533026 0.197101
vt 0.536154 0.208595
vt 0.532091 0.18833
vt 0.535096 0.199546
vt 0.522115 0.180932
vt 0.518176 0.174955
vt 0.527121 0.18056
vt 0.511398 0.170684
vt 0.51861 0.174547
vt 0.512181 0.149002
vt 0.537298 0.215263
vt 0.535927 0.205258
vt 0.534679 0.225578
vt 0.527721 0.245446
vt 0.519914 0.25327
vt 0.510159 0.258804
vt 0.499416 0.261498
vt 0.488744 0.261083
vt 0.479201 0.2576
vt 0.471726 0.251395
vt 0.532815 0.236109
vt 0.457085 0.23122
vt 0.454679 0.221326
vt 0.454517 0.216407
vt 0.4496 0.208606
vt 0.454517 0.216407
vt 0.4496 0.208606
vt 0.460061 0.209945
vt 0.460061 0.209945
vt 0.4496 0.208606
vt 0.45613 0.203965
vt 0.448724 0.199822
vt 0.455433 0.196853
vt 0.451965 0.190917
vt 0.455433 0.196853
vt 0.451965 0.190917
vt 0.458033 0.189307
vt 0.451965 0.190917
vt 0.458999 0.18276
vt 0.458033 0.189307
vt 0.463676 0.182067
vt 0.469137 0.176145
vt 0.471807 0.175844
vt 0.481392 0.171715
vt 0.454517 0.216407
vt 0.467327 0.213317
vt 0.467327 0.213317
vt 0.460061 0.209945
vt 0.467327 0.213317
vt 0.460061 0.209945
vt 0.460061 0.209945
vt 0.45613 0.203965
vt 0.456913 0.198759
vt 0.453442 0.194337
vt 0.448891 0.012458
vt 0.440313 0.016993
vt 0.44112 0.014126
vt 0.442868 0.011462
vt 0.448891 0.012458
vt 0.445385 0.009259
vt 0.448891 0.012458
vt 0.440528 0.019781
vt 0.416811 0.103199
vt 0.419798 0.113008
vt 0.441745 0.022216
vt 0.425578 0.123089
vt 0.443845 0.02406
vt 0.435332 0.130729
vt 0.446623 0.02513
vt 0.448099 0.135158
vt 0.449805 0.025321
vt 0.462612 0.135931
vt 0.45308 0.024614
vt 0.477426 0.132972
vt 0.456125 0.02308
vt 0.491064 0.12658
vt 0.458641 0.020869
vt 0.50218 0.117404
vt 0.460382 0.018198
vt 0.508155 0.106198
vt 0.461179 0.015332
vt 0.513116 0.091804
vt 0.460955 0.012549
vt 0.511294 0.079767
vt 0.459733 0.010122
vt 0.448891 0.012458
vt 0.448891 0.012458
vt 0.448891 0.012458
vt 0.448891 0.012458
vt 0.448891 0.012458
vt 0.448891 0.012458
vt 0.448891 0.012458
vt 0.448891 0.012458
vt 0.448891 0.012458
vt 0.448891 0.012458
vt 0.448891 0.012458
vt 0.448891 0.012458
vt 0.459733 0.010122
vt 0.448891 0.012458
vt 0.457634 0.008287
vt 0.457634 0.008287
vt 0.448891 0.012458
vt 0.454862 0.007222
vt 0.454862 0.007222
vt 0.448891 0.012458
vt 0.451689 0.007031
vt 0.451689 0.007031
vt 0.448891 0.012458
vt 0.448424 0.007733
vt 0.448424 0.007733
vt 0.448891 0.012458
vt 0.445385 0.009259
vt 0.504378 0.070586
vt 0.511294 0.079767
vt 0.459733 0.010122
vt 0.457634 0.008287
vt 0.49585 0.065671
vt 0.454862 0.007222
vt 0.483209 0.061332
vt 0.451689 0.007031
vt 0.468877 0.060564
vt 0.448424 0.007733
vt 0.454233 0.063441
vt 0.445385 0.009259
vt 0.440684 0.069692
vt 0.442868 0.011462
vt 0.42635 0.077628
vt 0.44112 0.014126
vt 0.420636 0.089413
vt 0.440313 0.016993
vt 0.416811 0.103199
vn 0.911501 -0.3021038 -0.2791042
vn 0.9761362 -0.2156722 -0.02536892
vn 0.9136472 -0.3820625 -0.138842
vn 0.9500366 -0.3051711 0.06558182
vn 0.8183087 -0.4651954 -0.3375856
vn 0.7743425 -0.3770969 -0.5081257
vn 0.8750344 -0.03713295 -0.4826344
vn 0.6909435 -0.09384935 -0.7167909
vn 0.5800973 -0.433206 -0.6897969
vn 0.6759386 -0.5346922 -0.50716
vn 0.7978302 -0.3072376 -0.5187216
vn 0.4462891 -0.1172056 -0.8871803
vn 0.3368734 -0.4767765 -0.8119116
vn 0.3990839 -0.4646595 -0.7904579
vn 0.3988981 -0.2402885 -0.884953
vn 0.1665005 -0.1047335 -0.9804633
vn 0.05972757 -0.5051688 -0.8609512
vn 0.1546421 -0.5244017 -0.8373104
vn 0.1903353 -0.2976902 -0.9354962
vn -0.1203861 -0.05624051 -0.9911328
vn 0.1864659 -0.1666403 -0.968226
vn -0.1056227 -0.1296651 -0.9859162
vn -0.3855367 0.02591144 -0.9223286
vn -0.3789833 -0.04942314 -0.9240828
vn -0.6026575 0.1361425 -0.7863009
vn -0.5737751 -0.4732289 -0.6684583
vn -0.8154196 -0.3741226 -0.4417274
vn -0.8258494 -0.2528604 -0.5040182
vn -0.9684272 -0.1368863 -0.2083525
vn -0.752961 0.2646627 -0.6024976
vn -0.9589545 -0.269705 -0.08755262
vn -0.892433 -0.4087717 -0.1909684
vn -0.8300902 0.3973553 -0.3912274
vn -0.9565927 -0.1207204 0.265249
vn -0.9810678 9.482218E-05 0.1936647
vn -0.9658908 -0.2237149 -0.1304093
vn -0.8389332 0.5185739 -0.1651432
vn -0.2378327 -0.5164986 -0.8225964
vn -0.3079319 -0.7668526 -0.5631297
vn -0.113042 -0.5725887 -0.8120121
vn -0.06599998 -0.3402694 -0.9380089
vn 0.1591654 -0.05186678 -0.9858885
vn 0.1677526 0.2059486 -0.9640769
vn 0.2024007 -0.07492946 -0.9764321
vn 0.4911774 0.01572416 -0.8709176
vn 0.4608439 -0.2809677 -0.8418314
vn 0.7587926 -0.2126067 -0.6156561
vn 0.7611718 0.1543413 -0.6299178
vn 0.9234654 -0.1479024 -0.3540291
vn 0.2388845 -0.2980784 -0.9241663
vn 0.0275162 -0.09442286 -0.9951519
vn -0.07102048 -0.2776766 -0.9580458
vn -0.2440859 -0.09206986 -0.9653732
vn -0.3736786 -0.2288182 -0.8988919
vn -0.4968644 -0.05867596 -0.8658423
vn -0.6398522 -0.1564353 -0.7524075
vn -0.7115801 -0.001201776 -0.7026039
vn -0.8436985 -0.06764556 -0.5325382
vn -0.8625643 0.08030273 -0.4995343
vn -0.9650223 0.02883377 -0.2605775
vn -0.945805 0.1835939 -0.2678549
vn -0.9916559 0.1235596 0.0367623
vn -0.9593964 0.2820122 0.005273691
vn -0.9209141 0.2073091 0.3300608
vn -0.8923879 0.3488178 0.2863039
vn -0.2847996 -0.1275201 -0.9500673
vn -0.3306093 -0.3632559 -0.8710584
vn -0.5253242 -0.1249277 -0.8416814
vn -0.6756173 -0.2413749 -0.69662
vn -0.7581159 -0.0836041 -0.6467384
vn -0.8258494 -0.2528604 -0.5040182
vn -0.8480967 -0.1343476 -0.5125258
vn -0.9521503 -0.05082123 -0.3013752
vn -0.4353289 -0.5991071 -0.6719818
vn -0.2378327 -0.5164986 -0.8225964
vn -0.3306093 -0.3632559 -0.8710584
vn -0.7193952 -0.5041037 -0.4778599
vn -0.5737751 -0.4732289 -0.6684583
vn -0.6059434 -0.3553457 -0.7117317
vn -0.8658323 0.1161255 0.4866717
vn -0.9565927 -0.1207204 0.265249
vn -0.9576462 -0.08520892 0.2750513
vn -0.8339888 -0.008244528 0.5517198
vn -0.6187491 0.2040556 0.7586243
vn -0.5371115 0.08646132 0.8390683
vn -0.8879763 0.4519424 -0.08512386
vn -0.7847183 0.6156172 0.07233737
vn -0.1285971 -0.2965862 -0.9463083
vn 0.184905 -0.3296992 -0.9258015
vn 0.478443 -0.3323401 -0.812799
vn 0.4654089 -0.1608364 -0.8703598
vn 0.7236485 -0.3018422 -0.6206641
vn 0.7036664 -0.1173186 -0.7007781
vn 0.8977655 -0.2397518 -0.369508
vn 0.8796299 -0.04295943 -0.4737149
vn -0.4305173 -0.237608 -0.8707452
vn -0.6038271 0.06737113 -0.7942631
vn -0.6897377 -0.1582817 -0.7065471
vn -0.7609029 0.2063436 -0.6151821
vn -0.8795282 -0.06556008 -0.4713088
vn -0.8958708 0.2483546 -0.3684229
vn 0.8746563 -0.3477376 -0.3377203
vn 0.7039276 -0.3929592 -0.5916663
vn -0.4201419 -0.2944114 -0.8583722
vn -0.1234566 -0.3541485 -0.9270045
vn 0.1808279 -0.3931481 -0.9015187
vn 0.465153 -0.4074984 -0.7858611
vn -0.6801096 -0.2177167 -0.700036
vn -0.8750954 -0.1295825 -0.4662794
vn -0.9812107 0.03210225 -0.1902501
vn -0.8457707 0.3486187 -0.4039022
vn -0.9826854 -0.03791301 -0.1813613
vn -0.9862221 0.1257116 0.1075295
vn -0.9941584 0.03632023 0.1016359
vn -0.9542557 0.1266836 -0.270827
vn -0.8896362 0.3651815 0.2742078
vn -0.8960251 0.2068582 0.3928724
vn 0.3883367 -0.575297 -0.7198806
vn 0.6260492 -0.5399921 -0.5625575
vn 0.8091887 -0.4745484 -0.3464353
vn 0.9188278 -0.3852049 -0.08586418
vn 0.9601608 -0.2752406 -0.04830923
vn -0.8857768 -0.2774564 -0.372045
vn -0.703145 -0.385237 -0.597645
vn -0.4564089 -0.4769903 -0.7511134
vn -0.1743482 -0.5429467 -0.8214692
vn 0.1150166 -0.5766001 -0.8088903
vn 0.9394307 -0.2803187 0.197209
vn -0.9814717 -0.1652508 -0.09698232
vn -0.9911526 0.0480919 0.123708
vn -0.9012115 0.1196346 0.4165398
vn -0.9785076 -0.06027446 0.197205
vn -0.8777213 0.027308 0.4783928
vn -0.7053248 0.1745872 0.687049
vn -0.6812056 0.09675594 0.7256701
vn 0.1903353 -0.2976902 -0.9354962
vn -0.03756334 -0.1029422 -0.9939778
vn -0.06599998 -0.3402694 -0.9380089
vn -0.2688997 0.1555113 0.950531
vn -0.5371115 0.08646132 0.8390683
vn -0.3608271 0.2917357 0.8858295
vn -0.5500844 0.1365996 0.8238616
vn -0.621009 0.3041484 0.7223859
vn -0.291793 0.4070372 0.8655505
vn -0.3318144 0.4850282 0.8091025
vn -0.4682094 0.4590522 0.7550171
vn -0.2469214 0.3372308 0.9084632
vn -0.3435018 0.3302931 0.8791547
vn -0.6712713 0.4227724 0.6088171
vn -0.6187491 0.2040556 0.7586243
vn -0.433452 0.3523956 0.8294195
vn -0.6811241 0.2898855 0.6723366
vn -0.8923879 0.3488178 0.2863039
vn -0.9209141 0.2073091 0.3300608
vn 0.0586989 0.3170454 0.9465921
vn 0.004443595 0.5137069 0.8579542
vn -0.2123266 0.3427283 0.9151255
vn 0.3132718 0.2819534 0.9068424
vn 0.1347468 0.5304164 0.8369598
vn 0.09208339 0.3881453 0.9169863
vn 0.4227416 0.2516872 0.8705993
vn 0.4036161 0.5446405 0.7351604
vn 0.2444347 0.4119296 0.8778186
vn 0.1417824 0.6950792 0.704814
vn -0.8658323 0.1161255 0.4866717
vn -0.9810678 9.482218E-05 0.1936647
vn -0.9593964 0.2820122 0.005273691
vn -0.01069059 0.46424 0.8856449
vn 0.3159507 0.6895829 0.6516523
vn 0.06916413 0.6093174 0.7899042
vn 0.7614395 0.5108049 0.3991093
vn 0.3747904 0.5606964 0.7383438
vn -0.9936466 0.06668498 0.09066207
vn -0.9779943 -0.01826162 -0.2078312
vn -0.945805 0.1835939 -0.2678549
vn -0.7009832 0.2563463 0.6655142
vn -0.2123266 0.3427283 0.9151255
vn -0.2688997 0.1555113 0.950531
vn -0.2850227 0.2237673 0.9320356
vn -0.07754347 0.1744968 0.9815996
vn -0.4004672 0.6280165 0.6672491
vn -0.2063597 0.6758082 0.7076008
vn 0.2383736 0.1533431 0.9589911
vn 0.09208339 0.3881453 0.9169863
vn -0.1317074 0.2747253 0.9524595
vn 0.1385153 0.6130101 0.7778381
vn -0.1869164 0.6565887 0.7307213
vn -0.4143037 0.6805747 0.6042935
vn -0.4394812 0.317908 0.8401135
vn -0.1957262 0.326919 0.9245622
vn 0.1501184 0.6033694 0.7832049
vn 0.1329243 0.3000056 0.944631
vn 0.416688 0.5241634 0.7427138
vn 0.3946956 0.2530202 0.8832873
vn 0.6710197 0.4270336 0.6061146
vn 0.6530821 0.1673899 0.7385557
vn 0.8925466 0.2900881 0.3452674
vn 0.8714648 0.05582707 0.4872704
vn 0.9828137 0.1688369 0.07464082
vn 0.9839581 0.1553334 0.08773732
vn 0.9774894 0.04821864 -0.2054007
vn 0.9761362 -0.2156722 -0.02536892
vn 0.963388 -0.1314832 0.2336578
vn 0.9500366 -0.3051711 0.06558182
vn 0.926672 -0.2365748 0.2920814
vn 0.8702065 -0.04513939 0.490615
vn 0.8417267 -0.1621988 0.5149639
vn 0.6412442 0.05973804 0.7650081
vn 0.6061825 -0.06084161 0.792995
vn 0.8893194 0.2755904 0.3649124
vn 0.6520206 0.4179658 0.6325929
vn 0.3787265 0.5259637 0.7615303
vn 0.4232282 0.1303391 0.8965989
vn 0.6217172 0.1819204 0.7618219
vn 0.3185177 0.3185325 0.8927954
vn 0.198741 0.3106219 0.9295246
vn 0.8463029 0.09577457 0.5240216
vn 0.6263638 0.3694912 0.6863999
vn 0.4227416 0.2516872 0.8705993
vn 0.7614395 0.5108049 0.3991093
vn 0.9676918 -0.001009842 0.2521339
vn 0.8261538 0.4102205 0.38625
vn 0.8463029 0.09577457 0.5240216
vn 0.8866042 0.4531537 0.0926536
vn 0.9976892 -0.0665296 -0.01378512
vn 0.9316121 0.3501033 0.0976047
vn 0.9449224 0.2816613 -0.166699
vn 0.9234654 -0.1479024 -0.3540291
vn 0.9039374 0.339344 -0.2602746
vn 0.7611718 0.1543413 -0.6299178
vn 0.4964386 0.8524838 0.1637683
vn 0.7614395 0.5108049 0.3991093
vn 0.2191701 0.8444316 0.4887737
vn 0.5816917 0.7169709 0.384171
vn 0.6097015 0.7854403 -0.106525
vn 0.8275197 0.5529048 0.09750621
vn 0.9039374 0.339344 -0.2602746
vn 0.6263213 0.5917402 -0.5075088
vn 0.7611718 0.1543413 -0.6299178
vn 0.6263213 0.5917402 -0.5075088
vn 0.847469 0.4041429 -0.3441873
vn 0.4860255 0.3742451 -0.7897593
vn 0.4911774 0.01572416 -0.8709176
vn 0.3480643 0.02689584 -0.9370848
vn 0.4966094 0.3331818 0.8014792
vn 0.4232282 0.1303391 0.8965989
vn 0.2444347 0.4119296 0.8778186
vn -0.6900995 0.278163 0.6681226
vn -0.6575344 0.58864 0.4702676
vn -0.7053248 0.1745872 0.687049
vn -0.4636836 0.2092313 0.8609412
vn -0.1990788 0.2084508 0.9575573
vn 0.121688 0.1692184 0.9780375
vn 0.3872427 0.1144472 0.9148469
vn 0.6485088 0.01763135 0.7610029
vn 0.8470522 -0.08440723 0.5247647
vn 0.976068 -0.05016433 0.2116009
vn 0.9766684 0.05498347 -0.2075949
vn 0.9847806 -0.1525453 -0.08328959
vn 0.8796299 -0.04295943 -0.4737149
vn 0.8977655 -0.2397518 -0.369508
vn 0.8750344 -0.03713295 -0.4826344
vn 0.6909435 -0.09384935 -0.7167909
vn 0.7036664 -0.1173186 -0.7007781
vn 0.4462891 -0.1172056 -0.8871803
vn 0.4654089 -0.1608364 -0.8703598
vn 0.911501 -0.3021038 -0.2791042
vn 0.9601608 -0.2752406 -0.04830923
vn 0.8746563 -0.3477376 -0.3377203
vn 0.9509462 -0.1837844 0.2488469
vn 0.8638518 -0.1700037 0.4741926
vn 0.6968726 -0.06528514 0.7142173
vn 0.4443196 0.03903943 0.8950173
vn 0.1728579 0.1024725 0.9796017
vn -0.1469284 0.1393207 0.9792864
vn -0.435256 0.1395783 0.8894212
vn -0.6812056 0.09675594 0.7256701
vn 0.9394307 -0.2803187 0.197209
vn -0.9012115 0.1196346 0.4165398
vn -0.8960251 0.2068582 0.3928724
vn -0.6482647 0.6622235 0.375783
vn -0.8896362 0.3651815 0.2742078
vn -0.6490079 0.7125371 0.2666077
vn -0.8100513 0.5800557 0.08574619
vn -0.5939664 0.8026947 0.05371393
vn -0.4459111 0.8886004 -0.107484
vn -0.4834791 0.8471897 -0.2202668
vn -0.6582873 0.7306572 -0.1811018
vn -0.4889931 0.7803689 -0.3897564
vn -0.8389332 0.5185739 -0.1651432
vn -0.6711208 0.5376796 -0.5103896
vn -0.6759651 0.6390353 -0.367022
vn -0.8457707 0.3486187 -0.4039022
vn -0.8300902 0.3973553 -0.3912274
vn -0.7727947 0.4138042 -0.4812011
vn -0.7609029 0.2063436 -0.6151821
vn -0.8300902 0.3973553 -0.3912274
vn -0.752961 0.2646627 -0.6024976
vn -0.6038271 0.06737113 -0.7942631
vn -0.6026575 0.1361425 -0.7863009
vn -0.3789833 -0.04942314 -0.9240828
vn -0.6482647 0.6622235 0.375783
vn -0.413452 0.7093997 0.5707973
vn -0.4245551 0.8392836 0.3396409
vn -0.6201187 0.7503586 0.2289424
vn -0.413452 0.7093997 0.5707973
vn -0.6185897 0.5093403 0.5982635
vn -0.6256694 0.6226342 0.4699621
vn -0.8731418 0.2327945 0.4282873
vn -0.5371115 0.08646132 0.8390683
vn -0.8339888 -0.008244528 0.5517198
vn -0.4163455 0.8650071 -0.2800341
vn -0.8311141 0.5428526 -0.1206662
vn -0.8139802 0.4775102 -0.3307873
vn -0.6956027 0.375721 -0.6123484
vn -0.3878702 0.8252153 -0.4105805
vn -0.5585855 0.3048787 -0.7713828
vn -0.3157806 0.7892891 -0.5265979
vn -0.773432 0.6186675 0.1380351
vn -0.9058815 0.4194765 0.05846638
vn -0.809909 0.4912234 0.3205415
vn -0.6554135 0.6725085 0.343752
vn -0.6554289 0.5427707 0.5251788
vn -0.4519711 0.7150057 0.533375
vn -0.4117333 0.5734289 0.7082761
vn -0.1842595 0.7287114 0.6595667
vn -0.1164887 0.5694132 0.8137561
vn 0.1174458 0.7070741 0.6973182
vn 0.1967964 0.5298527 0.8249407
vn 0.4095206 0.6520523 0.6380602
vn 0.4901052 0.4596483 0.7406216
vn 0.6524978 0.5740042 0.494738
vn 0.731487 0.3676315 0.5742592
vn 0.8236106 0.4859246 0.2924774
vn 0.914629 0.2495026 0.3181229
vn 0.9216225 0.3862222 0.0380063
vn 0.9857001 0.1465805 0.083124
vn 0.9299657 0.3234686 -0.1747333
vn 0.9817262 0.06615012 -0.1784314
vn 0.858829 0.2503586 -0.4469152
vn 0.8632034 -0.03329146 -0.5037575
vn 0.7058401 0.1967574 -0.6804972
vn 0.5693038 0.7655494 -0.2997123
vn 0.5153667 0.7753121 -0.3650866
vn 0.4520992 0.7464595 -0.4882668
vn 0.5673172 0.8089678 -0.1540199
vn 0.5152167 0.8568844 -0.01734676
vn 0.4172998 0.9035856 0.09692332
vn 0.2824151 0.942774 0.1772538
vn -0.0419194 0.9776042 0.2062348
vn -0.1969617 0.9685996 0.1517268
vn -0.3251873 0.9438863 0.05772332
vn -0.414134 0.9078323 -0.06583049
vn -0.4558725 0.8657381 -0.2065863
vn 0.7058401 0.1967574 -0.6804972
vn 0.3503612 0.7282465 -0.5889857
vn 0.4794557 0.1649105 -0.861932
vn 0.4794557 0.1649105 -0.861932
vn 0.2201888 0.7211023 -0.6569083
vn 0.2348137 0.1617843 -0.9584823
vn 0.2348137 0.1617843 -0.9584823
vn 0.07440471 0.7245319 -0.6852134
vn -0.05706162 0.1871119 -0.98068
vn -0.05706162 0.1871119 -0.98068
vn -0.07280324 0.7376747 -0.6712196
vn -0.3320383 0.2374467 -0.9128909
vn -0.3320383 0.2374467 -0.9128909
vn -0.2072136 0.759602 -0.6164961
vn -0.5585855 0.3048787 -0.7713828
vn 0.6457335 -0.09877453 -0.7571472
vn 0.8632034 -0.03329146 -0.5037575
vn 0.7058401 0.1967574 -0.6804972
vn 0.4794557 0.1649105 -0.861932
vn 0.4053613 -0.1284096 -0.905093
vn 0.2348137 0.1617843 -0.9584823
vn 0.1434907 -0.1204356 -0.982296
vn -0.05706162 0.1871119 -0.98068
vn -0.1689758 -0.07691815 -0.9826143
vn -0.3320383 0.2374467 -0.9128909
vn -0.4545321 -0.002333173 -0.8907273
vn -0.5585855 0.3048787 -0.7713828
vn -0.6385869 0.07261885 -0.7661157
vn -0.6956027 0.375721 -0.6123484
vn -0.8289822 0.2116303 -0.5176884
vn -0.8139802 0.4775102 -0.3307873
vn -0.9234969 0.3273745 -0.1999486
vn -0.8311141 0.5428526 -0.1206662
vn -0.9058815 0.4194765 0.05846638
g GVG_Stove_BoxRocketRed_mesh_0
f 3/3/3 2/2/2 1/1/1
f 4/4/4 2/2/2 3/3/3
f 3/3/3 1/1/1 5/5/5
f 5/5/5 1/1/1 6/6/6
f 1/1/1 7/7/7 6/6/6
f 6/6/6 7/7/7 8/8/8
f 6/6/6 8/8/8 9/9/9
f 10/10/10 6/6/6 9/9/9
f 11/11/11 6/6/6 10/10/10
f 9/9/9 8/8/8 12/12/12
f 9/9/9 12/12/12 13/13/13
f 14/14/14 9/9/9 13/13/13
f 15/15/15 9/9/9 14/14/14
f 13/13/13 12/12/12 16/16/16
f 13/13/13 16/16/16 17/17/17
f 18/18/18 13/13/13 17/17/17
f 19/19/19 13/13/13 18/18/18
f 17/17/17 16/16/16 20/20/20
f 16/16/16 21/21/21 20/20/20
f 20/20/20 21/21/21 22/22/22
f 20/20/20 22/22/22 23/23/23
f 23/23/23 22/22/22 24/24/24
f 23/23/23 24/24/24 25/25/25
f 26/26/26 23/23/23 25/25/25
f 26/26/26 25/25/25 27/27/27
f 28/28/28 26/26/26 27/27/27
f 28/28/28 27/27/27 29/29/29
f 27/27/27 25/25/25 30/30/30
f 27/27/27 30/30/30 31/31/31
f 32/32/32 27/27/27 31/31/31
f 31/31/31 30/30/30 33/33/33
f 31/31/31 33/33/33 34/34/34
f 35/35/35 31/31/31 34/34/34
f 36/36/36 31/31/31 35/35/35
f 34/34/34 33/33/33 37/37/37
f 38/38/38 23/23/23 26/26/26
f 39/39/39 38/38/38 26/26/26
f 38/38/38 20/20/20 23/23/23
f 17/17/17 20/20/20 38/38/38
f 40/40/40 17/17/17 38/38/38
f 41/41/41 17/17/17 40/40/40
f 44/44/44 43/43/43 42/42/42
f 45/45/45 43/43/43 44/44/44
f 46/46/46 45/45/45 44/44/44
f 47/47/47 45/45/45 46/46/46
f 47/47/47 48/48/48 45/45/45
f 49/49/49 48/48/48 47/47/47
f 46/46/46 44/44/44 50/50/50
f 50/50/50 44/44/44 51/51/51
f 44/44/44 42/42/42 51/51/51
f 50/50/50 51/51/51 52/52/52
f 52/52/52 51/51/51 53/53/53
f 52/52/52 53/53/53 54/54/54
f 54/54/54 53/53/53 55/55/55
f 54/54/54 55/55/55 56/56/56
f 56/56/56 55/55/55 57/57/57
f 56/56/56 57/57/57 58/58/58
f 58/58/58 57/57/57 59/59/59
f 58/58/58 59/59/59 60/60/60
f 60/60/60 59/59/59 61/61/61
f 60/60/60 61/61/61 62/62/62
f 62/62/62 61/61/61 63/63/63
f 62/62/62 63/63/63 64/64/64
f 64/64/64 63/63/63 65/65/65
f 53/53/53 66/66/66 55/55/55
f 55/55/55 66/66/66 67/67/67
f 55/55/55 68/68/68 57/57/57
f 57/57/57 68/68/68 69/69/69
f 57/57/57 70/70/70 59/59/59
f 59/59/59 70/70/70 71/71/71
f 59/59/59 72/72/72 61/61/61
f 61/61/61 72/72/72 73/73/73
f 76/76/76 75/75/75 74/74/74
f 79/79/79 78/78/78 77/77/77
f 82/82/82 81/81/81 80/80/80
f 80/80/80 81/81/81 83/83/83
f 80/80/80 83/83/83 84/84/84
f 84/84/84 83/83/83 85/85/85
f 81/81/81 86/86/86 83/83/83
f 83/83/83 86/86/86 87/87/87
f 22/22/22 88/88/88 24/24/24
f 22/22/22 89/89/89 88/88/88
f 21/21/21 89/89/89 22/22/22
f 21/21/21 90/90/90 89/89/89
f 91/91/91 90/90/90 21/21/21
f 91/91/91 92/92/92 90/90/90
f 93/93/93 92/92/92 91/91/91
f 93/93/93 94/94/94 92/92/92
f 95/95/95 94/94/94 93/93/93
f 24/24/24 88/88/88 96/96/96
f 24/24/24 96/96/96 97/97/97
f 97/97/97 96/96/96 98/98/98
f 97/97/97 98/98/98 99/99/99
f 99/99/99 98/98/98 100/100/100
f 99/99/99 100/100/100 101/101/101
f 94/94/94 102/102/102 92/92/92
f 92/92/92 102/102/102 103/103/103
f 92/92/92 103/103/103 90/90/90
f 96/96/96 104/104/104 98/98/98
f 96/96/96 105/105/105 104/104/104
f 88/88/88 105/105/105 96/96/96
f 88/88/88 106/106/106 105/105/105
f 89/89/89 106/106/106 88/88/88
f 89/89/89 107/107/107 106/106/106
f 90/90/90 103/103/103 107/107/107
f 90/90/90 107/107/107 89/89/89
f 98/98/98 104/104/104 108/108/108
f 98/98/98 108/108/108 100/100/100
f 100/100/100 108/108/108 109/109/109
f 100/100/100 109/109/109 110/110/110
f 111/111/111 100/100/100 110/110/110
f 110/110/110 109/109/109 112/112/112
f 110/110/110 112/112/112 113/113/113
f 114/114/114 110/110/110 113/113/113
f 115/115/115 110/110/110 114/114/114
f 114/114/114 113/113/113 116/116/116
f 116/116/116 113/113/113 117/117/117
f 107/107/107 118/118/118 106/106/106
f 107/107/107 119/119/119 118/118/118
f 103/103/103 119/119/119 107/107/107
f 103/103/103 120/120/120 119/119/119
f 102/102/102 120/120/120 103/103/103
f 102/102/102 121/121/121 120/120/120
f 122/122/122 121/121/121 102/102/102
f 109/109/109 123/123/123 112/112/112
f 109/109/109 124/124/124 123/123/123
f 108/108/108 124/124/124 109/109/109
f 108/108/108 125/125/125 124/124/124
f 104/104/104 125/125/125 108/108/108
f 104/104/104 126/126/126 125/125/125
f 105/105/105 126/126/126 104/104/104
f 105/105/105 127/127/127 126/126/126
f 106/106/106 118/118/118 127/127/127
f 106/106/106 127/127/127 105/105/105
f 122/122/122 128/128/128 121/121/121
f 112/112/112 123/123/123 129/129/129
f 112/112/112 129/129/129 130/130/130
f 113/113/113 112/112/112 130/130/130
f 113/113/113 130/130/130 117/117/117
f 117/117/117 130/130/130 131/131/131
f 130/130/130 129/129/129 132/132/132
f 130/130/130 132/132/132 131/131/131
f 131/131/131 132/132/132 133/133/133
f 131/131/131 133/133/133 134/134/134
f 134/134/134 133/133/133 135/135/135
f 16/16/16 91/91/91 21/21/21
f 12/12/12 91/91/91 16/16/16
f 51/51/51 42/42/42 136/136/136
f 51/51/51 137/137/137 53/53/53
f 53/53/53 137/137/137 138/138/138
f 141/141/141 140/140/140 139/139/139
f 142/142/142 140/140/140 141/141/141
f 140/140/140 143/143/143 139/139/139
f 145/145/145 141/141/141 144/144/144
f 146/146/146 141/141/141 145/145/145
f 147/147/147 146/146/146 145/145/145
f 148/148/148 146/146/146 147/147/147
f 148/148/148 149/149/149 146/146/146
f 149/149/149 150/150/150 146/146/146
f 146/146/146 150/150/150 151/151/151
f 152/152/152 149/149/149 148/148/148
f 152/152/152 153/153/153 149/149/149
f 154/154/154 153/153/153 152/152/152
f 147/147/147 145/145/145 155/155/155
f 155/155/155 145/145/145 156/156/156
f 145/145/145 157/157/157 156/156/156
f 155/155/155 156/156/156 158/158/158
f 158/158/158 156/156/156 159/159/159
f 156/156/156 160/160/160 159/159/159
f 158/158/158 159/159/159 161/161/161
f 161/161/161 159/159/159 162/162/162
f 159/159/159 160/160/160 163/163/163
f 159/159/159 163/163/163 164/164/164
f 153/153/153 165/165/165 149/149/149
f 153/153/153 166/166/166 165/165/165
f 167/167/167 166/166/166 153/153/153
f 156/156/156 157/157/157 168/168/168
f 164/164/164 170/170/170 169/169/169
f 162/162/162 172/172/172 171/171/171
f 167/167/167 174/174/174 173/173/173
f 175/175/175 174/174/174 167/167/167
f 149/149/149 165/165/165 176/176/176
f 179/179/179 178/178/178 177/177/177
f 177/177/177 178/178/178 180/180/180
f 178/178/178 181/181/181 180/180/180
f 180/180/180 181/181/181 182/182/182
f 180/180/180 182/182/182 183/183/183
f 184/184/184 180/180/180 183/183/183
f 185/185/185 180/180/180 184/184/184
f 183/183/183 182/182/182 186/186/186
f 182/182/182 187/187/187 186/186/186
f 182/182/182 188/188/188 187/187/187
f 188/188/188 189/189/189 187/187/187
f 187/187/187 189/189/189 190/190/190
f 187/187/187 190/190/190 191/191/191
f 186/186/186 187/187/187 191/191/191
f 191/191/191 190/190/190 192/192/192
f 191/191/191 192/192/192 193/193/193
f 193/193/193 192/192/192 194/194/194
f 193/193/193 194/194/194 195/195/195
f 195/195/195 194/194/194 196/196/196
f 195/195/195 196/196/196 197/197/197
f 197/197/197 196/196/196 198/198/198
f 197/197/197 198/198/198 199/199/199
f 200/200/200 197/197/197 199/199/199
f 200/200/200 199/199/199 201/201/201
f 202/202/202 200/200/200 201/201/201
f 203/203/203 200/200/200 202/202/202
f 204/204/204 203/203/203 202/202/202
f 205/205/205 203/203/203 204/204/204
f 205/205/205 206/206/206 203/203/203
f 207/207/207 206/206/206 205/205/205
f 207/207/207 208/208/208 206/206/206
f 209/209/209 208/208/208 207/207/207
f 210/210/210 195/195/195 197/197/197
f 210/210/210 197/197/197 200/200/200
f 203/203/203 210/210/210 200/200/200
f 206/206/206 210/210/210 203/203/203
f 211/211/211 195/195/195 210/210/210
f 206/206/206 211/211/211 210/210/210
f 208/208/208 211/211/211 206/206/206
f 208/208/208 212/212/212 211/211/211
f 212/212/212 193/193/193 211/211/211
f 212/212/212 191/191/191 193/193/193
f 186/186/186 191/191/191 212/212/212
f 211/211/211 193/193/193 195/195/195
f 213/213/213 212/212/212 208/208/208
f 213/213/213 186/186/186 212/212/212
f 214/214/214 213/213/213 208/208/208
f 183/183/183 186/186/186 213/213/213
f 215/215/215 183/183/183 213/213/213
f 216/216/216 183/183/183 215/215/215
f 219/219/219 218/218/218 217/217/217
f 217/217/217 218/218/218 220/220/220
f 223/223/223 222/222/222 221/221/221
f 221/221/221 222/222/222 224/224/224
f 221/221/221 226/226/226 225/225/225
f 225/225/225 224/224/224 227/227/227
f 225/225/225 229/229/229 228/228/228
f 228/228/228 229/229/229 230/230/230
f 232/232/232 231/231/231 224/224/224
f 234/234/234 233/233/233 231/231/231
f 236/236/236 231/231/231 235/235/235
f 224/224/224 235/235/235 237/237/237
f 237/237/237 235/235/235 238/238/238
f 241/241/241 240/240/240 239/239/239
f 239/239/239 240/240/240 242/242/242
f 239/239/239 242/242/242 243/243/243
f 243/243/243 242/242/242 244/244/244
f 247/247/247 246/246/246 245/245/245
f 188/188/188 248/248/248 189/189/189
f 249/249/249 248/248/248 188/188/188
f 248/248/248 250/250/250 189/189/189
f 189/189/189 250/250/250 251/251/251
f 189/189/189 251/251/251 190/190/190
f 190/190/190 251/251/251 252/252/252
f 190/190/190 252/252/252 192/192/192
f 192/192/192 252/252/252 253/253/253
f 192/192/192 253/253/253 194/194/194
f 194/194/194 253/253/253 254/254/254
f 194/194/194 254/254/254 196/196/196
f 196/196/196 254/254/254 255/255/255
f 196/196/196 255/255/255 198/198/198
f 198/198/198 255/255/255 256/256/256
f 198/198/198 256/256/256 257/257/257
f 199/199/199 198/198/198 257/257/257
f 199/199/199 257/257/257 258/258/258
f 258/258/258 257/257/257 259/259/259
f 258/258/258 259/259/259 260/260/260
f 260/260/260 259/259/259 261/261/261
f 262/262/262 258/258/258 260/260/260
f 201/201/201 258/258/258 262/262/262
f 201/201/201 199/199/199 258/258/258
f 262/262/262 260/260/260 263/263/263
f 263/263/263 260/260/260 264/264/264
f 263/263/263 264/264/264 265/265/265
f 265/265/265 264/264/264 266/266/266
f 267/267/267 201/201/201 262/262/262
f 202/202/202 201/201/201 267/267/267
f 259/259/259 268/268/268 261/261/261
f 261/261/261 268/268/268 269/269/269
f 257/257/257 270/270/270 259/259/259
f 259/259/259 270/270/270 268/268/268
f 257/257/257 256/256/256 270/270/270
f 256/256/256 271/271/271 270/270/270
f 256/256/256 272/272/272 271/271/271
f 255/255/255 272/272/272 256/256/256
f 255/255/255 273/273/273 272/272/272
f 254/254/254 273/273/273 255/255/255
f 254/254/254 274/274/274 273/273/273
f 253/253/253 274/274/274 254/254/254
f 253/253/253 275/275/275 274/274/274
f 252/252/252 275/275/275 253/253/253
f 252/252/252 276/276/276 275/275/275
f 251/251/251 276/276/276 252/252/252
f 251/251/251 277/277/277 276/276/276
f 250/250/250 277/277/277 251/251/251
f 270/270/270 271/271/271 278/278/278
f 270/270/270 278/278/278 268/268/268
f 248/248/248 279/279/279 250/250/250
f 280/280/280 279/279/279 248/248/248
f 281/281/281 280/280/280 248/248/248
f 282/282/282 280/280/280 281/281/281
f 285/285/285 284/284/284 283/283/283
f 288/288/288 287/287/287 286/286/286
f 288/288/288 289/289/289 287/287/287
f 290/290/290 289/289/289 288/288/288
f 292/292/292 291/291/291 289/289/289
f 294/294/294 293/293/293 290/290/290
f 297/297/297 296/296/296 295/295/295
f 298/298/298 296/296/296 297/297/297
f 298/298/298 299/299/299 296/296/296
f 300/300/300 299/299/299 298/298/298
f 300/300/300 301/301/301 299/299/299
f 303/303/303 302/302/302 188/188/188
f 303/303/303 188/188/188 182/182/182
f 305/305/305 302/302/302 304/304/304
f 139/139/139 307/307/307 306/306/306
f 310/310/310 309/309/309 308/308/308
f 311/311/311 309/309/309 310/310/310
f 314/314/314 313/313/313 312/312/312
f 314/314/314 316/316/316 315/315/315
f 315/315/315 318/318/318 317/317/317
f 313/313/313 320/320/320 319/319/319
f 319/319/319 320/320/320 321/321/321
f 319/319/319 321/321/321 322/322/322
f 322/322/322 321/321/321 323/323/323
f 322/322/322 323/323/323 324/324/324
f 324/324/324 323/323/323 325/325/325
f 324/324/324 325/325/325 326/326/326
f 326/326/326 325/325/325 327/327/327
f 326/326/326 327/327/327 328/328/328
f 328/328/328 327/327/327 329/329/329
f 328/328/328 329/329/329 330/330/330
f 330/330/330 329/329/329 331/331/331
f 330/330/330 331/331/331 332/332/332
f 332/332/332 331/331/331 333/333/333
f 332/332/332 333/333/333 334/334/334
f 334/334/334 333/333/333 335/335/335
f 334/334/334 335/335/335 336/336/336
f 336/336/336 335/335/335 337/337/337
f 336/336/336 337/337/337 338/338/338
f 338/338/338 337/337/337 339/339/339
f 338/338/338 339/339/339 340/340/340
f 340/340/340 339/339/339 341/341/341
f 340/340/340 341/341/341 342/342/342
f 343/343/343 336/336/336 338/338/338
f 340/340/340 344/344/344 338/338/338
f 342/342/342 345/345/345 340/340/340
f 334/334/334 336/336/336 346/346/346
f 332/332/332 334/334/334 347/347/347
f 330/330/330 332/332/332 348/348/348
f 328/328/328 330/330/330 349/349/349
f 326/326/326 328/328/328 350/350/350
f 324/324/324 326/326/326 351/351/351
f 322/322/322 324/324/324 352/352/352
f 319/319/319 322/322/322 353/353/353
f 313/313/313 319/319/319 354/354/354
f 357/357/357 356/356/356 355/355/355
f 360/360/360 359/359/359 358/358/358
f 363/363/363 362/362/362 361/361/361
f 366/366/366 365/365/365 364/364/364
f 369/369/369 368/368/368 367/367/367
f 372/372/372 371/371/371 370/370/370
f 372/372/372 370/370/370 373/373/373
f 373/373/373 370/370/370 374/374/374
f 373/373/373 374/374/374 375/375/375
f 375/375/375 374/374/374 376/376/376
f 375/375/375 376/376/376 377/377/377
f 377/377/377 376/376/376 378/378/378
f 377/377/377 378/378/378 379/379/379
f 379/379/379 378/378/378 380/380/380
f 379/379/379 380/380/380 381/381/381
f 381/381/381 380/380/380 382/382/382
f 381/381/381 382/382/382 383/383/383
f 383/383/383 382/382/382 384/384/384
f 383/383/383 384/384/384 385/385/385
f 385/385/385 384/384/384 386/386/386
f 385/385/385 386/386/386 387/387/387
f 387/387/387 386/386/386 388/388/388
