g GVG_Stove_BigRedRocket_mesh
v 384.8986 299.7378 -167.6897
v 385.1653 299.7378 -164.2984
v 372.3227 306.1014 -162.7265
v 383.5679 299.7378 -170.8677
v 384.3422 299.7378 -161.0259
v 399.518 272.6849 -179.506
v 396.9718 272.6849 -185.587
v 446.117 188.1447 -216.3051
v 438.5961 188.1447 -231.4371
v 392.6393 272.6849 -190.6645
v 427.8625 188.1447 -244.0163
v 386.9444 272.6849 -194.2417
v 413.7541 188.1447 -252.8783
v 380.4447 272.6849 -195.9682
v 397.6517 188.1447 -257.1558
v 373.7764 272.6849 -195.6752
v 382.2393 188.1447 -256.3581
v 367.5922 272.6849 -193.3914
v 366.3562 188.1447 -251.8694
v 362.4975 272.6849 -189.3403
v 353.189 188.1447 -240.7357
v 358.991 272.6849 -183.9184
v 344.5018 188.1447 -227.3034
v 357.4159 272.6849 -177.6564
v 340.5996 188.1447 -211.7898
v 378.3275 299.7378 -175.3907
v 374.9306 299.7378 -176.293
v 372.3227 306.1014 -162.7265
v 371.4456 299.7378 -176.1399
v 372.3227 306.1014 -162.7265
v 368.2137 299.7378 -174.9464
v 365.5511 299.7378 -172.8292
v 372.3227 306.1014 -162.7265
v 363.7186 299.7378 -169.9957
v 372.3227 306.1014 -162.7265
v 362.8954 299.7378 -166.723
v 381.3036 299.7378 -173.5213
v 372.3227 306.1014 -162.7265
v 363.1622 299.7378 -163.3318
v 372.3227 306.1014 -162.7265
v 364.4929 299.7378 -160.1538
v 372.3227 306.1014 -162.7265
v 366.757 299.7378 -157.5002
v 372.3227 306.1014 -162.7265
v 369.7333 299.7378 -155.6308
v 366.757 299.7378 -157.5002
v 372.3227 306.1014 -162.7265
v 373.1301 299.7378 -154.7284
v 369.7333 299.7378 -155.6308
v 372.3227 306.1014 -162.7265
v 376.6151 299.7378 -154.8815
v 373.1301 299.7378 -154.7284
v 372.3227 306.1014 -162.7265
v 379.847 299.7378 -156.0751
v 376.6151 299.7378 -154.8815
v 372.3227 306.1014 -162.7265
v 382.5096 299.7378 -158.1923
v 379.847 299.7378 -156.0751
v 372.3227 306.1014 -162.7265
v 389.8521 272.6849 -157.282
v 394.9468 272.6849 -161.3332
v 372.3227 306.1014 -162.7265
v 420.9575 188.1447 -161.314
v 436.1038 188.1447 -171.7633
v 398.4534 272.6849 -166.7551
v 446.117 188.1447 -185.2294
v 400.0285 272.6849 -173.0171
v 448.8793 188.1447 -201.4578
v 341.8643 188.1447 -195.7138
v 340.5996 188.1447 -211.7898
v 357.9264 272.6849 -171.1674
v 357.4159 272.6849 -177.6564
v 360.4725 272.6849 -165.0865
v 348.1722 188.1447 -180.649
v 364.8051 272.6849 -160.009
v 358.9056 188.1447 -168.0698
v 370.4999 272.6849 -156.4318
v 373.0142 188.1447 -159.2077
v 376.9996 272.6849 -154.7052
v 389.1166 188.1447 -154.9303
v 383.6679 272.6849 -154.9983
v 405.6368 188.1447 -155.6561
v 389.8521 272.6849 -157.282
v 420.9575 188.1447 -161.314
v 363.1622 299.7378 -163.3318
v 362.8954 299.7378 -166.723
v 366.757 299.7378 -157.5002
v 364.4929 299.7378 -160.1538
v 369.7333 299.7378 -155.6308
v 373.1301 299.7378 -154.7284
v 376.6151 299.7378 -154.8815
v 379.847 299.7378 -156.0751
v 452.9695 74.51525 -238.0365
v 454.6109 74.51526 -226.4258
v 447.2742 140.8262 -237.2787
v 448.6845 140.8262 -227.3027
v 442.4618 140.8262 -246.802
v 447.3685 74.51521 -249.1203
v 434.7181 140.8262 -254.9403
v 438.356 74.51522 -258.5923
v 424.8015 140.8262 -260.8973
v 426.8143 74.51525 -265.5253
v 413.6823 140.8262 -264.0895
v 413.8731 74.51523 -269.2406
v 402.4491 140.8262 -264.2046
v 400.7993 74.51523 -269.3746
v 392.2016 140.8262 -261.2313
v 388.8726 74.51526 -265.914
v 383.9427 140.8262 -255.4607
v 379.2603 74.51521 -259.1979
v 378.4809 140.8262 -247.4577
v 372.9036 74.51521 -249.8834
v 426.2415 187.3898 -241.3052
v 416.3248 187.3898 -247.262
v 405.2056 187.3898 -250.4542
v 393.9725 187.3898 -250.5693
v 383.7249 187.3898 -247.596
v 375.466 187.3898 -241.8255
v 433.9851 187.3898 -233.1667
v 438.7975 187.3898 -223.6434
v 440.2078 187.3898 -213.6675
v 446.5545 140.8262 -217.8505
v 452.1317 74.51522 -215.4248
v 445.7751 74.51522 -206.1103
v 441.0927 140.8262 -209.8475
v 436.1628 74.51523 -199.3941
v 432.8338 140.8262 -204.0769
v 438.0778 187.3898 -204.2154
v 432.6161 187.3897 -196.2123
v 370.4246 74.51521 -238.8823
v 372.9036 74.51521 -249.8834
v 376.351 140.8262 -238.0054
v 378.4809 140.8262 -247.4577
v 377.7611 140.8262 -228.0295
v 372.0659 74.51523 -227.2717
v 382.5736 140.8262 -218.5062
v 377.6669 74.51521 -216.1879
v 390.3172 140.8262 -210.3678
v 386.6794 74.51521 -206.7159
v 400.234 140.8262 -204.4109
v 398.2212 74.51523 -199.7829
v 411.3531 140.8262 -201.2187
v 411.1623 74.51525 -196.0676
v 422.5862 140.8262 -201.1036
v 424.2361 74.51525 -195.9336
v 432.8338 140.8262 -204.0769
v 436.1628 74.51523 -199.3941
v 374.097 187.3898 -204.8709
v 369.2845 187.3898 -214.3942
v 367.8743 187.3898 -224.3701
v 370.0043 187.3898 -233.8224
v 383.9427 140.8262 -255.4607
v 375.466 187.3898 -241.8255
v 414.1096 187.3898 -187.4684
v 402.8765 187.3898 -187.5834
v 424.3571 187.3898 -190.4416
v 432.6161 187.3897 -196.2123
v 441.0927 140.8262 -209.8475
v 381.8405 187.3898 -196.7325
v 391.7573 187.3898 -190.7756
v 398.1884 79.505 -263.7215
v 399.6918 157.0425 -258.4572
v 381.6649 89.54097 -288.6811
v 391.2811 79.30456 -258.5569
v 373.7914 89.13641 -281.2118
v 392.5229 156.7937 -253.2057
v 392.5229 156.7937 -253.2057
v 373.7914 89.13641 -281.2118
v 399.6918 157.0425 -258.4572
v 381.6649 89.54097 -288.6811
v 444.2931 82.51365 -239.4531
v 444.9033 155.8343 -231.8136
v 472.0774 89.90612 -251.173
v 439.9827 83.60994 -246.8452
v 465.5945 91.00237 -259.817
v 440.538 156.9305 -239.4801
v 440.538 156.9305 -239.4801
v 465.5945 91.00237 -259.817
v 444.9033 155.8343 -231.8136
v 472.0774 89.90612 -251.173
vt 0.737385 0.814431
vt 0.737965 0.8218
vt 0.707109 0.827994
vt 0.734494 0.807525
vt 0.736176 0.828911
vt 0.780753 0.777585
vt 0.77529 0.764538
vt 0.911391 0.66846
vt 0.895865 0.637222
vt 0.765994 0.753644
vt 0.873707 0.611253
vt 0.753775 0.745969
vt 0.844581 0.592959
vt 0.739829 0.742264
vt 0.81134 0.584128
vt 0.725522 0.742893
vt 0.779523 0.585775
vt 0.712253 0.747793
vt 0.746734 0.595042
vt 0.701322 0.756485
vt 0.719552 0.618026
vt 0.693798 0.768118
vt 0.701618 0.645755
vt 0.690419 0.781554
vt 0.693563 0.677781
vt 0.723106 0.797697
vt 0.715725 0.795736
vt 0.707109 0.827994
vt 0.708153 0.796069
vt 0.707109 0.827994
vt 0.70113 0.798662
vt 0.695344 0.803263
vt 0.707109 0.827994
vt 0.691362 0.80942
vt 0.707109 0.827994
vt 0.689573 0.816531
vt 0.729574 0.801759
vt 0.707109 0.827994
vt 0.690153 0.8239
vt 0.707109 0.827994
vt 0.693044 0.830806
vt 0.707109 0.827994
vt 0.697964 0.836572
vt 0.707109 0.827994
vt 0.704432 0.840634
vt 0.697964 0.836572
vt 0.707109 0.827994
vt 0.711813 0.842595
vt 0.704432 0.840634
vt 0.707109 0.827994
vt 0.719386 0.842262
vt 0.711813 0.842595
vt 0.707109 0.827994
vt 0.726408 0.839669
vt 0.719386 0.842262
vt 0.707109 0.827994
vt 0.732194 0.835068
vt 0.726408 0.839669
vt 0.707109 0.827994
vt 0.760014 0.825269
vt 0.770945 0.816577
vt 0.707109 0.827994
vt 0.859452 0.781982
vt 0.89072 0.760411
vt 0.778469 0.804944
vt 0.911391 0.732612
vt 0.781848 0.791508
vt 0.917093 0.69911
vt 0.696174 0.710968
vt 0.693563 0.677781
vt 0.691514 0.795477
vt 0.690419 0.781554
vt 0.696977 0.808524
vt 0.709195 0.742068
vt 0.706273 0.819419
vt 0.731353 0.768036
vt 0.718492 0.827094
vt 0.760479 0.786331
vt 0.732438 0.830798
vt 0.79372 0.795161
vt 0.746745 0.830169
vt 0.827824 0.793662
vt 0.760014 0.825269
vt 0.859452 0.781982
vt 0.690153 0.8239
vt 0.689573 0.816531
vt 0.697964 0.836572
vt 0.693044 0.830806
vt 0.704432 0.840634
vt 0.711813 0.842595
vt 0.719386 0.842262
vt 0.726408 0.839669
vt 0.962576 0.588643
vt 0.9658 0.611452
vt 0.929896 0.610151
vt 0.932747 0.630318
vt 0.920168 0.590899
vt 0.951573 0.56687
vt 0.904513 0.574447
vt 0.933869 0.548263
vt 0.884466 0.562405
vt 0.911196 0.534644
vt 0.861989 0.555951
vt 0.885774 0.527345
vt 0.83928 0.555719
vt 0.860091 0.527082
vt 0.818564 0.561729
vt 0.836662 0.53388
vt 0.801868 0.573395
vt 0.817779 0.547074
vt 0.790827 0.589573
vt 0.805292 0.565371
vt 0.870637 0.616608
vt 0.850172 0.604315
vt 0.827226 0.597728
vt 0.804044 0.59749
vt 0.782897 0.603626
vt 0.765853 0.615535
vt 0.886618 0.633404
vt 0.896549 0.653057
vt 0.89946 0.673644
vt 0.928441 0.649426
vt 0.96093 0.633063
vt 0.948443 0.65136
vt 0.9174 0.665604
vt 0.92956 0.664554
vt 0.900704 0.67727
vt 0.895064 0.69315
vt 0.883792 0.709666
vt 0.800422 0.586982
vt 0.805292 0.565371
vt 0.786521 0.608682
vt 0.790827 0.589573
vt 0.789372 0.628848
vt 0.803646 0.60979
vt 0.799101 0.6481
vt 0.814649 0.631564
vt 0.814755 0.664552
vt 0.832354 0.650171
vt 0.834802 0.676594
vt 0.855027 0.66379
vt 0.85728 0.683048
vt 0.880448 0.671089
vt 0.879988 0.68328
vt 0.906131 0.671352
vt 0.900704 0.67727
vt 0.92956 0.664554
vt 0.763028 0.691797
vt 0.753096 0.672144
vt 0.750186 0.651557
vt 0.754582 0.632051
vt 0.801868 0.573395
vt 0.765853 0.615535
vt 0.845601 0.72771
vt 0.822419 0.727473
vt 0.866749 0.721575
vt 0.883792 0.709666
vt 0.9174 0.665604
vt 0.779008 0.708592
vt 0.799473 0.720886
vt 0.853182 0.539543
vt 0.82757 0.572105
vt 0.81691 0.492941
vt 0.839657 0.549655
vt 0.801497 0.507604
vt 0.81307 0.582722
vt 0.81307 0.582722
vt 0.801497 0.507604
vt 0.82757 0.572105
vt 0.81691 0.492941
vt 0.942984 0.588201
vt 0.920033 0.625965
vt 0.995554 0.567202
vt 0.934133 0.573945
vt 0.982402 0.550415
vt 0.910772 0.610707
vt 0.910772 0.610707
vt 0.982402 0.550415
vt 0.920033 0.625965
vt 0.995554 0.567202
vn 0.6982005 0.7025478 -0.1376328
vn 0.7466524 0.6581817 0.09647341
vn 0.06896564 0.9973787 0.02189908
vn 0.5951712 0.7311188 -0.3335212
vn 0.7205346 0.5970727 0.3526103
vn 0.81523 0.5395222 -0.2105132
vn 0.690882 0.5785425 -0.4335558
vn 0.7835563 0.5534315 -0.282406
vn 0.6598498 0.5823851 -0.4747902
vn 0.5233448 0.6008005 -0.6042755
vn 0.4912548 0.6019638 -0.6295303
vn 0.3168021 0.6072351 -0.7286302
vn 0.2800362 0.6054993 -0.7449499
vn 0.08535202 0.5964388 -0.7981076
vn 0.0427543 0.5913635 -0.8052709
vn -0.1658881 0.5662795 -0.8073468
vn -0.1877703 0.5614139 -0.8059508
vn -0.4124584 0.5197237 -0.7481746
vn -0.4534667 0.5110382 -0.730211
vn -0.6706285 0.4396333 -0.597478
vn -0.7116207 0.4205147 -0.5628173
vn -0.8634463 0.3406498 -0.3720459
vn -0.8892294 0.3201135 -0.3268003
vn -0.9706504 0.2269671 -0.07952217
vn -0.9783035 0.205432 -0.026831
vn 0.2857037 0.7509865 -0.5953091
vn 0.09584053 0.7453229 -0.6597791
vn 0.02579271 0.9960168 -0.08535401
vn -0.1109423 0.7288601 -0.6756143
vn -0.02353365 0.9951989 -0.09500161
vn -0.3278847 0.6995305 -0.63494
vn -0.5412096 0.6546693 -0.5277314
vn -0.07283342 0.993618 -0.08613125
vn -0.7261596 0.5930698 -0.3477936
vn -0.07472836 0.9971992 0.003075738
vn -0.8490821 0.5181821 -0.1026983
vn 0.4541585 0.7465348 -0.4862364
vn 0.06812556 0.9959931 -0.05793458
vn -0.8798351 0.440008 0.1796751
vn -0.1326402 0.9900946 0.04603494
vn -0.807231 0.3725245 0.457825
vn -0.1620563 0.9816395 0.1006069
vn -0.6424156 0.3280933 0.6925728
vn -0.1626891 0.9710879 0.1747012
vn -0.4093589 0.3138479 0.8566941
vn -0.6424156 0.3280933 0.6925728
vn -0.1269677 0.970443 0.2052309
vn -0.1358981 0.3314594 0.9336308
vn -0.4093589 0.3138479 0.8566941
vn -0.06601411 0.9607517 0.2694408
vn 0.1476518 0.3778856 0.914003
vn -0.1358981 0.3314594 0.9336308
vn -0.01887871 0.9811508 0.1923193
vn 0.4066914 0.4455874 0.7975299
vn 0.1476518 0.3778856 0.914003
vn 0.019354 0.9830753 0.1821767
vn 0.6058795 0.5229693 0.5995108
vn 0.4066914 0.4455874 0.7975299
vn 0.04190629 0.9915787 0.1225383
vn 0.4847993 0.1389802 0.8635127
vn 0.7074147 0.2525693 0.6601312
vn 0.03093151 0.9969477 0.07168347
vn 0.5105289 0.1491876 0.8468195
vn 0.7175504 0.2718178 0.6412774
vn 0.8449993 0.3734831 0.3827357
vn 0.8544778 0.4103379 0.318576
vn 0.8774996 0.4751363 0.06511483
vn 0.8629801 0.5046372 -0.02463006
vn -0.9531322 0.09797513 0.2862512
vn -0.9783035 0.205432 -0.026831
vn -0.965025 0.1170294 0.2345866
vn -0.9706504 0.2269671 -0.07952217
vn -0.8513138 0.02921203 0.5238428
vn -0.8231962 0.01529575 0.5675508
vn -0.653672 -0.02474303 0.7563733
vn -0.6141775 -0.03232452 0.7885057
vn -0.3984987 -0.04018139 0.9162884
vn -0.3516897 -0.04116686 0.935211
vn -0.1075888 -0.01629941 0.9940619
vn -0.05683884 -0.01080361 0.9983249
vn 0.1970506 0.04536843 0.9793431
vn 0.2475953 0.05681449 0.9671963
vn 0.4847993 0.1389802 0.8635127
vn 0.5105289 0.1491876 0.8468195
vn -0.8798351 0.440008 0.1796751
vn -0.8490821 0.5181821 -0.1026983
vn -0.6424156 0.3280933 0.6925728
vn -0.807231 0.3725245 0.457825
vn -0.4093589 0.3138479 0.8566941
vn -0.1358981 0.3314594 0.9336308
vn 0.1476518 0.3778856 0.914003
vn 0.4066914 0.4455874 0.7975299
vn 0.9328544 0.08412464 -0.3502939
vn 0.9958489 0.08873424 -0.02027571
vn 0.939721 0.1755623 -0.2934319
vn 0.9896407 0.1374905 0.04132351
vn 0.8021976 0.196017 -0.5639648
vn 0.7854446 0.07957893 -0.6137948
vn 0.6132879 0.2031331 -0.7632921
vn 0.587777 0.07660118 -0.8053884
vn 0.3916724 0.2000627 -0.8980911
vn 0.3572893 0.07581592 -0.9309115
vn 0.1424716 0.1874777 -0.9718817
vn 0.09932435 0.07734865 -0.9920442
vn -0.1336368 0.1637007 -0.9774166
vn -0.1834754 0.08094691 -0.9796858
vn -0.4283085 0.1256663 -0.8948519
vn -0.4786327 0.08573622 -0.8738192
vn -0.70939 0.07229351 -0.7010987
vn -0.7494317 0.08988709 -0.6559516
vn -0.9168671 0.01003299 -0.3990663
vn -0.9365813 0.09115315 -0.3383885
vn 0.6249138 0.3220188 -0.7111868
vn 0.4146697 0.3244434 -0.8501679
vn 0.1792189 0.3063894 -0.9348829
vn -0.08474609 0.265779 -0.9603018
vn -0.3748541 0.1970367 -0.9059035
vn -0.6642939 0.09613333 -0.7412637
vn 0.8069151 0.2964915 -0.5108627
vn 0.9408637 0.2410036 -0.2381027
vn 0.9835566 0.1492928 0.1016263
vn 0.9138676 0.08142477 0.3977638
vn 0.9365793 0.09115293 0.3383937
vn 0.749433 0.08988699 0.6559501
vn 0.7111536 0.01673322 0.7028375
vn 0.4786348 0.08573626 0.873818
vn 0.4313605 -0.04160786 0.9012196
vn 0.889251 0.02819281 0.4565498
vn 0.6642995 -0.09613069 0.7412592
vn -0.995849 0.08873324 0.02027515
vn -0.9365813 0.09115315 -0.3383885
vn -0.9979922 -0.04769722 -0.04167277
vn -0.9168671 0.01003299 -0.3990663
vn -0.9506392 -0.09039526 0.2968396
vn -0.9328545 0.08412293 0.3502938
vn -0.8125527 -0.1159344 0.5712419
vn -0.785447 0.07957797 0.6137916
vn -0.6212949 -0.1267465 0.7732581
vn -0.587774 0.07660004 0.8053906
vn -0.3966075 -0.1251629 0.9094156
vn -0.3572891 0.07581531 0.9309117
vn -0.1441366 -0.111631 0.9832412
vn -0.09932633 0.0773486 0.9920441
vn 0.1349769 -0.08458792 0.9872316
vn 0.1834757 0.08094696 0.9796857
vn 0.4313605 -0.04160786 0.9012196
vn 0.4786348 0.08573626 0.873818
vn -0.8069143 -0.2964911 0.5108644
vn -0.9408649 -0.2410026 0.2380988
vn -0.9835569 -0.1492932 -0.101624
vn -0.8892513 -0.02819218 -0.4565495
vn -0.70939 0.07229351 -0.7010987
vn -0.6642939 0.09613333 -0.7412637
vn 0.08474575 -0.2657778 0.9603022
vn -0.1792166 -0.3063884 0.9348837
vn 0.3748553 -0.1970356 0.905903
vn 0.6642995 -0.09613069 0.7412592
vn 0.7111536 0.01673322 0.7028375
vn -0.6249164 -0.3220199 0.711184
vn -0.4146672 -0.3244445 0.8501687
vn 0.8374924 0.02083564 -0.5460515
vn 0.8374924 0.02083564 -0.5460515
vn 0.8374924 0.02083564 -0.5460515
vn -0.7972509 -0.02886182 0.6029577
vn -0.7972509 -0.02886182 0.6029577
vn -0.7972509 -0.02886182 0.6029577
vn -0.5391556 0.4452036 -0.7149161
vn -0.583649 0.4492668 -0.6763973
vn -0.583649 0.4492668 -0.6763973
vn -0.6261113 0.4517666 -0.6355247
vn 0.4087988 -0.09794116 0.9073539
vn 0.4087988 -0.09794116 0.9073539
vn 0.4087988 -0.09794116 0.9073539
vn -0.4708649 0.09170447 -0.8774261
vn -0.4708649 0.09170447 -0.8774261
vn -0.4708649 0.09170447 -0.8774261
vn 0.8093519 0.4307559 -0.3992479
vn 0.7763219 0.4419136 -0.4494849
vn 0.7763219 0.4419136 -0.4494849
vn 0.740389 0.4514188 -0.4980413
g GVG_Stove_BigRedRocket_mesh_0
f 3/3/3 2/2/2 1/1/1
f 3/3/3 1/1/1 4/4/4
f 3/3/3 5/5/5 2/2/2
f 1/1/1 6/6/6 4/4/4
f 4/4/4 6/6/6 7/7/7
f 6/6/6 8/8/8 7/7/7
f 7/7/7 8/8/8 9/9/9
f 7/7/7 9/9/9 10/10/10
f 10/10/10 9/9/9 11/11/11
f 10/10/10 11/11/11 12/12/12
f 12/12/12 11/11/11 13/13/13
f 12/12/12 13/13/13 14/14/14
f 14/14/14 13/13/13 15/15/15
f 14/14/14 15/15/15 16/16/16
f 16/16/16 15/15/15 17/17/17
f 16/16/16 17/17/17 18/18/18
f 18/18/18 17/17/17 19/19/19
f 18/18/18 19/19/19 20/20/20
f 20/20/20 19/19/19 21/21/21
f 20/20/20 21/21/21 22/22/22
f 22/22/22 21/21/21 23/23/23
f 22/22/22 23/23/23 24/24/24
f 24/24/24 23/23/23 25/25/25
f 26/26/26 10/10/10 12/12/12
f 27/27/27 12/12/12 14/14/14
f 26/26/26 12/12/12 27/27/27
f 28/28/28 26/26/26 27/27/27
f 29/29/29 14/14/14 16/16/16
f 27/27/27 14/14/14 29/29/29
f 30/30/30 27/27/27 29/29/29
f 30/30/30 29/29/29 31/31/31
f 31/31/31 16/16/16 18/18/18
f 29/29/29 16/16/16 31/31/31
f 32/32/32 18/18/18 20/20/20
f 31/31/31 18/18/18 32/32/32
f 33/33/33 31/31/31 32/32/32
f 34/34/34 20/20/20 22/22/22
f 32/32/32 20/20/20 34/34/34
f 35/35/35 32/32/32 34/34/34
f 35/35/35 34/34/34 36/36/36
f 36/36/36 22/22/22 24/24/24
f 34/34/34 22/22/22 36/36/36
f 38/38/38 37/37/37 26/26/26
f 38/38/38 4/4/4 37/37/37
f 37/37/37 10/10/10 26/26/26
f 37/37/37 7/7/7 10/10/10
f 4/4/4 7/7/7 37/37/37
f 40/40/40 36/36/36 39/39/39
f 42/42/42 39/39/39 41/41/41
f 44/44/44 41/41/41 43/43/43
f 47/47/47 46/46/46 45/45/45
f 50/50/50 49/49/49 48/48/48
f 53/53/53 52/52/52 51/51/51
f 56/56/56 55/55/55 54/54/54
f 59/59/59 58/58/58 57/57/57
f 58/58/58 60/60/60 57/57/57
f 57/57/57 60/60/60 61/61/61
f 57/57/57 61/61/61 5/5/5
f 62/62/62 57/57/57 5/5/5
f 60/60/60 63/63/63 61/61/61
f 61/61/61 63/63/63 64/64/64
f 61/61/61 64/64/64 65/65/65
f 5/5/5 61/61/61 65/65/65
f 65/65/65 64/64/64 66/66/66
f 65/65/65 66/66/66 67/67/67
f 67/67/67 66/66/66 68/68/68
f 67/67/67 68/68/68 6/6/6
f 6/6/6 68/68/68 8/8/8
f 2/2/2 65/65/65 67/67/67
f 5/5/5 65/65/65 2/2/2
f 1/1/1 67/67/67 6/6/6
f 2/2/2 67/67/67 1/1/1
f 71/71/71 70/70/70 69/69/69
f 72/72/72 70/70/70 71/71/71
f 71/71/71 69/69/69 73/73/73
f 73/73/73 69/69/69 74/74/74
f 73/73/73 74/74/74 75/75/75
f 75/75/75 74/74/74 76/76/76
f 75/75/75 76/76/76 77/77/77
f 77/77/77 76/76/76 78/78/78
f 77/77/77 78/78/78 79/79/79
f 79/79/79 78/78/78 80/80/80
f 79/79/79 80/80/80 81/81/81
f 81/81/81 80/80/80 82/82/82
f 81/81/81 82/82/82 83/83/83
f 83/83/83 82/82/82 84/84/84
f 85/85/85 72/72/72 71/71/71
f 86/86/86 72/72/72 85/85/85
f 87/87/87 73/73/73 75/75/75
f 88/88/88 73/73/73 87/87/87
f 88/88/88 71/71/71 73/73/73
f 85/85/85 71/71/71 88/88/88
f 89/89/89 75/75/75 77/77/77
f 87/87/87 75/75/75 89/89/89
f 90/90/90 77/77/77 79/79/79
f 89/89/89 77/77/77 90/90/90
f 91/91/91 79/79/79 81/81/81
f 90/90/90 79/79/79 91/91/91
f 92/92/92 81/81/81 83/83/83
f 91/91/91 81/81/81 92/92/92
f 95/95/95 94/94/94 93/93/93
f 96/96/96 94/94/94 95/95/95
f 95/95/95 93/93/93 97/97/97
f 97/97/97 93/93/93 98/98/98
f 97/97/97 98/98/98 99/99/99
f 99/99/99 98/98/98 100/100/100
f 99/99/99 100/100/100 101/101/101
f 101/101/101 100/100/100 102/102/102
f 101/101/101 102/102/102 103/103/103
f 103/103/103 102/102/102 104/104/104
f 103/103/103 104/104/104 105/105/105
f 105/105/105 104/104/104 106/106/106
f 105/105/105 106/106/106 107/107/107
f 107/107/107 106/106/106 108/108/108
f 107/107/107 108/108/108 109/109/109
f 109/109/109 108/108/108 110/110/110
f 109/109/109 110/110/110 111/111/111
f 111/111/111 110/110/110 112/112/112
f 113/113/113 97/97/97 99/99/99
f 114/114/114 99/99/99 101/101/101
f 113/113/113 99/99/99 114/114/114
f 115/115/115 101/101/101 103/103/103
f 114/114/114 101/101/101 115/115/115
f 116/116/116 103/103/103 105/105/105
f 115/115/115 103/103/103 116/116/116
f 117/117/117 105/105/105 107/107/107
f 116/116/116 105/105/105 117/117/117
f 118/118/118 107/107/107 109/109/109
f 117/117/117 107/107/107 118/118/118
f 119/119/119 97/97/97 113/113/113
f 119/119/119 95/95/95 97/97/97
f 120/120/120 95/95/95 119/119/119
f 120/120/120 96/96/96 95/95/95
f 121/121/121 96/96/96 120/120/120
f 121/121/121 122/122/122 96/96/96
f 122/122/122 123/123/123 96/96/96
f 122/122/122 124/124/124 123/123/123
f 125/125/125 124/124/124 122/122/122
f 125/125/125 126/126/126 124/124/124
f 127/127/127 126/126/126 125/125/125
f 96/96/96 123/123/123 94/94/94
f 128/128/128 125/125/125 122/122/122
f 128/128/128 122/122/122 121/121/121
f 129/129/129 125/125/125 128/128/128
f 132/132/132 131/131/131 130/130/130
f 133/133/133 131/131/131 132/132/132
f 132/132/132 130/130/130 134/134/134
f 134/134/134 130/130/130 135/135/135
f 134/134/134 135/135/135 136/136/136
f 136/136/136 135/135/135 137/137/137
f 136/136/136 137/137/137 138/138/138
f 138/138/138 137/137/137 139/139/139
f 138/138/138 139/139/139 140/140/140
f 140/140/140 139/139/139 141/141/141
f 140/140/140 141/141/141 142/142/142
f 142/142/142 141/141/141 143/143/143
f 142/142/142 143/143/143 144/144/144
f 144/144/144 143/143/143 145/145/145
f 144/144/144 145/145/145 146/146/146
f 146/146/146 145/145/145 147/147/147
f 148/148/148 134/134/134 136/136/136
f 149/149/149 134/134/134 148/148/148
f 149/149/149 132/132/132 134/134/134
f 150/150/150 132/132/132 149/149/149
f 150/150/150 133/133/133 132/132/132
f 151/151/151 133/133/133 150/150/150
f 151/151/151 152/152/152 133/133/133
f 153/153/153 152/152/152 151/151/151
f 154/154/154 142/142/142 144/144/144
f 155/155/155 142/142/142 154/154/154
f 156/156/156 144/144/144 146/146/146
f 154/154/154 144/144/144 156/156/156
f 156/156/156 146/146/146 157/157/157
f 157/157/157 146/146/146 158/158/158
f 148/148/148 136/136/136 159/159/159
f 159/159/159 136/136/136 138/138/138
f 159/159/159 138/138/138 160/160/160
f 160/160/160 138/138/138 140/140/140
f 160/160/160 140/140/140 155/155/155
f 155/155/155 140/140/140 142/142/142
f 163/163/163 162/162/162 161/161/161
f 166/166/166 165/165/165 164/164/164
f 169/169/169 168/168/168 167/167/167
f 170/170/170 168/168/168 169/169/169
f 173/173/173 172/172/172 171/171/171
f 176/176/176 175/175/175 174/174/174
f 179/179/179 178/178/178 177/177/177
f 180/180/180 178/178/178 179/179/179
