g GVG_Rocket_Large
v 331.2565 53.09403 -1100.531
v 340.8956 53.09403 -1091.998
v 331.879 80.63783 -1117.215
v 322.326 77.96889 -1121.651
v 338.2648 84.55714 -1109.346
v 340.8956 53.09403 -1091.998
v 343.436 53.09403 -1086.602
v 320.9705 53.09403 -1105.266
v 331.2565 53.09403 -1100.531
v 322.326 77.96889 -1121.651
v 311.4979 77.07891 -1121.774
v 309.554 53.09403 -1105.266
v 301.5392 78.14417 -1117.561
v 299.268 53.09403 -1100.531
v 294.4226 80.95371 -1109.847
v 295.0405 53.09403 -1091.998
v 322.326 77.96889 -1121.651
v 331.879 80.63783 -1117.215
v 316.6848 86.9508 -1100.237
v 311.4979 77.07891 -1121.774
v 301.5392 78.14417 -1117.561
v 338.2648 84.55714 -1109.346
v 294.4226 80.95371 -1109.847
v 292.3148 85.03738 -1100.748
v 293.5111 89.34444 -1090.415
v 299.8969 93.26374 -1082.546
v 309.4499 95.93269 -1078.111
v 320.278 96.82269 -1077.987
v 330.2367 95.75741 -1082.2
v 337.3533 92.94786 -1089.914
v 340.2185 88.95055 -1099.603
v 299.8969 93.26374 -1082.546
v 295.0405 53.09403 -1075.962
v 293.5111 89.34444 -1090.415
v 292.5001 53.09403 -1081.359
v 299.268 53.09403 -1067.43
v 309.4499 95.93269 -1078.111
v 309.554 53.09403 -1062.695
v 320.278 96.82269 -1077.987
v 320.9705 53.09403 -1062.695
v 330.2367 95.75741 -1082.2
v 331.2565 53.09403 -1067.43
v 337.3533 92.94786 -1089.914
v 340.8956 53.09403 -1075.962
v 340.2185 88.95055 -1099.603
v 343.436 53.09403 -1086.602
v 288.6173 47.6151 -1079.784
v 289.0664 47.60238 -1094.501
v 295.0405 53.09403 -1091.998
v 295.1299 47.58919 -1105.046
v 299.268 53.09403 -1100.531
v 308.1059 47.64708 -1052.961
v 294.9711 47.64112 -1059.025
v 288.9779 47.6292 -1073.685
v 339.025 47.64441 -1062.392
v 349.2762 47.63904 -1071.878
v 343.436 53.09403 -1086.602
v 308.3106 47.57812 -1110.741
v 309.554 53.09403 -1105.266
v 322.4248 47.57766 -1110.661
v 320.9705 53.09403 -1105.266
v 333.7045 47.58837 -1101.385
v 323.4063 47.94439 -1053.673
v 343.436 53.09403 -1086.602
v 351.3203 47.62721 -1085.632
v 343.436 53.09403 -1086.602
v 340.8956 53.09403 -1091.998
v 343.9648 47.60784 -1093.056
v 331.2565 53.09403 -1100.531
v 333.7045 47.58837 -1101.385
v 320.9705 53.09403 -1105.266
v 340.8956 53.09403 -1091.998
v 331.2565 53.09403 -1100.531
v 343.9648 47.60784 -1093.056
v 351.3203 47.62721 -1085.632
v 338.2648 84.55714 -1109.346
v 343.436 53.09403 -1086.602
v 292.3148 85.03738 -1100.748
v 295.0405 53.09403 -1091.998
v 294.4226 80.95371 -1109.847
v 292.5001 53.09403 -1081.359
v 293.5111 89.34444 -1090.415
v 141.522 55.65387 -1020.503
v 155.8266 55.65387 -1013.87
v 147.7672 82.25459 -1041.957
v 135.251 79.6233 -1045.887
v 131.9248 55.65387 -1024.921
v 123.6905 78.74589 -1043.353
v 131.9248 55.65387 -1024.921
v 135.251 79.6233 -1045.887
v 121.2727 55.65387 -1024.921
v 113.8724 79.79612 -1039.2
v 111.6754 55.65387 -1020.503
v 135.251 79.6233 -1045.887
v 147.7672 82.25459 -1041.957
v 128.0186 88.47847 -1021.769
v 123.6905 78.74589 -1043.353
v 113.8724 79.79612 -1039.2
v 154.948 86.11858 -1033.314
v 106.8562 82.56599 -1031.594
v 104.7781 86.59205 -1022.624
v 105.9576 90.83832 -1012.436
v 112.2532 94.70232 -1004.679
v 121.6714 97.33362 -1000.306
v 132.3468 98.21104 -1000.184
v 142.1648 97.1608 -1004.337
v 149.1811 94.3909 -1011.943
v 156.8742 90.44998 -1023.708
v 106.8562 82.56599 -1031.594
v 111.6754 55.65387 -1020.503
v 113.8724 79.79612 -1039.2
v 107.731 55.65387 -1012.542
v 104.7781 86.59205 -1022.624
v 105.3607 55.65387 -1002.615
v 105.9576 90.83832 -1012.436
v 107.731 55.65387 -997.5799
v 111.6754 55.65387 -989.619
v 112.2532 94.70232 -1004.679
v 105.5103 51.88717 -1014.936
v 105.3937 50.54179 -1001.273
v 112.2532 94.70232 -1004.679
v 107.731 55.65387 -997.5799
v 105.9576 90.83832 -1012.436
v 111.6754 55.65387 -989.619
v 105.7301 50.55495 -995.5825
v 105.3937 50.54179 -1001.273
v 107.6663 50.56608 -981.7766
v 121.2726 55.65387 -985.201
v 121.6714 97.33362 -1000.306
v 112.2532 94.70232 -1004.679
v 132.3468 98.21104 -1000.184
v 131.9248 55.65387 -985.201
v 142.1648 97.1608 -1004.337
v 141.522 55.65387 -989.619
v 149.1811 94.3909 -1011.943
v 155.8266 55.65387 -998.9077
v 156.8742 90.44998 -1023.708
v 158.1969 55.65387 -1008.835
v 119.9216 50.57163 -976.1188
v 134.1975 50.84904 -976.7828
v 148.7703 50.56915 -984.9188
v 163.646 50.56414 -995.0966
v 158.1969 55.65387 -1008.835
v 154.948 86.11858 -1033.314
v 158.1969 55.65387 -1008.835
v 156.8742 90.44998 -1023.708
v 163.646 50.56414 -995.0966
v 158.1969 55.65387 -1008.835
v 165.5532 50.5531 -1007.93
v 155.8266 55.65387 -1013.87
v 105.3607 55.65387 -1002.615
v 107.731 55.65387 -1012.542
v 105.5103 51.88717 -1014.936
v 110.4239 51.99355 -1023.264
v 111.6754 55.65387 -1020.503
v 120.1126 50.5073 -1030.03
v 111.6754 55.65387 -1020.503
v 110.4239 51.99355 -1023.264
v 121.2727 55.65387 -1024.921
v 133.2817 50.50687 -1029.956
v 131.9248 55.65387 -1024.921
v 143.8061 50.51686 -1021.3
v 158.6903 50.53503 -1014.856
v 141.522 55.65387 -1020.503
v 143.8061 50.51686 -1021.3
v 131.9248 55.65387 -1024.921
v 155.8266 55.65387 -1013.87
v 141.522 55.65387 -1020.503
v 158.6903 50.53503 -1014.856
v 165.5532 50.5531 -1007.93
v 147.7672 82.25459 -1041.957
v 155.8266 55.65387 -1013.87
v 154.948 86.11858 -1033.314
v 158.1969 55.65387 -1008.835
v 127.923 55.26829 -831.2367
v 122.7929 55.26829 -841.5905
v 129.6979 93.77671 -850.7483
v 122.2823 87.77151 -858.8371
v 121.0359 46.67022 -835.5729
v 127.923 55.26829 -831.2367
v 120.3933 47.47043 -830.1227
v 127.923 55.26829 -831.2367
v 123.618 48.64853 -820.7861
v 129.4088 48.43145 -815.4865
v 140.4049 55.26829 -825.4907
v 138.6477 48.65844 -813.6785
v 148.0359 48.72855 -812.9689
v 154.2588 55.26829 -825.4907
v 153.1723 98.96498 -846.6296
v 140.7224 97.77161 -846.3915
v 127.923 55.26829 -831.2367
v 129.6979 93.77671 -850.7483
v 164.5818 97.12044 -851.4154
v 166.7408 55.26829 -831.2367
v 172.691 92.60333 -859.8008
v 178.4379 55.26829 -841.5905
v 175.8938 86.3083 -870.1254
v 181.5206 55.26829 -854.5015
v 168.1797 48.75029 -817.742
v 183.9805 48.59289 -828.6293
v 157.2147 49.01923 -814.5424
v 177.5679 48.65521 -823.1521
v 188.4258 48.6487 -835.3496
v 191.1166 48.64185 -843.5797
v 181.5206 55.26829 -854.5015
v 181.5206 55.26829 -854.5015
v 191.0881 48.63434 -853.3246
v 188.0089 48.62278 -860.9893
v 178.2339 55.15781 -866.4362
v 181.7272 48.33458 -866.3082
v 173.4133 79.67206 -881.4294
v 181.5206 55.26829 -854.5015
v 178.2339 55.15781 -866.4362
v 129.6979 93.77671 -850.7483
v 122.2823 87.77151 -858.8371
v 147.9191 83.62686 -869.5906
v 140.7224 97.77161 -846.3915
v 153.1723 98.96498 -846.6296
v 164.5818 97.12044 -851.4154
v 172.691 92.60333 -859.8008
v 120.8046 80.9454 -869.7565
v 123.1473 74.65039 -879.3802
v 131.2565 70.13327 -887.7658
v 142.9362 68.23423 -892.3648
v 156.4461 69.4698 -893.4393
v 166.6436 73.51031 -888.9111
v 173.4133 79.67206 -881.4294
v 175.8938 86.3083 -870.1254
v 373.0114 54.67082 -935.8605
v 374.0115 54.74016 -941.9091
v 372.5009 87.17404 -953.1071
v 371.0232 80.34794 -964.0265
v 373.0114 54.67082 -935.8605
v 373.1008 47.96335 -937.5258
v 370.6153 47.97499 -931.7992
v 378.1415 54.67082 -925.5067
v 373.0114 54.67082 -935.8605
v 379.9164 93.17926 -945.0183
v 372.5009 87.17404 -953.1071
v 390.9409 97.17415 -940.6616
v 390.6234 54.67082 -919.7607
v 403.3909 98.36752 -940.8997
v 404.4774 54.67082 -919.7607
v 414.8003 96.52296 -945.6853
v 416.9594 54.67082 -925.5067
v 422.9095 92.00586 -954.0708
v 428.6564 54.67082 -935.8605
v 426.1124 85.71084 -964.3954
v 431.7392 54.67082 -948.7715
v 418.5212 47.97223 -913.1913
v 407.4332 47.99 -908.8124
v 398.4414 47.96846 -906.8957
v 388.8662 47.97981 -907.9485
v 379.4276 47.95216 -909.5252
v 372.9273 47.97961 -915.307
v 370.0804 47.96415 -922.0604
v 373.0114 54.67082 -935.8605
v 427.4094 47.96753 -918.3259
v 434.8257 47.97044 -924.8447
v 438.8261 47.97954 -930.9039
v 440.9485 47.96473 -939.5002
v 431.7392 54.67082 -948.7715
v 370.6153 47.97499 -931.7992
v 431.7392 54.67082 -948.7715
v 439.8134 48.00275 -947.2488
v 436.2263 47.9573 -953.1158
v 429.9178 54.25084 -956.4298
v 423.7744 78.88475 -974.6139
v 432.3808 47.97847 -956.6032
v 431.7392 54.67082 -948.7715
v 379.9164 93.17926 -945.0183
v 372.5009 87.17404 -953.1071
v 398.1377 83.0294 -963.8607
v 390.9409 97.17415 -940.6616
v 403.3909 98.36752 -940.8997
v 414.8003 96.52296 -945.6853
v 422.9095 92.00586 -954.0708
v 426.1124 85.71084 -964.3954
v 371.0232 80.34794 -964.0265
v 373.3658 74.05293 -973.6503
v 381.475 69.5358 -982.0359
v 392.8845 67.69125 -986.8215
v 405.3322 68.9051 -987.0727
v 417.9053 72.53062 -983.5164
v 423.7744 78.88475 -974.6139
v 470.8495 55.8842 -1080.909
v 479.3882 57.39566 -1064.495
v 466.0369 58.33023 -1079.811
v 473.8151 60.21131 -1064.973
v 482.3241 58.97484 -1046.256
v 473.8151 60.21131 -1064.973
v 482.3241 58.97484 -1046.256
v 476.4875 62.17668 -1048.471
v 482.3241 58.97484 -1046.256
v 479.3699 60.46717 -1027.979
v 476.4875 62.17668 -1048.471
v 476.4875 62.17668 -1048.471
v 479.3699 60.46717 -1027.979
v 473.7924 64.03396 -1031.922
v 479.3699 60.46717 -1027.979
v 470.8148 61.72657 -1011.453
v 473.7924 64.03396 -1031.922
v 471.5801 50.06121 -1005.227
v 458.4294 50.06121 -992.0759
v 457.4962 62.62976 -998.295
v 465.9936 65.60135 -1016.944
v 473.7924 64.03396 -1031.922
v 453.8546 66.72541 -1005.005
v 440.7178 63.08832 -989.7935
v 438.5635 67.29611 -997.2728
v 422.122 63.05738 -986.7803
v 421.6172 67.2576 -994.5043
v 403.5291 62.53995 -989.5505
v 404.6746 66.61364 -996.9705
v 386.7592 61.5867 -997.8331
v 389.394 65.42728 -1004.43
v 373.4536 60.29092 -1010.817
v 377.2712 63.81461 -1016.153
v 367.6404 58.84858 -1028.065
v 369.4929 61.93353 -1030.991
v 368.2109 50.23016 -1022.23
v 372.4995 49.92347 -1002.958
v 385.6502 49.92347 -989.8071
v 402.2211 49.92347 -981.3638
v 423.4894 50.06121 -980.7234
v 441.8585 50.06121 -983.6327
v 381.048 99.29388 -1017.801
v 373.07 90.09006 -1030.52
v 377.3734 114.2049 -1023.688
v 396.296 119.2595 -1016.449
v 399.3433 134.7926 -1038.812
v 384.4138 131.2704 -1045.169
v 362.0289 107.2671 -1035.58
v 374.3725 126.6386 -1056.322
v 414.1383 137.2576 -1036.831
v 415.9065 122.1288 -1014.311
v 428.4995 137.2321 -1039.382
v 435.5331 122.3004 -1017.796
v 443.3088 134.5796 -1047.435
v 453.2545 119.7575 -1026.563
v 452.7645 131.1932 -1056.621
v 467.3361 114.7491 -1039.754
v 459.4557 126.2557 -1069.225
v 476.3994 107.7653 -1056.078
v 389.2458 131.1827 -1051.877
v 400.8492 134.651 -1046.922
v 413.7187 136.534 -1045.519
v 426.5989 136.6466 -1047.806
v 438.2288 134.9779 -1053.56
v 447.4699 131.691 -1062.217
v 453.4178 127.1079 -1072.929
v 403.3904 135.6443 -1057.536
v 394.4589 132.9731 -1061.352
v 379.9694 126.4825 -1059.88
v 371.0274 119.7885 -1068.296
v 353.0569 98.88559 -1051.284
v 350.0003 90.12856 -1068.929
v 368.869 113.6045 -1080.757
v 354.4936 81.60547 -1087.123
v 371.3408 107.7158 -1093.428
v 364.8047 74.3903 -1103.759
v 377.8267 102.7682 -1104.977
v 374.2308 109.789 -1093.507
v 380.1827 105.2052 -1104.221
v 387.7708 99.23141 -1114.292
v 389.424 101.9183 -1112.877
v 400.285 97.4357 -1120.483
v 401.0537 100.2495 -1118.631
v 414.1447 97.55687 -1122.944
v 413.9339 100.3621 -1120.918
v 428.3749 98.32205 -1122.474
v 426.8035 102.2451 -1119.515
v 441.7081 100.6862 -1118.298
v 438.4028 105.7142 -1114.559
v 453.0346 106.841 -1108.89
v 447.5964 110.4297 -1106.535
v 432.3067 113.3629 -1109.616
v 439.3857 116.9938 -1103.438
v 425.6418 122.0886 -1104.441
v 430.4224 124.5407 -1100.269
v 419.2744 127.648 -1097.747
v 421.7566 128.9212 -1095.58
v 412.4528 133.0637 -1090.234
v 423.3463 130.4063 -1092.798
v 416.1425 126.7113 -1099.085
v 412.6677 126.2029 -1099.464
v 409.1901 126.1725 -1098.846
v 406.05 126.6231 -1097.293
v 403.5549 127.5106 -1094.955
v 401.9489 128.748 -1092.063
v 401.3894 130.2143 -1088.899
v 401.931 131.766 -1085.772
v 403.5208 133.2511 -1082.99
v 406.003 134.5243 -1080.823
v 409.1349 135.4609 -1079.485
v 412.6096 135.9693 -1079.106
v 416.0873 135.9997 -1079.724
v 419.2273 135.5492 -1081.277
v 419.5037 138.1735 -1069.73
v 425.5512 137.3057 -1072.722
v 423.2177 137.1809 -1058.217
v 413.2999 137.0941 -1056.456
v 412.806 138.1149 -1068.541
v 406.1138 137.1358 -1069.271
v 400.0822 135.3319 -1071.848
v 387.3799 129.3421 -1067.531
v 374.0815 120.9821 -1070.187
v 372.0755 115.2352 -1081.766
v 381.3016 120.6817 -1084.383
v 382.8973 116.5 -1093.407
v 387.4772 112.9709 -1101.656
v 394.5929 110.44 -1108.321
v 403.5479 109.1551 -1112.752
v 413.4656 109.2418 -1114.513
v 423.3752 110.6917 -1113.432
v 400.1727 120.1148 -1103.567
v 406.2202 119.247 -1106.559
v 412.9179 119.3056 -1107.748
v 419.6101 120.2847 -1107.019
v 395.3672 121.8239 -1099.066
v 392.2744 124.2072 -1093.495
v 391.1967 127.0312 -1087.401
v 392.2398 130.0196 -1081.379
v 382.8462 125.1068 -1075.466
v 395.3015 132.8798 -1076.02
v 480.0234 50.06121 -1021.798
v 482.3241 58.97484 -1046.256
v 482.9327 50.06121 -1040.167
v 479.3882 57.39566 -1064.495
v 482.9327 50.06121 -1040.167
v 482.3241 58.97484 -1046.256
v 480.0234 50.06121 -1058.536
v 467.5288 82.35142 -1107.286
v 476.5572 91.46519 -1089.222
v 461.7129 115.6358 -1091.57
v 453.5197 75.16595 -1119.512
v 453.4843 115.9301 -1096.228
v 443.9194 121.2292 -1095.502
v 455.4903 121.677 -1084.649
v 445.464 125.6542 -1086.585
v 443.8682 129.836 -1077.561
v 439.2883 133.365 -1069.313
v 432.1726 135.8959 -1062.647
v 430.3566 135.5966 -1077.223
v 433.4495 133.2133 -1082.794
v 434.5272 130.3893 -1088.888
v 433.4841 127.4009 -1094.91
v 421.7224 134.6617 -1083.614
v 423.3284 133.4243 -1086.507
v 423.8879 131.9579 -1089.671
v 362.0289 107.2671 -1035.58
v 435.8448 69.87986 -1127.064
v 453.5197 75.16595 -1119.512
v 428.3749 98.32205 -1122.474
v 428.3749 98.32205 -1122.474
v 453.5197 75.16595 -1119.512
v 441.7081 100.6862 -1118.298
v 416.2343 67.01058 -1129.203
v 435.8448 69.87986 -1127.064
v 414.1447 97.55687 -1122.944
v 428.3749 98.32205 -1122.474
v 400.285 97.4357 -1120.483
v 396.6078 66.83898 -1125.718
v 387.7708 99.23141 -1114.292
v 378.8863 69.38186 -1116.95
v 377.8267 102.7682 -1104.977
v 364.8047 74.3903 -1103.759
v 479.942 105.2536 -1071.215
v 459.8696 124.97 -1072.104
v 480.763 103.0516 -1075.956
v 480.763 103.0516 -1075.956
v 459.8696 124.97 -1072.104
v 462.1421 120.8359 -1083.619
v 478.74 101.6318 -1069.314
v 479.5573 99.48991 -1073.936
v 473.7924 64.03396 -1031.922
v 476.4875 62.17668 -1048.471
v 461.7129 115.6358 -1091.57
v 480.763 103.0516 -1075.956
v 462.1421 120.8359 -1083.619
v 481.5348 93.48076 -1088.59
v 471.5801 50.06121 -1075.107
v 480.0234 50.06121 -1058.536
v 470.8495 55.8842 -1080.909
v 479.3882 57.39566 -1064.495
v 473.8151 60.21131 -1064.973
v 476.4875 62.17668 -1048.471
v 476.5572 91.46519 -1089.222
v 479.5573 99.48991 -1073.936
v 467.5288 82.35142 -1107.286
v 466.0369 58.33023 -1079.811
v 362.0289 107.2671 -1035.58
v 373.07 90.09006 -1030.52
v 369.4929 61.93353 -1030.991
v 366.4667 80.06257 -1043.543
v 479.5573 99.48991 -1073.936
v 476.3994 107.7653 -1056.078
v 478.74 101.6318 -1069.314
v 373.07 90.09006 -1030.52
v 366.4667 80.06257 -1043.543
v 362.0289 107.2671 -1035.58
v 353.0569 98.88559 -1051.284
v 377.2712 63.81461 -1016.153
v 369.4929 61.93353 -1030.991
v 480.8976 63.96166 -994.0551
v 481.9046 64.17667 -991.0499
v 479.7608 47.00753 -986.2542
v 480.7718 47.94269 -983.2927
v 481.9046 64.17667 -991.0499
v 484.6182 48.0144 -978.7363
v 480.7718 47.94269 -983.2927
v 485.7521 64.42411 -986.5041
v 491.3653 64.55457 -983.8633
v 490.2314 48.14418 -976.0952
v 496.4718 48.24376 -973.8934
v 496.9091 64.65116 -981.7855
v 503.8868 64.62206 -981.6379
v 502.7531 48.21061 -973.8696
v 509.1046 48.0903 -975.2717
v 509.6811 64.51819 -982.8181
v 514.6224 64.37329 -984.7491
v 512.7751 47.91273 -977.8574
v 497.297 65.24135 -984.2722
v 503.7448 65.21814 -984.0742
v 499.5037 64.44969 -997.0772
v 492.2132 65.14659 -986.2794
v 496.9896 64.3651 -998.6943
v 495.2828 64.30108 -999.8957
v 487.1591 65.02562 -988.7141
v 483.7922 64.79543 -992.8027
v 494.7922 64.22044 -1001.25
v 494.6166 64.18163 -1001.893
v 482.9043 64.63282 -995.4715
v 502.5957 64.46059 -996.6099
v 505.48 64.44997 -996.5161
v 509.1015 65.12823 -985.0636
v 513.8837 65.00097 -986.7178
v 508.9753 64.41962 -996.6854
v 512.0427 64.29613 -998.4429
v 519.5901 64.72928 -990.6652
v 522.9313 64.37569 -996.1641
v 514.7904 64.1229 -1001.037
v 514.1794 63.99651 -1003.199
v 523.5103 64.02129 -1001.928
v 519.7045 63.66829 -1008.052
v 512.4778 63.86111 -1005.507
v 509.8931 63.81249 -1006.544
v 514.5148 63.53732 -1010.668
v 509.6155 63.48229 -1012.008
v 507.0725 63.75698 -1007.718
v 501.4753 63.80603 -1007.407
v 502.0362 63.48512 -1012.64
v 497.4042 63.87735 -1006.612
v 492.3955 63.71068 -1009.799
v 495.1844 64.01848 -1004.481
v 487.1092 64.044 -1004.792
v 494.423 64.13885 -1002.602
v 483.737 64.34313 -1000.11
v 520.9117 63.63607 -1008.478
v 515.2869 63.49135 -1011.357
v 510.0403 63.4364 -1012.724
v 502.1299 63.4315 -1013.514
v 491.5587 63.68284 -1010.332
v 485.7601 64.04826 -1004.844
v 481.9016 63.61443 -999.3492
v 480.8976 63.96166 -994.0551
v 524.9772 63.30335 -1001.37
v 524.1959 63.694 -995.0341
v 480.8976 63.96166 -994.0551
v 481.9046 64.17667 -991.0499
v 524.1959 63.694 -995.0341
v 520.7443 64.07507 -989.0938
v 514.6224 64.37329 -984.7491
v 514.6224 64.37329 -984.7491
v 514.6224 64.37329 -984.7491
v 514.6224 64.37329 -984.7491
v 518.32 47.57414 -982.9196
v 520.7443 64.07507 -989.0938
v 518.32 47.57414 -982.9196
v 514.6224 64.37329 -984.7491
v 520.7443 64.07507 -989.0938
v 524.1959 63.694 -995.0341
v 518.32 47.57414 -982.9196
v 518.32 47.57414 -982.9196
v 524.1959 63.694 -995.0341
v 522.027 47.25329 -987.8566
v 524.1959 63.694 -995.0341
v 522.8901 46.90453 -993.5097
v 522.027 47.25329 -987.8566
v 524.9772 63.30335 -1001.37
v 464.7155 105.9729 -1045.927
v 465.8268 101.966 -1050.103
v 493.7231 110.7007 -1044.876
v 496.2689 105.8418 -1049.984
v 492.6528 111.5947 -1037.928
v 493.7231 110.7007 -1044.876
v 463.8256 106.7163 -1040.149
v 492.2578 108.2226 -1031.708
v 463.4969 103.9121 -1034.976
v 492.689 101.8728 -1028.591
v 463.8554 98.6315 -1032.384
v 493.5669 108.4722 -1031.574
v 494.3856 112.1945 -1037.926
v 493.7231 110.7007 -1044.876
v 494.9852 108.7425 -1031.429
v 496.2628 112.8443 -1037.923
v 495.7647 113.7907 -1046.035
v 494.5977 102.1291 -1028.08
v 493.6052 101.9958 -1028.346
v 497.8021 102.3289 -1027.285
v 498.2037 108.6838 -1031.417
v 496.2628 112.8443 -1037.923
v 497.9116 101.1584 -1027.009
v 501.6127 102.5666 -1026.34
v 498.0226 96.77572 -1022.188
v 494.9614 95.2882 -1023.764
v 495.0932 99.57984 -1028.635
v 492.889 93.37804 -1025.556
v 502.0309 97.96735 -1021.87
v 505.7346 103.363 -1026.516
v 505.9588 98.60754 -1021.981
v 510.1716 103.2807 -1027.532
v 510.4121 98.64549 -1022.8
v 515.907 103.1842 -1028.982
v 514.0087 97.1723 -1024.354
v 519.1102 100.3073 -1031.829
v 517.5323 94.96785 -1027.273
v 501.731 108.6195 -1031.405
v 506.7769 107.2777 -1030.295
v 503.2309 115.2375 -1037.903
v 509.6732 115.5874 -1037.844
v 512.1428 113.8314 -1036.283
v 512.2865 114.5409 -1043.85
v 505.1085 114.6027 -1044.435
v 503.2309 115.2375 -1037.903
v 509.4844 109.9473 -1048.703
v 513.845 109.3574 -1047.93
v 517.0679 110.1304 -1039.061
v 518.4238 104.9923 -1042.765
v 516.6974 107.6973 -1045.749
v 515.2493 112.8561 -1041.874
v 513.5484 111.0462 -1033.817
v 505.7066 110.7685 -1051.377
v 501.2123 116.1012 -1045.655
v 503.2309 115.2375 -1037.903
v 499.7228 116.9382 -1036.619
v 519.0709 97.48143 -1034.363
v 493.7231 110.7007 -1044.876
v 496.2689 105.8418 -1049.984
v 495.7647 113.7907 -1046.035
v 499.3014 108.3213 -1051.974
v 493.7231 110.7007 -1044.876
v 495.7647 113.7907 -1046.035
v 498.2037 108.6838 -1031.417
v 496.2628 112.8443 -1037.923
v 499.7228 116.9382 -1036.619
v 495.0932 99.57984 -1028.635
v 492.9802 97.37736 -1030.444
v 491.4191 90.81483 -1027.558
v 491.7094 87.77412 -1023.262
v 492.8036 89.63421 -1020.98
v 494.8381 91.27069 -1019.203
v 498.1267 92.67299 -1017.676
v 502.4224 93.66188 -1017.686
v 506.1685 94.15578 -1017.737
v 510.6374 94.30635 -1018.369
v 514.644 92.65059 -1020.886
v 518.4677 91.07559 -1023.872
v 517.572 93.28038 -1030.236
v 518.5812 90.45387 -1027.237
v 464.7638 92.89145 -1033.363
v 463.8554 98.6315 -1032.384
v 492.9802 97.37736 -1030.444
v 492.8036 89.63421 -1020.98
v 495.1125 88.03451 -1022.555
v 491.7094 87.77412 -1023.262
v 495.5431 88.86897 -1021.459
v 494.8381 91.27069 -1019.203
v 497.1874 89.75668 -1020.527
v 498.1267 92.67299 -1017.676
v 499.616 90.97639 -1019.279
v 502.4224 93.66188 -1017.686
v 502.6662 91.60355 -1018.992
v 506.1685 94.15578 -1017.737
v 505.5257 91.9926 -1019.005
v 510.6374 94.30635 -1018.369
v 509.0027 92.30141 -1019.254
v 514.644 92.65059 -1020.886
v 512.1209 91.65089 -1020.792
v 518.4677 91.07559 -1023.872
v 514.9565 90.48289 -1023.007
v 495.5431 88.86897 -1021.459
v 494.9126 83.14736 -1011.582
v 495.1125 88.03451 -1022.555
v 495.3658 83.82033 -1010.389
v 497.1874 89.75668 -1020.527
v 497.0341 84.53088 -1009.353
v 499.616 90.97639 -1019.279
v 499.4957 85.50637 -1007.963
v 502.6662 91.60355 -1018.992
v 502.5627 85.99989 -1007.604
v 505.5257 91.9926 -1019.005
v 505.4325 86.30175 -1007.572
v 509.0027 92.30141 -1019.254
v 508.9177 86.53591 -1007.785
v 512.1209 91.65089 -1020.792
v 512.018 85.99628 -1009.401
v 514.9565 90.48289 -1023.007
v 514.8218 85.03943 -1011.753
v 495.2828 64.30108 -999.8957
v 494.7922 64.22044 -1001.25
v 499.5037 64.44969 -997.0772
v 496.9896 64.3651 -998.6943
v 505.48 64.44997 -996.5161
v 502.5957 64.46059 -996.6099
v 512.0427 64.29613 -998.4429
v 508.9753 64.41962 -996.6854
v 514.7904 64.1229 -1001.037
v 492.9802 97.37736 -1030.444
v 463.8554 98.6315 -1032.384
v 492.689 101.8728 -1028.591
v 493.6052 101.9958 -1028.346
v 494.5977 102.1291 -1028.08
v 492.9802 97.37736 -1030.444
v 494.5977 102.1291 -1028.08
v 495.0932 99.57984 -1028.635
v 495.0932 99.57984 -1028.635
v 497.9116 101.1584 -1027.009
v 480.8976 63.96166 -994.0551
v 479.7608 47.00753 -986.2542
v 481.9016 63.61443 -999.3492
v 480.7629 46.29015 -991.5256
v 491.109 94.06302 -1032.147
v 495.7647 113.7907 -1046.035
v 499.3014 108.3213 -1051.974
v 498.1537 111.9761 -1044.509
v 502.2373 106.9466 -1049.965
v 496.2628 112.8443 -1037.923
v 495.7647 113.7907 -1046.035
v 498.1537 111.9761 -1044.509
v 496.2628 112.8443 -1037.923
v 498.1537 111.9761 -1044.509
v 499.7228 116.9382 -1036.619
v 501.2123 116.1012 -1045.655
v 502.2373 106.9466 -1049.965
v 505.7066 110.7685 -1051.377
v 499.7228 116.9382 -1036.619
v 501.731 108.6195 -1031.405
v 499.7228 116.9382 -1036.619
v 503.2309 115.2375 -1037.903
v 519.1102 100.3073 -1031.829
v 519.0709 97.48143 -1034.363
v 517.5323 94.96785 -1027.273
v 517.572 93.28038 -1030.236
v 478.74 101.6318 -1069.314
v 459.8696 124.97 -1072.104
v 479.942 105.2536 -1071.215
v 479.5573 99.48991 -1073.936
v 478.74 101.6318 -1069.314
v 480.763 103.0516 -1075.956
v 479.942 105.2536 -1071.215
v 481.5348 93.48076 -1088.59
v 476.5572 91.46519 -1089.222
v 479.5573 99.48991 -1073.936
v 481.5348 93.48076 -1088.59
v 461.7129 115.6358 -1091.57
v 476.5572 91.46519 -1089.222
v 481.5348 93.48076 -1088.59
v 429.7434 135.5447 -1072.27
v 414.1839 137.3993 -1072.261
v 419.47 148.552 -1079.008
v 429.7434 135.5447 -1072.27
v 419.47 148.552 -1079.008
v 429.4361 130.4764 -1087.558
v 419.3572 144.4265 -1091.925
v 414.1839 137.3993 -1072.261
v 414.0464 132.3642 -1088.027
v 419.47 148.552 -1079.008
v 419.3572 144.4265 -1091.925
v 414.6055 136.33 -1078.507
v 392.947 133.0845 -1074.338
v 399.5001 141.5741 -1088.515
v 414.1745 130.9291 -1093.278
v 400.4732 137.5632 -1096.291
v 399.5001 141.5741 -1088.515
v 398.6355 124.9407 -1090.383
v 400.4732 137.5632 -1096.291
v 392.947 133.0845 -1074.338
vt 0.396835 0.893871
vt 0.416193 0.911005
vt 0.38672 0.847502
vt 0.368444 0.839759
vt 0.398079 0.861664
vt 0.416193 0.911005
vt 0.421295 0.921843
vt 0.376179 0.884361
vt 0.396835 0.893871
vt 0.368444 0.839759
vt 0.346853 0.839932
vt 0.353252 0.884361
vt 0.326176 0.847977
vt 0.332595 0.89387
vt 0.310467 0.862328
vt 0.324105 0.911005
vt 0.368444 0.839759
vt 0.38672 0.847502
vt 0.353119 0.879106
vt 0.346853 0.839932
vt 0.326176 0.847977
vt 0.398079 0.861664
vt 0.310467 0.862328
vt 0.304334 0.878945
vt 0.304816 0.898036
vt 0.316079 0.912336
vt 0.334415 0.920214
vt 0.356178 0.920071
vt 0.377008 0.911928
vt 0.392737 0.897425
vt 0.400244 0.879477
vt 0.316079 0.912336
vt 0.324105 0.943209
vt 0.304816 0.898036
vt 0.319003 0.932372
vt 0.332595 0.960344
vt 0.334415 0.920214
vt 0.353252 0.969853
vt 0.356178 0.920071
vt 0.376179 0.969853
vt 0.377008 0.911928
vt 0.396835 0.960344
vt 0.392737 0.897425
vt 0.416193 0.943209
vt 0.400244 0.879477
vt 0.421295 0.921843
vt 0.313636 0.937883
vt 0.314542 0.908402
vt 0.324105 0.911005
vt 0.326696 0.887281
vt 0.332595 0.89387
vt 0.35267 0.991612
vt 0.326355 0.979465
vt 0.314353 0.950097
vt 0.41462 0.972716
vt 0.435162 0.953713
vt 0.421295 0.921843
vt 0.353109 0.875875
vt 0.353252 0.884361
vt 0.381388 0.876034
vt 0.376179 0.884361
vt 0.403983 0.894616
vt 0.383203 0.990065
vt 0.421295 0.921843
vt 0.439262 0.92616
vt 0.421295 0.921843
vt 0.416193 0.911005
vt 0.424532 0.911295
vt 0.396835 0.893871
vt 0.403983 0.894616
vt 0.376179 0.884361
vt 0.416193 0.911005
vt 0.396835 0.893871
vt 0.424532 0.911295
vt 0.439262 0.92616
vt 0.398079 0.861664
vt 0.421295 0.921843
vt 0.304334 0.878945
vt 0.324105 0.911005
vt 0.310467 0.862328
vt 0.319003 0.932372
vt 0.304816 0.898036
vt 0.103942 0.557945
vt 0.132165 0.570091
vt 0.097197 0.504362
vt 0.077586 0.498557
vt 0.084648 0.549063
vt 0.054415 0.499673
vt 0.084648 0.549063
vt 0.077586 0.498557
vt 0.063232 0.549063
vt 0.033844 0.510701
vt 0.043938 0.557945
vt 0.077586 0.498557
vt 0.097197 0.504362
vt 0.057393 0.54272
vt 0.054415 0.499673
vt 0.033844 0.510701
vt 0.112798 0.51759
vt 0.017891 0.525048
vt 0.011177 0.541716
vt 0.010952 0.56084
vt 0.021423 0.575212
vt 0.039074 0.583163
vt 0.060396 0.583083
vt 0.08112 0.574978
vt 0.097097 0.560481
vt 0.112204 0.538479
vt 0.017891 0.525048
vt 0.043938 0.557945
vt 0.033844 0.510701
vt 0.036008 0.57395
vt 0.011177 0.541716
vt 0.031243 0.593908
vt 0.010952 0.56084
vt 0.036008 0.604031
vt 0.043938 0.620035
vt 0.021423 0.575212
vt 0.033808 0.570573
vt 0.033296 0.598358
vt 0.021423 0.575212
vt 0.036008 0.604031
vt 0.010952 0.56084
vt 0.043938 0.620035
vt 0.034019 0.609876
vt 0.033296 0.598358
vt 0.038925 0.637563
vt 0.063232 0.628917
vt 0.039074 0.583163
vt 0.021423 0.575212
vt 0.060396 0.583083
vt 0.084648 0.628917
vt 0.08112 0.574978
vt 0.103942 0.620035
vt 0.097097 0.560481
vt 0.131801 0.601596
vt 0.112204 0.538479
vt 0.136854 0.58009
vt 0.063507 0.648911
vt 0.091986 0.647484
vt 0.121381 0.631258
vt 0.150925 0.610691
vt 0.136854 0.58009
vt 0.112798 0.51759
vt 0.136854 0.58009
vt 0.112204 0.538479
vt 0.150925 0.610691
vt 0.136854 0.58009
vt 0.154155 0.585409
vt 0.132165 0.570091
vt 0.031243 0.593908
vt 0.036008 0.57395
vt 0.033808 0.570573
vt 0.043733 0.553932
vt 0.043938 0.557945
vt 0.063928 0.540786
vt 0.043938 0.557945
vt 0.043733 0.553932
vt 0.063232 0.549063
vt 0.090346 0.540934
vt 0.084648 0.549063
vt 0.111452 0.558294
vt 0.14134 0.570656
vt 0.103942 0.557945
vt 0.111452 0.558294
vt 0.084648 0.549063
vt 0.132165 0.570091
vt 0.103942 0.557945
vt 0.14134 0.570656
vt 0.154155 0.585409
vt 0.097197 0.504362
vt 0.132165 0.570091
vt 0.112798 0.51759
vt 0.136854 0.58009
vt 0.041475 0.959738
vt 0.031163 0.938926
vt 0.02229 0.911326
vt 0.010773 0.896293
vt 0.032674 0.952923
vt 0.041475 0.959738
vt 0.030919 0.963666
vt 0.041475 0.959738
vt 0.036693 0.982126
vt 0.048425 0.992793
vt 0.066565 0.971288
vt 0.066813 0.996371
vt 0.085592 0.997779
vt 0.094412 0.971288
vt 0.067244 0.9185
vt 0.042454 0.919274
vt 0.041475 0.959738
vt 0.02229 0.911326
vt 0.091667 0.909149
vt 0.119502 0.959738
vt 0.110807 0.893121
vt 0.143014 0.938926
vt 0.12086 0.873663
vt 0.149211 0.912974
vt 0.125959 0.988207
vt 0.157716 0.966417
vt 0.10383 0.994566
vt 0.144829 0.977382
vt 0.166597 0.952934
vt 0.171994 0.936439
vt 0.149211 0.912974
vt 0.149211 0.912974
vt 0.171941 0.916907
vt 0.165775 0.901547
vt 0.142664 0.889012
vt 0.153337 0.890957
vt 0.119503 0.85241
vt 0.149211 0.912974
vt 0.142664 0.889012
vt 0.02229 0.911326
vt 0.010773 0.896293
vt 0.065433 0.875442
vt 0.042454 0.919274
vt 0.067244 0.9185
vt 0.091667 0.909149
vt 0.110807 0.893121
vt 0.011881 0.875793
vt 0.020408 0.857899
vt 0.039501 0.842124
vt 0.064223 0.833341
vt 0.090831 0.83083
vt 0.109202 0.838892
vt 0.119503 0.85241
vt 0.12086 0.873663
vt 0.017817 0.76779
vt 0.019801 0.755614
vt 0.004476 0.722518
vt 0.004088 0.702587
vt 0.017817 0.76779
vt 0.020493 0.766509
vt 0.015508 0.777981
vt 0.028126 0.788597
vt 0.017817 0.76779
vt 0.017313 0.73705
vt 0.004476 0.722518
vt 0.038355 0.744663
vt 0.05321 0.800144
vt 0.063404 0.74379
vt 0.081051 0.800144
vt 0.087412 0.734595
vt 0.106134 0.788597
vt 0.105548 0.718947
vt 0.12964 0.76779
vt 0.114214 0.700015
vt 0.135835 0.741845
vt 0.111506 0.815269
vt 0.089281 0.824039
vt 0.07127 0.827886
vt 0.052078 0.825773
vt 0.033175 0.822621
vt 0.020139 0.811028
vt 0.01444 0.797499
vt 0.017817 0.76779
vt 0.129319 0.804982
vt 0.144179 0.791918
vt 0.152192 0.779773
vt 0.15645 0.762552
vt 0.135835 0.741845
vt 0.015508 0.777981
vt 0.135835 0.741845
vt 0.154164 0.747013
vt 0.14699 0.735271
vt 0.132311 0.726591
vt 0.111758 0.681585
vt 0.139277 0.728275
vt 0.135835 0.741845
vt 0.017313 0.73705
vt 0.004476 0.722518
vt 0.058213 0.702015
vt 0.038355 0.744663
vt 0.063404 0.74379
vt 0.087412 0.734595
vt 0.105548 0.718947
vt 0.114214 0.700015
vt 0.004088 0.702587
vt 0.011241 0.685213
vt 0.02935 0.669811
vt 0.053089 0.660787
vt 0.077818 0.659848
vt 0.102008 0.665759
vt 0.111758 0.681585
vt 0.825147 0.460867
vt 0.841887 0.493239
vt 0.81475 0.462021
vt 0.829864 0.491098
vt 0.845817 0.545405
vt 0.829864 0.491098
vt 0.845817 0.545405
vt 0.833149 0.539648
vt 0.845817 0.545405
vt 0.84098 0.565515
vt 0.833149 0.539648
vt 0.833149 0.539648
vt 0.84098 0.565515
vt 0.828713 0.556176
vt 0.84098 0.565515
vt 0.823378 0.598337
vt 0.828713 0.556176
vt 0.828297 0.615167
vt 0.801921 0.641543
vt 0.79626 0.624531
vt 0.812513 0.585799
vt 0.828713 0.556176
vt 0.78766 0.609488
vt 0.762282 0.64151
vt 0.75659 0.624899
vt 0.724788 0.647598
vt 0.722364 0.630506
vt 0.687472 0.642195
vt 0.688359 0.625758
vt 0.654005 0.625841
vt 0.657925 0.611129
vt 0.627673 0.600155
vt 0.634053 0.588074
vt 0.617627 0.573747
vt 0.622046 0.559469
vt 0.618581 0.590049
vt 0.629627 0.619768
vt 0.656001 0.646142
vt 0.689235 0.663075
vt 0.731844 0.664312
vt 0.768686 0.658477
vt 0.628179 0.570792
vt 0.617282 0.55171
vt 0.618055 0.55006
vt 0.652211 0.565952
vt 0.652708 0.513211
vt 0.623019 0.501494
vt 0.587421 0.529589
vt 0.603999 0.480353
vt 0.682593 0.51629
vt 0.691709 0.569233
vt 0.712511 0.510988
vt 0.732255 0.561954
vt 0.744244 0.495362
vt 0.769742 0.544851
vt 0.765019 0.47774
vt 0.800391 0.519682
vt 0.780494 0.453778
vt 0.821171 0.489025
vt 0.63309 0.487599
vt 0.655894 0.496399
vt 0.681982 0.498508
vt 0.708759 0.493698
vt 0.733541 0.482448
vt 0.753857 0.465898
vt 0.767704 0.445717
vt 0.66081 0.473881
vt 0.643238 0.467125
vt 0.615662 0.473046
vt 0.59979 0.458587
vt 0.5712 0.502638
vt 0.568499 0.470313
vt 0.597786 0.435646
vt 0.581073 0.437014
vt 0.605196 0.412257
vt 0.604832 0.406511
vt 0.620438 0.390848
vt 0.61033 0.411136
vt 0.624338 0.391253
vt 0.642165 0.37343
vt 0.644548 0.375046
vt 0.668451 0.361615
vt 0.669004 0.364052
vt 0.696776 0.356519
vt 0.695359 0.359311
vt 0.725645 0.357112
vt 0.721092 0.361277
vt 0.752172 0.364525
vt 0.743733 0.369778
vt 0.77343 0.380886
vt 0.76109 0.384024
vt 0.728624 0.376278
vt 0.742003 0.387289
vt 0.711864 0.382786
vt 0.720911 0.390253
vt 0.69672 0.394004
vt 0.701418 0.397895
vt 0.680609 0.407046
vt 0.704193 0.40297
vt 0.69056 0.391675
vt 0.68354 0.391131
vt 0.676344 0.392425
vt 0.669671 0.395431
vt 0.66417 0.399858
vt 0.660381 0.405275
vt 0.658674 0.411155
vt 0.65922 0.416925
vt 0.661972 0.422019
vt 0.666662 0.425935
vt 0.672833 0.428287
vt 0.679879 0.428841
vt 0.687106 0.427542
vt 0.693804 0.424517
vt 0.693439 0.447359
vt 0.706345 0.441521
vt 0.701529 0.471786
vt 0.680906 0.475492
vt 0.679506 0.449864
vt 0.665926 0.448786
vt 0.654043 0.444239
vt 0.629923 0.45591
vt 0.605631 0.454147
vt 0.603754 0.432823
vt 0.620678 0.42493
vt 0.625589 0.408224
vt 0.636382 0.392868
vt 0.651988 0.380341
vt 0.670887 0.37184
vt 0.691259 0.368175
vt 0.711144 0.3697
vt 0.659905 0.385536
vt 0.672721 0.379768
vt 0.68654 0.377282
vt 0.700022 0.37832
vt 0.649331 0.394032
vt 0.642031 0.404438
vt 0.638725 0.415747
vt 0.639751 0.426857
vt 0.622159 0.441363
vt 0.645025 0.436678
vt 0.845231 0.581932
vt 0.845817 0.545405
vt 0.849532 0.561198
vt 0.841887 0.493239
vt 0.849532 0.561198
vt 0.845817 0.545405
vt 0.845231 0.508248
vt 0.810631 0.39568
vt 0.826421 0.423823
vt 0.786755 0.412755
vt 0.784377 0.374221
vt 0.771447 0.402668
vt 0.749962 0.401684
vt 0.773747 0.423922
vt 0.751694 0.418076
vt 0.746994 0.434867
vt 0.736293 0.450402
vt 0.720624 0.463133
vt 0.716948 0.432931
vt 0.724206 0.422443
vt 0.727414 0.411096
vt 0.726273 0.400005
vt 0.699312 0.420065
vt 0.70309 0.414626
vt 0.704771 0.408735
vt 0.587421 0.529589
vt 0.750262 0.361436
vt 0.784377 0.374221
vt 0.725645 0.357112
vt 0.725645 0.357112
vt 0.784377 0.374221
vt 0.752172 0.364525
vt 0.711573 0.358483
vt 0.750262 0.361436
vt 0.696776 0.356519
vt 0.725645 0.357112
vt 0.668451 0.361615
vt 0.671985 0.365604
vt 0.642165 0.37343
vt 0.635241 0.382126
vt 0.620438 0.390848
vt 0.604832 0.406511
vt 0.827789 0.464532
vt 0.781758 0.448403
vt 0.8301 0.455979
vt 0.8301 0.455979
vt 0.781758 0.448403
vt 0.786642 0.427624
vt 0.827789 0.464532
vt 0.8301 0.455979
vt 0.828713 0.556176
vt 0.833149 0.539648
vt 0.786755 0.412755
vt 0.8301 0.455979
vt 0.786642 0.427624
vt 0.835092 0.4291
vt 0.828297 0.475013
vt 0.845231 0.508248
vt 0.825147 0.460867
vt 0.841887 0.493239
vt 0.829864 0.491098
vt 0.833149 0.539648
vt 0.826421 0.423823
vt 0.8301 0.455979
vt 0.810631 0.39568
vt 0.81475 0.462021
vt 0.587421 0.529589
vt 0.617282 0.55171
vt 0.622046 0.559469
vt 0.595886 0.531636
vt 0.8301 0.455979
vt 0.821171 0.489025
vt 0.827789 0.464532
vt 0.617282 0.55171
vt 0.595886 0.531636
vt 0.587421 0.529589
vt 0.5712 0.502638
vt 0.634053 0.588074
vt 0.622046 0.559469
vt 0.845022 0.631137
vt 0.846993 0.637123
vt 0.847515 0.652819
vt 0.849278 0.658428
vt 0.846993 0.637123
vt 0.856966 0.667534
vt 0.849278 0.658428
vt 0.854687 0.646208
vt 0.865978 0.651491
vt 0.867203 0.671317
vt 0.878706 0.673743
vt 0.875186 0.657115
vt 0.889276 0.657423
vt 0.891302 0.672825
vt 0.902597 0.670544
vt 0.900997 0.655078
vt 0.911005 0.651232
vt 0.911463 0.666888
vt 0.87581 0.651889
vt 0.888832 0.652297
vt 0.880477 0.626327
vt 0.865574 0.647871
vt 0.875426 0.623095
vt 0.871999 0.620694
vt 0.857359 0.641534
vt 0.850628 0.633364
vt 0.871031 0.61799
vt 0.870687 0.616707
vt 0.848881 0.628036
vt 0.886713 0.627266
vt 0.892537 0.62746
vt 0.899669 0.650331
vt 0.909354 0.647037
vt 0.899598 0.627129
vt 0.905819 0.623627
vt 0.92094 0.639167
vt 0.927771 0.628197
vt 0.911408 0.618456
vt 0.910207 0.61414
vt 0.929027 0.616695
vt 0.922413 0.603982
vt 0.906809 0.609534
vt 0.901607 0.60746
vt 0.912954 0.597779
vt 0.902109 0.59412
vt 0.895931 0.605113
vt 0.884626 0.605721
vt 0.885843 0.595285
vt 0.876394 0.607299
vt 0.866335 0.600931
vt 0.871878 0.611545
vt 0.855578 0.610908
vt 0.870309 0.615293
vt 0.850644 0.618782
vt 0.924857 0.603136
vt 0.914523 0.596406
vt 0.902978 0.592691
vt 0.886046 0.593542
vt 0.864654 0.599867
vt 0.852855 0.610802
vt 0.847146 0.620582
vt 0.845022 0.631137
vt 0.932163 0.618084
vt 0.930491 0.630723
vt 0.845022 0.631137
vt 0.846993 0.637123
vt 0.930491 0.630723
vt 0.923433 0.642571
vt 0.911005 0.651232
vt 0.911005 0.651232
vt 0.911005 0.651232
vt 0.911005 0.651232
vt 0.922658 0.660768
vt 0.923433 0.642571
vt 0.922658 0.660768
vt 0.911005 0.651232
vt 0.923433 0.642571
vt 0.930491 0.630723
vt 0.922658 0.660768
vt 0.922658 0.660768
vt 0.930491 0.630723
vt 0.930163 0.650988
vt 0.930491 0.630723
vt 0.931977 0.639787
vt 0.930163 0.650988
vt 0.932163 0.618084
vt 0.797703 0.510646
vt 0.801215 0.503759
vt 0.855957 0.510823
vt 0.862561 0.502367
vt 0.853499 0.524756
vt 0.855957 0.510823
vt 0.795645 0.522209
vt 0.853645 0.538942
vt 0.795836 0.533987
vt 0.856329 0.547914
vt 0.798197 0.541449
vt 0.856267 0.539116
vt 0.856898 0.524512
vt 0.855957 0.510823
vt 0.859107 0.539304
vt 0.860581 0.524248
vt 0.859288 0.507134
vt 0.860172 0.548858
vt 0.858174 0.548367
vt 0.866688 0.550408
vt 0.865744 0.539352
vt 0.860581 0.524248
vt 0.867238 0.551445
vt 0.874439 0.552252
vt 0.868679 0.563061
vt 0.86283 0.560427
vt 0.861902 0.548744
vt 0.859127 0.557521
vt 0.876555 0.563242
vt 0.882678 0.551572
vt 0.884424 0.562761
vt 0.891805 0.549519
vt 0.893533 0.56107
vt 0.903599 0.546584
vt 0.901285 0.558473
vt 0.910916 0.541907
vt 0.909067 0.553379
vt 0.873016 0.539404
vt 0.883758 0.542232
vt 0.874279 0.523296
vt 0.887472 0.523272
vt 0.893037 0.52722
vt 0.893144 0.511323
vt 0.878326 0.510091
vt 0.874279 0.523296
vt 0.888605 0.503264
vt 0.897735 0.505105
vt 0.904163 0.52303
vt 0.908293 0.51755
vt 0.90404 0.510288
vt 0.8997 0.516103
vt 0.896677 0.533448
vt 0.880607 0.497412
vt 0.869875 0.506943
vt 0.874279 0.523296
vt 0.866568 0.525239
vt 0.911565 0.537864
vt 0.855957 0.510823
vt 0.862561 0.502367
vt 0.859288 0.507134
vt 0.868102 0.497225
vt 0.855957 0.510823
vt 0.859288 0.507134
vt 0.865744 0.539352
vt 0.860581 0.524248
vt 0.866568 0.525239
vt 0.861902 0.548744
vt 0.858192 0.545927
vt 0.856845 0.554451
vt 0.858289 0.564415
vt 0.86 0.568338
vt 0.863695 0.571325
vt 0.870023 0.573896
vt 0.878528 0.57349
vt 0.886051 0.573194
vt 0.895145 0.571842
vt 0.903766 0.567349
vt 0.911981 0.561871
vt 0.909584 0.547997
vt 0.912372 0.555249
vt 0.801811 0.541766
vt 0.798197 0.541449
vt 0.858192 0.545927
vt 0.86 0.568338
vt 0.865153 0.565755
vt 0.858289 0.564415
vt 0.8658 0.567661
vt 0.863695 0.571325
vt 0.868908 0.569215
vt 0.870023 0.573896
vt 0.873529 0.571285
vt 0.878528 0.57349
vt 0.879585 0.571625
vt 0.886051 0.573194
vt 0.885318 0.571446
vt 0.895145 0.571842
vt 0.892336 0.570818
vt 0.903766 0.567349
vt 0.898875 0.567932
vt 0.911981 0.561871
vt 0.904968 0.56387
vt 0.8658 0.567661
vt 0.866096 0.589989
vt 0.865153 0.565755
vt 0.866833 0.59216
vt 0.868908 0.569215
vt 0.870032 0.593997
vt 0.873529 0.571285
vt 0.874777 0.596458
vt 0.879585 0.571625
vt 0.880889 0.597002
vt 0.885318 0.571446
vt 0.886653 0.596952
vt 0.892336 0.570818
vt 0.893691 0.596429
vt 0.898875 0.567932
vt 0.900148 0.593344
vt 0.904968 0.56387
vt 0.906106 0.588918
vt 0.871999 0.620694
vt 0.871031 0.61799
vt 0.880477 0.626327
vt 0.875426 0.623095
vt 0.892537 0.62746
vt 0.886713 0.627266
vt 0.905819 0.623627
vt 0.899598 0.627129
vt 0.911408 0.618456
vt 0.858192 0.545927
vt 0.798197 0.541449
vt 0.856329 0.547914
vt 0.858174 0.548367
vt 0.860172 0.548858
vt 0.858192 0.545927
vt 0.860172 0.548858
vt 0.861902 0.548744
vt 0.861902 0.548744
vt 0.867238 0.551445
vt 0.845022 0.631137
vt 0.847515 0.652819
vt 0.847146 0.620582
vt 0.849723 0.642513
vt 0.855297 0.543778
vt 0.859288 0.507134
vt 0.868102 0.497225
vt 0.86472 0.511043
vt 0.874518 0.501939
vt 0.860581 0.524248
vt 0.859288 0.507134
vt 0.86472 0.511043
vt 0.860581 0.524248
vt 0.86472 0.511043
vt 0.866568 0.525239
vt 0.869875 0.506943
vt 0.874518 0.501939
vt 0.880607 0.497412
vt 0.866568 0.525239
vt 0.873016 0.539404
vt 0.866568 0.525239
vt 0.874279 0.523296
vt 0.910916 0.541907
vt 0.911565 0.537864
vt 0.909067 0.553379
vt 0.909584 0.547997
vt 0.827789 0.464532
vt 0.781758 0.448403
vt 0.827789 0.464532
vt 0.8301 0.455979
vt 0.827789 0.464532
vt 0.8301 0.455979
vt 0.827789 0.464532
vt 0.835092 0.4291
vt 0.826421 0.423823
vt 0.8301 0.455979
vt 0.835092 0.4291
vt 0.786755 0.412755
vt 0.826421 0.423823
vt 0.835092 0.4291
vt 0.711079 0.435397
vt 0.684137 0.434725
vt 0.689838 0.419057
vt 0.711079 0.435397
vt 0.689838 0.419057
vt 0.711995 0.411395
vt 0.69086 0.398623
vt 0.684137 0.434725
vt 0.685391 0.409883
vt 0.689838 0.419057
vt 0.69086 0.398623
vt 0.685441 0.425771
vt 0.649521 0.432734
vt 0.657924 0.405529
vt 0.686842 0.405304
vt 0.66081 0.393865
vt 0.657924 0.405529
vt 0.661552 0.408724
vt 0.66081 0.393865
vt 0.649521 0.432734
vn 0.5589098 -0.05116562 -0.8276485
vn 0.7684234 0.02530649 -0.6394414
vn 0.6401615 -0.3798189 -0.6677806
vn 0.300638 -0.5231097 -0.7974792
vn 0.9098051 -0.1268007 -0.3951915
vn 0.7764834 0.1693194 -0.6069635
vn 0.9562664 0.2253843 -0.1864312
vn 0.2216907 -0.3665876 -0.9035856
vn 0.5310307 -0.1612208 -0.831874
vn 0.300638 -0.5231097 -0.7974792
vn -0.1111998 -0.5512586 -0.8268909
vn -0.251952 -0.5323915 -0.8081334
vn -0.5108752 -0.4536267 -0.7302255
vn -0.6832122 -0.3868756 -0.6193129
vn -0.8815088 -0.2535309 -0.3983269
vn -0.9417829 -0.1904767 -0.2770624
vn -0.06967471 0.9132451 -0.4014084
vn -0.06825145 0.9136278 -0.4007817
vn -0.06905413 0.9146175 -0.3983798
vn -0.0712522 0.9131353 -0.4013813
vn -0.07266077 0.9133079 -0.4007358
vn -0.06729249 0.914206 -0.3996237
vn -0.06776568 0.9093475 -0.4104813
vn -0.06344056 0.9146656 -0.3992018
vn -0.06901614 0.9195215 -0.3869327
vn -0.07284331 0.915441 -0.3958052
vn -0.07152417 0.9158235 -0.3951602
vn -0.06999282 0.915967 -0.3951019
vn -0.0685406 0.9158341 -0.3956642
vn -0.06746898 0.9154394 -0.3967602
vn -0.06701528 0.9148558 -0.3981804
vn -0.7430068 0.2356253 0.6264357
vn -0.8054678 0.4637313 0.3690189
vn -0.9213326 0.1266968 0.3675515
vn -0.9275169 0.3645246 0.08266839
vn -0.5697413 0.5933276 0.5686451
vn -0.3082587 0.3280766 0.8929403
vn -0.154231 0.646168 0.7474488
vn 0.1224626 0.3323914 0.9351572
vn 0.18223 0.6450524 0.7420914
vn 0.5289512 0.2888398 0.7979864
vn 0.4720472 0.6152312 0.6313969
vn 0.811048 0.2409286 0.5330614
vn 0.7031876 0.5975906 0.3852436
vn 0.989546 0.1177685 0.08324276
vn 0.8703113 0.4842209 -0.08993549
vn -0.7464443 0.6547377 0.1189093
vn -0.6837772 0.7095892 -0.1700937
vn -0.8536929 0.4462092 -0.2685252
vn -0.497386 0.7523557 -0.4319352
vn -0.4072358 0.7352052 -0.5418785
vn -0.06824017 0.8739111 0.481272
vn -0.3335584 0.8597178 0.3868128
vn -0.6049135 0.7743254 0.1857413
vn 0.3293438 0.84655 0.4181934
vn 0.4803884 0.8539584 0.1999553
vn 0.7016036 0.7112123 0.04392398
vn -0.190295 0.7185335 -0.6689525
vn -0.09845101 0.7104277 -0.69685
vn 0.1610866 0.7129121 -0.682501
vn 0.3016139 0.5894891 -0.7493542
vn 0.4944253 0.4645114 -0.7346922
vn 0.1644797 0.8653684 0.4733751
vn 0.8039332 0.5946493 -0.009144032
vn 0.6205605 0.730478 -0.2851432
vn 0.8703113 0.4842209 -0.08993549
vn 0.7298744 0.4212286 -0.538377
vn 0.6012373 0.4341733 -0.670826
vn 0.5589098 -0.05116562 -0.8276485
vn 0.4944253 0.4645114 -0.7346922
vn 0.2682771 0.008910444 -0.9633005
vn 0.7764834 0.1693194 -0.6069635
vn 0.5836264 0.05570081 -0.8101097
vn 0.6012373 0.4341733 -0.670826
vn 0.6205605 0.730478 -0.2851432
vn 0.9098051 -0.1268007 -0.3951915
vn 0.9168138 0.3760466 -0.1343179
vn -0.9918253 -0.07551363 -0.1028595
vn -0.8934879 0.3239068 -0.3110685
vn -0.8815088 -0.2535309 -0.3983269
vn -0.9275169 0.3645246 0.08266839
vn -0.9213326 0.1266968 0.3675515
vn 0.4013362 -0.2974322 -0.8662928
vn 0.7031649 -0.4181448 -0.5750773
vn 0.5094026 -0.5501171 -0.661725
vn 0.1881532 -0.6587433 -0.7284612
vn 0.1694393 -0.4544358 -0.8745161
vn -0.1656774 -0.6157247 -0.7703467
vn 0.06840782 -0.650692 -0.7562542
vn 0.1881532 -0.6587433 -0.7284612
vn -0.2443999 -0.5863842 -0.7722837
vn -0.502281 -0.5031853 -0.70322
vn -0.673492 -0.4306145 -0.6008158
vn -0.116647 0.9204916 -0.3729457
vn -0.07596871 0.9295126 -0.3608812
vn -0.07824863 0.9177194 -0.389446
vn -0.1117304 0.9141091 -0.3897704
vn -0.07062569 0.914567 -0.3982199
vn -0.08024087 0.9231902 -0.375874
vn -0.06434917 0.9102108 -0.4091153
vn -0.05958471 0.9149844 -0.3990654
vn -0.06585325 0.9192492 -0.3881291
vn -0.07062481 0.9145672 -0.3982198
vn -0.07062542 0.9145663 -0.3982219
vn -0.07062368 0.9145668 -0.398221
vn -0.07062291 0.9145663 -0.3982221
vn -0.07930321 0.920339 -0.3829975
vn -0.08848758 0.9202774 -0.3811292
vn -0.8767319 -0.2843102 -0.3879547
vn -0.7719732 -0.2010123 -0.6030353
vn -0.502281 -0.5031853 -0.70322
vn -0.9226461 0.208081 -0.3246944
vn -0.9909441 -0.09059785 -0.09910421
vn -0.988077 0.1234539 0.09199394
vn -0.9212561 0.1269505 0.3676559
vn -0.8864803 0.2493721 0.3898284
vn -0.6361683 0.526086 0.5643788
vn -0.7430095 0.2407536 0.6244794
vn -0.8768244 0.4334053 -0.20818
vn -0.9729715 0.1652696 0.1612834
vn -0.7430095 0.2407536 0.6244794
vn -0.8864803 0.2493721 0.3898284
vn -0.9212561 0.1269505 0.3676559
vn -0.6361683 0.526086 0.5643788
vn -0.8267251 0.5309007 0.1861989
vn -0.9729715 0.1652696 0.1612834
vn -0.3915358 0.85051 0.3511872
vn -0.1539949 0.6476175 0.746242
vn -0.3081973 0.3331993 0.8910626
vn -0.7430095 0.2407536 0.6244794
vn 0.1224885 0.3314428 0.9354903
vn 0.1826361 0.6433005 0.743511
vn 0.5293096 0.2762684 0.8021889
vn 0.4397273 0.6138458 0.6556168
vn 0.7175533 0.2916456 0.632503
vn 0.6367016 0.6152951 0.464783
vn 0.9748988 0.137027 0.1754881
vn 0.884285 0.4591043 -0.085225
vn -0.0682394 0.8739101 0.481274
vn 0.1644818 0.8653672 0.4733764
vn 0.2968271 0.8354121 0.46258
vn 0.4683274 0.8542994 0.2254814
vn 0.7069001 0.7059121 0.04450108
vn 0.9034747 -0.1999876 -0.3791286
vn 0.9306018 0.3425094 -0.129103
vn 0.9748988 0.137027 0.1754881
vn 0.4683274 0.8542994 0.2254814
vn 0.8140965 0.5807182 -0.003634415
vn 0.6205601 0.7304752 -0.2851512
vn 0.5556605 0.5693135 -0.6059072
vn -0.988077 0.1234539 0.09199394
vn -0.9226461 0.208081 -0.3246944
vn -0.8768244 0.4334053 -0.20818
vn -0.6130897 0.6198562 -0.4897952
vn -0.7182932 0.2841463 -0.6350714
vn -0.225116 0.691967 -0.6859332
vn -0.4903647 0.6481118 -0.5826608
vn -0.6130897 0.6198562 -0.4897952
vn -0.09845297 0.7104262 -0.6968513
vn 0.1610827 0.7129145 -0.6824993
vn 0.3016125 0.589498 -0.7493477
vn 0.4252478 0.4426576 -0.7894419
vn 0.4717521 0.3904507 -0.7905683
vn 0.4136704 -0.17844 -0.8927687
vn 0.4252478 0.4426576 -0.7894419
vn 0.3642872 0.3203677 -0.8744481
vn 0.7500454 0.2477433 -0.6132333
vn 0.3885706 0.3315686 -0.8596948
vn 0.4717521 0.3904507 -0.7905683
vn 0.6205601 0.7304752 -0.2851512
vn 0.5094026 -0.5501171 -0.661725
vn 0.6954417 -0.07799419 -0.7143373
vn 0.9034747 -0.1999876 -0.3791286
vn 0.990606 -0.0501214 -0.1272308
vn -0.6192552 0.6453899 0.4472078
vn -0.8282464 0.3254107 0.4561973
vn -0.7311794 0.3249854 0.599801
vn -0.8012382 0.2705855 0.5336674
vn -0.8025502 0.5857452 0.1132068
vn -0.6575947 0.6943768 0.29225
vn -0.720359 0.6934398 -0.01497115
vn -0.6192552 0.6453899 0.4472078
vn -0.5323697 0.7969167 0.2854928
vn -0.2131556 0.8779502 0.4286817
vn -0.1136769 0.7297721 0.6741739
vn -0.07850737 0.8749018 0.4778948
vn 0.004075802 0.8789239 0.4769446
vn 0.1804946 0.7272311 0.662236
vn 0.1305179 0.4365809 0.8901473
vn -0.2948108 0.4314843 0.852589
vn -0.581129 0.6183137 0.5291287
vn -0.7311794 0.3249854 0.599801
vn 0.5291114 0.3878959 0.7547039
vn 0.4236164 0.7236107 0.544919
vn 0.8062775 0.3340643 0.488178
vn 0.6505442 0.6958503 0.304277
vn 0.9802536 0.1918878 0.04777122
vn 0.8122963 0.5757949 -0.0929237
vn 0.1949564 0.8845923 0.4236609
vn 0.3329169 0.8885148 0.3157657
vn 0.1052954 0.8756307 0.4713637
vn 0.2681149 0.8899572 0.3689043
vn 0.4421418 0.8705933 0.215819
vn 0.5086677 0.8563528 0.0889776
vn 0.6671095 0.7447974 -0.0155448
vn 0.8122963 0.5757949 -0.0929237
vn 0.5755853 0.8092244 -0.1177176
vn 0.6360611 0.6568949 -0.4048646
vn 0.8055499 0.4036716 -0.4337494
vn 0.6088536 0.2979138 -0.7352174
vn 0.9662042 0.03999358 -0.2546566
vn 0.8531402 0.5056074 -0.1285035
vn 0.8055499 0.4036716 -0.4337494
vn -0.090586 0.8375663 -0.5387736
vn -0.08573926 0.8438711 -0.5296513
vn -0.09372362 0.8384458 -0.5368654
vn -0.09058756 0.8375654 -0.5387747
vn -0.09058624 0.8375654 -0.538775
vn -0.0905815 0.8375642 -0.5387776
vn -0.09058021 0.8375652 -0.5387763
vn -0.07956953 0.8379832 -0.5398638
vn -0.08440764 0.8315936 -0.5489331
vn -0.08504034 0.8357376 -0.5425041
vn -0.09932081 0.8343605 -0.5421972
vn -0.107658 0.8375362 -0.5356707
vn -0.113774 0.8305709 -0.5451675
vn -0.1120087 0.8447048 -0.5233811
vn -0.09157478 0.8528464 -0.5140689
vn -0.9877567 0.1523066 0.03375249
vn -0.9975806 -0.025201 -0.06478906
vn -0.9821143 0.05969697 0.1785719
vn -0.9909768 0.000121047 0.1340335
vn -0.9624603 0.2614419 0.0729265
vn -0.9576951 0.05725646 -0.2820315
vn -0.9522409 0.2017215 -0.2292285
vn -0.5158011 0.6851861 0.5142657
vn -0.9624603 0.2614419 0.0729265
vn -0.7311793 0.3249851 0.5998012
vn -0.9821143 0.05969697 0.1785719
vn -0.2948094 0.4314842 0.8525894
vn -0.1095766 0.7303621 0.6742138
vn 0.1305156 0.4365816 0.8901473
vn 0.1947449 0.7168728 0.6694534
vn 0.5291095 0.3878957 0.7547052
vn 0.4316134 0.7074907 0.559613
vn 0.8062786 0.3340631 0.4881769
vn 0.6629568 0.6842383 0.3038193
vn 0.980701 0.1903591 0.04459834
vn 0.8440384 0.5200277 -0.1310356
vn 0.2159535 0.8649207 0.4530741
vn 0.1464064 0.8615089 0.4861764
vn 0.0172194 0.8754376 0.4830243
vn -0.06774325 0.8723928 0.4840884
vn -0.2031193 0.8826873 0.423799
vn -0.4551124 0.8332456 0.3139656
vn -0.7254964 0.6694205 0.1597848
vn -0.9054044 0.3617471 0.2222203
vn 0.2848546 0.8715577 0.3990552
vn 0.3538008 0.8736011 0.3341349
vn 0.4668765 0.8605251 0.2037714
vn 0.5545717 0.8305644 0.05111764
vn 0.7993876 0.5914831 -0.1054859
vn -0.9522409 0.2017215 -0.2292285
vn 0.8440384 0.5200277 -0.1310356
vn 0.644513 0.724887 -0.2431909
vn 0.7009961 0.5485278 -0.455765
vn 0.8416256 0.3482133 -0.4128121
vn 0.9680885 0.05831423 -0.2437294
vn 0.6469477 0.2737133 -0.7117161
vn 0.8795553 0.4435433 -0.1721969
vn -0.09058575 0.837566 -0.538774
vn -0.08573949 0.8438706 -0.5296518
vn -0.08906563 0.8377038 -0.5388134
vn -0.09058828 0.8375651 -0.538775
vn -0.09058352 0.8375646 -0.5387766
vn -0.09057872 0.8375649 -0.5387769
vn -0.09058139 0.8375665 -0.5387739
vn -0.09058236 0.8375649 -0.5387762
vn -0.07956957 0.837984 -0.5398625
vn -0.08440719 0.8315946 -0.5489315
vn -0.09058111 0.8375638 -0.5387783
vn -0.09156226 0.8375893 -0.5385726
vn -0.09106842 0.8379428 -0.5381063
vn -0.08998673 0.8380469 -0.5381263
vn -0.09048242 0.8376935 -0.5385931
vn 0.3832765 0.88004 -0.2804078
vn 0.4305565 0.8650829 -0.2573963
vn 0.4157751 0.8549051 -0.310271
vn 0.4783088 0.8488219 -0.2252158
vn 0.7613375 0.6483268 -0.00613626
vn 0.4783088 0.8488219 -0.2252158
vn 0.8373008 0.5456314 -0.03483707
vn 0.7013109 0.7128176 -0.007346065
vn 0.7613375 0.6483268 -0.00613626
vn 0.7614444 0.6120085 0.2136539
vn 0.5177665 0.8532935 -0.06170893
vn 0.7013109 0.7128176 -0.007346065
vn 0.7614444 0.6120085 0.2136539
vn 0.8205643 0.5335796 0.2048588
vn 0.7614444 0.6120085 0.2136539
vn 0.6243339 0.6563325 0.4235975
vn 0.635859 0.7438898 0.2056969
vn 0.7951754 0.3312435 0.5079111
vn 0.5813019 0.4003283 0.7083963
vn 0.4400194 0.6821143 0.5840403
vn 0.6797628 0.5973416 0.4255649
vn 0.8205643 0.5335796 0.2048588
vn 0.4871203 0.6376418 0.5967636
vn 0.2221141 0.6914315 0.6874503
vn 0.257737 0.6568445 0.7086093
vn 0.005257485 0.7052906 0.7088988
vn 0.007292446 0.6561768 0.754572
vn -0.2380839 0.7317874 0.6385949
vn -0.2769936 0.5831184 0.7637064
vn -0.4459634 0.7140145 0.5397222
vn -0.4906121 0.6523393 0.5777135
vn -0.705912 0.6227049 0.3375306
vn -0.7580511 0.4935041 0.4263944
vn -0.7786132 0.575779 0.2494796
vn -0.8689196 0.3098421 0.3859748
vn -0.9451631 0.1972666 0.2602932
vn -0.7572557 0.4288292 0.4926148
vn -0.4702051 0.5243644 0.7098938
vn -0.1871047 0.5070961 0.8413354
vn 0.08516128 0.4292334 0.8991697
vn 0.3266156 0.4305964 0.8413732
vn -0.6390017 0.1669765 0.7508633
vn -0.8304523 -0.01617271 0.5568549
vn -0.5992365 0.4454476 0.6652007
vn -0.3102161 0.5736092 0.7581149
vn -0.2628235 0.9355657 0.2358825
vn -0.4078147 0.9037898 0.1298123
vn -0.7235042 0.532922 0.438789
vn -0.5219741 0.8445779 -0.1192943
vn -0.08441518 0.9639454 0.2523553
vn -0.02253688 0.6145961 0.78852
vn 0.1421642 0.9620879 0.2327577
vn 0.2802768 0.6259313 0.727774
vn 0.3267913 0.9333475 0.1485594
vn 0.5418423 0.596762 0.5918462
vn 0.4562828 0.8896651 0.01737599
vn 0.7549882 0.523975 0.3942627
vn 0.5836909 0.8038775 -0.1143932
vn 0.8959545 0.4303552 0.1098176
vn -0.2758461 0.9539666 -0.1177145
vn -0.1938134 0.9807781 -0.02259901
vn -0.07822453 0.9969119 -0.006888181
vn 0.05893331 0.9978045 -0.03021703
vn 0.1916242 0.978838 -0.07180839
vn 0.2916767 0.9435876 -0.1567388
vn 0.3253506 0.9012178 -0.2862752
vn -0.2259479 0.9726412 0.05400729
vn -0.3621608 0.9321039 -0.004676241
vn -0.3760093 0.9024911 -0.2100639
vn -0.6286035 0.7419736 -0.2330936
vn -0.7993146 0.5988928 -0.04923053
vn -0.8119765 0.5347512 -0.2339557
vn -0.6782705 0.6516985 -0.3394678
vn -0.790371 0.4062831 -0.4585277
vn -0.6604304 0.5524612 -0.5085452
vn -0.705714 0.3023875 -0.6407259
vn -0.5818976 0.4726529 -0.6618114
vn -0.5223797 0.6921877 -0.4979916
vn -0.459854 0.6363266 -0.6193728
vn -0.4382294 0.4203964 -0.7944948
vn -0.3543677 0.5978557 -0.7190216
vn -0.2555119 0.3951424 -0.8823696
vn -0.2207722 0.5787143 -0.7850794
vn -0.06420367 0.3918373 -0.9177916
vn -0.07476271 0.5834422 -0.8087062
vn 0.1270792 0.4114985 -0.9025076
vn 0.06822274 0.6121751 -0.7877737
vn 0.3155515 0.4624257 -0.828607
vn 0.1854007 0.6591414 -0.7288066
vn 0.4721199 0.5681908 -0.6739895
vn 0.2905324 0.7185815 -0.6318477
vn 0.2163121 0.6304104 -0.7455145
vn 0.3250794 0.68605 -0.6508908
vn 0.1511914 0.7170545 -0.6804221
vn 0.2333036 0.7605123 -0.6059625
vn 0.05551768 0.8097898 -0.5840877
vn 0.1030157 0.8356456 -0.5395222
vn -0.08441982 0.8983019 -0.4311925
vn 0.1323662 0.865393 -0.4832951
vn -0.005461052 0.7903705 -0.6126047
vn -0.07394916 0.7792861 -0.62229
vn -0.1432605 0.7776123 -0.6122054
vn -0.2066168 0.7855229 -0.583321
vn -0.2577908 0.8022395 -0.5384755
vn -0.2917747 0.8261246 -0.4820639
vn -0.3052614 0.8548436 -0.4195924
vn -0.296916 0.885583 -0.3571886
vn -0.2675612 0.9153344 -0.3009549
vn -0.2200754 0.9411823 -0.2564037
vn -0.1590949 0.9606025 -0.2278854
vn -0.09059265 0.9716917 -0.2181928
vn -0.02128146 0.9733622 -0.2282827
vn 0.0420591 0.9654528 -0.2571612
vn 0.03152715 0.9967344 -0.07434192
vn 0.1383359 0.9824687 -0.1249731
vn 0.07819413 0.9960032 0.04316556
vn -0.07391921 0.9947768 0.07039207
vn -0.08600886 0.9947492 -0.05546428
vn -0.2027687 0.9767076 -0.07019328
vn -0.3073285 0.944373 -0.117085
vn -0.4702367 0.8767958 -0.1005316
vn -0.5051113 0.8283291 -0.2423497
vn -0.5335785 0.7608112 -0.3694053
vn -0.5642467 0.7438122 -0.3582863
vn -0.5412703 0.6790996 -0.4958329
vn -0.4712749 0.6248665 -0.6224483
vn -0.3622729 0.5859548 -0.7248552
vn -0.225003 0.5661411 -0.7930055
vn -0.07288951 0.5673671 -0.8202327
vn 0.07918052 0.5895118 -0.8038695
vn -0.2944786 0.6789609 -0.6725284
vn -0.1876665 0.6646934 -0.7231625
vn -0.07012747 0.6666818 -0.7420362
vn 0.04663837 0.6847266 -0.7273062
vn -0.3800998 0.7080828 -0.595099
vn -0.4361647 0.7492082 -0.498445
vn -0.4571741 0.7983091 -0.3920387
vn -0.4410725 0.8505849 -0.2862873
vn -0.5396886 0.8121525 -0.2216855
vn -0.3894388 0.9009157 -0.1915419
vn 0.9453356 0.2126679 0.2472107
vn 0.8373008 0.5456314 -0.03483707
vn 0.9980927 0.03094247 -0.05341713
vn 0.9610977 -0.118706 -0.2493994
vn 0.9980927 0.03094247 -0.05341713
vn 0.9521052 0.305578 -0.01084541
vn 0.9143621 -0.2151912 -0.3429791
vn 0.7789979 0.03712515 -0.6259265
vn 0.8580086 0.02224458 -0.5131536
vn 0.5058377 0.5937685 -0.6257533
vn 0.3810894 0.2324044 -0.8948514
vn 0.3326806 0.7727804 -0.5404944
vn 0.3948428 0.7509945 -0.5292508
vn 0.3154476 0.8491309 -0.4236384
vn 0.4187695 0.8188877 -0.3924985
vn 0.394521 0.8830754 -0.2540296
vn 0.3244707 0.9372778 -0.1273939
vn 0.2154712 0.9761905 -0.02498794
vn 0.223966 0.9533479 -0.2024032
vn 0.2800281 0.9122227 -0.2990556
vn 0.3010363 0.8631189 -0.4054661
vn 0.2849349 0.8108466 -0.5112143
vn 0.09322701 0.948738 -0.3020015
vn 0.1272228 0.9248501 -0.3584224
vn 0.1407091 0.8961289 -0.4208965
vn -0.6808796 0.686008 0.2565071
vn 0.1421691 0.2029901 -0.968805
vn 0.3810894 0.2324044 -0.8948514
vn 0.1270792 0.4114985 -0.9025076
vn 0.1270792 0.4114985 -0.9025076
vn 0.3810894 0.2324044 -0.8948514
vn 0.3155515 0.4624257 -0.828607
vn -0.09074636 0.1939204 -0.9768112
vn 0.1421691 0.2029901 -0.968805
vn -0.06420367 0.3918373 -0.9177916
vn 0.1270792 0.4114985 -0.9025076
vn -0.2555119 0.3951424 -0.8823696
vn -0.3340893 0.1978041 -0.9215519
vn -0.4382294 0.4203964 -0.7944948
vn -0.5497382 0.2350055 -0.8015985
vn -0.5818976 0.4726529 -0.6618114
vn -0.705714 0.3023875 -0.6407259
vn 0.6907455 0.6940807 -0.2027874
vn 0.6229768 0.7537047 -0.2093538
vn 0.7129017 0.6416437 -0.282957
vn 0.9424408 0.3274977 -0.06745771
vn 0.6229768 0.7537047 -0.2093538
vn 0.4249185 0.823333 -0.376254
vn 0.9750882 0.2088131 0.07483421
vn 0.994761 0.004665629 0.1021214
vn 0.8755522 0.4366567 0.2067343
vn 0.9455581 0.3187866 -0.06553707
vn 0.5381113 0.6609678 -0.5230275
vn 0.7129017 0.6416437 -0.282957
vn 0.4249185 0.823333 -0.376254
vn 0.7098376 0.5816581 -0.3972462
vn 0.8434191 -0.3224364 -0.4297431
vn 0.9143621 -0.2151912 -0.3429791
vn 0.8541112 -0.2964149 -0.4273548
vn 0.9610977 -0.118706 -0.2493994
vn 0.9064533 -0.3260198 -0.2684276
vn 0.9937063 -0.1080276 -0.02962985
vn 0.9323696 0.02820713 -0.3604043
vn 0.994761 0.004665629 0.1021214
vn 0.7789979 0.03712515 -0.6259265
vn 0.8065328 -0.4660778 -0.3636982
vn -0.7700665 0.1630178 0.6167841
vn -0.8304523 -0.01617271 0.5568549
vn -0.8689196 0.3098421 0.3859748
vn -0.8261017 -0.165191 0.5387651
vn 0.994761 0.004665629 0.1021214
vn 0.8959545 0.4303552 0.1098176
vn 0.9750882 0.2088131 0.07483421
vn -0.8304523 -0.01617271 0.5568549
vn -0.8261017 -0.165191 0.5387651
vn -0.6960767 -0.2429807 0.6756017
vn -0.7533312 -0.294954 0.5877874
vn -0.7580511 0.4935041 0.4263944
vn -0.8689196 0.3098421 0.3859748
vn -0.9050146 0.4252957 -0.008504539
vn -0.8504645 0.2717538 0.4504
vn -0.9945781 0.09142844 0.04955012
vn -0.8540328 0.2716077 0.4436861
vn -0.67184 0.658721 0.3386998
vn -0.5718349 0.3835954 0.7251617
vn -0.8540328 0.2716077 0.4436861
vn -0.3538883 0.8270922 0.4366711
vn -0.2752329 0.728228 0.6276392
vn -0.3516105 0.4202672 0.836508
vn -0.1647875 0.4310362 0.88716
vn -0.0987092 0.835901 0.5399315
vn 0.07944075 0.7263718 0.6826956
vn 0.102075 0.4198333 0.9018429
vn 0.3306264 0.3695944 0.8683813
vn 0.1855511 0.8137115 0.5508578
vn 0.438445 0.6414832 0.6294962
vn 0.6155172 0.244599 0.7492061
vn -0.03822124 0.9935476 0.1067814
vn 0.01115932 0.9977397 0.066266
vn 0.005500427 0.9981362 -0.06077737
vn -0.04451318 0.9977277 0.05057601
vn 0.005406715 0.9981383 -0.06075037
vn 0.005328087 0.998131 -0.06087828
vn -0.1065367 0.9922624 0.0637608
vn -0.1111767 0.9937611 -0.008866678
vn 0.004994249 0.9980988 -0.06143208
vn 0.004630897 0.9980781 -0.0617957
vn -0.1853749 0.980166 -0.07007812
vn 0.005666327 0.9981316 -0.06083752
vn 0.005597109 0.9981286 -0.06089374
vn 0.04953483 0.9915506 0.1198913
vn 0.06669813 0.9953862 0.06897668
vn 0.005518134 0.9981267 -0.06093154
vn 0.00541267 0.9981316 -0.06086065
vn 0.1550819 0.9829397 0.09889004
vn 0.1749806 0.9845493 0.006671445
vn 0.005091568 0.9981682 -0.06028421
vn 0.00519988 0.9981301 -0.06090364
vn 0.3018469 0.9477475 -0.1032627
vn 0.08510073 0.9918756 -0.09455426
vn 0.005084023 0.9981139 -0.06117848
vn 0.005422584 0.9981521 -0.06052205
vn 0.005345381 0.9981487 -0.06058562
vn 0.005417871 0.9981443 -0.06065068
vn 0.005477039 0.9981434 -0.06066134
vn 0.005485097 0.998144 -0.06065046
vn 0.005481033 0.9981436 -0.0606592
vn 0.005476511 0.9981444 -0.06064344
vn 0.005438324 0.9981426 -0.06067895
vn 0.005450187 0.9981249 -0.06096658
vn 0.00540846 0.9981467 -0.06061378
vn 0.005010425 0.9981126 -0.06120614
vn -0.1727078 0.9783444 -0.1140794
vn 0.01553268 0.9993777 -0.03166831
vn 0.005360279 0.9981451 -0.06064288
vn 0.005416991 0.9981421 -0.06068866
vn 0.005455515 0.998143 -0.06067114
vn 0.005452931 0.9981405 -0.06071103
vn -0.1483639 0.9810274 -0.1247936
vn -0.4187609 0.8920757 -0.1698245
vn -0.5338221 0.8431494 0.06429001
vn 0.3463014 0.9305543 -0.1189288
vn 0.4282977 0.9023546 0.04813723
vn -0.3277874 0.9444755 -0.02283741
vn -0.4881718 0.806545 0.3334268
vn 0.5766086 0.7913614 0.2031495
vn 0.4107102 0.8348014 0.3666385
vn 0.438445 0.6414832 0.6294962
vn 0.4018534 0.7064484 0.5826187
vn 0.3257752 0.7840191 0.5283793
vn 0.4803843 0.5586501 0.676122
vn 0.735265 0.1642549 0.6575755
vn 0.5491768 0.7188112 0.4262807
vn 0.735265 0.1642549 0.6575755
vn 0.5137246 0.4415248 0.7356242
vn 0.7367603 0.1393291 0.6616433
vn 0.9358676 0.02130878 0.3517069
vn 0.735265 0.1642549 0.6575755
vn 0.735265 0.1642549 0.6575755
vn 0.880226 0.3699394 0.2972323
vn 0.9222026 0.04596715 0.3839652
vn 0.9358676 0.02130878 0.3517069
vn 0.9880356 -0.06410812 0.1402706
vn 0.9222026 0.04596715 0.3839652
vn 0.98985 -0.06553552 0.1261032
vn -0.1384533 0.926966 -0.3486616
vn -0.08804777 0.7033153 -0.7054041
vn -0.3101654 0.7947025 -0.5217715
vn -0.5390368 0.4467329 -0.7140513
vn -0.2312636 0.9598768 0.1585994
vn -0.3318634 0.8576742 -0.3927615
vn -0.1807931 0.9462234 0.2682819
vn -0.2106353 0.6788664 0.7034011
vn -0.178504 0.5994655 0.7802418
vn -0.1929457 0.1066108 0.9754005
vn -0.1122922 -0.04895019 0.9924689
vn -0.2356942 0.676631 0.6975806
vn -0.4070838 0.8823248 0.2361905
vn -0.4253272 0.7832239 -0.4534942
vn -0.1560548 0.6921906 0.704641
vn -0.288449 0.9141883 0.2847053
vn -0.2468562 0.9669209 0.06423404
vn -0.2997173 0.09309621 0.9494749
vn -0.245956 0.1094325 0.9630837
vn -0.1965006 0.3947593 0.8975258
vn -0.1640098 0.6284641 0.7603511
vn -0.1744637 0.9017473 0.3954923
vn -0.4445256 0.3667322 0.8172543
vn -0.1893148 0.594047 0.7818364
vn -0.4342687 0.6571713 0.6160654
vn -0.6903166 0.5502913 0.469726
vn -0.6891803 0.2281083 0.6877478
vn -0.8616404 0.3950548 0.3186023
vn -0.159971 0.688354 0.7075154
vn 0.01590283 0.6796515 0.7333627
vn 0.02645231 0.6954236 0.718113
vn 0.1581338 0.6568241 0.7372759
vn 0.2587866 0.6607332 0.7046
vn 0.5640315 0.5076799 0.6512524
vn 0.6432863 0.445475 0.6226835
vn 0.9263267 0.2003293 0.3190407
vn 0.9160217 0.2186065 0.3363262
vn 0.08270501 0.6386917 0.765005
vn 0.04090862 0.6693344 0.7418342
vn 0.2316925 0.8961427 0.3784796
vn 0.1077376 0.9498455 0.2935747
vn 0.3829144 0.8158906 0.4332424
vn 0.3606312 0.8627473 -0.3544184
vn 0.2262577 0.92224 -0.3134977
vn 0.1609707 0.9406496 0.2987751
vn 0.2523177 0.7345052 -0.6299507
vn 0.53542 0.6100792 -0.5840623
vn 0.8709453 0.4714392 0.1385617
vn 0.9743687 0.2146803 -0.06721628
vn 0.8449434 0.4487307 -0.2910521
vn 0.7280753 0.6800315 -0.08639134
vn 0.4367298 0.6642898 0.6066188
vn 0.4459679 0.7991964 -0.4029862
vn 0.4167905 0.8983939 -0.1384705
vn 0.2316925 0.8961427 0.3784796
vn 0.5099565 0.782903 0.3563809
vn 0.990203 -0.1134528 0.08140332
vn -0.4752989 0.7168496 -0.5101154
vn -0.5390368 0.4467329 -0.7140513
vn -0.7964197 0.384387 -0.4668644
vn -0.679854 0.2912404 -0.6730361
vn -0.5818087 0.7655226 -0.2747249
vn -0.7393842 0.5798787 -0.3421278
vn -0.1640098 0.6284641 0.7603511
vn -0.4519393 0.8384423 0.3045741
vn -0.6825114 0.6784306 0.2718638
vn -0.731913 0.3487354 0.5853949
vn -0.8390845 0.2388752 0.4887492
vn -0.9037336 0.3259074 0.2775786
vn -0.9229698 0.2953059 0.2468225
vn -0.836206 0.427997 0.3428966
vn -0.6289924 0.5844166 0.5126653
vn -0.3215941 0.6809956 0.6578922
vn -0.1093548 0.6859457 0.7193886
vn 0.0399521 0.6987485 0.7142509
vn 0.4062191 0.646597 0.6456766
vn 0.6513053 0.5396954 0.5334138
vn 0.9142353 0.3801132 0.1403127
vn 0.9958348 0.09067578 0.009530588
vn 0.9497556 0.3119433 -0.02560711
vn -0.0730574 -0.1789431 0.9811432
vn -0.1122922 -0.04895019 0.9924689
vn -0.1980116 -0.3254113 0.9246075
vn -0.08404306 -0.7405275 0.6667502
vn -0.09168332 -0.7625857 0.6403572
vn -0.07786348 -0.7541578 0.6520608
vn -0.07051954 -0.7195668 0.6908333
vn -0.04843849 -0.6919367 0.7203315
vn -0.03214909 -0.6925732 0.7206309
vn 0.02786082 -0.6691766 0.742581
vn 0.05128776 -0.6168298 0.7854239
vn 0.08469986 -0.5583271 0.8252859
vn 0.06197044 -0.5272237 0.8474638
vn 0.09739031 -0.5266157 0.8445063
vn 0.1052511 -0.508188 0.8547907
vn 0.1681938 -0.5228062 0.8356941
vn 0.2095248 -0.5404295 0.8148836
vn 0.2685586 -0.5979586 0.7551965
vn 0.2756388 -0.627546 0.7281548
vn 0.2834922 -0.6494897 0.705546
vn 0.2834881 -0.6494988 0.7055393
vn -0.8461966 0.4904934 0.2082493
vn -0.9425217 0.2793021 0.1834208
vn -0.9391156 0.3199104 0.1253758
vn -0.8044419 0.4579606 0.3783454
vn -0.5619339 0.7534637 0.3413542
vn -0.5735683 0.5974254 0.5604483
vn -0.4365732 0.8135813 0.3840432
vn -0.3852766 0.6679192 0.6367462
vn -0.1775306 0.884694 0.4310445
vn -0.1365801 0.705837 0.6950828
vn -0.08855028 0.8926907 0.4418847
vn -0.04206797 0.7087167 0.7042379
vn 0.1014815 0.8891478 0.4462261
vn 0.2249943 0.6884297 0.6895232
vn 0.4445302 0.8001207 0.4027403
vn 0.5438085 0.5974497 0.5893439
vn 0.5722926 0.7340194 0.3656455
vn 0.6482631 0.4883319 0.5841978
vn -0.7160566 0.3307819 0.6146919
vn -0.9393443 0.1671321 0.2994983
vn -0.2764256 0.4396646 0.8545665
vn -0.5368255 0.3925268 0.7468207
vn 0.01467008 0.4504797 0.892666
vn -0.07336061 0.4522455 0.8888714
vn 0.6018497 0.3613811 0.7121661
vn 0.3383222 0.423288 0.8404555
vn 0.6561496 0.3433028 0.67202
vn -0.1980116 -0.3254113 0.9246075
vn -0.1122922 -0.04895019 0.9924689
vn -0.1929457 0.1066108 0.9754005
vn -0.245956 0.1094325 0.9630837
vn -0.2997173 0.09309621 0.9494749
vn -0.5452247 -0.07080482 0.8352944
vn -0.2997173 0.09309621 0.9494749
vn -0.6891803 0.2281083 0.6877478
vn -0.6348801 0.1522581 0.7574593
vn -0.4445256 0.3667322 0.8172543
vn -0.993862 0.09369911 0.05881128
vn -0.9945781 0.09142844 0.04955012
vn -0.9826162 -0.01895321 -0.184679
vn -0.9826978 -0.01862617 -0.1842776
vn -0.8879501 0.3449889 0.3041833
vn 0.6381217 0.764699 -0.08964364
vn 0.6223528 0.7365417 -0.2649215
vn 0.6158284 0.7717395 -0.1586618
vn 0.562256 0.7735832 -0.2922964
vn -0.005727774 0.9443305 0.3289484
vn 0.3567598 0.9340197 -0.01815789
vn 0.6158284 0.7717395 -0.1586618
vn -0.5589625 0.7976183 0.2266403
vn -0.7449536 0.5207462 -0.4169743
vn -0.7990577 0.6010939 0.01388822
vn -0.7200507 0.3853739 -0.5770736
vn -0.6227619 0.2751282 -0.7324427
vn -0.6104573 0.2804166 -0.7407486
vn -0.08480193 0.6006091 0.7950329
vn 0.08270501 0.6386917 0.765005
vn 0.3563714 0.7435364 0.5658208
vn 0.2847154 0.8350855 0.4707117
vn 0.9263267 0.2003293 0.3190407
vn 0.990203 -0.1134528 0.08140332
vn 0.9160217 0.2186065 0.3363262
vn 0.9958348 0.09067578 0.009530588
vn 0.312791 0.3580685 0.8797436
vn 0.312791 0.3580685 0.8797436
vn 0.312791 0.3580685 0.8797436
vn 0.9776768 -0.1365245 0.1597155
vn 0.9750882 0.2088131 0.07483421
vn 0.9853373 0.03566252 0.1668493
vn 0.9505364 -0.1841129 0.2501661
vn 0.7142629 -0.6084364 0.345881
vn 0.3009405 -0.8673998 0.3962985
vn 0.8241608 -0.4666056 0.3209957
vn 0.7142629 -0.6084364 0.345881
vn 0.4013749 0.5847733 -0.7049385
vn 0.5758497 0.2795931 -0.7682609
vn 0.1319588 -0.01524046 -0.991138
vn 0.05961591 0.4958261 0.8663732
vn 0.05961591 0.4958261 0.8663732
vn 0.05961591 0.4958261 0.8663732
vn 0.8163965 0.5430522 -0.1964461
vn 0.819851 0.5408874 -0.1878435
vn 0.819851 0.5408874 -0.1878435
vn 0.8232312 0.5386736 -0.1792238
vn -0.922287 0.3704424 -0.1102678
vn -0.92229 0.370438 -0.110258
vn -0.92229 0.370438 -0.110258
vn -0.9222929 0.3704336 -0.1102483
vn 0.2609663 0.9592047 0.1087333
vn -0.0328004 0.8640826 0.5022802
vn 0.3484572 0.9352074 -0.06296642
vn 0.4796265 0.8110391 -0.3349237
vn 0.4695179 0.8072577 -0.3576145
vn -0.9602 0.07996813 -0.2676211
vn -0.9602 0.07996813 -0.2676211
vn -0.984885 0.06903552 -0.1588572
vn -0.9234563 0.08989645 -0.3730241
g GVG_Rocket_Large_0
f 3/3/3 2/2/2 1/1/1
f 3/3/3 1/1/1 4/4/4
f 5/5/5 2/2/2 3/3/3
f 5/5/5 7/7/7 6/6/6
f 10/10/10 9/9/9 8/8/8
f 10/10/10 8/8/8 11/11/11
f 11/11/11 8/8/8 12/12/12
f 11/11/11 12/12/12 13/13/13
f 13/13/13 12/12/12 14/14/14
f 13/13/13 14/14/14 15/15/15
f 15/15/15 14/14/14 16/16/16
f 19/19/19 18/18/18 17/17/17
f 19/19/19 17/17/17 20/20/20
f 19/19/19 20/20/20 21/21/21
f 19/19/19 22/22/22 18/18/18
f 19/19/19 21/21/21 23/23/23
f 19/19/19 23/23/23 24/24/24
f 19/19/19 24/24/24 25/25/25
f 19/19/19 25/25/25 26/26/26
f 19/19/19 26/26/26 27/27/27
f 19/19/19 27/27/27 28/28/28
f 19/19/19 28/28/28 29/29/29
f 19/19/19 29/29/29 30/30/30
f 19/19/19 30/30/30 31/31/31
f 19/19/19 31/31/31 22/22/22
f 34/34/34 33/33/33 32/32/32
f 34/34/34 35/35/35 33/33/33
f 32/32/32 33/33/33 36/36/36
f 32/32/32 36/36/36 37/37/37
f 37/37/37 36/36/36 38/38/38
f 37/37/37 38/38/38 39/39/39
f 39/39/39 38/38/38 40/40/40
f 39/39/39 40/40/40 41/41/41
f 41/41/41 40/40/40 42/42/42
f 41/41/41 42/42/42 43/43/43
f 43/43/43 42/42/42 44/44/44
f 43/43/43 44/44/44 45/45/45
f 45/45/45 44/44/44 46/46/46
f 47/47/47 33/33/33 35/35/35
f 47/47/47 35/35/35 48/48/48
f 48/48/48 35/35/35 49/49/49
f 48/48/48 49/49/49 50/50/50
f 50/50/50 49/49/49 51/51/51
f 52/52/52 40/40/40 38/38/38
f 52/52/52 38/38/38 53/53/53
f 53/53/53 38/38/38 36/36/36
f 53/53/53 36/36/36 54/54/54
f 54/54/54 33/33/33 47/47/47
f 54/54/54 36/36/36 33/33/33
f 55/55/55 44/44/44 42/42/42
f 56/56/56 44/44/44 55/55/55
f 56/56/56 57/57/57 44/44/44
f 50/50/50 51/51/51 58/58/58
f 58/58/58 51/51/51 59/59/59
f 58/58/58 59/59/59 60/60/60
f 60/60/60 59/59/59 61/61/61
f 60/60/60 61/61/61 62/62/62
f 55/55/55 42/42/42 63/63/63
f 63/63/63 40/40/40 52/52/52
f 63/63/63 42/42/42 40/40/40
f 65/65/65 64/64/64 56/56/56
f 65/65/65 67/67/67 66/66/66
f 70/70/70 69/69/69 68/68/68
f 70/70/70 71/71/71 69/69/69
f 74/74/74 73/73/73 72/72/72
f 74/74/74 72/72/72 75/75/75
f 45/45/45 77/77/77 76/76/76
f 80/80/80 79/79/79 78/78/78
f 78/78/78 79/79/79 81/81/81
f 78/78/78 81/81/81 82/82/82
f 85/85/85 84/84/84 83/83/83
f 85/85/85 83/83/83 86/86/86
f 86/86/86 83/83/83 87/87/87
f 90/90/90 89/89/89 88/88/88
f 88/88/88 89/89/89 91/91/91
f 88/88/88 91/91/91 92/92/92
f 92/92/92 91/91/91 93/93/93
f 96/96/96 95/95/95 94/94/94
f 96/96/96 94/94/94 97/97/97
f 96/96/96 97/97/97 98/98/98
f 96/96/96 99/99/99 95/95/95
f 96/96/96 98/98/98 100/100/100
f 96/96/96 100/100/100 101/101/101
f 96/96/96 101/101/101 102/102/102
f 96/96/96 102/102/102 103/103/103
f 96/96/96 103/103/103 104/104/104
f 96/96/96 104/104/104 105/105/105
f 96/96/96 105/105/105 106/106/106
f 96/96/96 106/106/106 107/107/107
f 96/96/96 107/107/107 108/108/108
f 96/96/96 108/108/108 99/99/99
f 111/111/111 110/110/110 109/109/109
f 109/109/109 110/110/110 112/112/112
f 109/109/109 112/112/112 113/113/113
f 113/113/113 112/112/112 114/114/114
f 113/113/113 114/114/114 115/115/115
f 115/115/115 114/114/114 116/116/116
f 118/118/118 116/116/116 117/117/117
f 120/120/120 114/114/114 119/119/119
f 123/123/123 122/122/122 121/121/121
f 125/125/125 124/124/124 122/122/122
f 125/125/125 122/122/122 126/126/126
f 127/127/127 124/124/124 125/125/125
f 127/127/127 128/128/128 124/124/124
f 129/129/129 124/124/124 128/128/128
f 130/130/130 124/124/124 129/129/129
f 129/129/129 128/128/128 131/131/131
f 131/131/131 128/128/128 132/132/132
f 131/131/131 132/132/132 133/133/133
f 133/133/133 132/132/132 134/134/134
f 133/133/133 134/134/134 135/135/135
f 135/135/135 134/134/134 136/136/136
f 135/135/135 136/136/136 137/137/137
f 137/137/137 136/136/136 138/138/138
f 139/139/139 128/128/128 127/127/127
f 139/139/139 132/132/132 128/128/128
f 140/140/140 132/132/132 139/139/139
f 140/140/140 134/134/134 132/132/132
f 141/141/141 134/134/134 140/140/140
f 141/141/141 136/136/136 134/134/134
f 142/142/142 136/136/136 141/141/141
f 142/142/142 143/143/143 136/136/136
f 146/146/146 145/145/145 144/144/144
f 149/149/149 148/148/148 147/147/147
f 149/149/149 150/150/150 148/148/148
f 126/126/126 122/122/122 151/151/151
f 153/153/153 151/151/151 152/152/152
f 153/153/153 152/152/152 154/154/154
f 154/154/154 152/152/152 155/155/155
f 158/158/158 157/157/157 156/156/156
f 156/156/156 157/157/157 159/159/159
f 156/156/156 159/159/159 160/160/160
f 160/160/160 159/159/159 161/161/161
f 160/160/160 161/161/161 162/162/162
f 165/165/165 164/164/164 163/163/163
f 165/165/165 166/166/166 164/164/164
f 169/169/169 168/168/168 167/167/167
f 169/169/169 167/167/167 170/170/170
f 173/173/173 172/172/172 171/171/171
f 173/173/173 174/174/174 172/172/172
f 177/177/177 176/176/176 175/175/175
f 178/178/178 176/176/176 177/177/177
f 179/179/179 175/175/175 176/176/176
f 181/181/181 180/180/180 179/179/179
f 183/183/183 182/182/182 181/181/181
f 183/183/183 184/184/184 182/182/182
f 184/184/184 185/185/185 182/182/182
f 186/186/186 185/185/185 184/184/184
f 186/186/186 187/187/187 185/185/185
f 187/187/187 188/188/188 185/185/185
f 189/189/189 185/185/185 188/188/188
f 190/190/190 185/185/185 189/189/189
f 190/190/190 191/191/191 185/185/185
f 192/192/192 191/191/191 190/190/190
f 189/189/189 188/188/188 193/193/193
f 193/193/193 188/188/188 194/194/194
f 193/193/193 194/194/194 195/195/195
f 195/195/195 194/194/194 196/196/196
f 195/195/195 196/196/196 197/197/197
f 197/197/197 196/196/196 198/198/198
f 199/199/199 194/194/194 188/188/188
f 200/200/200 196/196/196 194/194/194
f 201/201/201 199/199/199 188/188/188
f 201/201/201 188/188/188 187/187/187
f 202/202/202 194/194/194 199/199/199
f 202/202/202 200/200/200 194/194/194
f 203/203/203 196/196/196 200/200/200
f 203/203/203 204/204/204 196/196/196
f 204/204/204 205/205/205 196/196/196
f 207/207/207 206/206/206 204/204/204
f 207/207/207 208/208/208 206/206/206
f 208/208/208 209/209/209 206/206/206
f 210/210/210 209/209/209 208/208/208
f 197/197/197 212/212/212 211/211/211
f 211/211/211 212/212/212 213/213/213
f 216/216/216 215/215/215 214/214/214
f 216/216/216 214/214/214 217/217/217
f 216/216/216 217/217/217 218/218/218
f 216/216/216 218/218/218 219/219/219
f 216/216/216 219/219/219 220/220/220
f 216/216/216 221/221/221 215/215/215
f 216/216/216 222/222/222 221/221/221
f 216/216/216 223/223/223 222/222/222
f 216/216/216 224/224/224 223/223/223
f 216/216/216 225/225/225 224/224/224
f 216/216/216 226/226/226 225/225/225
f 216/216/216 227/227/227 226/226/226
f 216/216/216 220/220/220 228/228/228
f 216/216/216 228/228/228 227/227/227
f 231/231/231 230/230/230 229/229/229
f 232/232/232 230/230/230 231/231/231
f 234/234/234 233/233/233 230/230/230
f 235/235/235 229/229/229 234/234/234
f 238/238/238 237/237/237 236/236/236
f 239/239/239 237/237/237 238/238/238
f 238/238/238 236/236/236 240/240/240
f 240/240/240 236/236/236 241/241/241
f 240/240/240 241/241/241 242/242/242
f 242/242/242 241/241/241 243/243/243
f 242/242/242 243/243/243 244/244/244
f 244/244/244 243/243/243 245/245/245
f 244/244/244 245/245/245 246/246/246
f 246/246/246 245/245/245 247/247/247
f 246/246/246 247/247/247 248/248/248
f 248/248/248 247/247/247 249/249/249
f 250/250/250 245/245/245 243/243/243
f 251/251/251 250/250/250 243/243/243
f 251/251/251 243/243/243 252/252/252
f 252/252/252 243/243/243 241/241/241
f 253/253/253 252/252/252 241/241/241
f 253/253/253 241/241/241 254/254/254
f 254/254/254 241/241/241 236/236/236
f 255/255/255 254/254/254 236/236/236
f 255/255/255 236/236/236 256/256/256
f 256/256/256 236/236/236 257/257/257
f 258/258/258 245/245/245 250/250/250
f 258/258/258 259/259/259 245/245/245
f 259/259/259 247/247/247 245/245/245
f 260/260/260 247/247/247 259/259/259
f 260/260/260 261/261/261 247/247/247
f 261/261/261 262/262/262 247/247/247
f 263/263/263 256/256/256 237/237/237
f 265/265/265 264/264/264 261/261/261
f 265/265/265 266/266/266 264/264/264
f 266/266/266 267/267/267 264/264/264
f 268/268/268 264/264/264 267/267/267
f 269/269/269 267/267/267 266/266/266
f 248/248/248 270/270/270 268/268/268
f 273/273/273 272/272/272 271/271/271
f 273/273/273 271/271/271 274/274/274
f 273/273/273 274/274/274 275/275/275
f 273/273/273 275/275/275 276/276/276
f 273/273/273 276/276/276 277/277/277
f 273/273/273 277/277/277 278/278/278
f 273/273/273 279/279/279 272/272/272
f 273/273/273 280/280/280 279/279/279
f 273/273/273 281/281/281 280/280/280
f 273/273/273 282/282/282 281/281/281
f 273/273/273 283/283/283 282/282/282
f 273/273/273 284/284/284 283/283/283
f 273/273/273 285/285/285 284/284/284
f 273/273/273 278/278/278 285/285/285
f 288/288/288 287/287/287 286/286/286
f 289/289/289 287/287/287 288/288/288
f 289/289/289 290/290/290 287/287/287
f 293/293/293 292/292/292 291/291/291
f 296/296/296 295/295/295 294/294/294
f 299/299/299 298/298/298 297/297/297
f 302/302/302 301/301/301 300/300/300
f 301/301/301 303/303/303 300/300/300
f 301/301/301 304/304/304 303/303/303
f 305/305/305 304/304/304 301/301/301
f 306/306/306 305/305/305 301/301/301
f 306/306/306 301/301/301 307/307/307
f 308/308/308 305/305/305 306/306/306
f 308/308/308 309/309/309 305/305/305
f 310/310/310 309/309/309 308/308/308
f 310/310/310 311/311/311 309/309/309
f 312/312/312 311/311/311 310/310/310
f 312/312/312 313/313/313 311/311/311
f 314/314/314 313/313/313 312/312/312
f 314/314/314 315/315/315 313/313/313
f 316/316/316 315/315/315 314/314/314
f 316/316/316 317/317/317 315/315/315
f 318/318/318 317/317/317 316/316/316
f 318/318/318 319/319/319 317/317/317
f 320/320/320 319/319/319 318/318/318
f 319/319/319 321/321/321 317/317/317
f 317/317/317 321/321/321 322/322/322
f 317/317/317 322/322/322 315/315/315
f 315/315/315 322/322/322 323/323/323
f 315/315/315 323/323/323 313/313/313
f 313/313/313 323/323/323 324/324/324
f 313/313/313 324/324/324 311/311/311
f 311/311/311 324/324/324 325/325/325
f 311/311/311 325/325/325 309/309/309
f 309/309/309 325/325/325 326/326/326
f 309/309/309 326/326/326 305/305/305
f 305/305/305 326/326/326 304/304/304
f 327/327/327 318/318/318 316/316/316
f 328/328/328 318/318/318 327/327/327
f 329/329/329 328/328/328 327/327/327
f 329/329/329 327/327/327 330/330/330
f 331/331/331 329/329/329 330/330/330
f 332/332/332 329/329/329 331/331/331
f 332/332/332 333/333/333 329/329/329
f 334/334/334 333/333/333 332/332/332
f 331/331/331 330/330/330 335/335/335
f 335/335/335 330/330/330 336/336/336
f 335/335/335 336/336/336 337/337/337
f 337/337/337 336/336/336 338/338/338
f 337/337/337 338/338/338 339/339/339
f 339/339/339 338/338/338 340/340/340
f 339/339/339 340/340/340 341/341/341
f 341/341/341 340/340/340 342/342/342
f 341/341/341 342/342/342 343/343/343
f 343/343/343 342/342/342 344/344/344
f 345/345/345 334/334/334 332/332/332
f 346/346/346 332/332/332 331/331/331
f 345/345/345 332/332/332 346/346/346
f 347/347/347 331/331/331 335/335/335
f 346/346/346 331/331/331 347/347/347
f 348/348/348 335/335/335 337/337/337
f 347/347/347 335/335/335 348/348/348
f 349/349/349 337/337/337 339/339/339
f 348/348/348 337/337/337 349/349/349
f 350/350/350 339/339/339 341/341/341
f 349/349/349 339/339/339 350/350/350
f 351/351/351 341/341/341 343/343/343
f 350/350/350 341/341/341 351/351/351
f 352/352/352 345/345/345 346/346/346
f 353/353/353 345/345/345 352/352/352
f 353/353/353 354/354/354 345/345/345
f 354/354/354 334/334/334 345/345/345
f 354/354/354 355/355/355 334/334/334
f 355/355/355 356/356/356 334/334/334
f 355/355/355 357/357/357 356/356/356
f 358/358/358 357/357/357 355/355/355
f 358/358/358 359/359/359 357/357/357
f 360/360/360 359/359/359 358/358/358
f 360/360/360 361/361/361 359/359/359
f 362/362/362 361/361/361 360/360/360
f 363/363/363 362/362/362 360/360/360
f 364/364/364 362/362/362 363/363/363
f 364/364/364 365/365/365 362/362/362
f 366/366/366 365/365/365 364/364/364
f 366/366/366 367/367/367 365/365/365
f 368/368/368 367/367/367 366/366/366
f 368/368/368 369/369/369 367/367/367
f 370/370/370 369/369/369 368/368/368
f 370/370/370 371/371/371 369/369/369
f 372/372/372 371/371/371 370/370/370
f 372/372/372 373/373/373 371/371/371
f 374/374/374 373/373/373 372/372/372
f 374/374/374 375/375/375 373/373/373
f 376/376/376 375/375/375 374/374/374
f 377/377/377 376/376/376 374/374/374
f 378/378/378 376/376/376 377/377/377
f 379/379/379 378/378/378 377/377/377
f 380/380/380 378/378/378 379/379/379
f 381/381/381 380/380/380 379/379/379
f 382/382/382 380/380/380 381/381/381
f 383/383/383 382/382/382 381/381/381
f 383/383/383 384/384/384 382/382/382
f 383/383/383 381/381/381 385/385/385
f 381/381/381 379/379/379 385/385/385
f 383/383/383 385/385/385 386/386/386
f 383/383/383 386/386/386 387/387/387
f 383/383/383 387/387/387 388/388/388
f 383/383/383 388/388/388 389/389/389
f 383/383/383 389/389/389 390/390/390
f 383/383/383 390/390/390 391/391/391
f 383/383/383 391/391/391 392/392/392
f 383/383/383 392/392/392 393/393/393
f 383/383/383 393/393/393 394/394/394
f 383/383/383 394/394/394 395/395/395
f 383/383/383 395/395/395 396/396/396
f 383/383/383 396/396/396 397/397/397
f 383/383/383 397/397/397 398/398/398
f 397/397/397 399/399/399 398/398/398
f 398/398/398 399/399/399 400/400/400
f 399/399/399 401/401/401 400/400/400
f 399/399/399 402/402/402 401/401/401
f 402/402/402 347/347/347 401/401/401
f 402/402/402 346/346/346 347/347/347
f 352/352/352 346/346/346 402/402/402
f 403/403/403 352/352/352 402/402/402
f 397/397/397 403/403/403 399/399/399
f 403/403/403 402/402/402 399/399/399
f 396/396/396 403/403/403 397/397/397
f 404/404/404 352/352/352 403/403/403
f 396/396/396 404/404/404 403/403/403
f 395/395/395 404/404/404 396/396/396
f 404/404/404 353/353/353 352/352/352
f 405/405/405 353/353/353 404/404/404
f 395/395/395 405/405/405 404/404/404
f 394/394/394 405/405/405 395/395/395
f 405/405/405 406/406/406 353/353/353
f 406/406/406 354/354/354 353/353/353
f 406/406/406 407/407/407 354/354/354
f 407/407/407 355/355/355 354/354/354
f 407/407/407 358/358/358 355/355/355
f 408/408/408 358/358/358 407/407/407
f 408/408/408 360/360/360 358/358/358
f 363/363/363 360/360/360 408/408/408
f 409/409/409 363/363/363 408/408/408
f 410/410/410 363/363/363 409/409/409
f 410/410/410 364/364/364 363/363/363
f 411/411/411 364/364/364 410/410/410
f 411/411/411 366/366/366 364/364/364
f 412/412/412 366/366/366 411/411/411
f 412/412/412 368/368/368 366/366/366
f 413/413/413 368/368/368 412/412/412
f 413/413/413 370/370/370 368/368/368
f 414/414/414 370/370/370 413/413/413
f 414/414/414 372/372/372 370/370/370
f 415/415/415 372/372/372 414/414/414
f 415/415/415 374/374/374 372/372/372
f 377/377/377 374/374/374 415/415/415
f 416/416/416 413/413/413 412/412/412
f 417/417/417 413/413/413 416/416/416
f 417/417/417 414/414/414 413/413/413
f 418/418/418 414/414/414 417/417/417
f 418/418/418 415/415/415 414/414/414
f 419/419/419 415/415/415 418/418/418
f 419/419/419 377/377/377 415/415/415
f 379/379/379 377/377/377 419/419/419
f 416/416/416 412/412/412 420/420/420
f 420/420/420 412/412/412 411/411/411
f 420/420/420 411/411/411 421/421/421
f 421/421/421 411/411/411 410/410/410
f 421/421/421 410/410/410 422/422/422
f 422/422/422 410/410/410 409/409/409
f 422/422/422 409/409/409 423/423/423
f 423/423/423 409/409/409 424/424/424
f 409/409/409 408/408/408 424/424/424
f 424/424/424 408/408/408 407/407/407
f 424/424/424 407/407/407 406/406/406
f 423/423/423 424/424/424 425/425/425
f 425/425/425 424/424/424 406/406/406
f 425/425/425 406/406/406 405/405/405
f 394/394/394 425/425/425 405/405/405
f 393/393/393 425/425/425 394/394/394
f 393/393/393 423/423/423 425/425/425
f 392/392/392 423/423/423 393/393/393
f 392/392/392 422/422/422 423/423/423
f 391/391/391 422/422/422 392/392/392
f 391/391/391 421/421/421 422/422/422
f 390/390/390 421/421/421 391/391/391
f 390/390/390 420/420/420 421/421/421
f 389/389/389 420/420/420 390/390/390
f 389/389/389 416/416/416 420/420/420
f 388/388/388 416/416/416 389/389/389
f 388/388/388 417/417/417 416/416/416
f 387/387/387 417/417/417 388/388/388
f 387/387/387 418/418/418 417/417/417
f 386/386/386 418/418/418 387/387/387
f 386/386/386 419/419/419 418/418/418
f 385/385/385 419/419/419 386/386/386
f 385/385/385 379/379/379 419/419/419
f 300/300/300 303/303/303 426/426/426
f 300/300/300 426/426/426 427/427/427
f 427/427/427 426/426/426 428/428/428
f 431/431/431 430/430/430 429/429/429
f 429/429/429 430/430/430 432/432/432
f 375/375/375 433/433/433 373/373/373
f 375/375/375 434/434/434 433/433/433
f 435/435/435 434/434/434 375/375/375
f 376/376/376 435/435/435 375/375/375
f 373/373/373 433/433/433 436/436/436
f 437/437/437 435/435/435 376/376/376
f 378/378/378 437/437/437 376/376/376
f 438/438/438 437/437/437 378/378/378
f 438/438/438 439/439/439 437/437/437
f 440/440/440 439/439/439 438/438/438
f 440/440/440 351/351/351 439/439/439
f 441/441/441 351/351/351 440/440/440
f 441/441/441 350/350/350 351/351/351
f 442/442/442 350/350/350 441/441/441
f 442/442/442 349/349/349 350/350/350
f 443/443/443 349/349/349 442/442/442
f 443/443/443 348/348/348 349/349/349
f 401/401/401 348/348/348 443/443/443
f 401/401/401 347/347/347 348/348/348
f 400/400/400 401/401/401 443/443/443
f 444/444/444 443/443/443 442/442/442
f 400/400/400 443/443/443 444/444/444
f 445/445/445 442/442/442 441/441/441
f 444/444/444 442/442/442 445/445/445
f 446/446/446 441/441/441 440/440/440
f 445/445/445 441/441/441 446/446/446
f 447/447/447 440/440/440 438/438/438
f 446/446/446 440/440/440 447/447/447
f 448/448/448 400/400/400 444/444/444
f 398/398/398 400/400/400 448/448/448
f 383/383/383 398/398/398 448/448/448
f 383/383/383 448/448/448 449/449/449
f 448/448/448 444/444/444 449/449/449
f 449/449/449 444/444/444 445/445/445
f 383/383/383 449/449/449 450/450/450
f 449/449/449 445/445/445 450/450/450
f 450/450/450 445/445/445 446/446/446
f 383/383/383 450/450/450 384/384/384
f 450/450/450 446/446/446 384/384/384
f 384/384/384 446/446/446 447/447/447
f 384/384/384 447/447/447 382/382/382
f 382/382/382 447/447/447 380/380/380
f 447/447/447 438/438/438 380/380/380
f 380/380/380 438/438/438 378/378/378
f 334/334/334 356/356/356 451/451/451
f 454/454/454 453/453/453 452/452/452
f 457/457/457 456/456/456 455/455/455
f 460/460/460 459/459/459 458/458/458
f 461/461/461 459/459/459 460/460/460
f 460/460/460 458/458/458 462/462/462
f 462/462/462 458/458/458 463/463/463
f 462/462/462 463/463/463 464/464/464
f 464/464/464 463/463/463 465/465/465
f 464/464/464 465/465/465 466/466/466
f 466/466/466 465/465/465 467/467/467
f 470/470/470 469/469/469 468/468/468
f 473/473/473 472/472/472 471/471/471
f 473/473/473 351/351/351 472/472/472
f 439/439/439 351/351/351 473/473/473
f 439/439/439 473/473/473 437/437/437
f 437/437/437 473/473/473 435/435/435
f 351/351/351 343/343/343 472/472/472
f 343/343/343 344/344/344 472/472/472
f 472/472/472 344/344/344 474/474/474
f 344/344/344 476/476/476 475/475/475
f 477/477/477 475/475/475 476/476/476
f 344/344/344 306/306/306 307/307/307
f 342/342/342 306/306/306 344/344/344
f 342/342/342 308/308/308 306/306/306
f 340/340/340 308/308/308 342/342/342
f 340/340/340 310/310/310 308/308/308
f 338/338/338 310/310/310 340/340/340
f 338/338/338 312/312/312 310/310/310
f 336/336/336 312/312/312 338/338/338
f 336/336/336 314/314/314 312/312/312
f 330/330/330 314/314/314 336/336/336
f 330/330/330 327/327/327 314/314/314
f 327/327/327 316/316/316 314/314/314
f 480/480/480 479/479/479 478/478/478
f 478/478/478 479/479/479 481/481/481
f 484/484/484 483/483/483 482/482/482
f 485/485/485 483/483/483 484/484/484
f 488/488/488 487/487/487 486/486/486
f 489/489/489 487/487/487 488/488/488
f 488/488/488 486/486/486 490/490/490
f 490/490/490 486/486/486 491/491/491
f 492/492/492 328/328/328 329/329/329
f 495/495/495 494/494/494 493/493/493
f 498/498/498 497/497/497 496/496/496
f 501/501/501 500/500/500 499/499/499
f 502/502/502 500/500/500 501/501/501
f 499/499/499 504/504/504 503/503/503
f 507/507/507 506/506/506 505/505/505
f 508/508/508 506/506/506 507/507/507
f 511/511/511 510/510/510 509/509/509
f 509/509/509 510/510/510 512/512/512
f 510/510/510 513/513/513 512/512/512
f 514/514/514 513/513/513 510/510/510
f 514/514/514 515/515/515 513/513/513
f 513/513/513 515/515/515 516/516/516
f 515/515/515 517/517/517 516/516/516
f 518/518/518 517/517/517 515/515/515
f 518/518/518 519/519/519 517/517/517
f 517/517/517 519/519/519 520/520/520
f 519/519/519 521/521/521 520/520/520
f 522/522/522 521/521/521 519/519/519
f 523/523/523 513/513/513 516/516/516
f 516/516/516 524/524/524 523/523/523
f 517/517/517 524/524/524 516/516/516
f 524/524/524 525/525/525 523/523/523
f 525/525/525 526/526/526 523/523/523
f 513/513/513 526/526/526 512/512/512
f 526/526/526 513/513/513 523/523/523
f 527/527/527 526/526/526 525/525/525
f 527/527/527 528/528/528 526/526/526
f 526/526/526 528/528/528 529/529/529
f 528/528/528 530/530/530 529/529/529
f 531/531/531 530/530/530 528/528/528
f 531/531/531 532/532/532 530/530/530
f 530/530/530 532/532/532 533/533/533
f 534/534/534 525/525/525 524/524/524
f 534/534/534 524/524/524 535/535/535
f 535/535/535 524/524/524 536/536/536
f 537/537/537 535/535/535 536/536/536
f 538/538/538 535/535/535 537/537/537
f 538/538/538 537/537/537 539/539/539
f 539/539/539 537/537/537 540/540/540
f 541/541/541 539/539/539 540/540/540
f 542/542/542 539/539/539 541/541/541
f 542/542/542 541/541/541 543/543/543
f 543/543/543 541/541/541 544/544/544
f 545/545/545 543/543/543 544/544/544
f 546/546/546 543/543/543 545/545/545
f 546/546/546 545/545/545 547/547/547
f 547/547/547 545/545/545 548/548/548
f 549/549/549 547/547/547 548/548/548
f 550/550/550 547/547/547 549/549/549
f 550/550/550 549/549/549 551/551/551
f 551/551/551 549/549/549 552/552/552
f 551/551/551 552/552/552 553/553/553
f 553/553/553 552/552/552 554/554/554
f 553/553/553 554/554/554 555/555/555
f 555/555/555 554/554/554 556/556/556
f 555/555/555 556/556/556 557/557/557
f 557/557/557 556/556/556 558/558/558
f 533/533/533 557/557/557 558/558/558
f 532/532/532 557/557/557 533/533/533
f 545/545/545 559/559/559 548/548/548
f 548/548/548 559/559/559 560/560/560
f 560/560/560 549/549/549 548/548/548
f 561/561/561 549/549/549 560/560/560
f 549/549/549 561/561/561 552/552/552
f 552/552/552 561/561/561 562/562/562
f 552/552/552 562/562/562 554/554/554
f 554/554/554 562/562/562 563/563/563
f 554/554/554 563/563/563 556/556/556
f 556/556/556 563/563/563 564/564/564
f 556/556/556 564/564/564 558/558/558
f 558/558/558 564/564/564 565/565/565
f 565/565/565 533/533/533 558/558/558
f 566/566/566 533/533/533 565/565/565
f 559/559/559 545/545/545 567/567/567
f 567/567/567 545/545/545 544/544/544
f 544/544/544 568/568/568 567/567/567
f 569/569/569 530/530/530 533/533/533
f 570/570/570 530/530/530 569/569/569
f 530/530/530 570/570/570 529/529/529
f 529/529/529 570/570/570 512/512/512
f 512/512/512 526/526/526 529/529/529
f 541/541/541 571/571/571 544/544/544
f 571/571/571 541/541/541 572/572/572
f 572/572/572 541/541/541 540/540/540
f 540/540/540 573/573/573 572/572/572
f 537/537/537 574/574/574 540/540/540
f 575/575/575 537/537/537 520/520/520
f 520/520/520 537/537/537 536/536/536
f 536/536/536 517/517/517 520/520/520
f 524/524/524 517/517/517 536/536/536
f 522/522/522 577/577/577 576/576/576
f 580/580/580 579/579/579 578/578/578
f 583/583/583 582/582/582 581/581/581
f 586/586/586 585/585/585 584/584/584
f 589/589/589 588/588/588 587/587/587
f 587/587/587 588/588/588 590/590/590
f 593/593/593 592/592/592 591/591/591
f 594/594/594 592/592/592 593/593/593
f 596/596/596 591/591/591 595/595/595
f 595/595/595 591/591/591 597/597/597
f 595/595/595 597/597/597 598/598/598
f 598/598/598 597/597/597 599/599/599
f 598/598/598 599/599/599 600/600/600
f 600/600/600 599/599/599 601/601/601
f 602/602/602 595/595/595 598/598/598
f 603/603/603 595/595/595 602/602/602
f 603/603/603 604/604/604 595/595/595
f 605/605/605 603/603/603 602/602/602
f 606/606/606 603/603/603 605/605/605
f 606/606/606 607/607/607 603/603/603
f 605/605/605 602/602/602 608/608/608
f 608/608/608 602/602/602 609/609/609
f 609/609/609 598/598/598 600/600/600
f 602/602/602 598/598/598 609/609/609
f 610/610/610 605/605/605 608/608/608
f 611/611/611 605/605/605 610/610/610
f 611/611/611 612/612/612 605/605/605
f 610/610/610 608/608/608 613/613/613
f 614/614/614 610/610/610 613/613/613
f 614/614/614 611/611/611 610/610/610
f 613/613/613 615/615/615 614/614/614
f 613/613/613 616/616/616 615/615/615
f 617/617/617 616/616/616 613/613/613
f 617/617/617 618/618/618 616/616/616
f 614/614/614 615/615/615 619/619/619
f 614/614/614 619/619/619 620/620/620
f 620/620/620 619/619/619 621/621/621
f 620/620/620 621/621/621 622/622/622
f 622/622/622 621/621/621 623/623/623
f 622/622/622 623/623/623 624/624/624
f 624/624/624 623/623/623 625/625/625
f 624/624/624 625/625/625 626/626/626
f 626/626/626 625/625/625 627/627/627
f 620/620/620 628/628/628 614/614/614
f 629/629/629 628/628/628 620/620/620
f 622/622/622 629/629/629 620/620/620
f 629/629/629 630/630/630 628/628/628
f 631/631/631 630/630/630 629/629/629
f 632/632/632 631/631/631 629/629/629
f 632/632/632 633/633/633 631/631/631
f 633/633/633 634/634/634 631/631/631
f 631/631/631 634/634/634 635/635/635
f 633/633/633 636/636/636 634/634/634
f 637/637/637 636/636/636 633/633/633
f 626/626/626 638/638/638 624/624/624
f 626/626/626 639/639/639 638/638/638
f 639/639/639 640/640/640 638/638/638
f 638/638/638 640/640/640 641/641/641
f 641/641/641 637/637/637 633/633/633
f 640/640/640 637/637/637 641/641/641
f 641/641/641 633/633/633 632/632/632
f 642/642/642 641/641/641 632/632/632
f 638/638/638 641/641/641 642/642/642
f 642/642/642 632/632/632 629/629/629
f 624/624/624 638/638/638 642/642/642
f 622/622/622 642/642/642 629/629/629
f 624/624/624 642/642/642 622/622/622
f 636/636/636 643/643/643 634/634/634
f 634/634/634 643/643/643 644/644/644
f 634/634/634 644/644/644 645/645/645
f 645/645/645 644/644/644 646/646/646
f 647/647/647 639/639/639 626/626/626
f 650/650/650 649/649/649 648/648/648
f 651/651/651 649/649/649 650/650/650
f 653/653/653 652/652/652 603/603/603
f 656/656/656 655/655/655 654/654/654
f 658/658/658 618/618/618 657/657/657
f 658/658/658 659/659/659 618/618/618
f 659/659/659 660/660/660 618/618/618
f 618/618/618 660/660/660 661/661/661
f 618/618/618 661/661/661 616/616/616
f 616/616/616 661/661/661 662/662/662
f 616/616/616 662/662/662 615/615/615
f 615/615/615 662/662/662 663/663/663
f 615/615/615 663/663/663 619/619/619
f 619/619/619 663/663/663 664/664/664
f 619/619/619 664/664/664 621/621/621
f 621/621/621 664/664/664 665/665/665
f 621/621/621 665/665/665 623/623/623
f 623/623/623 665/665/665 666/666/666
f 623/623/623 666/666/666 625/625/625
f 625/625/625 666/666/666 667/667/667
f 625/625/625 667/667/667 627/627/627
f 627/627/627 667/667/667 668/668/668
f 668/668/668 669/669/669 627/627/627
f 670/670/670 669/669/669 668/668/668
f 673/673/673 672/672/672 671/671/671
f 676/676/676 675/675/675 674/674/674
f 674/674/674 675/675/675 677/677/677
f 674/674/674 677/677/677 678/678/678
f 678/678/678 677/677/677 679/679/679
f 678/678/678 679/679/679 680/680/680
f 680/680/680 679/679/679 681/681/681
f 680/680/680 681/681/681 682/682/682
f 682/682/682 681/681/681 683/683/683
f 682/682/682 683/683/683 684/684/684
f 684/684/684 683/683/683 685/685/685
f 684/684/684 685/685/685 686/686/686
f 686/686/686 685/685/685 687/687/687
f 686/686/686 687/687/687 688/688/688
f 688/688/688 687/687/687 689/689/689
f 688/688/688 689/689/689 690/690/690
f 690/690/690 689/689/689 691/691/691
f 694/694/694 693/693/693 692/692/692
f 692/692/692 693/693/693 695/695/695
f 692/692/692 695/695/695 696/696/696
f 696/696/696 695/695/695 697/697/697
f 696/696/696 697/697/697 698/698/698
f 698/698/698 697/697/697 699/699/699
f 698/698/698 699/699/699 700/700/700
f 700/700/700 699/699/699 701/701/701
f 700/700/700 701/701/701 702/702/702
f 702/702/702 701/701/701 703/703/703
f 702/702/702 703/703/703 704/704/704
f 704/704/704 703/703/703 705/705/705
f 704/704/704 705/705/705 706/706/706
f 706/706/706 705/705/705 707/707/707
f 706/706/706 707/707/707 708/708/708
f 708/708/708 707/707/707 709/709/709
f 695/695/695 710/710/710 697/697/697
f 695/695/695 711/711/711 710/710/710
f 693/693/693 711/711/711 695/695/695
f 699/699/699 712/712/712 701/701/701
f 699/699/699 713/713/713 712/712/712
f 697/697/697 710/710/710 713/713/713
f 697/697/697 713/713/713 699/699/699
f 703/703/703 714/714/714 705/705/705
f 703/703/703 715/715/715 714/714/714
f 701/701/701 712/712/712 715/715/715
f 701/701/701 715/715/715 703/703/703
f 707/707/707 716/716/716 709/709/709
f 707/707/707 717/717/717 716/716/716
f 705/705/705 714/714/714 717/717/717
f 705/705/705 717/717/717 707/707/707
f 709/709/709 716/716/716 718/718/718
f 721/721/721 720/720/720 719/719/719
f 721/721/721 719/719/719 722/722/722
f 722/722/722 719/719/719 723/723/723
f 726/726/726 725/725/725 724/724/724
f 728/728/728 725/725/725 727/727/727
f 731/731/731 730/730/730 729/729/729
f 732/732/732 730/730/730 731/731/731
f 733/733/733 659/659/659 658/658/658
f 736/736/736 735/735/735 734/734/734
f 737/737/737 735/735/735 736/736/736
f 740/740/740 739/739/739 738/738/738
f 743/743/743 742/742/742 741/741/741
f 744/744/744 742/742/742 743/743/743
f 744/744/744 745/745/745 742/742/742
f 746/746/746 745/745/745 744/744/744
f 628/628/628 747/747/747 611/611/611
f 628/628/628 611/611/611 614/614/614
f 750/750/750 749/749/749 748/748/748
f 753/753/753 752/752/752 751/751/751
f 754/754/754 752/752/752 753/753/753
f 757/757/757 756/756/756 755/755/755
f 760/760/760 759/759/759 758/758/758
f 761/761/761 759/759/759 760/760/760
f 760/760/760 758/758/758 762/762/762
f 765/765/765 764/764/764 763/763/763
f 768/768/768 767/767/767 766/766/766
f 771/771/771 770/770/770 769/769/769
f 774/774/774 773/773/773 772/772/772
f 775/775/775 773/773/773 774/774/774
f 778/778/778 777/777/777 776/776/776
f 779/779/779 777/777/777 778/778/778
f 782/782/782 781/781/781 780/780/780
f 783/783/783 782/782/782 780/780/780
f 784/784/784 782/782/782 783/783/783
f 787/787/787 786/786/786 785/785/785
f 785/785/785 786/786/786 788/788/788
