g GVG_RocketDishRight_mesh
v 432.8101 231.6693 -1084.829
v 441.7672 241.2445 -1087.029
v 426.4584 233.1497 -1099.052
v 434.8226 242.8633 -1102.58
v 423.192 229.3977 -1113.887
v 431.251 238.7608 -1118.8
v 423.5075 220.9843 -1127.075
v 431.5959 229.5616 -1133.22
v 427.3574 209.1898 -1136.609
v 435.8053 216.6656 -1143.645
v 434.1551 195.8112 -1141.038
v 443.2378 202.037 -1148.487
v 442.8657 182.8837 -1139.686
v 452.7624 187.9022 -1147.009
v 452.1633 172.3763 -1132.76
v 462.9286 176.4134 -1139.437
v 460.6332 165.8884 -1121.315
v 472.189 169.3195 -1126.922
v 466.9842 164.4077 -1107.092
v 479.1335 167.7006 -1111.371
v 470.2509 168.1598 -1092.257
v 482.7054 171.8032 -1095.151
v 469.935 176.5732 -1079.069
v 482.3602 181.0025 -1080.73
v 466.0855 188.3675 -1069.535
v 478.1509 193.8982 -1070.306
v 459.2873 201.7466 -1065.106
v 470.7185 208.5268 -1065.464
v 450.577 214.6738 -1066.458
v 461.1939 222.6617 -1066.941
v 441.2793 225.1811 -1073.384
v 451.0276 234.1506 -1074.514
v 457.7504 167.9577 -1090.853
v 457.4882 174.9438 -1079.902
v 454.292 184.7381 -1071.985
v 448.647 195.8477 -1068.308
v 441.4128 206.5827 -1069.43
v 433.6927 215.3076 -1075.181
v 426.6594 220.6945 -1084.685
v 421.3857 221.9244 -1096.495
v 455.0376 164.8421 -1103.172
v 449.7635 166.0716 -1114.982
v 442.7307 171.4591 -1124.487
v 435.0101 180.184 -1130.237
v 427.7766 190.9189 -1131.36
v 422.1319 202.0287 -1127.682
v 418.9353 211.8223 -1119.765
v 418.6731 218.8089 -1108.814
v 420.1024 195.3712 -1117.227
v 417.8168 202.3733 -1111.567
v 424.1381 187.4282 -1119.857
v 429.3095 179.7536 -1119.054
v 434.8295 173.5155 -1114.943
v 439.8576 169.6637 -1108.147
v 443.6282 168.7847 -1099.704
v 445.5677 171.0122 -1090.896
v 445.3802 176.0074 -1083.066
v 443.0948 183.0092 -1077.407
v 439.0591 190.9522 -1074.777
v 433.8875 198.6261 -1075.58
v 428.3674 204.8647 -1079.692
v 423.3394 208.7165 -1086.487
v 419.5688 209.5956 -1094.93
v 417.6295 207.3681 -1103.737
v 421.1441 197.1632 -1094.479
v 423.1084 196.7052 -1090.081
v 420.1342 196.0031 -1099.066
v 420.2316 193.4015 -1103.145
v 421.422 189.754 -1106.094
v 423.5243 185.6164 -1107.463
v 426.2179 181.6191 -1107.045
v 429.093 178.3699 -1104.904
v 431.712 176.3636 -1101.364
v 433.6752 175.9061 -1096.968
v 434.6861 177.0661 -1092.379
v 434.5886 179.6674 -1088.301
v 433.3982 183.3144 -1085.353
v 431.2957 187.4525 -1083.983
v 428.6028 191.4494 -1084.4
v 425.7269 194.6993 -1086.543
v 424.4854 191.3888 -1092.525
v 423.4641 191.627 -1094.812
v 426.7223 186.1016 -1095.456
v 422.9388 191.0237 -1097.197
v 422.9896 189.6708 -1099.318
v 423.6086 187.7742 -1100.852
v 424.7017 185.6227 -1101.564
v 426.1024 183.544 -1101.346
v 427.5974 181.8544 -1100.233
v 428.9594 180.8111 -1098.392
v 429.9802 180.5732 -1096.106
v 430.5059 181.1764 -1093.72
v 430.4552 182.5291 -1091.599
v 429.8362 184.4256 -1090.066
v 428.743 186.5774 -1089.354
v 427.3426 188.6558 -1089.571
v 425.8471 190.3457 -1090.685
v 431.4907 246.0426 -1101.725
v 439.1473 244.2577 -1084.58
v 422.7455 235.8864 -1098.037
v 429.7816 234.2462 -1082.281
v 419.1268 231.7297 -1114.471
v 427.553 241.5196 -1119.608
v 419.4764 222.4091 -1129.081
v 427.9333 231.3773 -1135.507
v 449.3566 236.4368 -1070.783
v 439.1641 227.0588 -1069.601
v 460.565 223.7704 -1062.434
v 449.4644 215.4185 -1061.929
v 471.0657 208.1869 -1060.805
v 459.1144 201.0975 -1060.432
v 417.1404 223.4834 -1095.212
v 422.9863 222.1207 -1082.121
v 414.1339 220.03 -1108.866
v 414.4243 212.2861 -1121.005
v 430.7816 216.1491 -1071.587
v 439.3392 206.4781 -1065.213
v 447.3569 194.5797 -1063.969
v 415.1295 209.8383 -1093.48
v 419.3115 208.8634 -1084.115
v 412.9789 207.3678 -1103.248
v 424.888 204.5916 -1076.579
v 431.01 197.6732 -1072.019
v 479.2601 192.0587 -1066.144
v 466.6449 186.276 -1065.338
v 470.7185 208.5268 -1065.464
v 479.2601 192.0587 -1066.144
v 471.0657 208.1869 -1060.805
v 478.1509 193.8982 -1070.306
v 483.9008 177.8412 -1077.637
v 482.3602 181.0025 -1080.73
v 484.2813 167.6989 -1093.535
v 482.7054 171.8032 -1095.151
v 480.3435 163.1759 -1111.418
v 479.1335 167.7006 -1111.371
v 472.687 164.9607 -1128.563
v 461.1939 222.6617 -1066.941
v 460.565 223.7704 -1062.434
v 451.0276 234.1506 -1074.514
v 449.3566 236.4368 -1070.783
v 441.7672 241.2445 -1087.029
v 439.1473 244.2577 -1084.58
v 434.8226 242.8633 -1102.58
v 431.4907 246.0426 -1101.725
v 431.251 238.7608 -1118.8
v 427.553 241.5196 -1119.608
v 431.5959 229.5616 -1133.22
v 427.9333 231.3773 -1135.507
v 435.8053 216.6656 -1143.645
v 432.5741 217.1598 -1147
v 443.2378 202.037 -1148.487
v 440.7685 201.0317 -1152.338
v 452.7624 187.9022 -1147.009
v 451.2692 185.4482 -1150.709
v 462.9286 176.4134 -1139.437
v 462.4775 172.7817 -1142.36
v 472.189 169.3195 -1126.922
v 480.3435 163.1759 -1111.418
v 472.687 164.9607 -1128.563
v 467.6406 159.7331 -1106.944
v 460.6044 161.3733 -1122.7
v 462.4775 172.7817 -1142.36
v 451.2219 168.5607 -1135.38
v 451.2692 185.4482 -1150.709
v 440.9216 180.201 -1143.052
v 440.7685 201.0317 -1152.338
v 431.2716 194.522 -1144.549
v 432.5741 217.1598 -1147
v 423.7412 209.3434 -1139.643
v 427.9333 231.3773 -1135.507
v 419.4764 222.4091 -1129.081
v 471.2593 163.8896 -1090.51
v 417.9676 201.4308 -1129.78
v 414.4243 212.2861 -1121.005
v 424.2243 189.1166 -1133.856
v 432.2418 177.2183 -1132.612
v 440.7996 167.5471 -1126.238
v 448.5947 161.5757 -1115.703
v 454.4407 160.2129 -1102.612
v 457.4472 163.6662 -1088.958
v 457.1568 171.4102 -1076.82
v 470.9096 173.2103 -1075.9
v 484.2813 167.6989 -1093.535
v 483.9008 177.8412 -1077.637
v 466.6449 186.276 -1065.338
v 479.2601 192.0587 -1066.144
v 453.6136 182.2655 -1068.044
v 447.3569 194.5797 -1063.969
v 459.1144 201.0975 -1060.432
v 441.813 164.5764 -1098.774
v 443.9638 167.047 -1089.006
v 443.756 172.5867 -1080.323
v 436.7455 189.1615 -1071.129
v 441.2212 180.3522 -1074.045
v 431.01 197.6732 -1072.019
v 439.3392 206.4781 -1065.213
v 425.1513 189.7173 -1081.797
v 421.9611 193.3226 -1084.173
v 424.888 204.5916 -1076.579
v 419.0551 195.5487 -1088.101
v 419.3115 208.8634 -1084.115
v 416.8758 196.0567 -1092.98
v 415.1295 209.8383 -1093.48
v 415.755 194.7693 -1098.071
v 412.9789 207.3678 -1103.248
v 415.8632 191.8826 -1102.596
v 413.1866 201.828 -1111.931
v 414.1339 220.03 -1108.866
v 415.7213 194.0625 -1118.209
v 420.1971 185.2533 -1121.125
v 425.9325 176.7415 -1120.235
v 432.0546 169.8232 -1115.675
v 437.6311 165.5513 -1108.139
v 430.7808 172.4703 -1095.739
v 428.6016 172.9783 -1100.619
v 417.1841 187.8358 -1105.867
v 419.5165 183.2452 -1107.386
v 422.5054 178.8097 -1106.923
v 425.6956 175.2044 -1104.547
v 431.9016 173.7576 -1090.649
v 431.7934 176.6444 -1086.124
v 430.4724 180.6913 -1082.853
v 428.14 185.2818 -1081.333
v 422.2377 183.2549 -1093.755
v 427.3859 180.3137 -1105.576
v 431.5743 175.7889 -1102.109
v 500.8894 229.5903 -1129.865
v 502.3495 228.0133 -1128.656
v 499.63 231.6997 -1129.66
v 423.7721 186.3665 -1104.988
v 434.7377 174.5204 -1095.91
v 503.4511 227.5707 -1126.499
v 435.6676 176.9928 -1089.347
v 503.7744 228.4331 -1124.212
v 434.0089 182.2616 -1084.928
v 503.1993 230.2669 -1122.668
v 502.3495 228.0133 -1128.656
v 503.7744 228.4331 -1124.212
v 500.8894 229.5903 -1129.865
v 503.4511 227.5707 -1126.499
v 503.1993 230.2669 -1122.668
v 499.63 231.6997 -1129.66
v 501.9377 232.3772 -1122.468
v 499.0523 233.5347 -1128.121
v 500.4769 233.9561 -1123.675
v 499.3758 234.3983 -1125.832
v 501.9377 232.3772 -1122.468
v 426.2066 192.8394 -1087.808
v 500.4769 233.9561 -1123.675
v 423.0432 194.1079 -1094.007
v 499.3758 234.3983 -1125.832
v 422.1133 191.6355 -1100.569
v 499.0523 233.5347 -1128.121
v 423.7721 186.3665 -1104.988
v 499.63 231.6997 -1129.66
v 430.3951 188.3145 -1084.34
v 503.1993 230.2669 -1122.668
v 434.0089 182.2616 -1084.928
v 497.6688 229.1435 -1129.401
v 499.0366 227.6659 -1128.269
v 499.5103 229.5822 -1132.779
v 501.8778 227.0247 -1130.817
v 497.466 233.007 -1132.443
v 496.4879 231.1216 -1129.208
v 496.5236 235.9923 -1129.946
v 495.9463 232.8433 -1127.763
v 500.0685 227.2538 -1126.244
v 503.6714 226.3039 -1127.305
v 500.3738 228.0591 -1124.099
v 504.199 227.7015 -1123.591
v 499.8321 229.781 -1122.653
v 503.2599 230.6841 -1121.09
v 502.3849 231.1393 -1134.852
v 505.1199 228.1847 -1132.588
v 500.0236 235.0952 -1134.467
v 507.189 227.3537 -1128.536
v 507.7976 228.9687 -1124.245
v 506.7132 232.4118 -1121.359
v 505.5239 233.3969 -1135.065
v 507.8918 230.8376 -1133.106
v 509.6856 230.1171 -1129.594
v 510.2129 231.5146 -1125.879
v 509.2737 234.497 -1123.379
v 510.4851 233.8584 -1130.208
v 510.7906 234.6638 -1128.063
v 509.4529 234.2703 -1132.233
v 508.0854 235.7477 -1133.365
v 503.4798 236.8201 -1134.732
v 496.2516 233.6486 -1125.618
v 495.9463 232.8433 -1127.763
v 497.0511 237.3899 -1126.231
v 496.5236 235.9923 -1129.946
v 498.8419 236.6718 -1122.722
v 497.2835 233.2366 -1123.593
v 501.213 234.1103 -1120.76
v 498.6511 231.7592 -1122.461
v 499.5479 240.1534 -1127.29
v 498.9393 238.5385 -1131.58
v 497.466 233.007 -1132.443
v 500.0236 235.0952 -1134.467
v 501.6171 239.3225 -1123.238
v 504.3518 236.3676 -1120.974
v 503.0653 241.2031 -1128.52
v 502.5377 239.8055 -1132.235
v 503.4798 236.8201 -1134.732
v 504.856 240.4851 -1125.011
v 507.2271 237.9232 -1123.049
v 509.2737 234.497 -1123.379
v 506.7132 232.4118 -1121.359
v 506.6685 240.2534 -1129.582
v 506.3626 239.4478 -1131.727
v 506.9044 237.7259 -1133.172
v 507.7004 239.8413 -1127.557
v 509.0678 238.3639 -1126.425
v 510.2489 236.3858 -1126.618
v 510.7906 234.6638 -1128.063
v 510.2129 231.5146 -1125.879
v 509.3824 237.5664 -1130.202
v 508.0854 235.7477 -1133.365
v 505.5239 233.3969 -1135.065
v 509.4529 234.2703 -1132.233
v 510.4851 233.8584 -1130.208
v 503.2599 230.6841 -1121.09
v 498.6511 231.7592 -1122.461
v 501.213 234.1103 -1120.76
v 497.3543 229.9406 -1125.624
v 497.2835 233.2366 -1123.593
v 496.2516 233.6486 -1125.618
vt 0.656323 0.019589
vt 0.652829 0.012541
vt 0.678712 0.016447
vt 0.678852 0.008914
vt 0.700497 0.022169
vt 0.70414 0.015603
vt 0.718269 0.035724
vt 0.724718 0.031374
vt 0.729372 0.054875
vt 0.737522 0.05359
vt 0.732274 0.076615
vt 0.740814 0.078753
vt 0.726703 0.097686
vt 0.734323 0.103098
vt 0.713597 0.11503
vt 0.719155 0.123121
vt 0.694907 0.126177
vt 0.697559 0.136
vt 0.673329 0.129517
vt 0.672624 0.139893
vt 0.651976 0.124505
vt 0.647917 0.134156
vt 0.634006 0.111754
vt 0.627073 0.119465
vt 0.62219 0.093032
vt 0.613312 0.097825
vt 0.618479 0.071093
vt 0.608932 0.072396
vt 0.623616 0.049313
vt 0.614841 0.0471
vt 0.63692 0.031164
vt 0.630275 0.025996
vt 0.657118 0.112842
vt 0.642881 0.102657
vt 0.633566 0.087764
vt 0.630692 0.07037
vt 0.634807 0.053148
vt 0.645344 0.038817
vt 0.660675 0.029673
vt 0.678364 0.027165
vt 0.674089 0.116879
vt 0.691269 0.114247
vt 0.706151 0.105372
vt 0.716563 0.091548
vt 0.72095 0.074772
vt 0.718584 0.057503
vt 0.70972 0.042341
vt 0.695608 0.031649
vt 0.705669 0.06123
vt 0.699497 0.050779
vt 0.707356 0.073179
vt 0.704353 0.084818
vt 0.697145 0.094424
vt 0.686816 0.100584
vt 0.674893 0.102389
vt 0.663139 0.099551
vt 0.653316 0.092456
vt 0.64693 0.082134
vt 0.645 0.070127
vt 0.647874 0.058275
vt 0.655141 0.048427
vt 0.665684 0.042137
vt 0.67785 0.040393
vt 0.689734 0.043444
vt 0.677211 0.055224
vt 0.671037 0.056121
vt 0.683255 0.056753
vt 0.688242 0.060465
vt 0.691418 0.065781
vt 0.692308 0.071883
vt 0.690792 0.077847
vt 0.687108 0.082776
vt 0.681814 0.085933
vt 0.675705 0.086845
vt 0.669693 0.085371
vt 0.664691 0.081723
vt 0.661461 0.076442
vt 0.660507 0.070323
vt 0.661988 0.064304
vt 0.665688 0.059312
vt 0.673666 0.063268
vt 0.676858 0.062801
vt 0.676463 0.071012
vt 0.679986 0.063587
vt 0.682572 0.065503
vt 0.684224 0.068253
vt 0.684694 0.071418
vt 0.683912 0.074515
vt 0.682001 0.077077
vt 0.67925 0.078718
vt 0.676077 0.079189
vt 0.672957 0.078418
vt 0.670367 0.076519
vt 0.6687 0.073778
vt 0.668214 0.070609
vt 0.668985 0.067497
vt 0.670901 0.064917
vt 0.6355 0.233696
vt 0.652444 0.271086
vt 0.620742 0.246798
vt 0.636254 0.280992
vt 0.614658 0.214189
vt 0.628819 0.19808
vt 0.618917 0.188336
vt 0.633408 0.169908
vt 0.676916 0.304259
vt 0.658701 0.311317
vt 0.704963 0.328003
vt 0.684474 0.333019
vt 0.73215 0.338766
vt 0.70951 0.342846
vt 0.613592 0.259098
vt 0.626414 0.287344
vt 0.608575 0.232129
vt 0.612119 0.210685
vt 0.644998 0.312398
vt 0.666384 0.330351
vt 0.687222 0.338506
vt 0.614518 0.269592
vt 0.623635 0.289673
vt 0.610948 0.250397
vt 0.636866 0.307499
vt 0.65213 0.320307
vt 0.754338 0.335159
vt 0.729998 0.339512
vt 0.731567 0.323297
vt 0.754338 0.335159
vt 0.73215 0.338766
vt 0.749691 0.321857
vt 0.766013 0.319542
vt 0.757067 0.30989
vt 0.76603 0.293916
vt 0.758015 0.289122
vt 0.758544 0.260179
vt 0.748874 0.259551
vt 0.743821 0.225641
vt 0.708431 0.31727
vt 0.704963 0.328003
vt 0.682522 0.296721
vt 0.676916 0.304259
vt 0.660116 0.265891
vt 0.652444 0.271086
vt 0.643763 0.233542
vt 0.6355 0.233696
vt 0.638454 0.200772
vt 0.628819 0.19808
vt 0.643839 0.17725
vt 0.633408 0.169908
vt 0.655097 0.168711
vt 0.646868 0.158865
vt 0.673544 0.169124
vt 0.670514 0.157344
vt 0.693596 0.180121
vt 0.695369 0.169986
vt 0.714066 0.200116
vt 0.720371 0.193222
vt 0.735125 0.228807
vt 0.758544 0.260179
vt 0.743821 0.225641
vt 0.740448 0.266456
vt 0.72552 0.233372
vt 0.720371 0.193222
vt 0.703935 0.203678
vt 0.695369 0.169986
vt 0.678798 0.181761
vt 0.670514 0.157344
vt 0.653798 0.170995
vt 0.646868 0.158865
vt 0.632728 0.173219
vt 0.633408 0.169908
vt 0.618917 0.188336
vt 0.74657 0.298128
vt 0.623586 0.198061
vt 0.612119 0.210685
vt 0.6411 0.196082
vt 0.66191 0.204882
vt 0.682857 0.222985
vt 0.700847 0.247607
vt 0.713268 0.275092
vt 0.718312 0.301416
vt 0.716472 0.32094
vt 0.742946 0.323764
vt 0.76603 0.293916
vt 0.766013 0.319542
vt 0.729998 0.339512
vt 0.754338 0.335159
vt 0.704335 0.335766
vt 0.687222 0.338506
vt 0.70951 0.342846
vt 0.685941 0.280846
vt 0.689525 0.299712
vt 0.687233 0.314949
vt 0.667055 0.326164
vt 0.679365 0.324254
vt 0.65213 0.320307
vt 0.666384 0.330351
vt 0.642806 0.303771
vt 0.634877 0.297104
vt 0.636866 0.307499
vt 0.628021 0.28786
vt 0.623635 0.289673
vt 0.6233 0.277459
vt 0.614518 0.269592
vt 0.621445 0.267508
vt 0.610948 0.250397
vt 0.622738 0.259541
vt 0.613466 0.235083
vt 0.608575 0.232129
vt 0.621637 0.225998
vt 0.634152 0.224475
vt 0.649062 0.230661
vt 0.664101 0.243546
vt 0.677029 0.261152
vt 0.660558 0.283262
vt 0.655893 0.272967
vt 0.626967 0.254776
vt 0.633473 0.253925
vt 0.641251 0.257094
vt 0.649119 0.263782
vt 0.662417 0.293124
vt 0.661186 0.30107
vt 0.657038 0.305895
vt 0.650588 0.306851
vt 0.639098 0.28212
vt 0.417356 0.256506
vt 0.427753 0.266043
vt 0.556847 0.179006
vt 0.560457 0.182466
vt 0.553498 0.178284
vt 0.407567 0.254682
vt 0.434822 0.279647
vt 0.562952 0.187331
vt 0.4359 0.292175
vt 0.563384 0.191761
vt 0.43056 0.298878
vt 0.561595 0.194073
vt 0.560457 0.182466
vt 0.563384 0.191761
vt 0.556847 0.179006
vt 0.562952 0.187331
vt 0.561595 0.194073
vt 0.553498 0.178284
vt 0.558246 0.193355
vt 0.551693 0.180578
vt 0.554625 0.189898
vt 0.552123 0.185021
vt 0.558246 0.193355
vt 0.410329 0.287638
vt 0.554625 0.189898
vt 0.403188 0.273928
vt 0.552123 0.185021
vt 0.402138 0.261325
vt 0.551693 0.180578
vt 0.407567 0.254682
vt 0.553498 0.178284
vt 0.420798 0.297167
vt 0.561595 0.194073
vt 0.43056 0.298878
vt 0.550077 0.180247
vt 0.553463 0.183486
vt 0.553891 0.172761
vt 0.559746 0.178377
vt 0.548449 0.171582
vt 0.546932 0.179572
vt 0.545496 0.175295
vt 0.545235 0.181727
vt 0.5558 0.188051
vt 0.563806 0.186295
vt 0.556209 0.192208
vt 0.564515 0.193491
vt 0.554521 0.19437
vt 0.561599 0.197232
vt 0.559583 0.167449
vt 0.566343 0.173943
vt 0.553301 0.166073
vt 0.571026 0.183085
vt 0.571849 0.191398
vt 0.568491 0.195717
vt 0.56564 0.165733
vt 0.571492 0.171363
vt 0.575556 0.179297
vt 0.576273 0.186501
vt 0.573368 0.19024
vt 0.576162 0.175915
vt 0.576579 0.18008
vt 0.573821 0.171334
vt 0.570439 0.168079
vt 0.560207 0.164538
vt 0.545641 0.185893
vt 0.545235 0.181727
vt 0.546196 0.182516
vt 0.545496 0.175295
vt 0.550273 0.190462
vt 0.547985 0.190469
vt 0.55616 0.196079
vt 0.551378 0.193706
vt 0.550716 0.17871
vt 0.549905 0.170364
vt 0.548449 0.171582
vt 0.553301 0.166073
vt 0.55543 0.1879
vt 0.562221 0.19439
vt 0.557975 0.175476
vt 0.557266 0.168248
vt 0.560207 0.164538
vt 0.562054 0.183439
vt 0.567938 0.189074
vt 0.573368 0.19024
vt 0.568491 0.195717
vt 0.566031 0.173715
vt 0.565616 0.169542
vt 0.567303 0.16739
vt 0.568379 0.178307
vt 0.571769 0.181562
vt 0.574902 0.182239
vt 0.576579 0.18008
vt 0.576273 0.186501
vt 0.572685 0.173873
vt 0.570439 0.168079
vt 0.56564 0.165733
vt 0.573821 0.171334
vt 0.576162 0.175915
vt 0.561599 0.197232
vt 0.551378 0.193706
vt 0.55616 0.196079
vt 0.549157 0.187911
vt 0.547985 0.190469
vt 0.545641 0.185893
vn 0.6478862 -0.5330439 -0.5441577
vn 0.58891 -0.6585189 -0.4685486
vn 0.7925845 -0.5679114 -0.2220052
vn 0.7298068 -0.6726952 -0.1219143
vn 0.8675014 -0.4840561 0.1145907
vn 0.7940161 -0.5626358 0.2301726
vn 0.8612374 -0.2942389 0.4143594
vn 0.7717638 -0.3450926 0.534127
vn 0.7747362 -0.02736891 0.6316919
vn 0.6664237 -0.05320075 0.7436726
vn 0.6211637 0.2759333 0.7334961
vn 0.4940352 0.2686178 0.8269061
vn 0.4239096 0.5694878 0.7042616
vn 0.2808753 0.5713657 0.7711357
vn 0.2130141 0.8086005 0.5484435
vn 0.05937666 0.8089431 0.5848808
vn 0.02056899 0.956875 0.289771
vn -0.1367799 0.9451922 0.2964844
vn -0.1241381 0.9917365 -0.03238009
vn -0.2776801 0.9593641 -0.05014265
vn -0.199059 0.9078771 -0.3689645
vn -0.3418892 0.8493031 -0.4022389
vn -0.1927898 0.7180623 -0.668744
vn -0.3196303 0.6317629 -0.7061955
vn -0.1062927 0.4511862 -0.8860772
vn -0.214303 0.3398667 -0.9157319
vn 0.04727754 0.147889 -0.9878733
vn -0.04191964 0.0180529 -0.9989579
vn 0.244526 -0.1456677 -0.9586385
vn 0.1712596 -0.2846772 -0.9432014
vn 0.4554349 -0.3847671 -0.8028283
vn 0.392776 -0.5222644 -0.7569457
vn 0.0840682 0.9132527 -0.3986253
vn 0.08859799 0.7563455 -0.648145
vn 0.1598346 0.5351411 -0.8295041
vn 0.2869354 0.2833159 -0.9150958
vn 0.4505479 0.03920283 -0.8918911
vn 0.6257518 -0.1600417 -0.7634274
vn 0.7858962 -0.2840539 -0.5492544
vn 0.9065849 -0.3139836 -0.2819897
vn 0.1469363 0.9819685 -0.1189436
vn 0.2676259 0.9520373 0.1483288
vn 0.4277654 0.828015 0.3625024
vn 0.6029804 0.6287819 0.4909665
vn 0.76659 0.3846683 0.5141692
vn 0.8936898 0.1328337 0.4285717
vn 0.9649211 -0.08836777 0.2472214
vn 0.9694518 -0.2452715 -0.002296409
vn 0.9401984 0.2821701 0.1908063
vn 0.9903941 0.124541 0.06007713
vn 0.8498622 0.4621491 0.2532835
vn 0.7331398 0.6370693 0.2380097
vn 0.6077992 0.7803088 0.1473034
vn 0.4929193 0.8700604 -0.005029913
vn 0.4060076 0.8926517 -0.1957822
vn 0.3602683 0.8446571 -0.3959307
vn 0.3626796 0.7333671 -0.5750096
vn 0.41287 0.5757376 -0.7057369
vn 0.503204 0.395764 -0.7682164
vn 0.6199316 0.2208475 -0.7529351
vn 0.7452771 0.07760577 -0.6622231
vn 0.8601472 -0.01214613 -0.5099012
vn 0.9470726 -0.03474404 -0.3191336
vn 0.9928059 0.01325752 -0.1189992
vn 0.9108671 0.2472207 -0.3304589
vn 0.8647367 0.2606445 -0.4292959
vn 0.9357756 0.2706256 -0.2260217
vn 0.9356704 0.3272991 -0.1318942
vn 0.9105759 0.4086087 -0.06237486
vn 0.8643049 0.5021852 -0.02805524
vn 0.8039176 0.5937583 -0.03416915
vn 0.7385937 0.6694139 -0.07977743
vn 0.6782679 0.7176393 -0.1579444
vn 0.6321374 0.7310821 -0.2567514
vn 0.6072228 0.707698 -0.3611705
vn 0.6073149 0.6510417 -0.4553166
vn 0.6323991 0.5697314 -0.5248595
vn 0.6786596 0.4761598 -0.5591895
vn 0.7390682 0.3845347 -0.5530925
vn 0.8044156 0.3088593 -0.5074657
vn 0.828026 0.4391963 -0.3485393
vn 0.8425326 0.4341588 -0.3188182
vn 0.8040374 0.5097991 -0.3059882
vn 0.8507328 0.4403494 -0.2869603
vn 0.8513657 0.4568235 -0.2578543
vn 0.8443481 0.4810601 -0.2359179
vn 0.8307459 0.5093856 -0.2244719
vn 0.8126295 0.5374872 -0.2252571
vn 0.7927602 0.5610779 -0.2381653
vn 0.7741526 0.576583 -0.2612277
vn 0.7596417 0.581641 -0.2909266
vn 0.7514291 0.5754852 -0.3227554
vn 0.7507775 0.5590364 -0.3518685
vn 0.7577883 0.5347907 -0.3738392
vn 0.7713845 0.5064645 -0.3853047
vn 0.7895127 0.4783364 -0.3845307
vn 0.8094077 0.4547074 -0.3716187
vn -0.7298107 0.6726905 0.1219174
vn -0.58891 0.6585199 0.4685473
vn -0.7925833 0.5679163 0.2219975
vn -0.6478823 0.5330551 0.5441515
vn -0.8675038 0.4840527 -0.1145865
vn -0.7940231 0.5626268 -0.2301705
vn -0.8612375 0.2942376 -0.4143601
vn -0.7717668 0.3450887 -0.5341253
vn -0.3927757 0.5222673 0.7569439
vn -0.45543 0.3847765 0.8028266
vn -0.17125 0.2846904 0.9431992
vn -0.244522 0.1456605 0.9586406
vn 0.04192545 -0.0180563 0.9989576
vn -0.04726912 -0.147894 0.987873
vn -0.9065859 0.31399 0.2819796
vn -0.7858915 0.2840553 0.5492603
vn -0.9694517 0.2452718 0.002296125
vn -0.9649224 0.08836905 -0.2472159
vn -0.6257517 0.1600304 0.7634298
vn -0.4505387 -0.03919787 0.8918959
vn -0.2869237 -0.2833134 0.9151002
vn -0.947072 0.03474019 0.3191358
vn -0.8601466 0.01214394 0.5099022
vn -0.9928077 -0.01325519 0.1189833
vn -0.7452745 -0.07759909 0.6622268
vn -0.6199349 -0.2208391 0.7529349
vn 0.2142947 -0.3398709 0.9157323
vn 0.1062954 -0.4511894 0.8860753
vn 0.8690429 0.493901 -0.02874326
vn 0.9008735 0.4312522 -0.04948163
vn 0.8501691 0.5259162 -0.0249955
vn 0.9138299 0.4006191 -0.06647778
vn 0.9318557 0.3453939 -0.1111216
vn 0.9369277 0.3207956 -0.1387679
vn 0.9384084 0.2813909 -0.2005215
vn 0.9348167 0.2665864 -0.234626
vn 0.9195167 0.2490235 -0.304099
vn 0.9078131 0.2462516 -0.3394634
vn 0.8780739 0.253171 -0.4060673
vn 0.8093784 0.5864514 -0.03132622
vn 0.7874603 0.6149736 -0.04139648
vn 0.7439203 0.6641782 -0.0738234
vn 0.722295 0.6848651 -0.09617561
vn 0.6826308 0.7152505 -0.1497726
vn 0.6645951 0.7249465 -0.1810138
vn 0.6348575 0.7318748 -0.2476194
vn 0.6231616 0.7291023 -0.2829832
vn 0.6078679 0.7115313 -0.3524483
vn 0.6042744 0.6967275 -0.3865531
vn 0.6057501 0.6573306 -0.4483117
vn 0.6108173 0.6327385 -0.4759668
vn 0.6288458 0.5775077 -0.5206131
vn 0.6418077 0.5468724 -0.5375997
vn 0.67364 0.4842266 -0.5583313
vn 0.6925153 0.4522191 -0.562068
vn 0.7333022 0.3916903 -0.5557398
vn 0.755217 0.3631647 -0.5456726
vn 0.7987528 0.3139558 -0.5132502
vn 0.8203753 0.2932562 -0.4909025
vn 0.8600377 0.2628649 -0.4373066
vn 0.2776746 -0.9593657 0.0501437
vn 0.1367735 -0.9451936 -0.2964829
vn 0.12414 -0.9917362 0.03237999
vn -0.02056271 -0.9568753 -0.2897703
vn -0.05936576 -0.8089471 -0.5848764
vn -0.2130135 -0.8086016 -0.5484422
vn -0.2808904 -0.5713673 -0.771129
vn -0.4239199 -0.5694849 -0.7042577
vn -0.4940552 -0.2686212 -0.8268931
vn -0.6211696 -0.275933 -0.7334912
vn -0.6664305 0.05319623 -0.7436669
vn -0.7747361 0.02736677 -0.6316922
vn -0.7717668 0.3450887 -0.5341253
vn -0.8612375 0.2942376 -0.4143601
vn 0.1990597 -0.9078743 0.3689709
vn -0.8936872 -0.1328366 -0.4285764
vn -0.9649224 0.08836905 -0.2472159
vn -0.766591 -0.3846636 -0.5141714
vn -0.6029781 -0.6287793 -0.4909725
vn -0.4277649 -0.8280143 -0.3625045
vn -0.2676229 -0.9520378 -0.1483309
vn -0.1469344 -0.9819687 0.1189447
vn -0.08407068 -0.9132502 0.3986302
vn -0.0885936 -0.7563454 0.6481456
vn 0.192791 -0.7180597 0.6687464
vn 0.3418799 -0.8493044 0.4022441
vn 0.3196191 -0.6317674 0.7061965
vn 0.1062954 -0.4511894 0.8860753
vn 0.2142947 -0.3398709 0.9157323
vn -0.1598273 -0.5351458 0.8295023
vn -0.2869237 -0.2833134 0.9151002
vn -0.04726912 -0.147894 0.987873
vn -0.4059992 -0.8926543 0.1957878
vn -0.3602602 -0.8446544 0.3959438
vn -0.3626751 -0.7333709 0.5750077
vn -0.503208 -0.3957691 0.7682112
vn -0.4128718 -0.5757403 0.7057337
vn -0.6199349 -0.2208391 0.7529349
vn -0.4505387 -0.03919787 0.8918959
vn -0.7251013 -0.3750471 0.5775532
vn -0.7968674 -0.2905929 0.5296775
vn -0.7452745 -0.07759909 0.6622268
vn -0.8637127 -0.2357105 0.4454671
vn -0.8601466 0.01214394 0.5099022
vn -0.9154735 -0.2187434 0.337727
vn -0.947072 0.03474019 0.3191358
vn -0.9442639 -0.2422748 0.2228646
vn -0.9928077 -0.01325519 0.1189833
vn -0.9456971 -0.3027254 0.1183822
vn -0.9903939 -0.1245399 -0.06008044
vn -0.9694517 0.2452718 0.002296125
vn -0.9401983 -0.2821708 -0.1908056
vn -0.849865 -0.4621431 -0.2532846
vn -0.7331416 -0.6370671 -0.2380102
vn -0.6077962 -0.7803112 -0.1473025
vn -0.4929205 -0.8700598 0.005028067
vn -0.6136956 -0.7508239 0.2442155
vn -0.6654508 -0.7338578 0.1364843
vn -0.9195567 -0.390899 0.04016848
vn -0.8698227 -0.4933645 0.0001390826
vn -0.8040723 -0.5945154 0.004387338
vn -0.7323058 -0.6789674 0.05226397
vn -0.5849057 -0.7272886 0.3590773
vn -0.5834692 -0.6668371 0.4635643
vn -0.6096138 -0.5786639 0.5417739
vn -0.6593471 -0.4761985 0.5818043
vn -0.8040389 -0.5097976 0.3059867
vn -0.1562912 -0.2392173 -0.9583049
vn 0.2210123 -0.6630671 -0.7151892
vn -0.02899906 -0.4067801 -0.9130657
vn 0.3436607 -0.7518113 -0.5627406
vn -0.3663379 0.1101746 -0.9239362
vn -0.4491524 0.292058 -0.8443721
vn 0.5376165 -0.8168679 -0.2090346
vn 0.6089584 -0.7931648 -0.007689744
vn 0.6729079 -0.6426511 0.3663255
vn 0.6657323 -0.5165612 0.538484
vn 0.5761595 -0.2092303 0.7901031
vn 0.4934776 -0.02772893 0.8693163
vn 0.8040174 0.5098301 -0.3059892
vn 0.8040264 0.509814 -0.3059923
vn 0.8040388 0.5097921 -0.305996
vn 0.8039966 0.5098649 -0.3059858
vn 0.804042 0.5097836 -0.3060018
vn 0.8040401 0.5097846 -0.3060052
vn 0.8040369 0.5097901 -0.3060046
vn 0.8040414 0.5097846 -0.3060015
vn 0.8040429 0.5097845 -0.305998
vn 0.8040617 0.509753 -0.306001
vn 0.1578357 0.4870028 0.8590205
vn -0.09086514 0.7427925 0.6633271
vn -0.2134328 0.8320872 0.5119349
vn -0.4081286 0.8989449 0.1591516
vn -0.4800774 0.8762088 -0.04223677
vn -0.5453304 0.7269378 -0.4173441
vn -0.5386298 0.6003752 -0.5911239
vn -0.4491524 0.292058 -0.8443721
vn -0.3663379 0.1101746 -0.9239362
vn 0.2841503 0.3205083 0.9036222
vn 0.4934776 -0.02772893 0.8693163
vn 0.5761595 -0.2092303 0.7901031
vn -0.7729875 -0.5800972 -0.2568608
vn -0.5725787 -0.8115993 -0.1160173
vn -0.5255207 -0.5475471 -0.6511683
vn -0.2085647 -0.8942192 -0.3960717
vn -0.7956437 -0.08988633 -0.599059
vn -0.9353447 -0.2908286 -0.2013677
vn -0.9165895 0.3044881 -0.2591343
vn -0.9981178 -0.05368621 0.02964178
vn -0.4115188 -0.89603 0.1666808
vn 0.03308497 -0.997099 0.06854938
vn -0.351043 -0.8017434 0.483711
vn 0.1085432 -0.8170124 0.5663118
vn -0.4135596 -0.5644643 0.7143868
vn -0.01199207 -0.4221423 0.9064503
vn -0.1313026 -0.3493217 -0.9277575
vn 0.2343534 -0.7446427 -0.6249686
vn -0.44717 0.1791275 -0.8763288
vn 0.5108426 -0.8556039 -0.0835567
vn 0.5921421 -0.6396336 0.4901394
vn 0.4469692 -0.1792258 0.8764113
vn 0.2980245 -0.0564908 -0.9528852
vn 0.6138028 -0.3935509 -0.684371
vn 0.8496498 -0.4824039 -0.21303
vn 0.915167 -0.2890755 0.2808998
vn 0.7852188 0.1127323 0.6088701
vn 0.9657808 -0.03231644 -0.2573387
vn 0.9930657 0.107652 0.04723795
vn 0.8273057 0.003151458 -0.5617431
vn 0.6301357 0.2009077 -0.7500435
vn 0.02292989 0.3995365 -0.9164304
vn -0.9372064 0.0408354 0.3463765
vn -0.9981178 -0.05368621 0.02964178
vn -0.8414492 0.4846669 0.238875
vn -0.9165895 0.3044881 -0.2591343
vn -0.5993412 0.3819418 0.7034988
vn -0.7759175 -0.04347655 0.6293345
vn -0.2823871 0.03564766 0.9586379
vn -0.5757489 -0.2747659 0.7700759
vn -0.5107218 0.8556885 0.08342927
vn -0.5921987 0.639481 -0.49027
vn -0.7956437 -0.08988633 -0.599059
vn -0.44717 0.1791275 -0.8763288
vn -0.2343234 0.7447662 0.6248327
vn 0.1313392 0.3493775 0.9277313
vn -0.04174595 0.9946384 -0.09461364
vn -0.1067609 0.801247 -0.5887319
vn 0.02292989 0.3995365 -0.9164304
vn 0.1938097 0.9057781 0.3768341
vn 0.5097225 0.568993 0.6453138
vn 0.7852188 0.1127323 0.6088701
vn 0.4469692 -0.1792258 0.8764113
vn 0.3830774 0.8875149 -0.2560645
vn 0.3557897 0.747532 -0.5609007
vn 0.4498772 0.4853475 -0.7496988
vn 0.5213679 0.8519611 0.04835082
vn 0.718347 0.6541263 0.2368467
vn 0.8985297 0.3699064 0.2362487
vn 0.9930657 0.107652 0.04723795
vn 0.915167 -0.2890755 0.2808998
vn 0.8040296 0.5097809 -0.306039
vn 0.6301357 0.2009077 -0.7500435
vn 0.2980245 -0.0564908 -0.9528852
vn 0.8273057 0.003151458 -0.5617431
vn 0.9657808 -0.03231644 -0.2573387
vn -0.01199207 -0.4221423 0.9064503
vn -0.5757489 -0.2747659 0.7700759
vn -0.2823871 0.03564766 0.9586379
vn -0.8040505 -0.5098056 0.3059431
vn -0.7759175 -0.04347655 0.6293345
vn -0.9372064 0.0408354 0.3463765
g GVG_RocketDishRight_mesh_0
f 3/3/3 2/2/2 1/1/1
f 4/4/4 2/2/2 3/3/3
f 5/5/5 4/4/4 3/3/3
f 6/6/6 4/4/4 5/5/5
f 7/7/7 6/6/6 5/5/5
f 8/8/8 6/6/6 7/7/7
f 9/9/9 8/8/8 7/7/7
f 10/10/10 8/8/8 9/9/9
f 11/11/11 10/10/10 9/9/9
f 12/12/12 10/10/10 11/11/11
f 13/13/13 12/12/12 11/11/11
f 14/14/14 12/12/12 13/13/13
f 15/15/15 14/14/14 13/13/13
f 16/16/16 14/14/14 15/15/15
f 17/17/17 16/16/16 15/15/15
f 18/18/18 16/16/16 17/17/17
f 19/19/19 18/18/18 17/17/17
f 20/20/20 18/18/18 19/19/19
f 21/21/21 20/20/20 19/19/19
f 22/22/22 20/20/20 21/21/21
f 23/23/23 22/22/22 21/21/21
f 24/24/24 22/22/22 23/23/23
f 25/25/25 24/24/24 23/23/23
f 26/26/26 24/24/24 25/25/25
f 27/27/27 26/26/26 25/25/25
f 28/28/28 26/26/26 27/27/27
f 29/29/29 28/28/28 27/27/27
f 30/30/30 28/28/28 29/29/29
f 31/31/31 30/30/30 29/29/29
f 32/32/32 30/30/30 31/31/31
f 1/1/1 32/32/32 31/31/31
f 2/2/2 32/32/32 1/1/1
f 21/21/21 19/19/19 33/33/33
f 34/34/34 21/21/21 33/33/33
f 23/23/23 21/21/21 34/34/34
f 35/35/35 23/23/23 34/34/34
f 25/25/25 23/23/23 35/35/35
f 36/36/36 25/25/25 35/35/35
f 27/27/27 25/25/25 36/36/36
f 37/37/37 27/27/27 36/36/36
f 29/29/29 27/27/27 37/37/37
f 38/38/38 29/29/29 37/37/37
f 31/31/31 29/29/29 38/38/38
f 39/39/39 31/31/31 38/38/38
f 1/1/1 31/31/31 39/39/39
f 40/40/40 1/1/1 39/39/39
f 33/33/33 19/19/19 41/41/41
f 19/19/19 17/17/17 41/41/41
f 41/41/41 17/17/17 42/42/42
f 17/17/17 15/15/15 42/42/42
f 42/42/42 15/15/15 43/43/43
f 15/15/15 13/13/13 43/43/43
f 43/43/43 13/13/13 44/44/44
f 13/13/13 11/11/11 44/44/44
f 44/44/44 11/11/11 45/45/45
f 11/11/11 9/9/9 45/45/45
f 45/45/45 9/9/9 46/46/46
f 9/9/9 7/7/7 46/46/46
f 46/46/46 7/7/7 47/47/47
f 7/7/7 5/5/5 47/47/47
f 47/47/47 5/5/5 48/48/48
f 48/48/48 3/3/3 40/40/40
f 5/5/5 3/3/3 48/48/48
f 46/46/46 47/47/47 49/49/49
f 49/49/49 47/47/47 50/50/50
f 47/47/47 48/48/48 50/50/50
f 51/51/51 46/46/46 49/49/49
f 45/45/45 46/46/46 51/51/51
f 52/52/52 45/45/45 51/51/51
f 44/44/44 45/45/45 52/52/52
f 53/53/53 44/44/44 52/52/52
f 43/43/43 44/44/44 53/53/53
f 54/54/54 43/43/43 53/53/53
f 42/42/42 43/43/43 54/54/54
f 55/55/55 42/42/42 54/54/54
f 41/41/41 42/42/42 55/55/55
f 56/56/56 41/41/41 55/55/55
f 33/33/33 41/41/41 56/56/56
f 57/57/57 33/33/33 56/56/56
f 34/34/34 33/33/33 57/57/57
f 58/58/58 34/34/34 57/57/57
f 35/35/35 34/34/34 58/58/58
f 59/59/59 35/35/35 58/58/58
f 36/36/36 35/35/35 59/59/59
f 60/60/60 36/36/36 59/59/59
f 37/37/37 36/36/36 60/60/60
f 61/61/61 37/37/37 60/60/60
f 38/38/38 37/37/37 61/61/61
f 62/62/62 38/38/38 61/61/61
f 39/39/39 38/38/38 62/62/62
f 63/63/63 39/39/39 62/62/62
f 40/40/40 39/39/39 63/63/63
f 64/64/64 40/40/40 63/63/63
f 48/48/48 40/40/40 64/64/64
f 50/50/50 48/48/48 64/64/64
f 63/63/63 62/62/62 65/65/65
f 65/65/65 62/62/62 66/66/66
f 62/62/62 61/61/61 66/66/66
f 67/67/67 63/63/63 65/65/65
f 64/64/64 63/63/63 67/67/67
f 68/68/68 64/64/64 67/67/67
f 50/50/50 64/64/64 68/68/68
f 69/69/69 50/50/50 68/68/68
f 49/49/49 50/50/50 69/69/69
f 70/70/70 49/49/49 69/69/69
f 51/51/51 49/49/49 70/70/70
f 71/71/71 51/51/51 70/70/70
f 52/52/52 51/51/51 71/71/71
f 72/72/72 52/52/52 71/71/71
f 53/53/53 52/52/52 72/72/72
f 73/73/73 53/53/53 72/72/72
f 54/54/54 53/53/53 73/73/73
f 74/74/74 54/54/54 73/73/73
f 55/55/55 54/54/54 74/74/74
f 75/75/75 55/55/55 74/74/74
f 56/56/56 55/55/55 75/75/75
f 76/76/76 56/56/56 75/75/75
f 57/57/57 56/56/56 76/76/76
f 77/77/77 57/57/57 76/76/76
f 58/58/58 57/57/57 77/77/77
f 78/78/78 58/58/58 77/77/77
f 59/59/59 58/58/58 78/78/78
f 79/79/79 59/59/59 78/78/78
f 60/60/60 59/59/59 79/79/79
f 80/80/80 60/60/60 79/79/79
f 61/61/61 60/60/60 80/80/80
f 66/66/66 61/61/61 80/80/80
f 66/66/66 80/80/80 81/81/81
f 82/82/82 66/66/66 81/81/81
f 83/83/83 82/82/82 81/81/81
f 83/83/83 84/84/84 82/82/82
f 83/83/83 85/85/85 84/84/84
f 83/83/83 86/86/86 85/85/85
f 83/83/83 87/87/87 86/86/86
f 83/83/83 88/88/88 87/87/87
f 83/83/83 89/89/89 88/88/88
f 83/83/83 90/90/90 89/89/89
f 83/83/83 91/91/91 90/90/90
f 83/83/83 92/92/92 91/91/91
f 83/83/83 93/93/93 92/92/92
f 83/83/83 94/94/94 93/93/93
f 83/83/83 95/95/95 94/94/94
f 83/83/83 96/96/96 95/95/95
f 83/83/83 97/97/97 96/96/96
f 83/83/83 81/81/81 97/97/97
f 81/81/81 80/80/80 97/97/97
f 97/97/97 79/79/79 96/96/96
f 80/80/80 79/79/79 97/97/97
f 96/96/96 78/78/78 95/95/95
f 79/79/79 78/78/78 96/96/96
f 95/95/95 77/77/77 94/94/94
f 78/78/78 77/77/77 95/95/95
f 94/94/94 76/76/76 93/93/93
f 77/77/77 76/76/76 94/94/94
f 93/93/93 75/75/75 92/92/92
f 76/76/76 75/75/75 93/93/93
f 92/92/92 74/74/74 91/91/91
f 75/75/75 74/74/74 92/92/92
f 91/91/91 73/73/73 90/90/90
f 74/74/74 73/73/73 91/91/91
f 73/73/73 72/72/72 90/90/90
f 90/90/90 72/72/72 89/89/89
f 72/72/72 71/71/71 89/89/89
f 89/89/89 71/71/71 88/88/88
f 71/71/71 70/70/70 88/88/88
f 88/88/88 70/70/70 87/87/87
f 70/70/70 69/69/69 87/87/87
f 87/87/87 69/69/69 86/86/86
f 69/69/69 68/68/68 86/86/86
f 86/86/86 68/68/68 85/85/85
f 68/68/68 67/67/67 85/85/85
f 85/85/85 67/67/67 84/84/84
f 67/67/67 65/65/65 84/84/84
f 84/84/84 65/65/65 82/82/82
f 65/65/65 66/66/66 82/82/82
f 3/3/3 1/1/1 40/40/40
f 100/100/100 99/99/99 98/98/98
f 101/101/101 99/99/99 100/100/100
f 100/100/100 98/98/98 102/102/102
f 102/102/102 98/98/98 103/103/103
f 102/102/102 103/103/103 104/104/104
f 104/104/104 103/103/103 105/105/105
f 101/101/101 106/106/106 99/99/99
f 107/107/107 106/106/106 101/101/101
f 107/107/107 108/108/108 106/106/106
f 109/109/109 108/108/108 107/107/107
f 109/109/109 110/110/110 108/108/108
f 111/111/111 110/110/110 109/109/109
f 112/112/112 101/101/101 100/100/100
f 113/113/113 101/101/101 112/112/112
f 113/113/113 107/107/107 101/101/101
f 114/114/114 100/100/100 102/102/102
f 112/112/112 100/100/100 114/114/114
f 115/115/115 102/102/102 104/104/104
f 114/114/114 102/102/102 115/115/115
f 116/116/116 109/109/109 107/107/107
f 116/116/116 107/107/107 113/113/113
f 117/117/117 109/109/109 116/116/116
f 117/117/117 111/111/111 109/109/109
f 118/118/118 111/111/111 117/117/117
f 119/119/119 113/113/113 112/112/112
f 120/120/120 113/113/113 119/119/119
f 120/120/120 116/116/116 113/113/113
f 121/121/121 112/112/112 114/114/114
f 119/119/119 112/112/112 121/121/121
f 122/122/122 117/117/117 116/116/116
f 122/122/122 116/116/116 120/120/120
f 123/123/123 117/117/117 122/122/122
f 111/111/111 124/124/124 110/110/110
f 125/125/125 124/124/124 111/111/111
f 128/128/128 127/127/127 126/126/126
f 126/126/126 127/127/127 129/129/129
f 127/127/127 130/130/130 129/129/129
f 129/129/129 130/130/130 131/131/131
f 130/130/130 132/132/132 131/131/131
f 131/131/131 132/132/132 133/133/133
f 132/132/132 134/134/134 133/133/133
f 133/133/133 134/134/134 135/135/135
f 134/134/134 136/136/136 135/135/135
f 137/137/137 128/128/128 126/126/126
f 138/138/138 128/128/128 137/137/137
f 139/139/139 138/138/138 137/137/137
f 140/140/140 138/138/138 139/139/139
f 141/141/141 140/140/140 139/139/139
f 142/142/142 140/140/140 141/141/141
f 143/143/143 142/142/142 141/141/141
f 144/144/144 142/142/142 143/143/143
f 145/145/145 144/144/144 143/143/143
f 146/146/146 144/144/144 145/145/145
f 147/147/147 146/146/146 145/145/145
f 148/148/148 146/146/146 147/147/147
f 149/149/149 148/148/148 147/147/147
f 150/150/150 148/148/148 149/149/149
f 151/151/151 150/150/150 149/149/149
f 152/152/152 150/150/150 151/151/151
f 153/153/153 152/152/152 151/151/151
f 154/154/154 152/152/152 153/153/153
f 155/155/155 154/154/154 153/153/153
f 156/156/156 154/154/154 155/155/155
f 157/157/157 156/156/156 155/155/155
f 136/136/136 156/156/156 157/157/157
f 135/135/135 136/136/136 157/157/157
f 160/160/160 159/159/159 158/158/158
f 161/161/161 159/159/159 160/160/160
f 161/161/161 162/162/162 159/159/159
f 163/163/163 162/162/162 161/161/161
f 163/163/163 164/164/164 162/162/162
f 165/165/165 164/164/164 163/163/163
f 165/165/165 166/166/166 164/164/164
f 167/167/167 166/166/166 165/165/165
f 167/167/167 168/168/168 166/166/166
f 169/169/169 168/168/168 167/167/167
f 169/169/169 170/170/170 168/168/168
f 171/171/171 170/170/170 169/169/169
f 160/160/160 158/158/158 172/172/172
f 173/173/173 171/171/171 169/169/169
f 174/174/174 171/171/171 173/173/173
f 175/175/175 169/169/169 167/167/167
f 173/173/173 169/169/169 175/175/175
f 176/176/176 167/167/167 165/165/165
f 175/175/175 167/167/167 176/176/176
f 177/177/177 165/165/165 163/163/163
f 176/176/176 165/165/165 177/177/177
f 177/177/177 163/163/163 178/178/178
f 178/178/178 163/163/163 161/161/161
f 178/178/178 161/161/161 179/179/179
f 179/179/179 161/161/161 160/160/160
f 180/180/180 160/160/160 172/172/172
f 179/179/179 160/160/160 180/180/180
f 180/180/180 172/172/172 181/181/181
f 181/181/181 172/172/172 182/182/182
f 172/172/172 183/183/183 182/182/182
f 172/172/172 158/158/158 183/183/183
f 182/182/182 183/183/183 184/184/184
f 182/182/182 184/184/184 185/185/185
f 185/185/185 184/184/184 186/186/186
f 187/187/187 182/182/182 185/185/185
f 181/181/181 182/182/182 187/187/187
f 187/187/187 185/185/185 188/188/188
f 188/188/188 185/185/185 189/189/189
f 190/190/190 178/178/178 179/179/179
f 191/191/191 179/179/179 180/180/180
f 190/190/190 179/179/179 191/191/191
f 192/192/192 180/180/180 181/181/181
f 191/191/191 180/180/180 192/192/192
f 193/193/193 187/187/187 188/188/188
f 194/194/194 187/187/187 193/193/193
f 194/194/194 181/181/181 187/187/187
f 192/192/192 181/181/181 194/194/194
f 193/193/193 188/188/188 195/195/195
f 195/195/195 188/188/188 196/196/196
f 197/197/197 193/193/193 195/195/195
f 197/197/197 195/195/195 198/198/198
f 198/198/198 195/195/195 199/199/199
f 198/198/198 199/199/199 200/200/200
f 200/200/200 199/199/199 201/201/201
f 200/200/200 201/201/201 202/202/202
f 202/202/202 201/201/201 203/203/203
f 202/202/202 203/203/203 204/204/204
f 204/204/204 203/203/203 205/205/205
f 204/204/204 205/205/205 206/206/206
f 206/206/206 205/205/205 207/207/207
f 205/205/205 208/208/208 207/207/207
f 207/207/207 208/208/208 174/174/174
f 207/207/207 174/174/174 209/209/209
f 209/209/209 174/174/174 173/173/173
f 209/209/209 173/173/173 210/210/210
f 210/210/210 173/173/173 175/175/175
f 210/210/210 175/175/175 211/211/211
f 211/211/211 175/175/175 176/176/176
f 211/211/211 176/176/176 212/212/212
f 212/212/212 176/176/176 177/177/177
f 212/212/212 177/177/177 213/213/213
f 213/213/213 177/177/177 178/178/178
f 213/213/213 178/178/178 190/190/190
f 214/214/214 213/213/213 190/190/190
f 215/215/215 213/213/213 214/214/214
f 215/215/215 212/212/212 213/213/213
f 216/216/216 207/207/207 209/209/209
f 217/217/217 209/209/209 210/210/210
f 216/216/216 209/209/209 217/217/217
f 217/217/217 210/210/210 218/218/218
f 218/218/218 210/210/210 211/211/211
f 218/218/218 211/211/211 219/219/219
f 219/219/219 211/211/211 212/212/212
f 219/219/219 212/212/212 215/215/215
f 214/214/214 190/190/190 220/220/220
f 220/220/220 190/190/190 191/191/191
f 220/220/220 191/191/191 221/221/221
f 221/221/221 191/191/191 192/192/192
f 221/221/221 192/192/192 222/222/222
f 222/222/222 192/192/192 194/194/194
f 222/222/222 194/194/194 223/223/223
f 223/223/223 194/194/194 193/193/193
f 223/223/223 193/193/193 197/197/197
f 224/224/224 215/215/215 214/214/214
f 224/224/224 214/214/214 220/220/220
f 224/224/224 220/220/220 221/221/221
f 224/224/224 221/221/221 222/222/222
f 224/224/224 222/222/222 223/223/223
f 224/224/224 223/223/223 197/197/197
f 224/224/224 219/219/219 215/215/215
f 224/224/224 218/218/218 219/219/219
f 224/224/224 217/217/217 218/218/218
f 224/224/224 216/216/216 217/217/217
f 224/224/224 197/197/197 198/198/198
f 224/224/224 206/206/206 216/216/216
f 206/206/206 207/207/207 216/216/216
f 224/224/224 204/204/204 206/206/206
f 224/224/224 202/202/202 204/204/204
f 224/224/224 200/200/200 202/202/202
f 224/224/224 198/198/198 200/200/200
f 227/227/227 226/226/226 225/225/225
f 228/228/228 226/226/226 227/227/227
f 227/227/227 225/225/225 229/229/229
f 229/229/229 225/225/225 230/230/230
f 228/228/228 231/231/231 226/226/226
f 232/232/232 231/231/231 228/228/228
f 232/232/232 233/233/233 231/231/231
f 234/234/234 233/233/233 232/232/232
f 234/234/234 235/235/235 233/233/233
f 236/236/236 235/235/235 234/234/234
f 239/239/239 238/238/238 237/237/237
f 240/240/240 237/237/237 238/238/238
f 241/241/241 238/238/238 239/239/239
f 242/242/242 241/241/241 239/239/239
f 243/243/243 241/241/241 242/242/242
f 244/244/244 243/243/243 242/242/242
f 245/245/245 243/243/243 244/244/244
f 246/246/246 245/245/245 244/244/244
f 249/249/249 248/248/248 247/247/247
f 249/249/249 250/250/250 248/248/248
f 251/251/251 250/250/250 249/249/249
f 251/251/251 252/252/252 250/250/250
f 253/253/253 252/252/252 251/251/251
f 253/253/253 254/254/254 252/252/252
f 255/255/255 254/254/254 253/253/253
f 247/247/247 248/248/248 256/256/256
f 247/247/247 256/256/256 257/257/257
f 257/257/257 256/256/256 258/258/258
f 261/261/261 260/260/260 259/259/259
f 262/262/262 260/260/260 261/261/261
f 261/261/261 259/259/259 263/263/263
f 263/263/263 259/259/259 264/264/264
f 263/263/263 264/264/264 265/265/265
f 265/265/265 264/264/264 266/266/266
f 262/262/262 267/267/267 260/260/260
f 268/268/268 267/267/267 262/262/262
f 268/268/268 269/269/269 267/267/267
f 270/270/270 269/269/269 268/268/268
f 270/270/270 271/271/271 269/269/269
f 272/272/272 271/271/271 270/270/270
f 273/273/273 262/262/262 261/261/261
f 274/274/274 262/262/262 273/273/273
f 274/274/274 268/268/268 262/262/262
f 275/275/275 261/261/261 263/263/263
f 273/273/273 261/261/261 275/275/275
f 276/276/276 270/270/270 268/268/268
f 276/276/276 268/268/268 274/274/274
f 277/277/277 270/270/270 276/276/276
f 277/277/277 272/272/272 270/270/270
f 278/278/278 272/272/272 277/277/277
f 279/279/279 274/274/274 273/273/273
f 280/280/280 274/274/274 279/279/279
f 280/280/280 276/276/276 274/274/274
f 281/281/281 277/277/277 276/276/276
f 281/281/281 276/276/276 280/280/280
f 282/282/282 277/277/277 281/281/281
f 282/282/282 278/278/278 277/277/277
f 283/283/283 278/278/278 282/282/282
f 284/284/284 282/282/282 281/281/281
f 285/285/285 282/282/282 284/284/284
f 286/286/286 281/281/281 280/280/280
f 284/284/284 281/281/281 286/286/286
f 286/286/286 280/280/280 287/287/287
f 287/287/287 280/280/280 279/279/279
f 288/288/288 273/273/273 275/275/275
f 279/279/279 273/273/273 288/288/288
f 291/291/291 290/290/290 289/289/289
f 292/292/292 290/290/290 291/291/291
f 291/291/291 289/289/289 293/293/293
f 293/293/293 289/289/289 294/294/294
f 293/293/293 294/294/294 295/295/295
f 295/295/295 294/294/294 296/296/296
f 297/297/297 292/292/292 291/291/291
f 298/298/298 292/292/292 297/297/297
f 298/298/298 299/299/299 292/292/292
f 300/300/300 299/299/299 298/298/298
f 301/301/301 291/291/291 293/293/293
f 297/297/297 291/291/291 301/301/301
f 301/301/301 293/293/293 302/302/302
f 302/302/302 293/293/293 295/295/295
f 303/303/303 298/298/298 297/297/297
f 304/304/304 298/298/298 303/303/303
f 304/304/304 300/300/300 298/298/298
f 305/305/305 300/300/300 304/304/304
f 306/306/306 297/297/297 301/301/301
f 303/303/303 297/297/297 306/306/306
f 307/307/307 301/301/301 302/302/302
f 306/306/306 301/301/301 307/307/307
f 307/307/307 302/302/302 308/308/308
f 308/308/308 302/302/302 309/309/309
f 302/302/302 295/295/295 309/309/309
f 310/310/310 304/304/304 303/303/303
f 311/311/311 304/304/304 310/310/310
f 311/311/311 305/305/305 304/304/304
f 312/312/312 305/305/305 311/311/311
f 313/313/313 303/303/303 306/306/306
f 310/310/310 303/303/303 313/313/313
f 314/314/314 306/306/306 307/307/307
f 313/313/313 306/306/306 314/314/314
f 315/315/315 307/307/307 308/308/308
f 314/314/314 307/307/307 315/315/315
f 315/315/315 308/308/308 316/316/316
f 316/316/316 308/308/308 317/317/317
f 318/318/318 312/312/312 311/311/311
f 318/318/318 311/311/311 310/310/310
f 318/318/318 310/310/310 313/313/313
f 318/318/318 313/313/313 314/314/314
f 318/318/318 314/314/314 315/315/315
f 318/318/318 315/315/315 316/316/316
f 318/318/318 319/319/319 312/312/312
f 319/319/319 320/320/320 312/312/312
f 312/312/312 320/320/320 305/305/305
f 318/318/318 321/321/321 319/319/319
f 318/318/318 316/316/316 322/322/322
f 318/318/318 322/322/322 321/321/321
f 309/309/309 295/295/295 323/323/323
f 272/272/272 324/324/324 271/271/271
f 325/325/325 324/324/324 272/272/272
f 326/326/326 271/271/271 324/324/324
f 326/326/326 324/324/324 327/327/327
f 326/326/326 327/327/327 328/328/328
f 326/326/326 328/328/328 266/266/266
f 326/326/326 266/266/266 264/264/264
f 326/326/326 264/264/264 259/259/259
f 326/326/326 259/259/259 260/260/260
f 326/326/326 269/269/269 271/271/271
f 326/326/326 267/267/267 269/269/269
f 326/326/326 260/260/260 267/267/267
