g GVG_Stove_BombBall3_mesh
v 429.34 55.58089 -146.6187
v 443.8737 58.44665 -153.5206
v 426.9877 58.28538 -152.8948
v 443.0416 59.4033 -155.7407
v 445.3479 57.92395 -151.4985
v 433.5078 54.10313 -140.9017
v 447.32 57.88633 -149.872
v 439.083 53.99677 -136.3036
v 449.5969 58.33747 -148.8005
v 445.52 55.2722 -133.2744
v 451.9557 59.23323 -148.3889
v 452.1886 57.80457 -132.1105
v 454.1656 60.4859 -148.6773
v 458.436 61.34601 -132.9261
v 456.0101 61.97289 -149.6377
v 463.6508 65.54984 -135.6411
v 457.3088 63.54861 -151.176
v 467.3225 70.00459 -139.9899
v 457.9347 65.05886 -153.1415
v 469.0916 74.27416 -145.5468
v 457.8262 66.35577 -155.342
v 468.7849 77.94065 -151.7678
v 456.9941 67.31239 -157.562
v 466.4325 80.64513 -158.0439
v 455.5199 67.83511 -159.5842
v 462.2648 82.12289 -163.7608
v 453.5478 67.87273 -161.2107
v 456.6895 82.22926 -168.359
v 451.2709 67.42159 -162.2822
v 450.2526 80.95383 -171.3882
v 448.912 66.52583 -162.6938
v 443.5839 78.42145 -172.552
v 446.7022 65.27317 -162.4054
v 437.3365 74.88 -171.7365
v 444.8576 63.78617 -161.445
v 432.1217 70.67619 -169.0215
v 443.5589 62.21044 -159.9067
v 428.45 66.22144 -164.6727
v 442.9331 60.7002 -157.9412
v 426.681 61.95187 -159.1158
v 436.8926 92.8632 -176.2589
v 427.6878 87.64535 -175.0573
v 420.0045 81.45155 -171.057
v 414.5948 74.88805 -164.6496
v 411.9883 68.59739 -156.4623
v 412.4402 63.1953 -147.2965
v 415.906 59.21059 -138.0494
v 422.0467 57.03331 -129.6262
v 430.2611 56.87659 -122.8515
v 439.7452 58.75578 -118.3883
v 449.5705 62.4869 -116.6736
v 458.7754 67.70474 -117.8751
v 466.4586 73.89857 -121.8755
v 471.8683 80.46205 -128.2829
v 474.4748 86.75272 -136.4702
v 474.023 92.15479 -145.636
v 436.526 62.80784 -112.0066
v 426.1108 60.74415 -116.9081
v 447.3161 66.90531 -110.1236
v 457.4247 72.63548 -111.4432
v 465.8624 79.43742 -115.8362
v 471.8032 86.64534 -122.8727
v 474.6657 93.55367 -131.8639
v 433.2709 68.18587 -106.7163
v 422.3796 66.02786 -111.8417
v 417.0899 60.91626 -124.348
v 410.3463 63.30732 -133.5982
v 406.54 67.68327 -143.7532
v 406.0439 73.61577 -153.819
v 408.9063 80.52408 -162.8101
v 414.8471 87.732 -169.8467
v 423.2849 94.53396 -174.2397
v 405.8946 68.70817 -129.2946
v 401.9144 73.2841 -139.9137
v 412.9464 66.20784 -119.6217
v 404.3889 86.71178 -159.8416
v 410.6012 94.24912 -167.1997
v 401.3956 79.48773 -150.4395
v 402.7456 75.1771 -125.3268
v 398.7654 79.75303 -135.9459
v 409.7974 72.67677 -115.6538
v 419.2306 72.49679 -107.8738
v 430.1219 74.65479 -102.7485
v 441.405 78.93953 -100.7793
v 444.5541 72.4706 -104.7471
v 455.1247 78.46264 -106.127
v 463.9479 85.57545 -110.7209
v 470.1602 93.1128 -118.079
v 451.9757 84.93158 -102.1592
v 460.7989 92.04439 -106.753
v 467.0112 99.58173 -114.1111
v 427.2166 81.93192 -100.2765
v 438.0067 86.02939 -98.39343
v 448.1153 91.75955 -99.71302
v 456.553 98.5615 -104.1061
v 434.5075 93.43031 -97.69383
v 424.6822 89.69919 -99.40858
v 416.8014 79.86823 -105.1779
v 407.7805 80.04034 -112.6179
v 401.0368 82.4314 -121.8681
v 397.2306 86.80734 -132.0231
v 398.2466 85.95667 -146.4717
v 401.2399 93.1807 -155.8738
v 407.4522 100.718 -163.2319
v 396.7345 92.73985 -142.0888
v 399.5969 99.64816 -151.08
v 400.843 90.15401 -119.0697
v 397.3771 94.1387 -128.3168
v 406.9837 87.97672 -110.6465
v 415.1981 87.82 -103.8718
v 396.9254 99.5408 -137.4826
v 402.1726 98.00739 -117.0539
v 399.1985 101.4267 -124.9889
v 407.442 96.13906 -109.8259
v 414.4909 96.00457 -104.0124
v 422.6292 97.61712 -100.1825
v 431.0605 100.8188 -98.71107
v 398.8108 106.0623 -132.8542
v 409.1354 104.1706 -110.1919
v 404.9675 105.6484 -115.9088
v 414.7107 104.0642 -105.5937
v 421.1476 105.3397 -102.5645
v 438.9592 105.2963 -99.7422
v 443.7124 98.64816 -98.89542
v 451.3956 104.842 -102.8957
v 470.5571 96.1395 -154.8831
v 466.4325 80.64513 -158.0439
v 474.023 92.15479 -145.636
v 468.7849 77.94065 -151.7678
v 462.2648 82.12289 -163.7608
v 464.4164 98.31679 -163.3062
v 456.6895 82.22926 -168.359
v 456.202 98.47351 -170.081
v 450.2526 80.95383 -171.3882
v 446.718 96.59432 -174.5441
v 443.5839 78.42145 -172.552
v 436.8926 92.8632 -176.2589
v 470.3633 103.8621 -152.0846
v 474.1695 99.48618 -141.9296
v 474.4748 86.75272 -136.4702
v 474.6657 93.55367 -131.8639
v 463.6197 106.2532 -161.3349
v 454.5988 106.4253 -168.7748
v 444.1835 104.3616 -173.6762
v 433.3935 100.2641 -175.5593
v 472.6346 106.5405 -138.0068
v 473.1535 100.3368 -127.4811
v 471.8032 86.64534 -122.8727
v 470.1602 93.1128 -118.079
v 468.6546 111.1164 -148.6259
v 461.6027 113.6167 -158.2989
v 452.1695 113.7967 -166.0789
v 441.2783 111.6387 -171.2043
v 429.9951 107.354 -173.1734
v 419.4246 101.3619 -171.7935
v 423.2849 94.53396 -174.2397
v 427.6878 87.64535 -175.0573
v 410.6012 94.24912 -167.1997
v 414.8471 87.732 -169.8467
v 470.0045 106.8058 -123.5132
v 467.0112 99.58173 -114.1111
v 469.4857 113.0094 -134.039
v 458.4537 120.0857 -154.3311
v 465.5055 117.5853 -144.6581
v 426.8461 113.8229 -169.2056
v 416.2755 107.8309 -167.8257
v 465.3562 112.6777 -120.1338
v 462.4938 105.7694 -111.1426
v 460.7989 92.04439 -106.753
v 456.553 98.5615 -104.1061
v 464.8601 118.6102 -130.1996
v 461.0539 122.9862 -140.3545
v 454.3103 125.3772 -149.6048
v 445.2893 125.5493 -157.0447
v 449.0205 120.2656 -162.111
v 434.8741 123.4857 -161.9461
v 438.1292 118.1076 -167.2364
v 424.084 119.3882 -163.8291
v 413.9755 113.658 -162.5096
v 405.5377 106.8561 -158.1166
v 407.4522 100.718 -163.2319
v 399.5969 99.64816 -151.08
v 401.2399 93.1807 -155.8738
v 421.8297 123.8066 -157.2791
v 412.6248 118.5888 -156.0776
v 404.9415 112.395 -152.0773
v 399.5319 105.8315 -145.6699
v 396.9254 99.5408 -137.4826
v 396.7345 92.73985 -142.0888
v 412.2827 122.4076 -148.8107
v 420.1815 126.885 -149.8418
v 431.655 127.5377 -155.5644
v 441.1391 129.4169 -151.1013
v 449.3535 129.2602 -144.3265
v 455.4941 127.0829 -135.9033
v 458.96 123.0982 -126.6562
v 459.4117 117.6961 -117.4905
v 456.8053 111.4055 -109.3031
v 451.3956 104.842 -102.8957
v 450.1944 116.2435 -108.6731
v 445.5523 110.6113 -103.1749
v 443.7124 98.64816 -98.89542
v 438.9592 105.2963 -99.7422
v 452.431 121.6416 -115.6988
v 452.0434 126.2771 -123.564
v 449.0693 129.6965 -131.499
v 443.7999 131.5648 -138.727
v 442.9501 120.0721 -109.2801
v 439.2784 115.6173 -104.9313
v 434.0637 111.4135 -102.2162
v 444.7191 124.3416 -114.837
v 444.4124 128.0081 -121.0579
v 442.0601 130.7126 -127.3341
v 437.8924 132.1904 -133.051
v 432.3171 132.2967 -137.6492
v 436.751 131.6993 -144.5405
v 428.6126 130.0868 -148.3704
v 425.8801 131.0213 -140.6784
v 419.2115 128.4889 -141.8422
v 412.9641 124.9475 -141.0266
v 407.7493 120.7437 -138.3116
v 405.6896 117.0926 -145.378
v 401.0475 111.4604 -139.8798
v 398.8108 106.0623 -132.8542
v 404.0777 116.2889 -133.9628
v 402.3086 112.0193 -128.4059
v 402.6152 108.3529 -122.185
v 399.1985 101.4267 -124.9889
v 404.9675 105.6484 -115.9088
v 402.1726 98.00739 -117.0539
v 413.574 119.9377 -118.6107
v 414.406 118.9811 -116.3907
v 409.1354 104.1706 -110.1919
v 415.8802 118.4584 -114.3685
v 414.7107 104.0642 -105.5937
v 418.0574 118.7465 -113.1104
v 421.1476 105.3397 -102.5645
v 419.9437 119.5159 -112.3836
v 427.8162 107.8721 -101.4007
v 422.6292 97.61712 -100.1825
v 431.0605 100.8188 -98.71107
v 422.5358 120.1283 -111.809
v 424.6979 121.0203 -111.5474
v 426.5425 122.5073 -112.5078
v 427.8412 124.0831 -114.046
v 428.467 125.5933 -116.0116
v 428.3585 126.8902 -118.212
v 427.5265 127.8468 -120.4321
v 426.0522 128.3696 -122.4543
v 424.0801 128.4072 -124.0807
v 421.8032 127.956 -125.1522
v 419.4444 127.0603 -125.5639
v 417.2346 125.8076 -125.2754
v 415.39 124.3206 -124.315
v 414.0913 122.7449 -122.7768
v 413.4655 121.2347 -120.8112
v 450.7631 62.20334 -155.9561
v 414.4419 138.0989 -118.7272
v 405.4766 129.4361 -116.846
v 404.1702 131.0277 -120.3219
v 407.7424 129.2207 -111.8575
v 403.8964 133.3164 -123.9187
v 404.7271 135.9442 -127.1741
v 406.5724 138.6793 -129.7904
v 411.9921 143.3292 -133.8221
v 415.4044 145.6467 -134.8953
v 420.1166 147.8247 -135.2626
v 424.67 148.3584 -133.0863
v 428.7997 148.1869 -130.1115
v 431.032 147.0598 -126.63
v 432.2899 145.6136 -123.274
v 432.4539 143.6531 -119.9476
v 431.4409 140.3055 -114.7729
v 427.0048 137.4799 -110.619
v 423.1775 134.5256 -108.6471
v 418.7981 131.9254 -107.6907
v 414.1934 129.8647 -107.7929
v 410.7237 129.1638 -109.3988
v 428.7997 148.1869 -130.1115
v 437.7493 129.7382 -130.5783
v 431.032 147.0598 -126.63
v 439.377 127.8668 -126.2354
v 432.2899 145.6136 -123.274
v 434.8653 130.7608 -134.5344
v 424.67 148.3584 -133.0863
v 431.0073 130.8344 -137.7162
v 439.5892 125.3297 -121.9306
v 432.4539 143.6531 -119.9476
v 438.3651 122.3752 -118.0853
v 431.4409 140.3055 -114.7729
v 435.8244 119.2926 -115.076
v 427.0048 137.4799 -110.619
v 420.1166 147.8247 -135.2626
v 426.553 129.9518 -139.8124
v 415.4044 145.6467 -134.8953
v 421.9384 128.1995 -140.6177
v 411.9921 143.3292 -133.8221
v 417.6154 125.7489 -140.0534
v 406.5724 138.6793 -129.7904
v 414.0068 122.8399 -138.1746
v 418.8239 111.2981 -115.5345
v 414.9659 111.3717 -118.7162
v 410.7237 129.1638 -109.3988
v 407.7424 129.2207 -111.8575
v 414.1934 129.8647 -107.7929
v 423.2782 112.1806 -113.4383
v 418.7981 131.9254 -107.6907
v 427.8927 113.933 -112.6329
v 423.1775 134.5256 -108.6471
v 432.2159 116.3836 -113.1972
v 427.0048 137.4799 -110.619
v 435.8244 119.2926 -115.076
v 412.0819 112.3942 -122.6723
v 405.4766 129.4361 -116.846
v 410.4542 114.2657 -127.0153
v 404.1702 131.0277 -120.3219
v 410.2419 116.8028 -131.32
v 403.8964 133.3164 -123.9187
v 411.4662 119.7573 -135.1653
v 404.7271 135.9442 -127.1741
v 414.0068 122.8399 -138.1746
v 406.5724 138.6793 -129.7904
v 411.3254 134.3308 -118.4924
v 410.9018 134.7317 -119.9264
v 406.4449 137.7979 -112.377
v 404.7747 138.6619 -114.1668
v 407.6171 137.3073 -111.0792
v 412.0859 134.2265 -117.3111
v 409.0376 137.3063 -110.1189
v 413.106 134.3884 -116.3954
v 410.5637 137.7442 -109.4602
v 414.2863 134.804 -115.8432
v 412.0472 138.5964 -109.2144
v 415.5109 135.4297 -115.7008
v 417.6205 137.0462 -116.6461
v 414.3243 141.1721 -110.001
v 410.8537 135.3494 -121.3698
v 404.4037 139.887 -115.5911
v 411.1845 136.1024 -122.628
v 403.6338 138.2973 -111.8797
v 402.9329 138.7912 -113.4491
v 405.4653 138.7438 -109.1989
v 404.508 138.305 -110.4765
v 407.368 140.8735 -107.1256
v 406.4151 139.6169 -108.2893
v 408.4482 143.8259 -107.6274
v 388.1377 134.6054 -105.8761
v 388.5841 135.608 -109.6713
v 390.9125 134.054 -104.7492
v 391.1907 134.6922 -102.7081
v 393.9467 135.9173 -102.9489
v 395.8063 137.5459 -101.8049
v 395.8063 137.5459 -101.8049
v 401.6098 139.6192 -115.1829
v 388.2177 137.2526 -111.5849
v 401.4267 140.7628 -116.2042
v 405.3643 141.2997 -116.3739
v 388.2917 139.1554 -113.0377
v 404.4037 139.887 -115.5911
v 390.9125 134.054 -104.7492
v 388.1377 134.6054 -105.8761
v 393.6566 141.2551 -109.0555
v 390.9125 134.054 -104.7492
v 393.6566 141.2551 -109.0555
v 391.1907 134.6922 -102.7081
v 388.1377 134.6054 -105.8761
v 388.5841 135.608 -109.6713
v 388.2177 137.2526 -111.5849
v 388.2917 139.1554 -113.0377
v 388.5248 141.0411 -113.6479
v 389.2823 143.0688 -113.9882
v 390.4905 145.0399 -114.0252
v 391.9837 146.5064 -113.3768
v 393.6408 147.4589 -112.3053
v 396.6997 147.5538 -109.3652
v 398.4745 145.229 -106.2397
v 398.6094 141.5138 -104.1597
v 395.8063 137.5459 -101.8049
v 408.3888 146.3922 -109.5051
v 407.1088 147.5522 -112.7407
v 413.8087 146.0624 -114.742
v 414.998 144.0363 -112.1441
v 418.155 139.6042 -121.6589
v 416.3748 139.5555 -123.7786
v 411.2108 146.4778 -116.8061
v 409.6829 146.0122 -117.3942
v 415.1956 139.1541 -124.3672
v 408.2005 145.1793 -117.6887
v 413.9729 138.5544 -124.5758
v 406.9073 144.0374 -117.6028
v 412.8262 137.815 -124.3836
v 405.93 142.7007 -117.15
v 411.8641 136.9516 -123.6654
v 418.6301 138.6336 -118.9037
v 414.3243 141.1721 -110.001
v 417.6205 137.0462 -116.6461
v 408.4482 143.8259 -107.6274
v 403.4651 146.1423 -116.5565
v 405.2701 146.9986 -115.1484
v 402.6182 144.955 -117.0963
v 401.957 143.5707 -117.2171
v 396.6997 147.5538 -109.3652
v 393.6408 147.4589 -112.3053
v 391.9837 146.5064 -113.3768
v 390.4905 145.0399 -114.0252
v 389.2823 143.0688 -113.9882
v 395.8063 137.5459 -101.8049
v 406.9073 144.0374 -117.6028
v 401.957 143.5707 -117.2171
v 396.6997 147.5538 -109.3652
v 391.1907 134.6922 -102.7081
v 393.6566 141.2551 -109.0555
v 393.9467 135.9173 -102.9489
v 395.8063 137.5459 -101.8049
v 405.3643 141.2997 -116.3739
v 405.93 142.7007 -117.15
v 401.4267 140.7628 -116.2042
v 404.4037 139.887 -115.5911
v 405.3643 141.2997 -116.3739
v 401.6098 139.6192 -115.1829
v 401.4267 140.7628 -116.2042
v 401.7944 141.775 -114.4914
v 388.2917 139.1554 -113.0377
v 405.93 142.7007 -117.15
v 388.2917 139.1554 -113.0377
v 401.7944 141.775 -114.4914
v 388.5248 141.0411 -113.6479
v 388.5248 141.0411 -113.6479
v 401.957 143.5707 -117.2171
v 389.2823 143.0688 -113.9882
v 401.7944 141.775 -114.4914
v 411.1845 136.1024 -122.628
v 411.8641 136.9516 -123.6654
v 405.3643 141.2997 -116.3739
v 405.3643 141.2997 -116.3739
v 411.8641 136.9516 -123.6654
v 405.93 142.7007 -117.15
v 404.4037 139.887 -115.5911
v 411.1845 136.1024 -122.628
v 405.3643 141.2997 -116.3739
v 401.7944 141.775 -114.4914
v 406.9073 144.0374 -117.6028
v 401.957 143.5707 -117.2171
v 388.5248 141.0411 -113.6479
vt 0.59681 0.870415
vt 0.624487 0.857876
vt 0.591303 0.85905
vt 0.622549 0.853849
vt 0.627551 0.861668
vt 0.605477 0.881108
vt 0.631443 0.864854
vt 0.616464 0.890102
vt 0.635785 0.867127
vt 0.628714 0.896532
vt 0.640153 0.868263
vt 0.641049 0.899774
vt 0.644123 0.868152
vt 0.652277 0.899506
vt 0.647306 0.866801
vt 0.661304 0.895737
vt 0.649389 0.86434
vt 0.667236 0.888818
vt 0.650167 0.86101
vt 0.669476 0.879409
vt 0.64956 0.857133
vt 0.667782 0.868425
vt 0.647626 0.853092
vt 0.662305 0.856948
vt 0.644554 0.849284
vt 0.653575 0.846117
vt 0.640645 0.846083
vt 0.642457 0.837012
vt 0.636285 0.843805
vt 0.630057 0.830541
vt 0.631902 0.842674
vt 0.617611 0.827341
vt 0.627929 0.8428
vt 0.606354 0.827722
vt 0.624754 0.844168
vt 0.59739 0.831628
vt 0.622687 0.846642
vt 0.591588 0.838659
vt 0.621928 0.849978
vt 0.589498 0.84811
vt 0.599618 0.825017
vt 0.58298 0.825586
vt 0.569774 0.831374
vt 0.561273 0.841772
vt 0.558267 0.855728
vt 0.561004 0.871863
vt 0.569182 0.888612
vt 0.581993 0.90437
vt 0.598202 0.917636
vt 0.616263 0.927146
vt 0.634453 0.931982
vt 0.651027 0.931657
vt 0.664371 0.92617
vt 0.67316 0.916015
vt 0.676494 0.902152
vt 0.674 0.885923
vt 0.608631 0.941311
vt 0.588771 0.930837
vt 0.628632 0.946656
vt 0.646857 0.946335
vt 0.661534 0.940338
vt 0.671203 0.9292
vt 0.67487 0.91397
vt 0.600472 0.953901
vt 0.579665 0.942913
vt 0.57094 0.916245
vt 0.556836 0.898922
vt 0.547814 0.880513
vt 0.544768 0.862777
vt 0.548037 0.847434
vt 0.557357 0.836002
vt 0.571867 0.82964
vt 0.546182 0.909476
vt 0.536704 0.890199
vt 0.560976 0.927621
vt 0.536874 0.855573
vt 0.546611 0.843611
vt 0.533481 0.871632
vt 0.537684 0.919829
vt 0.528163 0.900519
vt 0.552529 0.938013
vt 0.57127 0.953347
vt 0.592127 0.964376
vt 0.61312 0.970037
vt 0.621422 0.959528
vt 0.640509 0.959224
vt 0.655878 0.952976
vt 0.665999 0.941338
vt 0.632239 0.96976
vt 0.647625 0.963527
vt 0.657748 0.95189
vt 0.583951 0.972268
vt 0.604073 0.977713
vt 0.622388 0.977466
vt 0.637114 0.971511
vt 0.594666 0.982197
vt 0.576296 0.977216
vt 0.563949 0.961681
vt 0.545969 0.946971
vt 0.531722 0.929537
vt 0.522578 0.911033
vt 0.524908 0.881927
vt 0.528284 0.865856
vt 0.53802 0.853894
vt 0.519442 0.893229
vt 0.522663 0.87785
vt 0.528577 0.938176
vt 0.520219 0.921287
vt 0.541598 0.954098
vt 0.558027 0.967538
vt 0.517349 0.905051
vt 0.528414 0.945358
vt 0.521219 0.930831
vt 0.539627 0.959064
vt 0.553775 0.970638
vt 0.569503 0.978973
vt 0.585308 0.983264
vt 0.518751 0.916878
vt 0.540168 0.961629
vt 0.53127 0.950755
vt 0.551397 0.970815
vt 0.563878 0.97743
vt 0.599666 0.983081
vt 0.611372 0.981982
vt 0.624789 0.976557
vt 0.665885 0.868929
vt 0.662305 0.856948
vt 0.674 0.885923
vt 0.667782 0.868425
vt 0.653575 0.846117
vt 0.652936 0.85287
vt 0.642457 0.837012
vt 0.636439 0.839361
vt 0.630057 0.830541
vt 0.618051 0.829759
vt 0.617611 0.827341
vt 0.599618 0.825017
vt 0.663173 0.877416
vt 0.672117 0.896121
vt 0.676494 0.902152
vt 0.67487 0.91397
vt 0.6489 0.859728
vt 0.63072 0.844841
vt 0.610463 0.834256
vt 0.590169 0.829024
vt 0.666927 0.906712
vt 0.669828 0.925403
vt 0.671203 0.9292
vt 0.665999 0.941338
vt 0.657534 0.887111
vt 0.642555 0.868566
vt 0.623482 0.852949
vt 0.602239 0.841837
vt 0.580967 0.836335
vt 0.561795 0.836962
vt 0.571867 0.82964
vt 0.58298 0.825586
vt 0.546611 0.843611
vt 0.557357 0.836002
vt 0.661561 0.935943
vt 0.657748 0.95189
vt 0.65863 0.917228
vt 0.634163 0.879007
vt 0.649194 0.897593
vt 0.572424 0.846656
vt 0.55322 0.847258
vt 0.650411 0.945115
vt 0.646788 0.960379
vt 0.647625 0.963527
vt 0.637114 0.971511
vt 0.647572 0.927197
vt 0.638505 0.908395
vt 0.624086 0.890591
vt 0.605752 0.875582
vt 0.615035 0.863347
vt 0.585347 0.864879
vt 0.59374 0.852193
vt 0.564928 0.859548
vt 0.546536 0.860094
vt 0.531981 0.866418
vt 0.53802 0.853894
vt 0.522663 0.87785
vt 0.528284 0.865856
vt 0.558827 0.874449
vt 0.542057 0.874912
vt 0.528783 0.880645
vt 0.520284 0.891042
vt 0.517349 0.905051
vt 0.519442 0.893229
vt 0.539999 0.891057
vt 0.554404 0.890691
vt 0.577443 0.879336
vt 0.596049 0.88911
vt 0.612773 0.9028
vt 0.625937 0.91903
vt 0.634231 0.936166
vt 0.636854 0.952496
vt 0.633584 0.966409
vt 0.624789 0.976557
vt 0.618711 0.969694
vt 0.611181 0.978416
vt 0.611372 0.981982
vt 0.599666 0.983081
vt 0.621486 0.957743
vt 0.619202 0.943721
vt 0.612053 0.92901
vt 0.600734 0.915078
vt 0.602827 0.970069
vt 0.59689 0.976982
vt 0.587784 0.980684
vt 0.604996 0.960606
vt 0.60316 0.949511
vt 0.597485 0.937878
vt 0.58852 0.926861
vt 0.577153 0.917558
vt 0.586368 0.903319
vt 0.570391 0.894913
vt 0.564517 0.910898
vt 0.55187 0.907539
vt 0.540467 0.907803
vt 0.531428 0.911648
vt 0.52859 0.895949
vt 0.521279 0.904856
vt 0.518751 0.916878
vt 0.525628 0.918676
vt 0.523615 0.928185
vt 0.525565 0.939236
vt 0.521219 0.930831
vt 0.53127 0.950755
vt 0.528414 0.945358
vt 0.543493 0.951153
vt 0.545515 0.955246
vt 0.540168 0.961629
vt 0.548679 0.959116
vt 0.551397 0.970815
vt 0.552976 0.961777
vt 0.563878 0.97743
vt 0.556516 0.963565
vt 0.576411 0.980833
vt 0.569503 0.978973
vt 0.585308 0.983264
vt 0.561542 0.964981
vt 0.565603 0.965881
vt 0.568819 0.964558
vt 0.570903 0.9621
vt 0.57165 0.958746
vt 0.570982 0.954822
vt 0.568963 0.950715
vt 0.565791 0.946827
vt 0.561777 0.943543
vt 0.557316 0.941185
vt 0.552848 0.939986
vt 0.548813 0.940061
vt 0.545605 0.941402
vt 0.543538 0.943875
vt 0.542811 0.947235
vt 0.636892 0.854428
vt 0.538732 0.958426
vt 0.523656 0.958648
vt 0.520418 0.952249
vt 0.528333 0.968683
vt 0.519017 0.945882
vt 0.519735 0.940334
vt 0.522484 0.936121
vt 0.531833 0.929783
vt 0.537961 0.928529
vt 0.546812 0.92866
vt 0.55594 0.933331
vt 0.564454 0.939349
vt 0.569416 0.946009
vt 0.572493 0.952273
vt 0.573509 0.958254
vt 0.572603 0.967412
vt 0.564546 0.974685
vt 0.557793 0.977446
vt 0.54981 0.978286
vt 0.541195 0.977205
vt 0.534405 0.973649
vt 0.564454 0.939349
vt 0.58906 0.930896
vt 0.569416 0.946009
vt 0.592994 0.938952
vt 0.572493 0.952273
vt 0.582856 0.923274
vt 0.55594 0.933331
vt 0.574996 0.916841
vt 0.594275 0.946644
vt 0.573509 0.958254
vt 0.592787 0.953217
vt 0.572603 0.967412
vt 0.588686 0.958031
vt 0.564546 0.974685
vt 0.546812 0.92866
vt 0.566256 0.912235
vt 0.537961 0.928529
vt 0.557505 0.90991
vt 0.531833 0.929783
vt 0.549605 0.91009
vt 0.522484 0.936121
vt 0.543333 0.91275
vt 0.557135 0.953817
vt 0.54934 0.947439
vt 0.534405 0.973649
vt 0.528333 0.968683
vt 0.541195 0.977205
vt 0.565799 0.958401
vt 0.54981 0.978286
vt 0.574496 0.960747
vt 0.557793 0.977446
vt 0.582382 0.960622
vt 0.564546 0.974685
vt 0.588686 0.958031
vt 0.543169 0.939886
vt 0.523656 0.958648
vt 0.539221 0.931886
vt 0.520418 0.952249
vt 0.537884 0.924214
vt 0.519017 0.945882
vt 0.539297 0.917619
vt 0.519735 0.940334
vt 0.543333 0.91275
vt 0.522484 0.936121
vt 0.533753 0.957336
vt 0.532746 0.954585
vt 0.522549 0.971238
vt 0.518826 0.967955
vt 0.525117 0.973674
vt 0.535338 0.959695
vt 0.528011 0.97563
vt 0.537354 0.961626
vt 0.53096 0.977157
vt 0.539606 0.962923
vt 0.533672 0.978021
vt 0.541872 0.963474
vt 0.545586 0.962226
vt 0.53738 0.977513
vt 0.532423 0.951904
vt 0.517616 0.965567
vt 0.532822 0.949654
vt 0.516637 0.972462
vt 0.515025 0.969472
vt 0.520204 0.978115
vt 0.518415 0.975325
vt 0.523297 0.983252
vt 0.521817 0.980341
vt 0.524412 0.983493
vt 0.48648 0.983117
vt 0.487004 0.975821
vt 0.492336 0.985173
vt 0.492658 0.989599
vt 0.497801 0.989636
vt 0.50097 0.992667
vt 0.50097 0.992667
vt 0.512019 0.966287
vt 0.485625 0.972621
vt 0.511217 0.964685
vt 0.519051 0.964564
vt 0.485043 0.970465
vt 0.517616 0.965567
vt 0.492336 0.985173
vt 0.48648 0.983117
vt 0.495179 0.979477
vt 0.492336 0.985173
vt 0.495179 0.979477
vt 0.492658 0.989599
vt 0.48648 0.983117
vt 0.487004 0.975821
vt 0.485625 0.972621
vt 0.485043 0.970465
vt 0.484791 0.970017
vt 0.485554 0.970179
vt 0.487262 0.970938
vt 0.48975 0.972885
vt 0.492774 0.975482
vt 0.498997 0.981539
vt 0.503509 0.986931
vt 0.505187 0.989578
vt 0.50097 0.992667
vt 0.523343 0.980755
vt 0.520295 0.974631
vt 0.534548 0.969905
vt 0.537715 0.974356
vt 0.545758 0.953076
vt 0.542146 0.948734
vt 0.529083 0.96586
vt 0.52613 0.964461
vt 0.539887 0.947369
vt 0.523407 0.963509
vt 0.537612 0.946697
vt 0.521187 0.963205
vt 0.535543 0.946784
vt 0.519686 0.963568
vt 0.533897 0.947892
vt 0.547075 0.958289
vt 0.53738 0.977513
vt 0.545586 0.962226
vt 0.524412 0.983493
vt 0.513368 0.966229
vt 0.516739 0.969471
vt 0.512081 0.964625
vt 0.511248 0.963797
vt 0.498997 0.981539
vt 0.492774 0.975482
vt 0.48975 0.972885
vt 0.487262 0.970938
vt 0.485554 0.970179
vt 0.50097 0.992667
vt 0.521187 0.963205
vt 0.511248 0.963797
vt 0.498997 0.981539
vt 0.492658 0.989599
vt 0.495179 0.979477
vt 0.497801 0.989636
vt 0.50097 0.992667
vt 0.519051 0.964564
vt 0.519686 0.963568
vt 0.511217 0.964685
vt 0.517616 0.965567
vt 0.519051 0.964564
vt 0.512019 0.966287
vt 0.511217 0.964685
vt 0.511589 0.968605
vt 0.485043 0.970465
vt 0.519686 0.963568
vt 0.485043 0.970465
vt 0.511589 0.968605
vt 0.484791 0.970017
vt 0.484791 0.970017
vt 0.511248 0.963797
vt 0.485554 0.970179
vt 0.511589 0.968605
vt 0.532822 0.949654
vt 0.533897 0.947892
vt 0.519051 0.964564
vt 0.519051 0.964564
vt 0.533897 0.947892
vt 0.519686 0.963568
vt 0.517616 0.965567
vt 0.532822 0.949654
vt 0.519051 0.964564
vt 0.511589 0.968605
vt 0.521187 0.963205
vt 0.511248 0.963797
vt 0.484791 0.970017
vn -0.1654858 -0.9531702 -0.2531423
vn 0.1288117 -0.9066629 -0.4017088
vn -0.2228595 -0.8830279 -0.413032
vn 0.1028942 -0.8708193 -0.4807146
vn 0.1780299 -0.9275274 -0.328631
vn -0.06155075 -0.9923813 -0.1067284
vn 0.2457312 -0.9313707 -0.2686352
vn 0.07877067 -0.996822 0.01187567
vn 0.3252957 -0.9178157 -0.2275893
vn 0.241745 -0.9660575 0.09106158
vn 0.4089234 -0.8881919 -0.2095157
vn 0.4114137 -0.903101 0.1230752
vn 0.4884393 -0.8453942 -0.2161848
vn 0.5711769 -0.8141112 0.1047852
vn 0.5560525 -0.7936165 -0.2469381
vn 0.7053841 -0.7078069 0.03798279
vn 0.6051409 -0.7379317 -0.2987663
vn 0.8009105 -0.5945847 -0.07079262
vn 0.6309124 -0.6837772 -0.3666039
vn 0.8484003 -0.4855291 -0.2108993
vn 0.6308365 -0.6364597 -0.4438067
vn 0.8432021 -0.3913204 -0.3686171
vn 0.6049204 -0.6006166 -0.5228107
vn 0.7858282 -0.3211797 -0.5285051
vn 0.5557007 -0.5797527 -0.5958889
vn 0.6818929 -0.2819692 -0.6749189
vn 0.4879976 -0.5759093 -0.6558864
vn 0.5415734 -0.2775284 -0.7935213
vn 0.4084369 -0.5894648 -0.6969294
vn 0.3785984 -0.3082926 -0.8727078
vn 0.3248064 -0.6190889 -0.7150034
vn 0.2089283 -0.3712493 -0.9047225
vn 0.2452961 -0.661884 -0.7083357
vn 0.04916784 -0.4602377 -0.8864332
vn 0.1776824 -0.7136611 -0.6775815
vn -0.08504245 -0.5665446 -0.819631
vn 0.1285891 -0.7693514 -0.6257502
vn -0.1805683 -0.6797666 -0.7108534
vn 0.1028173 -0.8235056 -0.5579132
vn -0.2280574 -0.7888202 -0.5707474
vn 0.01260235 -0.07357805 -0.9972098
vn -0.2094429 -0.207177 -0.9556209
vn -0.3905655 -0.362448 -0.8462211
vn -0.5130369 -0.5241911 -0.6797183
vn -0.5648633 -0.6765772 -0.4724117
vn -0.5409744 -0.804686 -0.244596
vn -0.4437137 -0.8959761 -0.01856869
vn -0.2825953 -0.9415153 0.1835449
vn -0.07339136 -0.9368443 0.3419596
vn 0.1634156 -0.8824201 0.441169
vn 0.4046494 -0.7835696 0.4714634
vn 0.6266946 -0.6499704 0.4298748
vn 0.8078188 -0.4946985 0.3204717
vn 0.9302871 -0.3329557 0.1539687
vn 0.9821146 -0.1805717 -0.05333663
vn 0.9582282 -0.05246271 -0.2811516
vn 0.02258838 -0.771548 0.63577
vn -0.2425408 -0.8243651 0.5114647
vn 0.2971027 -0.6670281 0.6832302
vn 0.5541301 -0.5210343 0.649202
vn 0.768511 -0.3478589 0.537015
vn 0.9192622 -0.1644585 0.3576456
vn 0.9916261 0.01121934 0.1286532
vn -0.06127717 -0.6349797 0.7700948
vn -0.3384398 -0.689993 0.639819
vn -0.4723341 -0.8203086 0.3224816
vn -0.6442915 -0.7597786 0.08732129
vn -0.7415882 -0.6486958 -0.1709989
vn -0.7546982 -0.4979333 -0.4271922
vn -0.6823351 -0.3222558 -0.6561782
vn -0.5315842 -0.1388531 -0.8355466
vn -0.3172015 0.03432205 -0.9477369
vn -0.7581043 -0.6220077 0.195919
vn -0.8595294 -0.5056631 -0.07425741
vn -0.5785509 -0.6855225 0.4419705
vn -0.7968925 -0.1640984 -0.5814069
vn -0.6389618 0.0276879 -0.76874
vn -0.8728937 -0.3478788 -0.3421066
vn -0.8387676 -0.4570343 0.2959535
vn -0.9398864 -0.340516 0.0257379
vn -0.6594688 -0.5207562 0.5421381
vn -0.4195383 -0.5254453 0.7401991
vn -0.1424608 -0.4706419 0.8707474
vn 0.1446351 -0.3617099 0.921003
vn 0.2258042 -0.5258688 0.8200454
vn 0.4947099 -0.37334 0.7847799
vn 0.7191072 -0.1923222 0.6677552
vn 0.8770351 -0.0005384125 0.480426
vn 0.4136535 -0.2093126 0.8860468
vn 0.6382592 -0.02837048 0.7692986
vn 0.7964605 0.1634067 0.5821932
vn -0.2174191 -0.2857266 0.9333217
vn 0.05714084 -0.1817402 0.981685
vn 0.3145096 -0.03613988 0.9485661
vn 0.529497 0.1368181 0.8372059
vn -0.03285794 0.006163019 0.999441
vn -0.2828749 -0.08833373 0.9550806
vn -0.4822939 -0.3379221 0.8082087
vn -0.7115506 -0.3332215 0.6185945
vn -0.8827528 -0.2720794 0.3830408
vn -0.9791423 -0.1604828 0.1246016
vn -0.9529241 -0.182606 -0.2420552
vn -0.8766055 0.001234084 -0.4812082
vn -0.7184008 0.1930099 -0.6683168
vn -0.9912819 -0.009354514 -0.1314251
vn -0.9179847 0.1665067 -0.3599716
vn -0.8881424 -0.07524083 0.4533673
vn -0.9755868 0.02655909 0.2180018
vn -0.7325239 -0.1311306 0.6679921
vn -0.5239623 -0.1356428 0.8408714
vn -0.9862955 0.1642992 -0.01506286
vn -0.8547121 0.1248734 0.503859
vn -0.9293862 0.2124282 0.3018536
vn -0.721481 0.07667706 0.6881757
vn -0.5427337 0.07254961 0.8367655
vn -0.3359658 0.1128956 0.9350837
vn -0.1214185 0.1937696 0.9735044
vn -0.9381918 0.330764 0.1019382
vn -0.6796734 0.3333197 0.6534079
vn -0.7713679 0.37336 0.515358
vn -0.5407391 0.3306191 0.7734935
vn -0.4088362 0.3531873 0.8414937
vn 0.07990676 0.3072533 0.948267
vn 0.2016135 0.1385989 0.9696093
vn 0.3975853 0.2960103 0.8685067
vn 0.8609658 0.03882808 -0.5071787
vn 0.7858282 -0.3211797 -0.5285051
vn 0.9582282 -0.05246271 -0.2811516
vn 0.8432021 -0.3913204 -0.3686171
vn 0.6818929 -0.2819692 -0.6749189
vn 0.6998467 0.08436684 -0.7092931
vn 0.5415734 -0.2775284 -0.7935213
vn 0.490645 0.07969605 -0.8677074
vn 0.3785984 -0.3082926 -0.8727078
vn 0.2538359 0.02527153 -0.9669172
vn 0.2089283 -0.3712493 -0.9047225
vn 0.01260235 -0.07357805 -0.9972098
vn 0.8812217 0.2730623 -0.3858567
vn 0.9785176 0.1619798 -0.1275381
vn 0.9821146 -0.1805717 -0.05333663
vn 0.9916261 0.01121934 0.1286532
vn 0.7092617 0.3335949 -0.6210171
vn 0.4794698 0.3376498 -0.8100008
vn 0.2143404 0.284832 -0.9343067
vn -0.06017411 0.180312 -0.9817671
vn 0.9396749 0.3410231 -0.02672886
vn 0.9530392 0.1832397 0.2411213
vn 0.9192622 -0.1644585 0.3576456
vn 0.8770351 -0.0005384125 0.480426
vn 0.8382517 0.4573656 -0.2969023
vn 0.6586956 0.5208821 -0.5429567
vn 0.4185849 0.5253533 -0.7408041
vn 0.141423 0.4703397 -0.8710799
vn -0.1456612 0.361228 -0.9210305
vn -0.4145621 0.2087018 -0.8857662
vn -0.3172015 0.03432205 -0.9477369
vn -0.2094429 -0.207177 -0.9556209
vn -0.6389618 0.0276879 -0.76874
vn -0.5315842 -0.1388531 -0.8355466
vn 0.8727777 0.3472486 0.3430414
vn 0.7964605 0.1634067 0.5821932
vn 0.8597414 0.5051561 0.07524584
vn 0.5793227 0.6853966 -0.4411539
vn 0.7586234 0.6216744 -0.1949656
vn -0.2247819 0.5263497 -0.8200178
vn -0.4937978 0.3739523 -0.7850627
vn 0.7543527 0.4960705 0.4299603
vn 0.6810586 0.3202046 0.6585045
vn 0.6382592 -0.02837048 0.7692986
vn 0.529497 0.1368181 0.8372059
vn 0.7422135 0.6471982 0.1739353
vn 0.6458253 0.7587944 -0.08450375
vn 0.4746225 0.8199359 -0.3200602
vn 0.2453635 0.8246388 -0.5096739
vn 0.3393926 0.6900852 -0.6392144
vn -0.01950897 0.7724423 -0.6347854
vn 0.0623168 0.6352817 -0.7697621
vn -0.2940682 0.6684539 -0.6831495
vn -0.5514368 0.5228539 -0.6500317
vn -0.7664239 0.3498954 -0.5386721
vn -0.7184008 0.1930099 -0.6683168
vn -0.9179847 0.1665067 -0.3599716
vn -0.8766055 0.001234084 -0.4812082
vn -0.3504845 0.7813267 -0.5164196
vn -0.5849552 0.6488902 -0.486589
vn -0.7809283 0.4914788 -0.3854861
vn -0.9192206 0.3245 -0.2230095
vn -0.9862955 0.1642992 -0.01506286
vn -0.9912819 -0.009354514 -0.1314251
vn -0.5928881 0.7465545 -0.3018944
vn -0.3915656 0.8600349 -0.3271336
vn -0.100469 0.8758219 -0.4720612
vn 0.1406201 0.9231293 -0.3578523
vn 0.3491817 0.9186175 -0.1849708
vn 0.5048004 0.8627266 0.02965507
vn 0.5922434 0.7609283 0.2650205
vn 0.6029521 0.6231885 0.4980812
vn 0.5358776 0.4629894 0.7060283
vn 0.3975853 0.2960103 0.8685067
vn 0.367285 0.5855082 0.7226908
vn 0.2483019 0.4422372 0.8618425
vn 0.2016135 0.1385989 0.9696093
vn 0.07990676 0.3072533 0.948267
vn 0.4252093 0.723043 0.5444317
vn 0.4164021 0.8413773 0.3445192
vn 0.341729 0.9289299 0.1425146
vn 0.2084973 0.9771292 -0.041803
vn 0.1255459 0.6871609 0.7155754
vn 0.03212069 0.5823552 0.8122995
vn -0.1120198 0.4761164 0.8722183
vn 0.1752253 0.7893246 0.588441
vn 0.1762944 0.8788444 0.4433426
vn 0.1286494 0.9469576 0.2944838
vn 0.03695612 0.9869965 0.1564358
vn -0.08981114 0.9950426 0.04271088
vn 0.02974945 0.981257 -0.1903933
vn -0.1770185 0.9409087 -0.2887128
vn -0.2392461 0.9703076 -0.03555925
vn -0.3967181 0.9152128 -0.07071272
vn -0.5468128 0.8351518 -0.059307
vn -0.6748382 0.7379616 -0.002458155
vn -0.7612849 0.6115698 -0.2154707
vn -0.8802674 0.4682994 -0.07632035
vn -0.9381918 0.330764 0.1019382
vn -0.7682627 0.6331559 0.09426581
vn -0.8179409 0.5309941 0.2213999
vn -0.8190114 0.4414741 0.3664982
vn -0.9293862 0.2124282 0.3018536
vn -0.7713679 0.37336 0.515358
vn -0.8547121 0.1248734 0.503859
vn -0.7139275 0.536523 0.4499452
vn -0.666713 0.4922074 0.5596657
vn -0.6796734 0.3333197 0.6534079
vn -0.5651789 0.4774045 0.6727984
vn -0.5407391 0.3306191 0.7734935
vn -0.4707996 0.4807781 0.7397298
vn -0.4088362 0.3531873 0.8414937
vn -0.3725309 0.5111667 0.7745511
vn -0.2425541 0.4134043 0.877647
vn -0.3359658 0.1128956 0.9350837
vn -0.1214185 0.1937696 0.9735044
vn -0.2759729 0.5365146 0.7974904
vn -0.1770607 0.591461 0.7866532
vn -0.05918587 0.6869975 0.7242454
vn 0.0002641163 0.765512 0.6434216
vn 0.02542341 0.8394844 0.5427887
vn 0.01382795 0.9016723 0.432199
vn -0.03338633 0.9459879 0.3224785
vn -0.1115964 0.9680935 0.2243682
vn -0.2131507 0.965826 0.1474688
vn -0.3281037 0.9394071 0.09930926
vn -0.4452065 0.8914222 0.08460393
vn -0.5529956 0.8265676 0.1047939
vn -0.6409156 0.7511957 0.1578995
vn -0.7003641 0.6726831 0.2387209
vn -0.7255235 0.5987101 0.3393551
vn 0.3832662 -0.7873313 -0.4829249
vn -0.3832237 0.8002383 0.4612573
vn -0.5858591 0.6963424 0.4145797
vn -0.5437006 0.6783283 0.4942272
vn -0.5305949 0.7315991 0.4280558
vn -0.5444524 0.7017525 0.4594726
vn -0.5324786 0.7315542 0.4257874
vn -0.4830438 0.7864805 0.3848599
vn -0.4432359 0.8223099 0.3568593
vn -0.4053579 0.8373551 0.3667717
vn -0.3303476 0.8587346 0.3917212
vn -0.282997 0.8642487 0.4159169
vn -0.262281 0.8622516 0.4332792
vn -0.2485864 0.8574955 0.4504512
vn -0.2331542 0.8449749 0.481307
vn -0.2239603 0.836264 0.500504
vn -0.2162392 0.8692807 0.4445129
vn -0.2630366 0.8415614 0.4717902
vn -0.3232075 0.7683257 0.5524606
vn -0.3399675 0.7571938 0.5577451
vn -0.375216 0.744538 0.5521559
vn -0.4130043 0.7343045 0.5387245
vn 0.734237 0.402041 -0.5470458
vn 0.8465115 0.4015338 -0.3495551
vn 0.8830468 0.3988214 -0.2473256
vn 0.9232264 0.3791292 -0.06256416
vn 0.9303495 0.3635024 0.04812366
vn 0.6505886 0.3960721 -0.647967
vn 0.5057318 0.3821347 -0.7734393
vn 0.4368555 0.3714277 -0.8192672
vn 0.9074756 0.3245087 0.2667999
vn 0.8934232 0.3017783 0.3327534
vn 0.818877 0.232574 0.5247377
vn 0.7574808 0.1824813 0.6268361
vn 0.5991222 0.0872104 0.7958938
vn 0.5204391 0.04370508 0.8527795
vn 0.1891846 0.3084865 -0.9322259
vn 0.07572486 0.2937558 -0.9528764
vn -0.1733219 0.2261171 -0.9585565
vn -0.2071482 0.2462146 -0.94682
vn -0.4356588 0.1592891 -0.8859055
vn -0.4934731 0.1647491 -0.8540152
vn -0.6695288 0.06395479 -0.7400277
vn -0.7144798 0.04030962 -0.6984939
vn -0.3980132 -0.4537405 0.7973112
vn -0.6363542 -0.4873141 0.5979786
vn -0.482058 -0.4720494 0.7380984
vn -0.7282217 -0.4747644 0.4942589
vn -0.1790291 -0.382105 0.9066115
vn -0.09334274 -0.332893 0.9383332
vn 0.107167 -0.2259759 0.9682201
vn 0.1449988 -0.1863195 0.9717307
vn 0.3162793 -0.08633478 0.9447294
vn 0.3772852 -0.04437335 0.9250335
vn 0.5204391 0.04370508 0.8527795
vn 0.5991222 0.0872104 0.7958938
vn -0.8366585 -0.4443526 0.3202392
vn -0.8801468 -0.4175201 0.2258729
vn -0.9256842 -0.3729769 0.06322122
vn -0.9398448 -0.3399709 -0.03333921
vn -0.9393293 -0.2596798 -0.2241136
vn -0.9251472 -0.2211119 -0.3085644
vn -0.8664522 -0.1177822 -0.485168
vn -0.8299341 -0.07978107 -0.5521271
vn -0.7144798 0.04030962 -0.6984939
vn -0.6695288 0.06395479 -0.7400277
vn -0.4987203 -0.8630864 0.07974894
vn -0.6091653 -0.7883736 -0.08593428
vn -0.3899491 -0.9206649 -0.01777116
vn -0.4508555 -0.846078 -0.2843965
vn -0.3149987 -0.9211626 0.2285504
vn -0.2517091 -0.9285446 0.2728507
vn -0.1288639 -0.85598 0.5006918
vn 0.0008673304 -0.9078507 0.4192925
vn 0.07839144 -0.7519652 0.6545252
vn 0.2583598 -0.8104865 0.5257014
vn 0.4469751 -0.5307138 0.7201085
vn 0.4960329 -0.6459658 0.5802411
vn 0.7714535 -0.3056219 0.5580812
vn 0.6817729 0.01968514 0.731299
vn -0.7253818 -0.586351 -0.3605743
vn -0.4785427 -0.5859193 -0.6539843
vn -0.7645847 -0.176664 -0.6198388
vn -0.02965782 -0.9723483 -0.2316448
vn -0.01760251 -0.9194902 -0.3927187
vn 0.1044306 -0.8987588 0.4258251
vn 0.0459355 -0.9921966 0.1159133
vn 0.30723 -0.3547449 0.8830434
vn 0.1749032 -0.7714247 0.6118112
vn 0.371825 0.3377168 0.8646928
vn 0.0891875 -0.9309697 -0.3540354
vn 0.06192641 -0.8849551 -0.4615406
vn 0.2252395 -0.964184 -0.1400585
vn 0.3669952 -0.9010346 0.2311951
vn 0.4120768 -0.8216827 0.3937388
vn 0.470934 -0.5738561 0.6700077
vn 0.4532485 -0.3564589 0.8170084
vn -0.01007505 -0.736935 -0.6758885
vn -0.07906245 -0.6804921 -0.7284777
vn -0.02752301 -0.6100107 -0.791915
vn -0.2131407 -0.4703601 -0.8563484
vn -0.08182791 -0.4581253 -0.8851132
vn -0.3998526 -0.6939335 -0.5988106
vn -0.2137768 0.5600964 0.8003697
vn -0.5366347 0.6825727 0.4961024
vn -0.6160069 0.4773975 0.6265997
vn -0.9316556 0.3630924 0.01348078
vn -0.6703486 0.4671909 0.5765115
vn -0.6866466 0.6219925 0.3763534
vn -0.5366347 0.6825727 0.4961024
vn -0.7182359 0.6083176 0.3377675
vn -0.6395126 0.4999445 0.5840199
vn -0.6421269 0.3974106 0.6555439
vn -0.6372128 0.3295023 0.6966981
vn -0.6230749 0.3705887 0.6887973
vn -0.6283627 0.3716806 0.6833841
vn -0.6427927 0.3541766 0.679247
vn -0.6488773 0.3517763 0.6746939
vn -0.4343108 0.5779611 0.6908944
vn -0.2191329 0.683512 0.6962702
vn -0.1354383 0.548156 0.8253371
vn -0.3906195 0.5860522 0.7099008
vn 0.2769998 0.7575831 0.591049
vn 0.1063812 0.9885083 0.1073983
vn 0.4921482 0.8694882 -0.04219292
vn 0.7319092 0.530841 0.4272197
vn 0.7590492 0.6394081 -0.1224806
vn 0.2746303 0.7766351 -0.5669357
vn 0.1079114 0.9015622 -0.4189759
vn -0.05862975 0.6646017 -0.744894
vn -0.09943568 0.6698967 -0.7357656
vn -0.1932953 0.4059289 -0.8932294
vn -0.3507061 0.5116769 -0.7843418
vn -0.4423608 0.25811 -0.8588924
vn -0.5839361 0.2709234 -0.7652577
vn -0.5777783 0.1426326 -0.8036345
vn -0.7419884 -0.01469763 -0.6702515
vn 0.9250018 0.2267768 0.3048674
vn 0.6817729 0.01968514 0.731299
vn 0.7714535 -0.3056219 0.5580812
vn 0.371825 0.3377168 0.8646928
vn -0.1236291 0.7233541 -0.6793194
vn -0.04486614 0.9430519 -0.329606
vn -0.1743991 0.3345071 -0.9261155
vn -0.1719908 0.07145209 -0.9825038
vn 0.04828858 0.993764 0.1005058
vn -0.04181426 0.9451092 -0.3240683
vn -0.1366672 0.7780803 -0.6131176
vn -0.222334 0.4142613 -0.8825844
vn -0.246792 0.08758792 -0.9651021
vn 0.04431944 0.4131421 0.9095875
vn -0.4068276 0.07906995 -0.9100766
vn -0.1215393 -0.265747 -0.9563507
vn -0.2943205 0.8698395 0.3959225
vn -0.6866466 0.6219925 0.3763534
vn -0.6459605 0.4771107 0.5959031
vn -0.5147193 0.6332563 0.5779712
vn -0.6364903 0.5936527 0.4923987
vn -0.4223759 -0.319638 -0.8481923
vn -0.5616397 -0.01482597 -0.8272491
vn -0.02752301 -0.6100107 -0.791915
vn -0.4785427 -0.5859193 -0.6539843
vn -0.4223759 -0.319638 -0.8481923
vn -0.01007505 -0.736935 -0.6758885
vn -0.3264371 0.8427718 -0.427989
vn -0.440134 0.6585847 -0.6103674
vn -0.2165932 0.8601208 -0.4618218
vn -0.6511809 0.2645338 -0.7113264
vn -0.08182791 -0.4581253 -0.8851132
vn -0.159953 -0.5336258 -0.8304567
vn -0.09992108 -0.4376858 -0.8935586
vn -0.09992108 -0.4376858 -0.8935586
vn -0.1215393 -0.265747 -0.9563507
vn -0.246792 0.08758792 -0.9651021
vn -0.3819124 0.4588524 -0.8022452
vn -0.7645847 -0.176664 -0.6198388
vn -0.7419884 -0.01469763 -0.6702515
vn -0.4223759 -0.319638 -0.8481923
vn -0.508806 -0.2289872 -0.8298682
vn -0.7419884 -0.01469763 -0.6702515
vn -0.5777783 0.1426326 -0.8036345
vn -0.5647176 -0.4864791 -0.6666574
vn -0.7645847 -0.176664 -0.6198388
vn -0.508806 -0.2289872 -0.8298682
vn 0.001246005 -0.6935427 -0.7204145
vn -0.02455134 -0.469125 -0.8827904
vn -0.07806119 -0.4899206 -0.868265
vn -0.09992108 -0.4376858 -0.8935586
g GVG_Stove_BombBall3_mesh_0
f 3/3/3 2/2/2 1/1/1
f 4/4/4 2/2/2 3/3/3
f 2/2/2 5/5/5 1/1/1
f 1/1/1 5/5/5 6/6/6
f 5/5/5 7/7/7 6/6/6
f 6/6/6 7/7/7 8/8/8
f 7/7/7 9/9/9 8/8/8
f 8/8/8 9/9/9 10/10/10
f 9/9/9 11/11/11 10/10/10
f 10/10/10 11/11/11 12/12/12
f 11/11/11 13/13/13 12/12/12
f 12/12/12 13/13/13 14/14/14
f 13/13/13 15/15/15 14/14/14
f 14/14/14 15/15/15 16/16/16
f 15/15/15 17/17/17 16/16/16
f 16/16/16 17/17/17 18/18/18
f 17/17/17 19/19/19 18/18/18
f 18/18/18 19/19/19 20/20/20
f 19/19/19 21/21/21 20/20/20
f 20/20/20 21/21/21 22/22/22
f 21/21/21 23/23/23 22/22/22
f 22/22/22 23/23/23 24/24/24
f 23/23/23 25/25/25 24/24/24
f 24/24/24 25/25/25 26/26/26
f 25/25/25 27/27/27 26/26/26
f 26/26/26 27/27/27 28/28/28
f 27/27/27 29/29/29 28/28/28
f 28/28/28 29/29/29 30/30/30
f 29/29/29 31/31/31 30/30/30
f 30/30/30 31/31/31 32/32/32
f 31/31/31 33/33/33 32/32/32
f 32/32/32 33/33/33 34/34/34
f 33/33/33 35/35/35 34/34/34
f 34/34/34 35/35/35 36/36/36
f 35/35/35 37/37/37 36/36/36
f 36/36/36 37/37/37 38/38/38
f 37/37/37 39/39/39 38/38/38
f 38/38/38 39/39/39 40/40/40
f 39/39/39 4/4/4 40/40/40
f 40/40/40 4/4/4 3/3/3
f 32/32/32 34/34/34 41/41/41
f 41/41/41 34/34/34 42/42/42
f 34/34/34 36/36/36 42/42/42
f 42/42/42 36/36/36 43/43/43
f 36/36/36 38/38/38 43/43/43
f 43/43/43 38/38/38 44/44/44
f 38/38/38 40/40/40 44/44/44
f 44/44/44 40/40/40 45/45/45
f 40/40/40 3/3/3 45/45/45
f 45/45/45 3/3/3 46/46/46
f 3/3/3 1/1/1 46/46/46
f 46/46/46 1/1/1 47/47/47
f 1/1/1 6/6/6 47/47/47
f 47/47/47 6/6/6 48/48/48
f 6/6/6 8/8/8 48/48/48
f 48/48/48 8/8/8 49/49/49
f 8/8/8 10/10/10 49/49/49
f 49/49/49 10/10/10 50/50/50
f 10/10/10 12/12/12 50/50/50
f 50/50/50 12/12/12 51/51/51
f 12/12/12 14/14/14 51/51/51
f 51/51/51 14/14/14 52/52/52
f 14/14/14 16/16/16 52/52/52
f 52/52/52 16/16/16 53/53/53
f 16/16/16 18/18/18 53/53/53
f 53/53/53 18/18/18 54/54/54
f 18/18/18 20/20/20 54/54/54
f 54/54/54 20/20/20 55/55/55
f 20/20/20 22/22/22 55/55/55
f 55/55/55 22/22/22 56/56/56
f 57/57/57 49/49/49 50/50/50
f 58/58/58 49/49/49 57/57/57
f 59/59/59 50/50/50 51/51/51
f 57/57/57 50/50/50 59/59/59
f 60/60/60 51/51/51 52/52/52
f 59/59/59 51/51/51 60/60/60
f 61/61/61 52/52/52 53/53/53
f 60/60/60 52/52/52 61/61/61
f 62/62/62 53/53/53 54/54/54
f 61/61/61 53/53/53 62/62/62
f 63/63/63 54/54/54 55/55/55
f 62/62/62 54/54/54 63/63/63
f 64/64/64 58/58/58 57/57/57
f 65/65/65 58/58/58 64/64/64
f 65/65/65 66/66/66 58/58/58
f 66/66/66 48/48/48 58/58/58
f 66/66/66 47/47/47 48/48/48
f 67/67/67 47/47/47 66/66/66
f 67/67/67 46/46/46 47/47/47
f 68/68/68 46/46/46 67/67/67
f 58/58/58 48/48/48 49/49/49
f 68/68/68 45/45/45 46/46/46
f 69/69/69 45/45/45 68/68/68
f 69/69/69 44/44/44 45/45/45
f 70/70/70 44/44/44 69/69/69
f 70/70/70 43/43/43 44/44/44
f 71/71/71 43/43/43 70/70/70
f 71/71/71 42/42/42 43/43/43
f 72/72/72 42/42/42 71/71/71
f 73/73/73 68/68/68 67/67/67
f 74/74/74 68/68/68 73/73/73
f 74/74/74 69/69/69 68/68/68
f 73/73/73 67/67/67 75/75/75
f 75/75/75 67/67/67 66/66/66
f 75/75/75 66/66/66 65/65/65
f 76/76/76 71/71/71 70/70/70
f 77/77/77 71/71/71 76/76/76
f 78/78/78 70/70/70 69/69/69
f 76/76/76 70/70/70 78/78/78
f 78/78/78 69/69/69 74/74/74
f 79/79/79 74/74/74 73/73/73
f 80/80/80 74/74/74 79/79/79
f 80/80/80 78/78/78 74/74/74
f 81/81/81 73/73/73 75/75/75
f 79/79/79 73/73/73 81/81/81
f 82/82/82 75/75/75 65/65/65
f 81/81/81 75/75/75 82/82/82
f 82/82/82 65/65/65 83/83/83
f 83/83/83 65/65/65 64/64/64
f 83/83/83 64/64/64 84/84/84
f 84/84/84 64/64/64 85/85/85
f 64/64/64 57/57/57 85/85/85
f 85/85/85 57/57/57 59/59/59
f 85/85/85 59/59/59 86/86/86
f 86/86/86 59/59/59 60/60/60
f 86/86/86 60/60/60 87/87/87
f 87/87/87 60/60/60 61/61/61
f 87/87/87 61/61/61 88/88/88
f 88/88/88 61/61/61 62/62/62
f 89/89/89 85/85/85 86/86/86
f 84/84/84 85/85/85 89/89/89
f 90/90/90 86/86/86 87/87/87
f 89/89/89 86/86/86 90/90/90
f 91/91/91 87/87/87 88/88/88
f 90/90/90 87/87/87 91/91/91
f 92/92/92 82/82/82 83/83/83
f 93/93/93 83/83/83 84/84/84
f 92/92/92 83/83/83 93/93/93
f 94/94/94 84/84/84 89/89/89
f 93/93/93 84/84/84 94/94/94
f 95/95/95 89/89/89 90/90/90
f 94/94/94 89/89/89 95/95/95
f 96/96/96 92/92/92 93/93/93
f 97/97/97 92/92/92 96/96/96
f 97/97/97 98/98/98 92/92/92
f 98/98/98 82/82/82 92/92/92
f 98/98/98 81/81/81 82/82/82
f 99/99/99 81/81/81 98/98/98
f 99/99/99 79/79/79 81/81/81
f 100/100/100 79/79/79 99/99/99
f 100/100/100 80/80/80 79/79/79
f 101/101/101 80/80/80 100/100/100
f 101/101/101 102/102/102 80/80/80
f 102/102/102 78/78/78 80/80/80
f 102/102/102 76/76/76 78/78/78
f 103/103/103 76/76/76 102/102/102
f 103/103/103 77/77/77 76/76/76
f 104/104/104 77/77/77 103/103/103
f 105/105/105 103/103/103 102/102/102
f 105/105/105 102/102/102 101/101/101
f 106/106/106 103/103/103 105/105/105
f 107/107/107 101/101/101 100/100/100
f 108/108/108 101/101/101 107/107/107
f 108/108/108 105/105/105 101/101/101
f 109/109/109 100/100/100 99/99/99
f 107/107/107 100/100/100 109/109/109
f 109/109/109 99/99/99 110/110/110
f 111/111/111 105/105/105 108/108/108
f 112/112/112 108/108/108 107/107/107
f 113/113/113 108/108/108 112/112/112
f 113/113/113 111/111/111 108/108/108
f 114/114/114 107/107/107 109/109/109
f 112/112/112 107/107/107 114/114/114
f 115/115/115 109/109/109 110/110/110
f 114/114/114 109/109/109 115/115/115
f 115/115/115 110/110/110 116/116/116
f 116/116/116 110/110/110 97/97/97
f 110/110/110 98/98/98 97/97/97
f 110/110/110 99/99/99 98/98/98
f 116/116/116 97/97/97 117/117/117
f 117/117/117 97/97/97 96/96/96
f 118/118/118 111/111/111 113/113/113
f 119/119/119 112/112/112 114/114/114
f 120/120/120 112/112/112 119/119/119
f 121/121/121 114/114/114 115/115/115
f 119/119/119 114/114/114 121/121/121
f 122/122/122 115/115/115 116/116/116
f 121/121/121 115/115/115 122/122/122
f 117/117/117 96/96/96 123/123/123
f 123/123/123 96/96/96 124/124/124
f 96/96/96 93/93/93 124/124/124
f 124/124/124 93/93/93 94/94/94
f 124/124/124 94/94/94 125/125/125
f 125/125/125 94/94/94 95/95/95
f 128/128/128 127/127/127 126/126/126
f 129/129/129 127/127/127 128/128/128
f 127/127/127 130/130/130 126/126/126
f 126/126/126 130/130/130 131/131/131
f 130/130/130 132/132/132 131/131/131
f 131/131/131 132/132/132 133/133/133
f 132/132/132 134/134/134 133/133/133
f 133/133/133 134/134/134 135/135/135
f 134/134/134 136/136/136 135/135/135
f 135/135/135 136/136/136 137/137/137
f 138/138/138 128/128/128 126/126/126
f 139/139/139 128/128/128 138/138/138
f 139/139/139 140/140/140 128/128/128
f 141/141/141 140/140/140 139/139/139
f 142/142/142 126/126/126 131/131/131
f 138/138/138 126/126/126 142/142/142
f 143/143/143 131/131/131 133/133/133
f 142/142/142 131/131/131 143/143/143
f 144/144/144 133/133/133 135/135/135
f 143/143/143 133/133/133 144/144/144
f 144/144/144 135/135/135 145/145/145
f 145/145/145 135/135/135 137/137/137
f 146/146/146 141/141/141 139/139/139
f 147/147/147 141/141/141 146/146/146
f 147/147/147 148/148/148 141/141/141
f 149/149/149 148/148/148 147/147/147
f 150/150/150 139/139/139 138/138/138
f 146/146/146 139/139/139 150/150/150
f 151/151/151 138/138/138 142/142/142
f 150/150/150 138/138/138 151/151/151
f 152/152/152 142/142/142 143/143/143
f 151/151/151 142/142/142 152/152/152
f 153/153/153 143/143/143 144/144/144
f 152/152/152 143/143/143 153/153/153
f 154/154/154 144/144/144 145/145/145
f 153/153/153 144/144/144 154/154/154
f 154/154/154 145/145/145 155/155/155
f 155/155/155 145/145/145 156/156/156
f 145/145/145 137/137/137 156/156/156
f 156/156/156 137/137/137 157/157/157
f 155/155/155 156/156/156 158/158/158
f 158/158/158 156/156/156 159/159/159
f 160/160/160 149/149/149 147/147/147
f 161/161/161 149/149/149 160/160/160
f 160/160/160 147/147/147 162/162/162
f 163/163/163 150/150/150 151/151/151
f 164/164/164 150/150/150 163/163/163
f 162/162/162 146/146/146 164/164/164
f 162/162/162 147/147/147 146/146/146
f 164/164/164 146/146/146 150/150/150
f 165/165/165 153/153/153 154/154/154
f 166/166/166 154/154/154 155/155/155
f 165/165/165 154/154/154 166/166/166
f 167/167/167 161/161/161 160/160/160
f 168/168/168 161/161/161 167/167/167
f 168/168/168 169/169/169 161/161/161
f 170/170/170 169/169/169 168/168/168
f 171/171/171 160/160/160 162/162/162
f 167/167/167 160/160/160 171/171/171
f 172/172/172 162/162/162 164/164/164
f 171/171/171 162/162/162 172/172/172
f 173/173/173 164/164/164 163/163/163
f 172/172/172 164/164/164 173/173/173
f 173/173/173 163/163/163 174/174/174
f 174/174/174 163/163/163 175/175/175
f 174/174/174 175/175/175 176/176/176
f 176/176/176 175/175/175 177/177/177
f 175/175/175 152/152/152 177/177/177
f 175/175/175 151/151/151 152/152/152
f 163/163/163 151/151/151 175/175/175
f 177/177/177 152/152/152 153/153/153
f 177/177/177 153/153/153 165/165/165
f 178/178/178 177/177/177 165/165/165
f 176/176/176 177/177/177 178/178/178
f 178/178/178 165/165/165 179/179/179
f 179/179/179 165/165/165 166/166/166
f 179/179/179 166/166/166 180/180/180
f 180/180/180 166/166/166 181/181/181
f 166/166/166 155/155/155 181/181/181
f 181/181/181 155/155/155 158/158/158
f 180/180/180 181/181/181 182/182/182
f 182/182/182 181/181/181 183/183/183
f 184/184/184 176/176/176 178/178/178
f 185/185/185 178/178/178 179/179/179
f 184/184/184 178/178/178 185/185/185
f 186/186/186 179/179/179 180/180/180
f 185/185/185 179/179/179 186/186/186
f 187/187/187 180/180/180 182/182/182
f 186/186/186 180/180/180 187/187/187
f 187/187/187 182/182/182 188/188/188
f 188/188/188 182/182/182 189/189/189
f 190/190/190 184/184/184 185/185/185
f 191/191/191 184/184/184 190/190/190
f 191/191/191 192/192/192 184/184/184
f 192/192/192 176/176/176 184/184/184
f 192/192/192 174/174/174 176/176/176
f 193/193/193 174/174/174 192/192/192
f 193/193/193 173/173/173 174/174/174
f 194/194/194 173/173/173 193/193/193
f 194/194/194 172/172/172 173/173/173
f 195/195/195 172/172/172 194/194/194
f 195/195/195 171/171/171 172/172/172
f 196/196/196 171/171/171 195/195/195
f 196/196/196 167/167/167 171/171/171
f 197/197/197 167/167/167 196/196/196
f 197/197/197 168/168/168 167/167/167
f 198/198/198 168/168/168 197/197/197
f 198/198/198 170/170/170 168/168/168
f 199/199/199 170/170/170 198/198/198
f 200/200/200 199/199/199 198/198/198
f 201/201/201 199/199/199 200/200/200
f 201/201/201 202/202/202 199/199/199
f 203/203/203 202/202/202 201/201/201
f 204/204/204 198/198/198 197/197/197
f 200/200/200 198/198/198 204/204/204
f 205/205/205 197/197/197 196/196/196
f 204/204/204 197/197/197 205/205/205
f 206/206/206 196/196/196 195/195/195
f 205/205/205 196/196/196 206/206/206
f 206/206/206 195/195/195 207/207/207
f 208/208/208 201/201/201 200/200/200
f 209/209/209 201/201/201 208/208/208
f 209/209/209 203/203/203 201/201/201
f 210/210/210 203/203/203 209/209/209
f 211/211/211 200/200/200 204/204/204
f 208/208/208 200/200/200 211/211/211
f 212/212/212 204/204/204 205/205/205
f 211/211/211 204/204/204 212/212/212
f 213/213/213 205/205/205 206/206/206
f 212/212/212 205/205/205 213/213/213
f 214/214/214 206/206/206 207/207/207
f 213/213/213 206/206/206 214/214/214
f 214/214/214 207/207/207 215/215/215
f 215/215/215 207/207/207 216/216/216
f 207/207/207 194/194/194 216/216/216
f 207/207/207 195/195/195 194/194/194
f 216/216/216 194/194/194 193/193/193
f 216/216/216 193/193/193 217/217/217
f 217/217/217 193/193/193 192/192/192
f 217/217/217 192/192/192 191/191/191
f 218/218/218 216/216/216 217/217/217
f 215/215/215 216/216/216 218/218/218
f 219/219/219 217/217/217 191/191/191
f 218/218/218 217/217/217 219/219/219
f 219/219/219 191/191/191 220/220/220
f 220/220/220 191/191/191 190/190/190
f 220/220/220 190/190/190 221/221/221
f 221/221/221 190/190/190 222/222/222
f 190/190/190 185/185/185 222/222/222
f 222/222/222 185/185/185 186/186/186
f 222/222/222 186/186/186 223/223/223
f 223/223/223 186/186/186 187/187/187
f 223/223/223 187/187/187 224/224/224
f 224/224/224 187/187/187 188/188/188
f 225/225/225 222/222/222 223/223/223
f 221/221/221 222/222/222 225/225/225
f 226/226/226 223/223/223 224/224/224
f 225/225/225 223/223/223 226/226/226
f 226/226/226 224/224/224 227/227/227
f 227/227/227 224/224/224 228/228/228
f 227/227/227 228/228/228 229/229/229
f 229/229/229 228/228/228 230/230/230
f 227/227/227 229/229/229 231/231/231
f 231/231/231 229/229/229 232/232/232
f 229/229/229 233/233/233 232/232/232
f 232/232/232 233/233/233 234/234/234
f 233/233/233 235/235/235 234/234/234
f 234/234/234 235/235/235 236/236/236
f 235/235/235 237/237/237 236/236/236
f 236/236/236 237/237/237 238/238/238
f 237/237/237 239/239/239 238/238/238
f 237/237/237 240/240/240 239/239/239
f 239/239/239 240/240/240 241/241/241
f 238/238/238 239/239/239 242/242/242
f 239/239/239 210/210/210 242/242/242
f 239/239/239 241/241/241 210/210/210
f 210/210/210 241/241/241 203/203/203
f 242/242/242 210/210/210 243/243/243
f 210/210/210 209/209/209 243/243/243
f 243/243/243 209/209/209 244/244/244
f 209/209/209 208/208/208 244/244/244
f 244/244/244 208/208/208 245/245/245
f 208/208/208 211/211/211 245/245/245
f 245/245/245 211/211/211 246/246/246
f 211/211/211 212/212/212 246/246/246
f 246/246/246 212/212/212 247/247/247
f 212/212/212 213/213/213 247/247/247
f 247/247/247 213/213/213 248/248/248
f 213/213/213 214/214/214 248/248/248
f 248/248/248 214/214/214 249/249/249
f 214/214/214 215/215/215 249/249/249
f 249/249/249 215/215/215 250/250/250
f 215/215/215 218/218/218 250/250/250
f 250/250/250 218/218/218 251/251/251
f 218/218/218 219/219/219 251/251/251
f 251/251/251 219/219/219 252/252/252
f 219/219/219 220/220/220 252/252/252
f 252/252/252 220/220/220 253/253/253
f 220/220/220 221/221/221 253/253/253
f 253/253/253 221/221/221 254/254/254
f 221/221/221 225/225/225 254/254/254
f 254/254/254 225/225/225 255/255/255
f 225/225/225 226/226/226 255/255/255
f 255/255/255 226/226/226 256/256/256
f 226/226/226 227/227/227 256/256/256
f 256/256/256 227/227/227 231/231/231
f 257/257/257 2/2/2 4/4/4
f 257/257/257 5/5/5 2/2/2
f 257/257/257 7/7/7 5/5/5
f 257/257/257 9/9/9 7/7/7
f 257/257/257 11/11/11 9/9/9
f 257/257/257 13/13/13 11/11/11
f 257/257/257 15/15/15 13/13/13
f 257/257/257 17/17/17 15/15/15
f 257/257/257 19/19/19 17/17/17
f 257/257/257 21/21/21 19/19/19
f 257/257/257 23/23/23 21/21/21
f 257/257/257 25/25/25 23/23/23
f 257/257/257 27/27/27 25/25/25
f 257/257/257 29/29/29 27/27/27
f 257/257/257 31/31/31 29/29/29
f 257/257/257 33/33/33 31/31/31
f 257/257/257 35/35/35 33/33/33
f 257/257/257 37/37/37 35/35/35
f 257/257/257 39/39/39 37/37/37
f 257/257/257 4/4/4 39/39/39
f 260/260/260 259/259/259 258/258/258
f 259/259/259 261/261/261 258/258/258
f 262/262/262 260/260/260 258/258/258
f 263/263/263 262/262/262 258/258/258
f 264/264/264 263/263/263 258/258/258
f 265/265/265 264/264/264 258/258/258
f 266/266/266 265/265/265 258/258/258
f 267/267/267 266/266/266 258/258/258
f 268/268/268 267/267/267 258/258/258
f 269/269/269 268/268/268 258/258/258
f 270/270/270 269/269/269 258/258/258
f 271/271/271 270/270/270 258/258/258
f 272/272/272 271/271/271 258/258/258
f 273/273/273 272/272/272 258/258/258
f 274/274/274 273/273/273 258/258/258
f 275/275/275 274/274/274 258/258/258
f 276/276/276 275/275/275 258/258/258
f 277/277/277 276/276/276 258/258/258
f 278/278/278 277/277/277 258/258/258
f 261/261/261 278/278/278 258/258/258
f 281/281/281 280/280/280 279/279/279
f 281/281/281 282/282/282 280/280/280
f 283/283/283 282/282/282 281/281/281
f 279/279/279 280/280/280 284/284/284
f 279/279/279 284/284/284 285/285/285
f 285/285/285 284/284/284 286/286/286
f 283/283/283 287/287/287 282/282/282
f 288/288/288 287/287/287 283/283/283
f 288/288/288 289/289/289 287/287/287
f 290/290/290 289/289/289 288/288/288
f 290/290/290 291/291/291 289/289/289
f 292/292/292 291/291/291 290/290/290
f 285/285/285 286/286/286 293/293/293
f 293/293/293 286/286/286 294/294/294
f 293/293/293 294/294/294 295/295/295
f 295/295/295 294/294/294 296/296/296
f 295/295/295 296/296/296 297/297/297
f 297/297/297 296/296/296 298/298/298
f 297/297/297 298/298/298 299/299/299
f 299/299/299 298/298/298 300/300/300
f 303/303/303 302/302/302 301/301/301
f 304/304/304 302/302/302 303/303/303
f 303/303/303 301/301/301 305/305/305
f 305/305/305 301/301/301 306/306/306
f 305/305/305 306/306/306 307/307/307
f 307/307/307 306/306/306 308/308/308
f 307/307/307 308/308/308 309/309/309
f 309/309/309 308/308/308 310/310/310
f 309/309/309 310/310/310 311/311/311
f 311/311/311 310/310/310 312/312/312
f 304/304/304 313/313/313 302/302/302
f 314/314/314 313/313/313 304/304/304
f 314/314/314 315/315/315 313/313/313
f 316/316/316 315/315/315 314/314/314
f 316/316/316 317/317/317 315/315/315
f 318/318/318 317/317/317 316/316/316
f 318/318/318 319/319/319 317/317/317
f 320/320/320 319/319/319 318/318/318
f 320/320/320 321/321/321 319/319/319
f 322/322/322 321/321/321 320/320/320
f 325/325/325 324/324/324 323/323/323
f 326/326/326 324/324/324 325/325/325
f 325/325/325 323/323/323 327/327/327
f 327/327/327 323/323/323 328/328/328
f 327/327/327 328/328/328 329/329/329
f 329/329/329 328/328/328 330/330/330
f 329/329/329 330/330/330 331/331/331
f 331/331/331 330/330/330 332/332/332
f 331/331/331 332/332/332 333/333/333
f 333/333/333 332/332/332 334/334/334
f 335/335/335 333/333/333 334/334/334
f 336/336/336 333/333/333 335/335/335
f 326/326/326 337/337/337 324/324/324
f 338/338/338 337/337/337 326/326/326
f 338/338/338 339/339/339 337/337/337
f 340/340/340 326/326/326 325/325/325
f 341/341/341 326/326/326 340/340/340
f 341/341/341 338/338/338 326/326/326
f 342/342/342 327/327/327 329/329/329
f 343/343/343 327/327/327 342/342/342
f 340/340/340 325/325/325 343/343/343
f 343/343/343 325/325/325 327/327/327
f 344/344/344 331/331/331 333/333/333
f 336/336/336 344/344/344 333/333/333
f 345/345/345 331/331/331 344/344/344
f 342/342/342 329/329/329 345/345/345
f 345/345/345 329/329/329 331/331/331
f 346/346/346 344/344/344 336/336/336
f 347/347/347 341/341/341 340/340/340
f 348/348/348 341/341/341 347/347/347
f 349/349/349 340/340/340 343/343/343
f 347/347/347 340/340/340 349/349/349
f 350/350/350 343/343/343 342/342/342
f 349/349/349 343/343/343 350/350/350
f 351/351/351 342/342/342 345/345/345
f 350/350/350 342/342/342 351/351/351
f 352/352/352 345/345/345 344/344/344
f 351/351/351 345/345/345 352/352/352
f 346/346/346 353/353/353 344/344/344
f 355/355/355 354/354/354 348/348/348
f 355/355/355 356/356/356 354/354/354
f 356/356/356 357/357/357 354/354/354
f 358/358/358 356/356/356 355/355/355
f 348/348/348 354/354/354 341/341/341
f 354/354/354 359/359/359 341/341/341
f 362/362/362 361/361/361 360/360/360
f 365/365/365 364/364/364 363/363/363
f 367/367/367 366/366/366 364/364/364
f 368/368/368 367/367/367 364/364/364
f 369/369/369 368/368/368 364/364/364
f 370/370/370 369/369/369 364/364/364
f 371/371/371 370/370/370 364/364/364
f 372/372/372 371/371/371 364/364/364
f 373/373/373 372/372/372 364/364/364
f 374/374/374 373/373/373 364/364/364
f 374/374/374 364/364/364 375/375/375
f 375/375/375 364/364/364 376/376/376
f 376/376/376 364/364/364 377/377/377
f 377/377/377 364/364/364 378/378/378
f 376/376/376 377/377/377 379/379/379
f 380/380/380 376/376/376 379/379/379
f 380/380/380 379/379/379 381/381/381
f 381/381/381 379/379/379 382/382/382
f 381/381/381 382/382/382 383/383/383
f 384/384/384 381/381/381 383/383/383
f 385/385/385 381/381/381 384/384/384
f 385/385/385 380/380/380 381/381/381
f 385/385/385 384/384/384 386/386/386
f 386/386/386 384/384/384 387/387/387
f 386/386/386 387/387/387 388/388/388
f 388/388/388 387/387/387 389/389/389
f 388/388/388 389/389/389 390/390/390
f 390/390/390 389/389/389 391/391/391
f 390/390/390 391/391/391 392/392/392
f 392/392/392 391/391/391 393/393/393
f 383/383/383 382/382/382 394/394/394
f 382/382/382 395/395/395 394/394/394
f 394/394/394 395/395/395 396/396/396
f 382/382/382 397/397/397 395/395/395
f 379/379/379 397/397/397 382/382/382
f 398/398/398 385/385/385 386/386/386
f 399/399/399 385/385/385 398/398/398
f 399/399/399 380/380/380 385/385/385
f 400/400/400 386/386/386 388/388/388
f 398/398/398 386/386/386 400/400/400
f 400/400/400 388/388/388 401/401/401
f 399/399/399 402/402/402 380/380/380
f 403/403/403 402/402/402 399/399/399
f 404/404/404 399/399/399 398/398/398
f 403/403/403 399/399/399 404/404/404
f 405/405/405 398/398/398 400/400/400
f 404/404/404 398/398/398 405/405/405
f 406/406/406 400/400/400 401/401/401
f 405/405/405 400/400/400 406/406/406
f 379/379/379 377/377/377 397/397/397
f 377/377/377 407/407/407 397/397/397
f 409/409/409 388/388/388 408/408/408
f 410/410/410 376/376/376 380/380/380
f 413/413/413 412/412/412 411/411/411
f 414/414/414 412/412/412 413/413/413
f 417/417/417 416/416/416 415/415/415
f 420/420/420 419/419/419 418/418/418
f 423/423/423 422/422/422 421/421/421
f 422/422/422 424/424/424 421/421/421
f 427/427/427 426/426/426 425/425/425
f 430/430/430 429/429/429 428/428/428
f 431/431/431 390/390/390 392/392/392
f 434/434/434 433/433/433 432/432/432
f 437/437/437 436/436/436 435/435/435
f 440/440/440 439/439/439 438/438/438
f 443/443/443 442/442/442 441/441/441
f 444/444/444 443/443/443 441/441/441
