g GVG_Stove_BoxFuse_mesh
v 134.021 92.07513 -367.6239
v 127.5476 88.16909 -362.383
v 132.3089 87.24284 -369.6591
v 125.7386 83.35887 -364.7088
v 137.0792 90.43982 -375.5993
v 139.3404 95.62208 -373.9518
v 142.139 94.3529 -381.9525
v 144.264 99.44984 -380.2538
v 146.6196 98.75702 -389.46
v 148.7839 103.4849 -387.651
v 152.3799 101.1588 -393.4201
v 154.0273 105.7792 -391.6435
v 157.8622 103.4268 -397.8401
v 159.2238 107.9457 -395.5447
v 168.7555 107.1687 -401.7597
v 169.4052 111.8469 -399.1972
v 179.8552 112.4241 -403.242
v 179.8983 117.1826 -400.5168
v 188.66 116.4687 -401.036
v 187.9551 121.2063 -398.5704
v 196.4819 120.2075 -397.5603
v 194.5672 124.6827 -395.4922
v 201.5221 123.5665 -393.8702
v 199.6245 128.0724 -392.148
v 207.2824 127.6681 -387.5699
v 205.248 132.1897 -386.6681
v 210.5015 132.3842 -380.0714
v 208.2006 136.6637 -379.9674
v 210.0643 135.6672 -373.9
v 207.633 140.1892 -374.0263
v 206.029 140.7341 -366.0185
v 203.3663 145.4418 -366.8259
v 198.7315 140.635 -359.9136
v 196.9906 145.5762 -361.0389
v 195.9793 139.6239 -356.3087
v 193.9307 144.3893 -357.03
v 194.5713 138.3423 -351.5759
v 192.1559 142.9928 -351.7992
v 194.4972 136.6766 -345.2194
v 192.3669 141.368 -345.043
v 197.2936 135.5724 -342.1593
v 195.6132 140.1282 -341.0784
v 199.4711 134.7368 -339.9051
v 198.3337 139.2099 -338.4057
v 202.7221 133.8336 -339.1334
v 202.7759 138.1862 -336.8127
v 207.0577 132.636 -339.9887
v 207.849 136.9328 -337.4579
v 211.729 131.1739 -342.7228
v 213.9823 135.3997 -340.5472
v 214.797 129.902 -346.3399
v 217.1649 134.2452 -344.5732
v 219.4885 133.7437 -348.131
v 216.39 130.5096 -349.3431
v 221.8827 133.2269 -351.7971
v 213.2833 128.9107 -350.7523
v 218.0316 131.1358 -352.4378
v 221.8827 133.2269 -351.7971
v 215.2879 128.4167 -353.2448
v 213.376 129.3902 -347.7709
v 134.021 92.07513 -367.6239
v 137.0791 87.30436 -363.9888
v 127.5476 88.16909 -362.383
v 130.7789 83.35887 -358.2285
v 143.3795 91.47641 -371.0091
v 139.3404 95.62208 -373.9518
v 144.264 99.44984 -380.2538
v 148.0597 95.15177 -377.2194
v 148.7839 103.4849 -387.651
v 152.6499 98.52748 -384.4197
v 156.97 100.6298 -388.4699
v 154.0273 105.7792 -391.6435
v 159.2238 107.9457 -395.5447
v 161.6559 102.615 -391.4446
v 169.4052 111.8469 -399.1972
v 170.5657 106.8007 -394.6199
v 179.8983 117.1826 -400.5168
v 179.9753 112.2799 -395.649
v 186.6959 116.2666 -394.1664
v 187.9551 121.2063 -398.5704
v 194.5672 124.6827 -395.4922
v 191.1471 119.2742 -391.7982
v 199.6245 128.0724 -392.148
v 196.2349 122.7187 -389.0718
v 205.248 132.1897 -386.6681
v 201.614 126.8638 -385.0574
v 204.0905 130.9054 -379.7817
v 208.2006 136.6637 -379.9674
v 207.633 140.1892 -374.0263
v 203.2902 134.8641 -374.252
v 203.3663 145.4418 -366.8259
v 198.61 140.4486 -368.268
v 196.9906 145.5762 -361.0389
v 193.881 141.0001 -363.0489
v 190.2716 139.4991 -358.3185
v 193.9307 144.3893 -357.03
v 187.8415 137.8974 -352.1982
v 192.1559 142.9928 -351.7992
v 188.5615 136.3457 -344.7279
v 192.3669 141.368 -345.043
v 192.6117 134.8634 -339.1476
v 195.6132 140.1282 -341.0784
v 196.3019 133.7975 -335.7275
v 198.3337 139.2099 -338.4057
v 202.8722 132.5585 -332.6674
v 202.7759 138.1862 -336.8127
v 209.2625 131.2054 -332.9373
v 207.849 136.9328 -337.4579
v 218.0074 129.5456 -336.6611
v 213.9823 135.3997 -340.5472
v 217.1649 134.2452 -344.5732
v 221.3946 128.6006 -341.4175
v 223.1391 130.2817 -345.6982
v 219.4885 133.7437 -348.131
v 221.8827 133.2269 -351.7971
v 224.6729 128.4167 -343.6909
v 224.9367 132.014 -350.1093
v 221.8827 133.2269 -351.7971
v 225.7786 128.4167 -345.8206
v 223.5998 128.4167 -341.6243
v 95.61346 167.9358 -296.6181
v 95.53724 169.8947 -301.4052
v 98.3508 171.1082 -295.7546
v 98.27543 173.1465 -300.7398
v 95.80349 171.6584 -306.3585
v 98.52626 174.8678 -305.4971
v 95.08762 173.3748 -310.3481
v 98.18329 176.6824 -309.9525
v 94.10382 175.1786 -314.4245
v 97.32398 178.684 -314.7387
v 92.94662 176.5247 -317.6277
v 95.02927 180.2222 -319.1087
v 90.75711 174.5387 -319.8739
v 90.61422 178.8548 -322.1455
v 87.79485 171.7236 -321.1595
v 86.47742 176.0195 -323.0626
v 83.35075 169.2439 -321.6032
v 81.48869 173.4258 -322.5916
v 79.87081 166.5649 -321.2393
v 77.93848 170.2816 -321.3189
v 78.57252 165.2788 -319.8657
v 76.57252 169.4744 -319.9045
v 76.62148 163.3462 -317.8014
v 74.10146 167.1176 -317.1461
v 72.79823 160.4598 -315.1897
v 71.06979 164.4135 -314.0673
v 72.19823 158.6784 -313.0132
v 70.1312 162.3414 -311.3773
v 71.12458 157.0056 -310.9635
v 69.17291 159.9273 -308.2599
v 70.58199 153.7386 -306.5643
v 69.38338 156.9082 -303.6347
v 69.39257 149.9825 -301.0388
v 69.7949 153.378 -299.2379
v 70.96599 146.5826 -298.2153
v 71.66627 149.2863 -295.7432
v 73.18296 142.8296 -296.4012
v 73.85432 144.9137 -293.2007
v 90.61422 178.8548 -322.1455
v 86.47742 176.0195 -323.0626
v 93.76712 177.2511 -325.5035
v 98.15584 177.2511 -322.0144
v 95.02927 180.2222 -319.1087
v 100.1513 175.7857 -317.5072
v 97.32398 178.684 -314.7387
v 100.9887 173.646 -312.1779
v 98.18329 176.6824 -309.9525
v 101.0494 171.6773 -307.1192
v 98.52626 174.8678 -305.4971
v 100.8079 170.0072 -302.5859
v 98.27543 173.1465 -300.7398
v 100.8353 167.9358 -297.5121
v 98.3508 171.1082 -295.7546
v 88.55997 174.8822 -327.4293
v 81.48869 173.4258 -322.5916
v 82.39117 172.4384 -327.1551
v 77.93848 170.2816 -321.3189
v 77.49466 168.5138 -325.2607
v 74.69315 168.147 -324.0207
v 76.57252 169.4744 -319.9045
v 74.10146 167.1176 -317.1461
v 71.51697 165.7335 -321.0421
v 71.06979 164.4135 -314.0673
v 68.54835 163.3225 -317.5279
v 66.60153 160.9543 -314.1674
v 70.1312 162.3414 -311.3773
v 69.17291 159.9273 -308.2599
v 65.27362 157.5346 -309.4635
v 69.38338 156.9082 -303.6347
v 65.40156 154.8611 -304.193
v 69.7949 153.378 -299.2379
v 66.67831 152.0759 -300.9941
v 68.48534 147.6205 -296.8769
v 71.66627 149.2863 -295.7432
v 73.85432 144.9137 -293.2007
v 70.56875 142.8296 -293.7596
v 147.7204 179.9725 -317.9207
v 151.8006 179.9725 -319.2419
v 149.2758 177.2511 -315.2023
v 152.9529 177.2511 -317.5125
v 144.6779 177.2511 -314.5717
v 144.0669 179.9725 -316.9043
v 140.1372 177.2511 -313.7203
v 139.4412 179.9551 -316.1817
v 135.2561 176.9042 -313.2662
v 134.2673 178.8207 -316.133
v 130.4884 174.0278 -312.6987
v 129.1529 174.9322 -316.2969
v 125.0407 168.1592 -313.9838
v 124.8334 169.8082 -317.403
v 120.5558 163.2745 -315.423
v 121.1019 166.0201 -318.3969
v 117.2627 161.9671 -316.621
v 118.9898 164.6857 -319.1945
v 114.2558 163.8816 -320.4195
v 116.8422 166.4079 -322.0099
v 111.7487 167.6219 -324.6355
v 114.4318 170.259 -326.2955
v 108.1826 173.237 -328.4206
v 110.8681 175.7669 -330.3074
v 104.55 176.7079 -331.5422
v 106.1867 179.4741 -333.4089
v 101.3149 177.2511 -332.7342
v 101.8018 179.97 -335.3577
v 96.95413 177.2511 -333.5547
v 97.14973 179.9725 -336.4702
v 92.39014 177.2511 -333.7874
v 92.36337 179.9725 -336.7019
v 88.2211 177.2511 -333.5215
v 88.09693 179.9725 -336.2168
v 84.64423 177.2511 -331.887
v 83.82655 179.9544 -333.6158
v 80.39533 175.6974 -330.0928
v 79.15187 178.928 -331.0779
v 77.31187 172.3391 -327.454
v 75.56387 175.4876 -327.7028
v 74.69315 168.147 -324.0207
v 73.08762 172.1479 -324.0596
v 71.51697 165.7335 -321.0421
v 69.88548 169.7565 -320.5395
v 68.54835 163.3225 -317.5279
v 67.10751 167.1352 -316.7236
v 66.60153 160.9543 -314.1674
v 65.32916 164.3118 -313.0363
v 65.27362 157.5346 -309.4635
v 64.8325 161.0643 -308.3516
v 65.40156 154.8611 -304.193
v 64.89198 158.395 -303.2184
v 66.67831 152.0759 -300.9941
v 65.73208 155.5262 -298.5934
v 68.48534 147.6205 -296.8769
v 68.3531 150.4142 -293.6104
v 70.56875 142.8296 -293.7596
v 71.5869 144.3802 -290.7028
v 144.0669 179.9725 -316.9043
v 139.4412 179.9551 -316.1817
v 143.4292 177.2511 -319.3393
v 146.0968 177.2511 -320.7582
v 139.2858 177.2511 -318.4879
v 134.2673 178.8207 -316.133
v 135.4831 175.8521 -318.0339
v 129.1529 174.9322 -316.2969
v 131.2262 171.9668 -318.1474
v 124.8334 169.8082 -317.403
v 128.1046 167.7969 -318.7718
v 121.1019 166.0201 -318.3969
v 124.4721 164.3938 -319.7934
v 118.9898 164.6857 -319.1945
v 147.7204 179.9725 -317.9207
v 151.8006 179.9725 -319.2419
v 150.5978 177.2511 -321.047
v 124.4721 164.3938 -319.7934
v 118.9898 164.6857 -319.1945
v 121.0099 161.9671 -322.007
v 118.9898 164.6857 -319.1945
v 116.8422 166.4079 -322.0099
v 121.0099 161.9671 -322.007
v 117.195 164.3238 -325.4419
v 114.4318 170.259 -326.2955
v 114.0664 168.9951 -330.2144
v 110.8681 175.7669 -330.3074
v 110.6231 174.1757 -334.2098
v 106.1867 179.4741 -333.4089
v 106.3344 177.1189 -336.3657
v 101.8018 179.97 -335.3577
v 102.1293 177.2511 -338.2518
v 97.14973 179.9725 -336.4702
v 97.35389 177.2511 -339.5136
v 92.36337 179.9725 -336.7019
v 92.3354 177.2511 -339.7442
v 88.09693 179.9725 -336.2168
v 87.96731 177.2511 -339.0303
v 83.82655 179.9544 -333.6158
v 83.20676 177.2511 -336.0173
v 79.15187 178.928 -331.0779
v 78.91465 177.2511 -334.1842
v 75.56387 175.4876 -327.7028
v 74.68787 174.3817 -331.2403
v 73.08762 172.1479 -324.0596
v 71.05458 172.2148 -327.8313
v 66.88223 170.0479 -323.7532
v 69.88548 169.7565 -320.5395
v 67.10751 167.1352 -316.7236
v 64.03801 167.2864 -319.6024
v 65.32916 164.3118 -313.0363
v 61.95802 163.8761 -315.2075
v 64.8325 161.0643 -308.3516
v 61.58072 160.6997 -309.7892
v 64.89198 158.395 -303.2184
v 61.15732 158.0031 -304.2075
v 65.73208 155.5262 -298.5934
v 61.29106 155.2135 -298.0083
v 64.33418 149.8704 -292.1767
v 68.3531 150.4142 -293.6104
v 71.5869 144.3802 -290.7028
v 68.55504 142.8296 -289.5433
vt 0.82076 0.07833
vt 0.810212 0.088045
vt 0.820242 0.073396
vt 0.809511 0.082525
vt 0.827831 0.062142
vt 0.829254 0.066348
vt 0.835595 0.050155
vt 0.836815 0.054429
vt 0.841936 0.035902
vt 0.843471 0.040312
vt 0.852043 0.028375
vt 0.852627 0.032691
vt 0.861693 0.019889
vt 0.861782 0.025217
vt 0.881363 0.01262
vt 0.879967 0.018505
vt 0.900651 0.010461
vt 0.898024 0.016696
vt 0.916085 0.015537
vt 0.911986 0.021266
vt 0.92976 0.023143
vt 0.923384 0.02805
vt 0.938068 0.031145
vt 0.931717 0.03538
vt 0.947448 0.044582
vt 0.940817 0.047189
vt 0.951368 0.060607
vt 0.944324 0.061586
vt 0.948665 0.073735
vt 0.941205 0.074317
vt 0.937634 0.090726
vt 0.929558 0.089989
vt 0.922829 0.103138
vt 0.916471 0.101825
vt 0.9178 0.110275
vt 0.910906 0.109766
vt 0.915664 0.119645
vt 0.908088 0.120148
vt 0.916461 0.132224
vt 0.909449 0.133575
vt 0.92277 0.138209
vt 0.916768 0.141384
vt 0.927665 0.142609
vt 0.922827 0.146625
vt 0.934773 0.143981
vt 0.932442 0.149643
vt 0.944241 0.141987
vt 0.94346 0.148057
vt 0.954525 0.136129
vt 0.956773 0.141447
vt 0.961443 0.128528
vt 0.963871 0.133024
vt 0.968862 0.125695
vt 0.96434 0.122567
vt 0.974003 0.118147
vt 0.958918 0.119382
vt 0.967327 0.11642
vt 0.974003 0.118147
vt 0.963249 0.114233
vt 0.958843 0.125522
vt 0.82076 0.07833
vt 0.829695 0.084688
vt 0.810212 0.088045
vt 0.819521 0.095396
vt 0.839771 0.071473
vt 0.829254 0.066348
vt 0.836815 0.054429
vt 0.84694 0.059741
vt 0.843471 0.040312
vt 0.854128 0.045941
vt 0.861539 0.038194
vt 0.852627 0.032691
vt 0.861782 0.025217
vt 0.869764 0.032568
vt 0.879967 0.018505
vt 0.885207 0.026887
vt 0.898024 0.016696
vt 0.900975 0.02571
vt 0.912242 0.029345
vt 0.911986 0.021266
vt 0.923384 0.02805
vt 0.919519 0.034616
vt 0.931717 0.03538
vt 0.927857 0.0407
vt 0.940817 0.047189
vt 0.936419 0.049529
vt 0.939185 0.06093
vt 0.944324 0.061586
vt 0.941205 0.074317
vt 0.93535 0.072872
vt 0.929558 0.089989
vt 0.922688 0.08609
vt 0.916471 0.101825
vt 0.912743 0.096825
vt 0.906254 0.106159
vt 0.910906 0.109766
vt 0.90223 0.118288
vt 0.908088 0.120148
vt 0.904585 0.133153
vt 0.909449 0.133575
vt 0.913661 0.144175
vt 0.916768 0.141384
vt 0.921759 0.150888
vt 0.922827 0.146625
vt 0.935791 0.156826
vt 0.932442 0.149643
vt 0.949506 0.155979
vt 0.94346 0.148057
vt 0.968143 0.148067
vt 0.956773 0.141447
vt 0.963871 0.133024
vt 0.975518 0.138227
vt 0.978145 0.129908
vt 0.968862 0.125695
vt 0.974003 0.118147
vt 0.982257 0.133583
vt 0.980856 0.121323
vt 0.974003 0.118147
vt 0.984497 0.12927
vt 0.980084 0.137769
vt 0.743948 0.165104
vt 0.742466 0.155741
vt 0.747452 0.167718
vt 0.745919 0.157956
vt 0.741821 0.14597
vt 0.745273 0.148566
vt 0.739178 0.138162
vt 0.743334 0.139809
vt 0.735917 0.130184
vt 0.740195 0.1304
vt 0.732605 0.123889
vt 0.734391 0.121724
vt 0.729434 0.118761
vt 0.72618 0.115101
vt 0.725242 0.115427
vt 0.719568 0.112522
vt 0.717773 0.113917
vt 0.711044 0.112876
vt 0.712445 0.114027
vt 0.705892 0.114752
vt 0.710657 0.116549
vt 0.703634 0.117476
vt 0.707976 0.120332
vt 0.700176 0.122593
vt 0.702111 0.125002
vt 0.695814 0.128274
vt 0.702111 0.129037
vt 0.695325 0.133298
vt 0.701065 0.132833
vt 0.695034 0.139105
vt 0.702209 0.14104
vt 0.697561 0.147841
vt 0.702363 0.151404
vt 0.700846 0.155954
vt 0.707914 0.156307
vt 0.707491 0.162052
vt 0.714999 0.159049
vt 0.714949 0.166112
vt 0.72618 0.115101
vt 0.719568 0.112522
vt 0.733807 0.107765
vt 0.742891 0.114987
vt 0.734391 0.121724
vt 0.748013 0.123958
vt 0.740195 0.1304
vt 0.751188 0.134448
vt 0.743334 0.139809
vt 0.752639 0.144404
vt 0.745273 0.148566
vt 0.753264 0.153335
vt 0.745919 0.157956
vt 0.754711 0.163261
vt 0.747452 0.167718
vt 0.724657 0.103222
vt 0.711044 0.112876
vt 0.713591 0.103215
vt 0.705892 0.114752
vt 0.706201 0.106202
vt 0.70068 0.108672
vt 0.703634 0.117476
vt 0.700176 0.122593
vt 0.695815 0.114235
vt 0.695814 0.128274
vt 0.691386 0.120889
vt 0.689036 0.127223
vt 0.695325 0.133298
vt 0.695034 0.139105
vt 0.688695 0.13604
vt 0.697561 0.147841
vt 0.690818 0.146179
vt 0.700846 0.155954
vt 0.695365 0.152026
vt 0.702135 0.159307
vt 0.707491 0.162052
vt 0.714949 0.166112
vt 0.709671 0.164433
vt 0.843756 0.124125
vt 0.852212 0.121387
vt 0.8487 0.129086
vt 0.856311 0.124305
vt 0.839183 0.130392
vt 0.836185 0.126231
vt 0.829785 0.132154
vt 0.82661 0.127724
vt 0.819905 0.133008
vt 0.816621 0.127546
vt 0.811902 0.133467
vt 0.808555 0.126252
vt 0.804458 0.129365
vt 0.802961 0.122717
vt 0.798394 0.125207
vt 0.797733 0.119751
vt 0.792474 0.122426
vt 0.794254 0.117788
vt 0.785038 0.115074
vt 0.788706 0.112403
vt 0.777413 0.107281
vt 0.781205 0.104478
vt 0.766327 0.100788
vt 0.770192 0.097476
vt 0.756491 0.09514
vt 0.758019 0.091913
vt 0.749429 0.092799
vt 0.748599 0.087989
vt 0.740403 0.0911
vt 0.738956 0.085684
vt 0.730957 0.090619
vt 0.729037 0.085204
vt 0.722328 0.091169
vt 0.720196 0.086209
vt 0.714924 0.094552
vt 0.711358 0.091595
vt 0.707209 0.097904
vt 0.702387 0.096616
vt 0.70317 0.102574
vt 0.697363 0.102798
vt 0.70068 0.108672
vt 0.694579 0.109539
vt 0.695815 0.114235
vt 0.689643 0.116234
vt 0.691386 0.120889
vt 0.685753 0.123468
vt 0.689036 0.127223
vt 0.684071 0.130371
vt 0.688695 0.13604
vt 0.685324 0.1392
vt 0.690818 0.146179
vt 0.687312 0.149071
vt 0.695365 0.152026
vt 0.691033 0.157825
vt 0.702135 0.159307
vt 0.69994 0.166705
vt 0.709671 0.164433
vt 0.710688 0.171069
vt 0.836185 0.126231
vt 0.82661 0.127724
vt 0.836598 0.120523
vt 0.84212 0.117586
vt 0.828022 0.122286
vt 0.816621 0.127546
vt 0.821052 0.122884
vt 0.808555 0.126252
vt 0.814757 0.121705
vt 0.802961 0.122717
vt 0.811008 0.119408
vt 0.797733 0.119751
vt 0.805726 0.116485
vt 0.794254 0.117788
vt 0.843756 0.124125
vt 0.852212 0.121387
vt 0.851436 0.116989
vt 0.805726 0.116485
vt 0.794254 0.117788
vt 0.800177 0.111354
vt 0.794254 0.117788
vt 0.788706 0.112403
vt 0.800177 0.111354
vt 0.790796 0.104845
vt 0.781205 0.104478
vt 0.781285 0.0961
vt 0.770192 0.097476
vt 0.770745 0.089041
vt 0.758019 0.091913
vt 0.759908 0.085252
vt 0.748599 0.087989
vt 0.751115 0.081378
vt 0.738956 0.085684
vt 0.741231 0.078766
vt 0.729037 0.085204
vt 0.730844 0.078289
vt 0.720196 0.086209
vt 0.721802 0.079767
vt 0.711358 0.091595
vt 0.711949 0.086003
vt 0.702387 0.096616
vt 0.703065 0.089797
vt 0.697363 0.102798
vt 0.696324 0.095227
vt 0.694579 0.109539
vt 0.690334 0.101766
vt 0.683243 0.109674
vt 0.689643 0.116234
vt 0.685753 0.123468
vt 0.679322 0.117573
vt 0.684071 0.130371
vt 0.67744 0.125797
vt 0.685324 0.1392
vt 0.678898 0.136156
vt 0.687312 0.149071
vt 0.679921 0.146942
vt 0.691033 0.157825
vt 0.682149 0.158944
vt 0.692098 0.169495
vt 0.69994 0.166705
vt 0.710688 0.171069
vt 0.705566 0.173027
vn -0.7670289 0.4655473 -0.4415114
vn -0.69933 0.4903885 -0.5200545
vn -0.7345685 0.4786014 -0.4809884
vn -0.6893348 0.5086527 -0.515839
vn -0.7986448 0.462693 -0.3848139
vn -0.8036923 0.4651968 -0.3710398
vn -0.8288929 0.4566689 -0.3230948
vn -0.8392438 0.4613849 -0.2877392
vn -0.7891046 0.4878508 -0.3732501
vn -0.7189082 0.4940313 -0.4889828
vn -0.6476555 0.479282 -0.59231
vn -0.6551959 0.4725001 -0.5894591
vn -0.5879667 0.4914897 -0.642443
vn -0.5165477 0.4956764 -0.6982002
vn -0.4114287 0.4916215 -0.767486
vn -0.3781437 0.4785859 -0.792441
vn -0.2330835 0.4909252 -0.839443
vn -0.1239722 0.4815324 -0.8676159
vn 0.04418091 0.478669 -0.8768831
vn 0.1006403 0.4693134 -0.8772779
vn 0.1963383 0.4809826 -0.854463
vn 0.2338428 0.4699351 -0.8511631
vn 0.3389161 0.4756564 -0.8117185
vn 0.4124348 0.4359318 -0.799913
vn 0.5589339 0.4335526 -0.7068416
vn 0.6408693 0.4052632 -0.6519572
vn 0.7740536 0.4403149 -0.4549327
vn 0.8308144 0.4512261 -0.3257952
vn 0.8775008 0.4728829 -0.07983907
vn 0.873844 0.4853006 0.02966268
vn 0.8003371 0.4950722 0.3381774
vn 0.7146729 0.4611808 0.5258848
vn 0.6274105 0.4008476 0.6675906
vn 0.6609789 0.3814698 0.6462104
vn 0.7381756 0.3981112 0.5446138
vn 0.7809334 0.4168634 0.4651537
vn 0.8468055 0.4414588 0.2967062
vn 0.8745683 0.441794 0.1998709
vn 0.8923182 0.4339701 -0.1242497
vn 0.8453383 0.408945 -0.3437544
vn 0.7486018 0.3880521 -0.5375973
vn 0.7358418 0.3942552 -0.5505449
vn 0.6009357 0.3956049 -0.6945307
vn 0.4817588 0.4028009 -0.7782416
vn 0.2236466 0.4323312 -0.8735399
vn 0.1231264 0.4777472 -0.8698262
vn -0.1113499 0.5053939 -0.8556741
vn -0.1850715 0.5318687 -0.826356
vn -0.3579057 0.5599754 -0.7472156
vn -0.4485975 0.5726228 -0.6861948
vn -0.5326985 0.7563391 -0.3797152
vn -0.6117045 0.5605709 -0.5581917
vn -0.6310594 0.6672549 -0.3956452
vn -0.5227292 0.8351654 -0.1710349
vn -0.5211776 0.8095827 -0.2700923
vn -0.4094611 0.8889771 -0.2050887
vn -0.4862501 0.8436521 -0.227622
vn -0.3351943 0.9410793 -0.04488217
vn -0.5066196 0.6716494 -0.5405772
vn -0.1982627 0.9686642 -0.1496048
vn 0.2482461 0.6938573 0.6759703
vn 0.2157926 0.6898597 0.6910334
vn 0.1807868 0.6884937 0.702348
vn 0.1792084 0.7092435 0.6818048
vn 0.2800579 0.7095215 0.6466427
vn 0.2714855 0.7188048 0.6400119
vn 0.2993412 0.7174045 0.6290672
vn 0.3462266 0.7122187 0.6106323
vn 0.3351898 0.6810675 0.6509953
vn 0.355453 0.6889315 0.6316855
vn 0.2685934 0.6410159 0.7189966
vn 0.2898832 0.6167167 0.7318662
vn 0.1757484 0.6335407 0.7534843
vn 0.06227952 0.6493696 0.7579184
vn -0.0767078 0.6416385 0.763162
vn -0.1964831 0.6570481 0.7277927
vn -0.3793325 0.6430721 0.6652556
vn -0.4076207 0.6401562 0.6511877
vn -0.5511677 0.6408127 0.5343906
vn -0.5230302 0.6375864 0.5656174
vn -0.6332398 0.6509439 0.4186637
vn -0.6561983 0.6556708 0.3734964
vn -0.6847143 0.642978 0.343141
vn -0.7022718 0.6228428 0.3447913
vn -0.787358 0.5994919 0.1437947
vn -0.7922013 0.5889197 0.1599711
vn -0.7849446 0.5700282 -0.2427544
vn -0.7988786 0.5634177 -0.2106031
vn -0.6652564 0.5291885 -0.5266817
vn -0.5261294 0.5369043 -0.6594859
vn -0.4700592 0.562296 -0.6803437
vn -0.4678413 0.6087692 -0.640722
vn -0.6209982 0.6340404 -0.4608188
vn -0.6314154 0.6285446 -0.4541434
vn -0.7298259 0.6236047 -0.2801276
vn -0.7496583 0.6322726 -0.1955603
vn -0.7709116 0.6368756 -0.009202315
vn -0.770781 0.6297303 0.09662549
vn -0.7365276 0.5917998 0.327567
vn -0.6720864 0.5684881 0.474469
vn -0.5578682 0.5312001 0.6376594
vn -0.514438 0.5358645 0.6694795
vn -0.4257573 0.5261963 0.7361034
vn -0.3145799 0.5469916 0.7757832
vn -0.09371246 0.5704055 0.8159997
vn 0.08699133 0.612607 0.7855858
vn 0.2721853 0.6210698 0.7349744
vn 0.372217 0.6547769 0.6578158
vn 0.5541375 0.6785883 0.4821303
vn 0.5657436 0.6893439 0.4524813
vn 0.6108643 0.7076306 0.3551109
vn 0.434902 0.8295967 0.350185
vn 0.4329862 0.8080627 0.3994465
vn 0.5673349 0.7812321 0.2603987
vn 0.3603622 0.866904 0.3444075
vn 0.4029743 0.8440443 0.3538375
vn 0.4184074 0.8000278 0.4299892
vn 0.08808924 0.9699701 0.2267119
vn 0.7075793 0.6036182 0.3673919
vn 0.0872545 0.9951553 0.04530547
vn -0.7653901 0.5912687 0.2541248
vn -0.7674379 0.5990853 0.228333
vn -0.7651276 0.5917046 0.2539004
vn -0.7700896 0.60466 0.2033425
vn -0.7699271 0.590201 0.2426421
vn -0.7500941 0.5955549 0.2875296
vn -0.71913 0.5884371 0.3695859
vn -0.6873626 0.6216414 0.3756256
vn -0.6572887 0.6167925 0.4330572
vn -0.6395069 0.6097515 0.4682242
vn -0.6857858 0.5840722 0.434232
vn -0.6892813 0.5045617 0.5199121
vn -0.6923977 0.4306284 0.5789168
vn -0.5439411 0.3283672 0.7722066
vn -0.4345304 0.3180742 0.8426222
vn -0.2278724 0.2748207 0.9341027
vn -0.1169268 0.2506743 0.9609842
vn 0.04889703 0.1894686 0.9806685
vn 0.2445869 0.221442 0.9440024
vn 0.4639455 0.2475079 0.8505847
vn 0.5657915 0.2878162 0.7726848
vn 0.5840704 0.2771081 0.7629369
vn 0.5427514 0.234751 0.8064197
vn 0.5831947 0.1723832 0.7938313
vn 0.6890494 0.1715596 0.7041153
vn 0.8015203 0.1994911 0.5637096
vn 0.8326516 0.2329794 0.5024063
vn 0.8407859 0.2153101 0.4967098
vn 0.8650815 0.2298547 0.4458709
vn 0.9223847 0.2502294 0.2942648
vn 0.9447267 0.2187691 0.2441957
vn 0.9902816 0.1053041 0.09084757
vn 0.9948834 0.05432128 -0.08518364
vn 0.9520524 0.05177476 -0.3015222
vn 0.8928327 0.1498842 -0.4247169
vn 0.8892179 0.199891 -0.4115034
vn 0.8687883 0.2477706 -0.4287384
vn 0.9030313 0.2478763 -0.3508444
vn 0.01729574 0.8483061 -0.5292236
vn -0.3558105 0.8013284 -0.4809073
vn -0.1396234 0.8859352 -0.4422941
vn 0.3686988 0.8717059 -0.3227849
vn 0.5345197 0.8025879 -0.264842
vn 0.7052078 0.7089909 -0.003714247
vn 0.7422479 0.667918 0.05434696
vn 0.7781696 0.6084584 0.1556612
vn 0.7927583 0.5861483 0.1672257
vn 0.8073722 0.553111 0.2054711
vn 0.8168968 0.5364904 0.2117962
vn 0.8181314 0.5279501 0.2278809
vn 0.8199491 0.5296977 0.2170342
vn 0.8201989 0.5324837 0.2091288
vn 0.8224484 0.5307756 0.2045871
vn -0.364366 0.8625537 -0.3510536
vn -0.5102024 0.7953423 -0.3272982
vn -0.5819913 0.7679813 -0.2673779
vn -0.5549256 0.7976352 -0.2362955
vn -0.482235 0.8183294 -0.3127081
vn -0.5197552 0.851602 -0.06803424
vn -0.5958502 0.8029888 0.01310191
vn -0.6036119 0.7930851 0.08166157
vn -0.562192 0.8204105 0.1042443
vn -0.5802106 0.7894804 0.2001912
vn -0.5689243 0.806632 0.1602183
vn -0.5835387 0.7424518 0.3290106
vn -0.5787125 0.7262321 0.371051
vn -0.5709516 0.7124513 0.4079552
vn -0.5317019 0.7359038 0.4192119
vn -0.4886099 0.7204233 0.4921896
vn -0.4972364 0.6628311 0.5598311
vn -0.5231529 0.5086827 0.6837785
vn -0.5738232 0.4550176 0.6809449
vn -0.4768314 0.3761541 0.7944432
vn -0.4715643 0.3494814 0.8096233
vn -0.4161505 0.3269066 0.8484992
vn -0.3842917 0.380266 0.8412595
vn 0.1664543 0.7154772 0.6785169
vn 0.316451 0.6832302 0.6580694
vn 0.2429276 0.7029486 0.6684681
vn 0.4228781 0.606756 0.6730684
vn 0.1441234 0.6862732 0.7129218
vn 0.1496858 0.6704728 0.7266776
vn 0.08964519 0.6750888 0.7322696
vn -0.01265488 0.7248985 0.6887394
vn -0.1715784 0.7386812 0.6518518
vn -0.3708012 0.7579104 0.5367293
vn -0.5550418 0.6825725 0.475419
vn -0.6826257 0.6265925 0.3760371
vn -0.7378399 0.5758278 0.3521571
vn -0.7343836 0.5798275 0.3528184
vn -0.6469747 0.6269049 0.4340667
vn -0.5942485 0.670132 0.4447378
vn -0.4554079 0.7288376 0.5112724
vn -0.3946559 0.737488 0.5480494
vn -0.2607313 0.7074494 0.6569128
vn -0.2365068 0.6791302 0.6948718
vn -0.148879 0.6311367 0.7612499
vn -0.07554287 0.6064605 0.7915169
vn -0.02352515 0.5926636 0.8051065
vn -0.03948064 0.6049175 0.7953089
vn -0.1014683 0.6148816 0.7820644
vn -0.1578838 0.6375219 0.7540812
vn -0.1780529 0.674051 0.7169048
vn -0.1718683 0.7088722 0.6840771
vn -0.1088498 0.7208968 0.684441
vn -0.07582483 0.7310007 0.6781509
vn -0.008089671 0.7313309 0.6819748
vn 0.03029619 0.7222641 0.6909535
vn 0.1442557 0.7085941 0.6907131
vn 0.2731889 0.6597394 0.7000799
vn 0.2922335 0.6113521 0.7354237
vn 0.314224 0.5188278 0.7950352
vn 0.277717 0.4530247 0.8471375
vn 0.385311 0.3702981 0.8452305
vn 0.4296273 0.3514667 0.8318002
vn 0.5450251 0.3136876 0.7775267
vn 0.5775226 0.2834183 0.765599
vn 0.6316369 0.2289637 0.7406824
vn 0.6385797 0.2009882 0.7428458
vn 0.6996195 0.1716186 0.6935991
vn 0.7432332 0.171025 0.6468035
vn 0.7967123 0.1564465 0.5837585
vn 0.8464846 0.1757919 0.5025545
vn 0.9206495 0.1430395 0.3632413
vn 0.9709533 0.1323148 0.1993552
vn 0.991098 0.1052558 0.08152178
vn 0.9882697 0.1470341 -0.04127811
vn 0.9783499 0.199474 -0.05515071
vn 0.960283 0.2608547 -0.09905238
vn 0.9523816 0.2892896 -0.0963376
vn 0.9429436 0.291775 -0.1603897
vn 0.9204835 0.2758324 -0.2768152
vn 0.9099324 0.2719747 -0.3131339
vn 0.8679817 0.2618603 -0.4219444
vn -0.2146595 0.7062837 -0.6745995
vn -0.1395259 0.6569407 -0.7409193
vn -0.2074941 0.6682502 -0.7144143
vn -0.1963773 0.6978582 -0.6887888
vn -0.1904262 0.5823125 -0.7903481
vn -0.2386343 0.5087676 -0.8271694
vn -0.2855867 0.4056872 -0.86825
vn -0.2758851 0.3889322 -0.8789877
vn -0.246632 0.3456319 -0.9053791
vn -0.1969962 0.3571041 -0.9130548
vn -0.1710852 0.3719149 -0.9123647
vn -0.1212654 0.4678189 -0.8754657
vn -0.08614544 0.578108 -0.8114
vn -0.04921629 0.6433016 -0.7640293
vn -0.1871125 0.760267 -0.6220796
vn -0.1277558 0.6734679 -0.7280931
vn -0.05268353 0.5680583 -0.8213003
vn -0.08614544 0.578108 -0.8114
vn 0.2362162 0.7416506 -0.6278186
vn 0.5057582 0.7477118 -0.430274
vn 0.3882077 0.7860799 -0.4810126
vn 0.7849 0.5843495 -0.2060767
vn 0.5057582 0.7477118 -0.430274
vn 0.8433093 0.4855637 -0.2303417
vn 0.8958631 0.4008807 -0.1916351
vn 0.8881524 0.4054285 -0.2163634
vn 0.8327277 0.4936588 -0.2507299
vn 0.7568963 0.5625845 -0.3325755
vn 0.5770778 0.6786209 -0.454373
vn 0.4385432 0.700054 -0.5635639
vn 0.2696971 0.7305192 -0.6273796
vn 0.2131298 0.7281677 -0.6514196
vn 0.1214922 0.7397155 -0.6618614
vn 0.07838473 0.7453238 -0.6620786
vn -0.004248261 0.7457775 -0.6661814
vn -0.05256852 0.7365133 -0.6743774
vn -0.1938902 0.7181014 -0.6683839
vn -0.3038636 0.6886148 -0.6583895
vn -0.4202334 0.6583254 -0.624509
vn -0.3609886 0.7351233 -0.57383
vn -0.5064554 0.7305529 -0.4580342
vn -0.5547495 0.7831243 -0.2810149
vn -0.7388178 0.6642112 -0.113893
vn -0.6050091 0.7951835 0.04058556
vn -0.453415 0.8699718 0.1938144
vn -0.3295061 0.9240111 0.1939827
vn -0.3040859 0.8973926 0.3197159
vn -0.2993205 0.8836944 0.3598489
vn -0.3321031 0.855904 0.3964036
vn -0.3575747 0.8340983 0.420024
vn -0.3930349 0.7972323 0.4581965
vn -0.3683154 0.8040172 0.4667975
vn -0.3357569 0.8177081 0.467569
vn -0.2649484 0.8569384 0.4421074
vn -0.2415134 0.8500606 0.4680473
vn -0.1482587 0.8759169 0.4591175
vn -0.01586842 0.8124974 0.5827488
vn 0.01263868 0.8388122 0.5442743
vn 0.1354268 0.6122208 0.7790027
vn 0.1845261 0.6284634 0.7556348
vn 0.1785645 0.4682115 0.8653859
vn 0.1316563 0.4155364 0.8999978
g GVG_Stove_BoxFuse_mesh_0
f 3/3/3 2/2/2 1/1/1
f 4/4/4 2/2/2 3/3/3
f 3/3/3 1/1/1 5/5/5
f 5/5/5 1/1/1 6/6/6
f 6/6/6 7/7/7 5/5/5
f 8/8/8 7/7/7 6/6/6
f 8/8/8 9/9/9 7/7/7
f 10/10/10 9/9/9 8/8/8
f 9/9/9 10/10/10 11/11/11
f 11/11/11 10/10/10 12/12/12
f 12/12/12 13/13/13 11/11/11
f 14/14/14 13/13/13 12/12/12
f 14/14/14 15/15/15 13/13/13
f 16/16/16 15/15/15 14/14/14
f 16/16/16 17/17/17 15/15/15
f 18/18/18 17/17/17 16/16/16
f 17/17/17 18/18/18 19/19/19
f 19/19/19 18/18/18 20/20/20
f 20/20/20 21/21/21 19/19/19
f 22/22/22 21/21/21 20/20/20
f 22/22/22 23/23/23 21/21/21
f 24/24/24 23/23/23 22/22/22
f 24/24/24 25/25/25 23/23/23
f 26/26/26 25/25/25 24/24/24
f 25/25/25 26/26/26 27/27/27
f 27/27/27 26/26/26 28/28/28
f 28/28/28 29/29/29 27/27/27
f 30/30/30 29/29/29 28/28/28
f 30/30/30 31/31/31 29/29/29
f 32/32/32 31/31/31 30/30/30
f 32/32/32 33/33/33 31/31/31
f 34/34/34 33/33/33 32/32/32
f 33/33/33 34/34/34 35/35/35
f 35/35/35 34/34/34 36/36/36
f 35/35/35 36/36/36 37/37/37
f 37/37/37 36/36/36 38/38/38
f 37/37/37 38/38/38 39/39/39
f 39/39/39 38/38/38 40/40/40
f 39/39/39 40/40/40 41/41/41
f 41/41/41 40/40/40 42/42/42
f 41/41/41 42/42/42 43/43/43
f 43/43/43 42/42/42 44/44/44
f 43/43/43 44/44/44 45/45/45
f 45/45/45 44/44/44 46/46/46
f 45/45/45 46/46/46 47/47/47
f 47/47/47 46/46/46 48/48/48
f 47/47/47 48/48/48 49/49/49
f 49/49/49 48/48/48 50/50/50
f 50/50/50 51/51/51 49/49/49
f 52/52/52 51/51/51 50/50/50
f 53/53/53 51/51/51 52/52/52
f 54/54/54 51/51/51 53/53/53
f 55/55/55 54/54/54 53/53/53
f 56/56/56 51/51/51 54/54/54
f 57/57/57 56/56/56 54/54/54
f 57/57/57 54/54/54 58/58/58
f 59/59/59 56/56/56 57/57/57
f 60/60/60 51/51/51 56/56/56
f 63/63/63 62/62/62 61/61/61
f 64/64/64 62/62/62 63/63/63
f 62/62/62 65/65/65 61/61/61
f 61/61/61 65/65/65 66/66/66
f 65/65/65 67/67/67 66/66/66
f 68/68/68 67/67/67 65/65/65
f 68/68/68 69/69/69 67/67/67
f 70/70/70 69/69/69 68/68/68
f 70/70/70 71/71/71 69/69/69
f 69/69/69 71/71/71 72/72/72
f 71/71/71 73/73/73 72/72/72
f 74/74/74 73/73/73 71/71/71
f 74/74/74 75/75/75 73/73/73
f 76/76/76 75/75/75 74/74/74
f 76/76/76 77/77/77 75/75/75
f 78/78/78 77/77/77 76/76/76
f 78/78/78 79/79/79 77/77/77
f 77/77/77 79/79/79 80/80/80
f 79/79/79 81/81/81 80/80/80
f 82/82/82 81/81/81 79/79/79
f 82/82/82 83/83/83 81/81/81
f 84/84/84 83/83/83 82/82/82
f 84/84/84 85/85/85 83/83/83
f 86/86/86 85/85/85 84/84/84
f 86/86/86 87/87/87 85/85/85
f 85/85/85 87/87/87 88/88/88
f 87/87/87 89/89/89 88/88/88
f 90/90/90 89/89/89 87/87/87
f 90/90/90 91/91/91 89/89/89
f 92/92/92 91/91/91 90/90/90
f 92/92/92 93/93/93 91/91/91
f 94/94/94 93/93/93 92/92/92
f 94/94/94 95/95/95 93/93/93
f 93/93/93 95/95/95 96/96/96
f 95/95/95 97/97/97 96/96/96
f 96/96/96 97/97/97 98/98/98
f 97/97/97 99/99/99 98/98/98
f 98/98/98 99/99/99 100/100/100
f 99/99/99 101/101/101 100/100/100
f 100/100/100 101/101/101 102/102/102
f 101/101/101 103/103/103 102/102/102
f 102/102/102 103/103/103 104/104/104
f 103/103/103 105/105/105 104/104/104
f 104/104/104 105/105/105 106/106/106
f 105/105/105 107/107/107 106/106/106
f 106/106/106 107/107/107 108/108/108
f 107/107/107 109/109/109 108/108/108
f 108/108/108 109/109/109 110/110/110
f 109/109/109 111/111/111 110/110/110
f 112/112/112 111/111/111 109/109/109
f 112/112/112 113/113/113 111/111/111
f 111/111/111 113/113/113 114/114/114
f 113/113/113 115/115/115 114/114/114
f 112/112/112 116/116/116 113/113/113
f 116/116/116 117/117/117 113/113/113
f 117/117/117 118/118/118 113/113/113
f 119/119/119 117/117/117 116/116/116
f 120/120/120 116/116/116 112/112/112
f 123/123/123 122/122/122 121/121/121
f 124/124/124 122/122/122 123/123/123
f 124/124/124 125/125/125 122/122/122
f 126/126/126 125/125/125 124/124/124
f 126/126/126 127/127/127 125/125/125
f 128/128/128 127/127/127 126/126/126
f 128/128/128 129/129/129 127/127/127
f 130/130/130 129/129/129 128/128/128
f 130/130/130 131/131/131 129/129/129
f 132/132/132 131/131/131 130/130/130
f 132/132/132 133/133/133 131/131/131
f 134/134/134 133/133/133 132/132/132
f 134/134/134 135/135/135 133/133/133
f 136/136/136 135/135/135 134/134/134
f 136/136/136 137/137/137 135/135/135
f 138/138/138 137/137/137 136/136/136
f 138/138/138 139/139/139 137/137/137
f 140/140/140 139/139/139 138/138/138
f 139/139/139 140/140/140 141/141/141
f 141/141/141 140/140/140 142/142/142
f 142/142/142 143/143/143 141/141/141
f 144/144/144 143/143/143 142/142/142
f 144/144/144 145/145/145 143/143/143
f 146/146/146 145/145/145 144/144/144
f 145/145/145 146/146/146 147/147/147
f 147/147/147 146/146/146 148/148/148
f 148/148/148 149/149/149 147/147/147
f 150/150/150 149/149/149 148/148/148
f 150/150/150 151/151/151 149/149/149
f 152/152/152 151/151/151 150/150/150
f 152/152/152 153/153/153 151/151/151
f 154/154/154 153/153/153 152/152/152
f 153/153/153 154/154/154 155/155/155
f 155/155/155 154/154/154 156/156/156
f 156/156/156 157/157/157 155/155/155
f 158/158/158 157/157/157 156/156/156
f 161/161/161 160/160/160 159/159/159
f 161/161/161 159/159/159 162/162/162
f 162/162/162 159/159/159 163/163/163
f 162/162/162 163/163/163 164/164/164
f 164/164/164 163/163/163 165/165/165
f 164/164/164 165/165/165 166/166/166
f 166/166/166 165/165/165 167/167/167
f 166/166/166 167/167/167 168/168/168
f 168/168/168 167/167/167 169/169/169
f 168/168/168 169/169/169 170/170/170
f 170/170/170 169/169/169 171/171/171
f 170/170/170 171/171/171 172/172/172
f 172/172/172 171/171/171 173/173/173
f 174/174/174 160/160/160 161/161/161
f 174/174/174 175/175/175 160/160/160
f 176/176/176 175/175/175 174/174/174
f 176/176/176 177/177/177 175/175/175
f 178/178/178 177/177/177 176/176/176
f 178/178/178 179/179/179 177/177/177
f 177/177/177 179/179/179 180/180/180
f 179/179/179 181/181/181 180/180/180
f 182/182/182 181/181/181 179/179/179
f 182/182/182 183/183/183 181/181/181
f 184/184/184 183/183/183 182/182/182
f 184/184/184 185/185/185 183/183/183
f 183/183/183 185/185/185 186/186/186
f 185/185/185 187/187/187 186/186/186
f 188/188/188 187/187/187 185/185/185
f 188/188/188 189/189/189 187/187/187
f 190/190/190 189/189/189 188/188/188
f 190/190/190 191/191/191 189/189/189
f 192/192/192 191/191/191 190/190/190
f 192/192/192 193/193/193 191/191/191
f 191/191/191 193/193/193 194/194/194
f 193/193/193 195/195/195 194/194/194
f 196/196/196 195/195/195 193/193/193
f 199/199/199 198/198/198 197/197/197
f 200/200/200 198/198/198 199/199/199
f 197/197/197 201/201/201 199/199/199
f 202/202/202 201/201/201 197/197/197
f 202/202/202 203/203/203 201/201/201
f 204/204/204 203/203/203 202/202/202
f 204/204/204 205/205/205 203/203/203
f 206/206/206 205/205/205 204/204/204
f 206/206/206 207/207/207 205/205/205
f 208/208/208 207/207/207 206/206/206
f 208/208/208 209/209/209 207/207/207
f 210/210/210 209/209/209 208/208/208
f 210/210/210 211/211/211 209/209/209
f 212/212/212 211/211/211 210/210/210
f 212/212/212 213/213/213 211/211/211
f 214/214/214 213/213/213 212/212/212
f 214/214/214 215/215/215 213/213/213
f 216/216/216 215/215/215 214/214/214
f 216/216/216 217/217/217 215/215/215
f 218/218/218 217/217/217 216/216/216
f 218/218/218 219/219/219 217/217/217
f 220/220/220 219/219/219 218/218/218
f 220/220/220 221/221/221 219/219/219
f 222/222/222 221/221/221 220/220/220
f 222/222/222 223/223/223 221/221/221
f 224/224/224 223/223/223 222/222/222
f 224/224/224 225/225/225 223/223/223
f 226/226/226 225/225/225 224/224/224
f 226/226/226 227/227/227 225/225/225
f 228/228/228 227/227/227 226/226/226
f 228/228/228 229/229/229 227/227/227
f 230/230/230 229/229/229 228/228/228
f 230/230/230 231/231/231 229/229/229
f 232/232/232 231/231/231 230/230/230
f 232/232/232 233/233/233 231/231/231
f 234/234/234 233/233/233 232/232/232
f 234/234/234 235/235/235 233/233/233
f 236/236/236 235/235/235 234/234/234
f 236/236/236 237/237/237 235/235/235
f 238/238/238 237/237/237 236/236/236
f 237/237/237 238/238/238 239/239/239
f 239/239/239 238/238/238 240/240/240
f 240/240/240 241/241/241 239/239/239
f 242/242/242 241/241/241 240/240/240
f 242/242/242 243/243/243 241/241/241
f 244/244/244 243/243/243 242/242/242
f 244/244/244 245/245/245 243/243/243
f 246/246/246 245/245/245 244/244/244
f 246/246/246 247/247/247 245/245/245
f 248/248/248 247/247/247 246/246/246
f 248/248/248 249/249/249 247/247/247
f 250/250/250 249/249/249 248/248/248
f 249/249/249 250/250/250 251/251/251
f 251/251/251 250/250/250 252/252/252
f 252/252/252 253/253/253 251/251/251
f 254/254/254 253/253/253 252/252/252
f 257/257/257 256/256/256 255/255/255
f 257/257/257 255/255/255 258/258/258
f 259/259/259 256/256/256 257/257/257
f 259/259/259 260/260/260 256/256/256
f 261/261/261 260/260/260 259/259/259
f 261/261/261 262/262/262 260/260/260
f 263/263/263 262/262/262 261/261/261
f 263/263/263 264/264/264 262/262/262
f 265/265/265 264/264/264 263/263/263
f 265/265/265 266/266/266 264/264/264
f 267/267/267 266/266/266 265/265/265
f 267/267/267 268/268/268 266/266/266
f 258/258/258 255/255/255 269/269/269
f 270/270/270 258/258/258 269/269/269
f 271/271/271 258/258/258 270/270/270
f 274/274/274 273/273/273 272/272/272
f 277/277/277 276/276/276 275/275/275
f 278/278/278 276/276/276 277/277/277
f 278/278/278 279/279/279 276/276/276
f 280/280/280 279/279/279 278/278/278
f 280/280/280 281/281/281 279/279/279
f 282/282/282 281/281/281 280/280/280
f 282/282/282 283/283/283 281/281/281
f 284/284/284 283/283/283 282/282/282
f 284/284/284 285/285/285 283/283/283
f 286/286/286 285/285/285 284/284/284
f 286/286/286 287/287/287 285/285/285
f 288/288/288 287/287/287 286/286/286
f 288/288/288 289/289/289 287/287/287
f 290/290/290 289/289/289 288/288/288
f 290/290/290 291/291/291 289/289/289
f 292/292/292 291/291/291 290/290/290
f 292/292/292 293/293/293 291/291/291
f 294/294/294 293/293/293 292/292/292
f 294/294/294 295/295/295 293/293/293
f 296/296/296 295/295/295 294/294/294
f 296/296/296 297/297/297 295/295/295
f 298/298/298 297/297/297 296/296/296
f 298/298/298 299/299/299 297/297/297
f 300/300/300 299/299/299 298/298/298
f 300/300/300 301/301/301 299/299/299
f 299/299/299 301/301/301 302/302/302
f 301/301/301 303/303/303 302/302/302
f 304/304/304 303/303/303 301/301/301
f 304/304/304 305/305/305 303/303/303
f 306/306/306 305/305/305 304/304/304
f 306/306/306 307/307/307 305/305/305
f 308/308/308 307/307/307 306/306/306
f 308/308/308 309/309/309 307/307/307
f 310/310/310 309/309/309 308/308/308
f 310/310/310 311/311/311 309/309/309
f 312/312/312 311/311/311 310/310/310
f 312/312/312 313/313/313 311/311/311
f 311/311/311 313/313/313 314/314/314
f 313/313/313 315/315/315 314/314/314
f 316/316/316 315/315/315 313/313/313
