g Inn_Sign_mesh
v 1188.914 97.01096 -986.8891
v 1175.88 89.74329 -994.2228
v 1176.674 134.7286 -1025.073
v 1166.222 128.8007 -1030.172
v 1179.078 87.56557 -996.5056
v 1136.328 64.10918 -1019.276
v 1169.28 123.8131 -1029.855
v 1125.486 98.01698 -1050.344
v 1133.599 63.65867 -1015.451
v 1123.999 58.81525 -1019.302
v 1121.694 104.5326 -1051.252
v 1110.991 98.97438 -1056.281
v 1176.674 134.7286 -1025.073
v 1166.222 128.8007 -1030.172
v 1195.093 123.6455 -1040.731
v 1184.606 116.3838 -1046.041
v 1188.914 97.01096 -986.8891
v 1176.674 134.7286 -1025.073
v 1207.327 81.71172 -1000.473
v 1195.093 123.6455 -1040.731
v 1169.28 123.8131 -1029.855
v 1125.486 98.01698 -1050.344
v 1178.766 120.6484 -1037.696
v 1137.164 94.8525 -1057.105
v 1122.531 104.4158 -1053.501
v 1112.653 98.54218 -1059.533
v 1138.781 98.32702 -1061.679
v 1128.706 92.76862 -1066.444
v 1110.991 98.97438 -1056.281
v 1121.694 104.5326 -1051.252
v 1150.686 57.45311 -1025.878
v 1122.531 104.4158 -1053.501
v 1138.781 98.32702 -1061.679
v 1121.694 104.5326 -1051.252
v 1133.599 63.65867 -1015.451
vt 0.217005 0.769999
vt 0.188864 0.757908
vt 0.204534 0.679926
vt 0.181576 0.671909
vt 0.189681 0.753525
vt 0.103594 0.717459
vt 0.181344 0.673856
vt 0.091204 0.643486
vt 0.099036 0.727536
vt 0.078086 0.719281
vt 0.085374 0.639112
vt 0.062625 0.631299
vt 0.204534 0.679926
vt 0.181576 0.671909
vt 0.238049 0.652654
vt 0.214619 0.644851
vt 0.217005 0.769999
vt 0.204534 0.679926
vt 0.248498 0.748295
vt 0.238049 0.652654
vt 0.181344 0.673856
vt 0.091204 0.643486
vt 0.199416 0.659318
vt 0.113555 0.631299
vt 0.087013 0.634674
vt 0.065819 0.625003
vt 0.117726 0.620821
vt 0.096206 0.613597
vt 0.062625 0.631299
vt 0.085374 0.639112
vt 0.129879 0.706913
vt 0.087013 0.634674
vt 0.117726 0.620821
vt 0.085374 0.639112
vt 0.099036 0.727536
vn -0.6154938 0.4531156 0.6448671
vn -0.6013255 0.4590906 0.6539445
vn -0.6013255 0.4590906 0.6539445
vn -0.5869656 0.4649192 0.6628134
vn -0.599246 0.4482724 0.6632919
vn -0.5898131 0.4449461 0.6739018
vn -0.5898131 0.4449461 0.6739018
vn -0.5802548 0.4415252 0.6843683
vn -0.5226151 0.4705226 0.7109726
vn -0.5420392 0.4628526 0.7013993
vn -0.5420392 0.4628526 0.7013993
vn -0.5611773 0.4549383 0.6914558
vn -0.1055613 0.7488729 -0.6542524
vn -0.1183465 0.7256096 -0.677853
vn -0.1183465 0.7256096 -0.677853
vn -0.1309825 0.7014309 -0.7005985
vn 0.7367129 0.5840604 0.3407749
vn 0.7181161 0.5879482 0.3723254
vn 0.7181161 0.5879482 0.3723254
vn 0.6985452 0.5910385 0.4033709
vn -0.203756 0.7972395 -0.5682363
vn -0.1855476 0.7746614 -0.6045427
vn -0.1855476 0.7746614 -0.6045427
vn -0.1669384 0.7504102 -0.6395437
vn -0.2681198 0.8792865 -0.3936586
vn -0.1540648 0.8064127 -0.5709315
vn -0.05009534 0.7287776 -0.6829156
vn -0.05246565 0.703059 -0.7091933
vn -0.3652308 0.8986694 -0.2428988
vn -0.3812022 0.9049771 -0.1889474
vn 0.6224408 0.6357703 0.4564686
vn 0.6529208 0.634622 0.4134601
vn 0.5226949 0.6427667 0.5600365
vn 0.6681657 0.6271785 0.400252
vn 0.5576217 0.6328824 0.5371387
g Inn_Sign_mesh_0
f 3/3/3 2/2/2 1/1/1
f 4/4/4 2/2/2 3/3/3
f 7/7/7 6/6/6 5/5/5
f 8/8/8 6/6/6 7/7/7
f 11/11/11 10/10/10 9/9/9
f 12/12/12 10/10/10 11/11/11
f 15/15/15 14/14/14 13/13/13
f 16/16/16 14/14/14 15/15/15
f 19/19/19 18/18/18 17/17/17
f 20/20/20 18/18/18 19/19/19
f 23/23/23 22/22/22 21/21/21
f 24/24/24 22/22/22 23/23/23
f 27/27/27 26/26/26 25/25/25
f 28/28/28 26/26/26 27/27/27
f 26/26/26 29/29/29 25/25/25
f 25/25/25 29/29/29 30/30/30
f 33/33/33 32/32/32 31/31/31
f 34/34/34 31/31/31 32/32/32
f 35/35/35 31/31/31 34/34/34
