g MoP_Arch_Stones_mesh
v 345.1387 51.86719 -299.8247
v 305.9223 51.86719 -318.2387
v 343.8907 51.86719 -306.7512
v 307.3341 51.86719 -323.9613
v 303.7106 51.86719 -310.8664
v 342.6047 51.86719 -293.3315
v 304.0793 51.86719 -301.8354
v 330.4853 51.86719 -284.3596
v 288.9661 51.86719 -302.3883
v 321.0129 51.86719 -284.6862
v 280.8566 51.86719 -297.9649
v 320.1237 51.86719 -273.1962
v 274.9587 51.86719 -291.8827
v 313.0641 51.86719 -269.9187
v 262.6101 51.86719 -291.1455
v 292.1987 51.86719 -275.4331
v 249.893 51.86719 -293.9102
v 276.9702 51.86719 -278.145
v 245.6932 51.86719 -289.5447
v 275.0366 51.86719 -270.3571
v 256.8212 51.86719 -322.1261
v 269.4543 51.86719 -324.0833
v 269.9328 51.86719 -336.2073
v 273.0488 51.86719 -337.7567
v 230.1642 51.86719 -310.759
v 239.4711 51.86719 -310.945
v 207.6198 51.86719 -306.8786
v 202.6068 51.86719 -299.0249
v 214.6395 51.86719 -314.5313
v 241.0463 51.86719 -284.5105
v 272.2515 51.86719 -266.5891
v 239.7561 51.86719 -273.6364
v 272.7799 51.86719 -250.2119
v 234.2251 51.86719 -256.1171
v 275.8662 51.86719 -232.1666
v 227.4869 51.86719 -241.9648
v 275.1049 51.86719 -224.5537
v 213.991 51.86719 -222.4744
v 256.1124 51.86719 -203.6643
v 206.4357 51.86719 -199.1624
v 250.7822 51.86719 -179.0859
v 204.0905 51.86719 -290.8646
v 194.7198 51.86719 -277.5265
v 182.5319 51.86719 -258.2383
v 174.3545 51.86719 -240.2781
v 164.3162 51.86719 -218.2307
v 241.7663 51.86719 -317.301
v 246.5447 51.86719 -321.6919
v 273.0488 51.86719 -337.7567
v 308.134 46.78806 -325.7953
v 307.3341 51.86719 -323.9613
v 345.6759 46.78806 -308.1213
v 343.8907 51.86719 -306.7512
v 347.2072 46.78806 -299.6237
v 345.1387 51.86719 -299.8247
v 344.2583 46.78806 -292.0671
v 342.6047 51.86719 -293.3315
v 331.1141 46.78806 -282.3367
v 330.4853 51.86719 -284.3596
v 322.8591 46.78806 -282.6214
v 321.0129 51.86719 -284.6862
v 272.9623 46.78806 -339.9473
v 269.9328 51.86719 -336.2073
v 267.9811 46.78806 -337.4705
v 269.4543 51.86719 -324.0833
v 267.5208 46.78806 -325.8077
v 322.8591 46.78806 -282.6214
v 322.0275 46.78806 -271.875
v 321.0129 51.86719 -284.6862
v 320.1237 51.86719 -273.1962
v 313.2512 46.78806 -267.8006
v 313.0641 51.86719 -269.9187
v 291.7671 46.78806 -273.4785
v 292.1987 51.86719 -275.4331
v 278.4606 46.78806 -275.8481
v 276.9702 51.86719 -278.145
v 278.4606 46.78806 -275.8481
v 276.8817 46.78806 -269.4886
v 276.9702 51.86719 -278.145
v 275.0366 51.86719 -270.3571
v 274.2729 46.78806 -265.9591
v 272.2515 51.86719 -266.5891
v 274.7745 46.78806 -250.4137
v 272.7799 51.86719 -250.2119
v 277.8832 46.78806 -232.237
v 275.8662 51.86719 -232.1666
v 277.0292 46.78806 -223.6972
v 275.1049 51.86719 -224.5537
v 257.9532 46.78806 -202.7159
v 256.1124 51.86719 -203.6643
v 252.2122 46.78806 -176.2431
v 250.7822 51.86719 -179.0859
v 204.0905 51.86719 -290.8646
v 200.4987 46.78806 -299.4394
v 202.6068 51.86719 -299.0249
v 201.9732 46.78806 -291.3299
v 194.7198 51.86719 -277.5265
v 193.0552 46.78806 -278.6362
v 182.5319 51.86719 -258.2383
v 180.7682 46.78806 -259.1913
v 174.3545 51.86719 -240.2781
v 172.5343 46.78806 -241.1068
v 164.3162 51.86719 -218.2307
v 161.6655 46.78806 -217.2354
v 206.0279 46.78806 -308.1018
v 207.6198 51.86719 -306.8786
v 213.964 46.78806 -316.7536
v 214.6395 51.86719 -314.5313
v 230.384 46.78806 -312.7638
v 230.1642 51.86719 -310.759
v 238.0569 46.78806 -312.9171
v 239.4711 51.86719 -310.945
v 206.4357 51.86719 -199.1624
v 161.6655 46.78806 -217.2354
v 164.3162 51.86719 -218.2307
v 205.6109 46.78806 -197.3404
v 250.7822 51.86719 -179.0859
v 252.2122 46.78806 -176.2431
v 238.0569 46.78806 -312.9171
v 240.0518 46.78806 -318.4417
v 239.4711 51.86719 -310.945
v 241.7663 51.86719 -317.301
v 245.7298 46.78806 -323.6593
v 246.5447 51.86719 -321.6919
v 256.6252 46.78806 -324.1196
v 256.8212 51.86719 -322.1261
v 267.5208 46.78806 -325.8077
v 269.4543 51.86719 -324.0833
vt 0.342276 0.779543
vt 0.271089 0.746117
vt 0.34001 0.76697
vt 0.273652 0.735729
vt 0.267074 0.7595
vt 0.337676 0.79133
vt 0.267743 0.775893
vt 0.315677 0.807616
vt 0.240309 0.77489
vt 0.298482 0.807023
vt 0.225589 0.782919
vt 0.296868 0.827881
vt 0.214882 0.79396
vt 0.284053 0.83383
vt 0.192467 0.795298
vt 0.246177 0.82382
vt 0.169382 0.790279
vt 0.218534 0.818897
vt 0.161758 0.798204
vt 0.215024 0.833034
vt 0.181958 0.739061
vt 0.204891 0.735508
vt 0.205759 0.7135
vt 0.211415 0.710687
vt 0.133569 0.759695
vt 0.150464 0.759357
vt 0.092646 0.766739
vt 0.083546 0.780995
vt 0.105388 0.752847
vt 0.153323 0.807342
vt 0.209968 0.839874
vt 0.150981 0.827081
vt 0.210927 0.869603
vt 0.140941 0.858883
vt 0.21653 0.902359
vt 0.128709 0.884573
vt 0.215148 0.916179
vt 0.104211 0.919953
vt 0.180672 0.954098
vt 0.090496 0.96227
vt 0.170996 0.998714
vt 0.086239 0.795808
vt 0.069229 0.82002
vt 0.047105 0.855033
vt 0.032261 0.887635
vt 0.014039 0.927656
vt 0.15463 0.74782
vt 0.163304 0.739849
vt 0.211415 0.710687
vt 0.277017 0.731335
vt 0.273652 0.735729
vt 0.345017 0.763348
vt 0.34001 0.76697
vt 0.34779 0.77874
vt 0.342276 0.779543
vt 0.342449 0.792427
vt 0.337676 0.79133
vt 0.318641 0.810052
vt 0.315677 0.807616
vt 0.303688 0.809537
vt 0.298482 0.807023
vt 0.213309 0.705701
vt 0.205759 0.7135
vt 0.204287 0.710187
vt 0.204891 0.735508
vt 0.203453 0.731312
vt 0.303688 0.809537
vt 0.302182 0.829002
vt 0.298482 0.807023
vt 0.296868 0.827881
vt 0.286285 0.836382
vt 0.284053 0.83383
vt 0.247371 0.826097
vt 0.246177 0.82382
vt 0.223269 0.821805
vt 0.218534 0.818897
vt 0.223269 0.821805
vt 0.220409 0.833324
vt 0.218534 0.818897
vt 0.215024 0.833034
vt 0.215683 0.839717
vt 0.209968 0.839874
vt 0.216592 0.867875
vt 0.210927 0.869603
vt 0.222223 0.900799
vt 0.21653 0.902359
vt 0.220676 0.916267
vt 0.215148 0.916179
vt 0.186123 0.954271
vt 0.180672 0.954098
vt 0.175724 1.002222
vt 0.170996 0.998714
vt 0.086239 0.795808
vt 0.082055 0.779074
vt 0.083546 0.780995
vt 0.084725 0.793763
vt 0.069229 0.82002
vt 0.068572 0.816755
vt 0.047105 0.855033
vt 0.046316 0.851976
vt 0.032261 0.887635
vt 0.031402 0.884733
vt 0.014039 0.927656
vt 0.011715 0.927972
vt 0.09207 0.763384
vt 0.092646 0.766739
vt 0.106444 0.747712
vt 0.105388 0.752847
vt 0.136186 0.754939
vt 0.133569 0.759695
vt 0.150084 0.754661
vt 0.150464 0.759357
vt 0.090496 0.96227
vt 0.011715 0.927972
vt 0.014039 0.927656
vt 0.091314 0.964008
vt 0.170996 0.998714
vt 0.175724 1.002222
vt 0.150084 0.754661
vt 0.153698 0.744655
vt 0.150464 0.759357
vt 0.15463 0.74782
vt 0.163982 0.735204
vt 0.163304 0.739849
vt 0.183718 0.73437
vt 0.181958 0.739061
vt 0.203453 0.731312
vt 0.204891 0.735508
vn 0 1 0
vn 0 1 0
vn 0 1 0
vn 0 1 0
vn 0 1 0
vn 0 1 0
vn 0 1 0
vn 0 1 0
vn 0 1 0
vn 0 1 0
vn 0 1 0
vn 0 1 0
vn 0 1 0
vn 0 1 0
vn 0 1 0
vn 0 1 0
vn 0 1 0
vn 0 1 0
vn 0 1 0
vn 0 1 0
vn 0 1 0
vn 0 1 0
vn 0 1 0
vn 0 1 0
vn 0 1 0
vn 0 1 0
vn 0 1 0
vn 0 1 0
vn 0 1 0
vn 0 1 0
vn 0 1 0
vn 0 1 0
vn 0 1 0
vn 0 1 0
vn 0 1 0
vn 0 1 0
vn 0 1 0
vn 0 1 0
vn 0 1 0
vn 0 1 0
vn 0 1 0
vn 0 1 0
vn 0 1 0
vn 0 1 0
vn 0 1 0
vn 0 1 0
vn 0 1 0
vn 0 1 0
vn 0.1001438 0.3926019 -0.9142401
vn 0.3637743 0.366506 -0.8563536
vn 0.3801102 0.3665088 -0.8492275
vn 0.621972 0.4001769 -0.6730597
vn 0.8110721 0.4001751 -0.4266404
vn 0.9261035 0.3772589 0.002833476
vn 0.9093106 0.3772655 0.17557
vn 0.785971 0.3777199 0.4894664
vn 0.6783497 0.3777203 0.6302134
vn 0.3743773 0.3827374 0.8446028
vn 0.1704382 0.3827358 0.9080001
vn -0.03207098 0.3663891 0.9299088
vn -0.03207139 0.3663897 0.9299086
vn -0.1718896 0.3925986 -0.9035045
vn -0.6552811 0.4096333 -0.6346709
vn -0.8473811 0.4096361 -0.3378514
vn -0.9297386 0.3663868 -0.03669836
vn -0.9297402 0.366383 -0.03669672
vn 0.9276891 0.366387 0.07178869
vn 0.8355517 0.4086922 0.3671842
vn 0.9276888 0.3663875 0.07178894
vn 0.6362996 0.4086895 0.6542902
vn 0.1906123 0.3838131 0.9035233
vn -0.02922144 0.3838142 0.9229479
vn -0.2130115 0.3666248 0.9056558
vn -0.1881222 0.3666259 0.9111507
vn -0.1631268 0.3663875 0.9160512
vn -0.1631265 0.3663866 0.9160516
vn 0.9030464 0.3663855 0.224207
vn 0.8642276 0.3718875 0.3388367
vn 0.9030457 0.366387 0.2242078
vn 0.8118568 0.371887 0.4500984
vn 0.8445892 0.3825855 0.374563
vn 0.9078416 0.3825859 0.1716145
vn 0.9273762 0.3670542 -0.07242079
vn 0.9230902 0.3670553 -0.1147818
vn 0.9264792 0.3689536 -0.07422619
vn 0.9294002 0.3689513 0.009503139
vn 0.8807213 0.3811047 0.2812279
vn 0.7984124 0.3811046 0.4661512
vn 0.7825691 0.3762414 0.4960121
vn 0.8581729 0.3762424 0.3492579
vn 0.9093242 0.3663898 0.1972005
vn 0.9093229 0.3663929 0.1972009
vn -0.9182982 0.389369 -0.07155538
vn -0.9202783 0.3867871 -0.05902274
vn -0.8741288 0.3867866 -0.2937599
vn -0.863708 0.3893697 -0.3199998
vn -0.7699401 0.3664709 -0.5223899
vn -0.7783531 0.3664729 -0.5097686
vn -0.8081062 0.3670443 -0.4606982
vn -0.8282197 0.3670443 -0.4234745
vn -0.8468188 0.3663886 -0.3855612
vn -0.8468189 0.3663882 -0.3855611
vn -0.846819 0.3663881 -0.385561
vn -0.846819 0.366388 -0.385561
vn -0.7536333 0.3674545 -0.5449901
vn -0.7206646 0.3674532 -0.5878952
vn -0.4289351 0.4093714 -0.8052513
vn -0.09172848 0.4093739 -0.9077439
vn 0.1411713 0.368748 -0.9187468
vn 0.06122696 0.3687477 -0.9275109
vn -0.01859731 0.3663852 -0.9302774
vn -0.0185983 0.3663839 -0.9302779
vn -0.3837454 0.3663826 0.8476457
vn -0.3837458 0.366383 0.8476454
vn -0.3837458 0.366384 0.8476449
vn -0.383745 0.3663834 0.8476456
vn -0.3837444 0.3663841 0.8476455
vn -0.3837443 0.3663865 0.8476445
vn -0.8751522 0.3663879 -0.3160195
vn -0.8112051 0.3746633 -0.4489696
vn -0.8751518 0.3663888 -0.3160201
vn -0.7274976 0.3746628 -0.5747826
vn -0.4538852 0.3842307 -0.803962
vn -0.2475389 0.3842271 -0.8894347
vn -0.07376081 0.3668211 -0.9273627
vn -0.1081939 0.3668257 -0.9239767
vn -0.1424575 0.3663905 -0.9194912
vn -0.1424523 0.3663993 -0.9194884
g MoP_Arch_Stones_mesh_0
f 3/3/3 2/2/2 1/1/1
f 4/4/4 2/2/2 3/3/3
f 2/2/2 5/5/5 1/1/1
f 1/1/1 5/5/5 6/6/6
f 5/5/5 7/7/7 6/6/6
f 6/6/6 7/7/7 8/8/8
f 7/7/7 9/9/9 8/8/8
f 8/8/8 9/9/9 10/10/10
f 9/9/9 11/11/11 10/10/10
f 10/10/10 11/11/11 12/12/12
f 11/11/11 13/13/13 12/12/12
f 12/12/12 13/13/13 14/14/14
f 13/13/13 15/15/15 14/14/14
f 14/14/14 15/15/15 16/16/16
f 15/15/15 17/17/17 16/16/16
f 16/16/16 17/17/17 18/18/18
f 17/17/17 19/19/19 18/18/18
f 18/18/18 19/19/19 20/20/20
f 5/5/5 21/21/21 7/7/7
f 22/22/22 21/21/21 5/5/5
f 2/2/2 22/22/22 5/5/5
f 23/23/23 22/22/22 2/2/2
f 4/4/4 23/23/23 2/2/2
f 24/24/24 23/23/23 4/4/4
f 13/13/13 25/25/25 15/15/15
f 26/26/26 25/25/25 13/13/13
f 17/17/17 27/27/27 19/19/19
f 27/27/27 28/28/28 19/19/19
f 29/29/29 27/27/27 17/17/17
f 15/15/15 29/29/29 17/17/17
f 25/25/25 29/29/29 15/15/15
f 19/19/19 28/28/28 30/30/30
f 19/19/19 30/30/30 20/20/20
f 20/20/20 30/30/30 31/31/31
f 30/30/30 32/32/32 31/31/31
f 31/31/31 32/32/32 33/33/33
f 32/32/32 34/34/34 33/33/33
f 33/33/33 34/34/34 35/35/35
f 34/34/34 36/36/36 35/35/35
f 35/35/35 36/36/36 37/37/37
f 36/36/36 38/38/38 37/37/37
f 37/37/37 38/38/38 39/39/39
f 38/38/38 40/40/40 39/39/39
f 39/39/39 40/40/40 41/41/41
f 30/30/30 42/42/42 32/32/32
f 28/28/28 42/42/42 30/30/30
f 32/32/32 43/43/43 34/34/34
f 42/42/42 43/43/43 32/32/32
f 34/34/34 44/44/44 36/36/36
f 43/43/43 44/44/44 34/34/34
f 36/36/36 45/45/45 38/38/38
f 44/44/44 45/45/45 36/36/36
f 38/38/38 46/46/46 40/40/40
f 45/45/45 46/46/46 38/38/38
f 11/11/11 26/26/26 13/13/13
f 47/47/47 26/26/26 11/11/11
f 9/9/9 47/47/47 11/11/11
f 48/48/48 47/47/47 9/9/9
f 7/7/7 48/48/48 9/9/9
f 21/21/21 48/48/48 7/7/7
f 51/51/51 50/50/50 49/49/49
f 51/51/51 52/52/52 50/50/50
f 53/53/53 52/52/52 51/51/51
f 53/53/53 54/54/54 52/52/52
f 55/55/55 54/54/54 53/53/53
f 55/55/55 56/56/56 54/54/54
f 57/57/57 56/56/56 55/55/55
f 57/57/57 58/58/58 56/56/56
f 59/59/59 58/58/58 57/57/57
f 59/59/59 60/60/60 58/58/58
f 61/61/61 60/60/60 59/59/59
f 49/49/49 50/50/50 62/62/62
f 49/49/49 62/62/62 63/63/63
f 63/63/63 62/62/62 64/64/64
f 63/63/63 64/64/64 65/65/65
f 65/65/65 64/64/64 66/66/66
f 69/69/69 68/68/68 67/67/67
f 70/70/70 68/68/68 69/69/69
f 70/70/70 71/71/71 68/68/68
f 72/72/72 71/71/71 70/70/70
f 72/72/72 73/73/73 71/71/71
f 74/74/74 73/73/73 72/72/72
f 74/74/74 75/75/75 73/73/73
f 76/76/76 75/75/75 74/74/74
f 79/79/79 78/78/78 77/77/77
f 80/80/80 78/78/78 79/79/79
f 80/80/80 81/81/81 78/78/78
f 82/82/82 81/81/81 80/80/80
f 82/82/82 83/83/83 81/81/81
f 84/84/84 83/83/83 82/82/82
f 84/84/84 85/85/85 83/83/83
f 86/86/86 85/85/85 84/84/84
f 86/86/86 87/87/87 85/85/85
f 88/88/88 87/87/87 86/86/86
f 88/88/88 89/89/89 87/87/87
f 90/90/90 89/89/89 88/88/88
f 90/90/90 91/91/91 89/89/89
f 92/92/92 91/91/91 90/90/90
f 95/95/95 94/94/94 93/93/93
f 93/93/93 94/94/94 96/96/96
f 93/93/93 96/96/96 97/97/97
f 97/97/97 96/96/96 98/98/98
f 97/97/97 98/98/98 99/99/99
f 99/99/99 98/98/98 100/100/100
f 99/99/99 100/100/100 101/101/101
f 101/101/101 100/100/100 102/102/102
f 101/101/101 102/102/102 103/103/103
f 103/103/103 102/102/102 104/104/104
f 95/95/95 105/105/105 94/94/94
f 106/106/106 105/105/105 95/95/95
f 106/106/106 107/107/107 105/105/105
f 108/108/108 107/107/107 106/106/106
f 108/108/108 109/109/109 107/107/107
f 110/110/110 109/109/109 108/108/108
f 110/110/110 111/111/111 109/109/109
f 112/112/112 111/111/111 110/110/110
f 115/115/115 114/114/114 113/113/113
f 113/113/113 114/114/114 116/116/116
f 113/113/113 116/116/116 117/117/117
f 117/117/117 116/116/116 118/118/118
f 121/121/121 120/120/120 119/119/119
f 122/122/122 120/120/120 121/121/121
f 122/122/122 123/123/123 120/120/120
f 124/124/124 123/123/123 122/122/122
f 124/124/124 125/125/125 123/123/123
f 126/126/126 125/125/125 124/124/124
f 126/126/126 127/127/127 125/125/125
f 128/128/128 127/127/127 126/126/126
