g MoP_Farm_Silo_mesh
v 1480.292 162.0246 -300.7182
v 1496.206 159.6693 -268.8756
v 1478.122 164.8796 -298.9373
v 1493.65 162.5815 -267.868
v 1453.733 167.06 -323.6775
v 1455.295 164.2593 -326.0743
v 1501.48 157.4239 -233.6632
v 1498.795 160.3907 -233.511
v 1495.597 155.5081 -198.528
v 1493.055 158.5214 -199.2292
v 1479.133 154.1096 -166.9094
v 1476.991 157.1568 -168.3785
v 1453.7 153.3652 -141.9021
v 1452.176 156.4306 -143.9786
v 1473.146 163.6777 -295.4745
v 1487.826 161.5051 -266.1016
v 1450.088 165.7391 -318.8638
v 1420.909 167.4874 -333.9801
v 1422.794 168.9093 -342.7515
v 1423.589 166.1546 -345.5462
v 1388.387 170.2464 -348.4923
v 1388.327 167.5251 -351.4283
v 1353.912 170.9404 -342.4227
v 1352.995 168.2363 -345.2293
v 1323.001 170.9234 -324.5815
v 1321.309 168.2189 -327.0008
v 1388.465 168.7515 -339.3436
v 1355.932 169.4076 -334.4294
v 1326.494 169.3915 -319.7185
v 1303.034 168.7049 -296.6509
v 1298.186 170.1971 -300.1817
v 1295.876 167.4745 -301.9937
v 1282.121 168.8325 -269.3308
v 1279.412 166.0759 -270.3748
v 1272.874 166.9633 -234.2246
v 1270.022 164.1602 -234.4151
v 1277.975 164.7724 -200.4861
v 1275.251 161.9148 -199.8214
v 1293.602 162.4742 -166.3269
v 1291.265 159.5594 -164.8887
v 1287.847 167.4148 -267.4845
v 1282.42 165.6477 -235.0746
v 1287.285 163.5765 -202.5935
v 1301.965 161.4037 -173.2207
v 1325.022 159.3424 -149.8314
v 1320.096 160.2939 -141.4519
v 1318.365 157.3248 -139.3978
v 1352.308 158.4446 -128.8934
v 1351.346 155.4294 -126.4413
v 1386.626 157.1075 -123.2201
v 1386.518 154.0591 -120.6268
v 1421.038 156.4135 -128.4182
v 1421.787 153.3478 -125.9542
v 1354.201 157.5941 -134.7151
v 1386.645 156.33 -129.3516
v 1419.179 155.6738 -134.2657
v 1448.616 155.69 -148.9767
v 1472.077 156.3766 -172.0442
v 1487.264 157.6666 -201.2104
v 1492.69 159.4338 -233.6205
v 1386.645 156.33 -129.3516
v 1354.201 157.5941 -134.7151
v 1387.921 199.3998 -129.685
v 1356.367 200.6292 -134.9013
v 1419.561 198.7617 -134.4642
v 1419.179 155.6738 -134.2657
v 1448.19 198.7773 -148.7714
v 1448.616 155.69 -148.9767
v 1442.09 233.5019 -156.6668
v 1416.878 233.488 -144.0674
v 1462.183 234.0899 -176.4233
v 1471.007 199.4452 -171.2059
v 1475.19 235.1947 -201.403
v 1485.777 200.6997 -199.5716
v 1479.838 236.7083 -229.1609
v 1491.055 202.4184 -231.092
v 1472.077 156.3766 -172.0442
v 1487.264 157.6666 -201.2104
v 1492.69 159.4338 -233.6205
v 1486.324 204.4328 -262.6817
v 1487.826 161.5051 -266.1016
v 1472.047 206.5458 -291.2484
v 1473.146 163.6777 -295.4745
v 1449.622 208.5506 -313.9958
v 1450.088 165.7391 -318.8638
v 1472.047 206.5458 -291.2484
v 1486.324 204.4328 -262.6817
v 1463.099 240.3431 -282.1364
v 1475.672 238.4822 -256.9798
v 1443.351 242.1085 -302.1684
v 1449.622 208.5506 -313.9958
v 1418.36 243.6059 -315.1148
v 1421.244 210.251 -328.6971
v 1390.573 244.6884 -319.7086
v 1389.69 211.4803 -333.9133
v 1362.71 245.2504 -315.4998
v 1358.05 212.1184 -329.134
v 1337.498 245.2366 -302.9005
v 1329.42 212.1028 -314.8269
v 1317.405 244.6485 -283.1439
v 1306.604 211.435 -292.3924
v 1304.398 243.5436 -258.1642
v 1291.834 210.1804 -264.0267
v 1299.75 242.0302 -230.4062
v 1286.556 208.4617 -232.5062
v 1303.917 240.2562 -202.5875
v 1291.287 206.4473 -200.9167
v 1316.489 238.3953 -177.4309
v 1305.564 204.3342 -172.35
v 1336.237 236.6299 -157.399
v 1327.989 202.3295 -149.6027
v 1361.228 235.1326 -144.4524
v 1356.367 200.6292 -134.9013
v 1389.015 234.05 -139.8586
v 1387.921 199.3998 -129.685
v 1303.034 168.7049 -296.6509
v 1326.494 169.3915 -319.7185
v 1282.42 165.6477 -235.0746
v 1287.847 167.4148 -267.4845
v 1301.965 161.4037 -173.2207
v 1287.285 163.5765 -202.5935
v 1355.932 169.4076 -334.4294
v 1388.465 168.7515 -339.3436
v 1420.909 167.4874 -333.9801
v 1450.088 165.7391 -318.8638
v 1325.022 159.3424 -149.8314
v 1419.561 198.7617 -134.4642
v 1416.878 233.488 -144.0674
v 1491.055 202.4184 -231.092
v 1479.838 236.7083 -229.1609
v 1325.022 159.3424 -149.8314
v 1327.989 202.3295 -149.6027
v 1495.146 157.6417 -268.6799
v 1479.379 159.9753 -300.2293
v 1486.689 152.8826 -266.3342
v 1472.139 155.0361 -295.4478
v 1454.612 162.1895 -325.3521
v 1449.285 157.0793 -318.6309
v 1423.196 164.0673 -344.6731
v 1491.511 150.8295 -234.1397
v 1500.371 155.4168 -233.7915
v 1486.132 149.078 -202.0156
v 1494.542 153.5187 -198.9796
v 1471.079 147.7993 -173.1068
v 1478.23 152.1331 -167.652
v 1447.826 147.1188 -150.2428
v 1453.032 151.3956 -142.8749
v 1418.648 147.1028 -135.6617
v 1421.412 151.3783 -127.0739
v 1386.402 147.7532 -130.7908
v 1386.468 152.0831 -121.7955
v 1354.245 149.0061 -136.107
v 1351.62 153.4408 -127.5565
v 1325.323 150.7389 -151.0899
v 1501.48 157.4239 -233.6632
v 1496.206 159.6693 -268.8756
v 1480.292 162.0246 -300.7182
v 1455.295 164.2593 -326.0743
v 1423.589 166.1546 -345.5462
v 1388.327 167.5251 -351.4283
v 1388.258 165.4252 -350.5017
v 1420.363 158.8121 -333.6136
v 1449.285 157.0793 -318.6309
v 1388.205 160.0651 -338.9298
v 1353.251 166.1298 -344.3517
v 1352.995 168.2363 -345.2293
v 1321.309 168.2189 -327.0008
v 1321.859 166.1125 -326.27
v 1355.959 160.7153 -334.059
v 1295.876 167.4745 -301.9937
v 1296.66 165.375 -301.4931
v 1326.782 160.6994 -319.4779
v 1303.528 160.0188 -296.614
v 1280.347 163.9893 -270.1654
v 1288.475 158.7401 -267.705
v 1271.011 162.0912 -234.5289
v 1355.959 160.7153 -334.059
v 1279.412 166.0759 -270.3748
v 1270.022 164.1602 -234.4151
v 1275.251 161.9148 -199.8214
v 1276.192 159.8665 -200.2592
v 1283.096 156.9886 -235.5809
v 1287.918 154.9355 -203.3864
v 1292.059 157.5328 -165.6197
v 1302.468 152.7821 -174.2728
v 1318.93 155.3187 -140.3621
v 1325.323 150.7389 -151.0899
v 1288.475 158.7401 -267.705
v 1291.265 159.5594 -164.8887
v 1351.346 155.4294 -126.4413
v 1386.518 154.0591 -120.6268
v 1421.787 153.3478 -125.9542
v 1453.7 153.3652 -141.9021
v 1479.133 154.1096 -166.9094
v 1495.597 155.5081 -198.528
v 1318.365 157.3248 -139.3978
v 1388.205 160.0651 -338.9298
v 1353.251 166.1298 -344.3517
v 1355.959 160.7153 -334.059
v 1484.23 135.71 -266.7354
v 1469.967 137.821 -295.2752
v 1449.285 157.0793 -318.6309
v 1447.562 139.824 -318.0014
v 1420.363 158.8121 -333.6136
v 1419.21 141.5227 -332.689
v 1488.957 133.6974 -235.1752
v 1483.684 131.9803 -203.6842
v 1468.927 130.7269 -175.345
v 1446.133 130.0597 -152.9315
v 1417.53 130.0441 -138.6377
v 1385.919 130.6817 -133.8629
v 1354.395 131.9099 -139.0743
v 1326.043 133.6086 -153.762
v 1325.323 150.7389 -151.0899
v 1303.639 135.6115 -176.4881
v 1302.468 152.7821 -174.2728
v 1289.375 137.7225 -205.028
v 1287.918 154.9355 -203.3864
v 1420.363 158.8121 -333.6136
v 1388.205 160.0651 -338.9298
v 1419.21 141.5227 -332.689
v 1387.686 142.751 -337.9004
v 1388.205 160.0651 -338.9298
v 1355.959 160.7153 -334.059
v 1387.686 142.751 -337.9004
v 1356.076 143.3884 -333.1256
v 1355.959 160.7153 -334.059
v 1326.782 160.6994 -319.4779
v 1356.076 143.3884 -333.1256
v 1327.473 143.3728 -318.8318
v 1303.528 160.0188 -296.614
v 1304.678 142.7056 -296.4184
v 1288.475 158.7401 -267.705
v 1289.922 141.4521 -268.0792
v 1283.096 156.9886 -235.5809
v 1284.649 139.7351 -236.588
v 1287.918 154.9355 -203.3864
v 1289.375 137.7225 -205.028
v 1323.729 282.5872 -122.7743
v 1302.888 282.5733 -136.5807
v 1336.453 284.5643 -145.7223
v 1316.532 284.5644 -160.3216
v 1342.729 295.0237 -161.0038
v 1327.994 295.0238 -173.8294
v 1352.144 305.8208 -173.8294
v 1336.999 305.8209 -186.5185
v 1364.151 315.9914 -183.6533
v 1347.777 315.9914 -196.3424
v 1373.019 326.8233 -189.7932
v 1355.691 326.8233 -202.8917
v 1379.432 349.2923 -195.5238
v 1361.422 349.2922 -207.1214
v 1361.422 349.2922 -207.1214
v 1367.524 349.2923 -218.0341
v 1379.432 349.2923 -195.5238
v 1385.651 349.2923 -206.3191
v 1368.789 347.2638 -220.2961
v 1386.935 347.2638 -208.562
v 1347.777 315.9914 -196.3424
v 1336.999 305.8209 -186.5185
v 1348.486 292.4508 -207.2075
v 1332.359 280.2958 -192.1127
v 1327.994 295.0238 -173.8294
v 1324.719 269.6819 -179.2871
v 1316.532 284.5644 -160.3216
v 1311.893 256.2638 -157.5927
v 1361.695 314.7591 -211.3511
v 1355.691 326.8233 -202.8917
v 1367.524 349.2923 -218.0341
v 1361.422 349.2922 -207.1214
v 1368.789 347.2638 -220.2961
v 1302.888 282.5733 -136.5807
v 1301.933 239.7347 -133.5789
v 1302.888 282.5733 -136.5807
v 1323.729 282.5872 -122.7743
v 1301.933 239.7347 -133.5789
v 1321.273 241.5517 -120.9732
v 1418.941 292.7706 -158.5421
v 1436.319 292.7706 -169.1051
v 1425.697 285.89 -148.6676
v 1443.385 285.8899 -160.68
v 1427.215 304.9062 -178.6172
v 1411.588 304.9063 -169.5128
v 1422.323 317.331 -188.4013
v 1405.201 317.331 -178.4814
v 1420.964 328.0533 -195.1957
v 1401.742 327.7088 -184.6536
v 1418.925 345.4838 -203.6207
v 1400.173 345.3304 -193.7008
v 1398.95 347.9836 -196.2828
v 1418.11 347.9855 -207.1538
v 1413.354 348.0487 -216.8019
v 1453.453 286.55 -150.0221
v 1454.132 286.6106 -144.043
v 1455.899 286.5852 -146.6249
v 1437.902 286.7808 -131.9792
v 1394.058 348.0406 -208.105
v 1413.354 348.0487 -216.8019
v 1398.95 347.9836 -196.2828
v 1392.649 345.3977 -209.3167
v 1412.957 345.3934 -218.3204
v 1413.354 348.0487 -216.8019
v 1392.649 345.3977 -209.3167
v 1411.901 327.2915 -213.8775
v 1391.667 319.1826 -204.0198
v 1392.649 345.3977 -209.3167
v 1394.058 348.0406 -208.105
v 1391.667 319.1826 -204.0198
v 1394.033 317.4858 -200.7941
v 1398.95 347.9836 -196.2828
v 1395.538 302.4595 -197.0307
v 1400.173 345.3304 -193.7008
v 1396.936 299.8063 -193.6975
v 1401.742 327.7088 -184.6536
v 1401.742 282.1847 -184.6536
v 1405.201 317.331 -178.4814
v 1404.463 271.8069 -175.3111
v 1411.588 304.9063 -169.5128
v 1406.936 259.3822 -167.5694
v 1418.941 292.7706 -158.5421
v 1413.065 247.2465 -154.8817
v 1425.697 285.89 -148.6676
v 1426.935 240.366 -141.4413
v 1437.902 286.7808 -131.9792
v 1437.472 241.2567 -127.5708
v 1467.858 292.7706 -190.7148
v 1479.695 292.7706 -211.898
v 1476.996 285.89 -186.3536
v 1488.21 285.89 -208.1597
v 1468.273 304.9061 -217.2976
v 1458.512 304.9062 -197.3607
v 1457.89 317.3309 -222.6973
v 1449.375 317.331 -203.3832
v 1452.49 328.0533 -226.02
v 1444.182 327.7088 -208.1598
v 1448.935 345.4838 -235.6209
v 1438.605 345.3304 -213.8437
v 1436.743 347.9835 -216.0771
v 1446.981 347.9855 -237.7615
v 1425.669 348.0535 -221.7542
v 1434.63 348.0676 -242.6344
v 1494.482 286.55 -206.0419
v 1495.378 286.6106 -204.0566
v 1483.709 286.7807 -182.7889
v 1495.56 286.5851 -205.3309
v 1434.63 348.0676 -242.6344
v 1425.669 348.0535 -221.7542
v 1434.272 327.2915 -239.5631
v 1425.549 323.5223 -218.5876
v 1425.669 348.0535 -221.7542
v 1436.743 347.9835 -216.0771
v 1425.549 323.5223 -218.5876
v 1434.092 298.9896 -209.3016
v 1438.605 345.3304 -213.8437
v 1435.855 292.9385 -207.0709
v 1444.182 327.7088 -208.1598
v 1440.344 282.9083 -201.654
v 1449.375 317.331 -203.3832
v 1446.796 269.6379 -196.6347
v 1458.512 304.9062 -197.3607
v 1455.025 259.908 -189.9344
v 1467.858 292.7706 -190.7148
v 1464.404 249.9756 -183.1143
v 1476.996 285.89 -186.3536
v 1472.966 242.9432 -177.8402
v 1483.709 286.7807 -182.7889
v 1478.835 243.6562 -174.4576
v 1493.705 286.5981 -291.5982
v 1500.513 286.6844 -270.0491
v 1481.149 285.89 -289.6078
v 1489.57 285.89 -267.7119
v 1467.981 292.7705 -286.5453
v 1479.563 292.7705 -265.9289
v 1453.741 304.9061 -281.7986
v 1465.378 304.9062 -261.4341
v 1444.401 317.3309 -277.6645
v 1457.875 317.3309 -258.5249
v 1440.149 328.0533 -273.2748
v 1453.781 327.7087 -256.7019
v 1437.664 347.9686 -271.3866
v 1450.219 347.9686 -253.0126
v 1481.149 285.89 -289.6078
v 1467.981 292.7705 -286.5453
v 1475.637 258.3792 -294.2012
v 1493.705 286.5981 -291.5982
v 1453.776 267.3754 -286.1192
v 1453.741 304.9061 -281.7986
v 1492.959 270.6059 -293.6339
v 1489.877 251.2438 -294.2011
v 1440.245 286.028 -278.4105
v 1444.401 317.3309 -277.6645
v 1433.561 307.1808 -272.5934
v 1440.149 328.0533 -273.2748
v 1427.099 322.2434 -268.0181
v 1437.664 347.9686 -271.3866
v 1421.533 348.0676 -265.4288
v 1450.219 347.9686 -253.0126
v 1434.554 348.0535 -245.016
v 1437.664 347.9686 -271.3866
v 1421.533 348.0676 -265.4288
v 1407.445 286.5981 -362.9492
v 1428.74 286.5853 -361.1497
v 1400.963 285.89 -346.6019
v 1423.651 285.89 -344.2064
v 1395.889 292.7705 -329.8322
v 1419.283 292.7705 -328.1411
v 1395.044 304.9061 -315.0352
v 1418.296 304.9061 -313.7669
v 1395.326 317.3309 -304.1841
v 1420.231 317.331 -303.5041
v 1398.144 327.2966 -294.4605
v 1423.028 327.4598 -293.9434
v 1398.567 347.9685 -290.3737
v 1424.92 347.9685 -287.2734
v 1395.326 317.3309 -304.1841
v 1398.144 327.2966 -294.4605
v 1391.191 307.1955 -291.2433
v 1394.984 322.2433 -278.938
v 1387.557 292.6117 -303.1561
v 1395.044 304.9061 -315.0352
v 1390.916 277.8191 -320.301
v 1395.889 292.7705 -329.8322
v 1392.366 263.313 -343.7836
v 1400.963 285.89 -346.6019
v 1398.567 347.9685 -290.3737
v 1397.157 347.9685 -275.4357
v 1407.445 286.5981 -362.9492
v 1398.567 347.9685 -290.3737
v 1419.564 347.9685 -272.3357
v 1397.157 347.9685 -275.4357
v 1424.92 347.9685 -287.2734
v 1405.935 266.0927 -365.6192
v 1407.445 286.5981 -362.9492
v 1392.366 263.313 -343.7836
v 1404.842 251.2438 -367.5525
v 1404.842 251.2438 -367.5525
v 1397.136 248.259 -354.7869
v 1428.725 267.8357 -365.6273
v 1405.935 266.0927 -365.6192
v 1429.119 251.6129 -367.0736
v 1404.842 251.2438 -367.5525
v 1407.445 286.5981 -362.9492
v 1428.74 286.5853 -361.1497
v 1407.445 286.5981 -362.9492
v 1428.725 267.8357 -365.6273
v 1269.647 282.5872 -206.8687
v 1266.931 282.5732 -235.2154
v 1289.507 284.5644 -211.4515
v 1286.451 284.5644 -238.6103
v 1305.887 295.0237 -215.9498
v 1302.917 295.0237 -242.1749
v 1320.739 305.8209 -218.9204
v 1317.854 305.8209 -244.5513
v 1335.507 315.9914 -220.6178
v 1331.433 315.9914 -246.588
v 1345.352 326.8233 -221.1268
v 1341.278 326.8233 -246.4185
v 1349.256 349.2923 -224.8614
v 1344.065 349.2923 -248.5032
v 1344.065 349.2923 -248.5032
v 1360.903 349.2923 -249.4708
v 1349.256 349.2923 -224.8614
v 1363.635 349.2923 -227.6588
v 1344.065 349.2923 -248.5032
v 1341.278 326.8233 -246.4185
v 1360.903 349.2923 -249.4708
v 1359.914 314.7591 -250.0592
v 1331.433 315.9914 -246.588
v 1330.675 290.3118 -247.7106
v 1317.854 305.8209 -244.5513
v 1317.329 280.2958 -246.335
v 1302.917 295.0237 -242.1749
v 1302.695 269.6819 -244.0686
v 1286.451 284.5644 -238.6103
v 1281.337 256.2638 -238.8837
v 1266.931 282.5732 -235.2154
v 1262.857 241.5379 -231.057
v 1266.931 282.5732 -235.2154
v 1269.647 282.5872 -206.8687
v 1262.857 241.5379 -231.057
v 1265.573 241.5518 -202.7099
v 1379.928 335.6084 -273.7655
v 1417.057 335.2256 -278.6085
v 1401.882 332.7401 -240.8339
v 1358.942 333.0405 -236.3139
v 1365.723 334.3587 -256.9769
v 1373.441 331.2251 -201.4289
v 1412.537 330.3512 -208.5481
v 1433.732 330.9852 -227.1979
v 1434.924 332.5431 -251.1415
v 1344.737 307.1491 -262.4655
v 1334.082 305.4313 -232.7625
v 1316.648 282.1368 -268.9227
v 1298.891 281.1956 -225.9825
v 1357.974 302.2863 -185.6251
v 1334.382 274.5149 -161.1691
v 1420.285 301.0206 -193.3737
v 1429.003 272.4487 -172.3879
v 1319.622 255.898 -139.0473
v 1445.854 253.0893 -147.1894
v 1455.56 273.0898 -210.4217
v 1473.459 254.2519 -201.0239
v 1460.103 280.3337 -267.3659
v 1480.797 263.0115 -277.1722
v 1411.568 282.6284 -324.4544
v 1417.387 266.6537 -352.633
v 1341.508 283.0292 -307.6657
v 1365.399 308.7776 -287.0028
v 1415.766 308.1756 -297.9801
v 1321.474 267.0687 -328.0643
v 1419.31 267.0705 -359.4381
v 1317.027 267.4905 -332.9951
v 1486.981 263.0435 -279.281
v 1479.243 253.8702 -198.1121
v 1448.312 252.5762 -141.4088
v 1316.435 255.5832 -132.7416
v 1275.622 263.6101 -211.3727
v 1268.957 263.8077 -210.7854
v 1278.536 268.9915 -220.9595
v 1274.344 264.6248 -227.4767
v 1294.903 265.7857 -278.0583
v 1289.359 266.0966 -280.332
v 1267.665 264.8273 -226.997
v 1379.928 335.6084 -273.7655
v 1379.928 335.6084 -273.7655
v 1415.766 308.1756 -297.9801
v 1417.057 335.2256 -278.6085
v 1365.399 308.7776 -287.0028
v 1415.766 308.1756 -297.9801
v 1379.928 335.6084 -273.7655
v 1448.312 252.5762 -141.4088
v 1479.243 253.8702 -198.1121
v 1447.625 231.4398 -142.8183
v 1315.748 234.4468 -134.151
v 1316.435 255.5832 -132.7416
v 1478.557 232.7337 -199.5215
v 1486.981 263.0435 -279.281
v 1486.294 241.9071 -280.6905
v 1419.31 267.0705 -359.4381
v 1418.623 245.9339 -360.8477
v 1267.665 264.8273 -226.997
v 1266.958 243.6897 -228.3559
v 1289.359 266.0966 -280.332
v 1288.673 244.9602 -281.7414
v 1317.027 267.4905 -332.9951
v 1316.341 246.354 -334.4046
v 1418.623 245.9339 -360.8477
v 1419.31 267.0705 -359.4381
v 1268.957 263.8077 -210.7854
v 1268.235 242.6774 -212.2522
v 1316.435 255.5832 -132.7416
v 1315.748 234.4468 -134.151
v 1357.974 302.2863 -185.6251
v 1443.572 301.8716 -220.7278
v 1445.457 304.2997 -258.0474
v 1433.732 330.9852 -227.1979
v 1434.924 332.5431 -251.1415
v 1417.057 335.2256 -278.6085
v 1415.766 308.1756 -297.9801
v 1433.732 330.9852 -227.1979
v 1412.537 330.3512 -208.5481
v 1412.537 330.3512 -208.5481
v 1357.974 302.2863 -185.6251
v 1373.441 331.2251 -201.4289
v 1331.391 282.5733 -355.0199
v 1317.357 282.5872 -343.812
v 1326.878 264.1869 -353.8286
v 1312.677 264.0981 -342.6081
v 1305.615 282.5872 -330.2857
v 1300.822 264.0981 -329.6504
v 1307.997 245.6091 -341.4041
v 1296.029 245.609 -329.0151
v 1321.786 245.609 -351.3076
v 1317.357 282.5872 -343.812
v 1316 281.8175 -316.4901
v 1305.615 282.5872 -330.2857
v 1336.917 281.8175 -337.909
v 1331.391 282.5733 -355.0199
v 1327.792 289.2961 -302.3335
v 1344.887 289.2962 -320.9298
v 1338.65 302.4867 -290.6674
v 1354.127 302.4867 -308.9172
v 1346.735 315.9915 -283.5062
v 1363.599 315.9915 -300.6009
v 1346.735 315.9915 -283.5062
v 1356.9 326.8233 -277.9619
v 1373.301 326.8233 -295.5187
v 1362.79 349.2923 -277.1534
v 1378.029 349.2923 -293.965
v 1305.615 282.5872 -330.2857
v 1316 281.8175 -316.4901
v 1300.822 264.0981 -329.6504
v 1296.029 245.609 -329.0151
v 1310.971 257.278 -306.5302
v 1327.792 289.2961 -302.3335
v 1328.908 273.045 -288.5561
v 1338.65 302.4867 -290.6674
v 1338.65 302.4867 -290.6674
v 1340.567 289.1235 -273.5666
v 1346.735 315.9915 -283.5062
v 1346.735 315.9915 -283.5062
v 1352.926 304.975 -268.0441
v 1356.9 326.8233 -277.9619
v 1365.722 321.3309 -262.3721
v 1362.79 349.2923 -277.1534
v 1369.721 349.2923 -265.3719
v 1378.029 349.2923 -293.965
v 1386.469 349.2922 -281.8891
v 1362.79 349.2923 -277.1534
v 1369.721 349.2923 -265.3719
v 1363.061 111.287 -158.8167
v 1319.958 83.82213 -143.559
v 1300.586 111.2871 -295.1747
v 1268.998 84.25542 -280.5298
v 1333.309 152.8304 -307.9588
v 1397.47 152.8304 -170.0301
v 1329.811 152.8303 -315.479
v 1296.881 111.287 -303.2614
v 1263.882 83.12057 -290.2307
v 1266.155 82.64045 -280.7138
v 1329.811 152.8303 -315.479
v 1296.881 111.287 -303.2614
v 1331.702 130.5854 -321.1375
v 1353.417 107.9758 -336.3727
v 1302.091 103.7108 -309.6261
v 1263.882 83.12057 -290.2307
v 1266.714 70.37917 -295.8957
v 1360.6 114.8184 -336.1485
v 1384.811 76.96294 -357.1836
v 1392.465 83.82213 -357.3185
v 1392.465 83.82213 -357.3185
v 1364.851 114.8184 -326.905
v 1360.6 114.8184 -336.1485
v 1395.998 83.82211 -349.397
v 1428.213 114.8184 -189.1239
v 1397.47 152.8304 -170.0301
v 1333.309 152.8304 -307.9588
v 1458.956 83.82211 -208.2179
v 1329.811 152.8303 -315.479
v 1263.882 83.12057 -290.2307
v 1266.155 82.64045 -280.7138
v 1266.714 70.37917 -295.8957
v 1272.784 70.9144 -282.2911
v 1338.959 118.518 -340.8865
v 1342.864 131.0629 -340.5389
v 1318.621 118.435 -330.882
v 1322.901 131.3038 -330.7905
v 1333.572 104.7514 -340.7964
v 1313.765 104.1266 -331.1216
v 1322.901 131.3038 -330.7905
v 1342.864 131.0629 -340.5389
v 1331.573 131.3038 -310.54
v 1350.64 131.0629 -319.9044
v 1318.621 118.435 -330.882
v 1322.901 131.3038 -330.7905
v 1327.293 118.435 -310.6315
v 1331.573 131.3038 -310.54
v 1313.765 104.1266 -331.1216
v 1322.596 104.3128 -310.7318
v 1342.864 131.0629 -340.5389
v 1338.959 118.518 -340.8865
v 1350.64 131.0629 -319.9044
v 1346.637 118.518 -320.2103
v 1333.572 104.7514 -340.7964
v 1342.244 104.7514 -320.5459
v 1322.555 67.49778 -315.095
v 1378.606 67.38616 -336.9331
v 1326.343 67.49778 -302.5124
v 1381.226 67.38614 -323.8502
v 1280.493 67.62702 -280.4487
v 1275.353 67.62701 -292.4524
v 1322.555 67.49778 -315.095
v 1377.543 59.15138 -339.3757
v 1378.606 67.38616 -336.9331
v 1321.49 59.26299 -317.536
v 1275.353 67.62701 -292.4524
v 1274.286 59.39224 -294.8918
v 1290.598 54.60083 -313.2971
v 1258.187 54.56583 -297.417
v 1288.927 54.32495 -315.3369
v 1259.257 54.56584 -300.0146
v 1272.785 54.56583 -263.5853
v 1304.305 54.56584 -278.2531
v 1252.381 33.38589 -300.6259
v 1288.927 54.32495 -315.3369
v 1259.257 54.56584 -300.0146
v 1258.187 54.56583 -297.417
v 1282.192 33.3859 -315.0334
v 1251.922 33.38592 -297.8754
v 1265.308 33.3859 -265.7301
v 1272.785 54.56583 -263.5853
v 1288.927 54.32495 -315.3369
v 1283.854 33.3859 -314.414
v 1290.598 54.60083 -313.2971
v 1296.771 33.3859 -280.0602
v 1304.305 54.56584 -278.2531
v 1282.192 33.3859 -315.0334
v 1283.854 33.3859 -314.414
v 1288.927 54.32495 -315.3369
v 1296.771 33.3859 -280.0602
v 1265.308 33.3859 -265.7301
v 1304.305 54.56584 -278.2531
v 1272.785 54.56583 -263.5853
v 1379.969 53.72801 -351.3282
v 1349.925 53.69301 -337.2738
v 1378.298 53.45212 -353.368
v 1350.994 53.693 -339.8716
v 1365.042 53.69302 -303.718
v 1390.34 53.69299 -316.4664
v 1344.118 32.51307 -340.4828
v 1378.298 53.45212 -353.368
v 1350.994 53.693 -339.8716
v 1349.925 53.69301 -337.2738
v 1373.686 32.51308 -353.7437
v 1343.659 32.51308 -337.7323
v 1357.566 32.51306 -305.8628
v 1365.042 53.69302 -303.718
v 1375.348 32.5131 -353.1242
v 1378.298 53.45212 -353.368
v 1378.298 53.45212 -353.368
v 1375.348 32.5131 -353.1242
v 1379.969 53.72801 -351.3282
v 1384.648 32.51308 -317.8227
v 1390.34 53.69299 -316.4664
v 1384.648 32.51308 -317.8227
v 1357.566 32.51306 -305.8628
v 1390.34 53.69299 -316.4664
v 1365.042 53.69302 -303.718
vt 0.867329 0.573869
vt 0.89872 0.638976
vt 0.864606 0.578298
vt 0.895279 0.641903
vt 0.815448 0.527639
vt 0.817013 0.52201
vt 0.908177 0.710929
vt 0.904521 0.712199
vt 0.894842 0.782695
vt 0.891496 0.782315
vt 0.860068 0.847296
vt 0.857522 0.845434
vt 0.807269 0.898479
vt 0.805934 0.895443
vt 0.853575 0.585142
vt 0.88257 0.645239
vt 0.807119 0.537285
vt 0.747717 0.506403
vt 0.75243 0.488553
vt 0.752511 0.482154
vt 0.681836 0.476946
vt 0.680253 0.470273
vt 0.610693 0.489688
vt 0.60743 0.483269
vt 0.54656 0.526695
vt 0.54177 0.521033
vt 0.681196 0.49558
vt 0.614106 0.505915
vt 0.553073 0.536407
vt 0.504128 0.584044
vt 0.494754 0.577119
vt 0.488742 0.572651
vt 0.460846 0.640698
vt 0.454036 0.637734
vt 0.440882 0.712849
vt 0.433788 0.711548
vt 0.450501 0.781934
vt 0.443643 0.782295
vt 0.481805 0.851711
vt 0.475687 0.853556
vt 0.472086 0.644109
vt 0.460077 0.710663
vt 0.469233 0.777153
vt 0.498603 0.837058
vt 0.545255 0.884545
vt 0.535534 0.902225
vt 0.530577 0.90525
vt 0.601115 0.927376
vt 0.597637 0.931165
vt 0.671199 0.938512
vt 0.669368 0.942561
vt 0.741752 0.927505
vt 0.741579 0.931294
vt 0.604597 0.915016
vt 0.670828 0.925546
vt 0.737508 0.915148
vt 0.798164 0.884847
vt 0.846916 0.837582
vt 0.879016 0.777927
vt 0.891316 0.711665
vt 0.670828 0.925546
vt 0.604597 0.915016
vt 0.696704 0.943201
vt 0.631035 0.932766
vt 0.762825 0.932883
vt 0.737508 0.915148
vt 0.822982 0.902832
vt 0.798164 0.884847
vt 0.831416 0.900643
vt 0.777584 0.927534
vt 0.874689 0.858702
vt 0.871338 0.855963
vt 0.903188 0.805777
vt 0.903188 0.796812
vt 0.914119 0.747001
vt 0.915404 0.731112
vt 0.846916 0.837582
vt 0.879016 0.777927
vt 0.891316 0.711665
vt 0.906752 0.665254
vt 0.88257 0.645239
vt 0.878022 0.605675
vt 0.853575 0.585142
vt 0.831973 0.558233
vt 0.807119 0.537285
vt 0.878022 0.605675
vt 0.906752 0.665254
vt 0.880677 0.634822
vt 0.906378 0.688097
vt 0.839492 0.592412
vt 0.831973 0.558233
vt 0.786829 0.565061
vt 0.773084 0.527625
vt 0.727853 0.555492
vt 0.70713 0.516904
vt 0.668366 0.564673
vt 0.640605 0.52716
vt 0.614239 0.591715
vt 0.580079 0.557398
vt 0.570813 0.633948
vt 0.531531 0.604632
vt 0.542359 0.687196
vt 0.49974 0.664187
vt 0.531657 0.746201
vt 0.487808 0.730174
vt 0.539721 0.805155
vt 0.496863 0.796093
vt 0.565716 0.85828
vt 0.525963 0.855485
vt 0.607054 0.900397
vt 0.572204 0.902561
vt 0.659672 0.927426
vt 0.631035 0.932766
vt 0.718421 0.936765
vt 0.696704 0.943201
vt 0.504128 0.584044
vt 0.553073 0.536407
vt 0.460077 0.710663
vt 0.472086 0.644109
vt 0.498603 0.837058
vt 0.469233 0.777153
vt 0.614106 0.505915
vt 0.681196 0.49558
vt 0.747717 0.506403
vt 0.807119 0.537285
vt 0.545255 0.884545
vt 0.762825 0.932883
vt 0.777584 0.927534
vt 0.915404 0.731112
vt 0.914119 0.747001
vt 0.545255 0.884545
vt 0.572204 0.902561
vt 0.895256 0.638793
vt 0.864178 0.574344
vt 0.874866 0.642246
vt 0.846232 0.582908
vt 0.814368 0.523011
vt 0.800357 0.535655
vt 0.750517 0.483502
vt 0.883509 0.707835
vt 0.904621 0.71002
vt 0.871371 0.773263
vt 0.891422 0.781062
vt 0.83968 0.832167
vt 0.857001 0.845013
vt 0.791547 0.878837
vt 0.804736 0.895681
vt 0.731655 0.908756
vt 0.739708 0.928165
vt 0.665816 0.919021
vt 0.668224 0.939317
vt 0.60042 0.90862
vt 0.597217 0.928035
vt 0.541823 0.878529
vt 0.908177 0.710929
vt 0.89872 0.638976
vt 0.867329 0.573869
vt 0.817013 0.52201
vt 0.752511 0.482154
vt 0.680253 0.470273
vt 0.678989 0.47174
vt 0.741704 0.505165
vt 0.800357 0.535655
vt 0.676024 0.494478
vt 0.606903 0.484622
vt 0.60743 0.483269
vt 0.54177 0.521033
vt 0.541914 0.522045
vt 0.609785 0.504682
vt 0.488742 0.572651
vt 0.489423 0.57314
vt 0.549529 0.534787
vt 0.501204 0.581819
vt 0.455069 0.637563
vt 0.469571 0.641122
vt 0.434958 0.710645
vt 0.609785 0.504682
vt 0.454036 0.637734
vt 0.433788 0.711548
vt 0.443643 0.782295
vt 0.444711 0.780665
vt 0.457715 0.706836
vt 0.466758 0.772486
vt 0.476432 0.851266
vt 0.495758 0.831638
vt 0.530807 0.902443
vt 0.541823 0.878529
vt 0.469571 0.641122
vt 0.475687 0.853556
vt 0.597637 0.931165
vt 0.669368 0.942561
vt 0.741579 0.931294
vt 0.807269 0.898479
vt 0.860068 0.847296
vt 0.894842 0.782695
vt 0.530577 0.90525
vt 0.676024 0.494478
vt 0.606903 0.484622
vt 0.609785 0.504682
vt 0.859298 0.636481
vt 0.831429 0.578754
vt 0.800357 0.535655
vt 0.786791 0.532784
vt 0.741704 0.505165
vt 0.729727 0.503123
vt 0.86772 0.700293
vt 0.855923 0.763951
vt 0.825101 0.821261
vt 0.778279 0.866668
vt 0.720012 0.895776
vt 0.655956 0.905759
vt 0.59233 0.895632
vt 0.53532 0.866349
vt 0.541823 0.878529
vt 0.490502 0.820723
vt 0.495758 0.831638
vt 0.462286 0.763171
vt 0.466758 0.772486
vt 0.741704 0.505165
vt 0.676024 0.494478
vt 0.729727 0.503123
vt 0.665832 0.492727
vt 0.676024 0.494478
vt 0.609785 0.504682
vt 0.665832 0.492727
vt 0.601398 0.502652
vt 0.609785 0.504682
vt 0.549529 0.534787
vt 0.601398 0.502652
vt 0.542786 0.531935
vt 0.501204 0.581819
vt 0.495782 0.577685
vt 0.469571 0.641122
vt 0.465015 0.635374
vt 0.457715 0.706836
vt 0.453486 0.699301
vt 0.466758 0.772486
vt 0.462286 0.763171
vt 0.604064 0.995854
vt 0.558525 0.965684
vt 0.632934 0.946614
vt 0.589371 0.914688
vt 0.652429 0.917796
vt 0.620043 0.889609
vt 0.679245 0.894259
vt 0.645786 0.866227
vt 0.711729 0.876874
vt 0.675379 0.848704
vt 0.737932 0.867818
vt 0.69926 0.838585
vt 0.766137 0.86453
vt 0.725498 0.838361
vt 0.725498 0.838361
vt 0.739266 0.813738
vt 0.766137 0.86453
vt 0.780169 0.840172
vt 0.740877 0.807823
vt 0.781783 0.834274
vt 0.675379 0.848704
vt 0.645786 0.866227
vt 0.663639 0.815241
vt 0.621691 0.843442
vt 0.620043 0.889609
vt 0.59944 0.86703
vt 0.589371 0.914688
vt 0.564797 0.908338
vt 0.705554 0.814895
vt 0.69926 0.838585
vt 0.739266 0.813738
vt 0.725498 0.838361
vt 0.740877 0.807823
vt 0.558525 0.965684
vt 0.535219 0.952709
vt 0.558525 0.965684
vt 0.604064 0.995854
vt 0.535219 0.952709
vt 0.577546 0.980534
vt 0.818494 0.922206
vt 0.856647 0.899016
vt 0.828935 0.940771
vt 0.867641 0.914485
vt 0.844496 0.883291
vt 0.809988 0.903395
vt 0.841747 0.866899
vt 0.803711 0.888936
vt 0.84574 0.856276
vt 0.802597 0.879669
vt 0.852707 0.844669
vt 0.810373 0.866945
vt 0.809331 0.86226
vt 0.852538 0.837747
vt 0.841855 0.816016
vt 0.890109 0.938104
vt 0.891637 0.951219
vt 0.895487 0.945556
vt 0.856221 0.977705
vt 0.798336 0.835625
vt 0.841855 0.816016
vt 0.809331 0.86226
vt 0.793472 0.831805
vt 0.839205 0.811526
vt 0.841855 0.816016
vt 0.793472 0.831805
vt 0.825008 0.814254
vt 0.774794 0.832953
vt 0.793472 0.831805
vt 0.798336 0.835625
vt 0.774794 0.832953
vt 0.778997 0.839431
vt 0.809331 0.86226
vt 0.773043 0.841633
vt 0.810373 0.866945
vt 0.774494 0.847897
vt 0.802597 0.879669
vt 0.774257 0.860498
vt 0.803711 0.888936
vt 0.773881 0.87655
vt 0.809988 0.903395
vt 0.771741 0.888121
vt 0.818494 0.922206
vt 0.777654 0.910306
vt 0.828935 0.940771
vt 0.80324 0.936152
vt 0.856221 0.977705
vt 0.826361 0.966262
vt 0.925886 0.851574
vt 0.951874 0.805069
vt 0.941186 0.858307
vt 0.965725 0.810591
vt 0.935161 0.797877
vt 0.913607 0.841901
vt 0.920758 0.79071
vt 0.901842 0.833616
vt 0.91614 0.787442
vt 0.897354 0.827186
vt 0.920293 0.772599
vt 0.896922 0.821583
vt 0.894553 0.817624
vt 0.917639 0.768728
vt 0.869627 0.804851
vt 0.889844 0.75777
vt 0.979916 0.815484
vt 0.981921 0.819853
vt 0.956498 0.866478
vt 0.982301 0.817054
vt 0.889844 0.75777
vt 0.869627 0.804851
vt 0.874946 0.756917
vt 0.852984 0.80226
vt 0.869627 0.804851
vt 0.894553 0.817624
vt 0.852984 0.80226
vt 0.855806 0.813204
vt 0.896922 0.821583
vt 0.855737 0.815733
vt 0.897354 0.827186
vt 0.859045 0.823649
vt 0.901842 0.833616
vt 0.864488 0.829344
vt 0.913607 0.841901
vt 0.875998 0.840003
vt 0.925886 0.851574
vt 0.889743 0.85074
vt 0.941186 0.858307
vt 0.903518 0.859237
vt 0.956498 0.866478
vt 0.916576 0.866781
vt 0.978249 0.628227
vt 0.993214 0.675424
vt 0.950274 0.632369
vt 0.968702 0.680281
vt 0.926157 0.64119
vt 0.951582 0.686451
vt 0.903071 0.655445
vt 0.928768 0.700414
vt 0.890793 0.668601
vt 0.920726 0.71112
vt 0.888582 0.681919
vt 0.918786 0.718806
vt 0.896618 0.692898
vt 0.924931 0.734331
vt 0.950274 0.632369
vt 0.926157 0.64119
vt 0.919522 0.614195
vt 0.978249 0.628227
vt 0.878163 0.634358
vt 0.903071 0.655445
vt 0.965399 0.619011
vt 0.945406 0.612123
vt 0.860858 0.656914
vt 0.890793 0.668601
vt 0.860005 0.676518
vt 0.888582 0.681919
vt 0.855592 0.691687
vt 0.896618 0.692898
vt 0.860311 0.706368
vt 0.924931 0.734331
vt 0.889665 0.752394
vt 0.896618 0.692898
vt 0.860311 0.706368
vt 0.789434 0.472046
vt 0.83604 0.475982
vt 0.774812 0.507655
vt 0.824458 0.512897
vt 0.767888 0.546158
vt 0.819245 0.549871
vt 0.773455 0.582052
vt 0.824801 0.584852
vt 0.781773 0.609688
vt 0.837098 0.611199
vt 0.794303 0.634374
vt 0.849958 0.635579
vt 0.808457 0.650084
vt 0.867881 0.657075
vt 0.781773 0.609688
vt 0.794303 0.634374
vt 0.766349 0.635295
vt 0.784081 0.667371
vt 0.7495 0.604677
vt 0.773455 0.582052
vt 0.748006 0.56302
vt 0.767888 0.546158
vt 0.742568 0.508297
vt 0.774812 0.507655
vt 0.808457 0.650084
vt 0.805279 0.683768
vt 0.789434 0.472046
vt 0.808457 0.650084
vt 0.855805 0.690758
vt 0.805279 0.683768
vt 0.867881 0.657075
vt 0.77362 0.461637
vt 0.789434 0.472046
vt 0.742568 0.508297
vt 0.762359 0.454226
vt 0.762359 0.454226
vt 0.744022 0.481025
vt 0.824117 0.462004
vt 0.77362 0.461637
vt 0.814846 0.455336
vt 0.762359 0.454226
vt 0.789434 0.472046
vt 0.83604 0.475982
vt 0.789434 0.472046
vt 0.824117 0.462004
vt 0.48591 0.81213
vt 0.47997 0.750194
vt 0.530273 0.802878
vt 0.523591 0.743487
vt 0.571459 0.797039
vt 0.56493 0.739402
vt 0.609867 0.794645
vt 0.603491 0.738022
vt 0.648137 0.794811
vt 0.639094 0.737156
vt 0.676185 0.797889
vt 0.667093 0.741444
vt 0.698046 0.798333
vt 0.686334 0.744987
vt 0.686334 0.744987
vt 0.724327 0.742804
vt 0.698046 0.798333
vt 0.730491 0.792021
vt 0.686334 0.744987
vt 0.667093 0.741444
vt 0.724327 0.742804
vt 0.701604 0.729012
vt 0.639094 0.737156
vt 0.62339 0.725588
vt 0.603491 0.738022
vt 0.588889 0.72511
vt 0.56493 0.739402
vt 0.551617 0.726364
vt 0.523591 0.743487
vt 0.498866 0.732937
vt 0.47997 0.750194
vt 0.452363 0.744634
vt 0.47997 0.750194
vt 0.48591 0.81213
vt 0.452363 0.744634
vt 0.458189 0.805383
vt 0.758751 0.683353
vt 0.841717 0.672372
vt 0.806121 0.756097
vt 0.710191 0.766327
vt 0.72616 0.720539
vt 0.741542 0.843666
vt 0.828414 0.827389
vt 0.876223 0.78594
vt 0.879941 0.732956
vt 0.663628 0.698896
vt 0.639129 0.763921
vt 0.58836 0.676412
vt 0.549101 0.769858
vt 0.69009 0.866717
vt 0.623004 0.90846
vt 0.826704 0.849108
vt 0.827626 0.883174
vt 0.581285 0.948189
vt 0.851817 0.92939
vt 0.88579 0.800724
vt 0.912065 0.813852
vt 0.900497 0.679225
vt 0.933804 0.652408
vt 0.795996 0.555247
vt 0.79879 0.489919
vt 0.643148 0.59204
vt 0.710259 0.645164
vt 0.821301 0.620697
vt 0.591039 0.543298
vt 0.803217 0.475258
vt 0.581612 0.532712
vt 0.947212 0.647853
vt 0.924277 0.819981
vt 0.856784 0.941616
vt 0.574251 0.961649
vt 0.489973 0.795061
vt 0.475632 0.796407
vt 0.498831 0.776288
vt 0.48768 0.76056
vt 0.532784 0.651349
vt 0.520919 0.646517
vt 0.473306 0.761672
vt 0.758751 0.683353
vt 0.758751 0.683353
vt 0.821301 0.620697
vt 0.841717 0.672372
vt 0.710259 0.645164
vt 0.821301 0.620697
vt 0.758751 0.683353
vt 0.856784 0.941616
vt 0.924277 0.819981
vt 0.84194 0.929311
vt 0.562165 0.94913
vt 0.574251 0.961649
vt 0.90876 0.808864
vt 0.947212 0.647853
vt 0.931402 0.638388
vt 0.803217 0.475258
vt 0.788802 0.467482
vt 0.473306 0.761672
vt 0.462122 0.751182
vt 0.520919 0.646517
vt 0.509302 0.637051
vt 0.581612 0.532712
vt 0.569387 0.524366
vt 0.788802 0.467482
vt 0.803217 0.475258
vt 0.475632 0.796407
vt 0.464403 0.785351
vt 0.574251 0.961649
vt 0.562165 0.94913
vt 0.69009 0.866717
vt 0.878595 0.789142
vt 0.884373 0.707684
vt 0.876223 0.78594
vt 0.879941 0.732956
vt 0.841717 0.672372
vt 0.821301 0.620697
vt 0.876223 0.78594
vt 0.828414 0.827389
vt 0.828414 0.827389
vt 0.69009 0.866717
vt 0.741542 0.843666
vt 0.620797 0.488455
vt 0.590143 0.512945
vt 0.601251 0.486753
vt 0.57045 0.511033
vt 0.564491 0.542496
vt 0.544776 0.539095
vt 0.551099 0.509154
vt 0.525402 0.535753
vt 0.580702 0.487892
vt 0.590143 0.512945
vt 0.586777 0.572424
vt 0.564491 0.542496
vt 0.63246 0.525647
vt 0.620797 0.488455
vt 0.616524 0.605514
vt 0.653992 0.564756
vt 0.647584 0.635116
vt 0.681722 0.594863
vt 0.673065 0.655196
vt 0.710503 0.617245
vt 0.673065 0.655196
vt 0.701957 0.671047
vt 0.738562 0.631865
vt 0.728586 0.68034
vt 0.762971 0.642407
vt 0.564491 0.542496
vt 0.586777 0.572424
vt 0.544776 0.539095
vt 0.525402 0.535753
vt 0.563317 0.587259
vt 0.616524 0.605514
vt 0.610311 0.630776
vt 0.647584 0.635116
vt 0.647584 0.635116
vt 0.644427 0.668508
vt 0.673065 0.655196
vt 0.673065 0.655196
vt 0.680491 0.685841
vt 0.701957 0.671047
vt 0.718377 0.703946
vt 0.728586 0.68034
vt 0.744224 0.706924
vt 0.762971 0.642407
vt 0.782014 0.669655
vt 0.728586 0.68034
vt 0.744224 0.706924
vt 0.599871 0.847577
vt 0.500643 0.867844
vt 0.473674 0.572139
vt 0.399108 0.594587
vt 0.559238 0.556584
vt 0.691256 0.840386
vt 0.55204 0.54111
vt 0.46619 0.555804
vt 0.388454 0.574936
vt 0.392802 0.593799
vt 0.55204 0.54111
vt 0.46619 0.555804
vt 0.545451 0.52419
vt 0.57881 0.488201
vt 0.473451 0.541126
vt 0.388454 0.574936
vt 0.389149 0.5605
vt 0.596613 0.490143
vt 0.626704 0.440158
vt 0.645356 0.441217
vt 0.645356 0.441217
vt 0.605213 0.508843
vt 0.596613 0.490143
vt 0.652407 0.457026
vt 0.733402 0.78759
vt 0.691256 0.840386
vt 0.559238 0.556584
vt 0.778062 0.738796
vt 0.55204 0.54111
vt 0.388454 0.574936
vt 0.392802 0.593799
vt 0.389149 0.5605
vt 0.401404 0.587632
vt 0.554559 0.48135
vt 0.56842 0.484768
vt 0.513308 0.501605
vt 0.527851 0.504686
vt 0.537305 0.478594
vt 0.497135 0.497942
vt 0.527851 0.504686
vt 0.56842 0.484768
vt 0.545524 0.545956
vt 0.584264 0.526815
vt 0.513308 0.501605
vt 0.527851 0.504686
vt 0.530881 0.542639
vt 0.545524 0.545956
vt 0.497135 0.497942
vt 0.515002 0.539044
vt 0.56842 0.484768
vt 0.554559 0.48135
vt 0.584264 0.526815
vt 0.570118 0.523249
vt 0.537305 0.478594
vt 0.554773 0.519381
vt 0.4987 0.521748
vt 0.609726 0.478447
vt 0.506207 0.546684
vt 0.614919 0.504373
vt 0.415395 0.590442
vt 0.405208 0.566652
vt 0.4987 0.521748
vt 0.603677 0.471911
vt 0.609726 0.478447
vt 0.493039 0.515061
vt 0.405208 0.566652
vt 0.399874 0.559809
vt 0.43016 0.522374
vt 0.366272 0.553662
vt 0.426756 0.518292
vt 0.36838 0.548542
vt 0.39504 0.620336
vt 0.457159 0.591429
vt 0.347077 0.54236
vt 0.426756 0.518292
vt 0.36838 0.548542
vt 0.366272 0.553662
vt 0.405299 0.514222
vt 0.346182 0.547731
vt 0.372324 0.61051
vt 0.39504 0.620336
vt 0.426756 0.518292
vt 0.408544 0.515432
vt 0.43016 0.522374
vt 0.43377 0.582524
vt 0.457159 0.591429
vt 0.405299 0.514222
vt 0.408544 0.515432
vt 0.426756 0.518292
vt 0.43377 0.582524
vt 0.372324 0.61051
vt 0.457159 0.591429
vt 0.39504 0.620336
vt 0.605874 0.447254
vt 0.546669 0.474934
vt 0.602451 0.443182
vt 0.548776 0.469817
vt 0.576452 0.541039
vt 0.626288 0.515925
vt 0.525855 0.464345
vt 0.602451 0.443182
vt 0.548776 0.469817
vt 0.546669 0.474934
vt 0.585119 0.441536
vt 0.52496 0.469715
vt 0.55211 0.531933
vt 0.576452 0.541039
vt 0.586823 0.439666
vt 0.602451 0.443182
vt 0.602451 0.443182
vt 0.586823 0.439666
vt 0.605874 0.447254
vt 0.604981 0.508584
vt 0.626288 0.515925
vt 0.604981 0.508584
vt 0.55211 0.531933
vt 0.626288 0.515925
vt 0.576452 0.541039
vn 0.5851503 0.7000618 -0.4092831
vn 0.6965119 0.6851694 -0.2131057
vn 0.2909087 0.9516921 -0.09825569
vn 0.3257537 0.9454066 -0.009535299
vn 0.2409333 0.9539195 -0.1788534
vn 0.4468364 0.7099745 -0.5443102
vn 0.7416639 0.6707247 0.007939599
vn 0.3314225 0.9395874 0.08564336
vn 0.7162205 0.6581048 0.2322204
vn 0.3073854 0.9347938 0.1779741
vn 0.6226134 0.6486043 0.4377957
vn 0.2559337 0.93152 0.2583957
vn 0.4699878 0.6431954 0.6044924
vn 0.1821355 0.9300747 0.3190417
vn -0.126976 0.979334 0.157423
vn -0.1499836 0.9831375 0.1046214
vn -0.08876308 0.9756591 0.2005253
vn -0.02699872 0.983357 0.1796667
vn 0.1727143 0.9519458 -0.2529209
vn 0.2291835 0.7249703 -0.6495327
vn 0.05286006 0.9572263 -0.2844707
vn -0.02236697 0.7342641 -0.6784953
vn -0.05477887 0.9641888 -0.2594981
vn -0.2628403 0.7382092 -0.6212586
vn -0.1380172 0.9698694 -0.20076
vn -0.4403217 0.7357622 -0.5145589
vn 0.02240821 0.9866247 0.1614603
vn 0.05934354 0.9840042 0.1679703
vn 0.1222287 0.9738531 0.1914948
vn 0.1708381 0.9695979 0.1751981
vn -0.2005533 0.9688165 -0.1455089
vn -0.5823877 0.7308956 -0.3558317
vn -0.2599845 0.9626034 -0.07617496
vn -0.6660142 0.720699 -0.1924008
vn -0.3072219 0.9516017 0.008304117
vn -0.7016644 0.7104729 0.05380831
vn -0.3051708 0.9433281 0.1303955
vn -0.66348 0.6944785 0.2783774
vn -0.262247 0.9387689 0.2234713
vn -0.5388159 0.6800752 0.4971671
vn 0.2001313 0.9716969 0.1255098
vn 0.1655811 0.9834342 0.07375766
vn 0.1354958 0.9902785 0.03145351
vn 0.1238249 0.9923022 -0.001966544
vn 0.1070933 0.9934139 -0.04074154
vn -0.1683853 0.9353508 0.311071
vn -0.3248081 0.6633312 0.6741598
vn -0.07009293 0.9348256 0.3481207
vn -0.1477245 0.6519526 0.7437307
vn -0.002074916 0.9330087 0.3598476
vn 0.05193849 0.6460234 0.7615485
vn 0.09324292 0.9305828 0.3540078
vn 0.2733556 0.6422956 0.7160538
vn 0.08342755 0.9915826 -0.09901428
vn 0.03989439 0.9912813 -0.1255776
vn -0.01753979 0.9926218 -0.1199764
vn -0.07045952 0.9927943 -0.09692638
vn -0.1136769 0.9917831 -0.05868321
vn -0.1429814 0.9896845 -0.008996245
vn -0.1555018 0.9867038 0.04727494
vn 0.04590686 0.006372837 0.9989254
vn -0.2641385 0.017466 0.9643265
vn -0.003991012 0.1463476 0.9892252
vn -0.3058451 0.1581377 0.9388564
vn 0.2988356 0.1402124 0.943948
vn 0.3516532 0.00119305 0.9361296
vn 0.5729924 0.1403299 0.8074573
vn 0.6231606 0.002429181 0.7820901
vn 0.5151174 0.2750651 0.811784
vn 0.2451156 0.2759479 0.9293929
vn 0.735655 0.2802305 0.6166706
vn 0.791638 0.1466947 0.5931188
vn 0.8851368 0.2909463 0.3631572
vn 0.9333816 0.1586763 0.3219015
vn 0.9489458 0.3061351 0.07604642
vn 0.9843406 0.1750974 0.02035823
vn 0.8338598 0.009963428 0.5518863
vn 0.9631345 0.02305551 0.2680306
vn 0.9983137 0.04043317 -0.0416535
vn 0.9395257 0.1943679 -0.2819796
vn 0.9359623 0.06037989 -0.3468843
vn 0.8033245 0.2145861 -0.5555381
vn 0.7821838 0.08094852 -0.6177669
vn 0.5890731 0.2337808 -0.7735239
vn 0.5520318 0.1001402 -0.8277879
vn 0.8033245 0.2145861 -0.5555381
vn 0.9395257 0.1943679 -0.2819796
vn 0.8035226 0.3437579 -0.4859853
vn 0.9208246 0.3243279 -0.2165488
vn 0.6085289 0.3625045 -0.7058918
vn 0.5890731 0.2337808 -0.7735239
vn 0.3549294 0.378737 -0.8547418
vn 0.3177373 0.2500694 -0.9146082
vn 0.06755055 0.3908644 -0.9179662
vn 0.0158869 0.2618566 -0.964976
vn -0.2254844 0.3977033 -0.8893756
vn -0.2869396 0.2679915 -0.919699
vn -0.4954874 0.3985875 -0.7717644
vn -0.5610964 0.2678756 -0.7832072
vn -0.7160246 0.3934266 -0.5766492
vn -0.7797481 0.2615142 -0.5688614
vn -0.8655099 0.3827235 -0.3231337
vn -0.9214867 0.2495329 -0.29765
vn -0.9293152 0.3675259 -0.03602728
vn -0.972444 0.2331041 0.003888014
vn -0.9011911 0.349324 0.2565688
vn -0.9276282 0.2138372 0.3062346
vn -0.783893 0.3298987 0.5260024
vn -0.7914302 0.1936156 0.5797855
vn -0.5889043 0.3111499 0.7459071
vn -0.5771799 0.1744237 0.7977718
vn -0.3353 0.2949185 0.8947609
vn -0.3058451 0.1581377 0.9388564
vn -0.04791904 0.2827884 0.9579846
vn -0.003991012 0.1463476 0.9892252
vn -0.8299757 0.1235508 -0.5439445
vn -0.6192731 0.1310881 -0.7741555
vn -0.9944226 0.09308411 0.04958872
vn -0.9592422 0.1104562 -0.2601036
vn -0.7782946 0.05256293 0.6256953
vn -0.9320698 0.07313447 0.35482
vn -0.3477574 0.1323257 -0.9281996
vn -0.04201549 0.1271469 -0.9909936
vn 0.2680268 0.1160556 -0.9563957
vn 0.5520318 0.1001402 -0.8277879
vn -0.5481423 0.03338308 0.8357187
vn 0.2988356 0.1402124 0.943948
vn 0.2451156 0.2759479 0.9293929
vn 0.9843406 0.1750974 0.02035823
vn 0.9489458 0.3061351 0.07604642
vn -0.5481423 0.03338308 0.8357187
vn -0.5771799 0.1744237 0.7977718
vn 0.6609247 -0.7007888 -0.2684656
vn 0.5576352 -0.6859692 -0.4674282
vn 0.7785736 -0.5668163 -0.2693368
vn 0.6670122 -0.5496837 -0.5029339
vn 0.4231256 -0.6720151 -0.6077503
vn 0.4901052 -0.5507442 -0.6756313
vn 0.2046024 -0.6936064 -0.6906866
vn 0.8123398 -0.5830479 -0.01261456
vn 0.6975497 -0.7149767 -0.04725269
vn 0.7649968 -0.5967953 0.2421058
vn 0.6638805 -0.7271845 0.174543
vn 0.6411803 -0.6067187 0.4698725
vn 0.5632632 -0.7361715 0.3752147
vn 0.4530053 -0.6118464 0.6484057
vn 0.405536 -0.7410576 0.5351393
vn 0.2188958 -0.611666 0.7602298
vn 0.2061057 -0.7414078 0.6386196
vn -0.03822714 -0.6062007 0.7943925
vn -0.01546566 -0.7371598 0.6755413
vn -0.2931965 -0.5959858 0.7475538
vn -0.2096406 -0.7422679 0.6364661
vn -0.503299 -0.6144741 0.6075457
vn 0.8743966 -0.4845199 0.0259077
vn 0.8478138 -0.4673182 -0.2506501
vn 0.7369185 -0.4490076 -0.5053151
vn 0.5697395 -0.4320325 -0.6991028
vn 0.3544571 -0.4196631 -0.8356094
vn 0.0350035 -0.4044853 -0.9138743
vn -0.03952131 -0.7009693 -0.7120956
vn 0.07290926 -0.9082096 -0.4121159
vn 0.2368455 -0.8765649 -0.4189726
vn -0.04776783 -0.9019974 -0.4290906
vn -0.2668955 -0.6897063 -0.6731063
vn -0.2670295 -0.3971516 -0.8780466
vn -0.5214458 -0.3955982 -0.7560399
vn -0.4537193 -0.658926 -0.5999628
vn -0.278626 -0.7358863 -0.6171215
vn -0.69934 -0.4020067 -0.591028
vn -0.6037388 -0.6526757 -0.4577268
vn -0.4855067 -0.5035223 -0.7146667
vn -0.6736789 -0.5086459 -0.5361308
vn -0.6944383 -0.6578431 -0.2915442
vn -0.7822791 -0.5361285 -0.3171839
vn -0.7050452 -0.7067137 -0.05888104
vn -0.2514136 -0.5324292 -0.8082761
vn -0.8308364 -0.4102103 -0.3760832
vn -0.8952135 -0.4251329 -0.1336219
vn -0.8765792 -0.4429451 0.1881718
vn -0.6588212 -0.7347441 0.161573
vn -0.3911689 -0.9194826 -0.03922697
vn -0.3643802 -0.9287466 0.06824122
vn -0.5475596 -0.7556165 0.3594748
vn -0.303577 -0.9370276 0.1726858
vn -0.3675975 -0.7656402 0.5278894
vn -0.2427189 -0.9223015 0.300745
vn -0.4521812 -0.8714333 -0.1900953
vn -0.7669265 -0.4626506 0.4447226
vn -0.2829945 -0.4947422 0.8216716
vn -0.06784332 -0.5066448 0.8594815
vn 0.2091261 -0.5130805 0.8324751
vn 0.4643499 -0.5138492 0.7213446
vn 0.6728107 -0.5089657 0.5369169
vn 0.8140759 -0.4989054 0.2972773
vn -0.5375287 -0.4819867 0.691919
vn -0.08183748 -0.7689268 -0.6340773
vn -0.2668955 -0.6897063 -0.6731063
vn -0.1971751 -0.6220102 -0.7577767
vn 0.9261113 -0.1243223 -0.3561767
vn 0.7730699 -0.1038458 -0.6257627
vn 0.5452929 -0.4462879 -0.7095652
vn 0.5440094 -0.08475309 -0.8347878
vn 0.3606213 -0.07376076 -0.9297912
vn 0.2613715 -0.06890782 -0.9627755
vn 0.9881627 -0.1441771 -0.05241609
vn 0.9531507 -0.1614621 0.2558002
vn 0.8245011 -0.1744893 0.5382856
vn 0.6148122 -0.1819857 0.7673898
vn 0.3445914 -0.1832198 0.9206994
vn 0.0403132 -0.1780706 0.9831915
vn -0.2682477 -0.1670345 0.9487584
vn -0.5508858 -0.1511962 0.8207707
vn -0.5869582 -0.3623786 0.7239902
vn -0.7799431 -0.1321016 0.6117498
vn -0.8407234 -0.1252824 0.5267717
vn -0.932985 -0.1116298 0.3421662
vn -0.9644652 -0.1047957 0.2425381
vn 0.3606213 -0.07376076 -0.9297912
vn 0.05746497 -0.06096606 -0.9964843
vn 0.2613715 -0.06890782 -0.9627755
vn -0.04719063 -0.05787518 -0.9972078
vn 0.02386368 -0.30029 -0.9535494
vn -0.2457552 -0.4308246 -0.8683286
vn -0.04719063 -0.05787518 -0.9972078
vn -0.3514719 -0.05272065 -0.9347129
vn -0.2793293 -0.4294353 -0.8588135
vn -0.4855067 -0.5035223 -0.7146667
vn -0.3514719 -0.05272065 -0.9347129
vn -0.6216804 -0.05395364 -0.7814105
vn -0.6736789 -0.5086459 -0.5361308
vn -0.831379 -0.06145598 -0.5522972
vn -0.8342335 -0.42755 -0.3482176
vn -0.9600261 -0.07448813 -0.2698174
vn -0.9941333 -0.08559404 -0.06612731
vn -0.9950393 -0.09177663 0.03839084
vn -0.9644652 -0.1047957 0.2425381
vn -0.932985 -0.1116298 0.3421662
vn -0.04211085 0.9971521 0.06256454
vn -0.04262151 0.9972451 0.06070984
vn -0.13998 0.9712117 0.1927521
vn -0.2395244 0.9226603 0.3022019
vn -0.342299 0.8422381 0.4164931
vn -0.356957 0.8365853 0.4155801
vn -0.364325 0.8263939 0.4293489
vn -0.3591458 0.8230056 0.4400864
vn -0.3867866 0.7827556 0.4875345
vn -0.4156533 0.7310045 0.5411698
vn -0.4923861 0.5827734 0.6464758
vn -0.5196095 0.4471833 0.7280337
vn -0.5424877 0.3182672 0.7774401
vn -0.5190858 0.2841385 0.8061112
vn 0 1 0
vn 0.1173491 0.9763483 -0.1815853
vn 0 1 0
vn 0.2349226 0.9015225 -0.3634125
vn 0.3352518 0.7865387 -0.5186164
vn 0.3355406 0.7862166 -0.518918
vn -0.7309741 0.217868 -0.646692
vn -0.8059344 0.2565068 -0.5335484
vn -0.7406874 0.2676733 -0.6162249
vn -0.8530174 0.2401392 -0.4633513
vn -0.8704722 0.2229207 -0.4388447
vn -0.8730702 0.1732696 -0.4557697
vn -0.8587447 0.1385576 -0.4933147
vn -0.892497 0.06301074 -0.4466304
vn -0.7751022 0.1178065 -0.6207561
vn -0.8018321 0.08938691 -0.5908259
vn -0.8428322 0.06466879 -0.5342768
vn -0.8654576 0.1296346 -0.4839194
vn -0.8545666 0.04410023 -0.517466
vn -0.8969894 0.04425272 -0.4398315
vn -0.9220714 -0.006554635 -0.3869644
vn -0.5509262 0.07055237 0.8315664
vn -0.5501075 0.06998727 0.8321559
vn -0.5501075 0.06998727 0.8321559
vn -0.549288 0.06942206 0.8327444
vn 0.3207604 0.7810021 0.5358623
vn 0.3065818 0.8177756 0.487084
vn 0.1020167 0.9813417 0.1629759
vn 0.1433082 0.9669192 0.2110213
vn 0.358962 0.7084454 0.6076606
vn 0.365464 0.6866044 0.6284986
vn 0.3952095 0.6165554 0.6809323
vn 0.3987947 0.5838543 0.7071611
vn 0.4156884 0.5072322 0.7549296
vn 0.4119425 0.4814759 0.7736177
vn 0.3702145 0.6204053 0.6914033
vn 0.370875 0.5982035 0.710355
vn 0.1609348 0.9409583 0.2978213
vn 0.1527667 0.9508259 0.2694299
vn -0.1282217 0.9501017 -0.2843692
vn -0.01670043 0.9996914 -0.01838914
vn -0.01446545 0.9997149 -0.01899439
vn -0.0003663166 0.9999491 -0.01008425
vn -0.01889082 0.9990405 -0.03950953
vn -0.197134 0.8778054 -0.436573
vn -0.1988251 0.8732739 -0.4448159
vn 0.1609348 0.9409583 0.2978213
vn -0.3936268 0.1806187 -0.9013516
vn -0.3997693 0.1642746 -0.9017751
vn -0.2615515 0.7679198 -0.5847136
vn -0.3936268 0.1806187 -0.9013516
vn -0.3866332 -0.1834292 -0.9038077
vn -0.3757164 -0.1700083 -0.9110073
vn -0.7907985 0.1495323 0.5935301
vn -0.8301223 0.1325828 0.5415892
vn -0.7741656 0.1511474 0.6146724
vn -0.844565 0.100254 0.5259838
vn -0.880268 0.068037 0.4695734
vn -0.8726416 0.05863731 0.4848281
vn -0.9135114 0.06348342 0.4018292
vn -0.9155098 0.04410561 0.3998708
vn -0.9070283 0.02268909 0.420458
vn -0.9042665 0.01253699 0.4267845
vn -0.8744526 0.03164781 0.4840776
vn -0.877987 0.06863777 0.4737381
vn -0.8124106 0.09098076 0.5759441
vn -0.828703 0.1222848 0.5461664
vn -0.7874761 0.1351509 0.6013449
vn -0.756795 0.1336048 0.6398524
vn -0.7492992 0.1069179 0.6535438
vn -0.7601495 0.07901408 0.6449259
vn -0.8017876 0.06842443 0.593679
vn -0.796589 0.06571606 0.6009389
vn 0.5872753 0.7464383 0.3129501
vn 0.5435573 0.7854988 0.2958666
vn 0.1669676 0.9817135 0.09143554
vn 0.2360983 0.9641133 0.1214209
vn 0.6390195 0.6963006 0.3268326
vn 0.6673687 0.6745905 0.3155102
vn 0.7149295 0.6186218 0.325857
vn 0.7478736 0.5705426 0.3393613
vn 0.7952245 0.480722 0.3694919
vn 0.8093793 0.442646 0.385966
vn 0.7446389 0.5653571 0.3548017
vn 0.7477894 0.5587326 0.3586484
vn 0.4484992 0.8677672 0.2140759
vn 0.2226575 0.9691899 0.1053304
vn 0.0052494 0.9999825 0.002745227
vn 0.005451997 0.9999806 0.00301497
vn -0.05157812 0.9983364 -0.02577348
vn -0.05477928 0.9980108 -0.03120306
vn -0.09877028 0.9931684 -0.06213685
vn -0.01770364 0.9995903 -0.02248967
vn -0.9181131 -0.04243384 -0.3940402
vn -0.9187665 -0.04417856 -0.3923219
vn -0.9187665 -0.04417856 -0.3923219
vn -0.919414 -0.045923 -0.3906009
vn -0.4524883 0.1163428 0.8841486
vn -0.5486983 0.1336152 0.825274
vn -0.4801491 0.1307216 0.8673918
vn -0.5850192 0.1393861 0.7989519
vn -0.5702454 0.1371943 0.809937
vn -0.5387855 0.1462609 0.8296494
vn -0.5057456 0.1567515 0.848322
vn -0.4856057 0.1610549 0.8592138
vn -0.419639 0.1552369 0.894318
vn -0.4259997 0.159562 0.8905415
vn -0.4286002 0.169472 0.8874576
vn -0.4425388 0.1833169 0.8778122
vn -0.3819993 0.1873571 0.9049717
vn -0.373315 0.1989224 0.9061267
vn -0.3884144 0.2066879 0.8980057
vn -0.456213 0.2157924 0.8633096
vn -0.4936436 0.2160778 0.8423933
vn -0.5070772 0.2183969 0.8337719
vn -0.05422966 0.9984421 0.01313489
vn -0.06057531 0.9979743 0.01943635
vn 0.105176 0.9935187 -0.04311017
vn 0.3026137 0.941588 -0.1477728
vn 0.4985474 0.828583 -0.2547565
vn 0.5397395 0.784638 -0.3049991
vn 0.5966417 0.7273231 -0.3391459
vn 0.6459801 0.6501591 -0.4000036
vn 0.6949607 0.5531083 -0.4594571
vn 0.709492 0.4698624 -0.5252146
vn 0.7399982 0.3466737 -0.5763854
vn 0.765205 0.2615605 -0.588258
vn 0.7844368 0.1980412 -0.5877402
vn 0.8013875 0.2406069 -0.5476188
vn -0.1462079 0.1913511 -0.970571
vn -0.2157346 0.1489198 -0.9650292
vn -0.126274 0.13792 -0.982361
vn -0.1115831 0.1618878 -0.9804803
vn -0.299263 0.1212024 -0.9464416
vn -0.3124564 0.09449023 -0.9452209
vn -0.02246963 0.07808141 -0.9966937
vn 0.01359473 0.02711802 -0.9995399
vn -0.3991302 0.08589845 -0.9128618
vn -0.4481995 0.09676211 -0.8886812
vn -0.4736944 0.1076555 -0.8740846
vn -0.4414513 0.0922685 -0.8925285
vn -0.3817512 0.05270145 -0.9227614
vn -0.3673483 0.02914092 -0.9296268
vn -0.3463031 0.01941158 -0.9379219
vn 0.004016574 0.9999882 -0.002744679
vn 0.004594247 0.9999859 -0.002676556
vn 0.004594247 0.9999859 -0.002676556
vn 0.005171917 0.9999833 -0.002608432
vn -0.002958147 0.9991087 0.04210639
vn -0.003577376 0.9991558 0.04092626
vn 0.01082104 0.9951575 -0.09769556
vn 0.02135952 0.9695837 -0.2438259
vn 0.03792198 0.8832759 -0.4673175
vn 0.03660491 0.8280216 -0.5595
vn 0.04073242 0.7338794 -0.6780575
vn 0.03252178 0.6876728 -0.725292
vn 0.02727422 0.6626832 -0.748403
vn 0.01712742 0.6720738 -0.7402859
vn 0.01706237 0.5438362 -0.8390179
vn 0.04855863 0.4042962 -0.9133382
vn 0.06549041 0.2464182 -0.9669483
vn 0.1115303 0.2980347 -0.948017
vn -0.9440233 0.2988154 -0.1397474
vn -0.9667323 0.2312616 -0.1093012
vn -0.9482457 0.3093025 -0.07184684
vn -0.9800628 0.1561502 -0.1228584
vn -0.9339597 0.2622927 -0.2427383
vn -0.9313852 0.2242163 -0.2867903
vn -0.947153 0.1997868 -0.2509713
vn -0.938669 0.2264843 -0.2600102
vn -0.8919777 0.1914098 -0.4095584
vn -0.8852618 0.2918639 -0.3621147
vn -0.9875284 0.07630011 -0.1377172
vn -0.9909385 0.09643222 -0.09349707
vn -0.8772529 0.2147015 -0.4293375
vn 0 1 0
vn 0 1 0
vn 0 1 0
vn 0 1 0
vn -0.3870223 0.1377344 -0.9117253
vn -0.6728904 0.2135997 -0.7082328
vn -0.8919777 0.1914098 -0.4095584
vn -0.6402674 0.1317443 -0.7567701
vn -0.8558752 0.1103747 -0.5052673
vn -0.8618434 0.09155291 -0.4988426
vn 0.02160618 0.1503932 -0.9883901
vn -0.3870223 0.1377344 -0.9117253
vn 0.005245074 0.1082501 -0.9941099
vn -0.4789156 0.1479276 -0.8653076
vn -0.2948566 0.18593 -0.9372778
vn 0.0820536 0.2314353 -0.9693838
vn 0.03597191 0.1810853 -0.9828094
vn 0.02160618 0.1503932 -0.9883901
vn -0.09704901 0.9952406 0.008807692
vn -0.0982959 0.9951069 0.01000345
vn -0.2464695 0.9687742 0.02700905
vn -0.392815 0.9185483 0.04433174
vn -0.5435185 0.8371462 0.06143145
vn -0.5608916 0.825458 0.06340088
vn -0.5723764 0.8174446 0.06457297
vn -0.5757481 0.8143168 0.07350024
vn -0.6305917 0.7708098 0.09058877
vn -0.6884634 0.7170287 0.1090329
vn -0.838913 0.5274945 0.1340686
vn -0.9231039 0.3457982 0.1682347
vn -0.9685643 0.1670688 0.1843128
vn -0.9671613 0.1396812 0.2123396
vn 0 1 0
vn 0 1 0
vn 0 1 0
vn 0 1 0
vn -0.05715951 -0.08520228 -0.9947228
vn -0.1172869 0.01895777 -0.9929171
vn -0.1179845 -0.03177471 -0.9925069
vn -0.137471 0.06297181 -0.988502
vn -0.1392548 0.07179409 -0.9876506
vn -0.1527096 0.05577308 -0.9866961
vn -0.1822681 0.06429173 -0.9811447
vn -0.1895542 0.07308722 -0.9791463
vn -0.2229712 0.07382675 -0.9720255
vn -0.2437596 0.069038 -0.9673752
vn -0.2338773 0.05788751 -0.9705413
vn -0.2655108 0.01305126 -0.9640195
vn -0.2631492 -0.009575753 -0.9647076
vn -0.3482153 -0.06022895 -0.9354778
vn -0.9896401 0.1078515 0.09476583
vn -0.9896401 0.1078517 0.09476547
vn -0.9896401 0.1078517 0.09476547
vn -0.9896401 0.1078519 0.0947651
vn -0.165455 0.953795 -0.2507984
vn -0.01849417 0.9689549 -0.2465451
vn 0.0235127 0.9974771 0.06698075
vn -0.4041388 0.9146212 0.01183299
vn -0.560508 0.7668325 -0.3127279
vn -0.3718083 0.8997712 0.2284082
vn 0.2142768 0.8527687 0.4763098
vn 0.2313828 0.9269802 0.2952453
vn 0.02839464 0.9970033 0.07196037
vn -0.6485274 0.6946765 -0.3111862
vn -0.6700882 0.7391933 0.06764003
vn -0.5454361 0.8032655 -0.2392992
vn -0.5396242 0.8395148 0.06340881
vn -0.2492086 0.6870235 0.6825641
vn -0.2363313 0.7954056 0.5581017
vn 0.3863041 0.547645 0.7421955
vn 0.3594747 0.7115046 0.6037707
vn -0.05014159 0.9247872 0.3771662
vn 0.2174192 0.9427502 0.2528855
vn 0.7314091 0.629891 0.2613008
vn 0.3692143 0.9173682 0.148716
vn 0.7225425 0.6698772 -0.1708707
vn 0.3016866 0.9517052 -0.05694374
vn 0.2211292 0.787642 -0.5750843
vn 0.04351962 0.9749941 -0.2179279
vn -0.3306374 0.8206726 -0.4660208
vn -0.3929834 0.6771492 -0.6221198
vn 0.3218498 0.6058324 -0.7275849
vn -0.174327 0.9731321 -0.1504127
vn 0.01099635 0.9978939 0.06392911
vn 0.03335474 0.9980209 0.05330749
vn 0.01108517 0.9973707 0.07161602
vn 0.0282104 0.9953377 0.09223317
vn 0.04726378 0.9970619 0.06027992
vn 0.03538468 0.9965988 0.07442261
vn -0.2359539 0.9574644 0.1660952
vn 0.03583014 0.9968134 0.07126949
vn -0.5716099 0.8076838 0.1445994
vn -0.3536363 0.9336736 -0.05652444
vn -0.1957393 0.9783788 -0.06679121
vn 0.03667272 0.9984962 0.04075027
vn 0.03412057 0.998042 0.05241988
vn -0.175032 0.9096475 -0.3767032
vn -0.175032 0.9096475 -0.3767032
vn 0.3218498 0.6058324 -0.7275849
vn 0.3741942 0.8297464 -0.4141251
vn -0.3929834 0.6771492 -0.6221198
vn 0.2096202 0.6386039 -0.7404353
vn -0.3179761 0.5855466 -0.7456718
vn 0.3759658 -0.07380188 0.9236899
vn 0.9334375 -0.05396613 0.3546575
vn 0.6802207 -0.0707423 0.7295858
vn 0.06387246 -0.0684618 0.995607
vn 0.06387222 -0.0684599 0.9956072
vn 0.9736063 -0.04652473 0.2234416
vn 0.9859287 -0.02096787 -0.1658462
vn 0.9033531 -0.0007404754 -0.4288971
vn 0.7644333 0.01814849 -0.6444473
vn 0.7644344 0.01815638 -0.6444458
vn -0.9875994 0.04275113 -0.1510618
vn -0.9875836 0.04282345 -0.1511448
vn -0.9126402 0.05663536 -0.4048213
vn -0.8989506 0.05814473 -0.434174
vn -0.6199604 0.07223405 -0.781301
vn -0.6199602 0.07223364 -0.7813013
vn -0.2493629 0.07249697 -0.9656926
vn -0.2493631 0.07249631 -0.9656926
vn -0.9724181 0.01696043 0.2326275
vn -0.924049 0.005019141 0.3822412
vn -0.8546304 -0.006855716 0.5191915
vn -0.8546309 -0.006849391 0.5191908
vn -0.3326633 0.7225585 0.6060069
vn 0.8391949 0.4363258 0.3246103
vn 0.8687664 0.4496856 -0.2074319
vn 0.7759721 0.4205799 0.4700848
vn 0.9213457 0.3713863 -0.1148668
vn 0.5416513 0.4989077 -0.676539
vn 0.4214773 0.6048654 -0.6756439
vn 0.541326 0.7638174 0.3514956
vn 0.212285 0.7781152 0.5911614
vn 0.2937458 0.4698455 0.8324413
vn -0.1384329 0.6808792 0.7191939
vn 0.1728779 0.3993039 0.900372
vn -0.6207209 0.1020009 -0.7773682
vn -0.6641492 0.1185411 -0.7381421
vn -0.6189806 0.09027722 -0.7802005
vn -0.6736202 0.1201137 -0.729252
vn -0.7373836 0.1563311 -0.6571346
vn -0.7227203 0.1558852 -0.6733316
vn -0.6767485 0.1326575 -0.724164
vn -0.7098802 0.1604735 -0.6857976
vn -0.6000896 0.07890571 -0.7960316
vn 0.0311855 0.9990189 0.03144439
vn -0.06995072 0.9951205 -0.06958448
vn 0.03438913 0.9989626 0.02985148
vn -0.1287233 0.9844281 -0.1197151
vn 0.02880091 0.9989784 0.03482572
vn -0.3473336 0.8798041 -0.3245061
vn -0.4273148 0.8200634 -0.380655
vn -0.7575356 0.6351064 -0.1509295
vn -0.5426835 0.6862331 -0.4843333
vn -0.6880179 0.6520119 -0.3186093
vn -0.5136641 0.69896 -0.4975983
vn -0.5385727 0.6753969 -0.5037644
vn -0.599741 0.5623646 -0.5692598
vn -0.6785582 0.3827468 -0.626948
vn -0.7202556 0.2048046 -0.6627873
vn -0.7261997 0.1983214 -0.6582573
vn -0.7732608 0.2209032 0.5943649
vn -0.8058792 0.2856667 0.5186071
vn -0.7732582 0.2208968 0.5943706
vn -0.8205406 0.2802495 0.49817
vn -0.8196833 0.3504259 0.4531236
vn -0.8157588 0.3420405 0.4664181
vn -0.8442878 0.3287769 0.4231831
vn -0.8676236 0.3204622 0.3801751
vn -0.8018784 0.5958779 -0.04382239
vn -0.8365507 0.3448768 0.4257264
vn -0.8277872 0.4873028 0.2780368
vn -0.783404 0.3692153 0.4999582
vn -0.7328704 0.3841215 0.5615618
vn -0.7656837 0.3254865 0.5547856
vn -0.8077201 0.2537424 0.5321684
vn -0.8356342 0.185678 0.5169519
vn -0.8486438 0.1749312 0.4992023
vn 0 1 0
vn 0 1 0
vn 0 1 0
vn 0 1 0
vn -0.6237823 0.726833 0.2874182
vn -0.5232347 0.8243142 0.2161748
vn -0.6194368 0.7346621 0.2767121
vn -0.5536104 0.8051754 0.212622
vn -0.6911363 0.6480839 0.3198716
vn -0.6858044 0.6541393 0.3190205
vn -0.6939842 0.6447833 0.3203754
vn -0.6149448 0.7428615 0.2645747
vn -0.540318 0.8199528 0.1890345
vn -0.4953537 0.853568 0.1613885
vn -0.4033128 0.2196108 -0.8883187
vn -0.5438809 0.2425165 -0.8033551
vn -0.5025841 0.212053 -0.8381187
vn -0.3205374 0.2707228 -0.9077251
vn -0.5485739 0.2658502 -0.7927107
vn -0.544938 0.2605055 -0.7969815
vn -0.5389297 0.2393159 -0.8076402
vn -0.2763159 0.3106139 -0.909488
vn -0.2878443 0.3178837 -0.9033801
vn -0.295866 0.3123799 -0.9027082
vn 0.5785033 0.7724558 -0.2620038
vn 0.6181784 0.7331263 -0.283516
vn 0.6288587 0.7212731 -0.2903475
vn 0.5851102 0.7669118 -0.2636141
vn 0.6125004 0.7396347 -0.2788973
vn 0.6568437 0.6901181 -0.3037983
vn 0.653598 0.6935959 -0.3028769
vn 0.5972962 0.7564973 -0.2663628
vn 0.6528587 0.6939411 -0.3036796
vn -0.9313813 -0.2991983 0.2073864
vn -0.8682379 -0.4011108 0.2920158
vn -0.8682379 -0.4011108 0.2920158
vn -0.7863965 -0.4943851 0.3703564
vn -0.4360652 0.1625536 -0.885112
vn -0.4342967 0.1552266 -0.8872943
vn -0.4354203 0.1596031 -0.8859661
vn -0.4323605 0.1501154 -0.8891174
vn -0.4365342 0.163976 -0.8846184
vn -0.4371581 0.1631781 -0.8844579
vn 0.009978199 0.9999411 -0.004273896
vn 0.01031883 0.9999381 -0.004145666
vn 0.01031883 0.9999381 -0.004145666
vn 0.01065946 0.9999352 -0.004017436
vn -0.8794702 0.2909996 0.3766317
vn -0.8797703 0.2899247 0.3767599
vn -0.8794847 0.290409 0.3770533
vn -0.8797705 0.2899242 0.3767596
vn -0.8791989 0.2908934 0.3773465
vn -0.8792266 0.2897125 0.3781894
vn 0.9007481 -0.2710114 -0.3394197
vn 0.894034 -0.2989673 -0.3336493
vn 0.9004857 -0.2750422 -0.3368637
vn 0.8887615 -0.2996766 -0.3468385
vn 0.8827971 -0.3099118 -0.3530213
vn 0.8843462 -0.2729376 -0.3787305
vn 0.002171696 0.9999974 -0.0007504812
vn 0.00183506 0.9999982 -0.0004564682
vn 0.002044076 0.9999977 -0.0005513905
vn 0.001887819 0.9999982 -0.0003763616
vn 0.002366393 0.9999969 -0.0008574344
vn 0.00227068 0.999997 -0.0009736337
vn -0.3671026 0.3077248 -0.8778047
vn -0.3449086 0.3075389 -0.8868246
vn -0.3449005 0.3075701 -0.8868169
vn -0.3891075 0.3077023 -0.8682826
vn -0.4108678 0.3075346 -0.85826
vn -0.4108773 0.3075026 -0.8582668
vn -0.01611394 0.9993768 -0.03140642
vn -0.01280417 0.9994597 -0.03027285
vn -0.01876524 0.9987828 -0.04561482
vn 0.01031345 0.9999378 0.00425052
vn -0.0002493151 0.9999998 0.0006146413
vn 0.0003928531 0.9999996 0.0008447514
vn -0.7416028 0.2401179 -0.6263933
vn -0.1944467 0.06261986 -0.9789122
vn -0.7094353 0.2493446 -0.6591881
vn -0.9539534 0.2936306 0.06126862
vn -0.04665226 0.0005259385 -0.998911
vn -0.9536543 0.2796946 0.1109706
vn -0.8878838 0.2645787 0.376378
vn -0.883253 0.2731894 0.3810928
vn 0.5798743 -0.1755476 -0.7955683
vn 0.7161792 -0.2153255 -0.6638693
vn 0.8627974 -0.2589349 -0.4342043
vn 0.8967943 -0.2781394 -0.3440909
vn 0.8918794 -0.2874874 -0.3491449
vn -0.04665226 0.0005259385 -0.998911
vn 0.7161792 -0.2153255 -0.6638693
vn 0.07060941 -0.01219766 -0.9974294
vn 0.4043801 -0.2196052 0.8878345
vn 0.4072935 -0.2268349 0.8846795
vn 0.4072935 -0.2268349 0.8846795
vn 0.4101781 -0.2340486 0.8814619
vn -0.0156319 0.9993725 -0.03178268
vn -0.01208408 0.99946 -0.03055626
vn -0.01764951 0.9987826 -0.04606489
vn 0.01107472 0.9999284 0.004557899
vn -0.0002606393 0.9999998 0.0006532566
vn 0.0004409579 0.9999995 0.0008732231
vn -0.7349037 0.2347205 -0.6362569
vn -0.1777169 0.07658257 -0.9810972
vn -0.70368 0.2476688 -0.6659538
vn -0.9535967 0.2930009 0.06930971
vn -0.03159852 0.02488553 -0.9991907
vn -0.9527947 0.2792629 0.1191411
vn -0.8822605 0.2618691 0.3912044
vn -0.8779171 0.2698494 0.3955287
vn 0.7478663 -0.1306251 -0.650871
vn 0.0838993 0.0286635 -0.9960619
vn 0.5834661 -0.09161209 -0.8069538
vn 0.7478663 -0.1306251 -0.650871
vn 0.9027812 -0.1817217 -0.3898248
vn 0.9415221 -0.2093435 -0.2640291
vn 0.9321133 -0.2327087 -0.2775095
vn 0.3984511 -0.1648529 0.9022529
vn 0.4180106 -0.2035889 0.8853353
vn 0.4180106 -0.2035889 0.8853353
vn 0.4366634 -0.2418833 0.8664973
g MoP_Farm_Silo_mesh_0
f 3/3/3 2/2/2 1/1/1
f 4/4/4 2/2/2 3/3/3
f 3/3/3 1/1/1 5/5/5
f 5/5/5 1/1/1 6/6/6
f 4/4/4 7/7/7 2/2/2
f 8/8/8 7/7/7 4/4/4
f 8/8/8 9/9/9 7/7/7
f 10/10/10 9/9/9 8/8/8
f 10/10/10 11/11/11 9/9/9
f 12/12/12 11/11/11 10/10/10
f 12/12/12 13/13/13 11/11/11
f 14/14/14 13/13/13 12/12/12
f 15/15/15 4/4/4 3/3/3
f 16/16/16 4/4/4 15/15/15
f 16/16/16 8/8/8 4/4/4
f 17/17/17 3/3/3 5/5/5
f 15/15/15 3/3/3 17/17/17
f 17/17/17 5/5/5 18/18/18
f 18/18/18 5/5/5 19/19/19
f 5/5/5 6/6/6 19/19/19
f 19/19/19 6/6/6 20/20/20
f 19/19/19 20/20/20 21/21/21
f 21/21/21 20/20/20 22/22/22
f 21/21/21 22/22/22 23/23/23
f 23/23/23 22/22/22 24/24/24
f 23/23/23 24/24/24 25/25/25
f 25/25/25 24/24/24 26/26/26
f 27/27/27 19/19/19 21/21/21
f 18/18/18 19/19/19 27/27/27
f 28/28/28 21/21/21 23/23/23
f 27/27/27 21/21/21 28/28/28
f 29/29/29 23/23/23 25/25/25
f 28/28/28 23/23/23 29/29/29
f 29/29/29 25/25/25 30/30/30
f 30/30/30 25/25/25 31/31/31
f 25/25/25 26/26/26 31/31/31
f 31/31/31 26/26/26 32/32/32
f 31/31/31 32/32/32 33/33/33
f 33/33/33 32/32/32 34/34/34
f 33/33/33 34/34/34 35/35/35
f 35/35/35 34/34/34 36/36/36
f 35/35/35 36/36/36 37/37/37
f 37/37/37 36/36/36 38/38/38
f 37/37/37 38/38/38 39/39/39
f 39/39/39 38/38/38 40/40/40
f 41/41/41 31/31/31 33/33/33
f 30/30/30 31/31/31 41/41/41
f 42/42/42 33/33/33 35/35/35
f 41/41/41 33/33/33 42/42/42
f 43/43/43 35/35/35 37/37/37
f 42/42/42 35/35/35 43/43/43
f 44/44/44 37/37/37 39/39/39
f 43/43/43 37/37/37 44/44/44
f 44/44/44 39/39/39 45/45/45
f 45/45/45 39/39/39 46/46/46
f 39/39/39 40/40/40 46/46/46
f 46/46/46 40/40/40 47/47/47
f 46/46/46 47/47/47 48/48/48
f 48/48/48 47/47/47 49/49/49
f 48/48/48 49/49/49 50/50/50
f 50/50/50 49/49/49 51/51/51
f 50/50/50 51/51/51 52/52/52
f 52/52/52 51/51/51 53/53/53
f 52/52/52 53/53/53 14/14/14
f 14/14/14 53/53/53 13/13/13
f 54/54/54 46/46/46 48/48/48
f 45/45/45 46/46/46 54/54/54
f 55/55/55 48/48/48 50/50/50
f 54/54/54 48/48/48 55/55/55
f 56/56/56 50/50/50 52/52/52
f 55/55/55 50/50/50 56/56/56
f 57/57/57 52/52/52 14/14/14
f 56/56/56 52/52/52 57/57/57
f 57/57/57 14/14/14 58/58/58
f 58/58/58 14/14/14 12/12/12
f 58/58/58 12/12/12 59/59/59
f 59/59/59 12/12/12 10/10/10
f 59/59/59 10/10/10 60/60/60
f 60/60/60 10/10/10 8/8/8
f 60/60/60 8/8/8 16/16/16
f 63/63/63 62/62/62 61/61/61
f 64/64/64 62/62/62 63/63/63
f 63/63/63 61/61/61 65/65/65
f 65/65/65 61/61/61 66/66/66
f 65/65/65 66/66/66 67/67/67
f 67/67/67 66/66/66 68/68/68
f 69/69/69 65/65/65 67/67/67
f 70/70/70 65/65/65 69/69/69
f 69/69/69 67/67/67 71/71/71
f 71/71/71 67/67/67 72/72/72
f 67/67/67 68/68/68 72/72/72
f 71/71/71 72/72/72 73/73/73
f 73/73/73 72/72/72 74/74/74
f 73/73/73 74/74/74 75/75/75
f 75/75/75 74/74/74 76/76/76
f 72/72/72 68/68/68 77/77/77
f 72/72/72 77/77/77 74/74/74
f 74/74/74 77/77/77 78/78/78
f 74/74/74 78/78/78 76/76/76
f 76/76/76 78/78/78 79/79/79
f 76/76/76 79/79/79 80/80/80
f 80/80/80 79/79/79 81/81/81
f 80/80/80 81/81/81 82/82/82
f 82/82/82 81/81/81 83/83/83
f 82/82/82 83/83/83 84/84/84
f 84/84/84 83/83/83 85/85/85
f 88/88/88 87/87/87 86/86/86
f 89/89/89 87/87/87 88/88/88
f 88/88/88 86/86/86 90/90/90
f 90/90/90 86/86/86 91/91/91
f 90/90/90 91/91/91 92/92/92
f 92/92/92 91/91/91 93/93/93
f 92/92/92 93/93/93 94/94/94
f 94/94/94 93/93/93 95/95/95
f 94/94/94 95/95/95 96/96/96
f 96/96/96 95/95/95 97/97/97
f 96/96/96 97/97/97 98/98/98
f 98/98/98 97/97/97 99/99/99
f 98/98/98 99/99/99 100/100/100
f 100/100/100 99/99/99 101/101/101
f 100/100/100 101/101/101 102/102/102
f 102/102/102 101/101/101 103/103/103
f 102/102/102 103/103/103 104/104/104
f 104/104/104 103/103/103 105/105/105
f 104/104/104 105/105/105 106/106/106
f 106/106/106 105/105/105 107/107/107
f 106/106/106 107/107/107 108/108/108
f 108/108/108 107/107/107 109/109/109
f 108/108/108 109/109/109 110/110/110
f 110/110/110 109/109/109 111/111/111
f 110/110/110 111/111/111 112/112/112
f 112/112/112 111/111/111 113/113/113
f 112/112/112 113/113/113 114/114/114
f 114/114/114 113/113/113 115/115/115
f 101/101/101 116/116/116 103/103/103
f 101/101/101 117/117/117 116/116/116
f 99/99/99 117/117/117 101/101/101
f 105/105/105 118/118/118 107/107/107
f 105/105/105 119/119/119 118/118/118
f 103/103/103 116/116/116 119/119/119
f 103/103/103 119/119/119 105/105/105
f 109/109/109 120/120/120 111/111/111
f 109/109/109 121/121/121 120/120/120
f 107/107/107 118/118/118 121/121/121
f 107/107/107 121/121/121 109/109/109
f 99/99/99 122/122/122 117/117/117
f 97/97/97 122/122/122 99/99/99
f 97/97/97 123/123/123 122/122/122
f 95/95/95 123/123/123 97/97/97
f 95/95/95 124/124/124 123/123/123
f 93/93/93 124/124/124 95/95/95
f 93/93/93 125/125/125 124/124/124
f 91/91/91 125/125/125 93/93/93
f 111/111/111 120/120/120 126/126/126
f 128/128/128 115/115/115 127/127/127
f 114/114/114 115/115/115 128/128/128
f 89/89/89 129/129/129 87/87/87
f 130/130/130 129/129/129 89/89/89
f 64/64/64 131/131/131 62/62/62
f 132/132/132 131/131/131 64/64/64
f 135/135/135 134/134/134 133/133/133
f 136/136/136 134/134/134 135/135/135
f 136/136/136 137/137/137 134/134/134
f 138/138/138 137/137/137 136/136/136
f 138/138/138 139/139/139 137/137/137
f 135/135/135 133/133/133 140/140/140
f 140/140/140 133/133/133 141/141/141
f 140/140/140 141/141/141 142/142/142
f 142/142/142 141/141/141 143/143/143
f 142/142/142 143/143/143 144/144/144
f 144/144/144 143/143/143 145/145/145
f 144/144/144 145/145/145 146/146/146
f 146/146/146 145/145/145 147/147/147
f 146/146/146 147/147/147 148/148/148
f 148/148/148 147/147/147 149/149/149
f 148/148/148 149/149/149 150/150/150
f 150/150/150 149/149/149 151/151/151
f 150/150/150 151/151/151 152/152/152
f 152/152/152 151/151/151 153/153/153
f 152/152/152 153/153/153 154/154/154
f 155/155/155 143/143/143 141/141/141
f 155/155/155 141/141/141 156/156/156
f 156/156/156 141/141/141 133/133/133
f 156/156/156 133/133/133 157/157/157
f 157/157/157 133/133/133 134/134/134
f 157/157/157 134/134/134 158/158/158
f 158/158/158 134/134/134 137/137/137
f 158/158/158 137/137/137 159/159/159
f 159/159/159 137/137/137 139/139/139
f 159/159/159 139/139/139 160/160/160
f 160/160/160 139/139/139 161/161/161
f 162/162/162 161/161/161 139/139/139
f 162/162/162 139/139/139 163/163/163
f 164/164/164 161/161/161 162/162/162
f 164/164/164 165/165/165 161/161/161
f 166/166/166 161/161/161 165/165/165
f 160/160/160 161/161/161 166/166/166
f 166/166/166 165/165/165 167/167/167
f 167/167/167 165/165/165 168/168/168
f 169/169/169 168/168/168 165/165/165
f 167/167/167 168/168/168 170/170/170
f 170/170/170 168/168/168 171/171/171
f 172/172/172 171/171/171 168/168/168
f 173/173/173 171/171/171 172/172/172
f 173/173/173 174/174/174 171/171/171
f 175/175/175 174/174/174 173/173/173
f 175/175/175 176/176/176 174/174/174
f 172/172/172 168/168/168 177/177/177
f 178/178/178 171/171/171 174/174/174
f 170/170/170 171/171/171 178/178/178
f 179/179/179 174/174/174 176/176/176
f 178/178/178 174/174/174 179/179/179
f 179/179/179 176/176/176 180/180/180
f 180/180/180 176/176/176 181/181/181
f 182/182/182 181/181/181 176/176/176
f 183/183/183 181/181/181 182/182/182
f 183/183/183 184/184/184 181/181/181
f 185/185/185 184/184/184 183/183/183
f 185/185/185 186/186/186 184/184/184
f 187/187/187 186/186/186 185/185/185
f 187/187/187 153/153/153 186/186/186
f 182/182/182 176/176/176 188/188/188
f 180/180/180 181/181/181 189/189/189
f 189/189/189 181/181/181 184/184/184
f 190/190/190 186/186/186 153/153/153
f 190/190/190 153/153/153 191/191/191
f 191/191/191 153/153/153 151/151/151
f 191/191/191 151/151/151 192/192/192
f 192/192/192 151/151/151 149/149/149
f 192/192/192 149/149/149 193/193/193
f 193/193/193 149/149/149 147/147/147
f 193/193/193 147/147/147 194/194/194
f 194/194/194 147/147/147 145/145/145
f 194/194/194 145/145/145 195/195/195
f 195/195/195 145/145/145 143/143/143
f 195/195/195 143/143/143 155/155/155
f 196/196/196 186/186/186 190/190/190
f 196/196/196 184/184/184 186/186/186
f 189/189/189 184/184/184 196/196/196
f 199/199/199 198/198/198 197/197/197
f 200/200/200 136/136/136 135/135/135
f 201/201/201 136/136/136 200/200/200
f 201/201/201 202/202/202 136/136/136
f 203/203/203 202/202/202 201/201/201
f 203/203/203 204/204/204 202/202/202
f 205/205/205 204/204/204 203/203/203
f 200/200/200 135/135/135 206/206/206
f 206/206/206 135/135/135 140/140/140
f 206/206/206 140/140/140 207/207/207
f 207/207/207 140/140/140 142/142/142
f 207/207/207 142/142/142 208/208/208
f 208/208/208 142/142/142 144/144/144
f 208/208/208 144/144/144 209/209/209
f 209/209/209 144/144/144 146/146/146
f 209/209/209 146/146/146 210/210/210
f 210/210/210 146/146/146 148/148/148
f 210/210/210 148/148/148 211/211/211
f 211/211/211 148/148/148 150/150/150
f 211/211/211 150/150/150 212/212/212
f 212/212/212 150/150/150 152/152/152
f 212/212/212 152/152/152 213/213/213
f 213/213/213 152/152/152 214/214/214
f 213/213/213 214/214/214 215/215/215
f 215/215/215 214/214/214 216/216/216
f 215/215/215 216/216/216 217/217/217
f 217/217/217 216/216/216 218/218/218
f 221/221/221 220/220/220 219/219/219
f 222/222/222 220/220/220 221/221/221
f 225/225/225 224/224/224 223/223/223
f 226/226/226 224/224/224 225/225/225
f 229/229/229 228/228/228 227/227/227
f 230/230/230 228/228/228 229/229/229
f 230/230/230 231/231/231 228/228/228
f 232/232/232 231/231/231 230/230/230
f 232/232/232 233/233/233 231/231/231
f 234/234/234 233/233/233 232/232/232
f 234/234/234 235/235/235 233/233/233
f 236/236/236 235/235/235 234/234/234
f 236/236/236 237/237/237 235/235/235
f 238/238/238 237/237/237 236/236/236
f 241/241/241 240/240/240 239/239/239
f 242/242/242 240/240/240 241/241/241
f 241/241/241 243/243/243 242/242/242
f 242/242/242 243/243/243 244/244/244
f 243/243/243 245/245/245 244/244/244
f 244/244/244 245/245/245 246/246/246
f 245/245/245 247/247/247 246/246/246
f 246/246/246 247/247/247 248/248/248
f 247/247/247 249/249/249 248/248/248
f 248/248/248 249/249/249 250/250/250
f 249/249/249 251/251/251 250/250/250
f 250/250/250 251/251/251 252/252/252
f 255/255/255 254/254/254 253/253/253
f 256/256/256 254/254/254 255/255/255
f 256/256/256 257/257/257 254/254/254
f 258/258/258 257/257/257 256/256/256
f 261/261/261 260/260/260 259/259/259
f 262/262/262 260/260/260 261/261/261
f 262/262/262 263/263/263 260/260/260
f 264/264/264 263/263/263 262/262/262
f 264/264/264 265/265/265 263/263/263
f 266/266/266 265/265/265 264/264/264
f 261/261/261 259/259/259 267/267/267
f 267/267/267 259/259/259 268/268/268
f 267/267/267 268/268/268 269/269/269
f 269/269/269 268/268/268 270/270/270
f 271/271/271 267/267/267 269/269/269
f 266/266/266 272/272/272 265/265/265
f 273/273/273 272/272/272 266/266/266
f 276/276/276 275/275/275 274/274/274
f 277/277/277 275/275/275 276/276/276
f 280/280/280 279/279/279 278/278/278
f 281/281/281 279/279/279 280/280/280
f 279/279/279 282/282/282 278/278/278
f 278/278/278 282/282/282 283/283/283
f 282/282/282 284/284/284 283/283/283
f 283/283/283 284/284/284 285/285/285
f 284/284/284 286/286/286 285/285/285
f 285/285/285 286/286/286 287/287/287
f 286/286/286 288/288/288 287/287/287
f 287/287/287 288/288/288 289/289/289
f 288/288/288 290/290/290 289/289/289
f 291/291/291 290/290/290 288/288/288
f 291/291/291 292/292/292 290/290/290
f 281/281/281 280/280/280 293/293/293
f 294/294/294 293/293/293 280/280/280
f 294/294/294 295/295/295 293/293/293
f 296/296/296 294/294/294 280/280/280
f 299/299/299 298/298/298 297/297/297
f 297/297/297 298/298/298 300/300/300
f 303/303/303 302/302/302 301/301/301
f 304/304/304 303/303/303 301/301/301
f 305/305/305 303/303/303 304/304/304
f 308/308/308 307/307/307 306/306/306
f 309/309/309 307/307/307 308/308/308
f 309/309/309 310/310/310 307/307/307
f 311/311/311 310/310/310 309/309/309
f 311/311/311 312/312/312 310/310/310
f 313/313/313 312/312/312 311/311/311
f 313/313/313 314/314/314 312/312/312
f 315/315/315 314/314/314 313/313/313
f 315/315/315 316/316/316 314/314/314
f 317/317/317 316/316/316 315/315/315
f 317/317/317 318/318/318 316/316/316
f 319/319/319 318/318/318 317/317/317
f 319/319/319 320/320/320 318/318/318
f 321/321/321 320/320/320 319/319/319
f 321/321/321 322/322/322 320/320/320
f 323/323/323 322/322/322 321/321/321
f 323/323/323 324/324/324 322/322/322
f 325/325/325 324/324/324 323/323/323
f 328/328/328 327/327/327 326/326/326
f 329/329/329 327/327/327 328/328/328
f 327/327/327 330/330/330 326/326/326
f 326/326/326 330/330/330 331/331/331
f 330/330/330 332/332/332 331/331/331
f 331/331/331 332/332/332 333/333/333
f 332/332/332 334/334/334 333/333/333
f 333/333/333 334/334/334 335/335/335
f 334/334/334 336/336/336 335/335/335
f 335/335/335 336/336/336 337/337/337
f 336/336/336 338/338/338 337/337/337
f 339/339/339 338/338/338 336/336/336
f 339/339/339 340/340/340 338/338/338
f 341/341/341 340/340/340 339/339/339
f 329/329/329 328/328/328 342/342/342
f 343/343/343 342/342/342 328/328/328
f 344/344/344 343/343/343 328/328/328
f 343/343/343 345/345/345 342/342/342
f 348/348/348 347/347/347 346/346/346
f 349/349/349 347/347/347 348/348/348
f 352/352/352 351/351/351 350/350/350
f 353/353/353 351/351/351 352/352/352
f 353/353/353 354/354/354 351/351/351
f 355/355/355 354/354/354 353/353/353
f 355/355/355 356/356/356 354/354/354
f 357/357/357 356/356/356 355/355/355
f 357/357/357 358/358/358 356/356/356
f 359/359/359 358/358/358 357/357/357
f 359/359/359 360/360/360 358/358/358
f 361/361/361 360/360/360 359/359/359
f 361/361/361 362/362/362 360/360/360
f 363/363/363 362/362/362 361/361/361
f 363/363/363 364/364/364 362/362/362
f 365/365/365 364/364/364 363/363/363
f 365/365/365 366/366/366 364/364/364
f 367/367/367 366/366/366 365/365/365
f 370/370/370 369/369/369 368/368/368
f 371/371/371 369/369/369 370/370/370
f 370/370/370 372/372/372 371/371/371
f 371/371/371 372/372/372 373/373/373
f 372/372/372 374/374/374 373/373/373
f 373/373/373 374/374/374 375/375/375
f 374/374/374 376/376/376 375/375/375
f 375/375/375 376/376/376 377/377/377
f 376/376/376 378/378/378 377/377/377
f 377/377/377 378/378/378 379/379/379
f 378/378/378 380/380/380 379/379/379
f 379/379/379 380/380/380 381/381/381
f 384/384/384 383/383/383 382/382/382
f 382/382/382 385/385/385 384/384/384
f 386/386/386 383/383/383 384/384/384
f 386/386/386 387/387/387 383/383/383
f 384/384/384 385/385/385 388/388/388
f 384/384/384 388/388/388 389/389/389
f 390/390/390 387/387/387 386/386/386
f 390/390/390 391/391/391 387/387/387
f 392/392/392 391/391/391 390/390/390
f 392/392/392 393/393/393 391/391/391
f 394/394/394 393/393/393 392/392/392
f 394/394/394 395/395/395 393/393/393
f 396/396/396 395/395/395 394/394/394
f 399/399/399 398/398/398 397/397/397
f 400/400/400 398/398/398 399/399/399
f 403/403/403 402/402/402 401/401/401
f 404/404/404 402/402/402 403/403/403
f 403/403/403 405/405/405 404/404/404
f 404/404/404 405/405/405 406/406/406
f 405/405/405 407/407/407 406/406/406
f 406/406/406 407/407/407 408/408/408
f 407/407/407 409/409/409 408/408/408
f 408/408/408 409/409/409 410/410/410
f 409/409/409 411/411/411 410/410/410
f 410/410/410 411/411/411 412/412/412
f 411/411/411 413/413/413 412/412/412
f 412/412/412 413/413/413 414/414/414
f 417/417/417 416/416/416 415/415/415
f 418/418/418 416/416/416 417/417/417
f 417/417/417 415/415/415 419/419/419
f 419/419/419 415/415/415 420/420/420
f 419/419/419 420/420/420 421/421/421
f 421/421/421 420/420/420 422/422/422
f 421/421/421 422/422/422 423/423/423
f 423/423/423 422/422/422 424/424/424
f 418/418/418 425/425/425 416/416/416
f 426/426/426 425/425/425 418/418/418
f 424/424/424 427/427/427 423/423/423
f 430/430/430 429/429/429 428/428/428
f 428/428/428 429/429/429 431/431/431
f 434/434/434 433/433/433 432/432/432
f 435/435/435 434/434/434 432/432/432
f 437/437/437 434/434/434 436/436/436
f 440/440/440 439/439/439 438/438/438
f 441/441/441 439/439/439 440/440/440
f 439/439/439 442/442/442 438/438/438
f 445/445/445 444/444/444 443/443/443
f 448/448/448 447/447/447 446/446/446
f 449/449/449 447/447/447 448/448/448
f 448/448/448 450/450/450 449/449/449
f 449/449/449 450/450/450 451/451/451
f 450/450/450 452/452/452 451/451/451
f 451/451/451 452/452/452 453/453/453
f 452/452/452 454/454/454 453/453/453
f 453/453/453 454/454/454 455/455/455
f 454/454/454 456/456/456 455/455/455
f 455/455/455 456/456/456 457/457/457
f 456/456/456 458/458/458 457/457/457
f 457/457/457 458/458/458 459/459/459
f 462/462/462 461/461/461 460/460/460
f 463/463/463 461/461/461 462/462/462
f 466/466/466 465/465/465 464/464/464
f 467/467/467 465/465/465 466/466/466
f 467/467/467 468/468/468 465/465/465
f 469/469/469 468/468/468 467/467/467
f 469/469/469 470/470/470 468/468/468
f 471/471/471 470/470/470 469/469/469
f 471/471/471 472/472/472 470/470/470
f 473/473/473 472/472/472 471/471/471
f 473/473/473 474/474/474 472/472/472
f 475/475/475 474/474/474 473/473/473
f 475/475/475 476/476/476 474/474/474
f 477/477/477 476/476/476 475/475/475
f 480/480/480 479/479/479 478/478/478
f 481/481/481 479/479/479 480/480/480
f 484/484/484 483/483/483 482/482/482
f 484/484/484 482/482/482 485/485/485
f 485/485/485 482/482/482 486/486/486
f 484/484/484 485/485/485 487/487/487
f 484/484/484 487/487/487 488/488/488
f 484/484/484 488/488/488 489/489/489
f 484/484/484 489/489/489 490/490/490
f 484/484/484 490/490/490 483/483/483
f 486/486/486 491/491/491 485/485/485
f 485/485/485 491/491/491 492/492/492
f 485/485/485 492/492/492 487/487/487
f 491/491/491 493/493/493 492/492/492
f 492/492/492 493/493/493 494/494/494
f 492/492/492 494/494/494 495/495/495
f 495/495/495 494/494/494 496/496/496
f 495/495/495 496/496/496 497/497/497
f 497/497/497 496/496/496 498/498/498
f 496/496/496 499/499/499 498/498/498
f 498/498/498 499/499/499 500/500/500
f 498/498/498 500/500/500 501/501/501
f 501/501/501 500/500/500 502/502/502
f 501/501/501 502/502/502 503/503/503
f 503/503/503 502/502/502 504/504/504
f 503/503/503 504/504/504 505/505/505
f 505/505/505 504/504/504 506/506/506
f 505/505/505 506/506/506 507/507/507
f 508/508/508 505/505/505 507/507/507
f 509/509/509 505/505/505 508/508/508
f 509/509/509 503/503/503 505/505/505
f 507/507/507 506/506/506 510/510/510
f 506/506/506 511/511/511 510/510/510
f 510/510/510 511/511/511 512/512/512
f 506/506/506 513/513/513 511/511/511
f 504/504/504 513/513/513 506/506/506
f 502/502/502 514/514/514 504/504/504
f 504/504/504 514/514/514 513/513/513
f 500/500/500 515/515/515 502/502/502
f 502/502/502 515/515/515 514/514/514
f 500/500/500 516/516/516 515/515/515
f 499/499/499 516/516/516 500/500/500
f 499/499/499 517/517/517 516/516/516
f 516/516/516 517/517/517 518/518/518
f 499/499/499 496/496/496 517/517/517
f 517/517/517 496/496/496 519/519/519
f 494/494/494 519/519/519 496/496/496
f 519/519/519 494/494/494 520/520/520
f 519/519/519 520/520/520 517/517/517
f 494/494/494 493/493/493 520/520/520
f 521/521/521 520/520/520 493/493/493
f 521/521/521 522/522/522 520/520/520
f 521/521/521 512/512/512 522/522/522
f 520/520/520 522/522/522 523/523/523
f 517/517/517 523/523/523 518/518/518
f 520/520/520 523/523/523 517/517/517
f 493/493/493 510/510/510 521/521/521
f 507/507/507 510/510/510 493/493/493
f 491/491/491 507/507/507 493/493/493
f 508/508/508 507/507/507 491/491/491
f 486/486/486 508/508/508 491/491/491
f 524/524/524 508/508/508 486/486/486
f 510/510/510 512/512/512 521/521/521
f 527/527/527 526/526/526 525/525/525
f 530/530/530 529/529/529 528/528/528
f 533/533/533 532/532/532 531/531/531
f 533/533/533 531/531/531 534/534/534
f 534/534/534 531/531/531 535/535/535
f 536/536/536 532/532/532 533/533/533
f 536/536/536 537/537/537 532/532/532
f 538/538/538 537/537/537 536/536/536
f 538/538/538 539/539/539 537/537/537
f 540/540/540 539/539/539 538/538/538
f 543/543/543 542/542/542 541/541/541
f 544/544/544 542/542/542 543/543/543
f 545/545/545 544/544/544 543/543/543
f 546/546/546 544/544/544 545/545/545
f 546/546/546 545/545/545 547/547/547
f 547/547/547 545/545/545 548/548/548
f 542/542/542 549/549/549 541/541/541
f 550/550/550 549/549/549 542/542/542
f 550/550/550 551/551/551 549/549/549
f 552/552/552 551/551/551 550/550/550
f 487/487/487 492/492/492 553/553/553
f 554/554/554 498/498/498 501/501/501
f 497/497/497 498/498/498 554/554/554
f 554/554/554 501/501/501 555/555/555
f 555/555/555 501/501/501 503/503/503
f 555/555/555 503/503/503 509/509/509
f 556/556/556 497/497/497 554/554/554
f 557/557/557 554/554/554 555/555/555
f 556/556/556 554/554/554 557/557/557
f 557/557/557 555/555/555 558/558/558
f 558/558/558 555/555/555 559/559/559
f 561/561/561 497/497/497 560/560/560
f 561/561/561 495/495/495 497/497/497
f 564/564/564 563/563/563 562/562/562
f 567/567/567 566/566/566 565/565/565
f 568/568/568 566/566/566 567/567/567
f 568/568/568 569/569/569 566/566/566
f 570/570/570 569/569/569 568/568/568
f 571/571/571 570/570/570 568/568/568
f 572/572/572 570/570/570 571/571/571
f 571/571/571 568/568/568 573/573/573
f 573/573/573 568/568/568 567/567/567
f 576/576/576 575/575/575 574/574/574
f 575/575/575 577/577/577 574/574/574
f 577/577/577 578/578/578 574/574/574
f 575/575/575 579/579/579 577/577/577
f 577/577/577 579/579/579 580/580/580
f 579/579/579 581/581/581 580/580/580
f 580/580/580 581/581/581 582/582/582
f 581/581/581 583/583/583 582/582/582
f 582/582/582 585/585/585 584/584/584
f 585/585/585 586/586/586 584/584/584
f 584/584/584 586/586/586 587/587/587
f 586/586/586 588/588/588 587/587/587
f 587/587/587 588/588/588 589/589/589
f 592/592/592 591/591/591 590/590/590
f 593/593/593 591/591/591 592/592/592
f 594/594/594 591/591/591 593/593/593
f 594/594/594 595/595/595 591/591/591
f 596/596/596 595/595/595 594/594/594
f 596/596/596 597/597/597 595/595/595
f 599/599/599 598/598/598 596/596/596
f 599/599/599 600/600/600 598/598/598
f 602/602/602 601/601/601 599/599/599
f 602/602/602 603/603/603 601/601/601
f 604/604/604 603/603/603 602/602/602
f 604/604/604 605/605/605 603/603/603
f 606/606/606 605/605/605 604/604/604
f 609/609/609 608/608/608 607/607/607
f 610/610/610 608/608/608 609/609/609
f 613/613/613 612/612/612 611/611/611
f 614/614/614 612/612/612 613/613/613
f 613/613/613 611/611/611 615/615/615
f 615/615/615 611/611/611 616/616/616
f 617/617/617 613/613/613 615/615/615
f 618/618/618 613/613/613 617/617/617
f 618/618/618 614/614/614 613/613/613
f 619/619/619 614/614/614 618/618/618
f 620/620/620 614/614/614 619/619/619
f 623/623/623 622/622/622 621/621/621
f 623/623/623 621/621/621 624/624/624
f 625/625/625 622/622/622 623/623/623
f 625/625/625 626/626/626 622/622/622
f 627/627/627 626/626/626 625/625/625
f 624/624/624 621/621/621 628/628/628
f 624/624/624 628/628/628 629/629/629
f 629/629/629 628/628/628 630/630/630
f 633/633/633 632/632/632 631/631/631
f 631/631/631 632/632/632 634/634/634
f 632/632/632 635/635/635 634/634/634
f 632/632/632 636/636/636 635/635/635
f 637/637/637 636/636/636 632/632/632
f 633/633/633 637/637/637 632/632/632
f 634/634/634 635/635/635 638/638/638
f 639/639/639 637/637/637 633/633/633
f 642/642/642 641/641/641 640/640/640
f 643/643/643 641/641/641 642/642/642
f 646/646/646 645/645/645 644/644/644
f 647/647/647 645/645/645 646/646/646
f 648/648/648 646/646/646 644/644/644
f 649/649/649 646/646/646 648/648/648
f 652/652/652 651/651/651 650/650/650
f 653/653/653 651/651/651 652/652/652
f 656/656/656 655/655/655 654/654/654
f 657/657/657 655/655/655 656/656/656
f 658/658/658 656/656/656 654/654/654
f 659/659/659 656/656/656 658/658/658
f 662/662/662 661/661/661 660/660/660
f 663/663/663 661/661/661 662/662/662
f 663/663/663 664/664/664 661/661/661
f 665/665/665 664/664/664 663/663/663
f 668/668/668 667/667/667 666/666/666
f 669/669/669 667/667/667 668/668/668
f 668/668/668 666/666/666 670/670/670
f 670/670/670 666/666/666 671/671/671
f 674/674/674 673/673/673 672/672/672
f 672/672/672 673/673/673 675/675/675
f 672/672/672 675/675/675 676/676/676
f 676/676/676 675/675/675 677/677/677
f 680/680/680 679/679/679 678/678/678
f 681/681/681 679/679/679 680/680/680
f 679/679/679 682/682/682 678/678/678
f 678/678/678 682/682/682 683/683/683
f 686/686/686 685/685/685 684/684/684
f 686/686/686 684/684/684 687/687/687
f 684/684/684 685/685/685 688/688/688
f 687/687/687 684/684/684 689/689/689
f 690/690/690 687/687/687 689/689/689
f 691/691/691 687/687/687 690/690/690
f 694/694/694 693/693/693 692/692/692
f 694/694/694 695/695/695 693/693/693
f 696/696/696 695/695/695 694/694/694
f 699/699/699 698/698/698 697/697/697
f 702/702/702 701/701/701 700/700/700
f 703/703/703 701/701/701 702/702/702
f 706/706/706 705/705/705 704/704/704
f 707/707/707 705/705/705 706/706/706
f 705/705/705 708/708/708 704/704/704
f 704/704/704 708/708/708 709/709/709
f 712/712/712 711/711/711 710/710/710
f 712/712/712 710/710/710 713/713/713
f 710/710/710 711/711/711 714/714/714
f 713/713/713 710/710/710 715/715/715
f 716/716/716 713/713/713 715/715/715
f 717/717/717 713/713/713 716/716/716
f 719/719/719 718/718/718 714/714/714
f 722/722/722 721/721/721 720/720/720
f 722/722/722 723/723/723 721/721/721
f 724/724/724 723/723/723 722/722/722
f 727/727/727 726/726/726 725/725/725
f 728/728/728 726/726/726 727/727/727
