g MoText_Text_END_D_Cap_24
v 1455.679 37.77439 -631.3698
v 1455.427 37.77439 -633.5757
v 1455.333 37.77439 -631.3843
v 1454.994 37.77439 -631.3843
v 1455.942 37.77439 -631.3374
v 1456.705 37.77439 -633.5212
v 1456.256 37.77439 -631.2708
v 1456.552 37.77439 -631.1753
v 1457.746 37.77439 -633.3843
v 1456.776 37.77439 -631.0781
v 1456.988 37.77439 -630.9623
v 1457.19 37.77439 -630.8279
v 1458.716 37.77439 -633.1639
v 1457.38 37.77439 -630.6751
v 1457.602 37.77439 -630.458
v 1459.491 37.77439 -632.9087
v 1457.807 37.77439 -630.212
v 1460.213 37.77439 -632.5922
v 1457.994 37.77439 -629.937
v 1460.884 37.77439 -632.2144
v 1458.195 37.77439 -629.5687
v 1461.402 37.77439 -631.8528
v 1458.37 37.77439 -629.1583
v 1461.884 37.77439 -631.4487
v 1462.325 37.77439 -631.0073
v 1458.542 37.77439 -628.6264
v 1462.72 37.77439 -630.5335
v 1463.068 37.77439 -630.0275
v 1458.696 37.77439 -627.9485
v 1463.369 37.77439 -629.4894
v 1463.625 37.77439 -628.9189
v 1458.824 37.77439 -626.9962
v 1463.87 37.77439 -628.1919
v 1464.048 37.77439 -627.4185
v 1464.159 37.77439 -626.5986
v 1458.884 37.77439 -625.5835
v 1464.205 37.77439 -625.5835
v 1464.156 37.77439 -624.4983
v 1458.849 37.77439 -624.4515
v 1464.026 37.77439 -623.5605
v 1463.834 37.77439 -622.7549
v 1458.756 37.77439 -623.5248
v 1463.676 37.77439 -622.2691
v 1463.49 37.77439 -621.8042
v 1463.207 37.77439 -621.2326
v 1458.585 37.77439 -622.5977
v 1462.873 37.77439 -620.6865
v 1462.443 37.77439 -620.1095
v 1458.397 37.77439 -621.9335
v 1461.95 37.77439 -619.5639
v 1461.624 37.77439 -619.2516
v 1458.195 37.77439 -621.409
v 1461.275 37.77439 -618.9507
v 1457.994 37.77439 -621.0015
v 1460.767 37.77439 -618.5688
v 1460.232 37.77439 -618.2381
v 1457.847 37.77439 -620.7531
v 1457.73 37.77439 -620.5804
v 1459.67 37.77439 -617.9584
v 1457.525 37.77439 -620.3184
v 1459.245 37.77439 -617.787
v 1458.75 37.77439 -617.6265
v 1457.305 37.77439 -620.0887
v 1457.12 37.77439 -619.9283
v 1458.021 37.77439 -617.4582
v 1456.924 37.77439 -619.7886
v 1456.72 37.77439 -619.6696
v 1456.952 37.77439 -617.3123
v 1456.507 37.77439 -619.5712
v 1456.284 37.77439 -619.4936
v 1456.052 37.77439 -619.4367
v 1456.056 37.77439 -617.251
v 1455.812 37.77439 -619.4005
v 1455.498 37.77439 -619.3843
v 1454.97 37.77439 -617.228
v 1454.994 37.77439 -619.3843
v 1450.001 37.77439 -619.0562
v 1448.83 37.77439 -617.228
v 1448.83 37.77439 -619.0562
v 1450.001 37.77439 -631.7241
v 1448.83 37.77439 -633.5757
v 1448.83 37.77439 -631.7241
vt 0 0
vt 0 0
vt 0 0
vt 0 0
vt 0 0
vt 0 0
vt 0 0
vt 0 0
vt 0 0
vt 0 0
vt 0 0
vt 0 0
vt 0 0
vt 0 0
vt 0 0
vt 0 0
vt 0 0
vt 0 0
vt 0 0
vt 0 0
vt 0 0
vt 0 0
vt 0 0
vt 0 0
vt 0 0
vt 0 0
vt 0 0
vt 0 0
vt 0 0
vt 0 0
vt 0 0
vt 0 0
vt 0 0
vt 0 0
vt 0 0
vt 0 0
vt 0 0
vt 0 0
vt 0 0
vt 0 0
vt 0 0
vt 0 0
vt 0 0
vt 0 0
vt 0 0
vt 0 0
vt 0 0
vt 0 0
vt 0 0
vt 0 0
vt 0 0
vt 0 0
vt 0 0
vt 0 0
vt 0 0
vt 0 0
vt 0 0
vt 0 0
vt 0 0
vt 0 0
vt 0 0
vt 0 0
vt 0 0
vt 0 0
vt 0 0
vt 0 0
vt 0 0
vt 0 0
vt 0 0
vt 0 0
vt 0 0
vt 0 0
vt 0 0
vt 0 0
vt 0 0
vt 0 0
vt 0 0
vt 0 0
vt 0 0
vt 0 0
vt 0 0
vt 0 0
vn 0 -1 0
vn 0 -1 0
vn 0 -1 0
vn 0 -1 0
vn 0 -1 0
vn 0 -1 0
vn 0 -1 0
vn 0 -1 0
vn 0 -1 0
vn 0 -1 0
vn 0 -1 0
vn 0 -1 0
vn 0 -1 0
vn 0 -1 0
vn 0 -1 0
vn 0 -1 0
vn 0 -1 0
vn 0 -1 0
vn 0 -1 0
vn 0 -1 0
vn 0 -1 0
vn 0 -1 0
vn 0 -1 0
vn 0 -1 0
vn 0 -1 0
vn 0 -1 0
vn 0 -1 0
vn 0 -1 0
vn 0 -1 0
vn 0 -1 0
vn 0 -1 0
vn 0 -1 0
vn 0 -1 0
vn 0 -1 0
vn 0 -1 0
vn 0 -1 0
vn 0 -1 0
vn 0 -1 0
vn 0 -1 0
vn 0 -1 0
vn 0 -1 0
vn 0 -1 0
vn 0 -1 0
vn 0 -1 0
vn 0 -1 0
vn 0 -1 0
vn 0 -1 0
vn 0 -1 0
vn 0 -1 0
vn 0 -1 0
vn 0 -1 0
vn 0 -1 0
vn 0 -1 0
vn 0 -1 0
vn 0 -1 0
vn 0 -1 0
vn 0 -1 0
vn 0 -1 0
vn 0 -1 0
vn 0 -1 0
vn 0 -1 0
vn 0 -1 0
vn 0 -1 0
vn 0 -1 0
vn 0 -1 0
vn 0 -1 0
vn 0 -1 0
vn 0 -1 0
vn 0 -1 0
vn 0 -1 0
vn 0 -1 0
vn 0 -1 0
vn 0 -1 0
vn 0 -1 0
vn 0 -1 0
vn 0 -1 0
vn 0 -1 0
vn 0 -1 0
vn 0 -1 0
vn 0 -1 0
vn 0 -1 0
vn 0 -1 0
g MoText_Text_END_D_Cap_24_0
f 3/3/3 2/2/2 1/1/1
f 4/4/4 2/2/2 3/3/3
f 1/1/1 2/2/2 5/5/5
f 2/2/2 6/6/6 5/5/5
f 5/5/5 6/6/6 7/7/7
f 7/7/7 6/6/6 8/8/8
f 6/6/6 9/9/9 8/8/8
f 8/8/8 9/9/9 10/10/10
f 10/10/10 9/9/9 11/11/11
f 11/11/11 9/9/9 12/12/12
f 9/9/9 13/13/13 12/12/12
f 12/12/12 13/13/13 14/14/14
f 14/14/14 13/13/13 15/15/15
f 13/13/13 16/16/16 15/15/15
f 15/15/15 16/16/16 17/17/17
f 16/16/16 18/18/18 17/17/17
f 17/17/17 18/18/18 19/19/19
f 18/18/18 20/20/20 19/19/19
f 19/19/19 20/20/20 21/21/21
f 20/20/20 22/22/22 21/21/21
f 21/21/21 22/22/22 23/23/23
f 22/22/22 24/24/24 23/23/23
f 24/24/24 25/25/25 23/23/23
f 23/23/23 25/25/25 26/26/26
f 25/25/25 27/27/27 26/26/26
f 27/27/27 28/28/28 26/26/26
f 26/26/26 28/28/28 29/29/29
f 28/28/28 30/30/30 29/29/29
f 30/30/30 31/31/31 29/29/29
f 29/29/29 31/31/31 32/32/32
f 31/31/31 33/33/33 32/32/32
f 33/33/33 34/34/34 32/32/32
f 34/34/34 35/35/35 32/32/32
f 32/32/32 35/35/35 36/36/36
f 35/35/35 37/37/37 36/36/36
f 37/37/37 38/38/38 36/36/36
f 36/36/36 38/38/38 39/39/39
f 38/38/38 40/40/40 39/39/39
f 40/40/40 41/41/41 39/39/39
f 39/39/39 41/41/41 42/42/42
f 41/41/41 43/43/43 42/42/42
f 43/43/43 44/44/44 42/42/42
f 44/44/44 45/45/45 42/42/42
f 42/42/42 45/45/45 46/46/46
f 45/45/45 47/47/47 46/46/46
f 47/47/47 48/48/48 46/46/46
f 46/46/46 48/48/48 49/49/49
f 48/48/48 50/50/50 49/49/49
f 50/50/50 51/51/51 49/49/49
f 49/49/49 51/51/51 52/52/52
f 51/51/51 53/53/53 52/52/52
f 52/52/52 53/53/53 54/54/54
f 53/53/53 55/55/55 54/54/54
f 55/55/55 56/56/56 54/54/54
f 54/54/54 56/56/56 57/57/57
f 57/57/57 56/56/56 58/58/58
f 56/56/56 59/59/59 58/58/58
f 58/58/58 59/59/59 60/60/60
f 59/59/59 61/61/61 60/60/60
f 61/61/61 62/62/62 60/60/60
f 60/60/60 62/62/62 63/63/63
f 63/63/63 62/62/62 64/64/64
f 62/62/62 65/65/65 64/64/64
f 64/64/64 65/65/65 66/66/66
f 66/66/66 65/65/65 67/67/67
f 65/65/65 68/68/68 67/67/67
f 67/67/67 68/68/68 69/69/69
f 69/69/69 68/68/68 70/70/70
f 70/70/70 68/68/68 71/71/71
f 68/68/68 72/72/72 71/71/71
f 71/71/71 72/72/72 73/73/73
f 73/73/73 72/72/72 74/74/74
f 72/72/72 75/75/75 74/74/74
f 74/74/74 75/75/75 76/76/76
f 75/75/75 77/77/77 76/76/76
f 78/78/78 77/77/77 75/75/75
f 79/79/79 77/77/77 78/78/78
f 76/76/76 77/77/77 4/4/4
f 77/77/77 80/80/80 4/4/4
f 4/4/4 80/80/80 2/2/2
f 2/2/2 80/80/80 81/81/81
f 80/80/80 82/82/82 81/81/81
