g Mushroom6
v 113.3167 84.00704 -926.3858
v 104.5741 71.89767 -937.227
v 116.7684 73.03857 -929.6815
v 103.6409 83.1436 -932.2814
v 90.73074 73.76968 -937.2307
v 92.6389 84.67243 -932.1899
v 78.01932 78.39267 -929.3827
v 82.50175 88.35917 -925.9312
v 74.45377 92.74998 -916.6191
v 68.10308 84.07616 -917.2456
v 62.90875 90.58656 -900.622
v 70.3173 97.85699 -903.5598
v 71.19756 102.5525 -889.7742
v 63.83341 96.42227 -883.4556
v 77.42136 105.7201 -878.6648
v 71.42373 100.4474 -869.2621
v 87.83725 106.6492 -872.759
v 84.75285 101.5124 -862.1949
v 99.97638 99.54991 -862.9734
v 99.83685 105.0793 -873.3646
v 113.6159 95.13113 -870.616
v 110.719 101.549 -879.4761
v 123.0991 89.17007 -883.4785
v 118.2872 96.80157 -889.7149
v 127.0878 82.65093 -899.803
v 121.4831 91.61264 -902.7158
v 119.6999 87.04437 -915.7953
v 124.8185 76.89072 -916.2874
v 91.18653 109.1253 -884.3255
v 99.44427 108.0358 -884.7087
v 106.926 105.6106 -888.8281
v 112.1988 102.3135 -895.9343
v 114.438 98.71481 -904.9539
v 113.2203 95.55459 -914.0127
v 108.8072 93.46851 -921.3103
v 102.0989 92.89139 -925.3508
v 94.43951 93.95222 -925.295
v 87.25677 96.38117 -921.3024
v 81.8142 99.58208 -914.4331
v 79.11668 103.1323 -905.3879
v 79.84224 106.3758 -895.8685
v 84.15609 108.5303 -888.3041
v 100.0045 100.6322 -916.8351
v 96.05043 101.1541 -916.8596
v 92.34798 102.3746 -914.8721
v 89.60884 104.0414 -911.29
v 88.3935 105.8359 -906.7946
v 88.85525 107.4666 -902.0469
v 91.05759 108.5526 -898.2236
v 94.60829 108.8503 -896.1875
v 98.71457 108.3244 -896.2343
v 102.4365 107.1216 -898.1771
v 105.147 105.4372 -901.8038
v 106.3077 103.6032 -906.3989
v 105.6973 101.9912 -911.0309
v 103.4456 100.9288 -914.7615
v 97.49208 106.0222 -907.0126
vt 0.407655 0.830498
vt 0.399285 0.815677
vt 0.418855 0.827845
vt 0.392036 0.820937
vt 0.375463 0.815182
vt 0.37299 0.820692
vt 0.35203 0.826968
vt 0.35422 0.830139
vt 0.338493 0.844526
vt 0.332575 0.845651
vt 0.320433 0.871693
vt 0.328848 0.865047
vt 0.327779 0.886969
vt 0.318804 0.89894
vt 0.336487 0.90484
vt 0.329297 0.921746
vt 0.353442 0.914528
vt 0.35101 0.933331
vt 0.377488 0.932449
vt 0.374373 0.913862
vt 0.402527 0.920646
vt 0.394412 0.904425
vt 0.421322 0.900548
vt 0.409473 0.888408
vt 0.431181 0.87494
vt 0.417412 0.867962
vt 0.416732 0.847321
vt 0.43026 0.849022
vt 0.357744 0.894572
vt 0.372169 0.894181
vt 0.385971 0.88784
vt 0.396496 0.876721
vt 0.402076 0.86251
vt 0.401652 0.848169
vt 0.395357 0.836528
vt 0.384476 0.829943
vt 0.371162 0.829763
vt 0.35791 0.8358
vt 0.347125 0.846461
vt 0.340717 0.860706
vt 0.34019 0.875863
vt 0.346267 0.888036
vt 0.376972 0.842182
vt 0.37009 0.84201
vt 0.363257 0.845026
vt 0.357793 0.850603
vt 0.354807 0.857687
vt 0.354714 0.865245
vt 0.357831 0.871393
vt 0.363629 0.874737
vt 0.370794 0.874784
vt 0.377663 0.871815
vt 0.383081 0.866145
vt 0.385974 0.858899
vt 0.385786 0.851547
vt 0.382571 0.845574
vt 0.369952 0.857276
vn 0.5747039 0.4626865 -0.6750085
vn 0.3290474 0.4014587 -0.8547274
vn 0.6059183 0.3976986 -0.688984
vn 0.2399724 0.5014164 -0.8312609
vn -0.08292376 0.4283563 -0.899797
vn -0.1419126 0.535721 -0.8323844
vn -0.4541795 0.4615147 -0.7620533
vn -0.4009893 0.5636399 -0.7221618
vn -0.5800416 0.5999096 -0.5510538
vn -0.6455224 0.5134683 -0.5653771
vn -0.7234403 0.6144618 -0.314755
vn -0.6152036 0.7229695 -0.3143879
vn -0.5769923 0.8111682 -0.09532099
vn -0.6370814 0.7707916 -0.002754218
vn -0.3760983 0.9162673 0.1378556
vn -0.3790529 0.8869982 0.2637291
vn -0.05050271 0.9368234 0.3461378
vn -0.06409589 0.9046988 0.4212027
vn 0.2551591 0.8547696 0.4519543
vn 0.3034925 0.8909666 0.3377436
vn 0.5682135 0.7433177 0.3530047
vn 0.5704992 0.7860987 0.2378644
vn 0.7727993 0.6152095 0.1558795
vn 0.7397887 0.6707396 0.05311519
vn 0.8592769 0.4921533 -0.1393858
vn 0.7747957 0.6047063 -0.1844503
vn 0.743916 0.5187312 -0.4213158
vn 0.7809365 0.4165641 -0.4654166
vn -0.0005919593 0.9911476 0.1327627
vn 0.2579042 0.9585174 0.1213661
vn 0.4587307 0.8867416 0.057057
vn 0.5904656 0.8035664 -0.07504292
vn 0.613638 0.7550074 -0.231111
vn 0.5811008 0.7044098 -0.4075888
vn 0.4417685 0.6581824 -0.6096201
vn 0.1893367 0.6570119 -0.729717
vn -0.007254007 0.700599 -0.7135184
vn -0.2272069 0.7172096 -0.6587772
vn -0.3780842 0.7584664 -0.5308306
vn -0.4261829 0.8306594 -0.3582921
vn -0.3764194 0.9081337 -0.1833076
vn -0.2282083 0.9734142 -0.01964025
vn 0.1857724 0.7982058 -0.5730236
vn 0.01803752 0.8191763 -0.573258
vn -0.06999516 0.8500527 -0.5220259
vn -0.1646973 0.8659547 -0.4722258
vn -0.2003536 0.906794 -0.3709219
vn -0.1731742 0.9483797 -0.2656814
vn -0.08873566 0.9810976 -0.1719693
vn 0.05275254 0.994944 -0.08546066
vn 0.21412 0.9731078 -0.08493418
vn 0.334292 0.9340516 -0.125684
vn 0.4108022 0.8882712 -0.205465
vn 0.4311289 0.8481071 -0.3079647
vn 0.3768046 0.8368764 -0.3970593
vn 0.3282405 0.8099725 -0.486007
vn 0.1227795 0.9323575 -0.3400509
g Mushroom6_0
f 3/3/3 2/2/2 1/1/1
f 4/4/4 1/1/1 2/2/2
f 2/2/2 5/5/5 4/4/4
f 6/6/6 4/4/4 5/5/5
f 5/5/5 7/7/7 6/6/6
f 8/8/8 6/6/6 7/7/7
f 8/8/8 7/7/7 9/9/9
f 10/10/10 9/9/9 7/7/7
f 10/10/10 11/11/11 9/9/9
f 12/12/12 9/9/9 11/11/11
f 11/11/11 13/13/13 12/12/12
f 13/13/13 11/11/11 14/14/14
f 14/14/14 15/15/15 13/13/13
f 15/15/15 14/14/14 16/16/16
f 17/17/17 15/15/15 16/16/16
f 17/17/17 16/16/16 18/18/18
f 18/18/18 19/19/19 17/17/17
f 20/20/20 17/17/17 19/19/19
f 19/19/19 21/21/21 20/20/20
f 22/22/22 20/20/20 21/21/21
f 21/21/21 23/23/23 22/22/22
f 24/24/24 22/22/22 23/23/23
f 23/23/23 25/25/25 24/24/24
f 26/26/26 24/24/24 25/25/25
f 25/25/25 27/27/27 26/26/26
f 27/27/27 25/25/25 28/28/28
f 1/1/1 27/27/27 28/28/28
f 1/1/1 28/28/28 3/3/3
f 29/29/29 15/15/15 17/17/17
f 17/17/17 20/20/20 29/29/29
f 30/30/30 29/29/29 20/20/20
f 20/20/20 22/22/22 30/30/30
f 31/31/31 30/30/30 22/22/22
f 22/22/22 24/24/24 31/31/31
f 32/32/32 31/31/31 24/24/24
f 24/24/24 26/26/26 32/32/32
f 33/33/33 32/32/32 26/26/26
f 26/26/26 34/34/34 33/33/33
f 34/34/34 26/26/26 27/27/27
f 35/35/35 34/34/34 27/27/27
f 35/35/35 27/27/27 1/1/1
f 1/1/1 4/4/4 35/35/35
f 36/36/36 35/35/35 4/4/4
f 4/4/4 6/6/6 36/36/36
f 37/37/37 36/36/36 6/6/6
f 37/37/37 6/6/6 38/38/38
f 8/8/8 38/38/38 6/6/6
f 38/38/38 8/8/8 39/39/39
f 9/9/9 39/39/39 8/8/8
f 39/39/39 9/9/9 40/40/40
f 12/12/12 40/40/40 9/9/9
f 40/40/40 12/12/12 41/41/41
f 13/13/13 41/41/41 12/12/12
f 13/13/13 42/42/42 41/41/41
f 42/42/42 13/13/13 15/15/15
f 29/29/29 42/42/42 15/15/15
f 36/36/36 43/43/43 35/35/35
f 36/36/36 37/37/37 43/43/43
f 44/44/44 43/43/43 37/37/37
f 37/37/37 38/38/38 44/44/44
f 45/45/45 44/44/44 38/38/38
f 38/38/38 39/39/39 46/46/46
f 45/45/45 38/38/38 46/46/46
f 40/40/40 47/47/47 39/39/39
f 46/46/46 39/39/39 47/47/47
f 48/48/48 40/40/40 41/41/41
f 47/47/47 40/40/40 48/48/48
f 49/49/49 48/48/48 41/41/41
f 49/49/49 41/41/41 42/42/42
f 42/42/42 29/29/29 50/50/50
f 50/50/50 49/49/49 42/42/42
f 29/29/29 30/30/30 50/50/50
f 51/51/51 50/50/50 30/30/30
f 30/30/30 31/31/31 51/51/51
f 52/52/52 51/51/51 31/31/31
f 31/31/31 32/32/32 52/52/52
f 53/53/53 52/52/52 32/32/32
f 32/32/32 33/33/33 53/53/53
f 54/54/54 53/53/53 33/33/33
f 33/33/33 34/34/34 54/54/54
f 55/55/55 54/54/54 34/34/34
f 55/55/55 34/34/34 56/56/56
f 35/35/35 56/56/56 34/34/34
f 56/56/56 35/35/35 43/43/43
f 57/57/57 50/50/50 51/51/51
f 57/57/57 51/51/51 52/52/52
f 57/57/57 52/52/52 53/53/53
f 57/57/57 53/53/53 54/54/54
f 57/57/57 54/54/54 55/55/55
f 57/57/57 55/55/55 56/56/56
f 57/57/57 56/56/56 43/43/43
f 57/57/57 49/49/49 50/50/50
f 57/57/57 43/43/43 44/44/44
f 57/57/57 44/44/44 45/45/45
f 57/57/57 45/45/45 46/46/46
f 57/57/57 46/46/46 47/47/47
f 57/57/57 47/47/47 48/48/48
f 57/57/57 48/48/48 49/49/49
