g Mushroom2_cap
v 535.6169 142.2176 -1085.736
v 557.8244 156.1378 -1067.016
v 533.1466 144.1908 -1085.107
v 560.7051 154.3738 -1067.323
v 507.5522 137.0411 -1094.848
v 563.4308 159.1335 -1059.16
v 567.0533 147.6458 -1054.538
v 567.8731 155.4187 -1044.36
v 564.0095 165.4188 -1051.179
v 565.9638 163.1629 -1033.698
v 562.118 172.7741 -1041.205
v 556.8631 179.185 -1031.665
v 559.9792 175.0851 -1042.601
v 555.6617 182.3542 -1034.422
v 537.0027 193.6258 -1019.063
v 537.811 190.6941 -1015.983
v 531.8476 191.4146 -1012.213
v 509.6735 200.4791 -1010.498
v 509.906 197.6917 -1007.237
v 479.087 201.5566 -1010.422
v 478.6751 198.792 -1007.159
v 450.3038 193.7769 -1015.766
v 451.3011 196.6451 -1018.851
v 430.4117 183.64 -1031.352
v 431.8195 186.7172 -1034.115
v 422.9384 170.3888 -1050.83
v 424.5003 173.7395 -1053.191
v 440.338 196.5708 -1044.902
v 433.9867 185.3091 -1061.456
v 439.4478 173.6313 -1078.039
v 430.7936 160.2822 -1072.301
v 457.2437 205.1859 -1031.656
v 481.3553 209.4479 -1024.342
v 507.8972 208.5128 -1024.408
v 450.7531 185.5002 -1081.593
v 446.3981 194.813 -1068.368
v 451.4631 203.7938 -1055.167
v 464.9448 210.664 -1044.604
v 484.1732 214.0629 -1038.771
v 505.3397 213.3172 -1038.824
v 524.2522 208.5746 -1044.751
v 531.6127 202.5659 -1031.84
v 547.8044 192.7848 -1045.168
v 551.0695 186.7412 -1052.054
v 537.1646 200.7745 -1055.38
v 539.1328 195.9112 -1061.929
v 461.1119 201.7743 -1073.583
v 464.6365 208.0241 -1064.396
v 474.0185 212.805 -1057.045
v 487.3995 215.1703 -1052.986
v 502.1291 214.6514 -1053.023
v 515.2902 211.3509 -1057.148
v 524.276 205.9229 -1064.544
v 525.8255 202.6094 -1069.249
v 477.3904 205.8441 -1076.838
v 464.1425 195.2935 -1082.786
v 463.6655 177.7001 -1092.221
v 473.1282 189.8655 -1090.182
v 482.578 172.9575 -1098.149
v 486.2893 186.5651 -1094.307
v 483.5531 199.7365 -1085.35
v 490.3029 198.0439 -1087.466
v 501.0189 186.0462 -1094.344
v 503.7445 172.2118 -1098.201
v 497.8571 197.7778 -1087.485
v 504.7197 198.9908 -1085.403
v 514.4 188.4115 -1090.284
v 522.9728 175.6107 -1092.368
v 523.8639 193.7273 -1082.066
v 541.8232 184.5031 -1078.65
v 529.702 161.3917 -1091.045
v 527.3065 199.4422 -1073.747
v 542.2402 191.4364 -1068.606
v 551.0589 179.737 -1059.492
v 549.3557 170.5229 -1072.888
v 560.9747 166.9095 -1051.273
v 509.5312 201.4429 -1081.633
v 511.3389 204.6481 -1076.922
v 494.4173 206.8183 -1077.969
v 478.9447 202.5203 -1081.557
v 479.1981 209.0493 -1072.126
v 484.0096 211.5013 -1068.356
v 490.8722 212.7144 -1066.274
v 498.4265 212.4482 -1066.293
v 505.1762 210.7556 -1068.409
v 509.7846 207.9718 -1072.202
v 510.5793 206.2724 -1074.615
v 507.5522 137.0411 -1094.848
v 533.1466 144.1908 -1085.107
v 507.3682 141.0798 -1096.301
v 476.3213 138.1414 -1094.771
v 476.7817 142.1574 -1096.226
v 448.4163 145.1389 -1086.025
v 449.4526 149.0107 -1087.66
v 429.3642 156.6479 -1070.343
v 430.7936 160.2822 -1072.301
v 422.9384 170.3888 -1050.83
v 424.5003 173.7395 -1053.191
v 505.8969 156.9682 -1098.865
v 529.702 161.3917 -1091.045
v 479.3549 157.9033 -1098.799
v 455.6394 163.8503 -1091.366
v 439.4478 173.6313 -1078.039
v 522.9728 175.6107 -1092.368
v 503.7445 172.2118 -1098.201
v 482.578 172.9575 -1098.149
v 463.6655 177.7001 -1092.221
v 450.7531 185.5002 -1081.593
v 418.4144 160.6842 -1043.99
v 425.2242 146.1221 -1064.669
v 445.415 133.9254 -1081.288
v 474.9875 126.5096 -1090.557
v 508.0848 125.3435 -1090.639
v 537.8451 130.8197 -1081.013
v 535.6169 142.2176 -1085.736
v 564.6204 143.3645 -1062.02
v 560.7051 154.3738 -1067.323
v 557.8244 156.1378 -1067.016
v 549.3557 170.5229 -1072.888
v 541.8232 184.5031 -1078.65
v 423.0226 173.84 -1018.361
v 445.1974 183.897 -1002.908
v 475.2642 189.2117 -993.7874
v 511.8825 189.8051 -996.0839
v 418.4144 160.6842 -1043.99
v 530.0728 185.3406 -1002.022
v 532.3772 187.235 -1006.685
v 534.7844 187.088 -1008.153
v 539.6075 182.274 -1005.63
v 560.6902 169.9809 -1023.439
v 564.6204 143.3645 -1062.02
vt 0.879207 0.720882
vt 0.913242 0.746854
vt 0.874684 0.721186
vt 0.918398 0.746986
vt 0.833884 0.707745
vt 0.922001 0.758875
vt 0.930284 0.77069
vt 0.930143 0.784893
vt 0.921723 0.76996
vt 0.926166 0.801536
vt 0.917081 0.784076
vt 0.906935 0.797878
vt 0.913019 0.780913
vt 0.904254 0.792123
vt 0.870272 0.814185
vt 0.872295 0.820404
vt 0.862036 0.826543
vt 0.822271 0.826391
vt 0.823348 0.832871
vt 0.769977 0.826154
vt 0.770018 0.832633
vt 0.723259 0.819723
vt 0.724127 0.813508
vt 0.692585 0.796854
vt 0.694041 0.791108
vt 0.683987 0.768764
vt 0.685601 0.76359
vt 0.70554 0.769316
vt 0.698123 0.745424
vt 0.710754 0.721872
vt 0.700146 0.736501
vt 0.731788 0.788745
vt 0.771727 0.79971
vt 0.817265 0.799927
vt 0.726388 0.711337
vt 0.716337 0.730154
vt 0.722342 0.749207
vt 0.743375 0.764677
vt 0.775307 0.773404
vt 0.811698 0.773586
vt 0.845155 0.765193
vt 0.859095 0.789362
vt 0.888764 0.770237
vt 0.89558 0.760781
vt 0.868946 0.749971
vt 0.873376 0.740663
vt 0.73934 0.718631
vt 0.743589 0.731883
vt 0.758284 0.742623
vt 0.780532 0.748676
vt 0.80587 0.748808
vt 0.82919 0.742996
vt 0.845821 0.732432
vt 0.849236 0.725684
vt 0.765935 0.711511
vt 0.746299 0.705514
vt 0.750342 0.696447
vt 0.763009 0.695111
vt 0.783411 0.688342
vt 0.78614 0.689439
vt 0.778056 0.699415
vt 0.789967 0.696488
vt 0.811162 0.689582
vt 0.819154 0.688547
vt 0.802865 0.696562
vt 0.814218 0.69962
vt 0.833206 0.695511
vt 0.850667 0.697018
vt 0.847976 0.707345
vt 0.880441 0.716692
vt 0.865169 0.704753
vt 0.852491 0.719252
vt 0.879631 0.731032
vt 0.897041 0.750798
vt 0.896114 0.731695
vt 0.916342 0.769269
vt 0.821792 0.705066
vt 0.824084 0.711834
vt 0.794702 0.709201
vt 0.769477 0.704772
vt 0.768153 0.7183
vt 0.775711 0.72379
vt 0.787118 0.726882
vt 0.8001 0.726952
vt 0.812061 0.723988
vt 0.820618 0.718589
vt 0.822392 0.715132
vt 0.833884 0.707745
vt 0.874684 0.721186
vt 0.832635 0.703799
vt 0.781933 0.707455
vt 0.781668 0.703513
vt 0.733813 0.719306
vt 0.734462 0.715127
vt 0.698825 0.741116
vt 0.700146 0.736501
vt 0.683987 0.768764
vt 0.685601 0.76359
vt 0.82643 0.693407
vt 0.865169 0.704753
vt 0.781903 0.693152
vt 0.740678 0.703268
vt 0.710754 0.721872
vt 0.850667 0.697018
vt 0.819154 0.688547
vt 0.783411 0.688342
vt 0.750342 0.696447
vt 0.726388 0.711337
vt 0.67934 0.783666
vt 0.695022 0.754405
vt 0.731944 0.731332
vt 0.782696 0.718797
vt 0.837479 0.719097
vt 0.885319 0.732932
vt 0.879207 0.720882
vt 0.927075 0.759795
vt 0.918398 0.746986
vt 0.913242 0.746854
vt 0.896114 0.731695
vt 0.880441 0.716692
vt 0.683087 0.822094
vt 0.717467 0.844778
vt 0.7668 0.858461
vt 0.828612 0.854383
vt 0.67934 0.783666
vt 0.860411 0.845801
vt 0.863877 0.837296
vt 0.867979 0.834863
vt 0.87719 0.840719
vt 0.915246 0.81487
vt 0.927075 0.759795
vn 0.4306602 0.190921 -0.882089
vn 0.5428084 0.4492675 -0.7095898
vn 0.4056803 0.05458776 -0.9123835
vn 0.6992036 0.3247125 -0.6369271
vn 0.1880269 -0.214994 -0.9583441
vn 0.7306551 0.4953553 -0.4698576
vn 0.929047 0.1612628 -0.3329654
vn 0.9527862 0.2462021 -0.1777163
vn 0.7900075 0.5147094 -0.3331102
vn 0.9141556 0.4032806 0.04103925
vn 0.8531711 0.5189328 -0.05299068
vn 0.7947803 0.5651699 0.22115
vn 0.800913 0.5586156 -0.2156081
vn 0.7576042 0.6253155 0.1871263
vn 0.5112569 0.7415251 0.4344618
vn 0.5687223 0.6810694 0.4611936
vn 0.3791323 0.7470504 0.5460536
vn 0.1927843 0.818428 0.5413038
vn 0.2153066 0.7850428 0.5808192
vn -0.1601249 0.8125794 0.5604237
vn -0.1065917 0.8006367 0.5895923
vn -0.4403796 0.7688643 0.4635877
vn -0.5051348 0.7520432 0.4234026
vn -0.7807256 0.5995823 0.1759786
vn -0.758781 0.633755 0.150353
vn -0.9342006 0.3045757 -0.1857496
vn -0.8704608 0.4153567 -0.2641533
vn -0.6888518 0.7246188 -0.02027099
vn -0.7391481 0.5629223 -0.3698358
vn -0.7056592 0.2916031 -0.6457652
vn -0.7794262 0.1017322 -0.6181791
vn -0.4337211 0.863798 0.2563965
vn -0.1136209 0.917601 0.3809182
vn 0.2044162 0.9095675 0.3618026
vn -0.5548709 0.4577097 -0.6947087
vn -0.5820563 0.6928254 -0.4256799
vn -0.5457362 0.8275061 -0.1319309
vn -0.32557 0.9433529 0.06394922
vn -0.08574941 0.9809999 0.174029
vn 0.1553456 0.9785734 0.1351366
vn 0.4163023 0.907028 0.06318633
vn 0.5078432 0.8236285 0.2524504
vn 0.7042647 0.7099336 -0.002314577
vn 0.7849571 0.5503339 -0.2845611
vn 0.6117692 0.7679554 -0.1896918
vn 0.6713111 0.6798548 -0.2951929
vn -0.4293804 0.7299249 -0.5318292
vn -0.3742372 0.8734451 -0.3115128
vn -0.2216879 0.9639031 -0.1474626
vn -0.0379665 0.9960356 -0.08044612
vn 0.1364742 0.9860388 -0.09540502
vn 0.28824 0.9459374 -0.148728
vn 0.4496915 0.844193 -0.2917461
vn 0.4424651 0.80082 -0.4036236
vn -0.2319958 0.8026745 -0.5494466
vn -0.3631238 0.6055922 -0.7080956
vn -0.3512834 0.2807585 -0.8931823
vn -0.2403444 0.4831733 -0.8418897
vn -0.1166432 0.1850096 -0.9757898
vn -0.07276661 0.4129807 -0.9078282
vn -0.1174544 0.6477678 -0.7527292
vn -0.01927025 0.6115585 -0.7909645
vn 0.09842468 0.4463319 -0.8894382
vn 0.1256931 0.2144822 -0.9686065
vn 0.06895258 0.6327309 -0.7712957
vn 0.159021 0.6380293 -0.7534128
vn 0.2775774 0.4680376 -0.8389825
vn 0.3669486 0.2513463 -0.8956415
vn 0.385406 0.5916415 -0.7081119
vn 0.6533745 0.4145428 -0.6334478
vn 0.5330577 -0.004447533 -0.8460672
vn 0.449972 0.7275785 -0.5178366
vn 0.6792963 0.6683587 -0.3030725
vn 0.8419882 0.4373209 -0.3159214
vn 0.8031822 0.2484321 -0.5414608
vn 0.6423578 0.577705 -0.5036203
vn 0.2412986 0.698601 -0.6735961
vn 0.2863283 0.7827589 -0.5525438
vn 0.03510143 0.8225129 -0.5676622
vn -0.1888846 0.7137845 -0.674414
vn -0.1821579 0.8871862 -0.4239329
vn -0.1062836 0.9354011 -0.3372367
vn -0.01602691 0.9462052 -0.32317
vn 0.07170101 0.9532095 -0.2936844
vn 0.1701811 0.9256589 -0.3379259
vn 0.2615928 0.8636975 -0.4308084
vn 0.249908 0.8285015 -0.50113
vn 0.1880269 -0.214994 -0.9583441
vn 0.4056803 0.05458776 -0.9123835
vn 0.1604865 -0.2547028 -0.9536093
vn -0.1852929 -0.3158631 -0.9305359
vn -0.1997336 -0.2077734 -0.9575681
vn -0.5231772 -0.208953 -0.8262109
vn -0.5389165 -0.1184165 -0.8339943
vn -0.8146889 0.007887636 -0.5798447
vn -0.7794262 0.1017322 -0.6181791
vn -0.9342006 0.3045757 -0.1857496
vn -0.8704608 0.4153567 -0.2641533
vn 0.1676514 -0.05767832 -0.9841576
vn 0.5330577 -0.004447533 -0.8460672
vn -0.1786476 -0.003646831 -0.9839064
vn -0.4643159 0.0754059 -0.8824539
vn -0.7056592 0.2916031 -0.6457652
vn 0.3669486 0.2513463 -0.8956415
vn 0.1256931 0.2144822 -0.9686065
vn -0.1166432 0.1850096 -0.9757898
vn -0.3512834 0.2807585 -0.8931823
vn -0.5548709 0.4577097 -0.6947087
vn -0.9211462 0.3191296 -0.2228135
vn -0.7722908 -0.03806502 -0.6341277
vn -0.4670149 -0.2350686 -0.8524318
vn -0.1281415 -0.3247885 -0.9370658
vn 0.1673318 -0.3270643 -0.9300693
vn 0.4432758 -0.2687477 -0.8551498
vn 0.4306602 0.190921 -0.882089
vn 0.7509812 -0.06648649 -0.656968
vn 0.6992036 0.3247125 -0.6369271
vn 0.5428084 0.4492675 -0.7095898
vn 0.8031822 0.2484321 -0.5414608
vn 0.6533745 0.4145428 -0.6334478
vn -0.6970171 0.697276 0.1672526
vn -0.4420026 0.7874734 0.4295573
vn -0.192124 0.8203064 0.538689
vn 0.1385486 0.8172678 0.5593547
vn -0.9211462 0.3191296 -0.2228135
vn 0.356152 0.7913488 0.4969133
vn 0.3493965 0.77837 0.521596
vn 0.4352597 0.7419451 0.509967
vn 0.5773547 0.6796046 0.4525475
vn 0.7567835 0.5803027 0.3008777
vn 0.7509812 -0.06648649 -0.656968
g Mushroom2_cap_0
f 3/3/3 2/2/2 1/1/1
f 4/4/4 1/1/1 2/2/2
f 1/1/1 5/5/5 3/3/3
f 4/4/4 2/2/2 6/6/6
f 7/7/7 4/4/4 6/6/6
f 6/6/6 8/8/8 7/7/7
f 8/8/8 6/6/6 9/9/9
f 8/8/8 9/9/9 10/10/10
f 11/11/11 10/10/10 9/9/9
f 11/11/11 12/12/12 10/10/10
f 11/11/11 13/13/13 12/12/12
f 13/13/13 11/11/11 9/9/9
f 14/14/14 12/12/12 13/13/13
f 14/14/14 15/15/15 12/12/12
f 16/16/16 12/12/12 15/15/15
f 16/16/16 15/15/15 17/17/17
f 15/15/15 18/18/18 17/17/17
f 19/19/19 17/17/17 18/18/18
f 18/18/18 20/20/20 19/19/19
f 21/21/21 19/19/19 20/20/20
f 20/20/20 22/22/22 21/21/21
f 22/22/22 20/20/20 23/23/23
f 23/23/23 24/24/24 22/22/22
f 24/24/24 23/23/23 25/25/25
f 24/24/24 25/25/25 26/26/26
f 26/26/26 25/25/25 27/27/27
f 28/28/28 27/27/27 25/25/25
f 27/27/27 28/28/28 29/29/29
f 29/29/29 30/30/30 27/27/27
f 31/31/31 27/27/27 30/30/30
f 25/25/25 32/32/32 28/28/28
f 32/32/32 25/25/25 23/23/23
f 23/23/23 20/20/20 32/32/32
f 33/33/33 32/32/32 20/20/20
f 20/20/20 18/18/18 33/33/33
f 34/34/34 33/33/33 18/18/18
f 30/30/30 29/29/29 35/35/35
f 36/36/36 35/35/35 29/29/29
f 29/29/29 37/37/37 36/36/36
f 37/37/37 29/29/29 28/28/28
f 28/28/28 32/32/32 37/37/37
f 38/38/38 37/37/37 32/32/32
f 32/32/32 33/33/33 38/38/38
f 39/39/39 38/38/38 33/33/33
f 33/33/33 34/34/34 39/39/39
f 40/40/40 39/39/39 34/34/34
f 40/40/40 34/34/34 41/41/41
f 42/42/42 41/41/41 34/34/34
f 42/42/42 34/34/34 15/15/15
f 18/18/18 15/15/15 34/34/34
f 15/15/15 14/14/14 42/42/42
f 43/43/43 42/42/42 14/14/14
f 42/42/42 43/43/43 41/41/41
f 14/14/14 13/13/13 43/43/43
f 44/44/44 43/43/43 13/13/13
f 45/45/45 41/41/41 43/43/43
f 43/43/43 44/44/44 45/45/45
f 46/46/46 45/45/45 44/44/44
f 36/36/36 47/47/47 35/35/35
f 47/47/47 36/36/36 48/48/48
f 37/37/37 48/48/48 36/36/36
f 37/37/37 38/38/38 48/48/48
f 49/49/49 48/48/48 38/38/38
f 38/38/38 39/39/39 49/49/49
f 50/50/50 49/49/49 39/39/39
f 39/39/39 40/40/40 50/50/50
f 51/51/51 50/50/50 40/40/40
f 51/51/51 40/40/40 52/52/52
f 41/41/41 52/52/52 40/40/40
f 52/52/52 41/41/41 53/53/53
f 45/45/45 53/53/53 41/41/41
f 45/45/45 46/46/46 53/53/53
f 54/54/54 53/53/53 46/46/46
f 47/47/47 48/48/48 55/55/55
f 47/47/47 55/55/55 56/56/56
f 56/56/56 35/35/35 47/47/47
f 35/35/35 56/56/56 57/57/57
f 58/58/58 57/57/57 56/56/56
f 57/57/57 58/58/58 59/59/59
f 60/60/60 59/59/59 58/58/58
f 58/58/58 61/61/61 60/60/60
f 62/62/62 60/60/60 61/61/61
f 60/60/60 62/62/62 63/63/63
f 63/63/63 64/64/64 60/60/60
f 59/59/59 60/60/60 64/64/64
f 65/65/65 63/63/63 62/62/62
f 65/65/65 66/66/66 63/63/63
f 67/67/67 63/63/63 66/66/66
f 63/63/63 67/67/67 64/64/64
f 68/68/68 64/64/64 67/67/67
f 67/67/67 69/69/69 68/68/68
f 70/70/70 68/68/68 69/69/69
f 68/68/68 70/70/70 71/71/71
f 69/69/69 72/72/72 70/70/70
f 73/73/73 70/70/70 72/72/72
f 54/54/54 73/73/73 72/72/72
f 73/73/73 74/74/74 70/70/70
f 75/75/75 70/70/70 74/74/74
f 76/76/76 75/75/75 74/74/74
f 2/2/2 75/75/75 76/76/76
f 66/66/66 77/77/77 67/67/67
f 69/69/69 67/67/67 77/77/77
f 72/72/72 69/69/69 78/78/78
f 77/77/77 78/78/78 69/69/69
f 72/72/72 78/78/78 54/54/54
f 79/79/79 77/77/77 66/66/66
f 79/79/79 78/78/78 77/77/77
f 79/79/79 66/66/66 65/65/65
f 79/79/79 65/65/65 62/62/62
f 79/79/79 62/62/62 61/61/61
f 79/79/79 61/61/61 80/80/80
f 61/61/61 58/58/58 80/80/80
f 56/56/56 80/80/80 58/58/58
f 80/80/80 56/56/56 55/55/55
f 79/79/79 80/80/80 55/55/55
f 79/79/79 55/55/55 81/81/81
f 81/81/81 55/55/55 48/48/48
f 48/48/48 49/49/49 81/81/81
f 82/82/82 81/81/81 49/49/49
f 79/79/79 81/81/81 82/82/82
f 49/49/49 50/50/50 82/82/82
f 83/83/83 82/82/82 50/50/50
f 79/79/79 82/82/82 83/83/83
f 83/83/83 50/50/50 84/84/84
f 79/79/79 83/83/83 84/84/84
f 51/51/51 84/84/84 50/50/50
f 84/84/84 51/51/51 85/85/85
f 52/52/52 85/85/85 51/51/51
f 85/85/85 52/52/52 86/86/86
f 53/53/53 86/86/86 52/52/52
f 53/53/53 54/54/54 86/86/86
f 87/87/87 86/86/86 54/54/54
f 79/79/79 84/84/84 85/85/85
f 79/79/79 85/85/85 86/86/86
f 86/86/86 87/87/87 79/79/79
f 87/87/87 78/78/78 79/79/79
f 87/87/87 54/54/54 78/78/78
f 73/73/73 54/54/54 46/46/46
f 46/46/46 74/74/74 73/73/73
f 74/74/74 46/46/46 44/44/44
f 44/44/44 13/13/13 74/74/74
f 76/76/76 74/74/74 13/13/13
f 76/76/76 13/13/13 9/9/9
f 76/76/76 9/9/9 6/6/6
f 2/2/2 76/76/76 6/6/6
f 90/90/90 89/89/89 88/88/88
f 88/88/88 91/91/91 90/90/90
f 92/92/92 90/90/90 91/91/91
f 91/91/91 93/93/93 92/92/92
f 94/94/94 92/92/92 93/93/93
f 93/93/93 95/95/95 94/94/94
f 96/96/96 94/94/94 95/95/95
f 95/95/95 97/97/97 96/96/96
f 98/98/98 96/96/96 97/97/97
f 99/99/99 89/89/89 90/90/90
f 90/90/90 92/92/92 99/99/99
f 100/100/100 89/89/89 99/99/99
f 101/101/101 99/99/99 92/92/92
f 94/94/94 102/102/102 92/92/92
f 101/101/101 92/92/92 102/102/102
f 94/94/94 96/96/96 102/102/102
f 103/103/103 102/102/102 96/96/96
f 100/100/100 99/99/99 104/104/104
f 105/105/105 104/104/104 99/99/99
f 101/101/101 106/106/106 99/99/99
f 105/105/105 99/99/99 106/106/106
f 102/102/102 107/107/107 101/101/101
f 106/106/106 101/101/101 107/107/107
f 103/103/103 108/108/108 102/102/102
f 107/107/107 102/102/102 108/108/108
f 97/97/97 95/95/95 109/109/109
f 110/110/110 109/109/109 95/95/95
f 95/95/95 93/93/93 110/110/110
f 111/111/111 110/110/110 93/93/93
f 93/93/93 91/91/91 111/111/111
f 112/112/112 111/111/111 91/91/91
f 91/91/91 88/88/88 112/112/112
f 113/113/113 112/112/112 88/88/88
f 88/88/88 114/114/114 113/113/113
f 115/115/115 114/114/114 88/88/88
f 115/115/115 116/116/116 114/114/114
f 116/116/116 115/115/115 117/117/117
f 100/100/100 119/119/119 118/118/118
f 100/100/100 118/118/118 89/89/89
f 119/119/119 100/100/100 120/120/120
f 121/121/121 22/22/22 24/24/24
f 22/22/22 121/121/121 122/122/122
f 122/122/122 123/123/123 22/22/22
f 21/21/21 22/22/22 123/123/123
f 123/123/123 124/124/124 21/21/21
f 19/19/19 21/21/21 124/124/124
f 24/24/24 125/125/125 121/121/121
f 125/125/125 24/24/24 26/26/26
f 124/124/124 126/126/126 19/19/19
f 127/127/127 19/19/19 126/126/126
f 17/17/17 19/19/19 127/127/127
f 16/16/16 17/17/17 128/128/128
f 129/129/129 16/16/16 128/128/128
f 129/129/129 130/130/130 16/16/16
f 12/12/12 16/16/16 130/130/130
f 130/130/130 10/10/10 12/12/12
f 131/131/131 4/4/4 7/7/7
