g Mushroom5
v 122.5276 118.5153 -957.2283
v 142.88 121.9095 -949.5562
v 122.6225 130.4127 -960.4067
v 141.502 133.6251 -953.2109
v 99.92742 121.1499 -956.5071
v 101.6993 132.8071 -959.7961
v 79.57578 129.3697 -947.4164
v 82.86333 140.4202 -951.3641
v 64.47803 140.7278 -932.867
v 68.92332 150.9313 -937.8927
v 56.81405 153.0413 -915.5349
v 61.56585 162.4883 -921.5353
v 156.9123 130.6155 -935.0723
v 154.4257 141.6236 -939.8914
v 122.1394 142.7828 -960.8945
v 138.4916 145.5374 -954.6964
v 103.9497 144.8251 -960.4141
v 87.58978 151.4403 -953.0807
v 75.09167 160.089 -942.0435
v 68.9959 170.561 -927.1855
v 121.018 154.9153 -958.7929
v 106.5658 156.6013 -958.33
v 93.51907 161.8769 -952.4816
v 61.56585 162.4883 -921.5353
v 63.766 173.7373 -904.2641
v 56.81405 153.0413 -915.5349
v 58.91976 165.0936 -897.0294
v 75.52592 182.5661 -889.3027
v 71.94978 174.7643 -880.6797
v 94.99068 177.8725 -873.816
v 96.66428 185.175 -883.3748
v 120.1244 175.1082 -875.2444
v 119.8924 182.6191 -884.6831
v 141.6797 167.5191 -883.6248
v 140.062 175.4292 -892.7578
v 156.4504 156.1146 -898.2426
v 153.7118 164.889 -906.2681
v 161.8727 142.9389 -916.604
v 158.732 152.7158 -923.2373
v 154.4257 141.6236 -939.8914
v 156.9123 130.6155 -935.0723
v 81.55984 187.6672 -899.8095
v 70.96476 180.4111 -912.0528
v 68.9959 170.561 -927.1855
v 99.37915 190.2122 -894.1331
v 119.3437 187.8678 -895.4427
v 136.929 181.4857 -902.6901
v 148.8273 172.3973 -914.3325
v 153.3553 162.0099 -928.8168
v 102.8578 192.554 -905.8294
v 88.91582 190.3773 -910.6125
v 80.25204 184.686 -920.1721
v 78.49049 176.7693 -932.3129
v 83.35233 168.5489 -943.991
v 75.09167 160.089 -942.0435
v 87.58978 151.4403 -953.0807
v 93.51907 161.8769 -952.4816
v 93.03507 175.5885 -944.0462
v 99.8858 170.7117 -950.2854
v 106.5658 156.6013 -958.33
v 109.1491 167.2597 -954.0461
v 119.2109 166.0913 -954.3614
v 121.018 154.9153 -958.7929
v 128.2019 167.5305 -951.0465
v 133.989 157.0379 -953.9533
v 122.1394 142.7828 -960.8945
v 138.4916 145.5374 -954.6964
v 149.6537 152.4222 -943.2161
v 141.502 133.6251 -953.2109
v 142.8386 162.4731 -944.8754
v 145.7527 170.0786 -933.4485
v 142.1215 178.3486 -921.911
v 132.6247 185.5858 -912.6428
v 118.595 190.6858 -906.8482
v 106.6677 192.0657 -917.8635
v 97.25726 190.6295 -921.0925
v 91.25823 186.7578 -927.5969
v 89.88733 181.2919 -935.9723
v 117.4994 190.7793 -918.5298
v 127.1489 187.2951 -922.4345
v 133.7666 182.2698 -928.8679
v 136.3147 176.5331 -936.8741
v 134.3192 171.269 -944.7903
v 115.9844 188.2471 -929.7116
v 110.5915 188.8361 -929.5155
v 105.8374 188.107 -931.173
v 102.7764 186.1532 -934.46
v 101.9618 183.4163 -938.6268
v 103.3621 180.5546 -942.6237
v 106.8046 178.0153 -945.8712
v 111.5825 176.2839 -947.749
v 116.7791 175.7187 -947.8666
v 121.3911 176.4577 -946.1652
v 124.5127 178.3651 -942.9658
v 125.517 181.0531 -938.9162
v 124.1928 183.9766 -934.8362
v 120.7898 186.5433 -931.5521
v 113.8895 183.3937 -939.5024
v 103.9497 144.8251 -960.4141
vt 0.609676 0.82338
vt 0.641566 0.835094
vt 0.603859 0.814783
vt 0.633549 0.825804
vt 0.571073 0.823835
vt 0.56796 0.815115
vt 0.53312 0.836585
vt 0.532654 0.826971
vt 0.501904 0.857656
vt 0.503691 0.846525
vt 0.482274 0.88334
vt 0.484925 0.870825
vt 0.660556 0.85669
vt 0.651103 0.845727
vt 0.59678 0.810441
vt 0.622632 0.819981
vt 0.565424 0.810654
vt 0.534606 0.821004
vt 0.508963 0.837055
vt 0.492885 0.859168
vt 0.58868 0.810456
vt 0.563602 0.810744
vt 0.53891 0.819035
vt 0.484925 0.870825
vt 0.482275 0.896988
vt 0.482274 0.88334
vt 0.479009 0.911333
vt 0.497172 0.920083
vt 0.495508 0.93654
vt 0.532709 0.947407
vt 0.531548 0.929496
vt 0.576651 0.945636
vt 0.572293 0.927895
vt 0.616905 0.933293
vt 0.610149 0.915988
vt 0.647394 0.911506
vt 0.638462 0.895854
vt 0.662862 0.884146
vt 0.652877 0.870544
vt 0.651103 0.845727
vt 0.660556 0.85669
vt 0.504539 0.900997
vt 0.490664 0.88211
vt 0.492885 0.859168
vt 0.533395 0.909998
vt 0.568574 0.908359
vt 0.601737 0.897682
vt 0.62648 0.880348
vt 0.639293 0.858726
vt 0.538027 0.889515
vt 0.515521 0.881948
vt 0.503991 0.867228
vt 0.505433 0.848827
vt 0.518184 0.831417
vt 0.508963 0.837055
vt 0.534606 0.821004
vt 0.53891 0.819035
vt 0.530652 0.829338
vt 0.544855 0.820201
vt 0.563602 0.810744
vt 0.562299 0.81486
vt 0.579841 0.814667
vt 0.58868 0.810456
vt 0.594218 0.81983
vt 0.609312 0.81795
vt 0.59678 0.810441
vt 0.622632 0.819981
vt 0.637843 0.837218
vt 0.633549 0.825804
vt 0.621404 0.831637
vt 0.622467 0.848747
vt 0.612135 0.86598
vt 0.592314 0.879757
vt 0.565799 0.888266
vt 0.544774 0.869173
vt 0.529559 0.864068
vt 0.521506 0.854073
vt 0.5222 0.841387
vt 0.563886 0.868384
vt 0.582127 0.862689
vt 0.595976 0.853147
vt 0.603253 0.841187
vt 0.602594 0.829304
vt 0.562668 0.850075
vt 0.553193 0.850246
vt 0.545514 0.847632
vt 0.541381 0.842596
vt 0.541488 0.836297
vt 0.545411 0.830336
vt 0.552602 0.825565
vt 0.561603 0.822886
vt 0.57068 0.822849
vt 0.57808 0.825512
vt 0.582354 0.830377
vt 0.582643 0.836471
vt 0.578862 0.842564
vt 0.571733 0.847421
vt 0.561711 0.83482
vt 0.565424 0.810654
vn 0.1623297 -0.2558807 -0.9529817
vn 0.5138407 -0.2021475 -0.833729
vn 0.165589 -0.1818554 -0.9692826
vn 0.5637813 -0.07424807 -0.82258
vn -0.1968015 -0.2365939 -0.9514686
vn -0.2470561 -0.1149682 -0.9621568
vn -0.5495911 -0.1317292 -0.824983
vn -0.5607716 -0.007978247 -0.827932
vn -0.7701654 0.02062022 -0.6375108
vn -0.7605892 0.1247603 -0.6371335
vn -0.9105226 0.2647165 -0.3176066
vn -0.8431243 0.3798133 -0.3806354
vn 0.8328212 -0.05262788 -0.5510345
vn 0.8410593 0.08378997 -0.5344142
vn 0.1873826 0.06009108 -0.9804473
vn 0.5437804 0.1248473 -0.8298892
vn -0.1986189 0.100646 -0.9748954
vn -0.4743429 0.1945767 -0.8585678
vn -0.6792806 0.2999568 -0.6697789
vn -0.6987178 0.5454184 -0.4629387
vn 0.1421312 0.2863554 -0.9475227
vn -0.1546381 0.3166124 -0.9358652
vn -0.3574474 0.3831084 -0.851739
vn -0.8431243 0.3798133 -0.3806354
vn -0.797392 0.6024879 -0.03426681
vn -0.9105226 0.2647165 -0.3176066
vn -0.8270194 0.5513179 0.1099433
vn -0.5048728 0.7909617 0.3456633
vn -0.5407509 0.7230263 0.4299086
vn -0.1388749 0.7918044 0.5947769
vn -0.05808828 0.8639858 0.5001543
vn 0.2366674 0.7631938 0.6012684
vn 0.296122 0.8133917 0.5007052
vn 0.5719757 0.6643569 0.4811171
vn 0.6113982 0.7024759 0.3643073
vn 0.8384829 0.4863892 0.2457071
vn 0.8449214 0.5202687 0.1242117
vn 0.9672144 0.2141223 -0.1365578
vn 0.9223291 0.3255111 -0.2082104
vn 0.8410593 0.08378997 -0.5344142
vn 0.8328212 -0.05262788 -0.5510345
vn -0.4060077 0.9029512 0.140843
vn -0.6518557 0.7392371 -0.1691525
vn -0.6987178 0.5454184 -0.4629387
vn -0.04028398 0.9547758 0.2945848
vn 0.2852001 0.9074723 0.308472
vn 0.5614032 0.8030083 0.2000105
vn 0.7654617 0.6434088 -0.009667119
vn 0.8189446 0.4820176 -0.3114299
vn -0.0125624 0.9971697 0.07412729
vn -0.3045559 0.9515188 -0.04310152
vn -0.4856866 0.82346 -0.2932956
vn -0.5334619 0.6811926 -0.501393
vn -0.5117176 0.4829645 -0.7105564
vn -0.6792806 0.2999568 -0.6697789
vn -0.4743429 0.1945767 -0.8585678
vn -0.3574474 0.3831084 -0.851739
vn -0.328115 0.6247605 -0.7085301
vn -0.2297379 0.5313475 -0.8154081
vn -0.1546381 0.3166124 -0.9358652
vn -0.05420301 0.5185723 -0.853314
vn 0.1222799 0.4828292 -0.8671352
vn 0.1421312 0.2863554 -0.9475227
vn 0.31357 0.5232153 -0.7924138
vn 0.4433478 0.3296898 -0.833515
vn 0.1873826 0.06009108 -0.9804473
vn 0.5437804 0.1248473 -0.8298892
vn 0.7513056 0.2752087 -0.5998334
vn 0.5637813 -0.07424807 -0.82258
vn 0.6500311 0.4496522 -0.6125949
vn 0.6685086 0.6211193 -0.4090319
vn 0.6441475 0.7478155 -0.160767
vn 0.4822683 0.8758575 0.01705863
vn 0.2551101 0.9617828 0.09946285
vn 0.01923384 0.9886364 -0.1490911
vn -0.1905217 0.9514031 -0.2419372
vn -0.3353916 0.8514882 -0.4030885
vn -0.360567 0.747424 -0.5579863
vn 0.2057894 0.9701764 -0.1280952
vn 0.3677717 0.906843 -0.2058638
vn 0.5070378 0.8032829 -0.3124887
vn 0.4954157 0.7315269 -0.4684354
vn 0.4764791 0.6029015 -0.6399041
vn 0.1594513 0.9299916 -0.331196
vn 0.05205828 0.9397417 -0.3378986
vn -0.05193765 0.921211 -0.3855812
vn -0.1532902 0.869715 -0.4691461
vn -0.1754571 0.7957166 -0.5796981
vn -0.152678 0.7283582 -0.6679698
vn -0.08690681 0.6764172 -0.7313734
vn 0.005656688 0.6693513 -0.7429245
vn 0.09388582 0.6476199 -0.7561574
vn 0.2030231 0.6694082 -0.7146148
vn 0.2859416 0.7146888 -0.6383238
vn 0.3252295 0.77469 -0.5422925
vn 0.3208089 0.8460389 -0.4257933
vn 0.2271503 0.895604 -0.3824872
vn 0.07528892 0.8224594 -0.5638192
vn -0.1986189 0.100646 -0.9748954
g Mushroom5_0
f 3/3/3 2/2/2 1/1/1
f 4/4/4 2/2/2 3/3/3
f 1/1/1 5/5/5 3/3/3
f 6/6/6 3/3/3 5/5/5
f 5/5/5 7/7/7 6/6/6
f 8/8/8 6/6/6 7/7/7
f 7/7/7 9/9/9 8/8/8
f 10/10/10 8/8/8 9/9/9
f 9/9/9 11/11/11 10/10/10
f 12/12/12 10/10/10 11/11/11
f 4/4/4 13/13/13 2/2/2
f 13/13/13 4/4/4 14/14/14
f 15/15/15 4/4/4 3/3/3
f 3/3/3 6/6/6 15/15/15
f 16/16/16 4/4/4 15/15/15
f 17/17/17 15/15/15 6/6/6
f 6/6/6 8/8/8 17/17/17
f 18/18/18 17/17/17 8/8/8
f 8/8/8 10/10/10 18/18/18
f 19/19/19 18/18/18 10/10/10
f 10/10/10 12/12/12 19/19/19
f 20/20/20 19/19/19 12/12/12
f 15/15/15 17/17/17 21/21/21
f 17/17/17 18/18/18 22/22/22
f 23/23/23 22/22/22 18/18/18
f 26/26/26 25/25/25 24/24/24
f 25/25/25 26/26/26 27/27/27
f 27/27/27 28/28/28 25/25/25
f 28/28/28 27/27/27 29/29/29
f 29/29/29 30/30/30 28/28/28
f 31/31/31 28/28/28 30/30/30
f 30/30/30 32/32/32 31/31/31
f 33/33/33 31/31/31 32/32/32
f 32/32/32 34/34/34 33/33/33
f 35/35/35 33/33/33 34/34/34
f 34/34/34 36/36/36 35/35/35
f 37/37/37 35/35/35 36/36/36
f 36/36/36 38/38/38 37/37/37
f 39/39/39 37/37/37 38/38/38
f 38/38/38 40/40/40 39/39/39
f 41/41/41 40/40/40 38/38/38
f 28/28/28 31/31/31 42/42/42
f 42/42/42 25/25/25 28/28/28
f 25/25/25 42/42/42 43/43/43
f 43/43/43 24/24/24 25/25/25
f 24/24/24 43/43/43 44/44/44
f 45/45/45 42/42/42 31/31/31
f 31/31/31 33/33/33 45/45/45
f 46/46/46 45/45/45 33/33/33
f 33/33/33 35/35/35 46/46/46
f 47/47/47 46/46/46 35/35/35
f 35/35/35 37/37/37 47/47/47
f 48/48/48 47/47/47 37/37/37
f 37/37/37 39/39/39 48/48/48
f 49/49/49 48/48/48 39/39/39
f 45/45/45 46/46/46 50/50/50
f 50/50/50 51/51/51 45/45/45
f 42/42/42 45/45/45 51/51/51
f 51/51/51 43/43/43 42/42/42
f 43/43/43 51/51/51 52/52/52
f 52/52/52 44/44/44 43/43/43
f 44/44/44 52/52/52 53/53/53
f 53/53/53 54/54/54 44/44/44
f 55/55/55 44/44/44 54/54/54
f 55/55/55 54/54/54 56/56/56
f 57/57/57 56/56/56 54/54/54
f 54/54/54 58/58/58 57/57/57
f 59/59/59 57/57/57 58/58/58
f 57/57/57 59/59/59 60/60/60
f 61/61/61 60/60/60 59/59/59
f 61/61/61 62/62/62 60/60/60
f 63/63/63 60/60/60 62/62/62
f 62/62/62 64/64/64 63/63/63
f 65/65/65 63/63/63 64/64/64
f 63/63/63 65/65/65 66/66/66
f 67/67/67 66/66/66 65/65/65
f 65/65/65 68/68/68 67/67/67
f 67/67/67 68/68/68 40/40/40
f 68/68/68 39/39/39 40/40/40
f 39/39/39 68/68/68 49/49/49
f 67/67/67 40/40/40 69/69/69
f 70/70/70 49/49/49 68/68/68
f 65/65/65 70/70/70 68/68/68
f 49/49/49 70/70/70 71/71/71
f 71/71/71 72/72/72 49/49/49
f 48/48/48 49/49/49 72/72/72
f 72/72/72 73/73/73 48/48/48
f 47/47/47 48/48/48 73/73/73
f 73/73/73 74/74/74 47/47/47
f 46/46/46 47/47/47 74/74/74
f 74/74/74 50/50/50 46/46/46
f 50/50/50 74/74/74 75/75/75
f 75/75/75 76/76/76 50/50/50
f 51/51/51 50/50/50 76/76/76
f 76/76/76 52/52/52 51/51/51
f 76/76/76 77/77/77 52/52/52
f 52/52/52 77/77/77 53/53/53
f 78/78/78 53/53/53 77/77/77
f 53/53/53 78/78/78 54/54/54
f 58/58/58 54/54/54 78/78/78
f 79/79/79 75/75/75 74/74/74
f 74/74/74 73/73/73 79/79/79
f 80/80/80 79/79/79 73/73/73
f 73/73/73 72/72/72 80/80/80
f 81/81/81 80/80/80 72/72/72
f 72/72/72 71/71/71 81/81/81
f 82/82/82 81/81/81 71/71/71
f 71/71/71 83/83/83 82/82/82
f 83/83/83 71/71/71 70/70/70
f 70/70/70 65/65/65 83/83/83
f 64/64/64 83/83/83 65/65/65
f 79/79/79 80/80/80 84/84/84
f 84/84/84 85/85/85 79/79/79
f 75/75/75 79/79/79 85/85/85
f 85/85/85 86/86/86 75/75/75
f 76/76/76 75/75/75 86/86/86
f 86/86/86 87/87/87 76/76/76
f 77/77/77 76/76/76 87/87/87
f 77/77/77 87/87/87 78/78/78
f 88/88/88 78/78/78 87/87/87
f 78/78/78 88/88/88 58/58/58
f 89/89/89 58/58/58 88/88/88
f 58/58/58 89/89/89 59/59/59
f 90/90/90 59/59/59 89/89/89
f 59/59/59 90/90/90 61/61/61
f 91/91/91 61/61/61 90/90/90
f 91/91/91 92/92/92 61/61/61
f 62/62/62 61/61/61 92/92/92
f 92/92/92 93/93/93 62/62/62
f 64/64/64 62/62/62 93/93/93
f 93/93/93 94/94/94 64/64/64
f 83/83/83 64/64/64 94/94/94
f 94/94/94 95/95/95 83/83/83
f 82/82/82 83/83/83 95/95/95
f 95/95/95 96/96/96 82/82/82
f 81/81/81 82/82/82 96/96/96
f 81/81/81 96/96/96 80/80/80
f 97/97/97 80/80/80 96/96/96
f 97/97/97 84/84/84 80/80/80
f 98/98/98 93/93/93 92/92/92
f 98/98/98 92/92/92 91/91/91
f 98/98/98 84/84/84 97/97/97
f 98/98/98 97/97/97 96/96/96
f 98/98/98 96/96/96 95/95/95
f 98/98/98 95/95/95 94/94/94
f 98/98/98 94/94/94 93/93/93
f 98/98/98 91/91/91 90/90/90
f 98/98/98 90/90/90 89/89/89
f 98/98/98 89/89/89 88/88/88
f 98/98/98 88/88/88 87/87/87
f 98/98/98 87/87/87 86/86/86
f 98/98/98 86/86/86 85/85/85
f 98/98/98 85/85/85 84/84/84
f 60/60/60 63/63/63 99/99/99
