g NAX_SpiderNest_EggCluster4
v 396.1548 85.11366 -253.1459
v 400.2414 83.58581 -257.8188
v 403.5984 82.41859 -254.1085
v 402.0056 83.16575 -249.5032
v 404.6081 80.94109 -261.6081
v 402.7564 81.75974 -262.765
v 406.9082 78.83151 -254.2591
v 406.9713 77.31371 -249.318
v 408.9225 75.68027 -255.9624
v 408.6523 72.00973 -251.9454
v 406.4433 79.4213 -260.4076
v 407.0072 78.04533 -261.1284
v 403.0827 78.98993 -267.5369
v 407.5169 76.97478 -263.6699
v 400.4903 81.56057 -264.9664
v 408.4841 72.68506 -261.083
v 406.2549 70.53488 -265.6411
v 409.1041 66.22449 -257.6029
v 404.6693 61.66249 -263.3738
v 406.4377 76.36275 -267.1425
v 404.9568 75.85689 -269.0139
v 403.0018 70.00745 -269.0594
v 402.8738 75.79018 -270.28
v 400.9675 71.04584 -270.936
v 401.3459 76.33341 -270.6628
v 398.1789 72.94708 -271.6808
v 399.3354 80.68087 -266.8867
v 396.8371 83.56468 -262.0496
v 393.9953 81.79942 -265.8211
v 389.8316 83.938 -260.13
v 387.6534 81.29229 -264.0943
v 393.157 80.10159 -268.4867
v 386.9403 79.42619 -266.3018
v 393.3835 77.55611 -270.2526
v 387.4713 75.23953 -269.1102
v 398.5837 79.81924 -268.7701
v 398.9229 78.5535 -270.0497
v 399.8138 77.33656 -270.5661
v 395.4888 74.9374 -271.5078
v 390.3404 72.20411 -270.9576
v 394.2854 67.39223 -271.373
v 403.0018 70.00745 -269.0594
v 398.0043 64.83707 -269.718
v 401.7443 62.40355 -266.8757
v 400.9675 71.04584 -270.936
v 406.2549 70.53488 -265.6411
v 404.6693 61.66249 -263.3738
v 394.2854 67.39223 -271.373
v 398.1789 72.94708 -271.6808
v 382.4052 79.17258 -264.7396
v 385.7333 75.69982 -271.1591
v 387.9993 76.82574 -267.5868
v 381.4823 77.52176 -270.5035
v 381.2885 73.77943 -275.0831
v 379.5268 75.00918 -274.407
v 390.7784 70.57549 -270.3717
v 387.3979 71.7868 -273.2177
v 387.3646 68.44867 -274.89
v 389.945 65.68002 -272.0557
v 382.9073 70.6487 -276.1102
v 383.0638 72.04925 -275.7059
v 376.5659 72.31359 -276.1891
v 381.5198 69.35903 -277.2589
v 376.8653 75.46379 -273.6684
v 384.0797 65.70641 -276.549
v 376.8562 78.43333 -269.9518
v 374.9933 74.97824 -273.4456
v 372.8799 77.61909 -269.049
v 375.0074 80.99523 -262.4553
v 370.7286 79.11739 -263.002
v 373.357 74.38808 -273.5283
v 370.6949 76.28612 -269.19
v 369.6951 73.89097 -269.4427
v 367.4246 73.62101 -263.4474
v 368.9214 77.60596 -262.9554
v 372.7089 73.11953 -274.0363
v 372.8614 71.7458 -274.609
v 370.0252 70.87478 -270.8967
v 373.6263 70.38015 -275.5444
v 374.6989 69.43983 -276.382
v 376.6395 68.90007 -277.407
v 378.6656 68.95583 -277.8126
v 387.4599 60.24305 -272.1589
v 384.0797 65.70641 -276.549
v 380.142 64.171 -276.4491
v 382.0519 57.50312 -271.5476
v 377.7338 58.60789 -269.8165
v 376.032 64.49306 -275.0164
v 373.4679 65.81203 -273.967
v 372.9828 61.23307 -269.3034
v 376.6395 68.90007 -277.407
v 374.6989 69.43983 -276.382
v 378.6656 68.95583 -277.8126
v 369.6853 64.46435 -267.4442
v 371.3722 68.27124 -272.4668
v 370.0252 70.87478 -270.8967
v 367.7684 69.98641 -265.6702
v 372.8614 71.7458 -274.609
v 373.6263 70.38015 -275.5444
v 369.6951 73.89097 -269.4427
v 367.4246 73.62101 -263.4474
v 372.7089 73.11953 -274.0363
v 381.5198 69.35903 -277.2589
v 389.945 65.68002 -272.0557
v 360.1897 85.75357 -251.4272
v 358.2681 78.78476 -244.3275
v 359.7524 78.72864 -251.6537
v 358.8602 86.64804 -245.9013
v 359.805 81.66029 -237.1095
v 360.4406 88.6303 -241.3764
v 362.9062 84.68593 -258.6411
v 364.6566 77.11522 -260.6646
v 365.2856 84.8546 -233.8336
v 360.4406 88.6303 -241.3764
v 363.5453 90.33797 -238.475
v 360.4406 88.6303 -241.3764
v 365.2856 84.8546 -233.8336
v 359.805 81.66029 -237.1095
v 360.4406 88.6303 -241.3764
v 363.6518 93.1753 -244.9379
v 365.3788 93.31988 -243.8293
v 363.5453 90.33797 -238.475
v 358.8602 86.64804 -245.9013
v 363.5881 93.00356 -247.7305
v 363.7656 92.61101 -250.6618
v 360.1897 85.75357 -251.4272
v 369.9017 95.55205 -250.4899
v 368.1165 94.8067 -243.9286
v 365.9428 92.46433 -253.8161
v 369.9662 92.61655 -238.8674
v 365.2856 84.8546 -233.8336
v 371.8617 95.59129 -245.7042
v 376.5416 92.73441 -240.5819
v 372.828 89.19981 -234.2504
v 380.0918 90.00571 -237.3006
v 374.1331 95.83716 -247.3923
v 380.4297 93.66587 -244.6202
v 380.8308 94.15252 -248.4532
v 387.12 89.34245 -245.5106
v 384.83 89.84657 -240.6926
v 375.2706 95.96446 -249.7611
v 375.222 95.51769 -251.5923
v 386.7175 88.67754 -251.5754
v 380.3521 92.4166 -252.322
v 384.1486 85.22823 -257.2283
v 379.2903 91.24091 -255.6125
v 374.4531 94.93893 -253.4397
v 381.8 83.41676 -260.4532
v 376.4605 90.60377 -258.3303
v 375.4126 82.22475 -261.9405
v 372.6466 90.38129 -259.4191
v 373.0699 94.59962 -254.698
v 371.0819 93.86172 -255.1411
v 368.6026 93.08993 -254.6679
v 368.5666 88.25324 -259.5883
v 362.9062 84.68593 -258.6411
v 371.4602 80.69575 -261.7666
v 364.6566 77.11522 -260.6646
v 364.6348 67.11806 -219.1616
v 364.1531 77.27304 -216.4074
v 368.38 75.52135 -213.0198
v 371.0179 66.63235 -214.6062
v 358.3055 72.19373 -226.7931
v 360.3298 80.03233 -220.5324
v 358.8028 83.29041 -225.4219
v 357.8646 76.96844 -231.8848
v 359.0809 85.61314 -228.7409
v 358.4439 79.59591 -234.93
v 364.7796 84.7375 -217.1752
v 366.9587 84.55894 -215.9098
v 362.9575 85.73325 -220.0067
v 377.5904 72.26263 -216.0832
v 372.8571 78.37988 -212.8095
v 381.5093 77.49632 -216.3327
v 376.0018 81.87409 -214.1192
v 383.0397 84.03972 -221.2717
v 377.4167 86.24995 -218.9895
v 377.6726 88.72853 -224.8709
v 382.173 87.44791 -227.8665
v 371.1896 89.83507 -221.6161
v 371.8117 87.71182 -218.0877
v 376.0018 81.87409 -214.1192
v 381.5093 77.49632 -216.3327
v 371.2044 85.31349 -216.2061
v 372.8571 78.37988 -212.8095
v 366.1017 89.19521 -221.55
v 370.2178 90.89076 -223.983
v 374.7447 90.94019 -228.9485
v 371.3699 91.73856 -230.619
v 376.6952 89.5954 -236.9517
v 380.233 88.94679 -232.8576
v 368.3459 91.49194 -225.7416
v 366.7027 91.13393 -226.5349
v 371.0753 89.06493 -239.0558
v 367.9171 90.14639 -232.3206
v 365.2974 85.02164 -239.9047
v 364.6661 88.77257 -232.9839
v 364.8103 90.37091 -226.7213
v 363.2246 89.56802 -226.0484
v 361.7131 82.68075 -239.5721
v 361.2813 87.20557 -231.6357
v 358.4439 79.59591 -234.93
v 359.0809 85.61314 -228.7409
v 362.2646 88.15666 -224.7197
v 358.8028 83.29041 -225.4219
v 362.5782 86.75937 -222.6252
v 362.9575 85.73325 -220.0067
v 360.3298 80.03233 -220.5324
v 364.7796 84.7375 -217.1752
v 366.9587 84.55894 -215.9098
v 369.6405 84.53987 -214.9869
v 368.38 75.52135 -213.0198
v 398.7485 84.39569 -225.9313
v 398.0677 89.31788 -232.7298
v 400.9388 86.987 -229.6528
v 393.5934 87.18294 -229.0281
v 402.4355 88.88615 -236.4462
v 400.794 89.99683 -237.3076
v 404.6998 85.14622 -231.012
v 404.5416 81.3354 -227.8656
v 407.5932 79.76976 -232.4698
v 407.186 83.76947 -233.7269
v 404.2944 87.50158 -235.9079
v 405.0308 86.66771 -237.166
v 401.8059 89.7744 -242.7186
v 405.682 86.60118 -239.788
v 399.0934 90.8839 -239.6618
v 407.9874 83.50169 -239.5005
v 404.8683 86.98744 -243.2667
v 406.959 83.59166 -244.7683
v 410.2233 78.2556 -239.8219
v 408.9315 78.1515 -247.3707
v 403.8425 87.46474 -245.3748
v 404.5167 84.77502 -248.6507
v 402.3633 88.43592 -246.8049
v 402.3777 86.19376 -250.2259
v 401.7495 82.12566 -253.1434
v 405.8053 79.54674 -250.8944
v 401.0739 89.22237 -247.0911
v 397.9335 84.57938 -254.2545
v 399.422 87.69112 -250.4036
v 396.95 89.36933 -249.9682
v 393.5081 87.5602 -252.4453
v 399.6564 90.10928 -246.7363
v 394.8334 91.09797 -248.0859
v 390.68 89.34622 -250.757
v 389.2143 90.70001 -245.9567
v 394.0594 92.2613 -245.2663
v 398.6883 90.91373 -245.799
v 398.0856 91.30958 -244.1144
v 398.3996 91.03559 -241.9564
v 388.8256 90.52478 -242.5047
v 394.0714 92.10354 -241.7955
v 389.1392 89.88663 -236.589
v 395.5599 91.37581 -236.8533
v 414.8674 48.13676 -242.344
v 413.1922 58.10711 -220.3837
v 415.172 59.50818 -242.2706
v 412.9848 46.80085 -221.5572
v 410.5093 69.15079 -221.1463
v 413.89 70.19173 -241.9322
v 394.3284 55.73026 -210.308
v 392.5776 66.86809 -211.7454
v 405.3003 78.84452 -223.7538
v 408.572 79.72211 -241.4146
v 391.7943 77.16998 -212.2892
v 398.2476 86.22868 -227.9228
v 401.221 86.85594 -240.727
v 391.7943 77.16998 -212.2892
v 388.1411 85.03033 -219.6412
v 391.1876 90.93624 -240.045
v 389.4068 90.61993 -233.3488
v 384.0335 89.99368 -229.0047
v 375.0268 83.7023 -219.0027
v 374.6204 75.06702 -216.5167
v 377.1389 89.29548 -228.669
v 364.0281 82.74471 -226.2323
v 358.6055 74.02409 -221.3611
v 374.2923 64.75816 -211.7415
v 355.6195 63.48384 -218.333
v 348.0439 63.12568 -238.2937
v 352.1613 73.71941 -238.3407
v 356.8728 74.54444 -255.8635
v 353.5826 64.09555 -258.893
v 370.1201 66.023 -272.2626
v 370.9404 76.18403 -267.2364
v 380.7721 67.1324 -271.6048
v 381.8168 55.99117 -273.5186
v 370.6093 54.82553 -274.1494
v 380.0637 77.12647 -266.9233
v 372.9899 84.314 -259.5627
v 379.6607 84.98953 -259.8875
v 362.7692 83.12276 -251.2998
v 359.3461 82.52335 -238.5687
v 376.068 89.61707 -249.9927
v 379.575 89.97222 -250.1634
v 370.6947 88.99081 -245.6486
v 368.895 88.67567 -238.9555
v 371.3565 88.79205 -232.4698
v 379.8734 91.57416 -239.4631
v 382.9626 90.31525 -250.3284
v 385.8375 90.56557 -248.4386
v 388.745 90.8187 -246.5275
v 391.4639 86.12456 -256.6236
v 396.8842 86.61254 -253.0055
v 395.9578 78.68069 -263.2033
v 403.0036 79.35703 -258.2357
v 399.3263 68.96268 -267.5337
v 407.4034 69.7625 -261.7064
v 401.4843 57.95369 -268.8745
v 409.4275 58.89571 -262.7181
v 409.3906 47.55047 -261.7847
v 412.4579 58.98709 -252.8224
v 412.3437 47.62902 -252.3853
v 401.7973 46.65714 -267.6609
v 409.7334 69.98735 -251.9965
v 405.2295 79.54888 -249.9775
v 398.9998 86.73099 -246.9506
v 389.955 90.87623 -243.3318
v 372.36 43.68771 -272.7119
v 383.0121 44.79709 -272.0541
v 391.1759 68.1791 -272.4638
v 388.9907 78.01192 -268.1153
v 392.757 57.09221 -274.4037
v 393.4158 45.8438 -272.9131
v 386.1042 85.64204 -260.2012
v 370.6093 54.82553 -274.1494
v 355.8226 41.76025 -259.3423
v 372.36 43.68771 -272.7119
v 353.2207 52.79889 -260.0917
v 347.397 51.7791 -238.4323
v 350.2839 40.79037 -238.743
v 357.8595 41.14855 -218.7823
v 355.3625 52.1557 -217.4444
v 374.951 53.50975 -210.251
v 376.5322 42.42286 -212.1909
v 394.8175 44.53278 -212.1947
v 353.5826 64.09555 -258.893
v 348.0439 63.12568 -238.2937
v 355.6195 63.48384 -218.333
v 394.3284 55.73026 -210.308
v 412.9848 46.80085 -221.5572
v 413.1922 58.10711 -220.3837
v 374.2923 64.75816 -211.7415
v 392.5776 66.86809 -211.7454
v 370.6093 54.82553 -274.1494
v 370.1201 66.023 -272.2626
v 392.5776 66.86809 -211.7454
v 374.6204 75.06702 -216.5167
v 391.7943 77.16998 -212.2892
v 353.2207 52.79889 -260.0917
v 370.6093 54.82553 -274.1494
v 392.5776 66.86809 -211.7454
v 391.7943 77.16998 -212.2892
v 381.8168 55.99117 -273.5186
v 383.0121 44.79709 -272.0541
v 393.4158 45.8438 -272.9131
v 392.757 57.09221 -274.4037
v 384.3729 78.32023 -215.4482
v 391.1982 79.11256 -211.2632
v 388.2716 74.28828 -211.6352
v 395.4879 77.68839 -211.5294
v 394.8621 71.77063 -212.0804
v 399.204 77.39708 -213.2339
v 399.9789 71.64925 -215.5383
v 391.1982 79.11256 -211.2632
v 384.3729 78.32023 -215.4482
v 389.463 82.88594 -213.8483
v 382.299 83.69415 -223.1326
v 388.3896 86.70784 -217.3937
v 389.1025 89.71445 -221.6345
v 384.6071 87.04617 -227.5214
v 393.5924 89.32539 -219.3369
v 393.2618 88.17739 -217.1886
v 390.6086 91.35449 -224.357
v 386.4892 88.66699 -230.0152
v 392.8854 91.35377 -226.9335
v 390.2968 89.14989 -234.0888
v 395.6181 91.06024 -222.1494
v 394.1962 90.60799 -221.0161
v 397.274 88.6313 -218.5641
v 397.0779 90.69154 -222.8148
v 393.8546 86.16887 -214.9833
v 393.9338 88.51396 -234.5371
v 395.9151 90.46593 -228.2878
v 399.9836 87.50577 -234.0521
v 398.782 89.31831 -227.915
v 398.7211 90.02252 -222.7717
v 399.9768 89.1835 -222.212
v 403.851 84.27134 -232.7068
v 401.9249 88.07357 -226.6535
v 403.585 85.39281 -225.5699
v 407.0364 78.89534 -231.9169
v 400.8178 87.50753 -220.9066
v 400.835 86.01692 -219.0289
v 404.1622 81.83665 -222.472
v 400.0148 83.94382 -216.193
v 402.6232 79.80753 -217.4059
v 405.9955 72.79511 -221.3768
v 408.4137 75.12399 -229.0057
v 399.9789 71.64925 -215.5383
v 399.204 77.39708 -213.2339
v 398.2314 82.60872 -214.6678
v 395.4879 77.68839 -211.5294
v 396.8128 82.92317 -213.5465
v 395.132 84.62692 -214.1007
v 413.1859 65.90801 -216.9057
v 406.5142 62.12363 -217.8666
v 405.5091 68.56773 -219.5043
v 412.7279 69.7661 -218.8243
v 412.6193 73.22658 -221.8581
v 405.6931 74.67334 -224.5557
v 412.6747 74.9494 -225.8033
v 406.9589 75.84054 -228.8097
v 416.1994 71.31222 -223.1123
v 416.0469 71.92068 -225.0506
v 413.3925 75.32671 -228.4431
v 408.0642 76.0616 -231.1862
v 413.8721 74.00008 -230.918
v 409.4026 74.36749 -234.8928
v 416.8662 71.89228 -228.0888
v 416.292 72.46315 -226.7384
v 418.3616 69.11357 -225.4204
v 417.3776 70.70226 -228.9401
v 416.6964 69.48533 -221.2936
v 411.1414 71.40569 -236.1452
v 415.0222 71.42921 -232.5662
v 416.2332 68.64668 -232.987
v 413.5728 66.52839 -237.5936
v 418.1239 69.18111 -229.2793
v 418.7245 67.78197 -229.1017
v 417.9248 65.7833 -232.7207
v 419.2417 66.05486 -228.0075
v 418.7051 63.29031 -231.595
v 414.4408 61.61035 -237.118
v 415.0931 58.16673 -236.3826
v 419.524 64.98501 -226.246
v 419.5292 60.75662 -228.3971
v 419.5301 59.87571 -223.9937
v 419.4418 64.02124 -223.424
v 418.3807 64.22024 -221.5423
v 417.8311 60.1342 -219.6601
v 415.749 62.44977 -217.6349
v 417.9926 65.29824 -220.4449
v 417.3073 67.5613 -220.7798
v 415.749 62.44977 -217.6349
v 409.8121 56.11398 -219.2991
v 417.8311 60.1342 -219.6601
v 412.9578 53.85129 -222.3101
v 415.749 62.44977 -217.6349
v 419.5301 59.87571 -223.9937
v 413.6671 49.79488 -229.3674
v 419.5292 60.75662 -228.3971
v 413.9785 53.32137 -234.4334
v 415.0931 58.16673 -236.3826
v 406.5142 62.12363 -217.8666
v 413.1859 65.90801 -216.9057
v 418.3807 64.22024 -221.5423
v 415.749 62.44977 -217.6349
v 417.9926 65.29824 -220.4449
v 419.4418 64.02124 -223.424
vt 0.224607 0.496594
vt 0.2327 0.487877
vt 0.239298 0.494287
vt 0.236074 0.502713
vt 0.24183 0.480524
vt 0.238109 0.478619
vt 0.246978 0.493251
vt 0.247826 0.501774
vt 0.252107 0.489533
vt 0.253389 0.495934
vt 0.245859 0.482359
vt 0.247536 0.480782
vt 0.240047 0.469496
vt 0.248966 0.47601
vt 0.234142 0.474629
vt 0.252764 0.479752
vt 0.249818 0.471172
vt 0.256967 0.484621
vt 0.251255 0.473411
vt 0.247331 0.46967
vt 0.244926 0.466219
vt 0.244266 0.464964
vt 0.241232 0.46394
vt 0.240132 0.461822
vt 0.238233 0.463364
vt 0.234224 0.460869
vt 0.232503 0.471005
vt 0.226599 0.480277
vt 0.222374 0.473145
vt 0.213836 0.483801
vt 0.211252 0.476138
vt 0.221713 0.468019
vt 0.210908 0.471798
vt 0.22338 0.464343
vt 0.213949 0.465923
vt 0.231579 0.467454
vt 0.232809 0.464907
vt 0.235 0.463738
vt 0.228439 0.461574
vt 0.220585 0.462014
vt 0.229993 0.460317
vt 0.244266 0.464964
vt 0.237864 0.46276
vt 0.245697 0.467332
vt 0.240132 0.461822
vt 0.249818 0.471172
vt 0.251255 0.473411
vt 0.229993 0.460317
vt 0.234224 0.460869
vt 0.202909 0.474545
vt 0.21061 0.46235
vt 0.214103 0.468968
vt 0.202088 0.463887
vt 0.203624 0.454953
vt 0.199855 0.456403
vt 0.222172 0.462736
vt 0.215536 0.457894
vt 0.217133 0.454254
vt 0.223099 0.458763
vt 0.208085 0.452506
vt 0.207664 0.453501
vt 0.195924 0.45269
vt 0.206254 0.450206
vt 0.194865 0.457814
vt 0.212638 0.450764
vt 0.193342 0.465058
vt 0.191763 0.458116
vt 0.186636 0.466511
vt 0.188724 0.479016
vt 0.182015 0.477647
vt 0.189137 0.457852
vt 0.183406 0.46599
vt 0.182843 0.465057
vt 0.179049 0.476098
vt 0.179637 0.477667
vt 0.188624 0.456694
vt 0.189594 0.455401
vt 0.184973 0.461858
vt 0.191653 0.453464
vt 0.194043 0.451786
vt 0.197778 0.449853
vt 0.201364 0.44914
vt 0.221353 0.457511
vt 0.212638 0.450764
vt 0.206391 0.450645
vt 0.2131 0.45806
vt 0.204885 0.461351
vt 0.198913 0.453258
vt 0.193682 0.455384
vt 0.195128 0.462782
vt 0.197778 0.449853
vt 0.194043 0.451786
vt 0.201364 0.44914
vt 0.187628 0.466734
vt 0.188702 0.458541
vt 0.184973 0.461858
vt 0.181399 0.471009
vt 0.189594 0.455401
vt 0.191653 0.453464
vt 0.182843 0.465057
vt 0.179049 0.476098
vt 0.188624 0.456694
vt 0.206254 0.450206
vt 0.223099 0.458763
vt 0.161328 0.504816
vt 0.161295 0.515327
vt 0.164 0.502241
vt 0.15845 0.514887
vt 0.162277 0.527581
vt 0.160107 0.522828
vt 0.166175 0.489852
vt 0.172806 0.48332
vt 0.169659 0.531423
vt 0.160107 0.522828
vt 0.164322 0.526682
vt 0.160107 0.522828
vt 0.169659 0.531423
vt 0.162277 0.527581
vt 0.160107 0.522828
vt 0.163283 0.51698
vt 0.166087 0.51822
vt 0.164322 0.526682
vt 0.15845 0.514887
vt 0.163298 0.512026
vt 0.16392 0.506944
vt 0.161328 0.504816
vt 0.172719 0.505709
vt 0.169929 0.517408
vt 0.167646 0.500403
vt 0.173956 0.524243
vt 0.169659 0.531423
vt 0.175791 0.513022
vt 0.185465 0.520605
vt 0.180598 0.530549
vt 0.193259 0.525562
vt 0.17955 0.509391
vt 0.191996 0.513815
vt 0.192471 0.507011
vt 0.206246 0.511248
vt 0.20187 0.5197
vt 0.181506 0.50505
vt 0.181649 0.501647
vt 0.205858 0.500188
vt 0.192496 0.499656
vt 0.202981 0.489285
vt 0.191184 0.493473
vt 0.180632 0.498399
vt 0.19968 0.483112
vt 0.186414 0.488443
vt 0.188823 0.480194
vt 0.179666 0.48645
vt 0.178483 0.496568
vt 0.175518 0.496323
vt 0.171764 0.497955
vt 0.173904 0.487132
vt 0.166175 0.489852
vt 0.182517 0.480188
vt 0.172806 0.48332
vt 0.177278 0.551128
vt 0.171189 0.558428
vt 0.179656 0.564064
vt 0.188902 0.55907
vt 0.163832 0.541085
vt 0.162907 0.552316
vt 0.159027 0.54642
vt 0.161039 0.534914
vt 0.158597 0.542094
vt 0.160887 0.530812
vt 0.16844 0.559024
vt 0.172446 0.561094
vt 0.164647 0.554471
vt 0.19778 0.557795
vt 0.186206 0.565141
vt 0.202149 0.558616
vt 0.190059 0.56365
vt 0.20159 0.551339
vt 0.190365 0.555972
vt 0.189558 0.546541
vt 0.198306 0.54096
vt 0.177321 0.552114
vt 0.179537 0.557948
vt 0.190059 0.56365
vt 0.202149 0.558616
vt 0.179683 0.560746
vt 0.186206 0.565141
vt 0.168495 0.552474
vt 0.175024 0.54837
vt 0.183151 0.539988
vt 0.17666 0.537258
vt 0.187354 0.52614
vt 0.194053 0.532879
vt 0.17134 0.545611
vt 0.168566 0.544269
vt 0.177533 0.522409
vt 0.171377 0.534378
vt 0.169901 0.522023
vt 0.166646 0.534203
vt 0.16571 0.544338
vt 0.163386 0.545761
vt 0.165072 0.523268
vt 0.161672 0.537181
vt 0.160887 0.530812
vt 0.158597 0.542094
vt 0.162363 0.547648
vt 0.159027 0.54642
vt 0.163429 0.550235
vt 0.164647 0.554471
vt 0.162907 0.552316
vt 0.16844 0.559024
vt 0.172446 0.561094
vt 0.177273 0.562746
vt 0.179656 0.564064
vt 0.229621 0.543631
vt 0.225962 0.533144
vt 0.232279 0.537801
vt 0.218975 0.538917
vt 0.234035 0.526507
vt 0.230533 0.525373
vt 0.239942 0.53481
vt 0.241518 0.539281
vt 0.24775 0.531154
vt 0.245078 0.529874
vt 0.238059 0.527038
vt 0.239792 0.524698
vt 0.232464 0.51604
vt 0.240995 0.520227
vt 0.227031 0.521639
vt 0.246647 0.520051
vt 0.239343 0.514423
vt 0.244757 0.511149
vt 0.253194 0.518468
vt 0.250931 0.505443
vt 0.237265 0.510966
vt 0.239794 0.504595
vt 0.234127 0.508718
vt 0.235256 0.502075
vt 0.236124 0.495956
vt 0.244655 0.499434
vt 0.231419 0.508377
vt 0.228067 0.494488
vt 0.229204 0.502081
vt 0.223924 0.503231
vt 0.218633 0.498381
vt 0.228429 0.509211
vt 0.219253 0.506999
vt 0.212652 0.501806
vt 0.209332 0.510746
vt 0.217277 0.512337
vt 0.226287 0.511077
vt 0.225005 0.514164
vt 0.225707 0.51778
vt 0.208721 0.516808
vt 0.217377 0.518323
vt 0.209607 0.526714
vt 0.220422 0.526552
vt 0.275727 0.507858
vt 0.268089 0.54676
vt 0.270945 0.510329
vt 0.273023 0.542287
vt 0.258074 0.548012
vt 0.26361 0.513112
vt 0.23575 0.564072
vt 0.227206 0.564225
vt 0.244091 0.545648
vt 0.249528 0.516034
vt 0.220726 0.565775
vt 0.227815 0.540686
vt 0.232851 0.518802
vt 0.220726 0.565775
vt 0.210253 0.554506
vt 0.212767 0.521082
vt 0.209719 0.532372
vt 0.200361 0.53957
vt 0.187375 0.555332
vt 0.191051 0.557698
vt 0.188307 0.540212
vt 0.168147 0.542961
vt 0.162999 0.549652
vt 0.195682 0.563718
vt 0.163094 0.552282
vt 0.15195 0.52476
vt 0.153539 0.526313
vt 0.161092 0.494005
vt 0.160764 0.486719
vt 0.187611 0.458462
vt 0.183898 0.469466
vt 0.206034 0.459853
vt 0.21343 0.454267
vt 0.194136 0.452923
vt 0.199747 0.470217
vt 0.183404 0.484899
vt 0.19504 0.484457
vt 0.166879 0.503103
vt 0.161167 0.525781
vt 0.186215 0.503241
vt 0.192346 0.503011
vt 0.177053 0.511478
vt 0.174086 0.523283
vt 0.178161 0.533469
vt 0.192064 0.522239
vt 0.19827 0.502789
vt 0.203319 0.506247
vt 0.208427 0.509744
vt 0.215675 0.490561
vt 0.225175 0.497169
vt 0.227434 0.477197
vt 0.239726 0.486238
vt 0.238215 0.467477
vt 0.252239 0.478036
vt 0.247376 0.462894
vt 0.26103 0.474014
vt 0.266321 0.473372
vt 0.26637 0.491609
vt 0.271503 0.49
vt 0.253325 0.46281
vt 0.256289 0.495411
vt 0.243622 0.501077
vt 0.228919 0.50808
vt 0.210577 0.515481
vt 0.202795 0.453313
vt 0.221047 0.454689
vt 0.224062 0.458528
vt 0.215287 0.468262
vt 0.232301 0.452911
vt 0.238909 0.453374
vt 0.206286 0.48403
vt 0.194136 0.452923
vt 0.175055 0.477892
vt 0.202795 0.453313
vt 0.165598 0.481169
vt 0.156411 0.521108
vt 0.166354 0.515696
vt 0.178496 0.545998
vt 0.168476 0.551045
vt 0.20249 0.563634
vt 0.21078 0.557541
vt 0.242014 0.558226
vt 0.160764 0.486719
vt 0.15195 0.52476
vt 0.163094 0.552282
vt 0.23575 0.564072
vt 0.273023 0.542287
vt 0.268089 0.54676
vt 0.195682 0.563718
vt 0.227206 0.564225
vt 0.194136 0.452923
vt 0.187611 0.458462
vt 0.227206 0.564225
vt 0.191051 0.557698
vt 0.220726 0.565775
vt 0.165598 0.481169
vt 0.194136 0.452923
vt 0.227206 0.564225
vt 0.220726 0.565775
vt 0.21343 0.454267
vt 0.221047 0.454689
vt 0.238909 0.453374
vt 0.232301 0.452911
vt 0.206862 0.5604
vt 0.218694 0.568091
vt 0.215854 0.566238
vt 0.227082 0.567263
vt 0.228875 0.564825
vt 0.233879 0.56414
vt 0.238073 0.55862
vt 0.218694 0.568091
vt 0.206862 0.5604
vt 0.213701 0.564385
vt 0.200435 0.548122
vt 0.209857 0.558952
vt 0.209627 0.552052
vt 0.202886 0.541433
vt 0.217904 0.556093
vt 0.217882 0.559679
vt 0.211514 0.547823
vt 0.205452 0.537588
vt 0.215616 0.543471
vt 0.212061 0.530803
vt 0.220685 0.551449
vt 0.21835 0.553381
vt 0.224874 0.557315
vt 0.223497 0.550339
vt 0.21995 0.563152
vt 0.218923 0.529866
vt 0.221516 0.540896
vt 0.230305 0.53042
vt 0.227247 0.541378
vt 0.226788 0.550407
vt 0.229464 0.551059
vt 0.238845 0.53176
vt 0.233517 0.543162
vt 0.237818 0.544256
vt 0.247176 0.531892
vt 0.231805 0.552829
vt 0.23257 0.555845
vt 0.240593 0.548658
vt 0.232117 0.560435
vt 0.238825 0.557253
vt 0.248265 0.548465
vt 0.251464 0.536099
vt 0.238073 0.55862
vt 0.233879 0.56414
vt 0.229574 0.562846
vt 0.227082 0.567263
vt 0.226873 0.564936
vt 0.223011 0.564359
vt 0.264389 0.554798
vt 0.254316 0.552184
vt 0.249435 0.550802
vt 0.261739 0.552301
vt 0.259894 0.547707
vt 0.246816 0.543436
vt 0.259169 0.541444
vt 0.248516 0.536505
vt 0.267201 0.545014
vt 0.26664 0.541889
vt 0.260273 0.53706
vt 0.250387 0.532568
vt 0.261764 0.532519
vt 0.253597 0.525993
vt 0.268116 0.536767
vt 0.26682 0.539164
vt 0.2721 0.540735
vt 0.269593 0.535087
vt 0.268953 0.547828
vt 0.258124 0.523194
vt 0.265043 0.529134
vt 0.268524 0.527822
vt 0.264784 0.519633
vt 0.271644 0.534217
vt 0.273374 0.534231
vt 0.27289 0.527701
vt 0.275108 0.535692
vt 0.275451 0.529073
vt 0.268655 0.519391
vt 0.271435 0.519915
vt 0.276113 0.538424
vt 0.278103 0.533915
vt 0.278516 0.541149
vt 0.276419 0.54297
vt 0.274437 0.54614
vt 0.275376 0.548523
vt 0.270586 0.552674
vt 0.273239 0.548349
vt 0.270952 0.548288
vt 0.270586 0.552674
vt 0.263031 0.548215
vt 0.275376 0.548523
vt 0.269675 0.542555
vt 0.270586 0.552674
vt 0.278516 0.541149
vt 0.272831 0.529895
vt 0.278103 0.533915
vt 0.271732 0.522159
vt 0.271435 0.519915
vt 0.254316 0.552184
vt 0.264389 0.554798
vt 0.274437 0.54614
vt 0.270586 0.552674
vt 0.273239 0.548349
vt 0.276419 0.54297
vn 0.2193747 0.9710655 -0.09437334
vn 0.3382001 0.933426 -0.1197359
vn 0.5538377 0.8325406 -0.01182778
vn 0.6244248 0.7744653 0.1014754
vn 0.5814431 0.7855132 -0.2118797
vn 0.3830887 0.8734955 -0.3004139
vn 0.7897019 0.6062741 0.09382141
vn 0.8750858 0.4450691 0.1901006
vn 0.9501916 0.3116271 -0.004937163
vn 0.9960411 0.0588959 0.06658504
vn 0.7924985 0.5963727 -0.1276153
vn 0.9405899 0.3337135 -0.06265744
vn 0.4578544 0.6994808 -0.5487221
vn 0.9088141 0.3509401 -0.2256059
vn 0.2474403 0.8594545 -0.4473379
vn 0.9834334 0.0583842 -0.1716104
vn 0.8345849 -0.1960631 -0.5148081
vn 0.9510497 -0.1030094 -0.2913647
vn 0.7850854 -0.2813232 -0.5518136
vn 0.8153785 0.2962724 -0.4973736
vn 0.6571856 0.1326414 -0.7419658
vn 0.5951171 -0.2627643 -0.7594673
vn 0.473441 0.1902353 -0.8600373
vn 0.3502178 -0.15917 -0.9230452
vn 0.2834881 0.3088933 -0.9078653
vn 0.108599 0.05934504 -0.9923126
vn 0.170976 0.8579274 -0.4844872
vn 0.1205182 0.940074 -0.3189614
vn -0.04227703 0.8813418 -0.470584
vn -0.08364068 0.9343458 -0.3464135
vn -0.226593 0.8325043 -0.5055613
vn -0.1675871 0.7332579 -0.6589745
vn -0.3256912 0.6036395 -0.7276981
vn -0.198281 0.4704727 -0.8598489
vn -0.3199417 0.3909155 -0.8630309
vn 0.1011448 0.7757426 -0.6228909
vn 0.1098407 0.5771046 -0.8092499
vn 0.1845734 0.4143505 -0.891205
vn -0.062728 0.2127123 -0.9750993
vn -0.212885 0.1826954 -0.9598449
vn 0.04942801 -0.1156886 -0.9920551
vn 0.5951171 -0.2627643 -0.7594673
vn 0.3914367 -0.3349649 -0.8570741
vn 0.6257375 -0.3057981 -0.7175932
vn 0.3502178 -0.15917 -0.9230452
vn 0.8345849 -0.1960631 -0.5148081
vn 0.7850854 -0.2813232 -0.5518136
vn 0.04942801 -0.1156886 -0.9920551
vn 0.108599 0.05934504 -0.9923126
vn 0.2023143 0.9244833 -0.3231092
vn 0.4150235 0.7110946 -0.5675385
vn 0.4227782 0.7522966 -0.5052805
vn 0.2203863 0.8427391 -0.4911424
vn 0.2006329 0.621919 -0.7569433
vn 0.05358295 0.7111976 -0.700947
vn 0.6955312 0.3813024 -0.6089702
vn 0.5471103 0.414456 -0.7272528
vn 0.5855057 0.153521 -0.7959989
vn 0.6633109 -0.1395098 -0.735225
vn 0.4603046 0.2279541 -0.8579957
vn 0.3416607 0.417571 -0.8419634
vn -0.1885271 0.4647406 -0.8651438
vn 0.2605372 0.1688163 -0.95059
vn -0.1673631 0.7019568 -0.6922761
vn 0.398694 -0.1490286 -0.9048943
vn -0.06983603 0.8674554 -0.4925893
vn -0.251126 0.7123026 -0.6554087
vn -0.3398812 0.8122458 -0.4740649
vn -0.1582827 0.9268711 -0.340377
vn -0.4773633 0.8074995 -0.3465093
vn -0.442306 0.6109923 -0.6565469
vn -0.6846133 0.5863733 -0.4329791
vn -0.8368706 0.2889115 -0.4649494
vn -0.8958868 0.297472 -0.3299957
vn -0.7597611 0.5577419 -0.3341961
vn -0.6307152 0.351447 -0.6918694
vn -0.6689438 0.1536653 -0.7272559
vn -0.8624427 0.002051516 -0.5061505
vn -0.6102652 0.1091585 -0.7846406
vn -0.5748107 -0.03122199 -0.8176905
vn -0.3787315 -0.114332 -0.9184174
vn -0.08295186 -0.04459915 -0.9955551
vn 0.3300056 -0.4600769 -0.8242726
vn 0.398694 -0.1490286 -0.9048943
vn -0.06329872 -0.4710562 -0.8798292
vn -0.1260432 -0.6107481 -0.7817288
vn -0.422295 -0.6426306 -0.6392908
vn -0.3783499 -0.5100328 -0.7724753
vn -0.6167957 -0.4344596 -0.6563595
vn -0.5846989 -0.5476318 -0.5985204
vn -0.3787315 -0.114332 -0.9184174
vn -0.5748107 -0.03122199 -0.8176905
vn -0.08295186 -0.04459915 -0.9955551
vn -0.8281531 -0.2926809 -0.478017
vn -0.7869052 -0.1724372 -0.5924911
vn -0.8624427 0.002051516 -0.5061505
vn -0.9227546 0.01062355 -0.3852416
vn -0.6689438 0.1536653 -0.7272559
vn -0.6102652 0.1091585 -0.7846406
vn -0.8368706 0.2889115 -0.4649494
vn -0.8958868 0.297472 -0.3299957
vn -0.6307152 0.351447 -0.6918694
vn 0.2605372 0.1688163 -0.95059
vn 0.6633109 -0.1395098 -0.735225
vn -0.8995408 0.2754344 -0.3390609
vn -0.9934789 0.06778552 -0.09167722
vn -0.9384918 0.01931615 -0.3447611
vn -0.9218171 0.3859833 -0.03563609
vn -0.893262 0.2715062 0.358284
vn -0.7391473 0.5397386 0.4029188
vn -0.6654594 0.2736042 -0.6944815
vn -0.6257582 0.06311864 -0.7774591
vn -0.4867222 0.516051 0.7048353
vn -0.7391473 0.5397386 0.4029188
vn -0.4886121 0.684953 0.5404605
vn -0.7391473 0.5397386 0.4029188
vn -0.4867222 0.516051 0.7048353
vn -0.893262 0.2715062 0.358284
vn -0.7391473 0.5397386 0.4029188
vn -0.5622511 0.813367 0.1493581
vn -0.4131284 0.8567893 0.308605
vn -0.4886121 0.684953 0.5404605
vn -0.9218171 0.3859833 -0.03563609
vn -0.6307943 0.7710326 -0.08721957
vn -0.6741582 0.6783552 -0.2921386
vn -0.8995408 0.2754344 -0.3390609
vn -0.2410419 0.9570938 -0.1608418
vn -0.2777112 0.930303 0.2396099
vn -0.5319452 0.6807966 -0.5035377
vn -0.1449741 0.824113 0.5475585
vn -0.4867222 0.516051 0.7048353
vn -0.001173755 0.9657413 0.2595039
vn 0.1560202 0.8812721 0.4461133
vn -0.0251575 0.7938489 0.6075944
vn 0.2434976 0.8456974 0.4748735
vn 0.1171831 0.9755229 0.1860731
vn 0.3596863 0.8856634 0.2936428
vn 0.4526107 0.8880639 -0.08053707
vn 0.5866034 0.806705 0.07157935
vn 0.4508116 0.8373564 0.3091975
vn 0.2096799 0.9672598 -0.1429784
vn 0.2557727 0.9091473 -0.3286817
vn 0.5436626 0.7441468 -0.3881706
vn 0.4843762 0.7657356 -0.4231178
vn 0.5299801 0.6239851 -0.5742505
vn 0.4758815 0.7001995 -0.5322193
vn 0.2081091 0.8829404 -0.4208408
vn 0.3844123 0.5162437 -0.7653233
vn 0.2916375 0.616891 -0.731022
vn 0.03838289 0.3114081 -0.9495008
vn -0.03527367 0.5840651 -0.81094
vn 0.01343074 0.8544738 -0.5193209
vn -0.2794465 0.7791504 -0.561101
vn -0.3471084 0.771123 -0.5337463
vn -0.2984186 0.4872399 -0.8206971
vn -0.6654594 0.2736042 -0.6944815
vn -0.2181077 0.198229 -0.9555806
vn -0.6257582 0.06311864 -0.7774591
vn -0.6894633 -0.2417624 0.6827819
vn -0.689185 -0.0399957 0.7234808
vn -0.2928827 -0.05092234 0.9547914
vn -0.1576319 -0.2186489 0.9629875
vn -0.9133506 -0.1028143 0.3939793
vn -0.8284128 0.1067252 0.5498564
vn -0.9050346 0.308146 0.293187
vn -0.9938263 0.1081193 0.02488562
vn -0.8803498 0.4743046 -0.004391529
vn -0.899959 0.3617007 -0.2434059
vn -0.57375 0.4115904 0.7080991
vn -0.4015504 0.4202329 0.8137331
vn -0.7020659 0.5304761 0.4750775
vn 0.2747976 -0.2199409 0.9360087
vn 0.1814341 0.1034893 0.9779425
vn 0.4603073 0.06306707 0.8855166
vn 0.3366634 0.4469966 0.8287652
vn 0.5200129 0.6654491 0.5355034
vn 0.3525683 0.7423277 0.5697764
vn 0.3781592 0.8713626 0.3126065
vn 0.425631 0.8761324 0.2263413
vn 0.14801 0.8919633 0.4271938
vn 0.05018528 0.7543908 0.6545044
vn 0.3366634 0.4469966 0.8287652
vn 0.4603073 0.06306707 0.8855166
vn 0.09083453 0.6264376 0.7741609
vn 0.1814341 0.1034893 0.9779425
vn -0.3207458 0.8093293 0.492045
vn 0.1190562 0.9475534 0.2965941
vn 0.305907 0.9472687 0.0954098
vn -0.02409548 0.9948707 -0.09824304
vn 0.195043 0.9668186 -0.1649852
vn 0.3480012 0.9374347 0.01055131
vn -0.1220358 0.969296 0.2134771
vn -0.323511 0.9460647 0.0173864
vn -0.2600965 0.9099215 -0.3230986
vn -0.3429843 0.889484 -0.3019603
vn -0.4288061 0.79369 -0.4314877
vn -0.4283972 0.8264008 -0.365428
vn -0.4097693 0.9110957 -0.04465052
vn -0.5748028 0.8091112 0.1222321
vn -0.6415105 0.6511071 -0.4056156
vn -0.6564531 0.7032666 -0.2729201
vn -0.899959 0.3617007 -0.2434059
vn -0.8803498 0.4743046 -0.004391529
vn -0.6954757 0.6168553 0.3685147
vn -0.9050346 0.308146 0.293187
vn -0.6848024 0.6003297 0.413098
vn -0.7020659 0.5304761 0.4750775
vn -0.8284128 0.1067252 0.5498564
vn -0.57375 0.4115904 0.7080991
vn -0.4015504 0.4202329 0.8137331
vn -0.06688244 0.5446519 0.8359912
vn -0.2928827 -0.05092234 0.9547914
vn 0.2953908 0.6993229 0.6509161
vn 0.1878437 0.8765292 0.4431831
vn 0.3671676 0.7852773 0.4985253
vn -0.04514426 0.868092 0.4943465
vn 0.4852406 0.8379946 0.2496126
vn 0.3797067 0.905885 0.1876042
vn 0.6414145 0.5869538 0.494037
vn 0.6892044 0.4440828 0.5725275
vn 0.891346 0.2805617 0.356072
vn 0.836024 0.4978212 0.2307332
vn 0.6640297 0.73484 0.1381114
vn 0.7282822 0.6809453 0.07693236
vn 0.5386902 0.8407142 -0.05488492
vn 0.7171435 0.6964127 0.02673127
vn 0.2941239 0.9545286 0.04864589
vn 0.8734175 0.4861865 0.02765157
vn 0.7458453 0.6493833 -0.1483783
vn 0.8331745 0.5008964 -0.2343566
vn 0.9177781 0.3960677 -0.02852612
vn 0.8319917 0.4307378 -0.3496495
vn 0.7170096 0.6537183 -0.2419703
vn 0.7346481 0.4958033 -0.4631104
vn 0.635668 0.7051641 -0.3141174
vn 0.5467567 0.5972683 -0.5867944
vn 0.6132561 0.4115462 -0.6742008
vn 0.6975293 0.4208179 -0.5799701
vn 0.4715956 0.7907267 -0.3903188
vn 0.3464676 0.6177949 -0.7058963
vn 0.3762184 0.716463 -0.5874865
vn 0.263703 0.7714512 -0.5790716
vn 0.1047632 0.7356724 -0.6691866
vn 0.4152716 0.8260506 -0.381038
vn 0.04726772 0.8768988 -0.4783452
vn -0.04740945 0.8674885 -0.4951929
vn -0.243969 0.9376007 -0.2477582
vn -0.01964141 0.9906405 -0.135076
vn 0.3369607 0.9021378 -0.2694529
vn 0.2989785 0.9542596 -0.0007468629
vn 0.2957275 0.95491 0.0263049
vn -0.3011675 0.9517612 0.05872602
vn 0.01380058 0.9963138 0.08466678
vn -0.2362401 0.9383179 0.2524877
vn 0.05079307 0.9579617 0.2823642
vn 0.9965152 -0.02488102 -0.07961452
vn 0.8846635 0.05853324 0.4625412
vn 0.9891542 0.1158801 -0.0902545
vn 0.7232407 -0.09458042 0.6840888
vn 0.7641727 0.3070649 0.5672313
vn 0.921684 0.3759257 -0.09580392
vn 0.2713728 0.03219294 0.9619358
vn 0.2049241 0.2275344 0.9519634
vn 0.6921629 0.5327329 0.4869354
vn 0.7691591 0.6389291 -0.01279393
vn 0.3398881 0.4449586 0.8285456
vn 0.4606672 0.8273175 0.3214522
vn 0.5750201 0.8149845 -0.07177802
vn 0.3236639 0.5852284 0.7434711
vn 0.08944058 0.7637874 0.6392411
vn 0.2699486 0.9628747 -0.0002108952
vn 0.1730956 0.9579213 0.2289641
vn -0.001510794 0.93843 0.345466
vn -0.2203974 0.6857629 0.6936527
vn -0.2422763 0.381927 0.891871
vn -0.2101123 0.9176757 0.3372299
vn -0.5356356 0.6990468 0.4737384
vn -0.6165568 0.4811917 0.623147
vn -0.1761933 0.2621455 0.9488076
vn -0.6943438 0.1793447 0.6969378
vn -0.9632314 0.2635241 0.05234728
vn -0.8343016 0.54902 0.05017839
vn -0.722916 0.5097986 -0.4663668
vn -0.8308308 0.1876131 -0.523948
vn -0.3147574 0.2993983 -0.9007155
vn -0.2490652 0.5503332 -0.7969316
vn -0.05598452 0.3349383 -0.9405754
vn -0.01322475 0.01880204 -0.9997358
vn -0.4233535 -0.02422233 -0.9056408
vn -0.09939073 0.5948461 -0.7976713
vn -0.2914353 0.7589801 -0.5822496
vn -0.1104374 0.8217876 -0.558989
vn -0.5770967 0.7619044 -0.2940425
vn -0.6237872 0.7804053 0.0430958
vn -0.2202003 0.9228274 -0.3160718
vn -0.1106098 0.9464956 -0.3031693
vn -0.3918249 0.9090843 -0.1415593
vn -0.4012825 0.9153246 0.03395686
vn -0.3743015 0.9038219 0.2073751
vn -0.08149294 0.9966415 -0.008038218
vn -5.062024E-05 0.9450895 -0.3268114
vn 0.08103848 0.9645754 -0.251052
vn 0.1879111 0.9604762 -0.2053649
vn 0.226765 0.8604206 -0.4563486
vn 0.4449502 0.8132395 -0.3750478
vn 0.3958496 0.6278425 -0.6701618
vn 0.6507884 0.588732 -0.4794469
vn 0.4934236 0.3521139 -0.7953294
vn 0.7756584 0.3197446 -0.5441666
vn 0.5771196 0.06448082 -0.81411
vn 0.8186074 0.07677394 -0.5691991
vn 0.8228302 -0.04771253 -0.5662808
vn 0.9595754 0.08792797 -0.2673647
vn 0.9622925 -0.02011916 -0.2712716
vn 0.5637132 -0.07428961 -0.8226229
vn 0.8977916 0.3385166 -0.2817388
vn 0.7478315 0.6050426 -0.2732609
vn 0.4749219 0.859902 -0.1871305
vn 0.2104584 0.9727846 -0.09693972
vn -0.1631556 -0.1533639 -0.9746074
vn 0.00297122 -0.1294082 -0.9915869
vn 0.1921216 0.3253886 -0.9258571
vn 0.08344472 0.562745 -0.8224081
vn 0.3370489 0.05068719 -0.9401217
vn 0.1396718 -0.1225847 -0.9825807
vn 0.08075112 0.7955442 -0.6004903
vn -0.4233535 -0.02422233 -0.9056408
vn -0.8075677 -0.2272906 -0.5442182
vn -0.1631556 -0.1533639 -0.9746074
vn -0.8334359 -0.07256108 -0.5478318
vn -0.9937463 -0.1006327 0.04838793
vn -0.9659051 -0.255015 0.04466121
vn -0.671989 -0.2437904 0.6992832
vn -0.6980079 -0.08443956 0.7110943
vn -0.1900618 -0.06044875 0.9799095
vn -0.148821 -0.1909939 0.9702441
vn 0.1736483 -0.1577219 0.9720958
vn -0.8308308 0.1876131 -0.523948
vn -0.9632314 0.2635241 0.05234728
vn -0.6943438 0.1793447 0.6969378
vn 0.2713728 0.03219294 0.9619358
vn 0.7232407 -0.09458042 0.6840888
vn 0.8846635 0.05853324 0.4625412
vn -0.1761933 0.2621455 0.9488076
vn 0.2049241 0.2275344 0.9519634
vn -0.4233535 -0.02422233 -0.9056408
vn -0.3147574 0.2993983 -0.9007155
vn 0.2049241 0.2275344 0.9519634
vn -0.2422763 0.381927 0.891871
vn 0.05200728 0.2745339 0.9601699
vn -0.8334359 -0.07256108 -0.5478318
vn -0.4233535 -0.02422233 -0.9056408
vn 0.2049241 0.2275344 0.9519634
vn 0.08062638 0.5780351 0.8120189
vn -0.01322475 0.01880204 -0.9997358
vn 0.00297122 -0.1294082 -0.9915869
vn 0.1396718 -0.1225847 -0.9825807
vn 0.3370489 0.05068719 -0.9401217
vn -0.5753459 0.3702148 0.7293272
vn -0.1558923 0.302752 0.9402333
vn -0.1640754 0.02328146 0.9861731
vn 0.2936446 0.0781536 0.9527144
vn 0.3342312 -0.1624063 0.9283931
vn 0.5876921 0.02557217 0.8086804
vn 0.6893429 -0.1489637 0.7089543
vn -0.1558923 0.302752 0.9402333
vn -0.5753459 0.3702148 0.7293272
vn -0.416407 0.4806937 0.7717116
vn -0.6944053 0.5758272 0.4315371
vn -0.4160999 0.696669 0.5843913
vn -0.4482238 0.8098707 0.378424
vn -0.6341326 0.7629774 0.1254642
vn -0.123187 0.8417276 0.5256612
vn -0.08026709 0.8155845 0.5730436
vn -0.3066587 0.9439971 0.121778
vn -0.4038003 0.9066932 -0.1218724
vn 0.0247426 0.9838737 -0.1771451
vn -0.0950544 0.9605223 -0.2614608
vn 0.1481875 0.9589741 0.2416797
vn -0.06677094 0.872728 0.4836192
vn 0.3392905 0.7386801 0.5824378
vn 0.3343081 0.9400741 0.06707183
vn -0.03650936 0.6466357 0.7619247
vn 0.1431633 0.9307119 -0.3365701
vn 0.2665181 0.9388245 -0.2181208
vn 0.4199284 0.8816279 -0.2153891
vn 0.4508094 0.8764719 -0.1690201
vn 0.4220465 0.8982652 0.1224591
vn 0.6333104 0.7207503 0.2818456
vn 0.7340179 0.6642374 -0.1414436
vn 0.6435785 0.7629081 -0.06146442
vn 0.8615617 0.4879645 0.140008
vn 0.9028684 0.4197946 0.09274252
vn 0.7363141 0.5570711 0.3840745
vn 0.7115953 0.5071331 0.4862593
vn 0.8826645 0.3428525 0.3214894
vn 0.6398386 0.4189959 0.6442431
vn 0.770648 0.1525653 0.6187289
vn 0.8608572 0.1335692 0.4910032
vn 0.9093021 0.3329639 0.2496095
vn 0.6893429 -0.1489637 0.7089543
vn 0.5876921 0.02557217 0.8086804
vn 0.5364498 0.3326745 0.7755961
vn 0.2936446 0.0781536 0.9527144
vn 0.391394 0.4068916 0.8253787
vn 0.110692 0.5333297 0.8386339
vn 0.2850103 0.2810783 0.9163864
vn -0.09708903 -0.08796954 0.9913804
vn -0.1904114 0.4862987 0.8527936
vn 0.1654342 0.559242 0.8123299
vn 0.218876 0.7576466 0.61487
vn -0.04088625 0.868937 0.493231
vn 0.3693663 0.8820967 0.2923592
vn 0.05047601 0.9815252 0.1845548
vn 0.6726403 0.676459 0.2999303
vn 0.6943903 0.6793891 0.2371762
vn 0.4419323 0.8969485 -0.01338968
vn 0.2510847 0.9482675 -0.1942817
vn 0.5791556 0.7024451 -0.4137021
vn 0.463963 0.7623115 -0.4512423
vn 0.790394 0.6029407 -0.1083498
vn 0.7040915 0.6801588 0.2040568
vn 0.8983655 0.4178395 0.1354606
vn 0.824487 0.5066006 -0.2521451
vn 0.6464729 0.5082722 0.5689746
vn 0.5944933 0.5185822 -0.6145324
vn 0.7040066 0.4956966 -0.5085859
vn 0.7403879 0.4010068 -0.539462
vn 0.7143635 0.3165183 -0.6241002
vn 0.8617398 0.4135767 -0.2938688
vn 0.9170589 0.3111727 -0.2493485
vn 0.8532473 0.1947458 -0.48378
vn 0.9758121 0.1629335 -0.1457514
vn 0.9015173 -0.0003131146 -0.4327428
vn 0.778572 0.02063355 -0.6272161
vn 0.8597944 -0.1911298 -0.473522
vn 0.9926552 0.1207585 0.007296138
vn 0.9561229 -0.2001726 -0.2139157
vn 0.9341553 -0.2673853 0.236345
vn 0.9514211 0.06727549 0.3004525
vn 0.8670475 -0.04608168 0.4960898
vn 0.6793119 -0.3389755 0.6508694
vn 0.4668383 -0.1276268 0.8750848
vn 0.8243344 0.1419667 0.548013
vn 0.7565631 0.3493337 0.5527912
vn 0.4668383 -0.1276268 0.8750848
vn 0.1983615 -0.4396789 0.8759766
vn 0.6793119 -0.3389755 0.6508694
vn 0.5771738 -0.6353527 0.5130277
vn 0.4668383 -0.1276268 0.8750848
vn 0.9341553 -0.2673853 0.236345
vn 0.846643 -0.5315219 0.02607783
vn 0.9561229 -0.2001726 -0.2139157
vn 0.8651646 -0.3936496 -0.3106927
vn 0.8597944 -0.1911298 -0.473522
vn -0.09708903 -0.08796954 0.9913804
vn 0.2850103 0.2810783 0.9163864
vn 0.8670475 -0.04608168 0.4960898
vn 0.4668383 -0.1276268 0.8750848
vn 0.8243344 0.1419667 0.548013
vn 0.9514211 0.06727549 0.3004525
g NAX_SpiderNest_EggCluster4_0
f 3/3/3 2/2/2 1/1/1
f 3/3/3 1/1/1 4/4/4
f 2/2/2 3/3/3 5/5/5
f 5/5/5 6/6/6 2/2/2
f 3/3/3 4/4/4 7/7/7
f 8/8/8 7/7/7 4/4/4
f 7/7/7 8/8/8 9/9/9
f 10/10/10 9/9/9 8/8/8
f 7/7/7 9/9/9 11/11/11
f 5/5/5 3/3/3 11/11/11
f 7/7/7 11/11/11 3/3/3
f 12/12/12 11/11/11 9/9/9
f 11/11/11 13/13/13 5/5/5
f 13/13/13 6/6/6 5/5/5
f 12/12/12 14/14/14 11/11/11
f 14/14/14 13/13/13 11/11/11
f 6/6/6 13/13/13 15/15/15
f 9/9/9 10/10/10 16/16/16
f 12/12/12 16/16/16 14/14/14
f 16/16/16 12/12/12 9/9/9
f 16/16/16 17/17/17 14/14/14
f 18/18/18 17/17/17 16/16/16
f 18/18/18 16/16/16 10/10/10
f 17/17/17 18/18/18 19/19/19
f 20/20/20 14/14/14 17/17/17
f 13/13/13 14/14/14 20/20/20
f 21/21/21 13/13/13 20/20/20
f 20/20/20 17/17/17 21/21/21
f 22/22/22 21/21/21 17/17/17
f 21/21/21 22/22/22 23/23/23
f 13/13/13 21/21/21 23/23/23
f 24/24/24 23/23/23 22/22/22
f 25/25/25 13/13/13 23/23/23
f 23/23/23 24/24/24 25/25/25
f 26/26/26 25/25/25 24/24/24
f 13/13/13 27/27/27 15/15/15
f 15/15/15 27/27/27 28/28/28
f 29/29/29 28/28/28 27/27/27
f 28/28/28 29/29/29 30/30/30
f 31/31/31 30/30/30 29/29/29
f 32/32/32 31/31/31 29/29/29
f 31/31/31 32/32/32 33/33/33
f 32/32/32 34/34/34 33/33/33
f 35/35/35 33/33/33 34/34/34
f 34/34/34 32/32/32 36/36/36
f 36/36/36 29/29/29 27/27/27
f 29/29/29 36/36/36 32/32/32
f 36/36/36 37/37/37 34/34/34
f 27/27/27 13/13/13 36/36/36
f 13/13/13 37/37/37 36/36/36
f 37/37/37 13/13/13 38/38/38
f 13/13/13 25/25/25 38/38/38
f 25/25/25 26/26/26 38/38/38
f 39/39/39 38/38/38 26/26/26
f 38/38/38 39/39/39 37/37/37
f 34/34/34 37/37/37 39/39/39
f 39/39/39 40/40/40 34/34/34
f 35/35/35 34/34/34 40/40/40
f 40/40/40 39/39/39 41/41/41
f 26/26/26 41/41/41 39/39/39
f 1/1/1 28/28/28 30/30/30
f 2/2/2 28/28/28 1/1/1
f 2/2/2 6/6/6 28/28/28
f 15/15/15 28/28/28 6/6/6
f 44/44/44 43/43/43 42/42/42
f 45/45/45 42/42/42 43/43/43
f 42/42/42 46/46/46 44/44/44
f 44/44/44 46/46/46 47/47/47
f 43/43/43 48/48/48 45/45/45
f 45/45/45 48/48/48 49/49/49
f 52/52/52 51/51/51 50/50/50
f 53/53/53 50/50/50 51/51/51
f 51/51/51 54/54/54 53/53/53
f 55/55/55 53/53/53 54/54/54
f 52/52/52 56/56/56 51/51/51
f 51/51/51 56/56/56 57/57/57
f 57/57/57 56/56/56 58/58/58
f 59/59/59 58/58/58 56/56/56
f 58/58/58 60/60/60 57/57/57
f 61/61/61 57/57/57 60/60/60
f 57/57/57 61/61/61 51/51/51
f 54/54/54 51/51/51 61/61/61
f 61/61/61 62/62/62 54/54/54
f 62/62/62 55/55/55 54/54/54
f 60/60/60 63/63/63 61/61/61
f 63/63/63 62/62/62 61/61/61
f 55/55/55 62/62/62 64/64/64
f 58/58/58 59/59/59 65/65/65
f 65/65/65 60/60/60 58/58/58
f 63/63/63 60/60/60 65/65/65
f 53/53/53 66/66/66 50/50/50
f 64/64/64 66/66/66 55/55/55
f 53/53/53 55/55/55 66/66/66
f 64/64/64 67/67/67 66/66/66
f 62/62/62 67/67/67 64/64/64
f 68/68/68 66/66/66 67/67/67
f 66/66/66 68/68/68 69/69/69
f 70/70/70 69/69/69 68/68/68
f 67/67/67 62/62/62 71/71/71
f 67/67/67 71/71/71 68/68/68
f 68/68/68 72/72/72 70/70/70
f 68/68/68 71/71/71 72/72/72
f 73/73/73 72/72/72 71/71/71
f 73/73/73 74/74/74 72/72/72
f 74/74/74 75/75/75 72/72/72
f 75/75/75 70/70/70 72/72/72
f 71/71/71 76/76/76 73/73/73
f 62/62/62 76/76/76 71/71/71
f 76/76/76 62/62/62 77/77/77
f 73/73/73 76/76/76 78/78/78
f 69/69/69 50/50/50 66/66/66
f 62/62/62 79/79/79 77/77/77
f 79/79/79 62/62/62 80/80/80
f 62/62/62 81/81/81 80/80/80
f 81/81/81 62/62/62 82/82/82
f 62/62/62 63/63/63 82/82/82
f 85/85/85 84/84/84 83/83/83
f 85/85/85 83/83/83 86/86/86
f 86/86/86 87/87/87 85/85/85
f 88/88/88 85/85/85 87/87/87
f 89/89/89 88/88/88 87/87/87
f 87/87/87 90/90/90 89/89/89
f 88/88/88 89/89/89 91/91/91
f 92/92/92 91/91/91 89/89/89
f 85/85/85 88/88/88 93/93/93
f 91/91/91 93/93/93 88/88/88
f 94/94/94 89/89/89 90/90/90
f 95/95/95 89/89/89 94/94/94
f 95/95/95 92/92/92 89/89/89
f 96/96/96 95/95/95 94/94/94
f 96/96/96 94/94/94 97/97/97
f 95/95/95 96/96/96 98/98/98
f 98/98/98 99/99/99 95/95/95
f 99/99/99 92/92/92 95/95/95
f 96/96/96 97/97/97 100/100/100
f 101/101/101 100/100/100 97/97/97
f 98/98/98 96/96/96 102/102/102
f 93/93/93 103/103/103 85/85/85
f 84/84/84 85/85/85 103/103/103
f 83/83/83 84/84/84 104/104/104
f 107/107/107 106/106/106 105/105/105
f 108/108/108 105/105/105 106/106/106
f 109/109/109 108/108/108 106/106/106
f 109/109/109 110/110/110 108/108/108
f 111/111/111 107/107/107 105/105/105
f 107/107/107 111/111/111 112/112/112
f 115/115/115 114/114/114 113/113/113
f 118/118/118 117/117/117 116/116/116
f 121/121/121 120/120/120 119/119/119
f 121/121/121 119/119/119 122/122/122
f 119/119/119 120/120/120 123/123/123
f 124/124/124 123/123/123 120/120/120
f 124/124/124 125/125/125 123/123/123
f 126/126/126 123/123/123 125/125/125
f 120/120/120 127/127/127 124/124/124
f 127/127/127 125/125/125 124/124/124
f 127/127/127 120/120/120 121/121/121
f 128/128/128 127/127/127 121/121/121
f 125/125/125 127/127/127 129/129/129
f 129/129/129 126/126/126 125/125/125
f 122/122/122 130/130/130 121/121/121
f 128/128/128 121/121/121 130/130/130
f 122/122/122 131/131/131 130/130/130
f 128/128/128 130/130/130 132/132/132
f 127/127/127 128/128/128 132/132/132
f 133/133/133 132/132/132 130/130/130
f 130/130/130 134/134/134 133/133/133
f 134/134/134 130/130/130 131/131/131
f 135/135/135 133/133/133 134/134/134
f 136/136/136 127/127/127 132/132/132
f 132/132/132 133/133/133 136/136/136
f 133/133/133 135/135/135 137/137/137
f 137/137/137 136/136/136 133/133/133
f 137/137/137 138/138/138 136/136/136
f 138/138/138 137/137/137 139/139/139
f 140/140/140 139/139/139 137/137/137
f 140/140/140 137/137/137 135/135/135
f 141/141/141 136/136/136 138/138/138
f 127/127/127 136/136/136 141/141/141
f 142/142/142 127/127/127 141/141/141
f 138/138/138 139/139/139 143/143/143
f 144/144/144 138/138/138 143/143/143
f 144/144/144 141/141/141 138/138/138
f 142/142/142 141/141/141 144/144/144
f 143/143/143 145/145/145 144/144/144
f 146/146/146 144/144/144 145/145/145
f 144/144/144 146/146/146 142/142/142
f 147/147/147 142/142/142 146/146/146
f 148/148/148 146/146/146 145/145/145
f 149/149/149 146/146/146 148/148/148
f 146/146/146 149/149/149 147/147/147
f 148/148/148 150/150/150 149/149/149
f 151/151/151 149/149/149 150/150/150
f 149/149/149 151/151/151 152/152/152
f 152/152/152 147/147/147 149/149/149
f 153/153/153 152/152/152 151/151/151
f 152/152/152 127/127/127 147/147/147
f 127/127/127 152/152/152 153/153/153
f 127/127/127 142/142/142 147/147/147
f 154/154/154 127/127/127 153/153/153
f 151/151/151 150/150/150 155/155/155
f 153/153/153 155/155/155 154/154/154
f 155/155/155 153/153/153 151/151/151
f 154/154/154 155/155/155 129/129/129
f 127/127/127 154/154/154 129/129/129
f 155/155/155 156/156/156 129/129/129
f 156/156/156 155/155/155 157/157/157
f 157/157/157 155/155/155 150/150/150
f 156/156/156 157/157/157 158/158/158
f 156/156/156 126/126/126 129/129/129
f 161/161/161 160/160/160 159/159/159
f 161/161/161 159/159/159 162/162/162
f 159/159/159 160/160/160 163/163/163
f 164/164/164 163/163/163 160/160/160
f 164/164/164 165/165/165 163/163/163
f 166/166/166 163/163/163 165/165/165
f 165/165/165 167/167/167 166/166/166
f 168/168/168 166/166/166 167/167/167
f 160/160/160 169/169/169 164/164/164
f 170/170/170 169/169/169 160/160/160
f 170/170/170 160/160/160 161/161/161
f 171/171/171 164/164/164 169/169/169
f 161/161/161 162/162/162 172/172/172
f 173/173/173 161/161/161 172/172/172
f 172/172/172 174/174/174 173/173/173
f 175/175/175 173/173/173 174/174/174
f 178/178/178 177/177/177 176/176/176
f 178/178/178 176/176/176 179/179/179
f 177/177/177 178/178/178 180/180/180
f 181/181/181 177/177/177 180/180/180
f 177/177/177 182/182/182 176/176/176
f 183/183/183 176/176/176 182/182/182
f 182/182/182 177/177/177 184/184/184
f 181/181/181 184/184/184 177/177/177
f 185/185/185 182/182/182 184/184/184
f 181/181/181 186/186/186 184/184/184
f 186/186/186 181/181/181 180/180/180
f 187/187/187 186/186/186 180/180/180
f 180/180/180 178/178/178 187/187/187
f 178/178/178 179/179/179 188/188/188
f 188/188/188 187/187/187 178/178/178
f 188/188/188 189/189/189 187/187/187
f 189/189/189 188/188/188 190/190/190
f 191/191/191 190/190/190 188/188/188
f 191/191/191 188/188/188 179/179/179
f 192/192/192 187/187/187 189/189/189
f 186/186/186 187/187/187 192/192/192
f 193/193/193 186/186/186 192/192/192
f 192/192/192 189/189/189 193/193/193
f 194/194/194 189/189/189 190/190/190
f 189/189/189 194/194/194 195/195/195
f 195/195/195 193/193/193 189/189/189
f 194/194/194 196/196/196 195/195/195
f 197/197/197 195/195/195 196/196/196
f 198/198/198 193/193/193 195/195/195
f 197/197/197 198/198/198 195/195/195
f 186/186/186 193/193/193 198/198/198
f 199/199/199 186/186/186 198/198/198
f 200/200/200 197/197/197 196/196/196
f 197/197/197 200/200/200 201/201/201
f 201/201/201 198/198/198 197/197/197
f 199/199/199 198/198/198 201/201/201
f 200/200/200 202/202/202 201/201/201
f 203/203/203 201/201/201 202/202/202
f 201/201/201 203/203/203 199/199/199
f 204/204/204 199/199/199 203/203/203
f 203/203/203 205/205/205 204/204/204
f 206/206/206 204/204/204 205/205/205
f 206/206/206 205/205/205 207/207/207
f 205/205/205 208/208/208 207/207/207
f 206/206/206 186/186/186 204/204/204
f 186/186/186 206/206/206 207/207/207
f 186/186/186 199/199/199 204/204/204
f 209/209/209 186/186/186 207/207/207
f 186/186/186 209/209/209 210/210/210
f 211/211/211 186/186/186 210/210/210
f 186/186/186 211/211/211 184/184/184
f 184/184/184 211/211/211 185/185/185
f 210/210/210 212/212/212 211/211/211
f 185/185/185 211/211/211 212/212/212
f 215/215/215 214/214/214 213/213/213
f 216/216/216 213/213/213 214/214/214
f 214/214/214 215/215/215 217/217/217
f 217/217/217 218/218/218 214/214/214
f 215/215/215 213/213/213 219/219/219
f 215/215/215 219/219/219 217/217/217
f 220/220/220 219/219/219 213/213/213
f 220/220/220 221/221/221 219/219/219
f 222/222/222 219/219/219 221/221/221
f 219/219/219 222/222/222 223/223/223
f 223/223/223 217/217/217 219/219/219
f 224/224/224 223/223/223 222/222/222
f 223/223/223 225/225/225 217/217/217
f 223/223/223 224/224/224 225/225/225
f 225/225/225 218/218/218 217/217/217
f 226/226/226 225/225/225 224/224/224
f 218/218/218 225/225/225 227/227/227
f 222/222/222 221/221/221 228/228/228
f 224/224/224 222/222/222 228/228/228
f 226/226/226 224/224/224 228/228/228
f 229/229/229 226/226/226 228/228/228
f 225/225/225 226/226/226 229/229/229
f 229/229/229 228/228/228 230/230/230
f 230/230/230 228/228/228 231/231/231
f 231/231/231 228/228/228 221/221/221
f 230/230/230 231/231/231 232/232/232
f 233/233/233 225/225/225 229/229/229
f 229/229/229 230/230/230 233/233/233
f 230/230/230 232/232/232 234/234/234
f 234/234/234 233/233/233 230/230/230
f 233/233/233 234/234/234 235/235/235
f 225/225/225 233/233/233 235/235/235
f 236/236/236 235/235/235 234/234/234
f 236/236/236 234/234/234 237/237/237
f 238/238/238 237/237/237 234/234/234
f 238/238/238 234/234/234 232/232/232
f 239/239/239 225/225/225 235/235/235
f 235/235/235 236/236/236 239/239/239
f 237/237/237 240/240/240 236/236/236
f 236/236/236 240/240/240 241/241/241
f 241/241/241 239/239/239 236/236/236
f 241/241/241 240/240/240 242/242/242
f 243/243/243 242/242/242 240/240/240
f 241/241/241 242/242/242 244/244/244
f 244/244/244 239/239/239 241/241/241
f 242/242/242 243/243/243 245/245/245
f 246/246/246 245/245/245 243/243/243
f 246/246/246 247/247/247 245/245/245
f 248/248/248 245/245/245 247/247/247
f 245/245/245 248/248/248 249/249/249
f 244/244/244 242/242/242 249/249/249
f 245/245/245 249/249/249 242/242/242
f 250/250/250 249/249/249 248/248/248
f 249/249/249 225/225/225 244/244/244
f 225/225/225 249/249/249 250/250/250
f 225/225/225 239/239/239 244/244/244
f 251/251/251 225/225/225 250/250/250
f 247/247/247 252/252/252 248/248/248
f 248/248/248 252/252/252 253/253/253
f 250/250/250 253/253/253 251/251/251
f 248/248/248 253/253/253 250/250/250
f 252/252/252 254/254/254 253/253/253
f 255/255/255 253/253/253 254/254/254
f 227/227/227 253/253/253 255/255/255
f 251/251/251 253/253/253 227/227/227
f 225/225/225 251/251/251 227/227/227
f 216/216/216 255/255/255 254/254/254
f 214/214/214 255/255/255 216/216/216
f 227/227/227 255/255/255 218/218/218
f 214/214/214 218/218/218 255/255/255
f 258/258/258 257/257/257 256/256/256
f 259/259/259 256/256/256 257/257/257
f 257/257/257 258/258/258 260/260/260
f 261/261/261 260/260/260 258/258/258
f 260/260/260 262/262/262 257/257/257
f 262/262/262 260/260/260 263/263/263
f 260/260/260 261/261/261 264/264/264
f 264/264/264 263/263/263 260/260/260
f 265/265/265 264/264/264 261/261/261
f 263/263/263 264/264/264 266/266/266
f 264/264/264 265/265/265 267/267/267
f 268/268/268 267/267/267 265/265/265
f 264/264/264 267/267/267 269/269/269
f 270/270/270 269/269/269 267/267/267
f 271/271/271 267/267/267 268/268/268
f 271/271/271 272/272/272 267/267/267
f 267/267/267 272/272/272 270/270/270
f 273/273/273 270/270/270 272/272/272
f 270/270/270 273/273/273 274/274/274
f 275/275/275 270/270/270 274/274/274
f 276/276/276 274/274/274 273/273/273
f 276/276/276 277/277/277 274/274/274
f 274/274/274 277/277/277 275/275/275
f 278/278/278 275/275/275 277/277/277
f 275/275/275 278/278/278 279/279/279
f 280/280/280 279/279/279 278/278/278
f 280/280/280 278/278/278 281/281/281
f 282/282/282 281/281/281 278/278/278
f 278/278/278 277/277/277 282/282/282
f 282/282/282 283/283/283 281/281/281
f 284/284/284 281/281/281 283/283/283
f 285/285/285 284/284/284 283/283/283
f 286/286/286 285/285/285 283/283/283
f 287/287/287 285/285/285 286/286/286
f 287/287/287 288/288/288 285/285/285
f 288/288/288 289/289/289 285/285/285
f 290/290/290 287/287/287 286/286/286
f 290/290/290 286/286/286 291/291/291
f 286/286/286 283/283/283 291/291/291
f 292/292/292 290/290/290 291/291/291
f 293/293/293 291/291/291 283/283/283
f 283/283/283 282/282/282 293/293/293
f 294/294/294 293/293/293 282/282/282
f 294/294/294 282/282/282 277/277/277
f 295/295/295 292/292/292 291/291/291
f 291/291/291 293/293/293 295/295/295
f 295/295/295 296/296/296 292/292/292
f 297/297/297 295/295/295 293/293/293
f 293/293/293 294/294/294 297/297/297
f 298/298/298 297/297/297 294/294/294
f 299/299/299 294/294/294 277/277/277
f 298/298/298 294/294/294 299/299/299
f 276/276/276 299/299/299 277/277/277
f 296/296/296 295/295/295 300/300/300
f 300/300/300 295/295/295 297/297/297
f 300/300/300 297/297/297 298/298/298
f 300/300/300 298/298/298 299/299/299
f 300/300/300 299/299/299 276/276/276
f 300/300/300 301/301/301 296/296/296
f 296/296/296 301/301/301 292/292/292
f 301/301/301 300/300/300 302/302/302
f 302/302/302 300/300/300 303/303/303
f 302/302/302 303/303/303 304/304/304
f 302/302/302 304/304/304 301/301/301
f 305/305/305 304/304/304 303/303/303
f 304/304/304 305/305/305 306/306/306
f 307/307/307 306/306/306 305/305/305
f 306/306/306 307/307/307 308/308/308
f 309/309/309 308/308/308 307/307/307
f 308/308/308 309/309/309 310/310/310
f 311/311/311 310/310/310 309/309/309
f 311/311/311 312/312/312 310/310/310
f 311/311/311 313/313/313 312/312/312
f 309/309/309 313/313/313 311/311/311
f 314/314/314 312/312/312 313/313/313
f 312/312/312 315/315/315 310/310/310
f 309/309/309 316/316/316 313/313/313
f 307/307/307 316/316/316 309/309/309
f 307/307/307 317/317/317 316/316/316
f 317/317/317 307/307/307 305/305/305
f 318/318/318 317/317/317 305/305/305
f 318/318/318 305/305/305 303/303/303
f 319/319/319 318/318/318 303/303/303
f 319/319/319 271/271/271 318/318/318
f 300/300/300 271/271/271 319/319/319
f 303/303/303 300/300/300 319/319/319
f 300/300/300 272/272/272 271/271/271
f 300/300/300 273/273/273 272/272/272
f 300/300/300 276/276/276 273/273/273
f 268/268/268 318/318/318 271/271/271
f 318/318/318 268/268/268 317/317/317
f 265/265/265 317/317/317 268/268/268
f 317/317/317 265/265/265 261/261/261
f 317/317/317 261/261/261 316/316/316
f 316/316/316 261/261/261 258/258/258
f 316/316/316 258/258/258 313/313/313
f 313/313/313 258/258/258 256/256/256
f 313/313/313 256/256/256 314/314/314
f 321/321/321 320/320/320 288/288/288
f 289/289/289 288/288/288 320/320/320
f 287/287/287 322/322/322 288/288/288
f 322/322/322 287/287/287 323/323/323
f 323/323/323 306/306/306 322/322/322
f 308/308/308 322/322/322 306/306/306
f 322/322/322 308/308/308 324/324/324
f 324/324/324 288/288/288 322/322/322
f 310/310/310 324/324/324 308/308/308
f 310/310/310 315/315/315 324/324/324
f 315/315/315 325/325/325 324/324/324
f 323/323/323 326/326/326 306/306/306
f 304/304/304 306/306/306 326/326/326
f 326/326/326 301/301/301 304/304/304
f 326/326/326 292/292/292 301/301/301
f 323/323/323 290/290/290 326/326/326
f 292/292/292 326/326/326 290/290/290
f 290/290/290 323/323/323 287/287/287
f 329/329/329 328/328/328 327/327/327
f 330/330/330 327/327/327 328/328/328
f 330/330/330 328/328/328 331/331/331
f 332/332/332 331/331/331 328/328/328
f 332/332/332 333/333/333 331/331/331
f 334/334/334 331/331/331 333/333/333
f 333/333/333 335/335/335 334/334/334
f 336/336/336 335/335/335 333/333/333
f 336/336/336 337/337/337 335/335/335
f 330/330/330 331/331/331 338/338/338
f 339/339/339 338/338/338 331/331/331
f 334/334/334 340/340/340 331/331/331
f 339/339/339 331/331/331 340/340/340
f 334/334/334 335/335/335 340/340/340
f 341/341/341 335/335/335 337/337/337
f 337/337/337 342/342/342 341/341/341
f 343/343/343 341/341/341 342/342/342
f 344/344/344 340/340/340 335/335/335
f 335/335/335 341/341/341 344/344/344
f 345/345/345 344/344/344 341/341/341
f 347/347/347 346/346/346 338/338/338
f 350/350/350 349/349/349 348/348/348
f 284/284/284 352/352/352 351/351/351
f 279/279/279 353/353/353 275/275/275
f 270/270/270 275/275/275 354/354/354
f 357/357/357 356/356/356 355/355/355
f 358/358/358 357/357/357 355/355/355
f 361/361/361 360/360/360 359/359/359
f 360/360/360 361/361/361 362/362/362
f 363/363/363 362/362/362 361/361/361
f 363/363/363 364/364/364 362/362/362
f 365/365/365 364/364/364 363/363/363
f 368/368/368 367/367/367 366/366/366
f 367/367/367 368/368/368 369/369/369
f 370/370/370 369/369/369 368/368/368
f 370/370/370 371/371/371 369/369/369
f 372/372/372 369/369/369 371/371/371
f 371/371/371 370/370/370 373/373/373
f 374/374/374 373/373/373 370/370/370
f 371/371/371 375/375/375 372/372/372
f 376/376/376 372/372/372 375/375/375
f 375/375/375 377/377/377 376/376/376
f 378/378/378 376/376/376 377/377/377
f 377/377/377 375/375/375 379/379/379
f 380/380/380 379/379/379 375/375/375
f 375/375/375 371/371/371 380/380/380
f 373/373/373 380/380/380 371/371/371
f 373/373/373 381/381/381 380/380/380
f 381/381/381 373/373/373 374/374/374
f 381/381/381 379/379/379 380/380/380
f 379/379/379 381/381/381 382/382/382
f 379/379/379 382/382/382 377/377/377
f 383/383/383 381/381/381 374/374/374
f 374/374/374 370/370/370 383/383/383
f 368/368/368 383/383/383 370/370/370
f 378/378/378 377/377/377 384/384/384
f 385/385/385 384/384/384 377/377/377
f 377/377/377 382/382/382 385/385/385
f 385/385/385 386/386/386 384/384/384
f 387/387/387 386/386/386 385/385/385
f 382/382/382 387/387/387 385/385/385
f 382/382/382 388/388/388 387/387/387
f 381/381/381 388/388/388 382/382/382
f 388/388/388 381/381/381 389/389/389
f 386/386/386 387/387/387 390/390/390
f 391/391/391 390/390/390 387/387/387
f 387/387/387 388/388/388 391/391/391
f 389/389/389 391/391/391 388/388/388
f 391/391/391 392/392/392 390/390/390
f 391/391/391 389/389/389 392/392/392
f 393/393/393 390/390/390 392/392/392
f 394/394/394 392/392/392 389/389/389
f 381/381/381 394/394/394 389/389/389
f 394/394/394 381/381/381 395/395/395
f 392/392/392 396/396/396 393/393/393
f 392/392/392 394/394/394 396/396/396
f 395/395/395 396/396/396 394/394/394
f 395/395/395 397/397/397 396/396/396
f 398/398/398 396/396/396 397/397/397
f 398/398/398 399/399/399 396/396/396
f 399/399/399 400/400/400 396/396/396
f 400/400/400 393/393/393 396/396/396
f 399/399/399 398/398/398 401/401/401
f 402/402/402 401/401/401 398/398/398
f 398/398/398 403/403/403 402/402/402
f 397/397/397 403/403/403 398/398/398
f 403/403/403 404/404/404 402/402/402
f 397/397/397 381/381/381 403/403/403
f 381/381/381 397/397/397 395/395/395
f 381/381/381 405/405/405 403/403/403
f 403/403/403 405/405/405 404/404/404
f 405/405/405 381/381/381 406/406/406
f 406/406/406 366/366/366 405/405/405
f 404/404/404 405/405/405 366/366/366
f 381/381/381 383/383/383 406/406/406
f 383/383/383 368/368/368 406/406/406
f 368/368/368 366/366/366 406/406/406
f 409/409/409 408/408/408 407/407/407
f 407/407/407 410/410/410 409/409/409
f 410/410/410 411/411/411 409/409/409
f 411/411/411 412/412/412 409/409/409
f 411/411/411 413/413/413 412/412/412
f 414/414/414 412/412/412 413/413/413
f 411/411/411 415/415/415 413/413/413
f 416/416/416 413/413/413 415/415/415
f 413/413/413 417/417/417 414/414/414
f 418/418/418 414/414/414 417/417/417
f 417/417/417 419/419/419 418/418/418
f 420/420/420 418/418/418 419/419/419
f 419/419/419 417/417/417 421/421/421
f 422/422/422 421/421/421 417/417/417
f 417/417/417 413/413/413 422/422/422
f 422/422/422 413/413/413 416/416/416
f 416/416/416 423/423/423 422/422/422
f 423/423/423 416/416/416 415/415/415
f 423/423/423 421/421/421 422/422/422
f 421/421/421 423/423/423 424/424/424
f 421/421/421 424/424/424 419/419/419
f 425/425/425 423/423/423 415/415/415
f 415/415/415 411/411/411 425/425/425
f 410/410/410 425/425/425 411/411/411
f 420/420/420 419/419/419 426/426/426
f 427/427/427 426/426/426 419/419/419
f 424/424/424 427/427/427 419/419/419
f 427/427/427 428/428/428 426/426/426
f 429/429/429 426/426/426 428/428/428
f 424/424/424 430/430/430 427/427/427
f 428/428/428 427/427/427 430/430/430
f 423/423/423 430/430/430 424/424/424
f 430/430/430 423/423/423 431/431/431
f 431/431/431 428/428/428 430/430/430
f 432/432/432 429/429/429 428/428/428
f 428/428/428 431/431/431 432/432/432
f 431/431/431 433/433/433 432/432/432
f 423/423/423 433/433/433 431/431/431
f 434/434/434 432/432/432 433/433/433
f 432/432/432 434/434/434 435/435/435
f 429/429/429 432/432/432 435/435/435
f 436/436/436 435/435/435 434/434/434
f 433/433/433 423/423/423 437/437/437
f 434/434/434 438/438/438 436/436/436
f 437/437/437 438/438/438 433/433/433
f 434/434/434 433/433/433 438/438/438
f 439/439/439 438/438/438 437/437/437
f 440/440/440 439/439/439 437/437/437
f 440/440/440 441/441/441 439/439/439
f 441/441/441 442/442/442 439/439/439
f 441/441/441 443/443/443 442/442/442
f 423/423/423 440/440/440 437/437/437
f 423/423/423 444/444/444 440/440/440
f 444/444/444 423/423/423 445/445/445
f 445/445/445 407/407/407 444/444/444
f 446/446/446 444/444/444 407/407/407
f 445/445/445 425/425/425 407/407/407
f 423/423/423 425/425/425 445/445/445
f 410/410/410 407/407/407 425/425/425
f 449/449/449 448/448/448 447/447/447
f 450/450/450 447/447/447 448/448/448
f 448/448/448 449/449/449 451/451/451
f 452/452/452 451/451/451 449/449/449
f 451/451/451 452/452/452 453/453/453
f 454/454/454 453/453/453 452/452/452
f 454/454/454 455/455/455 453/453/453
f 447/447/447 450/450/450 456/456/456
f 457/457/457 456/456/456 450/450/450
f 460/460/460 459/459/459 458/458/458
f 458/458/458 461/461/461 460/460/460
