g NAX_SpiderNest_EggCluster2
v 184.5799 80.63304 -342.2192
v 185.0034 69.4049 -343.148
v 201.8618 69.57117 -338.426
v 202.4558 80.79964 -337.9093
v 211.271 80.66461 -320.8473
v 212.0145 69.4387 -320.1522
v 209.6935 80.88469 -303.8989
v 211.7365 69.66468 -303.3618
v 196.9819 69.8724 -289.1017
v 195.5461 81.09831 -290.4853
v 180.4192 69.7355 -280.1474
v 180.0107 80.96142 -281.9438
v 193.0343 102.4425 -293.7378
v 180.2947 102.3322 -285.7914
v 202.603 103.0071 -308.9706
v 207.8454 102.1178 -319.6824
v 199.4061 102.1345 -334.5505
v 184.8999 102.1102 -338.8714
v 168.4461 102.1488 -336.269
v 166.5057 80.77637 -338.7745
v 155.9085 102.3012 -325.4919
v 152.4358 80.96142 -326.7482
v 165.7963 69.54898 -340.2531
v 151.062 69.73499 -327.7103
v 195.6745 110.2705 -329.7701
v 184.6035 110.3122 -335.1797
v 172.1615 110.2861 -331.4499
v 163.3028 110.3452 -322.5854
v 154.4656 102.3144 -307.6484
v 162.2745 110.3512 -309.5492
v 164.0048 102.3144 -292.191
v 169.2052 110.3512 -298.3187
v 180.9882 110.3638 -293.6791
v 183.8673 115.5112 -325.7931
v 190.2854 115.5112 -323.1582
v 177.1261 115.5112 -324.1523
v 172.6369 115.5112 -318.8625
v 172.1142 115.5112 -311.9442
v 175.7579 115.5112 -306.0399
v 182.1761 115.5112 -303.4051
v 191.2166 110.4094 -298.4949
v 198.3235 110.6479 -308.9219
v 201.8198 110.3018 -319.3769
v 188.7552 115.512 -305.1125
v 193.0091 115.5112 -310.4664
v 193.9292 115.5112 -317.254
v 183.0217 117.2892 -314.5991
v 152.4358 80.96142 -326.7482
v 149.452 69.7355 -306.4281
v 151.062 69.73499 -327.7103
v 162.2612 80.96142 -289.3723
v 160.666 69.7355 -288.2568
v 180.4192 69.7355 -280.1474
v 180.0107 80.96142 -281.9438
v 164.0048 102.3144 -292.191
v 152.392 80.96142 -306.8313
v 155.9085 102.3012 -325.4919
v 154.4656 102.3144 -307.6484
v 180.2947 102.3322 -285.7914
v 149.452 69.7355 -306.4281
v 152.392 80.96142 -306.8313
v 162.2612 80.96142 -289.3723
v 214.4858 82.83159 -303.5372
v 213.0454 80.38172 -305.9522
v 211.6604 80.33412 -302.4077
v 212.8693 82.64715 -300.369
v 215.1537 85.22926 -301.3275
v 213.6207 85.42654 -299.1791
v 215.0466 84.42346 -306.6333
v 213.6702 82.51681 -308.9135
v 214.8024 86.8944 -309.7255
v 213.4657 85.22379 -312.8334
v 215.9172 86.18244 -304.2776
v 210.2325 84.05676 -298.3452
v 207.8122 81.76691 -299.5739
v 208.0077 86.36304 -297.9816
v 205.1445 84.66264 -299.3772
v 211.7677 86.61075 -298.0625
v 210.2615 88.07658 -297.7376
v 206.4762 88.83039 -298.1762
v 203.6733 87.93047 -299.3284
v 209.04 89.77705 -297.8917
v 205.0434 91.40078 -298.9724
v 201.8792 90.85723 -300.8613
v 204.3974 94.07867 -299.9849
v 212.5719 88.8736 -298.5358
v 211.7177 89.68431 -298.3401
v 201.1728 94.14395 -300.6055
v 209.6125 93.82545 -315.8661
v 213.3746 90.26633 -311.7837
v 211.24 94.10647 -312.3256
v 211.5439 89.05131 -315.1984
v 212.6212 94.08029 -308.485
v 214.652 90.90496 -308.2536
v 214.4597 91.28305 -304.2548
v 213.3422 92.62411 -303.7211
v 213.4657 85.22379 -312.8334
v 214.8024 86.8944 -309.7255
v 215.7041 88.25063 -306.9102
v 215.0466 84.42346 -306.6333
v 215.9172 86.18244 -304.2776
v 215.4926 89.25036 -304.356
v 215.3242 88.52129 -302.0343
v 212.6253 91.13638 -299.9785
v 211.9807 93.85854 -303.2153
v 210.3865 95.99245 -307.041
v 208.3519 96.57131 -304.477
v 205.1187 97.8906 -307.2429
v 207.8751 97.02605 -310.8164
v 205.0518 96.76262 -313.6493
v 201.275 98.37223 -310.2299
v 210.9833 94.07463 -301.9107
v 210.3603 93.57349 -300.4785
v 200.7508 96.89077 -304.3183
v 204.0766 96.73613 -303.1198
v 201.1728 94.14395 -300.6055
v 204.3974 94.07867 -299.9849
v 207.5788 95.36339 -301.3697
v 207.6354 93.35622 -299.4487
v 210.2978 92.69833 -299.5344
v 205.0434 91.40078 -298.9724
v 208.1528 91.78812 -298.8687
v 206.4762 88.83039 -298.1762
v 210.4807 91.60693 -298.8363
v 209.04 89.77705 -297.8917
v 211.052 90.63077 -298.4586
v 211.7177 89.68431 -298.3401
v 210.2615 88.07658 -297.7376
v 193.6475 91.72018 -287.6967
v 190.4212 90.30537 -288.3202
v 191.8688 92.7141 -290.8866
v 194.8043 93.79753 -290.3447
v 196.7105 92.70795 -287.6984
v 197.7579 93.81417 -289.859
v 199.6307 92.23188 -288.41
v 200.2611 92.63734 -289.676
v 193.7022 88.69299 -285.9012
v 191.0076 87.17126 -286.4681
v 194.4902 84.98558 -284.7538
v 191.6419 82.6981 -284.9571
v 196.9227 87.01409 -284.8626
v 196.2828 90.15664 -285.8314
v 199.2622 90.73666 -286.9875
v 202.3207 90.27103 -289.9482
v 198.8912 88.57993 -285.91
v 200.6578 87.38541 -286.6964
v 200.9851 92.43067 -290.7338
v 199.1999 93.52415 -291.8371
v 200.5549 92.59 -293.184
v 198.8798 92.32458 -295.2792
v 196.8066 93.8619 -293.3455
v 196.6928 90.89011 -297.4959
v 194.1979 92.98638 -295.2776
v 201.7407 91.91942 -291.5037
v 202.4843 91.16033 -291.975
v 199.4905 88.94595 -298.5474
v 200.8759 90.51379 -296.3665
v 202.7034 88.20237 -297.1328
v 201.2932 85.74308 -299.3344
v 203.2005 89.25303 -294.3331
v 201.9157 91.26509 -294.0757
v 203.1446 90.21109 -292.2627
v 204.5596 85.95446 -297.0998
v 204.2258 84.23933 -299.7713
v 205.4878 82.10162 -295.9891
v 204.9765 79.83808 -298.5296
v 205.19 85.41907 -293.6032
v 204.2877 87.89629 -294.444
v 204.1305 87.95609 -291.5863
v 203.7801 89.09124 -292.071
v 203.9655 86.79274 -290.4489
v 204.915 82.63006 -291.6466
v 203.2485 86.18787 -289.0857
v 203.3752 81.53686 -288.9139
v 202.01 86.81916 -287.7815
v 201.1743 82.02123 -286.5356
v 198.5995 84.35787 -285.0753
v 204.7351 78.60531 -293.4183
v 196.9227 87.01409 -284.8626
v 200.6578 87.38541 -286.6964
v 198.5995 84.35787 -285.0753
v 193.8586 78.37047 -285.4702
v 199.4761 78.36837 -286.3553
v 197.6329 75.00653 -286.5359
v 196.464 81.29081 -284.9761
v 201.1743 82.02123 -286.5356
v 198.5995 84.35787 -285.0753
v 191.6419 82.6981 -284.9571
v 194.4902 84.98558 -284.7538
v 196.9227 87.01409 -284.8626
v 200.9708 73.84891 -291.2057
v 202.5359 77.07829 -289.6865
v 204.7351 78.60531 -293.4183
v 203.7104 74.54733 -295.7336
v 203.3752 81.53686 -288.9139
v 204.915 82.63006 -291.6466
v 204.9765 79.83808 -298.5296
v 205.4878 82.10162 -295.9891
v 202.01 86.81916 -287.7815
v 198.5995 84.35787 -285.0753
v 200.6578 87.38541 -286.6964
v 196.9227 87.01409 -284.8626
v 198.8912 88.57993 -285.91
v 209.7222 78.90487 -313.9924
v 217.4136 84.69627 -314.1378
v 217.4319 82.21007 -317.1353
v 210.1173 82.02847 -311.5043
v 222.4698 85.51483 -319.7286
v 222.3931 87.55279 -318.2724
v 210.2586 78.26765 -317.8893
v 215.9612 81.00719 -319.8936
v 209.3993 77.82031 -322.4053
v 216.115 80.97952 -323.4583
v 222.0188 84.58839 -322.0993
v 221.3871 84.71881 -324.2159
v 222.791 87.99312 -322.8077
v 223.0147 88.72668 -321.6927
v 208.0112 80.21028 -326.4042
v 216.4847 84.37032 -327.852
v 208.5017 84.57756 -330.5097
v 217.1033 88.79511 -331.3074
v 221.1862 86.54211 -326.3289
v 220.7426 89.34108 -328.5728
v 221.8459 88.86331 -324.7098
v 221.9041 87.87405 -324.1663
v 205.7653 90.73222 -330.0356
v 215.2506 93.51252 -330.9612
v 214.3188 96.7777 -328.8653
v 204.9845 95.62109 -327.5912
v 218.8545 94.75159 -327.4938
v 219.4964 92.21965 -328.6591
v 221.1536 91.82836 -325.2718
v 220.8415 93.19174 -324.8056
v 208.5017 84.57756 -330.5097
v 217.1033 88.79511 -331.3074
v 221.5177 90.29269 -325.218
v 222.0477 91.68773 -322.8307
v 220.6786 94.14332 -323.8964
v 220.7426 89.34108 -328.5728
v 221.8459 88.86331 -324.7098
v 221.1862 86.54211 -326.3289
v 222.791 87.99312 -322.8077
v 223.0147 88.72668 -321.6927
v 221.9041 87.87405 -324.1663
v 221.3871 84.71881 -324.2159
v 222.791 87.99312 -322.8077
v 218.4311 96.53391 -325.1169
v 220.7852 94.44947 -322.8534
v 218.507 97.09524 -322.4268
v 214.609 98.85258 -321.5297
v 213.9681 99.55549 -325.8279
v 219.1496 96.66074 -320.5604
v 215.6846 98.84101 -317.8992
v 206.7619 101.3341 -318.438
v 205.8013 100.9279 -323.2784
v 221.0873 94.21355 -321.8044
v 221.4466 93.54179 -321.0858
v 220.1839 95.16711 -317.797
v 215.6846 98.84101 -317.8992
v 207.8607 100.0992 -314.0478
v 216.8637 97.49682 -315.2457
v 207.8957 95.64641 -312.0509
v 221.9762 92.42533 -320.5261
v 218.1352 94.03286 -313.1231
v 207.5237 91.66479 -310.2422
v 217.677 89.51234 -312.2184
v 207.6519 87.04386 -309.59
v 222.3316 90.34777 -316.5103
v 221.2631 93.03277 -316.8643
v 222.5207 91.23763 -320.4959
v 222.9423 89.7923 -320.7461
v 222.3931 87.55279 -318.2724
v 222.4698 85.51483 -319.7286
v 205.8013 100.9279 -323.2784
v 213.9681 99.55549 -325.8279
v 213.9681 99.55549 -325.8279
v 205.8013 100.9279 -323.2784
v 204.9845 95.62109 -327.5912
v 213.9681 99.55549 -325.8279
v 213.9681 99.55549 -325.8279
v 215.6846 98.84101 -317.8992
v 207.8957 95.64641 -312.0509
v 207.8607 100.0992 -314.0478
v 207.6519 87.04386 -309.59
v 217.677 89.51234 -312.2184
v 222.3316 90.34777 -316.5103
v 205.1233 111.4615 -313.9211
v 202.912 103.1214 -313.093
v 200.8669 102.6968 -309.3763
v 203.998 112.7904 -310.7711
v 203.7881 106.6741 -318.3466
v 204.634 110.6975 -317.3932
v 197.3825 106.3271 -306.3146
v 201.2553 114.1271 -308.6814
v 203.7881 106.6741 -318.3466
v 204.634 110.6975 -317.3932
v 202.8514 110.364 -320.8383
v 202.0131 106.9078 -322.2433
v 203.4675 113.4131 -319.3715
v 204.7874 113.7849 -316.2268
v 202.3168 116.1407 -317.1324
v 203.3857 116.5397 -315.3473
v 199.9912 118.7687 -314.0247
v 203.0122 117.08 -313.393
v 201.1647 117.068 -317.9207
v 205.1233 111.4615 -313.9211
v 204.6355 114.6227 -313.4644
v 203.998 112.7904 -310.7711
v 203.2751 115.4926 -311.4699
v 202.0841 117.5118 -312.5364
v 200.9403 117.8966 -312.091
v 199.754 110.9831 -323.5787
v 198.0736 107.4104 -325.1008
v 195.8179 112.8798 -324.7874
v 193.8684 109.662 -327.1535
v 197.9602 115.7534 -321.966
v 201.023 114.2386 -321.3615
v 199.6292 117.8872 -317.8963
v 197.9439 118.71 -317.4444
v 192.2422 115.1922 -323.3613
v 189.4036 113.4393 -325.9046
v 189.5874 116.794 -320.2452
v 185.3878 113.7701 -321.919
v 193.4401 118.6225 -318.3034
v 195.1148 117.4393 -320.7707
v 196.9272 119.3031 -316.1275
v 185.931 116.7595 -316.5624
v 189.6999 118.0102 -316.2999
v 187.5641 116.6243 -313.1589
v 190.9109 118.0394 -313.0193
v 193.2116 119.1306 -315.3558
v 194.2895 118.9125 -313.3148
v 196.739 119.4702 -314.6746
v 197.13 119.2645 -313.6146
v 197.8492 118.9566 -312.8419
v 189.6196 115.2451 -309.5113
v 192.853 117.2645 -310.6372
v 192.8928 114.8312 -307.9269
v 195.3145 116.5585 -309.1365
v 195.5853 118.361 -311.9533
v 197.3432 117.8403 -310.7453
v 198.8354 118.6612 -312.2744
v 199.8514 118.2819 -312.0135
v 195.5366 112.0116 -306.228
v 197.9968 115.4187 -308.2899
v 199.2258 117.1301 -310.3159
v 201.3129 116.3567 -310.4528
v 201.2553 114.1271 -308.6814
v 197.3825 106.3271 -306.3146
v 193.7149 109.8619 -326.0039
v 190.6541 112.0207 -333.4415
v 195.9766 111.4717 -330.3957
v 186.4255 110.3956 -329.2679
v 198.0639 108.9152 -335.4061
v 195.4808 108.9948 -338.101
v 200.0935 106.4557 -339.3157
v 198.5588 106.7751 -340.3989
v 199.2128 106.756 -324.2418
v 201.2883 107.5524 -330.08
v 205.1977 104.6787 -330.5505
v 202.7546 102.0934 -324.0937
v 201.839 107.0008 -334.6604
v 204.8526 104.925 -334.3882
v 203.0321 104.652 -338.0355
v 202.0153 105.8219 -338.0932
v 200.2457 103.8103 -342.4749
v 204.0746 103.2664 -338.9588
v 197.139 106.2368 -341.9685
v 209.1751 99.48934 -332.6938
v 209.1751 99.48934 -332.6938
v 204.4581 96.07813 -323.9926
v 206.5499 101.7115 -336.5638
v 206.5096 98.90942 -339.3391
v 209.1751 99.48934 -332.6938
v 209.6084 94.02843 -337.1588
v 203.7262 101.6699 -340.8826
v 203.0175 100.8001 -342.3182
v 204.533 97.40673 -342.4196
v 209.6084 94.02843 -337.1588
v 202.2396 97.07812 -344.5785
v 202.2485 92.638 -345.4578
v 206.7261 92.92675 -341.7203
v 206.7261 92.92675 -341.7203
v 201.6183 100.5941 -343.6816
v 200.3326 100.9161 -344.2919
v 199.1984 97.81257 -345.6705
v 198.8136 101.7124 -344.6895
v 196.5104 99.01446 -346.4341
v 198.0891 92.99067 -347.754
v 198.0891 92.99067 -347.754
v 197.6713 102.815 -344.642
v 193.9799 101.2275 -346.35
v 193.1537 95.49194 -347.5475
v 198.0891 92.99067 -347.754
v 190.0878 97.63182 -347.0626
v 187.0635 101.9119 -344.6633
v 192.698 103.8317 -345.4273
v 196.7843 104.1074 -344.0359
v 196.7245 105.1943 -343.0212
v 186.6045 104.9166 -342.7805
v 179.9377 101.5357 -337.7188
v 181.8652 107.0405 -335.1146
v 186.7477 109.5487 -339.0226
v 192.2097 106.1359 -343.4886
v 193.4072 108.4319 -340.958
v 179.3919 96.63641 -338.5568
v 190.0878 97.63182 -347.0626
v 179.3919 96.63641 -338.5568
v 179.3615 88.24152 -339.7403
v 209.1751 99.48934 -332.6938
v 203.6069 85.96609 -330.6403
v 204.4581 96.07813 -323.9926
v 209.1751 99.48934 -332.6938
v 209.6084 94.02843 -337.1588
v 209.6084 94.02843 -337.1588
v 199.8451 83.69421 -336.1465
v 203.6069 85.96609 -330.6403
v 206.7261 92.92675 -341.7203
v 202.2485 92.638 -345.4578
v 193.1694 82.35992 -338.691
v 198.0891 92.99067 -347.754
v 193.1694 82.35992 -338.691
v 198.0891 92.99067 -347.754
v 187.4106 82.07786 -339.7687
v 193.1537 95.49194 -347.5475
v 187.4106 82.07786 -339.7687
v 198.0891 92.99067 -347.754
v 184.4639 85.0047 -340.7635
v 190.0878 97.63182 -347.0626
v 179.3615 88.24152 -339.7403
v 179.3919 96.63641 -338.5568
v 190.0878 97.63182 -347.0626
v 187.0635 101.9119 -344.6633
v 180.7653 98.54414 -337.5694
v 182.1909 95.89249 -343.9791
v 184.811 96.25937 -338.4323
v 179.0484 96.8423 -342.9869
v 179.2768 94.36079 -347.5633
v 177.5936 94.49841 -346.9866
v 187.3515 92.3196 -339.4395
v 184.8188 93.20456 -344.7415
v 186.1678 88.92108 -345.6123
v 188.6933 87.27938 -338.9923
v 181.9349 90.00746 -348.2849
v 181.3365 92.65348 -348.4137
v 176.109 91.13714 -349.1189
v 180.9565 88.15428 -349.9023
v 176.0484 94.04293 -346.4934
v 187.4573 81.78045 -341.3737
v 185.1032 84.2187 -347.5565
v 176.0942 96.29847 -342.336
v 174.8172 93.23884 -346.3525
v 173.7222 94.7394 -342.1451
v 176.0757 98.47289 -336.3567
v 172.1942 96.21474 -336.0775
v 173.8983 92.13196 -346.5397
v 169.8007 93.10413 -336.9807
v 171.9759 92.7447 -342.4619
v 168.3291 89.5332 -337.7381
v 171.0141 90.04747 -343.1497
v 173.277 90.73521 -346.8399
v 173.0292 89.32177 -347.5443
v 167.892 85.50182 -339.2279
v 170.5475 87.53401 -344.3865
v 173.3356 87.86861 -348.5402
v 174.6507 86.49551 -349.5712
v 176.8794 85.73805 -350.4739
v 179.137 86.78838 -350.4116
v 182.1891 79.85527 -349.4969
v 177.8596 78.66199 -349.9066
v 187.4573 81.78045 -341.3737
v 182.1891 79.85527 -349.4969
v 184.0101 75.97677 -342.604
v 185.1032 84.2187 -347.5565
v 178.5538 74.11806 -345.0814
v 178.5538 74.11806 -345.0814
v 177.8596 78.66199 -349.9066
v 173.7069 81.00435 -347.631
v 172.7651 76.70963 -342.2175
v 169.1996 81.29146 -339.8492
v 170.9465 84.58954 -345.2494
v 167.892 85.50182 -339.2279
v 170.5475 87.53401 -344.3865
v 173.3356 87.86861 -348.5402
v 174.6507 86.49551 -349.5712
v 176.8794 85.73805 -350.4739
v 177.8596 78.66199 -349.9066
v 178.5538 74.11806 -345.0814
v 182.1891 79.85527 -349.4969
v 177.8596 78.66199 -349.9066
v 167.9742 105.8544 -335.6059
v 170.2945 104.9544 -337.7755
v 171.3365 106.0393 -333.1576
v 174.2583 103.7574 -335.9069
v 166.4323 104.5716 -338.6357
v 165.1382 104.6856 -337.5125
v 171.9256 102.3635 -339.8781
v 175.5251 100.0289 -338.3168
v 172.1218 98.35797 -341.7168
v 175.9619 94.97295 -339.5627
v 167.813 100.3666 -341.0155
v 167.7076 102.9871 -340.353
v 162.6351 102.0828 -338.5604
v 166.1653 99.05154 -341.7598
v 163.8388 104.2395 -336.6008
v 169.8103 94.3885 -343.088
v 173.2358 90.35684 -341.229
v 165.4628 105.3876 -333.9662
v 162.6547 103.5215 -336.0877
v 163.1568 104.0144 -333.0233
v 167.5389 106.0162 -330.3211
v 163.8064 104.059 -328.7459
v 161.5991 102.5696 -335.9512
v 161.1808 102.3007 -332.7239
v 160.7231 101.3449 -336.0648
v 159.668 99.94475 -333.1133
v 160.8983 101.4628 -328.6563
v 158.7647 98.32079 -328.9958
v 158.466 97.86398 -334.0018
v 157.2529 94.83958 -330.2963
v 158.0595 95.21381 -335.1638
v 159.7899 98.9996 -337.5118
v 160.0575 100.1759 -336.5761
v 160.415 97.83527 -338.9231
v 159.1874 92.14684 -338.3656
v 161.9889 97.16493 -340.585
v 161.7883 90.14774 -341.9457
v 164.1788 97.99525 -341.4237
v 165.9286 90.87917 -343.5364
v 173.2358 90.35684 -341.229
v 169.8103 94.3885 -343.088
v 165.9286 90.87917 -343.5364
v 168.838 85.32716 -341.2882
v 162.9961 84.54433 -340.4149
v 161.7883 90.14774 -341.9457
v 159.1653 86.75848 -335.7081
v 159.1874 92.14684 -338.3656
v 157.4969 90.84617 -331.9671
v 158.0595 95.21381 -335.1638
v 157.2529 94.83958 -330.2963
v 185.9594 116.2128 -320.2849
v 183.1777 118.617 -320.3862
v 184.1014 118.2412 -323.5044
v 186.3764 115.0184 -324.6989
v 180.9623 119.9153 -322.2936
v 180.1879 119.9221 -320.7771
v 183.4318 117.0226 -326.9197
v 184.6768 113.3714 -328.6176
v 180.8201 115.3249 -329.9938
v 181.6099 110.6165 -331.8252
v 179.0392 117.9067 -326.4463
v 180.7184 119.2797 -324.834
v 176.5844 119.7573 -321.3174
v 176.9207 118.0786 -326.6763
v 179.0285 119.6812 -319.641
v 176.4423 114.3803 -331.4293
v 174.8151 118.0031 -325.8515
v 171.2962 113.8691 -331.2069
v 176.4851 109.5687 -333.5265
v 170.0097 108.0949 -333.389
v 172.7506 117.8973 -324.469
v 167.9371 114.1992 -328.2426
v 167.6417 114.6737 -323.5157
v 164.3577 109.9258 -323.8303
v 165.3147 109.4068 -330.085
v 172.179 118.0949 -322.193
v 172.5985 118.3669 -320.3796
v 166.1109 111.2877 -318.6037
v 169.0812 115.4497 -319.375
v 168.6654 113.0803 -315.6302
v 171.1957 116.3939 -317.6559
v 173.6365 118.5419 -319.3607
v 172.1371 114.0578 -314.0363
v 173.4979 116.8077 -316.7768
v 175.7604 115.0627 -313.5901
v 176.1628 117.527 -316.3012
v 174.9239 118.772 -318.8532
v 176.367 119.156 -318.7156
v 177.7427 119.4231 -318.9622
v 179.5581 115.6383 -314.0752
v 178.6902 118.0057 -316.8223
v 181.1827 118.464 -318.1145
v 183.416 116.236 -316.3118
vt 0.805746 0.433938
vt 0.80992 0.429667
vt 0.839318 0.437954
vt 0.837071 0.441543
vt 0.852582 0.471456
vt 0.857091 0.469842
vt 0.84975 0.501261
vt 0.856541 0.49923
vt 0.830705 0.524198
vt 0.824853 0.524864
vt 0.801811 0.539803
vt 0.797625 0.53982
vt 0.813958 0.525047
vt 0.791423 0.539094
vt 0.830741 0.498212
vt 0.840293 0.479
vt 0.825339 0.452667
vt 0.799651 0.445007
vt 0.770493 0.449627
vt 0.773978 0.440019
vt 0.748233 0.468756
vt 0.749222 0.461173
vt 0.776325 0.434758
vt 0.750526 0.456713
vt 0.816243 0.463184
vt 0.796549 0.453579
vt 0.774441 0.460202
vt 0.758674 0.475975
vt 0.745673 0.500369
vt 0.756844 0.499151
vt 0.762572 0.527752
vt 0.769164 0.519115
vt 0.790107 0.527366
vt 0.793595 0.471598
vt 0.80503 0.476292
vt 0.781585 0.474521
vt 0.773586 0.483946
vt 0.772655 0.496272
vt 0.779147 0.506791
vt 0.790582 0.511485
vt 0.808275 0.518818
vt 0.820837 0.500346
vt 0.827157 0.481668
vt 0.802304 0.508444
vt 0.809883 0.498905
vt 0.811522 0.486811
vt 0.791523 0.492014
vt 0.749222 0.461173
vt 0.747713 0.493892
vt 0.750526 0.456713
vt 0.766468 0.52678
vt 0.767303 0.525636
vt 0.801811 0.539803
vt 0.797625 0.53982
vt 0.762572 0.527752
vt 0.749145 0.496134
vt 0.748233 0.468756
vt 0.745673 0.500369
vt 0.791423 0.539094
vt 0.747713 0.493892
vt 0.749145 0.496134
vt 0.766468 0.52678
vt 0.857606 0.502414
vt 0.855777 0.497524
vt 0.85336 0.503731
vt 0.854819 0.50793
vt 0.858096 0.50694
vt 0.855343 0.510771
vt 0.858137 0.497396
vt 0.856264 0.492887
vt 0.857002 0.492609
vt 0.855129 0.486705
vt 0.859167 0.502006
vt 0.849781 0.511867
vt 0.846192 0.50909
vt 0.845199 0.513132
vt 0.84066 0.510217
vt 0.851743 0.513056
vt 0.848668 0.514027
vt 0.841783 0.51346
vt 0.837112 0.511186
vt 0.846023 0.514219
vt 0.838503 0.512756
vt 0.833085 0.509278
vt 0.836572 0.511698
vt 0.852506 0.512838
vt 0.850768 0.513403
vt 0.830861 0.51062
vt 0.845852 0.483598
vt 0.853519 0.489869
vt 0.848643 0.489921
vt 0.850645 0.483536
vt 0.851089 0.496694
vt 0.855587 0.49626
vt 0.855139 0.50341
vt 0.852782 0.504711
vt 0.855129 0.486705
vt 0.857002 0.492609
vt 0.858201 0.497923
vt 0.858137 0.497396
vt 0.859167 0.502006
vt 0.857543 0.502688
vt 0.857455 0.506581
vt 0.851947 0.51091
vt 0.850022 0.505936
vt 0.846587 0.499753
vt 0.842822 0.504438
vt 0.836718 0.499903
vt 0.841846 0.493356
vt 0.836934 0.48828
vt 0.829778 0.494749
vt 0.848199 0.508297
vt 0.847246 0.510689
vt 0.829295 0.504804
vt 0.835218 0.506881
vt 0.830861 0.51062
vt 0.836572 0.511698
vt 0.841811 0.509602
vt 0.8425 0.512448
vt 0.84739 0.512117
vt 0.838503 0.512756
vt 0.843872 0.513044
vt 0.841783 0.51346
vt 0.84803 0.513052
vt 0.846023 0.514219
vt 0.849321 0.513452
vt 0.850768 0.513403
vt 0.848668 0.514027
vt 0.818313 0.532727
vt 0.813056 0.531231
vt 0.814873 0.527378
vt 0.819723 0.528636
vt 0.823417 0.533001
vt 0.824932 0.529498
vt 0.828711 0.531612
vt 0.829701 0.529492
vt 0.819326 0.53504
vt 0.815044 0.533615
vt 0.821832 0.536017
vt 0.817516 0.535017
vt 0.825502 0.536396
vt 0.823431 0.535575
vt 0.828508 0.533701
vt 0.834037 0.528352
vt 0.828498 0.534993
vt 0.831965 0.533273
vt 0.83104 0.527569
vt 0.827564 0.525926
vt 0.830234 0.523291
vt 0.827358 0.519522
vt 0.823238 0.523358
vt 0.823933 0.51522
vt 0.818899 0.519706
vt 0.832525 0.526069
vt 0.834062 0.525027
vt 0.829445 0.512837
vt 0.831419 0.517107
vt 0.835324 0.515126
vt 0.833569 0.510584
vt 0.835889 0.520344
vt 0.833028 0.521352
vt 0.835507 0.524257
vt 0.839253 0.514572
vt 0.83917 0.509409
vt 0.842013 0.515476
vt 0.841776 0.510403
vt 0.840519 0.520575
vt 0.838203 0.519776
vt 0.837909 0.524824
vt 0.836957 0.524285
vt 0.837961 0.526504
vt 0.840852 0.523247
vt 0.836878 0.528734
vt 0.838468 0.527744
vt 0.834512 0.531205
vt 0.834461 0.532055
vt 0.829244 0.535275
vt 0.841712 0.519034
vt 0.825502 0.536396
vt 0.831965 0.533273
vt 0.829244 0.535275
vt 0.82271 0.532906
vt 0.83256 0.531353
vt 0.830325 0.530102
vt 0.826407 0.534589
vt 0.834461 0.532055
vt 0.829244 0.535275
vt 0.817516 0.535017
vt 0.821832 0.536017
vt 0.825502 0.536396
vt 0.836509 0.521609
vt 0.838303 0.525156
vt 0.841712 0.519034
vt 0.8411 0.513874
vt 0.838468 0.527744
vt 0.840852 0.523247
vt 0.841776 0.510403
vt 0.842013 0.515476
vt 0.834512 0.531205
vt 0.829244 0.535275
vt 0.831965 0.533273
vt 0.825502 0.536396
vt 0.828498 0.534993
vt 0.850371 0.483033
vt 0.862221 0.484274
vt 0.862958 0.478367
vt 0.850164 0.488209
vt 0.870882 0.474654
vt 0.870175 0.477737
vt 0.851495 0.476036
vt 0.860716 0.473217
vt 0.850117 0.468006
vt 0.860994 0.466952
vt 0.870348 0.47025
vt 0.869201 0.466562
vt 0.870752 0.469865
vt 0.870941 0.472015
vt 0.846992 0.46159
vt 0.860681 0.460082
vt 0.846587 0.455461
vt 0.86051 0.455098
vt 0.868335 0.463302
vt 0.866765 0.460051
vt 0.868844 0.466735
vt 0.869224 0.467443
vt 0.839972 0.457819
vt 0.855894 0.456877
vt 0.853307 0.461393
vt 0.837153 0.463354
vt 0.861901 0.463307
vt 0.863754 0.460617
vt 0.866787 0.466493
vt 0.865851 0.467659
vt 0.846587 0.455461
vt 0.86051 0.455098
vt 0.867863 0.4662
vt 0.868404 0.470762
vt 0.865294 0.469505
vt 0.866765 0.460051
vt 0.868844 0.466735
vt 0.868335 0.463302
vt 0.870752 0.469865
vt 0.870941 0.472015
vt 0.869224 0.467443
vt 0.869201 0.466562
vt 0.870752 0.469865
vt 0.860644 0.467955
vt 0.865395 0.471424
vt 0.860618 0.472852
vt 0.85322 0.474888
vt 0.851883 0.467464
vt 0.861878 0.47604
vt 0.855126 0.481307
vt 0.838606 0.481
vt 0.837025 0.472325
vt 0.865996 0.473216
vt 0.86682 0.474312
vt 0.86413 0.480537
vt 0.855126 0.481307
vt 0.840916 0.48845
vt 0.857598 0.48565
vt 0.842288 0.490811
vt 0.86807 0.475014
vt 0.860836 0.488494
vt 0.842799 0.492954
vt 0.861316 0.488906
vt 0.844375 0.492887
vt 0.869282 0.481561
vt 0.86664 0.481631
vt 0.869365 0.474764
vt 0.870514 0.473954
vt 0.870175 0.477737
vt 0.870882 0.474654
vt 0.837025 0.472325
vt 0.851883 0.467464
vt 0.851883 0.467464
vt 0.837025 0.472325
vt 0.837153 0.463354
vt 0.851883 0.467464
vt 0.851883 0.467464
vt 0.855126 0.481307
vt 0.842288 0.490811
vt 0.840916 0.48845
vt 0.844375 0.492887
vt 0.861316 0.488906
vt 0.869282 0.481561
vt 0.832682 0.491673
vt 0.831254 0.490937
vt 0.827758 0.49741
vt 0.830281 0.497632
vt 0.831744 0.482552
vt 0.832041 0.485298
vt 0.820481 0.503813
vt 0.824995 0.501711
vt 0.831744 0.482552
vt 0.832041 0.485298
vt 0.828972 0.479086
vt 0.828524 0.475696
vt 0.829149 0.48249
vt 0.831387 0.488185
vt 0.826275 0.487194
vt 0.828059 0.490481
vt 0.821328 0.493433
vt 0.82723 0.494109
vt 0.82394 0.486034
vt 0.832682 0.491673
vt 0.830864 0.493326
vt 0.830281 0.497632
vt 0.828179 0.497112
vt 0.825444 0.495752
vt 0.823287 0.496649
vt 0.823278 0.474374
vt 0.821378 0.470752
vt 0.815696 0.472712
vt 0.813219 0.467681
vt 0.81863 0.478479
vt 0.824547 0.479162
vt 0.820952 0.486293
vt 0.817693 0.487316
vt 0.808616 0.475848
vt 0.804107 0.470867
vt 0.803385 0.481817
vt 0.796854 0.478048
vt 0.809685 0.48576
vt 0.813039 0.481049
vt 0.815697 0.489823
vt 0.796878 0.488373
vt 0.803205 0.489173
vt 0.799832 0.494404
vt 0.805355 0.495032
vt 0.80912 0.491154
vt 0.811111 0.494738
vt 0.815309 0.49246
vt 0.816071 0.494297
vt 0.817449 0.495594
vt 0.803927 0.500535
vt 0.80906 0.499072
vt 0.809887 0.503245
vt 0.813667 0.501557
vt 0.813593 0.497019
vt 0.816889 0.499034
vt 0.819299 0.496527
vt 0.821227 0.496891
vt 0.815463 0.505505
vt 0.818797 0.502757
vt 0.820464 0.499609
vt 0.82442 0.499156
vt 0.824995 0.501711
vt 0.820481 0.503813
vt 0.812885 0.469775
vt 0.806774 0.457096
vt 0.816411 0.462376
vt 0.799762 0.464109
vt 0.820903 0.452829
vt 0.81629 0.448061
vt 0.825253 0.445281
vt 0.822433 0.443437
vt 0.823599 0.47211
vt 0.827043 0.461948
vt 0.834841 0.46039
vt 0.831283 0.471179
vt 0.828187 0.453678
vt 0.834156 0.453646
vt 0.831009 0.447111
vt 0.828854 0.447295
vt 0.826322 0.439035
vt 0.833271 0.445135
vt 0.820076 0.44052
vt 0.843421 0.455299
vt 0.843421 0.455299
vt 0.836088 0.469826
vt 0.838119 0.448997
vt 0.838876 0.4434
vt 0.843421 0.455299
vt 0.845786 0.446065
vt 0.83313 0.441338
vt 0.832135 0.438586
vt 0.835826 0.437589
vt 0.845786 0.446065
vt 0.83187 0.433694
vt 0.833207 0.431086
vt 0.841022 0.437748
vt 0.841022 0.437748
vt 0.82972 0.436123
vt 0.827347 0.435119
vt 0.826274 0.431939
vt 0.824417 0.434606
vt 0.821157 0.430874
vt 0.825764 0.427118
vt 0.825764 0.427118
vt 0.82206 0.434954
vt 0.816005 0.43155
vt 0.816294 0.428072
vt 0.825764 0.427118
vt 0.810221 0.429435
vt 0.803545 0.4347
vt 0.812936 0.433806
vt 0.820096 0.436339
vt 0.819659 0.4384
vt 0.801795 0.43876
vt 0.791043 0.446908
vt 0.792719 0.452882
vt 0.800601 0.44656
vt 0.81136 0.437799
vt 0.812779 0.442848
vt 0.791626 0.444231
vt 0.810221 0.429435
vt 0.791626 0.444231
vt 0.794211 0.440113
vt 0.843421 0.455299
vt 0.837574 0.455574
vt 0.836088 0.469826
vt 0.843421 0.455299
vt 0.845786 0.446065
vt 0.845786 0.446065
vt 0.831631 0.445337
vt 0.837574 0.455574
vt 0.841022 0.437748
vt 0.833207 0.431086
vt 0.820301 0.440545
vt 0.825764 0.427118
vt 0.820301 0.440545
vt 0.825764 0.427118
vt 0.810273 0.438585
vt 0.816294 0.428072
vt 0.810273 0.438585
vt 0.825764 0.427118
vt 0.804196 0.437536
vt 0.810221 0.429435
vt 0.794211 0.440113
vt 0.791626 0.444231
vt 0.810221 0.429435
vt 0.803545 0.4347
vt 0.793452 0.446441
vt 0.796805 0.434471
vt 0.80132 0.444359
vt 0.790954 0.436451
vt 0.79214 0.427777
vt 0.789125 0.428828
vt 0.807025 0.441626
vt 0.802283 0.432484
vt 0.805987 0.429934
vt 0.810937 0.441198
vt 0.798193 0.425481
vt 0.796311 0.425875
vt 0.787569 0.424276
vt 0.797047 0.422199
vt 0.786541 0.429591
vt 0.810446 0.435695
vt 0.805562 0.425408
vt 0.785905 0.437471
vt 0.784624 0.429649
vt 0.782213 0.437434
vt 0.785181 0.448569
vt 0.779042 0.448509
vt 0.783355 0.429057
vt 0.775815 0.446154
vt 0.779768 0.436396
vt 0.77437 0.443951
vt 0.778936 0.43454
vt 0.782704 0.428199
vt 0.782718 0.426625
vt 0.774897 0.440356
vt 0.778918 0.431764
vt 0.78372 0.424531
vt 0.786469 0.422396
vt 0.790629 0.420632
vt 0.794271 0.420985
vt 0.80179 0.420985
vt 0.794566 0.419991
vt 0.810446 0.435695
vt 0.80179 0.420985
vt 0.806176 0.432163
vt 0.805562 0.425408
vt 0.797196 0.427389
vt 0.797196 0.427389
vt 0.794566 0.419991
vt 0.786546 0.424527
vt 0.786248 0.433013
vt 0.778542 0.438255
vt 0.78056 0.429551
vt 0.774897 0.440356
vt 0.778918 0.431764
vt 0.78372 0.424531
vt 0.786469 0.422396
vt 0.790629 0.420632
vt 0.794566 0.419991
vt 0.797196 0.427389
vt 0.80179 0.420985
vt 0.794566 0.419991
vt 0.768448 0.451716
vt 0.772857 0.447646
vt 0.774354 0.456106
vt 0.780272 0.450665
vt 0.766133 0.446026
vt 0.763801 0.448046
vt 0.776587 0.443286
vt 0.783711 0.445481
vt 0.778225 0.439061
vt 0.786093 0.44205
vt 0.769952 0.440787
vt 0.768912 0.442596
vt 0.760222 0.445552
vt 0.767465 0.439152
vt 0.761644 0.449553
vt 0.775418 0.435685
vt 0.782752 0.437998
vt 0.764146 0.454509
vt 0.759781 0.450286
vt 0.760509 0.45584
vt 0.767623 0.461133
vt 0.761646 0.463434
vt 0.758225 0.450293
vt 0.757573 0.455944
vt 0.757079 0.44979
vt 0.755675 0.454669
vt 0.75735 0.462939
vt 0.754616 0.461549
vt 0.754239 0.452583
vt 0.753099 0.458381
vt 0.754399 0.449877
vt 0.756204 0.446654
vt 0.756288 0.448598
vt 0.757695 0.443874
vt 0.757403 0.443478
vt 0.760698 0.440774
vt 0.762645 0.436685
vt 0.764297 0.439492
vt 0.769705 0.434056
vt 0.782752 0.437998
vt 0.775418 0.435685
vt 0.769705 0.434056
vt 0.776617 0.436691
vt 0.766597 0.438039
vt 0.762645 0.436685
vt 0.759137 0.446852
vt 0.757403 0.443478
vt 0.754852 0.454443
vt 0.754399 0.449877
vt 0.753099 0.458381
vt 0.797101 0.481595
vt 0.791378 0.482043
vt 0.793146 0.476382
vt 0.798221 0.47342
vt 0.78701 0.478979
vt 0.785625 0.481687
vt 0.792339 0.469978
vt 0.795714 0.466021
vt 0.788226 0.464066
vt 0.791131 0.459618
vt 0.784223 0.471049
vt 0.786778 0.474279
vt 0.779246 0.48068
vt 0.78039 0.470683
vt 0.783633 0.483652
vt 0.780732 0.46127
vt 0.776658 0.472135
vt 0.771734 0.461537
vt 0.782357 0.456332
vt 0.77133 0.456208
vt 0.773011 0.474573
vt 0.765645 0.466899
vt 0.764963 0.475439
vt 0.760688 0.473654
vt 0.76256 0.462407
vt 0.771927 0.478684
vt 0.772586 0.481989
vt 0.763355 0.4833
vt 0.767272 0.483016
vt 0.76731 0.489061
vt 0.77073 0.486328
vt 0.774381 0.483853
vt 0.77317 0.492158
vt 0.774699 0.488004
vt 0.779297 0.49322
vt 0.779216 0.489042
vt 0.776603 0.484819
vt 0.779053 0.485165
vt 0.781422 0.484796
vt 0.785877 0.492509
vt 0.783569 0.48824
vt 0.787868 0.486056
vt 0.792561 0.488682
vn 0.07146223 0.1182943 -0.9904038
vn -0.02211695 0.1028129 -0.9944548
vn 0.6182336 0.03379834 -0.7852674
vn 0.6134169 0.1062524 -0.7825792
vn 0.9713656 0.1341563 -0.1960895
vn 0.9866021 0.09657223 -0.1314919
vn 0.874783 0.2224333 0.4304393
vn 0.902339 0.1829858 0.3902571
vn 0.6162107 0.168201 0.7694107
vn 0.5586546 0.1758789 0.8105379
vn 0.05091039 0.1656514 0.9848694
vn 0.06381366 0.1740756 0.9826624
vn 0.626716 0.3228081 0.7092405
vn 0.07372464 0.5346037 0.841881
vn 0.8355415 0.3948999 0.3820006
vn 0.8898945 0.4382471 -0.1265984
vn 0.5847763 0.3340283 -0.7392306
vn 0.06545152 0.3844486 -0.9208232
vn -0.3857272 0.3976696 -0.8325102
vn -0.4222443 0.1344097 -0.8964618
vn -0.8376915 0.3541622 -0.415743
vn -0.8869923 0.1773088 -0.4263876
vn -0.4929303 0.1452274 -0.8578629
vn -0.8816182 0.1463442 -0.4487011
vn 0.4505388 0.6970866 -0.5577499
vn 0.06012629 0.6832608 -0.7276947
vn -0.2971036 0.7452878 -0.5968882
vn -0.5655154 0.7854576 -0.2514932
vn -0.8549077 0.4951732 0.1547136
vn -0.5835358 0.7898934 0.1885589
vn -0.6186859 0.4109478 0.6695892
vn -0.365973 0.8095606 0.4589938
vn -0.01677749 0.8226606 0.568285
vn 0.03103082 0.9204617 -0.3895992
vn 0.2773975 0.9222406 -0.269301
vn -0.1768079 0.941117 -0.2881627
vn -0.3075898 0.935816 -0.1721536
vn -0.348398 0.9335452 0.08433331
vn -0.1956727 0.9401256 0.2790629
vn 0.03410131 0.9282058 0.3705012
vn 0.4727956 0.6682047 0.5744274
vn 0.6689622 0.6720102 0.3176347
vn 0.6886975 0.7237902 -0.04270303
vn 0.2922515 0.8922145 0.3442998
vn 0.3925572 0.9040197 0.1692553
vn 0.4189353 0.9077765 -0.0208577
vn 0.001189932 0.9999989 0.0008973648
vn -0.8869923 0.1773088 -0.4263876
vn -0.9488473 0.2058744 0.2393834
vn -0.8816182 0.1463442 -0.4487011
vn -0.647842 0.1708455 0.7423695
vn -0.6376312 0.1653631 0.7523839
vn 0.05091039 0.1656514 0.9848694
vn 0.06381366 0.1740756 0.9826624
vn -0.6186859 0.4109478 0.6695892
vn -0.9547703 0.1705839 0.2435463
vn -0.8376915 0.3541622 -0.415743
vn -0.8549077 0.4951732 0.1547136
vn 0.07372464 0.5346037 0.841881
vn -0.9488473 0.2058744 0.2393834
vn -0.9547703 0.1705839 0.2435463
vn -0.647842 0.1708455 0.7423695
vn 0.8350644 -0.5257874 0.1619103
vn 0.8415847 -0.5398986 0.01563599
vn 0.4808634 -0.7046893 0.521712
vn 0.5730291 -0.5827907 0.576188
vn 0.8181236 -0.4560769 0.3502392
vn 0.4927503 -0.4049485 0.7702038
vn 0.9284196 -0.3310072 -0.1687348
vn 0.9085155 -0.3468574 -0.2330013
vn 0.941559 -0.05294633 -0.3326608
vn 0.9136543 -0.0195482 -0.4060217
vn 0.9902464 -0.1393249 0.0007772856
vn 0.1762186 -0.446641 0.877188
vn -0.05931359 -0.4487628 0.8916804
vn -0.1399149 -0.1550239 0.9779527
vn -0.3190163 -0.206893 0.9248912
vn 0.1791345 -0.1332749 0.9747557
vn 0.1395975 0.04332641 0.98926
vn -0.2554459 0.06203776 0.9648309
vn -0.4217189 0.006931703 0.9067001
vn -0.001420885 0.242084 0.9702543
vn -0.2857217 0.2217345 0.9323072
vn -0.423583 0.06487844 0.903531
vn -0.1631365 0.4743222 0.865104
vn 0.2975251 0.08949704 0.9505099
vn 0.212831 0.1780774 0.9607244
vn -0.1788009 0.5289682 0.829592
vn 0.6651233 0.6032871 -0.4400633
vn 0.8607358 0.2837964 -0.4226032
vn 0.7208351 0.6167179 -0.316316
vn 0.836248 0.18787 -0.5151641
vn 0.7543123 0.6438372 -0.1284003
vn 0.9072347 0.3690482 -0.201813
vn 0.8372746 0.5217896 0.1634222
vn 0.7364312 0.6436444 0.2083049
vn 0.9136543 -0.0195482 -0.4060217
vn 0.941559 -0.05294633 -0.3326608
vn 0.9828865 0.06016082 -0.1741114
vn 0.9284196 -0.3310072 -0.1687348
vn 0.9902464 -0.1393249 0.0007772856
vn 0.9501578 0.3062754 0.05827019
vn 0.8988218 0.3748789 0.2271235
vn 0.6357917 0.5867202 0.501526
vn 0.6263671 0.7273104 0.2805063
vn 0.5383165 0.8401951 0.06547873
vn 0.3493764 0.8935431 0.2819871
vn 0.1513995 0.9853077 0.07903834
vn 0.4231456 0.8807294 -0.2127525
vn 0.2280651 0.9390019 -0.2574134
vn 0.09769344 0.9946128 0.03466076
vn 0.5120311 0.7563766 0.4070853
vn 0.3876656 0.7056286 0.5931304
vn -0.09870372 0.9230694 0.3717534
vn -0.01233111 0.8738458 0.4860466
vn -0.1788009 0.5289682 0.829592
vn -0.1631365 0.4743222 0.865104
vn 0.1944018 0.799109 0.5688873
vn 0.07125504 0.5363904 0.8409566
vn 0.2812565 0.57258 0.7700954
vn -0.2857217 0.2217345 0.9323072
vn -0.03172617 0.3869426 0.9215579
vn -0.2554459 0.06203776 0.9648309
vn 0.2287202 0.5082332 0.8302928
vn -0.001420885 0.242084 0.9702543
vn 0.2536981 0.4085539 0.8767674
vn 0.212831 0.1780774 0.9607244
vn 0.1395975 0.04332641 0.98926
vn -0.3290951 0.6734043 0.6619843
vn -0.4081713 0.5629181 0.7186928
vn -0.3950619 0.8725457 0.287385
vn -0.2245782 0.952113 0.2074741
vn 0.03767439 0.7487873 0.6617388
vn 0.1918874 0.9431574 0.2713547
vn 0.4632741 0.6641778 0.5867238
vn 0.5417067 0.7695537 0.3381435
vn -0.2906113 0.3535689 0.8891198
vn -0.3363894 0.3008373 0.8923782
vn -0.1095183 0.1066084 0.9882511
vn -0.1143666 0.02268363 0.9931797
vn 0.1402831 0.1833864 0.9729801
vn 0.005904604 0.4531838 0.8913975
vn 0.437571 0.4612122 0.7718905
vn 0.7569383 0.4376189 0.4853185
vn 0.45761 0.2944358 0.8389878
vn 0.561994 0.2084036 0.8004566
vn 0.6166753 0.770622 0.1607896
vn 0.3743014 0.9242113 -0.07570941
vn 0.5187855 0.8209721 -0.2384671
vn 0.2758788 0.8078171 -0.5208861
vn 0.0835932 0.9540284 -0.2878228
vn 0.1498384 0.7735555 -0.61576
vn -0.1377799 0.9475783 -0.2882917
vn 0.6977103 0.7070273 0.1153809
vn 0.7594531 0.6501855 0.02213013
vn 0.3485887 0.609226 -0.7122707
vn 0.50773 0.6770569 -0.5327328
vn 0.6003641 0.5610802 -0.5698703
vn 0.4313194 0.5536761 -0.7123247
vn 0.7635755 0.5722122 -0.2992084
vn 0.6942376 0.6514177 -0.306087
vn 0.8440747 0.5361525 -0.008862876
vn 0.8050837 0.4432111 -0.3942133
vn 0.8369539 0.3860428 -0.3879162
vn 0.9977525 0.02018798 -0.06389368
vn 0.9874178 -0.1242604 -0.09780367
vn 0.9774181 0.1922327 0.0877515
vn 0.8641668 0.4790189 -0.1541316
vn 0.9163598 0.3181666 0.2430118
vn 0.8753374 0.4786022 0.06873345
vn 0.8848036 0.1946914 0.4233412
vn 0.9412393 -0.01798038 0.3372613
vn 0.8015085 0.1318534 0.5832657
vn 0.8260638 -0.1262214 0.5492603
vn 0.6824068 0.1625172 0.7126774
vn 0.5957797 -0.09160672 0.7979065
vn 0.3611647 0.007144723 0.9324746
vn 0.9262516 -0.2902018 0.2405013
vn 0.1402831 0.1833864 0.9729801
vn 0.561994 0.2084036 0.8004566
vn 0.3611647 0.007144723 0.9324746
vn 0.08967558 -0.1896995 0.9777384
vn 0.4327258 -0.3100718 0.8465245
vn 0.4521307 -0.2931189 0.8424127
vn 0.1414363 -0.1400038 0.9799973
vn 0.5957797 -0.09160672 0.7979065
vn 0.3611647 0.007144723 0.9324746
vn -0.1143666 0.02268363 0.9931797
vn -0.1095183 0.1066084 0.9882511
vn 0.1402831 0.1833864 0.9729801
vn 0.7147171 -0.4915293 0.4975727
vn 0.7300341 -0.3788165 0.5688131
vn 0.9262516 -0.2902018 0.2405013
vn 0.9134894 -0.3495049 0.2082867
vn 0.8260638 -0.1262214 0.5492603
vn 0.9412393 -0.01798038 0.3372613
vn 0.9874178 -0.1242604 -0.09780367
vn 0.9977525 0.02018798 -0.06389368
vn 0.6824068 0.1625172 0.7126774
vn 0.3611647 0.007144723 0.9324746
vn 0.561994 0.2084036 0.8004566
vn 0.1402831 0.1833864 0.9729801
vn 0.45761 0.2944358 0.8389878
vn 0.4862253 -0.7252313 0.4874676
vn 0.5695679 -0.4427413 0.6925117
vn 0.5433782 -0.7855729 0.2959987
vn 0.4347037 -0.3854545 0.8139149
vn 0.8462285 -0.4894046 0.2106668
vn 0.9161621 -0.2037711 0.3451442
vn 0.4537493 -0.8836979 0.1148462
vn 0.4969378 -0.8643767 0.07684948
vn 0.3974816 -0.8988656 -0.1845237
vn 0.4381697 -0.8229537 -0.3615999
vn 0.7590809 -0.6464184 -0.07706839
vn 0.7959954 -0.4447207 -0.4106275
vn 0.9411356 -0.1046783 -0.3214129
vn 0.9984806 0.015506 -0.05287796
vn 0.2589905 -0.7463878 -0.6130492
vn 0.3450916 -0.6813372 -0.6455163
vn 0.06442885 -0.3385787 -0.9387297
vn 0.4259562 -0.2131331 -0.8792813
vn 0.7510424 -0.4265062 -0.5040116
vn 0.8603874 0.04190739 -0.5079147
vn 0.9424986 0.004938157 -0.3341735
vn 0.907773 -0.1538117 -0.3902435
vn -0.1715719 0.3167583 -0.9328598
vn 0.1958373 0.3354735 -0.9214692
vn 0.07625359 0.6138118 -0.7857611
vn -0.1634364 0.5975429 -0.7850038
vn 0.6640906 0.5454345 -0.5113559
vn 0.7345572 0.3299762 -0.5929093
vn 0.8828849 0.2887646 -0.3703098
vn 0.8429273 0.4226814 -0.3328874
vn 0.06442885 -0.3385787 -0.9387297
vn 0.4259562 -0.2131331 -0.8792813
vn 0.925281 0.2054523 -0.3188171
vn 0.9263586 0.3051423 -0.2207893
vn 0.8328806 0.4778754 -0.2791864
vn 0.8603874 0.04190739 -0.5079147
vn 0.9424986 0.004938157 -0.3341735
vn 0.7510424 -0.4265062 -0.5040116
vn 0.9411356 -0.1046783 -0.3214129
vn 0.9984806 0.015506 -0.05287796
vn 0.907773 -0.1538117 -0.3902435
vn 0.7959954 -0.4447207 -0.4106275
vn 0.9411356 -0.1046783 -0.3214129
vn 0.667877 0.7027618 -0.2450839
vn 0.816834 0.5503602 -0.1728754
vn 0.6218727 0.7771527 -0.09647847
vn 0.3655533 0.92982 -0.04249152
vn 0.4757811 0.8519937 -0.2184926
vn 0.6625882 0.7485054 0.02677024
vn 0.3864404 0.9130147 0.1306444
vn 0.2617004 0.9651476 -0.001731218
vn 0.1205118 0.9517078 -0.2823635
vn 0.8372089 0.5433282 -0.06225558
vn 0.873699 0.4863013 0.01269156
vn 0.7657945 0.6097957 0.2042252
vn 0.4178585 0.8751095 0.2440851
vn 0.3934956 0.7278761 0.561567
vn 0.4127953 0.7592731 0.503095
vn 0.202537 0.583119 0.7867344
vn 0.8999474 0.4355096 0.0206409
vn 0.524641 0.4108559 0.7456201
vn 0.2008202 0.2377754 0.9503336
vn 0.4458661 -0.05904628 0.89315
vn 0.3156223 -0.1302569 0.9399019
vn 0.8868221 0.05512585 0.4588113
vn 0.851531 0.4511608 0.267112
vn 0.9337696 0.3572876 0.02048967
vn 0.9908399 0.1339528 0.017117
vn 0.9161621 -0.2037711 0.3451442
vn 0.8462285 -0.4894046 0.2106668
vn 0.2295339 0.9733001 -0.001015589
vn 0.3575252 0.8723215 -0.3335131
vn 0.191 0.7339303 -0.651817
vn 0.06651226 0.8714724 -0.4859136
vn -0.1634364 0.5975429 -0.7850038
vn 0.2052846 0.8313345 -0.51647
vn 0.2785484 0.8604337 -0.4266904
vn 0.4243813 0.8187451 0.386726
vn 0.202537 0.583119 0.7867344
vn 0.3934956 0.7278761 0.561567
vn 0.3156223 -0.1302569 0.9399019
vn 0.4458661 -0.05904628 0.89315
vn 0.8868221 0.05512585 0.4588113
vn 0.986767 -0.08702657 0.1368111
vn 0.9462931 -0.2281464 0.229082
vn 0.8081251 -0.1652501 0.5653551
vn 0.7999303 0.07754043 0.5950623
vn 0.9570425 -0.1459748 -0.2505217
vn 0.9486758 -0.02260173 -0.3154416
vn 0.5259783 -0.008752748 0.850453
vn 0.4794934 0.3228444 0.816001
vn 0.9570425 -0.1459748 -0.2505217
vn 0.9486758 -0.02260173 -0.3154416
vn 0.7992096 0.08207686 -0.595422
vn 0.7430724 0.05030612 -0.6673176
vn 0.7860613 0.3753607 -0.4911332
vn 0.9072107 0.3254864 -0.2665094
vn 0.6476912 0.6694419 -0.3637908
vn 0.6915787 0.6792563 -0.2456209
vn 0.3664307 0.9303843 -0.01065632
vn 0.6862234 0.7135826 0.1410578
vn 0.5841619 0.7194057 -0.3757798
vn 0.986767 -0.08702657 0.1368111
vn 0.9143846 0.3692371 0.166027
vn 0.7999303 0.07754043 0.5950623
vn 0.6967812 0.5003096 0.5139906
vn 0.5242829 0.7653316 0.3733564
vn 0.3777874 0.8268494 0.4166495
vn 0.5322929 0.2514122 -0.8083664
vn 0.5053214 0.1808984 -0.8437571
vn 0.2815877 0.4868031 -0.8268804
vn 0.3020852 0.4954131 -0.8144388
vn 0.3209518 0.6588857 -0.6803377
vn 0.5436617 0.4940522 -0.6784869
vn 0.3883415 0.8098357 -0.4397238
vn 0.2191117 0.8970666 -0.3837468
vn 0.01692159 0.7490643 -0.6622812
vn -0.05981996 0.7951245 -0.6034887
vn -0.2697739 0.8683335 -0.4161958
vn -0.4055865 0.8039879 -0.4348599
vn -0.1204234 0.9254884 -0.3591233
vn 0.07320908 0.7972727 -0.5991632
vn 0.08580105 0.9773999 -0.1932037
vn -0.355299 0.9190278 -0.1707351
vn -0.3195339 0.9462737 -0.0496407
vn -0.3610752 0.8896456 0.2795631
vn -0.3068893 0.8937664 0.3271097
vn -0.1851694 0.9826985 0.00401886
vn -0.1393966 0.9339548 0.3290853
vn 0.02385985 0.9977009 0.06343226
vn 0.03008836 0.9581608 0.2846444
vn 0.05105986 0.9343322 0.3527271
vn -0.3000866 0.7731721 0.5587064
vn -0.1894118 0.8137938 0.5494206
vn -0.1288556 0.6737943 0.7275971
vn -0.05110839 0.7166564 0.6955513
vn -0.08497143 0.8760712 0.4746358
vn 0.03375189 0.8173447 0.5751594
vn 0.1579497 0.8918911 0.4237712
vn 0.2818644 0.8357719 0.4712088
vn 0.1568283 0.3972391 0.9042157
vn 0.1742181 0.606046 0.7761163
vn 0.2054427 0.740137 0.640305
vn 0.4031883 0.6516397 0.6424989
vn 0.4794934 0.3228444 0.816001
vn 0.5259783 -0.008752748 0.850453
vn 0.05893713 0.9284214 0.3668243
vn -0.03273331 0.9910305 -0.1295658
vn 0.3641053 0.9227046 0.1266636
vn -0.2804393 0.9558249 0.08804855
vn 0.4285644 0.8691228 -0.2468969
vn 0.3223111 0.8723766 -0.367525
vn 0.466513 0.7870932 -0.4035468
vn 0.3982429 0.7721407 -0.4951781
vn 0.5479077 0.7363561 0.3969595
vn 0.5687816 0.8188285 0.07750777
vn 0.6970524 0.6862319 0.2078554
vn 0.7703156 0.4007759 0.4959763
vn 0.5748515 0.805362 -0.1446988
vn 0.6929081 0.6934633 -0.197451
vn 0.6890074 0.6769149 -0.2589498
vn 0.6063667 0.7261107 -0.3241647
vn 0.4873067 0.581386 -0.6515539
vn 0.6951035 0.5847541 -0.418203
vn 0.3170138 0.7280493 -0.6078209
vn 0.9523146 0.283085 0.1138412
vn 0.8854958 0.4646472 0.0003010289
vn 0.884484 -0.03660066 0.4651326
vn 0.7628889 0.5456333 -0.346821
vn 0.7749375 0.373232 -0.5100683
vn 0.9297965 0.363506 0.0578091
vn 0.8039023 0.297065 -0.5152607
vn 0.6641695 0.4816927 -0.5717089
vn 0.6481009 0.3909942 -0.6535205
vn 0.7003957 0.2487647 -0.6690008
vn 0.8783834 -0.1100303 -0.4651194
vn 0.5396408 0.2522234 -0.8032255
vn 0.5530509 -0.300718 -0.7769836
vn 0.7453774 -0.2562778 -0.615414
vn 0.7054118 0.2412876 -0.6664643
vn 0.5137829 0.3587229 -0.7793235
vn 0.4432079 0.3633243 -0.8194891
vn 0.3922867 0.268348 -0.8798298
vn 0.3875452 0.3699656 -0.8443543
vn 0.2542862 0.2770897 -0.9265851
vn 0.2347461 0.1250386 -0.9639811
vn 0.2555548 -0.1315866 -0.9577978
vn 0.3120779 0.4598997 -0.831324
vn 0.06285232 0.3358605 -0.9398124
vn -0.09587954 -0.09295037 -0.9910436
vn 0.2353831 -0.01965504 -0.9717039
vn -0.3798545 0.02110649 -0.9248053
vn -0.4612604 0.2792856 -0.8421629
vn -0.00693898 0.5357923 -0.8443213
vn 0.2752568 0.5779562 -0.7682449
vn 0.2536949 0.6523781 -0.714172
vn -0.4763719 0.5144542 -0.7130264
vn -0.6834217 0.3398636 -0.6460865
vn -0.6098647 0.715876 -0.3399804
vn -0.3126255 0.7888267 -0.5291671
vn -0.01943659 0.6741432 -0.7383449
vn 0.1663952 0.8089653 -0.5638155
vn -0.6485492 0.1025564 -0.7542322
vn -0.3798545 0.02110649 -0.9248053
vn -0.6485492 0.1025564 -0.7542322
vn -0.5071738 -0.0891032 -0.8572254
vn 0.9681981 0.1510822 0.1994156
vn 0.8659636 -0.453846 0.2100729
vn 0.884484 -0.03660066 0.4651326
vn 0.8814378 0.01457612 0.472075
vn 0.8065121 -0.5910771 -0.01288719
vn 0.8879722 -0.4199085 -0.1875688
vn 0.5760911 -0.7077774 -0.4088643
vn 0.8659636 -0.453846 0.2100729
vn 0.6765515 -0.4425973 -0.5885454
vn 0.5530509 -0.300718 -0.7769836
vn 0.2802365 -0.7016326 -0.6551177
vn 0.1995752 -0.4526432 -0.8690706
vn 0.2802365 -0.7016326 -0.6551177
vn 0.1806301 -0.3162702 -0.9313141
vn -0.07665008 -0.5265125 -0.846705
vn -0.09587954 -0.09295037 -0.9910436
vn -0.07665008 -0.5265125 -0.846705
vn 0.2555548 -0.1315866 -0.9577978
vn -0.2856917 -0.3438406 -0.8945132
vn -0.3798545 0.02110649 -0.9248053
vn -0.5071738 -0.0891032 -0.8572254
vn -0.6485492 0.1025564 -0.7542322
vn -0.3798545 0.02110649 -0.9248053
vn -0.4612604 0.2792856 -0.8421629
vn 0.07139853 0.9501522 -0.3035012
vn 0.4426506 0.7918665 -0.4207232
vn 0.5948281 0.7332339 -0.3294658
vn -0.1120865 0.9095489 -0.4001966
vn 0.03199418 0.7357683 -0.6764773
vn -0.2777922 0.7545292 -0.5945731
vn 0.8207369 0.4743999 -0.3183327
vn 0.7009777 0.4588677 -0.5459585
vn 0.8094797 0.1997472 -0.5521265
vn 0.9377752 0.08613444 -0.3363904
vn 0.463268 0.2881377 -0.8380688
vn 0.3732761 0.4234194 -0.825458
vn -0.2931509 0.4202541 -0.8587486
vn 0.3819687 0.2671492 -0.884721
vn -0.4119264 0.7449287 -0.5247837
vn 0.8854132 -0.2141406 -0.4125378
vn 0.6831447 -0.06217641 -0.7276313
vn -0.372241 0.8551459 -0.3607801
vn -0.5684252 0.6572257 -0.4949213
vn -0.6051935 0.7171763 -0.3455417
vn -0.3877038 0.8630826 -0.3236884
vn -0.6018643 0.7278814 -0.3285543
vn -0.6916315 0.4934699 -0.5273836
vn -0.7464812 0.5734056 -0.3375972
vn -0.7563786 0.5271206 -0.3873438
vn -0.8523111 0.3551539 -0.383968
vn -0.8405064 0.3640293 -0.4012873
vn -0.7394698 0.4108713 -0.5332627
vn -0.7195572 0.3472973 -0.6013503
vn -0.9061119 0.09534487 -0.4121537
vn -0.8574814 0.2217494 -0.4642766
vn -0.7038696 0.1389759 -0.6966012
vn -0.546746 -0.02099554 -0.8370353
vn -0.2060609 -0.02039192 -0.9783266
vn 0.1788847 0.07750869 -0.9808123
vn 0.4850398 -0.3556357 -0.7989116
vn -0.06402884 -0.3341828 -0.9403309
vn 0.8854132 -0.2141406 -0.4125378
vn 0.4850398 -0.3556357 -0.7989116
vn 0.6633496 -0.5635355 -0.4923364
vn 0.6831447 -0.06217641 -0.7276313
vn 0.3692696 -0.7023473 -0.6085624
vn -0.3343042 -0.6942965 -0.6373329
vn -0.3417836 -0.5486455 -0.763002
vn -0.6693614 -0.3608968 -0.6493911
vn -0.6887371 -0.5048604 -0.5203432
vn -0.8395709 -0.311076 -0.4453678
vn -0.8251336 -0.128313 -0.5501729
vn -0.9061119 0.09534487 -0.4121537
vn -0.8574814 0.2217494 -0.4642766
vn -0.7038696 0.1389759 -0.6966012
vn -0.546746 -0.02099554 -0.8370353
vn -0.2060609 -0.02039192 -0.9783266
vn -0.2283935 -0.4371621 -0.8698998
vn -0.1258458 -0.7483404 -0.6512676
vn 0.4850398 -0.3556357 -0.7989116
vn -0.2283935 -0.4371621 -0.8698998
vn -0.09814393 0.9744725 -0.2019185
vn 0.2143818 0.8473762 -0.4857922
vn 0.1718046 0.9648306 -0.1989598
vn 0.4997732 0.7298961 -0.4663459
vn -0.1958683 0.8016737 -0.5647609
vn -0.3866087 0.8583992 -0.3371713
vn 0.3526337 0.5281946 -0.7724378
vn 0.6064342 0.3957768 -0.6896364
vn 0.3643166 0.2869269 -0.8859719
vn 0.5442569 0.09037635 -0.8340363
vn -0.0335018 0.3764664 -0.9258243
vn -0.07037689 0.5212615 -0.8504902
vn -0.5509254 0.5492584 -0.6283283
vn -0.1603257 0.3971611 -0.9036365
vn -0.5329166 0.8048348 -0.2612293
vn 0.1603602 0.1341939 -0.9778939
vn 0.356349 -0.1363029 -0.9243576
vn -0.4104097 0.9102637 -0.05462468
vn -0.606118 0.7747453 -0.1799737
vn -0.5736867 0.8184909 0.03092437
vn -0.2958078 0.9549348 0.02443736
vn -0.5874094 0.8047346 0.08574684
vn -0.7174075 0.6740363 -0.1760722
vn -0.7505667 0.6604378 0.02171483
vn -0.8031971 0.5646156 -0.1899567
vn -0.8487453 0.528679 -0.01138744
vn -0.7842188 0.61694 0.06622636
vn -0.874528 0.4845048 0.02135276
vn -0.9176859 0.3811802 -0.1120459
vn -0.9734263 0.2072053 -0.09750576
vn -0.9477347 0.1112566 -0.2990334
vn -0.8419482 0.3420598 -0.4172747
vn -0.8261719 0.5107455 -0.2378633
vn -0.7616194 0.2268402 -0.607025
vn -0.8755437 -0.01142325 -0.4830039
vn -0.5635229 0.2289394 -0.7937435
vn -0.663711 -0.1131539 -0.7393808
vn -0.3201917 0.275246 -0.9064861
vn -0.1107255 -0.08246087 -0.9904242
vn 0.356349 -0.1363029 -0.9243576
vn 0.1603602 0.1341939 -0.9778939
vn -0.1107255 -0.08246087 -0.9904242
vn 0.100521 -0.3277158 -0.9394137
vn -0.4205183 -0.368773 -0.8289577
vn -0.663711 -0.1131539 -0.7393808
vn -0.8748803 -0.2288005 -0.4268898
vn -0.8755437 -0.01142325 -0.4830039
vn -0.969148 -0.06633773 -0.2373844
vn -0.9477347 0.1112566 -0.2990334
vn -0.9734263 0.2072053 -0.09750576
vn 0.6985126 0.7028403 0.1345206
vn 0.4882442 0.8350319 0.253652
vn 0.5889148 0.7915925 -0.1629743
vn 0.7493041 0.57727 -0.3245037
vn 0.2301046 0.9712039 -0.06176364
vn 0.1678276 0.9611599 0.2191012
vn 0.4389645 0.7017611 -0.5611074
vn 0.5725875 0.4619674 -0.6772959
vn 0.2549869 0.6497735 -0.7160839
vn 0.3046765 0.3913855 -0.8683258
vn 0.02820631 0.8572855 -0.514068
vn 0.102782 0.900876 -0.4217325
vn -0.1827051 0.9817779 -0.0522587
vn -0.02868953 0.8781289 -0.4775632
vn 0.05415247 0.9306459 0.3618917
vn 0.003756389 0.6231822 -0.7820677
vn -0.217698 0.8735698 -0.4352969
vn -0.2687155 0.6533859 -0.707728
vn 0.01130545 0.3912991 -0.9201941
vn -0.3710049 0.4377371 -0.818988
vn -0.3866219 0.8799503 -0.2760634
vn -0.6255705 0.6607732 -0.4147773
vn -0.7055106 0.708581 -0.01295476
vn -0.8301424 0.5552697 -0.05038986
vn -0.6619121 0.5556246 -0.5031438
vn -0.5000769 0.8632846 -0.06828479
vn -0.4731462 0.868475 0.1479321
vn -0.7891929 0.5824222 0.1948301
vn -0.6710668 0.7134405 0.2016733
vn -0.6159554 0.6695194 0.4151418
vn -0.4722719 0.7611247 0.4445767
vn -0.3462203 0.8708259 0.3489894
vn -0.362895 0.7277187 0.5820073
vn -0.321458 0.764306 0.5590179
vn -0.206302 0.7435857 0.6360188
vn -0.1613197 0.7842522 0.599103
vn -0.291858 0.8684424 0.4007826
vn -0.1604074 0.893174 0.4201305
vn -0.0516847 0.9238372 0.3792802
vn 0.09648057 0.7594863 0.6433289
vn 0.04716612 0.8174303 0.5740933
vn 0.2555761 0.8295363 0.4965385
vn 0.4325356 0.7595733 0.4857586
g NAX_SpiderNest_EggCluster2_0
f 3/3/3 2/2/2 1/1/1
f 4/4/4 3/3/3 1/1/1
f 4/4/4 5/5/5 3/3/3
f 6/6/6 3/3/3 5/5/5
f 5/5/5 7/7/7 6/6/6
f 8/8/8 6/6/6 7/7/7
f 7/7/7 9/9/9 8/8/8
f 9/9/9 7/7/7 10/10/10
f 9/9/9 10/10/10 11/11/11
f 11/11/11 10/10/10 12/12/12
f 10/10/10 13/13/13 12/12/12
f 7/7/7 13/13/13 10/10/10
f 14/14/14 12/12/12 13/13/13
f 15/15/15 13/13/13 7/7/7
f 5/5/5 15/15/15 7/7/7
f 16/16/16 15/15/15 5/5/5
f 16/16/16 5/5/5 17/17/17
f 4/4/4 17/17/17 5/5/5
f 17/17/17 4/4/4 1/1/1
f 17/17/17 1/1/1 18/18/18
f 18/18/18 1/1/1 19/19/19
f 20/20/20 19/19/19 1/1/1
f 19/19/19 20/20/20 21/21/21
f 22/22/22 21/21/21 20/20/20
f 20/20/20 23/23/23 22/22/22
f 23/23/23 20/20/20 2/2/2
f 1/1/1 2/2/2 20/20/20
f 24/24/24 22/22/22 23/23/23
f 17/17/17 18/18/18 25/25/25
f 25/25/25 16/16/16 17/17/17
f 26/26/26 25/25/25 18/18/18
f 19/19/19 27/27/27 18/18/18
f 26/26/26 18/18/18 27/27/27
f 28/28/28 19/19/19 21/21/21
f 27/27/27 19/19/19 28/28/28
f 21/21/21 29/29/29 28/28/28
f 30/30/30 28/28/28 29/29/29
f 29/29/29 31/31/31 30/30/30
f 32/32/32 30/30/30 31/31/31
f 31/31/31 14/14/14 32/32/32
f 33/33/33 32/32/32 14/14/14
f 26/26/26 34/34/34 25/25/25
f 26/26/26 27/27/27 34/34/34
f 35/35/35 25/25/25 34/34/34
f 36/36/36 34/34/34 27/27/27
f 27/27/27 28/28/28 37/37/37
f 36/36/36 27/27/27 37/37/37
f 30/30/30 38/38/38 28/28/28
f 37/37/37 28/28/28 38/38/38
f 30/30/30 32/32/32 38/38/38
f 39/39/39 38/38/38 32/32/32
f 32/32/32 33/33/33 39/39/39
f 40/40/40 39/39/39 33/33/33
f 33/33/33 41/41/41 40/40/40
f 14/14/14 41/41/41 33/33/33
f 41/41/41 14/14/14 13/13/13
f 13/13/13 15/15/15 41/41/41
f 42/42/42 41/41/41 15/15/15
f 43/43/43 42/42/42 15/15/15
f 43/43/43 15/15/15 16/16/16
f 25/25/25 43/43/43 16/16/16
f 25/25/25 35/35/35 43/43/43
f 44/44/44 40/40/40 41/41/41
f 41/41/41 42/42/42 44/44/44
f 45/45/45 44/44/44 42/42/42
f 42/42/42 46/46/46 45/45/45
f 46/46/46 42/42/42 43/43/43
f 46/46/46 43/43/43 35/35/35
f 47/47/47 37/37/37 38/38/38
f 47/47/47 38/38/38 39/39/39
f 47/47/47 39/39/39 40/40/40
f 47/47/47 40/40/40 44/44/44
f 47/47/47 44/44/44 45/45/45
f 47/47/47 45/45/45 46/46/46
f 47/47/47 36/36/36 37/37/37
f 47/47/47 46/46/46 35/35/35
f 47/47/47 35/35/35 34/34/34
f 47/47/47 34/34/34 36/36/36
f 50/50/50 49/49/49 48/48/48
f 52/52/52 51/51/51 49/49/49
f 52/52/52 53/53/53 51/51/51
f 54/54/54 51/51/51 53/53/53
f 51/51/51 54/54/54 55/55/55
f 51/51/51 55/55/55 56/56/56
f 48/48/48 56/56/56 57/57/57
f 58/58/58 57/57/57 56/56/56
f 58/58/58 56/56/56 55/55/55
f 59/59/59 55/55/55 54/54/54
f 61/61/61 22/22/22 60/60/60
f 61/61/61 60/60/60 62/62/62
f 65/65/65 64/64/64 63/63/63
f 63/63/63 66/66/66 65/65/65
f 66/66/66 63/63/63 67/67/67
f 67/67/67 68/68/68 66/66/66
f 63/63/63 64/64/64 69/69/69
f 70/70/70 69/69/69 64/64/64
f 69/69/69 70/70/70 71/71/71
f 72/72/72 71/71/71 70/70/70
f 69/69/69 73/73/73 63/63/63
f 67/67/67 63/63/63 73/73/73
f 66/66/66 74/74/74 65/65/65
f 66/66/66 68/68/68 74/74/74
f 75/75/75 65/65/65 74/74/74
f 74/74/74 76/76/76 75/75/75
f 77/77/77 75/75/75 76/76/76
f 74/74/74 78/78/78 76/76/76
f 78/78/78 74/74/74 68/68/68
f 79/79/79 76/76/76 78/78/78
f 76/76/76 80/80/80 77/77/77
f 81/81/81 77/77/77 80/80/80
f 79/79/79 82/82/82 76/76/76
f 80/80/80 76/76/76 82/82/82
f 80/80/80 83/83/83 81/81/81
f 84/84/84 81/81/81 83/83/83
f 83/83/83 85/85/85 84/84/84
f 78/78/78 86/86/86 79/79/79
f 87/87/87 79/79/79 86/86/86
f 88/88/88 84/84/84 85/85/85
f 91/91/91 90/90/90 89/89/89
f 92/92/92 89/89/89 90/90/90
f 91/91/91 93/93/93 90/90/90
f 94/94/94 90/90/90 93/93/93
f 94/94/94 93/93/93 95/95/95
f 96/96/96 95/95/95 93/93/93
f 92/92/92 90/90/90 97/97/97
f 98/98/98 97/97/97 90/90/90
f 90/90/90 94/94/94 98/98/98
f 99/99/99 98/98/98 94/94/94
f 98/98/98 99/99/99 100/100/100
f 101/101/101 100/100/100 99/99/99
f 99/99/99 102/102/102 101/101/101
f 102/102/102 94/94/94 95/95/95
f 99/99/99 94/94/94 102/102/102
f 103/103/103 101/101/101 102/102/102
f 95/95/95 103/103/103 102/102/102
f 95/95/95 104/104/104 103/103/103
f 104/104/104 95/95/95 96/96/96
f 105/105/105 104/104/104 96/96/96
f 105/105/105 96/96/96 106/106/106
f 106/106/106 96/96/96 93/93/93
f 106/106/106 107/107/107 105/105/105
f 107/107/107 106/106/106 108/108/108
f 109/109/109 108/108/108 106/106/106
f 109/109/109 110/110/110 108/108/108
f 109/109/109 89/89/89 110/110/110
f 109/109/109 91/91/91 89/89/89
f 110/110/110 111/111/111 108/108/108
f 112/112/112 105/105/105 107/107/107
f 104/104/104 105/105/105 112/112/112
f 113/113/113 104/104/104 112/112/112
f 106/106/106 93/93/93 109/109/109
f 93/93/93 91/91/91 109/109/109
f 111/111/111 114/114/114 108/108/108
f 115/115/115 108/108/108 114/114/114
f 108/108/108 115/115/115 107/107/107
f 114/114/114 116/116/116 115/115/115
f 117/117/117 115/115/115 116/116/116
f 115/115/115 117/117/117 118/118/118
f 118/118/118 107/107/107 115/115/115
f 107/107/107 118/118/118 112/112/112
f 113/113/113 112/112/112 118/118/118
f 119/119/119 118/118/118 117/117/117
f 118/118/118 119/119/119 113/113/113
f 120/120/120 113/113/113 119/119/119
f 119/119/119 117/117/117 121/121/121
f 122/122/122 119/119/119 121/121/121
f 122/122/122 120/120/120 119/119/119
f 121/121/121 123/123/123 122/122/122
f 124/124/124 120/120/120 122/122/122
f 122/122/122 125/125/125 124/124/124
f 125/125/125 122/122/122 123/123/123
f 126/126/126 124/124/124 125/125/125
f 124/124/124 104/104/104 120/120/120
f 104/104/104 124/124/124 126/126/126
f 104/104/104 113/113/113 120/120/120
f 126/126/126 125/125/125 127/127/127
f 128/128/128 127/127/127 125/125/125
f 131/131/131 130/130/130 129/129/129
f 132/132/132 131/131/131 129/129/129
f 129/129/129 133/133/133 132/132/132
f 134/134/134 132/132/132 133/133/133
f 134/134/134 133/133/133 135/135/135
f 136/136/136 134/134/134 135/135/135
f 137/137/137 129/129/129 130/130/130
f 130/130/130 138/138/138 137/137/137
f 137/137/137 138/138/138 139/139/139
f 139/139/139 138/138/138 140/140/140
f 137/137/137 139/139/139 141/141/141
f 142/142/142 137/137/137 141/141/141
f 133/133/133 129/129/129 142/142/142
f 137/137/137 142/142/142 129/129/129
f 135/135/135 133/133/133 143/143/143
f 142/142/142 143/143/143 133/133/133
f 143/143/143 144/144/144 135/135/135
f 144/144/144 136/136/136 135/135/135
f 143/143/143 145/145/145 144/144/144
f 145/145/145 143/143/143 142/142/142
f 142/142/142 141/141/141 145/145/145
f 146/146/146 144/144/144 145/145/145
f 136/136/136 144/144/144 147/147/147
f 147/147/147 148/148/148 136/136/136
f 134/134/134 136/136/136 148/148/148
f 149/149/149 148/148/148 147/147/147
f 149/149/149 150/150/150 148/148/148
f 150/150/150 151/151/151 148/148/148
f 150/150/150 152/152/152 151/151/151
f 152/152/152 153/153/153 151/151/151
f 154/154/154 149/149/149 147/147/147
f 144/144/144 154/154/154 147/147/147
f 154/154/154 144/144/144 155/155/155
f 154/154/154 155/155/155 149/149/149
f 150/150/150 156/156/156 152/152/152
f 150/150/150 157/157/157 156/156/156
f 150/150/150 149/149/149 157/157/157
f 157/157/157 158/158/158 156/156/156
f 159/159/159 156/156/156 158/158/158
f 158/158/158 157/157/157 160/160/160
f 161/161/161 160/160/160 157/157/157
f 161/161/161 157/157/157 149/149/149
f 149/149/149 155/155/155 161/161/161
f 155/155/155 162/162/162 161/161/161
f 160/160/160 161/161/161 162/162/162
f 158/158/158 163/163/163 159/159/159
f 164/164/164 159/159/159 163/163/163
f 163/163/163 165/165/165 164/164/164
f 166/166/166 164/164/164 165/165/165
f 165/165/165 163/163/163 167/167/167
f 168/168/168 167/167/167 163/163/163
f 168/168/168 158/158/158 160/160/160
f 158/158/158 168/168/168 163/163/163
f 167/167/167 168/168/168 169/169/169
f 170/170/170 169/169/169 168/168/168
f 170/170/170 160/160/160 162/162/162
f 160/160/160 170/170/170 168/168/168
f 162/162/162 144/144/144 170/170/170
f 144/144/144 169/169/169 170/170/170
f 169/169/169 144/144/144 171/171/171
f 169/169/169 171/171/171 167/167/167
f 172/172/172 165/165/165 167/167/167
f 172/172/172 167/167/167 171/171/171
f 171/171/171 173/173/173 172/172/172
f 144/144/144 173/173/173 171/171/171
f 174/174/174 172/172/172 173/173/173
f 173/173/173 144/144/144 175/175/175
f 175/175/175 176/176/176 173/173/173
f 174/174/174 173/173/173 176/176/176
f 176/176/176 175/175/175 177/177/177
f 178/178/178 165/165/165 172/172/172
f 144/144/144 146/146/146 175/175/175
f 144/144/144 162/162/162 155/155/155
f 181/181/181 180/180/180 179/179/179
f 184/184/184 183/183/183 182/182/182
f 185/185/185 182/182/182 183/183/183
f 183/183/183 186/186/186 185/185/185
f 187/187/187 185/185/185 186/186/186
f 188/188/188 182/182/182 185/185/185
f 189/189/189 188/188/188 185/185/185
f 185/185/185 187/187/187 189/189/189
f 190/190/190 189/189/189 187/187/187
f 184/184/184 191/191/191 183/183/183
f 192/192/192 183/183/183 191/191/191
f 183/183/183 192/192/192 186/186/186
f 192/192/192 191/191/191 193/193/193
f 191/191/191 194/194/194 193/193/193
f 192/192/192 193/193/193 195/195/195
f 186/186/186 192/192/192 195/195/195
f 196/196/196 195/195/195 193/193/193
f 194/194/194 197/197/197 193/193/193
f 198/198/198 193/193/193 197/197/197
f 201/201/201 200/200/200 199/199/199
f 203/203/203 202/202/202 201/201/201
f 131/131/131 132/132/132 153/153/153
f 151/151/151 153/153/153 132/132/132
f 132/132/132 134/134/134 151/151/151
f 148/148/148 151/151/151 134/134/134
f 206/206/206 205/205/205 204/204/204
f 207/207/207 204/204/204 205/205/205
f 206/206/206 208/208/208 205/205/205
f 209/209/209 205/205/205 208/208/208
f 204/204/204 210/210/210 206/206/206
f 211/211/211 206/206/206 210/210/210
f 211/211/211 208/208/208 206/206/206
f 210/210/210 212/212/212 211/211/211
f 213/213/213 211/211/211 212/212/212
f 211/211/211 213/213/213 214/214/214
f 214/214/214 208/208/208 211/211/211
f 215/215/215 214/214/214 213/213/213
f 214/214/214 215/215/215 216/216/216
f 214/214/214 216/216/216 208/208/208
f 217/217/217 208/208/208 216/216/216
f 212/212/212 218/218/218 213/213/213
f 219/219/219 213/213/213 218/218/218
f 218/218/218 220/220/220 219/219/219
f 221/221/221 219/219/219 220/220/220
f 215/215/215 213/213/213 222/222/222
f 219/219/219 222/222/222 213/213/213
f 219/219/219 221/221/221 222/222/222
f 223/223/223 222/222/222 221/221/221
f 225/225/225 224/224/224 216/216/216
f 228/228/228 227/227/227 226/226/226
f 228/228/228 226/226/226 229/229/229
f 227/227/227 228/228/228 230/230/230
f 230/230/230 231/231/231 227/227/227
f 231/231/231 230/230/230 232/232/232
f 233/233/233 232/232/232 230/230/230
f 227/227/227 234/234/234 226/226/226
f 227/227/227 235/235/235 234/234/234
f 227/227/227 231/231/231 235/235/235
f 236/236/236 231/231/231 232/232/232
f 232/232/232 237/237/237 236/236/236
f 237/237/237 232/232/232 233/233/233
f 238/238/238 237/237/237 233/233/233
f 231/231/231 236/236/236 239/239/239
f 239/239/239 235/235/235 231/231/231
f 236/236/236 240/240/240 239/239/239
f 237/237/237 240/240/240 236/236/236
f 241/241/241 239/239/239 240/240/240
f 242/242/242 240/240/240 237/237/237
f 242/242/242 237/237/237 243/243/243
f 244/244/244 241/241/241 240/240/240
f 244/244/244 245/245/245 241/241/241
f 244/244/244 246/246/246 245/245/245
f 238/238/238 233/233/233 247/247/247
f 238/238/238 247/247/247 248/248/248
f 237/237/237 238/238/238 248/248/248
f 249/249/249 248/248/248 247/247/247
f 249/249/249 247/247/247 250/250/250
f 251/251/251 250/250/250 247/247/247
f 249/249/249 250/250/250 252/252/252
f 253/253/253 252/252/252 250/250/250
f 250/250/250 254/254/254 253/253/253
f 254/254/254 250/250/250 255/255/255
f 252/252/252 256/256/256 249/249/249
f 248/248/248 249/249/249 256/256/256
f 257/257/257 256/256/256 252/252/252
f 257/257/257 252/252/252 258/258/258
f 259/259/259 258/258/258 252/252/252
f 260/260/260 259/259/259 254/254/254
f 258/258/258 259/259/259 261/261/261
f 261/261/261 259/259/259 262/262/262
f 256/256/256 237/237/237 248/248/248
f 237/237/237 256/256/256 257/257/257
f 263/263/263 237/237/237 257/257/257
f 257/257/257 258/258/258 263/263/263
f 261/261/261 262/262/262 264/264/264
f 258/258/258 261/261/261 264/264/264
f 262/262/262 265/265/265 264/264/264
f 266/266/266 264/264/264 265/265/265
f 265/265/265 267/267/267 266/266/266
f 264/264/264 266/266/266 268/268/268
f 269/269/269 264/264/264 268/268/268
f 269/269/269 258/258/258 264/264/264
f 269/269/269 263/263/263 258/258/258
f 269/269/269 268/268/268 270/270/270
f 263/263/263 269/269/269 270/270/270
f 237/237/237 263/263/263 270/270/270
f 271/271/271 237/237/237 270/270/270
f 270/270/270 268/268/268 271/271/271
f 272/272/272 271/271/271 268/268/268
f 271/271/271 272/272/272 243/243/243
f 237/237/237 271/271/271 243/243/243
f 273/273/273 243/243/243 272/272/272
f 275/275/275 274/274/274 250/250/250
f 278/278/278 277/277/277 276/276/276
f 279/279/279 228/228/228 229/229/229
f 228/228/228 280/280/280 230/230/230
f 230/230/230 280/280/280 247/247/247
f 230/230/230 247/247/247 233/233/233
f 283/283/283 282/282/282 281/281/281
f 284/284/284 207/207/207 205/205/205
f 205/205/205 285/285/285 284/284/284
f 285/285/285 205/205/205 286/286/286
f 286/286/286 205/205/205 209/209/209
f 289/289/289 288/288/288 287/287/287
f 287/287/287 290/290/290 289/289/289
f 288/288/288 291/291/291 287/287/287
f 292/292/292 287/287/287 291/291/291
f 289/289/289 290/290/290 293/293/293
f 294/294/294 293/293/293 290/290/290
f 297/297/297 296/296/296 295/295/295
f 297/297/297 295/295/295 298/298/298
f 299/299/299 296/296/296 297/297/297
f 299/299/299 300/300/300 296/296/296
f 300/300/300 299/299/299 301/301/301
f 301/301/301 302/302/302 300/300/300
f 302/302/302 301/301/301 303/303/303
f 302/302/302 303/303/303 304/304/304
f 305/305/305 303/303/303 301/301/301
f 301/301/301 299/299/299 305/305/305
f 296/296/296 300/300/300 306/306/306
f 307/307/307 306/306/306 300/300/300
f 304/304/304 307/307/307 302/302/302
f 300/300/300 302/302/302 307/307/307
f 307/307/307 308/308/308 306/306/306
f 307/307/307 309/309/309 308/308/308
f 304/304/304 309/309/309 307/307/307
f 304/304/304 310/310/310 309/309/309
f 303/303/303 310/310/310 304/304/304
f 310/310/310 303/303/303 311/311/311
f 297/297/297 298/298/298 312/312/312
f 313/313/313 312/312/312 298/298/298
f 312/312/312 313/313/313 314/314/314
f 315/315/315 314/314/314 313/313/313
f 314/314/314 316/316/316 312/312/312
f 317/317/317 312/312/312 316/316/316
f 318/318/318 305/305/305 317/317/317
f 318/318/318 317/317/317 316/316/316
f 303/303/303 305/305/305 318/318/318
f 319/319/319 303/303/303 318/318/318
f 318/318/318 316/316/316 319/319/319
f 312/312/312 317/317/317 297/297/297
f 299/299/299 297/297/297 317/317/317
f 317/317/317 305/305/305 299/299/299
f 314/314/314 315/315/315 320/320/320
f 321/321/321 320/320/320 315/315/315
f 320/320/320 321/321/321 322/322/322
f 321/321/321 323/323/323 322/322/322
f 320/320/320 322/322/322 324/324/324
f 325/325/325 320/320/320 324/324/324
f 325/325/325 324/324/324 319/319/319
f 320/320/320 325/325/325 314/314/314
f 316/316/316 314/314/314 325/325/325
f 325/325/325 319/319/319 316/316/316
f 326/326/326 319/319/319 324/324/324
f 323/323/323 327/327/327 322/322/322
f 328/328/328 322/322/322 327/327/327
f 322/322/322 328/328/328 324/324/324
f 327/327/327 329/329/329 328/328/328
f 330/330/330 328/328/328 329/329/329
f 328/328/328 330/330/330 331/331/331
f 324/324/324 328/328/328 331/331/331
f 324/324/324 331/331/331 326/326/326
f 332/332/332 331/331/331 330/330/330
f 331/331/331 332/332/332 333/333/333
f 326/326/326 331/331/331 333/333/333
f 334/334/334 333/333/333 332/332/332
f 333/333/333 303/303/303 326/326/326
f 303/303/303 333/333/333 334/334/334
f 335/335/335 303/303/303 334/334/334
f 329/329/329 336/336/336 330/330/330
f 337/337/337 330/330/330 336/336/336
f 337/337/337 332/332/332 330/330/330
f 336/336/336 338/338/338 337/337/337
f 339/339/339 337/337/337 338/338/338
f 337/337/337 339/339/339 340/340/340
f 337/337/337 340/340/340 332/332/332
f 334/334/334 340/340/340 335/335/335
f 340/340/340 334/334/334 332/332/332
f 341/341/341 340/340/340 339/339/339
f 340/340/340 341/341/341 335/335/335
f 342/342/342 335/335/335 341/341/341
f 303/303/303 335/335/335 342/342/342
f 343/343/343 303/303/303 342/342/342
f 338/338/338 344/344/344 339/339/339
f 345/345/345 339/339/339 344/344/344
f 341/341/341 339/339/339 345/345/345
f 346/346/346 341/341/341 345/345/345
f 342/342/342 341/341/341 346/346/346
f 343/343/343 342/342/342 346/346/346
f 346/346/346 345/345/345 347/347/347
f 346/346/346 347/347/347 343/343/343
f 348/348/348 347/347/347 345/345/345
f 345/345/345 344/344/344 348/348/348
f 311/311/311 343/343/343 347/347/347
f 303/303/303 343/343/343 311/311/311
f 347/347/347 348/348/348 309/309/309
f 308/308/308 309/309/309 348/348/348
f 309/309/309 310/310/310 347/347/347
f 311/311/311 347/347/347 310/310/310
f 344/344/344 349/349/349 348/348/348
f 303/303/303 319/319/319 326/326/326
f 352/352/352 351/351/351 350/350/350
f 353/353/353 350/350/350 351/351/351
f 354/354/354 351/351/351 352/352/352
f 354/354/354 355/355/355 351/351/351
f 356/356/356 355/355/355 354/354/354
f 356/356/356 357/357/357 355/355/355
f 350/350/350 358/358/358 352/352/352
f 359/359/359 352/352/352 358/358/358
f 352/352/352 359/359/359 354/354/354
f 359/359/359 358/358/358 360/360/360
f 358/358/358 361/361/361 360/360/360
f 359/359/359 360/360/360 362/362/362
f 362/362/362 354/354/354 359/359/359
f 363/363/363 362/362/362 360/360/360
f 362/362/362 363/363/363 364/364/364
f 365/365/365 362/362/362 364/364/364
f 356/356/356 354/354/354 365/365/365
f 362/362/362 365/365/365 354/354/354
f 365/365/365 366/366/366 356/356/356
f 366/366/366 357/357/357 356/356/356
f 367/367/367 366/366/366 365/365/365
f 367/367/367 365/365/365 364/364/364
f 357/357/357 366/366/366 368/368/368
f 357/357/357 368/368/368 355/355/355
f 360/360/360 361/361/361 369/369/369
f 360/360/360 370/370/370 363/363/363
f 361/361/361 371/371/371 369/369/369
f 363/363/363 370/370/370 372/372/372
f 363/363/363 372/372/372 364/364/364
f 364/364/364 372/372/372 367/367/367
f 372/372/372 373/373/373 367/367/367
f 372/372/372 374/374/374 373/373/373
f 375/375/375 373/373/373 374/374/374
f 376/376/376 367/367/367 373/373/373
f 366/366/366 367/367/367 376/376/376
f 377/377/377 366/366/366 376/376/376
f 376/376/376 373/373/373 377/377/377
f 378/378/378 377/377/377 373/373/373
f 373/373/373 379/379/379 378/378/378
f 378/378/378 380/380/380 377/377/377
f 380/380/380 378/378/378 381/381/381
f 382/382/382 381/381/381 378/378/378
f 383/383/383 378/378/378 375/375/375
f 384/384/384 377/377/377 380/380/380
f 366/366/366 377/377/377 384/384/384
f 385/385/385 366/366/366 384/384/384
f 380/380/380 386/386/386 384/384/384
f 385/385/385 384/384/384 386/386/386
f 385/385/385 386/386/386 387/387/387
f 366/366/366 385/385/385 387/387/387
f 388/388/388 387/387/387 386/386/386
f 386/386/386 389/389/389 388/388/388
f 386/386/386 380/380/380 389/389/389
f 381/381/381 390/390/390 380/380/380
f 387/387/387 388/388/388 391/391/391
f 391/391/391 366/366/366 387/387/387
f 392/392/392 391/391/391 388/388/388
f 388/388/388 393/393/393 392/392/392
f 393/393/393 388/388/388 394/394/394
f 395/395/395 392/392/392 393/393/393
f 395/395/395 396/396/396 392/392/392
f 397/397/397 392/392/392 396/396/396
f 398/398/398 392/392/392 397/397/397
f 398/398/398 391/391/391 392/392/392
f 366/366/366 391/391/391 398/398/398
f 399/399/399 366/366/366 398/398/398
f 398/398/398 397/397/397 399/399/399
f 400/400/400 397/397/397 396/396/396
f 400/400/400 396/396/396 401/401/401
f 401/401/401 402/402/402 400/400/400
f 403/403/403 400/400/400 402/402/402
f 400/400/400 403/403/403 404/404/404
f 404/404/404 397/397/397 400/400/400
f 404/404/404 399/399/399 397/397/397
f 405/405/405 404/404/404 403/403/403
f 404/404/404 405/405/405 399/399/399
f 368/368/368 399/399/399 405/405/405
f 366/366/366 399/399/399 368/368/368
f 406/406/406 401/401/401 396/396/396
f 402/402/402 351/351/351 403/403/403
f 351/351/351 405/405/405 403/403/403
f 351/351/351 402/402/402 353/353/353
f 355/355/355 405/405/405 351/351/351
f 355/355/355 368/368/368 405/405/405
f 409/409/409 408/408/408 407/407/407
f 412/412/412 411/411/411 410/410/410
f 414/414/414 413/413/413 411/411/411
f 417/417/417 416/416/416 415/415/415
f 418/418/418 415/415/415 416/416/416
f 418/418/418 416/416/416 419/419/419
f 420/420/420 419/419/419 416/416/416
f 419/419/419 420/420/420 421/421/421
f 424/424/424 423/423/423 422/422/422
f 427/427/427 426/426/426 425/425/425
f 428/428/428 425/425/425 426/426/426
f 425/425/425 428/428/428 429/429/429
f 430/430/430 429/429/429 428/428/428
f 433/433/433 432/432/432 431/431/431
f 436/436/436 435/435/435 434/434/434
f 437/437/437 434/434/434 435/435/435
f 435/435/435 438/438/438 437/437/437
f 439/439/439 437/437/437 438/438/438
f 436/436/436 440/440/440 435/435/435
f 441/441/441 435/435/435 440/440/440
f 441/441/441 440/440/440 442/442/442
f 440/440/440 443/443/443 442/442/442
f 442/442/442 444/444/444 441/441/441
f 445/445/445 441/441/441 444/444/444
f 441/441/441 445/445/445 435/435/435
f 438/438/438 435/435/435 445/445/445
f 445/445/445 446/446/446 438/438/438
f 446/446/446 439/439/439 438/438/438
f 446/446/446 445/445/445 444/444/444
f 447/447/447 446/446/446 444/444/444
f 444/444/444 442/442/442 447/447/447
f 439/439/439 446/446/446 448/448/448
f 439/439/439 448/448/448 437/437/437
f 443/443/443 449/449/449 442/442/442
f 442/442/442 449/449/449 450/450/450
f 450/450/450 447/447/447 442/442/442
f 451/451/451 437/437/437 448/448/448
f 437/437/437 451/451/451 434/434/434
f 448/448/448 452/452/452 451/451/451
f 446/446/446 452/452/452 448/448/448
f 453/453/453 451/451/451 452/452/452
f 451/451/451 453/453/453 454/454/454
f 454/454/454 434/434/434 451/451/451
f 455/455/455 454/454/454 453/453/453
f 452/452/452 446/446/446 456/456/456
f 455/455/455 453/453/453 457/457/457
f 458/458/458 457/457/457 453/453/453
f 453/453/453 452/452/452 458/458/458
f 456/456/456 458/458/458 452/452/452
f 459/459/459 457/457/457 458/458/458
f 460/460/460 459/459/459 458/458/458
f 460/460/460 458/458/458 456/456/456
f 461/461/461 460/460/460 456/456/456
f 446/446/446 461/461/461 456/456/456
f 461/461/461 446/446/446 462/462/462
f 459/459/459 460/460/460 463/463/463
f 464/464/464 463/463/463 460/460/460
f 462/462/462 464/464/464 461/461/461
f 460/460/460 461/461/461 464/464/464
f 462/462/462 465/465/465 464/464/464
f 446/446/446 465/465/465 462/462/462
f 465/465/465 446/446/446 466/466/466
f 446/446/446 467/467/467 466/466/466
f 467/467/467 446/446/446 468/468/468
f 446/446/446 447/447/447 468/468/468
f 468/468/468 469/469/469 467/467/467
f 468/468/468 450/450/450 469/469/469
f 468/468/468 447/447/447 450/450/450
f 470/470/470 467/467/467 469/469/469
f 473/473/473 472/472/472 471/471/471
f 474/474/474 471/471/471 472/472/472
f 473/473/473 475/475/475 472/472/472
f 478/478/478 477/477/477 476/476/476
f 478/478/478 476/476/476 479/479/479
f 478/478/478 479/479/479 480/480/480
f 481/481/481 478/478/478 480/480/480
f 480/480/480 482/482/482 481/481/481
f 483/483/483 481/481/481 482/482/482
f 481/481/481 483/483/483 484/484/484
f 481/481/481 485/485/485 478/478/478
f 484/484/484 485/485/485 481/481/481
f 485/485/485 486/486/486 478/478/478
f 487/487/487 478/478/478 486/486/486
f 490/490/490 489/489/489 488/488/488
f 493/493/493 492/492/492 491/491/491
f 494/494/494 492/492/492 493/493/493
f 495/495/495 491/491/491 492/492/492
f 491/491/491 495/495/495 496/496/496
f 492/492/492 494/494/494 497/497/497
f 498/498/498 497/497/497 494/494/494
f 498/498/498 499/499/499 497/497/497
f 499/499/499 498/498/498 500/500/500
f 499/499/499 501/501/501 497/497/497
f 502/502/502 497/497/497 501/501/501
f 495/495/495 492/492/492 502/502/502
f 497/497/497 502/502/502 492/492/492
f 502/502/502 503/503/503 495/495/495
f 503/503/503 496/496/496 495/495/495
f 503/503/503 502/502/502 501/501/501
f 504/504/504 503/503/503 501/501/501
f 496/496/496 503/503/503 505/505/505
f 499/499/499 500/500/500 506/506/506
f 506/506/506 501/501/501 499/499/499
f 504/504/504 501/501/501 506/506/506
f 507/507/507 506/506/506 500/500/500
f 505/505/505 508/508/508 496/496/496
f 491/491/491 496/496/496 508/508/508
f 505/505/505 509/509/509 508/508/508
f 503/503/503 509/509/509 505/505/505
f 510/510/510 508/508/508 509/509/509
f 508/508/508 510/510/510 511/511/511
f 508/508/508 511/511/511 491/491/491
f 512/512/512 511/511/511 510/510/510
f 509/509/509 503/503/503 513/513/513
f 509/509/509 513/513/513 510/510/510
f 510/510/510 514/514/514 512/512/512
f 514/514/514 510/510/510 513/513/513
f 513/513/513 515/515/515 514/514/514
f 503/503/503 515/515/515 513/513/513
f 516/516/516 514/514/514 515/515/515
f 514/514/514 516/516/516 517/517/517
f 517/517/517 512/512/512 514/514/514
f 518/518/518 517/517/517 516/516/516
f 516/516/516 519/519/519 518/518/518
f 519/519/519 520/520/520 518/518/518
f 519/519/519 521/521/521 520/520/520
f 521/521/521 519/519/519 522/522/522
f 523/523/523 522/522/522 519/519/519
f 516/516/516 523/523/523 519/519/519
f 515/515/515 523/523/523 516/516/516
f 515/515/515 503/503/503 523/523/523
f 503/503/503 522/522/522 523/523/523
f 522/522/522 503/503/503 524/524/524
f 524/524/524 521/521/521 522/522/522
f 521/521/521 524/524/524 525/525/525
f 524/524/524 526/526/526 525/525/525
f 503/503/503 526/526/526 524/524/524
f 527/527/527 525/525/525 526/526/526
f 526/526/526 503/503/503 528/528/528
f 528/528/528 529/529/529 526/526/526
f 527/527/527 526/526/526 529/529/529
f 503/503/503 504/504/504 528/528/528
f 528/528/528 504/504/504 506/506/506
f 506/506/506 529/529/529 528/528/528
f 532/532/532 531/531/531 530/530/530
f 532/532/532 530/530/530 533/533/533
f 533/533/533 534/534/534 532/532/532
f 535/535/535 532/532/532 534/534/534
f 534/534/534 536/536/536 535/535/535
f 537/537/537 535/535/535 536/536/536
f 538/538/538 537/537/537 536/536/536
f 538/538/538 539/539/539 537/537/537
f 538/538/538 540/540/540 539/539/539
f 493/493/493 491/491/491 511/511/511
f 543/543/543 542/542/542 541/541/541
f 543/543/543 541/541/541 544/544/544
f 545/545/545 542/542/542 543/543/543
f 545/545/545 546/546/546 542/542/542
f 543/543/543 544/544/544 547/547/547
f 548/548/548 547/547/547 544/544/544
f 549/549/549 547/547/547 548/548/548
f 549/549/549 548/548/548 550/550/550
f 549/549/549 551/551/551 547/547/547
f 552/552/552 547/547/547 551/551/551
f 545/545/545 543/543/543 552/552/552
f 547/547/547 552/552/552 543/543/543
f 552/552/552 553/553/553 545/545/545
f 553/553/553 546/546/546 545/545/545
f 553/553/553 552/552/552 551/551/551
f 554/554/554 553/553/553 551/551/551
f 551/551/551 549/549/549 554/554/554
f 546/546/546 553/553/553 555/555/555
f 549/549/549 550/550/550 556/556/556
f 556/556/556 554/554/554 549/549/549
f 557/557/557 554/554/554 556/556/556
f 553/553/553 554/554/554 557/557/557
f 557/557/557 556/556/556 558/558/558
f 556/556/556 559/559/559 558/558/558
f 559/559/559 556/556/556 550/550/550
f 559/559/559 560/560/560 558/558/558
f 561/561/561 553/553/553 557/557/557
f 557/557/557 558/558/558 561/561/561
f 558/558/558 560/560/560 562/562/562
f 562/562/562 561/561/561 558/558/558
f 562/562/562 563/563/563 561/561/561
f 563/563/563 562/562/562 564/564/564
f 565/565/565 564/564/564 562/562/562
f 565/565/565 562/562/562 560/560/560
f 566/566/566 561/561/561 563/563/563
f 553/553/553 561/561/561 566/566/566
f 567/567/567 553/553/553 566/566/566
f 568/568/568 563/563/563 564/564/564
f 563/563/563 568/568/568 569/569/569
f 566/566/566 569/569/569 567/567/567
f 569/569/569 566/566/566 563/563/563
f 568/568/568 570/570/570 569/569/569
f 571/571/571 569/569/569 570/570/570
f 569/569/569 571/571/571 567/567/567
f 572/572/572 567/567/567 571/571/571
f 571/571/571 570/570/570 573/573/573
f 574/574/574 571/571/571 573/573/573
f 572/572/572 571/571/571 574/574/574
f 573/573/573 575/575/575 574/574/574
f 576/576/576 574/574/574 575/575/575
f 574/574/574 576/576/576 577/577/577
f 577/577/577 572/572/572 574/574/574
f 578/578/578 577/577/577 576/576/576
f 577/577/577 553/553/553 572/572/572
f 553/553/553 577/577/577 578/578/578
f 553/553/553 567/567/567 572/572/572
f 579/579/579 553/553/553 578/578/578
f 575/575/575 580/580/580 576/576/576
f 581/581/581 576/576/576 580/580/580
f 576/576/576 581/581/581 578/578/578
f 579/579/579 578/578/578 581/581/581
f 581/581/581 580/580/580 582/582/582
f 583/583/583 582/582/582 580/580/580
f 582/582/582 555/555/555 581/581/581
f 579/579/579 581/581/581 555/555/555
f 553/553/553 579/579/579 555/555/555
f 582/582/582 583/583/583 542/542/542
f 541/541/541 542/542/542 583/583/583
f 555/555/555 582/582/582 546/546/546
f 542/542/542 546/546/546 582/582/582
