g Null_GryphonTowerTop_mesh
v 1401.374 369.7871 -290.5732
v 1419.652 369.7871 -317.696
v 1411.693 369.7871 -279.0755
v 1433.214 369.7871 -300.0072
v 1405.207 369.7871 -331.8471
v 1389.287 369.7871 -301.4813
v 1390.171 369.7871 -340.6915
v 1377.979 369.7871 -308.7121
v 1358.357 341.7089 -321.6358
v 1367.969 341.7089 -348.6239
v 1373.027 343.75 -315.7111
v 1384.44 343.75 -343.7026
v 1335.157 343.75 -351.8356
v 1338.854 343.75 -322.2596
v 1324.589 368.3698 -319.3047
v 1315.595 368.3698 -346.9833
v 1333.439 368.3698 -321.5016
v 1329.742 368.3698 -351.0776
v 1287.958 368.3698 -332.7519
v 1305.2 368.3698 -309.4258
v 1263.489 368.3698 -311.8201
v 1285.895 368.3698 -290.8883
v 1278.468 343.75 -272.7106
v 1250.495 343.75 -285.2896
v 1284.508 343.75 -287.8775
v 1261.586 343.75 -307.4716
v 1246.429 343.75 -247.9499
v 1276.677 343.75 -255.7013
v 1286.175 368.6467 -234.1875
v 1255.234 368.3698 -222.7863
v 1279.998 368.3698 -256.3951
v 1249.043 368.3698 -247.5507
v 1267.616 368.3698 -200.9701
v 1294.108 368.3023 -216.9826
v 1306.69 343.75 -200.2586
v 1288.614 343.75 -174.2355
v 1294.859 343.75 -214.3072
v 1266.233 343.75 -199.0035
v 1307.115 343.75 -163.1943
v 1316.645 343.75 -193.2988
v 1345.152 368.3698 -190.9926
v 1343.089 368.3698 -159.6962
v 1322.452 368.3698 -194.8251
v 1313.018 368.3698 -164.708
v 1371.096 368.3698 -164.708
v 1364.315 368.3698 -192.4666
v 1386.962 343.75 -196.8899
v 1402.812 343.75 -173.2705
v 1367.574 343.75 -187.0109
v 1376.567 343.75 -159.3323
v 1409.466 343.75 -181.4039
v 1393.939 343.75 -203.5859
v 1417.654 367.8617 -237.788
v 1439.493 368.3698 -224.2604
v 1409.525 367.9661 -221.2463
v 1429.174 368.3698 -203.9182
v 1399.931 368.0104 -209.0305
v 1417.971 368.3698 -186.819
v 1415.632 343.75 -253.1578
v 1442.74 343.75 -253.4954
v 1412.228 343.75 -231.6654
v 1438.673 343.75 -221.7012
v 1435.431 343.75 -301.6564
v 1411.26 343.75 -281.3645
v 1402.349 343.75 -294.0388
v 1411.26 343.75 -281.3645
v 1388.267 315.625 -290.8105
v 1400.969 315.625 -272.3803
v 1411.693 369.7871 -279.0755
v 1380.188 315.625 -298.4244
v 1386.999 343.75 -305.3843
v 1401.374 369.7871 -290.5732
v 1373.027 343.75 -315.7111
v 1389.287 369.7871 -301.4813
v 1372.835 315.625 -305.3547
v 1377.979 369.7871 -308.7121
v 1353.491 315.625 -316.0765
v 1358.357 341.7089 -321.6358
v 1331.999 315.625 -319.4805
v 1415.632 343.75 -253.1578
v 1405.204 315.625 -250.2965
v 1412.228 343.75 -231.6654
v 1403.389 315.625 -228.8178
v 1406.784 343.75 -218.1017
v 1397.641 315.625 -215.2045
v 1393.939 343.75 -203.5859
v 1385.372 315.625 -200.9948
v 1386.962 343.75 -196.8899
v 1372.88 315.625 -193.6616
v 1367.574 343.75 -187.0109
v 1353.587 315.625 -187.2934
v 1346.176 343.75 -187.1176
v 1345.152 368.3698 -190.9926
v 1333.113 315.625 -184.2616
v 1409.525 367.9661 -221.2463
v 1417.654 367.8617 -237.788
v 1399.931 368.0104 -209.0305
v 1338.854 343.75 -322.2596
v 1358.357 341.7089 -321.6358
v 1331.999 315.625 -319.4805
v 1310.506 315.625 -316.0765
v 1324.589 343.75 -319.3047
v 1333.439 368.3698 -321.5016
v 1324.589 368.3698 -319.3047
v 1305.2 343.75 -309.4258
v 1291.118 315.625 -306.1975
v 1305.2 368.3698 -309.4258
v 1284.508 343.75 -287.8775
v 1275.731 315.625 -290.8105
v 1285.895 368.3698 -290.8883
v 1265.852 315.625 -271.4219
v 1278.468 343.75 -272.7106
v 1262.448 315.625 -249.9295
v 1276.677 343.75 -255.7013
v 1265.852 315.625 -228.4371
v 1284.138 343.75 -233.9013
v 1275.731 315.625 -209.0485
v 1294.859 343.75 -214.3072
v 1291.118 315.625 -193.6616
v 1306.69 343.75 -200.2586
v 1310.506 315.625 -183.7826
v 1316.645 343.75 -193.2988
v 1333.113 315.625 -184.2616
v 1346.176 343.75 -187.1176
v 1279.998 368.3698 -256.3951
v 1286.175 368.6467 -234.1875
v 1294.108 368.3023 -216.9826
v 1322.452 368.3698 -194.8251
v 1346.176 343.75 -187.1176
v 1345.152 368.3698 -190.9926
v 1435.431 343.75 -301.6564
v 1420.927 343.75 -315.605
v 1451.043 294.0961 -277.5246
v 1419.652 369.7871 -317.696
v 1405.207 369.7871 -331.8471
v 1401.826 343.75 -330.3141
v 1384.44 343.75 -343.7026
v 1390.171 369.7871 -340.6915
v 1433.214 369.7871 -300.0072
v 1451.043 294.0961 -277.5246
v 1420.927 343.75 -315.605
v 1434.032 293.5723 -312.7622
v 1401.826 343.75 -330.3141
v 1419.921 293.2685 -324.6029
v 1384.44 343.75 -343.7026
v 1407.078 292.9919 -335.3805
v 1367.969 341.7089 -348.6239
v 1376.482 294.1547 -349.2682
v 1359.633 294.1547 -354.4439
v 1335.157 343.75 -351.8356
v 1341.599 294.1547 -355.6665
v 1315.595 343.75 -346.9833
v 1317.147 294.1547 -352.61
v 1288.094 343.75 -332.9705
v 1287.872 294.1547 -336.3932
v 1287.958 368.3698 -332.7519
v 1315.595 368.3698 -346.9833
v 1329.742 368.3698 -351.0776
v 1263.489 368.3698 -311.8201
v 1261.586 343.75 -307.4716
v 1261.212 294.1547 -310.4298
v 1250.495 343.75 -285.2896
v 1253.876 294.1547 -298.5094
v 1247.458 294.1547 -283.2267
v 1246.429 343.75 -247.9499
v 1243.189 294.1547 -247.4049
v 1252.256 343.75 -222.6721
v 1246.847 294.1547 -228.2091
v 1252.656 294.1547 -211.8095
v 1255.234 368.3698 -222.7863
v 1249.043 368.3698 -247.5507
v 1267.616 368.3698 -200.9701
v 1266.233 343.75 -199.0035
v 1269.317 294.1547 -184.1663
v 1288.614 343.75 -174.2355
v 1287.776 295.3303 -165.5877
v 1307.115 343.75 -163.1943
v 1313.282 293.6741 -151.4914
v 1346.117 343.75 -153.1819
v 1346.858 294.563 -142.4237
v 1343.089 368.3698 -159.6962
v 1247.458 294.1547 -283.2267
v 1243.189 294.1547 -247.4049
v 1243.79 294.1546 -266.4158
v 1371.096 368.3698 -164.708
v 1346.117 343.75 -153.1819
v 1343.089 368.3698 -159.6962
v 1376.567 343.75 -159.3323
v 1346.858 294.563 -142.4237
v 1346.858 294.563 -142.4237
v 1376.567 343.75 -159.3323
v 1383.636 294.027 -143.6652
v 1402.812 343.75 -173.2705
v 1409.05 294.3552 -155.2887
v 1376.567 343.75 -159.3323
v 1346.117 343.75 -153.1819
v 1371.096 368.3698 -164.708
v 1402.812 343.75 -173.2705
v 1409.466 343.75 -181.4039
v 1409.05 294.3552 -155.2887
v 1409.05 294.3552 -155.2887
v 1409.466 343.75 -181.4039
v 1425.475 291.0113 -170.7765
v 1438.902 292.9478 -193.982
v 1427.552 343.75 -205.3226
v 1438.673 343.75 -221.7012
v 1438.902 292.9478 -193.982
v 1449.202 293.5338 -213.5408
v 1409.466 343.75 -181.4039
v 1439.493 368.3698 -224.2604
v 1429.174 368.3698 -203.9182
v 1417.971 368.3698 -186.819
v 1442.74 343.75 -253.4954
v 1452.207 293.9749 -247.731
v 1435.431 343.75 -301.6564
v 1451.043 294.0961 -277.5246
v 1435.431 343.75 -301.6564
v 1411.26 343.75 -281.3645
v 1433.214 369.7871 -300.0072
v 1411.693 369.7871 -279.0755
v 1373.027 343.75 -315.7111
v 1384.44 343.75 -343.7026
v 1377.979 369.7871 -308.7121
v 1390.171 369.7871 -340.6915
v 1335.157 343.75 -351.8356
v 1338.854 343.75 -322.2596
v 1329.742 368.3698 -351.0776
v 1333.439 368.3698 -321.5016
v 1284.508 343.75 -287.8775
v 1261.586 343.75 -307.4716
v 1285.895 368.3698 -290.8883
v 1263.489 368.3698 -311.8201
v 1246.429 343.75 -247.9499
v 1276.677 343.75 -255.7013
v 1249.043 368.3698 -247.5507
v 1279.998 368.3698 -256.3951
v 1294.859 343.75 -214.3072
v 1266.233 343.75 -199.0035
v 1294.108 368.3023 -216.9826
v 1267.616 368.3698 -200.9701
v 1316.645 343.75 -193.2988
v 1346.176 343.75 -187.1176
v 1322.452 368.3698 -194.8251
v 1307.115 343.75 -163.1943
v 1316.645 343.75 -193.2988
v 1313.018 368.3698 -164.708
v 1322.452 368.3698 -194.8251
v 1343.089 368.3698 -159.6962
v 1307.115 343.75 -163.1943
v 1313.018 368.3698 -164.708
v 1367.574 343.75 -187.0109
v 1376.567 343.75 -159.3323
v 1364.315 368.3698 -192.4666
v 1371.096 368.3698 -164.708
v 1345.152 368.3698 -190.9926
v 1367.574 343.75 -187.0109
v 1364.315 368.3698 -192.4666
v 1412.228 343.75 -231.6654
v 1438.673 343.75 -221.7012
v 1417.654 367.8617 -237.788
v 1439.493 368.3698 -224.2604
v 1409.466 343.75 -181.4039
v 1393.939 343.75 -203.5859
v 1417.971 368.3698 -186.819
v 1399.931 368.0104 -209.0305
v 1353.491 315.625 -316.0765
v 1310.506 315.625 -316.0765
v 1331.999 315.625 -319.4805
v 1291.118 315.625 -306.1975
v 1372.835 315.625 -305.3547
v 1275.731 315.625 -290.8105
v 1380.188 315.625 -298.4244
v 1388.267 315.625 -290.8105
v 1265.852 315.625 -271.4219
v 1400.969 315.625 -272.3803
v 1405.204 315.625 -250.2965
v 1262.448 315.625 -249.9295
v 1403.389 315.625 -228.8178
v 1265.852 315.625 -228.4371
v 1397.641 315.625 -215.2045
v 1275.731 315.625 -209.0485
v 1385.372 315.625 -200.9948
v 1291.118 315.625 -193.6616
v 1372.88 315.625 -193.6616
v 1310.506 315.625 -183.7826
v 1353.587 315.625 -187.2934
v 1333.113 315.625 -184.2616
vt 0.861965 0.452237
vt 0.90353 0.39056
vt 0.885429 0.478383
vt 0.934368 0.430784
vt 0.87068 0.358381
vt 0.834478 0.427432
vt 0.83649 0.338269
vt 0.808764 0.41099
vt 0.739221 0.390007
vt 0.760794 0.329436
vt 0.773389 0.403902
vt 0.79903 0.341017
vt 0.68831 0.322745
vt 0.696616 0.38919
vt 0.678442 0.403038
vt 0.657991 0.340097
vt 0.698568 0.398042
vt 0.690161 0.330787
vt 0.595145 0.372459
vt 0.634352 0.425503
vt 0.539501 0.420058
vt 0.590452 0.467656
vt 0.560954 0.500506
vt 0.498111 0.472247
vt 0.574523 0.466432
vt 0.523028 0.422413
vt 0.488975 0.556133
vt 0.556932 0.538719
vt 0.591221 0.596692
vt 0.52073 0.62252
vt 0.577044 0.546094
vt 0.506651 0.566206
vt 0.548886 0.672129
vt 0.609003 0.635661
vt 0.624357 0.663276
vt 0.583748 0.721739
vt 0.597779 0.631715
vt 0.533467 0.666096
vt 0.625313 0.746544
vt 0.646723 0.678912
vt 0.725203 0.694819
vt 0.72051 0.765986
vt 0.673582 0.686104
vt 0.652129 0.754589
vt 0.784198 0.754589
vt 0.768779 0.691467
vt 0.804696 0.670844
vt 0.840303 0.723907
vt 0.761138 0.693038
vt 0.781341 0.75522
vt 0.855253 0.705635
vt 0.82037 0.655801
vt 0.889785 0.588279
vt 0.939732 0.619168
vt 0.871338 0.625859
vt 0.916268 0.665425
vt 0.849687 0.653651
vt 0.890792 0.704309
vt 0.869105 0.544433
vt 0.930004 0.543675
vt 0.861458 0.592718
vt 0.920868 0.615103
vt 0.913586 0.435477
vt 0.859283 0.481065
vt 0.839264 0.452591
vt 0.859283 0.481065
vt 0.790239 0.450948
vt 0.818389 0.491791
vt 0.885429 0.478383
vt 0.772337 0.434075
vt 0.804778 0.427102
vt 0.861965 0.452237
vt 0.773389 0.403902
vt 0.834478 0.427432
vt 0.756041 0.418717
vt 0.808764 0.41099
vt 0.713174 0.394957
vt 0.739221 0.390007
vt 0.665545 0.387413
vt 0.869105 0.544433
vt 0.827775 0.54073
vt 0.861458 0.592718
vt 0.823752 0.588329
vt 0.849227 0.62319
vt 0.811014 0.618497
vt 0.82037 0.655801
vt 0.783825 0.649987
vt 0.804696 0.670844
vt 0.756141 0.666238
vt 0.761138 0.693038
vt 0.713385 0.68035
vt 0.713067 0.692798
vt 0.725203 0.694819
vt 0.668014 0.687069
vt 0.871338 0.625859
vt 0.889785 0.588279
vt 0.849687 0.653651
vt 0.696616 0.38919
vt 0.739221 0.390007
vt 0.665545 0.387413
vt 0.617916 0.394957
vt 0.664568 0.395828
vt 0.698568 0.398042
vt 0.678442 0.403038
vt 0.62101 0.418023
vt 0.574949 0.416849
vt 0.634352 0.425503
vt 0.574523 0.466432
vt 0.540851 0.450948
vt 0.590452 0.467656
vt 0.518958 0.493915
vt 0.560954 0.500506
vt 0.511415 0.541544
vt 0.556932 0.538719
vt 0.518958 0.589173
vt 0.573692 0.587695
vt 0.540851 0.632139
vt 0.597779 0.631715
vt 0.574949 0.666238
vt 0.624357 0.663276
vt 0.617916 0.688131
vt 0.646723 0.678912
vt 0.668014 0.687069
vt 0.713067 0.692798
vt 0.577044 0.546094
vt 0.591221 0.596692
vt 0.609003 0.635661
vt 0.673582 0.686104
vt 0.713067 0.692798
vt 0.725203 0.694819
vt 0.913586 0.435477
vt 0.881001 0.40414
vt 0.914933 0.47344
vt 0.90353 0.39056
vt 0.87068 0.358381
vt 0.838089 0.371095
vt 0.79903 0.341017
vt 0.83649 0.338269
vt 0.934368 0.430784
vt 0.914933 0.47344
vt 0.881001 0.40414
vt 0.877283 0.396006
vt 0.838089 0.371095
vt 0.846152 0.369961
vt 0.79903 0.341017
vt 0.817823 0.34626
vt 0.760794 0.329436
vt 0.751433 0.316101
vt 0.714476 0.304748
vt 0.68831 0.322745
vt 0.674923 0.302067
vt 0.644364 0.333646
vt 0.62129 0.308771
vt 0.582579 0.365127
vt 0.557081 0.34434
vt 0.595145 0.372459
vt 0.657991 0.340097
vt 0.690161 0.330787
vt 0.539501 0.420058
vt 0.523028 0.422413
vt 0.498606 0.401286
vt 0.498111 0.472247
vt 0.482516 0.427432
vt 0.468438 0.460952
vt 0.488975 0.556133
vt 0.459075 0.539522
vt 0.502066 0.612922
vt 0.467098 0.581625
vt 0.479839 0.617595
vt 0.52073 0.62252
vt 0.506651 0.566206
vt 0.548886 0.672129
vt 0.533467 0.666096
vt 0.516383 0.678226
vt 0.583748 0.721739
vt 0.55745 0.719489
vt 0.625313 0.746544
vt 0.612565 0.749676
vt 0.712465 0.766656
vt 0.686683 0.76997
vt 0.72051 0.765986
vt 0.468438 0.460952
vt 0.459075 0.539522
vt 0.460394 0.497825
vt 0.784198 0.754589
vt 0.712465 0.766656
vt 0.72051 0.765986
vt 0.781341 0.75522
vt 0.686683 0.76997
vt 0.686683 0.76997
vt 0.781341 0.75522
vt 0.767047 0.767
vt 0.840303 0.723907
vt 0.822989 0.741654
vt 0.781341 0.75522
vt 0.712465 0.766656
vt 0.784198 0.754589
vt 0.840303 0.723907
vt 0.855253 0.705635
vt 0.822989 0.741654
vt 0.822989 0.741654
vt 0.855253 0.705635
vt 0.856894 0.706241
vt 0.887556 0.656206
vt 0.895883 0.651899
vt 0.920868 0.615103
vt 0.887556 0.656206
vt 0.910522 0.613558
vt 0.855253 0.705635
vt 0.939732 0.619168
vt 0.916268 0.665425
vt 0.890792 0.704309
vt 0.930004 0.543675
vt 0.917404 0.538744
vt 0.913586 0.435477
vt 0.914933 0.47344
vt 0.913586 0.435477
vt 0.859283 0.481065
vt 0.934368 0.430784
vt 0.885429 0.478383
vt 0.773389 0.403902
vt 0.79903 0.341017
vt 0.808764 0.41099
vt 0.83649 0.338269
vt 0.68831 0.322745
vt 0.696616 0.38919
vt 0.690161 0.330787
vt 0.698568 0.398042
vt 0.574523 0.466432
vt 0.523028 0.422413
vt 0.590452 0.467656
vt 0.539501 0.420058
vt 0.488975 0.556133
vt 0.556932 0.538719
vt 0.506651 0.566206
vt 0.577044 0.546094
vt 0.597779 0.631715
vt 0.533467 0.666096
vt 0.609003 0.635661
vt 0.548886 0.672129
vt 0.646723 0.678912
vt 0.713067 0.692798
vt 0.673582 0.686104
vt 0.625313 0.746544
vt 0.646723 0.678912
vt 0.652129 0.754589
vt 0.673582 0.686104
vt 0.72051 0.765986
vt 0.625313 0.746544
vt 0.652129 0.754589
vt 0.761138 0.693038
vt 0.781341 0.75522
vt 0.768779 0.691467
vt 0.784198 0.754589
vt 0.725203 0.694819
vt 0.761138 0.693038
vt 0.768779 0.691467
vt 0.861458 0.592718
vt 0.920868 0.615103
vt 0.889785 0.588279
vt 0.939732 0.619168
vt 0.855253 0.705635
vt 0.82037 0.655801
vt 0.890792 0.704309
vt 0.849687 0.653651
vt 0.713174 0.394957
vt 0.617916 0.394957
vt 0.665545 0.387413
vt 0.574949 0.416849
vt 0.756041 0.418717
vt 0.540851 0.450948
vt 0.772337 0.434075
vt 0.790239 0.450948
vt 0.518958 0.493915
vt 0.818389 0.491791
vt 0.827775 0.54073
vt 0.511415 0.541544
vt 0.823752 0.588329
vt 0.518958 0.589173
vt 0.811014 0.618497
vt 0.540851 0.632139
vt 0.783825 0.649987
vt 0.574949 0.666238
vt 0.756141 0.666238
vt 0.617916 0.688131
vt 0.713385 0.68035
vt 0.668014 0.687069
vn 0 1 0
vn 0 1 0
vn 0 1 0
vn 0 1 0
vn 0 1 0
vn 0 1 0
vn 0 1 0
vn 0 1 0
vn 0.01468879 0.9998247 -0.01161366
vn -0.05700244 0.9981273 -0.02219523
vn -0.1151659 0.9923781 -0.04384657
vn -0.1096896 0.9929591 -0.04472412
vn 0.08227281 0.9966011 0.00415383
vn 0.1044919 0.99444 -0.01306158
vn 0 1 0
vn 0 1 0
vn 0 1 0
vn 0 1 0
vn 0 1 0
vn 0 1 0
vn 0 1 0
vn 0 1 0
vn 0 1 0
vn 0 1 0
vn 0 1 0
vn 0 1 0
vn 0 1 0
vn 0 1 0
vn -0.002742853 0.9999908 0.003294621
vn -0.006560546 0.9999772 -0.001616522
vn -0.006140796 0.9999709 -0.004524827
vn 0 1 0
vn 0.002026865 0.9999532 0.009466686
vn 0.01145335 0.9998259 0.01473231
vn 0 1 0
vn 0 1 0
vn 0 1 0
vn 0 1 0
vn 0 1 0
vn 0 1 0
vn 0 1 0
vn 0 1 0
vn 0 1 0
vn 0 1 0
vn 0 1 0
vn 0 1 0
vn 0 1 0
vn 0 1 0
vn 0 1 0
vn 0 1 0
vn 0 1 0
vn 0 1 0
vn -0.01483813 0.9997974 -0.0136015
vn -0.01451681 0.9998405 -0.01040107
vn -0.01309366 0.9998556 -0.01082659
vn -0.01182301 0.9998922 -0.008700753
vn -0.0106368 0.9998988 -0.009450838
vn -0.01102626 0.9999131 -0.007224075
vn 0 1 0
vn 0 1 0
vn 0 1 0
vn 0 1 0
vn 0 1 0
vn 0 1 0
vn -0.707106 0.1500578 0.691002
vn -0.8342018 0.3134576 0.4537089
vn -0.7066308 0.4206746 0.5689514
vn -0.8732554 0.3978903 0.2812622
vn -0.7803321 -0.07666542 0.6206481
vn -0.6059182 0.3270298 0.7251998
vn -0.6082757 0.08176726 0.7895028
vn -0.6685494 -0.09924573 0.7370155
vn -0.5465456 0.1648633 0.8210407
vn -0.600538 -0.08141553 0.7954405
vn -0.5655578 0.2883722 0.7726487
vn -0.5346251 -0.1230694 0.8360802
vn -0.3388461 0.2707973 0.9010283
vn -0.1914931 0.2023365 0.9604115
vn -0.005713791 0.1333928 0.9910467
vn -0.9312019 0.3599784 0.05725888
vn -0.9438113 0.3300146 -0.01762139
vn -0.9361634 0.2061659 -0.2847697
vn -0.9239354 0.2654977 -0.2754166
vn -0.8465099 0.1308529 -0.5160412
vn -0.8010767 0.1994868 -0.5643413
vn -0.731016 0.1302037 -0.6698228
vn -0.6499757 0.1559708 -0.7437773
vn -0.5497341 0.1410242 -0.8233497
vn -0.421705 0.1472437 -0.8946978
vn -0.1699486 -0.01764393 -0.9852949
vn -0.1520808 0.04669411 -0.9872644
vn 0.07295118 -0.105498 -0.99174
vn 0.03180321 -0.1766938 -0.9837519
vn 0.01173531 -0.1831361 -0.9830174
vn -0.8756514 0.05201429 -0.4801344
vn -0.8936737 0.08944088 -0.4397133
vn -0.7677994 0.02252425 -0.6402943
vn 0.1358804 0.04724475 0.989598
vn -0.1914931 0.2023365 0.9604115
vn -0.005713791 0.1333928 0.9910467
vn 0.2732387 -0.01818605 0.9617744
vn 0.3369589 -0.03751896 0.9407715
vn 0.2219093 0.007230385 0.9750405
vn 0.3851809 0 0.9228411
vn 0.5878184 -0.1144438 0.8008572
vn 0.5345135 -0.1726692 0.8273335
vn 0.6294892 0.01656619 0.7768326
vn 0.7864341 -0.1889611 0.5880603
vn 0.7474438 -0.2886632 0.5983321
vn 0.69178 0.04913513 0.7204347
vn 0.8790989 -0.3630938 0.3087848
vn 0.893674 -0.4041394 0.1949826
vn 0.8984036 -0.4378933 0.03346947
vn 0.8968368 -0.4113819 -0.1626307
vn 0.8045126 -0.5324706 -0.2631245
vn 0.8667302 -0.3412566 -0.3637619
vn 0.6941238 -0.5519615 -0.4620939
vn 0.785111 -0.3500673 -0.5109342
vn 0.5667101 -0.4858983 -0.665389
vn 0.542528 -0.4353545 -0.7184217
vn 0.3183425 -0.3817872 -0.867696
vn 0.2358931 -0.254661 -0.9378178
vn 0.01173531 -0.1831361 -0.9830174
vn 0.07295118 -0.105498 -0.99174
vn 0.9497018 -0.1086539 -0.2937018
vn 0.9189708 -0.05916824 -0.3898614
vn 0.907829 -0.01788953 -0.4189588
vn 0.1842381 -0.1275592 -0.9745691
vn 0.07295118 -0.105498 -0.99174
vn 0.03180321 -0.1766938 -0.9837519
vn 0.8758368 0.08589291 -0.4749025
vn 0.7088749 0.002750877 -0.7053288
vn 0.8987713 0.1274241 -0.4194918
vn 0.7303346 0.01958094 -0.6828089
vn 0.6074458 -0.07156324 -0.791131
vn 0.6161442 0.02690213 -0.7871737
vn 0.5366367 0.02465664 -0.843453
vn 0.5069857 -0.01192087 -0.861872
vn 0.7891774 0.1055378 -0.6050296
vn 0.8987713 0.1274241 -0.4194918
vn 0.7088749 0.002750877 -0.7053288
vn 0.7227505 0.1570387 -0.6730308
vn 0.6161442 0.02690213 -0.7871737
vn 0.6242901 0.1425042 -0.7680848
vn 0.5366367 0.02465664 -0.843453
vn 0.4530886 0.07340733 -0.888438
vn 0.2772213 0.05720275 -0.9591017
vn 0.3545271 0.07609136 -0.9319445
vn 0.1553511 0.08507238 -0.9841893
vn -0.1195426 0.04075107 -0.9919924
vn -0.09966197 0.07976133 -0.9918194
vn -0.3316678 0.04105422 -0.9425025
vn -0.3583899 0.086966 -0.9295126
vn -0.5765373 0.02303761 -0.8167461
vn -0.6290994 0.05479024 -0.7753915
vn -0.5237995 0.002880745 -0.8518367
vn -0.327204 -0.01057209 -0.9448946
vn -0.2778667 -0.03154902 -0.9601014
vn -0.6714877 -0.03521286 -0.7401786
vn -0.7527038 0.01532878 -0.6581809
vn -0.8215974 0.05479328 -0.5674288
vn -0.9269923 0.053588 -0.3712327
vn -0.8878419 0.06104007 -0.4560822
vn -0.9770241 0.05383327 -0.2062183
vn -0.9922324 0.08166902 0.09383456
vn -0.9924641 0.07264244 0.0986824
vn -0.9297197 0.0916665 0.3566771
vn -0.9624621 0.07587322 0.2605954
vn -0.8869909 0.09037269 0.4528576
vn -0.9407469 0.108801 0.3211815
vn -0.9654167 0.09859928 0.2413476
vn -0.8612553 0.09777042 0.4986784
vn -0.8281211 0.1118881 0.5492691
vn -0.7682456 0.1305105 0.6267102
vn -0.6542981 0.1509244 0.7410235
vn -0.5662577 0.1484512 0.8107494
vn -0.3292787 0.1653544 0.9296415
vn -0.3273081 0.1811208 0.9273967
vn -0.03282581 0.2303536 0.9725532
vn -0.01028627 0.2446463 0.9695578
vn -0.08038411 0.2008717 0.976314
vn -1.833595E-05 1 0
vn -1.833595E-05 1 0
vn -1.833595E-05 1 0
vn 0.1806438 0.2607141 0.9483649
vn -0.03282581 0.2303536 0.9725532
vn -0.08038411 0.2008717 0.976314
vn 0.2191417 0.276958 0.9355593
vn -0.01028627 0.2446463 0.9695578
vn -0.01028627 0.2446463 0.9695578
vn 0.2191417 0.276958 0.9355593
vn 0.2933873 0.3358002 0.8950766
vn 0.5309626 0.3383849 0.7769004
vn 0.6113947 0.3421223 0.7135467
vn 0.2191417 0.276958 0.9355593
vn -0.03282581 0.2303536 0.9725532
vn 0.1806438 0.2607141 0.9483649
vn 0.5309626 0.3383849 0.7769004
vn 0.7863693 0.1774472 0.5917228
vn 0.6113947 0.3421223 0.7135467
vn 0.6113947 0.3421223 0.7135467
vn 0.7863693 0.1774472 0.5917228
vn 0.7445917 0.3415866 0.5734996
vn 0.8028903 0.2981294 0.5162229
vn 0.8268337 0.09257923 0.5547749
vn 0.8794046 0.2054687 0.4294533
vn 0.8028903 0.2981294 0.5162229
vn 0.9470624 0.2275422 0.2264894
vn 0.7863693 0.1774472 0.5917228
vn 0.8609456 -0.02682654 0.5079892
vn 0.8389014 -0.1127184 0.5324838
vn 0.8248459 -0.1660769 0.5404143
vn 0.9801294 0.1971846 0.02155351
vn 0.9755871 0.2172518 -0.03211739
vn 0.9526494 0.08202223 -0.2927994
vn 0.8987713 0.1274241 -0.4194918
vn 0.9610754 0.1709482 0.2170506
vn 0.6701167 -0.03411878 0.7414712
vn 0.6701167 -0.03411878 0.7414712
vn 0.6952893 -0.07438995 0.7148699
vn -0.8922468 0.2674812 -0.3637987
vn -0.8998509 0.2536194 -0.3548881
vn -0.8998509 0.2536194 -0.3548881
vn -0.9071587 0.2396741 -0.3458606
vn 0.9686867 0.2167579 -0.1210867
vn 0.9686867 0.216758 -0.1210866
vn 0.9686867 0.216758 -0.1210866
vn 0.9686867 0.2167581 -0.1210866
vn -0.6443914 0.1284852 0.7538245
vn -0.6583902 0.1537733 0.7368013
vn -0.6583902 0.1537733 0.7368013
vn -0.6716481 0.1788884 0.718949
vn -0.248015 0.04202925 -0.967844
vn -0.2614198 0.02600006 -0.9648749
vn -0.2614198 0.02600006 -0.9648749
vn -0.2747082 0.009959288 -0.9614761
vn 0.4686079 0.1098457 0.8765504
vn 0.4932589 0.07462715 0.8666756
vn 0.4932589 0.07462715 0.8666756
vn 0.5169503 0.0392634 0.8551146
vn 0.2358931 -0.254661 -0.9378178
vn 0.07295118 -0.105498 -0.99174
vn 0.1842381 -0.1275592 -0.9745691
vn -0.9330199 0.2055174 -0.2953579
vn -0.9337903 0.2038862 -0.2940509
vn -0.9337903 0.2038862 -0.2940509
vn -0.9345561 0.202254 -0.2927426
vn -0.08038411 0.2008717 0.976314
vn -0.3292787 0.1653544 0.9296415
vn -0.1635822 0.09956142 0.9814929
vn 0.9494964 0.05730116 -0.3085012
vn 0.9560394 0.1098194 -0.2718978
vn 0.9560394 0.1098194 -0.2718978
vn 0.9586235 0.1618829 -0.2341685
vn 0.03180321 -0.1766938 -0.9837519
vn -0.1699486 -0.01764393 -0.9852949
vn -0.07472829 -0.2251646 -0.9714507
vn 0.336115 -0.3021465 -0.8920394
vn 0.4349726 -0.2056917 -0.8766356
vn 0.4349726 -0.2056917 -0.8766356
vn 0.5254292 -0.1052642 -0.8443007
vn -0.7582243 0.3786685 0.5307598
vn -0.7493688 0.3477276 0.5634996
vn -0.7493688 0.3477276 0.5634996
vn -0.7389339 0.3160537 0.5950518
vn 0 1 0
vn 0 1 0
vn 0 1 0
vn 0 1 0
vn 0 1 0
vn 0 1 0
vn 0 1 0
vn 0 1 0
vn 0 1 0
vn 0 1 0
vn 0 1 0
vn 0 1 0
vn 0 1 0
vn 0 1 0
vn 0 1 0
vn 0 1 0
vn 0 1 0
vn 0 1 0
vn 0 1 0
vn 0 1 0
vn 0 1 0
vn 0 1 0
g Null_GryphonTowerTop_mesh_0
f 3/3/3 2/2/2 1/1/1
f 4/4/4 2/2/2 3/3/3
f 2/2/2 5/5/5 1/1/1
f 1/1/1 5/5/5 6/6/6
f 5/5/5 7/7/7 6/6/6
f 6/6/6 7/7/7 8/8/8
f 11/11/11 10/10/10 9/9/9
f 12/12/12 10/10/10 11/11/11
f 10/10/10 13/13/13 9/9/9
f 9/9/9 13/13/13 14/14/14
f 17/17/17 16/16/16 15/15/15
f 18/18/18 16/16/16 17/17/17
f 16/16/16 19/19/19 15/15/15
f 15/15/15 19/19/19 20/20/20
f 19/19/19 21/21/21 20/20/20
f 20/20/20 21/21/21 22/22/22
f 25/25/25 24/24/24 23/23/23
f 26/26/26 24/24/24 25/25/25
f 24/24/24 27/27/27 23/23/23
f 23/23/23 27/27/27 28/28/28
f 31/31/31 30/30/30 29/29/29
f 32/32/32 30/30/30 31/31/31
f 30/30/30 33/33/33 29/29/29
f 29/29/29 33/33/33 34/34/34
f 37/37/37 36/36/36 35/35/35
f 38/38/38 36/36/36 37/37/37
f 36/36/36 39/39/39 35/35/35
f 35/35/35 39/39/39 40/40/40
f 43/43/43 42/42/42 41/41/41
f 44/44/44 42/42/42 43/43/43
f 42/42/42 45/45/45 41/41/41
f 41/41/41 45/45/45 46/46/46
f 49/49/49 48/48/48 47/47/47
f 50/50/50 48/48/48 49/49/49
f 48/48/48 51/51/51 47/47/47
f 47/47/47 51/51/51 52/52/52
f 55/55/55 54/54/54 53/53/53
f 56/56/56 54/54/54 55/55/55
f 57/57/57 56/56/56 55/55/55
f 58/58/58 56/56/56 57/57/57
f 61/61/61 60/60/60 59/59/59
f 62/62/62 60/60/60 61/61/61
f 60/60/60 63/63/63 59/59/59
f 59/59/59 63/63/63 64/64/64
f 67/67/67 66/66/66 65/65/65
f 68/68/68 66/66/66 67/67/67
f 69/69/69 65/65/65 66/66/66
f 67/67/67 65/65/65 70/70/70
f 70/70/70 65/65/65 71/71/71
f 72/72/72 71/71/71 65/65/65
f 72/72/72 65/65/65 69/69/69
f 73/73/73 70/70/70 71/71/71
f 74/74/74 73/73/73 71/71/71
f 74/74/74 71/71/71 72/72/72
f 75/75/75 70/70/70 73/73/73
f 76/76/76 73/73/73 74/74/74
f 75/75/75 73/73/73 77/77/77
f 77/77/77 73/73/73 78/78/78
f 77/77/77 78/78/78 79/79/79
f 68/68/68 80/80/80 66/66/66
f 81/81/81 80/80/80 68/68/68
f 81/81/81 82/82/82 80/80/80
f 83/83/83 82/82/82 81/81/81
f 83/83/83 84/84/84 82/82/82
f 85/85/85 84/84/84 83/83/83
f 85/85/85 86/86/86 84/84/84
f 87/87/87 86/86/86 85/85/85
f 87/87/87 88/88/88 86/86/86
f 89/89/89 88/88/88 87/87/87
f 89/89/89 90/90/90 88/88/88
f 91/91/91 90/90/90 89/89/89
f 91/91/91 92/92/92 90/90/90
f 93/93/93 90/90/90 92/92/92
f 94/94/94 92/92/92 91/91/91
f 95/95/95 82/82/82 84/84/84
f 96/96/96 82/82/82 95/95/95
f 97/97/97 84/84/84 86/86/86
f 95/95/95 84/84/84 97/97/97
f 100/100/100 99/99/99 98/98/98
f 100/100/100 98/98/98 101/101/101
f 101/101/101 98/98/98 102/102/102
f 103/103/103 102/102/102 98/98/98
f 104/104/104 102/102/102 103/103/103
f 104/104/104 105/105/105 102/102/102
f 106/106/106 102/102/102 105/105/105
f 101/101/101 102/102/102 106/106/106
f 107/107/107 105/105/105 104/104/104
f 107/107/107 108/108/108 105/105/105
f 109/109/109 105/105/105 108/108/108
f 106/106/106 105/105/105 109/109/109
f 110/110/110 108/108/108 107/107/107
f 109/109/109 108/108/108 111/111/111
f 111/111/111 108/108/108 112/112/112
f 111/111/111 112/112/112 113/113/113
f 113/113/113 112/112/112 114/114/114
f 113/113/113 114/114/114 115/115/115
f 115/115/115 114/114/114 116/116/116
f 115/115/115 116/116/116 117/117/117
f 117/117/117 116/116/116 118/118/118
f 117/117/117 118/118/118 119/119/119
f 119/119/119 118/118/118 120/120/120
f 119/119/119 120/120/120 121/121/121
f 121/121/121 120/120/120 122/122/122
f 121/121/121 122/122/122 123/123/123
f 123/123/123 122/122/122 124/124/124
f 125/125/125 116/116/116 114/114/114
f 126/126/126 116/116/116 125/125/125
f 126/126/126 118/118/118 116/116/116
f 127/127/127 118/118/118 126/126/126
f 130/130/130 129/129/129 128/128/128
f 133/133/133 132/132/132 131/131/131
f 134/134/134 131/131/131 132/132/132
f 134/134/134 132/132/132 135/135/135
f 135/135/135 132/132/132 136/136/136
f 137/137/137 135/135/135 136/136/136
f 138/138/138 135/135/135 137/137/137
f 139/139/139 131/131/131 134/134/134
f 142/142/142 141/141/141 140/140/140
f 142/142/142 143/143/143 141/141/141
f 144/144/144 143/143/143 142/142/142
f 144/144/144 145/145/145 143/143/143
f 146/146/146 145/145/145 144/144/144
f 146/146/146 147/147/147 145/145/145
f 148/148/148 147/147/147 146/146/146
f 148/148/148 149/149/149 147/147/147
f 150/150/150 147/147/147 149/149/149
f 151/151/151 150/150/150 149/149/149
f 151/151/151 152/152/152 150/150/150
f 153/153/153 152/152/152 151/151/151
f 153/153/153 154/154/154 152/152/152
f 155/155/155 154/154/154 153/153/153
f 156/156/156 152/152/152 154/154/154
f 157/157/157 152/152/152 156/156/156
f 157/157/157 150/150/150 152/152/152
f 158/158/158 150/150/150 157/157/157
f 156/156/156 154/154/154 159/159/159
f 159/159/159 154/154/154 160/160/160
f 155/155/155 160/160/160 154/154/154
f 161/161/161 160/160/160 155/155/155
f 160/160/160 161/161/161 162/162/162
f 161/161/161 163/163/163 162/162/162
f 164/164/164 162/162/162 163/163/163
f 162/162/162 164/164/164 165/165/165
f 165/165/165 164/164/164 166/166/166
f 165/165/165 166/166/166 167/167/167
f 166/166/166 168/168/168 167/167/167
f 169/169/169 167/167/167 168/168/168
f 170/170/170 165/165/165 167/167/167
f 171/171/171 165/165/165 170/170/170
f 170/170/170 167/167/167 172/172/172
f 169/169/169 173/173/173 167/167/167
f 172/172/172 167/167/167 173/173/173
f 174/174/174 173/173/173 169/169/169
f 174/174/174 175/175/175 173/173/173
f 176/176/176 175/175/175 174/174/174
f 176/176/176 177/177/177 175/175/175
f 178/178/178 177/177/177 176/176/176
f 178/178/178 179/179/179 177/177/177
f 180/180/180 179/179/179 178/178/178
f 181/181/181 177/177/177 179/179/179
f 184/184/184 183/183/183 182/182/182
f 187/187/187 186/186/186 185/185/185
f 189/189/189 188/188/188 186/186/186
f 192/192/192 191/191/191 190/190/190
f 192/192/192 193/193/193 191/191/191
f 194/194/194 193/193/193 192/192/192
f 197/197/197 196/196/196 195/195/195
f 200/200/200 199/199/199 198/198/198
f 203/203/203 202/202/202 201/201/201
f 203/203/203 204/204/204 202/202/202
f 207/207/207 206/206/206 205/205/205
f 208/208/208 206/206/206 207/207/207
f 209/209/209 207/207/207 205/205/205
f 210/210/210 205/205/205 206/206/206
f 211/211/211 205/205/205 210/210/210
f 211/211/211 209/209/209 205/205/205
f 212/212/212 209/209/209 211/211/211
f 208/208/208 213/213/213 206/206/206
f 214/214/214 213/213/213 208/208/208
f 214/214/214 215/215/215 213/213/213
f 216/216/216 215/215/215 214/214/214
f 219/219/219 218/218/218 217/217/217
f 220/220/220 218/218/218 219/219/219
f 223/223/223 222/222/222 221/221/221
f 224/224/224 222/222/222 223/223/223
f 227/227/227 226/226/226 225/225/225
f 228/228/228 226/226/226 227/227/227
f 231/231/231 230/230/230 229/229/229
f 232/232/232 230/230/230 231/231/231
f 235/235/235 234/234/234 233/233/233
f 236/236/236 234/234/234 235/235/235
f 239/239/239 238/238/238 237/237/237
f 240/240/240 238/238/238 239/239/239
f 243/243/243 242/242/242 241/241/241
f 246/246/246 245/245/245 244/244/244
f 247/247/247 245/245/245 246/246/246
f 250/250/250 249/249/249 248/248/248
f 253/253/253 252/252/252 251/251/251
f 254/254/254 252/252/252 253/253/253
f 257/257/257 256/256/256 255/255/255
f 260/260/260 259/259/259 258/258/258
f 261/261/261 259/259/259 260/260/260
f 264/264/264 263/263/263 262/262/262
f 265/265/265 263/263/263 264/264/264
f 268/268/268 267/267/267 266/266/266
f 269/269/269 266/266/266 267/267/267
f 270/270/270 266/266/266 269/269/269
f 271/271/271 270/270/270 269/269/269
f 272/272/272 270/270/270 271/271/271
f 273/273/273 272/272/272 271/271/271
f 274/274/274 273/273/273 271/271/271
f 275/275/275 273/273/273 274/274/274
f 276/276/276 275/275/275 274/274/274
f 277/277/277 276/276/276 274/274/274
f 278/278/278 276/276/276 277/277/277
f 279/279/279 278/278/278 277/277/277
f 280/280/280 278/278/278 279/279/279
f 281/281/281 280/280/280 279/279/279
f 282/282/282 280/280/280 281/281/281
f 283/283/283 282/282/282 281/281/281
f 284/284/284 282/282/282 283/283/283
f 285/285/285 284/284/284 283/283/283
f 286/286/286 284/284/284 285/285/285
f 287/287/287 286/286/286 285/285/285
