g Null_1_Ground_BR_mesh
v 1492.172 42.39946 -387.1231
v 1496.049 33.48228 -389.8885
v 1480.464 42.2588 -389.6267
v 1480.464 42.2588 -389.6267
v 1496.049 33.48228 -389.8885
v 1482.748 33.48228 -395.7366
v 1450.099 42.29678 -385.1494
v 1449.244 33.48228 -391.0837
v 1124.526 42.30289 -247.0413
v 1481.534 49.03218 -381.2956
v 1492.172 42.39946 -387.1231
v 1450.998 49.03218 -376.8973
v 1461.708 49.03217 -101.2322
v 1483.416 49.03218 -123.0539
v 1492.172 42.39946 -387.1231
v 1492.156 42.46086 -117.6473
v 1127.951 49.03218 -240.1881
v 1101.87 42.33276 -227.3307
v 1107.069 49.03218 -220.5596
v 1085.512 42.32891 -205.5185
v 1092.87 49.03218 -201.7664
v 1079.645 42.29534 -188.7354
v 1089.529 49.03218 -187.5671
v 1077.971 42.26789 -164.822
v 1087.023 49.03218 -165.8505
v 1079.655 42.23173 -144.2627
v 1089.111 49.03218 -148.7278
v 1086.374 42.18942 -127.8967
v 1093.705 49.03218 -134.9461
v 1100.218 42.18097 -111.9554
v 1104.981 49.03218 -120.7468
v 1115.733 42.20774 -100.559
v 1117.51 49.03218 -108.1337
v 1135.116 49.03218 -102.0063
v 1135.437 42.27138 -94.02237
v 1466.632 42.45243 -93.27388
v 1479.152 42.45857 -96.375
v 1483.582 33.48227 -87.45164
v 1496.482 33.48227 -98.66818
v 1488.589 42.46173 -105.2042
v 1496.915 33.48227 -112.951
v 1472.652 33.48227 -84.54604
v 1480.559 49.03218 -112.1425
v 1472.604 49.03218 -104.1461
v 1492.172 42.39946 -387.1231
v 1496.915 33.48227 -112.951
v 1496.049 33.48228 -389.8885
v 1124.526 42.30289 -247.0413
v 1449.244 33.48228 -391.0837
v 1124.323 33.48228 -249.7887
v 1101.87 42.33276 -227.3307
v 1101.325 33.48228 -228.3026
v 1085.512 42.32891 -205.5185
v 1084.445 33.48228 -205.3636
v 1079.645 42.29534 -188.7354
v 1075.817 33.48228 -187.6183
v 1077.971 42.26789 -164.822
v 1072.997 33.48228 -163.4969
v 1079.655 42.23173 -144.2627
v 1073.824 33.48228 -142.1731
v 1086.374 42.18942 -127.8967
v 1081.375 33.48228 -120.5832
v 1100.218 42.18097 -111.9554
v 1095.159 33.48228 -103.2755
v 1115.733 42.20774 -100.559
v 1112.114 33.48228 -90.2992
v 1135.437 42.27138 -94.02237
v 1136.985 33.48228 -85.3354
v 1466.632 42.45243 -93.27388
v 1472.652 33.48227 -84.54604
v 1492.156 42.46086 -117.6473
v 1496.915 33.48227 -112.951
v 1492.172 42.39946 -387.1231
v 1483.582 33.48227 -87.45164
v 1472.652 33.48227 -84.54604
v 1496.482 33.48227 -98.66818
v 1496.915 33.48227 -112.951
vt 0.91926 0.590391
vt 0.924746 0.582236
vt 0.908212 0.585626
vt 0.908212 0.585626
vt 0.924746 0.582236
vt 0.907738 0.578897
vt 0.877341 0.591765
vt 0.87481 0.586982
vt 0.557964 0.730893
vt 0.910599 0.596707
vt 0.91926 0.590391
vt 0.880316 0.601069
vt 0.890937 0.876227
vt 0.912465 0.854586
vt 0.91926 0.590391
vt 0.919262 0.858666
vt 0.562235 0.738647
vt 0.535564 0.750389
vt 0.541527 0.758112
vt 0.519387 0.771958
vt 0.527446 0.77675
vt 0.513582 0.788549
vt 0.524132 0.790831
vt 0.511924 0.812192
vt 0.521647 0.812368
vt 0.513585 0.832515
vt 0.523718 0.829349
vt 0.520223 0.848691
vt 0.528274 0.843016
vt 0.533912 0.864452
vt 0.539456 0.857098
vt 0.549258 0.873578
vt 0.551881 0.867452
vt 0.569341 0.872027
vt 0.56875 0.878558
vt 0.894018 0.882768
vt 0.906401 0.879702
vt 0.908275 0.879567
vt 0.916162 0.871698
vt 0.915734 0.870971
vt 0.91905 0.860937
vt 0.897507 0.88243
vt 0.909632 0.865407
vt 0.901743 0.873337
vt 0.91926 0.590391
vt 0.91905 0.860937
vt 0.924746 0.582236
vt 0.557964 0.730893
vt 0.87481 0.586982
vt 0.558331 0.730777
vt 0.535564 0.750389
vt 0.535966 0.750243
vt 0.519387 0.771958
vt 0.519814 0.77178
vt 0.513582 0.788549
vt 0.514016 0.788346
vt 0.511924 0.812192
vt 0.512359 0.811954
vt 0.513585 0.832515
vt 0.514016 0.832248
vt 0.520223 0.848691
vt 0.520642 0.8484
vt 0.533912 0.864452
vt 0.53431 0.864138
vt 0.549258 0.873578
vt 0.55109 0.871794
vt 0.56875 0.878558
vt 0.569099 0.875598
vt 0.894018 0.882768
vt 0.897507 0.88243
vt 0.919262 0.858666
vt 0.91905 0.860937
vt 0.91926 0.590391
vt 0.908275 0.879567
vt 0.897507 0.88243
vt 0.916162 0.871698
vt 0.91905 0.860937
vn -0.1635167 -0.5809823 0.7973218
vn -0.2601644 -0.486869 0.8338304
vn -0.08852954 -0.6299176 0.7715999
vn -0.08852954 -0.6299176 0.7715999
vn -0.5560488 -0.5289701 0.641093
vn -0.02998963 -0.5813221 0.8131207
vn 0.1683038 -0.6727071 0.720513
vn 0.2786769 -0.472511 0.8361056
vn 0.399044 -0.5786945 0.7112499
vn -0.0858508 -0.9359784 0.3414294
vn -0.4139304 -0.7947084 0.4439598
vn 0.1275799 -0.9124835 0.3887123
vn -0.03054517 -0.9662467 -0.2558011
vn -0.3484909 -0.9368752 -0.02861735
vn -0.6749496 -0.7240908 0.1419
vn -0.6922902 -0.7134615 -0.1081989
vn 0.1997281 -0.9393103 0.2789353
vn 0.6215631 -0.4966218 0.6058269
vn 0.304277 -0.917273 0.2569547
vn 0.7536584 -0.4776764 0.451469
vn 0.3497909 -0.9243702 0.1522693
vn 0.7878323 -0.578715 0.210735
vn 0.358284 -0.9322949 0.04958652
vn 0.7577339 -0.652042 0.02608735
vn 0.3692324 -0.92928 -0.01029544
vn 0.7016416 -0.7011364 -0.126913
vn 0.3416143 -0.9347544 -0.09764234
vn 0.5959388 -0.7428758 -0.3049466
vn 0.3060862 -0.9318499 -0.1948514
vn 0.4502714 -0.7778618 -0.438391
vn 0.2793853 -0.9173034 -0.2837224
vn 0.3426229 -0.7673956 -0.5419534
vn 0.2501956 -0.8464537 -0.4700195
vn 0.02104009 -0.9924169 -0.1211038
vn 0.1119979 -0.7459418 -0.6565267
vn -0.07897095 -0.7459152 -0.6613427
vn -0.2917129 -0.7898591 -0.5394684
vn -0.2634041 -0.7449573 -0.6129085
vn -0.5678307 -0.7436849 -0.352847
vn -0.5666512 -0.7725826 -0.2863961
vn -0.8472303 -0.5274377 -0.06332701
vn -0.08542406 -0.7236683 -0.6848407
vn -0.3039205 -0.9424021 -0.1396811
vn -0.2324132 -0.9092075 -0.3454359
vn -0.7584863 -0.6516864 0.001789585
vn -0.8472303 -0.5274377 -0.06332701
vn -0.7073451 -0.5678171 0.4210067
vn 0.399044 -0.5786945 0.7112499
vn 0.2786769 -0.472511 0.8361056
vn 0.5733048 -0.2185406 0.7896592
vn 0.6215631 -0.4966218 0.6058269
vn 0.7610828 -0.1078075 0.6396331
vn 0.7536584 -0.4776764 0.451469
vn 0.8760343 -0.1728356 0.4502131
vn 0.7878323 -0.578715 0.210735
vn 0.8944489 -0.4017291 0.1964049
vn 0.7577339 -0.652042 0.02608735
vn 0.8575616 -0.5143809 -0.0005834904
vn 0.7016416 -0.7011364 -0.126913
vn 0.7777789 -0.5954122 -0.2013557
vn 0.5959388 -0.7428758 -0.3049466
vn 0.6057964 -0.6957735 -0.3858886
vn 0.4502714 -0.7778618 -0.438391
vn 0.439418 -0.752956 -0.4898665
vn 0.3426229 -0.7673956 -0.5419534
vn 0.2472026 -0.7501011 -0.6133834
vn 0.1119979 -0.7459418 -0.6565267
vn 0.04899725 -0.6957183 -0.7166416
vn -0.07897095 -0.7459152 -0.6613427
vn -0.08542406 -0.7236683 -0.6848407
vn -0.6922902 -0.7134615 -0.1081989
vn -0.8472303 -0.5274377 -0.06332701
vn -0.7584863 -0.6516864 0.001789585
vn 0 1 0
vn 0 1 0
vn 0 1 0
vn 0 1 0
g Null_1_Ground_BR_mesh_0
f 3/3/3 2/2/2 1/1/1
f 6/6/6 5/5/5 4/4/4
f 7/7/7 6/6/6 4/4/4
f 8/8/8 6/6/6 7/7/7
f 9/9/9 8/8/8 7/7/7
f 4/4/4 10/10/10 7/7/7
f 11/11/11 10/10/10 4/4/4
f 7/7/7 10/10/10 12/12/12
f 7/7/7 12/12/12 9/9/9
f 12/12/12 10/10/10 13/13/13
f 13/13/13 10/10/10 14/14/14
f 10/10/10 15/15/15 14/14/14
f 14/14/14 15/15/15 16/16/16
f 9/9/9 12/12/12 17/17/17
f 12/12/12 13/13/13 17/17/17
f 9/9/9 17/17/17 18/18/18
f 18/18/18 17/17/17 19/19/19
f 18/18/18 19/19/19 20/20/20
f 20/20/20 19/19/19 21/21/21
f 20/20/20 21/21/21 22/22/22
f 22/22/22 21/21/21 23/23/23
f 22/22/22 23/23/23 24/24/24
f 24/24/24 23/23/23 25/25/25
f 24/24/24 25/25/25 26/26/26
f 26/26/26 25/25/25 27/27/27
f 26/26/26 27/27/27 28/28/28
f 28/28/28 27/27/27 29/29/29
f 28/28/28 29/29/29 30/30/30
f 30/30/30 29/29/29 31/31/31
f 30/30/30 31/31/31 32/32/32
f 32/32/32 31/31/31 33/33/33
f 21/21/21 19/19/19 34/34/34
f 23/23/23 21/21/21 34/34/34
f 25/25/25 23/23/23 34/34/34
f 27/27/27 25/25/25 34/34/34
f 29/29/29 27/27/27 34/34/34
f 31/31/31 29/29/29 34/34/34
f 33/33/33 31/31/31 34/34/34
f 35/35/35 33/33/33 34/34/34
f 32/32/32 33/33/33 35/35/35
f 34/34/34 13/13/13 35/35/35
f 35/35/35 13/13/13 36/36/36
f 17/17/17 13/13/13 34/34/34
f 17/17/17 34/34/34 19/19/19
f 13/13/13 37/37/37 36/36/36
f 37/37/37 38/38/38 36/36/36
f 37/37/37 39/39/39 38/38/38
f 40/40/40 39/39/39 37/37/37
f 40/40/40 41/41/41 39/39/39
f 16/16/16 41/41/41 40/40/40
f 36/36/36 38/38/38 42/42/42
f 43/43/43 16/16/16 40/40/40
f 14/14/14 16/16/16 43/43/43
f 43/43/43 13/13/13 14/14/14
f 44/44/44 40/40/40 37/37/37
f 43/43/43 40/40/40 44/44/44
f 44/44/44 37/37/37 13/13/13
f 44/44/44 13/13/13 43/43/43
f 47/47/47 46/46/46 45/45/45
f 50/50/50 49/49/49 48/48/48
f 51/51/51 50/50/50 48/48/48
f 52/52/52 50/50/50 51/51/51
f 53/53/53 52/52/52 51/51/51
f 54/54/54 52/52/52 53/53/53
f 55/55/55 54/54/54 53/53/53
f 56/56/56 54/54/54 55/55/55
f 57/57/57 56/56/56 55/55/55
f 58/58/58 56/56/56 57/57/57
f 59/59/59 58/58/58 57/57/57
f 60/60/60 58/58/58 59/59/59
f 61/61/61 60/60/60 59/59/59
f 62/62/62 60/60/60 61/61/61
f 63/63/63 62/62/62 61/61/61
f 64/64/64 62/62/62 63/63/63
f 65/65/65 64/64/64 63/63/63
f 66/66/66 64/64/64 65/65/65
f 67/67/67 66/66/66 65/65/65
f 68/68/68 66/66/66 67/67/67
f 69/69/69 68/68/68 67/67/67
f 70/70/70 68/68/68 69/69/69
f 73/73/73 72/72/72 71/71/71
f 76/76/76 75/75/75 74/74/74
f 77/77/77 75/75/75 76/76/76
