g Null_GryphonTowerFlag_mesh
v 1305.596 289.0836 -348.4856
v 1289.476 288.9456 -340.1276
v 1305.764 273.7119 -348.1324
v 1289.401 274.4642 -340.1387
v 1276.82 288.9498 -332.0335
v 1276.652 274.7523 -331.8086
v 1263.348 290.0384 -318.8428
v 1263.484 275.9785 -320.0073
v 1262.874 318.4214 -318.5561
v 1275.581 318.421 -332.0545
v 1289.866 317.5037 -342.0202
v 1304.253 316.4108 -351.6927
v 1262.878 337.5074 -318.928
v 1276.723 337.5069 -331.6151
v 1290.476 337.5027 -341.339
v 1305.001 337.5008 -349.6999
v 1264.516 361.138 -317.6951
v 1277.044 360.6459 -332.0457
v 1290.252 360.6896 -341.3863
v 1304.847 360.5277 -350.0773
v 1317.366 337.3609 -356.6035
v 1316.953 317.7919 -357.2465
v 1318.318 360.8491 -355.4297
v 1306.311 363.0932 -348.0287
v 1320.908 363.5743 -353.1424
v 1291.715 363.2551 -339.3376
v 1278.507 363.2114 -329.997
v 1265.98 363.7035 -315.6464
v 1316.953 317.7919 -357.2465
v 1318.246 290.0026 -355.6764
v 1318.555 272.8978 -355.1499
v 1305.924 259.1388 -348.9306
v 1289.321 258.8721 -340.1506
v 1276.459 258.344 -331.5486
v 1289.239 242.9547 -340.1628
v 1306.311 363.0932 -348.0287
v 1320.908 363.5743 -353.1424
v 1307.752 362.1275 -346.0108
v 1293.156 362.2893 -337.3198
v 1291.715 363.2551 -339.3376
v 1279.948 362.2457 -327.9791
v 1278.507 363.2114 -329.997
v 1267.421 362.7378 -313.6285
v 1265.98 363.7035 -315.6464
v 1307.752 362.1275 -346.0108
v 1320.908 363.5743 -353.1424
v 1322.452 362.6086 -350.0465
v 1318.318 360.8491 -355.4297
v 1317.366 337.3609 -356.6035
v 1320.908 363.5743 -353.1424
v 1319.809 337.3651 -353.7231
v 1316.953 317.7919 -357.2465
v 1319.809 337.3651 -353.7231
v 1316.953 317.7919 -357.2465
v 1319.098 317.3144 -355.8392
v 1318.246 290.0026 -355.6764
v 1320.515 290.2871 -353.255
v 1318.555 272.8978 -355.1499
v 1321.007 273.1274 -352.9714
v 1305.924 259.1388 -348.9306
v 1321.007 273.1274 -352.9714
v 1321.007 273.1274 -352.9714
v 1305.924 259.1388 -348.9306
v 1305.924 259.1388 -345.3148
v 1289.239 242.9547 -340.1628
v 1290.275 242.9547 -336.9097
v 1276.459 258.344 -331.5486
v 1263.484 275.9785 -320.0073
v 1278.531 258.344 -328.9097
v 1265.555 275.9785 -317.3683
v 1290.275 242.9547 -336.9097
v 1289.239 242.9547 -340.1628
v 1263.348 290.0384 -318.8428
v 1265.419 290.0384 -316.2039
v 1262.874 318.4214 -318.5561
v 1264.945 318.4214 -315.9171
v 1262.878 337.5074 -318.928
v 1264.949 337.5074 -316.289
v 1264.516 361.138 -317.6951
v 1265.98 363.7035 -315.6464
vt 0.13399 0.602618
vt 0.283651 0.604092
vt 0.134381 0.729297
vt 0.283899 0.723744
vt 0.420023 0.605065
vt 0.421488 0.721786
vt 0.570208 0.589435
vt 0.569981 0.724998
vt 0.565095 0.35825
vt 0.416315 0.358399
vt 0.273415 0.362561
vt 0.132353 0.361431
vt 0.569435 0.197945
vt 0.413883 0.196553
vt 0.271965 0.195641
vt 0.132477 0.196759
vt 0.569143 0.014439
vt 0.412031 0.010389
vt 0.274773 0.010915
vt 0.129441 0.013795
vt 0.005062 0.19778
vt 0.003787 0.360401
vt 0.002143 0.013252
vt 0.129444 0.007194
vt 0.001899 0.006959
vt 0.274641 0.006098
vt 0.412088 0.005609
vt 0.568703 0.008276
vt 0.003787 0.360401
vt 0.00175 0.601316
vt 0.005227 0.732845
vt 0.134751 0.849395
vt 0.284167 0.852574
vt 0.423181 0.856681
vt 0.284439 0.98409
vt 0.129444 0.007194
vt 0.001899 0.006959
vt 0.129448 0.000692
vt 0.274512 0.001354
vt 0.274641 0.006098
vt 0.412144 0.000901
vt 0.412088 0.005609
vt 0.568269 0.002205
vt 0.568703 0.008276
vt 0.129448 0.000692
vt 0.001899 0.006959
vt 0.001658 0.00076
vt 0.014709 0.003375
vt 0.014811 0.232333
vt 0.005175 0.006759
vt 0.001774 0.23384
vt 0.022775 0.409104
vt 0.001774 0.23384
vt 0.022775 0.409104
vt 0.001655 0.413137
vt 0.020194 0.655778
vt 0.00466 0.650108
vt 0.029926 0.73356
vt 0.00169 0.73231
vt 0.114345 0.807953
vt 0.00169 0.73231
vt 0.00169 0.73231
vt 0.114345 0.807953
vt 0.098137 0.819711
vt 0.249142 0.922272
vt 0.227681 0.939996
vt 0.569981 0.724998
vt 0.571284 0.601262
vt 0.535679 0.723605
vt 0.551491 0.600609
vt 0.306867 0.933189
vt 0.333968 0.934097
vt 0.57193 0.505396
vt 0.552371 0.50503
vt 0.565095 0.35825
vt 0.554133 0.352737
vt 0.572353 0.198137
vt 0.550498 0.198362
vt 0.569143 0.014439
vt 0.555093 0.012063
vn -0.4757271 -0.07102742 -0.8767205
vn -0.5024981 -0.02357171 -0.8642569
vn -0.4652544 0.0006264729 -0.8851767
vn -0.4968683 0.008438084 -0.8677849
vn -0.629074 -0.01093745 -0.7772686
vn -0.6156713 0.006422376 -0.7879769
vn -0.6881154 0.01595243 -0.7254259
vn -0.665844 0.02572726 -0.7456472
vn -0.7187079 -0.01625639 -0.6951221
vn -0.6390806 -0.0006115331 -0.7691395
vn -0.5507873 -0.01320425 -0.8345412
vn -0.4845413 0.005421096 -0.8747515
vn -0.6928996 0.0430993 -0.719745
vn -0.6403462 0.03878921 -0.7671064
vn -0.5478547 0.02815192 -0.8360997
vn -0.4756691 0.03675025 -0.8788562
vn -0.6935722 0.2748076 -0.6659117
vn -0.6124417 0.3744434 -0.6962092
vn -0.5011407 0.3734744 -0.7806246
vn -0.40703 0.4443263 -0.7980606
vn -0.4585946 0.06712385 -0.8861068
vn -0.04030292 -0.02609988 -0.9988465
vn -0.3731332 0.4024962 -0.8359237
vn -0.2946317 0.7141305 -0.634988
vn -0.1121547 0.9744465 -0.1946164
vn -0.3781842 0.6997262 -0.6061025
vn -0.4540706 0.69959 -0.551719
vn -0.5314713 0.6925979 -0.4876949
vn -0.4277777 -0.05337247 -0.9023069
vn -0.4881127 -0.04430397 -0.8716555
vn -0.4808344 0.003587488 -0.8768041
vn -0.4627654 0.02336096 -0.886173
vn -0.5193667 0.001300331 -0.8545504
vn -0.5944355 -0.002354712 -0.8041398
vn -0.5124523 0.003295578 -0.8587093
vn 0.1624051 0.9301961 0.3291807
vn 0.07219066 0.9431223 0.3245133
vn 0.1128669 0.9408676 0.31942
vn 0.1981822 0.9317144 0.3043548
vn 0.2028405 0.9317824 0.3010602
vn 0.238433 0.9312914 0.2754015
vn 0.2690679 0.9294032 0.2526105
vn 0.2992681 0.9261613 0.2294861
vn 0.2992637 0.9261635 0.2294832
vn 0.1128669 0.9408676 0.31942
vn -0.03687082 0.9992562 0.0112979
vn 0.04466267 0.9597983 0.277115
vn 0.6553501 0.01116367 -0.7552426
vn 0.7287688 -0.000434036 -0.6847597
vn 0.7110791 -0.003250829 -0.7031045
vn 0.7005734 0.01852893 -0.7133397
vn 0.6277783 0.01707354 -0.778205
vn 0.7005734 0.01852893 -0.7133397
vn 0.2514266 -0.008637112 -0.9678379
vn 0.6155972 0.006268082 -0.7880361
vn 0.6731001 -0.01903797 -0.7393063
vn 0.7090267 -0.00936634 -0.7051196
vn 0.6797667 -0.2490299 -0.6898561
vn 0.6354278 -0.3731332 -0.67602
vn 0.6502261 -0.7397614 -0.1730875
vn 0.6996568 -0.5367679 -0.4715511
vn 0.6180266 -0.7416936 -0.260641
vn 0.6502261 -0.7397614 -0.1730875
vn 0.6780368 -0.7317739 -0.06908772
vn 0.6758298 -0.7297257 -0.1037034
vn 0.6477453 -0.7334124 -0.2062334
vn -0.6134073 -0.6956801 0.373846
vn -0.6738151 -0.5160059 0.5288772
vn -0.5669138 -0.6932527 0.4449823
vn -0.7530422 -0.2890877 0.5910631
vn -0.6381586 -0.6911131 0.3392881
vn -0.6869959 -0.6929601 0.2187302
vn -0.7858068 -0.04557102 0.6167909
vn -0.7862092 -0.03247316 0.6171067
vn -0.7865991 -0.008854276 0.6174006
vn -0.7866277 0.001668307 0.6174254
vn -0.7865264 0.01557187 0.6173604
vn -0.799516 0.01770633 0.6003837
vn -0.8058529 0.02046124 0.5917621
vn -0.824455 0.01856547 0.5656229
g Null_GryphonTowerFlag_mesh_0
f 3/3/3 2/2/2 1/1/1
f 4/4/4 2/2/2 3/3/3
f 4/4/4 5/5/5 2/2/2
f 6/6/6 5/5/5 4/4/4
f 6/6/6 7/7/7 5/5/5
f 8/8/8 7/7/7 6/6/6
f 7/7/7 9/9/9 5/5/5
f 5/5/5 9/9/9 10/10/10
f 5/5/5 10/10/10 2/2/2
f 2/2/2 10/10/10 11/11/11
f 2/2/2 11/11/11 1/1/1
f 1/1/1 11/11/11 12/12/12
f 9/9/9 13/13/13 10/10/10
f 10/10/10 13/13/13 14/14/14
f 10/10/10 14/14/14 11/11/11
f 11/11/11 14/14/14 15/15/15
f 11/11/11 15/15/15 12/12/12
f 12/12/12 15/15/15 16/16/16
f 13/13/13 17/17/17 14/14/14
f 14/14/14 17/17/17 18/18/18
f 14/14/14 18/18/18 15/15/15
f 15/15/15 18/18/18 19/19/19
f 15/15/15 19/19/19 16/16/16
f 16/16/16 19/19/19 20/20/20
f 21/21/21 12/12/12 16/16/16
f 22/22/22 12/12/12 21/21/21
f 22/22/22 1/1/1 12/12/12
f 23/23/23 16/16/16 20/20/20
f 21/21/21 16/16/16 23/23/23
f 24/24/24 23/23/23 20/20/20
f 25/25/25 23/23/23 24/24/24
f 26/26/26 20/20/20 19/19/19
f 24/24/24 20/20/20 26/26/26
f 26/26/26 19/19/19 27/27/27
f 27/27/27 19/19/19 18/18/18
f 27/27/27 18/18/18 28/28/28
f 28/28/28 18/18/18 17/17/17
f 30/30/30 1/1/1 29/29/29
f 30/30/30 3/3/3 1/1/1
f 31/31/31 3/3/3 30/30/30
f 31/31/31 32/32/32 3/3/3
f 32/32/32 4/4/4 3/3/3
f 33/33/33 4/4/4 32/32/32
f 33/33/33 6/6/6 4/4/4
f 34/34/34 6/6/6 33/33/33
f 34/34/34 8/8/8 6/6/6
f 35/35/35 33/33/33 32/32/32
f 35/35/35 34/34/34 33/33/33
f 38/38/38 37/37/37 36/36/36
f 38/38/38 36/36/36 39/39/39
f 39/39/39 36/36/36 40/40/40
f 39/39/39 40/40/40 41/41/41
f 41/41/41 40/40/40 42/42/42
f 41/41/41 42/42/42 43/43/43
f 43/43/43 42/42/42 44/44/44
f 47/47/47 46/46/46 45/45/45
f 50/50/50 49/49/49 48/48/48
f 51/51/51 49/49/49 50/50/50
f 51/51/51 52/52/52 49/49/49
f 55/55/55 54/54/54 53/53/53
f 55/55/55 56/56/56 54/54/54
f 57/57/57 56/56/56 55/55/55
f 57/57/57 58/58/58 56/56/56
f 59/59/59 58/58/58 57/57/57
f 61/61/61 60/60/60 58/58/58
f 64/64/64 63/63/63 62/62/62
f 64/64/64 65/65/65 63/63/63
f 66/66/66 65/65/65 64/64/64
f 69/69/69 68/68/68 67/67/67
f 70/70/70 68/68/68 69/69/69
f 69/69/69 67/67/67 71/71/71
f 71/71/71 67/67/67 72/72/72
f 70/70/70 73/73/73 68/68/68
f 74/74/74 73/73/73 70/70/70
f 74/74/74 75/75/75 73/73/73
f 76/76/76 75/75/75 74/74/74
f 76/76/76 77/77/77 75/75/75
f 78/78/78 77/77/77 76/76/76
f 78/78/78 79/79/79 77/77/77
f 80/80/80 79/79/79 78/78/78
