g Null_GryphonTowerBottom_mesh
v 1395.202 68.39052 -300.6961
v 1336.002 68.39052 -245.6405
v 1349.95 68.39052 -328.8174
v 1324.989 68.39052 -328.8174
v 1300.044 68.39052 -320.0903
v 1279.056 68.39052 -306.3528
v 1263.457 68.39052 -285.3077
v 1254.395 68.39052 -261.9294
v 1254.614 68.39052 -235.5179
v 1261.553 68.39052 -210.4385
v 1275.669 68.39052 -189.0721
v 1296.714 68.39052 -174.9859
v 1320.47 68.39052 -166.3031
v 1370.07 68.39052 -172.3253
v 1406.657 68.39052 -206.3516
v 1416.257 68.39052 -255.3848
v 1392.45 37.20871 -300.4854
v 1413.504 37.20871 -255.174
v 1395.202 68.39052 -300.6961
v 1416.257 68.39052 -255.3848
v 1403.904 37.20871 -206.1408
v 1406.657 68.39052 -206.3516
v 1367.317 37.20871 -172.1145
v 1370.07 68.39052 -172.3253
v 1317.718 37.20871 -166.0922
v 1320.47 68.39052 -166.3031
v 1298.433 37.20871 -169.015
v 1349.95 68.39052 -328.8174
v 1346.798 37.20871 -331.1828
v 1349.95 68.39052 -328.8174
v 1324.989 68.39052 -328.8174
v 1346.798 37.20871 -331.1828
v 1322.048 37.20871 -330.0532
v 1300.044 68.39052 -320.0903
v 1296.911 37.20871 -321.4024
v 1279.056 68.39052 -306.3528
v 1276.303 37.20871 -306.1419
v 1263.457 68.39052 -285.3077
v 1259.611 37.20871 -285.5155
v 1254.395 68.39052 -261.9294
v 1250.857 37.20871 -258.1005
v 1254.614 68.39052 -235.5179
v 1251.611 37.20871 -230.3148
v 1261.553 68.39052 -210.4385
v 1259.606 37.20871 -204.4304
v 1275.669 68.39052 -189.0721
v 1275.216 37.20871 -181.2084
v 1296.714 68.39052 -174.9859
v 1298.433 37.20871 -169.015
v 1320.47 68.39052 -166.3031
v 1394.252 294.5735 -272.7073
v 1367.218 294.5735 -301.7764
v 1394.252 69.50987 -272.7073
v 1367.218 69.50987 -301.7764
v 1399.037 69.50987 -233.2998
v 1399.037 294.5735 -233.2998
v 1379.744 69.50987 -198.6059
v 1379.744 294.5735 -198.6059
v 1343.744 69.50987 -181.8777
v 1343.744 294.5735 -181.8777
v 1304.787 69.50987 -189.5047
v 1304.787 294.5735 -189.5047
v 1286.824 69.50987 -200.8264
v 1286.824 294.5735 -200.8264
v 1367.218 294.5735 -301.7764
v 1328.26 294.5735 -312.6187
v 1367.218 69.50987 -301.7764
v 1328.26 69.50987 -312.6187
v 1305.164 294.5735 -303.7628
v 1306.755 69.50987 -304.5023
v 1292.26 294.5735 -292.6751
v 1292.26 69.50987 -292.6751
v 1279.867 294.5735 -276.856
v 1279.867 69.50987 -276.856
v 1272.253 294.5735 -259.053
v 1272.253 69.50987 -259.053
v 1270.096 294.5735 -238.613
v 1270.096 69.50987 -238.613
v 1275.966 294.5735 -218.5737
v 1275.966 69.50987 -218.5737
v 1286.824 294.5735 -200.8264
v 1286.824 69.50987 -200.8264
vt 0.676529 0.358252
vt 0.554822 0.471441
vt 0.583496 0.300438
vt 0.532178 0.300438
vt 0.480895 0.31838
vt 0.437745 0.346623
vt 0.405676 0.389889
vt 0.387047 0.437952
vt 0.387496 0.492251
vt 0.401762 0.543812
vt 0.430782 0.587739
vt 0.474048 0.616699
vt 0.522889 0.634549
vt 0.624861 0.622168
vt 0.70008 0.552214
vt 0.719816 0.451407
vt 0.655206 0.350994
vt 0.697917 0.442913
vt 0.676529 0.358252
vt 0.719816 0.451407
vt 0.678444 0.542382
vt 0.70008 0.552214
vt 0.604223 0.611408
vt 0.624861 0.622168
vt 0.503605 0.623625
vt 0.522889 0.634549
vt 0.464483 0.617696
vt 0.583496 0.300438
vt 0.562597 0.288721
vt 0.583496 0.300438
vt 0.532178 0.300438
vt 0.562597 0.288721
vt 0.512389 0.291013
vt 0.480895 0.31838
vt 0.461396 0.308562
vt 0.437745 0.346623
vt 0.419591 0.339519
vt 0.405676 0.389889
vt 0.385729 0.381362
vt 0.387047 0.437952
vt 0.36797 0.436976
vt 0.387496 0.492251
vt 0.3695 0.493342
vt 0.401762 0.543812
vt 0.38572 0.545852
vt 0.430782 0.587739
vt 0.417385 0.59296
vt 0.474048 0.616699
vt 0.464483 0.617696
vt 0.522889 0.634549
vt 0.802579 0.484622
vt 0.740992 0.418399
vt 0.675148 0.416102
vt 0.619543 0.35631
vt 0.68499 0.497158
vt 0.813479 0.574398
vt 0.645308 0.568519
vt 0.769529 0.653435
vt 0.57126 0.602928
vt 0.687515 0.691544
vt 0.491129 0.58724
vt 0.598766 0.674169
vt 0.454182 0.563952
vt 0.557844 0.648376
vt 0.740992 0.418399
vt 0.652242 0.393699
vt 0.619543 0.35631
vt 0.539412 0.334009
vt 0.599624 0.413874
vt 0.495177 0.350703
vt 0.570228 0.439133
vt 0.465364 0.37503
vt 0.541994 0.475171
vt 0.439871 0.407568
vt 0.52465 0.515729
vt 0.424211 0.444187
vt 0.519735 0.562294
vt 0.419774 0.48623
vt 0.533109 0.607946
vt 0.431849 0.527448
vt 0.557844 0.648376
vt 0.454182 0.563952
vn 0 1 0
vn 0 1 0
vn 0 1 0
vn 0 1 0
vn 0 1 0
vn 0 1 0
vn 0 1 0
vn 0 1 0
vn 0 1 0
vn 0 1 0
vn 0 1 0
vn 0 1 0
vn 0 1 0
vn 0 1 0
vn 0 1 0
vn 0 1 0
vn 0.6873102 -0.04434041 -0.7250094
vn 0.9702443 -0.08717736 -0.2258895
vn 0.8080553 -0.07527536 -0.5842776
vn 0.9960346 -0.08802356 -0.01292313
vn 0.9182598 -0.07844605 0.3881304
vn 0.8144923 -0.06801229 0.5761741
vn 0.5160046 -0.03976994 0.855662
vn 0.3210165 -0.0219377 0.9468195
vn 0.03066631 0.004051377 0.9995215
vn -0.1253724 0.05953863 0.9903217
vn -0.3199034 0.1082832 0.941242
vn 0.3758556 0.01036932 -0.9266202
vn 0.178315 0.04385694 -0.9829956
vn 0.3758556 0.01036932 -0.9266202
vn -0.1264094 0.06333015 -0.9899545
vn 0.178315 0.04385694 -0.9829956
vn -0.2353722 0.06208708 -0.9699202
vn -0.402512 0.07737087 -0.9121391
vn -0.4925334 0.07036602 -0.8674442
vn -0.6550419 0.06871617 -0.7524614
vn -0.7295142 0.07174689 -0.6801921
vn -0.8417419 0.09522057 -0.5314165
vn -0.8951074 0.0968712 -0.4351998
vn -0.9699346 0.1017135 -0.2210911
vn -0.9912579 0.09602014 -0.0904875
vn -0.98797 0.1175316 0.1005068
vn -0.9734018 0.1182375 0.1962367
vn -0.9184345 0.1374027 0.3709427
vn -0.8725524 0.1423305 0.4673267
vn -0.7418944 0.1763188 0.6469191
vn -0.6220206 0.1725716 0.763747
vn -0.4498479 0.1722048 0.876346
vn -0.3199034 0.1082832 0.941242
vn -0.1253724 0.05953863 0.9903217
vn 0.9469796 0 -0.3212936
vn 0.5974869 0 -0.8018787
vn 0.8562319 0 -0.5165915
vn 0.4374299 0 -0.8992524
vn 0.9963515 0 0.08534481
vn 0.9549753 0 0.2966854
vn 0.7559024 0 0.6546843
vn 0.5982057 0 0.8013426
vn 0.2267248 0 0.9739588
vn 0.0129405 0 0.9999163
vn -0.3105084 0 0.9505706
vn -0.4259448 0 0.9047492
vn -0.6550866 0 0.7555537
vn -0.7642308 0 0.6449429
vn 0.5974869 0 -0.8018787
vn 0.06218797 0 -0.9980645
vn 0.4374299 0 -0.8992524
vn -0.1545065 0.0002014036 -0.9879918
vn -0.4603983 -0.0005198417 -0.8877122
vn -0.5526323 -0.0005194679 -0.8334249
vn -0.6937782 -0.0007088946 -0.7201884
vn -0.7395611 0 -0.6730894
vn -0.8375717 0 -0.5463274
vn -0.881997 0 -0.4712549
vn -0.9539101 0 -0.3000928
vn -0.9791684 0 -0.2030497
vn -0.9997085 0 0.02414476
vn -0.9879076 0 0.1550437
vn -0.9313228 0 0.3641947
vn -0.8954955 0 0.4450705
vn -0.7642308 0 0.6449429
vn -0.6550866 0 0.7555537
g Null_GryphonTowerBottom_mesh_0
f 3/3/3 2/2/2 1/1/1
f 2/2/2 3/3/3 4/4/4
f 2/2/2 4/4/4 5/5/5
f 2/2/2 5/5/5 6/6/6
f 2/2/2 6/6/6 7/7/7
f 2/2/2 7/7/7 8/8/8
f 2/2/2 8/8/8 9/9/9
f 2/2/2 9/9/9 10/10/10
f 2/2/2 10/10/10 11/11/11
f 2/2/2 11/11/11 12/12/12
f 2/2/2 12/12/12 13/13/13
f 14/14/14 2/2/2 13/13/13
f 15/15/15 2/2/2 14/14/14
f 16/16/16 2/2/2 15/15/15
f 1/1/1 2/2/2 16/16/16
f 19/19/19 18/18/18 17/17/17
f 20/20/20 18/18/18 19/19/19
f 20/20/20 21/21/21 18/18/18
f 22/22/22 21/21/21 20/20/20
f 22/22/22 23/23/23 21/21/21
f 24/24/24 23/23/23 22/22/22
f 24/24/24 25/25/25 23/23/23
f 26/26/26 25/25/25 24/24/24
f 25/25/25 26/26/26 27/27/27
f 19/19/19 17/17/17 28/28/28
f 28/28/28 17/17/17 29/29/29
f 32/32/32 31/31/31 30/30/30
f 33/33/33 31/31/31 32/32/32
f 33/33/33 34/34/34 31/31/31
f 35/35/35 34/34/34 33/33/33
f 35/35/35 36/36/36 34/34/34
f 37/37/37 36/36/36 35/35/35
f 37/37/37 38/38/38 36/36/36
f 39/39/39 38/38/38 37/37/37
f 39/39/39 40/40/40 38/38/38
f 41/41/41 40/40/40 39/39/39
f 41/41/41 42/42/42 40/40/40
f 43/43/43 42/42/42 41/41/41
f 43/43/43 44/44/44 42/42/42
f 45/45/45 44/44/44 43/43/43
f 45/45/45 46/46/46 44/44/44
f 47/47/47 46/46/46 45/45/45
f 47/47/47 48/48/48 46/46/46
f 49/49/49 48/48/48 47/47/47
f 49/49/49 50/50/50 48/48/48
f 53/53/53 52/52/52 51/51/51
f 54/54/54 52/52/52 53/53/53
f 53/53/53 51/51/51 55/55/55
f 55/55/55 51/51/51 56/56/56
f 55/55/55 56/56/56 57/57/57
f 57/57/57 56/56/56 58/58/58
f 57/57/57 58/58/58 59/59/59
f 59/59/59 58/58/58 60/60/60
f 59/59/59 60/60/60 61/61/61
f 61/61/61 60/60/60 62/62/62
f 62/62/62 63/63/63 61/61/61
f 64/64/64 63/63/63 62/62/62
f 67/67/67 66/66/66 65/65/65
f 68/68/68 66/66/66 67/67/67
f 68/68/68 69/69/69 66/66/66
f 70/70/70 69/69/69 68/68/68
f 70/70/70 71/71/71 69/69/69
f 72/72/72 71/71/71 70/70/70
f 71/71/71 72/72/72 73/73/73
f 73/73/73 72/72/72 74/74/74
f 73/73/73 74/74/74 75/75/75
f 75/75/75 74/74/74 76/76/76
f 75/75/75 76/76/76 77/77/77
f 77/77/77 76/76/76 78/78/78
f 77/77/77 78/78/78 79/79/79
f 79/79/79 78/78/78 80/80/80
f 79/79/79 80/80/80 81/81/81
f 81/81/81 80/80/80 82/82/82
