g Plants_Church2_mesh_1
v 1487.979 64.79036 -917.6716
v 1487.993 64.8777 -919.1028
v 1483.452 64.98505 -922.467
v 1481.325 64.70095 -932.5588
v 1476.08 65.27725 -927.4805
v 1486.295 65.79163 -923.6958
v 1474.432 61.1466 -942.8082
v 1465.145 60.52095 -933.7163
v 1471.118 67.81037 -926.2829
v 1480.685 66.95025 -922.2975
v 1483.452 64.98505 -922.467
v 1458.627 66.68285 -927.1561
v 1457.679 53.26965 -937.1578
v 1446.883 60.0199 -929.6772
v 1466.178 53.82147 -948.814
v 1451.031 48.46191 -940.0873
v 1440.452 54.17336 -933.8458
v 1437.062 46.57937 -940.154
v 1443.628 42.74007 -943.2001
v 1457.651 48.70958 -948.9811
v 1487.979 64.79036 -917.6716
v 1483.452 64.98505 -922.467
v 1480.685 66.95025 -922.2975
v 1486.295 65.79163 -923.6958
v 1483.452 64.98505 -922.467
v 1437.357 45.87999 -938.6685
v 1440.452 54.17336 -933.8458
v 1437.062 46.57937 -940.154
v 1441.126 52.82541 -931.7556
v 1446.883 60.0199 -929.6772
v 1448.562 57.90173 -925.9697
v 1458.627 66.68285 -927.1561
v 1459.887 62.92669 -923.5608
v 1471.118 67.81037 -926.2829
v 1471.248 65.33078 -922.6474
v 1480.685 66.95025 -922.2975
v 1479.487 64.48225 -919.4841
v 1487.979 64.79036 -917.6716
v 1473.016 56.61271 -889.9509
v 1475.364 56.53559 -891.3399
v 1472.37 56.83143 -895.326
v 1474.408 55.73182 -905.6339
v 1466.838 57.03165 -902.3196
v 1475.497 57.40117 -895.7015
v 1468.893 52.75857 -914.8942
v 1457.921 52.26483 -911.2002
v 1461.694 60.09017 -902.3937
v 1469.817 58.92738 -896.1235
v 1472.37 56.83143 -895.326
v 1451.822 58.48824 -908.8738
v 1451.32 45.09398 -916.2166
v 1444.159 52.3379 -913.8755
v 1461.805 45.48577 -922.2745
v 1445.514 40.36169 -920.6661
v 1440.452 46.86391 -918.4529
v 1439.631 40.22651 -922.1636
v 1443.854 35.19653 -924.3168
v 1454.459 39.55412 -927.1729
v 1473.016 56.61271 -889.9509
v 1472.37 56.83143 -895.326
v 1475.364 56.53559 -891.3399
v 1472.37 56.83143 -895.326
v 1439.061 40.53428 -918.7377
v 1440.452 46.86391 -918.4529
v 1439.631 40.22651 -922.1636
v 1438.722 46.41828 -914.64
v 1444.159 52.3379 -913.8755
v 1443.287 50.82543 -908.9861
v 1451.822 58.48824 -908.8738
v 1451.203 55.44567 -903.8893
v 1461.694 60.09017 -902.3937
v 1461.135 57.62658 -899.3385
v 1469.817 58.92738 -896.1235
v 1467.936 56.72634 -893.7064
v 1473.016 56.61271 -889.9509
v 1443.553 51.59114 -892.4708
v 1446.019 52.75911 -892.5471
v 1445.83 51.54162 -897.3871
v 1443.553 51.59114 -892.4708
v 1443.348 51.42469 -901.0865
v 1445.83 51.54162 -897.3871
v 1446.504 49.85737 -904.0484
v 1441.425 49.11134 -908.8016
v 1454.868 53.3362 -901.6702
v 1449.502 56.45249 -896.2978
v 1449.261 42.02878 -912.916
v 1438.31 43.84204 -916.1699
v 1455.05 49.45736 -908.5231
v 1450.612 33.04218 -917.3537
v 1437.499 33.89563 -924.1077
v 1457.02 41.07519 -913.2687
v 1446.019 52.75911 -892.5471
v 1445.83 51.54162 -897.3871
v 1437.016 40.64331 -911.8101
v 1441.425 49.11134 -908.8016
v 1438.31 43.84204 -916.1699
v 1440.698 46.86466 -905.3818
v 1443.348 51.42469 -901.0865
v 1442.32 48.9928 -898.3221
v 1443.553 51.59114 -892.4708
v 1436.475 31.90691 -920.2473
v 1437.499 33.89563 -924.1077
v 1413.702 56.63007 -913.2109
v 1418.655 54.57468 -916.918
v 1414.269 55.77116 -918.413
v 1422.729 51.33318 -925.1871
v 1412.756 52.33769 -928.0656
v 1428.648 55.53027 -919.0515
v 1418.988 56.42912 -915.231
v 1413.702 56.63007 -913.2109
v 1428.542 44.36982 -934.5289
v 1414.056 47.69495 -937.6863
v 1439.227 51.33207 -926.5793
v 1446.235 42.44862 -932.0253
v 1432.747 32.3482 -936.5676
v 1414.056 47.69495 -937.6863
v 1447.289 29.67995 -935.1595
v 1436.46 23.82486 -938.3411
v 1439.024 16.7417 -940.0048
v 1435.401 19.56476 -942.6088
v 1425.411 27.6909 -943.4885
v 1420.383 36.73386 -943.135
v 1414.056 47.69495 -937.6863
v 1415.345 57.26653 -911.5342
v 1427.741 56.52173 -914.9355
v 1439.227 51.33207 -926.5793
v 1437.957 52.42629 -922.2576
v 1425.65 25.82879 -943.6194
v 1425.411 27.6909 -943.4885
v 1431.953 19.51947 -941.5358
v 1420.383 36.73386 -943.135
v 1431.953 19.51947 -941.5358
v 1425.411 27.6909 -943.4885
v 1435.401 19.56476 -942.6088
v 1411.299 45.07548 -933.3325
v 1414.056 47.69495 -937.6863
v 1416.573 35.46307 -941.0908
v 1412.756 52.33769 -928.0656
v 1411.491 49.94609 -925.9355
v 1414.269 55.77116 -918.413
v 1413.072 53.29699 -916.5357
v 1413.702 56.63007 -913.2109
v 1416.573 35.46307 -941.0908
v 1414.056 47.69495 -937.6863
v 1420.383 36.73386 -943.135
v 1425.65 25.82879 -943.6194
v 1444.781 42.93871 -928.9899
v 1446.235 42.44862 -932.0253
v 1437.957 52.42629 -922.2576
v 1437.957 52.42629 -922.2576
v 1446.235 42.44862 -932.0253
v 1439.227 51.33207 -926.5793
v 1491.828 48.53281 -938.6508
v 1493.424 46.3133 -942.3254
v 1488.583 44.82899 -945.7372
v 1494.12 44.14092 -946.1183
v 1493.663 37.32088 -953.9587
v 1485.626 41.07687 -954.5641
v 1486.395 46.32767 -948.5231
v 1491.828 48.53281 -938.6508
v 1489.25 27.51606 -962.9989
v 1477.012 33.6247 -961.7305
v 1481.475 44.55349 -956.5078
v 1471.676 42.76183 -964.6329
v 1469.275 26.15984 -963.8669
v 1460.946 36.55666 -968.6234
v 1483.201 17.60581 -968.4863
v 1462.968 20.81183 -966.6105
v 1453.898 29.50684 -971.6694
v 1450.548 19.73797 -973.1881
v 1456.83 14.53795 -969.6483
v 1474.393 13.55537 -971.2081
v 1486.395 46.32767 -948.5231
v 1485.626 41.07687 -954.5641
v 1481.475 44.55349 -956.5078
v 1460.226 36.73643 -965.7911
v 1471.676 42.76183 -964.6329
v 1460.946 36.55666 -968.6234
v 1470.556 41.77525 -960.9515
v 1481.475 44.55349 -956.5078
v 1453.141 29.92492 -969.2418
v 1453.141 29.92492 -969.2418
v 1453.898 29.50684 -971.6694
v 1453.141 29.92492 -969.2418
v 1449.956 20.22906 -971.7076
v 1450.548 19.73797 -973.1881
v 1478.999 44.95661 -953.3152
v 1481.475 44.55349 -956.5078
v 1470.556 41.77525 -960.9515
v 1486.395 46.32767 -948.5231
v 1484.295 46.62953 -945.6508
v 1491.828 48.53281 -938.6508
v 1486.544 49.11836 -938.7893
v 1462.619 31.6705 -960.1871
v 1470.556 41.77525 -960.9515
v 1460.226 36.73643 -965.7911
v 1456.544 25.17796 -962.9284
v 1453.141 29.92492 -969.2418
v 1472.052 37.70872 -953.2612
v 1470.556 41.77525 -960.9515
v 1462.619 31.6705 -960.1871
v 1478.999 44.95661 -953.3152
v 1480.091 39.70239 -948.1553
v 1478.999 44.95661 -953.3152
v 1484.295 46.62953 -945.6508
v 1484.39 43.72002 -942.7538
v 1486.544 49.11836 -938.7893
v 1456.544 25.17796 -962.9284
v 1453.141 29.92492 -969.2418
v 1453.361 14.80711 -966.8232
v 1453.141 29.92492 -969.2418
v 1449.956 20.22906 -971.7076
v 1501.362 0.456637 -962.6186
v 1499.492 -0.142299 -966.3579
v 1494.403 2.151288 -967.4323
v 1497.048 -0.292988 -969.7726
v 1490.441 -1.936348 -977.6287
v 1487.441 4.665465 -972.4512
v 1479.497 -3.739422 -984.6735
v 1473.904 5.512586 -976.5805
v 1485.776 10.01497 -971.1448
v 1492.733 5.516983 -968.2562
v 1474.37 16.23862 -974.3168
v 1462.879 3.396493 -978.8226
v 1461.258 17.2086 -976.2339
v 1466.535 -6.6536 -989.3353
v 1454.667 3.061329 -978.6611
v 1451.399 15.98513 -976.2584
v 1443.272 10.52775 -976.5508
v 1445.956 2.195396 -978.1302
v 1456.225 -4.981209 -988.4087
v 1446.464 -1.760071 -983.243
v 1442.771 10.84396 -972.9295
v 1451.399 15.98513 -976.2584
v 1443.272 10.52775 -976.5508
v 1451.645 15.99691 -970.7048
v 1461.258 17.2086 -976.2339
v 1462.022 16.8093 -970.3242
v 1474.37 16.23862 -974.3168
v 1474.212 14.24173 -970.8865
v 1485.776 10.01497 -971.1448
v 1484.87 9.719901 -968.5051
v 1443.515 3.934962 -965.232
v 1453.32 8.477465 -964.8989
v 1462.64 9.634151 -965.5753
v 1475.212 7.121906 -964.8413
v 1483.64 3.0585 -964.3279
v 1492.733 5.516983 -968.2562
v 1493.193 5.24533 -964.7285
v 1492.733 5.516983 -968.2562
v 1484.87 9.719901 -968.5051
v 1501.362 0.456637 -962.6186
v 1483.64 3.0585 -964.3279
v 1493.193 5.24533 -964.7285
v 1484.87 9.719901 -968.5051
v 1491.924 1.867078 -961.4489
v 1493.193 5.24533 -964.7285
v 1499.958 3.011387 -959.8375
v 1496.803 1.899772 -959.4163
v 1499.958 3.011387 -959.8375
v 1501.362 0.456637 -962.6186
v 1493.193 5.24533 -964.7285
v 1501.362 0.456637 -962.6186
v 1494.403 2.151288 -967.4323
v 1492.733 5.516983 -968.2562
v 1487.441 4.665465 -972.4512
v 1504.832 9.955626 -930.7737
v 1504.785 10.43592 -934.3356
v 1499.962 12.04725 -935.0023
v 1503.788 11.39374 -938.5063
v 1496.713 13.66152 -944.9299
v 1492.82 16.65765 -939.8485
v 1498.152 15.12068 -934.5353
v 1504.832 9.955626 -930.7737
v 1486.121 14.42753 -951.2646
v 1480.786 17.96007 -943.2907
v 1491.27 20.11567 -937.248
v 1480.597 25.64337 -937.473
v 1475.958 12.41665 -956.2227
v 1471.505 15.227 -944.9187
v 1468.42 25.65817 -937.391
v 1463.467 14.48238 -946.0214
v 1458.96 24.1594 -939.2024
v 1451.554 19.59415 -943.6306
v 1455.056 13.36666 -947.8818
v 1467.427 12.34107 -957.8015
v 1498.152 15.12068 -934.5353
v 1492.82 16.65765 -939.8485
v 1491.27 20.11567 -937.248
v 1468.768 23.83718 -935.3762
v 1480.597 25.64337 -937.473
v 1468.42 25.65817 -937.391
v 1480.359 22.55114 -935.428
v 1491.27 20.11567 -937.248
v 1459.27 22.77165 -937.257
v 1459.27 22.77165 -937.257
v 1458.96 24.1594 -939.2024
v 1469.945 16.59064 -936.3831
v 1480.359 22.55114 -935.428
v 1468.768 23.83718 -935.3762
v 1481.902 14.52343 -934.281
v 1461.57 15.12696 -938.2361
v 1459.27 22.77165 -937.257
v 1490.68 19.00352 -934.4786
v 1480.359 22.55114 -935.428
v 1490.646 12.07335 -935.1443
v 1490.68 19.00352 -934.4786
v 1497.713 14.13821 -932.1942
v 1497.315 10.31901 -932.2726
v 1502.307 10.08759 -928.9508
v 1490.68 19.00352 -934.4786
v 1491.27 20.11567 -937.248
v 1480.359 22.55114 -935.428
v 1490.68 19.00352 -934.4786
v 1498.152 15.12068 -934.5353
v 1491.27 20.11567 -937.248
v 1497.713 14.13821 -932.1942
v 1490.68 19.00352 -934.4786
v 1504.832 9.955626 -930.7737
v 1502.307 10.08759 -928.9508
v 1459.27 22.77165 -937.257
v 1458.96 24.1594 -939.2024
v 1451.75 18.90332 -942.2454
v 1451.554 19.59415 -943.6306
v 1461.57 15.12696 -938.2361
v 1459.27 22.77165 -937.257
v 1453.334 11.85532 -944.3717
v 1459.27 22.77165 -937.257
v 1451.75 18.90332 -942.2454
v 1480.222 60.44473 -942.3741
v 1480.484 59.9264 -943.6854
v 1476.604 58.75132 -947.6246
v 1479.682 58.88921 -948.4913
v 1476.604 58.75132 -947.6246
v 1475.981 54.38901 -956.5912
v 1476.604 58.75132 -947.6246
v 1469.177 56.75482 -954.662
v 1470.062 47.2494 -964.1819
v 1460.246 49.82411 -958.0006
v 1465.75 60.00842 -955.1678
v 1474.075 60.68684 -948.8102
v 1476.604 58.75132 -947.6246
v 1455.616 58.89866 -957.0002
v 1451.618 39.93092 -957.7629
v 1441.731 50.12399 -957.4018
v 1463.175 38.14569 -968.7535
v 1443.669 31.75214 -957.4263
v 1433.133 40.88089 -957.7618
v 1430.817 30.58324 -958.0014
v 1438.067 24.02344 -958.0284
v 1452.997 30.65882 -966.4933
v 1480.222 60.44473 -942.3741
v 1476.604 58.75132 -947.6246
v 1430.784 30.55926 -956.3336
v 1433.133 40.88089 -957.7618
v 1430.817 30.58324 -958.0014
v 1433.324 40.56235 -955.2746
v 1441.731 50.12399 -957.4018
v 1443.277 50.00782 -953.1175
v 1455.616 58.89866 -957.0002
v 1456.297 56.76939 -953.7059
v 1465.75 60.00842 -955.1678
v 1465.128 59.20555 -951.5157
v 1474.075 60.68684 -948.8102
v 1472.487 59.56128 -946.3101
v 1480.222 60.44473 -942.3741
vt 0.300563 0.929009
vt 0.300815 0.926411
vt 0.310307 0.922667
vt 0.317059 0.904942
vt 0.325549 0.917476
vt 0.304527 0.919359
vt 0.335451 0.887518
vt 0.3516 0.908959
vt 0.333031 0.923818
vt 0.314188 0.925604
vt 0.310307 0.922667
vt 0.358199 0.928174
vt 0.371957 0.902343
vt 0.386174 0.92582
vt 0.3581 0.876552
vt 0.388837 0.897676
vt 0.403666 0.918106
vt 0.417002 0.903852
vt 0.407789 0.892558
vt 0.378173 0.877856
vt 0.300563 0.929009
vt 0.310307 0.922667
vt 0.314188 0.925604
vt 0.304527 0.919359
vt 0.310307 0.922667
vt 0.416524 0.906031
vt 0.403666 0.918106
vt 0.417002 0.903852
vt 0.402756 0.920816
vt 0.386174 0.92582
vt 0.383466 0.930523
vt 0.358199 0.928174
vt 0.357521 0.931931
vt 0.333031 0.923818
vt 0.333664 0.929012
vt 0.314188 0.925604
vt 0.317602 0.929983
vt 0.300563 0.929009
vt 0.411155 0.81227
vt 0.407052 0.808461
vt 0.413536 0.802947
vt 0.412913 0.78238
vt 0.425699 0.793207
vt 0.407233 0.80096
vt 0.427858 0.766556
vt 0.448329 0.778814
vt 0.433426 0.797618
vt 0.417132 0.804098
vt 0.413536 0.802947
vt 0.455111 0.789999
vt 0.467194 0.768871
vt 0.47533 0.781208
vt 0.448371 0.75249
vt 0.482663 0.761009
vt 0.487345 0.771538
vt 0.494378 0.761281
vt 0.490275 0.752197
vt 0.467767 0.743928
vt 0.411155 0.81227
vt 0.413536 0.802947
vt 0.407052 0.808461
vt 0.413536 0.802947
vt 0.494379 0.768022
vt 0.487345 0.771538
vt 0.494378 0.761281
vt 0.489982 0.779157
vt 0.47533 0.781208
vt 0.476796 0.789706
vt 0.455111 0.789999
vt 0.457162 0.797618
vt 0.433426 0.797618
vt 0.435477 0.802014
vt 0.417132 0.804098
vt 0.421704 0.808168
vt 0.411155 0.81227
vt 0.388949 0.990667
vt 0.383456 0.989944
vt 0.385873 0.980506
vt 0.388949 0.990667
vt 0.391632 0.975004
vt 0.385873 0.980506
vt 0.387424 0.967008
vt 0.398853 0.96056
vt 0.368544 0.968868
vt 0.375078 0.982868
vt 0.389768 0.944737
vt 0.410281 0.945616
vt 0.372479 0.954113
vt 0.394457 0.930671
vt 0.420589 0.925716
vt 0.375703 0.939462
vt 0.383456 0.989944
vt 0.385873 0.980506
vt 0.413798 0.952356
vt 0.398853 0.96056
vt 0.410281 0.945616
vt 0.400904 0.965835
vt 0.391632 0.975004
vt 0.394561 0.979109
vt 0.388949 0.990667
vt 0.422882 0.932136
vt 0.420589 0.925716
vt 0.448043 0.97161
vt 0.440889 0.960976
vt 0.448905 0.961268
vt 0.437415 0.941736
vt 0.456661 0.942311
vt 0.421616 0.952364
vt 0.438564 0.965003
vt 0.448043 0.97161
vt 0.433387 0.917426
vt 0.459809 0.921201
vt 0.406099 0.930471
vt 0.400123 0.911587
vt 0.433927 0.904523
vt 0.459809 0.921201
vt 0.407604 0.897943
vt 0.433001 0.894459
vt 0.433274 0.886065
vt 0.438962 0.884793
vt 0.452846 0.893025
vt 0.456384 0.90149
vt 0.459809 0.921201
vt 0.444022 0.974195
vt 0.421617 0.960982
vt 0.406099 0.930471
vt 0.40668 0.939725
vt 0.453655 0.8916
vt 0.452846 0.893025
vt 0.445271 0.888534
vt 0.456384 0.90149
vt 0.445271 0.888534
vt 0.452846 0.893025
vt 0.438962 0.884793
vt 0.465668 0.929127
vt 0.459809 0.921201
vt 0.463972 0.90652
vt 0.456661 0.942311
vt 0.460107 0.94547
vt 0.448905 0.961268
vt 0.452352 0.963854
vt 0.448043 0.97161
vt 0.463972 0.90652
vt 0.459809 0.921201
vt 0.456384 0.90149
vt 0.453655 0.8916
vt 0.401798 0.918211
vt 0.400123 0.911587
vt 0.40668 0.939725
vt 0.40668 0.939725
vt 0.400123 0.911587
vt 0.406099 0.930471
vt 0.238067 0.881701
vt 0.237492 0.872797
vt 0.248692 0.868202
vt 0.238641 0.86418
vt 0.246397 0.846083
vt 0.259198 0.851299
vt 0.252426 0.865041
vt 0.238067 0.881701
vt 0.264206 0.826263
vt 0.282914 0.838427
vt 0.265065 0.851828
vt 0.287183 0.840913
vt 0.303684 0.834445
vt 0.313323 0.835742
vt 0.284314 0.813911
vt 0.320251 0.829765
vt 0.332665 0.829934
vt 0.346375 0.823551
vt 0.337166 0.823965
vt 0.304708 0.811327
vt 0.252426 0.865041
vt 0.259198 0.851299
vt 0.265065 0.851828
vt 0.313898 0.841487
vt 0.287183 0.840913
vt 0.313323 0.835742
vt 0.289194 0.847807
vt 0.265065 0.851828
vt 0.333229 0.835068
vt 0.333229 0.835068
vt 0.332665 0.829934
vt 0.333229 0.835068
vt 0.346798 0.82687
vt 0.346375 0.823551
vt 0.2688 0.859297
vt 0.265065 0.851828
vt 0.289194 0.847807
vt 0.252426 0.865041
vt 0.255587 0.871648
vt 0.238067 0.881701
vt 0.247831 0.884574
vt 0.3116 0.847807
vt 0.289194 0.847807
vt 0.313898 0.841487
vt 0.328548 0.842349
vt 0.333229 0.835068
vt 0.287471 0.859009
vt 0.289194 0.847807
vt 0.3116 0.847807
vt 0.2688 0.859297
vt 0.269375 0.865329
vt 0.2688 0.859297
vt 0.255587 0.871648
vt 0.256897 0.875313
vt 0.247831 0.884574
vt 0.328548 0.842349
vt 0.333229 0.835068
vt 0.342911 0.831147
vt 0.333229 0.835068
vt 0.346798 0.82687
vt 0.188833 0.843455
vt 0.19182 0.835742
vt 0.200665 0.832673
vt 0.195842 0.828562
vt 0.207618 0.811901
vt 0.212114 0.821446
vt 0.2283 0.796102
vt 0.237663 0.810846
vt 0.213466 0.823614
vt 0.202301 0.830677
vt 0.232771 0.815124
vt 0.259939 0.804521
vt 0.258127 0.808952
vt 0.254055 0.784726
vt 0.276475 0.803405
vt 0.278368 0.807193
vt 0.296736 0.805343
vt 0.294299 0.802951
vt 0.274084 0.784686
vt 0.293528 0.793063
vt 0.29856 0.812434
vt 0.278368 0.807193
vt 0.296736 0.805343
vt 0.279339 0.818286
vt 0.258127 0.808952
vt 0.258333 0.820865
vt 0.232771 0.815124
vt 0.234855 0.821974
vt 0.213466 0.823614
vt 0.216111 0.828701
vt 0.301835 0.827987
vt 0.280579 0.830285
vt 0.261334 0.830572
vt 0.237492 0.834306
vt 0.222555 0.836891
vt 0.202301 0.830677
vt 0.202448 0.837753
vt 0.202301 0.830677
vt 0.216111 0.828701
vt 0.188833 0.843455
vt 0.222555 0.836891
vt 0.202448 0.837753
vt 0.216111 0.828701
vt 0.207331 0.844072
vt 0.202448 0.837753
vt 0.191245 0.848668
vt 0.198139 0.848955
vt 0.191245 0.848668
vt 0.188833 0.843455
vt 0.202448 0.837753
vt 0.188833 0.843455
vt 0.200665 0.832673
vt 0.202301 0.830677
vt 0.212114 0.821446
vt 0.290632 0.911288
vt 0.286898 0.905256
vt 0.294822 0.89912
vt 0.284248 0.897115
vt 0.288047 0.879978
vt 0.301335 0.882006
vt 0.299497 0.895436
vt 0.290632 0.911288
vt 0.298962 0.861882
vt 0.318049 0.866788
vt 0.309811 0.881236
vt 0.329435 0.867637
vt 0.311314 0.848956
vt 0.332316 0.860314
vt 0.349761 0.859097
vt 0.344089 0.853713
vt 0.362796 0.851156
vt 0.36829 0.843817
vt 0.355439 0.8461
vt 0.323665 0.840626
vt 0.299497 0.895436
vt 0.301335 0.882006
vt 0.309811 0.881236
vt 0.35074 0.864302
vt 0.329435 0.867637
vt 0.349761 0.859097
vt 0.330958 0.873774
vt 0.309811 0.881236
vt 0.363918 0.855775
vt 0.363918 0.855775
vt 0.362796 0.851156
vt 0.344915 0.870941
vt 0.330958 0.873774
vt 0.35074 0.864302
vt 0.326667 0.884778
vt 0.35611 0.863653
vt 0.363918 0.855775
vt 0.314131 0.887512
vt 0.330958 0.873774
vt 0.310884 0.893461
vt 0.314131 0.887512
vt 0.303139 0.901019
vt 0.302319 0.904455
vt 0.296952 0.91215
vt 0.314131 0.887512
vt 0.309811 0.881236
vt 0.330958 0.873774
vt 0.314131 0.887512
vt 0.299497 0.895436
vt 0.309811 0.881236
vt 0.303139 0.901019
vt 0.314131 0.887512
vt 0.290632 0.911288
vt 0.296952 0.91215
vt 0.363918 0.855775
vt 0.362796 0.851156
vt 0.369242 0.846776
vt 0.36829 0.843817
vt 0.35611 0.863653
vt 0.363918 0.855775
vt 0.361579 0.851789
vt 0.363918 0.855775
vt 0.369242 0.846776
vt 0.324286 0.871231
vt 0.3248 0.868587
vt 0.335217 0.863646
vt 0.329686 0.859975
vt 0.335217 0.863646
vt 0.343773 0.847232
vt 0.335217 0.863646
vt 0.354716 0.855145
vt 0.363018 0.837179
vt 0.377162 0.849699
vt 0.360146 0.856137
vt 0.339908 0.862865
vt 0.335217 0.863646
vt 0.38091 0.859297
vt 0.399576 0.855521
vt 0.412425 0.868201
vt 0.383125 0.833732
vt 0.417241 0.862874
vt 0.433206 0.873743
vt 0.442176 0.875518
vt 0.430643 0.864909
vt 0.404669 0.845222
vt 0.324286 0.871231
vt 0.335217 0.863646
vt 0.441272 0.878694
vt 0.433206 0.873743
vt 0.442176 0.875518
vt 0.431515 0.878367
vt 0.412425 0.868201
vt 0.406967 0.875383
vt 0.38091 0.859297
vt 0.379104 0.865329
vt 0.360146 0.856137
vt 0.359571 0.863605
vt 0.339908 0.862865
vt 0.342049 0.868776
vt 0.324286 0.871231
vn -0.1259841 -0.9879159 -0.0902793
vn 0.09270833 -0.9833156 -0.1565108
vn -0.103686 -0.9848887 0.1387206
vn 0.1099874 -0.9900441 0.08783744
vn -0.09498157 -0.8992653 0.4269665
vn 0.2137443 -0.9667977 -0.1400553
vn 0.2861386 -0.9135505 0.2890505
vn 0.2406188 -0.7880731 0.5666068
vn -0.1416756 -0.7349486 0.6631581
vn -0.4116599 -0.7450611 0.5248049
vn -0.1592703 -0.96236 0.2202186
vn 0.1361327 -0.6408654 0.7554862
vn 0.3511202 -0.735933 0.5788931
vn 0.1316289 -0.6276742 0.7672672
vn 0.4925359 -0.7930946 0.3583424
vn 0.2304432 -0.7196492 0.6549816
vn 0.09128969 -0.6527584 0.7520457
vn 0.07751416 -0.6033021 0.7937367
vn 0.2947958 -0.721958 0.6259968
vn 0.4753384 -0.8182538 0.3232865
vn -0.2597764 -0.9432338 0.2069448
vn -0.103686 -0.9848887 0.1387206
vn -0.4116599 -0.7450611 0.5248049
vn 0.2137443 -0.9667977 -0.1400553
vn -0.02654055 -0.9991534 0.03143481
vn 0.9317504 -0.1574169 -0.3272021
vn 0.8810775 -0.2553414 -0.3981246
vn 0.9418146 -0.1903356 -0.2770516
vn 0.8042262 -0.3304551 -0.4939836
vn 0.6554514 -0.5033865 -0.5630146
vn 0.5457287 -0.5466319 -0.6351171
vn 0.3405454 -0.6332986 -0.6949545
vn 0.2467751 -0.6874086 -0.6830605
vn 0.1632878 -0.7662446 -0.621455
vn 0.1769921 -0.7975265 -0.5767368
vn 0.1582866 -0.7877092 -0.5953651
vn 0.1571947 -0.7746128 -0.6125886
vn 0.09457366 -0.9307482 -0.3532189
vn -0.1362962 -0.9748015 -0.1765938
vn 0.05101689 -0.9924009 -0.1119717
vn -0.2066918 -0.9734581 0.09827409
vn 0.01195951 -0.9831762 0.1822675
vn -0.2641183 -0.8649453 0.4267449
vn 0.1765018 -0.9840248 -0.02328589
vn 0.1213566 -0.9022381 0.4138104
vn -0.02487627 -0.7415172 0.6704726
vn -0.4016843 -0.6691736 0.6251852
vn -0.597106 -0.7269186 0.3391956
vn -0.2800776 -0.9468369 0.1582922
vn -0.2352407 -0.522664 0.8194414
vn 0.07008664 -0.6743048 0.7351196
vn -0.2341206 -0.488238 0.8407207
vn 0.3022272 -0.7800099 0.5479448
vn -0.03602602 -0.6019077 0.7977526
vn -0.2448855 -0.4777824 0.8436557
vn -0.2044354 -0.4900563 0.8473789
vn 0.1221106 -0.598731 0.7915871
vn 0.3484955 -0.7521226 0.559341
vn -0.3669134 -0.9302345 0.006194369
vn -0.2066918 -0.9734581 0.09827409
vn 0.05101689 -0.9924009 -0.1119717
vn -0.10229 -0.99471 0.009427027
vn 0.9341601 -0.2180335 0.2825001
vn 0.8820425 -0.3817939 0.2761059
vn 0.9591556 -0.2188805 0.1791975
vn 0.816924 -0.544249 0.1908616
vn 0.7107475 -0.7032152 0.01806611
vn 0.6837477 -0.7074625 -0.1788457
vn 0.5794332 -0.7568244 -0.3024469
vn 0.4878496 -0.753588 -0.4405766
vn 0.3817857 -0.7718633 -0.5083961
vn 0.3449853 -0.7751722 -0.5292382
vn 0.3212923 -0.7963964 -0.5123709
vn 0.3209317 -0.8111469 -0.4889207
vn 0.1484653 -0.9515098 -0.2694197
vn 0.5094532 -0.8568794 0.0788375
vn 0.6190379 -0.7670131 0.1687687
vn 0.3184573 -0.9023877 0.2903126
vn 0.2276751 -0.9668996 0.1151922
vn -0.1398436 -0.9725325 0.1860761
vn 0.2034578 -0.9272389 0.3143771
vn 0.003786256 -0.896063 0.4439108
vn -0.2926084 -0.8107616 0.506997
vn 0.3373214 -0.7866935 0.5170375
vn 0.6583765 -0.5946482 0.4614478
vn -0.1279767 -0.6145152 0.7784556
vn -0.3497492 -0.5768417 0.7381931
vn 0.1788679 -0.6898745 0.7014838
vn -0.2535253 -0.4922391 0.8327218
vn -0.4109358 -0.5479813 0.7285933
vn -0.01773009 -0.470611 0.8821626
vn 0.6190379 -0.7670131 0.1687687
vn 0.431926 -0.8525312 0.2943305
vn 0.9317972 -0.3629566 -0.004041088
vn 0.8957752 -0.4367292 -0.08279061
vn 0.9553956 -0.2844478 0.07942797
vn 0.894114 -0.4396609 -0.08519673
vn 0.9010202 -0.4298124 -0.05851378
vn 0.9027823 -0.4281518 -0.04086838
vn 0.7178043 -0.688652 0.1025447
vn 0.9686731 -0.1994744 0.1479271
vn 0.9675162 -0.2010995 0.1532045
vn 0.005185193 -0.9185159 0.3953501
vn 0.002248169 -0.8851196 0.4653583
vn -0.2739262 -0.9340616 0.2291142
vn -0.08012527 -0.8891112 0.450623
vn -0.2359418 -0.8807234 0.4106797
vn 0.0316894 -0.9173549 0.3968069
vn 0.1367163 -0.857039 0.4967824
vn 0.2854994 -0.8788201 0.3823158
vn -0.1887532 -0.6414056 0.7436203
vn -0.385077 -0.6187593 0.6847281
vn -0.1255472 -0.870988 0.4749924
vn -0.1611799 -0.3666093 0.9163071
vn -0.3047242 -0.3395559 0.8898566
vn -0.1693857 -0.5504736 0.8174885
vn -0.1371166 -0.2595816 0.9559375
vn -0.4364751 -0.3751931 0.8177527
vn -0.4554974 -0.3565127 0.8157333
vn -0.6170806 -0.4750578 0.627321
vn -0.3850464 -0.2721989 0.8818431
vn -0.4269854 -0.3607504 0.8291818
vn -0.385077 -0.6187593 0.6847281
vn 0.02503215 -0.968652 0.2471569
vn -0.172261 -0.966126 0.1921633
vn -0.2609124 -0.8773265 0.4027692
vn -0.7090479 -0.6976619 -0.102562
vn -0.02311038 -0.0111533 0.9996707
vn -0.2716216 -0.1400113 0.9521651
vn -0.08337656 0.1679689 0.98226
vn -0.1364903 -0.2618032 0.9554211
vn -0.08337656 0.1679689 0.98226
vn -0.08006016 0.08035294 0.9935461
vn 0.2647246 0.419459 0.8683174
vn 0.9027217 -0.2397858 0.3572064
vn 0.7780957 -0.1799454 0.6018194
vn 0.6105161 0.01788116 0.791802
vn 0.9022977 -0.3943142 0.1742842
vn 0.9114249 -0.4052318 0.07135673
vn 0.9111167 -0.4076919 0.06044725
vn 0.9196545 -0.3844887 0.08002582
vn 0.6634334 -0.5713956 0.4830769
vn 0.6105161 0.01788116 0.791802
vn 0.5780905 -0.2256759 0.784144
vn 0.2974335 -0.01695055 0.954592
vn -0.02311038 -0.0111533 0.9996707
vn -0.8601707 -0.3685965 -0.3524812
vn -0.8465936 -0.4825351 -0.2245868
vn -0.7090479 -0.6976619 -0.102562
vn -0.7090479 -0.6976619 -0.102562
vn -0.8465936 -0.4825351 -0.2245868
vn -0.4692722 -0.8787525 0.08704907
vn -0.2623011 -0.8600249 0.4376704
vn -0.07701255 -0.8696578 0.4876111
vn -0.4120785 -0.7190034 0.5596656
vn -0.06191169 -0.8162425 0.5743824
vn -0.2631746 -0.716893 0.6456033
vn -0.5186073 -0.5236698 0.6758819
vn -0.778092 -0.3855546 0.4959038
vn -0.3807585 -0.7680543 0.5148935
vn -0.2119809 -0.5169225 0.8293704
vn -0.3049102 -0.2713718 0.9129004
vn -0.626719 -0.275092 0.7290732
vn -0.4620291 0.02577105 0.8864903
vn -0.193442 -0.1975838 0.9610103
vn -0.4268664 0.07168709 0.9014688
vn -0.02014712 -0.4340807 0.9006487
vn -0.307496 -0.1410408 0.9410387
vn -0.4567568 0.04054987 0.8886669
vn -0.4697169 0.02822111 0.8823659
vn -0.2246967 -0.237729 0.9449847
vn 0.01991664 -0.4933515 0.869602
vn -0.4154916 -0.8187484 0.396255
vn -0.5186073 -0.5236698 0.6758819
vn -0.396385 -0.6735078 0.6239119
vn 0.64406 -0.6990814 -0.3105991
vn 0.4122406 -0.9106523 -0.02774831
vn 0.5605815 -0.7951133 0.231394
vn 0.5106865 -0.8102623 -0.2875312
vn 0.1768264 -0.9804581 0.08622281
vn 0.7764541 -0.6273337 0.05976253
vn 0.7148462 -0.6354308 0.291929
vn 0.782698 -0.4978459 0.3735414
vn 0.8416659 -0.5354445 -0.06998407
vn 0.8467529 -0.3613276 0.390451
vn 0.8233025 -0.3515925 0.4455958
vn 0.2552505 -0.9663108 0.03302448
vn -0.04495582 -0.9733574 0.224843
vn 0.4844373 -0.8529217 -0.1945382
vn -0.120928 -0.950851 0.2850592
vn 0.01918343 -0.9715832 0.2359196
vn -0.03395397 -0.9367717 0.3482898
vn -0.1118844 -0.9218482 0.3710495
vn 0.6491102 -0.4833828 -0.5873644
vn 0.5595791 -0.7353463 -0.3822788
vn 0.64406 -0.6990814 -0.3105991
vn 0.7477326 -0.2760503 -0.6038975
vn 0.8768677 -0.383735 -0.2895696
vn 0.6304442 -0.5780219 -0.5181031
vn 0.5106865 -0.8102623 -0.2875312
vn 0.6491102 -0.4833828 -0.5873644
vn 0.4536514 -0.8678851 -0.2024249
vn 0.7466054 -0.4106414 -0.5234062
vn 0.6785432 -0.4958158 -0.5419832
vn 0.8760083 -0.2984095 -0.3788948
vn 0.9027298 -0.2883073 -0.3193083
vn 0.949683 -0.2047969 -0.2369819
vn 0.7477326 -0.2760503 -0.6038975
vn 0.8791378 -0.2510427 -0.4050856
vn 0.8135631 -0.08030979 -0.575904
vn 0.7753768 -0.1801156 -0.6052679
vn 0.7670991 -0.09045846 -0.6351191
vn -0.5726829 -0.6954126 0.4340919
vn -0.445385 -0.822056 0.354762
vn -0.5442203 -0.5980012 0.5884035
vn -0.3967942 -0.8214591 0.4095842
vn -0.4232716 -0.7220446 0.5472592
vn -0.4534172 -0.4911459 0.7437665
vn -0.2233907 -0.6957846 0.6826276
vn -0.2017291 -0.4922151 0.8467761
vn -0.402083 -0.2851763 0.8700597
vn -0.6362074 -0.539671 0.5513577
vn -0.223658 -0.1926846 0.9554317
vn -0.05351318 -0.4932921 0.8682162
vn -0.0367463 -0.1869183 0.981688
vn -0.05412217 -0.7155182 0.6964944
vn 0.06262457 -0.3891727 0.9190336
vn 0.04720029 -0.1710298 0.9841346
vn 0.07539948 -0.1629823 0.9837437
vn 0.09067208 -0.6029577 0.7926037
vn 0.04176228 -0.7623409 0.6458268
vn 0.06589025 -0.7860382 0.6146563
vn 0.5535711 -0.8156345 -0.1682242
vn 0.4019121 -0.9147016 0.04227909
vn 0.5477062 -0.8235372 0.1476634
vn 0.2925198 -0.8564309 -0.4253919
vn 0.04641613 -0.9978264 -0.04677537
vn -0.04651218 -0.8260154 -0.5617253
vn -0.1974182 -0.9118683 -0.3598917
vn -0.2070314 -0.7653648 -0.6093889
vn -0.3699165 -0.8712922 -0.3225085
vn -0.2705135 -0.7998877 -0.5357258
vn 0.3989276 -0.5880925 -0.7035652
vn 0.1222549 -0.569728 -0.8126892
vn -0.07793634 -0.5882292 -0.80493
vn -0.128336 -0.6030498 -0.7873124
vn 0.01223005 -0.5948857 -0.8037172
vn -0.4791045 -0.8734974 -0.08637812
vn -0.2735 -0.9354779 -0.2237829
vn -0.5493816 -0.8237724 0.1399243
vn -0.3384416 -0.8262227 -0.450348
vn -0.5057038 -0.8231113 0.2583628
vn 0.01223005 -0.5948857 -0.8037172
vn 0.1537941 -0.6649415 -0.7308899
vn -0.2156588 -0.7482388 -0.6273994
vn 0.1977308 -0.7578615 -0.6217302
vn -0.1195316 -0.8566311 -0.5018919
vn 0.2284172 -0.77619 -0.5876689
vn 0.2216395 -0.8257285 -0.5186987
vn -0.5378843 -0.7383589 0.4068252
vn -0.5726829 -0.6954126 0.4340919
vn -0.5159189 -0.8457487 0.1361501
vn -0.5661194 -0.5974119 0.5679859
vn -0.5442203 -0.5980012 0.5884035
vn -0.5822628 -0.1861227 0.7914092
vn -0.4534172 -0.4911459 0.7437665
vn -0.4949002 -0.8592373 -0.1295571
vn -0.2971436 -0.9452449 -0.1349733
vn -0.5055045 -0.8505234 0.1451732
vn -0.2669332 -0.957068 -0.1129933
vn -0.3662825 -0.9246513 0.1041983
vn -0.4597842 -0.7822146 0.4204032
vn -0.6688467 -0.5339111 0.5172843
vn -0.5495992 -0.8012083 0.2366558
vn -0.1548969 -0.9265487 0.342804
vn -0.09358178 -0.8129971 0.5746984
vn -0.4164051 -0.6331375 0.6524904
vn -0.09211217 -0.5960572 0.7976409
vn 0.0573564 -0.9467568 0.3167994
vn 0.04155732 -0.8272989 0.5602228
vn -0.03662375 -0.591133 0.8057423
vn -0.02918372 -0.7699444 0.6374431
vn -0.08009963 -0.5988229 0.7968659
vn -0.09861863 -0.6008292 0.7932708
vn -0.006892864 -0.8435296 0.5370383
vn 0.03788782 -0.9766798 0.2113315
vn -0.6260284 -0.7776691 0.05761272
vn -0.4597842 -0.7822146 0.4204032
vn -0.4577911 -0.8494705 0.2623492
vn 0.09562912 -0.2831514 -0.9542958
vn -0.1087911 -0.6112781 -0.7839028
vn 0.1486485 -0.7458548 -0.6493106
vn -0.06806343 -0.3765358 -0.9238983
vn -0.3234091 -0.7592972 -0.5646896
vn 0.3533314 -0.5284271 -0.7719598
vn 0.3707515 -0.7026402 -0.6073221
vn 0.5178855 -0.6813011 -0.5173233
vn 0.1179432 0.06513741 -0.9908817
vn -0.02241051 -0.2460661 -0.9689938
vn 0.09562912 -0.2831514 -0.9542958
vn 0.04298457 -0.04974333 -0.9978366
vn 0.2934951 0.2028207 -0.9341971
vn 0.4448329 -0.1165976 -0.8879913
vn -0.08522176 -0.3983698 -0.9132572
vn -0.06806343 -0.3765358 -0.9238983
vn 0.2328141 0.05512039 -0.9709579
vn 0.1146987 0.01719229 -0.9932515
vn 0.4375396 0.008417159 -0.8991597
vn 0.4734064 -0.0312793 -0.8802886
vn 0.5521938 -0.04046705 -0.8327332
vn -0.2949643 -0.7277521 -0.6191711
vn -0.4562304 -0.8209627 -0.3433277
vn -0.1434246 -0.5568424 -0.8181418
vn -0.370226 -0.8315377 -0.4140989
vn -0.5105749 -0.8322127 -0.2161835
vn -0.4562304 -0.8209627 -0.3433277
vn -0.3988947 -0.8081275 -0.4333739
vn -0.2949643 -0.7277521 -0.6191711
vn -0.3631358 -0.867355 -0.3403346
vn -0.3776332 -0.8007003 -0.4650507
vn 0.4108868 -0.3772614 -0.8299673
vn 0.5178855 -0.6813011 -0.5173233
vn 0.6413694 -0.6115227 -0.4633416
vn 0.6438872 -0.6445085 -0.4123324
vn 0.2934951 0.2028207 -0.9341971
vn 0.4748144 0.05650214 -0.8782704
vn 0.4503502 0.3025915 -0.8400137
vn 0.3619115 0.263541 -0.8941846
vn 0.3890449 0.3451259 -0.8541266
vn -0.1927038 -0.9417863 0.2755061
vn 0.01109261 -0.9611548 0.2757869
vn -0.2299851 -0.8311887 0.5061939
vn 0.1297565 -0.9414939 0.3110508
vn -0.1383031 -0.8916869 0.4310067
vn -0.02347024 -0.845209 0.5339203
vn -0.2299851 -0.8311887 0.5061939
vn -0.2467101 -0.5776756 0.7780906
vn 0.175887 -0.6697375 0.7214675
vn 0.1476447 -0.3847634 0.9111301
vn -0.321719 -0.2565958 0.911403
vn -0.5916958 -0.4186466 0.6889347
vn -0.2953758 -0.7742966 0.5596587
vn -0.02102346 -0.09595139 0.995164
vn 0.325758 -0.2950743 0.8982278
vn -0.0003104559 -0.013898 0.9999034
vn 0.4741359 -0.5425729 0.6934046
vn 0.1937319 -0.1925117 0.9619809
vn -0.03988474 -0.0093139 0.9991609
vn -0.04186413 -0.03102712 0.9986414
vn 0.298857 -0.2874839 0.9099657
vn 0.5619251 -0.5101272 0.6511608
vn -0.3905993 -0.7628759 0.5152209
vn -0.2299851 -0.8311887 0.5061939
vn 0.9727779 -0.2274945 -0.04415294
vn 0.9185804 -0.3872449 -0.07906723
vn 0.9754175 -0.2197954 0.01582897
vn 0.8215973 -0.5419506 -0.176826
vn 0.6541635 -0.7269074 -0.2089874
vn 0.5396741 -0.7637832 -0.3541005
vn 0.3682359 -0.8112624 -0.4541538
vn 0.2905784 -0.8521311 -0.4352433
vn 0.238423 -0.9224847 -0.3036058
vn 0.2494396 -0.9473245 -0.2008888
vn 0.2304026 -0.9436702 -0.2374894
vn 0.2391444 -0.9331984 -0.2682363
vn 0.08837591 -0.9950041 0.04643784
g Plants_Church2_mesh_1_0
f 3/3/3 2/2/2 1/1/1
f 5/5/5 4/4/4 3/3/3
f 3/3/3 4/4/4 6/6/6
f 5/5/5 7/7/7 4/4/4
f 8/8/8 7/7/7 5/5/5
f 9/9/9 8/8/8 5/5/5
f 9/9/9 5/5/5 10/10/10
f 10/10/10 5/5/5 11/11/11
f 12/12/12 8/8/8 9/9/9
f 12/12/12 13/13/13 8/8/8
f 14/14/14 13/13/13 12/12/12
f 8/8/8 15/15/15 7/7/7
f 13/13/13 15/15/15 8/8/8
f 14/14/14 16/16/16 13/13/13
f 17/17/17 16/16/16 14/14/14
f 17/17/17 18/18/18 16/16/16
f 16/16/16 18/18/18 19/19/19
f 16/16/16 19/19/19 20/20/20
f 13/13/13 20/20/20 15/15/15
f 16/16/16 20/20/20 13/13/13
f 23/23/23 22/22/22 21/21/21
f 25/25/25 24/24/24 2/2/2
f 28/28/28 27/27/27 26/26/26
f 26/26/26 27/27/27 29/29/29
f 27/27/27 30/30/30 29/29/29
f 29/29/29 30/30/30 31/31/31
f 30/30/30 32/32/32 31/31/31
f 31/31/31 32/32/32 33/33/33
f 32/32/32 34/34/34 33/33/33
f 33/33/33 34/34/34 35/35/35
f 34/34/34 36/36/36 35/35/35
f 35/35/35 36/36/36 37/37/37
f 36/36/36 38/38/38 37/37/37
f 41/41/41 40/40/40 39/39/39
f 43/43/43 42/42/42 41/41/41
f 41/41/41 42/42/42 44/44/44
f 43/43/43 45/45/45 42/42/42
f 46/46/46 45/45/45 43/43/43
f 47/47/47 46/46/46 43/43/43
f 47/47/47 43/43/43 48/48/48
f 48/48/48 43/43/43 49/49/49
f 50/50/50 46/46/46 47/47/47
f 50/50/50 51/51/51 46/46/46
f 52/52/52 51/51/51 50/50/50
f 46/46/46 53/53/53 45/45/45
f 51/51/51 53/53/53 46/46/46
f 52/52/52 54/54/54 51/51/51
f 55/55/55 54/54/54 52/52/52
f 55/55/55 56/56/56 54/54/54
f 54/54/54 56/56/56 57/57/57
f 54/54/54 57/57/57 58/58/58
f 51/51/51 58/58/58 53/53/53
f 54/54/54 58/58/58 51/51/51
f 48/48/48 60/60/60 59/59/59
f 62/62/62 44/44/44 61/61/61
f 65/65/65 64/64/64 63/63/63
f 63/63/63 64/64/64 66/66/66
f 64/64/64 67/67/67 66/66/66
f 66/66/66 67/67/67 68/68/68
f 67/67/67 69/69/69 68/68/68
f 68/68/68 69/69/69 70/70/70
f 69/69/69 71/71/71 70/70/70
f 70/70/70 71/71/71 72/72/72
f 71/71/71 73/73/73 72/72/72
f 72/72/72 73/73/73 74/74/74
f 73/73/73 75/75/75 74/74/74
f 78/78/78 77/77/77 76/76/76
f 80/80/80 78/78/78 79/79/79
f 80/80/80 82/82/82 81/81/81
f 83/83/83 82/82/82 80/80/80
f 82/82/82 84/84/84 78/78/78
f 78/78/78 84/84/84 85/85/85
f 83/83/83 86/86/86 82/82/82
f 87/87/87 86/86/86 83/83/83
f 82/82/82 88/88/88 84/84/84
f 86/86/86 88/88/88 82/82/82
f 87/87/87 89/89/89 86/86/86
f 90/90/90 89/89/89 87/87/87
f 86/86/86 91/91/91 88/88/88
f 89/89/89 91/91/91 86/86/86
f 93/93/93 85/85/85 92/92/92
f 96/96/96 95/95/95 94/94/94
f 94/94/94 95/95/95 97/97/97
f 95/95/95 98/98/98 97/97/97
f 97/97/97 98/98/98 99/99/99
f 98/98/98 100/100/100 99/99/99
f 101/101/101 96/96/96 94/94/94
f 102/102/102 96/96/96 101/101/101
f 105/105/105 104/104/104 103/103/103
f 105/105/105 106/106/106 104/104/104
f 107/107/107 106/106/106 105/105/105
f 106/106/106 108/108/108 104/104/104
f 104/104/104 108/108/108 109/109/109
f 104/104/104 109/109/109 110/110/110
f 107/107/107 111/111/111 106/106/106
f 112/112/112 111/111/111 107/107/107
f 106/106/106 113/113/113 108/108/108
f 111/111/111 113/113/113 106/106/106
f 111/111/111 114/114/114 113/113/113
f 115/115/115 114/114/114 111/111/111
f 116/116/116 115/115/115 111/111/111
f 115/115/115 117/117/117 114/114/114
f 118/118/118 117/117/117 115/115/115
f 118/118/118 119/119/119 117/117/117
f 118/118/118 120/120/120 119/119/119
f 121/121/121 120/120/120 118/118/118
f 122/122/122 118/118/118 115/115/115
f 121/121/121 118/118/118 122/122/122
f 122/122/122 115/115/115 123/123/123
f 109/109/109 108/108/108 124/124/124
f 103/103/103 109/109/109 124/124/124
f 124/124/124 108/108/108 125/125/125
f 108/108/108 126/126/126 125/125/125
f 125/125/125 126/126/126 127/127/127
f 130/130/130 129/129/129 128/128/128
f 129/129/129 131/131/131 128/128/128
f 134/134/134 133/133/133 132/132/132
f 137/137/137 136/136/136 135/135/135
f 136/136/136 138/138/138 135/135/135
f 135/135/135 138/138/138 139/139/139
f 138/138/138 140/140/140 139/139/139
f 139/139/139 140/140/140 141/141/141
f 140/140/140 142/142/142 141/141/141
f 145/145/145 144/144/144 143/143/143
f 146/146/146 145/145/145 143/143/143
f 149/149/149 148/148/148 147/147/147
f 152/152/152 151/151/151 150/150/150
f 155/155/155 154/154/154 153/153/153
f 155/155/155 156/156/156 154/154/154
f 155/155/155 157/157/157 156/156/156
f 158/158/158 157/157/157 155/155/155
f 159/159/159 158/158/158 155/155/155
f 159/159/159 155/155/155 160/160/160
f 158/158/158 161/161/161 157/157/157
f 162/162/162 161/161/161 158/158/158
f 163/163/163 162/162/162 158/158/158
f 164/164/164 162/162/162 163/163/163
f 164/164/164 165/165/165 162/162/162
f 166/166/166 165/165/165 164/164/164
f 162/162/162 167/167/167 161/161/161
f 165/165/165 167/167/167 162/162/162
f 166/166/166 168/168/168 165/165/165
f 169/169/169 168/168/168 166/166/166
f 169/169/169 170/170/170 168/168/168
f 168/168/168 170/170/170 171/171/171
f 168/168/168 171/171/171 172/172/172
f 165/165/165 172/172/172 167/167/167
f 168/168/168 172/172/172 165/165/165
f 175/175/175 174/174/174 173/173/173
f 178/178/178 177/177/177 176/176/176
f 176/176/176 177/177/177 179/179/179
f 177/177/177 180/180/180 179/179/179
f 181/181/181 178/178/178 176/176/176
f 183/183/183 178/178/178 182/182/182
f 185/185/185 183/183/183 184/184/184
f 186/186/186 183/183/183 185/185/185
f 189/189/189 188/188/188 187/187/187
f 188/188/188 190/190/190 187/187/187
f 187/187/187 190/190/190 191/191/191
f 190/190/190 192/192/192 191/191/191
f 191/191/191 153/153/153 193/193/193
f 196/196/196 195/195/195 194/194/194
f 197/197/197 196/196/196 194/194/194
f 198/198/198 196/196/196 197/197/197
f 201/201/201 200/200/200 199/199/199
f 200/200/200 202/202/202 199/199/199
f 199/199/199 204/204/204 203/203/203
f 204/204/204 205/205/205 203/203/203
f 203/203/203 205/205/205 206/206/206
f 205/205/205 207/207/207 206/206/206
f 210/210/210 209/209/209 208/208/208
f 212/212/212 211/211/211 210/210/210
f 215/215/215 214/214/214 213/213/213
f 215/215/215 216/216/216 214/214/214
f 215/215/215 217/217/217 216/216/216
f 218/218/218 217/217/217 215/215/215
f 218/218/218 219/219/219 217/217/217
f 220/220/220 219/219/219 218/218/218
f 221/221/221 220/220/220 218/218/218
f 221/221/221 218/218/218 222/222/222
f 223/223/223 220/220/220 221/221/221
f 223/223/223 224/224/224 220/220/220
f 225/225/225 224/224/224 223/223/223
f 220/220/220 226/226/226 219/219/219
f 224/224/224 226/226/226 220/220/220
f 225/225/225 227/227/227 224/224/224
f 228/228/228 227/227/227 225/225/225
f 228/228/228 229/229/229 227/227/227
f 227/227/227 229/229/229 230/230/230
f 227/227/227 230/230/230 231/231/231
f 224/224/224 231/231/231 226/226/226
f 227/227/227 231/231/231 224/224/224
f 231/231/231 230/230/230 232/232/232
f 235/235/235 234/234/234 233/233/233
f 233/233/233 234/234/234 236/236/236
f 234/234/234 237/237/237 236/236/236
f 236/236/236 237/237/237 238/238/238
f 237/237/237 239/239/239 238/238/238
f 238/238/238 239/239/239 240/240/240
f 239/239/239 241/241/241 240/240/240
f 240/240/240 241/241/241 242/242/242
f 233/233/233 236/236/236 243/243/243
f 243/243/243 236/236/236 244/244/244
f 236/236/236 238/238/238 244/244/244
f 238/238/238 240/240/240 245/245/245
f 244/244/244 238/238/238 245/245/245
f 245/245/245 240/240/240 246/246/246
f 240/240/240 242/242/242 246/246/246
f 246/246/246 242/242/242 247/247/247
f 241/241/241 248/248/248 242/242/242
f 251/251/251 250/250/250 249/249/249
f 250/250/250 252/252/252 249/249/249
f 255/255/255 254/254/254 253/253/253
f 253/253/253 257/257/257 256/256/256
f 257/257/257 258/258/258 256/256/256
f 256/256/256 258/258/258 259/259/259
f 262/262/262 261/261/261 260/260/260
f 265/265/265 264/264/264 263/263/263
f 265/265/265 266/266/266 264/264/264
f 269/269/269 268/268/268 267/267/267
f 269/269/269 270/270/270 268/268/268
f 269/269/269 271/271/271 270/270/270
f 272/272/272 271/271/271 269/269/269
f 273/273/273 272/272/272 269/269/269
f 273/273/273 269/269/269 274/274/274
f 272/272/272 275/275/275 271/271/271
f 276/276/276 275/275/275 272/272/272
f 277/277/277 276/276/276 272/272/272
f 278/278/278 276/276/276 277/277/277
f 276/276/276 279/279/279 275/275/275
f 280/280/280 279/279/279 276/276/276
f 278/278/278 280/280/280 276/276/276
f 281/281/281 280/280/280 278/278/278
f 281/281/281 282/282/282 280/280/280
f 283/283/283 282/282/282 281/281/281
f 283/283/283 284/284/284 282/282/282
f 282/282/282 284/284/284 285/285/285
f 282/282/282 285/285/285 286/286/286
f 280/280/280 286/286/286 279/279/279
f 282/282/282 286/286/286 280/280/280
f 289/289/289 288/288/288 287/287/287
f 292/292/292 291/291/291 290/290/290
f 290/290/290 291/291/291 293/293/293
f 291/291/291 294/294/294 293/293/293
f 295/295/295 292/292/292 290/290/290
f 297/297/297 292/292/292 296/296/296
f 300/300/300 299/299/299 298/298/298
f 298/298/298 299/299/299 301/301/301
f 302/302/302 300/300/300 298/298/298
f 303/303/303 300/300/300 302/302/302
f 305/305/305 304/304/304 301/301/301
f 301/301/301 307/307/307 306/306/306
f 307/307/307 308/308/308 306/306/306
f 306/306/306 308/308/308 309/309/309
f 308/308/308 310/310/310 309/309/309
f 313/313/313 312/312/312 311/311/311
f 316/316/316 315/315/315 314/314/314
f 318/318/318 315/315/315 317/317/317
f 315/315/315 319/319/319 317/317/317
f 317/317/317 319/319/319 320/320/320
f 323/323/323 322/322/322 321/321/321
f 324/324/324 322/322/322 323/323/323
f 327/327/327 326/326/326 325/325/325
f 329/329/329 328/328/328 327/327/327
f 332/332/332 331/331/331 330/330/330
f 334/334/334 333/333/333 331/331/331
f 336/336/336 335/335/335 333/333/333
f 337/337/337 335/335/335 336/336/336
f 337/337/337 338/338/338 335/335/335
f 339/339/339 338/338/338 337/337/337
f 340/340/340 339/339/339 337/337/337
f 340/340/340 337/337/337 341/341/341
f 341/341/341 337/337/337 342/342/342
f 343/343/343 339/339/339 340/340/340
f 343/343/343 344/344/344 339/339/339
f 345/345/345 344/344/344 343/343/343
f 339/339/339 346/346/346 338/338/338
f 344/344/344 346/346/346 339/339/339
f 345/345/345 347/347/347 344/344/344
f 348/348/348 347/347/347 345/345/345
f 348/348/348 349/349/349 347/347/347
f 347/347/347 349/349/349 350/350/350
f 347/347/347 350/350/350 351/351/351
f 344/344/344 351/351/351 346/346/346
f 347/347/347 351/351/351 344/344/344
f 341/341/341 353/353/353 352/352/352
f 356/356/356 355/355/355 354/354/354
f 354/354/354 355/355/355 357/357/357
f 355/355/355 358/358/358 357/357/357
f 357/357/357 358/358/358 359/359/359
f 358/358/358 360/360/360 359/359/359
f 359/359/359 360/360/360 361/361/361
f 360/360/360 362/362/362 361/361/361
f 361/361/361 362/362/362 363/363/363
f 362/362/362 364/364/364 363/363/363
f 363/363/363 364/364/364 365/365/365
f 364/364/364 366/366/366 365/365/365
