g polySurface61
v 487.1275 49.00994 -188.5158
v 491.2395 48.6484 -183.231
v 489.5216 59.2972 -194.0807
v 489.5216 59.2972 -194.0807
v 491.2395 48.6484 -183.231
v 492.5308 61.17675 -187.2321
v 489.5216 59.2972 -194.0807
v 492.746 69.06097 -195.8057
v 496.3847 72.28593 -190.0314
v 486.9399 70.8792 -198.8994
v 490.1566 63.57467 -181.0367
v 495.0789 77.85336 -184.9398
v 486.491 67.29697 -177.4619
v 499.424 82.84216 -203.1198
v 502.2019 85.55559 -199.2655
v 494.6043 85.03549 -205.9397
v 502.467 91.1745 -195.2592
v 504.2276 91.50446 -211.1332
v 507.1797 94.08878 -209.0877
v 501.0074 92.87663 -213.5863
v 508.3374 99.15302 -207.6364
v 509.7415 97.09351 -215.8803
v 510.8167 100.4315 -215.3259
v 512.1668 95.26178 -223.2865
v 510.9192 94.36491 -223.5648
v 507.6888 95.39746 -217.1145
v 507.6888 95.39746 -217.1145
v 513.1402 97.34951 -222.613
v 512.3088 96.78393 -225.0989
v 505.6048 96.40955 -218.7231
v 499.7373 97.27229 -213.9373
v 504.8632 99.41308 -219.4789
v 505.6048 96.40955 -218.7231
v 505.6048 96.40955 -218.7231
v 509.0026 96.04341 -224.6731
v 512.3088 96.78393 -225.0989
v 510.9192 94.36491 -223.5648
v 491.3951 90.71464 -204.859
v 486.9399 70.8792 -198.8994
v 483.425 61.56892 -196.0153
v 487.1275 49.00994 -188.5158
v 489.5216 59.2972 -194.0807
v 479.1487 50.27289 -192.53
v 487.1275 49.00994 -188.5158
v 483.425 61.56892 -196.0153
v 483.425 61.56892 -196.0153
v 489.5216 59.2972 -194.0807
v 486.9399 70.8792 -198.8994
v 510.2307 94.86658 -224.2884
v 507.6888 95.39746 -217.1145
v 510.9192 94.36491 -223.5648
v 505.6048 96.40955 -218.7231
v 507.6888 95.39746 -217.1145
v 510.2307 94.86658 -224.2884
v 505.6048 96.40955 -218.7231
v 504.2276 91.50446 -211.1332
v 507.6888 95.39746 -217.1145
v 509.0026 96.04341 -224.6731
v 505.6048 96.40955 -218.7231
v 510.2307 94.86658 -224.2884
v 510.2307 94.86658 -224.2884
v 510.9192 94.36491 -223.5648
v 512.3088 96.78393 -225.0989
v 510.2307 94.86658 -224.2884
v 512.3088 96.78393 -225.0989
v 509.0026 96.04341 -224.6731
v 483.5956 76.55033 -195.6435
v 486.9399 70.8792 -198.8994
v 491.3951 90.71464 -204.859
v 475.6174 53.32946 -189.6147
v 479.1487 50.27289 -192.53
v 479.4486 64.75098 -191.3722
v 483.425 61.56892 -196.0153
v 477.6038 67.95952 -184.1104
v 472.8188 53.46178 -183.281
v 481.0548 68.67507 -178.4944
v 476.4142 51.36307 -174.0253
v 486.491 67.29697 -177.4619
v 483.9114 50.80184 -173.5051
v 483.5956 76.55033 -195.6435
v 482.9822 82.42191 -189.5583
v 486.7983 84.94369 -184.236
v 491.9786 83.16856 -182.9239
v 491.6784 96.53138 -200.6256
v 491.3951 90.71464 -204.859
v 495.2577 98.72471 -196.0955
v 499.2502 96.72376 -194.4787
v 500.9272 102.4183 -212.4749
v 499.7373 97.27229 -213.9373
v 503.7951 105.0595 -210.0115
v 506.8923 103.7539 -208.3551
v 508.3374 99.15302 -207.6364
v 502.467 91.1745 -195.2592
v 495.0789 77.85336 -184.9398
v 505.9171 102.7191 -218.9225
v 504.8632 99.41308 -219.4789
v 510.3497 98.73225 -224.8506
v 509.0026 96.04341 -224.6731
v 511.6839 100.1711 -224.4625
v 508.1571 104.3764 -217.3943
v 510.1361 103.5848 -216.07
v 508.1571 104.3764 -217.3943
v 512.966 99.33639 -223.5068
v 513.1402 97.34951 -222.613
v 510.8167 100.4315 -215.3259
v 512.3088 96.78393 -225.0989
v 512.3088 96.78393 -225.0989
v 511.6839 100.1711 -224.4625
v 490.1566 63.57467 -181.0367
v 488.6267 49.58737 -177.5579
v 492.5308 61.17675 -187.2321
v 491.2395 48.6484 -183.231
v 483.425 61.56892 -196.0153
v 486.9399 70.8792 -198.8994
v 508.1571 104.3764 -217.3943
v 505.9171 102.7191 -218.9225
v 511.6839 100.1711 -224.4625
v 512.966 99.33639 -223.5068
v 508.1571 104.3764 -217.3943
v 511.6839 100.1711 -224.4625
v 512.3088 96.78393 -225.0989
v 512.966 99.33639 -223.5068
v 511.6839 100.1711 -224.4625
v 466.968 48.89434 -200.9386
v 470.2542 48.47686 -196.929
v 468.9286 58.37506 -206.0928
v 467.0611 69.08714 -209.8
v 471.5951 67.33345 -208.0007
v 473.2933 82.54703 -218.9387
v 478.1809 80.41125 -216.7386
v 474.5929 70.21279 -203.4446
v 471.4303 60.01452 -200.5083
v 468.9286 58.37506 -206.0928
v 470.2542 48.47686 -196.929
v 469.7458 62.18768 -194.6547
v 473.7805 75.29851 -198.6927
v 467.0354 65.61324 -190.8925
v 481.323 82.80798 -213.3718
v 482.257 88.81799 -210.8899
v 480.6926 88.00445 -222.9437
v 483.4915 90.22543 -221.3788
v 478.1753 89.32315 -224.5639
v 478.1753 89.32315 -224.5639
v 484.5132 94.85046 -220.248
v 485.5749 93.07764 -227.3726
v 486.4813 96.12347 -227.0434
v 487.4257 91.38226 -234.1478
v 483.4088 91.68522 -228.3492
v 488.2356 93.28603 -233.6819
v 486.9107 93.02753 -235.9011
v 487.4257 91.38226 -234.1478
v 477.134 93.53216 -224.9579
v 470.4538 87.80915 -217.6285
v 467.0611 69.08714 -209.8
v 478.1753 89.32315 -224.5639
v 480.8154 95.61867 -230.6357
v 481.3509 92.85012 -230.096
v 484.1354 92.42638 -235.0579
v 478.1753 89.32315 -224.5639
v 481.3509 92.85012 -230.096
v 480.6926 88.00445 -222.9437
v 464.199 60.53838 -206.8208
v 466.968 48.89434 -200.9386
v 468.9286 58.37506 -206.0928
v 467.0611 69.08714 -209.8
v 485.8113 90.80412 -234.3619
v 485.5749 93.07764 -227.3726
v 487.4257 91.38226 -234.1478
v 483.4088 91.68522 -228.3492
v 485.8113 90.80412 -234.3619
v 485.2727 91.27814 -234.8861
v 483.4088 91.68522 -228.3492
v 485.8113 90.80412 -234.3619
v 481.3509 92.85012 -230.096
v 483.4088 91.68522 -228.3492
v 485.2727 91.27814 -234.8861
v 481.3509 92.85012 -230.096
v 480.6926 88.00445 -222.9437
v 483.4088 91.68522 -228.3492
v 484.1354 92.42638 -235.0579
v 481.3509 92.85012 -230.096
v 485.2727 91.27814 -234.8861
v 485.2727 91.27814 -234.8861
v 485.8113 90.80412 -234.3619
v 486.9107 93.02753 -235.9011
v 487.4257 91.38226 -234.1478
v 485.2727 91.27814 -234.8861
v 486.9107 93.02753 -235.9011
v 484.1354 92.42638 -235.0579
v 464.6328 74.30364 -206.346
v 467.0611 69.08714 -209.8
v 470.4538 87.80915 -217.6285
v 460.7173 50.16646 -203.2167
v 466.968 48.89434 -200.9386
v 464.199 60.53838 -206.8208
v 458.086 52.98454 -200.064
v 460.7173 50.16646 -203.2167
v 461.2561 63.4611 -202.0757
v 464.199 60.53838 -206.8208
v 460.0184 66.36503 -195.356
v 456.0296 53.07819 -194.0489
v 462.818 66.94106 -190.9393
v 464.6328 74.30364 -206.346
v 467.0611 69.08714 -209.8
v 464.383 79.65369 -200.8233
v 467.4965 81.88893 -196.7012
v 467.4965 81.88893 -196.7012
v 471.3135 93.09679 -213.6822
v 470.4538 87.80915 -217.6285
v 475.2904 94.99284 -209.7599
v 478.1775 98.22472 -223.852
v 480.6332 100.4437 -221.7917
v 480.6332 100.4437 -221.7917
v 477.134 93.53216 -224.9579
v 481.7032 98.63311 -230.3112
v 483.931 99.91779 -228.6417
v 480.6332 100.4437 -221.7917
v 480.8154 95.61867 -230.6357
v 485.2321 94.88644 -235.3927
v 486.5033 96.14127 -235.2041
v 484.1354 92.42638 -235.0579
v 458.953 51.03455 -186.4819
v 462.818 66.94106 -190.9393
v 467.4965 81.88893 -196.7012
v 475.2904 94.99284 -209.7599
v 479.2515 93.06377 -208.6037
v 467.4965 81.88893 -196.7012
v 475.2904 94.99284 -209.7599
v 471.5122 80.19627 -196.3729
v 467.4965 81.88893 -196.7012
v 479.2515 93.06377 -208.6037
v 482.257 88.81799 -210.8899
v 473.7805 75.29851 -198.6927
v 467.0354 65.61324 -190.8925
v 462.818 66.94106 -190.9393
v 458.953 51.03455 -186.4819
v 464.7789 50.44225 -187.1976
v 469.7458 62.18768 -194.6547
v 468.3458 49.31584 -191.5153
v 471.4303 60.01452 -200.5083
v 470.2542 48.47686 -196.929
v 484.5132 94.85046 -220.248
v 483.0476 99.2029 -220.8162
v 475.2904 94.99284 -209.7599
v 480.6332 100.4437 -221.7917
v 485.9943 99.02586 -227.5941
v 486.4813 96.12347 -227.0434
v 488.2356 93.28603 -233.6819
v 485.9943 99.02586 -227.5941
v 488.1228 95.12168 -234.419
v 486.9107 93.02753 -235.9011
v 488.1228 95.12168 -234.419
v 471.5122 80.19627 -196.3729
v 462.818 66.94106 -190.9393
v 467.4965 81.88893 -196.7012
v 483.931 99.91779 -228.6417
v 481.7032 98.63311 -230.3112
v 486.5033 96.14127 -235.2041
v 488.1228 95.12168 -234.419
v 483.931 99.91779 -228.6417
v 486.5033 96.14127 -235.2041
v 485.9943 99.02586 -227.5941
v 483.931 99.91779 -228.6417
v 488.1228 95.12168 -234.419
v 485.9943 99.02586 -227.5941
v 480.6332 100.4437 -221.7917
v 484.1354 92.42638 -235.0579
v 486.9107 93.02753 -235.9011
v 485.2321 94.88644 -235.3927
v 486.5033 96.14127 -235.2041
v 486.9107 93.02753 -235.9011
v 488.1228 95.12168 -234.419
v 486.5033 96.14127 -235.2041
v 438.6488 47.0282 -213.7063
v 444.783 47.16271 -208.6526
v 443.9602 63.52473 -218.957
v 443.9602 63.52473 -218.957
v 444.783 47.16271 -208.6526
v 449.1522 65.25795 -213.2997
v 444.2387 48.44349 -200.3518
v 449.4936 67.93713 -205.0914
v 440.9979 50.13627 -193.5702
v 448.8658 83.134 -227.5487
v 453.6656 84.39193 -222.8652
v 453.6656 84.39193 -222.8652
v 454.3902 87.74607 -215.1154
v 458.8302 91.94622 -229.3262
v 458.8302 91.94622 -229.3262
v 460.7578 100.6552 -226.313
v 455.0589 100.6047 -240.7297
v 458.8755 99.33889 -234.792
v 458.8954 102.607 -237.2083
v 462.1934 105.279 -229.8148
v 460.0652 107.5432 -231.9297
v 464.9456 115.3253 -256.1371
v 465.847 118.882 -252.3003
v 468.5541 119.1579 -269.3811
v 465.9885 117.9887 -271.0769
v 469.5817 121.2744 -281.2752
v 469.4306 122.0606 -267.0602
v 471.1676 122.3628 -280.5948
v 469.5817 121.2744 -281.2752
v 472.0748 124.8412 -279.5292
v 448.8658 83.134 -227.5487
v 449.1522 65.25795 -213.2997
v 453.6656 84.39193 -222.8652
v 452.8919 94.49169 -236.1176
v 445.552 99.45249 -238.2594
v 449.1731 103.4291 -241.4694
v 455.0589 100.6047 -240.7297
v 458.8302 91.94622 -229.3262
v 453.6656 84.39193 -222.8652
v 449.1731 103.4291 -241.4694
v 455.0589 100.6047 -240.7297
v 457.2502 115.7951 -259.1283
v 461.5992 113.7205 -258.5701
v 455.1473 119.6105 -256.6309
v 445.8425 108.9315 -238.244
v 461.1616 122.706 -270.1745
v 462.7987 119.5497 -271.5093
v 461.5992 113.7205 -258.5701
v 467.6138 124.1971 -281.1154
v 468.3135 122.164 -281.5257
v 465.9885 117.9887 -271.0769
v 455.0589 100.6047 -240.7297
v 458.8954 102.607 -237.2083
v 461.5992 113.7205 -258.5701
v 461.5992 113.7205 -258.5701
v 464.9456 115.3253 -256.1371
v 465.9885 117.9887 -271.0769
v 468.3135 122.164 -281.5257
v 465.9885 117.9887 -271.0769
v 469.5817 121.2744 -281.2752
v 468.3135 122.164 -281.5257
v 469.5817 121.2744 -281.2752
v 470.6685 125.9393 -282.5659
v 470.6685 125.9393 -282.5659
v 469.5817 121.2744 -281.2752
v 471.1676 122.3628 -280.5948
v 430.9357 48.02124 -213.1405
v 438.6488 47.0282 -213.7063
v 436.6411 66.768 -218.2475
v 443.9602 63.52473 -218.957
v 441.9655 85.9008 -227.4518
v 438.4919 90.29855 -221.9579
v 433.2615 70.68898 -212.2643
v 442.1712 104.5683 -234.2403
v 445.552 99.45249 -238.2594
v 448.8658 83.134 -227.5487
v 441.9655 85.9008 -227.4518
v 443.9602 63.52473 -218.957
v 448.8658 83.134 -227.5487
v 427.607 49.96488 -205.3394
v 430.9357 48.02124 -213.1405
v 433.2615 70.68898 -212.2643
v 432.7325 74.14565 -204.8175
v 427.1652 51.13087 -197.2378
v 438.536 74.60933 -199.4105
v 433.2976 51.2494 -192.2804
v 438.5544 93.75756 -214.6424
v 444.0567 94.2919 -209.33
v 438.5544 93.75756 -214.6424
v 445.2377 72.61526 -199.9141
v 440.9979 50.13627 -193.5702
v 449.4936 67.93713 -205.0914
v 450.2544 92.2487 -210.0559
v 454.3902 87.74607 -215.1154
v 456.5249 105.3435 -221.9807
v 460.7578 100.6552 -226.313
v 462.1934 105.279 -229.8148
v 449.1989 107.9074 -222.018
v 456.7231 113.0034 -228.7505
v 451.9666 115.2356 -228.847
v 442.9427 108.9483 -228.2921
v 438.5544 93.75756 -214.6424
v 446.9955 113.8072 -233.0316
v 442.1712 104.5683 -234.2403
v 438.4919 90.29855 -221.9579
v 438.5544 93.75756 -214.6424
v 445.8425 108.9315 -238.244
v 445.552 99.45249 -238.2594
v 449.1731 103.4291 -241.4694
v 456.0416 123.167 -252.7984
v 455.1473 119.6105 -256.6309
v 459.4142 124.3811 -249.8728
v 463.4008 122.8635 -249.9871
v 456.7231 113.0034 -228.7505
v 465.847 118.882 -252.3003
v 460.0652 107.5432 -231.9297
v 462.0344 125.6085 -267.8557
v 461.1616 122.706 -270.1745
v 468.5207 126.6754 -280.0501
v 467.6138 124.1971 -281.1154
v 469.7516 127.8846 -279.1467
v 464.9085 126.5572 -265.9095
v 469.7516 127.8846 -279.1467
v 467.7905 125.2167 -265.7272
v 471.3749 126.8741 -279.119
v 469.7516 127.8846 -279.1467
v 472.0748 124.8412 -279.5292
v 469.4306 122.0606 -267.0602
v 470.6685 125.9393 -282.5659
v 470.6685 125.9393 -282.5659
v 462.1934 105.279 -229.8148
v 456.7231 113.0034 -228.7505
v 470.6685 125.9393 -282.5659
v 471.1676 122.3628 -280.5948
v 458.8954 102.607 -237.2083
v 462.1934 105.279 -229.8148
v 430.9357 48.02124 -213.1405
v 436.6411 66.768 -218.2475
v 462.1934 105.279 -229.8148
v 456.5249 105.3435 -221.9807
v 456.7231 113.0034 -228.7505
v 470.6685 125.9393 -282.5659
v 471.3749 126.8741 -279.119
v 469.7516 127.8846 -279.1467
v 468.5207 126.6754 -280.0501
v 470.6685 125.9393 -282.5659
v 469.7516 127.8846 -279.1467
v 468.3135 122.164 -281.5257
v 470.6685 125.9393 -282.5659
v 467.6138 124.1971 -281.1154
v 458.8302 91.94622 -229.3262
v 460.7578 100.6552 -226.313
v 458.8755 99.33889 -234.792
v 418.4472 46.43515 -218.4268
v 423.1821 47.98042 -212.2544
v 420.3392 62.15392 -223.2956
v 425.1049 64.45615 -217.7817
v 415.0623 63.6083 -224.1055
v 422.4773 73.13171 -227.6173
v 426.4665 75.79989 -222.5245
v 417.2473 73.97359 -229.0934
v 425.3732 84.07723 -233.8736
v 429.4603 87.18224 -231.4459
v 421.6824 85.34972 -235.5664
v 426.6784 79.42491 -217.1028
v 430.5129 92.71207 -228.7358
v 427.9243 91.9212 -241.1281
v 431.5169 94.12244 -238.8981
v 424.7073 93.13853 -242.5302
v 432.2152 98.03466 -235.9827
v 432.9402 98.81176 -244.0535
v 431.2361 96.97636 -245.4077
v 431.2361 96.97636 -245.4077
v 432.4089 101.7116 -251.2873
v 433.3159 102.7676 -250.6703
v 427.4042 97.83995 -246.1719
v 431.2037 102.5071 -251.9885
v 425.7184 101.0306 -246.3002
v 429.7282 103.2756 -251.5688
v 431.2037 102.5071 -251.9885
v 422.8063 96.70268 -241.4102
v 421.6824 85.34972 -235.5664
v 421.6824 85.34972 -235.5664
v 432.849 102.3865 -242.9402
v 434.3614 104.5938 -249.0219
v 418.582 90.30827 -234.3063
v 421.6824 85.34972 -235.5664
v 417.2473 73.97359 -229.0934
v 411.6208 46.70671 -220.7355
v 415.0623 63.6083 -224.1055
v 415.0623 63.6083 -224.1055
v 420.3392 62.15392 -223.2956
v 417.2473 73.97359 -229.0934
v 431.2037 102.5071 -251.9885
v 431.2361 96.97636 -245.4077
v 432.4089 101.7116 -251.2873
v 413.7897 77.68416 -224.6797
v 417.2473 73.97359 -229.0934
v 418.582 90.30827 -234.3063
v 415.0623 63.6083 -224.1055
v 411.8216 66.39022 -219.4585
v 415.0623 63.6083 -224.1055
v 412.7122 81.69834 -218.1748
v 410.4656 69.50534 -212.8362
v 411.6208 46.70671 -220.7355
v 415.0623 63.6083 -224.1055
v 408.167 50.59693 -215.5862
v 406.3129 51.03994 -207.9721
v 408.167 50.59693 -215.5862
v 410.4656 69.50534 -212.8362
v 411.8216 66.39022 -219.4585
v 413.5357 70.72448 -208.4428
v 406.3129 51.03994 -207.9721
v 415.7173 83.86288 -213.6357
v 415.7173 83.86288 -213.6357
v 412.7122 81.69834 -218.1748
v 415.7173 83.86288 -213.6357
v 420.8492 98.55557 -227.5968
v 420.8492 98.55557 -227.5968
v 418.4879 95.84468 -230.8239
v 413.7897 77.68416 -224.6797
v 418.582 90.30827 -234.3063
v 422.9697 101.0542 -239.0776
v 422.8063 96.70268 -241.4102
v 425.1699 103.2028 -236.5527
v 425.1699 103.2028 -236.5527
v 426.0534 104.3901 -244.989
v 425.7184 101.0306 -246.3002
v 430.1676 106.1122 -250.3481
v 429.7282 103.2756 -251.5688
v 427.8864 106.1573 -243.3958
v 431.6497 106.8962 -249.0295
v 411.414 50.23489 -202.9854
v 406.3129 51.03994 -207.9721
v 413.5357 70.72448 -208.4428
v 420.2242 69.98589 -208.361
v 421.4946 83.21554 -213.6087
v 415.7173 83.86288 -213.6357
v 426.6784 79.42491 -217.1028
v 424.9334 66.51172 -212.0907
v 416.7457 50.00936 -203.427
v 421.3358 48.88146 -206.8273
v 426.4665 75.79989 -222.5245
v 425.1049 64.45615 -217.7817
v 423.1821 47.98042 -212.2544
v 430.5129 92.71207 -228.7358
v 426.291 97.37194 -227.2188
v 415.7173 83.86288 -213.6357
v 432.2152 98.03466 -235.9827
v 429.5904 102.1627 -235.657
v 420.8492 98.55557 -227.5968
v 415.7173 83.86288 -213.6357
v 432.849 102.3865 -242.9402
v 429.5904 102.1627 -235.657
v 420.8492 98.55557 -227.5968
v 425.1699 103.2028 -236.5527
v 431.8168 105.3604 -242.4344
v 427.8864 106.1573 -243.3958
v 433.5805 106.1033 -248.852
v 425.1699 103.2028 -236.5527
v 427.8864 106.1573 -243.3958
v 431.6497 106.8962 -249.0295
v 432.8208 105.0445 -251.425
v 431.6497 106.8962 -249.0295
v 430.1676 106.1122 -250.3481
v 432.8208 105.0445 -251.425
v 431.6497 106.8962 -249.0295
v 426.0534 104.3901 -244.989
v 430.1676 106.1122 -250.3481
v 434.3614 104.5938 -249.0219
v 431.8168 105.3604 -242.4344
v 433.5805 106.1033 -248.852
v 432.849 102.3865 -242.9402
v 431.8168 105.3604 -242.4344
v 429.5904 102.1627 -235.657
v 432.8208 105.0445 -251.425
v 434.3614 104.5938 -249.0219
v 432.8208 105.0445 -251.425
v 433.3159 102.7676 -250.6703
v 432.9402 98.81176 -244.0535
v 432.849 102.3865 -242.9402
v 432.2152 98.03466 -235.9827
v 432.8208 105.0445 -251.425
v 432.4089 101.7116 -251.2873
v 431.2037 102.5071 -251.9885
v 432.4089 101.7116 -251.2873
v 432.8208 105.0445 -251.425
v 429.7282 103.2756 -251.5688
v 432.8208 105.0445 -251.425
v 430.1676 106.1122 -250.3481
v 431.2037 102.5071 -251.9885
v 421.3358 48.88146 -206.8273
v 424.9334 66.51172 -212.0907
v 385.5414 46.93413 -225.0818
v 393.3684 47.01722 -221.3721
v 389.9261 63.47259 -231.3367
v 397.6662 64.25281 -226.4973
v 396.3723 48.2813 -213.4138
v 400.2026 67.01208 -218.8795
v 393.0602 83.14575 -240.7928
v 400.2076 83.5713 -236.8327
v 402.8632 87.00706 -229.7074
v 402.8108 91.08892 -241.1931
v 406.1701 94.6939 -234.3512
v 403.0891 93.02769 -245.1339
v 405.6477 97.28075 -239.1932
v 382.1552 66.77901 -229.1405
v 377.3264 47.98393 -222.9453
v 385.6009 85.97202 -239.2843
v 383.1107 90.40219 -233.1746
v 379.8858 70.72891 -222.5687
v 377.3264 47.98393 -222.9453
v 383.6912 93.13672 -235.7379
v 386.2382 88.54382 -241.517
v 385.2674 100.5627 -242.6985
v 387.969 95.52776 -247.5801
v 387.0778 109.0922 -250.6936
v 389.957 103.5496 -254.5442
v 394.9396 92.67304 -248.5285
v 396.5174 100.671 -255.0225
v 403.0891 93.02769 -245.1339
v 402.8634 102.0477 -251.9448
v 399.2806 113.8291 -273.9012
v 404.0266 114.8502 -271.6068
v 394.4303 115.9437 -273.5593
v 392.3099 119.9549 -270.7835
v 405.3405 106.9868 -246.9985
v 405.8825 118.4085 -268.0219
v 396.0005 122.8768 -285.2197
v 397.4783 119.6984 -286.8659
v 400.3821 124.3494 -297.2952
v 401.0565 122.3038 -297.8412
v 401.0412 118.1078 -287.0941
v 401.0565 122.3038 -297.8412
v 404.606 119.037 -285.7697
v 402.4934 121.4011 -297.8546
v 405.1881 122.3029 -297.3434
v 406.0812 121.9416 -283.6691
v 405.1881 122.3029 -297.3434
v 406.4032 124.7834 -296.483
v 403.0891 93.02769 -245.1339
v 393.566 85.70993 -242.8748
v 401.0565 122.3038 -297.8412
v 401.0412 118.1078 -287.0941
v 402.4934 121.4011 -297.8546
v 401.0565 122.3038 -297.8412
v 402.4934 121.4011 -297.8546
v 403.3304 126.0804 -299.3475
v 403.3304 126.0804 -299.3475
v 402.4934 121.4011 -297.8546
v 405.1881 122.3029 -297.3434
v 375.5562 49.94448 -214.5969
v 377.3264 47.98393 -222.9453
v 376.9843 51.10352 -206.5443
v 375.5562 49.94448 -214.5969
v 381.0486 74.19003 -215.1428
v 379.8858 70.72891 -222.5687
v 388.5994 74.60532 -211.0184
v 384.787 51.17073 -202.929
v 384.8821 93.86182 -225.9988
v 383.1107 90.40219 -233.1746
v 392.0841 94.35028 -221.9056
v 385.5609 96.80402 -228.8973
v 392.6389 97.42471 -224.9503
v 394.1454 105.7734 -233.2185
v 387.4041 104.7937 -236.7682
v 395.8758 115.3628 -242.7156
v 389.5213 113.9707 -245.809
v 385.2674 100.5627 -242.6985
v 387.0778 109.0922 -250.6936
v 402.4379 112.4872 -243.1908
v 401.0922 102.8916 -234.2261
v 405.3405 106.9868 -246.9985
v 405.6477 97.28075 -239.1932
v 394.157 123.513 -267.2015
v 392.3099 119.9549 -270.7835
v 398.8961 124.5336 -264.9095
v 403.7551 122.4194 -265.2485
v 405.8825 118.4085 -268.0219
v 397.4714 125.7812 -283.1206
v 396.0005 122.8768 -285.2197
v 401.5968 126.8298 -296.435
v 400.3821 124.3494 -297.2952
v 403.1328 128.034 -295.7998
v 401.0326 126.7102 -281.7972
v 403.1328 128.034 -295.7998
v 404.6 125.1199 -282.024
v 405.7285 126.829 -295.9371
v 403.1328 128.034 -295.7998
v 406.4032 124.7834 -296.483
v 406.0812 121.9416 -283.6691
v 403.3304 126.0804 -299.3475
v 403.3304 126.0804 -299.3475
v 403.3304 126.0804 -299.3475
v 403.3304 126.0804 -299.3475
v 402.8634 102.0477 -251.9448
v 405.6477 97.28075 -239.1932
v 403.0891 93.02769 -245.1339
v 401.0565 122.3038 -297.8412
v 403.3304 126.0804 -299.3475
v 400.3821 124.3494 -297.2952
v 403.3304 126.0804 -299.3475
v 405.1881 122.3029 -297.3434
v 406.4032 124.7834 -296.483
v 392.8176 50.00177 -205.7744
v 396.543 71.64348 -212.5422
v 400.2026 67.01208 -218.8795
v 396.3723 48.2813 -213.4138
v 399.489 91.46109 -223.5472
v 402.8632 87.00706 -229.7074
v 406.1701 94.6939 -234.3512
v 399.9206 94.53745 -226.4213
v 406.1701 94.6939 -234.3512
v 405.6477 97.28075 -239.1932
v 383.6912 93.13672 -235.7379
v 488.0736 60.30782 -186.2928
v 467.3392 58.10942 -200.1117
v 493.3817 84.59898 -199.9356
v 471.606 81.68024 -214.1002
v 492.9183 60.08375 -179.9463
v 439.1326 56.71739 -209.0515
v 492.9183 60.08375 -179.9463
v 493.3817 84.59898 -199.9356
v 503.2116 84.59898 -195.5946
v 498.5235 67.32233 -183.6088
v 502.1254 76.1577 -189.1209
v 493.3817 84.59898 -199.9356
v 471.606 81.68024 -214.1002
v 493.7467 80.83698 -201.524
v 472.0714 77.91864 -215.6838
v 502.213 81.17453 -197.7476
v 444.3365 79.15231 -223.2365
v 444.1942 75.40499 -224.9007
v 503.2116 84.59898 -195.5946
v 493.3817 84.59898 -199.9356
v 502.213 81.17453 -197.7476
v 471.606 81.68024 -214.1002
v 439.1326 56.71739 -209.0515
v 444.3365 79.15231 -223.2365
v 418.1688 56.01948 -212.8818
v 444.3365 79.15231 -223.2365
v 418.1688 56.01948 -212.8818
v 417.7107 78.74162 -225.142
v 388.4781 54.46632 -219.8713
v 388.8542 79.74807 -232.9313
v 417.7107 78.74162 -225.142
v 388.8542 79.74807 -232.9313
v 417.3519 75.11736 -227.0496
v 444.1942 75.40499 -224.9007
v 417.3519 75.11736 -227.0496
v 388.8542 79.74807 -232.9313
v 390.2215 77.03288 -235.0348
v 444.3365 79.15231 -223.2365
v 417.7107 78.74162 -225.142
v 444.1942 75.40499 -224.9007
v 388.4781 54.46632 -219.8713
v 418.1688 56.01948 -212.8818
v 389.9587 51.7245 -221.9353
v 389.9587 51.7245 -221.9353
v 418.1688 56.01948 -212.8818
v 418.0521 52.36567 -214.769
v 418.1688 56.01948 -212.8818
v 439.1326 56.71739 -209.0515
v 418.0521 52.36567 -214.769
v 439.1326 56.71739 -209.0515
v 439.032 52.97453 -210.7577
v 467.3392 58.10942 -200.1117
v 467.6905 54.35947 -201.7403
v 488.0736 60.30782 -186.2928
v 488.7396 56.54822 -187.8302
v 492.9183 60.08375 -179.9463
v 444.1942 75.40499 -224.9007
v 418.0521 52.36567 -214.769
v 439.032 52.97453 -210.7577
v 417.3519 75.11736 -227.0496
v 418.0521 52.36567 -214.769
v 444.1942 75.40499 -224.9007
v 390.2215 77.03288 -235.0348
v 389.9587 51.7245 -221.9353
v 444.1942 75.40499 -224.9007
v 439.032 52.97453 -210.7577
v 472.0714 77.91864 -215.6838
v 467.6905 54.35947 -201.7403
v 493.7467 80.83698 -201.524
v 488.7396 56.54822 -187.8302
v 501.4435 73.92195 -192.1752
v 498.4597 64.35583 -185.8528
v 494.1557 58.35329 -183.8539
v 502.213 81.17453 -197.7476
v 498.4597 64.35583 -185.8528
v 502.1254 76.1577 -189.1209
v 501.4435 73.92195 -192.1752
v 503.2116 84.59898 -195.5946
v 502.213 81.17453 -197.7476
v 498.5235 67.32233 -183.6088
v 494.1557 58.35329 -183.8539
v 498.5235 67.32233 -183.6088
v 498.4597 64.35583 -185.8528
v 492.9183 60.08375 -179.9463
v 488.7396 56.54822 -187.8302
v 492.9183 60.08375 -179.9463
v 494.1557 58.35329 -183.8539
v 388.8542 79.74807 -232.9313
v 388.4781 54.46632 -219.8713
v 390.2215 77.03288 -235.0348
v 389.9587 51.7245 -221.9353
vt 0.323965 0.66453
vt 0.327923 0.669498
vt 0.324874 0.660879
vt 0.324874 0.660879
vt 0.327923 0.669498
vt 0.327499 0.667728
vt 0.324874 0.660879
vt 0.326657 0.660795
vt 0.329722 0.666862
vt 0.320841 0.658118
vt 0.324909 0.674049
vt 0.327727 0.672678
vt 0.320897 0.678095
vt 0.331253 0.655968
vt 0.333577 0.660125
vt 0.326307 0.653594
vt 0.333094 0.664916
vt 0.334756 0.649595
vt 0.337279 0.651986
vt 0.331455 0.647434
vt 0.337744 0.654202
vt 0.339375 0.645868
vt 0.339988 0.64693
vt 0.341965 0.638397
vt 0.34087 0.63799
vt 0.337603 0.644406
vt 0.337603 0.644406
vt 0.342642 0.63937
vt 0.341908 0.63687
vt 0.335448 0.643002
vt 0.329638 0.647783
vt 0.334333 0.642734
vt 0.335448 0.643002
vt 0.335448 0.643002
vt 0.338794 0.637171
vt 0.341908 0.63687
vt 0.34087 0.63799
vt 0.322434 0.655545
vt 0.320841 0.658118
vt 0.31874 0.659393
vt 0.323965 0.66453
vt 0.324874 0.660879
vt 0.316203 0.660914
vt 0.323965 0.66453
vt 0.31874 0.659393
vt 0.31874 0.659393
vt 0.324874 0.660879
vt 0.320841 0.658118
vt 0.340138 0.637365
vt 0.337603 0.644406
vt 0.34087 0.63799
vt 0.335448 0.643002
vt 0.337603 0.644406
vt 0.340138 0.637365
vt 0.335448 0.643002
vt 0.334756 0.649595
vt 0.337603 0.644406
vt 0.338794 0.637171
vt 0.335448 0.643002
vt 0.340138 0.637365
vt 0.340138 0.637365
vt 0.34087 0.63799
vt 0.341908 0.63687
vt 0.340138 0.637365
vt 0.341908 0.63687
vt 0.338794 0.637171
vt 0.316849 0.66216
vt 0.320841 0.658118
vt 0.322434 0.655545
vt 0.31242 0.66418
vt 0.316203 0.660914
vt 0.314498 0.664348
vt 0.31874 0.659393
vt 0.312285 0.671832
vt 0.309735 0.670237
vt 0.315495 0.677337
vt 0.313451 0.678706
vt 0.320897 0.678095
vt 0.320664 0.679107
vt 0.316849 0.66216
vt 0.315445 0.668985
vt 0.31878 0.674543
vt 0.324024 0.675511
vt 0.321914 0.660589
vt 0.322434 0.655545
vt 0.325091 0.665347
vt 0.329238 0.666587
vt 0.330106 0.650017
vt 0.329638 0.647783
vt 0.332546 0.652836
vt 0.335736 0.654241
vt 0.337744 0.654202
vt 0.333094 0.664916
vt 0.327727 0.672678
vt 0.334923 0.643789
vt 0.334333 0.642734
vt 0.339754 0.637409
vt 0.338794 0.637171
vt 0.340865 0.638006
vt 0.336886 0.645536
vt 0.338916 0.646701
vt 0.336886 0.645536
vt 0.342218 0.638807
vt 0.342642 0.63937
vt 0.339988 0.64693
vt 0.341908 0.63687
vt 0.341908 0.63687
vt 0.340865 0.638006
vt 0.324909 0.674049
vt 0.325314 0.675048
vt 0.327499 0.667728
vt 0.327923 0.669498
vt 0.31874 0.659393
vt 0.320841 0.658118
vt 0.336886 0.645536
vt 0.334923 0.643789
vt 0.340865 0.638006
vt 0.342218 0.638807
vt 0.336886 0.645536
vt 0.340865 0.638006
vt 0.341908 0.63687
vt 0.342218 0.638807
vt 0.340865 0.638006
vt 0.304807 0.652697
vt 0.307991 0.656444
vt 0.305332 0.649261
vt 0.302014 0.647375
vt 0.306613 0.648828
vt 0.306079 0.640657
vt 0.311096 0.642451
vt 0.309081 0.653649
vt 0.30749 0.654852
vt 0.305332 0.649261
vt 0.307991 0.656444
vt 0.305572 0.660794
vt 0.307581 0.659025
vt 0.302489 0.664948
vt 0.31379 0.646069
vt 0.313852 0.649407
vt 0.312453 0.637622
vt 0.31485 0.639475
vt 0.309831 0.636254
vt 0.309831 0.636254
vt 0.315193 0.641281
vt 0.31647 0.634102
vt 0.316925 0.634882
vt 0.318499 0.627285
vt 0.314566 0.632946
vt 0.31902 0.628018
vt 0.317772 0.625829
vt 0.318499 0.627285
vt 0.308224 0.636512
vt 0.302579 0.642732
vt 0.302014 0.647375
vt 0.309831 0.636254
vt 0.311498 0.63132
vt 0.312408 0.631429
vt 0.315166 0.626557
vt 0.309831 0.636254
vt 0.312408 0.631429
vt 0.312453 0.637622
vt 0.300505 0.648901
vt 0.304807 0.652697
vt 0.305332 0.649261
vt 0.302014 0.647375
vt 0.317015 0.626992
vt 0.31647 0.634102
vt 0.318499 0.627285
vt 0.314566 0.632946
vt 0.317015 0.626992
vt 0.316428 0.626554
vt 0.314566 0.632946
vt 0.317015 0.626992
vt 0.312408 0.631429
vt 0.314566 0.632946
vt 0.316428 0.626554
vt 0.312408 0.631429
vt 0.312453 0.637622
vt 0.314566 0.632946
vt 0.315166 0.626557
vt 0.312408 0.631429
vt 0.316428 0.626554
vt 0.316428 0.626554
vt 0.317015 0.626992
vt 0.317772 0.625829
vt 0.318499 0.627285
vt 0.316428 0.626554
vt 0.317772 0.625829
vt 0.315166 0.626557
vt 0.298927 0.651507
vt 0.302014 0.647375
vt 0.302579 0.642732
vt 0.298679 0.650728
vt 0.304807 0.652697
vt 0.300505 0.648901
vt 0.295765 0.65417
vt 0.298679 0.650728
vt 0.297267 0.653896
vt 0.300505 0.648901
vt 0.295657 0.660793
vt 0.293792 0.659915
vt 0.298256 0.665118
vt 0.298927 0.651507
vt 0.302014 0.647375
vt 0.297906 0.657672
vt 0.300582 0.662006
vt 0.300582 0.662006
vt 0.302644 0.647375
vt 0.302579 0.642732
vt 0.306227 0.651477
vt 0.308566 0.638301
vt 0.310637 0.640645
vt 0.310637 0.640645
vt 0.308224 0.636512
vt 0.311933 0.632088
vt 0.313917 0.633905
vt 0.310637 0.640645
vt 0.311498 0.63132
vt 0.315886 0.626596
vt 0.316944 0.626965
vt 0.315166 0.626557
vt 0.296874 0.666793
vt 0.298256 0.665118
vt 0.300582 0.662006
vt 0.306227 0.651477
vt 0.310343 0.652292
vt 0.300582 0.662006
vt 0.306227 0.651477
vt 0.304698 0.662048
vt 0.300582 0.662006
vt 0.310343 0.652292
vt 0.313852 0.649407
vt 0.307581 0.659025
vt 0.302489 0.664948
vt 0.298256 0.665118
vt 0.296874 0.666793
vt 0.302505 0.666016
vt 0.305572 0.660794
vt 0.306058 0.661727
vt 0.30749 0.654852
vt 0.307991 0.656444
vt 0.315193 0.641281
vt 0.313159 0.641402
vt 0.306227 0.651477
vt 0.310637 0.640645
vt 0.316048 0.634788
vt 0.316925 0.634882
vt 0.31902 0.628018
vt 0.316048 0.634788
vt 0.318657 0.627576
vt 0.317772 0.625829
vt 0.318657 0.627576
vt 0.304698 0.662048
vt 0.298256 0.665118
vt 0.300582 0.662006
vt 0.313917 0.633905
vt 0.311933 0.632088
vt 0.316944 0.626965
vt 0.318657 0.627576
vt 0.313917 0.633905
vt 0.316944 0.626965
vt 0.316048 0.634788
vt 0.313917 0.633905
vt 0.318657 0.627576
vt 0.316048 0.634788
vt 0.310637 0.640645
vt 0.315166 0.626557
vt 0.317772 0.625829
vt 0.315886 0.626596
vt 0.316944 0.626965
vt 0.317772 0.625829
vt 0.318657 0.627576
vt 0.316944 0.626965
vt 0.278159 0.640273
vt 0.283968 0.645096
vt 0.280705 0.637751
vt 0.280705 0.637751
vt 0.283968 0.645096
vt 0.285413 0.64343
vt 0.283258 0.653185
vt 0.285336 0.651711
vt 0.279919 0.659902
vt 0.28242 0.632438
vt 0.286862 0.637148
vt 0.286862 0.637148
vt 0.287054 0.645152
vt 0.290718 0.632039
vt 0.290718 0.632039
vt 0.291279 0.636281
vt 0.285744 0.622254
vt 0.289647 0.62784
vt 0.289172 0.625974
vt 0.29198 0.633575
vt 0.289563 0.631855
vt 0.293154 0.609343
vt 0.293501 0.613608
vt 0.296113 0.596903
vt 0.293774 0.595082
vt 0.296804 0.585521
vt 0.296538 0.599577
vt 0.298198 0.586332
vt 0.296804 0.585521
vt 0.298721 0.587706
vt 0.28242 0.632438
vt 0.285413 0.64343
vt 0.286862 0.637148
vt 0.284575 0.625835
vt 0.27668 0.624486
vt 0.279581 0.621947
vt 0.285744 0.622254
vt 0.290718 0.632039
vt 0.286862 0.637148
vt 0.279581 0.621947
vt 0.285744 0.622254
vt 0.28555 0.606481
vt 0.290123 0.606736
vt 0.2829 0.609466
vt 0.275471 0.625903
vt 0.288323 0.596608
vt 0.290411 0.594869
vt 0.290123 0.606736
vt 0.294433 0.586062
vt 0.295426 0.585392
vt 0.293774 0.595082
vt 0.285744 0.622254
vt 0.289172 0.625974
vt 0.290123 0.606736
vt 0.290123 0.606736
vt 0.293154 0.609343
vt 0.293774 0.595082
vt 0.295426 0.585392
vt 0.293774 0.595082
vt 0.296804 0.585521
vt 0.295426 0.585392
vt 0.296804 0.585521
vt 0.297174 0.584866
vt 0.297174 0.584866
vt 0.296804 0.585521
vt 0.298198 0.586332
vt 0.270675 0.64096
vt 0.278159 0.640273
vt 0.273195 0.63892
vt 0.280705 0.637751
vt 0.275328 0.632946
vt 0.271275 0.638925
vt 0.269338 0.645258
vt 0.272583 0.629156
vt 0.27668 0.624486
vt 0.28242 0.632438
vt 0.275328 0.632946
vt 0.280705 0.637751
vt 0.28242 0.632438
vt 0.267204 0.648677
vt 0.270675 0.64096
vt 0.269338 0.645258
vt 0.268282 0.652951
vt 0.2666 0.656569
vt 0.273789 0.658224
vt 0.272419 0.661307
vt 0.270787 0.646548
vt 0.276038 0.651783
vt 0.270787 0.646548
vt 0.280539 0.657421
vt 0.279919 0.659902
vt 0.285336 0.651711
vt 0.282363 0.650756
vt 0.287054 0.645152
vt 0.286447 0.641218
vt 0.291279 0.636281
vt 0.29198 0.633575
vt 0.278907 0.64158
vt 0.285465 0.63579
vt 0.280466 0.636037
vt 0.272638 0.635618
vt 0.270787 0.646548
vt 0.275827 0.631726
vt 0.272583 0.629156
vt 0.271275 0.638925
vt 0.270787 0.646548
vt 0.275471 0.625903
vt 0.27668 0.624486
vt 0.279581 0.621947
vt 0.283224 0.613736
vt 0.2829 0.609466
vt 0.286349 0.616785
vt 0.290497 0.616453
vt 0.285465 0.63579
vt 0.293501 0.613608
vt 0.289563 0.631855
vt 0.288735 0.599285
vt 0.288323 0.596608
vt 0.294951 0.587438
vt 0.294433 0.586062
vt 0.29598 0.588487
vt 0.291416 0.60133
vt 0.29598 0.588487
vt 0.294453 0.601323
vt 0.297729 0.58838
vt 0.29598 0.588487
vt 0.298721 0.587706
vt 0.296538 0.599577
vt 0.297174 0.584866
vt 0.297174 0.584866
vt 0.29198 0.633575
vt 0.285465 0.63579
vt 0.297174 0.584866
vt 0.298198 0.586332
vt 0.289172 0.625974
vt 0.29198 0.633575
vt 0.270675 0.64096
vt 0.273195 0.63892
vt 0.29198 0.633575
vt 0.286447 0.641218
vt 0.285465 0.63579
vt 0.297174 0.584866
vt 0.297729 0.58838
vt 0.29598 0.588487
vt 0.294951 0.587438
vt 0.297174 0.584866
vt 0.29598 0.588487
vt 0.295426 0.585392
vt 0.297174 0.584866
vt 0.294433 0.586062
vt 0.290718 0.632039
vt 0.291279 0.636281
vt 0.289647 0.62784
vt 0.259057 0.635699
vt 0.26331 0.641796
vt 0.258322 0.633395
vt 0.262511 0.639016
vt 0.253036 0.632836
vt 0.258588 0.630882
vt 0.261991 0.636177
vt 0.253423 0.629587
vt 0.259593 0.626472
vt 0.263037 0.629277
vt 0.25582 0.625024
vt 0.261609 0.641949
vt 0.26316 0.632726
vt 0.26078 0.620602
vt 0.263905 0.623084
vt 0.257463 0.619419
vt 0.263948 0.626489
vt 0.264526 0.618762
vt 0.263169 0.617182
vt 0.263169 0.617182
vt 0.263539 0.612144
vt 0.26425 0.612895
vt 0.259307 0.616564
vt 0.262236 0.611575
vt 0.257142 0.616898
vt 0.260674 0.612092
vt 0.262236 0.611575
vt 0.25503 0.621023
vt 0.25582 0.625024
vt 0.25582 0.625024
vt 0.263857 0.620363
vt 0.264971 0.614761
vt 0.251999 0.626972
vt 0.25582 0.625024
vt 0.253423 0.629587
vt 0.252527 0.633545
vt 0.253036 0.632836
vt 0.253036 0.632836
vt 0.258322 0.633395
vt 0.253423 0.629587
vt 0.262236 0.611575
vt 0.263169 0.617182
vt 0.263539 0.612144
vt 0.24948 0.634386
vt 0.253423 0.629587
vt 0.251999 0.626972
vt 0.253036 0.632836
vt 0.249472 0.637702
vt 0.253036 0.632836
vt 0.247769 0.641264
vt 0.247653 0.644527
vt 0.252527 0.633545
vt 0.253036 0.632836
vt 0.248602 0.639022
vt 0.246764 0.646337
vt 0.248602 0.639022
vt 0.247653 0.644527
vt 0.249472 0.637702
vt 0.250396 0.648932
vt 0.246764 0.646337
vt 0.250306 0.645978
vt 0.250306 0.645978
vt 0.247769 0.641264
vt 0.250306 0.645978
vt 0.252821 0.634714
vt 0.252821 0.634714
vt 0.250982 0.631172
vt 0.24948 0.634386
vt 0.251999 0.626972
vt 0.254465 0.623926
vt 0.25503 0.621023
vt 0.256249 0.626701
vt 0.256249 0.626701
vt 0.256912 0.61866
vt 0.257142 0.616898
vt 0.260637 0.613686
vt 0.260674 0.612092
vt 0.258406 0.620469
vt 0.261953 0.615084
vt 0.251752 0.650959
vt 0.246764 0.646337
vt 0.250396 0.648932
vt 0.256937 0.648895
vt 0.25599 0.645904
vt 0.250306 0.645978
vt 0.261609 0.641949
vt 0.262016 0.644781
vt 0.256862 0.650503
vt 0.26141 0.647094
vt 0.261991 0.636177
vt 0.262511 0.639016
vt 0.26331 0.641796
vt 0.26316 0.632726
vt 0.258303 0.634901
vt 0.250306 0.645978
vt 0.263948 0.626489
vt 0.260723 0.627418
vt 0.252821 0.634714
vt 0.250306 0.645978
vt 0.263857 0.620363
vt 0.260723 0.627418
vt 0.252821 0.634714
vt 0.256249 0.626701
vt 0.262367 0.62129
vt 0.258406 0.620469
vt 0.263965 0.615143
vt 0.256249 0.626701
vt 0.258406 0.620469
vt 0.261953 0.615084
vt 0.263397 0.612484
vt 0.261953 0.615084
vt 0.260637 0.613686
vt 0.263397 0.612484
vt 0.261953 0.615084
vt 0.256912 0.61866
vt 0.260637 0.613686
vt 0.264971 0.614761
vt 0.262367 0.62129
vt 0.263965 0.615143
vt 0.263857 0.620363
vt 0.262367 0.62129
vt 0.260723 0.627418
vt 0.263397 0.612484
vt 0.264971 0.614761
vt 0.263397 0.612484
vt 0.26425 0.612895
vt 0.264526 0.618762
vt 0.263857 0.620363
vt 0.263948 0.626489
vt 0.263397 0.612484
vt 0.263539 0.612144
vt 0.262236 0.611575
vt 0.263539 0.612144
vt 0.263397 0.612484
vt 0.260674 0.612092
vt 0.263397 0.612484
vt 0.260637 0.613686
vt 0.262236 0.611575
vt 0.26141 0.647094
vt 0.262016 0.644781
vt 0.227707 0.629449
vt 0.235131 0.632986
vt 0.229003 0.625896
vt 0.236276 0.630642
vt 0.237771 0.64074
vt 0.238233 0.638351
vt 0.228559 0.619657
vt 0.235384 0.623541
vt 0.237354 0.630931
vt 0.236596 0.620418
vt 0.239227 0.627578
vt 0.236528 0.61688
vt 0.238272 0.62326
vt 0.220977 0.628482
vt 0.219715 0.631633
vt 0.220852 0.621523
vt 0.217642 0.628082
vt 0.218092 0.635372
vt 0.219715 0.631633
vt 0.217707 0.626003
vt 0.221005 0.619736
vt 0.217884 0.620333
vt 0.221422 0.614866
vt 0.218089 0.613775
vt 0.221905 0.609234
vt 0.228692 0.613539
vt 0.228805 0.608364
vt 0.236528 0.61688
vt 0.234735 0.611552
vt 0.229155 0.591756
vt 0.233617 0.594138
vt 0.224029 0.592374
vt 0.221222 0.595636
vt 0.236283 0.617077
vt 0.234806 0.598132
vt 0.224312 0.581858
vt 0.226337 0.579831
vt 0.22835 0.570185
vt 0.22938 0.569393
vt 0.230115 0.579403
vt 0.22938 0.569393
vt 0.233444 0.580821
vt 0.230951 0.569268
vt 0.233436 0.569882
vt 0.234376 0.583259
vt 0.233436 0.569882
vt 0.234189 0.571037
vt 0.236528 0.61688
vt 0.228595 0.618016
vt 0.22938 0.569393
vt 0.230115 0.579403
vt 0.230951 0.569268
vt 0.22938 0.569393
vt 0.230951 0.569268
vt 0.230938 0.568383
vt 0.230938 0.568383
vt 0.230951 0.569268
vt 0.233436 0.569882
vt 0.217682 0.639865
vt 0.219715 0.631633
vt 0.218834 0.647706
vt 0.217682 0.639865
vt 0.218586 0.643032
vt 0.218092 0.635372
vt 0.225772 0.647061
vt 0.22625 0.651158
vt 0.21873 0.635553
vt 0.217642 0.628082
vt 0.225626 0.639597
vt 0.218854 0.633186
vt 0.225615 0.637112
vt 0.225584 0.630332
vt 0.219193 0.626727
vt 0.225549 0.622484
vt 0.219584 0.619253
vt 0.217884 0.620333
vt 0.218089 0.613775
vt 0.232481 0.621596
vt 0.232863 0.628919
vt 0.236283 0.617077
vt 0.238272 0.62326
vt 0.222386 0.599639
vt 0.221222 0.595636
vt 0.226857 0.602032
vt 0.232008 0.601405
vt 0.234806 0.598132
vt 0.225231 0.5843
vt 0.224312 0.581858
vt 0.229099 0.571341
vt 0.22835 0.570185
vt 0.230394 0.572118
vt 0.228565 0.585724
vt 0.230394 0.572118
vt 0.232357 0.585291
vt 0.233163 0.571831
vt 0.230394 0.572118
vt 0.234189 0.571037
vt 0.234376 0.583259
vt 0.230938 0.568383
vt 0.230938 0.568383
vt 0.230938 0.568383
vt 0.230938 0.568383
vt 0.234735 0.611552
vt 0.238272 0.62326
vt 0.236528 0.61688
vt 0.22938 0.569393
vt 0.230938 0.568383
vt 0.22835 0.570185
vt 0.230938 0.568383
vt 0.233436 0.569882
vt 0.234189 0.571037
vt 0.234096 0.648268
vt 0.233924 0.645138
vt 0.238233 0.638351
vt 0.237771 0.64074
vt 0.233313 0.637564
vt 0.237354 0.630931
vt 0.239227 0.627578
vt 0.233193 0.635246
vt 0.239227 0.627578
vt 0.238272 0.62326
vt 0.217707 0.626003
vt 0.323355 0.668484
vt 0.303852 0.65493
vt 0.325185 0.659323
vt 0.304575 0.645191
vt 0.328015 0.674512
vt 0.277135 0.64618
vt 0.328015 0.674512
vt 0.325185 0.659323
vt 0.334678 0.663516
vt 0.332427 0.672207
vt 0.334733 0.668373
vt 0.325185 0.659323
vt 0.304575 0.645191
vt 0.326044 0.657186
vt 0.305563 0.643084
vt 0.334162 0.660882
vt 0.278665 0.635997
vt 0.279107 0.633832
vt 0.334678 0.663516
vt 0.325185 0.659323
vt 0.334162 0.660882
vt 0.304575 0.645191
vt 0.277135 0.64618
vt 0.278665 0.635997
vt 0.257244 0.642419
vt 0.278665 0.635997
vt 0.257244 0.642419
vt 0.253081 0.6341
vt 0.229191 0.63552
vt 0.225105 0.626745
vt 0.253081 0.6341
vt 0.225105 0.626745
vt 0.253335 0.631722
vt 0.279107 0.633832
vt 0.253335 0.631722
vt 0.225105 0.626745
vt 0.226903 0.624321
vt 0.278665 0.635997
vt 0.253081 0.6341
vt 0.279107 0.633832
vt 0.229191 0.63552
vt 0.257244 0.642419
vt 0.231078 0.633146
vt 0.231078 0.633146
vt 0.257244 0.642419
vt 0.257725 0.640066
vt 0.257244 0.642419
vt 0.277135 0.64618
vt 0.257725 0.640066
vt 0.277135 0.64618
vt 0.277614 0.64398
vt 0.303852 0.65493
vt 0.304721 0.652787
vt 0.323355 0.668484
vt 0.324494 0.666403
vt 0.328015 0.674512
vt 0.279107 0.633832
vt 0.257725 0.640066
vt 0.277614 0.64398
vt 0.253335 0.631722
vt 0.257725 0.640066
vt 0.279107 0.633832
vt 0.226903 0.624321
vt 0.231078 0.633146
vt 0.279107 0.633832
vt 0.277614 0.64398
vt 0.305563 0.643084
vt 0.304721 0.652787
vt 0.326044 0.657186
vt 0.324494 0.666403
vt 0.334368 0.665069
vt 0.332753 0.669568
vt 0.329425 0.670493
vt 0.334162 0.660882
vt 0.332753 0.669568
vt 0.334733 0.668373
vt 0.334368 0.665069
vt 0.334678 0.663516
vt 0.334162 0.660882
vt 0.332427 0.672207
vt 0.329425 0.670493
vt 0.332427 0.672207
vt 0.332753 0.669568
vt 0.328015 0.674512
vt 0.324494 0.666403
vt 0.328015 0.674512
vt 0.329425 0.670493
vt 0.225105 0.626745
vt 0.229191 0.63552
vt 0.226903 0.624321
vt 0.231078 0.633146
vn 0.3950187 -0.4693583 -0.7897234
vn 0.8168982 -0.3416709 -0.4646916
vn 0.5769812 -0.3939767 -0.7154544
vn 0.662569 -0.3591012 -0.657304
vn 0.9524225 -0.2394328 -0.1885823
vn 0.9787261 -0.2012525 0.03990684
vn 0.5769812 -0.3939767 -0.7154544
vn 0.6301135 -0.4774333 -0.6123843
vn 0.933427 -0.3497718 0.07983551
vn 0.07577535 -0.3526101 -0.9326972
vn 0.8157624 -0.04648096 0.5765163
vn 0.8135785 -0.07161429 0.5770282
vn 0.32464 0.1734076 0.9298058
vn 0.5417408 -0.6669704 -0.5115343
vn 0.9027412 -0.4252331 0.06507916
vn -0.2264054 -0.4471604 -0.8653255
vn 0.8643932 -0.003498134 0.5028041
vn 0.4489235 -0.7997782 -0.3985254
vn 0.8546346 -0.51467 0.06866147
vn -0.2863733 -0.5793031 -0.7631502
vn 0.9182475 0.01906168 0.3955478
vn 0.7667788 -0.5863945 0.2611355
vn 0.9355524 -0.05478301 0.3489133
vn 0.8030714 -0.5873615 0.1004134
vn 0.5581968 -0.8258659 0.07976118
vn 0.4038683 -0.9140109 0.03839799
vn 0.5002559 -0.8608983 -0.09272658
vn 0.9918293 -0.09952186 0.07981157
vn 0.7706867 -0.3219143 -0.5499209
vn -0.3351024 -0.8082579 -0.4841752
vn -0.7384796 0.05174512 -0.6722874
vn -0.7284647 0.007089709 -0.6850466
vn -0.4408634 -0.7473528 -0.497095
vn -0.535214 -0.7007799 -0.4716497
vn -0.5353543 -0.2659829 -0.801654
vn 0.662631 -0.3490121 -0.6626544
vn 0.5287586 -0.8362275 -0.1453883
vn -0.7750773 0.1029011 -0.6234313
vn -0.217902 -0.2550774 -0.942048
vn -0.01594458 -0.3375486 -0.9411731
vn 0.3950187 -0.4693583 -0.7897234
vn 0.4815386 -0.4203626 -0.7690358
vn 0.3615325 -0.3971382 -0.8435493
vn 0.3950187 -0.4693583 -0.7897234
vn 0.207582 -0.4153821 -0.8856453
vn -0.01594458 -0.3375486 -0.9411731
vn 0.5769812 -0.3939767 -0.7154544
vn -0.217902 -0.2550774 -0.942048
vn -0.506994 -0.8460878 -0.1645988
vn -0.3099058 -0.9160103 -0.2547224
vn -0.5032393 -0.8564709 -0.1149253
vn -0.4408634 -0.7473528 -0.497095
vn -0.1231517 -0.9867181 -0.1059287
vn -0.3374276 -0.8785048 -0.3381892
vn -0.4408634 -0.7473528 -0.497095
vn 0.4489235 -0.7997782 -0.3985254
vn 0.1103636 -0.9715361 -0.2096125
vn -0.558783 -0.5292417 -0.6384863
vn -0.4408634 -0.7473528 -0.497095
vn -0.4355629 -0.8057097 -0.4013936
vn -0.05249927 -0.7383729 -0.6723462
vn 0.4446077 -0.6477493 -0.6186637
vn 0.5115473 -0.243799 -0.8239426
vn -0.1342028 -0.6522502 -0.7460289
vn 0.2821262 -0.2275496 -0.9320011
vn -0.5353543 -0.2659829 -0.801654
vn -0.8392097 0.1347363 -0.5268521
vn -0.4804444 -0.1353837 -0.8665128
vn -0.7750773 0.1029011 -0.6234313
vn -0.8222763 0.2057046 -0.5306103
vn -0.6671276 0.07310382 -0.7413478
vn -0.8317329 0.1473545 -0.5352635
vn -0.7205843 0.04010924 -0.6922063
vn -0.936496 0.3485468 0.03860669
vn -0.9286224 0.3269885 0.1753254
vn -0.5168499 0.3825055 0.7658693
vn -0.3776679 0.3171426 0.8699353
vn 0.32464 0.1734076 0.9298058
vn 0.4824012 0.1453705 0.8638036
vn -0.8392097 0.1347363 -0.5268521
vn -0.8989055 0.4374858 -0.02398258
vn -0.4554684 0.5992724 0.6583474
vn 0.3269014 0.3355809 0.883471
vn -0.8059987 0.5674042 -0.1685781
vn -0.7750773 0.1029011 -0.6234313
vn -0.3174089 0.8447713 0.4308285
vn 0.429728 0.5542864 0.7128116
vn -0.6831181 0.6122715 -0.3980869
vn -0.7384796 0.05174512 -0.6722874
vn -0.1666233 0.9846396 0.05216728
vn 0.5927551 0.6683254 0.4494248
vn 0.9182475 0.01906168 0.3955478
vn 0.8643932 -0.003498134 0.5028041
vn 0.8135785 -0.07161429 0.5770282
vn -0.5638385 0.5680245 -0.5995284
vn -0.7284647 0.007089709 -0.6850466
vn -0.380762 0.2960175 -0.8760102
vn -0.4695426 -0.110799 -0.87593
vn -0.1946956 0.5610665 -0.8045483
vn -0.05934975 0.9485136 -0.3111261
vn 0.746967 0.6492041 0.143437
vn 0.06705396 0.9536085 -0.293487
vn 0.8491118 0.4550784 -0.2681656
vn 0.9918293 -0.09952186 0.07981157
vn 0.9355524 -0.05478301 0.3489133
vn 0.7706867 -0.3219143 -0.5499209
vn 0.1984829 -0.1189626 -0.9728579
vn 0.0387593 0.526947 -0.8490138
vn 0.8157624 -0.04648096 0.5765163
vn 0.8550107 0.04684679 0.51649
vn 0.9787261 -0.2012525 0.03990684
vn 0.9951904 -0.09094901 0.03639185
vn -0.4358631 -0.1643941 -0.8848717
vn -0.4804444 -0.1353837 -0.8665128
vn 0.06705396 0.9536085 -0.293487
vn -0.5638385 0.5680245 -0.5995284
vn 0.02132356 0.6978295 -0.7159464
vn 0.8491118 0.4550784 -0.2681656
vn 0.3383086 0.9084476 -0.2454998
vn 0.4295509 0.7137394 -0.5532287
vn 0.5115473 -0.243799 -0.8239426
vn 0.8491118 0.4550784 -0.2681656
vn 0.5292265 0.4738586 -0.7038305
vn 0.2939366 -0.4644752 -0.8353826
vn 0.8080454 -0.3383055 -0.4822987
vn 0.507985 -0.3942012 -0.7658699
vn -0.087074 -0.373031 -0.923724
vn 0.5755852 -0.5102902 -0.638988
vn -0.3069594 -0.4421337 -0.8427893
vn 0.485149 -0.661667 -0.5716881
vn 0.927176 -0.3719505 0.04469432
vn 0.9800127 -0.1988251 -0.006616549
vn 0.736095 -0.3410293 -0.5846906
vn 0.9424531 -0.2444355 -0.2281087
vn 0.8793131 -0.06225916 0.4721572
vn 0.8591022 -0.1034646 0.501237
vn 0.4832783 0.1430162 0.8637062
vn 0.9002046 -0.4339384 -0.03645536
vn 0.9211333 -0.01765765 0.3888465
vn 0.404484 -0.764103 -0.5025328
vn 0.863148 -0.5014436 -0.05941252
vn -0.3747739 -0.5373477 -0.7555143
vn -0.273283 -0.582894 -0.7652131
vn 0.9538791 0.04263338 0.2971483
vn 0.7473394 -0.6289312 0.2143113
vn 0.9465778 -0.05000703 0.3185742
vn 0.8206361 -0.5487528 0.1594575
vn 0.4579504 -0.873814 -0.1634952
vn 0.9931945 -0.1091747 -0.04056647
vn 0.6175485 -0.3132378 -0.7214678
vn 0.8619152 -0.4885756 -0.1356322
vn -0.7910472 0.04413601 -0.6101609
vn -0.8430807 0.1001045 -0.5283883
vn -0.3823873 -0.2701327 -0.8836336
vn -0.474722 -0.4916146 -0.730037
vn -0.8007042 0.004663067 -0.5990417
vn -0.6162803 -0.6501056 -0.4444788
vn -0.6119757 -0.2424023 -0.7528127
vn -0.3747739 -0.5373477 -0.7555143
vn -0.5200146 -0.7056145 -0.481345
vn 0.404484 -0.764103 -0.5025328
vn -0.4475187 -0.1981183 -0.8720528
vn 0.2939366 -0.4644752 -0.8353826
vn 0.2236444 -0.4044478 -0.8867949
vn -0.3823873 -0.2701327 -0.8836336
vn 0.04432416 -0.9819505 0.1838709
vn 0.7473394 -0.6289312 0.2143113
vn 0.7147824 -0.5938649 0.3693381
vn 0.2850863 -0.945906 -0.1548793
vn 0.3532498 -0.8860637 0.3001761
vn -0.5245046 -0.7557212 -0.3921484
vn -0.363699 -0.8928493 -0.2655995
vn -0.1741146 -0.9788703 0.1072239
vn -0.5200146 -0.7056145 -0.481345
vn -0.1752478 -0.9756737 -0.131716
vn -0.4167814 -0.8387178 -0.3504936
vn -0.4243651 -0.7760607 -0.4665233
vn 0.404484 -0.764103 -0.5025328
vn 0.1292157 -0.9789914 -0.1577316
vn -0.6804694 -0.3018523 -0.6677175
vn -0.5200146 -0.7056145 -0.481345
vn -0.3917 -0.7715878 -0.5012218
vn -0.3211857 -0.7369066 -0.5948179
vn 0.2580335 -0.6329062 -0.7299647
vn 0.3317162 -0.2305954 -0.9147624
vn 0.6221375 -0.4713925 -0.6250873
vn -0.361779 -0.7079091 -0.6066142
vn 0.09545801 -0.2174416 -0.9713944
vn -0.6119757 -0.2424023 -0.7528127
vn -0.9075701 0.1260869 -0.4005227
vn -0.6303351 -0.1422065 -0.7631873
vn -0.8430807 0.1001045 -0.5283883
vn 0.2440709 -0.3903997 -0.8877035
vn 0.2939366 -0.4644752 -0.8353826
vn 0.05502644 -0.3986035 -0.9154711
vn -0.8798496 0.1921714 -0.4346664
vn -0.7765916 0.08504722 -0.6242375
vn -0.887963 0.1447378 -0.4365464
vn -0.5731625 -0.1405499 -0.8072982
vn -0.9411297 0.327473 0.08388314
vn -0.9279773 0.3087593 0.2086282
vn -0.6685298 0.3842253 0.6367407
vn -0.9075701 0.1260869 -0.4005227
vn -0.6303351 -0.1422065 -0.7631873
vn -0.9042993 0.4257766 0.03093621
vn -0.7903624 0.5026128 0.3502966
vn -0.5065562 0.5841922 0.6341296
vn -0.8192464 0.5699013 -0.06362251
vn -0.8430807 0.1001045 -0.5283883
vn -0.2519263 0.8524282 0.4581477
vn -0.7160614 0.6185423 -0.3235143
vn -0.1315712 0.9860632 0.1018258
vn -0.5674747 0.8202875 -0.0714207
vn -0.7910472 0.04413601 -0.6101609
vn -0.6074046 0.5803714 -0.5424284
vn -0.02860155 0.9634394 -0.2663953
vn -0.3663639 0.9299506 -0.03113381
vn -0.8007042 0.004663067 -0.5990417
vn -0.4601393 0.2652667 -0.847293
vn -0.213099 0.5745768 -0.7902217
vn -0.6119757 -0.2424023 -0.7528127
vn -0.8501824 0.3230706 0.4157107
vn -0.823274 0.3465577 0.4495751
vn -0.6243806 0.6033348 0.496121
vn -0.4995854 0.7725902 0.3918147
vn 0.5423786 0.5432636 0.6408511
vn -0.2713108 0.6306556 0.7270929
vn -0.2519263 0.8524282 0.4581477
vn 0.4754903 0.28073 0.8337264
vn 0.1260972 0.5485898 0.8265282
vn 0.5423786 0.5432636 0.6408511
vn 0.9211333 -0.01765765 0.3888465
vn 0.8591022 -0.1034646 0.501237
vn 0.4832783 0.1430162 0.8637062
vn 0.0760679 0.3067867 0.9487336
vn 0.1049242 0.2342299 0.9665027
vn 0.6222026 0.1075215 0.7754372
vn 0.8793131 -0.06225916 0.4721572
vn 0.9068093 0.01375292 0.4213166
vn 0.9800127 -0.1988251 -0.006616549
vn 0.9944726 -0.1045087 -0.01010557
vn 0.9538791 0.04263338 0.2971483
vn 0.6464573 0.6388279 0.4171233
vn -0.1318496 0.8598042 0.4933076
vn 0.1251523 0.9626064 0.2402617
vn 0.7793605 0.6114431 0.1368743
vn 0.9465778 -0.05000703 0.3185742
vn 0.9931945 -0.1091747 -0.04056647
vn 0.8455119 0.515204 0.1402655
vn 0.8545442 0.4640354 -0.2332924
vn 0.6175485 -0.3132378 -0.7214678
vn 0.8734032 0.3031407 -0.3811463
vn 0.4754903 0.28073 0.8337264
vn -0.3194602 0.3765031 0.8695922
vn -0.1174666 0.5729718 0.8111134
vn 0.0878114 0.960121 -0.2654368
vn -0.6074046 0.5803714 -0.5424284
vn 0.1291027 0.627303 -0.7679996
vn 0.8183669 0.4335805 -0.3772049
vn 0.3615921 0.8975057 -0.2524574
vn 0.395264 0.7097869 -0.5830685
vn 0.7793605 0.6114431 0.1368743
vn 0.0878114 0.960121 -0.2654368
vn 0.7546162 0.5734154 -0.3189814
vn 0.7095066 0.6954551 0.1137659
vn -0.007692605 0.9911991 0.1321559
vn -0.5588518 -0.1028511 -0.8228648
vn 0.09545801 -0.2174416 -0.9713944
vn -0.4601393 0.2652667 -0.847293
vn -0.01431501 0.525093 -0.8509244
vn 0.3317162 -0.2305954 -0.9147624
vn 0.7100409 0.4798346 -0.5153646
vn 0.2875537 0.6110597 -0.7375086
vn 0.1030433 -0.3178396 -0.9425285
vn 0.8346872 -0.344545 -0.4296348
vn 0.2763058 -0.4036818 -0.872179
vn 0.5183128 -0.4152665 -0.7476
vn 0.8346872 -0.344545 -0.4296348
vn 0.9024165 -0.3335284 -0.2727692
vn 0.958995 -0.1999326 0.2008868
vn 0.9445208 -0.1239864 0.3041506
vn 0.6752896 0.04797059 0.7359911
vn 0.390815 -0.5355641 -0.7486219
vn 0.8849817 -0.4238006 -0.1928743
vn 0.8230548 -0.4985369 -0.2721063
vn 0.9209512 -0.12607 0.3687212
vn 0.8069818 -0.5062606 -0.3041064
vn 0.9296668 -0.3521074 -0.1083518
vn 0.952798 -0.06723826 0.2960659
vn 0.5153124 -0.5938413 -0.6179042
vn 0.8717845 -0.3302774 -0.3618128
vn 0.8536128 -0.3901652 -0.3451323
vn 0.9862698 0.1072559 -0.1255711
vn 0.992013 0.1250875 -0.01622353
vn 0.7787476 -0.6258257 -0.04352485
vn 0.9642603 -0.02505496 0.2637692
vn 0.7589807 -0.6510289 0.01048008
vn 0.05147317 -0.9524761 -0.3002327
vn 0.3475479 -0.8409097 -0.4148269
vn 0.9755422 -0.01357258 0.2193931
vn 0.8604993 -0.4488561 -0.2409755
vn 0.5874807 -0.7300611 -0.3491094
vn 0.9945457 0.1028968 -0.01706019
vn 0.2842937 -0.5580503 -0.7795877
vn 0.9024165 -0.3335284 -0.2727692
vn 0.8230548 -0.4985369 -0.2721063
vn 0.1774551 -0.6477264 -0.7409186
vn -0.5114187 -0.3308426 -0.7930914
vn -0.5389286 -0.3959613 -0.7434855
vn 0.2985791 -0.6812704 -0.6683719
vn 0.7425804 -0.5339208 -0.404355
vn 0.7682697 -0.5477517 -0.3312548
vn -0.5389286 -0.3959613 -0.7434855
vn 0.08567207 -0.7430789 -0.6636972
vn -0.6358777 -0.5297061 -0.5613118
vn 0.1431807 -0.8989037 -0.4140911
vn -0.9098769 0.1503445 -0.3866786
vn -0.8633459 0.2107011 -0.4585181
vn -0.8879678 0.1418724 -0.437476
vn -0.6508685 -0.5755787 -0.4950548
vn 0.02583728 -0.9046499 -0.4253717
vn -0.754916 0.1267562 -0.6434552
vn -0.4837184 -0.4710897 -0.7376253
vn 0.05147317 -0.9524761 -0.3002327
vn 0.2985791 -0.6812704 -0.6683719
vn 0.8053855 -0.5147086 -0.2939884
vn 0.4004391 -0.8372229 -0.3724329
vn 0.1431807 -0.8989037 -0.4140911
vn 0.7787476 -0.6258257 -0.04352485
vn 0.1642534 -0.9509634 -0.2620868
vn -0.4837184 -0.4710897 -0.7376253
vn -0.05032719 -0.9422286 -0.3311684
vn 0.004359034 -0.7894933 -0.6137437
vn -0.4837184 -0.4710897 -0.7376253
vn 0.03722576 -0.5443519 -0.8380306
vn 0.04421451 -0.2154326 -0.9755172
vn 0.6843641 -0.1090956 -0.7209327
vn 0.4777149 -0.6712241 -0.5667863
vn 0.8604993 -0.4488561 -0.2409755
vn -0.5256283 -0.07097909 -0.8477482
vn 0.1030433 -0.3178396 -0.9425285
vn -0.5735743 -0.1389789 -0.8072777
vn -0.005160729 -0.3688519 -0.9294739
vn -0.5934932 -0.2993048 -0.747116
vn -0.9543271 0.07982489 -0.2879023
vn -0.9378188 0.1417114 -0.3168814
vn -0.9130592 0.1542739 -0.3775215
vn -0.5114187 -0.3308426 -0.7930914
vn 0.174077 -0.568392 -0.8041316
vn -0.5934932 -0.2993048 -0.747116
vn 0.2763058 -0.4036818 -0.872179
vn 0.2842937 -0.5580503 -0.7795877
vn -0.958627 0.1770372 -0.2229171
vn -0.8715687 0.1079112 -0.4782502
vn -0.9378188 0.1417114 -0.3168814
vn -0.8897585 0.3654282 0.2734813
vn -0.8095384 0.3426238 0.4767141
vn -0.2375582 0.4190288 0.8763452
vn -0.09020207 0.304256 0.94831
vn -0.9037787 0.3938119 0.1676196
vn -0.1997004 0.6017979 0.773278
vn -0.853521 0.4567502 0.2507613
vn 0.5284991 0.2009957 0.8247967
vn 0.6752896 0.04797059 0.7359911
vn 0.9445208 -0.1239864 0.3041506
vn 0.5568796 0.3084088 0.7712128
vn 0.9209512 -0.12607 0.3687212
vn 0.5375962 0.467091 0.7020088
vn 0.952798 -0.06723826 0.2960659
vn 0.9841698 0.1387392 0.1102776
vn -0.1384404 0.7008982 0.699697
vn 0.5912268 0.5483395 0.5914175
vn -0.08369399 0.8451653 0.5279119
vn -0.7950782 0.5679402 0.2128252
vn -0.8002915 0.4976159 0.3345322
vn -0.718139 0.695793 0.0121869
vn -0.9130592 0.1542739 -0.3775215
vn -0.9543271 0.07982489 -0.2879023
vn -0.853521 0.4567502 0.2507613
vn -0.8633459 0.2107011 -0.4585181
vn -0.5114187 -0.3308426 -0.7930914
vn -0.5389286 -0.3959613 -0.7434855
vn -0.6740219 0.7346481 -0.07737384
vn -0.9098769 0.1503445 -0.3866786
vn -0.0341414 0.9667851 0.2533
vn 0.6634291 0.635457 0.3950395
vn 0.6483213 0.5775484 0.496102
vn 0.9642603 -0.02505496 0.2637692
vn 0.992013 0.1250875 -0.01622353
vn -0.6490334 0.7343805 -0.1985973
vn -0.8879678 0.1418724 -0.437476
vn -0.6385608 0.6231632 -0.4515615
vn -0.754916 0.1267562 -0.6434552
vn -0.4307855 0.8602448 -0.2727687
vn 0.05902087 0.9887196 0.1376588
vn -0.05658941 0.9780374 -0.2006006
vn 0.6989164 0.657541 0.2813465
vn 0.7162617 0.6968905 0.03623267
vn 0.2646099 0.9640086 -0.02586327
vn 0.9945457 0.1028968 -0.01706019
vn 0.9755422 -0.01357258 0.2193931
vn -0.4949536 0.4579628 -0.7384382
vn 0.8247438 0.2030095 -0.5278112
vn 0.9838004 0.1792399 -0.003125354
vn 0.777615 0.5186277 0.3554437
vn 0.8413456 -0.03769979 -0.539181
vn 0.8604993 -0.4488561 -0.2409755
vn 0.9222949 -0.1775027 -0.3433145
vn 0.9485829 0.07516605 -0.3074743
vn -0.6915475 -0.006595937 -0.7223008
vn -0.5735743 -0.1389789 -0.8072777
vn 0.8346561 0.438168 0.3337038
vn 0.5375962 0.467091 0.7020088
vn 0.6483213 0.5775484 0.496102
vn 0.4187254 0.7829919 -0.4599921
vn 0.7162617 0.6968905 0.03623267
vn 0.1012425 0.9791108 -0.1763296
vn -0.6385608 0.6231632 -0.4515615
vn -0.2684335 0.6330738 -0.7260585
vn -0.2092424 0.9265746 -0.3125333
vn -0.4837184 -0.4710897 -0.7376253
vn -0.3973062 0.2917868 -0.8700622
vn -0.754916 0.1267562 -0.6434552
vn 0.8069818 -0.5062606 -0.3041064
vn 0.952798 -0.06723826 0.2960659
vn 0.8717845 -0.3302774 -0.3618128
vn 0.4142909 -0.2897847 -0.8627792
vn 0.9355932 -0.2021843 -0.2894595
vn 0.4778828 -0.3696465 -0.7968622
vn 0.9561741 -0.2172814 -0.1962648
vn -0.1243562 -0.3060726 -0.9438512
vn 0.5290853 -0.4586217 -0.7139573
vn 0.9323007 -0.2982661 -0.204579
vn -0.0694209 -0.4150322 -0.9071544
vn 0.4552897 -0.6242488 -0.6348423
vn 0.8832952 -0.4290889 -0.1888708
vn -0.1951111 -0.4916187 -0.8486711
vn 0.9096718 0.04277657 0.413119
vn 0.9234301 0.1045602 0.3692478
vn 0.37972 -0.6983002 -0.6067863
vn 0.8822103 -0.4479376 -0.1451108
vn -0.3384728 -0.5144178 -0.7879153
vn 0.939885 0.1688712 0.2968143
vn 0.9413044 -0.3206462 -0.1055086
vn 0.386784 -0.7414128 -0.548366
vn 0.4875691 -0.7099434 -0.5081899
vn 0.7292295 -0.3438512 -0.5916001
vn 0.9113447 -0.2518052 -0.3256455
vn -0.2837075 -0.5753397 -0.7671338
vn -0.05325453 -0.5929731 -0.8034593
vn -0.7934292 -0.008001652 -0.60861
vn -0.520771 0.03416482 -0.8530126
vn -0.2180202 -0.4977672 -0.8394612
vn -0.8620015 -0.00613113 -0.5068687
vn -0.5463049 -0.3759668 -0.7484649
vn -0.3118715 -0.45991 -0.8313958
vn 0.9817331 -0.002266978 0.1902497
vn 0.9984939 0.04775364 0.02700941
vn -0.8572103 0.002088381 -0.5149623
vn -0.3118715 -0.45991 -0.8313958
vn -0.3663286 -0.3381819 -0.8668542
vn 0.3018254 -0.2451591 -0.9213026
vn 0.1288747 -0.3317119 -0.9345365
vn -0.3025526 -0.2782001 -0.9116285
vn 0.4778828 -0.3696465 -0.7968622
vn -0.3663286 -0.3381819 -0.8668542
vn -0.05325453 -0.5929731 -0.8034593
vn 0.123996 -0.7645249 -0.6325556
vn 0.1824912 -0.4799213 -0.8581216
vn -0.9140884 0.01424985 -0.4052643
vn -0.6123461 -0.2278351 -0.7570491
vn -0.8572103 0.002088381 -0.5149623
vn -0.5487012 -0.2036923 -0.8108246
vn -0.9109126 0.05088883 -0.4094489
vn -0.6798068 -0.1621577 -0.7152396
vn -0.9536985 0.2993432 0.0292044
vn -0.9635027 0.2430224 0.1122616
vn -0.8096609 0.04621607 -0.5850754
vn -0.8257282 -0.04962724 -0.5618809
vn -0.921768 0.1192323 -0.3689548
vn -0.9592746 0.2502496 0.1310246
vn -0.921768 0.1192323 -0.3689548
vn -0.9635027 0.2430224 0.1122616
vn -0.9109126 0.05088883 -0.4094489
vn -0.4118763 0.3506609 0.8410678
vn -0.8973616 0.266008 0.3521106
vn -0.5477799 0.5200455 0.6553549
vn -0.8288706 0.4022757 0.3887773
vn -0.9536985 0.2993432 0.0292044
vn -0.6686839 0.5239937 0.5275342
vn -0.6396435 0.7219676 0.2638541
vn -0.8028708 0.5770411 0.1497398
vn -0.8997602 0.4200948 -0.1181178
vn -0.9140884 0.01424985 -0.4052643
vn -0.8572103 0.002088381 -0.5149623
vn -0.8581915 0.4846096 -0.1692954
vn -0.8620015 -0.00613113 -0.5068687
vn -0.5734088 0.8090678 0.1288856
vn -0.3573399 0.8940115 0.2702807
vn -0.7788135 0.5663569 -0.2696097
vn -0.7934292 -0.008001652 -0.60861
vn -0.6348569 0.5451079 -0.5475529
vn -0.520771 0.03416482 -0.8530126
vn -0.3872494 0.9182062 0.08327837
vn -0.1426369 0.9186637 -0.3683906
vn -0.1955909 0.2629308 0.9447812
vn -0.7434407 0.2872332 0.6039809
vn -0.4118763 0.3506609 0.8410678
vn 0.3775705 0.2347388 0.8957334
vn 0.3823135 0.4251242 0.8204302
vn -0.1711039 0.568312 0.8048259
vn 0.9096718 0.04277657 0.413119
vn 0.8958304 -0.003836393 0.4443794
vn 0.4689487 0.1414066 0.8718322
vn 0.9037106 -0.02307011 0.4275219
vn 0.9323007 -0.2982661 -0.204579
vn 0.9561741 -0.2172814 -0.1962648
vn 0.9355932 -0.2021843 -0.2894595
vn 0.9234301 0.1045602 0.3692478
vn 0.4309682 0.6190047 0.6565818
vn -0.3276101 0.5971808 0.732152
vn 0.939885 0.1688712 0.2968143
vn 0.513012 0.6872609 0.514287
vn 0.1147976 0.7961296 0.5941374
vn 0.06870089 0.5785491 0.812749
vn 0.9451206 0.2022215 0.2566195
vn 0.4094864 0.7530611 0.514995
vn -0.12784 0.811793 0.5697798
vn -0.2560049 0.9107919 0.3239129
vn 0.3341112 0.8704996 0.3613864
vn -0.2673505 0.9539762 0.1358422
vn 0.5793363 0.8148507 -0.01968745
vn -0.3573399 0.8940115 0.2702807
vn 0.1925137 0.9314162 0.3088728
vn 0.1028683 0.9722539 -0.2100961
vn 0.3518816 0.5504972 -0.757055
vn -0.042656 0.9722287 -0.2301124
vn -0.2030918 0.7965302 -0.5694675
vn 0.2124984 0.6307364 -0.7463351
vn -0.042656 0.9722287 -0.2301124
vn -0.7788135 0.5663569 -0.2696097
vn -0.5685899 0.6736389 -0.47214
vn 0.9867618 0.1436394 -0.07529263
vn 0.5824634 0.7105247 0.3948303
vn 0.5793363 0.8148507 -0.01968745
vn 0.9704066 0.08318646 0.226696
vn 0.8899696 0.3061542 0.3379699
vn 0.6886277 0.5315639 0.4931854
vn 0.6156558 0.3620675 -0.6999108
vn 0.944136 0.3147987 -0.09751408
vn 0.6928303 0.2385638 -0.680495
vn 0.9113447 -0.2518052 -0.3256455
vn 0.9413044 -0.3206462 -0.1055086
vn 0.9704066 0.08318646 0.226696
vn 0.939885 0.1688712 0.2968143
vn 0.4689042 0.1858102 -0.8634834
vn 0.7292295 -0.3438512 -0.5916001
vn 0.04700418 -0.3919179 -0.9187987
vn 0.5936595 -0.4696725 -0.6534341
vn 0.4689042 0.1858102 -0.8634834
vn -0.520771 0.03416482 -0.8530126
vn 0.242843 0.4125561 -0.8779662
vn -0.4876568 0.5207577 -0.7007155
vn -0.05317196 -0.12296 -0.9909862
vn 0.9037106 -0.02307011 0.4275219
vn 0.8958304 -0.003836393 0.4443794
vn -0.08480117 -0.3191795 -0.9438925
vn 0.6409132 -0.3831745 -0.6651372
vn 0.06454892 -0.4052138 -0.9119403
vn 0.7588248 -0.3695519 -0.5362986
vn 0.9745043 -0.2225573 -0.02845137
vn 0.9846987 -0.1234894 0.122959
vn 0.06107729 -0.5495606 -0.8332183
vn 0.7398578 -0.4587994 -0.4920505
vn 0.9732169 -0.1756239 0.1483412
vn 0.6788592 -0.6130167 -0.4041789
vn 0.9420305 -0.3350723 -0.01746808
vn 0.6947237 -0.5470521 -0.4670043
vn 0.9999247 0.003986271 0.0116118
vn -0.7078419 -0.1454223 -0.6912395
vn -0.6693094 -0.07179591 -0.7395067
vn -0.7151597 -0.2751546 -0.6425236
vn -0.9857632 0.12009 -0.1176835
vn -0.9814823 0.1492234 -0.1201039
vn -0.8126538 -0.005689966 -0.5827188
vn -0.9865841 0.1114284 -0.1193129
vn -0.7068302 -0.3594654 -0.6092419
vn -0.9863787 0.1056852 -0.1260467
vn -0.6798897 -0.3811347 -0.6264873
vn -0.975753 0.1255686 -0.1792722
vn -0.6719074 -0.4502331 -0.5880736
vn 0.006289463 -0.6863073 -0.7272844
vn 0.02781915 -0.7227113 -0.6905899
vn 0.6947237 -0.5470521 -0.4670043
vn 0.7447023 -0.5065128 -0.4345838
vn -0.006937516 -0.8950033 -0.4460055
vn 0.7013993 -0.6666862 -0.2521281
vn -0.6996489 -0.5656412 -0.4365104
vn -0.965493 0.1393494 -0.2200115
vn 0.9974361 0.01132256 0.07066229
vn 0.9992713 -0.007343497 0.0374563
vn -0.95184 0.1398971 -0.2728174
vn -0.7158667 -0.597222 -0.3617468
vn -0.8552371 0.1288375 -0.5019665
vn -0.5972055 -0.4875008 -0.6369367
vn -0.0604911 -0.9483379 -0.3114419
vn -0.570084 -0.6077234 -0.5528802
vn 0.6778278 -0.7143805 -0.1738103
vn 0.1311594 -0.861491 -0.4905409
vn 0.708685 -0.6008009 -0.3698699
vn 0.9997452 -0.01412543 0.01760543
vn 0.7994398 -0.5100712 -0.3173691
vn 0.9538243 0.1291194 -0.2711962
vn 0.6182968 -0.6104208 -0.4950711
vn 0.052961 -0.6281049 -0.7763243
vn -0.5972055 -0.4875008 -0.6369367
vn -0.0604911 -0.9483379 -0.3114419
vn -0.003168718 -0.8577485 -0.5140598
vn -0.5972055 -0.4875008 -0.6369367
vn -0.1542436 -0.540316 -0.8272046
vn 0.05434475 -0.1872234 -0.980813
vn 0.2195339 -0.06317461 -0.9735574
vn 0.226164 -0.7046196 -0.6725779
vn 0.4923585 -0.4979327 -0.7138951
vn -0.9820692 0.1879611 -0.01451827
vn -0.9448507 0.1114201 -0.3079652
vn -0.6676742 0.3515468 0.656221
vn -0.9820692 0.1879611 -0.01451827
vn -0.7956488 0.3787419 0.4727553
vn -0.9814823 0.1492234 -0.1201039
vn -0.06284305 0.4203856 0.9051667
vn 0.08419368 0.3023928 0.9494577
vn -0.7691709 0.4865814 0.414264
vn -0.9857632 0.12009 -0.1176835
vn -0.03128576 0.6033754 0.7968433
vn -0.7452313 0.5442435 0.3852653
vn -0.01326847 0.704156 0.7099214
vn -0.03437588 0.7056886 0.7076877
vn -0.7460111 0.5436082 0.3846525
vn -0.01672563 0.8333235 0.5525326
vn -0.7126005 0.6475637 0.2699292
vn -0.9863787 0.1056852 -0.1260467
vn -0.975753 0.1255686 -0.1792722
vn 0.6948414 0.5423105 0.4723291
vn 0.6546852 0.4771403 0.5862802
vn 0.9974361 0.01132256 0.07066229
vn 0.9831522 0.1617773 0.08508824
vn -0.6356715 0.768416 0.07388223
vn -0.965493 0.1393494 -0.2200115
vn 0.04651806 0.9638562 0.2623308
vn 0.7065539 0.6628633 0.2477778
vn 0.9992713 -0.007343497 0.0374563
vn -0.6405693 0.7645419 -0.07174011
vn -0.95184 0.1398971 -0.2728174
vn -0.6869746 0.6518219 -0.3212386
vn -0.8552371 0.1288375 -0.5019665
vn -0.2530194 0.9308451 -0.2636448
vn 0.07869045 0.9895524 0.1208055
vn -0.1130603 0.9762604 -0.1847511
vn 0.7252627 0.6731052 0.1446491
vn 0.6486184 0.7481564 -0.1398434
vn 0.1873857 0.9785007 -0.0861568
vn 0.9538243 0.1291194 -0.2711962
vn 0.9997452 -0.01412543 0.01760543
vn 0.406937 0.599737 -0.6889977
vn -0.6008651 0.4730806 -0.6443258
vn -0.3915318 0.6375341 -0.6635157
vn 0.5872517 0.2359983 -0.7742353
vn 0.7447023 -0.5065128 -0.4345838
vn 0.9999247 0.003986271 0.0116118
vn 0.7681 -0.4492658 -0.4562703
vn -0.6244991 -0.3595757 -0.6933299
vn -0.3902748 0.1772257 -0.9034804
vn -0.8552371 0.1288375 -0.5019665
vn 0.450399 0.1324802 -0.8829438
vn 0.7866237 -0.3516328 -0.507521
vn 0.9538243 0.1291194 -0.2711962
vn 0.7547076 0.06079567 0.6532382
vn 0.6538013 0.2060598 0.7280681
vn 0.9846987 -0.1234894 0.122959
vn 0.9745043 -0.2225573 -0.02845137
vn 0.6307295 0.3400289 0.6975389
vn 0.9732169 -0.1756239 0.1483412
vn 0.982909 -0.004716225 0.1840319
vn 0.5486631 0.5792423 0.6028657
vn 0.7346162 0.4254281 0.5285356
vn 0.753335 0.5026788 0.4240288
vn -0.9865841 0.1114284 -0.1193129
vn -0.6542335 -0.04210191 0.7551197
vn -0.4380945 0.06573711 0.8965222
vn -0.5199141 0.5238564 0.6747324
vn -0.3716768 0.5334939 0.7597635
vn -0.5773914 0.3662585 0.7297081
vn -0.2528328 0.07426624 0.9646555
vn -0.4443088 0.5669599 0.693647
vn -0.5199141 0.5238564 0.6747324
vn -0.3234524 0.5986344 0.7328134
vn -0.3238592 0.5970469 0.7339279
vn -0.3665076 0.5954394 0.7149293
vn 0.399403 0.3972803 -0.8262237
vn 0.399032 0.3940619 -0.8279424
vn 0.5016751 -0.1514393 -0.8516973
vn 0.3953246 -0.07809893 -0.9152153
vn 0.4074032 0.08095252 -0.9096534
vn 0.1924796 0.3981233 -0.896911
vn 0.1784936 -0.06398422 -0.9818585
vn 0.367381 0.4159028 -0.831899
vn 0.399403 0.3972803 -0.8262237
vn 0.3645448 0.4040904 -0.8389387
vn -0.3716768 0.5334939 0.7597635
vn -0.2668718 0.190176 0.9447817
vn -0.1836145 0.5319753 0.8266124
vn -0.185563 0.2862876 0.940003
vn -0.1836145 0.5319753 0.8266124
vn -0.1858393 0.1339702 0.9734042
vn -0.1719249 0.4619149 0.8701015
vn -0.2221308 0.454752 0.8624724
vn -0.2179874 0.4504776 0.8657664
vn 0.1252698 0.4334016 -0.8924519
vn 0.253712 0.5561936 -0.7913778
vn 0.1998585 0.1457423 -0.9689251
vn 0.1248628 0.2108194 -0.9695176
vn 0.1918347 0.5269275 -0.8279776
vn 0.253712 0.5561936 -0.7913778
vn 0.2529576 0.6689031 -0.6989857
vn 0.1924796 0.3981233 -0.896911
vn 0.1252698 0.4334016 -0.8924519
vn 0.1424218 0.05000805 -0.988542
vn -0.1433582 -0.6434487 0.7519457
vn -0.1682273 -0.5156756 0.8401061
vn -0.17904 -0.547341 0.8175343
vn -0.17904 -0.547341 0.8175343
vn -0.1874829 -0.009902077 0.982218
vn -0.1728742 -0.4333916 0.8844694
vn -0.1830628 -0.1388924 0.9732404
vn -0.2325801 -0.198967 0.9520077
vn -0.1728742 -0.4333916 0.8844694
vn -0.2528328 0.07426624 0.9646555
vn -0.2257947 -0.402373 0.8871937
vn -0.4380945 0.06573711 0.8965222
vn -0.4073468 -0.4011205 0.82047
vn -0.6542335 -0.04210191 0.7551197
vn -0.4487757 -0.6191612 0.6443911
vn -0.6421303 -0.3629969 0.6752051
vn 0.1966943 -0.179721 -0.9638525
vn 0.175233 -0.4845713 -0.8570204
vn 0.2523376 -0.546915 -0.7982542
vn 0.1724832 -0.01085685 -0.9849526
vn 0.175233 -0.4845713 -0.8570204
vn 0.1784936 -0.06398422 -0.9818585
vn 0.2257739 -0.4535813 -0.8621428
vn 0.2304439 -0.449187 -0.8632072
vn 0.222197 -0.3282724 -0.9180772
vn 0.2523376 -0.546915 -0.7982542
vn 0.3953246 -0.07809893 -0.9152153
vn 0.4400895 -0.5143615 -0.7360391
vn 0.5016751 -0.1514393 -0.8516973
vn 0.5342152 -0.5479343 -0.6437252
vn 0.7944312 -0.4383837 -0.4203555
vn 0.8510078 -0.4682994 -0.2376579
vn 0.5928761 -0.6028987 -0.5338644
vn 0.6929874 -0.166712 -0.7014097
vn 0.8765463 -0.4742323 -0.08228148
vn 0.9694684 -0.2371261 0.06246896
vn 0.7944312 -0.4383837 -0.4203555
vn 0.975151 -0.1951016 -0.1049569
vn 0.7484657 -0.4521582 -0.485131
vn 0.8495425 -0.3418826 0.4017385
vn 0.5905055 -0.6358687 0.4969651
vn 0.8495425 -0.3418826 0.4017385
vn 0.9142454 -0.3102153 0.2606183
vn 0.4607438 -0.7482793 0.4772768
vn -0.4487757 -0.6191612 0.6443911
vn 0.02920029 -0.7679277 0.6398705
vn 0.5905055 -0.6358687 0.4969651
vn -0.9135413 -0.1758673 -0.3667603
vn -0.9070844 -0.1842451 -0.3784859
vn -0.9070844 -0.1842451 -0.3784859
vn -0.9004014 -0.1925769 -0.390117
g polySurface61_0
f 3/3/3 2/2/2 1/1/1
f 6/6/6 5/5/5 4/4/4
f 8/8/8 6/6/6 7/7/7
f 9/9/9 6/6/6 8/8/8
f 8/8/8 7/7/7 10/10/10
f 9/9/9 11/11/11 6/6/6
f 12/12/12 11/11/11 9/9/9
f 12/12/12 13/13/13 11/11/11
f 14/14/14 9/9/9 8/8/8
f 15/15/15 9/9/9 14/14/14
f 15/15/15 12/12/12 9/9/9
f 16/16/16 8/8/8 10/10/10
f 14/14/14 8/8/8 16/16/16
f 17/17/17 12/12/12 15/15/15
f 18/18/18 15/15/15 14/14/14
f 19/19/19 15/15/15 18/18/18
f 19/19/19 17/17/17 15/15/15
f 18/18/18 14/14/14 20/20/20
f 20/20/20 14/14/14 16/16/16
f 21/21/21 17/17/17 19/19/19
f 22/22/22 21/21/21 19/19/19
f 23/23/23 21/21/21 22/22/22
f 24/24/24 23/23/23 22/22/22
f 24/24/24 22/22/22 25/25/25
f 25/25/25 22/22/22 26/26/26
f 27/27/27 19/19/19 18/18/18
f 22/22/22 19/19/19 27/27/27
f 28/28/28 23/23/23 24/24/24
f 28/28/28 24/24/24 29/29/29
f 30/30/30 18/18/18 20/20/20
f 20/20/20 16/16/16 31/31/31
f 32/32/32 20/20/20 31/31/31
f 33/33/33 20/20/20 32/32/32
f 35/35/35 34/34/34 32/32/32
f 24/24/24 37/37/37 36/36/36
f 31/31/31 16/16/16 38/38/38
f 16/16/16 39/39/39 38/38/38
f 42/42/42 41/41/41 40/40/40
f 45/45/45 44/44/44 43/43/43
f 48/48/48 47/47/47 46/46/46
f 51/51/51 50/50/50 49/49/49
f 54/54/54 53/53/53 52/52/52
f 57/57/57 56/56/56 55/55/55
f 60/60/60 59/59/59 58/58/58
f 63/63/63 62/62/62 61/61/61
f 66/66/66 65/65/65 64/64/64
f 69/69/69 68/68/68 67/67/67
f 72/72/72 71/71/71 70/70/70
f 73/73/73 71/71/71 72/72/72
f 72/72/72 70/70/70 74/74/74
f 74/74/74 70/70/70 75/75/75
f 74/74/74 75/75/75 76/76/76
f 76/76/76 75/75/75 77/77/77
f 76/76/76 77/77/77 78/78/78
f 78/78/78 77/77/77 79/79/79
f 80/80/80 73/73/73 72/72/72
f 81/81/81 72/72/72 74/74/74
f 80/80/80 72/72/72 81/81/81
f 82/82/82 74/74/74 76/76/76
f 81/81/81 74/74/74 82/82/82
f 83/83/83 76/76/76 78/78/78
f 82/82/82 76/76/76 83/83/83
f 84/84/84 80/80/80 81/81/81
f 85/85/85 80/80/80 84/84/84
f 86/86/86 81/81/81 82/82/82
f 84/84/84 81/81/81 86/86/86
f 86/86/86 82/82/82 87/87/87
f 87/87/87 82/82/82 83/83/83
f 88/88/88 85/85/85 84/84/84
f 89/89/89 85/85/85 88/88/88
f 90/90/90 84/84/84 86/86/86
f 88/88/88 84/84/84 90/90/90
f 91/91/91 86/86/86 87/87/87
f 90/90/90 86/86/86 91/91/91
f 91/91/91 87/87/87 92/92/92
f 92/92/92 87/87/87 93/93/93
f 87/87/87 83/83/83 93/93/93
f 93/93/93 83/83/83 94/94/94
f 95/95/95 89/89/89 88/88/88
f 96/96/96 89/89/89 95/95/95
f 97/97/97 96/96/96 95/95/95
f 98/98/98 96/96/96 97/97/97
f 97/97/97 95/95/95 99/99/99
f 100/100/100 88/88/88 90/90/90
f 95/95/95 88/88/88 100/100/100
f 101/101/101 90/90/90 91/91/91
f 102/102/102 90/90/90 101/101/101
f 103/103/103 102/102/102 101/101/101
f 103/103/103 101/101/101 104/104/104
f 104/104/104 101/101/101 105/105/105
f 105/105/105 91/91/91 92/92/92
f 101/101/101 91/91/91 105/105/105
f 103/103/103 104/104/104 106/106/106
f 97/97/97 107/107/107 98/98/98
f 108/108/108 107/107/107 97/97/97
f 83/83/83 78/78/78 94/94/94
f 78/78/78 79/79/79 109/109/109
f 109/109/109 79/79/79 110/110/110
f 109/109/109 110/110/110 111/111/111
f 111/111/111 110/110/110 112/112/112
f 114/114/114 113/113/113 80/80/80
f 117/117/117 116/116/116 115/115/115
f 120/120/120 119/119/119 118/118/118
f 123/123/123 122/122/122 121/121/121
f 126/126/126 125/125/125 124/124/124
f 128/128/128 126/126/126 127/127/127
f 129/129/129 128/128/128 127/127/127
f 130/130/130 128/128/128 129/129/129
f 130/130/130 131/131/131 128/128/128
f 131/131/131 132/132/132 128/128/128
f 128/128/128 132/132/132 133/133/133
f 132/132/132 134/134/134 133/133/133
f 131/131/131 135/135/135 132/132/132
f 136/136/136 135/135/135 131/131/131
f 136/136/136 137/137/137 135/135/135
f 138/138/138 131/131/131 130/130/130
f 138/138/138 136/136/136 131/131/131
f 139/139/139 136/136/136 138/138/138
f 140/140/140 138/138/138 130/130/130
f 141/141/141 138/138/138 140/140/140
f 141/141/141 139/139/139 138/138/138
f 142/142/142 130/130/130 129/129/129
f 140/140/140 130/130/130 143/143/143
f 144/144/144 139/139/139 141/141/141
f 145/145/145 144/144/144 141/141/141
f 146/146/146 144/144/144 145/145/145
f 147/147/147 146/146/146 145/145/145
f 148/148/148 141/141/141 140/140/140
f 145/145/145 141/141/141 148/148/148
f 149/149/149 146/146/146 147/147/147
f 149/149/149 151/151/151 150/150/150
f 142/142/142 129/129/129 152/152/152
f 152/152/152 129/129/129 153/153/153
f 129/129/129 154/154/154 153/153/153
f 156/156/156 155/155/155 152/152/152
f 158/158/158 157/157/157 156/156/156
f 160/160/160 159/159/159 156/156/156
f 160/160/160 161/161/161 159/159/159
f 164/164/164 163/163/163 162/162/162
f 165/165/165 164/164/164 162/162/162
f 168/168/168 167/167/167 166/166/166
f 170/170/170 167/167/167 169/169/169
f 173/173/173 172/172/172 171/171/171
f 176/176/176 175/175/175 174/174/174
f 179/179/179 178/178/178 177/177/177
f 182/182/182 181/181/181 180/180/180
f 185/185/185 184/184/184 183/183/183
f 186/186/186 184/184/184 185/185/185
f 189/189/189 188/188/188 187/187/187
f 192/192/192 191/191/191 190/190/190
f 195/195/195 194/194/194 193/193/193
f 198/198/198 197/197/197 196/196/196
f 199/199/199 197/197/197 198/198/198
f 198/198/198 196/196/196 200/200/200
f 200/200/200 196/196/196 201/201/201
f 200/200/200 201/201/201 202/202/202
f 203/203/203 199/199/199 198/198/198
f 204/204/204 199/199/199 203/203/203
f 205/205/205 198/198/198 200/200/200
f 203/203/203 198/198/198 205/205/205
f 205/205/205 200/200/200 206/206/206
f 207/207/207 200/200/200 202/202/202
f 208/208/208 203/203/203 205/205/205
f 209/209/209 203/203/203 208/208/208
f 208/208/208 205/205/205 210/210/210
f 211/211/211 209/209/209 208/208/208
f 212/212/212 208/208/208 210/210/210
f 211/211/211 208/208/208 213/213/213
f 214/214/214 209/209/209 211/211/211
f 215/215/215 214/214/214 211/211/211
f 215/215/215 211/211/211 216/216/216
f 216/216/216 211/211/211 217/217/217
f 218/218/218 214/214/214 215/215/215
f 219/219/219 218/218/218 215/215/215
f 219/219/219 215/215/215 220/220/220
f 221/221/221 218/218/218 219/219/219
f 223/223/223 201/201/201 222/222/222
f 225/225/225 205/205/205 224/224/224
f 228/228/228 227/227/227 226/226/226
f 231/231/231 230/230/230 229/229/229
f 231/231/231 229/229/229 232/232/232
f 232/232/232 229/229/229 233/233/233
f 229/229/229 234/234/234 233/233/233
f 229/229/229 235/235/235 234/234/234
f 235/235/235 236/236/236 234/234/234
f 234/234/234 236/236/236 237/237/237
f 234/234/234 237/237/237 238/238/238
f 238/238/238 237/237/237 239/239/239
f 238/238/238 239/239/239 240/240/240
f 240/240/240 239/239/239 241/241/241
f 242/242/242 231/231/231 232/232/232
f 243/243/243 231/231/231 242/242/242
f 243/243/243 244/244/244 231/231/231
f 245/245/245 244/244/244 243/243/243
f 246/246/246 245/245/245 243/243/243
f 247/247/247 243/243/243 242/242/242
f 246/246/246 243/243/243 247/247/247
f 248/248/248 246/246/246 247/247/247
f 250/250/250 249/249/249 248/248/248
f 252/252/252 248/248/248 251/251/251
f 255/255/255 254/254/254 253/253/253
f 258/258/258 257/257/257 256/256/256
f 261/261/261 260/260/260 259/259/259
f 264/264/264 263/263/263 262/262/262
f 263/263/263 266/266/266 265/265/265
f 269/269/269 268/268/268 267/267/267
f 270/270/270 268/268/268 269/269/269
f 273/273/273 272/272/272 271/271/271
f 276/276/276 275/275/275 274/274/274
f 279/279/279 278/278/278 277/277/277
f 279/279/279 280/280/280 278/278/278
f 281/281/281 280/280/280 279/279/279
f 281/281/281 282/282/282 280/280/280
f 283/283/283 279/279/279 277/277/277
f 284/284/284 281/281/281 279/279/279
f 286/286/286 281/281/281 285/285/285
f 287/287/287 286/286/286 285/285/285
f 289/289/289 286/286/286 288/288/288
f 291/291/291 287/287/287 290/290/290
f 292/292/292 291/291/291 290/290/290
f 292/292/292 293/293/293 291/291/291
f 293/293/293 289/289/289 291/291/291
f 295/295/295 294/294/294 292/292/292
f 296/296/296 294/294/294 295/295/295
f 297/297/297 296/296/296 295/295/295
f 297/297/297 295/295/295 298/298/298
f 299/299/299 297/297/297 298/298/298
f 300/300/300 296/296/296 297/297/297
f 301/301/301 300/300/300 297/297/297
f 301/301/301 297/297/297 302/302/302
f 303/303/303 300/300/300 301/301/301
f 306/306/306 305/305/305 304/304/304
f 307/307/307 306/306/306 304/304/304
f 307/307/307 304/304/304 308/308/308
f 309/309/309 307/307/307 308/308/308
f 310/310/310 307/307/307 309/309/309
f 310/310/310 311/311/311 307/307/307
f 311/311/311 312/312/312 307/307/307
f 315/315/315 314/314/314 313/313/313
f 316/316/316 314/314/314 315/315/315
f 315/315/315 313/313/313 317/317/317
f 317/317/317 313/313/313 318/318/318
f 319/319/319 315/315/315 317/317/317
f 320/320/320 315/315/315 319/319/319
f 320/320/320 321/321/321 315/315/315
f 322/322/322 320/320/320 319/319/319
f 323/323/323 320/320/320 322/322/322
f 323/323/323 324/324/324 320/320/320
f 324/324/324 321/321/321 320/320/320
f 327/327/327 326/326/326 325/325/325
f 329/329/329 326/326/326 328/328/328
f 330/330/330 329/329/329 328/328/328
f 333/333/333 332/332/332 331/331/331
f 336/336/336 335/335/335 334/334/334
f 339/339/339 338/338/338 337/337/337
f 342/342/342 341/341/341 340/340/340
f 343/343/343 341/341/341 342/342/342
f 344/344/344 343/343/343 342/342/342
f 344/344/344 342/342/342 345/345/345
f 345/345/345 342/342/342 346/346/346
f 347/347/347 344/344/344 345/345/345
f 348/348/348 344/344/344 347/347/347
f 348/348/348 349/349/349 344/344/344
f 352/352/352 351/351/351 350/350/350
f 355/355/355 354/354/354 353/353/353
f 355/355/355 353/353/353 356/356/356
f 356/356/356 353/353/353 357/357/357
f 356/356/356 357/357/357 358/358/358
f 358/358/358 357/357/357 359/359/359
f 360/360/360 355/355/355 356/356/356
f 361/361/361 356/356/356 358/358/358
f 362/362/362 356/356/356 361/361/361
f 358/358/358 359/359/359 363/363/363
f 363/363/363 359/359/359 364/364/364
f 363/363/363 364/364/364 365/365/365
f 366/366/366 358/358/358 363/363/363
f 361/361/361 358/358/358 366/366/366
f 367/367/367 363/363/363 365/365/365
f 366/366/366 363/363/363 367/367/367
f 368/368/368 361/361/361 366/366/366
f 369/369/369 366/366/366 367/367/367
f 368/368/368 366/366/366 369/369/369
f 370/370/370 368/368/368 369/369/369
f 371/371/371 361/361/361 368/368/368
f 371/371/371 362/362/362 361/361/361
f 372/372/372 371/371/371 368/368/368
f 373/373/373 371/371/371 372/372/372
f 373/373/373 374/374/374 371/371/371
f 374/374/374 375/375/375 371/371/371
f 376/376/376 374/374/374 373/373/373
f 376/376/376 377/377/377 374/374/374
f 377/377/377 378/378/378 374/374/374
f 374/374/374 378/378/378 379/379/379
f 378/378/378 355/355/355 379/379/379
f 380/380/380 377/377/377 376/376/376
f 380/380/380 381/381/381 377/377/377
f 382/382/382 381/381/381 380/380/380
f 383/383/383 380/380/380 376/376/376
f 384/384/384 380/380/380 383/383/383
f 385/385/385 376/376/376 373/373/373
f 383/383/383 376/376/376 385/385/385
f 385/385/385 373/373/373 386/386/386
f 386/386/386 373/373/373 387/387/387
f 386/386/386 387/387/387 388/388/388
f 388/388/388 387/387/387 389/389/389
f 390/390/390 384/384/384 383/383/383
f 391/391/391 384/384/384 390/390/390
f 392/392/392 391/391/391 390/390/390
f 393/393/393 391/391/391 392/392/392
f 392/392/392 390/390/390 394/394/394
f 395/395/395 383/383/383 385/385/385
f 390/390/390 383/383/383 395/395/395
f 396/396/396 390/390/390 395/395/395
f 397/397/397 385/385/385 386/386/386
f 395/395/395 385/385/385 397/397/397
f 398/398/398 395/395/395 397/397/397
f 399/399/399 395/395/395 398/398/398
f 398/398/398 397/397/397 400/400/400
f 400/400/400 397/397/397 401/401/401
f 401/401/401 386/386/386 388/388/388
f 397/397/397 386/386/386 401/401/401
f 392/392/392 402/402/402 393/393/393
f 398/398/398 400/400/400 403/403/403
f 389/389/389 405/405/405 404/404/404
f 400/400/400 407/407/407 406/406/406
f 389/389/389 409/409/409 408/408/408
f 411/411/411 410/410/410 355/355/355
f 414/414/414 413/413/413 412/412/412
f 417/417/417 416/416/416 415/415/415
f 420/420/420 419/419/419 418/418/418
f 423/423/423 422/422/422 421/421/421
f 426/426/426 425/425/425 424/424/424
f 429/429/429 428/428/428 427/427/427
f 430/430/430 428/428/428 429/429/429
f 429/429/429 427/427/427 431/431/431
f 432/432/432 430/430/430 429/429/429
f 433/433/433 430/430/430 432/432/432
f 432/432/432 429/429/429 434/434/434
f 435/435/435 433/433/433 432/432/432
f 436/436/436 433/433/433 435/435/435
f 437/437/437 432/432/432 434/434/434
f 435/435/435 432/432/432 437/437/437
f 436/436/436 438/438/438 433/433/433
f 439/439/439 438/438/438 436/436/436
f 440/440/440 436/436/436 435/435/435
f 441/441/441 436/436/436 440/440/440
f 441/441/441 439/439/439 436/436/436
f 440/440/440 435/435/435 442/442/442
f 443/443/443 439/439/439 441/441/441
f 444/444/444 443/443/443 441/441/441
f 445/445/445 441/441/441 440/440/440
f 444/444/444 441/441/441 446/446/446
f 447/447/447 444/444/444 446/446/446
f 448/448/448 444/444/444 447/447/447
f 445/445/445 440/440/440 449/449/449
f 449/449/449 440/440/440 442/442/442
f 450/450/450 445/445/445 449/449/449
f 449/449/449 442/442/442 451/451/451
f 452/452/452 449/449/449 451/451/451
f 453/453/453 449/449/449 452/452/452
f 451/451/451 442/442/442 454/454/454
f 442/442/442 455/455/455 454/454/454
f 442/442/442 435/435/435 456/456/456
f 458/458/458 457/457/457 448/448/448
f 454/454/454 460/460/460 459/459/459
f 460/460/460 461/461/461 459/459/459
f 463/463/463 427/427/427 462/462/462
f 466/466/466 465/465/465 464/464/464
f 469/469/469 468/468/468 467/467/467
f 472/472/472 471/471/471 470/470/470
f 471/471/471 473/473/473 470/470/470
f 470/470/470 475/475/475 474/474/474
f 470/470/470 474/474/474 476/476/476
f 476/476/476 474/474/474 477/477/477
f 479/479/479 478/478/478 474/474/474
f 474/474/474 478/478/478 480/480/480
f 483/483/483 482/482/482 481/481/481
f 484/484/484 482/482/482 483/483/483
f 483/483/483 486/486/486 485/485/485
f 487/487/487 483/483/483 485/485/485
f 489/489/489 483/483/483 488/488/488
f 491/491/491 489/489/489 490/490/490
f 493/493/493 489/489/489 492/492/492
f 493/493/493 494/494/494 489/489/489
f 495/495/495 494/494/494 493/493/493
f 496/496/496 495/495/495 493/493/493
f 497/497/497 495/495/495 496/496/496
f 498/498/498 493/493/493 492/492/492
f 496/496/496 493/493/493 499/499/499
f 500/500/500 497/497/497 496/496/496
f 501/501/501 497/497/497 500/500/500
f 502/502/502 501/501/501 500/500/500
f 503/503/503 501/501/501 502/502/502
f 504/504/504 496/496/496 499/499/499
f 500/500/500 496/496/496 504/504/504
f 505/505/505 500/500/500 504/504/504
f 508/508/508 507/507/507 506/506/506
f 508/508/508 506/506/506 509/509/509
f 510/510/510 508/508/508 509/509/509
f 511/511/511 508/508/508 510/510/510
f 510/510/510 509/509/509 512/512/512
f 512/512/512 509/509/509 513/513/513
f 509/509/509 514/514/514 513/513/513
f 509/509/509 506/506/506 514/514/514
f 513/513/513 514/514/514 515/515/515
f 512/512/512 513/513/513 516/516/516
f 516/516/516 513/513/513 517/517/517
f 517/517/517 515/515/515 518/518/518
f 519/519/519 510/510/510 512/512/512
f 520/520/520 510/510/510 519/519/519
f 520/520/520 521/521/521 510/510/510
f 522/522/522 520/520/520 519/519/519
f 523/523/523 520/520/520 522/522/522
f 523/523/523 524/524/524 520/520/520
f 524/524/524 525/525/525 520/520/520
f 526/526/526 523/523/523 522/522/522
f 529/529/529 528/528/528 527/527/527
f 530/530/530 529/529/529 527/527/527
f 532/532/532 531/531/531 530/530/530
f 531/531/531 533/533/533 530/530/530
f 535/535/535 534/534/534 532/532/532
f 537/537/537 532/532/532 536/536/536
f 537/537/537 539/539/539 538/538/538
f 542/542/542 541/541/541 540/540/540
f 545/545/545 544/544/544 543/543/543
f 543/543/543 547/547/547 546/546/546
f 547/547/547 548/548/548 546/546/546
f 545/545/545 550/550/550 549/549/549
f 543/543/543 552/552/552 551/551/551
f 552/552/552 554/554/554 553/553/553
f 554/554/554 555/555/555 553/553/553
f 552/552/552 557/557/557 556/556/556
f 560/560/560 559/559/559 558/558/558
f 563/563/563 562/562/562 561/561/561
f 561/561/561 562/562/562 564/564/564
f 566/566/566 565/565/565 430/430/430
f 569/569/569 568/568/568 567/567/567
f 570/570/570 568/568/568 569/569/569
f 570/570/570 571/571/571 568/568/568
f 572/572/572 571/571/571 570/570/570
f 573/573/573 570/570/570 569/569/569
f 574/574/574 570/570/570 573/573/573
f 574/574/574 572/572/572 570/570/570
f 575/575/575 572/572/572 574/574/574
f 576/576/576 575/575/575 574/574/574
f 577/577/577 575/575/575 576/576/576
f 578/578/578 577/577/577 576/576/576
f 579/579/579 577/577/577 578/578/578
f 569/569/569 567/567/567 580/580/580
f 580/580/580 567/567/567 581/581/581
f 582/582/582 569/569/569 580/580/580
f 573/573/573 569/569/569 582/582/582
f 582/582/582 580/580/580 583/583/583
f 583/583/583 580/580/580 584/584/584
f 580/580/580 585/585/585 584/584/584
f 586/586/586 582/582/582 583/583/583
f 587/587/587 582/582/582 586/586/586
f 587/587/587 573/573/573 582/582/582
f 588/588/588 587/587/587 586/586/586
f 589/589/589 587/587/587 588/588/588
f 590/590/590 589/589/589 588/588/588
f 591/591/591 589/589/589 590/590/590
f 591/591/591 592/592/592 589/589/589
f 593/593/593 592/592/592 591/591/591
f 593/593/593 594/594/594 592/592/592
f 595/595/595 594/594/594 593/593/593
f 596/596/596 595/595/595 593/593/593
f 597/597/597 595/595/595 596/596/596
f 598/598/598 593/593/593 591/591/591
f 596/596/596 593/593/593 598/598/598
f 599/599/599 591/591/591 590/590/590
f 598/598/598 591/591/591 599/599/599
f 597/597/597 600/600/600 595/595/595
f 601/601/601 600/600/600 597/597/597
f 602/602/602 598/598/598 599/599/599
f 603/603/603 598/598/598 602/602/602
f 603/603/603 596/596/596 598/598/598
f 604/604/604 603/603/603 602/602/602
f 605/605/605 603/603/603 604/604/604
f 606/606/606 597/597/597 596/596/596
f 606/606/606 596/596/596 603/603/603
f 607/607/607 606/606/606 603/603/603
f 608/608/608 601/601/601 597/597/597
f 608/608/608 597/597/597 606/606/606
f 609/609/609 608/608/608 606/606/606
f 610/610/610 608/608/608 609/609/609
f 611/611/611 601/601/601 608/608/608
f 612/612/612 611/611/611 608/608/608
f 613/613/613 611/611/611 612/612/612
f 614/614/614 576/576/576 592/592/592
f 592/592/592 576/576/576 615/615/615
f 592/592/592 615/615/615 589/589/589
f 589/589/589 615/615/615 587/587/587
f 576/576/576 574/574/574 615/615/615
f 615/615/615 574/574/574 573/573/573
f 615/615/615 573/573/573 587/587/587
f 618/618/618 617/617/617 616/616/616
f 621/621/621 620/620/620 619/619/619
f 624/624/624 623/623/623 622/622/622
f 584/584/584 626/626/626 625/625/625
f 629/629/629 628/628/628 627/627/627
f 630/630/630 628/628/628 629/629/629
f 629/629/629 627/627/627 631/631/631
f 631/631/631 627/627/627 632/632/632
f 633/633/633 630/630/630 629/629/629
f 634/634/634 630/630/630 633/633/633
f 635/635/635 629/629/629 631/631/631
f 633/633/633 629/629/629 635/635/635
f 636/636/636 634/634/634 633/633/633
f 636/636/636 633/633/633 637/637/637
f 637/637/637 633/633/633 635/635/635
f 638/638/638 636/636/636 637/637/637
f 639/639/639 636/636/636 638/638/638
f 640/640/640 639/639/639 638/638/638
f 641/641/641 639/639/639 640/640/640
f 641/641/641 642/642/642 639/639/639
f 643/643/643 642/642/642 641/641/641
f 640/640/640 638/638/638 644/644/644
f 644/644/644 638/638/638 645/645/645
f 638/638/638 637/637/637 645/645/645
f 644/644/644 645/645/645 646/646/646
f 646/646/646 645/645/645 647/647/647
f 648/648/648 643/643/643 641/641/641
f 649/649/649 643/643/643 648/648/648
f 650/650/650 641/641/641 640/640/640
f 648/648/648 641/641/641 650/650/650
f 651/651/651 640/640/640 644/644/644
f 650/650/650 640/640/640 651/651/651
f 652/652/652 644/644/644 646/646/646
f 651/651/651 644/644/644 652/652/652
f 653/653/653 649/649/649 648/648/648
f 654/654/654 649/649/649 653/653/653
f 655/655/655 654/654/654 653/653/653
f 656/656/656 654/654/654 655/655/655
f 655/655/655 653/653/653 657/657/657
f 658/658/658 648/648/648 650/650/650
f 653/653/653 648/648/648 658/658/658
f 659/659/659 653/653/653 658/658/658
f 660/660/660 650/650/650 651/651/651
f 658/658/658 650/650/650 660/660/660
f 661/661/661 658/658/658 660/660/660
f 662/662/662 658/658/658 661/661/661
f 661/661/661 660/660/660 663/663/663
f 663/663/663 660/660/660 664/664/664
f 664/664/664 651/651/651 652/652/652
f 660/660/660 651/651/651 664/664/664
f 659/659/659 661/661/661 665/665/665
f 655/655/655 666/666/666 656/656/656
f 657/657/657 667/667/667 655/655/655
f 661/661/661 663/663/663 668/668/668
f 646/646/646 670/670/670 669/669/669
f 669/669/669 670/670/670 671/671/671
f 674/674/674 673/673/673 672/672/672
f 677/677/677 676/676/676 675/675/675
f 679/679/679 632/632/632 678/678/678
f 631/631/631 632/632/632 679/679/679
f 679/679/679 678/678/678 680/680/680
f 680/680/680 678/678/678 681/681/681
f 682/682/682 631/631/631 679/679/679
f 635/635/635 631/631/631 682/682/682
f 683/683/683 679/679/679 680/680/680
f 682/682/682 679/679/679 683/683/683
f 684/684/684 682/682/682 683/683/683
f 685/685/685 635/635/635 682/682/682
f 685/685/685 682/682/682 686/686/686
f 687/687/687 685/685/685 686/686/686
f 637/637/637 635/635/635 685/685/685
f 645/645/645 637/637/637 685/685/685
f 645/645/645 685/685/685 647/647/647
f 639/639/639 688/688/688 636/636/636
f 642/642/642 688/688/688 639/639/639
f 688/688/688 634/634/634 636/636/636
f 691/691/691 690/690/690 689/689/689
f 692/692/692 690/690/690 691/691/691
f 693/693/693 691/691/691 689/689/689
f 692/692/692 694/694/694 690/690/690
f 697/697/697 696/696/696 695/695/695
f 698/698/698 697/697/697 695/695/695
f 699/699/699 697/697/697 698/698/698
f 702/702/702 701/701/701 700/700/700
f 703/703/703 701/701/701 702/702/702
f 702/702/702 700/700/700 704/704/704
f 703/703/703 705/705/705 701/701/701
f 706/706/706 705/705/705 703/703/703
f 709/709/709 708/708/708 707/707/707
f 712/712/712 711/711/711 710/710/710
f 712/712/712 713/713/713 711/711/711
f 716/716/716 715/715/715 714/714/714
f 716/716/716 717/717/717 715/715/715
f 718/718/718 717/717/717 716/716/716
f 721/721/721 720/720/720 719/719/719
f 721/721/721 719/719/719 722/722/722
f 725/725/725 724/724/724 723/723/723
f 728/728/728 727/727/727 726/726/726
f 731/731/731 730/730/730 729/729/729
f 734/734/734 733/733/733 732/732/732
f 737/737/737 736/736/736 735/735/735
f 739/739/739 738/738/738 737/737/737
f 739/739/739 740/740/740 738/738/738
f 741/741/741 740/740/740 739/739/739
f 741/741/741 742/742/742 740/740/740
f 743/743/743 742/742/742 741/741/741
f 743/743/743 744/744/744 742/742/742
f 747/747/747 746/746/746 745/745/745
f 750/750/750 749/749/749 748/748/748
f 748/748/748 749/749/749 751/751/751
f 751/751/751 749/749/749 752/752/752
f 755/755/755 754/754/754 753/753/753
f 756/756/756 754/754/754 755/755/755
f 757/757/757 756/756/756 755/755/755
f 758/758/758 756/756/756 757/757/757
f 759/759/759 758/758/758 757/757/757
f 760/760/760 758/758/758 759/759/759
f 761/761/761 758/758/758 760/760/760
f 762/762/762 759/759/759 757/757/757
f 765/765/765 764/764/764 763/763/763
f 765/765/765 766/766/766 764/764/764
f 767/767/767 766/766/766 765/765/765
f 763/763/763 764/764/764 768/768/768
f 771/771/771 770/770/770 769/769/769
f 769/769/769 770/770/770 772/772/772
f 775/775/775 774/774/774 773/773/773
f 778/778/778 777/777/777 776/776/776
f 779/779/779 777/777/777 778/778/778
