g PullBone_mesh
v 151.3852 260.6018 -901.9872
v 158.0861 272.5009 -909.6229
v 152.8872 268.9334 -911.9656
v 158.7392 265.0655 -897.6388
v 159.0134 275.1756 -919.4197
v 152.8872 268.9334 -911.9656
v 159.0134 275.1756 -919.4197
v 155.2812 272.2181 -920.3974
v 146.5314 270.8724 -911.1565
v 151.3852 260.6018 -901.9872
v 152.8872 268.9334 -911.9656
v 142.3139 262.7534 -899.5385
v 143.988 277.5734 -908.0351
v 142.3139 262.7534 -899.5385
v 146.5314 270.8724 -911.1565
v 149.1546 279.4986 -920.0827
v 150.7736 274.0124 -920.7041
v 152.8872 268.9334 -911.9656
v 155.2812 272.2181 -920.3974
v 142.3139 262.7534 -899.5385
v 143.988 277.5734 -908.0351
v 140.5966 269.3686 -892.7412
v 138.8255 249.8037 -878.679
v 140.5966 269.3686 -892.7412
v 142.3139 262.7534 -899.5385
v 141.1127 241.4472 -890.942
v 139.3427 233.4764 -871.7178
v 138.8255 249.8037 -878.679
v 141.1127 241.4472 -890.942
v 140.9752 227.1046 -886.8952
v 140.9501 221.2752 -867.6888
v 140.9752 227.1046 -886.8952
v 141.0253 216.7349 -887.8813
v 140.6433 189.8323 -888.9933
v 140.6433 189.8323 -888.9933
v 139.7231 183.0036 -865.6042
v 139.7742 166.3128 -892.3446
v 159.0134 275.1756 -919.4197
v 156.8047 274.4058 -922.5748
v 155.2812 272.2181 -920.3974
v 156.8047 274.4058 -922.5748
v 159.0134 275.1756 -919.4197
v 158.9683 275.9562 -921.9114
v 141.1127 241.4472 -890.942
v 140.9752 227.1046 -886.8952
v 152.4004 240.4753 -895.5231
v 151.3852 260.6018 -901.9872
v 140.9752 227.1046 -886.8952
v 153.5257 226.8047 -892.6912
v 152.4004 240.4753 -895.5231
v 142.3139 262.7534 -899.5385
v 141.1127 241.4472 -890.942
v 151.3852 260.6018 -901.9872
v 156.8047 274.4058 -922.5748
v 158.9683 275.9562 -921.9114
v 155.0412 277.6263 -923.755
v 154.4113 275.457 -922.7996
v 150.7736 274.0124 -920.7041
v 155.2812 272.2181 -920.3974
v 156.8047 274.4058 -922.5748
v 152.3499 279.158 -922.1255
v 149.1546 279.4986 -920.0827
v 156.8047 274.4058 -922.5748
v 155.0412 277.6263 -923.755
v 152.3499 279.158 -922.1255
v 140.9752 227.1046 -886.8952
v 141.0253 216.7349 -887.8813
v 153.5257 226.8047 -892.6912
v 154.5025 216.9283 -894.569
v 157.3417 195.4731 -897.0292
v 140.6433 189.8323 -888.9933
v 140.6433 189.8323 -888.9933
v 159.0201 176.2614 -901.4467
v 157.3417 195.4731 -897.0292
v 139.7742 166.3128 -892.3446
v 139.7742 166.3128 -892.3446
v 139.7231 183.0036 -865.6042
v 141.326 153.5594 -872.668
v 156.704 183.384 -856.3011
v 141.326 153.5594 -872.668
v 139.7231 183.0036 -865.6042
v 162.1237 150.7545 -862.0938
v 156.704 183.384 -856.3011
v 140.9501 221.2752 -867.6888
v 151.9807 225.0426 -858.8492
v 150.361 152.2216 -882.3523
v 139.7742 166.3128 -892.3446
v 141.326 153.5594 -872.668
v 148.5183 166.2625 -900.3632
v 158.0067 151.0896 -890.5472
v 155.5959 163.8986 -909.3073
v 139.7742 166.3128 -892.3446
v 169.2716 144.4264 -884.189
v 165.9953 147.3268 -874.0617
v 173.5926 140.6009 -897.5461
v 173.5926 140.6009 -897.5461
v 157.5307 147.2745 -903.5271
v 177.4806 138.2925 -906.2841
v 157.5307 147.2745 -903.5271
v 158.8878 144.6547 -914.5829
v 157.5307 147.2745 -903.5271
v 153.2228 162.7941 -922.5989
v 153.382 164.7881 -916.7247
v 155.9772 162.7555 -929.1337
v 141.326 153.5594 -872.668
v 162.1237 150.7545 -862.0938
v 150.361 152.2216 -882.3523
v 165.9953 147.3268 -874.0617
v 162.1237 150.7545 -862.0938
v 158.0067 151.0896 -890.5472
v 165.9953 147.3268 -874.0617
v 169.2716 144.4264 -884.189
v 194.0148 157.2557 -890.0281
v 173.5926 140.6009 -897.5461
v 196.8199 152.0277 -903.9322
v 189.7488 159.0033 -879.3877
v 165.9953 147.3268 -874.0617
v 177.4806 138.2925 -906.2841
v 198.978 149.9704 -911.2021
v 177.4806 138.2925 -906.2841
v 198.7916 149.3275 -916.9034
v 162.1237 150.7545 -862.0938
v 181.6224 159.42 -872.3733
v 165.9953 147.3268 -874.0617
v 158.0067 151.0896 -890.5472
v 157.5307 147.2745 -903.5271
v 155.5959 163.8986 -909.3073
v 153.382 164.7881 -916.7247
v 155.5959 163.8986 -909.3073
v 186.1553 173.0882 -899.0057
v 189.7488 159.0033 -879.3877
v 179.8177 173.4564 -890.8724
v 194.0148 157.2557 -890.0281
v 191.5184 172.7765 -905.8883
v 181.6224 159.42 -872.3733
v 179.8177 173.4564 -890.8724
v 162.3099 175.4086 -910.0832
v 186.1553 173.0882 -899.0057
v 165.0938 174.6871 -917.3918
v 191.5184 172.7765 -905.8883
v 192.1259 169.3503 -918.5723
v 159.0201 176.2614 -901.4467
v 192.1259 169.3503 -918.5723
v 169.0513 173.5333 -928.1718
v 169.0513 173.5333 -928.1718
v 172.0839 174.5788 -933.7352
v 155.9772 162.7555 -929.1337
v 153.2228 162.7941 -922.5989
v 165.0938 174.6871 -917.3918
v 153.382 164.7881 -916.7247
v 155.5959 163.8986 -909.3073
v 162.3099 175.4086 -910.0832
v 155.5959 163.8986 -909.3073
v 165.0938 174.6871 -917.3918
v 155.5959 163.8986 -909.3073
v 148.5183 166.2625 -900.3632
v 196.8199 152.0277 -903.9322
v 191.5184 172.7765 -905.8883
v 192.1259 169.3503 -918.5723
v 194.0148 157.2557 -890.0281
v 192.1259 169.3503 -918.5723
v 198.978 149.9704 -911.2021
v 192.1259 169.3503 -918.5723
v 198.7916 149.3275 -916.9034
v 194.2404 168.8321 -926.222
v 192.1259 169.3503 -918.5723
v 172.0839 174.5788 -933.7352
v 152.4004 240.4753 -895.5231
v 164.6707 231.2245 -885.6996
v 162.1694 244.911 -889.4906
v 153.5257 226.8047 -892.6912
v 151.3852 260.6018 -901.9872
v 152.4004 240.4753 -895.5231
v 162.1694 244.911 -889.4906
v 158.7392 265.0655 -897.6388
v 159.0201 176.2614 -901.4467
v 179.8177 173.4564 -890.8724
v 174.3226 195.8532 -887.7261
v 157.3417 195.4731 -897.0292
v 166.6574 221.3365 -886.873
v 154.5025 216.9283 -894.569
v 153.5257 226.8047 -892.6912
v 164.6707 231.2245 -885.6996
v 174.3226 195.8532 -887.7261
v 179.8177 173.4564 -890.8724
v 173.4023 189.0247 -864.3371
v 181.6224 159.42 -872.3733
v 173.4023 189.0247 -864.3371
v 164.0465 225.7457 -864.1069
v 166.6574 221.3365 -886.873
v 164.6707 231.2245 -885.6996
v 162.284 237.3945 -869.6603
v 162.1694 244.911 -889.4906
v 164.0465 225.7457 -864.1069
v 173.4023 189.0247 -864.3371
v 181.6224 159.42 -872.3733
v 156.704 183.384 -856.3011
v 173.4023 189.0247 -864.3371
v 151.9807 225.0426 -858.8492
v 173.4023 189.0247 -864.3371
v 164.0465 225.7457 -864.1069
v 162.1237 150.7545 -862.0938
v 156.704 183.384 -856.3011
v 181.6224 159.42 -872.3733
v 151.9807 225.0426 -858.8492
v 162.284 237.3945 -869.6603
v 164.0465 225.7457 -864.1069
v 162.284 237.3945 -869.6603
v 151.9807 225.0426 -858.8492
v 149.8393 237.5267 -864.0662
v 159.8821 253.2676 -877.2276
v 148.5945 254.2394 -872.6465
v 157.0219 271.6806 -890.8415
v 148.5945 254.2394 -872.6465
v 147.9506 273.8322 -888.3926
v 162.1694 244.911 -889.4906
v 162.284 237.3945 -869.6603
v 159.8821 253.2676 -877.2276
v 158.7392 265.0655 -897.6388
v 157.0219 271.6806 -890.8415
v 156.9292 278.0073 -906.4708
v 157.0219 271.6806 -890.8415
v 158.0861 272.5009 -909.6229
v 158.7392 265.0655 -897.6388
v 156.9292 278.0073 -906.4708
v 158.2379 279.9274 -918.7486
v 156.9292 278.0073 -906.4708
v 159.0134 275.1756 -919.4197
v 158.2379 279.9274 -918.7486
v 158.2379 279.9274 -918.7486
v 156.9427 279.8978 -921.187
v 156.9292 278.0073 -906.4708
v 157.0219 271.6806 -890.8415
v 150.5735 279.9464 -905.6615
v 153.7303 281.7218 -919.0553
v 147.9506 273.8322 -888.3926
v 157.0219 271.6806 -890.8415
v 156.9292 278.0073 -906.4708
v 158.2379 279.9274 -918.7486
v 140.5966 269.3686 -892.7412
v 150.5735 279.9464 -905.6615
v 147.9506 273.8322 -888.3926
v 140.5966 269.3686 -892.7412
v 143.988 277.5734 -908.0351
v 149.1546 279.4986 -920.0827
v 153.7303 281.7218 -919.0553
v 149.1546 279.4986 -920.0827
v 152.3499 279.158 -922.1255
v 148.5945 254.2394 -872.6465
v 140.5966 269.3686 -892.7412
v 147.9506 273.8322 -888.3926
v 148.5945 254.2394 -872.6465
v 138.8255 249.8037 -878.679
v 149.8393 237.5267 -864.0662
v 153.7303 281.7218 -919.0553
v 156.9427 279.8978 -921.187
v 158.2379 279.9274 -918.7486
v 154.3217 280.8652 -921.4669
v 154.3217 280.8652 -921.4669
v 153.7303 281.7218 -919.0553
v 152.3499 279.158 -922.1255
v 156.9427 279.8978 -921.187
v 158.9683 275.9562 -921.9114
v 159.0134 275.1756 -919.4197
v 154.3217 280.8652 -921.4669
v 152.3499 279.158 -922.1255
v 155.0412 277.6263 -923.755
v 156.9427 279.8978 -921.187
v 154.3217 280.8652 -921.4669
v 155.0412 277.6263 -923.755
v 158.9683 275.9562 -921.9114
v 156.9427 279.8978 -921.187
v 155.0412 277.6263 -923.755
v 139.3427 233.4764 -871.7178
v 138.8255 249.8037 -878.679
v 149.8393 237.5267 -864.0662
v 151.9807 225.0426 -858.8492
v 139.3427 233.4764 -871.7178
v 151.9807 225.0426 -858.8492
v 140.9501 221.2752 -867.6888
v 140.9501 221.2752 -867.6888
v 156.704 183.384 -856.3011
v 139.7231 183.0036 -865.6042
v 159.0201 176.2614 -901.4467
v 148.5183 166.2625 -900.3632
v 162.3099 175.4086 -910.0832
v 148.5183 166.2625 -900.3632
v 159.0201 176.2614 -901.4467
v 139.7742 166.3128 -892.3446
v 174.0209 166.8356 -933.1953
v 194.2404 168.8321 -926.222
v 172.0839 174.5788 -933.7352
v 189.0749 162.8049 -927.2173
v 172.0839 174.5788 -933.7352
v 163.491 160.784 -927.2218
v 174.0209 166.8356 -933.1953
v 163.491 160.784 -927.2218
v 172.0839 174.5788 -933.7352
v 155.9772 162.7555 -929.1337
v 189.0749 162.8049 -927.2173
v 198.7916 149.3275 -916.9034
v 194.2404 168.8321 -926.222
v 189.0749 162.8049 -927.2173
v 191.4884 151.7634 -919.0781
v 191.4884 151.7634 -919.0781
v 177.4806 138.2925 -906.2841
v 198.7916 149.3275 -916.9034
v 177.4806 138.2925 -906.2841
v 176.9923 146.0222 -908.2872
v 164.6379 150.2142 -914.4158
v 158.8878 144.6547 -914.5829
v 155.9772 162.7555 -929.1337
v 155.9772 162.7555 -929.1337
v 164.6379 150.2142 -914.4158
v 163.491 160.784 -927.2218
v 173.3031 150.8831 -954.2345
v 174.0209 166.8356 -933.1953
v 163.491 160.784 -927.2218
v 182.7322 156.302 -959.5834
v 172.8398 143.081 -974.1773
v 177.5477 146.9306 -979.7385
v 187.7059 151.7036 -954.9728
v 189.0749 162.8049 -927.2173
v 174.0209 166.8356 -933.1953
v 182.7322 156.302 -959.5834
v 190.0291 143.5886 -974.7821
v 190.3387 140.7591 -969.3973
v 177.5477 146.9306 -979.7385
v 189.867 141.8165 -947.6846
v 191.4884 151.7634 -919.0781
v 189.0749 162.8049 -927.2173
v 187.7059 151.7036 -954.9728
v 190.3387 140.7591 -969.3973
v 189.867 141.8165 -947.6846
v 189.867 141.8165 -947.6846
v 190.3387 140.7591 -969.3973
v 174.8545 127.3641 -959.347
v 182.2379 136.2514 -937.4387
v 191.4884 151.7634 -919.0781
v 189.867 141.8165 -947.6846
v 174.3301 141.4183 -942.7675
v 163.491 160.784 -927.2218
v 164.6379 150.2142 -914.4158
v 173.3031 150.8831 -954.2345
v 174.3301 141.4183 -942.7675
v 173.7906 134.3174 -963.5598
v 173.3031 150.8831 -954.2345
v 172.8398 143.081 -974.1773
v 174.8545 127.3641 -959.347
v 182.2379 136.2514 -937.4387
v 164.6379 150.2142 -914.4158
v 182.2379 136.2514 -937.4387
v 176.9923 146.0222 -908.2872
v 182.2379 136.2514 -937.4387
v 176.9923 146.0222 -908.2872
v 191.4884 151.7634 -919.0781
vt 0.025363 0.622041
vt 0.033704 0.604325
vt 0.023406 0.601815
vt 0.039988 0.626243
vt 0.033157 0.58587
vt 0.023406 0.601815
vt 0.033157 0.58587
vt 0.025884 0.585676
vt 0.010849 0.602736
vt 0.025363 0.622041
vt 0.023406 0.601815
vt 0.007854 0.625867
vt 0.002433 0.606521
vt 0.007854 0.625867
vt 0.010849 0.602736
vt 0.01069 0.58416
vt 0.016732 0.584609
vt 0.023406 0.601815
vt 0.025884 0.585676
vt 0.007854 0.625867
vt 0.002433 0.606521
vt 0.000999 0.63636
vt 0.008911 0.666566
vt 0.000999 0.63636
vt 0.007854 0.625867
vt 0.017666 0.646779
vt 0.018945 0.682893
vt 0.008911 0.666566
vt 0.017666 0.646779
vt 0.025351 0.657551
vt 0.0285 0.692868
vt 0.025351 0.657551
vt 0.031108 0.658366
vt 0.044906 0.66296
vt 0.044906 0.66296
vt 0.046928 0.705153
vt 0.055779 0.662792
vt 0.033157 0.58587
vt 0.028624 0.578202
vt 0.025884 0.585676
vt 0.028624 0.578202
vt 0.033157 0.58587
vt 0.03361 0.577984
vt 0.017666 0.646779
vt 0.025351 0.657551
vt 0.038292 0.638874
vt 0.025363 0.622041
vt 0.025351 0.657551
vt 0.04771 0.647375
vt 0.038292 0.638874
vt 0.007854 0.625867
vt 0.017666 0.646779
vt 0.025363 0.622041
vt 0.028624 0.578202
vt 0.03361 0.577984
vt 0.027266 0.571981
vt 0.023707 0.577493
vt 0.016732 0.584609
vt 0.025884 0.585676
vt 0.028624 0.578202
vt 0.017886 0.577644
vt 0.01069 0.58416
vt 0.028624 0.578202
vt 0.027266 0.571981
vt 0.017886 0.577644
vt 0.025351 0.657551
vt 0.031108 0.658366
vt 0.04771 0.647375
vt 0.056187 0.645574
vt 0.071017 0.647588
vt 0.044906 0.66296
vt 0.044906 0.66296
vt 0.083843 0.644677
vt 0.071017 0.647588
vt 0.055779 0.662792
vt 0.055779 0.662792
vt 0.046928 0.705153
vt 0.065043 0.699489
vt 0.076176 0.721203
vt 0.065043 0.699489
vt 0.046928 0.705153
vt 0.102035 0.718184
vt 0.076176 0.721203
vt 0.0285 0.692868
vt 0.045929 0.707618
vt 0.081185 0.683219
vt 0.055779 0.662792
vt 0.065043 0.699489
vt 0.070855 0.649003
vt 0.09483 0.669466
vt 0.084238 0.634202
vt 0.055779 0.662792
vt 0.117358 0.681858
vt 0.110345 0.698483
vt 0.12658 0.659995
vt 0.12658 0.659995
vt 0.095924 0.648202
vt 0.134307 0.645686
vt 0.095924 0.648202
vt 0.099544 0.629989
vt 0.095924 0.648202
vt 0.080721 0.611637
vt 0.079978 0.621221
vt 0.085474 0.600417
vt 0.065043 0.699489
vt 0.102035 0.718184
vt 0.081185 0.683219
vt 0.110345 0.698483
vt 0.102035 0.718184
vt 0.09483 0.669466
vt 0.110345 0.698483
vt 0.117358 0.681858
vt 0.153464 0.668912
vt 0.12658 0.659995
vt 0.160745 0.646354
vt 0.145313 0.686756
vt 0.110345 0.698483
vt 0.134307 0.645686
vt 0.165402 0.634433
vt 0.134307 0.645686
vt 0.165386 0.624853
vt 0.102035 0.718184
vt 0.131168 0.698698
vt 0.110345 0.698483
vt 0.09483 0.669466
vt 0.095924 0.648202
vt 0.084238 0.634202
vt 0.079978 0.621221
vt 0.084238 0.634202
vt 0.132307 0.649674
vt 0.145313 0.686756
vt 0.121184 0.663627
vt 0.153464 0.668912
vt 0.141716 0.637871
vt 0.131168 0.698698
vt 0.121184 0.663627
vt 0.089964 0.629963
vt 0.132307 0.649674
vt 0.09514 0.61752
vt 0.141716 0.637871
vt 0.144421 0.616865
vt 0.083843 0.644677
vt 0.144421 0.616865
vt 0.102556 0.599205
vt 0.102556 0.599205
vt 0.10727 0.589315
vt 0.085474 0.600417
vt 0.080721 0.611637
vt 0.09514 0.61752
vt 0.079978 0.621221
vt 0.084238 0.634202
vt 0.089964 0.629963
vt 0.084238 0.634202
vt 0.09514 0.61752
vt 0.084238 0.634202
vt 0.070855 0.649003
vt 0.160745 0.646354
vt 0.141716 0.637871
vt 0.144421 0.616865
vt 0.153464 0.668912
vt 0.144421 0.616865
vt 0.165402 0.634433
vt 0.144421 0.616865
vt 0.165386 0.624853
vt 0.148314 0.603818
vt 0.144421 0.616865
vt 0.10727 0.589315
vt 0.038292 0.638874
vt 0.065071 0.65865
vt 0.053524 0.644603
vt 0.04771 0.647375
vt 0.025363 0.622041
vt 0.038292 0.638874
vt 0.053524 0.644603
vt 0.039988 0.626243
vt 0.083843 0.644677
vt 0.121184 0.663627
vt 0.100432 0.663717
vt 0.071017 0.647588
vt 0.073815 0.659012
vt 0.056187 0.645574
vt 0.04771 0.647375
vt 0.065071 0.65865
vt 0.100432 0.663717
vt 0.121184 0.663627
vt 0.10229 0.706022
vt 0.131168 0.698698
vt 0.10229 0.706022
vt 0.066877 0.698167
vt 0.073815 0.659012
vt 0.065071 0.65865
vt 0.057537 0.685622
vt 0.053524 0.644603
vt 0.066877 0.698167
vt 0.10229 0.706022
vt 0.131168 0.698698
vt 0.076176 0.721203
vt 0.10229 0.706022
vt 0.045929 0.707618
vt 0.10229 0.706022
vt 0.066877 0.698167
vt 0.102035 0.718184
vt 0.076176 0.721203
vt 0.131168 0.698698
vt 0.045929 0.707618
vt 0.057537 0.685622
vt 0.066877 0.698167
vt 0.057537 0.685622
vt 0.045929 0.707618
vt 0.035351 0.695532
vt 0.044649 0.668312
vt 0.023904 0.676277
vt 0.029328 0.639184
vt 0.023904 0.676277
vt 0.011732 0.643047
vt 0.053524 0.644603
vt 0.057537 0.685622
vt 0.044649 0.668312
vt 0.039988 0.626243
vt 0.029328 0.639184
vt 0.025614 0.609233
vt 0.029328 0.639184
vt 0.033704 0.604325
vt 0.039988 0.626243
vt 0.025614 0.609233
vt 0.026905 0.586455
vt 0.025614 0.609233
vt 0.033157 0.58587
vt 0.026905 0.586455
vt 0.026905 0.586455
vt 0.025789 0.579131
vt 0.025614 0.609233
vt 0.029328 0.639184
vt 0.013006 0.610165
vt 0.017721 0.585384
vt 0.011732 0.643047
vt 0.029328 0.639184
vt 0.025614 0.609233
vt 0.026905 0.586455
vt 0.000999 0.63636
vt 0.013006 0.610165
vt 0.011732 0.643047
vt 0.000999 0.63636
vt 0.002433 0.606521
vt 0.01069 0.58416
vt 0.017721 0.585384
vt 0.01069 0.58416
vt 0.017886 0.577644
vt 0.023904 0.676277
vt 0.000999 0.63636
vt 0.011732 0.643047
vt 0.023904 0.676277
vt 0.008911 0.666566
vt 0.035351 0.695532
vt 0.017721 0.585384
vt 0.025789 0.579131
vt 0.026905 0.586455
vt 0.020492 0.578345
vt 0.020492 0.578345
vt 0.017721 0.585384
vt 0.017886 0.577644
vt 0.025789 0.579131
vt 0.03361 0.577984
vt 0.033157 0.58587
vt 0.020492 0.578345
vt 0.017886 0.577644
vt 0.027266 0.571981
vt 0.025789 0.579131
vt 0.020492 0.578345
vt 0.027266 0.571981
vt 0.03361 0.577984
vt 0.025789 0.579131
vt 0.027266 0.571981
vt 0.018945 0.682893
vt 0.008911 0.666566
vt 0.035351 0.695532
vt 0.045929 0.707618
vt 0.018945 0.682893
vt 0.045929 0.707618
vt 0.0285 0.692868
vt 0.0285 0.692868
vt 0.076176 0.721203
vt 0.046928 0.705153
vt 0.083843 0.644677
vt 0.070855 0.649003
vt 0.089964 0.629963
vt 0.070855 0.649003
vt 0.083843 0.644677
vt 0.055779 0.662792
vt 0.123261 0.543975
vt 0.138119 0.540204
vt 0.121594 0.537315
vt 0.139425 0.546005
vt 0.121594 0.537315
vt 0.106969 0.544325
vt 0.123261 0.543975
vt 0.106969 0.544325
vt 0.121594 0.537315
vt 0.107273 0.53694
vt 0.139425 0.546005
vt 0.145034 0.537252
vt 0.138119 0.540204
vt 0.139425 0.546005
vt 0.146158 0.544066
vt 0.146158 0.544066
vt 0.152457 0.536573
vt 0.145034 0.537252
vt 0.152457 0.536573
vt 0.151709 0.543235
vt 0.154293 0.544246
vt 0.156258 0.53811
vt 0.161237 0.543933
vt 0.161237 0.543933
vt 0.154293 0.544246
vt 0.158623 0.547152
vt 0.105237 0.575715
vt 0.123261 0.543975
vt 0.106969 0.544325
vt 0.119102 0.576847
vt 0.10234 0.595357
vt 0.118531 0.592235
vt 0.135171 0.578775
vt 0.139425 0.546005
vt 0.123261 0.543975
vt 0.119102 0.576847
vt 0.141987 0.601065
vt 0.146676 0.603039
vt 0.118531 0.592235
vt 0.143119 0.577794
vt 0.146158 0.544066
vt 0.139425 0.546005
vt 0.135171 0.578775
vt 0.146676 0.603039
vt 0.143119 0.577794
vt 0.143119 0.577794
vt 0.146676 0.603039
vt 0.149857 0.605301
vt 0.149286 0.578298
vt 0.146158 0.544066
vt 0.143119 0.577794
vt 0.154795 0.579939
vt 0.158623 0.547152
vt 0.154293 0.544246
vt 0.160052 0.579749
vt 0.154795 0.579939
vt 0.153953 0.609016
vt 0.160052 0.579749
vt 0.158689 0.615755
vt 0.149857 0.605301
vt 0.149286 0.578298
vt 0.154293 0.544246
vt 0.149286 0.578298
vt 0.151709 0.543235
vt 0.149286 0.578298
vt 0.151709 0.543235
vt 0.146158 0.544066
vn 0.3515195 -0.6063607 -0.7132747
vn 0.6338348 -0.6924567 -0.3446113
vn 0.1841462 -0.8875262 -0.4223594
vn 0.6400008 -0.4423781 -0.628252
vn 0.6251967 -0.7548079 -0.1984796
vn 0.2866092 -0.8899192 -0.3548224
vn 0.7629247 -0.6300232 -0.1449708
vn 0.3638898 -0.8798943 -0.3055658
vn -0.6647063 -0.5102856 -0.5456867
vn -0.01144049 -0.6514545 -0.7586014
vn -0.07953824 -0.844467 -0.5296687
vn -0.5644018 -0.434142 -0.7021192
vn -0.9286664 -0.1048406 -0.355791
vn -0.8458666 -0.2410553 -0.4758172
vn -0.6647063 -0.5102856 -0.5456867
vn -0.7968073 -0.145068 -0.5865605
vn -0.5027428 -0.5021946 -0.7035981
vn 0.1841462 -0.8875262 -0.4223594
vn 0.1327888 -0.8295817 -0.5423664
vn -0.9018837 -0.1234025 -0.4139779
vn -0.9286664 -0.1048406 -0.355791
vn -0.9590127 0.2692462 -0.08832306
vn -0.9848871 -0.05077548 -0.1655881
vn -0.9767026 -0.03620176 -0.2115216
vn -0.9647081 -0.05764441 -0.2569344
vn -0.8549154 -0.1525505 -0.4958306
vn -0.9265087 0.07654426 0.3684056
vn -0.997396 0.03726486 0.06174619
vn -0.9902998 -0.03944181 -0.1332309
vn -0.8893529 -0.07029045 -0.451786
vn -0.9643993 0.005942133 0.2643834
vn -0.9972024 -0.05623699 -0.04924231
vn -0.999976 0.004954508 -0.004839383
vn -0.9993586 0.02855944 -0.02160329
vn -0.9066691 0.08837167 -0.4124821
vn -0.9999738 0.002626277 -0.006746247
vn -0.8844839 -0.01624847 -0.4662878
vn 0.7377048 -0.6164517 -0.27528
vn 0.4162166 -0.6457669 -0.6401164
vn 0.1327888 -0.8295817 -0.5423664
vn 0.4162166 -0.6457669 -0.6401164
vn 0.6251967 -0.7548079 -0.1984796
vn 0.5606261 -0.4999067 -0.6601452
vn -0.7008188 -0.2262256 -0.6765169
vn -0.4087469 -0.1283354 -0.9035796
vn 0.1010761 -0.2353495 -0.9666407
vn -0.03068588 -0.4786298 -0.8774804
vn -0.6180289 -0.1117481 -0.7781726
vn 0.0424099 0.05240731 -0.9977248
vn -0.012134 -0.2298252 -0.9731563
vn -0.7954002 -0.2870948 -0.5337744
vn -0.361307 -0.2958904 -0.8842545
vn -0.03068588 -0.4786298 -0.8774804
vn 0.3150866 -0.6076216 -0.7290518
vn 0.6090317 -0.1910318 -0.7697968
vn 0.06829402 0.1681335 -0.9833957
vn -0.3188043 -0.3967964 -0.860765
vn -0.5027428 -0.5021946 -0.7035981
vn -0.01794947 -0.7845663 -0.6197851
vn 0.3150866 -0.6076216 -0.7290518
vn -0.486349 0.3301607 -0.8089861
vn -0.7489783 0.1090986 -0.6535512
vn 0.03314345 -0.3986765 -0.9164926
vn -0.1374958 -0.04445372 -0.9895043
vn -0.471307 0.05092423 -0.8804978
vn -0.6180289 -0.1117481 -0.7781726
vn -0.4373486 0.07410181 -0.8962339
vn -0.0767674 0.08965392 -0.99301
vn 0.01853981 0.1527217 -0.9880953
vn 0.01084835 0.1538781 -0.9880303
vn -0.4667175 0.1144024 -0.876976
vn -0.7808923 0.09517059 -0.6173732
vn -0.2544788 0.3963092 -0.8821449
vn 0.01084835 0.1538781 -0.9880303
vn -0.7699664 -0.1800914 -0.6121427
vn -0.9472826 -0.06285781 -0.3141731
vn -0.9166692 -0.03713156 0.3979179
vn -0.8071496 -0.4028432 0.4315401
vn -0.1109909 -0.08236893 0.9904021
vn -0.7260329 -0.1970703 0.6588169
vn -0.7365539 -0.08754315 0.6706896
vn -0.1506786 -0.5408766 0.8274952
vn -0.5132461 -0.1059071 0.851682
vn -0.9272085 0.01542216 0.3742277
vn -0.6357925 0.1151273 0.7632258
vn -0.4182615 -0.8772433 -0.2355872
vn -0.8451546 -0.3170007 -0.430377
vn -0.6829807 -0.7146145 -0.1512072
vn -0.5807373 -0.6816884 -0.4450226
vn -0.6328176 -0.7710688 -0.0706733
vn -0.9607959 -0.2772345 -0.003517767
vn -0.563938 -0.4824586 -0.6702296
vn -0.5359471 -0.8415383 0.0676321
vn -0.3885544 -0.9206244 0.03842136
vn -0.4668466 -0.8742763 0.1330232
vn 0.01642564 -0.9514537 0.307353
vn -0.8347101 -0.5313777 0.144557
vn 0.1387431 -0.9874991 0.07480606
vn -0.7037681 -0.700295 0.1195712
vn -0.7955348 -0.6002751 -0.08242711
vn -0.8347101 -0.5313777 0.144557
vn -0.9456319 -0.3076743 -0.1054355
vn -0.9782901 -0.09169129 0.1858525
vn -0.4950792 -0.669224 -0.5541081
vn -0.367808 -0.9039206 -0.2182773
vn 0.01276648 -0.9797772 0.1996841
vn -0.4182615 -0.8772433 -0.2355872
vn 0.06274714 -0.9572814 0.2822676
vn -0.1331316 -0.8922173 0.4315369
vn -0.530996 -0.8425906 -0.08991309
vn -0.03148614 -0.9787663 0.2025464
vn 0.4884672 -0.7925563 0.3650399
vn 0.4936071 -0.7876881 0.3686453
vn 0.1409943 -0.9275782 0.3460048
vn 0.4964491 -0.7733645 0.3942658
vn 0.4805941 -0.7632946 0.4317531
vn 0.1947884 -0.9289541 0.3148041
vn 0.1582501 -0.9554706 0.2490637
vn 0.5045843 -0.8324561 0.2289358
vn 0.1387431 -0.9874991 0.07480606
vn 0.2744854 -0.8871338 -0.3710139
vn 0.168305 -0.8758625 0.4522592
vn 0.5260041 -0.433901 0.7314709
vn 0.3041714 -0.860623 0.4084211
vn -0.6903892 -0.7205973 -0.06404874
vn -0.9392915 -0.3121608 0.1424323
vn -0.9749988 0.1637232 -0.1502401
vn -0.9198635 0.3741815 0.1176405
vn -0.9939212 0.1076569 -0.0230364
vn 0.4212606 0.8841738 0.2019313
vn 0.6289065 0.6719838 0.3910428
vn 0.6225556 0.7535492 0.2111589
vn 0.8333317 0.4766428 0.2799461
vn 0.6783274 0.730835 0.07584332
vn 0.6950927 0.2281063 0.6817724
vn 0.339804 0.909837 0.2381801
vn -0.08427224 0.9907808 -0.1060741
vn 0.4212606 0.8841738 0.2019313
vn -0.205555 0.9741698 -0.09349045
vn 0.3303214 0.9397733 0.08782854
vn 0.1780853 0.9839234 -0.01342908
vn -0.2917377 0.934618 -0.2034162
vn 0.3538573 0.9349941 0.02389809
vn -0.3432604 0.9310404 -0.1238387
vn -0.3432604 0.9310404 -0.1238387
vn -0.1045887 0.9944159 0.0140761
vn -0.6097775 0.7598197 -0.2254894
vn -0.6150907 0.742833 -0.2643153
vn -0.3024399 0.9435161 -0.1353056
vn -0.8267124 0.5493969 0.1212839
vn -0.9387382 0.3337763 -0.08581314
vn -0.7394747 0.5032722 -0.4470954
vn -0.9387382 0.3337763 -0.08581314
vn -0.6981704 0.6974556 -0.1615972
vn -0.8891675 0.417277 -0.1877793
vn -0.655135 0.5298159 -0.5386029
vn 0.9517625 0.2961287 0.08034837
vn 0.9030201 0.3828995 0.1947886
vn 0.9446468 0.3188056 0.07749439
vn 0.8333317 0.4766428 0.2799461
vn 0.7922279 0.6079825 0.05227012
vn 0.9358149 0.3491873 0.04815403
vn 0.8709503 0.4866796 0.06773932
vn 0.9433644 0.321026 0.08370092
vn 0.6640465 0.7356369 0.1337179
vn 0.5787719 0.8142095 0.04567023
vn -0.1045887 0.9944159 0.0140761
vn 0.1010761 -0.2353495 -0.9666407
vn 0.5360483 -0.01734824 -0.8440091
vn 0.5790215 -0.186823 -0.7936191
vn 0.3008087 0.01807809 -0.9535131
vn 0.3422169 -0.4598255 -0.8194194
vn 0.2140857 -0.2306643 -0.9491898
vn 0.5790215 -0.186823 -0.7936191
vn 0.8560896 -0.2612846 -0.4459159
vn -0.007018231 0.2185065 -0.9758102
vn 0.4655301 0.2341155 -0.8535055
vn 0.4664789 0.2139297 -0.8582724
vn 0.01084835 0.1538781 -0.9880303
vn 0.471967 0.1846708 -0.8620579
vn 0.01853981 0.1527217 -0.9880953
vn 0.0424099 0.05240731 -0.9977248
vn 0.5360483 -0.01734824 -0.8440091
vn 0.9637496 0.251502 0.08906911
vn 0.8034039 0.514912 0.2990113
vn 0.8625158 0.1609171 0.4797625
vn 0.7471803 0.3468657 0.5669267
vn 0.9661813 0.2372185 0.1011001
vn 0.9709638 0.2258897 0.07875983
vn 0.9692774 0.2371642 0.06522698
vn 0.9790507 0.1899081 0.07344869
vn 0.8453657 0.3246012 0.4242532
vn 0.9801704 0.1882707 0.06180742
vn 0.87782 0.2749314 0.3922304
vn 0.800516 0.15341 0.5793441
vn 0.5876162 -0.2146324 0.7801539
vn -0.01043283 -0.09094288 0.9958015
vn 0.7320309 0.1268669 0.6693547
vn 0.3830944 0.2674005 0.8841582
vn 0.6169716 0.09156115 0.781641
vn 0.6433885 0.2986782 0.7048706
vn 0.2318261 -0.4332645 0.8709412
vn -0.01043283 -0.09094288 0.9958015
vn 0.7092029 -0.1342029 0.6921133
vn 0.1958142 0.2796385 0.9399251
vn 0.3614381 0.4342987 0.8250741
vn 0.6433885 0.2986782 0.7048706
vn 0.6987888 0.3869674 0.6016232
vn 0.3830944 0.2674005 0.8841582
vn 0.1430736 0.4508416 0.8810629
vn 0.3634515 0.4958826 0.7886719
vn -0.03520643 0.5623775 0.8261309
vn 0.3354746 0.7590117 0.5579945
vn -0.1531425 0.5631003 0.8120748
vn 0.000538266 0.7540709 0.6567928
vn 0.9801704 0.1882707 0.06180742
vn 0.980011 0.186689 0.06874379
vn 0.9806045 0.1872363 0.05794222
vn 0.9808445 0.1856663 0.05892469
vn 0.8601225 0.4765097 0.18201
vn 0.9128662 0.3904841 0.1191531
vn 0.9798614 0.1894063 0.06322162
vn 0.9831093 0.1504661 0.1041923
vn 0.9862102 0.1154651 -0.1185636
vn 0.9128662 0.3904841 0.1191531
vn 0.9832999 0.1676351 -0.07085105
vn 0.9828405 0.1646164 0.0832227
vn 0.9953418 0.006021775 -0.09622074
vn 0.9152371 0.4028635 -0.006484171
vn 0.9113573 0.3944366 -0.1176756
vn 0.6250336 0.6514146 -0.430107
vn 0.3264259 0.9129559 0.2448628
vn 0.5097017 0.7021794 0.4971401
vn -0.1358509 0.9635818 0.2303357
vn 0.1272842 0.9857755 -0.1097514
vn 0.0212711 0.871026 0.4907759
vn 0.3354746 0.7590117 0.5579945
vn 0.6759509 0.7101889 0.1967799
vn 0.6559454 0.75377 0.03958056
vn -0.7347496 0.5816267 0.3490753
vn -0.1358509 0.9635818 0.2303357
vn -0.3562256 0.8218393 0.4446161
vn -0.5864148 0.6688164 0.4569491
vn -0.3906021 0.9025088 0.1814053
vn -0.3623531 0.9140002 -0.1824935
vn 0.02731297 0.9866889 -0.1603093
vn -0.4789466 0.7753734 -0.4115898
vn -0.446868 0.4328265 -0.7829241
vn -0.4184929 0.5234876 0.7421755
vn -0.5864148 0.6688164 0.4569491
vn -0.3492839 0.7230313 0.5960089
vn -0.1531425 0.5631003 0.8120748
vn -0.617416 0.3736749 0.6922171
vn -0.1436741 0.4106053 0.9004227
vn 0.02731297 0.9866889 -0.1603093
vn 0.6250336 0.6514146 -0.430107
vn 0.6063181 0.7730116 -0.1866321
vn -0.01557067 0.7856094 -0.6185268
vn -0.01557067 0.7856094 -0.6185268
vn -0.1095969 0.9462211 -0.3043918
vn -0.446868 0.4328265 -0.7829241
vn 0.6807097 0.6456223 -0.3461301
vn 0.8029871 0.4780789 -0.3558825
vn 0.9587646 0.2746014 -0.07324281
vn -0.01557067 0.7856094 -0.6185268
vn -0.486349 0.3301607 -0.8089861
vn 0.06829402 0.1681335 -0.9833957
vn 0.5317801 0.6626666 -0.5273357
vn -0.01557067 0.7856094 -0.6185268
vn 0.2746059 0.3837902 -0.8816444
vn 0.7250248 0.2882783 -0.6254877
vn 0.6250336 0.6514146 -0.430107
vn 0.2746059 0.3837902 -0.8816444
vn -0.9265087 0.07654426 0.3684056
vn -0.7901793 0.2874569 0.541281
vn -0.6212937 0.2744512 0.733942
vn -0.4379733 0.2214639 0.8712825
vn -0.9265087 0.07654426 0.3684056
vn -0.6357925 0.1151273 0.7632258
vn -0.9272085 0.01542216 0.3742277
vn -0.5878333 0.06725816 0.8061813
vn -0.1109909 -0.08236893 0.9904021
vn -0.7365539 -0.08754315 0.6706896
vn -0.4844726 0.5905201 -0.6454241
vn -0.655135 0.5298159 -0.5386029
vn -0.3622119 0.8902072 -0.2762854
vn -0.655135 0.5298159 -0.5386029
vn -0.5813043 0.3974713 -0.7100012
vn -0.8834553 0.1884103 -0.4289619
vn 0.0881106 -0.1012278 -0.9909539
vn 0.3867772 -0.1345194 -0.9123091
vn 0.003591764 -0.2241386 -0.9745507
vn 0.3002186 -0.3462334 -0.8888145
vn 0.003591764 -0.2241386 -0.9745507
vn -0.6163758 -0.3234931 -0.7179366
vn -0.253505 0.2487722 -0.9347981
vn -0.1266457 -0.5024259 -0.8552948
vn 0.003591764 -0.2241386 -0.9745507
vn 0.1928143 -0.6049691 -0.772551
vn 0.7031608 -0.1792499 -0.6880657
vn 0.181594 -0.539025 -0.8224813
vn 0.3867772 -0.1345194 -0.9123091
vn 0.3002186 -0.3462334 -0.8888145
vn -0.1684961 -0.5322829 -0.8296288
vn -0.1684961 -0.5322829 -0.8296288
vn -0.0273768 -0.8031775 -0.5951103
vn 0.2911885 -0.695498 -0.6568803
vn 0.04309264 -0.390541 -0.9195765
vn -0.07721247 -0.2546825 -0.9639372
vn 0.3003191 -0.4655092 -0.832532
vn 0.4078075 -0.3970635 -0.8222126
vn 0.1928143 -0.6049691 -0.772551
vn -0.08425307 -0.6401517 -0.7636145
vn 0.03442736 -0.7691502 -0.6381401
vn -0.1266457 -0.5024259 -0.8552948
vn -0.8664747 0.4317423 -0.2506395
vn -0.6165568 0.4084373 -0.6730799
vn -0.5862703 0.2641841 -0.7658289
vn -0.6522138 0.6984641 -0.2945592
vn -0.8495885 0.509508 -0.1363857
vn -0.7171198 0.6840283 -0.1335831
vn 0.8608205 0.4956855 -0.1152564
vn 0.8795012 0.4253207 -0.2134947
vn 0.5535163 0.805448 -0.211833
vn 0.6360232 0.7339718 -0.2382435
vn 0.7781627 0.5882592 -0.2200322
vn 0.9912897 -0.126074 0.03807871
vn 0.3974179 0.7887511 -0.4689678
vn 0.9496319 -0.3125052 0.0232336
vn 0.9562218 -0.2889602 0.0462793
vn 0.8659105 0.2605437 -0.4269846
vn 0.8608205 0.4956855 -0.1152564
vn 0.9790049 0.2022709 0.0252196
vn 0.999063 -0.04318529 -0.002872847
vn 0.9069774 -0.4204239 0.02521316
vn 0.9467388 -0.3178022 0.05183907
vn 0.6647035 -0.7441402 0.066516
vn 0.6552859 -0.7258282 0.209222
vn 0.8613889 -0.4804679 0.1648026
vn 0.9496319 -0.3125052 0.0232336
vn -0.9135557 -0.404834 0.03905641
vn -0.8202829 -0.3148708 -0.4774855
vn -0.6793294 -0.7333385 0.02694929
vn -0.9871602 -0.1548062 -0.03936712
vn -0.9135557 -0.404834 0.03905641
vn -0.9959586 -0.07388001 0.05107008
vn -0.91867 0.3023783 -0.2541905
vn -0.8495885 0.509508 -0.1363857
vn -0.8894188 -0.3621675 0.2788706
vn -0.5719701 -0.7798262 0.2544037
vn -0.5591142 -0.8133137 -0.1609728
vn -0.3255056 -0.8891435 0.3216675
vn 0.08561501 -0.9399337 0.3304464
vn 0.4377454 -0.8663356 0.2405027
vn 0.08561501 -0.9399337 0.3304464
vn 0.6501925 -0.7094796 0.2718244
g PullBone_mesh_0
f 3/3/3 2/2/2 1/1/1
f 4/4/4 1/1/1 2/2/2
f 2/2/2 6/6/6 5/5/5
f 8/8/8 7/7/7 6/6/6
f 11/11/11 10/10/10 9/9/9
f 12/12/12 9/9/9 10/10/10
f 15/15/15 14/14/14 13/13/13
f 15/15/15 13/13/13 16/16/16
f 17/17/17 15/15/15 16/16/16
f 18/18/18 15/15/15 17/17/17
f 19/19/19 18/18/18 17/17/17
f 22/22/22 21/21/21 20/20/20
f 24/24/24 20/20/20 23/23/23
f 26/26/26 23/23/23 25/25/25
f 28/28/28 26/26/26 27/27/27
f 30/30/30 27/27/27 29/29/29
f 27/27/27 32/32/32 31/31/31
f 33/33/33 31/31/31 32/32/32
f 33/33/33 34/34/34 31/31/31
f 36/36/36 31/31/31 35/35/35
f 35/35/35 37/37/37 36/36/36
f 40/40/40 39/39/39 38/38/38
f 43/43/43 42/42/42 41/41/41
f 46/46/46 45/45/45 44/44/44
f 44/44/44 47/47/47 46/46/46
f 50/50/50 49/49/49 48/48/48
f 53/53/53 52/52/52 51/51/51
f 56/56/56 55/55/55 54/54/54
f 59/59/59 58/58/58 57/57/57
f 59/59/59 57/57/57 60/60/60
f 61/61/61 57/57/57 58/58/58
f 62/62/62 61/61/61 58/58/58
f 57/57/57 64/64/64 63/63/63
f 65/65/65 64/64/64 57/57/57
f 68/68/68 67/67/67 66/66/66
f 68/68/68 69/69/69 67/67/67
f 69/69/69 70/70/70 67/67/67
f 71/71/71 67/67/67 70/70/70
f 74/74/74 73/73/73 72/72/72
f 75/75/75 72/72/72 73/73/73
f 78/78/78 77/77/77 76/76/76
f 81/81/81 80/80/80 79/79/79
f 82/82/82 79/79/79 80/80/80
f 85/85/85 84/84/84 83/83/83
f 88/88/88 87/87/87 86/86/86
f 90/90/90 86/86/86 89/89/89
f 89/89/89 91/91/91 90/90/90
f 89/89/89 86/86/86 92/92/92
f 94/94/94 90/90/90 93/93/93
f 93/93/93 90/90/90 95/95/95
f 97/97/97 96/96/96 90/90/90
f 96/96/96 99/99/99 98/98/98
f 100/100/100 98/98/98 99/99/99
f 102/102/102 100/100/100 101/101/101
f 103/103/103 102/102/102 101/101/101
f 102/102/102 104/104/104 100/100/100
f 107/107/107 106/106/106 105/105/105
f 109/109/109 107/107/107 108/108/108
f 111/111/111 107/107/107 110/110/110
f 114/114/114 113/113/113 112/112/112
f 113/113/113 114/114/114 115/115/115
f 116/116/116 112/112/112 113/113/113
f 112/112/112 116/116/116 117/117/117
f 118/118/118 115/115/115 114/114/114
f 115/115/115 118/118/118 119/119/119
f 121/121/121 119/119/119 120/120/120
f 117/117/117 123/123/123 122/122/122
f 123/123/123 124/124/124 116/116/116
f 127/127/127 126/126/126 125/125/125
f 129/129/129 128/128/128 126/126/126
f 132/132/132 131/131/131 130/130/130
f 131/131/131 133/133/133 130/130/130
f 134/134/134 130/130/130 133/133/133
f 135/135/135 131/131/131 132/132/132
f 138/138/138 137/137/137 136/136/136
f 137/137/137 138/138/138 139/139/139
f 140/140/140 139/139/139 138/138/138
f 140/140/140 141/141/141 139/139/139
f 142/142/142 136/136/136 137/137/137
f 144/144/144 139/139/139 143/143/143
f 146/146/146 145/145/145 141/141/141
f 146/146/146 147/147/147 145/145/145
f 147/147/147 148/148/148 145/145/145
f 145/145/145 148/148/148 149/149/149
f 150/150/150 149/149/149 148/148/148
f 149/149/149 150/150/150 151/151/151
f 154/154/154 153/153/153 152/152/152
f 156/156/156 152/152/152 155/155/155
f 159/159/159 158/158/158 157/157/157
f 160/160/160 157/157/157 158/158/158
f 157/157/157 162/162/162 161/161/161
f 162/162/162 164/164/164 163/163/163
f 165/165/165 163/163/163 164/164/164
f 165/165/165 167/167/167 166/166/166
f 170/170/170 169/169/169 168/168/168
f 171/171/171 168/168/168 169/169/169
f 174/174/174 173/173/173 172/172/172
f 172/172/172 175/175/175 174/174/174
f 178/178/178 177/177/177 176/176/176
f 178/178/178 176/176/176 179/179/179
f 178/178/178 179/179/179 180/180/180
f 181/181/181 180/180/180 179/179/179
f 181/181/181 182/182/182 180/180/180
f 183/183/183 180/180/180 182/182/182
f 186/186/186 185/185/185 184/184/184
f 185/185/185 188/188/188 187/187/187
f 190/190/190 189/189/189 184/184/184
f 190/190/190 191/191/191 189/189/189
f 192/192/192 189/189/189 191/191/191
f 191/191/191 193/193/193 192/192/192
f 195/195/195 184/184/184 194/194/194
f 198/198/198 197/197/197 196/196/196
f 197/197/197 198/198/198 199/199/199
f 201/201/201 199/199/199 200/200/200
f 204/204/204 203/203/203 202/202/202
f 207/207/207 206/206/206 205/205/205
f 210/210/210 209/209/209 208/208/208
f 208/208/208 211/211/211 210/210/210
f 212/212/212 210/210/210 211/211/211
f 213/213/213 212/212/212 211/211/211
f 213/213/213 215/215/215 214/214/214
f 218/218/218 217/217/217 216/216/216
f 219/219/219 218/218/218 216/216/216
f 220/220/220 218/218/218 219/219/219
f 222/222/222 219/219/219 221/221/221
f 225/225/225 224/224/224 223/223/223
f 227/227/227 223/223/223 226/226/226
f 229/229/229 223/223/223 228/228/228
f 231/231/231 230/230/230 228/228/228
f 234/234/234 233/233/233 232/232/232
f 234/234/234 232/232/232 235/235/235
f 237/237/237 234/234/234 236/236/236
f 239/239/239 235/235/235 238/238/238
f 242/242/242 241/241/241 240/240/240
f 244/244/244 243/243/243 241/241/241
f 244/244/244 241/241/241 245/245/245
f 246/246/246 245/245/245 241/241/241
f 246/246/246 248/248/248 247/247/247
f 251/251/251 250/250/250 249/249/249
f 253/253/253 252/252/252 250/250/250
f 252/252/252 253/253/253 254/254/254
f 257/257/257 256/256/256 255/255/255
f 258/258/258 255/255/255 256/256/256
f 261/261/261 260/260/260 259/259/259
f 264/264/264 263/263/263 262/262/262
f 267/267/267 266/266/266 265/265/265
f 270/270/270 269/269/269 268/268/268
f 273/273/273 272/272/272 271/271/271
f 276/276/276 275/275/275 274/274/274
f 276/276/276 274/274/274 277/277/277
f 280/280/280 279/279/279 278/278/278
f 283/283/283 282/282/282 281/281/281
f 286/286/286 285/285/285 284/284/284
f 289/289/289 288/288/288 287/287/287
f 292/292/292 291/291/291 290/290/290
f 293/293/293 290/290/290 291/291/291
f 296/296/296 295/295/295 294/294/294
f 299/299/299 298/298/298 297/297/297
f 302/302/302 301/301/301 300/300/300
f 304/304/304 303/303/303 301/301/301
f 307/307/307 306/306/306 305/305/305
f 309/309/309 305/305/305 308/308/308
f 309/309/309 308/308/308 310/310/310
f 311/311/311 310/310/310 308/308/308
f 311/311/311 312/312/312 310/310/310
f 315/315/315 314/314/314 313/313/313
f 318/318/318 317/317/317 316/316/316
f 319/319/319 316/316/316 317/317/317
f 316/316/316 319/319/319 320/320/320
f 321/321/321 320/320/320 319/319/319
f 324/324/324 323/323/323 322/322/322
f 322/322/322 325/325/325 324/324/324
f 325/325/325 322/322/322 326/326/326
f 327/327/327 326/326/326 322/322/322
f 326/326/326 328/328/328 325/325/325
f 331/331/331 330/330/330 329/329/329
f 329/329/329 332/332/332 331/331/331
f 332/332/332 334/334/334 333/333/333
f 337/337/337 336/336/336 335/335/335
f 335/335/335 338/338/338 337/337/337
f 338/338/338 340/340/340 339/339/339
f 343/343/343 342/342/342 341/341/341
f 344/344/344 341/341/341 342/342/342
f 347/347/347 346/346/346 345/345/345
f 346/346/346 347/347/347 348/348/348
f 346/346/346 349/349/349 345/345/345
f 350/350/350 345/345/345 349/349/349
f 345/345/345 350/350/350 351/351/351
f 353/353/353 351/351/351 352/352/352
f 356/356/356 355/355/355 354/354/354
