g Pump_Base
v 1493.551 99.78255 -1089.988
v 1328.771 65.18282 -1117.689
v 1426.121 86.30439 -1125.342
v 1292.05 80.41257 -1090.468
v 1292.439 134.5296 -1021.516
v 1520.761 121.7171 -1057.08
v 1511.406 149.8745 -1006.955
v 1355.201 172.9991 -983.5651
v 1478.235 167.047 -979.6724
v 1539.64 132.4294 -1046.059
v 1539.851 144.8246 -1029.259
v 1558.636 157.0252 -1061.595
v 1555.655 168.7054 -1039.579
v 1556.101 145.1856 -1084.149
v 1539.074 125.4587 -1068.439
v 1548.137 133.6468 -1106.366
v 1528.24 118.009 -1090.123
v 1535.036 122.8614 -1127.376
v 1519.382 113.1214 -1113.606
v 1517.304 113.2402 -1146.376
v 1504.018 104.6811 -1130.269
v 1495.811 105.053 -1162.823
v 1485.399 97.47849 -1144.726
v 1471.28 98.8363 -1175.677
v 1464.128 92.13392 -1155.798
v 1445.954 94.50121 -1185.087
v 1441.846 88.57472 -1163.605
v 1420.046 92.8077 -1189.634
v 1419.203 87.12598 -1167.519
v 1393.979 93.49785 -1189.669
v 1396.4 87.68897 -1167.611
v 1368.567 96.24948 -1185.727
v 1373.722 89.85497 -1164.567
v 1343.219 100.6006 -1178.573
v 1352.057 93.9466 -1157.896
v 1320.52 106.9994 -1167.423
v 1332.107 99.47218 -1148.282
v 1301.665 115.268 -1152.56
v 1315.21 106.35 -1135.941
v 1286.257 124.7034 -1135.133
v 1301.312 114.39 -1121.136
v 1276.361 135.3345 -1115.206
v 1283.805 125.5867 -1101.739
v 1271.841 146.6285 -1093.797
v 1279.85 135.4253 -1083.087
v 1273.068 158.3041 -1071.47
v 1280.727 145.4909 -1063.807
v 1342.204 57.42022 -1105.137
v 1323.652 61.47456 -1096.417
v 1307.61 66.5436 -1084.847
v 1299.471 73.41822 -1071.372
v 1291.875 79.43825 -1056.085
v 1288.356 86.30562 -1038.664
v 1338.478 43.60381 -1085.18
v 1358.394 41.18732 -1089.987
v 1362.601 54.54387 -1110.455
v 1383.736 52.77258 -1112.635
v 1404.947 52.0808 -1111.778
v 1425.52 52.66268 -1107.535
v 1445.325 54.56976 -1099.786
v 1463.972 57.76691 -1088.652
v 1480.39 62.22165 -1074.37
v 1493.754 67.60212 -1057.9
v 1502.749 72.4682 -1038.508
v 1509.431 78.37492 -1019.047
v 1510.057 84.52808 -999.1445
v 1507.55 92.2156 -981.2365
v 1501.293 98.65626 -963.84
v 1536.979 153.2236 -1010.652
v 1487.795 78.01569 -946.133
v 1495.329 72.31596 -963.0716
v 1498.867 66.40918 -981.3985
v 1498.218 60.56498 -1000.364
v 1493.105 55.24203 -1018.984
v 1484.059 50.384 -1036.828
v 1471.453 46.16101 -1053.226
v 1455.866 42.74587 -1067.442
v 1438.213 40.36074 -1078.599
v 1419.345 39.07831 -1086.326
v 1399.553 38.8247 -1090.694
v 1378.946 39.56512 -1091.84
v 1536.979 153.2236 -1010.652
v 1555.655 168.7054 -1039.579
v 1536.979 153.2236 -1010.652
v 1547.291 179.7685 -1018.966
v 1547.291 179.7685 -1018.966
v 1512.606 163.4747 -1002.112
v 1533.503 189.9846 -1000.187
v 1497.133 170.9216 -992.2453
v 1515.208 198.7513 -984.3491
v 1473.771 179.7238 -982.4276
v 1515.208 198.7513 -984.3491
v 1473.771 179.7238 -982.4276
v 1493.147 205.7112 -972.1005
v 1473.771 179.7238 -982.4276
v 1457.146 184.4266 -976.808
v 1493.147 205.7112 -972.1005
v 1468.17 210.5961 -963.912
v 1435.413 188.256 -972.0943
v 1435.413 188.256 -972.0943
v 1441.235 213.2184 -960.0983
v 1441.235 213.2184 -960.0983
v 1411.383 190.3907 -970.8168
v 1413.376 213.4781 -960.8049
v 1285.696 156.9503 -1041.826
v 1280.727 145.4909 -1063.807
v 1280.433 170.156 -1048.678
v 1273.068 158.3041 -1071.47
v 1293.463 181.3874 -1026.819
v 1299.188 165.7127 -1024.629
v 1311.787 191.595 -1006.674
v 1315.456 174.6754 -1006.934
v 1334.237 200.2851 -989.2278
v 1289.423 91.80002 -1019.453
v 1288.356 86.30562 -1038.664
v 1279.85 135.4253 -1083.087
v 1291.322 99.31696 -1001.091
v 1298.085 106.063 -980.3511
v 1293.45 77.51672 -985.6827
v 1297.669 83.50002 -963.6023
v 1309.436 114.032 -960.7775
v 1315.456 174.6754 -1006.934
v 1305.105 91.38112 -944.1501
v 1325.495 118.5453 -946.6142
v 1344.089 180.3866 -993.6246
v 1356.05 183.5744 -987.0649
v 1337.778 121.1378 -939.3953
v 1366.302 186.3066 -981.4424
v 1347.629 121.0696 -933.2823
v 1319.06 95.53786 -930.9636
v 1292.712 71.49131 -1002.676
v 1291.572 67.72593 -1021.86
v 1330.866 97.52071 -921.3637
v 1340.566 96.39314 -915.0654
v 1366.512 122.2947 -925.589
v 1389.403 190.1478 -973.1644
v 1357.855 96.6283 -907.5932
v 1393.197 118.2432 -919.7584
v 1411.383 190.3907 -970.8168
v 1389.403 190.1478 -973.1644
v 1385.07 91.52087 -902.9417
v 1413.418 114.257 -920.5229
v 1435.413 188.256 -972.0943
v 1404.734 86.53781 -902.2812
v 1432.76 110.4773 -921.9429
v 1457.146 184.4266 -976.808
v 1422.302 82.88502 -902.7362
v 1449.142 106.518 -927.1433
v 1473.771 179.7238 -982.4276
v 1440.846 78.89898 -906.9073
v 1471.65 100.2135 -939.1058
v 1497.133 170.9216 -992.2453
v 1473.771 179.7238 -982.4276
v 1512.606 163.4747 -1002.112
v 1488.749 104.9997 -959.8086
v 1536.979 153.2236 -1010.652
v 1501.293 98.65626 -963.84
v 1462.01 73.46793 -919.0052
v 1479.725 82.88096 -943.8072
v 1487.795 78.01569 -946.133
v 1344.089 180.3866 -993.6246
v 1309.436 114.032 -960.7775
v 1315.456 174.6754 -1006.934
v 1389.403 190.1478 -973.1644
v 1366.302 186.3066 -981.4424
v 1435.413 188.256 -972.0943
v 1411.383 190.3907 -970.8168
v 1435.413 188.256 -972.0943
v 1411.383 190.3907 -970.8168
v 1441.235 213.2184 -960.0983
v 1457.146 184.4266 -976.808
v 1435.413 188.256 -972.0943
v 1473.771 179.7238 -982.4276
v 1432.76 110.4773 -921.9429
v 1457.146 184.4266 -976.808
v 1536.979 153.2236 -1010.652
v 1512.606 163.4747 -1002.112
v 1547.291 179.7685 -1018.966
v 1344.089 180.3866 -993.6246
v 1315.456 174.6754 -1006.934
v 1334.237 200.2851 -989.2278
v 1347.663 203.8784 -981.8365
v 1356.05 183.5744 -987.0649
v 1359.17 206.958 -975.5013
v 1366.302 186.3066 -981.4424
v 1385.667 211.3639 -966.0063
v 1366.302 186.3066 -981.4424
v 1359.17 206.958 -975.5013
v 1389.403 190.1478 -973.1644
v 1366.302 186.3066 -981.4424
v 1385.667 211.3639 -966.0063
v 1413.376 213.4781 -960.8049
v 1389.403 190.1478 -973.1644
v 1411.383 190.3907 -970.8168
v 1389.403 190.1478 -973.1644
v 1413.376 213.4781 -960.8049
v 1320.455 47.10141 -1076.798
v 1304.735 51.4865 -1065.521
v 1298.774 57.9203 -1052.548
v 1294.926 61.98222 -1038.815
v 1291.572 67.72593 -1021.86
v 1479.725 82.88096 -943.8072
v 1462.01 73.46793 -919.0052
v 1488.749 104.9997 -959.8086
v 1487.979 82.4425 -920.2412
v 1447.97 96.74634 -909.799
v 1509.465 120.666 -951.2295
v 1459.671 140.0835 -937.5658
v 1443.606 75.66358 -892.7674
v 1479.116 63.56657 -901.5913
v 1441.817 57.62809 -875.1917
v 1473.427 47.44458 -882.6128
v 1441.817 57.62809 -875.1917
v 1473.427 47.44458 -882.6128
v 1434.895 65.92477 -861.1221
v 1483.988 50.03664 -872.5071
v 1425.065 58.3995 -881.5862
v 1437.609 54.77029 -883.0561
v 1471.521 34.29778 -911.3266
v 1470.396 41.54475 -896.5487
v 1415.801 51.30799 -900.8707
v 1433.644 52.07706 -890.4669
v 1441.817 57.62809 -875.1917
v 1437.609 54.77029 -883.0561
v 1443.606 75.66358 -892.7674
v 1441.027 73.69727 -898.5856
v 1447.97 96.74634 -909.799
v 1446.086 95.66725 -914.9276
v 1459.671 140.0835 -937.5658
v 1457.455 139.4085 -944.0294
v 1433.644 52.07706 -890.4669
v 1444.311 94.65012 -919.7607
v 1455.368 138.7722 -950.1204
v 1438.596 71.84438 -904.0683
v 1501.603 118.2845 -968.9844
v 1457.455 139.4085 -944.0294
v 1455.368 138.7722 -950.1204
v 1507.825 117.5798 -961.0353
v 1459.671 140.0835 -937.5658
v 1509.465 120.666 -951.2295
v 1425.065 58.3995 -881.5862
v 1423.793 25.68818 -863.4516
v 1415.801 51.30799 -900.8707
v 1434.895 65.92477 -861.1221
v 1435.929 25.91827 -841.839
v 1412.355 25.47147 -883.8181
v 1434.895 65.92477 -861.1221
v 1483.988 50.03664 -872.5071
v 1435.929 25.91827 -841.839
v 1481.051 26.04568 -854.7444
v 1320.655 28.47962 -952.4647
v 1286.008 27.31211 -950.7175
v 1319.122 44.81923 -963.4487
v 1283.373 42.19748 -960.6752
v 1283.373 42.19748 -960.6752
v 1318.889 39.22955 -971.7371
v 1319.122 44.81923 -963.4487
v 1291.668 37.6005 -969.8716
v 1276.418 33.06531 -991.4059
v 1286.157 33.38741 -993.6554
v 1318.889 39.22955 -971.7371
v 1291.668 37.6005 -969.8716
v 1304.66 130.8572 -1033.176
v 1275.201 130.6023 -1032.086
v 1304.66 130.8572 -1033.176
v 1275.201 130.6023 -1032.086
v 1287.177 119.0719 -1051.895
v 1269.533 118.8169 -1050.805
v 1286.464 108.2014 -1069.161
v 1270.079 107.9464 -1068.07
v 1275.201 130.6023 -1032.086
v 1286.157 33.38741 -993.6554
v 1269.533 118.8169 -1050.805
v 1286.538 29.85103 -1015.827
v 1270.079 107.9464 -1068.07
v 1291.668 37.6005 -969.8716
v 1277.765 26.14376 -986.7754
v 1286.157 33.38741 -993.6554
v 1276.418 33.06531 -991.4059
v 1287.504 26.46577 -989.0251
v 1283.373 42.19748 -960.6752
v 1286.008 27.31211 -950.7175
v 1276.418 33.06531 -991.4059
v 1277.765 26.14376 -986.7754
v 1318.889 39.22955 -971.7371
v 1320.901 26.27254 -963.0493
v 1319.122 44.81923 -963.4487
v 1320.655 28.47962 -952.4647
v 1273.128 111.6061 -1048.62
v 1274.811 113.9021 -1036.072
v 1267.607 108.6182 -1046.107
v 1268.957 110.4596 -1036.044
v 1267.878 100.0582 -1051.417
v 1273.466 100.9317 -1055.243
v 1277.247 106.0908 -1027.048
v 1270.911 104.1955 -1028.807
v 1278.602 94.05453 -1028.343
v 1271.997 94.54301 -1029.845
v 1264.377 104.1045 -1042.637
v 1265.126 105.1267 -1037.053
v 1264.527 99.35434 -1045.585
v 1266.21 101.6504 -1033.037
v 1266.813 96.29389 -1033.613
v 1264.076 98.95977 -1038.899
v 1275.57 89.91731 -1050.953
v 1273.466 100.9317 -1055.243
v 1269.566 91.2252 -1047.977
v 1267.878 100.0582 -1051.417
v 1271.399 88.77015 -1038.377
v 1277.855 86.85658 -1038.981
v 1271.997 94.54301 -1029.845
v 1278.602 94.05453 -1028.343
v 1265.463 94.45186 -1043.676
v 1264.527 99.35434 -1045.585
v 1266.482 93.09035 -1038.347
v 1266.813 96.29389 -1033.613
v 1264.076 98.95977 -1038.899
v 1285.32 62.57518 -1011.618
v 1287.002 64.87123 -999.0705
v 1279.798 59.58759 -1009.105
v 1281.147 61.42881 -999.0419
v 1280.07 51.02752 -1014.416
v 1285.658 51.90101 -1018.241
v 1289.438 57.06009 -990.046
v 1283.101 55.16473 -991.8051
v 1290.792 45.02382 -991.3406
v 1284.188 45.51247 -992.8432
v 1276.567 55.07422 -1005.635
v 1277.317 56.09597 -1000.051
v 1276.718 50.32367 -1008.583
v 1278.4 52.6197 -996.0348
v 1279.003 47.26302 -996.6109
v 1276.267 49.92895 -1001.898
v 1287.76 40.88642 -1013.951
v 1285.658 51.90101 -1018.241
v 1281.756 42.19455 -1010.976
v 1280.07 51.02752 -1014.416
v 1283.589 39.74016 -1001.375
v 1290.046 37.8257 -1001.979
v 1284.188 45.51247 -992.8432
v 1290.792 45.02382 -991.3406
v 1277.655 45.42162 -1006.674
v 1276.718 50.32367 -1008.583
v 1278.671 44.05965 -1001.346
v 1279.003 47.26302 -996.6109
v 1276.267 49.92895 -1001.898
v 1471.267 113.5853 -933.811
v 1480.657 113.9568 -938.28
v 1474.348 114.8873 -929.484
v 1481.878 115.1851 -933.0681
v 1471.163 109.7239 -924.0416
v 1467.298 107.1466 -927.0247
v 1474.722 103.5831 -920.8395
v 1471.734 99.48934 -923.0316
v 1488.394 107.9815 -937.0668
v 1488.082 110.3933 -932.095
v 1478.063 114.0169 -925.8129
v 1482.24 114.1824 -927.802
v 1476.294 111.1515 -922.7928
v 1478.269 107.7437 -921.0157
v 1485.684 111.523 -927.2619
v 1488.292 104.1199 -927.2976
v 1485.8 108.0416 -924.5996
v 1481.672 111.1469 -923.5254
v 1482.499 106.3597 -921.8198
v 1482.344 101.0893 -922.2884
v 1481.241 96.37936 -924.8384
v 1471.734 99.48934 -923.0316
v 1482.344 101.0893 -922.2884
v 1474.722 103.5831 -920.8395
v 1488.292 104.1199 -927.2976
v 1488.654 100.1588 -931.0847
v 1488.082 110.3933 -932.095
v 1488.394 107.9815 -937.0668
v 1485.8 108.0416 -924.5996
v 1482.499 106.3597 -921.8198
v 1458.522 68.5602 -900.5064
v 1466.773 68.65037 -904.2495
v 1461.543 69.84753 -896.1416
v 1468.159 69.91979 -899.1432
v 1459.092 64.86492 -891.1666
v 1455.465 62.34729 -894.3025
v 1462.65 58.72437 -887.9644
v 1459.903 54.68995 -890.3094
v 1474.003 62.5499 -902.7128
v 1473.958 65.02752 -897.9111
v 1465.149 68.95084 -892.4026
v 1468.822 68.99083 -894.0684
v 1463.79 66.1857 -889.6418
v 1465.764 62.77794 -887.8645
v 1472.039 66.27599 -893.3846
v 1474.572 58.8547 -893.3729
v 1472.381 62.8502 -890.8661
v 1468.627 66.04787 -890.0301
v 1469.588 61.29355 -888.4094
v 1468.494 51.35432 -891.534
v 1459.903 54.68995 -890.3094
v 1469.54 56.04951 -888.9463
v 1462.65 58.72437 -887.9644
v 1474.572 58.8547 -893.3729
v 1474.77 54.85236 -897.0541
v 1473.958 65.02752 -897.9111
v 1474.003 62.5499 -902.7128
v 1472.381 62.8502 -890.8661
v 1469.588 61.29355 -888.4094
v 1465.764 62.77794 -887.8645
v 1431.361 149.254 -936.6777
v 1427.417 151.1047 -937.2108
v 1429.303 142.8732 -945.3533
v 1424.508 145.1216 -946.0009
v 1423.392 150.2905 -935.6878
v 1419.62 144.1326 -944.1507
v 1421.647 147.2888 -933.0009
v 1417.501 140.4855 -940.8865
v 1423.203 143.858 -930.7241
v 1419.391 136.3174 -938.1205
v 1423.203 143.858 -930.7241
v 1427.149 142.0074 -930.1912
v 1419.391 136.3174 -938.1205
v 1424.183 134.0693 -937.4729
v 1431.173 142.8213 -931.7137
v 1429.072 135.0583 -939.3227
v 1432.917 145.8231 -934.4008
v 1431.193 138.7049 -942.5869
v 1431.361 149.254 -936.6777
v 1429.303 142.8732 -945.3533
v 1352.057 93.9466 -1157.896
v 1342.204 57.42022 -1105.137
v 1332.107 99.47218 -1148.282
v 1323.652 61.47456 -1096.417
v 1315.21 106.35 -1135.941
v 1307.61 66.5436 -1084.847
v 1301.312 114.39 -1121.136
v 1299.471 73.41822 -1071.372
v 1283.805 125.5867 -1101.739
v 1291.875 79.43825 -1056.085
v 1362.601 54.54387 -1110.455
v 1373.722 89.85497 -1164.567
v 1383.736 52.77258 -1112.635
v 1396.4 87.68897 -1167.611
v 1404.947 52.0808 -1111.778
v 1419.203 87.12598 -1167.519
vt 0.845901 0.344692
vt 0.180416 0.152073
vt 0.555408 0.078592
vt 0.061433 0.344149
vt 0.05713 0.702472
vt 0.970593 0.488154
vt 0.960149 0.720219
vt 0.355196 0.918177
vt 0.843497 0.863112
vt 0.929248 0.262184
vt 0.937109 0.288999
vt 0.980077 0.223222
vt 0.981783 0.260319
vt 0.967908 0.185565
vt 0.924033 0.223109
vt 0.945887 0.148803
vt 0.899472 0.185767
vt 0.914965 0.114329
vt 0.8802 0.144226
vt 0.876414 0.083371
vt 0.84699 0.117071
vt 0.832023 0.056719
vt 0.808689 0.093617
vt 0.783389 0.035933
vt 0.766725 0.075675
vt 0.734506 0.020685
vt 0.723984 0.062976
vt 0.686009 0.013142
vt 0.681729 0.056469
vt 0.638393 0.012742
vt 0.640159 0.056037
vt 0.592865 0.01866
vt 0.599509 0.060616
vt 0.548019 0.029746
vt 0.561469 0.070981
vt 0.508737 0.047291
vt 0.527047 0.086154
vt 0.477102 0.070953
vt 0.498647 0.105837
vt 0.452113 0.099036
vt 0.476099 0.129697
vt 0.437691 0.131506
vt 0.44788 0.160932
vt 0.433504 0.166788
vt 0.444264 0.191648
vt 0.440304 0.204008
vt 0.449799 0.223724
vt 0.528227 0.183131
vt 0.496225 0.1973
vt 0.469061 0.216298
vt 0.456861 0.238156
vt 0.445264 0.263779
vt 0.441395 0.29314
vt 0.515924 0.224642
vt 0.550778 0.216929
vt 0.563949 0.174678
vt 0.601403 0.171463
vt 0.639424 0.173296
vt 0.67687 0.180725
vt 0.713593 0.193966
vt 0.748923 0.212848
vt 0.78096 0.237009
vt 0.808054 0.264897
vt 0.827032 0.298425
vt 0.842437 0.331863
vt 0.84696 0.366198
vt 0.846594 0.396563
vt 0.838628 0.426572
vt 0.936787 0.32098
vt 0.802708 0.465212
vt 0.813429 0.435975
vt 0.81672 0.404423
vt 0.812434 0.371853
vt 0.800368 0.339892
vt 0.781497 0.309317
vt 0.756608 0.281242
vt 0.726843 0.256895
vt 0.693938 0.237724
vt 0.659424 0.224326
vt 0.623751 0.216577
vt 0.587043 0.214228
vt 0.936787 0.32098
vt 0.981783 0.260319
vt 0.936787 0.32098
vt 0.972825 0.295361
vt 0.972825 0.295361
vt 0.896803 0.333454
vt 0.952829 0.327542
vt 0.871773 0.349562
vt 0.923057 0.354862
vt 0.833018 0.377907
vt 0.923057 0.354862
vt 0.833018 0.377907
vt 0.884677 0.374587
vt 0.833018 0.377907
vt 0.802355 0.384799
vt 0.884677 0.374587
vt 0.842174 0.382796
vt 0.762041 0.389541
vt 0.762041 0.389541
vt 0.79067 0.389305
vt 0.79067 0.389305
vt 0.717039 0.389029
vt 0.738236 0.389339
vt 0.463671 0.260651
vt 0.449799 0.223724
vt 0.458923 0.242434
vt 0.440304 0.204008
vt 0.488326 0.279727
vt 0.492784 0.289885
vt 0.527765 0.314487
vt 0.527509 0.320227
vt 0.574846 0.344906
vt 0.445421 0.326448
vt 0.441395 0.29314
vt 0.444264 0.191648
vt 0.451769 0.357671
vt 0.466859 0.393749
vt 0.447422 0.393107
vt 0.457402 0.431634
vt 0.491038 0.427499
vt 0.527509 0.320227
vt 0.474082 0.464987
vt 0.522718 0.452443
vt 0.584706 0.343578
vt 0.609062 0.355
vt 0.546668 0.465109
vt 0.629995 0.364817
vt 0.564981 0.47651
vt 0.501398 0.488059
vt 0.443818 0.364062
vt 0.440341 0.330409
vt 0.523954 0.505193
vt 0.541354 0.517101
vt 0.600691 0.490489
vt 0.676196 0.379377
vt 0.573297 0.530802
vt 0.64849 0.502473
vt 0.717039 0.389029
vt 0.676196 0.379377
vt 0.621107 0.540683
vt 0.684149 0.502154
vt 0.762041 0.389541
vt 0.654913 0.543171
vt 0.71816 0.500564
vt 0.802355 0.384799
vt 0.685373 0.543268
vt 0.746487 0.492036
vt 0.833018 0.377907
vt 0.71736 0.536657
vt 0.784797 0.471725
vt 0.871773 0.349562
vt 0.833018 0.377907
vt 0.896803 0.333454
vt 0.818939 0.43207
vt 0.936787 0.32098
vt 0.838628 0.426572
vt 0.753284 0.515988
vt 0.790516 0.468067
vt 0.802708 0.465212
vt 0.584706 0.343578
vt 0.491038 0.427499
vt 0.527509 0.320227
vt 0.676196 0.379377
vt 0.629995 0.364817
vt 0.762041 0.389541
vt 0.717039 0.389029
vt 0.762041 0.389541
vt 0.717039 0.389029
vt 0.79067 0.389305
vt 0.802355 0.384799
vt 0.762041 0.389541
vt 0.833018 0.377907
vt 0.71816 0.500564
vt 0.802355 0.384799
vt 0.936787 0.32098
vt 0.896803 0.333454
vt 0.972825 0.295361
vt 0.584706 0.343578
vt 0.527509 0.320227
vt 0.574846 0.344906
vt 0.602431 0.357898
vt 0.609062 0.355
vt 0.629132 0.364588
vt 0.629995 0.364817
vt 0.682633 0.379966
vt 0.629995 0.364817
vt 0.629132 0.364588
vt 0.676196 0.379377
vt 0.629995 0.364817
vt 0.682633 0.379966
vt 0.738236 0.389339
vt 0.676196 0.379377
vt 0.717039 0.389029
vt 0.676196 0.379377
vt 0.738236 0.389339
vt 0.484828 0.2384
vt 0.458133 0.257099
vt 0.449761 0.278187
vt 0.444301 0.301617
vt 0.440341 0.330409
vt 0.790516 0.468067
vt 0.753284 0.515988
vt 0.818939 0.43207
vt 0.805395 0.511335
vt 0.739351 0.526707
vt 0.86607 0.443217
vt 0.783694 0.462939
vt 0.720806 0.563296
vt 0.779342 0.550224
vt 0.708727 0.599515
vt 0.760813 0.588442
vt 0.708727 0.599515
vt 0.760813 0.588442
vt 0.700182 0.623194
vt 0.781189 0.606085
vt 0.678751 0.587755
vt 0.699731 0.585939
vt 0.750792 0.539977
vt 0.752389 0.564736
vt 0.658681 0.554567
vt 0.691274 0.573176
vt 0.708727 0.599515
vt 0.699731 0.585939
vt 0.720806 0.563296
vt 0.715132 0.553167
vt 0.739351 0.526707
vt 0.735337 0.517549
vt 0.783694 0.462939
vt 0.779173 0.451007
vt 0.691274 0.573176
vt 0.731556 0.508925
vt 0.774915 0.439769
vt 0.709793 0.543638
vt 0.8501 0.410921
vt 0.779173 0.451007
vt 0.774915 0.439769
vt 0.861273 0.425922
vt 0.783694 0.462939
vt 0.86607 0.443217
vt 0.678751 0.587755
vt 0.661247 0.627664
vt 0.658681 0.554567
vt 0.700182 0.623194
vt 0.68304 0.666234
vt 0.640714 0.591325
vt 0.700182 0.623194
vt 0.781189 0.606085
vt 0.68304 0.666234
vt 0.763729 0.643147
vt 0.478038 0.467845
vt 0.415648 0.471296
vt 0.481543 0.443442
vt 0.416215 0.449199
vt 0.416215 0.449199
vt 0.47898 0.430182
vt 0.481543 0.443442
vt 0.429475 0.434017
vt 0.400505 0.396762
vt 0.418073 0.39263
vt 0.47898 0.430182
vt 0.429475 0.434017
vt 0.488907 0.286879
vt 0.433722 0.289012
vt 0.488907 0.286879
vt 0.433722 0.289012
vt 0.451658 0.256438
vt 0.41874 0.258564
vt 0.446175 0.228639
vt 0.415748 0.230758
vt 0.433722 0.289012
vt 0.418073 0.39263
vt 0.41874 0.258564
vt 0.417497 0.354052
vt 0.415748 0.230758
vt 0.429475 0.434017
vt 0.400504 0.407186
vt 0.418073 0.39263
vt 0.400505 0.396762
vt 0.418021 0.403067
vt 0.416215 0.449199
vt 0.415648 0.471296
vt 0.400505 0.396762
vt 0.400504 0.407186
vt 0.47898 0.430182
vt 0.477638 0.449548
vt 0.481543 0.443442
vt 0.478038 0.467845
vt 0.422747 0.265376
vt 0.426723 0.287792
vt 0.411418 0.271164
vt 0.414592 0.289117
vt 0.408803 0.26458
vt 0.419432 0.25719
vt 0.428326 0.307367
vt 0.415911 0.304799
vt 0.426363 0.309302
vt 0.414388 0.306362
vt 0.403803 0.279273
vt 0.405556 0.289217
vt 0.402368 0.275603
vt 0.406301 0.297909
vt 0.405478 0.298793
vt 0.401394 0.288078
vt 0.419268 0.269253
vt 0.419432 0.25719
vt 0.408713 0.274231
vt 0.408803 0.26458
vt 0.411192 0.292769
vt 0.422343 0.292356
vt 0.414388 0.306362
vt 0.426363 0.309302
vt 0.402331 0.280943
vt 0.402368 0.275603
vt 0.403713 0.291246
vt 0.405478 0.298793
vt 0.401394 0.288078
vt 0.427084 0.350769
vt 0.43098 0.372797
vt 0.415988 0.356326
vt 0.419098 0.373969
vt 0.413411 0.349569
vt 0.423819 0.342366
vt 0.432535 0.391675
vt 0.420377 0.389092
vt 0.430591 0.393136
vt 0.418868 0.390275
vt 0.408524 0.3641
vt 0.410243 0.373871
vt 0.40711 0.360335
vt 0.410965 0.382256
vt 0.410148 0.382928
vt 0.406155 0.372533
vt 0.423637 0.353776
vt 0.423819 0.342366
vt 0.413305 0.358697
vt 0.413411 0.349569
vt 0.415728 0.376759
vt 0.426643 0.376287
vt 0.418868 0.390275
vt 0.430591 0.393136
vt 0.407064 0.365385
vt 0.40711 0.360335
vt 0.408414 0.375424
vt 0.410148 0.382928
vt 0.406155 0.372533
vt 0.791178 0.47768
vt 0.808804 0.469279
vt 0.797591 0.485341
vt 0.811735 0.478601
vt 0.78893 0.496884
vt 0.780408 0.49208
vt 0.792253 0.504503
vt 0.784572 0.501579
vt 0.819903 0.473256
vt 0.820639 0.481775
vt 0.804018 0.492401
vt 0.811864 0.488663
vt 0.7992 0.498802
vt 0.801032 0.503035
vt 0.816807 0.490413
vt 0.817613 0.492421
vt 0.815131 0.496319
vt 0.809168 0.497446
vt 0.808115 0.501928
vt 0.804997 0.502511
vt 0.800442 0.499104
vt 0.784572 0.501579
vt 0.804997 0.502511
vt 0.792253 0.504503
vt 0.817613 0.492421
vt 0.816138 0.486538
vt 0.820639 0.481775
vt 0.819903 0.473256
vt 0.815131 0.496319
vt 0.808115 0.501928
vt 0.744452 0.55095
vt 0.759511 0.544116
vt 0.750599 0.558575
vt 0.762682 0.553092
vt 0.743631 0.568839
vt 0.735789 0.563756
vt 0.747009 0.576122
vt 0.74002 0.572837
vt 0.769537 0.548441
vt 0.770725 0.556546
vt 0.75671 0.565601
vt 0.763413 0.562559
vt 0.752833 0.571292
vt 0.754698 0.575337
vt 0.767878 0.564466
vt 0.768679 0.566289
vt 0.766744 0.569871
vt 0.761558 0.570619
vt 0.760883 0.574702
vt 0.753881 0.57142
vt 0.74002 0.572837
vt 0.758139 0.57498
vt 0.747009 0.576122
vt 0.768679 0.566289
vt 0.766995 0.560597
vt 0.770725 0.556546
vt 0.769537 0.548441
vt 0.766744 0.569871
vt 0.760883 0.574702
vt 0.754698 0.575337
vt 0.735258 0.46188
vt 0.728769 0.460322
vt 0.728099 0.44747
vt 0.720231 0.445567
vt 0.720761 0.463438
vt 0.710532 0.449349
vt 0.715944 0.469392
vt 0.704714 0.456583
vt 0.717132 0.474684
vt 0.706173 0.463015
vt 0.717132 0.474684
vt 0.723609 0.476226
vt 0.706173 0.463015
vt 0.714025 0.464893
vt 0.731589 0.473127
vt 0.723682 0.461136
vt 0.736417 0.467189
vt 0.729517 0.453926
vt 0.735258 0.46188
vt 0.728099 0.44747
vt 0.273016 0.612926
vt 0.249579 0.691998
vt 0.248747 0.623624
vt 0.227016 0.701987
vt 0.228723 0.637501
vt 0.207864 0.715382
vt 0.212826 0.654324
vt 0.199262 0.730793
vt 0.19293 0.676346
vt 0.191085 0.748859
vt 0.274765 0.686038
vt 0.299836 0.605618
vt 0.301172 0.683771
vt 0.328497 0.60239
vt 0.327979 0.685063
vt 0.357806 0.602695
vn -0.1033991 0.8925735 -0.4388863
vn -0.1513773 0.9472082 -0.2826332
vn -0.2098717 0.9773368 0.02768861
vn -0.07584554 0.8036299 -0.5902765
vn -0.03517648 0.8054259 -0.5916516
vn -0.0319129 0.8573459 -0.5137504
vn 0.009196142 0.823804 -0.5668002
vn 0.02801412 0.7980626 -0.6019229
vn 0.05754009 0.8749595 -0.480765
vn 0.871374 -0.4416365 0.2136931
vn 0.8769179 -0.3603946 0.3180107
vn 0.8406905 -0.4637955 0.2795233
vn 0.8604075 -0.3464515 0.3737249
vn 0.8062426 -0.5770932 0.1301399
vn 0.8008776 -0.5973763 0.04167125
vn 0.6717834 -0.7406625 0.01123596
vn 0.6895797 -0.7200792 -0.07723755
vn 0.5501873 -0.8349332 -0.01343329
vn 0.6294764 -0.7680122 -0.1179694
vn 0.4832978 -0.8731617 -0.06333977
vn 0.5470973 -0.813944 -0.1953964
vn 0.4023638 -0.9039904 -0.1445848
vn 0.438217 -0.8567824 -0.2718263
vn 0.3047191 -0.9301361 -0.2049224
vn 0.3217541 -0.8891235 -0.3254747
vn 0.1938496 -0.9533612 -0.2313541
vn 0.1920139 -0.9126902 -0.3607316
vn 0.06165352 -0.9671065 -0.2467873
vn 0.05183231 -0.9206913 -0.3868344
vn -0.06312656 -0.9669849 -0.2468911
vn -0.07901897 -0.9122396 -0.4019637
vn -0.1650419 -0.9560027 -0.2425283
vn -0.2025153 -0.8926606 -0.4026718
vn -0.2693317 -0.9428768 -0.1960707
vn -0.3348159 -0.8615901 -0.3815242
vn -0.3753805 -0.9174965 -0.13149
vn -0.4737504 -0.8082364 -0.3497349
vn -0.4779743 -0.8756365 -0.06929113
vn -0.6082972 -0.7346778 -0.3003716
vn -0.567495 -0.8232635 0.01366022
vn -0.7351654 -0.636683 -0.2327373
vn -0.7246265 -0.6890771 0.009446735
vn -0.855526 -0.501534 -0.1286037
vn -0.8657187 -0.4782929 0.1475367
vn -0.9434059 -0.3201284 0.08661981
vn -0.8851269 -0.3501653 0.3064876
vn -0.957253 -0.1737741 0.2312345
vn -0.3451479 -0.7409765 -0.576044
vn -0.5097916 -0.6521879 -0.5610378
vn -0.720788 -0.5002236 -0.4798342
vn -0.8685266 -0.3684167 -0.3315578
vn -0.9363874 -0.3078084 -0.1686194
vn -0.9843277 -0.1762605 -0.005577429
vn -0.3560903 -0.732674 -0.5799902
vn -0.2031251 -0.7960767 -0.5700895
vn -0.2012802 -0.7997043 -0.5656495
vn -0.06972101 -0.8342803 -0.5469144
vn 0.05831285 -0.8509999 -0.5219184
vn 0.1967627 -0.8500832 -0.4885111
vn 0.3320967 -0.8312715 -0.4457571
vn 0.4592834 -0.7978622 -0.3904801
vn 0.5840906 -0.7461432 -0.319544
vn 0.6968514 -0.6782181 -0.2332775
vn 0.7860863 -0.6033605 -0.1342553
vn 0.8478817 -0.5301644 -0.004713779
vn 0.9065161 -0.3773232 0.1893563
vn 0.9061239 -0.2569068 0.336063
vn 0.7556033 0.07562472 0.6506493
vn 0.7355814 -0.005127858 0.6774169
vn 0.8050373 0.0039254 0.5932111
vn 0.9097877 -0.2540416 0.3282519
vn 0.9026105 -0.3980616 0.1638335
vn 0.8449602 -0.5344896 -0.01905287
vn 0.7750349 -0.6132704 -0.1523822
vn 0.666994 -0.6989575 -0.2580258
vn 0.5509186 -0.7623576 -0.3395579
vn 0.4263285 -0.8086657 -0.4053439
vn 0.2990036 -0.837853 -0.4567265
vn 0.1673975 -0.852425 -0.495328
vn 0.03873897 -0.8495773 -0.5260397
vn -0.08072995 -0.8310807 -0.5502614
vn 0.8127895 -0.2211996 0.5389284
vn 0.8604075 -0.3464515 0.3737249
vn 0.7355814 -0.005127858 0.6774169
vn 0.6487575 -0.1950812 0.7355658
vn 0.6487575 -0.1950812 0.7355658
vn 0.5585681 0.03251786 0.8288211
vn 0.4547314 -0.4485571 0.7694257
vn 0.4836552 -0.02157107 0.8749927
vn 0.3109638 -0.4751254 0.8231387
vn 0.3622573 -0.006790749 0.9320534
vn 0.3109638 -0.4751254 0.8231387
vn 0.3482886 -0.1158573 0.9302001
vn 0.2080829 -0.4972535 0.8422828
vn 0.3622573 -0.006790749 0.9320534
vn 0.2541314 -0.1099045 0.9609048
vn 0.2080829 -0.4972535 0.8422828
vn 0.1234835 -0.473072 0.8723271
vn 0.1280526 -0.2374251 0.9629288
vn 0.1375317 -0.073638 0.9877563
vn 0.0216372 -0.4265266 0.9042162
vn 0.0216372 -0.4265266 0.9042162
vn -0.03770372 0.1004624 0.9942262
vn -0.08980347 -0.3754405 0.9224857
vn -0.9143915 -0.02857518 0.4038215
vn -0.957253 -0.1737741 0.2312345
vn -0.8865551 -0.1788682 0.426645
vn -0.8851269 -0.3501653 0.3064876
vn -0.7593852 -0.1298714 0.6375482
vn -0.810495 0.0660345 0.5820116
vn -0.6518052 -0.150412 0.7433211
vn -0.6749256 0.1225846 0.7276321
vn -0.4310184 -0.2921575 0.8537372
vn -0.9916539 -0.05761362 0.1153393
vn -0.9843277 -0.1762605 -0.005577429
vn -0.9434059 -0.3201284 0.08661981
vn -0.9712741 0.0764083 0.2253629
vn -0.9118133 0.2507279 0.3251646
vn -0.9844 0.06064391 0.1651636
vn -0.9325729 0.2576622 0.2528199
vn -0.7516402 0.4621019 0.4706367
vn -0.716347 0.2202245 0.6620786
vn -0.7568902 0.4802906 0.4432133
vn -0.5710503 0.5795113 0.5814363
vn -0.5226533 0.5932852 0.6122468
vn -0.4967076 0.614204 0.6132169
vn -0.4803669 0.6090832 0.6310826
vn -0.4231052 0.6171138 0.6634398
vn -0.3691552 0.6190347 0.6931958
vn -0.5757466 0.5748342 0.5814478
vn -0.9936852 -0.06882054 0.08861902
vn -0.9882338 -0.1516932 0.01957285
vn -0.4513783 0.6173621 0.6442993
vn -0.3424579 0.6173741 0.7082174
vn -0.2092904 0.6085323 0.7654318
vn -0.2725285 0.2601178 0.926319
vn -0.1505957 0.5875024 0.795086
vn 0.02489393 0.5562876 0.830617
vn -0.04688474 0.2187588 0.9746519
vn -0.2478658 0.1441703 0.958007
vn 0.06458333 0.5230113 0.8498755
vn 0.1616386 0.5201516 0.838639
vn 0.1348656 0.1629291 0.9773768
vn 0.1326454 0.5210253 0.8431712
vn 0.2676981 0.4970849 0.8253753
vn 0.2790047 0.5046121 0.8170208
vn 0.2648139 0.4938159 0.8282629
vn 0.4249919 0.4400614 0.7910296
vn 0.3664098 0.1101515 0.9239104
vn 0.4492217 0.4321078 0.7819735
vn 0.6124325 0.3172374 0.7240766
vn 0.4836552 -0.02157107 0.8749927
vn 0.3622573 -0.006790749 0.9320534
vn 0.5585681 0.03251786 0.8288211
vn 0.6147289 0.2885306 0.7340698
vn 0.6795582 0.08813612 0.7283081
vn 0.7556033 0.07562472 0.6506493
vn 0.6898798 0.2449246 0.6812325
vn 0.5821189 0.3055339 0.7535162
vn 0.8050373 0.0039254 0.5932111
vn -0.508682 0.1293379 0.8511841
vn -0.7516402 0.4621019 0.4706367
vn -0.6749256 0.1225846 0.7276321
vn -0.289199 0.4096144 0.8652052
vn -0.4132538 0.2642637 0.8714275
vn 0.1404069 0.3211177 0.9365731
vn -0.03770372 0.1004624 0.9942262
vn 0.1337593 0.0456191 0.9899634
vn -0.004925903 -0.1825189 0.9831901
vn 0.0216372 -0.4265266 0.9042162
vn 0.2469228 0.01333074 0.9689434
vn 0.1337593 0.0456191 0.9899634
vn 0.3622573 -0.006790749 0.9320534
vn 0.2676981 0.4970849 0.8253753
vn 0.2469228 0.01333074 0.9689434
vn 0.7355814 -0.005127858 0.6774169
vn 0.5585681 0.03251786 0.8288211
vn 0.6487575 -0.1950812 0.7355658
vn -0.4144473 -0.1453017 0.8983991
vn -0.6131034 0.06760621 0.7871046
vn -0.4310184 -0.2921575 0.8537372
vn -0.3690903 -0.3715546 0.8518919
vn -0.3685839 -0.371894 0.8519629
vn -0.334302 -0.3651686 0.8688464
vn -0.299112 -0.3577831 0.8846034
vn -0.2258092 -0.3468945 0.9103156
vn -0.3467687 -0.1256035 0.9295027
vn -0.334302 -0.3651686 0.8688464
vn -0.2478658 0.1441703 0.958007
vn -0.3467687 -0.1256035 0.9295027
vn -0.2258092 -0.3468945 0.9103156
vn -0.08980347 -0.3754405 0.9224857
vn -0.2130815 0.02928679 0.9765953
vn -0.03770372 0.1004624 0.9942262
vn -0.1648608 -0.1340598 0.9771637
vn -0.08980347 -0.3754405 0.9224857
vn -0.5213945 -0.6420431 -0.5620752
vn -0.81051 -0.4150666 -0.4132715
vn -0.9140767 -0.3190013 -0.2504037
vn -0.9520603 -0.2814873 -0.1197752
vn -0.9882338 -0.1516932 0.01957285
vn 0.5821189 0.3055339 0.7535162
vn 0.6898798 0.2449246 0.6812325
vn 0.6147289 0.2885306 0.7340698
vn 0.3782486 0.5127652 0.7707139
vn 0.3831972 0.4671083 0.7968499
vn 0.3807423 0.4347259 0.8161181
vn 0.3888643 0.4202927 0.8198406
vn 0.3813731 0.5714758 0.7266154
vn 0.3745462 0.6123542 0.6962309
vn 0.3740919 0.6388497 0.6722547
vn 0.3659681 0.6522616 0.6637937
vn 0.1965414 0.8825014 -0.4272736
vn 0.1892408 0.8860374 -0.4232323
vn 0.1912225 0.8844764 -0.4256
vn 0.185653 0.8875405 -0.4216693
vn 0.2049915 0.8811148 -0.4261633
vn 0.2042919 0.8798736 -0.4290538
vn 0.1923149 0.8871664 -0.4194648
vn 0.1953196 0.8901975 -0.4115806
vn 0.1978341 0.8887333 -0.4135395
vn 0.2019794 0.8864287 -0.4164714
vn -0.8619701 0.3950976 0.3176564
vn -0.8693317 0.394363 0.297893
vn -0.8776264 0.3884934 0.2807934
vn -0.8802271 0.3931806 0.2657238
vn -0.8860306 0.3911875 0.2488416
vn -0.8851281 0.3933508 0.2486432
vn -0.8824843 0.3978059 0.2509419
vn -0.8817453 0.3974543 0.2540776
vn -0.869938 0.4035435 0.2834794
vn -0.8847937 0.3939204 0.2489315
vn -0.8794302 0.3990118 0.2595998
vn -0.8836337 0.3941143 0.2527157
vn 0.3313181 0.9230978 -0.1952402
vn 0.3304314 0.9224422 -0.1997891
vn 0.3243011 0.9229153 -0.2074998
vn 0.310854 0.919387 -0.2410342
vn 0.2966298 0.9160963 -0.2697744
vn 0.263212 0.9067635 -0.3293925
vn -0.9075423 0.2300643 0.3513364
vn -0.8722578 0.2687114 0.408608
vn -0.8594146 0.3173812 0.4008437
vn -0.8828025 0.2195334 0.4152889
vn -0.8538117 0.2079474 0.4772456
vn -0.8006397 0.4007638 0.445381
vn 0.3311667 0.4166304 0.8466095
vn 0.2798254 0.4912559 0.8248426
vn 0.2798254 0.4912559 0.8248426
vn 0.2260556 0.561618 0.7959171
vn 0.02294519 0.5592287 0.8286958
vn 0.02314508 0.5589724 0.8288632
vn 0.02314508 0.5589724 0.8288632
vn 0.02334496 0.558716 0.8290304
vn -0.007383371 0.8851323 -0.4652809
vn -0.09485333 0.8423357 -0.5305407
vn -0.1035663 0.825967 -0.5541233
vn 0.004263151 0.9429418 -0.3329304
vn 0.04982705 0.9696191 -0.2394913
vn -0.06917465 0.9849418 -0.1584433
vn 0.02332146 0.5592636 0.8286618
vn 0.02457359 0.5591271 0.8287177
vn 0.02457359 0.5591271 0.8287177
vn 0.02582568 0.5589897 0.8287724
vn -0.02646277 0.8569062 -0.5147926
vn -0.03552891 0.8542136 -0.5187069
vn -0.03869808 0.8515795 -0.5227953
vn -0.04608438 0.847416 -0.5289258
vn -0.04682989 0.8453894 -0.5320936
vn -0.04862737 0.8445491 -0.5332657
vn -0.9661342 -0.006913758 0.2579477
vn -0.981818 -0.06632747 0.1778595
vn -0.9856713 -0.1139943 0.1243272
vn -0.9842467 -0.171937 0.04118217
vn -0.9845243 -0.1606527 0.07001878
vn -0.9732521 -0.01918436 0.2289372
vn -0.1669026 -0.5704606 -0.8041879
vn -0.1669026 -0.5704606 -0.8041879
vn -0.1668888 -0.5704718 -0.8041828
vn -0.1669164 -0.5704494 -0.8041929
vn -0.9737733 -0.02079767 0.226568
vn -0.9738323 -0.03025618 0.2252445
vn -0.9738323 -0.03025618 0.2252445
vn -0.9738027 -0.03971193 0.2239005
vn 0.9915136 0.0931694 -0.09066635
vn 0.9945649 0.09447213 -0.04376761
vn 0.9945649 0.09447213 -0.04376761
vn 0.9954178 0.09556603 0.003227884
vn -0.5772663 0.6106046 -0.5421491
vn -0.4985612 0.84927 0.1737155
vn -0.7399222 0.5875283 -0.3276057
vn -0.6567533 0.6797751 0.3264671
vn -0.7392595 0.003642995 -0.6734109
vn -0.5456157 -0.133149 -0.8273904
vn -0.3577252 0.4235761 0.8322355
vn -0.5327531 0.1958916 0.8232864
vn -0.231746 -0.3831725 0.8941323
vn -0.4388019 -0.4936704 0.7508277
vn -0.9397195 0.3306844 -0.0870354
vn -0.8831839 0.3403845 0.3226834
vn -0.9441052 -0.00806847 -0.3295458
vn -0.8041129 0.006762549 0.5944383
vn -0.752539 -0.4120907 0.5136791
vn -0.979777 -0.1269721 0.1546449
vn -0.3859615 -0.8227884 -0.4171966
vn -0.5456157 -0.133149 -0.8273904
vn -0.6157478 -0.6556206 -0.4370541
vn -0.7392595 0.003642995 -0.6734109
vn -0.4687913 -0.8606004 0.1990017
vn -0.238939 -0.9117337 0.3341402
vn -0.4388019 -0.4936704 0.7508277
vn -0.231746 -0.3831725 0.8941323
vn -0.8754379 -0.4284787 -0.2236391
vn -0.9441052 -0.00806847 -0.3295458
vn -0.7819802 -0.6041469 0.153341
vn -0.752539 -0.4120907 0.5136791
vn -0.979777 -0.1269721 0.1546449
vn -0.5772073 0.6106105 -0.5422055
vn -0.4985248 0.8492985 0.1736807
vn -0.739872 0.5875515 -0.3276773
vn -0.6567684 0.6797507 0.3264877
vn -0.7392215 0.003641959 -0.6734527
vn -0.5455856 -0.1330957 -0.8274189
vn -0.3577159 0.4235892 0.8322329
vn -0.5327717 0.1959108 0.8232699
vn -0.2317637 -0.3831598 0.8941333
vn -0.4388105 -0.4936689 0.7508237
vn -0.939729 0.3306756 -0.08696569
vn -0.8831804 0.3403875 0.3226898
vn -0.9440861 -0.008168108 -0.3295978
vn -0.8041521 0.006831736 0.5943844
vn -0.7525439 -0.4120667 0.5136912
vn -0.9797911 -0.1269307 0.1545897
vn -0.3860005 -0.822777 -0.417183
vn -0.5455856 -0.1330957 -0.8274189
vn -0.6158102 -0.6555434 -0.4370818
vn -0.7392215 0.003641959 -0.6734527
vn -0.4687558 -0.8606136 0.1990279
vn -0.2390107 -0.9117161 0.334137
vn -0.4388105 -0.4936689 0.7508237
vn -0.2317637 -0.3831598 0.8941333
vn -0.8754466 -0.4284125 -0.223732
vn -0.9440861 -0.008168108 -0.3295978
vn -0.7820646 -0.6040616 0.1532473
vn -0.7525439 -0.4120667 0.5136912
vn -0.9797911 -0.1269307 0.1545897
vn -0.5249888 0.8425812 0.1201814
vn 0.1241033 0.9589252 -0.2550703
vn -0.2855075 0.9366401 0.2029552
vn 0.3245317 0.9437402 -0.06350932
vn -0.5351962 0.5132688 0.6709099
vn -0.6967465 0.2814701 0.6597871
vn -0.2262535 -0.05170847 0.9726951
vn -0.2196394 -0.3310957 0.9176787
vn 0.8067133 0.5499762 -0.2161938
vn 0.8609995 0.5047856 0.06221963
vn 0.02047658 0.8861622 0.4629226
vn 0.4090365 0.8526437 0.3250965
vn -0.1643976 0.644018 0.7471374
vn -0.009502401 0.2909033 0.9567053
vn 0.710973 0.5547585 0.4321578
vn 0.8783602 -0.06060622 0.4741417
vn 0.686568 0.2151824 0.6944932
vn 0.3312163 0.5800585 0.7441962
vn 0.3689181 0.09741234 0.9243431
vn 0.4003291 -0.3043652 0.8643485
vn 0.5019018 -0.4998728 0.7058483
vn -0.2196394 -0.3310957 0.9176787
vn 0.4003291 -0.3043652 0.8643485
vn -0.2262535 -0.05170847 0.9726951
vn 0.8783602 -0.06060622 0.4741417
vn 0.9673637 -0.1231401 0.2214592
vn 0.8609995 0.5047856 0.06221963
vn 0.8067133 0.5499762 -0.2161938
vn 0.686568 0.2151824 0.6944932
vn 0.3689181 0.09741234 0.9243431
vn -0.5518138 0.8222296 0.1394266
vn 0.1564879 0.9477175 -0.2781062
vn -0.299504 0.9304664 0.2110204
vn 0.358878 0.928838 -0.09201407
vn -0.5782592 0.4641453 0.6709585
vn -0.7246717 0.238783 0.6464005
vn -0.2794017 -0.07239361 0.9574413
vn -0.2775263 -0.3345035 0.9006034
vn 0.8185858 0.5135594 -0.2572432
vn 0.8737795 0.4863202 0.001457775
vn 0.01662737 0.8846291 0.4659988
vn 0.4393777 0.8479866 0.2964219
vn -0.2064234 0.6180352 0.7585655
vn -0.05812043 0.2687621 0.9614514
vn 0.7410223 0.5512101 0.3834755
vn 0.9011624 -0.05303723 0.4302247
vn 0.708221 0.2193651 0.6710454
vn 0.3312347 0.580094 0.7441602
vn 0.3488517 0.09392145 0.9324598
vn 0.5013992 -0.5006194 0.7056764
vn -0.2775263 -0.3345035 0.9006034
vn 0.3816757 -0.3059289 0.8721991
vn -0.2794017 -0.07239361 0.9574413
vn 0.9011624 -0.05303723 0.4302247
vn 0.9796195 -0.1076548 0.1695762
vn 0.8737795 0.4863202 0.001457775
vn 0.8185858 0.5135594 -0.2572432
vn 0.708221 0.2193651 0.6710454
vn 0.3488517 0.09392145 0.9324598
vn -0.05812043 0.2687621 0.9614514
vn 0.8003554 0.3763361 -0.4666929
vn 0.1683867 0.7880839 -0.5920892
vn 0.616816 0.5570645 -0.556073
vn -0.09706758 0.8374134 -0.5378818
vn -0.5487528 0.7731558 -0.3179631
vn -0.7354155 0.6602042 -0.152625
vn -0.9202653 0.3433546 0.1876687
vn -0.921189 0.1409696 0.3626822
vn -0.7429731 -0.2380532 0.625557
vn -0.5643846 -0.4147894 0.7137365
vn -0.7429731 -0.2380532 0.625557
vn -0.1248834 -0.6449694 0.7539354
vn -0.5643846 -0.4147894 0.7137365
vn 0.1369957 -0.6969179 0.7039443
vn 0.5908955 -0.6405753 0.4904139
vn 0.7821813 -0.5310346 0.3258751
vn 0.9763349 -0.2154815 -0.01837923
vn 0.980186 -0.009935883 -0.1978298
vn 0.8003554 0.3763361 -0.4666929
vn 0.616816 0.5570645 -0.556073
vn 0.3477798 0.7433296 0.5714108
vn 0.3836457 0.7211086 0.5769042
vn 0.5047557 0.6580354 0.5587586
vn 0.5463723 0.6272181 0.5550448
vn 0.6587906 0.5461476 0.5174145
vn 0.7484828 0.479753 0.4578325
vn 0.8022407 0.4346743 0.4092286
vn 0.839086 0.4223954 0.3428071
vn 0.8239373 0.4488148 0.3459662
vn 0.8687654 0.4166774 0.2676317
vn 0.2355926 0.7868041 0.5704694
vn 0.1996053 0.8030165 0.5615356
vn 0.09513722 0.8285064 0.5518389
vn 0.05915795 0.8371924 0.5436995
vn 0.01223589 0.8439126 0.5363411
vn 0.01866813 0.8442739 0.5355868
g Pump_Base_0
f 3/3/3 2/2/2 1/1/1
f 4/4/4 1/1/1 2/2/2
f 5/5/5 1/1/1 4/4/4
f 6/6/6 1/1/1 5/5/5
f 7/7/7 6/6/6 5/5/5
f 8/8/8 7/7/7 5/5/5
f 9/9/9 7/7/7 8/8/8
f 12/12/12 11/11/11 10/10/10
f 13/13/13 11/11/11 12/12/12
f 12/12/12 10/10/10 14/14/14
f 14/14/14 10/10/10 15/15/15
f 14/14/14 15/15/15 16/16/16
f 16/16/16 15/15/15 17/17/17
f 16/16/16 17/17/17 18/18/18
f 18/18/18 17/17/17 19/19/19
f 18/18/18 19/19/19 20/20/20
f 20/20/20 19/19/19 21/21/21
f 20/20/20 21/21/21 22/22/22
f 22/22/22 21/21/21 23/23/23
f 22/22/22 23/23/23 24/24/24
f 24/24/24 23/23/23 25/25/25
f 24/24/24 25/25/25 26/26/26
f 26/26/26 25/25/25 27/27/27
f 26/26/26 27/27/27 28/28/28
f 28/28/28 27/27/27 29/29/29
f 28/28/28 29/29/29 30/30/30
f 30/30/30 29/29/29 31/31/31
f 30/30/30 31/31/31 32/32/32
f 32/32/32 31/31/31 33/33/33
f 32/32/32 33/33/33 34/34/34
f 34/34/34 33/33/33 35/35/35
f 34/34/34 35/35/35 36/36/36
f 36/36/36 35/35/35 37/37/37
f 36/36/36 37/37/37 38/38/38
f 38/38/38 37/37/37 39/39/39
f 38/38/38 39/39/39 40/40/40
f 40/40/40 39/39/39 41/41/41
f 40/40/40 41/41/41 42/42/42
f 42/42/42 41/41/41 43/43/43
f 42/42/42 43/43/43 44/44/44
f 44/44/44 43/43/43 45/45/45
f 44/44/44 45/45/45 46/46/46
f 46/46/46 45/45/45 47/47/47
f 35/35/35 48/48/48 37/37/37
f 37/37/37 48/48/48 49/49/49
f 37/37/37 49/49/49 39/39/39
f 39/39/39 49/49/49 50/50/50
f 39/39/39 50/50/50 41/41/41
f 41/41/41 50/50/50 51/51/51
f 41/41/41 51/51/51 43/43/43
f 43/43/43 51/51/51 52/52/52
f 43/43/43 52/52/52 45/45/45
f 45/45/45 52/52/52 53/53/53
f 48/48/48 54/54/54 49/49/49
f 48/48/48 55/55/55 54/54/54
f 56/56/56 55/55/55 48/48/48
f 35/35/35 56/56/56 48/48/48
f 33/33/33 56/56/56 35/35/35
f 33/33/33 57/57/57 56/56/56
f 31/31/31 57/57/57 33/33/33
f 31/31/31 58/58/58 57/57/57
f 29/29/29 58/58/58 31/31/31
f 29/29/29 59/59/59 58/58/58
f 27/27/27 59/59/59 29/29/29
f 27/27/27 60/60/60 59/59/59
f 25/25/25 60/60/60 27/27/27
f 25/25/25 61/61/61 60/60/60
f 23/23/23 61/61/61 25/25/25
f 23/23/23 62/62/62 61/61/61
f 21/21/21 62/62/62 23/23/23
f 21/21/21 63/63/63 62/62/62
f 19/19/19 63/63/63 21/21/21
f 19/19/19 64/64/64 63/63/63
f 17/17/17 64/64/64 19/19/19
f 17/17/17 65/65/65 64/64/64
f 15/15/15 65/65/65 17/17/17
f 15/15/15 66/66/66 65/65/65
f 10/10/10 66/66/66 15/15/15
f 10/10/10 67/67/67 66/66/66
f 11/11/11 67/67/67 10/10/10
f 11/11/11 68/68/68 67/67/67
f 69/69/69 68/68/68 11/11/11
f 68/68/68 70/70/70 67/67/67
f 67/67/67 70/70/70 71/71/71
f 67/67/67 71/71/71 66/66/66
f 66/66/66 71/71/71 72/72/72
f 66/66/66 72/72/72 65/65/65
f 65/65/65 72/72/72 73/73/73
f 65/65/65 73/73/73 64/64/64
f 64/64/64 73/73/73 74/74/74
f 64/64/64 74/74/74 63/63/63
f 63/63/63 74/74/74 75/75/75
f 63/63/63 75/75/75 62/62/62
f 62/62/62 75/75/75 76/76/76
f 62/62/62 76/76/76 61/61/61
f 61/61/61 76/76/76 77/77/77
f 61/61/61 77/77/77 60/60/60
f 60/60/60 77/77/77 78/78/78
f 60/60/60 78/78/78 59/59/59
f 59/59/59 78/78/78 79/79/79
f 59/59/59 79/79/79 58/58/58
f 58/58/58 79/79/79 80/80/80
f 58/58/58 80/80/80 57/57/57
f 57/57/57 80/80/80 81/81/81
f 57/57/57 81/81/81 56/56/56
f 56/56/56 81/81/81 55/55/55
f 13/13/13 82/82/82 11/11/11
f 85/85/85 84/84/84 83/83/83
f 88/88/88 87/87/87 86/86/86
f 88/88/88 89/89/89 87/87/87
f 90/90/90 89/89/89 88/88/88
f 90/90/90 91/91/91 89/89/89
f 94/94/94 93/93/93 92/92/92
f 97/97/97 96/96/96 95/95/95
f 98/98/98 96/96/96 97/97/97
f 98/98/98 99/99/99 96/96/96
f 101/101/101 100/100/100 98/98/98
f 104/104/104 103/103/103 102/102/102
f 107/107/107 106/106/106 105/105/105
f 108/108/108 106/106/106 107/107/107
f 107/107/107 105/105/105 109/109/109
f 109/109/109 105/105/105 110/110/110
f 109/109/109 110/110/110 111/111/111
f 111/111/111 110/110/110 112/112/112
f 111/111/111 112/112/112 113/113/113
f 106/106/106 114/114/114 105/105/105
f 106/106/106 115/115/115 114/114/114
f 116/116/116 115/115/115 106/106/106
f 105/105/105 114/114/114 117/117/117
f 105/105/105 117/117/117 110/110/110
f 110/110/110 117/117/117 118/118/118
f 110/110/110 118/118/118 112/112/112
f 117/117/117 119/119/119 118/118/118
f 118/118/118 119/119/119 120/120/120
f 118/118/118 120/120/120 121/121/121
f 122/122/122 118/118/118 121/121/121
f 121/121/121 120/120/120 123/123/123
f 121/121/121 123/123/123 124/124/124
f 125/125/125 121/121/121 124/124/124
f 125/125/125 124/124/124 126/126/126
f 126/126/126 124/124/124 127/127/127
f 126/126/126 127/127/127 128/128/128
f 128/128/128 127/127/127 129/129/129
f 124/124/124 130/130/130 127/127/127
f 124/124/124 123/123/123 130/130/130
f 117/117/117 131/131/131 119/119/119
f 114/114/114 131/131/131 117/117/117
f 114/114/114 132/132/132 131/131/131
f 115/115/115 132/132/132 114/114/114
f 127/127/127 133/133/133 129/129/129
f 127/127/127 130/130/130 133/133/133
f 129/129/129 133/133/133 134/134/134
f 129/129/129 134/134/134 135/135/135
f 136/136/136 129/129/129 135/135/135
f 135/135/135 134/134/134 137/137/137
f 135/135/135 137/137/137 138/138/138
f 139/139/139 135/135/135 138/138/138
f 140/140/140 135/135/135 139/139/139
f 138/138/138 137/137/137 141/141/141
f 138/138/138 141/141/141 142/142/142
f 143/143/143 138/138/138 142/142/142
f 142/142/142 141/141/141 144/144/144
f 142/142/142 144/144/144 145/145/145
f 146/146/146 142/142/142 145/145/145
f 145/145/145 144/144/144 147/147/147
f 145/145/145 147/147/147 148/148/148
f 149/149/149 145/145/145 148/148/148
f 148/148/148 147/147/147 150/150/150
f 148/148/148 150/150/150 151/151/151
f 152/152/152 148/148/148 151/151/151
f 153/153/153 148/148/148 152/152/152
f 152/152/152 151/151/151 154/154/154
f 154/154/154 151/151/151 155/155/155
f 154/154/154 155/155/155 156/156/156
f 156/156/156 155/155/155 157/157/157
f 151/151/151 150/150/150 158/158/158
f 151/151/151 158/158/158 155/155/155
f 155/155/155 159/159/159 157/157/157
f 157/157/157 159/159/159 160/160/160
f 163/163/163 162/162/162 161/161/161
f 165/165/165 129/129/129 164/164/164
f 167/167/167 138/138/138 166/166/166
f 170/170/170 169/169/169 168/168/168
f 172/172/172 142/142/142 171/171/171
f 175/175/175 174/174/174 173/173/173
f 178/178/178 177/177/177 176/176/176
f 181/181/181 180/180/180 179/179/179
f 181/181/181 179/179/179 182/182/182
f 182/182/182 179/179/179 183/183/183
f 182/182/182 183/183/183 184/184/184
f 184/184/184 183/183/183 185/185/185
f 188/188/188 187/187/187 186/186/186
f 191/191/191 190/190/190 189/189/189
f 191/191/191 193/193/193 192/192/192
f 196/196/196 195/195/195 194/194/194
f 49/49/49 54/54/54 197/197/197
f 49/49/49 197/197/197 50/50/50
f 50/50/50 197/197/197 198/198/198
f 50/50/50 198/198/198 51/51/51
f 51/51/51 198/198/198 199/199/199
f 51/51/51 199/199/199 52/52/52
f 52/52/52 199/199/199 200/200/200
f 52/52/52 200/200/200 53/53/53
f 53/53/53 200/200/200 201/201/201
f 204/204/204 203/203/203 202/202/202
f 207/207/207 206/206/206 205/205/205
f 208/208/208 206/206/206 207/207/207
f 206/206/206 209/209/209 205/205/205
f 205/205/205 209/209/209 210/210/210
f 209/209/209 211/211/211 210/210/210
f 210/210/210 211/211/211 212/212/212
f 215/215/215 214/214/214 213/213/213
f 216/216/216 214/214/214 215/215/215
f 215/215/215 213/213/213 217/217/217
f 217/217/217 213/213/213 218/218/218
f 219/219/219 214/214/214 216/216/216
f 220/220/220 214/214/214 219/219/219
f 219/219/219 221/221/221 220/220/220
f 220/220/220 221/221/221 222/222/222
f 222/222/222 217/217/217 218/218/218
f 221/221/221 217/217/217 222/222/222
f 225/225/225 224/224/224 223/223/223
f 226/226/226 224/224/224 225/225/225
f 227/227/227 226/226/226 225/225/225
f 228/228/228 226/226/226 227/227/227
f 229/229/229 228/228/228 227/227/227
f 230/230/230 228/228/228 229/229/229
f 226/226/226 231/231/231 224/224/224
f 230/230/230 232/232/232 228/228/228
f 233/233/233 232/232/232 230/230/230
f 228/228/228 234/234/234 226/226/226
f 232/232/232 234/234/234 228/228/228
f 234/234/234 231/231/231 226/226/226
f 237/237/237 236/236/236 235/235/235
f 235/235/235 236/236/236 238/238/238
f 236/236/236 239/239/239 238/238/238
f 238/238/238 239/239/239 240/240/240
f 243/243/243 242/242/242 241/241/241
f 242/242/242 244/244/244 241/241/241
f 245/245/245 244/244/244 242/242/242
f 246/246/246 242/242/242 243/243/243
f 249/249/249 248/248/248 247/247/247
f 250/250/250 248/248/248 249/249/249
f 253/253/253 252/252/252 251/251/251
f 254/254/254 252/252/252 253/253/253
f 257/257/257 256/256/256 255/255/255
f 255/255/255 256/256/256 258/258/258
f 255/255/255 258/258/258 259/259/259
f 259/259/259 258/258/258 260/260/260
f 263/263/263 262/262/262 261/261/261
f 264/264/264 262/262/262 263/263/263
f 267/267/267 266/266/266 265/265/265
f 268/268/268 266/266/266 267/267/267
f 269/269/269 268/268/268 267/267/267
f 270/270/270 268/268/268 269/269/269
f 273/273/273 272/272/272 271/271/271
f 273/273/273 274/274/274 272/272/272
f 275/275/275 274/274/274 273/273/273
f 271/271/271 272/272/272 276/276/276
f 279/279/279 278/278/278 277/277/277
f 277/277/277 278/278/278 280/280/280
f 283/283/283 282/282/282 281/281/281
f 284/284/284 282/282/282 283/283/283
f 287/287/287 286/286/286 285/285/285
f 288/288/288 286/286/286 287/287/287
f 291/291/291 290/290/290 289/289/289
f 292/292/292 290/290/290 291/291/291
f 291/291/291 289/289/289 293/293/293
f 293/293/293 289/289/289 294/294/294
f 292/292/292 295/295/295 290/290/290
f 296/296/296 295/295/295 292/292/292
f 296/296/296 297/297/297 295/295/295
f 298/298/298 297/297/297 296/296/296
f 299/299/299 292/292/292 291/291/291
f 300/300/300 292/292/292 299/299/299
f 300/300/300 296/296/296 292/292/292
f 301/301/301 291/291/291 293/293/293
f 299/299/299 291/291/291 301/301/301
f 302/302/302 298/298/298 296/296/296
f 302/302/302 296/296/296 300/300/300
f 303/303/303 298/298/298 302/302/302
f 304/304/304 300/300/300 299/299/299
f 304/304/304 299/299/299 301/301/301
f 304/304/304 303/303/303 302/302/302
f 304/304/304 302/302/302 300/300/300
f 307/307/307 306/306/306 305/305/305
f 308/308/308 306/306/306 307/307/307
f 307/307/307 305/305/305 309/309/309
f 309/309/309 305/305/305 310/310/310
f 309/309/309 310/310/310 311/311/311
f 311/311/311 310/310/310 312/312/312
f 313/313/313 308/308/308 307/307/307
f 314/314/314 308/308/308 313/313/313
f 315/315/315 307/307/307 309/309/309
f 313/313/313 307/307/307 315/315/315
f 316/316/316 309/309/309 311/311/311
f 315/315/315 309/309/309 316/316/316
f 317/317/317 314/314/314 313/313/313
f 317/317/317 313/313/313 315/315/315
f 317/317/317 315/315/315 316/316/316
f 320/320/320 319/319/319 318/318/318
f 321/321/321 319/319/319 320/320/320
f 320/320/320 318/318/318 322/322/322
f 322/322/322 318/318/318 323/323/323
f 321/321/321 324/324/324 319/319/319
f 325/325/325 324/324/324 321/321/321
f 325/325/325 326/326/326 324/324/324
f 327/327/327 326/326/326 325/325/325
f 328/328/328 321/321/321 320/320/320
f 329/329/329 321/321/321 328/328/328
f 329/329/329 325/325/325 321/321/321
f 330/330/330 320/320/320 322/322/322
f 328/328/328 320/320/320 330/330/330
f 331/331/331 327/327/327 325/325/325
f 331/331/331 325/325/325 329/329/329
f 332/332/332 327/327/327 331/331/331
f 333/333/333 329/329/329 328/328/328
f 333/333/333 328/328/328 330/330/330
f 333/333/333 332/332/332 331/331/331
f 333/333/333 331/331/331 329/329/329
f 336/336/336 335/335/335 334/334/334
f 337/337/337 335/335/335 336/336/336
f 336/336/336 334/334/334 338/338/338
f 338/338/338 334/334/334 339/339/339
f 338/338/338 339/339/339 340/340/340
f 340/340/340 339/339/339 341/341/341
f 342/342/342 337/337/337 336/336/336
f 343/343/343 337/337/337 342/342/342
f 344/344/344 336/336/336 338/338/338
f 342/342/342 336/336/336 344/344/344
f 345/345/345 338/338/338 340/340/340
f 344/344/344 338/338/338 345/345/345
f 346/346/346 343/343/343 342/342/342
f 346/346/346 342/342/342 344/344/344
f 346/346/346 344/344/344 345/345/345
f 349/349/349 348/348/348 347/347/347
f 350/350/350 348/348/348 349/349/349
f 349/349/349 347/347/347 351/351/351
f 351/351/351 347/347/347 352/352/352
f 351/351/351 352/352/352 353/353/353
f 353/353/353 352/352/352 354/354/354
f 350/350/350 355/355/355 348/348/348
f 356/356/356 355/355/355 350/350/350
f 357/357/357 350/350/350 349/349/349
f 358/358/358 350/350/350 357/357/357
f 358/358/358 356/356/356 350/350/350
f 359/359/359 349/349/349 351/351/351
f 357/357/357 349/349/349 359/359/359
f 360/360/360 351/351/351 353/353/353
f 359/359/359 351/351/351 360/360/360
f 361/361/361 356/356/356 358/358/358
f 361/361/361 362/362/362 356/356/356
f 363/363/363 362/362/362 361/361/361
f 364/364/364 358/358/358 357/357/357
f 364/364/364 357/357/357 359/359/359
f 364/364/364 359/359/359 360/360/360
f 364/364/364 363/363/363 361/361/361
f 364/364/364 361/361/361 358/358/358
f 364/364/364 360/360/360 365/365/365
f 364/364/364 365/365/365 363/363/363
f 360/360/360 353/353/353 365/365/365
f 365/365/365 353/353/353 366/366/366
f 369/369/369 368/368/368 367/367/367
f 370/370/370 368/368/368 369/369/369
f 369/369/369 367/367/367 371/371/371
f 371/371/371 367/367/367 372/372/372
f 371/371/371 372/372/372 373/373/373
f 373/373/373 372/372/372 374/374/374
f 375/375/375 369/369/369 371/371/371
f 376/376/376 369/369/369 375/375/375
f 379/379/379 378/378/378 377/377/377
f 380/380/380 378/378/378 379/379/379
f 379/379/379 377/377/377 381/381/381
f 381/381/381 377/377/377 382/382/382
f 381/381/381 382/382/382 383/383/383
f 383/383/383 382/382/382 384/384/384
f 380/380/380 385/385/385 378/378/378
f 386/386/386 385/385/385 380/380/380
f 387/387/387 380/380/380 379/379/379
f 388/388/388 380/380/380 387/387/387
f 388/388/388 386/386/386 380/380/380
f 389/389/389 379/379/379 381/381/381
f 387/387/387 379/379/379 389/389/389
f 389/389/389 381/381/381 390/390/390
f 390/390/390 381/381/381 383/383/383
f 391/391/391 386/386/386 388/388/388
f 391/391/391 392/392/392 386/386/386
f 393/393/393 392/392/392 391/391/391
f 394/394/394 388/388/388 387/387/387
f 394/394/394 387/387/387 389/389/389
f 394/394/394 389/389/389 390/390/390
f 394/394/394 393/393/393 391/391/391
f 394/394/394 391/391/391 388/388/388
f 394/394/394 390/390/390 395/395/395
f 394/394/394 395/395/395 393/393/393
f 398/398/398 397/397/397 396/396/396
f 399/399/399 397/397/397 398/398/398
f 398/398/398 396/396/396 400/400/400
f 400/400/400 396/396/396 401/401/401
f 400/400/400 401/401/401 402/402/402
f 402/402/402 401/401/401 403/403/403
f 404/404/404 398/398/398 400/400/400
f 405/405/405 398/398/398 404/404/404
f 405/405/405 399/399/399 398/398/398
f 406/406/406 399/399/399 405/405/405
f 409/409/409 408/408/408 407/407/407
f 410/410/410 408/408/408 409/409/409
f 410/410/410 411/411/411 408/408/408
f 412/412/412 411/411/411 410/410/410
f 412/412/412 413/413/413 411/411/411
f 414/414/414 413/413/413 412/412/412
f 414/414/414 415/415/415 413/413/413
f 416/416/416 415/415/415 414/414/414
f 419/419/419 418/418/418 417/417/417
f 420/420/420 418/418/418 419/419/419
f 420/420/420 421/421/421 418/418/418
f 422/422/422 421/421/421 420/420/420
f 422/422/422 423/423/423 421/421/421
f 424/424/424 423/423/423 422/422/422
f 424/424/424 425/425/425 423/423/423
f 426/426/426 425/425/425 424/424/424
f 429/429/429 428/428/428 427/427/427
f 430/430/430 428/428/428 429/429/429
f 431/431/431 430/430/430 429/429/429
f 432/432/432 430/430/430 431/431/431
f 433/433/433 432/432/432 431/431/431
f 434/434/434 432/432/432 433/433/433
f 435/435/435 434/434/434 433/433/433
f 436/436/436 434/434/434 435/435/435
f 428/428/428 437/437/437 427/427/427
f 427/427/427 437/437/437 438/438/438
f 437/437/437 439/439/439 438/438/438
f 438/438/438 439/439/439 440/440/440
f 439/439/439 441/441/441 440/440/440
f 440/440/440 441/441/441 442/442/442
