g Pump_LeftPipe
v 1277.11 128.1157 -1115.994
v 1275.347 109.207 -1108.411
v 1299.772 128.9353 -1108.682
v 1298.01 110.0265 -1101.099
v 1295.412 106.324 -1092.633
v 1272.378 104.9031 -1100.578
v 1269.069 99.9566 -1091.633
v 1292.475 102.1386 -1083.063
v 1265.176 107.9498 -1073.521
v 1286.412 109.8921 -1065.139
v 1260.837 128.2868 -1065.296
v 1283.371 128.7448 -1057.828
v 1238.303 127.8288 -1072.763
v 1243.941 106.0075 -1081.903
v 1215.769 127.3709 -1080.231
v 1245.662 97.77463 -1100.202
v 1222.705 104.0652 -1090.285
v 1193.235 126.9129 -1087.699
v 1201.47 102.1229 -1098.667
v 1222.255 95.59267 -1108.772
v 1201.47 102.1229 -1098.667
v 1198.848 93.41071 -1117.342
v 1249.343 103.4821 -1108.524
v 1222.255 95.59267 -1108.772
v 1252.685 108.3876 -1115.724
v 1226.309 102.0612 -1116.469
v 1222.255 95.59267 -1108.772
v 1198.848 93.41071 -1117.342
v 1203.275 100.6403 -1124.414
v 1177.549 115.6497 -1140.776
v 1230.023 107.5681 -1123.036
v 1207.36 106.7487 -1130.348
v 1183.623 119.9027 -1141.104
v 1231.786 126.4767 -1130.619
v 1209.124 125.6572 -1137.931
v 1198.876 124.062 -1140.252
v 1254.448 127.2962 -1123.306
v 1296.731 147.7881 -1101.37
v 1277.11 128.1157 -1115.994
v 1299.772 128.9353 -1108.682
v 1274.334 145.9653 -1108.043
v 1293.957 151.3358 -1093.169
v 1271.601 149.6566 -1099.903
v 1268.361 154.0323 -1090.254
v 1290.667 155.5413 -1083.447
v 1288.237 152.0778 -1075.527
v 1265.834 150.9522 -1082.577
v 1262.606 147.0175 -1072.771
v 1285.133 147.6533 -1065.411
v 1283.371 128.7448 -1057.828
v 1260.837 128.2868 -1065.296
v 1249.246 147.9774 -1106.637
v 1251.937 144.1425 -1114.715
v 1229.54 142.3197 -1121.388
v 1231.786 126.4767 -1130.619
v 1209.124 125.6572 -1137.931
v 1207.143 140.4969 -1128.06
v 1198.876 124.062 -1140.252
v 1194.257 140.6297 -1131.92
v 1226.89 146.2982 -1113.371
v 1204.535 144.6189 -1120.105
v 1194.257 140.6297 -1131.92
v 1191.313 144.1542 -1125.003
v 1201.443 149.5054 -1110.675
v 1187.821 148.3324 -1116.804
v 1198.625 147.5756 -1103.727
v 1185.948 146.5798 -1108.922
v 1195.026 145.1098 -1094.851
v 1184.041 144.6313 -1098.998
v 1193.235 126.9129 -1087.699
v 1187.439 141.5421 -1123.561
v 1190.468 138.166 -1130.219
v 1172.645 134.387 -1133.958
v 1169.288 137.5426 -1129.284
v 1164.785 127.7515 -1135.57
v 1161.045 131.0352 -1130.61
v 1160.12 118.093 -1133.522
v 1154.598 119.9286 -1127.125
v 1156.611 134.9277 -1124.73
v 1148.051 122.1043 -1119.543
v 1165.31 141.2831 -1123.743
v 1166.468 141.1148 -1114.877
v 1157.875 134.7699 -1115.473
v 1148.051 122.1043 -1119.543
v 1150.892 123.5853 -1111.056
v 1159.492 134.5677 -1103.648
v 1155.417 124.241 -1098.199
v 1173.441 123.7895 -1088.702
v 1170.573 121.602 -1088.019
v 1189.706 117.0839 -1087.386
v 1177.341 125.4486 -1088.563
v 1185.702 126.4106 -1088.784
v 1193.235 126.9129 -1087.699
v 1167.949 140.8991 -1103.552
v 1181.31 144.5124 -1100.029
v 1156.667 115.7508 -1092.721
v 1149.301 108.7479 -1103.667
v 1149.301 108.7479 -1103.667
v 1147.403 104.6267 -1110.413
v 1148.051 122.1043 -1119.543
v 1182.797 146.3324 -1110.213
v 1183.849 145.5442 -1115.668
v 1193.235 126.9129 -1087.699
v 1201.47 102.1229 -1098.667
v 1189.706 117.0839 -1087.386
v 1170.573 121.602 -1088.019
v 1189.706 117.0839 -1087.386
v 1170.144 120.2275 -1086.335
v 1156.667 115.7508 -1092.721
v 1155.137 115.981 -1087.788
v 1156.667 115.7508 -1092.721
v 1149.301 108.7479 -1103.667
v 1170.3 119.466 -1083.002
v 1189.706 117.0839 -1087.386
v 1169.416 117.7386 -1079.882
v 1191.463 118.7336 -1080.577
v 1153.713 114.728 -1085.912
v 1145.198 109.9979 -1099.959
v 1149.301 108.7479 -1103.667
v 1147.403 104.6267 -1110.413
v 1143.107 102.987 -1111.875
v 1154.147 101.781 -1117.971
v 1146.208 96.43764 -1120.12
v 1154.259 92.32558 -1126.683
v 1143.234 107.7585 -1098.661
v 1141.701 99.86185 -1110.555
v 1145.045 94.52696 -1120.011
v 1153.384 89.9528 -1126.821
v 1190.506 119.7789 -1082.914
v 1190.506 119.7789 -1082.914
v 1189.706 117.0839 -1087.386
v 1154.147 101.781 -1117.971
v 1148.051 122.1043 -1119.543
v 1147.403 104.6267 -1110.413
v 1154.598 119.9286 -1127.125
v 1160.069 99.64784 -1124.38
v 1160.12 118.093 -1133.522
v 1174.09 110.59 -1140.103
v 1164.785 127.7515 -1135.57
v 1177.549 115.6497 -1140.776
v 1198.848 93.41071 -1117.342
v 1177.549 115.6497 -1140.776
v 1174.09 110.59 -1140.103
v 1181.062 97.38401 -1129.525
v 1174.09 110.59 -1140.103
v 1160.12 118.093 -1133.522
v 1181.062 97.38401 -1129.525
v 1181.062 97.38401 -1129.525
v 1160.12 118.093 -1133.522
v 1160.069 99.64784 -1124.38
v 1177.549 115.6497 -1140.776
v 1183.623 119.9027 -1141.104
v 1183.623 119.9027 -1141.104
v 1195.742 121.1689 -1138.17
v 1194.257 140.6297 -1131.92
v 1203.275 100.6403 -1124.414
v 1183.623 119.9027 -1141.104
v 1177.549 115.6497 -1140.776
v 1207.36 106.7487 -1130.348
v 1195.742 121.1689 -1138.17
v 1183.623 119.9027 -1141.104
v 1160.069 99.64784 -1124.38
v 1180.498 90.12274 -1131.142
v 1181.062 97.38401 -1129.525
v 1154.259 92.32558 -1126.683
v 1154.147 101.781 -1117.971
v 1154.259 92.32558 -1126.683
v 1160.069 99.64784 -1124.38
v 1201.47 102.1229 -1098.667
v 1190.506 119.7789 -1082.914
v 1189.706 117.0839 -1087.386
v 1204.068 100.7641 -1096.01
v 1190.506 119.7789 -1082.914
v 1201.47 102.1229 -1098.667
v 1198.848 93.41071 -1117.342
v 1201.015 91.16711 -1116.406
v 1204.068 100.7641 -1096.01
v 1203.76 99.826 -1094.439
v 1190.506 119.7789 -1082.914
v 1181.062 97.38401 -1129.525
v 1201.015 91.16711 -1116.406
v 1198.848 93.41071 -1117.342
v 1180.498 90.12274 -1131.142
v 1180.371 87.39123 -1131.587
v 1201.135 90.02742 -1114.776
v 1201.015 91.16711 -1116.406
v 1180.371 87.39123 -1131.587
v 1198.776 89.72925 -1111.535
v 1201.42 98.95276 -1093.234
v 1182.305 85.12048 -1119.655
v 1180.371 87.39123 -1131.587
v 1153.384 89.9528 -1126.821
v 1160.574 87.82189 -1113.937
v 1145.045 94.52696 -1120.011
v 1153.978 91.14629 -1109.052
v 1141.701 99.86185 -1110.555
v 1147.293 95.37643 -1102.9
v 1160.882 78.27378 -1102.656
v 1153.068 81.35777 -1098.314
v 1147.293 95.37643 -1102.9
v 1161.191 68.72567 -1091.374
v 1182.632 64.47725 -1093.567
v 1182.796 54.15567 -1080.523
v 1161.5 59.17758 -1080.092
v 1152.158 71.56924 -1087.575
v 1182.468 74.79887 -1106.611
v 1198.452 73.31267 -1085.642
v 1198.291 65.10439 -1072.696
v 1182.796 54.15567 -1080.523
v 1198.614 81.52096 -1098.588
v 1201.194 84.81414 -1069.012
v 1201.081 77.74485 -1056.901
v 1198.291 65.10439 -1072.696
v 1201.307 91.88345 -1081.123
v 1198.776 89.72925 -1111.535
v 1201.42 98.95276 -1093.234
v 1147.636 76.51955 -1081.1
v 1151.249 61.78075 -1076.836
v 1147.808 67.09113 -1070.2
v 1147.465 85.94799 -1092
v 1147.293 95.37643 -1102.9
v 1141.701 99.86185 -1110.555
v 1143.234 107.7585 -1098.661
v 1201.015 91.16711 -1116.406
v 1201.135 90.02742 -1114.776
v 1204.068 100.7641 -1096.01
v 1198.776 89.72925 -1111.535
v 1201.135 90.02742 -1114.776
v 1180.498 90.12274 -1131.142
v 1153.384 89.9528 -1126.821
v 1180.371 87.39123 -1131.587
v 1154.259 92.32558 -1126.683
v 1201.135 90.02742 -1114.776
v 1203.76 99.826 -1094.439
v 1204.068 100.7641 -1096.01
v 1201.135 90.02742 -1114.776
v 1203.76 99.826 -1094.439
v 1201.42 98.95276 -1093.234
v 1189.67 110.7362 -1081.757
v 1203.76 99.826 -1094.439
v 1191.463 118.7336 -1080.577
v 1189.67 110.7362 -1081.757
v 1169.328 114.279 -1078.188
v 1191.463 118.7336 -1080.577
v 1191.463 118.7336 -1080.577
v 1169.328 114.279 -1078.188
v 1169.416 117.7386 -1079.882
v 1158.252 107.8596 -1084.987
v 1169.416 117.7386 -1079.882
v 1158.252 107.8596 -1084.987
v 1153.713 114.728 -1085.912
v 1149.096 100.6122 -1096.23
v 1153.713 114.728 -1085.912
v 1158.252 107.8596 -1084.987
v 1143.234 107.7585 -1098.661
v 1147.293 95.37643 -1102.9
v 1147.293 95.37643 -1102.9
v 1149.096 100.6122 -1096.23
v 1147.465 85.94799 -1092
v 1149.654 91.97751 -1084.38
v 1158.252 107.8596 -1084.987
v 1147.636 76.51955 -1081.1
v 1150.212 83.34283 -1072.531
v 1147.808 67.09113 -1070.2
v 1150.77 74.70816 -1060.682
v 1158.059 100.8872 -1071.191
v 1158.252 107.8596 -1084.987
v 1157.867 93.91478 -1057.395
v 1150.77 74.70816 -1060.682
v 1169.08 106.0357 -1066.172
v 1169.328 114.279 -1078.188
v 1158.252 107.8596 -1084.987
v 1189.67 110.7362 -1081.757
v 1189.372 103.1143 -1069.253
v 1168.833 97.79237 -1054.157
v 1157.675 86.94238 -1043.599
v 1168.585 89.54906 -1042.141
v 1189.074 95.49233 -1056.748
v 1188.777 87.87039 -1044.244
v 1165.792 90.80353 -1029.035
v 1193.002 88.54105 -1031.869
v 1150.199 87.09916 -1032.637
v 1157.675 86.94238 -1043.599
v 1201.194 84.81414 -1069.012
v 1201.081 77.74485 -1056.901
v 1201.307 91.88345 -1081.123
v 1201.42 98.95276 -1093.234
v 1189.67 110.7362 -1081.757
v 1193.002 88.54105 -1031.869
v 1166.307 85.9933 -1024.968
v 1193.17 83.84779 -1027.837
v 1150.991 82.39554 -1028.385
v 1150.199 87.09916 -1032.637
v 1201.081 77.74485 -1056.901
v 1193.002 88.54105 -1031.869
v 1209.583 74.89658 -1048.924
v 1198.291 65.10439 -1072.696
v 1209.583 74.89658 -1048.924
v 1205.823 57.86295 -1070.209
v 1193.17 83.84779 -1027.837
v 1209.542 70.47514 -1044.755
v 1193.002 88.54105 -1031.869
v 1143.107 102.987 -1111.875
v 1143.234 107.7585 -1098.661
v 1141.701 99.86185 -1110.555
v 1198.291 65.10439 -1072.696
v 1182.796 54.15567 -1080.523
v 1205.823 57.86295 -1070.209
v 1205.823 57.86295 -1070.209
v 1182.796 54.15567 -1080.523
v 1183.925 47.41808 -1083.255
v 1161.5 59.17758 -1080.092
v 1205.823 57.86295 -1070.209
v 1183.925 47.41808 -1083.255
v 1205.83 53.70881 -1065.811
v 1184.209 43.37052 -1078.671
v 1209.542 70.47514 -1044.755
v 1205.823 57.86295 -1070.209
v 1205.83 53.70881 -1065.811
v 1209.583 74.89658 -1048.924
v 1209.542 70.47514 -1044.755
v 1205.83 53.70881 -1065.811
v 1200.968 67.10528 -1041.381
v 1205.83 53.70881 -1065.811
v 1198.177 54.68358 -1057.351
v 1184.209 43.37052 -1078.671
v 1188.662 76.81107 -1028.389
v 1209.542 70.47514 -1044.755
v 1200.968 67.10528 -1041.381
v 1193.17 83.84779 -1027.837
v 1168.471 78.11646 -1025.987
v 1193.17 83.84779 -1027.837
v 1188.662 76.81107 -1028.389
v 1166.307 85.9933 -1024.968
v 1157.561 75.39993 -1027.357
v 1150.991 82.39554 -1028.385
v 1198.177 54.68358 -1057.351
v 1184.209 43.37052 -1078.671
v 1181.927 46.82237 -1066.944
v 1184.209 43.37052 -1078.671
v 1156.044 44.91372 -1076.29
v 1181.927 46.82237 -1066.944
v 1161.387 48.22798 -1064.325
v 1156.044 44.91372 -1076.29
v 1144.885 49.6222 -1070.312
v 1161.387 48.22798 -1064.325
v 1151.135 49.95985 -1060.371
v 1156.044 44.91372 -1076.29
v 1144.159 54.03916 -1074.97
v 1144.885 49.6222 -1070.312
v 1155.415 49.08598 -1080.915
v 1156.044 44.91372 -1076.29
v 1138.068 61.86037 -1057.307
v 1151.135 49.95985 -1060.371
v 1144.964 54.59056 -1054.3
v 1140.235 72.34718 -1043.524
v 1147.255 62.80194 -1044.201
v 1150.991 82.39554 -1028.385
v 1157.561 75.39993 -1027.357
v 1184.209 43.37052 -1078.671
v 1155.415 49.08598 -1080.915
v 1156.044 44.91372 -1076.29
v 1183.925 47.41808 -1083.255
v 1155.415 49.08598 -1080.915
v 1151.249 61.78075 -1076.836
v 1144.159 54.03916 -1074.97
v 1161.5 59.17758 -1080.092
v 1151.249 61.78075 -1076.836
v 1155.415 49.08598 -1080.915
v 1183.925 47.41808 -1083.255
v 1161.5 59.17758 -1080.092
v 1155.415 49.08598 -1080.915
v 1139.416 77.03326 -1048.011
v 1150.199 87.09916 -1032.637
v 1150.77 74.70816 -1060.682
v 1137.228 66.34795 -1061.829
v 1147.808 67.09113 -1070.2
v 1150.77 74.70816 -1060.682
v 1139.416 77.03326 -1048.011
v 1150.199 87.09916 -1032.637
v 1140.235 72.34718 -1043.524
v 1138.068 61.86037 -1057.307
v 1137.228 66.34795 -1061.829
v 1150.991 82.39554 -1028.385
v 1144.885 49.6222 -1070.312
v 1137.228 66.34795 -1061.829
v 1138.068 61.86037 -1057.307
v 1144.159 54.03916 -1074.97
v 1144.159 54.03916 -1074.97
v 1147.808 67.09113 -1070.2
v 1137.228 66.34795 -1061.829
v 1151.249 61.78075 -1076.836
v 1151.249 61.78075 -1076.836
v 1161.5 59.17758 -1080.092
v 1152.158 71.56924 -1087.575
v 1150.77 74.70816 -1060.682
v 1157.867 93.91478 -1057.395
v 1157.675 86.94238 -1043.599
v 1190.506 119.7789 -1082.914
v 1203.76 99.826 -1094.439
v 1191.463 118.7336 -1080.577
v 1198.876 124.062 -1140.252
v 1194.257 140.6297 -1131.92
v 1195.742 121.1689 -1138.17
v 1195.742 121.1689 -1138.17
v 1190.468 138.166 -1130.219
v 1207.36 106.7487 -1130.348
v 1198.876 124.062 -1140.252
v 1195.742 121.1689 -1138.17
v 1215.769 127.3709 -1080.231
v 1217.553 145.7457 -1087.491
v 1221.028 148.7011 -1096.677
v 1223.749 151.0143 -1103.868
v 1246.055 152.5233 -1097.061
v 1243.431 149.8267 -1089.627
v 1240.079 146.3816 -1080.131
v 1238.303 127.8288 -1072.763
v 1254.448 127.2962 -1123.306
vt 0.296535 0.137553
vt 0.286155 0.159871
vt 0.339141 0.150838
vt 0.328404 0.173054
vt 0.322156 0.190275
vt 0.279103 0.176201
vt 0.271229 0.194791
vt 0.315116 0.209675
vt 0.266917 0.225019
vt 0.306864 0.239735
vt 0.266184 0.232168
vt 0.308424 0.245928
vt 0.223944 0.218407
vt 0.22697 0.210302
vt 0.181704 0.204647
vt 0.227341 0.179907
vt 0.187023 0.195586
vt 0.139464 0.190887
vt 0.147076 0.18087
vt 0.183453 0.165024
vt 0.147076 0.18087
vt 0.139566 0.15014
vt 0.236051 0.162126
vt 0.183453 0.165024
vt 0.243907 0.146687
vt 0.192999 0.148052
vt 0.183453 0.165024
vt 0.139566 0.15014
vt 0.149947 0.133978
vt 0.106859 0.096978
vt 0.201658 0.133504
vt 0.15941 0.120321
vt 0.119413 0.094422
vt 0.211323 0.110982
vt 0.168717 0.097696
vt 0.1491 0.094098
vt 0.253929 0.124267
vt 0.340986 0.156335
vt 0.296535 0.137553
vt 0.339141 0.150838
vt 0.298193 0.144598
vt 0.337181 0.170261
vt 0.294448 0.158313
vt 0.289992 0.17463
vt 0.332654 0.186826
vt 0.326682 0.203243
vt 0.284031 0.19043
vt 0.27644 0.210549
vt 0.319081 0.224141
vt 0.308424 0.245928
vt 0.266184 0.232168
vt 0.251716 0.146365
vt 0.2554 0.132861
vt 0.212608 0.121123
vt 0.211323 0.110982
vt 0.168717 0.097696
vt 0.169815 0.109386
vt 0.1491 0.094098
vt 0.145658 0.102077
vt 0.208984 0.134417
vt 0.166251 0.122469
vt 0.145658 0.102077
vt 0.141229 0.113466
vt 0.162008 0.138041
vt 0.135959 0.127012
vt 0.156077 0.151989
vt 0.131886 0.142643
vt 0.148516 0.169772
vt 0.127696 0.162175
vt 0.139464 0.190887
vt 0.133135 0.117363
vt 0.137775 0.106398
vt 0.103223 0.101118
vt 0.097859 0.108436
vt 0.086597 0.101143
vt 0.080544 0.108916
vt 0.075169 0.109349
vt 0.065407 0.120423
vt 0.073346 0.118159
vt 0.053813 0.133574
vt 0.091483 0.117137
vt 0.093609 0.133868
vt 0.075671 0.13557
vt 0.053813 0.133574
vt 0.059511 0.148738
vt 0.07864 0.157808
vt 0.068127 0.172424
vt 0.101599 0.190319
vt 0.095621 0.192502
vt 0.129872 0.195553
vt 0.10936 0.189886
vt 0.125249 0.189071
vt 0.139464 0.190887
vt 0.096327 0.155237
vt 0.122523 0.160287
vt 0.0681 0.186194
vt 0.052527 0.168838
vt 0.052527 0.168838
vt 0.04791 0.158112
vt 0.053813 0.133574
vt 0.125877 0.140321
vt 0.127615 0.130403
vt 0.139464 0.190887
vt 0.147076 0.18087
vt 0.129872 0.195553
vt 0.095621 0.192502
vt 0.129872 0.195553
vt 0.094423 0.196207
vt 0.0681 0.186194
vt 0.06532 0.195262
vt 0.0681 0.186194
vt 0.052527 0.168838
vt 0.094493 0.202725
vt 0.129872 0.195553
vt 0.092353 0.209233
vt 0.133643 0.207536
vt 0.062329 0.199262
vt 0.04526 0.175179
vt 0.052527 0.168838
vt 0.04791 0.158112
vt 0.039538 0.156111
vt 0.059603 0.145374
vt 0.043536 0.143722
vt 0.057254 0.133431
vt 0.041031 0.178525
vt 0.036124 0.159884
vt 0.040891 0.144749
vt 0.055011 0.134211
vt 0.132185 0.202759
vt 0.132185 0.202759
vt 0.129872 0.195553
vt 0.059603 0.145374
vt 0.053813 0.133574
vt 0.04791 0.158112
vt 0.065407 0.120423
vt 0.069949 0.134475
vt 0.075169 0.109349
vt 0.098964 0.10053
vt 0.086597 0.101143
vt 0.106859 0.096978
vt 0.139566 0.15014
vt 0.106859 0.096978
vt 0.098964 0.10053
vt 0.108008 0.125983
vt 0.098964 0.10053
vt 0.075169 0.109349
vt 0.108008 0.125983
vt 0.108008 0.125983
vt 0.075169 0.109349
vt 0.069949 0.134475
vt 0.106859 0.096978
vt 0.119413 0.094422
vt 0.119413 0.094422
vt 0.142359 0.099303
vt 0.145658 0.102077
vt 0.149947 0.133978
vt 0.119413 0.094422
vt 0.106859 0.096978
vt 0.15941 0.120321
vt 0.142359 0.099303
vt 0.119413 0.094422
vt 0.069949 0.134475
vt 0.104857 0.1262
vt 0.108008 0.125983
vt 0.057254 0.133431
vt 0.059603 0.145374
vt 0.057254 0.133431
vt 0.069949 0.134475
vt 0.147076 0.18087
vt 0.132185 0.202759
vt 0.129872 0.195553
vt 0.151449 0.186339
vt 0.132185 0.202759
vt 0.147076 0.18087
vt 0.139566 0.15014
vt 0.142862 0.152821
vt 0.151449 0.186339
vt 0.150587 0.189625
vt 0.132185 0.202759
vt 0.108008 0.125983
vt 0.142862 0.152821
vt 0.139566 0.15014
vt 0.104857 0.1262
vt 0.103833 0.126582
vt 0.142733 0.156301
vt 0.142862 0.152821
vt 0.103833 0.126582
vt 0.13831 0.162381
vt 0.146002 0.192207
vt 0.106723 0.149445
vt 0.103833 0.126582
vt 0.055011 0.134211
vt 0.067633 0.158779
vt 0.040891 0.144749
vt 0.056422 0.166343
vt 0.036124 0.159884
vt 0.045253 0.175882
vt 0.065616 0.183226
vt 0.052174 0.189901
vt 0.045253 0.175882
vt 0.063599 0.207674
vt 0.101412 0.205338
vt 0.098756 0.233284
vt 0.061582 0.232121
vt 0.047927 0.21346
vt 0.104067 0.177391
vt 0.132783 0.216299
vt 0.130019 0.243258
vt 0.098756 0.233284
vt 0.135546 0.18934
vt 0.141264 0.242228
vt 0.138896 0.267238
vt 0.130019 0.243258
vt 0.143633 0.217217
vt 0.13831 0.162381
vt 0.146002 0.192207
vt 0.040954 0.223317
vt 0.043679 0.237018
vt 0.038805 0.247034
vt 0.043104 0.1996
vt 0.045253 0.175882
vt 0.036124 0.159884
vt 0.041031 0.178525
vt 0.142862 0.152821
vt 0.142733 0.156301
vt 0.151449 0.186339
vt 0.13831 0.162381
vt 0.142733 0.156301
vt 0.104857 0.1262
vt 0.055011 0.134211
vt 0.103833 0.126582
vt 0.057254 0.133431
vt 0.142733 0.156301
vt 0.150587 0.189625
vt 0.151449 0.186339
vt 0.142733 0.156301
vt 0.150587 0.189625
vt 0.146002 0.192207
vt 0.127883 0.208604
vt 0.150587 0.189625
vt 0.133643 0.207536
vt 0.127883 0.208604
vt 0.091195 0.213786
vt 0.133643 0.207536
vt 0.133643 0.207536
vt 0.091195 0.213786
vt 0.092353 0.209233
vt 0.068856 0.203793
vt 0.092353 0.209233
vt 0.068856 0.203793
vt 0.062329 0.199262
vt 0.049965 0.185997
vt 0.062329 0.199262
vt 0.068856 0.203793
vt 0.041031 0.178525
vt 0.045253 0.175882
vt 0.045253 0.175882
vt 0.049965 0.185997
vt 0.043104 0.1996
vt 0.048704 0.211157
vt 0.068856 0.203793
vt 0.040954 0.223317
vt 0.047444 0.236318
vt 0.038805 0.247034
vt 0.046183 0.261478
vt 0.066596 0.231918
vt 0.068856 0.203793
vt 0.064335 0.260044
vt 0.046183 0.261478
vt 0.088402 0.239153
vt 0.091195 0.213786
vt 0.068856 0.203793
vt 0.127883 0.208604
vt 0.125055 0.234618
vt 0.085609 0.26452
vt 0.062075 0.288169
vt 0.082816 0.289887
vt 0.122226 0.260631
vt 0.119398 0.286645
vt 0.078036 0.313506
vt 0.127351 0.309112
vt 0.048403 0.30822
vt 0.062075 0.288169
vt 0.141264 0.242228
vt 0.138896 0.267238
vt 0.143633 0.217217
vt 0.146002 0.192207
vt 0.127883 0.208604
vt 0.127351 0.309112
vt 0.077645 0.322678
vt 0.126259 0.318179
vt 0.048609 0.317691
vt 0.048403 0.30822
vt 0.138896 0.267238
vt 0.127351 0.309112
vt 0.153548 0.282861
vt 0.130019 0.243258
vt 0.153548 0.282861
vt 0.141517 0.250533
vt 0.126259 0.318179
vt 0.15211 0.292078
vt 0.127351 0.309112
vt 0.039538 0.156111
vt 0.041031 0.178525
vt 0.036124 0.159884
vt 0.130019 0.243258
vt 0.098756 0.233284
vt 0.141517 0.250533
vt 0.141517 0.250533
vt 0.098756 0.233284
vt 0.098894 0.230951
vt 0.061582 0.232121
vt 0.141517 0.250533
vt 0.098894 0.230951
vt 0.140279 0.260056
vt 0.098267 0.240762
vt 0.15211 0.292078
vt 0.141517 0.250533
vt 0.140279 0.260056
vt 0.153548 0.282861
vt 0.15211 0.292078
vt 0.140279 0.260056
vt 0.135481 0.299437
vt 0.140279 0.260056
vt 0.126728 0.274995
vt 0.098267 0.240762
vt 0.115934 0.319656
vt 0.15211 0.292078
vt 0.135481 0.299437
vt 0.126259 0.318179
vt 0.079423 0.323586
vt 0.126259 0.318179
vt 0.115934 0.319656
vt 0.077645 0.322678
vt 0.058759 0.322037
vt 0.048609 0.317691
vt 0.126728 0.274995
vt 0.098267 0.240762
vt 0.095125 0.260587
vt 0.098267 0.240762
vt 0.047967 0.244463
vt 0.095125 0.260587
vt 0.058464 0.264787
vt 0.047967 0.244463
vt 0.029049 0.253461
vt 0.058464 0.264787
vt 0.040419 0.271279
vt 0.047967 0.244463
vt 0.028853 0.24337
vt 0.029049 0.253461
vt 0.047917 0.234529
vt 0.047967 0.244463
vt 0.019783 0.272423
vt 0.040419 0.271279
vt 0.030449 0.280548
vt 0.026362 0.293641
vt 0.036695 0.295864
vt 0.048609 0.317691
vt 0.058759 0.322037
vt 0.098267 0.240762
vt 0.047917 0.234529
vt 0.047967 0.244463
vt 0.098894 0.230951
vt 0.047917 0.234529
vt 0.043679 0.237018
vt 0.028853 0.24337
vt 0.061582 0.232121
vt 0.043679 0.237018
vt 0.047917 0.234529
vt 0.098894 0.230951
vt 0.061582 0.232121
vt 0.047917 0.234529
vt 0.026057 0.283741
vt 0.048403 0.30822
vt 0.046183 0.261478
vt 0.019379 0.262535
vt 0.038805 0.247034
vt 0.046183 0.261478
vt 0.026057 0.283741
vt 0.048403 0.30822
vt 0.026362 0.293641
vt 0.019783 0.272423
vt 0.019379 0.262535
vt 0.048609 0.317691
vt 0.029049 0.253461
vt 0.019379 0.262535
vt 0.019783 0.272423
vt 0.028853 0.24337
vt 0.028853 0.24337
vt 0.038805 0.247034
vt 0.019379 0.262535
vt 0.043679 0.237018
vt 0.043679 0.237018
vt 0.061582 0.232121
vt 0.047927 0.21346
vt 0.046183 0.261478
vt 0.064335 0.260044
vt 0.062075 0.288169
vt 0.132185 0.202759
vt 0.150587 0.189625
vt 0.133643 0.207536
vt 0.1491 0.094098
vt 0.145658 0.102077
vt 0.142359 0.099303
vt 0.142359 0.099303
vt 0.137775 0.106398
vt 0.15941 0.120321
vt 0.1491 0.094098
vt 0.142359 0.099303
vt 0.181704 0.204647
vt 0.191157 0.183365
vt 0.198728 0.164803
vt 0.204669 0.150237
vt 0.247331 0.162433
vt 0.241379 0.177616
vt 0.233799 0.196957
vt 0.223944 0.218407
vt 0.253929 0.124267
vn 0.299682 0.01820341 -0.9538655
vn 0.2470249 -0.7136268 -0.6555269
vn 0.3086883 -0.1331507 -0.9417975
vn 0.2409589 -0.7041636 -0.6679016
vn 0.1886311 -0.9048237 -0.3817229
vn 0.2087726 -0.8799539 -0.426726
vn 0.08188879 -0.9966275 0.005278282
vn 0.0308751 -0.98744 0.1549486
vn -0.1914208 -0.7182857 0.6688974
vn -0.2315958 -0.6141271 0.754461
vn -0.3182057 -0.01378868 0.9479215
vn -0.3138734 0.1325592 0.9401657
vn -0.317578 -0.02649253 0.947862
vn -0.1905866 -0.7207583 0.6664715
vn -0.3169965 -0.0373826 0.9476897
vn 0.09253407 -0.9953968 -0.02495334
vn -0.190336 -0.7218435 0.6653677
vn -0.1536533 0.03486798 0.9875094
vn 0.03263317 -0.6994359 0.71395
vn 0.007492986 -0.9759414 0.2179041
vn -0.1548232 -0.7935871 0.5884296
vn -0.07358816 -0.8997786 0.4300969
vn 0.2191032 -0.8486106 -0.4815122
vn 0.1030319 -0.9931546 -0.05502936
vn 0.2627717 -0.6359511 -0.7256151
vn 0.2381909 -0.8038832 -0.5450109
vn 0.253236 -0.8175884 -0.5171273
vn 0.3025061 -0.6351793 -0.7106597
vn 0.1666936 -0.7059668 -0.6883487
vn 0.122398 -0.4093655 -0.9041231
vn 0.2694823 -0.6039953 -0.7500461
vn 0.1779784 -0.4991866 -0.8480191
vn 0.0658253 -0.3186252 -0.9455923
vn 0.2968034 0.06680345 -0.9525991
vn 0.2469421 0.1972149 -0.9487496
vn 0.1555337 0.04253451 -0.9869145
vn 0.2983823 0.04167404 -0.9535362
vn 0.1911458 0.6171528 -0.7632731
vn 0.299682 0.01820341 -0.9538655
vn 0.3086883 -0.1331507 -0.9417975
vn 0.1498874 0.7246867 -0.6725792
vn 0.04897497 0.9192167 -0.3906945
vn 0.05084161 0.9144461 -0.4015014
vn -0.04009805 0.9950407 -0.0910288
vn -0.06251999 0.9979098 -0.01634606
vn -0.1528887 0.9277933 0.3403301
vn -0.1498375 0.9360666 0.3183205
vn -0.2268255 0.7572622 0.6124576
vn -0.2383736 0.7042454 0.6687424
vn -0.3138734 0.1325592 0.9401657
vn -0.3182057 -0.01378868 0.9479215
vn 0.05628825 0.9090777 -0.4128067
vn 0.1457811 0.7358099 -0.6613105
vn 0.1411828 0.7478763 -0.6486512
vn 0.2968034 0.06680345 -0.9525991
vn 0.2469421 0.1972149 -0.9487496
vn 0.1393369 0.7464624 -0.6506759
vn -0.01255068 0.2526106 -0.9674866
vn -0.2481844 0.6344422 -0.7320434
vn 0.06121685 0.9019855 -0.4274048
vn 0.09691789 0.8988475 -0.4274107
vn -0.02892828 0.7901914 -0.6121772
vn -0.2647252 0.805732 -0.5298269
vn -0.02224042 0.9939457 -0.1075981
vn -0.3661687 0.9073803 -0.2063523
vn -0.1386471 0.966696 0.215118
vn -0.1952879 0.9749616 0.10636
vn -0.2452531 0.7577219 0.6047383
vn -0.2220726 0.7892007 0.5725783
vn -0.2733997 0.07071539 0.9592977
vn -0.334182 0.759064 -0.5586985
vn -0.2869727 0.582341 -0.7606087
vn -0.1256108 0.6005237 -0.7896792
vn -0.196297 0.755868 -0.6246046
vn -0.4013969 0.3269358 -0.8555661
vn -0.5646663 0.425752 -0.7070271
vn -0.6284556 -0.1770778 -0.7574213
vn -0.7594082 -0.04030498 -0.6493648
vn -0.7211177 0.6098288 -0.3287829
vn -0.9482771 0.1958975 -0.2497893
vn -0.3242819 0.8772432 -0.3539572
vn -0.458107 0.8846584 0.08670349
vn -0.7114572 0.6928856 0.1172104
vn -0.9039217 0.4268024 -0.02766614
vn -0.8986369 0.3774683 0.2235382
vn -0.5981572 0.6327268 0.4917973
vn -0.6761759 0.4533098 0.5807723
vn -0.219046 0.4510114 0.8652211
vn -0.2303408 0.6077081 0.7600222
vn 0.09828444 0.2028818 0.9742582
vn -0.1667151 0.4258555 0.8892993
vn -0.1768298 0.3893172 0.903971
vn -0.1536533 0.03486798 0.9875094
vn -0.4171334 0.7732819 0.4775299
vn -0.3091322 0.8390039 0.447783
vn -0.6310116 0.4772421 0.611608
vn -0.9259961 0.2060338 0.3163564
vn -0.8941866 0.3984534 0.2041211
vn -0.9981114 0.03430596 -0.05096037
vn -0.9482771 0.1958975 -0.2497893
vn -0.180759 0.9830191 0.03161952
vn -0.235497 0.9144539 -0.3291129
vn -0.06997663 -0.1209999 0.9901829
vn 0.1505883 -0.3577175 0.9216082
vn 0.08154874 0.07908145 0.9935271
vn -0.2303408 0.6077081 0.7600222
vn 0.02890958 0.426232 0.9041519
vn -0.1507451 0.9379977 0.3121478
vn -0.5946782 0.733749 0.3285885
vn -0.3531643 0.9341032 0.05221283
vn -0.438287 0.8970477 0.05665493
vn -0.6463603 0.7489449 -0.145945
vn -0.08846997 0.9722473 0.2165834
vn 0.2198328 0.9741698 -0.05164023
vn -0.2763747 0.7421035 0.610655
vn -0.0111866 0.7793421 0.6264986
vn -0.5395913 0.8146756 0.2124734
vn -0.4515333 0.8611358 -0.2335867
vn -0.2564852 0.8952586 -0.3643178
vn -0.1681005 0.8625431 -0.4772438
vn -0.597779 0.6632629 -0.4502693
vn -0.3024621 0.7118941 -0.6338167
vn -0.5672838 0.4753426 -0.6724869
vn -0.3587657 0.3922142 -0.8470272
vn -0.8237287 0.5648056 -0.0496561
vn -0.8644233 0.3339751 -0.3758097
vn -0.6120594 0.3199251 -0.7232089
vn -0.2869495 0.1780524 -0.9412531
vn -0.01520673 0.9982525 -0.05710243
vn 0.435604 0.8702202 -0.2301431
vn 0.2147412 0.9296229 -0.2994786
vn -0.7530079 -0.06629106 -0.6546638
vn -0.8980108 -0.04611662 -0.4375498
vn -0.9981114 0.03430596 -0.05096037
vn -0.7594082 -0.04030498 -0.6493648
vn -0.4940687 0.03930586 -0.8685339
vn -0.6284556 -0.1770778 -0.7574213
vn -0.09699188 -0.3328292 -0.9379857
vn -0.4013969 0.3269358 -0.8555661
vn 0.02369897 -0.1704415 -0.9850827
vn 0.3742168 -0.5172396 -0.7696915
vn 0.02369897 -0.1704415 -0.9850827
vn 0.04954607 -0.2021542 -0.9780996
vn 0.2635505 -0.05056811 -0.9633192
vn -0.4803793 -0.2127224 -0.8508731
vn -0.6284556 -0.1770778 -0.7574213
vn -0.4367014 -0.5751289 -0.6917505
vn -0.1742844 -0.3762931 -0.9099607
vn -0.6284556 -0.1770778 -0.7574213
vn -0.4722749 -0.08594204 -0.8772516
vn 0.02025526 -0.04134579 -0.9989396
vn 0.09250969 -0.04006953 -0.9949052
vn 0.1170585 0.1049373 -0.9875655
vn -0.2171877 0.1649162 -0.9620978
vn -0.2481844 0.6344422 -0.7320434
vn 0.1666936 -0.7059668 -0.6883487
vn 0.09250969 -0.04006953 -0.9949052
vn 0.02369897 -0.1704415 -0.9850827
vn 0.1779784 -0.4991866 -0.8480191
vn -0.05167205 -0.0386843 -0.9979146
vn 0.09250969 -0.04006953 -0.9949052
vn -0.4940687 0.03930586 -0.8685339
vn 0.09056205 0.2033758 -0.9749034
vn 0.2635505 -0.05056811 -0.9633192
vn -0.3587657 0.3922142 -0.8470272
vn -0.5950815 0.3374931 -0.7293672
vn -0.3587657 0.3922142 -0.8470272
vn -0.5288909 0.1439067 -0.8364002
vn 0.6088765 0.6816466 -0.4057429
vn 0.5125797 0.7699372 -0.3800774
vn 0.2147412 0.9296229 -0.2994786
vn 0.8670347 0.4667617 -0.1743109
vn 0.6335028 0.7365394 -0.2370318
vn 0.6088765 0.6816466 -0.4057429
vn 0.6991045 0.4834581 -0.5268026
vn 0.7511893 0.2116204 -0.6252452
vn 0.9262281 0.3471076 -0.1470302
vn 0.8846202 0.03147183 0.4652491
vn 0.8224227 0.5688756 0.001236091
vn 0.3884077 0.05749639 -0.9196921
vn 0.7583069 0.05499109 -0.6495742
vn 0.6781836 0.137647 -0.7218866
vn 0.09056205 0.2033758 -0.9749034
vn 0.3685132 -0.1658069 -0.9147164
vn 0.7031687 -0.7110022 0.005430304
vn 0.7283139 -0.06100439 -0.6825228
vn 0.3522108 -0.83727 -0.4182421
vn 0.677266 -0.7282401 -0.1047717
vn 0.717666 -0.573166 0.3955204
vn 0.1504654 -0.9138457 -0.3771554
vn 0.2320194 -0.9420503 -0.2422976
vn -0.2336901 -0.9707654 -0.05480385
vn -0.3802694 -0.8768656 -0.2941124
vn -0.4769529 -0.8696615 0.1272982
vn -0.6288819 -0.7409294 -0.2356505
vn -0.6925951 -0.6956404 0.1907781
vn -0.8212322 -0.5705711 -0.005135509
vn -0.415247 -0.6947674 -0.5872549
vn -0.6654582 -0.5408224 -0.5144671
vn -0.8884791 -0.4495783 -0.09210996
vn -0.3513598 -0.7148933 -0.6045442
vn 0.2196874 -0.7712154 -0.5974649
vn 0.0921585 -0.7733457 -0.6272505
vn -0.3014964 -0.5469074 -0.7810199
vn -0.6693359 -0.5381254 -0.5122602
vn 0.171615 -0.7793658 -0.6026086
vn 0.8502427 -0.4403326 -0.2884349
vn 0.7542049 -0.374051 -0.5396858
vn 0.191522 -0.5972378 -0.7788622
vn 0.8269116 -0.4700646 -0.3086365
vn 0.9668851 0.2145946 0.1381392
vn 0.969593 0.2239347 -0.09870447
vn 0.8662096 -0.08932207 -0.4916325
vn 0.9691861 0.2069286 0.1336374
vn 0.7683215 -0.6280534 -0.1234143
vn 0.9313813 -0.1874775 0.3120593
vn -0.9927455 -0.09038318 -0.07929201
vn -0.7419547 -0.165271 -0.6497606
vn -0.9354323 0.2000544 -0.2914528
vn -0.9826826 -0.1396784 -0.1217574
vn -0.8881172 -0.4590224 0.02337107
vn -0.8650804 -0.4854484 0.1263952
vn -0.8840234 -0.2129943 0.4160963
vn 0.7583069 0.05499109 -0.6495742
vn 0.8505301 -0.5187723 -0.08645133
vn 0.9262281 0.3471076 -0.1470302
vn 0.39208 -0.9141027 -0.1033895
vn 0.4477573 -0.893449 0.03552775
vn 0.09056205 0.2033758 -0.9749034
vn -0.2869495 0.1780524 -0.9412531
vn 0.2268962 0.1461835 -0.9628856
vn -0.3587657 0.3922142 -0.8470272
vn 0.5887822 -0.8076178 0.03300161
vn 0.6998177 -0.4538235 0.5516334
vn 0.987505 0.1551655 -0.02752424
vn 0.7955456 -0.6058608 0.006307807
vn 0.8688466 -0.1429053 0.474008
vn 0.811239 -0.2219447 0.5409545
vn 0.5668163 -0.05457797 0.8220344
vn 0.7828565 -0.2956783 0.5474578
vn 0.2490542 0.00877705 0.9684498
vn 0.4083824 -0.2340051 0.8823069
vn -0.1793691 0.2308767 0.9563068
vn 0.2490542 0.00877705 0.9684498
vn 0.159858 0.4466331 0.8803207
vn -0.2788639 0.5597315 0.7803432
vn -0.3066844 0.6310731 0.7125248
vn -0.7297255 0.2945203 0.6170563
vn -0.3446788 0.2493186 0.9050065
vn -0.6603705 0.1076381 0.7431857
vn -0.5504367 -0.2426413 0.7988396
vn -0.8760552 -0.05101541 0.4795046
vn -0.5504367 -0.2426413 0.7988396
vn -0.7292565 0.1930036 0.656456
vn -0.7505363 -0.378872 0.5414346
vn -0.8872843 -0.4402279 0.1375718
vn -0.9310124 -0.3626004 0.04167574
vn -0.8760552 -0.05101541 0.4795046
vn -0.9826826 -0.1396784 -0.1217574
vn -0.9251224 0.2993047 0.2335921
vn -0.7297255 0.2945203 0.6170563
vn -0.9927455 -0.09038318 -0.07929201
vn -0.9427102 0.2601666 0.2088321
vn -0.9354323 0.2000544 -0.2914528
vn -0.9456249 0.2621482 0.1925406
vn -0.7427604 0.5832319 0.3288577
vn -0.776077 0.3649819 0.5142884
vn -0.7314427 0.5937448 0.3353485
vn -0.902853 0.4290966 0.02706799
vn -0.1519109 0.8325303 0.5327442
vn -0.3446535 0.6680138 0.6595238
vn -0.7503985 0.5101749 0.4202662
vn 0.4394639 0.7525125 0.4905062
vn 0.5303316 0.7152918 0.4550891
vn -0.09767403 0.8380809 0.5367309
vn -0.48608 0.873085 0.03806511
vn -0.05586775 0.9726016 0.2256653
vn 0.5077988 0.7271769 0.4619027
vn 0.4350559 0.887704 0.150692
vn -0.1030878 0.92318 0.3702858
vn 0.3020447 0.9247909 0.2313675
vn -0.3126667 0.9489335 0.04200951
vn -0.3548214 0.9348663 0.01125709
vn 0.9668851 0.2145946 0.1381392
vn 0.8598053 0.4878249 -0.1508693
vn 0.9691861 0.2069286 0.1336374
vn 0.9013699 0.1741362 0.3964958
vn 0.5593531 0.3926666 0.7300255
vn 0.3264905 0.7778342 0.5370083
vn -0.04347623 0.2924096 0.9553044
vn 0.4512014 0.2863488 0.8452347
vn -0.4640045 0.3875988 0.7965344
vn -0.5916606 0.7409585 0.3176764
vn 0.6492018 0.7414656 -0.1696045
vn 0.5087909 0.8607499 -0.01553294
vn 0.7810822 0.6182081 -0.08791672
vn 0.7673936 0.2808133 -0.576412
vn 0.857107 0.5066094 -0.09335163
vn 0.7886441 0.190874 -0.5844722
vn 0.6415149 0.3154749 0.6992382
vn 0.891826 -0.1423037 0.4294137
vn 0.4768426 0.802512 0.3586024
vn -0.597779 0.6632629 -0.4502693
vn -0.9313579 0.3580394 0.06618418
vn -0.9641116 0.165035 -0.2079717
vn 0.7198244 -0.03447063 -0.6932998
vn 0.412786 0.08429126 -0.9069194
vn 0.56747 0.1238993 -0.814019
vn 0.4821746 0.3527809 -0.801906
vn 0.267298 0.3002119 -0.9156554
vn 0.1085119 0.3111437 -0.9441476
vn -0.08276172 0.248267 -0.9651498
vn 0.8572696 -0.1964376 -0.4759212
vn 0.393481 -0.6770161 -0.6219503
vn 0.7850639 -0.449543 -0.4261288
vn 0.1934128 -0.8714194 -0.450799
vn 0.9633795 -0.1517804 0.2210487
vn 0.928938 -0.07482243 -0.3625959
vn 0.786245 -0.5827937 -0.2053536
vn 0.9111035 0.407414 -0.06248212
vn 0.8038025 -0.4066935 0.434168
vn 0.6172712 -0.7059425 0.347306
vn 0.4775166 -0.6442865 0.5973884
vn 0.3973185 -0.8031923 0.4438693
vn 0.3208846 -0.865623 0.3843566
vn 0.1574759 -0.9376998 0.3097101
vn 0.3694007 -0.3282666 0.8693584
vn 0.6349624 -0.3182317 0.703954
vn 0.4775166 -0.6442865 0.5973884
vn 0.5321274 0.04541922 0.8454452
vn 0.03987853 -0.13331 0.9902717
vn 0.2315148 0.006106829 0.9728123
vn 0.3694007 -0.3282666 0.8693584
vn -0.04347623 0.2924096 0.9553044
vn -0.3044959 -0.2250957 0.9255345
vn -0.5476542 0.09879382 0.8308518
vn 0.3208846 -0.865623 0.3843566
vn 0.3015726 -0.9476736 0.1047311
vn 0.06551646 -0.9534721 0.2942766
vn 0.06357377 -0.9937772 -0.09146174
vn -0.2110286 -0.9754757 -0.06256407
vn 0.06551646 -0.9534721 0.2942766
vn -0.1196294 -0.9616413 0.2468502
vn -0.3150893 -0.9485344 -0.03164042
vn -0.4036273 -0.9107577 0.08720902
vn -0.1196294 -0.9616413 0.2468502
vn -0.4908257 -0.8626932 0.1218631
vn -0.3976879 -0.8344264 -0.3815454
vn -0.688055 -0.4159698 -0.5946003
vn -0.64147 -0.7671316 -0.005027562
vn -0.3246027 -0.5577205 -0.7639246
vn -0.2849658 -0.9459957 -0.1545535
vn -0.8929564 -0.4200382 0.1618547
vn -0.4908257 -0.8626932 0.1218631
vn -0.7280501 -0.6073763 0.3178633
vn -0.8439124 -0.1738743 0.5075231
vn -0.5942535 -0.4726959 0.6507083
vn -0.6060363 -0.1914906 0.7720436
vn -0.3044959 -0.2250957 0.9255345
vn 0.1102458 -0.8807666 -0.4605388
vn -0.2842031 -0.4301794 -0.8568397
vn -0.2937936 -0.9185277 -0.2645606
vn 0.3016847 -0.5196168 -0.7993652
vn -0.2861636 -0.3184856 -0.903702
vn -0.6736905 -0.09583368 -0.7327734
vn -0.6360711 -0.07195492 -0.7682682
vn -0.1742337 0.01816719 -0.9845367
vn -0.4646755 0.03538623 -0.8847737
vn -0.2438956 0.1699817 -0.9547886
vn 0.06420634 0.04748183 -0.9968065
vn -0.2501039 -0.2718567 -0.9292696
vn -0.2104303 -0.2269642 -0.9508976
vn -0.3889306 0.8196191 -0.4206633
vn -0.2725642 0.9422681 -0.1945242
vn -0.5833 0.7301494 -0.3558693
vn -0.487415 0.6574001 -0.5746753
vn -0.559127 0.5447901 -0.6249647
vn -0.6970193 0.6765675 -0.2375303
vn -0.9623207 0.07956943 0.2600148
vn -0.7203381 0.3983061 0.5678603
vn -0.8439124 -0.1738743 0.5075231
vn -0.8929564 -0.4200382 0.1618547
vn -0.9699522 -0.2361224 -0.05864403
vn -0.5476542 0.09879382 0.8308518
vn -0.8167751 -0.5616279 -0.1321079
vn -0.9662556 -0.0771438 -0.245762
vn -0.8929564 -0.4200382 0.1618547
vn -0.7700093 -0.1896874 -0.6091833
vn -0.7105972 0.182801 -0.6794375
vn -0.883154 0.3206208 -0.3424053
vn -0.8090269 0.309537 -0.4996622
vn -0.7025685 0.04084971 -0.7104427
vn -0.6586404 -0.2116337 -0.7220832
vn -0.3054423 -0.4021396 -0.8631273
vn -0.6693359 -0.5381254 -0.5122602
vn -0.7781313 0.6050903 -0.1684562
vn -0.7314427 0.5937448 0.3353485
vn -0.5413948 0.8367274 0.082334
vn 0.6335028 0.7365394 -0.2370318
vn 0.9645172 0.2362759 0.1178144
vn 0.8110428 0.5804998 -0.07231534
vn -0.1146738 0.2132732 -0.9702393
vn -0.4229333 0.4044234 -0.8109064
vn -0.3139504 0.09952058 -0.944209
vn -0.1952735 0.01175485 -0.9806784
vn -0.2869727 0.582341 -0.7606087
vn 0.1779784 -0.4991866 -0.8480191
vn -0.18212 -0.2753464 -0.9439368
vn -0.2858386 -0.1169115 -0.9511193
vn -0.3169965 -0.0373826 0.9476897
vn -0.2295972 0.7438909 0.6276237
vn -0.1288817 0.9573348 0.2586497
vn -0.03950167 0.9953535 -0.0878129
vn -0.04759641 0.9969446 -0.06193606
vn -0.139265 0.9457851 0.2934206
vn -0.2334279 0.7312467 0.6409287
vn -0.317578 -0.02649253 0.947862
vn 0.2983823 0.04167404 -0.9535362
g Pump_LeftPipe_0
f 3/3/3 2/2/2 1/1/1
f 4/4/4 2/2/2 3/3/3
f 4/4/4 5/5/5 2/2/2
f 2/2/2 5/5/5 6/6/6
f 5/5/5 7/7/7 6/6/6
f 8/8/8 7/7/7 5/5/5
f 8/8/8 9/9/9 7/7/7
f 10/10/10 9/9/9 8/8/8
f 10/10/10 11/11/11 9/9/9
f 12/12/12 11/11/11 10/10/10
f 11/11/11 13/13/13 9/9/9
f 9/9/9 13/13/13 14/14/14
f 9/9/9 14/14/14 7/7/7
f 13/13/13 15/15/15 14/14/14
f 7/7/7 14/14/14 16/16/16
f 7/7/7 16/16/16 6/6/6
f 14/14/14 17/17/17 16/16/16
f 14/14/14 15/15/15 17/17/17
f 15/15/15 18/18/18 17/17/17
f 17/17/17 18/18/18 19/19/19
f 16/16/16 17/17/17 20/20/20
f 17/17/17 21/21/21 20/20/20
f 20/20/20 21/21/21 22/22/22
f 16/16/16 24/24/24 23/23/23
f 6/6/6 16/16/16 23/23/23
f 23/23/23 2/2/2 6/6/6
f 25/25/25 2/2/2 23/23/23
f 26/26/26 25/25/25 23/23/23
f 23/23/23 27/27/27 26/26/26
f 27/27/27 28/28/28 26/26/26
f 26/26/26 28/28/28 29/29/29
f 28/28/28 30/30/30 29/29/29
f 29/29/29 31/31/31 26/26/26
f 31/31/31 25/25/25 26/26/26
f 32/32/32 31/31/31 29/29/29
f 29/29/29 33/33/33 32/32/32
f 31/31/31 32/32/32 34/34/34
f 34/34/34 32/32/32 35/35/35
f 36/36/36 35/35/35 32/32/32
f 25/25/25 31/31/31 37/37/37
f 37/37/37 31/31/31 34/34/34
f 1/1/1 25/25/25 37/37/37
f 2/2/2 25/25/25 1/1/1
f 40/40/40 39/39/39 38/38/38
f 38/38/38 39/39/39 41/41/41
f 38/38/38 41/41/41 42/42/42
f 42/42/42 41/41/41 43/43/43
f 44/44/44 42/42/42 43/43/43
f 45/45/45 42/42/42 44/44/44
f 45/45/45 44/44/44 46/46/46
f 46/46/46 44/44/44 47/47/47
f 48/48/48 46/46/46 47/47/47
f 49/49/49 46/46/46 48/48/48
f 49/49/49 48/48/48 50/50/50
f 50/50/50 48/48/48 51/51/51
f 52/52/52 44/44/44 43/43/43
f 43/43/43 53/53/53 52/52/52
f 41/41/41 53/53/53 43/43/43
f 53/53/53 54/54/54 52/52/52
f 53/53/53 55/55/55 54/54/54
f 55/55/55 56/56/56 54/54/54
f 54/54/54 56/56/56 57/57/57
f 58/58/58 57/57/57 56/56/56
f 59/59/59 57/57/57 58/58/58
f 54/54/54 57/57/57 60/60/60
f 52/52/52 54/54/54 60/60/60
f 60/60/60 57/57/57 61/61/61
f 62/62/62 61/61/61 57/57/57
f 63/63/63 61/61/61 62/62/62
f 63/63/63 64/64/64 61/61/61
f 65/65/65 64/64/64 63/63/63
f 65/65/65 66/66/66 64/64/64
f 67/67/67 66/66/66 65/65/65
f 67/67/67 68/68/68 66/66/66
f 69/69/69 68/68/68 67/67/67
f 69/69/69 70/70/70 68/68/68
f 71/71/71 65/65/65 63/63/63
f 71/71/71 63/63/63 72/72/72
f 73/73/73 71/71/71 72/72/72
f 74/74/74 71/71/71 73/73/73
f 75/75/75 74/74/74 73/73/73
f 76/76/76 74/74/74 75/75/75
f 77/77/77 76/76/76 75/75/75
f 78/78/78 76/76/76 77/77/77
f 78/78/78 79/79/79 76/76/76
f 80/80/80 79/79/79 78/78/78
f 79/79/79 81/81/81 76/76/76
f 76/76/76 81/81/81 74/74/74
f 79/79/79 82/82/82 81/81/81
f 83/83/83 82/82/82 79/79/79
f 84/84/84 83/83/83 79/79/79
f 85/85/85 83/83/83 84/84/84
f 85/85/85 86/86/86 83/83/83
f 87/87/87 86/86/86 85/85/85
f 87/87/87 88/88/88 86/86/86
f 89/89/89 88/88/88 87/87/87
f 89/89/89 90/90/90 88/88/88
f 88/88/88 90/90/90 91/91/91
f 88/88/88 91/91/91 86/86/86
f 91/91/91 90/90/90 92/92/92
f 92/92/92 90/90/90 93/93/93
f 92/92/92 93/93/93 69/69/69
f 91/91/91 92/92/92 94/94/94
f 86/86/86 91/91/91 94/94/94
f 86/86/86 94/94/94 83/83/83
f 83/83/83 94/94/94 82/82/82
f 94/94/94 92/92/92 95/95/95
f 95/95/95 92/92/92 69/69/69
f 94/94/94 95/95/95 82/82/82
f 96/96/96 89/89/89 87/87/87
f 96/96/96 87/87/87 97/97/97
f 98/98/98 87/87/87 85/85/85
f 98/98/98 85/85/85 99/99/99
f 99/99/99 85/85/85 100/100/100
f 95/95/95 69/69/69 101/101/101
f 82/82/82 95/95/95 101/101/101
f 82/82/82 101/101/101 81/81/81
f 81/81/81 101/101/101 102/102/102
f 81/81/81 102/102/102 74/74/74
f 74/74/74 102/102/102 71/71/71
f 102/102/102 65/65/65 71/71/71
f 102/102/102 67/67/67 65/65/65
f 101/101/101 67/67/67 102/102/102
f 101/101/101 69/69/69 67/67/67
f 105/105/105 104/104/104 103/103/103
f 108/108/108 107/107/107 106/106/106
f 108/108/108 106/106/106 109/109/109
f 111/111/111 110/110/110 108/108/108
f 111/111/111 112/112/112 110/110/110
f 108/108/108 110/110/110 113/113/113
f 108/108/108 113/113/113 114/114/114
f 110/110/110 115/115/115 113/113/113
f 115/115/115 116/116/116 113/113/113
f 117/117/117 115/115/115 110/110/110
f 118/118/118 117/117/117 110/110/110
f 110/110/110 119/119/119 118/118/118
f 119/119/119 120/120/120 118/118/118
f 118/118/118 120/120/120 121/121/121
f 120/120/120 122/122/122 121/121/121
f 121/121/121 122/122/122 123/123/123
f 122/122/122 124/124/124 123/123/123
f 125/125/125 117/117/117 118/118/118
f 121/121/121 125/125/125 118/118/118
f 123/123/123 126/126/126 121/121/121
f 127/127/127 126/126/126 123/123/123
f 124/124/124 127/127/127 123/123/123
f 128/128/128 127/127/127 124/124/124
f 113/113/113 116/116/116 129/129/129
f 131/131/131 113/113/113 130/130/130
f 134/134/134 133/133/133 132/132/132
f 132/132/132 133/133/133 135/135/135
f 132/132/132 135/135/135 136/136/136
f 136/136/136 135/135/135 137/137/137
f 137/137/137 139/139/139 138/138/138
f 138/138/138 139/139/139 140/140/140
f 143/143/143 142/142/142 141/141/141
f 144/144/144 143/143/143 141/141/141
f 147/147/147 146/146/146 145/145/145
f 150/150/150 149/149/149 148/148/148
f 75/75/75 73/73/73 151/151/151
f 151/151/151 73/73/73 152/152/152
f 73/73/73 72/72/72 153/153/153
f 153/153/153 72/72/72 154/154/154
f 72/72/72 63/63/63 155/155/155
f 158/158/158 157/157/157 156/156/156
f 161/161/161 160/160/160 159/159/159
f 164/164/164 163/163/163 162/162/162
f 162/162/162 163/163/163 165/165/165
f 168/168/168 167/167/167 166/166/166
f 171/171/171 170/170/170 169/169/169
f 174/174/174 173/173/173 172/172/172
f 174/174/174 172/172/172 175/175/175
f 175/175/175 177/177/177 176/176/176
f 179/179/179 178/178/178 177/177/177
f 182/182/182 181/181/181 180/180/180
f 180/180/180 181/181/181 183/183/183
f 183/183/183 181/181/181 184/184/184
f 187/187/187 186/186/186 185/185/185
f 185/185/185 189/189/189 188/188/188
f 191/191/191 188/188/188 190/190/190
f 191/191/191 190/190/190 192/192/192
f 192/192/192 190/190/190 193/193/193
f 192/192/192 193/193/193 194/194/194
f 194/194/194 193/193/193 195/195/195
f 195/195/195 196/196/196 194/194/194
f 197/197/197 196/196/196 195/195/195
f 193/193/193 198/198/198 195/195/195
f 195/195/195 198/198/198 199/199/199
f 199/199/199 200/200/200 195/195/195
f 198/198/198 201/201/201 199/199/199
f 198/198/198 202/202/202 201/201/201
f 202/202/202 203/203/203 201/201/201
f 201/201/201 203/203/203 204/204/204
f 201/201/201 204/204/204 205/205/205
f 199/199/199 201/201/201 205/205/205
f 190/190/190 206/206/206 193/193/193
f 193/193/193 206/206/206 198/198/198
f 206/206/206 202/202/202 198/198/198
f 206/206/206 207/207/207 202/202/202
f 207/207/207 208/208/208 202/202/202
f 202/202/202 208/208/208 209/209/209
f 210/210/210 207/207/207 206/206/206
f 190/190/190 210/210/210 206/206/206
f 210/210/210 211/211/211 207/207/207
f 211/211/211 212/212/212 207/207/207
f 207/207/207 212/212/212 213/213/213
f 188/188/188 210/210/210 190/190/190
f 214/214/214 211/211/211 210/210/210
f 215/215/215 214/214/214 210/210/210
f 216/216/216 214/214/214 215/215/215
f 218/218/218 217/217/217 205/205/205
f 219/219/219 217/217/217 218/218/218
f 217/217/217 220/220/220 205/205/205
f 205/205/205 220/220/220 199/199/199
f 220/220/220 221/221/221 199/199/199
f 221/221/221 223/223/223 222/222/222
f 226/226/226 225/225/225 224/224/224
f 228/228/228 227/227/227 191/191/191
f 231/231/231 230/230/230 229/229/229
f 229/229/229 230/230/230 232/232/232
f 234/234/234 189/189/189 233/233/233
f 237/237/237 236/236/236 235/235/235
f 240/240/240 239/239/239 238/238/238
f 241/241/241 239/239/239 240/240/240
f 244/244/244 243/243/243 242/242/242
f 247/247/247 246/246/246 245/245/245
f 247/247/247 248/248/248 246/246/246
f 251/251/251 250/250/250 249/249/249
f 254/254/254 253/253/253 252/252/252
f 252/252/252 253/253/253 255/255/255
f 252/252/252 255/255/255 256/256/256
f 259/259/259 258/258/258 257/257/257
f 260/260/260 258/258/258 259/259/259
f 260/260/260 261/261/261 258/258/258
f 262/262/262 260/260/260 259/259/259
f 263/263/263 260/260/260 262/262/262
f 264/264/264 263/263/263 262/262/262
f 265/265/265 263/263/263 264/264/264
f 263/263/263 266/266/266 260/260/260
f 266/266/266 267/267/267 260/260/260
f 268/268/268 266/266/266 263/263/263
f 269/269/269 268/268/268 263/263/263
f 266/266/266 268/268/268 270/270/270
f 271/271/271 266/266/266 270/270/270
f 272/272/272 266/266/266 271/271/271
f 271/271/271 270/270/270 273/273/273
f 273/273/273 270/270/270 274/274/274
f 270/270/270 275/275/275 274/274/274
f 270/270/270 268/268/268 275/275/275
f 268/268/268 276/276/276 275/275/275
f 275/275/275 276/276/276 277/277/277
f 275/275/275 277/277/277 278/278/278
f 274/274/274 275/275/275 278/278/278
f 278/278/278 277/277/277 279/279/279
f 280/280/280 279/279/279 277/277/277
f 281/281/281 279/279/279 280/280/280
f 280/280/280 277/277/277 282/282/282
f 282/282/282 277/277/277 283/283/283
f 278/278/278 279/279/279 284/284/284
f 284/284/284 279/279/279 285/285/285
f 286/286/286 278/278/278 284/284/284
f 274/274/274 278/278/278 286/286/286
f 287/287/287 274/274/274 286/286/286
f 288/288/288 274/274/274 287/287/287
f 290/290/290 289/289/289 280/280/280
f 291/291/291 289/289/289 290/290/290
f 290/290/290 280/280/280 292/292/292
f 292/292/292 280/280/280 293/293/293
f 295/295/295 294/294/294 279/279/279
f 296/296/296 294/294/294 295/295/295
f 298/298/298 297/297/297 285/285/285
f 299/299/299 297/297/297 298/298/298
f 301/301/301 298/298/298 300/300/300
f 300/300/300 298/298/298 302/302/302
f 305/305/305 304/304/304 303/303/303
f 308/308/308 307/307/307 306/306/306
f 311/311/311 310/310/310 309/309/309
f 311/311/311 312/312/312 310/310/310
f 315/315/315 314/314/314 313/313/313
f 316/316/316 314/314/314 315/315/315
f 319/319/319 318/318/318 317/317/317
f 317/317/317 318/318/318 320/320/320
f 323/323/323 322/322/322 321/321/321
f 325/325/325 324/324/324 323/323/323
f 325/325/325 326/326/326 324/324/324
f 329/329/329 328/328/328 327/327/327
f 327/327/327 328/328/328 330/330/330
f 333/333/333 332/332/332 331/331/331
f 331/331/331 332/332/332 334/334/334
f 331/331/331 334/334/334 335/335/335
f 335/335/335 334/334/334 336/336/336
f 339/339/339 338/338/338 337/337/337
f 342/342/342 341/341/341 340/340/340
f 343/343/343 341/341/341 342/342/342
f 346/346/346 345/345/345 344/344/344
f 347/347/347 345/345/345 346/346/346
f 350/350/350 349/349/349 348/348/348
f 352/352/352 349/349/349 351/351/351
f 354/354/354 353/353/353 350/350/350
f 355/355/355 353/353/353 354/354/354
f 355/355/355 356/356/356 353/353/353
f 357/357/357 356/356/356 355/355/355
f 357/357/357 358/358/358 356/356/356
f 359/359/359 358/358/358 357/357/357
f 362/362/362 361/361/361 360/360/360
f 360/360/360 361/361/361 363/363/363
f 366/366/366 365/365/365 364/364/364
f 369/369/369 368/368/368 367/367/367
f 372/372/372 371/371/371 370/370/370
f 374/374/374 276/276/276 373/373/373
f 373/373/373 276/276/276 375/375/375
f 373/373/373 375/375/375 376/376/376
f 376/376/376 378/378/378 377/377/377
f 381/381/381 380/380/380 379/379/379
f 381/381/381 379/379/379 382/382/382
f 382/382/382 379/379/379 383/383/383
f 384/384/384 380/380/380 381/381/381
f 387/387/387 386/386/386 385/385/385
f 385/385/385 386/386/386 388/388/388
f 391/391/391 390/390/390 389/389/389
f 389/389/389 390/390/390 392/392/392
f 395/395/395 394/394/394 393/393/393
f 398/398/398 397/397/397 396/396/396
f 401/401/401 400/400/400 399/399/399
f 404/404/404 403/403/403 402/402/402
f 406/406/406 403/403/403 405/405/405
f 409/409/409 408/408/408 407/407/407
f 410/410/410 68/68/68 70/70/70
f 411/411/411 68/68/68 410/410/410
f 68/68/68 411/411/411 66/66/66
f 66/66/66 411/411/411 412/412/412
f 412/412/412 64/64/64 66/66/66
f 413/413/413 64/64/64 412/412/412
f 64/64/64 413/413/413 61/61/61
f 61/61/61 413/413/413 60/60/60
f 413/413/413 414/414/414 60/60/60
f 60/60/60 414/414/414 52/52/52
f 415/415/415 413/413/413 412/412/412
f 414/414/414 413/413/413 415/415/415
f 412/412/412 416/416/416 415/415/415
f 411/411/411 416/416/416 412/412/412
f 417/417/417 411/411/411 410/410/410
f 416/416/416 411/411/411 417/417/417
f 414/414/414 44/44/44 52/52/52
f 47/47/47 414/414/414 415/415/415
f 44/44/44 414/414/414 47/47/47
f 415/415/415 48/48/48 47/47/47
f 416/416/416 48/48/48 415/415/415
f 51/51/51 416/416/416 417/417/417
f 48/48/48 416/416/416 51/51/51
f 418/418/418 55/55/55 53/53/53
f 41/41/41 418/418/418 53/53/53
f 39/39/39 418/418/418 41/41/41
