g Pump_TopTubes
v 1442.992 232.0003 -1070.849
v 1450.243 234.5179 -1066.248
v 1443.539 236.8716 -1074.802
v 1450.956 239.8009 -1070.66
v 1436.94 237.8898 -1074.586
v 1442.992 232.0003 -1070.849
v 1443.539 236.8716 -1074.802
v 1436.339 231.9074 -1070.093
v 1431.319 239.8967 -1073.93
v 1430.541 232.742 -1068.635
v 1427.377 243.5699 -1071.325
v 1426.372 234.7696 -1064.85
v 1437.204 239.2949 -1078.932
v 1431.905 242.0909 -1079.363
v 1428.586 247.0466 -1078.887
v 1434.186 240.4504 -1091.377
v 1438.986 237.566 -1089.356
v 1443.612 237.4389 -1078.591
v 1443.539 236.8716 -1074.802
v 1445.05 235.317 -1087.769
v 1451.555 240.9932 -1076.344
v 1453.413 238.5842 -1086.934
v 1431.542 245.3692 -1093.485
v 1436.16 234.1104 -1101.259
v 1440.873 231.5204 -1098.759
v 1433.719 238.2652 -1104.771
v 1438.323 208.2261 -1136.816
v 1443.033 205.6362 -1134.315
v 1446.832 229.1857 -1096.992
v 1453.413 238.5842 -1086.934
v 1448.994 203.3013 -1132.549
v 1455.501 231.3922 -1098.13
v 1453.413 238.5842 -1086.934
v 1454.905 245.0391 -1087.974
v 1452.168 247.2993 -1074.234
v 1457.455 236.8035 -1101.568
v 1457.664 205.5081 -1133.686
v 1459.618 210.9196 -1137.126
v 1455.605 241.5033 -1105.205
v 1457.767 215.6188 -1140.763
v 1451.555 240.9932 -1076.344
v 1450.746 244.3165 -1065.744
v 1450.956 239.8009 -1070.66
v 1449.825 237.1539 -1060.127
v 1450.243 234.5179 -1066.248
v 1451.555 240.9932 -1076.344
v 1451.555 240.9932 -1076.344
v 1453.413 238.5842 -1086.934
v 1426.205 247.9208 -1067.469
v 1426.372 234.7696 -1064.85
v 1427.377 243.5699 -1071.325
v 1424.952 237.4458 -1059.752
v 1428.115 251.7839 -1063.395
v 1426.658 240.0541 -1054.706
v 1433.217 253.151 -1060.977
v 1431.712 241.3249 -1052.142
v 1438.346 253.1426 -1059.853
v 1436.868 241.7235 -1051.25
v 1442.923 251.1335 -1060.685
v 1441.592 240.7849 -1052.842
v 1447.063 248.2641 -1062.558
v 1445.918 239.3029 -1055.689
v 1450.746 244.3165 -1065.744
v 1449.825 237.1539 -1060.127
v 1430.755 257.8839 -1075.926
v 1436.115 259.5594 -1074.445
v 1441.265 259.4171 -1073.429
v 1445.515 256.6722 -1073.157
v 1449.17 252.7388 -1073.381
v 1452.168 247.2993 -1074.234
v 1440.655 257.7029 -1094.957
v 1435.062 256.0965 -1095.831
v 1428.165 252.8272 -1077.629
v 1428.586 247.0466 -1078.887
v 1431.832 251.0781 -1095.12
v 1431.542 245.3692 -1093.485
v 1445.817 257.4131 -1093.631
v 1449.692 254.573 -1091.812
v 1452.741 250.5498 -1089.938
v 1454.905 245.0391 -1087.974
v 1437.862 246.9536 -1111.188
v 1443.673 248.0277 -1111.457
v 1452.747 244.9907 -1108.152
v 1448.941 247.5226 -1110.555
v 1457.455 236.8035 -1101.568
v 1455.605 241.5033 -1105.205
v 1457.767 215.6188 -1140.763
v 1454.908 219.1065 -1143.709
v 1451.104 221.638 -1146.112
v 1445.835 222.1434 -1147.014
v 1440.024 221.069 -1146.745
v 1434.298 242.9492 -1108.399
v 1433.719 238.2652 -1104.771
v 1436.459 217.0647 -1143.956
v 1435.881 212.3806 -1140.328
v 1443.612 237.4389 -1078.591
v 1450.956 239.8009 -1070.66
v 1451.555 240.9932 -1076.344
v 1443.539 236.8716 -1074.802
v 1435.881 212.3806 -1140.328
v 1444.933 218.3926 -1068.269
v 1454.187 224.0883 -1063.583
v 1444.951 230.2083 -1074.249
v 1454.307 233.3628 -1068.418
v 1436.011 229.8896 -1073.982
v 1436.446 217.9176 -1068.352
v 1427.959 231.0491 -1071.959
v 1427.837 219.9285 -1066.92
v 1422.171 233.8644 -1066.702
v 1421.458 221.9698 -1061.655
v 1420.197 237.5815 -1059.621
v 1421.458 221.9698 -1061.655
v 1422.171 233.8644 -1066.702
v 1419.485 226.0945 -1054.517
v 1422.567 241.2042 -1052.613
v 1421.843 230.1811 -1046.645
v 1428.056 244.141 -1045.995
v 1427.936 236.2721 -1041.161
v 1436.268 244.9987 -1044.089
v 1436.149 236.6884 -1039.254
v 1445.729 243.9911 -1046.368
v 1445.611 235.4955 -1041.533
v 1451.63 240.6865 -1052.918
v 1451.663 231.965 -1048.546
v 1455.323 237.1307 -1060.124
v 1451.663 231.965 -1048.546
v 1451.63 240.6865 -1052.918
v 1455.011 228.6494 -1055.584
v 1454.307 233.3628 -1068.418
v 1454.187 224.0883 -1063.583
v 1422.567 241.2042 -1052.613
v 1420.197 237.5815 -1059.621
v 1426.658 240.0541 -1054.706
v 1431.712 241.3249 -1052.142
v 1428.056 244.141 -1045.995
v 1436.868 241.7235 -1051.25
v 1436.268 244.9987 -1044.089
v 1441.592 240.7849 -1052.842
v 1445.729 243.9911 -1046.368
v 1445.918 239.3029 -1055.689
v 1451.63 240.6865 -1052.918
v 1449.825 237.1539 -1060.127
v 1455.323 237.1307 -1060.124
v 1450.243 234.5179 -1066.248
v 1454.307 233.3628 -1068.418
v 1442.992 232.0003 -1070.849
v 1444.951 230.2083 -1074.249
v 1436.339 231.9074 -1070.093
v 1436.011 229.8896 -1073.982
v 1430.541 232.742 -1068.635
v 1427.959 231.0491 -1071.959
v 1426.372 234.7696 -1064.85
v 1422.171 233.8644 -1066.702
v 1424.952 237.4458 -1059.752
v 1424.375 235.7034 -1035.081
v 1421.843 230.1811 -1046.645
v 1424.408 238.3363 -1036.453
v 1436.173 239.5694 -1033.727
v 1424.375 235.7034 -1035.081
v 1424.408 238.3363 -1036.453
v 1436.139 235.9725 -1032.354
v 1446.807 237.6552 -1036.845
v 1446.773 234.2431 -1035.473
v 1452.772 232.5769 -1046.492
v 1452.583 229.3907 -1044.659
v 1457.093 225.0747 -1053.189
v 1456.935 228.5007 -1054.856
v 1456.935 228.5007 -1054.856
v 1452.583 229.3907 -1044.659
v 1452.772 232.5769 -1046.492
v 1455.647 223.2942 -1063.8
v 1457.093 225.0747 -1053.189
v 1456.935 228.5007 -1054.856
v 1455.613 220.6615 -1062.427
v 1444.933 218.3926 -1068.269
v 1455.613 220.6615 -1062.427
v 1455.647 223.2942 -1063.8
v 1421.843 230.1811 -1046.645
v 1427.936 236.2721 -1041.161
v 1424.408 238.3363 -1036.453
v 1436.149 236.6884 -1039.254
v 1436.173 239.5694 -1033.727
v 1445.611 235.4955 -1041.533
v 1446.807 237.6552 -1036.845
v 1451.663 231.965 -1048.546
v 1452.772 232.5769 -1046.492
v 1455.011 228.6494 -1055.584
v 1456.935 228.5007 -1054.856
v 1454.187 224.0883 -1063.583
v 1455.647 223.2942 -1063.8
v 1454.187 224.0883 -1063.583
v 1444.933 218.3926 -1068.269
v 1455.647 223.2942 -1063.8
v 1411.585 220.5261 -1063.499
v 1421.34 224.7171 -1055.217
v 1411.798 236.9213 -1072.046
v 1421.553 241.1126 -1063.764
v 1398.708 235.594 -1074.918
v 1398.496 219.199 -1066.371
v 1385.794 237.4862 -1071.609
v 1385.583 221.091 -1063.063
v 1376.514 242.0908 -1063.007
v 1376.302 225.6957 -1054.461
v 1426.728 230.7964 -1043.47
v 1426.94 247.1919 -1052.017
v 1423.569 237.8501 -1031.88
v 1423.781 253.2749 -1040.427
v 1373.354 248.1736 -1051.417
v 1376.302 225.6957 -1054.461
v 1376.514 242.0908 -1063.007
v 1373.142 231.7784 -1042.87
v 1377.161 254.1053 -1039.944
v 1376.948 237.7105 -1031.397
v 1386.918 258.2961 -1031.662
v 1386.705 241.901 -1023.115
v 1400.006 259.6234 -1028.79
v 1399.793 243.2284 -1020.244
v 1414.042 258.4631 -1030.436
v 1413.829 242.0679 -1021.889
v 1423.781 253.2749 -1040.427
v 1423.569 237.8501 -1031.88
v 1377.161 254.1053 -1039.944
v 1373.354 248.1736 -1051.417
v 1383.377 252.2868 -1043.279
v 1390.4 255.3037 -1037.316
v 1386.918 258.2961 -1031.662
v 1399.825 256.2596 -1035.249
v 1400.006 259.6234 -1028.79
v 1410.251 255.6613 -1035.965
v 1414.042 258.4631 -1030.436
v 1419.728 252.3343 -1042.323
v 1423.781 253.2749 -1040.427
v 1421.186 247.2788 -1051.983
v 1426.94 247.1919 -1052.017
v 1415.339 242.9312 -1060.429
v 1421.553 241.1126 -1063.764
v 1408.314 239.9139 -1066.392
v 1411.798 236.9213 -1072.046
v 1398.89 238.9584 -1068.46
v 1398.708 235.594 -1074.918
v 1389.592 240.3206 -1066.078
v 1385.794 237.4862 -1071.609
v 1382.91 243.6356 -1059.885
v 1376.514 242.0908 -1063.007
v 1380.635 248.0158 -1051.54
v 1383.385 251.5833 -1053.346
v 1385.348 247.8044 -1060.546
v 1383.779 265.9717 -1062.64
v 1385.553 260.1466 -1069.242
v 1391.114 244.944 -1065.89
v 1385.649 270.2856 -1055.632
v 1385.75 255.2684 -1046.218
v 1392.061 273.1139 -1050.239
v 1391.812 257.8722 -1041.073
v 1400.775 273.8046 -1048.324
v 1399.943 258.6967 -1039.289
v 1408.781 271.8811 -1049.417
v 1408.941 258.1806 -1039.907
v 1417.394 267.3939 -1054.524
v 1417.116 255.31 -1045.394
v 1418.375 250.9478 -1053.728
v 1420.226 277.0678 -1064.249
v 1413.126 284.064 -1062.966
v 1404.886 286.7884 -1064.708
v 1397.208 286.9736 -1067.572
v 1391.146 283.5053 -1071.864
v 1388.327 277.3109 -1076.431
v 1389.496 270.058 -1080.063
v 1427.57 280.2635 -1074.511
v 1422.249 288.1404 -1076.378
v 1415.51 291.5256 -1080.364
v 1408.957 292.2189 -1084.72
v 1403.379 288.9455 -1089.258
v 1400.272 282.582 -1092.76
v 1400.468 274.8337 -1094.29
v 1415.533 281.5715 -1107.292
v 1415.283 273.9615 -1107.609
v 1422.263 291.4152 -1098.657
v 1418.088 287.96 -1104.016
v 1426.939 291.011 -1092.652
v 1431.588 287.981 -1086.576
v 1435.04 280.446 -1082.261
v 1435.427 283.4474 -1113.671
v 1433.838 277.574 -1117.314
v 1437.838 286.5306 -1107.772
v 1440.421 286.0155 -1101.207
v 1442.889 283.0871 -1094.626
v 1444.639 276.0416 -1089.949
v 1451.728 275.197 -1121.881
v 1450.071 269.4919 -1125.256
v 1453.317 278.3498 -1116.044
v 1454.41 278.1217 -1109.321
v 1455.036 275.6179 -1102.454
v 1454.75 269.1219 -1097.263
v 1454.75 269.1219 -1097.263
v 1468.569 267.6853 -1128.312
v 1465.508 262.2963 -1130.039
v 1469.98 271.5597 -1122.848
v 1469.746 272.867 -1116.462
v 1469.408 271.8455 -1109.531
v 1467.219 266.2387 -1103.258
v 1467.219 266.2387 -1103.258
v 1478.105 269.9033 -1122.586
v 1477.548 265.9208 -1128.043
v 1485.943 265.4599 -1120.523
v 1486.245 261.3681 -1125.973
v 1482.397 267.5498 -1114.734
v 1476.218 271.6013 -1116.498
v 1476.756 266.6975 -1108.176
v 1472.703 269.3931 -1108.739
v 1470.123 262.6188 -1103.333
v 1468.296 264.5482 -1103.179
v 1470.123 262.6188 -1103.333
v 1467.219 266.2387 -1103.258
v 1491.691 260.882 -1118.355
v 1492.29 254.3212 -1123.652
v 1487.977 263.3791 -1112.869
v 1478.044 261.7763 -1106.541
v 1470.439 258.9565 -1102.763
v 1470.123 262.6188 -1103.333
v 1490.147 258.4731 -1110.954
v 1493.956 255.7471 -1116.272
v 1491.25 253.9146 -1109.432
v 1495.148 250.9703 -1114.588
v 1480.571 256.0389 -1105.061
v 1479.338 258.8398 -1105.784
v 1471.897 254.6028 -1102.455
v 1471.185 256.7285 -1102.605
v 1492.532 247.5429 -1106.242
v 1495.443 243.8337 -1110.303
v 1477.748 251.6705 -1102.699
v 1476.147 248.4431 -1100.563
v 1486.272 238.891 -1100.739
v 1473.287 240.7036 -1095.775
v 1477.435 232.763 -1095.642
v 1467.069 245.4863 -1099.133
v 1469.132 248.1407 -1100.541
v 1470.397 252.3915 -1101.685
v 1466.872 230.2594 -1093.148
v 1469.137 223.1904 -1092.854
v 1444.057 227.7383 -1083.421
v 1445.98 220.404 -1082.621
v 1442.169 233.9022 -1086.843
v 1463.154 236.4607 -1098.279
v 1463.154 236.4607 -1098.279
v 1470.397 252.3915 -1101.685
v 1469.132 248.1407 -1100.541
v 1385.348 247.8044 -1060.546
v 1391.114 244.944 -1065.89
v 1385.553 260.1466 -1069.242
v 1390.786 255.1607 -1074.171
v 1399.137 243.7689 -1067.945
v 1398.89 238.9584 -1068.46
v 1389.592 240.3206 -1066.078
v 1399.302 253.0739 -1075.957
v 1407.27 244.5929 -1066.161
v 1408.017 253.7647 -1074.041
v 1413.329 247.1964 -1061.016
v 1414.594 257.0475 -1068.937
v 1418.375 250.9478 -1053.728
v 1420.134 261.9794 -1061.796
v 1417.116 255.31 -1045.394
v 1417.394 267.3939 -1054.524
v 1421.186 247.2788 -1051.983
v 1415.339 242.9312 -1060.429
v 1408.314 239.9139 -1066.392
v 1420.656 268.9032 -1068.679
v 1420.226 277.0678 -1064.249
v 1401.59 259.8854 -1081.097
v 1394.354 263.6768 -1081.765
v 1389.496 270.058 -1080.063
v 1415.335 263.1639 -1073.947
v 1421.822 265.8818 -1081.533
v 1416.243 262.6081 -1086.071
v 1409.271 259.6965 -1078.24
v 1409.689 263.3021 -1090.427
v 1403.916 267.7763 -1093.436
v 1400.468 274.8337 -1094.29
v 1415.283 273.9615 -1107.609
v 1426 262.6094 -1093.832
v 1430.174 266.0648 -1088.474
v 1427.02 271.6015 -1076.748
v 1427.57 280.2635 -1074.511
v 1434.205 271.9058 -1083.324
v 1435.04 280.446 -1082.261
v 1421.326 263.0134 -1099.838
v 1417.403 267.1684 -1104.88
v 1439.437 259.3787 -1102.724
v 1441.718 262.6687 -1096.82
v 1436.659 260.1083 -1109.25
v 1434.521 264.1283 -1114.746
v 1433.508 270.4951 -1117.708
v 1443.973 268.167 -1091.143
v 1444.639 276.0416 -1089.949
v 1453.254 261.5381 -1098.039
v 1454.75 269.1219 -1097.263
v 1451.585 255.9012 -1103.557
v 1450.099 252.5659 -1109.393
v 1448.831 252.9782 -1116.08
v 1448.242 256.8623 -1121.859
v 1448.794 262.7743 -1125.248
v 1450.071 269.4919 -1125.256
v 1433.838 277.574 -1117.314
v 1415.533 281.5715 -1107.292
v 1460.923 247.8273 -1114.665
v 1462.004 251.0042 -1108.743
v 1460.484 248.4505 -1120.099
v 1461.379 250.6534 -1126.238
v 1461.379 250.6534 -1126.238
v 1463.195 255.5174 -1130.252
v 1465.508 262.2963 -1130.039
v 1469.142 252.5663 -1129.391
v 1473.227 258.5783 -1129.854
v 1482.037 255.013 -1128.768
v 1475.862 249.3701 -1128.759
v 1465.281 246.9232 -1128.365
v 1486.245 261.3681 -1125.973
v 1477.548 265.9208 -1128.043
v 1468.569 267.6853 -1128.312
v 1477.367 245.0183 -1128.307
v 1484.215 249.2797 -1127.262
v 1492.29 254.3212 -1123.652
v 1485.297 246.8627 -1126.432
v 1478.069 243.3786 -1128.069
v 1466.473 244.5302 -1127.129
v 1465.281 246.9232 -1128.365
v 1467.725 243.0318 -1126.869
v 1478.74 241.8142 -1127.843
v 1468.92 241.6023 -1126.621
v 1464.705 244.2177 -1123.755
v 1460.923 247.8273 -1114.665
v 1465.281 246.9232 -1128.365
v 1461.379 250.6534 -1126.238
v 1486.329 244.5569 -1125.64
v 1495.326 247.4468 -1120.427
v 1493.844 250.803 -1122.001
v 1475.462 238.1021 -1122.869
v 1467.198 239.3823 -1123.918
v 1472.102 233.976 -1117.46
v 1465.886 235.9895 -1119.555
v 1469.326 228.7944 -1113.773
v 1465.301 232.5617 -1116.584
v 1462.15 238.0255 -1114.746
v 1465.301 232.5617 -1116.584
v 1473.64 225.2621 -1107.361
v 1482.049 231.5883 -1113.442
v 1477.892 224.1501 -1100.834
v 1486.133 238.434 -1120.546
v 1488.908 230.8183 -1108.631
v 1477.892 224.1501 -1100.834
v 1495.379 240.2605 -1115.527
v 1465.957 214.627 -1104.938
v 1463.408 217.2429 -1110.246
v 1468.611 214.1148 -1098.734
v 1495.326 247.4468 -1120.427
v 1495.379 240.2605 -1115.527
v 1463.501 242.316 -1120.57
v 1460.923 247.8273 -1114.665
v 1462.136 245.7583 -1114.068
v 1462.004 251.0042 -1108.743
v 1463.419 248.7497 -1108.273
v 1463.783 257.2923 -1106.613
v 1454.75 269.1219 -1097.263
v 1467.219 266.2387 -1103.258
v 1463.783 257.2923 -1106.613
v 1462.004 251.0042 -1108.743
v 1464.889 250.7955 -1109.551
v 1463.783 257.2923 -1106.613
v 1468.296 264.5482 -1103.179
v 1470.123 262.6188 -1103.333
v 1467.219 266.2387 -1103.258
v 1469.142 252.5663 -1129.391
v 1461.379 250.6534 -1126.238
v 1465.281 246.9232 -1128.365
v 1463.783 257.2923 -1106.613
v 1470.123 262.6188 -1103.333
v 1464.889 250.7955 -1109.551
v 1464.889 250.7955 -1109.551
v 1470.123 262.6188 -1103.333
v 1470.439 258.9565 -1102.763
v 1464.889 250.7955 -1109.551
v 1470.439 258.9565 -1102.763
v 1471.185 256.7285 -1102.605
v 1471.897 254.6028 -1102.455
v 1462.004 251.0042 -1108.743
v 1464.889 250.7955 -1109.551
v 1463.419 248.7497 -1108.273
v 1495.148 250.9703 -1114.588
v 1495.326 247.4468 -1120.427
v 1493.956 255.7471 -1116.272
v 1491.691 260.882 -1118.355
v 1495.326 247.4468 -1120.427
v 1495.443 243.8337 -1110.303
v 1495.379 240.2605 -1115.527
v 1478.456 227.8259 -1096.879
v 1488.908 230.8183 -1108.631
v 1477.892 224.1501 -1100.834
v 1489.141 234.4257 -1103.832
v 1477.435 232.763 -1095.642
v 1486.272 238.891 -1100.739
v 1495.443 243.8337 -1110.303
v 1495.379 240.2605 -1115.527
v 1488.908 230.8183 -1108.631
v 1492.532 247.5429 -1106.242
v 1469.311 217.777 -1094.674
v 1468.611 214.1148 -1098.734
v 1469.137 223.1904 -1092.854
v 1445.98 220.404 -1082.621
v 1446.768 215.1495 -1084.554
v 1468.611 214.1148 -1098.734
v 1447.713 211.8846 -1088.788
v 1465.917 245.4276 -1102.641
v 1469.132 248.1407 -1100.541
v 1467.069 245.4863 -1099.133
v 1495.379 240.2605 -1115.527
v 1486.133 238.434 -1120.546
v 1488.908 230.8183 -1108.631
v 1469.132 248.1407 -1100.541
v 1465.917 245.4276 -1102.641
v 1470.397 252.3915 -1101.685
v 1470.397 252.3915 -1101.685
v 1464.958 249.4691 -1107.293
v 1463.302 244.3009 -1105.55
v 1463.419 248.7497 -1108.273
v 1460.038 232.522 -1111.973
v 1461.229 235.3707 -1106.163
v 1465.917 245.4276 -1102.641
v 1467.069 245.4863 -1099.133
v 1461.66 236.022 -1102.883
v 1463.154 236.4607 -1098.279
v 1461.229 235.3707 -1106.163
v 1461.66 236.022 -1102.883
v 1471.897 254.6028 -1102.455
v 1470.397 252.3915 -1101.685
v 1464.958 249.4691 -1107.293
v 1471.897 254.6028 -1102.455
v 1470.397 252.3915 -1101.685
v 1464.889 250.7955 -1109.551
v 1463.419 248.7497 -1108.273
v 1463.004 240.8511 -1111.45
v 1463.419 248.7497 -1108.273
v 1463.302 244.3009 -1105.55
v 1460.038 232.522 -1111.973
v 1459.656 228.6231 -1114.082
v 1462.136 245.7583 -1114.068
v 1462.15 238.0255 -1114.746
v 1459.656 228.6231 -1114.082
v 1463.501 242.316 -1120.57
v 1462.15 238.0255 -1114.746
v 1464.705 244.2177 -1123.755
v 1460.923 247.8273 -1114.665
v 1460.038 232.522 -1111.973
v 1461.229 235.3707 -1106.163
v 1445.266 232.3887 -1103.383
v 1444.008 234.697 -1097.401
v 1445.714 228.6669 -1105.718
v 1459.656 228.6231 -1114.082
v 1461.66 236.022 -1102.883
v 1443.091 234.9991 -1094.187
v 1463.154 236.4607 -1098.279
v 1442.169 233.9022 -1086.843
v 1461.66 236.022 -1102.883
v 1463.154 236.4607 -1098.279
v 1447.182 223.0905 -1106.188
v 1459.656 228.6231 -1114.082
v 1445.714 228.6669 -1105.718
v 1460.966 223.1257 -1114.837
v 1462.15 238.0255 -1114.746
v 1465.301 232.5617 -1116.584
v 1447.554 216.4974 -1101.323
v 1460.966 223.1257 -1114.837
v 1447.182 223.0905 -1106.188
v 1463.408 217.2429 -1110.246
v 1447.747 213.1796 -1095.555
v 1463.408 217.2429 -1110.246
v 1447.554 216.4974 -1101.323
v 1465.957 214.627 -1104.938
v 1447.713 211.8846 -1088.788
v 1468.611 214.1148 -1098.734
v 1467.069 245.4863 -1099.133
v 1473.287 240.7036 -1095.775
v 1463.154 236.4607 -1098.279
v 1465.301 232.5617 -1116.584
v 1463.408 217.2429 -1110.246
v 1463.408 217.2429 -1110.246
v 1465.301 232.5617 -1116.584
v 1460.966 223.1257 -1114.837
vt 0.513786 0.89898
vt 0.529372 0.906837
vt 0.517672 0.889114
vt 0.533864 0.895897
vt 0.505381 0.88908
vt 0.513786 0.89898
vt 0.517672 0.889114
vt 0.50078 0.900495
vt 0.495552 0.889464
vt 0.489966 0.902964
vt 0.48994 0.892917
vt 0.482992 0.909449
vt 0.506705 0.879963
vt 0.497954 0.877856
vt 0.494293 0.876539
vt 0.501471 0.855121
vt 0.509188 0.860399
vt 0.518143 0.881467
vt 0.517672 0.889114
vt 0.519715 0.864527
vt 0.535735 0.884255
vt 0.537946 0.864659
vt 0.499122 0.848707
vt 0.501692 0.838794
vt 0.509381 0.844875
vt 0.499308 0.829984
vt 0.491216 0.782335
vt 0.498826 0.788411
vt 0.519626 0.849396
vt 0.537946 0.864659
vt 0.508963 0.792939
vt 0.537778 0.846158
vt 0.537946 0.864659
vt 0.544689 0.859655
vt 0.540671 0.885547
vt 0.544783 0.836924
vt 0.526889 0.789683
vt 0.533784 0.780418
vt 0.543958 0.827595
vt 0.532945 0.771078
vt 0.535735 0.884255
vt 0.536118 0.903511
vt 0.533864 0.895897
vt 0.5301 0.917622
vt 0.529372 0.906837
vt 0.535735 0.884255
vt 0.535735 0.884255
vt 0.537946 0.864659
vt 0.490124 0.898532
vt 0.482992 0.909449
vt 0.48994 0.892917
vt 0.481729 0.918229
vt 0.496086 0.904817
vt 0.486538 0.926957
vt 0.5069 0.908964
vt 0.497139 0.931422
vt 0.516979 0.911176
vt 0.507448 0.932997
vt 0.524794 0.910425
vt 0.516139 0.930286
vt 0.531231 0.908012
vt 0.52373 0.925358
vt 0.536118 0.903511
vt 0.5301 0.917622
vt 0.5048 0.87742
vt 0.516342 0.879575
vt 0.526412 0.881643
vt 0.533162 0.883426
vt 0.538017 0.884766
vt 0.540671 0.885547
vt 0.524196 0.840012
vt 0.512243 0.839052
vt 0.496783 0.876376
vt 0.494293 0.876539
vt 0.50298 0.842822
vt 0.499122 0.848707
vt 0.534194 0.84276
vt 0.540134 0.847679
vt 0.543729 0.853246
vt 0.544689 0.859655
vt 0.512422 0.813266
vt 0.524441 0.812218
vt 0.540432 0.820161
vt 0.534475 0.814232
vt 0.544783 0.836924
vt 0.543958 0.827595
vt 0.532945 0.771078
vt 0.529444 0.763642
vt 0.523546 0.757718
vt 0.513628 0.755714
vt 0.501756 0.756778
vt 0.503128 0.820658
vt 0.499308 0.829984
vt 0.492591 0.764185
vt 0.48884 0.773523
vt 0.518143 0.881467
vt 0.533864 0.895897
vt 0.535735 0.884255
vt 0.517672 0.889114
vt 0.48884 0.773523
vt 0.50973 0.909937
vt 0.530947 0.916551
vt 0.51656 0.893157
vt 0.536612 0.903114
vt 0.498991 0.893817
vt 0.493046 0.909984
vt 0.483985 0.897241
vt 0.477516 0.911884
vt 0.474296 0.906237
vt 0.466294 0.921202
vt 0.472527 0.918426
vt 0.466294 0.921202
vt 0.474296 0.906237
vt 0.464748 0.933286
vt 0.479191 0.930554
vt 0.4716 0.94686
vt 0.491596 0.942248
vt 0.486889 0.954999
vt 0.508167 0.945618
vt 0.503145 0.958546
vt 0.526104 0.941582
vt 0.52091 0.954596
vt 0.535701 0.930177
vt 0.530644 0.942412
vt 0.540814 0.917639
vt 0.530644 0.942412
vt 0.535701 0.930177
vt 0.535214 0.930127
vt 0.536612 0.903114
vt 0.530947 0.916551
vt 0.479191 0.930554
vt 0.472527 0.918426
vt 0.486538 0.926957
vt 0.497139 0.931422
vt 0.491596 0.942248
vt 0.507448 0.932997
vt 0.508167 0.945618
vt 0.516139 0.930286
vt 0.526104 0.941582
vt 0.52373 0.925358
vt 0.535701 0.930177
vt 0.5301 0.917622
vt 0.540814 0.917639
vt 0.529372 0.906837
vt 0.536612 0.903114
vt 0.513786 0.89898
vt 0.51656 0.893157
vt 0.50078 0.900495
vt 0.498991 0.893817
vt 0.489966 0.902964
vt 0.483985 0.897241
vt 0.482992 0.909449
vt 0.474296 0.906237
vt 0.481729 0.918229
vt 0.479623 0.967092
vt 0.4716 0.94686
vt 0.481171 0.96333
vt 0.50485 0.968146
vt 0.479623 0.967092
vt 0.481171 0.96333
vt 0.502718 0.972298
vt 0.524505 0.962846
vt 0.522449 0.966927
vt 0.533163 0.946152
vt 0.530928 0.951053
vt 0.537159 0.936294
vt 0.538864 0.931604
vt 0.538864 0.931604
vt 0.530928 0.951053
vt 0.533163 0.946152
vt 0.533314 0.916475
vt 0.537159 0.936294
vt 0.538864 0.931604
vt 0.531713 0.920267
vt 0.50973 0.909937
vt 0.531713 0.920267
vt 0.533314 0.916475
vt 0.4716 0.94686
vt 0.486889 0.954999
vt 0.481171 0.96333
vt 0.503145 0.958546
vt 0.50485 0.968146
vt 0.52091 0.954596
vt 0.524505 0.962846
vt 0.530644 0.942412
vt 0.533163 0.946152
vt 0.535214 0.930127
vt 0.538864 0.931604
vt 0.530947 0.916551
vt 0.533314 0.916475
vt 0.530947 0.916551
vt 0.50973 0.909937
vt 0.533314 0.916475
vt 0.446378 0.918249
vt 0.467587 0.93251
vt 0.45577 0.894469
vt 0.477158 0.908794
vt 0.429516 0.88946
vt 0.420329 0.913262
vt 0.405332 0.895071
vt 0.39632 0.918852
vt 0.389623 0.909845
vt 0.380708 0.933564
vt 0.481447 0.952778
vt 0.49115 0.929148
vt 0.479259 0.972457
vt 0.488422 0.949309
vt 0.386612 0.929903
vt 0.380708 0.933564
vt 0.389623 0.909845
vt 0.377695 0.953538
vt 0.397209 0.949909
vt 0.388187 0.973457
vt 0.418654 0.964457
vt 0.409452 0.98794
vt 0.445179 0.969567
vt 0.435768 0.993024
vt 0.472199 0.966803
vt 0.462589 0.990271
vt 0.488422 0.949309
vt 0.479259 0.972457
vt 0.397209 0.949909
vt 0.386612 0.929903
vt 0.40846 0.944122
vt 0.423895 0.954574
vt 0.418654 0.964457
vt 0.442965 0.958243
vt 0.445179 0.969567
vt 0.463157 0.957083
vt 0.472199 0.966803
vt 0.479919 0.945979
vt 0.488422 0.949309
vt 0.479918 0.929178
vt 0.49115 0.929148
vt 0.466022 0.91452
vt 0.477158 0.908794
vt 0.450618 0.904184
vt 0.45577 0.894469
vt 0.431687 0.900566
vt 0.429516 0.88946
vt 0.414255 0.904619
vt 0.405332 0.895071
vt 0.402949 0.915279
vt 0.389623 0.909845
vt 0.400809 0.92973
vt 0.408103 0.924646
vt 0.40994 0.912161
vt 0.416607 0.899989
vt 0.416965 0.889568
vt 0.419708 0.902947
vt 0.422653 0.91194
vt 0.414726 0.937071
vt 0.436919 0.921387
vt 0.428069 0.946092
vt 0.454597 0.924885
vt 0.444544 0.949258
vt 0.469396 0.923557
vt 0.461987 0.948258
vt 0.483901 0.915413
vt 0.476471 0.938675
vt 0.476477 0.924169
vt 0.495278 0.891721
vt 0.485152 0.891093
vt 0.470214 0.886358
vt 0.454931 0.88053
vt 0.440839 0.873541
vt 0.431757 0.867294
vt 0.430092 0.863466
vt 0.511948 0.86967
vt 0.505945 0.86222
vt 0.494385 0.852592
vt 0.481594 0.843486
vt 0.468478 0.83594
vt 0.458603 0.832001
vt 0.454606 0.8327
vt 0.48861 0.803375
vt 0.483693 0.806529
vt 0.507916 0.815819
vt 0.497475 0.806758
vt 0.517086 0.828105
vt 0.524619 0.841799
vt 0.527017 0.854065
vt 0.529594 0.789651
vt 0.522889 0.785332
vt 0.536295 0.799935
vt 0.541171 0.813375
vt 0.544336 0.82802
vt 0.543559 0.840793
vt 0.556584 0.778172
vt 0.549833 0.774372
vt 0.561667 0.788182
vt 0.563703 0.801669
vt 0.563413 0.816553
vt 0.558878 0.830003
vt 0.558878 0.830003
vt 0.585356 0.76924
vt 0.575976 0.768569
vt 0.590563 0.778096
vt 0.590914 0.790105
vt 0.589607 0.804361
vt 0.581787 0.819531
vt 0.581787 0.819531
vt 0.605626 0.779454
vt 0.602018 0.77067
vt 0.618327 0.785772
vt 0.616329 0.777064
vt 0.612638 0.796181
vt 0.602957 0.790668
vt 0.600939 0.809577
vt 0.594603 0.80714
vt 0.585286 0.821136
vt 0.582871 0.820507
vt 0.585286 0.821136
vt 0.581787 0.819531
vt 0.626765 0.792338
vt 0.623769 0.785171
vt 0.621024 0.801934
vt 0.600402 0.815213
vt 0.583646 0.824029
vt 0.585286 0.821136
vt 0.622187 0.80812
vt 0.627956 0.798985
vt 0.621465 0.813338
vt 0.627261 0.804641
vt 0.601793 0.820909
vt 0.601115 0.818132
vt 0.583833 0.826729
vt 0.583742 0.825412
vt 0.619957 0.822679
vt 0.623319 0.816505
vt 0.593523 0.827653
vt 0.588385 0.833386
vt 0.602296 0.83756
vt 0.57804 0.846408
vt 0.581295 0.850364
vt 0.568784 0.83759
vt 0.574439 0.833572
vt 0.579521 0.829302
vt 0.559229 0.856375
vt 0.559406 0.86019
vt 0.513399 0.876433
vt 0.512911 0.881276
vt 0.513281 0.866979
vt 0.555694 0.843502
vt 0.555694 0.843502
vt 0.579521 0.829302
vt 0.574439 0.833572
vt 0.40994 0.912161
vt 0.419708 0.902947
vt 0.416965 0.889568
vt 0.424576 0.882116
vt 0.43478 0.899444
vt 0.431687 0.900566
vt 0.414255 0.904619
vt 0.440188 0.879551
vt 0.451151 0.902572
vt 0.457703 0.883004
vt 0.464469 0.911505
vt 0.472486 0.891567
vt 0.476477 0.924169
vt 0.486216 0.903439
vt 0.476471 0.938675
vt 0.483901 0.915413
vt 0.479918 0.929178
vt 0.466022 0.91452
vt 0.450618 0.904184
vt 0.491374 0.886631
vt 0.495278 0.891721
vt 0.448453 0.866143
vt 0.436218 0.863056
vt 0.430092 0.863466
vt 0.477515 0.878807
vt 0.492045 0.862386
vt 0.479075 0.854906
vt 0.463544 0.871899
vt 0.466453 0.845924
vt 0.4575 0.837804
vt 0.454606 0.8327
vt 0.483693 0.806529
vt 0.498451 0.839492
vt 0.508767 0.848495
vt 0.505737 0.869244
vt 0.511948 0.86967
vt 0.520248 0.855987
vt 0.527017 0.854065
vt 0.489401 0.82737
vt 0.483999 0.815321
vt 0.523211 0.823407
vt 0.529694 0.833535
vt 0.518136 0.810111
vt 0.516264 0.79721
vt 0.518013 0.788126
vt 0.537471 0.842185
vt 0.543559 0.840793
vt 0.551325 0.832108
vt 0.558878 0.830003
vt 0.544651 0.823936
vt 0.53974 0.81407
vt 0.537494 0.800725
vt 0.538645 0.787433
vt 0.543265 0.777787
vt 0.549833 0.774372
vt 0.522889 0.785332
vt 0.48861 0.803375
vt 0.558152 0.806025
vt 0.562192 0.816103
vt 0.557666 0.795061
vt 0.56075 0.781922
vt 0.56075 0.781922
vt 0.567273 0.771585
vt 0.575976 0.768569
vt 0.577166 0.774767
vt 0.588909 0.770821
vt 0.604035 0.77476
vt 0.588397 0.777614
vt 0.56615 0.779612
vt 0.616329 0.777064
vt 0.602018 0.77067
vt 0.585356 0.76924
vt 0.588666 0.780676
vt 0.604733 0.780597
vt 0.623769 0.785171
vt 0.605347 0.783431
vt 0.589033 0.781958
vt 0.567036 0.783226
vt 0.56615 0.779612
vt 0.568579 0.784479
vt 0.589382 0.78318
vt 0.57005 0.785672
vt 0.563385 0.789988
vt 0.558152 0.806025
vt 0.56615 0.779612
vt 0.56075 0.781922
vt 0.605931 0.786129
vt 0.625375 0.794914
vt 0.624593 0.790165
vt 0.580703 0.79473
vt 0.565344 0.792053
vt 0.571642 0.807291
vt 0.560741 0.802229
vt 0.563123 0.81696
vt 0.557546 0.80968
vt 0.55467 0.810623
vt 0.557546 0.80968
vt 0.569383 0.831089
vt 0.589563 0.816265
vt 0.576962 0.844272
vt 0.601741 0.799104
vt 0.602436 0.825994
vt 0.576962 0.844272
vt 0.620941 0.808016
vt 0.548182 0.840753
vt 0.544798 0.829274
vt 0.553004 0.852969
vt 0.625375 0.794914
vt 0.620941 0.808016
vt 0.559884 0.797156
vt 0.558152 0.806025
vt 0.559283 0.808202
vt 0.562192 0.816103
vt 0.563604 0.818114
vt 0.569508 0.817249
vt 0.558878 0.830003
vt 0.581787 0.819531
vt 0.569508 0.817249
vt 0.562192 0.816103
vt 0.567729 0.814618
vt 0.569508 0.817249
vt 0.582871 0.820507
vt 0.585286 0.821136
vt 0.581787 0.819531
vt 0.577166 0.774767
vt 0.56075 0.781922
vt 0.56615 0.779612
vt 0.569508 0.817249
vt 0.585286 0.821136
vt 0.567729 0.814618
vt 0.567729 0.814618
vt 0.585286 0.821136
vt 0.583646 0.824029
vt 0.567729 0.814618
vt 0.583646 0.824029
vt 0.583742 0.825412
vt 0.583833 0.826729
vt 0.562192 0.816103
vt 0.567729 0.814618
vt 0.563604 0.818114
vt 0.627261 0.804641
vt 0.625375 0.794914
vt 0.627956 0.798985
vt 0.626765 0.792338
vt 0.625375 0.794914
vt 0.623319 0.816505
vt 0.620941 0.808016
vt 0.580284 0.850246
vt 0.602436 0.825994
vt 0.576962 0.844272
vt 0.605121 0.833631
vt 0.581295 0.850364
vt 0.602296 0.83756
vt 0.623319 0.816505
vt 0.620941 0.808016
vt 0.602436 0.825994
vt 0.619957 0.822679
vt 0.556526 0.859139
vt 0.553004 0.852969
vt 0.559406 0.86019
vt 0.512911 0.881276
vt 0.511425 0.879885
vt 0.553004 0.852969
vt 0.511382 0.873175
vt 0.566491 0.830747
vt 0.574439 0.833572
vt 0.568784 0.83759
vt 0.620941 0.808016
vt 0.601741 0.799104
vt 0.602436 0.825994
vt 0.574439 0.833572
vt 0.566491 0.830747
vt 0.579521 0.829302
vt 0.579521 0.829302
vt 0.56706 0.819692
vt 0.56069 0.825587
vt 0.563604 0.818114
vt 0.547276 0.818677
vt 0.55129 0.82864
vt 0.566491 0.830747
vt 0.568784 0.83759
vt 0.55252 0.834727
vt 0.555694 0.843502
vt 0.55129 0.82864
vt 0.55252 0.834727
vt 0.583833 0.826729
vt 0.579521 0.829302
vt 0.56706 0.819692
vt 0.583833 0.826729
vt 0.579521 0.829302
vt 0.567729 0.814618
vt 0.563604 0.818114
vt 0.558033 0.815699
vt 0.563604 0.818114
vt 0.56069 0.825587
vt 0.547276 0.818677
vt 0.544226 0.816441
vt 0.559283 0.808202
vt 0.55467 0.810623
vt 0.544226 0.816441
vt 0.559884 0.797156
vt 0.55467 0.810623
vt 0.563385 0.789988
vt 0.558152 0.806025
vt 0.547276 0.818677
vt 0.55129 0.82864
vt 0.518435 0.835466
vt 0.517324 0.846037
vt 0.517151 0.832676
vt 0.544226 0.816441
vt 0.55252 0.834727
vt 0.515711 0.852162
vt 0.555694 0.843502
vt 0.513281 0.866979
vt 0.55252 0.834727
vt 0.555694 0.843502
vt 0.516786 0.834386
vt 0.544226 0.816441
vt 0.517151 0.832676
vt 0.543528 0.817601
vt 0.55467 0.810623
vt 0.557546 0.80968
vt 0.513714 0.84687
vt 0.543528 0.817601
vt 0.516786 0.834386
vt 0.544798 0.829274
vt 0.512187 0.859534
vt 0.544798 0.829274
vt 0.513714 0.84687
vt 0.548182 0.840753
vt 0.511382 0.873175
vt 0.553004 0.852969
vt 0.568784 0.83759
vt 0.57804 0.846408
vt 0.555694 0.843502
vt 0.557546 0.80968
vt 0.544798 0.829274
vt 0.544798 0.829274
vt 0.557546 0.80968
vt 0.543528 0.817601
vn 0.1312094 -0.6234637 -0.7707639
vn 0.7955218 -0.4427069 -0.4137096
vn 0.2850327 -0.7944851 -0.5362367
vn 0.8617372 -0.4942818 -0.1144322
vn -0.2487442 -0.7710264 -0.5862121
vn 0.1312094 -0.6234637 -0.7707639
vn 0.191573 -0.8542527 -0.4832722
vn -0.2174956 -0.5697654 -0.7925043
vn -0.5664183 -0.5979735 -0.5670961
vn -0.5906564 -0.4360439 -0.6789631
vn -0.8914686 -0.2471506 -0.379737
vn -0.9155298 -0.1639953 -0.3673017
vn -0.3634955 -0.9264895 -0.09740724
vn -0.6557459 -0.7277215 -0.2010441
vn -0.9278268 -0.2907266 -0.2336997
vn -0.7374684 -0.6687133 0.09467332
vn -0.4721205 -0.8464381 0.2462618
vn 0.04807246 -0.998648 0.01977828
vn -0.03240301 -0.9277685 -0.3717467
vn -0.05747813 -0.9219846 0.3829371
vn 0.5760937 -0.800499 0.1652795
vn 0.7123269 -0.5745484 0.4030935
vn -0.9584059 -0.2618264 -0.1136004
vn -0.7733678 -0.5653435 0.2868604
vn -0.516224 -0.7346816 0.4401768
vn -0.9798647 -0.1995365 0.007099573
vn -0.7239726 -0.5779126 0.3766703
vn -0.4961395 -0.7160177 0.4910847
vn -0.09359568 -0.8206409 0.5637272
vn 0.6278639 -0.6468797 0.4328206
vn 0.03645069 -0.8068727 0.5895997
vn 0.6938241 -0.5446981 0.4710755
vn 0.7123269 -0.5745484 0.4030935
vn 0.9771024 0.1237001 0.1731156
vn 0.9605975 0.1590923 0.2279082
vn 0.9940022 0.06687944 0.08652607
vn 0.8142342 -0.444663 0.3732257
vn 0.9932773 0.1135932 -0.02229315
vn 0.8995876 0.4085611 -0.1543376
vn 0.8876421 0.3963285 -0.234553
vn 0.935934 -0.3437504 0.07657119
vn 0.9424117 0.1553746 0.296174
vn 0.9750304 -0.2040418 -0.08765108
vn 0.9653336 0.07196795 0.2509018
vn 0.7955218 -0.4427069 -0.4137096
vn 0.9832038 -0.1179641 0.1392652
vn 0.7877972 -0.5957505 0.156388
vn 0.7897328 -0.5042518 0.34936
vn -0.9835379 0.1644679 -0.07485792
vn -0.9155298 -0.1639953 -0.3673017
vn -0.8914686 -0.2471506 -0.379737
vn -0.9862872 0.1570584 0.05069783
vn -0.7378865 0.5932261 0.3218792
vn -0.6771172 0.4916954 0.5474925
vn -0.2883983 0.7683382 0.5713868
vn -0.2809152 0.5982041 0.7504922
vn 0.1470121 0.7501311 0.6447409
vn 0.1909771 0.5756231 0.7951012
vn 0.528427 0.6090254 0.5914837
vn 0.5243394 0.4718834 0.7087978
vn 0.7290576 0.4695546 0.4979895
vn 0.7278386 0.3581675 0.5847794
vn 0.9424117 0.1553746 0.296174
vn 0.9653336 0.07196795 0.2509018
vn -0.6453846 0.7636082 -0.01952506
vn -0.166031 0.9765153 0.137301
vn 0.2652835 0.9373687 0.2257536
vn 0.6208831 0.7403566 0.257636
vn 0.7970661 0.5508898 0.2473986
vn 0.9605975 0.1590923 0.2279082
vn -0.04536683 0.9474779 -0.3165875
vn -0.5548868 0.7433955 -0.3734485
vn -0.9572403 0.2304306 -0.1749076
vn -0.9278268 -0.2907266 -0.2336997
vn -0.9303906 0.2335233 -0.2825602
vn -0.9584059 -0.2618264 -0.1136004
vn 0.3841124 0.8997841 -0.2069931
vn 0.7144846 0.6955334 -0.07579714
vn 0.8650696 0.5014912 0.01269744
vn 0.9771024 0.1237001 0.1731156
vn -0.5253572 0.6725248 -0.5212582
vn 0.0005510898 0.8342623 -0.5513676
vn 0.7569601 0.5860918 -0.2889772
vn 0.4342873 0.7761338 -0.4571771
vn 0.9940022 0.06687944 0.08652607
vn 0.8995876 0.4085611 -0.1543376
vn 0.8876421 0.3963285 -0.234553
vn 0.7345514 0.5690626 -0.369597
vn 0.3522153 0.7667278 -0.5367242
vn -0.05810499 0.805419 -0.5898508
vn -0.6361459 0.6048738 -0.4790054
vn -0.9301006 0.2361895 -0.2812959
vn -0.9798647 -0.1995365 0.007099573
vn -0.9619976 0.1895937 -0.196507
vn -0.9668821 -0.2307101 0.1091413
vn 0.04807246 -0.998648 0.01977828
vn 0.4925983 -0.8172454 -0.2990935
vn 0.702843 -0.6922802 0.1635843
vn 0.191573 -0.8542527 -0.4832722
vn -0.9668821 -0.2307101 0.1091413
vn 0.2794665 -0.2586291 -0.9246672
vn 0.6924592 -0.0941114 -0.7152925
vn 0.4035893 -0.4184946 -0.8136203
vn 0.929502 -0.1867751 -0.3180269
vn -0.08603089 -0.4352366 -0.8961963
vn -0.1633713 -0.417409 -0.8939125
vn -0.4250443 -0.3777134 -0.8225995
vn -0.5568359 -0.3225944 -0.7654192
vn -0.8113248 -0.2025318 -0.5483912
vn -0.9026207 -0.122038 -0.4127744
vn -0.9960399 0.02478581 -0.08538224
vn -0.9026207 -0.122038 -0.4127744
vn -0.8113248 -0.2025318 -0.5483912
vn -0.9927275 0.09949359 0.06777358
vn -0.9195523 0.2255525 0.3217916
vn -0.9034796 0.2376343 0.3567273
vn -0.641372 0.4093942 0.6488747
vn -0.4413665 0.4675899 0.765869
vn -0.0725296 0.509239 0.8575634
vn 0.1010022 0.4964997 0.8621408
vn 0.4513904 0.4393636 0.7766637
vn 0.6398031 0.3673011 0.6750867
vn 0.8317697 0.2575657 0.4917511
vn 0.8786733 0.2099529 0.4287809
vn 0.9703728 0.09223291 0.2233153
vn 0.8786733 0.2099529 0.4287809
vn 0.8317697 0.2575657 0.4917511
vn 0.9975122 0.009265608 0.06988169
vn 0.929502 -0.1867751 -0.3180269
vn 0.7841659 -0.2897707 -0.548741
vn 0.01130661 0.8949215 -0.4460802
vn 0.01256006 0.8866167 -0.4623343
vn 0.01242224 0.8863996 -0.4627542
vn 0.007655756 0.9025787 -0.4304567
vn 0.004126241 0.910037 -0.4145064
vn 0.01498311 0.9097852 -0.4148088
vn 0.01110891 0.9062812 -0.4225291
vn 0.01405403 0.9009706 -0.4336524
vn 0.0006588574 0.8951712 -0.445722
vn 0.002451715 0.8951017 -0.4458554
vn 0.0003440419 0.8964772 -0.4430897
vn 0.001197996 0.9050924 -0.4252133
vn 0.01454956 0.908405 -0.4178382
vn 0.01192224 0.902961 -0.4295571
vn 0.008657238 0.8909864 -0.4539474
vn -0.02599671 0.8767717 -0.4802037
vn -0.03983254 0.8795812 -0.4740783
vn -0.03402715 0.8811122 -0.4716815
vn -0.00722815 0.8879084 -0.4599636
vn 0.0120241 0.8871618 -0.4613019
vn 0.01220097 0.8871073 -0.4614021
vn 0.01243292 0.8869631 -0.4616729
vn 0.01247439 0.8868817 -0.4618281
vn 0.01254827 0.8867156 -0.462145
vn -0.9808806 0.09936141 0.167334
vn -0.9034796 0.2376343 0.3567273
vn -0.9808806 0.09936141 0.167334
vn -0.0501538 0.3926062 0.9183382
vn -0.2329762 0.4007153 0.8860865
vn -0.2460601 0.4503911 0.8582554
vn 0.1435771 0.3570555 0.9229826
vn 0.5363163 0.3047824 0.7870657
vn 0.7322375 0.2581472 0.6302288
vn 0.8877889 0.1794787 0.4238141
vn 0.8973208 0.1953645 0.3957879
vn 0.9982987 0.04337829 0.03896102
vn 0.9694877 0.1254273 0.2106217
vn 0.9694877 0.1254273 0.2106217
vn 0.8973208 0.1953645 0.3957879
vn 0.8877889 0.1794787 0.4238141
vn 0.9098012 -0.1828 -0.3726204
vn 0.9982987 0.04337829 0.03896102
vn 0.9694877 0.1254273 0.2106217
vn 0.828933 -0.2668289 -0.4916018
vn 0.2794665 -0.2586291 -0.9246672
vn 0.828933 -0.2668289 -0.4916018
vn 0.8126013 -0.003808375 -0.5828075
vn -0.2826568 0.7824124 -0.5549198
vn -0.1236286 0.8713953 -0.4747486
vn -0.07724715 0.8784552 -0.4715394
vn 0.01832884 0.9007778 -0.4338932
vn 0.01747709 0.8927119 -0.4502887
vn 0.0243055 0.898632 -0.4380292
vn 0.08428434 0.9091447 -0.4078628
vn 0.1240157 0.9143944 -0.3853607
vn 0.1794325 0.916294 -0.3580632
vn 0.2045291 0.892099 -0.4028985
vn 0.2705639 0.8490027 -0.4538607
vn 0.2550854 0.7224555 -0.6426426
vn 0.2531338 0.6582204 -0.7089916
vn 0.4710712 0.3338093 -0.8164945
vn 0.2794665 -0.2586291 -0.9246672
vn 0.3957636 0.3460594 -0.850655
vn 0.3982013 -0.4280846 -0.8112826
vn 0.7837167 -0.2950653 -0.546557
vn 0.5544661 -0.3903303 -0.7349895
vn 0.8642547 -0.2412906 -0.4414098
vn 0.06408389 -0.4619631 -0.8845809
vn -0.1137793 -0.4580994 -0.8815891
vn -0.443459 -0.4098038 -0.797123
vn -0.5952514 -0.3653601 -0.715673
vn -0.8321245 -0.247834 -0.4961322
vn -0.9172056 -0.1747508 -0.358045
vn 0.983013 -0.09469272 -0.1572226
vn 0.9995135 0.005218307 0.0307484
vn 0.9215772 0.1767774 0.3456087
vn 0.845775 0.244723 0.4741048
vn -0.9978744 -0.01949555 -0.06218266
vn -0.9172056 -0.1747508 -0.358045
vn -0.8321245 -0.247834 -0.4961322
vn -0.993448 0.06268308 0.09556147
vn -0.89625 0.2141266 0.3884401
vn -0.8034644 0.2833887 0.52358
vn -0.5544192 0.3903635 0.7350072
vn -0.3981785 0.4280856 0.8112931
vn -0.1112602 0.4605057 0.8806564
vn 0.015875 0.462023 0.8867258
vn 0.3665143 0.4263334 0.8269867
vn 0.5780968 0.3765026 0.7239129
vn 0.845775 0.244723 0.4741048
vn 0.9215772 0.1767774 0.3456087
vn 0.01144914 0.8867149 -0.4621748
vn 0.01143956 0.8866877 -0.4622273
vn -0.3697494 0.9154176 -0.1590478
vn -0.1805723 0.9834347 -0.01580425
vn 0.01146761 0.8867033 -0.4621966
vn 0.002910836 0.9995884 0.02854168
vn 0.01654804 0.886587 -0.4622657
vn 0.2181048 0.975275 -0.03562283
vn 0.01081286 0.8889177 -0.4579393
vn 0.4145939 0.8718774 -0.2606563
vn 0.009307651 0.88777 -0.4601933
vn 0.4430065 0.7140691 -0.5420798
vn 0.0106382 0.8862379 -0.4631082
vn 0.3726167 0.6228855 -0.6878738
vn 0.01118504 0.8864835 -0.4626251
vn 0.198876 0.5791016 -0.790626
vn 0.01150308 0.8866752 -0.4622496
vn -0.04250857 0.5702237 -0.8203889
vn 0.01148937 0.8866691 -0.4622618
vn -0.2656515 0.6161793 -0.7414529
vn 0.01149408 0.8866827 -0.4622355
vn -0.4152013 0.7045854 -0.5754715
vn 0.01149952 0.8866789 -0.4622427
vn -0.4539539 0.8134139 -0.3637082
vn -0.9511385 0.2825144 -0.1245837
vn -0.8475689 0.04664727 -0.5286313
vn -0.988367 0.1295101 -0.07973611
vn -0.893086 -0.1933646 -0.4062115
vn -0.5314622 -0.1734365 -0.8291368
vn -0.8474733 0.4308237 0.3101292
vn -0.8054973 0.5100371 0.3017221
vn -0.4580487 0.6244591 0.6326472
vn -0.4435693 0.6658134 0.599949
vn -0.006841202 0.6464726 0.7629065
vn -0.03815341 0.7148614 0.6982246
vn 0.4145613 0.5396659 0.7327343
vn 0.3502678 0.7063518 0.6151257
vn 0.8363054 0.291427 0.464396
vn 0.8111429 0.5074699 0.2907262
vn 0.9517732 0.09674738 -0.291149
vn 0.8013868 0.1727166 0.5726675
vn 0.4154099 0.6712847 0.6138496
vn 0.01296211 0.8721578 0.489053
vn -0.362187 0.880239 0.306594
vn -0.7356697 0.6772338 -0.01201816
vn -0.8961549 0.3042201 -0.3230426
vn -0.8092961 -0.1210192 -0.5747991
vn 0.7233031 0.1857489 0.665079
vn 0.4373534 0.7577389 0.4843074
vn 0.1279312 0.9611545 0.2445728
vn -0.1960794 0.9803432 -0.02191298
vn -0.5345135 0.7694668 -0.3495943
vn -0.7195581 0.3574692 -0.5953586
vn -0.7051374 -0.1470335 -0.6936588
vn -0.5192392 0.3246214 -0.7905768
vn -0.5756271 -0.193608 -0.7944616
vn 0.002248577 0.9717733 -0.235906
vn -0.3084329 0.7518827 -0.582702
vn 0.2761971 0.9580373 0.07667965
vn 0.5117861 0.7700629 0.3808914
vn 0.6719739 0.2218979 0.7065497
vn -0.0729154 0.7354966 -0.6735935
vn -0.3361219 0.3190776 -0.8861216
vn 0.2241623 0.929975 -0.2913724
vn 0.4431655 0.894938 0.05186761
vn 0.6081355 0.7036995 0.3673938
vn 0.6466228 0.1982082 0.7366087
vn 0.01320629 0.7069107 -0.7071795
vn -0.2483461 0.2792299 -0.9275532
vn 0.2687117 0.9145876 -0.3021982
vn 0.4301488 0.8986616 0.08590248
vn 0.5464768 0.7007241 0.4586381
vn 0.6236931 0.2409894 0.7435933
vn 0.5925168 0.126395 0.7955803
vn 0.0614299 0.6125327 -0.7880547
vn -0.07458381 0.1693027 -0.982738
vn 0.1953141 0.9010993 -0.3871336
vn 0.3334998 0.9417346 0.04374953
vn 0.4807791 0.7443199 0.4635077
vn 0.5328413 0.5186024 0.6686789
vn 0.5277917 0.309545 0.7909601
vn 0.3733919 0.8584176 -0.3517069
vn 0.2974407 0.4856106 -0.8220167
vn 0.5835734 0.7765586 -0.2374843
vn 0.5092778 0.4027355 -0.7605526
vn 0.538307 0.7843525 0.3082478
vn 0.3506373 0.9266535 0.1355238
vn 0.4556366 0.5378264 0.7093223
vn 0.3946941 0.720367 0.5703402
vn 0.2867481 0.2340743 0.9289696
vn 0.4827213 0.4967054 0.7212933
vn 0.4285592 0.3853681 0.8172076
vn 0.5277917 0.309545 0.7909601
vn 0.8181931 0.5683705 -0.08668934
vn 0.7246985 0.1633241 -0.6694306
vn 0.569099 0.6635543 0.4856152
vn 0.4047597 0.4102563 0.8172267
vn 0.3985945 0.2475559 0.8830846
vn 0.2116014 0.09529836 0.9726989
vn 0.6443676 0.4509765 0.6175844
vn 0.9347367 0.3452875 0.08392799
vn 0.6418016 0.3773069 0.6676302
vn 0.9499905 0.2713989 0.1544689
vn 0.3153569 0.3133184 0.8957576
vn 0.3440117 0.3579215 0.8680716
vn 0.2676356 0.2212696 0.9377692
vn 0.3209686 0.2380115 0.916695
vn 0.6179308 0.311044 0.7220894
vn 0.9340951 -0.04115488 0.3546442
vn 0.2293833 0.38401 0.8943822
vn 0.1597888 0.4587997 0.8740541
vn 0.5456119 0.1058316 0.8313286
vn 0.03593453 0.3406837 0.939491
vn 0.4081329 0.008289328 0.9128849
vn -0.3023748 0.5295841 0.792534
vn -0.2973656 0.5239223 0.7981724
vn -0.2038095 0.3562396 0.9118964
vn 0.1688908 0.3675922 0.9145228
vn 0.3940294 -0.03584919 0.9183984
vn 0.3494256 0.2999552 0.8876534
vn 0.4145301 -0.1153113 0.9027004
vn 0.1832628 0.7985095 0.5734084
vn -0.1344969 0.7989705 0.5861373
vn -0.3276871 0.6669828 0.669145
vn -0.03573354 0.3120605 0.94939
vn -0.1600376 0.4389678 0.8841352
vn -0.8475689 0.04664727 -0.5286313
vn -0.5314622 -0.1734365 -0.8291368
vn -0.893086 -0.1933646 -0.4062115
vn -0.5459688 -0.4867057 -0.6819353
vn -0.03338833 -0.2920538 -0.9558189
vn -0.04250857 0.5702237 -0.8203889
vn -0.2656515 0.6161793 -0.7414529
vn -0.02761065 -0.6270314 -0.7785045
vn 0.4663812 -0.2535352 -0.8474719
vn 0.4664082 -0.5888559 -0.6600849
vn 0.763858 -0.1354819 -0.6310036
vn 0.7599992 -0.4643173 -0.4547644
vn 0.9517732 0.09674738 -0.291149
vn 0.9815238 -0.1719997 -0.0838273
vn 0.8111429 0.5074699 0.2907262
vn 0.8363054 0.291427 0.464396
vn 0.4430065 0.7140691 -0.5420798
vn 0.3726167 0.6228855 -0.6878738
vn 0.198876 0.5791016 -0.790626
vn 0.8950294 -0.3952583 0.2066237
vn 0.8013868 0.1727166 0.5726675
vn -0.05402785 -0.7538127 -0.6548644
vn -0.4901491 -0.5054969 -0.7100893
vn -0.8092961 -0.1210192 -0.5747991
vn 0.6938148 -0.7022213 -0.1597074
vn 0.4497561 -0.8457772 0.2870198
vn 0.2016233 -0.9792966 0.01806189
vn 0.4077719 -0.809813 -0.4218113
vn -0.1681917 -0.9221595 -0.3483295
vn -0.5015568 -0.614692 -0.6087647
vn -0.7051374 -0.1470335 -0.6936588
vn -0.5756271 -0.193608 -0.7944616
vn 0.04290913 -0.9787169 0.2006789
vn 0.2730632 -0.8297036 0.4868557
vn 0.6705334 -0.5214223 0.5277345
vn 0.7233031 0.1857489 0.665079
vn 0.5151739 -0.4909324 0.7025534
vn 0.6719739 0.2218979 0.7065497
vn -0.2426777 -0.9445059 -0.2213959
vn -0.4707057 -0.6588872 -0.5867741
vn -0.2169289 -0.9337721 0.2846252
vn 0.02170275 -0.8041127 0.5940806
vn -0.4288702 -0.886146 -0.1755435
vn -0.5211966 -0.6260451 -0.5800186
vn -0.4953717 -0.1878142 -0.8481348
vn 0.3399198 -0.4791209 0.8092575
vn 0.6466228 0.1982082 0.7366087
vn 0.3698923 -0.4162914 0.8305908
vn 0.5925168 0.126395 0.7955803
vn -0.07629063 -0.7845598 0.6153418
vn -0.3193845 -0.9074239 0.2730851
vn -0.5000383 -0.8469834 -0.180502
vn -0.5521874 -0.5854337 -0.5935962
vn -0.4468502 -0.1638487 -0.8794763
vn -0.2483461 0.2792299 -0.9275532
vn -0.3361219 0.3190776 -0.8861216
vn -0.5192392 0.3246214 -0.7905768
vn -0.5813074 -0.7741383 0.2505825
vn -0.2208939 -0.6369538 0.7385768
vn -0.636714 -0.7350598 -0.232986
vn -0.4985024 -0.5654091 -0.657121
vn -0.4874422 -0.669139 -0.5609394
vn -0.2274748 -0.2548444 -0.9398455
vn -0.07458381 0.1693027 -0.982738
vn -0.06184546 -0.1714386 -0.9832517
vn 0.1327446 0.04839281 -0.9899682
vn 0.2424558 -0.01563666 -0.9700364
vn 0.08072376 -0.1183993 -0.9896795
vn -0.1235142 -0.1742426 -0.9769257
vn 0.5092778 0.4027355 -0.7605526
vn 0.2974407 0.4856106 -0.8220167
vn 0.0614299 0.6125327 -0.7880547
vn 0.08567826 -0.1808594 -0.9797699
vn 0.3444716 -0.1286277 -0.9299431
vn 0.7246985 0.1633241 -0.6694306
vn 0.3918398 -0.1243794 -0.9115872
vn 0.08807643 -0.1475012 -0.9851325
vn -0.4666014 -0.4683701 -0.7502751
vn -0.3821406 -0.3512174 -0.8547601
vn -0.3669405 -0.4334784 -0.8230742
vn 0.1022395 -0.488452 -0.8665804
vn -0.3358282 -0.6007873 -0.7254475
vn -0.7776453 -0.460988 -0.427502
vn -0.6846834 -0.7098597 0.1652509
vn -0.5644748 -0.437364 -0.7000578
vn -0.4985024 -0.5654091 -0.657121
vn 0.4418368 -0.3293436 -0.8344537
vn 0.8673248 -0.06259419 -0.493791
vn 0.8039455 0.06793004 -0.5908105
vn 0.03499009 -0.7909661 -0.6108587
vn -0.4918918 -0.5908681 -0.6394664
vn 0.08710907 -0.7429593 -0.6636441
vn -0.3736987 -0.5947787 -0.7117497
vn 0.3187422 -0.5835896 -0.7468778
vn -0.1350457 -0.4001857 -0.9064293
vn -0.8810413 -0.1018765 -0.4619386
vn -0.4956062 -0.3355045 -0.8011312
vn 0.4630897 -0.6968626 -0.5476591
vn 0.1986828 -0.8099535 -0.5518156
vn 0.6239908 -0.7813691 -0.009890401
vn 0.3286674 -0.7153233 -0.6166769
vn 0.3231928 -0.7878882 -0.5241933
vn 0.3945822 -0.8028713 -0.4468809
vn 0.4927292 -0.5862988 -0.6430176
vn 0.3374737 -0.8425708 -0.419745
vn 0.2383109 -0.6825863 -0.6908574
vn 0.5856363 -0.795191 -0.1571668
vn 0.8215836 -0.1504239 -0.5498845
vn 0.6883265 -0.4872184 -0.5374242
vn -0.9075839 -0.2738831 -0.3182446
vn -0.6846834 -0.7098597 0.1652509
vn -0.9508826 -0.2375513 0.1984732
vn -0.502765 -0.666435 0.5505376
vn -0.9316712 -0.001917736 0.3632978
vn 0.1321852 -0.3535337 0.926035
vn 0.5483901 0.03894503 0.8353152
vn 0.3192162 0.1074694 0.9415685
vn 0.1321852 -0.3535337 0.926035
vn 0.193883 -0.453891 0.8697082
vn -0.2115031 -0.177591 0.9611076
vn 0.1321852 -0.3535337 0.926035
vn -0.3044184 -0.2461284 0.9201903
vn -0.0905954 0.006585784 0.9958661
vn -0.03633841 -0.3386446 0.9402124
vn -0.06184546 -0.1714386 -0.9832517
vn -0.5002508 -0.4974428 -0.7087312
vn -0.3821406 -0.3512174 -0.8547601
vn 0.1321852 -0.3535337 0.926035
vn -0.1839837 -0.1528673 0.9709694
vn -0.3327371 -0.1447894 0.931838
vn -0.6757333 0.1073835 0.7292828
vn -0.4071268 -0.2492573 0.8787028
vn -0.7289318 -0.07057799 0.6809385
vn -0.5731579 0.03281041 0.8187878
vn -0.7289318 -0.07057799 0.6809385
vn -0.6551758 -0.1671761 0.7367474
vn -0.5544459 0.3670233 0.7469161
vn 0.3510333 -0.147322 0.924701
vn 0.1428783 -0.1580039 0.9770469
vn -0.1937079 0.4402896 0.8767111
vn 0.9499905 0.2713989 0.1544689
vn 0.9032209 0.0324475 -0.4279475
vn 0.9347367 0.3452875 0.08392799
vn 0.8181931 0.5683705 -0.08668934
vn 0.8673248 -0.06259419 -0.493791
vn 0.9340951 -0.04115488 0.3546442
vn 0.9313304 -0.3608423 -0.04916012
vn 0.6268147 -0.3934968 0.6725054
vn 0.7455269 -0.5433137 0.3860051
vn 0.6854678 -0.7227705 0.08795919
vn 0.7602523 -0.3005422 0.575926
vn 0.4081329 0.008289328 0.9128849
vn 0.5456119 0.1058316 0.8313286
vn 0.9340951 -0.04115488 0.3546442
vn 0.9029487 -0.4296216 -0.01043138
vn 0.7424784 -0.649184 0.1651843
vn 0.6179308 0.311044 0.7220894
vn 0.5447075 -0.4663132 0.6970263
vn 0.5459369 -0.8279725 0.1281185
vn 0.3940294 -0.03584919 0.9183984
vn 0.4145301 -0.1153113 0.9027004
vn 0.3922379 -0.5770398 0.7163621
vn 0.4064443 -0.8163374 0.4103612
vn 0.148927 -0.9816405 0.1191746
vn -0.8095889 0.4148782 0.4152611
vn -0.4062375 0.5803484 0.7058094
vn -0.548939 0.5215526 0.6531836
vn 0.7418952 -0.5895199 -0.3194652
vn 0.3286674 -0.7153233 -0.6166769
vn 0.5168508 -0.7744291 -0.3648628
vn -0.2973656 0.5239223 0.7981724
vn -0.8095889 0.4148782 0.4152611
vn -0.427742 0.4611916 0.7773924
vn -0.5574691 0.4952158 0.6663253
vn -0.6965585 0.5311552 0.4823695
vn -0.9045873 0.2824457 0.3192901
vn -0.7947255 0.2224094 0.5647525
vn -0.9367741 0.3030998 -0.1748848
vn -0.9257855 0.2674418 0.2672004
vn -0.8095889 0.4148782 0.4152611
vn -0.7611868 0.4613947 0.4557515
vn -0.8946161 0.4043863 0.1900889
vn -0.5765372 0.3895037 0.7182561
vn -0.6767938 0.7350444 -0.0407402
vn -0.6751049 0.7351508 0.06153598
vn 0.04039541 0.1381035 0.9895936
vn 0.1938526 0.2530193 0.9478409
vn -0.6965585 0.5311552 0.4823695
vn -0.7524855 0.3788216 0.5387575
vn -0.728651 0.468632 0.4994516
vn -0.7444816 0.2151933 0.6320119
vn -0.8766717 0.3052687 0.3718302
vn -0.987709 0.1561679 -0.006505947
vn -0.904995 0.1544096 0.396411
vn -0.9045873 0.2824457 0.3192901
vn -0.7316738 0.5028079 -0.4602582
vn -0.6827244 0.1859717 -0.7066129
vn -0.9508826 -0.2375513 0.1984732
vn -0.9571835 -0.1419845 -0.25227
vn -0.8196364 0.3781854 -0.4303161
vn -0.9075839 -0.2738831 -0.3182446
vn -0.8810413 -0.1018765 -0.4619386
vn -0.7776453 -0.460988 -0.427502
vn -0.9016973 -0.4321926 0.01231774
vn -0.6367849 0.5358 -0.5544578
vn -0.4157135 0.8733972 -0.2536919
vn -0.3232424 0.7736572 -0.5449484
vn -0.1599406 0.9591002 -0.2335503
vn -0.4902351 0.2843728 -0.8238942
vn -0.6827244 0.1859717 -0.7066129
vn -0.343594 0.9346327 -0.0916784
vn -0.08117189 0.9965627 -0.01655481
vn -0.06941858 0.8947818 0.4410743
vn 0.1832628 0.7985095 0.5734084
vn -0.1091222 0.9863901 -0.1229914
vn 0.05097406 0.9637032 0.2620644
vn -0.5130157 -0.2141957 -0.831225
vn -0.5703641 0.1563955 -0.8063655
vn -0.4902351 0.2843728 -0.8238942
vn -0.4558865 -0.2425284 -0.856357
vn -0.7558419 -0.1694378 -0.6324507
vn -0.31233 -0.3733072 -0.8735512
vn -0.3447259 -0.697264 -0.62848
vn -0.3077069 -0.2878228 -0.9069038
vn -0.5130157 -0.2141957 -0.831225
vn 0.01456223 -0.7088156 -0.7052435
vn -0.1270897 -0.9256163 -0.3564866
vn 0.1351723 -0.6967977 -0.7044156
vn -0.3447259 -0.697264 -0.62848
vn 0.3374737 -0.8425708 -0.419745
vn 0.148927 -0.9816405 0.1191746
vn 0.5459369 -0.8279725 0.1281185
vn -0.548939 0.5215526 0.6531836
vn 0.03593453 0.3406837 0.939491
vn -0.3827404 0.5168877 0.7657263
vn 0.0679974 -0.3852063 -0.920322
vn 0.1351723 -0.6967977 -0.7044156
vn 0.1351723 -0.6967977 -0.7044156
vn 0.240508 -0.4936631 -0.8357348
vn -0.09963857 -0.5937368 -0.7984666
g Pump_TopTubes_0
f 3/3/3 2/2/2 1/1/1
f 4/4/4 2/2/2 3/3/3
f 7/7/7 6/6/6 5/5/5
f 5/5/5 6/6/6 8/8/8
f 5/5/5 8/8/8 9/9/9
f 9/9/9 8/8/8 10/10/10
f 9/9/9 10/10/10 11/11/11
f 11/11/11 10/10/10 12/12/12
f 13/13/13 7/7/7 5/5/5
f 13/13/13 5/5/5 14/14/14
f 14/14/14 5/5/5 9/9/9
f 14/14/14 9/9/9 15/15/15
f 15/15/15 9/9/9 11/11/11
f 16/16/16 13/13/13 14/14/14
f 17/17/17 13/13/13 16/16/16
f 17/17/17 18/18/18 13/13/13
f 18/18/18 19/19/19 13/13/13
f 20/20/20 18/18/18 17/17/17
f 20/20/20 21/21/21 18/18/18
f 22/22/22 21/21/21 20/20/20
f 23/23/23 14/14/14 15/15/15
f 16/16/16 14/14/14 23/23/23
f 24/24/24 17/17/17 16/16/16
f 25/25/25 17/17/17 24/24/24
f 25/25/25 20/20/20 17/17/17
f 26/26/26 16/16/16 23/23/23
f 24/24/24 16/16/16 26/26/26
f 27/27/27 25/25/25 24/24/24
f 28/28/28 25/25/25 27/27/27
f 28/28/28 29/29/29 25/25/25
f 29/29/29 20/20/20 25/25/25
f 29/29/29 30/30/30 20/20/20
f 31/31/31 29/29/29 28/28/28
f 31/31/31 32/32/32 29/29/29
f 32/32/32 33/33/33 29/29/29
f 32/32/32 34/34/34 33/33/33
f 34/34/34 35/35/35 33/33/33
f 36/36/36 34/34/34 32/32/32
f 37/37/37 32/32/32 31/31/31
f 37/37/37 36/36/36 32/32/32
f 38/38/38 36/36/36 37/37/37
f 38/38/38 39/39/39 36/36/36
f 40/40/40 39/39/39 38/38/38
f 35/35/35 42/42/42 41/41/41
f 42/42/42 44/44/44 43/43/43
f 43/43/43 44/44/44 45/45/45
f 46/46/46 42/42/42 43/43/43
f 48/48/48 35/35/35 47/47/47
f 51/51/51 50/50/50 49/49/49
f 49/49/49 50/50/50 52/52/52
f 49/49/49 52/52/52 53/53/53
f 53/53/53 52/52/52 54/54/54
f 53/53/53 54/54/54 55/55/55
f 55/55/55 54/54/54 56/56/56
f 55/55/55 56/56/56 57/57/57
f 57/57/57 56/56/56 58/58/58
f 57/57/57 58/58/58 59/59/59
f 59/59/59 58/58/58 60/60/60
f 59/59/59 60/60/60 61/61/61
f 61/61/61 60/60/60 62/62/62
f 61/61/61 62/62/62 63/63/63
f 63/63/63 62/62/62 64/64/64
f 65/65/65 49/49/49 53/53/53
f 66/66/66 53/53/53 55/55/55
f 65/65/65 53/53/53 66/66/66
f 67/67/67 55/55/55 57/57/57
f 66/66/66 55/55/55 67/67/67
f 68/68/68 57/57/57 59/59/59
f 67/67/67 57/57/57 68/68/68
f 69/69/69 59/59/59 61/61/61
f 68/68/68 59/59/59 69/69/69
f 70/70/70 61/61/61 63/63/63
f 69/69/69 61/61/61 70/70/70
f 71/71/71 65/65/65 66/66/66
f 72/72/72 65/65/65 71/71/71
f 72/72/72 73/73/73 65/65/65
f 73/73/73 49/49/49 65/65/65
f 73/73/73 51/51/51 49/49/49
f 74/74/74 51/51/51 73/73/73
f 75/75/75 74/74/74 73/73/73
f 75/75/75 73/73/73 72/72/72
f 76/76/76 74/74/74 75/75/75
f 71/71/71 66/66/66 77/77/77
f 77/77/77 66/66/66 67/67/67
f 77/77/77 67/67/67 78/78/78
f 78/78/78 67/67/67 68/68/68
f 78/78/78 68/68/68 79/79/79
f 79/79/79 68/68/68 69/69/69
f 79/79/79 69/69/69 80/80/80
f 80/80/80 69/69/69 70/70/70
f 81/81/81 75/75/75 72/72/72
f 82/82/82 72/72/72 71/71/71
f 81/81/81 72/72/72 82/82/82
f 83/83/83 77/77/77 78/78/78
f 84/84/84 77/77/77 83/83/83
f 82/82/82 71/71/71 84/84/84
f 84/84/84 71/71/71 77/77/77
f 85/85/85 79/79/79 80/80/80
f 86/86/86 79/79/79 85/85/85
f 83/83/83 78/78/78 86/86/86
f 86/86/86 78/78/78 79/79/79
f 87/87/87 83/83/83 86/86/86
f 88/88/88 83/83/83 87/87/87
f 88/88/88 84/84/84 83/83/83
f 89/89/89 84/84/84 88/88/88
f 89/89/89 82/82/82 84/84/84
f 90/90/90 82/82/82 89/89/89
f 90/90/90 81/81/81 82/82/82
f 91/91/91 81/81/81 90/90/90
f 91/91/91 92/92/92 81/81/81
f 92/92/92 75/75/75 81/81/81
f 92/92/92 76/76/76 75/75/75
f 93/93/93 76/76/76 92/92/92
f 94/94/94 93/93/93 92/92/92
f 94/94/94 92/92/92 91/91/91
f 95/95/95 93/93/93 94/94/94
f 98/98/98 97/97/97 96/96/96
f 96/96/96 97/97/97 99/99/99
f 100/100/100 24/24/24 26/26/26
f 27/27/27 24/24/24 100/100/100
f 103/103/103 102/102/102 101/101/101
f 104/104/104 102/102/102 103/103/103
f 103/103/103 101/101/101 105/105/105
f 105/105/105 101/101/101 106/106/106
f 105/105/105 106/106/106 107/107/107
f 107/107/107 106/106/106 108/108/108
f 107/107/107 108/108/108 109/109/109
f 109/109/109 108/108/108 110/110/110
f 113/113/113 112/112/112 111/111/111
f 111/111/111 112/112/112 114/114/114
f 111/111/111 114/114/114 115/115/115
f 115/115/115 114/114/114 116/116/116
f 115/115/115 116/116/116 117/117/117
f 117/117/117 116/116/116 118/118/118
f 117/117/117 118/118/118 119/119/119
f 119/119/119 118/118/118 120/120/120
f 119/119/119 120/120/120 121/121/121
f 121/121/121 120/120/120 122/122/122
f 121/121/121 122/122/122 123/123/123
f 123/123/123 122/122/122 124/124/124
f 127/127/127 126/126/126 125/125/125
f 125/125/125 126/126/126 128/128/128
f 125/125/125 128/128/128 129/129/129
f 129/129/129 128/128/128 130/130/130
f 133/133/133 132/132/132 131/131/131
f 133/133/133 131/131/131 134/134/134
f 134/134/134 131/131/131 135/135/135
f 134/134/134 135/135/135 136/136/136
f 136/136/136 135/135/135 137/137/137
f 136/136/136 137/137/137 138/138/138
f 138/138/138 137/137/137 139/139/139
f 138/138/138 139/139/139 140/140/140
f 140/140/140 139/139/139 141/141/141
f 140/140/140 141/141/141 142/142/142
f 142/142/142 141/141/141 143/143/143
f 142/142/142 143/143/143 144/144/144
f 144/144/144 143/143/143 145/145/145
f 144/144/144 145/145/145 146/146/146
f 146/146/146 145/145/145 147/147/147
f 146/146/146 147/147/147 148/148/148
f 148/148/148 147/147/147 149/149/149
f 148/148/148 149/149/149 150/150/150
f 150/150/150 149/149/149 151/151/151
f 150/150/150 151/151/151 152/152/152
f 152/152/152 151/151/151 153/153/153
f 152/152/152 153/153/153 154/154/154
f 154/154/154 153/153/153 132/132/132
f 154/154/154 132/132/132 133/133/133
f 157/157/157 156/156/156 155/155/155
f 160/160/160 159/159/159 158/158/158
f 158/158/158 159/159/159 161/161/161
f 158/158/158 161/161/161 162/162/162
f 162/162/162 161/161/161 163/163/163
f 162/162/162 163/163/163 164/164/164
f 164/164/164 163/163/163 165/165/165
f 167/167/167 165/165/165 166/166/166
f 170/170/170 169/169/169 168/168/168
f 173/173/173 172/172/172 171/171/171
f 171/171/171 172/172/172 174/174/174
f 177/177/177 176/176/176 175/175/175
f 180/180/180 179/179/179 178/178/178
f 180/180/180 181/181/181 179/179/179
f 182/182/182 181/181/181 180/180/180
f 182/182/182 183/183/183 181/181/181
f 184/184/184 183/183/183 182/182/182
f 184/184/184 185/185/185 183/183/183
f 186/186/186 185/185/185 184/184/184
f 186/186/186 187/187/187 185/185/185
f 188/188/188 187/187/187 186/186/186
f 188/188/188 189/189/189 187/187/187
f 190/190/190 189/189/189 188/188/188
f 193/193/193 192/192/192 191/191/191
f 196/196/196 195/195/195 194/194/194
f 197/197/197 195/195/195 196/196/196
f 196/196/196 194/194/194 198/198/198
f 198/198/198 194/194/194 199/199/199
f 198/198/198 199/199/199 200/200/200
f 200/200/200 199/199/199 201/201/201
f 200/200/200 201/201/201 202/202/202
f 202/202/202 201/201/201 203/203/203
f 197/197/197 204/204/204 195/195/195
f 205/205/205 204/204/204 197/197/197
f 205/205/205 206/206/206 204/204/204
f 207/207/207 206/206/206 205/205/205
f 210/210/210 209/209/209 208/208/208
f 208/208/208 209/209/209 211/211/211
f 208/208/208 211/211/211 212/212/212
f 212/212/212 211/211/211 213/213/213
f 212/212/212 213/213/213 214/214/214
f 214/214/214 213/213/213 215/215/215
f 214/214/214 215/215/215 216/216/216
f 216/216/216 215/215/215 217/217/217
f 216/216/216 217/217/217 218/218/218
f 218/218/218 217/217/217 219/219/219
f 218/218/218 219/219/219 220/220/220
f 220/220/220 219/219/219 221/221/221
f 224/224/224 223/223/223 222/222/222
f 224/224/224 222/222/222 225/225/225
f 225/225/225 222/222/222 226/226/226
f 225/225/225 226/226/226 227/227/227
f 227/227/227 226/226/226 228/228/228
f 227/227/227 228/228/228 229/229/229
f 229/229/229 228/228/228 230/230/230
f 229/229/229 230/230/230 231/231/231
f 231/231/231 230/230/230 232/232/232
f 231/231/231 232/232/232 233/233/233
f 233/233/233 232/232/232 234/234/234
f 233/233/233 234/234/234 235/235/235
f 235/235/235 234/234/234 236/236/236
f 235/235/235 236/236/236 237/237/237
f 237/237/237 236/236/236 238/238/238
f 237/237/237 238/238/238 239/239/239
f 239/239/239 238/238/238 240/240/240
f 239/239/239 240/240/240 241/241/241
f 241/241/241 240/240/240 242/242/242
f 241/241/241 242/242/242 243/243/243
f 243/243/243 242/242/242 244/244/244
f 243/243/243 244/244/244 245/245/245
f 245/245/245 244/244/244 223/223/223
f 245/245/245 223/223/223 224/224/224
f 246/246/246 243/243/243 245/245/245
f 247/247/247 243/243/243 246/246/246
f 247/247/247 241/241/241 243/243/243
f 248/248/248 247/247/247 246/246/246
f 249/249/249 247/247/247 248/248/248
f 250/250/250 241/241/241 247/247/247
f 248/248/248 246/246/246 251/251/251
f 251/251/251 246/246/246 252/252/252
f 252/252/252 245/245/245 224/224/224
f 246/246/246 245/245/245 252/252/252
f 251/251/251 252/252/252 253/253/253
f 253/253/253 252/252/252 254/254/254
f 252/252/252 224/224/224 254/254/254
f 253/253/253 254/254/254 255/255/255
f 255/255/255 254/254/254 256/256/256
f 255/255/255 256/256/256 257/257/257
f 257/257/257 256/256/256 258/258/258
f 257/257/257 258/258/258 259/259/259
f 259/259/259 258/258/258 260/260/260
f 254/254/254 224/224/224 225/225/225
f 254/254/254 225/225/225 256/256/256
f 256/256/256 225/225/225 227/227/227
f 256/256/256 227/227/227 258/258/258
f 258/258/258 227/227/227 229/229/229
f 258/258/258 229/229/229 260/260/260
f 260/260/260 229/229/229 231/231/231
f 260/260/260 231/231/231 261/261/261
f 261/261/261 231/231/231 233/233/233
f 262/262/262 257/257/257 259/259/259
f 263/263/263 257/257/257 262/262/262
f 263/263/263 255/255/255 257/257/257
f 264/264/264 255/255/255 263/263/263
f 264/264/264 253/253/253 255/255/255
f 265/265/265 253/253/253 264/264/264
f 265/265/265 251/251/251 253/253/253
f 266/266/266 251/251/251 265/265/265
f 266/266/266 248/248/248 251/251/251
f 267/267/267 248/248/248 266/266/266
f 267/267/267 249/249/249 248/248/248
f 268/268/268 249/249/249 267/267/267
f 269/269/269 263/263/263 262/262/262
f 270/270/270 263/263/263 269/269/269
f 270/270/270 264/264/264 263/263/263
f 271/271/271 264/264/264 270/270/270
f 271/271/271 265/265/265 264/264/264
f 272/272/272 265/265/265 271/271/271
f 272/272/272 266/266/266 265/265/265
f 273/273/273 266/266/266 272/272/272
f 273/273/273 267/267/267 266/266/266
f 274/274/274 267/267/267 273/273/273
f 274/274/274 268/268/268 267/267/267
f 275/275/275 268/268/268 274/274/274
f 276/276/276 275/275/275 274/274/274
f 277/277/277 275/275/275 276/276/276
f 278/278/278 273/273/273 272/272/272
f 279/279/279 273/273/273 278/278/278
f 279/279/279 274/274/274 273/273/273
f 276/276/276 274/274/274 279/279/279
f 280/280/280 272/272/272 271/271/271
f 278/278/278 272/272/272 280/280/280
f 281/281/281 271/271/271 270/270/270
f 280/280/280 271/271/271 281/281/281
f 281/281/281 270/270/270 282/282/282
f 282/282/282 270/270/270 269/269/269
f 283/283/283 276/276/276 279/279/279
f 284/284/284 276/276/276 283/283/283
f 283/283/283 279/279/279 285/285/285
f 285/285/285 279/279/279 278/278/278
f 285/285/285 278/278/278 286/286/286
f 286/286/286 278/278/278 280/280/280
f 286/286/286 280/280/280 287/287/287
f 287/287/287 280/280/280 281/281/281
f 287/287/287 281/281/281 288/288/288
f 288/288/288 281/281/281 282/282/282
f 289/289/289 284/284/284 283/283/283
f 290/290/290 284/284/284 289/289/289
f 291/291/291 283/283/283 285/285/285
f 289/289/289 283/283/283 291/291/291
f 292/292/292 285/285/285 286/286/286
f 291/291/291 285/285/285 292/292/292
f 293/293/293 286/286/286 287/287/287
f 292/292/292 286/286/286 293/293/293
f 294/294/294 287/287/287 288/288/288
f 293/293/293 287/287/287 295/295/295
f 296/296/296 290/290/290 289/289/289
f 297/297/297 290/290/290 296/296/296
f 296/296/296 289/289/289 298/298/298
f 298/298/298 289/289/289 291/291/291
f 298/298/298 291/291/291 299/299/299
f 299/299/299 291/291/291 292/292/292
f 299/299/299 292/292/292 300/300/300
f 300/300/300 292/292/292 293/293/293
f 300/300/300 293/293/293 301/301/301
f 302/302/302 293/293/293 295/295/295
f 303/303/303 296/296/296 298/298/298
f 304/304/304 296/296/296 303/303/303
f 305/305/305 304/304/304 303/303/303
f 306/306/306 304/304/304 305/305/305
f 305/305/305 303/303/303 307/307/307
f 307/307/307 303/303/303 308/308/308
f 303/303/303 298/298/298 308/308/308
f 308/308/308 298/298/298 299/299/299
f 307/307/307 308/308/308 309/309/309
f 309/309/309 308/308/308 310/310/310
f 308/308/308 299/299/299 310/310/310
f 310/310/310 299/299/299 300/300/300
f 309/309/309 310/310/310 311/311/311
f 310/310/310 300/300/300 312/312/312
f 313/313/313 310/310/310 312/312/312
f 312/312/312 300/300/300 314/314/314
f 315/315/315 306/306/306 305/305/305
f 316/316/316 306/306/306 315/315/315
f 315/315/315 305/305/305 317/317/317
f 317/317/317 305/305/305 307/307/307
f 317/317/317 307/307/307 318/318/318
f 318/318/318 307/307/307 309/309/309
f 318/318/318 309/309/309 319/319/319
f 319/319/319 309/309/309 320/320/320
f 321/321/321 315/315/315 317/317/317
f 322/322/322 315/315/315 321/321/321
f 323/323/323 322/322/322 321/321/321
f 324/324/324 322/322/322 323/323/323
f 323/323/323 321/321/321 325/325/325
f 325/325/325 321/321/321 326/326/326
f 321/321/321 317/317/317 326/326/326
f 326/326/326 317/317/317 318/318/318
f 325/325/325 326/326/326 327/327/327
f 327/327/327 326/326/326 328/328/328
f 326/326/326 318/318/318 328/328/328
f 328/328/328 318/318/318 319/319/319
f 329/329/329 324/324/324 323/323/323
f 330/330/330 324/324/324 329/329/329
f 329/329/329 323/323/323 331/331/331
f 331/331/331 323/323/323 325/325/325
f 332/332/332 329/329/329 331/331/331
f 333/333/333 329/329/329 332/332/332
f 334/334/334 333/333/333 332/332/332
f 335/335/335 333/333/333 334/334/334
f 334/334/334 332/332/332 336/336/336
f 336/336/336 332/332/332 337/337/337
f 332/332/332 331/331/331 337/337/337
f 331/331/331 325/325/325 338/338/338
f 339/339/339 335/335/335 334/334/334
f 340/340/340 335/335/335 339/339/339
f 341/341/341 340/340/340 339/339/339
f 342/342/342 340/340/340 341/341/341
f 341/341/341 339/339/339 343/343/343
f 343/343/343 339/339/339 344/344/344
f 339/339/339 334/334/334 345/345/345
f 347/347/347 331/331/331 346/346/346
f 350/350/350 349/349/349 348/348/348
f 351/351/351 349/349/349 350/350/350
f 351/351/351 352/352/352 349/349/349
f 352/352/352 353/353/353 349/349/349
f 349/349/349 353/353/353 354/354/354
f 355/355/355 352/352/352 351/351/351
f 355/355/355 356/356/356 352/352/352
f 357/357/357 356/356/356 355/355/355
f 357/357/357 358/358/358 356/356/356
f 359/359/359 358/358/358 357/357/357
f 359/359/359 360/360/360 358/358/358
f 361/361/361 360/360/360 359/359/359
f 361/361/361 362/362/362 360/360/360
f 363/363/363 362/362/362 361/361/361
f 360/360/360 364/364/364 358/358/358
f 358/358/358 364/364/364 365/365/365
f 358/358/358 365/365/365 356/356/356
f 356/356/356 365/365/365 366/366/366
f 356/356/356 366/366/366 352/352/352
f 352/352/352 366/366/366 353/353/353
f 367/367/367 363/363/363 361/361/361
f 368/368/368 363/363/363 367/367/367
f 369/369/369 357/357/357 355/355/355
f 369/369/369 355/355/355 370/370/370
f 370/370/370 355/355/355 351/351/351
f 370/370/370 351/351/351 371/371/371
f 371/371/371 351/351/351 350/350/350
f 372/372/372 361/361/361 359/359/359
f 367/367/367 361/361/361 372/372/372
f 373/373/373 367/367/367 372/372/372
f 373/373/373 372/372/372 374/374/374
f 374/374/374 372/372/372 375/375/375
f 375/375/375 357/357/357 369/369/369
f 375/375/375 359/359/359 357/357/357
f 372/372/372 359/359/359 375/375/375
f 376/376/376 375/375/375 369/369/369
f 374/374/374 375/375/375 376/376/376
f 377/377/377 369/369/369 370/370/370
f 376/376/376 369/369/369 377/377/377
f 378/378/378 370/370/370 371/371/371
f 377/377/377 370/370/370 378/378/378
f 379/379/379 377/377/377 378/378/378
f 380/380/380 373/373/373 374/374/374
f 381/381/381 373/373/373 380/380/380
f 381/381/381 382/382/382 373/373/373
f 382/382/382 367/367/367 373/373/373
f 382/382/382 368/368/368 367/367/367
f 383/383/383 368/368/368 382/382/382
f 384/384/384 383/383/383 382/382/382
f 384/384/384 382/382/382 381/381/381
f 385/385/385 383/383/383 384/384/384
f 380/380/380 374/374/374 386/386/386
f 386/386/386 374/374/374 376/376/376
f 386/386/386 376/376/376 387/387/387
f 387/387/387 376/376/376 377/377/377
f 387/387/387 377/377/377 379/379/379
f 388/388/388 381/381/381 380/380/380
f 389/389/389 381/381/381 388/388/388
f 389/389/389 384/384/384 381/381/381
f 390/390/390 380/380/380 386/386/386
f 388/388/388 380/380/380 390/390/390
f 391/391/391 386/386/386 387/387/387
f 390/390/390 386/386/386 391/391/391
f 392/392/392 387/387/387 379/379/379
f 391/391/391 387/387/387 392/392/392
f 393/393/393 385/385/385 384/384/384
f 393/393/393 384/384/384 389/389/389
f 394/394/394 385/385/385 393/393/393
f 395/395/395 394/394/394 393/393/393
f 396/396/396 394/394/394 395/395/395
f 397/397/397 393/393/393 389/389/389
f 395/395/395 393/393/393 397/397/397
f 397/397/397 389/389/389 398/398/398
f 398/398/398 389/389/389 388/388/388
f 398/398/398 388/388/388 399/399/399
f 399/399/399 388/388/388 390/390/390
f 399/399/399 390/390/390 400/400/400
f 400/400/400 390/390/390 391/391/391
f 400/400/400 391/391/391 401/401/401
f 401/401/401 391/391/391 392/392/392
f 401/401/401 392/392/392 402/402/402
f 402/402/402 392/392/392 403/403/403
f 392/392/392 379/379/379 403/403/403
f 403/403/403 379/379/379 404/404/404
f 405/405/405 397/397/397 398/398/398
f 406/406/406 397/397/397 405/405/405
f 406/406/406 395/395/395 397/397/397
f 407/407/407 398/398/398 399/399/399
f 405/405/405 398/398/398 407/407/407
f 408/408/408 399/399/399 400/400/400
f 407/407/407 399/399/399 409/409/409
f 410/410/410 400/400/400 401/401/401
f 408/408/408 400/400/400 410/410/410
f 411/411/411 401/401/401 402/402/402
f 410/410/410 401/401/401 411/411/411
f 412/412/412 408/408/408 410/410/410
f 413/413/413 410/410/410 411/411/411
f 412/412/412 410/410/410 413/413/413
f 414/414/414 412/412/412 413/413/413
f 415/415/415 412/412/412 414/414/414
f 415/415/415 416/416/416 412/412/412
f 414/414/414 413/413/413 417/417/417
f 417/417/417 413/413/413 418/418/418
f 413/413/413 411/411/411 418/418/418
f 418/418/418 411/411/411 419/419/419
f 420/420/420 416/416/416 415/415/415
f 420/420/420 415/415/415 421/421/421
f 421/421/421 415/415/415 414/414/414
f 421/421/421 414/414/414 422/422/422
f 422/422/422 414/414/414 417/417/417
f 423/423/423 420/420/420 421/421/421
f 424/424/424 420/420/420 423/423/423
f 424/424/424 425/425/425 420/420/420
f 425/425/425 426/426/426 420/420/420
f 427/427/427 425/425/425 424/424/424
f 428/428/428 427/427/427 424/424/424
f 429/429/429 427/427/427 428/428/428
f 429/429/429 430/430/430 427/427/427
f 427/427/427 430/430/430 425/425/425
f 430/430/430 407/407/407 425/425/425
f 430/430/430 431/431/431 407/407/407
f 425/425/425 407/407/407 432/432/432
f 432/432/432 407/407/407 433/433/433
f 428/428/428 424/424/424 434/434/434
f 434/434/434 424/424/424 423/423/423
f 434/434/434 423/423/423 435/435/435
f 435/435/435 423/423/423 436/436/436
f 437/437/437 429/429/429 428/428/428
f 438/438/438 429/429/429 437/437/437
f 438/438/438 430/430/430 429/429/429
f 439/439/439 438/438/438 437/437/437
f 440/440/440 438/438/438 439/439/439
f 441/441/441 440/440/440 439/439/439
f 442/442/442 440/440/440 441/441/441
f 443/443/443 438/438/438 440/440/440
f 444/444/444 443/443/443 440/440/440
f 441/441/441 439/439/439 445/445/445
f 445/445/445 439/439/439 446/446/446
f 439/439/439 437/437/437 446/446/446
f 445/445/445 446/446/446 447/447/447
f 446/446/446 437/437/437 448/448/448
f 446/446/446 448/448/448 449/449/449
f 450/450/450 446/446/446 449/449/449
f 437/437/437 428/428/428 448/448/448
f 448/448/448 428/428/428 434/434/434
f 448/448/448 434/434/434 451/451/451
f 452/452/452 441/441/441 445/445/445
f 453/453/453 441/441/441 452/452/452
f 452/452/452 445/445/445 454/454/454
f 454/454/454 445/445/445 447/447/447
f 456/456/456 434/434/434 455/455/455
f 457/457/457 438/438/438 443/443/443
f 457/457/457 430/430/430 438/438/438
f 459/459/459 458/458/458 457/457/457
f 459/459/459 460/460/460 458/458/458
f 461/461/461 460/460/460 459/459/459
f 464/464/464 463/463/463 462/462/462
f 465/465/465 396/396/396 395/395/395
f 465/465/465 395/395/395 466/466/466
f 467/467/467 465/465/465 466/466/466
f 470/470/470 469/469/469 468/468/468
f 469/469/469 471/471/471 468/468/468
f 474/474/474 473/473/473 472/472/472
f 477/477/477 476/476/476 475/475/475
f 480/480/480 479/479/479 478/478/478
f 483/483/483 482/482/482 481/481/481
f 484/484/484 483/483/483 481/481/481
f 487/487/487 486/486/486 485/485/485
f 489/489/489 436/436/436 488/488/488
f 488/488/488 436/436/436 490/490/490
f 436/436/436 422/422/422 490/490/490
f 436/436/436 421/421/421 422/422/422
f 423/423/423 421/421/421 436/436/436
f 490/490/490 422/422/422 491/491/491
f 493/493/493 492/492/492 488/488/488
f 494/494/494 492/492/492 493/493/493
f 497/497/497 496/496/496 495/495/495
f 495/495/495 496/496/496 498/498/498
f 495/495/495 498/498/498 499/499/499
f 499/499/499 498/498/498 500/500/500
f 498/498/498 501/501/501 500/500/500
f 498/498/498 502/502/502 501/501/501
f 503/503/503 502/502/502 498/498/498
f 500/500/500 501/501/501 504/504/504
f 505/505/505 497/497/497 495/495/495
f 506/506/506 497/497/497 505/505/505
f 505/505/505 495/495/495 507/507/507
f 507/507/507 495/495/495 499/499/499
f 508/508/508 505/505/505 507/507/507
f 509/509/509 505/505/505 508/508/508
f 509/509/509 510/510/510 505/505/505
f 511/511/511 510/510/510 509/509/509
f 514/514/514 513/513/513 512/512/512
f 517/517/517 516/516/516 515/515/515
f 520/520/520 519/519/519 518/518/518
f 522/522/522 519/519/519 521/521/521
f 519/519/519 522/522/522 523/523/523
f 523/523/523 522/522/522 524/524/524
f 526/526/526 523/523/523 525/525/525
f 526/526/526 527/527/527 523/523/523
f 529/529/529 528/528/528 519/519/519
f 530/530/530 528/528/528 529/529/529
f 532/532/532 527/527/527 531/531/531
f 534/534/534 325/325/325 533/533/533
f 537/537/537 536/536/536 535/535/535
f 535/535/535 536/536/536 538/538/538
f 535/535/535 538/538/538 539/539/539
f 542/542/542 541/541/541 540/540/540
f 543/543/543 542/542/542 540/540/540
f 543/543/543 540/540/540 544/544/544
f 540/540/540 541/541/541 545/545/545
f 540/540/540 545/545/545 546/546/546
f 547/547/547 540/540/540 546/546/546
f 549/549/549 545/545/545 548/548/548
f 548/548/548 551/551/551 550/550/550
f 554/554/554 553/553/553 552/552/552
f 555/555/555 553/553/553 554/554/554
f 554/554/554 552/552/552 556/556/556
f 556/556/556 552/552/552 557/557/557
f 555/555/555 558/558/558 553/553/553
f 559/559/559 558/558/558 555/555/555
f 561/561/561 560/560/560 559/559/559
f 559/559/559 563/563/563 562/562/562
f 566/566/566 565/565/565 564/564/564
f 564/564/564 565/565/565 567/567/567
f 565/565/565 568/568/568 567/567/567
f 567/567/567 568/568/568 569/569/569
f 572/572/572 571/571/571 570/570/570
f 570/570/570 571/571/571 573/573/573
f 576/576/576 575/575/575 574/574/574
f 574/574/574 575/575/575 577/577/577
f 574/574/574 577/577/577 578/578/578
f 578/578/578 577/577/577 579/579/579
f 582/582/582 581/581/581 580/580/580
f 584/584/584 583/583/583 441/441/441
f 587/587/587 586/586/586 585/585/585
