g STW_Hay_mesh
v 1216.187 94.29391 -199.8042
v 1191.901 49.29961 -178.5013
v 1182.579 49.29961 -194.0394
v 1217.701 104.154 -222.9034
v 1178.694 49.29961 -211.5199
v 1240.801 118.2174 -218.7379
v 1242.694 107.7419 -198.6682
v 1213.655 49.29961 -173.0629
v 1213.157 81.35654 -246.7599
v 1179.471 49.29961 -230.5541
v 1238.229 97.25729 -246.2307
v 1240.801 118.2174 -218.7379
v 1188.017 49.29961 -254.2498
v 1232.689 66.34344 -267.0688
v 1207.051 63.27792 -265.5149
v 1232.689 66.34344 -267.0688
v 1125.768 49.29961 -168.6993
v 1146.628 49.29961 -109.5954
v 1119.894 49.29961 -188.2817
v 1131.372 49.29961 -236.4341
v 1130.962 49.29961 -259.9011
v 1197.34 49.29961 -281.4415
v 1236.574 49.29961 -292.3182
v 1313.875 59.2979 -309.13
v 1235.797 54.80566 -313.6832
v 1191.513 54.80566 -294.649
v 1130.962 49.29961 -259.9011
v 1134.094 54.80566 -271.2547
v 1314.627 54.80566 -326.178
v 1313.875 59.2979 -309.13
v 1232.806 47.35044 -326.8588
v 1188.522 47.35044 -307.8246
v 1134.094 54.80566 -271.2547
v 1303.684 47.35044 -357.5972
v 1314.627 54.80566 -326.178
v 1215.526 47.35044 -351.9441
v 1179.758 47.35044 -326.2849
v 1144.38 47.35044 -287.4073
v 1134.094 54.80566 -271.2547
v 1114.286 47.35044 -311.2278
v 1292.389 47.35044 -372.2975
v 1233.854 49.29961 -172.286
v 1213.655 49.29961 -173.0629
v 1242.694 107.7419 -198.6682
v 1260.113 99.77483 -199.8042
v 1254.054 49.29961 -173.8399
v 1261.249 107.3181 -216.4659
v 1240.801 118.2174 -218.7379
v 1273.109 82.53999 -185.4935
v 1254.054 49.29961 -173.8399
v 1260.113 99.77483 -199.8042
v 1274.254 90.79312 -209.1891
v 1260.113 99.77483 -199.8042
v 1261.249 107.3181 -216.4659
v 1277.382 82.86971 -195.2048
v 1273.109 82.53999 -185.4935
v 1261.249 107.3181 -216.4659
v 1240.801 118.2174 -218.7379
v 1254.054 98.13518 -243.7305
v 1268.038 79.79984 -232.8848
v 1274.254 90.79312 -209.1891
v 1263.377 79.79984 -251.5306
v 1255.743 63.57486 -265.5465
v 1254.054 98.13518 -243.7305
v 1240.801 118.2174 -218.7379
v 1238.229 97.25729 -246.2307
v 1255.743 63.57486 -265.5465
v 1255.743 63.57486 -265.5465
v 1238.229 97.25729 -246.2307
v 1232.689 66.34344 -267.0688
v 1254.054 49.29961 -173.8399
v 1273.109 82.53999 -185.4935
v 1264.931 49.29961 -133.9503
v 1237.821 49.29961 -138.7828
v 1254.054 49.29961 -173.8399
v 1264.931 49.29961 -133.9503
v 1233.854 49.29961 -172.286
v 1200.079 49.29961 -94.00459
v 1213.655 49.29961 -173.0629
v 1273.109 82.53999 -185.4935
v 1313.371 56.0331 -145.5277
v 1255.743 63.57486 -265.5465
v 1232.689 66.34344 -267.0688
v 1313.875 59.2979 -309.13
v 1278.887 85.51795 -274.2861
v 1255.743 63.57486 -265.5465
v 1313.875 59.2979 -309.13
v 1263.377 79.79984 -251.5306
v 1255.743 63.57486 -265.5465
v 1278.887 85.51795 -274.2861
v 1268.038 79.79984 -232.8848
v 1276.746 98.32733 -250.3652
v 1294.602 103.8228 -202.1745
v 1278.887 85.51795 -274.2861
v 1274.254 90.79312 -209.1891
v 1294.602 103.8228 -202.1745
v 1277.382 82.86971 -195.2048
v 1274.254 90.79312 -209.1891
v 1309.691 85.65411 -181.2002
v 1273.109 82.53999 -185.4935
v 1277.382 82.86971 -195.2048
v 1313.371 56.0331 -145.5277
v 1313.371 56.0331 -145.5277
v 1277.382 82.86971 -195.2048
v 1309.691 85.65411 -181.2002
v 1309.691 85.65411 -181.2002
v 1274.254 90.79312 -209.1891
v 1294.602 103.8228 -202.1745
v 1386.252 342.9252 -201.1127
v 1374.165 342.9252 -214.2466
v 1400.71 335.4525 -243.504
v 1346.853 342.9252 -193.5312
v 1384.583 342.9252 -240.6647
v 1349.642 328.4017 -242.4039
v 1346.63 330.8657 -209.7815
v 1378.258 342.3678 -270.0596
v 1348.491 342.9252 -283.8268
v 1333.015 344.6219 -282.1767
v 1325.915 337.4778 -304.4969
v 1364.496 330.7874 -298.1812
v 1378.258 342.3678 -270.0596
v 1293.001 331.762 -280.2112
v 1320.584 342.9252 -274.8967
v 1286.547 337.6454 -244.3824
v 1307.933 342.9252 -251.4552
v 1310.785 344.9797 -228.3635
v 1325.793 342.9252 -214.2466
v 1346.63 330.8657 -209.7815
v 1316.656 342.9252 -195.4977
v 1298.179 342.7466 -212.0514
v 1346.853 342.9252 -193.5312
v 1316.656 342.9252 -195.4977
v 1395.042 331.9136 -268.2305
v 1384.583 342.9252 -240.6647
v 1400.71 335.4525 -243.504
v 1374.165 342.9252 -214.2466
v 1378.258 342.3678 -270.0596
v 1364.496 330.7874 -298.1812
v 1347.002 359.0356 -182.6192
v 1312.965 359.0688 -188.708
v 1386.252 342.9252 -201.1127
v 1374.165 342.9252 -214.2466
v 1346.853 342.9252 -193.5312
v 1346.63 330.8657 -209.7815
v 1346.853 342.9252 -193.5312
v 1312.965 359.0688 -188.708
v 1316.656 342.9252 -195.4977
v 1298.179 342.7466 -212.0514
v 1290.632 361.0221 -210.2931
v 1286.547 337.6454 -244.3824
v 1275.934 359.0356 -245.1298
v 1293.001 331.762 -280.2112
v 1282.784 363.7013 -285.4704
v 1300.355 371.2104 -301.0361
v 1325.915 337.4778 -304.4969
v 1334.069 358.7534 -316.0563
v 1364.496 330.7874 -298.1812
v 1351.277 355.3604 -316.6299
v 1391.546 368.91 -202.7927
v 1347.002 359.0356 -182.6192
v 1386.252 342.9252 -201.1127
v 1400.71 335.4525 -243.504
v 1407.733 356.8034 -227.4746
v 1411.351 357.5721 -249.7545
v 1395.042 331.9136 -268.2305
v 1408.804 361.8 -273.0054
v 1364.496 330.7874 -298.1812
v 1386.621 359.3434 -293.5375
v 1368.411 357.3268 -310.3927
v 1351.277 355.3604 -316.6299
v 1408.804 385.1501 -273.0054
v 1386.621 382.6936 -293.5375
v 1391.546 368.91 -202.7927
v 1400.71 335.4525 -243.504
v 1407.733 356.8034 -227.4746
v 1290.632 361.0221 -210.2931
v 1312.965 359.0688 -188.708
v 1285.922 357.4906 -171.9271
v 1300.13 356.8864 -165.399
v 1334.069 358.7534 -316.0563
v 1300.355 371.2104 -301.0361
v 1323.096 381.7329 -313.3827
v 1299.583 382.5691 -302.7404
v 1282.784 363.7013 -285.4704
v 1283.064 382.8773 -287.4436
v 1323.096 381.7329 -313.3827
v 1299.583 382.5691 -302.7404
v 1313.334 381.8052 -326.6487
v 1292.156 382.1084 -315.1177
v 1283.064 382.8773 -287.4436
v 1273.265 381.8924 -300.4407
v 1407.733 356.8034 -227.4746
v 1411.351 357.5721 -249.7545
v 1421 356.8034 -227.4746
v 1368.411 357.3268 -310.3927
v 1351.277 355.3604 -316.6299
v 1371.998 357.3272 -324.058
v 1353.58 354.7742 -327.0955
vt 0.284156 0.554927
vt 0.210804 0.586596
vt 0.189277 0.550718
vt 0.291614 0.504247
vt 0.180308 0.510355
vt 0.352171 0.519485
vt 0.352218 0.562987
vt 0.261033 0.599153
vt 0.272028 0.439899
vt 0.182102 0.466405
vt 0.337273 0.446673
vt 0.352171 0.519485
vt 0.201834 0.411692
vt 0.311728 0.387515
vt 0.250955 0.390143
vt 0.311728 0.387515
vt 0.058224 0.609271
vt 0.106272 0.745621
vt 0.044592 0.564039
vt 0.071077 0.452883
vt 0.07016 0.398754
vt 0.223361 0.348906
vt 0.313952 0.323791
vt 0.496335 0.288264
vt 0.314344 0.275949
vt 0.211852 0.320003
vt 0.071751 0.401586
vt 0.079483 0.374858
vt 0.495773 0.245174
vt 0.494296 0.281865
vt 0.304487 0.243536
vt 0.20232 0.28745
vt 0.079483 0.374858
vt 0.468098 0.172721
vt 0.497213 0.245792
vt 0.26462 0.185662
vt 0.182102 0.24486
vt 0.10048 0.334554
vt 0.079483 0.374858
vt 0.031089 0.279639
vt 0.441942 0.138765
vt 0.307674 0.600947
vt 0.261033 0.599153
vt 0.352218 0.562987
vt 0.389959 0.557108
vt 0.354315 0.597359
vt 0.395967 0.520681
vt 0.352171 0.519485
vt 0.408901 0.580144
vt 0.354315 0.597359
vt 0.389959 0.557108
vt 0.415239 0.528012
vt 0.389959 0.557108
vt 0.395967 0.520681
vt 0.419017 0.557617
vt 0.408901 0.580144
vt 0.395967 0.520681
vt 0.352171 0.519485
vt 0.374954 0.452876
vt 0.399818 0.471821
vt 0.415239 0.528012
vt 0.388913 0.428202
vt 0.364181 0.390165
vt 0.374954 0.452876
vt 0.352171 0.519485
vt 0.337273 0.446673
vt 0.364181 0.390165
vt 0.364181 0.390165
vt 0.337273 0.446673
vt 0.311728 0.387515
vt 0.354315 0.597359
vt 0.408901 0.580144
vt 0.379382 0.689281
vt 0.316733 0.678227
vt 0.354315 0.597359
vt 0.379382 0.689281
vt 0.307674 0.600947
vt 0.229587 0.78151
vt 0.261033 0.599153
vt 0.408901 0.580144
vt 0.494262 0.665326
vt 0.364181 0.390165
vt 0.311728 0.387515
vt 0.496335 0.288264
vt 0.463541 0.377581
vt 0.364181 0.390165
vt 0.496335 0.288264
vt 0.388913 0.428202
vt 0.364181 0.390165
vt 0.463541 0.377581
vt 0.399818 0.471821
vt 0.466046 0.437297
vt 0.539772 0.551548
vt 0.451254 0.386561
vt 0.415239 0.528012
vt 0.539772 0.551548
vt 0.419017 0.557617
vt 0.415239 0.528012
vt 0.496925 0.595922
vt 0.408901 0.580144
vt 0.419017 0.557617
vt 0.494262 0.665326
vt 0.494262 0.665326
vt 0.419017 0.557617
vt 0.49842 0.593909
vt 0.496925 0.595922
vt 0.415239 0.528012
vt 0.538992 0.559017
vt 0.865853 0.319009
vt 0.832979 0.28329
vt 0.899396 0.200426
vt 0.758701 0.339628
vt 0.861314 0.211442
vt 0.756072 0.200311
vt 0.749653 0.289594
vt 0.843695 0.131272
vt 0.763156 0.094057
vt 0.722231 0.099209
vt 0.698079 0.035876
vt 0.797902 0.050552
vt 0.843695 0.131272
vt 0.605213 0.099517
vt 0.68726 0.118343
vt 0.5914 0.199008
vt 0.652854 0.182096
vt 0.661961 0.245848
vt 0.701427 0.28329
vt 0.749653 0.289594
vt 0.676576 0.33428
vt 0.626212 0.289174
vt 0.758701 0.339628
vt 0.676576 0.33428
vt 0.881343 0.131986
vt 0.861314 0.211442
vt 0.899396 0.200426
vt 0.832979 0.28329
vt 0.843695 0.131272
vt 0.797902 0.050552
vt 0.770551 0.377796
vt 0.677272 0.361124
vt 0.865853 0.319009
vt 0.832979 0.28329
vt 0.758701 0.339628
vt 0.749653 0.289594
vt 0.758701 0.339628
vt 0.677272 0.361124
vt 0.676576 0.33428
vt 0.626212 0.289174
vt 0.617305 0.302921
vt 0.5914 0.199008
vt 0.575744 0.206448
vt 0.605213 0.099517
vt 0.597465 0.097707
vt 0.650686 0.05776
vt 0.698079 0.035876
vt 0.734903 0.011931
vt 0.797902 0.050552
vt 0.779621 0.009169
vt 0.900346 0.327501
vt 0.770551 0.377796
vt 0.865853 0.319009
vt 0.899396 0.200426
vt 0.935243 0.253792
vt 0.945765 0.193126
vt 0.881343 0.131986
vt 0.942169 0.131172
vt 0.797902 0.050552
vt 0.879388 0.073874
vt 0.827963 0.026941
vt 0.779621 0.009169
vt 0.978076 0.106015
vt 0.914546 0.048042
vt 0.900346 0.327501
vt 0.899396 0.200426
vt 0.935243 0.253792
vt 0.617305 0.302921
vt 0.677272 0.361124
vt 0.602143 0.406262
vt 0.640665 0.423809
vt 0.734903 0.011931
vt 0.650686 0.05776
vt 0.720717 0.02752
vt 0.656096 0.057336
vt 0.597465 0.097707
vt 0.610486 0.099878
vt 0.720717 0.02752
vt 0.656096 0.057336
vt 0.693706 -0.009228
vt 0.635198 0.022846
vt 0.610486 0.099878
vt 0.582687 0.063455
vt 0.935243 0.253792
vt 0.945765 0.193126
vt 0.971568 0.253792
vt 0.827963 0.026941
vt 0.779621 0.009169
vt 0.837787 -0.010486
vt 0.793708 -0.024543
vn -0.5174968 0.6666324 0.5364684
vn -0.2080848 0.9349424 0.2873735
vn -0.4224961 0.8938617 0.1500275
vn -0.6761673 0.7231199 -0.1410516
vn -0.428165 0.9030635 -0.03392911
vn -0.2745677 0.944483 0.1804561
vn 0.05308158 0.6927559 0.7192159
vn -0.1036966 0.8609094 0.4980785
vn -0.577697 0.678202 -0.4542117
vn -0.3106263 0.9484103 -0.06347729
vn -0.1493285 0.6752474 -0.722317
vn -0.1957904 0.9613395 -0.1936299
vn -0.4538427 0.870533 -0.1902603
vn -0.1453177 0.7055777 -0.6935725
vn -0.3720521 0.7740732 -0.512238
vn -0.1064897 0.7952704 -0.5968291
vn 0 1 0
vn 0 1 0
vn 0 1 0
vn 0 1 0
vn 0.0620262 0.9840954 0.1664605
vn -0.09405754 0.9954058 0.01790378
vn -0.1075153 0.9566504 -0.2706668
vn -0.2436584 0.8628612 -0.442833
vn -0.03114429 0.9981165 -0.05285448
vn -0.02386068 0.9989249 -0.03974407
vn 0.0620262 0.9840954 0.1664605
vn 0.004353048 0.9999335 0.01068419
vn -0.05998668 0.9950772 -0.0788864
vn -0.2436584 0.8628612 -0.442833
vn -0.1001365 0.9674814 -0.2322768
vn -0.1079285 0.9626822 -0.2481823
vn -0.09126196 0.9762549 -0.1964626
vn -0.07825234 0.9705433 -0.2278645
vn -0.05998668 0.9950772 -0.0788864
vn 0 1 0
vn 0 1 0
vn -0.08549358 0.9790434 -0.1848379
vn -0.2151993 0.8434408 -0.4922366
vn 0 1 0
vn 0 1 0
vn 0.08796139 0.4150136 0.9055532
vn -0.1789755 0.4784895 0.8596601
vn 0.05308158 0.6927559 0.7192159
vn 0.3724458 0.6786879 0.6329825
vn -0.1183563 0.4654095 0.8771464
vn 0.6657259 0.7461838 -0.004321231
vn -0.02735562 0.9727606 0.2301922
vn -0.4103519 0.6896296 0.5966761
vn -0.3945615 0.5509132 0.7354019
vn 0.1075413 0.5688614 0.815372
vn 0.5484156 0.8066033 0.2205256
vn 0.4731531 0.6791208 0.5611782
vn 0.6657259 0.7461838 -0.004321231
vn 0.3711816 0.8590956 0.3523904
vn 0.3595312 0.8586963 0.3652096
vn 0.6657259 0.7461838 -0.004321231
vn 0.1619213 0.9279226 -0.3357694
vn 0.4827849 0.6525041 -0.5840867
vn 0.82398 0.460973 -0.3294859
vn 0.7489988 0.6586347 0.0721189
vn 0.6388754 0.5525528 -0.5352791
vn 0.02976052 0.668996 -0.7426699
vn 0.4827849 0.6525041 -0.5840867
vn 0.05542902 0.8339679 -0.549022
vn -0.1493285 0.6752474 -0.722317
vn -0.1590497 0.5654975 -0.8092686
vn -0.1175464 0.6996962 -0.7047043
vn -0.1493285 0.6752474 -0.722317
vn -0.1064897 0.7952704 -0.5968291
vn -0.3294424 0.8910288 0.3123063
vn -0.4103519 0.6896296 0.5966761
vn -0.3037601 0.9071609 0.2911856
vn 0 1 0
vn -0.3027714 0.949481 0.08255678
vn -0.3037601 0.9071609 0.2911856
vn 0 1 0
vn 0 1 0
vn -0.1141073 0.9186188 0.3783107
vn -0.02037925 0.8550808 0.5180941
vn 0.0258979 0.8724375 0.4880389
vn -0.03849355 0.8149355 -0.5782718
vn -0.05378959 0.8308136 -0.5539454
vn -0.1014747 0.9575191 -0.2699262
vn -0.6969795 0.5052257 -0.5088875
vn -0.1590497 0.5654975 -0.8092686
vn -0.3506531 0.7338951 -0.5817562
vn -0.7794246 0.6026345 -0.171257
vn -0.2263111 0.7179781 -0.6582482
vn -0.6969795 0.5052257 -0.5088875
vn -0.7128224 0.6994275 0.05181904
vn -0.806658 0.5906754 0.02013624
vn -0.6648619 0.700026 0.2606193
vn -0.6969795 0.5052257 -0.5088875
vn -0.4067826 0.9037462 0.1333071
vn -0.6526598 0.7571436 -0.02772637
vn 0.2322866 0.871223 0.4324504
vn 0.006659091 0.907858 0.4192249
vn -0.3921468 0.6583858 0.6424555
vn 0.3595312 0.8586963 0.3652096
vn 0.2322866 0.871223 0.4324504
vn 0.0258979 0.8724375 0.4880389
vn 0.0258979 0.8724375 0.4880389
vn -0.08491386 0.8699183 0.4858309
vn -0.3921468 0.6583858 0.6424555
vn -0.3921468 0.6583858 0.6424555
vn -0.4226649 0.6305921 0.6509286
vn -0.6853585 0.5238906 0.5057889
vn -0.007356633 0.9372877 -0.3484792
vn -0.1126087 0.9843342 -0.135667
vn 0.1358121 0.9649446 -0.224582
vn -0.08286467 0.7932715 -0.6032029
vn 0.1318554 0.9896469 -0.056686
vn 0.04052375 0.996887 0.06763087
vn 0.04008949 0.9694678 -0.2419196
vn 0.06858174 0.9960747 -0.05596399
vn 0.1146623 0.9846561 -0.1315479
vn -0.07093357 0.9968854 -0.0344656
vn -0.005099586 0.9395115 -0.3424795
vn 0.3188837 0.8097434 -0.4925737
vn 0.168294 0.9716203 -0.1662259
vn -0.3154092 0.9179723 -0.2405074
vn -0.1175564 0.9924234 -0.0357241
vn -0.2816579 0.9519253 -0.1204453
vn 0.02738545 0.9985567 -0.04620196
vn 0.03505519 0.9973027 -0.06448751
vn 0.2646645 0.9639509 0.02741004
vn 0.1654013 0.9759208 -0.1422009
vn 0.1771859 0.9744082 -0.1383254
vn -0.0853729 0.9960378 0.02490174
vn -0.05859493 0.7376907 -0.6725914
vn 0.2752758 0.8369528 -0.4730045
vn 0.4776215 0.8268716 -0.2969194
vn 0.1318554 0.9896469 -0.056686
vn 0.3261314 0.9435645 -0.05765798
vn -0.04482822 0.9980214 -0.04408835
vn 0.4301267 0.8168818 -0.3843112
vn 0.3188837 0.8097434 -0.4925737
vn -0.1515742 0.4025532 -0.9027603
vn 0.3872477 0.4492263 -0.8051304
vn -0.3621666 0.7262255 -0.5843218
vn -0.222959 0.9553877 -0.1937103
vn -0.05859493 0.7376907 -0.6725914
vn -0.275172 0.8568674 -0.4359573
vn -0.06702937 0.6352317 -0.7694075
vn 0.3872477 0.4492263 -0.8051304
vn 0.2491586 0.5770094 -0.7778047
vn 0.7179315 0.3888304 -0.5773953
vn 0.7943069 0.380451 -0.4736388
vn 0.8792679 0.4207631 -0.2232629
vn 0.9138278 0.404833 -0.03207623
vn 0.7814556 0.3765617 0.4975223
vn 0.7275893 0.2244471 0.6482571
vn 0.5070249 0.2217767 0.8329111
vn 0.3279151 0.376789 0.866315
vn 0.2640458 0.3977307 0.8786865
vn -0.3899077 0.4900736 0.7796152
vn -0.124872 0.8944895 0.4292965
vn -0.6654291 0.2978431 -0.6844659
vn -0.1515742 0.4025532 -0.9027603
vn -0.5628633 0.2806106 -0.777459
vn -0.8580528 0.4434862 -0.2589699
vn -0.7376457 0.5434572 -0.4006659
vn -0.8981596 0.4355918 0.05974178
vn -0.831091 0.4474468 0.3302713
vn -0.7489917 0.3228811 0.5785837
vn -0.3899077 0.4900736 0.7796152
vn -0.6772335 0.2018782 0.7075309
vn -0.5071259 0.4208781 0.7521204
vn -0.1038946 0.5608 0.821407
vn -0.6792715 0 0.7338871
vn -0.6792714 0 0.7338871
vn -0.6654291 0.2978431 -0.6844659
vn -0.5788374 0.7649125 -0.2825879
vn -0.5428165 0.7913276 -0.2813379
vn -0.001338532 0.9958045 0.09149703
vn -0.0008654637 0.9957352 0.09225289
vn -0.0008654637 0.9957352 0.09225289
vn -0.0003923951 0.9956653 0.09300869
vn 0.2640458 0.3977307 0.8786865
vn 0.5070249 0.2217767 0.8329111
vn 0.4243893 0.133615 0.8955672
vn 0.5745897 0.1298168 0.8080806
vn 0.7275893 0.2244471 0.6482571
vn 0.6786444 0.06535949 0.7315531
vn 0.02850974 0.9994728 -0.01553692
vn 0.004625154 0.9996232 -0.02705591
vn 0.01201673 0.9996145 -0.02502778
vn -0.01963321 0.9991601 -0.03596865
vn -0.02720901 0.998956 -0.03669516
vn -0.04425311 0.9981256 -0.04227183
vn -0.2675565 0.9064196 -0.3268288
vn 0 0.9994054 0.03447779
vn 0 0.9994054 0.03447779
vn -0.1041572 0.9941858 -0.02730656
vn -0.02793647 0.9712533 0.2364032
vn -0.1138591 0.9919758 -0.05495506
vn -0.1234627 0.9889093 -0.08255611
g STW_Hay_mesh_0
f 3/3/3 2/2/2 1/1/1
f 4/4/4 3/3/3 1/1/1
f 5/5/5 3/3/3 4/4/4
f 4/4/4 1/1/1 6/6/6
f 6/6/6 1/1/1 7/7/7
f 1/1/1 8/8/8 7/7/7
f 1/1/1 2/2/2 8/8/8
f 9/9/9 5/5/5 4/4/4
f 10/10/10 5/5/5 9/9/9
f 9/9/9 4/4/4 11/11/11
f 11/11/11 4/4/4 12/12/12
f 13/13/13 10/10/10 9/9/9
f 14/14/14 9/9/9 11/11/11
f 15/15/15 13/13/13 9/9/9
f 15/15/15 9/9/9 16/16/16
f 17/17/17 2/2/2 3/3/3
f 18/18/18 2/2/2 17/17/17
f 17/17/17 3/3/3 19/19/19
f 19/19/19 3/3/3 5/5/5
f 19/19/19 5/5/5 20/20/20
f 20/20/20 5/5/5 10/10/10
f 20/20/20 10/10/10 21/21/21
f 21/21/21 10/10/10 13/13/13
f 21/21/21 13/13/13 22/22/22
f 22/22/22 13/13/13 15/15/15
f 22/22/22 15/15/15 23/23/23
f 23/23/23 15/15/15 16/16/16
f 23/23/23 16/16/16 24/24/24
f 25/25/25 22/22/22 23/23/23
f 26/26/26 22/22/22 25/25/25
f 26/26/26 27/27/27 22/22/22
f 28/28/28 27/27/27 26/26/26
f 25/25/25 23/23/23 29/29/29
f 29/29/29 23/23/23 30/30/30
f 31/31/31 26/26/26 25/25/25
f 32/32/32 26/26/26 31/31/31
f 32/32/32 33/33/33 26/26/26
f 31/31/31 25/25/25 34/34/34
f 34/34/34 25/25/25 35/35/35
f 36/36/36 32/32/32 31/31/31
f 37/37/37 32/32/32 36/36/36
f 37/37/37 38/38/38 32/32/32
f 38/38/38 39/39/39 32/32/32
f 40/40/40 38/38/38 37/37/37
f 41/41/41 31/31/31 34/34/34
f 36/36/36 31/31/31 41/41/41
f 44/44/44 43/43/43 42/42/42
f 44/44/44 42/42/42 45/45/45
f 45/45/45 42/42/42 46/46/46
f 47/47/47 44/44/44 45/45/45
f 48/48/48 44/44/44 47/47/47
f 51/51/51 50/50/50 49/49/49
f 54/54/54 53/53/53 52/52/52
f 52/52/52 53/53/53 55/55/55
f 55/55/55 53/53/53 56/56/56
f 59/59/59 58/58/58 57/57/57
f 59/59/59 57/57/57 60/60/60
f 60/60/60 57/57/57 61/61/61
f 62/62/62 59/59/59 60/60/60
f 63/63/63 59/59/59 62/62/62
f 66/66/66 65/65/65 64/64/64
f 67/67/67 66/66/66 64/64/64
f 70/70/70 69/69/69 68/68/68
f 73/73/73 72/72/72 71/71/71
f 76/76/76 75/75/75 74/74/74
f 74/74/74 75/75/75 77/77/77
f 74/74/74 77/77/77 78/78/78
f 78/78/78 77/77/77 79/79/79
f 78/78/78 79/79/79 18/18/18
f 18/18/18 79/79/79 2/2/2
f 81/81/81 80/80/80 76/76/76
f 84/84/84 83/83/83 82/82/82
f 87/87/87 86/86/86 85/85/85
f 90/90/90 89/89/89 88/88/88
f 92/92/92 88/88/88 91/91/91
f 92/92/92 91/91/91 93/93/93
f 94/94/94 88/88/88 92/92/92
f 96/96/96 91/91/91 95/95/95
f 99/99/99 98/98/98 97/97/97
f 102/102/102 101/101/101 100/100/100
f 105/105/105 104/104/104 103/103/103
f 108/108/108 107/107/107 106/106/106
f 111/111/111 110/110/110 109/109/109
f 110/110/110 112/112/112 109/109/109
f 114/114/114 110/110/110 113/113/113
f 114/114/114 115/115/115 110/110/110
f 116/116/116 114/114/114 113/113/113
f 117/117/117 114/114/114 116/116/116
f 114/114/114 117/117/117 118/118/118
f 117/117/117 119/119/119 118/118/118
f 120/120/120 119/119/119 117/117/117
f 117/117/117 121/121/121 120/120/120
f 119/119/119 122/122/122 118/118/118
f 118/118/118 122/122/122 123/123/123
f 114/114/114 118/118/118 123/123/123
f 122/122/122 124/124/124 123/123/123
f 123/123/123 124/124/124 125/125/125
f 114/114/114 123/123/123 125/125/125
f 125/125/125 124/124/124 126/126/126
f 114/114/114 125/125/125 126/126/126
f 114/114/114 126/126/126 127/127/127
f 114/114/114 127/127/127 128/128/128
f 127/127/127 129/129/129 128/128/128
f 127/127/127 130/130/130 129/129/129
f 126/126/126 130/130/130 127/127/127
f 126/126/126 124/124/124 130/130/130
f 115/115/115 132/132/132 131/131/131
f 121/121/121 134/134/134 133/133/133
f 133/133/133 134/134/134 111/111/111
f 134/134/134 136/136/136 135/135/135
f 138/138/138 137/137/137 133/133/133
f 131/131/131 140/140/140 139/139/139
f 131/131/131 139/139/139 141/141/141
f 144/144/144 143/143/143 142/142/142
f 147/147/147 146/146/146 145/145/145
f 148/148/148 146/146/146 147/147/147
f 149/149/149 146/146/146 148/148/148
f 150/150/150 149/149/149 148/148/148
f 151/151/151 149/149/149 150/150/150
f 152/152/152 151/151/151 150/150/150
f 153/153/153 151/151/151 152/152/152
f 154/154/154 153/153/153 152/152/152
f 155/155/155 154/154/154 152/152/152
f 156/156/156 154/154/154 155/155/155
f 157/157/157 156/156/156 155/155/155
f 158/158/158 156/156/156 157/157/157
f 161/161/161 160/160/160 159/159/159
f 159/159/159 162/162/162 161/161/161
f 164/164/164 162/162/162 163/163/163
f 164/164/164 165/165/165 162/162/162
f 166/166/166 165/165/165 164/164/164
f 166/166/166 167/167/167 165/165/165
f 168/168/168 167/167/167 166/166/166
f 169/169/169 167/167/167 168/168/168
f 169/169/169 170/170/170 167/167/167
f 171/171/171 168/168/168 166/166/166
f 172/172/172 168/168/168 171/171/171
f 175/175/175 174/174/174 173/173/173
f 178/178/178 177/177/177 176/176/176
f 179/179/179 177/177/177 178/178/178
f 182/182/182 181/181/181 180/180/180
f 183/183/183 181/181/181 182/182/182
f 183/183/183 184/184/184 181/181/181
f 185/185/185 184/184/184 183/183/183
f 188/188/188 187/187/187 186/186/186
f 189/189/189 187/187/187 188/188/188
f 189/189/189 190/190/190 187/187/187
f 191/191/191 190/190/190 189/189/189
f 194/194/194 193/193/193 192/192/192
f 197/197/197 196/196/196 195/195/195
f 198/198/198 196/196/196 197/197/197
