g BRM_Rookery_Egg4
v 1494.186 46.86368 -232.9152
v 1493.061 46.9896 -231.435
v 1499.057 46.75523 -230.284
v 1496.949 47.00221 -227.4053
v 1500.285 46.85481 -233.6836
v 1494.836 46.91443 -234.657
v 1500.522 47.29123 -237.2856
v 1494.952 47.13691 -236.4912
v 1499.735 48.02173 -240.7534
v 1494.526 47.50932 -238.252
v 1497.971 48.97482 -243.7106
v 1493.579 47.9952 -239.7428
v 1495.346 50.05719 -245.8599
v 1492.203 48.547 -240.8041
v 1492.072 51.16293 -246.9778
v 1490.521 49.11069 -241.3677
v 1488.54 52.18376 -246.9207
v 1488.725 49.63112 -241.3429
v 1485.145 53.01981 -245.693
v 1486.995 50.05732 -240.727
v 1482.222 53.58915 -243.4239
v 1485.498 50.34759 -239.5912
v 1480.052 53.83615 -240.3627
v 1484.377 50.47349 -238.0532
v 1478.832 53.73656 -236.8414
v 1483.741 50.42272 -236.2717
v 1478.667 53.30016 -233.2233
v 1483.641 50.20026 -234.4197
v 1479.563 52.56968 -229.8607
v 1484.084 49.82785 -232.6802
v 1481.428 51.61658 -227.0635
v 1485.043 49.34198 -231.2557
v 1484.081 50.53419 -225.1312
v 1486.401 48.79017 -230.264
v 1487.299 49.42846 -224.1353
v 1488.052 48.22647 -229.7443
v 1490.77 48.40761 -224.1916
v 1489.829 47.70604 -229.7727
v 1494.12 47.57158 -225.3129
v 1491.556 47.27984 -230.3559
v 1475.766 56.23928 -227.103
v 1478.481 54.85558 -223.0995
v 1482.311 53.28421 -220.3249
v 1486.958 51.67894 -218.9071
v 1491.975 50.1969 -218.9828
v 1496.693 48.98318 -220.5874
v 1500.637 48.15659 -223.602
v 1503.558 47.79803 -227.7631
v 1505.273 47.94258 -232.6863
v 1505.617 48.57615 -237.9206
v 1504.527 49.63667 -242.9656
v 1502.085 51.02034 -247.308
v 1498.424 52.59174 -250.4442
v 1493.786 54.19701 -252.047
v 1488.655 55.67905 -251.953
v 1483.718 56.89275 -250.1594
v 1479.473 57.71934 -246.8594
v 1476.346 58.07792 -242.3939
v 1474.633 57.93332 -237.2275
v 1474.439 57.29978 -231.9597
v 1489.093 59.9826 -256.1721
v 1495.603 58.09634 -256.3037
v 1482.806 61.52737 -253.8833
v 1477.406 62.57943 -249.689
v 1473.438 63.03579 -244.0239
v 1471.294 62.85178 -237.454
v 1471.105 62.04543 -230.7355
v 1472.824 60.69564 -224.5803
v 1476.276 58.93456 -219.5175
v 1481.166 56.93456 -215.9627
v 1487.057 54.89144 -214.1953
v 1493.406 53.00517 -214.2983
v 1499.228 51.46039 -216.3293
v 1504.042 50.40833 -220.1496
v 1507.59 49.95198 -225.4253
v 1509.685 50.13599 -231.6752
v 1510.114 50.94234 -238.3482
v 1508.788 52.29214 -244.8094
v 1505.817 54.05321 -250.3454
v 1501.355 56.05321 -254.2973
v 1511.092 53.13431 -223.3372
v 1513.465 53.35067 -230.6778
v 1513.948 54.29885 -238.538
v 1512.429 55.88603 -246.177
v 1509.084 57.95685 -252.6556
v 1504.029 60.30859 -257.255
v 1497.435 62.71105 -259.5771
v 1489.834 64.92907 -259.4109
v 1482.444 66.74554 -256.7245
v 1476.105 67.98261 -251.8078
v 1471.457 68.51923 -245.1755
v 1468.963 68.30287 -237.4908
v 1468.812 67.35471 -229.5669
v 1470.863 65.76749 -222.291
v 1474.925 63.6967 -216.3331
v 1480.662 61.34497 -212.1741
v 1487.586 58.94251 -210.1001
v 1494.983 56.72448 -210.2403
v 1501.649 54.90802 -212.6556
v 1507.091 53.67093 -217.1461
v 1514.027 57.22271 -221.5609
v 1509.729 57.81897 -214.6863
v 1516.587 57.46313 -229.7143
v 1517.094 58.5167 -238.4701
v 1515.421 60.28026 -246.992
v 1511.816 62.58123 -254.152
v 1506.367 65.19436 -259.2378
v 1499.231 67.86385 -261.78
v 1516.34 62.06009 -220.173
v 1511.854 62.69308 -212.8916
v 1519.036 62.31532 -228.8131
v 1519.537 63.43379 -238.1335
v 1517.734 65.30599 -247.2189
v 1513.969 67.74867 -254.8271
v 1508.356 70.52275 -260.1981
v 1500.951 73.35666 -262.8651
v 1517.933 67.46054 -219.2542
v 1513.447 68.10593 -211.8444
v 1520.792 67.72077 -228.0182
v 1521.273 68.86115 -237.5498
v 1519.3 70.77005 -246.863
v 1515.547 73.2606 -254.6145
v 1509.912 76.08901 -260.0585
v 1502.552 78.97841 -262.8305
v 1518.819 73.21655 -218.925
v 1514.395 73.84953 -211.6556
v 1521.586 73.47176 -227.5181
v 1522.074 74.59023 -236.8082
v 1520.176 76.46244 -245.8752
v 1516.445 78.90512 -253.4715
v 1511.005 81.67918 -258.8614
v 1518.782 79.10688 -219.2091
v 1514.638 79.70313 -212.3388
v 1508.467 75.30878 -206.2503
v 1507.351 69.59378 -206.3506
v 1505.795 64.15234 -207.5037
v 1498.296 66.29501 -204.5797
v 1496.635 61.21189 -206.9362
v 1488.538 63.67641 -206.7567
v 1480.844 66.3459 -209.0613
v 1474.465 68.959 -213.6899
v 1469.933 71.25999 -220.3405
v 1467.617 73.02356 -228.485
v 1503.864 59.19357 -209.6645
v 1481.662 71.74522 -206.8145
v 1474.885 74.51929 -211.737
v 1489.835 68.91132 -204.3607
v 1491.369 74.44599 -203.0957
v 1483.043 77.33543 -205.5881
v 1499.843 71.7784 -203.3438
v 1493.055 80.06778 -203.0146
v 1501.211 77.45144 -203.277
v 1509.098 81.07772 -207.2063
v 1502.343 83.09605 -204.3826
v 1514.182 85.44179 -213.7994
v 1517.945 84.90516 -220.0058
v 1520.377 85.12155 -227.2611
v 1521.418 79.3473 -227.2578
v 1521.906 80.40086 -235.912
v 1520.147 82.16442 -244.365
v 1516.688 84.4654 -251.5778
v 1520.867 86.06973 -235.0134
v 1519.338 87.6569 -242.5437
v 1516.521 90.3886 -221.2111
v 1518.517 90.57263 -227.4104
v 1509.211 86.67887 -209.1825
v 1490.873 70.32837 -261.5825
v 1482.663 72.34669 -258.5979
v 1492.229 75.97298 -262.6979
v 1476.105 67.98261 -251.8078
v 1482.444 66.74554 -256.7245
v 1475.631 73.72127 -253.1553
v 1482.663 72.34669 -258.5979
v 1470.484 74.31754 -245.8146
v 1471.457 68.51923 -245.1755
v 1467.744 74.07713 -237.3256
v 1468.963 68.30287 -237.4908
v 1467.617 73.02356 -228.485
v 1468.812 67.35471 -229.5669
v 1476.082 79.57488 -253.8057
v 1483.553 78.11564 -259.5941
v 1490.873 70.32837 -261.5825
v 1492.229 75.97298 -262.6979
v 1470.597 80.20789 -245.9806
v 1467.676 79.95264 -236.9489
v 1467.54 78.83419 -227.567
v 1470.039 76.96199 -218.8547
v 1469.933 71.25999 -220.3405
v 1474.885 74.51929 -211.737
v 1474.465 68.959 -213.6899
v 1484.986 83.83064 -259.5219
v 1493.84 81.646 -262.6993
v 1500.951 73.35666 -262.8651
v 1502.552 78.97841 -262.8305
v 1477.36 85.31846 -253.6058
v 1471.755 85.96386 -245.6059
v 1468.756 85.70362 -236.3646
v 1468.562 84.56326 -226.8825
v 1471.04 82.65438 -218.1143
v 1476.016 80.16385 -210.7986
v 1483.043 77.33543 -205.5881
v 1481.662 71.74522 -206.8145
v 1495.558 87.12943 -261.473
v 1503.942 84.51309 -261.6342
v 1509.912 76.08901 -260.0585
v 1511.005 81.67918 -258.8614
v 1486.896 89.27209 -258.3659
v 1473.912 91.36433 -244.7068
v 1479.418 90.73134 -252.5671
v 1470.668 89.99063 -226.4185
v 1473.038 88.11842 -217.9169
v 1484.787 82.90166 -205.671
v 1493.055 80.06778 -203.0146
v 1505.042 89.74799 -259.2869
v 1511.617 87.07852 -256.6944
v 1516.445 78.90512 -253.4715
v 1516.688 84.4654 -251.5778
v 1482.184 95.60543 -250.7382
v 1476.988 96.2017 -243.318
v 1474.129 95.96128 -234.7847
v 1470.94 91.10909 -235.622
v 1473.786 94.90771 -226.1773
v 1475.971 93.14415 -218.2481
v 1480.493 90.84318 -211.6127
v 1477.873 85.67574 -210.8178
v 1486.988 88.23006 -206.7943
v 1494.764 85.56059 -204.1902
v 1479.743 97.53838 -219.0659
v 1477.818 99.12556 -226.165
v 1483.796 95.46757 -213.1228
v 1489.632 93.11583 -208.8016
v 1496.483 90.71337 -206.4906
v 1484.221 101.1323 -220.3314
v 1482.624 102.4821 -226.3784
v 1478.202 100.0737 -233.8768
v 1480.851 100.2901 -241.4923
v 1485.543 99.75349 -248.177
v 1489.225 94.23085 -256.1965
v 1491.882 98.51641 -253.0938
v 1497.309 92.21252 -259.1139
v 1499.035 96.69994 -255.7421
v 1505.844 94.48192 -255.9151
v 1511.691 92.07946 -253.6015
v 1516.239 89.72771 -248.9981
v 1520.147 82.16442 -244.365
v 1519.338 87.6569 -242.5437
v 1515.194 94.48985 -245.7231
v 1517.827 92.72878 -240.3003
v 1520.867 86.06973 -235.0134
v 1518.979 91.37898 -233.9775
v 1520.377 85.12155 -227.2611
v 1518.517 90.57263 -227.4104
v 1511.292 96.48987 -249.6392
v 1506.342 98.53298 -251.6005
v 1500.651 100.4192 -251.4337
v 1506.507 101.7455 -246.4717
v 1510.409 100.1402 -244.943
v 1513.501 98.56882 -241.9143
v 1515.528 97.18514 -237.7223
v 1516.392 96.12463 -232.8017
v 1516.007 95.49109 -227.6539
v 1516.521 90.3886 -221.2111
v 1514.437 95.3465 -222.7647
v 1513.241 90.84498 -215.9152
v 1514.182 85.44179 -213.7994
v 1509.211 86.67887 -209.1825
v 1508.962 91.89706 -211.9871
v 1503.21 88.49535 -206.6154
v 1502.343 83.09605 -204.3826
v 1509.098 81.07772 -207.2063
v 1503.883 93.44182 -209.7974
v 1498.254 95.32808 -209.6763
v 1492.596 97.37122 -211.6085
v 1487.659 99.37122 -215.2806
v 1491.94 102.4041 -218.0127
v 1489.256 103.7877 -222.0195
v 1488.025 104.8483 -226.7927
v 1483.005 103.2884 -232.9164
v 1485.322 103.4724 -239.3347
v 1489.356 103.0161 -244.9686
v 1494.735 101.964 -249.1551
v 1488.358 105.4818 -231.9209
v 1490.22 105.6264 -236.9199
v 1493.433 105.2678 -241.2771
v 1497.57 104.4412 -244.5311
v 1502.092 103.2275 -246.3308
v 1503.262 105.0168 -240.7273
v 1506.27 103.9959 -240.8349
v 1508.964 102.8902 -239.8124
v 1511.107 101.8079 -237.7658
v 1512.524 100.8548 -234.9143
v 1513.122 100.1243 -231.5484
v 1512.85 99.68786 -228.0061
v 1511.75 99.58827 -224.6244
v 1511.854 95.70507 -218.571
v 1508.414 96.53166 -215.4658
v 1504.373 97.74537 -213.767
v 1500.001 99.2274 -213.6547
v 1495.693 100.8327 -215.1279
v 1509.926 99.83525 -221.72
v 1498.802 103.3672 -219.3152
v 1496.342 104.4496 -221.298
v 1494.601 105.4027 -224.0749
v 1493.797 106.1332 -227.3818
v 1494.04 106.5696 -230.9138
v 1495.312 106.6692 -234.3351
v 1497.456 106.4222 -237.3031
v 1500.212 105.8528 -239.51
v 1502.58 106.1446 -234.295
v 1504.088 105.7184 -234.9305
v 1505.607 105.1979 -234.9899
v 1506.992 104.6342 -234.4801
v 1508.11 104.0825 -233.4519
v 1508.861 103.5966 -232.0116
v 1509.177 103.2242 -230.3051
v 1509.037 103.0017 -228.5006
v 1508.463 102.9509 -226.7709
v 1507.495 103.0768 -225.2856
v 1507.504 100.4046 -219.5801
v 1504.676 101.2406 -218.4019
v 1501.686 102.2615 -218.3146
v 1503.24 104.3137 -223.5365
v 1501.809 104.8774 -224.0428
v 1500.622 105.4292 -225.0548
v 1499.812 105.9151 -226.4732
v 1499.421 106.2875 -228.1695
v 1499.541 106.51 -229.973
v 1500.16 106.5608 -231.711
v 1501.209 106.4348 -233.2059
v 1504.585 105.3052 -229.1522
v 1506.216 103.3671 -224.1782
v 1504.755 103.7933 -223.581
v 1489.151 48.11917 -235.5555
v 1507.323 94.82355 -206.2352
v 1503.947 97.24248 -204.6164
v 1509.654 99.67635 -205.2798
v 1507.081 101.7227 -204.0529
v 1512.139 98.61446 -208.5225
v 1510.952 93.22591 -211.0456
v 1514.209 98.36199 -212.1334
v 1513.815 92.74171 -215.9138
v 1515.406 98.56746 -215.1257
v 1515.308 93.23852 -219.7408
v 1515.399 99.29502 -217.6806
v 1515.205 94.50885 -222.8758
v 1515.684 106.1658 -205.7868
v 1513.993 107.8627 -204.6574
v 1518.302 109.3786 -207.7151
v 1517.601 110.1796 -207.2619
v 1518.816 111.2094 -209.3188
v 1518.914 108.6272 -208.4268
v 1518.816 111.2094 -209.3188
v 1517.256 104.7629 -207.7692
v 1519.374 108.1322 -209.318
v 1518.816 111.2094 -209.3188
v 1518.42 103.7739 -210.2786
v 1519.588 107.9703 -210.2377
v 1518.816 111.2094 -209.3188
v 1518.944 103.4153 -212.7811
v 1519.495 108.2412 -211.0122
v 1518.816 111.2094 -209.3188
v 1518.63 103.8188 -214.6443
v 1519.136 108.8044 -211.6319
v 1517.671 105.0422 -215.9394
v 1514.118 101.2971 -219.3715
v 1513.222 97.21819 -225.2171
v 1515.205 94.50885 -222.8758
v 1514.118 101.2971 -219.3715
v 1515.399 99.29502 -217.6806
v 1511.686 104.6329 -219.9392
v 1509.375 101.3022 -227.6991
v 1508.633 107.7437 -219.3895
v 1505.108 104.8738 -227.5199
v 1505.401 109.8708 -218.5057
v 1500.288 108.0779 -225.9803
v 1502.381 111.037 -217.0355
v 1496.924 109.0379 -223.5181
v 1499.966 111.12 -215.0739
v 1494.09 108.9191 -220.6667
v 1498.806 109.8273 -212.5112
v 1493.168 107.2964 -217.2172
v 1499.308 108.0382 -210.0172
v 1494.412 105.0074 -213.5795
v 1501.55 106.0987 -207.1399
v 1497.356 102.5542 -209.373
v 1504.311 104.0494 -204.8598
v 1500.66 99.93076 -205.8766
v 1512.76 110.7367 -215.2014
v 1511.15 112.1812 -213.3703
v 1516.523 111.8797 -210.6107
v 1517.144 111.1973 -211.3482
v 1514.556 108.9064 -216.3493
v 1517.854 110.3981 -211.8519
v 1518.816 111.2094 -209.3188
v 1516.266 106.8916 -216.6515
v 1518.568 109.5615 -211.9742
v 1518.816 111.2094 -209.3188
v 1517.671 105.0422 -215.9394
v 1519.136 108.8044 -211.6319
v 1518.816 111.2094 -209.3188
v 1519.495 108.2412 -211.0122
v 1516.043 112.2396 -209.67
v 1518.816 111.2094 -209.3188
v 1510.075 112.9176 -211.0799
v 1515.83 112.3334 -208.7526
v 1518.816 111.2094 -209.3188
v 1509.654 112.967 -208.642
v 1515.919 112.1341 -207.9688
v 1518.816 111.2094 -209.3188
v 1516.308 111.6421 -207.411
v 1516.903 110.952 -207.1552
v 1509.932 112.3915 -206.6006
v 1510.844 111.197 -205.1376
v 1512.259 109.5998 -204.4189
v 1513.993 107.8627 -204.6574
v 1507.081 101.7227 -204.0529
v 1518.816 111.2094 -209.3188
v 1517.601 110.1796 -207.2619
v 1516.903 110.952 -207.1552
v 1503.947 97.24248 -204.6164
v 1500.66 99.93076 -205.8766
v 1507.081 101.7227 -204.0529
v 1497.676 95.65528 -209.7327
v 1494.823 98.08278 -213.5647
v 1500.66 99.93076 -205.8766
v 1492.15 100.3267 -218.3751
v 1490.434 102.4436 -222.0276
v 1490.783 103.917 -225.3262
v 1493.182 104.2224 -228.26
v 1495.858 103.7971 -231.0422
v 1500.91 100.4146 -232.8214
v 1505.171 97.46666 -232.5316
v 1509.368 93.84984 -228.7102
v 1507.081 101.7227 -204.0529
v 1500.66 99.93076 -205.8766
v 1504.311 104.0494 -204.8598
v 1500.66 99.93076 -205.8766
v 1494.823 98.08278 -213.5647
v 1497.356 102.5542 -209.373
v 1497.676 95.65528 -209.7327
v 1500.66 99.93076 -205.8766
v 1500.567 93.42005 -208.5547
v 1503.82 91.3563 -210.2782
v 1507.571 89.67112 -215.4111
v 1510.346 89.08324 -220.0807
v 1511.677 89.74596 -223.6074
v 1511.501 91.21584 -226.3904
v 1513.222 97.21819 -225.2171
v 1509.368 93.84984 -228.7102
v 1505.171 97.46666 -232.5316
v 1509.368 93.84984 -228.7102
v 1509.375 101.3022 -227.6991
v 1516.903 110.952 -207.1552
v 1517.601 110.1796 -207.2619
v 1512.259 109.5998 -204.4189
v 1512.259 109.5998 -204.4189
v 1517.601 110.1796 -207.2619
v 1513.993 107.8627 -204.6574
v 1512.259 109.5998 -204.4189
v 1513.993 107.8627 -204.6574
v 1504.311 104.0494 -204.8598
v 1503.428 81.75624 -249.3943
v 1501.877 77.40611 -251.0776
v 1511.24 79.02775 -255.7314
v 1510.02 74.86137 -256.6642
v 1513.981 82.56774 -252.6576
v 1506.721 86.3142 -244.6264
v 1517.005 85.01886 -249.3656
v 1510.47 89.11524 -240.7873
v 1519.369 86.24313 -246.5085
v 1514.249 89.68868 -238.3247
v 1520.954 85.97801 -243.7432
v 1517.132 88.44353 -236.2755
v 1522.131 83.43258 -241.6295
v 1519.13 84.77372 -234.2749
v 1520.932 77.46465 -257.4839
v 1520.42 74.67802 -258.266
v 1521.934 80.09256 -255.8027
v 1527.097 79.29983 -255.6626
v 1526.841 77.91116 -256.3915
v 1529.614 76.90682 -254.9416
v 1527.518 80.34904 -254.6897
v 1529.614 76.90682 -254.9416
v 1526.671 76.45372 -256.773
v 1529.614 76.90682 -254.9416
v 1523.142 82.18494 -253.4792
v 1528.011 80.87339 -253.6312
v 1529.614 76.90682 -254.9416
v 1524.279 83.27544 -251.0262
v 1528.522 80.68941 -252.6889
v 1529.614 76.90682 -254.9416
v 1528.966 79.96685 -251.8684
v 1525.043 83.01089 -249.0439
v 1525.671 81.51124 -247.5293
v 1529.259 78.82756 -251.3265
v 1526.186 79.08773 -246.5382
v 1519.927 78.95451 -229.7043
v 1519.13 84.77372 -234.2749
v 1522.945 78.60844 -240.5172
v 1522.945 78.60844 -240.5172
v 1519.13 84.77372 -234.2749
v 1522.131 83.43258 -241.6295
v 1526.186 79.08773 -246.5382
v 1526.214 76.16387 -246.4997
v 1529.28 77.4042 -251.2994
v 1529.259 78.82756 -251.3265
v 1529.614 76.90682 -254.9416
v 1529.07 75.92496 -251.7408
v 1529.614 76.90682 -254.9416
v 1525.703 73.18382 -247.2831
v 1528.721 74.57881 -252.4915
v 1529.614 76.90682 -254.9416
v 1524.771 70.52743 -248.796
v 1528.141 73.63042 -253.4955
v 1529.614 76.90682 -254.9416
v 1523.555 68.75721 -250.884
v 1527.599 73.17786 -254.5388
v 1529.614 76.90682 -254.9416
v 1522.299 68.00437 -253.2658
v 1527.155 73.29952 -255.4971
v 1529.614 76.90682 -254.9416
v 1526.828 73.9922 -256.2657
v 1526.647 75.09861 -256.7271
v 1521.303 68.34594 -255.4004
v 1520.589 69.75657 -257.0773
v 1520.259 71.97814 -258.1137
v 1519.076 65.11897 -241.006
v 1521.254 68.75347 -240.3923
v 1522.624 73.33105 -240.3777
v 1518.946 73.4041 -228.6577
v 1519.927 78.95451 -229.7043
v 1517.34 66.73857 -229.8487
v 1513.628 64.324 -231.3524
v 1516.359 62.85985 -242.2518
v 1508.913 62.76361 -232.5583
v 1513.342 62.71342 -244.5054
v 1505.135 63.6188 -234.7812
v 1511.2 64.23071 -247.4674
v 1503.344 66.40949 -238.5317
v 1510.117 67.10429 -251.6546
v 1502.583 69.7887 -244.5186
v 1509.788 70.68144 -255.1258
v 1501.736 73.48919 -249.4775
v 1529.614 76.90682 -254.9416
v 1529.259 78.82756 -251.3265
v 1528.966 79.96685 -251.8684
v 1529.614 76.90682 -254.9416
v 1526.671 76.45372 -256.773
v 1526.647 75.09861 -256.7271
v 1501.877 77.40611 -251.0776
v 1501.736 73.48919 -249.4775
v 1510.02 74.86137 -256.6642
v 1509.788 70.68144 -255.1258
v 1520.42 74.67802 -258.266
v 1510.02 74.86137 -256.6642
v 1510.02 74.86137 -256.6642
v 1501.736 73.48919 -249.4775
v 1509.788 70.68144 -255.1258
v 1526.647 75.09861 -256.7271
v 1526.671 76.45372 -256.773
v 1520.259 71.97814 -258.1137
v 1520.259 71.97814 -258.1137
v 1526.671 76.45372 -256.773
v 1520.42 74.67802 -258.266
v 1520.259 71.97814 -258.1137
v 1520.42 74.67802 -258.266
v 1509.788 70.68144 -255.1258
vt 0.872357 0.651116
vt 0.870118 0.654199
vt 0.882312 0.656496
vt 0.878124 0.662492
vt 0.884897 0.649533
vt 0.873725 0.647549
vt 0.885645 0.642253
vt 0.874095 0.643842
vt 0.884461 0.635332
vt 0.873438 0.640329
vt 0.881396 0.629522
vt 0.871777 0.637404
vt 0.876633 0.625408
vt 0.869269 0.635381
vt 0.870543 0.623423
vt 0.86614 0.634385
vt 0.863865 0.623834
vt 0.862747 0.634588
vt 0.857353 0.626606
vt 0.859434 0.635981
vt 0.851657 0.631451
vt 0.856519 0.638405
vt 0.847324 0.637839
vt 0.854285 0.641611
vt 0.84475 0.645074
vt 0.852943 0.645266
vt 0.844157 0.652407
vt 0.852609 0.649015
vt 0.84558 0.659122
vt 0.853305 0.652486
vt 0.848872 0.664599
vt 0.854996 0.655274
vt 0.853709 0.66825
vt 0.85747 0.65715
vt 0.859692 0.669962
vt 0.860538 0.658049
vt 0.866239 0.669533
vt 0.86389 0.657834
vt 0.872639 0.66697
vt 0.867192 0.656506
vt 0.839871 0.665929
vt 0.844674 0.673769
vt 0.851662 0.679006
vt 0.860306 0.681429
vt 0.869774 0.680811
vt 0.878771 0.67713
vt 0.886397 0.67067
vt 0.892195 0.661997
vt 0.895811 0.65191
vt 0.896899 0.641325
vt 0.895291 0.631248
vt 0.891092 0.622702
vt 0.884485 0.616686
vt 0.875873 0.613836
vt 0.866158 0.61445
vt 0.856676 0.6185
vt 0.848388 0.625556
vt 0.842134 0.634888
vt 0.838511 0.645524
vt 0.837743 0.656219
vt 0.869606 0.606946
vt 0.881946 0.606144
vt 0.857508 0.612118
vt 0.846945 0.621103
vt 0.838992 0.632968
vt 0.834444 0.646521
vt 0.833588 0.66019
vt 0.836366 0.672515
vt 0.842486 0.682438
vt 0.851428 0.689156
vt 0.862396 0.692158
vt 0.874383 0.691348
vt 0.885466 0.686674
vt 0.894755 0.678474
vt 0.901789 0.667466
vt 0.906215 0.654649
vt 0.907588 0.641141
vt 0.905673 0.628218
vt 0.900609 0.617306
vt 0.892605 0.609715
vt 0.910935 0.672747
vt 0.915961 0.657673
vt 0.917537 0.64174
vt 0.915372 0.626435
vt 0.909724 0.613645
vt 0.900699 0.604798
vt 0.888499 0.600663
vt 0.874078 0.601626
vt 0.85983 0.607707
vt 0.847401 0.618262
vt 0.838064 0.632185
vt 0.832762 0.648075
vt 0.8319 0.664234
vt 0.835238 0.678835
vt 0.842455 0.690532
vt 0.852963 0.698394
vt 0.865876 0.701912
vt 0.879847 0.700909
vt 0.892524 0.695341
vt 0.903008 0.685684
vt 0.919489 0.67768
vt 0.910972 0.692073
vt 0.924927 0.660908
vt 0.926623 0.643128
vt 0.92425 0.626022
vt 0.918202 0.611861
vt 0.908512 0.602059
vt 0.895331 0.59753
vt 0.927248 0.682062
vt 0.91835 0.69734
vt 0.932988 0.664252
vt 0.934722 0.645286
vt 0.932147 0.627009
vt 0.92585 0.611928
vt 0.915903 0.601557
vt 0.902242 0.596803
vt 0.933897 0.685667
vt 0.924987 0.701252
vt 0.939992 0.66756
vt 0.941704 0.64812
vt 0.938798 0.629339
vt 0.93255 0.613941
vt 0.922575 0.603411
vt 0.909016 0.598444
vt 0.939328 0.688175
vt 0.930519 0.703503
vt 0.945245 0.670378
vt 0.946964 0.651387
vt 0.94419 0.633064
vt 0.937945 0.617941
vt 0.928327 0.607488
vt 0.942946 0.68946
vt 0.934677 0.703983
vt 0.919084 0.715233
vt 0.913244 0.713144
vt 0.90669 0.708973
vt 0.892444 0.715736
vt 0.885944 0.709191
vt 0.870648 0.710366
vt 0.856275 0.706457
vt 0.844566 0.697695
vt 0.836491 0.684612
vt 0.832698 0.668227
vt 0.899682 0.702894
vt 0.861158 0.712886
vt 0.848693 0.703552
vt 0.876454 0.717052
vt 0.882962 0.721514
vt 0.867352 0.717282
vt 0.898977 0.720113
vt 0.88987 0.723557
vt 0.905284 0.722137
vt 0.923973 0.715145
vt 0.911113 0.721712
vt 0.937321 0.702802
vt 0.944852 0.68965
vt 0.950074 0.674547
vt 0.948596 0.672748
vt 0.950279 0.655017
vt 0.947722 0.6379
vt 0.941947 0.623507
vt 0.9517 0.658627
vt 0.949508 0.64335
vt 0.945338 0.688883
vt 0.949638 0.675948
vt 0.927695 0.712866
vt 0.879459 0.598626
vt 0.863595 0.605396
vt 0.885673 0.59788
vt 0.847401 0.618262
vt 0.85983 0.607707
vt 0.849779 0.617109
vt 0.863595 0.605396
vt 0.839416 0.632559
vt 0.838064 0.632185
vt 0.833573 0.650155
vt 0.832762 0.648075
vt 0.832698 0.668227
vt 0.8319 0.664234
vt 0.854164 0.617437
vt 0.868878 0.60495
vt 0.879459 0.598626
vt 0.885673 0.59788
vt 0.843094 0.633948
vt 0.83685 0.652717
vt 0.835913 0.671943
vt 0.840031 0.689514
vt 0.836491 0.684612
vt 0.848693 0.703552
vt 0.844566 0.697695
vt 0.87529 0.606719
vt 0.892467 0.599465
vt 0.902242 0.596803
vt 0.909016 0.598444
vt 0.860236 0.619514
vt 0.848895 0.636436
vt 0.84247 0.655688
vt 0.841394 0.675164
vt 0.845452 0.692881
vt 0.854375 0.707347
vt 0.867352 0.717282
vt 0.861158 0.712886
vt 0.899403 0.603573
vt 0.915331 0.602497
vt 0.922575 0.603411
vt 0.928327 0.607488
vt 0.882568 0.610689
vt 0.856612 0.63993
vt 0.867777 0.623263
vt 0.848997 0.677843
vt 0.852854 0.695053
vt 0.874317 0.718956
vt 0.88987 0.723557
vt 0.92088 0.608896
vt 0.932981 0.61356
vt 0.937945 0.617941
vt 0.941947 0.623507
vt 0.876514 0.628531
vt 0.865956 0.644299
vt 0.859805 0.662155
vt 0.850228 0.6589
vt 0.858458 0.679905
vt 0.861991 0.695985
vt 0.870098 0.70915
vt 0.861522 0.709114
vt 0.882132 0.71838
vt 0.896781 0.722938
vt 0.872552 0.695692
vt 0.86946 0.681272
vt 0.879817 0.707505
vt 0.890641 0.715799
vt 0.903538 0.719845
vt 0.884153 0.694196
vt 0.881611 0.681892
vt 0.870838 0.665342
vt 0.876547 0.649378
vt 0.886095 0.635147
vt 0.890467 0.616667
vt 0.898675 0.624436
vt 0.906193 0.609963
vt 0.912592 0.618337
vt 0.925515 0.61733
vt 0.936278 0.621487
vt 0.944327 0.630448
vt 0.947722 0.6379
vt 0.949508 0.64335
vt 0.945151 0.638732
vt 0.94956 0.649583
vt 0.9517 0.658627
vt 0.951117 0.662432
vt 0.950074 0.674547
vt 0.949638 0.675948
vt 0.938221 0.631102
vt 0.9291 0.627582
vt 0.918305 0.62849
vt 0.931468 0.639334
vt 0.938671 0.642069
vt 0.94418 0.647967
vt 0.947565 0.656359
vt 0.948706 0.666372
vt 0.947495 0.676988
vt 0.945338 0.688883
vt 0.944105 0.687212
vt 0.93875 0.700131
vt 0.937321 0.702802
vt 0.927695 0.712866
vt 0.930439 0.708712
vt 0.916263 0.718843
vt 0.911113 0.721712
vt 0.923973 0.715145
vt 0.920749 0.713817
vt 0.910101 0.714698
vt 0.899472 0.711316
vt 0.890315 0.704252
vt 0.901192 0.699494
vt 0.896387 0.691499
vt 0.894444 0.681775
vt 0.882905 0.668369
vt 0.8879 0.654897
vt 0.896124 0.642883
vt 0.906808 0.633747
vt 0.895536 0.671157
vt 0.899553 0.660655
vt 0.90611 0.651352
vt 0.914323 0.644237
vt 0.923098 0.640076
vt 0.926688 0.652435
vt 0.932387 0.651895
vt 0.937368 0.653712
vt 0.941198 0.657691
vt 0.943576 0.663401
vt 0.944372 0.670258
vt 0.943521 0.677576
vt 0.941144 0.684661
vt 0.938905 0.696137
vt 0.932199 0.702931
vt 0.924465 0.706901
vt 0.916194 0.707626
vt 0.908124 0.705054
vt 0.937462 0.690853
vt 0.91625 0.697063
vt 0.911739 0.693235
vt 0.908658 0.687685
vt 0.907416 0.680942
vt 0.908199 0.673626
vt 0.910946 0.666436
vt 0.915317 0.660094
vt 0.920778 0.65526
vt 0.925958 0.666356
vt 0.928871 0.664882
vt 0.931749 0.664594
vt 0.934314 0.665493
vt 0.936323 0.667489
vt 0.937598 0.670373
vt 0.938028 0.673853
vt 0.937594 0.677586
vt 0.936351 0.681215
vt 0.934391 0.684385
vt 0.932722 0.695541
vt 0.927294 0.698294
vt 0.921637 0.698811
vt 0.926199 0.68847
vt 0.923535 0.687584
vt 0.921378 0.685627
vt 0.919972 0.68279
vt 0.91938 0.679329
vt 0.919773 0.675593
vt 0.921111 0.67194
vt 0.923247 0.668746
vt 0.929661 0.676943
vt 0.931878 0.686813
vt 0.929066 0.688209
vt 0.862738 0.646058
vt 0.928834 0.721757
vt 0.923255 0.725972
vt 0.93679 0.725399
vt 0.932663 0.728675
vt 0.941346 0.718219
vt 0.935449 0.711126
vt 0.94554 0.71054
vt 0.941151 0.700752
vt 0.948187 0.704314
vt 0.944597 0.692883
vt 0.948636 0.699178
vt 0.945188 0.686711
vt 0.953628 0.726528
vt 0.951144 0.729489
vt 0.961223 0.723544
vt 0.960257 0.724773
vt 0.963491 0.720772
vt 0.962031 0.721786
vt 0.963491 0.720772
vt 0.956044 0.721871
vt 0.962682 0.719736
vt 0.963491 0.720772
vt 0.957863 0.716247
vt 0.96303 0.717739
vt 0.963491 0.720772
vt 0.958737 0.710852
vt 0.963009 0.716194
vt 0.963491 0.720772
vt 0.958334 0.707058
vt 0.962615 0.715074
vt 0.957099 0.704731
vt 0.947215 0.696271
vt 0.942738 0.682658
vt 0.945188 0.686711
vt 0.947215 0.696271
vt 0.948636 0.699178
vt 0.944213 0.69616
vt 0.93723 0.678735
vt 0.939748 0.698336
vt 0.930491 0.680249
vt 0.934269 0.7009
vt 0.922335 0.684524
vt 0.92862 0.704393
vt 0.915829 0.690035
vt 0.923565 0.708569
vt 0.909765 0.696022
vt 0.9203 0.713558
vt 0.90681 0.702776
vt 0.920238 0.718228
vt 0.908014 0.709697
vt 0.923756 0.723649
vt 0.912697 0.717747
vt 0.928291 0.727765
vt 0.91802 0.724229
vt 0.950378 0.708172
vt 0.947899 0.712527
vt 0.959073 0.718265
vt 0.959946 0.716475
vt 0.953003 0.70514
vt 0.960933 0.715142
vt 0.963491 0.720772
vt 0.955322 0.703837
vt 0.961901 0.714604
vt 0.963491 0.720772
vt 0.957099 0.704731
vt 0.962615 0.715074
vt 0.963491 0.720772
vt 0.963009 0.716194
vt 0.95829 0.720377
vt 0.963491 0.720772
vt 0.946095 0.717621
vt 0.9579 0.72235
vt 0.963491 0.720772
vt 0.945235 0.722798
vt 0.957959 0.723941
vt 0.963491 0.720772
vt 0.958465 0.724954
vt 0.959279 0.725261
vt 0.945457 0.726923
vt 0.946621 0.729611
vt 0.948592 0.730586
vt 0.951144 0.729489
vt 0.932663 0.728675
vt 0.963491 0.720772
vt 0.960257 0.724773
vt 0.959279 0.725261
vt 0.923255 0.725972
vt 0.91802 0.724229
vt 0.932663 0.728675
vt 0.90909 0.714688
vt 0.904593 0.707438
vt 0.91802 0.724229
vt 0.900353 0.698052
vt 0.898042 0.691047
vt 0.899686 0.684569
vt 0.904934 0.678481
vt 0.910313 0.67248
vt 0.918849 0.66767
vt 0.925969 0.667359
vt 0.932516 0.674253
vt 0.932663 0.728675
vt 0.91802 0.724229
vt 0.928291 0.727765
vt 0.91802 0.724229
vt 0.904593 0.707438
vt 0.912697 0.717747
vt 0.90909 0.714688
vt 0.91802 0.724229
vt 0.913775 0.716418
vt 0.919317 0.712118
vt 0.92613 0.700806
vt 0.931576 0.690833
vt 0.934781 0.683656
vt 0.935335 0.678289
vt 0.942738 0.682658
vt 0.932516 0.674253
vt 0.925969 0.667359
vt 0.932516 0.674253
vt 0.93723 0.678735
vt 0.959279 0.725261
vt 0.960257 0.724773
vt 0.948592 0.730586
vt 0.948592 0.730586
vt 0.960257 0.724773
vt 0.951144 0.729489
vt 0.948592 0.730586
vt 0.951144 0.729489
vt 0.928291 0.727765
vt 0.912554 0.627278
vt 0.906645 0.622499
vt 0.927167 0.613263
vt 0.92204 0.610131
vt 0.935098 0.620699
vt 0.922258 0.638589
vt 0.942958 0.628294
vt 0.931857 0.647467
vt 0.948676 0.634631
vt 0.940134 0.652801
vt 0.951824 0.640337
vt 0.945385 0.656713
vt 0.95267 0.643994
vt 0.947247 0.659773
vt 0.946395 0.609164
vt 0.943576 0.606745
vt 0.950144 0.61342
vt 0.960411 0.613485
vt 0.958994 0.611568
vt 0.964134 0.614303
vt 0.961958 0.615816
vt 0.964134 0.614303
vt 0.957715 0.610358
vt 0.964134 0.614303
vt 0.95399 0.618872
vt 0.963322 0.618176
vt 0.964134 0.614303
vt 0.957059 0.624313
vt 0.96427 0.620089
vt 0.964134 0.614303
vt 0.964736 0.621592
vt 0.958487 0.628377
vt 0.958844 0.6311
vt 0.96462 0.622392
vt 0.958377 0.632455
vt 0.945239 0.667523
vt 0.947247 0.659773
vt 0.951315 0.644868
vt 0.951315 0.644868
vt 0.947247 0.659773
vt 0.95267 0.643994
vt 0.958377 0.632455
vt 0.956579 0.631675
vt 0.963756 0.622036
vt 0.96462 0.622392
vt 0.964134 0.614303
vt 0.962376 0.620689
vt 0.964134 0.614303
vt 0.953629 0.629171
vt 0.960793 0.618737
vt 0.964134 0.614303
vt 0.950015 0.625251
vt 0.958984 0.616375
vt 0.964134 0.614303
vt 0.946377 0.620402
vt 0.957569 0.614075
vt 0.964134 0.614303
vt 0.943298 0.615242
vt 0.956723 0.612116
vt 0.964134 0.614303
vt 0.956482 0.610714
vt 0.956805 0.610068
vt 0.941444 0.610908
vt 0.940843 0.607825
vt 0.941547 0.606299
vt 0.934813 0.639834
vt 0.941598 0.642186
vt 0.947315 0.64358
vt 0.939711 0.667986
vt 0.945239 0.667523
vt 0.932218 0.66346
vt 0.923028 0.659605
vt 0.927782 0.636586
vt 0.912302 0.656633
vt 0.921444 0.631876
vt 0.904997 0.652287
vt 0.917938 0.626182
vt 0.902983 0.645349
vt 0.917458 0.618328
vt 0.903461 0.633922
vt 0.918976 0.612142
vt 0.903955 0.624694
vt 0.964134 0.614303
vt 0.96462 0.622392
vt 0.964736 0.621592
vt 0.964134 0.614303
vt 0.957715 0.610358
vt 0.956805 0.610068
vt 0.906645 0.622499
vt 0.903955 0.624694
vt 0.92204 0.610131
vt 0.918976 0.612142
vt 0.943576 0.606745
vt 0.92204 0.610131
vt 0.92204 0.610131
vt 0.903955 0.624694
vt 0.918976 0.612142
vt 0.956805 0.610068
vt 0.957715 0.610358
vt 0.941547 0.606299
vt 0.941547 0.606299
vt 0.957715 0.610358
vt 0.943576 0.606745
vt 0.941547 0.606299
vt 0.943576 0.606745
vt 0.918976 0.612142
vn -0.09155553 -0.995091 -0.0375697
vn -0.1284161 -0.9915801 0.01667655
vn 0.07260935 -0.9958096 0.05559944
vn -0.001077042 -0.9883991 0.1518747
vn 0.1119911 -0.9920589 -0.05724686
vn -0.07267933 -0.9922725 -0.1005632
vn 0.111504 -0.9783772 -0.1741981
vn -0.07441285 -0.983492 -0.1649431
vn 0.07166662 -0.9564593 -0.2829303
vn -0.09646249 -0.9696154 -0.2248134
vn -0.001614433 -0.9274534 -0.3739354
vn -0.1362706 -0.9518828 -0.2744987
vn -0.0955206 -0.8938778 -0.4380162
vn -0.1861205 -0.9330592 -0.3078309
vn -0.2000674 -0.8593611 -0.4706077
vn -0.2442716 -0.9139973 -0.3239448
vn -0.3132419 -0.8259571 -0.4686944
vn -0.3086866 -0.8951786 -0.3215091
vn -0.4212039 -0.7977816 -0.4314298
vn -0.3695007 -0.8795219 -0.299851
vn -0.5121613 -0.7778342 -0.3642316
vn -0.4201399 -0.8688807 -0.2617798
vn -0.5790856 -0.7674587 -0.2750764
vn -0.4564601 -0.8644129 -0.2107947
vn -0.6164399 -0.768427 -0.1718191
vn -0.4752156 -0.8666963 -0.1516829
vn -0.6201741 -0.7821414 -0.06032275
vn -0.4750918 -0.8753451 -0.08977087
vn -0.58898 -0.8066204 0.04966107
vn -0.4550578 -0.8899878 -0.02905342
vn -0.5230594 -0.8394427 0.1474614
vn -0.4170051 -0.9086099 0.02312714
vn -0.4302258 -0.8756037 0.2195995
vn -0.3645764 -0.9291704 0.06104451
vn -0.3211175 -0.9111317 0.2583075
vn -0.3024958 -0.9496965 0.08107242
vn -0.207644 -0.9433376 0.25884
vn -0.2386768 -0.9678256 0.07966813
vn -0.09813286 -0.970111 0.2219338
vn -0.1790845 -0.9821654 0.05727003
vn -0.7144493 -0.6849347 0.142921
vn -0.6190602 -0.7311996 0.286551
vn -0.4827094 -0.7826347 0.3930324
vn -0.3244639 -0.8324715 0.4491264
vn -0.1598551 -0.8784831 0.4502376
vn 0.00421184 -0.917948 0.3966784
vn 0.1549024 -0.9429057 0.2948456
vn 0.2704644 -0.9501251 0.1552781
vn 0.3329106 -0.9429215 -0.00834442
vn 0.333333 -0.9255518 -0.1795631
vn 0.2725944 -0.9000344 -0.3400445
vn 0.1582401 -0.8644935 -0.4770861
vn 0.0106515 -0.8175446 -0.5757668
vn -0.1482687 -0.7656047 -0.6259919
vn -0.313104 -0.7165493 -0.623316
vn -0.4699479 -0.6757069 -0.5679517
vn -0.6020561 -0.6477303 -0.4668768
vn -0.698547 -0.6339209 -0.3319281
vn -0.7523607 -0.6337403 -0.1797961
vn -0.7591518 -0.6506507 -0.01849823
vn -0.3011454 -0.5749139 -0.7607796
vn -0.08840481 -0.6379597 -0.7649784
vn -0.5020871 -0.5235307 -0.6883489
vn -0.6709043 -0.4888923 -0.5575586
vn -0.7941148 -0.4730626 -0.381567
vn -0.86167 -0.4741723 -0.1807913
vn -0.8695237 -0.4932096 0.02594021
vn -0.8121445 -0.5356873 0.2312153
vn -0.6891671 -0.5948463 0.4137711
vn -0.5140878 -0.6599708 0.5478615
vn -0.3132756 -0.722366 0.6164784
vn -0.1039952 -0.7794532 0.6177683
vn 0.1105333 -0.8271629 0.5509845
vn 0.3107394 -0.8526539 0.4200267
vn 0.4614183 -0.8531322 0.2434312
vn 0.5429224 -0.8388262 0.0400716
vn 0.5477424 -0.8184704 -0.173449
vn 0.4738194 -0.7948384 -0.3791133
vn 0.3254632 -0.7601358 -0.5623765
vn 0.1252714 -0.7049089 -0.6981478
vn 0.6219268 -0.7188815 0.3105099
vn 0.7127019 -0.6967963 0.08081333
vn 0.7230217 -0.6722941 -0.1589345
vn 0.6494654 -0.6492311 -0.3958455
vn 0.4846534 -0.6173791 -0.6196403
vn 0.2416478 -0.5595604 -0.7927789
vn -0.02237983 -0.4821855 -0.8757832
vn -0.2768967 -0.4076836 -0.8701278
vn -0.5143855 -0.3483057 -0.7836394
vn -0.7142819 -0.3089924 -0.6279531
vn -0.8601981 -0.2911849 -0.4186532
vn -0.9393616 -0.293966 -0.1765892
vn -0.9461787 -0.3160222 0.06982853
vn -0.8778268 -0.3653189 0.3097776
vn -0.731815 -0.4370034 0.5229481
vn -0.5249465 -0.5158207 0.6770231
vn -0.2901723 -0.5903696 0.7531691
vn -0.04310435 -0.6570675 0.7525984
vn 0.214568 -0.7072855 0.6735784
vn 0.4513118 -0.7276245 0.5166047
vn 0.7421924 -0.5677765 0.3560621
vn 0.569044 -0.579097 0.5838112
vn 0.8320461 -0.543484 0.1110154
vn 0.8462363 -0.5137662 -0.1411681
vn 0.7810035 -0.4854601 -0.3928894
vn 0.6177563 -0.4518962 -0.6435581
vn 0.3505819 -0.3920768 -0.8505105
vn 0.04642001 -0.3096619 -0.9497129
vn 0.8251816 -0.4095869 0.3889908
vn 0.6615816 -0.415618 0.6241565
vn 0.9085486 -0.395851 0.133572
vn 0.9241995 -0.3608125 -0.1251786
vn 0.8695292 -0.3201402 -0.3760708
vn 0.7178669 -0.2777714 -0.6383653
vn 0.4474194 -0.2118605 -0.8688677
vn 0.1162007 -0.1284737 -0.9848817
vn 0.8787129 -0.243901 0.4103363
vn 0.7272242 -0.2406671 0.6428252
vn 0.9587359 -0.2360044 0.1585166
vn 0.9715898 -0.210064 -0.109025
vn 0.9212506 -0.1607813 -0.3541844
vn 0.7874901 -0.1011561 -0.6079693
vn 0.5281198 -0.02560321 -0.8487837
vn 0.187514 0.06207141 -0.9802988
vn 0.9058354 -0.06934662 0.4179154
vn 0.7656983 -0.05326825 0.6409903
vn 0.9816929 -0.06713902 0.1782452
vn 0.9957042 -0.0428296 -0.0820899
vn 0.9466079 -0.0009781689 -0.3223857
vn 0.8255224 0.06521649 -0.5605887
vn 0.5866747 0.1554623 -0.7947605
vn 0.9039853 0.1030711 0.4149541
vn 0.7778308 0.1249658 0.6159244
vn 0.5308121 -0.01896501 0.8472772
vn 0.4761261 -0.211604 0.8535383
vn 0.4023074 -0.3987886 0.8240851
vn 0.09000631 -0.3434851 0.9348353
vn 0.02142741 -0.5133837 0.8578916
vn -0.2561415 -0.4384069 0.861505
vn -0.5162264 -0.3530083 0.7803175
vn -0.7463483 -0.2627996 0.6114742
vn -0.9087983 -0.1825557 0.3751788
vn -0.9856323 -0.1285809 0.1095257
vn 0.3131405 -0.564537 0.7637022
vn -0.4873714 -0.1725232 0.8559817
vn -0.7326603 -0.07374585 0.6765873
vn -0.2101043 -0.2639004 0.9413888
vn -0.1531767 -0.07395487 0.9854276
vn -0.4405899 0.03031248 0.8971965
vn 0.1584811 -0.1541457 0.9752553
vn -0.09362647 0.1303132 0.9870423
vn 0.2213856 0.04106785 0.9743212
vn 0.5639592 0.1689791 0.8083292
vn 0.2735544 0.2349869 0.9327106
vn 0.7650622 0.2797836 0.5800009
vn 0.881011 0.2508246 0.4011317
vn 0.946389 0.2485909 0.2062777
vn 0.9763376 0.09666786 0.1934429
vn 0.9922037 0.1126969 -0.05320838
vn 0.9481161 0.1547197 -0.2777367
vn 0.8380145 0.2247067 -0.4972311
vn 0.9654893 0.2597726 -0.01867601
vn 0.9267378 0.2961021 -0.2312586
vn 0.840922 0.3862461 0.3790304
vn 0.8989908 0.3851574 0.2084932
vn 0.5744128 0.333687 0.7474643
vn -0.2419555 -0.2299557 -0.9426441
vn -0.5066143 -0.1637455 -0.8464807
vn -0.1952016 -0.04412599 -0.9797701
vn -0.7142819 -0.3089924 -0.6279531
vn -0.5143855 -0.3483057 -0.7836394
vn -0.7295805 -0.1168646 -0.6738361
vn -0.5066143 -0.1637455 -0.8464807
vn -0.892911 -0.09572361 -0.4399399
vn -0.8601981 -0.2911849 -0.4186532
vn -0.9806508 -0.1009003 -0.1677586
vn -0.9393616 -0.293966 -0.1765892
vn -0.9856323 -0.1285809 0.1095257
vn -0.9461787 -0.3160222 0.06982853
vn -0.716638 0.07978974 -0.6928661
vn -0.4785597 0.02770013 -0.877618
vn -0.2419555 -0.2299557 -0.9426441
vn -0.1952016 -0.04412599 -0.9797701
vn -0.8897501 0.1046797 -0.4442823
vn -0.9830757 0.09695522 -0.1554403
vn -0.9881046 0.06087826 0.14122
vn -0.9049948 0.005941788 0.4253811
vn -0.9087983 -0.1825557 0.3751788
vn -0.7326603 -0.07374585 0.6765873
vn -0.7463483 -0.2627996 0.6114742
vn -0.4309108 0.2248508 -0.8739325
vn -0.138957 0.1498263 -0.9788988
vn 0.1162007 -0.1284737 -0.9848817
vn 0.187514 0.06207141 -0.9802988
vn -0.6744956 0.2774132 -0.6841765
vn -0.8506041 0.30116 -0.4310165
vn -0.9463661 0.2915165 -0.1393176
vn -0.9537744 0.2517567 0.1641128
vn -0.867229 0.1960611 0.4576832
vn -0.6891645 0.1263084 0.7135115
vn -0.4405899 0.03031248 0.8971965
vn -0.4873714 -0.1725232 0.8559817
vn -0.07676503 0.3421628 -0.9364997
vn 0.2532466 0.2523723 -0.9339028
vn 0.5281198 -0.02560321 -0.8487837
vn 0.5866747 0.1554623 -0.7947605
vn -0.3648314 0.4150573 -0.8334419
vn -0.7770294 0.4849401 -0.4013208
vn -0.6045163 0.4639313 -0.6475552
vn -0.8819745 0.4354099 0.1803859
vn -0.7948736 0.3806096 0.4725592
vn -0.3783905 0.2333969 0.895738
vn -0.09362647 0.1303132 0.9870423
vn 0.306137 0.4295252 -0.8495812
vn 0.6195 0.3233732 -0.7152968
vn 0.8255224 0.06521649 -0.5605887
vn 0.8380145 0.2247067 -0.4972311
vn -0.5102255 0.6304846 -0.5849437
vn -0.6723271 0.6485558 -0.3568634
vn -0.7643688 0.637903 -0.09391564
vn -0.8724836 0.4740139 -0.1186732
vn -0.7745708 0.6031834 0.1902889
vn -0.6910197 0.5493866 0.4697513
vn -0.5228744 0.4810134 0.7037247
vn -0.6170884 0.3132445 0.7218586
vn -0.3020914 0.4064677 0.8622788
vn -0.03515697 0.3225 0.9459164
vn -0.5605349 0.6958931 0.4489248
vn -0.6352968 0.7476154 0.1935698
vn -0.41148 0.6283593 0.6601884
vn -0.2150247 0.5549873 0.8035879
vn 0.02617686 0.482797 0.8753409
vn -0.4090352 0.8153793 0.409691
vn -0.4709212 0.8612992 0.1907795
vn -0.6260291 0.7771078 -0.06473758
vn -0.5428113 0.7847816 -0.2991213
vn -0.3959474 0.7701685 -0.5000662
vn -0.2845724 0.5857548 -0.7588874
vn -0.194339 0.7315066 -0.6535522
vn -0.01265954 0.5177281 -0.8554516
vn 0.05291229 0.6711436 -0.7394367
vn 0.3463938 0.5884644 -0.730562
vn 0.6285646 0.4811844 -0.6110386
vn 0.8248232 0.3735308 -0.4244305
vn 0.9481161 0.1547197 -0.2777367
vn 0.9267378 0.2961021 -0.2312586
vn 0.7847252 0.5182117 -0.3400924
vn 0.8802933 0.4436805 -0.1680216
vn 0.9654893 0.2597726 -0.01867601
vn 0.9140649 0.4050446 0.02059673
vn 0.946389 0.2485909 0.2062777
vn 0.8989908 0.3851574 0.2084932
vn 0.6124949 0.6219388 -0.4878957
vn 0.3730319 0.7223499 -0.5822868
vn 0.1193321 0.7969426 -0.5921507
vn 0.383658 0.8243455 -0.4162463
vn 0.5717321 0.7427157 -0.3485626
vn 0.7150436 0.6584314 -0.2349056
vn 0.8011037 0.5909253 -0.0950802
vn 0.8347675 0.5478937 0.05454958
vn 0.8240004 0.528114 0.2052288
vn 0.840922 0.3862461 0.3790304
vn 0.7733228 0.5310292 0.3463809
vn 0.7330095 0.4180323 0.536606
vn 0.7650622 0.2797836 0.5800009
vn 0.5744128 0.333687 0.7474643
vn 0.5654356 0.4741207 0.6749016
vn 0.3113785 0.4045741 0.8598623
vn 0.2735544 0.2349869 0.9327106
vn 0.5639592 0.1689791 0.8083292
vn 0.3365905 0.5471979 0.7663428
vn 0.09068865 0.6191856 0.7799903
vn -0.1194493 0.6852347 0.7184604
vn -0.2867924 0.752831 0.5924489
vn -0.1496558 0.8525017 0.5008433
vn -0.2437386 0.9027461 0.3544585
vn -0.2906649 0.9391537 0.1830419
vn -0.4642473 0.8851857 -0.0303432
vn -0.3935877 0.8900812 -0.2298785
vn -0.2672924 0.87779 -0.3975418
vn -0.09685343 0.8466857 -0.5232043
vn -0.2858467 0.958235 0.008787856
vn -0.2307001 0.9614184 -0.1498408
vn -0.1318584 0.9506106 -0.2809853
vn 0.005915401 0.9265007 -0.3762465
vn 0.1829749 0.886353 -0.4253217
vn 0.2410276 0.9387287 -0.2463614
vn 0.379713 0.8937239 -0.238905
vn 0.5097454 0.8382959 -0.1934414
vn 0.6143791 0.7803967 -0.1162729
vn 0.6823332 0.7307616 -0.0202214
vn 0.7121566 0.6965604 0.08738806
vn 0.7058297 0.6806218 0.1963628
vn 0.6659414 0.6839178 0.2979569
vn 0.6791258 0.5595244 0.4751006
vn 0.5350087 0.6123871 0.5820204
vn 0.3506839 0.6766822 0.6473963
vn 0.1563705 0.7383227 0.65607
vn -0.01497494 0.7960429 0.6050549
vn 0.5904781 0.7068521 0.3894813
vn 0.09654712 0.8800033 0.4650513
vn -0.001107595 0.9205083 0.3907215
vn -0.06795945 0.9550347 0.2886007
vn -0.1007036 0.9801318 0.1708809
vn -0.09775099 0.993911 0.0508479
vn -0.0596227 0.9964228 -0.05988834
vn 0.01168456 0.988422 -0.1512794
vn 0.1139869 0.9698028 -0.2156142
vn 0.2171199 0.9742517 -0.06076657
vn 0.2919768 0.9533881 -0.07616289
vn 0.3697234 0.9265094 -0.06989252
vn 0.4423197 0.8958131 -0.04326971
vn 0.501866 0.8649452 0.000526237
vn 0.5419444 0.8384983 0.05671756
vn 0.5595218 0.8200668 0.1201073
vn 0.5545036 0.8118287 0.1829203
vn 0.5274486 0.814487 0.2416793
vn 0.4793804 0.8273223 0.2928006
vn 0.4835193 0.7442904 0.460696
vn 0.3541235 0.7895829 0.5011539
vn 0.2190777 0.8359563 0.503172
vn 0.2642925 0.9003364 0.3457512
vn 0.1943872 0.9267592 0.3214515
vn 0.1382934 0.9506044 0.2778959
vn 0.09979533 0.9706926 0.2186249
vn 0.08183936 0.9850508 0.151582
vn 0.08563139 0.9926917 0.08503222
vn 0.110328 0.9936098 0.02381583
vn 0.1547074 0.9876143 -0.02614894
vn 0.3257532 0.9350621 0.1397996
vn 0.415426 0.8477284 0.3298148
vn 0.3409452 0.8731162 0.34846
vn -0.2808078 -0.9508316 -0.1306378
vn 0.2853256 -0.6087831 0.7402516
vn -0.1922908 -0.320772 0.9274318
vn 0.4284275 -0.3757614 0.821738
vn 0.02965703 -0.07821532 0.9964953
vn 0.6571862 -0.5116177 0.5534922
vn 0.5590388 -0.6546035 0.5088909
vn 0.7726014 -0.511412 0.3762243
vn 0.7197049 -0.598132 0.3525096
vn 0.9152896 -0.3931849 0.08746801
vn 0.9001495 -0.4328786 0.04844619
vn 0.941938 -0.07324032 -0.3277021
vn 0.9270647 -0.09536181 -0.3625703
vn 0.531904 -0.204522 0.8217353
vn 0.319477 0.03296214 0.9470206
vn 0.6987128 0.09310523 0.7093179
vn 0.5722574 0.2877737 0.7679242
vn 0.8018724 0.5363343 0.2633363
vn 0.8103754 -0.03854123 0.584642
vn 0.8282393 0.4823864 0.2851718
vn 0.6883627 -0.389637 0.6118333
vn 0.9163411 -0.09489888 0.38899
vn 0.8322339 0.5074835 0.2232648
vn 0.8046721 -0.4619444 0.3729749
vn 0.9935603 -0.03537507 0.1076407
vn 0.8093927 0.5730324 0.1285197
vn 0.9231585 -0.3833675 0.02842063
vn 0.9723969 0.1251749 -0.196915
vn 0.7629939 0.6386687 0.09971303
vn 0.9189918 -0.1432427 -0.3673358
vn 0.8666239 0.2950009 -0.4024143
vn 0.7642531 0.1419767 -0.6290945
vn 0.7633153 0.2432101 -0.598497
vn 0.7728758 0.2163125 -0.5965499
vn 0.9270647 -0.09536181 -0.3625703
vn 0.7633153 0.2432101 -0.598497
vn 0.941938 -0.07324032 -0.3277021
vn 0.5772927 0.4747621 -0.6643298
vn 0.6378211 0.4420472 -0.6306969
vn 0.4007885 0.6736684 -0.6209183
vn 0.4010508 0.676576 -0.6175785
vn 0.2453263 0.8259947 -0.5074916
vn 0.1446064 0.8302031 -0.5383789
vn 0.01455599 0.9507891 -0.3094967
vn -0.2243606 0.9025306 -0.3675604
vn -0.2500316 0.9680991 -0.01637997
vn -0.5557684 0.8261452 -0.09276578
vn -0.4968838 0.7898188 0.3595729
vn -0.8019739 0.5077906 0.3146214
vn -0.574989 0.5126891 0.637603
vn -0.8070971 0.1901377 0.5589651
vn -0.509481 0.326662 0.796066
vn -0.7359125 0.09944586 0.6697338
vn -0.3201563 0.1761277 0.9308485
vn -0.571245 -0.007090149 0.8207491
vn 0.2731872 0.7714625 -0.5746428
vn 0.1455921 0.9126278 -0.3819862
vn 0.3245082 0.8797068 -0.3475779
vn 0.4269594 0.7678524 -0.477607
vn 0.3937682 0.6116396 -0.6861805
vn 0.5477891 0.6473743 -0.5299373
vn 0.6936727 0.7170641 -0.06809834
vn 0.5711699 0.3923615 -0.7209837
vn 0.7194225 0.4702655 -0.5111572
vn 0.7284303 0.6844512 -0.03026657
vn 0.7642531 0.1419767 -0.6290945
vn 0.8666239 0.2950009 -0.4024143
vn 0.7629939 0.6386687 0.09971303
vn 0.9723969 0.1251749 -0.196915
vn 0.2410613 0.9586626 -0.1511806
vn 0.6632617 0.7478372 -0.02869283
vn 0.02278904 0.9898859 -0.1400229
vn 0.2156617 0.9741068 0.06786586
vn 0.6859877 0.7271554 0.02580344
vn -0.09866815 0.9792839 0.1768261
vn 0.2439113 0.9080024 0.3406452
vn 0.7629939 0.6386687 0.09971303
vn 0.3255785 0.7388794 0.5899626
vn 0.4400703 0.5197781 0.7322355
vn -0.1497457 0.8320104 0.5341676
vn -0.08384167 0.5761222 0.8130521
vn 0.0915861 0.2997478 0.9496121
vn 0.319477 0.03296214 0.9470206
vn 0.02965703 -0.07821532 0.9964953
vn 0.7801448 0.5813761 0.2310319
vn 0.5722574 0.2877737 0.7679242
vn 0.4400703 0.5197781 0.7322355
vn -0.1922908 -0.320772 0.9274318
vn -0.571245 -0.007090149 0.8207491
vn 0.02965703 -0.07821532 0.9964953
vn -0.6485585 -0.2067748 0.7325408
vn -0.8168431 -0.03466995 0.5758171
vn -0.571245 -0.007090149 0.8207491
vn -0.8756976 -0.03182687 0.4818101
vn -0.9318031 0.1869815 0.3110961
vn -0.8047496 0.5862527 -0.09319723
vn -0.4718691 0.7666758 -0.435371
vn -0.1257467 0.7828532 -0.6093674
vn 0.2700926 0.6170363 -0.7391319
vn 0.5231565 0.3866705 -0.759469
vn 0.6790444 0.04609503 -0.7326487
vn 0.02965703 -0.07821532 0.9964953
vn -0.571245 -0.007090149 0.8207491
vn -0.3201563 0.1761277 0.9308485
vn -0.571245 -0.007090149 0.8207491
vn -0.8168431 -0.03466995 0.5758171
vn -0.7359125 0.09944586 0.6697338
vn -0.6485585 -0.2067748 0.7325408
vn -0.571245 -0.007090149 0.8207491
vn -0.2637991 -0.5853497 0.7666653
vn 0.1541346 -0.813741 0.5604177
vn 0.3825638 -0.8359317 0.3935264
vn 0.5729243 -0.7938864 0.2037209
vn 0.75731 -0.6318393 -0.1651077
vn 0.7646495 -0.2298073 -0.6020795
vn 0.7728758 0.2163125 -0.5965499
vn 0.6790444 0.04609503 -0.7326487
vn 0.5231565 0.3866705 -0.759469
vn 0.6790444 0.04609503 -0.7326487
vn 0.6378211 0.4420472 -0.6306969
vn 0.4400703 0.5197781 0.7322355
vn 0.5722574 0.2877737 0.7679242
vn 0.0915861 0.2997478 0.9496121
vn 0.0915861 0.2997478 0.9496121
vn 0.5722574 0.2877737 0.7679242
vn 0.319477 0.03296214 0.9470206
vn 0.0915861 0.2997478 0.9496121
vn 0.319477 0.03296214 0.9470206
vn -0.3201563 0.1761277 0.9308485
vn -0.3217867 0.6707119 -0.6682805
vn -0.5385065 0.175015 -0.8242454
vn -0.248945 0.520317 -0.8168823
vn -0.3772072 0.0009206384 -0.9261284
vn -0.1241258 0.774729 -0.6199901
vn -0.1646348 0.8298188 -0.5331942
vn -0.004735952 0.8712325 -0.4908478
vn -0.004842567 0.9063568 -0.4224856
vn 0.2592783 0.9267264 -0.2719429
vn 0.3099829 0.9320216 -0.1877405
vn 0.6299437 0.7736653 0.06791762
vn 0.7055195 0.6964802 0.1309869
vn 0.8432055 0.4272645 0.3262661
vn 0.8874068 0.3734003 0.2703356
vn 0.009700811 0.3880874 -0.9215716
vn 0.002222696 0.05606416 -0.9984246
vn 0.02784414 0.6491647 -0.7601381
vn 0.3034846 0.4806938 -0.8226971
vn 0.3035128 0.2852877 -0.9091155
vn 0.7732391 0.1325778 -0.6201003
vn 0.3609991 0.6445321 -0.6739867
vn 0.8132622 0.1248494 -0.568346
vn 0.3427737 0.05128731 -0.938017
vn 0.7979354 0.07769282 -0.5977148
vn 0.09999046 0.8162746 -0.5689445
vn 0.5189576 0.7408177 -0.4264648
vn 0.8471314 0.1015151 -0.5215968
vn 0.3261877 0.9026989 -0.2806
vn 0.722784 0.6837081 -0.1006294
vn 0.8939161 -0.004688921 -0.4482099
vn 0.8566964 0.4880712 0.1669063
vn 0.6177095 0.7815268 0.08746887
vn 0.7884879 0.4917528 0.3694133
vn 0.9202569 0.2220595 0.3222062
vn 0.8531232 0.1715626 0.4926937
vn 0.9596104 0.05277637 0.2763377
vn 0.8874068 0.3734003 0.2703356
vn 0.9134721 0.1227536 0.3879435
vn 0.9134721 0.1227536 0.3879435
vn 0.8874068 0.3734003 0.2703356
vn 0.8432055 0.4272645 0.3262661
vn 0.8531232 0.1715626 0.4926937
vn 0.8675091 -0.133644 0.4791318
vn 0.9288993 -0.07823156 0.3619752
vn 0.9202569 0.2220595 0.3222062
vn 0.9450163 -0.04467446 -0.3239574
vn 0.9076643 -0.2877667 0.3055091
vn 0.955816 -0.08646306 -0.2809624
vn 0.854732 -0.3583449 0.3755289
vn 0.8710818 -0.4609223 0.1696084
vn 0.9589591 -0.1401525 -0.2464848
vn 0.7995756 -0.5661363 0.2004208
vn 0.8074102 -0.5893255 -0.02800683
vn 0.9415942 -0.1338703 -0.3089971
vn 0.6926367 -0.7212728 -0.004468275
vn 0.7371269 -0.6289591 -0.2470917
vn 0.9248403 -0.1107169 -0.3638847
vn 0.5128024 -0.818837 -0.257953
vn 0.6384951 -0.5748805 -0.5116995
vn 0.8939161 -0.004688921 -0.4482099
vn 0.5198916 -0.4147696 -0.746779
vn 0.4185201 -0.1970029 -0.8865837
vn 0.2922703 -0.7838665 -0.5478426
vn 0.11079 -0.5934753 -0.7971904
vn 0.02340924 -0.2934912 -0.9556751
vn 0.6916395 -0.7023012 0.1685461
vn 0.8766214 -0.3901581 0.2816229
vn 0.9174655 -0.1678164 0.3606866
vn 0.9303806 -0.2204205 0.2929274
vn 0.9596104 0.05277637 0.2763377
vn 0.777188 -0.5806909 0.2424395
vn 0.4344671 -0.8748299 0.2142683
vn 0.4077037 -0.9128968 0.01992595
vn 0.03913796 -0.9979889 0.04986418
vn 0.006533111 -0.9749714 -0.2222342
vn -0.3734274 -0.9062826 -0.1979997
vn -0.2996942 -0.8524897 -0.4283046
vn -0.5801842 -0.7444044 -0.3305274
vn -0.4163963 -0.7011107 -0.578842
vn -0.606879 -0.6692178 -0.428772
vn -0.4282948 -0.4645247 -0.7751002
vn -0.6097849 -0.4268151 -0.6678259
vn 0.8939161 -0.004688921 -0.4482099
vn 0.9202569 0.2220595 0.3222062
vn 0.8566964 0.4880712 0.1669063
vn 0.8233977 0.03351026 -0.5664744
vn 0.3427737 0.05128731 -0.938017
vn 0.4185201 -0.1970029 -0.8865837
vn -0.5385065 0.175015 -0.8242454
vn -0.6097849 -0.4268151 -0.6678259
vn -0.3772072 0.0009206384 -0.9261284
vn -0.4282948 -0.4645247 -0.7751002
vn 0.002222696 0.05606416 -0.9984246
vn -0.3772072 0.0009206384 -0.9261284
vn -0.3772072 0.0009206384 -0.9261284
vn -0.6097849 -0.4268151 -0.6678259
vn -0.4282948 -0.4645247 -0.7751002
vn 0.4185201 -0.1970029 -0.8865837
vn 0.3427737 0.05128731 -0.938017
vn 0.02340924 -0.2934912 -0.9556751
vn 0.02340924 -0.2934912 -0.9556751
vn 0.3427737 0.05128731 -0.938017
vn 0.002222696 0.05606416 -0.9984246
vn 0.02340924 -0.2934912 -0.9556751
vn 0.002222696 0.05606416 -0.9984246
vn -0.4282948 -0.4645247 -0.7751002
g BRM_Rookery_Egg4_0
f 3/3/3 2/2/2 1/1/1
f 4/4/4 2/2/2 3/3/3
f 3/3/3 1/1/1 5/5/5
f 5/5/5 1/1/1 6/6/6
f 5/5/5 6/6/6 7/7/7
f 7/7/7 6/6/6 8/8/8
f 7/7/7 8/8/8 9/9/9
f 9/9/9 8/8/8 10/10/10
f 9/9/9 10/10/10 11/11/11
f 11/11/11 10/10/10 12/12/12
f 11/11/11 12/12/12 13/13/13
f 13/13/13 12/12/12 14/14/14
f 13/13/13 14/14/14 15/15/15
f 15/15/15 14/14/14 16/16/16
f 15/15/15 16/16/16 17/17/17
f 17/17/17 16/16/16 18/18/18
f 17/17/17 18/18/18 19/19/19
f 19/19/19 18/18/18 20/20/20
f 19/19/19 20/20/20 21/21/21
f 21/21/21 20/20/20 22/22/22
f 21/21/21 22/22/22 23/23/23
f 23/23/23 22/22/22 24/24/24
f 23/23/23 24/24/24 25/25/25
f 25/25/25 24/24/24 26/26/26
f 25/25/25 26/26/26 27/27/27
f 27/27/27 26/26/26 28/28/28
f 27/27/27 28/28/28 29/29/29
f 29/29/29 28/28/28 30/30/30
f 29/29/29 30/30/30 31/31/31
f 31/31/31 30/30/30 32/32/32
f 31/31/31 32/32/32 33/33/33
f 33/33/33 32/32/32 34/34/34
f 33/33/33 34/34/34 35/35/35
f 35/35/35 34/34/34 36/36/36
f 35/35/35 36/36/36 37/37/37
f 37/37/37 36/36/36 38/38/38
f 37/37/37 38/38/38 39/39/39
f 39/39/39 38/38/38 40/40/40
f 39/39/39 40/40/40 4/4/4
f 4/4/4 40/40/40 2/2/2
f 41/41/41 27/27/27 29/29/29
f 42/42/42 29/29/29 31/31/31
f 41/41/41 29/29/29 42/42/42
f 43/43/43 31/31/31 33/33/33
f 42/42/42 31/31/31 43/43/43
f 44/44/44 33/33/33 35/35/35
f 43/43/43 33/33/33 44/44/44
f 45/45/45 35/35/35 37/37/37
f 44/44/44 35/35/35 45/45/45
f 46/46/46 37/37/37 39/39/39
f 45/45/45 37/37/37 46/46/46
f 47/47/47 39/39/39 4/4/4
f 46/46/46 39/39/39 47/47/47
f 47/47/47 4/4/4 48/48/48
f 48/48/48 4/4/4 3/3/3
f 48/48/48 3/3/3 49/49/49
f 49/49/49 3/3/3 5/5/5
f 49/49/49 5/5/5 50/50/50
f 50/50/50 5/5/5 7/7/7
f 50/50/50 7/7/7 51/51/51
f 51/51/51 7/7/7 9/9/9
f 51/51/51 9/9/9 52/52/52
f 52/52/52 9/9/9 11/11/11
f 52/52/52 11/11/11 53/53/53
f 53/53/53 11/11/11 13/13/13
f 53/53/53 13/13/13 54/54/54
f 54/54/54 13/13/13 15/15/15
f 54/54/54 15/15/15 55/55/55
f 55/55/55 15/15/15 17/17/17
f 55/55/55 17/17/17 56/56/56
f 56/56/56 17/17/17 19/19/19
f 56/56/56 19/19/19 57/57/57
f 57/57/57 19/19/19 21/21/21
f 57/57/57 21/21/21 58/58/58
f 58/58/58 21/21/21 23/23/23
f 58/58/58 23/23/23 59/59/59
f 59/59/59 23/23/23 25/25/25
f 59/59/59 25/25/25 60/60/60
f 60/60/60 25/25/25 27/27/27
f 60/60/60 27/27/27 41/41/41
f 61/61/61 54/54/54 55/55/55
f 62/62/62 54/54/54 61/61/61
f 63/63/63 55/55/55 56/56/56
f 61/61/61 55/55/55 63/63/63
f 64/64/64 56/56/56 57/57/57
f 63/63/63 56/56/56 64/64/64
f 65/65/65 57/57/57 58/58/58
f 64/64/64 57/57/57 65/65/65
f 66/66/66 58/58/58 59/59/59
f 65/65/65 58/58/58 66/66/66
f 67/67/67 59/59/59 60/60/60
f 66/66/66 59/59/59 67/67/67
f 68/68/68 60/60/60 41/41/41
f 67/67/67 60/60/60 68/68/68
f 68/68/68 41/41/41 69/69/69
f 69/69/69 41/41/41 42/42/42
f 69/69/69 42/42/42 70/70/70
f 70/70/70 42/42/42 43/43/43
f 70/70/70 43/43/43 71/71/71
f 71/71/71 43/43/43 44/44/44
f 71/71/71 44/44/44 72/72/72
f 72/72/72 44/44/44 45/45/45
f 72/72/72 45/45/45 73/73/73
f 73/73/73 45/45/45 46/46/46
f 73/73/73 46/46/46 74/74/74
f 74/74/74 46/46/46 47/47/47
f 74/74/74 47/47/47 75/75/75
f 75/75/75 47/47/47 48/48/48
f 75/75/75 48/48/48 76/76/76
f 76/76/76 48/48/48 49/49/49
f 76/76/76 49/49/49 77/77/77
f 77/77/77 49/49/49 50/50/50
f 77/77/77 50/50/50 78/78/78
f 78/78/78 50/50/50 51/51/51
f 78/78/78 51/51/51 79/79/79
f 79/79/79 51/51/51 52/52/52
f 79/79/79 52/52/52 80/80/80
f 80/80/80 52/52/52 53/53/53
f 80/80/80 53/53/53 62/62/62
f 62/62/62 53/53/53 54/54/54
f 81/81/81 74/74/74 75/75/75
f 82/82/82 75/75/75 76/76/76
f 81/81/81 75/75/75 82/82/82
f 83/83/83 76/76/76 77/77/77
f 82/82/82 76/76/76 83/83/83
f 84/84/84 77/77/77 78/78/78
f 83/83/83 77/77/77 84/84/84
f 85/85/85 78/78/78 79/79/79
f 84/84/84 78/78/78 85/85/85
f 86/86/86 79/79/79 80/80/80
f 85/85/85 79/79/79 86/86/86
f 87/87/87 80/80/80 62/62/62
f 86/86/86 80/80/80 87/87/87
f 87/87/87 62/62/62 88/88/88
f 88/88/88 62/62/62 61/61/61
f 88/88/88 61/61/61 89/89/89
f 89/89/89 61/61/61 63/63/63
f 89/89/89 63/63/63 90/90/90
f 90/90/90 63/63/63 64/64/64
f 90/90/90 64/64/64 91/91/91
f 91/91/91 64/64/64 65/65/65
f 91/91/91 65/65/65 92/92/92
f 92/92/92 65/65/65 66/66/66
f 92/92/92 66/66/66 93/93/93
f 93/93/93 66/66/66 67/67/67
f 93/93/93 67/67/67 94/94/94
f 94/94/94 67/67/67 68/68/68
f 94/94/94 68/68/68 95/95/95
f 95/95/95 68/68/68 69/69/69
f 95/95/95 69/69/69 96/96/96
f 96/96/96 69/69/69 70/70/70
f 96/96/96 70/70/70 97/97/97
f 97/97/97 70/70/70 71/71/71
f 97/97/97 71/71/71 98/98/98
f 98/98/98 71/71/71 72/72/72
f 98/98/98 72/72/72 99/99/99
f 99/99/99 72/72/72 73/73/73
f 99/99/99 73/73/73 100/100/100
f 100/100/100 73/73/73 74/74/74
f 100/100/100 74/74/74 81/81/81
f 101/101/101 100/100/100 81/81/81
f 102/102/102 100/100/100 101/101/101
f 102/102/102 99/99/99 100/100/100
f 101/101/101 81/81/81 103/103/103
f 103/103/103 81/81/81 82/82/82
f 103/103/103 82/82/82 104/104/104
f 104/104/104 82/82/82 83/83/83
f 104/104/104 83/83/83 105/105/105
f 105/105/105 83/83/83 84/84/84
f 105/105/105 84/84/84 106/106/106
f 106/106/106 84/84/84 85/85/85
f 106/106/106 85/85/85 107/107/107
f 107/107/107 85/85/85 86/86/86
f 107/107/107 86/86/86 108/108/108
f 108/108/108 86/86/86 87/87/87
f 109/109/109 102/102/102 101/101/101
f 110/110/110 102/102/102 109/109/109
f 111/111/111 101/101/101 103/103/103
f 109/109/109 101/101/101 111/111/111
f 112/112/112 103/103/103 104/104/104
f 111/111/111 103/103/103 112/112/112
f 113/113/113 104/104/104 105/105/105
f 112/112/112 104/104/104 113/113/113
f 114/114/114 105/105/105 106/106/106
f 113/113/113 105/105/105 114/114/114
f 115/115/115 106/106/106 107/107/107
f 114/114/114 106/106/106 115/115/115
f 115/115/115 107/107/107 116/116/116
f 116/116/116 107/107/107 108/108/108
f 117/117/117 110/110/110 109/109/109
f 118/118/118 110/110/110 117/117/117
f 119/119/119 109/109/109 111/111/111
f 117/117/117 109/109/109 119/119/119
f 120/120/120 111/111/111 112/112/112
f 119/119/119 111/111/111 120/120/120
f 121/121/121 112/112/112 113/113/113
f 120/120/120 112/112/112 121/121/121
f 122/122/122 113/113/113 114/114/114
f 121/121/121 113/113/113 122/122/122
f 123/123/123 114/114/114 115/115/115
f 122/122/122 114/114/114 123/123/123
f 123/123/123 115/115/115 124/124/124
f 124/124/124 115/115/115 116/116/116
f 125/125/125 118/118/118 117/117/117
f 126/126/126 118/118/118 125/125/125
f 127/127/127 117/117/117 119/119/119
f 125/125/125 117/117/117 127/127/127
f 128/128/128 119/119/119 120/120/120
f 127/127/127 119/119/119 128/128/128
f 129/129/129 120/120/120 121/121/121
f 128/128/128 120/120/120 129/129/129
f 130/130/130 121/121/121 122/122/122
f 129/129/129 121/121/121 130/130/130
f 131/131/131 122/122/122 123/123/123
f 130/130/130 122/122/122 131/131/131
f 132/132/132 126/126/126 125/125/125
f 133/133/133 126/126/126 132/132/132
f 133/133/133 134/134/134 126/126/126
f 134/134/134 135/135/135 126/126/126
f 126/126/126 135/135/135 118/118/118
f 135/135/135 136/136/136 118/118/118
f 135/135/135 137/137/137 136/136/136
f 137/137/137 138/138/138 136/136/136
f 137/137/137 139/139/139 138/138/138
f 139/139/139 97/97/97 138/138/138
f 139/139/139 96/96/96 97/97/97
f 140/140/140 96/96/96 139/139/139
f 140/140/140 95/95/95 96/96/96
f 141/141/141 95/95/95 140/140/140
f 141/141/141 94/94/94 95/95/95
f 142/142/142 94/94/94 141/141/141
f 142/142/142 93/93/93 94/94/94
f 143/143/143 93/93/93 142/142/142
f 138/138/138 97/97/97 98/98/98
f 138/138/138 98/98/98 144/144/144
f 136/136/136 138/138/138 144/144/144
f 144/144/144 98/98/98 99/99/99
f 144/144/144 99/99/99 102/102/102
f 145/145/145 141/141/141 140/140/140
f 146/146/146 141/141/141 145/145/145
f 147/147/147 140/140/140 139/139/139
f 145/145/145 140/140/140 147/147/147
f 110/110/110 144/144/144 102/102/102
f 136/136/136 144/144/144 110/110/110
f 148/148/148 145/145/145 147/147/147
f 149/149/149 145/145/145 148/148/148
f 148/148/148 147/147/147 150/150/150
f 150/150/150 147/147/147 137/137/137
f 147/147/147 139/139/139 137/137/137
f 150/150/150 137/137/137 135/135/135
f 118/118/118 136/136/136 110/110/110
f 151/151/151 149/149/149 148/148/148
f 152/152/152 148/148/148 150/150/150
f 151/151/151 148/148/148 152/152/152
f 134/134/134 150/150/150 135/135/135
f 152/152/152 150/150/150 134/134/134
f 153/153/153 152/152/152 134/134/134
f 154/154/154 152/152/152 153/153/153
f 154/154/154 151/151/151 152/152/152
f 153/153/153 134/134/134 133/133/133
f 155/155/155 153/153/153 133/133/133
f 155/155/155 133/133/133 156/156/156
f 156/156/156 133/133/133 132/132/132
f 156/156/156 132/132/132 157/157/157
f 157/157/157 132/132/132 158/158/158
f 132/132/132 125/125/125 158/158/158
f 158/158/158 125/125/125 127/127/127
f 158/158/158 127/127/127 159/159/159
f 159/159/159 127/127/127 128/128/128
f 159/159/159 128/128/128 160/160/160
f 160/160/160 128/128/128 129/129/129
f 160/160/160 129/129/129 161/161/161
f 161/161/161 129/129/129 130/130/130
f 162/162/162 158/158/158 159/159/159
f 157/157/157 158/158/158 162/162/162
f 163/163/163 159/159/159 160/160/160
f 162/162/162 159/159/159 163/163/163
f 164/164/164 155/155/155 156/156/156
f 165/165/165 156/156/156 157/157/157
f 164/164/164 156/156/156 165/165/165
f 166/166/166 153/153/153 155/155/155
f 167/167/167 87/87/87 88/88/88
f 108/108/108 87/87/87 167/167/167
f 167/167/167 88/88/88 168/168/168
f 168/168/168 88/88/88 89/89/89
f 169/169/169 108/108/108 167/167/167
f 116/116/116 108/108/108 169/169/169
f 172/172/172 171/171/171 170/170/170
f 173/173/173 171/171/171 172/172/172
f 172/172/172 170/170/170 174/174/174
f 174/174/174 170/170/170 175/175/175
f 174/174/174 175/175/175 176/176/176
f 176/176/176 175/175/175 177/177/177
f 176/176/176 177/177/177 178/178/178
f 178/178/178 177/177/177 179/179/179
f 180/180/180 173/173/173 172/172/172
f 181/181/181 173/173/173 180/180/180
f 181/181/181 182/182/182 173/173/173
f 183/183/183 182/182/182 181/181/181
f 184/184/184 172/172/172 174/174/174
f 180/180/180 172/172/172 184/184/184
f 185/185/185 174/174/174 176/176/176
f 184/184/184 174/174/174 185/185/185
f 186/186/186 176/176/176 178/178/178
f 185/185/185 176/176/176 186/186/186
f 186/186/186 178/178/178 187/187/187
f 187/187/187 178/178/178 188/188/188
f 187/187/187 188/188/188 189/189/189
f 189/189/189 188/188/188 190/190/190
f 191/191/191 183/183/183 181/181/181
f 192/192/192 183/183/183 191/191/191
f 192/192/192 193/193/193 183/183/183
f 194/194/194 193/193/193 192/192/192
f 195/195/195 181/181/181 180/180/180
f 191/191/191 181/181/181 195/195/195
f 196/196/196 180/180/180 184/184/184
f 195/195/195 180/180/180 196/196/196
f 197/197/197 184/184/184 185/185/185
f 196/196/196 184/184/184 197/197/197
f 198/198/198 185/185/185 186/186/186
f 197/197/197 185/185/185 198/198/198
f 199/199/199 186/186/186 187/187/187
f 198/198/198 186/186/186 199/199/199
f 200/200/200 187/187/187 189/189/189
f 199/199/199 187/187/187 200/200/200
f 200/200/200 189/189/189 201/201/201
f 201/201/201 189/189/189 202/202/202
f 203/203/203 194/194/194 192/192/192
f 204/204/204 194/194/194 203/203/203
f 204/204/204 205/205/205 194/194/194
f 206/206/206 205/205/205 204/204/204
f 203/203/203 192/192/192 207/207/207
f 208/208/208 195/195/195 196/196/196
f 209/209/209 195/195/195 208/208/208
f 207/207/207 191/191/191 209/209/209
f 207/207/207 192/192/192 191/191/191
f 209/209/209 191/191/191 195/195/195
f 210/210/210 197/197/197 198/198/198
f 211/211/211 198/198/198 199/199/199
f 210/210/210 198/198/198 211/211/211
f 212/212/212 200/200/200 201/201/201
f 212/212/212 201/201/201 213/213/213
f 214/214/214 206/206/206 204/204/204
f 215/215/215 206/206/206 214/214/214
f 215/215/215 216/216/216 206/206/206
f 217/217/217 216/216/216 215/215/215
f 218/218/218 207/207/207 209/209/209
f 219/219/219 209/209/209 208/208/208
f 218/218/218 209/209/209 219/219/219
f 219/219/219 208/208/208 220/220/220
f 220/220/220 208/208/208 221/221/221
f 208/208/208 196/196/196 221/221/221
f 221/221/221 196/196/196 197/197/197
f 221/221/221 197/197/197 210/210/210
f 222/222/222 221/221/221 210/210/210
f 220/220/220 221/221/221 222/222/222
f 222/222/222 210/210/210 223/223/223
f 223/223/223 210/210/210 211/211/211
f 223/223/223 211/211/211 224/224/224
f 224/224/224 211/211/211 225/225/225
f 211/211/211 199/199/199 225/225/225
f 225/225/225 199/199/199 200/200/200
f 225/225/225 200/200/200 212/212/212
f 226/226/226 225/225/225 212/212/212
f 224/224/224 225/225/225 226/226/226
f 226/226/226 212/212/212 227/227/227
f 227/227/227 212/212/212 213/213/213
f 228/228/228 222/222/222 223/223/223
f 229/229/229 222/222/222 228/228/228
f 229/229/229 220/220/220 222/222/222
f 230/230/230 223/223/223 224/224/224
f 228/228/228 223/223/223 230/230/230
f 231/231/231 224/224/224 226/226/226
f 230/230/230 224/224/224 231/231/231
f 231/231/231 226/226/226 232/232/232
f 232/232/232 226/226/226 227/227/227
f 233/233/233 229/229/229 228/228/228
f 234/234/234 229/229/229 233/233/233
f 234/234/234 235/235/235 229/229/229
f 235/235/235 220/220/220 229/229/229
f 235/235/235 219/219/219 220/220/220
f 236/236/236 219/219/219 235/235/235
f 236/236/236 218/218/218 219/219/219
f 237/237/237 218/218/218 236/236/236
f 237/237/237 238/238/238 218/218/218
f 238/238/238 207/207/207 218/218/218
f 239/239/239 238/238/238 237/237/237
f 239/239/239 240/240/240 238/238/238
f 240/240/240 203/203/203 238/238/238
f 238/238/238 203/203/203 207/207/207
f 240/240/240 204/204/204 203/203/203
f 214/214/214 204/204/204 240/240/240
f 241/241/241 214/214/214 240/240/240
f 241/241/241 240/240/240 239/239/239
f 242/242/242 214/214/214 241/241/241
f 242/242/242 215/215/215 214/214/214
f 243/243/243 215/215/215 242/242/242
f 243/243/243 217/217/217 215/215/215
f 244/244/244 217/217/217 243/243/243
f 244/244/244 245/245/245 217/217/217
f 246/246/246 245/245/245 244/244/244
f 247/247/247 246/246/246 244/244/244
f 248/248/248 246/246/246 247/247/247
f 248/248/248 249/249/249 246/246/246
f 250/250/250 249/249/249 248/248/248
f 250/250/250 251/251/251 249/249/249
f 252/252/252 251/251/251 250/250/250
f 253/253/253 244/244/244 243/243/243
f 247/247/247 244/244/244 253/253/253
f 254/254/254 243/243/243 242/242/242
f 253/253/253 243/243/243 254/254/254
f 255/255/255 242/242/242 241/241/241
f 254/254/254 242/242/242 255/255/255
f 256/256/256 253/253/253 254/254/254
f 257/257/257 253/253/253 256/256/256
f 257/257/257 247/247/247 253/253/253
f 258/258/258 247/247/247 257/257/257
f 258/258/258 248/248/248 247/247/247
f 259/259/259 248/248/248 258/258/258
f 259/259/259 250/250/250 248/248/248
f 260/260/260 250/250/250 259/259/259
f 260/260/260 252/252/252 250/250/250
f 261/261/261 252/252/252 260/260/260
f 261/261/261 262/262/262 252/252/252
f 263/263/263 262/262/262 261/261/261
f 263/263/263 264/264/264 262/262/262
f 264/264/264 265/265/265 262/262/262
f 264/264/264 266/266/266 265/265/265
f 267/267/267 266/266/266 264/264/264
f 267/267/267 268/268/268 266/266/266
f 268/268/268 269/269/269 266/266/266
f 268/268/268 227/227/227 269/269/269
f 232/232/232 227/227/227 268/268/268
f 266/266/266 269/269/269 270/270/270
f 271/271/271 232/232/232 268/268/268
f 271/271/271 268/268/268 267/267/267
f 272/272/272 232/232/232 271/271/271
f 272/272/272 231/231/231 232/232/232
f 273/273/273 231/231/231 272/272/272
f 273/273/273 230/230/230 231/231/231
f 274/274/274 230/230/230 273/273/273
f 274/274/274 228/228/228 230/230/230
f 233/233/233 228/228/228 274/274/274
f 275/275/275 233/233/233 274/274/274
f 276/276/276 233/233/233 275/275/275
f 276/276/276 234/234/234 233/233/233
f 277/277/277 234/234/234 276/276/276
f 277/277/277 278/278/278 234/234/234
f 278/278/278 235/235/235 234/234/234
f 278/278/278 236/236/236 235/235/235
f 279/279/279 236/236/236 278/278/278
f 279/279/279 237/237/237 236/236/236
f 280/280/280 237/237/237 279/279/279
f 280/280/280 239/239/239 237/237/237
f 281/281/281 239/239/239 280/280/280
f 281/281/281 241/241/241 239/239/239
f 255/255/255 241/241/241 281/281/281
f 282/282/282 278/278/278 277/277/277
f 282/282/282 279/279/279 278/278/278
f 283/283/283 279/279/279 282/282/282
f 283/283/283 280/280/280 279/279/279
f 284/284/284 280/280/280 283/283/283
f 284/284/284 281/281/281 280/280/280
f 285/285/285 281/281/281 284/284/284
f 285/285/285 255/255/255 281/281/281
f 286/286/286 255/255/255 285/285/285
f 286/286/286 254/254/254 255/255/255
f 256/256/256 254/254/254 286/286/286
f 287/287/287 256/256/256 286/286/286
f 288/288/288 256/256/256 287/287/287
f 288/288/288 257/257/257 256/256/256
f 289/289/289 257/257/257 288/288/288
f 289/289/289 258/258/258 257/257/257
f 290/290/290 258/258/258 289/289/289
f 290/290/290 259/259/259 258/258/258
f 291/291/291 259/259/259 290/290/290
f 291/291/291 260/260/260 259/259/259
f 292/292/292 260/260/260 291/291/291
f 292/292/292 261/261/261 260/260/260
f 293/293/293 261/261/261 292/292/292
f 293/293/293 263/263/263 261/261/261
f 294/294/294 263/263/263 293/293/293
f 294/294/294 295/295/295 263/263/263
f 295/295/295 264/264/264 263/263/263
f 295/295/295 267/267/267 264/264/264
f 296/296/296 267/267/267 295/295/295
f 296/296/296 271/271/271 267/267/267
f 297/297/297 271/271/271 296/296/296
f 297/297/297 272/272/272 271/271/271
f 298/298/298 272/272/272 297/297/297
f 298/298/298 273/273/273 272/272/272
f 299/299/299 273/273/273 298/298/298
f 299/299/299 274/274/274 273/273/273
f 275/275/275 274/274/274 299/299/299
f 300/300/300 295/295/295 294/294/294
f 300/300/300 296/296/296 295/295/295
f 301/301/301 275/275/275 299/299/299
f 302/302/302 275/275/275 301/301/301
f 302/302/302 276/276/276 275/275/275
f 303/303/303 276/276/276 302/302/302
f 303/303/303 277/277/277 276/276/276
f 304/304/304 277/277/277 303/303/303
f 304/304/304 282/282/282 277/277/277
f 305/305/305 282/282/282 304/304/304
f 305/305/305 283/283/283 282/282/282
f 306/306/306 283/283/283 305/305/305
f 306/306/306 284/284/284 283/283/283
f 307/307/307 284/284/284 306/306/306
f 307/307/307 285/285/285 284/284/284
f 308/308/308 285/285/285 307/307/307
f 308/308/308 286/286/286 285/285/285
f 287/287/287 286/286/286 308/308/308
f 309/309/309 287/287/287 308/308/308
f 310/310/310 287/287/287 309/309/309
f 310/310/310 288/288/288 287/287/287
f 311/311/311 288/288/288 310/310/310
f 311/311/311 289/289/289 288/288/288
f 312/312/312 289/289/289 311/311/311
f 312/312/312 290/290/290 289/289/289
f 313/313/313 290/290/290 312/312/312
f 313/313/313 291/291/291 290/290/290
f 314/314/314 291/291/291 313/313/313
f 314/314/314 292/292/292 291/291/291
f 315/315/315 292/292/292 314/314/314
f 315/315/315 293/293/293 292/292/292
f 316/316/316 293/293/293 315/315/315
f 316/316/316 294/294/294 293/293/293
f 317/317/317 294/294/294 316/316/316
f 317/317/317 300/300/300 294/294/294
f 318/318/318 300/300/300 317/317/317
f 318/318/318 319/319/319 300/300/300
f 319/319/319 296/296/296 300/300/300
f 319/319/319 297/297/297 296/296/296
f 320/320/320 297/297/297 319/319/319
f 320/320/320 298/298/298 297/297/297
f 321/321/321 298/298/298 320/320/320
f 321/321/321 299/299/299 298/298/298
f 301/301/301 299/299/299 321/321/321
f 322/322/322 301/301/301 321/321/321
f 323/323/323 301/301/301 322/322/322
f 323/323/323 302/302/302 301/301/301
f 324/324/324 302/302/302 323/323/323
f 324/324/324 303/303/303 302/302/302
f 325/325/325 303/303/303 324/324/324
f 325/325/325 304/304/304 303/303/303
f 326/326/326 304/304/304 325/325/325
f 326/326/326 305/305/305 304/304/304
f 327/327/327 305/305/305 326/326/326
f 327/327/327 306/306/306 305/305/305
f 328/328/328 306/306/306 327/327/327
f 328/328/328 307/307/307 306/306/306
f 329/329/329 307/307/307 328/328/328
f 329/329/329 308/308/308 307/307/307
f 309/309/309 308/308/308 329/329/329
f 330/330/330 309/309/309 329/329/329
f 330/330/330 329/329/329 328/328/328
f 330/330/330 328/328/328 327/327/327
f 330/330/330 327/327/327 326/326/326
f 330/330/330 326/326/326 325/325/325
f 330/330/330 325/325/325 324/324/324
f 330/330/330 324/324/324 323/323/323
f 330/330/330 310/310/310 309/309/309
f 330/330/330 311/311/311 310/310/310
f 330/330/330 312/312/312 311/311/311
f 330/330/330 313/313/313 312/312/312
f 330/330/330 314/314/314 313/313/313
f 330/330/330 315/315/315 314/314/314
f 330/330/330 316/316/316 315/315/315
f 330/330/330 317/317/317 316/316/316
f 330/330/330 318/318/318 317/317/317
f 330/330/330 331/331/331 318/318/318
f 331/331/331 319/319/319 318/318/318
f 331/331/331 320/320/320 319/319/319
f 332/332/332 320/320/320 331/331/331
f 330/330/330 332/332/332 331/331/331
f 332/332/332 321/321/321 320/320/320
f 322/322/322 321/321/321 332/332/332
f 330/330/330 322/322/322 332/332/332
f 330/330/330 323/323/323 322/322/322
f 227/227/227 213/213/213 269/269/269
f 333/333/333 1/1/1 2/2/2
f 333/333/333 6/6/6 1/1/1
f 333/333/333 8/8/8 6/6/6
f 333/333/333 10/10/10 8/8/8
f 333/333/333 12/12/12 10/10/10
f 333/333/333 14/14/14 12/12/12
f 333/333/333 16/16/16 14/14/14
f 333/333/333 18/18/18 16/16/16
f 333/333/333 20/20/20 18/18/18
f 333/333/333 22/22/22 20/20/20
f 333/333/333 24/24/24 22/22/22
f 333/333/333 26/26/26 24/24/24
f 333/333/333 28/28/28 26/26/26
f 333/333/333 30/30/30 28/28/28
f 333/333/333 32/32/32 30/30/30
f 333/333/333 34/34/34 32/32/32
f 333/333/333 36/36/36 34/34/34
f 333/333/333 38/38/38 36/36/36
f 333/333/333 40/40/40 38/38/38
f 333/333/333 2/2/2 40/40/40
f 336/336/336 335/335/335 334/334/334
f 337/337/337 335/335/335 336/336/336
f 336/336/336 334/334/334 338/338/338
f 338/338/338 334/334/334 339/339/339
f 338/338/338 339/339/339 340/340/340
f 340/340/340 339/339/339 341/341/341
f 340/340/340 341/341/341 342/342/342
f 342/342/342 341/341/341 343/343/343
f 342/342/342 343/343/343 344/344/344
f 344/344/344 343/343/343 345/345/345
f 336/336/336 346/346/346 337/337/337
f 337/337/337 346/346/346 347/347/347
f 346/346/346 348/348/348 347/347/347
f 347/347/347 348/348/348 349/349/349
f 349/349/349 348/348/348 350/350/350
f 346/346/346 351/351/351 348/348/348
f 348/348/348 351/351/351 352/352/352
f 353/353/353 351/351/351 346/346/346
f 353/353/353 354/354/354 351/351/351
f 351/351/351 354/354/354 355/355/355
f 356/356/356 354/354/354 353/353/353
f 356/356/356 357/357/357 354/354/354
f 354/354/354 357/357/357 358/358/358
f 359/359/359 357/357/357 356/356/356
f 359/359/359 360/360/360 357/357/357
f 357/357/357 360/360/360 361/361/361
f 362/362/362 360/360/360 359/359/359
f 362/362/362 363/363/363 360/360/360
f 364/364/364 363/363/363 362/362/362
f 338/338/338 356/356/356 353/353/353
f 338/338/338 353/353/353 336/336/336
f 336/336/336 353/353/353 346/346/346
f 340/340/340 356/356/356 338/338/338
f 340/340/340 359/359/359 356/356/356
f 342/342/342 359/359/359 340/340/340
f 342/342/342 362/362/362 359/359/359
f 344/344/344 362/362/362 342/342/342
f 344/344/344 364/364/364 362/362/362
f 365/365/365 364/364/364 344/344/344
f 368/368/368 367/367/367 366/366/366
f 369/369/369 367/367/367 368/368/368
f 368/368/368 366/366/366 370/370/370
f 370/370/370 366/366/366 371/371/371
f 370/370/370 371/371/371 372/372/372
f 372/372/372 371/371/371 373/373/373
f 372/372/372 373/373/373 374/374/374
f 374/374/374 373/373/373 375/375/375
f 374/374/374 375/375/375 376/376/376
f 376/376/376 375/375/375 377/377/377
f 376/376/376 377/377/377 378/378/378
f 378/378/378 377/377/377 379/379/379
f 378/378/378 379/379/379 380/380/380
f 380/380/380 379/379/379 381/381/381
f 380/380/380 381/381/381 382/382/382
f 382/382/382 381/381/381 383/383/383
f 382/382/382 383/383/383 384/384/384
f 384/384/384 383/383/383 385/385/385
f 384/384/384 385/385/385 386/386/386
f 386/386/386 385/385/385 387/387/387
f 374/374/374 388/388/388 372/372/372
f 374/374/374 389/389/389 388/388/388
f 376/376/376 389/389/389 374/374/374
f 389/389/389 390/390/390 388/388/388
f 388/388/388 390/390/390 391/391/391
f 388/388/388 391/391/391 392/392/392
f 372/372/372 388/388/388 392/392/392
f 392/392/392 391/391/391 393/393/393
f 393/393/393 391/391/391 394/394/394
f 391/391/391 390/390/390 394/394/394
f 392/392/392 393/393/393 395/395/395
f 395/395/395 393/393/393 396/396/396
f 396/396/396 393/393/393 397/397/397
f 395/395/395 396/396/396 398/398/398
f 398/398/398 396/396/396 399/399/399
f 399/399/399 396/396/396 400/400/400
f 401/401/401 399/399/399 400/400/400
f 389/389/389 402/402/402 390/390/390
f 390/390/390 402/402/402 403/403/403
f 404/404/404 402/402/402 389/389/389
f 404/404/404 405/405/405 402/402/402
f 402/402/402 405/405/405 406/406/406
f 407/407/407 405/405/405 404/404/404
f 407/407/407 408/408/408 405/405/405
f 405/405/405 408/408/408 409/409/409
f 408/408/408 410/410/410 409/409/409
f 410/410/410 411/411/411 409/409/409
f 412/412/412 408/408/408 407/407/407
f 412/412/412 410/410/410 408/408/408
f 413/413/413 410/410/410 412/412/412
f 413/413/413 411/411/411 410/410/410
f 414/414/414 411/411/411 413/413/413
f 378/378/378 407/407/407 404/404/404
f 378/378/378 404/404/404 376/376/376
f 376/376/376 404/404/404 389/389/389
f 380/380/380 407/407/407 378/378/378
f 380/380/380 412/412/412 407/407/407
f 382/382/382 412/412/412 380/380/380
f 382/382/382 413/413/413 412/412/412
f 384/384/384 413/413/413 382/382/382
f 384/384/384 414/414/414 413/413/413
f 386/386/386 414/414/414 384/384/384
f 416/416/416 415/415/415 386/386/386
f 419/419/419 418/418/418 417/417/417
f 368/368/368 395/395/395 398/398/398
f 370/370/370 395/395/395 368/368/368
f 370/370/370 392/392/392 395/395/395
f 372/372/372 392/392/392 370/370/370
f 422/422/422 421/421/421 420/420/420
f 425/425/425 424/424/424 423/423/423
f 385/385/385 426/426/426 424/424/424
f 383/383/383 426/426/426 385/385/385
f 383/383/383 427/427/427 426/426/426
f 381/381/381 427/427/427 383/383/383
f 381/381/381 428/428/428 427/427/427
f 379/379/379 428/428/428 381/381/381
f 379/379/379 429/429/429 428/428/428
f 377/377/377 429/429/429 379/379/379
f 377/377/377 430/430/430 429/429/429
f 375/375/375 430/430/430 377/377/377
f 375/375/375 431/431/431 430/430/430
f 373/373/373 431/431/431 375/375/375
f 373/373/373 432/432/432 431/431/431
f 371/371/371 432/432/432 373/373/373
f 366/366/366 433/433/433 371/371/371
f 436/436/436 435/435/435 434/434/434
f 439/439/439 438/438/438 437/437/437
f 441/441/441 440/440/440 335/335/335
f 335/335/335 440/440/440 442/442/442
f 335/335/335 442/442/442 334/334/334
f 334/334/334 442/442/442 443/443/443
f 334/334/334 443/443/443 339/339/339
f 339/339/339 443/443/443 444/444/444
f 339/339/339 444/444/444 341/341/341
f 341/341/341 444/444/444 445/445/445
f 341/341/341 445/445/445 343/343/343
f 343/343/343 445/445/445 446/446/446
f 343/343/343 446/446/446 345/345/345
f 345/345/345 446/446/446 447/447/447
f 345/345/345 447/447/447 448/448/448
f 448/448/448 447/447/447 449/449/449
f 452/452/452 451/451/451 450/450/450
f 455/455/455 454/454/454 453/453/453
f 458/458/458 457/457/457 456/456/456
f 461/461/461 460/460/460 459/459/459
f 464/464/464 463/463/463 462/462/462
f 465/465/465 463/463/463 464/464/464
f 464/464/464 462/462/462 466/466/466
f 466/466/466 462/462/462 467/467/467
f 466/466/466 467/467/467 468/468/468
f 468/468/468 467/467/467 469/469/469
f 468/468/468 469/469/469 470/470/470
f 470/470/470 469/469/469 471/471/471
f 470/470/470 471/471/471 472/472/472
f 472/472/472 471/471/471 473/473/473
f 472/472/472 473/473/473 474/474/474
f 474/474/474 473/473/473 475/475/475
f 464/464/464 476/476/476 465/465/465
f 465/465/465 476/476/476 477/477/477
f 464/464/464 478/478/478 476/476/476
f 466/466/466 478/478/478 464/464/464
f 478/478/478 479/479/479 476/476/476
f 476/476/476 479/479/479 480/480/480
f 476/476/476 480/480/480 477/477/477
f 480/480/480 479/479/479 481/481/481
f 478/478/478 482/482/482 479/479/479
f 479/479/479 482/482/482 483/483/483
f 477/477/477 480/480/480 484/484/484
f 484/484/484 480/480/480 485/485/485
f 486/486/486 482/482/482 478/478/478
f 486/486/486 487/487/487 482/482/482
f 482/482/482 487/487/487 488/488/488
f 489/489/489 487/487/487 486/486/486
f 489/489/489 490/490/490 487/487/487
f 487/487/487 490/490/490 491/491/491
f 490/490/490 492/492/492 491/491/491
f 493/493/493 490/490/490 489/489/489
f 493/493/493 492/492/492 490/490/490
f 494/494/494 492/492/492 493/493/493
f 494/494/494 495/495/495 492/492/492
f 496/496/496 495/495/495 494/494/494
f 468/468/468 489/489/489 486/486/486
f 468/468/468 486/486/486 466/466/466
f 466/466/466 486/486/486 478/478/478
f 470/470/470 489/489/489 468/468/468
f 470/470/470 493/493/493 489/489/489
f 472/472/472 493/493/493 470/470/470
f 472/472/472 494/494/494 493/493/493
f 474/474/474 494/494/494 472/472/472
f 474/474/474 496/496/496 494/494/494
f 499/499/499 498/498/498 497/497/497
f 502/502/502 501/501/501 500/500/500
f 500/500/500 503/503/503 502/502/502
f 500/500/500 504/504/504 503/503/503
f 504/504/504 505/505/505 503/503/503
f 503/503/503 505/505/505 506/506/506
f 506/506/506 505/505/505 507/507/507
f 504/504/504 508/508/508 505/505/505
f 505/505/505 508/508/508 509/509/509
f 510/510/510 508/508/508 504/504/504
f 510/510/510 511/511/511 508/508/508
f 508/508/508 511/511/511 512/512/512
f 513/513/513 511/511/511 510/510/510
f 513/513/513 514/514/514 511/511/511
f 511/511/511 514/514/514 515/515/515
f 516/516/516 514/514/514 513/513/513
f 516/516/516 517/517/517 514/514/514
f 514/514/514 517/517/517 518/518/518
f 519/519/519 517/517/517 516/516/516
f 519/519/519 520/520/520 517/517/517
f 517/517/517 520/520/520 521/521/521
f 520/520/520 522/522/522 521/521/521
f 522/522/522 523/523/523 521/521/521
f 524/524/524 520/520/520 519/519/519
f 524/524/524 522/522/522 520/520/520
f 525/525/525 522/522/522 524/524/524
f 525/525/525 523/523/523 522/522/522
f 526/526/526 523/523/523 525/525/525
f 527/527/527 516/516/516 513/513/513
f 527/527/527 513/513/513 528/528/528
f 528/528/528 513/513/513 510/510/510
f 528/528/528 510/510/510 529/529/529
f 529/529/529 530/530/530 528/528/528
f 529/529/529 531/531/531 530/530/530
f 500/500/500 531/531/531 529/529/529
f 528/528/528 530/530/530 532/532/532
f 528/528/528 532/532/532 527/527/527
f 527/527/527 532/532/532 533/533/533
f 527/527/527 533/533/533 534/534/534
f 534/534/534 516/516/516 527/527/527
f 534/534/534 519/519/519 516/516/516
f 534/534/534 533/533/533 535/535/535
f 534/534/534 535/535/535 536/536/536
f 536/536/536 519/519/519 534/534/534
f 536/536/536 524/524/524 519/519/519
f 536/536/536 535/535/535 537/537/537
f 536/536/536 537/537/537 538/538/538
f 538/538/538 524/524/524 536/536/536
f 538/538/538 537/537/537 539/539/539
f 538/538/538 539/539/539 540/540/540
f 540/540/540 539/539/539 541/541/541
f 540/540/540 541/541/541 542/542/542
f 542/542/542 541/541/541 543/543/543
f 540/540/540 525/525/525 538/538/538
f 538/538/538 525/525/525 524/524/524
f 542/542/542 526/526/526 540/540/540
f 540/540/540 526/526/526 525/525/525
f 546/546/546 545/545/545 544/544/544
f 549/549/549 548/548/548 547/547/547
f 552/552/552 551/551/551 550/550/550
f 555/555/555 554/554/554 553/553/553
f 558/558/558 557/557/557 556/556/556
f 561/561/561 560/560/560 559/559/559
f 564/564/564 563/563/563 562/562/562
f 529/529/529 504/504/504 500/500/500
f 529/529/529 510/510/510 504/504/504
f 567/567/567 566/566/566 565/565/565
