g BRM_Head_Chain
v 1241.345 43.94215 -943.1088
v 1239.815 44.59677 -935.5613
v 1234.87 41.89367 -945.022
v 1233.134 42.63671 -936.4554
v 1238.656 39.61501 -952.6004
v 1244.68 41.93447 -949.786
v 1244.119 36.02388 -958.4489
v 1249.494 38.77052 -954.9385
v 1250.727 31.47174 -961.9949
v 1255.315 34.75983 -958.0629
v 1257.831 26.40412 -962.8914
v 1261.575 30.29498 -958.8527
v 1264.736 21.31715 -961.0507
v 1267.659 25.81318 -957.231
v 1270.767 16.70876 -956.6526
v 1272.972 21.75301 -953.356
v 1275.334 13.03003 -950.1281
v 1276.995 18.51192 -947.6075
v 1277.988 10.64116 -942.1154
v 1279.334 16.40715 -940.548
v 1278.471 9.775808 -933.3994
v 1279.759 15.64479 -932.8687
v 1276.734 10.51887 -924.8326
v 1278.229 16.29946 -925.3212
v 1272.949 12.79754 -917.2542
v 1274.895 18.30697 -918.6442
v 1267.485 16.38872 -911.4058
v 1270.081 21.47093 -913.4913
v 1260.878 20.94092 -907.8597
v 1264.259 25.48167 -910.3671
v 1253.774 26.00848 -906.9632
v 1258 29.94647 -909.5772
v 1246.868 31.0954 -908.8041
v 1251.916 34.42826 -911.1992
v 1240.837 35.70379 -913.202
v 1246.602 38.48861 -915.074
v 1236.271 39.38248 -919.7266
v 1242.579 41.72964 -920.8224
v 1233.617 41.77142 -927.7392
v 1240.241 43.83439 -927.8818
v 1233.134 42.63671 -936.4554
v 1239.815 44.59677 -935.5613
v 1276.353 30.24149 -914.9968
v 1280.497 27.51763 -919.4329
v 1283.368 25.78932 -925.1812
v 1284.685 25.22577 -931.6789
v 1284.319 25.88207 -938.29
v 1282.306 27.69402 -944.3674
v 1278.842 30.48426 -949.3162
v 1274.268 33.97971 -952.6521
v 1269.03 37.8381 -954.0484
v 1263.641 41.6818 -953.3684
v 1258.63 45.13462 -950.6788
v 1254.485 47.85848 -946.2427
v 1251.614 49.58679 -940.4944
v 1250.298 50.15034 -933.9968
v 1250.298 50.15034 -933.9968
v 1251.614 49.58679 -940.4944
v 1267.491 37.68803 -932.8378
v 1254.485 47.85848 -946.2427
v 1258.63 45.13462 -950.6788
v 1263.641 41.6818 -953.3684
v 1269.03 37.8381 -954.0484
v 1274.268 33.97971 -952.6521
v 1278.842 30.48426 -949.3162
v 1282.306 27.69402 -944.3674
v 1284.319 25.88207 -938.29
v 1284.685 25.22577 -931.6789
v 1283.368 25.78932 -925.1812
v 1280.497 27.51763 -919.4329
v 1276.353 30.24149 -914.9968
v 1271.341 33.69427 -912.3073
v 1265.953 37.53801 -911.6272
v 1260.715 41.3964 -913.0235
v 1256.14 44.89185 -916.3594
v 1252.677 47.68208 -921.3083
v 1250.664 49.49405 -927.3857
v 1234.87 41.89367 -945.022
v 1233.134 42.63671 -936.4554
v 1255.802 26.20632 -934.9273
v 1238.656 39.61501 -952.6004
v 1244.119 36.02388 -958.4489
v 1250.727 31.47174 -961.9949
v 1257.831 26.40412 -962.8914
v 1264.736 21.31715 -961.0507
v 1270.767 16.70876 -956.6526
v 1275.334 13.03003 -950.1281
v 1277.988 10.64116 -942.1154
v 1278.471 9.775808 -933.3994
v 1276.734 10.51887 -924.8326
v 1272.949 12.79754 -917.2542
v 1267.485 16.38872 -911.4058
v 1260.878 20.94092 -907.8597
v 1253.774 26.00848 -906.9632
v 1246.868 31.0954 -908.8041
v 1240.837 35.70379 -913.202
v 1236.271 39.38248 -919.7266
v 1233.617 41.77142 -927.7392
v 1271.341 33.69427 -912.3073
v 1265.953 37.53801 -911.6272
v 1260.715 41.3964 -913.0235
v 1256.14 44.89185 -916.3594
v 1252.677 47.68208 -921.3083
v 1250.664 49.49405 -927.3857
v 1250.298 50.15034 -933.9968
v 1226.249 36.54153 -944.8586
v 1224.768 40.66327 -945.9445
v 1227.984 35.32957 -936.8463
v 1227.984 35.32957 -936.8463
v 1224.768 40.66327 -945.9445
v 1226.38 38.83919 -936.2926
v 1234.441 34.58226 -931.1903
v 1232.007 38.94041 -931.0402
v 1242.008 37.02761 -926.3759
v 1239.661 41.16919 -926.2549
v 1234.156 40.06472 -933.3326
v 1239.661 41.16919 -926.2549
v 1232.007 38.94041 -931.0402
v 1240.902 40.90564 -929.3475
v 1229.014 41.47714 -938.2514
v 1226.38 38.83919 -936.2926
v 1224.768 40.66327 -945.9445
v 1227.83 42.33705 -945.0414
v 1231.178 42.07257 -946.6675
v 1231.503 39.37456 -950.1508
v 1243.351 38.53853 -946.2798
v 1245.844 36.93386 -949.285
v 1234.156 40.06472 -933.3326
v 1235.79 36.4292 -932.5701
v 1240.902 40.90564 -929.3475
v 1242.551 37.41351 -928.5185
v 1229.014 41.47714 -938.2514
v 1230.593 37.9921 -938.0079
v 1227.83 42.33705 -945.0414
v 1229.026 39.17649 -944.7674
v 1224.768 40.66327 -945.9445
v 1233.211 35.47969 -948.1874
v 1231.503 39.37456 -950.1508
v 1226.249 36.54153 -944.8586
v 1233.211 35.47969 -948.1874
v 1224.768 40.66327 -945.9445
v 1231.503 39.37456 -950.1508
v 1233.211 35.47969 -948.1874
v 1245.844 36.93386 -949.285
v 1249.343 29.80121 -946.0095
v 1227.83 42.33705 -945.0414
v 1231.178 42.07257 -946.6675
v 1229.026 39.17649 -944.7674
v 1231.704 39.68261 -946.4829
v 1246.27 32.92071 -944.3723
v 1243.351 38.53853 -946.2798
v 1202.074 50.49349 -957.0961
v 1201.133 52.19957 -950.8423
v 1202.033 42.05684 -954.6407
v 1199.969 41.77718 -947.887
v 1210.016 56.48699 -956.6472
v 1208.995 59.19375 -950.9308
v 1205.969 50.81733 -949.1514
v 1205.487 43.57747 -946.9533
v 1201.133 52.19957 -950.8423
v 1199.969 41.77718 -947.887
v 1224.725 33.94521 -939.92
v 1210.512 53.17949 -948.687
v 1208.995 59.19375 -950.9308
v 1227.914 45.23698 -942.3892
v 1231.199 48.26236 -942.5914
v 1233.502 39.4491 -939.5055
v 1229.924 40.45382 -940.6569
v 1224.773 37.95881 -940.922
v 1210.512 53.17949 -948.687
v 1227.914 45.23698 -942.3892
v 1210.942 52.53584 -952.6896
v 1228.038 44.74641 -945.6312
v 1229.924 40.45382 -940.6569
v 1231.199 48.26236 -942.5914
v 1231.742 46.61419 -946.5389
v 1233.502 39.4491 -939.5055
v 1210.016 56.48699 -956.6472
v 1208.995 59.19375 -950.9308
v 1232.905 38.68429 -943.5048
v 1229.924 40.45382 -940.6569
v 1224.773 37.95881 -940.922
v 1229.482 40.27373 -943.8447
v 1224.591 37.2281 -944.9801
v 1205.487 43.57747 -946.9533
v 1206.496 42.61958 -952.2913
v 1226.08 34.04396 -944.3737
v 1224.725 33.94521 -939.92
v 1232.905 38.68429 -943.5048
v 1233.502 39.4491 -939.5055
v 1199.969 41.77718 -947.887
v 1202.033 42.05684 -954.6407
v 1205.487 43.57747 -946.9533
v 1205.969 50.81733 -949.1514
v 1206.496 42.61958 -952.2913
v 1228.038 44.74641 -945.6312
v 1229.924 40.45382 -940.6569
v 1229.482 40.27373 -943.8447
v 1205.969 50.81733 -949.1514
v 1210.512 53.17949 -948.687
v 1206.762 50.20086 -953.887
v 1206.496 42.61958 -952.2913
v 1205.969 50.81733 -949.1514
v 1206.762 50.20086 -953.887
v 1206.762 50.20086 -953.887
v 1210.512 53.17949 -948.687
v 1210.942 52.53584 -952.6896
v 1192.053 61.63441 -961.6161
v 1195.988 66.80173 -960.6259
v 1191.419 59.62148 -954.7017
v 1194.774 64.93572 -952.0876
v 1196.85 59.61409 -966.1501
v 1200.639 64.9267 -966.0325
v 1197.97 62.90428 -953.3825
v 1211.739 50.07163 -942.5696
v 1194.774 64.93572 -952.0876
v 1211.26 52.42795 -947.9612
v 1218.006 46.68514 -948.288
v 1214.346 50.16525 -950.1459
v 1195.988 66.80173 -960.6259
v 1198.675 64.29366 -959.4061
v 1201.311 62.80985 -961.1874
v 1200.639 64.9267 -966.0325
v 1213.966 51.02671 -952.986
v 1217.663 49.13825 -956.0694
v 1214.073 41.60715 -948.9823
v 1211.739 50.07163 -942.5696
v 1218.006 46.68514 -948.288
v 1218.006 46.68514 -948.288
v 1213.977 43.82182 -956.1774
v 1214.073 41.60715 -948.9823
v 1217.663 49.13825 -956.0694
v 1196.85 59.61409 -966.1501
v 1200.639 64.9267 -966.0325
v 1208.638 44.61577 -944.7194
v 1211.739 50.07163 -942.5696
v 1214.073 41.60715 -948.9823
v 1197.97 62.90428 -953.3825
v 1198.675 64.29366 -959.4061
v 1194.805 58.58075 -954.5881
v 1195.879 60.62055 -960.6312
v 1201.311 62.80985 -961.1874
v 1213.966 51.02671 -952.986
v 1198.824 59.79989 -962.1222
v 1210.823 47.35373 -954.1077
v 1214.346 50.16525 -950.1459
v 1211.049 46.28606 -951.3414
v 1195.879 60.62055 -960.6312
v 1198.675 64.29366 -959.4061
v 1214.346 50.16525 -950.1459
v 1211.26 52.42795 -947.9612
v 1211.049 46.28606 -951.3414
v 1207.103 48.31334 -949.3569
v 1197.97 62.90428 -953.3825
v 1194.805 58.58075 -954.5881
v 1191.419 59.62148 -954.7017
v 1194.774 64.93572 -952.0876
v 1208.638 44.61577 -944.7194
v 1211.739 50.07163 -942.5696
v 1176.429 76.55895 -970.8626
v 1177.048 80.02911 -963.8661
v 1173.964 69.79717 -967.7256
v 1184.402 78.83179 -972.001
v 1185.218 83.07369 -965.6344
v 1173.964 69.79717 -967.7256
v 1177.048 80.02911 -963.8661
v 1173.156 72.09144 -959.8886
v 1173.964 69.79717 -967.7256
v 1173.156 72.09144 -959.8886
v 1191.856 50.03537 -958.9904
v 1190.944 52.7767 -951.5726
v 1177.048 80.02911 -963.8661
v 1178.005 71.75411 -959.8756
v 1173.156 72.09144 -959.8886
v 1190.944 52.7767 -951.5726
v 1191.802 58.69202 -954.1837
v 1201.102 56.45917 -953.7226
v 1196.535 60.29683 -955.3478
v 1180.445 77.35874 -962.7441
v 1184.685 77.77554 -963.113
v 1185.218 83.07369 -965.6344
v 1197.137 64.68735 -957.4437
v 1203.261 65.86943 -958.2504
v 1184.685 77.77554 -963.113
v 1197.137 64.68735 -957.4437
v 1184.305 76.01585 -967.5842
v 1196.556 62.51778 -962.9648
v 1196.535 60.29683 -955.3478
v 1195.95 58.01515 -961.1697
v 1180.256 75.2926 -968.0887
v 1180.445 77.35874 -962.7441
v 1185.218 83.07369 -965.6344
v 1184.402 78.83179 -972.001
v 1203.261 65.86943 -958.2504
v 1202.542 61.6242 -964.5392
v 1201.102 56.45917 -953.7226
v 1200.293 52.83004 -960.4477
v 1190.944 52.7767 -951.5726
v 1191.856 50.03537 -958.9904
v 1196.535 60.29683 -955.3478
v 1191.802 58.69202 -954.1837
v 1195.95 58.01515 -961.1697
v 1190.596 56.32407 -960.9242
v 1191.802 58.69202 -954.1837
v 1178.005 71.75411 -959.8756
v 1190.596 56.32407 -960.9242
v 1177.794 69.14939 -965.9071
v 1178.005 71.75411 -959.8756
v 1180.445 77.35874 -962.7441
v 1177.794 69.14939 -965.9071
v 1180.256 75.2926 -968.0887
v 1165.439 89.30227 -982.3433
v 1170.718 94.9291 -982.0178
v 1164.166 88.77125 -974.5339
v 1168.674 95.12308 -972.5292
v 1170.991 84.79675 -986.2708
v 1176.194 90.38235 -986.9554
v 1164.166 88.77125 -974.5339
v 1168.674 95.12308 -972.5292
v 1178.361 70.68914 -956.3542
v 1178.361 70.68914 -956.3542
v 1168.674 95.12308 -972.5292
v 1182.636 77.12721 -954.9232
v 1178.361 70.68914 -956.3542
v 1182.636 77.12721 -954.9232
v 1184.166 66.0023 -960.9708
v 1189.452 71.44293 -960.9492
v 1185.122 67.30692 -970.9642
v 1190.208 72.91304 -971.6724
v 1170.991 84.79675 -986.2708
v 1176.194 90.38235 -986.9554
v 1186.015 76.66283 -969.1752
v 1176.194 90.38235 -986.9554
v 1190.208 72.91304 -971.6724
v 1176.246 89.09566 -981.0521
v 1170.718 94.9291 -982.0178
v 1173.311 91.81663 -979.7627
v 1172.126 91.78795 -973.0881
v 1189.452 71.44293 -960.9492
v 1168.674 95.12308 -972.5292
v 1182.636 77.12721 -954.9232
v 1182.889 78.50981 -961.4603
v 1185.947 75.70383 -964.2516
v 1176.246 89.09566 -981.0521
v 1186.015 76.66283 -969.1752
v 1172.975 85.75604 -981.6581
v 1181.896 72.61279 -969.9066
v 1185.947 75.70383 -964.2516
v 1181.624 71.41917 -965.0333
v 1169.6 87.67377 -980.566
v 1173.311 91.81663 -979.7627
v 1182.889 78.50981 -961.4603
v 1172.126 91.78795 -973.0881
v 1177.555 74.05172 -962.5077
v 1167.886 86.95314 -973.7595
v 1185.947 75.70383 -964.2516
v 1182.889 78.50981 -961.4603
v 1181.624 71.41917 -965.0333
v 1177.555 74.05172 -962.5077
v 1172.126 91.78795 -973.0881
v 1173.311 91.81663 -979.7627
v 1167.886 86.95314 -973.7595
v 1169.6 87.67377 -980.566
v 1159.243 104.634 -994.9469
v 1157.053 108.0662 -990.0439
v 1155.278 98.3765 -993.4658
v 1151.382 100.6705 -988.5314
v 1166.996 107.1559 -992.4297
v 1165.3 111.2893 -987.9194
v 1155.689 100.6469 -986.418
v 1162.519 84.24074 -974.067
v 1151.382 100.6705 -988.5314
v 1164.772 89.64224 -975.8288
v 1172.744 88.15479 -971.3868
v 1169.597 91.35909 -974.6858
v 1171.304 95.3617 -976.1177
v 1177.195 96.78352 -974.106
v 1157.053 108.0662 -990.0439
v 1159.443 105.849 -987.6599
v 1163.416 106.4706 -986.1138
v 1165.3 111.2893 -987.9194
v 1171.304 95.3617 -976.1177
v 1169.597 91.35909 -974.6858
v 1172.986 93.17016 -980.058
v 1164.858 104.6983 -989.2659
v 1163.416 106.4706 -986.1138
v 1171.395 89.05527 -978.8294
v 1164.772 89.64224 -975.8288
v 1166.398 87.19476 -980.869
v 1161.407 103.7807 -991.3159
v 1159.443 105.849 -987.6599
v 1157.889 98.0623 -990.5276
v 1155.689 100.6469 -986.418
v 1177.195 96.78352 -974.106
v 1178.945 92.65524 -978.5204
v 1172.744 88.15479 -971.3868
v 1174.639 84.57371 -976.1749
v 1162.519 84.24074 -974.067
v 1166.302 81.55501 -978.6429
v 1166.302 81.55501 -978.6429
v 1151.382 100.6705 -988.5314
v 1162.519 84.24074 -974.067
v 1155.278 98.3765 -993.4658
v 1164.772 89.64224 -975.8288
v 1155.689 100.6469 -986.418
v 1166.398 87.19476 -980.869
v 1157.889 98.0623 -990.5276
v 1165.3 111.2893 -987.9194
v 1166.996 107.1559 -992.4297
v 1177.195 96.78352 -974.106
v 1178.945 92.65524 -978.5204
v 1146.912 118.6602 -1006.685
v 1151.183 124.4398 -1002.85
v 1143.775 116.6035 -1001.419
v 1146.839 122.6536 -996.3952
v 1153.441 115.8978 -1008.874
v 1151.183 124.4398 -1002.85
v 1153.441 115.8978 -1008.874
v 1157.906 121.8124 -1005.841
v 1153.783 98.39214 -987.6
v 1156.772 104.5965 -983.0717
v 1160.737 95.61795 -990.2665
v 1165.11 101.2817 -986.7112
v 1164.076 98.74346 -997.0772
v 1168.438 104.667 -994.0999
v 1153.441 115.8978 -1008.874
v 1157.906 121.8124 -1005.841
v 1153.783 98.39214 -987.6
v 1146.839 122.6536 -996.3952
v 1156.772 104.5965 -983.0717
v 1143.775 116.6035 -1001.419
v 1158.565 107.0832 -987.5137
v 1165.11 101.2817 -986.7112
v 1156.772 104.5965 -983.0717
v 1150.461 120.1038 -996.4879
v 1162.352 105.376 -989.2866
v 1163.597 107.158 -992.7015
v 1168.438 104.667 -994.0999
v 1157.906 121.8124 -1005.841
v 1156.548 119.5662 -1001.736
v 1151.183 124.4398 -1002.85
v 1153.269 121.4812 -1001.076
v 1146.839 122.6536 -996.3952
v 1156.548 119.5662 -1001.736
v 1163.597 107.158 -992.7015
v 1153.992 116.1935 -1004.375
v 1160.357 103.0485 -995.9565
v 1162.352 105.376 -989.2866
v 1158.958 101.0342 -992.7231
v 1150.431 117.3495 -1004.259
v 1153.269 121.4812 -1001.076
v 1150.461 120.1038 -996.4879
v 1153.269 121.4812 -1001.076
v 1147.164 115.2447 -999.9688
v 1150.431 117.3495 -1004.259
v 1154.325 102.505 -991.5781
v 1150.461 120.1038 -996.4879
v 1147.164 115.2447 -999.9688
v 1158.565 107.0832 -987.5137
v 1158.958 101.0342 -992.7231
v 1158.565 107.0832 -987.5137
v 1154.325 102.505 -991.5781
v 1162.352 105.376 -989.2866
v 1158.565 107.0832 -987.5137
v 1158.958 101.0342 -992.7231
v 1150.002 155.4683 -1004.545
v 1140.974 151.0344 -1014.281
v 1153.799 154.5309 -1006.758
v 1145.339 149.532 -1016.482
v 1150.002 155.4683 -1004.545
v 1153.799 154.5309 -1006.758
v 1155.78 131.8223 -995.7922
v 1155.78 131.8223 -995.7922
v 1153.799 154.5309 -1006.758
v 1161.021 131.6004 -998.9155
v 1153.73 120.4226 -993.6006
v 1159.231 119.5958 -996.6279
v 1153.73 120.4226 -993.6006
v 1149.263 131.8827 -999.0385
v 1146.898 148.6812 -1003.887
v 1155.78 131.8223 -995.7922
v 1153.73 120.4226 -993.6006
v 1159.231 119.5958 -996.6279
v 1147.398 113.8481 -998.6963
v 1153.157 111.9331 -1001.811
v 1153.73 120.4226 -993.6006
v 1147.398 113.8481 -998.6963
v 1150.103 123.574 -998.5989
v 1145.28 118.4941 -1003.047
v 1149.263 131.8827 -999.0385
v 1140.974 151.0344 -1014.281
v 1150.002 155.4683 -1004.545
v 1139.83 145.1741 -1011.614
v 1146.898 148.6812 -1003.887
v 1150.002 155.4683 -1004.545
v 1155.78 131.8223 -995.7922
v 1146.898 148.6812 -1003.887
vt 0.07051 0.057149
vt 0.07055 0.007687
vt 0.110132 0.057149
vt 0.110132 0.007688
vt 0.110132 0.106611
vt 0.070525 0.106611
vt 0.110132 0.156073
vt 0.070593 0.156073
vt 0.110132 0.205534
vt 0.070709 0.205534
vt 0.110132 0.254994
vt 0.070874 0.254994
vt 0.110132 0.304455
vt 0.071074 0.304455
vt 0.110132 0.353918
vt 0.071297 0.353917
vt 0.110133 0.403379
vt 0.071519 0.403379
vt 0.110132 0.452839
vt 0.071716 0.452838
vt 0.110132 0.5023
vt 0.071858 0.5023
vt 0.110132 0.551763
vt 0.071924 0.551763
vt 0.110132 0.601224
vt 0.071899 0.601224
vt 0.110132 0.650685
vt 0.071791 0.650685
vt 0.110132 0.700148
vt 0.071616 0.700148
vt 0.110132 0.749607
vt 0.071402 0.749607
vt 0.110132 0.799068
vt 0.071177 0.799068
vt 0.110132 0.84853
vt 0.070965 0.84853
vt 0.110132 0.897992
vt 0.070782 0.897992
vt 0.110132 0.947453
vt 0.070641 0.947453
vt 0.110131 0.996914
vt 0.07055 0.996914
vt 0.003086 0.650685
vt 0.003086 0.601224
vt 0.003086 0.551763
vt 0.003086 0.5023
vt 0.003086 0.452839
vt 0.003086 0.403379
vt 0.003086 0.353917
vt 0.003086 0.304455
vt 0.003086 0.254994
vt 0.003086 0.205534
vt 0.003086 0.156073
vt 0.003086 0.106611
vt 0.003086 0.057149
vt 0.003086 0.007687
vt 0.52113 0.991046
vt 0.487702 0.974015
vt 0.55818 0.877005
vt 0.461173 0.947487
vt 0.44414 0.914059
vt 0.438271 0.877005
vt 0.444141 0.83995
vt 0.461172 0.806523
vt 0.487701 0.779994
vt 0.52113 0.762963
vt 0.558183 0.757096
vt 0.595237 0.762965
vt 0.628664 0.779998
vt 0.655191 0.806526
vt 0.672222 0.839951
vt 0.678089 0.877004
vt 0.672221 0.914056
vt 0.655192 0.947483
vt 0.628664 0.974012
vt 0.595237 0.991044
vt 0.558184 0.996914
vt 0.368301 0.966717
vt 0.324234 0.989173
vt 0.275372 0.838824
vt 0.403273 0.931743
vt 0.425726 0.887674
vt 0.433463 0.838824
vt 0.425726 0.789975
vt 0.403273 0.745906
vt 0.368302 0.710931
vt 0.324235 0.688474
vt 0.275382 0.680735
vt 0.226529 0.688469
vt 0.182456 0.710923
vt 0.14748 0.745897
vt 0.125022 0.789969
vt 0.117284 0.838823
vt 0.125021 0.887677
vt 0.147478 0.931749
vt 0.182454 0.966725
vt 0.226528 0.989179
vt 0.27538 0.996914
vt 0.003086 0.700147
vt 0.003086 0.749607
vt 0.003086 0.799068
vt 0.003086 0.84853
vt 0.003086 0.897992
vt 0.003087 0.947453
vt 0.003086 0.996914
vt 0.500637 0.614272
vt 0.487643 0.630928
vt 0.457618 0.580317
vt 0.457618 0.580317
vt 0.487643 0.630928
vt 0.44948 0.5998
vt 0.410635 0.56009
vt 0.410199 0.589032
vt 0.359071 0.551753
vt 0.359302 0.578527
vt 0.403226 0.607931
vt 0.359302 0.578527
vt 0.410199 0.589032
vt 0.359063 0.596341
vt 0.44354 0.622236
vt 0.44948 0.5998
vt 0.487643 0.630928
vt 0.47762 0.645042
vt 0.489814 0.663418
vt 0.515724 0.659841
vt 0.519249 0.72848
vt 0.542499 0.735005
vt 0.403226 0.607931
vt 0.387505 0.625156
vt 0.359063 0.596341
vt 0.345679 0.613421
vt 0.44354 0.622236
vt 0.428369 0.637126
vt 0.47762 0.645042
vt 0.464757 0.658649
vt 0.487643 0.630928
vt 0.530649 0.65361
vt 0.515724 0.659841
vt 0.500637 0.614272
vt 0.530649 0.65361
vt 0.487643 0.630928
vt 0.515724 0.659841
vt 0.531074 0.660135
vt 0.542499 0.735005
vt 0.590441 0.743119
vt 0.47762 0.645042
vt 0.489814 0.663418
vt 0.464757 0.658649
vt 0.480092 0.673327
vt 0.504144 0.762346
vt 0.519249 0.72848
vt 0.269602 0.104319
vt 0.260524 0.123971
vt 0.231814 0.088455
vt 0.23431 0.101495
vt 0.290347 0.146063
vt 0.281538 0.152299
vt 0.257236 0.132504
vt 0.227698 0.122229
vt 0.260524 0.123971
vt 0.23431 0.101495
vt 0.129737 0.212502
vt 0.256247 0.159301
vt 0.281538 0.152299
vt 0.182153 0.235245
vt 0.191841 0.269475
vt 0.141026 0.264672
vt 0.162045 0.239506
vt 0.161874 0.215084
vt 0.256247 0.159301
vt 0.182153 0.235245
vt 0.252923 0.152116
vt 0.178405 0.22192
vt 0.162045 0.239506
vt 0.191841 0.269475
vt 0.197466 0.279686
vt 0.141026 0.264672
vt 0.293628 0.153953
vt 0.281538 0.152299
vt 0.134764 0.267637
vt 0.162045 0.239506
vt 0.161874 0.215084
vt 0.171444 0.231064
vt 0.177858 0.215607
vt 0.227698 0.122229
vt 0.229838 0.120349
vt 0.118663 0.207577
vt 0.129737 0.212502
vt 0.134764 0.267637
vt 0.141026 0.264672
vt 0.23431 0.101495
vt 0.231814 0.088455
vt 0.227698 0.122229
vt 0.257236 0.132504
vt 0.229838 0.120349
vt 0.178405 0.22192
vt 0.162045 0.239506
vt 0.171444 0.231064
vt 0.257236 0.132504
vt 0.256247 0.159301
vt 0.240333 0.144987
vt 0.229838 0.120349
vt 0.257236 0.132504
vt 0.240333 0.144987
vt 0.240333 0.144987
vt 0.256247 0.159301
vt 0.252923 0.152116
vt 0.721168 0.526892
vt 0.707727 0.553966
vt 0.657926 0.515245
vt 0.664228 0.54108
vt 0.746043 0.577083
vt 0.730857 0.58683
vt 0.662816 0.553444
vt 0.574477 0.640533
vt 0.664228 0.54108
vt 0.598151 0.639409
vt 0.592446 0.683982
vt 0.607463 0.667238
vt 0.707727 0.553966
vt 0.70057 0.56571
vt 0.708896 0.589731
vt 0.730857 0.58683
vt 0.628512 0.671395
vt 0.633172 0.689284
vt 0.572791 0.70349
vt 0.574477 0.640533
vt 0.592446 0.683982
vt 0.592446 0.683982
vt 0.639223 0.716049
vt 0.572791 0.70349
vt 0.633172 0.689284
vt 0.744776 0.601165
vt 0.730857 0.58683
vt 0.549383 0.639448
vt 0.574477 0.640533
vt 0.572791 0.70349
vt 0.662816 0.553444
vt 0.70057 0.56571
vt 0.66285 0.576429
vt 0.685958 0.583415
vt 0.708896 0.589731
vt 0.628512 0.671395
vt 0.693632 0.586386
vt 0.626573 0.650001
vt 0.607463 0.667238
vt 0.624356 0.649776
vt 0.685958 0.583415
vt 0.70057 0.56571
vt 0.607463 0.667238
vt 0.598151 0.639409
vt 0.624356 0.649776
vt 0.625564 0.640261
vt 0.662816 0.553444
vt 0.66285 0.576429
vt 0.657926 0.515245
vt 0.664228 0.54108
vt 0.549383 0.639448
vt 0.574477 0.640533
vt 0.354131 0.46406
vt 0.322452 0.445392
vt 0.370235 0.390562
vt 0.292132 0.490741
vt 0.280662 0.471347
vt 0.370235 0.390562
vt 0.322452 0.445392
vt 0.339981 0.399668
vt 0.370235 0.390562
vt 0.339981 0.399668
vt 0.237156 0.266716
vt 0.231478 0.295745
vt 0.322452 0.445392
vt 0.323776 0.397612
vt 0.339981 0.399668
vt 0.231478 0.295745
vt 0.231361 0.321916
vt 0.180976 0.318837
vt 0.199911 0.332701
vt 0.307132 0.43882
vt 0.27645 0.446877
vt 0.280662 0.471347
vt 0.19253 0.370164
vt 0.171854 0.373379
vt 0.27645 0.446877
vt 0.19253 0.370164
vt 0.282823 0.42731
vt 0.216131 0.364996
vt 0.199911 0.332701
vt 0.217583 0.357795
vt 0.287717 0.420492
vt 0.307132 0.43882
vt 0.280662 0.471347
vt 0.264952 0.489337
vt 0.171854 0.373379
vt 0.141976 0.382218
vt 0.180976 0.318837
vt 0.157842 0.29659
vt 0.231478 0.295745
vt 0.237156 0.266716
vt 0.199911 0.332701
vt 0.231361 0.321916
vt 0.217583 0.357795
vt 0.233996 0.356473
vt 0.231361 0.321916
vt 0.323776 0.397612
vt 0.233996 0.356473
vt 0.299802 0.403487
vt 0.323776 0.397612
vt 0.307132 0.43882
vt 0.299802 0.403487
vt 0.287717 0.420492
vt 0.332429 0.643332
vt 0.300773 0.627764
vt 0.344274 0.571984
vt 0.314211 0.581083
vt 0.273582 0.672839
vt 0.262366 0.654536
vt 0.344274 0.571984
vt 0.314211 0.581083
vt 0.201265 0.442055
vt 0.201265 0.442055
vt 0.314211 0.581083
vt 0.202318 0.471421
vt 0.201265 0.442055
vt 0.202318 0.471421
vt 0.128664 0.474088
vt 0.152981 0.495807
vt 0.117284 0.559551
vt 0.149392 0.552395
vt 0.245208 0.670348
vt 0.262366 0.654536
vt 0.170236 0.547035
vt 0.262366 0.654536
vt 0.149392 0.552395
vt 0.256631 0.62976
vt 0.300773 0.627764
vt 0.284854 0.620621
vt 0.297906 0.579281
vt 0.152981 0.495807
vt 0.314211 0.581083
vt 0.202318 0.471421
vt 0.204945 0.497821
vt 0.174094 0.510043
vt 0.256631 0.62976
vt 0.170236 0.547035
vt 0.259393 0.611141
vt 0.193017 0.540774
vt 0.174094 0.510043
vt 0.193328 0.531663
vt 0.264864 0.603825
vt 0.284854 0.620621
vt 0.204945 0.497821
vt 0.297906 0.579281
vt 0.20569 0.529363
vt 0.270953 0.584827
vt 0.174094 0.510043
vt 0.204945 0.497821
vt 0.193328 0.531663
vt 0.20569 0.529363
vt 0.297906 0.579281
vt 0.284854 0.620621
vt 0.270953 0.584827
vt 0.264864 0.603825
vt 0.526606 0.362258
vt 0.513725 0.38829
vt 0.458417 0.351083
vt 0.468855 0.373077
vt 0.555706 0.420451
vt 0.540417 0.43034
vt 0.46963 0.388464
vt 0.383433 0.476786
vt 0.468855 0.373077
vt 0.406591 0.477268
vt 0.409224 0.528817
vt 0.418984 0.508567
vt 0.452454 0.511718
vt 0.461429 0.534184
vt 0.513725 0.38829
vt 0.50805 0.403835
vt 0.516916 0.431778
vt 0.540417 0.43034
vt 0.452454 0.511718
vt 0.418984 0.508567
vt 0.448051 0.49312
vt 0.501492 0.429903
vt 0.516916 0.431778
vt 0.438582 0.49342
vt 0.406591 0.477268
vt 0.434274 0.473816
vt 0.494498 0.422659
vt 0.50805 0.403835
vt 0.470308 0.409257
vt 0.46963 0.388464
vt 0.461429 0.534184
vt 0.4688 0.558642
vt 0.409224 0.528817
vt 0.390791 0.548431
vt 0.383433 0.476786
vt 0.358025 0.475751
vt 0.358025 0.475751
vt 0.468855 0.373077
vt 0.383433 0.476786
vt 0.458417 0.351083
vt 0.406591 0.477268
vt 0.46963 0.388464
vt 0.434274 0.473816
vt 0.470308 0.409257
vt 0.540417 0.43034
vt 0.55565 0.443108
vt 0.461429 0.534184
vt 0.4688 0.558642
vt 0.962081 0.801244
vt 0.944007 0.833878
vt 0.898502 0.788458
vt 0.90765 0.820144
vt 0.98701 0.858743
vt 0.944007 0.833878
vt 0.98701 0.858743
vt 0.96778 0.870319
vt 0.780864 0.911542
vt 0.811986 0.912486
vt 0.808742 0.982318
vt 0.832394 0.957745
vt 0.881313 0.996914
vt 0.876762 0.963665
vt 0.983686 0.884996
vt 0.96778 0.870319
vt 0.780864 0.911542
vt 0.90765 0.820144
vt 0.811986 0.912486
vt 0.898502 0.788458
vt 0.832662 0.911912
vt 0.832394 0.957745
vt 0.811986 0.912486
vt 0.904759 0.835533
vt 0.843229 0.940459
vt 0.873551 0.944757
vt 0.876762 0.963665
vt 0.96778 0.870319
vt 0.949301 0.873736
vt 0.944007 0.833878
vt 0.940447 0.846612
vt 0.90765 0.820144
vt 0.949301 0.873736
vt 0.873551 0.944757
vt 0.930107 0.869941
vt 0.869403 0.918944
vt 0.843229 0.940459
vt 0.865826 0.920361
vt 0.923549 0.867514
vt 0.940447 0.846612
vt 0.904759 0.835533
vt 0.940447 0.846612
vt 0.91204 0.864227
vt 0.923549 0.867514
vt 0.865293 0.916998
vt 0.904759 0.835533
vt 0.91204 0.864227
vt 0.832662 0.911912
vt 0.865826 0.920361
vt 0.832662 0.911912
vt 0.865293 0.916998
vt 0.843229 0.940459
vt 0.832662 0.911912
vt 0.865826 0.920361
vt 0.732604 0.733677
vt 0.661988 0.707998
vt 0.751412 0.725342
vt 0.679241 0.6833
vt 0.732604 0.733677
vt 0.751412 0.725342
vt 0.746951 0.873782
vt 0.746951 0.873782
vt 0.751412 0.725342
vt 0.781863 0.872888
vt 0.732736 0.93477
vt 0.76485 0.945249
vt 0.732736 0.93477
vt 0.706675 0.865582
vt 0.705699 0.764044
vt 0.746951 0.873782
vt 0.732736 0.93477
vt 0.76485 0.945249
vt 0.692058 0.973566
vt 0.724624 0.996914
vt 0.732736 0.93477
vt 0.692058 0.973566
vt 0.701731 0.914426
vt 0.664006 0.945799
vt 0.706675 0.865582
vt 0.661988 0.707998
vt 0.732604 0.733677
vt 0.645062 0.742145
vt 0.705699 0.764044
vt 0.732604 0.733677
vt 0.746951 0.873782
vt 0.705699 0.764044
vn -0.3140789 0.9088798 -0.2743937
vn -0.3746598 0.9270031 -0.01718204
vn -0.2366811 0.9477764 -0.2137804
vn -0.2848977 0.9581328 0.02854489
vn -0.1404889 0.8903612 -0.4330355
vn -0.2034205 0.8393888 -0.5040302
vn -0.003185636 0.7899219 -0.6131992
vn -0.05064788 0.723324 -0.6886488
vn 0.1659858 0.652525 -0.7393644
vn 0.1335565 0.5679905 -0.8121265
vn 0.3547515 0.4870475 -0.7980828
vn 0.3350261 0.3841411 -0.8603448
vn 0.5472714 0.3060852 -0.7789775
vn 0.5357989 0.1867914 -0.8234248
vn 0.7245014 0.1261645 -0.6776283
vn 0.7150722 -0.004951791 -0.6990331
vn 0.8661922 -0.03330649 -0.4985999
vn 0.8519761 -0.1698112 -0.4952786
vn 0.9541831 -0.1528257 -0.2572529
vn 0.9293111 -0.287745 -0.2314812
vn 0.9761115 -0.2162292 0.02124219
vn 0.9368998 -0.3436669 0.06412293
vn 0.9278743 -0.2141715 0.3052538
vn 0.873174 -0.3301105 0.3586004
vn 0.814459 -0.1458895 0.5615806
vn 0.7451012 -0.248123 0.6190792
vn 0.6491297 -0.01943475 0.7604294
vn 0.5670112 -0.1070457 0.8167248
vn 0.4515273 0.1494964 0.8796442
vn 0.3589503 0.07659093 0.9302088
vn 0.2447905 0.3400115 0.9080032
vn 0.1442732 0.2812258 0.9487346
vn 0.05193516 0.5297206 0.8465807
vn -0.05363636 0.4835589 0.8736669
vn -0.1076937 0.6985105 0.7074498
vn -0.2149344 0.6623722 0.7176811
vn -0.2207633 0.8313977 0.5099426
vn -0.3258944 0.801544 0.5013184
vn -0.2803403 0.9192561 0.2763647
vn -0.3795461 0.8911697 0.2485182
vn -0.2848977 0.9581328 0.02854489
vn -0.3746598 0.9270031 -0.01718204
vn 0.4700547 -0.1881034 0.8623605
vn 0.6580552 -0.3428535 0.6703841
vn 0.7989196 -0.4386692 0.4114568
vn 0.8778878 -0.4653592 0.1129327
vn 0.8865073 -0.4202272 -0.1936854
vn 0.8237604 -0.3085535 -0.4756191
vn 0.6969494 -0.1434453 -0.7026272
vn 0.5211908 0.0557075 -0.8516201
vn 0.3169257 0.2665208 -0.9102333
vn 0.1061236 0.4675283 -0.8775848
vn -0.09121431 0.6410285 -0.7620777
vn -0.2587912 0.7739851 -0.5779051
vn -0.3842194 0.8574877 -0.3421849
vn -0.4582777 0.8857467 -0.0737171
vn 0.5840665 0.8102797 0.04809639
vn 0.5840652 0.8102807 0.04809261
vn 0.5840638 0.8102815 0.0480972
vn 0.5840636 0.8102817 0.04809785
vn 0.584065 0.8102807 0.04809657
vn 0.584065 0.8102807 0.04809605
vn 0.584061 0.8102835 0.04809626
vn 0.5840605 0.8102839 0.04809714
vn 0.5840638 0.8102815 0.04809923
vn 0.5840659 0.8102797 0.04810269
vn 0.5840653 0.8102807 0.048095
vn 0.5840629 0.8102825 0.04809039
vn 0.5840622 0.8102827 0.04809661
vn 0.5840595 0.8102844 0.04810101
vn 0.5840638 0.8102815 0.04809938
vn 0.5840649 0.8102807 0.04809589
vn 0.5840629 0.8102821 0.04809801
vn 0.5840653 0.8102804 0.04809756
vn 0.5840642 0.8102812 0.04809735
vn 0.5840644 0.8102812 0.04809706
vn 0.5840648 0.8102805 0.04810102
vn -0.5840634 -0.8102821 -0.04809377
vn -0.5840636 -0.8102818 -0.04809418
vn -0.5840638 -0.8102815 -0.04809734
vn -0.5840611 -0.8102834 -0.04809769
vn -0.5840608 -0.8102835 -0.04809908
vn -0.5840656 -0.8102803 -0.04809685
vn -0.5840635 -0.8102818 -0.04809544
vn -0.5840641 -0.8102813 -0.04809792
vn -0.5840671 -0.8102791 -0.04809783
vn -0.5840663 -0.8102797 -0.04809881
vn -0.5840667 -0.8102795 -0.04809476
vn -0.5840648 -0.810281 -0.04809204
vn -0.5840647 -0.8102809 -0.0480966
vn -0.5840639 -0.8102813 -0.04809729
vn -0.5840651 -0.8102807 -0.0480971
vn -0.5840624 -0.8102826 -0.04809706
vn -0.5840588 -0.810285 -0.04809866
vn -0.5840614 -0.8102832 -0.04809938
vn -0.5840635 -0.8102815 -0.04810086
vn -0.5840645 -0.8102807 -0.04810219
vn -0.5840641 -0.8102812 -0.04809931
vn 0.2548634 0.008665289 0.9669383
vn 0.03573095 0.2254716 0.9735942
vn -0.1637307 0.4381508 0.8838643
vn -0.3233492 0.6243892 0.7110439
vn -0.4292023 0.7670267 0.4769227
vn -0.474447 0.8556107 0.2069547
vn -0.4582777 0.8857467 -0.0737171
vn -0.9416879 -0.2965435 0.159015
vn -0.8688923 -0.469738 -0.1561171
vn -0.8657675 -0.3896046 0.3140935
vn -0.8657675 -0.3896046 0.3140935
vn -0.805721 -0.4739015 -0.3552902
vn -0.7591959 -0.4184819 0.4984922
vn -0.5745101 -0.3524627 0.7387206
vn -0.5131403 -0.3138461 0.7988665
vn -0.4492501 -0.2797527 0.8484768
vn -0.449239 -0.2793846 0.8486039
vn -0.1729711 0.9760861 0.1316697
vn -0.2085208 0.9779711 0.009567156
vn -0.301323 0.8970938 0.3231518
vn -0.0596018 0.9923089 -0.1084927
vn -0.4199524 0.8481129 0.3230238
vn -0.5184253 0.7791618 0.352338
vn -0.4396511 0.8715526 -0.2170319
vn -0.4143737 0.8810799 -0.2280191
vn -0.07747595 0.7849592 -0.614684
vn 0.06430557 0.8466344 -0.5282755
vn 0.2130829 0.8582931 -0.4668283
vn 0.1776803 0.9217171 -0.3447713
vn 0.6112442 0.1104416 -0.7836984
vn 0.6232988 0.1383238 -0.7696526
vn 0.5068135 0.04116328 -0.8610724
vn 0.5097496 0.03670698 -0.8595394
vn 0.8169456 0.3015377 -0.4916044
vn 0.8844566 0.3548375 -0.3030295
vn 0.9191368 0.3712465 -0.1317703
vn 0.9282506 0.3375973 -0.1561378
vn -0.805721 -0.4739015 -0.3552902
vn -0.2622585 -0.4700232 -0.8427923
vn -0.2803008 -0.5272668 -0.8021353
vn -0.4458719 -0.3744338 -0.8130175
vn -0.2622585 -0.4700232 -0.8427923
vn -0.6919289 -0.5025301 -0.5183608
vn -0.2803008 -0.5272668 -0.8021353
vn -0.2622585 -0.4700232 -0.8427923
vn -0.0267422 -0.4437695 -0.8957419
vn -0.02907554 -0.4288918 -0.9028878
vn 0.4393625 0.2412131 0.8653189
vn 0.234667 0.2146999 0.9480693
vn 0.4736988 0.2092335 0.8554711
vn 0.2046174 0.1200909 0.9714473
vn -0.02398751 0.205795 0.9783011
vn 0.0732469 0.354566 0.9321576
vn -0.8765443 0.4143673 -0.2448875
vn -0.8611848 0.3960481 -0.3186008
vn -0.976386 -0.005813251 -0.2159555
vn -0.956324 0.02418658 -0.2913067
vn -0.5863882 0.7245362 -0.36221
vn -0.6037992 0.673334 -0.4266706
vn -0.2406936 0.2906919 0.9260479
vn -0.2373003 0.2625858 0.9352739
vn -0.2437711 0.2890032 0.9257715
vn -0.2422618 0.2574633 0.9354261
vn -0.2182104 0.2343561 0.9473444
vn -0.229307 0.2889366 0.9294805
vn -0.217894 0.290349 0.9317831
vn -0.2108922 0.2765754 0.9375663
vn -0.2031698 0.2832762 0.9372709
vn -0.2084693 0.2715747 0.9395678
vn -0.2203604 0.2843758 0.9330444
vn -0.2090572 0.2683294 0.9403694
vn 0.1589026 -0.9719957 0.1731313
vn -0.6421037 -0.7621303 0.08282687
vn -0.1673029 -0.9748663 0.1471236
vn -0.8341917 -0.5419521 0.1020401
vn -0.9447301 -0.3166984 0.08477811
vn 0.7082737 0.6785584 -0.1946969
vn 0.892919 0.4243423 -0.15043
vn 0.9824715 0.1728204 -0.06987847
vn 0.5046389 0.8155155 -0.283327
vn 0.5085666 0.8097802 -0.2926022
vn 0.9832895 0.08213241 -0.1624685
vn -0.4363536 0.8997231 0.009690666
vn -0.2208605 0.9691256 -0.1096179
vn -0.4706574 0.8802028 -0.06103067
vn 0.05389911 0.9868377 -0.1524669
vn 0.3255132 0.934395 -0.1447308
vn 0.3235609 0.9400748 -0.1075536
vn 0.002465555 -0.9995973 -0.02827076
vn 0.2907799 -0.955679 0.04609516
vn 0.5352588 -0.8368068 0.1151193
vn 0.5266084 -0.8460277 0.08319082
vn -0.2682708 -0.9567863 -0.1122085
vn -0.26686 -0.9560891 -0.1211589
vn 0.9822957 -0.008519436 0.1871427
vn 0.9843594 -0.004165624 0.176122
vn 0.9843594 -0.004165624 0.176122
vn -0.8341917 -0.5419521 0.1020401
vn -0.9447301 -0.3166984 0.08477811
vn -0.9570053 -0.2501444 0.1468628
vn 0.4379232 -0.879187 0.1877592
vn 0.1589026 -0.9719957 0.1731313
vn 0.4375772 -0.879293 0.1880694
vn 0.9843594 -0.004165624 0.176122
vn 0.9843594 -0.004165624 0.176122
vn 0.9862809 0.0001887911 0.1650759
vn 0.4375772 -0.879293 0.1880694
vn 0.1589026 -0.9719957 0.1731313
vn -0.1673029 -0.9748663 0.1471236
vn -0.7119517 0.6090322 -0.349578
vn -0.7441078 0.5658622 -0.3551107
vn -0.8244161 0.5639635 0.04778177
vn -0.844869 0.5349641 -0.003138558
vn -0.5379827 0.4721354 -0.6983287
vn -0.598688 0.4416875 -0.6681953
vn 0.5708176 0.781953 0.2504329
vn 0.5761323 0.7763231 0.2557225
vn 0.5859174 0.778774 0.2240804
vn 0.5990521 0.7652688 0.235585
vn 0.6276143 0.7549089 0.1902968
vn 0.6446745 0.7518248 0.1383991
vn 0.5961056 0.7632259 0.2492877
vn 0.5984901 0.7618217 0.247866
vn 0.584959 0.7698861 0.2551436
vn 0.5814406 0.7749117 0.2478686
vn 0.5941349 0.7752573 0.214429
vn 0.585196 0.7792376 0.2243532
vn 0.3978582 -0.4817905 0.7807603
vn 0.3978582 -0.4817905 0.7807603
vn 0.4529717 -0.4556354 0.7662982
vn 0.7971519 -0.5695653 -0.2003603
vn 0.7147123 -0.5011302 -0.4879087
vn 0.7885469 -0.5847384 -0.1904592
vn 0.5451475 -0.3644434 -0.7549803
vn 0.3352714 -0.2162811 -0.9169599
vn 0.3343273 -0.2180787 -0.9168788
vn -0.2708757 -0.2320603 0.9342239
vn 0.1053677 -0.3821679 0.9180661
vn 0.3978582 -0.4817905 0.7807603
vn 0.8115455 -0.5829569 -0.03943652
vn 0.8075774 -0.5877772 -0.04833916
vn 0.8075774 -0.5877772 -0.04833916
vn 0.8035138 -0.592528 -0.05723609
vn 0.03673615 -0.3241657 0.9452868
vn -0.6117972 0.2925689 0.7349202
vn -0.2402547 -0.09473687 0.9660759
vn -0.7218666 0.4572898 0.5194176
vn -0.771116 0.5717859 0.2800733
vn -0.7720993 0.5690747 0.282872
vn 0.2817334 -0.489387 0.825304
vn 0.2818433 -0.4897194 0.8250692
vn -0.2507339 0.4733398 -0.8444418
vn -0.03034813 0.327251 -0.94445
vn -0.2183254 0.4762605 -0.8517687
vn 0.1939818 0.1504699 -0.9693967
vn 0.3649417 -0.02830216 -0.9306001
vn 0.3781345 -0.01865373 -0.9255627
vn -0.5440194 -0.06790178 0.8363206
vn -0.5307118 -0.05540729 0.8457394
vn -0.2708757 -0.2320603 0.9342239
vn -0.1008635 -0.3145926 0.9438528
vn -0.7024021 0.6604452 -0.265412
vn -0.7046118 0.6361505 -0.31438
vn -0.9981294 0.008471699 -0.06054572
vn -0.3505289 0.8274691 -0.438662
vn -0.3956964 0.7868941 -0.4735208
vn -0.9336544 0.332022 -0.1343529
vn -0.7046118 0.6361505 -0.31438
vn -0.9156931 0.3502567 -0.197044
vn -0.9818179 -0.1885699 0.02179498
vn -0.7592305 -0.6385893 0.1255899
vn -0.7592305 -0.6385893 0.1255899
vn -0.7578515 -0.6367442 0.1421895
vn 0.03739325 0.432034 0.9010817
vn 0.0267417 0.4236811 0.9054165
vn 0.02723176 0.4263371 0.9041543
vn 0.02692063 0.4055328 0.913684
vn 0.03972548 0.4183414 0.9074207
vn 0.04706866 0.4260429 0.9034777
vn 0.05077607 0.44008 0.8965219
vn 0.04244409 0.4324296 0.9006681
vn 0.03671174 0.4264245 0.9037778
vn 0.03671831 0.4264177 0.9037807
vn 0.03672209 0.4264177 0.9037806
vn 0.03673958 0.4264254 0.9037762
vn -0.1894117 -0.9081388 0.3733726
vn -0.9010581 -0.3657134 0.2331268
vn -0.5155776 -0.7793454 0.3560907
vn -0.9850293 -0.09924049 0.1409564
vn -0.9874379 0.1524057 0.04170014
vn -0.9879645 0.1492119 0.04076746
vn 0.1216847 -0.927165 0.3543417
vn 0.1219489 -0.9272112 0.3541295
vn 0.705223 0.5449359 -0.4535476
vn 0.7050929 0.5463873 -0.452001
vn 0.8870784 0.3280406 -0.3247789
vn 0.9878104 0.03585541 -0.1514764
vn 0.8644455 -0.4748782 0.1649985
vn 0.6327576 -0.7185496 0.2886251
vn 0.3676512 -0.8477966 0.3821956
vn 0.3488435 -0.8643256 0.3622837
vn -0.3723705 0.8761936 -0.3059818
vn -0.33718 0.8966063 -0.2870659
vn -0.33718 0.8966063 -0.2870659
vn -0.3013108 0.9152142 -0.267572
vn 0.7165952 0.6079586 -0.3418739
vn 0.7241701 0.6124488 -0.3169926
vn 0.7241701 0.6124488 -0.3169926
vn 0.7312406 0.6165122 -0.2918904
vn 0.9310983 -0.3456292 0.1166039
vn 0.9332376 -0.3428053 0.1074818
vn 0.9332376 -0.3428053 0.1074818
vn 0.9352872 -0.3399486 0.09834943
vn -0.5989932 0.5930868 -0.5380105
vn -0.6365736 0.5501901 -0.5404302
vn -0.8029481 0.5684605 0.1792402
vn -0.8177402 0.480352 0.3171165
vn -0.3972611 0.3460542 -0.8499589
vn -0.4645088 0.3320651 -0.8209532
vn -0.8029481 0.5684605 0.1792402
vn -0.7707642 0.4082126 0.4891677
vn -0.6328229 0.237068 0.7371119
vn -0.6328229 0.237068 0.7371119
vn -0.6328229 0.237068 0.7371119
vn -0.6206285 0.2466597 0.7442979
vn 0.3389318 -0.4129505 0.8453383
vn 0.3707296 -0.4037218 0.8364021
vn 0.5469053 -0.5640061 0.6187018
vn 0.6945531 -0.6602789 0.2857057
vn 0.6702107 -0.6655796 -0.3283616
vn 0.5368153 -0.5679498 -0.6239089
vn 0.359637 -0.4334737 -0.826294
vn 0.3584068 -0.4350815 -0.8259835
vn 0.7060853 0.6931588 0.1448254
vn 0.7060844 0.6931569 0.1448389
vn 0.7060924 0.6931533 0.1448171
vn 0.7060893 0.6931535 0.1448315
vn 0.7064081 0.6940438 0.1388912
vn 0.7099136 0.6907988 0.1371846
vn 0.6991715 0.699015 0.1501235
vn 0.7132958 0.6862249 0.1424934
vn 0.6994513 0.6993411 0.1472748
vn 0.6996183 0.69437 0.1684773
vn 0.7083899 0.689205 0.1522499
vn 0.7153997 0.6870621 0.1270785
vn -0.08863338 -0.09333109 0.9916822
vn -0.6122478 0.5059136 0.6076216
vn -0.3231878 0.1543362 0.9336649
vn -0.6844553 0.626708 0.3725021
vn -0.708276 0.6942587 0.1278668
vn -0.7097454 0.6923682 0.1299528
vn 0.1337426 -0.3025179 0.9437138
vn 0.1337992 -0.3028183 0.9436095
vn 0.4535476 -0.350094 -0.8195906
vn 0.4764628 -0.3382641 -0.8115175
vn 0.4764628 -0.3382641 -0.8115175
vn 0.49903 -0.3261872 -0.8028519
vn -0.3183854 0.4712696 -0.8225179
vn -0.2722375 0.471295 -0.8389087
vn -0.2722375 0.471295 -0.8389087
vn -0.2254367 0.47019 -0.8532875
vn 0.7367648 -0.6639518 0.1278497
vn 0.7330615 -0.66949 0.1200166
vn 0.7330615 -0.66949 0.1200166
vn 0.7292807 -0.6749573 0.1121708
vn -0.4479349 0.6260586 -0.6382828
vn -0.4214967 0.59673 -0.6828279
vn -0.6984913 0.3486396 -0.6249482
vn -0.645336 0.3567486 -0.6754789
vn -0.08494309 0.7602651 -0.6440355
vn -0.100782 0.7143283 -0.6925156
vn -0.3916954 0.449854 0.8026245
vn -0.3941392 0.4340152 0.8101143
vn -0.3909333 0.4521624 0.8016984
vn -0.3830069 0.4446917 0.8096635
vn -0.376517 0.4511227 0.8091496
vn -0.3716731 0.4632592 0.8045186
vn -0.3840351 0.4518402 0.8052065
vn -0.3840333 0.451841 0.805207
vn -0.3827176 0.4567252 0.8030749
vn -0.3789802 0.4568673 0.8047647
vn -0.3840429 0.4518563 0.8051937
vn -0.3840395 0.4518519 0.8051978
vn -0.9108616 -0.3643426 -0.1938701
vn -0.7006489 0.4512295 -0.5527052
vn -0.9306854 -0.07428456 -0.358199
vn -0.6186647 -0.7696731 0.157662
vn -0.3337454 -0.8787563 0.3411765
vn -0.435291 0.7092085 -0.5545673
vn -0.1515419 0.851967 -0.5011859
vn -0.1344074 0.873659 -0.4676052
vn 0.2327466 -0.7874366 0.5707649
vn 0.5115339 -0.5953134 0.6196249
vn 0.7132789 -0.3631477 0.5994638
vn 0.7059827 -0.3645422 0.6072044
vn 0.8027273 -0.242352 0.5448802
vn 0.8039311 -0.2594118 0.5351639
vn 0.6321902 -0.468372 0.617222
vn 0.3851046 -0.6751612 0.6291675
vn 0.1262604 -0.7889765 0.6013106
vn 0.1223323 -0.8084995 0.5756416
vn -0.7095651 -0.6687244 -0.2220923
vn -0.7095651 -0.6687244 -0.2220923
vn -0.7181866 -0.6655801 -0.2030056
vn -0.7006254 -0.6715688 -0.2410794
vn 0.7900598 0.611582 -0.04210493
vn 0.7843968 0.620173 -0.01034936
vn 0.7843968 0.620173 -0.01034936
vn 0.7778597 0.628073 0.02141774
vn 0.8344933 0.5250122 -0.1672817
vn 0.8336381 0.5268482 -0.1657664
vn 0.8336381 0.5268482 -0.1657664
vn 0.8327776 0.5286808 -0.1642501
vn -0.4350392 0.6985165 -0.5681686
vn -0.4551285 0.6640736 -0.5931815
vn -0.7264604 0.6419166 -0.2453536
vn -0.718328 0.6221913 -0.31126
vn 0.3243127 0.258738 -0.9098769
vn -0.4551285 0.6640736 -0.5931815
vn -0.09518013 0.5567501 -0.8252091
vn -0.1559774 0.5413717 -0.8261886
vn 0.06129891 -0.6075274 0.7919299
vn 0.08784256 -0.5989994 0.7959167
vn 0.3536905 -0.6919327 0.6293902
vn 0.625312 -0.6935096 0.357812
vn 0.8291838 -0.5123072 -0.223597
vn 0.7859005 -0.3121633 -0.5337737
vn 0.4783014 0.1320352 -0.8682134
vn 0.6543377 -0.1103332 -0.7481101
vn -0.8251445 -0.03169598 0.5640318
vn -0.8251445 -0.03169598 0.5640318
vn -0.817804 -0.025646 0.5749251
vn -0.8323124 -0.03773933 0.5530205
vn 0.5036075 0.6697819 0.5456845
vn 0.5133332 0.6705745 0.5355546
vn 0.4866458 0.6685892 0.562285
vn 0.4928493 0.680981 0.5416313
vn 0.5216473 0.6775779 0.5184325
vn 0.503446 0.6769506 0.5369171
vn 0.5034489 0.6769504 0.5369148
vn 0.5034378 0.676948 0.5369281
vn 0.5034424 0.6769491 0.5369225
vn 0.5060229 0.6802707 0.5302571
vn 0.5110468 0.6775292 0.5289474
vn 0.4942174 0.6824788 0.5384904
vn -0.3813134 -0.3731168 0.8458037
vn -0.831801 0.2622483 0.4892167
vn -0.5999438 -0.1537429 0.7851309
vn -0.8484756 0.4607479 0.2603855
vn -0.7967791 0.6036408 0.02758532
vn -0.7985415 0.6012432 0.02894894
vn -0.1473996 -0.5380308 0.8299375
vn -0.147256 -0.5382754 0.8298043
vn 0.7146747 -0.6569473 0.2401257
vn 0.7155184 -0.6594914 0.2304439
vn 0.7155184 -0.6594914 0.2304439
vn 0.71629 -0.6619691 0.2207389
vn 0.5557531 0.2224229 -0.8010409
vn 0.7277914 -0.03133519 -0.6850823
vn 0.7422429 -0.02387253 -0.6697056
vn 0.4206879 0.3524905 -0.8359259
vn -0.02108899 0.651629 -0.7582446
vn 0.2543948 0.4790927 -0.8400913
vn 0.5557531 0.2224229 -0.8010409
vn -0.06243754 0.648956 -0.7582597
vn -0.02108899 0.651629 -0.7582446
vn -0.02108899 0.651629 -0.7582446
vn -0.01097427 0.9138106 -0.4059924
vn 0.02021652 0.8930433 -0.4495162
vn 0.02021652 0.8930433 -0.4495162
vn 0.05134062 0.8693305 -0.4915574
vn 0.1018954 0.367149 0.9245642
vn 0.5059681 0.4104573 0.7586311
vn 0.1674807 0.3126381 0.9349908
vn 0.05804112 0.2992028 0.9524226
vn 0.5059681 0.4104573 0.7586311
vn 0.5007386 0.1957961 0.8431635
vn 0.243605 -0.09580853 0.9651308
vn 0.334423 -0.4678481 0.818095
vn -0.247124 0.1389229 0.9589735
vn -0.5850494 0.132638 0.8000777
vn -0.5348515 0.2896378 0.7937529
vn -0.05104003 0.2639161 0.9631943
vn 0.456499 -0.2070624 0.865294
vn 0.334423 -0.4678481 0.818095
vn 0.2142505 -0.6899024 0.6914704
vn 0.1849732 -0.6469939 0.7397187
vn -0.6830389 0.1333631 0.7181031
vn -0.7520694 0.2029108 0.6270716
vn -0.7825901 0.1183892 0.6111767
vn -0.7727148 0.2089308 0.5993828
vn -0.5850494 0.132638 0.8000777
vn -0.7572958 0.3871658 0.5259331
vn -0.6472466 0.3577373 0.6731241
vn -0.7585517 0.3922648 0.520315
vn -0.5348515 0.2896378 0.7937529
vn -0.4015041 0.4322429 0.8074407
vn 0.05804112 0.2992028 0.9524226
vn -0.5348515 0.2896378 0.7937529
g BRM_Head_Chain_0
f 3/3/3 2/2/2 1/1/1
f 4/4/4 2/2/2 3/3/3
f 3/3/3 1/1/1 5/5/5
f 5/5/5 1/1/1 6/6/6
f 5/5/5 6/6/6 7/7/7
f 7/7/7 6/6/6 8/8/8
f 7/7/7 8/8/8 9/9/9
f 9/9/9 8/8/8 10/10/10
f 9/9/9 10/10/10 11/11/11
f 11/11/11 10/10/10 12/12/12
f 11/11/11 12/12/12 13/13/13
f 13/13/13 12/12/12 14/14/14
f 13/13/13 14/14/14 15/15/15
f 15/15/15 14/14/14 16/16/16
f 15/15/15 16/16/16 17/17/17
f 17/17/17 16/16/16 18/18/18
f 17/17/17 18/18/18 19/19/19
f 19/19/19 18/18/18 20/20/20
f 19/19/19 20/20/20 21/21/21
f 21/21/21 20/20/20 22/22/22
f 21/21/21 22/22/22 23/23/23
f 23/23/23 22/22/22 24/24/24
f 23/23/23 24/24/24 25/25/25
f 25/25/25 24/24/24 26/26/26
f 25/25/25 26/26/26 27/27/27
f 27/27/27 26/26/26 28/28/28
f 27/27/27 28/28/28 29/29/29
f 29/29/29 28/28/28 30/30/30
f 29/29/29 30/30/30 31/31/31
f 31/31/31 30/30/30 32/32/32
f 31/31/31 32/32/32 33/33/33
f 33/33/33 32/32/32 34/34/34
f 33/33/33 34/34/34 35/35/35
f 35/35/35 34/34/34 36/36/36
f 35/35/35 36/36/36 37/37/37
f 37/37/37 36/36/36 38/38/38
f 37/37/37 38/38/38 39/39/39
f 39/39/39 38/38/38 40/40/40
f 39/39/39 40/40/40 41/41/41
f 41/41/41 40/40/40 42/42/42
f 28/28/28 43/43/43 30/30/30
f 28/28/28 44/44/44 43/43/43
f 26/26/26 44/44/44 28/28/28
f 26/26/26 45/45/45 44/44/44
f 24/24/24 45/45/45 26/26/26
f 24/24/24 46/46/46 45/45/45
f 22/22/22 46/46/46 24/24/24
f 22/22/22 47/47/47 46/46/46
f 20/20/20 47/47/47 22/22/22
f 20/20/20 48/48/48 47/47/47
f 18/18/18 48/48/48 20/20/20
f 18/18/18 49/49/49 48/48/48
f 16/16/16 49/49/49 18/18/18
f 16/16/16 50/50/50 49/49/49
f 14/14/14 50/50/50 16/16/16
f 14/14/14 51/51/51 50/50/50
f 12/12/12 51/51/51 14/14/14
f 12/12/12 52/52/52 51/51/51
f 10/10/10 52/52/52 12/12/12
f 10/10/10 53/53/53 52/52/52
f 8/8/8 53/53/53 10/10/10
f 8/8/8 54/54/54 53/53/53
f 6/6/6 54/54/54 8/8/8
f 6/6/6 55/55/55 54/54/54
f 1/1/1 55/55/55 6/6/6
f 1/1/1 56/56/56 55/55/55
f 2/2/2 56/56/56 1/1/1
f 59/59/59 58/58/58 57/57/57
f 59/59/59 60/60/60 58/58/58
f 59/59/59 61/61/61 60/60/60
f 59/59/59 62/62/62 61/61/61
f 59/59/59 63/63/63 62/62/62
f 59/59/59 64/64/64 63/63/63
f 59/59/59 65/65/65 64/64/64
f 59/59/59 66/66/66 65/65/65
f 59/59/59 67/67/67 66/66/66
f 59/59/59 68/68/68 67/67/67
f 59/59/59 69/69/69 68/68/68
f 59/59/59 70/70/70 69/69/69
f 59/59/59 71/71/71 70/70/70
f 59/59/59 72/72/72 71/71/71
f 59/59/59 73/73/73 72/72/72
f 59/59/59 74/74/74 73/73/73
f 59/59/59 75/75/75 74/74/74
f 59/59/59 76/76/76 75/75/75
f 59/59/59 77/77/77 76/76/76
f 59/59/59 57/57/57 77/77/77
f 80/80/80 79/79/79 78/78/78
f 80/80/80 78/78/78 81/81/81
f 80/80/80 81/81/81 82/82/82
f 80/80/80 82/82/82 83/83/83
f 80/80/80 83/83/83 84/84/84
f 80/80/80 84/84/84 85/85/85
f 80/80/80 85/85/85 86/86/86
f 80/80/80 86/86/86 87/87/87
f 80/80/80 87/87/87 88/88/88
f 80/80/80 88/88/88 89/89/89
f 80/80/80 89/89/89 90/90/90
f 80/80/80 90/90/90 91/91/91
f 80/80/80 91/91/91 92/92/92
f 80/80/80 92/92/92 93/93/93
f 80/80/80 93/93/93 94/94/94
f 80/80/80 94/94/94 95/95/95
f 80/80/80 95/95/95 96/96/96
f 80/80/80 96/96/96 97/97/97
f 80/80/80 97/97/97 98/98/98
f 80/80/80 98/98/98 79/79/79
f 30/30/30 43/43/43 99/99/99
f 30/30/30 99/99/99 32/32/32
f 32/32/32 99/99/99 100/100/100
f 32/32/32 100/100/100 34/34/34
f 34/34/34 100/100/100 101/101/101
f 34/34/34 101/101/101 36/36/36
f 36/36/36 101/101/101 102/102/102
f 36/36/36 102/102/102 38/38/38
f 38/38/38 102/102/102 103/103/103
f 38/38/38 103/103/103 40/40/40
f 40/40/40 103/103/103 104/104/104
f 40/40/40 104/104/104 42/42/42
f 42/42/42 104/104/104 105/105/105
f 108/108/108 107/107/107 106/106/106
f 111/111/111 110/110/110 109/109/109
f 112/112/112 111/111/111 109/109/109
f 113/113/113 111/111/111 112/112/112
f 114/114/114 113/113/113 112/112/112
f 115/115/115 113/113/113 114/114/114
f 118/118/118 117/117/117 116/116/116
f 116/116/116 117/117/117 119/119/119
f 120/120/120 118/118/118 116/116/116
f 121/121/121 118/118/118 120/120/120
f 121/121/121 120/120/120 122/122/122
f 122/122/122 120/120/120 123/123/123
f 124/124/124 122/122/122 123/123/123
f 125/125/125 122/122/122 124/124/124
f 126/126/126 125/125/125 124/124/124
f 127/127/127 125/125/125 126/126/126
f 130/130/130 129/129/129 128/128/128
f 131/131/131 129/129/129 130/130/130
f 129/129/129 132/132/132 128/128/128
f 133/133/133 132/132/132 129/129/129
f 133/133/133 134/134/134 132/132/132
f 135/135/135 134/134/134 133/133/133
f 138/138/138 137/137/137 136/136/136
f 141/141/141 140/140/140 139/139/139
f 144/144/144 143/143/143 142/142/142
f 145/145/145 143/143/143 144/144/144
f 148/148/148 147/147/147 146/146/146
f 149/149/149 147/147/147 148/148/148
f 149/149/149 150/150/150 147/147/147
f 147/147/147 150/150/150 151/151/151
f 154/154/154 153/153/153 152/152/152
f 155/155/155 153/153/153 154/154/154
f 153/153/153 156/156/156 152/152/152
f 157/157/157 156/156/156 153/153/153
f 160/160/160 159/159/159 158/158/158
f 161/161/161 159/159/159 160/160/160
f 161/161/161 162/162/162 159/159/159
f 163/163/163 160/160/160 158/158/158
f 164/164/164 160/160/160 163/163/163
f 165/165/165 164/164/164 163/163/163
f 166/166/166 164/164/164 165/165/165
f 165/165/165 167/167/167 166/166/166
f 168/168/168 167/167/167 165/165/165
f 159/159/159 162/162/162 169/169/169
f 162/162/162 167/167/167 169/169/169
f 169/169/169 167/167/167 168/168/168
f 172/172/172 171/171/171 170/170/170
f 173/173/173 171/171/171 172/172/172
f 173/173/173 174/174/174 171/171/171
f 177/177/177 176/176/176 175/175/175
f 176/176/176 178/178/178 175/175/175
f 175/175/175 178/178/178 179/179/179
f 180/180/180 176/176/176 177/177/177
f 183/183/183 182/182/182 181/181/181
f 184/184/184 182/182/182 183/183/183
f 184/184/184 185/185/185 182/182/182
f 186/186/186 185/185/185 184/184/184
f 189/189/189 188/188/188 187/187/187
f 190/190/190 188/188/188 189/189/189
f 188/188/188 191/191/191 187/187/187
f 187/187/187 191/191/191 192/192/192
f 195/195/195 194/194/194 193/193/193
f 198/198/198 197/197/197 196/196/196
f 201/201/201 200/200/200 199/199/199
f 204/204/204 203/203/203 202/202/202
f 207/207/207 206/206/206 205/205/205
f 210/210/210 209/209/209 208/208/208
f 211/211/211 209/209/209 210/210/210
f 209/209/209 212/212/212 208/208/208
f 213/213/213 212/212/212 209/209/209
f 216/216/216 215/215/215 214/214/214
f 214/214/214 215/215/215 217/217/217
f 215/215/215 218/218/218 217/217/217
f 217/217/217 218/218/218 219/219/219
f 216/216/216 214/214/214 220/220/220
f 220/220/220 214/214/214 221/221/221
f 222/222/222 220/220/220 221/221/221
f 223/223/223 220/220/220 222/222/222
f 224/224/224 223/223/223 222/222/222
f 219/219/219 218/218/218 224/224/224
f 224/224/224 218/218/218 225/225/225
f 225/225/225 223/223/223 224/224/224
f 228/228/228 227/227/227 226/226/226
f 231/231/231 230/230/230 229/229/229
f 229/229/229 230/230/230 232/232/232
f 230/230/230 233/233/233 232/232/232
f 232/232/232 233/233/233 234/234/234
f 237/237/237 236/236/236 235/235/235
f 240/240/240 239/239/239 238/238/238
f 241/241/241 239/239/239 240/240/240
f 244/244/244 243/243/243 242/242/242
f 245/245/245 243/243/243 244/244/244
f 245/245/245 246/246/246 243/243/243
f 247/247/247 246/246/246 245/245/245
f 244/244/244 242/242/242 248/248/248
f 248/248/248 242/242/242 249/249/249
f 252/252/252 251/251/251 250/250/250
f 253/253/253 251/251/251 252/252/252
f 253/253/253 254/254/254 251/251/251
f 255/255/255 254/254/254 253/253/253
f 258/258/258 257/257/257 256/256/256
f 259/259/259 257/257/257 258/258/258
f 262/262/262 261/261/261 260/260/260
f 261/261/261 263/263/263 260/260/260
f 264/264/264 263/263/263 261/261/261
f 267/267/267 266/266/266 265/265/265
f 270/270/270 269/269/269 268/268/268
f 271/271/271 269/269/269 270/270/270
f 274/274/274 273/273/273 272/272/272
f 274/274/274 275/275/275 273/273/273
f 273/273/273 275/275/275 276/276/276
f 275/275/275 277/277/277 276/276/276
f 276/276/276 277/277/277 278/278/278
f 272/272/272 273/273/273 279/279/279
f 280/280/280 272/272/272 279/279/279
f 281/281/281 272/272/272 280/280/280
f 282/282/282 281/281/281 280/280/280
f 278/278/278 277/277/277 282/282/282
f 283/283/283 281/281/281 282/282/282
f 282/282/282 277/277/277 283/283/283
f 286/286/286 285/285/285 284/284/284
f 287/287/287 285/285/285 286/286/286
f 287/287/287 288/288/288 285/285/285
f 289/289/289 288/288/288 287/287/287
f 286/286/286 284/284/284 290/290/290
f 290/290/290 284/284/284 291/291/291
f 294/294/294 293/293/293 292/292/292
f 295/295/295 293/293/293 294/294/294
f 296/296/296 295/295/295 294/294/294
f 297/297/297 295/295/295 296/296/296
f 296/296/296 298/298/298 297/297/297
f 297/297/297 298/298/298 299/299/299
f 302/302/302 301/301/301 300/300/300
f 303/303/303 301/301/301 302/302/302
f 306/306/306 305/305/305 304/304/304
f 307/307/307 305/305/305 306/306/306
f 310/310/310 309/309/309 308/308/308
f 311/311/311 309/309/309 310/310/310
f 314/314/314 313/313/313 312/312/312
f 315/315/315 313/313/313 314/314/314
f 313/313/313 316/316/316 312/312/312
f 317/317/317 316/316/316 313/313/313
f 320/320/320 319/319/319 318/318/318
f 323/323/323 322/322/322 321/321/321
f 326/326/326 325/325/325 324/324/324
f 327/327/327 325/325/325 326/326/326
f 326/326/326 328/328/328 327/327/327
f 327/327/327 328/328/328 329/329/329
f 328/328/328 330/330/330 329/329/329
f 329/329/329 330/330/330 331/331/331
f 334/334/334 333/333/333 332/332/332
f 332/332/332 333/333/333 335/335/335
f 333/333/333 336/336/336 335/335/335
f 335/335/335 336/336/336 337/337/337
f 336/336/336 338/338/338 337/337/337
f 332/332/332 339/339/339 334/334/334
f 340/340/340 338/338/338 336/336/336
f 340/340/340 341/341/341 338/338/338
f 338/338/338 341/341/341 342/342/342
f 341/341/341 339/339/339 342/342/342
f 342/342/342 339/339/339 343/343/343
f 343/343/343 339/339/339 332/332/332
f 346/346/346 345/345/345 344/344/344
f 347/347/347 345/345/345 346/346/346
f 347/347/347 348/348/348 345/345/345
f 349/349/349 348/348/348 347/347/347
f 346/346/346 344/344/344 350/350/350
f 350/350/350 344/344/344 351/351/351
f 354/354/354 353/353/353 352/352/352
f 355/355/355 353/353/353 354/354/354
f 358/358/358 357/357/357 356/356/356
f 359/359/359 357/357/357 358/358/358
f 362/362/362 361/361/361 360/360/360
f 363/363/363 361/361/361 362/362/362
f 366/366/366 365/365/365 364/364/364
f 367/367/367 365/365/365 366/366/366
f 365/365/365 368/368/368 364/364/364
f 369/369/369 368/368/368 365/365/365
f 372/372/372 371/371/371 370/370/370
f 370/370/370 371/371/371 373/373/373
f 371/371/371 374/374/374 373/373/373
f 373/373/373 374/374/374 375/375/375
f 375/375/375 374/374/374 376/376/376
f 376/376/376 374/374/374 377/377/377
f 372/372/372 370/370/370 378/378/378
f 378/378/378 370/370/370 379/379/379
f 380/380/380 378/378/378 379/379/379
f 376/376/376 381/381/381 380/380/380
f 381/381/381 378/378/378 380/380/380
f 377/377/377 381/381/381 376/376/376
f 384/384/384 383/383/383 382/382/382
f 384/384/384 382/382/382 385/385/385
f 385/385/385 382/382/382 386/386/386
f 387/387/387 383/383/383 384/384/384
f 387/387/387 388/388/388 383/383/383
f 389/389/389 388/388/388 387/387/387
f 385/385/385 386/386/386 390/390/390
f 390/390/390 386/386/386 391/391/391
f 390/390/390 391/391/391 392/392/392
f 392/392/392 391/391/391 393/393/393
f 396/396/396 395/395/395 394/394/394
f 397/397/397 395/395/395 396/396/396
f 396/396/396 398/398/398 397/397/397
f 397/397/397 398/398/398 399/399/399
f 402/402/402 401/401/401 400/400/400
f 400/400/400 401/401/401 403/403/403
f 406/406/406 405/405/405 404/404/404
f 407/407/407 405/405/405 406/406/406
f 410/410/410 409/409/409 408/408/408
f 411/411/411 409/409/409 410/410/410
f 414/414/414 413/413/413 412/412/412
f 415/415/415 413/413/413 414/414/414
f 413/413/413 416/416/416 412/412/412
f 419/419/419 418/418/418 417/417/417
f 422/422/422 421/421/421 420/420/420
f 423/423/423 421/421/421 422/422/422
f 422/422/422 424/424/424 423/423/423
f 423/423/423 424/424/424 425/425/425
f 424/424/424 426/426/426 425/425/425
f 425/425/425 426/426/426 427/427/427
f 430/430/430 429/429/429 428/428/428
f 428/428/428 429/429/429 431/431/431
f 434/434/434 433/433/433 432/432/432
f 435/435/435 434/434/434 432/432/432
f 432/432/432 433/433/433 436/436/436
f 436/436/436 433/433/433 437/437/437
f 437/437/437 433/433/433 438/438/438
f 438/438/438 439/439/439 437/437/437
f 437/437/437 439/439/439 440/440/440
f 439/439/439 441/441/441 440/440/440
f 441/441/441 435/435/435 442/442/442
f 440/440/440 441/441/441 442/442/442
f 443/443/443 435/435/435 441/441/441
f 443/443/443 434/434/434 435/435/435
f 446/446/446 445/445/445 444/444/444
f 447/447/447 445/445/445 446/446/446
f 447/447/447 448/448/448 445/445/445
f 449/449/449 448/448/448 447/447/447
f 446/446/446 444/444/444 450/450/450
f 450/450/450 444/444/444 451/451/451
f 454/454/454 453/453/453 452/452/452
f 455/455/455 453/453/453 454/454/454
f 458/458/458 457/457/457 456/456/456
f 456/456/456 457/457/457 459/459/459
f 462/462/462 461/461/461 460/460/460
f 465/465/465 464/464/464 463/463/463
f 468/468/468 467/467/467 466/466/466
f 469/469/469 467/467/467 468/468/468
f 472/472/472 471/471/471 470/470/470
f 475/475/475 474/474/474 473/473/473
f 476/476/476 475/475/475 473/473/473
f 477/477/477 475/475/475 476/476/476
f 479/479/479 478/478/478 473/473/473
f 479/479/479 481/481/481 480/480/480
f 484/484/484 483/483/483 482/482/482
f 485/485/485 483/483/483 484/484/484
f 488/488/488 487/487/487 486/486/486
f 489/489/489 487/487/487 488/488/488
f 488/488/488 486/486/486 490/490/490
f 493/493/493 492/492/492 491/491/491
f 494/494/494 492/492/492 493/493/493
f 497/497/497 496/496/496 495/495/495
