g BRM_Rookery_Egg2
v 1327.485 -0.213161 -119.7706
v 1328.559 0.993913 -118.1358
v 1331.942 1.083738 -125.9177
v 1334.053 3.45149 -122.7215
v 1328.827 -1.098901 -128.1862
v 1325.895 -1.325864 -120.9211
v 1325.006 -2.882779 -129.288
v 1323.933 -2.235282 -121.4469
v 1320.835 -4.09326 -129.0644
v 1321.79 -2.85238 -121.2876
v 1316.701 -4.611862 -127.4851
v 1319.668 -3.116769 -120.4449
v 1312.994 -4.387817 -124.6636
v 1317.771 -3.002536 -118.9875
v 1310.072 -3.443071 -120.8654
v 1316.28 -2.520919 -117.0488
v 1308.226 -1.87006 -116.4758
v 1315.34 -1.71901 -114.8143
v 1307.654 0.177193 -111.966
v 1315.038 -0.675324 -112.4866
v 1308.41 2.498305 -107.7762
v 1315.434 0.507966 -110.3791
v 1310.47 4.866064 -104.4488
v 1316.488 1.715034 -108.6935
v 1313.622 7.048702 -102.2759
v 1318.089 2.827728 -107.5713
v 1317.551 8.832568 -101.4601
v 1320.082 3.737146 -107.1268
v 1321.857 10.04305 -102.0355
v 1322.265 4.354256 -107.3901
v 1326.096 10.56165 -103.8917
v 1324.422 4.618633 -108.3243
v 1329.848 10.33761 -106.8291
v 1326.337 4.504401 -109.8297
v 1332.734 9.392852 -110.5347
v 1327.826 4.022777 -111.7631
v 1334.481 7.819861 -114.6641
v 1328.748 3.220871 -113.9513
v 1334.931 5.772609 -118.8525
v 1329.018 2.1772 -116.1934
v 1321.029 16.84779 -98.02326
v 1327.179 17.60067 -100.7067
v 1332.616 17.27542 -104.9441
v 1336.774 15.90385 -110.2387
v 1339.252 13.62022 -116.0827
v 1339.835 10.64807 -121.9792
v 1338.523 7.278341 -127.4984
v 1335.456 3.84087 -132.1332
v 1330.935 0.672168 -135.4298
v 1325.403 -1.91761 -137.0656
v 1319.399 -3.67496 -136.8779
v 1313.469 -4.427853 -134.7713
v 1308.147 -4.102588 -130.8346
v 1303.937 -2.730998 -125.4046
v 1301.256 -0.447378 -119.0284
v 1300.402 2.524766 -112.4215
v 1301.504 5.8945 -106.3507
v 1304.49 9.33196 -101.5051
v 1309.079 12.50068 -98.38728
v 1314.805 15.09045 -97.25778
v 1294.722 2.494377 -122.4358
v 1298.1 -0.412124 -130.4614
v 1293.641 6.277192 -114.0441
v 1295.04 10.56604 -106.3061
v 1298.842 14.94111 -100.1425
v 1304.694 18.97411 -96.2032
v 1311.84 22.27028 -94.39671
v 1319.753 24.50695 -95.3482
v 1327.59 25.46521 -98.78764
v 1334.507 25.05121 -104.1753
v 1339.767 23.30555 -110.827
v 1342.852 20.39905 -118.0855
v 1343.578 16.61621 -125.5482
v 1341.908 12.32736 -132.5729
v 1338.005 7.952297 -138.4718
v 1332.25 3.919288 -142.6676
v 1325.209 0.623128 -144.7496
v 1317.57 -1.613545 -144.5129
v 1310.081 -2.571803 -141.9799
v 1303.395 -2.157819 -137.2021
v 1339.498 13.25999 -144.7121
v 1332.732 8.5177 -149.6459
v 1324.461 4.641807 -152.0877
v 1315.496 2.011749 -151.7978
v 1306.697 0.88495 -148.8171
v 1298.907 1.371738 -143.4116
v 1292.755 3.424457 -135.741
v 1288.828 6.84216 -126.446
v 1287.576 11.29029 -116.6269
v 1289.233 16.33345 -107.5614
v 1293.684 21.47796 -100.2626
v 1300.45 26.22028 -95.3289
v 1308.86 30.09616 -93.22097
v 1318.154 32.7262 -94.31203
v 1327.314 33.85299 -98.20929
v 1335.431 33.36621 -104.5027
v 1341.599 31.31351 -112.2796
v 1345.198 27.89581 -120.7403
v 1346.052 23.44768 -129.5156
v 1344.088 18.40451 -137.7757
v 1339.879 19.56 -150.6143
v 1344.979 25.27629 -142.907
v 1332.366 14.29062 -156.0928
v 1323.202 9.983987 -158.7887
v 1313.261 7.061613 -158.4527
v 1303.491 5.809605 -155.1354
v 1294.841 6.350499 -149.1667
v 1288.099 8.631331 -140.9617
v 1283.804 12.42887 -130.9038
v 1282.459 17.37137 -120.1225
v 1284.273 22.97502 -109.9773
v 1289.232 28.69132 -101.9022
v 1296.641 33.96069 -96.13503
v 1305.956 38.26733 -93.71611
v 1284.269 15.00838 -145.8441
v 1279.817 19.03984 -135.5366
v 1278.459 24.28677 -124.3234
v 1280.45 30.23557 -113.7265
v 1285.518 36.30395 -104.636
v 1293.315 41.89788 -98.33405
v 1303.082 46.4698 -95.44632
v 1276.958 26.42099 -140.0243
v 1281.388 22.31057 -150.1962
v 1291.38 12.58705 -154.3738
v 1300.571 12.01286 -160.705
v 1310.935 13.34199 -164.2319
v 1321.469 16.44434 -164.6017
v 1331.174 21.01626 -161.7561
v 1339.133 26.6102 -155.9514
v 1344.547 32.67858 -147.7694
v 1347.161 30.87995 -133.7288
v 1346.212 35.82244 -123.9782
v 1342.21 39.61998 -114.5708
v 1335.327 41.90083 -105.8482
v 1326.268 42.44172 -98.7523
v 1316.093 41.1897 -94.4286
v 1341.61 47.90577 -117.6927
v 1334.295 50.32709 -108.4146
v 1345.856 43.87432 -127.6748
v 1346.863 38.6274 -138.0259
v 1345.17 46.39229 -142.2418
v 1344.143 51.74201 -131.6878
v 1342.808 40.32693 -152.1761
v 1337.297 34.13967 -160.5122
v 1329.198 28.43614 -166.4204
v 1319.315 23.77465 -169.3133
v 1308.588 20.61151 -168.9275
v 1298.026 19.25635 -165.3277
v 1288.65 19.84179 -158.8762
v 1334.452 41.85905 -164.1156
v 1339.832 47.92743 -155.9565
v 1326.533 36.26511 -169.893
v 1316.822 31.6932 -172.7426
v 1306.292 28.59083 -172.3706
v 1295.935 27.26171 -168.8387
v 1286.736 27.83591 -162.5126
v 1279.615 30.25725 -153.999
v 1275.296 34.28869 -144.1125
v 1274.145 39.53562 -133.556
v 1275.696 31.77072 -128.9775
v 1277.67 37.83609 -118.0258
v 1314.116 39.89566 -174.7376
v 1323.252 44.20232 -172.0611
v 1285.73 36.26218 -165.1326
v 1294.393 35.72128 -171.0927
v 1304.159 36.9733 -174.4128
v 1279.027 38.54303 -157.1096
v 1316.093 41.1897 -94.4286
v 1305.956 38.26733 -93.71611
v 1313.853 49.57218 -96.23111
v 1303.082 46.4698 -95.44632
v 1324.658 50.90131 -100.8303
v 1326.268 42.44172 -98.7523
v 1334.295 50.32709 -108.4146
v 1335.327 41.90083 -105.8482
v 1322.557 58.90666 -104.3868
v 1311.543 57.55148 -99.70564
v 1300.557 54.38834 -98.8972
v 1332.373 58.32121 -112.0975
v 1339.818 55.85245 -121.5212
v 1341.61 47.90577 -117.6927
v 1344.143 51.74201 -131.6878
v 1345.856 43.87432 -127.6748
v 1309.246 64.82101 -104.7078
v 1298.483 61.71864 -103.9434
v 1290.717 49.72687 -102.15
v 1293.315 41.89788 -98.33405
v 1285.518 36.30395 -104.636
v 1282.754 44.02335 -108.5424
v 1280.45 30.23557 -113.7265
v 1277.67 37.83609 -118.0258
v 1281.188 51.55281 -113.8407
v 1276.128 45.48441 -122.9484
v 1275.696 31.77072 -128.9775
v 1274.145 39.53562 -133.556
v 1288.887 57.14674 -107.2808
v 1275.917 52.88671 -128.3897
v 1273.936 47.28305 -138.0369
v 1275.296 34.28869 -144.1125
v 1274.96 42.34058 -147.7956
v 1279.615 30.25725 -153.999
v 1279.027 38.54303 -157.1096
v 1280.726 58.60301 -119.9213
v 1287.949 63.87237 -113.6673
v 1297.014 68.17902 -110.5913
v 1307.125 71.10138 -111.2381
v 1317.239 72.3534 -115.4007
v 1320.047 66.15015 -109.2958
v 1329.642 65.57594 -116.771
v 1336.903 63.1546 -125.9089
v 1341.139 59.12317 -135.8633
v 1342.146 53.87624 -146.2144
v 1345.17 46.39229 -142.2418
v 1339.832 47.92743 -155.9565
v 1342.808 40.32693 -152.1761
v 1326.203 71.81251 -122.2491
v 1332.973 69.53165 -130.6721
v 1336.96 65.73414 -140.0406
v 1337.908 60.79164 -149.7911
v 1335.746 55.18798 -158.9561
v 1330.699 49.47168 -166.6275
v 1334.452 41.85905 -164.1156
v 1323.252 44.20232 -172.0611
v 1326.533 36.26511 -169.893
v 1326.176 56.68504 -167.9561
v 1330.706 61.82958 -161.0602
v 1319.476 51.94272 -172.8449
v 1311.249 48.06685 -175.257
v 1314.116 39.89566 -174.7376
v 1302.289 45.4368 -174.9636
v 1304.159 36.9733 -174.4128
v 1328.177 74.73855 -135.6279
v 1331.765 71.32085 -144.0593
v 1332.631 66.8727 -152.8263
v 1321.053 63.22187 -168.0528
v 1324.898 67.59695 -162.1931
v 1315.353 59.18888 -172.2115
v 1308.348 55.89272 -174.2687
v 1300.726 53.65606 -174.0211
v 1293.236 52.69778 -171.4908
v 1293.482 44.31001 -171.9883
v 1294.393 35.72128 -171.0927
v 1285.687 44.7968 -166.6226
v 1285.73 36.26218 -165.1326
v 1279.662 46.84951 -159.3972
v 1276.006 50.26719 -151.0115
v 1275.092 54.71531 -142.2769
v 1276.962 59.75848 -133.8949
v 1281.353 64.90301 -126.4681
v 1287.914 69.64531 -120.9978
v 1296.105 73.52119 -118.3173
v 1305.171 76.15126 -118.8086
v 1314.19 77.27804 -122.3383
v 1322.158 76.79125 -128.2399
v 1283.033 70.21069 -133.1695
v 1279.224 65.83566 -139.2238
v 1288.68 74.2437 -128.7222
v 1295.678 77.53987 -126.5267
v 1303.357 79.77654 -126.863
v 1310.946 80.7348 -129.6537
v 1317.624 80.32082 -134.4143
v 1322.704 78.57513 -140.5943
v 1325.766 75.66863 -147.7575
v 1326.521 71.88581 -155.2005
v 1285.677 74.32213 -139.6667
v 1282.645 70.88467 -144.2785
v 1277.602 61.5468 -146.2198
v 1278.387 57.76397 -153.6428
v 1281.495 54.85746 -160.7751
v 1286.61 53.11177 -166.9257
v 1288.462 60.88759 -166.0307
v 1293.665 60.56231 -169.6194
v 1299.55 61.31522 -171.6075
v 1305.542 63.07255 -171.8001
v 1311.044 65.66232 -170.185
v 1315.521 68.83104 -166.9182
v 1318.538 72.26852 -162.3167
v 1284.441 62.25916 -161.1995
v 1281.998 64.54279 -155.5965
v 1281.378 67.51493 -149.7669
v 1319.805 75.63824 -156.8281
v 1319.2 78.6104 -150.9886
v 1316.78 80.894 -145.37
v 1312.779 82.2656 -140.5252
v 1307.583 82.59085 -136.9309
v 1301.682 81.83797 -134.9012
v 1295.674 80.08062 -134.6912
v 1290.162 77.49084 -136.3463
v 1292.31 79.26191 -143.5807
v 1289.219 77.07928 -145.8362
v 1287.136 74.7115 -149.0081
v 1286.268 72.39039 -152.7855
v 1286.698 70.34315 -156.7993
v 1288.382 68.77015 -160.6581
v 1291.152 67.82538 -163.9857
v 1294.736 67.60133 -166.4575
v 1298.789 68.11994 -167.827
v 1302.917 69.33044 -167.9596
v 1306.706 71.11429 -166.8472
v 1309.789 73.29694 -164.5977
v 1311.865 75.66472 -161.4298
v 1312.734 77.98582 -157.6523
v 1312.31 80.03307 -153.6343
v 1310.635 81.60608 -149.7696
v 1307.87 82.55083 -146.4389
v 1304.286 82.77486 -143.967
v 1300.233 82.25626 -142.5966
v 1296.106 81.04578 -142.4639
v 1297.088 80.39827 -149.907
v 1295.155 79.48888 -150.4744
v 1293.582 78.37618 -151.6224
v 1292.523 77.1691 -153.2381
v 1292.081 75.9858 -155.1631
v 1292.3 74.94214 -157.2094
v 1293.158 74.14023 -159.1771
v 1294.569 73.65858 -160.8739
v 1296.398 73.54438 -162.1327
v 1298.465 73.80875 -162.8307
v 1300.567 74.42585 -162.8999
v 1302.499 75.33527 -162.3324
v 1304.072 76.44798 -161.1851
v 1305.13 77.65502 -159.5701
v 1305.572 78.83833 -157.6451
v 1305.354 79.882 -155.5979
v 1304.493 80.68391 -153.6325
v 1303.079 81.16557 -151.9375
v 1301.255 81.27977 -150.6752
v 1299.19 81.01538 -149.976
v 1298.596 78.163 -156.8061
v 1322.251 0 -113.914
v 1345.598 5.872315 -129.532
v 1346.143 3.871578 -126.1898
v 1353.145 8.797813 -127.135
v 1353.335 7.481831 -124.404
v 1352.322 11.75585 -129.3587
v 1343.75 10.43283 -132.7589
v 1351.532 14.90743 -130.8113
v 1342.799 14.77829 -134.6458
v 1350.78 17.4494 -131.4484
v 1345.083 4.241896 -123.0421
v 1352.451 7.669288 -121.5639
v 1342.505 6.446511 -120.465
v 1350.643 8.949757 -119.0522
v 1339.807 9.041512 -118.1461
v 1348.897 10.92551 -117.0794
v 1338.547 11.61085 -115.9047
v 1348.234 13.18051 -115.9411
v 1338.842 15.03874 -115.0115
v 1357.219 16.99929 -129.9713
v 1358.303 14.991 -128.4249
v 1359.97 19.31512 -128.4385
v 1360.522 18.40864 -127.6399
v 1359.029 13.4068 -126.3552
v 1360.95 17.80971 -126.5136
v 1361.069 20.61828 -125.4268
v 1361.172 17.43832 -125.2947
v 1361.157 17.3807 -124.124
v 1360.937 17.6873 -123.1266
v 1360.552 18.28362 -122.4594
v 1359.369 12.56838 -124.0714
v 1358.027 14.12244 -118.676
v 1357.03 15.77389 -118.2153
v 1360.042 19.13441 -122.2601
v 1358.803 12.94324 -119.9617
v 1359.288 12.37167 -121.8541
v 1348.194 15.70356 -116.0562
v 1342.817 18.4209 -134.8181
v 1342.799 14.77829 -134.6458
v 1350.78 17.4494 -131.4484
v 1349.812 19.43743 -131.0646
v 1342.705 21.1581 -133.6463
v 1349.106 20.72357 -129.335
v 1342.524 22.91834 -131.0313
v 1349.063 21.17473 -126.3243
v 1340.865 24.69884 -126.9984
v 1349.116 20.66201 -122.8972
v 1340.328 23.98199 -122.9907
v 1348.752 19.53505 -119.9543
v 1340.697 21.99731 -117.8543
v 1348.469 17.85166 -117.5305
v 1340.116 18.74185 -116.1233
v 1348.194 15.70356 -116.0562
v 1355.052 20.40376 -130.2911
v 1356.037 18.97351 -130.667
v 1358.915 21.31828 -128.5195
v 1359.38 20.36509 -128.7735
v 1361.069 20.61828 -125.4268
v 1359.97 19.31512 -128.4385
v 1360.522 18.40864 -127.6399
v 1358.543 22.07419 -127.8209
v 1358.318 22.52533 -126.7993
v 1358.344 22.47624 -125.5869
v 1358.579 22.04316 -124.3619
v 1358.987 21.30293 -123.2763
v 1359.49 20.19603 -122.5525
v 1360.042 19.13441 -122.2601
v 1360.552 18.28362 -122.4594
v 1357.219 16.99929 -129.9713
v 1354.351 21.46254 -128.9658
v 1353.981 22.11952 -126.9602
v 1354.036 21.94629 -124.6197
v 1354.398 21.0233 -122.2697
v 1355.058 19.53679 -120.1754
v 1355.959 17.71907 -118.7456
v 1357.03 15.77389 -118.2153
v 1338.842 15.03874 -115.0115
v 1356.037 18.97351 -130.667
v 1297.71 65.62242 -112.9371
v 1299.67 72.68002 -116.0405
v 1297.541 67.45699 -109.8001
v 1299.265 71.49305 -110.8621
v 1295.693 63.47669 -107.7556
v 1296.171 60.32962 -110.2993
v 1293.414 61.26159 -105.335
v 1294.491 58.56594 -107.0506
v 1292.793 60.21371 -103.0469
v 1293.604 57.35778 -104.1351
v 1291.968 65.89819 -101.3599
v 1292.131 67.39727 -103.2391
v 1291.166 69.36787 -100.0016
v 1291.309 70.17714 -101.1219
v 1293.242 72.56957 -99.39348
v 1291.937 71.12164 -101.9491
v 1292.849 72.10891 -102.3997
v 1293.892 72.94534 -102.5911
v 1291.597 68.91314 -98.81887
v 1292.41 68.78129 -97.77393
v 1293.428 69.01656 -97.04952
v 1294.486 69.67944 -96.90386
v 1295.523 70.56072 -97.16544
v 1296.393 71.54676 -97.79662
v 1296.913 72.47626 -98.91766
v 1297.026 73.21748 -100.0674
v 1296.699 73.66011 -101.0717
v 1295.922 73.77989 -101.9168
v 1294.942 73.52749 -102.4553
v 1296.481 71.9825 -106.4723
v 1294.752 70.59633 -106.0382
v 1293.211 69.03091 -104.8685
v 1301.639 69.22717 -98.2084
v 1300.068 67.68394 -97.15187
v 1302.573 70.61066 -99.75625
v 1302.553 71.88734 -101.7408
v 1301.62 72.83457 -103.698
v 1300.108 73.16109 -105.3067
v 1300.108 73.16109 -105.3067
v 1298.314 72.9059 -106.2795
v 1299.265 71.49305 -110.8621
v 1308.226 63.53355 -100.9532
v 1306.592 63.10623 -99.15288
v 1310.676 58.22002 -100.4068
v 1312.097 60.70024 -102.5141
v 1308.276 65.08994 -103.1013
v 1311.75 63.89775 -105.485
v 1307.013 67.46084 -105.1901
v 1310.109 68.03728 -109.0514
v 1304.888 71.74734 -108.852
v 1308.043 73.04408 -114.6873
v 1302.192 71.4923 -110.9658
v 1304.401 72.74162 -116.0956
v 1299.265 71.49305 -110.8621
v 1300.108 73.16109 -105.3067
v 1299.265 71.49305 -110.8621
v 1299.67 72.68002 -116.0405
v 1294.594 55.90007 -100.8939
v 1293.604 57.35778 -104.1351
v 1293.287 59.28252 -101.101
v 1292.793 60.21371 -103.0469
v 1295.969 58.39795 -99.56921
v 1297.837 53.90137 -99.57603
v 1299.457 59.18006 -98.41103
v 1301.377 53.05402 -98.68865
v 1301.866 61.66684 -98.08099
v 1304.669 54.32085 -98.46033
v 1304.369 62.71161 -98.32919
v 1307.989 56.59685 -98.80098
v 1306.592 63.10623 -99.15288
v 1310.676 58.22002 -100.4068
v 1294.446 64.61006 -98.1389
v 1292.83 64.91959 -99.68037
v 1292.41 68.78129 -97.77393
v 1291.597 68.91314 -98.81887
v 1291.968 65.89819 -101.3599
v 1291.166 69.36787 -100.0016
v 1293.428 69.01656 -97.04952
v 1296.352 65.05896 -96.98506
v 1298.226 66.2284 -96.71465
v 1294.486 69.67944 -96.90386
v 1300.068 67.68394 -97.15187
v 1295.523 70.56072 -97.16544
v 1301.639 69.22717 -98.2084
v 1292.83 64.91959 -99.68037
v 1293.287 59.28252 -101.101
v 1289.211 44.15086 -168.6993
v 1291.131 39.9854 -170.4674
v 1288.891 45.93431 -179.1205
v 1290.921 42.8872 -180.4174
v 1295.072 38.58172 -171.1196
v 1294.493 41.45713 -181.0626
v 1301.199 39.56095 -170.4137
v 1298.856 41.44033 -180.8403
v 1307.767 41.12469 -168.9131
v 1303.253 42.50764 -180.4472
v 1312.515 42.69054 -169.1716
v 1306.156 44.35828 -180.8093
v 1315.023 45.97622 -170.8631
v 1307.653 47.22718 -181.4368
v 1315.169 50.72051 -172.7584
v 1289.367 50.99745 -187.2852
v 1290.675 49.06277 -188.4297
v 1289.805 55.60228 -190.6177
v 1290.606 54.54166 -191.3465
v 1292.51 47.77495 -189.2767
v 1291.634 53.83925 -191.8838
v 1294.601 47.38272 -189.7888
v 1292.785 53.61627 -192.2146
v 1298.153 49.22265 -189.5432
v 1299.185 51.34529 -188.8038
v 1296.577 47.87228 -189.9001
v 1293.87 53.88024 -192.2882
v 1294.714 54.66918 -192.0822
v 1289.38 51.10502 -166.2573
v 1289.211 44.15086 -168.6993
v 1288.655 50.51692 -177.8922
v 1288.891 45.93431 -179.1205
v 1289.274 54.86697 -177.1326
v 1290.271 57.0343 -165.4237
v 1290.369 58.06675 -176.6543
v 1291.886 61.17905 -166.3643
v 1292.3 60.06144 -176.3092
v 1294.472 63.54026 -167.7037
v 1295.283 60.49363 -176.9032
v 1298.72 63.9802 -169.4988
v 1299.116 59.24907 -178.64
v 1306.144 63.63505 -169.8916
v 1302.569 56.69161 -180.3527
v 1310.831 60.52009 -170.984
v 1305.386 53.73703 -181.2472
v 1314.78 55.33366 -173.4203
v 1307.172 50.4649 -181.6028
v 1289.704 58.45926 -183.8153
v 1288.86 56.22592 -184.7919
v 1289.793 59.53995 -188.5295
v 1289.288 58.24805 -189.0444
v 1292 57.99109 -192.1009
v 1290.733 60.40601 -188.3994
v 1292 57.99109 -192.1009
v 1291.93 60.82011 -188.5315
v 1293.201 60.7358 -188.9031
v 1294.27 60.01905 -189.5119
v 1288.74 53.53845 -186.0391
v 1289.297 56.85297 -189.7764
v 1292 57.99109 -192.1009
v 1289.367 50.99745 -187.2852
v 1289.805 55.60228 -190.6177
v 1292 57.99109 -192.1009
v 1291.122 59.64128 -183.3648
v 1293.074 59.996 -183.5375
v 1295.301 59.62782 -184.2608
v 1297.226 58.29997 -185.3676
v 1295.043 58.89026 -190.2567
v 1292 57.99109 -192.1009
v 1298.64 56.25178 -186.5893
v 1295.44 57.51365 -191.0353
v 1292 57.99109 -192.1009
v 1299.377 53.79206 -187.8048
v 1295.265 55.94959 -191.6414
v 1292 57.99109 -192.1009
v 1299.185 51.34529 -188.8038
v 1294.714 54.66918 -192.0822
v 1292 57.99109 -192.1009
v 1298.153 49.22265 -189.5432
v 1307.653 47.22718 -181.4368
v 1315.169 50.72051 -172.7584
v 1292 57.99109 -192.1009
v 1293.87 53.88024 -192.2882
v 1294.714 54.66918 -192.0822
v 1292.785 53.61627 -192.2146
v 1291.634 53.83925 -191.8838
v 1290.606 54.54166 -191.3465
v 1292 57.99109 -192.1009
v 1289.805 55.60228 -190.6177
v 1315.169 50.72051 -172.7584
v 1314.78 55.33366 -173.4203
v 1307.172 50.4649 -181.6028
v 1269.236 29.84431 -136.9536
v 1269.808 30.82659 -139.1291
v 1269.109 31.52667 -138.8276
v 1269.236 29.84431 -136.9536
v 1270.636 30.14218 -139.2171
v 1271.505 33.88479 -140.9349
v 1272.788 32.54922 -140.806
v 1271.42 29.50639 -138.947
v 1269.236 29.84431 -136.9536
v 1274.133 31.37538 -140.2038
v 1272.09 29.08381 -138.2951
v 1269.236 29.84431 -136.9536
v 1272.463 28.99595 -137.3711
v 1275.39 30.74417 -139.0894
v 1276.238 30.85198 -137.7027
v 1272.568 29.18867 -136.381
v 1269.236 29.84431 -136.9536
v 1276.522 31.45489 -136.0948
v 1272.367 29.59996 -135.5096
v 1269.236 29.84431 -136.9536
v 1276.149 32.30381 -134.5982
v 1271.81 30.20338 -134.9871
v 1269.236 29.84431 -136.9536
v 1275.165 33.36941 -133.6642
v 1271.074 30.92 -134.7323
v 1269.236 29.84431 -136.9536
v 1270.254 31.64633 -134.7802
v 1273.958 34.64739 -133.1996
v 1280.69 32.86234 -140.2037
v 1279.728 33.94151 -141.4174
v 1278.01 36.23937 -142.0827
v 1276.084 38.81785 -142.8115
v 1280.225 34.94016 -134.4485
v 1279.064 36.86466 -133.3796
v 1278.078 38.48359 -132.5358
v 1272.69 35.96264 -133.2432
v 1269.495 32.32272 -135.2872
v 1269.236 29.84431 -136.9536
v 1271.563 37.0382 -133.8578
v 1277.183 39.86589 -132.1244
v 1269.236 29.84431 -136.9536
v 1268.888 32.74658 -135.9731
v 1281.082 33.18657 -136.5948
v 1281.239 32.43657 -138.735
v 1269.236 29.84431 -136.9536
v 1268.522 32.83993 -136.7407
v 1268.888 32.74658 -135.9731
v 1269.236 29.84431 -136.9536
v 1268.418 32.59562 -137.5848
v 1269.236 29.84431 -136.9536
v 1268.626 32.14114 -138.3187
v 1269.236 29.84431 -136.9536
v 1269.109 31.52667 -138.8276
v 1277.183 39.86589 -132.1244
v 1271.563 37.0382 -133.8578
v 1276.208 41.15421 -132.5672
v 1269.109 31.52667 -138.8276
v 1269.808 30.82659 -139.1291
v 1270.355 35.09098 -140.5133
v 1271.505 33.88479 -140.9349
v 1269.598 36.19556 -139.6595
v 1268.626 32.14114 -138.3187
v 1269.407 37.06571 -138.3353
v 1268.418 32.59562 -137.5848
v 1269.698 37.56973 -136.7216
v 1268.522 32.83993 -136.7407
v 1270.505 37.61352 -135.1218
v 1268.888 32.74658 -135.9731
v 1271.563 37.0382 -133.8578
v 1269.495 32.32272 -135.2872
v 1274.414 41.16522 -142.9908
v 1276.084 38.81785 -142.8115
v 1276.208 41.15421 -132.5672
v 1275.316 42.08745 -133.9695
v 1274.605 42.62099 -135.9451
v 1273.303 43.6423 -139.3787
v 1273.593 42.63145 -141.8113
v 1272.69 35.96264 -133.2432
v 1271.563 37.0382 -133.8578
v 1277.183 39.86589 -132.1244
vt 0.527629 0.90128
vt 0.53037 0.905128
vt 0.537361 0.889174
vt 0.54276 0.896696
vt 0.529993 0.883645
vt 0.523874 0.898468
vt 0.521367 0.880677
vt 0.519449 0.897022
vt 0.512284 0.880657
vt 0.514781 0.897101
vt 0.503584 0.883689
vt 0.510314 0.898723
vt 0.49608 0.889562
vt 0.506472 0.901759
vt 0.490492 0.897729
vt 0.503622 0.905931
vt 0.487374 0.907372
vt 0.502039 0.910843
vt 0.487067 0.917469
vt 0.501867 0.916049
vt 0.489608 0.927041
vt 0.50319 0.920866
vt 0.494859 0.934876
vt 0.50588 0.924829
vt 0.502288 0.94027
vt 0.509654 0.927599
vt 0.511161 0.942707
vt 0.514148 0.928893
vt 0.520571 0.942033
vt 0.518911 0.928608
vt 0.529547 0.938424
vt 0.523465 0.926796
vt 0.537187 0.932269
vt 0.527357 0.923651
vt 0.542717 0.924231
vt 0.530206 0.919473
vt 0.545608 0.915066
vt 0.531747 0.914641
vt 0.545612 0.9056
vt 0.531839 0.909603
vt 0.521867 0.953228
vt 0.534928 0.947999
vt 0.546031 0.939092
vt 0.554009 0.927561
vt 0.558087 0.914532
vt 0.557932 0.90114
vt 0.553691 0.888401
vt 0.545822 0.877491
vt 0.535109 0.869467
vt 0.522603 0.865097
vt 0.50952 0.864799
vt 0.497036 0.868825
vt 0.486265 0.877023
vt 0.478209 0.888704
vt 0.473665 0.902709
vt 0.473155 0.9175
vt 0.476838 0.931392
vt 0.484446 0.942826
vt 0.495271 0.95061
vt 0.508223 0.954055
vt 0.461463 0.896897
vt 0.467197 0.879245
vt 0.460807 0.915708
vt 0.465472 0.933444
vt 0.475161 0.948028
vt 0.488983 0.957912
vt 0.505219 0.963086
vt 0.52262 0.962086
vt 0.53932 0.955361
vt 0.553493 0.943997
vt 0.563606 0.929451
vt 0.568657 0.91319
vt 0.568409 0.89619
vt 0.56298 0.87995
vt 0.55293 0.866055
vt 0.539263 0.855849
vt 0.523323 0.850301
vt 0.506661 0.84993
vt 0.490881 0.85476
vt 0.477337 0.864724
vt 0.558431 0.855246
vt 0.542318 0.843242
vt 0.523556 0.836741
vt 0.503969 0.836344
vt 0.485401 0.842043
vt 0.469599 0.853337
vt 0.457802 0.869905
vt 0.451126 0.890394
vt 0.450371 0.912448
vt 0.455874 0.933279
vt 0.467237 0.950582
vt 0.483287 0.962872
vt 0.502445 0.968951
vt 0.522955 0.967835
vt 0.542546 0.960209
vt 0.559239 0.946883
vt 0.57113 0.929811
vt 0.577019 0.910781
vt 0.576711 0.890738
vt 0.570292 0.871603
vt 0.562111 0.845469
vt 0.575338 0.863673
vt 0.544165 0.832127
vt 0.52332 0.824943
vt 0.501551 0.824544
vt 0.480893 0.830908
vt 0.463307 0.843403
vt 0.450358 0.861188
vt 0.44305 0.883437
vt 0.442288 0.907724
vt 0.448344 0.931075
vt 0.461018 0.950282
vt 0.47867 0.964579
vt 0.499964 0.97152
vt 0.445064 0.853584
vt 0.437498 0.876491
vt 0.436819 0.901854
vt 0.443392 0.926345
vt 0.456465 0.947871
vt 0.475115 0.96347
vt 0.497539 0.971534
vt 0.43457 0.870112
vt 0.442089 0.847394
vt 0.458759 0.835034
vt 0.477497 0.821746
vt 0.499467 0.814956
vt 0.522599 0.815341
vt 0.544741 0.822937
vt 0.563817 0.837098
vt 0.577909 0.856464
vt 0.582506 0.884984
vt 0.582862 0.907319
vt 0.5763 0.928548
vt 0.562977 0.947757
vt 0.54428 0.962834
vt 0.522435 0.971324
vt 0.578954 0.925525
vt 0.564747 0.946027
vt 0.585936 0.902925
vt 0.58555 0.879145
vt 0.585698 0.873443
vt 0.586094 0.897759
vt 0.577881 0.850256
vt 0.563486 0.830476
vt 0.544006 0.816029
vt 0.521385 0.808291
vt 0.497756 0.807925
vt 0.475297 0.814881
vt 0.456121 0.828463
vt 0.561129 0.825884
vt 0.575236 0.845301
vt 0.542016 0.811714
vt 0.519721 0.804082
vt 0.496448 0.803714
vt 0.474349 0.810565
vt 0.455472 0.823928
vt 0.441663 0.842555
vt 0.434317 0.864716
vt 0.434059 0.888848
vt 0.434123 0.895237
vt 0.440722 0.92058
vt 0.517726 0.802945
vt 0.538773 0.810141
vt 0.45689 0.821644
vt 0.474733 0.809009
vt 0.495647 0.802545
vt 0.443847 0.839258
vt 0.522435 0.971324
vt 0.499964 0.97152
vt 0.521501 0.971265
vt 0.497539 0.971534
vt 0.544784 0.9622
vt 0.54428 0.962834
vt 0.564747 0.946027
vt 0.562977 0.947757
vt 0.544044 0.958245
vt 0.520229 0.967505
vt 0.495708 0.967803
vt 0.564452 0.941745
vt 0.578959 0.920849
vt 0.578954 0.925525
vt 0.586094 0.897759
vt 0.585936 0.902925
vt 0.518658 0.960177
vt 0.494556 0.96042
vt 0.473018 0.958913
vt 0.475115 0.96347
vt 0.456465 0.947871
vt 0.453918 0.943036
vt 0.443392 0.926345
vt 0.440722 0.92058
vt 0.453789 0.935163
vt 0.440649 0.913491
vt 0.434123 0.895237
vt 0.434059 0.888848
vt 0.47235 0.951378
vt 0.443271 0.905162
vt 0.436797 0.882614
vt 0.434317 0.864716
vt 0.43691 0.860204
vt 0.441663 0.842555
vt 0.443847 0.839258
vt 0.455782 0.925386
vt 0.473262 0.94084
vt 0.494295 0.949218
vt 0.517002 0.94913
vt 0.539002 0.940857
vt 0.542086 0.951068
vt 0.562096 0.93502
vt 0.576288 0.914688
vt 0.5833 0.892015
vt 0.582916 0.868101
vt 0.585698 0.873443
vt 0.575236 0.845301
vt 0.577881 0.850256
vt 0.557747 0.92611
vt 0.571008 0.907304
vt 0.577635 0.885914
vt 0.577285 0.863333
vt 0.570078 0.841824
vt 0.556801 0.823511
vt 0.561129 0.825884
vt 0.538773 0.810141
vt 0.542016 0.811714
vt 0.55064 0.823462
vt 0.562584 0.839974
vt 0.534376 0.811391
vt 0.515364 0.804883
vt 0.517726 0.802945
vt 0.495427 0.804522
vt 0.495647 0.802545
vt 0.56331 0.898981
vt 0.5693 0.879696
vt 0.569026 0.859348
vt 0.542861 0.825755
vt 0.553014 0.839826
vt 0.528996 0.81545
vt 0.512762 0.809878
vt 0.495742 0.809561
vt 0.479583 0.814519
vt 0.476496 0.810333
vt 0.474733 0.809009
vt 0.460383 0.821751
vt 0.45689 0.821644
vt 0.44862 0.837671
vt 0.442373 0.856591
vt 0.442298 0.876718
vt 0.448337 0.896425
vt 0.45977 0.914245
vt 0.475678 0.927831
vt 0.494727 0.935181
vt 0.515136 0.935278
vt 0.534801 0.928269
vt 0.551498 0.915527
vt 0.465588 0.902301
vt 0.455669 0.887682
vt 0.479297 0.913423
vt 0.495599 0.919485
vt 0.512917 0.919725
vt 0.529495 0.914198
vt 0.543508 0.903897
vt 0.553493 0.89003
vt 0.558632 0.873624
vt 0.558456 0.856319
vt 0.47296 0.89024
vt 0.465054 0.879054
vt 0.450436 0.871167
vt 0.450503 0.854015
vt 0.455821 0.83787
vt 0.465838 0.824269
vt 0.47306 0.829126
vt 0.48389 0.821434
vt 0.49663 0.817528
vt 0.510051 0.817788
vt 0.522836 0.822185
vt 0.533745 0.830309
vt 0.541718 0.84139
vt 0.465165 0.839847
vt 0.460981 0.85257
vt 0.460934 0.866075
vt 0.545966 0.854359
vt 0.546062 0.867954
vt 0.541978 0.88083
vt 0.534098 0.891707
vt 0.523185 0.899494
vt 0.510284 0.903499
vt 0.496716 0.903207
vt 0.483859 0.898605
vt 0.489201 0.883965
vt 0.481675 0.878278
vt 0.476225 0.870582
vt 0.473379 0.861638
vt 0.473405 0.85232
vt 0.476289 0.843532
vt 0.48174 0.836124
vt 0.489223 0.830809
vt 0.498025 0.828112
vt 0.507296 0.828297
vt 0.516121 0.831341
vt 0.523642 0.836956
vt 0.529126 0.844603
vt 0.532033 0.853543
vt 0.532072 0.862902
vt 0.529232 0.87176
vt 0.523778 0.879235
vt 0.516249 0.88459
vt 0.507388 0.887293
vt 0.498064 0.887076
vt 0.499864 0.870977
vt 0.49535 0.869402
vt 0.491514 0.866512
vt 0.488732 0.862594
vt 0.487274 0.858032
vt 0.487281 0.853274
vt 0.488748 0.848782
vt 0.49153 0.844993
vt 0.495359 0.842279
vt 0.499858 0.840902
vt 0.504591 0.840997
vt 0.509099 0.842558
vt 0.512936 0.845431
vt 0.515728 0.849337
vt 0.517202 0.853897
vt 0.517211 0.858666
vt 0.515744 0.863168
vt 0.512952 0.866968
vt 0.509123 0.869701
vt 0.504611 0.871081
vt 0.502074 0.855411
vt 0.516975 0.913395
vt 0.567621 0.88365
vt 0.567824 0.88973
vt 0.584527 0.889759
vt 0.584305 0.894858
vt 0.584216 0.886358
vt 0.56591 0.878813
vt 0.58406 0.884619
vt 0.56595 0.876641
vt 0.583697 0.884319
vt 0.565811 0.896355
vt 0.582571 0.900786
vt 0.561516 0.902553
vt 0.579442 0.906485
vt 0.557141 0.908391
vt 0.57676 0.911364
vt 0.555713 0.914071
vt 0.576439 0.914643
vt 0.557889 0.917333
vt 0.596809 0.887195
vt 0.598096 0.889585
vt 0.603607 0.8913
vt 0.604315 0.892588
vt 0.598844 0.893224
vt 0.604915 0.894677
vt 0.606509 0.898068
vt 0.605196 0.897049
vt 0.605139 0.899448
vt 0.60483 0.901637
vt 0.604319 0.903261
vt 0.599149 0.897601
vt 0.597114 0.909381
vt 0.595836 0.911012
vt 0.603669 0.904022
vt 0.598157 0.906241
vt 0.598889 0.9021
vt 0.577532 0.915448
vt 0.567669 0.877732
vt 0.56595 0.876641
vt 0.583697 0.884319
vt 0.582628 0.885911
vt 0.568704 0.881251
vt 0.581768 0.890012
vt 0.569147 0.88738
vt 0.581891 0.896434
vt 0.566528 0.89647
vt 0.58176 0.903328
vt 0.565082 0.904494
vt 0.580478 0.908962
vt 0.564931 0.91433
vt 0.579104 0.913286
vt 0.562225 0.916568
vt 0.577532 0.915448
vt 0.593939 0.887902
vt 0.5953 0.886548
vt 0.60238 0.891942
vt 0.602887 0.891031
vt 0.606509 0.898068
vt 0.603607 0.8913
vt 0.604315 0.892588
vt 0.60197 0.893697
vt 0.601719 0.895998
vt 0.601748 0.898493
vt 0.60203 0.900856
vt 0.602521 0.902804
vt 0.603033 0.903851
vt 0.603669 0.904022
vt 0.604319 0.903261
vt 0.596809 0.887195
vt 0.592987 0.891076
vt 0.592531 0.8955
vt 0.592563 0.900282
vt 0.592876 0.904776
vt 0.59354 0.908504
vt 0.594544 0.910717
vt 0.595836 0.911012
vt 0.557889 0.917333
vt 0.5953 0.886548
vt 0.494642 0.943142
vt 0.501913 0.939643
vt 0.495092 0.950575
vt 0.500527 0.950098
vt 0.489439 0.953149
vt 0.489072 0.946407
vt 0.483665 0.957283
vt 0.484764 0.952483
vt 0.481902 0.961645
vt 0.482371 0.958093
vt 0.482628 0.967729
vt 0.483624 0.964424
vt 0.482441 0.972153
vt 0.483096 0.970144
vt 0.488239 0.97488
vt 0.484838 0.968815
vt 0.487202 0.968302
vt 0.489781 0.96827
vt 0.483155 0.974452
vt 0.484818 0.976604
vt 0.487076 0.978243
vt 0.489605 0.978851
vt 0.492189 0.978695
vt 0.494466 0.977803
vt 0.495978 0.975846
vt 0.496546 0.973743
vt 0.496047 0.971812
vt 0.494452 0.970074
vt 0.492264 0.968819
vt 0.494844 0.959615
vt 0.490571 0.95992
vt 0.486622 0.961702
vt 0.504545 0.975886
vt 0.500536 0.977426
vt 0.507141 0.973231
vt 0.507668 0.969599
vt 0.506114 0.965874
vt 0.503055 0.962609
vt 0.503055 0.962609
vt 0.499138 0.960434
vt 0.500527 0.950098
vt 0.515924 0.967535
vt 0.512282 0.971145
vt 0.518704 0.966326
vt 0.522817 0.962984
vt 0.516729 0.96369
vt 0.523528 0.958128
vt 0.515125 0.960326
vt 0.521933 0.952413
vt 0.512553 0.954469
vt 0.519824 0.94267
vt 0.506726 0.949878
vt 0.511969 0.939553
vt 0.500527 0.950098
vt 0.503055 0.962609
vt 0.500527 0.950098
vt 0.501913 0.939643
vt 0.483824 0.964272
vt 0.482371 0.958093
vt 0.482538 0.965334
vt 0.481902 0.961645
vt 0.487804 0.968169
vt 0.489777 0.96616
vt 0.495495 0.970957
vt 0.496847 0.96765
vt 0.501671 0.972763
vt 0.504324 0.968691
vt 0.507415 0.972707
vt 0.51232 0.968986
vt 0.512282 0.971145
vt 0.518704 0.966326
vt 0.487301 0.973959
vt 0.484024 0.970841
vt 0.484818 0.976604
vt 0.483155 0.974452
vt 0.482628 0.967729
vt 0.482441 0.972153
vt 0.487076 0.978243
vt 0.491524 0.976598
vt 0.496 0.977695
vt 0.489605 0.978851
vt 0.500536 0.977426
vt 0.492189 0.978695
vt 0.504545 0.975886
vt 0.484024 0.970841
vt 0.482538 0.965334
vt 0.467489 0.817159
vt 0.469736 0.811901
vt 0.467575 0.795998
vt 0.470529 0.792167
vt 0.47737 0.810016
vt 0.47739 0.790297
vt 0.49059 0.811855
vt 0.486506 0.790755
vt 0.505 0.815576
vt 0.496166 0.791966
vt 0.515623 0.815622
vt 0.503052 0.791884
vt 0.522341 0.813313
vt 0.507453 0.791617
vt 0.524779 0.811115
vt 0.470729 0.780717
vt 0.472646 0.777618
vt 0.473618 0.775373
vt 0.474849 0.773459
vt 0.475944 0.775379
vt 0.476709 0.772078
vt 0.480159 0.774165
vt 0.479032 0.771302
vt 0.488404 0.775339
vt 0.491494 0.777654
vt 0.484514 0.774107
vt 0.481426 0.771242
vt 0.483544 0.771958
vt 0.470802 0.824909
vt 0.467489 0.817159
vt 0.469029 0.800262
vt 0.467575 0.795998
vt 0.472187 0.80347
vt 0.475215 0.828927
vt 0.475866 0.805669
vt 0.480407 0.828534
vt 0.480795 0.807142
vt 0.48689 0.826614
vt 0.487271 0.806051
vt 0.496053 0.822992
vt 0.494806 0.801926
vt 0.511575 0.822031
vt 0.500954 0.797371
vt 0.520066 0.818541
vt 0.505574 0.794401
vt 0.526043 0.811453
vt 0.507877 0.792453
vt 0.474633 0.790731
vt 0.471899 0.787857
vt 0.475286 0.781192
vt 0.473668 0.779639
vt 0.479267 0.773109
vt 0.477641 0.781781
vt 0.479267 0.773109
vt 0.480345 0.781653
vt 0.482987 0.780839
vt 0.484929 0.779295
vt 0.470496 0.784256
vt 0.473086 0.777594
vt 0.479267 0.773109
vt 0.470729 0.780717
vt 0.473618 0.775373
vt 0.479267 0.773109
vt 0.478131 0.792114
vt 0.482398 0.79188
vt 0.486934 0.790221
vt 0.490409 0.787403
vt 0.486068 0.777317
vt 0.479267 0.773109
vt 0.492491 0.784084
vt 0.486306 0.775182
vt 0.479267 0.773109
vt 0.492965 0.780636
vt 0.485257 0.773344
vt 0.479267 0.773109
vt 0.491494 0.777654
vt 0.483544 0.771958
vt 0.479267 0.773109
vt 0.488404 0.775339
vt 0.507453 0.791617
vt 0.524779 0.811115
vt 0.479267 0.773109
vt 0.481426 0.771242
vt 0.483544 0.771958
vt 0.479032 0.771302
vt 0.476709 0.772078
vt 0.474849 0.773459
vt 0.479267 0.773109
vt 0.473618 0.775373
vt 0.524779 0.811115
vt 0.526043 0.811453
vt 0.507877 0.792453
vt 0.419899 0.877858
vt 0.421484 0.873723
vt 0.420312 0.87463
vt 0.419899 0.877858
vt 0.422933 0.873267
vt 0.426252 0.871179
vt 0.428384 0.870917
vt 0.424307 0.873576
vt 0.419899 0.877858
vt 0.430708 0.871704
vt 0.42553 0.874764
vt 0.419899 0.877858
vt 0.42627 0.87665
vt 0.433068 0.873773
vt 0.434877 0.876702
vt 0.426568 0.878787
vt 0.419899 0.877858
vt 0.435715 0.88029
vt 0.426316 0.880764
vt 0.419899 0.877858
vt 0.435285 0.883748
vt 0.425399 0.882093
vt 0.419899 0.877858
vt 0.43367 0.886124
vt 0.424157 0.882912
vt 0.419899 0.877858
vt 0.422743 0.883104
vt 0.431674 0.887609
vt 0.444971 0.872296
vt 0.443413 0.870196
vt 0.440775 0.869722
vt 0.437815 0.869226
vt 0.444859 0.885124
vt 0.443232 0.888132
vt 0.441841 0.890551
vt 0.429565 0.888051
vt 0.421435 0.88232
vt 0.419899 0.877858
vt 0.427649 0.887204
vt 0.440541 0.891974
vt 0.419899 0.877858
vt 0.420341 0.881062
vt 0.445921 0.879944
vt 0.445939 0.875185
vt 0.419899 0.877858
vt 0.419615 0.879501
vt 0.420341 0.881062
vt 0.419899 0.877858
vt 0.4193 0.877645
vt 0.419899 0.877858
vt 0.419551 0.875934
vt 0.419899 0.877858
vt 0.420312 0.87463
vt 0.440541 0.891974
vt 0.427649 0.887204
vt 0.439032 0.891574
vt 0.420312 0.87463
vt 0.421484 0.873723
vt 0.424341 0.872538
vt 0.426252 0.871179
vt 0.42321 0.87476
vt 0.419551 0.875934
vt 0.423162 0.877871
vt 0.4193 0.877645
vt 0.423972 0.881442
vt 0.419615 0.879501
vt 0.425674 0.884799
vt 0.420341 0.881062
vt 0.427649 0.887204
vt 0.421435 0.88232
vt 0.435288 0.869786
vt 0.437815 0.869226
vt 0.439032 0.891574
vt 0.437551 0.889022
vt 0.436283 0.885106
vt 0.433979 0.878334
vt 0.43417 0.872838
vt 0.429565 0.888051
vt 0.427649 0.887204
vt 0.440541 0.891974
vn 0.4532033 -0.8529572 0.2589805
vn 0.4991245 -0.8082688 0.3123718
vn 0.5801182 -0.8072277 0.1088414
vn 0.651554 -0.7310295 0.2026654
vn 0.4748805 -0.8789734 0.04352351
vn 0.3894793 -0.8936392 0.2229684
vn 0.3448734 -0.9385521 0.0134991
vn 0.3138084 -0.9266517 0.2069805
vn 0.203467 -0.978848 0.02139879
vn 0.2338961 -0.9489138 0.2117909
vn 0.06761416 -0.9956834 0.06358304
vn 0.1584767 -0.9586948 0.2361977
vn -0.04800647 -0.9898914 0.1334556
vn 0.09542013 -0.9560589 0.2772117
vn -0.1330124 -0.9652867 0.224787
vn 0.05057537 -0.9424157 0.3305976
vn -0.1805206 -0.9257057 0.3323873
vn 0.02684461 -0.9201158 0.3907254
vn -0.187615 -0.8740826 0.448085
vn 0.02727556 -0.8889553 0.4571811
vn -0.1476597 -0.808867 0.5691491
vn 0.05611009 -0.8479772 0.5270545
vn -0.06068797 -0.7333616 0.6771246
vn 0.1069349 -0.8047199 0.5839443
vn 0.05947194 -0.6570265 0.751518
vn 0.174708 -0.7626485 0.6227715
vn 0.195374 -0.5916891 0.7821336
vn 0.2519211 -0.7260274 0.6398594
vn 0.333074 -0.5458688 0.7688231
vn 0.3293138 -0.7000644 0.6336104
vn 0.4561639 -0.5224438 0.7203937
vn 0.4001739 -0.6875259 0.6059448
vn 0.5580322 -0.5239251 0.643508
vn 0.4583482 -0.6894708 0.5608449
vn 0.6330799 -0.5500261 0.5446844
vn 0.4998661 -0.7055309 0.5023543
vn 0.6763166 -0.5971239 0.4313224
vn 0.5212061 -0.733425 0.4363851
vn 0.6832284 -0.6595046 0.3134528
vn 0.5215532 -0.7675292 0.3726678
vn 0.3220921 -0.3592081 0.8759145
vn 0.4964941 -0.32751 0.8038849
vn 0.6380537 -0.3305407 0.6954354
vn 0.7442681 -0.3671266 0.5579275
vn 0.8093938 -0.4319068 0.3979174
vn 0.824015 -0.5178028 0.2299554
vn 0.7829896 -0.6179193 0.07143513
vn 0.6871055 -0.7239457 -0.06155129
vn 0.543046 -0.8251912 -0.155437
vn 0.3627976 -0.910163 -0.1999525
vn 0.1633507 -0.9684705 -0.1880998
vn -0.03196847 -0.9919099 -0.1228522
vn -0.1982667 -0.9799463 -0.01988489
vn -0.3215137 -0.9407842 0.1074894
vn -0.3952669 -0.8826277 0.2544256
vn -0.4128581 -0.8085208 0.4193355
vn -0.3665702 -0.7169958 0.592911
vn -0.2484812 -0.6082558 0.7538447
vn -0.07588966 -0.5052382 0.8596366
vn 0.1282308 -0.4210039 0.8979491
vn -0.5715869 -0.8017788 0.1744687
vn -0.4783203 -0.8781819 -0.002484002
vn -0.6025999 -0.70646 0.3711973
vn -0.5570205 -0.5905211 0.5839631
vn -0.4170604 -0.4613991 0.7830527
vn -0.2103722 -0.3390823 0.9169334
vn 0.04227069 -0.2403506 0.9697654
vn 0.2963844 -0.1702297 0.9397755
vn 0.5136701 -0.1373234 0.8469269
vn 0.6857932 -0.1418838 0.7138324
vn 0.8171996 -0.1852576 0.5457695
vn 0.8997052 -0.2631189 0.3482802
vn 0.9196173 -0.3666209 0.1410431
vn 0.8713009 -0.4878886 -0.05290981
vn 0.7567977 -0.6168936 -0.2161005
vn 0.5830596 -0.7410341 -0.3330315
vn 0.3637447 -0.8458295 -0.390208
vn 0.1206788 -0.9173457 -0.3793595
vn -0.1196003 -0.9469466 -0.2983084
vn -0.3263013 -0.9310495 -0.1633226
vn 0.7939118 -0.4969648 -0.3503286
vn 0.5990403 -0.6370245 -0.4851293
vn 0.3509209 -0.7558711 -0.5527325
vn 0.07465198 -0.8368755 -0.542279
vn -0.1968731 -0.8695132 -0.4529764
vn -0.431542 -0.8523042 -0.2955489
vn -0.603684 -0.7904066 -0.1040334
vn -0.7090724 -0.6983978 0.09724579
vn -0.7473101 -0.5856327 0.3139459
vn -0.7038057 -0.4495791 0.5500328
vn -0.5654699 -0.304992 0.7663051
vn -0.3231601 -0.1753457 0.9299577
vn -0.04014411 -0.06907519 0.9968034
vn 0.2607166 0.003350942 0.9654096
vn 0.5092874 0.0398385 0.8596739
vn 0.7072601 0.03526101 0.7060735
vn 0.8576328 -0.01190891 0.5141248
vn 0.9521725 -0.09895118 0.2890956
vn 0.9749144 -0.2158226 0.05442892
vn 0.9213923 -0.3520612 -0.1645875
vn 0.8043458 -0.3704542 -0.4645336
vn 0.9402825 -0.2158317 -0.2632214
vn 0.5952845 -0.5202271 -0.6123726
vn 0.3273999 -0.6475902 -0.688067
vn 0.02842031 -0.7343525 -0.6781729
vn -0.2641312 -0.769172 -0.5819014
vn -0.5155861 -0.7513178 -0.4119375
vn -0.7007082 -0.6856472 -0.1972206
vn -0.8125865 -0.5823146 0.02475687
vn -0.8560672 -0.4519505 0.2507779
vn -0.8140255 -0.3067277 0.493235
vn -0.6693203 -0.1606411 0.7253997
vn -0.4265768 -0.02327684 0.9041518
vn -0.1187965 0.09389725 0.9884688
vn -0.772605 -0.5689803 -0.2816787
vn -0.886823 -0.46021 -0.04185327
vn -0.9269861 -0.322564 0.1914398
vn -0.8895373 -0.1736707 0.4225659
vn -0.7505616 -0.02146618 0.6604518
vn -0.515209 0.1260082 0.847751
vn -0.1848985 0.2493044 0.9506103
vn -0.936312 -0.3354162 -0.1039996
vn -0.8225599 -0.4422027 -0.3575642
vn -0.5804672 -0.6347539 -0.5100446
vn -0.3205205 -0.6522114 -0.6869403
vn -0.01673369 -0.6156807 -0.7878181
vn 0.2952493 -0.525949 -0.7976249
vn 0.5750521 -0.3946302 -0.7166464
vn 0.7925563 -0.2405367 -0.560354
vn 0.9333717 -0.08133713 -0.3495735
vn 0.9971684 -0.07004526 -0.02736742
vn 0.972793 0.0560423 0.2247956
vn 0.8710023 0.1500827 0.467793
vn 0.7089999 0.200724 0.6760392
vn 0.4937141 0.2054548 0.8450058
vn 0.2086054 0.1702857 0.9630611
vn 0.8603906 0.301701 0.4107366
vn 0.6900498 0.3609074 0.6273574
vn 0.9667468 0.2012547 0.1577888
vn 0.9921368 0.06953204 -0.1040658
vn 0.9631456 0.2033692 -0.1760441
vn 0.9371887 0.3373575 0.08869793
vn 0.9038627 0.05135602 -0.424729
vn 0.7612218 -0.1082515 -0.6393927
vn 0.5402825 -0.261871 -0.7996989
vn 0.255998 -0.3934377 -0.8829902
vn -0.06009047 -0.4844334 -0.8727619
vn -0.3664855 -0.5225552 -0.7698211
vn -0.6282533 -0.5066907 -0.5903917
vn 0.7110462 0.02698843 -0.7026272
vn 0.8526558 0.1827365 -0.4894747
vn 0.491571 -0.1221351 -0.8622302
vn 0.2105615 -0.2496699 -0.9451606
vn -0.1013378 -0.340404 -0.9348025
vn -0.4029576 -0.3801059 -0.8325532
vn -0.6605884 -0.366607 -0.6551505
vn -0.8523305 -0.3046316 -0.4251262
vn -0.9647707 -0.2019818 -0.168585
vn -0.9950063 -0.06800146 0.07306341
vn -0.9715706 -0.1971623 0.1310641
vn -0.9338256 -0.04474038 0.3549199
vn 0.1586207 -0.09589657 -0.9826716
vn 0.428377 0.02409622 -0.9032788
vn -0.6770296 -0.2116064 -0.7048786
vn -0.4296349 -0.2223247 -0.875206
vn -0.1398331 -0.1817975 -0.9733428
vn -0.8614649 -0.153999 -0.4839034
vn 0.2086054 0.1702857 0.9630611
vn -0.1187965 0.09389725 0.9884688
vn 0.1568877 0.3402492 0.9271552
vn -0.1848985 0.2493044 0.9506103
vn 0.4618182 0.3767533 0.8029825
vn 0.4937141 0.2054548 0.8450058
vn 0.6900498 0.3609074 0.6273574
vn 0.7089999 0.200724 0.6760392
vn 0.4151602 0.5327805 0.7374191
vn 0.1046056 0.505853 0.8562537
vn -0.2551452 0.414979 0.8733231
vn 0.6517105 0.5070162 0.5640994
vn 0.82816 0.4415343 0.3452512
vn 0.8603906 0.301701 0.4107366
vn 0.9371887 0.3373575 0.08869793
vn 0.9667468 0.2012547 0.1577888
vn 0.0464066 0.6538209 0.7552249
vn -0.3113446 0.5669071 0.7626801
vn -0.5781026 0.278262 0.7670512
vn -0.515209 0.1260082 0.847751
vn -0.7505616 -0.02146618 0.6604518
vn -0.8066178 0.1183295 0.5791079
vn -0.8895373 -0.1736707 0.4225659
vn -0.9338256 -0.04474038 0.3549199
vn -0.8349512 0.2587806 0.4856842
vn -0.9536375 0.08793385 0.2878249
vn -0.9715706 -0.1971623 0.1310641
vn -0.9950063 -0.06800146 0.07306341
vn -0.6192469 0.4243758 0.6606348
vn -0.9510589 0.2211433 0.21583
vn -0.9975098 0.06997332 0.008816601
vn -0.9647707 -0.2019818 -0.168585
vn -0.9702711 -0.05722429 -0.2351581
vn -0.8523305 -0.3046316 -0.4251262
vn -0.8614649 -0.153999 -0.4839034
vn -0.8337358 0.3860978 0.3947319
vn -0.6326373 0.5515594 0.5436471
vn -0.3467332 0.6944386 0.6305007
vn -0.01611428 0.7764105 0.6300215
vn 0.2827574 0.7890493 0.5453892
vn 0.3557631 0.6708191 0.6507183
vn 0.5955026 0.6390052 0.4868766
vn 0.7752777 0.5703884 0.271296
vn 0.8850013 0.4652645 0.01736436
vn 0.9111741 0.3322925 -0.2436055
vn 0.9631456 0.2033692 -0.1760441
vn 0.8526558 0.1827365 -0.4894747
vn 0.9038627 0.05135602 -0.424729
vn 0.5218839 0.7558221 0.3954368
vn 0.700938 0.6879471 0.1881881
vn 0.8089775 0.5851335 -0.05633999
vn 0.8350282 0.4567428 -0.3067799
vn 0.7785364 0.3133966 -0.5437496
vn 0.6408958 0.1653702 -0.7496033
vn 0.7110462 0.02698843 -0.7026272
vn 0.428377 0.02409622 -0.9032788
vn 0.491571 -0.1221351 -0.8622302
vn 0.5485182 0.3065486 -0.7779175
vn 0.6783519 0.4429989 -0.586166
vn 0.3497719 0.177016 -0.9199592
vn 0.09939777 0.06662313 -0.9928149
vn 0.1586207 -0.09589657 -0.9826716
vn -0.1759356 -0.01166209 -0.9843326
vn -0.1398331 -0.1817975 -0.9733428
vn 0.6031789 0.7919394 0.09490599
vn 0.7061733 0.6955778 -0.1322527
vn 0.7315183 0.5758687 -0.3650429
vn 0.4312297 0.4482987 -0.7829873
vn 0.5479681 0.5687363 -0.6134085
vn 0.2542785 0.3347968 -0.9073331
vn 0.03320626 0.2385087 -0.9705725
vn -0.2092334 0.1694767 -0.9630675
vn -0.4457898 0.1359172 -0.8847587
vn -0.4445254 -0.04939451 -0.8944035
vn -0.4296349 -0.2223247 -0.875206
vn -0.6748474 -0.04152922 -0.7367879
vn -0.6770296 -0.2116064 -0.7048786
vn -0.8465895 0.009939329 -0.5321536
vn -0.9484857 0.09806632 -0.3012604
vn -0.9743502 0.2147992 -0.06710564
vn -0.9257055 0.3528543 0.136247
vn -0.8096046 0.5050721 0.2990693
vn -0.6216339 0.6590456 0.4233558
vn -0.3651974 0.7887144 0.4945304
vn -0.07363923 0.864817 0.4966577
vn 0.2017349 0.8819141 0.426064
vn 0.4312989 0.854756 0.2887445
vn -0.7637351 0.6174636 0.188275
vn -0.8734743 0.4854034 0.03776565
vn -0.5939275 0.7486775 0.2945031
vn -0.3731951 0.8583958 0.3519688
vn -0.1258456 0.9276223 0.3516811
vn 0.1151683 0.9504747 0.2886765
vn 0.3224908 0.9321947 0.1643555
vn 0.4790456 0.8777431 -0.009081271
vn 0.5724495 0.7926384 -0.2098239
vn 0.5959168 0.6865009 -0.4166529
vn -0.692584 0.719656 0.04922095
vn -0.7856578 0.612995 -0.08353969
vn -0.9185868 0.3640859 -0.1537525
vn -0.8944392 0.2611991 -0.3629788
vn -0.8030852 0.1846713 -0.566525
vn -0.6500335 0.1413708 -0.7466396
vn -0.598084 0.3325178 -0.7291964
vn -0.4302354 0.3293135 -0.8405059
vn -0.2368034 0.3574528 -0.9034111
vn -0.03914945 0.4136714 -0.9095842
vn 0.1414963 0.4919938 -0.8590232
vn 0.2872265 0.5850088 -0.7584628
vn 0.3841462 0.6842276 -0.6198905
vn -0.7251531 0.3665344 -0.5829284
vn -0.8018863 0.4283796 -0.4164965
vn -0.8227226 0.5129635 -0.244941
vn 0.4240723 0.7813951 -0.457804
vn 0.4039924 0.8685285 -0.287138
vn 0.3253506 0.9376196 -0.1225411
vn 0.1942447 0.9807328 0.02078445
vn 0.02250733 0.9917658 0.1260719
vn -0.1734548 0.9678397 0.182208
vn -0.3717235 0.9094542 0.1863188
vn -0.5507366 0.8227464 0.1406323
vn -0.4849511 0.8730914 -0.05033671
vn -0.587129 0.8005962 -0.1196876
vn -0.6542454 0.7243848 -0.2173237
vn -0.6807687 0.6523489 -0.3331589
vn -0.6649228 0.5914235 -0.4561753
vn -0.6083435 0.5470717 -0.5750051
vn -0.5157584 0.5230882 -0.6785071
vn -0.3943233 0.521567 -0.756622
vn -0.2558471 0.5422559 -0.8003129
vn -0.1151086 0.5827488 -0.8044587
vn 0.01379201 0.6393502 -0.7687919
vn 0.1180765 0.7066778 -0.6976134
vn 0.1876799 0.7786512 -0.5987307
vn 0.2161146 0.8489532 -0.4822581
vn 0.2008032 0.911365 -0.3592938
vn 0.1430465 0.9598807 -0.241178
vn 0.04782799 0.9891691 -0.1387694
vn -0.07590111 0.9951674 -0.06229611
vn -0.2156259 0.976271 -0.02000994
vn -0.3569186 0.933998 -0.01602705
vn -0.3323596 0.9174109 -0.2188476
vn -0.4050072 0.8820478 -0.2407508
vn -0.4626125 0.8403465 -0.2825019
vn -0.4997273 0.7966811 -0.3399586
vn -0.5130098 0.7555124 -0.4074579
vn -0.5014222 0.7209114 -0.4783956
vn -0.4661376 0.6960813 -0.5460647
vn -0.4100882 0.6832754 -0.6041211
vn -0.338367 0.6835368 -0.6467497
vn -0.2583449 0.6965654 -0.6693689
vn -0.1777605 0.7211435 -0.6695919
vn -0.1046443 0.7549666 -0.64736
vn -0.04637489 0.7947226 -0.6051986
vn -0.008397112 0.8368449 -0.5473759
vn 0.00555526 0.8774566 -0.4796239
vn -0.005831304 0.9126312 -0.4087425
vn -0.04161413 0.9390302 -0.3413068
vn -0.09886675 0.9539018 -0.2833664
vn -0.1714226 0.9552237 -0.2411681
vn -0.2517867 0.9426744 -0.2190167
vn -0.2639344 0.8476012 -0.4603377
vn 0.2876766 -0.8543996 0.4327164
vn 0.4293754 -0.5504243 -0.7160097
vn 0.4692627 -0.8492902 -0.2418651
vn 0.4912069 -0.6364104 -0.5947249
vn 0.545952 -0.8335136 -0.08480147
vn 0.3713318 -0.4115106 -0.8323291
vn 0.3904751 -0.3400856 -0.8554946
vn 0.3115479 -0.242748 -0.9187009
vn 0.3934563 -0.1506198 -0.906921
vn 0.2656662 0.09410296 -0.9594613
vn 0.326073 -0.8569797 0.3990768
vn 0.4160185 -0.8144655 0.4044438
vn 0.1289256 -0.7144117 0.6877457
vn 0.2593673 -0.7029268 0.6622857
vn 0.05292054 -0.6519738 0.7563925
vn 0.1906562 -0.5442145 0.816995
vn 0.05503769 -0.4514101 0.8906176
vn 0.1744624 -0.1804067 0.967996
vn 0.08246236 0.01692801 0.9964504
vn 0.418371 -0.2130611 -0.882933
vn 0.5615306 -0.400199 -0.7242404
vn 0.7360808 0.003799262 -0.676883
vn 0.8414041 -0.1482554 -0.5196725
vn 0.7137219 -0.530958 -0.45682
vn 0.9236554 -0.2153617 -0.3169858
vn 0.8798243 0.4752269 0.008265848
vn 0.972937 -0.2127188 -0.09024642
vn 0.9780306 -0.1356777 0.1582647
vn 0.9253437 0.004663763 0.3791006
vn 0.8065768 0.2094359 0.5527844
vn 0.7897883 -0.600421 -0.1254153
vn 0.5944466 -0.1625064 0.7875435
vn 0.4478885 0.2162447 0.8675449
vn 0.6483914 0.4197646 0.635127
vn 0.7054688 -0.4391427 0.556298
vn 0.7809936 -0.5810181 0.229057
vn 0.169338 0.308607 0.9359949
vn 0.4014851 0.2337622 -0.8855308
vn 0.3934563 -0.1506198 -0.906921
vn 0.2656662 0.09410296 -0.9594613
vn 0.2038757 0.5951546 -0.7773196
vn 0.3955131 0.6787766 -0.618734
vn 0.1250844 0.9155966 -0.3821477
vn 0.3827134 0.8771441 -0.2900839
vn 0.09559986 0.9950512 -0.02708798
vn 0.3825495 0.9231308 0.03853865
vn 0.110231 0.9553629 0.2740999
vn 0.3407454 0.8909671 0.3001168
vn 0.1683913 0.8671145 0.4687823
vn 0.3217323 0.7203733 0.6144513
vn 0.1803264 0.6362212 0.7501367
vn 0.1612174 0.4137201 0.8960159
vn 0.169338 0.308607 0.9359949
vn 0.1044422 0.5613419 -0.8209671
vn 0.2766715 0.123327 -0.953018
vn 0.47327 0.5664769 -0.6746254
vn 0.6214654 0.2536448 -0.7412456
vn 0.8798243 0.4752269 0.008265848
vn 0.7360808 0.003799262 -0.676883
vn 0.8414041 -0.1482554 -0.5196725
vn 0.3185782 0.8181893 -0.4786171
vn 0.2145896 0.9586731 -0.1868078
vn 0.1850719 0.9725293 0.1411922
vn 0.2318643 0.9008232 0.367092
vn 0.3508366 0.7620286 0.5442666
vn 0.5020725 0.5863046 0.6357438
vn 0.6483914 0.4197646 0.635127
vn 0.8065768 0.2094359 0.5527844
vn 0.418371 -0.2130611 -0.882933
vn -0.04599934 0.8688862 -0.49287
vn -0.1303058 0.9861773 -0.1023469
vn -0.1133377 0.9655756 0.2341332
vn -0.01545792 0.8844105 0.4664536
vn 0.1375688 0.7437705 0.6541256
vn 0.2931575 0.5376538 0.7905613
vn 0.4478885 0.2162447 0.8675449
vn 0.08246236 0.01692801 0.9964504
vn 0.2766715 0.123327 -0.953018
vn -0.9483014 0.2076931 -0.2399748
vn -0.9513343 0.2990667 -0.07431179
vn -0.8809638 0.2181869 -0.4198776
vn -0.8164301 0.4188046 -0.3975482
vn -0.8535194 0.1246306 -0.5059367
vn -0.8897796 0.1196287 -0.4404331
vn -0.9084197 -0.008786618 -0.4179672
vn -0.916472 -0.1152416 -0.383143
vn -0.9825744 -0.1764618 -0.0583845
vn -0.9617336 -0.2709278 -0.04082502
vn -0.9775594 -0.2091498 0.02518046
vn -0.9159838 -0.05021756 -0.3980602
vn -0.9907313 0.07645363 0.1122783
vn -0.9461351 0.2654123 -0.1854313
vn -0.493327 0.7505192 0.4397151
vn -0.8256103 0.4602037 -0.3264665
vn -0.6844395 0.6378384 -0.3531357
vn -0.5079948 0.8042293 -0.3084745
vn -0.8901494 -0.03495988 0.4543259
vn -0.7013448 -0.04837344 0.711179
vn -0.4443994 0.04967603 0.8944504
vn -0.1669939 0.2317009 0.9583464
vn -0.002324055 0.3960693 0.9182177
vn 0.1187667 0.5838681 0.8031142
vn 0.1790367 0.748808 0.6381476
vn 0.1760745 0.8642615 0.4712216
vn 0.1105506 0.9577704 0.2654327
vn -0.04677536 0.9984352 0.03064801
vn -0.27126 0.9474137 -0.1697794
vn -0.4400477 0.7706084 -0.4609998
vn -0.7064254 0.387544 -0.5922608
vn -0.8032535 0.1216651 -0.5830793
vn 0.3865471 0.3940193 0.8338645
vn 0.2434757 0.1541025 0.9575866
vn 0.5171535 0.6062477 0.6041657
vn 0.5650033 0.7620631 0.3162771
vn 0.4855863 0.8737527 0.02760698
vn 0.2263067 0.9656432 -0.1277436
vn 0.1417335 0.9588948 -0.24583
vn -0.1719623 0.911679 -0.3731895
vn -0.5710779 0.782195 -0.2490802
vn 0.6744464 0.4758106 0.5645586
vn 0.5084564 0.2599361 0.8209174
vn 0.5529732 0.2841806 0.7832383
vn 0.6017925 0.5203437 0.6058781
vn 0.6808217 0.6357763 0.3636899
vn 0.5580767 0.6500728 0.5157088
vn 0.6107503 0.7206284 0.3281443
vn 0.5244612 0.6925323 0.4953175
vn 0.288832 0.9384688 0.1893476
vn 0.07105879 0.9615128 0.2654124
vn -0.1023348 0.9931245 -0.05684453
vn -0.04990213 0.9758462 0.2126831
vn -0.001720458 0.9929954 0.1181404
vn 0.2925231 0.9519374 -0.09080364
vn -0.1729512 0.9844189 -0.03174184
vn -0.01009495 0.9748434 0.2226623
vn -0.7025383 -0.2555048 0.6641968
vn -0.9617336 -0.2709278 -0.04082502
vn -0.8321677 -0.2658283 0.4866541
vn -0.9825744 -0.1764618 -0.0583845
vn -0.4219334 -0.2408549 0.8740487
vn -0.3449067 -0.149526 0.9266506
vn -0.1278315 -0.187367 0.9739367
vn -0.1276395 -0.08787879 0.9879198
vn 0.08513251 -0.09042877 0.9922576
vn 0.05699729 -0.03052827 0.9979075
vn 0.2437332 0.04607717 0.9687471
vn 0.2967065 0.08508272 0.951171
vn 0.5084564 0.2599361 0.8209174
vn 0.5529732 0.2841806 0.7832383
vn -0.55461 -0.3118187 0.771477
vn -0.8442066 -0.2847308 0.4541403
vn -0.7013448 -0.04837344 0.711179
vn -0.8901494 -0.03495988 0.4543259
vn -0.9775594 -0.2091498 0.02518046
vn -0.9907313 0.07645363 0.1122783
vn -0.4443994 0.04967603 0.8944504
vn -0.2229078 -0.2226903 0.9490633
vn 0.0810718 -0.04125981 0.9958539
vn -0.1669939 0.2317009 0.9583464
vn 0.2434757 0.1541025 0.9575866
vn -0.002324055 0.3960693 0.9182177
vn 0.3865471 0.3940193 0.8338645
vn -0.8442066 -0.2847308 0.4541403
vn -0.8321677 -0.2658283 0.4866541
vn -0.9877192 -0.1555903 0.01422781
vn -0.7524386 -0.6411777 -0.1507559
vn -0.9549343 -0.2751052 -0.1114343
vn -0.6571615 -0.6849022 -0.3147185
vn -0.1992588 -0.9430127 -0.2665012
vn -0.2165833 -0.8921587 -0.3964147
vn 0.1555486 -0.9601431 -0.2322281
vn 0.09125277 -0.913286 -0.3969655
vn 0.2724254 -0.936126 -0.2223793
vn 0.3022487 -0.8404039 -0.4498522
vn 0.4612677 -0.8168946 -0.346288
vn 0.5436515 -0.600216 -0.5866717
vn 0.7048041 -0.4793323 -0.5229644
vn 0.6984441 -0.1854357 -0.6912232
vn 0.76132 -0.07115444 -0.6444602
vn -0.9141866 -0.2615652 -0.3095909
vn -0.7195941 -0.4780254 -0.5036626
vn -0.8068243 -0.08999654 -0.5838965
vn -0.6449012 -0.2013836 -0.7372565
vn -0.4255428 -0.6243046 -0.6551007
vn -0.4090563 -0.2583863 -0.8751627
vn -0.07914486 -0.6427167 -0.7620049
vn -0.1273585 -0.2370408 -0.9631155
vn 0.5203428 -0.2194999 -0.8252655
vn 0.6540594 0.08014778 -0.7521853
vn 0.26108 -0.4957187 -0.8283117
vn 0.1757026 -0.1259178 -0.9763572
vn 0.4069085 0.03155907 -0.9129236
vn -0.9940839 0.09147345 0.05856366
vn -0.9877192 -0.1555903 0.01422781
vn -0.9989113 0.03376883 0.03218513
vn -0.9549343 -0.2751052 -0.1114343
vn -0.9720144 0.2240768 0.07055216
vn -0.9599707 0.2778779 0.03521549
vn -0.8422255 0.5377352 0.03869047
vn -0.7944504 0.6038477 -0.06493434
vn -0.4680122 0.8790762 -0.09049716
vn -0.3915343 0.8821043 -0.2619027
vn -0.01911041 0.9723204 -0.2328686
vn -0.04497037 0.907548 -0.4175335
vn 0.2692468 0.8911721 -0.3651283
vn 0.2117291 0.8019959 -0.5585459
vn 0.4653491 0.73041 -0.4999513
vn 0.4069645 0.6601678 -0.6313148
vn 0.5640092 0.5480353 -0.6176982
vn 0.6037174 0.3428315 -0.7197165
vn 0.685077 0.1956959 -0.7016927
vn -0.8321891 0.5418155 0.1178866
vn -0.9776378 0.2061262 0.04166859
vn -0.8108546 0.5499955 -0.2000497
vn -0.9162111 0.2764512 -0.2900553
vn -0.2527208 0.4154637 -0.8737976
vn -0.5430359 0.8255721 -0.1534365
vn -0.2145721 0.4126993 -0.8852333
vn -0.1783262 0.9714585 -0.1564226
vn 0.1842692 0.954623 -0.2339656
vn 0.4678085 0.8013593 -0.3727981
vn -0.9946334 -0.02655577 -0.09999546
vn -0.9010956 0.06459037 -0.4287828
vn -0.3388564 0.4093113 -0.8471367
vn -0.9141866 -0.2615652 -0.3095909
vn -0.8068243 -0.08999654 -0.5838965
vn -0.3370278 0.3710872 -0.8652784
vn -0.4660137 0.8769259 0.1176093
vn -0.008779429 0.9986274 0.05163604
vn 0.3631461 0.928897 -0.07263094
vn 0.5988789 0.7614958 -0.2479278
vn 0.5896593 0.6238956 -0.5128902
vn -0.1380172 0.4465635 -0.8840432
vn 0.6960623 0.5753159 -0.4295451
vn 0.6135607 0.408212 -0.6759484
vn -0.08747984 0.4485664 -0.8894579
vn 0.7096677 0.3362417 -0.619123
vn 0.5422766 0.1918336 -0.8180072
vn -0.08594434 0.4133606 -0.9065024
vn 0.6540594 0.08014778 -0.7521853
vn 0.4069085 0.03155907 -0.9129236
vn -0.1756711 0.4138788 -0.8932211
vn 0.5203428 -0.2194999 -0.8252655
vn 0.6984441 -0.1854357 -0.6912232
vn 0.76132 -0.07115444 -0.6444602
vn -0.2145721 0.4126993 -0.8852333
vn 0.1757026 -0.1259178 -0.9763572
vn 0.4069085 0.03155907 -0.9129236
vn -0.1273585 -0.2370408 -0.9631155
vn -0.4090563 -0.2583863 -0.8751627
vn -0.6449012 -0.2013836 -0.7372565
vn -0.2891905 0.3723015 -0.8819072
vn -0.8068243 -0.08999654 -0.5838965
vn 0.76132 -0.07115444 -0.6444602
vn 0.6037174 0.3428315 -0.7197165
vn 0.685077 0.1956959 -0.7016927
vn -0.717398 -0.6848723 -0.1276318
vn -0.5738547 -0.4010265 -0.7140507
vn -0.760593 -0.2540677 -0.5974512
vn -0.6850237 -0.7242619 -0.07865947
vn -0.383606 -0.5492824 -0.7423849
vn -0.3197031 -0.2348925 -0.9179409
vn -0.09005976 -0.3812385 -0.9200795
vn -0.1725036 -0.7351072 -0.655637
vn -0.6240193 -0.7789591 -0.06182789
vn 0.09409859 -0.5865822 -0.8044046
vn 0.04084696 -0.9208657 -0.3877344
vn -0.622281 -0.7799398 0.06678656
vn 0.1676514 -0.9856755 -0.01835057
vn 0.293121 -0.845086 -0.4471125
vn 0.3851589 -0.9228317 -0.005871537
vn 0.1859495 -0.9354977 0.3004442
vn -0.6255704 -0.757893 0.185094
vn 0.3958175 -0.8280176 0.3971339
vn 0.09755912 -0.8032343 0.5876197
vn -0.60863 -0.7419312 0.2812608
vn 0.3054987 -0.6307036 0.7133607
vn -0.07826361 -0.6018844 0.7947389
vn -0.5924348 -0.7283261 0.3443285
vn 0.1341796 -0.3919152 0.9101639
vn -0.2513391 -0.4387822 0.8627276
vn -0.6329806 -0.6784056 0.3729629
vn -0.470354 -0.2643786 0.8419449
vn -0.04846324 -0.2416366 0.9691558
vn 0.2379974 -0.8781864 -0.4149047
vn 0.09160013 -0.6019022 -0.7932988
vn -0.009230441 -0.3375747 -0.9412535
vn -0.1173989 -0.2418725 -0.9631798
vn 0.3077798 -0.4932784 0.8136019
vn 0.1906581 -0.3137543 0.9301654
vn 0.03194578 -0.2392722 0.9704268
vn -0.3014652 -0.07319056 0.9506639
vn -0.6750023 -0.111323 0.729369
vn -0.6829728 -0.6322992 0.3657127
vn -0.5530327 0.1466271 0.8201557
vn -0.2347263 -0.01965402 0.9718629
vn -0.7112066 -0.5822926 0.3938534
vn -0.8254527 -0.01562565 0.564255
vn 0.3732062 -0.7701303 0.5173166
vn 0.3251628 -0.9411721 0.09200162
vn -0.7411308 -0.6174836 0.2635129
vn -0.9485909 0.03931976 0.3140532
vn -0.8254527 -0.01562565 0.564255
vn -0.7471983 -0.6410409 0.1753894
vn -0.9996679 0.01590911 -0.02027388
vn -0.7743626 -0.6239737 0.1049733
vn -0.932993 -0.09621049 -0.3467963
vn -0.7624848 -0.6469981 0.003244005
vn -0.760593 -0.2540677 -0.5974512
vn -0.2347263 -0.01965402 0.9718629
vn -0.5530327 0.1466271 0.8201557
vn -0.5130097 0.3331859 0.7910804
vn -0.760593 -0.2540677 -0.5974512
vn -0.5738547 -0.4010265 -0.7140507
vn -0.6110157 -0.03342381 -0.7909125
vn -0.3197031 -0.2348925 -0.9179409
vn -0.8345103 0.1883268 -0.5178085
vn -0.932993 -0.09621049 -0.3467963
vn -0.9169969 0.386916 -0.09701873
vn -0.9996679 0.01590911 -0.02027388
vn -0.8587881 0.4643753 0.216422
vn -0.9485909 0.03931976 0.3140532
vn -0.7465862 0.3623033 0.5579834
vn -0.8254527 -0.01562565 0.564255
vn -0.5530327 0.1466271 0.8201557
vn -0.6750023 -0.111323 0.729369
vn -0.4491461 -0.03856925 -0.8926254
vn -0.1173989 -0.2418725 -0.9631798
vn -0.5130097 0.3331859 0.7910804
vn -0.6613418 0.5784739 0.4774882
vn -0.7363908 0.6250813 0.2588472
vn -0.8670022 0.4905498 -0.08756723
vn -0.7554799 0.2616312 -0.6006656
vn -0.3014652 -0.07319056 0.9506639
vn -0.5530327 0.1466271 0.8201557
vn -0.2347263 -0.01965402 0.9718629
g BRM_Rookery_Egg2_0
f 3/3/3 2/2/2 1/1/1
f 4/4/4 2/2/2 3/3/3
f 3/3/3 1/1/1 5/5/5
f 5/5/5 1/1/1 6/6/6
f 5/5/5 6/6/6 7/7/7
f 7/7/7 6/6/6 8/8/8
f 7/7/7 8/8/8 9/9/9
f 9/9/9 8/8/8 10/10/10
f 9/9/9 10/10/10 11/11/11
f 11/11/11 10/10/10 12/12/12
f 11/11/11 12/12/12 13/13/13
f 13/13/13 12/12/12 14/14/14
f 13/13/13 14/14/14 15/15/15
f 15/15/15 14/14/14 16/16/16
f 15/15/15 16/16/16 17/17/17
f 17/17/17 16/16/16 18/18/18
f 17/17/17 18/18/18 19/19/19
f 19/19/19 18/18/18 20/20/20
f 19/19/19 20/20/20 21/21/21
f 21/21/21 20/20/20 22/22/22
f 21/21/21 22/22/22 23/23/23
f 23/23/23 22/22/22 24/24/24
f 23/23/23 24/24/24 25/25/25
f 25/25/25 24/24/24 26/26/26
f 25/25/25 26/26/26 27/27/27
f 27/27/27 26/26/26 28/28/28
f 27/27/27 28/28/28 29/29/29
f 29/29/29 28/28/28 30/30/30
f 29/29/29 30/30/30 31/31/31
f 31/31/31 30/30/30 32/32/32
f 31/31/31 32/32/32 33/33/33
f 33/33/33 32/32/32 34/34/34
f 33/33/33 34/34/34 35/35/35
f 35/35/35 34/34/34 36/36/36
f 35/35/35 36/36/36 37/37/37
f 37/37/37 36/36/36 38/38/38
f 37/37/37 38/38/38 39/39/39
f 39/39/39 38/38/38 40/40/40
f 39/39/39 40/40/40 4/4/4
f 4/4/4 40/40/40 2/2/2
f 41/41/41 27/27/27 29/29/29
f 42/42/42 29/29/29 31/31/31
f 41/41/41 29/29/29 42/42/42
f 43/43/43 31/31/31 33/33/33
f 42/42/42 31/31/31 43/43/43
f 44/44/44 33/33/33 35/35/35
f 43/43/43 33/33/33 44/44/44
f 45/45/45 35/35/35 37/37/37
f 44/44/44 35/35/35 45/45/45
f 46/46/46 37/37/37 39/39/39
f 45/45/45 37/37/37 46/46/46
f 47/47/47 39/39/39 4/4/4
f 46/46/46 39/39/39 47/47/47
f 47/47/47 4/4/4 48/48/48
f 48/48/48 4/4/4 3/3/3
f 48/48/48 3/3/3 49/49/49
f 49/49/49 3/3/3 5/5/5
f 49/49/49 5/5/5 50/50/50
f 50/50/50 5/5/5 7/7/7
f 50/50/50 7/7/7 51/51/51
f 51/51/51 7/7/7 9/9/9
f 51/51/51 9/9/9 52/52/52
f 52/52/52 9/9/9 11/11/11
f 52/52/52 11/11/11 53/53/53
f 53/53/53 11/11/11 13/13/13
f 53/53/53 13/13/13 54/54/54
f 54/54/54 13/13/13 15/15/15
f 54/54/54 15/15/15 55/55/55
f 55/55/55 15/15/15 17/17/17
f 55/55/55 17/17/17 56/56/56
f 56/56/56 17/17/17 19/19/19
f 56/56/56 19/19/19 57/57/57
f 57/57/57 19/19/19 21/21/21
f 57/57/57 21/21/21 58/58/58
f 58/58/58 21/21/21 23/23/23
f 58/58/58 23/23/23 59/59/59
f 59/59/59 23/23/23 25/25/25
f 59/59/59 25/25/25 60/60/60
f 60/60/60 25/25/25 27/27/27
f 60/60/60 27/27/27 41/41/41
f 61/61/61 54/54/54 55/55/55
f 62/62/62 54/54/54 61/61/61
f 63/63/63 55/55/55 56/56/56
f 61/61/61 55/55/55 63/63/63
f 64/64/64 56/56/56 57/57/57
f 63/63/63 56/56/56 64/64/64
f 65/65/65 57/57/57 58/58/58
f 64/64/64 57/57/57 65/65/65
f 66/66/66 58/58/58 59/59/59
f 65/65/65 58/58/58 66/66/66
f 67/67/67 59/59/59 60/60/60
f 66/66/66 59/59/59 67/67/67
f 68/68/68 60/60/60 41/41/41
f 67/67/67 60/60/60 68/68/68
f 68/68/68 41/41/41 69/69/69
f 69/69/69 41/41/41 42/42/42
f 69/69/69 42/42/42 70/70/70
f 70/70/70 42/42/42 43/43/43
f 70/70/70 43/43/43 71/71/71
f 71/71/71 43/43/43 44/44/44
f 71/71/71 44/44/44 72/72/72
f 72/72/72 44/44/44 45/45/45
f 72/72/72 45/45/45 73/73/73
f 73/73/73 45/45/45 46/46/46
f 73/73/73 46/46/46 74/74/74
f 74/74/74 46/46/46 47/47/47
f 74/74/74 47/47/47 75/75/75
f 75/75/75 47/47/47 48/48/48
f 75/75/75 48/48/48 76/76/76
f 76/76/76 48/48/48 49/49/49
f 76/76/76 49/49/49 77/77/77
f 77/77/77 49/49/49 50/50/50
f 77/77/77 50/50/50 78/78/78
f 78/78/78 50/50/50 51/51/51
f 78/78/78 51/51/51 79/79/79
f 79/79/79 51/51/51 52/52/52
f 79/79/79 52/52/52 80/80/80
f 80/80/80 52/52/52 53/53/53
f 80/80/80 53/53/53 62/62/62
f 62/62/62 53/53/53 54/54/54
f 81/81/81 74/74/74 75/75/75
f 82/82/82 75/75/75 76/76/76
f 81/81/81 75/75/75 82/82/82
f 83/83/83 76/76/76 77/77/77
f 82/82/82 76/76/76 83/83/83
f 84/84/84 77/77/77 78/78/78
f 83/83/83 77/77/77 84/84/84
f 85/85/85 78/78/78 79/79/79
f 84/84/84 78/78/78 85/85/85
f 86/86/86 79/79/79 80/80/80
f 85/85/85 79/79/79 86/86/86
f 87/87/87 80/80/80 62/62/62
f 86/86/86 80/80/80 87/87/87
f 87/87/87 62/62/62 88/88/88
f 88/88/88 62/62/62 61/61/61
f 88/88/88 61/61/61 89/89/89
f 89/89/89 61/61/61 63/63/63
f 89/89/89 63/63/63 90/90/90
f 90/90/90 63/63/63 64/64/64
f 90/90/90 64/64/64 91/91/91
f 91/91/91 64/64/64 65/65/65
f 91/91/91 65/65/65 92/92/92
f 92/92/92 65/65/65 66/66/66
f 92/92/92 66/66/66 93/93/93
f 93/93/93 66/66/66 67/67/67
f 93/93/93 67/67/67 94/94/94
f 94/94/94 67/67/67 68/68/68
f 94/94/94 68/68/68 95/95/95
f 95/95/95 68/68/68 69/69/69
f 95/95/95 69/69/69 96/96/96
f 96/96/96 69/69/69 70/70/70
f 96/96/96 70/70/70 97/97/97
f 97/97/97 70/70/70 71/71/71
f 97/97/97 71/71/71 98/98/98
f 98/98/98 71/71/71 72/72/72
f 98/98/98 72/72/72 99/99/99
f 99/99/99 72/72/72 73/73/73
f 99/99/99 73/73/73 100/100/100
f 100/100/100 73/73/73 74/74/74
f 100/100/100 74/74/74 81/81/81
f 101/101/101 100/100/100 81/81/81
f 102/102/102 100/100/100 101/101/101
f 102/102/102 99/99/99 100/100/100
f 101/101/101 81/81/81 103/103/103
f 103/103/103 81/81/81 82/82/82
f 103/103/103 82/82/82 104/104/104
f 104/104/104 82/82/82 83/83/83
f 104/104/104 83/83/83 105/105/105
f 105/105/105 83/83/83 84/84/84
f 105/105/105 84/84/84 106/106/106
f 106/106/106 84/84/84 85/85/85
f 106/106/106 85/85/85 107/107/107
f 107/107/107 85/85/85 86/86/86
f 107/107/107 86/86/86 108/108/108
f 108/108/108 86/86/86 87/87/87
f 108/108/108 87/87/87 109/109/109
f 109/109/109 87/87/87 88/88/88
f 109/109/109 88/88/88 110/110/110
f 110/110/110 88/88/88 89/89/89
f 110/110/110 89/89/89 111/111/111
f 111/111/111 89/89/89 90/90/90
f 111/111/111 90/90/90 112/112/112
f 112/112/112 90/90/90 91/91/91
f 112/112/112 91/91/91 113/113/113
f 113/113/113 91/91/91 92/92/92
f 113/113/113 92/92/92 114/114/114
f 114/114/114 92/92/92 93/93/93
f 115/115/115 107/107/107 108/108/108
f 116/116/116 108/108/108 109/109/109
f 115/115/115 108/108/108 116/116/116
f 117/117/117 109/109/109 110/110/110
f 116/116/116 109/109/109 117/117/117
f 118/118/118 110/110/110 111/111/111
f 117/117/117 110/110/110 118/118/118
f 119/119/119 111/111/111 112/112/112
f 118/118/118 111/111/111 119/119/119
f 120/120/120 112/112/112 113/113/113
f 119/119/119 112/112/112 120/120/120
f 120/120/120 113/113/113 121/121/121
f 121/121/121 113/113/113 114/114/114
f 122/122/122 115/115/115 116/116/116
f 123/123/123 115/115/115 122/122/122
f 123/123/123 124/124/124 115/115/115
f 124/124/124 107/107/107 115/115/115
f 124/124/124 106/106/106 107/107/107
f 125/125/125 106/106/106 124/124/124
f 125/125/125 105/105/105 106/106/106
f 126/126/126 105/105/105 125/125/125
f 126/126/126 104/104/104 105/105/105
f 127/127/127 104/104/104 126/126/126
f 127/127/127 103/103/103 104/104/104
f 128/128/128 103/103/103 127/127/127
f 128/128/128 101/101/101 103/103/103
f 129/129/129 101/101/101 128/128/128
f 129/129/129 102/102/102 101/101/101
f 130/130/130 102/102/102 129/129/129
f 130/130/130 131/131/131 102/102/102
f 131/131/131 99/99/99 102/102/102
f 131/131/131 98/98/98 99/99/99
f 132/132/132 98/98/98 131/131/131
f 132/132/132 97/97/97 98/98/98
f 133/133/133 97/97/97 132/132/132
f 133/133/133 96/96/96 97/97/97
f 134/134/134 96/96/96 133/133/133
f 134/134/134 95/95/95 96/96/96
f 135/135/135 95/95/95 134/134/134
f 135/135/135 94/94/94 95/95/95
f 136/136/136 94/94/94 135/135/135
f 136/136/136 93/93/93 94/94/94
f 114/114/114 93/93/93 136/136/136
f 137/137/137 134/134/134 133/133/133
f 138/138/138 134/134/134 137/137/137
f 139/139/139 133/133/133 132/132/132
f 137/137/137 133/133/133 139/139/139
f 139/139/139 132/132/132 140/140/140
f 140/140/140 132/132/132 131/131/131
f 140/140/140 131/131/131 130/130/130
f 141/141/141 139/139/139 140/140/140
f 142/142/142 139/139/139 141/141/141
f 143/143/143 140/140/140 130/130/130
f 141/141/141 140/140/140 143/143/143
f 143/143/143 130/130/130 144/144/144
f 144/144/144 130/130/130 129/129/129
f 144/144/144 129/129/129 145/145/145
f 145/145/145 129/129/129 128/128/128
f 145/145/145 128/128/128 146/146/146
f 146/146/146 128/128/128 127/127/127
f 146/146/146 127/127/127 147/147/147
f 147/147/147 127/127/127 126/126/126
f 147/147/147 126/126/126 148/148/148
f 148/148/148 126/126/126 125/125/125
f 148/148/148 125/125/125 149/149/149
f 149/149/149 125/125/125 124/124/124
f 149/149/149 124/124/124 123/123/123
f 150/150/150 143/143/143 144/144/144
f 151/151/151 143/143/143 150/150/150
f 152/152/152 144/144/144 145/145/145
f 150/150/150 144/144/144 152/152/152
f 153/153/153 145/145/145 146/146/146
f 152/152/152 145/145/145 153/153/153
f 154/154/154 146/146/146 147/147/147
f 153/153/153 146/146/146 154/154/154
f 155/155/155 147/147/147 148/148/148
f 154/154/154 147/147/147 155/155/155
f 156/156/156 148/148/148 149/149/149
f 155/155/155 148/148/148 156/156/156
f 157/157/157 149/149/149 123/123/123
f 156/156/156 149/149/149 157/157/157
f 157/157/157 123/123/123 158/158/158
f 158/158/158 123/123/123 122/122/122
f 158/158/158 122/122/122 159/159/159
f 159/159/159 122/122/122 160/160/160
f 122/122/122 116/116/116 160/160/160
f 160/160/160 116/116/116 117/117/117
f 160/160/160 117/117/117 161/161/161
f 161/161/161 117/117/117 118/118/118
f 162/162/162 152/152/152 153/153/153
f 163/163/163 152/152/152 162/162/162
f 164/164/164 155/155/155 156/156/156
f 165/165/165 155/155/155 164/164/164
f 165/165/165 154/154/154 155/155/155
f 166/166/166 154/154/154 165/165/165
f 167/167/167 156/156/156 157/157/157
f 164/164/164 156/156/156 167/167/167
f 162/162/162 153/153/153 166/166/166
f 166/166/166 153/153/153 154/154/154
f 170/170/170 169/169/169 168/168/168
f 171/171/171 169/169/169 170/170/170
f 170/170/170 168/168/168 172/172/172
f 172/172/172 168/168/168 173/173/173
f 172/172/172 173/173/173 174/174/174
f 174/174/174 173/173/173 175/175/175
f 176/176/176 170/170/170 172/172/172
f 177/177/177 170/170/170 176/176/176
f 177/177/177 171/171/171 170/170/170
f 178/178/178 171/171/171 177/177/177
f 179/179/179 172/172/172 174/174/174
f 176/176/176 172/172/172 179/179/179
f 179/179/179 174/174/174 180/180/180
f 180/180/180 174/174/174 181/181/181
f 180/180/180 181/181/181 182/182/182
f 182/182/182 181/181/181 183/183/183
f 184/184/184 178/178/178 177/177/177
f 185/185/185 178/178/178 184/184/184
f 185/185/185 186/186/186 178/178/178
f 186/186/186 187/187/187 178/178/178
f 186/186/186 188/188/188 187/187/187
f 189/189/189 188/188/188 186/186/186
f 189/189/189 190/190/190 188/188/188
f 191/191/191 190/190/190 189/189/189
f 178/178/178 187/187/187 171/171/171
f 192/192/192 191/191/191 189/189/189
f 193/193/193 191/191/191 192/192/192
f 193/193/193 194/194/194 191/191/191
f 195/195/195 194/194/194 193/193/193
f 196/196/196 189/189/189 186/186/186
f 192/192/192 189/189/189 196/196/196
f 196/196/196 186/186/186 185/185/185
f 197/197/197 195/195/195 193/193/193
f 198/198/198 195/195/195 197/197/197
f 198/198/198 199/199/199 195/195/195
f 200/200/200 199/199/199 198/198/198
f 200/200/200 201/201/201 199/199/199
f 202/202/202 201/201/201 200/200/200
f 203/203/203 193/193/193 192/192/192
f 197/197/197 193/193/193 203/203/203
f 204/204/204 192/192/192 196/196/196
f 203/203/203 192/192/192 204/204/204
f 204/204/204 196/196/196 205/205/205
f 205/205/205 196/196/196 185/185/185
f 205/205/205 185/185/185 206/206/206
f 206/206/206 185/185/185 184/184/184
f 206/206/206 184/184/184 207/207/207
f 207/207/207 184/184/184 208/208/208
f 184/184/184 177/177/177 208/208/208
f 208/208/208 177/177/177 176/176/176
f 208/208/208 176/176/176 209/209/209
f 209/209/209 176/176/176 179/179/179
f 209/209/209 179/179/179 210/210/210
f 210/210/210 179/179/179 180/180/180
f 210/210/210 180/180/180 211/211/211
f 211/211/211 180/180/180 182/182/182
f 211/211/211 182/182/182 212/212/212
f 212/212/212 182/182/182 213/213/213
f 212/212/212 213/213/213 214/214/214
f 214/214/214 213/213/213 215/215/215
f 216/216/216 208/208/208 209/209/209
f 207/207/207 208/208/208 216/216/216
f 217/217/217 209/209/209 210/210/210
f 216/216/216 209/209/209 217/217/217
f 218/218/218 210/210/210 211/211/211
f 217/217/217 210/210/210 218/218/218
f 219/219/219 211/211/211 212/212/212
f 218/218/218 211/211/211 219/219/219
f 220/220/220 212/212/212 214/214/214
f 219/219/219 212/212/212 220/220/220
f 220/220/220 214/214/214 221/221/221
f 221/221/221 214/214/214 222/222/222
f 221/221/221 222/222/222 223/223/223
f 223/223/223 222/222/222 224/224/224
f 225/225/225 220/220/220 221/221/221
f 226/226/226 220/220/220 225/225/225
f 226/226/226 219/219/219 220/220/220
f 227/227/227 221/221/221 223/223/223
f 225/225/225 221/221/221 227/227/227
f 227/227/227 223/223/223 228/228/228
f 228/228/228 223/223/223 229/229/229
f 228/228/228 229/229/229 230/230/230
f 230/230/230 229/229/229 231/231/231
f 232/232/232 216/216/216 217/217/217
f 233/233/233 217/217/217 218/218/218
f 232/232/232 217/217/217 233/233/233
f 234/234/234 219/219/219 226/226/226
f 233/233/233 218/218/218 234/234/234
f 234/234/234 218/218/218 219/219/219
f 235/235/235 226/226/226 225/225/225
f 236/236/236 226/226/226 235/235/235
f 236/236/236 234/234/234 226/226/226
f 237/237/237 225/225/225 227/227/227
f 235/235/235 225/225/225 237/237/237
f 238/238/238 227/227/227 228/228/228
f 237/237/237 227/227/227 238/238/238
f 239/239/239 228/228/228 230/230/230
f 238/238/238 228/228/228 239/239/239
f 239/239/239 230/230/230 240/240/240
f 240/240/240 230/230/230 241/241/241
f 230/230/230 231/231/231 241/241/241
f 241/241/241 231/231/231 242/242/242
f 241/241/241 242/242/242 243/243/243
f 243/243/243 242/242/242 244/244/244
f 243/243/243 244/244/244 245/245/245
f 245/245/245 244/244/244 202/202/202
f 245/245/245 202/202/202 246/246/246
f 246/246/246 202/202/202 200/200/200
f 246/246/246 200/200/200 247/247/247
f 247/247/247 200/200/200 198/198/198
f 247/247/247 198/198/198 248/248/248
f 248/248/248 198/198/198 197/197/197
f 248/248/248 197/197/197 249/249/249
f 249/249/249 197/197/197 203/203/203
f 249/249/249 203/203/203 250/250/250
f 250/250/250 203/203/203 204/204/204
f 250/250/250 204/204/204 251/251/251
f 251/251/251 204/204/204 205/205/205
f 251/251/251 205/205/205 252/252/252
f 252/252/252 205/205/205 206/206/206
f 252/252/252 206/206/206 253/253/253
f 253/253/253 206/206/206 207/207/207
f 253/253/253 207/207/207 254/254/254
f 254/254/254 207/207/207 216/216/216
f 254/254/254 216/216/216 232/232/232
f 255/255/255 248/248/248 249/249/249
f 256/256/256 248/248/248 255/255/255
f 257/257/257 249/249/249 250/250/250
f 255/255/255 249/249/249 257/257/257
f 258/258/258 250/250/250 251/251/251
f 257/257/257 250/250/250 258/258/258
f 259/259/259 251/251/251 252/252/252
f 258/258/258 251/251/251 259/259/259
f 260/260/260 252/252/252 253/253/253
f 259/259/259 252/252/252 260/260/260
f 261/261/261 253/253/253 254/254/254
f 260/260/260 253/253/253 261/261/261
f 262/262/262 254/254/254 232/232/232
f 261/261/261 254/254/254 262/262/262
f 262/262/262 232/232/232 263/263/263
f 263/263/263 232/232/232 233/233/233
f 263/263/263 233/233/233 264/264/264
f 264/264/264 233/233/233 234/234/234
f 264/264/264 234/234/234 236/236/236
f 265/265/265 256/256/256 255/255/255
f 266/266/266 256/256/256 265/265/265
f 266/266/266 267/267/267 256/256/256
f 267/267/267 247/247/247 256/256/256
f 267/267/267 246/246/246 247/247/247
f 268/268/268 246/246/246 267/267/267
f 268/268/268 245/245/245 246/246/246
f 269/269/269 245/245/245 268/268/268
f 269/269/269 243/243/243 245/245/245
f 270/270/270 243/243/243 269/269/269
f 270/270/270 241/241/241 243/243/243
f 240/240/240 241/241/241 270/270/270
f 271/271/271 240/240/240 270/270/270
f 272/272/272 240/240/240 271/271/271
f 272/272/272 239/239/239 240/240/240
f 273/273/273 239/239/239 272/272/272
f 273/273/273 238/238/238 239/239/239
f 274/274/274 238/238/238 273/273/273
f 274/274/274 237/237/237 238/238/238
f 275/275/275 237/237/237 274/274/274
f 275/275/275 235/235/235 237/237/237
f 276/276/276 235/235/235 275/275/275
f 276/276/276 236/236/236 235/235/235
f 277/277/277 236/236/236 276/276/276
f 271/271/271 270/270/270 278/278/278
f 278/278/278 270/270/270 269/269/269
f 278/278/278 269/269/269 279/279/279
f 279/279/279 269/269/269 268/268/268
f 279/279/279 268/268/268 280/280/280
f 280/280/280 268/268/268 267/267/267
f 280/280/280 267/267/267 266/266/266
f 277/277/277 264/264/264 236/236/236
f 281/281/281 264/264/264 277/277/277
f 281/281/281 263/263/263 264/264/264
f 282/282/282 263/263/263 281/281/281
f 282/282/282 262/262/262 263/263/263
f 283/283/283 262/262/262 282/282/282
f 283/283/283 261/261/261 262/262/262
f 284/284/284 261/261/261 283/283/283
f 284/284/284 260/260/260 261/261/261
f 285/285/285 260/260/260 284/284/284
f 285/285/285 259/259/259 260/260/260
f 286/286/286 259/259/259 285/285/285
f 286/286/286 258/258/258 259/259/259
f 287/287/287 258/258/258 286/286/286
f 287/287/287 257/257/257 258/258/258
f 288/288/288 257/257/257 287/287/287
f 288/288/288 255/255/255 257/257/257
f 265/265/265 255/255/255 288/288/288
f 289/289/289 265/265/265 288/288/288
f 290/290/290 265/265/265 289/289/289
f 290/290/290 266/266/266 265/265/265
f 291/291/291 266/266/266 290/290/290
f 291/291/291 280/280/280 266/266/266
f 292/292/292 280/280/280 291/291/291
f 292/292/292 279/279/279 280/280/280
f 293/293/293 279/279/279 292/292/292
f 293/293/293 278/278/278 279/279/279
f 294/294/294 278/278/278 293/293/293
f 294/294/294 271/271/271 278/278/278
f 295/295/295 271/271/271 294/294/294
f 295/295/295 272/272/272 271/271/271
f 296/296/296 272/272/272 295/295/295
f 296/296/296 273/273/273 272/272/272
f 297/297/297 273/273/273 296/296/296
f 297/297/297 274/274/274 273/273/273
f 298/298/298 274/274/274 297/297/297
f 298/298/298 275/275/275 274/274/274
f 299/299/299 275/275/275 298/298/298
f 299/299/299 276/276/276 275/275/275
f 300/300/300 276/276/276 299/299/299
f 300/300/300 277/277/277 276/276/276
f 301/301/301 277/277/277 300/300/300
f 301/301/301 281/281/281 277/277/277
f 302/302/302 281/281/281 301/301/301
f 302/302/302 282/282/282 281/281/281
f 303/303/303 282/282/282 302/302/302
f 303/303/303 283/283/283 282/282/282
f 304/304/304 283/283/283 303/303/303
f 304/304/304 284/284/284 283/283/283
f 305/305/305 284/284/284 304/304/304
f 305/305/305 285/285/285 284/284/284
f 306/306/306 285/285/285 305/305/305
f 306/306/306 286/286/286 285/285/285
f 307/307/307 286/286/286 306/306/306
f 307/307/307 287/287/287 286/286/286
f 308/308/308 287/287/287 307/307/307
f 308/308/308 288/288/288 287/287/287
f 289/289/289 288/288/288 308/308/308
f 309/309/309 289/289/289 308/308/308
f 310/310/310 289/289/289 309/309/309
f 310/310/310 290/290/290 289/289/289
f 311/311/311 290/290/290 310/310/310
f 311/311/311 291/291/291 290/290/290
f 312/312/312 291/291/291 311/311/311
f 312/312/312 292/292/292 291/291/291
f 313/313/313 292/292/292 312/312/312
f 313/313/313 293/293/293 292/292/292
f 314/314/314 293/293/293 313/313/313
f 314/314/314 294/294/294 293/293/293
f 315/315/315 294/294/294 314/314/314
f 315/315/315 295/295/295 294/294/294
f 316/316/316 295/295/295 315/315/315
f 316/316/316 296/296/296 295/295/295
f 317/317/317 296/296/296 316/316/316
f 317/317/317 297/297/297 296/296/296
f 318/318/318 297/297/297 317/317/317
f 318/318/318 298/298/298 297/297/297
f 319/319/319 298/298/298 318/318/318
f 319/319/319 299/299/299 298/298/298
f 320/320/320 299/299/299 319/319/319
f 320/320/320 300/300/300 299/299/299
f 321/321/321 300/300/300 320/320/320
f 321/321/321 301/301/301 300/300/300
f 322/322/322 301/301/301 321/321/321
f 322/322/322 302/302/302 301/301/301
f 323/323/323 302/302/302 322/322/322
f 323/323/323 303/303/303 302/302/302
f 324/324/324 303/303/303 323/323/323
f 324/324/324 304/304/304 303/303/303
f 325/325/325 304/304/304 324/324/324
f 325/325/325 305/305/305 304/304/304
f 326/326/326 305/305/305 325/325/325
f 326/326/326 306/306/306 305/305/305
f 327/327/327 306/306/306 326/326/326
f 327/327/327 307/307/307 306/306/306
f 328/328/328 307/307/307 327/327/327
f 328/328/328 308/308/308 307/307/307
f 309/309/309 308/308/308 328/328/328
f 329/329/329 309/309/309 328/328/328
f 329/329/329 328/328/328 327/327/327
f 329/329/329 327/327/327 326/326/326
f 329/329/329 326/326/326 325/325/325
f 329/329/329 325/325/325 324/324/324
f 329/329/329 324/324/324 323/323/323
f 329/329/329 323/323/323 322/322/322
f 329/329/329 322/322/322 321/321/321
f 329/329/329 321/321/321 320/320/320
f 329/329/329 320/320/320 319/319/319
f 329/329/329 319/319/319 318/318/318
f 329/329/329 318/318/318 317/317/317
f 329/329/329 317/317/317 316/316/316
f 329/329/329 316/316/316 315/315/315
f 329/329/329 315/315/315 314/314/314
f 329/329/329 314/314/314 313/313/313
f 329/329/329 313/313/313 312/312/312
f 329/329/329 312/312/312 311/311/311
f 329/329/329 311/311/311 310/310/310
f 329/329/329 310/310/310 309/309/309
f 256/256/256 247/247/247 248/248/248
f 330/330/330 1/1/1 2/2/2
f 330/330/330 6/6/6 1/1/1
f 330/330/330 8/8/8 6/6/6
f 330/330/330 10/10/10 8/8/8
f 330/330/330 12/12/12 10/10/10
f 330/330/330 14/14/14 12/12/12
f 330/330/330 16/16/16 14/14/14
f 330/330/330 18/18/18 16/16/16
f 330/330/330 20/20/20 18/18/18
f 330/330/330 22/22/22 20/20/20
f 330/330/330 24/24/24 22/22/22
f 330/330/330 26/26/26 24/24/24
f 330/330/330 28/28/28 26/26/26
f 330/330/330 30/30/30 28/28/28
f 330/330/330 32/32/32 30/30/30
f 330/330/330 34/34/34 32/32/32
f 330/330/330 36/36/36 34/34/34
f 330/330/330 38/38/38 36/36/36
f 330/330/330 40/40/40 38/38/38
f 330/330/330 2/2/2 40/40/40
f 333/333/333 332/332/332 331/331/331
f 334/334/334 332/332/332 333/333/333
f 333/333/333 331/331/331 335/335/335
f 335/335/335 331/331/331 336/336/336
f 335/335/335 336/336/336 337/337/337
f 337/337/337 336/336/336 338/338/338
f 337/337/337 338/338/338 339/339/339
f 334/334/334 340/340/340 332/332/332
f 341/341/341 340/340/340 334/334/334
f 341/341/341 342/342/342 340/340/340
f 343/343/343 342/342/342 341/341/341
f 343/343/343 344/344/344 342/342/342
f 345/345/345 344/344/344 343/343/343
f 345/345/345 346/346/346 344/344/344
f 347/347/347 346/346/346 345/345/345
f 347/347/347 348/348/348 346/346/346
f 337/337/337 349/349/349 335/335/335
f 335/335/335 349/349/349 350/350/350
f 349/349/349 351/351/351 350/350/350
f 350/350/350 351/351/351 352/352/352
f 350/350/350 352/352/352 353/353/353
f 353/353/353 352/352/352 354/354/354
f 354/354/354 352/352/352 355/355/355
f 356/356/356 354/354/354 355/355/355
f 357/357/357 356/356/356 355/355/355
f 358/358/358 357/357/357 355/355/355
f 359/359/359 358/358/358 355/355/355
f 360/360/360 354/354/354 356/356/356
f 353/353/353 354/354/354 360/360/360
f 361/361/361 358/358/358 359/359/359
f 361/361/361 359/359/359 362/362/362
f 347/347/347 361/361/361 362/362/362
f 362/362/362 359/359/359 363/363/363
f 364/364/364 358/358/358 361/361/361
f 364/364/364 357/357/357 358/358/358
f 365/365/365 357/357/357 364/364/364
f 365/365/365 356/356/356 357/357/357
f 360/360/360 356/356/356 365/365/365
f 334/334/334 353/353/353 360/360/360
f 333/333/333 353/353/353 334/334/334
f 333/333/333 350/350/350 353/353/353
f 335/335/335 350/350/350 333/333/333
f 345/345/345 364/364/364 361/361/361
f 345/345/345 361/361/361 347/347/347
f 347/347/347 362/362/362 366/366/366
f 366/366/366 348/348/348 347/347/347
f 343/343/343 364/364/364 345/345/345
f 343/343/343 365/365/365 364/364/364
f 341/341/341 365/365/365 343/343/343
f 341/341/341 360/360/360 365/365/365
f 334/334/334 360/360/360 341/341/341
f 369/369/369 368/368/368 367/367/367
f 369/369/369 367/367/367 370/370/370
f 370/370/370 367/367/367 371/371/371
f 370/370/370 371/371/371 372/372/372
f 372/372/372 371/371/371 373/373/373
f 372/372/372 373/373/373 374/374/374
f 374/374/374 373/373/373 375/375/375
f 374/374/374 375/375/375 376/376/376
f 376/376/376 375/375/375 377/377/377
f 376/376/376 377/377/377 378/378/378
f 378/378/378 377/377/377 379/379/379
f 378/378/378 379/379/379 380/380/380
f 380/380/380 379/379/379 381/381/381
f 380/380/380 381/381/381 382/382/382
f 370/370/370 383/383/383 369/369/369
f 369/369/369 383/383/383 384/384/384
f 383/383/383 385/385/385 384/384/384
f 384/384/384 385/385/385 386/386/386
f 386/386/386 385/385/385 387/387/387
f 388/388/388 386/386/386 387/387/387
f 389/389/389 388/388/388 387/387/387
f 385/385/385 390/390/390 387/387/387
f 383/383/383 390/390/390 385/385/385
f 390/390/390 391/391/391 387/387/387
f 391/391/391 392/392/392 387/387/387
f 392/392/392 393/393/393 387/387/387
f 393/393/393 394/394/394 387/387/387
f 394/394/394 395/395/395 387/387/387
f 395/395/395 396/396/396 387/387/387
f 396/396/396 397/397/397 387/387/387
f 398/398/398 386/386/386 388/388/388
f 384/384/384 386/386/386 398/398/398
f 399/399/399 390/390/390 383/383/383
f 399/399/399 391/391/391 390/390/390
f 400/400/400 391/391/391 399/399/399
f 400/400/400 392/392/392 391/391/391
f 401/401/401 392/392/392 400/400/400
f 401/401/401 393/393/393 392/392/392
f 402/402/402 393/393/393 401/401/401
f 402/402/402 394/394/394 393/393/393
f 403/403/403 394/394/394 402/402/402
f 403/403/403 395/395/395 394/394/394
f 404/404/404 395/395/395 403/403/403
f 404/404/404 396/396/396 395/395/395
f 405/405/405 396/396/396 404/404/404
f 372/372/372 400/400/400 399/399/399
f 372/372/372 399/399/399 370/370/370
f 370/370/370 399/399/399 383/383/383
f 374/374/374 400/400/400 372/372/372
f 374/374/374 401/401/401 400/400/400
f 376/376/376 401/401/401 374/374/374
f 376/376/376 402/402/402 401/401/401
f 378/378/378 402/402/402 376/376/376
f 378/378/378 403/403/403 402/402/402
f 380/380/380 403/403/403 378/378/378
f 380/380/380 404/404/404 403/403/403
f 382/382/382 404/404/404 380/380/380
f 382/382/382 405/405/405 404/404/404
f 382/382/382 381/381/381 406/406/406
f 337/337/337 407/407/407 349/349/349
f 339/339/339 407/407/407 337/337/337
f 410/410/410 409/409/409 408/408/408
f 411/411/411 409/409/409 410/410/410
f 410/410/410 408/408/408 412/412/412
f 412/412/412 408/408/408 413/413/413
f 412/412/412 413/413/413 414/414/414
f 414/414/414 413/413/413 415/415/415
f 414/414/414 415/415/415 416/416/416
f 416/416/416 415/415/415 417/417/417
f 416/416/416 418/418/418 414/414/414
f 414/414/414 418/418/418 419/419/419
f 414/414/414 419/419/419 412/412/412
f 418/418/418 420/420/420 419/419/419
f 419/419/419 420/420/420 421/421/421
f 421/421/421 420/420/420 422/422/422
f 423/423/423 421/421/421 422/422/422
f 424/424/424 423/423/423 422/422/422
f 425/425/425 424/424/424 422/422/422
f 420/420/420 426/426/426 422/422/422
f 426/426/426 427/427/427 422/422/422
f 427/427/427 428/428/428 422/422/422
f 428/428/428 429/429/429 422/422/422
f 429/429/429 430/430/430 422/422/422
f 430/430/430 431/431/431 422/422/422
f 431/431/431 432/432/432 422/422/422
f 432/432/432 433/433/433 422/422/422
f 433/433/433 434/434/434 422/422/422
f 434/434/434 435/435/435 422/422/422
f 435/435/435 436/436/436 422/422/422
f 436/436/436 425/425/425 422/422/422
f 437/437/437 424/424/424 425/425/425
f 438/438/438 424/424/424 437/437/437
f 438/438/438 423/423/423 424/424/424
f 439/439/439 423/423/423 438/438/438
f 440/440/440 432/432/432 431/431/431
f 440/440/440 431/431/431 441/441/441
f 441/441/441 431/431/431 430/430/430
f 442/442/442 432/432/432 440/440/440
f 442/442/442 433/433/433 432/432/432
f 443/443/443 433/433/433 442/442/442
f 443/443/443 434/434/434 433/433/433
f 444/444/444 434/434/434 443/443/443
f 444/444/444 435/435/435 434/434/434
f 445/445/445 435/435/435 444/444/444
f 446/446/446 436/436/436 435/435/435
f 447/447/447 436/436/436 445/445/445
f 447/447/447 425/425/425 436/436/436
f 437/437/437 425/425/425 447/447/447
f 448/448/448 438/438/438 437/437/437
f 410/410/410 439/439/439 438/438/438
f 410/410/410 438/438/438 411/411/411
f 412/412/412 439/439/439 410/410/410
f 412/412/412 419/419/419 439/439/439
f 419/419/419 421/421/421 439/439/439
f 439/439/439 421/421/421 423/423/423
f 449/449/449 443/443/443 442/442/442
f 449/449/449 442/442/442 450/450/450
f 450/450/450 451/451/451 449/449/449
f 449/449/449 451/451/451 452/452/452
f 449/449/449 452/452/452 453/453/453
f 453/453/453 452/452/452 454/454/454
f 453/453/453 454/454/454 455/455/455
f 455/455/455 454/454/454 456/456/456
f 455/455/455 456/456/456 457/457/457
f 457/457/457 456/456/456 458/458/458
f 457/457/457 458/458/458 459/459/459
f 459/459/459 458/458/458 460/460/460
f 459/459/459 460/460/460 461/461/461
f 450/450/450 442/442/442 440/440/440
f 453/453/453 443/443/443 449/449/449
f 453/453/453 444/444/444 443/443/443
f 455/455/455 444/444/444 453/453/453
f 455/455/455 445/445/445 444/444/444
f 457/457/457 462/462/462 455/455/455
f 457/457/457 447/447/447 445/445/445
f 459/459/459 447/447/447 457/457/457
f 459/459/459 437/437/437 447/447/447
f 463/463/463 437/437/437 459/459/459
f 463/463/463 460/460/460 464/464/464
f 467/467/467 466/466/466 465/465/465
f 468/468/468 466/466/466 467/467/467
f 467/467/467 465/465/465 469/469/469
f 469/469/469 465/465/465 470/470/470
f 469/469/469 470/470/470 471/471/471
f 471/471/471 470/470/470 472/472/472
f 471/471/471 472/472/472 473/473/473
f 473/473/473 472/472/472 474/474/474
f 473/473/473 474/474/474 475/475/475
f 475/475/475 474/474/474 476/476/476
f 475/475/475 476/476/476 477/477/477
f 477/477/477 476/476/476 478/478/478
f 469/469/469 479/479/479 467/467/467
f 467/467/467 479/479/479 480/480/480
f 479/479/479 481/481/481 480/480/480
f 480/480/480 481/481/481 482/482/482
f 480/480/480 482/482/482 483/483/483
f 468/468/468 480/480/480 483/483/483
f 483/483/483 482/482/482 484/484/484
f 479/479/479 485/485/485 481/481/481
f 486/486/486 485/485/485 479/479/479
f 469/469/469 486/486/486 479/479/479
f 471/471/471 486/486/486 469/469/469
f 471/471/471 487/487/487 486/486/486
f 487/487/487 488/488/488 486/486/486
f 486/486/486 488/488/488 485/485/485
f 473/473/473 487/487/487 471/471/471
f 473/473/473 489/489/489 487/487/487
f 489/489/489 490/490/490 487/487/487
f 487/487/487 490/490/490 488/488/488
f 475/475/475 489/489/489 473/473/473
f 475/475/475 491/491/491 489/489/489
f 477/477/477 491/491/491 475/475/475
f 493/493/493 492/492/492 416/416/416
f 496/496/496 495/495/495 494/494/494
f 497/497/497 495/495/495 496/496/496
f 497/497/497 498/498/498 495/495/495
f 499/499/499 498/498/498 497/497/497
f 499/499/499 500/500/500 498/498/498
f 501/501/501 500/500/500 499/499/499
f 501/501/501 502/502/502 500/500/500
f 503/503/503 502/502/502 501/501/501
f 503/503/503 504/504/504 502/502/502
f 505/505/505 504/504/504 503/503/503
f 505/505/505 506/506/506 504/504/504
f 507/507/507 506/506/506 505/505/505
f 507/507/507 508/508/508 506/506/506
f 496/496/496 509/509/509 497/497/497
f 497/497/497 509/509/509 510/510/510
f 497/497/497 510/510/510 499/499/499
f 509/509/509 511/511/511 510/510/510
f 510/510/510 511/511/511 512/512/512
f 510/510/510 512/512/512 513/513/513
f 499/499/499 513/513/513 501/501/501
f 499/499/499 510/510/510 513/513/513
f 513/513/513 512/512/512 514/514/514
f 513/513/513 514/514/514 515/515/515
f 501/501/501 515/515/515 503/503/503
f 501/501/501 513/513/513 515/515/515
f 515/515/515 514/514/514 516/516/516
f 505/505/505 517/517/517 507/507/507
f 507/507/507 517/517/517 518/518/518
f 505/505/505 519/519/519 517/517/517
f 515/515/515 516/516/516 519/519/519
f 519/519/519 520/520/520 517/517/517
f 519/519/519 516/516/516 520/520/520
f 517/517/517 520/520/520 521/521/521
f 503/503/503 515/515/515 519/519/519
f 503/503/503 519/519/519 505/505/505
f 524/524/524 523/523/523 522/522/522
f 525/525/525 523/523/523 524/524/524
f 524/524/524 522/522/522 526/526/526
f 526/526/526 522/522/522 527/527/527
f 526/526/526 527/527/527 528/528/528
f 528/528/528 527/527/527 529/529/529
f 528/528/528 529/529/529 530/530/530
f 530/530/530 529/529/529 531/531/531
f 530/530/530 531/531/531 532/532/532
f 532/532/532 531/531/531 533/533/533
f 532/532/532 533/533/533 534/534/534
f 534/534/534 533/533/533 535/535/535
f 534/534/534 535/535/535 536/536/536
f 536/536/536 535/535/535 537/537/537
f 536/536/536 537/537/537 538/538/538
f 538/538/538 537/537/537 539/539/539
f 538/538/538 539/539/539 540/540/540
f 528/528/528 541/541/541 526/526/526
f 526/526/526 541/541/541 542/542/542
f 541/541/541 543/543/543 542/542/542
f 542/542/542 543/543/543 544/544/544
f 544/544/544 543/543/543 545/545/545
f 541/541/541 546/546/546 543/543/543
f 543/543/543 546/546/546 547/547/547
f 546/546/546 548/548/548 547/547/547
f 548/548/548 549/549/549 547/547/547
f 549/549/549 550/550/550 547/547/547
f 542/542/542 544/544/544 551/551/551
f 551/551/551 544/544/544 552/552/552
f 552/552/552 544/544/544 553/553/553
f 551/551/551 552/552/552 554/554/554
f 554/554/554 552/552/552 555/555/555
f 555/555/555 552/552/552 556/556/556
f 557/557/557 548/548/548 546/546/546
f 557/557/557 546/546/546 541/541/541
f 558/558/558 548/548/548 557/557/557
f 558/558/558 549/549/549 548/548/548
f 559/559/559 549/549/549 558/558/558
f 559/559/559 550/550/550 549/549/549
f 560/560/560 550/550/550 559/559/559
f 560/560/560 561/561/561 550/550/550
f 550/550/550 561/561/561 562/562/562
f 563/563/563 561/561/561 560/560/560
f 563/563/563 564/564/564 561/561/561
f 561/561/561 564/564/564 565/565/565
f 566/566/566 564/564/564 563/563/563
f 566/566/566 567/567/567 564/564/564
f 564/564/564 567/567/567 568/568/568
f 569/569/569 567/567/567 566/566/566
f 569/569/569 570/570/570 567/567/567
f 567/567/567 570/570/570 571/571/571
f 572/572/572 570/570/570 569/569/569
f 538/538/538 566/566/566 563/563/563
f 538/538/538 563/563/563 536/536/536
f 536/536/536 563/563/563 560/560/560
f 536/536/536 560/560/560 534/534/534
f 534/534/534 560/560/560 559/559/559
f 534/534/534 559/559/559 532/532/532
f 532/532/532 559/559/559 558/558/558
f 532/532/532 558/558/558 530/530/530
f 530/530/530 558/558/558 557/557/557
f 530/530/530 557/557/557 528/528/528
f 528/528/528 557/557/557 541/541/541
f 540/540/540 566/566/566 538/538/538
f 540/540/540 569/569/569 566/566/566
f 573/573/573 569/569/569 540/540/540
f 540/540/540 574/574/574 573/573/573
f 577/577/577 576/576/576 575/575/575
f 576/576/576 578/578/578 575/575/575
f 578/578/578 579/579/579 575/575/575
f 579/579/579 580/580/580 575/575/575
f 580/580/580 582/582/582 581/581/581
f 585/585/585 584/584/584 583/583/583
f 525/525/525 551/551/551 554/554/554
f 524/524/524 551/551/551 525/525/525
f 524/524/524 542/542/542 551/551/551
f 526/526/526 542/542/542 524/524/524
f 588/588/588 587/587/587 586/586/586
f 587/587/587 590/590/590 589/589/589
f 591/591/591 590/590/590 587/587/587
f 592/592/592 590/590/590 591/591/591
f 592/592/592 593/593/593 590/590/590
f 590/590/590 593/593/593 594/594/594
f 595/595/595 593/593/593 592/592/592
f 595/595/595 596/596/596 593/593/593
f 593/593/593 596/596/596 597/597/597
f 596/596/596 598/598/598 597/597/597
f 599/599/599 596/596/596 595/595/595
f 599/599/599 598/598/598 596/596/596
f 600/600/600 598/598/598 599/599/599
f 600/600/600 601/601/601 598/598/598
f 598/598/598 601/601/601 602/602/602
f 603/603/603 601/601/601 600/600/600
f 603/603/603 604/604/604 601/601/601
f 601/601/601 604/604/604 605/605/605
f 606/606/606 604/604/604 603/603/603
f 606/606/606 607/607/607 604/604/604
f 604/604/604 607/607/607 608/608/608
f 609/609/609 607/607/607 606/606/606
f 609/609/609 610/610/610 607/607/607
f 607/607/607 610/610/610 611/611/611
f 610/610/610 612/612/612 611/611/611
f 613/613/613 612/612/612 610/610/610
f 613/613/613 610/610/610 609/609/609
f 614/614/614 600/600/600 599/599/599
f 614/614/614 599/599/599 615/615/615
f 615/615/615 599/599/599 595/595/595
f 615/615/615 595/595/595 616/616/616
f 616/616/616 595/595/595 592/592/592
f 616/616/616 592/592/592 617/617/617
f 617/617/617 592/592/592 591/591/591
f 618/618/618 609/609/609 606/606/606
f 619/619/619 609/609/609 618/618/618
f 619/619/619 613/613/613 609/609/609
f 620/620/620 613/613/613 619/619/619
f 620/620/620 621/621/621 613/613/613
f 621/621/621 612/612/612 613/613/613
f 621/621/621 622/622/622 612/612/612
f 612/612/612 622/622/622 623/623/623
f 624/624/624 622/622/622 621/621/621
f 625/625/625 621/621/621 620/620/620
f 622/622/622 627/627/627 626/626/626
f 618/618/618 606/606/606 628/628/628
f 628/628/628 606/606/606 603/603/603
f 628/628/628 603/603/603 629/629/629
f 629/629/629 603/603/603 600/600/600
f 629/629/629 600/600/600 614/614/614
f 632/632/632 631/631/631 630/630/630
f 631/631/631 634/634/634 633/633/633
f 634/634/634 636/636/636 635/635/635
f 636/636/636 638/638/638 637/637/637
f 641/641/641 640/640/640 639/639/639
f 644/644/644 643/643/643 642/642/642
f 645/645/645 643/643/643 644/644/644
f 644/644/644 642/642/642 646/646/646
f 646/646/646 642/642/642 647/647/647
f 646/646/646 647/647/647 648/648/648
f 648/648/648 647/647/647 649/649/649
f 648/648/648 649/649/649 650/650/650
f 650/650/650 649/649/649 651/651/651
f 650/650/650 651/651/651 652/652/652
f 652/652/652 651/651/651 653/653/653
f 652/652/652 653/653/653 654/654/654
f 654/654/654 653/653/653 655/655/655
f 656/656/656 645/645/645 644/644/644
f 657/657/657 645/645/645 656/656/656
f 658/658/658 652/652/652 654/654/654
f 659/659/659 652/652/652 658/658/658
f 659/659/659 650/650/650 652/652/652
f 660/660/660 650/650/650 659/659/659
f 660/660/660 648/648/648 650/650/650
f 661/661/661 648/648/648 660/660/660
f 661/661/661 646/646/646 648/648/648
f 662/662/662 646/646/646 661/661/661
f 656/656/656 644/644/644 662/662/662
f 662/662/662 644/644/644 646/646/646
f 665/665/665 664/664/664 663/663/663
