g BRM_Head_Jaw_mesh
v 1293.253 188.4087 -1043.45
v 1302.284 208.3949 -1073.703
v 1303.597 190.3909 -1045.315
v 1304.696 180.2581 -1027.952
v 1295.62 176.4875 -1025.575
v 1309.092 172.2161 -1013.665
v 1302.282 167.0268 -1007.996
v 1318.763 167.0532 -1002.676
v 1311.349 160.9524 -994.6724
v 1330.851 165.2742 -996.522
v 1327.263 158.8593 -986.9006
v 1343.599 167.0532 -994.9833
v 1344.287 160.9525 -984.1248
v 1356.127 172.2163 -1000.918
v 1361.311 167.0265 -988.3809
v 1312.53 130.1846 -983.6215
v 1303.463 136.2589 -996.9448
v 1302.282 167.0268 -1007.996
v 1328.444 128.0915 -975.8499
v 1345.468 130.1848 -973.074
v 1362.492 136.2586 -977.33
v 1308.208 101.4219 -1002.898
v 1301.637 119.6041 -1023.184
v 1296.801 145.7197 -1014.524
v 1302.282 167.0268 -1007.996
v 1295.62 176.4875 -1025.575
v 1294.434 157.6408 -1032.399
v 1298.976 126.7155 -1038.693
v 1305.752 157.3405 -1063.05
v 1303.464 177.627 -1062.652
v 1293.253 188.4087 -1043.45
v 1302.284 208.3949 -1073.703
v 1333.189 93.25454 -981.803
v 1317.275 95.34765 -989.5746
v 1315.925 76.55744 -1023.522
v 1309.264 86.01823 -1041.101
v 1324.992 70.48317 -1010.198
v 1340.906 68.39007 -1002.427
v 1350.213 95.34782 -979.0271
v 1367.238 101.4217 -983.2831
v 1373.41 145.7197 -988.4329
v 1372.229 176.4875 -999.4835
v 1361.311 167.0265 -988.3809
v 1377.952 114.7944 -994.7268
v 1383.587 157.6409 -1002.681
v 1382.406 188.4087 -1013.732
v 1372.229 176.4875 -999.4835
v 1390.762 207.3314 -1036.622
v 1391.943 176.5636 -1025.571
v 1386.187 124.0485 -1004.293
v 1394.854 152.5749 -1026.815
v 1357.93 70.48334 -999.6508
v 1374.955 76.55721 -1003.907
v 1385.872 86.01829 -1015.01
v 1394.107 95.27244 -1024.576
v 1400.266 113.2682 -1041.076
v 1303.597 190.3909 -1045.315
v 1302.284 208.3949 -1073.703
v 1309.999 208.3946 -1070.76
v 1367.116 180.2579 -1008.83
v 1361.311 167.0265 -988.3809
v 1356.127 172.2163 -1000.918
v 1372.229 176.4875 -999.4835
v 1374.589 190.3909 -1019.819
v 1382.406 188.4087 -1013.732
v 1372.229 176.4875 -999.4835
v 1374.589 190.3909 -1019.819
v 1379.811 207.3313 -1042.586
v 1390.762 207.3314 -1036.622
v 1374.589 190.3909 -1019.819
v 1367.116 180.2579 -1008.83
v 1374.041 175.8938 -1025.372
v 1367.69 167.0397 -1015.645
v 1378.85 191.1407 -1045.811
v 1379.811 207.3313 -1042.586
v 1362.844 159.3286 -1038.568
v 1360.315 154.6206 -1033.276
v 1357.578 159.6846 -1008.378
v 1356.127 172.2163 -1000.918
v 1343.599 167.0532 -994.9833
v 1346.358 155.2027 -1003.428
v 1330.851 165.2742 -996.522
v 1335.417 153.8744 -1005.098
v 1318.763 167.0532 -1002.676
v 1324.981 155.4924 -1010.553
v 1309.092 172.2161 -1013.665
v 1317.084 160.0125 -1019.999
v 1304.696 180.2581 -1027.952
v 1313.189 166.767 -1032.054
v 1303.597 190.3909 -1045.315
v 1311.84 175.3676 -1046.926
v 1334.245 155.182 -1041.219
v 1334.002 159.6437 -1048.431
v 1317.689 191.6715 -1069.863
v 1309.999 208.3946 -1070.76
v 1303.597 190.3909 -1045.315
v 1338.714 171.0011 -1063.653
v 1335.533 151.6517 -1035.494
v 1338.582 149.0143 -1030.846
v 1343.452 147.752 -1027.742
v 1348.805 148.0004 -1026.347
v 1354.781 150.3422 -1028.928
v 1348.426 156.7171 -1043.499
v 1353.463 170.4439 -1057.734
v 1346.525 152.1485 -1037.478
v 1344.892 148.2459 -1032.302
v 1366.072 169.9676 -1052.674
v 1306.896 97.93941 -1058.976
v 1312.159 122.9239 -1076.748
vt 0.441786 0.795539
vt 0.412128 0.743127
vt 0.452891 0.780789
vt 0.470841 0.808656
vt 0.460628 0.822551
vt 0.488637 0.830261
vt 0.482676 0.845859
vt 0.510449 0.845459
vt 0.502193 0.862619
vt 0.532827 0.854378
vt 0.526992 0.871898
vt 0.556037 0.857538
vt 0.552616 0.876262
vt 0.58216 0.851885
vt 0.58075 0.87448
vt 0.501552 0.895551
vt 0.481078 0.882371
vt 0.482676 0.845859
vt 0.523413 0.905087
vt 0.546298 0.909395
vt 0.571804 0.908707
vt 0.463464 0.915615
vt 0.434692 0.894239
vt 0.457362 0.861408
vt 0.482676 0.845859
vt 0.460628 0.822551
vt 0.434898 0.835224
vt 0.408007 0.867282
vt 0.384994 0.801234
vt 0.393705 0.786951
vt 0.441786 0.795539
vt 0.412128 0.743127
vt 0.515756 0.939668
vt 0.488838 0.928506
vt 0.434877 0.956143
vt 0.398953 0.930355
vt 0.468177 0.973269
vt 0.505311 0.986907
vt 0.543648 0.944692
vt 0.574123 0.94531
vt 0.597987 0.901363
vt 0.607138 0.862424
vt 0.58075 0.87448
vt 0.604296 0.940426
vt 0.628746 0.888216
vt 0.637942 0.846965
vt 0.607138 0.862424
vt 0.680944 0.818107
vt 0.674629 0.863211
vt 0.630037 0.931711
vt 0.675391 0.880955
vt 0.543076 0.993
vt 0.58312 0.993309
vt 0.619941 0.988191
vt 0.64869 0.979788
vt 0.682 0.935002
vt 0.452891 0.780789
vt 0.412128 0.743127
vt 0.425465 0.735831
vt 0.608353 0.842699
vt 0.58075 0.87448
vt 0.58216 0.851885
vt 0.607138 0.862424
vt 0.633545 0.828858
vt 0.637942 0.846965
vt 0.607138 0.862424
vt 0.633545 0.828858
vt 0.671131 0.797185
vt 0.680944 0.818107
vt 0.633545 0.828858
vt 0.608353 0.842699
vt 0.61349 0.809505
vt 0.59505 0.821782
vt 0.644391 0.780734
vt 0.671131 0.797185
vt 0.582743 0.780072
vt 0.576267 0.789101
vt 0.57497 0.829902
vt 0.58216 0.851885
vt 0.556037 0.857538
vt 0.556625 0.83559
vt 0.532827 0.854378
vt 0.540299 0.833603
vt 0.510449 0.845459
vt 0.523992 0.827279
vt 0.488637 0.830261
vt 0.508378 0.815431
vt 0.470841 0.808656
vt 0.495259 0.797908
vt 0.452891 0.780789
vt 0.482484 0.77443
vt 0.532171 0.776794
vt 0.529437 0.764278
vt 0.462105 0.730836
vt 0.425465 0.735831
vt 0.452891 0.780789
vt 0.529179 0.733548
vt 0.53532 0.786607
vt 0.54091 0.794487
vt 0.549037 0.799181
vt 0.557707 0.80084
vt 0.567146 0.796229
vt 0.556758 0.770104
vt 0.565704 0.740787
vt 0.55355 0.78145
vt 0.551081 0.791451
vt 0.594422 0.75403
vt 0.368121 0.900854
vt 0.349544 0.840389
vn -0.1086893 0.8371655 0.5360415
vn -0.1338728 0.8340706 0.5351675
vn 0.1263443 0.8113576 0.5707329
vn -0.1555045 0.8317166 0.5329782
vn -0.1967525 0.8202456 0.5371086
vn -0.1929025 0.8257097 0.5300868
vn -0.3531184 0.7283114 0.5872563
vn -0.1589568 0.8399575 0.518849
vn -0.4386353 0.5974029 0.6713485
vn -0.1520338 0.8469862 0.5094116
vn -0.260945 0.6171292 0.7423337
vn -0.161869 0.854302 0.4939297
vn -0.1392309 0.6409662 0.7548358
vn -0.2016132 0.8604866 0.4678834
vn 0.006184357 0.6591457 0.7519899
vn -0.6603069 0.03193709 0.7503165
vn -0.9011239 -0.02075251 0.4330646
vn -0.5997219 0.5595363 0.5720602
vn -0.3150607 0.0601269 0.947165
vn 0.007638566 0.08939718 0.9959668
vn 0.4330167 0.1187128 0.8935344
vn -0.912332 -0.2938613 0.2851242
vn -0.9685022 -0.2303924 0.09446116
vn -0.9740998 -0.06357023 0.2169991
vn -0.8686484 0.1376088 0.4759347
vn -0.9722784 0.04509815 0.2294358
vn -0.9880462 -0.08017596 -0.1316685
vn -0.9800977 -0.1345942 -0.1459215
vn -0.9387067 -0.07114678 -0.3372949
vn -0.9164776 -0.1483426 -0.3715687
vn -0.9690819 -0.1154964 -0.2180388
vn -0.906579 -0.1730348 -0.3849331
vn -0.2748233 -0.4450109 0.8523129
vn -0.6686465 -0.4081107 0.6215767
vn -0.8431554 -0.4732901 0.2551183
vn -0.9545004 -0.2907373 0.06633884
vn -0.5514977 -0.6272693 0.5498941
vn -0.165565 -0.6595411 0.7332078
vn 0.1260141 -0.3952124 0.9099053
vn 0.5850922 -0.2471114 0.7724009
vn 0.7004786 0.1376895 0.7002653
vn 0.4205103 0.4700059 0.7760577
vn 0.1536007 0.5076844 0.8477402
vn 0.7919233 -0.09366495 0.6033942
vn 0.820007 0.1300093 0.5573922
vn 0.7296183 0.2557852 0.6342169
vn 0.5787524 0.2952402 0.7601834
vn 0.8523155 0.2054623 0.4809817
vn 0.8913139 0.1148115 0.438609
vn 0.8660743 -0.02663174 0.4992053
vn 0.9211694 0.02942542 0.3880478
vn 0.2416515 -0.5739668 0.7824108
vn 0.6834623 -0.3171443 0.6574944
vn 0.8067358 -0.1756401 0.5642055
vn 0.9039717 -0.05315758 0.4242752
vn 0.9363075 0.001525322 0.3511779
vn -0.113754 0.8429858 0.5257708
vn -0.1338728 0.8340706 0.5351675
vn -0.202608 0.8227041 0.5311382
vn -0.2884449 0.8273389 0.4819853
vn -0.1092379 0.70125 0.7044967
vn -0.2016132 0.8604866 0.4678834
vn -0.2648067 0.8207517 0.5062056
vn -0.256548 0.807964 0.5304502
vn -0.242679 0.8042446 0.5424919
vn 0.06466627 0.7027029 0.7085387
vn -0.256548 0.807964 0.5304502
vn -0.2592707 0.7967616 0.5458476
vn -0.2953623 0.7865086 0.5423701
vn -0.959941 0.1288758 -0.2488055
vn -0.832862 0.2290027 -0.5038835
vn -0.9296945 0.3464811 -0.1249761
vn -0.8223026 0.4534923 -0.3437487
vn -0.9721415 0.2273005 -0.05723041
vn -0.9832368 0.08994013 -0.1586067
vn -0.6256372 0.7034066 0.3373383
vn -0.5793635 0.7898804 0.2010646
vn -0.6255478 0.5879952 -0.5127878
vn -0.6390825 0.3369716 -0.6913926
vn -0.3475426 0.4823551 -0.8040819
vn -0.259056 0.7624359 -0.5929433
vn 0.1641043 0.6268007 -0.7617025
vn 0.1922334 0.8483689 -0.4932711
vn 0.5299891 0.6510572 -0.5433563
vn 0.5044899 0.8221547 -0.2637265
vn 0.7723356 0.601751 -0.2034538
vn 0.6852859 0.727495 0.03367979
vn 0.8533084 0.5127847 0.09442762
vn 0.7316034 0.6385091 0.2388779
vn 0.8471083 0.4417301 0.2954352
vn 0.6966804 0.5720674 0.4328685
vn 0.3246689 0.8158204 0.4785679
vn 0.2529458 0.7747695 0.5794401
vn 0.5901504 0.5699621 0.5717217
vn 0.7909403 0.3864498 0.4744153
vn 0.5542424 0.7019048 0.4473757
vn 0.06462561 0.7635511 0.6425054
vn 0.4065705 0.8509516 0.3325383
vn 0.33514 0.933582 0.1269086
vn 0.1335062 0.9893513 -0.05796593
vn -0.1772743 0.9770386 -0.1181922
vn -0.4562137 0.8878321 0.0601931
vn -0.2128993 0.7846963 0.5821732
vn -0.2527466 0.761627 0.5966938
vn -0.1535336 0.8275073 0.5400549
vn -0.02568085 0.9315876 0.3626089
vn -0.704395 0.6360533 0.3150617
vn -0.9780169 -0.1809362 -0.1036588
vn -0.945388 -0.03956372 -0.323537
g BRM_Head_Jaw_mesh_0
f 3/3/3 2/2/2 1/1/1
f 3/3/3 1/1/1 4/4/4
f 4/4/4 1/1/1 5/5/5
f 4/4/4 5/5/5 6/6/6
f 6/6/6 5/5/5 7/7/7
f 6/6/6 7/7/7 8/8/8
f 8/8/8 7/7/7 9/9/9
f 8/8/8 9/9/9 10/10/10
f 10/10/10 9/9/9 11/11/11
f 10/10/10 11/11/11 12/12/12
f 12/12/12 11/11/11 13/13/13
f 12/12/12 13/13/13 14/14/14
f 14/14/14 13/13/13 15/15/15
f 16/16/16 11/11/11 9/9/9
f 16/16/16 9/9/9 17/17/17
f 17/17/17 9/9/9 18/18/18
f 19/19/19 11/11/11 16/16/16
f 19/19/19 13/13/13 11/11/11
f 20/20/20 13/13/13 19/19/19
f 20/20/20 15/15/15 13/13/13
f 21/21/21 15/15/15 20/20/20
f 22/22/22 16/16/16 17/17/17
f 22/22/22 17/17/17 23/23/23
f 23/23/23 17/17/17 24/24/24
f 17/17/17 25/25/25 24/24/24
f 24/24/24 25/25/25 26/26/26
f 24/24/24 26/26/26 27/27/27
f 28/28/28 24/24/24 27/27/27
f 23/23/23 24/24/24 28/28/28
f 28/28/28 27/27/27 29/29/29
f 29/29/29 27/27/27 30/30/30
f 27/27/27 31/31/31 30/30/30
f 27/27/27 26/26/26 31/31/31
f 30/30/30 31/31/31 32/32/32
f 33/33/33 20/20/20 19/19/19
f 33/33/33 19/19/19 34/34/34
f 34/34/34 16/16/16 22/22/22
f 34/34/34 19/19/19 16/16/16
f 35/35/35 34/34/34 22/22/22
f 35/35/35 22/22/22 36/36/36
f 37/37/37 34/34/34 35/35/35
f 37/37/37 33/33/33 34/34/34
f 38/38/38 33/33/33 37/37/37
f 38/38/38 39/39/39 33/33/33
f 39/39/39 20/20/20 33/33/33
f 39/39/39 21/21/21 20/20/20
f 40/40/40 21/21/21 39/39/39
f 40/40/40 41/41/41 21/21/21
f 41/41/41 42/42/42 21/21/21
f 21/21/21 42/42/42 43/43/43
f 44/44/44 41/41/41 40/40/40
f 44/44/44 45/45/45 41/41/41
f 45/45/45 46/46/46 41/41/41
f 41/41/41 46/46/46 47/47/47
f 45/45/45 48/48/48 46/46/46
f 49/49/49 48/48/48 45/45/45
f 50/50/50 45/45/45 44/44/44
f 50/50/50 49/49/49 45/45/45
f 51/51/51 49/49/49 50/50/50
f 52/52/52 39/39/39 38/38/38
f 52/52/52 40/40/40 39/39/39
f 53/53/53 40/40/40 52/52/52
f 53/53/53 44/44/44 40/40/40
f 54/54/54 44/44/44 53/53/53
f 54/54/54 50/50/50 44/44/44
f 55/55/55 50/50/50 54/54/54
f 55/55/55 51/51/51 50/50/50
f 56/56/56 51/51/51 55/55/55
f 59/59/59 58/58/58 57/57/57
f 62/62/62 61/61/61 60/60/60
f 60/60/60 61/61/61 63/63/63
f 60/60/60 63/63/63 64/64/64
f 67/67/67 66/66/66 65/65/65
f 67/67/67 65/65/65 68/68/68
f 68/68/68 65/65/65 69/69/69
f 72/72/72 71/71/71 70/70/70
f 73/73/73 71/71/71 72/72/72
f 72/72/72 70/70/70 74/74/74
f 74/74/74 70/70/70 75/75/75
f 76/76/76 73/73/73 72/72/72
f 77/77/77 73/73/73 76/76/76
f 77/77/77 78/78/78 73/73/73
f 78/78/78 79/79/79 73/73/73
f 73/73/73 79/79/79 71/71/71
f 78/78/78 80/80/80 79/79/79
f 81/81/81 80/80/80 78/78/78
f 81/81/81 82/82/82 80/80/80
f 83/83/83 82/82/82 81/81/81
f 83/83/83 84/84/84 82/82/82
f 85/85/85 84/84/84 83/83/83
f 85/85/85 86/86/86 84/84/84
f 87/87/87 86/86/86 85/85/85
f 87/87/87 88/88/88 86/86/86
f 89/89/89 88/88/88 87/87/87
f 89/89/89 90/90/90 88/88/88
f 91/91/91 90/90/90 89/89/89
f 92/92/92 91/91/91 89/89/89
f 93/93/93 91/91/91 92/92/92
f 93/93/93 94/94/94 91/91/91
f 94/94/94 95/95/95 91/91/91
f 91/91/91 95/95/95 96/96/96
f 97/97/97 94/94/94 93/93/93
f 98/98/98 89/89/89 87/87/87
f 92/92/92 89/89/89 98/98/98
f 99/99/99 87/87/87 85/85/85
f 98/98/98 87/87/87 99/99/99
f 99/99/99 85/85/85 100/100/100
f 100/100/100 85/85/85 83/83/83
f 100/100/100 83/83/83 101/101/101
f 101/101/101 83/83/83 81/81/81
f 101/101/101 81/81/81 102/102/102
f 102/102/102 81/81/81 78/78/78
f 102/102/102 78/78/78 77/77/77
f 103/103/103 97/97/97 93/93/93
f 104/104/104 97/97/97 103/103/103
f 77/77/77 105/105/105 102/102/102
f 77/77/77 103/103/103 105/105/105
f 103/103/103 93/93/93 105/105/105
f 105/105/105 93/93/93 92/92/92
f 106/106/106 92/92/92 98/98/98
f 105/105/105 92/92/92 106/106/106
f 106/106/106 99/99/99 100/100/100
f 98/98/98 99/99/99 106/106/106
f 101/101/101 106/106/106 100/100/100
f 102/102/102 106/106/106 101/101/101
f 102/102/102 105/105/105 106/106/106
f 76/76/76 103/103/103 77/77/77
f 76/76/76 104/104/104 103/103/103
f 107/107/107 104/104/104 76/76/76
f 76/76/76 72/72/72 107/107/107
f 107/107/107 72/72/72 74/74/74
f 36/36/36 23/23/23 108/108/108
f 108/108/108 23/23/23 28/28/28
f 108/108/108 28/28/28 109/109/109
f 109/109/109 28/28/28 29/29/29
f 36/36/36 22/22/22 23/23/23
