g Cube
v 1201.779 -141.9607 -264.5797
v 1375.143 -141.9607 -346.1602
v 1375.143 35.67773 -346.1602
v 1361.295 49.63926 -339.6439
v 1228.77 49.63926 -277.281
v 1201.779 30.72709 -264.5797
v 1294.372 15.86241 -111.0096
v 1283.359 -141.9607 -91.21543
v 1201.779 -141.9607 -264.5797
v 1201.779 30.72709 -264.5797
v 1274.899 49.63926 -109.1943
v 1211.643 49.63926 -243.6179
v 1375.143 35.67773 -346.1602
v 1375.143 -141.9607 -346.1602
v 1456.723 -141.9607 -172.7959
v 1455.746 33.61947 -174.872
v 1451.138 49.63926 -184.6646
v 1380.968 49.63926 -333.7819
v 1455.746 33.61947 -174.872
v 1456.723 -141.9607 -172.7959
v 1283.359 -141.9607 -91.21543
v 1441.025 49.63926 -167.9445
v 1294.372 15.86241 -111.0096
v 1296.255 49.63926 -105.3634
v 1228.77 49.63926 -277.281
v 1361.295 49.63926 -339.6439
v 1380.968 49.63926 -333.7819
v 1451.138 49.63926 -184.6646
v 1211.643 49.63926 -243.6179
v 1274.899 49.63926 -109.1943
v 1441.025 49.63926 -167.9445
v 1296.255 49.63926 -105.3634
v 1228.77 49.63926 -277.281
v 1211.643 49.63926 -243.6179
v 1201.779 30.72709 -264.5797
v 1375.143 -141.9607 -346.1602
v 1201.779 -141.9607 -264.5797
v 1283.359 -141.9607 -91.21543
v 1456.723 -141.9607 -172.7959
v 1380.968 49.63926 -333.7819
v 1361.295 49.63926 -339.6439
v 1375.143 35.67773 -346.1602
v 1274.899 49.63926 -109.1943
v 1296.255 49.63926 -105.3634
v 1294.372 15.86241 -111.0096
v 1441.025 49.63926 -167.9445
v 1451.138 49.63926 -184.6646
v 1455.746 33.61947 -174.872
vt 0.756667 0.553333
vt 0.423333 0.553333
vt 0.423333 0.886667
vt 0.449959 0.886667
vt 0.70477 0.886667
vt 0.756667 0.886667
vt 0.756667 0.886667
vt 0.756667 0.553333
vt 0.423333 0.553333
vt 0.423333 0.886667
vt 0.722098 0.886667
vt 0.463637 0.886667
vt 0.756667 0.886667
vt 0.756667 0.553333
vt 0.423333 0.553333
vt 0.423333 0.886667
vt 0.446154 0.886667
vt 0.732866 0.886667
vt 0.756667 0.886667
vt 0.756667 0.553333
vt 0.423333 0.553333
vt 0.728361 0.886667
vt 0.423333 0.886667
vt 0.454114 0.886667
vt 0.47523 0.886667
vt 0.730041 0.886667
vt 0.756667 0.862866
vt 0.756667 0.576154
vt 0.423333 0.846363
vt 0.423333 0.587902
vt 0.728361 0.553333
vt 0.454114 0.553333
vt 0.47523 0.886667
vt 0.423333 0.846363
vt 0.423333 0.886667
vt 0.756667 0.553333
vt 0.423333 0.553333
vt 0.423333 0.886667
vt 0.756667 0.886667
vt 0.756667 0.862866
vt 0.730041 0.886667
vt 0.756667 0.886667
vt 0.423333 0.587902
vt 0.454114 0.553333
vt 0.423333 0.553333
vt 0.728361 0.553333
vt 0.756667 0.576154
vt 0.756667 0.553333
vn -0.4257856 0 -0.9048241
vn -0.4257856 0 -0.9048241
vn -0.2281528 0.2167315 -0.9491963
vn -0.2281528 0.2167315 -0.9491963
vn -0.5533823 0.2578708 -0.7920042
vn -0.6022301 0.3926885 -0.6950645
vn -0.7496082 -0.1404548 0.6468075
vn -0.8987415 0.1157582 0.4229229
vn -0.8801969 0.05805294 0.4710449
vn -0.8692303 -0.160963 0.4674714
vn -0.694009 -0.2329697 0.6812317
vn -0.9048241 0 0.4257855
vn 0.8340769 0.1277991 -0.5366406
vn 0.9048243 0 -0.4257853
vn 0.9048243 0 -0.4257852
vn 0.9048243 0 -0.4257853
vn 0.9048242 0 -0.4257854
vn 0.6473534 0.3363264 -0.6839724
vn 0.5692974 0.1810007 0.8019597
vn 0.4257493 0.01306646 0.9047468
vn 0.4002568 0.03767373 0.9156283
vn 0.5101135 0.111425 0.8528591
vn 0.1939634 -0.08077671 0.9776775
vn 0.1128425 -0.1699383 0.9789727
vn -0.1701556 0.9816071 -0.08657108
vn 0.129312 0.8915987 -0.4339704
vn 0.08499857 0.9546753 -0.2852547
vn 0 1 0
vn -0.2296334 0.9662395 -0.116832
vn 0 1 0
vn 0 1 0
vn 0 1 0
vn -0.3300208 0.8173081 -0.4723279
vn -0.2296334 0.9662395 -0.116832
vn -0.6022301 0.3926885 -0.6950645
vn 0 -1 0
vn 0 -1 0
vn 0 -1 0
vn 0 -1 0
vn 0.3696268 0.843124 -0.3905355
vn -0.2005477 0.5134609 -0.8343492
vn 0.569553 0.1120535 -0.814281
vn -0.694009 -0.2329697 0.6812317
vn 0.1128425 -0.1699383 0.9789727
vn -0.4239368 -0.1259999 0.8968844
vn 0.5101135 0.111425 0.8528591
vn 0.7457688 0.4902569 0.4510842
vn 0.5692974 0.1810007 0.8019597
g Cube_0
f 3/3/3 2/2/2 1/1/1
f 1/1/1 4/4/4 3/3/3
f 1/1/1 5/5/5 4/4/4
f 1/1/1 6/6/6 5/5/5
f 9/9/9 8/8/8 7/7/7
f 7/7/7 10/10/10 9/9/9
f 7/7/7 11/11/11 10/10/10
f 11/11/11 12/12/12 10/10/10
f 15/15/15 14/14/14 13/13/13
f 13/13/13 16/16/16 15/15/15
f 13/13/13 17/17/17 16/16/16
f 13/13/13 18/18/18 17/17/17
f 21/21/21 20/20/20 19/19/19
f 19/19/19 22/22/22 21/21/21
f 22/22/22 23/23/23 21/21/21
f 22/22/22 24/24/24 23/23/23
f 27/27/27 26/26/26 25/25/25
f 25/25/25 28/28/28 27/27/27
f 25/25/25 29/29/29 28/28/28
f 29/29/29 30/30/30 28/28/28
f 30/30/30 31/31/31 28/28/28
f 30/30/30 32/32/32 31/31/31
f 35/35/35 34/34/34 33/33/33
f 38/38/38 37/37/37 36/36/36
f 39/39/39 38/38/38 36/36/36
f 42/42/42 41/41/41 40/40/40
f 45/45/45 44/44/44 43/43/43
f 48/48/48 47/47/47 46/46/46
