g EnemyTray
v 932.9453 67.61237 -965.5433
v 913.1826 67.61237 -969.6722
v 923.5117 67.61237 -976.8041
v 911.4699 85.04536 -985.4389
v 896.8148 85.04536 -978.121
v 916.418 67.61237 -857.5096
v 916.418 67.61237 -857.5096
v 896.9568 85.04536 -865.6138
v 897.1601 85.04536 -862.9178
v 944.3062 67.61237 -877.6345
v 969.0831 67.61237 -935.3865
v 981.1297 67.61237 -897.5962
v 1021.231 67.61237 -936.5682
v 1030.049 67.61237 -916.3393
v 1070.701 67.61237 -925.9207
v 1049.712 67.61237 -941.4895
v 1077.729 67.61237 -948.3895
v 1092.15 67.61237 -929.7757
v 1071.086 67.61237 -971.632
v 1041.361 67.61237 -965.3546
v 1015.291 67.61237 -958.8548
v 1011.032 67.61237 -977.0519
v 1037.313 67.61237 -985.5932
v 1068.317 67.61237 -992.0908
v 1035.424 67.61237 -1004.213
v 1068.866 67.61237 -1011.508
v 1038.932 67.61237 -1022.832
v 1074.682 67.61237 -1032.109
v 1043.719 67.61237 -1034.552
v 1081.278 67.61237 -1045.254
v 1002.598 67.61237 -1022.023
v 1004.063 67.61237 -1013.446
v 1006.773 67.61237 -997.1851
v 956.6577 67.61237 -1007.566
v 957.4377 67.61237 -999.0857
v 936.0971 67.61237 -1000.499
v 943.1358 67.61237 -993.9586
v 1057.492 85.04536 -1056.31
v 1094.888 81.36352 -1063.858
v 1008.224 85.04536 -1041.466
v 952.0454 85.04536 -1026.191
v 928.637 85.04536 -1017.78
v 928.0657 67.61237 -993.7523
v 917.2675 85.04536 -1009.252
v 924.8726 67.61237 -987.3374
v 913.1531 85.04536 -998.6228
v 912.6965 85.04536 -987.3549
v 924.5604 67.61237 -978.7178
v 937.5491 67.61237 -988.7817
v 933.838 67.61237 -982.5967
v 958.3123 67.61237 -989.0909
v 959.8868 67.61237 -978.0806
v 962.803 67.61237 -964.2388
v 910.0926 86.53985 -988.868
v 908.92 86.53985 -987.0214
v 908.92 86.53985 -987.0214
v 907.9764 85.04536 -990.0979
v 906.8477 85.04536 -988.3077
v 903.6461 70.39658 -993.2504
v 902.5173 70.39658 -991.4601
v 891.088 85.04536 -979.9792
v 885.0016 70.39658 -982.0233
v 904.1393 70.39658 -1005.422
v 908.4697 85.04536 -1002.269
v 910.5695 86.53985 -1000.634
v 910.0926 86.53985 -988.868
v 907.7191 70.39658 -1017.34
v 912.8428 85.04536 -1013.567
v 910.5695 86.53985 -1000.634
v 914.8267 86.53985 -1011.633
v 924.9278 85.04536 -1022.631
v 926.5908 86.53985 -1020.456
v 949.809 85.04536 -1031.572
v 950.8116 86.53985 -1029.159
v 1009.522 85.04536 -1047.808
v 1008.94 86.53985 -1044.965
v 1061.89 85.04536 -1063.585
v 1059.918 86.53985 -1060.323
v 1095.161 84.35748 -1074.786
v 1095.546 85.85197 -1072.284
v 1111.099 85.38344 -1078.188
v 1117.437 83.88894 -1083.003
v 1121.512 85.15996 -1082.095
v 1125.41 83.66312 -1085.625
v 1067.696 70.39658 -1073.084
v 1092.322 69.7087 -1081.865
v 1121.58 69.24016 -1090.857
v 1125.979 69.01434 -1092.137
v 1130.307 69.89002 -1092.636
v 1128.323 84.5388 -1085.899
v 1124.57 85.12354 -1082.324
v 1134.569 68.24885 -1092.327
v 1130.555 82.89763 -1085.746
v 910.5695 86.53985 -1000.634
v 910.0926 86.53985 -988.868
v 1011.952 70.39658 -1056.666
v 946.5743 70.39658 -1039.076
v 920.1277 70.39658 -1028.794
v 1114.484 83.66835 -1076.9
v 1117.864 84.5388 -1077.124
v 1103.263 84.5414 -1064.346
v 1121.512 85.15996 -1082.095
v 1124.57 85.12354 -1082.324
v 1125.41 83.66312 -1085.625
v 1124.57 85.12354 -1082.324
v 1101.48 83.75147 -1065.078
v 1102.822 83.83447 -1072.129
v 1114.484 83.66835 -1076.9
v 1090.969 84.54436 -1046.088
v 1094.888 81.36352 -1063.858
v 1088.593 82.90319 -1046.251
v 1094.888 81.36352 -1063.858
v 1090.969 84.54436 -1046.088
v 1086.001 84.54436 -1033.166
v 1083.625 82.90319 -1033.329
v 1081.822 84.54436 -1012.554
v 1081.278 67.61237 -1045.254
v 1074.682 67.61237 -1032.109
v 1079.741 82.90319 -1013.007
v 1094.888 81.36352 -1063.858
v 1081.301 84.54436 -992.9586
v 1078.925 82.90319 -993.1217
v 1074.682 67.61237 -1032.109
v 1082.38 82.90319 -973.8257
v 1089.455 82.90319 -952.0062
v 1102.189 82.90319 -932.5387
v 1092.15 67.61237 -929.7757
v 1084.556 84.54436 -974.1158
v 1091.464 84.54436 -952.3792
v 1104.975 84.54436 -933.8442
v 1109.096 84.54436 -930.2019
v 916.3777 69.46617 -853.1971
v 916.418 67.61237 -857.5096
v 916.3777 69.46617 -853.1971
v 916.2244 67.61237 -848.7535
v 894.8152 85.04536 -860.3894
v 801.4144 85.04536 -860.3895
v 801.4144 86.53985 -862.5877
v 893.1662 86.53986 -862.5877
v 801.4144 67.34686 -848.7469
v 894.5099 86.53985 -863.993
v 893.1662 86.53986 -862.5877
v 891.0828 85.04536 -865.3651
v 894.6135 86.53985 -865.4766
v 891.0828 85.04536 -865.3651
v 891.088 85.04536 -979.9792
v 708.0135 85.04536 -860.3894
v 686.6042 67.61237 -848.7535
v 705.6686 85.04536 -862.9178
v 686.451 69.46617 -853.1971
v 709.6625 86.53986 -862.5877
v 708.3188 86.53985 -863.993
v 708.2152 86.53985 -865.4766
v 711.7458 85.04536 -865.3651
v 711.7407 85.04536 -979.9792
v 709.6625 86.53986 -862.5877
v 711.7458 85.04536 -865.3651
v 893.6556 86.53985 -979.1461
v 894.6135 86.53985 -865.4766
v 708.2152 86.53985 -865.4766
v 709.1731 86.53985 -979.1461
v 686.4106 67.61237 -857.5096
v 686.451 69.46617 -853.1971
v 705.8719 85.04536 -865.6138
v 686.4106 67.61237 -857.5096
v 706.0139 85.04536 -978.121
v 689.6462 67.61237 -969.6722
v 691.3588 85.04536 -985.4389
v 679.317 67.61237 -976.8041
v 669.8834 67.61237 -965.5433
v 686.4106 67.61237 -857.5096
v 658.5225 67.61237 -877.6345
v 633.7457 67.61237 -935.3865
v 621.699 67.61237 -897.5962
v 581.598 67.61237 -936.5682
v 572.7794 67.61237 -916.3393
v 531.3571 67.61237 -927.0229
v 553.1165 67.61237 -941.4895
v 525.0994 67.61237 -948.3895
v 531.7429 67.61237 -971.632
v 561.4679 67.61237 -965.3546
v 565.5157 67.61237 -985.5932
v 534.5123 67.61237 -992.0908
v 567.4047 67.61237 -1004.213
v 533.9626 67.61237 -1011.508
v 563.8966 67.61237 -1022.832
v 528.1464 67.61237 -1032.109
v 559.1099 67.61237 -1034.552
v 600.231 67.61237 -1022.023
v 598.7657 67.61237 -1013.446
v 646.171 67.61237 -1007.566
v 645.3909 67.61237 -999.0857
v 666.7316 67.61237 -1000.499
v 650.7833 85.04536 -1026.191
v 674.1917 85.04536 -1017.78
v 652.0171 86.53985 -1029.159
v 593.8886 86.53985 -1044.965
v 593.3066 85.04536 -1047.808
v 653.0198 85.04536 -1031.572
v 676.2379 86.53985 -1020.456
v 677.9009 85.04536 -1022.631
v 688.0021 86.53985 -1011.633
v 689.9859 85.04536 -1013.567
v 692.2593 86.53985 -1000.634
v 694.3591 85.04536 -1002.269
v 540.9387 85.04536 -1063.585
v 542.9105 86.53985 -1060.323
v 507.668 84.35748 -1074.786
v 507.2827 85.85197 -1072.284
v 491.73 85.38344 -1078.188
v 485.3918 83.88894 -1083.003
v 481.317 85.15996 -1082.095
v 477.4185 83.66312 -1085.625
v 689.6756 85.04536 -998.6228
v 685.5612 85.04536 -1009.252
v 677.9562 67.61237 -987.3374
v 674.7631 67.61237 -993.7523
v 659.6929 67.61237 -993.9586
v 644.5164 67.61237 -989.0909
v 596.0555 67.61237 -997.1851
v 642.942 67.61237 -978.0806
v 591.7966 67.61237 -977.0519
v 587.5377 67.61237 -958.8548
v 640.0258 67.61237 -964.2388
v 668.9908 67.61237 -982.5967
v 678.2682 67.61237 -978.7178
v 690.1322 85.04536 -987.3549
v 665.2797 67.61237 -988.7817
v 692.736 86.53985 -988.868
v 693.9087 86.53985 -987.0214
v 692.2593 86.53985 -1000.634
v 692.736 86.53985 -988.868
v 694.8523 85.04536 -990.0979
v 693.9087 86.53985 -987.0214
v 695.9811 85.04536 -988.3077
v 699.1827 70.39658 -993.2502
v 700.3115 70.39658 -991.4601
v 711.7407 85.04536 -979.9792
v 717.827 70.39658 -982.0233
v 698.6895 70.39658 -1005.422
v 692.2593 86.53985 -1000.634
v 692.736 86.53985 -988.868
v 695.1097 70.39658 -1017.34
v 682.701 70.39658 -1028.794
v 656.2545 70.39658 -1039.076
v 590.8768 70.39658 -1056.666
v 535.1332 70.39658 -1073.084
v 510.5068 69.7087 -1081.865
v 481.2492 69.24016 -1090.857
v 476.8496 69.01434 -1092.137
v 472.5219 69.89002 -1092.636
v 474.5052 84.53881 -1085.899
v 478.2586 85.12354 -1082.324
v 468.2599 68.24885 -1092.327
v 472.2735 82.89763 -1085.746
v 484.9644 84.53881 -1077.124
v 488.3452 83.66835 -1076.9
v 499.5657 84.5414 -1064.346
v 501.3484 83.75147 -1065.078
v 511.86 84.54436 -1046.088
v 500.0071 83.83447 -1072.129
v 507.9406 81.36352 -1063.858
v 488.3452 83.66835 -1076.9
v 511.86 84.54436 -1046.088
v 514.2358 82.90319 -1046.251
v 516.8275 84.54436 -1033.166
v 507.9406 81.36352 -1063.858
v 519.2033 82.90319 -1033.329
v 521.5504 67.61237 -1045.254
v 528.1464 67.61237 -1032.109
v 523.0876 82.90319 -1013.007
v 507.9406 81.36352 -1063.858
v 521.0068 84.54436 -1012.554
v 521.5278 84.54436 -992.9586
v 523.9036 82.90319 -993.1217
v 528.1464 67.61237 -1032.109
v 520.4487 82.90319 -973.8257
v 513.3735 82.90319 -952.0062
v 500.6398 82.90319 -932.5387
v 510.6788 67.61237 -929.7757
v 518.2731 84.54436 -974.1158
v 511.3652 84.54436 -952.3792
v 497.8535 84.54436 -933.8442
v 493.733 84.54436 -930.2019
v 510.6788 67.61237 -929.7757
v 529.3454 69.69839 -924.1521
v 571.762 69.69839 -913.1294
v 620.6943 69.69839 -894.248
v 658.1503 69.69839 -873.8666
v 686.451 69.46617 -853.1971
v 510.6788 67.61237 -929.7757
v 507.3733 70.62752 -926.4534
v 686.4106 67.61237 -857.5096
v 686.451 69.46617 -853.1971
v 916.3777 69.46617 -853.1971
v 916.418 67.61237 -857.5096
v 944.6783 69.69839 -873.8666
v 982.1344 69.69839 -894.248
v 1031.067 69.69839 -913.1294
v 1072.712 69.69839 -923.0498
v 1092.15 67.61237 -929.7757
v 1095.456 70.62752 -926.4534
v 916.3777 69.46617 -853.1971
v 1094.888 81.36352 -1063.858
v 1096.02 84.35748 -1069.206
v 1102.822 83.83447 -1072.129
v 1111.099 85.38344 -1078.188
v 1111.099 85.38344 -1078.188
v 1121.512 85.15996 -1082.095
v 1114.484 83.66835 -1076.9
v 1124.57 85.12354 -1082.324
v 1128.323 84.5388 -1085.899
v 1126.699 83.56195 -1082.131
v 1130.555 82.89763 -1085.746
v 1124.57 85.12354 -1082.324
v 1117.864 84.5388 -1077.124
v 1120.398 82.89763 -1077.087
v 1104.945 82.90033 -1063.665
v 1103.263 84.5414 -1064.346
v 1093.2 82.90319 -1045.935
v 1090.969 84.54436 -1046.088
v 1088.233 82.90319 -1033.013
v 1090.969 84.54436 -1046.088
v 1086.001 84.54436 -1033.166
v 1083.777 82.90319 -1012.128
v 1081.822 84.54436 -1012.554
v 1083.533 82.90319 -992.8055
v 1081.301 84.54436 -992.9586
v 1086.599 82.90319 -974.3883
v 1084.556 84.54436 -974.1158
v 1093.35 82.90319 -952.7294
v 1091.464 84.54436 -952.3792
v 1107.791 82.90319 -934.3447
v 1104.975 84.54436 -933.8442
v 1112.203 82.90319 -930.3057
v 1109.096 84.54436 -930.2019
v 1109.096 84.54436 -930.2019
v 1126.696 74.05177 -916.4822
v 1130.166 72.45612 -917.4277
v 1105.788 82.32577 -930.0916
v 1092.15 67.61237 -929.7757
v 1102.189 82.90319 -932.5387
v 1109.096 84.54436 -930.2019
v 1126.696 74.05177 -916.4822
v 1122.913 72.41982 -918.3777
v 1098.453 67.61237 -923.4343
v 1095.456 70.62752 -926.4534
v 1074.481 67.61237 -920.454
v 1072.712 69.69839 -923.0498
v 1031.067 69.69839 -913.1294
v 1032.144 67.61237 -909.9265
v 982.1344 69.69839 -894.248
v 982.8389 67.61237 -891.1308
v 945.172 67.61237 -870.1369
v 944.6783 69.69839 -873.8666
v 916.3777 69.46617 -853.1971
v 1095.456 70.62752 -926.4534
v 1092.15 67.61237 -929.7757
v 1105.788 82.32577 -930.0916
v 801.4144 85.04536 -865.3651
v 893.1662 86.53986 -862.5877
v 801.4144 86.53985 -862.5877
v 891.0828 85.04536 -865.3651
v 709.6625 86.53986 -862.5877
v 711.7458 85.04536 -865.3651
v 801.4144 70.39658 -872.8695
v 891.0828 85.04536 -865.3651
v 887.8483 70.39658 -872.8695
v 711.7458 85.04536 -865.3651
v 714.9805 70.39658 -872.8695
v 906.8477 85.04536 -988.3077
v 893.6556 86.53985 -979.1461
v 891.088 85.04536 -979.9792
v 908.92 86.53985 -987.0214
v 893.6556 86.53985 -979.1461
v 894.6135 86.53985 -865.4766
v 893.6556 86.53985 -979.1461
v 908.92 86.53985 -987.0214
v 908.92 86.53985 -987.0214
v 896.8148 85.04536 -978.121
v 893.6556 86.53985 -979.1461
v 891.088 85.04536 -979.9792
v 891.0828 85.04536 -865.3651
v 885.0016 70.39658 -982.0233
v 885.0016 70.39658 -982.0233
v 891.0828 85.04536 -865.3651
v 887.8483 70.39658 -872.8695
v 711.7407 85.04536 -979.9792
v 709.1731 86.53985 -979.1461
v 695.9811 85.04536 -988.3077
v 693.9087 86.53985 -987.0214
v 478.2586 85.12354 -1082.324
v 477.4185 83.66312 -1085.625
v 481.317 85.15996 -1082.095
v 478.2586 85.12354 -1082.324
v 476.1292 83.56195 -1082.131
v 474.5052 84.53881 -1085.899
v 478.2586 85.12354 -1082.324
v 472.2735 82.89763 -1085.746
v 482.4305 82.89763 -1077.087
v 484.9644 84.53881 -1077.124
v 497.8835 82.90033 -1063.665
v 499.5657 84.5414 -1064.346
v 509.6283 82.90319 -1045.935
v 511.86 84.54436 -1046.088
v 478.2586 85.12354 -1082.324
v 511.86 84.54436 -1046.088
v 514.5957 82.90319 -1033.013
v 516.8275 84.54436 -1033.166
v 519.0523 82.90319 -1012.128
v 521.0068 84.54436 -1012.554
v 519.296 82.90319 -992.8055
v 521.5278 84.54436 -992.9586
v 516.2294 82.90319 -974.3883
v 518.2731 84.54436 -974.1158
v 509.4786 82.90319 -952.7294
v 511.3652 84.54436 -952.3792
v 495.0384 82.90319 -934.3447
v 497.8535 84.54436 -933.8442
v 490.6262 82.90319 -930.3057
v 493.733 84.54436 -930.2019
v 476.1326 74.05177 -916.4822
v 493.733 84.54436 -930.2019
v 472.6626 72.45612 -917.4277
v 693.9087 86.53985 -987.0214
v 709.1731 86.53985 -979.1461
v 708.2152 86.53985 -865.4766
v 709.1731 86.53985 -979.1461
v 709.1731 86.53985 -979.1461
v 706.0139 85.04536 -978.121
v 693.9087 86.53985 -987.0214
v 521.5504 67.61237 -1045.254
v 545.3365 85.04536 -1056.31
v 507.9406 81.36352 -1063.858
v 594.6047 85.04536 -1041.466
v 506.8087 84.35748 -1069.206
v 507.9406 81.36352 -1063.858
v 500.0071 83.83447 -1072.129
v 491.73 85.38344 -1078.188
v 491.73 85.38344 -1078.188
v 481.317 85.15996 -1082.095
v 488.3452 83.66835 -1076.9
v 500.6398 82.90319 -932.5387
v 510.6788 67.61237 -929.7757
v 497.0403 82.32577 -930.0916
v 493.733 84.54436 -930.2019
v 476.1326 74.05177 -916.4822
v 479.9158 72.41982 -918.3777
v 504.3763 67.61237 -923.4343
v 507.3733 70.62752 -926.4534
v 527.5764 67.61237 -921.5563
v 529.3454 69.69839 -924.1521
v 571.762 69.69839 -913.1294
v 570.6844 67.61237 -909.9265
v 620.6943 69.69839 -894.248
v 619.9898 67.61237 -891.1308
v 657.6567 67.61237 -870.1369
v 658.1503 69.69839 -873.8666
v 686.451 69.46617 -853.1971
v 497.0403 82.32577 -930.0916
v 510.6788 67.61237 -929.7757
v 507.3733 70.62752 -926.4534
v 714.9805 70.39658 -872.8695
v 711.7458 85.04536 -865.3651
v 717.827 70.39658 -982.0233
v 717.827 70.39658 -982.0233
v 711.7458 85.04536 -865.3651
v 711.7407 85.04536 -979.9792
vt 0.692443 0.238922
vt 0.663529 0.232881
vt 0.678641 0.222446
vt 0.661023 0.209813
vt 0.639581 0.22052
vt 0.668262 0.396987
vt 0.668262 0.396987
vt 0.639789 0.385129
vt 0.640086 0.389074
vt 0.709066 0.367542
vt 0.745317 0.283045
vt 0.762942 0.338336
vt 0.821614 0.281316
vt 0.834517 0.310913
vt 0.893994 0.296894
vt 0.863286 0.274115
vt 0.904278 0.26402
vt 0.925376 0.291254
vt 0.894557 0.230014
vt 0.851067 0.239198
vt 0.812924 0.248708
vt 0.806693 0.222084
vt 0.845144 0.209587
vt 0.890506 0.200081
vt 0.842381 0.182344
vt 0.89131 0.171671
vt 0.847513 0.155102
vt 0.899819 0.14153
vt 0.854517 0.137955
vt 0.90947 0.122298
vt 0.794352 0.156286
vt 0.796496 0.168835
vt 0.800462 0.192627
vt 0.727137 0.177438
vt 0.728279 0.189846
vt 0.697055 0.187779
vt 0.707353 0.197348
vt 0.874668 0.106121
vt 0.929383 0.095078
vt 0.802584 0.127839
vt 0.720389 0.150188
vt 0.68614 0.162495
vt 0.685304 0.197649
vt 0.669505 0.174971
vt 0.680632 0.207035
vt 0.663486 0.190524
vt 0.662817 0.20701
vt 0.680175 0.219647
vt 0.699179 0.204922
vt 0.69375 0.213971
vt 0.729558 0.204469
vt 0.731862 0.220579
vt 0.736128 0.240831
vt 0.659008 0.204796
vt 0.657292 0.207497
vt 0.657292 0.207497
vt 0.655911 0.202996
vt 0.65426 0.205615
vt 0.649576 0.198384
vt 0.647924 0.201003
vt 0.631202 0.217801
vt 0.622297 0.21481
vt 0.650297 0.180576
vt 0.656633 0.185188
vt 0.659705 0.18758
vt 0.659008 0.204796
vt 0.655535 0.163138
vt 0.663031 0.168658
vt 0.659705 0.18758
vt 0.665934 0.171489
vt 0.680713 0.155397
vt 0.683146 0.158579
vt 0.717117 0.142316
vt 0.718584 0.145846
vt 0.804483 0.11856
vt 0.803632 0.12272
vt 0.881103 0.095476
vt 0.878218 0.100249
vt 0.929782 0.079089
vt 0.930345 0.082749
vt 0.953101 0.07411
vt 0.962374 0.067067
vt 0.968336 0.068395
vt 0.97404 0.06323
vt 0.889597 0.081579
vt 0.925628 0.068731
vt 0.968435 0.055575
vt 0.974872 0.053702
vt 0.981204 0.052973
vt 0.978302 0.062829
vt 0.972811 0.06806
vt 0.98744 0.053425
vt 0.981568 0.063053
vt 0.659705 0.18758
vt 0.659008 0.204796
vt 0.808038 0.1056
vt 0.712384 0.131336
vt 0.67369 0.146379
vt 0.958053 0.075995
vt 0.962999 0.075668
vt 0.941636 0.094363
vt 0.968336 0.068395
vt 0.972811 0.06806
vt 0.97404 0.06323
vt 0.972811 0.06806
vt 0.939028 0.093292
vt 0.94099 0.082976
vt 0.958053 0.075995
vt 0.923648 0.121076
vt 0.929383 0.095078
vt 0.920172 0.120838
vt 0.929383 0.095078
vt 0.923648 0.121076
vt 0.91638 0.139983
vt 0.912904 0.139744
vt 0.910266 0.170141
vt 0.90947 0.122298
vt 0.899819 0.14153
vt 0.907221 0.169478
vt 0.929383 0.095078
vt 0.909503 0.198811
vt 0.906027 0.198572
vt 0.899819 0.14153
vt 0.911082 0.226804
vt 0.921434 0.258728
vt 0.940065 0.287211
vt 0.925376 0.291254
vt 0.914265 0.22638
vt 0.924372 0.258183
vt 0.944141 0.285301
vt 0.95017 0.29063
vt 0.668203 0.403296
vt 0.668262 0.396987
vt 0.668203 0.403296
vt 0.667979 0.409798
vt 0.636655 0.392773
vt 0.5 0.392773
vt 0.5 0.389557
vt 0.634243 0.389557
vt 0.5 0.409807
vt 0.636209 0.387501
vt 0.634243 0.389557
vt 0.631194 0.385493
vt 0.63636 0.38533
vt 0.631194 0.385493
vt 0.631202 0.217801
vt 0.363345 0.392773
vt 0.332021 0.409798
vt 0.359914 0.389074
vt 0.331797 0.403296
vt 0.365758 0.389557
vt 0.363791 0.387501
vt 0.36364 0.38533
vt 0.368806 0.385493
vt 0.368798 0.217801
vt 0.365758 0.389557
vt 0.368806 0.385493
vt 0.634959 0.21902
vt 0.63636 0.38533
vt 0.36364 0.38533
vt 0.365041 0.21902
vt 0.331738 0.396987
vt 0.331797 0.403296
vt 0.360212 0.385129
vt 0.331738 0.396987
vt 0.360419 0.22052
vt 0.336471 0.232881
vt 0.338977 0.209813
vt 0.321359 0.222446
vt 0.307557 0.238922
vt 0.331738 0.396987
vt 0.290934 0.367542
vt 0.254683 0.283045
vt 0.237058 0.338336
vt 0.178386 0.281316
vt 0.165483 0.310913
vt 0.104878 0.295281
vt 0.136714 0.274115
vt 0.095722 0.26402
vt 0.105443 0.230014
vt 0.148933 0.239198
vt 0.154856 0.209587
vt 0.109494 0.200081
vt 0.157619 0.182344
vt 0.10869 0.171671
vt 0.152487 0.155102
vt 0.100181 0.14153
vt 0.145483 0.137955
vt 0.205648 0.156286
vt 0.203504 0.168835
vt 0.272863 0.177438
vt 0.271721 0.189846
vt 0.302945 0.187779
vt 0.279611 0.150188
vt 0.31386 0.162495
vt 0.281416 0.145846
vt 0.196368 0.12272
vt 0.195517 0.11856
vt 0.282883 0.142316
vt 0.316854 0.158579
vt 0.319287 0.155397
vt 0.334066 0.171489
vt 0.336969 0.168658
vt 0.340295 0.18758
vt 0.343367 0.185188
vt 0.118897 0.095476
vt 0.121782 0.100249
vt 0.070218 0.079089
vt 0.069655 0.082749
vt 0.0469 0.07411
vt 0.037626 0.067067
vt 0.031664 0.068395
vt 0.02596 0.06323
vt 0.336515 0.190524
vt 0.330495 0.174971
vt 0.319368 0.207035
vt 0.314696 0.197649
vt 0.292647 0.197348
vt 0.270442 0.204469
vt 0.199539 0.192627
vt 0.268138 0.220579
vt 0.193307 0.222084
vt 0.187076 0.248708
vt 0.263872 0.240831
vt 0.306251 0.213971
vt 0.319824 0.219647
vt 0.337183 0.20701
vt 0.300821 0.204922
vt 0.340992 0.204796
vt 0.342708 0.207497
vt 0.340295 0.18758
vt 0.340992 0.204796
vt 0.344089 0.202996
vt 0.342708 0.207497
vt 0.34574 0.205615
vt 0.350424 0.198384
vt 0.352076 0.201003
vt 0.368798 0.217801
vt 0.377703 0.21481
vt 0.349703 0.180576
vt 0.340295 0.18758
vt 0.340992 0.204796
vt 0.344465 0.163138
vt 0.32631 0.146379
vt 0.287616 0.131336
vt 0.191962 0.1056
vt 0.110403 0.081579
vt 0.074372 0.068731
vt 0.031565 0.055575
vt 0.025128 0.053702
vt 0.018796 0.052973
vt 0.021698 0.062829
vt 0.027189 0.06806
vt 0.01256 0.053425
vt 0.018433 0.063053
vt 0.037001 0.075668
vt 0.041947 0.075995
vt 0.058364 0.094363
vt 0.060972 0.093292
vt 0.076352 0.121076
vt 0.05901 0.082976
vt 0.070617 0.095078
vt 0.041947 0.075995
vt 0.076352 0.121076
vt 0.079828 0.120838
vt 0.08362 0.139983
vt 0.070617 0.095078
vt 0.087096 0.139744
vt 0.09053 0.122298
vt 0.100181 0.14153
vt 0.092779 0.169478
vt 0.070617 0.095078
vt 0.089735 0.170141
vt 0.090497 0.198811
vt 0.093973 0.198572
vt 0.100181 0.14153
vt 0.088918 0.226804
vt 0.078566 0.258728
vt 0.059936 0.287211
vt 0.074624 0.291254
vt 0.085735 0.22638
vt 0.075628 0.258183
vt 0.055859 0.285301
vt 0.04983 0.29063
vt 0.074624 0.291254
vt 0.101935 0.299482
vt 0.163995 0.315609
vt 0.235588 0.343235
vt 0.29039 0.373055
vt 0.331797 0.403296
vt 0.074624 0.291254
vt 0.069787 0.296115
vt 0.331738 0.396987
vt 0.331797 0.403296
vt 0.668203 0.403296
vt 0.668262 0.396987
vt 0.70961 0.373055
vt 0.764412 0.343235
vt 0.836006 0.315609
vt 0.896937 0.301094
vt 0.925376 0.291254
vt 0.930213 0.296115
vt 0.668203 0.403296
vt 0.929383 0.095078
vt 0.931039 0.087253
vt 0.94099 0.082976
vt 0.953101 0.07411
vt 0.953101 0.07411
vt 0.968336 0.068395
vt 0.958053 0.075995
vt 0.972811 0.06806
vt 0.978302 0.062829
vt 0.975926 0.068342
vt 0.981568 0.063053
vt 0.972811 0.06806
vt 0.962999 0.075668
vt 0.966707 0.075722
vt 0.944097 0.09536
vt 0.941636 0.094363
vt 0.926913 0.121301
vt 0.923648 0.121076
vt 0.919645 0.140207
vt 0.923648 0.121076
vt 0.91638 0.139983
vt 0.913125 0.170764
vt 0.910266 0.170141
vt 0.912769 0.199035
vt 0.909503 0.198811
vt 0.917255 0.225981
vt 0.914265 0.22638
vt 0.927132 0.25767
vt 0.924372 0.258183
vt 0.94826 0.284569
vt 0.944141 0.285301
vt 0.954716 0.290478
vt 0.95017 0.29063
vt 0.95017 0.29063
vt 0.975921 0.310704
vt 0.980998 0.30932
vt 0.945331 0.290792
vt 0.925376 0.291254
vt 0.940065 0.287211
vt 0.95017 0.29063
vt 0.975921 0.310704
vt 0.970386 0.30793
vt 0.934598 0.300532
vt 0.930213 0.296115
vt 0.899525 0.304892
vt 0.896937 0.301094
vt 0.836006 0.315609
vt 0.837582 0.320295
vt 0.764412 0.343235
vt 0.765443 0.347795
vt 0.710333 0.378512
vt 0.70961 0.373055
vt 0.668203 0.403296
vt 0.930213 0.296115
vt 0.925376 0.291254
vt 0.945331 0.290792
vt 0.5 0.385493
vt 0.634243 0.389557
vt 0.5 0.389557
vt 0.631194 0.385493
vt 0.365758 0.389557
vt 0.368806 0.385493
vt 0.5 0.374514
vt 0.631194 0.385493
vt 0.626462 0.374514
vt 0.368806 0.385493
vt 0.373538 0.374514
vt 0.65426 0.205615
vt 0.634959 0.21902
vt 0.631202 0.217801
vt 0.657292 0.207497
vt 0.634959 0.21902
vt 0.63636 0.38533
vt 0.634959 0.21902
vt 0.657292 0.207497
vt 0.657292 0.207497
vt 0.639581 0.22052
vt 0.634959 0.21902
vt 0.631202 0.217801
vt 0.631194 0.385493
vt 0.622297 0.21481
vt 0.622297 0.21481
vt 0.631194 0.385493
vt 0.626462 0.374514
vt 0.368798 0.217801
vt 0.365041 0.21902
vt 0.34574 0.205615
vt 0.342708 0.207497
vt 0.027189 0.06806
vt 0.02596 0.06323
vt 0.031664 0.068395
vt 0.027189 0.06806
vt 0.024074 0.068342
vt 0.021698 0.062829
vt 0.027189 0.06806
vt 0.018433 0.063053
vt 0.033293 0.075722
vt 0.037001 0.075668
vt 0.055903 0.09536
vt 0.058364 0.094363
vt 0.073087 0.121301
vt 0.076352 0.121076
vt 0.027189 0.06806
vt 0.076352 0.121076
vt 0.080354 0.140207
vt 0.08362 0.139983
vt 0.086875 0.170764
vt 0.089735 0.170141
vt 0.087231 0.199035
vt 0.090497 0.198811
vt 0.082745 0.225981
vt 0.085735 0.22638
vt 0.072868 0.25767
vt 0.075628 0.258183
vt 0.05174 0.284569
vt 0.055859 0.285301
vt 0.045285 0.290478
vt 0.04983 0.29063
vt 0.024079 0.310704
vt 0.04983 0.29063
vt 0.019002 0.30932
vt 0.342708 0.207497
vt 0.365041 0.21902
vt 0.36364 0.38533
vt 0.365041 0.21902
vt 0.365041 0.21902
vt 0.360419 0.22052
vt 0.342708 0.207497
vt 0.09053 0.122298
vt 0.125331 0.106121
vt 0.070617 0.095078
vt 0.197416 0.127839
vt 0.068961 0.087253
vt 0.070617 0.095078
vt 0.05901 0.082976
vt 0.0469 0.07411
vt 0.0469 0.07411
vt 0.031664 0.068395
vt 0.041947 0.075995
vt 0.059936 0.287211
vt 0.074624 0.291254
vt 0.054669 0.290792
vt 0.04983 0.29063
vt 0.024079 0.310704
vt 0.029614 0.30793
vt 0.065402 0.300532
vt 0.069787 0.296115
vt 0.099347 0.30328
vt 0.101935 0.299482
vt 0.163995 0.315609
vt 0.162418 0.320295
vt 0.235588 0.343235
vt 0.234557 0.347795
vt 0.289668 0.378512
vt 0.29039 0.373055
vt 0.331797 0.403296
vt 0.054669 0.290792
vt 0.074624 0.291254
vt 0.069787 0.296115
vt 0.373538 0.374514
vt 0.368806 0.385493
vt 0.377703 0.21481
vt 0.377703 0.21481
vt 0.368806 0.385493
vt 0.368798 0.217801
vn 0 1 0
vn 0.3425881 0.8923177 0.293943
vn 0.3891714 0.8657241 0.3147494
vn 0.4131854 0.7868818 0.4583611
vn 0.4709212 0.835618 0.2827997
vn 0.4961036 0.865925 -0.06367864
vn 0.3970011 0.9102699 -0.1174685
vn 0.5731438 0.8192199 -0.01961927
vn 0.5420397 0.832964 0.1111937
vn -0.1458256 0.9647852 -0.2189167
vn 0 1 0
vn -0.1285123 0.9517455 -0.2786846
vn 0 1 0
vn -0.09033615 0.943736 -0.3181221
vn -0.03818387 0.9821522 -0.1841711
vn 0 1 0
vn -0.3903305 0.8943321 0.2186601
vn -0.3850638 0.9148654 -0.1214379
vn -0.366369 0.9260656 0.09042201
vn 0 1 0
vn 0 1 0
vn 0 1 0
vn 0 1 0
vn -0.4547123 0.8896034 0.04292362
vn 0 1 0
vn -0.4607677 0.8859046 -0.05353566
vn 0 1 0
vn -0.2204862 0.9734019 -0.06224708
vn 0.0876544 0.9507504 0.297305
vn 0.1435014 0.8618706 0.4864014
vn 0.1144369 0.9207864 0.3729028
vn 0 1 0
vn 0 1 0
vn 0.109739 0.9287863 0.3539963
vn 0 1 0
vn 0.1608994 0.9319556 0.3249155
vn 0 1 0
vn 0.1825771 0.8016809 0.5691866
vn 0.08804991 0.8914988 0.4443839
vn 0.161996 0.8193128 0.5499854
vn 0.1671337 0.8313427 0.5300335
vn 0.273497 0.8332384 0.4805343
vn 0.2714296 0.9287564 0.252463
vn 0.4551872 0.8254812 0.3337445
vn 0.476467 0.8729089 0.1049248
vn 0.580364 0.8037105 0.1312515
vn 0.6382074 0.7516837 0.1663215
vn 0.3326096 0.9388724 0.08882265
vn 0 1 0
vn 0 1 0
vn 0 1 0
vn 0 1 0
vn 0 1 0
vn 0.05334693 0.9975575 0.04508954
vn -0.05870135 0.9981158 0.01786323
vn -0.1262427 0.9880306 -0.08864725
vn -0.7289275 0.6598207 -0.1824861
vn -0.5419315 0.6186591 -0.5688332
vn -0.8722466 0.3346052 -0.3566867
vn -0.5788196 0.3285376 -0.746345
vn -0.5937679 0.5055739 -0.625967
vn -0.7851034 0.3929935 -0.4787156
vn -0.9452229 0.3046483 -0.1172314
vn -0.800067 0.5720648 -0.1806506
vn -0.3648683 0.9293942 -0.05565479
vn -0.07381773 0.9959848 0.05064894
vn -0.8161694 0.3774628 -0.4374806
vn -0.5786761 0.6871055 -0.4393406
vn -0.1154363 0.9926739 -0.03567783
vn -0.0001615173 0.9982728 -0.05874975
vn -0.3302934 0.7049791 -0.6276231
vn 0.001080603 0.9987025 -0.05091318
vn -0.2114465 0.7007884 -0.6813121
vn -0.006284676 0.9990624 -0.04283591
vn -0.1986707 0.692638 -0.6933847
vn -0.01427311 0.9990494 -0.04118859
vn -0.2189046 0.6846988 -0.6951751
vn -0.005633784 0.9992219 -0.0390371
vn -0.2166048 0.7082079 -0.6719553
vn 0.04282055 0.9972214 0.06096008
vn -0.0815229 0.9551393 -0.2847154
vn -0.2269553 0.6549658 -0.7207711
vn -0.0784504 0.9534006 -0.2913292
vn -0.1994224 0.6658583 -0.7189321
vn -0.2660694 0.4530658 -0.8508458
vn -0.2733667 0.4526969 -0.8487262
vn -0.2680906 0.4155956 -0.8691419
vn -0.2330126 0.3939711 -0.8890961
vn -0.05263779 0.4124309 -0.9094669
vn 0.03488167 0.5763283 -0.8164736
vn -0.1428451 0.9687178 -0.2029314
vn 0.3140625 0.4502135 -0.8358664
vn 0.3957614 0.4643492 -0.7923084
vn 0.09909172 0.9943245 -0.0387232
vn 0.2213907 0.9732968 0.06065811
vn -0.2358882 0.476344 -0.8470261
vn -0.2821314 0.475349 -0.8333338
vn -0.4973629 0.4440285 -0.7452977
vn -0.08970754 0.9959163 0.01016815
vn -0.2568538 0.9309275 -0.2596152
vn -0.2845355 0.9188832 -0.2733005
vn 0.02813667 0.999567 -0.008615627
vn 0.07912511 0.9953865 0.05426646
vn -0.1994224 0.6658583 -0.7189321
vn -0.005449895 0.9968765 -0.07878868
vn -0.3096715 0.9321903 -0.1874163
vn 0.1284377 0.9145692 0.383493
vn -0.1528227 0.9828885 -0.1028367
vn -0.06111832 0.9952832 -0.07533846
vn -0.1871467 0.9556619 0.2273466
vn -0.6430346 0.7119278 -0.2822503
vn -0.2723702 0.9566841 0.1028105
vn -0.4668512 0.8478476 -0.2514046
vn -0.5510141 0.8153112 -0.1779077
vn -0.7286915 0.6449572 -0.2303015
vn -0.5929195 0.8011163 -0.0816036
vn -0.8409223 0.4054846 -0.3583738
vn -0.8269756 0.4951069 -0.2664216
vn -0.7241144 0.6826345 -0.09832741
vn -0.5628473 0.797599 -0.2168841
vn -0.5859047 0.810142 0.01963926
vn -0.707868 0.7048721 0.04558755
vn -0.4766718 0.8655642 -0.1535664
vn -0.6960223 0.6986646 0.1655921
vn -0.6290343 0.7191167 0.2952746
vn -0.5027097 0.6817443 0.5315144
vn -0.5257791 0.7517982 0.3979396
vn -0.579257 0.8048423 0.1291904
vn -0.5738316 0.777371 0.2577041
vn -0.4254647 0.8365771 0.3451355
vn -0.1604248 0.8154716 0.5561203
vn 0.3369395 0.9345726 0.1142181
vn 0.3970011 0.9102699 -0.1174685
vn 0.4656217 0.8533236 0.234596
vn 0.2522126 0.7635082 0.5945116
vn 0.1984084 0.8272885 0.5255738
vn 0 0.6548424 0.7557655
vn 0 0.8269812 0.5622295
vn 0.02224231 0.9729139 0.2300952
vn 0 0.5495798 0.8354412
vn 0.1126328 0.9897605 0.0876807
vn 0.01363042 0.9971117 -0.07471634
vn -0.3375263 0.8357089 -0.4332052
vn 0.05108284 0.9986732 -0.00652029
vn -0.5692781 0.8094233 -0.1440707
vn -0.5729489 0.8064736 -0.1460475
vn -0.1984078 0.8272867 0.5255771
vn -0.252211 0.7635083 0.594512
vn -0.5420371 0.8329658 0.1111929
vn -0.4656216 0.8533238 0.2345954
vn -0.02224615 0.972913 0.2300984
vn -0.1126298 0.9897606 0.08768383
vn -0.05107733 0.9986734 -0.006522757
vn 0.56928 0.8094221 -0.1440695
vn 0.5729536 0.80647 -0.1460485
vn -0.01363277 0.9971117 -0.07471485
vn 0.3375295 0.835708 -0.4332044
vn -0.08956752 0.9867793 -0.1350714
vn -0.2189749 0.9757262 0.002867982
vn 0.2189827 0.9757245 0.002867737
vn 0.08957056 0.9867789 -0.1350726
vn -0.3970011 0.9102697 -0.1174703
vn -0.3369392 0.9345728 0.1142171
vn -0.5731439 0.8192197 -0.01962487
vn -0.4961039 0.8659248 -0.06368008
vn -0.4709215 0.835618 0.2827997
vn -0.3425879 0.8923176 0.2939436
vn -0.413184 0.7868801 0.4583653
vn -0.3891701 0.8657247 0.3147496
vn 0 1 0
vn -0.3970011 0.9102697 -0.1174703
vn 0.1458252 0.9647853 -0.2189161
vn 0 1 0
vn 0.1285123 0.9517455 -0.2786845
vn 0 1 0
vn 0.09457476 0.9439619 -0.3162147
vn 0.03589945 0.9820049 -0.1854116
vn 0 1 0
vn 0.3903304 0.8943326 0.2186581
vn 0.3663684 0.9260659 0.09042264
vn 0 1 0
vn 0 1 0
vn 0.4547106 0.8896043 0.04292389
vn 0 1 0
vn 0.4607676 0.8859046 -0.05353613
vn 0 1 0
vn 0.2204866 0.9734017 -0.06224847
vn -0.08765447 0.9507504 0.297305
vn -0.114437 0.9207864 0.3729028
vn 0 1 0
vn -0.1097391 0.9287863 0.3539962
vn 0 1 0
vn -0.1608991 0.9319556 0.3249156
vn -0.1671337 0.8313429 0.5300332
vn -0.2734964 0.8332388 0.4805338
vn 0.006284659 0.9990624 -0.0428359
vn 0.01427245 0.9990495 -0.04118629
vn 0.1986708 0.6926385 -0.6933845
vn 0.2114466 0.7007882 -0.6813121
vn -0.001079644 0.9987024 -0.05091459
vn 0.3302931 0.7049795 -0.6276228
vn 0.0001633119 0.9982727 -0.05875034
vn 0.5786754 0.6871064 -0.43934
vn 0.1154322 0.9926744 -0.03567709
vn 0.8000674 0.5720649 -0.180648
vn 0.2189039 0.6847008 -0.6951733
vn 0.00563217 0.999222 -0.03903215
vn 0.2166042 0.7082102 -0.6719531
vn -0.04282228 0.997221 0.06096471
vn 0.08152133 0.9551407 -0.2847112
vn 0.2269534 0.6549666 -0.720771
vn 0.07845043 0.953401 -0.2913283
vn 0.1994184 0.665861 -0.7189307
vn -0.5803622 0.8037117 0.1312521
vn -0.4551853 0.8254824 0.3337442
vn -0.476467 0.8729089 0.1049245
vn -0.2714295 0.9287562 0.2524635
vn 0 1 0
vn 0 1 0
vn 0 1 0
vn 0 1 0
vn 0 1 0
vn 0 1 0
vn 0 1 0
vn 0 1 0
vn -0.3326094 0.9388726 0.08882124
vn -0.638211 0.7516809 0.1663206
vn 0 1 0
vn -0.05335759 0.9975568 0.04509174
vn 0.05869839 0.998116 0.01786132
vn -0.09909631 0.9943241 -0.03872425
vn -0.2214013 0.9732944 0.06065905
vn 0.7289227 0.6598246 -0.1824917
vn 0.1262391 0.9880309 -0.08864944
vn 0.5419247 0.6186568 -0.568842
vn 0.8722392 0.3346074 -0.3567026
vn 0.5788131 0.3285368 -0.7463503
vn 0.5937689 0.5055724 -0.6259671
vn 0.7851038 0.3929936 -0.478715
vn 0.9452231 0.3046489 -0.1172282
vn 0.3648667 0.9293949 -0.0556528
vn 0.07380993 0.9959852 0.05065284
vn 0.8161696 0.3774646 -0.4374789
vn 0.4973623 0.4440302 -0.7452973
vn 0.2821312 0.4753492 -0.8333337
vn 0.2358884 0.4763434 -0.8470263
vn 0.2660694 0.453065 -0.8508462
vn 0.2733671 0.452695 -0.8487271
vn 0.2680873 0.4155956 -0.8691431
vn 0.2330093 0.3939694 -0.8890978
vn 0.05262986 0.4124309 -0.9094674
vn -0.03489496 0.5763339 -0.816469
vn 0.1428407 0.9687195 -0.2029261
vn -0.3140744 0.4502141 -0.8358615
vn -0.3957733 0.464349 -0.7923027
vn 0.2568515 0.9309291 -0.2596118
vn 0.08970764 0.9959163 0.01016737
vn 0.2845326 0.9188851 -0.2732975
vn 0.3096677 0.9321921 -0.1874133
vn 0.06111833 0.9952832 -0.07533824
vn -0.128437 0.91457 0.3834913
vn 0.187145 0.9556622 0.2273467
vn 0.1528216 0.9828888 -0.1028351
vn 0.4668437 0.8478525 -0.2514025
vn 0.643029 0.7119329 -0.2822503
vn 0.5510046 0.8153179 -0.1779064
vn 0.272368 0.9566848 0.1028107
vn 0.7286869 0.6449626 -0.2303013
vn 0.8409223 0.405485 -0.3583734
vn 0.8269778 0.4951026 -0.2664224
vn 0.7241107 0.6826386 -0.0983274
vn 0.5628446 0.7976016 -0.2168815
vn 0.5929014 0.8011298 -0.08160261
vn 0.5859035 0.8101428 0.01964163
vn 0.7078683 0.7048717 0.04558896
vn 0.4766739 0.8655629 -0.1535671
vn 0.6960225 0.6986641 0.1655933
vn 0.6290395 0.7191117 0.2952754
vn 0.5027048 0.6817484 0.5315138
vn 0.5257799 0.7517994 0.3979361
vn 0.5792536 0.804845 0.1291892
vn 0.5738442 0.7773597 0.2577108
vn 0.425465 0.8365771 0.3451355
vn 0.1604165 0.8154751 0.5561178
vn 0.3761652 0.9175155 -0.1290935
vn 0.1095283 0.8281424 -0.5497124
vn 0.1687766 0.8528581 -0.4941129
vn 0.2169748 0.8564233 -0.4684667
vn 0.272512 0.8516743 -0.4476474
vn 0.2998153 0.8623207 -0.4080611
vn 0.2516554 0.9215143 -0.2957721
vn 0.471155 0.8337477 -0.2878847
vn -0.1128977 0.9767125 -0.1824466
vn -0.1085248 0.9709671 -0.2131791
vn 0.1085253 0.9709665 -0.2131811
vn 0.1128984 0.9767122 -0.1824481
vn -0.2725135 0.8516727 -0.4476495
vn -0.2169746 0.8564233 -0.4684668
vn -0.1653611 0.8528892 -0.4952127
vn -0.1163127 0.8307038 -0.5444288
vn -0.2637737 0.9210903 -0.2863844
vn -0.48109 0.8319693 -0.2763683
vn -0.2998155 0.8623205 -0.4080613
vn -0.009413417 0.9464881 0.3226014
vn 0.2270189 0.8376794 0.496745
vn 0.1284377 0.9145692 0.383493
vn 0.2378877 0.8251466 0.5123892
vn 0.04536538 0.998847 0.01570141
vn 0.1243409 0.9573675 0.2607429
vn -0.04778433 0.9957188 0.07912511
vn 0.2700136 0.9246141 0.268666
vn 0.5163882 0.7482125 0.4165588
vn 0.4735146 0.7098542 0.5214317
vn 0.5196483 0.7455521 0.4172743
vn 0.3372705 0.8155025 0.4703238
vn 0.4439944 0.6866812 0.5756195
vn 0.4402235 0.6926469 0.5713524
vn 0.4990018 0.7211798 0.4805174
vn 0.5257094 0.7366369 0.4254358
vn 0.5582858 0.7659181 0.3188831
vn 0.5590429 0.785093 0.266646
vn 0.573589 0.7974509 0.1872637
vn 0.3770286 0.9118769 0.162265
vn 0.5915405 0.7909484 0.1564624
vn 0.6165097 0.7826036 0.08629866
vn 0.6195405 0.7833676 0.05004682
vn 0.6102619 0.7918031 -0.02506566
vn 0.6008345 0.7968734 -0.06317256
vn 0.6030834 0.7868909 -0.1307409
vn 0.6125728 0.7732694 -0.1637345
vn 0.593611 0.7569693 -0.2731727
vn 0.5392009 0.7800756 -0.3174026
vn 0.4611526 0.7947247 -0.3946529
vn 0.4122877 0.8171653 -0.4028147
vn 0.4435737 0.8772826 -0.1833512
vn 0.4525485 0.8692696 -0.1989228
vn 0.2075343 0.9782245 -0.002493266
vn 0.4538848 0.8863348 0.09164663
vn 0.439781 0.8913842 0.1096675
vn -0.4439467 0.5135972 0.7342542
vn -0.6502424 0.5787768 0.4921405
vn -0.5027097 0.6817443 0.5315144
vn -0.35341 0.6787834 0.6437038
vn -0.4145562 0.340534 0.8439074
vn -0.390627 0.3374808 0.8564563
vn -0.1648931 0.6018348 0.7814123
vn -0.24538 0.757776 0.604619
vn 0.1005387 0.8039746 0.5861031
vn 0.09592808 0.8067983 0.5829874
vn 0.1503266 0.8394953 0.5221584
vn 0.1708859 0.8457175 0.5055293
vn 0.2260375 0.8438461 0.4866527
vn 0.2351731 0.8314995 0.5032914
vn 0.276914 0.8551521 0.4382165
vn 0.2767565 0.8538165 0.4409119
vn 0.3369395 0.9345726 0.1142181
vn -0.2521251 0.8828576 0.3962266
vn -0.435167 0.8986317 0.05559634
vn -0.4439467 0.5135972 0.7342542
vn 0 0.7699106 -0.6381518
vn 0.01634367 0.9698789 -0.2430385
vn 0 0.8806035 -0.4738537
vn -0.2006789 0.8540019 -0.4800091
vn -0.01634649 0.9698793 -0.2430372
vn 0.2006825 0.8540015 -0.4800083
vn 0 0.4559443 -0.8900083
vn -0.07773814 0.7285998 -0.6805139
vn 0 0.4559443 -0.8900083
vn 0.07774014 0.7286004 -0.680513
vn 0 0.4559443 -0.8900083
vn -0.5419315 0.6186591 -0.5688332
vn -0.02084897 0.9697511 -0.2432035
vn -0.5804338 0.6923383 -0.4286772
vn -0.2145265 0.9487326 -0.2321311
vn 0.1535892 0.9786397 -0.1366556
vn 0.1729771 0.9848878 -0.008641148
vn 0.03035048 0.9929981 -0.1141652
vn -0.008015286 0.9901583 0.139722
vn 0.2847306 0.8748267 0.391927
vn 0.4709212 0.835618 0.2827997
vn 0.1985401 0.9709737 0.1333859
vn -0.5804338 0.6923383 -0.4286772
vn -0.6629204 0.7461137 -0.06205656
vn -0.8899254 0.3369996 -0.3073502
vn -0.9554997 0.2947142 0.01280114
vn -0.7414151 0.6710465 -0.0004938481
vn -0.9788342 0.2030565 0.025527
vn 0.5804372 0.6923356 -0.4286773
vn 0.02085185 0.9697508 -0.2432049
vn 0.5419247 0.6186568 -0.568842
vn 0.2145221 0.948733 -0.2321337
vn 0.005447011 0.9968767 -0.07878569
vn 0.1994184 0.665861 -0.7189307
vn -0.02813548 0.999567 -0.00861711
vn -0.07912683 0.9953864 0.05426745
vn -0.4735205 0.709847 0.5214361
vn -0.5163929 0.748212 0.4165539
vn -0.2700116 0.924616 0.2686617
vn -0.5196604 0.7455455 0.4172709
vn -0.4402412 0.6926144 0.5713781
vn -0.4440058 0.6866617 0.5756341
vn -0.4990193 0.721158 0.4805319
vn -0.5257183 0.7366263 0.4254431
vn -0.5582892 0.7659148 0.318885
vn -0.5590334 0.7851008 0.266643
vn -0.3372682 0.8155064 0.4703186
vn -0.3770205 0.9118807 0.1622623
vn -0.5735738 0.7974622 0.1872624
vn -0.5915384 0.7909495 0.1564645
vn -0.6165263 0.7825902 0.08630181
vn -0.6195673 0.7833463 0.05004929
vn -0.6102811 0.7917883 -0.02506674
vn -0.6008487 0.7968623 -0.06317567
vn -0.6031009 0.7868764 -0.1307474
vn -0.6125814 0.7732622 -0.1637366
vn -0.5936087 0.756973 -0.2731676
vn -0.5391963 0.7800806 -0.3173985
vn -0.4611557 0.7947192 -0.3946604
vn -0.4122953 0.817154 -0.4028298
vn -0.4435782 0.877278 -0.1833622
vn -0.4525511 0.8692666 -0.1989294
vn -0.453888 0.8863336 0.09164269
vn -0.20754 0.9782234 -0.002500682
vn -0.4397835 0.8913833 0.1096643
vn 0.008011853 0.9901586 0.1397197
vn -0.03034811 0.992998 -0.1141662
vn -0.1729728 0.9848887 -0.00864407
vn -0.1535886 0.9786396 -0.1366567
vn -0.198538 0.9709741 0.1333862
vn -0.4709215 0.835618 0.2827997
vn -0.2847265 0.8748256 0.3919325
vn -0.1435015 0.8618705 0.4864017
vn -0.1825774 0.8016804 0.5691872
vn -0.08805033 0.8914988 0.4443839
vn -0.1619961 0.8193126 0.5499856
vn -0.227019 0.8376796 0.4967446
vn 0.009412251 0.946488 0.3226015
vn -0.128437 0.91457 0.3834913
vn -0.2378886 0.8251455 0.5123903
vn -0.04536664 0.998847 0.01570455
vn -0.124339 0.9573688 0.2607391
vn 0.04778508 0.9957189 0.07912315
vn 0.5027048 0.6817484 0.5315138
vn 0.6502443 0.5787776 0.4921369
vn 0.4439443 0.5136006 0.7342533
vn 0.3534015 0.6787888 0.6437027
vn 0.4145529 0.3405389 0.8439071
vn 0.3906244 0.3374838 0.8564562
vn 0.1736796 0.5958455 0.7840941
vn 0.2592335 0.7491349 0.6095858
vn -0.09230983 0.8008862 0.5916589
vn -0.08809993 0.8049225 0.5868032
vn -0.1571939 0.840125 0.5191149
vn -0.1741784 0.8457132 0.5044117
vn -0.2260365 0.8438479 0.48665
vn -0.2351717 0.8315016 0.5032886
vn -0.2769129 0.8551532 0.4382149
vn -0.2767564 0.8538165 0.4409119
vn -0.3369392 0.9345728 0.1142171
vn 0.4439443 0.5136006 0.7342533
vn 0.4282867 0.9022594 0.04998494
vn 0.2603817 0.8785806 0.4003717
vn 0.9788325 0.2030648 0.02552586
vn 0.7414158 0.6710458 -0.0004942727
vn 0.9554985 0.2947184 0.01280056
vn 0.8899243 0.3370025 -0.3073501
vn 0.6629222 0.7461121 -0.06205542
vn 0.5804372 0.6923356 -0.4286773
g EnemyTray_0
f 3/3/3 2/2/2 1/1/1
f 4/4/4 2/2/2 3/3/3
f 5/5/5 2/2/2 4/4/4
f 2/2/2 5/5/5 6/6/6
f 2/2/2 7/7/7 1/1/1
f 6/6/6 5/5/5 8/8/8
f 8/8/8 9/9/9 6/6/6
f 1/1/1 7/7/7 10/10/10
f 1/1/1 10/10/10 11/11/11
f 11/11/11 10/10/10 12/12/12
f 11/11/11 12/12/12 13/13/13
f 13/13/13 12/12/12 14/14/14
f 14/14/14 15/15/15 13/13/13
f 13/13/13 15/15/15 16/16/16
f 15/15/15 17/17/17 16/16/16
f 18/18/18 17/17/17 15/15/15
f 19/19/19 16/16/16 17/17/17
f 20/20/20 16/16/16 19/19/19
f 21/21/21 16/16/16 20/20/20
f 13/13/13 16/16/16 21/21/21
f 21/21/21 11/11/11 13/13/13
f 20/20/20 22/22/22 21/21/21
f 23/23/23 22/22/22 20/20/20
f 19/19/19 23/23/23 20/20/20
f 24/24/24 23/23/23 19/19/19
f 23/23/23 24/24/24 25/25/25
f 25/25/25 24/24/24 26/26/26
f 25/25/25 26/26/26 27/27/27
f 27/27/27 26/26/26 28/28/28
f 27/27/27 28/28/28 29/29/29
f 29/29/29 28/28/28 30/30/30
f 29/29/29 31/31/31 27/27/27
f 27/27/27 31/31/31 32/32/32
f 27/27/27 32/32/32 25/25/25
f 25/25/25 32/32/32 33/33/33
f 23/23/23 33/33/33 22/22/22
f 25/25/25 33/33/33 23/23/23
f 34/34/34 32/32/32 31/31/31
f 35/35/35 32/32/32 34/34/34
f 35/35/35 33/33/33 32/32/32
f 36/36/36 35/35/35 34/34/34
f 37/37/37 35/35/35 36/36/36
f 29/29/29 30/30/30 38/38/38
f 38/38/38 31/31/31 29/29/29
f 30/30/30 39/39/39 38/38/38
f 40/40/40 31/31/31 38/38/38
f 40/40/40 34/34/34 31/31/31
f 41/41/41 34/34/34 40/40/40
f 41/41/41 36/36/36 34/34/34
f 42/42/42 36/36/36 41/41/41
f 42/42/42 43/43/43 36/36/36
f 36/36/36 43/43/43 37/37/37
f 44/44/44 43/43/43 42/42/42
f 44/44/44 45/45/45 43/43/43
f 46/46/46 45/45/45 44/44/44
f 46/46/46 47/47/47 45/45/45
f 45/45/45 47/47/47 48/48/48
f 37/37/37 43/43/43 49/49/49
f 43/43/43 45/45/45 49/49/49
f 49/49/49 45/45/45 50/50/50
f 45/45/45 48/48/48 50/50/50
f 37/37/37 49/49/49 51/51/51
f 35/35/35 37/37/37 51/51/51
f 51/51/51 33/33/33 35/35/35
f 51/51/51 52/52/52 33/33/33
f 51/51/51 49/49/49 52/52/52
f 49/49/49 50/50/50 52/52/52
f 33/33/33 52/52/52 22/22/22
f 52/52/52 53/53/53 22/22/22
f 52/52/52 50/50/50 53/53/53
f 22/22/22 53/53/53 21/21/21
f 53/53/53 11/11/11 21/21/21
f 53/53/53 1/1/1 11/11/11
f 50/50/50 1/1/1 53/53/53
f 50/50/50 48/48/48 1/1/1
f 1/1/1 48/48/48 3/3/3
f 47/47/47 3/3/3 48/48/48
f 4/4/4 3/3/3 47/47/47
f 54/54/54 4/4/4 47/47/47
f 55/55/55 4/4/4 54/54/54
f 57/57/57 56/56/56 54/54/54
f 58/58/58 56/56/56 57/57/57
f 59/59/59 58/58/58 57/57/57
f 60/60/60 58/58/58 59/59/59
f 60/60/60 61/61/61 58/58/58
f 62/62/62 61/61/61 60/60/60
f 59/59/59 57/57/57 63/63/63
f 63/63/63 57/57/57 64/64/64
f 64/64/64 57/57/57 65/65/65
f 65/65/65 57/57/57 66/66/66
f 63/63/63 64/64/64 67/67/67
f 67/67/67 64/64/64 68/68/68
f 64/64/64 69/69/69 68/68/68
f 68/68/68 69/69/69 70/70/70
f 68/68/68 70/70/70 71/71/71
f 71/71/71 70/70/70 72/72/72
f 71/71/71 72/72/72 73/73/73
f 73/73/73 72/72/72 74/74/74
f 73/73/73 74/74/74 75/75/75
f 75/75/75 74/74/74 76/76/76
f 75/75/75 76/76/76 77/77/77
f 77/77/77 76/76/76 78/78/78
f 77/77/77 78/78/78 79/79/79
f 79/79/79 78/78/78 80/80/80
f 81/81/81 79/79/79 80/80/80
f 82/82/82 79/79/79 81/81/81
f 83/83/83 82/82/82 81/81/81
f 84/84/84 82/82/82 83/83/83
f 74/74/74 41/41/41 76/76/76
f 74/74/74 42/42/42 41/41/41
f 72/72/72 42/42/42 74/74/74
f 72/72/72 44/44/44 42/42/42
f 70/70/70 44/44/44 72/72/72
f 70/70/70 46/46/46 44/44/44
f 69/69/69 46/46/46 70/70/70
f 85/85/85 75/75/75 77/77/77
f 85/85/85 77/77/77 86/86/86
f 86/86/86 77/77/77 79/79/79
f 86/86/86 79/79/79 87/87/87
f 87/87/87 79/79/79 82/82/82
f 87/87/87 82/82/82 88/88/88
f 88/88/88 82/82/82 84/84/84
f 88/88/88 84/84/84 89/89/89
f 89/89/89 84/84/84 90/90/90
f 90/90/90 84/84/84 91/91/91
f 89/89/89 90/90/90 92/92/92
f 92/92/92 90/90/90 93/93/93
f 46/46/46 94/94/94 47/47/47
f 47/47/47 94/94/94 95/95/95
f 96/96/96 75/75/75 85/85/85
f 96/96/96 73/73/73 75/75/75
f 97/97/97 73/73/73 96/96/96
f 97/97/97 71/71/71 73/73/73
f 98/98/98 71/71/71 97/97/97
f 98/98/98 68/68/68 71/71/71
f 67/67/67 68/68/68 98/98/98
f 100/100/100 91/91/91 99/99/99
f 100/100/100 99/99/99 101/101/101
f 99/99/99 103/103/103 102/102/102
f 105/105/105 104/104/104 102/102/102
f 99/99/99 107/107/107 106/106/106
f 101/101/101 108/108/108 106/106/106
f 101/101/101 106/106/106 109/109/109
f 106/106/106 107/107/107 110/110/110
f 106/106/106 112/112/112 111/111/111
f 113/113/113 106/106/106 111/111/111
f 113/113/113 111/111/111 114/114/114
f 114/114/114 111/111/111 115/115/115
f 114/114/114 115/115/115 116/116/116
f 111/111/111 117/117/117 115/115/115
f 115/115/115 117/117/117 118/118/118
f 115/115/115 118/118/118 119/119/119
f 116/116/116 115/115/115 119/119/119
f 111/111/111 120/120/120 117/117/117
f 116/116/116 119/119/119 121/121/121
f 121/121/121 119/119/119 122/122/122
f 119/119/119 26/26/26 122/122/122
f 119/119/119 123/123/123 26/26/26
f 122/122/122 26/26/26 24/24/24
f 122/122/122 24/24/24 124/124/124
f 124/124/124 24/24/24 19/19/19
f 124/124/124 19/19/19 125/125/125
f 125/125/125 19/19/19 17/17/17
f 125/125/125 17/17/17 126/126/126
f 126/126/126 17/17/17 127/127/127
f 121/121/121 122/122/122 128/128/128
f 128/128/128 122/122/122 124/124/124
f 128/128/128 124/124/124 129/129/129
f 129/129/129 124/124/124 125/125/125
f 129/129/129 125/125/125 130/130/130
f 130/130/130 125/125/125 126/126/126
f 130/130/130 126/126/126 131/131/131
f 133/133/133 9/9/9 132/132/132
f 9/9/9 135/135/135 134/134/134
f 136/136/136 135/135/135 9/9/9
f 137/137/137 135/135/135 136/136/136
f 137/137/137 136/136/136 138/138/138
f 138/138/138 136/136/136 139/139/139
f 140/140/140 135/135/135 137/137/137
f 141/141/141 136/136/136 9/9/9
f 142/142/142 136/136/136 141/141/141
f 143/143/143 142/142/142 141/141/141
f 9/9/9 144/144/144 141/141/141
f 144/144/144 145/145/145 141/141/141
f 145/145/145 144/144/144 146/146/146
f 138/138/138 147/147/147 137/137/137
f 147/147/147 148/148/148 137/137/137
f 137/137/137 148/148/148 140/140/140
f 149/149/149 148/148/148 147/147/147
f 150/150/150 148/148/148 149/149/149
f 151/151/151 147/147/147 138/138/138
f 149/149/149 147/147/147 152/152/152
f 152/152/152 153/153/153 149/149/149
f 152/152/152 154/154/154 153/153/153
f 155/155/155 153/153/153 154/154/154
f 152/152/152 147/147/147 156/156/156
f 152/152/152 156/156/156 157/157/157
f 146/146/146 159/159/159 158/158/158
f 161/161/161 160/160/160 155/155/155
f 163/163/163 149/149/149 162/162/162
f 165/165/165 149/149/149 164/164/164
f 164/164/164 166/166/166 165/165/165
f 165/165/165 166/166/166 167/167/167
f 168/168/168 167/167/167 166/166/166
f 169/169/169 167/167/167 168/168/168
f 170/170/170 167/167/167 169/169/169
f 170/170/170 171/171/171 167/167/167
f 172/172/172 171/171/171 170/170/170
f 173/173/173 172/172/172 170/170/170
f 174/174/174 172/172/172 173/173/173
f 175/175/175 174/174/174 173/173/173
f 176/176/176 174/174/174 175/175/175
f 175/175/175 177/177/177 176/176/176
f 178/178/178 177/177/177 175/175/175
f 178/178/178 179/179/179 177/177/177
f 179/179/179 178/178/178 180/180/180
f 180/180/180 178/178/178 181/181/181
f 181/181/181 182/182/182 180/180/180
f 180/180/180 182/182/182 183/183/183
f 184/184/184 183/183/183 182/182/182
f 185/185/185 183/183/183 184/184/184
f 186/186/186 185/185/185 184/184/184
f 187/187/187 185/185/185 186/186/186
f 188/188/188 187/187/187 186/186/186
f 186/186/186 189/189/189 188/188/188
f 190/190/190 189/189/189 186/186/186
f 184/184/184 190/190/190 186/186/186
f 189/189/189 190/190/190 191/191/191
f 191/191/191 190/190/190 192/192/192
f 191/191/191 192/192/192 193/193/193
f 191/191/191 193/193/193 194/194/194
f 194/194/194 193/193/193 195/195/195
f 194/194/194 195/195/195 196/196/196
f 197/197/197 194/194/194 196/196/196
f 197/197/197 196/196/196 198/198/198
f 198/198/198 196/196/196 199/199/199
f 196/196/196 200/200/200 199/199/199
f 196/196/196 195/195/195 200/200/200
f 199/199/199 200/200/200 201/201/201
f 200/200/200 202/202/202 201/201/201
f 201/201/201 202/202/202 203/203/203
f 202/202/202 204/204/204 203/203/203
f 203/203/203 204/204/204 205/205/205
f 206/206/206 197/197/197 198/198/198
f 207/207/207 197/197/197 206/206/206
f 208/208/208 207/207/207 206/206/206
f 209/209/209 207/207/207 208/208/208
f 209/209/209 208/208/208 210/210/210
f 210/210/210 208/208/208 211/211/211
f 210/210/210 211/211/211 212/212/212
f 212/212/212 211/211/211 213/213/213
f 202/202/202 214/214/214 204/204/204
f 215/215/215 214/214/214 202/202/202
f 200/200/200 215/215/215 202/202/202
f 215/215/215 216/216/216 214/214/214
f 217/217/217 216/216/216 215/215/215
f 195/195/195 217/217/217 215/215/215
f 193/193/193 217/217/217 195/195/195
f 218/218/218 217/217/217 193/193/193
f 193/193/193 192/192/192 218/218/218
f 219/219/219 218/218/218 192/192/192
f 192/192/192 220/220/220 219/219/219
f 220/220/220 221/221/221 219/219/219
f 222/222/222 221/221/221 220/220/220
f 222/222/222 220/220/220 182/182/182
f 181/181/181 222/222/222 182/182/182
f 223/223/223 222/222/222 181/181/181
f 181/181/181 178/178/178 223/223/223
f 223/223/223 178/178/178 175/175/175
f 175/175/175 173/173/173 223/223/223
f 182/182/182 220/220/220 184/184/184
f 220/220/220 190/190/190 184/184/184
f 190/190/190 220/220/220 192/192/192
f 222/222/222 224/224/224 221/221/221
f 223/223/223 224/224/224 222/222/222
f 223/223/223 173/173/173 224/224/224
f 224/224/224 225/225/225 221/221/221
f 224/224/224 170/170/170 225/225/225
f 173/173/173 170/170/170 224/224/224
f 170/170/170 226/226/226 225/225/225
f 169/169/169 226/226/226 170/170/170
f 225/225/225 226/226/226 216/216/216
f 226/226/226 227/227/227 216/216/216
f 226/226/226 169/169/169 227/227/227
f 216/216/216 227/227/227 214/214/214
f 225/225/225 216/216/216 228/228/228
f 228/228/228 216/216/216 217/217/217
f 228/228/228 217/217/217 218/218/218
f 219/219/219 228/228/228 218/218/218
f 221/221/221 228/228/228 219/219/219
f 221/221/221 225/225/225 228/228/228
f 227/227/227 169/169/169 168/168/168
f 227/227/227 168/168/168 229/229/229
f 229/229/229 168/168/168 230/230/230
f 227/227/227 231/231/231 214/214/214
f 232/232/232 231/231/231 227/227/227
f 229/229/229 234/234/234 233/233/233
f 233/233/233 234/234/234 235/235/235
f 233/233/233 235/235/235 236/236/236
f 236/236/236 235/235/235 237/237/237
f 235/235/235 238/238/238 237/237/237
f 237/237/237 238/238/238 239/239/239
f 240/240/240 233/233/233 236/236/236
f 205/205/205 233/233/233 240/240/240
f 241/241/241 233/233/233 205/205/205
f 242/242/242 233/233/233 241/241/241
f 243/243/243 205/205/205 240/240/240
f 203/203/203 205/205/205 243/243/243
f 244/244/244 203/203/203 243/243/243
f 201/201/201 203/203/203 244/244/244
f 245/245/245 201/201/201 244/244/244
f 199/199/199 201/201/201 245/245/245
f 246/246/246 199/199/199 245/245/245
f 198/198/198 199/199/199 246/246/246
f 247/247/247 198/198/198 246/246/246
f 206/206/206 198/198/198 247/247/247
f 248/248/248 206/206/206 247/247/247
f 208/208/208 206/206/206 248/248/248
f 249/249/249 208/208/208 248/248/248
f 211/211/211 208/208/208 249/249/249
f 250/250/250 211/211/211 249/249/249
f 213/213/213 211/211/211 250/250/250
f 251/251/251 213/213/213 250/250/250
f 252/252/252 213/213/213 251/251/251
f 253/253/253 213/213/213 252/252/252
f 254/254/254 252/252/252 251/251/251
f 255/255/255 252/252/252 254/254/254
f 257/257/257 253/253/253 256/256/256
f 258/258/258 257/257/257 256/256/256
f 260/260/260 259/259/259 258/258/258
f 259/259/259 261/261/261 257/257/257
f 262/262/262 261/261/261 259/259/259
f 259/259/259 263/263/263 258/258/258
f 265/265/265 259/259/259 264/264/264
f 266/266/266 265/265/265 264/264/264
f 265/265/265 267/267/267 259/259/259
f 268/268/268 265/265/265 266/266/266
f 268/268/268 269/269/269 265/265/265
f 270/270/270 269/269/269 268/268/268
f 271/271/271 270/270/270 268/268/268
f 269/269/269 272/272/272 265/265/265
f 273/273/273 268/268/268 266/266/266
f 271/271/271 268/268/268 273/273/273
f 274/274/274 271/271/271 273/273/273
f 275/275/275 271/271/271 274/274/274
f 275/275/275 185/185/185 271/271/271
f 185/185/185 276/276/276 271/271/271
f 183/183/183 185/185/185 275/275/275
f 277/277/277 183/183/183 275/275/275
f 180/180/180 183/183/183 277/277/277
f 278/278/278 180/180/180 277/277/277
f 179/179/179 180/180/180 278/278/278
f 279/279/279 179/179/179 278/278/278
f 280/280/280 179/179/179 279/279/279
f 281/281/281 275/275/275 274/274/274
f 277/277/277 275/275/275 281/281/281
f 282/282/282 277/277/277 281/281/281
f 278/278/278 277/277/277 282/282/282
f 283/283/283 278/278/278 282/282/282
f 279/279/279 278/278/278 283/283/283
f 284/284/284 279/279/279 283/283/283
f 177/177/177 179/179/179 285/285/285
f 177/177/177 286/286/286 176/176/176
f 176/176/176 286/286/286 287/287/287
f 176/176/176 287/287/287 174/174/174
f 174/174/174 287/287/287 288/288/288
f 289/289/289 174/174/174 288/288/288
f 172/172/172 174/174/174 289/289/289
f 289/289/289 290/290/290 172/172/172
f 177/177/177 291/291/291 286/286/286
f 286/286/286 291/291/291 292/292/292
f 172/172/172 294/294/294 293/293/293
f 296/296/296 295/295/295 10/10/10
f 297/297/297 12/12/12 10/10/10
f 298/298/298 12/12/12 297/297/297
f 298/298/298 299/299/299 12/12/12
f 12/12/12 299/299/299 14/14/14
f 299/299/299 300/300/300 14/14/14
f 14/14/14 300/300/300 15/15/15
f 300/300/300 301/301/301 15/15/15
f 302/302/302 301/301/301 300/300/300
f 10/10/10 303/303/303 297/297/297
f 305/305/305 38/38/38 304/304/304
f 306/306/306 305/305/305 304/304/304
f 306/306/306 307/307/307 305/305/305
f 80/80/80 38/38/38 305/305/305
f 305/305/305 308/308/308 80/80/80
f 78/78/78 38/38/38 80/80/80
f 78/78/78 40/40/40 38/38/38
f 76/76/76 40/40/40 78/78/78
f 76/76/76 41/41/41 40/40/40
f 306/306/306 309/309/309 307/307/307
f 310/310/310 309/309/309 306/306/306
f 313/313/313 312/312/312 311/311/311
f 314/314/314 312/312/312 313/313/313
f 316/316/316 313/313/313 315/315/315
f 317/317/317 313/313/313 316/316/316
f 317/317/317 316/316/316 318/318/318
f 318/318/318 316/316/316 319/319/319
f 318/318/318 319/319/319 320/320/320
f 320/320/320 319/319/319 321/321/321
f 320/320/320 323/323/323 322/322/322
f 322/322/322 323/323/323 324/324/324
f 322/322/322 324/324/324 325/325/325
f 325/325/325 324/324/324 326/326/326
f 325/325/325 326/326/326 327/327/327
f 327/327/327 326/326/326 328/328/328
f 327/327/327 328/328/328 329/329/329
f 329/329/329 328/328/328 330/330/330
f 329/329/329 330/330/330 331/331/331
f 331/331/331 330/330/330 332/332/332
f 331/331/331 332/332/332 333/333/333
f 333/333/333 332/332/332 334/334/334
f 333/333/333 334/334/334 335/335/335
f 335/335/335 334/334/334 336/336/336
f 338/338/338 335/335/335 337/337/337
f 339/339/339 335/335/335 338/338/338
f 342/342/342 341/341/341 340/340/340
f 343/343/343 342/342/342 340/340/340
f 340/340/340 344/344/344 343/343/343
f 345/345/345 344/344/344 340/340/340
f 345/345/345 340/340/340 346/346/346
f 346/346/346 340/340/340 347/347/347
f 346/346/346 347/347/347 348/348/348
f 348/348/348 347/347/347 349/349/349
f 350/350/350 348/348/348 349/349/349
f 351/351/351 348/348/348 350/350/350
f 352/352/352 351/351/351 350/350/350
f 353/353/353 351/351/351 352/352/352
f 353/353/353 352/352/352 354/354/354
f 354/354/354 352/352/352 355/355/355
f 134/134/134 354/354/354 355/355/355
f 135/135/135 354/354/354 356/356/356
f 359/359/359 358/358/358 357/357/357
f 362/362/362 361/361/361 360/360/360
f 360/360/360 361/361/361 363/363/363
f 360/360/360 364/364/364 362/362/362
f 365/365/365 364/364/364 360/360/360
f 367/367/367 366/366/366 360/360/360
f 368/368/368 366/366/366 367/367/367
f 360/360/360 366/366/366 369/369/369
f 369/369/369 366/366/366 370/370/370
f 373/373/373 372/372/372 371/371/371
f 371/371/371 372/372/372 374/374/374
f 376/376/376 8/8/8 375/375/375
f 8/8/8 376/376/376 9/9/9
f 377/377/377 8/8/8 5/5/5
f 378/378/378 5/5/5 4/4/4
f 381/381/381 380/380/380 379/379/379
f 384/384/384 383/383/383 382/382/382
f 387/387/387 386/386/386 385/385/385
f 390/390/390 389/389/389 388/388/388
f 391/391/391 389/389/389 390/390/390
f 394/394/394 393/393/393 392/392/392
f 394/394/394 395/395/395 257/257/257
f 398/398/398 397/397/397 396/396/396
f 396/396/396 397/397/397 399/399/399
f 401/401/401 396/396/396 400/400/400
f 402/402/402 401/401/401 400/400/400
f 403/403/403 401/401/401 402/402/402
f 404/404/404 403/403/403 402/402/402
f 405/405/405 403/403/403 404/404/404
f 406/406/406 396/396/396 401/401/401
f 408/408/408 407/407/407 404/404/404
f 409/409/409 407/407/407 408/408/408
f 410/410/410 409/409/409 408/408/408
f 411/411/411 409/409/409 410/410/410
f 412/412/412 411/411/411 410/410/410
f 413/413/413 411/411/411 412/412/412
f 414/414/414 413/413/413 412/412/412
f 415/415/415 413/413/413 414/414/414
f 416/416/416 415/415/415 414/414/414
f 417/417/417 415/415/415 416/416/416
f 418/418/418 417/417/417 416/416/416
f 419/419/419 417/417/417 418/418/418
f 420/420/420 419/419/419 418/418/418
f 421/421/421 419/419/419 420/420/420
f 423/423/423 420/420/420 422/422/422
f 422/422/422 420/420/420 424/424/424
f 168/168/168 166/166/166 425/425/425
f 166/166/166 164/164/164 426/426/426
f 428/428/428 164/164/164 427/427/427
f 149/149/149 427/427/427 164/164/164
f 431/431/431 430/430/430 429/429/429
f 195/195/195 215/215/215 200/200/200
f 432/432/432 187/187/187 188/188/188
f 188/188/188 433/433/433 432/432/432
f 432/432/432 433/433/433 434/434/434
f 188/188/188 189/189/189 433/433/433
f 433/433/433 189/189/189 435/435/435
f 189/189/189 191/191/191 435/435/435
f 435/435/435 191/191/191 194/194/194
f 433/433/433 435/435/435 207/207/207
f 209/209/209 433/433/433 207/207/207
f 436/436/436 433/433/433 209/209/209
f 436/436/436 437/437/437 433/433/433
f 437/437/437 436/436/436 438/438/438
f 436/436/436 439/439/439 438/438/438
f 209/209/209 440/440/440 436/436/436
f 207/207/207 435/435/435 197/197/197
f 435/435/435 194/194/194 197/197/197
f 439/439/439 441/441/441 438/438/438
f 438/438/438 441/441/441 442/442/442
f 445/445/445 444/444/444 443/443/443
f 445/445/445 443/443/443 446/446/446
f 446/446/446 447/447/447 445/445/445
f 445/445/445 447/447/447 448/448/448
f 449/449/449 445/445/445 448/448/448
f 450/450/450 445/445/445 449/449/449
f 451/451/451 450/450/450 449/449/449
f 452/452/452 450/450/450 451/451/451
f 452/452/452 451/451/451 453/453/453
f 453/453/453 451/451/451 454/454/454
f 453/453/453 454/454/454 455/455/455
f 455/455/455 454/454/454 456/456/456
f 457/457/457 455/455/455 456/456/456
f 458/458/458 455/455/455 457/457/457
f 458/458/458 457/457/457 150/150/150
f 459/459/459 457/457/457 148/148/148
f 462/462/462 461/461/461 460/460/460
f 465/465/465 464/464/464 463/463/463
f 468/468/468 467/467/467 466/466/466
