g Frame_EnemyTrayTop_mesh
v 882.6216 42.64795 -1010.546
v 874.4867 42.64795 -1025.559
v 896.4659 36.30796 -1019.4
v 887.5012 36.30796 -1034.751
v 863.1096 42.64795 -1038.923
v 874.8524 36.30796 -1050.47
v 853.6744 42.64795 -1047.36
v 863.7998 36.30796 -1060.417
v 900.3958 37.22192 -1008.716
v 887.4163 42.64795 -1000.757
v 892.1455 42.65532 -988.0641
v 906.1641 39.45123 -992.5452
v 893.8495 42.64795 -981.3482
v 842.7693 42.64795 -1055.565
v 846.9756 38.73367 -1072.206
v 831.0652 42.64795 -1062.756
v 834.3016 40.91539 -1080.024
v 817.0034 36.52495 -1088.319
v 813.4973 42.64795 -1070.062
v 801.7252 36.52495 -1093.777
v 801.7252 42.64795 -1073.051
v 790.1408 42.64795 -1069.874
v 786.4469 36.52495 -1088.319
v 772.7606 42.64795 -1062.381
v 768.8771 40.80069 -1079.976
v 758.1155 39.70925 -1072.714
v 760.8687 42.64795 -1055.378
v 740.5566 36.30796 -1059.537
v 750.1514 42.64795 -1046.984
v 740.9039 42.64795 -1038.548
v 729.4756 36.30796 -1049.257
v 729.5268 42.64795 -1025.184
v 717.0593 36.30796 -1033.37
v 720.863 42.64795 -1011.152
v 707.1999 36.30796 -1018.776
v 715.8806 42.64795 -1001.55
v 702.4084 37.22192 -1008.61
v 697.3632 39.45123 -994.0674
v 710.7564 42.65531 -985.8113
v 710.6334 42.64792 -980.6765
v 696.119 41.46689 -989.2794
v 842.7693 42.64795 -1055.565
v 853.6744 42.64795 -1047.36
v 841.1108 23.78662 -1051.982
v 851.6248 23.78662 -1044.936
v 829.2671 23.78662 -1058.769
v 831.0652 42.64795 -1062.756
v 812.4728 23.78662 -1065.985
v 813.4973 42.64795 -1070.062
v 801.7252 23.78662 -1067.98
v 801.7252 42.64795 -1073.051
v 790.1408 42.64795 -1069.874
v 791.3732 23.78663 -1064.966
v 772.7606 42.64795 -1062.381
v 775.3907 23.78663 -1058.186
v 760.8687 42.64795 -1055.378
v 763.3593 23.78663 -1050.962
v 750.1514 42.64795 -1046.984
v 753.241 23.78663 -1043.521
v 740.9039 42.64795 -1038.548
v 744.1517 23.78663 -1035.475
v 729.5268 42.64795 -1025.184
v 733.1063 23.78663 -1021.966
v 720.863 42.64795 -1011.152
v 724.6952 23.78663 -1008.659
v 715.8806 42.64795 -1001.55
v 720.1658 23.78663 -999.609
v 713.3239 23.78663 -985.3975
v 710.7564 42.65531 -985.8113
v 710.6334 42.64792 -980.6765
v 711.6561 23.09412 -975.4976
v 710.6334 42.64792 -980.6765
v 711.6561 23.09412 -975.4976
v 696.119 41.46689 -989.2794
v 695.9974 21.21228 -985.0347
v 892.1455 42.65532 -988.0641
v 893.8495 42.64795 -981.3482
v 890.2807 23.78662 -984.8395
v 892.5536 23.09414 -976.7556
v 887.4163 42.64795 -1000.757
v 884.587 23.78662 -999.0236
v 880.0374 23.78662 -1008.677
v 882.6216 42.64795 -1010.546
v 871.9473 23.78662 -1023.173
v 874.4867 42.64795 -1025.559
v 860.9017 23.78662 -1036.475
v 863.1096 42.64795 -1038.923
v 907.4236 21.1978 -983.8123
v 892.5536 23.09414 -976.7556
v 907.208 41.46688 -987.8275
v 893.8495 42.64795 -981.3482
v 907.208 41.46688 -987.8275
vt 0.619542 0.127324
vt 0.606788 0.106393
vt 0.63748 0.117103
vt 0.624312 0.094895
vt 0.590708 0.086053
vt 0.606035 0.071509
vt 0.576818 0.072634
vt 0.589723 0.056376
vt 0.643448 0.132552
vt 0.6266 0.141736
vt 0.630702 0.154206
vt 0.649061 0.149385
vt 0.633211 0.164092
vt 0.560766 0.060888
vt 0.565599 0.039962
vt 0.54287 0.050636
vt 0.54759 0.030434
vt 0.52217 0.017654
vt 0.517676 0.038881
vt 0.499679 0.010596
vt 0.499679 0.03448
vt 0.482131 0.039207
vt 0.477189 0.017654
vt 0.456244 0.049802
vt 0.451378 0.030303
vt 0.435484 0.038428
vt 0.438333 0.059434
vt 0.409636 0.056376
vt 0.421652 0.071897
vt 0.407471 0.084976
vt 0.393324 0.071509
vt 0.390502 0.104797
vt 0.375046 0.094895
vt 0.377837 0.125296
vt 0.360533 0.116378
vt 0.371037 0.138265
vt 0.35362 0.131392
vt 0.348099 0.146271
vt 0.364287 0.156675
vt 0.364106 0.164234
vt 0.34615 0.153308
vt 0.560766 0.060888
vt 0.576818 0.072634
vt 0.557657 0.067497
vt 0.573134 0.077869
vt 0.540223 0.057506
vt 0.54287 0.050636
vt 0.5155 0.046883
vt 0.517676 0.038881
vt 0.499679 0.043334
vt 0.499679 0.03448
vt 0.482131 0.039207
vt 0.484163 0.047322
vt 0.456244 0.049802
vt 0.4597 0.058047
vt 0.438333 0.059434
vt 0.442036 0.067785
vt 0.421652 0.071897
vt 0.426787 0.07842
vt 0.407471 0.084976
vt 0.413356 0.090767
vt 0.390502 0.104797
vt 0.39713 0.110437
vt 0.377837 0.125296
vt 0.384439 0.130323
vt 0.371037 0.138265
vt 0.377875 0.143166
vt 0.371402 0.158952
vt 0.364287 0.156675
vt 0.364106 0.164234
vt 0.368947 0.173525
vt 0.364106 0.164234
vt 0.368947 0.173525
vt 0.34615 0.153308
vt 0.345321 0.160606
vt 0.630702 0.154206
vt 0.633211 0.164092
vt 0.627957 0.158952
vt 0.631382 0.170896
vt 0.6266 0.141736
vt 0.622435 0.144287
vt 0.615738 0.130076
vt 0.619542 0.127324
vt 0.60305 0.109905
vt 0.606788 0.106393
vt 0.586791 0.090324
vt 0.590708 0.086053
vt 0.652263 0.161351
vt 0.631382 0.170896
vt 0.651645 0.154902
vt 0.633211 0.164092
vt 0.651645 0.154902
vn 0.308203 0.9358837 -0.1706828
vn 0.3068422 0.9305255 -0.1999259
vn 0.3140344 0.9314904 -0.1835976
vn 0.2947613 0.9303692 -0.2180114
vn 0.2679339 0.9317414 -0.2450908
vn 0.2538334 0.9333299 -0.2538974
vn 0.2318624 0.9334046 -0.2738532
vn 0.2357934 0.9420776 -0.2385188
vn 0.2725276 0.9482339 -0.1630373
vn 0.3111793 0.9408636 -0.1339519
vn 0.2298656 0.9656623 -0.1210701
vn 0.09106477 0.9737491 -0.2086142
vn 0.05532442 0.9745188 -0.2173763
vn 0.1964725 0.9564649 -0.2158085
vn 0.1930119 0.9711491 -0.1400569
vn 0.0673006 0.9825078 -0.1736347
vn 0.01077088 0.9951448 -0.09783006
vn 0.0151793 0.9695003 -0.2446196
vn 0.1002054 0.9512653 -0.2916389
vn -0.001123095 0.9568744 -0.2904999
vn -0.002862934 0.9590197 -0.2833249
vn -0.1025572 0.9518329 -0.2889571
vn -0.02000535 0.9694866 -0.2443265
vn -0.04854108 0.9850509 -0.1652825
vn 0.01161533 0.9941977 -0.1069386
vn -0.1710998 0.9785954 -0.1143499
vn -0.198961 0.9615684 -0.1892112
vn -0.2534088 0.9367386 -0.2414639
vn -0.2407438 0.9279112 -0.2846455
vn -0.2645765 0.9272076 -0.2651138
vn -0.283725 0.9247446 -0.2536682
vn -0.3094728 0.9225993 -0.2302978
vn -0.3181471 0.9223046 -0.2194006
vn -0.3262673 0.9246184 -0.1965462
vn -0.3047424 0.9315462 -0.198378
vn -0.2640097 0.9492937 -0.1707054
vn -0.2620544 0.9392256 -0.2217718
vn -0.1397058 0.9759119 -0.1675653
vn -0.2126499 0.9765362 -0.03401662
vn -0.04933972 0.9814252 -0.1853922
vn 0.1348234 0.9252878 -0.3544929
vn -0.5293924 0.2099133 0.8219977
vn -0.5995141 0.1774357 0.7804483
vn -0.5423898 0.1901554 0.818324
vn -0.6248022 0.1680589 0.7624818
vn -0.4613741 0.218476 0.859885
vn -0.4242673 0.2222872 0.8778301
vn -0.3141282 0.2204897 0.9234217
vn -0.2647859 0.2290421 0.9367114
vn 0.02824984 0.2520116 0.9673118
vn 0.00921308 0.2596281 0.9656647
vn 0.3034943 0.2557819 0.9178599
vn 0.3441259 0.25568 0.9034407
vn 0.4179069 0.2540065 0.8722582
vn 0.4562019 0.2552203 0.8524919
vn 0.5288505 0.2571409 0.8088237
vn 0.5569051 0.2517558 0.7915022
vn 0.6091825 0.2448072 0.7542984
vn 0.625625 0.2358045 0.7436327
vn 0.6814473 0.2334681 0.6936299
vn 0.7138204 0.236293 0.6592618
vn 0.7738187 0.2408207 0.5858412
vn 0.8003496 0.2424433 0.5483263
vn 0.8371202 0.2380216 0.4925193
vn 0.8514808 0.2375055 0.4675166
vn 0.8895377 0.2139662 0.4036597
vn 0.8710065 0.2418907 0.427594
vn 0.959895 0.1543473 0.234048
vn 0.9764513 0.1365288 0.1670411
vn 0.9883345 0.116399 0.09821399
vn 0.9803423 0.09681018 0.1719202
vn -0.5117942 0.1948369 0.8367229
vn -0.5196282 0.1860815 0.8338827
vn -0.5196282 0.1860815 0.8338827
vn -0.5273862 0.177299 0.8309205
vn -0.9446644 0.1437523 0.2948634
vn -0.956129 0.1325572 0.2612393
vn -0.9396219 0.1468473 0.3091062
vn -0.9517657 0.1285155 0.2786139
vn -0.9051922 0.1646469 0.3918145
vn -0.9030932 0.1716385 0.3936533
vn -0.8797351 0.1674796 0.4449909
vn -0.8710783 0.1686545 0.4612788
vn -0.8310112 0.1749506 0.5280272
vn -0.7943081 0.1767563 0.581233
vn -0.7249292 0.1750837 0.6662008
vn -0.6917467 0.1699233 0.7018637
vn 0.4403503 0.1789687 0.8798078
vn 0.4412463 0.1780909 0.879537
vn 0.4412463 0.1780909 0.879537
vn 0.4421415 0.1772128 0.8792648
vn -0.09901696 0.9227937 -0.3723539
g Frame_EnemyTrayTop_mesh_0
f 3/3/3 2/2/2 1/1/1
f 4/4/4 2/2/2 3/3/3
f 4/4/4 5/5/5 2/2/2
f 6/6/6 5/5/5 4/4/4
f 6/6/6 7/7/7 5/5/5
f 8/8/8 7/7/7 6/6/6
f 3/3/3 1/1/1 9/9/9
f 9/9/9 1/1/1 10/10/10
f 11/11/11 9/9/9 10/10/10
f 12/12/12 9/9/9 11/11/11
f 11/11/11 13/13/13 12/12/12
f 8/8/8 14/14/14 7/7/7
f 15/15/15 14/14/14 8/8/8
f 15/15/15 16/16/16 14/14/14
f 17/17/17 16/16/16 15/15/15
f 17/17/17 18/18/18 16/16/16
f 16/16/16 18/18/18 19/19/19
f 18/18/18 20/20/20 19/19/19
f 19/19/19 20/20/20 21/21/21
f 21/21/21 20/20/20 22/22/22
f 22/22/22 20/20/20 23/23/23
f 22/22/22 23/23/23 24/24/24
f 24/24/24 23/23/23 25/25/25
f 26/26/26 24/24/24 25/25/25
f 27/27/27 24/24/24 26/26/26
f 28/28/28 27/27/27 26/26/26
f 29/29/29 27/27/27 28/28/28
f 29/29/29 28/28/28 30/30/30
f 30/30/30 28/28/28 31/31/31
f 30/30/30 31/31/31 32/32/32
f 32/32/32 31/31/31 33/33/33
f 32/32/32 33/33/33 34/34/34
f 34/34/34 33/33/33 35/35/35
f 34/34/34 35/35/35 36/36/36
f 36/36/36 35/35/35 37/37/37
f 38/38/38 36/36/36 37/37/37
f 39/39/39 36/36/36 38/38/38
f 38/38/38 40/40/40 39/39/39
f 41/41/41 40/40/40 38/38/38
f 44/44/44 43/43/43 42/42/42
f 45/45/45 43/43/43 44/44/44
f 44/44/44 42/42/42 46/46/46
f 46/46/46 42/42/42 47/47/47
f 47/47/47 48/48/48 46/46/46
f 49/49/49 48/48/48 47/47/47
f 48/48/48 49/49/49 50/50/50
f 50/50/50 49/49/49 51/51/51
f 51/51/51 52/52/52 50/50/50
f 50/50/50 52/52/52 53/53/53
f 54/54/54 53/53/53 52/52/52
f 55/55/55 53/53/53 54/54/54
f 54/54/54 56/56/56 55/55/55
f 55/55/55 56/56/56 57/57/57
f 56/56/56 58/58/58 57/57/57
f 57/57/57 58/58/58 59/59/59
f 58/58/58 60/60/60 59/59/59
f 59/59/59 60/60/60 61/61/61
f 62/62/62 61/61/61 60/60/60
f 63/63/63 61/61/61 62/62/62
f 64/64/64 63/63/63 62/62/62
f 65/65/65 63/63/63 64/64/64
f 64/64/64 66/66/66 65/65/65
f 65/65/65 66/66/66 67/67/67
f 66/66/66 68/68/68 67/67/67
f 69/69/69 68/68/68 66/66/66
f 69/69/69 70/70/70 68/68/68
f 68/68/68 70/70/70 71/71/71
f 74/74/74 73/73/73 72/72/72
f 75/75/75 73/73/73 74/74/74
f 78/78/78 77/77/77 76/76/76
f 79/79/79 77/77/77 78/78/78
f 80/80/80 78/78/78 76/76/76
f 81/81/81 78/78/78 80/80/80
f 81/81/81 80/80/80 82/82/82
f 82/82/82 80/80/80 83/83/83
f 83/83/83 84/84/84 82/82/82
f 85/85/85 84/84/84 83/83/83
f 85/85/85 86/86/86 84/84/84
f 87/87/87 86/86/86 85/85/85
f 86/86/86 87/87/87 45/45/45
f 45/45/45 87/87/87 43/43/43
f 90/90/90 89/89/89 88/88/88
f 91/91/91 89/89/89 90/90/90
f 12/12/12 13/13/13 92/92/92
