g Ground_TL_mesh
v 465.1073 42.25329 -1093.298
v 465.4246 24.96736 -1097.094
v 487.3027 41.97635 -1084.661
v 489.4998 24.96736 -1087.731
v 511.2405 42.12817 -1054.568
v 515.1102 24.96736 -1056.701
v 522.8006 41.99389 -1027.92
v 528.3792 24.96736 -1029.846
v 523.0569 42.05951 -1005.05
v 528.3914 24.96736 -1005.653
v 516.8436 42.09994 -974.7999
v 522.6297 24.96736 -973.0738
v 508.787 41.97635 -955.5384
v 513.4988 24.96736 -953.396
v 491.636 42.14648 -939.6112
v 495.4325 24.96736 -933.3857
v 465.0828 42.06179 -927.7918
v 467.3778 24.96736 -922.9883
v 326.0265 42.10299 -875.7196
v 326.8138 24.96736 -869.4147
v 242.245 42.06104 -840.6305
v 243.9357 24.96736 -836.358
v 185.4015 41.95575 -820.1209
v 186.091 24.96736 -814.8475
v 153.7732 42.15945 -813.2117
v 152.8942 24.96736 -807.4378
v 133.4742 42.32806 -812.2108
v 131.9849 24.96736 -807.0838
v 123.0764 42.29068 -817.826
v 119.8294 24.96736 -812.9798
v 114.5071 42.05035 -831.449
v 110.9917 24.96736 -829.8743
v 113.2132 41.88174 -855.0471
v 323.9971 45.22342 -881.4447
v 462.6536 45.22342 -932.4731
v 488.1571 45.22342 -944.7992
v 502.0609 45.22342 -959.3134
v 511.2529 45.22342 -975.8043
v 517.2342 45.22342 -1004.112
v 518.1863 45.22342 -1026.766
v 507.786 45.22342 -1052.258
v 484.7513 45.22342 -1082.012
v 464.375 45.22342 -1089.819
v 116.8631 45.22342 -1090.698
v 293.1736 45.22342 -910.7545
v 117.5589 45.22342 -855.4742
v 239.1949 45.22342 -847.6251
v 182.4392 45.22342 -829.0815
v 152.3988 45.22342 -823.0734
v 135.2591 45.22342 -822.5727
v 126.7476 45.22342 -826.5781
v 120.7395 45.22342 -835.0896
v 116.8631 45.22342 -1090.698
v 113.7505 41.8497 -1093.292
v 110.8572 24.96736 -1095.965
v 113.7505 41.8497 -1093.292
v 116.8631 45.22342 -1090.698
v 110.8572 24.96736 -1095.965
v 113.2132 41.88174 -855.0471
v 110.9917 24.96736 -829.8743
v 110.6496 24.96736 -854.0461
v 110.8572 24.96736 -1095.965
vt 0.427087 0.081542
vt 0.428761 0.079931
vt 0.451985 0.089864
vt 0.455312 0.088855
vt 0.474875 0.118634
vt 0.479722 0.118431
vt 0.485954 0.144161
vt 0.49237 0.144028
vt 0.486192 0.166036
vt 0.492381 0.167088
vt 0.480241 0.19498
vt 0.486889 0.19814
vt 0.472545 0.213432
vt 0.478186 0.216896
vt 0.45611 0.22865
vt 0.460967 0.235968
vt 0.429805 0.238345
vt 0.433337 0.24425
vt 0.294513 0.291334
vt 0.297155 0.298473
vt 0.21383 0.323389
vt 0.21765 0.32845
vt 0.159456 0.345514
vt 0.162516 0.351429
vt 0.129134 0.352107
vt 0.130875 0.358491
vt 0.103404 0.35305
vt 0.104712 0.358829
vt 0.093463 0.347679
vt 0.093126 0.353209
vt 0.085329 0.334664
vt 0.084702 0.337106
vt 0.084139 0.309612
vt 0.291953 0.285481
vt 0.427033 0.23342
vt 0.452382 0.223237
vt 0.465706 0.209328
vt 0.474514 0.193525
vt 0.480246 0.166398
vt 0.481159 0.144688
vt 0.471192 0.120259
vt 0.449118 0.091745
vt 0.425968 0.084265
vt 0.086682 0.083422
vt 0.261905 0.255862
vt 0.087349 0.308838
vt 0.210177 0.316359
vt 0.155788 0.33662
vt 0.127 0.342377
vt 0.104311 0.342857
vt 0.096155 0.339019
vt 0.090397 0.330862
vt 0.086682 0.083422
vt 0.084662 0.08163
vt 0.084574 0.081007
vt 0.084662 0.08163
vt 0.086682 0.083422
vt 0.084574 0.081007
vt 0.084139 0.309612
vt 0.084702 0.337106
vt 0.084376 0.31159
vt 0.084574 0.081007
vn 0.105835 0.4800849 -0.8708143
vn 0.2396653 0.2136202 -0.9470623
vn 0.44566 0.5122962 -0.7341251
vn 0.6404694 0.2279151 -0.7333851
vn 0.7002451 0.540439 -0.4664572
vn 0.8346623 0.2750392 -0.477171
vn 0.7727171 0.5927743 -0.226995
vn 0.9365534 0.3183788 -0.1466385
vn 0.7836516 0.6190209 0.05199186
vn 0.9445253 0.3060335 0.119228
vn 0.7433963 0.6382642 0.199952
vn 0.8944821 0.3193537 0.3129136
vn 0.6369915 0.6621056 0.3947886
vn 0.7474268 0.3171563 0.5837508
vn 0.454165 0.6786382 0.5772211
vn 0.4742311 0.3611556 0.8029143
vn 0.289943 0.6400147 0.7115576
vn 0.3340782 0.3105359 0.8899209
vn 0.2772828 0.6453738 0.7117632
vn 0.3524574 0.3118547 0.882338
vn 0.2745357 0.6592804 0.6999853
vn 0.3395728 0.2703496 0.9008892
vn 0.2188841 0.6836695 0.6961937
vn 0.2493572 0.2977135 0.9215137
vn 0.1161172 0.7078239 0.6967798
vn 0.09142534 0.3009342 0.9492523
vn -0.09526154 0.7233794 0.6838475
vn -0.2917101 0.3028104 0.9073098
vn -0.4303427 0.71426 0.55194
vn -0.7238836 0.2872768 0.6272676
vn -0.7063993 0.6534285 0.2720867
vn -0.9644952 0.1963378 0.1766365
vn -0.8549764 0.5181289 0.0236185
vn 0.08140504 0.9750857 0.2063517
vn 0.1164129 0.9516004 0.2844377
vn 0.1502731 0.9579843 0.2443029
vn 0.1929335 0.9677752 0.1618264
vn 0.2596739 0.9605689 0.09938245
vn 0.2969919 0.9538117 0.04515538
vn 0.3287175 0.9434848 -0.04220454
vn 0.3262606 0.9295579 -0.1716863
vn 0.2653363 0.9143329 -0.3059282
vn 0.1052757 0.9080554 -0.4054043
vn -0.2568711 0.9262753 -0.2757381
vn 0 1 0
vn -0.2117473 0.9771814 0.01672057
vn 0.06314079 0.982643 0.1744304
vn 0.03972508 0.9870787 0.1552342
vn 0.01780106 0.9848723 0.1723645
vn -0.06397241 0.9782323 0.1974062
vn -0.1305384 0.9846852 0.1155633
vn -0.2380633 0.9694184 0.05961518
vn -0.2991 0.9431958 -0.1446409
vn -0.8968858 0.4422572 -0.002082181
vn -0.9871904 0.1595387 -0.001547058
vn -0.0004701802 0.3954336 -0.9184943
vn 0.0002529323 0.9194448 -0.3932192
vn -0.001654387 0.1855262 -0.9826379
vn -0.8549764 0.5181289 0.0236185
vn -0.9644952 0.1963378 0.1766365
vn -0.9886296 0.1502274 0.006570487
vn -0.9871904 0.1595387 -0.001547058
g Ground_TL_mesh_0
f 3/3/3 2/2/2 1/1/1
f 4/4/4 2/2/2 3/3/3
f 5/5/5 4/4/4 3/3/3
f 6/6/6 4/4/4 5/5/5
f 7/7/7 6/6/6 5/5/5
f 8/8/8 6/6/6 7/7/7
f 9/9/9 8/8/8 7/7/7
f 10/10/10 8/8/8 9/9/9
f 11/11/11 10/10/10 9/9/9
f 12/12/12 10/10/10 11/11/11
f 13/13/13 12/12/12 11/11/11
f 14/14/14 12/12/12 13/13/13
f 15/15/15 14/14/14 13/13/13
f 16/16/16 14/14/14 15/15/15
f 17/17/17 16/16/16 15/15/15
f 18/18/18 16/16/16 17/17/17
f 19/19/19 18/18/18 17/17/17
f 20/20/20 18/18/18 19/19/19
f 21/21/21 20/20/20 19/19/19
f 22/22/22 20/20/20 21/21/21
f 23/23/23 22/22/22 21/21/21
f 24/24/24 22/22/22 23/23/23
f 25/25/25 24/24/24 23/23/23
f 26/26/26 24/24/24 25/25/25
f 27/27/27 26/26/26 25/25/25
f 28/28/28 26/26/26 27/27/27
f 29/29/29 28/28/28 27/27/27
f 30/30/30 28/28/28 29/29/29
f 31/31/31 30/30/30 29/29/29
f 32/32/32 30/30/30 31/31/31
f 33/33/33 32/32/32 31/31/31
f 19/19/19 34/34/34 21/21/21
f 19/19/19 35/35/35 34/34/34
f 17/17/17 35/35/35 19/19/19
f 17/17/17 36/36/36 35/35/35
f 15/15/15 36/36/36 17/17/17
f 15/15/15 37/37/37 36/36/36
f 13/13/13 37/37/37 15/15/15
f 13/13/13 38/38/38 37/37/37
f 11/11/11 38/38/38 13/13/13
f 11/11/11 39/39/39 38/38/38
f 9/9/9 39/39/39 11/11/11
f 9/9/9 40/40/40 39/39/39
f 7/7/7 40/40/40 9/9/9
f 7/7/7 41/41/41 40/40/40
f 5/5/5 41/41/41 7/7/7
f 5/5/5 42/42/42 41/41/41
f 3/3/3 42/42/42 5/5/5
f 3/3/3 43/43/43 42/42/42
f 1/1/1 43/43/43 3/3/3
f 43/43/43 1/1/1 44/44/44
f 44/44/44 45/45/45 43/43/43
f 42/42/42 43/43/43 45/45/45
f 41/41/41 42/42/42 45/45/45
f 40/40/40 41/41/41 45/45/45
f 39/39/39 40/40/40 45/45/45
f 38/38/38 39/39/39 45/45/45
f 38/38/38 45/45/45 37/37/37
f 36/36/36 37/37/37 45/45/45
f 35/35/35 36/36/36 45/45/45
f 34/34/34 35/35/35 45/45/45
f 45/45/45 46/46/46 34/34/34
f 45/45/45 44/44/44 46/46/46
f 47/47/47 34/34/34 46/46/46
f 21/21/21 34/34/34 47/47/47
f 21/21/21 47/47/47 23/23/23
f 23/23/23 47/47/47 48/48/48
f 23/23/23 48/48/48 25/25/25
f 25/25/25 48/48/48 49/49/49
f 25/25/25 49/49/49 27/27/27
f 27/27/27 49/49/49 50/50/50
f 27/27/27 50/50/50 29/29/29
f 29/29/29 50/50/50 51/51/51
f 49/49/49 48/48/48 51/51/51
f 50/50/50 49/49/49 51/51/51
f 29/29/29 51/51/51 31/31/31
f 31/31/31 51/51/51 52/52/52
f 52/52/52 47/47/47 46/46/46
f 48/48/48 47/47/47 52/52/52
f 51/51/51 48/48/48 52/52/52
f 33/33/33 52/52/52 46/46/46
f 31/31/31 52/52/52 33/33/33
f 46/46/46 53/53/53 33/33/33
f 33/33/33 53/53/53 54/54/54
f 55/55/55 33/33/33 54/54/54
f 57/57/57 1/1/1 56/56/56
f 1/1/1 58/58/58 56/56/56
f 2/2/2 58/58/58 1/1/1
f 61/61/61 60/60/60 59/59/59
f 61/61/61 59/59/59 62/62/62
