g GVG_Stove_BigRocketFuse_mesh
v 411.5653 53.47725 -261.6445
v 414.2164 50.4948 -261.1361
v 410.1433 53.47725 -253.8751
v 412.8461 50.4948 -253.2309
v 416.8201 50.4948 -269.3477
v 414.0617 53.47725 -269.8148
v 415.9619 50.4948 -276.2401
v 413.5374 53.47725 -276.3181
v 415.4483 50.4948 -283.0972
v 412.6974 53.47725 -282.5368
v 410.0932 50.4948 -293.1072
v 407.3571 53.47725 -291.6693
v 402.1603 50.4948 -301.2518
v 399.5652 53.47725 -299.143
v 392.9003 50.4948 -305.1702
v 391.0443 53.47725 -302.6914
v 383.437 50.4948 -307.5526
v 382.8034 53.47725 -304.5091
v 376.2375 50.4948 -308.1138
v 375.7607 53.47725 -305.2409
v 366.3929 50.4948 -307.3491
v 366.7049 53.47725 -304.9712
v 357.485 50.4948 -304.0215
v 358.8051 53.47725 -302.1348
v 352.5059 50.4948 -299.2015
v 354.1542 53.47725 -297.4191
v 348.9234 50.4948 -290.7891
v 351.2692 53.47725 -289.3013
v 349.2065 50.4948 -281.3567
v 351.1816 53.47725 -280.7686
v 348.3509 50.4948 -276.9608
v 350.2296 53.47725 -275.8806
v 345.7788 50.4948 -272.8521
v 347.5306 53.47725 -271.1748
v 341.1307 50.4948 -268.7039
v 342.3999 53.47725 -266.9841
v 337.0326 50.4948 -268.8421
v 337.3378 53.47725 -266.8792
v 333.9365 50.4948 -269.0325
v 333.5759 53.47725 -267.2096
v 331.2306 50.4948 -270.9867
v 329.4805 53.47725 -269.5332
v 329.0144 50.4948 -274.8062
v 326.6245 53.47725 -273.7734
v 327.9659 50.4948 -280.0883
v 324.878 53.47725 -280.3865
v 328.623 50.4948 -284.7302
v 325.762 53.47725 -285.3781
v 326.8644 52.69392 -289.4204
v 407.8259 50.4948 -281.5738
v 407.3571 53.47725 -291.6693
v 412.6974 53.47725 -282.5368
v 409.169 50.4948 -276.4317
v 402.8136 50.4948 -289.3242
v 399.5652 53.47725 -299.143
v 395.2788 50.4948 -295.6082
v 388.066 50.4948 -298.4978
v 391.0443 53.47725 -302.6914
v 382.8034 53.47725 -304.5091
v 382.1612 50.4948 -299.4258
v 375.7607 53.47725 -305.2409
v 375.4818 50.4948 -300.5272
v 366.7049 53.47725 -304.9712
v 367.6556 50.4948 -301.0126
v 361.2413 50.4948 -298.8246
v 358.8051 53.47725 -302.1348
v 354.1542 53.47725 -297.4191
v 357.1116 50.4948 -294.2448
v 351.2692 53.47725 -289.3013
v 355.4593 50.4948 -286.6438
v 351.1816 53.47725 -280.7686
v 354.7096 50.4948 -279.7182
v 353.5855 50.4948 -273.9515
v 350.2296 53.47725 -275.8806
v 350.6597 50.4948 -268.1789
v 347.5306 53.47725 -271.1748
v 344.6669 50.4948 -263.9122
v 342.3999 53.47725 -266.9841
v 337.883 50.4948 -263.3731
v 337.3378 53.47725 -266.8792
v 332.9317 50.4948 -263.9534
v 333.5759 53.47725 -267.2096
v 326.3543 50.4948 -266.9369
v 329.4805 53.47725 -269.5332
v 322.3558 50.4948 -271.9286
v 326.6245 53.47725 -273.7734
v 319.3624 50.4948 -280.9193
v 324.878 53.47725 -280.3865
v 325.762 53.47725 -285.3781
v 320.6516 50.4948 -286.5353
v 326.8644 52.69392 -289.4204
v 329.7955 51.95829 -287.8648
v 328.623 50.4948 -284.7302
v 326.8644 52.69392 -289.4204
v 328.0004 50.57888 -293.5859
v 331.0038 50.4948 -291.0948
v 331.2377 50.4948 -286.7454
v 331.7625 50.4948 -289.8615
v 322.6686 51.95829 -290.6066
v 320.6516 50.4948 -286.5353
v 324.4691 50.4948 -294.0913
v 320.8969 50.4948 -290.6007
v 321.744 50.4948 -292.8055
v 320.0747 50.4948 -288.4611
v 328.9738 50.4948 -284.8958
v 406.8297 50.4948 -262.5527
v 411.5653 53.47725 -261.6445
v 405.3156 50.4948 -255.0257
v 410.1433 53.47725 -253.8751
v 414.0617 53.47725 -269.8148
v 409.1345 50.4948 -270.6492
v 413.5374 53.47725 -276.3181
vt 0.836815 0.054429
vt 0.835595 0.050155
vt 0.829254 0.066348
vt 0.827831 0.062142
vt 0.841936 0.035902
vt 0.843471 0.040312
vt 0.852043 0.028375
vt 0.852627 0.032691
vt 0.861693 0.019889
vt 0.861782 0.025217
vt 0.881363 0.01262
vt 0.879967 0.018505
vt 0.900651 0.010461
vt 0.898024 0.016696
vt 0.916085 0.015537
vt 0.911986 0.021266
vt 0.92976 0.023143
vt 0.923384 0.02805
vt 0.938068 0.031145
vt 0.931717 0.03538
vt 0.947448 0.044582
vt 0.940817 0.047189
vt 0.951368 0.060607
vt 0.944324 0.061586
vt 0.948665 0.073735
vt 0.941205 0.074317
vt 0.937634 0.090726
vt 0.929558 0.089989
vt 0.922829 0.103138
vt 0.916471 0.101825
vt 0.9178 0.110275
vt 0.910906 0.109766
vt 0.915664 0.119645
vt 0.908088 0.120148
vt 0.916461 0.132224
vt 0.909449 0.133575
vt 0.92277 0.138209
vt 0.916768 0.141384
vt 0.927665 0.142609
vt 0.922827 0.146625
vt 0.934773 0.143981
vt 0.932442 0.149643
vt 0.944241 0.141987
vt 0.94346 0.148057
vt 0.954525 0.136129
vt 0.956773 0.141447
vt 0.961443 0.128528
vt 0.963871 0.133024
vt 0.968862 0.125695
vt 0.869764 0.032568
vt 0.879967 0.018505
vt 0.861782 0.025217
vt 0.861539 0.038194
vt 0.885207 0.026887
vt 0.898024 0.016696
vt 0.900975 0.02571
vt 0.912242 0.029345
vt 0.911986 0.021266
vt 0.923384 0.02805
vt 0.919519 0.034616
vt 0.931717 0.03538
vt 0.927857 0.0407
vt 0.940817 0.047189
vt 0.936419 0.049529
vt 0.939185 0.06093
vt 0.944324 0.061586
vt 0.941205 0.074317
vt 0.93535 0.072872
vt 0.929558 0.089989
vt 0.922688 0.08609
vt 0.916471 0.101825
vt 0.912743 0.096825
vt 0.906254 0.106159
vt 0.910906 0.109766
vt 0.90223 0.118288
vt 0.908088 0.120148
vt 0.904585 0.133153
vt 0.909449 0.133575
vt 0.913661 0.144175
vt 0.916768 0.141384
vt 0.921759 0.150888
vt 0.922827 0.146625
vt 0.935791 0.156826
vt 0.932442 0.149643
vt 0.949506 0.155979
vt 0.94346 0.148057
vt 0.968143 0.148067
vt 0.956773 0.141447
vt 0.963871 0.133024
vt 0.975518 0.138227
vt 0.968862 0.125695
vt 0.96434 0.122567
vt 0.961443 0.128528
vt 0.968862 0.125695
vt 0.974003 0.118147
vt 0.967327 0.11642
vt 0.958918 0.119382
vt 0.963249 0.114233
vt 0.978145 0.129908
vt 0.975518 0.138227
vt 0.980856 0.121323
vt 0.982257 0.133583
vt 0.984497 0.12927
vt 0.980084 0.137769
vt 0.958843 0.125522
vt 0.84694 0.059741
vt 0.836815 0.054429
vt 0.839771 0.071473
vt 0.829254 0.066348
vt 0.843471 0.040312
vt 0.854128 0.045941
vt 0.852627 0.032691
vn 0.7134765 0.6741678 0.1909166
vn 0.720713 0.6742097 0.161289
vn 0.7254655 0.6760071 0.1292835
vn 0.7215793 0.6809396 0.1250775
vn 0.7237257 0.6801155 0.1168932
vn 0.7455249 0.6661762 0.02004968
vn 0.7632652 0.6421872 -0.07086496
vn 0.758274 0.6478607 -0.07278014
vn 0.724695 0.6676843 -0.1703377
vn 0.6646811 0.6972144 -0.2684981
vn 0.5901415 0.7010093 -0.4003986
vn 0.5255883 0.7254266 -0.4444246
vn 0.4194056 0.723384 -0.5484654
vn 0.3393596 0.7242551 -0.6002411
vn 0.2417097 0.7025367 -0.6693418
vn 0.199118 0.7087411 -0.6767851
vn 0.1266775 0.711786 -0.6908788
vn 0.09248314 0.7134978 -0.694527
vn 0.02399093 0.70285 -0.7109334
vn -0.001817093 0.6719105 -0.7406302
vn -0.1191477 0.6477454 -0.7524824
vn -0.1912751 0.6173995 -0.7630411
vn -0.3710619 0.6143239 -0.6963615
vn -0.4650549 0.6198176 -0.6320997
vn -0.6213354 0.6177154 -0.4820476
vn -0.6707942 0.640725 -0.3735058
vn -0.7516232 0.6340564 -0.1817556
vn -0.7819523 0.6183931 -0.07836093
vn -0.8139772 0.5789453 -0.04757685
vn -0.8189371 0.5636078 -0.1081124
vn -0.7755732 0.5793805 -0.2506081
vn -0.7319593 0.5967389 -0.3288439
vn -0.6321614 0.6163365 -0.4695759
vn -0.5757856 0.6157296 -0.5379108
vn -0.349379 0.5931988 -0.7252927
vn -0.1739317 0.5619435 -0.8086824
vn 0.02119965 0.5292165 -0.848222
vn 0.03620556 0.5414013 -0.8399845
vn 0.217149 0.5348479 -0.8165685
vn 0.3352737 0.5443614 -0.7689357
vn 0.5443725 0.5689158 -0.6164361
vn 0.5847166 0.6222886 -0.5204454
vn 0.6953701 0.6397329 -0.3274178
vn 0.6954486 0.6722273 -0.253893
vn 0.7144022 0.6953094 -0.07857649
vn 0.7005211 0.7135121 0.01306458
vn 0.450386 0.8656923 0.21847
vn 0.7085338 0.6996552 0.09199181
vn 0.194175 0.9808035 -0.01790884
vn -0.4634553 0.8568549 0.2258513
vn -0.4178845 0.8544443 0.3087032
vn -0.5107232 0.8447693 0.1597705
vn -0.5368993 0.8413423 0.06230944
vn -0.3658098 0.8658586 0.3412801
vn -0.2662989 0.8638933 0.4275199
vn -0.251397 0.8682475 0.4277216
vn -0.1460738 0.8570187 0.4941472
vn -0.1557949 0.8538719 0.4966193
vn -0.08166644 0.85855 0.5061845
vn -0.07246908 0.8577216 0.5089813
vn -0.04113835 0.8518739 0.5221287
vn -0.03637687 0.8289716 0.5581065
vn 0.09398426 0.8152843 0.5713828
vn 0.07736944 0.8051401 0.5880165
vn 0.3127797 0.8159997 0.4861207
vn 0.3155878 0.8087125 0.4963752
vn 0.4768441 0.8121893 0.3361074
vn 0.5129057 0.8255653 0.2353076
vn 0.5625901 0.8195282 0.1089314
vn 0.5801395 0.8120689 0.06310577
vn 0.6131501 0.7859982 0.07908052
vn 0.6261107 0.7739694 0.09464069
vn 0.5967574 0.7835212 0.1731331
vn 0.5578578 0.7976581 0.2292078
vn 0.4636341 0.8153935 0.3466653
vn 0.4107649 0.8125966 0.4134718
vn 0.2629694 0.7935961 0.5486823
vn 0.155111 0.7764127 0.6108387
vn -0.003167493 0.7519333 0.6592315
vn -0.04062429 0.7533341 0.656382
vn -0.1391849 0.747412 0.6496175
vn -0.2161854 0.7604784 0.6123205
vn -0.3520645 0.7829906 0.5128121
vn -0.4096809 0.8163331 0.4071386
vn -0.4780817 0.8314148 0.2831734
vn -0.4842688 0.8513336 0.2017792
vn -0.4901159 0.8712589 0.02635138
vn -0.4771943 0.878516 0.02224865
vn -0.4634314 0.8715887 -0.159889
vn -0.3722535 0.9271259 -0.0431847
vn -0.06633653 0.993349 -0.09411231
vn 0.3968535 0.9161662 0.05609448
vn 0.450386 0.8656923 0.21847
vn 0.08035316 0.9943077 -0.06996897
vn 0.1719446 0.9115741 -0.3734539
vn 0.3588806 0.9251852 -0.123438
vn 0.3047571 0.9438835 0.1273071
vn 0 1 0
vn -0.3058967 0.9156167 -0.2609088
vn -0.3722535 0.9271259 -0.0431847
vn -0.1810877 0.9260047 -0.3312439
vn -0.3201154 0.9337693 -0.1600033
vn 0 1 0
vn 0 1 0
vn 0 1 0
vn -0.5054536 0.8525349 -0.1330441
vn -0.5095462 0.8524491 -0.1170177
vn -0.5114679 0.8536628 -0.0982877
vn -0.507193 0.8568186 -0.09282906
vn -0.5226146 0.8502018 -0.06348808
vn -0.5074955 0.8586252 -0.0721877
vn -0.5638883 0.8236091 0.06081079
g GVG_Stove_BigRocketFuse_mesh_0
f 3/3/3 2/2/2 1/1/1
f 4/4/4 2/2/2 3/3/3
f 2/2/2 5/5/5 1/1/1
f 1/1/1 5/5/5 6/6/6
f 7/7/7 6/6/6 5/5/5
f 8/8/8 6/6/6 7/7/7
f 7/7/7 9/9/9 8/8/8
f 8/8/8 9/9/9 10/10/10
f 9/9/9 11/11/11 10/10/10
f 10/10/10 11/11/11 12/12/12
f 11/11/11 13/13/13 12/12/12
f 12/12/12 13/13/13 14/14/14
f 15/15/15 14/14/14 13/13/13
f 16/16/16 14/14/14 15/15/15
f 15/15/15 17/17/17 16/16/16
f 16/16/16 17/17/17 18/18/18
f 17/17/17 19/19/19 18/18/18
f 18/18/18 19/19/19 20/20/20
f 19/19/19 21/21/21 20/20/20
f 20/20/20 21/21/21 22/22/22
f 23/23/23 22/22/22 21/21/21
f 24/24/24 22/22/22 23/23/23
f 23/23/23 25/25/25 24/24/24
f 24/24/24 25/25/25 26/26/26
f 25/25/25 27/27/27 26/26/26
f 26/26/26 27/27/27 28/28/28
f 27/27/27 29/29/29 28/28/28
f 28/28/28 29/29/29 30/30/30
f 31/31/31 30/30/30 29/29/29
f 32/32/32 30/30/30 31/31/31
f 33/33/33 32/32/32 31/31/31
f 34/34/34 32/32/32 33/33/33
f 35/35/35 34/34/34 33/33/33
f 36/36/36 34/34/34 35/35/35
f 37/37/37 36/36/36 35/35/35
f 38/38/38 36/36/36 37/37/37
f 39/39/39 38/38/38 37/37/37
f 40/40/40 38/38/38 39/39/39
f 41/41/41 40/40/40 39/39/39
f 42/42/42 40/40/40 41/41/41
f 43/43/43 42/42/42 41/41/41
f 44/44/44 42/42/42 43/43/43
f 45/45/45 44/44/44 43/43/43
f 46/46/46 44/44/44 45/45/45
f 45/45/45 47/47/47 46/46/46
f 46/46/46 47/47/47 48/48/48
f 48/48/48 47/47/47 49/49/49
f 52/52/52 51/51/51 50/50/50
f 53/53/53 52/52/52 50/50/50
f 50/50/50 51/51/51 54/54/54
f 51/51/51 55/55/55 54/54/54
f 54/54/54 55/55/55 56/56/56
f 55/55/55 57/57/57 56/56/56
f 58/58/58 57/57/57 55/55/55
f 58/58/58 59/59/59 57/57/57
f 57/57/57 59/59/59 60/60/60
f 59/59/59 61/61/61 60/60/60
f 60/60/60 61/61/61 62/62/62
f 61/61/61 63/63/63 62/62/62
f 62/62/62 63/63/63 64/64/64
f 63/63/63 65/65/65 64/64/64
f 66/66/66 65/65/65 63/63/63
f 66/66/66 67/67/67 65/65/65
f 65/65/65 67/67/67 68/68/68
f 67/67/67 69/69/69 68/68/68
f 68/68/68 69/69/69 70/70/70
f 69/69/69 71/71/71 70/70/70
f 70/70/70 71/71/71 72/72/72
f 71/71/71 73/73/73 72/72/72
f 74/74/74 73/73/73 71/71/71
f 74/74/74 75/75/75 73/73/73
f 76/76/76 75/75/75 74/74/74
f 76/76/76 77/77/77 75/75/75
f 78/78/78 77/77/77 76/76/76
f 78/78/78 79/79/79 77/77/77
f 80/80/80 79/79/79 78/78/78
f 80/80/80 81/81/81 79/79/79
f 82/82/82 81/81/81 80/80/80
f 82/82/82 83/83/83 81/81/81
f 84/84/84 83/83/83 82/82/82
f 84/84/84 85/85/85 83/83/83
f 86/86/86 85/85/85 84/84/84
f 86/86/86 87/87/87 85/85/85
f 88/88/88 87/87/87 86/86/86
f 88/88/88 89/89/89 87/87/87
f 87/87/87 89/89/89 90/90/90
f 91/91/91 90/90/90 89/89/89
f 94/94/94 93/93/93 92/92/92
f 94/94/94 92/92/92 95/95/95
f 95/95/95 92/92/92 96/96/96
f 92/92/92 97/97/97 96/96/96
f 92/92/92 93/93/93 97/97/97
f 96/96/96 97/97/97 98/98/98
f 94/94/94 95/95/95 99/99/99
f 94/94/94 99/99/99 100/100/100
f 99/99/99 95/95/95 101/101/101
f 99/99/99 101/101/101 102/102/102
f 99/99/99 102/102/102 100/100/100
f 102/102/102 101/101/101 103/103/103
f 100/100/100 102/102/102 104/104/104
f 97/97/97 93/93/93 105/105/105
f 108/108/108 107/107/107 106/106/106
f 109/109/109 107/107/107 108/108/108
f 107/107/107 110/110/110 106/106/106
f 106/106/106 110/110/110 111/111/111
f 110/110/110 53/53/53 111/111/111
f 112/112/112 53/53/53 110/110/110
f 112/112/112 52/52/52 53/53/53
