g GVG_LaserWires_mesh
v 1318.986 94.18269 -144.059
v 1315.38 96.14327 -145.6393
v 1320.351 90.33507 -147.3151
v 1316.59 92.67977 -148.054
v 1324.247 87.31643 -146.1732
v 1322.97 91.6524 -142.2425
v 1327.942 84.14311 -145.6358
v 1327.275 88.49471 -141.3607
v 1332.039 80.33501 -145.5686
v 1331.772 84.77917 -141.0784
v 1336.338 76.11835 -145.5686
v 1336.303 80.80832 -141.0992
v 1326.668 87.75785 -137.4689
v 1321.807 90.73309 -138.6643
v 1322.97 91.6524 -142.2425
v 1317.743 92.76707 -141.0949
v 1331.53 84.30807 -136.9907
v 1336.271 80.58698 -137.0306
v 1339.697 72.75388 -145.9045
v 1340.261 77.16878 -141.5513
v 1340.774 76.76675 -137.5884
v 1343.257 69.18982 -146.5762
v 1344.523 73.24974 -142.3094
v 1345.675 72.58604 -138.4252
v 1348.736 69.24233 -143.8116
v 1347.153 65.4061 -147.5838
v 1350.178 68.22324 -140.3776
v 1352.399 65.69319 -145.7828
v 1350.243 62.23574 -149.5318
v 1354.361 64.40408 -142.3699
v 1356.251 62.26631 -148.1823
v 1353.467 59.30199 -151.547
v 1358.784 60.52117 -145.1193
v 1362.251 57.15191 -148.9445
v 1359.308 59.3305 -151.5459
v 1356.075 56.84732 -154.4034
v 1359.103 54.72299 -157.631
v 1362.044 57.21704 -154.982
v 1362.044 57.21704 -154.982
v 1362.044 57.21704 -154.982
v 1364.721 54.96488 -152.5705
v 1364.262 55.97251 -158.471
v 1367.072 53.49881 -156.5153
v 1366.471 55.45526 -162.6844
v 1369.583 52.75224 -161.6554
v 1368.194 55.45526 -166.6273
v 1371.376 52.75224 -165.4408
v 1369.596 55.45526 -170.5347
v 1372.93 52.75224 -169.3457
v 1371.039 55.45526 -174.8321
v 1374.563 52.75224 -173.8085
v 1372.232 55.45526 -178.9419
v 1375.719 52.75224 -177.9126
v 1373.676 55.45526 -182.9682
v 1377.353 52.75224 -181.8574
v 1318.986 94.18269 -144.059
v 1315.38 96.14327 -145.6393
v 1314.279 94.25131 -143.4411
v 1322.97 91.6524 -142.2425
v 1359.103 54.72299 -157.631
v 1361.175 53.65494 -160.6194
v 1362.044 57.21704 -154.982
v 1362.044 57.21704 -154.982
v 1364.262 55.97251 -158.471
v 1363.052 53.2016 -163.8148
v 1366.471 55.45526 -162.6844
v 1364.698 52.75224 -167.9306
v 1368.194 55.45526 -166.6273
v 1365.933 52.75224 -171.8407
v 1369.596 55.45526 -170.5347
v 1367.168 52.75224 -175.9566
v 1371.039 55.45526 -174.8321
v 1368.402 52.75224 -180.0726
v 1372.232 55.45526 -178.9419
v 1369.637 52.75224 -184.1884
v 1373.676 55.45526 -182.9682
v 1312.324 96.14066 -144.163
v 1315.99 96.14066 -141.8519
v 1310.383 100.3708 -139.5357
v 1313.665 100.3708 -137.9695
v 1320.251 96.14066 -139.1539
v 1317.837 100.3708 -135.7616
v 1324.479 96.14066 -137.6166
v 1321.701 100.3708 -133.9439
v 1329.091 96.14066 -135.3105
v 1325.484 100.3708 -131.5447
v 1332.247 96.14066 -132.9663
v 1328.432 100.3708 -128.971
v 1335.076 96.14066 -129.7786
v 1331.6 100.3708 -125.7381
v 1338.184 96.14066 -126.6706
v 1334.64 100.3708 -122.6527
v 1341.013 96.14066 -124.7181
v 1338.282 100.3708 -120.1585
v 1344.121 96.03931 -123.8814
v 1342.541 100.3708 -119.1412
v 1347.309 95.47982 -123.6821
v 1346.79 100.3265 -118.2196
v 1350.536 94.41946 -124.0806
v 1350.83 99.82262 -118.5729
v 1353.325 93.01218 -125.2361
v 1355.086 98.52853 -119.9091
v 1356.872 90.50881 -127.2683
v 1359.58 95.93958 -122.5732
v 1359.063 88.0413 -129.7388
v 1362.878 92.52758 -126.1046
v 1360.976 85.14117 -132.6077
v 1365.084 88.86797 -129.7861
v 1362.769 81.77162 -135.8352
v 1366.877 84.9595 -133.5102
v 1363.885 78.55289 -139.1424
v 1368.218 80.9452 -137.3366
v 1365.638 73.8121 -143.8044
v 1369.927 76.1993 -141.6826
v 1367.351 69.5168 -148.0281
v 1369.927 76.1993 -141.6826
v 1371.55 71.80356 -145.7934
v 1369.543 65.10333 -152.3314
v 1373.267 67.7536 -149.7582
v 1371.017 61.72989 -156.3559
v 1374.967 63.86667 -154.1889
v 1373.727 58.1107 -160.3405
v 1377.135 61.09964 -157.2255
v 1377.193 54.93871 -163.8071
v 1379.947 58.467 -160.489
v 1380.7 52.65042 -167.1143
v 1383.341 56.44934 -163.4125
v 1385.521 51.05114 -169.784
v 1387.756 55.14239 -165.721
v 1390.024 50.46413 -171.8161
v 1391.694 54.69427 -167.4823
v 1393.921 50.46413 -172.2523
v 1395.957 54.69427 -168.2357
v 1310.383 100.3708 -139.5357
v 1313.665 100.3708 -137.9695
v 1308.897 96.14066 -135.9946
v 1311.885 96.14066 -134.9984
v 1317.837 100.3708 -135.7616
v 1315.99 96.14066 -133.1655
v 1321.701 100.3708 -133.9439
v 1319.576 96.14066 -131.1334
v 1325.484 100.3708 -131.5447
v 1322.724 96.14066 -128.6629
v 1328.432 100.3708 -128.971
v 1325.513 96.14066 -125.9135
v 1331.6 100.3708 -125.7381
v 1328.94 96.14066 -122.6462
v 1334.64 100.3708 -122.6527
v 1331.928 96.14066 -119.578
v 1338.282 100.3708 -120.1585
v 1336.192 96.14066 -116.6692
v 1341.332 96.14066 -115.5137
v 1342.541 100.3708 -119.1412
v 1346.79 100.3265 -118.2196
v 1346.392 96.14066 -114.0394
v 1350.83 99.82262 -118.5729
v 1351.054 96.10114 -114.3582
v 1356.433 95.2395 -115.8325
v 1355.086 98.52853 -119.9091
v 1359.58 95.93958 -122.5732
v 1361.653 92.82659 -118.9803
v 1362.878 92.52758 -126.1046
v 1365.797 88.93853 -123.3235
v 1365.084 88.86797 -129.7861
v 1368.228 84.78687 -127.6269
v 1366.877 84.9595 -133.5102
v 1370.021 80.50619 -131.731
v 1368.218 80.9452 -137.3366
v 1371.535 75.91237 -135.9547
v 1369.927 76.1993 -141.6826
v 1373.209 71.265 -140.0589
v 1369.927 76.1993 -141.6826
v 1371.55 71.80356 -145.7934
v 1374.763 66.82096 -144.0833
v 1373.267 67.7536 -149.7582
v 1376.117 62.97498 -147.789
v 1374.967 63.86667 -154.1889
v 1377.99 58.52478 -152.5307
v 1377.135 61.09964 -157.2255
v 1379.743 56.33971 -154.8418
v 1379.947 58.467 -160.489
v 1382.054 53.89839 -157.9497
v 1383.341 56.44934 -163.4125
v 1385.362 51.95528 -160.5796
v 1387.756 55.14239 -165.721
v 1389.466 50.81857 -162.6117
v 1391.694 54.69427 -167.4823
v 1392.972 50.46413 -164.1657
v 1395.957 54.69427 -168.2357
v 1397.515 50.46413 -165.1619
vt 0.197403 0.094012
vt 0.189052 0.090352
vt 0.200565 0.086471
vt 0.191854 0.08476
vt 0.209588 0.089116
vt 0.206629 0.098219
vt 0.218143 0.09036
vt 0.2166 0.100261
vt 0.227632 0.090516
vt 0.227014 0.100914
vt 0.237588 0.090516
vt 0.237507 0.100866
vt 0.215194 0.109273
vt 0.203937 0.106505
vt 0.206629 0.098219
vt 0.194525 0.100876
vt 0.226452 0.110381
vt 0.237433 0.110288
vt 0.245366 0.089738
vt 0.246671 0.099819
vt 0.24786 0.108996
vt 0.25361 0.088182
vt 0.256541 0.098064
vt 0.25921 0.107059
vt 0.266299 0.094585
vt 0.262633 0.085849
vt 0.269637 0.102537
vt 0.274781 0.09002
vt 0.269788 0.081338
vt 0.279326 0.097923
vt 0.283701 0.084463
vt 0.277255 0.076671
vt 0.289568 0.091556
vt 0.297596 0.082698
vt 0.290781 0.076674
vt 0.283293 0.070056
vt 0.290306 0.062582
vt 0.297117 0.068716
vt 0.297117 0.068716
vt 0.297117 0.068716
vt 0.303317 0.074301
vt 0.302253 0.060637
vt 0.308761 0.065166
vt 0.307368 0.050879
vt 0.314575 0.053262
vt 0.311358 0.041748
vt 0.318727 0.044496
vt 0.314605 0.0327
vt 0.322326 0.035453
vt 0.317948 0.022748
vt 0.326109 0.025118
vt 0.320711 0.01323
vt 0.328785 0.015614
vt 0.324054 0.003906
vt 0.332569 0.006478
vt 0.197403 0.094012
vt 0.189052 0.090352
vt 0.186502 0.095443
vt 0.206629 0.098219
vt 0.290306 0.062582
vt 0.295105 0.055661
vt 0.297117 0.068716
vt 0.297117 0.068716
vt 0.302253 0.060637
vt 0.299451 0.048261
vt 0.307368 0.050879
vt 0.303264 0.03873
vt 0.311358 0.041748
vt 0.306123 0.029675
vt 0.314605 0.0327
vt 0.308983 0.020143
vt 0.317948 0.022748
vt 0.311842 0.010612
vt 0.320711 0.01323
vt 0.314702 0.00108
vt 0.324054 0.003906
vt 0.181975 0.093771
vt 0.190464 0.099123
vt 0.17748 0.104487
vt 0.18508 0.108114
vt 0.200334 0.105371
vt 0.194743 0.113227
vt 0.210124 0.108931
vt 0.203692 0.117436
vt 0.220805 0.114272
vt 0.212452 0.122992
vt 0.228113 0.1197
vt 0.219278 0.128953
vt 0.234664 0.127082
vt 0.226614 0.136439
vt 0.241862 0.13428
vt 0.233655 0.143584
vt 0.248413 0.138801
vt 0.242089 0.149361
vt 0.255611 0.140739
vt 0.251952 0.151716
vt 0.262993 0.141201
vt 0.261791 0.153851
vt 0.270467 0.140278
vt 0.271147 0.153032
vt 0.276927 0.137602
vt 0.281004 0.149938
vt 0.285139 0.132896
vt 0.291412 0.143769
vt 0.290214 0.127175
vt 0.299048 0.135591
vt 0.294643 0.120531
vt 0.304157 0.127065
vt 0.298796 0.113057
vt 0.30831 0.118441
vt 0.301379 0.105398
vt 0.311416 0.10958
vt 0.30544 0.094602
vt 0.315372 0.099515
vt 0.309407 0.08482
vt 0.315372 0.099515
vt 0.31913 0.089995
vt 0.314483 0.074854
vt 0.323107 0.080814
vt 0.317897 0.065535
vt 0.327044 0.070553
vt 0.324172 0.056307
vt 0.332065 0.063521
vt 0.3322 0.048279
vt 0.338577 0.055963
vt 0.34032 0.04062
vt 0.346436 0.049193
vt 0.351485 0.034438
vt 0.35666 0.043847
vt 0.361912 0.029732
vt 0.36578 0.039768
vt 0.370938 0.028722
vt 0.375652 0.038024
vt 0.17748 0.104487
vt 0.18508 0.108114
vt 0.174039 0.112687
vt 0.18096 0.114994
vt 0.194743 0.113227
vt 0.190464 0.119239
vt 0.203692 0.117436
vt 0.198769 0.123945
vt 0.212452 0.122992
vt 0.206059 0.129666
vt 0.219278 0.128953
vt 0.212518 0.136033
vt 0.226614 0.136439
vt 0.220454 0.1436
vt 0.233655 0.143584
vt 0.227375 0.150705
vt 0.242089 0.149361
vt 0.237248 0.157441
vt 0.249152 0.160117
vt 0.251952 0.151716
vt 0.261791 0.153851
vt 0.260871 0.163531
vt 0.271147 0.153032
vt 0.271667 0.162793
vt 0.284124 0.159379
vt 0.281004 0.149938
vt 0.291412 0.143769
vt 0.296212 0.152089
vt 0.299048 0.135591
vt 0.305809 0.142031
vt 0.304157 0.127065
vt 0.311438 0.132065
vt 0.30831 0.118441
vt 0.31559 0.122561
vt 0.311416 0.10958
vt 0.319096 0.11278
vt 0.315372 0.099515
vt 0.322972 0.103275
vt 0.315372 0.099515
vt 0.31913 0.089995
vt 0.326571 0.093956
vt 0.323107 0.080814
vt 0.329708 0.085374
vt 0.327044 0.070553
vt 0.334045 0.074393
vt 0.332065 0.063521
vt 0.338105 0.069041
vt 0.338577 0.055963
vt 0.343457 0.061844
vt 0.346436 0.049193
vt 0.351116 0.055753
vt 0.35666 0.043847
vt 0.36062 0.051047
vt 0.36578 0.039768
vt 0.368741 0.047449
vt 0.375652 0.038024
vt 0.37926 0.045142
vn 0.6035311 0.6276602 -0.4917244
vn 0.5371301 0.623611 -0.5679796
vn 0.5663557 0.6243976 -0.5379301
vn 0.4993891 0.606061 -0.6191128
vn 0.6149979 0.6226785 -0.4837863
vn 0.5726671 0.7981281 -0.1872001
vn 0.5847457 0.6198713 -0.5232896
vn 0.6028373 0.7835135 -0.150644
vn 0.5686507 0.6075039 -0.5545949
vn 0.6278368 0.744492 -0.227052
vn 0.542953 0.5922452 -0.5953552
vn 0.621173 0.7239816 -0.2999911
vn 0.5489309 0.8114009 0.2007566
vn 0.4134835 0.8566048 0.3086416
vn 0.5434806 0.8370805 -0.06265051
vn 0.1771942 0.849727 0.4965544
vn 0.6133425 0.7834415 0.1001507
vn 0.6480382 0.7610608 0.0288591
vn 0.4874585 0.5897065 -0.6439182
vn 0.6102703 0.7280872 -0.3121845
vn 0.6473971 0.762125 -0.006519483
vn 0.430807 0.5940364 -0.6793571
vn 0.52846 0.6979166 -0.4833658
vn 0.6675196 0.7425486 -0.05512743
vn 0.5030205 0.744363 -0.4391971
vn 0.303698 0.6174558 -0.7256141
vn 0.6679316 0.7405607 -0.07373915
vn 0.4573287 0.7747969 -0.4365091
vn 0.198356 0.6554362 -0.7287375
vn 0.6379785 0.7657842 -0.08098069
vn 0.4228301 0.8261036 -0.3725153
vn 0.1032387 0.7049003 -0.701753
vn 0.6340638 0.7684054 -0.08669545
vn 0.6336313 0.7719445 -0.0511174
vn 0.2290211 0.8709666 -0.4347027
vn -0.02971455 0.7689756 -0.6385873
vn -0.1628478 0.8106128 -0.5624834
vn 0.2227103 0.9310273 -0.2891165
vn 0.3306034 0.9145399 -0.2330624
vn 0.4717548 0.8694836 -0.1464431
vn 0.623648 0.7798671 0.0535767
vn 0.5953554 0.7937452 0.1245817
vn 0.6009293 0.7838985 0.1561635
vn 0.5868719 0.7811006 0.2132209
vn 0.5862672 0.7749329 0.2361565
vn 0.5784622 0.7782342 0.2444035
vn 0.5716753 0.7863769 0.2340912
vn 0.5753195 0.7906704 0.209399
vn 0.5658242 0.7980287 0.2073481
vn 0.5676497 0.8016011 0.1876418
vn 0.5673392 0.8042095 0.1771251
vn 0.568831 0.8033473 0.176251
vn 0.5569816 0.8073471 0.1948384
vn 0.5479786 0.8093658 0.211297
vn 0.5334877 0.8164423 0.2209363
vn 0.2604319 0.8242124 0.5028411
vn 0.07428755 0.8186032 0.569535
vn -0.08957503 0.7766292 0.6235571
vn 0.3537378 0.8447934 0.401489
vn -0.1628478 0.8106128 -0.5624834
vn -0.3182634 0.8397883 -0.4398453
vn -0.0255138 0.9001659 -0.4347993
vn -0.2322203 0.8209671 -0.5216193
vn -0.375477 0.8410208 -0.3894883
vn -0.4324808 0.842626 -0.3208452
vn -0.4812527 0.8298889 -0.2822767
vn -0.5214218 0.8216724 -0.2301603
vn -0.5453418 0.8135932 -0.2016643
vn -0.5482042 0.8171979 -0.1779318
vn -0.5375957 0.8241717 -0.1781338
vn -0.5363 0.8272973 -0.1672173
vn -0.5333357 0.8297355 -0.1645961
vn -0.5362095 0.8289477 -0.1591379
vn -0.5279277 0.8327956 -0.1665649
vn -0.5226872 0.8350582 -0.1716859
vn -0.5082843 0.8416892 -0.1822263
vn 0.3464805 0.760192 -0.5495995
vn 0.3358556 0.7405753 -0.5820216
vn 0.3209736 0.7453763 -0.5842859
vn 0.3318994 0.7198511 -0.6096371
vn 0.3167381 0.7073241 -0.6319569
vn 0.2916693 0.7060303 -0.6453296
vn 0.2818085 0.7167034 -0.637903
vn 0.3130437 0.7441767 -0.5900887
vn 0.3419458 0.7596076 -0.5532354
vn 0.3733365 0.7801157 -0.5020353
vn 0.4116948 0.7880915 -0.4576233
vn 0.4338462 0.790029 -0.4331646
vn 0.4470906 0.7859828 -0.4270142
vn 0.442477 0.7829124 -0.4373353
vn 0.4125856 0.7842348 -0.46341
vn 0.3832251 0.7841141 -0.4881635
vn 0.2991659 0.7825123 -0.5460532
vn 0.232191 0.7740166 -0.5890548
vn 0.1709459 0.7612273 -0.6255481
vn 0.1576826 0.7521132 -0.6398921
vn 0.161912 0.7491493 -0.6423082
vn 0.1140134 0.7367145 -0.6665229
vn 0.08718946 0.7244377 -0.683804
vn 0.02752843 0.7070933 -0.7065843
vn 0.03986046 0.6971223 -0.7158433
vn -0.001106871 0.6834927 -0.7299564
vn -0.02090544 0.6758397 -0.7367521
vn -0.07271235 0.6712845 -0.7376246
vn -0.08363552 0.6720203 -0.7357947
vn -0.09508616 0.671901 -0.7345118
vn -0.09518911 0.6688092 -0.7373149
vn -0.09769628 0.6663644 -0.7391983
vn -0.105469 0.671833 -0.7331553
vn -0.0976605 0.6763664 -0.7300622
vn -0.09132987 0.6834129 -0.7242966
vn -0.05101 0.6785323 -0.7327973
vn -0.03871856 0.6845563 -0.727931
vn -0.008765455 0.6847357 -0.7287388
vn -0.005468599 0.692971 -0.7209448
vn 0.3826211 0.7012337 -0.6015583
vn 0.003799513 0.6943291 -0.7196476
vn -0.02726648 0.7165096 -0.6970443
vn -0.0397277 0.7316316 -0.6805417
vn -0.04624122 0.7422603 -0.6685143
vn -0.02633961 0.736219 -0.6762305
vn -0.01927727 0.7314057 -0.6816701
vn -0.04840716 0.7297153 -0.6820353
vn -0.090152 0.731271 -0.6761032
vn -0.128933 0.7327547 -0.6681669
vn -0.133821 0.7361472 -0.6634601
vn -0.1294281 0.735577 -0.6649622
vn -0.1496889 0.737656 -0.6583744
vn -0.1759218 0.738723 -0.6506458
vn -0.1577435 0.7377657 -0.6563679
vn -0.1340558 0.7280046 -0.6723381
vn -0.09910397 0.7210758 -0.6857319
vn -0.1219112 0.7136586 -0.6898037
vn -0.3190488 0.6717286 0.6685719
vn -0.309955 0.6441848 0.6992524
vn -0.2834778 0.6490786 0.7059301
vn -0.3128942 0.6181194 0.7211279
vn -0.3442046 0.6077925 0.7156196
vn -0.3503352 0.6092678 0.7113776
vn -0.3784927 0.624372 0.6833029
vn -0.4147524 0.6543134 0.6323403
vn -0.4476399 0.6707131 0.5914072
vn -0.4754208 0.6928173 0.5421985
vn -0.4937164 0.7000393 0.5159351
vn -0.4997205 0.7024413 0.5068092
vn -0.5053966 0.6978109 0.5075769
vn -0.5086246 0.6938766 0.5097414
vn -0.4796932 0.6952261 0.5353084
vn -0.4439844 0.6951453 0.5653768
vn -0.2897977 0.6886999 0.6646125
vn -0.2870038 0.6899601 0.6645179
vn -0.1713024 0.6786205 0.7142337
vn -0.1618754 0.6686334 0.7257587
vn -0.0682392 0.6956676 0.7151154
vn 0.000100186 0.7226928 0.6911694
vn 0.2222957 0.7445531 0.6294643
vn 0.1707469 0.7430975 0.6470329
vn 0.4701249 0.7518504 0.4622808
vn 0.5088702 0.7443671 0.4323989
vn 0.6543365 0.7058565 0.2713125
vn 0.6937151 0.6967039 0.182655
vn 0.7735734 0.6326756 0.03613722
vn 0.7889652 0.6136381 -0.03134177
vn 0.8146763 0.5670417 -0.1215163
vn 0.8244306 0.5460949 -0.148642
vn 0.8318795 0.5202363 -0.1932113
vn 0.8377484 0.5028691 -0.2128384
vn 0.8393835 0.4950653 -0.2243788
vn 0.8421954 0.4928628 -0.2186166
vn 0.7055421 0.6018631 -0.3741271
vn 0.8475741 0.4899017 -0.2039965
vn 0.8437374 0.4951223 -0.2072702
vn 0.8508745 0.493309 -0.1807172
vn 0.8610879 0.4803901 -0.1665921
vn 0.867142 0.4810325 -0.129122
vn 0.8754722 0.4699944 -0.112488
vn 0.8699527 0.4928347 -0.01720808
vn 0.8592674 0.5081547 0.05863667
vn 0.8278729 0.534923 0.1687711
vn 0.8237272 0.5309409 0.1989351
vn 0.7831935 0.5456787 0.2980649
vn 0.7475428 0.5554377 0.3642374
vn 0.6364162 0.5907854 0.4959306
vn 0.5599755 0.6128415 0.5575417
vn 0.4520926 0.6263724 0.6350353
vn 0.4063066 0.6358635 0.6561954
vn 0.2931303 0.6414289 0.7089737
vn 0.2236395 0.6357681 0.7387722
vn 0.1512576 0.6278561 0.7634906
vn 0.1681893 0.6192538 0.7669662
g GVG_LaserWires_mesh_0
f 3/3/3 2/2/2 1/1/1
f 4/4/4 2/2/2 3/3/3
f 1/1/1 5/5/5 3/3/3
f 6/6/6 5/5/5 1/1/1
f 6/6/6 7/7/7 5/5/5
f 8/8/8 7/7/7 6/6/6
f 8/8/8 9/9/9 7/7/7
f 10/10/10 9/9/9 8/8/8
f 10/10/10 11/11/11 9/9/9
f 12/12/12 11/11/11 10/10/10
f 13/13/13 10/10/10 8/8/8
f 13/13/13 8/8/8 14/14/14
f 14/14/14 8/8/8 15/15/15
f 14/14/14 15/15/15 16/16/16
f 17/17/17 10/10/10 13/13/13
f 17/17/17 12/12/12 10/10/10
f 18/18/18 12/12/12 17/17/17
f 12/12/12 19/19/19 11/11/11
f 20/20/20 19/19/19 12/12/12
f 18/18/18 20/20/20 12/12/12
f 21/21/21 20/20/20 18/18/18
f 19/19/19 20/20/20 22/22/22
f 22/22/22 20/20/20 23/23/23
f 20/20/20 24/24/24 23/23/23
f 21/21/21 24/24/24 20/20/20
f 24/24/24 25/25/25 23/23/23
f 25/25/25 26/26/26 23/23/23
f 23/23/23 26/26/26 22/22/22
f 27/27/27 25/25/25 24/24/24
f 27/27/27 28/28/28 25/25/25
f 28/28/28 29/29/29 25/25/25
f 25/25/25 29/29/29 26/26/26
f 30/30/30 28/28/28 27/27/27
f 30/30/30 31/31/31 28/28/28
f 31/31/31 32/32/32 28/28/28
f 28/28/28 32/32/32 29/29/29
f 33/33/33 31/31/31 30/30/30
f 33/33/33 34/34/34 31/31/31
f 31/31/31 34/34/34 35/35/35
f 36/36/36 31/31/31 35/35/35
f 32/32/32 31/31/31 36/36/36
f 35/35/35 37/37/37 36/36/36
f 38/38/38 37/37/37 35/35/35
f 34/34/34 39/39/39 35/35/35
f 41/41/41 40/40/40 34/34/34
f 41/41/41 42/42/42 40/40/40
f 43/43/43 42/42/42 41/41/41
f 43/43/43 44/44/44 42/42/42
f 45/45/45 44/44/44 43/43/43
f 45/45/45 46/46/46 44/44/44
f 47/47/47 46/46/46 45/45/45
f 47/47/47 48/48/48 46/46/46
f 49/49/49 48/48/48 47/47/47
f 49/49/49 50/50/50 48/48/48
f 51/51/51 50/50/50 49/49/49
f 51/51/51 52/52/52 50/50/50
f 53/53/53 52/52/52 51/51/51
f 53/53/53 54/54/54 52/52/52
f 55/55/55 54/54/54 53/53/53
f 57/57/57 16/16/16 56/56/56
f 58/58/58 16/16/16 57/57/57
f 16/16/16 59/59/59 56/56/56
f 62/62/62 61/61/61 60/60/60
f 64/64/64 61/61/61 63/63/63
f 64/64/64 65/65/65 61/61/61
f 66/66/66 65/65/65 64/64/64
f 66/66/66 67/67/67 65/65/65
f 68/68/68 67/67/67 66/66/66
f 68/68/68 69/69/69 67/67/67
f 70/70/70 69/69/69 68/68/68
f 70/70/70 71/71/71 69/69/69
f 72/72/72 71/71/71 70/70/70
f 72/72/72 73/73/73 71/71/71
f 74/74/74 73/73/73 72/72/72
f 74/74/74 75/75/75 73/73/73
f 76/76/76 75/75/75 74/74/74
f 79/79/79 78/78/78 77/77/77
f 80/80/80 78/78/78 79/79/79
f 80/80/80 81/81/81 78/78/78
f 82/82/82 81/81/81 80/80/80
f 82/82/82 83/83/83 81/81/81
f 84/84/84 83/83/83 82/82/82
f 84/84/84 85/85/85 83/83/83
f 86/86/86 85/85/85 84/84/84
f 86/86/86 87/87/87 85/85/85
f 88/88/88 87/87/87 86/86/86
f 88/88/88 89/89/89 87/87/87
f 90/90/90 89/89/89 88/88/88
f 90/90/90 91/91/91 89/89/89
f 92/92/92 91/91/91 90/90/90
f 92/92/92 93/93/93 91/91/91
f 94/94/94 93/93/93 92/92/92
f 93/93/93 94/94/94 95/95/95
f 95/95/95 94/94/94 96/96/96
f 96/96/96 97/97/97 95/95/95
f 98/98/98 97/97/97 96/96/96
f 98/98/98 99/99/99 97/97/97
f 100/100/100 99/99/99 98/98/98
f 99/99/99 100/100/100 101/101/101
f 101/101/101 100/100/100 102/102/102
f 102/102/102 103/103/103 101/101/101
f 104/104/104 103/103/103 102/102/102
f 104/104/104 105/105/105 103/103/103
f 106/106/106 105/105/105 104/104/104
f 106/106/106 107/107/107 105/105/105
f 108/108/108 107/107/107 106/106/106
f 108/108/108 109/109/109 107/107/107
f 110/110/110 109/109/109 108/108/108
f 110/110/110 111/111/111 109/109/109
f 112/112/112 111/111/111 110/110/110
f 112/112/112 113/113/113 111/111/111
f 114/114/114 113/113/113 112/112/112
f 114/114/114 115/115/115 113/113/113
f 117/117/117 115/115/115 116/116/116
f 117/117/117 118/118/118 115/115/115
f 119/119/119 118/118/118 117/117/117
f 119/119/119 120/120/120 118/118/118
f 121/121/121 120/120/120 119/119/119
f 121/121/121 122/122/122 120/120/120
f 123/123/123 122/122/122 121/121/121
f 123/123/123 124/124/124 122/122/122
f 125/125/125 124/124/124 123/123/123
f 125/125/125 126/126/126 124/124/124
f 127/127/127 126/126/126 125/125/125
f 127/127/127 128/128/128 126/126/126
f 129/129/129 128/128/128 127/127/127
f 129/129/129 130/130/130 128/128/128
f 131/131/131 130/130/130 129/129/129
f 131/131/131 132/132/132 130/130/130
f 133/133/133 132/132/132 131/131/131
f 136/136/136 135/135/135 134/134/134
f 137/137/137 135/135/135 136/136/136
f 137/137/137 138/138/138 135/135/135
f 139/139/139 138/138/138 137/137/137
f 139/139/139 140/140/140 138/138/138
f 141/141/141 140/140/140 139/139/139
f 141/141/141 142/142/142 140/140/140
f 143/143/143 142/142/142 141/141/141
f 143/143/143 144/144/144 142/142/142
f 145/145/145 144/144/144 143/143/143
f 145/145/145 146/146/146 144/144/144
f 147/147/147 146/146/146 145/145/145
f 147/147/147 148/148/148 146/146/146
f 149/149/149 148/148/148 147/147/147
f 149/149/149 150/150/150 148/148/148
f 151/151/151 150/150/150 149/149/149
f 151/151/151 152/152/152 150/150/150
f 150/150/150 152/152/152 153/153/153
f 152/152/152 154/154/154 153/153/153
f 155/155/155 154/154/154 152/152/152
f 155/155/155 156/156/156 154/154/154
f 157/157/157 156/156/156 155/155/155
f 157/157/157 158/158/158 156/156/156
f 156/156/156 158/158/158 159/159/159
f 158/158/158 160/160/160 159/159/159
f 161/161/161 160/160/160 158/158/158
f 161/161/161 162/162/162 160/160/160
f 163/163/163 162/162/162 161/161/161
f 163/163/163 164/164/164 162/162/162
f 165/165/165 164/164/164 163/163/163
f 165/165/165 166/166/166 164/164/164
f 167/167/167 166/166/166 165/165/165
f 167/167/167 168/168/168 166/166/166
f 169/169/169 168/168/168 167/167/167
f 169/169/169 170/170/170 168/168/168
f 171/171/171 170/170/170 169/169/169
f 171/171/171 173/173/173 172/172/172
f 174/174/174 173/173/173 171/171/171
f 174/174/174 175/175/175 173/173/173
f 176/176/176 175/175/175 174/174/174
f 176/176/176 177/177/177 175/175/175
f 178/178/178 177/177/177 176/176/176
f 178/178/178 179/179/179 177/177/177
f 180/180/180 179/179/179 178/178/178
f 180/180/180 181/181/181 179/179/179
f 182/182/182 181/181/181 180/180/180
f 182/182/182 183/183/183 181/181/181
f 184/184/184 183/183/183 182/182/182
f 184/184/184 185/185/185 183/183/183
f 186/186/186 185/185/185 184/184/184
f 186/186/186 187/187/187 185/185/185
f 188/188/188 187/187/187 186/186/186
f 188/188/188 189/189/189 187/187/187
f 190/190/190 189/189/189 188/188/188
