g GVG_Stove_BoxRocketGreen_mesh
v 90.59022 230.091 -266.7892
v 87.32008 226.5581 -271.4006
v 88.03584 226.8157 -273.4411
v 89.3277 227.1009 -275.1986
v 90.59022 230.091 -266.7892
v 88.03584 226.8157 -273.4411
v 96.7216 192.6226 -311.2748
v 102.4645 193.6485 -315.4386
v 91.03495 227.3856 -276.4669
v 90.59022 230.091 -266.7892
v 109.3233 194.5724 -317.6127
v 92.99097 227.642 -277.1222
v 116.6266 195.304 -317.5839
v 95.05621 227.8451 -277.1522
v 90.59022 230.091 -266.7892
v 123.6596 195.7716 -315.3552
v 97.03152 227.9749 -276.5568
v 90.59022 230.091 -266.7892
v 129.7337 195.9294 -311.1447
v 98.72501 228.0187 -275.3958
v 134.2546 195.762 -305.3647
v 99.97103 227.9722 -273.7829
v 90.59022 230.091 -266.7892
v 136.7794 195.2858 -298.5807
v 100.6461 227.8401 -271.8746
v 137.0612 194.5474 -291.4571
v 100.6817 227.6351 -269.8551
v 135.0724 193.6191 -284.691
v 100.0705 227.3775 -267.9185
v 131.0336 192.5917 -279.085
v 98.85527 227.0923 -266.2372
v 125.342 191.5658 -275.1966
v 97.09634 226.8076 -264.9176
v 90.59022 230.091 -266.7892
v 90.59022 230.091 -266.7892
v 90.59022 230.091 -266.7892
v 90.59022 230.091 -266.7892
v 90.59022 230.091 -266.7892
v 97.09634 226.8076 -264.9176
v 95.0257 226.5511 -264.1484
v 90.59022 230.091 -266.7892
v 95.0257 226.5511 -264.1484
v 92.82978 226.3481 -263.9886
v 90.59022 230.091 -266.7892
v 92.82978 226.3481 -263.9886
v 90.7076 226.2183 -264.4381
v 90.59022 230.091 -266.7892
v 90.7076 226.2183 -264.4381
v 89.02174 226.1745 -265.6068
v 90.59022 230.091 -266.7892
v 87.76704 226.221 -267.211
v 90.59022 230.091 -266.7892
v 87.76704 226.221 -267.211
v 87.23328 226.3532 -269.2596
v 90.59022 230.091 -266.7892
v 87.23328 226.3532 -269.2596
v 87.32008 226.5581 -271.4006
v 92.65678 191.5951 -305.5285
v 90.66799 190.6668 -298.7625
v 92.65678 191.5951 -305.5285
v 87.32008 226.5581 -271.4006
v 88.03584 226.8157 -273.4411
v 87.23328 226.3532 -269.2596
v 90.94978 189.9284 -291.6388
v 87.76704 226.221 -267.211
v 93.47464 189.4522 -284.8549
v 89.02174 226.1745 -265.6068
v 97.99545 189.2848 -279.0749
v 90.7076 226.2183 -264.4381
v 104.0696 189.4426 -274.8643
v 92.82978 226.3481 -263.9886
v 111.1026 189.9102 -272.6357
v 95.0257 226.5511 -264.1484
v 118.4313 190.6418 -272.7437
v 97.09634 226.8076 -264.9176
v 125.342 191.5658 -275.1966
v 128.0103 158.5257 -317.6516
v 130.3732 158.2635 -313.0075
v 124.3567 182.1973 -308.1638
v 126.9415 181.9105 -303.0835
v 120.3359 182.2288 -312.2142
v 124.3347 158.5545 -321.3542
v 115.2725 182.0018 -314.8379
v 119.7061 158.347 -323.7527
v 109.6624 181.5387 -315.7784
v 114.5777 157.9237 -324.6124
v 104.0545 180.8847 -314.9434
v 109.4513 157.3258 -323.8491
v 98.99787 180.1039 -312.4147
v 104.8288 156.6121 -321.5376
v 131.1919 157.7936 -307.8764
v 127.8372 181.3964 -297.4704
v 130.3865 157.1619 -302.7606
v 126.9561 180.7054 -291.8741
v 128.0357 156.4303 -298.1608
v 124.3845 179.9051 -286.8422
v 128.6699 142.4565 -329.8401
v 132.6907 142.425 -325.7899
v 135.2755 142.1382 -320.7095
v 132.7185 140.1328 -304.4682
v 128.7081 139.3015 -300.4934
v 124.3697 155.6704 -294.5272
v 135.2901 140.9331 -309.5001
v 136.1712 141.6241 -315.0964
v 123.6065 142.2295 -332.4639
v 117.9963 141.7664 -333.4044
v 112.3885 141.1124 -332.5694
v 107.3318 140.3316 -330.0407
v 101.1628 155.8522 -317.9041
v 103.3214 139.5003 -326.066
v 101.1628 155.8522 -317.9041
v 104.8288 156.6121 -321.5376
v 94.98747 179.2726 -308.44
v 98.99787 180.1039 -312.4147
v 92.41586 178.4723 -303.4081
v 98.81196 155.1206 -313.3043
v 91.53478 177.7813 -297.8117
v 98.00655 154.4889 -308.1884
v 92.43047 177.2672 -292.1987
v 98.82531 154.019 -303.0573
v 95.01524 176.9804 -287.1183
v 101.1882 153.7568 -298.4132
v 99.03613 176.949 -283.068
v 104.8638 153.728 -294.7107
v 104.0994 177.1759 -280.4442
v 109.4924 153.9355 -292.3121
v 109.7096 177.639 -279.5038
v 114.6209 154.3588 -291.4525
v 115.3175 178.293 -280.3388
v 119.7472 154.9567 -292.2158
v 120.3741 179.0738 -282.8674
v 124.3697 155.6704 -294.5272
v 99.86873 138.009 -315.4377
v 100.7498 138.7 -321.0341
v 103.3214 139.5003 -326.066
v 107.3701 137.1767 -300.6941
v 103.3492 137.2081 -304.7444
v 100.7644 137.4949 -309.8246
v 124.3845 179.9051 -286.8422
v 128.0357 156.4303 -298.1608
v 112.4334 137.4036 -298.0703
v 118.0436 137.8667 -297.1299
v 123.6514 138.5207 -297.9648
v 128.7081 139.3015 -300.4934
vt 0.017122 0.076413
vt 0.020924 0.065429
vt 0.024691 0.063133
vt 0.028957 0.062076
vt 0.017122 0.076413
vt 0.024691 0.063133
vt 0.114305 0.024188
vt 0.128225 0.025275
vt 0.033204 0.062366
vt 0.017122 0.076413
vt 0.14125 0.03101
vt 0.037017 0.063976
vt 0.1521 0.040835
vt 0.040176 0.066739
vt 0.017122 0.076413
vt 0.159707 0.053789
vt 0.042381 0.070385
vt 0.017122 0.076413
vt 0.163322 0.068601
vt 0.043419 0.074555
vt 0.162588 0.083815
vt 0.043189 0.078841
vt 0.017122 0.076413
vt 0.157579 0.097935
vt 0.04171 0.082823
vt 0.148789 0.109576
vt 0.039118 0.086112
vt 0.137084 0.117597
vt 0.035658 0.088386
vt 0.123847 0.121033
vt 0.031616 0.089426
vt 0.11039 0.119544
vt 0.027218 0.089142
vt 0.017122 0.076413
vt 0.017122 0.076413
vt 0.017122 0.076413
vt 0.017122 0.076413
vt 0.017122 0.076413
vt 0.027218 0.089142
vt 0.023069 0.087551
vt 0.017122 0.076413
vt 0.023069 0.087551
vt 0.019526 0.084811
vt 0.017122 0.076413
vt 0.019526 0.084811
vt 0.016891 0.081195
vt 0.017122 0.076413
vt 0.016891 0.081195
vt 0.015877 0.077027
vt 0.017122 0.076413
vt 0.01608 0.072746
vt 0.017122 0.076413
vt 0.01608 0.072746
vt 0.017974 0.06874
vt 0.017122 0.076413
vt 0.017974 0.06874
vt 0.020924 0.065429
vt 0.100852 0.027848
vt 0.089183 0.035893
vt 0.100852 0.027848
vt 0.020924 0.065429
vt 0.024691 0.063133
vt 0.017974 0.06874
vt 0.080434 0.04753
vt 0.01608 0.072746
vt 0.075455 0.061621
vt 0.015877 0.077027
vt 0.07473 0.076791
vt 0.016891 0.081195
vt 0.078328 0.091562
vt 0.019526 0.084811
vt 0.0859 0.104493
vt 0.023069 0.087551
vt 0.096935 0.114143
vt 0.027218 0.089142
vt 0.11039 0.119544
vt 0.193569 0.064935
vt 0.191123 0.075283
vt 0.159913 0.069122
vt 0.157214 0.080561
vt 0.15916 0.057388
vt 0.192887 0.054321
vt 0.155026 0.046513
vt 0.189145 0.044483
vt 0.147919 0.037562
vt 0.18271 0.036387
vt 0.138539 0.031414
vt 0.174215 0.030826
vt 0.127807 0.028669
vt 0.164495 0.028342
vt 0.18579 0.084349
vt 0.151327 0.090582
vt 0.178096 0.091244
vt 0.142832 0.098202
vt 0.168796 0.095296
vt 0.132565 0.102678
vt 0.220906 0.05097
vt 0.221646 0.062499
vt 0.218986 0.073739
vt 0.194712 0.095477
vt 0.183849 0.096359
vt 0.158803 0.096109
vt 0.204822 0.091076
vt 0.213187 0.083586
vt 0.216838 0.040285
vt 0.209843 0.031491
vt 0.200609 0.025452
vt 0.190042 0.022757
vt 0.154502 0.029178
vt 0.17918 0.023666
vt 0.154502 0.029178
vt 0.164495 0.028342
vt 0.116775 0.029592
vt 0.127807 0.028669
vt 0.106524 0.03409
vt 0.145215 0.033247
vt 0.098054 0.041718
vt 0.137542 0.040149
vt 0.092192 0.051729
vt 0.132229 0.049207
vt 0.089506 0.063145
vt 0.129795 0.059536
vt 0.090259 0.074851
vt 0.130476 0.070127
vt 0.094377 0.085705
vt 0.134205 0.079947
vt 0.101459 0.094648
vt 0.14062 0.088038
vt 0.110815 0.100806
vt 0.149095 0.093607
vt 0.121533 0.103574
vt 0.158803 0.096109
vt 0.160745 0.035585
vt 0.169086 0.028088
vt 0.17918 0.023666
vt 0.153063 0.068143
vt 0.152324 0.056641
vt 0.15497 0.045423
vt 0.132565 0.102678
vt 0.168796 0.095296
vt 0.157115 0.078808
vt 0.164086 0.087594
vt 0.173297 0.093642
vt 0.183849 0.096359
vn -0.3205016 0.9472389 0.004168692
vn -0.9235575 0.3509622 -0.1544897
vn -0.7727865 0.5260037 -0.3551354
vn -0.5723055 0.6685017 -0.4749443
vn -0.2098314 0.9777038 -0.008142824
vn -0.7727865 0.5260037 -0.3551354
vn -0.7163702 0.4249363 -0.5533921
vn -0.476808 0.590598 -0.651036
vn -0.3609895 0.7724587 -0.5224885
vn -0.1344121 0.9908665 -0.0108134
vn -0.2319279 0.7055489 -0.6696343
vn -0.1614448 0.8419455 -0.514843
vn -0.009085553 0.7767085 -0.6297945
vn 0.01447195 0.8838835 -0.4674832
vn -0.1158877 0.9925132 0.03856885
vn 0.1875595 0.8152897 -0.5478359
vn 0.1677017 0.9053196 -0.390221
vn -0.06155214 0.9978587 0.02212151
vn 0.3594751 0.8276346 -0.4310436
vn 0.3008938 0.909622 -0.2864448
vn 0.5076756 0.8147897 -0.2799699
vn 0.4149716 0.8965339 -0.1550013
vn -0.05853728 0.9951966 0.07846627
vn 0.628522 0.7724029 -0.09139881
vn 0.5066331 0.8621268 0.00775777
vn 0.709955 0.6907604 0.137164
vn 0.5657851 0.7987395 0.204701
vn 0.7283 0.5555483 0.4011799
vn 0.5734858 0.6954071 0.4330393
vn 0.6500618 0.3564705 0.6710801
vn 0.5062615 0.5475119 0.6662806
vn 0.4820616 0.1348559 0.8656965
vn 0.3656104 0.3811122 0.8491657
vn 0.02803266 0.9875882 0.1545436
vn -0.01953091 0.9903569 0.1371564
vn -0.004691813 0.9967788 0.08006217
vn 0.02621077 0.9724582 0.2315988
vn 0.01707664 0.9389175 0.3437185
vn 0.3656104 0.3811122 0.8491657
vn 0.1415945 0.203354 0.9688127
vn -0.05709076 0.8699916 0.4897501
vn 0.1415945 0.203354 0.9688127
vn -0.1239704 0.05404501 0.9908131
vn -0.184532 0.8133072 0.5517965
vn -0.1239704 0.05404501 0.9908131
vn -0.4336055 -0.04406699 0.9000247
vn -0.4169368 0.7160072 0.5599085
vn -0.4336055 -0.04406699 0.9000247
vn -0.7081997 -0.0640478 0.7031011
vn -0.515955 0.7207592 0.462922
vn -0.9052166 0.01987053 0.4244855
vn -0.5181819 0.8252761 0.2245146
vn -0.9052166 0.01987053 0.4244855
vn -0.9790066 0.1739038 0.1063185
vn -0.4138714 0.9073684 0.07343728
vn -0.9790066 0.1739038 0.1063185
vn -0.9235575 0.3509622 -0.1544897
vn -0.9080053 0.2100383 -0.3625057
vn -0.9951427 -0.0211054 -0.09615399
vn -0.9080053 0.2100383 -0.3625057
vn -0.9235575 0.3509622 -0.1544897
vn -0.7727865 0.5260037 -0.3551354
vn -0.9790066 0.1739038 0.1063185
vn -0.956624 -0.2181289 0.1931066
vn -0.9052166 0.01987053 0.4244855
vn -0.798293 -0.3567623 0.4852308
vn -0.7081997 -0.0640478 0.7031011
vn -0.5930619 -0.3994884 0.6990612
vn -0.4336055 -0.04406699 0.9000247
vn -0.3223421 -0.363151 0.874195
vn -0.1239704 0.05404501 0.9908131
vn -0.04688676 -0.2517833 0.9666472
vn 0.1415945 0.203354 0.9688127
vn 0.243326 -0.07261274 0.9672228
vn 0.3656104 0.3811122 0.8491657
vn 0.4820616 0.1348559 0.8656965
vn 0.7482073 0.4030585 -0.5270006
vn 0.906864 0.3232 -0.2704432
vn 0.8007461 0.3252121 -0.5030335
vn 0.9435468 0.234927 -0.2335143
vn 0.584343 0.376286 -0.7189938
vn 0.5239174 0.4441479 -0.7268034
vn 0.3180317 0.3859622 -0.8659613
vn 0.2563714 0.445812 -0.8576277
vn 0.02428661 0.3546995 -0.9346649
vn -0.0339574 0.4090256 -0.9118909
vn -0.2743658 0.2844022 -0.918607
vn -0.3261674 0.3356003 -0.8837348
vn -0.5520292 0.1792206 -0.8143363
vn -0.5955253 0.2292789 -0.7699226
vn 0.9776281 0.2092268 0.02162314
vn 0.9915627 0.1126792 0.06408647
vn 0.945575 0.07202545 0.3173332
vn 0.9344887 -0.02794347 0.3548943
vn 0.8116436 -0.07189953 0.5797111
vn 0.7797842 -0.1693199 0.6027167
vn 0.4631569 0.5076773 -0.7264638
vn 0.6916869 0.4757221 -0.5433763
vn 0.86235 0.4063998 -0.3019793
vn 0.8352218 0.02742302 0.5492291
vn 0.6344265 -0.1106859 0.7650175
vn 0.5946071 -0.2047736 0.7775025
vn 0.9457401 0.1710279 0.27627
vn 0.9530561 0.3021684 -0.01945193
vn 0.197265 0.502652 -0.8416814
vn -0.08757906 0.4617703 -0.8826653
vn -0.3721104 0.3864756 -0.8439019
vn -0.6327233 0.2798421 -0.7220454
vn -0.8126417 0.09793429 -0.5744758
vn -0.8405949 0.1489711 -0.5207763
vn -0.8126417 0.09793429 -0.5744758
vn -0.5955253 0.2292789 -0.7699226
vn -0.7785026 0.04762837 -0.6258316
vn -0.5520292 0.1792206 -0.8143363
vn -0.9240222 -0.09628312 -0.3700168
vn -0.9482979 -0.04502671 -0.3141715
vn -0.9689733 -0.2346969 -0.07751144
vn -0.9830539 -0.182299 -0.01929239
vn -0.911372 -0.351047 0.2148652
vn -0.9147288 -0.2973538 0.273591
vn -0.7652856 -0.4344262 0.4749861
vn -0.7572005 -0.3787771 0.5321423
vn -0.5524386 -0.4802412 0.6813075
vn -0.532457 -0.4212585 0.7341872
vn -0.29467 -0.4879495 0.8216294
vn -0.2632001 -0.4236862 0.8667271
vn -0.01149371 -0.4585116 0.8886141
vn 0.02944887 -0.3868332 0.9216794
vn 0.2778534 -0.3933099 0.8764159
vn 0.3238598 -0.3125377 0.8929922
vn 0.5508754 -0.2949265 0.7807398
vn 0.5946071 -0.2047736 0.7775025
vn -0.990737 -0.1296774 0.04029788
vn -0.9665028 0.006716864 -0.2565681
vn -0.8405949 0.1489711 -0.5207763
vn -0.505255 -0.3600288 0.784281
vn -0.741649 -0.3219816 0.5884595
vn -0.9110415 -0.2432547 0.3329123
vn 0.7797842 -0.1693199 0.6027167
vn 0.8116436 -0.07189953 0.5797111
vn -0.2256593 -0.3559969 0.9068319
vn 0.07425078 -0.3107879 0.9475746
vn 0.3703419 -0.2270813 0.9007113
vn 0.6344265 -0.1106859 0.7650175
g GVG_Stove_BoxRocketGreen_mesh_0
f 3/3/3 2/2/2 1/1/1
f 6/6/6 5/5/5 4/4/4
f 4/4/4 7/7/7 6/6/6
f 4/4/4 8/8/8 7/7/7
f 9/9/9 8/8/8 4/4/4
f 4/4/4 10/10/10 9/9/9
f 9/9/9 11/11/11 8/8/8
f 12/12/12 11/11/11 9/9/9
f 9/9/9 10/10/10 12/12/12
f 12/12/12 13/13/13 11/11/11
f 14/14/14 13/13/13 12/12/12
f 12/12/12 15/15/15 14/14/14
f 14/14/14 16/16/16 13/13/13
f 17/17/17 16/16/16 14/14/14
f 14/14/14 18/18/18 17/17/17
f 17/17/17 19/19/19 16/16/16
f 20/20/20 19/19/19 17/17/17
f 17/17/17 18/18/18 20/20/20
f 20/20/20 21/21/21 19/19/19
f 22/22/22 21/21/21 20/20/20
f 20/20/20 23/23/23 22/22/22
f 22/22/22 24/24/24 21/21/21
f 25/25/25 24/24/24 22/22/22
f 25/25/25 26/26/26 24/24/24
f 27/27/27 26/26/26 25/25/25
f 27/27/27 28/28/28 26/26/26
f 29/29/29 28/28/28 27/27/27
f 29/29/29 30/30/30 28/28/28
f 31/31/31 30/30/30 29/29/29
f 31/31/31 32/32/32 30/30/30
f 33/33/33 32/32/32 31/31/31
f 34/34/34 29/29/29 27/27/27
f 31/31/31 29/29/29 34/34/34
f 25/25/25 35/35/35 27/27/27
f 22/22/22 36/36/36 25/25/25
f 33/33/33 31/31/31 37/37/37
f 40/40/40 39/39/39 38/38/38
f 43/43/43 42/42/42 41/41/41
f 46/46/46 45/45/45 44/44/44
f 49/49/49 48/48/48 47/47/47
f 51/51/51 49/49/49 50/50/50
f 54/54/54 53/53/53 52/52/52
f 57/57/57 56/56/56 55/55/55
f 6/6/6 7/7/7 58/58/58
f 61/61/61 60/60/60 59/59/59
f 62/62/62 60/60/60 61/61/61
f 61/61/61 59/59/59 63/63/63
f 63/63/63 59/59/59 64/64/64
f 63/63/63 64/64/64 65/65/65
f 65/65/65 64/64/64 66/66/66
f 65/65/65 66/66/66 67/67/67
f 67/67/67 66/66/66 68/68/68
f 67/67/67 68/68/68 69/69/69
f 69/69/69 68/68/68 70/70/70
f 69/69/69 70/70/70 71/71/71
f 71/71/71 70/70/70 72/72/72
f 71/71/71 72/72/72 73/73/73
f 73/73/73 72/72/72 74/74/74
f 73/73/73 74/74/74 75/75/75
f 75/75/75 74/74/74 76/76/76
f 79/79/79 78/78/78 77/77/77
f 80/80/80 78/78/78 79/79/79
f 79/79/79 77/77/77 81/81/81
f 81/81/81 77/77/77 82/82/82
f 81/81/81 82/82/82 83/83/83
f 83/83/83 82/82/82 84/84/84
f 83/83/83 84/84/84 85/85/85
f 85/85/85 84/84/84 86/86/86
f 85/85/85 86/86/86 87/87/87
f 87/87/87 86/86/86 88/88/88
f 87/87/87 88/88/88 89/89/89
f 89/89/89 88/88/88 90/90/90
f 80/80/80 91/91/91 78/78/78
f 92/92/92 91/91/91 80/80/80
f 92/92/92 93/93/93 91/91/91
f 94/94/94 93/93/93 92/92/92
f 94/94/94 95/95/95 93/93/93
f 96/96/96 95/95/95 94/94/94
f 82/82/82 97/97/97 84/84/84
f 82/82/82 98/98/98 97/97/97
f 77/77/77 98/98/98 82/82/82
f 77/77/77 99/99/99 98/98/98
f 78/78/78 99/99/99 77/77/77
f 95/95/95 100/100/100 93/93/93
f 95/95/95 101/101/101 100/100/100
f 102/102/102 101/101/101 95/95/95
f 93/93/93 100/100/100 103/103/103
f 93/93/93 103/103/103 91/91/91
f 91/91/91 103/103/103 104/104/104
f 78/78/78 104/104/104 99/99/99
f 91/91/91 104/104/104 78/78/78
f 84/84/84 97/97/97 105/105/105
f 84/84/84 105/105/105 86/86/86
f 86/86/86 105/105/105 106/106/106
f 86/86/86 106/106/106 88/88/88
f 88/88/88 106/106/106 107/107/107
f 88/88/88 107/107/107 90/90/90
f 90/90/90 107/107/107 108/108/108
f 90/90/90 108/108/108 109/109/109
f 109/109/109 108/108/108 110/110/110
f 113/113/113 112/112/112 111/111/111
f 114/114/114 112/112/112 113/113/113
f 113/113/113 111/111/111 115/115/115
f 115/115/115 111/111/111 116/116/116
f 115/115/115 116/116/116 117/117/117
f 117/117/117 116/116/116 118/118/118
f 117/117/117 118/118/118 119/119/119
f 119/119/119 118/118/118 120/120/120
f 119/119/119 120/120/120 121/121/121
f 121/121/121 120/120/120 122/122/122
f 121/121/121 122/122/122 123/123/123
f 123/123/123 122/122/122 124/124/124
f 123/123/123 124/124/124 125/125/125
f 125/125/125 124/124/124 126/126/126
f 125/125/125 126/126/126 127/127/127
f 127/127/127 126/126/126 128/128/128
f 127/127/127 128/128/128 129/129/129
f 129/129/129 128/128/128 130/130/130
f 129/129/129 130/130/130 131/131/131
f 131/131/131 130/130/130 132/132/132
f 118/118/118 133/133/133 120/120/120
f 118/118/118 134/134/134 133/133/133
f 116/116/116 134/134/134 118/118/118
f 116/116/116 135/135/135 134/134/134
f 111/111/111 135/135/135 116/116/116
f 124/124/124 136/136/136 126/126/126
f 124/124/124 137/137/137 136/136/136
f 122/122/122 137/137/137 124/124/124
f 122/122/122 138/138/138 137/137/137
f 120/120/120 133/133/133 138/138/138
f 120/120/120 138/138/138 122/122/122
f 131/131/131 132/132/132 139/139/139
f 139/139/139 132/132/132 140/140/140
f 126/126/126 136/136/136 141/141/141
f 126/126/126 141/141/141 128/128/128
f 128/128/128 141/141/141 142/142/142
f 128/128/128 142/142/142 130/130/130
f 130/130/130 142/142/142 143/143/143
f 130/130/130 143/143/143 132/132/132
f 132/132/132 143/143/143 144/144/144
