g GVG_TeleporterLever3_mesh
v 1212.964 153.6653 -1017.815
v 1213.806 154.0745 -1016.42
v 1212.931 155.9336 -1019.373
v 1214.533 156.712 -1016.72
v 1210.659 154.0217 -1020.554
v 1211.77 152.6602 -1018.436
v 1208.586 151.7061 -1019.812
v 1210.68 151.4428 -1018.045
v 1207.503 149.8718 -1017.43
v 1210.11 150.4784 -1016.793
v 1207.823 149.2193 -1014.318
v 1210.279 150.1353 -1015.157
v 1209.425 149.9977 -1011.665
v 1211.121 150.5445 -1013.763
v 1211.697 151.9097 -1010.484
v 1212.315 151.5499 -1013.142
v 1213.771 154.2251 -1011.227
v 1213.406 152.7671 -1013.532
v 1214.854 156.0594 -1013.608
v 1213.975 153.7315 -1014.784
v 1204.773 150.0479 -1017.729
v 1205.214 149.1497 -1013.446
v 1207.419 150.2211 -1009.795
v 1210.546 152.8529 -1008.17
v 1213.4 156.0396 -1009.191
v 1214.89 158.5645 -1012.469
v 1214.449 159.4627 -1016.752
v 1212.244 158.3913 -1020.403
v 1209.117 155.7596 -1022.029
v 1206.263 152.5727 -1021.007
v 1207.295 157.704 -1022.716
v 1210.97 160.7977 -1020.805
v 1203.94 153.9576 -1021.516
v 1202.187 150.9896 -1017.662
v 1202.706 149.9336 -1012.627
v 1205.299 151.193 -1008.335
v 1208.974 154.2868 -1006.424
v 1212.329 158.0332 -1007.625
v 1200 152.6044 -1017.234
v 1201.843 155.7251 -1021.286
v 1205.371 159.6644 -1022.549
v 1200.546 151.4942 -1011.941
v 1203.272 152.8184 -1007.427
v 1207.136 156.0715 -1005.418
v 1200.178 157.7025 -1020.342
v 1203.533 161.4489 -1021.543
v 1198.425 154.7345 -1016.489
v 1198.944 153.6785 -1011.454
v 1201.536 154.938 -1007.161
v 1205.212 158.0316 -1005.251
v 1197.617 157.1714 -1015.498
v 1199.108 159.6961 -1018.776
v 1198.058 156.273 -1011.215
v 1200.263 157.3444 -1007.563
v 1212.244 158.3913 -1020.403
v 1214.449 159.4627 -1016.752
v 1210.97 160.7977 -1020.805
v 1213.563 162.0571 -1016.513
v 1214.89 158.5645 -1012.469
v 1214.082 161.0012 -1011.478
v 1213.4 156.0396 -1009.191
v 1212.329 158.0332 -1007.625
v 1209.235 162.9173 -1020.54
v 1211.961 164.2416 -1016.026
v 1205.371 159.6644 -1022.549
v 1207.295 157.704 -1022.716
v 1212.507 163.1313 -1010.733
v 1210.664 160.0106 -1006.68
v 1208.974 154.2868 -1006.424
v 1207.136 156.0715 -1005.418
v 1207.208 164.5426 -1019.632
v 1209.801 165.802 -1015.34
v 1203.533 161.4489 -1021.543
v 1208.567 161.7782 -1006.451
v 1205.212 158.0316 -1005.251
v 1210.32 164.7461 -1010.305
v 1205.088 165.5145 -1018.172
v 1207.293 166.586 -1014.52
v 1201.961 162.8829 -1019.797
v 1199.108 159.6961 -1018.776
v 1200.178 157.7025 -1020.342
v 1207.734 165.6878 -1010.238
v 1206.244 163.163 -1006.959
v 1203.39 159.9762 -1005.938
v 1203.082 165.7381 -1016.302
v 1204.684 166.5165 -1013.648
v 1200.81 163.826 -1017.482
v 1198.737 161.5107 -1016.74
v 1197.653 159.6762 -1014.359
v 1197.617 157.1714 -1015.498
v 1197.974 159.0237 -1011.247
v 1198.058 156.273 -1011.215
v 1199.576 159.802 -1008.594
v 1200.263 157.3444 -1007.563
v 1201.536 154.938 -1007.161
v 1201.848 161.7141 -1007.413
v 1203.921 164.0295 -1008.155
v 1205.004 165.8637 -1010.537
v 1199.101 162.9686 -1014.435
v 1200.191 164.1859 -1014.825
v 1198.532 162.0043 -1013.183
v 1199.543 162.0704 -1010.152
v 1198.7 161.6612 -1011.547
v 1201.827 164.2928 -1009.921
v 1200.737 163.0756 -1009.531
v 1202.397 165.2573 -1011.174
v 1202.228 165.6003 -1012.809
v 1201.386 165.1912 -1014.204
v 1200.166 163.9273 -1012.085
v 1213.071 154.9304 -1015.276
v 1211.967 154.3937 -1017.105
v 1226.757 146.6651 -1014.789
v 1225.651 146.128 -1016.62
v 1210.4 153.0754 -1017.919
v 1224.084 144.8085 -1017.435
v 1226.979 146.2149 -1012.642
v 1213.293 154.4805 -1013.13
v 1226.231 144.9491 -1010.999
v 1212.546 153.2155 -1011.488
v 1224.8 143.3514 -1010.487
v 1211.116 151.619 -1010.976
v 1233.579 131.8071 -1012.424
v 1232.474 131.27 -1014.254
v 1233.054 130.091 -1008.633
v 1231.623 128.4934 -1008.121
v 1233.801 131.3568 -1010.277
v 1230.055 127.1738 -1008.936
v 1223.233 142.0318 -1011.302
v 1210.4 153.0754 -1017.919
v 1208.971 151.4786 -1017.408
v 1224.084 144.8085 -1017.435
v 1222.653 143.211 -1016.923
v 1208.224 150.2137 -1015.765
v 1221.906 141.9451 -1015.279
v 1208.445 149.7636 -1013.62
v 1222.127 141.4949 -1013.132
v 1209.55 150.3004 -1011.79
v 1223.233 142.0318 -1011.302
v 1211.116 151.619 -1010.976
v 1224.8 143.3514 -1010.487
v 1229.476 128.3529 -1014.557
v 1230.907 129.9505 -1015.069
v 1228.729 127.0871 -1012.914
v 1228.95 126.6368 -1010.766
v 1230.055 127.1738 -1008.936
v 1232.474 131.27 -1014.254
v 1225.651 146.128 -1016.62
vt 0.040446 0.432802
vt 0.042281 0.435467
vt 0.041091 0.428758
vt 0.044585 0.433832
vt 0.03589 0.427116
vt 0.037714 0.431938
vt 0.030973 0.429525
vt 0.035128 0.433202
vt 0.028216 0.435058
vt 0.033676 0.43611
vt 0.028663 0.4416
vt 0.033911 0.43955
vt 0.032142 0.446664
vt 0.035741 0.442213
vt 0.037331 0.44832
vt 0.03847 0.443081
vt 0.042255 0.445928
vt 0.041058 0.441822
vt 0.045029 0.440394
vt 0.042514 0.438914
vt 0.022751 0.434385
vt 0.023368 0.443389
vt 0.028155 0.45036
vt 0.035296 0.452644
vt 0.042075 0.449356
vt 0.045897 0.441735
vt 0.045285 0.432692
vt 0.040471 0.425702
vt 0.033307 0.423443
vt 0.026541 0.426766
vt 0.030216 0.42128
vt 0.038642 0.423935
vt 0.022262 0.425193
vt 0.01781 0.434155
vt 0.018538 0.444744
vt 0.024165 0.452943
vt 0.032559 0.455633
vt 0.040531 0.45177
vt 0.013873 0.434391
vt 0.018553 0.424961
vt 0.026917 0.420843
vt 0.014642 0.445533
vt 0.02056 0.45416
vt 0.029388 0.456993
vt 0.015778 0.426097
vt 0.023734 0.422179
vt 0.011326 0.435072
vt 0.01206 0.445678
vt 0.017692 0.453891
vt 0.026092 0.456587
vt 0.010421 0.436131
vt 0.01421 0.428491
vt 0.011046 0.445164
vt 0.015842 0.452157
vt 0.040471 0.425702
vt 0.045285 0.432692
vt 0.038642 0.423935
vt 0.044307 0.432161
vt 0.045897 0.441735
vt 0.045027 0.442804
vt 0.042075 0.449356
vt 0.040531 0.45177
vt 0.035781 0.423636
vt 0.041741 0.432295
vt 0.026917 0.420843
vt 0.030216 0.42128
vt 0.0425 0.443495
vt 0.037772 0.45293
vt 0.032559 0.455633
vt 0.029388 0.456993
vt 0.032166 0.424839
vt 0.037836 0.43308
vt 0.023734 0.422179
vt 0.034066 0.452719
vt 0.026092 0.456587
vt 0.038561 0.443739
vt 0.028153 0.427427
vt 0.032976 0.434441
vt 0.02098 0.42516
vt 0.01421 0.428491
vt 0.015778 0.426097
vt 0.033594 0.443511
vt 0.029774 0.451155
vt 0.02299 0.45445
vt 0.024137 0.431147
vt 0.02764 0.436244
vt 0.018927 0.429496
vt 0.014007 0.431914
vt 0.011251 0.437468
vt 0.010421 0.436131
vt 0.011705 0.444038
vt 0.011046 0.445164
vt 0.015193 0.449124
vt 0.015842 0.452157
vt 0.017692 0.453891
vt 0.020391 0.450789
vt 0.025318 0.44839
vt 0.028091 0.442834
vt 0.015191 0.43603
vt 0.017779 0.434761
vt 0.013741 0.438951
vt 0.015815 0.445085
vt 0.013979 0.442409
vt 0.02114 0.444695
vt 0.01855 0.445959
vt 0.022595 0.441773
vt 0.022357 0.43831
vt 0.020517 0.43563
vt 0.017649 0.440435
vt 0.041061 0.437453
vt 0.038655 0.433955
vt 0.066101 0.441633
vt 0.063695 0.438145
vt 0.03507 0.43282
vt 0.060108 0.437011
vt 0.066402 0.44614
vt 0.041368 0.441974
vt 0.064484 0.44994
vt 0.039458 0.445787
vt 0.061083 0.451581
vt 0.036065 0.447436
vt 0.074998 0.452064
vt 0.072606 0.448596
vt 0.073385 0.460309
vt 0.070001 0.461932
vt 0.075295 0.45654
vt 0.066437 0.460793
vt 0.057501 0.450441
vt 0.03507 0.43282
vt 0.031681 0.434478
vt 0.060108 0.437011
vt 0.05671 0.438661
vt 0.029779 0.438291
vt 0.0548 0.44246
vt 0.030087 0.442802
vt 0.055102 0.446958
vt 0.032487 0.446295
vt 0.057501 0.450441
vt 0.036065 0.447436
vt 0.061083 0.451581
vt 0.065655 0.449095
vt 0.069037 0.447463
vt 0.063753 0.452864
vt 0.064051 0.45733
vt 0.066437 0.460793
vt 0.072606 0.448596
vt 0.063695 0.438145
vn 0.7382723 -0.3744703 -0.5610045
vn 0.8945454 -0.2854679 -0.3439428
vn 0.750659 -0.226813 -0.6205376
vn 0.9367733 -0.1328582 -0.3237354
vn 0.4918178 -0.4471912 -0.7470846
vn 0.5352476 -0.5545803 -0.6371425
vn 0.2591408 -0.7097983 -0.6550057
vn 0.3630346 -0.7570169 -0.5432599
vn 0.1414876 -0.9143289 -0.3794523
vn 0.2873634 -0.9044632 -0.3152277
vn 0.1838021 -0.9826266 -0.02572427
vn 0.3371404 -0.9405981 -0.04014224
vn 0.3698996 -0.8886365 0.2711076
vn 0.4934288 -0.8516014 0.1769264
vn 0.6287524 -0.6682524 0.3976296
vn 0.6964713 -0.6714874 0.2530461
vn 0.8614383 -0.4056605 0.3055548
vn 0.8686891 -0.4690874 0.1591737
vn 0.9791013 -0.2011485 0.029998
vn 0.9443552 -0.3216284 -0.06890953
vn -0.1684467 -0.8930505 -0.4172367
vn -0.1141168 -0.9910228 0.0696498
vn 0.1394203 -0.8653479 0.4813887
vn 0.495266 -0.5640388 0.6607359
vn 0.8175604 -0.2021751 0.5391847
vn 0.9831836 0.08202869 0.1631602
vn 0.9288732 0.1799624 -0.3237409
vn 0.675378 0.05426344 -0.7354726
vn 0.3195097 -0.2470116 -0.9148217
vn -0.002809365 -0.608849 -0.7932811
vn 0.1154167 -0.02251432 -0.993062
vn 0.5335376 0.3303455 -0.7785946
vn -0.2649416 -0.4482539 -0.8537413
vn -0.4622528 -0.7842547 -0.4138439
vn -0.4011453 -0.9021819 0.1585888
vn -0.1049439 -0.7569968 0.6449362
vn 0.3132165 -0.4041505 0.8593939
vn 0.6935651 0.02158783 0.7200704
vn -0.7108731 -0.598396 -0.3695696
vn -0.5013737 -0.2435821 -0.8302362
vn -0.1003727 0.204238 -0.9737619
vn -0.6488544 -0.7246036 0.2322447
vn -0.3390101 -0.57404 0.7453524
vn 0.1003437 -0.2042289 0.9737667
vn -0.6885026 -0.01497485 -0.7250792
vn -0.3062627 0.4108715 -0.8587128
vn -0.8896315 -0.3536336 -0.2889617
vn -0.8327742 -0.4757696 0.283073
vn -0.5396987 -0.3346583 0.7724825
vn -0.1223636 0.01576156 0.9923602
vn -0.9808194 -0.07423295 -0.18023
vn -0.807745 0.2150785 -0.5488982
vn -0.9348622 -0.1803395 0.3057944
vn -0.6874049 -0.0626702 0.7235655
vn 0.675378 0.05426344 -0.7354726
vn 0.9288732 0.1799624 -0.3237409
vn 0.5335376 0.3303455 -0.7785946
vn 0.8297275 0.4755464 -0.2922463
vn 0.9831836 0.08202869 0.1631602
vn 0.8908464 0.3576092 0.2801934
vn 0.8175604 -0.2021751 0.5391847
vn 0.6935651 0.02158783 0.7200704
vn 0.3389943 0.5740367 -0.7453621
vn 0.6488719 0.7245901 -0.2322381
vn -0.1003727 0.204238 -0.9737619
vn 0.1154167 -0.02251432 -0.993062
vn 0.7109059 0.5983616 0.369562
vn 0.5014073 0.2435773 0.8302174
vn 0.3132165 -0.4041505 0.8593939
vn 0.1003437 -0.2042289 0.9737667
vn 0.1111125 0.7612928 -0.6388171
vn 0.4041897 0.9023913 -0.1494011
vn -0.3062627 0.4108715 -0.8587128
vn 0.2598861 0.4416375 0.8587291
vn -0.1223636 0.01576156 0.9923602
vn 0.4610348 0.7802935 0.4225979
vn -0.1273433 0.8737112 -0.4694811
vn 0.1200977 0.9914128 -0.05174213
vn -0.4817473 0.5771691 -0.65939
vn -0.807745 0.2150785 -0.5488982
vn -0.6885026 -0.01497485 -0.7250792
vn 0.1660394 0.8853297 0.4343066
vn -0.007020753 0.5959725 0.8029741
vn -0.3329913 0.2338546 0.9134707
vn -0.3528303 0.900497 -0.2541968
vn -0.1753197 0.9831805 0.05117632
vn -0.6095919 0.6869005 -0.3956836
vn -0.8475433 0.4239118 -0.3193261
vn -0.97574 0.2121025 -0.0542597
vn -0.9808194 -0.07423295 -0.18023
vn -0.9452733 0.1322742 0.2982647
vn -0.9348622 -0.1803395 0.3057944
vn -0.767753 0.2149675 0.6036095
vn -0.6874049 -0.0626702 0.7235655
vn -0.5396987 -0.3346583 0.7724825
vn -0.510971 0.4285759 0.7451384
vn -0.273055 0.6915228 0.6687578
vn -0.1448303 0.9033559 0.4036983
vn -0.8050351 0.5858923 -0.09299879
vn -0.6636044 0.7377146 -0.1241219
vn -0.8875954 0.457777 0.05113345
vn -0.7845119 0.440696 0.4362661
vn -0.8797551 0.4023335 0.2532957
vn -0.496836 0.7100484 0.4989843
vn -0.6382322 0.5582478 0.5301123
vn -0.4142781 0.8381376 0.3548225
vn -0.4221202 0.8935881 0.1526918
vn -0.5173776 0.8552204 -0.03030597
vn -0.692013 0.6888757 0.2157971
vn 0.5173178 0.8515726 -0.08489031
vn 0.4007571 0.6241394 -0.6707039
vn 0.7359029 0.6248159 -0.2608678
vn 0.5191189 0.349541 -0.7799593
vn 0.1186776 0.1388202 -0.9831808
vn 0.1328772 -0.04170745 -0.9902546
vn 0.6569522 0.6463899 0.3880642
vn 0.4323957 0.7458402 0.5067112
vn 0.3064241 0.4127538 0.857752
vn 0.1965621 0.3788959 0.9043236
vn -0.1329521 0.04183536 0.9902391
vn -0.1188535 -0.13856 0.9831963
vn 0.8598874 0.3332646 -0.3866889
vn 0.5651934 0.1298019 -0.8146827
vn 0.5141504 0.3600361 0.778475
vn -0.06770112 0.1264911 0.9896548
vn 0.8746468 0.4355106 0.2128929
vn -0.5651413 -0.1297728 0.8147234
vn -0.519173 -0.3493861 0.7799927
vn 0.1186776 0.1388202 -0.9831808
vn -0.1967905 -0.3787197 -0.9043477
vn 0.1328772 -0.04170745 -0.9902546
vn -0.3065532 -0.4126821 -0.8577403
vn -0.4326428 -0.7456967 -0.5067116
vn -0.6570537 -0.6462826 -0.3880712
vn -0.5175664 -0.8514214 0.08489142
vn -0.7359994 -0.6247046 0.260862
vn -0.4009608 -0.6238966 0.670808
vn -0.519173 -0.3493861 0.7799927
vn -0.1188535 -0.13856 0.9831963
vn -0.1329521 0.04183536 0.9902391
vn -0.5141774 -0.3600406 -0.778455
vn 0.06774111 -0.1264708 -0.9896545
vn -0.874626 -0.4355134 -0.2129728
vn -0.8598841 -0.3332613 0.386699
vn -0.5651413 -0.1297728 0.8147234
vn 0.5651934 0.1298019 -0.8146827
vn 0.5191189 0.349541 -0.7799593
g GVG_TeleporterLever3_mesh_0
f 3/3/3 2/2/2 1/1/1
f 4/4/4 2/2/2 3/3/3
f 3/3/3 1/1/1 5/5/5
f 5/5/5 1/1/1 6/6/6
f 5/5/5 6/6/6 7/7/7
f 7/7/7 6/6/6 8/8/8
f 7/7/7 8/8/8 9/9/9
f 9/9/9 8/8/8 10/10/10
f 9/9/9 10/10/10 11/11/11
f 11/11/11 10/10/10 12/12/12
f 11/11/11 12/12/12 13/13/13
f 13/13/13 12/12/12 14/14/14
f 13/13/13 14/14/14 15/15/15
f 15/15/15 14/14/14 16/16/16
f 15/15/15 16/16/16 17/17/17
f 17/17/17 16/16/16 18/18/18
f 17/17/17 18/18/18 19/19/19
f 19/19/19 18/18/18 20/20/20
f 19/19/19 20/20/20 4/4/4
f 4/4/4 20/20/20 2/2/2
f 21/21/21 7/7/7 9/9/9
f 22/22/22 9/9/9 11/11/11
f 21/21/21 9/9/9 22/22/22
f 23/23/23 11/11/11 13/13/13
f 22/22/22 11/11/11 23/23/23
f 24/24/24 13/13/13 15/15/15
f 23/23/23 13/13/13 24/24/24
f 25/25/25 15/15/15 17/17/17
f 24/24/24 15/15/15 25/25/25
f 26/26/26 17/17/17 19/19/19
f 25/25/25 17/17/17 26/26/26
f 27/27/27 19/19/19 4/4/4
f 26/26/26 19/19/19 27/27/27
f 27/27/27 4/4/4 28/28/28
f 28/28/28 4/4/4 3/3/3
f 28/28/28 3/3/3 29/29/29
f 29/29/29 3/3/3 5/5/5
f 29/29/29 5/5/5 30/30/30
f 30/30/30 5/5/5 7/7/7
f 30/30/30 7/7/7 21/21/21
f 31/31/31 28/28/28 29/29/29
f 32/32/32 28/28/28 31/31/31
f 33/33/33 29/29/29 30/30/30
f 31/31/31 29/29/29 33/33/33
f 33/33/33 30/30/30 34/34/34
f 34/34/34 30/30/30 21/21/21
f 34/34/34 21/21/21 35/35/35
f 35/35/35 21/21/21 22/22/22
f 35/35/35 22/22/22 36/36/36
f 36/36/36 22/22/22 23/23/23
f 36/36/36 23/23/23 37/37/37
f 37/37/37 23/23/23 24/24/24
f 37/37/37 24/24/24 38/38/38
f 38/38/38 24/24/24 25/25/25
f 39/39/39 33/33/33 34/34/34
f 40/40/40 33/33/33 39/39/39
f 40/40/40 31/31/31 33/33/33
f 41/41/41 31/31/31 40/40/40
f 42/42/42 34/34/34 35/35/35
f 39/39/39 34/34/34 42/42/42
f 43/43/43 35/35/35 36/36/36
f 42/42/42 35/35/35 43/43/43
f 44/44/44 36/36/36 37/37/37
f 43/43/43 36/36/36 44/44/44
f 45/45/45 41/41/41 40/40/40
f 46/46/46 41/41/41 45/45/45
f 47/47/47 40/40/40 39/39/39
f 45/45/45 40/40/40 47/47/47
f 48/48/48 39/39/39 42/42/42
f 47/47/47 39/39/39 48/48/48
f 49/49/49 42/42/42 43/43/43
f 48/48/48 42/42/42 49/49/49
f 50/50/50 43/43/43 44/44/44
f 49/49/49 43/43/43 50/50/50
f 51/51/51 45/45/45 47/47/47
f 52/52/52 45/45/45 51/51/51
f 53/53/53 47/47/47 48/48/48
f 51/51/51 47/47/47 53/53/53
f 54/54/54 48/48/48 49/49/49
f 53/53/53 48/48/48 54/54/54
f 57/57/57 56/56/56 55/55/55
f 58/58/58 56/56/56 57/57/57
f 58/58/58 59/59/59 56/56/56
f 60/60/60 59/59/59 58/58/58
f 60/60/60 61/61/61 59/59/59
f 62/62/62 61/61/61 60/60/60
f 63/63/63 58/58/58 57/57/57
f 64/64/64 58/58/58 63/63/63
f 64/64/64 60/60/60 58/58/58
f 63/63/63 57/57/57 65/65/65
f 65/65/65 57/57/57 66/66/66
f 67/67/67 62/62/62 60/60/60
f 67/67/67 60/60/60 64/64/64
f 68/68/68 62/62/62 67/67/67
f 68/68/68 69/69/69 62/62/62
f 70/70/70 69/69/69 68/68/68
f 71/71/71 64/64/64 63/63/63
f 72/72/72 64/64/64 71/71/71
f 72/72/72 67/67/67 64/64/64
f 73/73/73 63/63/63 65/65/65
f 71/71/71 63/63/63 73/73/73
f 74/74/74 70/70/70 68/68/68
f 75/75/75 70/70/70 74/74/74
f 76/76/76 68/68/68 67/67/67
f 74/74/74 68/68/68 76/76/76
f 76/76/76 67/67/67 72/72/72
f 77/77/77 72/72/72 71/71/71
f 78/78/78 72/72/72 77/77/77
f 78/78/78 76/76/76 72/72/72
f 79/79/79 71/71/71 73/73/73
f 77/77/77 71/71/71 79/79/79
f 79/79/79 73/73/73 80/80/80
f 80/80/80 73/73/73 81/81/81
f 82/82/82 74/74/74 76/76/76
f 82/82/82 76/76/76 78/78/78
f 83/83/83 74/74/74 82/82/82
f 83/83/83 75/75/75 74/74/74
f 84/84/84 75/75/75 83/83/83
f 85/85/85 78/78/78 77/77/77
f 86/86/86 78/78/78 85/85/85
f 86/86/86 82/82/82 78/78/78
f 87/87/87 77/77/77 79/79/79
f 85/85/85 77/77/77 87/87/87
f 88/88/88 79/79/79 80/80/80
f 87/87/87 79/79/79 88/88/88
f 88/88/88 80/80/80 89/89/89
f 89/89/89 80/80/80 90/90/90
f 89/89/89 90/90/90 91/91/91
f 91/91/91 90/90/90 92/92/92
f 91/91/91 92/92/92 93/93/93
f 93/93/93 92/92/92 94/94/94
f 94/94/94 95/95/95 84/84/84
f 84/84/84 95/95/95 75/75/75
f 96/96/96 94/94/94 84/84/84
f 93/93/93 94/94/94 96/96/96
f 97/97/97 84/84/84 83/83/83
f 96/96/96 84/84/84 97/97/97
f 97/97/97 83/83/83 98/98/98
f 98/98/98 83/83/83 82/82/82
f 98/98/98 82/82/82 86/86/86
f 99/99/99 87/87/87 88/88/88
f 100/100/100 87/87/87 99/99/99
f 101/101/101 88/88/88 89/89/89
f 99/99/99 88/88/88 101/101/101
f 102/102/102 91/91/91 93/93/93
f 103/103/103 91/91/91 102/102/102
f 101/101/101 89/89/89 103/103/103
f 103/103/103 89/89/89 91/91/91
f 104/104/104 96/96/96 97/97/97
f 105/105/105 96/96/96 104/104/104
f 105/105/105 93/93/93 96/96/96
f 102/102/102 93/93/93 105/105/105
f 106/106/106 97/97/97 98/98/98
f 104/104/104 97/97/97 106/106/106
f 106/106/106 98/98/98 107/107/107
f 107/107/107 98/98/98 86/86/86
f 107/107/107 86/86/86 108/108/108
f 108/108/108 86/86/86 85/85/85
f 108/108/108 85/85/85 100/100/100
f 100/100/100 85/85/85 87/87/87
f 109/109/109 107/107/107 108/108/108
f 109/109/109 103/103/103 102/102/102
f 109/109/109 102/102/102 105/105/105
f 109/109/109 105/105/105 104/104/104
f 109/109/109 104/104/104 106/106/106
f 109/109/109 106/106/106 107/107/107
f 109/109/109 108/108/108 100/100/100
f 109/109/109 101/101/101 103/103/103
f 109/109/109 100/100/100 99/99/99
f 109/109/109 99/99/99 101/101/101
f 112/112/112 111/111/111 110/110/110
f 113/113/113 111/111/111 112/112/112
f 113/113/113 114/114/114 111/111/111
f 115/115/115 114/114/114 113/113/113
f 112/112/112 110/110/110 116/116/116
f 116/116/116 110/110/110 117/117/117
f 116/116/116 117/117/117 118/118/118
f 118/118/118 117/117/117 119/119/119
f 118/118/118 119/119/119 120/120/120
f 120/120/120 119/119/119 121/121/121
f 122/122/122 113/113/113 112/112/112
f 123/123/123 113/113/113 122/122/122
f 124/124/124 116/116/116 118/118/118
f 124/124/124 118/118/118 125/125/125
f 125/125/125 118/118/118 120/120/120
f 126/126/126 116/116/116 124/124/124
f 126/126/126 112/112/112 116/116/116
f 122/122/122 112/112/112 126/126/126
f 125/125/125 120/120/120 127/127/127
f 127/127/127 120/120/120 128/128/128
f 131/131/131 130/130/130 129/129/129
f 132/132/132 130/130/130 131/131/131
f 132/132/132 133/133/133 130/130/130
f 134/134/134 133/133/133 132/132/132
f 134/134/134 135/135/135 133/133/133
f 136/136/136 135/135/135 134/134/134
f 136/136/136 137/137/137 135/135/135
f 138/138/138 137/137/137 136/136/136
f 138/138/138 139/139/139 137/137/137
f 140/140/140 139/139/139 138/138/138
f 141/141/141 134/134/134 132/132/132
f 141/141/141 132/132/132 142/142/142
f 142/142/142 132/132/132 131/131/131
f 143/143/143 134/134/134 141/141/141
f 143/143/143 136/136/136 134/134/134
f 144/144/144 136/136/136 143/143/143
f 144/144/144 138/138/138 136/136/136
f 145/145/145 138/138/138 144/144/144
f 142/142/142 131/131/131 146/146/146
f 146/146/146 131/131/131 147/147/147
