g GVG_LaserGunCtrl
v 1109.814 71.24078 -143.9189
v 1120.353 63.8129 -147.4588
v 1104.203 72.9692 -169.9485
v 1116.028 65.42529 -174.8827
v 1097.005 81.89243 -163.7477
v 1102.753 80.18652 -137.4453
v 1094.372 91.17816 -158.9248
v 1099.397 90.3781 -137.2163
v 1104.203 72.9692 -169.9485
v 1116.028 65.42529 -174.8827
v 1111.923 80.40964 -170.3191
v 1119.671 73.91528 -173.8144
v 1107.277 87.13573 -166.1283
v 1115.294 90.93849 -177.6899
v 1117.457 85.68259 -180.0561
v 1112.547 96.48085 -175.6026
v 1104.844 94.16248 -162.7759
v 1115.476 101.0904 -175.0581
v 1106.47 100.7703 -161.0014
v 1114.829 107.5528 -173.5568
v 1107.684 107.6513 -159.4703
v 1117.956 113.228 -173.1153
v 1110.459 113.5927 -158.2929
v 1122.85 120.6771 -173.9473
v 1116.671 121.8039 -157.865
v 1125.282 124.6653 -173.6159
v 1124.003 126.4004 -158.1328
v 1136.678 130.9666 -176.0009
v 1136.676 130.0513 -159.5806
v 1147.974 130.1465 -178.6294
v 1149.237 129.5188 -161.4439
v 1164.082 121.5352 -183.2348
v 1164.564 123.0212 -164.7331
v 1095.359 100.3353 -155.9762
v 1094.372 91.17816 -158.9248
v 1098.096 108.6982 -154.1602
v 1101.103 115.852 -152.2605
v 1109.315 126.0168 -150.8701
v 1109.315 126.0168 -150.8701
v 1137.127 134.2457 -152.643
v 1121.369 131.8351 -151.6068
v 1127.208 128.5915 -127.3602
v 1113.936 123.8544 -128.558
v 1109.315 126.0168 -150.8701
v 1141.995 131.3253 -128.8125
v 1152.746 133.824 -154.2877
v 1155.725 130.9059 -130.2647
v 1170.165 127.6974 -157.2155
v 1174.85 123.0459 -134.1092
v 1109.315 126.0168 -150.8701
v 1095.359 100.3353 -155.9762
v 1099.397 90.3781 -137.2163
v 1094.372 91.17816 -158.9248
v 1100.573 98.58214 -134.3016
v 1098.096 108.6982 -154.1602
v 1102.996 106.7924 -132.938
v 1101.103 115.852 -152.2605
v 1105.955 113.823 -131.0026
v 1109.315 126.0168 -150.8701
v 1113.936 123.8544 -128.558
v 1105.955 113.823 -131.0026
v 1109.315 126.0168 -150.8701
v 1111.923 80.40964 -170.3191
v 1119.671 73.91528 -173.8144
v 1117.457 85.68259 -180.0561
v 1117.457 85.68259 -180.0561
v 1119.671 73.91528 -173.8144
v 1121.319 79.08853 -182.3662
v 1097.005 81.89243 -163.7477
v 1158.066 99.74042 -220.8078
v 1154.171 92.19646 -221.4163
v 1176.474 91.03264 -128.2261
v 1172.918 83.94144 -129.0318
v 1148.817 85.91357 -221.0512
v 1167.38 78.20667 -129.1642
v 1141.689 82.03482 -220.5168
v 1160.401 74.38967 -128.6104
v 1133.459 80.41187 -219.2553
v 1152.665 72.86411 -127.4246
v 1125.407 81.38545 -217.2317
v 1144.929 73.77927 -125.7228
v 1117.983 84.86034 -215.0496
v 1137.951 77.04561 -123.6717
v 1112.549 90.49638 -213.2623
v 1132.412 82.34338 -121.472
v 1108.776 97.74184 -211.0716
v 1128.857 89.15401 -119.339
v 1106.809 105.8875 -209.3603
v 1128.016 96.81078 -118.5777
v 1106.809 105.8875 -209.3603
v 1108.777 114.136 -207.5423
v 1128.016 96.81078 -118.5777
v 1129.079 104.5643 -117.6824
v 1111.895 121.68 -207.0137
v 1132.212 111.6555 -117.011
v 1117.787 127.7809 -206.8728
v 1137.807 117.3902 -116.1718
v 1125.211 131.8416 -207.462
v 1144.913 121.2072 -116.3956
v 1133.233 133.4646 -209.0957
v 1152.298 122.7328 -118.0741
v 1141.463 132.491 -210.9061
v 1159.013 121.8176 -119.8086
v 1148.887 129.0161 -213.0882
v 1167.125 118.5513 -121.9348
v 1154.779 123.3801 -215.4284
v 1172.918 113.2535 -122.8355
v 1158.066 116.1346 -217.887
v 1176.474 106.4429 -124.9685
v 1159.283 107.9889 -219.5907
v 1177.699 98.78609 -126.826
v 1159.283 107.9889 -219.5907
v 1177.699 98.78609 -126.826
v 1154.171 92.19646 -221.4163
v 1158.066 99.74042 -220.8078
v 1133.233 106.9382 -214.7031
v 1148.817 85.91357 -221.0512
v 1141.689 82.03482 -220.5168
v 1133.459 80.41187 -219.2553
v 1125.407 81.38545 -217.2317
v 1117.983 84.86034 -215.0496
v 1112.549 90.49638 -213.2623
v 1108.776 97.74184 -211.0716
v 1106.809 105.8875 -209.3603
v 1108.777 114.136 -207.5423
v 1111.895 121.68 -207.0137
v 1117.787 127.7809 -206.8728
v 1125.211 131.8416 -207.462
v 1133.233 133.4646 -209.0957
v 1141.463 132.491 -210.9061
v 1148.887 129.0161 -213.0882
v 1154.779 123.3801 -215.4284
v 1158.066 116.1346 -217.887
v 1159.283 107.9889 -219.5907
v 1134.316 105.0778 -218.8719
v 1135.274 106.1176 -218.9909
v 1135.434 102.9824 -220.287
v 1137.285 104.9912 -220.517
v 1132.853 102.1721 -219.8475
v 1132.979 104.6583 -218.6443
v 1130.232 102.7772 -219.3162
v 1131.623 104.9716 -218.3693
v 1128.275 104.6357 -218.8354
v 1130.61 105.9336 -218.1205
v 1127.506 107.2496 -218.534
v 1130.211 107.2867 -217.9644
v 1128.131 109.9185 -218.4928
v 1130.535 108.6682 -217.9431
v 1135.597 107.4991 -218.9696
v 1137.91 107.6601 -220.4758
v 1135.199 108.8522 -218.8136
v 1137.141 110.2739 -220.1744
v 1128.895 100.9382 -220.8891
v 1132.6 100.0824 -221.6405
v 1136.251 101.2285 -222.2621
v 1138.869 104.0692 -222.5874
v 1139.753 107.8436 -222.5291
v 1138.665 111.5402 -222.1029
v 1136.711 99.93539 -224.6625
v 1139.918 103.4146 -225.0608
v 1132.24 98.53176 -223.9012
v 1127.701 99.57991 -222.9808
v 1124.312 102.7989 -222.1481
v 1126.127 103.5665 -220.2091
v 1125.039 107.2631 -219.783
v 1122.979 107.3263 -221.6262
v 1141 108.0373 -224.9894
v 1136.782 99.19134 -227.3245
v 1140.359 103.0719 -227.7688
v 1131.795 97.62583 -226.4754
v 1126.733 98.79485 -225.4489
v 1122.952 102.3852 -224.5201
v 1121.466 107.4348 -223.938
v 1141.566 108.2278 -227.6892
v 1136.46 99.04704 -230.0668
v 1140.162 103.0645 -230.5267
v 1131.297 97.42628 -229.1877
v 1126.056 98.63657 -228.125
v 1122.142 102.3536 -227.1635
v 1120.604 107.5814 -226.5608
v 1141.412 108.4023 -230.4444
v 1135.766 99.51232 -232.7026
v 1139.342 103.3929 -233.1468
v 1130.779 97.94675 -231.8534
v 1125.716 99.11583 -230.827
v 1121.936 102.7062 -229.8982
v 1120.45 107.7558 -229.316
v 1140.549 108.5488 -233.0672
v 1134.748 100.5554 -235.0521
v 1137.954 104.0347 -235.4503
v 1130.276 99.15182 -234.2907
v 1125.738 100.2 -233.3704
v 1122.348 103.419 -232.5377
v 1121.016 107.9464 -232.0157
v 1139.036 108.6573 -235.379
v 1133.475 102.1053 -236.9552
v 1136.093 104.9461 -237.2804
v 1129.823 100.9593 -236.3336
v 1126.118 101.8151 -235.5822
v 1123.35 104.4434 -234.9023
v 1122.262 108.14 -234.4761
v 1136.976 108.7205 -237.2222
v 1132.033 104.0564 -238.2824
v 1133.885 106.0651 -238.5123
v 1129.452 103.246 -237.8428
v 1126.831 103.8512 -237.3115
v 1124.874 105.7097 -236.8307
v 1134.509 108.734 -238.4711
v 1130.522 106.2757 -238.943
v 1131.48 107.3155 -239.0621
v 1129.186 105.8562 -238.7155
v 1127.829 106.1694 -238.4404
v 1126.816 107.1315 -238.1916
v 1131.493 109.708 -218.0622
v 1130.535 108.6682 -217.9431
v 1129.982 111.9272 -218.7228
v 1128.131 109.9185 -218.4928
v 1132.564 112.7376 -219.1624
v 1132.829 110.1275 -218.2896
v 1128.541 113.8783 -220.05
v 1125.923 111.0375 -219.7247
v 1127.506 107.2496 -218.534
v 1125.039 107.2631 -219.783
v 1132.192 115.0243 -220.6716
v 1135.897 114.1685 -221.423
v 1135.184 112.1325 -219.6937
v 1134.186 109.8142 -218.5647
v 1137.141 110.2739 -220.1744
v 1135.199 108.8522 -218.8136
v 1138.665 111.5402 -222.1029
v 1124.061 111.9489 -221.5547
v 1122.979 107.3263 -221.6262
v 1127.268 115.4282 -221.9531
v 1131.739 116.8318 -222.7144
v 1136.278 115.7837 -223.6347
v 1139.667 112.5647 -224.4674
v 1141 108.0373 -224.9894
v 1139.753 107.8436 -222.5291
v 1122.673 112.5907 -223.8583
v 1121.466 107.4348 -223.938
v 1126.249 116.4713 -224.3026
v 1131.237 118.0368 -225.1517
v 1136.299 116.8678 -226.1782
v 1140.079 113.2775 -227.1069
v 1141.566 108.2278 -227.6892
v 1121.853 112.9191 -226.4784
v 1120.604 107.5814 -226.5608
v 1125.555 116.9366 -226.9383
v 1130.719 118.5573 -227.8174
v 1135.959 117.3471 -228.8801
v 1139.873 113.63 -229.8416
v 1141.412 108.4023 -230.4444
v 1121.657 112.9117 -229.2363
v 1120.45 107.7558 -229.316
v 1125.233 116.7923 -229.6806
v 1130.22 118.3578 -230.5298
v 1135.283 117.1888 -231.5563
v 1139.063 113.5984 -232.485
v 1140.549 108.5488 -233.0672
v 1122.098 112.569 -231.9444
v 1121.016 107.9464 -232.0157
v 1125.304 116.0482 -232.3427
v 1129.776 117.4519 -233.104
v 1134.314 116.4037 -234.0243
v 1137.704 113.1847 -234.857
v 1139.036 108.6573 -235.379
v 1123.146 111.9144 -234.4178
v 1122.262 108.14 -234.4761
v 1125.764 114.7551 -234.743
v 1129.415 115.9012 -235.3646
v 1133.121 115.0454 -236.1161
v 1135.888 112.4171 -236.7959
v 1136.976 108.7205 -237.2222
v 1124.73 110.9924 -236.4881
v 1124.105 108.3236 -236.5293
v 1123.35 104.4434 -234.9023
v 1124.874 105.7097 -236.8307
v 1126.581 113.0012 -236.7181
v 1129.163 113.8116 -237.1577
v 1131.783 113.2064 -237.689
v 1133.74 111.3479 -238.1697
v 1134.509 108.734 -238.4711
v 1126.418 108.4845 -238.0356
v 1126.816 107.1315 -238.1916
v 1126.742 109.866 -238.0142
v 1127.7 110.9058 -238.1333
v 1129.036 111.3253 -238.3608
v 1130.393 111.0121 -238.6358
v 1131.406 110.05 -238.8847
v 1131.804 108.697 -239.0407
v 1131.48 107.3155 -239.0621
v 1133.885 106.0651 -238.5123
v 1129.044 108.6119 -238.8922
v 1127.829 106.1694 -238.4404
v 1129.186 105.8562 -238.7155
v 1130.522 106.2757 -238.943
v 1132.971 107.3718 -218.113
v 1134.186 109.8142 -218.5647
v 1132.829 110.1275 -218.2896
v 1131.493 109.708 -218.0622
v 1142.293 100.5663 -199.3328
v 1143.313 102.5994 -199.1019
v 1137.144 102.9331 -225.8802
v 1138.246 105.0961 -225.7283
v 1135.451 101.1317 -225.7876
v 1140.705 98.92204 -199.3708
v 1133.339 100.0196 -225.5631
v 1138.704 97.82762 -199.2121
v 1130.98 99.55431 -225.2013
v 1136.487 97.39024 -198.8721
v 1128.671 99.83346 -224.6211
v 1134.269 97.65262 -198.3841
v 1126.543 100.8298 -223.9955
v 1132.268 98.58916 -197.796
v 1125.025 102.4457 -223.4868
v 1130.68 100.1081 -197.1653
v 1123.999 104.5231 -222.7648
v 1129.66 102.0608 -196.5537
v 1123.543 106.8585 -222.2709
v 1129.309 104.2561 -196.0212
v 1129.66 106.4792 -195.6198
v 1129.309 104.2561 -196.0212
v 1123.713 109.2235 -221.9372
v 1123.543 106.8585 -222.2709
v 1124.797 111.3865 -221.6915
v 1130.68 108.5123 -195.3887
v 1126.486 113.1357 -221.651
v 1132.268 110.1566 -195.3508
v 1128.615 114.3 -221.82
v 1134.269 111.251 -195.5096
v 1130.915 114.7653 -222.2884
v 1136.487 111.6884 -195.8496
v 1133.275 114.4862 -222.8075
v 1138.704 111.426 -196.3375
v 1135.403 113.4899 -223.4331
v 1140.705 110.4895 -196.9256
v 1137.093 111.8739 -224.1041
v 1142.293 108.9705 -197.5563
v 1138.177 109.7966 -224.7547
v 1143.313 107.0178 -198.1678
v 1138.551 107.4611 -225.3213
v 1143.664 104.8225 -198.7004
v 1143.664 104.8225 -198.7004
v 1138.551 107.4611 -225.3213
v 1137.144 102.9331 -225.8802
v 1138.246 105.0961 -225.7283
v 1130.915 107.1598 -223.8961
v 1135.451 101.1317 -225.7876
v 1133.339 100.0196 -225.5631
v 1130.98 99.55431 -225.2013
v 1128.671 99.83346 -224.6211
v 1126.543 100.8298 -223.9955
v 1125.025 102.4457 -223.4868
v 1123.999 104.5231 -222.7648
v 1123.543 106.8585 -222.2709
v 1123.713 109.2235 -221.9372
v 1124.797 111.3865 -221.6915
v 1126.486 113.1357 -221.651
v 1128.615 114.3 -221.82
v 1130.915 114.7653 -222.2884
v 1133.275 114.4862 -222.8075
v 1135.403 113.4899 -223.4331
v 1137.093 111.8739 -224.1041
v 1138.177 109.7966 -224.7547
v 1138.551 107.4611 -225.3213
v 1274.355 89.62894 -154.6315
v 1277.621 96.14179 -153.8915
v 1257.861 97.21072 -239.6716
v 1261.391 104.1394 -239.1848
v 1252.438 91.4402 -239.375
v 1269.268 84.36187 -154.7531
v 1245.673 87.87784 -238.6555
v 1262.859 80.85617 -154.2445
v 1238.114 86.38722 -237.4968
v 1255.754 79.45502 -153.1554
v 1230.719 87.28142 -235.6383
v 1248.649 80.29555 -151.5924
v 1223.9 90.47291 -233.6342
v 1242.239 83.29549 -149.7086
v 1219.039 95.64929 -232.0044
v 1237.153 88.16122 -147.6882
v 1215.753 102.3038 -229.692
v 1233.887 94.41637 -145.7292
v 1214.292 109.7852 -228.1099
v 1232.762 101.4487 -144.0232
v 1233.887 108.5699 -142.7373
v 1232.762 101.4487 -144.0232
v 1214.834 117.361 -227.0408
v 1214.292 109.7852 -228.1099
v 1218.309 124.2897 -226.2535
v 1237.153 115.0827 -141.9973
v 1223.72 129.8931 -226.1241
v 1242.239 120.3498 -141.8757
v 1230.539 133.6226 -226.6653
v 1248.649 123.8555 -142.3843
v 1237.906 135.1132 -228.1658
v 1255.754 125.2567 -143.4734
v 1245.465 134.219 -229.8286
v 1262.859 124.4161 -145.0364
v 1252.284 131.0275 -231.8327
v 1269.268 121.4162 -146.9203
v 1257.695 125.8512 -233.982
v 1274.355 116.5505 -148.9406
v 1261.169 119.1966 -236.0661
v 1277.621 110.2953 -150.8996
v 1262.367 111.7152 -237.8811
v 1278.746 103.2629 -152.6056
v 1278.746 103.2629 -152.6056
v 1262.367 111.7152 -237.8811
v 1257.861 97.21072 -239.6716
v 1261.391 104.1394 -239.1848
v 1237.906 110.7502 -233.3158
v 1252.438 91.4402 -239.375
v 1245.673 87.87784 -238.6555
v 1238.114 86.38722 -237.4968
v 1230.719 87.28142 -235.6383
v 1223.9 90.47291 -233.6342
v 1219.039 95.64929 -232.0044
v 1215.753 102.3038 -229.692
v 1214.292 109.7852 -228.1099
v 1214.834 117.361 -227.0408
v 1218.309 124.2897 -226.2535
v 1223.72 129.8931 -226.1241
v 1230.539 133.6226 -226.6653
v 1237.906 135.1132 -228.1658
v 1245.465 134.219 -229.8286
v 1252.284 131.0275 -231.8327
v 1257.695 125.8512 -233.982
v 1261.169 119.1966 -236.0661
v 1262.367 111.7152 -237.8811
v 1245.343 106.8469 -227.9124
v 1246.188 108.5329 -227.7209
v 1241.073 108.8096 -249.9263
v 1241.987 110.6032 -249.8003
v 1239.669 107.3158 -249.8495
v 1244.026 105.4835 -227.9439
v 1237.918 106.3936 -249.6633
v 1242.367 104.576 -227.8123
v 1235.961 106.0078 -249.3633
v 1240.528 104.2133 -227.5303
v 1234.047 106.2393 -248.8823
v 1238.688 104.4309 -227.1257
v 1232.282 107.0654 -248.3635
v 1237.029 105.2075 -226.6381
v 1231.023 108.4054 -247.9416
v 1235.712 106.467 -226.1151
v 1230.173 110.128 -247.3429
v 1234.867 108.0863 -225.6079
v 1229.795 112.0647 -246.9334
v 1234.576 109.9067 -225.1664
v 1234.867 111.7501 -224.8334
v 1234.576 109.9067 -225.1664
v 1229.935 114.0258 -246.6566
v 1229.795 112.0647 -246.9334
v 1230.834 115.8194 -246.4528
v 1235.712 113.436 -224.6419
v 1232.235 117.2699 -246.4194
v 1237.029 114.7995 -224.6104
v 1234 118.2354 -246.5594
v 1238.688 115.707 -224.7421
v 1235.907 118.6212 -246.9479
v 1240.528 116.0697 -225.024
v 1237.864 118.3898 -247.3783
v 1242.367 115.8521 -225.4286
v 1239.629 117.5636 -247.8971
v 1244.026 115.0756 -225.9163
v 1241.03 116.2236 -248.4535
v 1245.343 113.816 -226.4393
v 1241.93 114.501 -248.993
v 1246.188 112.1968 -226.9464
v 1242.239 112.5643 -249.4628
v 1246.479 110.3763 -227.388
v 1246.479 110.3763 -227.388
v 1242.239 112.5643 -249.4628
v 1241.073 108.8096 -249.9263
v 1241.987 110.6032 -249.8003
v 1235.908 112.3145 -248.2811
v 1239.669 107.3158 -249.8495
v 1237.918 106.3936 -249.6633
v 1235.961 106.0078 -249.3633
v 1234.047 106.2393 -248.8823
v 1232.282 107.0654 -248.3635
v 1231.023 108.4054 -247.9416
v 1230.173 110.128 -247.3429
v 1229.795 112.0647 -246.9334
v 1229.935 114.0258 -246.6566
v 1230.834 115.8194 -246.4528
v 1232.235 117.2699 -246.4194
v 1234 118.2354 -246.5594
v 1235.907 118.6212 -246.9479
v 1237.864 118.3898 -247.3783
v 1239.629 117.5636 -247.8971
v 1241.03 116.2236 -248.4535
v 1241.93 114.501 -248.993
v 1242.239 112.5643 -249.4628
v 1117.779 73.19505 -181.9795
v 1127.824 67.7469 -185.0541
v 1112.262 75.65347 -207.4679
v 1122.375 70.19999 -210.8019
v 1181.26 74.78589 -224.2617
v 1187.123 71.8473 -196.1409
v 1240.146 79.37177 -237.7215
v 1246.423 75.94768 -207.2278
v 1255.352 77.86047 -208.6133
v 1249.088 81.43217 -239.7071
v 1264.123 82.71548 -209.4212
v 1257.944 86.25147 -240.2668
v 1270.805 90.14596 -209.7605
v 1264.816 93.5649 -239.5185
v 1275.311 99.16106 -209.0814
v 1269.4 102.7041 -238.9312
v 1276.017 109.0725 -207.4349
v 1269.929 112.9313 -238.2286
v 1274.944 118.6928 -205.5652
v 1269.06 122.4568 -235.3604
v 1183.432 83.00441 -221.6069
v 1122.375 70.19999 -210.8019
v 1181.26 74.78589 -224.2617
v 1126.838 81.15815 -210.7323
v 1119.502 84.5649 -208.337
v 1112.262 75.65347 -207.4679
v 1114.139 90.08042 -206.0957
v 1106.019 84.29721 -204.9558
v 1110.504 97.15614 -203.3086
v 1239.76 84.95374 -233.7136
v 1240.146 79.37177 -237.7215
v 1249.088 81.43217 -239.7071
v 1247.753 86.71605 -235.8495
v 1257.944 86.25147 -240.2668
v 1254.31 90.88136 -239.1375
v 1264.816 93.5649 -239.5185
v 1259.919 96.85402 -238.2398
v 1269.4 102.7041 -238.9312
v 1263.772 104.3625 -237.6535
v 1269.929 112.9313 -238.2286
v 1264.815 112.7524 -237.3158
v 1269.06 122.4568 -235.3604
v 1263.8 120.6309 -234.5592
v 1265.297 131.3823 -232.3412
v 1260.357 127.9737 -232.7939
v 1258.413 137.9208 -227.5823
v 1254.623 133.4166 -229.8372
v 1249.299 142.129 -224.9116
v 1188.822 80.30242 -195.7502
v 1126.838 81.15815 -210.7323
v 1183.432 83.00441 -221.6069
v 1132.287 78.70509 -184.9846
v 1119.502 84.5649 -208.337
v 1125.019 82.10645 -182.8486
v 1114.139 90.08042 -206.0957
v 1119.549 87.62329 -180.9159
v 1245.358 81.89977 -206.5159
v 1239.76 84.95374 -233.7136
v 1253.413 83.48838 -207.7506
v 1247.753 86.71605 -235.8495
v 1260.489 87.34537 -208.2919
v 1254.31 90.88136 -239.1375
v 1265.908 93.43513 -208.4817
v 1259.919 96.85402 -238.2398
v 1269.683 100.8195 -207.8037
v 1263.772 104.3625 -237.6535
v 1270.903 108.8936 -206.5221
v 1264.815 112.7524 -237.3158
v 1110.504 97.15614 -203.3086
v 1115.852 94.71554 -178.7456
v 1107.801 105.3288 -202.1329
v 1113.505 102.6894 -177.4605
v 1271.048 127.5774 -202.9591
v 1263.777 134.4752 -200.6741
v 1265.297 131.3823 -232.3412
v 1258.413 137.9208 -227.5823
v 1254.475 138.6449 -198.0867
v 1249.299 142.129 -224.9116
v 1269.06 122.4568 -235.3604
v 1274.944 118.6928 -205.5652
v 1254.475 138.6449 -198.0867
v 1245.935 139.835 -196.107
v 1249.299 142.129 -224.9116
v 1240.496 143.1996 -222.2766
v 1186.791 142.1225 -212.0516
v 1240.496 143.1996 -222.2766
v 1192.305 138.4869 -185.9903
v 1133.086 141.0454 -201.8265
v 1138.676 137.1389 -175.8737
v 1129.764 135.1353 -174.0313
v 1124.217 138.4162 -199.9336
v 1120.394 129.9968 -173.2528
v 1114.866 133.1081 -198.5536
v 1112.913 122.0877 -173.4777
v 1107.436 124.9684 -197.9508
v 1108.819 112.7543 -174.0421
v 1103.346 115.5196 -198.4784
v 1106.198 102.391 -175.8195
v 1100.495 105.0303 -200.4918
v 1106.218 90.55032 -177.1176
v 1100.87 92.99096 -201.6808
v 1240.496 143.1996 -222.2766
v 1246.976 137.0397 -228.4579
v 1249.299 142.129 -224.9116
v 1239.01 137.8817 -226.0597
v 1240.496 143.1996 -222.2766
v 1186.791 142.1225 -212.0516
v 1186.529 135.9059 -215.3228
v 1134.048 133.9302 -204.5858
v 1133.086 141.0454 -201.8265
v 1124.217 138.4162 -199.9336
v 1126.306 131.702 -202.8203
v 1114.866 133.1081 -198.5536
v 1119.011 127.5591 -201.7654
v 1107.436 124.9684 -197.9508
v 1240.496 143.1996 -222.2766
v 1113.418 121.2007 -200.5872
v 1103.346 115.5196 -198.4784
v 1110.412 113.5784 -200.5495
v 1100.495 105.0303 -200.4918
v 1107.801 105.3288 -202.1329
v 1100.87 92.99096 -201.6808
v 1239.01 137.8817 -226.0597
v 1245.082 133.8304 -196.6413
v 1246.976 137.0397 -228.4579
v 1252.778 132.8774 -198.4251
v 1254.623 133.4166 -229.8372
v 1260.445 129.476 -200.5875
v 1260.357 127.9737 -232.7939
v 1266.302 123.9592 -202.4203
v 1263.8 120.6309 -234.5592
v 1269.683 116.867 -204.7641
v 1264.815 112.7524 -237.3158
v 1270.903 108.8936 -206.5221
v 1192.517 131.7566 -186.8308
v 1186.529 135.9059 -215.3228
v 1139.952 129.6827 -177.0203
v 1134.048 133.9302 -204.5858
v 1132.154 128.0941 -175.3706
v 1126.306 131.702 -202.8203
v 1124.842 124.1193 -174.9102
v 1119.011 127.5591 -201.7654
v 1119.054 118.1474 -175.2972
v 1113.418 121.2007 -200.5872
v 1115.931 110.763 -175.8761
v 1110.412 113.5784 -200.5495
v 1113.505 102.6894 -177.4605
v 1107.801 105.3288 -202.1329
v 1246.976 137.0397 -228.4579
v 1254.623 133.4166 -229.8372
v 1249.299 142.129 -224.9116
v 1111.429 81.84004 -179.7759
v 1106.019 84.29721 -204.9558
v 1100.87 92.99096 -201.6808
v 1106.218 90.55032 -177.1176
vt 0.060715 0.501587
vt 0.079504 0.491993
vt 0.050123 0.451091
vt 0.071448 0.438883
vt 0.038105 0.466353
vt 0.049022 0.517577
vt 0.035115 0.479133
vt 0.044867 0.521805
vt 0.050123 0.451091
vt 0.071448 0.438883
vt 0.067143 0.452892
vt 0.080742 0.443817
vt 0.059654 0.463472
vt 0.076465 0.441909
vt 0.079396 0.435466
vt 0.072437 0.447926
vt 0.056579 0.472558
vt 0.079436 0.450584
vt 0.061451 0.478414
vt 0.079818 0.4558
vt 0.065599 0.483917
vt 0.087541 0.458652
vt 0.072654 0.488406
vt 0.099321 0.459587
vt 0.087229 0.492242
vt 0.105281 0.46165
vt 0.103184 0.493382
vt 0.129955 0.459066
vt 0.12969 0.491804
vt 0.152466 0.453486
vt 0.154822 0.487859
vt 0.182256 0.441258
vt 0.183676 0.478901
vt 0.039263 0.488246
vt 0.035115 0.479133
vt 0.046742 0.494883
vt 0.054514 0.501292
vt 0.073559 0.507838
vt 0.073559 0.507838
vt 0.131793 0.507334
vt 0.099355 0.508523
vt 0.110227 0.556099
vt 0.082279 0.551833
vt 0.073559 0.507838
vt 0.140767 0.554251
vt 0.163171 0.503859
vt 0.1683 0.551161
vt 0.196379 0.495702
vt 0.20433 0.540376
vt 0.073559 0.507838
vt 0.039263 0.488246
vt 0.044867 0.521805
vt 0.035115 0.479133
vt 0.049194 0.530657
vt 0.046742 0.494883
vt 0.056039 0.536485
vt 0.054514 0.501292
vt 0.063708 0.543042
vt 0.073559 0.507838
vt 0.082279 0.551833
vt 0.063708 0.543042
vt 0.073559 0.507838
vt 0.067143 0.452892
vt 0.080742 0.443817
vt 0.079396 0.435466
vt 0.079396 0.435466
vt 0.080742 0.443817
vt 0.085314 0.42872
vt 0.038105 0.466353
vt 0.163703 0.359228
vt 0.153774 0.355745
vt 0.19758 0.539842
vt 0.188384 0.535565
vt 0.141386 0.354583
vt 0.175748 0.533147
vt 0.126237 0.354478
vt 0.160902 0.532806
vt 0.109574 0.356479
vt 0.145267 0.534563
vt 0.093965 0.360759
vt 0.130329 0.53825
vt 0.080223 0.366115
vt 0.117506 0.543517
vt 0.070921 0.371369
vt 0.10803 0.549869
vt 0.065273 0.37795
vt 0.102831 0.556704
vt 0.06341 0.3839
vt 0.103214 0.561189
vt 0.06341 0.3839
vt 0.069429 0.390139
vt 0.103214 0.561189
vt 0.107416 0.566008
vt 0.077617 0.393609
vt 0.115599 0.570151
vt 0.091056 0.395856
vt 0.128384 0.574112
vt 0.107099 0.395983
vt 0.143711 0.575191
vt 0.123718 0.393214
vt 0.158973 0.572435
vt 0.140031 0.389251
vt 0.172172 0.568589
vt 0.153971 0.383747
vt 0.18744 0.563032
vt 0.164144 0.377264
vt 0.197391 0.559145
vt 0.168569 0.370076
vt 0.202363 0.552231
vt 0.168569 0.364163
vt 0.202412 0.54558
vt 0.168569 0.364163
vt 0.202412 0.54558
vt 0.153774 0.355745
vt 0.163703 0.359228
vt 0.116339 0.373582
vt 0.141386 0.354583
vt 0.126237 0.354478
vt 0.109574 0.356479
vt 0.093965 0.360759
vt 0.080223 0.366115
vt 0.070921 0.371369
vt 0.065273 0.37795
vt 0.06341 0.3839
vt 0.069429 0.390139
vt 0.077617 0.393609
vt 0.091056 0.395856
vt 0.107099 0.395983
vt 0.123718 0.393214
vt 0.140031 0.389251
vt 0.153971 0.383747
vt 0.164144 0.377264
vt 0.168569 0.370076
vt 0.168569 0.364163
vt 0.102534 0.264281
vt 0.104729 0.264362
vt 0.104183 0.260825
vt 0.108424 0.260979
vt 0.098825 0.261452
vt 0.099757 0.264606
vt 0.093777 0.262694
vt 0.097142 0.265249
vt 0.090386 0.264218
vt 0.095387 0.26604
vt 0.08956 0.26562
vt 0.094962 0.266767
vt 0.091528 0.266522
vt 0.095984 0.267234
vt 0.105756 0.264828
vt 0.110412 0.261875
vt 0.105337 0.265555
vt 0.109608 0.263275
vt 0.09062 0.259007
vt 0.097753 0.257254
vt 0.105324 0.256365
vt 0.11132 0.256577
vt 0.114137 0.257837
vt 0.113005 0.259812
vt 0.10588 0.251205
vt 0.113224 0.251457
vt 0.096613 0.252296
vt 0.087882 0.254439
vt 0.082004 0.257066
vt 0.085822 0.261158
vt 0.084646 0.263135
vt 0.080557 0.25948
vt 0.116678 0.25299
vt 0.105816 0.245695
vt 0.114005 0.245966
vt 0.095484 0.246915
vt 0.085749 0.249302
vt 0.079191 0.252223
vt 0.07757 0.254904
vt 0.11786 0.247664
vt 0.105136 0.240205
vt 0.113613 0.240476
vt 0.094441 0.241472
vt 0.084362 0.24394
vt 0.077571 0.246956
vt 0.075889 0.24972
vt 0.117603 0.242221
vt 0.103886 0.235106
vt 0.112073 0.23536
vt 0.093554 0.236334
vt 0.083816 0.238716
vt 0.077254 0.241621
vt 0.075628 0.244279
vt 0.115924 0.237034
vt 0.102149 0.230742
vt 0.109489 0.230963
vt 0.092882 0.231846
vt 0.084147 0.23398
vt 0.078262 0.23658
vt 0.076807 0.238953
vt 0.112937 0.232455
vt 0.100043 0.227408
vt 0.106036 0.227585
vt 0.092472 0.228312
vt 0.085335 0.230055
vt 0.080529 0.232173
vt 0.079344 0.234104
vt 0.108845 0.228797
vt 0.09771 0.225332
vt 0.101947 0.225455
vt 0.092351 0.225973
vt 0.0873 0.227205
vt 0.083902 0.228702
vt 0.103929 0.22631
vt 0.095306 0.224658
vt 0.0975 0.224721
vt 0.092529 0.22499
vt 0.089912 0.225628
vt 0.088153 0.226403
vt 0.09818 0.267317
vt 0.095984 0.267234
vt 0.095771 0.266682
vt 0.091528 0.266522
vt 0.101151 0.266053
vt 0.100962 0.266992
vt 0.093423 0.26463
vt 0.087423 0.264407
vt 0.08956 0.26562
vt 0.084646 0.263135
vt 0.101038 0.263739
vt 0.108211 0.261974
vt 0.106218 0.264806
vt 0.103582 0.266347
vt 0.109608 0.263275
vt 0.105337 0.265555
vt 0.113005 0.259812
vt 0.083951 0.261032
vt 0.080557 0.25948
vt 0.091299 0.2613
vt 0.100631 0.260206
vt 0.109423 0.258044
vt 0.115295 0.255401
vt 0.116678 0.25299
vt 0.114137 0.257837
vt 0.081349 0.256626
vt 0.07757 0.254904
vt 0.089545 0.256917
vt 0.099958 0.255694
vt 0.109768 0.253284
vt 0.11632 0.250342
vt 0.11786 0.247664
vt 0.079799 0.25149
vt 0.075889 0.24972
vt 0.088282 0.251783
vt 0.099064 0.250512
vt 0.109223 0.248019
vt 0.116008 0.244982
vt 0.117603 0.242221
vt 0.079404 0.245977
vt 0.075628 0.244279
vt 0.087598 0.24625
vt 0.098011 0.245019
vt 0.107824 0.242614
vt 0.114379 0.239689
vt 0.115924 0.237034
vt 0.080194 0.240464
vt 0.076807 0.238953
vt 0.087539 0.240701
vt 0.096871 0.239594
vt 0.105667 0.237441
vt 0.111546 0.234826
vt 0.112937 0.232455
vt 0.082113 0.23533
vt 0.079344 0.234104
vt 0.088109 0.235516
vt 0.095724 0.234611
vt 0.102902 0.232856
vt 0.107704 0.230726
vt 0.108845 0.228797
vt 0.085029 0.230925
vt 0.083067 0.230063
vt 0.080529 0.232173
vt 0.083902 0.228702
vt 0.089268 0.231053
vt 0.094648 0.230411
vt 0.09972 0.229173
vt 0.103117 0.227671
vt 0.103929 0.22631
vt 0.087724 0.227106
vt 0.088153 0.226403
vt 0.088741 0.22755
vt 0.090935 0.227615
vt 0.093718 0.227283
vt 0.096341 0.226642
vt 0.098099 0.225867
vt 0.098523 0.225163
vt 0.0975 0.224721
vt 0.101947 0.225455
vt 0.092995 0.225435
vt 0.089912 0.225628
vt 0.092529 0.22499
vt 0.095306 0.224658
vt 0.100487 0.266497
vt 0.103582 0.266347
vt 0.100962 0.266992
vt 0.09818 0.267317
vt 0.117149 0.301736
vt 0.119749 0.30285
vt 0.107572 0.249682
vt 0.110366 0.250633
vt 0.103706 0.249327
vt 0.113533 0.301132
vt 0.099204 0.249441
vt 0.109255 0.301096
vt 0.094389 0.250021
vt 0.104732 0.30163
vt 0.089878 0.251257
vt 0.100402 0.302683
vt 0.085915 0.252799
vt 0.096685 0.304152
vt 0.08333 0.254297
vt 0.093943 0.305896
vt 0.081842 0.256361
vt 0.092445 0.307744
vt 0.081556 0.258052
vt 0.092341 0.309518
vt 0.093644 0.311042
vt 0.092341 0.309518
vt 0.082525 0.259437
vt 0.081556 0.258052
vt 0.085269 0.260587
vt 0.09623 0.312168
vt 0.089116 0.261202
vt 0.099849 0.312782
vt 0.093687 0.261221
vt 0.104145 0.312824
vt 0.098413 0.260426
vt 0.108696 0.312289
vt 0.103055 0.259303
vt 0.113052 0.311229
vt 0.107033 0.257749
vt 0.116783 0.309748
vt 0.109958 0.255917
vt 0.119522 0.307994
vt 0.111542 0.253989
vt 0.121001 0.30614
vt 0.111634 0.252155
vt 0.121078 0.304368
vt 0.121078 0.304368
vt 0.111634 0.252155
vt 0.107572 0.249682
vt 0.110366 0.250633
vt 0.09633 0.254905
vt 0.103706 0.249327
vt 0.099204 0.249441
vt 0.094389 0.250021
vt 0.089878 0.251257
vt 0.085915 0.252799
vt 0.08333 0.254297
vt 0.081842 0.256361
vt 0.081556 0.258052
vt 0.082525 0.259437
vt 0.085269 0.260587
vt 0.089116 0.261202
vt 0.093687 0.261221
vt 0.098413 0.260426
vt 0.103055 0.259303
vt 0.107033 0.257749
vt 0.109958 0.255917
vt 0.111542 0.253989
vt 0.111634 0.252155
vt 0.390761 0.487078
vt 0.399799 0.490878
vt 0.361009 0.321026
vt 0.370677 0.323983
vt 0.348084 0.319966
vt 0.378664 0.484961
vt 0.333384 0.320375
vt 0.364683 0.48472
vt 0.317908 0.32224
vt 0.35016 0.486368
vt 0.303616 0.326168
vt 0.336476 0.489746
vt 0.291253 0.331051
vt 0.324934 0.494534
vt 0.283422 0.335785
vt 0.316645 0.500279
vt 0.279196 0.342335
vt 0.312427 0.506437
vt 0.278874 0.347714
vt 0.312719 0.512412
vt 0.317534 0.517619
vt 0.312719 0.512412
vt 0.282593 0.352129
vt 0.278874 0.347714
vt 0.291996 0.35581
vt 0.326437 0.521538
vt 0.304881 0.357783
vt 0.338577 0.523767
vt 0.319979 0.357836
vt 0.35276 0.524073
vt 0.335395 0.355266
vt 0.367569 0.522416
vt 0.350305 0.351639
vt 0.381513 0.518959
vt 0.362823 0.346632
vt 0.393188 0.514053
vt 0.371701 0.340755
vt 0.401434 0.508194
vt 0.376077 0.3346
vt 0.40545 0.501972
vt 0.375556 0.328777
vt 0.404873 0.496006
vt 0.404873 0.496006
vt 0.375556 0.328777
vt 0.361009 0.321026
vt 0.370677 0.323983
vt 0.32635 0.33761
vt 0.348084 0.319966
vt 0.333384 0.320375
vt 0.317908 0.32224
vt 0.303616 0.326168
vt 0.291253 0.331051
vt 0.283422 0.335785
vt 0.279196 0.342335
vt 0.278874 0.347714
vt 0.282593 0.352129
vt 0.291996 0.35581
vt 0.304881 0.357783
vt 0.319979 0.357836
vt 0.335395 0.355266
vt 0.350305 0.351639
vt 0.362823 0.346632
vt 0.371701 0.340755
vt 0.376077 0.3346
vt 0.375556 0.328777
vt 0.32429 0.246806
vt 0.326604 0.247692
vt 0.316505 0.203483
vt 0.318992 0.204237
vt 0.313155 0.203218
vt 0.32116 0.246336
vt 0.309327 0.203331
vt 0.31752 0.246328
vt 0.305288 0.203821
vt 0.313725 0.246781
vt 0.301558 0.204844
vt 0.310143 0.247651
vt 0.298339 0.20611
vt 0.307123 0.248855
vt 0.296314 0.207328
vt 0.304959 0.250274
vt 0.295237 0.209008
vt 0.303863 0.251771
vt 0.295181 0.210374
vt 0.303944 0.253201
vt 0.305198 0.254423
vt 0.303944 0.253201
vt 0.296169 0.211484
vt 0.295181 0.210374
vt 0.298617 0.212402
vt 0.307503 0.255316
vt 0.301948 0.212882
vt 0.310637 0.255793
vt 0.305835 0.212877
vt 0.31429 0.255805
vt 0.309797 0.212209
vt 0.318104 0.255352
vt 0.313632 0.211281
vt 0.321703 0.254476
vt 0.31686 0.210007
vt 0.324732 0.253265
vt 0.319167 0.208513
vt 0.326893 0.251839
vt 0.320325 0.206947
vt 0.327976 0.250337
vt 0.320224 0.205462
vt 0.327875 0.248909
vt 0.327875 0.248909
vt 0.320224 0.205462
vt 0.316505 0.203483
vt 0.318992 0.204237
vt 0.307483 0.207753
vt 0.313155 0.203218
vt 0.309327 0.203331
vt 0.305288 0.203821
vt 0.301558 0.204844
vt 0.298339 0.20611
vt 0.296314 0.207328
vt 0.295237 0.209008
vt 0.295181 0.210374
vt 0.296169 0.211484
vt 0.298617 0.212402
vt 0.301948 0.212882
vt 0.305835 0.212877
vt 0.309797 0.212209
vt 0.313632 0.211281
vt 0.31686 0.210007
vt 0.319167 0.208513
vt 0.320325 0.206947
vt 0.320224 0.205462
vt 0.055875 0.927489
vt 0.074177 0.919676
vt 0.045652 0.878184
vt 0.06413 0.869969
vt 0.181046 0.84491
vt 0.19165 0.899248
vt 0.298424 0.819753
vt 0.309539 0.878747
vt 0.327808 0.876611
vt 0.316791 0.816424
vt 0.346915 0.876514
vt 0.336059 0.816681
vt 0.362972 0.878141
vt 0.352437 0.820239
vt 0.375443 0.882295
vt 0.365089 0.824024
vt 0.380792 0.888695
vt 0.370173 0.828387
vt 0.382507 0.895504
vt 0.372218 0.836929
vt 0.18787 0.852568
vt 0.06413 0.869969
vt 0.181046 0.84491
vt 0.075758 0.87345
vt 0.062177 0.879225
vt 0.045652 0.878184
vt 0.052993 0.885371
vt 0.035501 0.885814
vt 0.047587 0.893124
vt 0.299672 0.82925
vt 0.298424 0.819753
vt 0.316791 0.816424
vt 0.3161 0.825539
vt 0.336059 0.816681
vt 0.330613 0.820228
vt 0.352437 0.820239
vt 0.343989 0.823715
vt 0.365089 0.824024
vt 0.354536 0.827046
vt 0.370173 0.828387
vt 0.359885 0.830159
vt 0.372218 0.836929
vt 0.360943 0.837995
vt 0.368208 0.845666
vt 0.356916 0.84373
vt 0.356911 0.857256
vt 0.347497 0.851328
vt 0.340128 0.863957
vt 0.197647 0.902704
vt 0.075758 0.87345
vt 0.18787 0.852568
vt 0.08584 0.923389
vt 0.062177 0.879225
vt 0.072422 0.928718
vt 0.052993 0.885371
vt 0.063061 0.934366
vt 0.30961 0.88199
vt 0.299672 0.82925
vt 0.326081 0.880048
vt 0.3161 0.825539
vt 0.341499 0.880176
vt 0.330613 0.820228
vt 0.354552 0.881695
vt 0.343989 0.823715
vt 0.364914 0.885354
vt 0.354536 0.827046
vt 0.370521 0.890459
vt 0.359885 0.830159
vt 0.047587 0.893124
vt 0.057573 0.941044
vt 0.044279 0.898069
vt 0.05496 0.946304
vt 0.37826 0.903612
vt 0.366376 0.910479
vt 0.368208 0.845666
vt 0.356911 0.857256
vt 0.349239 0.917088
vt 0.340128 0.863957
vt 0.372218 0.836929
vt 0.382507 0.895504
vt 0.349239 0.917088
vt 0.332436 0.921488
vt 0.340128 0.863957
vt 0.322717 0.869626
vt 0.213604 0.889985
vt 0.322717 0.869626
vt 0.223542 0.94148
vt 0.104595 0.910324
vt 0.114779 0.961448
vt 0.096221 0.964458
vt 0.085929 0.913279
vt 0.075929 0.964209
vt 0.065623 0.914303
vt 0.058797 0.960973
vt 0.048547 0.912823
vt 0.048193 0.956585
vt 0.037951 0.908662
vt 0.04035 0.949467
vt 0.029654 0.901241
vt 0.037438 0.942861
vt 0.027449 0.895029
vt 0.322717 0.869626
vt 0.333468 0.855217
vt 0.340128 0.863957
vt 0.317698 0.86032
vt 0.322717 0.869626
vt 0.213604 0.889985
vt 0.211019 0.881383
vt 0.104526 0.90241
vt 0.104595 0.910324
vt 0.085929 0.913279
vt 0.088299 0.90524
vt 0.065623 0.914303
vt 0.072491 0.906007
vt 0.048547 0.912823
vt 0.322717 0.869626
vt 0.05958 0.906294
vt 0.037951 0.908662
vt 0.051587 0.903889
vt 0.029654 0.901241
vt 0.044279 0.898069
vt 0.027449 0.895029
vt 0.317698 0.86032
vt 0.328417 0.918399
vt 0.333468 0.855217
vt 0.343567 0.914485
vt 0.347497 0.851328
vt 0.357683 0.909006
vt 0.356916 0.84373
vt 0.367278 0.903515
vt 0.360943 0.837995
vt 0.371243 0.896521
vt 0.359885 0.830159
vt 0.370521 0.890459
vt 0.221717 0.937474
vt 0.211019 0.881383
vt 0.115213 0.956514
vt 0.104526 0.90241
vt 0.099072 0.959277
vt 0.088299 0.90524
vt 0.083281 0.958809
vt 0.072491 0.906007
vt 0.070071 0.955949
vt 0.05958 0.906294
vt 0.061884 0.952233
vt 0.051587 0.903889
vt 0.05496 0.946304
vt 0.044279 0.898069
vt 0.333468 0.855217
vt 0.347497 0.851328
vt 0.340128 0.863957
vt 0.045561 0.934687
vt 0.035501 0.885814
vt 0.027449 0.895029
vt 0.037438 0.942861
vn -0.6809058 -0.7255563 0.09967627
vn -0.5439616 -0.8376431 0.04959688
vn -0.6117123 -0.7878461 0.0714604
vn -0.5276101 -0.8488337 0.03329844
vn -0.8084974 -0.5719711 0.1384954
vn -0.8763431 -0.450963 0.169278
vn -0.9549798 -0.2136839 0.2057973
vn -0.9712296 -0.07568643 0.2257978
vn -0.3219002 0.2827354 -0.9035712
vn -0.2474314 0.2196219 -0.9436863
vn -0.5674723 0.005805373 -0.823372
vn -0.4929635 -0.1246646 -0.8610725
vn -0.6212777 0.09772305 -0.7774729
vn -0.8033259 -0.1458198 -0.5774115
vn -0.7953939 -0.3112833 -0.5200493
vn -0.845673 0.1123086 -0.521751
vn -0.6359432 0.3136117 -0.7051409
vn -0.8213308 0.3079821 -0.4801694
vn -0.6497844 0.2687633 -0.711018
vn -0.8454872 0.256516 -0.4683492
vn -0.6477509 0.3708408 -0.6655043
vn -0.7877316 0.4620612 -0.4074045
vn -0.6282842 0.4584734 -0.6285388
vn -0.7744768 0.5210482 -0.3587401
vn -0.5899889 0.5896415 -0.5515759
vn -0.6231695 0.7533302 -0.2101267
vn -0.4123883 0.8116187 -0.4137767
vn -0.2373844 0.971367 -0.009728119
vn -0.1099549 0.9543608 -0.2776786
vn 0.2052531 0.9782704 0.0292936
vn 0.1824481 0.9389375 -0.2917345
vn 0.423213 0.9049979 -0.04323727
vn 0.2606909 0.8597733 -0.4391243
vn -0.4128021 0.303409 -0.8588
vn -0.4049783 0.3253982 -0.8544639
vn -0.4270439 0.3606076 -0.829214
vn -0.4398554 0.4133054 -0.7973116
vn -0.3960823 0.5604342 -0.7273461
vn -0.4420121 0.707447 -0.5514925
vn -0.08824749 0.9771289 -0.1934721
vn -0.3133476 0.9178202 -0.2437605
vn -0.2174252 0.9602373 0.1751305
vn -0.5348027 0.8195292 0.2058099
vn -0.6283578 0.7560738 -0.1830817
vn -0.0280738 0.9913754 0.1280108
vn 0.1386366 0.9584846 -0.2491728
vn 0.2633683 0.9597054 0.09799355
vn 0.3229207 0.9337512 -0.1543724
vn 0.3958087 0.9124884 0.1034427
vn -0.5523504 0.7250866 -0.4112886
vn -0.9646346 0.1137322 0.2377921
vn -0.9712296 -0.07568643 0.2257978
vn -0.9549798 -0.2136839 0.2057973
vn -0.9530145 0.1826475 0.2416677
vn -0.9317524 0.270952 0.2417073
vn -0.9254601 0.2932928 0.239798
vn -0.8774307 0.4152879 0.2401067
vn -0.8340302 0.5002086 0.2327768
vn -0.6774886 0.7037739 0.2138025
vn -0.5348027 0.8195292 0.2058099
vn -0.8340302 0.5002086 0.2327768
vn -0.6535043 0.7567724 -0.01509206
vn -0.5674723 0.005805373 -0.823372
vn -0.651323 -0.2202006 -0.7261474
vn -0.7953939 -0.3112833 -0.5200493
vn -0.7953939 -0.3112833 -0.5200493
vn -0.7598044 -0.4103887 -0.5042601
vn -0.8492383 -0.3630826 -0.3833607
vn -0.376293 0.3138873 -0.8717099
vn 0.9368722 -0.2777663 -0.2124057
vn 0.8381172 -0.5015997 -0.2143767
vn 0.9378449 -0.2741927 -0.2127566
vn 0.7835468 -0.5848433 -0.2097924
vn 0.6441628 -0.7399787 -0.1936125
vn 0.5499488 -0.8156684 -0.179559
vn 0.3704919 -0.9163777 -0.1516169
vn 0.2738559 -0.9522533 -0.1349689
vn 0.07301883 -0.9926162 -0.09685674
vn -0.0294568 -0.9966813 -0.07588576
vn -0.2300131 -0.9726725 -0.03165691
vn -0.3268618 -0.945031 -0.008819438
vn -0.5215912 -0.8522052 0.0410952
vn -0.6057943 -0.7931034 0.06324787
vn -0.7519201 -0.650643 0.1062069
vn -0.8056709 -0.5794951 0.1227996
vn -0.8941387 -0.4195459 0.1565159
vn -0.9366349 -0.299613 0.1815132
vn -0.9735808 -0.07454622 0.2158319
vn -0.9718457 0.05152883 0.2299143
vn -0.9735808 -0.07454622 0.2158319
vn -0.9472678 0.2136283 0.2388445
vn -0.9718457 0.05152883 0.2299143
vn -0.9292583 0.2805293 0.2403792
vn -0.8460971 0.4742666 0.243292
vn -0.7808405 0.5767869 0.2400105
vn -0.6315805 0.7419827 0.2248728
vn -0.5497729 0.8074834 0.2138233
vn -0.3651312 0.9122766 0.1855549
vn -0.2671666 0.9487906 0.1685779
vn -0.0666481 0.9891917 0.1306055
vn 0.04214717 0.9931579 0.1089084
vn 0.2429986 0.9677753 0.06605045
vn 0.324479 0.9447495 0.04649717
vn 0.5028734 0.8643599 0.0004126048
vn 0.5848715 0.8107601 -0.02436075
vn 0.7568615 0.649035 -0.07690381
vn 0.818311 0.5660298 -0.09988606
vn 0.9160757 0.3754339 -0.1409061
vn 0.9434577 0.2919973 -0.1569243
vn 0.9809536 0.03719807 -0.190647
vn 0.9808168 0.04030316 -0.1907198
vn 0.9809536 0.03719807 -0.190647
vn 0.9808168 0.04030316 -0.1907198
vn -0.2028644 0.152351 -0.9672824
vn -0.1877019 0.172522 -0.9669561
vn -0.1990597 0.1835291 -0.9626486
vn -0.1921803 0.1503647 -0.9697717
vn -0.1733815 0.1676848 -0.9704744
vn -0.2015436 0.1639961 -0.9656529
vn -0.215413 0.1612792 -0.9631128
vn -0.1932549 0.1487108 -0.9698132
vn -0.1941393 0.1594039 -0.9679362
vn -0.2061878 0.1676449 -0.9640445
vn -0.2017948 0.2057161 -0.9575801
vn -0.2172608 0.2101326 -0.9532272
vn -0.2152562 0.1882534 -0.9582409
vn -0.1958167 0.2143851 -0.9569195
vn -0.2142277 0.2084676 -0.9542787
vn -0.2109441 0.2021639 -0.9563641
vn -0.1873799 0.2031553 -0.9610499
vn -0.1873829 0.2031565 -0.961049
vn -0.197097 0.2160964 -0.9562715
vn -0.1976508 0.2015889 -0.9593205
vn -0.1883585 0.1722599 -0.9668752
vn 0.306545 -0.3067916 0.90106
vn 0.4133938 -0.2063718 0.8868575
vn 0.4093589 -0.4778896 0.7772045
vn 0.5876737 -0.2919247 0.754599
vn 0.1643754 -0.5493921 0.8192369
vn 0.1651905 -0.3400423 0.9257879
vn -0.08159579 -0.4872732 0.8694291
vn 0.02718566 -0.297204 0.9544269
vn -0.2626851 -0.3081719 0.9143449
vn -0.07047711 -0.1897842 0.9792931
vn -0.3303677 -0.06008992 0.9419376
vn -0.1016318 -0.04654621 0.9937325
vn -0.2664929 0.1905224 0.9448189
vn -0.05793004 0.09415285 0.9938709
vn 0.457079 -0.06570072 0.8869962
vn 0.6515323 -0.04134394 0.7574934
vn 0.4259111 0.07752934 0.9014372
vn 0.5838652 0.2067427 0.7850854
vn -0.2061567 -0.6618549 0.7207271
vn 0.1425475 -0.7466522 0.6497621
vn 0.4882185 -0.6424822 0.590643
vn 0.7381894 -0.3772627 0.5592398
vn 0.8255318 -0.02203958 0.563925
vn 0.726814 0.3279917 0.603459
vn 0.533764 -0.7634156 0.3637206
vn 0.8384623 -0.4369842 0.3256161
vn 0.1109077 -0.8931387 0.4358929
vn -0.3168079 -0.7913939 0.5228083
vn -0.6347853 -0.4854432 0.6011592
vn -0.464481 -0.410815 0.7845307
vn -0.5632033 -0.06078404 0.8240797
vn -0.7578155 -0.05728117 0.6499496
vn 0.9433482 -0.001308395 0.331802
vn 0.5428306 -0.8323574 0.1118748
vn 0.8815005 -0.467013 0.06968349
vn 0.07157738 -0.9787422 0.1921987
vn -0.4059809 -0.8669426 0.2891193
vn -0.7618972 -0.526899 0.3766828
vn -0.90079 -0.04974184 0.4313966
vn 0.996848 0.01940868 0.0769228
vn 0.5147721 -0.8445117 -0.1476813
vn 0.8643246 -0.4652126 -0.1911026
vn 0.02728125 -0.9975327 -0.06468503
vn -0.4675192 -0.8832641 0.03564188
vn -0.8370467 -0.5323272 0.1264137
vn -0.9822854 -0.03873976 0.1833432
vn 0.9822851 0.03876618 -0.1833391
vn 0.4515448 -0.7989838 -0.3971548
vn 0.7881064 -0.4316236 -0.4388502
vn -0.01887826 -0.9481861 -0.3171543
vn -0.497115 -0.8392605 -0.220269
vn -0.8550215 -0.5013912 -0.1324572
vn -0.9966949 -0.02510987 -0.07725823
vn 0.9006293 0.05544749 -0.4310364
vn 0.357567 -0.6988707 -0.6194559
vn 0.6581295 -0.3685258 -0.6565472
vn -0.06366843 -0.8341142 -0.547905
vn -0.4926989 -0.7380003 -0.4610893
vn -0.8145763 -0.4362942 -0.3822471
vn -0.943051 -0.009821393 -0.3325029
vn 0.7575043 0.06840231 -0.6492367
vn 0.2393396 -0.5510935 -0.7993826
vn 0.483392 -0.2802488 -0.8293328
vn -0.1039931 -0.6631917 -0.7411897
vn -0.4545949 -0.5864914 -0.6703516
vn -0.7185298 -0.3415461 -0.6058557
vn -0.8250853 0.006021159 -0.5649761
vn 0.5627666 0.07681092 -0.8230394
vn 0.1049271 -0.3658238 -0.9247504
vn 0.2758469 -0.1728445 -0.9455333
vn -0.1371307 -0.4471945 -0.8838621
vn -0.3854748 -0.3951559 -0.8338231
vn -0.5735548 -0.2236528 -0.7880447
vn 0.3298112 0.08005869 -0.9406462
vn -0.01435173 -0.1725833 -0.9848904
vn 0.07723732 -0.05767452 -0.9953432
vn -0.1497149 -0.2262026 -0.9625061
vn -0.2925732 -0.204169 -0.9341927
vn -0.4046724 -0.1123895 -0.907529
vn 0.04888777 0.1945589 0.9796718
vn -0.05793004 0.09415285 0.9938709
vn -0.08817123 0.3764764 0.9222209
vn -0.2664929 0.1905224 0.9448189
vn 0.156779 0.4479764 0.8801918
vn 0.1902333 0.2277941 0.9549456
vn -0.2258919 0.5596421 0.7973542
vn -0.475871 0.2944256 0.8287703
vn -0.3303677 -0.06008992 0.9419376
vn -0.5632033 -0.06078404 0.8240797
vn 0.1197682 0.6638141 0.7382455
vn 0.4684818 0.5790222 0.6672765
vn 0.4027771 0.3858522 0.8299931
vn 0.3282506 0.184953 0.9263067
vn 0.5838652 0.2067427 0.7850854
vn 0.4259111 0.07752934 0.9014372
vn 0.726814 0.3279917 0.603459
vn -0.6529082 0.3783939 0.6561469
vn -0.7578155 -0.05728117 0.6499496
vn -0.3482248 0.7048166 0.6180396
vn 0.07463513 0.8345435 0.5458632
vn 0.5023575 0.7328004 0.4589559
vn 0.8203207 0.4268499 0.3806219
vn 0.9433482 -0.001308395 0.331802
vn 0.8255318 -0.02203958 0.563925
vn -0.7854525 0.4366639 0.4386217
vn -0.90079 -0.04974184 0.4313966
vn -0.446764 0.8020224 0.3964365
vn 0.02448362 0.9484071 0.3161083
vn 0.5020495 0.8366047 0.219178
vn 0.8579537 0.496581 0.1316164
vn 0.996848 0.01940868 0.0769228
vn -0.8643312 0.4651984 0.1911075
vn -0.9822854 -0.03873976 0.1833432
vn -0.5147771 0.8445091 0.147679
vn -0.02728253 0.9975324 0.06469042
vn 0.4675252 0.8832616 -0.03562596
vn 0.8370455 0.5323296 -0.1264126
vn 0.9822851 0.03876618 -0.1833391
vn -0.8841743 0.4619661 -0.06944972
vn -0.9966949 -0.02510987 -0.07725823
vn -0.5476148 0.8293161 -0.1111435
vn -0.07718889 0.9785209 -0.191151
vn 0.4010459 0.8695962 -0.288036
vn 0.7589636 0.5317248 -0.3758231
vn 0.9006293 0.05544749 -0.4310364
vn -0.8436813 0.427127 -0.3252145
vn -0.943051 -0.009821393 -0.3325029
vn -0.5431162 0.7574639 -0.3623163
vn -0.1218758 0.8927045 -0.4338489
vn 0.3071568 0.7965873 -0.520676
vn 0.6290224 0.4948827 -0.599518
vn 0.7575043 0.06840231 -0.6492367
vn -0.7456996 0.3630777 -0.5586651
vn -0.8250853 0.006021159 -0.5649761
vn -0.5016541 0.633933 -0.5886188
vn -0.1583336 0.7460288 -0.6468164
vn 0.1922824 0.669329 -0.7176533
vn 0.4562139 0.4243868 -0.7821538
vn 0.5627666 0.07681092 -0.8230394
vn -0.5970194 0.2742598 -0.7538896
vn -0.6509864 0.02136374 -0.7587888
vn -0.7185298 -0.3415461 -0.6058557
vn -0.5735548 -0.2236528 -0.7880447
vn -0.4261021 0.4672458 -0.7746731
vn -0.1840494 0.5486153 -0.8155655
vn 0.06430066 0.4965779 -0.8656072
vn 0.2523898 0.3250741 -0.911387
vn 0.3298112 0.08005869 -0.9406462
vn -0.4559434 0.02453299 -0.8896706
vn -0.4046724 -0.1123895 -0.907529
vn -0.4326794 0.1699163 -0.8853908
vn -0.3410949 0.2848233 -0.8958403
vn -0.2057272 0.3384373 -0.9182246
vn -0.06286196 0.3164013 -0.9465404
vn 0.0492296 0.2246234 -0.9732013
vn 0.1005013 0.08771276 -0.9910631
vn 0.07723732 -0.05767452 -0.9953432
vn 0.2758469 -0.1728445 -0.9455333
vn -0.1853808 0.05854042 -0.9809215
vn -0.2925732 -0.204169 -0.9341927
vn -0.1497149 -0.2262026 -0.9625061
vn -0.01435173 -0.1725833 -0.9848904
vn 0.1853839 -0.05854037 0.9809209
vn 0.3282506 0.184953 0.9263067
vn 0.1902333 0.2277941 0.9549456
vn 0.04888777 0.1945589 0.9796718
vn 0.7751545 -0.5980718 -0.2035821
vn 0.9221148 -0.3271517 -0.2065819
vn 0.8319828 -0.5147988 -0.2068498
vn 0.9548537 -0.2170797 -0.2028076
vn 0.6287303 -0.7544965 -0.1882369
vn 0.5451935 -0.819289 -0.1775653
vn 0.3650492 -0.9187949 -0.1501831
vn 0.2738543 -0.9522538 -0.1349694
vn 0.07301693 -0.9926164 -0.09685694
vn -0.02945682 -0.9966813 -0.07588623
vn -0.230017 -0.9726716 -0.03165583
vn -0.3268641 -0.9450302 -0.008818859
vn -0.5250095 -0.8500581 0.0420255
vn -0.6091127 -0.7905101 0.06384116
vn -0.7577045 -0.6437223 0.1072639
vn -0.8087563 -0.575323 0.1221338
vn -0.90191 -0.4021825 0.1575047
vn -0.9349909 -0.3092078 0.1737308
vn -0.9712136 -0.1299175 0.1996634
vn -0.9764539 -0.01676115 0.2150738
vn -0.917863 0.3158309 0.2403713
vn -0.9764539 -0.01676115 0.2150738
vn -0.9535966 0.1904374 0.2332103
vn -0.9712136 -0.1299175 0.1996634
vn -0.8287795 0.5052258 0.2405646
vn -0.7695917 0.5929591 0.2369136
vn -0.6279588 0.7457591 0.2225112
vn -0.5455647 0.8108701 0.2117759
vn -0.3650673 0.9125766 0.1842006
vn -0.2676913 0.9488502 0.1674058
vn -0.06753727 0.9892851 0.1294363
vn 0.03444007 0.9935141 0.1083676
vn 0.2356802 0.9697365 0.06376601
vn 0.3341232 0.9416664 0.0403265
vn 0.5172707 0.8557963 -0.006599138
vn 0.6019651 0.7979555 -0.03008708
vn 0.749381 0.6578944 -0.07485317
vn 0.8120332 0.5756407 -0.09612392
vn 0.9089383 0.3946991 -0.1343271
vn 0.9431428 0.2959802 -0.1512532
vn 0.9788873 0.1003365 -0.1780795
vn 0.9820892 -0.005140635 -0.1883469
vn 0.9820892 -0.005140635 -0.1883469
vn 0.9788873 0.1003365 -0.1780795
vn -0.2016146 0.1567155 -0.9668463
vn -0.1909687 0.1785161 -0.9652268
vn -0.2004295 0.1836818 -0.9623352
vn -0.1985396 0.1542937 -0.9678716
vn -0.1847751 0.1635003 -0.969085
vn -0.2015517 0.163995 -0.9656513
vn -0.2154112 0.1612819 -0.9631128
vn -0.1938919 0.1491475 -0.969619
vn -0.2077422 0.1760014 -0.9622197
vn -0.2275814 0.1869004 -0.9556543
vn -0.2187322 0.1562533 -0.9631932
vn -0.2096335 0.1805288 -0.9609699
vn -0.1990114 0.2111112 -0.9569883
vn -0.1958241 0.2143842 -0.9569182
vn -0.2142254 0.2084628 -0.9542803
vn -0.2109369 0.202168 -0.9563649
vn -0.1873855 0.2031555 -0.9610486
vn -0.1873811 0.2031556 -0.9610495
vn -0.187385 0.2031587 -0.9610481
vn -0.1873835 0.2031531 -0.9610496
vn -0.1873771 0.1965777 -0.9624173
vn 0.7751564 -0.5980694 -0.2035816
vn 0.9221215 -0.3271335 -0.2065808
vn 0.8319903 -0.5147866 -0.2068498
vn 0.9548558 -0.2170721 -0.2028055
vn 0.6287264 -0.7545002 -0.1882354
vn 0.5451915 -0.8192908 -0.1775639
vn 0.3650546 -0.9187927 -0.1501833
vn 0.2738587 -0.9522524 -0.1349695
vn 0.07301789 -0.9926164 -0.09685651
vn -0.02945808 -0.9966813 -0.07588541
vn -0.2300126 -0.9726726 -0.03165717
vn -0.3268618 -0.945031 -0.008819516
vn -0.5250002 -0.850064 0.04202329
vn -0.6091059 -0.7905152 0.06384101
vn -0.7577122 -0.6437123 0.1072694
vn -0.8087695 -0.5753032 0.1221401
vn -0.901915 -0.4021702 0.1575066
vn -0.9349849 -0.309229 0.1737253
vn -0.9712101 -0.1299537 0.1996571
vn -0.9764544 -0.01679184 0.2150695
vn -0.91786 0.315839 0.2403723
vn -0.9764544 -0.01679184 0.2150695
vn -0.9536007 0.1904195 0.2332085
vn -0.9712101 -0.1299537 0.1996571
vn -0.8287729 0.5052361 0.2405659
vn -0.7695892 0.5929616 0.2369156
vn -0.6279611 0.7457565 0.2225131
vn -0.5455637 0.8108706 0.2117763
vn -0.3650624 0.9125787 0.1842
vn -0.2676928 0.9488497 0.1674063
vn -0.0675365 0.9892851 0.1294369
vn 0.03443991 0.9935141 0.1083681
vn 0.2356751 0.9697376 0.06376637
vn 0.3341251 0.9416656 0.04032528
vn 0.5172863 0.8557869 -0.006603275
vn 0.6019769 0.7979463 -0.03009085
vn 0.7493647 0.6579134 -0.07485032
vn 0.8120145 0.5756679 -0.09611865
vn 0.9089342 0.3947098 -0.1343235
vn 0.9431511 0.2959538 -0.1512531
vn 0.9788901 0.1003112 -0.1780787
vn 0.9820895 -0.005144922 -0.1883449
vn 0.9820895 -0.005144922 -0.1883449
vn 0.9788901 0.1003112 -0.1780787
vn -0.2016125 0.1567156 -0.9668468
vn -0.1909691 0.1785115 -0.9652276
vn -0.2004288 0.183681 -0.9623355
vn -0.1985464 0.1542882 -0.9678711
vn -0.1847696 0.1634952 -0.9690869
vn -0.2015433 0.1639975 -0.9656526
vn -0.2154125 0.1612804 -0.9631128
vn -0.1938921 0.1491496 -0.9696186
vn -0.2077442 0.1760008 -0.9622194
vn -0.2275763 0.1868922 -0.955657
vn -0.2187274 0.1562591 -0.9631934
vn -0.2096316 0.1805383 -0.9609685
vn -0.1990166 0.2111061 -0.9569883
vn -0.1958179 0.214385 -0.9569193
vn -0.2142307 0.2084659 -0.9542783
vn -0.2109482 0.2021624 -0.9563636
vn -0.1873792 0.2031518 -0.9610507
vn -0.1873784 0.2031528 -0.9610506
vn -0.1873816 0.203155 -0.9610496
vn -0.187382 0.2031564 -0.9610491
vn -0.1873783 0.1965799 -0.9624166
vn 0.7751527 -0.5980754 -0.203578
vn 0.9221213 -0.3271343 -0.2065804
vn 0.8319908 -0.5147865 -0.2068484
vn 0.9548624 -0.217043 -0.2028061
vn 0.6287212 -0.7545055 -0.1882315
vn 0.5451803 -0.8192992 -0.1775599
vn 0.3650398 -0.9187992 -0.1501799
vn 0.2738583 -0.9522523 -0.1349702
vn 0.07301635 -0.9926164 -0.09685698
vn -0.02945544 -0.9966813 -0.07588691
vn -0.2300148 -0.9726721 -0.03165729
vn -0.3268626 -0.9450306 -0.008820435
vn -0.5249962 -0.8500667 0.04202039
vn -0.6091014 -0.790519 0.06383795
vn -0.7577001 -0.6437275 0.1072638
vn -0.808767 -0.5753067 0.1221403
vn -0.901921 -0.4021543 0.1575128
vn -0.9349899 -0.3092113 0.1737306
vn -0.9712119 -0.1299378 0.1996585
vn -0.976455 -0.0167832 0.2150675
vn -0.9178635 0.31583 0.2403703
vn -0.976455 -0.0167832 0.2150675
vn -0.9535995 0.1904279 0.2332064
vn -0.9712119 -0.1299378 0.1996585
vn -0.8287832 0.5052198 0.240565
vn -0.769584 0.5929686 0.2369149
vn -0.6279489 0.7457673 0.2225119
vn -0.5455631 0.810871 0.2117763
vn -0.3650762 0.9125729 0.1842016
vn -0.2676995 0.9488477 0.1674068
vn -0.06753938 0.9892848 0.1294369
vn 0.03444232 0.9935139 0.1083679
vn 0.2356698 0.9697388 0.06376885
vn 0.3341143 0.9416693 0.04032975
vn 0.5172701 0.8557968 -0.006597319
vn 0.6019811 0.7979432 -0.03008899
vn 0.7493863 0.6578886 -0.07485177
vn 0.812028 0.575649 -0.0961179
vn 0.9089445 0.3946857 -0.1343247
vn 0.9431556 0.2959372 -0.1512566
vn 0.9788905 0.100299 -0.1780828
vn 0.9820893 -0.00512632 -0.1883462
vn 0.9820893 -0.00512632 -0.1883462
vn 0.9788905 0.100299 -0.1780828
vn -0.2016149 0.1567048 -0.966848
vn -0.1909692 0.1785113 -0.9652276
vn -0.2004302 0.1836814 -0.9623351
vn -0.1985436 0.1542825 -0.9678726
vn -0.1847641 0.163492 -0.9690884
vn -0.2015369 0.1639943 -0.9656545
vn -0.2154083 0.1612789 -0.9631138
vn -0.1938926 0.1491496 -0.9696185
vn -0.207747 0.1760041 -0.9622181
vn -0.2275805 0.186897 -0.955655
vn -0.2187314 0.1562665 -0.9631913
vn -0.2096363 0.180547 -0.9609658
vn -0.1990265 0.2111062 -0.9569862
vn -0.1958211 0.2143876 -0.9569181
vn -0.2142343 0.2084725 -0.9542761
vn -0.2109613 0.2021653 -0.95636
vn -0.1873849 0.2031538 -0.9610491
vn -0.1873782 0.2031529 -0.9610506
vn -0.1873812 0.2031552 -0.9610496
vn -0.18738 0.2031511 -0.9610507
vn -0.1873743 0.1965805 -0.9624173
vn -0.6977503 -0.7116627 0.08173552
vn -0.2190679 -0.9745035 -0.04850042
vn -0.5900934 -0.8058103 0.04959359
vn -0.2170699 -0.9750259 -0.04695807
vn 0.05055125 -0.9925052 -0.1112569
vn 0.04816561 -0.9920521 -0.1162445
vn 0.1184774 -0.9839564 -0.13339
vn 0.1159266 -0.984127 -0.1343696
vn 0.2818219 -0.9452111 -0.1647799
vn 0.3741297 -0.9098122 -0.1796353
vn 0.5541936 -0.8070588 -0.203778
vn 0.642213 -0.7362418 -0.2133318
vn 0.7804866 -0.5837192 -0.2238585
vn 0.8329164 -0.5054637 -0.2252921
vn 0.9282102 -0.3001538 -0.2198486
vn 0.9627365 -0.1695 -0.2107327
vn 0.9812935 0.02300334 -0.1911384
vn 0.9796003 0.08262039 -0.1831864
vn 0.9576887 0.2399494 -0.1589229
vn 0.9321917 0.3333803 -0.1409836
vn -0.2130563 0.2650877 -0.9403912
vn -0.2369224 0.1672071 -0.9570316
vn -0.2243439 0.423343 -0.8777531
vn -0.225952 0.09818546 -0.9691777
vn -0.261887 0.1173154 -0.9579417
vn -0.2489547 0.120188 -0.9610288
vn -0.260001 0.1557072 -0.9529715
vn -0.2533973 0.1831979 -0.949857
vn -0.245675 0.1682191 -0.9546446
vn -0.2662184 0.491248 -0.8293391
vn -0.2628285 0.5506727 -0.7922632
vn -0.3162532 0.5162867 -0.7958844
vn -0.3649322 0.3182361 -0.8749573
vn -0.2800138 0.2046388 -0.9379314
vn -0.1959243 0.108872 -0.9745566
vn -0.1117704 0.184707 -0.9764173
vn -0.1423432 0.180746 -0.9731748
vn -0.1769543 0.1281937 -0.9758348
vn -0.183078 0.1011729 -0.9778786
vn -0.1858093 0.1365489 -0.9730516
vn -0.2006371 0.208872 -0.9571401
vn -0.214763 0.262819 -0.9406397
vn -0.1741691 0.2437912 -0.9540603
vn -0.1639236 0.2880636 -0.9434767
vn -0.09586164 0.3676133 -0.9250248
vn -0.0900175 0.4536675 -0.8866131
vn 0.01469805 0.4916906 -0.8706459
vn -0.03147641 0.5451602 -0.8377408
vn -0.009885248 0.9946375 0.1029485
vn 0.1360708 0.9883293 0.06848294
vn -0.009981769 0.9940433 0.1085279
vn 0.2844235 0.9582049 0.03076716
vn 0.5206569 0.853236 -0.03008106
vn 0.6128074 0.7882471 -0.05597823
vn 0.7564883 0.6462971 -0.1001273
vn 0.8114482 0.5721681 -0.1190608
vn -0.06287687 0.9905867 0.1215915
vn -0.118824 0.9836274 0.1354916
vn -0.2707994 0.9487458 0.1629383
vn -0.3671181 0.9128723 0.1785735
vn -0.5540462 0.8071652 0.2037576
vn -0.6450365 0.7336897 0.2136056
vn -0.7824264 0.5810829 0.2239459
vn -0.8322252 0.5065978 0.2252994
vn -0.9183939 0.3280505 0.2212138
vn -0.9510894 0.2219782 0.2148359
vn -0.98061 0.0139586 0.1954715
vn -0.9793779 -0.08630838 0.1826736
vn 0.8854138 0.4404442 -0.1484968
vn 0.9114386 0.3771603 -0.1644071
vn 0.9693046 0.1336956 -0.206335
vn 0.9713145 -0.06266332 -0.2293938
vn 0.8391135 0.5354393 -0.09588283
vn 0.5973793 0.8018141 -0.01523214
vn 0.7646283 0.6408893 -0.06785566
vn 0.5113425 0.8593237 0.009572512
vn 0.337378 0.9397319 0.05549936
vn 0.2353936 0.9566796 -0.1713302
vn 0.9321917 0.3333803 -0.1409836
vn 0.9576887 0.2399494 -0.1589229
vn 0.337378 0.9397319 0.05549936
vn 0.07850391 0.9903004 0.1146397
vn 0.1616837 0.9748624 -0.1533025
vn -0.001886014 0.9779515 -0.2088236
vn 0.003845439 0.9909979 0.1338226
vn -0.0538925 0.9217839 -0.3839402
vn 0.003470888 0.9900032 0.1410022
vn -0.1045928 0.9812836 0.1616874
vn -0.08845346 0.9820043 0.1668638
vn -0.2964385 0.9359911 0.1898546
vn -0.3898874 0.8995376 0.1970276
vn -0.5483757 0.8069238 0.2194493
vn -0.6331607 0.7392638 0.2293392
vn -0.7806044 0.5760983 0.24242
vn -0.8435467 0.4781516 0.2445403
vn -0.9166552 0.3182181 0.2418272
vn -0.9343688 0.2625973 0.2408268
vn -0.9634547 0.1291808 0.2346645
vn -0.9731957 0.04505561 0.2255218
vn -0.9583167 -0.2115082 0.1920766
vn -0.90793 -0.3879392 0.1586392
vn -0.1019071 0.8152759 -0.5700352
vn -0.07583511 0.5889212 -0.8046247
vn 0.05015745 0.8408781 -0.5388955
vn -0.1763171 0.6028312 -0.7781432
vn -0.1716722 0.5720178 -0.802075
vn -0.1843306 0.4214172 -0.8879357
vn -0.1840927 0.5118133 -0.8391407
vn -0.2399518 0.3535239 -0.9041262
vn -0.2347186 0.3237229 -0.9165755
vn -0.2936389 0.3025632 -0.90677
vn -0.2985987 0.2981281 -0.9066191
vn -0.3189676 0.2839945 -0.9042161
vn -0.3310228 0.2265173 -0.9160316
vn -0.3298087 0.1868834 -0.9253652
vn -0.1498682 0.7208851 -0.6766567
vn -0.2968027 0.133251 -0.9455963
vn -0.2559889 0.1727858 -0.9511124
vn -0.2304252 0.1960612 -0.9531339
vn -0.2191311 0.1937182 -0.9562713
vn -0.2144769 0.1388901 -0.9668035
vn -0.2235361 0.1244232 -0.9667215
vn -0.03873008 -0.9906182 -0.1310562
vn -0.0902917 -0.9888427 -0.1184796
vn -0.2416405 -0.966514 -0.08637466
vn -0.33503 -0.9400608 -0.06356499
vn -0.5145958 -0.8572998 -0.01510905
vn -0.5977538 -0.8016063 0.01084635
vn -0.7600172 -0.646805 0.06338131
vn -0.828144 -0.5531786 0.0903933
vn -0.9210935 -0.3654354 0.1343275
vn -0.9483144 -0.278433 0.1522327
vn -0.9793779 -0.08630838 0.1826736
vn -0.98061 0.0139586 0.1954715
vn 0.01074725 -0.9895572 -0.1437399
vn 0.008309135 -0.98887 -0.1485494
vn 0.05892342 -0.985096 -0.1615977
vn 0.133857 -0.9760103 -0.1717156
vn 0.2861255 -0.9387999 -0.1917989
vn 0.3863044 -0.9003609 -0.2002974
vn 0.5465153 -0.8073716 -0.2224229
vn 0.6309282 -0.740482 -0.2315513
vn 0.7820895 -0.5734857 -0.2438238
vn 0.8488263 -0.4683896 -0.2451635
vn 0.9163955 -0.3188973 -0.241917
vn 0.9286355 -0.2815459 -0.2415944
vn 0.9713145 -0.06266332 -0.2293938
vn 0.9693046 0.1336956 -0.206335
vn -0.07583511 0.5889212 -0.8046247
vn 0.01469805 0.4916906 -0.8706459
vn 0.09428149 0.7134655 -0.6943184
vn -0.8182265 -0.5619227 0.121443
vn -0.8036009 -0.5836845 0.1163534
vn -0.90793 -0.3879392 0.1586392
vn -0.9583167 -0.2115082 0.1920766
g GVG_LaserGunCtrl_0
f 3/3/3 2/2/2 1/1/1
f 4/4/4 2/2/2 3/3/3
f 3/3/3 1/1/1 5/5/5
f 5/5/5 1/1/1 6/6/6
f 5/5/5 6/6/6 7/7/7
f 7/7/7 6/6/6 8/8/8
f 11/11/11 10/10/10 9/9/9
f 12/12/12 10/10/10 11/11/11
f 11/11/11 9/9/9 13/13/13
f 14/14/14 11/11/11 13/13/13
f 15/15/15 11/11/11 14/14/14
f 14/14/14 13/13/13 16/16/16
f 16/16/16 13/13/13 17/17/17
f 16/16/16 17/17/17 18/18/18
f 18/18/18 17/17/17 19/19/19
f 18/18/18 19/19/19 20/20/20
f 20/20/20 19/19/19 21/21/21
f 20/20/20 21/21/21 22/22/22
f 22/22/22 21/21/21 23/23/23
f 22/22/22 23/23/23 24/24/24
f 24/24/24 23/23/23 25/25/25
f 24/24/24 25/25/25 26/26/26
f 26/26/26 25/25/25 27/27/27
f 26/26/26 27/27/27 28/28/28
f 28/28/28 27/27/27 29/29/29
f 28/28/28 29/29/29 30/30/30
f 30/30/30 29/29/29 31/31/31
f 30/30/30 31/31/31 32/32/32
f 32/32/32 31/31/31 33/33/33
f 19/19/19 34/34/34 21/21/21
f 19/19/19 35/35/35 34/34/34
f 21/21/21 36/36/36 23/23/23
f 21/21/21 34/34/34 36/36/36
f 23/23/23 36/36/36 37/37/37
f 23/23/23 37/37/37 25/25/25
f 25/25/25 37/37/37 38/38/38
f 25/25/25 39/39/39 27/27/27
f 29/29/29 40/40/40 31/31/31
f 29/29/29 41/41/41 40/40/40
f 41/41/41 42/42/42 40/40/40
f 41/41/41 43/43/43 42/42/42
f 44/44/44 43/43/43 41/41/41
f 40/40/40 42/42/42 45/45/45
f 40/40/40 45/45/45 46/46/46
f 46/46/46 45/45/45 47/47/47
f 46/46/46 47/47/47 48/48/48
f 48/48/48 47/47/47 49/49/49
f 27/27/27 41/41/41 29/29/29
f 27/27/27 50/50/50 41/41/41
f 31/31/31 40/40/40 46/46/46
f 33/33/33 46/46/46 48/48/48
f 31/31/31 46/46/46 33/33/33
f 53/53/53 52/52/52 51/51/51
f 51/51/51 52/52/52 54/54/54
f 51/51/51 54/54/54 55/55/55
f 55/55/55 54/54/54 56/56/56
f 55/55/55 56/56/56 57/57/57
f 57/57/57 56/56/56 58/58/58
f 57/57/57 58/58/58 59/59/59
f 62/62/62 61/61/61 60/60/60
f 65/65/65 64/64/64 63/63/63
f 68/68/68 67/67/67 66/66/66
f 13/13/13 9/9/9 69/69/69
f 13/13/13 69/69/69 17/17/17
f 17/17/17 69/69/69 35/35/35
f 17/17/17 35/35/35 19/19/19
f 72/72/72 71/71/71 70/70/70
f 73/73/73 71/71/71 72/72/72
f 73/73/73 74/74/74 71/71/71
f 75/75/75 74/74/74 73/73/73
f 75/75/75 76/76/76 74/74/74
f 77/77/77 76/76/76 75/75/75
f 77/77/77 78/78/78 76/76/76
f 79/79/79 78/78/78 77/77/77
f 79/79/79 80/80/80 78/78/78
f 81/81/81 80/80/80 79/79/79
f 81/81/81 82/82/82 80/80/80
f 83/83/83 82/82/82 81/81/81
f 83/83/83 84/84/84 82/82/82
f 85/85/85 84/84/84 83/83/83
f 85/85/85 86/86/86 84/84/84
f 87/87/87 86/86/86 85/85/85
f 87/87/87 88/88/88 86/86/86
f 89/89/89 88/88/88 87/87/87
f 92/92/92 91/91/91 90/90/90
f 93/93/93 91/91/91 92/92/92
f 93/93/93 94/94/94 91/91/91
f 95/95/95 94/94/94 93/93/93
f 95/95/95 96/96/96 94/94/94
f 97/97/97 96/96/96 95/95/95
f 97/97/97 98/98/98 96/96/96
f 99/99/99 98/98/98 97/97/97
f 99/99/99 100/100/100 98/98/98
f 101/101/101 100/100/100 99/99/99
f 101/101/101 102/102/102 100/100/100
f 103/103/103 102/102/102 101/101/101
f 103/103/103 104/104/104 102/102/102
f 105/105/105 104/104/104 103/103/103
f 105/105/105 106/106/106 104/104/104
f 107/107/107 106/106/106 105/105/105
f 107/107/107 108/108/108 106/106/106
f 109/109/109 108/108/108 107/107/107
f 109/109/109 110/110/110 108/108/108
f 111/111/111 110/110/110 109/109/109
f 112/112/112 72/72/72 70/70/70
f 113/113/113 72/72/72 112/112/112
f 116/116/116 115/115/115 114/114/114
f 116/116/116 114/114/114 117/117/117
f 116/116/116 117/117/117 118/118/118
f 116/116/116 118/118/118 119/119/119
f 116/116/116 119/119/119 120/120/120
f 116/116/116 120/120/120 121/121/121
f 116/116/116 121/121/121 122/122/122
f 116/116/116 122/122/122 123/123/123
f 116/116/116 123/123/123 124/124/124
f 116/116/116 124/124/124 125/125/125
f 116/116/116 125/125/125 126/126/126
f 116/116/116 126/126/126 127/127/127
f 116/116/116 127/127/127 128/128/128
f 116/116/116 128/128/128 129/129/129
f 116/116/116 129/129/129 130/130/130
f 116/116/116 130/130/130 131/131/131
f 116/116/116 131/131/131 132/132/132
f 116/116/116 132/132/132 133/133/133
f 116/116/116 133/133/133 134/134/134
f 116/116/116 134/134/134 115/115/115
f 137/137/137 136/136/136 135/135/135
f 138/138/138 136/136/136 137/137/137
f 137/137/137 135/135/135 139/139/139
f 139/139/139 135/135/135 140/140/140
f 139/139/139 140/140/140 141/141/141
f 141/141/141 140/140/140 142/142/142
f 141/141/141 142/142/142 143/143/143
f 143/143/143 142/142/142 144/144/144
f 143/143/143 144/144/144 145/145/145
f 145/145/145 144/144/144 146/146/146
f 145/145/145 146/146/146 147/147/147
f 147/147/147 146/146/146 148/148/148
f 138/138/138 149/149/149 136/136/136
f 150/150/150 149/149/149 138/138/138
f 150/150/150 151/151/151 149/149/149
f 152/152/152 151/151/151 150/150/150
f 153/153/153 139/139/139 141/141/141
f 154/154/154 139/139/139 153/153/153
f 154/154/154 137/137/137 139/139/139
f 155/155/155 137/137/137 154/154/154
f 155/155/155 138/138/138 137/137/137
f 156/156/156 138/138/138 155/155/155
f 156/156/156 150/150/150 138/138/138
f 157/157/157 152/152/152 150/150/150
f 157/157/157 150/150/150 156/156/156
f 158/158/158 152/152/152 157/157/157
f 159/159/159 156/156/156 155/155/155
f 160/160/160 156/156/156 159/159/159
f 160/160/160 157/157/157 156/156/156
f 161/161/161 155/155/155 154/154/154
f 159/159/159 155/155/155 161/161/161
f 162/162/162 154/154/154 153/153/153
f 161/161/161 154/154/154 162/162/162
f 162/162/162 153/153/153 163/163/163
f 163/163/163 153/153/153 164/164/164
f 153/153/153 141/141/141 164/164/164
f 164/164/164 141/141/141 143/143/143
f 164/164/164 143/143/143 165/165/165
f 165/165/165 143/143/143 145/145/145
f 166/166/166 164/164/164 165/165/165
f 163/163/163 164/164/164 166/166/166
f 167/167/167 157/157/157 160/160/160
f 168/168/168 160/160/160 159/159/159
f 169/169/169 160/160/160 168/168/168
f 169/169/169 167/167/167 160/160/160
f 170/170/170 159/159/159 161/161/161
f 168/168/168 159/159/159 170/170/170
f 171/171/171 161/161/161 162/162/162
f 170/170/170 161/161/161 171/171/171
f 172/172/172 162/162/162 163/163/163
f 171/171/171 162/162/162 172/172/172
f 173/173/173 163/163/163 166/166/166
f 172/172/172 163/163/163 173/173/173
f 174/174/174 167/167/167 169/169/169
f 175/175/175 169/169/169 168/168/168
f 176/176/176 169/169/169 175/175/175
f 176/176/176 174/174/174 169/169/169
f 177/177/177 168/168/168 170/170/170
f 175/175/175 168/168/168 177/177/177
f 178/178/178 170/170/170 171/171/171
f 177/177/177 170/170/170 178/178/178
f 179/179/179 171/171/171 172/172/172
f 178/178/178 171/171/171 179/179/179
f 180/180/180 172/172/172 173/173/173
f 179/179/179 172/172/172 180/180/180
f 181/181/181 174/174/174 176/176/176
f 182/182/182 176/176/176 175/175/175
f 183/183/183 176/176/176 182/182/182
f 183/183/183 181/181/181 176/176/176
f 184/184/184 175/175/175 177/177/177
f 182/182/182 175/175/175 184/184/184
f 185/185/185 177/177/177 178/178/178
f 184/184/184 177/177/177 185/185/185
f 186/186/186 178/178/178 179/179/179
f 185/185/185 178/178/178 186/186/186
f 187/187/187 179/179/179 180/180/180
f 186/186/186 179/179/179 187/187/187
f 188/188/188 181/181/181 183/183/183
f 189/189/189 183/183/183 182/182/182
f 190/190/190 183/183/183 189/189/189
f 190/190/190 188/188/188 183/183/183
f 191/191/191 182/182/182 184/184/184
f 189/189/189 182/182/182 191/191/191
f 192/192/192 184/184/184 185/185/185
f 191/191/191 184/184/184 192/192/192
f 193/193/193 185/185/185 186/186/186
f 192/192/192 185/185/185 193/193/193
f 194/194/194 186/186/186 187/187/187
f 193/193/193 186/186/186 194/194/194
f 195/195/195 188/188/188 190/190/190
f 196/196/196 190/190/190 189/189/189
f 197/197/197 190/190/190 196/196/196
f 197/197/197 195/195/195 190/190/190
f 198/198/198 189/189/189 191/191/191
f 196/196/196 189/189/189 198/198/198
f 199/199/199 191/191/191 192/192/192
f 198/198/198 191/191/191 199/199/199
f 200/200/200 192/192/192 193/193/193
f 199/199/199 192/192/192 200/200/200
f 201/201/201 193/193/193 194/194/194
f 200/200/200 193/193/193 201/201/201
f 202/202/202 195/195/195 197/197/197
f 203/203/203 197/197/197 196/196/196
f 204/204/204 197/197/197 203/203/203
f 204/204/204 202/202/202 197/197/197
f 205/205/205 196/196/196 198/198/198
f 203/203/203 196/196/196 205/205/205
f 206/206/206 198/198/198 199/199/199
f 205/205/205 198/198/198 206/206/206
f 207/207/207 199/199/199 200/200/200
f 206/206/206 199/199/199 207/207/207
f 208/208/208 202/202/202 204/204/204
f 209/209/209 204/204/204 203/203/203
f 210/210/210 204/204/204 209/209/209
f 211/211/211 203/203/203 205/205/205
f 209/209/209 203/203/203 211/211/211
f 212/212/212 205/205/205 206/206/206
f 211/211/211 205/205/205 212/212/212
f 213/213/213 206/206/206 207/207/207
f 212/212/212 206/206/206 213/213/213
f 216/216/216 215/215/215 214/214/214
f 217/217/217 215/215/215 216/216/216
f 216/216/216 214/214/214 218/218/218
f 218/218/218 214/214/214 219/219/219
f 220/220/220 217/217/217 216/216/216
f 221/221/221 217/217/217 220/220/220
f 221/221/221 222/222/222 217/217/217
f 223/223/223 222/222/222 221/221/221
f 224/224/224 216/216/216 218/218/218
f 220/220/220 216/216/216 224/224/224
f 224/224/224 218/218/218 225/225/225
f 225/225/225 218/218/218 226/226/226
f 218/218/218 219/219/219 226/226/226
f 226/226/226 219/219/219 227/227/227
f 226/226/226 227/227/227 228/228/228
f 228/228/228 227/227/227 229/229/229
f 230/230/230 226/226/226 228/228/228
f 225/225/225 226/226/226 230/230/230
f 231/231/231 223/223/223 221/221/221
f 232/232/232 223/223/223 231/231/231
f 233/233/233 221/221/221 220/220/220
f 231/231/231 221/221/221 233/233/233
f 234/234/234 220/220/220 224/224/224
f 233/233/233 220/220/220 234/234/234
f 235/235/235 224/224/224 225/225/225
f 234/234/234 224/224/224 235/235/235
f 236/236/236 225/225/225 230/230/230
f 235/235/235 225/225/225 236/236/236
f 236/236/236 230/230/230 237/237/237
f 237/237/237 230/230/230 238/238/238
f 239/239/239 232/232/232 231/231/231
f 240/240/240 232/232/232 239/239/239
f 241/241/241 231/231/231 233/233/233
f 239/239/239 231/231/231 241/241/241
f 242/242/242 233/233/233 234/234/234
f 241/241/241 233/233/233 242/242/242
f 243/243/243 234/234/234 235/235/235
f 242/242/242 234/234/234 243/243/243
f 244/244/244 235/235/235 236/236/236
f 243/243/243 235/235/235 244/244/244
f 245/245/245 236/236/236 237/237/237
f 244/244/244 236/236/236 245/245/245
f 246/246/246 240/240/240 239/239/239
f 247/247/247 240/240/240 246/246/246
f 248/248/248 239/239/239 241/241/241
f 246/246/246 239/239/239 248/248/248
f 249/249/249 241/241/241 242/242/242
f 248/248/248 241/241/241 249/249/249
f 250/250/250 242/242/242 243/243/243
f 249/249/249 242/242/242 250/250/250
f 251/251/251 243/243/243 244/244/244
f 250/250/250 243/243/243 251/251/251
f 252/252/252 244/244/244 245/245/245
f 251/251/251 244/244/244 252/252/252
f 253/253/253 247/247/247 246/246/246
f 254/254/254 247/247/247 253/253/253
f 255/255/255 246/246/246 248/248/248
f 253/253/253 246/246/246 255/255/255
f 256/256/256 248/248/248 249/249/249
f 255/255/255 248/248/248 256/256/256
f 257/257/257 249/249/249 250/250/250
f 256/256/256 249/249/249 257/257/257
f 258/258/258 250/250/250 251/251/251
f 257/257/257 250/250/250 258/258/258
f 259/259/259 251/251/251 252/252/252
f 258/258/258 251/251/251 259/259/259
f 260/260/260 254/254/254 253/253/253
f 261/261/261 254/254/254 260/260/260
f 262/262/262 253/253/253 255/255/255
f 260/260/260 253/253/253 262/262/262
f 263/263/263 255/255/255 256/256/256
f 262/262/262 255/255/255 263/263/263
f 264/264/264 256/256/256 257/257/257
f 263/263/263 256/256/256 264/264/264
f 265/265/265 257/257/257 258/258/258
f 264/264/264 257/257/257 265/265/265
f 266/266/266 258/258/258 259/259/259
f 265/265/265 258/258/258 266/266/266
f 267/267/267 261/261/261 260/260/260
f 268/268/268 261/261/261 267/267/267
f 269/269/269 260/260/260 262/262/262
f 267/267/267 260/260/260 269/269/269
f 270/270/270 262/262/262 263/263/263
f 269/269/269 262/262/262 270/270/270
f 271/271/271 263/263/263 264/264/264
f 270/270/270 263/263/263 271/271/271
f 272/272/272 264/264/264 265/265/265
f 271/271/271 264/264/264 272/272/272
f 273/273/273 265/265/265 266/266/266
f 272/272/272 265/265/265 273/273/273
f 274/274/274 268/268/268 267/267/267
f 275/275/275 268/268/268 274/274/274
f 275/275/275 276/276/276 268/268/268
f 277/277/277 276/276/276 275/275/275
f 278/278/278 267/267/267 269/269/269
f 274/274/274 267/267/267 278/278/278
f 279/279/279 269/269/269 270/270/270
f 278/278/278 269/269/269 279/279/279
f 280/280/280 270/270/270 271/271/271
f 279/279/279 270/270/270 280/280/280
f 281/281/281 271/271/271 272/272/272
f 280/280/280 271/271/271 281/281/281
f 282/282/282 272/272/272 273/273/273
f 281/281/281 272/272/272 282/282/282
f 283/283/283 277/277/277 275/275/275
f 284/284/284 277/277/277 283/283/283
f 285/285/285 275/275/275 274/274/274
f 283/283/283 275/275/275 285/285/285
f 286/286/286 274/274/274 278/278/278
f 285/285/285 274/274/274 286/286/286
f 287/287/287 278/278/278 279/279/279
f 286/286/286 278/278/278 287/287/287
f 288/288/288 279/279/279 280/280/280
f 287/287/287 279/279/279 288/288/288
f 289/289/289 280/280/280 281/281/281
f 288/288/288 280/280/280 289/289/289
f 290/290/290 281/281/281 282/282/282
f 289/289/289 281/281/281 290/290/290
f 290/290/290 282/282/282 291/291/291
f 291/291/291 282/282/282 292/292/292
f 293/293/293 284/284/284 283/283/283
f 293/293/293 283/283/283 285/285/285
f 293/293/293 285/285/285 286/286/286
f 293/293/293 286/286/286 287/287/287
f 293/293/293 287/287/287 288/288/288
f 293/293/293 288/288/288 289/289/289
f 293/293/293 289/289/289 290/290/290
f 293/293/293 290/290/290 291/291/291
f 293/293/293 294/294/294 284/284/284
f 293/293/293 295/295/295 294/294/294
f 293/293/293 291/291/291 296/296/296
f 293/293/293 296/296/296 295/295/295
f 297/297/297 135/135/135 136/136/136
f 297/297/297 140/140/140 135/135/135
f 297/297/297 142/142/142 140/140/140
f 297/297/297 144/144/144 142/142/142
f 297/297/297 146/146/146 144/144/144
f 297/297/297 148/148/148 146/146/146
f 297/297/297 136/136/136 149/149/149
f 297/297/297 149/149/149 151/151/151
f 297/297/297 151/151/151 298/298/298
f 297/297/297 298/298/298 299/299/299
f 297/297/297 300/300/300 148/148/148
f 297/297/297 299/299/299 300/300/300
f 303/303/303 302/302/302 301/301/301
f 304/304/304 302/302/302 303/303/303
f 303/303/303 301/301/301 305/305/305
f 305/305/305 301/301/301 306/306/306
f 305/305/305 306/306/306 307/307/307
f 307/307/307 306/306/306 308/308/308
f 307/307/307 308/308/308 309/309/309
f 309/309/309 308/308/308 310/310/310
f 309/309/309 310/310/310 311/311/311
f 311/311/311 310/310/310 312/312/312
f 311/311/311 312/312/312 313/313/313
f 313/313/313 312/312/312 314/314/314
f 313/313/313 314/314/314 315/315/315
f 315/315/315 314/314/314 316/316/316
f 315/315/315 316/316/316 317/317/317
f 317/317/317 316/316/316 318/318/318
f 317/317/317 318/318/318 319/319/319
f 319/319/319 318/318/318 320/320/320
f 323/323/323 322/322/322 321/321/321
f 324/324/324 322/322/322 323/323/323
f 323/323/323 321/321/321 325/325/325
f 325/325/325 321/321/321 326/326/326
f 325/325/325 326/326/326 327/327/327
f 327/327/327 326/326/326 328/328/328
f 327/327/327 328/328/328 329/329/329
f 329/329/329 328/328/328 330/330/330
f 329/329/329 330/330/330 331/331/331
f 331/331/331 330/330/330 332/332/332
f 331/331/331 332/332/332 333/333/333
f 333/333/333 332/332/332 334/334/334
f 333/333/333 334/334/334 335/335/335
f 335/335/335 334/334/334 336/336/336
f 335/335/335 336/336/336 337/337/337
f 337/337/337 336/336/336 338/338/338
f 337/337/337 338/338/338 339/339/339
f 339/339/339 338/338/338 340/340/340
f 339/339/339 340/340/340 341/341/341
f 341/341/341 340/340/340 342/342/342
f 304/304/304 343/343/343 302/302/302
f 344/344/344 343/343/343 304/304/304
f 347/347/347 346/346/346 345/345/345
f 347/347/347 345/345/345 348/348/348
f 347/347/347 348/348/348 349/349/349
f 347/347/347 349/349/349 350/350/350
f 347/347/347 350/350/350 351/351/351
f 347/347/347 351/351/351 352/352/352
f 347/347/347 352/352/352 353/353/353
f 347/347/347 353/353/353 354/354/354
f 347/347/347 354/354/354 355/355/355
f 347/347/347 355/355/355 356/356/356
f 347/347/347 356/356/356 357/357/357
f 347/347/347 357/357/357 358/358/358
f 347/347/347 358/358/358 359/359/359
f 347/347/347 359/359/359 360/360/360
f 347/347/347 360/360/360 361/361/361
f 347/347/347 361/361/361 362/362/362
f 347/347/347 362/362/362 363/363/363
f 347/347/347 363/363/363 364/364/364
f 347/347/347 364/364/364 365/365/365
f 347/347/347 365/365/365 346/346/346
f 368/368/368 367/367/367 366/366/366
f 369/369/369 367/367/367 368/368/368
f 368/368/368 366/366/366 370/370/370
f 370/370/370 366/366/366 371/371/371
f 370/370/370 371/371/371 372/372/372
f 372/372/372 371/371/371 373/373/373
f 372/372/372 373/373/373 374/374/374
f 374/374/374 373/373/373 375/375/375
f 374/374/374 375/375/375 376/376/376
f 376/376/376 375/375/375 377/377/377
f 376/376/376 377/377/377 378/378/378
f 378/378/378 377/377/377 379/379/379
f 378/378/378 379/379/379 380/380/380
f 380/380/380 379/379/379 381/381/381
f 380/380/380 381/381/381 382/382/382
f 382/382/382 381/381/381 383/383/383
f 382/382/382 383/383/383 384/384/384
f 384/384/384 383/383/383 385/385/385
f 388/388/388 387/387/387 386/386/386
f 389/389/389 387/387/387 388/388/388
f 388/388/388 386/386/386 390/390/390
f 390/390/390 386/386/386 391/391/391
f 390/390/390 391/391/391 392/392/392
f 392/392/392 391/391/391 393/393/393
f 392/392/392 393/393/393 394/394/394
f 394/394/394 393/393/393 395/395/395
f 394/394/394 395/395/395 396/396/396
f 396/396/396 395/395/395 397/397/397
f 396/396/396 397/397/397 398/398/398
f 398/398/398 397/397/397 399/399/399
f 398/398/398 399/399/399 400/400/400
f 400/400/400 399/399/399 401/401/401
f 400/400/400 401/401/401 402/402/402
f 402/402/402 401/401/401 403/403/403
f 402/402/402 403/403/403 404/404/404
f 404/404/404 403/403/403 405/405/405
f 404/404/404 405/405/405 406/406/406
f 406/406/406 405/405/405 407/407/407
f 369/369/369 408/408/408 367/367/367
f 409/409/409 408/408/408 369/369/369
f 412/412/412 411/411/411 410/410/410
f 412/412/412 410/410/410 413/413/413
f 412/412/412 413/413/413 414/414/414
f 412/412/412 414/414/414 415/415/415
f 412/412/412 415/415/415 416/416/416
f 412/412/412 416/416/416 417/417/417
f 412/412/412 417/417/417 418/418/418
f 412/412/412 418/418/418 419/419/419
f 412/412/412 419/419/419 420/420/420
f 412/412/412 420/420/420 421/421/421
f 412/412/412 421/421/421 422/422/422
f 412/412/412 422/422/422 423/423/423
f 412/412/412 423/423/423 424/424/424
f 412/412/412 424/424/424 425/425/425
f 412/412/412 425/425/425 426/426/426
f 412/412/412 426/426/426 427/427/427
f 412/412/412 427/427/427 428/428/428
f 412/412/412 428/428/428 429/429/429
f 412/412/412 429/429/429 430/430/430
f 412/412/412 430/430/430 411/411/411
f 433/433/433 432/432/432 431/431/431
f 434/434/434 432/432/432 433/433/433
f 433/433/433 431/431/431 435/435/435
f 435/435/435 431/431/431 436/436/436
f 435/435/435 436/436/436 437/437/437
f 437/437/437 436/436/436 438/438/438
f 437/437/437 438/438/438 439/439/439
f 439/439/439 438/438/438 440/440/440
f 439/439/439 440/440/440 441/441/441
f 441/441/441 440/440/440 442/442/442
f 441/441/441 442/442/442 443/443/443
f 443/443/443 442/442/442 444/444/444
f 443/443/443 444/444/444 445/445/445
f 445/445/445 444/444/444 446/446/446
f 445/445/445 446/446/446 447/447/447
f 447/447/447 446/446/446 448/448/448
f 447/447/447 448/448/448 449/449/449
f 449/449/449 448/448/448 450/450/450
f 453/453/453 452/452/452 451/451/451
f 454/454/454 452/452/452 453/453/453
f 453/453/453 451/451/451 455/455/455
f 455/455/455 451/451/451 456/456/456
f 455/455/455 456/456/456 457/457/457
f 457/457/457 456/456/456 458/458/458
f 457/457/457 458/458/458 459/459/459
f 459/459/459 458/458/458 460/460/460
f 459/459/459 460/460/460 461/461/461
f 461/461/461 460/460/460 462/462/462
f 461/461/461 462/462/462 463/463/463
f 463/463/463 462/462/462 464/464/464
f 463/463/463 464/464/464 465/465/465
f 465/465/465 464/464/464 466/466/466
f 465/465/465 466/466/466 467/467/467
f 467/467/467 466/466/466 468/468/468
f 467/467/467 468/468/468 469/469/469
f 469/469/469 468/468/468 470/470/470
f 469/469/469 470/470/470 471/471/471
f 471/471/471 470/470/470 472/472/472
f 434/434/434 473/473/473 432/432/432
f 474/474/474 473/473/473 434/434/434
f 477/477/477 476/476/476 475/475/475
f 477/477/477 475/475/475 478/478/478
f 477/477/477 478/478/478 479/479/479
f 477/477/477 479/479/479 480/480/480
f 477/477/477 480/480/480 481/481/481
f 477/477/477 481/481/481 482/482/482
f 477/477/477 482/482/482 483/483/483
f 477/477/477 483/483/483 484/484/484
f 477/477/477 484/484/484 485/485/485
f 477/477/477 485/485/485 486/486/486
f 477/477/477 486/486/486 487/487/487
f 477/477/477 487/487/487 488/488/488
f 477/477/477 488/488/488 489/489/489
f 477/477/477 489/489/489 490/490/490
f 477/477/477 490/490/490 491/491/491
f 477/477/477 491/491/491 492/492/492
f 477/477/477 492/492/492 493/493/493
f 477/477/477 493/493/493 494/494/494
f 477/477/477 494/494/494 495/495/495
f 477/477/477 495/495/495 476/476/476
f 498/498/498 497/497/497 496/496/496
f 499/499/499 497/497/497 498/498/498
f 500/500/500 497/497/497 499/499/499
f 501/501/501 497/497/497 500/500/500
f 502/502/502 501/501/501 500/500/500
f 503/503/503 501/501/501 502/502/502
f 502/502/502 504/504/504 503/503/503
f 505/505/505 504/504/504 502/502/502
f 505/505/505 506/506/506 504/504/504
f 507/507/507 506/506/506 505/505/505
f 507/507/507 508/508/508 506/506/506
f 509/509/509 508/508/508 507/507/507
f 509/509/509 510/510/510 508/508/508
f 511/511/511 510/510/510 509/509/509
f 511/511/511 512/512/512 510/510/510
f 513/513/513 512/512/512 511/511/511
f 513/513/513 514/514/514 512/512/512
f 515/515/515 514/514/514 513/513/513
f 518/518/518 517/517/517 516/516/516
f 516/516/516 517/517/517 519/519/519
f 517/517/517 520/520/520 519/519/519
f 521/521/521 520/520/520 517/517/517
f 521/521/521 522/522/522 520/520/520
f 523/523/523 522/522/522 521/521/521
f 523/523/523 524/524/524 522/522/522
f 525/525/525 518/518/518 516/516/516
f 526/526/526 518/518/518 525/525/525
f 526/526/526 525/525/525 527/527/527
f 527/527/527 525/525/525 528/528/528
f 527/527/527 528/528/528 529/529/529
f 529/529/529 528/528/528 530/530/530
f 529/529/529 530/530/530 531/531/531
f 531/531/531 530/530/530 532/532/532
f 531/531/531 532/532/532 533/533/533
f 533/533/533 532/532/532 534/534/534
f 533/533/533 534/534/534 535/535/535
f 535/535/535 534/534/534 536/536/536
f 535/535/535 536/536/536 537/537/537
f 537/537/537 536/536/536 538/538/538
f 537/537/537 538/538/538 539/539/539
f 539/539/539 538/538/538 540/540/540
f 539/539/539 540/540/540 541/541/541
f 541/541/541 540/540/540 542/542/542
f 541/541/541 542/542/542 543/543/543
f 546/546/546 545/545/545 544/544/544
f 544/544/544 545/545/545 547/547/547
f 548/548/548 547/547/547 545/545/545
f 549/549/549 547/547/547 548/548/548
f 550/550/550 549/549/549 548/548/548
f 551/551/551 549/549/549 550/550/550
f 552/552/552 546/546/546 544/544/544
f 553/553/553 546/546/546 552/552/552
f 552/552/552 554/554/554 553/553/553
f 553/553/553 554/554/554 555/555/555
f 554/554/554 556/556/556 555/555/555
f 555/555/555 556/556/556 557/557/557
f 556/556/556 558/558/558 557/557/557
f 557/557/557 558/558/558 559/559/559
f 558/558/558 560/560/560 559/559/559
f 559/559/559 560/560/560 561/561/561
f 560/560/560 562/562/562 561/561/561
f 561/561/561 562/562/562 563/563/563
f 564/564/564 551/551/551 550/550/550
f 565/565/565 551/551/551 564/564/564
f 566/566/566 565/565/565 564/564/564
f 567/567/567 565/565/565 566/566/566
f 570/570/570 569/569/569 568/568/568
f 571/571/571 569/569/569 570/570/570
f 571/571/571 572/572/572 569/569/569
f 573/573/573 572/572/572 571/571/571
f 570/570/570 568/568/568 574/574/574
f 574/574/574 568/568/568 575/575/575
f 578/578/578 577/577/577 576/576/576
f 579/579/579 577/577/577 578/578/578
f 581/581/581 580/580/580 577/577/577
f 577/577/577 580/580/580 582/582/582
f 580/580/580 583/583/583 582/582/582
f 582/582/582 583/583/583 584/584/584
f 583/583/583 585/585/585 584/584/584
f 586/586/586 585/585/585 583/583/583
f 586/586/586 587/587/587 585/585/585
f 588/588/588 587/587/587 586/586/586
f 588/588/588 589/589/589 587/587/587
f 590/590/590 589/589/589 588/588/588
f 590/590/590 591/591/591 589/589/589
f 592/592/592 591/591/591 590/590/590
f 592/592/592 593/593/593 591/591/591
f 594/594/594 593/593/593 592/592/592
f 594/594/594 595/595/595 593/593/593
f 596/596/596 595/595/595 594/594/594
f 599/599/599 598/598/598 597/597/597
f 601/601/601 598/598/598 600/600/600
f 601/601/601 603/603/603 602/602/602
f 603/603/603 604/604/604 602/602/602
f 602/602/602 604/604/604 605/605/605
f 605/605/605 604/604/604 606/606/606
f 606/606/606 604/604/604 607/607/607
f 606/606/606 607/607/607 608/608/608
f 608/608/608 607/607/607 609/609/609
f 608/608/608 609/609/609 610/610/610
f 600/600/600 603/603/603 611/611/611
f 610/610/610 609/609/609 612/612/612
f 610/610/610 612/612/612 613/613/613
f 613/613/613 612/612/612 614/614/614
f 613/613/613 614/614/614 615/615/615
f 615/615/615 614/614/614 616/616/616
f 615/615/615 616/616/616 617/617/617
f 617/617/617 616/616/616 524/524/524
f 617/617/617 524/524/524 523/523/523
f 620/620/620 619/619/619 618/618/618
f 621/621/621 619/619/619 620/620/620
f 622/622/622 621/621/621 620/620/620
f 623/623/623 621/621/621 622/622/622
f 624/624/624 623/623/623 622/622/622
f 625/625/625 623/623/623 624/624/624
f 626/626/626 625/625/625 624/624/624
f 627/627/627 625/625/625 626/626/626
f 628/628/628 627/627/627 626/626/626
f 629/629/629 627/627/627 628/628/628
f 619/619/619 630/630/630 618/618/618
f 618/618/618 630/630/630 631/631/631
f 630/630/630 632/632/632 631/631/631
f 631/631/631 632/632/632 633/633/633
f 632/632/632 634/634/634 633/633/633
f 633/633/633 634/634/634 635/635/635
f 634/634/634 636/636/636 635/635/635
f 635/635/635 636/636/636 637/637/637
f 636/636/636 638/638/638 637/637/637
f 637/637/637 638/638/638 639/639/639
f 638/638/638 640/640/640 639/639/639
f 639/639/639 640/640/640 641/641/641
f 640/640/640 642/642/642 641/641/641
f 641/641/641 642/642/642 643/643/643
f 646/646/646 645/645/645 644/644/644
f 648/648/648 496/496/496 647/647/647
f 498/498/498 496/496/496 648/648/648
f 648/648/648 647/647/647 649/649/649
f 649/649/649 647/647/647 650/650/650
