g GVG_TeleporterLever2_mesh
v 1180.083 151.9872 -1040.819
v 1180.482 153.0907 -1039.456
v 1181.24 153.2259 -1043.231
v 1181.999 155.3249 -1040.637
v 1178.978 150.9144 -1044.351
v 1178.894 150.772 -1041.408
v 1176.078 149.2734 -1043.57
v 1177.369 149.9093 -1040.998
v 1173.648 148.9298 -1041.185
v 1176.092 149.7286 -1039.744
v 1172.615 150.0148 -1038.108
v 1175.549 150.2991 -1038.126
v 1173.374 152.1138 -1035.514
v 1175.948 151.4026 -1036.763
v 1175.636 154.4253 -1034.394
v 1177.137 152.6178 -1036.174
v 1178.536 156.0662 -1035.175
v 1178.661 153.4804 -1036.584
v 1180.966 156.4098 -1037.56
v 1179.939 153.6612 -1037.838
v 1171.167 149.0408 -1042.773
v 1169.745 150.5341 -1038.538
v 1170.791 153.4231 -1034.968
v 1173.903 156.6045 -1033.426
v 1182.662 157.8427 -1042.019
v 1181.616 154.9537 -1045.589
v 1178.504 151.7722 -1047.131
v 1174.513 149.5137 -1046.056
v 1181.24 159.336 -1037.783
v 1181.177 157.0015 -1047.663
v 1182.405 160.3978 -1043.466
v 1177.517 153.2614 -1049.476
v 1172.825 150.6065 -1048.211
v 1168.892 150.0505 -1044.353
v 1168.45 155.2022 -1035.176
v 1179.963 159.1689 -1049.249
v 1181.255 162.7401 -1044.836
v 1176.115 155.2364 -1051.155
v 1171.182 152.4448 -1049.826
v 1167.047 151.8602 -1045.769
v 1165.29 153.7059 -1040.534
v 1167.221 151.8059 -1039.374
v 1166.581 157.2771 -1036.12
v 1174.435 157.5037 -1052.006
v 1178.094 161.2437 -1050.193
v 1169.743 154.8486 -1050.742
v 1165.81 154.2926 -1046.883
v 1164.139 156.0481 -1041.904
v 1165.304 157.1099 -1047.586
v 1168.65 157.5829 -1050.869
v 1172.641 159.8415 -1051.944
v 1163.882 158.6031 -1043.351
v 1165.578 160.0361 -1047.81
v 1168.008 160.3797 -1050.194
v 1175.753 163.0229 -1050.402
v 1177.895 158.8631 -1034.501
v 1180.966 156.4098 -1037.56
v 1178.536 156.0662 -1035.175
v 1181.24 159.336 -1037.783
v 1177.895 158.8631 -1034.501
v 1180.734 162.1533 -1038.487
v 1176.801 161.5972 -1034.628
v 1173.903 156.6045 -1033.426
v 1172.109 158.9423 -1033.364
v 1182.405 160.3978 -1043.466
v 1182.662 157.8427 -1042.019
v 1179.498 164.5858 -1039.601
v 1175.362 164.0011 -1035.544
v 1170.429 161.2095 -1034.214
v 1181.255 162.7401 -1044.836
v 1173.719 165.8394 -1037.158
v 1169.027 163.1844 -1035.894
v 1166.581 157.2771 -1036.12
v 1168.45 155.2022 -1035.176
v 1165.368 159.4445 -1037.707
v 1165.29 153.7059 -1040.534
v 1164.139 156.0481 -1041.904
v 1177.651 166.3956 -1041.017
v 1179.323 164.64 -1045.996
v 1178.094 161.2437 -1050.193
v 1179.963 159.1689 -1049.249
v 1175.753 163.0229 -1050.402
v 1176.798 165.912 -1046.831
v 1164.928 161.4922 -1039.781
v 1163.882 158.6031 -1043.351
v 1168.04 164.6737 -1038.239
v 1172.032 166.9322 -1039.314
v 1175.377 167.4052 -1042.596
v 1173.17 164.3321 -1049.856
v 1173.929 166.4312 -1047.261
v 1170.908 162.0207 -1050.976
v 1172.641 159.8415 -1051.944
v 1165.304 163.2202 -1042.139
v 1164.545 161.1211 -1044.733
v 1165.304 157.1099 -1047.586
v 1165.578 160.0361 -1047.81
v 1167.566 165.5315 -1041.018
v 1170.466 167.1725 -1041.8
v 1172.896 167.516 -1044.184
v 1170.596 165.0434 -1048.607
v 1170.996 166.1469 -1047.243
v 1169.407 163.8282 -1049.196
v 1167.883 162.9655 -1048.785
v 1168.008 160.3797 -1050.194
v 1166.605 162.7848 -1047.532
v 1166.062 163.3552 -1045.914
v 1166.461 164.4588 -1044.55
v 1167.65 165.6739 -1043.961
v 1169.175 166.5367 -1044.372
v 1170.453 166.7173 -1045.626
v 1168.285 165.0871 -1046.779
v 1168.65 157.5829 -1050.869
v 1170.791 153.4231 -1034.968
v 1187.649 143.0351 -1031.97
v 1187.179 141.7361 -1033.575
v 1198.774 129.0688 -1021.107
v 1198.375 127.9653 -1022.47
v 1198.231 129.6393 -1019.489
v 1187.01 143.7065 -1030.066
v 1196.953 129.4586 -1018.235
v 1185.506 143.4938 -1028.59
v 1195.429 128.5959 -1017.824
v 1183.711 142.4784 -1028.107
v 1194.24 127.3807 -1018.413
v 1182.312 141.048 -1028.8
v 1179.725 154.5068 -1040.555
v 1179.109 155.1543 -1038.719
v 1177.658 154.9491 -1037.296
v 1175.928 153.9701 -1036.83
v 1174.579 152.5909 -1037.498
v 1179.272 153.2544 -1042.103
v 1187.179 141.7361 -1033.575
v 1185.779 140.3057 -1034.268
v 1198.375 127.9653 -1022.47
v 1197.186 126.7502 -1023.059
v 1183.985 139.2903 -1033.785
v 1195.661 125.8875 -1022.648
v 1182.481 139.0776 -1032.309
v 1194.383 125.7068 -1021.395
v 1181.842 139.7491 -1030.405
v 1193.84 126.2773 -1019.777
v 1182.312 141.048 -1028.8
v 1194.24 127.3807 -1018.413
v 1174.579 152.5909 -1037.498
v 1174.126 151.3386 -1039.046
v 1174.742 150.6911 -1040.882
v 1176.192 150.8962 -1042.305
v 1177.922 151.8753 -1042.771
v 1179.272 153.2544 -1042.103
vt 0.117925 0.378199
vt 0.119125 0.380517
vt 0.120715 0.372772
vt 0.123 0.37718
vt 0.115303 0.37146
vt 0.115082 0.377507
vt 0.108836 0.373736
vt 0.111681 0.378701
vt 0.103777 0.378727
vt 0.10902 0.381326
vt 0.102049 0.384534
vt 0.108113 0.384379
vt 0.104314 0.388946
vt 0.109307 0.386698
vt 0.109718 0.390276
vt 0.112148 0.387395
vt 0.1162 0.388007
vt 0.115552 0.386203
vt 0.121277 0.383002
vt 0.118219 0.383575
vt 0.098773 0.375452
vt 0.09639 0.383444
vt 0.099503 0.389519
vt 0.10694 0.391353
vt 0.125241 0.373307
vt 0.12209 0.367242
vt 0.114636 0.365443
vt 0.105736 0.368582
vt 0.122867 0.38133
vt 0.121914 0.362147
vt 0.125623 0.369278
vt 0.113146 0.36004
vt 0.102679 0.363738
vt 0.094491 0.371819
vt 0.09534 0.388361
vt 0.1202 0.357987
vt 0.124101 0.365487
vt 0.110976 0.355777
vt 0.099965 0.359674
vt 0.091348 0.368179
vt 0.088394 0.378065
vt 0.091686 0.381217
vt 0.092234 0.385579
vt 0.108336 0.353072
vt 0.117112 0.355172
vt 0.097855 0.356785
vt 0.089653 0.364884
vt 0.086838 0.374293
vt 0.089572 0.362257
vt 0.096558 0.355358
vt 0.105482 0.352196
vt 0.087175 0.370269
vt 0.091123 0.360557
vt 0.096204 0.355539
vt 0.112949 0.353982
vt 0.11587 0.388227
vt 0.121277 0.383002
vt 0.1162 0.388007
vt 0.122867 0.38133
vt 0.11587 0.388227
vt 0.122828 0.378717
vt 0.114593 0.386836
vt 0.10694 0.391353
vt 0.104086 0.390517
vt 0.125623 0.369278
vt 0.125241 0.373307
vt 0.121159 0.375418
vt 0.112491 0.383966
vt 0.101434 0.387843
vt 0.124101 0.365487
vt 0.109767 0.379894
vt 0.099246 0.383589
vt 0.092234 0.385579
vt 0.09534 0.388361
vt 0.090492 0.38144
vt 0.088394 0.378065
vt 0.086838 0.374293
vt 0.118017 0.371757
vt 0.120821 0.362306
vt 0.117112 0.355172
vt 0.1202 0.357987
vt 0.112949 0.353982
vt 0.1161 0.360053
vt 0.090287 0.376348
vt 0.087175 0.370269
vt 0.097738 0.37817
vt 0.106691 0.37502
vt 0.113711 0.368094
vt 0.108119 0.354538
vt 0.110405 0.35895
vt 0.102694 0.353239
vt 0.105482 0.352196
vt 0.091644 0.370801
vt 0.08938 0.366384
vt 0.089572 0.362257
vt 0.091123 0.360557
vt 0.097061 0.372119
vt 0.103566 0.369825
vt 0.108666 0.364792
vt 0.103098 0.356789
vt 0.104297 0.359109
vt 0.100246 0.356104
vt 0.096831 0.357313
vt 0.096204 0.355539
vt 0.094156 0.359954
vt 0.09324 0.36302
vt 0.094433 0.365342
vt 0.097283 0.366032
vt 0.100702 0.364825
vt 0.103382 0.362179
vt 0.09838 0.360512
vt 0.096558 0.355358
vt 0.099503 0.389519
vt 0.130146 0.399853
vt 0.128734 0.397126
vt 0.147651 0.427367
vt 0.146451 0.425051
vt 0.146761 0.430405
vt 0.129087 0.403443
vt 0.144121 0.433002
vt 0.125962 0.406521
vt 0.140742 0.434164
vt 0.121967 0.407909
vt 0.137915 0.433449
vt 0.118632 0.407079
vt 0.118078 0.377689
vt 0.117049 0.381161
vt 0.114021 0.384146
vt 0.110156 0.385501
vt 0.106931 0.38471
vt 0.116717 0.375058
vt 0.128734 0.397126
vt 0.125395 0.396303
vt 0.146451 0.425051
vt 0.143621 0.424341
vt 0.121407 0.397694
vt 0.140246 0.425505
vt 0.118289 0.400767
vt 0.137611 0.428099
vt 0.117228 0.404351
vt 0.13672 0.431132
vt 0.118632 0.407079
vt 0.137915 0.433449
vt 0.106931 0.38471
vt 0.105577 0.382078
vt 0.106607 0.378612
vt 0.109628 0.375631
vt 0.113489 0.374274
vt 0.116717 0.375058
vn 0.7703575 -0.6361762 0.04276835
vn 0.8574238 -0.4549936 0.2404271
vn 0.8391466 -0.5400466 -0.06467412
vn 0.9263882 -0.3150979 0.2061998
vn 0.5950871 -0.7840638 -0.1763952
vn 0.5690322 -0.8219797 -0.02348669
vn 0.2874697 -0.9538862 -0.08638478
vn 0.3303273 -0.9414907 0.06692584
vn 0.03374327 -0.9846895 0.171021
vn 0.145372 -0.9490647 0.2795411
vn -0.06913455 -0.8646895 0.4975265
vn 0.08488496 -0.8417842 0.5330983
vn 0.01814462 -0.6397383 0.7683787
vn 0.1719292 -0.6606417 0.7307482
vn 0.2621627 -0.3957633 0.8801376
vn 0.3731735 -0.4748482 0.7970324
vn 0.5697739 -0.2259364 0.7901333
vn 0.6119397 -0.3553168 0.7065973
vn 0.8235077 -0.1951159 0.5326958
vn 0.7969062 -0.3477085 0.4940033
vn -0.2275079 -0.9737759 -0.0008453933
vn -0.3736385 -0.8118686 0.4486241
vn -0.2580193 -0.5036868 0.8244548
vn 0.07521233 -0.1669537 0.9830919
vn 0.9969482 -0.04602642 0.06305417
vn 0.8813244 -0.3541736 -0.3127753
vn 0.5481204 -0.6908799 -0.471433
vn 0.1245662 -0.9275686 -0.3522782
vn 0.8508139 0.1159347 0.5125182
vn 0.836961 -0.1334683 -0.5307378
vn 0.9698073 0.2279214 -0.08675116
vn 0.4470446 -0.5300057 -0.7205867
vn -0.05102152 -0.8102812 -0.583816
vn -0.4669613 -0.8672672 -0.1726117
vn -0.5090706 -0.3178195 0.7998987
vn 0.7101846 0.1004247 -0.6968161
vn 0.8473375 0.4794617 -0.228332
vn 0.3017917 -0.3170153 -0.8991235
vn -0.2218717 -0.6133599 -0.7579991
vn -0.6607962 -0.6754133 -0.327361
vn -0.8473266 -0.4794807 0.2283332
vn -0.6419223 -0.6791661 0.3559061
vn -0.7102102 -0.1003912 0.6967948
vn 0.1268888 -0.07285588 -0.9892377
vn 0.5136034 0.324365 -0.7943544
vn -0.3709266 -0.3561077 -0.8576717
vn -0.789665 -0.4171211 -0.4499322
vn -0.969404 -0.2326486 0.07829743
vn -0.8407643 -0.118075 -0.5283689
vn -0.4832586 -0.06395479 -0.8731385
vn -0.06020513 0.1784531 -0.9821048
vn -0.9961544 0.03675231 -0.0795343
vn -0.8092414 0.1920574 -0.5551959
vn -0.5478233 0.2341204 -0.8031671
vn 0.2667742 0.5164822 -0.8136816
vn 0.4987291 0.06973425 0.8639482
vn 0.8235077 -0.1951159 0.5326958
vn 0.5697739 -0.2259364 0.7901333
vn 0.8508139 0.1159347 0.5125182
vn 0.4987291 0.06973425 0.8639482
vn 0.7948337 0.4160145 0.441782
vn 0.3788802 0.3590469 0.8529568
vn 0.07521233 -0.1669537 0.9830919
vn -0.119164 0.07875117 0.9897466
vn 0.9698073 0.2279214 -0.08675116
vn 0.9969482 -0.04602642 0.06305417
vn 0.6608106 0.6753962 0.3273672
vn 0.2218722 0.6133553 0.7580027
vn -0.301786 0.3170247 0.8991221
vn 0.8473375 0.4794617 -0.228332
vn 0.04306627 0.8073338 0.5885213
vn -0.4547378 0.5241165 0.7200803
vn -0.7102102 -0.1003912 0.6967948
vn -0.5090706 -0.3178195 0.7998987
vn -0.8414692 0.1268727 0.5251979
vn -0.8473266 -0.4794807 0.2283332
vn -0.969404 -0.2326486 0.07829743
vn 0.4617702 0.8683869 0.1807554
vn 0.6415169 0.6839035 -0.3474655
vn 0.5136034 0.324365 -0.7943544
vn 0.7101846 0.1004247 -0.6968161
vn 0.2667742 0.5164822 -0.8136816
vn 0.3728339 0.8211166 -0.4321603
vn -0.8900937 0.341368 0.301995
vn -0.9961544 0.03675231 -0.0795343
vn -0.5630906 0.6794282 0.4704321
vn -0.1400294 0.9218129 0.3614593
vn 0.2174491 0.9759288 0.01669567
vn -0.00568589 0.6578985 -0.7530851
vn 0.06800369 0.8778066 -0.4741636
vn -0.2408995 0.4120193 -0.8787534
vn -0.06020513 0.1784531 -0.9821048
vn -0.8515685 0.5219165 0.04933852
vn -0.9252535 0.3020109 -0.2295548
vn -0.8407643 -0.118075 -0.5283689
vn -0.8092414 0.1920574 -0.5551959
vn -0.6163517 0.767777 0.175012
vn -0.3093877 0.9457232 0.09943306
vn -0.04800045 0.9877416 -0.1485349
vn -0.2440184 0.7394381 -0.6274444
vn -0.2126823 0.8620162 -0.4601026
vn -0.3723407 0.5961918 -0.7112789
vn -0.548631 0.4870101 -0.6795774
vn -0.5478233 0.2341204 -0.8031671
vn -0.7055868 0.4535692 -0.5444466
vn -0.7832453 0.5086707 -0.3574646
vn -0.7519159 0.6312521 -0.1901138
vn -0.6236082 0.7744736 -0.1063174
vn -0.4472886 0.8836767 -0.1380162
vn -0.2903078 0.9171188 -0.2731566
vn -0.5293942 0.7286094 -0.434592
vn -0.4832586 -0.06395479 -0.8731385
vn -0.2580193 -0.5036868 0.8244548
vn 0.8558542 0.4676099 -0.2210308
vn 0.7458099 0.04943824 -0.6643218
vn 0.8465466 0.4244865 -0.321201
vn 0.6903775 -0.02185981 -0.7231189
vn 0.6819504 0.7009622 0.2087954
vn 0.6390417 0.7042943 0.3091851
vn 0.262515 0.7023022 0.6617081
vn 0.1798508 0.6686756 0.7214752
vn -0.2513206 0.4300987 0.8670946
vn -0.3450328 0.376277 0.8598651
vn -0.6655509 -0.0137455 0.7462259
vn -0.7373895 -0.06204843 0.6726118
vn 0.8560228 0.503419 -0.1174494
vn 0.5829426 0.7061468 0.4019134
vn 0.08543203 0.6393011 0.7641959
vn -0.4434203 0.331738 0.8326635
vn -0.8053682 -0.0991383 0.5844259
vn 0.7985867 0.1101887 -0.5917076
vn 0.7458099 0.04943824 -0.6643218
vn 0.3534622 -0.3883419 -0.8510317
vn 0.6903775 -0.02185981 -0.7231189
vn 0.2762771 -0.4636603 -0.8418373
vn -0.170784 -0.6802069 -0.7128474
vn -0.2352357 -0.7341604 -0.6369244
vn -0.6296329 -0.7161039 -0.3012601
vn -0.6533332 -0.7337588 -0.1864235
vn -0.8468724 -0.4800581 0.2288043
vn -0.8194228 -0.4595101 0.342632
vn -0.7373895 -0.06204843 0.6726118
vn -0.6655509 -0.0137455 0.7462259
vn -0.8053682 -0.0991383 0.5844259
vn -0.8633854 -0.4922309 0.1107893
vn -0.5910381 -0.69549 -0.4086167
vn -0.09339473 -0.6291622 -0.7716426
vn 0.4361989 -0.3214319 -0.8404832
vn 0.7985867 0.1101887 -0.5917076
g GVG_TeleporterLever2_mesh_0
f 3/3/3 2/2/2 1/1/1
f 4/4/4 2/2/2 3/3/3
f 3/3/3 1/1/1 5/5/5
f 5/5/5 1/1/1 6/6/6
f 5/5/5 6/6/6 7/7/7
f 7/7/7 6/6/6 8/8/8
f 7/7/7 8/8/8 9/9/9
f 9/9/9 8/8/8 10/10/10
f 9/9/9 10/10/10 11/11/11
f 11/11/11 10/10/10 12/12/12
f 11/11/11 12/12/12 13/13/13
f 13/13/13 12/12/12 14/14/14
f 13/13/13 14/14/14 15/15/15
f 15/15/15 14/14/14 16/16/16
f 15/15/15 16/16/16 17/17/17
f 17/17/17 16/16/16 18/18/18
f 17/17/17 18/18/18 19/19/19
f 19/19/19 18/18/18 20/20/20
f 19/19/19 20/20/20 4/4/4
f 4/4/4 20/20/20 2/2/2
f 21/21/21 7/7/7 9/9/9
f 22/22/22 9/9/9 11/11/11
f 21/21/21 9/9/9 22/22/22
f 23/23/23 11/11/11 13/13/13
f 22/22/22 11/11/11 23/23/23
f 24/24/24 13/13/13 15/15/15
f 23/23/23 13/13/13 24/24/24
f 25/25/25 19/19/19 4/4/4
f 25/25/25 4/4/4 26/26/26
f 26/26/26 4/4/4 3/3/3
f 26/26/26 3/3/3 27/27/27
f 27/27/27 3/3/3 5/5/5
f 27/27/27 5/5/5 28/28/28
f 28/28/28 5/5/5 7/7/7
f 28/28/28 7/7/7 21/21/21
f 29/29/29 19/19/19 25/25/25
f 30/30/30 25/25/25 26/26/26
f 31/31/31 25/25/25 30/30/30
f 32/32/32 26/26/26 27/27/27
f 30/30/30 26/26/26 32/32/32
f 33/33/33 27/27/27 28/28/28
f 32/32/32 27/27/27 33/33/33
f 34/34/34 28/28/28 21/21/21
f 33/33/33 28/28/28 34/34/34
f 35/35/35 22/22/22 23/23/23
f 36/36/36 31/31/31 30/30/30
f 37/37/37 31/31/31 36/36/36
f 38/38/38 30/30/30 32/32/32
f 36/36/36 30/30/30 38/38/38
f 39/39/39 32/32/32 33/33/33
f 38/38/38 32/32/32 39/39/39
f 40/40/40 33/33/33 34/34/34
f 39/39/39 33/33/33 40/40/40
f 40/40/40 34/34/34 41/41/41
f 41/41/41 34/34/34 42/42/42
f 34/34/34 21/21/21 42/42/42
f 42/42/42 21/21/21 22/22/22
f 42/42/42 22/22/22 35/35/35
f 43/43/43 42/42/42 35/35/35
f 41/41/41 42/42/42 43/43/43
f 44/44/44 36/36/36 38/38/38
f 45/45/45 36/36/36 44/44/44
f 46/46/46 38/38/38 39/39/39
f 44/44/44 38/38/38 46/46/46
f 47/47/47 39/39/39 40/40/40
f 46/46/46 39/39/39 47/47/47
f 48/48/48 40/40/40 41/41/41
f 47/47/47 40/40/40 48/48/48
f 49/49/49 46/46/46 47/47/47
f 50/50/50 46/46/46 49/49/49
f 50/50/50 44/44/44 46/46/46
f 51/51/51 44/44/44 50/50/50
f 51/51/51 45/45/45 44/44/44
f 52/52/52 47/47/47 48/48/48
f 49/49/49 47/47/47 52/52/52
f 53/53/53 50/50/50 49/49/49
f 54/54/54 50/50/50 53/53/53
f 55/55/55 45/45/45 51/51/51
f 56/56/56 15/15/15 17/17/17
f 24/24/24 15/15/15 56/56/56
f 59/59/59 58/58/58 57/57/57
f 60/60/60 58/58/58 59/59/59
f 61/61/61 60/60/60 59/59/59
f 62/62/62 60/60/60 61/61/61
f 62/62/62 63/63/63 60/60/60
f 64/64/64 63/63/63 62/62/62
f 61/61/61 59/59/59 65/65/65
f 65/65/65 59/59/59 66/66/66
f 67/67/67 62/62/62 61/61/61
f 68/68/68 62/62/62 67/67/67
f 68/68/68 64/64/64 62/62/62
f 69/69/69 64/64/64 68/68/68
f 70/70/70 61/61/61 65/65/65
f 67/67/67 61/61/61 70/70/70
f 71/71/71 69/69/69 68/68/68
f 72/72/72 69/69/69 71/71/71
f 72/72/72 73/73/73 69/69/69
f 73/73/73 74/74/74 69/69/69
f 69/69/69 74/74/74 64/64/64
f 75/75/75 73/73/73 72/72/72
f 75/75/75 76/76/76 73/73/73
f 77/77/77 76/76/76 75/75/75
f 78/78/78 68/68/68 67/67/67
f 71/71/71 68/68/68 78/78/78
f 79/79/79 67/67/67 70/70/70
f 78/78/78 67/67/67 79/79/79
f 79/79/79 70/70/70 80/80/80
f 80/80/80 70/70/70 81/81/81
f 82/82/82 79/79/79 80/80/80
f 83/83/83 79/79/79 82/82/82
f 83/83/83 78/78/78 79/79/79
f 84/84/84 77/77/77 75/75/75
f 85/85/85 77/77/77 84/84/84
f 86/86/86 75/75/75 72/72/72
f 84/84/84 75/75/75 86/86/86
f 86/86/86 72/72/72 87/87/87
f 88/88/88 78/78/78 83/83/83
f 88/88/88 71/71/71 78/78/78
f 87/87/87 71/71/71 88/88/88
f 87/87/87 72/72/72 71/71/71
f 89/89/89 83/83/83 82/82/82
f 90/90/90 83/83/83 89/89/89
f 90/90/90 88/88/88 83/83/83
f 89/89/89 82/82/82 91/91/91
f 91/91/91 82/82/82 92/92/92
f 93/93/93 85/85/85 84/84/84
f 94/94/94 85/85/85 93/93/93
f 94/94/94 95/95/95 85/85/85
f 96/96/96 95/95/95 94/94/94
f 97/97/97 84/84/84 86/86/86
f 93/93/93 84/84/84 97/97/97
f 98/98/98 86/86/86 87/87/87
f 97/97/97 86/86/86 98/98/98
f 99/99/99 87/87/87 88/88/88
f 98/98/98 87/87/87 99/99/99
f 99/99/99 88/88/88 90/90/90
f 100/100/100 90/90/90 89/89/89
f 101/101/101 90/90/90 100/100/100
f 101/101/101 99/99/99 90/90/90
f 102/102/102 89/89/89 91/91/91
f 100/100/100 89/89/89 102/102/102
f 102/102/102 91/91/91 103/103/103
f 103/103/103 91/91/91 104/104/104
f 91/91/91 92/92/92 104/104/104
f 105/105/105 104/104/104 96/96/96
f 103/103/103 104/104/104 105/105/105
f 106/106/106 96/96/96 94/94/94
f 105/105/105 96/96/96 106/106/106
f 107/107/107 94/94/94 93/93/93
f 106/106/106 94/94/94 107/107/107
f 108/108/108 93/93/93 97/97/97
f 107/107/107 93/93/93 108/108/108
f 109/109/109 97/97/97 98/98/98
f 108/108/108 97/97/97 109/109/109
f 110/110/110 98/98/98 99/99/99
f 109/109/109 98/98/98 110/110/110
f 110/110/110 99/99/99 101/101/101
f 111/111/111 101/101/101 100/100/100
f 111/111/111 100/100/100 102/102/102
f 111/111/111 102/102/102 103/103/103
f 111/111/111 103/103/103 105/105/105
f 111/111/111 105/105/105 106/106/106
f 111/111/111 106/106/106 107/107/107
f 111/111/111 107/107/107 108/108/108
f 111/111/111 108/108/108 109/109/109
f 111/111/111 109/109/109 110/110/110
f 111/111/111 110/110/110 101/101/101
f 104/104/104 92/92/92 112/112/112
f 64/64/64 113/113/113 63/63/63
f 74/74/74 113/113/113 64/64/64
f 116/116/116 115/115/115 114/114/114
f 117/117/117 115/115/115 116/116/116
f 116/116/116 114/114/114 118/118/118
f 118/118/118 114/114/114 119/119/119
f 118/118/118 119/119/119 120/120/120
f 120/120/120 119/119/119 121/121/121
f 120/120/120 121/121/121 122/122/122
f 122/122/122 121/121/121 123/123/123
f 122/122/122 123/123/123 124/124/124
f 124/124/124 123/123/123 125/125/125
f 114/114/114 126/126/126 119/119/119
f 119/119/119 126/126/126 127/127/127
f 119/119/119 127/127/127 121/121/121
f 121/121/121 127/127/127 128/128/128
f 121/121/121 128/128/128 123/123/123
f 123/123/123 128/128/128 129/129/129
f 123/123/123 129/129/129 125/125/125
f 125/125/125 129/129/129 130/130/130
f 114/114/114 131/131/131 126/126/126
f 115/115/115 131/131/131 114/114/114
f 134/134/134 133/133/133 132/132/132
f 135/135/135 133/133/133 134/134/134
f 135/135/135 136/136/136 133/133/133
f 137/137/137 136/136/136 135/135/135
f 137/137/137 138/138/138 136/136/136
f 139/139/139 138/138/138 137/137/137
f 139/139/139 140/140/140 138/138/138
f 141/141/141 140/140/140 139/139/139
f 141/141/141 142/142/142 140/140/140
f 143/143/143 142/142/142 141/141/141
f 142/142/142 144/144/144 140/140/140
f 140/140/140 144/144/144 145/145/145
f 140/140/140 145/145/145 138/138/138
f 138/138/138 145/145/145 146/146/146
f 138/138/138 146/146/146 136/136/136
f 136/136/136 146/146/146 147/147/147
f 136/136/136 147/147/147 133/133/133
f 133/133/133 147/147/147 148/148/148
f 133/133/133 148/148/148 132/132/132
f 132/132/132 148/148/148 149/149/149
