g HeroBackPlate_mesh_1
v 802.3655 41.61005 -983.2756
v 892.4192 41.61005 -983.2756
v 802.3655 41.61005 -873.393
v 892.6899 41.61005 -873.393
v 712.3119 41.61005 -983.2756
v 712.0411 41.61005 -873.393
v 723.5995 41.61005 -1016.283
v 802.3655 41.61005 -1016.283
v 881.1429 41.61005 -1016.283
v 745.1697 41.61005 -1043.867
v 802.3655 41.61005 -1043.867
v 859.5732 41.61005 -1043.867
v 766.8542 41.61005 -1060.229
v 802.3655 41.61005 -1060.229
v 837.881 41.61005 -1060.229
v 791.9252 41.61005 -1071.721
v 802.3655 41.61005 -1073.308
v 812.818 41.61005 -1071.721
vt 0.515625 0.458398
vt 0.92732 0.458398
vt 0.515625 0.976635
vt 0.928558 0.976635
vt 0.10393 0.458398
vt 0.102692 0.976635
vt 0.155533 0.302726
vt 0.515625 0.302726
vt 0.875769 0.302726
vt 0.254145 0.172634
vt 0.515625 0.172634
vt 0.777159 0.172634
vt 0.353279 0.095466
vt 0.515625 0.095466
vt 0.67799 0.095466
vt 0.467895 0.041266
vt 0.515625 0.033782
vt 0.56341 0.041266
vn 0 1 0
vn 0 1 0
vn 0 1 0
vn 0 1 0
vn 0 1 0
vn 0 1 0
vn 0 1 0
vn 0 1 0
vn 0 1 0
vn 0 1 0
vn 0 1 0
vn 0 1 0
vn 0 1 0
vn 0 1 0
vn 0 1 0
vn 0 1 0
vn 0 1 0
vn 0 1 0
g HeroBackPlate_mesh_1_0
f 3/3/3 2/2/2 1/1/1
f 4/4/4 2/2/2 3/3/3
f 5/5/5 3/3/3 1/1/1
f 6/6/6 3/3/3 5/5/5
f 1/1/1 7/7/7 5/5/5
f 8/8/8 7/7/7 1/1/1
f 9/9/9 1/1/1 2/2/2
f 8/8/8 1/1/1 9/9/9
f 8/8/8 10/10/10 7/7/7
f 11/11/11 10/10/10 8/8/8
f 12/12/12 8/8/8 9/9/9
f 11/11/11 8/8/8 12/12/12
f 11/11/11 13/13/13 10/10/10
f 14/14/14 13/13/13 11/11/11
f 15/15/15 11/11/11 12/12/12
f 14/14/14 11/11/11 15/15/15
f 14/14/14 16/16/16 13/13/13
f 17/17/17 16/16/16 14/14/14
f 18/18/18 14/14/14 15/15/15
f 17/17/17 14/14/14 18/18/18
