g HutFlag_mesh
v 466.6269 132.4366 -182.1178
v 458.6564 136.41 -184.422
v 471.5536 111.2459 -182.8664
v 462.9711 122.5168 -184.4019
v 477.144 108.8876 -181.3349
v 475.4962 126.2979 -179.7549
v 484.6529 113.001 -178.3439
v 485.0367 128.9751 -176.1263
v 453.7324 159.6713 -183.4082
v 462.6426 155.7094 -180.7762
v 473.3092 151.7274 -177.5362
v 484.8826 154.2412 -173.2203
v 490.5425 119.1753 -176.0943
v 492.1127 134.2352 -173.0385
v 498.0202 118.4729 -173.3369
v 498.4853 138.9723 -170.2577
v 502.3893 111.8584 -171.4775
v 504.8454 135.045 -166.821
v 508.8543 129.9586 -167.7827
v 505.5204 112.0927 -171.2697
v 493.0535 160.8477 -169.5978
v 500.4121 166.7974 -166.3355
v 508.1367 165.6778 -162.0918
v 514.2875 162.0514 -162.7259
v 511.4859 192.023 -159.6013
v 517.3631 181.8419 -159.1239
v 513.9038 211.0426 -157.8035
v 503.595 207.8379 -161.5721
v 502.2605 190.6313 -163.5692
v 494.6209 200.0491 -165.0663
v 493.9638 183.6136 -166.9662
v 519.5836 196.1293 -156.5235
v 484.6561 191.4005 -168.9463
v 484.7511 175.8211 -170.7382
v 470.0928 189.1269 -174.273
v 471.4413 173.4469 -175.6411
v 456.7827 189.9371 -178.8031
v 459.2395 175.5869 -179.6304
v 446.4906 193.8822 -181.9173
v 449.5268 179.539 -182.5424
v 440.3488 196.2365 -183.7757
v 443.7307 181.8975 -184.2801
v 430.6259 201.7399 -186.7179
v 434.8599 186.2269 -187.1669
v 420.7512 206.7357 -189.991
v 425.8361 189.6026 -190.3652
v 412.8224 206.1843 -193.858
v 418.1885 187.2047 -193.942
v 400.4432 186.6542 -199.6171
v 405.9101 173.1695 -198.8897
v 387.7997 218.2615 -200.6359
v 391.2451 233.0355 -200.4501
v 407.0323 226.659 -193.7873
v 432.8795 165.8703 -190.8835
v 440.7245 164.7388 -187.7886
v 447.5909 139.5802 -188.5166
v 452.3836 139.537 -186.2353
v 454.9744 123.8238 -187.6187
v 451.354 125.4262 -188.985
v 448.4152 162.0356 -184.9789
v 458.4309 125.8855 -185.5814
v 455.4163 138.0252 -185.3586
v 441.126 138.0843 -191.4904
v 448.947 122.2624 -191.0722
v 446.2186 118.3715 -192.0145
v 434.3241 130.1341 -194.1946
v 444.2044 112.6251 -193.0401
v 441.3474 109.0626 -194.0629
v 425.6215 160.9148 -194.0584
v 413.4826 154.4909 -197.8822
v 425.4175 124.7748 -197.4612
v 438.2203 106.4033 -195.0938
v 431.3201 107.7156 -196.5898
v 433.5017 225.2678 -182.7543
v 422.0537 233.1483 -185.8091
v 436.8684 210.9934 -183.2565
v 426.2686 217.7051 -186.256
v 443.366 208.6435 -181.2739
v 440.3435 222.9221 -180.6516
v 454.2543 204.7056 -177.9517
v 451.8087 218.9912 -177.1282
v 468.705 205.264 -172.865
v 467.3626 220.8735 -171.5031
v 484.5583 207.4339 -167.1022
v 484.4637 222.9431 -165.3184
v 495.2194 216.9375 -162.8875
v 495.7984 233.2737 -160.78
v 504.8206 225.4962 -159.0919
v 506.0062 242.5772 -156.6928
v 515.5212 230.3229 -153.4466
v 517.0858 248.9727 -149.2323
v 522.692 211.6689 -153.4871
v 525.6988 226.7003 -150.5499
v 415.4746 224.5213 -189.6084
v 410.3706 241.7253 -189.2384
v 403.3511 245.4465 -192.7568
v 399.5122 247.4815 -194.681
vt 0.100114 0.528315
vt 0.091477 0.526707
vt 0.108307 0.523771
vt 0.098057 0.524044
vt 0.114167 0.525017
vt 0.109937 0.529587
vt 0.120997 0.528768
vt 0.119079 0.533696
vt 0.082708 0.531909
vt 0.092403 0.533859
vt 0.103828 0.536409
vt 0.115149 0.541238
vt 0.125838 0.53249
vt 0.125412 0.537751
vt 0.133384 0.534979
vt 0.131115 0.541404
vt 0.138833 0.535267
vt 0.138057 0.54413
vt 0.142693 0.542371
vt 0.141819 0.535782
vt 0.122461 0.546158
vt 0.129046 0.550588
vt 0.137068 0.554692
vt 0.143745 0.553645
vt 0.136726 0.562456
vt 0.144162 0.561105
vt 0.136479 0.56806
vt 0.126253 0.563504
vt 0.127424 0.558089
vt 0.118175 0.558359
vt 0.119972 0.553244
vt 0.144462 0.56649
vt 0.109204 0.552647
vt 0.111696 0.547864
vt 0.094586 0.54673
vt 0.098461 0.542403
vt 0.080764 0.542225
vt 0.085643 0.538717
vt 0.069474 0.53976
vt 0.075022 0.536468
vt 0.062737 0.538288
vt 0.068684 0.535126
vt 0.051686 0.536279
vt 0.058796 0.532967
vt 0.040554 0.533828
vt 0.048907 0.530311
vt 0.032442 0.529718
vt 0.041473 0.526201
vt 0.023457 0.520229
vt 0.031583 0.518374
vt 0.004028 0.524898
vt 0.004072 0.529843
vt 0.02225 0.533867
vt 0.060477 0.525438
vt 0.068645 0.528379
vt 0.079853 0.523156
vt 0.084679 0.525442
vt 0.089842 0.521193
vt 0.085967 0.520138
vt 0.076923 0.530746
vt 0.093041 0.523345
vt 0.087966 0.526054
vt 0.073609 0.519908
vt 0.083862 0.518036
vt 0.081837 0.516253
vt 0.068134 0.515817
vt 0.080819 0.514186
vt 0.078602 0.512464
vt 0.053982 0.521329
vt 0.042838 0.515803
vt 0.06013 0.51159
vt 0.075999 0.510847
vt 0.069151 0.509054
vt 0.050342 0.544878
vt 0.036827 0.543199
vt 0.056436 0.541638
vt 0.044133 0.539797
vt 0.063597 0.543246
vt 0.057912 0.546618
vt 0.075595 0.54594
vt 0.070596 0.549534
vt 0.090471 0.551325
vt 0.08649 0.55577
vt 0.106558 0.557725
vt 0.103998 0.562638
vt 0.116186 0.564032
vt 0.114263 0.569519
vt 0.124858 0.569711
vt 0.123508 0.575716
vt 0.135337 0.576642
vt 0.134233 0.584943
vt 0.145511 0.57277
vt 0.146526 0.578844
vt 0.031567 0.537638
vt 0.022874 0.541324
vt 0.014642 0.53862
vt 0.01014 0.537141
vn 0.3229983 0.109853 -0.9400023
vn 0.3185796 0.1041029 -0.9421622
vn 0.3048824 0.1000663 -0.9471185
vn 0.3077042 0.0938587 -0.9468414
vn 0.3153223 0.1118027 -0.9423758
vn 0.3239821 0.1139809 -0.939172
vn 0.2898695 0.122066 -0.94925
vn 0.3049744 0.1236794 -0.9442955
vn 0.3262384 0.1099756 -0.9388684
vn 0.3262373 0.1099744 -0.9388689
vn 0.3262362 0.1099746 -0.9388692
vn 0.3268298 0.1099268 -0.9386684
vn 0.293772 0.1466724 -0.9445555
vn 0.3234724 0.1292034 -0.9373751
vn 0.4007609 0.133663 -0.9063801
vn 0.4253252 0.1117345 -0.8981168
vn 0.290152 0.1567597 -0.9440541
vn 0.3120111 0.1311932 -0.9409769
vn 0.004269735 0.1729232 -0.984926
vn 0.05154922 0.1820296 -0.9819409
vn 0.325671 0.105177 -0.9396148
vn 0.4137 0.08692214 -0.9062543
vn 0.2198511 0.1026265 -0.9701202
vn 0.08195288 0.1292626 -0.9882181
vn 0.2619446 0.07675788 -0.9620256
vn 0.3143023 0.09620918 -0.9444352
vn 0.3751735 0.1056207 -0.9209175
vn 0.3115817 0.09199288 -0.9457559
vn 0.3638062 0.07484859 -0.9284626
vn 0.2850619 0.1036878 -0.9528844
vn 0.3074982 0.09739667 -0.946551
vn 0.4387811 0.1188526 -0.8906993
vn 0.3057367 0.1085584 -0.9459071
vn 0.3177305 0.108029 -0.942007
vn 0.3262368 0.1099751 -0.9388691
vn 0.3262374 0.1099757 -0.9388687
vn 0.326238 0.109976 -0.9388685
vn 0.3262375 0.1099751 -0.9388687
vn 0.326237 0.1099757 -0.9388689
vn 0.3262356 0.1099746 -0.9388695
vn 0.3352251 0.1131681 -0.9353166
vn 0.3409965 0.114527 -0.9330622
vn 0.3608678 0.1243926 -0.924284
vn 0.3697502 0.1267014 -0.9204518
vn 0.4066984 0.1361927 -0.9033538
vn 0.3884188 0.1312306 -0.9120907
vn 0.3610129 0.09235056 -0.9279768
vn 0.334772 0.09927388 -0.9370552
vn 0.301065 0.08331373 -0.9499573
vn 0.2868681 0.07160262 -0.9552904
vn 0.2716218 0.02280864 -0.9621338
vn 0.3675975 0.06552537 -0.9276737
vn 0.4540561 0.1344777 -0.8807661
vn 0.3673071 0.1252 -0.9216347
vn 0.386388 0.1303585 -0.9130778
vn 0.4019992 0.1378197 -0.9052085
vn 0.3857296 0.127794 -0.9137185
vn 0.420897 0.1451863 -0.8954143
vn 0.4205698 0.1600889 -0.8930244
vn 0.3459552 0.1150607 -0.9311692
vn 0.357836 0.1144398 -0.9267454
vn 0.3221696 0.1022373 -0.9411452
vn 0.3365588 0.1230413 -0.9335893
vn 0.3477991 0.1474461 -0.9259025
vn 0.2485606 0.08640346 -0.9647548
vn 0.2696979 0.08514044 -0.9591737
vn 0.2533487 0.07939516 -0.9641114
vn 0.2505979 0.07749628 -0.9649845
vn 0.2954808 0.08745359 -0.9513374
vn 0.2737829 0.0795769 -0.9584939
vn 0.2676152 0.07075848 -0.9609242
vn 0.255507 0.06265701 -0.9647747
vn 0.2163536 0.02500145 -0.9759949
vn 0.3262383 0.1099763 -0.9388684
vn 0.3431869 0.1185509 -0.9317555
vn 0.33007 0.1119529 -0.9372942
vn 0.3538438 0.1226183 -0.927232
vn 0.3262378 0.109976 -0.9388685
vn 0.3262363 0.109975 -0.9388692
vn 0.326237 0.1099751 -0.9388689
vn 0.3262359 0.109974 -0.9388695
vn 0.3262362 0.1099734 -0.9388695
vn 0.3262367 0.1099727 -0.9388694
vn 0.3014158 0.1110718 -0.9470013
vn 0.2943555 0.1115535 -0.9491631
vn 0.2762257 0.1132993 -0.9543913
vn 0.2774537 0.1137376 -0.9539829
vn 0.3288291 0.1203926 -0.9366841
vn 0.4011163 0.121891 -0.9078813
vn 0.4361711 0.1415473 -0.8886614
vn 0.3824638 0.1551158 -0.910857
vn 0.3215257 0.1441869 -0.9358586
vn 0.2238351 0.1435901 -0.9639915
vn 0.4266298 0.1424688 -0.8931347
vn 0.41569 0.1420557 -0.898344
vn 0.4946571 0.151705 -0.8557453
vn 0.4651411 0.1304093 -0.8755782
g HutFlag_mesh_0
f 3/3/3 2/2/2 1/1/1
f 4/4/4 2/2/2 3/3/3
f 3/3/3 1/1/1 5/5/5
f 5/5/5 1/1/1 6/6/6
f 5/5/5 6/6/6 7/7/7
f 7/7/7 6/6/6 8/8/8
f 2/2/2 9/9/9 1/1/1
f 1/1/1 9/9/9 10/10/10
f 1/1/1 10/10/10 6/6/6
f 6/6/6 10/10/10 11/11/11
f 6/6/6 11/11/11 8/8/8
f 8/8/8 11/11/11 12/12/12
f 7/7/7 8/8/8 13/13/13
f 13/13/13 8/8/8 14/14/14
f 8/8/8 12/12/12 14/14/14
f 13/13/13 14/14/14 15/15/15
f 15/15/15 14/14/14 16/16/16
f 15/15/15 16/16/16 17/17/17
f 17/17/17 16/16/16 18/18/18
f 19/19/19 17/17/17 18/18/18
f 20/20/20 17/17/17 19/19/19
f 14/14/14 21/21/21 16/16/16
f 14/14/14 12/12/12 21/21/21
f 16/16/16 21/21/21 22/22/22
f 16/16/16 22/22/22 18/18/18
f 18/18/18 22/22/22 23/23/23
f 23/23/23 19/19/19 18/18/18
f 24/24/24 19/19/19 23/23/23
f 25/25/25 24/24/24 23/23/23
f 26/26/26 24/24/24 25/25/25
f 27/27/27 26/26/26 25/25/25
f 25/25/25 28/28/28 27/27/27
f 29/29/29 28/28/28 25/25/25
f 23/23/23 29/29/29 25/25/25
f 22/22/22 29/29/29 23/23/23
f 29/29/29 30/30/30 28/28/28
f 31/31/31 30/30/30 29/29/29
f 22/22/22 31/31/31 29/29/29
f 21/21/21 31/31/31 22/22/22
f 32/32/32 26/26/26 27/27/27
f 31/31/31 33/33/33 30/30/30
f 34/34/34 33/33/33 31/31/31
f 21/21/21 34/34/34 31/31/31
f 34/34/34 35/35/35 33/33/33
f 36/36/36 35/35/35 34/34/34
f 36/36/36 37/37/37 35/35/35
f 38/38/38 37/37/37 36/36/36
f 38/38/38 39/39/39 37/37/37
f 40/40/40 39/39/39 38/38/38
f 40/40/40 41/41/41 39/39/39
f 42/42/42 41/41/41 40/40/40
f 42/42/42 43/43/43 41/41/41
f 44/44/44 43/43/43 42/42/42
f 44/44/44 45/45/45 43/43/43
f 46/46/46 45/45/45 44/44/44
f 46/46/46 47/47/47 45/45/45
f 48/48/48 47/47/47 46/46/46
f 48/48/48 49/49/49 47/47/47
f 50/50/50 49/49/49 48/48/48
f 49/49/49 51/51/51 47/47/47
f 47/47/47 51/51/51 52/52/52
f 47/47/47 52/52/52 53/53/53
f 47/47/47 53/53/53 45/45/45
f 10/10/10 40/40/40 38/38/38
f 54/54/54 48/48/48 46/46/46
f 54/54/54 46/46/46 55/55/55
f 55/55/55 46/46/46 44/44/44
f 56/56/56 54/54/54 55/55/55
f 56/56/56 55/55/55 57/57/57
f 58/58/58 56/56/56 57/57/57
f 59/59/59 56/56/56 58/58/58
f 57/57/57 55/55/55 60/60/60
f 58/58/58 57/57/57 61/61/61
f 61/61/61 57/57/57 62/62/62
f 57/57/57 60/60/60 62/62/62
f 61/61/61 62/62/62 4/4/4
f 4/4/4 62/62/62 2/2/2
f 62/62/62 60/60/60 2/2/2
f 2/2/2 60/60/60 9/9/9
f 59/59/59 63/63/63 56/56/56
f 63/63/63 54/54/54 56/56/56
f 64/64/64 63/63/63 59/59/59
f 65/65/65 63/63/63 64/64/64
f 65/65/65 66/66/66 63/63/63
f 67/67/67 66/66/66 65/65/65
f 68/68/68 66/66/66 67/67/67
f 66/66/66 69/69/69 63/63/63
f 66/66/66 70/70/70 69/69/69
f 71/71/71 70/70/70 66/66/66
f 72/72/72 71/71/71 66/66/66
f 72/72/72 66/66/66 68/68/68
f 73/73/73 71/71/71 72/72/72
f 63/63/63 69/69/69 54/54/54
f 69/69/69 48/48/48 54/54/54
f 69/69/69 50/50/50 48/48/48
f 70/70/70 50/50/50 69/69/69
f 9/9/9 40/40/40 10/10/10
f 9/9/9 42/42/42 40/40/40
f 60/60/60 42/42/42 9/9/9
f 60/60/60 44/44/44 42/42/42
f 55/55/55 44/44/44 60/60/60
f 10/10/10 38/38/38 11/11/11
f 11/11/11 38/38/38 36/36/36
f 11/11/11 36/36/36 12/12/12
f 12/12/12 36/36/36 34/34/34
f 12/12/12 34/34/34 21/21/21
f 76/76/76 75/75/75 74/74/74
f 77/77/77 75/75/75 76/76/76
f 76/76/76 74/74/74 78/78/78
f 78/78/78 74/74/74 79/79/79
f 78/78/78 79/79/79 80/80/80
f 80/80/80 79/79/79 81/81/81
f 80/80/80 81/81/81 82/82/82
f 82/82/82 81/81/81 83/83/83
f 82/82/82 83/83/83 84/84/84
f 84/84/84 83/83/83 85/85/85
f 84/84/84 85/85/85 86/86/86
f 86/86/86 85/85/85 87/87/87
f 86/86/86 87/87/87 88/88/88
f 88/88/88 87/87/87 89/89/89
f 88/88/88 89/89/89 90/90/90
f 90/90/90 89/89/89 91/91/91
f 91/91/91 92/92/92 90/90/90
f 93/93/93 92/92/92 91/91/91
f 92/92/92 32/32/32 90/90/90
f 90/90/90 32/32/32 27/27/27
f 27/27/27 88/88/88 90/90/90
f 28/28/28 88/88/88 27/27/27
f 28/28/28 86/86/86 88/88/88
f 30/30/30 86/86/86 28/28/28
f 30/30/30 84/84/84 86/86/86
f 33/33/33 84/84/84 30/30/30
f 33/33/33 82/82/82 84/84/84
f 35/35/35 82/82/82 33/33/33
f 35/35/35 80/80/80 82/82/82
f 37/37/37 80/80/80 35/35/35
f 37/37/37 78/78/78 80/80/80
f 39/39/39 78/78/78 37/37/37
f 39/39/39 76/76/76 78/78/78
f 41/41/41 76/76/76 39/39/39
f 41/41/41 77/77/77 76/76/76
f 43/43/43 77/77/77 41/41/41
f 43/43/43 94/94/94 77/77/77
f 94/94/94 95/95/95 77/77/77
f 77/77/77 95/95/95 75/75/75
f 94/94/94 96/96/96 95/95/95
f 53/53/53 96/96/96 94/94/94
f 53/53/53 97/97/97 96/96/96
f 45/45/45 94/94/94 43/43/43
f 45/45/45 53/53/53 94/94/94
f 53/53/53 52/52/52 97/97/97
