g lamp_post_mesh
v 444.7268 59.14734 -970.7252
v 447.1513 80.7975 -986.7219
v 461.5123 62.67268 -961.3079
v 464.448 84.13891 -978.8056
v 464.448 84.13891 -978.8056
v 447.1513 80.7975 -986.7219
v 481.5553 70.28081 -991.2279
v 466.1516 64.56835 -1001.738
v 464.448 84.13891 -978.8056
v 481.5553 70.28081 -991.2279
v 461.5123 62.67268 -961.3079
v 482.0719 52.33659 -975.248
v 483.1351 44.53403 -962.3852
v 489.6505 47.72454 -970.6485
v 488.8745 44.6775 -965.5549
v 488.6044 52.01391 -974.5219
v 461.2743 62.42492 -957.9594
v 461.2743 62.42492 -957.9594
v 461.5119 43.98869 -952.6845
v 461.2743 62.42492 -957.9594
v 482.0719 52.33659 -975.248
v 488.6044 52.01391 -974.5219
v 461.5123 62.67268 -961.3079
v 482.0719 52.33659 -975.248
v 461.2743 62.42492 -957.9594
v 440.4672 57.9651 -969.1683
v 461.5123 62.67268 -961.3079
v 461.2743 62.42492 -957.9594
v 444.7268 59.14734 -970.7252
v 461.2743 62.42492 -957.9594
v 437.5588 50.55772 -966.8315
v 440.4672 57.9651 -969.1683
v 461.2743 62.42492 -957.9594
v 461.5119 43.98869 -952.6845
v 437.5588 50.55772 -966.8315
v 437.5699 44.51108 -963.1254
v 482.2233 160.7588 -1044.19
v 481.9851 141.7761 -1024.194
v 478.7205 156.5831 -1039.947
v 478.259 139.8638 -1025.609
v 461.6053 144.2629 -1046.698
v 482.2233 160.7588 -1044.19
v 478.7205 156.5831 -1039.947
v 454.4128 143.9922 -1052.642
v 465.5462 129.9494 -1031.271
v 461.3249 127.9735 -1032.307
v 481.9851 141.7761 -1024.194
v 482.2233 160.7588 -1044.19
v 484.4142 138.6301 -1026.852
v 504.2505 130.1739 -1065.985
v 485.9584 154.6389 -1041.89
v 498.3524 135.7222 -1054.065
v 496.2271 121.1497 -1038.797
v 493.6613 123.8242 -1036.714
v 484.4142 138.6301 -1026.852
v 482.2233 160.7588 -1044.19
v 485.9584 154.6389 -1041.89
v 461.6053 144.2629 -1046.698
v 478.6946 129.824 -1058.841
v 465.5462 129.9494 -1031.271
v 478.4612 117.9171 -1041.36
v 478.6946 129.824 -1058.841
v 498.3524 135.7222 -1054.065
v 478.4612 117.9171 -1041.36
v 493.6613 123.8242 -1036.714
v 451.4428 144.0336 -1052.685
v 448.6106 146.9559 -1058.363
v 482.9713 164.0999 -1042.723
v 448.6106 146.9559 -1058.363
v 482.4813 165.5973 -1048.117
v 482.9713 164.0999 -1042.723
v 482.4813 165.5973 -1048.117
v 506.9922 131.6035 -1065.448
v 507.1205 134.8592 -1069.707
v 469.5857 119.0688 -1075.236
v 506.9922 131.6035 -1065.448
v 469.784 123.2826 -1078.388
v 507.1205 134.8592 -1069.707
v 451.4428 144.0336 -1052.685
v 469.5857 119.0688 -1075.236
v 448.6106 146.9559 -1058.363
v 448.6106 146.9559 -1058.363
v 469.784 123.2826 -1078.388
v 448.6106 146.9559 -1058.363
v 451.4349 147.0322 -1060.287
v 482.4813 165.5973 -1048.117
v 482.4813 165.5973 -1048.117
v 451.4349 147.0322 -1060.287
v 480.9719 160.2121 -1051.893
v 507.1205 134.8592 -1069.707
v 469.784 123.2826 -1078.388
v 471.5138 128.8447 -1074.486
v 507.1205 134.8592 -1069.707
v 480.9719 160.2121 -1051.893
v 501.573 136.8448 -1071.203
v 471.5138 128.8447 -1074.486
v 507.1205 134.8592 -1069.707
v 501.573 136.8448 -1071.203
v 475.4955 161.1963 -1086.87
v 448.6106 146.9559 -1058.363
v 469.784 123.2826 -1078.388
v 451.4349 147.0322 -1060.287
v 451.4349 147.0322 -1060.287
v 469.784 123.2826 -1078.388
v 471.5138 128.8447 -1074.486
v 474.9443 161.9651 -1086.245
v 475.8754 162.4544 -1085.984
v 451.4349 147.0322 -1060.287
v 480.9719 160.2121 -1051.893
v 475.8754 162.4544 -1085.984
v 476.5373 161.6985 -1086.524
v 480.9719 160.2121 -1051.893
v 501.573 136.8448 -1071.203
v 475.4955 161.1963 -1086.87
v 501.573 136.8448 -1071.203
v 476.5373 161.6985 -1086.524
v 451.4349 147.0322 -1060.287
v 471.5138 128.8447 -1074.486
v 474.9443 161.9651 -1086.245
v 474.9443 161.9651 -1086.245
v 471.5138 128.8447 -1074.486
v 475.4955 161.1963 -1086.87
v 475.8754 162.4544 -1085.984
v 474.9443 161.9651 -1086.245
v 476.5373 161.6985 -1086.524
v 474.9443 161.9651 -1086.245
v 475.4955 161.1963 -1086.87
v 464.0649 88.90816 -999.6349
v 472.3783 112.9845 -1017.938
v 469.4512 90.50988 -997.7472
v 465.8904 76.86032 -987.8584
v 458.9704 75.92156 -989.7646
v 469.4512 90.50988 -997.7472
v 472.3783 112.9845 -1017.938
v 476.2592 116.1455 -1015.803
v 469.4512 90.50988 -997.7472
v 476.2592 116.1455 -1015.803
v 472.8898 85.94142 -1002.139
v 480.1093 110.801 -1019.539
v 465.8904 76.86032 -987.8584
v 472.0822 72.66978 -992.6064
v 465.5863 84.07262 -1004.839
v 472.8898 85.94142 -1002.139
v 473.6964 106.9419 -1022.123
v 480.1093 110.801 -1019.539
v 472.0822 72.66978 -992.6064
v 461.4667 71.60989 -995.2816
v 464.0649 88.90816 -999.6349
v 465.5863 84.07262 -1004.839
v 472.3783 112.9845 -1017.938
v 461.4667 71.60989 -995.2816
v 458.9704 75.92156 -989.7646
v 472.3783 112.9845 -1017.938
v 473.6964 106.9419 -1022.123
v 472.3783 112.9845 -1017.938
v 463.5153 123.491 -1020.37
v 476.2592 116.1455 -1015.803
v 483.0696 136.6405 -1010.863
v 476.2592 116.1455 -1015.803
v 483.0696 136.6405 -1010.863
v 480.1093 110.801 -1019.539
v 493.6913 115.0062 -1025.078
v 473.6964 106.9419 -1022.123
v 480.1093 110.801 -1019.539
v 474.5171 101.5213 -1033.866
v 493.6913 115.0062 -1025.078
v 475.6199 101.439 -1042.979
v 498.0623 117.3188 -1032.266
v 500.8546 117.9781 -1034.438
v 476.5605 101.3688 -1050.753
v 502.886 119.8706 -1040.197
v 472.3783 112.9845 -1017.938
v 473.6964 106.9419 -1022.123
v 463.5153 123.491 -1020.37
v 463.5153 123.491 -1020.37
v 473.6964 106.9419 -1022.123
v 474.5171 101.5213 -1033.866
v 463.5153 123.491 -1020.37
v 461.9779 126.9933 -1025.338
v 475.6199 101.439 -1042.979
v 459.3077 127.8761 -1025.998
v 456.5489 130.7517 -1029.688
v 476.5605 101.3688 -1050.753
v 459.3077 127.8761 -1025.998
v 456.5489 130.7517 -1029.688
v 482.7409 142.945 -1015.671
v 482.3885 148.3137 -1019.621
v 461.9779 126.9933 -1025.338
v 463.5153 123.491 -1020.37
v 463.5153 123.491 -1020.37
v 483.0696 136.6405 -1010.863
v 482.3885 148.3137 -1019.621
v 502.886 119.8706 -1040.197
v 482.7409 142.945 -1015.671
v 500.8546 117.9781 -1034.438
v 498.0623 117.3188 -1032.266
v 483.0696 136.6405 -1010.863
v 493.6913 115.0062 -1025.078
v 482.7409 142.945 -1015.671
v 500.8546 117.9781 -1034.438
v 498.0623 117.3188 -1032.266
v 475.6199 101.439 -1042.979
v 498.0623 117.3188 -1032.266
v 500.8546 117.9781 -1034.438
v 461.9779 126.9933 -1025.338
v 475.6199 101.439 -1042.979
v 459.3077 127.8761 -1025.998
v 459.3077 127.8761 -1025.998
v 482.7409 142.945 -1015.671
v 461.9779 126.9933 -1025.338
v 502.886 119.8706 -1040.197
v 482.3885 148.3137 -1019.621
v 476.5605 101.3688 -1050.753
v 456.5489 130.7517 -1029.688
vt 0.828472 0.446993
vt 0.829798 0.407418
vt 0.858761 0.466007
vt 0.861635 0.423779
vt 0.861635 0.423779
vt 0.829798 0.407418
vt 0.900325 0.408081
vt 0.873286 0.388157
vt 0.861635 0.423779
vt 0.900325 0.408081
vt 0.858761 0.466007
vt 0.9032 0.44633
vt 0.905189 0.474187
vt 0.918234 0.458047
vt 0.916686 0.46888
vt 0.915802 0.448761
vt 0.857865 0.472511
vt 0.857865 0.472511
vt 0.862199 0.489907
vt 0.857865 0.472511
vt 0.9032 0.44633
vt 0.915802 0.448761
vt 0.858761 0.466007
vt 0.9032 0.44633
vt 0.857865 0.472511
vt 0.820291 0.449867
vt 0.858761 0.466007
vt 0.857865 0.472511
vt 0.828472 0.446993
vt 0.857865 0.472511
vt 0.816312 0.456942
vt 0.820291 0.449867
vt 0.857865 0.472511
vt 0.862199 0.489907
vt 0.816312 0.456942
vt 0.817417 0.466449
vt 0.887547 0.261976
vt 0.888759 0.311174
vt 0.880866 0.272048
vt 0.881973 0.308751
vt 0.850525 0.262222
vt 0.887547 0.261976
vt 0.880866 0.272048
vt 0.837137 0.249615
vt 0.859852 0.300482
vt 0.852163 0.298815
vt 0.888759 0.311174
vt 0.887547 0.261976
vt 0.894818 0.307782
vt 0.942412 0.237574
vt 0.896273 0.270216
vt 0.927623 0.257301
vt 0.924391 0.294409
vt 0.918391 0.296797
vt 0.894818 0.307782
vt 0.887547 0.261976
vt 0.896273 0.270216
vt 0.850525 0.262222
vt 0.890381 0.247862
vt 0.859852 0.300482
vt 0.890207 0.288281
vt 0.890381 0.247862
vt 0.927623 0.257301
vt 0.890207 0.288281
vt 0.918391 0.296797
vt 0.831163 0.249075
vt 0.825533 0.235889
vt 0.887997 0.263319
vt 0.825533 0.235889
vt 0.887456 0.25168
vt 0.887997 0.263319
vt 0.887456 0.25168
vt 0.947486 0.238299
vt 0.94766 0.228238
vt 0.877418 0.220088
vt 0.947486 0.238299
vt 0.877228 0.211741
vt 0.94766 0.228238
vt 0.831163 0.249075
vt 0.877418 0.220088
vt 0.825533 0.235889
vt 0.825533 0.235889
vt 0.877228 0.211741
vt 0.825533 0.235889
vt 0.831492 0.232443
vt 0.887456 0.25168
vt 0.887456 0.25168
vt 0.831492 0.232443
vt 0.886336 0.24668
vt 0.94766 0.228238
vt 0.877228 0.211741
vt 0.878684 0.216762
vt 0.94766 0.228238
vt 0.886336 0.24668
vt 0.93634 0.223447
vt 0.878684 0.216762
vt 0.94766 0.228238
vt 0.93634 0.223447
vt 0.880381 0.175521
vt 0.825533 0.235889
vt 0.877228 0.211741
vt 0.831492 0.232443
vt 0.831492 0.232443
vt 0.877228 0.211741
vt 0.878684 0.216762
vt 0.878973 0.176265
vt 0.880693 0.176657
vt 0.831492 0.232443
vt 0.886336 0.24668
vt 0.880693 0.176657
vt 0.882308 0.176089
vt 0.886336 0.24668
vt 0.93634 0.223447
vt 0.880381 0.175521
vt 0.93634 0.223447
vt 0.882308 0.176089
vt 0.831492 0.232443
vt 0.878684 0.216762
vt 0.878973 0.176265
vt 0.878973 0.176265
vt 0.878684 0.216762
vt 0.880381 0.175521
vt 0.880693 0.176657
vt 0.878973 0.176265
vt 0.882308 0.176089
vt 0.878973 0.176265
vt 0.880381 0.175521
vt 0.862782 0.381247
vt 0.875844 0.335793
vt 0.872678 0.384971
vt 0.867651 0.409558
vt 0.854651 0.405301
vt 0.872678 0.384971
vt 0.875844 0.335793
vt 0.882435 0.339066
vt 0.872678 0.384971
vt 0.882435 0.339066
vt 0.88122 0.378957
vt 0.891955 0.334788
vt 0.867651 0.409558
vt 0.881486 0.403065
vt 0.86777 0.373516
vt 0.88122 0.378957
vt 0.880598 0.330614
vt 0.891955 0.334788
vt 0.881486 0.403065
vt 0.861445 0.396867
vt 0.862782 0.381247
vt 0.86777 0.373516
vt 0.875844 0.335793
vt 0.861445 0.396867
vt 0.854651 0.405301
vt 0.875844 0.335793
vt 0.880598 0.330614
vt 0.875844 0.335793
vt 0.855893 0.324798
vt 0.882435 0.339066
vt 0.890182 0.340203
vt 0.882435 0.339066
vt 0.890182 0.340203
vt 0.891955 0.334788
vt 0.918719 0.323914
vt 0.880598 0.330614
vt 0.891955 0.334788
vt 0.885324 0.310369
vt 0.918719 0.323914
vt 0.888885 0.292809
vt 0.927941 0.309347
vt 0.933664 0.305169
vt 0.891921 0.277838
vt 0.938136 0.293243
vt 0.875844 0.335793
vt 0.880598 0.330614
vt 0.855893 0.324798
vt 0.855893 0.324798
vt 0.880598 0.330614
vt 0.885324 0.310369
vt 0.855893 0.324798
vt 0.852664 0.31312
vt 0.888885 0.292809
vt 0.8472 0.311009
vt 0.841482 0.301939
vt 0.891921 0.277838
vt 0.8472 0.311009
vt 0.841482 0.301939
vt 0.888687 0.327639
vt 0.887239 0.317164
vt 0.852664 0.31312
vt 0.855893 0.324798
vt 0.855893 0.324798
vt 0.890182 0.340203
vt 0.887239 0.317164
vt 0.938136 0.293243
vt 0.888687 0.327639
vt 0.933664 0.305169
vt 0.927941 0.309347
vt 0.890182 0.340203
vt 0.918719 0.323914
vt 0.888687 0.327639
vt 0.933664 0.305169
vt 0.927941 0.309347
vt 0.888885 0.292809
vt 0.927941 0.309347
vt 0.933664 0.305169
vt 0.852664 0.31312
vt 0.888885 0.292809
vt 0.8472 0.311009
vt 0.8472 0.311009
vt 0.888687 0.327639
vt 0.852664 0.31312
vt 0.938136 0.293243
vt 0.887239 0.317164
vt 0.891921 0.277838
vt 0.841482 0.301939
vn -0.3989657 0.8237906 0.4027351
vn -0.4594311 0.5796424 0.6730065
vn -0.3777705 0.8363715 0.3972054
vn -0.4248297 0.6061665 0.6723703
vn 0.1469132 0.7546129 -0.6395121
vn 0.1482302 0.7573834 -0.6359231
vn 0.1482302 0.7573834 -0.6359231
vn 0.1495438 0.7601369 -0.6323199
vn 0.7238708 0.3737344 0.5799429
vn 0.6857704 0.4482836 0.5733766
vn 0.6557435 0.6161498 0.4363023
vn 0.5982161 0.7225203 0.3465571
vn 0.4364792 0.5907459 0.6786054
vn 0.3612868 0.7380772 0.5698369
vn 0.2693487 0.8078268 0.5242777
vn 0.5133108 0.6077839 0.6058967
vn 0.5366722 0.612663 0.5801957
vn 0.130948 0.5863776 0.7993835
vn -0.142143 0.3584151 0.9226776
vn 0.1276311 0.9872375 -0.09524932
vn 0.3130276 0.9346209 -0.1688126
vn 0.09109672 0.9039249 -0.4178769
vn 0.3321905 0.8844817 0.3276304
vn 0.4731772 0.8759794 0.09361351
vn 0.3317342 0.8919753 0.307136
vn -0.3608944 0.8746213 0.3237169
vn -0.2065365 0.90949 0.3607913
vn -0.04496609 0.9873352 0.1521424
vn -0.3989657 0.8237906 0.4027351
vn -0.2404498 0.5797207 0.7785292
vn -0.4306811 0.3918198 0.8130136
vn -0.3608944 0.8746213 0.3237169
vn -0.2024311 0.3421407 0.9175845
vn -0.142143 0.3584151 0.9226776
vn -0.4306811 0.3918198 0.8130136
vn -0.3391741 0.4911439 0.8023332
vn -0.1947715 0.7528028 0.6287702
vn -0.2905763 0.6664354 0.6866071
vn -0.4211932 0.7222973 0.548528
vn -0.5294663 0.5606372 0.636672
vn -0.5836787 0.6353839 0.5055754
vn -0.4225596 0.7262182 0.5422643
vn -0.4211932 0.7222973 0.548528
vn -0.5114956 0.5787815 0.6351253
vn -0.4998135 0.5811387 0.6422338
vn -0.4486084 0.6216066 0.6421493
vn 0.8607493 0.3640137 0.3558155
vn 0.7715677 0.5106488 0.3793693
vn 0.7106345 0.4761749 0.5179344
vn 0.8870755 0.402888 0.2253408
vn 0.7771131 0.5307489 0.3382319
vn 0.8669628 0.3481521 0.356603
vn 0.8562274 0.3089321 0.4140479
vn 0.7894861 0.3853647 0.4777087
vn 0.7106345 0.4761749 0.5179344
vn 0.6120597 0.6141873 0.4981535
vn 0.7771131 0.5307489 0.3382319
vn 0.7370036 0.5789009 0.3488543
vn 0.7545321 0.5504427 0.3573432
vn 0.7545321 0.5504427 0.3573432
vn 0.7711632 0.5213299 0.3654071
vn -0.3589691 0.7736173 0.5221662
vn -0.3991841 0.7845358 0.4745055
vn -0.3991841 0.7845358 0.4745055
vn -0.4377994 0.79231 0.4249431
vn -0.5593754 0.5897093 0.5825307
vn -0.5526705 0.7108853 0.4349683
vn -0.5526705 0.7108853 0.4349683
vn -0.5280532 0.8352278 0.1534742
vn -0.4583426 0.8838976 -0.09299016
vn 0.8273095 0.5561308 0.07922962
vn 0.8409303 0.4958195 0.216793
vn 0.8409303 0.4958195 0.216793
vn 0.8354227 0.4242299 0.349425
vn 0.3808795 -0.5652812 -0.7317021
vn 0.3740654 -0.660855 -0.6506502
vn 0.3740654 -0.660855 -0.6506502
vn 0.2815128 -0.5256265 -0.8027872
vn -0.7777548 -0.6250668 0.06624855
vn -0.8388007 -0.4986028 -0.2186514
vn -0.8388007 -0.4986028 -0.2186514
vn -0.8305611 -0.2936205 -0.4732392
vn -0.7263579 -0.07139304 -0.6835988
vn -0.5613195 0.7290356 -0.3916984
vn -0.3638148 0.770263 -0.5237687
vn -0.2553213 0.8119583 -0.5249141
vn -0.1217753 0.6861625 -0.7171833
vn -0.2551442 0.5842552 -0.7704201
vn 0.1315175 0.6643183 -0.7357883
vn 0.1658101 0.4687861 -0.8676097
vn -0.2066392 0.4712458 -0.8574542
vn 0.09456009 0.1514896 -0.9839255
vn 0.1452097 0.6606724 -0.7364959
vn 0.416905 0.7499949 -0.5135152
vn 0.5868492 0.7563118 -0.2891375
vn -0.07968067 0.08339534 -0.9933258
vn 0.1696606 0.04822119 -0.9843221
vn 0.2524946 -0.2652949 -0.9305187
vn 0.2936209 -0.2746444 -0.9156186
vn -0.6717888 0.2771422 -0.686944
vn -0.4129499 0.3000445 -0.8599103
vn -0.3677582 0.4519264 -0.8127217
vn -0.3677582 0.4519264 -0.8127217
vn -0.2066392 0.4712458 -0.8574542
vn -0.07968067 0.08339534 -0.9933258
vn -0.2970346 0.8600184 -0.4148961
vn -0.4566523 0.8844008 0.09645709
vn -0.4278981 0.8996398 -0.08689894
vn -0.4334306 0.8926826 0.123514
vn 0.7277242 0.6828889 -0.06387645
vn 0.7249961 0.6858287 -0.06340095
vn 0.6404937 0.7375484 -0.2139863
vn 0.5868492 0.7563118 -0.2891375
vn 0.2054743 0.02653341 -0.9783028
vn 0.2524946 -0.2652949 -0.9305187
vn 0.1076916 0.3627776 -0.9256322
vn -0.4678786 0.2148974 -0.8572682
vn -0.2810093 -0.0813012 -0.9562552
vn -0.5849859 0.09345575 -0.8056411
vn -0.7470396 -0.1523682 -0.6470824
vn -0.7470396 -0.1523682 -0.6470824
vn -0.8123566 -0.118582 -0.5709772
vn -0.05432253 0.5490618 -0.8340145
vn -0.2882161 0.3699813 -0.8832018
vn 0.1076916 0.3627776 -0.9256322
vn -0.2166942 0.7766516 -0.5914863
vn 0.1951517 0.2475453 -0.949019
vn -0.3732513 0.6306414 0.6804225
vn -0.550534 0.3783635 0.744146
vn -0.517378 0.5968076 0.613303
vn -0.3510483 0.6267816 0.6956363
vn -0.2826937 0.6482508 0.7070044
vn -0.517378 0.5968076 0.613303
vn -0.7695711 0.3475213 0.5357137
vn -0.5351354 0.1114726 0.8373792
vn 0.8462251 0.1437547 0.5130669
vn 0.7179357 -0.007827735 0.6960654
vn 0.806243 0.2116504 0.5524276
vn 0.570523 -0.1735981 0.8027248
vn 0.7871741 0.2672828 0.5558029
vn 0.711047 0.3811329 0.5908892
vn 0.3557084 -0.6115332 -0.7067522
vn 0.4673918 -0.5902762 -0.6581176
vn 0.4945293 -0.6090598 -0.6200701
vn 0.5787901 -0.5737156 -0.5795278
vn 0.3299968 -0.5967176 -0.7314576
vn 0.2472616 -0.6397983 -0.7276811
vn -0.9291403 0.05127694 -0.3661544
vn -0.9367686 0.05934337 -0.3448811
vn -0.9663359 0.2437287 -0.08240917
vn -0.9238228 0.04302246 -0.3803953
vn -0.9025151 0.02739212 -0.4297861
vn -0.9339461 0.05975049 -0.352384
vn -0.9602797 -0.2609213 -0.09890861
vn -0.6529528 0.1593216 0.7404521
vn -0.6960933 -0.05364145 0.7159446
vn -0.3276949 -0.007546198 0.9447535
vn -0.05585897 -0.0921289 0.9941791
vn 0.3102667 -0.06049891 0.9487225
vn 0.5245629 -0.09354454 0.846217
vn 0.5337188 -0.4879815 0.6906651
vn 0.6423102 -0.6324307 0.432977
vn 0.341316 -0.8441117 0.4134957
vn 0.4178713 -0.6220311 0.6621637
vn 0.4411337 -0.8483236 0.2928279
vn 0.5302693 -0.7642931 0.3669749
vn 0.5228181 -0.8419134 0.1335782
vn 0.6062173 -0.6686405 0.4306047
vn 0.5281131 -0.8418213 0.1115051
vn 0.5609806 -0.827796 0.007390879
vn 0.5892635 -0.8059286 -0.05698816
vn -0.590579 -0.3274636 0.7375527
vn -0.7840513 -0.5184869 0.3412254
vn -0.7547038 -0.239465 0.6108016
vn -0.7339702 -0.3811071 0.5621789
vn -0.9247879 -0.3628812 0.1143873
vn -0.8865438 -0.4622998 0.01786236
vn -0.8379579 -0.4989046 0.2211801
vn -0.8090415 -0.5550658 0.193272
vn -0.7951931 -0.5847449 0.1604413
vn -0.6243593 -0.6568189 0.4228056
vn -0.8334501 -0.5521621 0.02186416
vn -0.8539844 -0.5108483 -0.09871498
vn -0.457376 0.1061525 0.882915
vn -0.5727657 0.4234634 0.7018677
vn -0.5707504 0.3424779 0.7462928
vn -0.5758311 0.4596316 0.6761341
vn -0.5250932 0.1792729 0.8319486
vn -0.5495861 0.1998156 0.8111897
vn -0.6181229 0.05611639 0.7840759
vn -0.5304498 0.1917828 0.8257375
vn 0.8580452 0.3396958 0.3851819
vn 0.8577161 0.3281081 0.3958133
vn 0.8405657 0.2189716 0.4954802
vn 0.7799674 0.1017022 0.6175011
vn 0.8169793 0.08622564 0.5701842
vn 0.7012684 -0.08038346 0.7083509
vn 0.6783038 -0.1408277 0.7211599
vn 0.7095726 0.1582693 0.6866276
vn 0.7647626 -0.2560904 0.5912325
vn 0.8044064 -0.3404495 0.4868516
vn 0.3772513 -0.8879036 0.2632656
vn 0.6062173 -0.6686405 0.4306047
vn 0.6112959 -0.7295278 0.3067677
vn -0.743401 -0.5055729 0.437894
vn -0.622721 -0.7488911 0.226673
vn -0.5479586 -0.5309103 0.646433
vn -0.4646924 -0.1701491 0.8689708
vn -0.41482 0.299462 0.8592129
vn -0.5192794 -0.1298787 0.8446777
vn -0.05911172 0.5567974 -0.8285423
vn -0.05721165 0.5566955 -0.8287442
vn -0.05721165 0.5566955 -0.8287442
vn -0.05531136 0.5565915 -0.8289431
g lamp_post_mesh_0
f 3/3/3 2/2/2 1/1/1
f 4/4/4 2/2/2 3/3/3
f 7/7/7 6/6/6 5/5/5
f 8/8/8 6/6/6 7/7/7
f 11/11/11 10/10/10 9/9/9
f 12/12/12 10/10/10 11/11/11
f 15/15/15 14/14/14 13/13/13
f 14/14/14 16/16/16 13/13/13
f 13/13/13 16/16/16 17/17/17
f 19/19/19 13/13/13 18/18/18
f 22/22/22 21/21/21 20/20/20
f 25/25/25 24/24/24 23/23/23
f 28/28/28 27/27/27 26/26/26
f 26/26/26 27/27/27 29/29/29
f 32/32/32 31/31/31 30/30/30
f 35/35/35 34/34/34 33/33/33
f 36/36/36 34/34/34 35/35/35
f 39/39/39 38/38/38 37/37/37
f 40/40/40 38/38/38 39/39/39
f 43/43/43 42/42/42 41/41/41
f 41/41/41 42/42/42 44/44/44
f 41/41/41 44/44/44 45/45/45
f 45/45/45 44/44/44 46/46/46
f 49/49/49 48/48/48 47/47/47
f 51/51/51 50/50/50 48/48/48
f 52/52/52 50/50/50 51/51/51
f 52/52/52 53/53/53 50/50/50
f 54/54/54 53/53/53 52/52/52
f 57/57/57 56/56/56 55/55/55
f 60/60/60 59/59/59 58/58/58
f 61/61/61 59/59/59 60/60/60
f 64/64/64 63/63/63 62/62/62
f 65/65/65 63/63/63 64/64/64
f 68/68/68 67/67/67 66/66/66
f 70/70/70 69/69/69 68/68/68
f 73/73/73 72/72/72 71/71/71
f 74/74/74 72/72/72 73/73/73
f 77/77/77 76/76/76 75/75/75
f 78/78/78 76/76/76 77/77/77
f 81/81/81 80/80/80 79/79/79
f 83/83/83 80/80/80 82/82/82
f 86/86/86 85/85/85 84/84/84
f 89/89/89 88/88/88 87/87/87
f 90/90/90 89/89/89 87/87/87
f 92/92/92 90/90/90 91/91/91
f 95/95/95 94/94/94 93/93/93
f 98/98/98 97/97/97 96/96/96
f 99/99/99 98/98/98 96/96/96
f 102/102/102 101/101/101 100/100/100
f 105/105/105 104/104/104 103/103/103
f 108/108/108 107/107/107 106/106/106
f 109/109/109 107/107/107 108/108/108
f 112/112/112 111/111/111 110/110/110
f 113/113/113 111/111/111 112/112/112
f 116/116/116 115/115/115 114/114/114
f 119/119/119 118/118/118 117/117/117
f 122/122/122 121/121/121 120/120/120
f 125/125/125 124/124/124 123/123/123
f 127/127/127 126/126/126 125/125/125
f 130/130/130 129/129/129 128/128/128
f 130/130/130 128/128/128 131/131/131
f 131/131/131 128/128/128 132/132/132
f 135/135/135 134/134/134 133/133/133
f 138/138/138 137/137/137 136/136/136
f 139/139/139 137/137/137 138/138/138
f 140/140/140 138/138/138 136/136/136
f 141/141/141 138/138/138 140/140/140
f 144/144/144 143/143/143 142/142/142
f 145/145/145 143/143/143 144/144/144
f 143/143/143 146/146/146 142/142/142
f 142/142/142 146/146/146 147/147/147
f 150/150/150 149/149/149 148/148/148
f 149/149/149 151/151/151 148/148/148
f 148/148/148 151/151/151 152/152/152
f 154/154/154 149/149/149 153/153/153
f 157/157/157 156/156/156 155/155/155
f 158/158/158 156/156/156 157/157/157
f 161/161/161 160/160/160 159/159/159
f 162/162/162 160/160/160 161/161/161
f 165/165/165 164/164/164 163/163/163
f 166/166/166 164/164/164 165/165/165
f 167/167/167 166/166/166 165/165/165
f 168/168/168 166/166/166 167/167/167
f 170/170/170 169/169/169 167/167/167
f 171/171/171 169/169/169 170/170/170
f 174/174/174 173/173/173 172/172/172
f 177/177/177 176/176/176 175/175/175
f 179/179/179 177/177/177 178/178/178
f 180/180/180 177/177/177 179/179/179
f 182/182/182 180/180/180 181/181/181
f 183/183/183 180/180/180 182/182/182
f 186/186/186 185/185/185 184/184/184
f 187/187/187 185/185/185 186/186/186
f 189/189/189 186/186/186 188/188/188
f 191/191/191 186/186/186 190/190/190
f 194/194/194 193/193/193 192/192/192
f 195/195/195 193/193/193 194/194/194
f 197/197/197 196/196/196 194/194/194
f 198/198/198 196/196/196 197/197/197
f 201/201/201 200/200/200 199/199/199
f 204/204/204 203/203/203 202/202/202
f 207/207/207 206/206/206 205/205/205
f 210/210/210 209/209/209 208/208/208
f 213/213/213 212/212/212 211/211/211
f 214/214/214 212/212/212 213/213/213
