g MoP_Arch_Gong_mesh
v 301.6632 164.8288 -194.273
v 304.4097 177.1051 -191.0405
v 309.9751 166.642 -208.2213
v 312.7217 178.9183 -204.9888
v 305.1667 155.3798 -212.5507
v 296.8547 153.5667 -198.6024
v 298.4811 145.5647 -217.8106
v 290.1692 143.7515 -203.8623
v 304.9889 189.9238 -189.0291
v 313.3009 191.7369 -202.9773
v 304.8107 156.4382 -214.4503
v 298.2824 146.8538 -219.5864
v 290.1754 137.5737 -223.7989
v 281.8634 135.7605 -209.8505
v 280.5686 131.7139 -230.2853
v 272.2567 129.9008 -216.337
v 270.0301 128.2106 -237.0208
v 261.7182 126.3975 -223.0725
v 258.9648 127.1984 -243.7463
v 250.6528 125.3852 -229.798
v 247.7978 128.7161 -250.2036
v 239.4858 126.903 -236.2553
v 236.9584 132.7055 -256.1443
v 228.6464 130.8923 -242.1961
v 226.8631 139.0132 -261.3404
v 218.5511 137.2 -247.3921
v 217.8999 147.3968 -265.5919
v 209.5879 145.5837 -251.6436
v 210.4132 157.5342 -268.7355
v 202.1012 155.721 -254.7873
v 204.6906 169.0358 -270.6505
v 196.3787 167.2226 -256.7023
v 200.9523 181.4595 -271.2633
v 192.6403 179.6464 -257.3151
v 199.3417 194.328 -270.5503
v 191.0298 192.5149 -256.6021
v 248.7909 130.4015 -251.2177
v 238.2064 134.297 -257.0188
v 228.3485 140.4564 -262.0926
v 219.5961 148.6429 -266.2441
v 212.2854 158.5419 -269.3139
v 259.6953 128.9194 -244.9123
v 270.5004 129.9078 -238.3449
v 280.7911 133.3288 -231.7678
v 290.172 139.0507 -225.4339
v 239.4858 126.903 -236.2553
v 228.6464 130.8923 -242.1961
v 248.0093 191.2193 -222.8156
v 218.5511 137.2 -247.3921
v 209.5879 145.5837 -251.6436
v 202.1012 155.721 -254.7873
v 196.3787 167.2226 -256.7023
v 192.6403 179.6464 -257.3151
v 191.0298 192.5149 -256.6021
v 250.6528 125.3852 -229.798
v 261.7182 126.3975 -223.0725
v 272.2567 129.9008 -216.337
v 281.8634 135.7605 -209.8505
v 290.1692 143.7515 -203.8623
v 296.8547 153.5667 -198.6024
v 301.6632 164.8288 -194.273
v 304.4097 177.1051 -191.0405
v 191.6089 205.3336 -254.5907
v 194.3555 217.6099 -251.3581
v 199.1639 228.872 -247.0287
v 205.8495 238.6872 -241.7689
v 214.1552 246.6782 -235.7806
v 223.7619 252.5379 -229.2941
v 234.3005 256.0412 -222.5587
v 245.3659 257.0535 -215.8331
v 256.5328 255.5357 -209.3758
v 267.3722 251.5464 -203.4351
v 277.4676 245.2387 -198.2391
v 286.4308 236.855 -193.9875
v 293.9175 226.7176 -190.8438
v 299.64 215.216 -188.9288
v 303.3783 202.7923 -188.3161
v 304.9889 189.9238 -189.0291
v 223.7619 252.5379 -229.2941
v 214.1552 246.6782 -235.7806
v 232.0739 254.3511 -243.2424
v 222.4671 248.4913 -249.7289
v 205.8495 238.6872 -241.7689
v 214.1614 240.5003 -255.7171
v 242.6125 257.8544 -236.5069
v 234.3005 256.0412 -222.5587
v 253.6778 258.8666 -229.7814
v 245.3659 257.0535 -215.8331
v 264.8448 257.3489 -223.3241
v 256.5328 255.5357 -209.3758
v 243.7275 256.503 -237.8431
v 233.4368 253.082 -244.4202
v 257.114 193.2054 -238.094
v 224.0559 247.3601 -250.7542
v 215.9455 239.557 -256.6016
v 209.4172 229.9726 -261.7378
v 204.7218 218.9753 -265.9654
v 202.0398 206.9877 -269.1219
v 201.4743 194.4704 -271.086
v 203.047 181.9046 -271.7822
v 206.6975 169.773 -271.1839
v 212.2854 158.5419 -269.3139
v 219.5961 148.6429 -266.2441
v 228.3485 140.4564 -262.0926
v 238.2064 134.297 -257.0188
v 248.7909 130.4015 -251.2177
v 259.6953 128.9194 -244.9123
v 270.5004 129.9078 -238.3449
v 280.7911 133.3288 -231.7678
v 290.172 139.0507 -225.4339
v 298.2824 146.8538 -219.5864
v 304.8107 156.4382 -214.4503
v 309.5061 167.4355 -210.2227
v 312.188 179.4231 -207.0662
v 312.7536 191.9403 -205.102
v 311.181 204.5062 -204.4058
v 307.5305 216.6378 -205.0041
v 301.9426 227.8689 -206.8741
v 294.6319 237.7679 -209.9439
v 285.8794 245.9544 -214.0955
v 276.0215 252.1138 -219.1693
v 265.437 256.0094 -224.9703
v 254.5326 257.4914 -231.2757
v 312.7217 178.9183 -204.9888
v 313.3009 191.7369 -202.9773
v 309.9751 166.642 -208.2213
v 305.1667 155.3798 -212.5507
v 275.6842 253.3595 -217.3833
v 267.3722 251.5464 -203.4351
v 285.7795 247.0518 -212.1873
v 277.4676 245.2387 -198.2391
v 294.7428 238.6682 -207.9359
v 286.4308 236.855 -193.9875
v 302.2295 228.5308 -204.7921
v 293.9175 226.7176 -190.8438
v 307.952 217.0292 -202.8771
v 299.64 215.216 -188.9288
v 311.6903 204.6054 -202.2643
v 303.3783 202.7923 -188.3161
v 304.9889 189.9238 -189.0291
v 191.6089 205.3336 -254.5907
v 191.0298 192.5149 -256.6021
v 199.9208 207.1467 -268.5389
v 199.3417 194.328 -270.5503
v 202.6674 219.423 -265.3064
v 194.3555 217.6099 -251.3581
v 207.4759 230.6852 -260.977
v 199.1639 228.872 -247.0287
v 200.9523 181.4595 -271.2633
v 204.6906 169.0358 -270.6505
v 210.4132 157.5342 -268.7355
vt 0.577968 0.282037
vt 0.578419 0.295874
vt 0.591022 0.256646
vt 0.591542 0.270378
vt 0.585922 0.24184
vt 0.572938 0.26714
vt 0.57649 0.226511
vt 0.563575 0.25174
vt 0.574204 0.308118
vt 0.587391 0.282502
vt 0.584474 0.239022
vt 0.575263 0.224054
vt 0.563116 0.211217
vt 0.550265 0.236397
vt 0.54631 0.196501
vt 0.533517 0.221655
vt 0.526689 0.18288
vt 0.513945 0.208033
vt 0.504952 0.17083
vt 0.492248 0.196006
vt 0.481864 0.160777
vt 0.469189 0.185999
vt 0.458239 0.153081
vt 0.44558 0.178371
vt 0.434911 0.148032
vt 0.422256 0.17341
vt 0.412724 0.145836
vt 0.400059 0.171319
vt 0.392496 0.146605
vt 0.37981 0.172206
vt 0.375001 0.150355
vt 0.362282 0.176082
vt 0.360939 0.156989
vt 0.348176 0.182847
vt 0.350902 0.166304
vt 0.338085 0.192292
vt 0.482793 0.159826
vt 0.459707 0.152303
vt 0.436917 0.147367
vt 0.415246 0.145219
vt 0.395496 0.145968
vt 0.505355 0.169652
vt 0.526599 0.181428
vt 0.545775 0.194738
vt 0.562197 0.209116
vt 0.469189 0.185999
vt 0.44558 0.178371
vt 0.456495 0.250377
vt 0.422256 0.17341
vt 0.400059 0.171319
vt 0.37981 0.172206
vt 0.362282 0.176082
vt 0.348176 0.182847
vt 0.338085 0.192292
vt 0.492248 0.196006
vt 0.513945 0.208033
vt 0.533517 0.221655
vt 0.550265 0.236397
vt 0.563575 0.25174
vt 0.572938 0.26714
vt 0.577968 0.282037
vt 0.578419 0.295874
vt 0.332468 0.204095
vt 0.331623 0.217831
vt 0.335659 0.232981
vt 0.344481 0.24895
vt 0.357787 0.265092
vt 0.375066 0.280741
vt 0.395625 0.29524
vt 0.418615 0.30798
vt 0.443076 0.318428
vt 0.467981 0.326156
vt 0.492299 0.330863
vt 0.515036 0.332384
vt 0.535289 0.330698
vt 0.552285 0.325915
vt 0.565405 0.318274
vt 0.574204 0.308118
vt 0.375066 0.280741
vt 0.357787 0.265092
vt 0.388283 0.25426
vt 0.370941 0.238639
vt 0.344481 0.24895
vt 0.357568 0.222551
vt 0.408897 0.268758
vt 0.395625 0.29524
vt 0.431932 0.281523
vt 0.418615 0.30798
vt 0.456425 0.292022
vt 0.443076 0.318428
vt 0.411632 0.265159
vt 0.391509 0.251013
vt 0.470741 0.22211
vt 0.374575 0.235774
vt 0.361509 0.220078
vt 0.352812 0.204574
vt 0.348784 0.189887
vt 0.349522 0.176593
vt 0.354924 0.165195
vt 0.364705 0.156103
vt 0.378422 0.149627
vt 0.395496 0.145968
vt 0.415246 0.145219
vt 0.436917 0.147367
vt 0.459707 0.152303
vt 0.482793 0.159826
vt 0.505355 0.169652
vt 0.526599 0.181428
vt 0.545775 0.194738
vt 0.562197 0.209116
vt 0.575263 0.224054
vt 0.584474 0.239022
vt 0.58945 0.253475
vt 0.589949 0.266872
vt 0.585887 0.278696
vt 0.577342 0.28847
vt 0.564573 0.295781
vt 0.548011 0.300302
vt 0.528261 0.301808
vt 0.506077 0.300196
vt 0.48234 0.295495
vt 0.458016 0.28787
vt 0.434113 0.277618
vt 0.591542 0.270378
vt 0.587391 0.282502
vt 0.591022 0.256646
vt 0.585922 0.24184
vt 0.481349 0.299825
vt 0.467981 0.326156
vt 0.50567 0.304627
vt 0.492299 0.330863
vt 0.528395 0.30626
vt 0.515036 0.332384
vt 0.548623 0.304696
vt 0.535289 0.330698
vt 0.565581 0.300042
vt 0.552285 0.325915
vt 0.578651 0.292532
vt 0.565405 0.318274
vt 0.574204 0.308118
vt 0.332468 0.204095
vt 0.338085 0.192292
vt 0.345347 0.177983
vt 0.350902 0.166304
vt 0.344569 0.191606
vt 0.331623 0.217831
vt 0.348675 0.206659
vt 0.335659 0.232981
vt 0.360939 0.156989
vt 0.375001 0.150355
vt 0.392496 0.146605
vn 0.7997701 -0.4279723 0.4209602
vn 0.8465692 -0.2447637 0.4726642
vn 0.9513482 -0.2976457 0.07964624
vn 0.9846613 -0.1247583 0.1219734
vn 0.888962 -0.4574669 0.02169596
vn 0.7222358 -0.5947358 0.353079
vn 0.7999001 -0.5980754 -0.04965362
vn 0.6169456 -0.7386441 0.2716302
vn 0.860835 -0.05215036 0.506205
vn 0.9876229 0.05456412 0.1470507
vn 0.7827727 -0.1733601 -0.5976731
vn 0.73461 -0.2391845 -0.6349323
vn 0.687588 -0.714064 -0.1316638
vn 0.4879481 -0.8541662 0.1797412
vn 0.5563355 -0.8009834 -0.2211702
vn 0.3401979 -0.9368635 0.0809451
vn 0.4111941 -0.8554848 -0.314746
vn 0.1793752 -0.9835575 -0.02096109
vn 0.257737 -0.8754773 -0.4087925
vn 0.01165727 -0.992454 -0.1220627
vn 0.1018618 -0.8601931 -0.4996918
vn -0.156507 -0.9632109 -0.2184723
vn -0.05043988 -0.8102201 -0.5839514
vn -0.3186562 -0.8969527 -0.3064867
vn -0.1933139 -0.7274737 -0.6583402
vn -0.4685612 -0.7962241 -0.382724
vn -0.3212751 -0.6151398 -0.7199898
vn -0.6004589 -0.6648979 -0.4442521
vn -0.4293992 -0.4775329 -0.7665368
vn -0.7092808 -0.5080203 -0.4887086
vn -0.5135361 -0.3199421 -0.7961895
vn -0.7908462 -0.3316193 -0.5143842
vn -0.5704483 -0.1484221 -0.8078116
vn -0.84202 -0.1424739 -0.5202916
vn -0.5979546 0.03043434 -0.800952
vn -0.8608351 0.05214634 -0.5062051
vn 0.3808136 -0.3419155 -0.8591127
vn 0.3066418 -0.311607 -0.8993731
vn 0.2380724 -0.2655281 -0.9342464
vn 0.1777371 -0.2054572 -0.9623912
vn 0.1279609 -0.1336948 -0.9827267
vn 0.457737 -0.3552895 -0.8150131
vn 0.5344551 -0.3512181 -0.7687676
vn 0.6080205 -0.3298622 -0.722151
vn 0.675603 -0.292028 -0.6769639
vn -0.5087503 -0.1109764 0.8537315
vn -0.5087504 -0.1109764 0.8537313
vn -0.5087501 -0.1109765 0.8537315
vn -0.5087501 -0.1109766 0.8537315
vn -0.5087501 -0.1109765 0.8537315
vn -0.5087501 -0.1109767 0.8537315
vn -0.5087501 -0.1109764 0.8537316
vn -0.5087504 -0.1109758 0.8537315
vn -0.5087503 -0.110977 0.8537313
vn -0.50875 -0.1109765 0.8537316
vn -0.5087501 -0.1109765 0.8537316
vn -0.5087506 -0.1109767 0.8537313
vn -0.50875 -0.1109761 0.8537316
vn -0.5087498 -0.1109762 0.8537318
vn -0.5087502 -0.1109766 0.8537315
vn -0.5087501 -0.1109764 0.8537316
vn -0.50875 -0.1109762 0.8537316
vn -0.5087502 -0.110977 0.8537315
vn -0.5087503 -0.1109769 0.8537313
vn -0.5087499 -0.1109765 0.8537317
vn -0.5087499 -0.1109761 0.8537318
vn -0.5087509 -0.1109771 0.853731
vn -0.5087499 -0.1109767 0.8537316
vn -0.5087491 -0.1109763 0.8537321
vn -0.5087509 -0.1109763 0.8537311
vn -0.5087503 -0.1109767 0.8537313
vn -0.5087491 -0.1109769 0.8537321
vn -0.5087501 -0.1109763 0.8537316
vn -0.5087505 -0.110976 0.8537313
vn -0.50875 -0.1109768 0.8537316
vn -0.5087499 -0.1109766 0.8537316
vn -0.5087501 -0.1109765 0.8537315
vn -0.50875 -0.1109767 0.8537316
vn -0.3401974 0.9368639 -0.08094367
vn -0.4879487 0.854166 -0.1797399
vn -0.1666664 0.885983 -0.4327314
vn -0.2979186 0.7990665 -0.5222424
vn -0.6169462 0.7386439 -0.2716297
vn -0.4102344 0.6830766 -0.6042467
vn -0.02152655 0.9404857 -0.339151
vn -0.1793754 0.9835573 0.02096062
vn 0.1319299 0.9604773 -0.2451079
vn -0.01165716 0.9924539 0.1220628
vn 0.2878053 0.9451925 -0.1542052
vn 0.1565074 0.9632109 0.2184723
vn 0.3703537 0.5485911 -0.7495906
vn 0.296792 0.5272296 -0.7962057
vn 0.5087502 0.1109765 -0.8537315
vn 0.2292087 0.4893993 -0.8413987
vn 0.1701971 0.4365606 -0.8834295
vn 0.122035 0.3707336 -0.9206867
vn 0.08657 0.2944512 -0.9517374
vn 0.06516183 0.2106462 -0.9753881
vn 0.05863588 0.1225379 -0.9907302
vn 0.06724606 0.03351475 -0.9971733
vn 0.09065125 -0.0530056 -0.9944711
vn 0.1279609 -0.1336948 -0.9827267
vn 0.1777371 -0.2054572 -0.9623912
vn 0.2380724 -0.2655281 -0.9342464
vn 0.3066418 -0.311607 -0.8993731
vn 0.3808136 -0.3419155 -0.8591127
vn 0.457737 -0.3552895 -0.8150131
vn 0.5344551 -0.3512181 -0.7687676
vn 0.6080205 -0.3298622 -0.722151
vn 0.675603 -0.292028 -0.6769639
vn 0.73461 -0.2391845 -0.6349323
vn 0.7827727 -0.1733601 -0.5976731
vn 0.8182377 -0.09707649 -0.5666244
vn 0.8396448 -0.01327473 -0.5429738
vn 0.8461697 0.07483017 -0.5276338
vn 0.8375677 0.1638573 -0.5211824
vn 0.8141599 0.2503766 -0.5238847
vn 0.7768483 0.3310666 -0.535632
vn 0.727068 0.4028201 -0.5559748
vn 0.6667354 0.4628994 -0.5841131
vn 0.5981668 0.5089794 -0.6189801
vn 0.5239955 0.5392856 -0.6592417
vn 0.4470734 0.5526578 -0.7033454
vn 0.9846613 -0.1247583 0.1219734
vn 0.9876229 0.05456412 0.1470507
vn 0.9513482 -0.2976457 0.07964624
vn 0.888962 -0.4574669 0.02169596
vn 0.4401043 0.8952187 -0.06994084
vn 0.3186572 0.8969529 0.306485
vn 0.5829782 0.8124757 0.00444454
vn 0.4685614 0.7962247 0.3827223
vn 0.7109419 0.7001387 0.06608562
vn 0.6004591 0.6648971 0.444253
vn 0.8190675 0.5625318 0.1126339
vn 0.7092819 0.5080203 0.488707
vn 0.9032031 0.4049413 0.1422905
vn 0.7908474 0.331617 0.5143837
vn 0.9601167 0.2334217 0.1539161
vn 0.8420194 0.1424737 0.5202928
vn 0.860835 -0.05215036 0.506205
vn -0.846569 0.2447625 -0.4726651
vn -0.8608351 0.05214634 -0.5062051
vn -0.5949945 0.2097547 -0.7758765
vn -0.5979546 0.03043434 -0.800952
vn -0.5616806 0.382648 -0.73355
vn -0.7997696 0.427973 -0.4209604
vn -0.4992936 0.542469 -0.6755984
vn -0.722235 0.5947359 -0.3530805
vn -0.5704483 -0.1484221 -0.8078116
vn -0.5135361 -0.3199421 -0.7961895
vn -0.4293992 -0.4775329 -0.7665368
g MoP_Arch_Gong_mesh_0
f 3/3/3 2/2/2 1/1/1
f 4/4/4 2/2/2 3/3/3
f 3/3/3 1/1/1 5/5/5
f 5/5/5 1/1/1 6/6/6
f 5/5/5 6/6/6 7/7/7
f 7/7/7 6/6/6 8/8/8
f 4/4/4 9/9/9 2/2/2
f 10/10/10 9/9/9 4/4/4
f 7/7/7 11/11/11 5/5/5
f 12/12/12 11/11/11 7/7/7
f 13/13/13 12/12/12 7/7/7
f 7/7/7 8/8/8 13/13/13
f 13/13/13 8/8/8 14/14/14
f 13/13/13 14/14/14 15/15/15
f 15/15/15 14/14/14 16/16/16
f 15/15/15 16/16/16 17/17/17
f 17/17/17 16/16/16 18/18/18
f 17/17/17 18/18/18 19/19/19
f 19/19/19 18/18/18 20/20/20
f 19/19/19 20/20/20 21/21/21
f 21/21/21 20/20/20 22/22/22
f 21/21/21 22/22/22 23/23/23
f 23/23/23 22/22/22 24/24/24
f 23/23/23 24/24/24 25/25/25
f 25/25/25 24/24/24 26/26/26
f 25/25/25 26/26/26 27/27/27
f 27/27/27 26/26/26 28/28/28
f 27/27/27 28/28/28 29/29/29
f 29/29/29 28/28/28 30/30/30
f 29/29/29 30/30/30 31/31/31
f 31/31/31 30/30/30 32/32/32
f 31/31/31 32/32/32 33/33/33
f 33/33/33 32/32/32 34/34/34
f 33/33/33 34/34/34 35/35/35
f 35/35/35 34/34/34 36/36/36
f 23/23/23 37/37/37 21/21/21
f 38/38/38 37/37/37 23/23/23
f 25/25/25 38/38/38 23/23/23
f 39/39/39 38/38/38 25/25/25
f 27/27/27 39/39/39 25/25/25
f 40/40/40 39/39/39 27/27/27
f 29/29/29 40/40/40 27/27/27
f 41/41/41 40/40/40 29/29/29
f 37/37/37 42/42/42 21/21/21
f 21/21/21 42/42/42 19/19/19
f 42/42/42 43/43/43 19/19/19
f 19/19/19 43/43/43 17/17/17
f 43/43/43 44/44/44 17/17/17
f 17/17/17 44/44/44 15/15/15
f 44/44/44 45/45/45 15/15/15
f 15/15/15 45/45/45 13/13/13
f 45/45/45 12/12/12 13/13/13
f 48/48/48 47/47/47 46/46/46
f 48/48/48 49/49/49 47/47/47
f 48/48/48 50/50/50 49/49/49
f 48/48/48 51/51/51 50/50/50
f 48/48/48 52/52/52 51/51/51
f 48/48/48 53/53/53 52/52/52
f 48/48/48 54/54/54 53/53/53
f 48/48/48 46/46/46 55/55/55
f 48/48/48 55/55/55 56/56/56
f 48/48/48 56/56/56 57/57/57
f 48/48/48 57/57/57 58/58/58
f 48/48/48 58/58/58 59/59/59
f 48/48/48 59/59/59 60/60/60
f 48/48/48 60/60/60 61/61/61
f 48/48/48 61/61/61 62/62/62
f 48/48/48 63/63/63 54/54/54
f 48/48/48 64/64/64 63/63/63
f 48/48/48 65/65/65 64/64/64
f 48/48/48 66/66/66 65/65/65
f 48/48/48 67/67/67 66/66/66
f 48/48/48 68/68/68 67/67/67
f 48/48/48 69/69/69 68/68/68
f 48/48/48 70/70/70 69/69/69
f 48/48/48 71/71/71 70/70/70
f 48/48/48 72/72/72 71/71/71
f 48/48/48 73/73/73 72/72/72
f 48/48/48 74/74/74 73/73/73
f 48/48/48 75/75/75 74/74/74
f 48/48/48 76/76/76 75/75/75
f 48/48/48 77/77/77 76/76/76
f 48/48/48 78/78/78 77/77/77
f 48/48/48 62/62/62 78/78/78
f 81/81/81 80/80/80 79/79/79
f 82/82/82 80/80/80 81/81/81
f 82/82/82 83/83/83 80/80/80
f 84/84/84 83/83/83 82/82/82
f 81/81/81 79/79/79 85/85/85
f 85/85/85 79/79/79 86/86/86
f 85/85/85 86/86/86 87/87/87
f 87/87/87 86/86/86 88/88/88
f 87/87/87 88/88/88 89/89/89
f 89/89/89 88/88/88 90/90/90
f 87/87/87 91/91/91 85/85/85
f 91/91/91 92/92/92 85/85/85
f 85/85/85 92/92/92 81/81/81
f 93/93/93 92/92/92 91/91/91
f 93/93/93 94/94/94 92/92/92
f 81/81/81 94/94/94 82/82/82
f 92/92/92 94/94/94 81/81/81
f 93/93/93 95/95/95 94/94/94
f 82/82/82 95/95/95 84/84/84
f 94/94/94 95/95/95 82/82/82
f 93/93/93 96/96/96 95/95/95
f 95/95/95 96/96/96 84/84/84
f 93/93/93 97/97/97 96/96/96
f 93/93/93 98/98/98 97/97/97
f 93/93/93 99/99/99 98/98/98
f 93/93/93 100/100/100 99/99/99
f 93/93/93 101/101/101 100/100/100
f 93/93/93 102/102/102 101/101/101
f 93/93/93 103/103/103 102/102/102
f 93/93/93 104/104/104 103/103/103
f 93/93/93 105/105/105 104/104/104
f 93/93/93 106/106/106 105/105/105
f 93/93/93 107/107/107 106/106/106
f 93/93/93 108/108/108 107/107/107
f 93/93/93 109/109/109 108/108/108
f 93/93/93 110/110/110 109/109/109
f 93/93/93 111/111/111 110/110/110
f 93/93/93 112/112/112 111/111/111
f 93/93/93 113/113/113 112/112/112
f 93/93/93 114/114/114 113/113/113
f 93/93/93 115/115/115 114/114/114
f 93/93/93 116/116/116 115/115/115
f 93/93/93 117/117/117 116/116/116
f 93/93/93 118/118/118 117/117/117
f 93/93/93 119/119/119 118/118/118
f 93/93/93 120/120/120 119/119/119
f 93/93/93 121/121/121 120/120/120
f 93/93/93 122/122/122 121/121/121
f 93/93/93 123/123/123 122/122/122
f 93/93/93 91/91/91 123/123/123
f 115/115/115 124/124/124 114/114/114
f 125/125/125 124/124/124 115/115/115
f 115/115/115 116/116/116 125/125/125
f 126/126/126 114/114/114 124/124/124
f 113/113/113 114/114/114 126/126/126
f 127/127/127 113/113/113 126/126/126
f 112/112/112 113/113/113 127/127/127
f 123/123/123 91/91/91 87/87/87
f 89/89/89 123/123/123 87/87/87
f 122/122/122 123/123/123 89/89/89
f 128/128/128 122/122/122 89/89/89
f 121/121/121 122/122/122 128/128/128
f 89/89/89 90/90/90 128/128/128
f 128/128/128 90/90/90 129/129/129
f 128/128/128 129/129/129 130/130/130
f 130/130/130 121/121/121 128/128/128
f 120/120/120 121/121/121 130/130/130
f 130/130/130 129/129/129 131/131/131
f 130/130/130 131/131/131 132/132/132
f 132/132/132 131/131/131 133/133/133
f 132/132/132 133/133/133 134/134/134
f 134/134/134 133/133/133 135/135/135
f 134/134/134 135/135/135 136/136/136
f 136/136/136 135/135/135 137/137/137
f 136/136/136 137/137/137 138/138/138
f 138/138/138 137/137/137 139/139/139
f 138/138/138 139/139/139 125/125/125
f 125/125/125 139/139/139 140/140/140
f 132/132/132 120/120/120 130/130/130
f 119/119/119 120/120/120 132/132/132
f 134/134/134 119/119/119 132/132/132
f 118/118/118 119/119/119 134/134/134
f 136/136/136 118/118/118 134/134/134
f 117/117/117 118/118/118 136/136/136
f 138/138/138 117/117/117 136/136/136
f 116/116/116 117/117/117 138/138/138
f 125/125/125 116/116/116 138/138/138
f 143/143/143 142/142/142 141/141/141
f 144/144/144 142/142/142 143/143/143
f 143/143/143 141/141/141 145/145/145
f 145/145/145 141/141/141 146/146/146
f 145/145/145 146/146/146 147/147/147
f 147/147/147 146/146/146 148/148/148
f 147/147/147 148/148/148 84/84/84
f 84/84/84 148/148/148 83/83/83
f 143/143/143 99/99/99 144/144/144
f 98/98/98 99/99/99 143/143/143
f 145/145/145 98/98/98 143/143/143
f 97/97/97 98/98/98 145/145/145
f 147/147/147 97/97/97 145/145/145
f 96/96/96 97/97/97 147/147/147
f 84/84/84 96/96/96 147/147/147
f 99/99/99 100/100/100 144/144/144
f 144/144/144 100/100/100 149/149/149
f 100/100/100 101/101/101 149/149/149
f 149/149/149 101/101/101 150/150/150
f 101/101/101 102/102/102 150/150/150
f 150/150/150 102/102/102 151/151/151
