g MoP_Farm_WaterSpout_mesh
v 1178.036 226.7928 -218.0463
v 1173.801 224.8653 -220.6435
v 1253.769 244.4351 -248.8848
v 1252.247 242.7646 -252.9441
v 1254.82 245.3231 -245.6504
v 1179.522 227.686 -213.0305
v 1171.016 222.2035 -215.9401
v 1171.016 222.2035 -215.9401
v 1254.82 245.3231 -245.6504
v 1177.843 223.7589 -212.783
v 1179.522 227.686 -213.0305
v 1254.918 242.2042 -245.1597
v 1177.843 223.7589 -212.783
v 1254.82 245.3231 -245.6504
v 1171.016 222.2035 -215.9401
v 1179.522 227.686 -213.0305
v 1177.843 223.7589 -212.783
v 1171.016 222.2035 -215.9401
v 1177.843 223.7589 -212.783
v 1170.857 217.3469 -212.3591
v 1170.857 217.3469 -212.3591
v 1177.843 223.7589 -212.783
v 1176.591 219.1568 -211.1264
v 1171.289 213.6222 -208.0001
v 1171.289 213.6222 -208.0001
v 1176.591 219.1568 -211.1264
v 1176.398 217.552 -207.2687
v 1172.435 211.3214 -202.9136
v 1177.141 216.1882 -203.1863
v 1256.07 237.1576 -241.6754
v 1255.349 239.3905 -243.7899
v 1176.591 219.1568 -211.1264
v 1257.012 235.7241 -239.023
v 1178.312 215.5966 -199.1348
v 1258.083 235.23 -236.0924
v 1180.057 216.1883 -195.2955
v 1259.176 235.7241 -233.1703
v 1182.207 217.9054 -192.0443
v 1260.185 237.1577 -230.5428
v 1184.662 220.58 -189.685
v 1261.012 239.3905 -228.4674
v 1187.324 223.9501 -187.9511
v 1261.576 242.2041 -227.1467
v 1191.15 228.1212 -188.2578
v 1261.821 245.3231 -226.7105
v 1179.129 213.6555 -188.0362
v 1183.361 217.2913 -184.731
v 1184.662 220.58 -189.685
v 1190.854 222.7047 -181.1394
v 1176.513 211.3609 -192.4978
v 1174.219 210.5616 -197.5949
v 1255.349 239.3905 -243.7899
v 1176.591 219.1568 -211.1264
v 1254.918 242.2042 -245.1597
v 1177.843 223.7589 -212.783
v 1264.408 243.3413 -222.7435
v 1191.15 228.1212 -188.2578
v 1261.821 245.3231 -226.7105
v 1193.083 226.0611 -182.8114
v 1187.324 223.9501 -187.9511
v 1190.854 222.7047 -181.1394
v 1184.662 220.58 -189.685
vt 0.31009 0.833518
vt 0.300524 0.827354
vt 0.476383 0.775292
vt 0.472423 0.766141
vt 0.479 0.782433
vt 0.313532 0.844354
vt 0.293738 0.836163
vt 0.293738 0.836163
vt 0.479 0.782433
vt 0.308561 0.843353
vt 0.313532 0.844354
vt 0.477798 0.782339
vt 0.308561 0.843353
vt 0.479 0.782433
vt 0.293738 0.836163
vt 0.313532 0.844354
vt 0.308561 0.843353
vt 0.293738 0.836163
vt 0.308561 0.843353
vt 0.291644 0.841767
vt 0.291644 0.841767
vt 0.308561 0.843353
vt 0.304251 0.845032
vt 0.291198 0.849401
vt 0.291198 0.849401
vt 0.304251 0.845032
vt 0.303259 0.852448
vt 0.29275 0.859075
vt 0.304305 0.860415
vt 0.477947 0.787842
vt 0.477436 0.784205
vt 0.304251 0.845032
vt 0.479281 0.792892
vt 0.306526 0.868614
vt 0.481305 0.798865
vt 0.310376 0.87684
vt 0.483824 0.805183
vt 0.315489 0.8843
vt 0.486595 0.811237
vt 0.321607 0.890302
vt 0.48935 0.816438
vt 0.328437 0.895297
vt 0.491821 0.820281
vt 0.338029 0.896368
vt 0.493768 0.822384
vt 0.307511 0.89092
vt 0.317665 0.899282
vt 0.321607 0.890302
vt 0.335334 0.909007
vt 0.301233 0.880724
vt 0.296179 0.869821
vt 0.477436 0.784205
vt 0.304251 0.845032
vt 0.477798 0.782339
vt 0.308561 0.843353
vt 0.498311 0.829991
vt 0.338029 0.896368
vt 0.493768 0.822384
vt 0.341281 0.906909
vt 0.328437 0.895297
vt 0.335334 0.909007
vt 0.321607 0.890302
vn -0.3860124 0.9209158 -0.05393016
vn -0.380263 0.9200376 -0.09450385
vn -0.3008112 0.9304956 -0.209023
vn -0.3146327 0.9135047 -0.257906
vn -0.2762658 0.9523628 -0.1291596
vn -0.4101196 0.9111218 -0.04073253
vn -0.5397851 0.6852643 0.4889221
vn -0.5282635 0.7862186 0.3206213
vn 0.3885416 0.0171946 0.9212708
vn 0.0727981 0.2010106 0.9768803
vn -0.0193645 0.07113598 0.9972786
vn 0.3083157 0.286335 0.9071679
vn -0.02222343 0.2711246 0.9622877
vn 0.3885416 0.0171946 0.9212708
vn -0.5053346 0.5885205 0.6310946
vn -0.0193645 0.07113598 0.9972786
vn -0.02222343 0.2711246 0.9622877
vn -0.5397851 0.6852643 0.4889221
vn -0.117348 0.3444235 0.9314514
vn -0.3773271 0.55044 0.7447416
vn -0.3773271 0.55044 0.7447416
vn -0.02222343 0.2711246 0.9622877
vn -0.1493239 0.6527961 0.7426705
vn -0.5259331 0.7176584 0.4564655
vn -0.5259331 0.7176584 0.4564655
vn -0.3615254 0.7348483 0.5738444
vn -0.339734 0.8306871 0.4410667
vn -0.6426817 0.6716943 0.3684927
vn -0.4037031 0.8468766 0.3461558
vn 0.01307679 0.8587309 0.5122599
vn 0.1009959 0.7280859 0.6780049
vn -0.1493239 0.6527961 0.7426705
vn -0.09929667 0.950188 0.2954371
vn -0.4728391 0.8591282 0.1957602
vn -0.2220514 0.9742334 0.0395251
vn -0.5414826 0.8403628 0.02422589
vn -0.3316543 0.9184237 -0.2156462
vn -0.6005397 0.7935588 -0.09806356
vn -0.4199585 0.7870746 -0.4518279
vn -0.6109056 0.751606 -0.2487623
vn -0.4771661 0.6072847 -0.6352305
vn -0.4933395 0.5113809 -0.7036374
vn -0.5064105 0.3402341 -0.7923315
vn -0.5063856 0.2840683 -0.8141737
vn -0.501372 0.1583667 -0.8506151
vn -0.7391667 0.6580913 0.1433472
vn -0.7239013 0.6557731 0.2143092
vn -0.6796312 0.7229567 -0.1242376
vn -0.7007786 0.582086 0.412414
vn -0.7361535 0.6494775 0.1904126
vn -0.6970129 0.6600574 0.2801737
vn 0.1009959 0.7280859 0.6780049
vn -0.03923693 0.5956789 0.8022638
vn 0.3083157 0.286335 0.9071679
vn -0.02222343 0.2711246 0.9622877
vn -0.002435835 0.9167588 0.3994338
vn -0.2270635 0.8663168 0.4449016
vn 0.01885816 0.8992847 0.4369568
vn -0.4546269 0.7713304 0.4453805
vn -0.6929206 0.5506653 0.4654339
vn -0.7007786 0.582086 0.412414
vn -0.7604215 0.5635989 0.3226692
g MoP_Farm_WaterSpout_mesh_0
f 3/3/3 2/2/2 1/1/1
f 4/4/4 2/2/2 3/3/3
f 1/1/1 5/5/5 3/3/3
f 6/6/6 5/5/5 1/1/1
f 2/2/2 7/7/7 1/1/1
f 8/8/8 6/6/6 1/1/1
f 11/11/11 10/10/10 9/9/9
f 14/14/14 13/13/13 12/12/12
f 17/17/17 16/16/16 15/15/15
f 20/20/20 19/19/19 18/18/18
f 23/23/23 22/22/22 21/21/21
f 24/24/24 23/23/23 21/21/21
f 27/27/27 26/26/26 25/25/25
f 28/28/28 27/27/27 25/25/25
f 29/29/29 27/27/27 28/28/28
f 27/27/27 29/29/29 30/30/30
f 31/31/31 27/27/27 30/30/30
f 32/32/32 27/27/27 31/31/31
f 30/30/30 29/29/29 33/33/33
f 29/29/29 34/34/34 33/33/33
f 33/33/33 34/34/34 35/35/35
f 34/34/34 36/36/36 35/35/35
f 35/35/35 36/36/36 37/37/37
f 36/36/36 38/38/38 37/37/37
f 37/37/37 38/38/38 39/39/39
f 38/38/38 40/40/40 39/39/39
f 39/39/39 40/40/40 41/41/41
f 40/40/40 42/42/42 41/41/41
f 41/41/41 42/42/42 43/43/43
f 42/42/42 44/44/44 43/43/43
f 43/43/43 44/44/44 45/45/45
f 38/38/38 36/36/36 46/46/46
f 47/47/47 38/38/38 46/46/46
f 48/48/48 38/38/38 47/47/47
f 49/49/49 48/48/48 47/47/47
f 46/46/46 36/36/36 50/50/50
f 36/36/36 34/34/34 50/50/50
f 50/50/50 34/34/34 51/51/51
f 34/34/34 29/29/29 51/51/51
f 51/51/51 29/29/29 28/28/28
f 54/54/54 53/53/53 52/52/52
f 55/55/55 53/53/53 54/54/54
f 58/58/58 57/57/57 56/56/56
f 56/56/56 57/57/57 59/59/59
f 57/57/57 60/60/60 59/59/59
f 59/59/59 60/60/60 61/61/61
f 60/60/60 62/62/62 61/61/61
