g MoText_Text___TURN_N1_Cap_1
v 1523.279 57.77439 -617.228
v 1523.279 57.77439 -619.0562
v 1524.451 57.77439 -619.0562
v 1526.607 57.77439 -619.0562
v 1528.001 57.77439 -619.0562
v 1528.001 57.77439 -617.228
v 1526.607 57.77439 -628.2437
v 1524.451 57.77439 -631.7241
v 1534.623 57.77439 -624.9858
v 1528.716 57.77439 -633.5757
v 1523.279 57.77439 -631.7241
v 1523.279 57.77439 -633.5757
v 1532.677 57.77439 -619.3608
v 1536.791 57.77439 -617.228
v 1536.791 57.77439 -631.7241
v 1534.623 57.77439 -631.7241
v 1533.049 57.77439 -618.7896
v 1533.369 57.77439 -618.2476
v 1533.884 57.77439 -617.228
v 1537.939 57.77439 -631.7241
v 1533.451 57.77439 -631.7241
v 1537.939 57.77439 -633.5757
v 1533.451 57.77439 -633.5757
vt 0 0
vt 0 0
vt 0 0
vt 0 0
vt 0 0
vt 0 0
vt 0 0
vt 0 0
vt 0 0
vt 0 0
vt 0 0
vt 0 0
vt 0 0
vt 0 0
vt 0 0
vt 0 0
vt 0 0
vt 0 0
vt 0 0
vt 0 0
vt 0 0
vt 0 0
vt 0 0
vn 0 1 0
vn 0 1 0
vn 0 1 0
vn 0 1 0
vn 0 1 0
vn 0 1 0
vn 0 1 0
vn 0 1 0
vn 0 1 0
vn 0 1 0
vn 0 1 0
vn 0 1 0
vn 0 1 0
vn 0 1 0
vn 0 1 0
vn 0 1 0
vn 0 1 0
vn 0 1 0
vn 0 1 0
vn 0 1 0
vn 0 1 0
vn 0 1 0
vn 0 1 0
g MoText_Text___TURN_N1_Cap_1_0
f 3/3/3 2/2/2 1/1/1
f 1/1/1 4/4/4 3/3/3
f 1/1/1 5/5/5 4/4/4
f 1/1/1 6/6/6 5/5/5
f 3/3/3 4/4/4 7/7/7
f 7/7/7 8/8/8 3/3/3
f 8/8/8 7/7/7 9/9/9
f 8/8/8 9/9/9 10/10/10
f 11/11/11 8/8/8 10/10/10
f 10/10/10 12/12/12 11/11/11
f 7/7/7 13/13/13 9/9/9
f 9/9/9 13/13/13 14/14/14
f 9/9/9 14/14/14 15/15/15
f 15/15/15 16/16/16 9/9/9
f 13/13/13 17/17/17 14/14/14
f 17/17/17 18/18/18 14/14/14
f 18/18/18 19/19/19 14/14/14
f 16/16/16 15/15/15 20/20/20
f 21/21/21 16/16/16 20/20/20
f 21/21/21 20/20/20 22/22/22
f 22/22/22 23/23/23 21/21/21
