g MoText_Text_TURN_U_Cap_22
v 1502.443 37.77439 -633.5757
v 1496.279 37.77439 -633.5757
v 1497.451 37.77439 -631.7241
v 1502.443 37.77439 -619.0562
v 1497.451 37.77439 -622.2202
v 1497.44 37.77439 -621.8933
v 1497.415 37.77439 -621.6306
v 1497.357 37.77439 -621.3055
v 1497.284 37.77439 -621.0447
v 1497.204 37.77439 -620.8387
v 1497.109 37.77439 -620.649
v 1497.019 37.77439 -620.5032
v 1496.917 37.77439 -620.3687
v 1496.852 37.77439 -620.2936
v 1496.783 37.77439 -620.2233
v 1496.661 37.77439 -620.1163
v 1496.529 37.77439 -620.0222
v 1496.388 37.77439 -619.941
v 1496.238 37.77439 -619.8726
v 1496.078 37.77439 -619.8172
v 1495.875 37.77439 -619.7677
v 1495.658 37.77439 -619.7368
v 1495.388 37.77439 -619.7241
v 1488.626 37.77439 -619.6563
v 1488.809 37.77439 -619.2261
v 1489.027 37.77439 -618.8293
v 1495.135 37.77439 -619.7322
v 1494.936 37.77439 -619.7513
v 1494.676 37.77439 -619.7971
v 1494.47 37.77439 -619.8538
v 1494.281 37.77439 -619.9266
v 1494.135 37.77439 -619.9998
v 1494.001 37.77439 -620.0841
v 1488.478 37.77439 -620.1196
v 1493.877 37.77439 -620.1797
v 1493.765 37.77439 -620.2866
v 1493.664 37.77439 -620.4051
v 1493.59 37.77439 -620.5085
v 1493.508 37.77439 -620.6485
v 1488.351 37.77439 -620.7022
v 1493.424 37.77439 -620.8323
v 1493.355 37.77439 -621.0333
v 1493.294 37.77439 -621.2895
v 1488.271 37.77439 -621.3301
v 1493.249 37.77439 -621.611
v 1493.232 37.77439 -622.0093
v 1488.24 37.77439 -622.103
v 1488.24 37.77439 -631.7241
v 1493.232 37.77439 -633.5757
v 1487.068 37.77439 -633.5757
v 1487.068 37.77439 -631.7241
v 1503.626 37.77439 -617.228
v 1503.626 37.77439 -619.0562
v 1497.474 37.77439 -618.8101
v 1497.697 37.77439 -617.228
v 1489.236 37.77439 -618.5239
v 1496.906 37.77439 -618.3096
v 1489.47 37.77439 -618.2417
v 1496.361 37.77439 -617.9124
v 1489.726 37.77439 -617.9846
v 1489.946 37.77439 -617.7983
v 1495.886 37.77439 -617.627
v 1490.238 37.77439 -617.5898
v 1495.353 37.77439 -617.3687
v 1490.551 37.77439 -617.4085
v 1490.884 37.77439 -617.2542
v 1494.85 37.77439 -617.1805
v 1491.31 37.77439 -617.1047
v 1494.331 37.77439 -617.0389
v 1491.765 37.77439 -616.9943
v 1493.797 37.77439 -616.9437
v 1492.332 37.77439 -616.9147
v 1493.398 37.77439 -616.9037
v 1492.939 37.77439 -616.8882
v 1496.279 37.77439 -631.7241
vt 0 0
vt 0 0
vt 0 0
vt 0 0
vt 0 0
vt 0 0
vt 0 0
vt 0 0
vt 0 0
vt 0 0
vt 0 0
vt 0 0
vt 0 0
vt 0 0
vt 0 0
vt 0 0
vt 0 0
vt 0 0
vt 0 0
vt 0 0
vt 0 0
vt 0 0
vt 0 0
vt 0 0
vt 0 0
vt 0 0
vt 0 0
vt 0 0
vt 0 0
vt 0 0
vt 0 0
vt 0 0
vt 0 0
vt 0 0
vt 0 0
vt 0 0
vt 0 0
vt 0 0
vt 0 0
vt 0 0
vt 0 0
vt 0 0
vt 0 0
vt 0 0
vt 0 0
vt 0 0
vt 0 0
vt 0 0
vt 0 0
vt 0 0
vt 0 0
vt 0 0
vt 0 0
vt 0 0
vt 0 0
vt 0 0
vt 0 0
vt 0 0
vt 0 0
vt 0 0
vt 0 0
vt 0 0
vt 0 0
vt 0 0
vt 0 0
vt 0 0
vt 0 0
vt 0 0
vt 0 0
vt 0 0
vt 0 0
vt 0 0
vt 0 0
vt 0 0
vt 0 0
vn 0 -1 0
vn 0 -1 0
vn 0 -1 0
vn 0 -1 0
vn 0 -1 0
vn 0 -1 0
vn 0 -1 0
vn 0 -1 0
vn 0 -1 0
vn 0 -1 0
vn 0 -1 0
vn 0 -1 0
vn 0 -1 0
vn 0 -1 0
vn 0 -1 0
vn 0 -1 0
vn 0 -1 0
vn 0 -1 0
vn 0 -1 0
vn 0 -1 0
vn 0 -1 0
vn 0 -1 0
vn 0 -1 0
vn 0 -1 0
vn 0 -1 0
vn 0 -1 0
vn 0 -1 0
vn 0 -1 0
vn 0 -1 0
vn 0 -1 0
vn 0 -1 0
vn 0 -1 0
vn 0 -1 0
vn 0 -1 0
vn 0 -1 0
vn 0 -1 0
vn 0 -1 0
vn 0 -1 0
vn 0 -1 0
vn 0 -1 0
vn 0 -1 0
vn 0 -1 0
vn 0 -1 0
vn 0 -1 0
vn 0 -1 0
vn 0 -1 0
vn 0 -1 0
vn 0 -1 0
vn 0 -1 0
vn 0 -1 0
vn 0 -1 0
vn 0 -1 0
vn 0 -1 0
vn 0 -1 0
vn 0 -1 0
vn 0 -1 0
vn 0 -1 0
vn 0 -1 0
vn 0 -1 0
vn 0 -1 0
vn 0 -1 0
vn 0 -1 0
vn 0 -1 0
vn 0 -1 0
vn 0 -1 0
vn 0 -1 0
vn 0 -1 0
vn 0 -1 0
vn 0 -1 0
vn 0 -1 0
vn 0 -1 0
vn 0 -1 0
vn 0 -1 0
vn 0 -1 0
vn 0 -1 0
g MoText_Text_TURN_U_Cap_22_0
f 3/3/3 2/2/2 1/1/1
f 1/1/1 4/4/4 3/3/3
f 4/4/4 5/5/5 3/3/3
f 4/4/4 6/6/6 5/5/5
f 4/4/4 7/7/7 6/6/6
f 4/4/4 8/8/8 7/7/7
f 4/4/4 9/9/9 8/8/8
f 4/4/4 10/10/10 9/9/9
f 4/4/4 11/11/11 10/10/10
f 4/4/4 12/12/12 11/11/11
f 4/4/4 13/13/13 12/12/12
f 4/4/4 14/14/14 13/13/13
f 4/4/4 15/15/15 14/14/14
f 4/4/4 16/16/16 15/15/15
f 4/4/4 17/17/17 16/16/16
f 4/4/4 18/18/18 17/17/17
f 4/4/4 19/19/19 18/18/18
f 4/4/4 20/20/20 19/19/19
f 4/4/4 21/21/21 20/20/20
f 4/4/4 22/22/22 21/21/21
f 4/4/4 23/23/23 22/22/22
f 4/4/4 24/24/24 23/23/23
f 4/4/4 25/25/25 24/24/24
f 4/4/4 26/26/26 25/25/25
f 27/27/27 23/23/23 24/24/24
f 28/28/28 27/27/27 24/24/24
f 29/29/29 28/28/28 24/24/24
f 30/30/30 29/29/29 24/24/24
f 31/31/31 30/30/30 24/24/24
f 32/32/32 31/31/31 24/24/24
f 33/33/33 32/32/32 24/24/24
f 33/33/33 24/24/24 34/34/34
f 35/35/35 33/33/33 34/34/34
f 36/36/36 35/35/35 34/34/34
f 37/37/37 36/36/36 34/34/34
f 38/38/38 37/37/37 34/34/34
f 39/39/39 38/38/38 34/34/34
f 39/39/39 34/34/34 40/40/40
f 41/41/41 39/39/39 40/40/40
f 42/42/42 41/41/41 40/40/40
f 43/43/43 42/42/42 40/40/40
f 43/43/43 40/40/40 44/44/44
f 45/45/45 43/43/43 44/44/44
f 46/46/46 45/45/45 44/44/44
f 46/46/46 44/44/44 47/47/47
f 46/46/46 47/47/47 48/48/48
f 49/49/49 46/46/46 48/48/48
f 48/48/48 50/50/50 49/49/49
f 50/50/50 48/48/48 51/51/51
f 4/4/4 53/53/53 52/52/52
f 52/52/52 54/54/54 4/4/4
f 54/54/54 26/26/26 4/4/4
f 52/52/52 55/55/55 54/54/54
f 56/56/56 26/26/26 54/54/54
f 54/54/54 57/57/57 56/56/56
f 57/57/57 58/58/58 56/56/56
f 57/57/57 59/59/59 58/58/58
f 59/59/59 60/60/60 58/58/58
f 59/59/59 61/61/61 60/60/60
f 59/59/59 62/62/62 61/61/61
f 62/62/62 63/63/63 61/61/61
f 62/62/62 64/64/64 63/63/63
f 64/64/64 65/65/65 63/63/63
f 64/64/64 66/66/66 65/65/65
f 64/64/64 67/67/67 66/66/66
f 67/67/67 68/68/68 66/66/66
f 67/67/67 69/69/69 68/68/68
f 69/69/69 70/70/70 68/68/68
f 69/69/69 71/71/71 70/70/70
f 71/71/71 72/72/72 70/70/70
f 71/71/71 73/73/73 72/72/72
f 73/73/73 74/74/74 72/72/72
f 2/2/2 3/3/3 75/75/75
