g MoText_Text___TURN_R_Cap_25
v 1513.621 37.77439 -631.451
v 1513.482 37.77439 -633.5757
v 1513.295 37.77439 -631.5144
v 1513.009 37.77439 -631.5465
v 1512.65 37.77439 -631.5601
v 1512.24 37.77439 -631.5601
v 1514.768 37.77439 -633.5181
v 1513.93 37.77439 -631.3605
v 1514.22 37.77439 -631.2427
v 1514.448 37.77439 -631.1238
v 1515.83 37.77439 -633.3676
v 1514.663 37.77439 -630.9861
v 1514.866 37.77439 -630.8295
v 1516.7 37.77439 -633.1554
v 1515.093 37.77439 -630.6167
v 1515.298 37.77439 -630.3813
v 1517.403 37.77439 -632.9092
v 1515.449 37.77439 -630.1713
v 1517.963 37.77439 -632.6532
v 1515.606 37.77439 -629.9028
v 1518.399 37.77439 -632.4081
v 1518.808 37.77439 -632.1343
v 1515.737 37.77439 -629.6161
v 1519.254 37.77439 -631.7742
v 1515.841 37.77439 -629.3115
v 1519.581 37.77439 -631.4525
v 1519.87 37.77439 -631.111
v 1515.92 37.77439 -628.9888
v 1520.119 37.77439 -630.7499
v 1520.328 37.77439 -630.3691
v 1520.498 37.77439 -629.9686
v 1515.978 37.77439 -628.5895
v 1520.628 37.77439 -629.5483
v 1520.719 37.77439 -629.1085
v 1520.763 37.77439 -628.7424
v 1516.001 37.77439 -628.103
v 1520.783 37.77439 -628.2671
v 1520.76 37.77439 -627.7769
v 1520.692 37.77439 -627.3038
v 1515.985 37.77439 -627.6783
v 1520.596 37.77439 -626.9039
v 1520.464 37.77439 -626.517
v 1520.298 37.77439 -626.1432
v 1515.944 37.77439 -627.3329
v 1520.128 37.77439 -625.8333
v 1519.898 37.77439 -625.4839
v 1515.865 37.77439 -626.9518
v 1519.597 37.77439 -625.1075
v 1519.259 37.77439 -624.762
v 1515.77 37.77439 -626.6437
v 1518.885 37.77439 -624.4473
v 1518.475 37.77439 -624.1636
v 1515.651 37.77439 -626.3528
v 1517.97 37.77439 -623.8813
v 1515.507 37.77439 -626.0792
v 1517.419 37.77439 -623.6382
v 1515.339 37.77439 -625.8228
v 1515.146 37.77439 -625.5835
v 1514.933 37.77439 -625.3667
v 1514.706 37.77439 -625.1776
v 1514.506 37.77439 -625.0411
v 1514.296 37.77439 -624.9239
v 1513.248 37.77439 -622.7241
v 1514.075 37.77439 -624.8259
v 1513.845 37.77439 -624.7471
v 1513.555 37.77439 -624.6779
v 1513.25 37.77439 -624.6364
v 1512.931 37.77439 -624.6226
v 1514.923 37.77439 -619.0562
v 1517.618 37.77439 -623.4579
v 1517.767 37.77439 -623.3002
v 1517.917 37.77439 -623.1167
v 1518.11 37.77439 -622.8378
v 1518.24 37.77439 -622.6208
v 1518.38 37.77439 -622.3608
v 1515.079 37.77439 -618.6592
v 1520.162 37.77439 -619.0562
v 1515.216 37.77439 -618.2183
v 1515.336 37.77439 -617.7393
v 1515.439 37.77439 -617.228
v 1521.169 37.77439 -617.228
v 1521.169 37.77439 -619.0562
v 1512.24 37.77439 -624.6226
v 1512.24 37.77439 -622.7241
v 1507.341 37.77439 -619.0562
v 1512.24 37.77439 -619.0562
v 1513.388 37.77439 -617.228
v 1513.388 37.77439 -619.0562
v 1506.169 37.77439 -617.228
v 1506.169 37.77439 -619.0562
v 1507.341 37.77439 -631.7241
v 1506.169 37.77439 -633.5757
v 1506.169 37.77439 -631.7241
vt 0 0
vt 0 0
vt 0 0
vt 0 0
vt 0 0
vt 0 0
vt 0 0
vt 0 0
vt 0 0
vt 0 0
vt 0 0
vt 0 0
vt 0 0
vt 0 0
vt 0 0
vt 0 0
vt 0 0
vt 0 0
vt 0 0
vt 0 0
vt 0 0
vt 0 0
vt 0 0
vt 0 0
vt 0 0
vt 0 0
vt 0 0
vt 0 0
vt 0 0
vt 0 0
vt 0 0
vt 0 0
vt 0 0
vt 0 0
vt 0 0
vt 0 0
vt 0 0
vt 0 0
vt 0 0
vt 0 0
vt 0 0
vt 0 0
vt 0 0
vt 0 0
vt 0 0
vt 0 0
vt 0 0
vt 0 0
vt 0 0
vt 0 0
vt 0 0
vt 0 0
vt 0 0
vt 0 0
vt 0 0
vt 0 0
vt 0 0
vt 0 0
vt 0 0
vt 0 0
vt 0 0
vt 0 0
vt 0 0
vt 0 0
vt 0 0
vt 0 0
vt 0 0
vt 0 0
vt 0 0
vt 0 0
vt 0 0
vt 0 0
vt 0 0
vt 0 0
vt 0 0
vt 0 0
vt 0 0
vt 0 0
vt 0 0
vt 0 0
vt 0 0
vt 0 0
vt 0 0
vt 0 0
vt 0 0
vt 0 0
vt 0 0
vt 0 0
vt 0 0
vt 0 0
vt 0 0
vt 0 0
vt 0 0
vn 0 -1 0
vn 0 -1 0
vn 0 -1 0
vn 0 -1 0
vn 0 -1 0
vn 0 -1 0
vn 0 -1 0
vn 0 -1 0
vn 0 -1 0
vn 0 -1 0
vn 0 -1 0
vn 0 -1 0
vn 0 -1 0
vn 0 -1 0
vn 0 -1 0
vn 0 -1 0
vn 0 -1 0
vn 0 -1 0
vn 0 -1 0
vn 0 -1 0
vn 0 -1 0
vn 0 -1 0
vn 0 -1 0
vn 0 -1 0
vn 0 -1 0
vn 0 -1 0
vn 0 -1 0
vn 0 -1 0
vn 0 -1 0
vn 0 -1 0
vn 0 -1 0
vn 0 -1 0
vn 0 -1 0
vn 0 -1 0
vn 0 -1 0
vn 0 -1 0
vn 0 -1 0
vn 0 -1 0
vn 0 -1 0
vn 0 -1 0
vn 0 -1 0
vn 0 -1 0
vn 0 -1 0
vn 0 -1 0
vn 0 -1 0
vn 0 -1 0
vn 0 -1 0
vn 0 -1 0
vn 0 -1 0
vn 0 -1 0
vn 0 -1 0
vn 0 -1 0
vn 0 -1 0
vn 0 -1 0
vn 0 -1 0
vn 0 -1 0
vn 0 -1 0
vn 0 -1 0
vn 0 -1 0
vn 0 -1 0
vn 0 -1 0
vn 0 -1 0
vn 0 -1 0
vn 0 -1 0
vn 0 -1 0
vn 0 -1 0
vn 0 -1 0
vn 0 -1 0
vn 0 -1 0
vn 0 -1 0
vn 0 -1 0
vn 0 -1 0
vn 0 -1 0
vn 0 -1 0
vn 0 -1 0
vn 0 -1 0
vn 0 -1 0
vn 0 -1 0
vn 0 -1 0
vn 0 -1 0
vn 0 -1 0
vn 0 -1 0
vn 0 -1 0
vn 0 -1 0
vn 0 -1 0
vn 0 -1 0
vn 0 -1 0
vn 0 -1 0
vn 0 -1 0
vn 0 -1 0
vn 0 -1 0
vn 0 -1 0
vn 0 -1 0
g MoText_Text___TURN_R_Cap_25_0
f 3/3/3 2/2/2 1/1/1
f 4/4/4 2/2/2 3/3/3
f 5/5/5 2/2/2 4/4/4
f 6/6/6 2/2/2 5/5/5
f 2/2/2 7/7/7 1/1/1
f 1/1/1 7/7/7 8/8/8
f 8/8/8 7/7/7 9/9/9
f 9/9/9 7/7/7 10/10/10
f 7/7/7 11/11/11 10/10/10
f 10/10/10 11/11/11 12/12/12
f 12/12/12 11/11/11 13/13/13
f 11/11/11 14/14/14 13/13/13
f 13/13/13 14/14/14 15/15/15
f 15/15/15 14/14/14 16/16/16
f 14/14/14 17/17/17 16/16/16
f 16/16/16 17/17/17 18/18/18
f 17/17/17 19/19/19 18/18/18
f 18/18/18 19/19/19 20/20/20
f 19/19/19 21/21/21 20/20/20
f 21/21/21 22/22/22 20/20/20
f 20/20/20 22/22/22 23/23/23
f 22/22/22 24/24/24 23/23/23
f 23/23/23 24/24/24 25/25/25
f 24/24/24 26/26/26 25/25/25
f 26/26/26 27/27/27 25/25/25
f 25/25/25 27/27/27 28/28/28
f 27/27/27 29/29/29 28/28/28
f 29/29/29 30/30/30 28/28/28
f 30/30/30 31/31/31 28/28/28
f 28/28/28 31/31/31 32/32/32
f 31/31/31 33/33/33 32/32/32
f 33/33/33 34/34/34 32/32/32
f 34/34/34 35/35/35 32/32/32
f 32/32/32 35/35/35 36/36/36
f 35/35/35 37/37/37 36/36/36
f 37/37/37 38/38/38 36/36/36
f 38/38/38 39/39/39 36/36/36
f 36/36/36 39/39/39 40/40/40
f 39/39/39 41/41/41 40/40/40
f 41/41/41 42/42/42 40/40/40
f 42/42/42 43/43/43 40/40/40
f 40/40/40 43/43/43 44/44/44
f 43/43/43 45/45/45 44/44/44
f 45/45/45 46/46/46 44/44/44
f 44/44/44 46/46/46 47/47/47
f 46/46/46 48/48/48 47/47/47
f 48/48/48 49/49/49 47/47/47
f 47/47/47 49/49/49 50/50/50
f 49/49/49 51/51/51 50/50/50
f 51/51/51 52/52/52 50/50/50
f 50/50/50 52/52/52 53/53/53
f 52/52/52 54/54/54 53/53/53
f 53/53/53 54/54/54 55/55/55
f 54/54/54 56/56/56 55/55/55
f 55/55/55 56/56/56 57/57/57
f 57/57/57 56/56/56 58/58/58
f 58/58/58 56/56/56 59/59/59
f 59/59/59 56/56/56 60/60/60
f 60/60/60 56/56/56 61/61/61
f 61/61/61 56/56/56 62/62/62
f 56/56/56 63/63/63 62/62/62
f 62/62/62 63/63/63 64/64/64
f 64/64/64 63/63/63 65/65/65
f 65/65/65 63/63/63 66/66/66
f 66/66/66 63/63/63 67/67/67
f 67/67/67 63/63/63 68/68/68
f 69/69/69 63/63/63 56/56/56
f 70/70/70 69/69/69 56/56/56
f 71/71/71 69/69/69 70/70/70
f 72/72/72 69/69/69 71/71/71
f 73/73/73 69/69/69 72/72/72
f 74/74/74 69/69/69 73/73/73
f 75/75/75 69/69/69 74/74/74
f 76/76/76 69/69/69 75/75/75
f 77/77/77 76/76/76 75/75/75
f 78/78/78 76/76/76 77/77/77
f 79/79/79 78/78/78 77/77/77
f 80/80/80 79/79/79 77/77/77
f 81/81/81 80/80/80 77/77/77
f 82/82/82 81/81/81 77/77/77
f 68/68/68 84/84/84 83/83/83
f 63/63/63 84/84/84 68/68/68
f 84/84/84 85/85/85 83/83/83
f 86/86/86 85/85/85 84/84/84
f 87/87/87 85/85/85 86/86/86
f 88/88/88 87/87/87 86/86/86
f 89/89/89 85/85/85 87/87/87
f 90/90/90 85/85/85 89/89/89
f 85/85/85 91/91/91 83/83/83
f 83/83/83 91/91/91 6/6/6
f 6/6/6 91/91/91 2/2/2
f 2/2/2 91/91/91 92/92/92
f 91/91/91 93/93/93 92/92/92
