g MoText_Text_TURN_R
v 1512.24 57.77439 -624.6226
v 1512.24 57.77439 -631.5601
v 1512.24 37.77439 -631.5601
v 1512.24 37.77439 -624.6226
v 1512.931 57.77439 -624.6226
v 1512.24 57.77439 -624.6226
v 1512.24 37.77439 -624.6226
v 1512.931 37.77439 -624.6226
v 1513.25 57.77439 -624.6364
v 1513.25 37.77439 -624.6364
v 1513.555 57.77439 -624.6779
v 1513.555 37.77439 -624.6779
v 1513.845 57.77439 -624.7471
v 1513.845 37.77439 -624.7471
v 1514.075 57.77439 -624.8259
v 1514.075 37.77439 -624.8259
v 1514.296 57.77439 -624.9239
v 1514.296 37.77439 -624.9239
v 1514.506 57.77439 -625.0411
v 1514.506 37.77439 -625.0411
v 1514.706 57.77439 -625.1776
v 1514.706 37.77439 -625.1776
v 1514.933 57.77439 -625.3667
v 1514.933 37.77439 -625.3667
v 1515.146 57.77439 -625.5835
v 1515.146 37.77439 -625.5835
v 1515.339 57.77439 -625.8228
v 1515.339 37.77439 -625.8228
v 1515.507 57.77439 -626.0792
v 1515.507 37.77439 -626.0792
v 1515.651 57.77439 -626.3528
v 1515.651 37.77439 -626.3528
v 1515.77 57.77439 -626.6437
v 1515.77 37.77439 -626.6437
v 1515.865 57.77439 -626.9518
v 1515.865 37.77439 -626.9518
v 1515.944 57.77439 -627.3329
v 1515.944 37.77439 -627.3329
v 1515.985 57.77439 -627.6783
v 1515.985 37.77439 -627.6783
v 1516.001 57.77439 -628.103
v 1516.001 37.77439 -628.103
v 1515.978 57.77439 -628.5895
v 1515.978 37.77439 -628.5895
v 1515.92 57.77439 -628.9888
v 1515.92 37.77439 -628.9888
v 1515.841 57.77439 -629.3115
v 1515.841 37.77439 -629.3115
v 1515.737 57.77439 -629.6161
v 1515.737 37.77439 -629.6161
v 1515.606 57.77439 -629.9028
v 1515.606 37.77439 -629.9028
v 1515.449 57.77439 -630.1713
v 1515.449 37.77439 -630.1713
v 1515.298 57.77439 -630.3813
v 1515.298 37.77439 -630.3813
v 1515.093 57.77439 -630.6167
v 1515.093 37.77439 -630.6167
v 1514.866 57.77439 -630.8295
v 1514.866 37.77439 -630.8295
v 1514.663 57.77439 -630.9861
v 1514.663 37.77439 -630.9861
v 1514.448 57.77439 -631.1238
v 1514.448 37.77439 -631.1238
v 1514.22 57.77439 -631.2427
v 1514.22 37.77439 -631.2427
v 1513.93 57.77439 -631.3605
v 1513.93 37.77439 -631.3605
v 1513.621 57.77439 -631.451
v 1513.621 37.77439 -631.451
v 1513.295 57.77439 -631.5144
v 1513.295 37.77439 -631.5144
v 1513.009 57.77439 -631.5465
v 1513.009 37.77439 -631.5465
v 1512.65 57.77439 -631.5601
v 1512.65 37.77439 -631.5601
v 1512.24 57.77439 -631.5601
v 1512.24 37.77439 -631.5601
v 1513.482 57.77439 -633.5757
v 1506.169 57.77439 -633.5757
v 1506.169 37.77439 -633.5757
v 1513.482 37.77439 -633.5757
v 1514.768 57.77439 -633.5181
v 1514.768 37.77439 -633.5181
v 1515.83 57.77439 -633.3676
v 1515.83 37.77439 -633.3676
v 1516.7 57.77439 -633.1554
v 1516.7 37.77439 -633.1554
v 1517.403 57.77439 -632.9092
v 1517.403 37.77439 -632.9092
v 1517.963 57.77439 -632.6532
v 1517.963 37.77439 -632.6532
v 1518.399 57.77439 -632.4081
v 1518.399 37.77439 -632.4081
v 1518.808 57.77439 -632.1343
v 1518.808 37.77439 -632.1343
v 1519.254 57.77439 -631.7742
v 1519.254 37.77439 -631.7742
v 1519.581 57.77439 -631.4525
v 1519.581 37.77439 -631.4525
v 1519.87 57.77439 -631.111
v 1519.87 37.77439 -631.111
v 1520.119 57.77439 -630.7499
v 1520.119 37.77439 -630.7499
v 1520.328 57.77439 -630.3691
v 1520.328 37.77439 -630.3691
v 1520.498 57.77439 -629.9686
v 1520.498 37.77439 -629.9686
v 1520.628 57.77439 -629.5483
v 1520.628 37.77439 -629.5483
v 1520.719 57.77439 -629.1085
v 1520.719 37.77439 -629.1085
v 1520.763 57.77439 -628.7424
v 1520.763 37.77439 -628.7424
v 1520.783 57.77439 -628.2671
v 1520.783 37.77439 -628.2671
v 1520.76 57.77439 -627.7769
v 1520.76 37.77439 -627.7769
v 1520.692 57.77439 -627.3038
v 1520.692 37.77439 -627.3038
v 1520.596 57.77439 -626.9039
v 1520.596 37.77439 -626.9039
v 1520.464 57.77439 -626.517
v 1520.464 37.77439 -626.517
v 1520.298 57.77439 -626.1432
v 1520.298 37.77439 -626.1432
v 1520.128 57.77439 -625.8333
v 1520.128 37.77439 -625.8333
v 1519.898 57.77439 -625.4839
v 1519.898 37.77439 -625.4839
v 1519.597 57.77439 -625.1075
v 1519.597 37.77439 -625.1075
v 1519.259 57.77439 -624.762
v 1519.259 37.77439 -624.762
v 1518.885 57.77439 -624.4473
v 1518.885 37.77439 -624.4473
v 1518.475 57.77439 -624.1636
v 1518.475 37.77439 -624.1636
v 1517.97 57.77439 -623.8813
v 1517.97 37.77439 -623.8813
v 1517.419 57.77439 -623.6382
v 1517.419 37.77439 -623.6382
v 1517.618 57.77439 -623.4579
v 1517.419 57.77439 -623.6382
v 1517.419 37.77439 -623.6382
v 1517.618 37.77439 -623.4579
v 1517.767 57.77439 -623.3002
v 1517.767 37.77439 -623.3002
v 1517.917 57.77439 -623.1167
v 1517.917 37.77439 -623.1167
v 1518.11 57.77439 -622.8378
v 1518.11 37.77439 -622.8378
v 1518.24 57.77439 -622.6208
v 1518.24 37.77439 -622.6208
v 1518.38 57.77439 -622.3608
v 1518.38 37.77439 -622.3608
v 1520.162 57.77439 -619.0562
v 1520.162 37.77439 -619.0562
v 1521.169 57.77439 -619.0562
v 1520.162 57.77439 -619.0562
v 1520.162 37.77439 -619.0562
v 1521.169 37.77439 -619.0562
v 1521.169 57.77439 -617.228
v 1521.169 57.77439 -619.0562
v 1521.169 37.77439 -619.0562
v 1521.169 37.77439 -617.228
v 1515.439 57.77439 -617.228
v 1521.169 57.77439 -617.228
v 1521.169 37.77439 -617.228
v 1515.439 37.77439 -617.228
v 1515.336 57.77439 -617.7393
v 1515.439 57.77439 -617.228
v 1515.439 37.77439 -617.228
v 1515.336 37.77439 -617.7393
v 1515.216 57.77439 -618.2183
v 1515.216 37.77439 -618.2183
v 1515.079 57.77439 -618.6592
v 1515.079 37.77439 -618.6592
v 1514.923 57.77439 -619.0562
v 1514.923 37.77439 -619.0562
v 1513.248 57.77439 -622.7241
v 1513.248 37.77439 -622.7241
v 1512.24 57.77439 -622.7241
v 1513.248 57.77439 -622.7241
v 1513.248 37.77439 -622.7241
v 1512.24 37.77439 -622.7241
v 1512.24 57.77439 -619.0562
v 1512.24 57.77439 -622.7241
v 1512.24 37.77439 -622.7241
v 1512.24 37.77439 -619.0562
v 1513.388 57.77439 -619.0562
v 1512.24 57.77439 -619.0562
v 1512.24 37.77439 -619.0562
v 1513.388 37.77439 -619.0562
v 1513.388 57.77439 -617.228
v 1513.388 57.77439 -619.0562
v 1513.388 37.77439 -619.0562
v 1513.388 37.77439 -617.228
v 1506.169 57.77439 -617.228
v 1513.388 57.77439 -617.228
v 1513.388 37.77439 -617.228
v 1506.169 37.77439 -617.228
v 1506.169 57.77439 -619.0562
v 1506.169 57.77439 -617.228
v 1506.169 37.77439 -617.228
v 1506.169 37.77439 -619.0562
v 1507.341 57.77439 -619.0562
v 1506.169 57.77439 -619.0562
v 1506.169 37.77439 -619.0562
v 1507.341 37.77439 -619.0562
v 1507.341 57.77439 -631.7241
v 1507.341 57.77439 -619.0562
v 1507.341 37.77439 -619.0562
v 1507.341 37.77439 -631.7241
v 1506.169 57.77439 -631.7241
v 1507.341 57.77439 -631.7241
v 1507.341 37.77439 -631.7241
v 1506.169 37.77439 -631.7241
v 1506.169 57.77439 -633.5757
v 1506.169 57.77439 -631.7241
v 1506.169 37.77439 -631.7241
v 1506.169 37.77439 -633.5757
vt 0.37121 1
vt 0 1
vt 0 0
vt 0.37121 0
vt 0.408206 1
vt 0.37121 1
vt 0.37121 0
vt 0.408206 0
vt 0.425291 1
vt 0.425291 0
vt 0.441734 1
vt 0.441734 0
vt 0.457685 1
vt 0.457685 0
vt 0.470722 1
vt 0.470722 0
vt 0.483632 1
vt 0.483632 0
vt 0.49652 1
vt 0.49652 0
vt 0.509489 1
vt 0.509489 0
vt 0.525301 1
vt 0.525301 0
vt 0.541547 1
vt 0.541547 0
vt 0.557994 1
vt 0.557994 0
vt 0.574409 1
vt 0.574409 0
vt 0.590948 1
vt 0.590948 0
vt 0.607765 1
vt 0.607765 0
vt 0.625007 1
vt 0.625007 0
vt 0.645838 1
vt 0.645838 0
vt 0.664448 1
vt 0.664448 0
vt 0.68719 1
vt 0.68719 0
vt 0.713249 1
vt 0.713249 0
vt 0.734843 1
vt 0.734843 0
vt 0.752613 1
vt 0.752613 0
vt 0.769849 1
vt 0.769849 0
vt 0.786705 1
vt 0.786705 0
vt 0.803348 1
vt 0.803348 0
vt 0.81718 1
vt 0.81718 0
vt 0.83388 1
vt 0.83388 0
vt 0.850529 1
vt 0.850529 0
vt 0.864246 1
vt 0.864246 0
vt 0.877931 1
vt 0.877931 0
vt 0.89169 1
vt 0.89169 0
vt 0.908447 1
vt 0.908447 0
vt 0.925638 1
vt 0.925638 0
vt 0.943425 1
vt 0.943425 0
vt 0.958808 1
vt 0.958808 0
vt 0.978053 1
vt 0.978053 0
vt 1 1
vt 1 0
vt 0.095 1
vt 0 1
vt 0 0
vt 0.095 0
vt 0.111718 1
vt 0.111718 0
vt 0.125664 1
vt 0.125664 0
vt 0.137295 1
vt 0.137295 0
vt 0.146975 1
vt 0.146975 0
vt 0.154973 1
vt 0.154973 0
vt 0.161473 1
vt 0.161473 0
vt 0.167864 1
vt 0.167864 0
vt 0.175306 1
vt 0.175306 0
vt 0.181273 1
vt 0.181273 0
vt 0.187079 1
vt 0.187079 0
vt 0.192776 1
vt 0.192776 0
vt 0.198421 1
vt 0.198421 0
vt 0.204073 1
vt 0.204073 0
vt 0.209788 1
vt 0.209788 0
vt 0.215623 1
vt 0.215623 0
vt 0.220414 1
vt 0.220414 0
vt 0.226594 1
vt 0.226594 0
vt 0.232969 1
vt 0.232969 0
vt 0.239179 1
vt 0.239179 0
vt 0.244524 1
vt 0.244524 0
vt 0.249831 1
vt 0.249831 0
vt 0.255144 1
vt 0.255144 0
vt 0.259736 1
vt 0.259736 0
vt 0.265174 1
vt 0.265174 0
vt 0.271437 1
vt 0.271437 0
vt 0.277713 1
vt 0.277713 0
vt 0.284061 1
vt 0.284061 0
vt 0.290541 1
vt 0.290541 0
vt 0.298055 1
vt 0.298055 0
vt 0.305876 1
vt 0.305876 0
vt 0.309364 1
vt 0.305876 1
vt 0.305876 0
vt 0.309364 0
vt 0.31218 1
vt 0.31218 0
vt 0.315263 1
vt 0.315263 0
vt 0.319669 1
vt 0.319669 0
vt 0.322954 1
vt 0.322954 0
vt 0.32679 1
vt 0.32679 0
vt 0.375563 1
vt 0.375563 0
vt 0.388656 1
vt 0.375563 1
vt 0.375563 0
vt 0.388656 0
vt 0.412406 1
vt 0.388656 1
vt 0.388656 0
vt 0.412406 0
vt 0.486853 1
vt 0.412406 1
vt 0.412406 0
vt 0.486853 0
vt 0.493627 1
vt 0.486853 1
vt 0.486853 0
vt 0.493627 0
vt 0.500043 1
vt 0.500043 0
vt 0.506044 1
vt 0.506044 0
vt 0.511582 1
vt 0.511582 0
vt 0.563972 1
vt 0.563972 0
vt 0.577065 1
vt 0.563972 1
vt 0.563972 0
vt 0.577065 0
vt 0.624718 1
vt 0.577065 1
vt 0.577065 0
vt 0.624718 0
vt 0.639638 1
vt 0.624718 1
vt 0.624718 0
vt 0.639638 0
vt 0.663388 1
vt 0.639638 1
vt 0.639638 0
vt 0.663388 0
vt 0.75717 1
vt 0.663388 1
vt 0.663388 0
vt 0.75717 0
vt 0.78092 1
vt 0.75717 1
vt 0.75717 0
vt 0.78092 0
vt 0.796145 1
vt 0.78092 1
vt 0.78092 0
vt 0.796145 0
vt 0.960721 1
vt 0.796145 1
vt 0.796145 0
vt 0.960721 0
vt 0.975945 1
vt 0.960721 1
vt 0.960721 0
vt 0.975945 0
vt 1 1
vt 0.975945 1
vt 0.975945 0
vt 1 0
vn 1 0 0
vn 1 0 0
vn 1 0 0
vn 1 0 0
vn -0.02169469 0 -0.9997646
vn 0 0 -1
vn 0 0 -1
vn -0.02169469 0 -0.9997646
vn -0.08932315 0 -0.9960027
vn -0.08932315 0 -0.9960027
vn -0.183869 0 -0.9829507
vn -0.183869 0 -0.9829507
vn -0.2780973 0 -0.960553
vn -0.2780973 0 -0.960553
vn -0.365073 0 -0.930979
vn -0.365073 0 -0.930979
vn -0.4468363 0 -0.8946158
vn -0.4468363 0 -0.8946158
vn -0.5253972 0 -0.850857
vn -0.5253972 0 -0.850857
vn -0.602189 0 -0.7983536
vn -0.602189 0 -0.7983536
vn -0.6778874 0 -0.7351658
vn -0.6778874 0 -0.7351658
vn -0.7470989 0 -0.664713
vn -0.7470989 0 -0.664713
vn -0.8080148 0 -0.5891621
vn -0.8080148 0 -0.5891621
vn -0.8616166 0 -0.5075598
vn -0.8616166 0 -0.5075598
vn -0.9064754 0 -0.4222585
vn -0.9064754 0 -0.4222585
vn -0.9417511 0 -0.3363107
vn -0.9417511 0 -0.3363107
vn -0.968643 0 -0.2484568
vn -0.968643 0 -0.2484568
vn -0.9870019 0 -0.1607085
vn -0.9870019 0 -0.1607085
vn -0.9968988 0 -0.07869565
vn -0.9968988 0 -0.07869565
vn -0.9999914 0 0.004141947
vn -0.9999914 0 0.004141947
vn -0.9953452 0 0.09637401
vn -0.9953452 0 0.09637401
vn -0.9816278 0 0.1908058
vn -0.9816278 0 0.1908058
vn -0.9597515 0 0.2808505
vn -0.9597515 0 0.2808505
vn -0.9288979 0 0.3703361
vn -0.9288979 0 0.3703361
vn -0.8876821 0 0.4604569
vn -0.8876821 0 0.4604569
vn -0.8387407 0 0.544531
vn -0.8387407 0 0.544531
vn -0.7841541 0 0.6205661
vn -0.7841541 0 0.6205661
vn -0.720067 0 0.6939045
vn -0.720067 0 0.6939045
vn -0.6482113 0 0.7614605
vn -0.6482113 0 0.7614605
vn -0.575237 0 0.8179868
vn -0.575237 0 0.8179868
vn -0.5009105 0 0.865499
vn -0.5009105 0 0.865499
vn -0.4196395 0 0.9076909
vn -0.4196395 0 0.9076909
vn -0.3292373 0 0.9442472
vn -0.3292373 0 0.9442472
vn -0.2364806 0 0.9716362
vn -0.2364806 0 0.9716362
vn -0.1513567 0 0.9884792
vn -0.1513567 0 0.9884792
vn -0.07472859 0 0.9972039
vn -0.07472859 0 0.9972039
vn -0.01883547 0 0.9998227
vn -0.01883547 0 0.9998227
vn 0 0 1
vn 0 0 1
vn 0.02239105 0 -0.9997492
vn 0 0 -1
vn 0 0 -1
vn 0.02239105 0 -0.9997492
vn 0.09260543 0 -0.9957029
vn 0.09260543 0 -0.9957029
vn 0.1888176 0 -0.9820122
vn 0.1888176 0 -0.9820122
vn 0.2840354 0 -0.9588138
vn 0.2840354 0 -0.9588138
vn 0.3735431 0 -0.9276128
vn 0.3735431 0 -0.9276128
vn 0.4532311 0 -0.891393
vn 0.4532311 0 -0.891393
vn 0.5236564 0 -0.8519295
vn 0.5236564 0 -0.8519295
vn 0.5932215 0 -0.8050392
vn 0.5932215 0 -0.8050392
vn 0.6653135 0 -0.746564
vn 0.6653135 0 -0.746564
vn 0.7330874 0 -0.6801344
vn 0.7330874 0 -0.6801344
vn 0.7947258 0 -0.6069686
vn 0.7947258 0 -0.6069686
vn 0.8509642 0 -0.5252236
vn 0.8509642 0 -0.5252236
vn 0.8996516 0 -0.4366085
vn 0.8996516 0 -0.4366085
vn 0.9391075 0 -0.3436236
vn 0.9391075 0 -0.3436236
vn 0.9683952 0 -0.2494208
vn 0.9683952 0 -0.2494208
vn 0.9869003 0 -0.1613315
vn 0.9869003 0 -0.1613315
vn 0.9967295 0 -0.08080999
vn 0.9967295 0 -0.08080999
vn 0.9999973 0 0.002358395
vn 0.9999973 0 0.002358395
vn 0.9955492 0 0.09424324
vn 0.9955492 0 0.09424324
vn 0.9820377 0 0.1886851
vn 0.9820377 0 0.1886851
vn 0.9604669 0 0.2783943
vn 0.9604669 0 0.2783943
vn 0.9313645 0 0.3640883
vn 0.9313645 0 0.3640883
vn 0.8962353 0 0.4435787
vn 0.8962353 0 0.4435787
vn 0.856611 0 0.5159628
vn 0.856611 0 0.5159628
vn 0.8086025 0 0.5883554
vn 0.8086025 0 0.5883554
vn 0.7489399 0 0.6626379
vn 0.7489399 0 0.6626379
vn 0.6804084 0 0.7328333
vn 0.6804084 0 0.7328333
vn 0.6070745 0 0.794645
vn 0.6070745 0 0.794645
vn 0.5290384 0 0.8485979
vn 0.5290384 0 0.8485979
vn 0.4464 0 0.8948335
vn 0.4464 0 0.8948335
vn 0.4038798 0 0.9148121
vn 0.4038798 0 0.9148121
vn 0.7001055 0 -0.7140394
vn 0.6713478 0 -0.7411425
vn 0.6713478 0 -0.7411425
vn 0.7001055 0 -0.7140394
vn 0.7510252 0 -0.6602737
vn 0.7510252 0 -0.6602737
vn 0.7985264 0 -0.6019598
vn 0.7985264 0 -0.6019598
vn 0.8406088 0 -0.5416428
vn 0.8406088 0 -0.5416428
vn 0.8694349 0 -0.4940476
vn 0.8694349 0 -0.4940476
vn 0.8803642 0 -0.4742982
vn 0.8803642 0 -0.4742982
vn 0.8802706 0 -0.4744721
vn 0.8802706 0 -0.4744721
vn 0 0 -1
vn 0 0 -1
vn 0 0 -1
vn 0 0 -1
vn 1 0 0
vn 1 0 0
vn 1 0 0
vn 1 0 0
vn 0 0 1
vn 0 0 1
vn 0 0 1
vn 0 0 1
vn -0.9754981 0 0.2200076
vn -0.9804725 0 0.1966564
vn -0.9804725 0 0.1966564
vn -0.9754981 0 0.2200076
vn -0.9626429 0 0.2707739
vn -0.9626429 0 0.2707739
vn -0.9434953 0 0.3313859
vn -0.9434953 0 0.3313859
vn -0.9207881 0 0.390063
vn -0.9207881 0 0.390063
vn -0.9095687 0 0.4155537
vn -0.9095687 0 0.4155537
vn 0 0 1
vn 0 0 1
vn 0 0 1
vn 0 0 1
vn 1 0 0
vn 1 0 0
vn 1 0 0
vn 1 0 0
vn 0 0 -1
vn 0 0 -1
vn 0 0 -1
vn 0 0 -1
vn 1 0 0
vn 1 0 0
vn 1 0 0
vn 1 0 0
vn 0 0 1
vn 0 0 1
vn 0 0 1
vn 0 0 1
vn -1 0 0
vn -1 0 0
vn -1 0 0
vn -1 0 0
vn 0 0 -1
vn 0 0 -1
vn 0 0 -1
vn 0 0 -1
vn -1 0 0
vn -1 0 0
vn -1 0 0
vn -1 0 0
vn 0 0 1
vn 0 0 1
vn 0 0 1
vn 0 0 1
vn -1 0 0
vn -1 0 0
vn -1 0 0
vn -1 0 0
g MoText_Text_TURN_R_0
f 3/3/3 2/2/2 1/1/1
f 4/4/4 3/3/3 1/1/1
f 7/7/7 6/6/6 5/5/5
f 8/8/8 7/7/7 5/5/5
f 8/8/8 5/5/5 9/9/9
f 10/10/10 8/8/8 9/9/9
f 10/10/10 9/9/9 11/11/11
f 12/12/12 10/10/10 11/11/11
f 12/12/12 11/11/11 13/13/13
f 14/14/14 12/12/12 13/13/13
f 14/14/14 13/13/13 15/15/15
f 16/16/16 14/14/14 15/15/15
f 16/16/16 15/15/15 17/17/17
f 18/18/18 16/16/16 17/17/17
f 18/18/18 17/17/17 19/19/19
f 20/20/20 18/18/18 19/19/19
f 20/20/20 19/19/19 21/21/21
f 22/22/22 20/20/20 21/21/21
f 22/22/22 21/21/21 23/23/23
f 24/24/24 22/22/22 23/23/23
f 24/24/24 23/23/23 25/25/25
f 26/26/26 24/24/24 25/25/25
f 26/26/26 25/25/25 27/27/27
f 28/28/28 26/26/26 27/27/27
f 28/28/28 27/27/27 29/29/29
f 30/30/30 28/28/28 29/29/29
f 30/30/30 29/29/29 31/31/31
f 32/32/32 30/30/30 31/31/31
f 32/32/32 31/31/31 33/33/33
f 34/34/34 32/32/32 33/33/33
f 34/34/34 33/33/33 35/35/35
f 36/36/36 34/34/34 35/35/35
f 36/36/36 35/35/35 37/37/37
f 38/38/38 36/36/36 37/37/37
f 38/38/38 37/37/37 39/39/39
f 40/40/40 38/38/38 39/39/39
f 40/40/40 39/39/39 41/41/41
f 42/42/42 40/40/40 41/41/41
f 42/42/42 41/41/41 43/43/43
f 44/44/44 42/42/42 43/43/43
f 44/44/44 43/43/43 45/45/45
f 46/46/46 44/44/44 45/45/45
f 46/46/46 45/45/45 47/47/47
f 48/48/48 46/46/46 47/47/47
f 48/48/48 47/47/47 49/49/49
f 50/50/50 48/48/48 49/49/49
f 50/50/50 49/49/49 51/51/51
f 52/52/52 50/50/50 51/51/51
f 52/52/52 51/51/51 53/53/53
f 54/54/54 52/52/52 53/53/53
f 54/54/54 53/53/53 55/55/55
f 56/56/56 54/54/54 55/55/55
f 56/56/56 55/55/55 57/57/57
f 58/58/58 56/56/56 57/57/57
f 58/58/58 57/57/57 59/59/59
f 60/60/60 58/58/58 59/59/59
f 60/60/60 59/59/59 61/61/61
f 62/62/62 60/60/60 61/61/61
f 62/62/62 61/61/61 63/63/63
f 64/64/64 62/62/62 63/63/63
f 64/64/64 63/63/63 65/65/65
f 66/66/66 64/64/64 65/65/65
f 66/66/66 65/65/65 67/67/67
f 68/68/68 66/66/66 67/67/67
f 68/68/68 67/67/67 69/69/69
f 70/70/70 68/68/68 69/69/69
f 70/70/70 69/69/69 71/71/71
f 72/72/72 70/70/70 71/71/71
f 72/72/72 71/71/71 73/73/73
f 74/74/74 72/72/72 73/73/73
f 74/74/74 73/73/73 75/75/75
f 76/76/76 74/74/74 75/75/75
f 76/76/76 75/75/75 77/77/77
f 78/78/78 76/76/76 77/77/77
f 81/81/81 80/80/80 79/79/79
f 82/82/82 81/81/81 79/79/79
f 82/82/82 79/79/79 83/83/83
f 84/84/84 82/82/82 83/83/83
f 84/84/84 83/83/83 85/85/85
f 86/86/86 84/84/84 85/85/85
f 86/86/86 85/85/85 87/87/87
f 88/88/88 86/86/86 87/87/87
f 88/88/88 87/87/87 89/89/89
f 90/90/90 88/88/88 89/89/89
f 90/90/90 89/89/89 91/91/91
f 92/92/92 90/90/90 91/91/91
f 92/92/92 91/91/91 93/93/93
f 94/94/94 92/92/92 93/93/93
f 94/94/94 93/93/93 95/95/95
f 96/96/96 94/94/94 95/95/95
f 96/96/96 95/95/95 97/97/97
f 98/98/98 96/96/96 97/97/97
f 98/98/98 97/97/97 99/99/99
f 100/100/100 98/98/98 99/99/99
f 100/100/100 99/99/99 101/101/101
f 102/102/102 100/100/100 101/101/101
f 102/102/102 101/101/101 103/103/103
f 104/104/104 102/102/102 103/103/103
f 104/104/104 103/103/103 105/105/105
f 106/106/106 104/104/104 105/105/105
f 106/106/106 105/105/105 107/107/107
f 108/108/108 106/106/106 107/107/107
f 108/108/108 107/107/107 109/109/109
f 110/110/110 108/108/108 109/109/109
f 110/110/110 109/109/109 111/111/111
f 112/112/112 110/110/110 111/111/111
f 112/112/112 111/111/111 113/113/113
f 114/114/114 112/112/112 113/113/113
f 114/114/114 113/113/113 115/115/115
f 116/116/116 114/114/114 115/115/115
f 116/116/116 115/115/115 117/117/117
f 118/118/118 116/116/116 117/117/117
f 118/118/118 117/117/117 119/119/119
f 120/120/120 118/118/118 119/119/119
f 120/120/120 119/119/119 121/121/121
f 122/122/122 120/120/120 121/121/121
f 122/122/122 121/121/121 123/123/123
f 124/124/124 122/122/122 123/123/123
f 124/124/124 123/123/123 125/125/125
f 126/126/126 124/124/124 125/125/125
f 126/126/126 125/125/125 127/127/127
f 128/128/128 126/126/126 127/127/127
f 128/128/128 127/127/127 129/129/129
f 130/130/130 128/128/128 129/129/129
f 130/130/130 129/129/129 131/131/131
f 132/132/132 130/130/130 131/131/131
f 132/132/132 131/131/131 133/133/133
f 134/134/134 132/132/132 133/133/133
f 134/134/134 133/133/133 135/135/135
f 136/136/136 134/134/134 135/135/135
f 136/136/136 135/135/135 137/137/137
f 138/138/138 136/136/136 137/137/137
f 138/138/138 137/137/137 139/139/139
f 140/140/140 138/138/138 139/139/139
f 140/140/140 139/139/139 141/141/141
f 142/142/142 140/140/140 141/141/141
f 145/145/145 144/144/144 143/143/143
f 146/146/146 145/145/145 143/143/143
f 146/146/146 143/143/143 147/147/147
f 148/148/148 146/146/146 147/147/147
f 148/148/148 147/147/147 149/149/149
f 150/150/150 148/148/148 149/149/149
f 150/150/150 149/149/149 151/151/151
f 152/152/152 150/150/150 151/151/151
f 152/152/152 151/151/151 153/153/153
f 154/154/154 152/152/152 153/153/153
f 154/154/154 153/153/153 155/155/155
f 156/156/156 154/154/154 155/155/155
f 156/156/156 155/155/155 157/157/157
f 158/158/158 156/156/156 157/157/157
f 161/161/161 160/160/160 159/159/159
f 162/162/162 161/161/161 159/159/159
f 165/165/165 164/164/164 163/163/163
f 166/166/166 165/165/165 163/163/163
f 169/169/169 168/168/168 167/167/167
f 170/170/170 169/169/169 167/167/167
f 173/173/173 172/172/172 171/171/171
f 174/174/174 173/173/173 171/171/171
f 174/174/174 171/171/171 175/175/175
f 176/176/176 174/174/174 175/175/175
f 176/176/176 175/175/175 177/177/177
f 178/178/178 176/176/176 177/177/177
f 178/178/178 177/177/177 179/179/179
f 180/180/180 178/178/178 179/179/179
f 180/180/180 179/179/179 181/181/181
f 182/182/182 180/180/180 181/181/181
f 185/185/185 184/184/184 183/183/183
f 186/186/186 185/185/185 183/183/183
f 189/189/189 188/188/188 187/187/187
f 190/190/190 189/189/189 187/187/187
f 193/193/193 192/192/192 191/191/191
f 194/194/194 193/193/193 191/191/191
f 197/197/197 196/196/196 195/195/195
f 198/198/198 197/197/197 195/195/195
f 201/201/201 200/200/200 199/199/199
f 202/202/202 201/201/201 199/199/199
f 205/205/205 204/204/204 203/203/203
f 206/206/206 205/205/205 203/203/203
f 209/209/209 208/208/208 207/207/207
f 210/210/210 209/209/209 207/207/207
f 213/213/213 212/212/212 211/211/211
f 214/214/214 213/213/213 211/211/211
f 217/217/217 216/216/216 215/215/215
f 218/218/218 217/217/217 215/215/215
f 221/221/221 220/220/220 219/219/219
f 222/222/222 221/221/221 219/219/219
