g MoText_Text_TURN_N
v 1528.716 57.77439 -633.5757
v 1523.279 57.77439 -633.5757
v 1523.279 37.77439 -633.5757
v 1528.716 37.77439 -633.5757
v 1534.623 57.77439 -624.9858
v 1534.623 37.77439 -624.9858
v 1534.623 57.77439 -631.7241
v 1534.623 57.77439 -624.9858
v 1534.623 37.77439 -624.9858
v 1534.623 37.77439 -631.7241
v 1533.451 57.77439 -631.7241
v 1534.623 57.77439 -631.7241
v 1534.623 37.77439 -631.7241
v 1533.451 37.77439 -631.7241
v 1533.451 57.77439 -633.5757
v 1533.451 57.77439 -631.7241
v 1533.451 37.77439 -631.7241
v 1533.451 37.77439 -633.5757
v 1537.939 57.77439 -633.5757
v 1533.451 57.77439 -633.5757
v 1533.451 37.77439 -633.5757
v 1537.939 37.77439 -633.5757
v 1537.939 57.77439 -631.7241
v 1537.939 57.77439 -633.5757
v 1537.939 37.77439 -633.5757
v 1537.939 37.77439 -631.7241
v 1536.791 57.77439 -631.7241
v 1537.939 57.77439 -631.7241
v 1537.939 37.77439 -631.7241
v 1536.791 37.77439 -631.7241
v 1536.791 57.77439 -617.228
v 1536.791 57.77439 -631.7241
v 1536.791 37.77439 -631.7241
v 1536.791 37.77439 -617.228
v 1533.884 57.77439 -617.228
v 1536.791 57.77439 -617.228
v 1536.791 37.77439 -617.228
v 1533.884 37.77439 -617.228
v 1533.369 57.77439 -618.2476
v 1533.884 57.77439 -617.228
v 1533.884 37.77439 -617.228
v 1533.369 37.77439 -618.2476
v 1533.049 57.77439 -618.7896
v 1533.049 37.77439 -618.7896
v 1532.677 57.77439 -619.3608
v 1532.677 37.77439 -619.3608
v 1526.607 57.77439 -628.2437
v 1526.607 37.77439 -628.2437
v 1526.607 57.77439 -619.0562
v 1526.607 57.77439 -628.2437
v 1526.607 37.77439 -628.2437
v 1526.607 37.77439 -619.0562
v 1528.001 57.77439 -619.0562
v 1526.607 57.77439 -619.0562
v 1526.607 37.77439 -619.0562
v 1528.001 37.77439 -619.0562
v 1528.001 57.77439 -617.228
v 1528.001 57.77439 -619.0562
v 1528.001 37.77439 -619.0562
v 1528.001 37.77439 -617.228
v 1523.279 57.77439 -617.228
v 1528.001 57.77439 -617.228
v 1528.001 37.77439 -617.228
v 1523.279 37.77439 -617.228
v 1523.279 57.77439 -619.0562
v 1523.279 57.77439 -617.228
v 1523.279 37.77439 -617.228
v 1523.279 37.77439 -619.0562
v 1524.451 57.77439 -619.0562
v 1523.279 57.77439 -619.0562
v 1523.279 37.77439 -619.0562
v 1524.451 37.77439 -619.0562
v 1524.451 57.77439 -631.7241
v 1524.451 57.77439 -619.0562
v 1524.451 37.77439 -619.0562
v 1524.451 37.77439 -631.7241
v 1523.279 57.77439 -631.7241
v 1524.451 57.77439 -631.7241
v 1524.451 37.77439 -631.7241
v 1523.279 37.77439 -631.7241
v 1523.279 57.77439 -633.5757
v 1523.279 57.77439 -631.7241
v 1523.279 37.77439 -631.7241
v 1523.279 37.77439 -633.5757
vt 0.05462 1
vt 0 1
vt 0 0
vt 0.05462 0
vt 0.159335 1
vt 0.159335 0
vt 0.227022 1
vt 0.159335 1
vt 0.159335 0
vt 0.227022 0
vt 0.238794 1
vt 0.227022 1
vt 0.227022 0
vt 0.238794 0
vt 0.257393 1
vt 0.238794 1
vt 0.238794 0
vt 0.257393 0
vt 0.302479 1
vt 0.257393 1
vt 0.257393 0
vt 0.302479 0
vt 0.321078 1
vt 0.302479 1
vt 0.302479 0
vt 0.321078 0
vt 0.332614 1
vt 0.321078 1
vt 0.321078 0
vt 0.332614 0
vt 0.478229 1
vt 0.332614 1
vt 0.332614 0
vt 0.478229 0
vt 0.507423 1
vt 0.478229 1
vt 0.478229 0
vt 0.507423 0
vt 0.518899 1
vt 0.507423 1
vt 0.507423 0
vt 0.518899 0
vt 0.525218 1
vt 0.525218 0
vt 0.532067 1
vt 0.532067 0
vt 0.640141 1
vt 0.640141 0
vt 0.732431 1
vt 0.640141 1
vt 0.640141 0
vt 0.732431 0
vt 0.746439 1
vt 0.732431 1
vt 0.732431 0
vt 0.746439 0
vt 0.764803 1
vt 0.746439 1
vt 0.746439 0
vt 0.764803 0
vt 0.812242 1
vt 0.764803 1
vt 0.764803 0
vt 0.812242 0
vt 0.830606 1
vt 0.812242 1
vt 0.812242 0
vt 0.830606 0
vt 0.842378 1
vt 0.830606 1
vt 0.830606 0
vt 0.842378 0
vt 0.969629 1
vt 0.842378 1
vt 0.842378 0
vt 0.969629 0
vt 0.981401 1
vt 0.969629 1
vt 0.969629 0
vt 0.981401 0
vt 1 1
vt 0.981401 1
vt 0.981401 0
vt 1 0
vn 0.465523 0 -0.8850357
vn 0 0 -1
vn 0 0 -1
vn 0.465523 0 -0.8850357
vn 0.8240091 0 -0.5665765
vn 0.8240091 0 -0.5665765
vn -1 0 0
vn -1 0 0
vn -1 0 0
vn -1 0 0
vn 0 0 1
vn 0 0 1
vn 0 0 1
vn 0 0 1
vn -1 0 0
vn -1 0 0
vn -1 0 0
vn -1 0 0
vn 0 0 -1
vn 0 0 -1
vn 0 0 -1
vn 0 0 -1
vn 1 0 0
vn 1 0 0
vn 1 0 0
vn 1 0 0
vn 0 0 1
vn 0 0 1
vn 0 0 1
vn 0 0 1
vn 1 0 0
vn 1 0 0
vn 1 0 0
vn 1 0 0
vn 0 0 1
vn 0 0 1
vn 0 0 1
vn 0 0 1
vn -0.8774226 0 0.4797182
vn -0.8923663 0 0.4513117
vn -0.8923663 0 0.4513117
vn -0.8774226 0 0.4797182
vn -0.8499773 0 0.5268194
vn -0.8499773 0 0.5268194
vn -0.8318414 0 0.5550135
vn -0.8318414 0 0.5550135
vn -0.8256277 0 0.5642153
vn -0.8256277 0 0.5642153
vn 1 0 0
vn 1 0 0
vn 1 0 0
vn 1 0 0
vn 0 0 -1
vn 0 0 -1
vn 0 0 -1
vn 0 0 -1
vn 1 0 0
vn 1 0 0
vn 1 0 0
vn 1 0 0
vn 0 0 1
vn 0 0 1
vn 0 0 1
vn 0 0 1
vn -1 0 0
vn -1 0 0
vn -1 0 0
vn -1 0 0
vn 0 0 -1
vn 0 0 -1
vn 0 0 -1
vn 0 0 -1
vn -1 0 0
vn -1 0 0
vn -1 0 0
vn -1 0 0
vn 0 0 1
vn 0 0 1
vn 0 0 1
vn 0 0 1
vn -1 0 0
vn -1 0 0
vn -1 0 0
vn -1 0 0
g MoText_Text_TURN_N_0
f 3/3/3 2/2/2 1/1/1
f 4/4/4 3/3/3 1/1/1
f 4/4/4 1/1/1 5/5/5
f 6/6/6 4/4/4 5/5/5
f 9/9/9 8/8/8 7/7/7
f 10/10/10 9/9/9 7/7/7
f 13/13/13 12/12/12 11/11/11
f 14/14/14 13/13/13 11/11/11
f 17/17/17 16/16/16 15/15/15
f 18/18/18 17/17/17 15/15/15
f 21/21/21 20/20/20 19/19/19
f 22/22/22 21/21/21 19/19/19
f 25/25/25 24/24/24 23/23/23
f 26/26/26 25/25/25 23/23/23
f 29/29/29 28/28/28 27/27/27
f 30/30/30 29/29/29 27/27/27
f 33/33/33 32/32/32 31/31/31
f 34/34/34 33/33/33 31/31/31
f 37/37/37 36/36/36 35/35/35
f 38/38/38 37/37/37 35/35/35
f 41/41/41 40/40/40 39/39/39
f 42/42/42 41/41/41 39/39/39
f 42/42/42 39/39/39 43/43/43
f 44/44/44 42/42/42 43/43/43
f 44/44/44 43/43/43 45/45/45
f 46/46/46 44/44/44 45/45/45
f 46/46/46 45/45/45 47/47/47
f 48/48/48 46/46/46 47/47/47
f 51/51/51 50/50/50 49/49/49
f 52/52/52 51/51/51 49/49/49
f 55/55/55 54/54/54 53/53/53
f 56/56/56 55/55/55 53/53/53
f 59/59/59 58/58/58 57/57/57
f 60/60/60 59/59/59 57/57/57
f 63/63/63 62/62/62 61/61/61
f 64/64/64 63/63/63 61/61/61
f 67/67/67 66/66/66 65/65/65
f 68/68/68 67/67/67 65/65/65
f 71/71/71 70/70/70 69/69/69
f 72/72/72 71/71/71 69/69/69
f 75/75/75 74/74/74 73/73/73
f 76/76/76 75/75/75 73/73/73
f 79/79/79 78/78/78 77/77/77
f 80/80/80 79/79/79 77/77/77
f 83/83/83 82/82/82 81/81/81
f 84/84/84 83/83/83 81/81/81
