g MoText_Text___TURN_U
v 1493.232 57.77439 -633.5757
v 1487.068 57.77439 -633.5757
v 1487.068 37.77439 -633.5757
v 1493.232 37.77439 -633.5757
v 1493.232 57.77439 -622.0093
v 1493.232 57.77439 -633.5757
v 1493.232 37.77439 -633.5757
v 1493.232 37.77439 -622.0093
v 1493.249 57.77439 -621.611
v 1493.249 37.77439 -621.611
v 1493.294 57.77439 -621.2895
v 1493.294 37.77439 -621.2895
v 1493.355 57.77439 -621.0333
v 1493.355 37.77439 -621.0333
v 1493.424 57.77439 -620.8323
v 1493.424 37.77439 -620.8323
v 1493.508 57.77439 -620.6485
v 1493.508 37.77439 -620.6485
v 1493.59 57.77439 -620.5085
v 1493.59 37.77439 -620.5085
v 1493.664 57.77439 -620.4051
v 1493.664 37.77439 -620.4051
v 1493.765 57.77439 -620.2866
v 1493.765 37.77439 -620.2866
v 1493.877 57.77439 -620.1797
v 1493.877 37.77439 -620.1797
v 1494.001 57.77439 -620.0841
v 1494.001 37.77439 -620.0841
v 1494.135 57.77439 -619.9998
v 1494.135 37.77439 -619.9998
v 1494.281 57.77439 -619.9266
v 1494.281 37.77439 -619.9266
v 1494.47 57.77439 -619.8538
v 1494.47 37.77439 -619.8538
v 1494.676 57.77439 -619.7971
v 1494.676 37.77439 -619.7971
v 1494.936 57.77439 -619.7513
v 1494.936 37.77439 -619.7513
v 1495.135 57.77439 -619.7322
v 1495.135 37.77439 -619.7322
v 1495.388 57.77439 -619.7241
v 1495.388 37.77439 -619.7241
v 1495.658 57.77439 -619.7368
v 1495.658 37.77439 -619.7368
v 1495.875 57.77439 -619.7677
v 1495.875 37.77439 -619.7677
v 1496.078 57.77439 -619.8172
v 1496.078 37.77439 -619.8172
v 1496.238 57.77439 -619.8726
v 1496.238 37.77439 -619.8726
v 1496.388 57.77439 -619.941
v 1496.388 37.77439 -619.941
v 1496.529 57.77439 -620.0222
v 1496.529 37.77439 -620.0222
v 1496.661 57.77439 -620.1163
v 1496.661 37.77439 -620.1163
v 1496.783 57.77439 -620.2233
v 1496.783 37.77439 -620.2233
v 1496.852 57.77439 -620.2936
v 1496.852 37.77439 -620.2936
v 1496.917 57.77439 -620.3687
v 1496.917 37.77439 -620.3687
v 1497.019 57.77439 -620.5032
v 1497.019 37.77439 -620.5032
v 1497.109 57.77439 -620.649
v 1497.109 37.77439 -620.649
v 1497.204 57.77439 -620.8387
v 1497.204 37.77439 -620.8387
v 1497.284 57.77439 -621.0447
v 1497.284 37.77439 -621.0447
v 1497.357 57.77439 -621.3055
v 1497.357 37.77439 -621.3055
v 1497.415 57.77439 -621.6306
v 1497.415 37.77439 -621.6306
v 1497.44 57.77439 -621.8933
v 1497.44 37.77439 -621.8933
v 1497.451 57.77439 -622.2202
v 1497.451 37.77439 -622.2202
v 1497.451 57.77439 -631.7241
v 1497.451 37.77439 -631.7241
v 1496.279 57.77439 -631.7241
v 1497.451 57.77439 -631.7241
v 1497.451 37.77439 -631.7241
v 1496.279 37.77439 -631.7241
v 1496.279 57.77439 -633.5757
v 1496.279 57.77439 -631.7241
v 1496.279 37.77439 -631.7241
v 1496.279 37.77439 -633.5757
v 1502.443 57.77439 -633.5757
v 1496.279 57.77439 -633.5757
v 1496.279 37.77439 -633.5757
v 1502.443 37.77439 -633.5757
v 1502.443 57.77439 -619.0562
v 1502.443 57.77439 -633.5757
v 1502.443 37.77439 -633.5757
v 1502.443 37.77439 -619.0562
v 1503.626 57.77439 -619.0562
v 1502.443 57.77439 -619.0562
v 1502.443 37.77439 -619.0562
v 1503.626 37.77439 -619.0562
v 1503.626 57.77439 -617.228
v 1503.626 57.77439 -619.0562
v 1503.626 37.77439 -619.0562
v 1503.626 37.77439 -617.228
v 1497.697 57.77439 -617.228
v 1503.626 57.77439 -617.228
v 1503.626 37.77439 -617.228
v 1497.697 37.77439 -617.228
v 1497.474 57.77439 -618.8101
v 1497.697 57.77439 -617.228
v 1497.697 37.77439 -617.228
v 1497.474 37.77439 -618.8101
v 1496.906 57.77439 -618.3096
v 1497.474 57.77439 -618.8101
v 1497.474 37.77439 -618.8101
v 1496.906 37.77439 -618.3096
v 1496.361 57.77439 -617.9124
v 1496.361 37.77439 -617.9124
v 1495.886 57.77439 -617.627
v 1495.886 37.77439 -617.627
v 1495.353 57.77439 -617.3687
v 1495.353 37.77439 -617.3687
v 1494.85 57.77439 -617.1805
v 1494.85 37.77439 -617.1805
v 1494.331 57.77439 -617.0389
v 1494.331 37.77439 -617.0389
v 1493.797 57.77439 -616.9437
v 1493.797 37.77439 -616.9437
v 1493.398 57.77439 -616.9037
v 1493.398 37.77439 -616.9037
v 1492.939 57.77439 -616.8882
v 1492.939 37.77439 -616.8882
v 1492.332 57.77439 -616.9147
v 1492.332 37.77439 -616.9147
v 1491.765 57.77439 -616.9943
v 1491.765 37.77439 -616.9943
v 1491.31 57.77439 -617.1047
v 1491.31 37.77439 -617.1047
v 1490.884 57.77439 -617.2542
v 1490.884 37.77439 -617.2542
v 1490.551 57.77439 -617.4085
v 1490.551 37.77439 -617.4085
v 1490.238 57.77439 -617.5898
v 1490.238 37.77439 -617.5898
v 1489.946 57.77439 -617.7983
v 1489.946 37.77439 -617.7983
v 1489.726 57.77439 -617.9846
v 1489.726 37.77439 -617.9846
v 1489.47 57.77439 -618.2417
v 1489.47 37.77439 -618.2417
v 1489.236 57.77439 -618.5239
v 1489.236 37.77439 -618.5239
v 1489.027 57.77439 -618.8293
v 1489.027 37.77439 -618.8293
v 1488.809 57.77439 -619.2261
v 1488.809 37.77439 -619.2261
v 1488.626 57.77439 -619.6563
v 1488.626 37.77439 -619.6563
v 1488.478 57.77439 -620.1196
v 1488.478 37.77439 -620.1196
v 1488.351 57.77439 -620.7022
v 1488.351 37.77439 -620.7022
v 1488.271 57.77439 -621.3301
v 1488.271 37.77439 -621.3301
v 1488.24 57.77439 -622.103
v 1488.24 37.77439 -622.103
v 1488.24 57.77439 -631.7241
v 1488.24 37.77439 -631.7241
v 1487.068 57.77439 -631.7241
v 1488.24 57.77439 -631.7241
v 1488.24 37.77439 -631.7241
v 1487.068 37.77439 -631.7241
v 1487.068 57.77439 -633.5757
v 1487.068 57.77439 -631.7241
v 1487.068 37.77439 -631.7241
v 1487.068 37.77439 -633.5757
vt 0.065255 1
vt 0 1
vt 0 0
vt 0.065255 0
vt 0.187702 1
vt 0.065255 1
vt 0.065255 0
vt 0.187702 0
vt 0.191923 1
vt 0.191923 0
vt 0.195359 1
vt 0.195359 0
vt 0.198148 1
vt 0.198148 0
vt 0.200398 1
vt 0.200398 0
vt 0.202539 1
vt 0.202539 0
vt 0.204257 1
vt 0.204257 0
vt 0.205599 1
vt 0.205599 0
vt 0.207249 1
vt 0.207249 0
vt 0.20889 1
vt 0.20889 0
vt 0.210542 1
vt 0.210542 0
vt 0.212223 1
vt 0.212223 0
vt 0.213948 1
vt 0.213948 0
vt 0.216096 1
vt 0.216096 0
vt 0.218353 1
vt 0.218353 0
vt 0.221147 1
vt 0.221147 0
vt 0.223264 1
vt 0.223264 0
vt 0.225949 1
vt 0.225949 0
vt 0.228809 1
vt 0.228809 0
vt 0.231128 1
vt 0.231128 0
vt 0.233345 1
vt 0.233345 0
vt 0.235132 1
vt 0.235132 0
vt 0.236878 1
vt 0.236878 0
vt 0.2386 1
vt 0.2386 0
vt 0.240313 1
vt 0.240313 0
vt 0.242033 1
vt 0.242033 0
vt 0.243077 1
vt 0.243077 0
vt 0.244132 1
vt 0.244132 0
vt 0.245915 1
vt 0.245915 0
vt 0.247732 1
vt 0.247732 0
vt 0.249978 1
vt 0.249978 0
vt 0.252315 1
vt 0.252315 0
vt 0.255182 1
vt 0.255182 0
vt 0.258678 1
vt 0.258678 0
vt 0.261472 1
vt 0.261472 0
vt 0.264935 1
vt 0.264935 0
vt 0.365547 1
vt 0.365547 0
vt 0.377953 1
vt 0.365547 1
vt 0.365547 0
vt 0.377953 0
vt 0.397554 1
vt 0.377953 1
vt 0.377953 0
vt 0.397554 0
vt 0.46281 1
vt 0.397554 1
vt 0.397554 0
vt 0.46281 0
vt 0.61652 1
vt 0.46281 1
vt 0.46281 0
vt 0.61652 0
vt 0.62905 1
vt 0.61652 1
vt 0.61652 0
vt 0.62905 0
vt 0.648403 1
vt 0.62905 1
vt 0.62905 0
vt 0.648403 0
vt 0.711177 1
vt 0.648403 1
vt 0.648403 0
vt 0.711177 0
vt 0.72809 1
vt 0.711177 1
vt 0.711177 0
vt 0.72809 0
vt 0.736104 1
vt 0.72809 1
vt 0.72809 0
vt 0.736104 0
vt 0.743248 1
vt 0.743248 0
vt 0.749115 1
vt 0.749115 0
vt 0.755381 1
vt 0.755381 0
vt 0.761066 1
vt 0.761066 0
vt 0.76676 1
vt 0.76676 0
vt 0.772509 1
vt 0.772509 0
vt 0.776753 1
vt 0.776753 0
vt 0.781612 1
vt 0.781612 0
vt 0.788044 1
vt 0.788044 0
vt 0.79411 1
vt 0.79411 0
vt 0.799066 1
vt 0.799066 0
vt 0.803845 1
vt 0.803845 0
vt 0.807728 1
vt 0.807728 0
vt 0.811554 1
vt 0.811554 0
vt 0.815356 1
vt 0.815356 0
vt 0.818403 1
vt 0.818403 0
vt 0.822245 1
vt 0.822245 0
vt 0.826125 1
vt 0.826125 0
vt 0.830044 1
vt 0.830044 0
vt 0.83484 1
vt 0.83484 0
vt 0.839789 1
vt 0.839789 0
vt 0.844937 1
vt 0.844937 0
vt 0.851251 1
vt 0.851251 0
vt 0.85795 1
vt 0.85795 0
vt 0.86614 1
vt 0.86614 0
vt 0.967993 1
vt 0.967993 0
vt 0.980399 1
vt 0.967993 1
vt 0.967993 0
vt 0.980399 0
vt 1 1
vt 0.980399 1
vt 0.980399 0
vt 1 0
vn 0 0 -1
vn 0 0 -1
vn 0 0 -1
vn 0 0 -1
vn 0.9997635 0 -0.02174701
vn 1 0 0
vn 1 0 0
vn 0.9997635 0 -0.02174701
vn 0.9959325 0 -0.09010163
vn 0.9959325 0 -0.09010163
vn 0.9827793 0 -0.1847832
vn 0.9827793 0 -0.1847832
vn 0.960242 0 -0.2791687
vn 0.960242 0 -0.2791687
vn 0.928302 0 -0.371827
vn 0.928302 0 -0.371827
vn 0.8868061 0 -0.4621418
vn 0.8868061 0 -0.4621418
vn 0.8397711 0 -0.5429406
vn 0.8397711 0 -0.5429406
vn 0.7885101 0 -0.6150216
vn 0.7885101 0 -0.6150216
vn 0.7258328 0 -0.6878712
vn 0.7258328 0 -0.6878712
vn 0.6519828 0 -0.7582338
vn 0.6519828 0 -0.7582338
vn 0.5728019 0 -0.8196938
vn 0.5728019 0 -0.8196938
vn 0.4906736 0 -0.8713434
vn 0.4906736 0 -0.8713434
vn 0.4045055 0 -0.9145356
vn 0.4045055 0 -0.9145356
vn 0.3129089 0 -0.9497831
vn 0.3129089 0 -0.9497831
vn 0.2198561 0 -0.9755323
vn 0.2198561 0 -0.9755323
vn 0.1344722 0 -0.9909174
vn 0.1344722 0 -0.9909174
vn 0.06381923 0 -0.9979615
vn 0.06381923 0 -0.9979615
vn -0.007385358 0 -0.9999727
vn -0.007385358 0 -0.9999727
vn -0.09413843 0 -0.9955591
vn -0.09413843 0 -0.9955591
vn -0.1890532 0 -0.9819669
vn -0.1890532 0 -0.9819669
vn -0.2826809 0 -0.959214
vn -0.2826809 0 -0.959214
vn -0.3717554 0 -0.9283307
vn -0.3717554 0 -0.9283307
vn -0.4571799 0 -0.8893743
vn -0.4571799 0 -0.8893743
vn -0.5410066 0 -0.8410184
vn -0.5410066 0 -0.8410184
vn -0.6206167 0 -0.7841141
vn -0.6206167 0 -0.7841141
vn -0.6866227 0 -0.727014
vn -0.6866227 0 -0.727014
vn -0.7338936 0 -0.6792645
vn -0.7338936 0 -0.6792645
vn -0.7763997 0 -0.6302408
vn -0.7763997 0 -0.6302408
vn -0.8247755 0 -0.5654603
vn -0.8247755 0 -0.5654603
vn -0.8728772 0 -0.4879397
vn -0.8728772 0 -0.4879397
vn -0.9149803 0 -0.4034984
vn -0.9149803 0 -0.4034984
vn -0.9490753 0 -0.3150494
vn -0.9490753 0 -0.3150494
vn -0.9748096 0 -0.2230387
vn -0.9748096 0 -0.2230387
vn -0.9906446 0 -0.1364676
vn -0.9906446 0 -0.1364676
vn -0.9979205 0 -0.06445783
vn -0.9979205 0 -0.06445783
vn -0.9998741 0 -0.01586406
vn -0.9998741 0 -0.01586406
vn -1 0 0
vn -1 0 0
vn 0 0 1
vn 0 0 1
vn 0 0 1
vn 0 0 1
vn -1 0 0
vn -1 0 0
vn -1 0 0
vn -1 0 0
vn 0 0 -1
vn 0 0 -1
vn 0 0 -1
vn 0 0 -1
vn 1 0 0
vn 1 0 0
vn 1 0 0
vn 1 0 0
vn 0 0 -1
vn 0 0 -1
vn 0 0 -1
vn 0 0 -1
vn 1 0 0
vn 1 0 0
vn 1 0 0
vn 1 0 0
vn 0 0 1
vn 0 0 1
vn 0 0 1
vn 0 0 1
vn -0.9902408 0 0.1393672
vn -0.9902408 0 0.1393672
vn -0.9902408 0 0.1393672
vn -0.9902408 0 0.1393672
vn 0.6256326 0 0.7801179
vn 0.6611494 0 0.7502542
vn 0.6611494 0 0.7502542
vn 0.6256326 0 0.7801179
vn 0.5523534 0 0.8336101
vn 0.5523534 0 0.8336101
vn 0.4760875 0 0.879398
vn 0.4760875 0 0.879398
vn 0.3938309 0 0.919183
vn 0.3938309 0 0.919183
vn 0.3071896 0 0.9516484
vn 0.3071896 0 0.9516484
vn 0.219486 0 0.9756157
vn 0.219486 0 0.9756157
vn 0.1375798 0 0.9904907
vn 0.1375798 0 0.9904907
vn 0.06685843 0 0.9977624
vn 0.06685843 0 0.9977624
vn -0.004905729 0 0.999988
vn -0.004905729 0 0.999988
vn -0.09141377 0 0.995813
vn -0.09141377 0 0.995813
vn -0.1876074 0 0.9822441
vn -0.1876074 0 0.9822441
vn -0.2838079 0 0.9588812
vn -0.2838079 0 0.9588812
vn -0.3763072 0 0.9264949
vn -0.3763072 0 0.9264949
vn -0.4617626 0 0.8870035
vn -0.4617626 0 0.8870035
vn -0.5417147 0 0.8405625
vn -0.5417147 0 0.8405625
vn -0.6142672 0 0.7890981
vn -0.6142672 0 0.7890981
vn -0.6783145 0 0.7347717
vn -0.6783145 0 0.7347717
vn -0.7400284 0 0.6725757
vn -0.7400284 0 0.6725757
vn -0.7984388 0 0.6020759
vn -0.7984388 0 0.6020759
vn -0.8514816 0 0.5243843
vn -0.8514816 0 0.5243843
vn -0.8991877 0 0.4375632
vn -0.8991877 0 0.4375632
vn -0.9375058 0 0.3479695
vn -0.9375058 0 0.3479695
vn -0.9658822 0 0.2589816
vn -0.9658822 0 0.2589816
vn -0.9855106 0 0.1696141
vn -0.9855106 0 0.1696141
vn -0.9965411 0 0.08310202
vn -0.9965411 0 0.08310202
vn -0.9997911 0 0.02043886
vn -0.9997911 0 0.02043886
vn -1 0 0
vn -1 0 0
vn 0 0 1
vn 0 0 1
vn 0 0 1
vn 0 0 1
vn -1 0 0
vn -1 0 0
vn -1 0 0
vn -1 0 0
g MoText_Text___TURN_U_0
f 3/3/3 2/2/2 1/1/1
f 4/4/4 3/3/3 1/1/1
f 7/7/7 6/6/6 5/5/5
f 8/8/8 7/7/7 5/5/5
f 8/8/8 5/5/5 9/9/9
f 10/10/10 8/8/8 9/9/9
f 10/10/10 9/9/9 11/11/11
f 12/12/12 10/10/10 11/11/11
f 12/12/12 11/11/11 13/13/13
f 14/14/14 12/12/12 13/13/13
f 14/14/14 13/13/13 15/15/15
f 16/16/16 14/14/14 15/15/15
f 16/16/16 15/15/15 17/17/17
f 18/18/18 16/16/16 17/17/17
f 18/18/18 17/17/17 19/19/19
f 20/20/20 18/18/18 19/19/19
f 20/20/20 19/19/19 21/21/21
f 22/22/22 20/20/20 21/21/21
f 22/22/22 21/21/21 23/23/23
f 24/24/24 22/22/22 23/23/23
f 24/24/24 23/23/23 25/25/25
f 26/26/26 24/24/24 25/25/25
f 26/26/26 25/25/25 27/27/27
f 28/28/28 26/26/26 27/27/27
f 28/28/28 27/27/27 29/29/29
f 30/30/30 28/28/28 29/29/29
f 30/30/30 29/29/29 31/31/31
f 32/32/32 30/30/30 31/31/31
f 32/32/32 31/31/31 33/33/33
f 34/34/34 32/32/32 33/33/33
f 34/34/34 33/33/33 35/35/35
f 36/36/36 34/34/34 35/35/35
f 36/36/36 35/35/35 37/37/37
f 38/38/38 36/36/36 37/37/37
f 38/38/38 37/37/37 39/39/39
f 40/40/40 38/38/38 39/39/39
f 40/40/40 39/39/39 41/41/41
f 42/42/42 40/40/40 41/41/41
f 42/42/42 41/41/41 43/43/43
f 44/44/44 42/42/42 43/43/43
f 44/44/44 43/43/43 45/45/45
f 46/46/46 44/44/44 45/45/45
f 46/46/46 45/45/45 47/47/47
f 48/48/48 46/46/46 47/47/47
f 48/48/48 47/47/47 49/49/49
f 50/50/50 48/48/48 49/49/49
f 50/50/50 49/49/49 51/51/51
f 52/52/52 50/50/50 51/51/51
f 52/52/52 51/51/51 53/53/53
f 54/54/54 52/52/52 53/53/53
f 54/54/54 53/53/53 55/55/55
f 56/56/56 54/54/54 55/55/55
f 56/56/56 55/55/55 57/57/57
f 58/58/58 56/56/56 57/57/57
f 58/58/58 57/57/57 59/59/59
f 60/60/60 58/58/58 59/59/59
f 60/60/60 59/59/59 61/61/61
f 62/62/62 60/60/60 61/61/61
f 62/62/62 61/61/61 63/63/63
f 64/64/64 62/62/62 63/63/63
f 64/64/64 63/63/63 65/65/65
f 66/66/66 64/64/64 65/65/65
f 66/66/66 65/65/65 67/67/67
f 68/68/68 66/66/66 67/67/67
f 68/68/68 67/67/67 69/69/69
f 70/70/70 68/68/68 69/69/69
f 70/70/70 69/69/69 71/71/71
f 72/72/72 70/70/70 71/71/71
f 72/72/72 71/71/71 73/73/73
f 74/74/74 72/72/72 73/73/73
f 74/74/74 73/73/73 75/75/75
f 76/76/76 74/74/74 75/75/75
f 76/76/76 75/75/75 77/77/77
f 78/78/78 76/76/76 77/77/77
f 78/78/78 77/77/77 79/79/79
f 80/80/80 78/78/78 79/79/79
f 83/83/83 82/82/82 81/81/81
f 84/84/84 83/83/83 81/81/81
f 87/87/87 86/86/86 85/85/85
f 88/88/88 87/87/87 85/85/85
f 91/91/91 90/90/90 89/89/89
f 92/92/92 91/91/91 89/89/89
f 95/95/95 94/94/94 93/93/93
f 96/96/96 95/95/95 93/93/93
f 99/99/99 98/98/98 97/97/97
f 100/100/100 99/99/99 97/97/97
f 103/103/103 102/102/102 101/101/101
f 104/104/104 103/103/103 101/101/101
f 107/107/107 106/106/106 105/105/105
f 108/108/108 107/107/107 105/105/105
f 111/111/111 110/110/110 109/109/109
f 112/112/112 111/111/111 109/109/109
f 115/115/115 114/114/114 113/113/113
f 116/116/116 115/115/115 113/113/113
f 116/116/116 113/113/113 117/117/117
f 118/118/118 116/116/116 117/117/117
f 118/118/118 117/117/117 119/119/119
f 120/120/120 118/118/118 119/119/119
f 120/120/120 119/119/119 121/121/121
f 122/122/122 120/120/120 121/121/121
f 122/122/122 121/121/121 123/123/123
f 124/124/124 122/122/122 123/123/123
f 124/124/124 123/123/123 125/125/125
f 126/126/126 124/124/124 125/125/125
f 126/126/126 125/125/125 127/127/127
f 128/128/128 126/126/126 127/127/127
f 128/128/128 127/127/127 129/129/129
f 130/130/130 128/128/128 129/129/129
f 130/130/130 129/129/129 131/131/131
f 132/132/132 130/130/130 131/131/131
f 132/132/132 131/131/131 133/133/133
f 134/134/134 132/132/132 133/133/133
f 134/134/134 133/133/133 135/135/135
f 136/136/136 134/134/134 135/135/135
f 136/136/136 135/135/135 137/137/137
f 138/138/138 136/136/136 137/137/137
f 138/138/138 137/137/137 139/139/139
f 140/140/140 138/138/138 139/139/139
f 140/140/140 139/139/139 141/141/141
f 142/142/142 140/140/140 141/141/141
f 142/142/142 141/141/141 143/143/143
f 144/144/144 142/142/142 143/143/143
f 144/144/144 143/143/143 145/145/145
f 146/146/146 144/144/144 145/145/145
f 146/146/146 145/145/145 147/147/147
f 148/148/148 146/146/146 147/147/147
f 148/148/148 147/147/147 149/149/149
f 150/150/150 148/148/148 149/149/149
f 150/150/150 149/149/149 151/151/151
f 152/152/152 150/150/150 151/151/151
f 152/152/152 151/151/151 153/153/153
f 154/154/154 152/152/152 153/153/153
f 154/154/154 153/153/153 155/155/155
f 156/156/156 154/154/154 155/155/155
f 156/156/156 155/155/155 157/157/157
f 158/158/158 156/156/156 157/157/157
f 158/158/158 157/157/157 159/159/159
f 160/160/160 158/158/158 159/159/159
f 160/160/160 159/159/159 161/161/161
f 162/162/162 160/160/160 161/161/161
f 162/162/162 161/161/161 163/163/163
f 164/164/164 162/162/162 163/163/163
f 164/164/164 163/163/163 165/165/165
f 166/166/166 164/164/164 165/165/165
f 166/166/166 165/165/165 167/167/167
f 168/168/168 166/166/166 167/167/167
f 171/171/171 170/170/170 169/169/169
f 172/172/172 171/171/171 169/169/169
f 175/175/175 174/174/174 173/173/173
f 176/176/176 175/175/175 173/173/173
