g MoText_Text___END_E_Cap_13
v 1416.146 57.77439 -631.7241
v 1416.146 57.77439 -633.5757
v 1428.216 57.77439 -633.5757
v 1417.318 57.77439 -631.7241
v 1424.159 57.77439 -631.5373
v 1424.841 57.77439 -631.4739
v 1425.351 57.77439 -631.3843
v 1425.648 57.77439 -631.306
v 1425.888 57.77439 -631.2219
v 1426.104 57.77439 -631.1249
v 1428.216 57.77439 -630.1655
v 1423.318 57.77439 -631.5601
v 1422.31 57.77439 -631.5601
v 1426.276 57.77439 -631.0279
v 1426.41 57.77439 -630.9346
v 1426.529 57.77439 -630.8335
v 1426.552 57.77439 -630.1655
v 1417.318 57.77439 -619.0562
v 1422.31 57.77439 -627.9858
v 1422.31 57.77439 -625.8179
v 1426.552 57.77439 -627.9858
v 1422.31 57.77439 -619.2905
v 1423.318 57.77439 -619.2905
v 1428.216 57.77439 -617.228
v 1423.985 57.77439 -619.3198
v 1424.52 57.77439 -619.3934
v 1424.874 57.77439 -619.4733
v 1425.205 57.77439 -619.5762
v 1425.543 57.77439 -619.7157
v 1425.831 57.77439 -619.8665
v 1426.098 57.77439 -620.0401
v 1426.322 57.77439 -620.2159
v 1426.552 57.77439 -620.4329
v 1428.216 57.77439 -621.4937
v 1426.552 57.77439 -621.4937
v 1426.552 57.77439 -625.8179
v 1428.216 57.77439 -624.7866
v 1428.216 57.77439 -629.1812
v 1426.552 57.77439 -629.1812
v 1426.552 57.77439 -624.7866
v 1416.146 57.77439 -617.228
v 1416.146 57.77439 -619.0562
vt 0 0
vt 0 0
vt 0 0
vt 0 0
vt 0 0
vt 0 0
vt 0 0
vt 0 0
vt 0 0
vt 0 0
vt 0 0
vt 0 0
vt 0 0
vt 0 0
vt 0 0
vt 0 0
vt 0 0
vt 0 0
vt 0 0
vt 0 0
vt 0 0
vt 0 0
vt 0 0
vt 0 0
vt 0 0
vt 0 0
vt 0 0
vt 0 0
vt 0 0
vt 0 0
vt 0 0
vt 0 0
vt 0 0
vt 0 0
vt 0 0
vt 0 0
vt 0 0
vt 0 0
vt 0 0
vt 0 0
vt 0 0
vt 0 0
vn 0 1 0
vn 0 1 0
vn 0 1 0
vn 0 1 0
vn 0 1 0
vn 0 1 0
vn 0 1 0
vn 0 1 0
vn 0 1 0
vn 0 1 0
vn 0 1 0
vn 0 1 0
vn 0 1 0
vn 0 1 0
vn 0 1 0
vn 0 1 0
vn 0 1 0
vn 0 1 0
vn 0 1 0
vn 0 1 0
vn 0 1 0
vn 0 1 0
vn 0 1 0
vn 0 1 0
vn 0 1 0
vn 0 1 0
vn 0 1 0
vn 0 1 0
vn 0 1 0
vn 0 1 0
vn 0 1 0
vn 0 1 0
vn 0 1 0
vn 0 1 0
vn 0 1 0
vn 0 1 0
vn 0 1 0
vn 0 1 0
vn 0 1 0
vn 0 1 0
vn 0 1 0
vn 0 1 0
g MoText_Text___END_E_Cap_13_0
f 3/3/3 2/2/2 1/1/1
f 1/1/1 4/4/4 3/3/3
f 4/4/4 5/5/5 3/3/3
f 5/5/5 6/6/6 3/3/3
f 6/6/6 7/7/7 3/3/3
f 7/7/7 8/8/8 3/3/3
f 8/8/8 9/9/9 3/3/3
f 9/9/9 10/10/10 3/3/3
f 10/10/10 11/11/11 3/3/3
f 4/4/4 12/12/12 5/5/5
f 4/4/4 13/13/13 12/12/12
f 10/10/10 14/14/14 11/11/11
f 14/14/14 15/15/15 11/11/11
f 15/15/15 16/16/16 11/11/11
f 16/16/16 17/17/17 11/11/11
f 13/13/13 4/4/4 18/18/18
f 18/18/18 19/19/19 13/13/13
f 18/18/18 20/20/20 19/19/19
f 20/20/20 21/21/21 19/19/19
f 18/18/18 22/22/22 20/20/20
f 18/18/18 23/23/23 22/22/22
f 23/23/23 18/18/18 24/24/24
f 25/25/25 23/23/23 24/24/24
f 26/26/26 25/25/25 24/24/24
f 27/27/27 26/26/26 24/24/24
f 28/28/28 27/27/27 24/24/24
f 29/29/29 28/28/28 24/24/24
f 30/30/30 29/29/29 24/24/24
f 31/31/31 30/30/30 24/24/24
f 32/32/32 31/31/31 24/24/24
f 33/33/33 32/32/32 24/24/24
f 33/33/33 24/24/24 34/34/34
f 34/34/34 35/35/35 33/33/33
f 21/21/21 20/20/20 36/36/36
f 21/21/21 36/36/36 37/37/37
f 21/21/21 37/37/37 38/38/38
f 38/38/38 39/39/39 21/21/21
f 36/36/36 40/40/40 37/37/37
f 18/18/18 42/42/42 41/41/41
f 18/18/18 41/41/41 24/24/24
