g Mushroom2_stem
v 475.5819 133.8154 -1060.928
v 465.0322 123.6103 -1040.647
v 472.839 124.6908 -1038.03
v 466.1508 131.6697 -1062.608
v 456.2866 134.3839 -1061.623
v 456.3624 125.5741 -1039.764
v 450.6055 140.6878 -1058.434
v 450.8864 129.6634 -1035.795
v 451.7652 147.6317 -1054.533
v 450.4704 133.023 -1031.315
v 484.1134 139.2257 -1057.49
v 478.721 127.8361 -1033.064
v 448.594 125.4336 -1027.744
v 464.8555 119.5554 -1033.851
v 473.4407 120.36 -1030.296
v 479.2584 123.0838 -1023.666
v 455.0425 121.5592 -1032.843
v 448.594 125.4336 -1027.744
v 464.1129 116.9854 -1022.596
v 470.5845 117.1904 -1019.208
v 463.1325 114.5887 -1020.26
v 456.4246 118.3327 -1021.797
v 448.594 125.4336 -1027.744
v 455.3363 115.6717 -1019.205
v 451.1173 120.6015 -1017.185
v 447.3774 127.8109 -1022.127
v 448.594 125.4336 -1027.744
v 449.8447 117.4901 -1014.154
v 449.406 121.0148 -1012.23
v 469.5853 114.7477 -1016.828
v 474.2886 118.4741 -1012.986
v 472.8562 115.7726 -1010.327
v 461.2011 109.8664 -1015.66
v 453.1921 110.4291 -1014.097
v 447.3373 111.3597 -1008.182
v 445.1652 118.9391 -1009.259
v 441.5375 110.3659 -1002.722
v 467.6168 109.9346 -1012.139
v 470.034 110.4498 -1005.088
v 459.2275 105.0413 -1010.959
v 451.0011 105.0723 -1008.879
v 444.7753 105.096 -1002.08
v 436.6599 104.8356 -996.8732
v 465.6053 105.017 -1007.348
v 447.3774 127.8109 -1022.127
v 448.594 125.4336 -1027.744
v 441.5375 110.3659 -1002.722
v 450.7585 112.6143 -995.1076
v 436.6599 104.8356 -996.8732
v 453.7726 119.9833 -1002.286
v 445.1652 118.9391 -1009.259
v 455.3023 123.7235 -1005.93
v 461.3542 119.4916 -1001.022
v 462.8366 123.1158 -1004.552
v 468.4246 117.9479 -1004.271
v 469.7514 121.1917 -1007.431
v 472.8562 115.7726 -1010.327
v 474.2886 118.4741 -1012.986
v 458.4337 112.3513 -994.0658
v 465.8106 111.5566 -998.0447
v 470.034 110.4498 -1005.088
v 470.034 110.4498 -1005.088
v 447.6789 105.085 -987.7723
v 455.4497 105.0555 -986.9581
v 463.1396 105.0264 -991.6826
v 467.1503 105.0112 -999.7354
v 470.034 110.4498 -1005.088
v 464.6617 130.8781 -1014.259
v 454.8723 131.5161 -1015.614
v 457.0713 136.4653 -1026.6
v 447.3774 127.8109 -1022.127
v 450.4704 133.023 -1031.315
v 459.2234 151.9668 -1051.746
v 451.7652 147.6317 -1054.533
v 465.8383 135.9954 -1025.677
v 469.4902 151.6644 -1051.376
v 473.3651 132.7746 -1028.259
v 477.7616 146.866 -1053.597
v 478.721 127.8361 -1033.064
v 484.1134 139.2257 -1057.49
v 473.3143 127.7502 -1017.508
v 479.2584 123.0838 -1023.666
v 449.406 121.0148 -1012.23
v 449.406 121.0148 -1012.23
v 445.1652 118.9391 -1009.259
v 445.1652 118.9391 -1009.259
v 449.8447 117.4901 -1014.154
v 449.406 121.0148 -1012.23
v 470.034 110.4498 -1005.088
v 465.6053 105.017 -1007.348
v 467.1503 105.0112 -999.7354
v 449.406 121.0148 -1012.23
vt 0.8111 0.803023
vt 0.796046 0.840243
vt 0.808767 0.844246
vt 0.795884 0.800954
vt 0.778716 0.801667
vt 0.78112 0.841072
vt 0.767556 0.804839
vt 0.770932 0.84636
vt 0.76766 0.809006
vt 0.769355 0.852753
vt 0.824055 0.806921
vt 0.817796 0.851501
vt 0.768224 0.861128
vt 0.796768 0.852845
vt 0.810828 0.858493
vt 0.819837 0.868655
vt 0.779958 0.853879
vt 0.768224 0.861128
vt 0.796179 0.872335
vt 0.806863 0.877891
vt 0.795153 0.876948
vt 0.783082 0.873242
vt 0.768224 0.861128
vt 0.781957 0.878365
vt 0.773683 0.880197
vt 0.76557 0.869734
vt 0.768224 0.861128
vt 0.77238 0.886183
vt 0.770733 0.888304
vt 0.805807 0.882587
vt 0.812695 0.887821
vt 0.810977 0.893051
vt 0.793139 0.886011
vt 0.77975 0.888425
vt 0.769823 0.89793
vt 0.764234 0.893868
vt 0.760489 0.907259
vt 0.803732 0.891812
vt 0.807603 0.90332
vt 0.791089 0.895233
vt 0.777504 0.898657
vt 0.767223 0.90987
vt 0.7539 0.918539
vt 0.80162 0.901199
vt 0.76557 0.869734
vt 0.768224 0.861128
vt 0.760489 0.907259
vt 0.77516 0.919201
vt 0.7539 0.918539
vt 0.778254 0.905132
vt 0.764234 0.893868
vt 0.779832 0.897957
vt 0.79097 0.907378
vt 0.792519 0.900431
vt 0.803093 0.902444
vt 0.804494 0.896224
vt 0.810977 0.893051
vt 0.812695 0.887821
vt 0.787934 0.921002
vt 0.800343 0.914648
vt 0.807603 0.90332
vt 0.807603 0.90332
vt 0.772018 0.933487
vt 0.78485 0.934839
vt 0.797549 0.92705
vt 0.804171 0.913765
vt 0.807603 0.90332
vt 0.793599 0.881901
vt 0.777099 0.879443
vt 0.779488 0.859531
vt 0.76557 0.869734
vt 0.769355 0.852753
vt 0.779064 0.812212
vt 0.76766 0.809006
vt 0.79427 0.861225
vt 0.796428 0.812939
vt 0.807654 0.857936
vt 0.81154 0.810841
vt 0.817796 0.851501
vt 0.824055 0.806921
vt 0.808807 0.87745
vt 0.819837 0.868655
vt 0.770733 0.888304
vt 0.770733 0.888304
vt 0.764234 0.893868
vt 0.764234 0.893868
vt 0.77238 0.886183
vt 0.770733 0.888304
vt 0.807603 0.90332
vt 0.80162 0.901199
vt 0.804171 0.913765
vt 0.770733 0.888304
vn 0.3688518 -0.8788892 -0.3024934
vn 0.003322142 -0.9135547 -0.4067023
vn 0.4541015 -0.8097607 -0.3715904
vn -0.008750686 -0.9385991 -0.3448988
vn -0.4529439 -0.8294825 -0.3268037
vn -0.5078893 -0.7551998 -0.4143933
vn -0.899869 -0.4019752 -0.1692686
vn -0.9275105 -0.2676287 -0.2609583
vn -0.9421821 0.2979803 0.153299
vn -0.8856986 0.4544868 0.09476177
vn 0.5936364 -0.7706614 -0.2316827
vn 0.6601524 -0.6752088 -0.3290773
vn -0.9476522 -0.1967289 -0.2515014
vn 0.009426092 -0.9063519 -0.4224186
vn 0.4351946 -0.8443539 -0.3125256
vn 0.5850623 -0.7857966 -0.200564
vn -0.4659256 -0.8051429 -0.3669582
vn -0.8675429 -0.431915 -0.2466146
vn 0.01196994 -0.9161049 -0.4007598
vn 0.4524983 -0.8216234 -0.3466699
vn 0.07693392 -0.7117147 -0.698243
vn -0.4348657 -0.7502668 -0.4979874
vn -0.8059983 -0.5384923 -0.2457497
vn -0.4642062 -0.51333 -0.7218066
vn -0.8194403 -0.4373259 -0.3704912
vn -0.9317356 -0.320946 -0.1698892
vn -0.708019 -0.6693633 -0.2250815
vn -0.7677542 -0.1628576 -0.6197024
vn -0.9730033 0.2167681 -0.07922184
vn 0.5566319 -0.6916078 -0.4602605
vn 0.6648218 -0.7081627 -0.2377344
vn 0.7460135 -0.6151252 -0.2551172
vn 0.0769309 -0.7117075 -0.6982507
vn -0.4641971 -0.5133284 -0.7218137
vn -0.6731755 -0.3382295 -0.6575984
vn -0.6981734 -0.09608234 -0.7094519
vn -0.5671834 -0.3735082 -0.7340262
vn 0.5794448 -0.6844504 -0.4424605
vn 0.8829674 -0.4685925 -0.02810184
vn 0.0769316 -0.7117087 -0.6982495
vn -0.5495358 -0.4567388 -0.6995713
vn -0.589768 -0.3914137 -0.7063773
vn -0.4872633 -0.3942984 -0.7791682
vn 0.6754929 -0.6499228 -0.3482954
vn -0.9625996 0.2492657 0.1061534
vn -0.9104819 -0.3360463 -0.2410303
vn -0.5258224 0.7145874 0.4613844
vn -0.2952319 0.7464343 0.596384
vn -0.4745466 0.7588472 0.4460451
vn -0.3085451 0.7166392 0.6254824
vn -0.5041924 0.7785316 0.373736
vn -0.2874144 0.781283 0.5540666
vn 0.1960224 0.641946 0.7412695
vn 0.252039 0.6657056 0.702362
vn 0.6697695 0.3484889 0.6557167
vn 0.656407 0.435423 0.6160656
vn 0.8154107 0.1495695 0.5592265
vn 0.8021754 0.2702892 0.5324081
vn 0.1960225 0.6419621 0.7412556
vn 0.6984853 0.32026 0.6399624
vn 0.8477266 0.09690124 0.521507
vn 0.9191026 -0.08035708 0.3857371
vn -0.2705784 0.7262868 0.6318979
vn 0.1057025 0.6713848 0.7335322
vn 0.6309733 0.3933717 0.6686789
vn 0.9406496 -0.173211 0.2918496
vn 0.9420516 -0.281054 0.1831595
vn 0.1873765 0.8171775 0.5450789
vn -0.4398495 0.7586395 0.4806231
vn -0.3156699 0.86655 0.3865794
vn -0.7738504 0.6016642 0.1978782
vn -0.8856986 0.4544868 0.09476177
vn -0.314766 0.8174426 0.4824002
vn -0.9421821 0.2979803 0.153299
vn 0.2399078 0.8486915 0.471346
vn 0.3507643 0.7799528 0.518303
vn 0.6457159 0.6566023 0.3897748
vn 0.716173 0.5504586 0.429059
vn 0.7875562 0.5081288 0.348655
vn 0.7957906 0.4622421 0.3912154
vn 0.645523 0.608619 0.4613923
vn 0.7831733 0.5114838 0.3535874
vn -0.797702 0.5748575 0.1822374
vn -0.7393966 0.6686983 0.07832803
vn -0.6308957 0.7676054 0.1129266
vn -0.7548021 0.1939919 -0.6266106
vn -0.7677542 -0.1628576 -0.6197024
vn -0.7777656 0.490265 -0.3933457
vn 0.9289389 -0.35926 0.08946928
vn 0.6754929 -0.6499228 -0.3482954
vn 0.9406496 -0.173211 0.2918496
vn -0.9177517 -0.2662334 -0.2947061
g Mushroom2_stem_0
f 3/3/3 2/2/2 1/1/1
f 4/4/4 1/1/1 2/2/2
f 4/4/4 2/2/2 5/5/5
f 2/2/2 6/6/6 5/5/5
f 7/7/7 5/5/5 6/6/6
f 6/6/6 8/8/8 7/7/7
f 9/9/9 7/7/7 8/8/8
f 8/8/8 10/10/10 9/9/9
f 1/1/1 11/11/11 3/3/3
f 12/12/12 3/3/3 11/11/11
f 10/10/10 8/8/8 13/13/13
f 2/2/2 3/3/3 14/14/14
f 2/2/2 14/14/14 6/6/6
f 15/15/15 14/14/14 3/3/3
f 3/3/3 12/12/12 15/15/15
f 16/16/16 15/15/15 12/12/12
f 14/14/14 17/17/17 6/6/6
f 8/8/8 6/6/6 17/17/17
f 8/8/8 17/17/17 18/18/18
f 14/14/14 15/15/15 19/19/19
f 14/14/14 19/19/19 17/17/17
f 20/20/20 19/19/19 15/15/15
f 15/15/15 16/16/16 20/20/20
f 19/19/19 20/20/20 21/21/21
f 19/19/19 21/21/21 22/22/22
f 19/19/19 22/22/22 17/17/17
f 23/23/23 17/17/17 22/22/22
f 24/24/24 22/22/22 21/21/21
f 24/24/24 25/25/25 22/22/22
f 26/26/26 18/18/18 25/25/25
f 22/22/22 25/25/25 27/27/27
f 25/25/25 24/24/24 28/28/28
f 28/28/28 29/29/29 25/25/25
f 30/30/30 21/21/21 20/20/20
f 20/20/20 31/31/31 30/30/30
f 31/31/31 20/20/20 16/16/16
f 32/32/32 30/30/30 31/31/31
f 21/21/21 33/33/33 24/24/24
f 21/21/21 30/30/30 33/33/33
f 34/34/34 24/24/24 33/33/33
f 28/28/28 24/24/24 34/34/34
f 28/28/28 34/34/34 35/35/35
f 36/36/36 28/28/28 35/35/35
f 36/36/36 35/35/35 37/37/37
f 30/30/30 32/32/32 38/38/38
f 38/38/38 33/33/33 30/30/30
f 39/39/39 38/38/38 32/32/32
f 33/33/33 40/40/40 34/34/34
f 33/33/33 38/38/38 40/40/40
f 40/40/40 41/41/41 34/34/34
f 41/41/41 35/35/35 34/34/34
f 35/35/35 41/41/41 42/42/42
f 35/35/35 42/42/42 37/37/37
f 42/42/42 43/43/43 37/37/37
f 38/38/38 39/39/39 44/44/44
f 44/44/44 40/40/40 38/38/38
f 10/10/10 46/46/46 45/45/45
f 49/49/49 48/48/48 47/47/47
f 50/50/50 47/47/47 48/48/48
f 47/47/47 50/50/50 51/51/51
f 52/52/52 51/51/51 50/50/50
f 50/50/50 53/53/53 52/52/52
f 54/54/54 52/52/52 53/53/53
f 53/53/53 55/55/55 54/54/54
f 56/56/56 54/54/54 55/55/55
f 55/55/55 57/57/57 56/56/56
f 58/58/58 56/56/56 57/57/57
f 48/48/48 59/59/59 50/50/50
f 53/53/53 50/50/50 59/59/59
f 55/55/55 53/53/53 60/60/60
f 59/59/59 60/60/60 53/53/53
f 57/57/57 55/55/55 61/61/61
f 60/60/60 62/62/62 55/55/55
f 48/48/48 49/49/49 63/63/63
f 63/63/63 64/64/64 48/48/48
f 59/59/59 48/48/48 64/64/64
f 60/60/60 59/59/59 65/65/65
f 64/64/64 65/65/65 59/59/59
f 65/65/65 66/66/66 60/60/60
f 67/67/67 60/60/60 66/66/66
f 54/54/54 56/56/56 68/68/68
f 52/52/52 54/54/54 68/68/68
f 69/69/69 52/52/52 68/68/68
f 69/69/69 68/68/68 70/70/70
f 70/70/70 71/71/71 69/69/69
f 70/70/70 72/72/72 71/71/71
f 72/72/72 70/70/70 73/73/73
f 73/73/73 74/74/74 72/72/72
f 70/70/70 75/75/75 73/73/73
f 75/75/75 70/70/70 68/68/68
f 76/76/76 73/73/73 75/75/75
f 75/75/75 77/77/77 76/76/76
f 78/78/78 76/76/76 77/77/77
f 77/77/77 79/79/79 78/78/78
f 80/80/80 78/78/78 79/79/79
f 68/68/68 81/81/81 75/75/75
f 77/77/77 75/75/75 81/81/81
f 81/81/81 82/82/82 77/77/77
f 79/79/79 77/77/77 82/82/82
f 69/69/69 71/71/71 83/83/83
f 69/69/69 83/83/83 52/52/52
f 82/82/82 81/81/81 58/58/58
f 56/56/56 58/58/58 81/81/81
f 81/81/81 68/68/68 56/56/56
f 85/85/85 52/52/52 84/84/84
f 88/88/88 87/87/87 86/86/86
f 91/91/91 90/90/90 89/89/89
f 25/25/25 92/92/92 26/26/26
