g Mushroom1_cap
v 523.3785 100.2556 -984.328
v 511.1853 93.14597 -990.4571
v 526.1151 93.73377 -979.0599
v 513.0653 86.07136 -985.6859
v 496.6113 89.66891 -993.3318
v 497.2949 82.3089 -988.7966
v 480.1709 82.8151 -987.8559
v 480.7864 90.1367 -992.4625
v 465.0849 87.48972 -983.0502
v 466.8448 94.45669 -988.0215
v 455.0248 95.40691 -975.3311
v 457.5478 101.7733 -980.888
v 453.8991 104.0218 -966.8959
v 456.6528 109.6605 -973.1435
v 508.2747 100.4556 -993.7983
v 519.088 106.6749 -988.4691
v 495.6279 97.43828 -996.2929
v 481.8956 97.84422 -995.5385
v 469.7975 101.593 -991.6846
v 461.7299 107.942 -985.4944
v 511.702 112.2933 -991.355
v 504.4797 107.6337 -995.5414
v 494.3942 105.2275 -997.5308
v 483.443 105.5512 -996.9292
v 473.7951 108.5408 -993.8558
v 467.3615 113.604 -988.9194
v 485.351 112.8713 -996.5651
v 492.972 112.646 -996.9836
v 478.6372 114.9518 -994.4263
v 499.9904 114.3205 -995.5992
v 461.7299 107.942 -985.4944
v 459.2907 115.634 -978.194
v 456.6528 109.6605 -973.1435
v 460.382 119.2931 -964.449
v 453.8991 104.0218 -966.8959
v 457.9757 114.3649 -957.5426
v 469.4052 126.0263 -958.3995
v 467.8555 121.6509 -950.9966
v 483.9791 129.5034 -955.5247
v 483.6258 125.4134 -947.8858
v 500.7498 124.9071 -948.8265
v 499.8041 129.0356 -956.394
v 515.8359 120.2325 -953.6322
v 513.7457 124.7156 -960.8353
v 525.896 112.3153 -961.3512
v 523.0427 117.399 -967.9688
v 528.9376 102.7237 -970.4547
v 525.8536 108.535 -976.3817
v 523.3785 100.2556 -984.328
v 526.1151 93.73377 -979.0599
v 472.0193 128.9881 -965.9796
v 462.9629 123.1452 -971.2292
v 459.2907 115.634 -978.194
v 498.3985 131.5995 -964.2393
v 484.6662 132.0054 -963.4849
v 510.4967 127.8507 -968.0932
v 518.5642 121.5015 -974.2834
v 521.0034 113.8097 -981.584
v 468.3448 125.7281 -977.5433
v 465.4163 119.7381 -983.0975
v 467.3615 113.604 -988.9194
v 461.7299 107.942 -985.4944
v 485.6525 132.7939 -971.3672
v 475.567 130.3877 -973.3568
v 512.6852 124.4174 -979.9789
v 506.2516 129.4806 -975.0424
v 496.6037 132.4702 -971.9689
v 474.1599 118.4752 -990.991
v 473.7951 108.5408 -993.8558
v 478.6372 114.9518 -994.4263
v 472.8063 122.7439 -986.9395
v 474.8442 126.9123 -983.0744
v 479.8701 130.1548 -980.1611
v 486.8886 131.8293 -978.7767
v 494.5095 131.604 -979.1953
v 501.2234 129.5236 -981.3342
v 505.7007 126.0001 -984.7693
v 481.7845 122.3114 -991.6056
v 484.0807 120.5043 -993.3675
v 485.351 112.8713 -996.5651
v 487.524 119.4373 -994.4644
v 492.972 112.646 -996.9836
v 491.4325 119.3218 -994.6791
v 482.1355 126.6383 -987.5456
v 481.0903 124.5006 -989.5278
v 492.221 129.0446 -985.5562
v 488.3125 129.1601 -985.3414
v 484.713 128.3013 -986.0515
v 489.8529 124.9201 -990.7323
v 495.032 120.1805 -993.9691
v 499.9904 114.3205 -995.5992
v 497.6095 121.8436 -992.4749
v 505.0164 117.5631 -992.6859
v 504.4797 107.6337 -995.5414
v 511.702 112.2933 -991.355
v 514.6305 118.2833 -985.8008
v 519.088 106.6749 -988.4691
v 507.0542 121.7315 -988.8207
v 498.6547 123.9813 -990.4926
v 497.9604 126.1705 -988.4149
v 495.6643 127.9776 -986.653
v 457.5478 101.7733 -980.888
vt 0.94198 0.892104
vt 0.923078 0.883958
vt 0.947985 0.902895
vt 0.927809 0.894074
vt 0.899459 0.880198
vt 0.902324 0.890001
vt 0.87362 0.89142
vt 0.872848 0.881512
vt 0.847236 0.898059
vt 0.848391 0.887647
vt 0.828308 0.90866
vt 0.830855 0.897437
vt 0.824116 0.920312
vt 0.827258 0.908158
vt 0.916531 0.876114
vt 0.933342 0.883184
vt 0.895975 0.872851
vt 0.872806 0.873993
vt 0.851517 0.879321
vt 0.836267 0.887817
vt 0.919603 0.876585
vt 0.90848 0.870958
vt 0.892041 0.868352
vt 0.873502 0.869265
vt 0.856475 0.873521
vt 0.844294 0.8803
vt 0.874909 0.867595
vt 0.887851 0.866958
vt 0.863028 0.870563
vt 0.899321 0.868776
vt 0.836267 0.887817
vt 0.830098 0.897835
vt 0.827258 0.908158
vt 0.831011 0.920041
vt 0.824116 0.920312
vt 0.828259 0.933127
vt 0.844505 0.928367
vt 0.843022 0.942193
vt 0.868416 0.93226
vt 0.868847 0.946421
vt 0.898086 0.944964
vt 0.895485 0.930914
vt 0.924796 0.938121
vt 0.920223 0.924604
vt 0.943596 0.927306
vt 0.93765 0.91463
vt 0.950802 0.91472
vt 0.944348 0.903018
vt 0.94198 0.892104
vt 0.947985 0.902895
vt 0.848178 0.914603
vt 0.834318 0.907403
vt 0.830098 0.897835
vt 0.892471 0.9168
vt 0.868955 0.917967
vt 0.913972 0.91134
vt 0.929139 0.902706
vt 0.934993 0.892647
vt 0.842781 0.895897
vt 0.839387 0.888283
vt 0.844294 0.8803
vt 0.836267 0.887817
vt 0.870438 0.904289
vt 0.853858 0.901619
vt 0.918489 0.892153
vt 0.906361 0.89902
vt 0.889199 0.90336
vt 0.854543 0.875286
vt 0.856475 0.873521
vt 0.863028 0.870563
vt 0.851143 0.880839
vt 0.853527 0.886128
vt 0.86125 0.890095
vt 0.872789 0.891944
vt 0.885839 0.891299
vt 0.897786 0.88829
vt 0.906245 0.883524
vt 0.866501 0.87305
vt 0.870853 0.870623
vt 0.874909 0.867595
vt 0.87696 0.869097
vt 0.887851 0.866958
vt 0.883617 0.868769
vt 0.866003 0.878605
vt 0.864767 0.875898
vt 0.882569 0.881246
vt 0.875884 0.881576
vt 0.869969 0.880632
vt 0.879558 0.87372
vt 0.889514 0.869704
vt 0.899321 0.868776
vt 0.893486 0.87172
vt 0.907067 0.872697
vt 0.90848 0.870958
vt 0.919603 0.876585
vt 0.923195 0.884144
vt 0.933342 0.883184
vt 0.909547 0.877958
vt 0.894747 0.87442
vt 0.893039 0.877271
vt 0.888693 0.879709
vt 0.830855 0.897437
vn 0.7582713 -0.05525745 -0.649593
vn 0.4500969 -0.3406847 -0.8254373
vn 0.7269903 -0.217621 -0.6512496
vn 0.3838134 -0.4440393 -0.8096397
vn 0.1285625 -0.4393633 -0.8890622
vn 0.1101589 -0.5139707 -0.8507051
vn -0.175846 -0.5136112 -0.8398106
vn -0.2292574 -0.4209017 -0.8776576
vn -0.5108461 -0.4100857 -0.7555568
vn -0.5500415 -0.2946153 -0.7814449
vn -0.8277296 -0.1450961 -0.5420431
vn -0.8418815 0.01661406 -0.5394067
vn -0.947468 0.2774034 -0.1592223
vn -0.9312931 0.3039058 -0.2008344
vn 0.3875526 -0.1462013 -0.9101803
vn 0.6740251 0.1770661 -0.7171735
vn 0.08679675 -0.244933 -0.9656471
vn -0.2302251 -0.2169562 -0.9486445
vn -0.5283638 -0.1117296 -0.8416342
vn -0.745609 0.1302176 -0.6535369
vn 0.5171918 0.2672994 -0.8130581
vn 0.3092476 0.06537753 -0.9487316
vn 0.04819426 -0.01664296 -0.9986993
vn -0.1985844 0.006013276 -0.9800654
vn -0.4315249 0.08470731 -0.8981152
vn -0.6127659 0.3072365 -0.728096
vn -0.1320018 0.2143169 -0.9678036
vn 0.03934081 0.2516957 -0.9670064
vn -0.2967547 0.295796 -0.9079875
vn 0.2125064 0.2807439 -0.9359615
vn -0.745609 0.1302176 -0.6535369
vn -0.8124694 0.4333416 -0.3900109
vn -0.9312931 0.3039058 -0.2008344
vn -0.8020063 0.5940971 0.06192312
vn -0.947468 0.2774034 -0.1592223
vn -0.7795539 0.6046346 0.16344
vn -0.5262594 0.8065929 0.2691822
vn -0.4297549 0.8138669 0.3910645
vn -0.1421586 0.910641 0.3879741
vn -0.1206455 0.8774595 0.4642299
vn 0.1654419 0.8743109 0.4562998
vn 0.215214 0.9078121 0.3599446
vn 0.4998039 0.7929416 0.3484822
vn 0.5350987 0.8127183 0.2305613
vn 0.7943718 0.5963318 0.1155934
vn 0.798896 0.6009437 -0.02513571
vn 0.9386157 0.240883 -0.2469334
vn 0.8768215 0.3386674 -0.3413042
vn 0.7582713 -0.05525745 -0.649593
vn 0.7269903 -0.217621 -0.6512496
vn -0.4460737 0.8886933 0.1060299
vn -0.7556527 0.6524003 -0.05799007
vn -0.8124694 0.4333416 -0.3900109
vn 0.2086167 0.9660949 0.1521171
vn -0.1078942 0.976202 0.1881183
vn 0.5144848 0.8573858 0.01396328
vn 0.7233472 0.6585947 -0.2074168
vn 0.7332403 0.4674665 -0.4937952
vn -0.5670217 0.7788564 -0.268084
vn -0.608095 0.5688755 -0.5537156
vn -0.6127659 0.3072365 -0.728096
vn -0.745609 0.1302176 -0.6535369
vn -0.07644936 0.9961556 -0.04277217
vn -0.3380865 0.9341787 -0.114052
vn 0.5791586 0.7449732 -0.3310444
vn 0.3780012 0.91301 -0.1533878
vn 0.1700579 0.9828476 -0.07134996
vn -0.4471257 0.4245329 -0.7873058
vn -0.4315249 0.08470731 -0.8981152
vn -0.2967547 0.295796 -0.9079875
vn -0.4313786 0.6216335 -0.6538229
vn -0.4069411 0.7872961 -0.4632105
vn -0.2468759 0.9107841 -0.3309449
vn -0.07394955 0.9482353 -0.3088388
vn 0.0982435 0.9559724 -0.2765229
vn 0.2623812 0.8957291 -0.3589226
vn 0.3994616 0.7634534 -0.5075129
vn -0.2591022 0.5616697 -0.7857438
vn -0.1718977 0.476025 -0.8624682
vn -0.1320018 0.2143169 -0.9678036
vn -0.075429 0.4331742 -0.8981484
vn 0.03934081 0.2516957 -0.9670064
vn 0.01337239 0.4584602 -0.8886143
vn -0.2219011 0.7783545 -0.5873024
vn -0.2617021 0.6854705 -0.6794425
vn 0.03779829 0.8714544 -0.489018
vn -0.05134445 0.857981 -0.5111089
vn -0.1420509 0.84399 -0.5172065
vn -0.01975639 0.6849725 -0.728301
vn 0.1042146 0.4678613 -0.8776361
vn 0.2125064 0.2807439 -0.9359615
vn 0.1837621 0.5440109 -0.8187085
vn 0.3719813 0.424661 -0.8254047
vn 0.3092476 0.06537753 -0.9487316
vn 0.5171918 0.2672994 -0.8130581
vn 0.5762845 0.5338647 -0.6187767
vn 0.6740251 0.1770661 -0.7171735
vn 0.4148628 0.6044734 -0.6800741
vn 0.2391739 0.6540094 -0.7176821
vn 0.201748 0.7658277 -0.6105781
vn 0.1340554 0.8358261 -0.5323758
vn -0.8418815 0.01661406 -0.5394067
g Mushroom1_cap_0
f 3/3/3 2/2/2 1/1/1
f 2/2/2 3/3/3 4/4/4
f 2/2/2 4/4/4 5/5/5
f 5/5/5 4/4/4 6/6/6
f 6/6/6 7/7/7 5/5/5
f 8/8/8 5/5/5 7/7/7
f 7/7/7 9/9/9 8/8/8
f 10/10/10 8/8/8 9/9/9
f 9/9/9 11/11/11 10/10/10
f 12/12/12 10/10/10 11/11/11
f 11/11/11 13/13/13 12/12/12
f 14/14/14 12/12/12 13/13/13
f 15/15/15 1/1/1 2/2/2
f 2/2/2 5/5/5 15/15/15
f 15/15/15 16/16/16 1/1/1
f 17/17/17 15/15/15 5/5/5
f 5/5/5 8/8/8 17/17/17
f 18/18/18 17/17/17 8/8/8
f 8/8/8 10/10/10 18/18/18
f 19/19/19 18/18/18 10/10/10
f 10/10/10 12/12/12 19/19/19
f 20/20/20 19/19/19 12/12/12
f 16/16/16 15/15/15 21/21/21
f 22/22/22 21/21/21 15/15/15
f 15/15/15 17/17/17 22/22/22
f 23/23/23 22/22/22 17/17/17
f 17/17/17 18/18/18 23/23/23
f 24/24/24 23/23/23 18/18/18
f 19/19/19 25/25/25 18/18/18
f 24/24/24 18/18/18 25/25/25
f 19/19/19 20/20/20 25/25/25
f 26/26/26 25/25/25 20/20/20
f 24/24/24 27/27/27 23/23/23
f 28/28/28 23/23/23 27/27/27
f 25/25/25 29/29/29 24/24/24
f 27/27/27 24/24/24 29/29/29
f 22/22/22 23/23/23 30/30/30
f 28/28/28 30/30/30 23/23/23
f 32/32/32 31/31/31 14/14/14
f 35/35/35 34/34/34 33/33/33
f 34/34/34 35/35/35 36/36/36
f 37/37/37 34/34/34 36/36/36
f 37/37/37 36/36/36 38/38/38
f 37/37/37 38/38/38 39/39/39
f 39/39/39 38/38/38 40/40/40
f 40/40/40 41/41/41 39/39/39
f 42/42/42 39/39/39 41/41/41
f 41/41/41 43/43/43 42/42/42
f 44/44/44 42/42/42 43/43/43
f 43/43/43 45/45/45 44/44/44
f 46/46/46 44/44/44 45/45/45
f 45/45/45 47/47/47 46/46/46
f 48/48/48 46/46/46 47/47/47
f 48/48/48 47/47/47 49/49/49
f 50/50/50 49/49/49 47/47/47
f 37/37/37 39/39/39 51/51/51
f 51/51/51 34/34/34 37/37/37
f 51/51/51 52/52/52 34/34/34
f 52/52/52 33/33/33 34/34/34
f 33/33/33 52/52/52 53/53/53
f 42/42/42 44/44/44 54/54/54
f 54/54/54 55/55/55 42/42/42
f 55/55/55 51/51/51 39/39/39
f 39/39/39 42/42/42 55/55/55
f 56/56/56 54/54/54 44/44/44
f 44/44/44 46/46/46 56/56/56
f 57/57/57 56/56/56 46/46/46
f 46/46/46 48/48/48 57/57/57
f 58/58/58 57/57/57 48/48/48
f 59/59/59 53/53/53 52/52/52
f 52/52/52 51/51/51 59/59/59
f 53/53/53 59/59/59 60/60/60
f 60/60/60 61/61/61 53/53/53
f 62/62/62 53/53/53 61/61/61
f 55/55/55 54/54/54 63/63/63
f 63/63/63 64/64/64 55/55/55
f 64/64/64 59/59/59 51/51/51
f 51/51/51 55/55/55 64/64/64
f 57/57/57 58/58/58 65/65/65
f 57/57/57 65/65/65 56/56/56
f 66/66/66 56/56/56 65/65/65
f 56/56/56 66/66/66 54/54/54
f 67/67/67 63/63/63 54/54/54
f 67/67/67 54/54/54 66/66/66
f 61/61/61 60/60/60 68/68/68
f 61/61/61 68/68/68 69/69/69
f 70/70/70 69/69/69 68/68/68
f 71/71/71 68/68/68 60/60/60
f 60/60/60 72/72/72 71/71/71
f 72/72/72 60/60/60 59/59/59
f 59/59/59 64/64/64 72/72/72
f 73/73/73 72/72/72 64/64/64
f 64/64/64 63/63/63 73/73/73
f 74/74/74 73/73/73 63/63/63
f 67/67/67 75/75/75 63/63/63
f 74/74/74 63/63/63 75/75/75
f 66/66/66 76/76/76 67/67/67
f 75/75/75 67/67/67 76/76/76
f 76/76/76 66/66/66 77/77/77
f 65/65/65 77/77/77 66/66/66
f 68/68/68 78/78/78 70/70/70
f 68/68/68 71/71/71 78/78/78
f 79/79/79 70/70/70 78/78/78
f 70/70/70 79/79/79 80/80/80
f 81/81/81 80/80/80 79/79/79
f 80/80/80 81/81/81 82/82/82
f 83/83/83 82/82/82 81/81/81
f 72/72/72 73/73/73 84/84/84
f 84/84/84 85/85/85 72/72/72
f 85/85/85 78/78/78 71/71/71
f 71/71/71 72/72/72 85/85/85
f 75/75/75 86/86/86 74/74/74
f 87/87/87 74/74/74 86/86/86
f 87/87/87 88/88/88 74/74/74
f 88/88/88 84/84/84 73/73/73
f 73/73/73 74/74/74 88/88/88
f 89/89/89 83/83/83 81/81/81
f 89/89/89 81/81/81 79/79/79
f 89/89/89 79/79/79 78/78/78
f 89/89/89 78/78/78 85/85/85
f 89/89/89 85/85/85 84/84/84
f 89/89/89 84/84/84 88/88/88
f 89/89/89 88/88/88 87/87/87
f 89/89/89 87/87/87 86/86/86
f 89/89/89 90/90/90 83/83/83
f 83/83/83 90/90/90 82/82/82
f 91/91/91 82/82/82 90/90/90
f 90/90/90 92/92/92 91/91/91
f 89/89/89 92/92/92 90/90/90
f 93/93/93 91/91/91 92/92/92
f 91/91/91 93/93/93 94/94/94
f 95/95/95 94/94/94 93/93/93
f 93/93/93 96/96/96 95/95/95
f 58/58/58 95/95/95 96/96/96
f 96/96/96 65/65/65 58/58/58
f 95/95/95 58/58/58 97/97/97
f 58/58/58 48/48/48 97/97/97
f 49/49/49 97/97/97 48/48/48
f 65/65/65 96/96/96 77/77/77
f 98/98/98 77/77/77 96/96/96
f 96/96/96 93/93/93 98/98/98
f 99/99/99 77/77/77 98/98/98
f 92/92/92 99/99/99 93/93/93
f 98/98/98 93/93/93 99/99/99
f 89/89/89 99/99/99 92/92/92
f 99/99/99 100/100/100 77/77/77
f 100/100/100 76/76/76 77/77/77
f 101/101/101 76/76/76 100/100/100
f 76/76/76 101/101/101 75/75/75
f 86/86/86 75/75/75 101/101/101
f 89/89/89 86/86/86 101/101/101
f 89/89/89 101/101/101 100/100/100
f 89/89/89 100/100/100 99/99/99
f 102/102/102 33/33/33 62/62/62
