g Mushroom1_stem
v 491.7518 88.76011 -970.9197
v 480.676 77.29823 -963.3408
v 487.1476 77.50315 -959.9531
v 485.1937 88.34329 -974.101
v 478.0031 90.90742 -974.4877
v 472.9878 78.64537 -962.5421
v 473.545 95.25267 -971.8992
v 467.6804 80.91428 -957.9309
v 497.4526 91.23632 -965.9844
v 490.8517 78.78687 -953.7314
v 479.6957 74.90138 -961.0059
v 471.8994 75.98447 -959.9498
v 466.4078 77.80283 -954.8997
v 465.9692 81.32765 -952.975
v 486.1485 75.06038 -957.5733
v 489.4193 76.08533 -951.0724
v 477.7642 70.17909 -956.4054
v 469.7552 70.74187 -954.8425
v 463.9004 71.67248 -948.9275
v 461.7284 79.25186 -950.0041
v 458.1005 70.67857 -943.4674
v 484.1799 70.24747 -952.8846
v 486.5971 70.76257 -945.8337
v 475.7907 65.35397 -951.7048
v 467.5642 65.38511 -949.624
v 461.3384 65.40873 -942.8254
v 453.223 65.14835 -937.6184
v 482.1685 65.3298 -948.0938
v 465.9692 81.32765 -952.975
v 467.6804 80.91428 -957.9309
v 473.9051 99.34577 -967.5464
v 458.1005 70.67857 -943.4674
v 467.3217 72.92716 -935.8529
v 453.223 65.14835 -937.6184
v 470.3357 80.29612 -943.0317
v 461.7284 79.25186 -950.0041
v 471.8654 84.03631 -946.6754
v 477.9174 79.80444 -941.7672
v 479.3996 83.4285 -945.2978
v 478.9149 101.2718 -963.4661
v 465.9692 81.32765 -952.975
v 486.2305 100.1293 -961.5674
v 492.4286 96.4528 -962.7389
v 486.3145 81.50443 -948.1763
v 490.8517 78.78687 -953.7314
v 497.4526 91.23632 -965.9844
v 484.9878 78.26061 -945.0162
v 489.4193 76.08533 -951.0724
v 474.9969 72.66412 -934.8109
v 482.3738 71.86949 -938.7899
v 486.5971 70.76257 -945.8337
v 486.5971 70.76257 -945.8337
v 479.7028 65.3392 -932.4282
v 472.0128 65.36826 -927.7034
v 464.2421 65.3977 -928.5178
v 483.7135 65.32394 -940.4809
v 486.5971 70.76257 -945.8337
v 465.9692 81.32765 -952.975
v 461.7284 79.25186 -950.0041
v 465.9692 81.32765 -952.975
v 473.9051 99.34577 -967.5464
v 478.9149 101.2718 -963.4661
v 461.7284 79.25186 -950.0041
v 466.4078 77.80283 -954.8997
v 465.9692 81.32765 -952.975
v 467.6804 80.91428 -957.9309
v 473.545 95.25267 -971.8992
v 473.9051 99.34577 -967.5464
v 486.5971 70.76257 -945.8337
v 482.1685 65.3298 -948.0938
v 483.7135 65.32394 -940.4809
vt 0.990044 0.919838
vt 0.974401 0.935674
vt 0.985087 0.941237
vt 0.979214 0.914655
vt 0.966591 0.91327
vt 0.961312 0.936625
vt 0.958053 0.916337
vt 0.951925 0.943654
vt 0.998963 0.927363
vt 0.990926 0.951209
vt 0.973363 0.940209
vt 0.960173 0.941661
vt 0.950606 0.949538
vt 0.948977 0.951775
vt 0.984017 0.945854
vt 0.989193 0.956351
vt 0.971323 0.949117
vt 0.957937 0.95155
vt 0.948015 0.961086
vt 0.942468 0.957271
vt 0.938676 0.970382
vt 0.981917 0.954921
vt 0.985791 0.966446
vt 0.969248 0.958182
vt 0.955664 0.961608
vt 0.945383 0.972822
vt 0.932057 0.981483
vt 0.979779 0.964148
vt 0.948977 0.951775
vt 0.951925 0.943654
vt 0.957616 0.922442
vt 0.938676 0.970382
vt 0.953359 0.982398
vt 0.932057 0.981483
vt 0.956493 0.96857
vt 0.942468 0.957271
vt 0.958091 0.961518
vt 0.969207 0.970799
vt 0.970774 0.963972
vt 0.965522 0.928728
vt 0.948977 0.951775
vt 0.978062 0.932232
vt 0.989329 0.93131
vt 0.982739 0.959701
vt 0.990926 0.951209
vt 0.998963 0.927363
vt 0.981321 0.965814
vt 0.989193 0.956351
vt 0.966132 0.98419
vt 0.978537 0.97781
vt 0.985791 0.966446
vt 0.985791 0.966446
vt 0.975708 0.989999
vt 0.96301 0.997789
vt 0.950178 0.996438
vt 0.98233 0.976713
vt 0.985791 0.966446
vt 0.948977 0.951775
vt 0.942468 0.957271
vt 0.948977 0.951775
vt 0.957616 0.922442
vt 0.965522 0.928728
vt 0.942468 0.957271
vt 0.950606 0.949538
vt 0.948977 0.951775
vt 0.951925 0.943654
vt 0.958053 0.916337
vt 0.957616 0.922442
vt 0.985791 0.966446
vt 0.979779 0.964148
vt 0.98233 0.976713
vn 0.4438574 -0.7118291 -0.5443253
vn 0.07693357 -0.7117032 -0.6982546
vn 0.5286381 -0.699611 -0.4807143
vn 0.07693157 -0.7117057 -0.6982524
vn -0.3737719 -0.5642671 -0.7361366
vn -0.4642016 -0.5133208 -0.7218161
vn -0.8453141 -0.1529513 -0.5119082
vn -0.8706754 -0.09840578 -0.4819137
vn 0.6712781 -0.6555869 -0.3458201
vn 0.7197019 -0.6325637 -0.2861685
vn 0.07693644 -0.7117026 -0.6982549
vn -0.4642031 -0.5133256 -0.721812
vn -0.7677591 -0.1628572 -0.6196963
vn -0.9031054 0.3227758 -0.283225
vn 0.556637 -0.6916085 -0.4602532
vn 0.7460122 -0.6151286 -0.2551132
vn 0.07693236 -0.7117047 -0.6982535
vn -0.4642042 -0.513324 -0.7218122
vn -0.6731766 -0.3382296 -0.6575972
vn -0.6981809 -0.09606894 -0.7094464
vn -0.5671842 -0.3735113 -0.7340242
vn 0.5794514 -0.6844458 -0.442459
vn 0.8829671 -0.4685922 -0.02811548
vn 0.07693276 -0.7117049 -0.6982531
vn -0.5495392 -0.4567434 -0.6995656
vn -0.5897655 -0.3914247 -0.7063733
vn -0.487267 -0.3943115 -0.7791594
vn 0.6754973 -0.6499147 -0.3483018
vn -0.8404242 0.5316226 -0.1051878
vn -0.8706754 -0.09840578 -0.4819137
vn -0.9254392 0.3787493 -0.01054401
vn -0.5258231 0.7145908 0.4613782
vn -0.2952399 0.7464293 0.5963863
vn -0.4745402 0.7588458 0.4460545
vn -0.3085488 0.7166433 0.6254758
vn -0.504198 0.7785311 0.3737296
vn -0.3254704 0.7803261 0.534004
vn 0.1960338 0.6419606 0.7412539
vn 0.2343342 0.6275052 0.7425124
vn -0.3811927 0.7136359 0.587721
vn -0.8336428 0.5508639 0.03985845
vn 0.1960283 0.6419504 0.7412642
vn 0.6169358 0.3921683 0.6823446
vn 0.6882153 0.329384 0.6464255
vn 0.7725893 0.2106428 0.5989453
vn 0.7049615 0.2712181 0.6553397
vn 0.6697728 0.3484961 0.6557093
vn 0.8154095 0.1495687 0.5592285
vn 0.1960281 0.6419575 0.7412581
vn 0.6984944 0.3202522 0.6399564
vn 0.8477316 0.09689607 0.5215
vn 0.9191059 -0.08036066 0.3857283
vn 0.630986 0.3933433 0.6686835
vn 0.1056955 0.671376 0.7335413
vn -0.2705909 0.7262712 0.6319105
vn 0.9406499 -0.1732198 0.2918434
vn 0.9420536 -0.2810551 0.1831479
vn -0.7823786 0.6209824 -0.04758905
vn -0.630899 0.767603 0.1129241
vn -0.7466167 0.650141 0.1409972
vn -0.9254392 0.3787493 -0.01054401
vn -0.3811927 0.7136359 0.587721
vn -0.7548083 0.1940015 -0.6266003
vn -0.7677591 -0.1628572 -0.6196963
vn -0.8333897 0.3989587 -0.3824834
vn -0.8706754 -0.09840578 -0.4819137
vn -0.8453141 -0.1529513 -0.5119082
vn -0.9254392 0.3787493 -0.01054401
vn 0.9289404 -0.35926 0.08945451
vn 0.6754973 -0.6499147 -0.3483018
vn 0.9406499 -0.1732198 0.2918434
g Mushroom1_stem_0
f 3/3/3 2/2/2 1/1/1
f 4/4/4 1/1/1 2/2/2
f 4/4/4 2/2/2 5/5/5
f 6/6/6 5/5/5 2/2/2
f 7/7/7 5/5/5 6/6/6
f 6/6/6 8/8/8 7/7/7
f 1/1/1 9/9/9 3/3/3
f 10/10/10 3/3/3 9/9/9
f 2/2/2 11/11/11 6/6/6
f 2/2/2 3/3/3 11/11/11
f 12/12/12 6/6/6 11/11/11
f 12/12/12 8/8/8 6/6/6
f 8/8/8 12/12/12 13/13/13
f 13/13/13 14/14/14 8/8/8
f 3/3/3 10/10/10 15/15/15
f 15/15/15 11/11/11 3/3/3
f 16/16/16 15/15/15 10/10/10
f 11/11/11 17/17/17 12/12/12
f 11/11/11 15/15/15 17/17/17
f 18/18/18 12/12/12 17/17/17
f 13/13/13 12/12/12 18/18/18
f 13/13/13 18/18/18 19/19/19
f 20/20/20 13/13/13 19/19/19
f 20/20/20 19/19/19 21/21/21
f 15/15/15 16/16/16 22/22/22
f 22/22/22 17/17/17 15/15/15
f 23/23/23 22/22/22 16/16/16
f 17/17/17 24/24/24 18/18/18
f 17/17/17 22/22/22 24/24/24
f 24/24/24 25/25/25 18/18/18
f 25/25/25 19/19/19 18/18/18
f 19/19/19 25/25/25 26/26/26
f 19/19/19 26/26/26 21/21/21
f 26/26/26 27/27/27 21/21/21
f 22/22/22 23/23/23 28/28/28
f 28/28/28 24/24/24 22/22/22
f 31/31/31 30/30/30 29/29/29
f 34/34/34 33/33/33 32/32/32
f 35/35/35 32/32/32 33/33/33
f 32/32/32 35/35/35 36/36/36
f 37/37/37 36/36/36 35/35/35
f 35/35/35 38/38/38 37/37/37
f 39/39/39 37/37/37 38/38/38
f 37/37/37 39/39/39 40/40/40
f 40/40/40 41/41/41 37/37/37
f 42/42/42 40/40/40 39/39/39
f 42/42/42 39/39/39 43/43/43
f 44/44/44 43/43/43 39/39/39
f 44/44/44 45/45/45 43/43/43
f 46/46/46 43/43/43 45/45/45
f 44/44/44 39/39/39 47/47/47
f 38/38/38 47/47/47 39/39/39
f 45/45/45 44/44/44 48/48/48
f 47/47/47 48/48/48 44/44/44
f 38/38/38 35/35/35 49/49/49
f 47/47/47 38/38/38 50/50/50
f 49/49/49 50/50/50 38/38/38
f 48/48/48 47/47/47 51/51/51
f 50/50/50 52/52/52 47/47/47
f 50/50/50 49/49/49 53/53/53
f 54/54/54 53/53/53 49/49/49
f 49/49/49 33/33/33 54/54/54
f 33/33/33 49/49/49 35/35/35
f 55/55/55 54/54/54 33/33/33
f 33/33/33 34/34/34 55/55/55
f 53/53/53 56/56/56 50/50/50
f 57/57/57 50/50/50 56/56/56
f 59/59/59 37/37/37 58/58/58
f 62/62/62 61/61/61 60/60/60
f 65/65/65 64/64/64 63/63/63
f 68/68/68 67/67/67 66/66/66
f 71/71/71 70/70/70 69/69/69
