g Mushroom3
v 531.2536 68.94003 -1017.244
v 529.7971 73.37247 -1019.993
v 523.4263 69.94002 -1024.418
v 524.3597 65.22577 -1022.033
v 514.4971 68.31831 -1026.74
v 514.6975 63.47092 -1024.545
v 504.1805 64.02318 -1024.283
v 504.7779 68.82861 -1026.497
v 494.8918 66.77295 -1021.298
v 496.1938 71.3698 -1023.739
v 488.6711 71.17575 -1016.182
v 490.4451 75.43863 -1019.011
v 521.8321 74.70473 -1025.935
v 527.3605 77.68324 -1022.095
v 514.0836 73.29742 -1027.95
v 505.6495 73.74024 -1027.739
v 498.2006 75.94549 -1025.346
v 493.212 79.47624 -1021.244
v 519.6569 79.28089 -1026.508
v 513.4777 78.15865 -1028.115
v 506.7518 78.51182 -1027.947
v 500.8115 80.27032 -1026.039
v 496.8332 83.08608 -1022.767
v 508.0294 82.90392 -1027.11
v 512.71 82.65815 -1027.227
v 486.7506 76.35948 -1009.949
v 490.4451 75.43863 -1019.011
v 488.6701 80.2292 -1013.251
v 488.6701 80.2292 -1013.251
v 493.212 79.47624 -1021.244
v 491.6718 83.63326 -1016.245
v 490.4451 75.43863 -1019.011
v 486.7506 76.35948 -1009.949
v 488.6711 71.17575 -1016.182
v 488.6701 80.2292 -1013.251
v 491.2207 84.79259 -1007.598
v 486.7506 76.35948 -1009.949
v 489.5105 81.29751 -1003.832
v 497.5916 88.2251 -1003.173
v 496.4043 85.01178 -999.0436
v 506.5208 89.84674 -1000.851
v 506.0666 86.76662 -996.5317
v 516.5835 86.21445 -996.794
v 516.24 89.33649 -1001.094
v 525.8723 83.46458 -999.7784
v 524.824 86.79524 -1003.852
v 532.093 79.06178 -1004.894
v 530.5729 82.72643 -1008.579
v 534.0135 73.87804 -1011.127
v 532.3477 77.9359 -1014.34
v 529.7971 73.37247 -1019.993
v 531.2536 68.94003 -1017.244
v 499.4135 90.57186 -1007.499
v 493.8851 87.59325 -1011.339
v 491.6718 83.63326 -1016.245
v 515.5959 91.53632 -1005.695
v 507.162 91.97906 -1005.485
v 523.0449 89.3311 -1008.088
v 528.0335 85.80035 -1012.191
v 529.5737 81.64327 -1017.19
v 497.37 89.55914 -1014.869
v 495.6049 86.40125 -1018.781
v 496.8332 83.08608 -1022.767
v 493.212 79.47624 -1021.244
v 498.2006 75.94549 -1025.346
v 520.6242 90.9451 -1012.276
v 514.6838 92.70361 -1010.368
v 507.958 93.05676 -1010.2
v 501.7787 91.93455 -1011.806
v 501.1271 86.08714 -1023.505
v 500.8115 80.27032 -1026.039
v 503.8956 84.12769 -1025.782
v 506.7518 78.51182 -1027.947
v 508.0294 82.90392 -1027.11
v 504.5687 92.24475 -1015.878
v 501.5007 90.59176 -1018.009
v 500.2724 88.3941 -1020.731
v 508.8689 93.02573 -1014.76
v 513.5493 92.78 -1014.876
v 517.6832 91.55616 -1016.205
v 520.4517 89.59674 -1018.481
v 524.6025 88.12933 -1015.548
v 525.8307 84.81419 -1019.534
v 524.0657 81.65628 -1023.446
v 527.3605 77.68324 -1022.095
v 521.8321 74.70473 -1025.935
v 519.6569 79.28089 -1026.508
v 520.0781 85.09213 -1023.978
v 517.01 83.43909 -1026.109
v 513.4777 78.15865 -1028.115
v 512.71 82.65815 -1027.227
v 521.3063 87.28973 -1021.255
v 515.5976 87.81864 -1023.664
v 514.0241 86.97094 -1024.757
v 511.8188 86.57043 -1025.33
v 516.2275 88.94572 -1022.268
v 515.7891 90.12894 -1020.845
v 514.3694 91.13377 -1019.677
v 512.2493 91.76136 -1018.996
v 509.8488 91.88744 -1018.936
v 507.6434 91.48695 -1019.509
v 506.07 90.63913 -1020.603
v 505.4401 89.51207 -1021.999
v 505.8784 88.32896 -1023.421
v 507.2982 87.32403 -1024.589
v 509.4183 86.69643 -1025.27
v 510.8489 89.69913 -1022.519
v 493.212 79.47624 -1021.244
v 490.4451 75.43863 -1019.011
vt 0.993291 0.823711
vt 0.989935 0.81925
vt 0.980054 0.81624
vt 0.982615 0.820011
vt 0.965588 0.81096
vt 0.966992 0.815613
vt 0.949988 0.816105
vt 0.950121 0.812146
vt 0.935484 0.822093
vt 0.937501 0.81869
vt 0.922205 0.8251
vt 0.924922 0.820754
vt 0.976381 0.811679
vt 0.984966 0.816228
vt 0.963803 0.807199
vt 0.950397 0.808783
vt 0.939761 0.815032
vt 0.929578 0.817905
vt 0.971773 0.808659
vt 0.961724 0.805235
vt 0.950964 0.806518
vt 0.942428 0.811564
vt 0.935845 0.816496
vt 0.951915 0.806097
vt 0.959455 0.805282
vt 0.917828 0.833873
vt 0.924922 0.820754
vt 0.920071 0.827175
vt 0.920071 0.827175
vt 0.929578 0.817905
vt 0.924855 0.822398
vt 0.924922 0.820754
vt 0.917828 0.833873
vt 0.922205 0.8251
vt 0.920071 0.827175
vt 0.923277 0.835173
vt 0.917828 0.833873
vt 0.921287 0.842528
vt 0.933136 0.841466
vt 0.931938 0.84934
vt 0.947704 0.844786
vt 0.947679 0.852934
vt 0.96536 0.852582
vt 0.964065 0.844462
vt 0.98143 0.848357
vt 0.978939 0.840561
vt 0.992681 0.841117
vt 0.989356 0.833873
vt 0.996898 0.832319
vt 0.993267 0.825743
vt 0.989935 0.81925
vt 0.993291 0.823711
vt 0.935601 0.833501
vt 0.927032 0.828045
vt 0.924855 0.822398
vt 0.962466 0.836101
vt 0.948255 0.836381
vt 0.975389 0.83272
vt 0.984446 0.827204
vt 0.987854 0.821408
vt 0.933701 0.824314
vt 0.932084 0.820084
vt 0.935845 0.816496
vt 0.929578 0.817905
vt 0.939761 0.815032
vt 0.970959 0.825396
vt 0.960645 0.827928
vt 0.949306 0.82815
vt 0.93971 0.826909
vt 0.941867 0.814286
vt 0.942428 0.811564
vt 0.945994 0.809862
vt 0.950964 0.806518
vt 0.951915 0.806097
vt 0.944736 0.821328
vt 0.940937 0.820307
vt 0.939872 0.817642
vt 0.950804 0.820836
vt 0.958694 0.820663
vt 0.965875 0.819241
vt 0.970917 0.817643
vt 0.978194 0.822749
vt 0.980924 0.818692
vt 0.978627 0.814152
vt 0.984966 0.816228
vt 0.976381 0.811679
vt 0.971773 0.808659
vt 0.971233 0.811034
vt 0.96646 0.807383
vt 0.961724 0.805235
vt 0.959455 0.805282
vt 0.972826 0.814814
vt 0.963157 0.80958
vt 0.960708 0.808015
vt 0.957111 0.807203
vt 0.96397 0.811495
vt 0.962987 0.812996
vt 0.960398 0.814193
vt 0.956715 0.814907
vt 0.952675 0.815038
vt 0.949683 0.815708
vt 0.947719 0.815298
vt 0.947143 0.813969
vt 0.948012 0.811985
vt 0.950158 0.80983
vt 0.953193 0.807528
vt 0.95481 0.810355
vt 0.929578 0.817905
vt 0.924922 0.820754
vn 0.7458403 -0.1564246 -0.6474979
vn 0.7653797 -0.01696645 -0.6433553
vn 0.5002721 -0.2318219 -0.834258
vn 0.4181327 -0.3428275 -0.8412099
vn 0.14994 -0.3263283 -0.9332887
vn 0.1282213 -0.4046448 -0.9054402
vn -0.1578904 -0.3970236 -0.9041255
vn -0.2282336 -0.2808448 -0.9322209
vn -0.4929998 -0.2949788 -0.8184979
vn -0.5626287 -0.1760148 -0.8077548
vn -0.789371 -0.07581302 -0.6092174
vn -0.7939785 0.06489902 -0.6044719
vn 0.4409961 -0.03672185 -0.8967574
vn 0.7072452 0.1758124 -0.6847585
vn 0.1160377 -0.122538 -0.985657
vn -0.1751554 -0.07287002 -0.9818404
vn -0.4864343 0.01197246 -0.8736352
vn -0.7181159 0.2506455 -0.6492199
vn 0.3456143 0.1762163 -0.9216825
vn 0.08455881 0.1091523 -0.9904219
vn -0.1620771 0.1366955 -0.9772642
vn -0.3706546 0.2138275 -0.9038213
vn -0.5733259 0.3798154 -0.7259737
vn -0.09065832 0.3396494 -0.9361728
vn 0.08143056 0.3714289 -0.9248835
vn -0.9341297 0.3045642 -0.1861247
vn -0.7939785 0.06489902 -0.6044719
vn -0.8708356 0.4075634 -0.2748406
vn -0.8708356 0.4075634 -0.2748406
vn -0.7181159 0.2506455 -0.6492199
vn -0.7401726 0.543862 -0.3954221
vn -0.7939785 0.06489902 -0.6044719
vn -0.9341297 0.3045642 -0.1861247
vn -0.789371 -0.07581302 -0.6092174
vn -0.8708356 0.4075634 -0.2748406
vn -0.7448997 0.6567211 0.1176508
vn -0.9341297 0.3045642 -0.1861247
vn -0.7305822 0.633102 0.255796
vn -0.4823306 0.7922671 0.3737245
vn -0.4043134 0.774517 0.486471
vn -0.1329246 0.8577352 0.49661
vn -0.1150997 0.8144863 0.5686511
vn 0.1709099 0.8037273 0.569923
vn 0.2250454 0.8477023 0.4803702
vn 0.5068238 0.7266768 0.463757
vn 0.5469388 0.7602296 0.3505835
vn 0.8046304 0.5525017 0.2175129
vn 0.8144578 0.5748522 0.07876209
vn 0.9504613 0.2056231 -0.2331149
vn 0.8939627 0.3149107 -0.3188446
vn 0.7653797 -0.01696645 -0.6433553
vn 0.7458403 -0.1564246 -0.6474979
vn -0.4137086 0.8889627 0.1964443
vn -0.6781707 0.7323273 -0.06149064
vn -0.7401726 0.543862 -0.3954221
vn 0.2276169 0.9321367 0.2816237
vn -0.08963915 0.9471324 0.3080667
vn 0.5267054 0.8324741 0.1719544
vn 0.720386 0.6885729 -0.08313414
vn 0.7724545 0.4644435 -0.4331353
vn -0.5365461 0.8234088 -0.1847057
vn -0.5724329 0.6528245 -0.4961258
vn -0.5733259 0.3798154 -0.7259737
vn -0.7181159 0.2506455 -0.6492199
vn -0.4864343 0.01197246 -0.8736352
vn 0.4314271 0.9019017 -0.02106863
vn 0.1735795 0.9834763 0.05142434
vn -0.06632792 0.9931612 0.09608047
vn -0.3095311 0.9508788 -0.004487813
vn -0.3936437 0.5571742 -0.7311646
vn -0.3706546 0.2138275 -0.9038213
vn -0.2553582 0.4177829 -0.871923
vn -0.1620771 0.1366955 -0.9772642
vn -0.09065832 0.3396494 -0.9361728
vn -0.2110131 0.9525349 -0.2194329
vn -0.3692164 0.8517697 -0.3717088
vn -0.4104929 0.7187455 -0.56116
vn -0.02510588 0.9868128 -0.1599075
vn 0.1486976 0.9726551 -0.1784132
vn 0.2983712 0.9257918 -0.2321297
vn 0.4499062 0.8140065 -0.3673934
vn 0.6146319 0.7471587 -0.2529455
vn 0.6122485 0.5906231 -0.5256577
vn 0.5731384 0.3196135 -0.7545593
vn 0.7072452 0.1758124 -0.6847585
vn 0.4409961 -0.03672185 -0.8967574
vn 0.3456143 0.1762163 -0.9216825
vn 0.4129569 0.5148245 -0.7512804
vn 0.2540247 0.3910326 -0.884627
vn 0.08455881 0.1091523 -0.9904219
vn 0.08143056 0.3714289 -0.9248835
vn 0.435882 0.6939697 -0.5730733
vn 0.2277458 0.637976 -0.7356075
vn 0.1484991 0.5723942 -0.8064197
vn 0.0579015 0.5672099 -0.8215353
vn 0.2667091 0.7237278 -0.6364623
vn 0.2630041 0.8215384 -0.5058689
vn 0.1750206 0.8923591 -0.4160085
vn 0.07819139 0.9250641 -0.3716752
vn -0.01037697 0.9172104 -0.3982682
vn -0.1011336 0.9068561 -0.4091261
vn -0.1800142 0.8531094 -0.4896929
vn -0.234445 0.7596248 -0.6066345
vn -0.196006 0.6602242 -0.7250419
vn -0.1276691 0.5868858 -0.7995409
vn -0.03109019 0.5460418 -0.8371809
vn 0.02472819 0.77237 -0.6346913
vn -0.7181159 0.2506455 -0.6492199
vn -0.7939785 0.06489902 -0.6044719
g Mushroom3_0
f 3/3/3 2/2/2 1/1/1
f 3/3/3 1/1/1 4/4/4
f 3/3/3 4/4/4 5/5/5
f 5/5/5 4/4/4 6/6/6
f 6/6/6 7/7/7 5/5/5
f 8/8/8 5/5/5 7/7/7
f 7/7/7 9/9/9 8/8/8
f 10/10/10 8/8/8 9/9/9
f 9/9/9 11/11/11 10/10/10
f 12/12/12 10/10/10 11/11/11
f 13/13/13 2/2/2 3/3/3
f 3/3/3 5/5/5 13/13/13
f 13/13/13 14/14/14 2/2/2
f 15/15/15 13/13/13 5/5/5
f 5/5/5 8/8/8 15/15/15
f 16/16/16 15/15/15 8/8/8
f 10/10/10 17/17/17 8/8/8
f 16/16/16 8/8/8 17/17/17
f 10/10/10 12/12/12 17/17/17
f 18/18/18 17/17/17 12/12/12
f 13/13/13 15/15/15 19/19/19
f 20/20/20 19/19/19 15/15/15
f 15/15/15 16/16/16 20/20/20
f 21/21/21 20/20/20 16/16/16
f 17/17/17 22/22/22 16/16/16
f 21/21/21 16/16/16 22/22/22
f 22/22/22 17/17/17 23/23/23
f 21/21/21 24/24/24 20/20/20
f 25/25/25 20/20/20 24/24/24
f 28/28/28 27/27/27 26/26/26
f 31/31/31 30/30/30 29/29/29
f 34/34/34 33/33/33 32/32/32
f 37/37/37 36/36/36 35/35/35
f 36/36/36 37/37/37 38/38/38
f 38/38/38 39/39/39 36/36/36
f 39/39/39 38/38/38 40/40/40
f 39/39/39 40/40/40 41/41/41
f 41/41/41 40/40/40 42/42/42
f 42/42/42 43/43/43 41/41/41
f 44/44/44 41/41/41 43/43/43
f 43/43/43 45/45/45 44/44/44
f 46/46/46 44/44/44 45/45/45
f 45/45/45 47/47/47 46/46/46
f 48/48/48 46/46/46 47/47/47
f 47/47/47 49/49/49 48/48/48
f 50/50/50 48/48/48 49/49/49
f 49/49/49 51/51/51 50/50/50
f 52/52/52 51/51/51 49/49/49
f 39/39/39 41/41/41 53/53/53
f 53/53/53 36/36/36 39/39/39
f 36/36/36 53/53/53 54/54/54
f 54/54/54 35/35/35 36/36/36
f 35/35/35 54/54/54 55/55/55
f 44/44/44 46/46/46 56/56/56
f 56/56/56 57/57/57 44/44/44
f 57/57/57 53/53/53 41/41/41
f 41/41/41 44/44/44 57/57/57
f 58/58/58 56/56/56 46/46/46
f 46/46/46 48/48/48 58/58/58
f 59/59/59 58/58/58 48/48/48
f 48/48/48 50/50/50 59/59/59
f 60/60/60 59/59/59 50/50/50
f 61/61/61 55/55/55 54/54/54
f 54/54/54 53/53/53 61/61/61
f 55/55/55 61/61/61 62/62/62
f 62/62/62 63/63/63 55/55/55
f 64/64/64 55/55/55 63/63/63
f 64/64/64 63/63/63 65/65/65
f 58/58/58 59/59/59 66/66/66
f 58/58/58 66/66/66 56/56/56
f 67/67/67 56/56/56 66/66/66
f 67/67/67 68/68/68 56/56/56
f 57/57/57 56/56/56 68/68/68
f 68/68/68 69/69/69 57/57/57
f 69/69/69 61/61/61 53/53/53
f 53/53/53 57/57/57 69/69/69
f 63/63/63 62/62/62 70/70/70
f 63/63/63 70/70/70 71/71/71
f 72/72/72 71/71/71 70/70/70
f 71/71/71 72/72/72 73/73/73
f 74/74/74 73/73/73 72/72/72
f 69/69/69 68/68/68 75/75/75
f 75/75/75 76/76/76 69/69/69
f 61/61/61 69/69/69 76/76/76
f 76/76/76 62/62/62 61/61/61
f 77/77/77 70/70/70 62/62/62
f 77/77/77 62/62/62 76/76/76
f 78/78/78 75/75/75 68/68/68
f 68/68/68 67/67/67 78/78/78
f 79/79/79 78/78/78 67/67/67
f 79/79/79 67/67/67 80/80/80
f 66/66/66 80/80/80 67/67/67
f 80/80/80 66/66/66 81/81/81
f 82/82/82 81/81/81 66/66/66
f 82/82/82 66/66/66 59/59/59
f 59/59/59 60/60/60 82/82/82
f 83/83/83 82/82/82 60/60/60
f 82/82/82 83/83/83 81/81/81
f 60/60/60 84/84/84 83/83/83
f 84/84/84 60/60/60 85/85/85
f 50/50/50 85/85/85 60/60/60
f 51/51/51 85/85/85 50/50/50
f 85/85/85 86/86/86 84/84/84
f 87/87/87 84/84/84 86/86/86
f 84/84/84 87/87/87 88/88/88
f 88/88/88 83/83/83 84/84/84
f 89/89/89 88/88/88 87/87/87
f 87/87/87 90/90/90 89/89/89
f 91/91/91 89/89/89 90/90/90
f 92/92/92 81/81/81 83/83/83
f 88/88/88 92/92/92 83/83/83
f 88/88/88 89/89/89 93/93/93
f 94/94/94 93/93/93 89/89/89
f 89/89/89 91/91/91 94/94/94
f 95/95/95 94/94/94 91/91/91
f 93/93/93 96/96/96 88/88/88
f 92/92/92 88/88/88 96/96/96
f 96/96/96 97/97/97 92/92/92
f 81/81/81 92/92/92 97/97/97
f 81/81/81 97/97/97 80/80/80
f 98/98/98 80/80/80 97/97/97
f 80/80/80 98/98/98 79/79/79
f 99/99/99 79/79/79 98/98/98
f 79/79/79 99/99/99 78/78/78
f 100/100/100 78/78/78 99/99/99
f 100/100/100 101/101/101 78/78/78
f 75/75/75 78/78/78 101/101/101
f 101/101/101 102/102/102 75/75/75
f 76/76/76 75/75/75 102/102/102
f 102/102/102 103/103/103 76/76/76
f 77/77/77 76/76/76 103/103/103
f 77/77/77 103/103/103 70/70/70
f 104/104/104 70/70/70 103/103/103
f 104/104/104 72/72/72 70/70/70
f 105/105/105 72/72/72 104/104/104
f 72/72/72 105/105/105 74/74/74
f 106/106/106 74/74/74 105/105/105
f 74/74/74 106/106/106 91/91/91
f 95/95/95 91/91/91 106/106/106
f 107/107/107 95/95/95 106/106/106
f 107/107/107 106/106/106 105/105/105
f 107/107/107 105/105/105 104/104/104
f 107/107/107 104/104/104 103/103/103
f 107/107/107 103/103/103 102/102/102
f 107/107/107 102/102/102 101/101/101
f 107/107/107 101/101/101 100/100/100
f 107/107/107 94/94/94 95/95/95
f 107/107/107 93/93/93 94/94/94
f 107/107/107 96/96/96 93/93/93
f 107/107/107 97/97/97 96/96/96
f 107/107/107 98/98/98 97/97/97
f 107/107/107 99/99/99 98/98/98
f 107/107/107 100/100/100 99/99/99
f 109/109/109 35/35/35 108/108/108
