g NAX_Crystal_mesh
v 1285.332 56.35236 -108.5546
v 1277.191 56.35236 -109.618
v 1286.373 53.64535 -111.5717
v 1278.851 53.64535 -112.7441
v 1292.527 53.64535 -107.7616
v 1291.692 56.35236 -105.4383
v 1331.776 53.64534 -124.9465
v 1332.678 56.35236 -122.8979
v 1287.967 50.38179 -114.4915
v 1281.86 50.38179 -115.2767
v 1293.195 50.38179 -111.2227
v 1330.488 50.38179 -127.8702
v 1289.838 50.38179 -123.246
v 1287.237 50.38179 -125.6461
v 1294.827 50.38179 -121.2167
v 1329.494 50.38179 -137.0284
v 1345.1 56.35236 -128.2238
v 1344.154 53.64535 -130.372
v 1342.836 50.38179 -133.3675
v 1338.88 50.38179 -141.7635
v 1391.397 56.35236 -147.9676
v 1390.255 53.64535 -150.561
v 1388.797 50.38179 -153.8741
v 1385.469 50.38179 -162.5639
v 1323.491 50.38179 -175.3317
v 1314.105 50.38179 -171.9495
v 1318.671 50.38179 -188.0995
v 1307.545 50.38179 -182.9217
v 1298.632 50.38179 -231.9834
v 1288.109 50.38179 -227.179
v 1293.643 50.38179 -242.4682
v 1284.887 50.38179 -238.5452
v 1269.219 50.38179 -277.6537
v 1277.155 50.38179 -280.5178
v 1261.431 50.38179 -284.7025
v 1224.109 50.38179 -268.0474
v 1221.123 53.64535 -271.0948
v 1220.592 50.38179 -260.5757
v 1217.212 53.64535 -262.7874
v 1216.822 56.35236 -275.0959
v 1213.305 56.35236 -266.1093
v 1211.742 53.64535 -256.5357
v 1207.932 56.35236 -258.5872
v 1216.47 50.38179 -255.8646
v 1233.546 50.38179 -219.1329
v 1229.932 53.64535 -217.5417
v 1227.503 56.35236 -216.4722
v 1227.721 50.38179 -252.3855
v 1242.426 50.38179 -221.5367
v 1259.819 53.64536 -288.3631
v 1257.81 56.35236 -292.9254
v 1272.195 53.64536 -293.8795
v 1270.234 56.35236 -298.335
v 1273.806 50.38179 -290.218
v 1233.763 56.35236 -202.9551
v 1318.143 53.64536 -314.3742
v 1316.366 56.35236 -318.41
v 1328.629 53.64536 -319.0522
v 1326.895 56.35236 -322.9908
v 1365.085 56.35236 -339.6081
v 1364.326 53.64535 -334.9769
v 1330.24 50.38179 -315.3913
v 1363.934 50.38179 -330.4224
v 1371.75 53.64535 -329.9947
v 1374.383 56.35236 -335.1391
v 1365.085 56.35236 -339.6081
v 1383.454 56.35236 -331.7445
v 1379.956 53.64535 -327.9434
v 1370.064 50.38179 -325.5342
v 1377.124 50.38179 -324.5279
v 1366.867 50.38179 -316.9609
v 1371.771 50.38179 -315.7771
v 1364.246 50.38179 -319.2439
v 1333.045 50.38179 -305.2078
v 1396.933 53.64535 -291.0755
v 1401.034 56.35236 -292.8816
v 1393.315 50.38179 -289.4826
v 1385.385 50.38179 -284.2382
v 1403.2 53.64536 -277.501
v 1407.205 56.35236 -279.2634
v 1399.599 50.38179 -275.917
v 1390.769 50.38179 -272.2094
v 1355.72 50.38179 -256.5955
v 1349.787 50.38179 -268.1728
v 1422.84 53.64536 -234.8421
v 1426.558 56.35236 -236.4783
v 1419.295 50.38179 -233.2816
v 1410.037 50.38179 -228.0253
v 1429.137 53.64536 -221.1176
v 1432.769 56.35236 -222.7164
v 1451.265 56.35237 -181.8072
v 1446.772 53.64536 -182.784
v 1447.26 56.35237 -177.7044
v 1444.525 53.64536 -179.1696
v 1445.99 56.35236 -171.2569
v 1442.865 53.64535 -173.6013
v 1440.794 50.3818 -180.1138
v 1439.561 50.38179 -176.5211
v 1442.324 50.3818 -183.3427
v 1425.607 50.38179 -219.564
v 1430.468 50.3818 -183.3428
v 1429.139 50.38179 -181.1835
v 1431.132 50.3818 -185.5022
v 1416.408 50.38179 -214.6849
v 1380.532 50.38179 -199.6538
v 1374.324 50.38179 -212.4113
v 1395.705 50.38179 -167.4646
v 1399.284 50.38179 -158.5524
v 1400.774 53.64535 -155.1678
v 1401.959 56.35236 -152.4743
v 1365.43 50.38179 -208.8154
v 1345.475 50.38179 -252.4456
v 1340.063 50.38179 -263.6068
v 1371.18 50.38179 -196.0476
v 1325.266 50.38179 -301.0646
v 1319.754 50.38179 -310.7133
v 1285.332 56.35236 -108.5546
v 1274.806 52.00757 -106.0972
v 1277.191 56.35236 -109.618
v 1283.838 52.00757 -104.2072
v 1291.692 56.35236 -105.4383
v 1291.579 52.00757 -100.4142
v 1332.678 56.35236 -122.8979
v 1334.379 52.00757 -119.0343
v 1346.766 52.00757 -124.4364
v 1345.1 56.35236 -128.2238
v 1392.914 52.00757 -144.5207
v 1391.397 56.35236 -147.9676
v 1259.958 56.35236 -146.656
v 1256.649 52.00757 -145.1994
v 1253.616 56.35236 -160.3623
v 1250.315 52.00757 -158.9097
v 1233.763 56.35236 -202.9551
v 1230.495 52.00757 -201.5169
v 1227.503 56.35236 -216.4722
v 1224.245 52.00757 -215.0376
v 1204.207 52.00757 -258.2398
v 1207.932 56.35236 -258.5872
v 1211.503 52.00757 -266.8238
v 1213.305 56.35236 -266.1093
v 1214.507 52.00757 -276.9095
v 1216.822 56.35236 -275.0959
v 1257.81 56.35236 -292.9254
v 1256.62 52.00757 -295.6297
v 1270.234 56.35236 -298.335
v 1269.004 52.00757 -301.1304
v 1316.366 56.35236 -318.41
v 1314.979 52.00757 -321.5617
v 1326.895 56.35236 -322.9908
v 1325.471 52.00757 -326.2251
v 1367.98 52.00757 -345.1182
v 1365.085 56.35236 -339.6081
v 1374.383 56.35236 -335.1391
v 1386.496 52.00757 -336.7451
v 1383.454 56.35236 -331.7445
v 1376.307 52.00757 -339.3546
v 1365.085 56.35236 -339.6081
v 1401.034 56.35236 -292.8816
v 1405.136 52.00757 -294.6873
v 1407.205 56.35236 -279.2634
v 1411.196 52.00757 -281.0191
v 1426.558 56.35236 -236.4783
v 1430.22 52.00757 -238.0901
v 1432.769 56.35236 -222.7164
v 1436.335 52.00757 -224.2856
v 1455.374 52.00757 -181.3191
v 1451.265 56.35237 -181.8072
v 1450.386 52.00757 -176.1493
v 1447.26 56.35237 -177.7044
v 1449.363 52.00757 -169.0913
v 1445.99 56.35236 -171.2569
v 1401.959 56.35236 -152.4743
v 1403.443 52.00757 -149.1039
v 1367.98 52.00757 -345.1182
v 1365.085 56.35236 -339.6081
v 1277.155 50.38179 -280.5178
v 1325.266 50.38179 -301.0646
v 1281.213 41.65454 -277.0511
v 1324.336 41.65454 -296.4141
v 1294.996 41.65454 -244.4975
v 1277.155 50.38179 -280.5178
v 1281.213 41.65454 -277.0511
v 1293.643 50.38179 -242.4682
v 1337.442 41.65454 -264.3678
v 1293.643 50.38179 -242.4682
v 1294.996 41.65454 -244.4975
v 1340.063 50.38179 -263.6068
v 1324.336 41.65454 -296.4141
v 1340.063 50.38179 -263.6068
v 1337.442 41.65454 -264.3678
v 1325.266 50.38179 -301.0646
v 1298.632 50.38179 -231.9834
v 1345.475 50.38179 -252.4456
v 1301.845 41.65454 -229.7849
v 1344.291 41.65454 -248.5561
v 1345.475 50.38179 -252.4456
v 1365.43 50.38179 -208.8154
v 1344.291 41.65454 -248.5561
v 1362.555 41.65454 -209.4073
v 1319.432 41.65454 -190.6361
v 1298.632 50.38179 -231.9834
v 1301.845 41.65454 -229.7849
v 1318.671 50.38179 -188.0995
v 1365.43 50.38179 -208.8154
v 1318.671 50.38179 -188.0995
v 1362.555 41.65454 -209.4073
v 1319.432 41.65454 -190.6361
v 1323.491 50.38179 -175.3317
v 1371.18 50.38179 -196.0476
v 1326.619 41.65454 -173.8097
v 1339.302 41.65454 -143.6237
v 1323.491 50.38179 -175.3317
v 1326.619 41.65454 -173.8097
v 1338.88 50.38179 -141.7635
v 1383.863 41.65454 -163.4095
v 1338.88 50.38179 -141.7635
v 1339.302 41.65454 -143.6237
v 1385.469 50.38179 -162.5639
v 1371.18 50.38179 -196.0476
v 1385.469 50.38179 -162.5639
v 1370.503 41.65454 -193.5955
v 1383.863 41.65454 -163.4095
v 1230.768 50.38179 -255.9703
v 1231.259 50.38179 -260.2603
v 1231.259 50.38179 -260.2603
v 1269.219 50.38179 -277.6537
v 1234.789 41.65454 -256.8771
v 1268.713 41.65454 -272.332
v 1233.857 41.65454 -253.1755
v 1230.768 50.38179 -255.9703
v 1231.693 41.65454 -250.7675
v 1227.721 50.38179 -252.3855
v 1269.219 50.38179 -277.6537
v 1284.887 50.38179 -238.5452
v 1268.713 41.65454 -272.332
v 1282.353 41.65454 -239.8123
v 1284.887 50.38179 -238.5452
v 1242.426 50.38179 -221.5367
v 1282.353 41.65454 -239.8123
v 1244.485 41.65454 -223.8903
v 1248.271 50.38179 -211.0509
v 1239.81 50.38179 -205.6154
v 1236.212 53.64535 -204.0322
v 1253.616 56.35236 -160.3623
v 1256.13 53.64535 -161.4686
v 1259.669 50.38179 -163.0263
v 1269.91 50.38179 -165.9321
v 1259.958 56.35236 -146.656
v 1262.491 53.64535 -147.7707
v 1266.014 50.38179 -149.3212
v 1273.723 50.38179 -155.0159
v 1273.723 50.38179 -155.0159
v 1314.105 50.38179 -171.9495
v 1278.031 41.65454 -152.4817
v 1313.767 41.65454 -167.8063
v 1314.105 50.38179 -171.9495
v 1329.494 50.38179 -137.0284
v 1313.767 41.65454 -167.8063
v 1327.549 41.65454 -137.9585
v 1329.494 50.38179 -137.0284
v 1294.827 50.38179 -121.2167
v 1327.549 41.65454 -137.9585
v 1295.757 41.65454 -122.9923
v 1289.838 50.38179 -123.246
v 1292.375 41.65454 -124.5989
v 1287.237 50.38179 -125.6461
v 1289.669 41.65454 -127.4737
v 1273.723 50.38179 -155.0159
v 1278.031 41.65454 -152.4817
v 1307.545 50.38179 -182.9217
v 1269.91 50.38179 -165.9321
v 1305.264 41.65454 -184.1887
v 1271.177 41.65454 -168.9731
v 1287.855 41.65454 -223.8846
v 1307.545 50.38179 -182.9217
v 1305.264 41.65454 -184.1887
v 1288.109 50.38179 -227.179
v 1252.833 41.65454 -209.0236
v 1288.109 50.38179 -227.179
v 1287.855 41.65454 -223.8846
v 1248.271 50.38179 -211.0509
v 1269.91 50.38179 -165.9321
v 1248.271 50.38179 -211.0509
v 1271.177 41.65454 -168.9731
v 1252.833 41.65454 -209.0236
v 1242.426 50.38179 -221.5367
v 1227.721 50.38179 -252.3855
v 1244.485 41.65454 -223.8903
v 1231.693 41.65454 -250.7675
v 1355.72 50.38179 -256.5955
v 1390.769 50.38179 -272.2094
v 1360.371 41.65454 -253.9378
v 1389.606 41.65454 -268.8873
v 1375.155 41.65454 -215.5673
v 1355.72 50.38179 -256.5955
v 1360.371 41.65454 -253.9378
v 1374.324 50.38179 -212.4113
v 1407.379 41.65454 -229.8524
v 1374.324 50.38179 -212.4113
v 1375.155 41.65454 -215.5673
v 1410.037 50.38179 -228.0253
v 1390.769 50.38179 -272.2094
v 1410.037 50.38179 -228.0253
v 1389.606 41.65454 -268.8873
v 1407.379 41.65454 -229.8524
v 1380.532 50.38179 -199.6538
v 1416.408 50.38179 -214.6849
v 1384.077 41.65454 -199.0866
v 1395.705 50.38179 -167.4646
v 1380.532 50.38179 -199.6538
v 1396.981 41.65454 -169.5917
v 1384.077 41.65454 -199.0866
v 1426.149 41.65454 -181.5156
v 1395.705 50.38179 -167.4646
v 1396.981 41.65454 -169.5917
v 1429.139 50.38179 -181.1835
v 1427.478 41.65454 -183.675
v 1430.468 50.3818 -183.3428
v 1427.478 41.65454 -186.1666
v 1431.132 50.3818 -185.5022
v 1414.99 41.65454 -211.5652
v 1416.408 50.38179 -214.6849
v 1384.077 41.65454 -199.0866
v 1416.408 50.38179 -214.6849
v 1414.99 41.65454 -211.5652
v 1349.787 50.38179 -268.1728
v 1333.045 50.38179 -305.2078
v 1351.986 41.65454 -271.555
v 1338.964 41.65454 -302.8403
v 1383.271 41.65454 -285.6756
v 1349.787 50.38179 -268.1728
v 1351.986 41.65454 -271.555
v 1385.385 50.38179 -284.2382
v 1371.518 41.65454 -312.2258
v 1385.385 50.38179 -284.2382
v 1383.271 41.65454 -285.6756
v 1371.771 50.38179 -315.7771
v 1367.29 41.65454 -313.6633
v 1366.867 50.38179 -316.9609
v 1365.345 41.65454 -315.1007
v 1364.246 50.38179 -319.2439
v 1366.867 50.38179 -316.9609
v 1365.345 41.65454 -315.1007
v 1333.045 50.38179 -305.2078
v 1364.246 50.38179 -319.2439
v 1338.964 41.65454 -302.8403
v 1365.345 41.65454 -315.1007
v 1326.619 41.65454 -173.8097
v 1371.18 50.38179 -196.0476
v 1370.503 41.65454 -193.5955
vt 0.031168 0.420989
vt 0.015667 0.411608
vt 0.035341 0.414236
vt 0.021203 0.405195
vt 0.044378 0.427386
vt 0.041249 0.432936
vt 0.140797 0.42754
vt 0.141531 0.434079
vt 0.040404 0.407861
vt 0.028795 0.400867
vt 0.048042 0.419081
vt 0.139914 0.418586
vt 0.051932 0.391878
vt 0.048817 0.384736
vt 0.060186 0.400388
vt 0.146027 0.39925
vt 0.171359 0.434356
vt 0.170591 0.427577
vt 0.169668 0.418451
vt 0.169136 0.398026
vt 0.282432 0.435603
vt 0.281535 0.427751
vt 0.280456 0.41786
vt 0.281452 0.3974
vt 0.167875 0.315072
vt 0.145965 0.31357
vt 0.169478 0.285073
vt 0.14247 0.285646
vt 0.167988 0.171466
vt 0.142525 0.171821
vt 0.167227 0.145917
vt 0.146107 0.146062
vt 0.149194 0.047729
vt 0.167723 0.04899
vt 0.139747 0.026623
vt 0.047809 0.027108
vt 0.045243 0.019697
vt 0.034101 0.039048
vt 0.029979 0.03299
vt 0.040733 0.008936
vt 0.025644 0.023967
vt 0.013393 0.040751
vt 0.008106 0.03439
vt 0.021619 0.044888
vt 0.023476 0.13968
vt 0.015493 0.14122
vt 0.010226 0.142501
vt 0.041209 0.06187
vt 0.043501 0.142705
vt 0.140623 0.019193
vt 0.14135 0.009334
vt 0.170491 0.019044
vt 0.171255 0.009444
vt 0.169572 0.026476
vt 0.010862 0.175371
vt 0.281397 0.018465
vt 0.282288 0.009876
vt 0.306708 0.018331
vt 0.307629 0.009976
vt 0.40644 0.010338
vt 0.399768 0.017877
vt 0.305601 0.025763
vt 0.393712 0.025334
vt 0.410327 0.034519
vt 0.421253 0.027627
vt 0.40644 0.010338
vt 0.436562 0.042544
vt 0.425065 0.045941
vt 0.40173 0.040617
vt 0.415065 0.048901
vt 0.387691 0.05506
vt 0.396525 0.061792
vt 0.384433 0.048136
vt 0.302228 0.04877
vt 0.426604 0.141043
vt 0.437549 0.142317
vt 0.416634 0.139511
vt 0.396006 0.143051
vt 0.427203 0.173997
vt 0.437916 0.175311
vt 0.417275 0.172416
vt 0.396195 0.172061
vt 0.304839 0.172464
vt 0.303143 0.143876
vt 0.428978 0.284926
vt 0.438999 0.286359
vt 0.419179 0.283202
vt 0.395865 0.28559
vt 0.429504 0.318209
vt 0.439321 0.319681
vt 0.440338 0.420432
vt 0.431069 0.412885
vt 0.428602 0.425162
vt 0.423329 0.418185
vt 0.420308 0.43706
vt 0.415035 0.427947
vt 0.415383 0.411066
vt 0.409715 0.417213
vt 0.421328 0.405915
vt 0.419742 0.316439
vt 0.397437 0.395408
vt 0.392845 0.398582
vt 0.400689 0.391646
vt 0.396881 0.318118
vt 0.304373 0.316613
vt 0.30317 0.285404
vt 0.306421 0.396596
vt 0.305735 0.417727
vt 0.306849 0.42779
vt 0.307775 0.435884
vt 0.28206 0.284767
vt 0.280516 0.171746
vt 0.279503 0.14446
vt 0.282331 0.315591
vt 0.282881 0.050224
vt 0.280325 0.025896
vt 0.031168 0.420989
vt 0.006791 0.414061
vt 0.015667 0.411608
vt 0.023328 0.425882
vt 0.041249 0.432936
vt 0.035573 0.440395
vt 0.141531 0.434079
vt 0.140361 0.440805
vt 0.170132 0.440898
vt 0.171359 0.434356
vt 0.281 0.441324
vt 0.282432 0.435603
vt 0.013761 0.319799
vt 0.004854 0.317437
vt 0.013126 0.286474
vt 0.004242 0.284173
vt 0.010862 0.175371
vt 0.00206 0.173261
vt 0.010226 0.142501
vt 0.001448 0.140454
vt -0.000645 0.029926
vt 0.008106 0.03439
vt 0.021681 0.019087
vt 0.025644 0.023967
vt 0.036683 0.001414
vt 0.040733 0.008936
vt 0.14135 0.009334
vt 0.140173 0.001012
vt 0.171255 0.009444
vt 0.170024 0.000902
vt 0.282288 0.009876
vt 0.280851 0.000475
vt 0.307629 0.009976
vt 0.306144 0.000377
vt 0.415513 -2.1E-05
vt 0.40644 0.010338
vt 0.421253 0.027627
vt 0.445424 0.033284
vt 0.436562 0.042544
vt 0.427191 0.018985
vt 0.40644 0.010338
vt 0.437549 0.142317
vt 0.445711 0.140264
vt 0.437916 0.175311
vt 0.44581 0.1732
vt 0.438999 0.286359
vt 0.446101 0.284054
vt 0.439321 0.319681
vt 0.446188 0.317314
vt 0.446476 0.422512
vt 0.440338 0.420432
vt 0.431834 0.428514
vt 0.428602 0.425162
vt 0.423512 0.441839
vt 0.420308 0.43706
vt 0.307775 0.435884
vt 0.306296 0.441419
vt 0.415513 -2.1E-05
vt 0.40644 0.010338
vt 0.167723 0.04899
vt 0.282881 0.050224
vt 0.170365 0.05576
vt 0.274036 0.054961
vt 0.169292 0.138925
vt 0.167723 0.04899
vt 0.170365 0.05576
vt 0.167227 0.145917
vt 0.272053 0.136511
vt 0.167227 0.145917
vt 0.169292 0.138925
vt 0.279503 0.14446
vt 0.274036 0.054961
vt 0.279503 0.14446
vt 0.272053 0.136511
vt 0.282881 0.050224
vt 0.167988 0.171466
vt 0.280516 0.171746
vt 0.170052 0.17451
vt 0.271842 0.174302
vt 0.280516 0.171746
vt 0.28206 0.284767
vt 0.271842 0.174302
vt 0.273943 0.276442
vt 0.170794 0.276052
vt 0.167988 0.171466
vt 0.170052 0.17451
vt 0.169478 0.285073
vt 0.28206 0.284767
vt 0.169478 0.285073
vt 0.273943 0.276442
vt 0.170794 0.276052
vt 0.167875 0.315072
vt 0.282331 0.315591
vt 0.170366 0.316179
vt 0.169177 0.389652
vt 0.167875 0.315072
vt 0.170366 0.316179
vt 0.169136 0.398026
vt 0.276107 0.389274
vt 0.169136 0.398026
vt 0.169177 0.389652
vt 0.281452 0.3974
vt 0.282331 0.315591
vt 0.281452 0.3974
vt 0.275939 0.315204
vt 0.276107 0.389274
vt 0.050525 0.057346
vt 0.055316 0.049136
vt 0.055316 0.049136
vt 0.149194 0.047729
vt 0.057381 0.055271
vt 0.141101 0.054196
vt 0.05224 0.06188
vt 0.050525 0.057346
vt 0.04577 0.064803
vt 0.041209 0.06187
vt 0.149194 0.047729
vt 0.146107 0.146062
vt 0.141101 0.054196
vt 0.139773 0.137168
vt 0.146107 0.146062
vt 0.043501 0.142705
vt 0.139773 0.137168
vt 0.047721 0.135699
vt 0.045986 0.169015
vt 0.02412 0.17247
vt 0.016175 0.174054
vt 0.013126 0.286474
vt 0.018594 0.285037
vt 0.026393 0.283308
vt 0.049606 0.286529
vt 0.013761 0.319799
vt 0.019274 0.318323
vt 0.027033 0.316548
vt 0.047615 0.311905
vt 0.047615 0.311905
vt 0.145965 0.31357
vt 0.052019 0.316097
vt 0.139263 0.316884
vt 0.145965 0.31357
vt 0.146027 0.39925
vt 0.139263 0.316884
vt 0.140579 0.390649
vt 0.146027 0.39925
vt 0.060186 0.400388
vt 0.140579 0.390649
vt 0.061568 0.392624
vt 0.051932 0.391878
vt 0.056196 0.386412
vt 0.048817 0.384736
vt 0.053302 0.378252
vt 0.047615 0.311905
vt 0.052019 0.316097
vt 0.14247 0.285646
vt 0.049606 0.286529
vt 0.136658 0.276487
vt 0.05282 0.276937
vt 0.136756 0.174003
vt 0.14247 0.285646
vt 0.136658 0.276487
vt 0.142525 0.171821
vt 0.051353 0.172916
vt 0.142525 0.171821
vt 0.136756 0.174003
vt 0.045986 0.169015
vt 0.049606 0.286529
vt 0.045986 0.169015
vt 0.05282 0.276937
vt 0.051353 0.172916
vt 0.043501 0.142705
vt 0.041209 0.06187
vt 0.047721 0.135699
vt 0.04577 0.064803
vt 0.304839 0.172464
vt 0.396195 0.172061
vt 0.308877 0.177696
vt 0.387662 0.173495
vt 0.304678 0.2752
vt 0.304839 0.172464
vt 0.308877 0.177696
vt 0.30317 0.285404
vt 0.388879 0.274973
vt 0.30317 0.285404
vt 0.304678 0.2752
vt 0.395865 0.28559
vt 0.396195 0.172061
vt 0.395865 0.28559
vt 0.387662 0.173495
vt 0.388879 0.274973
vt 0.304373 0.316613
vt 0.396881 0.318118
vt 0.308039 0.316165
vt 0.306421 0.396596
vt 0.304373 0.316613
vt 0.307903 0.388446
vt 0.308039 0.316165
vt 0.383883 0.390261
vt 0.306421 0.396596
vt 0.307903 0.388446
vt 0.392845 0.398582
vt 0.388457 0.387099
vt 0.397437 0.395408
vt 0.390657 0.382097
vt 0.400689 0.391646
vt 0.388011 0.318407
vt 0.396881 0.318118
vt 0.308039 0.316165
vt 0.396881 0.318118
vt 0.388011 0.318407
vt 0.303143 0.143876
vt 0.302228 0.04877
vt 0.307596 0.134923
vt 0.309078 0.054975
vt 0.389767 0.134197
vt 0.303143 0.143876
vt 0.307596 0.134923
vt 0.396006 0.143051
vt 0.389613 0.064876
vt 0.396006 0.143051
vt 0.389767 0.134197
vt 0.396525 0.061792
vt 0.382395 0.058257
vt 0.387691 0.05506
vt 0.379759 0.053654
vt 0.384433 0.048136
vt 0.387691 0.05506
vt 0.379759 0.053654
vt 0.302228 0.04877
vt 0.384433 0.048136
vt 0.309078 0.054975
vt 0.379759 0.053654
vt 0.170366 0.316179
vt 0.282331 0.315591
vt 0.275939 0.315204
vn 0.2543281 0.7340034 -0.6297271
vn 0.3806653 0.7839285 -0.490459
vn 0.2324968 0.741807 -0.6290212
vn 0.3718413 0.7723589 -0.5149717
vn 0.02048696 0.7181704 -0.6955656
vn -0.1088641 0.6526701 -0.7497802
vn -0.3034404 0.648134 -0.6984598
vn -0.302866 0.637222 -0.708675
vn 0.10515 0.9219682 -0.3727171
vn 0.1234656 0.9753406 -0.1829396
vn 0.080307 0.9351578 -0.3450082
vn -0.2091754 0.8557214 -0.4732722
vn 0 1 0
vn 0 1 0
vn 0 1 0
vn 0 1 0
vn -0.3011486 0.6491683 -0.6984912
vn -0.2892176 0.6919534 -0.6614783
vn -0.151586 0.9273398 -0.342144
vn 0 1 0
vn -0.281811 0.7010788 -0.6550351
vn -0.2741348 0.7293926 -0.6267667
vn -0.1447119 0.9340991 -0.3263698
vn 0 1 0
vn 0 1 0
vn 0 1 0
vn 0 1 0
vn 0 1 0
vn 0 1 0
vn 0 1 0
vn 0 1 0
vn 0 1 0
vn 0 1 0
vn 0 1 0
vn 0.136694 0.9420226 0.3064443
vn 0.1461916 0.9779443 0.1491738
vn 0.3824134 0.8370613 0.3912651
vn 0.2868343 0.9429407 0.1690827
vn 0.4577776 0.8376433 0.297982
vn 0.3097795 0.899902 0.3069411
vn 0.4143763 0.8704168 0.2658323
vn 0.5428036 0.8391699 0.0340329
vn 0.6100796 0.7854602 -0.104187
vn 0.2738067 0.9563925 0.1017026
vn 0.405783 0.8942881 -0.1886504
vn 0.62604 0.7234026 -0.2911402
vn 0.6478451 0.699981 -0.3005383
vn 0 1 0
vn 0 1 0
vn 0.2243525 0.8335024 0.5049155
vn 0.1928894 0.8771894 0.4396957
vn 0.2273713 0.8285695 0.5116394
vn 0.2002951 0.8668917 0.4564871
vn 0.1366266 0.9420289 0.3064552
vn 0.645986 0.7018532 -0.3001737
vn 0.2327545 0.8194743 0.5237243
vn 0.2114529 0.8503099 0.4819345
vn 0.2311474 0.820926 0.5221604
vn 0.2124383 0.8464509 0.4882528
vn 0.1551479 0.9465956 0.2826408
vn -0.01155742 0.8518841 0.5236028
vn 0.1810032 0.8958904 0.4057318
vn -0.08188299 0.9570202 0.2782224
vn -0.229513 0.8535454 0.4677437
vn -0.2038812 0.8904592 0.4068352
vn 0.07528739 0.8616493 0.5018888
vn -0.3048078 0.8911036 0.3361941
vn -0.3386737 0.8412303 0.4214638
vn -0.1047042 0.9507944 0.2915938
vn -0.1179201 0.9798014 0.1615053
vn 0 1 0
vn 0 1 0
vn 0 1 0
vn 0 1 0
vn -0.5224482 0.8180764 0.240414
vn -0.4732413 0.8541275 0.2156594
vn -0.3062367 0.9413873 0.1414533
vn 0 1 0
vn -0.5299439 0.8122379 0.2437806
vn -0.487524 0.8444313 0.2219373
vn -0.3077774 0.94076 0.142281
vn 0 1 0
vn 0 1 0
vn 0 1 0
vn -0.5419328 0.8028399 0.2485096
vn -0.5076835 0.8301213 0.2305557
vn -0.3104221 0.9397731 0.1430552
vn 0 1 0
vn -0.5413204 0.8036029 0.2473755
vn -0.5135401 0.826112 0.2319815
vn -0.5114684 0.8588268 0.02857619
vn -0.5654125 0.8232818 -0.05015622
vn -0.5499721 0.7810189 -0.2958718
vn -0.5913535 0.7693931 -0.2415268
vn -0.4561848 0.799821 -0.3901048
vn -0.4409413 0.8039553 -0.3990323
vn -0.319747 0.9400651 -0.1184884
vn -0.1495441 0.9791712 -0.1373322
vn -0.3072388 0.9497091 -0.06047437
vn -0.4142325 0.8899902 0.1906012
vn 0 1 0
vn 0 1 0
vn 0 1 0
vn 0 1 0
vn 0 1 0
vn 0 1 0
vn 0 1 0
vn -0.1408 0.9377172 -0.3175876
vn -0.2651961 0.7496698 -0.6063548
vn -0.2694575 0.7316948 -0.6261114
vn 0 1 0
vn 0 1 0
vn 0 1 0
vn 0 1 0
vn 0 1 0
vn 0.1366918 0.9420271 0.3064315
vn -0.1817952 0.7062379 0.6842356
vn -0.4351456 0.7112728 0.5520321
vn -0.4254726 0.6991479 0.5746002
vn -0.2502304 0.7264578 0.6400342
vn -0.1167321 0.7525095 0.6481537
vn 0.08751586 0.7441003 0.6623108
vn 0.2820447 0.7023033 0.6536214
vn 0.2864028 0.6968598 0.6575407
vn 0.2870097 0.6920625 0.6623253
vn 0.290322 0.6782602 0.675038
vn 0.2957359 0.6667104 0.6841327
vn 0.2991356 0.6521889 0.6965397
vn -0.6964191 0.6407248 0.3232213
vn -0.6978144 0.6392702 0.3230923
vn -0.6979201 0.6389254 0.3235454
vn -0.6988838 0.6373507 0.3245699
vn -0.6997029 0.6361182 0.3252225
vn -0.7012435 0.6345153 0.3250352
vn -0.7022893 0.6331243 0.3254895
vn -0.7019349 0.6337593 0.3250177
vn -0.756103 0.653467 0.03590581
vn -0.7741098 0.5677481 -0.2800286
vn -0.7697748 0.4462308 -0.4564261
vn -0.8101628 0.4540968 -0.3707187
vn -0.6241662 0.5407928 -0.5638793
vn -0.5946516 0.5582597 -0.5785632
vn -0.3363919 0.5456192 -0.7675548
vn -0.3327097 0.5666128 -0.7538263
vn -0.3295583 0.5708557 -0.7520074
vn -0.3257183 0.5906562 -0.7382634
vn -0.3192382 0.6060168 -0.7285813
vn -0.3153439 0.6244447 -0.7145817
vn -0.3100417 0.6378973 -0.7049548
vn -0.3150808 0.6309991 -0.7089176
vn -0.1004104 0.7466142 -0.6576359
vn 0.1144263 0.7757415 -0.6205899
vn 0.2268991 0.7525562 -0.6182038
vn 0.4237772 0.7766533 -0.4660712
vn 0.4233685 0.7954735 -0.4335676
vn 0.2667271 0.7622144 -0.5898184
vn 0.1144263 0.7757415 -0.6205899
vn 0.6266226 0.7266362 -0.2816807
vn 0.6386055 0.7147479 -0.285164
vn 0.6408679 0.7115281 -0.288125
vn 0.6538137 0.6981462 -0.2917528
vn 0.6622072 0.6878369 -0.2972575
vn 0.6746185 0.6741242 -0.300743
vn 0.6847317 0.6612783 -0.3063551
vn 0.6807607 0.6675358 -0.3015971
vn 0.7171381 0.6964899 -0.0247977
vn 0.6776326 0.6761478 0.2892028
vn 0.6606589 0.6231091 0.4186465
vn 0.7178903 0.637877 0.2788304
vn 0.5785502 0.6765108 0.4556455
vn 0.5672523 0.6753275 0.471336
vn 0.3053412 0.633442 0.7109979
vn 0.3018115 0.6493872 0.6980015
vn -0.1004104 0.7466142 -0.6576359
vn 0.1910777 0.96308 -0.1896476
vn 0.3444279 0.4805464 0.8065014
vn 0.3598448 0.4429961 0.8211371
vn 0.3598448 0.4429961 0.8211371
vn 0.3745918 0.4046209 0.8342438
vn 0.8909348 0.246131 -0.3816474
vn 0.8909348 0.246131 -0.3816474
vn 0.8882741 0.2637017 -0.3760725
vn 0.8932863 0.2284749 -0.3870901
vn -0.4130079 0.1716261 -0.8944099
vn -0.4130079 0.1716261 -0.8944099
vn -0.4195903 0.1433797 -0.8963182
vn -0.4060766 0.1997274 -0.891746
vn -0.8957942 0.2604905 0.3601354
vn -0.8957942 0.2604905 0.3601354
vn -0.8989974 0.2379662 0.3676628
vn -0.8920766 0.2828652 0.3524013
vn 0.3744133 0.3537604 0.8571279
vn 0.3779383 0.3432282 0.8598588
vn 0.3779383 0.3432282 0.8598588
vn 0.3814139 0.3326511 0.8624771
vn -0.8689336 0.2949774 0.3974201
vn -0.8720819 0.2777961 0.4028678
vn -0.8720819 0.2777961 0.4028678
vn -0.8749382 0.2605217 0.4081807
vn 0.8903283 0.2113848 -0.4032765
vn 0.8903283 0.2113848 -0.4032765
vn 0.8884621 0.22655 -0.3991368
vn 0.8919713 0.1961667 -0.4073152
vn -0.3975435 0.1918073 -0.8973122
vn -0.3932424 0.2087976 -0.8954127
vn -0.3932424 0.2087976 -0.8954127
vn -0.388819 0.2257229 -0.893235
vn 0.3813323 0.2897875 0.8778433
vn 0.3914671 0.2544932 0.8843001
vn 0.3914671 0.2544932 0.8843001
vn 0.898232 0.1933984 -0.3946849
vn 0.898232 0.1933984 -0.3946849
vn 0.891623 0.2542817 -0.3746319
vn 0.9011111 0.131712 -0.413099
vn -0.4010379 0.1669493 -0.90072
vn -0.4010379 0.1669493 -0.90072
vn -0.3997315 0.1725193 -0.9002509
vn -0.4023311 0.1613737 -0.9011594
vn -0.9049483 0.1786474 0.3862041
vn -0.9062482 0.1534086 0.3939291
vn -0.9062482 0.1534086 0.3939291
vn -0.9069151 0.1280627 0.401379
vn 0 1 0
vn 0 1 0
vn 0.7877247 0.4585132 0.4114068
vn 0.3678145 0.4654403 0.8050329
vn 0.5753724 0.4899115 0.65493
vn 0.3661909 0.4688685 0.8037826
vn 0.8482544 0.4226582 0.3190998
vn 0.7897964 0.4196099 0.4473805
vn 0.6809422 0.4269242 0.5950237
vn 0.6904863 0.4230111 0.5867624
vn -0.8937408 0.2702374 0.3580492
vn -0.8984663 0.2387682 0.36844
vn -0.8984663 0.2387682 0.36844
vn -0.9021851 0.2070315 0.3784179
vn -0.3613474 0.2358986 -0.9020975
vn -0.3724504 0.1957366 -0.9071758
vn -0.3724504 0.1957366 -0.9071758
vn -0.3828972 0.1552296 -0.9106556
vn 0 1 0
vn 0.3089783 0.940112 -0.1439506
vn 0.6109917 0.7386935 -0.2846421
vn 0.6392851 0.7090275 -0.2976483
vn 0.6097494 0.7400086 -0.283889
vn 0.3117774 0.9390521 -0.1448309
vn 0 1 0
vn 0.6351892 0.7138801 -0.294805
vn 0.6092027 0.7406445 -0.2834038
vn 0.3132878 0.9384097 -0.1457328
vn 0 1 0
vn 0.351502 0.4169175 0.838228
vn 0.3574179 0.4025368 0.8427435
vn 0.3574179 0.4025368 0.8427435
vn 0.3632401 0.3880506 0.847038
vn -0.8924035 0.2212734 0.393261
vn -0.8951399 0.1886007 0.4039237
vn -0.8951399 0.1886007 0.4039237
vn -0.8968123 0.1557039 0.4141063
vn -0.4077224 0.1861252 -0.893935
vn -0.1658959 0.1960714 -0.9664547
vn -0.4149325 0.1618043 -0.8953494
vn 0.1302246 0.2227614 -0.966136
vn 0.482309 0.2617296 -0.8359879
vn 0.5907759 0.2971129 -0.7501385
vn 0.7417153 0.3198874 -0.5895172
vn 0.8117772 0.322998 -0.486508
vn 0.8610978 0.3158235 -0.3984546
vn 0.8622364 0.3091231 -0.401237
vn -0.4000995 0.2332391 -0.8862956
vn -0.3973613 0.2419957 -0.8851791
vn -0.3973613 0.2419957 -0.8851791
vn -0.3945892 0.2507317 -0.883987
vn -0.90126 0.1768646 0.3955367
vn -0.90126 0.1768646 0.3955367
vn -0.9011523 0.1781256 0.3952163
vn -0.9013662 0.1756034 0.3958565
vn 0.3588494 0.3497731 0.8653819
vn 0.3588494 0.3497731 0.8653819
vn 0.3702549 0.3186322 0.8725736
vn 0.3470306 0.3805112 0.8571937
vn 0.8679086 0.2710511 -0.4162525
vn 0.8599575 0.3128146 -0.403262
vn 0.8599575 0.3128146 -0.403262
vn 0.8503069 0.35396 -0.3894746
vn 0.8574687 0.3125673 -0.4087164
vn 0.8573092 0.3134994 -0.4083371
vn 0.8573092 0.3134994 -0.4083371
vn 0.8571486 0.3144311 -0.4079573
vn 0.3646992 0.4436568 0.8186349
vn 0.4035745 0.3575608 0.8421865
vn 0.4035745 0.3575608 0.8421865
vn 0.4386245 0.2680756 0.8577552
vn 0.8867347 0.2927629 -0.3577589
vn 0.8867347 0.2927629 -0.3577589
vn 0.8700044 0.3615731 -0.3351971
vn 0.8985668 0.2223355 -0.3783444
vn -0.3856369 0.2898858 -0.8759283
vn -0.3856369 0.2898858 -0.8759283
vn -0.3890155 0.2803217 -0.8775458
vn -0.3822177 0.2994193 -0.8742184
vn -0.883983 0.2645144 0.3854948
vn -0.8897438 0.2259555 0.3966105
vn -0.8897438 0.2259555 0.3966105
vn -0.8940424 0.1870252 0.4070745
vn 0.3776438 0.2119846 0.9013588
vn 0.3696095 0.2366986 0.8985336
vn 0.3696095 0.2366986 0.8985336
vn 0.8803264 0.2298593 -0.4149578
vn 0.8742484 0.278843 -0.3974119
vn 0.8742484 0.278843 -0.3974119
vn 0.8657714 0.3270614 -0.3787754
vn -0.5437008 0.2189604 -0.8102134
vn -0.3737827 0.1654541 -0.9126398
vn -0.3730337 0.1678546 -0.912508
vn -0.6970075 0.2641623 -0.6666324
vn -0.884195 0.3160105 -0.3440008
vn -0.9009089 0.3450599 -0.2632427
vn -0.9311859 0.3609572 0.05101729
vn -0.912291 0.3551801 0.2038924
vn -0.8515035 0.3082595 0.4241675
vn -0.8536959 0.2926899 0.4307389
vn 0.3696095 0.2366986 0.8985336
vn 0.3696095 0.2366986 0.8985336
vn 0.3613227 0.2612509 0.8950943
vn 0.8491799 0.3626747 -0.3838755
vn 0.8351618 0.4133354 -0.362848
vn 0.8351618 0.4133354 -0.362848
vn 0.8184667 0.4626713 -0.3406574
vn -0.3991188 0.2422483 -0.8843189
vn -0.3991188 0.2422483 -0.8843189
vn -0.399143 0.2421743 -0.8843282
vn -0.3990946 0.2423222 -0.8843095
vn -0.7578048 0.253677 0.6011487
vn -0.9031119 0.1688834 0.3948002
vn -0.9036462 0.1530076 0.4000154
vn -0.5164565 0.3220054 0.7934641
vn -0.3697623 0.3271751 0.8696162
vn -0.4857396 0.2946848 0.8229324
vn -0.3126776 0.3652675 0.8768194
vn -0.6332387 0.2654003 0.7270293
vn -0.4857396 0.2946848 0.8229324
vn -0.6036086 0.2655072 0.751773
vn 0.3631495 0.4652765 0.8072423
vn 0.3713403 0.4503892 0.8119458
vn 0.3713403 0.4503892 0.8119458
vn -0.1106715 0.4003561 0.909652
vn 0.3914671 0.2544932 0.8843001
vn 0.3914671 0.2544932 0.8843001
vn 0.4010577 0.2188451 0.8895278
g NAX_Crystal_mesh_0
f 3/3/3 2/2/2 1/1/1
f 4/4/4 2/2/2 3/3/3
f 3/3/3 1/1/1 5/5/5
f 5/5/5 1/1/1 6/6/6
f 5/5/5 6/6/6 7/7/7
f 7/7/7 6/6/6 8/8/8
f 9/9/9 4/4/4 3/3/3
f 10/10/10 4/4/4 9/9/9
f 11/11/11 3/3/3 5/5/5
f 9/9/9 3/3/3 11/11/11
f 12/12/12 5/5/5 7/7/7
f 11/11/11 5/5/5 12/12/12
f 13/13/13 10/10/10 9/9/9
f 14/14/14 10/10/10 13/13/13
f 15/15/15 9/9/9 11/11/11
f 13/13/13 9/9/9 15/15/15
f 16/16/16 11/11/11 12/12/12
f 15/15/15 11/11/11 16/16/16
f 17/17/17 7/7/7 8/8/8
f 18/18/18 7/7/7 17/17/17
f 18/18/18 12/12/12 7/7/7
f 19/19/19 12/12/12 18/18/18
f 19/19/19 16/16/16 12/12/12
f 20/20/20 16/16/16 19/19/19
f 21/21/21 18/18/18 17/17/17
f 22/22/22 18/18/18 21/21/21
f 22/22/22 19/19/19 18/18/18
f 23/23/23 19/19/19 22/22/22
f 23/23/23 20/20/20 19/19/19
f 24/24/24 20/20/20 23/23/23
f 20/20/20 25/25/25 16/16/16
f 16/16/16 25/25/25 26/26/26
f 25/25/25 27/27/27 26/26/26
f 26/26/26 27/27/27 28/28/28
f 27/27/27 29/29/29 28/28/28
f 28/28/28 29/29/29 30/30/30
f 29/29/29 31/31/31 30/30/30
f 30/30/30 31/31/31 32/32/32
f 31/31/31 33/33/33 32/32/32
f 34/34/34 33/33/33 31/31/31
f 33/33/33 34/34/34 35/35/35
f 36/36/36 33/33/33 35/35/35
f 36/36/36 35/35/35 37/37/37
f 36/36/36 37/37/37 38/38/38
f 38/38/38 37/37/37 39/39/39
f 37/37/37 40/40/40 39/39/39
f 39/39/39 40/40/40 41/41/41
f 39/39/39 41/41/41 42/42/42
f 42/42/42 41/41/41 43/43/43
f 44/44/44 39/39/39 42/42/42
f 38/38/38 39/39/39 44/44/44
f 44/44/44 42/42/42 45/45/45
f 45/45/45 42/42/42 46/46/46
f 42/42/42 43/43/43 46/46/46
f 46/46/46 43/43/43 47/47/47
f 48/48/48 38/38/38 44/44/44
f 49/49/49 44/44/44 45/45/45
f 48/48/48 44/44/44 49/49/49
f 37/37/37 50/50/50 40/40/40
f 37/37/37 35/35/35 50/50/50
f 40/40/40 50/50/50 51/51/51
f 50/50/50 52/52/52 51/51/51
f 51/51/51 52/52/52 53/53/53
f 50/50/50 54/54/54 52/52/52
f 35/35/35 54/54/54 50/50/50
f 35/35/35 34/34/34 54/54/54
f 55/55/55 46/46/46 47/47/47
f 52/52/52 56/56/56 53/53/53
f 53/53/53 56/56/56 57/57/57
f 56/56/56 58/58/58 57/57/57
f 57/57/57 58/58/58 59/59/59
f 58/58/58 60/60/60 59/59/59
f 61/61/61 60/60/60 58/58/58
f 62/62/62 61/61/61 58/58/58
f 56/56/56 62/62/62 58/58/58
f 63/63/63 61/61/61 62/62/62
f 63/63/63 64/64/64 61/61/61
f 64/64/64 65/65/65 61/61/61
f 61/61/61 65/65/65 66/66/66
f 64/64/64 67/67/67 65/65/65
f 68/68/68 67/67/67 64/64/64
f 69/69/69 68/68/68 64/64/64
f 69/69/69 64/64/64 63/63/63
f 70/70/70 68/68/68 69/69/69
f 71/71/71 70/70/70 69/69/69
f 72/72/72 70/70/70 71/71/71
f 73/73/73 69/69/69 63/63/63
f 71/71/71 69/69/69 73/73/73
f 74/74/74 63/63/63 62/62/62
f 73/73/73 63/63/63 74/74/74
f 68/68/68 75/75/75 67/67/67
f 67/67/67 75/75/75 76/76/76
f 68/68/68 77/77/77 75/75/75
f 70/70/70 77/77/77 68/68/68
f 70/70/70 78/78/78 77/77/77
f 72/72/72 78/78/78 70/70/70
f 75/75/75 79/79/79 76/76/76
f 76/76/76 79/79/79 80/80/80
f 75/75/75 81/81/81 79/79/79
f 77/77/77 81/81/81 75/75/75
f 77/77/77 82/82/82 81/81/81
f 78/78/78 82/82/82 77/77/77
f 82/82/82 78/78/78 83/83/83
f 83/83/83 78/78/78 84/84/84
f 79/79/79 85/85/85 80/80/80
f 80/80/80 85/85/85 86/86/86
f 79/79/79 87/87/87 85/85/85
f 81/81/81 87/87/87 79/79/79
f 81/81/81 88/88/88 87/87/87
f 82/82/82 88/88/88 81/81/81
f 85/85/85 89/89/89 86/86/86
f 86/86/86 89/89/89 90/90/90
f 89/89/89 91/91/91 90/90/90
f 92/92/92 91/91/91 89/89/89
f 92/92/92 93/93/93 91/91/91
f 94/94/94 93/93/93 92/92/92
f 94/94/94 95/95/95 93/93/93
f 96/96/96 95/95/95 94/94/94
f 97/97/97 96/96/96 94/94/94
f 98/98/98 96/96/96 97/97/97
f 99/99/99 94/94/94 92/92/92
f 97/97/97 94/94/94 99/99/99
f 100/100/100 92/92/92 89/89/89
f 99/99/99 92/92/92 100/100/100
f 87/87/87 100/100/100 85/85/85
f 85/85/85 100/100/100 89/89/89
f 101/101/101 98/98/98 97/97/97
f 102/102/102 98/98/98 101/101/101
f 103/103/103 97/97/97 99/99/99
f 101/101/101 97/97/97 103/103/103
f 104/104/104 99/99/99 100/100/100
f 103/103/103 99/99/99 104/104/104
f 87/87/87 104/104/104 100/100/100
f 88/88/88 104/104/104 87/87/87
f 104/104/104 88/88/88 105/105/105
f 105/105/105 88/88/88 106/106/106
f 102/102/102 107/107/107 98/98/98
f 98/98/98 107/107/107 108/108/108
f 98/98/98 108/108/108 96/96/96
f 96/96/96 108/108/108 109/109/109
f 96/96/96 109/109/109 95/95/95
f 95/95/95 109/109/109 110/110/110
f 111/111/111 105/105/105 106/106/106
f 111/111/111 106/106/106 112/112/112
f 112/112/112 106/106/106 83/83/83
f 112/112/112 83/83/83 113/113/113
f 113/113/113 83/83/83 84/84/84
f 114/114/114 105/105/105 111/111/111
f 114/114/114 107/107/107 105/105/105
f 24/24/24 107/107/107 114/114/114
f 107/107/107 24/24/24 108/108/108
f 84/84/84 115/115/115 113/113/113
f 74/74/74 115/115/115 84/84/84
f 115/115/115 74/74/74 116/116/116
f 116/116/116 74/74/74 62/62/62
f 116/116/116 62/62/62 56/56/56
f 109/109/109 22/22/22 110/110/110
f 110/110/110 22/22/22 21/21/21
f 109/109/109 23/23/23 22/22/22
f 108/108/108 23/23/23 109/109/109
f 108/108/108 24/24/24 23/23/23
f 52/52/52 116/116/116 56/56/56
f 54/54/54 116/116/116 52/52/52
f 54/54/54 115/115/115 116/116/116
f 34/34/34 115/115/115 54/54/54
f 27/27/27 114/114/114 111/111/111
f 25/25/25 114/114/114 27/27/27
f 119/119/119 118/118/118 117/117/117
f 117/117/117 118/118/118 120/120/120
f 117/117/117 120/120/120 121/121/121
f 121/121/121 120/120/120 122/122/122
f 121/121/121 122/122/122 123/123/123
f 123/123/123 122/122/122 124/124/124
f 125/125/125 123/123/123 124/124/124
f 126/126/126 123/123/123 125/125/125
f 127/127/127 126/126/126 125/125/125
f 128/128/128 126/126/126 127/127/127
f 119/119/119 129/129/129 118/118/118
f 118/118/118 129/129/129 130/130/130
f 129/129/129 131/131/131 130/130/130
f 130/130/130 131/131/131 132/132/132
f 131/131/131 133/133/133 132/132/132
f 132/132/132 133/133/133 134/134/134
f 133/133/133 135/135/135 134/134/134
f 134/134/134 135/135/135 136/136/136
f 135/135/135 137/137/137 136/136/136
f 138/138/138 137/137/137 135/135/135
f 138/138/138 139/139/139 137/137/137
f 140/140/140 139/139/139 138/138/138
f 140/140/140 141/141/141 139/139/139
f 142/142/142 141/141/141 140/140/140
f 142/142/142 143/143/143 141/141/141
f 141/141/141 143/143/143 144/144/144
f 143/143/143 145/145/145 144/144/144
f 144/144/144 145/145/145 146/146/146
f 145/145/145 147/147/147 146/146/146
f 146/146/146 147/147/147 148/148/148
f 147/147/147 149/149/149 148/148/148
f 148/148/148 149/149/149 150/150/150
f 149/149/149 151/151/151 150/150/150
f 152/152/152 151/151/151 149/149/149
f 155/155/155 154/154/154 153/153/153
f 153/153/153 154/154/154 156/156/156
f 153/153/153 156/156/156 157/157/157
f 155/155/155 158/158/158 154/154/154
f 154/154/154 158/158/158 159/159/159
f 158/158/158 160/160/160 159/159/159
f 159/159/159 160/160/160 161/161/161
f 160/160/160 162/162/162 161/161/161
f 161/161/161 162/162/162 163/163/163
f 162/162/162 164/164/164 163/163/163
f 163/163/163 164/164/164 165/165/165
f 164/164/164 166/166/166 165/165/165
f 167/167/167 166/166/166 164/164/164
f 167/167/167 168/168/168 166/166/166
f 169/169/169 168/168/168 167/167/167
f 169/169/169 170/170/170 168/168/168
f 171/171/171 170/170/170 169/169/169
f 171/171/171 172/172/172 170/170/170
f 170/170/170 172/172/172 173/173/173
f 172/172/172 128/128/128 173/173/173
f 173/173/173 128/128/128 127/127/127
f 175/175/175 156/156/156 174/174/174
f 178/178/178 177/177/177 176/176/176
f 179/179/179 177/177/177 178/178/178
f 182/182/182 181/181/181 180/180/180
f 180/180/180 181/181/181 183/183/183
f 186/186/186 185/185/185 184/184/184
f 184/184/184 185/185/185 187/187/187
f 31/31/31 112/112/112 113/113/113
f 29/29/29 112/112/112 31/31/31
f 190/190/190 189/189/189 188/188/188
f 188/188/188 189/189/189 191/191/191
f 194/194/194 193/193/193 192/192/192
f 195/195/195 193/193/193 194/194/194
f 198/198/198 197/197/197 196/196/196
f 199/199/199 197/197/197 198/198/198
f 202/202/202 201/201/201 200/200/200
f 200/200/200 201/201/201 203/203/203
f 206/206/206 205/205/205 204/204/204
f 207/207/207 205/205/205 206/206/206
f 210/210/210 209/209/209 208/208/208
f 213/213/213 212/212/212 211/211/211
f 211/211/211 212/212/212 214/214/214
f 217/217/217 216/216/216 215/215/215
f 215/215/215 216/216/216 218/218/218
f 221/221/221 220/220/220 219/219/219
f 222/222/222 220/220/220 221/221/221
f 223/223/223 36/36/36 38/38/38
f 224/224/224 36/36/36 223/223/223
f 223/223/223 38/38/38 48/48/48
f 224/224/224 33/33/33 36/36/36
f 227/227/227 226/226/226 225/225/225
f 228/228/228 226/226/226 227/227/227
f 227/227/227 225/225/225 229/229/229
f 229/229/229 225/225/225 230/230/230
f 229/229/229 230/230/230 231/231/231
f 231/231/231 230/230/230 232/232/232
f 235/235/235 234/234/234 233/233/233
f 236/236/236 234/234/234 235/235/235
f 239/239/239 238/238/238 237/237/237
f 240/240/240 238/238/238 239/239/239
f 49/49/49 241/241/241 32/32/32
f 241/241/241 49/49/49 242/242/242
f 242/242/242 49/49/49 45/45/45
f 242/242/242 45/45/45 243/243/243
f 243/243/243 45/45/45 46/46/46
f 243/243/243 46/46/46 55/55/55
f 32/32/32 241/241/241 30/30/30
f 244/244/244 243/243/243 55/55/55
f 245/245/245 243/243/243 244/244/244
f 245/245/245 242/242/242 243/243/243
f 246/246/246 242/242/242 245/245/245
f 246/246/246 241/241/241 242/242/242
f 247/247/247 241/241/241 246/246/246
f 248/248/248 245/245/245 244/244/244
f 249/249/249 245/245/245 248/248/248
f 249/249/249 246/246/246 245/245/245
f 250/250/250 246/246/246 249/249/249
f 250/250/250 247/247/247 246/246/246
f 251/251/251 247/247/247 250/250/250
f 247/247/247 251/251/251 28/28/28
f 28/28/28 251/251/251 26/26/26
f 2/2/2 249/249/249 248/248/248
f 4/4/4 249/249/249 2/2/2
f 4/4/4 250/250/250 249/249/249
f 10/10/10 250/250/250 4/4/4
f 10/10/10 251/251/251 250/250/250
f 14/14/14 251/251/251 10/10/10
f 254/254/254 253/253/253 252/252/252
f 255/255/255 253/253/253 254/254/254
f 258/258/258 257/257/257 256/256/256
f 259/259/259 257/257/257 258/258/258
f 262/262/262 261/261/261 260/260/260
f 263/263/263 261/261/261 262/262/262
f 263/263/263 264/264/264 261/261/261
f 265/265/265 264/264/264 263/263/263
f 265/265/265 266/266/266 264/264/264
f 267/267/267 266/266/266 265/265/265
f 267/267/267 268/268/268 266/266/266
f 269/269/269 268/268/268 267/267/267
f 272/272/272 271/271/271 270/270/270
f 273/273/273 271/271/271 272/272/272
f 276/276/276 275/275/275 274/274/274
f 274/274/274 275/275/275 277/277/277
f 280/280/280 279/279/279 278/278/278
f 278/278/278 279/279/279 281/281/281
f 284/284/284 283/283/283 282/282/282
f 285/285/285 283/283/283 284/284/284
f 288/288/288 287/287/287 286/286/286
f 289/289/289 287/287/287 288/288/288
f 292/292/292 291/291/291 290/290/290
f 293/293/293 291/291/291 292/292/292
f 296/296/296 295/295/295 294/294/294
f 294/294/294 295/295/295 297/297/297
f 300/300/300 299/299/299 298/298/298
f 298/298/298 299/299/299 301/301/301
f 304/304/304 303/303/303 302/302/302
f 305/305/305 303/303/303 304/304/304
f 308/308/308 307/307/307 306/306/306
f 311/311/311 310/310/310 309/309/309
f 312/312/312 310/310/310 311/311/311
f 315/315/315 314/314/314 313/313/313
f 313/313/313 314/314/314 316/316/316
f 313/313/313 316/316/316 317/317/317
f 317/317/317 316/316/316 318/318/318
f 317/317/317 318/318/318 319/319/319
f 319/319/319 318/318/318 320/320/320
f 319/319/319 320/320/320 321/321/321
f 321/321/321 320/320/320 322/322/322
f 325/325/325 324/324/324 323/323/323
f 328/328/328 327/327/327 326/326/326
f 329/329/329 327/327/327 328/328/328
f 332/332/332 331/331/331 330/330/330
f 330/330/330 331/331/331 333/333/333
f 336/336/336 335/335/335 334/334/334
f 334/334/334 335/335/335 337/337/337
f 334/334/334 337/337/337 338/338/338
f 338/338/338 337/337/337 339/339/339
f 338/338/338 339/339/339 340/340/340
f 343/343/343 342/342/342 341/341/341
f 346/346/346 345/345/345 344/344/344
f 347/347/347 345/345/345 346/346/346
f 350/350/350 349/349/349 348/348/348
