g Null_1_Ground_BL_mesh
v 110.9646 41.08608 -398.4353
v 106.5114 32.16891 -399.08
v 122.6726 40.94542 -400.9389
v 118.3783 30.64311 -403.6136
v 176.7928 40.9834 -382.0667
v 121.6023 47.71881 -392.6078
v 110.9646 41.08608 -398.4353
v 175.7441 47.71881 -374.4257
v 119.5623 47.7188 -106.5165
v 110.9646 41.08608 -398.4353
v 110.9821 41.15301 -98.7439
v 174.6191 32.16891 -383.0571
v 467.8989 40.98951 -252.874
v 467.5558 32.16891 -253.1274
v 490.5547 41.01939 -233.1634
v 491.3604 32.16891 -233.2181
v 506.9128 41.01554 -211.3512
v 507.8073 32.16891 -210.7119
v 512.7797 40.98196 -194.568
v 513.8666 32.16891 -192.9666
v 514.4531 40.95451 -170.6547
v 516.7162 32.16891 -169.5737
v 512.7694 40.91835 -150.0954
v 520.9372 32.16891 -147.0145
v 506.051 40.87604 -133.7294
v 514.5044 32.16891 -127.9089
v 492.2071 40.86759 -112.5855
v 500.0167 32.16891 -102.5089
v 476.6912 40.89437 -103.3616
v 481.1959 32.65783 -92.50793
v 456.9874 40.95801 -98.33861
v 455.656 32.16891 -84.57127
v 500.3691 47.71881 -208.4585
v 485.7503 47.71881 -227.377
v 465.1118 47.71881 -245.8656
v 501.2291 47.71881 -138.3739
v 506.8186 47.71881 -154.2827
v 506.8186 47.71881 -171.9113
v 505.0988 47.71881 -192.1197
v 457.3088 47.71881 -106.3225
v 110.9821 41.15301 -98.7439
v 474.9147 47.71881 -110.9362
v 490.4799 47.71881 -120.7452
v 110.9821 41.15301 -98.7439
v 110.9646 41.08608 -398.4353
v 104.2047 32.1689 -93.37263
v 106.5114 32.16891 -399.08
v 110.9821 41.15301 -98.7439
v 104.2047 32.1689 -93.37263
v 110.9646 41.08608 -398.4353
v 110.9821 41.15301 -98.7439
v 455.656 32.16891 -84.57127
v 104.2047 32.1689 -93.37263
vt 0.097888 0.586883
vt 0.096172 0.585579
vt 0.1092 0.584462
vt 0.107986 0.581117
vt 0.169023 0.603279
vt 0.106245 0.593024
vt 0.097888 0.586883
vt 0.166249 0.611223
vt 0.102987 0.869898
vt 0.097888 0.586883
vt 0.096597 0.876088
vt 0.169228 0.601592
vt 0.447359 0.727019
vt 0.448277 0.725574
vt 0.471099 0.746644
vt 0.473042 0.745315
vt 0.486849 0.767644
vt 0.488817 0.766903
vt 0.492502 0.783797
vt 0.494629 0.783924
vt 0.494116 0.806815
vt 0.497363 0.806362
vt 0.4925 0.826602
vt 0.49496 0.827022
vt 0.486037 0.842351
vt 0.489194 0.843839
vt 0.47271 0.862705
vt 0.475064 0.864435
vt 0.457769 0.87159
vt 0.458494 0.874287
vt 0.43879 0.876439
vt 0.438784 0.877913
vt 0.479684 0.771469
vt 0.465569 0.753203
vt 0.44371 0.734708
vt 0.480514 0.839138
vt 0.485911 0.823778
vt 0.485911 0.806757
vt 0.484251 0.787245
vt 0.438108 0.870085
vt 0.096597 0.876088
vt 0.455107 0.86563
vt 0.470136 0.856159
vt 0.096597 0.876088
vt 0.097888 0.586883
vt 0.092672 0.879453
vt 0.096172 0.585579
vt 0.096597 0.876088
vt 0.092672 0.879453
vt 0.097888 0.586883
vt 0.096597 0.876088
vt 0.438784 0.877913
vt 0.092672 0.879453
vn -0.1758583 0.4961256 -0.8502548
vn -0.2504537 0.2638948 -0.9314679
vn -0.01935688 0.4735075 -0.8805771
vn 0.1327561 0.1699472 -0.9764701
vn 0.321109 0.4338786 -0.8418065
vn -0.05153216 0.9097955 -0.4118453
vn -0.5366755 0.7533934 -0.3799707
vn 0.1611912 0.9040803 -0.3957985
vn -0.204173 0.9721256 0.115261
vn -0.6435421 0.7523596 -0.1407434
vn -0.3185264 0.8526799 0.4140988
vn 0.384803 0.01139728 -0.9229284
vn 0.451606 0.4077306 -0.7936043
vn 0.5729058 0.0234481 -0.8192858
vn 0.6392853 0.425003 -0.6408485
vn 0.7530252 0.05981221 -0.6552674
vn 0.7744668 0.4289822 -0.4649467
vn 0.9067315 0.05666232 -0.4178846
vn 0.8670617 0.4510964 -0.2114615
vn 0.9759008 0.1351223 -0.1713468
vn 0.8635411 0.5035475 -0.02713912
vn 0.9181682 0.391445 -0.0611385
vn 0.7593417 0.6442908 0.09104715
vn 0.6893725 0.7150499 0.1160569
vn 0.6306855 0.7191493 0.2916509
vn 0.5631944 0.7746565 0.2876097
vn 0.4977008 0.7579228 0.4217191
vn 0.3683736 0.8234802 0.4314871
vn 0.2658496 0.786987 0.5567543
vn 0.1955005 0.8217281 0.5352967
vn 0.1055877 0.7952608 0.5970021
vn 0.04484922 0.7498574 0.6600776
vn 0.3887434 0.9040851 -0.1775067
vn 0.3286733 0.9007336 -0.2839946
vn 0.2084216 0.9339236 -0.2904261
vn 0.4290831 0.8740636 0.2278166
vn 0.4572716 0.8822906 0.1116509
vn 0.4472899 0.8943889 -0.0003574605
vn 0.4120233 0.9092216 -0.05960615
vn 0.01461949 0.9855284 0.1688786
vn -0.1368514 0.8014142 0.5822431
vn 0.1834732 0.8527017 0.4891191
vn 0.2936987 0.895787 0.3336268
vn -0.2716857 0.8162682 0.5097971
vn -0.7242059 0.6895783 -0.002750352
vn -0.8499331 0.5268793 -0.00343263
vn -0.8944265 0.4471639 -0.00674869
vn -0.5211756 0.8298452 0.199331
vn -0.8499331 0.5268793 -0.00343263
vn -0.6435421 0.7523596 -0.1407434
vn -0.005617456 0.7337756 0.6793687
vn 0.04484922 0.7498574 0.6600776
vn -0.02131013 0.5248233 0.8509444
g Null_1_Ground_BL_mesh_0
f 3/3/3 2/2/2 1/1/1
f 4/4/4 2/2/2 3/3/3
f 5/5/5 4/4/4 3/3/3
f 3/3/3 6/6/6 5/5/5
f 7/7/7 6/6/6 3/3/3
f 5/5/5 6/6/6 8/8/8
f 8/8/8 6/6/6 9/9/9
f 6/6/6 10/10/10 9/9/9
f 9/9/9 10/10/10 11/11/11
f 12/12/12 4/4/4 5/5/5
f 13/13/13 12/12/12 5/5/5
f 5/5/5 8/8/8 13/13/13
f 14/14/14 12/12/12 13/13/13
f 15/15/15 14/14/14 13/13/13
f 16/16/16 14/14/14 15/15/15
f 17/17/17 16/16/16 15/15/15
f 18/18/18 16/16/16 17/17/17
f 19/19/19 18/18/18 17/17/17
f 20/20/20 18/18/18 19/19/19
f 21/21/21 20/20/20 19/19/19
f 22/22/22 20/20/20 21/21/21
f 23/23/23 22/22/22 21/21/21
f 24/24/24 22/22/22 23/23/23
f 25/25/25 24/24/24 23/23/23
f 26/26/26 24/24/24 25/25/25
f 27/27/27 26/26/26 25/25/25
f 28/28/28 26/26/26 27/27/27
f 29/29/29 28/28/28 27/27/27
f 30/30/30 28/28/28 29/29/29
f 31/31/31 30/30/30 29/29/29
f 32/32/32 30/30/30 31/31/31
f 17/17/17 33/33/33 19/19/19
f 17/17/17 34/34/34 33/33/33
f 15/15/15 34/34/34 17/17/17
f 15/15/15 35/35/35 34/34/34
f 13/13/13 35/35/35 15/15/15
f 13/13/13 8/8/8 35/35/35
f 25/25/25 36/36/36 27/27/27
f 25/25/25 37/37/37 36/36/36
f 23/23/23 37/37/37 25/25/25
f 23/23/23 38/38/38 37/37/37
f 21/21/21 38/38/38 23/23/23
f 21/21/21 39/39/39 38/38/38
f 19/19/19 33/33/33 39/39/39
f 19/19/19 39/39/39 21/21/21
f 35/35/35 40/40/40 34/34/34
f 33/33/33 34/34/34 40/40/40
f 39/39/39 33/33/33 40/40/40
f 38/38/38 39/39/39 40/40/40
f 37/37/37 38/38/38 40/40/40
f 36/36/36 37/37/37 40/40/40
f 35/35/35 9/9/9 40/40/40
f 8/8/8 9/9/9 35/35/35
f 9/9/9 41/41/41 40/40/40
f 40/40/40 41/41/41 31/31/31
f 31/31/31 42/42/42 40/40/40
f 29/29/29 42/42/42 31/31/31
f 29/29/29 43/43/43 42/42/42
f 43/43/43 36/36/36 40/40/40
f 42/42/42 43/43/43 40/40/40
f 27/27/27 36/36/36 43/43/43
f 27/27/27 43/43/43 29/29/29
f 44/44/44 32/32/32 31/31/31
f 47/47/47 46/46/46 45/45/45
f 50/50/50 49/49/49 48/48/48
f 53/53/53 52/52/52 51/51/51
