g PoleArm1_b
v 112.1451 48.23461 -153.1623
v 116.3008 48.45538 -152.1725
v 111.2705 134.4782 -157.6883
v 115.4263 134.6991 -156.6986
v 119.4105 48.53622 -149.2362
v 118.5359 134.7798 -153.7622
v 120.5996 49.24474 -144.7087
v 119.7663 134.699 -149.6661
v 119.6622 48.23461 -140.9817
v 118.7876 134.4782 -145.5077
v 116.7367 47.93303 -137.8752
v 115.8622 134.1767 -142.4013
v 107.1822 134.1767 -156.4663
v 108.0568 47.933 -151.9403
v 105.1313 47.63141 -148.8339
v 108.0568 47.933 -151.9403
v 104.2568 133.875 -153.3599
v 107.1822 134.1767 -156.4663
v 103.2781 133.6542 -149.2015
v 104.1527 47.41061 -144.6755
v 104.5085 133.5735 -145.1054
v 105.383 47.32981 -140.5794
v 107.6181 133.6542 -142.1691
v 108.4926 47.41061 -137.643
v 111.7738 133.875 -141.1793
v 112.6484 47.63137 -136.6533
v 115.8622 134.1767 -142.4013
v 116.7367 47.93303 -137.8752
v 111.7837 139.7597 -161.0503
v 117.5064 140.0637 -159.6873
v 110.8467 141.2842 -157.4267
v 115.0024 141.5049 -156.4369
v 106.7584 140.9825 -156.2047
v 106.1539 139.3444 -159.3675
v 103.8329 140.6809 -153.0984
v 102.1254 138.929 -155.0898
v 102.8542 140.4601 -148.94
v 100.7777 138.625 -149.3635
v 104.0845 140.3793 -144.8438
v 102.4719 138.5137 -143.7229
v 118.8391 138.1475 -160.5056
v 123.2136 138.2611 -156.3749
v 121.7886 140.175 -155.6438
v 115.0024 141.5049 -156.4369
v 118.112 141.5857 -153.5006
v 124.9444 138.1474 -150.6127
v 123.4829 140.0637 -150.0031
v 118.112 141.5857 -153.5006
v 119.3424 141.5049 -149.4045
v 122.1352 139.7596 -144.2768
v 118.3637 141.2842 -145.2461
v 123.5676 137.8368 -144.763
v 119.4523 137.4126 -140.3931
v 118.1067 139.3444 -139.9991
v 112.9932 137.8368 -161.8979
v 106.1539 139.3444 -159.3675
v 107.242 137.4126 -160.1789
v 122.1352 139.7596 -144.2768
v 118.1067 139.3444 -139.9991
v 118.3637 141.2842 -145.2461
v 115.4383 140.9825 -142.1397
v 119.3424 141.5049 -149.4045
v 118.3637 141.2842 -145.2461
v 106.6938 187.1433 -145.5162
v 106.2487 186.4941 -141.2058
v 118.112 141.5857 -153.5006
v 104.9635 187.2793 -150.0301
v 106.6938 187.1433 -145.5162
v 101.5644 186.8673 -153.4652
v 104.9635 187.2793 -150.0301
v 115.0024 141.5049 -156.4369
v 118.112 141.5857 -153.5006
v 118.3637 141.2842 -145.2461
v 115.4383 140.9825 -142.1397
v 106.2487 186.4941 -141.2058
v 103.7509 185.5078 -138.2638
v 110.8467 141.2842 -157.4267
v 115.0024 141.5049 -156.4369
v 97.4529 186.0212 -154.8387
v 97.4529 186.0212 -154.8387
v 115.0024 141.5049 -156.4369
v 101.5644 186.8673 -153.4652
v 106.7541 138.625 -139.6793
v 102.4719 138.5137 -143.7229
v 107.1942 140.4601 -141.9074
v 104.0845 140.3793 -144.8438
v 107.1942 140.4601 -141.9074
v 115.4383 140.9825 -142.1397
v 106.7541 138.625 -139.6793
v 118.1067 139.3444 -139.9991
v 107.8551 136.6777 -140.0664
v 103.4806 136.564 -144.1971
v 106.7541 138.625 -139.6793
v 102.4719 138.5137 -143.7229
v 101.7499 136.6777 -149.9593
v 100.7777 138.625 -149.3635
v 103.1266 136.9883 -155.809
v 102.1254 138.929 -155.0898
v 107.242 137.4126 -160.1789
v 106.1539 139.3444 -159.3675
v 119.4523 137.4126 -140.3931
v 118.1067 139.3444 -139.9991
v 106.7584 140.9825 -156.2047
v 110.8467 141.2842 -157.4267
v 93.73341 184.9696 -153.7931
v 93.73341 184.9696 -153.7931
v 97.4529 186.0212 -154.8387
v 103.8329 140.6809 -153.0984
v 106.7584 140.9825 -156.2047
v 91.35997 183.9928 -150.6808
v 93.73341 184.9696 -153.7931
v 90.92329 183.3491 -146.3977
v 103.8329 140.6809 -153.0984
v 91.35997 183.9928 -150.6808
v 102.8542 140.4601 -148.94
v 92.53744 183.2091 -142.0814
v 90.92329 183.3491 -146.3977
v 104.0845 140.3793 -144.8438
v 95.81206 183.6115 -138.8165
v 104.0845 140.3793 -144.8438
v 107.1942 140.4601 -141.9074
v 107.1942 140.4601 -141.9074
v 95.81206 183.6115 -138.8165
v 115.4383 140.9825 -142.1397
v 103.7509 185.5078 -138.2638
v 90.92329 183.3491 -146.3977
v 91.35997 183.9928 -150.6808
v 86.44202 184.9281 -146.304
v 91.35997 183.9928 -150.6808
v 86.45892 185.9042 -153.3568
v 88.88025 184.7165 -139.7841
v 90.92329 183.3491 -146.3977
v 92.53744 183.2091 -142.0814
v 93.99185 185.4286 -132.3115
v 95.81206 183.6115 -138.8165
v 92.53744 183.2091 -142.0814
v 103.7509 185.5078 -138.2638
v 103.7509 185.5078 -138.2638
v 103.615 188.3055 -132.7361
v 86.44202 184.9281 -146.304
v 86.45892 185.9042 -153.3568
v 86.21092 186.7434 -146.1376
v 86.22264 187.7119 -153.1397
v 88.6301 186.5334 -139.6685
v 88.88025 184.7165 -139.7841
v 93.70304 187.2408 -132.2344
v 93.99185 185.4286 -132.3115
v 90.68677 187.3758 -157.4751
v 90.42249 189.1719 -157.2213
v 93.99185 185.4286 -132.3115
v 103.2325 190.0953 -132.6656
v 103.615 188.3055 -132.7361
v 93.70304 187.2408 -132.2344
v 109.3732 189.7327 -139.2303
v 103.7509 185.5078 -138.2638
v 103.615 188.3055 -132.7361
v 106.2487 186.4941 -141.2058
v 110.2639 190.6593 -144.9725
v 106.2487 186.4941 -141.2058
v 109.3732 189.7327 -139.2303
v 106.6938 187.1433 -145.5162
v 106.2487 186.4941 -141.2058
v 107.6503 190.8647 -151.7909
v 106.6938 187.1433 -145.5162
v 110.2639 190.6593 -144.9725
v 104.9635 187.2793 -150.0301
v 102.5158 190.2424 -156.9798
v 104.9635 187.2793 -150.0301
v 107.6503 190.8647 -151.7909
v 101.5644 186.8673 -153.4652
v 96.30523 188.9643 -159.0546
v 101.5644 186.8673 -153.4652
v 102.5158 190.2424 -156.9798
v 97.4529 186.0212 -154.8387
v 90.68677 187.3758 -157.4751
v 97.4529 186.0212 -154.8387
v 96.30523 188.9643 -159.0546
v 93.73341 184.9696 -153.7931
v 86.45892 185.9042 -153.3568
v 93.73341 184.9696 -153.7931
v 90.68677 187.3758 -157.4751
v 91.35997 183.9928 -150.6808
v 93.73341 184.9696 -153.7931
v 96.30523 188.9643 -159.0546
v 102.5158 190.2424 -156.9798
v 95.99704 190.748 -158.7884
v 102.1591 192.0162 -156.7299
v 95.50252 195.3082 -154.0032
v 99.43609 196.2188 -152.7342
v 91.93366 194.1649 -152.9993
v 90.42249 189.1719 -157.2213
v 96.30523 188.9643 -159.0546
v 90.68677 187.3758 -157.4751
v 89.64544 193.0941 -150.0594
v 86.22264 187.7119 -153.1397
v 89.20779 192.379 -146.0291
v 86.21092 186.7434 -146.1376
v 90.73514 192.2092 -141.979
v 88.6301 186.5334 -139.6685
v 93.85834 192.6313 -138.9269
v 93.70304 187.2408 -132.2344
v 107.2534 192.6336 -151.5815
v 107.6503 190.8647 -151.7909
v 110.2639 190.6593 -144.9725
v 109.8466 192.4297 -144.8165
v 102.6778 196.6505 -149.5226
v 104.3156 196.4842 -145.2874
v 108.9612 191.5109 -139.1251
v 109.3732 189.7327 -139.2303
v 110.2639 190.6593 -144.9725
v 103.8698 195.763 -141.2314
v 101.4631 194.6826 -138.451
v 93.70304 187.2408 -132.2344
v 103.2325 190.0953 -132.6656
v 103.2325 190.0953 -132.6656
v 102.5158 190.2424 -156.9798
v 109.3732 189.7327 -139.2303
v 103.615 188.3055 -132.7361
v 108.9612 191.5109 -139.1251
v 103.2325 190.0953 -132.6656
v 54.8151 275.5711 -124.626
v 44.72704 291.1698 -126.2986
v 48.33479 276.8797 -140.0833
v 64.88292 260.1951 -122.641
v 51.98436 267.0056 -146.2974
v 57.52709 253.9706 -153.3327
v 64.88684 251.6585 -137.1527
v 69.70818 248.1458 -129.4164
v 68.41419 244.0795 -139.6479
v 76.3664 234.752 -133.4283
v 73.80924 234.6619 -140.5291
v 79.12471 226.1492 -140.1325
v 81.72653 226.241 -132.9076
v 86.26812 211.8141 -144.3797
v 88.4002 211.8892 -138.4592
v 92.77734 200.166 -146.4716
v 95.83292 200.2737 -137.9866
v 96.84269 193.4702 -146.2132
v 98.48719 197.0606 -135.6898
v 89.43586 200.0483 -155.7504
v 91.29157 197.4213 -154.7285
v 83.93652 211.732 -150.8541
v 76.27947 226.0491 -148.0333
v 71.01284 234.5634 -148.2943
v 66.99913 239.6327 -150.8366
v 88.7495 211.3561 -133.0297
v 94.5204 202.0572 -133.4447
v 86.00147 202.0593 -157.3577
v 81.29566 211.5194 -152.9186
v 83.4111 225.0561 -124.8778
v 74.24784 224.5354 -151.5873
v 77.51534 233.6551 -125.378
v 71.65408 246.2728 -120.6527
v 69.13612 232.2399 -152.1714
v 66.34226 232.9366 -155.7111
v 64.89112 242.3233 -153.0221
v 62.5349 243.6452 -155.6584
v 64.00781 233.7812 -160.5605
v 61.6586 235.3856 -164.4621
v 53.11258 254.5069 -159.1819
v 46.84777 269.9325 -151.6785
v 42.06904 282.1524 -145.2048
v 68.063 225.689 -164.1516
v 67.55056 225.8865 -165.7076
v 68.05859 225.1262 -162.8377
v 68.7928 224.0005 -165.2001
v 40.73114 290.2953 -137.6258
v 40.2127 288.8468 -140.3912
v 38.98196 293.2852 -137.1998
v 37.31674 299.2904 -132.8816
v 35.05337 308.4597 -119.8942
v 40.21804 304.8023 -110.827
v 47.87235 291.2019 -111.7591
v 55.78668 277.1319 -114.7697
v 62.78408 264.3998 -114.2768
v 36.75373 315.2763 -98.94005
v 35.53708 312.0621 -110.1523
v 38.60184 312.0126 -98.55464
v 67.78698 256.4612 -112.551
v 69.00122 253.7282 -113.2451
v 97.32776 197.2627 -132.1108
vt 0.526833 0.260702
vt 0.539036 0.263779
vt 0.443243 0.296632
vt 0.455913 0.299832
vt 0.548244 0.272588
vt 0.465476 0.308985
vt 0.551161 0.286503
vt 0.469369 0.321636
vt 0.549264 0.29705
vt 0.466548 0.334395
vt 0.540805 0.306147
vt 0.45777 0.343839
vt 0.430865 0.30024
vt 0.514907 0.26418
vt 0.506453 0.273279
vt 0.514907 0.26418
vt 0.422093 0.309688
vt 0.430865 0.30024
vt 0.419278 0.322443
vt 0.503735 0.285559
vt 0.42317 0.335087
vt 0.507478 0.297732
vt 0.432728 0.344237
vt 0.516681 0.306538
vt 0.445392 0.34744
vt 0.528879 0.309618
vt 0.45777 0.343839
vt 0.540805 0.306147
vt 0.439674 0.289337
vt 0.457162 0.293754
vt 0.435266 0.301511
vt 0.447973 0.304722
vt 0.42285 0.30513
vt 0.422588 0.294319
vt 0.414053 0.314606
vt 0.410484 0.30736
vt 0.411229 0.327399
vt 0.4066 0.324963
vt 0.415134 0.340083
vt 0.411972 0.342414
vt 0.463161 0.290072
vt 0.476636 0.302968
vt 0.470364 0.306388
vt 0.447973 0.304722
vt 0.457566 0.313903
vt 0.48212 0.320793
vt 0.475737 0.323852
vt 0.457566 0.313903
vt 0.461471 0.326593
vt 0.471842 0.341462
vt 0.458642 0.33939
vt 0.478144 0.338767
vt 0.465776 0.352072
vt 0.459726 0.354497
vt 0.445311 0.285565
vt 0.422588 0.294319
vt 0.427871 0.29065
vt 0.471842 0.341462
vt 0.459726 0.354497
vt 0.458642 0.33939
vt 0.449839 0.348863
vt 0.461471 0.326593
vt 0.458642 0.33939
vt 0.376084 0.367413
vt 0.37534 0.38068
vt 0.457566 0.313903
vt 0.370449 0.353165
vt 0.376084 0.367413
vt 0.360081 0.341995
vt 0.370449 0.353165
vt 0.447973 0.304722
vt 0.457566 0.313903
vt 0.458642 0.33939
vt 0.449839 0.348863
vt 0.37534 0.38068
vt 0.368429 0.389376
vt 0.435266 0.301511
vt 0.447973 0.304722
vt 0.347909 0.337102
vt 0.347909 0.337102
vt 0.447973 0.304722
vt 0.360081 0.341995
vt 0.425162 0.355042
vt 0.411972 0.342414
vt 0.42472 0.34926
vt 0.415134 0.340083
vt 0.42472 0.34926
vt 0.449839 0.348863
vt 0.425162 0.355042
vt 0.459726 0.354497
vt 0.430497 0.352629
vt 0.417034 0.33974
vt 0.425162 0.355042
vt 0.411972 0.342414
vt 0.41155 0.321929
vt 0.4066 0.324963
vt 0.415515 0.303961
vt 0.410484 0.30736
vt 0.427871 0.29065
vt 0.422588 0.294319
vt 0.465776 0.352072
vt 0.459726 0.354497
vt 0.42285 0.30513
vt 0.435266 0.301511
vt 0.337205 0.339759
vt 0.337205 0.339759
vt 0.347909 0.337102
vt 0.414053 0.314606
vt 0.42285 0.30513
vt 0.330701 0.349013
vt 0.337205 0.339759
vt 0.329992 0.362184
vt 0.414053 0.314606
vt 0.330701 0.349013
vt 0.411229 0.327399
vt 0.335256 0.375777
vt 0.329992 0.362184
vt 0.415134 0.340083
vt 0.345216 0.386388
vt 0.415134 0.340083
vt 0.42472 0.34926
vt 0.42472 0.34926
vt 0.345216 0.386388
vt 0.449839 0.348863
vt 0.368429 0.389376
vt 0.329992 0.362184
vt 0.330701 0.349013
vt 0.314117 0.363491
vt 0.330701 0.349013
vt 0.313137 0.341732
vt 0.322075 0.384037
vt 0.329992 0.362184
vt 0.335256 0.375777
vt 0.337544 0.408212
vt 0.345216 0.386388
vt 0.335256 0.375777
vt 0.368429 0.389376
vt 0.368429 0.389376
vt 0.365103 0.408767
vt 0.314117 0.363491
vt 0.313137 0.341732
vt 0.311461 0.365183
vt 0.310471 0.343562
vt 0.319364 0.385586
vt 0.322075 0.384037
vt 0.334727 0.409656
vt 0.337544 0.408212
vt 0.325006 0.329581
vt 0.322271 0.331511
vt 0.337544 0.408212
vt 0.362031 0.410178
vt 0.365103 0.408767
vt 0.334727 0.409656
vt 0.381932 0.389065
vt 0.368429 0.389376
vt 0.365103 0.408767
vt 0.37534 0.38068
vt 0.383811 0.371406
vt 0.37534 0.38068
vt 0.381932 0.389065
vt 0.376084 0.367413
vt 0.37534 0.38068
vt 0.375286 0.349848
vt 0.376084 0.367413
vt 0.383811 0.371406
vt 0.370449 0.353165
vt 0.359599 0.332951
vt 0.370449 0.353165
vt 0.375286 0.349848
vt 0.360081 0.341995
vt 0.341188 0.325554
vt 0.360081 0.341995
vt 0.359599 0.332951
vt 0.347909 0.337102
vt 0.325006 0.329581
vt 0.347909 0.337102
vt 0.341188 0.325554
vt 0.337205 0.339759
vt 0.313137 0.341732
vt 0.337205 0.339759
vt 0.325006 0.329581
vt 0.330701 0.349013
vt 0.337205 0.339759
vt 0.341188 0.325554
vt 0.359599 0.332951
vt 0.338338 0.327515
vt 0.356619 0.33486
vt 0.331965 0.345626
vt 0.343549 0.350252
vt 0.3218 0.348099
vt 0.322271 0.331511
vt 0.341188 0.325554
vt 0.325006 0.329581
vt 0.315647 0.35678
vt 0.310471 0.343562
vt 0.315012 0.369153
vt 0.311461 0.365183
vt 0.320054 0.381935
vt 0.319364 0.385586
vt 0.329551 0.391928
vt 0.334727 0.409656
vt 0.372195 0.35164
vt 0.375286 0.349848
vt 0.383811 0.371406
vt 0.380661 0.373046
vt 0.353436 0.360771
vt 0.358833 0.374172
vt 0.37879 0.390563
vt 0.381932 0.389065
vt 0.383811 0.371406
vt 0.358164 0.386636
vt 0.35162 0.394791
vt 0.334727 0.409656
vt 0.362031 0.410178
vt 0.362031 0.410178
vt 0.359599 0.332951
vt 0.381932 0.389065
vt 0.365103 0.408767
vt 0.37879 0.390563
vt 0.362031 0.410178
vt 0.109327 0.495836
vt 0.05677 0.50176
vt 0.086283 0.445583
vt 0.160773 0.491187
vt 0.110253 0.418133
vt 0.143926 0.386119
vt 0.170727 0.437528
vt 0.190549 0.460369
vt 0.19099 0.424135
vt 0.227454 0.437951
vt 0.219252 0.414833
vt 0.246002 0.410354
vt 0.254314 0.433782
vt 0.28476 0.387103
vt 0.291527 0.406172
vt 0.318124 0.372781
vt 0.327772 0.399961
vt 0.338171 0.369271
vt 0.339638 0.405165
vt 0.307574 0.343061
vt 0.316298 0.344655
vt 0.277359 0.366251
vt 0.236912 0.384736
vt 0.210283 0.389553
vt 0.19147 0.384671
vt 0.293226 0.423253
vt 0.321685 0.415666
vt 0.294441 0.3392
vt 0.269108 0.359483
vt 0.26107 0.458924
vt 0.232033 0.372249
vt 0.232414 0.46332
vt 0.199052 0.487661
vt 0.206823 0.375429
vt 0.19697 0.364406
vt 0.18152 0.379346
vt 0.172316 0.371629
vt 0.188433 0.34922
vt 0.178969 0.337588
vt 0.128827 0.367308
vt 0.089782 0.402392
vt 0.059051 0.432316
vt 0.210747 0.332383
vt 0.208867 0.327477
vt 0.211367 0.336271
vt 0.215006 0.327919
vt 0.044527 0.463341
vt 0.044598 0.453081
vt 0.034964 0.466924
vt 0.021863 0.485748
vt 0.002651 0.536216
vt 0.024647 0.563879
vt 0.067224 0.550289
vt 0.110668 0.529638
vt 0.148935 0.521785
vt -0.000325 0.612171
vt -0.000318 0.571804
vt 0.010074 0.610852
vt 0.174659 0.521591
vt 0.181805 0.517303
vt 0.335726 0.416718
vn -0.1137232 -0.05321772 -0.9920861
vn 0.3966539 -0.04409688 -0.9169084
vn 0.06369474 -0.05165714 -0.9966316
vn 0.5522401 -0.03810573 -0.8328137
vn 0.8078911 -0.02271221 -0.588894
vn 0.8995348 -0.01446768 -0.4366095
vn 0.9949564 0.004501045 -0.1002065
vn 0.997719 0.01326096 0.06618765
vn 0.9156198 0.03066822 0.4008738
vn 0.8332191 0.03740139 0.5516766
vn 0.5956994 0.0481175 0.8017648
vn 0.4434649 0.0514568 0.8948134
vn -0.44347 -0.05145668 -0.8948108
vn -0.5956988 -0.04811712 -0.8017654
vn -0.9183901 -0.03001783 -0.394536
vn -0.5956988 -0.04811712 -0.8017654
vn -0.8332164 -0.03740111 -0.5516807
vn -0.44347 -0.05145668 -0.8948108
vn -0.9981522 -0.01323404 -0.05930495
vn -0.9929186 -0.003837565 0.118735
vn -0.8942212 0.01441117 0.4473933
vn -0.8010769 0.02326523 0.5981089
vn -0.5522422 0.03810562 0.8328124
vn -0.3966556 0.04409664 0.9169078
vn -0.0636934 0.05165693 0.9966317
vn 0.1137195 0.0532177 0.9920866
vn 0.4434649 0.0514568 0.8948134
vn 0.5956994 0.0481175 0.8017648
vn -0.05120577 0.7095371 -0.7028052
vn 0.2721562 0.7995266 -0.5354326
vn -0.03675958 0.9176906 -0.3955916
vn 0.3279881 0.7400171 -0.5871955
vn -0.2795382 0.8733374 -0.3989237
vn -0.3701639 0.6593198 -0.654428
vn -0.5195732 0.8112524 -0.2681667
vn -0.5859032 0.7876601 -0.1905493
vn -0.6619077 0.7495805 -0.002667374
vn -0.6706117 0.7339385 0.1077693
vn -0.6174175 0.7217089 0.3129408
vn -0.5553133 0.7248992 0.4076128
vn 0.302963 0.544652 -0.7820278
vn 0.6148229 0.6359619 -0.4664175
vn 0.4857674 0.8285932 -0.2783222
vn 0.3123475 0.8422756 -0.4393301
vn 0.5977622 0.6943489 -0.4006993
vn 0.7825217 0.6187836 -0.06904022
vn 0.5913422 0.8056111 0.03612865
vn 0.5578926 0.7683666 -0.3136379
vn 0.7212516 0.691722 -0.03628542
vn 0.5671478 0.7240237 0.3925978
vn 0.6318678 0.7267153 0.2694955
vn 0.785543 0.4894891 0.3785798
vn 0.3938428 0.08772586 0.914982
vn 0.2909052 0.6471754 0.7046546
vn -0.1417458 0.3232875 -0.9356246
vn -0.4581761 0.5493994 -0.6987381
vn -0.6004598 -0.002354292 -0.7996515
vn 0.5671478 0.7240237 0.3925978
vn 0.3199542 0.7818302 0.5351363
vn 0.6751059 0.6431825 0.3613147
vn 0.3819525 0.6239707 0.6817425
vn 0.7212516 0.691722 -0.03628542
vn 0.6751059 0.6431825 0.3613147
vn 0.9646877 0.2631368 0.01169288
vn 0.901612 -0.05317553 0.4292647
vn 0.5977622 0.6943489 -0.4006993
vn 0.8941056 0.04190032 -0.4458921
vn 0.9833409 -0.130748 -0.1262761
vn 0.6116107 -0.007842448 -0.7911201
vn 0.8380852 -0.2284915 -0.4953837
vn 0.3218473 0.6513231 -0.6871626
vn 0.6912227 0.4806893 -0.5395822
vn 0.728304 0.5549037 0.4020637
vn 0.2833357 0.4388868 0.8527012
vn 0.8623227 -0.06822647 0.5017417
vn 0.5733297 -0.4308377 0.6969017
vn -0.1116696 0.02336332 -0.9934707
vn 0.4018639 0.1756245 -0.8986998
vn 0.1668815 -0.1335066 -0.9768963
vn 0.1668815 -0.1335066 -0.9768963
vn 0.3426732 0.4058072 -0.8472872
vn 0.5583551 -0.2842854 -0.7793724
vn -0.1880392 0.7760218 0.6020228
vn -0.5553133 0.7248992 0.4076128
vn -0.4786274 0.5688651 0.6688111
vn -0.7394199 0.393144 0.546531
vn -0.2759461 0.6094663 0.7432393
vn 0.2833357 0.4388868 0.8527012
vn -0.1880392 0.7760218 0.6020228
vn 0.3199542 0.7818302 0.5351363
vn -0.304824 -0.3485409 0.8863417
vn -0.6963913 -0.4882323 0.5259929
vn -0.3048261 -0.348542 0.8863406
vn -0.7772268 -0.4962212 0.3868888
vn -0.8805343 -0.4660477 0.08636599
vn -0.9011793 -0.4268058 -0.07558227
vn -0.8673242 -0.3003917 -0.3968799
vn -0.8053623 -0.2100891 -0.5543051
vn -0.6004598 -0.002354292 -0.7996515
vn -0.45349 0.1157311 -0.8837156
vn 0.3938428 0.08772586 0.914982
vn 0.3938428 0.08772182 0.9149824
vn -0.6032916 -0.1333015 -0.7863014
vn -0.1116696 0.02336332 -0.9934707
vn -0.3193758 -0.4483176 -0.8348715
vn -0.3496481 -0.2980063 -0.888222
vn 0.1407286 -0.4071898 -0.9024367
vn -0.9005834 -0.2354898 -0.3653682
vn -0.6032916 -0.1333015 -0.7863014
vn -0.671919 -0.5722388 -0.4701784
vn -0.3704263 -0.4756768 -0.7978196
vn -0.7254534 -0.6882469 -0.005795628
vn -0.9005834 -0.2354898 -0.3653682
vn -0.7059948 -0.5788185 -0.4080937
vn -0.9542903 -0.27073 0.1266305
vn -0.7011085 -0.6054021 0.3767429
vn -0.791513 -0.6102762 0.03271291
vn -0.7769226 -0.2472163 0.5790297
vn -0.3639974 -0.1654829 0.9165813
vn -0.7832921 -0.0003788094 0.6216537
vn -0.4804249 0.3432088 0.8070934
vn -0.2679659 0.195515 0.9433812
vn -0.3639974 -0.1654829 0.9165813
vn 0.2698446 0.3249492 0.9064171
vn 0.3924391 -0.3342153 0.8569082
vn -0.6532499 -0.7527428 -0.0815041
vn -0.6201576 -0.6631386 -0.4191083
vn -0.3211403 -0.944351 -0.07120439
vn -0.4782344 -0.8470959 -0.2317765
vn -0.1950845 -0.9230425 -0.3315638
vn -0.2978299 -0.9435413 0.1450075
vn -0.7254534 -0.6882469 -0.005795628
vn -0.6156571 -0.6986909 0.3644137
vn 0.03225918 -0.9474127 0.3183841
vn 0.04173786 -0.9592023 0.2796228
vn -0.2275464 -0.9543103 0.1936865
vn 0.4299796 -0.8293946 0.3566822
vn 0.3698975 -0.7557412 0.540399
vn 0.4434549 -0.7952641 0.4134038
vn -0.9637753 -0.1433293 0.2249304
vn -0.9583851 -0.09180787 -0.2703136
vn -0.9688578 0.1678867 0.1820124
vn -0.8953859 0.2858622 -0.341419
vn -0.866253 0.1843335 0.4643567
vn -0.8551284 -0.1511463 0.4958934
vn -0.6620895 0.06463721 0.7466321
vn -0.2629094 -0.08054184 0.9614528
vn -0.5770289 0.02912669 -0.8162041
vn -0.5543334 0.3722141 -0.7444267
vn -0.2629094 -0.08054184 0.9614528
vn 0.2572268 0.4560189 0.8519866
vn 0.5389679 0.08206959 0.8383186
vn -0.4877169 0.2839077 0.8255475
vn 0.7399639 -0.5643317 0.3660371
vn 0.5433558 -0.6995634 0.4640858
vn 0.6778257 -0.3805159 0.6290944
vn 0.816103 -0.4426272 0.3715605
vn 0.855994 -0.5155671 -0.0382722
vn 0.8387852 -0.5346616 0.1028411
vn 0.8870906 -0.3991374 0.2318613
vn 0.7025551 -0.6818983 -0.2035461
vn 0.6844105 -0.7249405 0.07774015
vn 0.8087398 -0.2439554 -0.5351875
vn 0.8326311 -0.4877544 -0.2623379
vn 0.9033535 -0.3619637 -0.2300754
vn 0.8380852 -0.2284915 -0.4953837
vn 0.5978018 -0.5015568 -0.6253589
vn 0.6920096 -0.4810114 -0.538285
vn 0.8087398 -0.2439554 -0.5351875
vn 0.5583551 -0.2842854 -0.7793724
vn 0.2906755 -0.5781071 -0.7624303
vn 0.427977 -0.5404508 -0.7243955
vn 0.4695177 -0.3852534 -0.7944387
vn 0.1407286 -0.4071898 -0.9024367
vn -0.003407859 -0.8383796 -0.5450763
vn 0.05918821 -0.6537123 -0.7544249
vn 0.2564802 -0.7583649 -0.5992501
vn -0.1758633 -0.610377 -0.7723419
vn -0.1950845 -0.9230425 -0.3315638
vn -0.2898295 -0.6523318 -0.7003301
vn -0.003407859 -0.8383796 -0.5450763
vn -0.5132699 -0.7221994 -0.4636614
vn -0.2687092 -0.7736694 -0.5737866
vn 0.09195435 -0.2552032 -0.962505
vn 0.4440154 -0.03106143 -0.8954806
vn -0.07771706 0.4587989 -0.8851348
vn 0.3949189 0.5126867 -0.7623591
vn -0.142569 0.8386593 -0.5256659
vn 0.01960176 0.9679949 -0.250203
vn -0.4525759 0.8352677 -0.3122546
vn -0.5543334 0.3722141 -0.7444267
vn -0.1075905 0.1284981 -0.9858562
vn -0.5770289 0.02912669 -0.8162041
vn -0.5487961 0.8331176 -0.06883188
vn -0.8953859 0.2858622 -0.341419
vn -0.6086679 0.7793677 0.1486915
vn -0.9688578 0.1678867 0.1820124
vn -0.5653645 0.7667437 0.3040842
vn -0.866253 0.1843335 0.4643567
vn -0.4550959 0.7912774 0.4083719
vn -0.6400507 0.4060333 0.6522821
vn 0.7023814 0.5368511 -0.4673876
vn 0.8087398 -0.2439554 -0.5351875
vn 0.9753373 0.01057598 -0.220466
vn 0.8339841 0.5510263 -0.02899269
vn 0.1528511 0.983615 -0.09559371
vn 0.1744775 0.977286 0.1202895
vn 0.7272905 0.5144637 0.4542858
vn 0.9547197 -0.04073259 0.2947055
vn 0.9785528 -0.1643529 -0.124187
vn 0.08374885 0.9473086 0.3091803
vn -0.1123597 0.8533386 0.5091054
vn -0.3087883 0.5725938 0.7594643
vn 0.1365864 0.5082015 0.8503383
vn 0.2572268 0.4560189 0.8519866
vn 0.5471861 -0.1658568 -0.8204138
vn 0.8961152 -0.2109953 0.3904596
vn 0.6063215 -0.1381997 0.7831188
vn 0.7272905 0.5144637 0.4542858
vn 0.3490487 0.3700663 0.860939
vn 0.8392882 0.5073988 -0.1952988
vn 0.8171118 0.5110817 -0.2666906
vn 0.7873321 0.507077 -0.3506865
vn 0.8465621 0.4924817 -0.2019762
vn 0.7626005 0.5200189 -0.3847348
vn 0.7668 0.4975923 -0.4054868
vn 0.8244488 0.4860302 -0.2899292
vn 0.8617389 0.4662035 -0.2001513
vn 0.8186651 0.4905893 -0.2985127
vn 0.8466212 0.4918927 -0.2031603
vn 0.815386 0.4951708 -0.2999193
vn 0.8153846 0.4951732 -0.299919
vn 0.8388246 0.5086405 -0.1940569
vn 0.813441 0.4987529 -0.2992646
vn 0.8570157 0.4847124 -0.1748658
vn 0.8130972 0.4993827 -0.2991487
vn 0.8325727 0.5338278 -0.1478193
vn 0.824311 0.4765598 -0.3056177
vn 0.8268128 0.561783 -0.02793524
vn 0.7730565 0.5021217 -0.3876304
vn 0.8271111 0.4570262 -0.3271305
vn 0.6944092 0.5193098 -0.4981096
vn 0.7442572 0.4704752 -0.4740616
vn 0.784228 0.4536334 -0.4233241
vn 0.8207353 0.3946157 -0.4131244
vn 0.8763607 0.481629 0.005041728
vn 0.8186535 0.5681391 0.08381178
vn 0.5397761 0.5460221 -0.640704
vn 0.5737445 0.4768465 -0.665909
vn 0.881659 0.4655092 -0.07732161
vn 0.6957282 0.4220372 -0.581246
vn 0.8566825 0.5112152 -0.06895107
vn 0.8910617 0.4447643 -0.09052028
vn 0.7446291 0.3541126 -0.5658017
vn 0.8380298 0.3291606 -0.4351543
vn 0.8295453 0.3888548 -0.4008072
vn 0.7853602 0.4085417 -0.4650839
vn 0.8701466 0.3970238 -0.2919199
vn 0.7980218 0.4680038 -0.3796494
vn 0.7212623 0.5087503 -0.4700572
vn 0.7468662 0.5185676 -0.4162675
vn 0.7603806 0.5066461 -0.4063633
vn 0.8834716 0.4619644 -0.07788928
vn 0.8309103 0.5159982 -0.2081684
vn 0.916094 0.4009511 -0.003171741
vn 0.9084525 0.4162558 -0.03801657
vn 0.7799518 0.5085841 -0.3647155
vn 0.7620644 0.5037971 -0.4067512
vn 0.8064111 0.4908972 -0.3297287
vn 0.8122815 0.505879 -0.2903188
vn 0.8059398 0.5407978 -0.2408295
vn 0.8244322 0.5218357 -0.2190869
vn 0.8501567 0.497939 -0.1711446
vn 0.8562457 0.4904841 -0.1620761
vn 0.8535419 0.5130387 -0.09087085
vn 0.8428815 0.5036768 -0.1893683
vn 0.8052058 0.5416158 -0.2414455
vn 0.8686438 0.475416 -0.1394188
vn 0.8762257 0.4758546 -0.07609863
vn 0.8994559 0.4241877 -0.1050894
vn 0.8099022 0.5387537 0.2319548
g PoleArm1_b_0
f 3/3/3 2/2/2 1/1/1
f 4/4/4 2/2/2 3/3/3
f 4/4/4 5/5/5 2/2/2
f 6/6/6 5/5/5 4/4/4
f 6/6/6 7/7/7 5/5/5
f 8/8/8 7/7/7 6/6/6
f 8/8/8 9/9/9 7/7/7
f 10/10/10 9/9/9 8/8/8
f 10/10/10 11/11/11 9/9/9
f 12/12/12 11/11/11 10/10/10
f 3/3/3 1/1/1 13/13/13
f 13/13/13 1/1/1 14/14/14
f 17/17/17 16/16/16 15/15/15
f 18/18/18 16/16/16 17/17/17
f 17/17/17 15/15/15 19/19/19
f 19/19/19 15/15/15 20/20/20
f 19/19/19 20/20/20 21/21/21
f 21/21/21 20/20/20 22/22/22
f 21/21/21 22/22/22 23/23/23
f 23/23/23 22/22/22 24/24/24
f 23/23/23 24/24/24 25/25/25
f 25/25/25 24/24/24 26/26/26
f 25/25/25 26/26/26 27/27/27
f 27/27/27 26/26/26 28/28/28
f 31/31/31 30/30/30 29/29/29
f 32/32/32 30/30/30 31/31/31
f 31/31/31 29/29/29 33/33/33
f 33/33/33 29/29/29 34/34/34
f 33/33/33 34/34/34 35/35/35
f 35/35/35 34/34/34 36/36/36
f 35/35/35 36/36/36 37/37/37
f 37/37/37 36/36/36 38/38/38
f 37/37/37 38/38/38 39/39/39
f 39/39/39 38/38/38 40/40/40
f 30/30/30 41/41/41 29/29/29
f 30/30/30 42/42/42 41/41/41
f 43/43/43 42/42/42 30/30/30
f 44/44/44 43/43/43 30/30/30
f 45/45/45 43/43/43 44/44/44
f 43/43/43 46/46/46 42/42/42
f 47/47/47 46/46/46 43/43/43
f 48/48/48 47/47/47 43/43/43
f 49/49/49 47/47/47 48/48/48
f 49/49/49 50/50/50 47/47/47
f 51/51/51 50/50/50 49/49/49
f 50/50/50 52/52/52 47/47/47
f 47/47/47 52/52/52 46/46/46
f 50/50/50 53/53/53 52/52/52
f 54/54/54 53/53/53 50/50/50
f 29/29/29 41/41/41 55/55/55
f 29/29/29 55/55/55 56/56/56
f 56/56/56 55/55/55 57/57/57
f 60/60/60 59/59/59 58/58/58
f 61/61/61 59/59/59 60/60/60
f 64/64/64 63/63/63 62/62/62
f 65/65/65 63/63/63 64/64/64
f 67/67/67 62/62/62 66/66/66
f 68/68/68 62/62/62 67/67/67
f 70/70/70 66/66/66 69/69/69
f 69/69/69 72/72/72 71/71/71
f 75/75/75 74/74/74 73/73/73
f 76/76/76 74/74/74 75/75/75
f 79/79/79 78/78/78 77/77/77
f 82/82/82 81/81/81 80/80/80
f 85/85/85 84/84/84 83/83/83
f 86/86/86 84/84/84 85/85/85
f 89/89/89 88/88/88 87/87/87
f 90/90/90 88/88/88 89/89/89
f 93/93/93 92/92/92 91/91/91
f 94/94/94 92/92/92 93/93/93
f 94/94/94 95/95/95 92/92/92
f 96/96/96 95/95/95 94/94/94
f 96/96/96 97/97/97 95/95/95
f 98/98/98 97/97/97 96/96/96
f 98/98/98 99/99/99 97/97/97
f 100/100/100 99/99/99 98/98/98
f 101/101/101 93/93/93 91/91/91
f 102/102/102 93/93/93 101/101/101
f 105/105/105 104/104/104 103/103/103
f 107/107/107 104/104/104 106/106/106
f 110/110/110 109/109/109 108/108/108
f 111/111/111 109/109/109 110/110/110
f 114/114/114 113/113/113 112/112/112
f 112/112/112 113/113/113 115/115/115
f 117/117/117 115/115/115 116/116/116
f 116/116/116 115/115/115 118/118/118
f 116/116/116 120/120/120 119/119/119
f 119/119/119 120/120/120 121/121/121
f 124/124/124 123/123/123 122/122/122
f 125/125/125 123/123/123 124/124/124
f 128/128/128 127/127/127 126/126/126
f 130/130/130 129/129/129 128/128/128
f 128/128/128 132/132/132 131/131/131
f 131/131/131 132/132/132 133/133/133
f 131/131/131 133/133/133 134/134/134
f 134/134/134 136/136/136 135/135/135
f 137/137/137 134/134/134 135/135/135
f 139/139/139 134/134/134 138/138/138
f 142/142/142 141/141/141 140/140/140
f 143/143/143 141/141/141 142/142/142
f 142/142/142 140/140/140 144/144/144
f 144/144/144 140/140/140 145/145/145
f 144/144/144 145/145/145 146/146/146
f 146/146/146 145/145/145 147/147/147
f 143/143/143 148/148/148 141/141/141
f 149/149/149 148/148/148 143/143/143
f 152/152/152 151/151/151 150/150/150
f 150/150/150 151/151/151 153/153/153
f 156/156/156 155/155/155 154/154/154
f 154/154/154 155/155/155 157/157/157
f 160/160/160 159/159/159 158/158/158
f 158/158/158 162/162/162 161/161/161
f 165/165/165 164/164/164 163/163/163
f 163/163/163 164/164/164 166/166/166
f 169/169/169 168/168/168 167/167/167
f 167/167/167 168/168/168 170/170/170
f 173/173/173 172/172/172 171/171/171
f 171/171/171 172/172/172 174/174/174
f 177/177/177 176/176/176 175/175/175
f 175/175/175 176/176/176 178/178/178
f 181/181/181 180/180/180 179/179/179
f 179/179/179 183/183/183 182/182/182
f 186/186/186 185/185/185 184/184/184
f 187/187/187 185/185/185 186/186/186
f 188/188/188 187/187/187 186/186/186
f 189/189/189 187/187/187 188/188/188
f 188/188/188 186/186/186 190/190/190
f 188/188/188 190/190/190 189/189/189
f 190/190/190 186/186/186 191/191/191
f 186/186/186 192/192/192 191/191/191
f 191/191/191 192/192/192 193/193/193
f 190/190/190 191/191/191 194/194/194
f 194/194/194 189/189/189 190/190/190
f 194/194/194 191/191/191 195/195/195
f 194/194/194 195/195/195 196/196/196
f 196/196/196 195/195/195 197/197/197
f 196/196/196 197/197/197 198/198/198
f 198/198/198 197/197/197 199/199/199
f 198/198/198 199/199/199 200/200/200
f 200/200/200 199/199/199 201/201/201
f 189/189/189 202/202/202 187/187/187
f 202/202/202 203/203/203 187/187/187
f 202/202/202 204/204/204 203/203/203
f 205/205/205 204/204/204 202/202/202
f 206/206/206 205/205/205 202/202/202
f 196/196/196 206/206/206 194/194/194
f 207/207/207 205/205/205 206/206/206
f 207/207/207 206/206/206 196/196/196
f 198/198/198 207/207/207 196/196/196
f 207/207/207 208/208/208 205/205/205
f 208/208/208 209/209/209 205/205/205
f 205/205/205 209/209/209 210/210/210
f 211/211/211 208/208/208 207/207/207
f 211/211/211 207/207/207 198/198/198
f 200/200/200 211/211/211 198/198/198
f 212/212/212 211/211/211 200/200/200
f 213/213/213 212/212/212 200/200/200
f 214/214/214 212/212/212 213/213/213
f 211/211/211 215/215/215 208/208/208
f 212/212/212 215/215/215 211/211/211
f 206/206/206 202/202/202 189/189/189
f 206/206/206 189/189/189 194/194/194
f 187/187/187 203/203/203 216/216/216
f 219/219/219 218/218/218 217/217/217
f 220/220/220 218/218/218 219/219/219
f 223/223/223 222/222/222 221/221/221
f 224/224/224 223/223/223 221/221/221
f 225/225/225 223/223/223 224/224/224
f 225/225/225 224/224/224 226/226/226
f 226/226/226 224/224/224 227/227/227
f 224/224/224 228/228/228 227/227/227
f 227/227/227 228/228/228 229/229/229
f 228/228/228 230/230/230 229/229/229
f 229/229/229 230/230/230 231/231/231
f 230/230/230 232/232/232 231/231/231
f 233/233/233 232/232/232 230/230/230
f 233/233/233 234/234/234 232/232/232
f 235/235/235 234/234/234 233/233/233
f 235/235/235 236/236/236 234/234/234
f 237/237/237 236/236/236 235/235/235
f 237/237/237 238/238/238 236/236/236
f 239/239/239 238/238/238 237/237/237
f 238/238/238 240/240/240 236/236/236
f 241/241/241 240/240/240 238/238/238
f 236/236/236 242/242/242 234/234/234
f 240/240/240 242/242/242 236/236/236
f 234/234/234 243/243/243 232/232/232
f 242/242/242 243/243/243 234/234/234
f 232/232/232 244/244/244 231/231/231
f 243/243/243 244/244/244 232/232/232
f 244/244/244 229/229/229 231/231/231
f 245/245/245 229/229/229 244/244/244
f 246/246/246 237/237/237 235/235/235
f 247/247/247 237/237/237 246/246/246
f 247/247/247 239/239/239 237/237/237
f 248/248/248 242/242/242 240/240/240
f 249/249/249 242/242/242 248/248/248
f 249/249/249 243/243/243 242/242/242
f 246/246/246 235/235/235 250/250/250
f 250/250/250 235/235/235 233/233/233
f 251/251/251 243/243/243 249/249/249
f 251/251/251 244/244/244 243/243/243
f 250/250/250 233/233/233 252/252/252
f 252/252/252 233/233/233 230/230/230
f 252/252/252 230/230/230 253/253/253
f 253/253/253 230/230/230 228/228/228
f 254/254/254 244/244/244 251/251/251
f 254/254/254 245/245/245 244/244/244
f 255/255/255 245/245/245 254/254/254
f 255/255/255 256/256/256 245/245/245
f 256/256/256 227/227/227 245/245/245
f 256/256/256 226/226/226 227/227/227
f 257/257/257 226/226/226 256/256/256
f 256/256/256 258/258/258 257/257/257
f 255/255/255 258/258/258 256/256/256
f 259/259/259 226/226/226 257/257/257
f 259/259/259 257/257/257 258/258/258
f 260/260/260 226/226/226 259/259/259
f 260/260/260 225/225/225 226/226/226
f 261/261/261 225/225/225 260/260/260
f 261/261/261 223/223/223 225/225/225
f 262/262/262 223/223/223 261/261/261
f 263/263/263 259/259/259 258/258/258
f 264/264/264 259/259/259 263/263/263
f 265/265/265 258/258/258 255/255/255
f 263/263/263 258/258/258 265/265/265
f 266/266/266 263/263/263 265/265/265
f 266/266/266 264/264/264 263/263/263
f 262/262/262 267/267/267 223/223/223
f 268/268/268 267/267/267 262/262/262
f 267/267/267 222/222/222 223/223/223
f 269/269/269 222/222/222 267/267/267
f 270/270/270 222/222/222 269/269/269
f 271/271/271 222/222/222 270/270/270
f 272/272/272 222/222/222 271/271/271
f 272/272/272 273/273/273 222/222/222
f 273/273/273 221/221/221 222/222/222
f 274/274/274 221/221/221 273/273/273
f 274/274/274 275/275/275 221/221/221
f 276/276/276 273/273/273 272/272/272
f 276/276/276 272/272/272 277/277/277
f 277/277/277 272/272/272 271/271/271
f 278/278/278 273/273/273 276/276/276
f 275/275/275 224/224/224 221/221/221
f 279/279/279 224/224/224 275/275/275
f 279/279/279 280/280/280 224/224/224
f 280/280/280 228/228/228 224/224/224
f 253/253/253 228/228/228 280/280/280
f 245/245/245 227/227/227 229/229/229
f 281/281/281 239/239/239 247/247/247
