g polySurface98
v 396.9872 173.8938 -160.4056
v 362.8297 173.8938 -155.3629
v 396.4726 173.8938 -168.6049
v 356.7188 173.8938 -166.0352
v 447.2788 173.8938 -173.9315
v 445.6811 173.8937 -165.7278
v 467.7654 173.8937 -175.9568
v 464.6777 173.8938 -167.2532
v 481.3035 173.8938 -177.9735
v 475.9959 173.8938 -166.5379
v 396.4726 173.8938 -168.6049
v 356.7188 173.8938 -166.0352
v 394.6465 161.0675 -172.5718
v 360.0353 161.0674 -170.123
v 443.4917 161.0674 -176.2928
v 447.2788 173.8938 -173.9315
v 462.4818 161.0675 -178.3326
v 467.7654 173.8937 -175.9568
v 474.4835 161.0674 -180.7391
v 481.3035 173.8938 -177.9735
v 356.7188 173.8938 -166.0352
v 362.8297 173.8938 -155.3629
v 354.7991 178.2829 -167.1835
v 360.9492 180.4077 -155.0077
v 360.0353 161.0674 -170.123
v 358.5264 161.8121 -172.8933
v 354.7991 178.2829 -167.1835
v 475.9959 173.8938 -166.5379
v 481.3035 173.8938 -177.9735
v 479.9743 180.4077 -167.154
v 484.4893 178.9643 -178.0886
v 474.4835 161.0674 -180.7391
v 484.122 177.1342 -180.0493
v 481.3035 173.8938 -177.9735
v 474.4835 161.0674 -180.7391
v 474.7096 160.7418 -183.1418
v 484.4893 178.9643 -178.0886
v 487.4402 178.0311 -177.9391
v 479.9743 180.4077 -167.154
v 482.4962 179.7402 -166.9457
v 484.122 177.1342 -180.0493
v 487.0366 176.2911 -179.9403
v 474.7096 160.7418 -183.1418
v 477.3782 160.0066 -183.4327
v 354.7991 178.2829 -167.1835
v 360.9492 180.4077 -155.0077
v 351.3129 178.4097 -166.9977
v 357.4618 180.5403 -154.8317
v 358.5264 161.8121 -172.8933
v 354.7991 178.2829 -167.1835
v 354.3745 161.7645 -172.7472
v 351.3129 178.4097 -166.9977
v 362.8297 173.8938 -155.3629
v 396.9872 173.8938 -160.4056
v 360.5829 160.9113 -155.0249
v 394.2343 160.129 -160.9737
v 445.6811 173.8937 -165.7278
v 444.0971 160.1233 -167.3288
v 465.2146 160.4424 -166.752
v 464.6777 173.8938 -167.2532
v 475.9959 173.8938 -166.5379
v 478.1008 160.6372 -166.4
v 420.9685 171.6626 -176.1935
v 419.8386 166.8209 -176.163
v 439.9906 172.0663 -178.4211
v 437.2064 167.4319 -178.1909
v 415.9891 166.645 -176.8503
v 416.6225 171.5463 -176.7788
v 410.4971 166.4571 -176.6529
v 410.601 171.4222 -176.4725
v 416.8266 173.7887 -175.2328
v 410.4685 173.7051 -174.8573
v 416.6429 176.4595 -168.9352
v 410.2404 176.5405 -168.2886
v 417.6115 175.3005 -162.4659
v 422.4586 174.4429 -163.9156
v 421.9956 175.6092 -169.7148
v 442.5689 174.9283 -165.3394
v 443.4655 176.1199 -171.6442
v 421.4879 173.8671 -174.7124
v 441.0922 174.139 -177.1875
v 400.5843 166.1297 -174.7582
v 399.7975 171.2058 -174.3219
v 399.0023 173.5593 -172.7664
v 399.0778 176.6817 -167.1612
v 411.4648 175.3893 -162.7197
v 417.6115 175.3005 -162.4659
v 441.0922 174.139 -177.1875
v 401.2678 175.5443 -160.5841
v 411.4648 175.3893 -162.7197
v 441.0922 174.139 -177.1875
v 420.9685 171.6626 -176.1935
v 439.9906 172.0663 -178.4211
v 440.6623 172.0867 -163.963
v 422.4586 174.4429 -163.9156
v 442.5689 174.9283 -165.3394
v 422.553 172.131 -162.5837
v 439.1788 166.9901 -162.563
v 417.6115 175.3005 -162.4659
v 417.4492 172.1438 -161.3705
v 411.4648 175.3893 -162.7197
v 417.6115 175.3005 -162.4659
v 411.7189 172.1575 -161.6915
v 411.4648 175.3893 -162.7197
v 417.4492 172.1438 -161.3705
v 401.2678 175.5443 -160.5841
v 402.2479 172.1812 -159.6729
v 411.7415 166.5989 -160.5175
v 403.0269 166.4859 -158.6207
v 417.038 166.6637 -160.1266
v 421.5863 166.9955 -162.2222
v 421.5863 166.9955 -162.2222
v 422.553 172.131 -162.5837
v 439.1788 166.9901 -162.563
v 417.4492 172.1438 -161.3705
v 417.4492 172.1438 -161.3705
v 417.6115 175.3005 -162.4659
v 422.553 172.131 -162.5837
v 440.505 172.8992 -180.0736
v 437.8138 167.6998 -180.3989
v 443.3059 172.9107 -180.3351
v 440.4183 167.7394 -180.6163
v 445.3663 175.3349 -179.3081
v 442.4214 175.3437 -179.0143
v 447.5274 177.2391 -172.5981
v 442.4214 175.3437 -179.0143
v 445.3663 175.3349 -179.3081
v 444.455 177.3246 -172.3121
v 446.564 176.7614 -165.2782
v 443.7206 176.8504 -164.9649
v 444.227 172.9151 -162.8281
v 443.7206 176.8504 -164.9649
v 446.564 176.7614 -165.2782
v 441.5959 172.9611 -162.5228
v 396.278 172.0463 -176.478
v 397.4237 165.2642 -176.2333
v 398.9692 172.0624 -176.7247
v 399.9578 165.3026 -176.4447
v 398.5254 175.4768 -174.6349
v 395.6601 175.4855 -174.3491
v 398.6658 178.5993 -168.0487
v 395.6769 178.6825 -167.7704
v 401.3375 178.1792 -160.296
v 398.5709 178.266 -159.9912
v 402.42 173.478 -157.8866
v 399.8679 173.5211 -157.5899
v 400.3501 167.43 -157.3152
v 399.8679 173.5211 -157.5899
v 402.7747 167.4128 -157.6071
v 402.42 173.478 -157.8866
v 439.976 167.1778 -161.7413
v 441.5959 172.9611 -162.5228
v 442.4682 167.16 -162.0413
v 444.227 172.9151 -162.8281
v 439.9906 172.0663 -178.4211
v 437.2064 167.4319 -178.1909
v 440.505 172.8992 -180.0736
v 437.8138 167.6998 -180.3989
v 442.4214 175.3437 -179.0143
v 444.455 177.3246 -172.3121
v 441.0922 174.139 -177.1875
v 443.4655 176.1199 -171.6442
v 441.0922 174.139 -177.1875
v 443.7206 176.8504 -164.9649
v 442.5689 174.9283 -165.3394
v 443.7206 176.8504 -164.9649
v 441.5959 172.9611 -162.5228
v 440.6623 172.0867 -163.963
v 439.976 167.1778 -161.7413
v 441.0922 174.139 -177.1875
v 439.9906 172.0663 -178.4211
v 442.4214 175.3437 -179.0143
v 439.1788 166.9901 -162.563
v 440.6623 172.0867 -163.963
v 439.976 167.1778 -161.7413
v 402.2479 172.1812 -159.6729
v 403.0269 166.4859 -158.6207
v 402.42 173.478 -157.8866
v 402.7747 167.4128 -157.6071
v 401.3375 178.1792 -160.296
v 401.2678 175.5443 -160.5841
v 398.6658 178.5993 -168.0487
v 399.0778 176.6817 -167.1612
v 398.5254 175.4768 -174.6349
v 399.0023 173.5593 -172.7664
v 398.9692 172.0624 -176.7247
v 399.7975 171.2058 -174.3219
v 399.9578 165.3026 -176.4447
v 400.5843 166.1297 -174.7582
v 410.2875 122.7698 -179.5204
v 407.3642 122.7698 -175.8181
v 411.317 122.7698 -174.9344
v 407.3642 122.7698 -175.8181
v 410.2875 122.7698 -179.5204
v 413.6605 162.4305 -169.4566
v 416.584 162.4305 -173.1589
v 411.317 122.7698 -174.9344
v 407.3642 122.7698 -175.8181
v 417.6135 162.4305 -168.5729
v 413.6605 162.4305 -169.4566
v 416.584 162.4305 -173.1589
v 411.317 122.7698 -174.9344
v 417.6135 162.4305 -168.5729
v 410.2875 122.7698 -179.5204
v 458.8798 143.5074 -175.5805
v 449.5429 143.6935 -175.3452
v 474.5036 163.0978 -172.655
v 461.9438 163.284 -171.3794
v 441.5532 127.8411 -178.5586
v 451.1986 127.655 -179.3754
v 458.9214 143.517 -182.7704
v 458.8798 143.5074 -175.5805
v 474.8436 163.1053 -178.7142
v 474.5036 163.0978 -172.655
v 451.1986 127.655 -179.3754
v 450.7807 127.6645 -187.1335
v 449.6447 143.7032 -182.796
v 458.9214 143.517 -182.7704
v 462.2898 163.2915 -177.1778
v 474.8436 163.1053 -178.7142
v 450.7807 127.6645 -187.1335
v 441.6146 127.8508 -185.5305
v 449.5429 143.6935 -175.3452
v 449.6447 143.7032 -182.796
v 461.9438 163.284 -171.3794
v 462.2898 163.2915 -177.1778
v 441.6146 127.8508 -185.5305
v 441.5532 127.8411 -178.5586
v 376.6574 163.2001 -164.1071
v 380.9986 143.6445 -172.5954
v 365.158 162.662 -163.6505
v 365.158 162.662 -163.6505
v 380.9986 143.6445 -172.5954
v 372.8305 145.9488 -168.724
v 383.5004 128.5533 -177.5725
v 374.5825 128.6978 -173.9187
v 365.158 162.662 -163.6505
v 372.8305 145.9488 -168.724
v 361.276 162.9963 -170.146
v 370.0523 146.251 -175.691
v 372.6988 134.8551 -178.8079
v 372.9118 128.9003 -180.7815
v 374.5825 128.6978 -173.9187
v 361.276 162.9963 -170.146
v 370.0523 146.251 -175.691
v 375.0706 163.5256 -169.67
v 379.3448 143.9728 -178.2686
v 372.6988 134.8551 -178.8079
v 372.9118 128.9003 -180.7815
v 382.5334 128.8521 -182.4415
v 375.0706 163.5256 -169.67
v 379.3448 143.9728 -178.2686
v 376.6574 163.2001 -164.1071
v 380.9986 143.6445 -172.5954
v 382.5334 128.8521 -182.4415
v 383.5004 128.5533 -177.5725
v 454.4252 127.5886 -177.1234
v 438.2355 127.9011 -175.7523
v 454.5862 127.6048 -190.0672
v 438.0373 127.9174 -187.989
v 387.5145 128.6093 -174.0249
v 369.668 128.4561 -170.928
v 384.9859 128.6893 -185.0711
v 367.2349 128.6475 -183.2486
v 438.2355 127.9011 -175.7523
v 454.4252 127.5886 -177.1234
v 436.6024 116.0981 -180.128
v 448.8855 115.7857 -182.2054
v 454.5862 127.6048 -190.0672
v 438.0373 127.9174 -187.989
v 447.2334 115.8018 -193.7953
v 436.922 116.1144 -192.2458
v 438.0373 127.9174 -187.989
v 438.2355 127.9011 -175.7523
v 436.922 116.1144 -192.2458
v 436.6024 116.0981 -180.128
v 454.4252 127.5886 -177.1234
v 454.5862 127.6048 -190.0672
v 448.8855 115.7857 -182.2054
v 447.2334 115.8018 -193.7953
v 369.668 128.4561 -170.928
v 387.5145 128.6093 -174.0249
v 370.6992 116.6532 -174.6433
v 388.7406 116.8064 -177.6715
v 384.9859 128.6893 -185.0711
v 367.2349 128.6475 -183.2486
v 385.4183 116.8012 -189.226
v 371.8947 116.8445 -188.0179
v 367.2349 128.6475 -183.2486
v 369.668 128.4561 -170.928
v 371.8947 116.8445 -188.0179
v 370.6992 116.6532 -174.6433
v 387.5145 128.6093 -174.0249
v 384.9859 128.6893 -185.0711
v 388.7406 116.8064 -177.6715
v 385.4183 116.8012 -189.226
v 470.1933 91.66449 -203.0265
v 460.9254 91.66449 -221.215
v 461.5414 35.74697 -205.0896
v 452.4874 35.74697 -223.0657
v 464.9479 35.74697 -184.7147
v 474.4248 91.66449 -182.8661
v 446.4911 91.66449 -235.6498
v 438.052 35.74697 -237.5004
v 428.3023 91.66449 -244.9173
v 419.8632 35.74697 -246.981
v 408.14 91.66449 -248.1107
v 400.1261 35.74697 -250.3879
v 387.9772 91.66449 -244.9174
v 379.5389 35.74697 -246.7682
v 369.7887 91.66449 -235.6498
v 361.1344 35.74697 -238.9895
v 355.3539 91.66449 -221.215
v 345.4236 35.74697 -224.1267
v 345.4626 91.66449 -203.2329
v 335.3044 35.74697 -206.1489
v 341.6474 91.66449 -182.4458
v 335.3044 35.74697 -206.1489
v 341.6474 91.66449 -182.4458
v 334.4546 35.74697 -184.7148
v 345.0488 91.66449 -162.0761
v 337.648 35.74697 -164.5524
v 355.3539 91.66449 -144.513
v 346.9156 35.74697 -146.3636
v 371.0343 91.66449 -130.4964
v 361.3504 35.74697 -131.929
v 388.3905 91.66449 -121.8503
v 379.539 35.74697 -122.6614
v 408.1374 91.66449 -118.8638
v 399.7015 35.74697 -119.4679
v 429.1338 91.66449 -120.6046
v 419.8637 35.74697 -122.6614
v 447.7383 91.66449 -129.6655
v 438.0524 35.74697 -131.929
v 461.9653 91.66449 -143.892
v 452.4869 35.74697 -146.3635
v 471.8543 91.66449 -163.1206
v 461.7547 35.74697 -164.5524
v 474.4248 91.66449 -182.8661
v 464.9479 35.74697 -184.7147
v 460.9254 91.66449 -221.215
v 470.1933 91.66449 -203.0265
v 445.6962 91.66449 -210.4326
v 452.0327 91.66449 -197.9972
v 474.4248 91.66449 -182.8661
v 454.2155 91.66449 -184.2125
v 471.8543 91.66449 -163.1206
v 452.0327 91.66449 -170.4278
v 461.9653 91.66449 -143.892
v 445.6962 91.66449 -157.9925
v 447.7383 91.66449 -129.6655
v 435.8271 91.66449 -148.1237
v 429.1338 91.66449 -120.6046
v 423.3921 91.66449 -141.7876
v 408.1374 91.66449 -118.8638
v 409.6077 91.66449 -139.6043
v 388.3905 91.66449 -121.8503
v 395.8225 91.66449 -141.7876
v 371.0343 91.66449 -130.4964
v 383.3876 91.66449 -148.1237
v 355.3539 91.66449 -144.513
v 373.5186 91.66449 -157.9925
v 345.0488 91.66449 -162.0761
v 367.1825 91.66449 -170.4279
v 341.6474 91.66449 -182.4458
v 364.9991 91.66449 -184.2125
v 345.4626 91.66449 -203.2329
v 367.1825 91.66449 -197.9973
v 355.3539 91.66449 -221.215
v 373.5186 91.66449 -210.4326
v 369.7887 91.66449 -235.6498
v 383.3875 91.66449 -220.3013
v 387.9772 91.66449 -244.9174
v 395.8225 91.66449 -226.6376
v 408.14 91.66449 -248.1107
v 409.6077 91.66449 -228.8207
v 428.3023 91.66449 -244.9173
v 423.3921 91.66449 -226.6374
v 446.4911 91.66449 -235.6498
v 434.7874 91.66449 -220.9223
v 437.8157 91.66449 -218.313
v 445.6962 91.66449 -210.4326
v 452.0327 91.66449 -197.9972
v 446.6671 116.7587 -205.9251
v 452.5714 116.7587 -193.9369
v 454.2155 91.66449 -184.2125
v 454.2173 116.7587 -180.6357
v 438.9643 116.7587 -213.5452
v 437.8157 91.66449 -218.313
v 452.0327 91.66449 -170.4278
v 451.6852 116.7587 -167.2004
v 445.6962 91.66449 -157.9925
v 445.5335 116.7587 -155.5564
v 434.7874 91.66449 -220.9223
v 435.4179 116.7587 -216.6539
v 424.8942 116.7587 -221.4014
v 423.3921 91.66449 -226.6374
v 411.3602 116.7587 -223.2877
v 409.6077 91.66449 -228.8207
v 408.6873 116.7587 -222.8201
v 402.2974 107.5892 -223.8952
v 395.8225 91.66449 -226.6376
v 397.9678 116.7587 -220.9454
v 435.4179 116.7587 -216.6539
v 437.8157 91.66449 -218.313
v 436.0529 114.2942 -213.8967
v 383.3875 91.66449 -220.3013
v 395.8225 91.66449 -226.6376
v 386.0199 116.7587 -214.5837
v 397.9678 116.7587 -220.9454
v 376.5212 116.7587 -204.9038
v 373.5186 91.66449 -210.4326
v 370.5251 116.7587 -192.8611
v 367.1825 91.66449 -197.9973
v 364.9991 91.66449 -184.2125
v 368.649 116.7587 -180.0645
v 368.649 116.7587 -180.0645
v 367.1825 91.66449 -197.9973
v 370.5251 116.7587 -192.8611
v 370.974 116.7587 -167.6923
v 364.9991 91.66449 -184.2125
v 367.1825 91.66449 -170.4279
v 377.3342 116.7587 -156.8698
v 373.5186 91.66449 -157.9925
v 387.1572 116.7587 -148.5749
v 383.3876 91.66449 -148.1237
v 399.2704 116.7587 -142.8436
v 395.8225 91.66449 -141.7876
v 412.1996 116.7587 -140.4907
v 409.6077 91.66449 -139.6043
v 424.8755 116.7587 -141.7642
v 423.3921 91.66449 -141.7876
v 436.3826 116.7587 -146.9089
v 435.8271 91.66449 -148.1237
v 445.5335 116.7587 -155.5564
v 445.6962 91.66449 -157.9925
v 435.4179 116.7587 -216.6539
v 436.0529 114.2942 -213.8967
v 423.8751 116.7587 -202.4355
v 426.7864 114.6403 -201.8602
v 418.2637 116.7587 -205.3833
v 435.4179 116.7587 -216.6539
v 423.8751 116.7587 -202.4355
v 424.8942 116.7587 -221.4014
v 411.1754 116.7587 -206.7802
v 411.3602 116.7587 -223.2877
v 403.9885 116.7587 -214.6005
v 402.5294 116.7587 -206.9478
v 397.9678 116.7587 -220.9454
v 394.7954 116.7587 -203.5562
v 386.0199 116.7587 -214.5837
v 388.8116 116.7587 -197.2523
v 376.5212 116.7587 -204.9038
v 385.4183 116.8012 -189.226
v 370.5251 116.7587 -192.8611
v 384.2629 116.7587 -181.6045
v 368.649 116.7587 -180.0645
v 384.906 116.7587 -173.6027
v 370.974 116.7587 -167.6923
v 389.5296 116.7587 -166.7859
v 377.3342 116.7587 -156.8698
v 395.718 116.7587 -161.56
v 387.1572 116.7587 -148.5749
v 403.3495 116.7587 -157.9494
v 399.2704 116.7587 -142.8436
v 411.3426 116.7587 -157.2771
v 412.1996 116.7587 -140.4907
v 418.8345 116.7514 -158.666
v 424.8755 116.7587 -141.7642
v 425.9508 116.7587 -161.6809
v 436.3826 116.7587 -146.9089
v 431.0683 116.7954 -166.8206
v 445.5335 116.7587 -155.5564
v 434.5652 116.8819 -173.8398
v 451.6852 116.7587 -167.2004
v 434.5738 116.9185 -182.3833
v 454.2173 116.7587 -180.6357
v 432.0567 116.9442 -189.424
v 452.5714 116.7587 -193.9369
v 429.8255 116.8812 -195.8722
v 446.6671 116.7587 -205.9251
v 427.3771 116.7998 -199.6894
v 438.9643 116.7587 -213.5452
v 426.7864 114.6403 -201.8602
v 438.9643 116.7587 -213.5452
v 436.0529 114.2942 -213.8967
v 397.9678 116.7587 -220.9454
v 403.2373 113.7197 -219.2452
v 403.9885 116.7587 -214.6005
v 397.9678 116.7587 -220.9454
v 402.2974 107.5892 -223.8952
v 403.2373 113.7197 -219.2452
v 408.6873 116.7587 -222.8201
v 403.9885 116.7587 -214.6005
v 402.2974 107.5892 -223.8952
v 436.0529 114.2942 -213.8967
v 437.8157 91.66449 -218.313
v 438.9643 116.7587 -213.5452
v 408.6873 116.7587 -222.8201
v 429.8255 116.8812 -195.8722
v 432.0567 116.9442 -189.424
v 422.044 44.90465 -191.049
v 424.8206 44.96161 -184.6773
v 434.5738 116.9185 -182.3833
v 424.3127 44.93811 -176.5571
v 434.5652 116.8819 -173.8398
v 426.7864 114.6403 -201.8602
v 418.6717 44.8212 -195.3873
v 427.3771 116.7998 -199.6894
v 423.8751 116.7587 -202.4355
v 417.5368 44.79311 -196.8473
v 410.5224 44.79269 -200.3014
v 418.2637 116.7587 -205.3833
v 402.7707 44.79269 -201.382
v 411.1754 116.7587 -206.7802
v 395.0995 44.79269 -200.0403
v 402.5294 116.7587 -206.9478
v 388.256 44.79269 -196.3965
v 394.7954 116.7587 -203.5562
v 388.8116 116.7587 -197.2523
v 394.7954 116.7587 -203.5562
v 382.8154 44.79269 -190.8519
v 388.256 44.79269 -196.3965
v 379.3807 44.79269 -183.9542
v 385.4183 116.8012 -189.226
v 378.3063 44.79269 -176.6246
v 384.2629 116.7587 -181.6045
v 379.6378 44.79269 -169.5381
v 384.906 116.7587 -173.6027
v 383.2811 44.79269 -163.3392
v 389.5296 116.7587 -166.7859
v 388.9073 44.79269 -158.588
v 395.718 116.7587 -161.56
v 395.8454 44.79269 -155.3053
v 403.3495 116.7587 -157.9494
v 403.1099 44.79271 -154.694
v 411.3426 116.7587 -157.2771
v 409.9236 44.78604 -155.9589
v 418.8345 116.7514 -158.666
v 416.4088 44.79274 -158.7113
v 425.9508 116.7587 -161.6809
v 421.0828 44.82635 -163.4115
v 431.0683 116.7954 -166.8206
v 434.5652 116.8819 -173.8398
v 422.3895 44.905 -170.4148
v 424.3127 44.93811 -176.5571
v 422.3895 44.905 -170.4148
v 431.0683 116.7954 -166.8206
v 421.0828 44.82635 -163.4115
v 410.5224 44.79269 -200.3014
v 395.0995 44.79269 -200.0403
v 402.7707 44.79269 -201.382
v 417.5368 44.79311 -196.8473
v 388.256 44.79269 -196.3965
v 418.6717 44.8212 -195.3873
v 382.8154 44.79269 -190.8519
v 422.044 44.90465 -191.049
v 424.8206 44.96161 -184.6773
v 379.3807 44.79269 -183.9542
v 424.3127 44.93811 -176.5571
v 378.3063 44.79269 -176.6246
v 379.6378 44.79269 -169.5381
v 422.3895 44.905 -170.4148
v 421.0828 44.82635 -163.4115
v 383.2811 44.79269 -163.3392
v 416.4088 44.79274 -158.7113
v 388.9073 44.79269 -158.588
v 409.9236 44.78604 -155.9589
v 395.8454 44.79269 -155.3053
v 403.1099 44.79271 -154.694
vt 0.693013 0.68198
vt 0.622166 0.692285
vt 0.691982 0.664977
vt 0.609543 0.670129
vt 0.79735 0.654156
vt 0.794001 0.671159
vt 0.839837 0.650048
vt 0.833396 0.66808
vt 0.867916 0.645926
vt 0.856861 0.669614
vt 0.691982 0.664977
vt 0.609543 0.670129
vt 0.693271 0.651836
vt 0.621909 0.656733
vt 0.793982 0.64438
vt 0.79735 0.654156
vt 0.833139 0.640258
vt 0.839837 0.650048
vt 0.857891 0.63535
vt 0.867916 0.645926
vt 0.609543 0.670129
vt 0.622166 0.692285
vt 0.603659 0.669454
vt 0.615468 0.695634
vt 0.621909 0.656733
vt 0.618493 0.651298
vt 0.603659 0.669454
vt 0.856861 0.669614
vt 0.867916 0.645926
vt 0.863044 0.670902
vt 0.872935 0.647631
vt 0.857891 0.63535
vt 0.872755 0.642861
vt 0.867916 0.645926
vt 0.857891 0.63535
vt 0.858471 0.630277
vt 0.872935 0.647631
vt 0.879357 0.647599
vt 0.863044 0.670902
vt 0.868498 0.671084
vt 0.872755 0.642861
vt 0.879068 0.64278
vt 0.858471 0.630277
vt 0.864205 0.629417
vt 0.603659 0.669454
vt 0.615468 0.695634
vt 0.59636 0.669874
vt 0.608158 0.696038
vt 0.618493 0.651298
vt 0.603659 0.669454
vt 0.609951 0.651563
vt 0.59636 0.669874
vt 0.622166 0.692285
vt 0.693013 0.68198
vt 0.623037 0.687798
vt 0.692738 0.675377
vt 0.794001 0.671159
vt 0.795517 0.662498
vt 0.838926 0.663903
vt 0.833396 0.66808
vt 0.856861 0.669614
vt 0.86542 0.66476
vt 0.743636 0.6485
vt 0.743093 0.646719
vt 0.782904 0.644122
vt 0.778782 0.642835
vt 0.735206 0.645215
vt 0.73468 0.647224
vt 0.723926 0.645527
vt 0.722253 0.647785
vt 0.734254 0.651283
vt 0.721101 0.652002
vt 0.73284 0.665378
vt 0.719515 0.666723
vt 0.735257 0.678354
vt 0.745638 0.67503
vt 0.744271 0.663453
vt 0.787182 0.672356
vt 0.788651 0.659742
vt 0.743887 0.652413
vt 0.78445 0.647471
vt 0.70356 0.649275
vt 0.699953 0.652109
vt 0.697377 0.65623
vt 0.696282 0.66907
vt 0.722472 0.677835
vt 0.735257 0.678354
vt 0.78445 0.647471
vt 0.701244 0.682282
vt 0.722472 0.677835
vt 0.78445 0.647471
vt 0.743636 0.6485
vt 0.782904 0.644122
vt 0.784225 0.674087
vt 0.745638 0.67503
vt 0.787182 0.672356
vt 0.746684 0.676882
vt 0.782947 0.674979
vt 0.735257 0.678354
vt 0.7361 0.679378
vt 0.722472 0.677835
vt 0.735257 0.678354
vt 0.724224 0.678693
vt 0.722472 0.677835
vt 0.7361 0.679378
vt 0.701244 0.682282
vt 0.704584 0.682843
vt 0.726373 0.678933
vt 0.708398 0.68277
vt 0.737293 0.679789
vt 0.74658 0.675608
vt 0.74658 0.675608
vt 0.746684 0.676882
vt 0.782947 0.674979
vt 0.7361 0.679378
vt 0.7361 0.679378
vt 0.735257 0.678354
vt 0.746684 0.676882
vt 0.783683 0.641016
vt 0.779953 0.638373
vt 0.789485 0.64049
vt 0.785325 0.63795
vt 0.792905 0.643546
vt 0.78679 0.644146
vt 0.796697 0.658212
vt 0.78679 0.644146
vt 0.792905 0.643546
vt 0.790285 0.658825
vt 0.79483 0.67322
vt 0.788894 0.673893
vt 0.791315 0.67678
vt 0.788894 0.673893
vt 0.79483 0.67322
vt 0.785845 0.677419
vt 0.692343 0.647947
vt 0.697374 0.645885
vt 0.697912 0.647454
vt 0.702594 0.645474
vt 0.695642 0.653089
vt 0.689692 0.653673
vt 0.694675 0.667974
vt 0.68843 0.668571
vt 0.700356 0.683928
vt 0.694573 0.684583
vt 0.704428 0.687061
vt 0.699119 0.687682
vt 0.702494 0.68583
vt 0.699119 0.687682
vt 0.707514 0.68523
vt 0.704428 0.687061
vt 0.784525 0.676755
vt 0.785845 0.677419
vt 0.789684 0.676139
vt 0.791315 0.67678
vt 0.782904 0.644122
vt 0.778782 0.642835
vt 0.783683 0.641016
vt 0.779953 0.638373
vt 0.78679 0.644146
vt 0.790285 0.658825
vt 0.78445 0.647471
vt 0.788651 0.659742
vt 0.78445 0.647471
vt 0.788894 0.673893
vt 0.787182 0.672356
vt 0.788894 0.673893
vt 0.785845 0.677419
vt 0.784225 0.674087
vt 0.784525 0.676755
vt 0.78445 0.647471
vt 0.782904 0.644122
vt 0.78679 0.644146
vt 0.782947 0.674979
vt 0.784225 0.674087
vt 0.784525 0.676755
vt 0.704584 0.682843
vt 0.708398 0.68277
vt 0.704428 0.687061
vt 0.707514 0.68523
vt 0.700356 0.683928
vt 0.701244 0.682282
vt 0.694675 0.667974
vt 0.696282 0.66907
vt 0.695642 0.653089
vt 0.697377 0.65623
vt 0.697912 0.647454
vt 0.699953 0.652109
vt 0.702594 0.645474
vt 0.70356 0.649275
vt 0.739759 0.623501
vt 0.733818 0.630992
vt 0.741826 0.6328
vt 0.733818 0.630992
vt 0.739759 0.623501
vt 0.731944 0.658865
vt 0.737991 0.65124
vt 0.741826 0.6328
vt 0.733818 0.630992
vt 0.740094 0.660705
vt 0.731944 0.658865
vt 0.737991 0.65124
vt 0.741826 0.6328
vt 0.740094 0.660705
vt 0.739759 0.623501
vt 0.831495 0.639336
vt 0.812334 0.639845
vt 0.857251 0.652789
vt 0.831268 0.655437
vt 0.801407 0.627427
vt 0.821063 0.625742
vt 0.831608 0.624633
vt 0.831495 0.639336
vt 0.857976 0.64029
vt 0.857251 0.652789
vt 0.821063 0.625742
vt 0.820245 0.609987
vt 0.812571 0.624608
vt 0.831608 0.624633
vt 0.832004 0.643476
vt 0.857976 0.64029
vt 0.820245 0.609987
vt 0.801558 0.61327
vt 0.812334 0.639845
vt 0.812571 0.624608
vt 0.831268 0.655437
vt 0.832004 0.643476
vt 0.801558 0.61327
vt 0.801407 0.627427
vt 0.655276 0.670036
vt 0.672131 0.645153
vt 0.631771 0.670718
vt 0.631771 0.670718
vt 0.672131 0.645153
vt 0.65447 0.653908
vt 0.683208 0.629439
vt 0.665015 0.636877
vt 0.631771 0.670718
vt 0.65447 0.653908
vt 0.62365 0.657429
vt 0.648688 0.639743
vt 0.658735 0.629181
vt 0.661569 0.622998
vt 0.665015 0.636877
vt 0.62365 0.657429
vt 0.648688 0.639743
vt 0.651893 0.658675
vt 0.668642 0.633663
vt 0.658735 0.629181
vt 0.661569 0.622998
vt 0.681147 0.619649
vt 0.651893 0.658675
vt 0.668642 0.633663
vt 0.655276 0.670036
vt 0.672131 0.645153
vt 0.681147 0.619649
vt 0.683208 0.629439
vt 0.827629 0.630306
vt 0.794635 0.633135
vt 0.828007 0.604024
vt 0.79428 0.608284
vt 0.691327 0.636685
vt 0.655114 0.642843
vt 0.686206 0.614258
vt 0.650146 0.617869
vt 0.794635 0.633135
vt 0.827629 0.630306
vt 0.795363 0.619983
vt 0.820294 0.615726
vt 0.828007 0.604024
vt 0.79428 0.608284
vt 0.817001 0.592308
vt 0.796056 0.595503
vt 0.79428 0.608284
vt 0.794635 0.633135
vt 0.796056 0.595503
vt 0.795363 0.619983
vt 0.827629 0.630306
vt 0.828007 0.604024
vt 0.820294 0.615726
vt 0.817001 0.592308
vt 0.655114 0.642843
vt 0.691327 0.636685
vt 0.661949 0.630984
vt 0.698368 0.624996
vt 0.686206 0.614258
vt 0.650146 0.617869
vt 0.692392 0.602604
vt 0.664347 0.604024
vt 0.650146 0.617869
vt 0.655114 0.642843
vt 0.664347 0.604024
vt 0.661949 0.630984
vt 0.691327 0.636685
vt 0.686206 0.614258
vt 0.698368 0.624996
vt 0.692392 0.602604
vt 0.696983 0.114853
vt 0.678428 0.078246
vt 0.696635 0.09258
vt 0.67894 0.057261
vt 0.703236 0.132583
vt 0.705405 0.155403
vt 0.64947 0.049163
vt 0.650669 0.02887
vt 0.612941 0.030453
vt 0.61501 0.010187
vt 0.572419 0.023946
vt 0.576287 0.003417
vt 0.531869 0.03028
vt 0.535866 0.010436
vt 0.495261 0.048834
vt 0.499711 0.025625
vt 0.466179 0.077793
vt 0.468814 0.054731
vt 0.446216 0.113904
vt 0.448879 0.089972
vt 0.438456 0.155679
vt 0.448879 0.089972
vt 0.438456 0.155679
vt 0.447121 0.132037
vt 0.445207 0.196647
vt 0.453304 0.171623
vt 0.46585 0.232001
vt 0.471417 0.20736
vt 0.497315 0.260249
vt 0.499688 0.235751
vt 0.532173 0.277706
vt 0.535347 0.254016
vt 0.57186 0.283795
vt 0.574906 0.260368
vt 0.614081 0.280385
vt 0.614491 0.254184
vt 0.651524 0.262248
vt 0.650228 0.236071
vt 0.680188 0.233707
vt 0.678619 0.207801
vt 0.700152 0.19509
vt 0.696884 0.172142
vt 0.705405 0.155403
vt 0.703236 0.132583
vt 0.678428 0.078246
vt 0.696983 0.114853
vt 0.647764 0.099858
vt 0.66045 0.124886
vt 0.705405 0.155403
vt 0.66478 0.15261
vt 0.700152 0.19509
vt 0.660332 0.180314
vt 0.680188 0.233707
vt 0.64754 0.205288
vt 0.651524 0.262248
vt 0.627656 0.225087
vt 0.614081 0.280385
vt 0.602628 0.237772
vt 0.57186 0.283795
vt 0.574905 0.242103
vt 0.532173 0.277706
vt 0.5472 0.237654
vt 0.497315 0.260249
vt 0.522227 0.224862
vt 0.46585 0.232001
vt 0.502428 0.204979
vt 0.445207 0.196647
vt 0.489743 0.179951
vt 0.438456 0.155679
vt 0.485412 0.152228
vt 0.446216 0.113904
vt 0.489861 0.124523
vt 0.466179 0.077793
vt 0.502653 0.099549
vt 0.495261 0.048834
vt 0.522536 0.07975
vt 0.531869 0.03028
vt 0.547564 0.067065
vt 0.572419 0.023946
vt 0.575288 0.062735
vt 0.612941 0.030453
vt 0.602992 0.067183
vt 0.64947 0.049163
vt 0.625877 0.078722
vt 0.631954 0.083981
vt 0.647764 0.099858
vt 0.66045 0.124886
vt 0.641447 0.117313
vt 0.653397 0.141707
vt 0.66478 0.15261
vt 0.656685 0.168751
vt 0.625823 0.10179
vt 0.631954 0.083981
vt 0.660332 0.180314
vt 0.65148 0.19605
vt 0.64754 0.205288
vt 0.638925 0.219692
vt 0.625877 0.078722
vt 0.618628 0.095455
vt 0.597257 0.08576
vt 0.602992 0.067183
vt 0.569755 0.081867
vt 0.575288 0.062735
vt 0.564319 0.082806
vt 0.554733 0.077654
vt 0.547564 0.067065
vt 0.542522 0.08657
vt 0.618628 0.095455
vt 0.631954 0.083981
vt 0.620748 0.100248
vt 0.522536 0.07975
vt 0.547564 0.067065
vt 0.518207 0.09945
vt 0.542522 0.08657
vt 0.498857 0.119085
vt 0.502653 0.099549
vt 0.486616 0.143538
vt 0.489861 0.124523
vt 0.485412 0.152228
vt 0.482748 0.169542
vt 0.482748 0.169542
vt 0.489861 0.124523
vt 0.486616 0.143538
vt 0.48742 0.194701
vt 0.485412 0.152228
vt 0.489743 0.179951
vt 0.500302 0.216727
vt 0.502428 0.204979
vt 0.520233 0.233631
vt 0.522227 0.224862
vt 0.544831 0.245333
vt 0.5472 0.237654
vt 0.571102 0.250172
vt 0.574905 0.242103
vt 0.596874 0.247638
vt 0.602628 0.237772
vt 0.620287 0.237231
vt 0.627656 0.225087
vt 0.638925 0.219692
vt 0.64754 0.205288
vt 0.618628 0.095455
vt 0.620748 0.100248
vt 0.595103 0.124307
vt 0.601759 0.124766
vt 0.58371 0.118291
vt 0.618628 0.095455
vt 0.595103 0.124307
vt 0.597257 0.08576
vt 0.569307 0.115421
vt 0.569755 0.081867
vt 0.554732 0.099493
vt 0.551733 0.115042
vt 0.542522 0.08657
vt 0.535998 0.121903
vt 0.518207 0.09945
vt 0.523807 0.134691
vt 0.498857 0.119085
vt 0.516513 0.150514
vt 0.486616 0.143538
vt 0.514493 0.166479
vt 0.482748 0.169542
vt 0.515766 0.182747
vt 0.48742 0.194701
vt 0.525135 0.196623
vt 0.500302 0.216727
vt 0.537691 0.207273
vt 0.520233 0.233631
vt 0.553188 0.214645
vt 0.544831 0.245333
vt 0.569433 0.216046
vt 0.571102 0.250172
vt 0.58467 0.213253
vt 0.596874 0.247638
vt 0.599146 0.207158
vt 0.620287 0.237231
vt 0.609557 0.196747
vt 0.638925 0.219692
vt 0.616667 0.182526
vt 0.65148 0.19605
vt 0.616709 0.165171
vt 0.656685 0.168751
vt 0.611614 0.150857
vt 0.653397 0.141707
vt 0.607127 0.137717
vt 0.641447 0.117313
vt 0.602195 0.129919
vt 0.625823 0.10179
vt 0.601759 0.124766
vt 0.625823 0.10179
vt 0.620748 0.100248
vt 0.542522 0.08657
vt 0.554352 0.089059
vt 0.554732 0.099493
vt 0.542522 0.08657
vt 0.554733 0.077654
vt 0.554352 0.089059
vt 0.564319 0.082806
vt 0.554732 0.099493
vt 0.554733 0.077654
vt 0.620748 0.100248
vt 0.631954 0.083981
vt 0.625823 0.10179
vt 0.564319 0.082806
vt 0.782742 0.588469
vt 0.787229 0.601608
vt 0.791633 0.573734
vt 0.797059 0.586319
vt 0.792324 0.615923
vt 0.796032 0.602309
vt 0.792282 0.633277
vt 0.777374 0.575518
vt 0.785035 0.565144
vt 0.77781 0.58067
vt 0.770718 0.575059
vt 0.782815 0.562254
vt 0.769009 0.555419
vt 0.759325 0.569043
vt 0.753741 0.553257
vt 0.744922 0.566173
vt 0.738621 0.555869
vt 0.727348 0.565794
vt 0.725123 0.563019
vt 0.711613 0.572655
vt 0.699422 0.585443
vt 0.711613 0.572655
vt 0.71438 0.57392
vt 0.725123 0.563019
vt 0.707584 0.587496
vt 0.692128 0.601266
vt 0.705436 0.601933
vt 0.690108 0.617231
vt 0.70803 0.615901
vt 0.691381 0.633499
vt 0.715182 0.628129
vt 0.70075 0.647375
vt 0.726247 0.637514
vt 0.713306 0.658025
vt 0.739903 0.644011
vt 0.728803 0.665397
vt 0.754213 0.645245
vt 0.745048 0.666798
vt 0.767645 0.64278
vt 0.760285 0.664005
vt 0.780433 0.637386
vt 0.774761 0.65791
vt 0.78965 0.628157
vt 0.785173 0.647498
vt 0.792282 0.633277
vt 0.792228 0.614392
vt 0.796032 0.602309
vt 0.792228 0.614392
vt 0.785173 0.647498
vt 0.78965 0.628157
vt 0.769009 0.555419
vt 0.738621 0.555869
vt 0.753741 0.553257
vt 0.782815 0.562254
vt 0.725123 0.563019
vt 0.785035 0.565144
vt 0.71438 0.57392
vt 0.791633 0.573734
vt 0.797059 0.586319
vt 0.707584 0.587496
vt 0.796032 0.602309
vt 0.705436 0.601933
vt 0.70803 0.615901
vt 0.792228 0.614392
vt 0.78965 0.628157
vt 0.715182 0.628129
vt 0.780433 0.637386
vt 0.726247 0.637514
vt 0.767645 0.64278
vt 0.739903 0.644011
vt 0.754213 0.645245
vn 0 1 0
vn 0 1 0
vn 0 1 0
vn 0 1 0
vn 0 1 0
vn 0 1 0
vn 0 1 0
vn 0 1 0
vn -0.3049502 0.9448805 -0.1191887
vn 0 1 0
vn -0.07869349 0.2723675 -0.9589698
vn -0.06454314 0.2949786 -0.9533215
vn -0.06715037 0.2980203 -0.9521948
vn -0.06760784 0.2870414 -0.9555294
vn -0.09302477 0.2412921 -0.9659837
vn -0.1007927 0.212781 -0.9718874
vn -0.130336 0.2279861 -0.9649014
vn -0.1426851 0.251385 -0.9573121
vn -0.422123 0.3825325 -0.8218766
vn -0.7196229 0.4771495 -0.5044515
vn 0.8699822 0.2997206 -0.3915333
vn 0.8411939 0.2552226 -0.4767119
vn 0.5841028 0.34083 -0.7366539
vn 0.8402325 0.268259 -0.4712182
vn 0.8606675 0.3425867 -0.3766775
vn 0.8799765 0.327154 -0.3444005
vn 0.8633049 0.2749053 -0.4232396
vn -0.8066796 0.4572651 -0.3744017
vn -0.7196229 0.4771495 -0.5044515
vn -0.7956911 0.4707353 -0.3811615
vn -0.7961891 0.4922491 -0.351815
vn -0.5745736 0.447552 -0.6852463
vn -0.8222753 0.5052652 -0.2618597
vn -0.5697163 0.7182812 -0.3993688
vn -0.8290939 0.5074534 -0.2347218
vn -0.8451051 0.5133832 -0.1491144
vn 0.2971743 0.8805387 -0.3692409
vn 0.278501 0.8861417 -0.3703918
vn 0.2800727 0.9598168 -0.01762953
vn 0.2583455 0.9654571 -0.03391287
vn 0.196127 0.5386526 -0.8193824
vn 0.09351727 0.3806857 -0.9199635
vn 0.01812275 0.1878244 -0.9820355
vn -0.04170155 0.2330943 -0.9715596
vn 0.02591569 0.9824818 -0.184548
vn 0.02692765 0.9823069 -0.1853321
vn 0.02692765 0.9823069 -0.1853321
vn 0.02793956 0.9821305 -0.186116
vn -0.0369715 0.3198343 -0.9467519
vn 0.4635959 0.3318993 -0.8215362
vn -0.0378934 0.3198445 -0.946712
vn -0.03881526 0.3198545 -0.9466712
vn 0.1460482 0.0004835867 0.9892774
vn 0.1422557 -0.04572847 0.9887732
vn 0.1591014 -0.03724596 0.9865594
vn 0.1353393 -0.08885022 0.9868074
vn 0.07236949 -0.06618197 0.9951797
vn 0.05011044 -0.1210312 0.9913831
vn -0.00900138 -0.007920437 0.9999281
vn 0.008492448 0.0375697 0.9992579
vn -0.04522689 0.02035049 0.9987693
vn -0.02739473 0.006044613 0.9996064
vn 0.01294616 0.2871237 -0.9578061
vn -0.01876314 -0.001996479 -0.999822
vn -0.1181147 0.2045046 -0.9717134
vn -0.1166711 0.02077075 -0.9929534
vn 0.09198067 -0.01044549 -0.995706
vn 0.0301203 0.3004502 -0.9533218
vn -0.09254491 0.03215347 -0.9951892
vn -0.1247964 0.3194526 -0.9393486
vn 0.00849584 0.7825267 -0.6225591
vn -0.09347584 0.7651048 -0.6370847
vn 0.07829837 0.9898167 -0.1188797
vn -0.01453251 0.9920541 -0.1249701
vn 0.155724 0.9206393 0.358013
vn 0.1551831 0.8007147 0.5785967
vn 0.03861266 0.9957893 -0.08314223
vn -0.5015112 0.8115938 0.2996698
vn -0.4695537 0.8791355 -0.08148684
vn -0.002336601 0.7945585 -0.6071832
vn -0.482905 0.7760838 -0.4055819
vn -0.1924227 0.04668854 -0.9802009
vn -0.1816912 0.385143 -0.9047946
vn -0.09806839 0.7942749 -0.5995916
vn 0.01460982 0.9987576 -0.04764226
vn 0.01422563 0.9096127 0.4152137
vn 0.1231228 0.8483911 0.5148526
vn -0.4010175 0.7679924 -0.4993722
vn 0.04742646 0.9867952 0.1548738
vn 0.02848726 0.982524 0.183943
vn -0.3006649 0.7346548 -0.60818
vn 0.01294616 0.2871237 -0.9578061
vn -0.3329474 0.3339827 -0.8818172
vn -0.1378632 0.409923 0.9016412
vn 0.1551831 0.8007147 0.5785967
vn 0.01423103 0.8772627 0.4797995
vn 0.1608508 0.2781671 0.9469689
vn -0.2252506 0.2501567 0.9416389
vn 0.1464 0.7766863 0.6126381
vn 0.121388 0.231926 0.9651297
vn 0.03469347 0.668436 0.7429601
vn 0.1444299 0.5826592 0.79978
vn 0.07099251 0.2615849 0.962566
vn 0.03774344 0.315271 0.9482508
vn 0.121388 0.231926 0.9651297
vn 0.1991338 0.3105801 0.9294546
vn 0.2033255 0.2396108 0.9493394
vn 0.112887 0.2064001 0.9719339
vn 0.2056246 0.2049111 0.9569377
vn 0.09339517 0.2067814 0.9739193
vn 0.2207428 0.0898574 0.971184
vn 0.2207428 0.0898574 0.971184
vn 0.1608508 0.2781671 0.9469689
vn -0.2252506 0.2501567 0.9416389
vn 0.121388 0.231926 0.9651297
vn 0.121388 0.231926 0.9651297
vn 0.1743999 0.3796438 0.9085457
vn 0.1608508 0.2781671 0.9469689
vn -0.08956827 0.3421014 -0.9353845
vn -0.0885722 0.1054842 -0.9904686
vn -0.08861879 0.2231875 -0.9707389
vn -0.08429451 0.100986 -0.9913104
vn -0.07055786 0.6726704 -0.7365705
vn -0.2617666 0.840546 -0.4743002
vn 0.003684864 0.9867561 -0.1621689
vn -0.4641806 0.8286988 -0.3127216
vn -0.07055786 0.6726704 -0.7365705
vn -0.3948278 0.9185277 -0.02044123
vn 0.06852379 0.9245478 0.3748543
vn -0.1648806 0.8149211 0.5556239
vn 0.1142033 0.3632764 0.9246555
vn 0.09648213 0.7337449 0.6725397
vn 0.06852379 0.9245478 0.3748543
vn 0.1172136 0.2324596 0.9655173
vn -0.08871387 0.3379218 -0.9369838
vn -0.08654212 -0.05224305 -0.9948775
vn -0.08822741 0.1414608 -0.9860044
vn -0.08221404 -0.05324965 -0.9951911
vn -0.07103293 0.6685963 -0.7402252
vn -0.04820722 0.8021813 -0.5951312
vn -0.008130026 0.9595783 -0.2813243
vn 0.0177903 0.9924691 -0.1211957
vn 0.06728331 0.930355 0.3604338
vn 0.09664008 0.7325773 0.6737888
vn 0.1147862 0.3400968 0.9333586
vn 0.1177176 0.1972771 0.9732545
vn 0.1197504 0.05419239 0.9913238
vn 0.1177176 0.1972771 0.9732545
vn 0.1179861 0.05335203 0.9915809
vn 0.1147862 0.3400968 0.9333586
vn -0.3341981 0.2678591 0.9036389
vn 0.1172136 0.2324596 0.9655173
vn 0.1180237 0.09974314 0.9879887
vn 0.1142033 0.3632764 0.9246555
vn -0.8254237 0.561618 -0.05710421
vn -0.8665306 0.4898774 -0.09562855
vn -0.8471199 0.5294474 -0.04553377
vn -0.8683776 0.4609233 -0.1829483
vn -0.5102104 0.8450144 -0.1601132
vn -0.3948278 0.9185277 -0.02044123
vn -0.5434874 0.7880548 -0.2891212
vn -0.4695537 0.8791355 -0.08148684
vn -0.614032 0.7795176 -0.1237615
vn -0.6815586 0.7315647 0.01705611
vn -0.5705084 0.8114275 0.1269073
vn -0.8354414 0.549575 -0.002220801
vn -0.8565327 0.475906 0.1996627
vn -0.812273 0.4346256 0.38899
vn -0.7984092 0.3373405 0.4987426
vn -0.482905 0.7760838 -0.4055819
vn -0.7252021 0.6281222 -0.2820363
vn -0.4641806 0.8286988 -0.3127216
vn -0.2252506 0.2501567 0.9416389
vn -0.4293828 0.4777109 0.7664351
vn -0.5676365 0.2983066 0.7673343
vn 0.9345851 0.09653666 -0.3423904
vn 0.9962931 0.0856994 0.007450305
vn 0.993222 0.1005346 -0.05833339
vn 0.9807643 0.065841 0.1837558
vn 0.9170145 0.06443633 -0.3936144
vn 0.9015889 0.04167676 -0.4305817
vn 0.9661835 0.08000618 -0.2451293
vn 0.9775735 0.1267291 -0.1681955
vn 0.9825829 0.1626436 -0.08987725
vn 0.9626049 0.2466479 -0.1120563
vn 0.954913 0.2398101 -0.1750212
vn 0.9258797 0.2406459 -0.2912666
vn 0.9242357 0.1511786 -0.3506185
vn 0.8921739 0.1741028 -0.4167902
vn 1.297604E-05 -1 0
vn 1.297604E-05 -1 0
vn 1.297604E-05 -1 0
vn -0.7658654 0.2185791 -0.6047093
vn -0.7658536 0.2185816 -0.6047232
vn -0.7658536 0.2185816 -0.6047232
vn -0.765842 0.2185842 -0.6047371
vn -0.2165796 -0.1210008 0.9687374
vn -0.2165746 -0.1210022 0.9687383
vn -0.2165746 -0.1210022 0.9687383
vn -0.2165696 -0.1210036 0.9687393
vn 0.9687955 -0.1189244 -0.2174673
vn 0.9687955 -0.1189244 -0.2174673
vn 0.9687964 -0.1189246 -0.217464
vn 0.9687949 -0.1189241 -0.2174708
vn 0.039469 -0.2135753 0.9761289
vn 0.04540575 -0.2093899 0.9767775
vn 0.05787879 -0.2097703 0.976036
vn 0.09398603 -0.2543452 0.9625358
vn 0.04838388 -0.2379233 0.970078
vn 0.07620367 -0.2669094 0.9607041
vn 0.861472 -0.5076241 -0.01356153
vn 0.822585 -0.5683835 0.01714876
vn 0.7769375 -0.6291476 0.02326514
vn 0.7779624 -0.6268461 0.04287938
vn 0.8970154 -0.441449 -0.02204981
vn 0.8938905 -0.445632 -0.0487019
vn -0.048849 0.2606301 -0.964202
vn -0.03209497 0.2739615 -0.961205
vn -0.0521128 0.279985 -0.958589
vn -0.1121197 0.288067 -0.951024
vn -0.07736039 0.2551673 -0.9637972
vn -0.1620637 0.2468953 -0.9553943
vn -0.8767445 0.4808548 -0.00989174
vn -0.8571414 0.5145296 -0.02383072
vn -0.8384832 0.5441061 -0.0299095
vn -0.8326837 0.551579 -0.04897422
vn -0.8917969 0.4523382 -0.009406547
vn -0.8923792 0.4512285 -0.007227208
vn 0.0546707 -0.3873367 0.9203159
vn 0.2791399 -0.2430995 0.9289691
vn -0.1223295 -0.3873251 0.9137914
vn 0.2365645 -0.2451695 0.9401751
vn 0.2791399 -0.2430995 0.9289691
vn 0.3781584 -0.1877343 0.9065054
vn 0.3628916 -0.2359539 0.9014629
vn 0.3653314 -0.23419 0.9009373
vn -0.4034707 -0.4946676 0.7697502
vn -0.9059421 -0.3142098 0.2837976
vn -0.7844683 -0.5012335 0.3652046
vn -0.852204 -0.4124355 0.32194
vn -0.9588296 -0.184696 0.2157154
vn -0.9810411 -0.1150026 0.1559892
vn -0.9592157 -0.1662596 0.2286107
vn 0.02021609 0.3238178 -0.9459034
vn -0.1197458 0.3029405 -0.9454565
vn -0.07225776 0.3469184 -0.9351077
vn -0.2165107 0.2751383 -0.9367081
vn -0.2676845 0.2501601 -0.9304649
vn -0.2437498 0.2598179 -0.934388
vn -0.1643326 0.2300597 -0.9592015
vn 0.919382 0.3083726 -0.2442192
vn 0.9220962 0.2956024 -0.2497155
vn 0.918144 0.3100532 -0.2467359
vn 0.9367899 0.2656751 -0.2276869
vn 0.9456996 0.2423227 -0.2166376
vn 0.9598109 0.217579 -0.1772638
vn 0.01942239 0.9998103 0.001487996
vn 0.01921912 0.9998146 0.001255725
vn 0.01921912 0.9998146 0.001255725
vn 0.01901585 0.9998187 0.001023453
vn -0.007047986 0.999936 0.008849788
vn -0.003895907 0.9999173 0.01226339
vn -0.003895907 0.9999173 0.01226339
vn -0.0007437431 0.9998769 0.01567673
vn 0.07205825 -0.3554547 0.9319118
vn 0.1053453 -0.4013192 0.90986
vn 0.1053453 -0.4013192 0.90986
vn 0.1382427 -0.4456997 0.8844437
vn -0.1094927 0.3607661 -0.9262068
vn -0.1192837 0.3540048 -0.9276056
vn -0.1192837 0.3540048 -0.9276056
vn -0.1290575 0.3471927 -0.9288711
vn -0.9959662 0.08824474 0.0162528
vn -0.9930722 0.1174074 -0.004818085
vn -0.9930722 0.1174074 -0.004818085
vn -0.9888842 0.146417 -0.0258827
vn 0.9034184 -0.4286264 0.01070348
vn 0.88407 -0.4639375 -0.05641163
vn 0.88407 -0.4639375 -0.05641163
vn 0.859306 -0.4964066 -0.1231812
vn 0.1663488 -0.2828176 0.9446387
vn 0.1638665 -0.2794015 0.9460881
vn 0.1638665 -0.2794015 0.9460881
vn 0.161381 -0.2759798 0.9475185
vn -0.09734029 0.3252089 -0.9406189
vn -0.08988523 0.3352463 -0.937833
vn -0.08988523 0.3352463 -0.937833
vn -0.08241541 0.3452286 -0.934893
vn -0.8913686 -0.4203956 0.1694984
vn -0.968399 -0.2460162 0.04098085
vn -0.968399 -0.2460162 0.04098085
vn -0.9942412 -0.05863284 -0.08970286
vn 0.961284 0.1674675 -0.2188327
vn 0.9575981 0.1490323 -0.2465669
vn 0.9575981 0.1490323 -0.2465669
vn 0.9942685 -0.01594485 0.1057156
vn 0.9509645 -0.1420615 -0.2747457
vn 0.834617 -0.1086358 -0.5400119
vn 0.9250597 -0.1293852 -0.3571051
vn 0.7741033 -0.09610897 -0.6257213
vn 0.9846124 -0.1594335 -0.07155006
vn 0.9848911 -0.1711438 0.02644557
vn 0.627964 -0.06911368 -0.7751675
vn 0.5459611 -0.05358814 -0.836095
vn 0.3614928 -0.02129938 -0.9321316
vn 0.26583 -0.00283579 -0.9640158
vn 0.05746527 0.03073004 -0.9978745
vn -0.05365543 0.04622371 -0.9974891
vn -0.2630258 0.07366499 -0.9619724
vn -0.3399449 0.09097168 -0.9360351
vn -0.5198296 0.1223764 -0.8454592
vn -0.5972665 0.1429568 -0.7891997
vn -0.7538872 0.1634487 -0.6363478
vn -0.8074564 0.173936 -0.5637023
vn -0.9056397 0.1832659 -0.3824008
vn -0.956686 0.1681715 -0.2376348
vn -0.9891346 0.1459179 -0.01790801
vn -0.956686 0.1681715 -0.2376348
vn -0.9891346 0.1459179 -0.01790801
vn -0.9878227 0.1242972 0.0935768
vn -0.9538011 0.1128803 0.2784271
vn -0.9201871 0.1124324 0.3749861
vn -0.8134292 0.0964801 0.5736067
vn -0.7609209 0.100682 0.6409855
vn -0.6105008 0.07868095 0.7880977
vn -0.5400852 0.07311155 0.8384287
vn -0.3533358 0.04126106 0.9345863
vn -0.2559789 0.02734503 0.9662955
vn -0.07492519 -0.0003245392 0.9971891
vn 0.02770077 -0.02437655 0.999319
vn 0.2277426 -0.0643326 0.9715939
vn 0.3512303 -0.09472167 0.9314855
vn 0.534736 -0.1242533 0.835834
vn 0.6232375 -0.1391099 0.7695606
vn 0.7663044 -0.1574235 0.6228929
vn 0.8266653 -0.1643948 0.5381438
vn 0.9217451 -0.1748868 0.3461223
vn 0.953378 -0.1752187 0.2457006
vn 0.9848911 -0.1711438 0.02644557
vn 0.9846124 -0.1594335 -0.07155006
vn 0 1 0
vn 0 1 0
vn 0 1 0
vn 0 1 0
vn 0 1 0
vn 0 1 0
vn 0 1 0
vn 0 1 0
vn 0 1 0
vn 0 1 0
vn 0 1 0
vn 0 1 0
vn 0 1 0
vn 0 1 0
vn 0 1 0
vn 0 1 0
vn 0 1 0
vn 0 1 0
vn 0 1 0
vn 0 1 0
vn 0 1 0
vn 0 1 0
vn 0 1 0
vn 0 1 0
vn 0 1 0
vn 0 1 0
vn 0 1 0
vn 0 1 0
vn 0 1 0
vn 0 1 0
vn 0 1 0
vn 0 1 0
vn 0 1 0
vn 0 1 0
vn 0 1 0
vn 0 1 0
vn 0 1 0
vn 0 1 0
vn 0 1 0
vn 0 1 0
vn 0 1 0
vn 0.773207 0.08377491 -0.6285958
vn 0.9345321 0.03480067 -0.3541731
vn 0.8386356 0.06719659 -0.5405322
vn 0.9697273 0.02484824 -0.2429227
vn 0.9991446 -0.0002777995 -0.04135444
vn 0.9972711 -0.005096722 0.07365042
vn 0.4899847 0.1401853 -0.8603854
vn 0.6589895 0.1447839 -0.7380856
vn 0.9631281 -0.0264603 0.2677386
vn 0.9276444 -0.03224481 0.3720701
vn 0.8351421 -0.05036831 0.5477233
vn 0.7667881 -0.05185088 0.6398028
vn 0.5035233 0.1386748 -0.8527799
vn 0.7454321 0.1307633 -0.6536298
vn 0.3318203 0.1669104 -0.928459
vn 0.2464788 0.1870061 -0.9509347
vn 0.04065977 0.2091658 -0.9770345
vn -0.0824715 0.2214551 -0.971677
vn -0.438534 0.4555404 -0.774707
vn -0.1374891 0.3697885 -0.918887
vn -0.3068634 0.2367988 -0.9218249
vn 0.1241146 0.4584981 -0.8799859
vn 0.8421187 0.3312002 -0.4256083
vn 0.8215547 0.111159 -0.5591884
vn 0.7700038 0.5828267 0.2596287
vn -0.6141486 0.2375717 -0.752583
vn -0.3068634 0.2367988 -0.9218249
vn -0.5363379 0.2375121 -0.8098949
vn -0.04246519 0.3455162 -0.9374514
vn -0.7613546 0.2234624 -0.6086081
vn -0.8209232 0.2163011 -0.5284874
vn -0.9188119 0.1913415 -0.3452148
vn -0.9513938 0.1798675 -0.2499948
vn -0.9884355 0.1382933 0.06221103
vn -0.9882452 0.1479608 -0.03845591
vn -0.9882452 0.1479608 -0.03845591
vn -0.9513938 0.1798675 -0.2499948
vn -0.9188119 0.1913415 -0.3452148
vn -0.9523578 0.1074182 0.2854403
vn -0.9884355 0.1382933 0.06221103
vn -0.9204704 0.1082188 0.3755302
vn -0.8087385 0.08566053 0.5818971
vn -0.7548935 0.1002484 0.6481404
vn -0.5972411 0.08833144 0.797183
vn -0.5331555 0.1004484 0.840033
vn -0.3552931 0.08253478 0.9311041
vn -0.2649519 0.07282487 0.9615077
vn -0.07896335 0.04760569 0.9957402
vn 0.03370229 0.02208563 0.9991879
vn 0.2236826 -0.003478493 0.9746559
vn 0.3425643 -0.02970396 0.9390247
vn 0.5215257 -0.04328105 0.8521371
vn 0.6212191 -0.05635539 0.7816079
vn 0.7667881 -0.05185088 0.6398028
vn 0.8351421 -0.05036831 0.5477233
vn 0.4877539 0.8667794 0.1038733
vn 0.7700038 0.5828267 0.2596287
vn 0.3831878 0.8751086 0.295554
vn 0.5003968 0.7861931 0.3626339
vn 0 1 0
vn 0.2076372 0.9635729 0.168565
vn 0.3831878 0.8751086 0.295554
vn 0 1 0
vn 0 1 0
vn 0 1 0
vn -0.01394285 0.9868364 -0.1611193
vn 0 1 0
vn 0.1463538 0.9794356 -0.1388763
vn 0 1 0
vn 0 1 0
vn 0.0008704268 0.9999987 -0.00139813
vn 2.176587E-05 0.9999983 -0.001820691
vn -0.001333823 0.9999992 -0.00016632
vn -0.002204244 0.9999969 0.001231814
vn -0.00135558 0.9999977 0.001654373
vn 0 1 0
vn 0 1 0
vn 0 1 0
vn 0 1 0
vn 0 1 0
vn 0 1 0
vn 0 1 0
vn 0 1 0
vn 0 1 0
vn 0.0003229782 1 -1.660016E-05
vn 0.0003094598 1 -0.0001561698
vn -4.181159E-05 1 -0.0001751448
vn -0.0003652994 1 -0.0001586287
vn -0.001751363 0.999998 0.0009696123
vn -0.0009357993 0.9999985 0.001479698
vn -0.002629958 0.9999853 0.004742311
vn 0.0007610192 0.9999882 0.004805657
vn 0.002142048 0.9999813 0.005742798
vn 0.006502596 0.9999745 0.002982664
vn 0.007199855 0.9999717 0.002187622
vn 0.008288878 0.9999655 0.000396324
vn 0.007757237 0.9999615 -0.004102713
vn 0.00694218 0.999962 -0.005282184
vn 0.002693048 0.9999338 -0.01118272
vn 0.00109331 0.9999696 -0.007727005
vn -0.2115823 0.9598221 -0.1843213
vn -0.4061638 0.8499122 -0.335679
vn -0.5653105 0.6808214 -0.4657321
vn -0.3443474 0.7507968 -0.5636747
vn -0.3301463 0.5038592 -0.7982037
vn 0.1789633 0.878306 -0.4433402
vn 0.5310109 0.5699261 -0.6270658
vn 0.1158389 0.9871672 -0.1099197
vn 0.1241146 0.4584981 -0.8799859
vn 0.007881703 0.3048748 -0.9523598
vn -0.6428604 0.6137763 -0.4582678
vn -0.3810652 0.6337292 -0.673184
vn -0.1309401 0.9885605 -0.07485265
vn -0.2958689 0.3155637 -0.9015992
vn -0.3301463 0.5038592 -0.7982037
vn 0.4688227 0.1435642 -0.8715472
vn 0.06182424 0.4651487 -0.8830711
vn -0.4696189 0.8169367 -0.3347721
vn -0.9031495 -0.01878415 0.428915
vn -0.9285765 0.1190164 0.3515405
vn -0.890046 0.1291898 0.437182
vn -0.9655059 0.1259274 0.227905
vn -0.986779 0.1331398 0.09241743
vn -0.9825605 0.1421144 -0.1199103
vn -0.957931 0.1412117 -0.2498544
vn -0.7178647 0.02050063 0.6958807
vn -0.6028424 0.1318394 0.7868922
vn -0.7991613 -0.3031901 0.519054
vn -0.4693514 0.1147887 0.8755186
vn -0.6281539 0.1150783 0.7695321
vn -0.3505894 0.1026753 0.930884
vn -0.2670917 0.09847008 0.9586269
vn -0.05336618 0.07900806 0.9954445
vn -0.01339213 0.08325607 0.9964383
vn 0.2121633 0.06386782 0.9751449
vn 0.2911165 0.0643557 0.9545205
vn 0.5355104 0.03228965 0.8439111
vn 0.6240321 0.02040188 0.7811323
vn 0.857277 -0.02793552 0.5140971
vn 0.6240321 0.02040188 0.7811323
vn 0.7861618 -0.009870758 0.6179419
vn 0.5355104 0.03228965 0.8439111
vn 0.9426867 -0.05239904 0.3295393
vn 0.9942685 -0.01594485 0.1057156
vn 0.9961009 -0.08004285 0.03709562
vn 0.9959213 -0.08156009 -0.03858311
vn 0.9612496 -0.08907477 -0.2608925
vn 0.9157687 -0.09133007 -0.3911861
vn 0.7831727 -0.09495065 -0.6145119
vn 0.7086546 -0.0950138 -0.6991287
vn 0.5746995 -0.08798861 -0.8136206
vn 0.5021398 -0.08307023 -0.8607874
vn 0.3166932 -0.06778251 -0.9461031
vn 0.2008179 -0.05687288 -0.9779763
vn -0.005048918 -0.03529153 -0.9993643
vn -0.09444503 -0.02490973 -0.9952183
vn -0.2531747 -0.005051148 -0.9674074
vn -0.3227306 0.00437844 -0.9464807
vn -0.5046967 0.03129533 -0.8627293
vn -0.6120785 0.04860594 -0.7893018
vn -0.8296873 0.08899009 -0.5510897
vn -0.8834291 0.1102508 -0.4554095
vn -0.957931 0.1412117 -0.2498544
vn -0.9419813 0.1347801 -0.3074179
vn -0.9825605 0.1421144 -0.1199103
vn -0.9419813 0.1347801 -0.3074179
vn -0.8834291 0.1102508 -0.4554095
vn -0.8296873 0.08899009 -0.5510897
vn 0 1 -5.925763E-05
vn 0 1 -4.882781E-05
vn 0 1 0
vn -0.000107961 0.9999796 -0.006381123
vn -0.0004099121 0.9999779 -0.00663856
vn -0.001384605 0.9999237 -0.01227906
vn -0.002621701 0.9999732 -0.006846305
vn -0.002915792 0.9999199 -0.01231409
vn -0.003438368 0.9999915 -0.002293335
vn -0.003527517 0.9999938 0.000111914
vn -0.003132456 0.9999934 0.001848185
vn -0.003160942 0.999995 6.54253E-05
vn -0.002247501 0.999989 0.004123634
vn -0.002469334 0.9999675 0.007688776
vn -0.001391336 0.9999819 0.005860007
vn -0.0005900623 0.9999973 0.002267283
vn -0.0002905593 0.9999957 0.002912181
vn 0.0001456547 0.9999999 0.0005169857
vn 0.0002474871 0.9999998 -0.0006962427
vn 0.0003667574 0.9999974 -0.002273118
vn 0.0003034256 0.9999933 -0.003637226
g polySurface98_0
f 3/3/3 2/2/2 1/1/1
f 4/4/4 2/2/2 3/3/3
f 3/3/3 1/1/1 5/5/5
f 5/5/5 1/1/1 6/6/6
f 5/5/5 6/6/6 7/7/7
f 7/7/7 6/6/6 8/8/8
f 7/7/7 8/8/8 9/9/9
f 9/9/9 8/8/8 10/10/10
f 13/13/13 12/12/12 11/11/11
f 14/14/14 12/12/12 13/13/13
f 13/13/13 11/11/11 15/15/15
f 15/15/15 11/11/11 16/16/16
f 15/15/15 16/16/16 17/17/17
f 17/17/17 16/16/16 18/18/18
f 17/17/17 18/18/18 19/19/19
f 19/19/19 18/18/18 20/20/20
f 23/23/23 22/22/22 21/21/21
f 24/24/24 22/22/22 23/23/23
f 26/26/26 21/21/21 25/25/25
f 27/27/27 21/21/21 26/26/26
f 30/30/30 29/29/29 28/28/28
f 31/31/31 29/29/29 30/30/30
f 33/33/33 32/32/32 29/29/29
f 31/31/31 33/33/33 34/34/34
f 36/36/36 35/35/35 33/33/33
f 39/39/39 38/38/38 37/37/37
f 40/40/40 38/38/38 39/39/39
f 38/38/38 41/41/41 37/37/37
f 42/42/42 41/41/41 38/38/38
f 42/42/42 43/43/43 41/41/41
f 44/44/44 43/43/43 42/42/42
f 47/47/47 46/46/46 45/45/45
f 48/48/48 46/46/46 47/47/47
f 51/51/51 50/50/50 49/49/49
f 52/52/52 50/50/50 51/51/51
f 55/55/55 54/54/54 53/53/53
f 56/56/56 54/54/54 55/55/55
f 56/56/56 57/57/57 54/54/54
f 58/58/58 57/57/57 56/56/56
f 58/58/58 59/59/59 57/57/57
f 57/57/57 59/59/59 60/60/60
f 59/59/59 61/61/61 60/60/60
f 62/62/62 61/61/61 59/59/59
f 65/65/65 64/64/64 63/63/63
f 66/66/66 64/64/64 65/65/65
f 64/64/64 67/67/67 63/63/63
f 63/63/63 67/67/67 68/68/68
f 67/67/67 69/69/69 68/68/68
f 68/68/68 69/69/69 70/70/70
f 68/68/68 70/70/70 71/71/71
f 71/71/71 70/70/70 72/72/72
f 71/71/71 72/72/72 73/73/73
f 73/73/73 72/72/72 74/74/74
f 73/73/73 74/74/74 75/75/75
f 76/76/76 73/73/73 75/75/75
f 77/77/77 73/73/73 76/76/76
f 77/77/77 71/71/71 73/73/73
f 78/78/78 77/77/77 76/76/76
f 79/79/79 77/77/77 78/78/78
f 79/79/79 80/80/80 77/77/77
f 80/80/80 71/71/71 77/77/77
f 80/80/80 68/68/68 71/71/71
f 81/81/81 80/80/80 79/79/79
f 69/69/69 82/82/82 70/70/70
f 70/70/70 82/82/82 83/83/83
f 70/70/70 83/83/83 72/72/72
f 72/72/72 83/83/83 84/84/84
f 72/72/72 84/84/84 74/74/74
f 74/74/74 84/84/84 85/85/85
f 74/74/74 85/85/85 86/86/86
f 87/87/87 74/74/74 86/86/86
f 88/88/88 63/63/63 80/80/80
f 63/63/63 68/68/68 80/80/80
f 90/90/90 85/85/85 89/89/89
f 93/93/93 92/92/92 91/91/91
f 96/96/96 95/95/95 94/94/94
f 94/94/94 95/95/95 97/97/97
f 94/94/94 97/97/97 98/98/98
f 95/95/95 99/99/99 97/97/97
f 102/102/102 101/101/101 100/100/100
f 105/105/105 104/104/104 103/103/103
f 104/104/104 106/106/106 103/103/103
f 103/103/103 106/106/106 107/107/107
f 103/103/103 107/107/107 108/108/108
f 108/108/108 107/107/107 109/109/109
f 110/110/110 103/103/103 108/108/108
f 105/105/105 103/103/103 110/110/110
f 111/111/111 105/105/105 110/110/110
f 114/114/114 113/113/113 112/112/112
f 113/113/113 115/115/115 112/112/112
f 118/118/118 117/117/117 116/116/116
f 121/121/121 120/120/120 119/119/119
f 122/122/122 120/120/120 121/121/121
f 121/121/121 119/119/119 123/123/123
f 123/123/123 119/119/119 124/124/124
f 127/127/127 126/126/126 125/125/125
f 125/125/125 126/126/126 128/128/128
f 125/125/125 128/128/128 129/129/129
f 129/129/129 128/128/128 130/130/130
f 133/133/133 132/132/132 131/131/131
f 131/131/131 132/132/132 134/134/134
f 137/137/137 136/136/136 135/135/135
f 138/138/138 136/136/136 137/137/137
f 137/137/137 135/135/135 139/139/139
f 139/139/139 135/135/135 140/140/140
f 139/139/139 140/140/140 141/141/141
f 141/141/141 140/140/140 142/142/142
f 141/141/141 142/142/142 143/143/143
f 143/143/143 142/142/142 144/144/144
f 143/143/143 144/144/144 145/145/145
f 145/145/145 144/144/144 146/146/146
f 149/149/149 148/148/148 147/147/147
f 150/150/150 148/148/148 149/149/149
f 153/153/153 152/152/152 151/151/151
f 154/154/154 152/152/152 153/153/153
f 157/157/157 156/156/156 155/155/155
f 158/158/158 156/156/156 157/157/157
f 157/157/157 155/155/155 159/159/159
f 159/159/159 161/161/161 160/160/160
f 160/160/160 163/163/163 162/162/162
f 160/160/160 162/162/162 164/164/164
f 166/166/166 162/162/162 165/165/165
f 166/166/166 165/165/165 167/167/167
f 167/167/167 165/165/165 168/168/168
f 167/167/167 168/168/168 169/169/169
f 172/172/172 171/171/171 170/170/170
f 175/175/175 174/174/174 173/173/173
f 178/178/178 177/177/177 176/176/176
f 179/179/179 177/177/177 178/178/178
f 178/178/178 176/176/176 180/180/180
f 180/180/180 176/176/176 181/181/181
f 180/180/180 181/181/181 182/182/182
f 182/182/182 181/181/181 183/183/183
f 182/182/182 183/183/183 184/184/184
f 184/184/184 183/183/183 185/185/185
f 184/184/184 185/185/185 186/186/186
f 186/186/186 185/185/185 187/187/187
f 186/186/186 187/187/187 188/188/188
f 188/188/188 187/187/187 189/189/189
f 192/192/192 191/191/191 190/190/190
f 195/195/195 194/194/194 193/193/193
f 196/196/196 194/194/194 195/195/195
f 199/199/199 198/198/198 197/197/197
f 200/200/200 198/198/198 199/199/199
f 203/203/203 202/202/202 201/201/201
f 201/201/201 202/202/202 204/204/204
f 207/207/207 206/206/206 205/205/205
f 208/208/208 206/206/206 207/207/207
f 206/206/206 209/209/209 205/205/205
f 205/205/205 209/209/209 210/210/210
f 213/213/213 212/212/212 211/211/211
f 214/214/214 212/212/212 213/213/213
f 212/212/212 215/215/215 211/211/211
f 211/211/211 215/215/215 216/216/216
f 219/219/219 218/218/218 217/217/217
f 220/220/220 218/218/218 219/219/219
f 218/218/218 221/221/221 217/217/217
f 217/217/217 221/221/221 222/222/222
f 225/225/225 224/224/224 223/223/223
f 226/226/226 224/224/224 225/225/225
f 224/224/224 227/227/227 223/223/223
f 223/223/223 227/227/227 228/228/228
f 231/231/231 230/230/230 229/229/229
f 234/234/234 233/233/233 232/232/232
f 234/234/234 235/235/235 233/233/233
f 236/236/236 235/235/235 234/234/234
f 239/239/239 238/238/238 237/237/237
f 240/240/240 238/238/238 239/239/239
f 240/240/240 241/241/241 238/238/238
f 241/241/241 242/242/242 238/238/238
f 243/243/243 238/238/238 242/242/242
f 246/246/246 245/245/245 244/244/244
f 247/247/247 245/245/245 246/246/246
f 247/247/247 248/248/248 245/245/245
f 247/247/247 249/249/249 248/248/248
f 250/250/250 249/249/249 247/247/247
f 253/253/253 252/252/252 251/251/251
f 254/254/254 252/252/252 253/253/253
f 254/254/254 255/255/255 252/252/252
f 256/256/256 255/255/255 254/254/254
f 259/259/259 258/258/258 257/257/257
f 260/260/260 258/258/258 259/259/259
f 263/263/263 262/262/262 261/261/261
f 264/264/264 262/262/262 263/263/263
f 267/267/267 266/266/266 265/265/265
f 268/268/268 266/266/266 267/267/267
f 271/271/271 270/270/270 269/269/269
f 272/272/272 270/270/270 271/271/271
f 275/275/275 274/274/274 273/273/273
f 276/276/276 274/274/274 275/275/275
f 279/279/279 278/278/278 277/277/277
f 280/280/280 278/278/278 279/279/279
f 283/283/283 282/282/282 281/281/281
f 284/284/284 282/282/282 283/283/283
f 287/287/287 286/286/286 285/285/285
f 288/288/288 286/286/286 287/287/287
f 291/291/291 290/290/290 289/289/289
f 292/292/292 290/290/290 291/291/291
f 295/295/295 294/294/294 293/293/293
f 296/296/296 294/294/294 295/295/295
f 299/299/299 298/298/298 297/297/297
f 300/300/300 298/298/298 299/299/299
f 299/299/299 297/297/297 301/301/301
f 301/301/301 297/297/297 302/302/302
f 300/300/300 303/303/303 298/298/298
f 304/304/304 303/303/303 300/300/300
f 304/304/304 305/305/305 303/303/303
f 306/306/306 305/305/305 304/304/304
f 306/306/306 307/307/307 305/305/305
f 308/308/308 307/307/307 306/306/306
f 308/308/308 309/309/309 307/307/307
f 310/310/310 309/309/309 308/308/308
f 310/310/310 311/311/311 309/309/309
f 312/312/312 311/311/311 310/310/310
f 312/312/312 313/313/313 311/311/311
f 314/314/314 313/313/313 312/312/312
f 314/314/314 315/315/315 313/313/313
f 316/316/316 315/315/315 314/314/314
f 316/316/316 317/317/317 315/315/315
f 320/320/320 319/319/319 318/318/318
f 320/320/320 321/321/321 319/319/319
f 322/322/322 321/321/321 320/320/320
f 322/322/322 323/323/323 321/321/321
f 324/324/324 323/323/323 322/322/322
f 324/324/324 325/325/325 323/323/323
f 326/326/326 325/325/325 324/324/324
f 326/326/326 327/327/327 325/325/325
f 328/328/328 327/327/327 326/326/326
f 328/328/328 329/329/329 327/327/327
f 330/330/330 329/329/329 328/328/328
f 330/330/330 331/331/331 329/329/329
f 332/332/332 331/331/331 330/330/330
f 332/332/332 333/333/333 331/331/331
f 334/334/334 333/333/333 332/332/332
f 334/334/334 335/335/335 333/333/333
f 336/336/336 335/335/335 334/334/334
f 336/336/336 337/337/337 335/335/335
f 338/338/338 337/337/337 336/336/336
f 338/338/338 339/339/339 337/337/337
f 340/340/340 339/339/339 338/338/338
f 343/343/343 342/342/342 341/341/341
f 344/344/344 342/342/342 343/343/343
f 344/344/344 345/345/345 342/342/342
f 346/346/346 345/345/345 344/344/344
f 346/346/346 347/347/347 345/345/345
f 348/348/348 347/347/347 346/346/346
f 348/348/348 349/349/349 347/347/347
f 350/350/350 349/349/349 348/348/348
f 350/350/350 351/351/351 349/349/349
f 352/352/352 351/351/351 350/350/350
f 352/352/352 353/353/353 351/351/351
f 354/354/354 353/353/353 352/352/352
f 354/354/354 355/355/355 353/353/353
f 356/356/356 355/355/355 354/354/354
f 356/356/356 357/357/357 355/355/355
f 358/358/358 357/357/357 356/356/356
f 358/358/358 359/359/359 357/357/357
f 360/360/360 359/359/359 358/358/358
f 360/360/360 361/361/361 359/359/359
f 362/362/362 361/361/361 360/360/360
f 362/362/362 363/363/363 361/361/361
f 364/364/364 363/363/363 362/362/362
f 364/364/364 365/365/365 363/363/363
f 366/366/366 365/365/365 364/364/364
f 366/366/366 367/367/367 365/365/365
f 368/368/368 367/367/367 366/366/366
f 368/368/368 369/369/369 367/367/367
f 370/370/370 369/369/369 368/368/368
f 370/370/370 371/371/371 369/369/369
f 372/372/372 371/371/371 370/370/370
f 372/372/372 373/373/373 371/371/371
f 374/374/374 373/373/373 372/372/372
f 374/374/374 375/375/375 373/373/373
f 376/376/376 375/375/375 374/374/374
f 376/376/376 377/377/377 375/375/375
f 378/378/378 377/377/377 376/376/376
f 378/378/378 379/379/379 377/377/377
f 380/380/380 379/379/379 378/378/378
f 380/380/380 381/381/381 379/379/379
f 381/381/381 341/341/341 379/379/379
f 343/343/343 341/341/341 381/381/381
f 384/384/384 383/383/383 382/382/382
f 385/385/385 383/383/383 384/384/384
f 385/385/385 386/386/386 383/383/383
f 387/387/387 386/386/386 385/385/385
f 384/384/384 382/382/382 388/388/388
f 388/388/388 382/382/382 389/389/389
f 387/387/387 390/390/390 386/386/386
f 391/391/391 390/390/390 387/387/387
f 391/391/391 392/392/392 390/390/390
f 393/393/393 392/392/392 391/391/391
f 395/395/395 389/389/389 394/394/394
f 395/395/395 394/394/394 396/396/396
f 396/396/396 394/394/394 397/397/397
f 396/396/396 397/397/397 398/398/398
f 398/398/398 397/397/397 399/399/399
f 398/398/398 399/399/399 400/400/400
f 400/400/400 399/399/399 401/401/401
f 399/399/399 402/402/402 401/401/401
f 402/402/402 403/403/403 401/401/401
f 406/406/406 405/405/405 404/404/404
f 409/409/409 408/408/408 407/407/407
f 410/410/410 408/408/408 409/409/409
f 409/409/409 407/407/407 411/411/411
f 411/411/411 407/407/407 412/412/412
f 411/411/411 412/412/412 413/413/413
f 413/413/413 412/412/412 414/414/414
f 416/416/416 414/414/414 415/415/415
f 419/419/419 418/418/418 417/417/417
f 417/417/417 421/421/421 420/420/420
f 420/420/420 421/421/421 422/422/422
f 420/420/420 422/422/422 423/423/423
f 423/423/423 422/422/422 424/424/424
f 423/423/423 424/424/424 425/425/425
f 425/425/425 424/424/424 426/426/426
f 425/425/425 426/426/426 427/427/427
f 427/427/427 426/426/426 428/428/428
f 427/427/427 428/428/428 429/429/429
f 429/429/429 428/428/428 430/430/430
f 429/429/429 430/430/430 431/431/431
f 431/431/431 430/430/430 432/432/432
f 431/431/431 432/432/432 433/433/433
f 433/433/433 432/432/432 434/434/434
f 433/433/433 434/434/434 435/435/435
f 435/435/435 434/434/434 436/436/436
f 439/439/439 438/438/438 437/437/437
f 440/440/440 438/438/438 439/439/439
f 443/443/443 442/442/442 441/441/441
f 441/441/441 442/442/442 444/444/444
f 441/441/441 444/444/444 445/445/445
f 445/445/445 444/444/444 446/446/446
f 445/445/445 446/446/446 447/447/447
f 448/448/448 445/445/445 447/447/447
f 448/448/448 447/447/447 449/449/449
f 448/448/448 449/449/449 450/450/450
f 450/450/450 449/449/449 451/451/451
f 450/450/450 451/451/451 452/452/452
f 452/452/452 451/451/451 453/453/453
f 452/452/452 453/453/453 454/454/454
f 454/454/454 453/453/453 455/455/455
f 454/454/454 455/455/455 456/456/456
f 456/456/456 455/455/455 457/457/457
f 456/456/456 457/457/457 458/458/458
f 458/458/458 457/457/457 459/459/459
f 458/458/458 459/459/459 460/460/460
f 460/460/460 459/459/459 461/461/461
f 460/460/460 461/461/461 462/462/462
f 462/462/462 461/461/461 463/463/463
f 462/462/462 463/463/463 464/464/464
f 464/464/464 463/463/463 465/465/465
f 464/464/464 465/465/465 466/466/466
f 466/466/466 465/465/465 467/467/467
f 466/466/466 467/467/467 468/468/468
f 468/468/468 467/467/467 469/469/469
f 468/468/468 469/469/469 470/470/470
f 470/470/470 469/469/469 471/471/471
f 470/470/470 471/471/471 472/472/472
f 472/472/472 471/471/471 473/473/473
f 472/472/472 473/473/473 474/474/474
f 474/474/474 473/473/473 475/475/475
f 474/474/474 475/475/475 476/476/476
f 476/476/476 475/475/475 477/477/477
f 476/476/476 477/477/477 478/478/478
f 478/478/478 477/477/477 479/479/479
f 478/478/478 479/479/479 480/480/480
f 480/480/480 479/479/479 481/481/481
f 480/480/480 481/481/481 482/482/482
f 482/482/482 481/481/481 483/483/483
f 482/482/482 485/485/485 484/484/484
f 484/484/484 485/485/485 486/486/486
f 489/489/489 488/488/488 487/487/487
f 488/488/488 491/491/491 490/490/490
f 494/494/494 493/493/493 492/492/492
f 493/493/493 495/495/495 492/492/492
f 498/498/498 497/497/497 496/496/496
f 447/447/447 446/446/446 499/499/499
f 502/502/502 501/501/501 500/500/500
f 503/503/503 501/501/501 502/502/502
f 503/503/503 504/504/504 501/501/501
f 505/505/505 504/504/504 503/503/503
f 505/505/505 506/506/506 504/504/504
f 500/500/500 507/507/507 502/502/502
f 508/508/508 502/502/502 507/507/507
f 509/509/509 507/507/507 500/500/500
f 510/510/510 508/508/508 507/507/507
f 511/511/511 508/508/508 510/510/510
f 511/511/511 510/510/510 512/512/512
f 512/512/512 510/510/510 513/513/513
f 512/512/512 513/513/513 514/514/514
f 514/514/514 513/513/513 515/515/515
f 514/514/514 515/515/515 516/516/516
f 516/516/516 515/515/515 517/517/517
f 516/516/516 517/517/517 518/518/518
f 518/518/518 517/517/517 519/519/519
f 522/522/522 521/521/521 520/520/520
f 523/523/523 521/521/521 522/522/522
f 522/522/522 520/520/520 524/524/524
f 524/524/524 520/520/520 525/525/525
f 524/524/524 525/525/525 526/526/526
f 526/526/526 525/525/525 527/527/527
f 526/526/526 527/527/527 528/528/528
f 528/528/528 527/527/527 529/529/529
f 528/528/528 529/529/529 530/530/530
f 530/530/530 529/529/529 531/531/531
f 530/530/530 531/531/531 532/532/532
f 532/532/532 531/531/531 533/533/533
f 532/532/532 533/533/533 534/534/534
f 534/534/534 533/533/533 535/535/535
f 534/534/534 535/535/535 536/536/536
f 536/536/536 535/535/535 537/537/537
f 536/536/536 537/537/537 538/538/538
f 538/538/538 537/537/537 539/539/539
f 538/538/538 539/539/539 540/540/540
f 540/540/540 539/539/539 541/541/541
f 540/540/540 541/541/541 542/542/542
f 542/542/542 541/541/541 543/543/543
f 545/545/545 543/543/543 544/544/544
f 545/545/545 544/544/544 546/546/546
f 549/549/549 548/548/548 547/547/547
f 552/552/552 551/551/551 550/550/550
f 553/553/553 550/550/550 551/551/551
f 554/554/554 553/553/553 551/551/551
f 555/555/555 553/553/553 554/554/554
f 556/556/556 555/555/555 554/554/554
f 557/557/557 555/555/555 556/556/556
f 558/558/558 557/557/557 556/556/556
f 559/559/559 558/558/558 556/556/556
f 560/560/560 558/558/558 559/559/559
f 561/561/561 560/560/560 559/559/559
f 562/562/562 560/560/560 561/561/561
f 563/563/563 560/560/560 562/562/562
f 564/564/564 563/563/563 562/562/562
f 565/565/565 564/564/564 562/562/562
f 566/566/566 564/564/564 565/565/565
f 567/567/567 566/566/566 565/565/565
f 568/568/568 566/566/566 567/567/567
f 569/569/569 568/568/568 567/567/567
f 570/570/570 568/568/568 569/569/569
