g Pump_Wheel
v 1378.129 268.7842 -922.5732
v 1382.928 266.735 -921.7337
v 1378.029 263.6075 -918.0034
v 1373.271 267.801 -920.7354
v 1371.201 264.3612 -917.2975
v 1373.131 260.48 -914.2729
v 1377.93 258.4308 -913.4338
v 1382.787 259.4142 -915.271
v 1384.857 262.8539 -918.709
v 1382.928 266.735 -921.7337
v 1378.129 268.7842 -922.5732
v 1382.299 263.9781 -924.8705
v 1377.5 266.0273 -925.71
v 1373.271 267.801 -920.7354
v 1372.642 265.0441 -923.8724
v 1371.201 264.3612 -917.2975
v 1370.573 261.6042 -920.4343
v 1373.131 260.48 -914.2729
v 1372.502 257.7231 -917.4098
v 1373.131 260.48 -914.2729
v 1377.93 258.4308 -913.4338
v 1372.502 257.7231 -917.4098
v 1377.302 255.6738 -916.5706
v 1382.787 259.4142 -915.271
v 1382.159 256.6571 -918.408
v 1384.857 262.8539 -918.709
v 1384.229 260.0968 -921.846
v 1382.928 266.735 -921.7337
v 1382.299 263.9781 -924.8705
v 1401.823 267.2097 -925.1828
v 1396.394 274.1793 -930.7319
v 1402.833 268.5291 -924.2079
v 1397.235 275.7165 -929.9307
v 1388.013 279.4073 -934.086
v 1388.592 281.1077 -933.3903
v 1404.236 259.1982 -915.5566
v 1403.174 258.1179 -916.7471
v 1408.072 259.3336 -915.2149
v 1406.437 269.7397 -924.8353
v 1400.077 277.9059 -931.3375
v 1390.255 284.0322 -935.2679
v 1376.284 284.0483 -933.7006
v 1375.502 287.7333 -935.8365
v 1408.909 268.6111 -927.5668
v 1401.937 277.5628 -934.694
v 1391.171 284.2777 -939.0029
v 1375.029 288.0189 -939.2488
v 1401.417 274.9449 -937.4726
v 1390.65 281.6599 -941.7813
v 1374.508 285.4009 -942.0276
v 1410.73 257.3432 -917.1688
v 1388.013 279.4073 -934.086
v 1376.019 282.2638 -934.3763
v 1388.592 281.1077 -933.3903
v 1376.284 284.0483 -933.7006
v 1368.316 281.7413 -932.7754
v 1368.949 283.6805 -932.1095
v 1358.954 278.6762 -927.9508
v 1358.625 280.3539 -927.0626
v 1352.905 273.0853 -921.549
v 1352.386 274.5882 -920.4609
v 1350.523 265.9193 -914.3511
v 1349.93 267.198 -913.038
v 1375.755 280.4792 -935.0524
v 1387.543 277.0486 -936.5899
v 1395.925 271.8207 -933.2355
v 1387.653 276.3902 -938.397
v 1396.296 270.9989 -934.9376
v 1389.085 278.1493 -941.5119
v 1398.906 272.0237 -937.5811
v 1390.65 281.6599 -941.7813
v 1401.417 274.9449 -937.4726
v 1405.267 263.8571 -931.0793
v 1408.389 265.9931 -930.3456
v 1401.937 277.5628 -934.694
v 1408.909 268.6111 -927.5668
v 1374.508 285.4009 -942.0276
v 1374.518 281.7891 -942.1193
v 1401.895 263.8117 -929.2152
v 1375.345 279.3308 -938.7072
v 1401.354 264.851 -927.6865
v 1403.298 254.4803 -920.5638
v 1402.705 255.7594 -919.2505
v 1406.901 253.4512 -921.4583
v 1410.209 254.7253 -919.9475
v 1410.209 254.7253 -919.9475
v 1410.73 257.3432 -917.1688
v 1375.55 279.9051 -936.88
v 1366.757 278.9001 -936.8447
v 1365.033 280.1573 -941.2996
v 1374.209 280.9454 -943.6707
v 1367.281 279.4823 -935.0847
v 1357.686 275.6362 -932.0696
v 1355.035 277.2929 -934.3224
v 1365.342 281.0012 -939.7484
v 1353.326 280.7208 -933.9005
v 1364.625 284.7856 -939.8479
v 1345.556 273.5396 -925.6781
v 1347.946 270.7417 -926.8212
v 1342.498 264.3353 -916.4329
v 1345.156 262.3447 -918.3872
v 1344.615 254.5093 -907.5723
v 1347.088 253.3807 -910.3035
v 1353.244 244.1072 -900.2535
v 1352.278 247.9294 -897.715
v 1345.137 257.1271 -904.7936
v 1354.791 244.3798 -903.2292
v 1351.447 269.8707 -925.4675
v 1348.992 262.4804 -918.0451
v 1350.692 254.5914 -910.9309
v 1354.791 244.3798 -903.2292
v 1352.435 270.7265 -924.0529
v 1358.484 276.3174 -930.4542
v 1350.053 263.5603 -916.8546
v 1350.692 254.5914 -910.9309
v 1351.703 255.9103 -909.9564
v 1367.805 280.0644 -933.3241
v 1352.172 258.269 -907.4524
v 1355.812 249.5259 -904.6204
v 1356.122 246.9524 -905.4191
v 1356.282 251.8844 -902.117
v 1350.692 254.5914 -910.9309
v 1356.122 246.9524 -905.4191
v 1363.23 242.7867 -902.0392
v 1363.809 244.4869 -901.3428
v 1350.523 265.9193 -914.3511
v 1352.172 258.269 -907.4524
v 1349.93 267.198 -913.038
v 1351.631 259.3087 -905.9239
v 1356.282 251.8844 -902.117
v 1355.91 252.7062 -900.4141
v 1346.326 268.2273 -912.1431
v 1349.116 276.6242 -920.5772
v 1352.386 274.5882 -920.4609
v 1356.205 283.1755 -928.0786
v 1358.625 280.3539 -927.0626
v 1367.886 287.0137 -933.861
v 1366.254 287.4727 -937.3138
v 1353.848 283.3388 -931.1218
v 1364.625 284.7856 -939.8479
v 1353.326 280.7208 -933.9005
v 1368.949 283.6805 -932.1095
v 1348.258 259.2632 -904.0598
v 1353.301 251.6815 -897.7709
v 1346.077 276.1575 -922.8993
v 1343.019 266.9532 -913.6544
v 1345.137 257.1271 -904.7936
v 1353.301 251.6815 -897.7709
v 1345.556 273.5396 -925.6781
v 1342.498 264.3353 -916.4329
v 1344.615 254.5093 -907.5723
v 1356.282 251.8844 -902.117
v 1364.278 246.8457 -898.8391
v 1364.168 247.504 -897.0322
v 1376.041 243.3813 -897.8999
v 1376.245 243.9556 -896.0723
v 1386.245 243.638 -900.054
v 1386.769 244.2201 -898.2943
v 1395.041 246.8028 -904.685
v 1395.84 247.4837 -903.0694
v 1401.413 252.8843 -911.6791
v 1402.401 253.7404 -910.2634
v 1353.738 252.1828 -896.3514
v 1362.735 246.6517 -892.5144
v 1362.737 245.7449 -893.9174
v 1376.226 241.818 -892.8662
v 1388.183 242.119 -895.3909
v 1398.491 245.8275 -900.8166
v 1405.902 252.8691 -908.9102
v 1400.199 242.3995 -901.2385
v 1388.9 238.3346 -895.291
v 1375.794 238.0048 -892.5237
v 1361.171 242.2347 -893.6478
v 1408.292 250.0711 -910.0532
v 1400.944 250.5255 -914.1824
v 1394.572 244.4441 -907.1882
v 1401.463 249.0228 -915.2705
v 1394.901 242.7664 -908.0767
v 1385.775 241.279 -902.5581
v 1385.83 239.5026 -903.3011
v 1375.571 241.0224 -900.4034
v 1375.307 239.2379 -901.0793
v 1363.809 244.4869 -901.3428
v 1363.23 242.7867 -902.0392
v 1403.298 254.4803 -920.5638
v 1402.705 255.7594 -919.2505
v 1401.354 264.851 -927.6865
v 1403.174 258.1179 -916.7471
v 1395.925 271.8207 -933.2355
v 1401.413 252.8843 -911.6791
v 1403.174 258.1179 -916.7471
v 1402.401 253.7404 -910.2634
v 1404.236 259.1982 -915.5566
v 1406.758 254.5428 -907.6106
v 1407.879 260.6411 -913.1605
v 1364.168 247.504 -897.0322
v 1362.737 245.7449 -893.9174
v 1362.735 246.6517 -892.5144
v 1361.171 242.2347 -893.6478
v 1360.39 241.9209 -892.2159
v 1360.65 239.6167 -896.4261
v 1359.678 238.3315 -896.0233
v 1361.566 239.8621 -900.1611
v 1361.129 238.5544 -901.1038
v 1363.23 242.7867 -902.0392
v 1405.902 252.8691 -908.9102
v 1402.401 253.7404 -910.2634
v 1406.758 254.5428 -907.6106
v 1410.448 250.4751 -909.5019
v 1408.292 250.0711 -910.0532
v 1404.236 259.1982 -915.5566
v 1408.072 259.3336 -915.2149
v 1407.879 260.6411 -913.1605
v 1410.73 257.3432 -917.1688
v 1361.171 242.2347 -893.6478
v 1375.794 238.0048 -892.5237
v 1360.65 239.6167 -896.4261
v 1375.273 235.387 -895.3024
v 1388.9 238.3346 -895.291
v 1388.38 235.7168 -898.0696
v 1400.199 242.3995 -901.2385
v 1399.678 239.7816 -904.0173
v 1408.292 250.0711 -910.0532
v 1407.771 247.4535 -912.832
v 1361.566 239.8621 -900.1611
v 1375.057 235.9353 -899.1101
v 1387.013 236.2366 -901.6346
v 1397.32 239.9449 -907.0605
v 1407.771 247.4535 -912.832
v 1404.732 246.9869 -915.1539
v 1363.23 242.7867 -902.0392
v 1375.307 239.2379 -901.0793
v 1385.83 239.5026 -903.3011
v 1394.901 242.7664 -908.0767
v 1401.463 249.0228 -915.2705
v 1374.209 280.9454 -943.6707
v 1364.221 285.4675 -941.4132
v 1365.033 280.1573 -941.2996
v 1374.103 286.0829 -943.5929
v 1374.103 286.0829 -943.5929
v 1366.025 289.1389 -937.8284
v 1364.221 285.4675 -941.4132
v 1374.728 289.5218 -939.6108
v 1368.003 288.5143 -932.8959
v 1375.618 289.234 -934.8715
v 1375.618 289.234 -934.8715
v 1368.949 283.6805 -932.1095
v 1368.003 288.5143 -932.8959
v 1376.284 284.0483 -933.7006
v 1364.221 285.4675 -941.4132
v 1365.342 281.0012 -939.7484
v 1365.033 280.1573 -941.2996
v 1366.757 278.9001 -936.8447
v 1364.625 284.7856 -939.8479
v 1366.025 289.1389 -937.8284
v 1366.254 287.4727 -937.3138
v 1368.003 288.5143 -932.8959
v 1367.886 287.0137 -933.861
v 1368.949 283.6805 -932.1095
v 1345.137 257.1271 -904.7936
v 1353.301 251.6815 -897.7709
v 1352.278 247.9294 -897.715
v 1350.692 254.5914 -910.9309
v 1354.791 244.3798 -903.2292
v 1356.122 246.9524 -905.4191
v 1356.122 246.9524 -905.4191
v 1363.23 242.7867 -902.0392
v 1355.812 249.5259 -904.6204
v 1356.122 246.9524 -905.4191
v 1361.129 238.5544 -901.1038
v 1363.23 242.7867 -902.0392
v 1355.165 242.125 -903.4275
v 1361.129 238.5544 -901.1038
v 1356.122 246.9524 -905.4191
v 1356.122 246.9524 -905.4191
v 1354.791 244.3798 -903.2292
v 1355.165 242.125 -903.4275
v 1353.244 244.1072 -900.2535
v 1352.278 247.9294 -897.715
v 1353.175 241.7569 -899.0831
v 1351.571 247.5743 -896.2749
v 1353.301 251.6815 -897.7709
v 1355.165 242.125 -903.4275
v 1359.678 238.3315 -896.0233
v 1361.129 238.5544 -901.1038
v 1353.175 241.7569 -899.0831
v 1355.165 242.125 -903.4275
v 1353.175 241.7569 -899.0831
v 1360.39 241.9209 -892.2159
v 1359.678 238.3315 -896.0233
v 1351.571 247.5743 -896.2749
v 1360.39 241.9209 -892.2159
v 1353.175 241.7569 -899.0831
v 1351.571 247.5743 -896.2749
v 1362.735 246.6517 -892.5144
v 1360.39 241.9209 -892.2159
v 1353.738 252.1828 -896.3514
v 1401.463 249.0228 -915.2705
v 1407.099 251.8692 -923.014
v 1403.298 254.4803 -920.5638
v 1404.929 245.405 -916.7094
v 1404.929 245.405 -916.7094
v 1412.01 253.5678 -920.5141
v 1407.099 251.8692 -923.014
v 1409.715 246.7702 -913.8393
v 1412.789 256.7571 -915.5727
v 1410.448 250.4751 -909.5019
v 1410.448 250.4751 -909.5019
v 1407.879 260.6411 -913.1605
v 1412.789 256.7571 -915.5727
v 1406.758 254.5428 -907.6106
v 1412.01 253.5678 -920.5141
v 1406.901 253.4512 -921.4583
v 1407.099 251.8692 -923.014
v 1403.298 254.4803 -920.5638
v 1410.209 254.7253 -919.9475
v 1412.789 256.7571 -915.5727
v 1407.879 260.6411 -913.1605
v 1410.73 257.3432 -917.1688
v 1412.789 256.7571 -915.5727
v 1410.73 257.3432 -917.1688
v 1410.209 254.7253 -919.9475
v 1412.789 256.7571 -915.5727
v 1396.394 274.1793 -930.7319
v 1355.812 249.5259 -904.6204
v 1372.587 265.1772 -921.1757
v 1356.282 251.8844 -902.117
v 1372.303 263.7486 -922.692
v 1375.557 261.0989 -917.072
v 1356.282 251.8844 -902.117
v 1372.587 265.1772 -921.1757
v 1364.278 246.8457 -898.8391
v 1356.282 251.8844 -902.117
v 1364.278 246.8457 -898.8391
v 1375.557 261.0989 -917.072
v 1363.809 244.4869 -901.3428
v 1375.273 259.6706 -918.588
v 1355.812 249.5259 -904.6204
v 1363.809 244.4869 -901.3428
v 1372.303 263.7486 -922.692
v 1375.273 259.6706 -918.588
v 1400.944 250.5255 -914.1824
v 1377.261 261.3981 -918.4694
v 1401.413 252.8843 -911.6791
v 1376.918 259.6751 -920.2985
v 1380.043 265.6727 -922.0765
v 1401.413 252.8843 -911.6791
v 1377.261 261.3981 -918.4694
v 1403.174 258.1179 -916.7471
v 1401.413 252.8843 -911.6791
v 1403.174 258.1179 -916.7471
v 1380.043 265.6727 -922.0765
v 1402.705 255.7594 -919.2505
v 1379.701 263.9496 -923.9055
v 1400.944 250.5255 -914.1824
v 1402.705 255.7594 -919.2505
v 1376.918 259.6751 -920.2985
v 1379.701 263.9496 -923.9055
v 1375.55 279.9051 -936.88
v 1367.281 279.4823 -935.0847
v 1377.98 265.2881 -924.7449
v 1372.451 263.867 -922.9857
v 1378.284 266.6915 -922.9178
v 1375.55 279.9051 -936.88
v 1377.98 265.2881 -924.7449
v 1375.755 280.4792 -935.0524
v 1372.844 265.2725 -921.1774
v 1375.755 280.4792 -935.0524
v 1378.284 266.6915 -922.9178
v 1367.805 280.0644 -933.3241
v 1367.281 279.4823 -935.0847
v 1367.805 280.0644 -933.3241
v 1372.451 263.867 -922.9857
v 1372.844 265.2725 -921.1774
v 1375.502 287.7333 -935.8365
v 1376.284 284.0483 -933.7006
v 1375.618 289.234 -934.8715
v 1374.728 289.5218 -939.6108
v 1375.029 288.0189 -939.2488
v 1374.103 286.0829 -943.5929
v 1374.508 285.4009 -942.0276
v 1374.209 280.9454 -943.6707
v 1374.518 281.7891 -942.1193
v 1375.345 279.3308 -938.7072
v 1409.715 246.7702 -913.8393
v 1408.292 250.0711 -910.0532
v 1410.448 250.4751 -909.5019
v 1407.771 247.4535 -912.832
v 1404.929 245.405 -916.7094
v 1407.771 247.4535 -912.832
v 1409.715 246.7702 -913.8393
v 1404.732 246.9869 -915.1539
v 1407.771 247.4535 -912.832
v 1404.929 245.405 -916.7094
v 1401.463 249.0228 -915.2705
v 1353.301 251.6815 -897.7709
v 1355.91 252.7062 -900.4141
v 1353.738 252.1828 -896.3514
v 1351.571 247.5743 -896.2749
v 1353.301 251.6815 -897.7709
v 1353.738 252.1828 -896.3514
v 1355.165 242.125 -903.4275
v 1353.244 244.1072 -900.2535
v 1353.175 241.7569 -899.0831
vt 0.932376 0.930058
vt 0.940382 0.932254
vt 0.929521 0.940217
vt 0.922691 0.933824
vt 0.917028 0.941327
vt 0.918691 0.948158
vt 0.92668 0.950329
vt 0.936327 0.946587
vt 0.942007 0.939108
vt 0.940382 0.932254
vt 0.932376 0.930058
vt 0.937765 0.927155
vt 0.929766 0.924957
vt 0.922691 0.933824
vt 0.920095 0.92872
vt 0.917028 0.941327
vt 0.914443 0.936223
vt 0.918691 0.948158
vt 0.916109 0.943054
vt 0.918691 0.948158
vt 0.92668 0.950329
vt 0.916109 0.943054
vt 0.924091 0.945227
vt 0.936327 0.946587
vt 0.933724 0.941487
vt 0.942007 0.939108
vt 0.939393 0.934009
vt 0.940382 0.932254
vt 0.937765 0.927155
vt 0.97632 0.925598
vt 0.96978 0.912985
vt 0.978937 0.927044
vt 0.972197 0.914032
vt 0.956662 0.905007
vt 0.958664 0.9058
vt 0.976586 0.946112
vt 0.974011 0.944186
vt 0.983878 0.946716
vt 0.986403 0.925495
vt 0.978764 0.91069
vt 0.963385 0.901315
vt 0.936802 0.904294
vt 0.937238 0.89907
vt 0.990466 0.920671
vt 0.98211 0.904426
vt 0.96526 0.894129
vt 0.936485 0.892473
vt 0.979709 0.899973
vt 0.962871 0.889675
vt 0.934127 0.888013
vt 0.987809 0.943618
vt 0.956662 0.905007
vt 0.935368 0.903565
vt 0.958664 0.9058
vt 0.936802 0.904294
vt 0.92045 0.906772
vt 0.922653 0.907436
vt 0.901101 0.916883
vt 0.901322 0.918057
vt 0.886829 0.930712
vt 0.886593 0.932325
vt 0.878783 0.946434
vt 0.878292 0.948542
vt 0.933937 0.902837
vt 0.954523 0.900989
vt 0.967632 0.908969
vt 0.954383 0.897767
vt 0.967897 0.906001
vt 0.958031 0.891302
vt 0.973384 0.90068
vt 0.962871 0.889675
vt 0.979709 0.899973
vt 0.981023 0.915481
vt 0.988065 0.916216
vt 0.98211 0.904426
vt 0.990466 0.920671
vt 0.934127 0.888013
vt 0.932267 0.888991
vt 0.974639 0.919011
vt 0.932562 0.896254
vt 0.974173 0.921581
vt 0.97231 0.938073
vt 0.971874 0.940166
vt 0.978528 0.936694
vt 0.985421 0.939158
vt 0.985421 0.939158
vt 0.987809 0.943618
vt 0.93325 0.899544
vt 0.91603 0.899926
vt 0.913399 0.891068
vt 0.931242 0.886311
vt 0.917324 0.903086
vt 0.897164 0.910001
vt 0.892967 0.905216
vt 0.914417 0.893748
vt 0.891439 0.904951
vt 0.91499 0.892359
vt 0.873136 0.922754
vt 0.876285 0.921436
vt 0.862865 0.942966
vt 0.866912 0.939864
vt 0.862104 0.962466
vt 0.866202 0.957656
vt 0.873245 0.979069
vt 0.873293 0.982776
vt 0.864347 0.966951
vt 0.876272 0.97343
vt 0.882478 0.92426
vt 0.874207 0.940469
vt 0.873557 0.956134
vt 0.876272 0.97343
vt 0.884769 0.926679
vt 0.899021 0.912855
vt 0.876738 0.942398
vt 0.873557 0.956134
vt 0.8761 0.95759
vt 0.918617 0.90625
vt 0.878136 0.961629
vt 0.880693 0.9694
vt 0.880015 0.96862
vt 0.882729 0.97344
vt 0.873557 0.956134
vt 0.880015 0.96862
vt 0.891266 0.976093
vt 0.893186 0.976928
vt 0.878783 0.946434
vt 0.878136 0.961629
vt 0.878292 0.948542
vt 0.877626 0.964212
vt 0.882729 0.97344
vt 0.882434 0.976408
vt 0.871988 0.949935
vt 0.881405 0.931497
vt 0.886593 0.932325
vt 0.898146 0.915262
vt 0.901322 0.918057
vt 0.922348 0.903061
vt 0.919474 0.896336
vt 0.893743 0.909421
vt 0.91499 0.892359
vt 0.891439 0.904951
vt 0.922653 0.907436
vt 0.871256 0.967733
vt 0.877037 0.981648
vt 0.87541 0.927232
vt 0.865118 0.947449
vt 0.864347 0.966951
vt 0.877037 0.981648
vt 0.873136 0.922754
vt 0.862865 0.942966
vt 0.862104 0.962466
vt 0.882729 0.97344
vt 0.895229 0.980967
vt 0.895351 0.984171
vt 0.915501 0.983666
vt 0.916173 0.986927
vt 0.934705 0.97957
vt 0.935982 0.982702
vt 0.952792 0.970036
vt 0.954642 0.972872
vt 0.967925 0.955216
vt 0.970233 0.957629
vt 0.878101 0.984175
vt 0.892245 0.992858
vt 0.891802 0.990476
vt 0.915063 0.993491
vt 0.937549 0.988695
vt 0.958739 0.977545
vt 0.976342 0.960417
vt 0.960141 0.977695
vt 0.93695 0.989897
vt 0.912343 0.995145
vt 0.887148 0.99192
vt 0.979335 0.959064
vt 0.9658 0.951193
vt 0.950688 0.96601
vt 0.96598 0.949585
vt 0.950433 0.964818
vt 0.932623 0.975538
vt 0.931818 0.974639
vt 0.91344 0.979631
vt 0.912052 0.978857
vt 0.893186 0.976928
vt 0.891266 0.976093
vt 0.97231 0.938073
vt 0.971874 0.940166
vt 0.974173 0.921581
vt 0.974011 0.944186
vt 0.967632 0.908969
vt 0.967925 0.955216
vt 0.974011 0.944186
vt 0.970233 0.957629
vt 0.976586 0.946112
vt 0.978842 0.962384
vt 0.984218 0.950206
vt 0.895351 0.984171
vt 0.891802 0.990476
vt 0.892245 0.992858
vt 0.887148 0.99192
vt 0.885535 0.994679
vt 0.884894 0.987435
vt 0.882453 0.988533
vt 0.886723 0.9804
vt 0.885268 0.978998
vt 0.891266 0.976093
vt 0.976342 0.960417
vt 0.970233 0.957629
vt 0.978842 0.962384
vt 0.983593 0.959984
vt 0.979335 0.959064
vt 0.976586 0.946112
vt 0.983878 0.946716
vt 0.984218 0.950206
vt 0.987809 0.943618
vt 0.887148 0.99192
vt 0.912343 0.995145
vt 0.884894 0.987435
vt 0.910065 0.990665
vt 0.93695 0.989897
vt 0.934642 0.985422
vt 0.960141 0.977695
vt 0.957801 0.973226
vt 0.979335 0.959064
vt 0.976966 0.954601
vt 0.886723 0.9804
vt 0.909934 0.983425
vt 0.932361 0.97864
vt 0.953487 0.967502
vt 0.976966 0.954601
vt 0.971028 0.950387
vt 0.891266 0.976093
vt 0.912052 0.978857
vt 0.931818 0.974639
vt 0.950433 0.964818
vt 0.96598 0.949585
vt 0.931242 0.886311
vt 0.914569 0.889162
vt 0.913399 0.891068
vt 0.933712 0.884813
vt 0.933712 0.884813
vt 0.919895 0.894827
vt 0.914569 0.889162
vt 0.936699 0.891305
vt 0.923346 0.904432
vt 0.938246 0.900438
vt 0.938246 0.900438
vt 0.922653 0.907436
vt 0.923346 0.904432
vt 0.936802 0.904294
vt 0.914569 0.889162
vt 0.914417 0.893748
vt 0.913399 0.891068
vt 0.91603 0.899926
vt 0.91499 0.892359
vt 0.919895 0.894827
vt 0.919474 0.896336
vt 0.923346 0.904432
vt 0.922348 0.903061
vt 0.922653 0.907436
vt 0.864347 0.966951
vt 0.877037 0.981648
vt 0.873293 0.982776
vt 0.873557 0.956134
vt 0.876272 0.97343
vt 0.880015 0.96862
vt 0.880015 0.96862
vt 0.891266 0.976093
vt 0.880693 0.9694
vt 0.880015 0.96862
vt 0.885268 0.978998
vt 0.891266 0.976093
vt 0.875874 0.973681
vt 0.885268 0.978998
vt 0.880015 0.96862
vt 0.880015 0.96862
vt 0.876272 0.97343
vt 0.875874 0.973681
vt 0.873245 0.979069
vt 0.873293 0.982776
vt 0.87198 0.981897
vt 0.871796 0.985569
vt 0.877037 0.981648
vt 0.875874 0.973681
vt 0.882453 0.988533
vt 0.885268 0.978998
vt 0.87198 0.981897
vt 0.875874 0.973681
vt 0.87198 0.981897
vt 0.885535 0.994679
vt 0.882453 0.988533
vt 0.871796 0.985569
vt 0.885535 0.994679
vt 0.87198 0.981897
vt 0.871796 0.985569
vt 0.892245 0.992858
vt 0.885535 0.994679
vt 0.878101 0.984175
vt 0.96598 0.949585
vt 0.978056 0.93424
vt 0.97231 0.938073
vt 0.970562 0.947931
vt 0.970562 0.947931
vt 0.988183 0.938433
vt 0.978056 0.93424
vt 0.980242 0.95291
vt 0.991363 0.946789
vt 0.983593 0.959984
vt 0.983593 0.959984
vt 0.984218 0.950206
vt 0.991363 0.946789
vt 0.978842 0.962384
vt 0.988183 0.938433
vt 0.978528 0.936694
vt 0.978056 0.93424
vt 0.97231 0.938073
vt 0.985421 0.939158
vt 0.991363 0.946789
vt 0.984218 0.950206
vt 0.987809 0.943618
vt 0.991363 0.946789
vt 0.987809 0.943618
vt 0.985421 0.939158
vt 0.991363 0.946789
vt 0.96978 0.912985
vt 0.880693 0.9694
vt 0.920058 0.93377
vt 0.882729 0.97344
vt 0.918794 0.931333
vt 0.923576 0.942706
vt 0.882729 0.97344
vt 0.920058 0.93377
vt 0.895229 0.980967
vt 0.882729 0.97344
vt 0.895229 0.980967
vt 0.923576 0.942706
vt 0.893186 0.976928
vt 0.922312 0.940268
vt 0.880693 0.9694
vt 0.893186 0.976928
vt 0.918794 0.931333
vt 0.922312 0.940268
vt 0.9658 0.951193
vt 0.92694 0.939986
vt 0.967925 0.955216
vt 0.925412 0.937047
vt 0.934386 0.931922
vt 0.967925 0.955216
vt 0.92694 0.939986
vt 0.974011 0.944186
vt 0.967925 0.955216
vt 0.974011 0.944186
vt 0.934386 0.931922
vt 0.971874 0.940166
vt 0.932849 0.928984
vt 0.9658 0.951193
vt 0.971874 0.940166
vt 0.925412 0.937047
vt 0.932849 0.928984
vt 0.93325 0.899544
vt 0.917324 0.903086
vt 0.930292 0.927001
vt 0.919133 0.930744
vt 0.93159 0.930031
vt 0.93325 0.899544
vt 0.930292 0.927001
vt 0.933937 0.902837
vt 0.920591 0.933738
vt 0.933937 0.902837
vt 0.93159 0.930031
vt 0.918617 0.90625
vt 0.917324 0.903086
vt 0.918617 0.90625
vt 0.919133 0.930744
vt 0.920591 0.933738
vt 0.937238 0.89907
vt 0.936802 0.904294
vt 0.938246 0.900438
vt 0.936699 0.891305
vt 0.936485 0.892473
vt 0.933712 0.884813
vt 0.934127 0.888013
vt 0.931242 0.886311
vt 0.932267 0.888991
vt 0.932562 0.896254
vt 0.980242 0.95291
vt 0.979335 0.959064
vt 0.983593 0.959984
vt 0.976966 0.954601
vt 0.970562 0.947931
vt 0.976966 0.954601
vt 0.980242 0.95291
vt 0.971028 0.950387
vt 0.976966 0.954601
vt 0.970562 0.947931
vt 0.96598 0.949585
vt 0.877037 0.981648
vt 0.882434 0.976408
vt 0.878101 0.984175
vt 0.871796 0.985569
vt 0.877037 0.981648
vt 0.878101 0.984175
vt 0.875874 0.973681
vt 0.873245 0.979069
vt 0.87198 0.981897
vn 0.1488566 0.6528147 0.742748
vn 0.1488175 0.652831 0.7427416
vn 0.1488288 0.6528141 0.7427542
vn 0.1488586 0.6527984 0.742762
vn 0.1488374 0.6528039 0.7427614
vn 0.148853 0.6528099 0.742753
vn 0.1488191 0.6528019 0.7427668
vn 0.1487859 0.6528174 0.7427599
vn 0.1488019 0.652836 0.7427403
vn 0.7968771 0.3655692 -0.4809844
vn 0.1494616 0.7276298 -0.6694894
vn 0.6083939 0.5316504 -0.5892407
vn -0.1210258 0.7575024 -0.6415159
vn -0.585527 0.6634941 -0.4657615
vn -0.7795674 0.5395852 -0.3179977
vn -0.9775048 0.2106388 0.01075608
vn -0.9814306 0.005593819 0.1917363
vn -0.7968904 -0.3655624 0.4809676
vn -0.608396 -0.5316926 0.5892006
vn -0.7968904 -0.3655624 0.4809676
vn -0.1494399 -0.7276391 0.6694841
vn -0.608396 -0.5316926 0.5892006
vn 0.1210242 -0.7574879 0.6415336
vn 0.585516 -0.663458 0.4658266
vn 0.7795445 -0.5395809 0.318061
vn 0.9775051 -0.2106401 -0.01069801
vn 0.9814299 -0.005579423 -0.1917403
vn 0.7968771 0.3655692 -0.4809844
vn 0.6083939 0.5316504 -0.5892407
vn -0.9045103 0.06029904 0.4221672
vn -0.7192463 -0.2267171 0.6567222
vn -0.4656415 0.4230996 0.7772804
vn -0.3275643 0.2524278 0.9104844
vn -0.3628583 -0.4287852 0.8273314
vn -0.108026 0.1307623 0.9855108
vn -0.6438653 0.5483239 0.5336462
vn -0.7741353 0.4671202 0.4272158
vn 0.1969695 0.6825558 0.7037901
vn 0.3478967 0.6732392 0.6524698
vn 0.3129499 0.7383064 0.5974663
vn 0.2545816 0.7879508 0.5606439
vn 0.1303269 0.0295024 0.991032
vn 0.205586 0.9030257 0.3771987
vn 0.9049572 0.4238438 0.03753414
vn 0.7207559 0.6734191 -0.1643701
vn 0.4240097 0.8562998 -0.2949007
vn 0.2050516 0.8532051 -0.4795777
vn 0.5845661 0.0964963 -0.8055873
vn 0.2722206 0.2793925 -0.92078
vn 0.07880639 0.2344728 -0.9689232
vn 0.838244 0.5339788 0.1105156
vn -0.3628583 -0.4287852 0.8273314
vn 0.05555622 -0.3600734 0.9312683
vn -0.108026 0.1307623 0.9855108
vn 0.1303269 0.0295024 0.991032
vn 0.3540268 -0.4454435 0.8223413
vn 0.3437161 -0.03286004 0.9384986
vn 0.6469471 -0.4354495 0.6259739
vn 0.5348859 0.1703411 0.8275753
vn 0.880094 -0.2655139 0.3936203
vn 0.675222 0.3078499 0.6703011
vn 0.9910132 -0.01127086 0.1332878
vn 0.7213187 0.4765646 0.5025789
vn -0.06270971 -0.6350015 0.7699614
vn -0.3412507 -0.8328168 0.4358487
vn -0.6922839 -0.6057611 0.392169
vn -0.3769401 -0.912884 -0.1567129
vn -0.5727922 -0.783361 -0.2413599
vn -0.07535537 -0.4928621 -0.8668382
vn 0.007509237 -0.5493138 -0.8355824
vn 0.2722206 0.2793925 -0.92078
vn 0.5845661 0.0964963 -0.8055873
vn 0.06401937 -0.6066185 -0.7924111
vn 0.7776451 -0.1514051 -0.6102004
vn 0.7207559 0.6734191 -0.1643701
vn 0.9049572 0.4238438 0.03753414
vn 0.07880639 0.2344728 -0.9689232
vn -0.1187055 -0.6062421 -0.7863712
vn -0.6943161 -0.6072067 -0.3862968
vn -0.096287 -0.9947006 -0.03605244
vn -0.9173937 -0.3487738 0.1916914
vn -0.7637854 -0.3828345 -0.5196821
vn -0.990414 -0.1204544 -0.06760782
vn 0.2494747 -0.6352889 -0.7308695
vn 0.9051523 -0.19994 -0.3751309
vn 0.8848248 -0.009389541 -0.4658293
vn 0.8287469 0.557334 -0.05057162
vn -0.05942363 -0.9507391 0.3042434
vn 0.108967 -0.9860032 -0.1261903
vn -0.004089066 -0.9573371 -0.2889445
vn 0.001642522 -0.9508419 -0.3096724
vn 0.3405241 -0.9182046 0.2023455
vn 0.2949298 -0.912967 -0.2819711
vn -0.3033496 -0.5439913 -0.7823378
vn -0.3223988 -0.3753483 -0.8690068
vn -0.6759109 0.2340088 -0.698845
vn -0.5290594 0.4793289 -0.7002427
vn -0.8752385 0.04318202 -0.4817602
vn -0.3435743 -0.5962575 -0.7255575
vn -0.9502998 -0.1992648 -0.2392149
vn -0.3515697 -0.6585541 -0.6653611
vn -0.8774101 -0.4791118 -0.02456611
vn -0.3081302 -0.7212383 -0.6203799
vn -0.8700929 -0.4200482 -0.2578719
vn -0.9901761 -0.09133582 0.1058717
vn -0.8009194 0.1292444 0.5846573
vn -0.5232022 -0.4963776 -0.6927255
vn 0.4430697 -0.7880211 -0.4274481
vn 0.507641 -0.6241747 -0.5938911
vn 0.457648 -0.4561583 -0.7632024
vn -0.20511 -0.6950773 -0.6890554
vn 0.8731066 -0.487357 -0.01296056
vn 0.6262882 -0.7152503 0.3101292
vn 0.9355268 -0.2200641 -0.2763356
vn 0.558486 -0.3998073 -0.7268063
vn 0.8876033 0.04501865 -0.4584036
vn 0.3406382 -0.5502908 0.7623292
vn 0.9574993 0.2471923 -0.1486312
vn 0.7671163 0.2529387 -0.5895376
vn 0.6462594 0.05489594 -0.7611409
vn 0.8271896 0.5279247 -0.1924912
vn 0.457648 -0.4561583 -0.7632024
vn 0.4674666 -0.1580715 -0.8697634
vn 0.2372296 -0.09542235 -0.9667557
vn 0.2735919 0.455179 -0.847325
vn 0.9910132 -0.01127086 0.1332878
vn 0.9574993 0.2471923 -0.1486312
vn 0.7213187 0.4765646 0.5025789
vn 0.6870056 0.6308022 0.3607105
vn 0.8271896 0.5279247 -0.1924912
vn 0.5698333 0.8010725 0.1832288
vn -0.08580742 0.7110876 0.6978478
vn -0.05443845 0.7671655 0.6391349
vn 0.675222 0.3078499 0.6703011
vn 0.01018781 0.8081985 0.5888221
vn 0.5348859 0.1703411 0.8275753
vn 0.1021713 0.7204224 0.6859683
vn -0.3206811 0.9471017 -0.01272863
vn -0.5255851 0.8474957 -0.07423812
vn -0.5290594 0.4793289 -0.7002427
vn -0.6759109 0.2340088 -0.698845
vn 0.3437161 -0.03286004 0.9384986
vn -0.08551912 0.6513304 0.7539597
vn -0.0651962 0.6110234 0.7889232
vn -0.7461327 0.6530389 0.1297157
vn -0.8313659 0.4132412 0.3715678
vn -0.8009194 0.1292444 0.5846573
vn -0.481886 0.5125847 0.7106637
vn -0.8752385 0.04318202 -0.4817602
vn -0.9502998 -0.1992648 -0.2392149
vn -0.8774101 -0.4791118 -0.02456611
vn 0.766719 0.64159 -0.02245761
vn 0.4446442 0.8086415 -0.3852149
vn 0.3910452 0.9188545 0.05282168
vn 0.1477141 0.8447246 -0.5144131
vn 0.1132248 0.9836425 0.1400987
vn -0.2464883 0.8569236 -0.4526868
vn -0.1315351 0.9717396 0.1960117
vn -0.6220096 0.7232922 -0.2999207
vn -0.333357 0.8898879 0.3114043
vn -0.7677394 0.6407585 -0.002166207
vn -0.5246792 0.7354313 0.4287803
vn 0.4059229 0.859921 0.3094553
vn 0.4072057 0.8652599 0.2924186
vn 0.1249936 0.6323236 0.7645544
vn 0.09163222 0.5068609 0.8571439
vn 0.1792951 0.4993643 0.8476371
vn 0.2599349 0.5185968 0.8145497
vn 0.434616 0.4431241 0.7840599
vn 0.6609015 -0.2423773 0.7102552
vn 0.3575966 -0.3484799 0.8664217
vn 0.003481392 -0.3513777 0.9362273
vn -0.1267801 -0.1778656 0.9758538
vn 0.8162371 -0.2811454 0.5046922
vn -0.887579 0.2161612 -0.4067899
vn -0.719418 0.3722377 -0.5864101
vn -0.7446762 -0.1911094 -0.6394799
vn -0.5106068 -0.1550878 -0.8457118
vn -0.4264193 0.5330628 -0.7307602
vn -0.297669 -0.08519176 -0.9508604
vn -0.05079178 0.5600583 -0.8268947
vn -0.05158985 -0.0883978 -0.9947483
vn 0.2735919 0.455179 -0.847325
vn 0.2372296 -0.09542235 -0.9667557
vn -0.7637854 -0.3828345 -0.5196821
vn -0.990414 -0.1204544 -0.06760782
vn -0.9173937 -0.3487738 0.1916914
vn -0.8886942 0.3509364 0.2950699
vn -0.6922839 -0.6057611 0.392169
vn -0.6780724 0.7142574 0.173361
vn -0.8886942 0.3509364 0.2950699
vn -0.5246792 0.7354313 0.4287803
vn -0.6438653 0.5483239 0.5336462
vn -0.5296317 0.6477762 0.5476095
vn -0.5918602 0.5993357 0.538979
vn 0.9115549 -0.3446672 0.2242146
vn 0.9020002 -0.3619388 0.2353636
vn 0.883834 -0.3733445 0.2818713
vn 0.8470802 -0.4272627 0.3160722
vn 0.8149344 -0.4680627 0.3417591
vn 0.8062481 -0.5254254 0.2718309
vn 0.827724 -0.5077839 0.2388065
vn 0.8600336 -0.4767739 0.181738
vn 0.8814119 -0.4320349 0.1909419
vn 0.8981634 -0.4115315 0.1547399
vn -0.2458696 -0.4814265 0.8412946
vn -0.4160762 -0.4153403 0.8089333
vn -0.3007517 -0.4841917 0.8216488
vn -0.1146686 -0.5995576 0.7920743
vn -0.02305757 -0.6659915 0.7456029
vn 0.01789189 0.8442699 -0.5356196
vn 0.134762 0.8416343 -0.5229635
vn 0.2561736 0.8473846 -0.4650962
vn 0.461553 0.7395096 -0.4899943
vn -0.1267801 -0.1778656 0.9758538
vn 0.003481392 -0.3513777 0.9362273
vn -0.2794901 -0.8452309 0.4554889
vn -0.0890401 -0.9484879 0.3040436
vn 0.3575966 -0.3484799 0.8664217
vn 0.2647065 -0.9369745 0.2280553
vn 0.6609015 -0.2423773 0.7102552
vn 0.561757 -0.8246573 0.06610329
vn 0.5467449 -0.5366748 0.6426899
vn 0.3963087 -0.8999807 0.1815877
vn -0.2254708 -0.8854199 -0.4064414
vn -0.1127953 -0.8254294 -0.5531216
vn -0.02653225 -0.8149166 -0.5789707
vn 0.04004408 -0.7802421 -0.6241944
vn 0.4587336 -0.8882 0.0257713
vn -0.0846623 -0.712279 -0.6967719
vn 0.1594122 -0.1800804 -0.9706487
vn -0.05158985 -0.0883978 -0.9947483
vn -0.297669 -0.08519176 -0.9508604
vn -0.5106068 -0.1550878 -0.8457118
vn -0.7446762 -0.1911094 -0.6394799
vn -0.2306782 -0.02394759 -0.9727353
vn -0.2354415 0.2474955 -0.9398475
vn -0.2450541 -0.05818468 -0.9677618
vn -0.2049537 0.5415492 -0.8153027
vn -0.2049537 0.5415492 -0.8153027
vn -0.1335776 0.8989189 -0.4172552
vn -0.2354415 0.2474955 -0.9398475
vn -0.09096369 0.9841993 -0.1519126
vn -0.04564723 0.9935964 0.1033561
vn -0.0746702 0.994428 0.0744123
vn 0.2113933 0.2198066 0.9523643
vn 0.3437161 -0.03286004 0.9384986
vn 0.228322 0.1997341 0.9528775
vn 0.1303269 0.0295024 0.991032
vn -0.9658594 -0.05470202 0.2532261
vn -0.9527111 -0.1771079 0.2469296
vn -0.9426731 -0.1757792 0.2836703
vn -0.9301634 -0.2110986 0.3003888
vn -0.9410641 0.006004405 0.3381749
vn -0.9144583 0.06152985 0.399975
vn -0.9013072 -0.05400175 0.4298012
vn -0.9246902 -0.1111272 0.3641412
vn -0.9193637 -0.1597196 0.3595275
vn -0.9386345 -0.1319495 0.3186764
vn -0.8009194 0.1292444 0.5846573
vn -0.6945198 0.3501025 0.6285464
vn -0.7971859 -0.2059845 0.5675077
vn 0.2095591 -0.5127909 -0.8325445
vn -0.5232022 -0.4963776 -0.6927255
vn 0.04218336 -0.3456265 -0.9374236
vn 0.5574389 -0.04373459 -0.8290652
vn 0.3781213 0.1312366 -0.9164067
vn 0.7671163 0.2529387 -0.5895376
vn 0.4674666 -0.1580715 -0.8697634
vn 0.1809772 -0.3619823 -0.9144485
vn 0.2372296 -0.09542235 -0.9667557
vn -0.1396802 -0.7410457 -0.6567654
vn 0.1809772 -0.3619823 -0.9144485
vn 0.3408288 -0.2334764 -0.9106725
vn -0.5007367 -0.3961234 -0.7696421
vn -0.6533297 -0.439518 -0.6164286
vn -0.7648351 -0.4838841 -0.425304
vn -0.8700929 -0.4200482 -0.2578719
vn -0.988264 -0.1407479 -0.05936558
vn -0.9232019 -0.102023 -0.3705261
vn -0.9434623 0.2217047 -0.2464263
vn -0.8232881 0.5483626 -0.146612
vn -0.7648351 -0.4838841 -0.425304
vn -0.514021 -0.8544139 0.07589
vn -0.456974 -0.8732994 -0.1688878
vn -0.7463183 -0.6653025 -0.01953083
vn -0.6548244 -0.5086396 -0.5590087
vn -0.5777935 -0.7209567 0.3825911
vn -0.5331593 -0.2931453 0.7936039
vn -0.514021 -0.8544139 0.07589
vn -0.430704 -0.03996984 0.9016078
vn -0.5331593 -0.2931453 0.7936039
vn -0.5877898 -0.5080085 0.6296273
vn -0.430704 -0.03996984 0.9016078
vn -0.3003092 0.1822265 0.9362734
vn -0.5331593 -0.2931453 0.7936039
vn -0.3034184 0.1582559 0.9396235
vn -0.7446762 -0.1911094 -0.6394799
vn -0.6711548 -0.3885266 -0.6313465
vn -0.7637854 -0.3828345 -0.5196821
vn -0.6698932 -0.3908195 -0.6312711
vn 0.5066193 -0.6840924 -0.5247424
vn 0.7121245 -0.5987691 -0.366544
vn 0.5047486 -0.6836039 -0.527176
vn 0.8782641 -0.4546337 -0.1481901
vn 0.9552023 -0.06393704 0.2889647
vn 0.8552833 0.1867839 0.4833243
vn 0.8552833 0.1867839 0.4833243
vn 0.6814535 0.3941184 0.6166779
vn 0.9552023 -0.06393704 0.2889647
vn 0.7218225 0.3885073 0.5727429
vn 0.1921679 0.6985167 -0.6893083
vn 0.09047364 0.6692534 -0.7375056
vn 0.0688754 0.7038655 -0.7069862
vn 0.02408192 0.7024906 -0.7112855
vn 0.3674119 0.6472045 -0.6679333
vn 0.4839654 0.7162207 -0.5027974
vn 0.2561736 0.8473846 -0.4650962
vn 0.755178 0.6396081 -0.1435539
vn 0.4839654 0.7162207 -0.5027974
vn 0.6554552 0.6048613 -0.4522402
vn 0.7156331 0.4406668 -0.5419244
vn 0.4839654 0.7162207 -0.5027974
vn -0.7192463 -0.2267171 0.6567222
vn -0.7970077 0.5069777 -0.3282565
vn -0.7970077 0.5069777 -0.3282565
vn -0.7969906 0.5070757 -0.3281466
vn -0.7970247 0.5068797 -0.3283665
vn 0.1593656 0.7354639 0.6585557
vn 0.3422503 0.8476973 0.4053074
vn 0.1409839 0.7513583 0.6446583
vn 0.1776223 0.718993 0.671937
vn 0.1593656 0.7354639 0.6585557
vn 0.8829614 -0.4128515 0.2234569
vn 0.8829641 -0.4128345 0.223477
vn 0.8829641 -0.4128345 0.223477
vn 0.8829669 -0.4128175 0.2234971
vn -0.1570055 -0.701386 -0.6952747
vn -0.1083737 -0.7162713 -0.6893552
vn -0.1083737 -0.7162713 -0.6893552
vn -0.05945769 -0.7292788 -0.6816284
vn -0.4075389 -0.6253316 0.6654865
vn -0.4075389 -0.6253316 0.6654865
vn -0.4075284 -0.6252911 0.6655312
vn -0.4075495 -0.6253722 0.665442
vn 0.03322539 0.6633351 0.7475845
vn -0.2825137 0.6965048 0.659596
vn 0.0101802 0.6409972 0.7674757
vn -0.4475265 0.572309 0.6871553
vn 0.03322539 0.6633351 0.7475845
vn 0.3650773 0.642502 -0.6737282
vn 0.3650829 0.6425208 -0.6737072
vn 0.3650829 0.6425208 -0.6737072
vn 0.3650885 0.6425396 -0.6736863
vn -0.07376928 -0.6808228 -0.7287238
vn -0.06809286 -0.6507939 -0.7561948
vn -0.06809286 -0.6507939 -0.7561948
vn -0.06230146 -0.619666 -0.782389
vn -0.130254 -0.6460497 -0.7520996
vn -0.1076049 -0.6370929 -0.763239
vn -0.1076049 -0.6370929 -0.763239
vn -0.08487862 -0.6276792 -0.773831
vn 0.9871694 0.04126122 -0.1542535
vn 0.9871694 0.04126122 -0.1542535
vn 0.9840903 0.0167147 -0.176881
vn 0.9891388 0.06576136 -0.1314527
vn 0.09594577 0.6608225 0.7443843
vn 0.09594577 0.6608225 0.7443843
vn 0.0640794 0.6659102 0.7432747
vn 0.1277121 0.6550459 0.7447178
vn -0.9485598 -0.07589752 0.3073657
vn -0.9519235 -0.08524202 0.2942371
vn -0.9519235 -0.08524202 0.2942371
vn -0.9550291 -0.09456342 0.2810287
vn 0.9795233 0.09346795 -0.1783195
vn 0.9704908 0.0727072 -0.2299159
vn 0.9768967 0.05683998 -0.2060149
vn 0.9755948 0.1121002 -0.1888076
vn 0.9720172 0.1152634 -0.204687
vn 0.9674299 0.06751254 -0.24397
vn 0.9743854 0.02727738 -0.2232243
vn 0.9758071 0.02160084 -0.2175636
vn 0.9783468 0.02056897 -0.2059478
vn 0.9765747 0.03339617 -0.2125713
vn 0.00596111 -0.7918155 0.6107314
vn 0.3553629 -0.6752821 0.6463059
vn -0.1146686 -0.5995576 0.7920743
vn 0.134013 -0.7871433 0.6020348
vn -0.2939168 -0.7487939 0.5940712
vn 0.2649789 -0.9199712 0.2888584
vn 0.00596111 -0.7918155 0.6107314
vn -0.4072337 -0.6657162 0.625286
vn -0.1161904 -0.7781861 0.6171921
vn -0.2939168 -0.7487939 0.5940712
vn -0.4324039 -0.659077 0.6153408
vn -0.8232881 0.5483626 -0.146612
vn -0.4908482 0.8578826 -0.1520051
vn -0.734555 0.6784117 -0.01365705
vn -0.9434623 0.2217047 -0.2464263
vn -0.8103068 0.5060176 0.295549
vn -0.734555 0.6784117 -0.01365705
vn -0.7648351 -0.4838841 -0.425304
vn -0.8700929 -0.4200482 -0.2578719
vn -0.8648369 -0.3349373 -0.3739975
g Pump_Wheel_0
f 3/3/3 2/2/2 1/1/1
f 3/3/3 1/1/1 4/4/4
f 3/3/3 4/4/4 5/5/5
f 3/3/3 5/5/5 6/6/6
f 3/3/3 6/6/6 7/7/7
f 3/3/3 7/7/7 8/8/8
f 3/3/3 8/8/8 9/9/9
f 3/3/3 9/9/9 2/2/2
f 12/12/12 11/11/11 10/10/10
f 13/13/13 11/11/11 12/12/12
f 13/13/13 14/14/14 11/11/11
f 15/15/15 14/14/14 13/13/13
f 15/15/15 16/16/16 14/14/14
f 17/17/17 16/16/16 15/15/15
f 17/17/17 18/18/18 16/16/16
f 19/19/19 18/18/18 17/17/17
f 22/22/22 21/21/21 20/20/20
f 23/23/23 21/21/21 22/22/22
f 23/23/23 24/24/24 21/21/21
f 25/25/25 24/24/24 23/23/23
f 25/25/25 26/26/26 24/24/24
f 27/27/27 26/26/26 25/25/25
f 27/27/27 28/28/28 26/26/26
f 29/29/29 28/28/28 27/27/27
f 32/32/32 31/31/31 30/30/30
f 33/33/33 31/31/31 32/32/32
f 33/33/33 34/34/34 31/31/31
f 35/35/35 34/34/34 33/33/33
f 32/32/32 30/30/30 36/36/36
f 36/36/36 30/30/30 37/37/37
f 38/38/38 32/32/32 36/36/36
f 39/39/39 32/32/32 38/38/38
f 39/39/39 33/33/33 32/32/32
f 40/40/40 33/33/33 39/39/39
f 40/40/40 35/35/35 33/33/33
f 41/41/41 35/35/35 40/40/40
f 41/41/41 42/42/42 35/35/35
f 43/43/43 42/42/42 41/41/41
f 44/44/44 40/40/40 39/39/39
f 45/45/45 40/40/40 44/44/44
f 45/45/45 41/41/41 40/40/40
f 46/46/46 41/41/41 45/45/45
f 46/46/46 43/43/43 41/41/41
f 47/47/47 43/43/43 46/46/46
f 48/48/48 46/46/46 45/45/45
f 49/49/49 46/46/46 48/48/48
f 49/49/49 47/47/47 46/46/46
f 50/50/50 47/47/47 49/49/49
f 44/44/44 39/39/39 51/51/51
f 51/51/51 39/39/39 38/38/38
f 54/54/54 53/53/53 52/52/52
f 55/55/55 53/53/53 54/54/54
f 55/55/55 56/56/56 53/53/53
f 57/57/57 56/56/56 55/55/55
f 57/57/57 58/58/58 56/56/56
f 59/59/59 58/58/58 57/57/57
f 59/59/59 60/60/60 58/58/58
f 61/61/61 60/60/60 59/59/59
f 61/61/61 62/62/62 60/60/60
f 63/63/63 62/62/62 61/61/61
f 53/53/53 64/64/64 52/52/52
f 52/52/52 64/64/64 65/65/65
f 66/66/66 52/52/52 65/65/65
f 65/65/65 67/67/67 66/66/66
f 66/66/66 67/67/67 68/68/68
f 67/67/67 69/69/69 68/68/68
f 68/68/68 69/69/69 70/70/70
f 69/69/69 71/71/71 70/70/70
f 70/70/70 71/71/71 72/72/72
f 70/70/70 72/72/72 73/73/73
f 73/73/73 72/72/72 74/74/74
f 72/72/72 75/75/75 74/74/74
f 74/74/74 75/75/75 76/76/76
f 69/69/69 77/77/77 71/71/71
f 78/78/78 77/77/77 69/69/69
f 67/67/67 78/78/78 69/69/69
f 79/79/79 70/70/70 73/73/73
f 68/68/68 70/70/70 79/79/79
f 80/80/80 78/78/78 67/67/67
f 65/65/65 80/80/80 67/67/67
f 81/81/81 68/68/68 79/79/79
f 66/66/66 68/68/68 81/81/81
f 79/79/79 73/73/73 82/82/82
f 83/83/83 79/79/79 82/82/82
f 81/81/81 79/79/79 83/83/83
f 82/82/82 73/73/73 84/84/84
f 73/73/73 74/74/74 84/84/84
f 84/84/84 74/74/74 85/85/85
f 74/74/74 76/76/76 86/86/86
f 86/86/86 76/76/76 87/87/87
f 88/88/88 80/80/80 65/65/65
f 88/88/88 89/89/89 80/80/80
f 89/89/89 90/90/90 80/80/80
f 80/80/80 90/90/90 91/91/91
f 92/92/92 89/89/89 88/88/88
f 92/92/92 93/93/93 89/89/89
f 93/93/93 94/94/94 89/89/89
f 89/89/89 94/94/94 95/95/95
f 94/94/94 96/96/96 95/95/95
f 95/95/95 96/96/96 97/97/97
f 94/94/94 98/98/98 96/96/96
f 99/99/99 98/98/98 94/94/94
f 93/93/93 99/99/99 94/94/94
f 99/99/99 100/100/100 98/98/98
f 101/101/101 100/100/100 99/99/99
f 101/101/101 102/102/102 100/100/100
f 103/103/103 102/102/102 101/101/101
f 103/103/103 104/104/104 102/102/102
f 104/104/104 105/105/105 102/102/102
f 102/102/102 105/105/105 106/106/106
f 107/107/107 104/104/104 103/103/103
f 108/108/108 99/99/99 93/93/93
f 108/108/108 101/101/101 99/99/99
f 109/109/109 101/101/101 108/108/108
f 109/109/109 103/103/103 101/101/101
f 110/110/110 103/103/103 109/109/109
f 110/110/110 111/111/111 103/103/103
f 112/112/112 109/109/109 108/108/108
f 112/112/112 108/108/108 113/113/113
f 113/113/113 108/108/108 93/93/93
f 113/113/113 93/93/93 92/92/92
f 114/114/114 109/109/109 112/112/112
f 114/114/114 115/115/115 109/109/109
f 116/116/116 115/115/115 114/114/114
f 92/92/92 117/117/117 113/113/113
f 56/56/56 113/113/113 117/117/117
f 56/56/56 117/117/117 53/53/53
f 53/53/53 117/117/117 64/64/64
f 58/58/58 113/113/113 56/56/56
f 58/58/58 60/60/60 113/113/113
f 113/113/113 60/60/60 112/112/112
f 60/60/60 62/62/62 112/112/112
f 112/112/112 62/62/62 114/114/114
f 62/62/62 118/118/118 114/114/114
f 114/114/114 118/118/118 116/116/116
f 118/118/118 119/119/119 116/116/116
f 119/119/119 120/120/120 116/116/116
f 121/121/121 119/119/119 118/118/118
f 116/116/116 123/123/123 122/122/122
f 125/125/125 124/124/124 119/119/119
f 88/88/88 65/65/65 64/64/64
f 128/128/128 127/127/127 126/126/126
f 129/129/129 127/127/127 128/128/128
f 129/129/129 130/130/130 127/127/127
f 131/131/131 130/130/130 129/129/129
f 132/132/132 129/129/129 128/128/128
f 132/132/132 128/128/128 133/133/133
f 133/133/133 128/128/128 134/134/134
f 133/133/133 134/134/134 135/135/135
f 135/135/135 134/134/134 136/136/136
f 135/135/135 136/136/136 137/137/137
f 138/138/138 135/135/135 137/137/137
f 139/139/139 135/135/135 138/138/138
f 139/139/139 133/133/133 135/135/135
f 140/140/140 139/139/139 138/138/138
f 141/141/141 139/139/139 140/140/140
f 137/137/137 136/136/136 142/142/142
f 143/143/143 129/129/129 132/132/132
f 143/143/143 131/131/131 129/129/129
f 144/144/144 131/131/131 143/143/143
f 145/145/145 133/133/133 139/139/139
f 145/145/145 132/132/132 133/133/133
f 141/141/141 145/145/145 139/139/139
f 146/146/146 132/132/132 145/145/145
f 146/146/146 143/143/143 132/132/132
f 147/147/147 143/143/143 146/146/146
f 147/147/147 148/148/148 143/143/143
f 149/149/149 146/146/146 145/145/145
f 149/149/149 145/145/145 141/141/141
f 150/150/150 146/146/146 149/149/149
f 150/150/150 147/147/147 146/146/146
f 151/151/151 147/147/147 150/150/150
f 131/131/131 153/153/153 152/152/152
f 154/154/154 153/153/153 131/131/131
f 154/154/154 155/155/155 153/153/153
f 156/156/156 155/155/155 154/154/154
f 156/156/156 157/157/157 155/155/155
f 158/158/158 157/157/157 156/156/156
f 158/158/158 159/159/159 157/157/157
f 160/160/160 159/159/159 158/158/158
f 160/160/160 161/161/161 159/159/159
f 162/162/162 161/161/161 160/160/160
f 163/163/163 154/154/154 131/131/131
f 164/164/164 154/154/154 163/163/163
f 165/165/165 156/156/156 154/154/154
f 166/166/166 156/156/156 165/165/165
f 166/166/166 158/158/158 156/156/156
f 167/167/167 158/158/158 166/166/166
f 167/167/167 160/160/160 158/158/158
f 168/168/168 160/160/160 167/167/167
f 168/168/168 162/162/162 160/160/160
f 169/169/169 162/162/162 168/168/168
f 170/170/170 169/169/169 168/168/168
f 170/170/170 168/168/168 171/171/171
f 171/171/171 168/168/168 167/167/167
f 171/171/171 167/167/167 172/172/172
f 172/172/172 167/167/167 166/166/166
f 172/172/172 166/166/166 173/173/173
f 173/173/173 166/166/166 165/165/165
f 174/174/174 169/169/169 170/170/170
f 161/161/161 175/175/175 159/159/159
f 175/175/175 177/177/177 176/176/176
f 176/176/176 177/177/177 178/178/178
f 176/176/176 178/178/178 179/179/179
f 179/179/179 178/178/178 180/180/180
f 179/179/179 180/180/180 181/181/181
f 181/181/181 180/180/180 182/182/182
f 181/181/181 182/182/182 183/183/183
f 183/183/183 182/182/182 184/184/184
f 175/175/175 185/185/185 177/177/177
f 186/186/186 185/185/185 175/175/175
f 183/183/183 155/155/155 181/181/181
f 153/153/153 155/155/155 183/183/183
f 155/155/155 157/157/157 181/181/181
f 181/181/181 157/157/157 179/179/179
f 157/157/157 159/159/159 179/179/179
f 179/179/179 159/159/159 176/176/176
f 159/159/159 175/175/175 176/176/176
f 186/186/186 30/30/30 187/187/187
f 188/188/188 30/30/30 186/186/186
f 30/30/30 31/31/31 187/187/187
f 187/187/187 31/31/31 189/189/189
f 192/192/192 191/191/191 190/190/190
f 193/193/193 191/191/191 192/192/192
f 194/194/194 193/193/193 192/192/192
f 195/195/195 193/193/193 194/194/194
f 198/198/198 197/197/197 196/196/196
f 198/198/198 199/199/199 197/197/197
f 200/200/200 199/199/199 198/198/198
f 200/200/200 201/201/201 199/199/199
f 202/202/202 201/201/201 200/200/200
f 202/202/202 203/203/203 201/201/201
f 204/204/204 203/203/203 202/202/202
f 204/204/204 205/205/205 203/203/203
f 208/208/208 207/207/207 206/206/206
f 208/208/208 206/206/206 209/209/209
f 209/209/209 206/206/206 210/210/210
f 213/213/213 212/212/212 211/211/211
f 213/213/213 214/214/214 212/212/212
f 217/217/217 216/216/216 215/215/215
f 218/218/218 216/216/216 217/217/217
f 218/218/218 219/219/219 216/216/216
f 220/220/220 219/219/219 218/218/218
f 220/220/220 221/221/221 219/219/219
f 222/222/222 221/221/221 220/220/220
f 222/222/222 223/223/223 221/221/221
f 224/224/224 223/223/223 222/222/222
f 225/225/225 218/218/218 217/217/217
f 226/226/226 218/218/218 225/225/225
f 226/226/226 220/220/220 218/218/218
f 227/227/227 220/220/220 226/226/226
f 227/227/227 222/222/222 220/220/220
f 228/228/228 222/222/222 227/227/227
f 228/228/228 229/229/229 222/222/222
f 230/230/230 229/229/229 228/228/228
f 231/231/231 226/226/226 225/225/225
f 232/232/232 226/226/226 231/231/231
f 232/232/232 227/227/227 226/226/226
f 233/233/233 227/227/227 232/232/232
f 233/233/233 228/228/228 227/227/227
f 234/234/234 228/228/228 233/233/233
f 234/234/234 230/230/230 228/228/228
f 235/235/235 230/230/230 234/234/234
f 238/238/238 237/237/237 236/236/236
f 236/236/236 237/237/237 239/239/239
f 242/242/242 241/241/241 240/240/240
f 240/240/240 241/241/241 243/243/243
f 241/241/241 244/244/244 243/243/243
f 243/243/243 244/244/244 245/245/245
f 248/248/248 247/247/247 246/246/246
f 246/246/246 247/247/247 249/249/249
f 252/252/252 251/251/251 250/250/250
f 252/252/252 253/253/253 251/251/251
f 250/250/250 251/251/251 254/254/254
f 250/250/250 254/254/254 255/255/255
f 255/255/255 254/254/254 256/256/256
f 255/255/255 256/256/256 257/257/257
f 257/257/257 256/256/256 258/258/258
f 257/257/257 258/258/258 259/259/259
f 262/262/262 261/261/261 260/260/260
f 265/265/265 264/264/264 263/263/263
f 268/268/268 267/267/267 266/266/266
f 271/271/271 270/270/270 269/269/269
f 274/274/274 273/273/273 272/272/272
f 277/277/277 276/276/276 275/275/275
f 277/277/277 278/278/278 276/276/276
f 280/280/280 279/279/279 278/278/278
f 281/281/281 279/279/279 280/280/280
f 281/281/281 282/282/282 279/279/279
f 285/285/285 284/284/284 283/283/283
f 287/287/287 284/284/284 286/286/286
f 290/290/290 289/289/289 288/288/288
f 293/293/293 292/292/292 291/291/291
f 296/296/296 295/295/295 294/294/294
f 294/294/294 295/295/295 297/297/297
f 300/300/300 299/299/299 298/298/298
f 298/298/298 299/299/299 301/301/301
f 304/304/304 303/303/303 302/302/302
f 302/302/302 303/303/303 305/305/305
f 303/303/303 306/306/306 305/305/305
f 305/305/305 306/306/306 307/307/307
f 310/310/310 309/309/309 308/308/308
f 308/308/308 309/309/309 311/311/311
f 314/314/314 313/313/313 312/312/312
f 314/314/314 315/315/315 313/313/313
f 312/312/312 313/313/313 316/316/316
f 312/312/312 316/316/316 317/317/317
f 320/320/320 319/319/319 318/318/318
f 323/323/323 322/322/322 321/321/321
f 324/324/324 52/52/52 66/66/66
f 327/327/327 326/326/326 325/325/325
f 325/325/325 326/326/326 328/328/328
f 331/331/331 330/330/330 329/329/329
f 329/329/329 333/333/333 332/332/332
f 336/336/336 335/335/335 334/334/334
f 337/337/337 335/335/335 336/336/336
f 340/340/340 339/339/339 338/338/338
f 341/341/341 339/339/339 340/340/340
f 344/344/344 343/343/343 342/342/342
f 342/342/342 343/343/343 345/345/345
f 348/348/348 347/347/347 346/346/346
f 346/346/346 350/350/350 349/349/349
f 353/353/353 352/352/352 351/351/351
f 354/354/354 352/352/352 353/353/353
f 357/357/357 356/356/356 355/355/355
f 358/358/358 356/356/356 357/357/357
f 361/361/361 360/360/360 359/359/359
f 362/362/362 360/360/360 361/361/361
f 365/365/365 364/364/364 363/363/363
f 363/363/363 364/364/364 366/366/366
f 369/369/369 368/368/368 367/367/367
f 367/367/367 368/368/368 370/370/370
f 373/373/373 372/372/372 371/371/371
f 374/374/374 372/372/372 373/373/373
f 377/377/377 376/376/376 375/375/375
f 377/377/377 375/375/375 378/378/378
f 378/378/378 375/375/375 379/379/379
f 378/378/378 379/379/379 380/380/380
f 380/380/380 379/379/379 381/381/381
f 380/380/380 381/381/381 382/382/382
f 382/382/382 381/381/381 383/383/383
f 382/382/382 383/383/383 384/384/384
f 387/387/387 386/386/386 385/385/385
f 385/385/385 386/386/386 388/388/388
f 391/391/391 390/390/390 389/389/389
f 394/394/394 393/393/393 392/392/392
f 394/394/394 392/392/392 395/395/395
f 398/398/398 397/397/397 396/396/396
f 401/401/401 400/400/400 399/399/399
f 404/404/404 403/403/403 402/402/402
