g RockSpireTopRock_mesh
v 219.6129 363.5662 -991.6561
v 207.1657 362.6073 -990.3085
v 224.5968 367.3765 -998.2133
v 224.5968 367.3765 -998.2133
v 208.5963 369.1606 -997.4163
v 191.4677 361.398 -988.6083
v 197.7946 356.7719 -979.6816
v 209.3267 357.5697 -982.7902
v 219.6129 363.5662 -991.6561
v 218.4707 358.2023 -985.2551
v 208.2989 348.7183 -975.032
v 218.4707 358.2023 -985.2551
v 219.1574 350.1835 -977.5482
v 229.6278 358.886 -991.1463
v 230.7603 346.5678 -983.419
v 220.3934 338.2925 -972.6584
v 231.7445 335.864 -976.7023
v 235.1852 343.9947 -985.3591
v 240.106 347.9341 -998.4432
v 208.045 336.1038 -970.098
v 194.6045 346.8704 -971.8583
v 192.4717 333.3432 -966.8685
v 174.8124 329.8259 -962.0516
v 176.9714 345.9169 -970.0081
v 164.8801 327.4155 -960.4706
v 163.8575 345.2077 -968.6312
v 177.3564 356.7529 -980.8522
v 162.1561 356.7389 -981.7217
v 169.697 358.4905 -992.8339
v 153.5058 356.3281 -995.9757
v 167.6936 369.9277 -1005.716
v 189.811 370.7267 -1000.828
v 152.458 364.7614 -1007.165
v 153.4917 318.8395 -959.7096
v 147.65 338.7553 -969.0183
v 139.257 308.8677 -963.0601
v 133.947 327.8013 -970.965
v 146.0361 354.4395 -981.4827
v 146.0361 354.4395 -981.4827
v 129.0917 344.8272 -983.1489
v 145.196 352.672 -994.3875
v 144.9036 352.0564 -998.8806
v 143.1292 355.3871 -1005.126
v 152.458 364.7614 -1007.165
v 130.6301 344.9686 -1003.7
v 131.4169 343.8883 -997.3527
v 138.8669 347.8074 -1021.533
v 152.458 364.7614 -1007.165
v 128.7801 345.2595 -989.6744
v 146.0361 354.4395 -981.4827
v 152.458 364.7614 -1007.165
v 152.656 351.6114 -1030.541
v 140.3811 338.0396 -1031.372
v 155.0253 338.9576 -1043.92
v 168.1572 339.0608 -1049.29
v 166.4317 354.7585 -1033.027
v 152.458 364.7614 -1007.165
v 167.6936 369.9277 -1005.716
v 189.811 370.7267 -1000.828
v 186.6021 358.9618 -1036.209
v 189.811 370.7267 -1000.828
v 206.6797 359.3976 -1038.232
v 219.4628 360.5513 -1034.178
v 224.5968 367.3765 -998.2133
v 185.8143 339.1997 -1056.51
v 206.922 339.0446 -1061.259
v 217.9541 343.8779 -1056.8
v 235.8631 352.8093 -1033.574
v 233.4759 360.1487 -1008.216
v 224.5968 367.3765 -998.2133
v 232.4561 355.9632 -1003.495
v 240.106 347.9341 -998.4432
v 240.106 347.9341 -998.4432
v 243.2885 356.5628 -1007.922
v 257.4781 341.4232 -1002.613
v 253.4902 339.8862 -994.9532
v 259.0909 338.357 -999.7871
v 262.3878 330.6431 -995.988
v 262.2045 338.1895 -1003.714
v 257.4781 341.4232 -1002.613
v 257.6416 335.4768 -1015.997
v 246.7454 346.5977 -1028.276
v 243.8532 331.324 -1038.031
v 231.3062 337.7815 -1046.641
v 243.2885 356.5628 -1007.922
v 246.7454 346.5977 -1028.276
v 235.8631 352.8093 -1033.574
v 231.3062 337.7815 -1046.641
v 269.3053 332.7466 -1008.183
v 264.3586 335.9784 -1009.24
v 266.3864 334.6339 -1013.243
v 259.5221 330.5936 -1025.298
v 257.6416 335.4768 -1015.997
v 262.2045 338.1895 -1003.714
v 243.8532 331.324 -1038.031
v 264.4889 329.4412 -999.1055
v 262.2045 338.1895 -1003.714
v 259.0909 338.357 -999.7871
v 262.3878 330.6431 -995.988
v 264.4889 329.4412 -999.1055
v 219.6129 363.5662 -991.6561
v 224.5968 367.3765 -998.2133
v 232.4561 355.9632 -1003.495
v 224.5968 367.3765 -998.2133
v 233.4759 360.1487 -1008.216
v 219.6129 363.5662 -991.6561
v 232.4561 355.9632 -1003.495
v 218.4707 358.2023 -985.2551
v 218.4707 358.2023 -985.2551
v 232.4561 355.9632 -1003.495
v 229.6278 358.886 -991.1463
v 232.4561 355.9632 -1003.495
v 229.6278 358.886 -991.1463
v 233.4759 360.1487 -1008.216
v 235.8631 352.8093 -1033.574
v 243.2885 356.5628 -1007.922
v 257.4781 341.4232 -1002.613
v 240.106 347.9341 -998.4432
v 256.3154 330.0443 -991.3855
v 253.4902 339.8862 -994.9532
v 262.3878 330.6431 -995.988
v 256.3154 330.0443 -991.3855
v 243.8176 348.2946 -989.5399
v 253.4902 339.8862 -994.9532
v 242.2885 333.608 -980.4586
v 243.8176 348.2946 -989.5399
v 240.106 347.9341 -998.4432
v 253.4902 339.8862 -994.9532
v 243.8176 348.2946 -989.5399
v 235.1852 343.9947 -985.3591
v 240.106 347.9341 -998.4432
v 243.8176 348.2946 -989.5399
v 235.1852 343.9947 -985.3591
v 243.8176 348.2946 -989.5399
v 231.7445 335.864 -976.7023
v 266.3864 334.6339 -1013.243
v 259.5221 330.5936 -1025.298
v 252.1997 315.3432 -1013.281
v 240.9169 314.7766 -1022.602
v 243.8532 331.324 -1038.031
v 228.2849 313.3168 -1030.188
v 231.3062 337.7815 -1046.641
v 269.3053 332.7466 -1008.183
v 254.758 313.7361 -1008.378
v 250.8169 310.3594 -999.2638
v 264.4889 329.4412 -999.1055
v 231.3062 337.7815 -1046.641
v 221.467 317.2989 -1035.915
v 217.9541 343.8779 -1056.8
v 212.6715 321.3149 -1042.607
v 206.922 339.0446 -1061.259
v 205.4803 318.131 -1045.832
v 185.8143 339.1997 -1056.51
v 191.5001 318.2331 -1042.416
v 168.1572 339.0608 -1049.29
v 179.8688 318.1416 -1037.66
v 155.0253 338.9576 -1043.92
v 171.2184 318.0735 -1034.123
v 140.3811 338.0396 -1031.372
v 161.5718 317.4689 -1025.857
v 131.9349 338.2159 -1016.102
v 150.7619 316.8367 -1013.983
v 152.1494 310.1655 -1001.06
v 134.2799 329.1821 -999.8126
v 152.8818 291.4915 -966.7235
v 139.257 308.8677 -963.0601
v 133.947 327.8013 -970.965
v 129.0917 344.8272 -983.1489
v 133.0986 335.2499 -998.7977
v 131.4169 343.8883 -997.3527
v 128.7801 345.2595 -989.6744
v 130.6301 344.9686 -1003.7
v 131.3966 341.0021 -1010.985
v 131.9349 338.2159 -1016.102
v 138.8669 347.8074 -1021.533
v 130.6301 344.9686 -1003.7
v 131.3966 341.0021 -1010.985
v 146.0361 354.4395 -981.4827
v 235.8631 352.8093 -1033.574
v 217.9541 343.8779 -1056.8
v 231.3062 337.7815 -1046.641
v 174.971 305.6087 -967.2964
v 182.5088 307.4379 -968.4963
v 166.4901 299.3427 -967.248
v 195.4468 313.7171 -974.7885
v 220.3934 338.2925 -972.6584
v 231.7445 335.864 -976.7023
v 216.6369 317.4732 -979.1823
v 225.2512 315.6304 -982.2512
v 242.2885 333.608 -980.4586
v 233.2532 313.9181 -985.1017
v 256.3154 330.0443 -991.3855
v 243.8983 311.2135 -993.3942
v 262.3878 330.6431 -995.988
v 207.2655 315.8121 -977.2391
v 208.045 336.1038 -970.098
v 195.4468 313.7171 -974.7885
v 192.4717 333.3432 -966.8685
v 262.3878 330.6431 -995.988
v 248.6112 311.6145 -996.5174
v 264.4889 329.4412 -999.1055
v 250.8169 310.3594 -999.2638
v 139.257 308.8677 -963.0601
v 153.4917 318.8395 -959.7096
v 152.8818 291.4915 -966.7235
v 166.4901 299.3427 -967.248
v 138.8669 347.8074 -1021.533
v 131.3966 341.0021 -1010.985
v 140.3811 338.0396 -1031.372
v 131.3966 341.0021 -1010.985
v 131.9349 338.2159 -1016.102
vt 0.082471 0.243432
vt 0.071136 0.244878
vt 0.086068 0.236547
vt 0.086068 0.236547
vt 0.070615 0.23693
vt 0.056855 0.246701
vt 0.064072 0.255906
vt 0.074565 0.252863
vt 0.082471 0.243432
vt 0.082892 0.250448
vt 0.076084 0.261751
vt 0.082892 0.250448
vt 0.085735 0.259144
vt 0.093082 0.244834
vt 0.097452 0.2544
vt 0.09011 0.265892
vt 0.101207 0.262622
vt 0.102226 0.253102
vt 0.105734 0.240236
vt 0.07934 0.268653
vt 0.063933 0.265034
vt 0.065791 0.272127
vt 0.050582 0.277184
vt 0.047904 0.266922
vt 0.042177 0.279063
vt 0.035993 0.268326
vt 0.045083 0.254822
vt 0.030962 0.254017
vt 0.037447 0.243343
vt 0.023048 0.240852
vt 0.032137 0.229012
vt 0.052591 0.23342
vt 0.019484 0.228724
vt 0.03428 0.281279
vt 0.022976 0.269159
vt 0.024279 0.279986
vt 0.013721 0.269379
vt 0.016691 0.254682
vt 0.016691 0.254682
vt 0.003986 0.254984
vt 0.016456 0.243053
vt 0.016375 0.239009
vt 0.013699 0.232542
vt 0.019484 0.228724
vt 0.005363 0.235968
vt 0.006427 0.242046
vt 0.012096 0.218898
vt 0.019484 0.228724
vt 0.003562 0.248871
vt 0.016691 0.254682
vt 0.019484 0.228724
vt 0.023698 0.20975
vt 0.016499 0.211872
vt 0.02971 0.200118
vt 0.041777 0.195149
vt 0.035528 0.206766
vt 0.019484 0.228724
vt 0.032137 0.229012
vt 0.052591 0.23342
vt 0.053033 0.202896
vt 0.052591 0.23342
vt 0.071589 0.200919
vt 0.083166 0.20444
vt 0.086068 0.236547
vt 0.058005 0.188466
vt 0.077496 0.184125
vt 0.086345 0.18715
vt 0.10051 0.20668
vt 0.096321 0.228695
vt 0.086068 0.236547
vt 0.096502 0.23394
vt 0.105734 0.240236
vt 0.105734 0.240236
vt 0.106406 0.229704
vt 0.123469 0.237681
vt 0.120184 0.245047
vt 0.125732 0.240895
vt 0.1307 0.245899
vt 0.128642 0.237311
vt 0.123469 0.237681
vt 0.125126 0.226555
vt 0.112225 0.212915
vt 0.113518 0.207178
vt 0.100296 0.197869
vt 0.106406 0.229704
vt 0.112225 0.212915
vt 0.10051 0.20668
vt 0.100296 0.197869
vt 0.136528 0.234289
vt 0.131179 0.232668
vt 0.133379 0.229259
vt 0.128083 0.219017
vt 0.125126 0.226555
vt 0.128642 0.237311
vt 0.113518 0.207178
vt 0.132926 0.243274
vt 0.128642 0.237311
vt 0.125732 0.240895
vt 0.1307 0.245899
vt 0.132926 0.243274
vt 0.082471 0.243432
vt 0.086068 0.236547
vt 0.096502 0.23394
vt 0.086068 0.236547
vt 0.096321 0.228695
vt 0.082471 0.243432
vt 0.096502 0.23394
vt 0.082892 0.250448
vt 0.082892 0.250448
vt 0.096502 0.23394
vt 0.093082 0.244834
vt 0.096502 0.23394
vt 0.093082 0.244834
vt 0.096321 0.228695
vt 0.10051 0.20668
vt 0.106406 0.229704
vt 0.123469 0.237681
vt 0.105734 0.240236
vt 0.125279 0.250237
vt 0.120184 0.245047
vt 0.1307 0.245899
vt 0.125279 0.250237
vt 0.109074 0.248404
vt 0.120184 0.245047
vt 0.111491 0.259591
vt 0.109074 0.248404
vt 0.105734 0.240236
vt 0.120184 0.245047
vt 0.109074 0.248404
vt 0.102226 0.253102
vt 0.105734 0.240236
vt 0.109074 0.248404
vt 0.102226 0.253102
vt 0.109074 0.248404
vt 0.101207 0.262622
vt 0.133379 0.229259
vt 0.128083 0.219017
vt 0.125208 0.233103
vt 0.115077 0.224729
vt 0.113518 0.207178
vt 0.103955 0.218123
vt 0.100296 0.197869
vt 0.136528 0.234289
vt 0.127938 0.237885
vt 0.125196 0.246829
vt 0.132926 0.243274
vt 0.100296 0.197869
vt 0.096702 0.212079
vt 0.086345 0.18715
vt 0.087605 0.205123
vt 0.077496 0.184125
vt 0.081902 0.202861
vt 0.058005 0.188466
vt 0.069124 0.205954
vt 0.041777 0.195149
vt 0.058541 0.210311
vt 0.02971 0.200118
vt 0.050672 0.213551
vt 0.016499 0.211872
vt 0.04205 0.221213
vt 0.008667 0.225898
vt 0.032381 0.232165
vt 0.035605 0.245234
vt 0.013604 0.242676
vt 0.041681 0.279721
vt 0.024279 0.279986
vt 0.013721 0.269379
vt 0.003986 0.254984
vt 0.010655 0.242418
vt 0.006427 0.242046
vt 0.003562 0.248871
vt 0.005363 0.235968
vt 0.007307 0.230045
vt 0.008667 0.225898
vt 0.012096 0.218898
vt 0.005363 0.235968
vt 0.007307 0.230045
vt 0.016691 0.254682
vt 0.10051 0.20668
vt 0.086345 0.18715
vt 0.100296 0.197869
vt 0.057623 0.276719
vt 0.063947 0.275305
vt 0.051717 0.27787
vt 0.073966 0.268457
vt 0.09011 0.265892
vt 0.101207 0.262622
vt 0.092252 0.263766
vt 0.100589 0.261311
vt 0.111491 0.259591
vt 0.10832 0.259034
vt 0.125279 0.250237
vt 0.118694 0.252
vt 0.1307 0.245899
vt 0.084157 0.265843
vt 0.07934 0.268653
vt 0.073966 0.268457
vt 0.065791 0.272127
vt 0.1307 0.245899
vt 0.122877 0.249085
vt 0.132926 0.243274
vt 0.125196 0.246829
vt 0.024279 0.279986
vt 0.03428 0.281279
vt 0.041681 0.279721
vt 0.051717 0.27787
vt 0.012096 0.218898
vt 0.007307 0.230045
vt 0.016499 0.211872
vt 0.007307 0.230045
vt 0.008667 0.225898
vn 0.2248034 0.7748353 0.5908415
vn 0.03088949 0.817804 0.5746672
vn 0.3455043 0.892113 0.2911379
vn 0.4454639 0.8078331 0.3859633
vn 0.05528014 0.9678023 0.2455659
vn -0.1090314 0.7880754 0.6058459
vn 0.01499346 0.7858444 0.6182425
vn 0.1056706 0.747287 0.6560455
vn 0.3477847 0.6867827 0.6382596
vn 0.2278857 0.7864426 0.5740871
vn 0.1390644 0.5547939 0.8202834
vn 0.2915583 0.6668655 0.6857726
vn 0.2906345 0.5112617 0.8087912
vn 0.6131345 0.5896603 0.5257059
vn 0.5107375 0.4672543 0.721679
vn 0.3209838 0.05205858 0.9456529
vn 0.3359041 0.1944143 0.9216136
vn 0.5000381 0.5699938 0.6519731
vn 0.5257829 0.7461589 0.4084105
vn 0.2023019 0.06611007 0.9770893
vn 0.1209876 0.443467 0.8880873
vn 0.2920598 -0.02431557 0.9560908
vn 0.1743448 0.1058318 0.9789808
vn 0.03789223 0.5596637 0.827853
vn 0.08374306 0.1082842 0.9905865
vn -0.108566 0.5736377 0.8118825
vn -0.01311956 0.8672771 0.4976527
vn -0.1646589 0.915499 0.3670815
vn -0.14473 0.9072976 0.3947965
vn -0.3791479 0.8467937 0.3730783
vn -0.2307188 0.7369164 0.635392
vn -0.0845781 0.9925641 0.08753867
vn -0.5601376 0.7465579 0.3590225
vn -0.08303825 0.0619333 0.99462
vn -0.3083107 0.4729044 0.8254126
vn -0.2820005 0.1103647 0.9530454
vn -0.4049987 0.4242606 0.8099253
vn -0.4165932 0.7523562 0.510304
vn -0.3818236 0.8279945 0.4106531
vn -0.4664604 0.7376544 0.4881401
vn -0.4081998 0.9116871 -0.04690058
vn -0.4924606 0.8420487 0.2200827
vn -0.6222401 0.7356412 0.2676738
vn -0.5781344 0.7999718 0.1606423
vn -0.6398965 0.7680112 0.02629233
vn -0.5287108 0.8471683 -0.05263886
vn -0.7129617 0.5984743 -0.3653958
vn -0.4928675 0.8672882 -0.06994835
vn -0.4708168 0.8755261 -0.1085617
vn -0.3818236 0.8279945 0.4106531
vn -0.5019457 0.8385273 -0.2119492
vn -0.4167447 0.6853375 -0.5971904
vn -0.6853411 0.5036969 -0.525925
vn -0.4298115 0.6167799 -0.6594276
vn -0.2727216 0.6810772 -0.6795269
vn -0.2066137 0.826 -0.5244375
vn -0.4458388 0.8077191 -0.3857692
vn -0.0855843 0.872677 -0.4807393
vn -0.02311881 0.9418434 -0.3352559
vn -0.1796999 0.8060896 -0.5638506
vn -0.05662122 0.9982224 -0.0186036
vn 0.00527816 0.8869015 -0.4619285
vn 0.2487948 0.9024804 -0.3516111
vn 0.1812927 0.9604998 0.2111231
vn -0.2137142 0.7041224 -0.6771544
vn -0.09750441 0.7357754 -0.6701697
vn 0.2877142 0.69935 -0.6543165
vn 0.5184969 0.7185206 -0.4635613
vn 0.4886013 0.8428664 0.2254882
vn 0.3455043 0.892113 0.2911379
vn 0.7033985 0.5069775 0.4982011
vn 0.4256665 0.8152204 0.3927133
vn 0.3888898 0.785165 0.4819551
vn 0.3608539 0.8263966 0.432265
vn 0.6246014 0.7593305 0.1824563
vn 0.6033119 0.6655998 0.4393081
vn 0.6611283 0.589142 0.4645654
vn 0.6874315 0.2959117 0.66323
vn 0.6039646 0.7844133 0.1411474
vn 0.6445218 0.7598399 0.08505833
vn 0.5341483 0.7498541 -0.3903899
vn 0.7299796 0.505586 -0.4599049
vn 0.6291568 -0.1032141 -0.770395
vn 0.5353701 -0.1073906 -0.8377626
vn 0.5749221 0.8182052 -0.002192669
vn 0.7299796 0.505586 -0.4599049
vn 0.5184969 0.7185206 -0.4635613
vn 0.6301734 0.3722587 -0.6813991
vn 0.6401463 0.7531947 0.1513625
vn 0.3422192 0.9112457 -0.2291665
vn 0.2893128 0.9420432 -0.1698612
vn 0.227912 0.9019592 -0.3667776
vn 0.5341483 0.7498541 -0.3903899
vn 0.4871255 0.8690476 -0.08640067
vn 0.6475382 0.4927191 -0.5813107
vn 0.7789782 0.1209906 0.6152675
vn 0.6602018 0.715445 0.2286308
vn 0.6611283 0.589142 0.4645654
vn 0.6620039 0.5000581 0.5582945
vn 0.7356254 0.4827226 0.47522
vn 0.4364343 0.6143106 0.6573793
vn 0.5981688 0.4530322 0.6610264
vn 0.7033985 0.5069775 0.4982011
vn 0.4965585 0.7108821 0.4980726
vn 0.5067449 0.7989688 0.3238188
vn 0.3477847 0.6867827 0.6382596
vn 0.7033985 0.5069775 0.4982011
vn 0.2915583 0.6668655 0.6857726
vn -0.04391852 0.9745728 0.2197251
vn 0.3017561 0.9409322 -0.1535897
vn 0.3017561 0.9409322 -0.1535897
vn 0.6203513 0.6663592 0.4136781
vn 0.528077 0.7301192 0.4336595
vn 0.3877354 0.908455 0.1561116
vn 0.5184969 0.7185206 -0.4635613
vn 0.5282026 0.8340781 0.159109
vn 0.5686029 0.7354106 0.3685943
vn 0.5257829 0.7461589 0.4084105
vn 0.6243083 -0.01297376 0.7810703
vn 0.5777283 0.5976806 0.5558848
vn 0.7056172 0.02702451 0.7080778
vn 0.6243083 -0.01297376 0.7810703
vn 0.5101761 0.6376636 0.577153
vn 0.6033119 0.6655998 0.4393081
vn 0.4419264 -0.0553017 0.8953451
vn 0.4406623 0.5208429 0.731122
vn 0.5702397 0.7440397 0.3481834
vn 0.6083339 0.7047219 0.3650984
vn 0.7023342 0.6863279 0.188894
vn -0.2294077 0.8750205 0.4262759
vn 0.1411604 0.8486479 0.509775
vn -0.2294077 0.8750205 0.4262759
vn 0.3487055 0.7162569 0.6044672
vn 0.2977516 0.6739032 0.6761644
vn 0.3355647 0.5644253 0.7542019
vn 0.7333462 -0.5384987 -0.4149972
vn 0.5918149 -0.6460768 -0.4820164
vn 0.6647125 -0.5712498 -0.4814883
vn 0.4662906 -0.6574936 -0.5918405
vn 0.5968227 -0.306477 -0.7415352
vn 0.3412862 -0.5938284 -0.728623
vn 0.4229068 -0.3707493 -0.8268585
vn 0.7854784 -0.5844291 -0.2036323
vn 0.7766489 -0.5921126 -0.2149865
vn 0.7541057 -0.5565856 0.3486219
vn 0.6926901 -0.5062785 0.5136754
vn 0.5022463 -0.2244423 -0.8350894
vn 0.3245617 -0.55644 -0.7648752
vn 0.5039595 -0.3557604 -0.7870574
vn 0.4575967 -0.5442273 -0.7031515
vn 0.302857 -0.5816765 -0.7549372
vn 0.0534653 -0.5986767 -0.7992043
vn -0.2279897 -0.5827346 -0.7800263
vn -0.2676361 -0.5864641 -0.7644807
vn -0.3024818 -0.5868846 -0.7510467
vn -0.3024703 -0.5868765 -0.7510578
vn -0.361325 -0.610715 -0.7046072
vn -0.4182948 -0.6308903 -0.6534577
vn -0.5244945 -0.6782752 -0.514634
vn -0.5639607 -0.6541045 -0.5040789
vn -0.7528145 -0.589639 -0.2925682
vn -0.660076 -0.6228885 -0.4198923
vn -0.7079171 -0.6469061 -0.2834886
vn -0.9125311 -0.3905783 -0.1213899
vn -0.7468956 -0.6069849 -0.2715074
vn -0.8920988 -0.4356218 -0.1199727
vn -0.9582032 -0.2850203 -0.02469947
vn -0.9155685 -0.3910015 -0.09408605
vn -0.9805274 -0.1942732 -0.02870294
vn -0.8973343 -0.4400555 -0.03379675
vn -0.5303189 -0.8472384 -0.03080835
vn -0.9971597 -0.003685267 -0.07522636
vn -0.9740072 0.1199324 -0.1921618
vn -0.8326796 -0.4313069 -0.3473022
vn -0.7129617 0.5984743 -0.3653958
vn -0.843011 0.5364068 0.04000351
vn -0.9740072 0.1199324 -0.1921618
vn -0.3182947 0.9309489 0.1789485
vn 0.5184969 0.7185206 -0.4635613
vn 0.4260809 0.1877452 -0.8849896
vn 0.5786602 0.000546336 -0.8155686
vn 0.1914798 -0.211405 0.9584588
vn 0.3413748 -0.2117718 0.9157598
vn 0.1920024 -0.2289343 0.9543186
vn 0.3413785 -0.306776 0.8884533
vn 0.3209838 0.05205858 0.9456529
vn 0.3874108 0.0839734 0.9180748
vn 0.2512541 -0.3304232 0.9097757
vn 0.2531636 -0.330579 0.9091896
vn 0.4419264 -0.0553017 0.8953451
vn 0.4178809 -0.3857273 0.822551
vn 0.6243083 -0.01297376 0.7810703
vn 0.5309665 -0.4203708 0.7357737
vn 0.6088008 -0.245538 0.7543691
vn 0.2473969 -0.3300916 0.9109524
vn 0.2023019 0.06611007 0.9770893
vn 0.3413785 -0.306776 0.8884533
vn 0.2920598 -0.02431557 0.9560908
vn 0.6501002 -0.08244734 0.7553624
vn 0.5878812 -0.4386237 0.6797095
vn 0.7925017 -0.1259866 0.5967148
vn 0.7541057 -0.5565856 0.3486219
vn -0.2820005 0.1103647 0.9530454
vn -0.08303825 0.0619333 0.99462
vn 0.06298418 -0.2492532 0.966388
vn 0.1920024 -0.2289343 0.9543186
vn -0.7129617 0.5984743 -0.3653958
vn -0.9740072 0.1199324 -0.1921618
vn -0.6853411 0.5036969 -0.525925
vn -0.9740072 0.1199324 -0.1921618
vn -0.9537762 0.2101868 -0.2147845
g RockSpireTopRock_mesh_0
f 3/3/3 2/2/2 1/1/1
f 5/5/5 2/2/2 4/4/4
f 5/5/5 6/6/6 2/2/2
f 6/6/6 7/7/7 2/2/2
f 2/2/2 7/7/7 8/8/8
f 2/2/2 8/8/8 9/9/9
f 9/9/9 8/8/8 10/10/10
f 7/7/7 11/11/11 8/8/8
f 11/11/11 12/12/12 8/8/8
f 13/13/13 12/12/12 11/11/11
f 13/13/13 14/14/14 12/12/12
f 15/15/15 14/14/14 13/13/13
f 16/16/16 15/15/15 13/13/13
f 17/17/17 15/15/15 16/16/16
f 17/17/17 18/18/18 15/15/15
f 15/15/15 18/18/18 14/14/14
f 18/18/18 19/19/19 14/14/14
f 20/20/20 13/13/13 11/11/11
f 16/16/16 13/13/13 20/20/20
f 21/21/21 20/20/20 11/11/11
f 21/21/21 11/11/11 7/7/7
f 22/22/22 20/20/20 21/21/21
f 22/22/22 21/21/21 23/23/23
f 23/23/23 21/21/21 24/24/24
f 21/21/21 7/7/7 24/24/24
f 23/23/23 24/24/24 25/25/25
f 25/25/25 24/24/24 26/26/26
f 24/24/24 27/27/27 26/26/26
f 24/24/24 7/7/7 27/27/27
f 26/26/26 27/27/27 28/28/28
f 29/29/29 28/28/28 27/27/27
f 7/7/7 29/29/29 27/27/27
f 6/6/6 29/29/29 7/7/7
f 30/30/30 28/28/28 29/29/29
f 31/31/31 30/30/30 29/29/29
f 6/6/6 31/31/31 29/29/29
f 32/32/32 31/31/31 6/6/6
f 32/32/32 6/6/6 5/5/5
f 33/33/33 30/30/30 31/31/31
f 25/25/25 26/26/26 34/34/34
f 34/34/34 26/26/26 35/35/35
f 26/26/26 28/28/28 35/35/35
f 34/34/34 35/35/35 36/36/36
f 36/36/36 35/35/35 37/37/37
f 35/35/35 38/38/38 37/37/37
f 35/35/35 28/28/28 39/39/39
f 37/37/37 38/38/38 40/40/40
f 41/41/41 28/28/28 30/30/30
f 42/42/42 41/41/41 30/30/30
f 42/42/42 30/30/30 43/43/43
f 43/43/43 30/30/30 44/44/44
f 45/45/45 42/42/42 43/43/43
f 45/45/45 41/41/41 42/42/42
f 46/46/46 41/41/41 45/45/45
f 47/47/47 45/45/45 43/43/43
f 48/48/48 47/47/47 43/43/43
f 46/46/46 49/49/49 41/41/41
f 49/49/49 50/50/50 41/41/41
f 40/40/40 50/50/50 49/49/49
f 52/52/52 47/47/47 51/51/51
f 52/52/52 53/53/53 47/47/47
f 54/54/54 53/53/53 52/52/52
f 54/54/54 52/52/52 55/55/55
f 55/55/55 52/52/52 56/56/56
f 52/52/52 57/57/57 56/56/56
f 56/56/56 57/57/57 58/58/58
f 59/59/59 56/56/56 58/58/58
f 60/60/60 55/55/55 56/56/56
f 60/60/60 56/56/56 61/61/61
f 60/60/60 61/61/61 62/62/62
f 62/62/62 61/61/61 5/5/5
f 62/62/62 5/5/5 63/63/63
f 63/63/63 5/5/5 64/64/64
f 65/65/65 55/55/55 60/60/60
f 65/65/65 60/60/60 66/66/66
f 66/66/66 60/60/60 62/62/62
f 66/66/66 62/62/62 67/67/67
f 67/67/67 62/62/62 63/63/63
f 68/68/68 67/67/67 63/63/63
f 68/68/68 63/63/63 69/69/69
f 69/69/69 63/63/63 70/70/70
f 72/72/72 69/69/69 71/71/71
f 74/74/74 69/69/69 73/73/73
f 76/76/76 75/75/75 72/72/72
f 76/76/76 77/77/77 75/75/75
f 77/77/77 76/76/76 78/78/78
f 77/77/77 79/79/79 75/75/75
f 79/79/79 81/81/81 80/80/80
f 81/81/81 82/82/82 80/80/80
f 81/81/81 83/83/83 82/82/82
f 83/83/83 84/84/84 82/82/82
f 75/75/75 86/86/86 85/85/85
f 86/86/86 87/87/87 85/85/85
f 86/86/86 88/88/88 87/87/87
f 90/90/90 79/79/79 89/89/89
f 91/91/91 90/90/90 89/89/89
f 91/91/91 92/92/92 90/90/90
f 90/90/90 92/92/92 93/93/93
f 90/90/90 93/93/93 94/94/94
f 92/92/92 95/95/95 93/93/93
f 89/89/89 97/97/97 96/96/96
f 97/97/97 98/98/98 96/96/96
f 100/100/100 98/98/98 99/99/99
f 103/103/103 102/102/102 101/101/101
f 105/105/105 104/104/104 103/103/103
f 108/108/108 107/107/107 106/106/106
f 111/111/111 110/110/110 109/109/109
f 113/113/113 19/19/19 112/112/112
f 116/116/116 115/115/115 114/114/114
f 118/118/118 117/117/117 116/116/116
f 121/121/121 120/120/120 119/119/119
f 124/124/124 123/123/123 122/122/122
f 122/122/122 126/126/126 125/125/125
f 125/125/125 126/126/126 17/17/17
f 129/129/129 128/128/128 127/127/127
f 132/132/132 131/131/131 130/130/130
f 135/135/135 134/134/134 133/133/133
f 138/138/138 137/137/137 136/136/136
f 139/139/139 137/137/137 138/138/138
f 139/139/139 140/140/140 137/137/137
f 141/141/141 140/140/140 139/139/139
f 141/141/141 142/142/142 140/140/140
f 138/138/138 136/136/136 143/143/143
f 144/144/144 138/138/138 143/143/143
f 144/144/144 143/143/143 145/145/145
f 145/145/145 143/143/143 146/146/146
f 148/148/148 147/147/147 141/141/141
f 148/148/148 149/149/149 147/147/147
f 150/150/150 149/149/149 148/148/148
f 150/150/150 151/151/151 149/149/149
f 152/152/152 151/151/151 150/150/150
f 152/152/152 153/153/153 151/151/151
f 154/154/154 153/153/153 152/152/152
f 154/154/154 155/155/155 153/153/153
f 156/156/156 155/155/155 154/154/154
f 156/156/156 157/157/157 155/155/155
f 158/158/158 157/157/157 156/156/156
f 158/158/158 159/159/159 157/157/157
f 160/160/160 159/159/159 158/158/158
f 160/160/160 161/161/161 159/159/159
f 162/162/162 161/161/161 160/160/160
f 162/162/162 163/163/163 161/161/161
f 161/161/161 163/163/163 164/164/164
f 163/163/163 165/165/165 164/164/164
f 164/164/164 165/165/165 166/166/166
f 166/166/166 167/167/167 164/164/164
f 168/168/168 164/164/164 167/167/167
f 169/169/169 164/164/164 168/168/168
f 170/170/170 169/169/169 168/168/168
f 171/171/171 170/170/170 168/168/168
f 172/172/172 169/169/169 170/170/170
f 173/173/173 169/169/169 172/172/172
f 173/173/173 164/164/164 169/169/169
f 174/174/174 164/164/164 173/173/173
f 177/177/177 176/176/176 175/175/175
f 178/178/178 28/28/28 41/41/41
f 181/181/181 180/180/180 179/179/179
f 182/182/182 23/23/23 25/25/25
f 183/183/183 23/23/23 182/182/182
f 182/182/182 25/25/25 184/184/184
f 184/184/184 25/25/25 34/34/34
f 183/183/183 22/22/22 23/23/23
f 185/185/185 22/22/22 183/183/183
f 188/188/188 187/187/187 186/186/186
f 189/189/189 187/187/187 188/188/188
f 189/189/189 190/190/190 187/187/187
f 191/191/191 190/190/190 189/189/189
f 191/191/191 192/192/192 190/190/190
f 193/193/193 192/192/192 191/191/191
f 193/193/193 194/194/194 192/192/192
f 188/188/188 186/186/186 195/195/195
f 195/195/195 186/186/186 196/196/196
f 195/195/195 196/196/196 197/197/197
f 197/197/197 196/196/196 198/198/198
f 200/200/200 199/199/199 193/193/193
f 200/200/200 201/201/201 194/194/194
f 202/202/202 201/201/201 200/200/200
f 205/205/205 204/204/204 203/203/203
f 206/206/206 204/204/204 205/205/205
f 209/209/209 208/208/208 207/207/207
f 211/211/211 210/210/210 53/53/53
