g STW_ClockArrowBig_1
v 263.9932 210.7489 -319.2888
v 262.1664 217.1972 -320.2699
v 244.7347 202.4238 -329.6313
v 243.1537 208.6867 -330.4804
v 235.2662 202.6701 -335.6162
v 246.9293 195.2684 -329.1866
v 240.5029 215.8244 -331.1703
v 243.1537 208.6867 -330.4804
v 262.1664 217.1972 -320.2699
v 240.9256 208.4956 -326.5906
v 260.0435 217.1972 -316.3171
v 263.9932 210.7489 -319.2888
v 244.7347 202.4238 -329.6313
v 261.8705 210.7488 -315.336
v 242.4231 202.196 -325.7926
v 240.5029 215.8244 -331.1703
v 243.1537 208.6867 -330.4804
v 238.3069 215.3846 -327.2825
v 240.9256 208.4956 -326.5906
v 244.7347 202.4238 -329.6313
v 246.9293 195.2684 -329.1866
v 242.4231 202.196 -325.7926
v 244.5377 194.7688 -325.4234
v 235.2662 202.6701 -335.6162
v 240.5029 215.8244 -331.1703
v 232.9336 202.3398 -331.7978
v 238.3069 215.3846 -327.2825
v 246.9293 195.2684 -329.1866
v 235.2662 202.6701 -335.6162
v 244.5377 194.7688 -325.4234
v 232.9336 202.3398 -331.7978
v 262.1664 217.1972 -320.2699
v 263.9932 210.7489 -319.2888
v 260.0435 217.1972 -316.3171
v 261.8705 210.7488 -315.336
vt 0.698299 0.797872
vt 0.626194 0.843887
vt 0.578209 0.371569
vt 0.446631 0.41775
vt 0.440494 0.186192
vt 0.638863 0.253116
vt 0.318357 0.37159
vt 0.446631 0.41775
vt 0.626194 0.843887
vt 0.375378 0.47963
vt 0.601058 0.912816
vt 0.698299 0.797872
vt 0.578209 0.371569
vt 0.76394 0.846307
vt 0.667344 0.36779
vt 0.318357 0.37159
vt 0.446631 0.41775
vt 0.249251 0.382774
vt 0.375378 0.47963
vt 0.578209 0.371569
vt 0.638863 0.253116
vt 0.667344 0.36779
vt 0.708741 0.22061
vt 0.440494 0.186192
vt 0.318357 0.37159
vt 0.403375 0.104504
vt 0.249251 0.382774
vt 0.638863 0.253116
vt 0.440494 0.186192
vt 0.708741 0.22061
vt 0.403375 0.104504
vt 0.626194 0.843887
vt 0.698299 0.797872
vt 0.601058 0.912816
vt 0.76394 0.846307
vn 0.473127 0 -0.8809941
vn 0.4731267 0 -0.8809944
vn 0.504332 0.03299685 -0.8628791
vn 0.4997174 0.03952741 -0.8652861
vn 0.5195895 0.07667697 -0.8509685
vn 0.5330455 0.1113558 -0.8387267
vn 0.489449 0.09801684 -0.8665059
vn -0.337076 0.9298688 -0.1473896
vn -0.3325017 0.9291294 -0.1617436
vn -0.3325017 0.9291294 -0.1617436
vn -0.3278518 0.9281787 -0.1760609
vn 0.3135496 -0.9345243 0.1683775
vn 0.3228773 -0.9334046 0.1565444
vn 0.3228773 -0.9334046 0.1565444
vn 0.3321313 -0.9320718 0.1446756
vn 0.8001412 0.3445999 0.4909431
vn 0.8021265 0.3491331 0.4844576
vn 0.8021265 0.3491331 0.4844576
vn 0.8040586 0.3536431 0.4779398
vn 0.8145906 0.2813768 0.5072171
vn 0.8077279 0.2681885 0.5250242
vn 0.8077279 0.2681885 0.5250242
vn 0.8004306 0.2548559 0.542549
vn -0.7764495 0.4560838 -0.4348721
vn -0.7848826 0.4599052 -0.4152667
vn -0.7848826 0.4599052 -0.4152667
vn -0.7929468 0.4635105 -0.3954661
vn -0.3604465 -0.8669567 -0.3441867
vn -0.3761654 -0.8660917 -0.3292183
vn -0.3761654 -0.8660917 -0.3292183
vn -0.3917069 -0.8648182 -0.3140945
vn 0.8386946 0.3061398 0.4504107
vn 0.8386954 0.3061416 0.4504079
vn 0.8386954 0.3061416 0.4504079
vn 0.8386962 0.3061433 0.4504052
g STW_ClockArrowBig_1_0
f 3/3/3 2/2/2 1/1/1
f 4/4/4 2/2/2 3/3/3
f 4/4/4 3/3/3 5/5/5
f 6/6/6 5/5/5 3/3/3
f 7/7/7 4/4/4 5/5/5
f 10/10/10 9/9/9 8/8/8
f 11/11/11 9/9/9 10/10/10
f 14/14/14 13/13/13 12/12/12
f 15/15/15 13/13/13 14/14/14
f 18/18/18 17/17/17 16/16/16
f 19/19/19 17/17/17 18/18/18
f 22/22/22 21/21/21 20/20/20
f 23/23/23 21/21/21 22/22/22
f 26/26/26 25/25/25 24/24/24
f 27/27/27 25/25/25 26/26/26
f 30/30/30 29/29/29 28/28/28
f 31/31/31 29/29/29 30/30/30
f 34/34/34 33/33/33 32/32/32
f 35/35/35 33/33/33 34/34/34
