g STW_WellBucketNew_mesh
v 409.6516 126.2153 -189.5478
v 409.2291 126.2153 -192.7521
v 414.6362 126.2153 -189.0591
v 415.745 126.2153 -192.1133
v 401.819 126.2153 -189.9414
v 403.9828 126.2153 -187.3975
v 396.964 126.2153 -184.1921
v 400.2687 126.2153 -182.9993
v 396.1975 126.2153 -176.5264
v 399.6823 126.2153 -177.1351
v 399.8475 126.2153 -169.7496
v 402.4745 126.2153 -171.9508
v 405.6519 126.2153 -165.2834
v 406.9149 126.2153 -168.5342
v 413.7008 126.2153 -164.7724
v 413.0724 126.2153 -168.1433
v 421.4943 126.2153 -167.072
v 419.0344 126.2153 -169.9026
v 425.7104 126.2153 -173.9712
v 422.2597 126.2153 -175.1804
v 425.8381 126.2153 -181.6369
v 422.3574 126.2153 -181.0446
v 421.3665 126.2153 -187.8972
v 418.9366 126.2153 -185.8337
v 415.745 126.2153 -192.1133
v 409.2291 126.2153 -192.7521
v 414.9352 106.0036 -195.1243
v 408.8379 106.0036 -195.722
v 401.819 126.2153 -189.9414
v 401.9038 106.0036 -193.0919
v 396.964 126.2153 -184.1921
v 397.3606 106.0036 -187.7119
v 420.1956 106.0036 -191.179
v 421.3665 126.2153 -187.8972
v 424.3799 106.0036 -185.3208
v 425.8381 126.2153 -181.6369
v 424.2604 106.0036 -178.1476
v 425.7104 126.2153 -173.9712
v 420.3151 106.0036 -171.6916
v 421.4943 126.2153 -167.072
v 413.0223 106.0036 -169.5397
v 413.7008 126.2153 -164.7724
v 405.4904 106.0036 -170.0179
v 405.6519 126.2153 -165.2834
v 400.0588 106.0036 -174.1971
v 399.8475 126.2153 -169.7496
v 396.6433 106.0036 -180.5387
v 396.1975 126.2153 -176.5264
v 397.3606 106.0036 -187.7119
v 396.964 126.2153 -184.1921
v 396.1975 126.2153 -176.5264
v 397.3606 106.0036 -187.7119
v 409.6516 126.2153 -189.5478
v 414.6362 126.2153 -189.0591
v 409.5353 120.5963 -190.4306
v 414.4308 120.5963 -189.9507
v 418.9366 126.2153 -185.8337
v 418.6545 120.5963 -186.783
v 422.3574 126.2153 -181.0446
v 422.0142 120.5963 -182.0794
v 422.2597 126.2153 -175.1804
v 421.9182 120.5963 -176.3199
v 419.0344 126.2153 -169.9026
v 418.7505 120.5963 -171.1363
v 413.0724 126.2153 -168.1433
v 412.8949 120.5963 -169.4084
v 406.9149 126.2153 -168.5342
v 406.8474 120.5963 -169.7924
v 402.4745 126.2153 -171.9508
v 402.4864 120.5963 -173.148
v 399.6823 126.2153 -177.1351
v 399.744 120.5963 -178.2397
v 400.2687 126.2153 -182.9993
v 400.32 120.5963 -183.9992
v 403.9828 126.2153 -187.3975
v 403.9677 120.5963 -188.3188
v 400.32 120.5963 -183.9992
v 400.2687 126.2153 -182.9993
v 403.9828 126.2153 -187.3975
v 400.32 120.5963 -183.9992
v 414.4308 120.5963 -189.9507
v 403.9677 120.5963 -188.3188
v 409.5353 120.5963 -190.4306
v 418.6545 120.5963 -186.783
v 400.32 120.5963 -183.9992
v 422.0142 120.5963 -182.0794
v 399.744 120.5963 -178.2397
v 421.9182 120.5963 -176.3199
v 402.4864 120.5963 -173.148
v 418.7505 120.5963 -171.1363
v 406.8474 120.5963 -169.7924
v 412.8949 120.5963 -169.4084
vt 0.562924 0.14834
vt 0.562069 0.141857
vt 0.573008 0.149328
vt 0.575251 0.143149
vt 0.547077 0.147543
vt 0.551455 0.15269
vt 0.537255 0.159175
vt 0.543941 0.161588
vt 0.535705 0.174683
vt 0.542755 0.173452
vt 0.543089 0.188393
vt 0.548403 0.18394
vt 0.554832 0.197429
vt 0.557387 0.190852
vt 0.571116 0.198463
vt 0.569844 0.191643
vt 0.586883 0.19381
vt 0.581906 0.188084
vt 0.595412 0.179853
vt 0.588431 0.177406
vt 0.595671 0.164344
vt 0.588629 0.165542
vt 0.586624 0.151679
vt 0.581708 0.155853
vt 0.575251 0.143149
vt 0.562069 0.141857
vt 0.580828 0.130134
vt 0.568601 0.128935
vt 0.547077 0.147543
vt 0.554696 0.134209
vt 0.537255 0.159175
vt 0.540861 0.142931
vt 0.591376 0.138045
vt 0.586624 0.151679
vt 0.599767 0.149793
vt 0.595671 0.164344
vt 0.603366 0.174512
vt 0.595412 0.179853
vt 0.592502 0.197793
vt 0.586883 0.19381
vt 0.570791 0.202109
vt 0.571116 0.198463
vt 0.553915 0.20115
vt 0.554832 0.197429
vt 0.539185 0.191588
vt 0.543089 0.188393
vt 0.531154 0.173261
vt 0.535705 0.174683
vt 0.540861 0.142931
vt 0.537255 0.159175
vt 0.535705 0.174683
vt 0.540861 0.142931
vt 0.562924 0.14834
vt 0.573008 0.149328
vt 0.562962 0.149317
vt 0.573728 0.151172
vt 0.581708 0.155853
vt 0.581956 0.156384
vt 0.588629 0.165542
vt 0.587851 0.165876
vt 0.588431 0.177406
vt 0.587362 0.17248
vt 0.581906 0.188084
vt 0.582445 0.182645
vt 0.569844 0.191643
vt 0.571514 0.187018
vt 0.557387 0.190852
vt 0.559309 0.186243
vt 0.548403 0.18394
vt 0.550508 0.179471
vt 0.542755 0.173452
vt 0.544974 0.169196
vt 0.543941 0.161588
vt 0.547022 0.157868
vt 0.551455 0.15269
vt 0.552317 0.153284
vt 0.547022 0.157868
vt 0.543941 0.161588
vt 0.551455 0.15269
vt 0.547022 0.157868
vt 0.573728 0.151172
vt 0.552317 0.153284
vt 0.562962 0.149317
vt 0.581956 0.156384
vt 0.547022 0.157868
vt 0.587851 0.165876
vt 0.544974 0.169196
vt 0.587362 0.17248
vt 0.550508 0.179471
vt 0.582445 0.182645
vt 0.559309 0.186243
vt 0.571514 0.187018
vn 0 1 0
vn 0 1 0
vn 0 1 0
vn 0 1 0
vn 0 1 0
vn 0 1 0
vn 0 1 0
vn 0 1 0
vn 0 1 0
vn 0 1 0
vn 0 1 0
vn 0 1 0
vn 0 1 0
vn 0 1 0
vn 0 1 0
vn 0 1 0
vn 0 1 0
vn 0 1 0
vn 0 1 0
vn 0 1 0
vn 0 1 0
vn 0 1 0
vn 0 1 0
vn 0 1 0
vn 0.4448927 0.1144963 -0.8882349
vn -0.05386218 0.1461895 -0.9877892
vn 0.2723578 0.1310907 -0.9532242
vn -0.2065576 0.1461577 -0.9674565
vn -0.5016212 0.1311822 -0.8550833
vn -0.6420462 0.1154492 -0.7579237
vn -0.8742635 0.06658553 -0.4808635
vn -0.9557879 0.03214753 -0.2922944
vn 0.6763428 0.0797156 -0.7322608
vn 0.7489592 0.06370167 -0.6595469
vn 0.9165041 0.006779055 -0.3999678
vn 0.9808792 -0.03590278 -0.1912767
vn 0.9760258 -0.1089533 0.1884217
vn 0.9224337 -0.1404975 0.3596891
vn 0.6923268 -0.1989239 0.6936229
vn 0.4922518 -0.2211407 0.8418937
vn 0.165199 -0.2316644 0.9586661
vn 0.05134038 -0.2308981 0.9716225
vn -0.2505048 -0.2189007 0.9430429
vn -0.4369098 -0.2018397 0.8765675
vn -0.705515 -0.1593331 0.6905518
vn -0.7989213 -0.1372095 0.5855752
vn -0.9529474 -0.07911009 0.292631
vn -0.9946927 -0.04070001 0.09449764
vn -0.9557879 0.03214753 -0.2922944
vn -0.8742635 0.06658553 -0.4808635
vn -0.9946927 -0.04070001 0.09449764
vn -0.9557879 0.03214753 -0.2922944
vn 0.2062425 -0.1560479 0.9659778
vn -0.2720378 -0.1411024 0.9518853
vn 0.0537796 -0.1560815 0.986279
vn -0.444407 -0.1245276 0.8871275
vn -0.6757929 -0.08965848 0.7316182
vn -0.7484596 -0.0737531 0.6590664
vn -0.9164575 -0.01763141 0.3997433
vn -0.9812478 0.02473708 0.1911564
vn -0.9771532 0.09766502 -0.1887674
vn -0.923818 0.1292224 -0.3603637
vn -0.6938218 0.1877068 -0.6952534
vn -0.4933853 0.2102445 -0.844019
vn -0.1656048 0.221598 -0.9609731
vn -0.05147138 0.2209128 -0.9739344
vn 0.2510171 0.2086357 -0.945231
vn 0.43778 0.1914441 -0.8784634
vn 0.7066374 0.1488688 -0.6917382
vn 0.8000219 0.1266347 -0.5864543
vn 0.9536812 0.06807447 -0.2930155
vn 0.9950687 0.02954112 -0.09468797
vn 0.955428 -0.04325289 0.2920385
vn 0.8736396 -0.0775074 0.4803607
vn 0.6412665 -0.1258273 0.7569312
vn 0.500953 -0.141341 0.8538553
vn 0.8736396 -0.0775074 0.4803607
vn 0.955428 -0.04325289 0.2920385
vn 0.6412665 -0.1258273 0.7569312
vn 0.8736396 -0.0775074 0.4803607
vn 0 1 0
vn 0 1 0
vn 0 1 0
vn 0 1 0
vn 0 1 0
vn 0 1 0
vn 0 1 0
vn 0 1 0
vn 0 1 0
vn 0 1 0
vn 0 1 0
vn 0 1 0
g STW_WellBucketNew_mesh_0
f 3/3/3 2/2/2 1/1/1
f 4/4/4 2/2/2 3/3/3
f 2/2/2 5/5/5 1/1/1
f 1/1/1 5/5/5 6/6/6
f 5/5/5 7/7/7 6/6/6
f 6/6/6 7/7/7 8/8/8
f 7/7/7 9/9/9 8/8/8
f 8/8/8 9/9/9 10/10/10
f 9/9/9 11/11/11 10/10/10
f 10/10/10 11/11/11 12/12/12
f 11/11/11 13/13/13 12/12/12
f 12/12/12 13/13/13 14/14/14
f 13/13/13 15/15/15 14/14/14
f 14/14/14 15/15/15 16/16/16
f 15/15/15 17/17/17 16/16/16
f 16/16/16 17/17/17 18/18/18
f 17/17/17 19/19/19 18/18/18
f 18/18/18 19/19/19 20/20/20
f 19/19/19 21/21/21 20/20/20
f 20/20/20 21/21/21 22/22/22
f 21/21/21 23/23/23 22/22/22
f 22/22/22 23/23/23 24/24/24
f 23/23/23 4/4/4 24/24/24
f 24/24/24 4/4/4 3/3/3
f 27/27/27 26/26/26 25/25/25
f 28/28/28 26/26/26 27/27/27
f 28/28/28 29/29/29 26/26/26
f 30/30/30 29/29/29 28/28/28
f 30/30/30 31/31/31 29/29/29
f 32/32/32 31/31/31 30/30/30
f 27/27/27 25/25/25 33/33/33
f 33/33/33 25/25/25 34/34/34
f 33/33/33 34/34/34 35/35/35
f 35/35/35 34/34/34 36/36/36
f 35/35/35 36/36/36 37/37/37
f 37/37/37 36/36/36 38/38/38
f 37/37/37 38/38/38 39/39/39
f 39/39/39 38/38/38 40/40/40
f 39/39/39 40/40/40 41/41/41
f 41/41/41 40/40/40 42/42/42
f 41/41/41 42/42/42 43/43/43
f 43/43/43 42/42/42 44/44/44
f 43/43/43 44/44/44 45/45/45
f 45/45/45 44/44/44 46/46/46
f 45/45/45 46/46/46 47/47/47
f 47/47/47 46/46/46 48/48/48
f 47/47/47 48/48/48 49/49/49
f 52/52/52 51/51/51 50/50/50
f 55/55/55 54/54/54 53/53/53
f 56/56/56 54/54/54 55/55/55
f 56/56/56 57/57/57 54/54/54
f 58/58/58 57/57/57 56/56/56
f 58/58/58 59/59/59 57/57/57
f 60/60/60 59/59/59 58/58/58
f 60/60/60 61/61/61 59/59/59
f 62/62/62 61/61/61 60/60/60
f 62/62/62 63/63/63 61/61/61
f 64/64/64 63/63/63 62/62/62
f 64/64/64 65/65/65 63/63/63
f 66/66/66 65/65/65 64/64/64
f 66/66/66 67/67/67 65/65/65
f 68/68/68 67/67/67 66/66/66
f 68/68/68 69/69/69 67/67/67
f 70/70/70 69/69/69 68/68/68
f 70/70/70 71/71/71 69/69/69
f 72/72/72 71/71/71 70/70/70
f 72/72/72 73/73/73 71/71/71
f 74/74/74 73/73/73 72/72/72
f 76/76/76 53/53/53 75/75/75
f 55/55/55 53/53/53 76/76/76
f 76/76/76 75/75/75 77/77/77
f 80/80/80 79/79/79 78/78/78
f 83/83/83 82/82/82 81/81/81
f 84/84/84 81/81/81 82/82/82
f 85/85/85 84/84/84 82/82/82
f 86/86/86 84/84/84 85/85/85
f 87/87/87 86/86/86 85/85/85
f 88/88/88 86/86/86 87/87/87
f 89/89/89 88/88/88 87/87/87
f 90/90/90 88/88/88 89/89/89
f 91/91/91 90/90/90 89/89/89
f 92/92/92 90/90/90 91/91/91
