g STW_TableTop_mesh
v 1938.126 0 133.5831
v -325.8167 0 133.5831
v 1269.182 0 -210.3379
v 344.0555 0 -210.3379
v -325.8167 0 -1494.672
v 344.0555 0 -971.9508
v 1938.126 0 -1494.672
v 1269.182 0 -971.9508
vt 0.997603 0.722721
vt 0.002396 0.722721
vt 0.703542 0.571537
vt 0.296866 0.571537
vt 0.002396 0.006957
vt 0.296866 0.23674
vt 0.997603 0.006957
vt 0.703542 0.23674
vn 0 1 0
vn 0 1 0
vn 0 1 0
vn 0 1 0
vn 0 1 0
vn 0 1 0
vn 0 1 0
vn 0 1 0
g STW_TableTop_mesh_0
f 3/3/3 2/2/2 1/1/1
f 4/4/4 2/2/2 3/3/3
f 4/4/4 5/5/5 2/2/2
f 6/6/6 5/5/5 4/4/4
f 3/3/3 6/6/6 4/4/4
f 7/7/7 3/3/3 1/1/1
f 8/8/8 3/3/3 7/7/7
f 5/5/5 8/8/8 7/7/7
f 6/6/6 8/8/8 5/5/5
f 8/8/8 6/6/6 3/3/3
