g Sword1_a
v 114.3069 168.7468 -107.389
v 93.73759 153.6158 -98.61217
v 104.1855 87.64191 -155.5029
v 114.3069 168.7468 -107.389
v 104.1855 87.64191 -155.5029
v 138.601 161.3412 -102.3376
v 118.6612 85.73108 -155.6654
v 104.1855 87.64191 -155.5029
v 93.73759 153.6158 -98.61217
v 98.01362 81.96357 -145.2695
v 118.5567 165.9643 -85.32794
v 97.65666 165.4585 -86.37799
v 97.3717 177.912 -107.5255
v 94.96539 176.4991 -105.3021
v 120.0016 179.9099 -109.4589
v 140.6878 162.5003 -89.81007
v 140.5425 174.8039 -111.6067
v 142.2831 163.4771 -92.33657
v 142.2831 163.4771 -92.33657
v 141.8541 173.8283 -110.584
v 140.5425 174.8039 -111.6067
v 120.0016 179.9099 -109.4589
v 140.9204 169.3319 -115.489
v 120.6477 174.2385 -113.1321
v 97.3717 177.912 -107.5255
v 98.01772 172.2406 -111.1987
v 143.7385 167.6468 -113.9825
v 141.8541 173.8283 -110.584
v 141.8541 173.8283 -110.584
v 143.7385 167.6468 -113.9825
v 142.2831 163.4771 -92.33657
v 142.2831 163.4771 -92.33657
v 142.9291 157.8057 -96.00974
v 118.1932 177.7912 -96.2126
v 122.2467 176.2665 -93.78668
v 117.9662 196.3808 -79.72115
v 122.9133 194.52 -76.76048
v 111.9131 196.1425 -79.78545
v 113.2335 177.596 -96.26527
v 107.066 193.8962 -76.92881
v 109.2618 175.7554 -93.92461
v 123.8456 173.6043 -89.91416
v 124.8646 191.271 -72.03431
v 125.6844 174.6241 -97.82005
v 119.8947 176.5947 -101.8323
v 112.5935 176.4846 -102.138
v 125.837 171.3696 -100.1204
v 120.0472 173.3402 -104.1326
v 112.7461 173.2301 -104.4383
v 106.5504 174.3366 -98.62284
v 109.2618 175.7554 -93.92461
v 107.7954 172.9725 -90.08463
v 104.0937 170.9622 -92.61142
v 106.7029 171.0821 -100.9232
v 127.8787 168.0629 -93.91962
v 127.7262 171.3174 -91.61929
v 123.8456 173.6043 -89.91416
v 125.3806 164.7099 -87.93513
v 125.2281 167.9644 -85.6348
v 123.8456 173.6043 -89.91416
v 122.3791 170.8214 -86.0742
v 123.0749 187.8746 -67.34786
v 107.7954 172.9725 -90.08463
v 109.3943 170.3103 -86.21211
v 104.0937 170.9622 -92.61142
v 125.2281 167.9644 -85.6348
v 123.8456 173.6043 -89.91416
v 127.7262 171.3174 -91.61929
v 122.3791 170.8214 -86.0742
v 123.8456 173.6043 -89.91416
v 125.2281 167.9644 -85.6348
v 104.0937 170.9622 -92.61142
v 109.3943 170.3103 -86.21211
v 106.1802 167.6759 -86.4323
v 109.3943 170.3103 -86.21211
v 113.4477 168.7856 -83.78619
v 106.1802 167.6759 -86.4323
v 106.1802 167.6759 -86.4323
v 113.4477 168.7856 -83.78619
v 111.9557 165.7386 -82.4593
v 113.4477 168.7856 -83.78619
v 118.4075 168.9808 -83.73352
v 111.9557 165.7386 -82.4593
v 111.9557 165.7386 -82.4593
v 118.4075 168.9808 -83.73352
v 119.2044 165.8493 -82.1568
v 122.3791 170.8214 -86.0742
v 119.2044 165.8493 -82.1568
v 122.3791 170.8214 -86.0742
v 125.2281 167.9644 -85.6348
v 107.7954 172.9725 -90.08463
v 109.2618 175.7554 -93.92461
v 105.2763 190.4998 -72.24237
v 107.066 193.8962 -76.92881
v 107.2276 187.2507 -67.5162
v 107.7954 172.9725 -90.08463
v 105.2763 190.4998 -72.24237
v 109.3943 170.3103 -86.21211
v 112.1747 185.3899 -64.5555
v 109.3943 170.3103 -86.21211
v 107.2276 187.2507 -67.5162
v 113.4477 168.7856 -83.78619
v 118.2278 185.6283 -64.4912
v 118.4075 168.9808 -83.73352
v 123.0749 187.8746 -67.34786
v 122.3791 170.8214 -86.0742
v 106.5504 174.3366 -98.62284
v 104.0937 170.9622 -92.61142
v 106.7029 171.0821 -100.9232
v 104.2462 167.7077 -94.91174
v 104.0937 170.9622 -92.61142
v 106.1802 167.6759 -86.4323
v 106.3328 164.4215 -88.73262
v 106.1802 167.6759 -86.4323
v 111.9557 165.7386 -82.4593
v 106.3328 164.4215 -88.73262
v 112.1082 162.4842 -84.75962
v 111.9557 165.7386 -82.4593
v 119.2044 165.8493 -82.1568
v 112.1082 162.4842 -84.75962
v 119.3569 162.5948 -84.45715
v 119.2044 165.8493 -82.1568
v 125.2281 167.9644 -85.6348
v 119.3569 162.5948 -84.45715
v 125.3806 164.7099 -87.93513
v 131.1774 210.9713 -76.59669
v 131.281 201.1434 -84.29929
v 134.2351 199.6027 -60.77572
v 133.2806 190.4926 -69.09799
v 131.1774 210.9713 -76.59669
v 134.2351 199.6027 -60.77572
v 116.6732 210.982 -75.00639
v 119.7444 199.9498 -60.28182
v 103.5539 208.6816 -75.18898
v 106.5291 200.2663 -59.83142
v 103.5539 208.6816 -75.18898
v 104.0471 197.6666 -81.18631
v 116.6732 210.982 -75.00639
v 117.0372 199.325 -82.67114
v 131.1774 210.9713 -76.59669
v 131.281 201.1434 -84.29929
v 114.4026 206.5101 -69.1566
v 119.1919 206.5101 -69.1566
v 112.6495 209.3961 -65.52587
v 120.9449 209.3961 -65.52587
v 108.5019 202.2185 -65.82823
v 112.0079 202.3661 -69.33118
v 121.5866 202.3661 -69.33118
v 125.0926 202.2185 -65.82824
v 119.1919 198.222 -69.50574
v 120.9449 195.0408 -66.1306
v 112.0079 210.3049 -60.69402
v 121.5866 210.3049 -60.69401
v 121.5866 210.3049 -60.69401
v 107.2186 202.0169 -61.04317
v 112.0079 210.3049 -60.69402
v 126.3759 202.0169 -61.04317
v 116.7972 202.42 -70.61333
v 114.4026 198.222 -69.50573
v 112.0079 210.3049 -60.69402
v 121.5866 210.3049 -60.69401
v 112.6495 208.993 -55.9557
v 120.9449 208.993 -55.9557
v 114.4026 205.8118 -52.58057
v 119.1919 205.8118 -52.58057
v 125.0926 201.8153 -56.25808
v 126.3759 202.0169 -61.04317
v 121.5866 210.3049 -60.69401
v 121.5866 201.6678 -52.75514
v 116.7972 201.6138 -51.47298
v 107.2186 202.0169 -61.04317
v 112.0079 210.3049 -60.69402
v 108.5019 201.8153 -56.25808
v 112.6495 208.993 -55.9557
v 114.4026 198.222 -69.50573
v 112.0079 202.3661 -69.33118
v 112.6495 195.0408 -66.1306
v 108.5019 202.2185 -65.82823
v 120.9449 195.0408 -66.1306
v 119.1919 198.222 -69.50574
v 112.0079 193.7289 -61.39232
v 107.2186 202.0169 -61.04317
v 121.5866 193.7289 -61.39232
v 112.0079 193.7289 -61.39232
v 116.7972 202.42 -70.61333
v 126.3759 202.0169 -61.04317
v 120.9449 195.0408 -66.1306
v 121.5866 193.7289 -61.39232
v 125.0926 202.2185 -65.82824
v 112.0079 193.7289 -61.39232
v 107.2186 202.0169 -61.04317
v 112.6495 194.6377 -56.56045
v 108.5019 201.8153 -56.25808
v 114.4026 197.5237 -52.92972
v 112.0079 201.6678 -52.75514
v 112.6495 208.993 -55.9557
v 114.4026 205.8118 -52.58057
v 119.1919 197.5237 -52.92972
v 120.9449 194.6377 -56.56042
v 112.0079 193.7289 -61.39232
v 121.5866 193.7289 -61.39232
v 121.5866 201.6678 -52.75514
v 125.0926 201.8153 -56.25808
v 121.5866 193.7289 -61.39232
v 126.3759 202.0169 -61.04317
v 116.7972 201.6138 -51.47298
v 119.1919 205.8118 -52.58057
vt 0.430459 0.417797
vt 0.377871 0.435842
vt 0.479752 0.204736
vt 0.430459 0.417797
vt 0.479752 0.204736
vt 0.519176 0.42918
vt 0.528301 0.203029
vt 0.479752 0.204736
vt 0.377871 0.435842
vt 0.465491 0.234156
vt 0.447567 0.489438
vt 0.378291 0.485541
vt 0.363938 0.424144
vt 0.357389 0.430555
vt 0.43785 0.419135
vt 0.524972 0.471823
vt 0.512089 0.408142
vt 0.529316 0.464137
vt 0.529316 0.464137
vt 0.517475 0.410852
vt 0.512089 0.408142
vt 0.43785 0.419135
vt 0.518885 0.391131
vt 0.445953 0.402611
vt 0.363938 0.424144
vt 0.372224 0.407622
vt 0.530003 0.394942
vt 0.517475 0.410852
vt 0.517475 0.410852
vt 0.530003 0.394942
vt 0.529316 0.464137
vt 0.529316 0.464137
vt 0.537125 0.447621
vt 0.433998 0.462048
vt 0.449202 0.469028
vt 0.413539 0.532205
vt 0.432268 0.540735
vt 0.393293 0.531796
vt 0.417547 0.461723
vt 0.379312 0.539664
vt 0.406166 0.468174
vt 0.457334 0.479975
vt 0.442298 0.554096
vt 0.462442 0.454246
vt 0.440965 0.442273
vt 0.416574 0.441164
vt 0.466319 0.44408
vt 0.444877 0.432115
vt 0.420522 0.431009
vt 0.398579 0.451336
vt 0.406166 0.468174
vt 0.404203 0.478918
vt 0.393941 0.468914
vt 0.40255 0.441175
vt 0.476555 0.46233
vt 0.472699 0.472507
vt 0.457334 0.479975
vt 0.471651 0.479767
vt 0.467794 0.489955
vt 0.457334 0.479975
vt 0.455309 0.490692
vt 0.43983 0.567163
vt 0.404203 0.478918
vt 0.412377 0.489836
vt 0.393941 0.468914
vt 0.467794 0.489955
vt 0.457334 0.479975
vt 0.472699 0.472507
vt 0.455309 0.490692
vt 0.457334 0.479975
vt 0.467794 0.489955
vt 0.393941 0.468914
vt 0.412377 0.489836
vt 0.404412 0.487067
vt 0.412377 0.489836
vt 0.427545 0.496773
vt 0.404412 0.487067
vt 0.404412 0.487067
vt 0.427545 0.496773
vt 0.425752 0.498846
vt 0.427545 0.496773
vt 0.443931 0.4971
vt 0.425752 0.498846
vt 0.425752 0.498846
vt 0.443931 0.4971
vt 0.44985 0.499942
vt 0.455309 0.490692
vt 0.44985 0.499942
vt 0.455309 0.490692
vt 0.467794 0.489955
vt 0.404203 0.478918
vt 0.406166 0.468174
vt 0.376939 0.552769
vt 0.379312 0.539664
vt 0.387033 0.566087
vt 0.404203 0.478918
vt 0.376939 0.552769
vt 0.412377 0.489836
vt 0.405706 0.574553
vt 0.412377 0.489836
vt 0.387033 0.566087
vt 0.427545 0.496773
vt 0.425854 0.574964
vt 0.443931 0.4971
vt 0.43983 0.567163
vt 0.455309 0.490692
vt 0.398579 0.451336
vt 0.393941 0.468914
vt 0.40255 0.441175
vt 0.397912 0.458743
vt 0.393941 0.468914
vt 0.404412 0.487067
vt 0.408362 0.476884
vt 0.404412 0.487067
vt 0.425752 0.498846
vt 0.408362 0.476884
vt 0.429667 0.488655
vt 0.425752 0.498846
vt 0.44985 0.499942
vt 0.429667 0.488655
vt 0.45373 0.489749
vt 0.44985 0.499942
vt 0.467794 0.489955
vt 0.45373 0.489749
vt 0.471651 0.479767
vt 0.442893 0.55463
vt 0.453637 0.520489
vt 0.465279 0.599057
vt 0.471547 0.563385
vt 0.442893 0.55463
vt 0.465279 0.599057
vt 0.393422 0.560061
vt 0.415752 0.601022
vt 0.351226 0.557556
vt 0.370571 0.602814
vt 0.351226 0.557556
vt 0.36499 0.52827
vt 0.393422 0.560061
vt 0.407238 0.524561
vt 0.442893 0.55463
vt 0.453637 0.520489
vt 0.390538 0.576311
vt 0.406836 0.576311
vt 0.381431 0.591068
vt 0.409698 0.591068
vt 0.375141 0.58408
vt 0.386888 0.572304
vt 0.419422 0.572304
vt 0.431488 0.584079
vt 0.415725 0.568312
vt 0.425053 0.577137
vt 0.378253 0.608297
vt 0.410906 0.608297
vt 0.410906 0.608297
vt 0.371002 0.600163
vt 0.378253 0.608297
vt 0.43606 0.600163
vt 0.403097 0.567993
vt 0.399489 0.568312
vt 0.378253 0.608297
vt 0.410906 0.608297
vt 0.38187 0.623337
vt 0.410132 0.623337
vt 0.391294 0.632125
vt 0.407587 0.632125
vt 0.431916 0.616243
vt 0.43606 0.600163
vt 0.410906 0.608297
vt 0.420169 0.628013
vt 0.403965 0.63232
vt 0.371002 0.600163
vt 0.378253 0.608297
vt 0.37558 0.616243
vt 0.38187 0.623337
vt 0.399489 0.568312
vt 0.386888 0.572304
vt 0.396973 0.577137
vt 0.375141 0.58408
vt 0.425053 0.577137
vt 0.415725 0.568312
vt 0.396212 0.59209
vt 0.371002 0.600163
vt 0.428617 0.59209
vt 0.396212 0.59209
vt 0.403097 0.567993
vt 0.43606 0.600163
vt 0.425053 0.577137
vt 0.428617 0.59209
vt 0.431488 0.584079
vt 0.396212 0.59209
vt 0.371002 0.600163
vt 0.397406 0.609196
vt 0.37558 0.616243
vt 0.40024 0.623916
vt 0.387645 0.628013
vt 0.38187 0.623337
vt 0.391294 0.632125
vt 0.416471 0.623916
vt 0.425482 0.609196
vt 0.396212 0.59209
vt 0.428617 0.59209
vt 0.420169 0.628013
vt 0.431916 0.616243
vt 0.428617 0.59209
vt 0.43606 0.600163
vt 0.403965 0.63232
vt 0.407587 0.632125
vn -0.1701066 0.5183886 -0.8380555
vn -0.7663647 0.3456008 -0.5415213
vn -0.3301703 0.499738 -0.8007807
vn -0.1701066 0.5183886 -0.8380555
vn -0.08554194 0.5383452 -0.8383717
vn 0.1904266 0.5142978 -0.836203
vn 0.06515718 0.5636086 -0.8234682
vn -0.7663647 0.3456008 -0.5415213
vn -0.7663647 0.3456008 -0.5415213
vn -0.8844773 0.2163892 -0.4133711
vn 0.05088237 0.8614847 0.5052278
vn -0.04146281 0.8607022 0.5074176
vn -0.03893496 0.8625488 0.5044736
vn -0.0366097 0.8608942 0.5074652
vn 0.1535271 0.8557243 0.4941309
vn 0.2421568 0.8417913 0.4824392
vn 0.2512302 0.8439111 0.4740226
vn 0.2474434 0.844892 0.4742671
vn 0.5539333 0.7294262 0.4013667
vn 0.7073535 0.6218339 0.3361154
vn 0.4981291 0.5462686 -0.673393
vn -0.008143623 0.5540961 -0.8324128
vn 0.2485607 0.5602713 -0.7901352
vn -0.06758488 0.53693 -0.8409153
vn -0.1185368 0.5302277 -0.8395282
vn -0.1185369 0.5302274 -0.8395284
vn 0.9051688 0.3453128 -0.2478472
vn 0.9031563 0.3825018 -0.1949388
vn 0.7809373 0.6231953 0.04200669
vn 0.9051688 0.3453128 -0.2478472
vn 0.8600491 0.4413016 0.2560633
vn 0.9843251 0.1487008 0.09482792
vn 0.9949385 0.06224279 0.07888731
vn 0.2295592 0.8621089 -0.4517419
vn 0.6846642 0.7027909 -0.1931834
vn 0.3918998 0.6132182 -0.6858411
vn 0.8595128 0.331493 -0.3890373
vn -0.2215871 0.6388545 -0.7367252
vn -0.3185047 0.8287802 -0.4600849
vn -0.7510961 0.4006719 -0.5247062
vn -0.7638277 0.6099179 -0.2111098
vn 0.929485 0.3472253 0.1244679
vn 0.9940943 -0.0999997 0.04215076
vn 0.731379 0.6559737 -0.1865028
vn 0.2923975 0.8259535 -0.4819797
vn -0.2551614 0.8252913 -0.5037726
vn 0.7553143 0.4015108 -0.5179666
vn 0.228164 0.5690773 -0.7899951
vn -0.3832029 0.5210862 -0.7626433
vn -0.7086021 0.6598366 -0.2499975
vn -0.5791496 0.799691 -0.1583668
vn -0.797842 0.5668449 0.2052683
vn -0.8430361 0.5100557 0.1706846
vn -0.8530759 0.2739184 -0.4441062
vn 0.9960491 0.0774252 -0.04349163
vn 0.8837696 0.3766784 0.2776051
vn 0.8147355 0.5351905 0.2231081
vn 0.8499183 -0.2769871 0.4482376
vn 0.7391259 0.01973752 0.673278
vn 0.9754704 0.2083978 0.07090759
vn 0.8694426 -0.3809259 0.314587
vn 0.7445926 -0.5070809 0.4341092
vn -0.9351556 0.282281 0.2140123
vn -0.7178623 0.3338665 0.6109066
vn -0.9000913 0.3936014 0.1868514
vn 0.6512898 0.4027519 0.643127
vn 0.8832328 0.4101077 0.2274013
vn 0.8837696 0.3766784 0.2776051
vn 0.3679184 0.5174758 0.7725637
vn 0.5646924 0.6557578 0.5011032
vn 0.6512898 0.4027519 0.643127
vn -0.7669241 0.474296 0.4322852
vn -0.5405006 0.5055796 0.6724942
vn -0.7493331 0.2655761 0.6066047
vn -0.5405006 0.5055796 0.6724942
vn -0.2556455 0.4411239 0.8602645
vn -0.5346218 0.2973748 0.7910422
vn -0.4380146 0.520463 0.7329813
vn -0.2556455 0.4411239 0.8602645
vn -0.1460053 0.4619729 0.8747934
vn -0.2556455 0.4411239 0.8602645
vn 0.06578376 0.4505752 0.8903115
vn -0.1297216 0.2236853 0.9659904
vn -0.1460053 0.4619729 0.8747934
vn 0.06578376 0.4505752 0.8903115
vn 0.1837728 0.4653265 0.8658515
vn 0.3679184 0.5174758 0.7725637
vn 0.3105211 0.2578291 0.9149321
vn 0.3679184 0.5174758 0.7725637
vn 0.5890816 0.163038 0.7914553
vn -0.9351556 0.282281 0.2140123
vn -0.8233582 0.5164511 -0.235286
vn -0.9919307 -0.01433326 -0.1259685
vn -0.7510961 0.4006719 -0.5247062
vn -0.8448611 -0.4415009 0.3021366
vn -0.9819366 -0.005503268 0.1891297
vn -0.9919307 -0.01433326 -0.1259685
vn -0.7845544 -0.3302355 0.5248038
vn -0.3785392 -0.7128245 0.5904145
vn -0.712813 -0.5588516 0.4237717
vn -0.8448611 -0.4415009 0.3021366
vn -0.177372 -0.7506768 0.6364146
vn 0.2220851 -0.7363446 0.6391203
vn 0.4203781 -0.6842429 0.5958974
vn 0.7445926 -0.5070809 0.4341092
vn 0.8694426 -0.3809259 0.314587
vn -0.7086021 0.6598366 -0.2499975
vn -0.9418594 0.3207469 0.1001115
vn -0.8530759 0.2739184 -0.4441062
vn -0.9954594 -0.08146255 0.049239
vn -0.9421235 0.286321 0.174424
vn -0.8845454 -0.06860594 0.4613814
vn -0.7518435 -0.4037063 0.5212989
vn -0.8229228 -0.1428458 0.549903
vn -0.4269508 -0.5352002 0.7288853
vn -0.7518435 -0.4037063 0.5212989
vn -0.2266444 -0.569234 0.7903194
vn -0.363433 -0.3273083 0.8722304
vn 0.1771786 -0.5625111 0.8075823
vn -0.2266444 -0.569234 0.7903194
vn 0.3806936 -0.5217685 0.7634331
vn 0.2401975 -0.3367739 0.9104331
vn 0.6769812 -0.1815166 0.713266
vn 0.3806936 -0.5217685 0.7634331
vn 0.8499183 -0.2769871 0.4482376
vn 0.9878 0.1023779 -0.1173458
vn 0.9911008 0.05590728 -0.1208039
vn 0.9911008 0.05590728 -0.1208039
vn 0.9922387 0.009314614 -0.1239984
vn 0.06356233 0.81622 0.574234
vn 0.05153218 0.810025 0.5841266
vn -0.01397843 0.8026729 0.5962557
vn -0.02283807 0.8254477 0.5640165
vn -0.05420212 0.8348144 0.5478568
vn 0.03723959 0.8793861 0.4746507
vn -0.07099647 0.4745249 -0.8773743
vn -0.1173394 0.5074576 -0.85365
vn -0.1085708 0.5201784 -0.8471286
vn -0.1403769 0.5643856 -0.8134882
vn -0.1288564 0.5770767 -0.8064605
vn -0.1663274 0.6071835 -0.7769579
vn -0.3392748 0.4587646 -0.8212354
vn 0.1973778 0.5406162 -0.8177874
vn -0.4490696 0.7566429 -0.4752137
vn 0.4128362 0.7775446 -0.4743318
vn -0.8619047 0.0004227052 -0.5070701
vn -0.536653 -0.04650405 -0.8425205
vn 0.5366539 0.1171983 -0.8356239
vn 0.861905 0.04222462 -0.5053087
vn 0.3392741 -0.3880721 -0.856909
vn 0.4490689 -0.7139949 -0.537167
vn -0.2382269 0.9673024 -0.08702927
vn 0.3967981 0.9177906 -0.01454516
vn 0.714681 0.6924647 -0.09860802
vn -0.9529074 0.280209 -0.115976
vn -0.5951972 0.8033463 -0.01936493
vn 0.9919944 0.1166825 -0.04829579
vn 0 0.0420879 -0.9991139
vn -0.1973795 -0.4699222 -0.8603572
vn -0.3967982 0.9133155 0.09168398
vn 0.2382269 0.9565555 0.1680759
vn -0.4128365 0.7348966 0.5380456
vn 0.4490691 0.7139968 0.5371644
vn -0.1973784 0.4699229 0.860357
vn 0.3392742 0.3880717 0.8569092
vn 0.8619052 -0.042224 0.5053084
vn 0.9529074 0.2694638 0.1391284
vn 0.5951973 0.7988712 0.08686128
vn 0.5366524 -0.1171981 0.8356248
vn 0 -0.04208931 0.9991139
vn -0.9919947 0.1122054 0.05793433
vn -0.714681 0.6817181 0.1564977
vn -0.8619052 -0.0004243225 0.5070692
vn -0.4128365 0.7348966 0.5380456
vn -0.1973795 -0.4699222 -0.8603572
vn -0.536653 -0.04650405 -0.8425205
vn -0.412836 -0.7348962 -0.5380465
vn -0.8619047 0.0004227052 -0.5070701
vn 0.4490689 -0.7139949 -0.537167
vn 0.3392741 -0.3880721 -0.856909
vn -0.7146799 -0.6817192 -0.1564978
vn -0.9919943 -0.112208 -0.05793688
vn 0.2382267 -0.9565557 -0.168075
vn -0.3967979 -0.9133158 -0.0916825
vn 0 0.0420879 -0.9991139
vn 0.952907 -0.2694629 -0.1391329
vn 0.4490689 -0.7139949 -0.537167
vn 0.5951966 -0.7988717 -0.08686152
vn 0.861905 0.04222462 -0.5053087
vn -0.5951964 -0.8033469 0.0193655
vn -0.9529069 -0.2802116 0.1159738
vn -0.4490693 -0.7566438 0.4752125
vn -0.8619052 -0.0004243225 0.5070692
vn -0.3392744 -0.4587663 0.8212346
vn -0.5366538 0.0465032 0.8425202
vn -0.4128365 0.7348966 0.5380456
vn -0.1973784 0.4699229 0.860357
vn 0.1973773 -0.5406165 0.8177872
vn 0.4128348 -0.7775444 0.4743334
vn -0.2382267 -0.9673024 0.08702964
vn 0.3967977 -0.9177908 0.01454527
vn 0.5366524 -0.1171981 0.8356248
vn 0.8619052 -0.042224 0.5053084
vn 0.7146804 -0.6924656 0.09860749
vn 0.9919949 -0.1166807 0.04829044
vn 0 -0.04208931 0.9991139
vn 0.3392742 0.3880717 0.8569092
g Sword1_a_0
f 3/3/3 2/2/2 1/1/1
f 6/6/6 5/5/5 4/4/4
f 7/7/7 5/5/5 6/6/6
f 10/10/10 9/9/9 8/8/8
f 13/13/13 12/12/12 11/11/11
f 14/14/14 12/12/12 13/13/13
f 15/15/15 13/13/13 11/11/11
f 16/16/16 15/15/15 11/11/11
f 17/17/17 15/15/15 16/16/16
f 18/18/18 17/17/17 16/16/16
f 20/20/20 17/17/17 19/19/19
f 23/23/23 22/22/22 21/21/21
f 24/24/24 22/22/22 23/23/23
f 24/24/24 25/25/25 22/22/22
f 26/26/26 25/25/25 24/24/24
f 23/23/23 21/21/21 27/27/27
f 27/27/27 21/21/21 28/28/28
f 31/31/31 30/30/30 29/29/29
f 33/33/33 30/30/30 32/32/32
f 36/36/36 35/35/35 34/34/34
f 37/37/37 35/35/35 36/36/36
f 36/36/36 34/34/34 38/38/38
f 38/38/38 34/34/34 39/39/39
f 38/38/38 39/39/39 40/40/40
f 40/40/40 39/39/39 41/41/41
f 37/37/37 42/42/42 35/35/35
f 43/43/43 42/42/42 37/37/37
f 44/44/44 34/34/34 35/35/35
f 45/45/45 34/34/34 44/44/44
f 45/45/45 39/39/39 34/34/34
f 46/46/46 39/39/39 45/45/45
f 46/46/46 41/41/41 39/39/39
f 47/47/47 45/45/45 44/44/44
f 48/48/48 45/45/45 47/47/47
f 48/48/48 46/46/46 45/45/45
f 49/49/49 46/46/46 48/48/48
f 49/49/49 50/50/50 46/46/46
f 50/50/50 51/51/51 46/46/46
f 50/50/50 52/52/52 41/41/41
f 53/53/53 52/52/52 50/50/50
f 54/54/54 50/50/50 49/49/49
f 47/47/47 44/44/44 55/55/55
f 55/55/55 44/44/44 56/56/56
f 44/44/44 35/35/35 56/56/56
f 56/56/56 35/35/35 57/57/57
f 55/55/55 56/56/56 58/58/58
f 58/58/58 56/56/56 59/59/59
f 43/43/43 61/61/61 60/60/60
f 62/62/62 61/61/61 43/43/43
f 65/65/65 64/64/64 63/63/63
f 68/68/68 67/67/67 66/66/66
f 71/71/71 70/70/70 69/69/69
f 74/74/74 73/73/73 72/72/72
f 77/77/77 76/76/76 75/75/75
f 80/80/80 79/79/79 78/78/78
f 83/83/83 82/82/82 81/81/81
f 86/86/86 85/85/85 84/84/84
f 86/86/86 87/87/87 85/85/85
f 90/90/90 89/89/89 88/88/88
f 93/93/93 92/92/92 91/91/91
f 94/94/94 92/92/92 93/93/93
f 97/97/97 96/96/96 95/95/95
f 95/95/95 96/96/96 98/98/98
f 101/101/101 100/100/100 99/99/99
f 99/99/99 100/100/100 102/102/102
f 99/99/99 102/102/102 103/103/103
f 103/103/103 102/102/102 104/104/104
f 103/103/103 104/104/104 105/105/105
f 105/105/105 104/104/104 106/106/106
f 109/109/109 108/108/108 107/107/107
f 110/110/110 108/108/108 109/109/109
f 110/110/110 112/112/112 111/111/111
f 113/113/113 112/112/112 110/110/110
f 116/116/116 115/115/115 114/114/114
f 117/117/117 115/115/115 116/116/116
f 120/120/120 119/119/119 118/118/118
f 121/121/121 119/119/119 120/120/120
f 124/124/124 123/123/123 122/122/122
f 125/125/125 123/123/123 124/124/124
f 128/128/128 127/127/127 126/126/126
f 129/129/129 127/127/127 128/128/128
f 132/132/132 131/131/131 130/130/130
f 133/133/133 131/131/131 132/132/132
f 134/134/134 133/133/133 132/132/132
f 135/135/135 133/133/133 134/134/134
f 138/138/138 137/137/137 136/136/136
f 139/139/139 137/137/137 138/138/138
f 140/140/140 139/139/139 138/138/138
f 141/141/141 139/139/139 140/140/140
f 144/144/144 143/143/143 142/142/142
f 145/145/145 143/143/143 144/144/144
f 144/144/144 142/142/142 146/146/146
f 146/146/146 142/142/142 147/147/147
f 145/145/145 148/148/148 143/143/143
f 149/149/149 148/148/148 145/145/145
f 149/149/149 150/150/150 148/148/148
f 151/151/151 150/150/150 149/149/149
f 152/152/152 145/145/145 144/144/144
f 153/153/153 145/145/145 152/152/152
f 154/154/154 149/149/149 145/145/145
f 155/155/155 144/144/144 146/146/146
f 156/156/156 144/144/144 155/155/155
f 157/157/157 149/149/149 154/154/154
f 158/158/158 148/148/148 150/150/150
f 158/158/158 143/143/143 148/148/148
f 158/158/158 142/142/142 143/143/143
f 158/158/158 147/147/147 142/142/142
f 158/158/158 159/159/159 147/147/147
f 162/162/162 161/161/161 160/160/160
f 163/163/163 161/161/161 162/162/162
f 164/164/164 163/163/163 162/162/162
f 165/165/165 163/163/163 164/164/164
f 165/165/165 166/166/166 163/163/163
f 166/166/166 167/167/167 163/163/163
f 163/163/163 167/167/167 168/168/168
f 169/169/169 166/166/166 165/165/165
f 170/170/170 165/165/165 164/164/164
f 173/173/173 172/172/172 171/171/171
f 174/174/174 172/172/172 173/173/173
f 177/177/177 176/176/176 175/175/175
f 178/178/178 176/176/176 177/177/177
f 177/177/177 175/175/175 179/179/179
f 179/179/179 175/175/175 180/180/180
f 181/181/181 178/178/178 177/177/177
f 182/182/182 178/178/178 181/181/181
f 183/183/183 177/177/177 179/179/179
f 184/184/184 177/177/177 183/183/183
f 185/185/185 180/180/180 175/175/175
f 188/188/188 187/187/187 186/186/186
f 186/186/186 187/187/187 189/189/189
f 192/192/192 191/191/191 190/190/190
f 193/193/193 191/191/191 192/192/192
f 194/194/194 193/193/193 192/192/192
f 195/195/195 193/193/193 194/194/194
f 195/195/195 196/196/196 193/193/193
f 197/197/197 196/196/196 195/195/195
f 194/194/194 192/192/192 198/198/198
f 198/198/198 192/192/192 199/199/199
f 192/192/192 200/200/200 199/199/199
f 199/199/199 200/200/200 201/201/201
f 198/198/198 199/199/199 202/202/202
f 202/202/202 199/199/199 203/203/203
f 199/199/199 204/204/204 203/203/203
f 203/203/203 204/204/204 205/205/205
f 206/206/206 195/195/195 194/194/194
f 206/206/206 194/194/194 198/198/198
f 206/206/206 198/198/198 202/202/202
f 206/206/206 197/197/197 195/195/195
f 206/206/206 202/202/202 207/207/207
