g Sword2_a
v 109.3415 117.5139 -151.0148
v 100.7071 177.6563 -172.1189
v 119.0827 118.492 -165.2738
v 107.313 177.8191 -189.0446
v 88.00336 185.1167 -161.0742
v 110.6654 124.3532 -141.4105
v 106.5753 70.09539 -131.7017
v 119.2435 77.91943 -153.5351
v 91.71558 196.8349 -182.7709
v 81.2421 198.973 -165.3906
v 103.1253 192.3308 -197.0029
v 88.03657 203.8014 -169.3832
v 82.81165 200.1104 -158.0226
v 83.97569 212.8236 -170.9256
v 80.45786 206.2004 -158.7483
v 94.48095 203.8379 -180.0079
v 90.91795 216.3485 -183.6043
v 95.98971 213.4782 -190.1131
v 98.27979 199.5009 -183.6098
v 101.7923 195.4909 -186.9402
v 100.1337 206.0881 -194.035
v 108.8443 185.0572 -192.661
v 109.38 190.8237 -198.6666
v 110.2022 182.4741 -196.6048
v 111.0286 186.0486 -199.8596
v 109.38 190.8237 -198.6666
v 100.1337 206.0881 -194.035
v 96.99776 179.0827 -203.3492
v 87.75145 194.3471 -198.7175
v 111.0286 186.0486 -199.8596
v 100.4093 174.0466 -203.2012
v 109.0688 180.2125 -200.8419
v 107.6021 177.4664 -201.3857
v 83.60751 201.7372 -194.7957
v 95.98971 213.4782 -190.1131
v 90.91795 216.3485 -183.6043
v 78.53576 204.6075 -188.2869
v 83.97569 212.8236 -170.9256
v 73.1178 201.6609 -176.2764
v 71.37933 196.2829 -168.7792
v 73.32089 197.941 -163.7989
v 77.0302 202.6125 -159.6877
v 80.45786 206.2004 -158.7483
v 107.6021 177.4664 -201.3857
v 100.4093 174.0466 -203.2012
v 104.1186 175.6534 -202.1622
v 89.56746 213.4974 -180.5988
v 84.8407 210.801 -177.9876
v 72.44347 233.0832 -194.1419
v 67.81512 231.4896 -189.9165
v 75.80234 232.357 -200.2098
v 92.47472 212.8688 -185.8509
v 76.15051 229.4191 -205.1799
v 91.85944 209.2833 -190.6673
v 72.28278 224.0515 -207.4839
v 88.08204 204.8412 -192.2265
v 71.21101 241.52 -208.0148
v 75.08923 238.1294 -209.4632
v 71.5524 238.4124 -199.9406
v 77.59415 235.077 -207.5912
v 77.82742 232.9263 -202.2843
v 75.64162 233.1013 -196.399
v 71.73364 235.3048 -191.9523
v 68.43192 238.6954 -190.4069
v 65.05997 242.1112 -190.6176
v 65.2774 243.8984 -197.5969
v 67.46326 243.7235 -203.4822
v 76.66865 238.0459 -212.8085
v 71.12688 242.9055 -210.8661
v 69.06261 243.0983 -213.6487
v 63.66048 246.2449 -207.2985
v 66.35539 245.7264 -205.3235
v 75.66758 237.4363 -216.2585
v 79.60149 235.9064 -213.3783
v 79.18004 235.0871 -216.6799
v 60.4642 246.571 -199.0779
v 63.02274 246.0943 -196.6454
v 59.08884 244.1268 -189.2126
v 63.16327 244.07 -189.0019
v 50.93995 239.5442 -205.6509
v 49.535 237.069 -196.659
v 54.24166 239.1949 -213.7295
v 59.69522 236.0417 -220.2725
v 63.8881 232.981 -222.1084
v 66.17873 230.3797 -222.6025
v 68.79414 228.0293 -222.5712
v 74.81097 232.0413 -220.0719
v 121.1328 204.3895 -96.10455
v 118.7264 202.9766 -93.88109
v 121.7788 198.7181 -99.77772
v 119.3725 197.3051 -97.55425
vt 0.416279 0.184445
vt 0.324741 0.152218
vt 0.446769 0.138954
vt 0.346486 0.096149
vt 0.274309 0.193588
vt 0.413586 0.219766
vt 0.454817 0.217143
vt 0.487349 0.152621
vt 0.273621 0.128444
vt 0.236134 0.187978
vt 0.316765 0.078168
vt 0.253444 0.177651
vt 0.240101 0.213401
vt 0.229495 0.178184
vt 0.225249 0.214919
vt 0.275042 0.141997
vt 0.248887 0.137612
vt 0.269263 0.113888
vt 0.292631 0.127257
vt 0.308832 0.113679
vt 0.291514 0.096237
vt 0.343763 0.088385
vt 0.339297 0.071734
vt 0.35107 0.073755
vt 0.349966 0.06499
vt 0.339297 0.071734
vt 0.291514 0.096237
vt 0.310874 0.049397
vt 0.263149 0.073615
vt 0.349966 0.06499
vt 0.327672 0.047032
vt 0.349739 0.058368
vt 0.347826 0.054994
vt 0.240921 0.091095
vt 0.269263 0.113888
vt 0.248887 0.137612
vt 0.220617 0.114663
vt 0.229495 0.178184
vt 0.205819 0.153174
vt 0.206186 0.174929
vt 0.21078 0.192652
vt 0.217852 0.209436
vt 0.225249 0.214919
vt 0.347826 0.054994
vt 0.327672 0.047032
vt 0.338226 0.051386
vt 0.247581 0.145988
vt 0.234728 0.153111
vt 0.166778 0.112177
vt 0.152929 0.125573
vt 0.179067 0.09109
vt 0.258099 0.127889
vt 0.183716 0.07244
vt 0.26009 0.109482
vt 0.176913 0.061463
vt 0.252419 0.101569
vt 0.15251 0.069959
vt 0.169797 0.063007
vt 0.157394 0.095661
vt 0.181953 0.067585
vt 0.185285 0.084373
vt 0.17764 0.104507
vt 0.161719 0.120996
vt 0.146409 0.128361
vt 0.13078 0.129763
vt 0.129361 0.107005
vt 0.137048 0.08677
vt 0.175283 0.051547
vt 0.15056 0.061035
vt 0.143271 0.051635
vt 0.120981 0.075225
vt 0.130836 0.081675
vt 0.172592 0.039426
vt 0.187813 0.048356
vt 0.187343 0.036632
vt 0.109639 0.103571
vt 0.11898 0.111608
vt 0.107916 0.135824
vt 0.121922 0.136509
vt 0.085684 0.076855
vt 0.083931 0.106036
vt 0.097381 0.049076
vt 0.119816 0.02494
vt 0.137785 0.016945
vt 0.148691 0.013791
vt 0.160375 0.01257
vt 0.176067 0.023339
vt 0.363938 0.424144
vt 0.357389 0.430555
vt 0.372224 0.407622
vt 0.365687 0.414027
vn 0.9304592 0.2126536 0.2983692
vn 0.7860868 0.4214753 0.4521352
vn 0.829424 0.2418911 0.5035322
vn 0.8640218 0.3705863 0.3407815
vn 0.8425828 0.4414465 0.3085113
vn 0.9780504 0.08053565 -0.1921755
vn 0.9277307 0.08931798 0.3624058
vn 0.8282163 0.1587788 0.5374449
vn 0.7323216 0.5434702 0.4102989
vn 0.7677517 0.4996026 0.4011914
vn 0.7860504 0.4960208 0.3689013
vn 0.7667791 0.4270574 0.4792411
vn 0.7915521 0.3980939 0.4636449
vn 0.7812901 0.3985365 0.4803692
vn 0.8199413 0.3690585 0.437598
vn 0.7930051 0.376899 0.4786336
vn 0.7873574 0.3667023 0.4955781
vn 0.8379232 0.3496185 0.4191081
vn 0.8225546 0.3450844 0.4520186
vn 0.8573617 0.3549266 0.3727709
vn 0.8575291 0.3628743 0.364645
vn 0.888619 0.302527 0.3447225
vn 0.8974977 0.2410716 0.3692998
vn 0.9256056 0.1741331 0.3360535
vn 0.8785307 0.1942753 0.4363953
vn 0.07810198 0.2971648 -0.9516267
vn -0.009491667 0.3790522 -0.9253266
vn 0.1012726 0.2553397 -0.9615329
vn -0.009492195 0.3790522 -0.9253265
vn 0.163975 0.1587479 -0.9736074
vn 0.2668431 -0.05568978 -0.9621296
vn 0.2012494 0.09056476 -0.9753444
vn 0.3352972 -0.2187503 -0.9163646
vn -0.2481799 0.57319 -0.7809354
vn -0.2481807 0.57319 -0.7809351
vn -0.5043514 0.7212536 -0.4747872
vn -0.5990763 0.7390545 -0.3080683
vn -0.7439889 0.6665204 0.04723389
vn -0.7311045 0.678953 0.06715051
vn -0.77073 0.6105751 0.1821356
vn -0.7936581 0.6038032 0.07435271
vn -0.7697951 0.6308143 0.09741075
vn -0.7341814 0.6625656 0.1482715
vn 0.3352972 -0.2187503 -0.9163646
vn 0.2668431 -0.05568978 -0.9621296
vn 0.4266736 -0.495894 -0.7563325
vn 0.4799329 0.742607 0.4671181
vn 0.2245378 0.6507688 0.7253156
vn 0.3774484 0.7091175 0.5955544
vn 0.3607986 0.670628 0.6481377
vn 0.7207948 0.6866134 0.09495685
vn 0.8082675 0.5737293 -0.1324327
vn 0.8110473 0.2853441 -0.5106674
vn 0.7090373 0.03266783 -0.704414
vn 0.5809438 -0.1424398 -0.8013833
vn 0.5549116 -0.1873685 -0.8105345
vn 0.6945368 0.6653899 0.2736329
vn 0.6578134 0.7022046 0.2723786
vn 0.692314 0.6838248 0.2304018
vn 0.6652319 0.6977068 0.2658416
vn 0.6882391 0.6843965 0.240683
vn 0.6828169 0.6885674 0.2442048
vn 0.7133416 0.6584541 0.2399627
vn 0.7195255 0.6600498 0.2159106
vn 0.7186126 0.669731 0.1872333
vn 0.7119673 0.6646425 0.2266119
vn 0.7070187 0.6585104 0.2578543
vn 0.6319163 0.7749469 -0.01179328
vn 0.5870633 0.8091522 0.02508817
vn 0.2697358 0.8000869 -0.5358207
vn -0.01397464 0.9519067 -0.3060693
vn 0.5017777 0.8575407 0.1133277
vn 0.3465646 0.6509267 -0.6754164
vn 0.5930205 0.8051649 0.006013496
vn 0.4084419 0.7129457 -0.5699857
vn -0.2332329 0.9723473 -0.01196788
vn 0.4266197 0.881723 0.2013958
vn -0.3503007 0.9180551 0.1856455
vn 0.4250485 0.876907 0.224428
vn -0.5929247 0.8052294 -0.006765082
vn -0.6437732 0.7575641 0.1079473
vn -0.3972875 0.8503844 -0.3449771
vn -0.1073447 0.7503297 -0.6522901
vn 0.1861309 0.534823 -0.8242085
vn 0.3016936 0.3803061 -0.8742701
vn 0.1411234 0.478488 -0.8666795
vn 0.1047059 0.5628983 -0.8198671
vn -0.7368091 0.306407 -0.6026833
vn -0.7368121 0.3064027 -0.6026818
vn -0.7368121 0.3064027 -0.6026818
vn -0.7368152 0.3063984 -0.6026802
g Sword2_a_0
f 3/3/3 2/2/2 1/1/1
f 4/4/4 2/2/2 3/3/3
f 2/2/2 5/5/5 1/1/1
f 1/1/1 5/5/5 6/6/6
f 7/7/7 3/3/3 1/1/1
f 7/7/7 1/1/1 6/6/6
f 8/8/8 3/3/3 7/7/7
f 9/9/9 5/5/5 2/2/2
f 10/10/10 5/5/5 9/9/9
f 11/11/11 2/2/2 4/4/4
f 9/9/9 2/2/2 11/11/11
f 14/14/14 13/13/13 12/12/12
f 15/15/15 13/13/13 14/14/14
f 16/16/16 14/14/14 12/12/12
f 17/17/17 14/14/14 16/16/16
f 17/17/17 16/16/16 18/18/18
f 18/18/18 16/16/16 19/19/19
f 20/20/20 18/18/18 19/19/19
f 21/21/21 18/18/18 20/20/20
f 22/22/22 21/21/21 20/20/20
f 23/23/23 21/21/21 22/22/22
f 24/24/24 23/23/23 22/22/22
f 25/25/25 23/23/23 24/24/24
f 28/28/28 27/27/27 26/26/26
f 29/29/29 27/27/27 28/28/28
f 30/30/30 28/28/28 26/26/26
f 31/31/31 28/28/28 30/30/30
f 30/30/30 32/32/32 31/31/31
f 33/33/33 31/31/31 32/32/32
f 29/29/29 34/34/34 27/27/27
f 27/27/27 34/34/34 35/35/35
f 34/34/34 36/36/36 35/35/35
f 37/37/37 36/36/36 34/34/34
f 37/37/37 38/38/38 36/36/36
f 39/39/39 38/38/38 37/37/37
f 39/39/39 40/40/40 38/38/38
f 40/40/40 41/41/41 38/38/38
f 41/41/41 42/42/42 38/38/38
f 42/42/42 43/43/43 38/38/38
f 46/46/46 45/45/45 44/44/44
f 49/49/49 48/48/48 47/47/47
f 50/50/50 48/48/48 49/49/49
f 49/49/49 47/47/47 51/51/51
f 51/51/51 47/47/47 52/52/52
f 51/51/51 52/52/52 53/53/53
f 53/53/53 52/52/52 54/54/54
f 53/53/53 54/54/54 55/55/55
f 55/55/55 54/54/54 56/56/56
f 59/59/59 58/58/58 57/57/57
f 59/59/59 60/60/60 58/58/58
f 59/59/59 61/61/61 60/60/60
f 59/59/59 62/62/62 61/61/61
f 59/59/59 63/63/63 62/62/62
f 59/59/59 64/64/64 63/63/63
f 59/59/59 65/65/65 64/64/64
f 59/59/59 66/66/66 65/65/65
f 59/59/59 67/67/67 66/66/66
f 59/59/59 57/57/57 67/67/67
f 68/68/68 57/57/57 58/58/58
f 69/69/69 57/57/57 68/68/68
f 69/69/69 67/67/67 57/57/57
f 68/68/68 70/70/70 69/69/69
f 71/71/71 69/69/69 70/70/70
f 72/72/72 69/69/69 71/71/71
f 72/72/72 66/66/66 67/67/67
f 72/72/72 67/67/67 69/69/69
f 73/73/73 70/70/70 68/68/68
f 74/74/74 73/73/73 68/68/68
f 75/75/75 73/73/73 74/74/74
f 71/71/71 76/76/76 72/72/72
f 72/72/72 76/76/76 77/77/77
f 77/77/77 65/65/65 66/66/66
f 77/77/77 66/66/66 72/72/72
f 76/76/76 78/78/78 77/77/77
f 77/77/77 78/78/78 79/79/79
f 79/79/79 65/65/65 77/77/77
f 68/68/68 58/58/58 74/74/74
f 74/74/74 58/58/58 60/60/60
f 80/80/80 78/78/78 76/76/76
f 81/81/81 78/78/78 80/80/80
f 82/82/82 76/76/76 71/71/71
f 80/80/80 76/76/76 82/82/82
f 83/83/83 71/71/71 70/70/70
f 82/82/82 71/71/71 83/83/83
f 84/84/84 70/70/70 73/73/73
f 85/85/85 84/84/84 73/73/73
f 85/85/85 73/73/73 86/86/86
f 86/86/86 73/73/73 87/87/87
f 87/87/87 73/73/73 75/75/75
f 83/83/83 70/70/70 84/84/84
f 90/90/90 89/89/89 88/88/88
f 91/91/91 89/89/89 90/90/90
