g Waterfall_Water_mesh
v 208.1459 229.943 -250.734
v 218.6712 230.8029 -257.6543
v 214.3119 226.8738 -249.4551
v 214.3119 226.8738 -249.4551
v 224.2662 220.607 -257.3642
v 218.6712 230.8029 -257.6543
v 217.7927 228.685 -271.9694
v 224.2662 220.607 -257.3642
v 224.0644 218.3171 -272.4511
v 219.0084 226.0761 -281.7079
v 230.0221 216.7901 -281.0203
v 237.0933 215.4467 -289.2299
v 229.1626 204.3213 -260.8027
v 233.8944 202.9396 -251.6304
v 240.8344 182.0569 -255.5008
v 235.5555 183.0578 -265.2921
v 227.1447 203.1073 -273.0319
v 231.1664 183.2485 -273.7903
v 231.3036 199.9439 -280.8504
v 232.9769 177.9486 -280.6284
v 237.4478 190.4383 -290.0508
v 237.9107 157.786 -291.1225
v 237.3241 189.131 -301.4995
v 238.3047 157.7699 -301.5144
v 234.9618 187.8154 -309.2826
v 233.1837 157.728 -309.6672
v 223.3663 188.4578 -314.4449
v 224.381 157.7305 -314.4262
v 208.5842 188.734 -312.7824
v 206.3698 156.9236 -310.9688
v 196.5975 191.7359 -302.7469
v 191.6818 158.1962 -304.0457
v 189.5768 192.5109 -294.2825
v 184.2686 160.1928 -296.3745
v 175.2355 160.2113 -296.8867
v 180.336 190.5793 -295.5067
v 165.5192 160.3113 -297.2685
v 170.353 188.8708 -296.5419
v 155.7709 160.4351 -297.6515
v 160.8152 185.7498 -297.9378
v 174.0551 210.7444 -295.9854
v 164.6787 205.1383 -298.1572
v 175.8743 227.6855 -290.5545
v 184.2424 213.838 -294.4497
v 182.8266 227.4323 -287.4725
v 190.0633 229.8007 -286.9105
v 193.6424 217.2633 -292.6803
v 203.0992 225.7339 -291.3727
v 182.909 142.9277 -297.468
v 188.1388 143.3038 -304.3302
v 206.5093 142.3174 -311.0125
v 224.3596 143.5031 -314.4284
v 233.1247 143.9287 -309.7241
v 239.5819 142.3379 -297.9661
v 235.8537 143.5765 -285.6879
v 234.653 156.7683 -284.036
v 231.5947 155.8907 -277.8569
v 232.9996 144.0506 -279.4825
v 233.0551 131.0275 -309.7839
v 223.4875 129.6394 -312.6427
v 206.6138 129.4367 -311.0366
v 183.895 129.6026 -304.3446
v 223.1564 121.6035 -312.4085
v 206.3391 121.397 -310.8075
v 183.895 129.6026 -304.3446
v 184.8262 121.5003 -305.5549
v 206.1889 117.001 -310.6822
v 185.3353 117.07 -306.2167
v 173.54 117.8868 -310.5712
v 172.5453 120.279 -309.9986
v 170.726 124.6541 -308.9514
v 183.895 129.6026 -304.3446
v 222.9753 117.2096 -312.2805
v 232.5215 118.5729 -309.4496
v 232.7101 122.9756 -309.5678
v 236.8837 118.3498 -302.5186
v 237.1296 122.7636 -302.5477
v 243.3045 121.0139 -295.7062
v 242.5148 124.4598 -294.5536
v 245.7322 122.0061 -287.5189
v 244.4757 125.3382 -287.0942
v 252.0457 121.5793 -280.5633
v 250.7716 125.0401 -279.7928
v 256.6797 120.9702 -273.1759
v 255.8177 124.3136 -272.556
v 259.7639 120.157 -268.6351
v 258.9254 123.5822 -267.7711
v 265.632 121.043 -264.5184
v 264.9075 124.2898 -263.9631
v 275.3876 119.2243 -259.8841
v 273.166 122.9125 -259.6281
v 237.5794 130.8359 -302.6011
v 241.0706 130.7618 -292.4456
v 242.1778 131.432 -286.3175
v 232.9996 144.0506 -279.4825
v 248.4415 131.3694 -278.3835
v 232.9996 144.0506 -279.4825
v 237.2962 143.9562 -270.8571
v 254.2413 130.4281 -271.4224
v 242.7108 142.9726 -260.7886
v 235.0771 155.9879 -269.4582
v 232.9996 144.0506 -279.4825
v 242.0354 155.5615 -259.2342
v 247.8094 142.5342 -256.0249
v 247.0181 155.426 -249.6754
v 245.7967 181.5448 -247.0428
v 257.392 129.8465 -266.1911
v 263.5825 130.2278 -262.9474
v 254.4831 142.8583 -253.7325
v 247.0181 155.426 -249.6754
v 269.103 129.6578 -259.1601
v 254.4831 142.8583 -253.7325
v 228.5791 218.9336 -248.6661
v 218.1958 226.3748 -245.4741
v 214.2063 232.2431 -239.4975
v 214.3119 226.8738 -249.4551
v 224.2662 220.607 -257.3642
v 209.0889 231.7271 -241.5397
v 214.3119 226.8738 -249.4551
v 211.6245 236.314 -229.2915
v 203.5302 236.4945 -233.2248
v 204.6578 237.2209 -227.5063
v 208.0852 237.5508 -222.9859
v 219.0084 226.0761 -281.7079
v 236.573 213.1503 -301.4881
v 237.0933 215.4467 -289.2299
v 219.1549 226.0596 -290.2967
v 236.3236 210.8592 -308.988
v 218.1306 226.0204 -294.2216
v 236.3236 210.8592 -308.988
v 219.1549 226.0596 -290.2967
v 236.573 213.1503 -301.4881
v 219.0084 226.0761 -281.7079
v 218.1306 226.0204 -294.2216
v 211.1861 225.9095 -296.1345
v 236.3236 210.8592 -308.988
v 222.5892 211.9917 -314.4592
v 211.1861 225.9095 -296.1345
v 205.0689 222.7032 -299.5788
v 222.5892 211.9917 -314.4592
v 193.6424 217.2633 -292.6803
v 200.3623 217.4238 -301.7522
v 210.2803 213.0976 -314.1715
v 210.2803 213.0976 -314.1715
v 210.2803 213.0976 -314.1715
v 222.5892 211.9917 -314.4592
v 236.3236 210.8592 -308.988
v 236.3236 210.8592 -308.988
v 236.573 213.1503 -301.4881
v 237.0933 215.4467 -289.2299
v 236.3236 210.8592 -308.988
v 193.6424 217.2633 -292.6803
v 193.6424 217.2633 -292.6803
v 182.5626 229.9406 -278.8834
v 182.8266 227.4323 -287.4725
v 190.0633 229.8007 -286.9105
v 182.5626 229.9406 -278.8834
v 175.8743 227.6855 -290.5545
v 182.8266 227.4323 -287.4725
v 171.1618 231.995 -282.8692
v 171.1618 231.995 -282.8692
v 169.1468 230.4974 -295.7776
v 175.8743 227.6855 -290.5545
v 175.8743 227.6855 -290.5545
v 169.1468 230.4974 -295.7776
v 174.0551 210.7444 -295.9854
v 182.8266 227.4323 -287.4725
v 175.8743 227.6855 -290.5545
v 245.719 202.33 -246.7167
v 233.8944 202.9396 -251.6304
v 245.7967 181.5448 -247.0428
v 228.5791 218.9336 -248.6661
v 252.0605 181.8722 -248.3673
v 245.719 202.33 -246.7167
v 245.7967 181.5448 -247.0428
v 252.4369 202.4203 -247.8216
v 261.74 173.2226 -251.1911
v 261.7003 198.6872 -248.9003
v 253.1191 162.1583 -251.1262
v 247.0181 155.426 -249.6754
v 254.4831 142.8583 -253.7325
v 262.3064 140.7842 -252.6616
v 254.4831 142.8583 -253.7325
v 269.103 129.6578 -259.1601
v 245.6595 218.2494 -246.467
v 228.5791 218.9336 -248.6661
v 252.7252 218.158 -247.4036
v 261.6699 218.1904 -247.1459
v 174.8932 140.8364 -296.8396
v 165.3734 140.8755 -297.2595
v 157.7363 141.0979 -296.8866
v 162.4548 127.3024 -299.8363
v 165.801 129.2073 -298.8051
v 183.895 129.6026 -304.3446
v 183.895 129.6026 -304.3446
v 162.4548 127.3024 -299.8363
v 170.726 124.6541 -308.9514
v 183.895 129.6026 -304.3446
v 172.5453 120.279 -309.9986
v 170.8807 121.4647 -316.2943
v 173.54 117.8868 -310.5712
v 173.54 117.8868 -310.5712
v 172.5466 119.7775 -317.6388
v 174.906 114.6019 -311.3575
v 208.3692 236.0872 -242.0931
v 208.1459 229.943 -250.734
v 209.0889 231.7271 -241.5397
v 209.0889 231.7271 -241.5397
v 208.1459 229.943 -250.734
v 214.3119 226.8738 -249.4551
v 203.5302 236.4945 -233.2248
v 208.3692 236.0872 -242.0931
v 209.0889 231.7271 -241.5397
v 222.5892 211.9917 -314.4592
v 210.2803 213.0976 -314.1715
v 223.3663 188.4578 -314.4449
v 182.0499 106.9576 -314.1421
v 180.5014 111.0297 -320.2125
v 186.7961 101.8789 -315.9922
v 184.2667 106.7571 -320.6958
v 187.7586 103.5389 -308.7414
v 188.9041 98.59089 -309.815
v 176.8056 112.5692 -312.0979
v 176.3411 115.7507 -319.6784
v 176.8056 112.5692 -312.0979
v 174.8341 117.4607 -319.4849
v 174.906 114.6019 -311.3575
v 172.5466 119.7775 -317.6388
v 196.8624 81.16813 -323.9524
v 193.072 85.17612 -328.2407
v 201.1101 72.42875 -327.3114
v 207.3179 71.28487 -321.5893
v 201.8536 79.38795 -318.0953
v 196.7876 76.06955 -331.4245
v 201.8536 79.38795 -318.0953
v 214.4139 60.76215 -326.1267
v 225.864 61.53242 -322.609
v 230.2844 57.03497 -328.1524
v 219.8075 56.40229 -331.1978
v 233.9432 53.31242 -332.7406
v 224.2717 52.79369 -335.395
v 237.7916 49.39698 -337.5666
v 245.9377 49.95728 -335.5396
v 242.754 53.55473 -330.9895
v 252.9468 49.62678 -335.1655
v 249.5859 52.94556 -330.7471
v 263.1955 48.50023 -331.8393
v 258.593 51.58398 -327.5075
v 272.2852 47.30814 -324.194
v 266.5323 51.2005 -318.7479
v 272.5015 47.4227 -315.7534
v 267.1344 51.44308 -310.4696
v 273.0524 48.68922 -307.4336
v 277.0078 46.29914 -310.0114
v 276.5781 44.36903 -319.7668
v 286.5006 37.80978 -311.2411
v 285.8954 39.85815 -326.6251
v 294.9135 39.77346 -316.3417
v 291.8111 39.18825 -331.1505
v 281.1656 40.53693 -333.0045
v 283.2339 39.47972 -337.9295
v 274.3404 40.08588 -344.0417
v 266.6914 46.15795 -335.1295
v 255.4996 47.10601 -338.5215
v 263.1756 39.50954 -348.4283
v 248.3559 47.22481 -338.9956
v 255.5977 40.15445 -349.3795
v 240.7146 46.42298 -341.2322
v 249.4438 38.19723 -352.394
v 232.5339 46.11505 -343.1631
v 243.3435 38.21387 -353.4502
v 226.2957 46.52685 -348.2
v 238.3393 37.81753 -357.7783
v 222.0923 48.16915 -348.2165
v 233.9372 38.17641 -356.368
v 276.6549 44.35167 -328.3306
v 263.026 39.5671 -355.5072
v 228.9673 48.99805 -339.8098
v 217.327 53.16253 -340.6643
v 222.4241 49.39128 -344.947
v 212.7542 55.4987 -342.445
v 218.0613 51.33315 -345.7251
v 207.7086 59.45901 -339.3266
v 212.481 56.74795 -336.5927
v 201.6127 64.24374 -335.5589
v 206.6262 61.07975 -331.6734
v 206.163 98.60307 -310.4896
v 187.7586 103.5389 -308.7414
v 188.9041 98.59089 -309.815
v 206.091 103.5374 -310.4978
v 222.7329 97.25658 -312.0844
v 222.7304 102.8129 -312.0925
v 232.1926 95.46284 -309.2918
v 232.2205 102.2745 -309.29
v 236.4135 92.59776 -302.5245
v 236.4664 100.4579 -302.5061
v 247.6801 92.31476 -299.7659
v 246.3663 101.8819 -298.7772
v 251.2195 91.97754 -296.1363
v 249.7178 102.1377 -292.9293
v 254.1084 86.91549 -290.4893
v 253.9834 98.85539 -286.9495
v 260.0357 88.55045 -281.6719
v 259.1686 99.65894 -278.6203
v 262.4497 86.3053 -274.9149
v 259.9997 74.84734 -278.9592
v 254.0611 72.55441 -289.5062
v 262.6333 74.3556 -275.185
v 262.6333 74.3556 -275.185
v 253.8453 112.0484 -283.0382
v 258.2104 111.9333 -275.2484
v 261.8372 97.94051 -272.8817
v 262.4497 86.3053 -274.9149
v 248.0585 113.3643 -289.3856
v 244.9147 112.4531 -297.6847
v 236.5248 109.143 -302.4858
v 232.2513 109.801 -309.2881
v 222.7277 108.9523 -312.1014
v 206.0115 108.9897 -310.5069
v 186.4929 109.0062 -307.5551
v 253.7952 116.8271 -281.6214
v 247.4575 117.4307 -288.1021
v 244.3889 116.2822 -297.289
v 236.546 112.2889 -302.4785
v 232.2625 112.5273 -309.2873
v 222.7267 111.1761 -312.1047
v 205.9827 110.9646 -310.5102
v 186.0345 110.9866 -307.1255
v 174.906 114.6019 -311.3575
v 186.4929 109.0062 -307.5551
v 174.906 114.6019 -311.3575
v 270.0596 84.73866 -274.828
v 261.8372 97.94051 -272.8817
v 262.4497 86.3053 -274.9149
v 269.9458 74.71573 -273.8507
v 278.5888 83.20617 -274.366
v 279.4599 75.05629 -275.1969
v 293.5521 74.53024 -269.7162
v 272.6078 99.89535 -269.8235
v 268.6893 97.45068 -271.0171
v 261.8372 97.94051 -272.8817
v 293.6609 83.46506 -269.9373
v 293.5521 74.53024 -269.7162
v 261.1603 110.7969 -270.6352
v 267.1752 111.4968 -266.8062
v 266.6268 116.5845 -265.281
v 286.0496 98.81236 -265.0864
v 278.4382 114.1597 -260.2355
v 260.9152 115.4536 -269.8214
v 257.8633 116.3792 -274.0271
v 293.6609 83.46506 -269.9373
v 262.4497 86.3053 -274.9149
v 262.6333 74.3556 -275.185
v 269.9125 71.78523 -273.565
v 279.7145 72.67345 -275.4398
v 293.5203 71.91788 -269.6516
v 293.4789 68.52544 -269.5676
v 280.0453 69.57905 -275.7553
v 269.8693 67.97967 -273.1939
v 269.8693 67.97967 -273.1939
v 262.687 70.86176 -275.264
v 259.9892 70.84084 -278.166
v 254.0473 68.35551 -289.2187
v 253.9436 69.15752 -291.062
v 253.8753 79.41956 -291.5284
v 253.6492 72.14892 -292.5363
v 251.7061 82.87695 -297.0242
v 252.1781 74.04984 -297.8855
v 253.7805 67.57616 -292.5616
v 253.2651 70.08878 -298.2418
v 253.9509 61.638 -292.5945
v 254.6768 64.94494 -298.7045
v 255.8668 59.8833 -299.3768
v 253.0716 64.06767 -306.0561
v 254.4547 59.37205 -307.3144
v 248.9307 58.05791 -318.4135
v 261.0627 54.90108 -313.5701
v 254.2173 54.51579 -323.3892
v 246.3907 56.10081 -326.5464
v 239.7272 56.97494 -326.6636
v 262.0317 55.26533 -305.4461
v 267.8448 51.8359 -304.0399
v 262.8939 54.82755 -300.8134
v 236.0702 61.10711 -321.4372
v 242.5302 59.91294 -321.4713
v 256.9122 58.44194 -296.9152
v 253.9509 61.638 -292.5945
v 220.3838 71.84425 -319.2378
v 232.3602 71.16273 -318.8356
v 216.1637 79.78497 -316.6418
v 229.5033 78.90611 -316.8322
v 239.6546 69.80174 -318.0834
v 237.4403 77.41673 -315.4745
v 245.4488 67.66576 -313.9937
v 242.7676 75.06437 -310.5902
v 250.173 72.57631 -304.1101
v 248.9455 82.29497 -301.9712
v 251.434 68.87466 -304.9567
v 201.8536 79.38795 -318.0953
v 299.1108 74.60336 -274.0807
v 293.6609 83.46506 -269.9373
v 293.5521 74.53024 -269.7162
v 298.9838 72.17193 -274.091
v 302.3555 72.29849 -276.7241
v 302.5827 74.6767 -276.6677
v 299.5453 82.91948 -274.0452
v 293.6609 83.46506 -269.9373
v 303.3596 82.81062 -276.4747
v 302.0605 69.21017 -276.7974
v 298.8188 69.01443 -274.1045
v 293.5203 71.91788 -269.6516
v 293.5521 74.53024 -269.7162
v 293.4789 68.52544 -269.5676
v 304.7768 72.39552 -278.567
v 304.3919 69.36789 -278.6722
v 307.4591 72.50301 -280.6086
v 306.9747 69.54259 -280.7492
v 307.8322 74.78271 -280.5003
v 305.0732 74.72701 -278.486
v 309.1081 82.57972 -280.13
v 306.0869 82.70109 -278.2089
v 316.4804 67.94804 -283.8735
v 315.9571 73.43189 -283.0135
v 315.1784 81.59158 -281.7337
v 322.3589 72.36755 -284.9936
v 319.9613 80.81302 -282.9973
v 330.4025 71.1647 -283.686
v 327.7325 81.62624 -281.3635
v 331.1832 68.10595 -284.3651
v 323.06 69.89827 -285.5773
v 316.1848 71.04616 -283.3876
v 332.1969 64.13384 -285.2469
v 323.9703 66.69166 -286.3352
v 336.632 47.45211 -288.7321
v 329.2392 45.73219 -289.0073
v 310.2021 69.46087 -289.0213
v 176.8056 112.5692 -312.0979
v 187.7586 103.5389 -308.7414
v 186.4929 109.0062 -307.5551
v 186.4929 109.0062 -307.5551
v 174.906 114.6019 -311.3575
v 302.1012 40.37975 -319.637
v 309.9343 39.54782 -319.9572
v 312.2472 38.172 -331.2157
v 291.8947 38.05263 -340.9837
v 283.2542 38.31874 -347.656
v 274.0931 40.14225 -353.5322
v 242.5302 59.91294 -321.4713
v 253.9636 66.15713 -290.9257
v 254.0293 62.90282 -288.8454
v 259.9755 65.63795 -277.136
v 262.7568 66.32465 -275.3665
v 253.9895 62.26077 -290.7486
v 298.8188 69.01443 -274.1045
v 296.7721 69.57107 -281.5617
v 302.0605 69.21017 -276.7974
v 286.2163 69.56318 -279.2296
v 293.472 70.37708 -285.3305
v 285.4307 70.37755 -280.9216
v 280.3367 70.36953 -311.2779
v 289.2821 70.37801 -307.972
v 277.0635 69.98084 -278.2814
v 272.3183 70.31551 -304.6879
v 262.1735 66.50703 -295.8297
v 269.6738 66.79237 -275.0184
v 254.0293 62.90282 -288.8454
v 259.9755 65.63795 -277.136
v 260.2391 64.75455 -298.1586
v 262.7568 66.32465 -275.3665
v 269.8693 67.97967 -273.1939
v 280.0453 69.57905 -275.7553
v 269.8693 67.97967 -273.1939
v 253.9509 61.638 -292.5945
v 296.6428 70.37875 -287.1119
v 292.2162 70.37082 -309.7863
v 300.1554 70.38058 -289.0853
v 295.4667 70.36281 -311.7963
v 299.3209 70.35815 -311.8528
v 303.2137 70.37993 -291.0647
v 302.3577 70.35451 -311.8974
v 305.6235 70.37939 -292.6243
v 311.7432 70.37215 -300.2428
v 310.2021 69.46087 -289.0213
v 307.5671 69.50967 -287.575
v 316.4804 67.94804 -283.8735
v 323.9703 66.69166 -286.3352
v 313.1478 70.34991 -306.7981
v 316.5247 68.98198 -299.7109
v 300.3069 69.57133 -283.5437
v 304.2227 69.57165 -285.7394
v 304.3919 69.36789 -278.6722
v 306.9747 69.54259 -280.7492
v 262.7568 66.32465 -275.3665
v 269.8693 67.97967 -273.1939
v 260.2391 64.75455 -298.1586
v 253.9509 61.638 -292.5945
v 256.9122 58.44194 -296.9152
v 293.4789 68.52544 -269.5676
v 269.8693 67.97967 -273.1939
v 262.687 70.86176 -275.264
v 262.7568 66.32465 -275.3665
v 336.632 47.45211 -288.7321
v 329.2392 45.73219 -289.0073
v 341.3506 38.98537 -306.9993
v 341.3506 38.98537 -306.9993
v 329.2392 45.73219 -289.0073
v 332.6071 42.34998 -302.207
v 323.091 40.48524 -304.7558
v 321.6805 40.34417 -312.9556
v 349.3916 38.31015 -307.2688
v 328.6295 39.27626 -321.5672
v 329.2392 45.73219 -289.0073
v 317.5978 42.9519 -294.1697
v 316.5247 68.98198 -299.7109
v 313.1478 70.34991 -306.7981
v 315.1976 68.97984 -308.3119
v 310.2021 69.46087 -289.0213
v 316.5247 68.98198 -299.7109
v 317.5978 42.9519 -294.1697
v 323.091 40.48524 -304.7558
v 315.1976 68.97984 -308.3119
v 321.6805 40.34417 -312.9556
v 329.2392 45.73219 -289.0073
v 310.2021 69.46087 -289.0213
v 317.5978 42.9519 -294.1697
v 253.9509 61.638 -292.5945
v 254.0293 62.90282 -288.8454
v 253.9895 62.26077 -290.7486
v 170.726 124.6541 -308.9514
v 167.8341 124.5503 -313.8354
v 172.5453 120.279 -309.9986
v 172.5453 120.279 -309.9986
v 167.8341 124.5503 -313.8354
v 170.8807 121.4647 -316.2943
v 162.4548 127.3024 -299.8363
v 167.8341 124.5503 -313.8354
v 170.726 124.6541 -308.9514
v 242.5302 59.91294 -321.4713
vt 0.494787 0.915722
vt 0.484301 0.881047
vt 0.511158 0.89998
vt 0.511158 0.89998
vt 0.508872 0.852059
vt 0.484301 0.881047
vt 0.429575 0.854336
vt 0.508872 0.852059
vt 0.452067 0.821449
vt 0.390536 0.834236
vt 0.431887 0.800942
vt 0.422809 0.784595
vt 0.517232 0.795225
vt 0.552442 0.796857
vt 0.565249 0.722421
vt 0.528147 0.72102
vt 0.47159 0.775858
vt 0.497079 0.716332
vt 0.45207 0.754859
vt 0.478421 0.694692
vt 0.436191 0.717406
vt 0.453662 0.629682
vt 0.41238 0.707826
vt 0.422804 0.62486
vt 0.392661 0.700845
vt 0.393601 0.622862
vt 0.363424 0.703976
vt 0.363359 0.622481
vt 0.325392 0.709813
vt 0.30925 0.623999
vt 0.287545 0.732935
vt 0.266962 0.638137
vt 0.255478 0.747782
vt 0.242317 0.654258
vt 0.221878 0.661083
vt 0.22975 0.747734
vt 0.201009 0.668423
vt 0.203867 0.748195
vt 0.177449 0.674469
vt 0.179818 0.742867
vt 0.206057 0.809292
vt 0.181633 0.795253
vt 0.18262 0.853902
vt 0.235778 0.8141
vt 0.213345 0.860485
vt 0.230748 0.860976
vt 0.265558 0.819411
vt 0.297172 0.845282
vt 0.23959 0.607813
vt 0.258733 0.597049
vt 0.308707 0.57794
vt 0.363975 0.577655
vt 0.395504 0.578617
vt 0.43872 0.575457
vt 0.477686 0.586571
vt 0.476987 0.630042
vt 0.497992 0.631103
vt 0.497066 0.594569
vt 0.395534 0.53694
vt 0.361812 0.532801
vt 0.309913 0.537947
vt 0.249065 0.563799
vt 0.359797 0.506414
vt 0.308935 0.512787
vt 0.249065 0.563799
vt 0.254472 0.536374
vt 0.308401 0.499029
vt 0.257428 0.521378
vt 0.230675 0.535207
vt 0.22698 0.543543
vt 0.220224 0.558789
vt 0.249065 0.563799
vt 0.358695 0.491986
vt 0.392211 0.49564
vt 0.393386 0.51024
vt 0.420106 0.494831
vt 0.421696 0.509501
vt 0.455316 0.503938
vt 0.457911 0.51619
vt 0.485186 0.508948
vt 0.484896 0.520744
vt 0.517883 0.50453
vt 0.518579 0.516444
vt 0.548225 0.501674
vt 0.549179 0.512874
vt 0.566888 0.49888
vt 0.568715 0.510821
vt 0.591571 0.497635
vt 0.592908 0.508605
vt 0.628988 0.484832
vt 0.624439 0.498187
vt 0.424604 0.536331
vt 0.462656 0.538599
vt 0.484365 0.542319
vt 0.497066 0.594569
vt 0.519851 0.538234
vt 0.497066 0.594569
vt 0.526186 0.595848
vt 0.550926 0.533358
vt 0.560939 0.595942
vt 0.524994 0.634744
vt 0.497066 0.594569
vt 0.562245 0.635916
vt 0.58235 0.593558
vt 0.594558 0.636941
vt 0.598022 0.720433
vt 0.572058 0.53266
vt 0.595354 0.528667
vt 0.603956 0.587653
vt 0.594558 0.636941
vt 0.616121 0.522613
vt 0.603956 0.587653
vt 0.542633 0.853868
vt 0.528796 0.89738
vt 0.534227 0.927364
vt 0.511158 0.89998
vt 0.508872 0.852059
vt 0.517674 0.934105
vt 0.511158 0.89998
vt 0.553887 0.957576
vt 0.527312 0.968985
vt 0.543632 0.978552
vt 0.561922 0.97969
vt 0.390536 0.834236
vt 0.404395 0.771369
vt 0.422809 0.784595
vt 0.38035 0.833573
vt 0.391942 0.760571
vt 0.372204 0.831515
vt 0.391942 0.760571
vt 0.38035 0.833573
vt 0.404395 0.771369
vt 0.390536 0.834236
vt 0.372204 0.831515
vt 0.347081 0.835619
vt 0.391942 0.760571
vt 0.363474 0.766393
vt 0.347081 0.835619
vt 0.321561 0.821958
vt 0.363474 0.766393
vt 0.265558 0.819411
vt 0.303309 0.80554
vt 0.337755 0.775538
vt 0.337755 0.775538
vt 0.337755 0.775538
vt 0.363474 0.766393
vt 0.391942 0.760571
vt 0.391942 0.760571
vt 0.404395 0.771369
vt 0.422809 0.784595
vt 0.391942 0.760571
vt 0.265558 0.819411
vt 0.265558 0.819411
vt 0.202886 0.891596
vt 0.213345 0.860485
vt 0.230748 0.860976
vt 0.202886 0.891596
vt 0.18262 0.853902
vt 0.213345 0.860485
vt 0.169183 0.87788
vt 0.169183 0.87788
vt 0.134517 0.862488
vt 0.18262 0.853902
vt 0.18262 0.853902
vt 0.134517 0.862488
vt 0.206057 0.809292
vt 0.213345 0.860485
vt 0.18262 0.853902
vt 0.599403 0.789939
vt 0.552442 0.796857
vt 0.598022 0.720433
vt 0.542633 0.853868
vt 0.619264 0.719577
vt 0.599403 0.789939
vt 0.598022 0.720433
vt 0.621998 0.788864
vt 0.651648 0.686852
vt 0.652925 0.774449
vt 0.617286 0.653984
vt 0.594558 0.636941
vt 0.603956 0.587653
vt 0.625433 0.571728
vt 0.603956 0.587653
vt 0.616121 0.522613
vt 0.60046 0.843173
vt 0.542633 0.853868
vt 0.624092 0.84193
vt 0.653903 0.841539
vt 0.222458 0.610122
vt 0.199929 0.618495
vt 0.178217 0.622671
vt 0.196962 0.591263
vt 0.205066 0.592521
vt 0.249065 0.563799
vt 0.249065 0.563799
vt 0.196962 0.591263
vt 0.220224 0.558789
vt 0.249065 0.563799
vt 0.22698 0.543543
vt 0.215356 0.535544
vt 0.230675 0.535207
vt 0.230675 0.535207
vt 0.217288 0.528179
vt 0.235748 0.52376
vt 0.507369 0.944364
vt 0.494787 0.915722
vt 0.517674 0.934105
vt 0.517674 0.934105
vt 0.494787 0.915722
vt 0.511158 0.89998
vt 0.527312 0.968985
vt 0.507369 0.944364
vt 0.517674 0.934105
vt 0.363474 0.766393
vt 0.337755 0.775538
vt 0.363424 0.703976
vt 0.242897 0.486273
vt 0.22828 0.490586
vt 0.247647 0.461369
vt 0.23382 0.472328
vt 0.262704 0.474705
vt 0.263512 0.457378
vt 0.237649 0.513792
vt 0.222158 0.51076
vt 0.237649 0.513792
vt 0.219941 0.518067
vt 0.235748 0.52376
vt 0.217288 0.528179
vt 0.246636 0.388516
vt 0.229783 0.39442
vt 0.246209 0.357774
vt 0.275384 0.356622
vt 0.271861 0.386521
vt 0.22808 0.361545
vt 0.271861 0.386521
vt 0.27996 0.317794
vt 0.324805 0.309816
vt 0.321906 0.285663
vt 0.277951 0.295836
vt 0.319505 0.265671
vt 0.276288 0.277662
vt 0.316981 0.244644
vt 0.35537 0.232418
vt 0.357449 0.253084
vt 0.382869 0.218163
vt 0.38301 0.239565
vt 0.424808 0.203226
vt 0.419904 0.226488
vt 0.465987 0.202916
vt 0.460259 0.230794
vt 0.48347 0.222257
vt 0.478597 0.24762
vt 0.499651 0.242195
vt 0.504982 0.228142
vt 0.487172 0.202993
vt 0.534475 0.202926
vt 0.50093 0.165258
vt 0.545181 0.173654
vt 0.508116 0.141988
vt 0.475829 0.15782
vt 0.472336 0.140618
vt 0.43567 0.141613
vt 0.428533 0.185557
vt 0.382761 0.201906
vt 0.389047 0.152148
vt 0.353791 0.216721
vt 0.357258 0.166964
vt 0.315063 0.228672
vt 0.323496 0.172243
vt 0.273211 0.244025
vt 0.292355 0.184898
vt 0.230978 0.248923
vt 0.258619 0.186859
vt 0.219606 0.257042
vt 0.235701 0.202412
vt 0.470338 0.181741
vt 0.375363 0.133633
vt 0.274539 0.258545
vt 0.237671 0.280353
vt 0.233867 0.26249
vt 0.222461 0.285226
vt 0.220838 0.269208
vt 0.224004 0.300455
vt 0.241286 0.297335
vt 0.225868 0.318854
vt 0.245655 0.317852
vt 0.303378 0.440136
vt 0.262704 0.474705
vt 0.263512 0.457378
vt 0.30509 0.456104
vt 0.352017 0.42541
vt 0.354079 0.444077
vt 0.384372 0.417157
vt 0.386857 0.440483
vt 0.411328 0.410915
vt 0.413961 0.43637
vt 0.449238 0.406555
vt 0.450242 0.438711
vt 0.465909 0.405945
vt 0.473763 0.440595
vt 0.487086 0.390914
vt 0.498998 0.429736
vt 0.523013 0.396411
vt 0.532553 0.43229
vt 0.5496 0.38806
vt 0.527403 0.357131
vt 0.492943 0.347771
vt 0.544886 0.354593
vt 0.544886 0.354593
vt 0.51216 0.472632
vt 0.543095 0.471935
vt 0.555499 0.425751
vt 0.5496 0.38806
vt 0.482442 0.478881
vt 0.451351 0.474243
vt 0.416869 0.464498
vt 0.389604 0.466257
vt 0.356356 0.464702
vt 0.306982 0.473748
vt 0.261811 0.493852
vt 0.516927 0.488169
vt 0.485585 0.492749
vt 0.451753 0.487113
vt 0.417923 0.474686
vt 0.390599 0.475593
vt 0.357181 0.472173
vt 0.307667 0.480138
vt 0.261488 0.500787
vt 0.235748 0.52376
vt 0.261811 0.493852
vt 0.235748 0.52376
vt 0.579527 0.375619
vt 0.555499 0.425751
vt 0.5496 0.38806
vt 0.572796 0.347912
vt 0.616011 0.359762
vt 0.609669 0.332478
vt 0.682452 0.318358
vt 0.602873 0.421167
vt 0.583601 0.418312
vt 0.555499 0.425751
vt 0.700195 0.340838
vt 0.682452 0.318358
vt 0.562017 0.467398
vt 0.588103 0.465485
vt 0.589734 0.482572
vt 0.667714 0.403665
vt 0.635234 0.466492
vt 0.564378 0.482483
vt 0.546913 0.486294
vt 0.700195 0.340838
vt 0.5496 0.38806
vt 0.544886 0.354593
vt 0.570828 0.339811
vt 0.607815 0.3245
vt 0.677264 0.311786
vt 0.670528 0.303251
vt 0.605407 0.314141
vt 0.568272 0.329291
vt 0.568272 0.329291
vt 0.543507 0.344808
vt 0.528686 0.345647
vt 0.494656 0.335157
vt 0.489278 0.336482
vt 0.484818 0.367572
vt 0.482618 0.344931
vt 0.464788 0.376073
vt 0.463701 0.347098
vt 0.484876 0.330819
vt 0.46519 0.334201
vt 0.487808 0.312494
vt 0.467125 0.317451
vt 0.468366 0.300866
vt 0.445741 0.306449
vt 0.448233 0.28932
vt 0.409608 0.275323
vt 0.454813 0.257298
vt 0.415241 0.248604
vt 0.383145 0.259913
vt 0.359425 0.272731
vt 0.473963 0.271733
vt 0.492632 0.260695
vt 0.48596 0.278285
vt 0.361812 0.296469
vt 0.383308 0.284497
vt 0.477898 0.299536
vt 0.487808 0.312494
vt 0.318845 0.346067
vt 0.359087 0.332336
vt 0.314255 0.373982
vt 0.356989 0.359956
vt 0.383604 0.321399
vt 0.383832 0.349815
vt 0.410086 0.31304
vt 0.410455 0.342085
vt 0.443084 0.337761
vt 0.446114 0.371633
vt 0.44424 0.324139
vt 0.271861 0.386521
vt 0.711084 0.301232
vt 0.700195 0.340838
vt 0.682452 0.318358
vt 0.702497 0.295552
vt 0.715382 0.284723
vt 0.72539 0.290082
vt 0.74045 0.320659
vt 0.700195 0.340838
vt 0.75962 0.308411
vt 0.702386 0.277764
vt 0.691347 0.288176
vt 0.677264 0.311786
vt 0.682452 0.318358
vt 0.670528 0.303251
vt 0.721998 0.277293
vt 0.708829 0.270173
vt 0.729328 0.269061
vt 0.715966 0.261764
vt 0.739617 0.27468
vt 0.73214 0.282775
vt 0.774808 0.293899
vt 0.766826 0.301526
vt 0.748517 0.24596
vt 0.76219 0.261625
vt 0.782535 0.284932
vt 0.779976 0.251338
vt 0.788623 0.277867
vt 0.801415 0.248058
vt 0.801525 0.278393
vt 0.801383 0.239189
vt 0.777448 0.243581
vt 0.756242 0.25481
vt 0.801341 0.227671
vt 0.774165 0.233509
vt 0.802281 0.176369
vt 0.778908 0.173757
vt 0.701146 0.231322
vt 0.237649 0.513792
vt 0.262704 0.474705
vt 0.261811 0.493852
vt 0.261811 0.493852
vt 0.235748 0.52376
vt 0.557982 0.151909
vt 0.577927 0.135887
vt 0.562184 0.102007
vt 0.489703 0.115837
vt 0.454616 0.114581
vt 0.417364 0.116434
vt 0.383308 0.284497
vt 0.490582 0.327392
vt 0.49688 0.318776
vt 0.530353 0.330733
vt 0.541717 0.332101
vt 0.492275 0.315587
vt 0.691347 0.288176
vt 0.663562 0.270758
vt 0.702386 0.277764
vt 0.621556 0.292726
vt 0.638105 0.265449
vt 0.613756 0.288839
vt 0.535509 0.214616
vt 0.56679 0.21264
vt 0.589153 0.30783
vt 0.522475 0.243731
vt 0.506172 0.283509
vt 0.563795 0.3232
vt 0.49688 0.318776
vt 0.530353 0.330733
vt 0.4949 0.283401
vt 0.541717 0.332101
vt 0.568272 0.329291
vt 0.605407 0.314141
vt 0.568272 0.329291
vt 0.487808 0.312494
vt 0.647532 0.256486
vt 0.571388 0.203754
vt 0.657976 0.246556
vt 0.576481 0.19391
vt 0.586979 0.188313
vt 0.663453 0.237284
vt 0.595251 0.183903
vt 0.667768 0.229978
vt 0.652335 0.201066
vt 0.701146 0.231322
vt 0.695187 0.23946
vt 0.748517 0.24596
vt 0.774165 0.233509
vt 0.635621 0.181105
vt 0.664903 0.193071
vt 0.674978 0.260809
vt 0.687625 0.249787
vt 0.708829 0.270173
vt 0.715966 0.261764
vt 0.541717 0.332101
vt 0.568272 0.329291
vt 0.4949 0.283401
vt 0.487808 0.312494
vt 0.477898 0.299536
vt 0.670528 0.303251
vt 0.568272 0.329291
vt 0.543507 0.344808
vt 0.541717 0.332101
vt 0.802281 0.176369
vt 0.778908 0.173757
vt 0.776639 0.104666
vt 0.776639 0.104666
vt 0.778908 0.173757
vt 0.760589 0.129918
vt 0.724013 0.129824
vt 0.704791 0.10732
vt 0.79811 0.095232
vt 0.713636 0.073418
vt 0.778908 0.173757
vt 0.737204 0.162785
vt 0.664903 0.193071
vt 0.635621 0.181105
vt 0.637942 0.17244
vt 0.701146 0.231322
vt 0.664903 0.193071
vt 0.737204 0.162785
vt 0.724013 0.129824
vt 0.637942 0.17244
vt 0.704791 0.10732
vt 0.778908 0.173757
vt 0.701146 0.231322
vt 0.737204 0.162785
vt 0.487808 0.312494
vt 0.49688 0.318776
vt 0.492275 0.315587
vt 0.220224 0.558789
vt 0.211822 0.549012
vt 0.22698 0.543543
vt 0.22698 0.543543
vt 0.211822 0.549012
vt 0.215356 0.535544
vt 0.196962 0.591263
vt 0.211822 0.549012
vt 0.220224 0.558789
vt 0.383308 0.284497
vn 0.4099109 0.8955774 0.1729567
vn 0.6929239 0.6221023 0.3644796
vn 0.5334213 0.8440647 0.05492456
vn 0.5473774 0.7678835 0.3327653
vn 0.8661792 0.4921804 -0.08655602
vn 0.6929239 0.6221023 0.3644796
vn 0.8595809 0.5043655 -0.08207364
vn 0.820999 0.5601043 -0.1106515
vn 0.8982947 0.4311146 0.08489302
vn 0.6413921 0.7610588 0.09698261
vn 0.7849635 0.3728749 0.4947692
vn 0.858788 0.3972955 0.3234801
vn 0.9098056 0.312834 -0.2727426
vn 0.7375195 0.303606 -0.6032317
vn 0.8629605 0.2273534 -0.4512312
vn 0.8851548 0.1833961 -0.4276292
vn 0.9741325 0.1989619 0.1071446
vn 0.9926881 0.09652806 -0.07247695
vn 0.8812839 0.07484178 0.4666233
vn 0.9246324 0.02083967 0.3802903
vn 0.9691082 0.02153257 0.2456943
vn 0.9714424 0.0209226 0.2363512
vn 0.9946379 0.01435437 -0.1024178
vn 0.9638447 0.01182073 -0.2662023
vn 0.7140466 -0.01369362 -0.6999643
vn 0.681294 -0.01607407 -0.7318334
vn 0.1798982 -0.006685288 -0.9836625
vn 0.1651219 -0.005400036 -0.9862584
vn -0.4303942 0.007749713 -0.9026079
vn -0.3479204 0.009232745 -0.9374786
vn -0.6743263 0.1113732 -0.7299864
vn -0.5640417 0.1130799 -0.8179669
vn -0.2757142 0.09607136 -0.9564267
vn -0.4527705 0.1211616 -0.8833565
vn 0.04019053 0.02877449 -0.9987776
vn 0.1065227 0.02060406 -0.9940968
vn 0.05059281 0.01014822 -0.9986678
vn 0.1093184 -0.001423681 -0.9940058
vn 0.04691643 -0.01737615 -0.9987477
vn 0.1882221 -0.03501568 -0.9815021
vn 0.1593491 0.1414299 -0.9770392
vn 0.3160353 0.07198376 -0.9460127
vn 0.3465112 0.5523183 -0.7582048
vn 0.06446777 0.241099 -0.968357
vn 0.04411294 0.6834468 -0.7286662
vn -0.1449077 0.578801 -0.8024906
vn -0.4456162 0.4137375 -0.7938812
vn -0.367789 0.7025967 -0.6091709
vn -0.3945942 0.1864683 -0.899736
vn -0.5587946 0.1222262 -0.8202497
vn -0.2633867 -0.002857943 -0.9646862
vn 0.1215162 -0.04434073 -0.9915986
vn 0.697368 0.006589534 -0.7166829
vn 0.981563 0.03974367 -0.1869611
vn 0.9385813 0.1790076 0.294994
vn 0.9015765 0.01487093 0.4323642
vn 0.9952021 0.07765065 0.0595248
vn 0.9650625 0.2325537 0.1207191
vn 0.6343693 -0.0493624 -0.7714524
vn 0.08789436 -0.0609578 -0.9942629
vn -0.19949 0.003381913 -0.979894
vn -0.2657151 0.3127876 -0.9118988
vn 0.09951911 -0.03279464 -0.9944951
vn -0.1738515 0.00075385 -0.9847715
vn -0.269616 0.2143943 -0.9387983
vn 0.07766569 0.1849445 -0.9796752
vn -0.1567852 0.0009233753 -0.9876323
vn 0.09006523 0.1640173 -0.9823372
vn 0.5174152 0.3503 -0.7807505
vn 0.6193467 0.4167958 -0.6653502
vn 0.2016691 0.6097151 -0.7665358
vn -0.1780645 0.3133732 -0.9327863
vn 0.09908722 -0.03277573 -0.9945388
vn 0.6050352 -0.04757877 -0.7947758
vn 0.6054021 -0.04758671 -0.7944959
vn 0.7581002 0.02397803 -0.6516972
vn 0.818182 0.01912613 -0.5746412
vn 0.8159311 0.2899578 -0.5001809
vn 0.8800277 0.2720927 -0.3892515
vn 0.8071225 0.3607344 -0.4673585
vn 0.8231824 0.3614575 -0.4378577
vn 0.7597061 0.3715107 -0.5336912
vn 0.7528064 0.3716343 -0.5432959
vn 0.8057743 0.3211862 -0.4975614
vn 0.7959358 0.3212408 -0.5131184
vn 0.685755 0.3162023 -0.655558
vn 0.6776798 0.3162023 -0.6639022
vn 0.4786381 0.2767069 -0.83327
vn 0.4727204 0.2780314 -0.8362022
vn 0.4633071 0.3084423 -0.8307887
vn 0.505532 0.3272696 -0.7983307
vn 0.8868082 0.03584256 -0.4607456
vn 0.9412653 0.2841199 -0.1824709
vn 0.8271543 0.4746116 -0.3009314
vn 0.8792111 0.4662586 -0.09793305
vn 0.6866317 0.5498431 -0.4756147
vn 0.8052651 0.5457799 -0.2316734
vn 0.7806794 0.4929529 -0.3841056
vn 0.7203747 0.5513403 -0.4208136
vn 0.7270511 0.4872617 -0.4837073
vn 0.87644 0.1227911 -0.4655914
vn 0.8792111 0.4662586 -0.09793305
vn 0.8324717 0.1328162 -0.5379133
vn 0.5013064 0.5308205 -0.6833166
vn 0.7632707 0.2402446 -0.5997502
vn 0.7289298 0.1634701 -0.6647848
vn 0.5530493 0.5538346 -0.6224175
vn 0.4168573 0.5161256 -0.7482274
vn 0.1845575 0.4800303 -0.8576185
vn 0.4608271 0.2254994 -0.8583639
vn 0.4280453 0.5785109 -0.6943359
vn 0.2831356 0.5335904 -0.7969413
vn 0.6691226 0.5458285 -0.5043275
vn 0.4836992 0.8361259 -0.2587057
vn 0.2258832 0.877925 -0.4221662
vn 0.3772881 0.9094976 -0.17455
vn 0.8022476 0.5591806 -0.209083
vn 0.209925 0.9078972 -0.3628419
vn 0.3698999 0.8642502 -0.3409481
vn 0.1104307 0.9597146 -0.258366
vn 0.1496449 0.9527806 -0.2642263
vn 0.09178451 0.985536 -0.1424581
vn 0.09199345 0.9856274 -0.1416892
vn 0.6413921 0.7610588 0.09698261
vn 0.5024085 0.8513131 -0.1511677
vn 0.5359755 0.8376949 0.1048689
vn 0.5407345 0.8293132 -0.1408749
vn 0.3662814 0.8451614 -0.3892816
vn 0.3733082 0.8372065 -0.3996578
vn 0.6701061 0.6467547 -0.3642336
vn 0.5407345 0.8293132 -0.1408749
vn 0.8599656 0.499301 -0.1056299
vn 0.6413921 0.7610588 0.09698261
vn 0.3733082 0.8372065 -0.3996578
vn 0.02853561 0.8424298 -0.5380499
vn 0.4018898 0.7340122 -0.5474583
vn 0.2377914 0.5616837 -0.7924435
vn 0.02853561 0.8424298 -0.5380499
vn -0.3238724 0.7937407 -0.5148616
vn 0.1957426 0.4727452 -0.8591838
vn -0.5326751 0.4585961 -0.7112994
vn -0.6875097 0.3458079 -0.638551
vn -0.3097208 0.3467858 -0.885332
vn -0.1596312 0.5682771 -0.8072044
vn -0.3869434 0.1758442 -0.9051815
vn 0.1957426 0.4727452 -0.8591838
vn 0.5318261 0.4749942 -0.7011003
vn 0.8728576 0.2377511 -0.4261383
vn 0.9710963 0.2373405 -0.02532464
vn 0.8772896 0.2189823 0.4270944
vn 0.9381256 0.2968024 -0.178406
vn -0.4456162 0.4137375 -0.7938812
vn -0.2080547 0.2691322 -0.9403622
vn 0.05324575 0.9513479 -0.3034831
vn -0.05681142 0.7645295 -0.6420803
vn -0.1449077 0.578801 -0.8024906
vn 0.05324575 0.9513479 -0.3034831
vn 0.3118667 0.7392389 -0.5968795
vn 0.04411294 0.6834468 -0.7286662
vn 0.3894009 0.8844373 -0.2571723
vn 0.3894009 0.8844373 -0.2571723
vn 0.4926965 0.8522605 -0.1757905
vn 0.3654726 0.8099787 -0.4586547
vn 0.363387 0.1770462 -0.9146609
vn 0.6046008 -0.03184275 -0.7958919
vn 0.1593491 0.1414299 -0.9770392
vn 0.1302545 0.5758007 -0.8071476
vn 0.3879116 0.6314675 -0.6713966
vn 0.06242475 0.06582826 -0.9958763
vn 0.7375195 0.303606 -0.6032317
vn 0.2655401 0.1363202 -0.9544135
vn 0.5701093 0.4388267 -0.6945549
vn -0.2018791 0.06530536 -0.9772308
vn 0.06242475 0.06582826 -0.9958763
vn -0.0908087 0.06132404 -0.9939784
vn -0.1494369 0.0368369 -0.9880849
vn -0.1429424 0.07306097 -0.9870307
vn -0.0519991 0.06917929 -0.9962481
vn -0.1566088 0.1054813 -0.9820119
vn -0.1330853 0.2194675 -0.9665001
vn 0.123983 0.4164536 -0.9006634
vn 0.1293265 0.2756807 -0.9525098
vn 0.1845575 0.4800303 -0.8576185
vn 0.4280453 0.5785109 -0.6943359
vn -0.05552037 0.0200457 -0.9982563
vn 0.2590941 0.1555437 -0.9532452
vn -0.0691927 0.04901895 -0.9963982
vn 0.02836218 0.08960385 -0.9955735
vn -0.0708037 0.1602737 -0.98453
vn 0.04294359 0.07019003 -0.9966089
vn -0.04643351 0.07581987 -0.9960397
vn -0.04585534 0.4200161 -0.9063574
vn -0.1068216 0.514814 -0.8506208
vn -0.2657151 0.3127876 -0.9118988
vn -0.3410296 0.3261015 -0.8816783
vn 0.0153546 0.6338671 -0.7732896
vn 0.06204356 0.7299339 -0.680696
vn -0.2603545 0.3616715 -0.8952147
vn 0.6624213 0.5032091 -0.5549581
vn 0.7900546 0.6114052 -0.04469228
vn 0.6975129 0.4594189 -0.5499182
vn 0.8663607 0.4980292 -0.03722777
vn 0.8231188 0.5613143 0.08603261
vn 0.7733052 0.5894753 -0.2334907
vn 0.9676572 0.1818938 0.1747972
vn 0.8079211 0.5574687 -0.1910291
vn 0.886483 0.4605172 0.04551587
vn 0.4093759 0.8415774 -0.3523619
vn 0.6928883 0.7170419 0.07587405
vn 0.4699454 0.8815918 -0.04412664
vn 0.8637246 0.2011997 0.4620587
vn 0.9676572 0.1818938 0.1747972
vn 0.9676572 0.1818938 0.1747972
vn 0.1735561 0.3703321 -0.9125418
vn -0.3097208 0.3467858 -0.885332
vn 0.1798982 -0.006685288 -0.9836625
vn 0.7346783 0.6774829 0.03556302
vn 0.7448713 0.6243498 0.2352747
vn 0.8277475 0.5575048 -0.06342278
vn 0.8514926 0.5234799 -0.03048338
vn 0.7442488 0.5305182 -0.4057635
vn 0.9055903 0.4148827 -0.0881957
vn 0.7276507 0.6617057 -0.1807487
vn 0.7460942 0.6276328 0.2223072
vn 0.7228362 0.6902969 -0.03159106
vn 0.7563398 0.6187857 0.2122599
vn 0.7899299 0.6117864 -0.04157239
vn 0.8231188 0.5613143 0.08603261
vn 0.7801387 0.5230016 -0.3432972
vn 0.8164656 0.4732926 -0.3307234
vn 0.698361 0.5331353 -0.4775548
vn 0.4224141 0.5496468 -0.7207321
vn 0.4812412 0.5634369 -0.671525
vn 0.7583213 0.485827 -0.4346503
vn 0.761791 0.5824211 -0.283655
vn 0.3253698 0.7147617 -0.6190721
vn 0.139284 0.6372969 -0.7579265
vn 0.1063994 0.811923 -0.5739863
vn 0.2216413 0.84545 -0.4858903
vn 0.1030964 0.8109758 -0.5759248
vn 0.2242253 0.8461637 -0.4834563
vn 0.09944551 0.8099045 -0.5780703
vn 0.07693797 0.809804 -0.5816339
vn 0.08954829 0.8131574 -0.575114
vn 0.1536477 0.8473371 -0.5083426
vn 0.183851 0.8532116 -0.4880868
vn 0.2968098 0.8927908 -0.3388634
vn 0.3162617 0.8929434 -0.32036
vn 0.4618495 0.8747166 -0.1468534
vn 0.4476895 0.8788893 -0.1647051
vn 0.5116927 0.8525828 -0.1061749
vn 0.5134322 0.8521537 -0.1011008
vn 0.4593006 0.8765411 -0.1439394
vn 0.5146328 0.8386866 -0.1782076
vn 0.5343331 0.8438463 -0.04910747
vn 0.3560435 0.934247 0.02038539
vn 0.2489703 0.9684617 -0.009784559
vn -0.05641596 0.9981895 0.02085699
vn 0.07129106 0.9932072 -0.09196246
vn 0.2820417 0.9400464 -0.1917429
vn 0.1408185 0.981846 -0.1270763
vn 0.1759445 0.9605248 -0.2154891
vn 0.2950809 0.8833193 -0.3642449
vn 0.1263802 0.8386393 -0.5298228
vn 0.05646503 0.960125 -0.2738097
vn 0.08030634 0.8236693 -0.5613553
vn 0.03092224 0.9210443 -0.3882282
vn 0.08169629 0.8208937 -0.5652072
vn 0.01436661 0.8695614 -0.4936158
vn 0.2221717 0.8596538 -0.460038
vn 0.2407548 0.8679891 -0.434318
vn 0.3432572 0.8621883 -0.3725668
vn 0.1413226 0.7853729 -0.6026752
vn 0.1491124 0.759699 -0.6329477
vn -0.2453696 0.4213488 -0.8730744
vn 0.4284684 0.883477 -0.1894286
vn -0.04407512 0.9948474 -0.09130259
vn 0.2268164 0.8468904 -0.4809686
vn 0.4288541 0.8619847 -0.270308
vn 0.3998457 0.8622672 -0.3108354
vn 0.4823161 0.8404387 -0.2470503
vn 0.3956527 0.8389183 -0.3737314
vn 0.5334634 0.8307065 -0.1591965
vn 0.4455083 0.8608317 -0.2459495
vn 0.6308619 0.7333342 -0.2534448
vn 0.5614192 0.7111688 -0.4231402
vn -0.05644684 0.1728368 -0.9833317
vn 0.06887908 0.1776735 -0.981676
vn 0.0009365358 0.3137738 -0.9494973
vn -0.1045555 0.02939456 -0.9940847
vn 0.09672525 0.1596275 -0.9824272
vn 0.09561957 -0.0016116 -0.9954166
vn 0.5984157 0.2261862 -0.7685952
vn 0.6044906 -0.002531046 -0.7966083
vn 0.6331127 0.2175182 -0.7428688
vn 0.6152086 0.02311951 -0.7880252
vn 0.5405219 0.1526064 -0.8273738
vn 0.6158764 0.1585159 -0.7717311
vn 0.8577325 0.1513469 -0.4913135
vn 0.8716832 0.2259291 -0.4348843
vn 0.9173524 0.05642013 -0.3940577
vn 0.8168041 0.1975173 -0.5420498
vn 0.8744474 0.05712613 -0.4817452
vn 0.8845996 0.1704215 -0.4340968
vn 0.936654 0.09720629 -0.3364967
vn 0.8274033 -0.07832712 -0.5561193
vn 0.9480751 -0.03715852 -0.3158686
vn 0.7520326 -0.01174463 -0.6590212
vn 0.5819425 -0.02140063 -0.8129482
vn 0.794383 0.2047073 -0.5718833
vn 0.8676102 0.1754334 -0.4652695
vn 0.7021674 0.1978773 -0.6839631
vn 0.8284295 0.08777396 -0.5531728
vn 0.8514518 0.2391823 -0.4667139
vn 0.7208894 0.1561099 -0.6752392
vn 0.666772 0.02410059 -0.7448719
vn 0.6041182 -0.00252608 -0.7968906
vn 0.09595403 -0.001610237 -0.9953845
vn -0.1252266 0.02700785 -0.9917605
vn 0.1099988 0.1980689 -0.9739963
vn 0.7839197 0.283205 -0.5525077
vn 0.8166282 0.3013993 -0.4922163
vn 0.7683928 0.2134371 -0.6033382
vn 0.7015875 0.002074944 -0.7125803
vn 0.6050241 -0.0243872 -0.7958336
vn 0.09704185 -0.0159032 -0.9951532
vn -0.1381159 0.01212529 -0.9903418
vn 0.07130448 0.1602333 -0.9845004
vn 0.429573 0.3824549 -0.8180435
vn 0.1859867 0.2920469 -0.9381458
vn 0.5722287 0.4142469 -0.7077809
vn 0.09432075 0.1488471 -0.9843516
vn 0.3849792 0.2118382 -0.8982849
vn 0.07293475 0.03444591 -0.9967417
vn 0.01864581 -0.04655858 -0.9987416
vn 0.1550116 0.1249495 -0.9799792
vn 0.1113814 0.05373928 -0.9923236
vn -0.05181849 0.02319678 -0.9983871
vn 0.1935507 0.3324573 -0.923044
vn 0.250569 0.2780378 -0.9273134
vn 0.6084678 0.201512 -0.7675675
vn -0.07168121 0.1738311 -0.9821633
vn -0.1639273 0.01726559 -0.9863214
vn 0.6590062 0.1964257 -0.7260357
vn 0.3630484 0.2783542 -0.8892215
vn 0.4243955 0.3239202 -0.8455555
vn 0.3655174 0.416204 -0.832569
vn 0.4368805 0.345966 -0.830327
vn 0.6895556 0.2658315 -0.6736814
vn 0.8328644 0.2568071 -0.4902927
vn 0.08361638 0.2139973 -0.973249
vn 0.3188615 0.06167538 -0.9457926
vn 0.4766899 -0.02971988 -0.8785689
vn 0.02374577 -0.04737195 -0.9985951
vn 0.1003666 0.05278129 -0.9935495
vn 0.3798409 0.02659083 -0.9246696
vn 0.4057229 0.05471859 -0.9123567
vn 0.09006722 0.1105406 -0.9897821
vn -0.0879555 0.2931622 -0.9520082
vn 0.02407827 -0.02406478 -0.9994204
vn 0.5320578 -0.02256982 -0.8464071
vn 0.7916306 -0.08397824 -0.6052015
vn 0.9652148 -0.02901641 -0.2598432
vn 0.9915581 -0.003068103 -0.1296272
vn 0.9523995 0.0258801 -0.3037523
vn 0.9742716 0.02482763 -0.2240058
vn 0.8926153 0.1003608 -0.4395061
vn 0.946674 0.1577281 -0.2809454
vn 0.9939623 0.06381766 -0.08925278
vn 0.9594237 0.2492499 -0.1318354
vn 0.9683536 0.2352095 0.0834728
vn 0.9597682 0.2731808 -0.06494107
vn 0.8065903 0.5907954 -0.01930953
vn 0.8572477 0.3663138 -0.3618571
vn 0.6610644 0.7082777 -0.2476622
vn 0.5647098 0.676754 -0.472342
vn 0.4327504 0.8827192 -0.1831231
vn 0.341789 0.8922299 -0.2951373
vn 0.2206731 0.8588235 -0.4623045
vn 0.10353 0.8166645 -0.5677506
vn 0.5236558 0.8478876 -0.08289322
vn 0.5001913 0.8625561 -0.07619476
vn 0.5668588 0.8221681 0.05206585
vn 0.1030191 0.5961721 -0.7962197
vn 0.2832144 0.6622047 -0.6937396
vn 0.6881173 0.7145479 0.1261583
vn 0.9065523 0.4147964 0.07814548
vn 0.09857524 0.3616915 -0.9270719
vn 0.07689527 0.2974366 -0.95164
vn 0.03121589 0.3312613 -0.9430225
vn 0.08895271 0.2994205 -0.9499657
vn 0.3893431 0.4049765 -0.8272884
vn 0.4843564 0.413743 -0.7708538
vn 0.6911631 0.4515396 -0.5642744
vn 0.6842874 0.4397978 -0.5816603
vn 0.8139264 0.3323992 -0.4764814
vn 0.7075351 0.2620788 -0.6562841
vn 0.8475367 0.3577431 -0.3920478
vn 0.3687004 0.5223786 -0.7688827
vn -0.6028652 0.03386443 -0.797124
vn -0.1820062 0.09401496 -0.9787926
vn -0.1639273 0.01726559 -0.9863214
vn -0.6252781 0.035011 -0.7796164
vn -0.6048228 0.07423078 -0.7928929
vn -0.5735968 0.07181133 -0.815984
vn -0.5677043 0.04634346 -0.8219271
vn -0.07168121 0.1738311 -0.9821633
vn -0.5338068 0.07098498 -0.8426217
vn -0.6224232 0.07436186 -0.7791404
vn -0.6395006 0.02066238 -0.7685129
vn -0.6363049 0.004582235 -0.7714242
vn -0.4316674 -0.00410294 -0.9020234
vn -0.6468565 -0.01099175 -0.7625325
vn -0.6059252 0.1051287 -0.7885445
vn -0.619719 0.116634 -0.7761089
vn -0.4581554 0.1165974 -0.8811917
vn -0.4700242 0.1184577 -0.8746685
vn -0.4436627 0.1150629 -0.8887766
vn -0.5815156 0.1026566 -0.8070324
vn -0.4138725 0.1143525 -0.903124
vn -0.5511386 0.09016879 -0.8295274
vn -0.2903076 0.1123175 -0.9503191
vn -0.2692771 0.1229432 -0.9551832
vn -0.2452038 0.1382784 -0.9595594
vn -0.03131207 0.2144479 -0.9762333
vn 0.04779766 0.2366117 -0.9704278
vn 0.1867981 0.2641062 -0.9462317
vn 0.1732572 0.255387 -0.9511884
vn 0.1976079 0.2663018 -0.9434164
vn -0.03767952 0.2129085 -0.9763454
vn -0.2829544 0.1211378 -0.9514528
vn 0.2044217 0.2645037 -0.9424699
vn 0.01284262 0.1894623 -0.981804
vn 0.009062435 0.46404 -0.8857679
vn 0.1046912 0.3990085 -0.9109512
vn 0.2802671 0.2243025 -0.9333481
vn 0.5800778 0.5850168 -0.5668026
vn 0.4489584 0.4179975 -0.7897559
vn 0.1859867 0.2920469 -0.9381458
vn 0.2535265 0.3482298 -0.9024746
vn 0.702536 0.529321 -0.4756704
vn 0.001570442 0.9945419 -0.1043259
vn 0.07266673 0.9861131 -0.1493336
vn 0.04899174 0.9924201 -0.1127037
vn 0.09761723 0.9885724 -0.1148714
vn 0.154669 0.9848813 -0.07801561
vn 0.02912937 0.9995586 0.005823979
vn 0.3241306 0.722941 -0.6101604
vn 0.9962779 0.005302635 -0.08603706
vn 0.9847367 -0.01156917 -0.1736657
vn 0.8022653 -0.0990173 -0.5886984
vn 0.5403641 -0.03766333 -0.840588
vn 0.9984427 0.01203771 -0.05447374
vn 0.005311802 0.9964674 0.0838128
vn 0.02438704 0.9951525 0.09527234
vn -0.001113222 0.9970487 0.07676349
vn 0.08233453 0.9782973 0.1901455
vn 0.05597875 0.9915389 0.117119
vn 0.07095359 0.9818985 0.1756158
vn -0.01074465 0.9999305 0.004844985
vn 0.0001688118 1 -0.0001271269
vn -0.1922117 0.9809867 0.02683147
vn -0.1500947 0.9878826 0.0394918
vn -0.3807471 0.9243471 0.02478006
vn -0.2359695 0.9470995 -0.2175338
vn -0.3181007 0.9418748 -0.1080916
vn -0.06247205 0.9683198 -0.2417726
vn -0.6503463 0.6522728 -0.3893454
vn -0.04003171 0.9058638 -0.4216732
vn -0.272545 0.8095185 -0.519999
vn 0.03990156 0.9767525 0.2106242
vn -0.2307338 0.9366069 -0.2636842
vn -0.5092435 0.7838725 -0.3552674
vn 0.03196836 0.9978745 0.05678523
vn 0.001034196 0.9999993 -0.0007024459
vn 0.04244201 0.9967467 0.06851844
vn 0.001475346 0.9999983 -0.001087312
vn 0.0006535417 0.9999992 -0.001089471
vn 0.03545217 0.9979175 0.0538872
vn 0.0005299805 0.9999985 -0.001674003
vn 0.06045571 0.9954801 0.07324246
vn 0.1335623 0.9896278 0.05289458
vn 0.1544838 0.9814147 0.1138415
vn 0.09494247 0.9852198 0.142575
vn 0.1352626 0.9877615 0.07766134
vn 0.1850608 0.9807366 0.06251596
vn 0.2694394 0.9629728 -0.00926341
vn 0.3544385 0.9345855 0.03038257
vn 0.05827383 0.992844 0.1042339
vn 0.06516056 0.9954247 0.06988442
vn -0.003845177 0.9991286 0.04155996
vn 0.04939674 0.9985493 -0.0214268
vn 0.08082925 0.7101132 -0.6994326
vn -0.1572496 0.6989095 -0.6977091
vn -0.6503463 0.6522728 -0.3893454
vn -0.6928869 0.5350211 -0.483384
vn -0.707489 0.2420738 -0.6639726
vn 0.02197671 0.9956613 0.09041899
vn 0.01425209 0.1667691 -0.985893
vn 0.5320578 -0.02256982 -0.8464071
vn 0.4485162 0.2114575 -0.8684003
vn 0.009062435 0.46404 -0.8857679
vn 0.07271405 0.7281057 -0.6815972
vn 0.04971209 0.9625484 -0.2665133
vn 0.04971209 0.9625484 -0.2665133
vn 0.04433504 0.8862895 -0.4610047
vn 0.05190025 0.9340661 -0.3533086
vn -0.03723607 0.953931 -0.2977064
vn 0.08153676 0.9957284 -0.0433211
vn 0.08325201 0.9952888 -0.04968945
vn 0.08437294 0.9948991 -0.05529106
vn -0.03475075 0.9530424 -0.3008362
vn -0.1052009 0.9550568 -0.2771269
vn 0.7409823 0.6489893 0.1725056
vn 0.2694394 0.9629728 -0.00926341
vn 0.8657473 0.4801438 -0.1412218
vn 0.8548184 0.1415195 0.4992572
vn 0.9017116 0.3845509 0.197577
vn 0.8741443 0.1353284 0.4664311
vn 0.9756773 0.2154288 0.04054869
vn 0.8657473 0.4801438 -0.1412218
vn 0.9551376 0.2435596 -0.1684966
vn 0.1518621 0.560436 -0.8141556
vn 0.2802671 0.2243025 -0.9333481
vn 0.3360143 0.2690454 -0.9026123
vn 0.07007044 0.9942786 -0.08062448
vn -0.3181007 0.9418748 -0.1080916
vn 0 1 0
vn 0.4368452 0.5564033 -0.7068108
vn 0.5933737 0.7710761 -0.2309746
vn 0.6624213 0.5032091 -0.5549581
vn 0.8109906 0.5374262 -0.2312301
vn 0.5933737 0.7710761 -0.2309746
vn 0.7900546 0.6114052 -0.04469228
vn -0.0669128 0.9402317 -0.3338967
vn 0.5933737 0.7710761 -0.2309746
vn 0.1381316 0.8828609 -0.448861
vn 0.2537569 0.5888845 -0.7673478
g Waterfall_Water_mesh_0
f 3/3/3 2/2/2 1/1/1
f 5/5/5 2/2/2 4/4/4
f 8/8/8 7/7/7 6/6/6
f 9/9/9 7/7/7 8/8/8
f 9/9/9 10/10/10 7/7/7
f 11/11/11 10/10/10 9/9/9
f 10/10/10 11/11/11 12/12/12
f 13/13/13 9/9/9 8/8/8
f 13/13/13 8/8/8 14/14/14
f 15/15/15 13/13/13 14/14/14
f 16/16/16 13/13/13 15/15/15
f 16/16/16 17/17/17 13/13/13
f 17/17/17 9/9/9 13/13/13
f 17/17/17 11/11/11 9/9/9
f 18/18/18 17/17/17 16/16/16
f 18/18/18 19/19/19 17/17/17
f 19/19/19 11/11/11 17/17/17
f 20/20/20 19/19/19 18/18/18
f 20/20/20 21/21/21 19/19/19
f 22/22/22 21/21/21 20/20/20
f 22/22/22 23/23/23 21/21/21
f 24/24/24 23/23/23 22/22/22
f 24/24/24 25/25/25 23/23/23
f 26/26/26 25/25/25 24/24/24
f 26/26/26 27/27/27 25/25/25
f 28/28/28 27/27/27 26/26/26
f 28/28/28 29/29/29 27/27/27
f 30/30/30 29/29/29 28/28/28
f 30/30/30 31/31/31 29/29/29
f 32/32/32 31/31/31 30/30/30
f 32/32/32 33/33/33 31/31/31
f 34/34/34 33/33/33 32/32/32
f 34/34/34 35/35/35 33/33/33
f 33/33/33 35/35/35 36/36/36
f 35/35/35 37/37/37 36/36/36
f 36/36/36 37/37/37 38/38/38
f 37/37/37 39/39/39 38/38/38
f 38/38/38 39/39/39 40/40/40
f 38/38/38 40/40/40 41/41/41
f 41/41/41 36/36/36 38/38/38
f 41/41/41 40/40/40 42/42/42
f 42/42/42 43/43/43 41/41/41
f 44/44/44 36/36/36 41/41/41
f 44/44/44 33/33/33 36/36/36
f 41/41/41 45/45/45 44/44/44
f 45/45/45 46/46/46 44/44/44
f 44/44/44 46/46/46 47/47/47
f 47/47/47 46/46/46 48/48/48
f 49/49/49 35/35/35 34/34/34
f 49/49/49 34/34/34 50/50/50
f 50/50/50 34/34/34 32/32/32
f 50/50/50 32/32/32 51/51/51
f 51/51/51 32/32/32 30/30/30
f 51/51/51 30/30/30 52/52/52
f 52/52/52 30/30/30 28/28/28
f 52/52/52 28/28/28 53/53/53
f 53/53/53 28/28/28 26/26/26
f 53/53/53 26/26/26 54/54/54
f 54/54/54 26/26/26 24/24/24
f 54/54/54 24/24/24 22/22/22
f 54/54/54 22/22/22 55/55/55
f 55/55/55 22/22/22 56/56/56
f 57/57/57 55/55/55 56/56/56
f 58/58/58 55/55/55 57/57/57
f 59/59/59 52/52/52 53/53/53
f 60/60/60 52/52/52 59/59/59
f 60/60/60 51/51/51 52/52/52
f 61/61/61 51/51/51 60/60/60
f 61/61/61 50/50/50 51/51/51
f 62/62/62 50/50/50 61/61/61
f 63/63/63 61/61/61 60/60/60
f 64/64/64 61/61/61 63/63/63
f 64/64/64 65/65/65 61/61/61
f 66/66/66 62/62/62 64/64/64
f 67/67/67 66/66/66 64/64/64
f 68/68/68 66/66/66 67/67/67
f 68/68/68 69/69/69 66/66/66
f 66/66/66 69/69/69 70/70/70
f 71/71/71 66/66/66 70/70/70
f 72/72/72 66/66/66 71/71/71
f 67/67/67 64/64/64 73/73/73
f 73/73/73 64/64/64 63/63/63
f 73/73/73 63/63/63 74/74/74
f 74/74/74 63/63/63 75/75/75
f 63/63/63 60/60/60 75/75/75
f 74/74/74 75/75/75 76/76/76
f 76/76/76 75/75/75 77/77/77
f 76/76/76 77/77/77 78/78/78
f 78/78/78 77/77/77 79/79/79
f 78/78/78 79/79/79 80/80/80
f 80/80/80 79/79/79 81/81/81
f 80/80/80 81/81/81 82/82/82
f 82/82/82 81/81/81 83/83/83
f 82/82/82 83/83/83 84/84/84
f 84/84/84 83/83/83 85/85/85
f 84/84/84 85/85/85 86/86/86
f 86/86/86 85/85/85 87/87/87
f 86/86/86 87/87/87 88/88/88
f 88/88/88 87/87/87 89/89/89
f 88/88/88 89/89/89 90/90/90
f 90/90/90 89/89/89 91/91/91
f 77/77/77 92/92/92 79/79/79
f 77/77/77 59/59/59 92/92/92
f 59/59/59 53/53/53 92/92/92
f 92/92/92 53/53/53 54/54/54
f 92/92/92 54/54/54 93/93/93
f 93/93/93 54/54/54 55/55/55
f 93/93/93 55/55/55 94/94/94
f 94/94/94 55/55/55 95/95/95
f 81/81/81 93/93/93 94/94/94
f 79/79/79 93/93/93 81/81/81
f 79/79/79 92/92/92 93/93/93
f 81/81/81 94/94/94 83/83/83
f 83/83/83 94/94/94 96/96/96
f 94/94/94 97/97/97 96/96/96
f 96/96/96 97/97/97 98/98/98
f 96/96/96 98/98/98 99/99/99
f 99/99/99 98/98/98 100/100/100
f 98/98/98 101/101/101 100/100/100
f 98/98/98 57/57/57 101/101/101
f 57/57/57 18/18/18 101/101/101
f 101/101/101 18/18/18 16/16/16
f 102/102/102 57/57/57 98/98/98
f 100/100/100 101/101/101 103/103/103
f 101/101/101 16/16/16 103/103/103
f 100/100/100 103/103/103 104/104/104
f 104/104/104 103/103/103 105/105/105
f 103/103/103 16/16/16 15/15/15
f 103/103/103 15/15/15 105/105/105
f 105/105/105 15/15/15 106/106/106
f 15/15/15 14/14/14 106/106/106
f 99/99/99 100/100/100 107/107/107
f 107/107/107 100/100/100 104/104/104
f 107/107/107 104/104/104 108/108/108
f 108/108/108 104/104/104 109/109/109
f 104/104/104 110/110/110 109/109/109
f 89/89/89 107/107/107 108/108/108
f 87/87/87 107/107/107 89/89/89
f 87/87/87 99/99/99 107/107/107
f 85/85/85 99/99/99 87/87/87
f 85/85/85 96/96/96 99/99/99
f 83/83/83 96/96/96 85/85/85
f 89/89/89 108/108/108 91/91/91
f 91/91/91 108/108/108 111/111/111
f 108/108/108 112/112/112 111/111/111
f 14/14/14 8/8/8 113/113/113
f 8/8/8 114/114/114 113/113/113
f 114/114/114 116/116/116 115/115/115
f 116/116/116 114/114/114 117/117/117
f 115/115/115 119/119/119 118/118/118
f 115/115/115 118/118/118 120/120/120
f 120/120/120 118/118/118 121/121/121
f 122/122/122 120/120/120 121/121/121
f 123/123/123 120/120/120 122/122/122
f 126/126/126 125/125/125 124/124/124
f 125/125/125 128/128/128 127/127/127
f 127/127/127 130/130/130 129/129/129
f 133/133/133 132/132/132 131/131/131
f 136/136/136 135/135/135 134/134/134
f 137/137/137 135/135/135 136/136/136
f 140/140/140 139/139/139 138/138/138
f 139/139/139 48/48/48 138/138/138
f 139/139/139 141/141/141 48/48/48
f 142/142/142 141/141/141 139/139/139
f 143/143/143 142/142/142 139/139/139
f 144/144/144 139/139/139 140/140/140
f 31/31/31 141/141/141 142/142/142
f 31/31/31 142/142/142 29/29/29
f 29/29/29 142/142/142 145/145/145
f 29/29/29 145/145/145 27/27/27
f 27/27/27 146/146/146 25/25/25
f 25/25/25 146/146/146 147/147/147
f 25/25/25 148/148/148 23/23/23
f 23/23/23 149/149/149 21/21/21
f 21/21/21 149/149/149 150/150/150
f 21/21/21 150/150/150 19/19/19
f 19/19/19 150/150/150 11/11/11
f 23/23/23 151/151/151 149/149/149
f 33/33/33 152/152/152 31/31/31
f 153/153/153 33/33/33 44/44/44
f 156/156/156 155/155/155 154/154/154
f 159/159/159 158/158/158 157/157/157
f 157/157/157 158/158/158 160/160/160
f 163/163/163 162/162/162 161/161/161
f 165/165/165 164/164/164 42/42/42
f 168/168/168 167/167/167 166/166/166
f 171/171/171 170/170/170 169/169/169
f 170/170/170 172/172/172 169/169/169
f 175/175/175 174/174/174 173/173/173
f 173/173/173 174/174/174 176/176/176
f 173/173/173 176/176/176 177/177/177
f 177/177/177 176/176/176 178/178/178
f 179/179/179 173/173/173 177/177/177
f 179/179/179 175/175/175 173/173/173
f 180/180/180 175/175/175 179/179/179
f 181/181/181 180/180/180 179/179/179
f 182/182/182 179/179/179 177/177/177
f 183/183/183 179/179/179 182/182/182
f 184/184/184 183/183/183 182/182/182
f 174/174/174 185/185/185 176/176/176
f 174/174/174 186/186/186 185/185/185
f 176/176/176 185/185/185 187/187/187
f 176/176/176 187/187/187 178/178/178
f 178/178/178 187/187/187 188/188/188
f 189/189/189 35/35/35 49/49/49
f 189/189/189 37/37/37 35/35/35
f 190/190/190 37/37/37 189/189/189
f 190/190/190 39/39/39 37/37/37
f 191/191/191 39/39/39 190/190/190
f 190/190/190 192/192/192 191/191/191
f 193/193/193 192/192/192 190/190/190
f 189/189/189 193/193/193 190/190/190
f 194/194/194 193/193/193 189/189/189
f 49/49/49 194/194/194 189/189/189
f 50/50/50 195/195/195 49/49/49
f 193/193/193 197/197/197 196/196/196
f 198/198/198 197/197/197 193/193/193
f 201/201/201 200/200/200 199/199/199
f 203/203/203 200/200/200 202/202/202
f 204/204/204 203/203/203 202/202/202
f 207/207/207 206/206/206 205/205/205
f 210/210/210 209/209/209 208/208/208
f 213/213/213 212/212/212 211/211/211
f 216/216/216 215/215/215 214/214/214
f 219/219/219 218/218/218 217/217/217
f 220/220/220 218/218/218 219/219/219
f 221/221/221 219/219/219 217/217/217
f 222/222/222 219/219/219 221/221/221
f 223/223/223 221/221/221 217/217/217
f 218/218/218 224/224/224 217/217/217
f 217/217/217 224/224/224 225/225/225
f 224/224/224 226/226/226 225/225/225
f 225/225/225 226/226/226 227/227/227
f 226/226/226 228/228/228 227/227/227
f 229/229/229 220/220/220 219/219/219
f 230/230/230 220/220/220 229/229/229
f 231/231/231 230/230/230 229/229/229
f 231/231/231 229/229/229 232/232/232
f 232/232/232 229/229/229 233/233/233
f 229/229/229 219/219/219 233/233/233
f 234/234/234 230/230/230 231/231/231
f 235/235/235 219/219/219 222/222/222
f 236/236/236 231/231/231 232/232/232
f 236/236/236 232/232/232 237/237/237
f 238/238/238 236/236/236 237/237/237
f 239/239/239 236/236/236 238/238/238
f 240/240/240 239/239/239 238/238/238
f 241/241/241 239/239/239 240/240/240
f 242/242/242 241/241/241 240/240/240
f 242/242/242 240/240/240 243/243/243
f 243/243/243 240/240/240 244/244/244
f 240/240/240 238/238/238 244/244/244
f 243/243/243 244/244/244 245/245/245
f 245/245/245 244/244/244 246/246/246
f 245/245/245 246/246/246 247/247/247
f 247/247/247 246/246/246 248/248/248
f 247/247/247 248/248/248 249/249/249
f 249/249/249 248/248/248 250/250/250
f 249/249/249 250/250/250 251/251/251
f 251/251/251 250/250/250 252/252/252
f 251/251/251 252/252/252 253/253/253
f 254/254/254 251/251/251 253/253/253
f 255/255/255 251/251/251 254/254/254
f 255/255/255 249/249/249 251/251/251
f 256/256/256 255/255/255 254/254/254
f 257/257/257 255/255/255 256/256/256
f 258/258/258 257/257/257 256/256/256
f 259/259/259 257/257/257 258/258/258
f 259/259/259 260/260/260 257/257/257
f 261/261/261 260/260/260 259/259/259
f 261/261/261 262/262/262 260/260/260
f 262/262/262 263/263/263 260/260/260
f 262/262/262 264/264/264 263/263/263
f 265/265/265 264/264/264 262/262/262
f 265/265/265 266/266/266 264/264/264
f 267/267/267 266/266/266 265/265/265
f 267/267/267 268/268/268 266/266/266
f 269/269/269 268/268/268 267/267/267
f 269/269/269 270/270/270 268/268/268
f 271/271/271 270/270/270 269/269/269
f 271/271/271 272/272/272 270/270/270
f 273/273/273 272/272/272 271/271/271
f 273/273/273 274/274/274 272/272/272
f 275/275/275 274/274/274 273/273/273
f 260/260/260 263/263/263 276/276/276
f 260/260/260 276/276/276 257/257/257
f 257/257/257 276/276/276 255/255/255
f 276/276/276 249/249/249 255/255/255
f 277/277/277 267/267/267 265/265/265
f 269/269/269 267/267/267 277/277/277
f 276/276/276 247/247/247 249/249/249
f 263/263/263 247/247/247 276/276/276
f 263/263/263 245/245/245 247/247/247
f 264/264/264 245/245/245 263/263/263
f 264/264/264 243/243/243 245/245/245
f 266/266/266 243/243/243 264/264/264
f 266/266/266 242/242/242 243/243/243
f 268/268/268 242/242/242 266/266/266
f 268/268/268 278/278/278 242/242/242
f 278/278/278 241/241/241 242/242/242
f 278/278/278 279/279/279 241/241/241
f 280/280/280 279/279/279 278/278/278
f 280/280/280 281/281/281 279/279/279
f 282/282/282 281/281/281 280/280/280
f 281/281/281 283/283/283 279/279/279
f 279/279/279 283/283/283 284/284/284
f 279/279/279 284/284/284 241/241/241
f 241/241/241 284/284/284 239/239/239
f 283/283/283 285/285/285 284/284/284
f 284/284/284 285/285/285 286/286/286
f 284/284/284 286/286/286 239/239/239
f 239/239/239 286/286/286 236/236/236
f 270/270/270 278/278/278 268/268/268
f 270/270/270 280/280/280 278/278/278
f 272/272/272 280/280/280 270/270/270
f 272/272/272 282/282/282 280/280/280
f 274/274/274 282/282/282 272/272/272
f 286/286/286 231/231/231 236/236/236
f 286/286/286 234/234/234 231/231/231
f 285/285/285 234/234/234 286/286/286
f 289/289/289 288/288/288 287/287/287
f 287/287/287 288/288/288 290/290/290
f 287/287/287 290/290/290 291/291/291
f 291/291/291 290/290/290 292/292/292
f 291/291/291 292/292/292 293/293/293
f 293/293/293 292/292/292 294/294/294
f 293/293/293 294/294/294 295/295/295
f 295/295/295 294/294/294 296/296/296
f 295/295/295 296/296/296 297/297/297
f 297/297/297 296/296/296 298/298/298
f 297/297/297 298/298/298 299/299/299
f 299/299/299 298/298/298 300/300/300
f 299/299/299 300/300/300 301/301/301
f 301/301/301 300/300/300 302/302/302
f 301/301/301 302/302/302 303/303/303
f 303/303/303 302/302/302 304/304/304
f 303/303/303 304/304/304 305/305/305
f 306/306/306 301/301/301 303/303/303
f 307/307/307 301/301/301 306/306/306
f 308/308/308 303/303/303 305/305/305
f 306/306/306 303/303/303 309/309/309
f 302/302/302 310/310/310 304/304/304
f 304/304/304 310/310/310 311/311/311
f 304/304/304 311/311/311 312/312/312
f 313/313/313 304/304/304 312/312/312
f 302/302/302 314/314/314 310/310/310
f 300/300/300 314/314/314 302/302/302
f 300/300/300 315/315/315 314/314/314
f 298/298/298 315/315/315 300/300/300
f 298/298/298 316/316/316 315/315/315
f 296/296/296 316/316/316 298/298/298
f 296/296/296 317/317/317 316/316/316
f 294/294/294 317/317/317 296/296/296
f 294/294/294 318/318/318 317/317/317
f 292/292/292 318/318/318 294/294/294
f 292/292/292 319/319/319 318/318/318
f 290/290/290 319/319/319 292/292/292
f 290/290/290 320/320/320 319/319/319
f 310/310/310 321/321/321 311/311/311
f 310/310/310 322/322/322 321/321/321
f 314/314/314 322/322/322 310/310/310
f 322/322/322 80/80/80 321/321/321
f 322/322/322 78/78/78 80/80/80
f 323/323/323 78/78/78 322/322/322
f 323/323/323 76/76/76 78/78/78
f 324/324/324 76/76/76 323/323/323
f 324/324/324 74/74/74 76/76/76
f 325/325/325 74/74/74 324/324/324
f 325/325/325 73/73/73 74/74/74
f 326/326/326 73/73/73 325/325/325
f 326/326/326 67/67/67 73/73/73
f 327/327/327 67/67/67 326/326/326
f 327/327/327 68/68/68 67/67/67
f 328/328/328 68/68/68 327/327/327
f 328/328/328 329/329/329 68/68/68
f 68/68/68 329/329/329 69/69/69
f 319/319/319 328/328/328 327/327/327
f 330/330/330 328/328/328 319/319/319
f 328/328/328 330/330/330 331/331/331
f 315/315/315 324/324/324 323/323/323
f 316/316/316 324/324/324 315/315/315
f 316/316/316 325/325/325 324/324/324
f 317/317/317 325/325/325 316/316/316
f 317/317/317 326/326/326 325/325/325
f 318/318/318 326/326/326 317/317/317
f 318/318/318 327/327/327 326/326/326
f 319/319/319 327/327/327 318/318/318
f 288/288/288 330/330/330 290/290/290
f 315/315/315 323/323/323 314/314/314
f 314/314/314 323/323/323 322/322/322
f 334/334/334 333/333/333 332/332/332
f 335/335/335 334/334/334 332/332/332
f 336/336/336 335/335/335 332/332/332
f 337/337/337 335/335/335 336/336/336
f 337/337/337 336/336/336 338/338/338
f 336/336/336 332/332/332 339/339/339
f 339/339/339 332/332/332 340/340/340
f 332/332/332 341/341/341 340/340/340
f 336/336/336 339/339/339 342/342/342
f 343/343/343 336/336/336 342/342/342
f 341/341/341 344/344/344 340/340/340
f 341/341/341 311/311/311 344/344/344
f 345/345/345 339/339/339 340/340/340
f 340/340/340 344/344/344 345/345/345
f 346/346/346 339/339/339 345/345/345
f 339/339/339 346/346/346 347/347/347
f 347/347/347 346/346/346 348/348/348
f 346/346/346 88/88/88 348/348/348
f 346/346/346 86/86/86 88/88/88
f 349/349/349 86/86/86 346/346/346
f 345/345/345 349/349/349 346/346/346
f 344/344/344 349/349/349 345/345/345
f 349/349/349 84/84/84 86/86/86
f 350/350/350 84/84/84 349/349/349
f 344/344/344 350/350/350 349/349/349
f 311/311/311 350/350/350 344/344/344
f 350/350/350 82/82/82 84/84/84
f 321/321/321 82/82/82 350/350/350
f 311/311/311 321/321/321 350/350/350
f 321/321/321 80/80/80 82/82/82
f 348/348/348 88/88/88 90/90/90
f 351/351/351 339/339/339 347/347/347
f 353/353/353 352/352/352 335/335/335
f 354/354/354 353/353/353 335/335/335
f 337/337/337 354/354/354 335/335/335
f 355/355/355 354/354/354 337/337/337
f 355/355/355 337/337/337 356/356/356
f 356/356/356 337/337/337 338/338/338
f 357/357/357 355/355/355 356/356/356
f 358/358/358 355/355/355 357/357/357
f 358/358/358 359/359/359 355/355/355
f 355/355/355 360/360/360 354/354/354
f 360/360/360 361/361/361 354/354/354
f 361/361/361 309/309/309 354/354/354
f 361/361/361 306/306/306 309/309/309
f 362/362/362 306/306/306 361/361/361
f 362/362/362 307/307/307 306/306/306
f 363/363/363 307/307/307 362/362/362
f 363/363/363 364/364/364 307/307/307
f 307/307/307 364/364/364 301/301/301
f 301/301/301 364/364/364 365/365/365
f 365/365/365 364/364/364 366/366/366
f 366/366/366 367/367/367 365/365/365
f 368/368/368 367/367/367 366/366/366
f 369/369/369 368/368/368 366/366/366
f 370/370/370 368/368/368 369/369/369
f 371/371/371 370/370/370 369/369/369
f 372/372/372 370/370/370 371/371/371
f 373/373/373 372/372/372 371/371/371
f 373/373/373 374/374/374 372/372/372
f 375/375/375 374/374/374 373/373/373
f 375/375/375 376/376/376 374/374/374
f 377/377/377 376/376/376 375/375/375
f 378/378/378 376/376/376 377/377/377
f 250/250/250 378/378/378 377/377/377
f 248/248/248 378/378/378 250/250/250
f 248/248/248 379/379/379 378/378/378
f 246/246/246 379/379/379 248/248/248
f 246/246/246 380/380/380 379/379/379
f 244/244/244 380/380/380 246/246/246
f 244/244/244 238/238/238 380/380/380
f 250/250/250 377/377/377 252/252/252
f 252/252/252 377/377/377 381/381/381
f 381/381/381 375/375/375 373/373/373
f 377/377/377 375/375/375 381/381/381
f 252/252/252 381/381/381 382/382/382
f 253/253/253 252/252/252 382/382/382
f 382/382/382 381/381/381 383/383/383
f 238/238/238 237/237/237 380/380/380
f 380/380/380 237/237/237 384/384/384
f 380/380/380 384/384/384 379/379/379
f 379/379/379 384/384/384 385/385/385
f 379/379/379 385/385/385 378/378/378
f 381/381/381 373/373/373 383/383/383
f 383/383/383 373/373/373 386/386/386
f 386/386/386 373/373/373 387/387/387
f 237/237/237 388/388/388 384/384/384
f 384/384/384 388/388/388 389/389/389
f 388/388/388 390/390/390 389/389/389
f 389/389/389 390/390/390 391/391/391
f 389/389/389 391/391/391 392/392/392
f 385/385/385 389/389/389 392/392/392
f 392/392/392 391/391/391 393/393/393
f 392/392/392 393/393/393 394/394/394
f 394/394/394 393/393/393 395/395/395
f 395/395/395 396/396/396 394/394/394
f 396/396/396 395/395/395 397/397/397
f 396/396/396 397/397/397 368/368/368
f 368/368/368 397/397/397 367/367/367
f 370/370/370 396/396/396 368/368/368
f 398/398/398 396/396/396 370/370/370
f 394/394/394 396/396/396 398/398/398
f 372/372/372 398/398/398 370/370/370
f 388/388/388 399/399/399 390/390/390
f 232/232/232 399/399/399 388/388/388
f 399/399/399 289/289/289 390/390/390
f 390/390/390 289/289/289 287/287/287
f 390/390/390 287/287/287 391/391/391
f 391/391/391 287/287/287 291/291/291
f 391/391/391 291/291/291 393/393/393
f 393/393/393 291/291/291 293/293/293
f 393/393/393 293/293/293 395/395/395
f 395/395/395 293/293/293 295/295/295
f 395/395/395 295/295/295 397/397/397
f 397/397/397 295/295/295 297/297/297
f 397/397/397 297/297/297 367/367/367
f 367/367/367 297/297/297 299/299/299
f 367/367/367 299/299/299 365/365/365
f 365/365/365 299/299/299 301/301/301
f 237/237/237 232/232/232 388/388/388
f 402/402/402 401/401/401 400/400/400
f 403/403/403 402/402/402 400/400/400
f 403/403/403 400/400/400 404/404/404
f 404/404/404 400/400/400 405/405/405
f 400/400/400 406/406/406 405/405/405
f 400/400/400 407/407/407 406/406/406
f 405/405/405 406/406/406 408/408/408
f 409/409/409 403/403/403 404/404/404
f 410/410/410 403/403/403 409/409/409
f 410/410/410 411/411/411 403/403/403
f 411/411/411 412/412/412 403/403/403
f 413/413/413 411/411/411 410/410/410
f 414/414/414 409/409/409 404/404/404
f 415/415/415 409/409/409 414/414/414
f 416/416/416 415/415/415 414/414/414
f 417/417/417 415/415/415 416/416/416
f 416/416/416 414/414/414 418/418/418
f 418/418/418 414/414/414 419/419/419
f 414/414/414 404/404/404 419/419/419
f 419/419/419 404/404/404 405/405/405
f 418/418/418 419/419/419 420/420/420
f 420/420/420 419/419/419 421/421/421
f 419/419/419 405/405/405 421/421/421
f 421/421/421 405/405/405 408/408/408
f 417/417/417 416/416/416 422/422/422
f 418/418/418 420/420/420 423/423/423
f 423/423/423 420/420/420 424/424/424
f 423/423/423 424/424/424 425/425/425
f 425/425/425 424/424/424 426/426/426
f 425/425/425 426/426/426 427/427/427
f 427/427/427 426/426/426 428/428/428
f 429/429/429 425/425/425 427/427/427
f 430/430/430 425/425/425 429/429/429
f 430/430/430 423/423/423 425/425/425
f 431/431/431 423/423/423 430/430/430
f 431/431/431 418/418/418 423/423/423
f 432/432/432 430/430/430 429/429/429
f 433/433/433 430/430/430 432/432/432
f 433/433/433 431/431/431 430/430/430
f 422/422/422 431/431/431 433/433/433
f 434/434/434 433/433/433 432/432/432
f 435/435/435 433/433/433 434/434/434
f 435/435/435 436/436/436 433/433/433
f 422/422/422 416/416/416 431/431/431
f 416/416/416 418/418/418 431/431/431
f 439/439/439 438/438/438 437/437/437
f 441/441/441 440/440/440 223/223/223
f 442/442/442 259/259/259 258/258/258
f 443/443/443 259/259/259 442/442/442
f 444/444/444 259/259/259 443/443/443
f 445/445/445 259/259/259 444/444/444
f 445/445/445 261/261/261 259/259/259
f 446/446/446 261/261/261 445/445/445
f 446/446/446 262/262/262 261/261/261
f 447/447/447 262/262/262 446/446/446
f 447/447/447 265/265/265 262/262/262
f 277/277/277 265/265/265 447/447/447
f 378/378/378 448/448/448 376/376/376
f 376/376/376 394/394/394 374/374/374
f 374/374/374 394/394/394 398/398/398
f 374/374/374 398/398/398 372/372/372
f 376/376/376 392/392/392 394/394/394
f 385/385/385 392/392/392 376/376/376
f 369/369/369 366/366/366 449/449/449
f 449/449/449 366/366/366 364/364/364
f 449/449/449 364/364/364 363/363/363
f 450/450/450 449/449/449 363/363/363
f 450/450/450 363/363/363 451/451/451
f 451/451/451 363/363/363 362/362/362
f 451/451/451 362/362/362 452/452/452
f 452/452/452 362/362/362 361/361/361
f 453/453/453 449/449/449 450/450/450
f 453/453/453 369/369/369 449/449/449
f 371/371/371 369/369/369 453/453/453
f 456/456/456 455/455/455 454/454/454
f 454/454/454 455/455/455 457/457/457
f 455/455/455 458/458/458 457/457/457
f 457/457/457 458/458/458 459/459/459
f 458/458/458 460/460/460 459/459/459
f 461/461/461 460/460/460 458/458/458
f 459/459/459 460/460/460 462/462/462
f 462/462/462 460/460/460 463/463/463
f 464/464/464 462/462/462 463/463/463
f 465/465/465 462/462/462 464/464/464
f 466/466/466 465/465/465 464/464/464
f 467/467/467 465/465/465 466/466/466
f 468/468/468 466/466/466 464/464/464
f 469/469/469 465/465/465 467/467/467
f 470/470/470 462/462/462 465/465/465
f 471/471/471 459/459/459 462/462/462
f 457/457/457 459/459/459 471/471/471
f 471/471/471 462/462/462 472/472/472
f 473/473/473 466/466/466 468/468/468
f 474/474/474 461/461/461 458/458/458
f 475/475/475 461/461/461 474/474/474
f 476/476/476 475/475/475 474/474/474
f 477/477/477 475/475/475 476/476/476
f 476/476/476 478/478/478 477/477/477
f 479/479/479 478/478/478 476/476/476
f 479/479/479 480/480/480 478/478/478
f 481/481/481 480/480/480 479/479/479
f 482/482/482 480/480/480 481/481/481
f 483/483/483 482/482/482 481/481/481
f 483/483/483 481/481/481 484/484/484
f 484/484/484 481/481/481 479/479/479
f 476/476/476 484/484/484 479/479/479
f 485/485/485 483/483/483 484/484/484
f 486/486/486 483/483/483 485/485/485
f 487/487/487 480/480/480 482/482/482
f 488/488/488 482/482/482 483/483/483
f 488/488/488 487/487/487 482/482/482
f 489/489/489 476/476/476 474/474/474
f 490/490/490 476/476/476 489/489/489
f 490/490/490 485/485/485 484/484/484
f 490/490/490 484/484/484 476/476/476
f 491/491/491 490/490/490 489/489/489
f 492/492/492 490/490/490 491/491/491
f 492/492/492 485/485/485 490/490/490
f 455/455/455 491/491/491 489/489/489
f 455/455/455 489/489/489 458/458/458
f 458/458/458 489/489/489 474/474/474
f 456/456/456 491/491/491 455/455/455
f 494/494/494 465/465/465 493/493/493
f 497/497/497 496/496/496 495/495/495
f 498/498/498 457/457/457 471/471/471
f 454/454/454 457/457/457 498/498/498
f 501/501/501 500/500/500 499/499/499
f 504/504/504 503/503/503 502/502/502
f 507/507/507 506/506/506 505/505/505
f 505/505/505 508/508/508 507/507/507
f 509/509/509 508/508/508 505/505/505
f 510/510/510 509/509/509 505/505/505
f 511/511/511 509/509/509 510/510/510
f 508/508/508 512/512/512 507/507/507
f 513/513/513 512/512/512 508/508/508
f 516/516/516 515/515/515 514/514/514
f 519/519/519 518/518/518 517/517/517
f 520/520/520 518/518/518 519/519/519
f 520/520/520 521/521/521 518/518/518
f 522/522/522 521/521/521 520/520/520
f 525/525/525 524/524/524 523/523/523
f 528/528/528 527/527/527 526/526/526
f 22/22/22 20/20/20 56/56/56
f 56/56/56 20/20/20 57/57/57
f 57/57/57 20/20/20 18/18/18
f 531/531/531 530/530/530 529/529/529
f 534/534/534 533/533/533 532/532/532
f 537/537/537 536/536/536 535/535/535
f 75/75/75 60/60/60 59/59/59
f 75/75/75 59/59/59 77/77/77
f 384/384/384 389/389/389 538/538/538
