g Barrle_n_box_mesh
v 1332.866 102.3534 -133.4451
v 1282.124 102.3534 -111.0297
v 1312.914 102.3534 -179.261
v 1266.359 102.3534 -160.5405
v 1282.124 102.3534 -111.0297
v 1332.866 102.3534 -133.4451
v 1267.236 46.88713 -113.7912
v 1317.156 46.88713 -133.2665
v 1312.914 102.3534 -179.261
v 1266.359 102.3534 -160.5405
v 1293.69 46.88713 -176.2743
v 1250.355 46.88713 -161.1574
v 1266.359 102.3534 -160.5405
v 1282.124 102.3534 -111.0297
v 1250.355 46.88713 -161.1574
v 1267.236 46.88713 -113.7912
v 1332.866 102.3534 -133.4451
v 1312.914 102.3534 -179.261
v 1317.156 46.88713 -133.2665
v 1293.69 46.88713 -176.2743
v 1237.13 111.7801 -161.9519
v 1243.927 111.7801 -154.5509
v 1225.96 111.7801 -144.2138
v 1227.567 111.7801 -164.5494
v 1217.22 111.7801 -161.777
v 1209.645 111.7801 -154.2023
v 1206.873 111.7801 -143.8552
v 1209.645 111.7801 -133.5081
v 1216.436 111.7801 -126.1085
v 1226.005 111.7801 -123.5096
v 1235.831 111.7801 -126.3985
v 1243.222 111.7801 -134.0141
v 1246.178 111.7801 -144.3202
v 1243.927 111.7801 -154.5509
v 1237.13 111.7801 -161.9519
v 1245.304 105.0807 -155.4582
v 1237.828 105.0807 -163.5988
v 1227.567 111.7801 -164.5494
v 1227.309 105.0807 -166.4559
v 1217.22 111.7801 -161.777
v 1215.928 105.0807 -163.4064
v 1223.109 81.89339 -171.0675
v 1209.901 81.89339 -167.5284
v 1209.645 111.7801 -154.2023
v 1207.597 105.0807 -155.0748
v 1200.232 81.89339 -157.8595
v 1206.873 111.7801 -143.8552
v 1204.547 105.0807 -143.6937
v 1196.693 81.89339 -144.6517
v 1209.645 111.7801 -133.5081
v 1207.597 105.0807 -132.3126
v 1200.232 81.89339 -131.4438
v 1216.436 111.7801 -126.1085
v 1215.066 105.0807 -124.1736
v 1226.005 111.7801 -123.5096
v 1225.591 105.0807 -121.3149
v 1235.831 111.7801 -126.3985
v 1236.399 105.0807 -124.4926
v 1208.901 81.89339 -121.9983
v 1221.116 81.89339 -118.6808
v 1201.905 48.5282 -155.5141
v 1210.317 48.5282 -163.9257
v 1221.807 48.5282 -167.0046
v 1232.428 48.5282 -164.12
v 1235.316 81.89339 -167.7518
v 1243.993 81.89339 -158.3044
v 1247.78 105.0807 -144.2052
v 1246.178 111.7801 -144.3202
v 1244.528 105.0807 -132.8692
v 1243.222 111.7801 -134.0141
v 1235.831 111.7801 -126.3985
v 1243.222 111.7801 -134.0141
v 1236.399 105.0807 -124.4926
v 1244.528 105.0807 -132.8692
v 1233.658 81.89339 -122.3685
v 1221.116 81.89339 -118.6808
v 1225.591 105.0807 -121.3149
v 1243.092 81.89339 -132.0897
v 1247.78 105.0807 -144.2052
v 1246.866 81.89339 -145.2453
v 1245.304 105.0807 -155.4582
v 1243.993 81.89339 -158.3044
v 1220.073 48.5282 -121.4297
v 1209.447 48.5282 -124.3158
v 1208.901 81.89339 -121.9983
v 1201.905 48.5282 -132.5331
v 1200.232 81.89339 -131.4438
v 1230.984 48.5282 -124.6379
v 1239.192 48.5282 -133.095
v 1242.475 48.5282 -144.54
v 1239.976 48.5282 -155.9012
v 1235.316 81.89339 -167.7518
v 1232.428 48.5282 -164.12
v 1198.826 48.5282 -144.0236
v 1201.905 48.5282 -132.5331
vt 0.494889 0.701587
vt 0.399922 0.743539
vt 0.457547 0.61584
vt 0.370417 0.650876
vt 0.399922 0.743539
vt 0.494889 0.701587
vt 0.35336 0.717722
vt 0.444701 0.682087
vt 0.457547 0.61584
vt 0.370417 0.650876
vt 0.401765 0.603392
vt 0.322472 0.631053
vt 0.370417 0.650876
vt 0.399922 0.743539
vt 0.322472 0.631053
vt 0.35336 0.717722
vt 0.494889 0.701587
vt 0.457547 0.61584
vt 0.444701 0.682087
vt 0.401765 0.603392
vt 0.317056 0.651206
vt 0.330158 0.665472
vt 0.295527 0.685397
vt 0.298623 0.6462
vt 0.278679 0.651544
vt 0.264079 0.666144
vt 0.258734 0.686088
vt 0.264079 0.706032
vt 0.277168 0.720295
vt 0.295613 0.725305
vt 0.314552 0.719736
vt 0.328798 0.705057
vt 0.334496 0.685192
vt 0.330158 0.665472
vt 0.317056 0.651206
vt 0.330547 0.661315
vt 0.316177 0.645667
vt 0.298623 0.6462
vt 0.295957 0.640175
vt 0.278679 0.651544
vt 0.27408 0.646037
vt 0.280544 0.623361
vt 0.255396 0.6301
vt 0.264079 0.666144
vt 0.258066 0.662052
vt 0.236987 0.648509
vt 0.258734 0.686088
vt 0.252203 0.683928
vt 0.230248 0.673657
vt 0.264079 0.706032
vt 0.258066 0.705805
vt 0.236987 0.698804
vt 0.277168 0.720295
vt 0.272423 0.72145
vt 0.295613 0.725305
vt 0.292655 0.726945
vt 0.314552 0.719736
vt 0.313429 0.720837
vt 0.253491 0.716788
vt 0.276749 0.723105
vt 0.230394 0.641398
vt 0.246195 0.625598
vt 0.267778 0.619815
vt 0.287727 0.625233
vt 0.303787 0.629674
vt 0.320306 0.647662
vt 0.335306 0.682945
vt 0.334496 0.685192
vt 0.329055 0.704735
vt 0.328798 0.705057
vt 0.314552 0.719736
vt 0.328798 0.705057
vt 0.313429 0.720837
vt 0.329055 0.704735
vt 0.300629 0.716083
vt 0.276749 0.723105
vt 0.292655 0.726945
vt 0.318592 0.697574
vt 0.335306 0.682945
vt 0.325776 0.672527
vt 0.330547 0.661315
vt 0.320306 0.647662
vt 0.264521 0.705422
vt 0.24456 0.700001
vt 0.253491 0.716788
vt 0.230394 0.684566
vt 0.236987 0.698804
vt 0.285017 0.699396
vt 0.300434 0.68351
vt 0.3066 0.662012
vt 0.301905 0.640671
vt 0.303787 0.629674
vt 0.287727 0.625233
vt 0.224611 0.662982
vt 0.230394 0.684566
vn 0 1 0
vn 0 1 0
vn 0 1 0
vn 0 1 0
vn 0.3993701 -0.1522064 0.9040668
vn 0.3807353 -0.1259027 0.9160726
vn 0.3807353 -0.1259027 0.9160726
vn 0.36165 -0.09945013 0.9269946
vn -0.3719146 0.07909609 -0.924891
vn -0.3498579 0.09205737 -0.9322686
vn -0.3498579 0.09205737 -0.9322686
vn -0.3275532 0.1049534 -0.9389855
vn -0.9195614 0.2620659 0.292794
vn -0.9184126 0.2460019 0.3098408
vn -0.9184126 0.2460019 0.3098408
vn -0.9167588 0.2298027 0.3267171
vn 0.8871232 -0.2525154 -0.3863267
vn 0.8615825 -0.2833603 -0.4211682
vn 0.8615825 -0.2833603 -0.4211682
vn 0.8336141 -0.3134067 -0.454823
vn 0 1 0
vn 0 1 0
vn 0 1 0
vn 0 1 0
vn 0 1 0
vn 0 1 0
vn 0 1 0
vn 0 1 0
vn 0 1 0
vn 0 1 0
vn 0 1 0
vn 0 1 0
vn 0 1 0
vn 0.8991157 0.2348499 -0.369373
vn 0.5806189 0.2508973 -0.7745529
vn 0.8815594 0.1181829 -0.4570404
vn 0.5141722 0.1694233 -0.8407869
vn 0.08847861 0.2694803 -0.9589327
vn 0.003913934 0.2281848 -0.97361
vn -0.4023719 0.2888716 -0.868706
vn -0.4785053 0.279557 -0.8323945
vn 0.003262873 0.04331683 -0.999056
vn -0.4957343 0.09224252 -0.8635617
vn -0.7776561 0.3091088 -0.5474511
vn -0.8215249 0.3149415 -0.4752986
vn -0.8581717 0.1230686 -0.4983929
vn -0.9419329 0.3249792 -0.08456274
vn -0.945079 0.3268422 6.331515E-05
vn -0.9916676 0.1288119 -0.001712005
vn -0.8610902 0.3320439 0.3850591
vn -0.8322467 0.3135407 0.4572282
vn -0.8715645 0.1097881 0.4778304
vn -0.5647628 0.3335093 0.7548606
vn -0.4988725 0.2803623 0.8200751
vn -0.07805291 0.3147057 0.9459746
vn 0.00976296 0.2180329 0.9758926
vn 0.4233607 0.2809261 0.8613049
vn 0.5101296 0.1515972 0.8466322
vn -0.5184351 0.06621503 0.8525495
vn 0.01090088 0.006491934 0.9999195
vn -0.904596 -0.07485747 -0.4196455
vn -0.5726596 -0.09505778 -0.8142635
vn -0.0875361 -0.1170473 -0.989261
vn 0.4313435 -0.1344513 -0.8921131
vn 0.5200959 -0.01253408 -0.8540158
vn 0.8853901 -0.05992336 -0.4609703
vn 0.9949639 0.09491949 0.03220301
vn 0.9660162 0.2329358 0.1120435
vn 0.859987 0.1066463 0.4990481
vn 0.7950528 0.2495295 0.5528347
vn 0.4233607 0.2809261 0.8613049
vn 0.7950528 0.2495295 0.5528347
vn 0.5101296 0.1515972 0.8466322
vn 0.859987 0.1066463 0.4990481
vn 0.5164254 -0.0460659 0.8550922
vn 0.01090088 0.006491934 0.9999195
vn 0.00976296 0.2180329 0.9758926
vn 0.862821 -0.0773237 0.4995609
vn 0.9949639 0.09491949 0.03220301
vn 0.9961089 -0.08248789 0.03102541
vn 0.8815594 0.1181829 -0.4570404
vn 0.8853901 -0.05992336 -0.4609703
vn 0.1036426 -0.08488285 0.990986
vn -0.4345629 -0.06948158 0.8979573
vn -0.5184351 0.06621503 0.8525495
vn -0.8329569 -0.05972661 0.5501051
vn -0.8715645 0.1097881 0.4778304
vn 0.5864397 -0.1016431 0.8035902
vn 0.8977243 -0.117722 0.424538
vn 0.9899611 -0.131372 -0.05213802
vn 0.8341646 -0.138876 -0.5337442
vn 0.5200959 -0.01253408 -0.8540158
vn 0.4313435 -0.1344513 -0.8921131
vn -0.9941195 -0.06188513 0.08886249
vn -0.8329569 -0.05972661 0.5501051
g Barrle_n_box_mesh_0
f 3/3/3 2/2/2 1/1/1
f 4/4/4 2/2/2 3/3/3
f 7/7/7 6/6/6 5/5/5
f 8/8/8 6/6/6 7/7/7
f 11/11/11 10/10/10 9/9/9
f 12/12/12 10/10/10 11/11/11
f 15/15/15 14/14/14 13/13/13
f 16/16/16 14/14/14 15/15/15
f 19/19/19 18/18/18 17/17/17
f 20/20/20 18/18/18 19/19/19
f 23/23/23 22/22/22 21/21/21
f 23/23/23 21/21/21 24/24/24
f 23/23/23 24/24/24 25/25/25
f 23/23/23 25/25/25 26/26/26
f 23/23/23 26/26/26 27/27/27
f 23/23/23 27/27/27 28/28/28
f 23/23/23 28/28/28 29/29/29
f 23/23/23 29/29/29 30/30/30
f 23/23/23 30/30/30 31/31/31
f 23/23/23 31/31/31 32/32/32
f 23/23/23 32/32/32 33/33/33
f 23/23/23 33/33/33 22/22/22
f 36/36/36 35/35/35 34/34/34
f 37/37/37 35/35/35 36/36/36
f 37/37/37 38/38/38 35/35/35
f 39/39/39 38/38/38 37/37/37
f 39/39/39 40/40/40 38/38/38
f 41/41/41 40/40/40 39/39/39
f 42/42/42 41/41/41 39/39/39
f 43/43/43 41/41/41 42/42/42
f 41/41/41 44/44/44 40/40/40
f 45/45/45 44/44/44 41/41/41
f 43/43/43 45/45/45 41/41/41
f 46/46/46 45/45/45 43/43/43
f 45/45/45 47/47/47 44/44/44
f 48/48/48 47/47/47 45/45/45
f 46/46/46 48/48/48 45/45/45
f 49/49/49 48/48/48 46/46/46
f 48/48/48 50/50/50 47/47/47
f 51/51/51 50/50/50 48/48/48
f 49/49/49 51/51/51 48/48/48
f 52/52/52 51/51/51 49/49/49
f 51/51/51 53/53/53 50/50/50
f 54/54/54 53/53/53 51/51/51
f 52/52/52 54/54/54 51/51/51
f 54/54/54 55/55/55 53/53/53
f 56/56/56 55/55/55 54/54/54
f 56/56/56 57/57/57 55/55/55
f 58/58/58 57/57/57 56/56/56
f 59/59/59 54/54/54 52/52/52
f 59/59/59 56/56/56 54/54/54
f 60/60/60 56/56/56 59/59/59
f 61/61/61 49/49/49 46/46/46
f 61/61/61 46/46/46 62/62/62
f 62/62/62 46/46/46 43/43/43
f 62/62/62 43/43/43 63/63/63
f 63/63/63 43/43/43 42/42/42
f 63/63/63 42/42/42 64/64/64
f 64/64/64 42/42/42 65/65/65
f 42/42/42 39/39/39 65/65/65
f 65/65/65 39/39/39 37/37/37
f 65/65/65 37/37/37 66/66/66
f 66/66/66 37/37/37 36/36/36
f 36/36/36 34/34/34 67/67/67
f 67/67/67 34/34/34 68/68/68
f 67/67/67 68/68/68 69/69/69
f 69/69/69 68/68/68 70/70/70
f 73/73/73 72/72/72 71/71/71
f 74/74/74 72/72/72 73/73/73
f 75/75/75 74/74/74 73/73/73
f 75/75/75 73/73/73 76/76/76
f 76/76/76 73/73/73 77/77/77
f 78/78/78 74/74/74 75/75/75
f 78/78/78 79/79/79 74/74/74
f 80/80/80 79/79/79 78/78/78
f 80/80/80 81/81/81 79/79/79
f 82/82/82 81/81/81 80/80/80
f 83/83/83 75/75/75 76/76/76
f 83/83/83 76/76/76 84/84/84
f 84/84/84 76/76/76 85/85/85
f 84/84/84 85/85/85 86/86/86
f 86/86/86 85/85/85 87/87/87
f 88/88/88 75/75/75 83/83/83
f 88/88/88 78/78/78 75/75/75
f 89/89/89 78/78/78 88/88/88
f 89/89/89 80/80/80 78/78/78
f 90/90/90 80/80/80 89/89/89
f 90/90/90 82/82/82 80/80/80
f 91/91/91 82/82/82 90/90/90
f 91/91/91 92/92/92 82/82/82
f 93/93/93 92/92/92 91/91/91
f 94/94/94 49/49/49 61/61/61
f 94/94/94 52/52/52 49/49/49
f 95/95/95 52/52/52 94/94/94
