g BRM_Anvil
v 380.5134 57.30856 -218.7906
v 387.837 57.30857 -203.1879
v 273.5099 57.30857 -172.6711
v 368.8891 57.30856 -235.1435
v 358.7819 57.30857 -251.7144
v 344.0262 57.30857 -265.1011
v 331.012 57.30856 -273.6109
v 305.4477 57.30856 -282.8231
v 405.483 57.30856 -206.0782
v 397.4847 57.30856 -222.4168
v 382.8777 57.30856 -248.7381
v 368.5176 57.30856 -263.4277
v 352.9302 57.30856 -276.358
v 339.5327 57.30856 -283.8082
v 287.6886 57.30857 -284.5134
v 269.487 57.30857 -286.2458
v 255.9949 57.30856 -284.9903
v 231.7612 57.30856 -278.6856
v 306.4328 57.30856 -298.1909
v 288.35 57.30856 -302.3707
v 269.9522 57.30856 -303.1984
v 255.6009 57.30856 -301.5403
v 387.7834 57.30856 -250.0092
v 372.1754 57.30856 -266.9465
v 357.0598 57.30856 -279.108
v 309.7629 57.30856 -302.1884
v 288.5533 57.30856 -306.6335
v 267.0896 57.30856 -307.713
v 251.7697 57.30856 -307.1544
v 249.3212 57.30856 -304.0646
v 286.7117 57.30856 -309.7451
v 268.8042 57.30856 -311.8406
v 374.9326 57.30856 -270.1962
v 358.8815 57.30856 -281.0282
v 312.3029 57.30856 -298.4417
v 288.5449 57.30856 -327.6459
v 267.7938 57.30856 -330.825
v 285.5423 57.30856 -332.287
v 271.4966 57.30856 -334.7341
v 278.9826 57.30856 -335.1628
v 386.9603 57.30856 -280.7538
v 388.15 57.30855 -283.737
v 387.4084 57.30855 -286.11
v 384.4421 57.30855 -288.3346
v 379.2513 57.30855 -290.2627
v 368.1198 57.30856 -292.6122
v 375.5435 57.30855 -292.9322
v 371.2426 57.30855 -293.6738
v 311.2869 57.30856 -287.9004
v 329.8319 57.30856 -280.0435
v 337.0204 57.30856 -289.7431
v 340.6147 57.30856 -289.4969
v 213.7152 57.30857 -272.4973
v 196.7949 57.30857 -261.2049
v 188.4918 57.30856 -249.9485
v 175.7111 57.30856 -232.7132
v 222.6981 57.30856 -294.0534
v 205.0907 57.30856 -285.2146
v 190.2419 57.30856 -274.3431
v 177.7769 57.30856 -262.7267
v 170.2207 57.30857 -217.6749
v 165.5839 57.30857 -200.6735
v 160.1198 57.30856 -179.3633
v 159.6508 57.30856 -156.3344
v 161.1082 57.30857 -139.667
v 168.9865 57.30857 -122.3501
v 178.762 57.30856 -103.9263
v 190.6423 57.30857 -95.45113
v 184.424 57.30856 -95.50232
v 158.5289 57.30856 -182.3331
v 144.48 57.30856 -152.3939
v 148.0264 57.30856 -135.844
v 155.28 57.30856 -115.795
v 165.7585 57.30856 -99.19773
v 146.5221 57.30856 -207.1376
v 152.3176 57.30856 -224.2437
v 159.2567 57.30856 -237.7048
v 172.4762 57.30856 -232.5541
v 137.409 57.30856 -156.7564
v 142.8128 57.30856 -132.4777
v 149.8554 57.30856 -114.6819
v 154.1496 57.30856 -160.7046
v 154.9634 57.30856 -177.7872
v 142.7068 57.30856 -186.0848
v 138.4829 57.30856 -181.4316
v 116.3083 57.30856 -124.1477
v 122.4422 57.30856 -105.6703
v 156.0364 57.30856 -241.6756
v 136.7859 57.30856 -185.8154
v 140.3037 57.30856 -205.0485
v 147.8465 57.30856 -225.911
v 145.7733 57.30856 -225.0892
v 139.6742 57.30856 -207.7049
v 138.0214 57.30856 -210.1595
v 142.9844 57.30856 -225.0148
v 115.6227 57.30855 -220.0606
v 115.1665 57.30856 -227.0847
v 117.6587 57.30856 -233.7164
v 120.1293 57.30856 -215.438
v 159.3244 57.30856 -243.0014
v 172.8474 57.30856 -237.4861
v 181.7037 57.30856 -249.2061
v 181.9159 57.30856 -252.2819
v 172.3701 57.30856 -261.6155
v 172.7414 57.30856 -265.1686
v 187.4312 57.30856 -278.8508
v 203.4467 57.30856 -290.4382
v 223.1449 57.30856 -300.3917
v 187.3781 57.30856 -283.0403
v 199.3103 57.30856 -291.7375
v 121.4965 57.30856 -374.3005
v 120.4125 57.30856 -383.919
v 120.6656 57.30856 -389.8825
v 135.1622 57.30856 -390.5422
v 130.8897 57.30856 -394.1863
v 122.4451 57.30856 -394.1991
v 126.1089 57.30856 -395.8043
v 226.9926 57.30856 -299.0509
v 233.0557 57.30856 -286.2834
v 235.5043 57.30856 -285.5838
v 248.6799 57.30856 -288.7902
v 249.8458 57.30856 -290.5392
v 211.5656 57.30857 -91.98683
v 366.4212 57.30856 -92.48126
v 376.4853 57.30856 -107.2212
v 382.3038 57.30857 -124.6351
v 387.3757 57.30857 -136.274
v 389.7735 57.30856 -150.2267
v 389.9705 57.30856 -172.0962
v 388.9431 57.30857 -187.0683
v 393.0557 57.30856 -100.9357
v 399.8691 57.30856 -117.5982
v 404.2483 57.30856 -132.2813
v 407.1115 57.30856 -146.0892
v 409.6728 57.30856 -173.4754
v 408.3733 57.30856 -191.3225
v 397.1926 57.30856 -99.11649
v 404.852 57.30856 -114.8362
v 410.0622 57.30856 -130.6894
v 412.2706 57.30856 -147.7775
v 414.2727 57.30856 -172.2646
v 413.2879 57.30856 -189.5466
v 415.1097 57.30856 -192.2054
v 410.8261 57.30856 -207.5672
v 408.4627 57.30856 -209.8813
v 501.1398 57.30856 -212.7271
v 504.4037 57.30856 -216.5381
v 496.8424 57.30856 -228.4435
v 462.6956 57.30856 -106.2414
v 439.5729 57.30856 -100.3416
v 464.2881 57.30856 -102.0346
v 458.8199 57.30856 -100.1117
v 449.9532 57.30856 -99.297
v 400.2895 57.30856 -227.4588
v 397.2368 57.30856 -228.8374
v 383.1059 57.30856 -225.1447
v 376.459 57.30856 -235.829
v 387.1925 57.30856 -245.824
v 378.8455 57.30856 -101.3876
v 392.9175 57.30856 -96.17739
v 375.1494 57.30856 -93.81721
v 397.6433 57.30856 -154.324
v 395.2117 57.30856 -156.2766
v 395.6537 57.30856 -165.0819
v 409.7613 57.30856 -150.701
v 396.8695 57.30856 -167.0714
v 411.3677 57.30856 -169.1627
v 411.4569 57.30856 -149.5279
v 191.8646 195.9653 -198.8059
v 188.4834 195.9653 -209.0218
v 207.406 195.9653 -226.435
v 201.1516 195.9653 -231.3687
v 224.6741 195.9653 -217.8009
v 198.7719 195.9653 -164.0229
v 254.5234 195.9653 -196.8324
v 228.8678 195.9653 -147.7415
v 289.6067 195.9653 -175.502
v 266.8578 195.9653 -128.9932
v 328.0535 195.9653 -153.1542
v 306.8213 195.9653 -112.7118
v 364.0529 195.9653 -131.9535
v 343.0844 195.9653 -100.8708
v 170.5959 195.9653 -169.0652
v 170.4798 195.9653 -158.8634
v 169.7832 195.9653 -163.6432
v 174.2193 195.9653 -153.4154
v 212.7706 195.9653 -131.5578
v 249.32 195.9653 -114.0026
v 295.6544 195.9653 -95.44007
v 348.6661 195.9653 -80.88374
v 346.5813 195.9653 -78.88467
v 381.321 195.9653 -164.2696
v 348.2649 195.9653 -191.652
v 311.2617 195.9653 -219.7744
v 280.1789 195.9653 -240.9896
v 250.5764 195.9653 -255.2975
v 229.1548 195.9653 -265.0507
v 221.716 195.9653 -267.887
v 289.1655 195.9653 -260.443
v 320.8085 195.9653 -239.0146
v 290.6644 192.9121 -262.7191
v 266.2767 192.9121 -277.6284
v 265.2945 195.9653 -275.1542
v 321.6842 192.9164 -241.7211
v 356.9088 195.9653 -213.3474
v 357.8943 192.9286 -216.1088
v 404.5083 195.9653 -170.1995
v 407.0177 192.9283 -171.5828
v 405.2141 195.9653 -167.2949
v 408.1972 192.9224 -166.7346
v 242.4333 192.9122 -288.2178
v 242.3672 195.9653 -285.8684
v 238.1886 192.9567 -287.9929
v 236.0227 195.9653 -286.0641
v 395.1196 195.9653 -143.7054
v 397.6224 192.91 -142.0238
v 385.6002 195.9653 -127.7603
v 388.1855 192.9089 -126.2169
v 375.5959 195.9653 -111.0033
v 377.5945 192.9097 -108.4771
v 355.1196 195.9653 -85.35745
v 356.6369 192.9339 -82.22401
v 349.2604 192.9883 -77.28474
v 345.9188 149.3272 -67.67954
v 357.6728 149.3272 -80.48615
v 376.2024 149.3272 -107.4192
v 386.313 149.3272 -124.3545
v 395.9374 149.3272 -140.4754
v 404.8642 149.3272 -163.5537
v 403.1977 149.3272 -168.5535
v 355.5641 149.3272 -211.2895
v 321.0827 149.3272 -239.2232
v 288.2008 149.3272 -260.5056
v 264.4527 149.3272 -275.9073
v 243.2862 149.3272 -285.8806
v 237.2854 149.3272 -286.8694
v 230.8112 149.3272 -285.3554
v 280.9123 78.45501 -251.9354
v 310.9661 78.45501 -233.0015
v 280.9123 123.2247 -251.9354
v 310.9661 123.2247 -233.0015
v 346.4896 78.45501 -206.0549
v 346.4896 123.2247 -206.0549
v 346.4896 78.45501 -206.0549
v 301.2482 78.45501 -140.9011
v 346.4896 123.2247 -206.0549
v 301.2482 123.2247 -140.9011
v 309.2867 76.9241 -217.28
v 295.9248 76.9241 -258.525
v 324.2589 76.9241 -236.583
v 257.6159 76.9241 -262.5318
v 235.6173 76.9241 -228.929
v 291.3941 76.9241 -193.9982
v 202.6569 76.9241 -173.7275
v 254.9957 76.9241 -139.0547
v 343.733 76.9241 -159.3253
v 307.3346 76.9241 -104.3818
v 356.0983 78.99933 -178.0515
v 343.3679 76.9241 -225.0372
v 372.3537 76.9241 -201.8304
v 267.9323 76.9241 -273.7942
v 295.9248 76.9241 -258.525
v 320.3793 58.40522 -241.3166
v 324.2589 76.9241 -236.583
v 323.5607 58.40522 -235.5291
v 267.9323 76.9241 -273.7942
v 268.1854 58.40522 -274.1764
v 331.916 58.40522 -232.9177
v 343.3679 76.9241 -225.0372
v 372.3537 76.9241 -201.8304
v 372.6172 58.40522 -200.6369
v 356.0983 78.99933 -178.0515
v 372.3537 76.9241 -201.8304
v 358.58 60.48045 -176.4074
v 372.6172 58.40522 -200.6369
v 155.4262 161.5484 -260.6426
v 155.6932 164.1251 -257.8878
v 142.522 161.5536 -259.338
v 142.3273 163.034 -256.9933
v 169.6679 164.1251 -258.0253
v 169.2917 161.5479 -260.7827
v 184.4744 164.1251 -256.8821
v 184.1037 161.5464 -259.6561
v 202.6917 164.1251 -252.8527
v 202.344 161.5423 -255.6267
v 218.5094 164.1251 -248.6913
v 219.7681 161.5424 -250.9365
v 131.2478 161.5749 -256.5686
v 133.8151 164.1251 -254.2883
v 139.7773 164.1251 -230.7985
v 146.8275 164.1251 -220.3064
v 168.7001 164.1251 -197.268
v 156.7645 164.1251 -208.1488
v 133.0131 163.034 -241.8601
v 131.5485 164.1251 -250.1908
v 130.1983 161.6172 -252.6169
v 131.2478 161.5749 -256.5686
v 182.519 164.1251 -187.5907
v 218.7455 111.1845 -251.312
v 202.2317 111.1845 -255.7572
v 183.9109 119.2103 -260.6096
v 170.6431 126.1862 -262.9967
v 156.5425 132.8425 -262.7191
v 142.664 142.8342 -260.7761
v 131.2478 161.5749 -256.5686
v 130.7274 150.977 -257.7901
v 130.7274 150.977 -257.7901
v 130.1983 161.6172 -252.6169
v 127.2742 149.7435 -252.3744
v 131.2478 161.5749 -256.5686
v 130.1983 161.6172 -252.6169
v 130.7274 150.977 -257.7901
v 166.3316 139.159 -343.588
v 173.581 139.159 -332.5862
v 157.89 139.159 -337.4241
v 163.3996 139.159 -329.0628
v 151.3894 139.159 -345.1784
v 157.7781 139.159 -353.791
v 141.7541 139.159 -350.3302
v 145.1001 139.159 -360.5697
v 131.0225 139.159 -352.8735
v 130.9796 139.159 -363.9162
v 120.6631 139.159 -352.3152
v 116.4714 139.195 -363.7584
v 114.584 139.159 -349.3377
v 109.3499 139.159 -359.2638
v 110.8621 139.159 -348.1591
v 104.4527 139.159 -357.713
v 102.7358 139.159 -339.2264
v 93.76028 139.159 -345.9595
v 98.76581 139.159 -329.2393
v 88.53653 139.159 -332.8185
v 97.71124 139.159 -320.3687
v 87.14895 139.159 -321.1466
v 97.54339 139.159 -317.2766
v 89.84247 139.159 -317.3104
v 97.95935 139.159 -314.9098
v 87.47545 139.159 -313.964
v 99.38613 139.159 -306.2253
v 89.35273 139.159 -302.537
v 104.5968 139.159 -296.9205
v 96.20891 139.159 -290.2938
v 113.5915 139.159 -288.6703
v 108.044 139.159 -279.4381
v 117.9312 139.159 -285.7458
v 114.4105 139.159 -276.9895
v 121.8932 139.159 -284.4251
v 118.7364 139.159 -273.9695
v 131.3947 139.159 -282.405
v 131.4693 139.159 -271.1944
v 141.6343 139.159 -283.5654
v 144.9424 139.159 -272.7214
v 151.0846 139.159 -288.6941
v 156.1797 139.2818 -281.1452
v 158.5844 139.159 -296.6821
v 164.3134 139.1015 -289.7618
v 163.3996 139.159 -306.7475
v 173.581 139.159 -303.224
v 173.4187 139.159 -312.9788
v 164.2978 139.159 -320.6617
v 174.7628 139.159 -321.5322
v 121.8932 139.159 -284.4251
v 117.9312 139.159 -285.7458
v 114.8754 82.42816 -283.9692
v 111.7954 82.42816 -285.1065
v 122.2617 82.42816 -282.2296
v 131.3947 139.159 -282.405
v 130.2217 82.42816 -283.2289
v 141.6343 139.159 -283.5654
v 137.5683 82.42816 -287.6455
v 151.0846 139.159 -288.6941
v 143.3985 82.42816 -294.5244
v 158.5844 139.159 -296.6821
v 147.1418 82.42816 -303.1923
v 163.3996 139.159 -306.7475
v 147.84 82.42816 -315.1746
v 164.2978 139.159 -320.6617
v 113.5915 139.159 -288.6703
v 108.4218 82.42816 -287.625
v 104.5968 139.159 -296.9205
v 101.4295 82.42816 -294.7297
v 99.38613 139.159 -306.2253
v 97.37879 82.42816 -302.7426
v 97.95935 139.159 -314.9098
v 96.26966 82.42816 -310.2213
v 97.54339 139.159 -317.2766
v 95.9463 82.42816 -312.2594
v 97.71124 139.159 -320.3687
v 96.07675 82.42816 -314.9222
v 98.76581 139.159 -329.2393
v 96.89655 82.42816 -322.5611
v 102.7358 139.159 -339.2264
v 99.98279 82.42816 -331.1616
v 110.8621 139.159 -348.1591
v 106.3 82.42816 -338.854
v 114.584 139.159 -349.3377
v 109.1934 82.42816 -339.869
v 120.6631 139.159 -352.3152
v 113.9192 82.42816 -342.4331
v 131.0225 139.159 -352.8735
v 121.9724 82.42816 -342.9138
v 141.7541 139.159 -350.3302
v 130.3149 82.42816 -340.7237
v 151.3894 139.159 -345.1784
v 137.8052 82.42816 -336.2872
v 111.7954 82.42816 -285.1065
v 130.2217 82.42816 -283.2289
v 114.8754 82.42816 -283.9692
v 108.4218 82.42816 -287.625
v 137.5683 82.42816 -287.6455
v 143.3985 82.42816 -294.5244
v 101.4295 82.42816 -294.7297
v 97.37879 82.42816 -302.7426
v 147.1418 82.42816 -303.1923
v 96.26966 82.42816 -310.2213
v 95.9463 82.42816 -312.2594
v 96.07675 82.42816 -314.9222
v 147.84 82.42816 -315.1746
v 147.1418 82.42816 -322.4091
v 96.89655 82.42816 -322.5611
v 142.8587 82.42816 -329.6095
v 99.98279 82.42816 -331.1616
v 137.8052 82.42816 -336.2872
v 106.3 82.42816 -338.854
v 109.1934 82.42816 -339.869
v 130.3149 82.42816 -340.7237
v 113.9192 82.42816 -342.4331
v 121.9724 82.42816 -342.9138
v 157.89 139.159 -337.4241
v 163.3996 139.159 -329.0628
v 142.8587 82.42816 -329.6095
v 147.1418 82.42816 -322.4091
v 137.8052 82.42816 -336.2872
v 151.3894 139.159 -345.1784
v 164.2978 139.159 -320.6617
v 147.84 82.42816 -315.1746
v 173.6346 137.3242 -332.5313
v 166.415 137.3242 -343.5402
v 176.0141 55.8103 -330.0925
v 170.1225 55.8103 -341.4165
v 157.8809 137.3242 -353.6913
v 162.446 55.8103 -349.2624
v 145.1853 137.3242 -360.4756
v 148.9715 55.8103 -356.2946
v 131.083 137.3242 -363.8177
v 135.678 55.8103 -359.4451
v 179.4105 55.8103 -321.45
v 174.8652 137.3242 -321.5304
v 178.3875 55.8103 -311.2287
v 173.5281 137.3242 -312.9402
v 175.7846 55.8103 -302.3073
v 173.6295 137.3242 -303.2038
v 169.8198 55.8103 -289.8388
v 164.4346 137.268 -289.7635
v 160.5295 55.8103 -279.9439
v 156.2755 137.4443 -281.1187
v 148.8231 55.8103 -273.5909
v 145.0278 137.3242 -272.7405
v 130.9796 139.159 -363.9162
v 174.7628 139.159 -321.5322
v 173.581 139.159 -332.5862
v 166.3316 139.159 -343.588
v 157.7781 139.159 -353.791
v 145.1001 139.159 -360.5697
v 164.3134 139.1015 -289.7618
v 173.581 139.159 -303.224
v 173.4187 139.159 -312.9788
v 116.4714 139.195 -363.7584
v 116.4717 137.3594 -363.6661
v 116.4843 55.8103 -359.5681
v 156.1797 139.2818 -281.1452
v 144.9424 139.159 -272.7214
v 131.5721 137.3242 -271.2155
v 145.0278 137.3242 -272.7405
v 136.139 55.8103 -272.1534
v 148.8231 55.8103 -273.5909
v 144.9424 139.159 -272.7214
v 131.4693 139.159 -271.1944
v 122.2617 82.42816 -282.2296
v 112.595 131.9968 -106.5633
v 109.0898 131.9968 -107.9873
v 114.0191 131.9968 -115.929
v 111.7735 131.9968 -116.8053
v 138.6917 131.9968 -126.4519
v 150.8116 131.9968 -120.6829
v 138.7563 131.9968 -128.0316
v 151.2256 131.9968 -123.0634
v 126.5449 131.9968 -153.7032
v 134.4688 131.9968 -158.5465
v 93.78143 131.9968 -135.3803
v 100.4546 131.9968 -138.8137
v 116.8858 131.9968 -173.6724
v 123.8093 131.8003 -186.7449
v 114.0449 131.9968 -173.6724
v 119.6756 132.0529 -187.9302
v 91.54795 131.9968 -162.7694
v 82.81012 131.9968 -168.2943
v 91.39435 131.9968 -161.1571
v 81.8786 131.9968 -164.8786
v 134.4688 131.9968 -158.5465
v 123.8093 131.8003 -186.7449
v 134.5372 130.0946 -158.4086
v 123.9078 129.9096 -186.3727
v 135.6346 99.58618 -156.1977
v 125.4865 99.58618 -180.4019
v 137.1688 56.93191 -153.1067
v 148.9519 56.93191 -123.1594
v 150.2439 99.58618 -123.1048
v 148.5379 56.93191 -120.7788
v 149.8299 99.58618 -120.7243
v 128.7992 56.93191 -172.2259
v 151.168 130.0946 -123.0658
v 150.754 130.0946 -120.6853
v 151.2256 131.9968 -123.0634
v 150.8116 131.9968 -120.6829
v 119.6756 132.0529 -187.9302
v 119.804 130.1474 -187.5126
v 125.4865 99.58618 -180.4019
v 125.4865 99.58618 -180.4019
v 121.8639 99.58618 -180.8159
v 128.7992 56.93191 -172.2259
v 125.1765 56.93191 -172.64
v 113.476 128.6091 -115.7419
v 111.3427 128.6091 -116.5744
v 103.1567 64.24172 -112.1868
v 111.7735 131.9968 -116.8053
v 114.0191 131.9968 -115.929
v 100.4546 131.9968 -138.8137
v 100.054 128.6091 -138.5834
v 103.1567 64.24172 -112.1868
v 92.44359 64.24172 -134.2086
v 91.02543 128.6091 -160.759
v 84.01574 64.24172 -153.1966
v 91.39435 131.9968 -161.1571
v 91.54795 131.9968 -162.7694
v 91.17132 128.6091 -162.2908
v 84.01574 64.24172 -153.1966
v 114.0449 131.9968 -173.6724
v 113.3929 128.6091 -173.0697
v 84.01574 64.24172 -153.1966
v 101.0056 64.24172 -161.6177
v 137.8226 128.6091 -126.1148
v 121.3092 64.24172 -119.7099
v 103.1567 64.24172 -112.1868
v 138.6917 131.9968 -126.4519
v 116.0918 128.6091 -173.0697
v 110.2305 64.24172 -143.7718
v 101.0056 64.24172 -161.6177
v 125.7292 128.6091 -153.2066
v 121.3092 64.24172 -119.7099
v 137.8839 128.6091 -127.6155
v 137.8226 128.6091 -126.1148
v 138.6917 131.9968 -126.4519
v 138.7563 131.9968 -128.0316
v 126.5449 131.9968 -153.7032
v 116.8858 131.9968 -173.6724
v 92.44359 64.24172 -134.2086
v 121.3092 64.24172 -119.7099
v 103.1567 64.24172 -112.1868
v 101.0056 64.24172 -161.6177
v 84.01574 64.24172 -153.1966
v 110.2305 64.24172 -143.7718
v 113.3929 128.6091 -173.0697
v 116.0918 128.6091 -173.0697
v 101.0056 64.24172 -161.6177
v 116.8858 131.9968 -173.6724
v 114.0449 131.9968 -173.6724
v 125.4865 99.58618 -180.4019
v 119.804 130.1474 -187.5126
v 121.8639 99.58618 -180.8159
v 176.4009 57.30856 -96.68333
v 164.6309 57.30856 -95.89977
v 161.3383 57.30856 -95.18025
vt 0.747244 0.331655
vt 0.760619 0.360149
vt 0.551832 0.415879
vt 0.726016 0.30179
vt 0.707558 0.271528
vt 0.68061 0.247081
vt 0.656844 0.23154
vt 0.610157 0.214717
vt 0.792845 0.35487
vt 0.778238 0.325032
vt 0.751562 0.276964
vt 0.725337 0.250137
vt 0.696871 0.226523
vt 0.672404 0.212918
vt 0.577725 0.21163
vt 0.544485 0.208466
vt 0.519845 0.210759
vt 0.475589 0.222273
vt 0.611956 0.186652
vt 0.578933 0.179018
vt 0.545335 0.177507
vt 0.519126 0.180535
vt 0.760521 0.274642
vt 0.732017 0.243711
vt 0.704413 0.221501
vt 0.618038 0.179351
vt 0.579304 0.171234
vt 0.540107 0.169262
vt 0.512129 0.170282
vt 0.507658 0.175925
vt 0.575941 0.165551
vt 0.543238 0.161724
vt 0.737053 0.237776
vt 0.70774 0.217994
vt 0.622677 0.186193
vt 0.579289 0.13286
vt 0.541393 0.127054
vt 0.573803 0.124396
vt 0.548152 0.119928
vt 0.561819 0.119168
vt 0.759018 0.218496
vt 0.761191 0.213048
vt 0.759836 0.208714
vt 0.754419 0.204651
vt 0.74494 0.20113
vt 0.724611 0.19684
vt 0.738168 0.196255
vt 0.730314 0.194901
vt 0.620821 0.205444
vt 0.654689 0.219793
vt 0.667816 0.202079
vt 0.67438 0.202529
vt 0.442633 0.233574
vt 0.411733 0.254196
vt 0.396569 0.274753
vt 0.373229 0.306229
vt 0.459038 0.194208
vt 0.426883 0.210349
vt 0.399765 0.230203
vt 0.377001 0.251417
vt 0.363202 0.333692
vt 0.354734 0.364741
vt 0.344756 0.403658
vt 0.343899 0.445714
vt 0.346561 0.476152
vt 0.360948 0.507777
vt 0.3788 0.541423
vt 0.400497 0.556901
vt 0.38914 0.556807
vt 0.34185 0.398234
vt 0.316194 0.45291
vt 0.32267 0.483134
vt 0.335917 0.519748
vt 0.355053 0.550058
vt 0.319923 0.352936
vt 0.330507 0.321696
vt 0.343179 0.297113
vt 0.367321 0.306519
vt 0.30328 0.444943
vt 0.313149 0.489282
vt 0.32601 0.521781
vt 0.333844 0.437726
vt 0.335334 0.406541
vt 0.312955 0.391383
vt 0.305242 0.399881
vt 0.264746 0.504494
vt 0.275948 0.538238
vt 0.337298 0.289861
vt 0.302253 0.391883
vt 0.308614 0.356758
vt 0.322342 0.318651
vt 0.318555 0.320152
vt 0.307421 0.351872
vt 0.304399 0.347417
vt 0.313462 0.320288
vt 0.263496 0.329349
vt 0.262668 0.316551
vt 0.267224 0.304471
vt 0.271724 0.337777
vt 0.343303 0.28744
vt 0.367999 0.297512
vt 0.384173 0.276109
vt 0.38456 0.270492
vt 0.367127 0.253446
vt 0.367805 0.246958
vt 0.394632 0.221971
vt 0.42388 0.20081
vt 0.459854 0.182632
vt 0.394535 0.21432
vt 0.416326 0.198437
vt 0.274295 0.047618
vt 0.2723 0.030065
vt 0.272728 0.019196
vt 0.299147 0.018022
vt 0.291344 0.01137
vt 0.275961 0.011326
vt 0.282619 0.008414
vt 0.46688 0.185081
vt 0.477953 0.208397
vt 0.482425 0.209675
vt 0.506486 0.203819
vt 0.508616 0.200625
vt 0.438707 0.563227
vt 0.721509 0.562324
vt 0.739888 0.535406
vt 0.750514 0.503604
vt 0.759776 0.482349
vt 0.764156 0.456868
vt 0.764515 0.416929
vt 0.762639 0.389587
vt 0.770149 0.546885
vt 0.782593 0.516455
vt 0.79059 0.48964
vt 0.795819 0.464424
vt 0.800496 0.41441
vt 0.798123 0.381818
vt 0.777704 0.550207
vt 0.791692 0.521499
vt 0.801207 0.492547
vt 0.805059 0.461344
vt 0.808897 0.416622
vt 0.807098 0.385061
vt 0.810425 0.380205
vt 0.802602 0.352151
vt 0.798286 0.347925
vt 0.967521 0.342689
vt 0.973478 0.335732
vt 0.959688 0.314026
vt 0.897301 0.53723
vt 0.855113 0.547925
vt 0.900208 0.544897
vt 0.890239 0.548385
vt 0.874056 0.549856
vt 0.78336 0.315825
vt 0.777785 0.313307
vt 0.751979 0.320051
vt 0.73984 0.300539
vt 0.759442 0.282285
vt 0.744199 0.546059
vt 0.769897 0.555574
vt 0.737449 0.559884
vt 0.778527 0.449385
vt 0.774087 0.445819
vt 0.774894 0.429739
vt 0.800563 0.45608
vt 0.777115 0.426106
vt 0.803591 0.422286
vt 0.803522 0.45819
vt 0.578599 0.888503
vt 0.564391 0.873339
vt 0.583144 0.827137
vt 0.568199 0.823625
vt 0.620609 0.828081
vt 0.619404 0.943943
vt 0.690349 0.840335
vt 0.685715 0.947755
vt 0.769587 0.848911
vt 0.767933 0.949398
vt 0.855574 0.856503
vt 0.851587 0.945079
vt 0.936315 0.864097
vt 0.925078 0.936005
vt 0.565934 0.958285
vt 0.573963 0.976313
vt 0.568856 0.968484
vt 0.584994 0.982819
vt 0.670761 0.989464
vt 0.749464 0.990197
vt 0.846195 0.984637
vt 0.951359 0.966532
vt 0.949342 0.971764
vt 0.940032 0.79307
vt 0.85937 0.772187
vt 0.771161 0.753256
vt 0.699049 0.741585
vt 0.635231 0.740835
vt 0.589545 0.741347
vt 0.574243 0.742505
vt 0.698812 0.69999
vt 0.772083 0.711574
vt 0.70049 0.693376
vt 0.645418 0.687279
vt 0.644734 0.693807
vt 0.772211 0.704703
vt 0.856682 0.726934
vt 0.856838 0.719861
vt 0.975897 0.76354
vt 0.979698 0.757581
vt 0.979531 0.768063
vt 0.985759 0.765117
vt 0.594856 0.688316
vt 0.59561 0.693871
vt 0.587576 0.692224
vt 0.584453 0.698754
vt 0.98123 0.817841
vt 0.987537 0.817183
vt 0.97764 0.853709
vt 0.983984 0.85269
vt 0.973867 0.891404
vt 0.979995 0.892542
vt 0.959014 0.953352
vt 0.964813 0.955879
vt 0.955922 0.97065
vt 0.965852 0.965198
vt 0.975746 0.933671
vt 0.985902 0.872363
vt 0.989636 0.835056
vt 0.99319 0.799543
vt 0.989929 0.75262
vt 0.983026 0.74536
vt 0.866556 0.710249
vt 0.784667 0.689999
vt 0.710899 0.679907
vt 0.657597 0.672565
vt 0.613119 0.672482
vt 0.601993 0.675622
vt 0.592072 0.683453
vt 0.725403 0.669947
vt 0.790362 0.678026
vt 0.712832 0.68905
vt 0.779068 0.697288
vt 0.870717 0.695194
vt 0.861004 0.714794
vt 0.870717 0.695194
vt 0.846205 0.839302
vt 0.861004 0.714794
vt 0.83601 0.861736
vt 0.800233 0.704908
vt 0.745704 0.646582
vt 0.810106 0.661015
vt 0.678694 0.669853
vt 0.668285 0.743083
vt 0.788601 0.757718
vt 0.656486 0.860899
vt 0.770868 0.877792
vt 0.902983 0.774611
vt 0.885249 0.894685
vt 0.908552 0.734644
vt 0.850996 0.665326
vt 0.917473 0.681359
vt 0.68709 0.643007
vt 0.745704 0.646582
vt 0.804402 0.648581
vt 0.810106 0.661015
vt 0.814154 0.655687
vt 0.68709 0.643007
vt 0.692571 0.634709
vt 0.830001 0.653526
vt 0.850996 0.665326
vt 0.917473 0.681359
vt 0.922371 0.675355
vt 0.908552 0.734644
vt 0.917473 0.681359
vt 0.917548 0.727237
vt 0.922371 0.675355
vt 0.477454 0.792765
vt 0.479132 0.798582
vt 0.45618 0.805496
vt 0.457145 0.810447
vt 0.503231 0.786992
vt 0.501335 0.781272
vt 0.529812 0.776944
vt 0.527881 0.771202
vt 0.564646 0.769126
vt 0.562717 0.763372
vt 0.595431 0.763485
vt 0.596675 0.75735
vt 0.438909 0.819448
vt 0.444153 0.822591
vt 0.473564 0.858443
vt 0.494302 0.870893
vt 0.550911 0.893038
vt 0.521394 0.883884
vt 0.453304 0.844215
vt 0.443555 0.831531
vt 0.440282 0.827159
vt 0.438909 0.819448
vt 0.582714 0.898578
vt 0.611545 0.734228
vt 0.580069 0.73981
vt 0.542328 0.749823
vt 0.515296 0.759581
vt 0.488932 0.774467
vt 0.462801 0.793733
vt 0.438909 0.819448
vt 0.441388 0.812482
vt 0.441388 0.812482
vt 0.440282 0.827159
vt 0.440322 0.823981
vt 0.438909 0.819448
vt 0.440282 0.827159
vt 0.441388 0.812482
vt 0.187007 0.449959
vt 0.200726 0.470778
vt 0.171033 0.461624
vt 0.181459 0.477446
vt 0.158732 0.44695
vt 0.170821 0.430652
vt 0.140498 0.437201
vt 0.14683 0.417824
vt 0.12019 0.432388
vt 0.120109 0.411491
vt 0.100587 0.433444
vt 0.092633 0.411796
vt 0.089083 0.439079
vt 0.079178 0.420295
vt 0.08204 0.441309
vt 0.069911 0.42323
vt 0.066662 0.458213
vt 0.049677 0.445472
vt 0.059149 0.477112
vt 0.039792 0.470339
vt 0.057154 0.493898
vt 0.037166 0.492426
vt 0.056836 0.49975
vt 0.042263 0.499686
vt 0.057623 0.504229
vt 0.037784 0.506018
vt 0.060323 0.520662
vt 0.041336 0.527642
vt 0.070184 0.538271
vt 0.054311 0.550811
vt 0.087205 0.553883
vt 0.076707 0.571353
vt 0.095417 0.559417
vt 0.088754 0.575987
vt 0.102914 0.561916
vt 0.096941 0.581702
vt 0.120895 0.565739
vt 0.121036 0.586953
vt 0.140271 0.563543
vt 0.146532 0.584064
vt 0.158155 0.553838
vt 0.167728 0.568154
vt 0.172347 0.538722
vt 0.18322 0.551803
vt 0.181459 0.519675
vt 0.200726 0.526342
vt 0.200419 0.507883
vt 0.183159 0.493344
vt 0.202962 0.491696
vt 0.102914 0.561916
vt 0.095417 0.559417
vt 0.122243 0.548976
vt 0.116557 0.546876
vt 0.135878 0.552187
vt 0.120895 0.565739
vt 0.150572 0.550342
vt 0.140271 0.563543
vt 0.164134 0.542189
vt 0.158155 0.553838
vt 0.174897 0.529491
vt 0.172347 0.538722
vt 0.181807 0.51349
vt 0.181459 0.519675
vt 0.183096 0.49137
vt 0.183159 0.493344
vt 0.087205 0.553883
vt 0.110329 0.542227
vt 0.070184 0.538271
vt 0.097421 0.529112
vt 0.060323 0.520662
vt 0.089944 0.51432
vt 0.057623 0.504229
vt 0.087896 0.500514
vt 0.056836 0.49975
vt 0.087299 0.496751
vt 0.057154 0.493898
vt 0.08754 0.491836
vt 0.059149 0.477112
vt 0.089053 0.477734
vt 0.066662 0.458213
vt 0.094751 0.461857
vt 0.08204 0.441309
vt 0.106412 0.447657
vt 0.089083 0.439079
vt 0.111754 0.445783
vt 0.100587 0.433444
vt 0.120478 0.44105
vt 0.12019 0.432388
vt 0.135344 0.440163
vt 0.140498 0.437201
vt 0.150744 0.444206
vt 0.158732 0.44695
vt 0.164572 0.452396
vt 0.116557 0.546876
vt 0.150572 0.550342
vt 0.122243 0.548976
vt 0.110329 0.542227
vt 0.164134 0.542189
vt 0.174897 0.529491
vt 0.097421 0.529112
vt 0.089944 0.51432
vt 0.181807 0.51349
vt 0.087896 0.500514
vt 0.087299 0.496751
vt 0.08754 0.491836
vt 0.183096 0.49137
vt 0.181807 0.478015
vt 0.089053 0.477734
vt 0.173901 0.464723
vt 0.094751 0.461857
vt 0.164572 0.452396
vt 0.106412 0.447657
vt 0.111754 0.445783
vt 0.150744 0.444206
vt 0.120478 0.44105
vt 0.135344 0.440163
vt 0.171033 0.461624
vt 0.181459 0.477446
vt 0.173901 0.464723
vt 0.181807 0.478015
vt 0.164572 0.452396
vt 0.158732 0.44695
vt 0.183159 0.493344
vt 0.183096 0.49137
vt 0.201817 0.4705
vt 0.188166 0.449684
vt 0.24858 0.458552
vt 0.237828 0.437885
vt 0.17203 0.43049
vt 0.223818 0.423566
vt 0.148025 0.417662
vt 0.199226 0.410732
vt 0.12136 0.411343
vt 0.174964 0.404982
vt 0.254779 0.474325
vt 0.204144 0.4913
vt 0.252912 0.492979
vt 0.201616 0.507543
vt 0.248161 0.509262
vt 0.201808 0.525952
vt 0.237275 0.532017
vt 0.184453 0.551352
vt 0.22032 0.550076
vt 0.168928 0.567742
vt 0.198955 0.561671
vt 0.147727 0.583553
vt 0.120109 0.411491
vt 0.202962 0.491696
vt 0.200726 0.470778
vt 0.187007 0.449959
vt 0.170821 0.430652
vt 0.14683 0.417824
vt 0.18322 0.551803
vt 0.200726 0.526342
vt 0.200419 0.507883
vt 0.092633 0.411796
vt 0.093712 0.411636
vt 0.139935 0.404757
vt 0.167728 0.568154
vt 0.146532 0.584064
vt 0.122285 0.586436
vt 0.147727 0.583553
vt 0.175806 0.564294
vt 0.198955 0.561671
vt 0.146532 0.584064
vt 0.121036 0.586953
vt 0.135878 0.552187
vt 0.395812 0.739244
vt 0.3892 0.736558
vt 0.398499 0.721577
vt 0.394263 0.719923
vt 0.44504 0.701727
vt 0.467903 0.712609
vt 0.445162 0.698747
vt 0.468684 0.708118
vt 0.422127 0.65032
vt 0.437074 0.641184
vt 0.360323 0.684884
vt 0.372911 0.678408
vt 0.403906 0.612651
vt 0.41708 0.587927
vt 0.398547 0.612651
vt 0.409136 0.585774
vt 0.35611 0.633218
vt 0.339627 0.622796
vt 0.35582 0.63626
vt 0.33787 0.629239
vt 0.437074 0.641184
vt 0.41708 0.587927
vt 0.438285 0.640775
vt 0.418358 0.588007
vt 0.457431 0.634299
vt 0.438558 0.589284
vt 0.483363 0.625528
vt 0.504878 0.68021
vt 0.484601 0.695845
vt 0.504122 0.684557
vt 0.483831 0.700272
vt 0.46808 0.590618
vt 0.469631 0.707388
vt 0.468851 0.711875
vt 0.468684 0.708118
vt 0.467903 0.712609
vt 0.409136 0.585774
vt 0.410486 0.585937
vt 0.438558 0.589284
vt 0.438558 0.589284
vt 0.43182 0.588514
vt 0.46808 0.590618
vt 0.461466 0.589862
vt 0.399459 0.720618
vt 0.39544 0.71905
vt 0.417169 0.70293
vt 0.394263 0.719923
vt 0.398499 0.721577
vt 0.372911 0.678408
vt 0.374178 0.677595
vt 0.417169 0.70293
vt 0.397547 0.662593
vt 0.357172 0.635825
vt 0.38211 0.627814
vt 0.35582 0.63626
vt 0.35611 0.633218
vt 0.357447 0.63294
vt 0.38211 0.627814
vt 0.398547 0.612651
vt 0.399302 0.612638
vt 0.38211 0.627814
vt 0.413229 0.61239
vt 0.445317 0.70108
vt 0.450418 0.68915
vt 0.417169 0.70293
vt 0.44504 0.701727
vt 0.404386 0.612638
vt 0.430126 0.645077
vt 0.413229 0.61239
vt 0.422538 0.650051
vt 0.450418 0.68915
vt 0.445432 0.698253
vt 0.445317 0.70108
vt 0.44504 0.701727
vt 0.445162 0.698747
vt 0.422127 0.65032
vt 0.403906 0.612651
vt 0.397547 0.662593
vt 0.450418 0.68915
vt 0.417169 0.70293
vt 0.413229 0.61239
vt 0.38211 0.627814
vt 0.430126 0.645077
vt 0.399302 0.612638
vt 0.404386 0.612638
vt 0.413229 0.61239
vt 0.403906 0.612651
vt 0.398547 0.612651
vt 0.438558 0.589284
vt 0.410486 0.585937
vt 0.43182 0.588514
vt 0.374488 0.55465
vt 0.352994 0.556081
vt 0.346981 0.557395
vn 0 1 0
vn 0 1 0
vn 0 1 0
vn 0 1 0
vn 0 1 0
vn 0 1 0
vn 0 1 0
vn 0 1 0
vn 0 1 0
vn 0 1 0
vn 0 1 0
vn 0 1 0
vn 0 1 0
vn 0 1 0
vn 0 1 0
vn 0 1 0
vn 0 1 0
vn 0 1 0
vn 0 1 0
vn 0 1 0
vn 0 1 0
vn 0 1 0
vn 0 1 0
vn 0 1 0
vn 0 1 0
vn 0 1 0
vn 0 1 0
vn 0 1 0
vn 0 1 0
vn 0 1 0
vn 0 1 0
vn 0 1 0
vn 0 1 0
vn 0 1 0
vn 0 1 0
vn 0 1 0
vn 0 1 0
vn 0 1 0
vn 0 1 0
vn 0 1 0
vn 0 1 0
vn 0 1 0
vn 0 1 0
vn 0 1 0
vn 0 1 0
vn 0 1 0
vn 0 1 0
vn 0 1 0
vn 0 1 0
vn 0 1 0
vn 0 1 0
vn 0 1 0
vn 0 1 0
vn 0 1 0
vn 0 1 0
vn 0 1 0
vn 0 1 0
vn 0 1 0
vn 0 1 0
vn 0 1 0
vn 0 1 0
vn 0 1 0
vn 0 1 0
vn 0 1 0
vn 0 1 0
vn 0 1 0
vn 0 1 0
vn 0 1 0
vn 0 1 0
vn 0 1 0
vn 0 1 0
vn 0 1 0
vn 0 1 0
vn 0 1 0
vn 0 1 0
vn 0 1 0
vn 0 1 0
vn 0 1 0
vn 0 1 0
vn 0 1 0
vn 0 1 0
vn 0 1 0
vn 0 1 0
vn 0 1 0
vn 0 1 0
vn 0 1 0
vn 0 1 0
vn 0 1 0
vn 0 1 0
vn 0 1 0
vn 0 1 0
vn 0 1 0
vn 0 1 0
vn 0 1 0
vn 0 1 0
vn 0 1 0
vn 0 1 0
vn 0 1 0
vn 0 1 0
vn 0 1 0
vn 0 1 0
vn 0 1 0
vn 0 1 0
vn 0 1 0
vn 0 1 0
vn 0 1 0
vn 0 1 0
vn 0 1 0
vn 0 1 0
vn 0 1 0
vn 0 1 0
vn 0 1 0
vn 0 1 0
vn 0 1 0
vn 0 1 0
vn 0 1 0
vn 0 1 0
vn 0 1 0
vn 0 1 0
vn 0 1 0
vn 0 1 0
vn 0 1 0
vn 0 1 0
vn 0 1 0
vn 0 1 0
vn 0 1 0
vn 0 1 0
vn 0 1 0
vn 0 1 0
vn 0 1 0
vn 0 1 0
vn 0 1 0
vn 0 1 0
vn 0 1 0
vn 0 1 0
vn 0 1 0
vn 0 1 0
vn 0 1 0
vn 0 1 0
vn 0 1 0
vn 0 1 0
vn 0 1 0
vn 0 1 0
vn 0 1 0
vn 0 1 0
vn 0 1 0
vn 0 1 0
vn 0 1 0
vn 0 1 0
vn 0 1 0
vn 0 1 0
vn 0 1 0
vn 0 1 0
vn 0 1 0
vn 0 1 0
vn 0 1 0
vn 0 1 0
vn 0 1 0
vn 0 1 0
vn 0 1 0
vn 0 1 0
vn 0 1 0
vn 0 1 0
vn 0 1 0
vn 0 1 0
vn 0 1 0
vn 0 1 0
vn 0 1 0
vn 0 1 0
vn 0 1 0
vn 0 1 0
vn 0 1 0
vn 0 1 0
vn 0 1 0
vn 0 1 0
vn 0 1 0
vn 0 1 0
vn 0 1 0
vn 0 1 0
vn 0 1 0
vn 0 1 0
vn 0 1 0
vn 0 1 0
vn 0 1 0
vn 0 1 0
vn 0 1 0
vn 0 1 0
vn 0 1 0
vn 0 1 0
vn 0.2218705 0.931825 0.2871859
vn 0.2631474 0.9248998 0.2744336
vn 0 1 0
vn 0 1 0
vn 0 1 0
vn 0 1 0
vn 0 1 0
vn 0 1 0
vn 0 1 0
vn 0.2204965 0.9113666 -0.3475519
vn 0.2316628 0.9127017 -0.3366128
vn 0.5148306 0.3251767 -0.7932273
vn 0.4624961 0.3235815 -0.825465
vn 0.1940497 0.90292 -0.3835105
vn 0.5508904 0.3239774 -0.7691284
vn 0.2475216 0.9141546 -0.3210211
vn 0.6100978 0.3051823 -0.7311939
vn 0.378809 0.8815128 -0.2818492
vn 0.8520815 0.3219051 -0.4127157
vn 0.4601798 0.8877044 -0.01467563
vn 0.9168698 0.360434 0.1715724
vn 0.2416701 0.2600919 -0.9348518
vn 0.05403567 0.9231827 -0.3805442
vn -0.07696428 0.2955669 -0.9522168
vn 0.01457896 0.8810695 -0.4727621
vn 0.3491661 0.9218436 0.168189
vn 0.8178865 0.3707054 0.4400445
vn 0.3964369 0.8870265 0.2366892
vn 0.796896 0.3722974 0.475764
vn 0.3191657 0.9240575 0.2103595
vn 0.7527222 0.38938 0.5308414
vn 0.3147773 0.8994026 0.3032991
vn 0.608196 0.4410618 0.6599714
vn 0.4974041 0.5603226 0.6622899
vn 0.6491103 0.09230021 0.7550739
vn 0.7817519 0.02512924 0.6230831
vn 0.8473366 -0.01417971 0.5308668
vn 0.8585253 -0.01498147 0.5125523
vn 0.9056046 -0.02723457 0.4232478
vn 0.9942442 -0.0841507 -0.06631163
vn 0.7806735 -0.1137298 -0.6145033
vn 0.6226882 -0.09699134 -0.7764355
vn 0.577369 -0.06053136 -0.8142364
vn 0.5351908 -0.06720331 -0.8420537
vn 0.4592837 -0.04977235 -0.8868942
vn 0.2969886 -0.04533667 -0.9538041
vn -0.03999535 -0.03195608 -0.9986888
vn -0.2276642 -0.02035442 -0.973527
vn 0.5330372 0 -0.8460917
vn 0.5572757 0 -0.8303275
vn 0.5330372 0 -0.8460917
vn 0.5810681 0 -0.8138549
vn 0.6043546 0 -0.7967155
vn 0.6043546 0 -0.7967155
vn 0.821395 0 0.5703596
vn 0.821395 0 0.5703596
vn 0.821395 0 0.5703596
vn 0.821395 0 0.5703596
vn -0.005202254 0.999947 -0.008897905
vn 0 1 0
vn 0 1 0
vn 0 1 0
vn 0 1 0
vn -0.01297643 0.9998721 0.00934903
vn 0 1 0
vn 0 1 0
vn -0.0169681 0.9995279 0.0256134
vn 0 1 0
vn -0.01057748 0.9998894 -0.01046151
vn 0.01186656 0.9993973 -0.03262507
vn 0.04503977 0.9974 -0.05625567
vn 0 1 0
vn 0.5469752 -0.05399661 -0.8354056
vn 0.640758 -0.03665482 -0.7668675
vn 0.5986709 -0.00202166 -0.8009925
vn 0.6316947 -0.06776557 -0.7722497
vn 0.5047342 -0.07828558 -0.8597179
vn 0.5326144 0.02473791 -0.8459964
vn 0.5212108 -0.02958388 -0.852915
vn 0.5722874 -0.004937723 -0.8200382
vn 0.6224821 -0.0479183 -0.7811657
vn 0.6208623 -0.04161394 -0.7828143
vn 0.8214738 0.1587111 0.5477149
vn 0.8456271 0.1017839 0.5239799
vn 0.8456271 0.1017839 0.5239799
vn 0.8660702 0.04441007 0.4979461
vn -0.04102569 0.379346 -0.924345
vn -0.05585446 0.9093134 -0.4123462
vn -0.1408674 0.5605607 -0.8160442
vn -0.06433299 0.9486969 -0.3095733
vn 0.006037037 0.9492056 -0.3145986
vn 0.03512513 0.4959826 -0.8676218
vn 0.0460358 0.9283509 -0.3688434
vn 0.1695209 0.3496146 -0.9214295
vn 0.08681703 0.9252663 -0.3692494
vn 0.2259502 0.38283 -0.895761
vn 0.1311537 0.8602206 -0.4927669
vn 0.2408965 0.375595 -0.8949286
vn -0.2898182 0.5779829 -0.7628506
vn -0.2369767 0.944095 -0.229187
vn -0.04119856 0.998844 -0.02476544
vn 0 1 0
vn 0 1 0
vn 0 1 0
vn 0.08498128 0.9951958 0.04861506
vn -0.2644976 0.9532226 -0.1463135
vn -0.8183587 0.4626853 -0.340898
vn -0.5316299 0.6999243 -0.476944
vn 0 1 0
vn 0.2599286 0.001921881 -0.9656259
vn 0.2467373 0.008162908 -0.969048
vn 0.2262809 0.02090189 -0.9738379
vn 0.06724833 0.05548966 -0.996192
vn -0.03764309 0.07064252 -0.9967911
vn -0.147913 0.0844956 -0.9853843
vn -0.1775821 0.4774522 -0.8605255
vn -0.5560617 0.175926 -0.8123088
vn -0.7432705 0.1492654 -0.6521263
vn -0.8183587 0.4626853 -0.340898
vn -0.846292 0.1983155 -0.4944296
vn -0.8566825 0.4605015 -0.2324512
vn -0.8183587 0.4626853 -0.340898
vn -0.9146283 0.1390948 -0.3796151
vn 0 1 0
vn 0 1 0
vn 0 1 0
vn 0 1 0
vn 0 1 0
vn 0 1 0
vn 0 1 0
vn 0 1 0
vn 0 1 0
vn 0.0008357946 0.9999994 0.0007432523
vn 0.001271602 0.9999979 0.001633025
vn 0 0.9999974 0.002300174
vn -0.0008293881 0.9999985 0.001556918
vn -0.001265196 0.999999 0.0006671433
vn 0 1 0
vn 0 1 0
vn 0 1 0
vn 0 1 0
vn 0 1 0
vn 0 1 0
vn 0 1 0
vn 0 1 0
vn 0 1 0
vn 0 1 0
vn 0 1 0
vn 0 1 0
vn 0 1 0
vn 0 1 0
vn 0 1 0
vn 0 1 0
vn 0 1 0
vn 0 1 0
vn 0 1 0
vn 0 1 0
vn 0 1 0
vn 0 1 0
vn 0 1 0
vn 0 1 0
vn 0 1 0
vn -0.005118137 0.999985 -0.001968148
vn -0.008478349 0.999951 -0.005123006
vn -0.002981564 0.9999717 -0.006907371
vn 0.004255407 0.9999833 -0.003925474
vn 0.007217915 0.9999739 0.0003783914
vn 0.001290625 0.9999979 0.001621663
vn -0.0005963368 0.9999983 0.001723187
vn 0 1 0
vn 0 1 0
vn 0 1 0
vn 0.251233 -0.03982247 -0.967107
vn 0.4094628 -0.05516746 -0.9106573
vn 0.2973954 -0.04366791 -0.9537552
vn 0.5040766 -0.06273268 -0.8613775
vn 0.105553 -0.01880508 -0.9942358
vn -0.00989478 -0.0009237721 -0.9999506
vn -0.2551659 0.04485868 -0.9658562
vn -0.3738229 0.07196841 -0.9247037
vn -0.588039 0.1225163 -0.7994998
vn -0.657568 0.1456958 -0.7391732
vn -0.7977062 0.188484 -0.5728337
vn -0.8407426 0.2081507 -0.4998251
vn -0.9247702 0.2442345 -0.291804
vn -0.9480499 0.2606972 -0.1823139
vn -0.960722 0.2773775 -0.008654837
vn -0.958432 0.2818896 0.04411933
vn 0.6106166 -0.07136887 -0.7887039
vn 0.6619745 -0.07040937 -0.7462119
vn 0.7592366 -0.07038722 -0.6469973
vn 0.8319349 -0.06504911 -0.551047
vn 0.9268144 -0.05783205 -0.3710397
vn 0.965499 -0.04904824 -0.2557456
vn 0.9860848 -0.04332675 -0.1604974
vn 0.9864223 -0.04226093 -0.158698
vn 0.9950696 -0.03637566 -0.09226707
vn 0.9993951 -0.02981484 -0.01790365
vn 0.9970436 -0.02156292 0.07375096
vn 0.9956161 -0.0205236 0.09125416
vn 0.9798393 -0.008267761 0.199616
vn 0.9619318 -0.001676969 0.2732843
vn 0.8838236 0.02536212 0.4671324
vn 0.8301139 0.03518233 0.5564827
vn 0.6245819 0.08024715 0.7768255
vn 0.4836864 0.1029414 0.8691666
vn 0.3557474 0.1214113 0.9266623
vn 0.4144436 0.1097542 0.9034327
vn 0.3282547 0.1253985 0.9362287
vn 0.1998349 0.1446972 0.9690865
vn -0.03832518 0.1789811 0.9831058
vn -0.1398405 0.1943021 0.9709229
vn -0.3127418 0.2183927 0.9243902
vn -0.4028527 0.2338135 0.884896
vn -0.5707248 0.2567019 0.7799854
vn -0.674592 0.2719688 0.6862643
vn 0 1 0
vn 0 1 0
vn 0 1 0
vn 0 1 0
vn 0 1 0
vn 0 1 0
vn 0 1 0
vn 0 1 0
vn 0 1 0
vn 0 1 0
vn 0 1 0
vn 0 1 0
vn 0 1 0
vn 0 1 0
vn 0 1 0
vn 0 1 0
vn 0 1 0
vn 0 1 0
vn 0 1 0
vn 0 1 0
vn 0 1 0
vn 0 1 0
vn 0 1 0
vn -0.768308 0.2804641 0.5753631
vn -0.8768131 0.2937094 0.3807016
vn -0.7964894 0.2869412 0.5322307
vn -0.927375 0.2934808 0.2320447
vn -0.674592 0.2719688 0.6862643
vn -0.5707248 0.2567019 0.7799854
vn -0.958432 0.2818896 0.04411933
vn -0.960722 0.2773775 -0.008654837
vn 0.9243406 0.02330567 -0.3808561
vn 0.8121272 0.01741138 -0.5832206
vn 0.8876811 0.01757599 -0.4601231
vn 0.7951975 0.01625801 -0.6061326
vn 0.6199359 -0.0065023 -0.7846255
vn 0.5554774 -0.01464483 -0.8314026
vn 0.3522318 -0.03131069 -0.9353889
vn 0.3099239 -0.03433893 -0.950141
vn 0.110707 -0.04635318 -0.9927716
vn 0.07591522 -0.04813128 -0.9959519
vn 0.9908136 0.04312785 -0.1281739
vn 0.9985672 0.05187304 0.0131389
vn 0.9821758 0.06034393 0.1780149
vn 0.9911588 0.05493341 0.1207752
vn 0.9705018 0.04000942 0.2377509
vn 0.9636319 0.03863381 0.2644258
vn 0.8245152 0.04369567 0.5641502
vn 0.7778946 0.04655915 0.6266675
vn 0.6512396 0.04474579 0.7575518
vn 0.6465784 0.04069987 0.761761
vn 0.4055059 0.01770294 0.9139209
vn 0.3679872 0.01143357 0.9297606
vn 0.1509518 -0.04447163 -0.9875403
vn 0.9960046 0.05792546 0.0679657
vn 0.9644886 0.03036238 -0.2623733
vn 0.8136328 0.01660604 -0.5811419
vn 0.6786959 0.001526961 -0.7344179
vn 0.3939245 -0.02820724 -0.9187099
vn 0.7606854 0.04979522 0.647208
vn 0.921011 0.03762688 0.3877151
vn 0.9978645 0.04935755 0.04278033
vn -0.01073724 -0.05219559 -0.9985791
vn -0.004855614 -0.05151318 -0.9986606
vn 0.006404172 -0.05018646 -0.9987193
vn 0.6431794 0.0367507 0.764833
vn 0.2837386 0.003196597 0.9588963
vn 0.1126116 -0.005128696 0.9936259
vn 0.3679872 0.01143357 0.9297606
vn 0.1126105 -0.005122492 0.993626
vn 0.4055059 0.01770294 0.9139209
vn 0.2837386 0.003196597 0.9588963
vn 0.1126108 -0.005127281 0.993626
vn 0 1 0
vn 0 1 0
vn 0 1 0
vn 0 1 0
vn 0 1 0
vn 0 1 0
vn 0 1 0
vn 0 1 0
vn 0 1 0
vn 0 1 0
vn 0.002960784 0.9999897 -0.003441723
vn 0 1 0
vn 0 1 0
vn 0.002960808 0.9999599 -0.008451544
vn 0.02089897 0.9997817 -6.069794E-05
vn 0.01872398 0.9998122 0.005006252
vn 0.01844698 0.9997752 0.01045327
vn 0.0005110986 0.9999977 0.002058783
vn -0.0002755021 0.9999999 0.0004357236
vn 0 1 0
vn 0 1 0
vn 0.9154379 -0.005710626 -0.4024187
vn 0.7874187 -0.06892022 -0.6125535
vn 0.9221368 -0.004483924 -0.3868378
vn 0.6658127 -0.1084499 -0.7381951
vn 0.923392 -0.00528426 -0.3838219
vn 0.8160188 -0.05489347 -0.5754129
vn 0.9230594 0.002123362 -0.3846514
vn 0.9782043 -0.01738522 -0.2069159
vn 0.9917991 -0.02450545 -0.1254358
vn 0.9847664 -0.03004779 0.1712673
vn 0.9847667 -0.03004783 0.1712651
vn 0.9160547 -0.005721533 -0.4010126
vn 0.990719 -0.02484805 -0.1336352
vn 0.9847669 -0.03005046 0.1712635
vn 0.9991125 -0.03023076 -0.02932703
vn 0.9847664 -0.03004805 0.1712673
vn 0.2570602 -0.1820982 -0.9490839
vn 0.2064146 -0.1906243 -0.9597163
vn 0.6180594 -0.1120815 -0.7781004
vn 0.1593973 -0.1865728 -0.9694241
vn 0.1115296 -0.1876704 -0.9758795
vn 0.1117194 -0.1786973 -0.9775408
vn 0.1117193 -0.1786973 -0.9775408
vn -0.01487902 -0.05330549 -0.9984674
vn 0.7170146 -0.1360901 -0.6836443
vn 0.5354414 -0.1151276 -0.8366888
vn 0.5663182 -0.1275295 -0.8142604
vn -0.1510566 -0.03141753 -0.9880257
vn 0.8941756 -0.1373411 -0.4261308
vn 0.901769 -0.1374549 -0.4097788
vn 0.755104 -0.1368845 -0.6411557
vn 0.9047152 -0.1381713 -0.4029878
vn 0.9812605 -0.1226164 -0.1486372
vn 0.9793529 -0.1252923 -0.1586497
vn 0.9664404 -0.128035 -0.2227106
vn 0.9112738 -0.04345051 0.4095023
vn 0.7520786 0.008925503 0.659013
vn 0.8813875 -0.02871417 0.4715205
vn 0.2968772 0.1124241 0.9482746
vn 0.2248244 0.1289977 0.9658228
vn 0.7039171 0.02082577 0.7099767
vn 0.2276423 0.1279336 0.9653041
vn -0.3920555 0.01005058 -0.9198867
vn -0.3873968 0.009684964 -0.9218622
vn -0.01158613 -0.05329175 -0.9985117
vn -0.3922924 0.00911459 -0.9197955
vn -0.8627122 0.274009 0.4250257
vn -0.8648583 0.2728016 0.4214257
vn -0.8532034 0.2784393 0.4410392
vn -0.8690095 0.271455 0.4136843
vn -0.9259459 0.2692338 0.2648344
vn -0.9537162 0.2634 0.1450718
vn -0.9688138 0.2446071 -0.03958805
vn -0.9688139 0.2446064 -0.03959037
vn -0.9247459 0.2695181 0.2687097
vn -0.8669063 0.2724481 0.4174272
vn -0.8649527 0.2771608 0.4183763
vn 0 1 0
vn 0 1 0
vn 0 1 0
vn 0 1 0
vn 0 1 0
vn 0 1 0
vn 0.2248244 0.1289977 0.9658228
vn 1.113273E-05 0.1751634 0.9845393
vn 0.2276423 0.1279336 0.9653041
vn 1.085444E-05 0.1751641 0.9845392
vn 0.2968772 0.1124241 0.9482746
vn 0.1593973 -0.1865728 -0.9694241
vn 0.2064146 -0.1906243 -0.9597163
vn 0.1115296 -0.1876704 -0.9758795
vn 0 1 0
vn 0 1 0
vn 0 1 0
g BRM_Anvil_0
f 3/3/3 2/2/2 1/1/1
f 3/3/3 1/1/1 4/4/4
f 3/3/3 4/4/4 5/5/5
f 3/3/3 5/5/5 6/6/6
f 3/3/3 6/6/6 7/7/7
f 3/3/3 7/7/7 8/8/8
f 2/2/2 9/9/9 1/1/1
f 1/1/1 9/9/9 10/10/10
f 4/4/4 11/11/11 5/5/5
f 5/5/5 11/11/11 12/12/12
f 5/5/5 12/12/12 6/6/6
f 6/6/6 12/12/12 13/13/13
f 6/6/6 13/13/13 7/7/7
f 7/7/7 13/13/13 14/14/14
f 3/3/3 8/8/8 15/15/15
f 16/16/16 3/3/3 15/15/15
f 3/3/3 16/16/16 17/17/17
f 3/3/3 17/17/17 18/18/18
f 8/8/8 19/19/19 15/15/15
f 15/15/15 19/19/19 20/20/20
f 16/16/16 21/21/21 17/17/17
f 21/21/21 15/15/15 20/20/20
f 16/16/16 15/15/15 21/21/21
f 17/17/17 21/21/21 22/22/22
f 23/23/23 12/12/12 11/11/11
f 24/24/24 12/12/12 23/23/23
f 24/24/24 13/13/13 12/12/12
f 25/25/25 13/13/13 24/24/24
f 25/25/25 14/14/14 13/13/13
f 26/26/26 20/20/20 19/19/19
f 27/27/27 20/20/20 26/26/26
f 27/27/27 21/21/21 20/20/20
f 28/28/28 22/22/22 21/21/21
f 28/28/28 21/21/21 27/27/27
f 29/29/29 22/22/22 28/28/28
f 29/29/29 30/30/30 22/22/22
f 30/30/30 17/17/17 22/22/22
f 31/31/31 28/28/28 27/27/27
f 32/32/32 28/28/28 31/31/31
f 33/33/33 25/25/25 24/24/24
f 34/34/34 25/25/25 33/33/33
f 35/35/35 26/26/26 19/19/19
f 31/31/31 36/36/36 32/32/32
f 32/32/32 36/36/36 37/37/37
f 36/36/36 38/38/38 37/37/37
f 37/37/37 38/38/38 39/39/39
f 40/40/40 39/39/39 38/38/38
f 33/33/33 41/41/41 34/34/34
f 41/41/41 42/42/42 34/34/34
f 42/42/42 43/43/43 34/34/34
f 43/43/43 44/44/44 34/34/34
f 44/44/44 45/45/45 34/34/34
f 34/34/34 45/45/45 46/46/46
f 45/45/45 47/47/47 46/46/46
f 48/48/48 46/46/46 47/47/47
f 35/35/35 19/19/19 49/49/49
f 49/49/49 19/19/19 8/8/8
f 49/49/49 8/8/8 50/50/50
f 50/50/50 8/8/8 7/7/7
f 50/50/50 7/7/7 51/51/51
f 51/51/51 7/7/7 14/14/14
f 51/51/51 14/14/14 52/52/52
f 52/52/52 14/14/14 25/25/25
f 3/3/3 18/18/18 53/53/53
f 3/3/3 53/53/53 54/54/54
f 3/3/3 54/54/54 55/55/55
f 3/3/3 55/55/55 56/56/56
f 18/18/18 57/57/57 53/53/53
f 53/53/53 57/57/57 58/58/58
f 53/53/53 58/58/58 54/54/54
f 54/54/54 58/58/58 59/59/59
f 54/54/54 59/59/59 55/55/55
f 55/55/55 59/59/59 60/60/60
f 3/3/3 56/56/56 61/61/61
f 62/62/62 3/3/3 61/61/61
f 3/3/3 62/62/62 63/63/63
f 3/3/3 63/63/63 64/64/64
f 3/3/3 64/64/64 65/65/65
f 3/3/3 65/65/65 66/66/66
f 3/3/3 66/66/66 67/67/67
f 3/3/3 67/67/67 68/68/68
f 68/68/68 67/67/67 69/69/69
f 63/63/63 62/62/62 70/70/70
f 64/64/64 71/71/71 65/65/65
f 65/65/65 71/71/71 72/72/72
f 65/65/65 72/72/72 66/66/66
f 66/66/66 72/72/72 73/73/73
f 66/66/66 73/73/73 67/67/67
f 67/67/67 73/73/73 74/74/74
f 62/62/62 61/61/61 75/75/75
f 62/62/62 75/75/75 70/70/70
f 75/75/75 61/61/61 76/76/76
f 61/61/61 77/77/77 76/76/76
f 78/78/78 77/77/77 61/61/61
f 79/79/79 72/72/72 71/71/71
f 80/80/80 72/72/72 79/79/79
f 80/80/80 73/73/73 72/72/72
f 81/81/81 73/73/73 80/80/80
f 73/73/73 81/81/81 74/74/74
f 79/79/79 71/71/71 82/82/82
f 82/82/82 71/71/71 64/64/64
f 82/82/82 64/64/64 83/83/83
f 84/84/84 83/83/83 70/70/70
f 70/70/70 75/75/75 84/84/84
f 85/85/85 83/83/83 84/84/84
f 83/83/83 64/64/64 63/63/63
f 83/83/83 63/63/63 70/70/70
f 86/86/86 81/81/81 80/80/80
f 87/87/87 81/81/81 86/86/86
f 88/88/88 76/76/76 77/77/77
f 89/89/89 85/85/85 84/84/84
f 89/89/89 84/84/84 90/90/90
f 90/90/90 84/84/84 75/75/75
f 90/90/90 75/75/75 91/91/91
f 92/92/92 90/90/90 91/91/91
f 93/93/93 90/90/90 92/92/92
f 91/91/91 76/76/76 88/88/88
f 91/91/91 75/75/75 76/76/76
f 92/92/92 94/94/94 93/93/93
f 95/95/95 94/94/94 92/92/92
f 94/94/94 95/95/95 96/96/96
f 96/96/96 95/95/95 97/97/97
f 98/98/98 97/97/97 95/95/95
f 99/99/99 94/94/94 96/96/96
f 100/100/100 88/88/88 77/77/77
f 100/100/100 77/77/77 101/101/101
f 101/101/101 77/77/77 78/78/78
f 56/56/56 101/101/101 78/78/78
f 101/101/101 56/56/56 102/102/102
f 102/102/102 56/56/56 55/55/55
f 56/56/56 78/78/78 61/61/61
f 102/102/102 55/55/55 103/103/103
f 103/103/103 55/55/55 104/104/104
f 104/104/104 55/55/55 60/60/60
f 104/104/104 60/60/60 105/105/105
f 105/105/105 60/60/60 106/106/106
f 106/106/106 60/60/60 59/59/59
f 106/106/106 59/59/59 107/107/107
f 107/107/107 59/59/59 58/58/58
f 107/107/107 58/58/58 108/108/108
f 108/108/108 58/58/58 57/57/57
f 107/107/107 109/109/109 106/106/106
f 110/110/110 109/109/109 107/107/107
f 109/109/109 110/110/110 111/111/111
f 111/111/111 110/110/110 112/112/112
f 112/112/112 110/110/110 113/113/113
f 110/110/110 114/114/114 113/113/113
f 114/114/114 115/115/115 113/113/113
f 113/113/113 115/115/115 116/116/116
f 117/117/117 116/116/116 115/115/115
f 118/118/118 108/108/108 57/57/57
f 118/118/118 57/57/57 119/119/119
f 119/119/119 57/57/57 18/18/18
f 119/119/119 18/18/18 120/120/120
f 120/120/120 18/18/18 121/121/121
f 121/121/121 18/18/18 17/17/17
f 122/122/122 121/121/121 17/17/17
f 122/122/122 17/17/17 30/30/30
f 123/123/123 3/3/3 68/68/68
f 124/124/124 3/3/3 123/123/123
f 3/3/3 124/124/124 125/125/125
f 3/3/3 125/125/125 126/126/126
f 127/127/127 3/3/3 126/126/126
f 3/3/3 127/127/127 128/128/128
f 3/3/3 128/128/128 129/129/129
f 3/3/3 129/129/129 130/130/130
f 125/125/125 131/131/131 126/126/126
f 126/126/126 131/131/131 132/132/132
f 127/127/127 133/133/133 128/128/128
f 133/133/133 126/126/126 132/132/132
f 127/127/127 126/126/126 133/133/133
f 128/128/128 133/133/133 134/134/134
f 129/129/129 135/135/135 130/130/130
f 130/130/130 135/135/135 136/136/136
f 9/9/9 130/130/130 136/136/136
f 2/2/2 130/130/130 9/9/9
f 2/2/2 3/3/3 130/130/130
f 137/137/137 132/132/132 131/131/131
f 138/138/138 132/132/132 137/137/137
f 138/138/138 133/133/133 132/132/132
f 139/139/139 134/134/134 133/133/133
f 139/139/139 133/133/133 138/138/138
f 140/140/140 134/134/134 139/139/139
f 141/141/141 136/136/136 135/135/135
f 142/142/142 136/136/136 141/141/141
f 143/143/143 9/9/9 136/136/136
f 143/143/143 136/136/136 142/142/142
f 144/144/144 9/9/9 143/143/143
f 144/144/144 145/145/145 9/9/9
f 143/143/143 146/146/146 144/144/144
f 146/146/146 147/147/147 144/144/144
f 148/148/148 144/144/144 147/147/147
f 139/139/139 138/138/138 149/149/149
f 150/150/150 149/149/149 138/138/138
f 151/151/151 149/149/149 150/150/150
f 152/152/152 151/151/151 150/150/150
f 153/153/153 152/152/152 150/150/150
f 145/145/145 10/10/10 9/9/9
f 154/154/154 10/10/10 145/145/145
f 154/154/154 155/155/155 10/10/10
f 155/155/155 1/1/1 10/10/10
f 156/156/156 1/1/1 155/155/155
f 156/156/156 4/4/4 1/1/1
f 157/157/157 4/4/4 156/156/156
f 157/157/157 11/11/11 4/4/4
f 158/158/158 11/11/11 157/157/157
f 158/158/158 23/23/23 11/11/11
f 159/159/159 131/131/131 125/125/125
f 160/160/160 131/131/131 159/159/159
f 159/159/159 125/125/125 161/161/161
f 161/161/161 125/125/125 124/124/124
f 160/160/160 137/137/137 131/131/131
f 163/163/163 128/128/128 162/162/162
f 163/163/163 129/129/129 128/128/128
f 164/164/164 129/129/129 163/163/163
f 162/162/162 128/128/128 165/165/165
f 165/165/165 128/128/128 134/134/134
f 166/166/166 129/129/129 164/164/164
f 166/166/166 135/135/135 129/129/129
f 167/167/167 135/135/135 166/166/166
f 167/167/167 141/141/141 135/135/135
f 168/168/168 165/165/165 134/134/134
f 140/140/140 168/168/168 134/134/134
f 171/171/171 170/170/170 169/169/169
f 172/172/172 170/170/170 171/171/171
f 169/169/169 173/173/173 171/171/171
f 174/174/174 173/173/173 169/169/169
f 174/174/174 175/175/175 173/173/173
f 176/176/176 175/175/175 174/174/174
f 176/176/176 177/177/177 175/175/175
f 178/178/178 177/177/177 176/176/176
f 178/178/178 179/179/179 177/177/177
f 180/180/180 179/179/179 178/178/178
f 180/180/180 181/181/181 179/179/179
f 182/182/182 181/181/181 180/180/180
f 170/170/170 183/183/183 169/169/169
f 184/184/184 169/169/169 183/183/183
f 184/184/184 174/174/174 169/169/169
f 185/185/185 184/184/184 183/183/183
f 186/186/186 174/174/174 184/184/184
f 186/186/186 176/176/176 174/174/174
f 187/187/187 176/176/176 186/186/186
f 187/187/187 178/178/178 176/176/176
f 188/188/188 178/178/178 187/187/187
f 188/188/188 180/180/180 178/178/178
f 189/189/189 180/180/180 188/188/188
f 180/180/180 189/189/189 182/182/182
f 190/190/190 182/182/182 189/189/189
f 191/191/191 190/190/190 189/189/189
f 181/181/181 192/192/192 179/179/179
f 179/179/179 192/192/192 193/193/193
f 179/179/179 193/193/193 177/177/177
f 177/177/177 193/193/193 194/194/194
f 177/177/177 194/194/194 175/175/175
f 175/175/175 194/194/194 195/195/195
f 175/175/175 195/195/195 173/173/173
f 173/173/173 195/195/195 196/196/196
f 173/173/173 196/196/196 171/171/171
f 171/171/171 196/196/196 197/197/197
f 197/197/197 172/172/172 171/171/171
f 198/198/198 172/172/172 197/197/197
f 194/194/194 199/199/199 195/195/195
f 200/200/200 199/199/199 194/194/194
f 193/193/193 200/200/200 194/194/194
f 200/200/200 201/201/201 199/199/199
f 202/202/202 199/199/199 201/201/201
f 203/203/203 199/199/199 202/202/202
f 195/195/195 203/203/203 196/196/196
f 199/199/199 203/203/203 195/195/195
f 204/204/204 201/201/201 200/200/200
f 205/205/205 204/204/204 200/200/200
f 206/206/206 204/204/204 205/205/205
f 207/207/207 206/206/206 205/205/205
f 208/208/208 206/206/206 207/207/207
f 209/209/209 208/208/208 207/207/207
f 210/210/210 208/208/208 209/209/209
f 211/211/211 203/203/203 202/202/202
f 212/212/212 203/203/203 211/211/211
f 213/213/213 212/212/212 211/211/211
f 214/214/214 212/212/212 213/213/213
f 215/215/215 210/210/210 209/209/209
f 216/216/216 210/210/210 215/215/215
f 217/217/217 216/216/216 215/215/215
f 218/218/218 216/216/216 217/217/217
f 217/217/217 219/219/219 218/218/218
f 218/218/218 219/219/219 220/220/220
f 219/219/219 221/221/221 220/220/220
f 220/220/220 221/221/221 222/222/222
f 190/190/190 222/222/222 221/221/221
f 223/223/223 222/222/222 190/190/190
f 217/217/217 215/215/215 181/181/181
f 181/181/181 219/219/219 217/217/217
f 214/214/214 198/198/198 212/212/212
f 212/212/212 198/198/198 197/197/197
f 196/196/196 212/212/212 197/197/197
f 182/182/182 219/219/219 181/181/181
f 221/221/221 219/219/219 182/182/182
f 190/190/190 221/221/221 182/182/182
f 181/181/181 215/215/215 192/192/192
f 192/192/192 215/215/215 209/209/209
f 209/209/209 207/207/207 192/192/192
f 207/207/207 205/205/205 192/192/192
f 192/192/192 205/205/205 193/193/193
f 205/205/205 200/200/200 193/193/193
f 224/224/224 222/222/222 223/223/223
f 225/225/225 222/222/222 224/224/224
f 191/191/191 223/223/223 190/190/190
f 225/225/225 220/220/220 222/222/222
f 226/226/226 220/220/220 225/225/225
f 226/226/226 218/218/218 220/220/220
f 227/227/227 218/218/218 226/226/226
f 227/227/227 216/216/216 218/218/218
f 228/228/228 216/216/216 227/227/227
f 228/228/228 210/210/210 216/216/216
f 229/229/229 210/210/210 228/228/228
f 229/229/229 208/208/208 210/210/210
f 230/230/230 208/208/208 229/229/229
f 230/230/230 206/206/206 208/208/208
f 231/231/231 206/206/206 230/230/230
f 231/231/231 204/204/204 206/206/206
f 232/232/232 204/204/204 231/231/231
f 232/232/232 201/201/201 204/204/204
f 233/233/233 201/201/201 232/232/232
f 233/233/233 202/202/202 201/201/201
f 234/234/234 202/202/202 233/233/233
f 234/234/234 211/211/211 202/202/202
f 235/235/235 211/211/211 234/234/234
f 235/235/235 236/236/236 211/211/211
f 211/211/211 236/236/236 213/213/213
f 213/213/213 236/236/236 237/237/237
f 203/203/203 212/212/212 196/196/196
f 240/240/240 239/239/239 238/238/238
f 241/241/241 239/239/239 240/240/240
f 241/241/241 242/242/242 239/239/239
f 243/243/243 242/242/242 241/241/241
f 246/246/246 245/245/245 244/244/244
f 247/247/247 245/245/245 246/246/246
f 250/250/250 249/249/249 248/248/248
f 249/249/249 251/251/251 248/248/248
f 251/251/251 252/252/252 248/248/248
f 248/248/248 252/252/252 253/253/253
f 252/252/252 254/254/254 253/253/253
f 253/253/253 254/254/254 255/255/255
f 255/255/255 256/256/256 253/253/253
f 257/257/257 256/256/256 255/255/255
f 253/253/253 258/258/258 248/248/248
f 256/256/256 258/258/258 253/253/253
f 258/258/258 259/259/259 248/248/248
f 259/259/259 250/250/250 248/248/248
f 260/260/260 259/259/259 258/258/258
f 261/261/261 251/251/251 249/249/249
f 264/264/264 263/263/263 262/262/262
f 265/265/265 263/263/263 264/264/264
f 263/263/263 266/266/266 262/262/262
f 267/267/267 266/266/266 263/263/263
f 265/265/265 264/264/264 268/268/268
f 268/268/268 264/264/264 269/269/269
f 270/270/270 268/268/268 269/269/269
f 271/271/271 268/268/268 270/270/270
f 274/274/274 273/273/273 272/272/272
f 275/275/275 273/273/273 274/274/274
f 278/278/278 277/277/277 276/276/276
f 279/279/279 277/277/277 278/278/278
f 280/280/280 276/276/276 277/277/277
f 281/281/281 276/276/276 280/280/280
f 282/282/282 281/281/281 280/280/280
f 283/283/283 281/281/281 282/282/282
f 284/284/284 283/283/283 282/282/282
f 285/285/285 283/283/283 284/284/284
f 286/286/286 285/285/285 284/284/284
f 287/287/287 285/285/285 286/286/286
f 288/288/288 279/279/279 278/278/278
f 289/289/289 279/279/279 288/288/288
f 277/277/277 290/290/290 280/280/280
f 279/279/279 290/290/290 277/277/277
f 280/280/280 290/290/290 291/291/291
f 284/284/284 282/282/282 292/292/292
f 292/292/292 282/282/282 293/293/293
f 293/293/293 280/280/280 291/291/291
f 282/282/282 280/280/280 293/293/293
f 289/289/289 294/294/294 279/279/279
f 294/294/294 290/290/290 279/279/279
f 295/295/295 294/294/294 289/289/289
f 289/289/289 296/296/296 295/295/295
f 297/297/297 296/296/296 289/289/289
f 298/298/298 284/284/284 292/292/292
f 286/286/286 284/284/284 298/298/298
f 299/299/299 285/285/285 287/287/287
f 300/300/300 285/285/285 299/299/299
f 300/300/300 283/283/283 285/285/285
f 301/301/301 283/283/283 300/300/300
f 301/301/301 302/302/302 283/283/283
f 283/283/283 302/302/302 281/281/281
f 302/302/302 276/276/276 281/281/281
f 303/303/303 276/276/276 302/302/302
f 303/303/303 304/304/304 276/276/276
f 276/276/276 304/304/304 278/278/278
f 304/304/304 305/305/305 278/278/278
f 306/306/306 305/305/305 304/304/304
f 309/309/309 308/308/308 307/307/307
f 312/312/312 311/311/311 310/310/310
f 315/315/315 314/314/314 313/313/313
f 316/316/316 314/314/314 315/315/315
f 315/315/315 313/313/313 317/317/317
f 317/317/317 313/313/313 318/318/318
f 317/317/317 318/318/318 319/319/319
f 319/319/319 318/318/318 320/320/320
f 319/319/319 320/320/320 321/321/321
f 321/321/321 320/320/320 322/322/322
f 321/321/321 322/322/322 323/323/323
f 323/323/323 322/322/322 324/324/324
f 323/323/323 324/324/324 325/325/325
f 325/325/325 324/324/324 326/326/326
f 326/326/326 327/327/327 325/325/325
f 328/328/328 327/327/327 326/326/326
f 327/327/327 328/328/328 329/329/329
f 329/329/329 328/328/328 330/330/330
f 329/329/329 330/330/330 331/331/331
f 331/331/331 330/330/330 332/332/332
f 331/331/331 332/332/332 333/333/333
f 333/333/333 332/332/332 334/334/334
f 334/334/334 335/335/335 333/333/333
f 336/336/336 335/335/335 334/334/334
f 336/336/336 337/337/337 335/335/335
f 338/338/338 337/337/337 336/336/336
f 337/337/337 338/338/338 339/339/339
f 339/339/339 338/338/338 340/340/340
f 339/339/339 340/340/340 341/341/341
f 341/341/341 340/340/340 342/342/342
f 341/341/341 342/342/342 343/343/343
f 343/343/343 342/342/342 344/344/344
f 343/343/343 344/344/344 345/345/345
f 345/345/345 344/344/344 346/346/346
f 346/346/346 347/347/347 345/345/345
f 348/348/348 347/347/347 346/346/346
f 347/347/347 348/348/348 349/349/349
f 349/349/349 348/348/348 350/350/350
f 349/349/349 350/350/350 351/351/351
f 351/351/351 350/350/350 352/352/352
f 351/351/351 352/352/352 353/353/353
f 353/353/353 352/352/352 354/354/354
f 353/353/353 354/354/354 355/355/355
f 355/355/355 354/354/354 356/356/356
f 355/355/355 356/356/356 357/357/357
f 357/357/357 356/356/356 358/358/358
f 357/357/357 358/358/358 359/359/359
f 360/360/360 357/357/357 359/359/359
f 361/361/361 360/360/360 359/359/359
f 360/360/360 361/361/361 316/316/316
f 316/316/316 361/361/361 314/314/314
f 364/364/364 363/363/363 362/362/362
f 365/365/365 363/363/363 364/364/364
f 364/364/364 362/362/362 366/366/366
f 366/366/366 362/362/362 367/367/367
f 366/366/366 367/367/367 368/368/368
f 368/368/368 367/367/367 369/369/369
f 368/368/368 369/369/369 370/370/370
f 370/370/370 369/369/369 371/371/371
f 370/370/370 371/371/371 372/372/372
f 372/372/372 371/371/371 373/373/373
f 372/372/372 373/373/373 374/374/374
f 374/374/374 373/373/373 375/375/375
f 374/374/374 375/375/375 376/376/376
f 376/376/376 375/375/375 377/377/377
f 365/365/365 378/378/378 363/363/363
f 379/379/379 378/378/378 365/365/365
f 379/379/379 380/380/380 378/378/378
f 381/381/381 380/380/380 379/379/379
f 381/381/381 382/382/382 380/380/380
f 383/383/383 382/382/382 381/381/381
f 383/383/383 384/384/384 382/382/382
f 385/385/385 384/384/384 383/383/383
f 385/385/385 386/386/386 384/384/384
f 387/387/387 386/386/386 385/385/385
f 387/387/387 388/388/388 386/386/386
f 389/389/389 388/388/388 387/387/387
f 389/389/389 390/390/390 388/388/388
f 391/391/391 390/390/390 389/389/389
f 391/391/391 392/392/392 390/390/390
f 393/393/393 392/392/392 391/391/391
f 393/393/393 394/394/394 392/392/392
f 395/395/395 394/394/394 393/393/393
f 395/395/395 396/396/396 394/394/394
f 397/397/397 396/396/396 395/395/395
f 397/397/397 398/398/398 396/396/396
f 399/399/399 398/398/398 397/397/397
f 399/399/399 400/400/400 398/398/398
f 401/401/401 400/400/400 399/399/399
f 401/401/401 402/402/402 400/400/400
f 403/403/403 402/402/402 401/401/401
f 403/403/403 404/404/404 402/402/402
f 405/405/405 404/404/404 403/403/403
f 408/408/408 407/407/407 406/406/406
f 406/406/406 407/407/407 409/409/409
f 407/407/407 410/410/410 409/409/409
f 410/410/410 411/411/411 409/409/409
f 409/409/409 411/411/411 412/412/412
f 412/412/412 411/411/411 413/413/413
f 411/411/411 414/414/414 413/413/413
f 413/413/413 414/414/414 415/415/415
f 415/415/415 414/414/414 416/416/416
f 416/416/416 414/414/414 417/417/417
f 414/414/414 418/418/418 417/417/417
f 418/418/418 419/419/419 417/417/417
f 417/417/417 419/419/419 420/420/420
f 419/419/419 421/421/421 420/420/420
f 420/420/420 421/421/421 422/422/422
f 421/421/421 423/423/423 422/422/422
f 422/422/422 423/423/423 424/424/424
f 424/424/424 423/423/423 425/425/425
f 423/423/423 426/426/426 425/425/425
f 425/425/425 426/426/426 427/427/427
f 428/428/428 427/427/427 426/426/426
f 431/431/431 430/430/430 429/429/429
f 432/432/432 430/430/430 431/431/431
f 431/431/431 429/429/429 433/433/433
f 433/433/433 429/429/429 434/434/434
f 432/432/432 435/435/435 430/430/430
f 436/436/436 435/435/435 432/432/432
f 439/439/439 438/438/438 437/437/437
f 440/440/440 438/438/438 439/439/439
f 440/440/440 441/441/441 438/438/438
f 442/442/442 441/441/441 440/440/440
f 442/442/442 443/443/443 441/441/441
f 444/444/444 443/443/443 442/442/442
f 444/444/444 445/445/445 443/443/443
f 446/446/446 445/445/445 444/444/444
f 439/439/439 437/437/437 447/447/447
f 447/447/447 437/437/437 448/448/448
f 447/447/447 448/448/448 449/449/449
f 449/449/449 448/448/448 450/450/450
f 449/449/449 450/450/450 451/451/451
f 451/451/451 450/450/450 452/452/452
f 451/451/451 452/452/452 453/453/453
f 453/453/453 452/452/452 454/454/454
f 453/453/453 454/454/454 455/455/455
f 455/455/455 454/454/454 456/456/456
f 455/455/455 456/456/456 457/457/457
f 457/457/457 456/456/456 458/458/458
f 445/445/445 459/459/459 443/443/443
f 448/448/448 460/460/460 450/450/450
f 448/448/448 461/461/461 460/460/460
f 437/437/437 461/461/461 448/448/448
f 437/437/437 462/462/462 461/461/461
f 438/438/438 462/462/462 437/437/437
f 438/438/438 463/463/463 462/462/462
f 441/441/441 463/463/463 438/438/438
f 441/441/441 464/464/464 463/463/463
f 443/443/443 459/459/459 464/464/464
f 443/443/443 464/464/464 441/441/441
f 454/454/454 465/465/465 456/456/456
f 454/454/454 466/466/466 465/465/465
f 452/452/452 466/466/466 454/454/454
f 452/452/452 467/467/467 466/466/466
f 450/450/450 460/460/460 467/467/467
f 450/450/450 467/467/467 452/452/452
f 445/445/445 468/468/468 459/459/459
f 469/469/469 468/468/468 445/445/445
f 446/446/446 469/469/469 445/445/445
f 470/470/470 469/469/469 446/446/446
f 456/456/456 465/465/465 471/471/471
f 456/456/456 471/471/471 458/458/458
f 458/458/458 471/471/471 472/472/472
f 475/475/475 474/474/474 473/473/473
f 476/476/476 474/474/474 475/475/475
f 474/474/474 477/477/477 473/473/473
f 473/473/473 477/477/477 478/478/478
f 479/479/479 407/407/407 408/408/408
f 482/482/482 481/481/481 480/480/480
f 483/483/483 481/481/481 482/482/482
f 482/482/482 480/480/480 484/484/484
f 484/484/484 480/480/480 485/485/485
f 484/484/484 485/485/485 486/486/486
f 486/486/486 485/485/485 487/487/487
f 486/486/486 487/487/487 488/488/488
f 488/488/488 487/487/487 489/489/489
f 483/483/483 490/490/490 481/481/481
f 491/491/491 490/490/490 483/483/483
f 488/488/488 489/489/489 492/492/492
f 492/492/492 489/489/489 493/493/493
f 492/492/492 493/493/493 494/494/494
f 494/494/494 493/493/493 495/495/495
f 494/494/494 495/495/495 496/496/496
f 496/496/496 495/495/495 497/497/497
f 496/496/496 497/497/497 498/498/498
f 498/498/498 497/497/497 499/499/499
f 491/491/491 499/499/499 490/490/490
f 498/498/498 499/499/499 491/491/491
f 502/502/502 501/501/501 500/500/500
f 503/503/503 501/501/501 502/502/502
f 504/504/504 503/503/503 502/502/502
f 505/505/505 503/503/503 504/504/504
f 506/506/506 505/505/505 504/504/504
f 506/506/506 504/504/504 507/507/507
f 507/507/507 504/504/504 508/508/508
f 504/504/504 502/502/502 508/508/508
f 507/507/507 508/508/508 509/509/509
f 509/509/509 508/508/508 510/510/510
f 511/511/511 505/505/505 506/506/506
f 508/508/508 502/502/502 512/512/512
f 508/508/508 512/512/512 510/510/510
f 502/502/502 500/500/500 512/512/512
f 510/510/510 512/512/512 513/513/513
f 512/512/512 500/500/500 514/514/514
f 512/512/512 514/514/514 513/513/513
f 513/513/513 514/514/514 515/515/515
f 503/503/503 516/516/516 501/501/501
f 517/517/517 516/516/516 503/503/503
f 518/518/518 517/517/517 503/503/503
f 521/521/521 520/520/520 519/519/519
f 522/522/522 520/520/520 521/521/521
f 525/525/525 524/524/524 523/523/523
f 524/524/524 526/526/526 523/523/523
f 523/523/523 526/526/526 527/527/527
f 524/524/524 528/528/528 526/526/526
f 529/529/529 528/528/528 524/524/524
f 530/530/530 529/529/529 524/524/524
f 531/531/531 529/529/529 530/530/530
f 531/531/531 532/532/532 529/529/529
f 533/533/533 532/532/532 531/531/531
f 532/532/532 534/534/534 529/529/529
f 529/529/529 534/534/534 528/528/528
f 532/532/532 535/535/535 534/534/534
f 536/536/536 535/535/535 532/532/532
f 537/537/537 536/536/536 532/532/532
f 536/536/536 538/538/538 535/535/535
f 539/539/539 538/538/538 536/536/536
f 540/540/540 539/539/539 536/536/536
f 541/541/541 539/539/539 540/540/540
f 523/523/523 527/527/527 542/542/542
f 543/543/543 523/523/523 542/542/542
f 544/544/544 523/523/523 543/543/543
f 542/542/542 527/527/527 545/545/545
f 548/548/548 547/547/547 546/546/546
f 546/546/546 547/547/547 549/549/549
f 547/547/547 550/550/550 549/549/549
f 549/549/549 550/550/550 551/551/551
f 551/551/551 550/550/550 552/552/552
f 553/553/553 551/551/551 552/552/552
f 554/554/554 551/551/551 553/553/553
f 554/554/554 549/549/549 551/551/551
f 555/555/555 549/549/549 554/554/554
f 555/555/555 546/546/546 549/549/549
f 556/556/556 546/546/546 555/555/555
f 559/559/559 558/558/558 557/557/557
f 558/558/558 560/560/560 557/557/557
f 560/560/560 561/561/561 557/557/557
f 562/562/562 560/560/560 558/558/558
f 565/565/565 564/564/564 563/563/563
f 564/564/564 566/566/566 563/563/563
f 563/563/563 566/566/566 567/567/567
f 570/570/570 569/569/569 568/568/568
f 67/67/67 571/571/571 69/69/69
f 571/571/571 67/67/67 572/572/572
f 572/572/572 67/67/67 74/74/74
f 572/572/572 74/74/74 573/573/573
f 573/573/573 74/74/74 81/81/81
