g BRM_Head_LavaPool_drain
v 1306.809 62.04863 -992.0242
v 1304.719 62.44243 -998.0309
v 1324.202 61.31954 -984.2747
v 1326.09 61.84302 -989.6101
v 1302.548 62.17117 -995.1501
v 1302.517 61.64521 -989.5998
v 1292.237 61.28885 -987.7173
v 1293.801 60.88046 -983.2139
v 1288.852 61.06021 -988.5991
v 1289.228 60.71387 -983.7386
v 1290.829 60.17937 -978.6887
v 1294.439 60.44821 -978.5238
v 1302.472 60.85632 -981.2748
v 1305.84 61.03909 -983.1093
v 1322.82 60.93854 -980.3721
v 1320.087 60.15283 -972.3135
v 1305.321 60.22245 -974.5048
v 1316.495 59.16597 -962.2075
v 1304.82 59.43376 -966.1947
v 1302.39 59.4379 -966.3068
v 1302.429 60.12833 -973.5926
v 1296.055 59.35283 -966.6384
v 1295.204 59.92957 -972.8964
v 1293.184 59.14809 -966.8575
v 1292.121 59.61364 -972.1984
v 1296.146 57.85124 -951.9794
v 1298.038 58.00812 -952.0477
v 1302.309 58.04946 -951.6549
v 1303.917 58.01289 -951.2238
v 1311.674 57.8415 -948.6439
v 1337.351 60.59553 -975.3069
v 1326.481 58.93693 -958.7972
v 1318.336 57.69429 -946.428
v 1332.05 58.6367 -954.9132
v 1339.866 59.52872 -963.5582
v 1347.223 59.22872 -959.6637
v 1336.555 58.28099 -950.7123
v 1352.764 58.8583 -955.4285
v 1340.677 57.99051 -947.408
v 1358.53 58.54012 -951.3524
v 1344.551 57.718 -944.0355
v 1361.322 58.38217 -949.2332
v 1346.467 57.58938 -942.3565
v 1368.564 57.62748 -940.1209
v 1354.394 57.11472 -936.2205
v 1369.411 57.434 -938.1953
v 1381.762 57.83979 -941.1985
v 1380.154 58.04688 -943.3111
v 1389.616 58.09784 -943.1084
v 1386.745 58.28537 -945.1251
v 1402.475 58.52032 -946.2352
v 1392.329 58.48745 -946.6622
v 1379.097 59.33083 -957.4621
v 1383.748 59.57901 -959.6149
v 1377.506 59.65619 -961.2853
v 1382.745 59.96428 -964.0273
v 1369.238 60.04108 -966.3603
v 1375.468 60.48843 -970.4948
v 1356.293 60.03456 -967.2748
v 1360.939 60.44734 -971.1736
v 1347.534 60.40377 -972.0389
v 1350.586 60.75206 -975.4144
v 1339.424 60.91174 -978.4545
v 1342.509 61.38248 -983.1402
v 1353.401 59.77764 -964.8483
v 1344.02 60.00267 -968.1516
v 1365.39 59.7648 -963.8068
v 1373.707 59.43277 -959.2969
v 1375.018 59.11311 -955.5735
v 1331.875 59.76006 -966.9907
v 1403.798 58.35818 -944.3075
v 1398.034 58.09262 -942.0729
v 1412.89 57.2435 -931.0548
v 1406.999 57.07207 -929.8644
v 1392.087 57.38208 -934.9908
v 1371.332 56.87844 -931.8935
v 1355.216 56.96762 -934.7435
v 1337.936 56.51916 -931.6904
v 1333.891 56.91822 -936.5347
v 1332.276 56.99609 -937.6104
v 1329.271 57.17155 -939.8388
v 1326.027 57.34571 -941.8785
v 1322.423 57.5381 -944.266
v 1338.703 56.4251 -930.7283
v 1326.41 56.10206 -928.5177
v 1326.93 56.03829 -927.8654
v 1314.884 55.68496 -925.345
v 1313.444 55.82699 -927.0692
v 1323.667 56.3726 -931.8019
v 1312.869 55.8547 -927.452
v 1322.573 56.4254 -932.5312
v 1311.8 55.91714 -928.2451
v 1320.535 56.54435 -934.0419
v 1310.645 55.97913 -928.971
v 1318.336 56.66241 -935.4247
v 1309.362 56.0476 -929.8207
v 1315.893 56.79285 -937.0433
v 1307.908 56.1032 -930.5902
v 1313.122 56.89874 -938.5091
v 1315.156 55.65149 -925.0027
v 1302.146 55.22403 -921.8389
v 1305.537 56.15558 -931.3788
v 1308.605 56.99854 -940.0114
v 1303.347 57.11473 -941.7603
v 1302.776 56.21658 -932.2969
v 1302.204 56.2296 -932.4504
v 1302.256 57.13953 -942.0527
v 1300.684 56.21488 -932.5902
v 1299.361 57.1115 -942.319
v 1300.01 56.15905 -932.5659
v 1298.078 57.00514 -942.2726
v 1420.318 45.07119 -802.0422
v 1421.591 45.26339 -803.9875
v 1425.55 44.93324 -800.0813
v 1380.275 45.87218 -817.073
v 1383.547 45.74165 -818.4079
v 1342.535 47.12215 -831.194
v 1341.111 47.40775 -834.3894
v 1304.481 48.04662 -844.6093
v 1304.411 48.2632 -846.9397
v 1337.835 48.06499 -841.7427
v 1397.397 45.18908 -824.0584
v 1359.853 48.59401 -845.3969
v 1369.8 48.68159 -853.4509
v 1327.654 50.10726 -864.5919
v 1304.297 48.61282 -850.7017
v 1304.041 49.40004 -859.1723
v 1321.644 51.31275 -878.0791
v 1303.571 50.84384 -874.7076
v 1283.247 49.95295 -867.0151
v 1287.025 51.00674 -877.9755
v 1336.252 52.37988 -888.1879
v 1348.934 51.32227 -875.6744
v 1352.131 51.87973 -880.0599
v 1338.781 52.77288 -891.2178
v 1270.316 50.45113 -873.5485
v 1265.684 49.75653 -866.5208
v 1280.75 49.25673 -859.7738
v 1275.781 51.27055 -881.8391
v 1375.126 50.00145 -860.849
v 1410.628 47.34053 -831.183
v 1263.594 49.44307 -863.3492
v 1279.738 48.97439 -856.8373
v 1262.182 49.23143 -861.2079
v 1279.009 48.77096 -854.7214
v 1247.068 49.68123 -867.4227
v 1250.586 50.01118 -870.64
v 1231.27 50.15903 -874.0007
v 1237.313 50.59091 -878.0798
v 1244.303 51.09039 -882.7973
v 1255.101 50.41671 -874.5766
v 1252.138 51.65034 -888.0859
v 1261.319 51.04467 -880.7437
v 1261.721 52.33518 -894.5542
v 1268.822 51.79747 -888.1322
v 1274.74 53.26553 -903.3412
v 1279.554 52.90099 -898.9874
v 1287.759 54.19588 -912.1282
v 1290.286 54.00452 -909.8428
v 1284.271 52.54376 -894.721
v 1291.895 52.36492 -892.1017
v 1296.764 53.72309 -906.2279
v 1302.653 53.66511 -905.0648
v 1303.112 52.25447 -889.8862
v 1309.085 53.832 -906.2648
v 1315.365 52.57237 -892.1719
v 1314.284 54.21179 -909.8625
v 1325.268 53.29583 -899.0251
v 1326.983 53.56227 -901.0793
v 1315.184 54.35166 -910.9408
v 1292.762 53.81698 -907.603
v 1328.769 53.83969 -903.2181
v 1341.415 53.18207 -894.3725
v 1343.06 53.43951 -897.0705
v 1355.422 52.45373 -884.5755
v 1357.212 52.82226 -888.5034
v 1344.504 53.66555 -899.4395
v 1357.794 53.17657 -892.4116
v 1346.659 53.76973 -902.9608
v 1360.492 53.63523 -898.6769
v 1379.887 51.18159 -867.4639
v 1382.12 51.73583 -873.4244
v 1383.198 52.24192 -878.9781
v 1382.026 53.19389 -890.5495
v 1360.907 53.94631 -900.279
v 1381.419 53.45391 -892.5554
v 1362.177 54.37 -905.0607
v 1377.049 54.15842 -900.9039
v 1362.21 54.67373 -908.3322
v 1376.086 54.54661 -905.2121
v 1362.455 54.87331 -910.5513
v 1375.923 54.79499 -908.0307
v 1362.361 55.0811 -912.9689
v 1375.585 55.04972 -911.021
v 1361.846 55.27495 -915.2234
v 1375.092 55.28624 -913.7556
v 1360.821 55.493 -917.8132
v 1373.983 55.55334 -916.9102
v 1359.029 55.8702 -922.3427
v 1372.297 56.02092 -922.4601
v 1358.522 55.99237 -923.6891
v 1371.875 56.17437 -924.1274
v 1356.704 56.52864 -929.7676
v 1344.903 55.80676 -923.2421
v 1341.347 56.16142 -927.5358
v 1345.651 55.71823 -922.2242
v 1346.679 55.42817 -918.7836
v 1347.914 55.26306 -916.7672
v 1347.473 55.11644 -915.162
v 1347.963 54.95758 -913.2638
v 1347.631 54.8073 -911.6107
v 1347.757 54.57513 -909.0907
v 1347.745 54.24359 -905.1356
v 1333.056 54.54958 -910.4778
v 1332.462 54.30119 -909.2694
v 1318.367 54.85558 -915.8201
v 1318.379 54.99308 -917.3018
v 1333.068 54.7841 -913.1962
v 1318.334 55.07571 -918.1987
v 1332.983 54.94151 -914.9047
v 1318.452 55.1292 -918.787
v 1333.207 55.04339 -916.0254
v 1318.278 55.18573 -919.4626
v 1332.875 55.15109 -917.3123
v 1318.435 55.23792 -920.0339
v 1333.174 55.25049 -918.4006
v 1317.995 55.29668 -920.7515
v 1332.337 55.36243 -919.7676
v 1317.629 55.39991 -921.9761
v 1331.64 55.55907 -922.1002
v 1317.363 55.43142 -922.3383
v 1331.133 55.61909 -922.7902
v 1328.722 55.85953 -925.7012
v 1316.097 55.55765 -923.8665
v 1398.386 56.82143 -928.1234
v 1399.271 56.54773 -925.0264
v 1399.88 56.33426 -922.7044
v 1412.413 56.47662 -922.8154
v 1410.287 56.69787 -925.3879
v 1421.066 56.57491 -922.8918
v 1416.635 56.78439 -925.5962
v 1417.499 55.75283 -913.9246
v 1412.051 55.72785 -914.2985
v 1396.293 56.01319 -919.4672
v 1390.47 55.62892 -915.7791
v 1416.879 55.33284 -909.249
v 1411.358 55.31716 -909.7368
v 1410.009 54.968 -905.95
v 1416.318 54.95303 -905.0207
v 1413.306 54.57758 -901.0339
v 1408.412 54.60605 -901.95
v 1413.137 54.20716 -896.8804
v 1407.219 54.26138 -898.2112
v 1418.141 53.69357 -890.7101
v 1411.192 53.67269 -891.3611
v 1390.014 55.29897 -912.1021
v 1390.574 55.01413 -908.8129
v 1392.715 54.69733 -904.8879
v 1394.595 54.37704 -901.05
v 1396.648 53.8796 -895.4261
v 1426.796 52.39278 -875.5894
v 1431.957 52.27555 -873.6744
v 1432.859 52.0502 -871.0685
v 1427.6 52.17789 -873.1113
v 1433.833 50.7288 -856.1281
v 1428.306 50.84272 -858.0472
v 1400.508 53.41323 -889.9095
v 1405.019 52.88742 -883.6694
v 1405.948 52.70363 -881.5212
v 1412.214 51.17438 -863.6347
v 1418.515 50.14842 -851.3919
v 1428.808 49.89214 -847.3224
v 1416.397 49.28317 -841.9281
v 1429.489 48.60241 -832.7711
v 1425.615 46.96444 -818.6512
v 1427.59 46.83352 -817.0115
v 1434.555 49.74904 -845.0502
v 1435.635 48.28284 -828.4726
v 1189.795 56.83079 -944.272
v 1184.052 57.07795 -947.1636
v 1198.819 57.98871 -956.4523
v 1194.249 58.11101 -957.9835
v 1200.168 58.92229 -966.8594
v 1195.394 59.09544 -968.9672
v 1180.189 56.62638 -938.9847
v 1217.259 56.26665 -934.4263
v 1211.631 55.28275 -931.8561
v 1178.193 55.29966 -935.4977
v 1205.083 54.98448 -929.0612
v 1177.595 54.91665 -931.1066
v 1198.769 54.3731 -922.6656
v 1179.256 54.21247 -922.8216
v 1196.376 53.90608 -917.4125
v 1179.649 53.69764 -916.7125
v 1223.593 56.4572 -938.6842
v 1232.347 57.09161 -945.2208
v 1235.205 57.65165 -951.3914
v 1198.781 52.87077 -906.0825
v 1184.351 52.57611 -904.2463
v 1195.474 51.32997 -889.8532
v 1208.523 51.80634 -893.7661
v 1237.681 56.9489 -943.4341
v 1242.018 57.40461 -948.384
v 1245.749 56.73303 -940.7314
v 1241.921 56.16947 -934.7538
v 1234.158 56.29134 -936.4186
v 1240.165 55.9853 -931.0297
v 1232.162 56.0836 -932.2164
v 1239.356 55.26476 -928.7878
v 1231.109 55.27011 -929.7004
v 1238.167 55.06614 -926.5995
v 1229.971 55.0459 -927.2094
v 1237.481 54.69174 -922.356
v 1228.648 54.61903 -922.4266
v 1237.498 54.41847 -919.1334
v 1227.703 54.29642 -918.7235
v 1249.375 57.13778 -945.1357
v 1237.821 53.75958 -912.0336
v 1227.825 53.53199 -910.5098
v 1240.688 52.98051 -903.4108
v 1232.218 52.67132 -900.871
v 1238.573 51.83998 -891.3669
v 1246.709 52.28104 -895.3522
v 1258.16 53.61831 -908.6496
v 1260.032 52.94358 -901.2376
v 1258.221 54.22402 -915.1433
v 1258.267 54.67727 -920.0026
v 1258.047 54.86103 -922.1915
v 1258.285 55.11578 -925.1025
v 1259.031 55.252 -926.6104
v 1260.025 55.74137 -928.0848
v 1261.835 55.85686 -930.4835
v 1264.317 56.2362 -934.5112
v 1267.193 56.49161 -937.2697
v 1271.872 56.7873 -941.5516
v 1256.613 57.52809 -950.8444
v 1267.295 58.10412 -959.2693
v 1262.168 58.52787 -964.7765
v 1249.394 57.94252 -956.6425
v 1278.308 57.19398 -947.4409
v 1256.237 59.01797 -971.146
v 1244.604 58.31606 -961.8995
v 1240.564 58.03048 -957.3827
v 1247.672 57.81694 -954.7147
v 1232.756 60.79871 -996.0988
v 1213.595 60.30059 -989.0676
v 1210.842 60.56189 -992.4786
v 1228.182 61.33654 -1001.279
v 1251.707 60.85779 -997.2944
v 1248.543 61.60264 -1003.974
v 1261.784 60.93793 -997.3375
v 1263.564 59.36699 -974.4501
v 1273.014 59.55162 -977.2812
v 1260.405 61.75767 -1005.544
v 1265.609 61.00451 -996.0803
v 1265.993 61.11451 -1000.373
v 1269.366 58.70947 -966.813
v 1277.33 58.91042 -969.0665
v 1272.917 58.29865 -961.5228
v 1279.836 58.53812 -964.2969
v 1282.413 57.33702 -949.0991
v 1286.875 57.49256 -950.9019
v 1288.768 56.65653 -940.3199
v 1291.793 56.76198 -941.5422
v 1295.123 55.97604 -931.5407
v 1296.711 56.03139 -932.1824
v 1285.985 56.55955 -939.1957
v 1293.662 55.92513 -930.9506
v 1291.154 55.76665 -928.6558
v 1281.513 56.27697 -935.1036
v 1278.449 56.08338 -932.3002
v 1289.706 55.67515 -927.3307
v 1288.682 55.58426 -926.349
v 1276.5 55.91023 -930.4301
v 1287.799 55.44925 -924.9155
v 1274.817 55.65305 -927.6995
v 1287.155 55.40815 -924.0618
v 1273.59 55.57476 -926.0733
v 1286.801 55.23397 -923.537
v 1272.916 55.24298 -925.0737
v 1286.536 55.1855 -923.0005
v 1272.41 55.15064 -924.0515
v 1286.451 55.09483 -921.9644
v 1272.249 54.97793 -922.078
v 1286.529 55.02944 -921.1854
v 1272.398 54.85335 -920.5939
v 1302.146 55.22403 -921.8389
v 1286.513 54.86812 -919.4559
v 1272.367 54.54607 -917.2997
v 1272.325 54.13544 -912.8973
v 1286.491 54.65255 -917.1449
v 1273.595 53.678 -907.8723
v 1287.158 54.41241 -914.5068
v 1223.662 51.16721 -885.5175
v 1214.297 50.71423 -881.5172
v 1190.421 50.99995 -886.7881
v 1181.885 51.23597 -890.1097
v 1182.989 51.5603 -893.4715
v 1175.144 52.3881 -903.0745
v 1164.168 52.16396 -901.6777
v 1158.583 53.19367 -915.0435
v 1146.009 52.74787 -913.5744
v 1145.842 53.83936 -922.9619
v 1157.29 53.9837 -922.9352
v 1148.343 54.76176 -932.9804
v 1158.361 54.82726 -932.3843
v 1158.988 55.17396 -936.0042
v 1150.356 55.09471 -935.9872
v 1150.46 55.32244 -938.6259
v 1159.621 55.94256 -939.6362
v 1151.411 52.20805 -904.5869
v 1150.301 51.98944 -901.048
v 1163.725 51.7061 -896.8146
v 1169.085 53.56602 -916.2704
v 1168.245 54.12183 -922.9097
v 1168.662 54.89461 -931.7713
v 1169.43 55.26982 -936.0249
v 1172.526 56.8161 -941.0596
v 1165.356 56.33079 -940.2688
v 1136.739 52.48101 -908.528
v 1134.541 52.90681 -914.0787
v 1125.85 53.02729 -914.4611
v 1135.026 52.27972 -905.4998
v 1117.629 52.92484 -914.1171
v 1125.38 54.0116 -926.0098
v 1116.58 53.94996 -926.2175
v 1129.347 54.58593 -934.7156
v 1134.676 53.93335 -924.6251
v 1138.267 54.6685 -933.9008
v 1132.727 55.07233 -938.8499
v 1140.545 55.08225 -937.5803
v 1131.235 55.45874 -942.9688
v 1142.329 55.38009 -940.4628
v 1121.943 54.49266 -935.2733
v 1200.623 58.45832 -974.6218
v 1195.567 57.87754 -973.5368
v 1197.397 58.71558 -976.9954
v 1193.455 58.81617 -976.1678
v 1192.037 58.85234 -975.8701
v 1192.136 59.50783 -979.3071
v 1188.323 59.87797 -978.3249
v 1196.46 59.08814 -980.4208
v 1202.104 59.18969 -979.7252
v 1203.591 59.92461 -984.8533
v 1202.425 60.18585 -988.2068
v 1199.012 59.7525 -982.9241
v 1194.943 59.78806 -983.6065
v 1193.753 59.79846 -983.806
v 1228.532 49.96338 -872.1528
v 1245.482 49.51077 -865.7393
v 1261.239 49.09001 -859.777
v 1278.5 48.62909 -853.2458
v 1304.518 47.93435 -843.4013
v 1343.703 46.88799 -828.5743
v 1377.303 45.99076 -815.8604
v 1419.029 44.87656 -800.072
v 1429.621 44.5937 -796.064
v 1430.462 45.1095 -800.5952
v 1432.718 46.49361 -812.7545
v 1268.867 60.57843 -993.2019
v 1277.272 59.887 -987.4677
v 1275.96 59.45377 -978.1781
v 1280.058 59.1602 -978.616
v 1268.796 60.79184 -997.7793
v 1274.744 60.10713 -992.2748
v 1274.646 59.49742 -977.7781
v 1289.228 60.71387 -983.7386
v 1288.852 61.06021 -988.5991
v 1290.829 60.17937 -978.6887
v 1283.066 58.62406 -970.8825
v 1292.121 59.61364 -972.1984
v 1285.056 58.26947 -965.7678
v 1282.121 58.45868 -964.9237
v 1279.671 58.85443 -970.195
v 1278.622 58.87951 -969.6896
v 1281.103 58.49408 -964.6443
v 1293.184 59.14809 -966.8575
v 1288.521 57.4248 -951.1528
v 1287.79 57.4549 -951.0414
v 1290.615 57.27877 -951.4775
v 1296.146 57.85124 -951.9794
v 1294.329 56.61704 -941.9324
v 1298.078 57.00514 -942.2726
v 1298.042 55.95531 -932.3873
v 1297.297 56.00728 -932.2717
v 1292.909 56.71604 -941.7123
v 1292.413 56.73645 -941.6368
v 1297.036 56.01798 -932.2319
v 1300.01 56.15905 -932.5659
v 1318.265 54.83264 -915.5782
v 1330.863 54.16746 -906.6533
v 1317.221 54.66936 -913.8669
v 1329.884 54.01421 -905.0471
v 1316.707 54.58891 -913.0238
v 1316.122 54.4973 -912.0636
v 1302.146 55.22403 -921.8389
v 1337.835 48.06499 -841.7427
v 1369.8 48.68159 -853.4509
v 1359.853 48.59401 -845.3969
v 1341.111 47.40775 -834.3894
v 1397.397 45.18908 -824.0584
v 1383.547 45.74165 -818.4079
v 1210.462 50.45486 -879.0921
vt 0.916929 0.786288
vt 0.905683 0.815818
vt 0.900276 0.786836
vt 0.896226 0.815818
vt 0.921078 0.815818
vt 0.926037 0.78571
vt 0.965531 0.815818
vt 0.962891 0.79447
vt 1 0.815816
vt 1 0.790098
vt 1 0.650594
vt 0.979179 0.64835
vt 0.940606 0.644608
vt 0.930693 0.647271
vt 0.9025 0.653241
vt 0.903325 0.515956
vt 0.939827 0.505589
vt 0.901675 0.395394
vt 0.9454 0.390453
vt 0.955552 0.388428
vt 0.949619 0.501864
vt 0.9856 0.380752
vt 0.983791 0.505991
vt 1 0.380428
vt 1 0.51286
vt 1 0.252383
vt 0.985352 0.254682
vt 0.954102 0.254664
vt 0.943359 0.256922
vt 0.890588 0.264648
vt 0.885627 0.655466
vt 0.869826 0.399224
vt 0.849595 0.265305
vt 0.849266 0.398577
vt 0.865226 0.523167
vt 0.851887 0.525169
vt 0.830346 0.395892
vt 0.838734 0.520696
vt 0.815571 0.394601
vt 0.827191 0.518179
vt 0.801459 0.392626
vt 0.823261 0.519131
vt 0.794615 0.39147
vt 0.802348 0.515615
vt 0.77554 0.392456
vt 0.796747 0.513995
vt 0.826001 0.657129
vt 0.828562 0.656756
vt 0.835811 0.788311
vt 0.840202 0.788557
vt 0.841236 0.815818
vt 0.848904 0.815818
vt 0.852298 0.788216
vt 0.858827 0.815818
vt 0.856091 0.788156
vt 0.862839 0.815818
vt 0.862728 0.787935
vt 0.868379 0.815818
vt 0.870141 0.787419
vt 0.877682 0.815818
vt 0.879133 0.787275
vt 0.884682 0.815818
vt 0.888187 0.787075
vt 0.891887 0.815818
vt 0.864278 0.656718
vt 0.87391 0.654603
vt 0.858527 0.659049
vt 0.8509 0.659357
vt 0.844983 0.657919
vt 0.879027 0.518227
vt 0.833297 0.815818
vt 0.833592 0.789668
vt 0.828762 0.815818
vt 0.826365 0.790362
vt 0.824219 0.6584
vt 0.779297 0.51165
vt 0.771109 0.391745
vt 0.743187 0.264983
vt 0.767253 0.267389
vt 0.773925 0.267024
vt 0.788696 0.266929
vt 0.805067 0.266565
vt 0.825651 0.265879
vt 0.739057 0.265253
vt 0.708813 0.189539
vt 0.70504 0.189758
vt 0.642789 0.113686
vt 0.662046 0.109529
vt 0.731284 0.188657
vt 0.666576 0.106445
vt 0.737735 0.188259
vt 0.679171 0.102664
vt 0.75269 0.187504
vt 0.694283 0.09914
vt 0.769685 0.186762
vt 0.717665 0.098083
vt 0.792498 0.186146
vt 0.747005 0.097874
vt 0.819846 0.185493
vt 0.640124 0.115564
vt 0.462891 0.007264
vt 0.801758 0.11098
vt 0.867295 0.184435
vt 0.927734 0.177924
vt 0.885742 0.120528
vt 0.915039 0.12265
vt 0.947266 0.176483
vt 0.97168 0.130076
vt 0.982422 0.175762
vt 1 0.132198
vt 1 0.1736
vt 0.655271 0.781612
vt 0.660893 0.745521
vt 0.670234 0.781637
vt 0.613187 0.790234
vt 0.608358 0.659409
vt 0.563769 0.790007
vt 0.562323 0.664159
vt 0.531517 0.789344
vt 0.530565 0.66217
vt 0.56767 0.540143
vt 0.646484 0.659407
vt 0.60525 0.531959
vt 0.635279 0.526313
vt 0.562548 0.406362
vt 0.529307 0.539331
vt 0.523763 0.419565
vt 0.555832 0.280636
vt 0.509679 0.28641
vt 0.464176 0.420282
vt 0.459937 0.289637
vt 0.603977 0.274108
vt 0.620255 0.395042
vt 0.631647 0.394266
vt 0.614997 0.273315
vt 0.420168 0.415397
vt 0.418066 0.535135
vt 0.466013 0.538036
vt 0.420482 0.28974
vt 0.651445 0.523641
vt 0.679067 0.676945
vt 0.41689 0.660976
vt 0.46693 0.661908
vt 0.416152 0.789666
vt 0.467767 0.789634
vt 0.394639 0.788902
vt 0.392023 0.658685
vt 0.372586 0.788734
vt 0.366458 0.657279
vt 0.360041 0.523889
vt 0.39011 0.529019
vt 0.357419 0.406825
vt 0.388817 0.411373
vt 0.357553 0.284431
vt 0.389189 0.287214
vt 0.362237 0.210111
vt 0.390677 0.212052
vt 0.366789 0.167157
vt 0.39614 0.170878
vt 0.418491 0.213338
vt 0.451958 0.212484
vt 0.450009 0.150762
vt 0.482056 0.148113
vt 0.495988 0.210349
vt 0.51583 0.145244
vt 0.540066 0.206091
vt 0.548874 0.14184
vt 0.582908 0.201205
vt 0.592833 0.200245
vt 0.556755 0.141691
vt 0.426046 0.160953
vt 0.603167 0.199245
vt 0.626472 0.27249
vt 0.635572 0.272069
vt 0.643378 0.393468
vt 0.652415 0.39268
vt 0.644178 0.272273
vt 0.659774 0.391054
vt 0.657176 0.271865
vt 0.676573 0.39206
vt 0.665901 0.521252
vt 0.677025 0.520854
vt 0.689561 0.522721
vt 0.705735 0.519133
vt 0.68095 0.39207
vt 0.70809 0.517975
vt 0.69581 0.394461
vt 0.718547 0.513382
vt 0.703364 0.393503
vt 0.724822 0.510874
vt 0.70826 0.392333
vt 0.729781 0.509906
vt 0.713617 0.391744
vt 0.739838 0.508431
vt 0.717135 0.389482
vt 0.742682 0.505938
vt 0.722324 0.388562
vt 0.747352 0.504166
vt 0.730812 0.385895
vt 0.755164 0.503985
vt 0.734284 0.385633
vt 0.768836 0.507809
vt 0.754533 0.388994
vt 0.713699 0.267745
vt 0.728244 0.266315
vt 0.711084 0.268269
vt 0.700565 0.268438
vt 0.695573 0.269299
vt 0.690094 0.268825
vt 0.685363 0.269656
vt 0.680406 0.269796
vt 0.673608 0.270442
vt 0.663463 0.271868
vt 0.635104 0.196897
vt 0.63029 0.197111
vt 0.592168 0.146058
vt 0.598838 0.142184
vt 0.644486 0.195725
vt 0.603063 0.140252
vt 0.650796 0.195047
vt 0.607451 0.140775
vt 0.655168 0.194764
vt 0.610312 0.138438
vt 0.659727 0.194227
vt 0.615037 0.1404
vt 0.664362 0.194171
vt 0.617138 0.135584
vt 0.669038 0.193514
vt 0.624246 0.133058
vt 0.678458 0.192863
vt 0.625552 0.13085
vt 0.681 0.192536
vt 0.694789 0.190943
vt 0.63391 0.122082
vt 0.820313 0.658922
vt 0.816406 0.659985
vt 0.8125 0.661053
vt 0.82117 0.790723
vt 0.823715 0.790616
vt 0.82149 0.815818
vt 0.826894 0.815818
vt 0.817421 0.815818
vt 0.815681 0.790799
vt 0.800781 0.65834
vt 0.780474 0.651345
vt 0.811706 0.815818
vt 0.808878 0.790392
vt 0.801668 0.789892
vt 0.804241 0.815818
vt 0.800435 0.815818
vt 0.792845 0.789191
vt 0.79229 0.815818
vt 0.783698 0.788588
vt 0.784027 0.815818
vt 0.777216 0.788924
vt 0.766595 0.650698
vt 0.763622 0.651223
vt 0.763303 0.653289
vt 0.760176 0.654675
vt 0.756486 0.656113
vt 0.766492 0.789615
vt 0.773768 0.815818
vt 0.767688 0.815818
vt 0.763709 0.789573
vt 0.758494 0.815818
vt 0.746786 0.779589
vt 0.748362 0.656428
vt 0.739954 0.656767
vt 0.737326 0.656734
vt 0.727932 0.669444
vt 0.722363 0.673136
vt 0.725398 0.772766
vt 0.703421 0.67682
vt 0.706145 0.767766
vt 0.683947 0.756853
vt 0.688832 0.774453
vt 0.734146 0.815818
vt 0.711769 0.815818
vt 0.202577 0.77787
vt 0.201317 0.815847
vt 0.189457 0.797551
vt 0.187793 0.815823
vt 0.171875 0.800074
vt 0.179981 0.815823
vt 0.215836 0.77482
vt 0.232262 0.644239
vt 0.238304 0.646189
vt 0.223918 0.774408
vt 0.244 0.648996
vt 0.240083 0.768501
vt 0.257076 0.652202
vt 0.254113 0.768292
vt 0.268063 0.653788
vt 0.27376 0.768321
vt 0.218899 0.644276
vt 0.194111 0.64168
vt 0.1753 0.639143
vt 0.293242 0.655343
vt 0.310439 0.768683
vt 0.341599 0.770065
vt 0.323806 0.656826
vt 0.19822 0.513313
vt 0.178105 0.509023
vt 0.19955 0.397783
vt 0.220704 0.399812
vt 0.221126 0.514475
vt 0.232744 0.399811
vt 0.234434 0.514311
vt 0.240031 0.399573
vt 0.242057 0.51348
vt 0.246685 0.400217
vt 0.248752 0.511827
vt 0.25848 0.400842
vt 0.260054 0.51118
vt 0.266893 0.401177
vt 0.268274 0.511778
vt 0.181893 0.396737
vt 0.284791 0.402635
vt 0.286587 0.508445
vt 0.307636 0.403782
vt 0.310779 0.511929
vt 0.336305 0.517979
vt 0.333382 0.405145
vt 0.309809 0.276299
vt 0.335052 0.280303
vt 0.288169 0.27323
vt 0.270823 0.272035
vt 0.262601 0.271744
vt 0.251456 0.27132
vt 0.245327 0.271072
vt 0.238817 0.27035
vt 0.228009 0.269364
vt 0.208374 0.268716
vt 0.191989 0.267622
vt 0.162996 0.266853
vt 0.153609 0.393056
vt 0.10698 0.389751
vt 0.103713 0.50308
vt 0.148193 0.505769
vt 0.115295 0.26574
vt 0.102658 0.637606
vt 0.137903 0.636482
vt 0.159285 0.63463
vt 0.154282 0.506529
vt 0.089844 0.796872
vt 0.105469 0.798206
vt 0.091797 0.815826
vt 0.081055 0.815826
vt 0.076172 0.796872
vt 0.070313 0.815827
vt 0.064453 0.796605
vt 0.080295 0.639205
vt 0.056581 0.637513
vt 0.05957 0.815827
vt 0.054276 0.796134
vt 0.047215 0.815827
vt 0.082552 0.501377
vt 0.056281 0.499011
vt 0.0851 0.388912
vt 0.056571 0.386779
vt 0.090671 0.265143
vt 0.060736 0.264926
vt 0.100453 0.187783
vt 0.068242 0.186498
vt 0.136656 0.11941
vt 0.095632 0.120719
vt 0.126794 0.189103
vt 0.164356 0.121776
vt 0.223521 0.121534
vt 0.178089 0.190957
vt 0.206061 0.193113
vt 0.246802 0.127144
vt 0.259128 0.132781
vt 0.221989 0.194667
vt 0.275549 0.136633
vt 0.240899 0.196235
vt 0.282415 0.141538
vt 0.25115 0.197435
vt 0.286456 0.144416
vt 0.257181 0.198031
vt 0.290503 0.146555
vt 0.263004 0.198678
vt 0.300485 0.14633
vt 0.273398 0.199294
vt 0.308412 0.145085
vt 0.281448 0.199742
vt 0.462891 0.007264
vt 0.322651 0.146581
vt 0.29815 0.201314
vt 0.318783 0.204061
vt 0.337785 0.152837
vt 0.342437 0.207175
vt 0.355145 0.157739
vt 0.345619 0.657346
vt 0.357566 0.777534
vt 0.349609 0.815019
vt 0.339844 0.809575
vt 0.329169 0.797076
vt 0.313402 0.780703
vt 0.31231 0.796856
vt 0.281407 0.796291
vt 0.276562 0.799959
vt 0.261486 0.800122
vt 0.263638 0.797677
vt 0.243908 0.799612
vt 0.248328 0.797378
vt 0.229967 0.79781
vt 0.234959 0.799783
vt 0.23288 0.810346
vt 0.22702 0.810346
vt 0.301953 0.799984
vt 0.315776 0.810347
vt 0.329596 0.810346
vt 0.276399 0.780045
vt 0.257089 0.781218
vt 0.239547 0.780802
vt 0.223293 0.783686
vt 0.206385 0.814637
vt 0.216797 0.810348
vt 0.289723 0.801668
vt 0.281502 0.80104
vt 0.27369 0.803625
vt 0.301239 0.810347
vt 0.27472 0.810347
vt 0.259952 0.803617
vt 0.259197 0.810347
vt 0.251148 0.803601
vt 0.25965 0.801636
vt 0.247805 0.801543
vt 0.246847 0.803549
vt 0.241533 0.801589
vt 0.240692 0.810347
vt 0.234833 0.810347
vt 0.24826 0.810347
vt 0.154297 0.792074
vt 0.170215 0.815823
vt 0.149415 0.795738
vt 0.155691 0.810046
vt 0.156346 0.815827
vt 0.140916 0.801845
vt 0.143682 0.815828
vt 0.138794 0.79283
vt 0.139093 0.781081
vt 0.121094 0.791807
vt 0.104492 0.815826
vt 0.126436 0.796496
vt 0.118002 0.812788
vt 0.115263 0.815826
vt 0.375 0.815173
vt 0.396484 0.815173
vt 0.415389 0.815655
vt 0.468505 0.815818
vt 0.531877 0.815818
vt 0.564986 0.815819
vt 0.606445 0.815818
vt 0.65449 0.815818
vt 0.675156 0.815818
vt 0.680275 0.815818
vt 0.694012 0.815818
vt 0.047287 0.795475
vt 0.03125 0.79367
vt 0.046866 0.640135
vt 0.033411 0.640809
vt 0.041016 0.815827
vt 0.020508 0.815827
vt 0.051199 0.638966
vt 0 0.790098
vt 0 0.815824
vt 0 0.650594
vt 0.034416 0.497688
vt 0 0.51286
vt 0.034474 0.384332
vt 0.047006 0.385715
vt 0.047 0.499175
vt 0.051156 0.499102
vt 0.051269 0.386189
vt 0 0.380429
vt 0.05054 0.264756
vt 0.055068 0.264831
vt 0.037168 0.264716
vt 0 0.252381
vt 0.041987 0.184936
vt 0 0.1736
vt 0.062906 0.120207
vt 0.082415 0.120118
vt 0.056903 0.185805
vt 0.061939 0.186113
vt 0.088285 0.120385
vt 0 0.132198
vt 0.590305 0.145841
vt 0.618362 0.197906
vt 0.577518 0.141888
vt 0.611137 0.198466
vt 0.571457 0.141288
vt 0.564962 0.141536
vt 0.462891 0.007264
vt 0.56767 0.540143
vt 0.635279 0.526313
vt 0.60525 0.531959
vt 0.562323 0.664159
vt 0.646484 0.659407
vt 0.608358 0.659409
vt 0.359375 0.815019
vn -0.01389127 0.9956599 0.09202398
vn -0.006714858 0.9970593 0.0763391
vn -0.002852924 0.9961231 0.08792351
vn -0.009265309 0.9955056 0.09424797
vn -0.0278384 0.9957708 0.08755378
vn -0.02525234 0.9952057 0.09448717
vn -0.04441521 0.9934959 0.1048476
vn -0.05128008 0.993463 0.101988
vn -0.07707592 0.9927706 0.0920097
vn -0.07958114 0.9914935 0.102993
vn -0.08091831 0.9904752 0.1114048
vn -0.04842963 0.9939883 0.09819309
vn -0.01501949 0.9951307 0.09741364
vn -0.004668002 0.9949577 0.1001868
vn -0.00839553 0.9952225 0.09727183
vn -0.009243759 0.9955361 0.09392846
vn -0.005947054 0.9955425 0.09412684
vn -0.009243641 0.9955361 0.0939279
vn -0.005946994 0.9955425 0.09412683
vn -0.01047592 0.9954908 0.09427777
vn -0.01047559 0.9954908 0.0942778
vn -0.04843018 0.9939883 0.09819242
vn -0.04842907 0.9939883 0.09819321
vn -0.08574805 0.9909321 0.1034451
vn -0.0857485 0.990932 0.1034458
vn -0.08574998 0.990932 0.1034445
vn -0.04843041 0.9939883 0.09819219
vn -0.01047519 0.9954908 0.09427777
vn -0.005287644 0.9955425 0.09416642
vn -0.009243516 0.9955361 0.09392762
vn -0.01013183 0.995582 0.09334722
vn -0.01013272 0.9955822 0.09334664
vn -0.01013273 0.9955822 0.09334665
vn -0.01017179 0.9955647 0.09352802
vn -0.01017165 0.9955648 0.09352752
vn -0.008325719 0.9953979 0.09546567
vn -0.008325959 0.995398 0.09546549
vn -0.008800781 0.9954911 0.09444618
vn -0.008800802 0.9954911 0.09444642
vn -0.01096994 0.9957969 0.09092923
vn -0.0109696 0.9957969 0.09093015
vn -0.01130421 0.9958426 0.09038681
vn -0.0113041 0.9958426 0.0903868
vn -0.009254319 0.9952202 0.09721646
vn -0.009254289 0.9952202 0.09721661
vn -0.009075828 0.995229 0.09714288
vn -0.009075286 0.9952286 0.09714726
vn -0.009254506 0.9952202 0.09721646
vn -0.009075777 0.9952284 0.09714966
vn -0.009254508 0.9952202 0.09721635
vn -0.008573912 0.9950322 0.09918397
vn -0.00981664 0.9954097 0.09520066
vn -0.0113043 0.9958426 0.09038667
vn -0.01142588 0.9958647 0.09012718
vn -0.01097016 0.9957969 0.09092932
vn -0.01073735 0.9957592 0.09136957
vn -0.008800726 0.9954911 0.09444682
vn -0.008310443 0.9954255 0.09517851
vn -0.008325887 0.9953979 0.0954666
vn -0.008657882 0.9954327 0.09507292
vn -0.01017175 0.9955648 0.09352738
vn -0.01045501 0.9955856 0.09327351
vn -0.0100102 0.9955691 0.09349973
vn -0.01007083 0.9955789 0.0933869
vn -0.008325728 0.9953979 0.09546628
vn -0.01017186 0.9955647 0.09352772
vn -0.008800867 0.9954911 0.09444591
vn -0.01097003 0.9957969 0.09092923
vn -0.01130415 0.9958426 0.09038622
vn -0.01013241 0.9955822 0.09334671
vn -0.01058556 0.995792 0.091028
vn -0.01058513 0.9957925 0.09102288
vn -0.01058718 0.995793 0.0910174
vn -0.01058324 0.9957931 0.0910169
vn -0.01058462 0.9957931 0.09101594
vn -0.01058391 0.9957931 0.09101684
vn -0.009076602 0.995229 0.09714315
vn -0.0092541 0.9952201 0.09721763
vn -0.01130418 0.9958426 0.0903863
vn -0.01096951 0.9957969 0.09092987
vn -0.008800837 0.9954911 0.09444632
vn -0.008326087 0.995398 0.09546549
vn -0.01017195 0.9955647 0.09352776
vn -0.009076236 0.995229 0.09714352
vn -0.009254078 0.9952201 0.09721763
vn -0.009076559 0.9952291 0.09714271
vn -0.008917087 0.9951044 0.09842653
vn -0.01123238 0.9958295 0.09053994
vn -0.01130459 0.9958428 0.09038541
vn -0.01111063 0.9958197 0.0906625
vn -0.01096952 0.9957969 0.09093017
vn -0.009094461 0.9955299 0.0940081
vn -0.008800655 0.9954911 0.09444667
vn -0.008126839 0.9953769 0.09570055
vn -0.008326415 0.995398 0.09546477
vn -0.01000198 0.9955521 0.09367964
vn -0.01017182 0.9955647 0.09352771
vn -0.01031048 0.9955913 0.09323014
vn -0.01013281 0.9955822 0.0933464
vn -0.009378276 0.9953452 0.09591711
vn -0.008448574 0.9957176 0.0920612
vn -0.009243388 0.9955362 0.09392725
vn -0.00924322 0.9955361 0.09392759
vn -0.006418515 0.9955422 0.09409831
vn -0.005947447 0.9955425 0.09412666
vn -0.008911614 0.9955051 0.09428752
vn -0.01047592 0.9954908 0.09427769
vn -0.0424001 0.9943411 0.09740523
vn -0.04842699 0.9939884 0.09819244
vn -0.08429679 0.9910852 0.1031699
vn -0.08574875 0.990932 0.1034451
vn -0.00194461 0.9976441 0.06857285
vn -0.01426773 0.9980599 0.06060239
vn -0.01753671 0.9946463 0.1018395
vn 0.01845274 0.9997087 0.01555217
vn 0.02682666 0.999639 0.001445773
vn 0.002850083 0.9972377 0.07422149
vn 0.007613836 0.9972551 0.07364974
vn -0.008523005 0.9956494 0.09278879
vn -0.008523236 0.9956493 0.09278958
vn -0.002163905 0.9966568 0.08167408
vn -0.01141468 0.9963554 0.08453261
vn 0.007827458 0.9976707 0.06776264
vn -0.01565994 0.9945675 0.1029092
vn -0.003986343 0.9954971 0.09470761
vn -0.008523116 0.9956493 0.09278924
vn -0.00852317 0.9956493 0.09278941
vn -0.008523077 0.9956493 0.09278927
vn -0.008523121 0.9956493 0.09278926
vn -0.008523293 0.9956493 0.09278937
vn -0.008523234 0.9956493 0.09278943
vn -0.0164106 0.9947804 0.10071
vn -0.01605362 0.9930602 0.1165065
vn -0.02124169 0.9936134 0.1108208
vn -0.02429521 0.9937867 0.108617
vn -0.008523125 0.9956493 0.09278943
vn -0.008522869 0.9956494 0.09278883
vn -0.008523001 0.9956494 0.092789
vn -0.008523282 0.9956493 0.09278935
vn -0.03419613 0.9902525 0.135021
vn -0.06387225 0.987093 0.1468594
vn -0.008523046 0.9956493 0.09278914
vn -0.008523029 0.9956493 0.09278922
vn -0.008523049 0.9956493 0.09278906
vn -0.008523228 0.9956493 0.09278983
vn -0.008522972 0.9956494 0.0927885
vn -0.008523246 0.9956493 0.09278907
vn -0.008522903 0.9956494 0.09278893
vn -0.008523113 0.9956493 0.09278917
vn -0.008523341 0.9956493 0.09278959
vn -0.008523086 0.9956493 0.09278929
vn -0.008523127 0.9956493 0.09278919
vn -0.008523088 0.9956493 0.09278935
vn -0.008523221 0.9956493 0.09278916
vn -0.008523124 0.9956493 0.09278921
vn -0.008523135 0.9956493 0.09278939
vn -0.008523034 0.9956493 0.0927894
vn -0.008522809 0.9956493 0.09278994
vn -0.008523108 0.9956493 0.09278959
vn -0.008523222 0.9956493 0.09278912
vn -0.00852348 0.9956493 0.09278905
vn -0.008523521 0.9956493 0.09278922
vn -0.008523344 0.9956493 0.09278918
vn -0.00852289 0.9956493 0.09278938
vn -0.008522578 0.9956493 0.09278933
vn -0.008523054 0.9956493 0.09278924
vn -0.01641075 0.9947804 0.1007104
vn -0.0164102 0.9947805 0.1007095
vn -0.02429503 0.9937867 0.108617
vn -0.0242964 0.9937865 0.1086189
vn -0.008523266 0.9956493 0.09278933
vn -0.01629419 0.9951239 0.09727748
vn -0.01869492 0.9947431 0.1006813
vn -0.01029231 0.9959997 0.08876168
vn -0.01970015 0.9942375 0.1053732
vn -0.01029161 0.9959998 0.08876085
vn 0.000176208 0.9975339 0.07018559
vn -0.004646238 0.9972205 0.07436249
vn -0.01961664 0.9927807 0.1183286
vn -0.02741743 0.9913068 0.1286825
vn -0.02690452 0.9932361 0.1129526
vn -0.01029226 0.9959997 0.08876212
vn -0.008030171 0.9965061 0.08313387
vn -0.02306361 0.9927159 0.1182503
vn -0.02428525 0.9918427 0.1251329
vn -0.0150936 0.9947082 0.1016254
vn -0.01068005 0.9959084 0.08973561
vn -0.01134964 0.9957595 0.09129212
vn -0.01119419 0.9958468 0.09035379
vn -0.0111942 0.9958468 0.09035402
vn -0.01052981 0.9961342 0.08721147
vn -0.01052986 0.9961342 0.08721169
vn -0.01045829 0.9961493 0.08704752
vn -0.0104581 0.9961493 0.08704711
vn -0.01060804 0.9960585 0.08806335
vn -0.01060781 0.9960585 0.08806268
vn -0.01057609 0.9960999 0.08759564
vn -0.01057218 0.9961056 0.08753146
vn -0.01050911 0.9958227 0.09070187
vn -0.01050959 0.9958229 0.09069891
vn -0.01052938 0.9956435 0.09264544
vn -0.01053691 0.9956651 0.0924124
vn -0.0105848 0.9957931 0.0910171
vn -0.01052903 0.9956434 0.09264638
vn -0.01058469 0.9957931 0.09101713
vn -0.01050896 0.9958227 0.09070119
vn -0.0105761 0.9960999 0.08759572
vn -0.01060812 0.9960583 0.08806401
vn -0.01045817 0.9961493 0.08704742
vn -0.01052981 0.9961342 0.08721147
vn -0.01119413 0.9958468 0.09035364
vn -0.01035865 0.9960425 0.08827256
vn -0.02829427 0.9903904 0.135374
vn -0.02837949 0.9903222 0.1358555
vn -0.009076534 0.9947894 0.1015475
vn -0.01682419 0.9938452 0.1094923
vn -0.01151459 0.9957817 0.09102891
vn -0.01073321 0.9959997 0.08870967
vn -0.01128253 0.9958102 0.09074607
vn -0.01119419 0.9958468 0.09035399
vn -0.01057416 0.9961128 0.08744846
vn -0.01052973 0.9961342 0.08721156
vn -0.01042793 0.9961674 0.08684325
vn -0.01045814 0.9961493 0.08704733
vn -0.01060807 0.9960583 0.0880647
vn -0.01060817 0.9960583 0.08806474
vn -0.01058264 0.9960915 0.08769079
vn -0.01057615 0.9960999 0.0875961
vn -0.01051597 0.9958875 0.08998749
vn -0.01050895 0.9958228 0.09070004
vn -0.01052894 0.9956435 0.09264589
vn -0.01052916 0.9956436 0.09264425
vn -0.01058448 0.995793 0.09101762
vn -0.01058442 0.995793 0.09101731
vn -0.01058468 0.9957931 0.0910168
vn -0.01052796 0.9956433 0.09264756
vn -0.01050812 0.9958231 0.09069671
vn -0.01050906 0.9958228 0.09070071
vn -0.01052974 0.9956436 0.09264452
vn -0.01049756 0.9957137 0.09189203
vn -0.01052966 0.9956435 0.09264524
vn -0.01056528 0.9961138 0.08743986
vn -0.01057106 0.9961058 0.0875298
vn -0.01054395 0.9961413 0.08712833
vn -0.01058308 0.9960912 0.08769492
vn -0.01060863 0.9960585 0.08806314
vn -0.01060867 0.9960583 0.08806378
vn -0.01047972 0.9961364 0.08719198
vn -0.01045843 0.9961493 0.08704799
vn -0.01045553 0.9961693 0.08681849
vn -0.0105297 0.9961342 0.08721171
vn -0.01104598 0.9959077 0.08969852
vn -0.01119448 0.9958468 0.09035338
vn -0.01163764 0.9956619 0.09231441
vn -0.01163764 0.9956618 0.09231497
vn -0.01060806 0.9960585 0.08806345
vn -0.01045819 0.9961493 0.08704697
vn -0.01052973 0.9961342 0.08721136
vn -0.01119418 0.9958468 0.09035368
vn -0.01133949 0.995716 0.09176539
vn -0.01124031 0.9957645 0.09125079
vn -0.01117333 0.9957815 0.09107327
vn -0.0105723 0.9959328 0.08947723
vn -0.0105026 0.9959494 0.08929931
vn -0.01029244 0.9959998 0.08876093
vn -0.01029256 0.9959998 0.08876143
vn -0.01120907 0.9956949 0.09201067
vn -0.0106788 0.9958308 0.09059233
vn -0.01439469 0.9951357 0.09745578
vn -0.01029176 0.9960728 0.08793896
vn -0.01029254 0.9959998 0.08876066
vn -0.01029298 0.9959998 0.0887603
vn -0.03244445 0.9934471 0.1095906
vn -0.01829519 0.9948078 0.1001145
vn -0.05453276 0.991935 0.1144161
vn -0.02429515 0.9937868 0.1086167
vn -0.01029243 0.9959998 0.08876091
vn -0.0172946 0.9949673 0.09869638
vn 0.002324231 0.9976872 0.06793302
vn 0.003377301 0.9971102 0.07589486
vn -0.003640323 0.9958708 0.09070876
vn -0.003415443 0.9959589 0.08974534
vn 0.01285752 0.9989274 0.04448124
vn -0.03632776 0.9963853 -0.07678932
vn -0.0160507 0.9788113 0.2041339
vn -0.01354118 0.9845031 0.1748431
vn -0.02061454 0.9795488 0.200148
vn -0.01740766 0.9817988 0.1891241
vn -0.00886069 0.9962508 0.08605716
vn -0.008823046 0.9962406 0.08617874
vn -0.00888459 0.9962988 0.08549629
vn -0.008884771 0.9962988 0.08549692
vn -0.008700565 0.9960235 0.0886644
vn -0.008700524 0.9960235 0.08866435
vn 1.981687E-05 0.9974695 0.07109567
vn -0.003550978 0.9959222 0.09014667
vn 0.001104103 0.9968957 0.07872558
vn -0.008523188 0.9956493 0.09278923
vn -0.008522948 0.9956494 0.09278891
vn -0.008565173 0.9956396 0.09288895
vn -0.008523084 0.9956493 0.09278922
vn -0.003550763 0.9959222 0.09014666
vn 0.000464679 0.9968298 0.07956218
vn -0.003550546 0.9959222 0.09014664
vn 0.0003317221 0.9974426 0.07147211
vn 0.000331565 0.9974426 0.0714719
vn -0.01382997 0.9845037 0.1748177
vn -0.01383071 0.9845031 0.1748214
vn -0.0205662 0.9812595 0.1915903
vn -0.02056671 0.9812594 0.1915909
vn -0.008861156 0.9962519 0.08604407
vn -0.008861133 0.9962519 0.08604418
vn -0.008884585 0.9962988 0.08549679
vn -0.008884393 0.9962988 0.08549627
vn -0.008700292 0.9960235 0.08866417
vn -0.008700378 0.9960235 0.08866435
vn 0.0003718151 0.9967113 0.08103403
vn -0.008523277 0.9956493 0.09278938
vn -0.008523287 0.9956493 0.09278952
vn -0.008523183 0.9956493 0.09278934
vn -0.008523199 0.9956493 0.09278913
vn -0.008523012 0.9956493 0.09278936
vn -0.008522977 0.9956493 0.0927893
vn -0.008523034 0.9956493 0.09278966
vn -0.008523065 0.9956493 0.09278961
vn -0.008523108 0.9956493 0.09278909
vn -0.008700421 0.9960235 0.08866464
vn -0.008884443 0.9962988 0.08549602
vn -0.008861024 0.9962519 0.08604444
vn -0.02056574 0.9812607 0.1915843
vn -0.01382969 0.9845048 0.1748112
vn 0.0003318478 0.9974426 0.07147143
vn -0.003550544 0.9959222 0.09014675
vn -0.0003313916 0.9965814 0.0826166
vn 0.003888377 0.9973157 0.07311854
vn 0.003042479 0.9974487 0.07131996
vn 0.0005796185 0.9970938 0.0761819
vn -0.0004146704 0.9970919 0.07620761
vn 0.001840855 0.997515 0.07043168
vn 0.001241429 0.9971398 0.07556944
vn -0.003730895 0.9968919 0.07869255
vn -0.01072937 0.9963264 0.08496317
vn 0.007137396 0.9989869 0.0444326
vn 0.004036199 0.997663 0.06820812
vn -0.0001383506 0.9967341 0.08075365
vn -0.002127268 0.9970426 0.07682168
vn 0.001012373 0.9964309 0.0844059
vn 0.003442792 0.9946753 0.1030008
vn -0.001853736 0.9957826 0.09172531
vn -0.001893759 0.9941576 0.1079222
vn -0.0192708 0.9955186 0.09258194
vn -0.002990492 0.9971026 0.07601038
vn 0.009000493 0.9973247 0.07254299
vn 0.01050003 0.9967139 0.08031975
vn 0.04199756 0.9974059 0.05845924
vn 0.08550392 0.9956288 0.03757933
vn -0.002062413 0.9966626 0.08160627
vn 0.02313972 0.9975706 0.06570792
vn -0.002729355 0.9968515 0.07924463
vn 0.0231408 0.9975706 0.06570764
vn -0.00272918 0.9968515 0.07924418
vn 0.0231403 0.9975706 0.06570745
vn -0.002729312 0.9968515 0.07924402
vn 0.02313476 0.9975705 0.06570993
vn -0.002729516 0.9968515 0.07924432
vn 0.02831317 0.9976124 0.06299263
vn 0.0001068161 0.9970604 0.07661978
vn 0.0005784738 0.9970937 0.07618312
vn 0.003888241 0.9973157 0.07311842
vn 0.003888218 0.9973156 0.07311881
vn 0.0008743334 0.9968022 0.07990369
vn 0.0003716744 0.9967113 0.08103412
vn -0.003469619 0.9959442 0.08990622
vn -0.003550428 0.9959222 0.09014658
vn -0.0005259302 0.9971495 0.07544972
vn 0.0003320414 0.9974426 0.07147076
vn -0.01012826 0.9886053 0.1501894
vn -0.01382896 0.9845056 0.1748069
vn -0.0228956 0.9768682 0.2126131
vn -0.02056518 0.9812618 0.1915785
vn -0.00885486 0.9962592 0.08596053
vn -0.008861116 0.9962519 0.08604473
vn -0.008886169 0.9962823 0.08568993
vn -0.008884557 0.9962988 0.08549654
vn -0.008735989 0.9960964 0.087839
vn -0.008700287 0.9960235 0.08866377
vn -0.008448574 0.9957176 0.0920612
vn -0.008523175 0.9956493 0.09278935
vn -0.008523047 0.9956493 0.09278941
vn -0.008522982 0.9956493 0.09278929
vn -0.008523345 0.9956493 0.09278905
vn -0.008523257 0.9956493 0.09278933
vn -0.0085235 0.9956494 0.09278885
vn -0.008523013 0.9956493 0.09278947
vn -0.00855627 0.9956434 0.09284911
vn -0.008617215 0.9956335 0.09294873
vn -0.008634776 0.995621 0.09308167
vn -0.00859895 0.9956292 0.09299765
vn -0.01129454 0.9956981 0.09196638
vn -0.01137496 0.9964659 0.08322444
vn -0.01940545 0.9949849 0.09812568
vn -0.00774633 0.9959716 0.08933362
vn -0.01274782 0.9951223 0.09782271
vn -0.01432939 0.9956305 0.09227424
vn -0.01347383 0.9955597 0.09316204
vn -0.01205148 0.9959062 0.08958527
vn -0.01485455 0.992157 0.1241121
vn -0.01371681 0.9954301 0.09450278
vn -0.02186722 0.9920762 0.1237204
vn -0.02925836 0.9735883 0.2264286
vn -0.002124397 0.9979696 0.06365614
vn -0.004170087 0.997539 0.06998871
vn -0.008428105 0.9956329 0.09297293
vn -0.01424908 0.9955618 0.0930246
vn -0.01063699 0.996262 0.08572602
vn -0.009891223 0.9961149 0.08750596
vn -0.02220801 0.9787941 0.2036394
vn -0.02492954 0.9793239 0.200757
vn -0.03486724 0.9611659 0.2737598
vn 0.004116146 0.9975334 0.07007156
vn 0.005583679 0.9967647 0.0801815
vn 0.002792244 0.9966897 0.08125134
vn 0.0005847338 0.9970486 0.07677109
vn -0.008799844 0.9961314 0.08743364
vn -0.003925976 0.9967999 0.0798404
vn -0.01126798 0.9977702 0.06578439
vn -0.01344211 0.9970574 0.07547083
vn -0.004296468 0.9961491 0.08757035
vn -0.01546797 0.995693 0.09141198
vn -0.0187646 0.9947365 0.1007324
vn -0.016655 0.9950793 0.09767208
vn -0.01724775 0.9950258 0.09811275
vn -0.01425738 0.9957689 0.09078004
vn -0.0188617 0.9963034 0.08380729
vn -0.02774716 0.9991091 0.03179717
vn -0.01800144 0.9917645 0.1268032
vn 0.03877938 0.9845824 0.1705681
vn 0.07354335 0.9698314 0.2324188
vn 0.09680884 0.9710842 0.2182279
vn 0.1094992 0.9813788 0.1578148
vn 0.09608531 0.988993 0.1125192
vn 0.03906038 0.9843343 0.171931
vn -0.03451943 0.9906542 0.1319569
vn 0.006391342 0.9893278 0.1455667
vn -0.004282821 0.9968561 0.07911738
vn 0.02059638 0.9815587 0.1900481
vn 0.04001779 0.9926205 0.1144685
vn 0.002536574 0.9993136 0.03695784
vn -0.008540219 0.9956468 0.09281464
vn -0.008522269 0.9956495 0.09278675
vn -0.008522752 0.9956494 0.09278847
vn -0.008522993 0.9956493 0.09278921
vn -0.008522458 0.9956495 0.09278715
vn 0.008051343 0.9984455 0.05515412
vn 0.0180361 0.9996943 0.01690878
vn -0.008522005 0.9956495 0.09278715
vn -0.01641021 0.9947805 0.1007094
vn -0.02429657 0.9937867 0.108617
vn -0.02429527 0.9937868 0.1086166
vn 0.07590516 0.9963055 0.04017346
vn 0.0187254 0.9982126 0.05675371
vn 0.06813247 0.9965706 0.04695853
vn -0.01014339 0.9965914 0.08187032
vn 0.08808105 0.9958943 0.02088862
vn -0.01541503 0.9986712 0.04917689
vn 0.04950085 0.9973242 0.05379599
vn -0.07958114 0.9914935 0.102993
vn -0.07707592 0.9927706 0.0920097
vn -0.08091831 0.9904752 0.1114048
vn -0.008713899 0.997328 0.07253172
vn -0.0857485 0.990932 0.1034458
vn -0.008713882 0.997328 0.07253177
vn 0.06231365 0.997001 0.04588939
vn 0.06231567 0.997001 0.04588781
vn 0.04899159 0.9974387 0.05211433
vn 0.0489908 0.9974387 0.05211472
vn -0.08574805 0.9909321 0.1034451
vn 0.06231285 0.9970011 0.04588933
vn 0.04899235 0.9974387 0.05211302
vn -0.008716072 0.997328 0.07253235
vn -0.08574998 0.990932 0.1034445
vn -0.008714176 0.997328 0.07253136
vn -0.08574875 0.990932 0.1034451
vn -0.02563631 0.9965402 0.07906061
vn 0.0623081 0.9970012 0.04589166
vn 0.06231922 0.9970009 0.04588579
vn 0.04898762 0.9974388 0.05211565
vn 0.04897761 0.997439 0.05212086
vn -0.08429679 0.9910852 0.1031699
vn -0.004735666 0.9964843 0.08364634
vn -0.00239123 0.9971054 0.07599428
vn -0.01029148 0.9959999 0.08876009
vn -0.0102921 0.9959998 0.08876082
vn -0.01029071 0.9960001 0.08875909
vn -0.01869381 0.9947432 0.1006802
vn -0.008448574 0.9957176 0.0920612
vn -0.002163905 0.9966568 0.08167408
vn -0.01565994 0.9945675 0.1029092
vn 0.007827458 0.9976707 0.06776264
vn 0.007613836 0.9972551 0.07364974
vn -0.01141468 0.9963554 0.08453261
vn 0.02682666 0.999639 0.001445773
vn -0.008593203 0.9956388 0.09289509
g BRM_Head_LavaPool_drain_0
f 3/3/3 2/2/2 1/1/1
f 4/4/4 2/2/2 3/3/3
f 2/2/2 5/5/5 1/1/1
f 1/1/1 5/5/5 6/6/6
f 5/5/5 7/7/7 6/6/6
f 6/6/6 7/7/7 8/8/8
f 7/7/7 9/9/9 8/8/8
f 8/8/8 9/9/9 10/10/10
f 11/11/11 8/8/8 10/10/10
f 12/12/12 8/8/8 11/11/11
f 12/12/12 6/6/6 8/8/8
f 13/13/13 6/6/6 12/12/12
f 13/13/13 1/1/1 6/6/6
f 14/14/14 1/1/1 13/13/13
f 1/1/1 15/15/15 3/3/3
f 14/14/14 15/15/15 1/1/1
f 14/14/14 16/16/16 15/15/15
f 17/17/17 16/16/16 14/14/14
f 17/17/17 18/18/18 16/16/16
f 19/19/19 18/18/18 17/17/17
f 19/19/19 17/17/17 20/20/20
f 20/20/20 17/17/17 21/21/21
f 21/21/21 14/14/14 13/13/13
f 17/17/17 14/14/14 21/21/21
f 20/20/20 21/21/21 22/22/22
f 22/22/22 21/21/21 23/23/23
f 23/23/23 13/13/13 12/12/12
f 21/21/21 13/13/13 23/23/23
f 22/22/22 23/23/23 24/24/24
f 24/24/24 23/23/23 25/25/25
f 25/25/25 12/12/12 11/11/11
f 23/23/23 12/12/12 25/25/25
f 26/26/26 22/22/22 24/24/24
f 27/27/27 22/22/22 26/26/26
f 27/27/27 20/20/20 22/22/22
f 28/28/28 20/20/20 27/27/27
f 28/28/28 19/19/19 20/20/20
f 29/29/29 19/19/19 28/28/28
f 19/19/19 30/30/30 18/18/18
f 29/29/29 30/30/30 19/19/19
f 16/16/16 31/31/31 15/15/15
f 30/30/30 32/32/32 18/18/18
f 33/33/33 32/32/32 30/30/30
f 32/32/32 33/33/33 34/34/34
f 35/35/35 32/32/32 34/34/34
f 35/35/35 34/34/34 36/36/36
f 36/36/36 34/34/34 37/37/37
f 36/36/36 37/37/37 38/38/38
f 38/38/38 37/37/37 39/39/39
f 38/38/38 39/39/39 40/40/40
f 40/40/40 39/39/39 41/41/41
f 40/40/40 41/41/41 42/42/42
f 42/42/42 41/41/41 43/43/43
f 42/42/42 43/43/43 44/44/44
f 44/44/44 43/43/43 45/45/45
f 44/44/44 45/45/45 46/46/46
f 47/47/47 44/44/44 46/46/46
f 48/48/48 44/44/44 47/47/47
f 48/48/48 42/42/42 44/44/44
f 49/49/49 48/48/48 47/47/47
f 50/50/50 48/48/48 49/49/49
f 51/51/51 50/50/50 49/49/49
f 52/52/52 50/50/50 51/51/51
f 52/52/52 53/53/53 50/50/50
f 54/54/54 53/53/53 52/52/52
f 54/54/54 55/55/55 53/53/53
f 56/56/56 55/55/55 54/54/54
f 56/56/56 57/57/57 55/55/55
f 58/58/58 57/57/57 56/56/56
f 58/58/58 59/59/59 57/57/57
f 60/60/60 59/59/59 58/58/58
f 60/60/60 61/61/61 59/59/59
f 62/62/62 61/61/61 60/60/60
f 62/62/62 63/63/63 61/61/61
f 63/63/63 31/31/31 61/61/61
f 31/31/31 63/63/63 15/15/15
f 64/64/64 63/63/63 62/62/62
f 59/59/59 65/65/65 57/57/57
f 59/59/59 66/66/66 65/65/65
f 61/61/61 66/66/66 59/59/59
f 61/61/61 31/31/31 66/66/66
f 57/57/57 65/65/65 67/67/67
f 57/57/57 67/67/67 55/55/55
f 55/55/55 67/67/67 68/68/68
f 55/55/55 68/68/68 53/53/53
f 53/53/53 68/68/68 69/69/69
f 53/53/53 69/69/69 50/50/50
f 50/50/50 69/69/69 48/48/48
f 69/69/69 42/42/42 48/48/48
f 69/69/69 40/40/40 42/42/42
f 68/68/68 40/40/40 69/69/69
f 68/68/68 38/38/38 40/40/40
f 67/67/67 38/38/38 68/68/68
f 65/65/65 36/36/36 67/67/67
f 67/67/67 36/36/36 38/38/38
f 65/65/65 35/35/35 36/36/36
f 66/66/66 35/35/35 65/65/65
f 66/66/66 70/70/70 35/35/35
f 70/70/70 32/32/32 35/35/35
f 32/32/32 70/70/70 18/18/18
f 18/18/18 70/70/70 16/16/16
f 70/70/70 31/31/31 16/16/16
f 31/31/31 70/70/70 66/66/66
f 51/51/51 49/49/49 71/71/71
f 71/71/71 49/49/49 72/72/72
f 49/49/49 47/47/47 72/72/72
f 71/71/71 72/72/72 73/73/73
f 73/73/73 72/72/72 74/74/74
f 72/72/72 47/47/47 75/75/75
f 47/47/47 46/46/46 75/75/75
f 75/75/75 46/46/46 76/76/76
f 46/46/46 77/77/77 76/76/76
f 46/46/46 45/45/45 77/77/77
f 45/45/45 78/78/78 77/77/77
f 45/45/45 79/79/79 78/78/78
f 43/43/43 79/79/79 45/45/45
f 43/43/43 80/80/80 79/79/79
f 41/41/41 80/80/80 43/43/43
f 41/41/41 81/81/81 80/80/80
f 39/39/39 81/81/81 41/41/41
f 39/39/39 82/82/82 81/81/81
f 37/37/37 82/82/82 39/39/39
f 37/37/37 83/83/83 82/82/82
f 34/34/34 83/83/83 37/37/37
f 34/34/34 33/33/33 83/83/83
f 77/77/77 78/78/78 84/84/84
f 78/78/78 85/85/85 84/84/84
f 84/84/84 85/85/85 86/86/86
f 85/85/85 87/87/87 86/86/86
f 85/85/85 88/88/88 87/87/87
f 89/89/89 88/88/88 85/85/85
f 78/78/78 89/89/89 85/85/85
f 79/79/79 89/89/89 78/78/78
f 89/89/89 90/90/90 88/88/88
f 91/91/91 90/90/90 89/89/89
f 79/79/79 91/91/91 89/89/89
f 91/91/91 92/92/92 90/90/90
f 93/93/93 92/92/92 91/91/91
f 93/93/93 94/94/94 92/92/92
f 95/95/95 94/94/94 93/93/93
f 95/95/95 96/96/96 94/94/94
f 97/97/97 96/96/96 95/95/95
f 97/97/97 98/98/98 96/96/96
f 99/99/99 98/98/98 97/97/97
f 86/86/86 87/87/87 100/100/100
f 98/98/98 101/101/101 96/96/96
f 96/96/96 101/101/101 94/94/94
f 94/94/94 101/101/101 92/92/92
f 92/92/92 101/101/101 90/90/90
f 90/90/90 101/101/101 88/88/88
f 88/88/88 101/101/101 87/87/87
f 87/87/87 101/101/101 100/100/100
f 98/98/98 99/99/99 102/102/102
f 101/101/101 98/98/98 102/102/102
f 102/102/102 99/99/99 103/103/103
f 104/104/104 102/102/102 103/103/103
f 105/105/105 102/102/102 104/104/104
f 105/105/105 101/101/101 102/102/102
f 105/105/105 104/104/104 106/106/106
f 101/101/101 105/105/105 106/106/106
f 106/106/106 104/104/104 107/107/107
f 106/106/106 107/107/107 108/108/108
f 101/101/101 106/106/106 108/108/108
f 108/108/108 107/107/107 109/109/109
f 108/108/108 109/109/109 110/110/110
f 101/101/101 108/108/108 110/110/110
f 110/110/110 109/109/109 111/111/111
f 30/30/30 104/104/104 103/103/103
f 103/103/103 33/33/33 30/30/30
f 109/109/109 27/27/27 111/111/111
f 109/109/109 28/28/28 27/27/27
f 107/107/107 28/28/28 109/109/109
f 107/107/107 29/29/29 28/28/28
f 29/29/29 104/104/104 30/30/30
f 104/104/104 29/29/29 107/107/107
f 99/99/99 33/33/33 103/103/103
f 33/33/33 99/99/99 83/83/83
f 83/83/83 99/99/99 97/97/97
f 83/83/83 97/97/97 82/82/82
f 82/82/82 97/97/97 95/95/95
f 82/82/82 95/95/95 81/81/81
f 81/81/81 95/95/95 93/93/93
f 81/81/81 93/93/93 80/80/80
f 80/80/80 93/93/93 91/91/91
f 80/80/80 91/91/91 79/79/79
f 111/111/111 27/27/27 26/26/26
f 114/114/114 113/113/113 112/112/112
f 112/112/112 113/113/113 115/115/115
f 115/115/115 113/113/113 116/116/116
f 116/116/116 117/117/117 115/115/115
f 118/118/118 117/117/117 116/116/116
f 117/117/117 118/118/118 119/119/119
f 119/119/119 118/118/118 120/120/120
f 118/118/118 121/121/121 120/120/120
f 118/118/118 122/122/122 121/121/121
f 113/113/113 122/122/122 116/116/116
f 121/121/121 122/122/122 123/123/123
f 124/124/124 123/123/123 122/122/122
f 121/121/121 124/124/124 125/125/125
f 121/121/121 125/125/125 126/126/126
f 120/120/120 121/121/121 126/126/126
f 126/126/126 125/125/125 127/127/127
f 125/125/125 128/128/128 127/127/127
f 127/127/127 128/128/128 129/129/129
f 127/127/127 129/129/129 130/130/130
f 130/130/130 129/129/129 131/131/131
f 125/125/125 132/132/132 128/128/128
f 133/133/133 132/132/132 125/125/125
f 133/133/133 125/125/125 124/124/124
f 133/133/133 134/134/134 132/132/132
f 132/132/132 134/134/134 135/135/135
f 130/130/130 131/131/131 136/136/136
f 136/136/136 137/137/137 130/130/130
f 130/130/130 137/137/137 138/138/138
f 138/138/138 127/127/127 130/130/130
f 126/126/126 127/127/127 138/138/138
f 136/136/136 131/131/131 139/139/139
f 133/133/133 140/140/140 134/134/134
f 124/124/124 140/140/140 133/133/133
f 124/124/124 141/141/141 140/140/140
f 122/122/122 141/141/141 124/124/124
f 137/137/137 142/142/142 138/138/138
f 138/138/138 142/142/142 143/143/143
f 143/143/143 126/126/126 138/138/138
f 120/120/120 126/126/126 143/143/143
f 142/142/142 144/144/144 143/143/143
f 143/143/143 144/144/144 145/145/145
f 145/145/145 120/120/120 143/143/143
f 119/119/119 120/120/120 145/145/145
f 144/144/144 142/142/142 146/146/146
f 146/146/146 142/142/142 147/147/147
f 142/142/142 137/137/137 147/147/147
f 147/147/147 148/148/148 146/146/146
f 149/149/149 148/148/148 147/147/147
f 149/149/149 147/147/147 150/150/150
f 150/150/150 147/147/147 151/151/151
f 150/150/150 151/151/151 152/152/152
f 152/152/152 151/151/151 153/153/153
f 152/152/152 153/153/153 154/154/154
f 154/154/154 153/153/153 155/155/155
f 154/154/154 155/155/155 156/156/156
f 156/156/156 155/155/155 157/157/157
f 156/156/156 157/157/157 158/158/158
f 158/158/158 157/157/157 159/159/159
f 159/159/159 101/101/101 158/158/158
f 147/147/147 137/137/137 151/151/151
f 151/151/151 136/136/136 153/153/153
f 137/137/137 136/136/136 151/151/151
f 153/153/153 139/139/139 155/155/155
f 136/136/136 139/139/139 153/153/153
f 155/155/155 160/160/160 157/157/157
f 139/139/139 160/160/160 155/155/155
f 139/139/139 161/161/161 160/160/160
f 161/161/161 162/162/162 160/160/160
f 161/161/161 163/163/163 162/162/162
f 163/163/163 101/101/101 162/162/162
f 164/164/164 163/163/163 161/161/161
f 164/164/164 165/165/165 163/163/163
f 165/165/165 101/101/101 163/163/163
f 166/166/166 165/165/165 164/164/164
f 166/166/166 167/167/167 165/165/165
f 167/167/167 101/101/101 165/165/165
f 168/168/168 167/167/167 166/166/166
f 168/168/168 169/169/169 167/167/167
f 167/167/167 169/169/169 170/170/170
f 170/170/170 101/101/101 167/167/167
f 160/160/160 162/162/162 171/171/171
f 162/162/162 101/101/101 171/171/171
f 131/131/131 164/164/164 161/161/161
f 131/131/131 161/161/161 139/139/139
f 129/129/129 164/164/164 131/131/131
f 129/129/129 166/166/166 164/164/164
f 128/128/128 166/166/166 129/129/129
f 128/128/128 168/168/168 166/166/166
f 132/132/132 168/168/168 128/128/128
f 168/168/168 135/135/135 169/169/169
f 132/132/132 135/135/135 168/168/168
f 135/135/135 172/172/172 169/169/169
f 173/173/173 172/172/172 135/135/135
f 173/173/173 174/174/174 172/172/172
f 173/173/173 175/175/175 174/174/174
f 174/174/174 175/175/175 176/176/176
f 174/174/174 176/176/176 177/177/177
f 177/177/177 176/176/176 178/178/178
f 178/178/178 179/179/179 177/177/177
f 180/180/180 179/179/179 178/178/178
f 175/175/175 181/181/181 176/176/176
f 176/176/176 181/181/181 182/182/182
f 176/176/176 182/182/182 178/178/178
f 178/178/178 182/182/182 183/183/183
f 183/183/183 180/180/180 178/178/178
f 184/184/184 180/180/180 183/183/183
f 184/184/184 185/185/185 180/180/180
f 186/186/186 185/185/185 184/184/184
f 186/186/186 187/187/187 185/185/185
f 188/188/188 187/187/187 186/186/186
f 188/188/188 189/189/189 187/187/187
f 190/190/190 189/189/189 188/188/188
f 190/190/190 191/191/191 189/189/189
f 192/192/192 191/191/191 190/190/190
f 192/192/192 193/193/193 191/191/191
f 194/194/194 193/193/193 192/192/192
f 194/194/194 195/195/195 193/193/193
f 196/196/196 195/195/195 194/194/194
f 196/196/196 197/197/197 195/195/195
f 198/198/198 197/197/197 196/196/196
f 198/198/198 199/199/199 197/197/197
f 200/200/200 199/199/199 198/198/198
f 200/200/200 201/201/201 199/199/199
f 202/202/202 201/201/201 200/200/200
f 202/202/202 76/76/76 201/201/201
f 201/201/201 76/76/76 203/203/203
f 201/201/201 203/203/203 204/204/204
f 201/201/201 204/204/204 199/199/199
f 204/204/204 203/203/203 205/205/205
f 199/199/199 204/204/204 206/206/206
f 199/199/199 206/206/206 197/197/197
f 197/197/197 206/206/206 207/207/207
f 197/197/197 207/207/207 195/195/195
f 195/195/195 207/207/207 208/208/208
f 195/195/195 208/208/208 193/193/193
f 193/193/193 208/208/208 209/209/209
f 193/193/193 209/209/209 191/191/191
f 191/191/191 209/209/209 210/210/210
f 191/191/191 210/210/210 189/189/189
f 189/189/189 210/210/210 211/211/211
f 189/189/189 211/211/211 187/187/187
f 187/187/187 211/211/211 212/212/212
f 187/187/187 212/212/212 185/185/185
f 185/185/185 212/212/212 213/213/213
f 185/185/185 213/213/213 180/180/180
f 180/180/180 213/213/213 179/179/179
f 213/213/213 214/214/214 179/179/179
f 179/179/179 214/214/214 215/215/215
f 214/214/214 216/216/216 215/215/215
f 214/214/214 217/217/217 216/216/216
f 218/218/218 217/217/217 214/214/214
f 213/213/213 218/218/218 214/214/214
f 212/212/212 218/218/218 213/213/213
f 218/218/218 219/219/219 217/217/217
f 220/220/220 219/219/219 218/218/218
f 212/212/212 220/220/220 218/218/218
f 211/211/211 220/220/220 212/212/212
f 220/220/220 221/221/221 219/219/219
f 222/222/222 221/221/221 220/220/220
f 211/211/211 222/222/222 220/220/220
f 222/222/222 223/223/223 221/221/221
f 224/224/224 223/223/223 222/222/222
f 224/224/224 225/225/225 223/223/223
f 226/226/226 225/225/225 224/224/224
f 226/226/226 227/227/227 225/225/225
f 228/228/228 227/227/227 226/226/226
f 228/228/228 229/229/229 227/227/227
f 230/230/230 229/229/229 228/228/228
f 230/230/230 231/231/231 229/229/229
f 232/232/232 231/231/231 230/230/230
f 232/232/232 233/233/233 231/231/231
f 231/231/231 233/233/233 234/234/234
f 234/234/234 101/101/101 231/231/231
f 225/225/225 101/101/101 223/223/223
f 231/231/231 101/101/101 229/229/229
f 227/227/227 101/101/101 225/225/225
f 223/223/223 101/101/101 221/221/221
f 229/229/229 101/101/101 227/227/227
f 210/210/210 224/224/224 222/222/222
f 210/210/210 222/222/222 211/211/211
f 208/208/208 228/228/228 226/226/226
f 208/208/208 226/226/226 209/209/209
f 209/209/209 224/224/224 210/210/210
f 209/209/209 226/226/226 224/224/224
f 206/206/206 232/232/232 230/230/230
f 206/206/206 230/230/230 207/207/207
f 207/207/207 228/228/228 208/208/208
f 207/207/207 230/230/230 228/228/228
f 233/233/233 100/100/100 234/234/234
f 100/100/100 101/101/101 234/234/234
f 86/86/86 100/100/100 233/233/233
f 205/205/205 86/86/86 233/233/233
f 232/232/232 205/205/205 233/233/233
f 204/204/204 232/232/232 206/206/206
f 204/204/204 205/205/205 232/232/232
f 84/84/84 86/86/86 205/205/205
f 203/203/203 84/84/84 205/205/205
f 77/77/77 84/84/84 203/203/203
f 76/76/76 77/77/77 203/203/203
f 202/202/202 75/75/75 76/76/76
f 235/235/235 75/75/75 202/202/202
f 236/236/236 235/235/235 202/202/202
f 236/236/236 202/202/202 237/237/237
f 238/238/238 236/236/236 237/237/237
f 239/239/239 236/236/236 238/238/238
f 240/240/240 239/239/239 238/238/238
f 241/241/241 239/239/239 240/240/240
f 240/240/240 238/238/238 242/242/242
f 242/242/242 238/238/238 243/243/243
f 238/238/238 237/237/237 243/243/243
f 244/244/244 243/243/243 237/237/237
f 245/245/245 243/243/243 244/244/244
f 242/242/242 243/243/243 246/246/246
f 246/246/246 243/243/243 247/247/247
f 243/243/243 245/245/245 247/247/247
f 248/248/248 246/246/246 247/247/247
f 249/249/249 246/246/246 248/248/248
f 249/249/249 248/248/248 250/250/250
f 250/250/250 248/248/248 251/251/251
f 250/250/250 251/251/251 252/252/252
f 252/252/252 251/251/251 253/253/253
f 252/252/252 253/253/253 254/254/254
f 254/254/254 253/253/253 255/255/255
f 247/247/247 256/256/256 248/248/248
f 247/247/247 245/245/245 256/256/256
f 248/248/248 256/256/256 257/257/257
f 248/248/248 257/257/257 251/251/251
f 251/251/251 257/257/257 258/258/258
f 251/251/251 258/258/258 253/253/253
f 253/253/253 258/258/258 259/259/259
f 253/253/253 259/259/259 255/255/255
f 255/255/255 259/259/259 260/260/260
f 261/261/261 254/254/254 255/255/255
f 262/262/262 254/254/254 261/261/261
f 262/262/262 261/261/261 263/263/263
f 263/263/263 261/261/261 264/264/264
f 263/263/263 264/264/264 265/265/265
f 265/265/265 264/264/264 266/266/266
f 260/260/260 267/267/267 255/255/255
f 261/261/261 255/255/255 267/267/267
f 268/268/268 261/261/261 267/267/267
f 261/261/261 268/268/268 264/264/264
f 264/264/264 268/268/268 269/269/269
f 264/264/264 269/269/269 266/266/266
f 266/266/266 269/269/269 270/270/270
f 271/271/271 266/266/266 270/270/270
f 272/272/272 266/266/266 271/271/271
f 272/272/272 265/265/265 266/266/266
f 273/273/273 272/272/272 271/271/271
f 274/274/274 272/272/272 273/273/273
f 274/274/274 273/273/273 275/275/275
f 276/276/276 274/274/274 275/275/275
f 275/275/275 273/273/273 141/141/141
f 274/274/274 277/277/277 272/272/272
f 277/277/277 265/265/265 272/272/272
f 278/278/278 277/277/277 274/274/274
f 273/273/273 271/271/271 181/181/181
f 273/273/273 181/181/181 141/141/141
f 181/181/181 271/271/271 182/182/182
f 271/271/271 270/270/270 182/182/182
f 182/182/182 270/270/270 183/183/183
f 270/270/270 184/184/184 183/183/183
f 269/269/269 184/184/184 270/270/270
f 269/269/269 186/186/186 184/184/184
f 268/268/268 186/186/186 269/269/269
f 268/268/268 267/267/267 186/186/186
f 267/267/267 260/260/260 186/186/186
f 188/188/188 186/186/186 260/260/260
f 260/260/260 190/190/190 188/188/188
f 259/259/259 190/190/190 260/260/260
f 259/259/259 192/192/192 190/190/190
f 258/258/258 192/192/192 259/259/259
f 258/258/258 194/194/194 192/192/192
f 257/257/257 194/194/194 258/258/258
f 257/257/257 196/196/196 194/194/194
f 256/256/256 196/196/196 257/257/257
f 256/256/256 198/198/198 196/196/196
f 245/245/245 198/198/198 256/256/256
f 245/245/245 244/244/244 198/198/198
f 198/198/198 244/244/244 200/200/200
f 237/237/237 200/200/200 244/244/244
f 237/237/237 202/202/202 200/200/200
f 281/281/281 280/280/280 279/279/279
f 282/282/282 280/280/280 281/281/281
f 283/283/283 282/282/282 281/281/281
f 284/284/284 282/282/282 283/283/283
f 279/279/279 280/280/280 285/285/285
f 286/286/286 279/279/279 285/285/285
f 286/286/286 285/285/285 287/287/287
f 287/287/287 285/285/285 288/288/288
f 287/287/287 288/288/288 289/289/289
f 289/289/289 288/288/288 290/290/290
f 290/290/290 291/291/291 289/289/289
f 292/292/292 291/291/291 290/290/290
f 292/292/292 293/293/293 291/291/291
f 294/294/294 293/293/293 292/292/292
f 295/295/295 279/279/279 286/286/286
f 295/295/295 281/281/281 279/279/279
f 296/296/296 281/281/281 295/295/295
f 296/296/296 283/283/283 281/281/281
f 297/297/297 283/283/283 296/296/296
f 293/293/293 294/294/294 298/298/298
f 298/298/298 294/294/294 299/299/299
f 300/300/300 298/298/298 299/299/299
f 301/301/301 298/298/298 300/300/300
f 302/302/302 297/297/297 296/296/296
f 303/303/303 297/297/297 302/302/302
f 304/304/304 303/303/303 302/302/302
f 304/304/304 302/302/302 305/305/305
f 305/305/305 302/302/302 306/306/306
f 306/306/306 296/296/296 295/295/295
f 302/302/302 296/296/296 306/306/306
f 305/305/305 306/306/306 307/307/307
f 307/307/307 306/306/306 308/308/308
f 306/306/306 295/295/295 308/308/308
f 307/307/307 308/308/308 309/309/309
f 309/309/309 308/308/308 310/310/310
f 309/309/309 310/310/310 311/311/311
f 311/311/311 310/310/310 312/312/312
f 312/312/312 313/313/313 311/311/311
f 314/314/314 313/313/313 312/312/312
f 314/314/314 315/315/315 313/313/313
f 316/316/316 315/315/315 314/314/314
f 317/317/317 303/303/303 304/304/304
f 315/315/315 316/316/316 318/318/318
f 318/318/318 316/316/316 319/319/319
f 319/319/319 320/320/320 318/318/318
f 321/321/321 320/320/320 319/319/319
f 321/321/321 322/322/322 320/320/320
f 320/320/320 322/322/322 323/323/323
f 320/320/320 323/323/323 324/324/324
f 324/324/324 323/323/323 325/325/325
f 320/320/320 326/326/326 318/318/318
f 324/324/324 326/326/326 320/320/320
f 326/326/326 315/315/315 318/318/318
f 327/327/327 315/315/315 326/326/326
f 315/315/315 327/327/327 313/313/313
f 313/313/313 327/327/327 328/328/328
f 313/313/313 328/328/328 311/311/311
f 311/311/311 328/328/328 329/329/329
f 329/329/329 309/309/309 311/311/311
f 330/330/330 309/309/309 329/329/329
f 330/330/330 307/307/307 309/309/309
f 331/331/331 307/307/307 330/330/330
f 331/331/331 305/305/305 307/307/307
f 332/332/332 305/305/305 331/331/331
f 332/332/332 304/304/304 305/305/305
f 333/333/333 304/304/304 332/332/332
f 333/333/333 317/317/317 304/304/304
f 334/334/334 317/317/317 333/333/333
f 334/334/334 335/335/335 317/317/317
f 317/317/317 335/335/335 336/336/336
f 335/335/335 337/337/337 336/336/336
f 337/337/337 338/338/338 336/336/336
f 336/336/336 338/338/338 339/339/339
f 340/340/340 337/337/337 335/335/335
f 338/338/338 341/341/341 339/339/339
f 339/339/339 341/341/341 342/342/342
f 343/343/343 339/339/339 342/342/342
f 344/344/344 339/339/339 343/343/343
f 344/344/344 336/336/336 339/339/339
f 341/341/341 345/345/345 342/342/342
f 342/342/342 345/345/345 346/346/346
f 345/345/345 347/347/347 346/346/346
f 348/348/348 347/347/347 345/345/345
f 349/349/349 348/348/348 345/345/345
f 350/350/350 348/348/348 349/349/349
f 351/351/351 350/350/350 349/349/349
f 352/352/352 351/351/351 349/349/349
f 345/345/345 352/352/352 349/349/349
f 341/341/341 352/352/352 345/345/345
f 353/353/353 351/351/351 352/352/352
f 354/354/354 350/350/350 351/351/351
f 355/355/355 354/354/354 351/351/351
f 351/351/351 353/353/353 355/355/355
f 356/356/356 354/354/354 355/355/355
f 357/357/357 353/353/353 352/352/352
f 358/358/358 353/353/353 357/357/357
f 359/359/359 358/358/358 357/357/357
f 360/360/360 358/358/358 359/359/359
f 361/361/361 360/360/360 359/359/359
f 362/362/362 360/360/360 361/361/361
f 341/341/341 357/357/357 352/352/352
f 338/338/338 357/357/357 341/341/341
f 338/338/338 359/359/359 357/357/357
f 337/337/337 359/359/359 338/338/338
f 337/337/337 361/361/361 359/359/359
f 340/340/340 361/361/361 337/337/337
f 363/363/363 362/362/362 361/361/361
f 364/364/364 362/362/362 363/363/363
f 365/365/365 364/364/364 363/363/363
f 366/366/366 364/364/364 365/365/365
f 101/101/101 366/366/366 365/365/365
f 367/367/367 365/365/365 363/363/363
f 361/361/361 367/367/367 363/363/363
f 340/340/340 367/367/367 361/361/361
f 368/368/368 365/365/365 367/367/367
f 368/368/368 101/101/101 365/365/365
f 368/368/368 367/367/367 369/369/369
f 101/101/101 368/368/368 369/369/369
f 369/369/369 367/367/367 370/370/370
f 367/367/367 340/340/340 370/370/370
f 371/371/371 369/369/369 370/370/370
f 372/372/372 369/369/369 371/371/371
f 372/372/372 101/101/101 369/369/369
f 372/372/372 371/371/371 373/373/373
f 373/373/373 371/371/371 374/374/374
f 373/373/373 374/374/374 375/375/375
f 101/101/101 373/373/373 375/375/375
f 375/375/375 374/374/374 376/376/376
f 375/375/375 376/376/376 377/377/377
f 101/101/101 375/375/375 377/377/377
f 377/377/377 376/376/376 378/378/378
f 377/377/377 378/378/378 379/379/379
f 101/101/101 377/377/377 379/379/379
f 379/379/379 378/378/378 380/380/380
f 379/379/379 380/380/380 381/381/381
f 101/101/101 379/379/379 381/381/381
f 381/381/381 380/380/380 382/382/382
f 382/382/382 383/383/383 381/381/381
f 384/384/384 383/383/383 382/382/382
f 384/384/384 385/385/385 383/383/383
f 386/386/386 385/385/385 384/384/384
f 385/385/385 101/101/101 383/383/383
f 383/383/383 101/101/101 381/381/381
f 387/387/387 372/372/372 373/373/373
f 385/385/385 386/386/386 388/388/388
f 101/101/101 385/385/385 388/388/388
f 388/388/388 386/386/386 389/389/389
f 390/390/390 388/388/388 389/389/389
f 391/391/391 388/388/388 390/390/390
f 391/391/391 101/101/101 388/388/388
f 390/390/390 392/392/392 391/391/391
f 391/391/391 392/392/392 393/393/393
f 393/393/393 101/101/101 391/391/391
f 386/386/386 327/327/327 389/389/389
f 389/389/389 327/327/327 326/326/326
f 326/326/326 390/390/390 389/389/389
f 324/324/324 390/390/390 326/326/326
f 390/390/390 325/325/325 392/392/392
f 324/324/324 325/325/325 390/390/390
f 325/325/325 156/156/156 392/392/392
f 154/154/154 156/156/156 325/325/325
f 323/323/323 154/154/154 325/325/325
f 152/152/152 154/154/154 323/323/323
f 322/322/322 152/152/152 323/323/323
f 150/150/150 152/152/152 322/322/322
f 394/394/394 150/150/150 322/322/322
f 321/321/321 394/394/394 322/322/322
f 301/301/301 394/394/394 321/321/321
f 301/301/301 321/321/321 298/298/298
f 298/298/298 321/321/321 319/319/319
f 319/319/319 293/293/293 298/298/298
f 316/316/316 293/293/293 319/319/319
f 293/293/293 316/316/316 291/291/291
f 291/291/291 316/316/316 314/314/314
f 291/291/291 314/314/314 289/289/289
f 289/289/289 314/314/314 312/312/312
f 312/312/312 287/287/287 289/289/289
f 310/310/310 287/287/287 312/312/312
f 310/310/310 286/286/286 287/287/287
f 308/308/308 286/286/286 310/310/310
f 308/308/308 295/295/295 286/286/286
f 301/301/301 395/395/395 394/394/394
f 300/300/300 395/395/395 301/301/301
f 300/300/300 396/396/396 395/395/395
f 300/300/300 397/397/397 396/396/396
f 398/398/398 397/397/397 300/300/300
f 398/398/398 300/300/300 399/399/399
f 399/399/399 400/400/400 398/398/398
f 400/400/400 397/397/397 398/398/398
f 399/399/399 401/401/401 400/400/400
f 401/401/401 402/402/402 400/400/400
f 402/402/402 401/401/401 403/403/403
f 403/403/403 401/401/401 404/404/404
f 403/403/403 404/404/404 405/405/405
f 405/405/405 404/404/404 406/406/406
f 407/407/407 405/405/405 406/406/406
f 408/408/408 405/405/405 407/407/407
f 408/408/408 407/407/407 409/409/409
f 409/409/409 407/407/407 410/410/410
f 400/400/400 402/402/402 411/411/411
f 411/411/411 412/412/412 400/400/400
f 400/400/400 412/412/412 413/413/413
f 414/414/414 401/401/401 399/399/399
f 401/401/401 414/414/414 404/404/404
f 299/299/299 414/414/414 399/399/399
f 294/294/294 414/414/414 299/299/299
f 414/414/414 294/294/294 415/415/415
f 404/404/404 414/414/414 415/415/415
f 404/404/404 415/415/415 406/406/406
f 415/415/415 294/294/294 292/292/292
f 415/415/415 292/292/292 416/416/416
f 406/406/406 415/415/415 416/416/416
f 416/416/416 407/407/407 406/406/406
f 416/416/416 292/292/292 290/290/290
f 290/290/290 417/417/417 416/416/416
f 417/417/417 407/407/407 416/416/416
f 407/407/407 417/417/417 410/410/410
f 288/288/288 417/417/417 290/290/290
f 288/288/288 285/285/285 417/417/417
f 285/285/285 418/418/418 417/417/417
f 418/418/418 419/419/419 417/417/417
f 410/410/410 417/417/417 419/419/419
f 280/280/280 418/418/418 285/285/285
f 411/411/411 420/420/420 412/412/412
f 411/411/411 421/421/421 420/420/420
f 421/421/421 422/422/422 420/420/420
f 420/420/420 422/422/422 423/423/423
f 423/423/423 422/422/422 424/424/424
f 425/425/425 424/424/424 422/422/422
f 421/421/421 425/425/425 422/422/422
f 426/426/426 424/424/424 425/425/425
f 427/427/427 426/426/426 425/425/425
f 428/428/428 427/427/427 425/425/425
f 428/428/428 425/425/425 421/421/421
f 429/429/429 427/427/427 428/428/428
f 427/427/427 429/429/429 430/430/430
f 430/430/430 429/429/429 431/431/431
f 431/431/431 432/432/432 430/430/430
f 433/433/433 432/432/432 431/431/431
f 434/434/434 426/426/426 427/427/427
f 430/430/430 434/434/434 427/427/427
f 432/432/432 434/434/434 430/430/430
f 412/412/412 420/420/420 423/423/423
f 402/402/402 421/421/421 411/411/411
f 402/402/402 428/428/428 421/421/421
f 403/403/403 428/428/428 402/402/402
f 403/403/403 429/429/429 428/428/428
f 405/405/405 429/429/429 403/403/403
f 405/405/405 408/408/408 429/429/429
f 429/429/429 408/408/408 431/431/431
f 408/408/408 433/433/433 431/431/431
f 409/409/409 433/433/433 408/408/408
f 435/435/435 284/284/284 283/283/283
f 436/436/436 284/284/284 435/435/435
f 437/437/437 436/436/436 435/435/435
f 438/438/438 436/436/436 437/437/437
f 439/439/439 436/436/436 438/438/438
f 440/440/440 439/439/439 438/438/438
f 437/437/437 440/440/440 438/438/438
f 441/441/441 439/439/439 440/440/440
f 437/437/437 435/435/435 442/442/442
f 442/442/442 440/440/440 437/437/437
f 442/442/442 435/435/435 443/443/443
f 435/435/435 342/342/342 443/443/443
f 443/443/443 342/342/342 444/444/444
f 444/444/444 442/442/442 443/443/443
f 444/444/444 342/342/342 346/346/346
f 346/346/346 445/445/445 444/444/444
f 347/347/347 445/445/445 346/346/346
f 343/343/343 342/342/342 435/435/435
f 283/283/283 343/343/343 435/435/435
f 297/297/297 343/343/343 283/283/283
f 297/297/297 344/344/344 343/343/343
f 303/303/303 344/344/344 297/297/297
f 303/303/303 336/336/336 344/344/344
f 317/317/317 336/336/336 303/303/303
f 444/444/444 445/445/445 446/446/446
f 446/446/446 442/442/442 444/444/444
f 446/446/446 447/447/447 442/442/442
f 446/446/446 445/445/445 447/447/447
f 445/445/445 448/448/448 447/447/447
f 448/448/448 441/441/441 447/447/447
f 447/447/447 441/441/441 440/440/440
f 442/442/442 447/447/447 440/440/440
f 395/395/395 148/148/148 394/394/394
f 148/148/148 395/395/395 449/449/449
f 449/449/449 146/146/146 148/148/148
f 450/450/450 146/146/146 449/449/449
f 450/450/450 451/451/451 146/146/146
f 146/146/146 451/451/451 144/144/144
f 144/144/144 451/451/451 145/145/145
f 145/145/145 451/451/451 452/452/452
f 452/452/452 119/119/119 145/145/145
f 453/453/453 119/119/119 452/452/452
f 453/453/453 117/117/117 119/119/119
f 454/454/454 117/117/117 453/453/453
f 117/117/117 454/454/454 115/115/115
f 115/115/115 454/454/454 455/455/455
f 455/455/455 112/112/112 115/115/115
f 456/456/456 112/112/112 455/455/455
f 456/456/456 114/114/114 112/112/112
f 457/457/457 114/114/114 456/456/456
f 457/457/457 458/458/458 114/114/114
f 458/458/458 459/459/459 114/114/114
f 114/114/114 459/459/459 276/276/276
f 459/459/459 274/274/274 276/276/276
f 278/278/278 274/274/274 459/459/459
f 114/114/114 276/276/276 113/113/113
f 113/113/113 276/276/276 275/275/275
f 113/113/113 275/275/275 122/122/122
f 122/122/122 275/275/275 141/141/141
f 141/141/141 181/181/181 140/140/140
f 181/181/181 175/175/175 140/140/140
f 140/140/140 175/175/175 134/134/134
f 175/175/175 173/173/173 134/134/134
f 134/134/134 173/173/173 135/135/135
f 399/399/399 300/300/300 299/299/299
f 462/462/462 461/461/461 460/460/460
f 463/463/463 461/461/461 462/462/462
f 461/461/461 464/464/464 460/460/460
f 465/465/465 464/464/464 461/461/461
f 460/460/460 355/355/355 462/462/462
f 462/462/462 355/355/355 466/466/466
f 467/467/467 465/465/465 461/461/461
f 461/461/461 463/463/463 467/467/467
f 468/468/468 465/465/465 467/467/467
f 467/467/467 463/463/463 469/469/469
f 463/463/463 470/470/470 469/469/469
f 469/469/469 470/470/470 471/471/471
f 470/470/470 472/472/472 471/471/471
f 472/472/472 470/470/470 473/473/473
f 473/473/473 470/470/470 474/474/474
f 474/474/474 463/463/463 462/462/462
f 470/470/470 463/463/463 474/474/474
f 462/462/462 466/466/466 474/474/474
f 474/474/474 475/475/475 473/473/473
f 474/474/474 466/466/466 475/475/475
f 473/473/473 475/475/475 476/476/476
f 471/471/471 472/472/472 477/477/477
f 473/473/473 476/476/476 478/478/478
f 478/478/478 472/472/472 473/473/473
f 478/478/478 476/476/476 479/479/479
f 480/480/480 472/472/472 478/478/478
f 472/472/472 480/480/480 477/477/477
f 477/477/477 480/480/480 481/481/481
f 480/480/480 482/482/482 481/481/481
f 481/481/481 482/482/482 483/483/483
f 482/482/482 484/484/484 483/483/483
f 484/484/484 482/482/482 485/485/485
f 485/485/485 482/482/482 486/486/486
f 486/486/486 480/480/480 478/478/478
f 482/482/482 480/480/480 486/486/486
f 478/478/478 479/479/479 486/486/486
f 486/486/486 487/487/487 485/485/485
f 486/486/486 479/479/479 487/487/487
f 485/485/485 487/487/487 488/488/488
f 483/483/483 484/484/484 489/489/489
f 488/488/488 101/101/101 485/485/485
f 101/101/101 484/484/484 485/485/485
f 484/484/484 101/101/101 489/489/489
f 476/476/476 362/362/362 479/479/479
f 360/360/360 362/362/362 476/476/476
f 487/487/487 366/366/366 488/488/488
f 366/366/366 101/101/101 488/488/488
f 364/364/364 366/366/366 487/487/487
f 479/479/479 364/364/364 487/487/487
f 362/362/362 364/364/364 479/479/479
f 475/475/475 360/360/360 476/476/476
f 358/358/358 360/360/360 475/475/475
f 466/466/466 358/358/358 475/475/475
f 353/353/353 358/358/358 466/466/466
f 355/355/355 353/353/353 466/466/466
f 460/460/460 356/356/356 355/355/355
f 464/464/464 356/356/356 460/460/460
f 216/216/216 101/101/101 490/490/490
f 215/215/215 216/216/216 490/490/490
f 215/215/215 490/490/490 491/491/491
f 491/491/491 490/490/490 492/492/492
f 490/490/490 101/101/101 492/492/492
f 492/492/492 493/493/493 491/491/491
f 494/494/494 493/493/493 492/492/492
f 492/492/492 101/101/101 494/494/494
f 494/494/494 172/172/172 493/493/493
f 495/495/495 172/172/172 494/494/494
f 494/494/494 101/101/101 495/495/495
f 172/172/172 174/174/174 493/493/493
f 493/493/493 177/177/177 491/491/491
f 174/174/174 177/177/177 493/493/493
f 177/177/177 215/215/215 491/491/491
f 179/179/179 215/215/215 177/177/177
f 172/172/172 495/495/495 169/169/169
f 169/169/169 495/495/495 170/170/170
f 495/495/495 101/101/101 170/170/170
f 217/217/217 496/496/496 216/216/216
f 219/219/219 101/101/101 217/217/217
f 221/221/221 101/101/101 219/219/219
f 171/171/171 101/101/101 159/159/159
f 157/157/157 171/171/171 159/159/159
f 160/160/160 171/171/171 157/157/157
f 499/499/499 498/498/498 497/497/497
f 502/502/502 501/501/501 500/500/500
f 15/15/15 63/63/63 3/3/3
f 63/63/63 4/4/4 3/3/3
f 64/64/64 4/4/4 63/63/63
f 413/413/413 397/397/397 400/400/400
f 395/395/395 396/396/396 503/503/503
f 449/449/449 395/395/395 503/503/503
f 370/370/370 340/340/340 335/335/335
f 335/335/335 371/371/371 370/370/370
f 334/334/334 371/371/371 335/335/335
f 371/371/371 334/334/334 374/374/374
f 374/374/374 334/334/334 333/333/333
f 374/374/374 333/333/333 376/376/376
f 376/376/376 333/333/333 332/332/332
f 376/376/376 332/332/332 378/378/378
f 378/378/378 332/332/332 331/331/331
f 378/378/378 331/331/331 380/380/380
f 380/380/380 331/331/331 330/330/330
f 380/380/380 330/330/330 382/382/382
f 382/382/382 330/330/330 329/329/329
f 329/329/329 384/384/384 382/382/382
f 328/328/328 384/384/384 329/329/329
f 328/328/328 386/386/386 384/384/384
f 327/327/327 386/386/386 328/328/328
f 394/394/394 148/148/148 149/149/149
f 149/149/149 150/150/150 394/394/394
f 392/392/392 158/158/158 393/393/393
f 156/156/156 158/158/158 392/392/392
f 158/158/158 101/101/101 393/393/393
f 235/235/235 72/72/72 75/75/75
f 74/74/74 72/72/72 235/235/235
f 236/236/236 74/74/74 235/235/235
f 239/239/239 74/74/74 236/236/236
f 239/239/239 73/73/73 74/74/74
f 241/241/241 73/73/73 239/239/239
