g BRM_Rag_Hammer
v 330.3884 131.3922 -934.6666
v 284.4257 110.9131 -981.0424
v 340.6085 140.7137 -949.6677
v 276.3109 103.0836 -970.8467
v 326.1925 126.0474 -921.5392
v 293.0209 80.30101 -951.5884
v 319.9818 89.96073 -922.1893
v 314.6583 140.0828 -1019.027
v 354.9348 153.7801 -970.6952
v 363.3517 168.7374 -970.7959
v 311.2216 150.3123 -1032.371
v 364.4944 169.7753 -972.8716
v 312.0775 152.6582 -1034.064
v 364.4944 169.7753 -972.8716
v 312.0775 152.6582 -1034.064
v 367.2726 159.3253 -989.3046
v 324.0674 144.8275 -1037.017
v 367.2726 159.3253 -989.3046
v 324.0674 144.8275 -1037.017
v 376.1146 156.2503 -1019.102
v 346.9841 138.2506 -1052.4
v 399.2136 117.0177 -1030.492
v 367.2726 159.3253 -989.3046
v 376.1146 156.2503 -1019.102
v 402.6473 94.30901 -1005.422
v 364.4944 169.7753 -972.8716
v 413.9937 78.31151 -997.4354
v 376.1146 156.2503 -1019.102
v 346.9841 138.2506 -1052.4
v 399.2136 117.0177 -1030.492
v 399.2136 117.0177 -1030.492
v 346.9841 138.2506 -1052.4
v 368.9549 104.5066 -1058.073
v 402.6473 94.30901 -1005.422
v 367.2726 159.3253 -989.3046
v 399.2136 117.0177 -1030.492
v 413.9937 78.31151 -997.4354
v 363.3517 168.7374 -970.7959
v 364.4944 169.7753 -972.8716
v 413.3807 77.77239 -996.43
v 379.8808 111.4145 -982.0375
v 354.9348 153.7801 -970.6952
v 349.8509 122.1122 -954.9579
v 396.2583 83.60049 -989.484
v 375.8453 73.00593 -965.594
v 378.0585 110.0399 -978.2736
v 349.1895 98.12104 -944.9797
v 330.3884 131.3922 -934.6666
v 326.1925 126.0474 -921.5392
v 366.208 68.0041 -954.3152
v 360.9576 64.98181 -942.3091
v 319.9818 89.96073 -922.1893
v 349.8509 122.1122 -954.9579
v 340.6085 140.7137 -949.6677
v 354.9348 153.7801 -970.6952
v 413.9937 78.31151 -997.4354
v 402.6473 94.30901 -1005.422
v 406.8799 76.57782 -1008.668
v 402.6473 94.30901 -1005.422
v 393.8074 71.57523 -1022.165
v 393.8074 71.57523 -1022.165
v 402.6473 94.30901 -1005.422
v 388.4617 90.05381 -1024.682
v 378.0585 110.0399 -978.2736
v 379.8808 111.4145 -982.0375
v 375.8453 73.00593 -965.594
v 349.8509 122.1122 -954.9579
v 378.0585 110.0399 -978.2736
v 388.0045 104.5972 -933.8662
v 390.7756 103.5631 -936.1827
v 390.4359 102.8787 -933.0148
v 388.0045 104.5972 -933.8662
v 390.7756 103.5631 -936.1827
v 390.4359 102.8787 -933.0148
v 387.8297 102.3468 -932.7851
v 388.0045 104.5972 -933.8662
v 387.8297 102.3468 -932.7851
v 349.8509 122.1122 -954.9579
v 388.0045 104.5972 -933.8662
v 349.1895 98.12104 -944.9797
v 390.7756 103.5631 -936.1827
v 390.5498 99.78406 -934.8887
v 390.4359 102.8787 -933.0148
v 333.2563 59.34788 -934.0995
v 319.9818 89.96073 -922.1893
v 360.9576 64.98181 -942.3091
v 378.0585 110.0399 -978.2736
v 375.8453 73.00593 -965.594
v 390.7756 103.5631 -936.1827
v 390.5498 99.78406 -934.8887
v 375.8453 73.00593 -965.594
v 366.208 68.0041 -954.3152
v 390.5498 99.78406 -934.8887
v 389.5663 99.27355 -933.7377
v 390.4359 102.8787 -933.0148
v 366.208 68.0041 -954.3152
v 349.1895 98.12104 -944.9797
v 389.5663 99.27355 -933.7377
v 387.8297 102.3468 -932.7851
v 390.4359 102.8787 -933.0148
v 389.5663 99.27355 -933.7377
v 387.8297 102.3468 -932.7851
v 357.1553 157.5868 -1014.966
v 333.4704 153.2429 -1017.943
v 347.7292 207.5136 -1043.463
v 345.703 208.7981 -1044.47
v 347.2249 210.5753 -1045.985
v 348.7787 207.1137 -1044.151
v 357.1553 157.5868 -1014.966
v 347.7292 207.5136 -1043.463
v 347.2249 210.5753 -1045.985
v 360.5834 153.9899 -1018.772
v 357.1553 157.5868 -1014.966
v 348.7787 207.1137 -1044.151
v 358.5505 146.2514 -1040.257
v 348.9012 206.1625 -1046.859
v 347.2249 210.5753 -1045.985
v 357.7086 141.8983 -1042.653
v 352.6692 113.8467 -1064.547
v 405.5394 187.003 -1076.503
v 397.3938 129.1101 -1043.066
v 357.7086 141.8983 -1042.653
v 405.5394 187.003 -1076.503
v 393.7639 127.9724 -1036.436
v 385.524 122.4158 -1035.536
v 377.7097 105.04 -1035.494
v 362.7977 74.9478 -1047.775
v 409.6848 69.48515 -1065.506
v 408.8571 66.55795 -1066.895
v 396.0497 84.5555 -1022.143
v 377.7097 105.04 -1035.494
v 411.2593 67.72505 -1063.852
v 409.6848 69.48515 -1065.506
v 307.7106 90.62659 -969.8487
v 323.3512 58.32354 -944.4547
v 274.6789 61.70622 -931.7115
v 276.5134 60.23747 -930.6025
v 274.323 60.24853 -934.0074
v 307.7106 90.62659 -969.8487
v 274.6789 61.70622 -931.7115
v 288.2794 61.34659 -982.2307
v 276.0139 217.6236 -966.0426
v 277.8911 217.8571 -962.1983
v 226.0136 294.1519 -946.6995
v 228.495 294.4007 -941.382
v 223.6248 293.7981 -951.3689
v 273.2677 216.6504 -969.1837
v 221.0681 293.0391 -954.8717
v 269.9212 215.0328 -971.3145
v 216.5525 290.4145 -956.0089
v 266.3018 212.9291 -972.2259
v 278.7152 217.328 -958.0273
v 279.6539 215.6321 -976.064
v 283.9157 217.1423 -971.1894
v 286.8286 217.5049 -965.2236
v 288.1078 216.6839 -958.7508
v 295.6278 213.9237 -959.8105
v 294.058 214.9313 -967.7548
v 299.0999 209.1227 -961.0549
v 298.5036 206.7328 -953.1717
v 295.0385 211.5624 -952.0214
v 287.6276 214.7601 -952.4045
v 278.7152 217.328 -958.0273
v 278.4058 216.0883 -953.938
v 295.7803 203.2068 -946.2173
v 292.3478 208.0785 -945.15
v 285.4353 211.9216 -946.806
v 278.4058 216.0883 -953.938
v 276.9932 214.2592 -950.3305
v 281.7455 208.4461 -942.5032
v 274.6155 212.0198 -947.5578
v 229.8916 292.0741 -928.6908
v 231.6541 294.3562 -933.1918
v 278.4058 216.0883 -953.938
v 226.3282 289.3459 -927.0049
v 271.5056 209.5892 -945.8917
v 221.4737 285.8171 -925.4471
v 276.9192 204.6741 -939.9174
v 291.1968 198.8898 -940.8727
v 287.819 203.813 -939.8691
v 285.2019 194.2043 -937.6608
v 281.8955 199.1834 -936.6954
v 278.3821 189.6091 -936.8959
v 275.1571 194.6429 -935.9396
v 289.0247 187.3267 -941.3925
v 294.5488 191.6441 -944.3521
v 298.772 195.6218 -949.277
v 301.2813 198.8708 -955.6849
v 301.8308 201.0728 -962.9487
v 297.5111 210.1423 -969.0952
v 290.4828 214.4866 -975.077
v 293.8927 209.6922 -976.5056
v 285.252 212.6329 -981.06
v 288.5988 207.8161 -982.5609
v 278.8777 209.5517 -985.1182
v 282.1476 204.6979 -986.6681
v 300.3669 202.0125 -970.3573
v 297.0327 201.5976 -977.1856
v 292.1547 199.869 -982.765
v 286.2103 196.9957 -986.5496
v 307.8716 185.5334 -973.494
v 304.9096 185.1649 -979.5601
v 300.5761 183.6291 -984.5167
v 295.2952 181.0766 -987.8788
v 279.7816 193.259 -988.1686
v 289.5839 177.7569 -989.3172
v 309.1721 184.6986 -966.9122
v 308.6839 182.7423 -960.4592
v 306.4547 179.856 -954.7666
v 302.7029 176.3221 -950.3914
v 297.7953 172.4868 -947.7621
v 330.6879 145.2974 -982.6666
v 319.701 141.4038 -995.2335
v 324.3143 143.6338 -992.2963
v 314.7114 138.5038 -996.4902
v 323.0621 140.3679 -1000.075
v 329.2393 143.4194 -996.4008
v 324.3143 143.6338 -992.2963
v 334.2962 145.3106 -991.0062
v 316.369 136.4545 -1001.67
v 321.8851 133.8996 -960.1868
v 309.8344 135.2176 -995.9434
v 309.8152 132.0621 -1001.028
v 305.5471 131.8668 -993.6462
v 304.0422 127.621 -998.2131
v 328.1002 144.9754 -987.966
v 337.7376 145.856 -984.4194
v 328.1002 144.9754 -987.966
v 330.6879 145.2974 -982.6666
v 324.3143 143.6338 -992.2963
v 339.2265 145.0022 -977.2852
v 331.8241 144.5681 -976.9166
v 338.6173 142.8331 -970.3018
v 331.3976 142.859 -971.2792
v 335.9698 139.5608 -964.1529
v 329.4502 140.3376 -966.3061
v 331.5429 135.5056 -959.4404
v 329.4502 140.3376 -966.3061
v 326.1723 137.2503 -962.4838
v 331.8241 144.5681 -976.9166
v 331.3976 142.859 -971.2792
v 329.4502 140.3376 -966.3061
v 329.4502 140.3376 -966.3061
v 326.1723 137.2503 -962.4838
v 326.1723 137.2503 -962.4838
v 326.1723 137.2503 -962.4838
v 325.77 131.0645 -956.6256
v 331.5429 135.5056 -959.4404
v 319.2162 126.6722 -955.9841
v 317.0081 130.6134 -959.6399
v 312.5231 122.7587 -957.5786
v 312.0186 127.7134 -960.8967
v 306.3458 119.7071 -961.2529
v 307.4052 125.4834 -963.8337
v 301.2889 117.816 -966.6475
v 292.2128 168.7251 -947.136
v 303.6193 124.1418 -968.164
v 307.4052 125.4834 -963.8337
v 297.8476 117.2707 -973.2344
v 301.0316 123.8198 -973.4633
v 296.3586 118.1244 -980.3686
v 299.8954 124.549 -979.2133
v 296.9678 120.2935 -987.3517
v 300.3219 126.2581 -984.8508
v 299.6154 123.5658 -993.5009
v 302.2693 128.7797 -989.824
v 302.2693 128.7797 -989.824
v 305.5471 131.8668 -993.6462
v 278.7152 217.328 -958.0273
v 230.6933 294.7769 -937.2841
v 278.4058 216.0883 -953.938
v 262.764 210.5452 -971.8291
v 266.3018 212.9291 -972.2259
v 212.1385 287.4403 -955.5139
v 216.5525 290.4145 -956.0089
v 208.2583 284.4077 -953.4351
v 259.6541 208.1147 -970.163
v 205.2917 281.6136 -949.9758
v 257.2764 205.8752 -967.3904
v 203.5293 279.3315 -945.4749
v 255.8637 204.0461 -963.7828
v 203.1433 277.7847 -940.3726
v 255.5544 202.8063 -959.6933
v 204.1716 277.1248 -935.1686
v 256.3786 202.2774 -955.5226
v 206.5135 277.4161 -930.3723
v 258.2556 202.5109 -951.6783
v 209.9399 278.6304 -926.4534
v 261.0019 203.4841 -948.5371
v 214.1153 280.6486 -923.7951
v 264.3485 205.1017 -946.4064
v 267.9678 207.2054 -945.4949
v 264.3485 205.1017 -946.4064
v 218.005 283.2426 -924.1254
v 218.005 283.2426 -924.1254
v 264.3485 205.1017 -946.4064
v 214.1153 280.6486 -923.7951
v 267.9678 207.2054 -945.4949
v 218.005 283.2426 -924.1254
v 271.4289 200.9747 -939.3018
v 265.8122 197.7101 -940.7163
v 268.2634 190.6361 -937.6758
v 261.8891 187.555 -941.7341
v 260.6187 195.1997 -944.0229
v 264.3485 205.1017 -946.4064
v 261.0019 203.4841 -948.5371
v 256.3568 193.6893 -948.8976
v 258.2556 202.5109 -951.6783
v 253.4438 193.3269 -954.8632
v 256.3786 202.2774 -955.5226
v 252.1647 194.1479 -961.336
v 255.5544 202.8063 -959.6933
v 252.6449 196.0717 -967.6824
v 255.8637 204.0461 -963.7828
v 254.8373 198.9104 -973.2809
v 257.2764 205.8752 -967.3904
v 258.527 202.3858 -977.5837
v 259.6541 208.1147 -970.163
v 263.3533 206.1578 -980.1694
v 262.764 210.5452 -971.8291
v 268.8436 209.8571 -980.7852
v 271.9839 205.5449 -986.8545
v 275.1706 200.6426 -988.4253
v 274.4603 213.1219 -979.3705
v 259.322 196.3748 -982.925
v 254.7932 192.1093 -977.6439
v 265.2455 201.0044 -986.0988
v 264.3485 205.1017 -946.4064
v 268.3508 196.0473 -987.6605
v 275.1706 200.6426 -988.4253
v 265.2455 201.0044 -986.0988
v 271.9839 205.5449 -986.8545
v 259.322 196.3748 -982.925
v 262.3558 191.3619 -984.4485
v 254.7932 192.1093 -977.6439
v 257.7723 187.0448 -979.1037
v 252.1024 188.6253 -970.7726
v 255.0491 183.5188 -972.1494
v 251.5131 186.264 -962.9835
v 254.4528 181.1291 -964.2664
v 253.0831 185.2565 -955.0392
v 256.0415 180.1093 -956.226
v 256.6584 185.7013 -947.717
v 259.6599 180.5595 -948.8156
v 261.8891 187.555 -941.7341
v 264.954 182.4356 -942.7603
v 268.2634 190.6361 -937.6758
v 271.4051 185.5538 -938.6531
v 275.1571 194.6429 -935.9396
v 278.3821 189.6091 -936.8959
v 263.7503 180.7297 -979.5794
v 267.9737 184.7076 -984.5043
v 273.4976 189.0248 -987.4638
v 279.7816 193.259 -988.1686
v 265.4897 174.7539 -951.671
v 262.1555 174.3391 -958.4992
v 260.6914 175.2787 -965.9077
v 261.241 177.4807 -973.1715
v 284.0013 173.9954 -988.6912
v 289.5839 177.7569 -989.3172
v 273.1128 163.7398 -975.9941
v 275.342 166.6261 -981.6868
v 279.0939 170.16 -986.0619
v 272.6246 161.7835 -969.5411
v 273.9251 160.9488 -962.9595
v 314.7114 138.5038 -996.4902
v 309.8344 135.2176 -995.9434
v 305.5471 131.8668 -993.6462
v 305.5471 131.8668 -993.6462
v 302.2693 128.7797 -989.824
v 302.2693 128.7797 -989.824
v 300.3219 126.2581 -984.8508
v 299.8954 124.549 -979.2133
v 301.0316 123.8198 -973.4633
v 276.8871 161.3173 -956.8934
v 270.3676 176.4826 -946.0916
v 276.312 179.3558 -942.3069
v 282.7408 183.0924 -940.6877
v 281.2207 162.853 -951.9366
v 286.5016 165.4056 -948.5745
v 292.2128 168.7251 -947.136
v 289.0247 187.3267 -941.3925
v 285.2019 194.2043 -937.6608
v 297.7953 172.4868 -947.7621
v 303.6193 124.1418 -968.164
v 307.4052 125.4834 -963.8337
v 312.0186 127.7134 -960.8967
v 317.0081 130.6134 -959.6399
v 286.2103 196.9957 -986.5496
v 282.1476 204.6979 -986.6681
v 260.6187 195.1997 -944.0229
v 256.3568 193.6893 -948.8976
v 253.4438 193.3269 -954.8632
v 252.1647 194.1479 -961.336
v 252.6449 196.0717 -967.6824
v 254.8373 198.9104 -973.2809
v 218.7623 310.7854 -963.1289
v 225.9741 288.7099 -956.812
v 233.5844 314.3056 -923.6522
v 237.9905 290.1123 -931.8395
v 215.6989 313.934 -960.8979
v 212.8168 324.8949 -937.8662
v 200.8186 339.9292 -919.7737
v 193.0945 337.4763 -944.9949
v 192.0705 338.2178 -943.6885
v 188.7276 347.6091 -945.6324
v 201.5757 347.8383 -914.5308
v 187.5722 354.798 -947.7012
v 201.8784 350.9988 -912.4358
v 137.5531 413.2646 -910.0878
v 139.7004 412.5978 -904.0645
v 134.8922 412.885 -906.5371
v 135.9326 412.6786 -904.6847
v 212.8168 324.8949 -937.8662
v 209.0753 359.4779 -977.4777
v 135.9326 412.6786 -904.6847
v 134.0336 412.3217 -905.2336
v 209.0753 359.4779 -977.4777
v 206.0317 358.9768 -974.1982
v 233.5844 314.3056 -923.6522
v 237.9905 290.1123 -931.8395
v 204.9969 282.3382 -914.0832
v 214.6608 272.5826 -922.1066
v 207.3494 300.9176 -914.8837
v 200.8186 339.9292 -919.7737
v 185.4962 314.1896 -909.4481
v 180.3022 324.0931 -909.5623
v 179.7599 275.0469 -887.1224
v 186.9444 275.0816 -888.8508
v 180.7967 266.5075 -886.691
v 184.7803 262.601 -887.9273
v 215.6989 313.934 -960.8979
v 212.8168 324.8949 -937.8662
v 210.2969 354.5934 -977.3047
v 209.0753 359.4779 -977.4777
v 201.8784 350.9988 -912.4358
v 180.864 333.0645 -901.403
v 139.7004 412.5978 -904.0645
v 136.2538 403.7318 -901.8622
v 134.4222 410.3659 -904.2069
v 135.9326 412.6786 -904.6847
v 134.0336 412.3217 -905.2336
v 200.8186 339.9292 -919.7737
v 180.3022 324.0931 -909.5623
v 201.5757 347.8383 -914.5308
v 180.7036 330.503 -903.7324
v 201.8784 350.9988 -912.4358
v 180.864 333.0645 -901.403
vt 0.576292 0.311059
vt 0.494639 0.226485
vt 0.592697 0.27837
vt 0.482273 0.249087
vt 0.570228 0.338612
vt 0.524752 0.293867
vt 0.572968 0.347947
vt 0.541454 0.140923
vt 0.615919 0.232098
vt 0.626787 0.22665
vt 0.530167 0.110355
vt 0.62867 0.22211
vt 0.530845 0.106034
vt 0.62867 0.22211
vt 0.530845 0.106034
vt 0.638379 0.192917
vt 0.558114 0.103309
vt 0.638379 0.192917
vt 0.558114 0.103309
vt 0.657257 0.134486
vt 0.606348 0.075449
vt 0.717455 0.127211
vt 0.638379 0.192917
vt 0.657257 0.134486
vt 0.732043 0.184724
vt 0.62867 0.22211
vt 0.759405 0.205878
vt 0.657257 0.134486
vt 0.606348 0.075449
vt 0.717455 0.127211
vt 0.717455 0.127211
vt 0.606348 0.075449
vt 0.662693 0.078139
vt 0.732043 0.184724
vt 0.638379 0.192917
vt 0.717455 0.127211
vt 0.759405 0.205878
vt 0.626787 0.22665
vt 0.62867 0.22211
vt 0.758397 0.208008
vt 0.681525 0.224361
vt 0.615919 0.232098
vt 0.618453 0.273974
vt 0.723312 0.219433
vt 0.687578 0.269124
vt 0.678457 0.232209
vt 0.626545 0.301155
vt 0.576292 0.311059
vt 0.570228 0.338612
vt 0.670818 0.29243
vt 0.661826 0.31644
vt 0.572968 0.347947
vt 0.618453 0.273974
vt 0.592697 0.27837
vt 0.615919 0.232098
vt 0.759405 0.205878
vt 0.732043 0.184724
vt 0.746235 0.184789
vt 0.732043 0.184724
vt 0.722706 0.16056
vt 0.722706 0.16056
vt 0.732043 0.184724
vt 0.705942 0.148843
vt 0.678457 0.232209
vt 0.681525 0.224361
vt 0.687578 0.269124
vt 0.618453 0.273974
vt 0.678457 0.232209
vt 0.699891 0.320858
vt 0.705674 0.316646
vt 0.705253 0.323042
vt 0.699891 0.320858
vt 0.705674 0.316646
vt 0.705253 0.323042
vt 0.700352 0.323651
vt 0.699891 0.320858
vt 0.700352 0.323651
vt 0.618453 0.273974
vt 0.699891 0.320858
vt 0.626545 0.301155
vt 0.705674 0.316646
vt 0.706571 0.32032
vt 0.705253 0.323042
vt 0.610779 0.333866
vt 0.572968 0.347947
vt 0.661826 0.31644
vt 0.678457 0.232209
vt 0.687578 0.269124
vt 0.705674 0.316646
vt 0.706571 0.32032
vt 0.687578 0.269124
vt 0.670818 0.29243
vt 0.706571 0.32032
vt 0.704834 0.322719
vt 0.705253 0.323042
vt 0.670818 0.29243
vt 0.626545 0.301155
vt 0.704834 0.322719
vt 0.700352 0.323651
vt 0.705253 0.323042
vt 0.704834 0.322719
vt 0.700352 0.323651
vt 0.618828 0.142235
vt 0.57329 0.137977
vt 0.579084 0.064139
vt 0.574389 0.061524
vt 0.576739 0.05765
vt 0.5814 0.062906
vt 0.618828 0.142235
vt 0.579084 0.064139
vt 0.576739 0.05765
vt 0.627113 0.136031
vt 0.618828 0.142235
vt 0.5814 0.062906
vt 0.626128 0.096287
vt 0.582056 0.057785
vt 0.576739 0.05765
vt 0.626176 0.093296
vt 0.627238 0.061618
vt 0.705759 0.004627
vt 0.709587 0.097658
vt 0.626176 0.093296
vt 0.705759 0.004627
vt 0.702826 0.111204
vt 0.688591 0.115177
vt 0.679608 0.122059
vt 0.661702 0.109897
vt 0.753993 0.077874
vt 0.753363 0.076374
vt 0.722579 0.155818
vt 0.679608 0.122059
vt 0.757601 0.08176
vt 0.753993 0.077874
vt 0.548855 0.25516
vt 0.592194 0.31432
vt 0.497443 0.33776
vt 0.501602 0.340314
vt 0.497396 0.33378
vt 0.548855 0.25516
vt 0.497443 0.33776
vt 0.523698 0.240924
vt 0.427441 0.218766
vt 0.43118 0.226578
vt 0.281601 0.231022
vt 0.286735 0.242242
vt 0.276727 0.221222
vt 0.422287 0.212672
vt 0.271736 0.214061
vt 0.41623 0.208894
vt 0.263689 0.212641
vt 0.409868 0.207801
vt 0.433136 0.235334
vt 0.435901 0.198927
vt 0.443907 0.208373
vt 0.449712 0.220492
vt 0.452738 0.234079
vt 0.469499 0.232891
vt 0.465796 0.216234
vt 0.478895 0.232059
vt 0.478805 0.249024
vt 0.46942 0.24969
vt 0.452688 0.247784
vt 0.433136 0.235334
vt 0.433114 0.24417
vt 0.474912 0.264445
vt 0.46558 0.264959
vt 0.449575 0.260249
vt 0.433114 0.24417
vt 0.431122 0.252213
vt 0.443717 0.270247
vt 0.42736 0.258674
vt 0.291055 0.270065
vt 0.293482 0.259683
vt 0.433114 0.24417
vt 0.285069 0.274606
vt 0.422202 0.262923
vt 0.276829 0.279142
vt 0.435702 0.276807
vt 0.467617 0.276803
vt 0.458374 0.277195
vt 0.457658 0.2849
vt 0.448531 0.285213
vt 0.446024 0.28797
vt 0.437028 0.288253
vt 0.468691 0.279609
vt 0.47786 0.272162
vt 0.484577 0.260805
vt 0.488166 0.246641
vt 0.488257 0.231062
vt 0.47516 0.215235
vt 0.458677 0.201378
vt 0.467968 0.200233
vt 0.448853 0.189806
vt 0.458039 0.188547
vt 0.437307 0.18266
vt 0.446367 0.181333
vt 0.484832 0.215617
vt 0.478228 0.201843
vt 0.469103 0.191113
vt 0.458371 0.184484
vt 0.507698 0.215211
vt 0.50187 0.203064
vt 0.493806 0.193599
vt 0.48431 0.187749
vt 0.447099 0.182599
vt 0.474328 0.186081
vt 0.51071 0.228833
vt 0.51061 0.242575
vt 0.507415 0.255076
vt 0.501453 0.265106
vt 0.493321 0.27169
vt 0.571083 0.211231
vt 0.550897 0.187661
vt 0.559112 0.192683
vt 0.54224 0.186229
vt 0.558011 0.17843
vt 0.568992 0.184603
vt 0.559112 0.192683
vt 0.578255 0.194638
vt 0.546407 0.176715
vt 0.55842 0.259767
vt 0.533996 0.188513
vt 0.535326 0.179606
vt 0.52697 0.194276
vt 0.525849 0.186794
vt 0.566072 0.200806
vt 0.584875 0.207545
vt 0.566072 0.200806
vt 0.571083 0.211231
vt 0.559112 0.192683
vt 0.588189 0.22204
vt 0.573648 0.222925
vt 0.587872 0.236678
vt 0.573515 0.234726
vt 0.583965 0.250005
vt 0.570703 0.245468
vt 0.576869 0.260709
vt 0.570703 0.245468
vt 0.565498 0.254094
vt 0.573648 0.222925
vt 0.573515 0.234726
vt 0.570703 0.245468
vt 0.570703 0.245468
vt 0.565498 0.254094
vt 0.565498 0.254094
vt 0.565498 0.254094
vt 0.567298 0.267751
vt 0.576869 0.260709
vt 0.556203 0.270462
vt 0.550169 0.261942
vt 0.54467 0.268602
vt 0.541554 0.260423
vt 0.53382 0.262373
vt 0.533412 0.255371
vt 0.524695 0.252394
vt 0.483826 0.274203
vt 0.52653 0.247284
vt 0.533412 0.255371
vt 0.518169 0.239632
vt 0.521571 0.236949
vt 0.514868 0.225317
vt 0.519012 0.225365
vt 0.515114 0.210825
vt 0.519103 0.21365
vt 0.518891 0.197553
vt 0.521842 0.202939
vt 0.521842 0.202939
vt 0.52697 0.194276
vt 0.433136 0.235334
vt 0.291194 0.250824
vt 0.433114 0.24417
vt 0.403827 0.209491
vt 0.409868 0.207801
vt 0.256085 0.214818
vt 0.263689 0.212641
vt 0.249666 0.220365
vt 0.398698 0.213791
vt 0.245056 0.228728
vt 0.394979 0.220273
vt 0.242694 0.239082
vt 0.393027 0.228299
vt 0.242803 0.250418
vt 0.393028 0.237086
vt 0.245368 0.261638
vt 0.394979 0.245781
vt 0.250137 0.271659
vt 0.39869 0.253541
vt 0.256652 0.27951
vt 0.4038 0.259615
vt 0.264284 0.284429
vt 0.409817 0.26341
vt 0.416157 0.264552
vt 0.409817 0.26341
vt 0.270989 0.282835
vt 0.270989 0.282835
vt 0.409817 0.26341
vt 0.264284 0.284429
vt 0.416157 0.264552
vt 0.270989 0.282835
vt 0.426324 0.279305
vt 0.416504 0.277516
vt 0.424993 0.286049
vt 0.413594 0.278841
vt 0.407193 0.271633
vt 0.409817 0.26341
vt 0.4038 0.259615
vt 0.399291 0.262237
vt 0.39869 0.253541
vt 0.393556 0.25024
vt 0.394979 0.245781
vt 0.390539 0.2368
vt 0.393028 0.237086
vt 0.390535 0.223211
vt 0.393027 0.228299
vt 0.393552 0.210788
vt 0.394979 0.220273
vt 0.399307 0.20074
vt 0.398698 0.213791
vt 0.407252 0.194058
vt 0.403827 0.209491
vt 0.41662 0.191413
vt 0.425192 0.180631
vt 0.434116 0.179286
vt 0.426494 0.193085
vt 0.403965 0.192092
vt 0.396914 0.204403
vt 0.413704 0.183891
vt 0.409817 0.26341
vt 0.422496 0.182581
vt 0.434116 0.179286
vt 0.413704 0.183891
vt 0.425192 0.180631
vt 0.403965 0.192092
vt 0.412643 0.190865
vt 0.396914 0.204403
vt 0.405507 0.203299
vt 0.393219 0.21961
vt 0.401762 0.218657
vt 0.393221 0.236234
vt 0.401755 0.235443
vt 0.396909 0.252671
vt 0.405475 0.252042
vt 0.403924 0.267344
vt 0.41256 0.266857
vt 0.413594 0.278841
vt 0.422332 0.278467
vt 0.424993 0.286049
vt 0.433855 0.285745
vt 0.437028 0.288253
vt 0.446024 0.28797
vt 0.42074 0.204646
vt 0.427323 0.193224
vt 0.436402 0.18562
vt 0.447099 0.182599
vt 0.427182 0.263056
vt 0.420668 0.24944
vt 0.417255 0.234185
vt 0.417276 0.218757
vt 0.464842 0.188741
vt 0.474328 0.186081
vt 0.447826 0.217987
vt 0.450922 0.205528
vt 0.456781 0.195448
vt 0.447781 0.231612
vt 0.450783 0.245086
vt 0.54224 0.186229
vt 0.533996 0.188513
vt 0.52697 0.194276
vt 0.52697 0.194276
vt 0.521842 0.202939
vt 0.521842 0.202939
vt 0.519103 0.21365
vt 0.519012 0.225365
vt 0.521571 0.236949
vt 0.456541 0.25711
vt 0.436173 0.273723
vt 0.44678 0.280405
vt 0.457981 0.28244
vt 0.464501 0.266526
vt 0.473898 0.272417
vt 0.483826 0.274203
vt 0.468691 0.279609
vt 0.457658 0.2849
vt 0.493321 0.27169
vt 0.52653 0.247284
vt 0.533412 0.255371
vt 0.541554 0.260423
vt 0.550169 0.261942
vt 0.458371 0.184484
vt 0.446367 0.181333
vt 0.407193 0.271633
vt 0.399291 0.262237
vt 0.393556 0.25024
vt 0.390539 0.2368
vt 0.390535 0.223211
vt 0.393552 0.210788
vt 0.256268 0.189567
vt 0.284687 0.211583
vt 0.28598 0.27295
vt 0.309385 0.264072
vt 0.247798 0.193114
vt 0.23491 0.238489
vt 0.199526 0.272157
vt 0.184314 0.218282
vt 0.181614 0.220834
vt 0.168248 0.212966
vt 0.196131 0.280736
vt 0.161008 0.205624
vt 0.194767 0.284182
vt 0.008722 0.266592
vt 0.014059 0.280405
vt 0.003016 0.274731
vt 0.005514 0.278978
vt 0.23491 0.238489
vt 0.205098 0.13844
vt 0.005514 0.278978
vt 0.001509 0.277875
vt 0.205098 0.13844
vt 0.198742 0.145848
vt 0.28598 0.27295
vt 0.309385 0.264072
vt 0.243999 0.304392
vt 0.27016 0.290756
vt 0.23781 0.296392
vt 0.199526 0.272157
vt 0.182789 0.303491
vt 0.165257 0.29985
vt 0.195135 0.363678
vt 0.210261 0.360023
vt 0.202574 0.367197
vt 0.213315 0.365792
vt 0.247798 0.193114
vt 0.23491 0.238489
vt 0.210886 0.140905
vt 0.205098 0.13844
vt 0.194767 0.284182
vt 0.160643 0.314424
vt 0.014059 0.280405
vt 0.012953 0.288601
vt 0.00386 0.280907
vt 0.005514 0.278978
vt 0.001509 0.277875
vt 0.199526 0.272157
vt 0.165257 0.29985
vt 0.196131 0.280736
vt 0.161965 0.31025
vt 0.194767 0.284182
vt 0.160643 0.314424
vn -0.5405594 0.8241855 0.1688603
vn -0.54111 0.8215234 0.1797197
vn -0.5257209 0.831844 0.1779128
vn -0.671203 0.6316654 0.3879243
vn -0.7423027 0.3715932 0.5575888
vn -0.7340137 0.09008831 0.673133
vn -0.7508355 0.1175133 0.6499514
vn -0.6648299 0.6526255 0.3634295
vn -0.6561326 0.6640016 0.3585969
vn -0.6943072 0.5917351 0.4096181
vn -0.66968 0.6364124 0.3827635
vn -0.6088586 0.7320133 0.3056922
vn -0.6962076 0.5694329 0.4370824
vn 0.6989369 0.6504298 -0.2973693
vn 0.3228739 0.7932102 -0.5163043
vn 0.5107546 0.8173224 -0.2666718
vn 0.0526457 0.9150116 -0.3999776
vn 0.1685218 0.8951575 -0.4126661
vn 0.0526457 0.9150116 -0.3999776
vn 0.1082399 0.8711774 -0.4788884
vn 0.3385638 0.6550028 -0.6755338
vn 0.851035 0.5170057 -0.09189376
vn 0.7282284 0.6645855 -0.1673604
vn 0.7872621 0.546454 -0.2856682
vn 0.8533916 0.3825054 -0.3541362
vn 0.7915916 0.605879 -0.07933057
vn 0.9165784 0.3796277 0.1255663
vn 0.3588932 0.8704356 -0.3369534
vn 0.3385638 0.6550028 -0.6755338
vn 0.7058644 0.5293854 -0.4706449
vn 0.4974146 0.4737059 -0.7267609
vn 0.3385638 0.6550028 -0.6755338
vn 0.494439 0.4472253 -0.7453319
vn 0.8791035 0.394293 -0.2677871
vn 0.8800413 0.4647063 0.09785445
vn 0.8715976 0.4314489 0.2327431
vn 0.8594821 0.369973 0.3527188
vn 0.5587465 0.08092084 0.8253813
vn 0.8853582 0.4591971 0.07265643
vn 0.5017781 0.04203267 0.8639746
vn 0.5885957 0.129973 0.797911
vn 0.5893472 0.1045804 0.8010823
vn 0.7210379 0.4135298 0.5559654
vn 0.5439411 0.09713978 0.8334818
vn 0.8365623 -0.1326417 0.5315731
vn 0.6521137 0.7001851 0.2906689
vn 0.8182068 0.3128377 0.4823588
vn 0.7883955 0.2610646 0.557026
vn 0.775441 0.2487749 0.5803468
vn 0.8385876 0.335981 0.4288213
vn 0.5617439 0.006422099 0.8272862
vn 0.3586983 -0.1532513 0.9207875
vn 0.7302559 0.28148 0.6224912
vn 0.7507484 0.1933793 0.6316497
vn 0.5893472 0.1045804 0.8010823
vn 0.8345315 0.4059002 -0.3725617
vn 0.8533916 0.3825054 -0.3541362
vn 0.7162884 0.2873802 -0.6358802
vn 0.8097615 0.3586137 -0.4644163
vn 0.7127256 0.2146761 -0.6677847
vn 0.7127256 0.2146761 -0.6677847
vn 0.8533916 0.3825054 -0.3541362
vn 0.7814733 0.1433581 -0.6072462
vn 0.9478973 0.1867171 0.2581231
vn 0.5885957 0.129973 0.797911
vn 0.9686206 -0.1596294 0.1905058
vn 0.6880597 0.5242981 0.5016825
vn 0.5066332 0.8385816 0.2002592
vn 0.4314067 0.8970787 0.09559347
vn 0.4423082 0.8869174 0.1331961
vn 0.6483664 0.5391217 0.5375582
vn 0.3583061 0.8721738 0.333061
vn 0.7261733 0.6727359 0.1417698
vn 0.2585911 0.4283758 0.8658087
vn -0.1537931 0.1327589 0.9791439
vn 0.0840863 0.6462563 0.7584737
vn -0.1537931 0.1327589 0.9791439
vn -0.2959134 0.4029556 0.8660613
vn -0.1434981 0.4375858 0.8876525
vn -0.2814239 -0.1580164 0.9464837
vn 0.9865628 0.1411758 -0.08223794
vn 0.8929136 -0.4066816 0.1931721
vn 0.914489 0.2030777 0.3499564
vn 0.318136 -0.2207552 0.9219851
vn 0.3586983 -0.1532513 0.9207875
vn 0.5617439 0.006422099 0.8272862
vn 0.9958608 -0.03015956 0.08574174
vn 0.9665981 -0.253985 0.03434967
vn 0.9773486 -0.1184458 -0.1753864
vn 0.8929136 -0.4066816 0.1931721
vn 0.9686206 -0.1596294 0.1905058
vn 0.6755509 -0.6846758 0.2735872
vn 0.8929136 -0.4066816 0.1931721
vn 0.5953529 -0.4513298 0.6647226
vn 0.7478368 -0.2143224 0.628336
vn -0.2343221 -0.4061901 0.8832342
vn -0.2814239 -0.1580164 0.9464837
vn -0.1147587 -0.3527139 0.9286675
vn -0.1537931 0.1327589 0.9791439
vn 0.3530841 -0.03488025 0.9349412
vn 0.2657382 -0.4772888 0.8376029
vn -0.1537931 0.1327589 0.9791439
vn 0.2242391 0.5146849 0.8275363
vn -0.1715392 0.4557799 0.8734066
vn 0.1884234 0.5612739 0.8058959
vn -0.0646888 0.5504609 0.832351
vn 0.3217117 0.6330093 0.7041312
vn 0.8913123 0.3799904 0.2473249
vn 0.4738128 0.499834 0.7250292
vn 0.1884234 0.5612739 0.8058959
vn 0.6071287 0.6216457 0.4949257
vn 0.9523149 0.2748802 0.1324275
vn 0.7305089 0.4341726 0.5271156
vn 0.8913123 0.3799904 0.2473249
vn 0.9850852 0.153141 -0.07845371
vn 0.9629246 0.2651725 -0.04959622
vn 0.820917 0.5073693 0.2620529
vn -0.7611178 0.4784946 -0.4378843
vn -0.7611178 0.4784946 -0.4378843
vn -0.7611178 0.4784946 -0.4378843
vn 0.2439595 0.7367176 0.6306593
vn 0.1428315 0.6000032 0.7871438
vn 0.1624585 0.4762623 0.8641652
vn 0.1301639 0.6652136 0.7352199
vn -0.06735841 0.2560797 0.964306
vn -0.2628025 0.4733337 -0.8407675
vn -0.2627886 0.473381 -0.8407453
vn -0.2627886 0.473381 -0.8407453
vn -0.2627746 0.4734283 -0.8407229
vn 0.7443814 0.6677516 0.001994897
vn 0.7443808 0.6677524 0.00199304
vn 0.7443808 0.6677524 0.00199304
vn 0.7443801 0.6677532 0.001991183
vn 0.2315756 0.6680447 0.7071695
vn 0.2244817 0.7081473 0.6694291
vn 0.2244817 0.7081473 0.6694291
vn 0.2166957 0.7460667 0.6296248
vn -0.7771707 0.5872039 -0.2262682
vn -0.7771707 0.5872039 -0.2262682
vn -0.7824235 0.5734604 -0.2428099
vn -0.7715371 0.6006595 -0.2096156
vn 0.3650348 0.866935 -0.3393718
vn 0.4597742 0.8783745 -0.1306366
vn 0.7232489 0.5710842 -0.3882962
vn 0.7651379 0.5690379 -0.3012639
vn 0.6378501 0.5421242 -0.5470362
vn 0.2151264 0.8128221 -0.5413325
vn 0.3710235 0.4152036 -0.8306307
vn -0.05586155 0.6774824 -0.7334147
vn 0.003036378 0.2067192 -0.9783956
vn -0.2943622 0.5379475 -0.7899136
vn 0.5065619 0.8590395 0.07379773
vn -0.05390383 0.9224018 -0.3824518
vn 0.08707429 0.9718152 -0.2190735
vn 0.1828684 0.9829385 -0.01978044
vn 0.2240835 0.9546762 0.1959081
vn 0.6151537 0.7770224 0.1334996
vn 0.5599374 0.8142735 -0.1530644
vn 0.8917773 0.4506862 0.04018783
vn 0.8694718 0.360669 0.3375449
vn 0.5925034 0.6910744 0.4139515
vn 0.2066869 0.8898007 0.4068601
vn 0.4341839 0.8819287 0.1835376
vn 0.5152923 0.784879 0.3441494
vn 0.7669426 0.2277719 0.5999326
vn 0.4941939 0.5648369 0.6608568
vn 0.1323858 0.7946528 0.5924535
vn 0.4156637 0.7987922 0.434919
vn 0.4245091 0.6373704 0.6430792
vn 0.008459572 0.6785524 0.7345033
vn 0.2214266 0.458181 0.860837
vn 0.6491769 0.1951307 0.7351826
vn 0.852863 0.4315206 0.2939638
vn 0.5152923 0.784879 0.3441494
vn 0.3981918 0.007600047 0.9172707
vn 0.03819074 0.3237103 0.9453851
vn 0.2995966 -0.06259525 0.9520104
vn -0.1529818 0.55286 0.8191108
vn 0.5942209 0.06501146 0.8016701
vn 0.3298579 0.4106748 0.8500235
vn 0.3682297 -0.1116816 0.9230027
vn 0.1155731 0.2436768 0.9629457
vn 0.1110698 -0.2850193 0.9520648
vn -0.1276836 0.08019038 0.9885678
vn 0.4152245 -0.1932207 0.8889624
vn 0.6381127 -0.01906319 0.769707
vn 0.8085732 0.141425 0.5711466
vn 0.9099016 0.272533 0.3127376
vn 0.9321885 0.361433 0.0197674
vn 0.8316768 0.489015 -0.2630171
vn 0.4322501 0.7991847 -0.4176884
vn 0.6950496 0.4719059 -0.5424119
vn 0.2445933 0.7332221 -0.6344758
vn 0.495265 0.4010363 -0.7706377
vn 0.01533525 0.6228529 -0.7821887
vn 0.2518924 0.2833417 -0.9253474
vn 0.8732539 0.3994185 -0.2790924
vn 0.7388625 0.3827637 -0.5545937
vn 0.5421724 0.3131035 -0.7797534
vn 0.3024362 0.1972615 -0.9325343
vn 0.8359651 0.4812501 -0.2637436
vn 0.6996685 0.464327 -0.5430142
vn 0.5002313 0.3936744 -0.7712257
vn 0.257167 0.2762062 -0.9260536
vn 0.0431175 0.04656868 -0.9979841
vn -0.005725279 0.1234265 -0.9923373
vn 0.8957695 0.4427837 0.03923707
vn 0.8732327 0.3526967 0.3362584
vn 0.7705647 0.2198086 0.5982593
vn 0.5978083 0.05712155 0.7996013
vn 0.3718709 -0.1194396 0.9205684
vn 0.7969427 0.5214327 -0.3049433
vn -0.05202705 0.6676368 -0.7426671
vn 0.2143508 0.714599 -0.6658843
vn -0.2827898 0.5199491 -0.8060291
vn -0.3264807 0.8508064 -0.4117511
vn -0.2018135 0.9323232 -0.3000747
vn 0.1532548 0.7891379 -0.5947892
vn -0.1172559 0.9824008 -0.1453946
vn -0.4793133 0.7541217 -0.4489534
vn 0.07881851 0.3126244 0.946601
vn -0.5167043 0.365945 -0.774016
vn -0.6321157 0.6626858 -0.4015935
vn -0.7262548 0.2215257 -0.6507536
vn -0.7555513 0.5882074 -0.2883646
vn 0.6483296 0.4950859 -0.5784104
vn -0.06871226 0.9973967 0.02187245
vn -0.1000852 0.9916906 -0.08082488
vn -0.06072421 0.9948095 0.0816494
vn -0.1702829 0.9555481 -0.2406895
vn -0.04657157 0.9814032 0.1862224
vn -0.04284471 0.9699749 0.2394014
vn -0.04500401 0.9376977 0.3445254
vn -0.04397783 0.9182339 0.3935893
vn -0.06580261 0.8658134 0.4960214
vn -0.07060321 0.837024 0.5425919
vn -0.1179323 0.7654195 0.6326332
vn 0.1279637 0.7470105 0.6523807
vn 0.2135656 0.5780758 0.7875393
vn 0.8705431 0.4920841 -0.002809837
vn 0.8619282 0.4099151 0.2984114
vn 0.771947 0.2829722 0.5692315
vn 0.4897971 0.5651413 0.6638631
vn 0.26907 0.4869578 0.8309473
vn 0.3366029 0.395722 0.8544604
vn 0.26907 0.4869578 0.8309473
vn -0.2117856 0.6450689 0.7341886
vn -0.1179323 0.7654195 0.6326332
vn -0.3478281 0.5276923 0.7749559
vn -0.1506481 0.151763 0.976869
vn -0.5072117 0.4411658 0.7403438
vn -0.3943933 0.0241833 0.9186234
vn -0.657557 0.3994509 0.6387939
vn -0.6228874 -0.06133141 0.7799038
vn -0.7724919 0.3964361 0.4960792
vn 0.1148791 -0.292586 0.9493135
vn -0.8024123 0.4068999 0.4365398
vn -0.7047586 0.4005063 0.5855851
vn -0.8438768 0.4168303 0.3378229
vn -0.8583655 0.4294954 0.2806106
vn -0.8760523 0.4483897 0.1774231
vn -0.879513 0.4593987 0.1241366
vn -0.8737437 0.4860686 0.0175881
vn -0.8681092 0.4952005 -0.03409958
vn -0.8355769 0.5310358 -0.1407562
vn -0.8187072 0.5411301 -0.1920848
vn -0.8515175 0.3742729 -0.3672026
vn -0.7717345 0.286908 -0.567547
vn 0.6900989 0.7214363 -0.05738631
vn 0.8307445 0.5421835 -0.1260976
vn 0.7230507 0.6480277 0.239286
vn -0.5264795 0.3806212 -0.7602282
vn -0.2943622 0.5379475 -0.7899136
vn -0.2579312 0.03504674 -0.9655275
vn 0.003036378 0.2067192 -0.9783956
vn -0.4917863 -0.1429777 -0.8588967
vn -0.7295708 0.22084 -0.6472682
vn -0.6756396 -0.3099347 -0.6689183
vn -0.8837181 0.07426566 -0.4620895
vn -0.7914652 -0.4494565 -0.4142121
vn -0.973833 -0.04474123 -0.222817
vn -0.8279374 -0.5478995 -0.1196902
vn -0.9910961 -0.1245311 0.04712251
vn -0.7814849 -0.5956201 0.1857907
vn -0.9338213 -0.1573047 0.3212988
vn -0.6566563 -0.5879527 0.4723495
vn -0.8076136 -0.1398556 0.572888
vn -0.4656662 -0.5256434 0.7119368
vn -0.624828 -0.07388508 0.7772586
vn -0.149431 -0.3733902 0.91556
vn -0.3625824 0.06666441 0.9295644
vn -0.1395395 0.2059437 0.9685638
vn -0.3625824 0.06666441 0.9295644
vn 0.1700009 -0.1667698 0.9712299
vn 0.1700009 -0.1667698 0.9712299
vn -0.1805141 -0.1244943 0.9756618
vn -0.149431 -0.3733902 0.91556
vn -0.1395395 0.2059437 0.9685638
vn 0.1700009 -0.1667698 0.9712299
vn -0.3361084 0.4298907 0.8379887
vn -0.5230126 0.3216693 0.7892951
vn -0.3760973 -0.06378171 0.9243823
vn -0.6053616 -0.1741488 0.7766657
vn -0.6953998 0.2387904 0.6777892
vn -0.4697036 0.1152019 0.8752754
vn -0.624828 -0.07388508 0.7772586
vn -0.8363798 0.1893671 0.5144016
vn -0.8076136 -0.1398556 0.572888
vn -0.9321639 0.1782445 0.3151178
vn -0.9338213 -0.1573047 0.3212988
vn -0.9733788 0.2065123 0.09942936
vn -0.9910961 -0.1245311 0.04712251
vn -0.9559855 0.2713872 -0.1115367
vn -0.973833 -0.04474123 -0.222817
vn -0.88169 0.3665247 -0.2971235
vn -0.8837181 0.07426566 -0.4620895
vn -0.7577602 0.482626 -0.4391714
vn -0.7295708 0.22084 -0.6472682
vn -0.5963175 0.6083313 -0.5237733
vn -0.5264795 0.3806212 -0.7602282
vn -0.4131919 0.7312997 -0.5426538
vn -0.2330739 0.4788846 -0.8463722
vn -0.01125508 0.1303284 -0.991407
vn -0.2262925 0.8395181 -0.4939647
vn -0.6906241 0.1483891 -0.707827
vn -0.8549611 -0.005756898 -0.5186603
vn -0.4763349 0.3153845 -0.8207544
vn -0.3625824 0.06666441 0.9295644
vn -0.2684138 -0.04300172 -0.9623434
vn -0.01125508 0.1303284 -0.991407
vn -0.4763349 0.3153845 -0.8207544
vn -0.2330739 0.4788846 -0.8463722
vn -0.6906241 0.1483891 -0.707827
vn -0.4944156 -0.2196885 -0.8410054
vn -0.8549611 -0.005756898 -0.5186603
vn -0.6671324 -0.3824472 -0.6392717
vn -0.9532693 -0.13199 -0.2717651
vn -0.7696582 -0.51535 -0.3768827
vn -0.9759209 -0.2179512 0.008703855
vn -0.7919633 -0.6053668 -0.07953078
vn -0.9207017 -0.2551964 0.295268
vn -0.7318625 -0.6436961 0.2236797
vn -0.7930189 -0.2401002 0.5598865
vn -0.5952264 -0.6265982 0.5030707
vn -0.6053616 -0.1741488 0.7766657
vn -0.3954442 -0.55573 0.7312921
vn -0.3760973 -0.06378171 0.9243823
vn -0.1520702 -0.4380299 0.8860047
vn -0.1276836 0.08019038 0.9885678
vn 0.1110698 -0.2850193 0.9520648
vn -0.6037315 -0.4588581 -0.6518877
vn -0.4332789 -0.2983665 -0.8504393
vn -0.2103856 -0.1242054 -0.9696963
vn 0.0431175 0.04656868 -0.9979841
vn -0.5340272 -0.7001959 0.4738573
vn -0.6684138 -0.7168496 0.1983673
vn -0.7273533 -0.6788646 -0.1004992
vn -0.7050635 -0.589968 -0.3934759
vn -0.262713 -0.04971382 -0.9635925
vn -0.005725279 0.1234265 -0.9923373
vn -0.7640764 -0.5218534 -0.3792837
vn -0.6614054 -0.3889634 -0.641288
vn -0.4886551 -0.2262819 -0.8426225
vn -0.7866141 -0.6119415 -0.08225369
vn -0.7268095 -0.6504068 0.2207237
vn -0.2827898 0.5199491 -0.8060291
vn -0.5167043 0.365945 -0.774016
vn -0.6815261 0.138789 -0.7185122
vn -0.7262548 0.2215257 -0.6507536
vn -0.8539622 -0.0007919657 -0.5203344
vn -0.7106169 -0.3780094 -0.5934075
vn -0.8006002 -0.5049542 -0.322584
vn -0.8092142 -0.5871254 -0.02135791
vn -0.7356117 -0.6164746 0.2807747
vn -0.5905191 -0.6334851 0.4999838
vn -0.3373426 -0.63054 0.6990131
vn -0.09760877 -0.5146955 0.8517988
vn 0.1617065 -0.3640066 0.9172514
vn -0.3910784 -0.5628335 0.7282006
vn -0.1480108 -0.4453672 0.8830293
vn 0.1148791 -0.292586 0.9493135
vn 0.4152245 -0.1932207 0.8889624
vn 0.3682297 -0.1116816 0.9230027
vn 0.3718709 -0.1194396 0.9205684
vn -0.5870044 -0.5901307 0.5542306
vn -0.5689206 -0.165101 0.8056495
vn -0.3943933 0.0241833 0.9186234
vn -0.1506481 0.151763 0.976869
vn 0.3024362 0.1972615 -0.9325343
vn 0.2518924 0.2833417 -0.9253474
vn -0.6953998 0.2387904 0.6777892
vn -0.8363798 0.1893671 0.5144016
vn -0.9321639 0.1782445 0.3151178
vn -0.9733788 0.2065123 0.09942936
vn -0.9559855 0.2713872 -0.1115367
vn -0.88169 0.3665247 -0.2971235
vn 0.7901006 0.5086921 -0.3420139
vn 0.8847531 0.2480825 -0.3945466
vn 0.7350439 0.5862298 -0.3406538
vn 0.8529301 0.2999283 -0.4272624
vn 0.774629 0.6037818 -0.1881419
vn 0.7529083 0.6581244 -0.001229267
vn 0.7238912 0.6153436 -0.3119837
vn 0.5160912 0.8262768 0.2256467
vn 0.711602 0.6326478 -0.3055804
vn 0.9163843 0.1509904 -0.3707316
vn 0.9203888 0.1170776 -0.3730648
vn 0.8893763 0.3155886 -0.3307773
vn 0.7975725 0.5480484 -0.2520342
vn 0.4900017 0.8669126 -0.09143814
vn 0.2474802 0.9687063 0.0190206
vn -0.08067356 0.9846137 0.1550087
vn -0.1228791 0.9763657 0.1777942
vn 0.5462502 0.8361533 -0.04958443
vn 0.4322586 0.633494 0.641746
vn -0.2063408 0.7543454 0.6232066
vn -0.3129162 0.7296266 0.608053
vn 0.66596 0.5466365 0.5076276
vn 0.5971599 0.4964367 0.6300402
vn 0.3581645 -0.01145824 0.9335881
vn 0.5001355 -0.1961372 0.8434421
vn 0.614341 -0.1187649 0.7800512
vn 0.5002697 -0.1977478 0.8429864
vn 0.4141899 0.2260289 0.8816789
vn 0.4136137 0.01386837 0.9103469
vn 0.3693563 0.2513256 0.8946571
vn 0.6056064 -0.287208 0.7421269
vn 0.2950857 0.3792166 0.8769944
vn 0.5246594 0.118945 0.8429617
vn 0.2722625 0.04688075 0.9610803
vn 0.5998526 -0.04489981 0.7988497
vn 0.774629 0.6037818 -0.1881419
vn 0.7994135 0.5850711 -0.1364911
vn 0.9761639 0.1987168 0.08726787
vn 0.8277559 0.3936377 0.3998369
vn 0.6176359 -0.2772762 0.7359647
vn 0.460228 -0.0587019 0.8858579
vn 0.06384446 0.2389438 0.9689323
vn 0.04027713 0.2260918 0.9732729
vn -0.2080643 0.3263788 0.9220554
vn -0.2650807 0.59767 0.7566524
vn -0.3129162 0.7296266 0.608053
vn 0.4136137 0.01386837 0.9103469
vn 0.6056064 -0.287208 0.7421269
vn 0.6740419 -0.4744856 0.5661547
vn 0.6885131 -0.4893924 0.5352054
vn 0.6176359 -0.2772762 0.7359647
vn 0.460228 -0.0587019 0.8858579
g BRM_Rag_Hammer_0
f 3/3/3 2/2/2 1/1/1
f 2/2/2 4/4/4 1/1/1
f 1/1/1 4/4/4 5/5/5
f 4/4/4 6/6/6 5/5/5
f 5/5/5 6/6/6 7/7/7
f 8/8/8 2/2/2 3/3/3
f 9/9/9 8/8/8 3/3/3
f 10/10/10 8/8/8 9/9/9
f 11/11/11 8/8/8 10/10/10
f 12/12/12 11/11/11 10/10/10
f 13/13/13 11/11/11 12/12/12
f 16/16/16 15/15/15 14/14/14
f 17/17/17 15/15/15 16/16/16
f 20/20/20 19/19/19 18/18/18
f 21/21/21 19/19/19 20/20/20
f 24/24/24 23/23/23 22/22/22
f 23/23/23 26/26/26 25/25/25
f 25/25/25 26/26/26 27/27/27
f 30/30/30 29/29/29 28/28/28
f 33/33/33 32/32/32 31/31/31
f 36/36/36 35/35/35 34/34/34
f 39/39/39 38/38/38 37/37/37
f 37/37/37 38/38/38 40/40/40
f 40/40/40 38/38/38 41/41/41
f 38/38/38 42/42/42 41/41/41
f 42/42/42 43/43/43 41/41/41
f 44/44/44 40/40/40 41/41/41
f 44/44/44 41/41/41 45/45/45
f 46/46/46 41/41/41 43/43/43
f 43/43/43 48/48/48 47/47/47
f 48/48/48 49/49/49 47/47/47
f 47/47/47 49/49/49 50/50/50
f 51/51/51 50/50/50 49/49/49
f 49/49/49 52/52/52 51/51/51
f 54/54/54 48/48/48 53/53/53
f 54/54/54 53/53/53 55/55/55
f 58/58/58 57/57/57 56/56/56
f 60/60/60 59/59/59 58/58/58
f 63/63/63 62/62/62 61/61/61
f 66/66/66 65/65/65 64/64/64
f 69/69/69 68/68/68 67/67/67
f 70/70/70 68/68/68 69/69/69
f 73/73/73 72/72/72 71/71/71
f 76/76/76 75/75/75 74/74/74
f 79/79/79 78/78/78 77/77/77
f 77/77/77 78/78/78 80/80/80
f 83/83/83 82/82/82 81/81/81
f 86/86/86 85/85/85 84/84/84
f 89/89/89 88/88/88 87/87/87
f 90/90/90 88/88/88 89/89/89
f 93/93/93 92/92/92 91/91/91
f 94/94/94 92/92/92 93/93/93
f 94/94/94 93/93/93 95/95/95
f 98/98/98 97/97/97 96/96/96
f 99/99/99 97/97/97 98/98/98
f 102/102/102 101/101/101 100/100/100
f 105/105/105 104/104/104 103/103/103
f 106/106/106 104/104/104 105/105/105
f 107/107/107 106/106/106 105/105/105
f 110/110/110 109/109/109 108/108/108
f 108/108/108 111/111/111 110/110/110
f 114/114/114 113/113/113 112/112/112
f 115/115/115 114/114/114 112/112/112
f 116/116/116 114/114/114 115/115/115
f 116/116/116 117/117/117 114/114/114
f 120/120/120 119/119/119 118/118/118
f 123/123/123 122/122/122 121/121/121
f 121/121/121 122/122/122 124/124/124
f 125/125/125 124/124/124 122/122/122
f 128/128/128 127/127/127 126/126/126
f 129/129/129 127/127/127 128/128/128
f 132/132/132 131/131/131 130/130/130
f 133/133/133 131/131/131 132/132/132
f 136/136/136 135/135/135 134/134/134
f 137/137/137 135/135/135 136/136/136
f 140/140/140 139/139/139 138/138/138
f 138/138/138 139/139/139 141/141/141
f 144/144/144 143/143/143 142/142/142
f 145/145/145 143/143/143 144/144/144
f 144/144/144 142/142/142 146/146/146
f 146/146/146 142/142/142 147/147/147
f 146/146/146 147/147/147 148/148/148
f 148/148/148 147/147/147 149/149/149
f 148/148/148 149/149/149 150/150/150
f 150/150/150 149/149/149 151/151/151
f 145/145/145 152/152/152 143/143/143
f 147/147/147 153/153/153 149/149/149
f 147/147/147 154/154/154 153/153/153
f 142/142/142 154/154/154 147/147/147
f 142/142/142 155/155/155 154/154/154
f 143/143/143 155/155/155 142/142/142
f 143/143/143 156/156/156 155/155/155
f 152/152/152 156/156/156 143/143/143
f 156/156/156 157/157/157 155/155/155
f 155/155/155 157/157/157 158/158/158
f 155/155/155 158/158/158 154/154/154
f 157/157/157 159/159/159 158/158/158
f 157/157/157 160/160/160 159/159/159
f 161/161/161 160/160/160 157/157/157
f 156/156/156 161/161/161 157/157/157
f 162/162/162 161/161/161 156/156/156
f 163/163/163 162/162/162 156/156/156
f 164/164/164 162/162/162 163/163/163
f 161/161/161 165/165/165 160/160/160
f 166/166/166 165/165/165 161/161/161
f 162/162/162 166/166/166 161/161/161
f 167/167/167 166/166/166 162/162/162
f 168/168/168 167/167/167 162/162/162
f 169/169/169 167/167/167 168/168/168
f 169/169/169 170/170/170 167/167/167
f 171/171/171 170/170/170 169/169/169
f 172/172/172 171/171/171 169/169/169
f 172/172/172 169/169/169 173/173/173
f 173/173/173 169/169/169 174/174/174
f 175/175/175 171/171/171 172/172/172
f 175/175/175 176/176/176 171/171/171
f 177/177/177 176/176/176 175/175/175
f 171/171/171 178/178/178 170/170/170
f 176/176/176 178/178/178 171/171/171
f 166/166/166 179/179/179 165/165/165
f 180/180/180 179/179/179 166/166/166
f 167/167/167 180/180/180 166/166/166
f 170/170/170 180/180/180 167/167/167
f 180/180/180 181/181/181 179/179/179
f 182/182/182 181/181/181 180/180/180
f 178/178/178 182/182/182 170/170/170
f 170/170/170 182/182/182 180/180/180
f 182/182/182 183/183/183 181/181/181
f 184/184/184 183/183/183 182/182/182
f 178/178/178 184/184/184 182/182/182
f 181/181/181 185/185/185 179/179/179
f 179/179/179 185/185/185 186/186/186
f 179/179/179 186/186/186 165/165/165
f 165/165/165 186/186/186 187/187/187
f 165/165/165 187/187/187 160/160/160
f 160/160/160 187/187/187 188/188/188
f 160/160/160 188/188/188 159/159/159
f 159/159/159 188/188/188 189/189/189
f 159/159/159 189/189/189 190/190/190
f 158/158/158 159/159/159 190/190/190
f 158/158/158 190/190/190 191/191/191
f 191/191/191 190/190/190 192/192/192
f 191/191/191 192/192/192 193/193/193
f 193/193/193 192/192/192 194/194/194
f 193/193/193 194/194/194 195/195/195
f 195/195/195 194/194/194 196/196/196
f 190/190/190 197/197/197 192/192/192
f 190/190/190 189/189/189 197/197/197
f 192/192/192 197/197/197 198/198/198
f 192/192/192 198/198/198 194/194/194
f 194/194/194 198/198/198 199/199/199
f 194/194/194 199/199/199 196/196/196
f 196/196/196 199/199/199 200/200/200
f 197/197/197 201/201/201 198/198/198
f 198/198/198 201/201/201 202/202/202
f 198/198/198 202/202/202 199/199/199
f 199/199/199 202/202/202 203/203/203
f 199/199/199 203/203/203 200/200/200
f 200/200/200 203/203/203 204/204/204
f 200/200/200 204/204/204 205/205/205
f 205/205/205 204/204/204 206/206/206
f 197/197/197 207/207/207 201/201/201
f 189/189/189 207/207/207 197/197/197
f 189/189/189 208/208/208 207/207/207
f 188/188/188 208/208/208 189/189/189
f 188/188/188 209/209/209 208/208/208
f 187/187/187 209/209/209 188/188/188
f 187/187/187 210/210/210 209/209/209
f 186/186/186 210/210/210 187/187/187
f 186/186/186 211/211/211 210/210/210
f 185/185/185 211/211/211 186/186/186
f 201/201/201 212/212/212 202/202/202
f 204/204/204 213/213/213 206/206/206
f 204/204/204 214/214/214 213/213/213
f 206/206/206 213/213/213 215/215/215
f 216/216/216 215/215/215 213/213/213
f 216/216/216 213/213/213 217/217/217
f 217/217/217 213/213/213 218/218/218
f 217/217/217 218/218/218 219/219/219
f 220/220/220 215/215/215 216/216/216
f 211/211/211 221/221/221 210/210/210
f 220/220/220 222/222/222 215/215/215
f 223/223/223 222/222/222 220/220/220
f 223/223/223 224/224/224 222/222/222
f 225/225/225 224/224/224 223/223/223
f 203/203/203 214/214/214 204/204/204
f 203/203/203 226/226/226 214/214/214
f 202/202/202 226/226/226 203/203/203
f 202/202/202 212/212/212 226/226/226
f 219/219/219 228/228/228 227/227/227
f 227/227/227 228/228/228 229/229/229
f 219/219/219 230/230/230 228/228/228
f 227/227/227 229/229/229 231/231/231
f 231/231/231 229/229/229 232/232/232
f 231/231/231 232/232/232 233/233/233
f 233/233/233 232/232/232 234/234/234
f 233/233/233 234/234/234 235/235/235
f 235/235/235 234/234/234 236/236/236
f 235/235/235 238/238/238 237/237/237
f 237/237/237 238/238/238 239/239/239
f 201/201/201 240/240/240 212/212/212
f 207/207/207 240/240/240 201/201/201
f 207/207/207 241/241/241 240/240/240
f 208/208/208 241/241/241 207/207/207
f 208/208/208 242/242/242 241/241/241
f 209/209/209 242/242/242 208/208/208
f 209/209/209 244/244/244 243/243/243
f 210/210/210 244/244/244 209/209/209
f 210/210/210 221/221/221 245/245/245
f 247/247/247 246/246/246 221/221/221
f 248/248/248 246/246/246 247/247/247
f 247/247/247 221/221/221 249/249/249
f 249/249/249 221/221/221 250/250/250
f 249/249/249 250/250/250 251/251/251
f 251/251/251 250/250/250 252/252/252
f 251/251/251 252/252/252 253/253/253
f 253/253/253 252/252/252 254/254/254
f 253/253/253 254/254/254 255/255/255
f 211/211/211 250/250/250 221/221/221
f 256/256/256 250/250/250 211/211/211
f 255/255/255 258/258/258 257/257/257
f 255/255/255 257/257/257 259/259/259
f 259/259/259 257/257/257 260/260/260
f 259/259/259 260/260/260 261/261/261
f 261/261/261 260/260/260 262/262/262
f 261/261/261 262/262/262 263/263/263
f 263/263/263 262/262/262 264/264/264
f 263/263/263 264/264/264 265/265/265
f 265/265/265 264/264/264 266/266/266
f 265/265/265 267/267/267 225/225/225
f 225/225/225 267/267/267 268/268/268
f 270/270/270 269/269/269 145/145/145
f 270/270/270 174/174/174 152/152/152
f 173/173/173 271/271/271 270/270/270
f 274/274/274 273/273/273 272/272/272
f 275/275/275 273/273/273 274/274/274
f 274/274/274 272/272/272 276/276/276
f 276/276/276 272/272/272 277/277/277
f 276/276/276 277/277/277 278/278/278
f 278/278/278 277/277/277 279/279/279
f 278/278/278 279/279/279 280/280/280
f 280/280/280 279/279/279 281/281/281
f 280/280/280 281/281/281 282/282/282
f 282/282/282 281/281/281 283/283/283
f 282/282/282 283/283/283 284/284/284
f 284/284/284 283/283/283 285/285/285
f 284/284/284 285/285/285 286/286/286
f 286/286/286 285/285/285 287/287/287
f 286/286/286 287/287/287 288/288/288
f 288/288/288 287/287/287 289/289/289
f 288/288/288 289/289/289 290/290/290
f 290/290/290 289/289/289 291/291/291
f 294/294/294 293/293/293 292/292/292
f 297/297/297 296/296/296 295/295/295
f 299/299/299 298/298/298 177/177/177
f 177/177/177 298/298/298 176/176/176
f 298/298/298 300/300/300 176/176/176
f 298/298/298 301/301/301 300/300/300
f 301/301/301 302/302/302 300/300/300
f 301/301/301 303/303/303 302/302/302
f 304/304/304 303/303/303 301/301/301
f 305/305/305 304/304/304 301/301/301
f 306/306/306 304/304/304 305/305/305
f 306/306/306 307/307/307 304/304/304
f 308/308/308 307/307/307 306/306/306
f 308/308/308 309/309/309 307/307/307
f 310/310/310 309/309/309 308/308/308
f 310/310/310 311/311/311 309/309/309
f 312/312/312 311/311/311 310/310/310
f 312/312/312 313/313/313 311/311/311
f 314/314/314 313/313/313 312/312/312
f 314/314/314 315/315/315 313/313/313
f 316/316/316 315/315/315 314/314/314
f 316/316/316 317/317/317 315/315/315
f 318/318/318 317/317/317 316/316/316
f 318/318/318 319/319/319 317/317/317
f 320/320/320 319/319/319 318/318/318
f 320/320/320 321/321/321 319/319/319
f 321/321/321 322/322/322 319/319/319
f 321/321/321 195/195/195 322/322/322
f 195/195/195 196/196/196 322/322/322
f 322/322/322 196/196/196 323/323/323
f 151/151/151 321/321/321 320/320/320
f 151/151/151 324/324/324 321/321/321
f 324/324/324 195/195/195 321/321/321
f 149/149/149 324/324/324 151/151/151
f 149/149/149 153/153/153 324/324/324
f 317/317/317 325/325/325 315/315/315
f 315/315/315 325/325/325 326/326/326
f 317/317/317 327/327/327 325/325/325
f 319/319/319 327/327/327 317/317/317
f 319/319/319 322/322/322 327/327/327
f 324/324/324 193/193/193 195/195/195
f 153/153/153 193/193/193 324/324/324
f 153/153/153 191/191/191 193/193/193
f 154/154/154 191/191/191 153/153/153
f 154/154/154 158/158/158 191/191/191
f 328/328/328 301/301/301 298/298/298
f 176/176/176 300/300/300 178/178/178
f 300/300/300 184/184/184 178/178/178
f 300/300/300 302/302/302 184/184/184
f 331/331/331 330/330/330 329/329/329
f 332/332/332 330/330/330 331/331/331
f 331/331/331 329/329/329 333/333/333
f 333/333/333 329/329/329 334/334/334
f 333/333/333 334/334/334 335/335/335
f 335/335/335 334/334/334 336/336/336
f 335/335/335 336/336/336 337/337/337
f 337/337/337 336/336/336 338/338/338
f 337/337/337 338/338/338 339/339/339
f 339/339/339 338/338/338 340/340/340
f 339/339/339 340/340/340 341/341/341
f 341/341/341 340/340/340 342/342/342
f 341/341/341 342/342/342 343/343/343
f 343/343/343 342/342/342 344/344/344
f 343/343/343 344/344/344 345/345/345
f 345/345/345 344/344/344 346/346/346
f 345/345/345 346/346/346 347/347/347
f 347/347/347 346/346/346 348/348/348
f 347/347/347 348/348/348 349/349/349
f 349/349/349 348/348/348 350/350/350
f 336/336/336 351/351/351 338/338/338
f 336/336/336 352/352/352 351/351/351
f 334/334/334 352/352/352 336/336/336
f 334/334/334 353/353/353 352/352/352
f 329/329/329 353/353/353 334/334/334
f 329/329/329 354/354/354 353/353/353
f 330/330/330 354/354/354 329/329/329
f 344/344/344 355/355/355 346/346/346
f 344/344/344 356/356/356 355/355/355
f 342/342/342 356/356/356 344/344/344
f 342/342/342 357/357/357 356/356/356
f 340/340/340 357/357/357 342/342/342
f 340/340/340 358/358/358 357/357/357
f 338/338/338 351/351/351 358/358/358
f 338/338/338 358/358/358 340/340/340
f 353/353/353 359/359/359 352/352/352
f 353/353/353 360/360/360 359/359/359
f 354/354/354 360/360/360 353/353/353
f 358/358/358 361/361/361 357/357/357
f 358/358/358 362/362/362 361/361/361
f 351/351/351 362/362/362 358/358/358
f 351/351/351 363/363/363 362/362/362
f 352/352/352 359/359/359 363/363/363
f 352/352/352 363/363/363 351/351/351
f 357/357/357 361/361/361 364/364/364
f 357/357/357 364/364/364 356/356/356
f 356/356/356 364/364/364 365/365/365
f 360/360/360 366/366/366 359/359/359
f 359/359/359 366/366/366 367/367/367
f 359/359/359 367/367/367 363/363/363
f 363/363/363 367/367/367 368/368/368
f 363/363/363 369/369/369 362/362/362
f 362/362/362 369/369/369 370/370/370
f 362/362/362 371/371/371 361/361/361
f 361/361/361 371/371/371 372/372/372
f 361/361/361 372/372/372 364/364/364
f 364/364/364 372/372/372 373/373/373
f 364/364/364 373/373/373 365/365/365
f 365/365/365 373/373/373 374/374/374
f 365/365/365 374/374/374 375/375/375
f 355/355/355 365/365/365 375/375/375
f 356/356/356 365/365/365 355/355/355
f 355/355/355 375/375/375 376/376/376
f 346/346/346 355/355/355 376/376/376
f 346/346/346 376/376/376 348/348/348
f 348/348/348 376/376/376 377/377/377
f 348/348/348 377/377/377 350/350/350
f 350/350/350 377/377/377 378/378/378
f 376/376/376 375/375/375 379/379/379
f 376/376/376 379/379/379 377/377/377
f 377/377/377 379/379/379 380/380/380
f 377/377/377 380/380/380 378/378/378
f 378/378/378 380/380/380 381/381/381
f 378/378/378 381/381/381 382/382/382
f 383/383/383 378/378/378 382/382/382
f 350/350/350 378/378/378 383/383/383
f 382/382/382 381/381/381 384/384/384
f 375/375/375 385/385/385 379/379/379
f 375/375/375 374/374/374 385/385/385
f 379/379/379 385/385/385 386/386/386
f 379/379/379 386/386/386 380/380/380
f 380/380/380 386/386/386 387/387/387
f 380/380/380 387/387/387 381/381/381
f 381/381/381 387/387/387 388/388/388
f 330/330/330 389/389/389 354/354/354
f 390/390/390 389/389/389 330/330/330
f 391/391/391 343/343/343 345/345/345
f 392/392/392 343/343/343 391/391/391
f 392/392/392 341/341/341 343/343/343
f 393/393/393 341/341/341 392/392/392
f 393/393/393 339/339/339 341/341/341
f 394/394/394 339/339/339 393/393/393
f 394/394/394 337/337/337 339/339/339
f 395/395/395 337/337/337 394/394/394
f 395/395/395 335/335/335 337/337/337
f 396/396/396 335/335/335 395/395/395
f 399/399/399 398/398/398 397/397/397
f 400/400/400 398/398/398 399/399/399
f 401/401/401 399/399/399 397/397/397
f 402/402/402 399/399/399 401/401/401
f 403/403/403 399/399/399 402/402/402
f 404/404/404 403/403/403 402/402/402
f 405/405/405 403/403/403 404/404/404
f 406/406/406 403/403/403 405/405/405
f 407/407/407 403/403/403 406/406/406
f 408/408/408 407/407/407 406/406/406
f 409/409/409 407/407/407 408/408/408
f 410/410/410 409/409/409 408/408/408
f 411/411/411 409/409/409 410/410/410
f 412/412/412 411/411/411 410/410/410
f 413/413/413 411/411/411 412/412/412
f 415/415/415 404/404/404 414/414/414
f 417/417/417 416/416/416 412/412/412
f 419/419/419 404/404/404 418/418/418
f 422/422/422 421/421/421 420/420/420
f 423/423/423 421/421/421 422/422/422
f 424/424/424 422/422/422 420/420/420
f 425/425/425 424/424/424 420/420/420
f 426/426/426 424/424/424 425/425/425
f 427/427/427 426/426/426 425/425/425
f 428/428/428 424/424/424 426/426/426
f 429/429/429 424/424/424 428/428/428
f 429/429/429 422/422/422 424/424/424
f 428/428/428 430/430/430 429/429/429
f 431/431/431 422/422/422 429/429/429
f 430/430/430 431/431/431 429/429/429
f 434/434/434 433/433/433 432/432/432
f 435/435/435 433/433/433 434/434/434
f 438/438/438 437/437/437 436/436/436
f 439/439/439 437/437/437 438/438/438
f 439/439/439 438/438/438 440/440/440
f 440/440/440 438/438/438 441/441/441
f 442/442/442 440/440/440 441/441/441
f 445/445/445 444/444/444 443/443/443
f 446/446/446 444/444/444 445/445/445
f 447/447/447 446/446/446 445/445/445
f 448/448/448 446/446/446 447/447/447
