g Button_EndTurn
v 1424.254 55.35916 -650.7189
v 1442.447 55.35916 -654.4438
v 1424.254 55.35916 -603.1772
v 1442.447 55.35916 -599.4522
v 1407.33 55.35916 -608.9461
v 1407.33 55.35916 -644.95
v 1404.557 52.68996 -608.3096
v 1404.557 52.68996 -645.5864
v 1406.027 52.68996 -647.7579
v 1423.653 52.68996 -653.7004
v 1442.024 52.68996 -657.4111
v 1460.127 55.35916 -656.5685
v 1459.893 52.68996 -659.4641
v 1477.269 52.68996 -659.674
v 1477.269 55.35916 -656.7292
v 1494.411 55.35916 -656.5685
v 1494.645 52.68996 -659.4641
v 1512.514 52.68996 -657.4111
v 1512.091 55.35916 -654.4438
v 1530.284 55.35916 -650.7189
v 1512.091 55.35916 -599.4522
v 1530.284 55.35916 -603.1772
v 1547.208 55.35916 -644.95
v 1547.208 55.35916 -608.946
v 1549.981 52.68996 -645.5865
v 1549.981 52.68996 -608.3095
v 1548.511 52.68996 -647.7579
v 1530.885 52.68996 -653.7005
v 1548.511 52.68996 -606.1381
v 1530.885 52.68996 -600.1955
v 1512.514 52.68996 -596.4848
v 1494.411 55.35916 -597.3275
v 1494.645 52.68996 -594.4319
v 1477.269 52.68996 -594.222
v 1477.269 55.35916 -597.1667
v 1460.127 55.35916 -597.3275
v 1459.893 52.68996 -594.4319
v 1442.024 52.68996 -596.4848
v 1423.653 52.68996 -600.1956
v 1406.027 52.68996 -606.1382
v 1441.437 54.70016 -660.4911
v 1422.094 54.70016 -656.5489
v 1438.137 53.53026 -668.8339
v 1415.868 53.57976 -664.2157
v 1459.803 53.51406 -671.2479
v 1460.258 54.70016 -662.7183
v 1403.064 54.70016 -649.9915
v 1393.33 53.62916 -656.0441
v 1390.279 53.62916 -651.5139
v 1401.438 54.70016 -647.5706
v 1401.438 54.70016 -606.3254
v 1390.279 53.62916 -602.3821
v 1404.557 52.68996 -645.5864
v 1404.557 52.68996 -608.3096
v 1406.027 52.68996 -647.7579
v 1423.653 52.68996 -653.7004
v 1442.024 52.68996 -657.4111
v 1459.893 52.68996 -659.4641
v 1393.33 53.62916 -597.8519
v 1403.064 54.70016 -603.9045
v 1422.094 54.70016 -597.347
v 1415.868 53.57976 -589.6803
v 1441.437 54.70016 -593.405
v 1438.137 53.53026 -585.0621
v 1460.258 54.70016 -591.1776
v 1459.803 53.51406 -582.6481
v 1406.027 52.68996 -606.1382
v 1423.653 52.68996 -600.1956
v 1442.024 52.68996 -596.4848
v 1459.893 52.68996 -594.4319
v 1477.269 54.70016 -590.7292
v 1477.269 53.51386 -582.4043
v 1477.269 52.68996 -594.222
v 1494.736 53.51406 -582.6481
v 1494.28 54.70016 -591.1776
v 1513.101 54.70016 -593.405
v 1516.401 53.53026 -585.0621
v 1532.444 54.70016 -597.347
v 1538.67 53.57976 -589.6803
v 1551.474 54.70016 -603.9045
v 1561.208 53.62916 -597.8518
v 1564.26 53.62916 -602.382
v 1553.1 54.70016 -606.3254
v 1553.1 54.70016 -647.5706
v 1564.26 53.62916 -651.514
v 1561.208 53.62916 -656.0442
v 1551.474 54.70016 -649.9915
v 1532.444 54.70016 -656.549
v 1538.67 53.57976 -664.2157
v 1513.101 54.70016 -660.4911
v 1516.401 53.53026 -668.8339
v 1494.28 54.70016 -662.7183
v 1494.735 53.51406 -671.248
v 1549.981 52.68996 -608.3095
v 1549.981 52.68996 -645.5865
v 1548.511 52.68996 -647.7579
v 1530.885 52.68996 -653.7005
v 1512.514 52.68996 -657.4111
v 1494.645 52.68996 -659.4641
v 1477.269 53.51386 -671.4916
v 1477.269 54.70016 -663.1667
v 1477.269 52.68996 -659.674
v 1548.511 52.68996 -606.1381
v 1530.885 52.68996 -600.1955
v 1512.514 52.68996 -596.4848
v 1494.645 52.68996 -594.4319
v 1415.868 53.57976 -664.2157
v 1393.33 53.62916 -656.0441
v 1413.72 28.54966 -667.9153
v 1436.665 28.49546 -673.5367
v 1389.446 28.60376 -658.9489
v 1390.279 53.62916 -651.5139
v 1385.177 28.60376 -654.2553
v 1390.279 53.62916 -602.3821
v 1438.137 53.53026 -668.8339
v 1458.701 28.47746 -675.6556
v 1459.803 53.51406 -671.2479
v 1477.269 28.47746 -676.715
v 1477.269 53.51386 -671.4916
v 1494.735 53.51406 -671.248
v 1495.837 28.47746 -675.6556
v 1516.401 53.53026 -668.8339
v 1517.873 28.49546 -673.5367
v 1538.67 53.57976 -664.2157
v 1540.818 28.54966 -667.9153
v 1561.208 53.62916 -656.0442
v 1565.092 28.60376 -658.9489
v 1564.26 53.62916 -651.514
v 1569.361 28.60376 -654.2553
v 1569.361 28.60376 -599.6407
v 1564.26 53.62916 -602.382
v 1565.092 28.60376 -594.947
v 1561.208 53.62916 -597.8518
v 1540.818 28.54966 -585.9806
v 1538.67 53.57976 -589.6803
v 1517.873 28.49546 -580.3593
v 1516.401 53.53026 -585.0621
v 1495.837 28.47746 -578.2404
v 1494.736 53.51406 -582.6481
v 1477.269 28.47746 -577.181
v 1477.269 53.51386 -582.4043
v 1459.803 53.51406 -582.6481
v 1458.701 28.47746 -578.2404
v 1438.137 53.53026 -585.0621
v 1436.665 28.49546 -580.3593
v 1415.868 53.57976 -589.6803
v 1413.72 28.54966 -585.9806
v 1393.33 53.62916 -597.8519
v 1389.447 28.60376 -594.947
v 1385.177 28.60376 -599.6407
v 1458.701 28.47746 -675.6556
v 1495.837 28.47746 -675.6556
v 1477.269 28.47746 -676.715
v 1517.873 28.49546 -673.5367
v 1436.665 28.49546 -673.5367
v 1540.818 28.54966 -667.9153
v 1413.72 28.54966 -667.9153
v 1565.092 28.60376 -658.9489
v 1389.446 28.60376 -658.9489
v 1569.361 28.60376 -654.2553
v 1385.177 28.60376 -654.2553
v 1569.361 28.60376 -599.6407
v 1385.177 28.60376 -599.6407
v 1565.092 28.60376 -594.947
v 1389.447 28.60376 -594.947
v 1540.818 28.54966 -585.9806
v 1413.72 28.54966 -585.9806
v 1517.873 28.49546 -580.3593
v 1436.665 28.49546 -580.3593
v 1495.837 28.47746 -578.2404
v 1458.701 28.47746 -578.2404
v 1477.269 28.47746 -577.181
vt 0.108846 0.274933
vt 0.158569 0.264752
vt 0.108846 0.404868
vt 0.158569 0.415049
vt 0.06259 0.389102
vt 0.06259 0.290699
vt 0.055011 0.390841
vt 0.05501 0.28896
vt 0.059029 0.283025
vt 0.107203 0.266784
vt 0.157412 0.256642
vt 0.206888 0.258945
vt 0.20625 0.251031
vt 0.25374 0.250458
vt 0.25374 0.258506
vt 0.300591 0.258945
vt 0.30123 0.251031
vt 0.350068 0.256642
vt 0.348911 0.264752
vt 0.398634 0.274933
vt 0.348911 0.415049
vt 0.398635 0.404868
vt 0.44489 0.290699
vt 0.44489 0.389102
vt 0.45247 0.28896
vt 0.45247 0.390841
vt 0.448452 0.283025
vt 0.400278 0.266784
vt 0.448452 0.396776
vt 0.400278 0.413018
vt 0.350068 0.423159
vt 0.300591 0.420856
vt 0.30123 0.42877
vt 0.25374 0.429344
vt 0.25374 0.421296
vt 0.206889 0.420856
vt 0.20625 0.42877
vt 0.157412 0.423159
vt 0.107203 0.413018
vt 0.059029 0.396776
vt 0.155809 0.248224
vt 0.102941 0.258999
vt 0.146788 0.225423
vt 0.085925 0.238045
vt 0.206003 0.218825
vt 0.207247 0.242137
vt 0.050932 0.276921
vt 0.024327 0.260378
vt 0.015987 0.27276
vt 0.046486 0.283537
vt 0.046487 0.396264
vt 0.015987 0.407042
vt 0.05501 0.28896
vt 0.055011 0.390841
vt 0.059029 0.283025
vt 0.107203 0.266784
vt 0.157412 0.256642
vt 0.20625 0.251031
vt 0.024327 0.419423
vt 0.050932 0.402881
vt 0.102941 0.420803
vt 0.085925 0.441757
vt 0.155809 0.431577
vt 0.146788 0.454378
vt 0.207247 0.437664
vt 0.206003 0.460976
vt 0.059029 0.396776
vt 0.107203 0.413018
vt 0.157412 0.423159
vt 0.20625 0.42877
vt 0.25374 0.43889
vt 0.25374 0.461643
vt 0.25374 0.429344
vt 0.301478 0.460976
vt 0.300234 0.437664
vt 0.351671 0.431577
vt 0.360691 0.454379
vt 0.404539 0.420803
vt 0.421555 0.441757
vt 0.456549 0.402881
vt 0.483152 0.419423
vt 0.491493 0.407042
vt 0.460994 0.396264
vt 0.460994 0.283537
vt 0.491493 0.27276
vt 0.483152 0.260378
vt 0.456549 0.276921
vt 0.404539 0.258999
vt 0.421554 0.238045
vt 0.351671 0.248224
vt 0.360691 0.225423
vt 0.300233 0.242137
vt 0.301477 0.218825
vt 0.45247 0.390841
vt 0.45247 0.28896
vt 0.448452 0.283025
vt 0.400278 0.266784
vt 0.350068 0.256642
vt 0.30123 0.251031
vt 0.25374 0.218159
vt 0.25374 0.240912
vt 0.25374 0.250458
vt 0.448452 0.396776
vt 0.400278 0.413018
vt 0.350068 0.423159
vt 0.30123 0.42877
vt 0.085925 0.238045
vt 0.024327 0.260378
vt 0.080055 0.227933
vt 0.142764 0.212569
vt 0.013712 0.252439
vt 0.015987 0.27276
vt 0.010242 0.265267
vt 0.015987 0.407042
vt 0.146788 0.225423
vt 0.202992 0.206778
vt 0.206003 0.218825
vt 0.25374 0.203883
vt 0.25374 0.218159
vt 0.301477 0.218825
vt 0.304488 0.206778
vt 0.360691 0.225423
vt 0.364715 0.212569
vt 0.421554 0.238045
vt 0.427426 0.227933
vt 0.483152 0.260378
vt 0.493767 0.252439
vt 0.491493 0.27276
vt 0.497238 0.265267
vt 0.497238 0.414534
vt 0.491493 0.407042
vt 0.493768 0.427362
vt 0.483152 0.419423
vt 0.427426 0.451868
vt 0.421555 0.441757
vt 0.364715 0.467232
vt 0.360691 0.454379
vt 0.304489 0.473023
vt 0.301478 0.460976
vt 0.25374 0.475918
vt 0.25374 0.461643
vt 0.206003 0.460976
vt 0.202992 0.473023
vt 0.146788 0.454378
vt 0.142764 0.467232
vt 0.085925 0.441757
vt 0.080055 0.451868
vt 0.024327 0.419423
vt 0.013713 0.427362
vt 0.010242 0.414534
vt 0.708251 0.93861
vt 0.790467 0.93861
vt 0.749359 0.940747
vt 0.839252 0.934337
vt 0.659465 0.933157
vt 0.890049 0.923
vt 0.608669 0.918869
vt 0.940838 0.906096
vt 0.554929 0.897834
vt 0.95029 0.89663
vt 0.545478 0.888368
vt 0.95324 0.785302
vt 0.545478 0.785302
vt 0.943789 0.775835
vt 0.55493 0.775835
vt 0.890049 0.757752
vt 0.608669 0.757752
vt 0.839252 0.746415
vt 0.659465 0.746415
vt 0.790467 0.742141
vt 0.708251 0.742141
vt 0.749359 0.740005
vn -0.08520509 0.9353321 -0.3433571
vn -0.03767016 0.9719268 -0.2322481
vn -0.08520512 0.9353337 0.3433525
vn -0.056963 0.934571 0.3511869
vn -0.3115365 0.9013295 0.3009154
vn -0.437095 0.847876 -0.3000906
vn -0.6708214 0.7292079 0.1351092
vn -0.6543565 0.728379 -0.2031787
vn -0.4083785 0.7486919 -0.5221949
vn -0.1847333 0.7525489 -0.6320947
vn -0.1052298 0.7454929 -0.6581543
vn -0.02617212 0.911607 -0.4102288
vn -0.04274098 0.7363073 -0.675296
vn 0 0.7382581 -0.6745182
vn 0 0.957907 -0.2870787
vn 0.02617211 0.9116064 -0.4102301
vn 0.0427412 0.7363021 -0.6753017
vn 0.1052276 0.7454987 -0.6581482
vn 0.05696245 0.9345704 -0.3511887
vn 0.08520113 0.9353361 -0.3433473
vn 0.03766966 0.9719281 0.2322431
vn 0.08520147 0.9353365 0.3433458
vn 0.3115365 0.90133 -0.300914
vn 0.4371132 0.8478709 0.3000782
vn 0.6708393 0.7291918 -0.1351078
vn 0.6544043 0.7283426 0.203155
vn 0.4084103 0.7486876 -0.522176
vn 0.1847289 0.7525622 -0.6320803
vn 0.4084105 0.7486923 0.5221691
vn 0.1847286 0.7525638 0.6320783
vn 0.105227 0.7455023 0.6581441
vn 0.02617197 0.9116076 0.4102274
vn 0.04274128 0.7363021 0.6753017
vn 0 0.73826 0.6745164
vn 0 0.9579082 0.2870749
vn -0.0261721 0.911607 0.4102288
vn -0.04274148 0.7363002 0.6753038
vn -0.1052301 0.7454962 0.6581506
vn -0.1847332 0.7525552 0.6320872
vn -0.4084057 0.748693 0.5221719
vn 0.04306444 0.9638507 0.2629393
vn 0.06522197 0.9754169 0.2104946
vn -0.0213924 0.9913874 -0.1292023
vn -0.03392211 0.9925078 -0.1173788
vn -0.008974961 0.9905004 -0.137217
vn 0.01320614 0.9624568 0.2711135
vn 0.1108422 0.9879172 0.1083206
vn -0.05807197 0.9948854 -0.08264849
vn -0.08640813 0.9959209 -0.02598375
vn 0.201787 0.9777948 0.05656342
vn 0.170848 0.9849932 -0.0244806
vn -0.08639303 0.9959216 0.02600496
vn 0.4743598 0.8699082 0.1350649
vn 0.4491441 0.8751755 -0.179826
vn 0.2507595 0.8648431 0.4349322
vn 0.1285629 0.8429863 0.5223464
vn 0.08431698 0.8417146 0.5332983
vn 0.04359812 0.846158 0.5311458
vn -0.05812895 0.994882 0.0826494
vn 0.179859 0.9658125 -0.1866997
vn 0.06266657 0.974975 -0.2132994
vn -0.02963739 0.9920419 0.1223705
vn 0.0416503 0.9634397 -0.2646681
vn -0.01827909 0.9909478 0.1329969
vn 0.00854801 0.9791561 -0.2029289
vn -0.006700916 0.9903361 0.1385266
vn 0.2507671 0.8648491 -0.434916
vn 0.1285626 0.8429845 -0.5223493
vn 0.08432039 0.8417006 -0.5333202
vn 0.0436004 0.8461561 -0.5311487
vn 0 0.9970235 -0.07709792
vn 0 0.9899991 0.141074
vn 0 0.8586901 -0.5124951
vn 0.008975379 0.9905004 0.1372169
vn -0.01320715 0.9624579 -0.2711095
vn -0.04306577 0.963848 -0.2629495
vn 0.02139188 0.9913877 0.129201
vn -0.06522379 0.9754151 -0.2105024
vn 0.03392204 0.9925076 0.1173792
vn -0.1108455 0.9879181 -0.1083099
vn 0.05807201 0.9948851 0.08265021
vn 0.08640857 0.9959209 0.02598339
vn -0.2017776 0.977797 -0.05655666
vn -0.1708399 0.9849946 0.02447942
vn 0.08639199 0.9959217 -0.02600709
vn 0.05812827 0.9948819 -0.08265162
vn -0.1798582 0.9658121 0.1867029
vn -0.06267039 0.9749725 0.2133099
vn 0.0296378 0.9920418 -0.1223712
vn -0.04164937 0.9634403 0.264666
vn 0.01827907 0.9909478 -0.1329976
vn -0.007014869 0.9882988 0.1523688
vn 0.008214368 0.990496 -0.1372955
vn -0.4743528 0.8699147 -0.1350473
vn -0.4491381 0.8751783 0.1798274
vn -0.2507724 0.8648414 0.4349283
vn -0.1285661 0.8429779 0.5223591
vn -0.08431535 0.8417131 0.5333011
vn -0.0435983 0.8461577 0.5311464
vn 0.001223236 0.9901612 -0.1399262
vn -0.0003932725 0.9925379 0.121936
vn 0 0.858688 0.5124987
vn -0.2507713 0.8648424 -0.4349268
vn -0.1285666 0.8429731 -0.5223668
vn -0.08431873 0.8416989 -0.5333228
vn -0.04360066 0.8461561 -0.5311487
vn -0.2568682 0.1736253 -0.9507223
vn -0.5190458 0.1796837 -0.8356466
vn -0.3043963 0.1629457 -0.938505
vn -0.1760566 0.1813994 -0.9675217
vn -0.6482106 0.1966327 -0.7356348
vn -0.8811483 0.2132315 -0.4220308
vn -0.9478148 0.2186303 -0.2320517
vn -0.9235858 0.2136243 0.3183613
vn -0.134003 0.1863271 -0.9733064
vn -0.08627915 0.180593 -0.9797662
vn -0.05958096 0.185728 -0.9807931
vn 0 0.1900353 -0.9817773
vn 0 0.204232 -0.9789225
vn 0.05958099 0.1857263 -0.9807935
vn 0.0862809 0.180591 -0.9797665
vn 0.1340052 0.1863253 -0.9733064
vn 0.1760559 0.1813995 -0.9675218
vn 0.2568648 0.1736272 -0.9507229
vn 0.3043942 0.1629464 -0.9385055
vn 0.5190408 0.1796808 -0.8356503
vn 0.6481972 0.1966272 -0.735648
vn 0.9235786 0.2136268 -0.3183806
vn 0.909301 0.2237931 -0.3508394
vn 0.9478134 0.2186316 0.2320564
vn 0.8811423 0.213234 0.422042
vn 0.648203 0.1966324 0.7356416
vn 0.5190387 0.1796852 0.8356507
vn 0.304395 0.1629479 0.9385051
vn 0.2568669 0.1736276 0.9507223
vn 0.1760559 0.1814005 0.9675216
vn 0.1340028 0.1863271 0.9733064
vn 0.0862793 0.180593 0.9797662
vn 0.05958256 0.185728 0.980793
vn 0 0.190036 0.9817771
vn 0 0.204232 0.9789225
vn -0.05958322 0.1857281 0.980793
vn -0.08627941 0.1805939 0.9797662
vn -0.1340019 0.186329 0.9733062
vn -0.1760557 0.1814018 0.9675214
vn -0.2568675 0.1736269 0.9507222
vn -0.3043965 0.1629453 0.938505
vn -0.5190558 0.179681 0.835641
vn -0.6482186 0.1966298 0.7356285
vn -0.9093067 0.2237935 0.3508245
vn 0 -0.999984 0.005663057
vn 0 -0.9999911 0.004247297
vn 0 -1 0
vn 0 -0.9999607 0.00887676
vn 0 -0.9999572 0.009259004
vn 0 -0.9999645 0.008438679
vn 0 -0.9999739 0.007236099
vn 0 -0.9999919 0.004022357
vn 0 -0.999998 0.002011178
vn 0 -1 0
vn 0 -1 0
vn 0 -1 0
vn 0 -1 0
vn 0 -0.999998 -0.002011178
vn 0 -0.9999919 -0.004022356
vn 0 -0.9999739 -0.007236099
vn 0 -0.9999645 -0.00843868
vn 0 -0.9999572 -0.009259086
vn 0 -0.9999607 -0.008876923
vn 0 -0.999984 -0.005663219
vn 0 -0.9999911 -0.004247419
vn 0 -1 0
g Button_EndTurn_0
f 3/3/3 2/2/2 1/1/1
f 4/4/4 2/2/2 3/3/3
f 3/3/3 1/1/1 5/5/5
f 5/5/5 1/1/1 6/6/6
f 5/5/5 6/6/6 7/7/7
f 7/7/7 6/6/6 8/8/8
f 8/8/8 6/6/6 9/9/9
f 10/10/10 6/6/6 1/1/1
f 9/9/9 6/6/6 10/10/10
f 11/11/11 1/1/1 2/2/2
f 10/10/10 1/1/1 11/11/11
f 2/2/2 12/12/12 11/11/11
f 11/11/11 12/12/12 13/13/13
f 13/13/13 12/12/12 14/14/14
f 14/14/14 12/12/12 15/15/15
f 15/15/15 16/16/16 14/14/14
f 14/14/14 16/16/16 17/17/17
f 17/17/17 16/16/16 18/18/18
f 18/18/18 16/16/16 19/19/19
f 19/19/19 20/20/20 18/18/18
f 21/21/21 20/20/20 19/19/19
f 19/19/19 16/16/16 21/21/21
f 22/22/22 20/20/20 21/21/21
f 22/22/22 23/23/23 20/20/20
f 24/24/24 23/23/23 22/22/22
f 24/24/24 25/25/25 23/23/23
f 26/26/26 25/25/25 24/24/24
f 27/27/27 23/23/23 25/25/25
f 28/28/28 23/23/23 27/27/27
f 20/20/20 23/23/23 28/28/28
f 18/18/18 20/20/20 28/28/28
f 26/26/26 24/24/24 29/29/29
f 30/30/30 24/24/24 22/22/22
f 29/29/29 24/24/24 30/30/30
f 31/31/31 22/22/22 21/21/21
f 30/30/30 22/22/22 31/31/31
f 21/21/21 32/32/32 31/31/31
f 31/31/31 32/32/32 33/33/33
f 33/33/33 32/32/32 34/34/34
f 34/34/34 32/32/32 35/35/35
f 35/35/35 36/36/36 34/34/34
f 34/34/34 36/36/36 37/37/37
f 37/37/37 36/36/36 38/38/38
f 38/38/38 36/36/36 4/4/4
f 4/4/4 3/3/3 38/38/38
f 38/38/38 3/3/3 39/39/39
f 3/3/3 5/5/5 39/39/39
f 39/39/39 5/5/5 40/40/40
f 40/40/40 5/5/5 7/7/7
f 35/35/35 12/12/12 36/36/36
f 15/15/15 12/12/12 35/35/35
f 32/32/32 15/15/15 35/35/35
f 36/36/36 2/2/2 4/4/4
f 12/12/12 2/2/2 36/36/36
f 16/16/16 15/15/15 32/32/32
f 21/21/21 16/16/16 32/32/32
f 43/43/43 42/42/42 41/41/41
f 44/44/44 42/42/42 43/43/43
f 43/43/43 41/41/41 45/45/45
f 45/45/45 41/41/41 46/46/46
f 44/44/44 47/47/47 42/42/42
f 48/48/48 47/47/47 44/44/44
f 49/49/49 47/47/47 48/48/48
f 50/50/50 47/47/47 49/49/49
f 49/49/49 51/51/51 50/50/50
f 52/52/52 51/51/51 49/49/49
f 51/51/51 53/53/53 50/50/50
f 50/50/50 53/53/53 47/47/47
f 54/54/54 53/53/53 51/51/51
f 47/47/47 53/53/53 55/55/55
f 47/47/47 55/55/55 42/42/42
f 42/42/42 55/55/55 56/56/56
f 42/42/42 56/56/56 41/41/41
f 41/41/41 56/56/56 57/57/57
f 41/41/41 58/58/58 46/46/46
f 57/57/57 58/58/58 41/41/41
f 59/59/59 51/51/51 52/52/52
f 60/60/60 51/51/51 59/59/59
f 60/60/60 54/54/54 51/51/51
f 59/59/59 61/61/61 60/60/60
f 62/62/62 61/61/61 59/59/59
f 62/62/62 63/63/63 61/61/61
f 64/64/64 63/63/63 62/62/62
f 64/64/64 65/65/65 63/63/63
f 66/66/66 65/65/65 64/64/64
f 61/61/61 67/67/67 60/60/60
f 67/67/67 54/54/54 60/60/60
f 68/68/68 67/67/67 61/61/61
f 63/63/63 68/68/68 61/61/61
f 69/69/69 68/68/68 63/63/63
f 63/63/63 70/70/70 69/69/69
f 65/65/65 70/70/70 63/63/63
f 66/66/66 71/71/71 65/65/65
f 72/72/72 71/71/71 66/66/66
f 65/65/65 73/73/73 70/70/70
f 71/71/71 73/73/73 65/65/65
f 72/72/72 74/74/74 71/71/71
f 71/71/71 74/74/74 75/75/75
f 75/75/75 73/73/73 71/71/71
f 74/74/74 76/76/76 75/75/75
f 77/77/77 76/76/76 74/74/74
f 77/77/77 78/78/78 76/76/76
f 79/79/79 78/78/78 77/77/77
f 79/79/79 80/80/80 78/78/78
f 81/81/81 80/80/80 79/79/79
f 82/82/82 80/80/80 81/81/81
f 83/83/83 80/80/80 82/82/82
f 82/82/82 84/84/84 83/83/83
f 85/85/85 84/84/84 82/82/82
f 86/86/86 84/84/84 85/85/85
f 87/87/87 84/84/84 86/86/86
f 86/86/86 88/88/88 87/87/87
f 89/89/89 88/88/88 86/86/86
f 89/89/89 90/90/90 88/88/88
f 91/91/91 90/90/90 89/89/89
f 91/91/91 92/92/92 90/90/90
f 93/93/93 92/92/92 91/91/91
f 83/83/83 84/84/84 94/94/94
f 83/83/83 94/94/94 80/80/80
f 94/94/94 84/84/84 95/95/95
f 87/87/87 95/95/95 84/84/84
f 96/96/96 95/95/95 87/87/87
f 88/88/88 96/96/96 87/87/87
f 97/97/97 96/96/96 88/88/88
f 90/90/90 97/97/97 88/88/88
f 98/98/98 97/97/97 90/90/90
f 90/90/90 99/99/99 98/98/98
f 92/92/92 99/99/99 90/90/90
f 93/93/93 100/100/100 92/92/92
f 92/92/92 100/100/100 101/101/101
f 100/100/100 45/45/45 101/101/101
f 101/101/101 45/45/45 46/46/46
f 46/46/46 102/102/102 101/101/101
f 92/92/92 102/102/102 99/99/99
f 101/101/101 102/102/102 92/92/92
f 58/58/58 102/102/102 46/46/46
f 80/80/80 94/94/94 103/103/103
f 80/80/80 103/103/103 78/78/78
f 78/78/78 103/103/103 104/104/104
f 78/78/78 104/104/104 76/76/76
f 76/76/76 104/104/104 105/105/105
f 105/105/105 106/106/106 76/76/76
f 76/76/76 106/106/106 75/75/75
f 106/106/106 73/73/73 75/75/75
f 109/109/109 108/108/108 107/107/107
f 109/109/109 107/107/107 110/110/110
f 111/111/111 108/108/108 109/109/109
f 111/111/111 112/112/112 108/108/108
f 113/113/113 112/112/112 111/111/111
f 112/112/112 113/113/113 114/114/114
f 110/110/110 107/107/107 115/115/115
f 110/110/110 115/115/115 116/116/116
f 116/116/116 115/115/115 117/117/117
f 116/116/116 117/117/117 118/118/118
f 118/118/118 117/117/117 119/119/119
f 119/119/119 120/120/120 118/118/118
f 118/118/118 120/120/120 121/121/121
f 120/120/120 122/122/122 121/121/121
f 121/121/121 122/122/122 123/123/123
f 122/122/122 124/124/124 123/123/123
f 123/123/123 124/124/124 125/125/125
f 124/124/124 126/126/126 125/125/125
f 125/125/125 126/126/126 127/127/127
f 126/126/126 128/128/128 127/127/127
f 127/127/127 128/128/128 129/129/129
f 129/129/129 128/128/128 130/130/130
f 130/130/130 128/128/128 131/131/131
f 130/130/130 131/131/131 132/132/132
f 132/132/132 131/131/131 133/133/133
f 132/132/132 133/133/133 134/134/134
f 134/134/134 133/133/133 135/135/135
f 134/134/134 135/135/135 136/136/136
f 136/136/136 135/135/135 137/137/137
f 136/136/136 137/137/137 138/138/138
f 138/138/138 137/137/137 139/139/139
f 138/138/138 139/139/139 140/140/140
f 140/140/140 139/139/139 141/141/141
f 141/141/141 142/142/142 140/140/140
f 140/140/140 142/142/142 143/143/143
f 142/142/142 144/144/144 143/143/143
f 143/143/143 144/144/144 145/145/145
f 144/144/144 146/146/146 145/145/145
f 145/145/145 146/146/146 147/147/147
f 146/146/146 148/148/148 147/147/147
f 147/147/147 148/148/148 149/149/149
f 148/148/148 114/114/114 149/149/149
f 149/149/149 114/114/114 150/150/150
f 114/114/114 113/113/113 150/150/150
f 153/153/153 152/152/152 151/151/151
f 154/154/154 151/151/151 152/152/152
f 155/155/155 151/151/151 154/154/154
f 156/156/156 155/155/155 154/154/154
f 157/157/157 155/155/155 156/156/156
f 158/158/158 157/157/157 156/156/156
f 159/159/159 157/157/157 158/158/158
f 160/160/160 159/159/159 158/158/158
f 161/161/161 159/159/159 160/160/160
f 162/162/162 161/161/161 160/160/160
f 163/163/163 161/161/161 162/162/162
f 164/164/164 163/163/163 162/162/162
f 165/165/165 163/163/163 164/164/164
f 166/166/166 165/165/165 164/164/164
f 167/167/167 165/165/165 166/166/166
f 168/168/168 167/167/167 166/166/166
f 169/169/169 167/167/167 168/168/168
f 170/170/170 169/169/169 168/168/168
f 171/171/171 169/169/169 170/170/170
f 172/172/172 171/171/171 170/170/170
