g CatapultRockPile_mesh
v 1143.391 53.63915 -217.5483
v 1133.471 53.63915 -221.6018
v 1141.792 61.53224 -229.7946
v 1157.416 65.76299 -229.7531
v 1155.074 66.83759 -245.7269
v 1144.128 63.04054 -245.0946
v 1132.58 53.63915 -228.8096
v 1134.382 53.63915 -240.8214
v 1149.125 53.63915 -214.2558
v 1157.187 53.63915 -213.6279
v 1166.964 53.63915 -216.3472
v 1171.769 53.63915 -224.6053
v 1174.739 53.63915 -240.7948
v 1155.074 66.83759 -245.7269
v 1174.552 53.63915 -250.7509
v 1155.074 66.83759 -245.7269
v 1168.425 53.63915 -256.2902
v 1159.122 53.63915 -257.6193
v 1144.128 63.04054 -245.0946
v 1134.382 53.63915 -240.8214
v 1146.629 53.63915 -256.0244
v 1155.074 66.83759 -245.7269
v 1144.128 63.04054 -245.0946
v 1159.122 53.63915 -257.6193
v 1146.629 53.63915 -256.0244
v 1146.629 53.63915 -256.0244
v 1134.382 53.63915 -240.8214
v 1139.385 53.63915 -251.1887
v 1139.385 53.63915 -251.1887
v 1134.382 53.63915 -240.8214
v 1144.184 42.49616 -246.459
v 1149.551 42.49616 -249.8286
v 1146.629 53.63915 -256.0244
v 1158.376 42.49616 -250.9551
v 1159.122 53.63915 -257.6193
v 1164.947 42.49616 -250.0164
v 1168.425 53.63915 -256.2902
v 1169.033 42.49616 -246.4181
v 1174.552 53.63915 -250.7509
v 1169.485 42.49616 -238.9756
v 1174.739 53.63915 -240.7948
v 1167.309 42.49616 -227.6364
v 1171.769 53.63915 -224.6053
v 1163.915 42.49616 -221.8033
v 1166.964 53.63915 -216.3472
v 1156.385 42.49616 -220.0003
v 1157.187 53.63915 -213.6279
v 1147.264 42.49616 -222.6519
v 1149.125 53.63915 -214.2558
v 1143.391 53.63915 -217.5483
v 1140.258 42.49616 -225.5149
v 1133.471 53.63915 -221.6018
v 1139.629 42.49616 -230.6058
v 1132.58 53.63915 -228.8096
v 1140.901 42.49616 -239.0903
v 1134.382 53.63915 -240.8214
v 1144.184 42.49616 -246.459
v 1138.064 61.53224 -187.1319
v 1128.986 53.63915 -173.3835
v 1127.571 53.63915 -185.3404
v 1139.642 63.04054 -196.8764
v 1144.972 64.52139 -198.7311
v 1138.906 53.63915 -169.3301
v 1158.153 65.76299 -190.9704
v 1131.666 53.63915 -193.2737
v 1134.899 53.63915 -202.9705
v 1139.206 53.63915 -208.9835
v 1147.383 53.03426 -209.9578
v 1144.972 64.52139 -198.7311
v 1153.509 53.63915 -209.562
v 1153.308 66.83759 -201.6323
v 1155.591 53.36469 -162.4969
v 1158.153 65.76299 -190.9704
v 1164.227 52.78162 -163.6336
v 1155.591 53.36469 -162.4969
v 1158.153 65.76299 -190.9704
v 1170.696 53.63915 -183.2862
v 1171.864 53.63915 -190.9658
v 1158.153 65.76299 -190.9704
v 1153.308 66.83759 -201.6323
v 1153.308 66.83759 -201.6323
v 1169.902 53.69638 -195.1198
v 1169.555 53.7496 -201.1416
v 1153.308 66.83759 -201.6323
v 1163.199 53.63915 -205.78
v 1153.509 53.63915 -209.562
v 1128.986 53.63915 -173.3835
v 1138.906 53.63915 -169.3301
v 1136.952 40.2679 -178.7789
v 1142.742 39.78574 -176.8623
v 1155.591 53.36469 -162.4969
v 1153.701 39.7501 -172.4775
v 1164.227 52.78162 -163.6336
v 1156.121 40.37833 -173.3484
v 1170.696 53.63915 -183.2862
v 1160.812 41.25019 -185.2879
v 1171.864 53.63915 -190.9658
v 1160.227 41.34071 -190.7551
v 1169.902 53.69638 -195.1198
v 1160.01 41.59933 -192.6513
v 1169.555 53.7496 -201.1416
v 1159.671 42.00385 -195.617
v 1153.308 66.83759 -201.6323
v 1144.972 64.52139 -198.7311
v 1153.509 53.63915 -209.562
v 1137.446 41.13492 -185.1254
v 1128.986 53.63915 -173.3835
v 1136.952 40.2679 -178.7789
v 1127.571 53.63915 -185.3404
v 1128.986 53.63915 -173.3835
v 1141.077 42.20995 -189.8443
v 1131.666 53.63915 -193.2737
v 1143.167 42.5438 -196.2012
v 1134.899 53.63915 -202.9705
v 1144.843 42.24452 -198.5578
v 1139.206 53.63915 -208.9835
v 1147.383 53.03426 -209.9578
v 1153.509 53.63915 -209.562
v 1152.294 42.82819 -198.4084
v 1156.847 43.12062 -196.079
v 1163.199 53.63915 -205.78
v 1159.671 42.00385 -195.617
v 1169.555 53.7496 -201.1416
v 1163.199 53.63915 -205.78
v 1159.671 42.00385 -195.617
v 1130.658 61.53224 -145.4402
v 1114.435 53.63915 -141.2013
v 1112.679 53.63915 -148.5922
v 1120.125 57.50469 -161.8914
v 1111.801 53.63915 -157.9589
v 1130.753 64.52139 -159.276
v 1113.118 53.63915 -165.5693
v 1121.094 53.63915 -171.1307
v 1125.119 53.03426 -172.4478
v 1130.753 64.52139 -159.276
v 1129.729 53.63915 -133.2982
v 1140.559 65.76299 -142.8845
v 1140.559 65.76299 -142.8845
v 1129.509 53.63915 -173.2527
v 1130.753 64.52139 -159.276
v 1140.779 53.63915 -132.8593
v 1129.729 53.63915 -133.2982
v 1140.559 65.76299 -142.8845
v 1151.011 53.63915 -138.5489
v 1140.779 53.63915 -132.8593
v 1140.559 65.76299 -142.8845
v 1151.011 53.63915 -138.5489
v 1140.559 65.76299 -142.8845
v 1156.585 53.63915 -144.7139
v 1140.559 65.76299 -142.8845
v 1136.827 55.38749 -163.8129
v 1130.753 64.52139 -159.276
v 1156.853 49.53482 -161.0285
v 1151.298 52.42943 -166.9624
v 1142.242 53.7496 -168.9354
v 1136.681 53.63915 -170.9843
v 1129.509 53.63915 -173.2527
v 1130.753 64.52139 -159.276
v 1156.585 53.63915 -144.7139
v 1156.853 49.53482 -161.0285
v 1149.671 44.08086 -146.231
v 1147.141 44.08086 -141.288
v 1151.011 53.63915 -138.5489
v 1139.309 44.08086 -136.9332
v 1140.779 53.63915 -132.8593
v 1131.204 44.08086 -137.2717
v 1129.729 53.63915 -133.2982
v 1120.097 44.08086 -143.0945
v 1114.435 53.63915 -141.2013
v 1117.801 44.08086 -148.9754
v 1112.679 53.63915 -148.5922
v 1117.128 44.08086 -156.1449
v 1111.801 53.63915 -157.9589
v 1118.137 44.08086 -161.97
v 1113.118 53.63915 -165.5693
v 1124.242 44.08086 -166.2268
v 1121.094 53.63915 -171.1307
v 1127.322 43.61787 -167.235
v 1125.119 53.03426 -172.4478
v 1130.627 44.08086 -167.179
v 1129.509 53.63915 -173.2527
v 1136.116 44.08086 -165.2746
v 1136.681 53.63915 -170.9843
v 1140.429 44.1654 -164.5465
v 1142.242 53.7496 -168.9354
v 1144.63 44.12467 -162.8662
v 1151.298 52.42943 -166.9624
v 1153.311 41.9865 -157.8251
v 1156.853 49.53482 -161.0285
v 1149.671 44.08086 -146.231
v 1156.853 49.53482 -161.0285
v 1153.311 41.9865 -157.8251
v 1174.751 71.5389 -155.304
v 1172.567 63.0644 -147.5638
v 1170.532 63.0644 -153.9457
v 1170.042 71.5389 -169.0867
v 1176.572 63.0644 -142.5657
v 1181.184 76.31901 -153.7896
v 1170.042 71.5389 -169.0867
v 1170.532 63.0644 -153.9457
v 1161.853 63.0644 -166.1617
v 1167.478 63.0644 -182.0848
v 1174.751 71.5389 -155.304
v 1181.184 76.31901 -153.7896
v 1181.184 76.31901 -153.7896
v 1180.211 76.31901 -170.8985
v 1175.878 63.0644 -186.8596
v 1185.163 63.0644 -186.4174
v 1194.978 63.0644 -186.5059
v 1193.474 71.5389 -170.0593
v 1181.184 76.31901 -153.7896
v 1205.146 63.0644 -186.1523
v 1216.315 63.0644 -169.2065
v 1192.767 71.5389 -157.0612
v 1181.184 76.31901 -153.7896
v 1212.8 63.0644 -161.1598
v 1203.459 63.0644 -153.2982
v 1193.192 63.0644 -141.2745
v 1180.521 63.0644 -140.5345
v 1181.184 76.31901 -153.7896
v 1170.042 71.5389 -169.0867
v 1167.478 63.0644 -182.0848
v 1175.878 63.0644 -186.8596
v 1180.521 63.0644 -140.5345
v 1176.572 63.0644 -142.5657
v 1181.184 76.31901 -153.7896
v 1172.567 63.0644 -147.5638
v 1176.572 63.0644 -142.5657
v 1177.367 44.95549 -152.1016
v 1180.245 44.95549 -148.5093
v 1175.904 44.95549 -156.6885
v 1170.532 63.0644 -153.9457
v 1170.453 44.95549 -164.9979
v 1161.853 63.0644 -166.1617
v 1173.709 44.95549 -176.9129
v 1167.478 63.0644 -182.0848
v 1179.747 44.95549 -180.3446
v 1175.878 63.0644 -186.8596
v 1186.42 44.95549 -180.0268
v 1185.163 63.0644 -186.4174
v 1193.474 44.95549 -180.0905
v 1194.978 63.0644 -186.5059
v 1200.782 44.95549 -179.8362
v 1205.146 63.0644 -186.1523
v 1208.81 44.95549 -167.6569
v 1216.315 63.0644 -169.2065
v 1206.283 44.95549 -161.8736
v 1212.8 63.0644 -161.1598
v 1199.569 44.95549 -156.2231
v 1203.459 63.0644 -153.2982
v 1192.191 44.95549 -147.5813
v 1193.192 63.0644 -141.2745
v 1183.083 44.95549 -147.0496
v 1180.521 63.0644 -140.5345
v 1180.245 44.95549 -148.5093
v 1176.572 63.0644 -142.5657
v 1159.244 52.98376 -149.4699
v 1155.725 49.1829 -144.0904
v 1154.192 49.1829 -148.6073
v 1160.004 53.71006 -154.1621
v 1162.571 54.42316 -155.0555
v 1163.404 48.89162 -164.6802
v 1160.286 49.1829 -141.6692
v 1168.918 55.02104 -151.3183
v 1168.918 55.02104 -151.3183
v 1167.631 49.1829 -140.3156
v 1166.585 55.53851 -156.4524
v 1165.865 49.1829 -164.8838
v 1154.361 44.77213 -162.5425
v 1159.195 49.1829 -166.0036
v 1160.004 53.71006 -154.1621
v 1156.164 49.1829 -152.4274
v 1166.585 55.53851 -156.4524
v 1165.865 49.1829 -164.8838
v 1163.404 48.89162 -164.6802
v 1160.004 53.71006 -154.1621
v 1159.195 49.1829 -166.0036
v 1170.774 49.1829 -141.1165
v 1167.631 49.1829 -140.3156
v 1168.918 55.02104 -151.3183
v 1174.958 49.1829 -147.6181
v 1175.521 49.1829 -151.3162
v 1168.918 55.02104 -151.3183
v 1166.585 55.53851 -156.4524
v 1166.585 55.53851 -156.4524
v 1174.576 49.21046 -153.3164
v 1174.409 49.23608 -156.2161
v 1166.585 55.53851 -156.4524
v 1171.348 49.1829 -158.4498
v 1165.865 49.1829 -164.8838
v 1171.348 49.1829 -158.4498
v 1160.286 49.1829 -141.6692
v 1167.631 49.1829 -140.3156
v 1162.133 45.25821 -145.2964
v 1159.346 45.49038 -146.2193
v 1155.725 49.1829 -144.0904
v 1158.947 45.90789 -148.5037
v 1154.192 49.1829 -148.6073
v 1166.967 45.24104 -144.7194
v 1170.774 49.1829 -141.1165
v 1168.132 45.54356 -145.1387
v 1174.958 49.1829 -147.6181
v 1170.198 45.9634 -148.582
v 1175.521 49.1829 -151.3162
v 1169.917 46.00699 -151.2146
v 1174.576 49.21046 -153.3164
v 1169.813 46.13153 -152.1278
v 1174.409 49.23608 -156.2161
v 1169.649 46.32632 -153.5559
v 1171.348 49.1829 -158.4498
v 1168.289 46.86409 -153.7784
v 1165.865 49.1829 -164.8838
v 1166.097 46.72327 -154.9
v 1162.509 46.44221 -154.9719
v 1163.404 48.89162 -164.6802
v 1159.195 49.1829 -166.0036
v 1154.361 44.77213 -162.5425
v 1162.509 46.44221 -154.9719
v 1154.361 44.77213 -162.5425
v 1161.701 46.58633 -153.8371
v 1154.361 44.77213 -162.5425
v 1156.164 49.1829 -152.4274
v 1160.695 46.42556 -150.7759
v 1192.881 60.91554 -183.102
v 1190.697 55.95864 -175.3616
v 1188.663 55.95864 -181.7435
v 1191.279 64.43314 -196.3022
v 1181.475 55.95864 -188.9826
v 1185.698 55.95864 -199.2824
v 1194.702 55.95864 -170.3634
v 1200.874 62.0814 -185.9968
v 1191.279 64.43314 -196.3022
v 1198.651 55.95864 -168.3325
v 1213.919 58.28343 -187.2316
v 1211.447 55.95864 -171.061
v 1220.511 55.95864 -177.7559
v 1197.465 69.21323 -197.1705
v 1191.279 64.43314 -196.3022
v 1230.339 53.35941 -185.5455
v 1230.943 52.41487 -191.246
v 1205.527 68.8546 -196.9316
v 1191.279 64.43314 -196.3022
v 1192.187 55.95864 -207.7282
v 1191.279 64.43314 -196.3022
v 1192.187 55.95864 -207.7282
v 1197.465 69.21323 -197.1705
v 1201.698 55.95864 -210.7369
v 1210.979 56.28923 -214.6647
v 1205.527 68.8546 -196.9316
v 1225.032 55.95864 -206.7211
v 1230.943 52.41487 -191.246
v 1205.527 68.8546 -196.9316
v 1211.447 55.95864 -171.061
v 1220.511 55.95864 -177.7559
v 1211.707 42.95918 -174.0916
v 1201.817 42.95918 -171.9827
v 1198.651 55.95864 -168.3325
v 1218.712 42.95918 -179.2659
v 1230.339 53.35941 -185.5455
v 1226.308 41.09258 -185.2865
v 1230.943 52.41487 -191.246
v 1226.775 40.41428 -189.6922
v 1198.765 42.95918 -173.5525
v 1194.702 55.95864 -170.3634
v 1195.67 42.95918 -177.4154
v 1190.697 55.95864 -175.3616
v 1194.097 42.95918 -182.3479
v 1188.663 55.95864 -181.7435
v 1188.542 42.95918 -187.9428
v 1181.475 55.95864 -188.9826
v 1225.032 55.95864 -206.7211
v 1222.206 42.95918 -201.6526
v 1210.979 56.28923 -214.6647
v 1211.345 43.19659 -207.7921
v 1201.698 55.95864 -210.7369
v 1204.172 42.95918 -204.7563
v 1192.187 55.95864 -207.7282
v 1196.821 42.95918 -202.431
v 1185.698 55.95864 -199.2824
v 1191.806 42.95918 -195.9035
v 1181.475 55.95864 -188.9826
v 1188.542 42.95918 -187.9428
v 1146.75 67.65229 -125.6235
v 1139.624 61.7584 -114.4481
v 1134.075 61.7523 -122.0678
v 1149.436 61.84304 -112.6961
v 1156.45 72.55951 -124.1121
v 1146.324 67.68158 -133.0515
v 1153.178 72.57587 -134.6403
v 1134.893 61.7947 -129.6472
v 1139.5 61.86686 -137.078
v 1150.8 61.9985 -144.4997
v 1157.351 62.07037 -146.7556
v 1156.45 72.55951 -124.1121
v 1153.178 72.57587 -134.6403
v 1153.178 72.57587 -134.6403
v 1157.351 62.07037 -146.7556
v 1160.816 61.95987 -114.8297
v 1149.436 61.84304 -112.6961
v 1156.45 72.55951 -124.1121
v 1169.57 62.05494 -117.6281
v 1176.986 62.18946 -132.0402
v 1156.45 72.55951 -124.1121
v 1153.178 72.57587 -134.6403
v 1174.994 62.13434 -123.935
v 1156.45 72.55951 -124.1121
v 1169.57 62.05494 -117.6281
v 1153.178 72.57587 -134.6403
v 1170.541 62.16785 -140.7683
v 1153.178 72.57587 -134.6403
v 1157.351 62.07037 -146.7556
v 1150.8 61.9985 -144.4997
v 1139.5 61.86686 -137.078
v 1151.408 44.34121 -140.5426
v 1156.621 44.39839 -142.3376
v 1157.351 62.07037 -146.7556
v 1139.624 61.7584 -114.4481
v 1149.436 61.84304 -112.6961
v 1142.515 44.15017 -116.6315
v 1150.323 44.21751 -115.2372
v 1160.816 61.95987 -114.8297
v 1159.378 44.31047 -116.935
v 1169.57 62.05494 -117.6281
v 1166.343 44.38611 -119.1615
v 1139.208 44.14531 -122.5011
v 1134.075 61.7523 -122.0678
v 1139.982 44.17905 -128.4004
v 1134.893 61.7947 -129.6472
v 1143.386 44.23646 -134.0469
v 1139.5 61.86686 -137.078
v 1151.408 44.34121 -140.5426
v 1169.57 62.05494 -117.6281
v 1174.994 62.13434 -123.935
v 1166.343 44.38611 -119.1615
v 1170.658 44.44929 -124.1797
v 1176.986 62.18946 -132.0402
v 1172.243 44.49315 -130.629
v 1170.541 62.16785 -140.7683
v 1167.115 44.47595 -137.5736
v 1157.351 62.07037 -146.7556
v 1156.621 44.39839 -142.3376
v 1187.93 67.08969 -127.3344
v 1185.161 61.19581 -118.9192
v 1180.462 61.18971 -123.9591
v 1187.624 67.11899 -134.5449
v 1180.035 61.23211 -132.2454
v 1193.532 72.01328 -133.8683
v 1182.085 61.30426 -138.3105
v 1188.748 61.43591 -141.9836
v 1198.573 61.50777 -142.8378
v 1191.226 61.28045 -116.6982
v 1196.693 71.99691 -126.6073
v 1193.532 72.01328 -133.8683
v 1191.226 61.28045 -116.6982
v 1193.532 72.01328 -133.8683
v 1198.573 61.50777 -142.8378
v 1200.025 61.39728 -115.5874
v 1191.226 61.28045 -116.6982
v 1196.693 71.99691 -126.6073
v 1211.286 61.62687 -133.1781
v 1196.693 71.99691 -126.6073
v 1193.532 72.01328 -133.8683
v 1193.532 72.01328 -133.8683
v 1205.662 61.60525 -140.6169
v 1210.617 61.57174 -126.6927
v 1196.693 71.99691 -126.6073
v 1211.286 61.62687 -133.1781
v 1206.588 61.49234 -120.1081
v 1210.617 61.57174 -126.6927
v 1205.662 61.60525 -140.6169
v 1193.532 72.01328 -133.8683
v 1198.573 61.50777 -142.8378
v 1206.588 61.49234 -120.1081
v 1200.025 61.39728 -115.5874
v 1196.693 71.99691 -126.6073
v 1185.161 61.19581 -118.9192
v 1191.226 61.28045 -116.6982
v 1190.487 41.70901 -119.7003
v 1194.719 41.75944 -118.1503
v 1200.025 61.39728 -115.5874
v 1200.86 41.82904 -117.3753
v 1187.208 41.70538 -123.2174
v 1180.462 61.18971 -123.9591
v 1186.91 41.73064 -129
v 1180.035 61.23211 -132.2454
v 1188.341 41.77362 -133.2325
v 1182.085 61.30426 -138.3105
v 1192.991 41.85205 -135.7959
v 1188.748 61.43591 -141.9836
v 1199.846 41.89487 -136.392
v 1198.573 61.50777 -142.8378
v 1200.025 61.39728 -115.5874
v 1206.588 61.49234 -120.1081
v 1200.86 41.82904 -117.3753
v 1205.44 41.88568 -120.53
v 1210.617 61.57174 -126.6927
v 1208.252 41.93298 -125.1251
v 1210.617 61.57174 -126.6927
v 1211.286 61.62687 -133.1781
v 1208.719 41.96582 -129.651
v 1211.286 61.62687 -133.1781
v 1205.662 61.60525 -140.6169
v 1204.794 41.95295 -134.8422
v 1205.662 61.60525 -140.6169
v 1198.573 61.50777 -142.8378
v 1204.794 41.95295 -134.8422
v 1198.573 61.50777 -142.8378
v 1199.846 41.89487 -136.392
v 1220.278 67.09466 -140.1729
v 1210.776 60.32581 -127.2868
v 1194.703 60.32581 -142.9575
v 1220.278 67.09466 -153.3089
v 1201.758 60.32581 -153.3125
v 1228.328 72.34848 -157.1843
v 1219.955 60.32581 -124.8704
v 1230.944 72.34848 -145.4101
v 1229.898 60.32581 -123.1697
v 1212.105 60.32581 -160.8476
v 1231.075 60.32581 -173.0143
v 1220.278 60.32581 -166.4448
v 1230.944 72.34848 -145.4101
v 1228.328 72.34848 -157.1843
v 1250.176 60.32581 -154.1754
v 1230.944 72.34848 -145.4101
v 1228.328 72.34848 -157.1843
v 1244.027 60.32581 -166.8656
v 1238.532 60.32581 -129.9727
v 1229.898 60.32581 -123.1697
v 1244.812 60.32581 -143.7094
v 1230.944 72.34848 -145.4101
v 1250.176 60.32581 -154.1754
v 1238.532 60.32581 -129.9727
v 1244.027 60.32581 -166.8656
v 1228.328 72.34848 -157.1843
v 1231.075 60.32581 -173.0143
v 1201.758 60.32581 -153.3125
v 1194.703 60.32581 -142.9575
v 1212.003 43.02505 -147.8405
v 1216.64 43.02505 -156.9919
v 1212.105 60.32581 -160.8476
v 1223.512 43.02505 -161.7271
v 1220.278 60.32581 -166.4448
v 1233.478 43.02505 -165.0452
v 1231.075 60.32581 -173.0143
v 1244.216 43.02505 -161.8726
v 1244.027 60.32581 -166.8656
v 1250.045 43.02505 -150.7739
v 1250.176 60.32581 -154.1754
v 1245.435 43.02505 -141.2517
v 1250.176 60.32581 -154.1754
v 1244.812 60.32581 -143.7094
v 1239.823 43.02505 -129.2938
v 1238.532 60.32581 -129.9727
v 1232.258 43.02505 -123.681
v 1229.898 60.32581 -123.1697
v 1212.003 43.02505 -147.8405
v 1194.703 60.32581 -142.9575
v 1209.318 43.02505 -138.2012
v 1194.703 60.32581 -142.9575
v 1210.776 60.32581 -127.2868
v 1214.931 43.02505 -126.3655
v 1219.955 60.32581 -124.8704
v 1223.472 43.02505 -124.9012
v 1229.898 60.32581 -123.1697
v 1232.258 43.02505 -123.681
v 1220.168 52.98376 -161.8209
v 1220.562 49.1829 -155.4045
v 1216.633 49.1829 -158.1095
v 1217.973 53.71006 -166.0373
v 1212.236 49.1829 -160.1934
v 1225.666 49.1829 -156.19
v 1226.818 55.02104 -169.0851
v 1232.364 49.1829 -159.4952
v 1219.496 54.42316 -168.2873
v 1220.168 52.98376 -161.8209
v 1217.973 53.71006 -166.0373
v 1215.114 48.89162 -174.5842
v 1226.818 55.02104 -169.0851
v 1218.778 49.1829 -175.7616
v 1219.496 54.42316 -168.2873
v 1221.879 55.53851 -171.8066
v 1217.973 53.71006 -166.0373
v 1212.236 49.1829 -160.1934
v 1208.44 44.77213 -169.3829
v 1217.973 53.71006 -166.0373
v 1210.246 49.1829 -175.0468
v 1215.114 48.89162 -174.5842
v 1217.973 53.71006 -166.0373
v 1210.246 49.1829 -175.0468
v 1234.404 49.1829 -162.0157
v 1232.364 49.1829 -159.4952
v 1226.818 55.02104 -169.0851
v 1220.562 49.1829 -155.4045
v 1225.666 49.1829 -156.19
v 1222.192 45.49038 -159.2755
v 1224.979 45.25821 -160.202
v 1232.364 49.1829 -159.4952
v 1220.507 45.90789 -160.8685
v 1216.633 49.1829 -158.1095
v 1229.198 45.24104 -162.6284
v 1234.404 49.1829 -162.0157
v 1229.882 45.54356 -163.661
v 1220.55 46.42556 -163.7353
v 1212.236 49.1829 -160.1934
v 1219.527 46.58633 -166.7909
v 1208.44 44.77213 -169.3829
v 1219.496 46.44221 -168.1833
v 1210.246 49.1829 -175.0468
v 1215.114 48.89162 -174.5842
v 1231.468 49.1829 -168.8278
v 1229.48 45.9634 -167.6567
v 1231.206 49.1829 -172.491
v 1227.681 46.00699 -169.5991
v 1228.851 49.21046 -173.7993
v 1227.052 46.13153 -170.2688
v 1226.627 49.23608 -174.7149
v 1226.067 46.32632 -171.3161
v 1224.141 49.1829 -175.3691
v 1224.844 46.86409 -170.6816
v 1218.778 49.1829 -175.7616
v 1222.416 46.72327 -170.2702
v 1231.468 49.1829 -168.8278
v 1226.818 55.02104 -169.0851
v 1231.206 49.1829 -172.491
v 1234.404 49.1829 -162.0157
v 1226.818 55.02104 -169.0851
v 1231.206 49.1829 -172.491
v 1221.879 55.53851 -171.8066
v 1228.851 49.21046 -173.7993
v 1226.818 55.02104 -169.0851
v 1226.627 49.23608 -174.7149
v 1224.141 49.1829 -175.3691
v 1221.879 55.53851 -171.8066
v 1218.778 49.1829 -175.7616
v 1224.141 49.1829 -175.3691
v 1221.879 55.53851 -171.8066
v 1219.496 54.42316 -168.2873
v 1218.778 49.1829 -175.7616
v 1171.25 49.77619 -135.3755
v 1167.731 46.53983 -129.996
v 1166.198 46.53983 -134.513
v 1172.011 50.39463 -140.068
v 1168.17 46.53983 -138.3331
v 1174.577 51.00182 -140.9612
v 1166.368 42.78413 -148.4482
v 1175.41 46.29181 -150.586
v 1171.201 46.53983 -151.9095
v 1172.292 46.53983 -127.5749
v 1180.924 51.51091 -137.224
v 1179.638 46.53983 -126.2212
v 1182.78 46.53983 -127.0222
v 1186.965 46.53983 -133.5238
v 1187.527 46.53983 -137.2218
v 1178.591 51.95152 -142.3582
v 1178.591 51.95152 -142.3582
v 1186.582 46.56329 -139.2222
v 1177.871 46.53983 -150.7896
v 1178.591 51.95152 -142.3582
v 1178.591 51.95152 -142.3582
v 1186.415 46.58511 -142.1219
v 1178.591 51.95152 -142.3582
v 1183.354 46.53983 -144.3554
v 1177.871 46.53983 -150.7896
v 1167.731 46.53983 -129.996
v 1172.292 46.53983 -127.5749
v 1171.352 43.39571 -132.125
v 1174.14 43.19802 -131.2021
v 1179.638 46.53983 -126.2212
v 1170.953 43.75121 -134.4093
v 1166.198 46.53983 -134.513
v 1178.973 43.1834 -130.6251
v 1182.78 46.53983 -127.0222
v 1180.138 43.44099 -131.0444
v 1186.965 46.53983 -133.5238
v 1182.205 43.79848 -134.4877
v 1187.527 46.53983 -137.2218
v 1172.701 44.192 -136.6818
v 1168.17 46.53983 -138.3331
v 1181.923 43.83559 -137.1203
v 1173.708 44.32889 -139.7428
v 1166.368 42.78413 -148.4482
v 1174.515 44.20618 -140.8777
v 1171.201 46.53983 -151.9095
v 1175.41 46.29181 -150.586
v 1177.871 46.53983 -150.7896
v 1178.103 44.4455 -140.8056
v 1180.296 44.5654 -139.6839
v 1183.354 46.53983 -144.3554
v 1181.655 44.10749 -139.4615
v 1186.415 46.58511 -142.1219
v 1181.819 43.94164 -138.0334
v 1186.582 46.56329 -139.2222
v 1249.646 59.12251 -177.6151
v 1239.375 51.44019 -170.6228
v 1233.893 51.21174 -176.1194
v 1245.953 51.72596 -163.8599
v 1257.042 61.07491 -179.6243
v 1257.91 51.47014 -162.6949
v 1264.865 50.83813 -168.9538
v 1244.013 60.13593 -181.8595
v 1254.118 60.75978 -185.3306
v 1246.944 60.65878 -189.6824
v 1244.081 60.9033 -187.3303
v 1272.026 49.2554 -188.7759
v 1264.619 49.05112 -195.9625
v 1256.896 48.75593 -202.066
v 1233.176 50.83574 -181.8068
v 1244.081 60.9033 -187.3303
v 1233.741 50.3759 -188.1788
v 1244.537 49.13201 -201.7298
v 1273.549 49.6859 -181.9803
v 1269.955 50.31004 -174.4751
v 1249.462 48.96425 -203.129
v 1244.081 60.9033 -187.3303
v 1241.123 49.59746 -196.8606
v 1244.537 49.13201 -201.7298
v 1241.123 49.59746 -196.8606
v 1233.741 50.3759 -188.1788
v 1245.174 43.65923 -192.4978
v 1239.23 44.33839 -185.1534
v 1247.978 43.31905 -196.2467
v 1244.537 49.13201 -201.7298
v 1249.462 48.96425 -203.129
v 1257.637 43.02414 -196.5727
v 1256.896 48.75593 -202.066
v 1262.248 43.258 -191.3506
v 1264.619 49.05112 -195.9625
v 1268.818 43.44418 -186.0206
v 1233.176 50.83574 -181.8068
v 1238.491 44.65744 -180.8726
v 1233.893 51.21174 -176.1194
v 1239.053 44.95229 -176.4127
v 1239.375 51.44019 -170.6228
v 1243.352 45.13143 -172.1025
v 1245.953 51.72596 -163.8599
v 1248.51 45.35552 -166.7992
v 1257.91 51.47014 -162.6949
v 1257.887 45.15493 -165.8856
v 1264.865 50.83813 -168.9538
v 1263.34 44.65932 -170.7937
v 1269.955 50.31004 -174.4751
v 1267.281 44.17032 -176.2189
v 1273.549 49.6859 -181.9803
v 1270.151 43.75578 -181.0087
v 1272.026 49.2554 -188.7759
v 1249.451 49.81795 -155.6124
v 1255.04 46.01709 -152.4366
v 1250.628 46.01709 -150.6239
v 1244.72 50.54426 -156.0776
v 1246.48 46.01709 -148.0802
v 1257.171 46.01709 -157.1405
v 1247.001 51.85524 -165.1516
v 1258.062 46.01709 -164.556
v 1257.066 46.01709 -167.6422
v 1247.001 51.85524 -165.1516
v 1249.756 46.01709 -168.9048
v 1246.545 46.01709 -170.6873
v 1243.668 51.25735 -158.5831
v 1249.451 49.81795 -155.6124
v 1244.72 50.54426 -156.0776
v 1236 45.72581 -158.3538
v 1247.001 51.85524 -165.1516
v 1237.015 46.01709 -162.0651
v 1244.72 50.54426 -156.0776
v 1232.952 46.01709 -154.529
v 1243.668 51.25735 -158.5831
v 1242.022 52.3727 -162.5019
v 1242.022 52.3727 -162.5019
v 1240.275 46.01709 -166.343
v 1242.022 52.3727 -162.5019
v 1243.668 51.25735 -158.5831
v 1244.72 50.54426 -156.0776
v 1246.48 46.01709 -148.0802
v 1236.709 41.60633 -149.9216
v 1244.72 50.54426 -156.0776
v 1236.709 41.60633 -149.9216
v 1232.952 46.01709 -154.529
v 1257.066 46.01709 -167.6422
v 1247.001 51.85524 -165.1516
v 1249.756 46.01709 -168.9048
v 1246.545 46.01709 -170.6873
v 1247.001 51.85524 -165.1516
v 1242.022 52.3727 -162.5019
v 1244.163 46.04465 -169.4297
v 1242.181 46.07027 -168.0675
v 1240.275 46.01709 -166.343
v 1255.04 46.01709 -152.4366
v 1257.171 46.01709 -157.1405
v 1252.688 42.32458 -155.9171
v 1253.435 42.0924 -158.7572
v 1258.062 46.01709 -164.556
v 1250.433 42.74209 -155.376
v 1250.628 46.01709 -150.6239
v 1253.709 42.07524 -163.6168
v 1257.066 46.01709 -167.6422
v 1253.217 42.37776 -164.7536
v 1248.056 43.25976 -156.9787
v 1246.48 46.01709 -148.0802
v 1244.938 43.42052 -157.7916
v 1236.709 41.60633 -149.9216
v 1243.755 43.27641 -158.5265
v 1232.952 46.01709 -154.529
v 1236 45.72581 -158.3538
v 1237.015 46.01709 -162.0651
v 1243.602 43.55747 -162.1117
v 1244.585 43.69828 -164.3704
v 1240.275 46.01709 -166.343
v 1244.722 43.16051 -165.7415
v 1242.181 46.07027 -168.0675
v 1246.137 42.96572 -165.9937
v 1244.163 46.04465 -169.4297
v 1247.042 42.84118 -166.1551
v 1246.545 46.01709 -170.6873
v 1249.651 42.7976 -166.6007
v 1249.756 46.01709 -168.9048
v 1266.168 65.80833 -132.0998
v 1268.927 53.996 -112.904
v 1255.876 53.996 -115.0637
v 1255.058 65.80833 -137.1323
v 1242.355 53.996 -120.8852
v 1260.397 65.80833 -154.5179
v 1267.943 65.80833 -140.7564
v 1277.776 53.996 -121.1128
v 1282.881 53.996 -133.6536
v 1286.876 53.996 -151.1884
v 1240.043 53.996 -129.4364
v 1245.481 53.996 -144.0857
v 1251.806 53.996 -154.1848
v 1272.777 53.996 -162.9504
v 1260.397 65.80833 -154.5179
v 1282.448 53.996 -159.1007
v 1286.876 53.996 -151.1884
v 1260.397 65.80833 -154.5179
v 1255.058 65.80833 -137.1323
v 1251.806 53.996 -154.1848
v 1261.795 53.996 -162.2864
v 1260.397 65.80833 -154.5179
v 1251.806 53.996 -154.1848
v 1272.777 53.996 -162.9504
v 1260.397 65.80833 -154.5179
v 1261.795 53.996 -162.2864
v 1277.776 53.996 -121.1128
v 1268.927 53.996 -112.904
v 1266.168 65.80833 -132.0998
v 1268.927 53.996 -112.904
v 1277.776 53.996 -121.1128
v 1270.196 39.95069 -114.9697
v 1277.567 39.95069 -121.8079
v 1277.776 53.996 -121.1128
v 1282.881 53.996 -133.6536
v 1277.567 39.95069 -121.8079
v 1281.819 39.95069 -132.2545
v 1286.876 53.996 -151.1884
v 1285.148 39.95069 -146.8616
v 1286.876 53.996 -151.1884
v 1282.448 53.996 -159.1007
v 1281.459 39.95069 -153.4528
v 1272.777 53.996 -162.9504
v 1273.402 39.95069 -156.6597
v 1261.795 53.996 -162.2864
v 1264.254 39.95069 -156.1065
v 1261.795 53.996 -162.2864
v 1251.806 53.996 -154.1848
v 1264.254 39.95069 -156.1065
v 1255.934 39.95069 -149.3576
v 1251.806 53.996 -154.1848
v 1245.481 53.996 -144.0857
v 1255.934 39.95069 -149.3576
v 1250.664 39.95069 -140.9448
v 1240.043 53.996 -129.4364
v 1246.134 39.95069 -128.7417
v 1242.355 53.996 -120.8852
v 1248.06 39.95069 -121.6182
v 1255.876 53.996 -115.0637
v 1259.323 39.95069 -116.7688
v 1268.927 53.996 -112.904
v 1270.196 39.95069 -114.9697
vt 0.545891 0.879907
vt 0.535694 0.875741
vt 0.545395 0.86855
vt 0.562157 0.869256
vt 0.559901 0.852912
vt 0.548025 0.852995
vt 0.534778 0.868332
vt 0.53663 0.855984
vt 0.551785 0.883292
vt 0.560072 0.883937
vt 0.570122 0.881142
vt 0.575061 0.872653
vt 0.578114 0.856012
vt 0.559901 0.852912
vt 0.577922 0.845778
vt 0.559901 0.852912
vt 0.571624 0.840084
vt 0.562061 0.838717
vt 0.548025 0.852995
vt 0.53663 0.855984
vt 0.549219 0.840357
vt 0.559901 0.852912
vt 0.548025 0.852995
vt 0.562061 0.838717
vt 0.549219 0.840357
vt 0.549219 0.840357
vt 0.53663 0.855984
vt 0.541772 0.845328
vt 0.541772 0.845328
vt 0.53663 0.855984
vt 0.545087 0.848547
vt 0.550578 0.8451
vt 0.549219 0.840357
vt 0.559606 0.843947
vt 0.562061 0.838717
vt 0.566328 0.844908
vt 0.571624 0.840084
vt 0.570509 0.848589
vt 0.577922 0.845778
vt 0.570971 0.856203
vt 0.578114 0.856012
vt 0.568745 0.867804
vt 0.575061 0.872653
vt 0.565273 0.873771
vt 0.570122 0.881142
vt 0.557569 0.875616
vt 0.560072 0.883937
vt 0.548238 0.872903
vt 0.551785 0.883292
vt 0.545891 0.879907
vt 0.54107 0.869974
vt 0.535694 0.875741
vt 0.540426 0.864765
vt 0.534778 0.868332
vt 0.541728 0.856086
vt 0.53663 0.855984
vt 0.545087 0.848547
vt 0.541549 0.912552
vt 0.531083 0.925305
vt 0.529629 0.913015
vt 0.543396 0.90276
vt 0.549115 0.901098
vt 0.54128 0.929472
vt 0.562918 0.909329
vt 0.533838 0.90486
vt 0.537161 0.894892
vt 0.541589 0.888711
vt 0.549905 0.88761
vt 0.549115 0.901098
vt 0.556291 0.888117
vt 0.558074 0.898495
vt 0.55839 0.936445
vt 0.562918 0.909329
vt 0.567176 0.935169
vt 0.55839 0.936445
vt 0.562918 0.909329
vt 0.573958 0.915126
vt 0.575159 0.907232
vt 0.562918 0.909329
vt 0.558074 0.898495
vt 0.558074 0.898495
vt 0.573151 0.902972
vt 0.572803 0.896791
vt 0.558074 0.898495
vt 0.566251 0.892004
vt 0.556291 0.888117
vt 0.531083 0.925305
vt 0.54128 0.929472
vt 0.537374 0.917395
vt 0.543222 0.919269
vt 0.55839 0.936445
vt 0.554415 0.923743
vt 0.567176 0.935169
vt 0.556982 0.922965
vt 0.573958 0.915126
vt 0.561909 0.910912
vt 0.575159 0.907232
vt 0.561325 0.905337
vt 0.573151 0.902972
vt 0.561142 0.903443
vt 0.572803 0.896791
vt 0.560857 0.900478
vt 0.558074 0.898495
vt 0.549115 0.901098
vt 0.556291 0.888117
vt 0.538 0.911059
vt 0.531083 0.925305
vt 0.537374 0.917395
vt 0.529629 0.913015
vt 0.531083 0.925305
vt 0.541867 0.906418
vt 0.533838 0.90486
vt 0.544053 0.899971
vt 0.537161 0.894892
vt 0.545725 0.89751
vt 0.541589 0.888711
vt 0.549905 0.88761
vt 0.556291 0.888117
vt 0.553433 0.897761
vt 0.558136 0.900194
vt 0.566251 0.892004
vt 0.560857 0.900478
vt 0.572803 0.896791
vt 0.566251 0.892004
vt 0.560857 0.900478
vt 0.533911 0.955553
vt 0.516126 0.958386
vt 0.514321 0.950789
vt 0.522499 0.937835
vt 0.513418 0.941161
vt 0.534431 0.941844
vt 0.514772 0.933338
vt 0.522971 0.927621
vt 0.527025 0.926158
vt 0.534431 0.941844
vt 0.531847 0.96651
vt 0.544739 0.959015
vt 0.544739 0.959015
vt 0.531621 0.92544
vt 0.534431 0.941844
vt 0.543205 0.966961
vt 0.531847 0.96651
vt 0.544739 0.959015
vt 0.553723 0.961113
vt 0.543205 0.966961
vt 0.544739 0.959015
vt 0.553723 0.961113
vt 0.544739 0.959015
vt 0.559453 0.954775
vt 0.544739 0.959015
vt 0.539393 0.935466
vt 0.534431 0.941844
vt 0.559107 0.937245
vt 0.553838 0.931684
vt 0.544726 0.929898
vt 0.538993 0.927772
vt 0.531621 0.92544
vt 0.534431 0.941844
vt 0.559453 0.954775
vt 0.559107 0.937245
vt 0.550933 0.951387
vt 0.548344 0.956448
vt 0.553723 0.961113
vt 0.540325 0.960906
vt 0.543205 0.966961
vt 0.532028 0.960559
vt 0.531847 0.96651
vt 0.520657 0.954598
vt 0.516126 0.958386
vt 0.518306 0.948578
vt 0.514321 0.950789
vt 0.517618 0.941238
vt 0.513418 0.941161
vt 0.51865 0.935275
vt 0.514772 0.933338
vt 0.5249 0.930917
vt 0.522971 0.927621
vt 0.527991 0.929801
vt 0.527025 0.926158
vt 0.531437 0.929942
vt 0.531621 0.92544
vt 0.537057 0.931891
vt 0.538993 0.927772
vt 0.541484 0.932652
vt 0.544726 0.929898
vt 0.545779 0.934365
vt 0.553838 0.931684
vt 0.554349 0.93913
vt 0.559107 0.937245
vt 0.550933 0.951387
vt 0.559107 0.937245
vt 0.554349 0.93913
vt 0.581001 0.947283
vt 0.57738 0.953658
vt 0.57528 0.947072
vt 0.576123 0.933006
vt 0.581513 0.958817
vt 0.588453 0.94977
vt 0.576123 0.933006
vt 0.57528 0.947072
vt 0.566323 0.934464
vt 0.572128 0.91803
vt 0.581001 0.947283
vt 0.588453 0.94977
vt 0.588453 0.94977
vt 0.587443 0.932011
vt 0.580798 0.913102
vt 0.59038 0.913558
vt 0.60051 0.913467
vt 0.600395 0.931999
vt 0.588453 0.94977
vt 0.611004 0.913832
vt 0.622531 0.931321
vt 0.599663 0.945463
vt 0.588453 0.94977
vt 0.618904 0.939626
vt 0.609263 0.94774
vt 0.598667 0.960149
vt 0.585589 0.960913
vt 0.588453 0.94977
vt 0.576123 0.933006
vt 0.572128 0.91803
vt 0.580798 0.913102
vt 0.585589 0.960913
vt 0.581513 0.958817
vt 0.588453 0.94977
vt 0.57738 0.953658
vt 0.581513 0.958817
vt 0.579426 0.945542
vt 0.582374 0.949221
vt 0.577928 0.940844
vt 0.57528 0.947072
vt 0.572346 0.932334
vt 0.566323 0.934464
vt 0.57568 0.920132
vt 0.572128 0.91803
vt 0.581863 0.916617
vt 0.580798 0.913102
vt 0.588697 0.916943
vt 0.59038 0.913558
vt 0.595922 0.916878
vt 0.60051 0.913467
vt 0.603406 0.917138
vt 0.611004 0.913832
vt 0.611627 0.929611
vt 0.622531 0.931321
vt 0.60904 0.935534
vt 0.618904 0.939626
vt 0.602164 0.941321
vt 0.609263 0.94774
vt 0.594608 0.950171
vt 0.598667 0.960149
vt 0.585281 0.950716
vt 0.585589 0.960913
vt 0.582374 0.949221
vt 0.581513 0.958817
vt 0.562086 0.949762
vt 0.557897 0.954558
vt 0.556324 0.949924
vt 0.562979 0.945077
vt 0.565727 0.944293
vt 0.56573 0.93338
vt 0.562577 0.957042
vt 0.572347 0.948249
vt 0.572347 0.948249
vt 0.570113 0.95843
vt 0.570028 0.943066
vt 0.568301 0.933224
vt 0.555838 0.934815
vt 0.561457 0.932075
vt 0.562979 0.945077
vt 0.558347 0.946004
vt 0.570028 0.943066
vt 0.568301 0.933224
vt 0.56573 0.93338
vt 0.562979 0.945077
vt 0.561457 0.932075
vt 0.573337 0.957609
vt 0.570113 0.95843
vt 0.572347 0.948249
vt 0.57763 0.950938
vt 0.578207 0.947144
vt 0.572347 0.948249
vt 0.570028 0.943066
vt 0.570028 0.943066
vt 0.577242 0.945097
vt 0.577075 0.942127
vt 0.570028 0.943066
vt 0.573926 0.939825
vt 0.568301 0.933224
vt 0.573926 0.939825
vt 0.562577 0.957042
vt 0.570113 0.95843
vt 0.563871 0.952569
vt 0.561051 0.951668
vt 0.557897 0.954558
vt 0.560706 0.949407
vt 0.556324 0.949924
vt 0.568819 0.953157
vt 0.573337 0.957609
vt 0.57006 0.952785
vt 0.57763 0.950938
vt 0.572242 0.949337
vt 0.578207 0.947144
vt 0.571961 0.946648
vt 0.577242 0.945097
vt 0.571873 0.945736
vt 0.577075 0.942127
vt 0.571736 0.94431
vt 0.573926 0.939825
vt 0.570426 0.944182
vt 0.568301 0.933224
vt 0.568157 0.943006
vt 0.564437 0.94288
vt 0.56573 0.93338
vt 0.561457 0.932075
vt 0.555838 0.934815
vt 0.564437 0.94288
vt 0.555838 0.934815
vt 0.563632 0.94407
vt 0.555838 0.934815
vt 0.558347 0.946004
vt 0.562576 0.947177
vt 0.597984 0.916599
vt 0.594904 0.923688
vt 0.59281 0.917122
vt 0.596922 0.903591
vt 0.585414 0.909673
vt 0.58976 0.899075
vt 0.599025 0.928831
vt 0.606426 0.91382
vt 0.596922 0.903591
vt 0.603088 0.930921
vt 0.61921 0.911881
vt 0.616254 0.928113
vt 0.62558 0.921225
vt 0.60413 0.903515
vt 0.596922 0.903591
vt 0.635215 0.912755
vt 0.635663 0.906733
vt 0.61241 0.903701
vt 0.596922 0.903591
vt 0.596436 0.890385
vt 0.596922 0.903591
vt 0.596436 0.890385
vt 0.60413 0.903515
vt 0.606223 0.887289
vt 0.615831 0.883301
vt 0.61241 0.903701
vt 0.630232 0.891421
vt 0.635663 0.906733
vt 0.61241 0.903701
vt 0.616254 0.928113
vt 0.62558 0.921225
vt 0.614247 0.922665
vt 0.604127 0.924823
vt 0.603088 0.930921
vt 0.621415 0.91737
vt 0.635215 0.912755
vt 0.628851 0.910887
vt 0.635663 0.906733
vt 0.629207 0.906266
vt 0.601004 0.923217
vt 0.599025 0.928831
vt 0.597837 0.919264
vt 0.594904 0.923688
vt 0.596228 0.914217
vt 0.59281 0.917122
vt 0.590543 0.908492
vt 0.585414 0.909673
vt 0.630232 0.891421
vt 0.62499 0.894463
vt 0.615831 0.883301
vt 0.613918 0.88822
vt 0.606223 0.887289
vt 0.606537 0.891287
vt 0.596436 0.890385
vt 0.599014 0.893667
vt 0.58976 0.899075
vt 0.593883 0.900346
vt 0.585414 0.909673
vt 0.590543 0.908492
vt 0.551417 0.977235
vt 0.543191 0.987565
vt 0.537467 0.979704
vt 0.553325 0.98939
vt 0.562201 0.979802
vt 0.550981 0.969559
vt 0.558812 0.968895
vt 0.538316 0.971895
vt 0.543079 0.964244
vt 0.554755 0.956614
vt 0.561524 0.9543
vt 0.562201 0.979802
vt 0.558812 0.968895
vt 0.558812 0.968895
vt 0.561524 0.9543
vt 0.565082 0.987213
vt 0.553325 0.98939
vt 0.562201 0.979802
vt 0.574127 0.984346
vt 0.581799 0.969505
vt 0.562201 0.979802
vt 0.558812 0.968895
vt 0.579735 0.977856
vt 0.562201 0.979802
vt 0.574127 0.984346
vt 0.558812 0.968895
vt 0.575147 0.960496
vt 0.558812 0.968895
vt 0.561524 0.9543
vt 0.554755 0.956614
vt 0.543079 0.964244
vt 0.55275 0.957261
vt 0.558096 0.955434
vt 0.561524 0.9543
vt 0.543191 0.987565
vt 0.553325 0.98939
vt 0.543618 0.981704
vt 0.551621 0.983145
vt 0.565082 0.987213
vt 0.560905 0.981425
vt 0.574127 0.984346
vt 0.568048 0.979161
vt 0.540232 0.975693
vt 0.537467 0.979704
vt 0.541028 0.969661
vt 0.538316 0.971895
vt 0.544522 0.963891
vt 0.543079 0.964244
vt 0.55275 0.957261
vt 0.574127 0.984346
vt 0.579735 0.977856
vt 0.568048 0.979161
vt 0.572477 0.974036
vt 0.581799 0.969505
vt 0.574106 0.967441
vt 0.575147 0.960496
vt 0.568853 0.960327
vt 0.561524 0.9543
vt 0.558096 0.955434
vt 0.593907 0.975351
vt 0.590069 0.982838
vt 0.585223 0.977639
vt 0.593596 0.967902
vt 0.58479 0.969102
vt 0.600536 0.969582
vt 0.586916 0.962862
vt 0.593809 0.959099
vt 0.603954 0.958232
vt 0.596338 0.985146
vt 0.603808 0.977101
vt 0.600536 0.969582
vt 0.596338 0.985146
vt 0.600536 0.969582
vt 0.603954 0.958232
vt 0.605433 0.986315
vt 0.596338 0.985146
vt 0.603808 0.977101
vt 0.617087 0.968219
vt 0.603808 0.977101
vt 0.600536 0.969582
vt 0.600536 0.969582
vt 0.611283 0.960542
vt 0.616387 0.974897
vt 0.603808 0.977101
vt 0.617087 0.968219
vt 0.612218 0.981672
vt 0.616387 0.974897
vt 0.611283 0.960542
vt 0.600536 0.969582
vt 0.603954 0.958232
vt 0.612218 0.981672
vt 0.605433 0.986315
vt 0.603808 0.977101
vt 0.590069 0.982838
vt 0.596338 0.985146
vt 0.592327 0.978069
vt 0.596665 0.979664
vt 0.605433 0.986315
vt 0.602956 0.980471
vt 0.588974 0.974471
vt 0.585223 0.977639
vt 0.588673 0.968562
vt 0.58479 0.969102
vt 0.590143 0.964242
vt 0.586916 0.962862
vt 0.594912 0.961636
vt 0.593809 0.959099
vt 0.601931 0.961034
vt 0.603954 0.958232
vt 0.605433 0.986315
vt 0.612218 0.981672
vt 0.602956 0.980471
vt 0.60765 0.977256
vt 0.616387 0.974897
vt 0.610534 0.972566
vt 0.616387 0.974897
vt 0.617087 0.968219
vt 0.611018 0.967943
vt 0.617087 0.968219
vt 0.611283 0.960542
vt 0.607001 0.962631
vt 0.611283 0.960542
vt 0.603954 0.958232
vt 0.607001 0.962631
vt 0.603954 0.958232
vt 0.601931 0.961034
vt 0.627352 0.962079
vt 0.616332 0.974033
vt 0.598607 0.95692
vt 0.627352 0.948498
vt 0.607043 0.947213
vt 0.636648 0.945489
vt 0.625794 0.976524
vt 0.639359 0.95769
vt 0.636044 0.978277
vt 0.617702 0.939436
vt 0.637257 0.926894
vt 0.626127 0.933666
vt 0.639359 0.95769
vt 0.636648 0.945489
vt 0.656947 0.946314
vt 0.639359 0.95769
vt 0.636648 0.945489
vt 0.650609 0.933233
vt 0.644945 0.971264
vt 0.636044 0.978277
vt 0.651418 0.957104
vt 0.639359 0.95769
vt 0.656947 0.946314
vt 0.644945 0.971264
vt 0.650609 0.933233
vt 0.636648 0.945489
vt 0.637257 0.926894
vt 0.607043 0.947213
vt 0.598607 0.95692
vt 0.614561 0.949539
vt 0.619306 0.940175
vt 0.617702 0.939436
vt 0.626339 0.935329
vt 0.626127 0.933666
vt 0.636536 0.931934
vt 0.637257 0.926894
vt 0.647524 0.93518
vt 0.650609 0.933233
vt 0.653489 0.946537
vt 0.656947 0.946314
vt 0.648772 0.956281
vt 0.656947 0.946314
vt 0.651418 0.957104
vt 0.643029 0.968518
vt 0.644945 0.971264
vt 0.635288 0.974261
vt 0.636044 0.978277
vt 0.614561 0.949539
vt 0.598607 0.95692
vt 0.611814 0.959403
vt 0.598607 0.95692
vt 0.616332 0.974033
vt 0.617558 0.971514
vt 0.625794 0.976524
vt 0.626298 0.973013
vt 0.636044 0.978277
vt 0.635288 0.974261
vt 0.624694 0.937069
vt 0.624418 0.94295
vt 0.620387 0.940174
vt 0.622567 0.93287
vt 0.615876 0.938037
vt 0.629654 0.942144
vt 0.631899 0.929975
vt 0.636526 0.938753
vt 0.624261 0.930687
vt 0.624694 0.937069
vt 0.622567 0.93287
vt 0.618777 0.92322
vt 0.631899 0.929975
vt 0.622587 0.922064
vt 0.624261 0.930687
vt 0.626912 0.92727
vt 0.622567 0.93287
vt 0.615876 0.938037
vt 0.611217 0.92781
vt 0.622567 0.93287
vt 0.613834 0.922797
vt 0.618777 0.92322
vt 0.622567 0.93287
vt 0.613834 0.922797
vt 0.638619 0.936167
vt 0.636526 0.938753
vt 0.631899 0.929975
vt 0.624418 0.94295
vt 0.629654 0.942144
vt 0.625428 0.938294
vt 0.628241 0.937302
vt 0.636526 0.938753
vt 0.623777 0.936739
vt 0.620387 0.940174
vt 0.63256 0.934813
vt 0.638619 0.936167
vt 0.633315 0.933811
vt 0.623913 0.933897
vt 0.615876 0.938037
vt 0.622894 0.930795
vt 0.611217 0.92781
vt 0.622836 0.929341
vt 0.613834 0.922797
vt 0.618777 0.92322
vt 0.635607 0.929178
vt 0.632981 0.929794
vt 0.635338 0.92542
vt 0.631145 0.927812
vt 0.632927 0.924082
vt 0.630522 0.927148
vt 0.63065 0.923147
vt 0.629549 0.92611
vt 0.62809 0.922467
vt 0.628393 0.926857
vt 0.622587 0.922064
vt 0.625878 0.927254
vt 0.635607 0.929178
vt 0.631899 0.929975
vt 0.635338 0.92542
vt 0.638619 0.936167
vt 0.631899 0.929975
vt 0.635338 0.92542
vt 0.626912 0.92727
vt 0.632927 0.924082
vt 0.631899 0.929975
vt 0.63065 0.923147
vt 0.62809 0.922467
vt 0.626912 0.92727
vt 0.622587 0.922064
vt 0.62809 0.922467
vt 0.626912 0.92727
vt 0.624261 0.930687
vt 0.622587 0.922064
vt 0.573919 0.963615
vt 0.569804 0.968494
vt 0.568233 0.963865
vt 0.574797 0.95892
vt 0.570253 0.95995
vt 0.577528 0.958121
vt 0.567826 0.948872
vt 0.577634 0.947346
vt 0.57336 0.946037
vt 0.574479 0.970975
vt 0.584127 0.962058
vt 0.582006 0.972363
vt 0.585226 0.971542
vt 0.589515 0.964879
vt 0.590091 0.961089
vt 0.581802 0.95687
vt 0.581802 0.95687
vt 0.589127 0.959044
vt 0.580196 0.947185
vt 0.581802 0.95687
vt 0.581802 0.95687
vt 0.588959 0.956076
vt 0.581802 0.95687
vt 0.585814 0.953778
vt 0.580196 0.947185
vt 0.569804 0.968494
vt 0.574479 0.970975
vt 0.573022 0.965693
vt 0.575844 0.966599
vt 0.582006 0.972363
vt 0.572669 0.963425
vt 0.568233 0.963865
vt 0.580787 0.967187
vt 0.585226 0.971542
vt 0.582021 0.966808
vt 0.589515 0.964879
vt 0.584194 0.963354
vt 0.590091 0.961089
vt 0.574528 0.961185
vt 0.570253 0.95995
vt 0.583912 0.960667
vt 0.57558 0.958077
vt 0.567826 0.948872
vt 0.576387 0.956892
vt 0.57336 0.946037
vt 0.577634 0.947346
vt 0.580196 0.947185
vt 0.580099 0.957012
vt 0.582363 0.958183
vt 0.585814 0.953778
vt 0.583682 0.958322
vt 0.588959 0.956076
vt 0.583822 0.959752
vt 0.589127 0.959044
vt 0.656169 0.921936
vt 0.644142 0.927745
vt 0.63847 0.922059
vt 0.650952 0.934742
vt 0.664173 0.920214
vt 0.663182 0.935892
vt 0.670199 0.929349
vt 0.650559 0.917742
vt 0.661096 0.914274
vt 0.65368 0.90977
vt 0.650776 0.912237
vt 0.677233 0.908724
vt 0.669593 0.901316
vt 0.661612 0.895005
vt 0.637664 0.916153
vt 0.650776 0.912237
vt 0.63816 0.909531
vt 0.649006 0.895413
vt 0.678883 0.915772
vt 0.67532 0.923586
vt 0.654027 0.893949
vt 0.650776 0.912237
vt 0.645591 0.900487
vt 0.649006 0.895413
vt 0.645591 0.900487
vt 0.63816 0.909531
vt 0.648624 0.90395
vt 0.642667 0.911585
vt 0.65143 0.900055
vt 0.649006 0.895413
vt 0.654027 0.893949
vt 0.661258 0.899672
vt 0.661612 0.895005
vt 0.666022 0.905056
vt 0.669593 0.901316
vt 0.672782 0.910543
vt 0.637664 0.916153
vt 0.641969 0.916024
vt 0.63847 0.922059
vt 0.6426 0.920644
vt 0.644142 0.927745
vt 0.647036 0.92509
vt 0.650952 0.934742
vt 0.652362 0.930562
vt 0.663182 0.935892
vt 0.661927 0.931461
vt 0.670199 0.929349
vt 0.667415 0.926345
vt 0.67532 0.923586
vt 0.671353 0.920703
vt 0.678883 0.915772
vt 0.674209 0.915727
vt 0.677233 0.908724
vt 0.654178 0.942855
vt 0.659178 0.945398
vt 0.654657 0.947255
vt 0.649461 0.942514
vt 0.650408 0.949862
vt 0.661361 0.940579
vt 0.652052 0.933439
vt 0.662275 0.932981
vt 0.661254 0.929819
vt 0.652052 0.933439
vt 0.653765 0.928525
vt 0.650475 0.926699
vt 0.648516 0.940075
vt 0.654178 0.942855
vt 0.649461 0.942514
vt 0.639616 0.939282
vt 0.652052 0.933439
vt 0.64071 0.935533
vt 0.649461 0.942514
vt 0.636547 0.943254
vt 0.648516 0.940075
vt 0.647037 0.936257
vt 0.647037 0.936257
vt 0.64405 0.93115
vt 0.647037 0.936257
vt 0.648516 0.940075
vt 0.649461 0.942514
vt 0.650408 0.949862
vt 0.639581 0.947142
vt 0.649461 0.942514
vt 0.639581 0.947142
vt 0.636547 0.943254
vt 0.661254 0.929819
vt 0.652052 0.933439
vt 0.653765 0.928525
vt 0.650475 0.926699
vt 0.652052 0.933439
vt 0.647037 0.936257
vt 0.648039 0.927992
vt 0.646013 0.929393
vt 0.64405 0.93115
vt 0.659178 0.945398
vt 0.661361 0.940579
vt 0.65606 0.941144
vt 0.656779 0.938196
vt 0.662275 0.932981
vt 0.653833 0.941776
vt 0.654657 0.947255
vt 0.657055 0.933222
vt 0.661254 0.929819
vt 0.656611 0.932114
vt 0.651499 0.940232
vt 0.650408 0.949862
vt 0.648338 0.93943
vt 0.639581 0.947142
vt 0.6471 0.938651
vt 0.636547 0.943254
vt 0.639616 0.939282
vt 0.64071 0.935533
vt 0.646996 0.935033
vt 0.648028 0.932747
vt 0.64405 0.93115
vt 0.648067 0.931246
vt 0.646013 0.929393
vt 0.649479 0.930952
vt 0.648039 0.927992
vt 0.650381 0.930765
vt 0.650475 0.926699
vt 0.653043 0.930301
vt 0.653765 0.928525
vt 0.674536 0.970168
vt 0.675003 0.987547
vt 0.661586 0.985327
vt 0.663056 0.964968
vt 0.647685 0.979342
vt 0.668573 0.947003
vt 0.676371 0.961223
vt 0.6841 0.979108
vt 0.689349 0.966215
vt 0.693456 0.948188
vt 0.645308 0.970551
vt 0.650899 0.95549
vt 0.657402 0.945107
vt 0.678961 0.936096
vt 0.668573 0.947003
vt 0.688904 0.940053
vt 0.693456 0.948188
vt 0.668573 0.947003
vt 0.663056 0.964968
vt 0.657402 0.945107
vt 0.667671 0.936778
vt 0.668573 0.947003
vt 0.657402 0.945107
vt 0.678961 0.936096
vt 0.668573 0.947003
vt 0.667671 0.936778
vt 0.6841 0.979108
vt 0.675003 0.987547
vt 0.674536 0.970168
vt 0.675003 0.987547
vt 0.6841 0.979108
vt 0.673496 0.982549
vt 0.681029 0.975561
vt 0.6841 0.979108
vt 0.689349 0.966215
vt 0.681029 0.975561
vt 0.685375 0.964885
vt 0.693456 0.948188
vt 0.688777 0.949957
vt 0.693456 0.948188
vt 0.688904 0.940053
vt 0.685007 0.943221
vt 0.678961 0.936096
vt 0.676774 0.939944
vt 0.667671 0.936778
vt 0.667424 0.940509
vt 0.667671 0.936778
vt 0.657402 0.945107
vt 0.667424 0.940509
vt 0.658921 0.947406
vt 0.657402 0.945107
vt 0.650899 0.95549
vt 0.658921 0.947406
vt 0.653536 0.956004
vt 0.645308 0.970551
vt 0.648907 0.968475
vt 0.647685 0.979342
vt 0.650875 0.975755
vt 0.661586 0.985327
vt 0.662385 0.98071
vt 0.675003 0.987547
vt 0.673496 0.982549
vn -0.242465 0.8123939 0.5303084
vn -0.4572363 0.8254915 0.3309058
vn -0.4081505 0.8840196 0.227865
vn 0.1499216 0.9122581 0.3811935
vn 0.1338703 0.9425955 -0.305929
vn -0.502017 0.7766145 -0.38059
vn -0.6726086 0.7397907 -0.01753384
vn -0.5288115 0.8111758 -0.2497043
vn -0.1661845 0.8178491 0.5509135
vn 0.05960708 0.7974595 0.600421
vn 0.3645392 0.8048822 0.468269
vn 0.5837038 0.7827202 0.2159609
vn 0.580806 0.8136457 0.02539753
vn 0.2006098 0.9581372 -0.2042762
vn 0.5009639 0.8311497 -0.2412993
vn 0.1338703 0.9425955 -0.305929
vn 0.2648227 0.7514929 -0.6042578
vn -0.07907896 0.6865388 -0.72278
vn -0.502017 0.7766145 -0.38059
vn -0.8713803 0.26217 -0.4146845
vn -0.4116369 0.6422192 -0.646614
vn -0.0733134 0.909357 -0.409506
vn -0.502017 0.7766145 -0.38059
vn -0.07907896 0.6865388 -0.72278
vn -0.2936637 0.8372373 -0.4612975
vn -0.04514794 0.9342901 -0.3536437
vn -0.3882918 0.9196941 -0.05824332
vn 0 1 0
vn -0.5857872 -0.5206019 -0.6211498
vn -0.8692294 -0.2975667 -0.3948346
vn -0.6934541 -0.5197313 -0.4989999
vn -0.3531094 -0.5190365 -0.7784053
vn -0.2350806 -0.5187091 -0.8219964
vn -0.03268 -0.5113855 -0.8587298
vn 0.04461858 -0.5149581 -0.8560534
vn 0.2746211 -0.5354132 -0.7986965
vn 0.4285742 -0.5398276 -0.7245069
vn 0.7076765 -0.5334928 -0.463227
vn 0.8309273 -0.4986154 -0.2468655
vn 0.9018217 -0.4307466 0.03427694
vn 0.9049407 -0.411753 0.1074329
vn 0.869126 -0.4166557 0.2664917
vn 0.8278154 -0.4295258 0.3608728
vn 0.6222919 -0.4749659 0.6222221
vn 0.4284245 -0.4950628 0.7558872
vn 0.06523854 -0.4914254 0.8684728
vn -0.02604463 -0.5303227 0.8473957
vn -0.2711067 -0.5163367 0.8123408
vn -0.2522469 -0.5550941 0.7926171
vn -0.3651784 -0.4895874 0.7918012
vn -0.5460074 -0.5534223 0.628967
vn -0.7295641 -0.5745941 0.370915
vn -0.8429008 -0.537419 0.02643656
vn -0.8477143 -0.5280225 -0.05072063
vn -0.831247 -0.5177531 -0.2023859
vn -0.8098744 -0.5118911 -0.2864807
vn -0.6934541 -0.5197313 -0.4989999
vn -0.3241108 0.9242281 0.2018771
vn -0.3942726 0.8849707 0.2477418
vn -0.6777336 0.7279524 -0.1037423
vn -0.541017 0.7604592 -0.3591692
vn -0.2344448 0.9473073 -0.2182764
vn -0.1405348 0.9059436 0.3993949
vn 0.1915976 0.9548447 0.2270727
vn -0.7784285 0.5339714 -0.3300358
vn -0.7165046 0.5962263 -0.3621261
vn -0.3463638 0.7469488 -0.5675382
vn -0.1510793 0.7082933 -0.689562
vn -0.2780941 0.8990129 -0.3382892
vn -0.0384306 0.5811169 -0.8129122
vn 0.3981303 0.9170507 -0.02258942
vn -0.01403198 0.9172229 0.3981273
vn 0.1138681 0.951173 0.2868868
vn 0.3704553 0.8682563 0.3299906
vn -0.01403198 0.9172229 0.3981273
vn 0.1915976 0.9548447 0.2270727
vn 0.6308982 0.7579145 0.1659309
vn 0.6660977 0.7319868 -0.14321
vn 0.2421222 0.9495613 0.1992741
vn 0.4816255 0.8029392 -0.3511774
vn 0.5797518 0.6911292 -0.4315418
vn 0.6516702 0.7396619 -0.1680073
vn 0.5890853 0.7173528 -0.3719994
vn 0.4460464 0.7134109 -0.5404512
vn 0.4000637 0.5339009 -0.7449154
vn -0.0384306 0.5811169 -0.8129122
vn -0.6103619 -0.623144 0.4890295
vn -0.3209805 -0.5175182 0.7931875
vn -0.3159228 -0.5163302 0.7959873
vn -0.3181592 -0.5235973 0.7903295
vn -0.1974506 -0.5590302 0.805294
vn 0.05027016 -0.6465158 0.7612424
vn 0.4273426 -0.7005288 0.5715222
vn 0.6396229 -0.6813084 0.3559515
vn 0.7473658 -0.6361761 0.191636
vn 0.7502135 -0.6548122 0.09165548
vn 0.7372057 -0.667782 -0.1029324
vn 0.7207116 -0.6641253 -0.198777
vn 0.7372376 -0.6494929 -0.1861178
vn 0.7431153 -0.6558821 -0.132659
vn 0.6687837 -0.686303 -0.285861
vn 0.5997699 -0.6929256 -0.4001626
vn 0.1417043 0.5531352 -0.8209515
vn -0.283693 0.5984876 -0.7492201
vn -0.0384306 0.5811169 -0.8129122
vn -0.800188 -0.5568416 -0.2227702
vn -0.8366334 -0.5474042 -0.01982755
vn -0.8740668 -0.4675854 -0.131799
vn -0.7259257 -0.6204567 -0.2967578
vn -0.7462526 -0.6018444 0.2844124
vn -0.675304 -0.6144141 -0.4079949
vn -0.6939728 -0.6621619 -0.2827426
vn -0.6807715 -0.6736348 -0.2876913
vn -0.645503 -0.6830658 -0.3416823
vn -0.2504283 -0.7541546 -0.6070721
vn -0.378184 -0.7197569 -0.5821744
vn -0.009781196 -0.7251557 -0.6885155
vn 0.200995 -0.7241356 -0.6597186
vn 0.2201766 -0.7123088 -0.6664371
vn 0.1667945 -0.7016931 -0.6926806
vn 0.1972414 -0.697645 -0.6887577
vn 0.1705292 -0.6770291 -0.7159268
vn 0.6687837 -0.686303 -0.285861
vn 0.1972414 -0.697645 -0.6887577
vn 0.3827533 -0.7281493 -0.5685934
vn -0.4312017 0.8668851 0.2501507
vn -0.3481937 0.8836706 0.3128697
vn -0.4093905 0.910516 0.05796636
vn -0.3721003 0.9128355 -0.168145
vn -0.4288224 0.9031686 -0.01994424
vn -0.4334386 0.8786284 -0.2003575
vn -0.3689387 0.8977567 -0.24066
vn -0.1329062 0.9092894 -0.3943715
vn -0.1993097 0.840785 -0.503345
vn -0.2488637 0.9194993 -0.3042826
vn -0.2539843 0.7603277 0.5978242
vn -0.141535 0.7959464 0.5885891
vn -0.3181962 0.805035 0.5006693
vn 0.1472271 0.8576847 -0.4926472
vn -0.08463929 0.9315911 -0.3535171
vn 0.185144 0.6282207 0.7556854
vn -0.2539843 0.7603277 0.5978242
vn 0.01031216 0.8023343 0.5967858
vn 0.4790197 0.6311339 0.6100901
vn 0.185144 0.6282207 0.7556854
vn 0.1297873 0.7293689 0.6716965
vn 0.4790197 0.6311339 0.6100901
vn 0.514031 0.8131173 0.2731527
vn 0.5054056 0.8603439 -0.06613335
vn 0.6347918 0.7594824 -0.1422173
vn 0.3387336 0.9014373 -0.2695743
vn 0.3527336 0.7447714 -0.5664755
vn 0.2802579 0.9599225 0.002082516
vn 0.2106889 0.9762146 0.05113812
vn 0.1199767 0.9753788 -0.1850452
vn 0.07173367 0.9687035 -0.2376296
vn 0.1472271 0.8576847 -0.4926472
vn 0.1657281 0.7954243 -0.5829533
vn 0.7401347 -0.5507154 0.3858927
vn 0.8372252 -0.5409036 -0.08048096
vn 0.8178601 -0.4946936 0.2939101
vn 0.6270484 -0.4900647 0.6055139
vn 0.5227422 -0.4236565 0.7397673
vn 0.2910471 -0.4126345 0.863148
vn 0.1263692 -0.4057823 0.9051914
vn -0.1697886 -0.3998851 0.9007018
vn -0.2989177 -0.4072783 0.8630021
vn -0.5709535 -0.4683543 0.674282
vn -0.7309267 -0.4970357 0.4676555
vn -0.8468254 -0.49307 0.1994209
vn -0.8726633 -0.4725511 0.1231026
vn -0.8739194 -0.4860373 0.005716376
vn -0.8654351 -0.495921 -0.07130487
vn -0.7690679 -0.5353207 -0.3492368
vn -0.6415923 -0.5414633 -0.5433018
vn -0.4390012 -0.5203581 -0.7324653
vn -0.3878548 -0.5186426 -0.761957
vn -0.201002 -0.5100264 -0.836344
vn -0.1131195 -0.5164449 -0.848816
vn 0.09694193 -0.5058531 -0.8571551
vn 0.1578626 -0.5198911 -0.8395193
vn 0.2332181 -0.5041671 -0.8315195
vn 0.2441024 -0.4893093 -0.8372517
vn 0.2674283 -0.4688397 -0.8418262
vn 0.2540917 -0.4685463 -0.8461097
vn 0.2442311 -0.5215947 -0.81749
vn 0.2966629 -0.5520592 -0.7792442
vn 0.3851569 -0.5645109 -0.7300558
vn 0.7136479 -0.6305199 -0.3052068
vn 0.8178601 -0.4946936 0.2939101
vn 0.8587624 -0.4458571 0.2524646
vn 0.9000277 -0.2807812 0.333335
vn -0.7154807 0.5984614 0.36046
vn -0.9007033 0.02439889 0.4337492
vn -0.8903658 0.1265838 0.4372931
vn -0.6536687 0.7561494 0.03090798
vn -0.6979969 0.286021 0.6565001
vn -0.5129877 0.7770448 0.3647532
vn -0.6127734 0.7887208 -0.04927522
vn -0.7666435 0.5520567 0.3278583
vn -0.7026734 0.7069113 0.08078603
vn -0.527559 0.7554882 -0.3884833
vn -0.7154807 0.5984614 0.36046
vn -0.3642781 0.8785452 0.3089658
vn -0.2384998 0.9329727 0.2695918
vn -0.03025686 0.9141025 -0.4043529
vn -0.233714 0.7978755 -0.5556731
vn 0.01239413 0.762293 -0.6471133
vn 0.11633 0.8493224 -0.5148968
vn 0.3033279 0.9349617 -0.1839533
vn -0.04097207 0.951975 0.3034218
vn 0.1847981 0.9184787 -0.3496378
vn 0.3748246 0.9270464 -0.009571129
vn 0.3749983 0.8642892 0.3352318
vn 0.09465172 0.9462866 0.3091647
vn 0.4247052 0.8363777 0.3465512
vn 0.4495361 0.7689822 0.4545149
vn 0.2586336 0.8539863 0.4514598
vn 0.04606335 0.774462 0.6309412
vn 0.2355308 0.8983262 0.3708576
vn -0.554545 0.8250474 -0.1085193
vn -0.527559 0.7554882 -0.3884833
vn -0.233714 0.7978755 -0.5556731
vn 0.04606335 0.774462 0.6309412
vn -0.5203723 0.6461467 0.5583075
vn -0.1353226 0.9279443 0.3472856
vn -0.9007033 0.02439889 0.4337492
vn -0.7172449 0.04646209 0.6952705
vn -0.8013937 -0.3363523 0.4946062
vn -0.5382744 -0.3593899 0.7622989
vn -0.8744606 -0.3152536 0.3686921
vn -0.9083 -0.006579397 0.4182675
vn -0.8735225 -0.3852597 0.2975457
vn -0.909644 -0.4153883 0.0005148178
vn -0.7725387 -0.4227035 -0.4738203
vn -0.6232454 -0.4054417 -0.6687169
vn -0.2981671 -0.3788844 -0.8760952
vn -0.1259119 -0.3595372 -0.9245968
vn 0.02711604 -0.3309873 -0.9432455
vn 0.009307868 -0.3321931 -0.9431655
vn 0.005248485 -0.3343166 -0.9424462
vn 0.01899595 -0.3352763 -0.9419283
vn 0.3071988 -0.3785534 -0.873113
vn 0.5785882 -0.3893872 -0.7166682
vn 0.8899992 -0.3891925 -0.2375515
vn 0.9227586 -0.3747456 0.08990268
vn 0.8026888 -0.3089622 0.5101304
vn 0.7197875 -0.2839905 0.6334472
vn 0.661971 -0.2559583 0.7044713
vn 0.6992858 -0.2578721 0.6667093
vn 0.543341 -0.3027566 0.7830191
vn 0.3010839 -0.3284464 0.8952493
vn -0.1086149 -0.350097 0.930395
vn -0.273801 -0.359662 0.8920069
vn -0.5382744 -0.3593899 0.7622989
vn -0.6422552 -0.3535034 0.6801055
vn -0.3305906 0.9133971 0.2375196
vn -0.4133156 0.8489205 0.3294
vn -0.6762847 0.7340416 -0.06182104
vn -0.5222414 0.8225986 -0.2249345
vn -0.2728925 0.9428561 -0.1911857
vn -0.1210036 0.8776551 -0.4637669
vn -0.1423043 0.8798531 0.4534401
vn 0.1152172 0.9362702 0.3318478
vn 0.1930548 0.943796 0.268289
vn 0.01847246 0.8823036 0.4703181
vn 0.2030321 0.9629992 -0.1772299
vn 0.02439811 0.8195853 -0.5724375
vn -0.7579071 0.6315979 -0.1632815
vn -0.31788 0.892658 -0.3195529
vn -0.6183642 0.7628652 -0.188845
vn -0.7829817 0.562558 -0.2654584
vn -0.04667946 0.9129502 -0.4053925
vn -0.2704831 0.8089411 -0.5219705
vn -0.1210036 0.8776551 -0.4637669
vn -0.3873778 0.9004279 -0.1979094
vn -0.31788 0.892658 -0.3195529
vn 0.3365909 0.8423804 0.4208347
vn 0.01847246 0.8823036 0.4703181
vn 0.1930548 0.943796 0.268289
vn 0.6027005 0.7657735 0.2243727
vn 0.6660987 0.7319862 -0.1432087
vn 0.2933643 0.9365759 0.1917368
vn 0.5215814 0.8036599 -0.2865025
vn 0.6221827 0.6963224 -0.3578042
vn 0.6516716 0.739659 -0.1680143
vn 0.5890906 0.7173501 -0.3719962
vn 0.4867243 0.7656398 -0.4205892
vn 0.5429339 0.5935628 -0.5940589
vn 0.2495738 0.795903 -0.5515898
vn 0.5429339 0.5935628 -0.5940589
vn -0.2466743 -0.7096714 0.6599382
vn -0.01586201 -0.7359173 0.6768857
vn -0.1615682 -0.7227392 0.6719701
vn -0.4726743 -0.7552499 0.4540668
vn -0.5654858 -0.7727364 0.2882782
vn -0.6159025 -0.7787303 -0.1193447
vn -0.5173527 -0.8326021 -0.1977872
vn 0.1562071 -0.7771227 0.6096552
vn 0.3661802 -0.7866831 0.497033
vn 0.4812268 -0.8055815 0.3456288
vn 0.5370116 -0.8159724 0.2140271
vn 0.5222395 -0.8494129 0.07591843
vn 0.5091816 -0.8574666 -0.07406177
vn 0.4915044 -0.8562045 -0.159177
vn 0.5070067 -0.8488241 -0.1498058
vn 0.4955074 -0.8591638 -0.1277102
vn 0.4349419 -0.8766335 -0.2057649
vn 0.1837392 -0.9002139 -0.3947846
vn 0.131967 -0.8985584 -0.4185422
vn 0.08932369 -0.9276932 -0.3625002
vn 0.1660614 -0.9554324 -0.2440751
vn 0.1322627 -0.9617215 -0.2399964
vn 0.1494346 -0.9709698 -0.1867807
vn 0.0523189 -0.9694206 -0.239763
vn 0.2561585 -0.9173093 -0.3048384
vn 0.2862414 -0.9531546 -0.09778645
vn 0.1494346 -0.9709698 -0.1867807
vn 0.09149653 -0.9916605 0.09076229
vn -0.2471442 -0.9590076 0.1386512
vn -0.1239776 -0.9453575 0.3015439
vn -0.4184798 -0.908226 0.0002873787
vn -0.4649125 -0.8249405 -0.3214492
vn -0.4099824 0.8552497 0.3169581
vn -0.598029 0.7408721 0.3057283
vn -0.6146219 0.7286362 0.3022073
vn -0.5812298 0.8131552 0.03082904
vn -0.6294211 0.7751586 0.05438934
vn -0.6945971 0.5980553 -0.3998309
vn -0.2156061 0.9090531 0.3565619
vn -0.01306323 0.9159006 0.4011924
vn -0.5495521 0.8255616 0.1282202
vn 0.05670254 0.9606099 0.2720542
vn 0.2239967 0.9283739 0.2965596
vn 0.07441066 0.9854137 0.153045
vn 0.2014849 0.9744839 0.09891897
vn -0.0536174 0.7812755 0.6218794
vn -0.5130581 0.8172477 0.2624452
vn 0.2910976 0.9556859 -0.04389624
vn 0.4294946 0.8939996 0.1276676
vn 0.3403845 0.8291883 0.4433793
vn -0.6706524 0.7279758 -0.1423952
vn -0.4879558 0.645027 -0.5880811
vn -0.5850592 0.8077114 -0.07285645
vn -0.4879558 0.645027 -0.5880811
vn -0.2746266 0.709501 -0.6489904
vn -0.275172 0.6433476 -0.7144119
vn 0.009198576 0.7886206 -0.6148112
vn 0.3144796 0.871246 -0.3768727
vn 0.4368739 0.8602663 -0.2628368
vn 0.4294946 0.8939996 0.1276676
vn 0.3113461 0.9494351 0.0404567
vn 0.3373204 -0.2073395 0.918273
vn 0.5845485 -0.1729757 0.7927058
vn 0.4670763 -0.1918973 0.8631427
vn -0.008114086 -0.272165 0.9622164
vn -0.2302176 -0.3146436 0.9208688
vn 0.5843856 -0.1737801 0.79265
vn 0.7507103 -0.2329337 0.6182038
vn 0.8778293 -0.2808763 0.3879746
vn 0.9426783 -0.3317016 -0.03649152
vn 0.9116246 -0.3434246 -0.225832
vn -0.537751 -0.3555933 0.7644457
vn -0.6378234 -0.3656309 0.6778609
vn -0.7871675 -0.3780783 0.4872619
vn -0.8396899 -0.3821461 0.3858566
vn -0.8303529 -0.3666381 0.4196314
vn -0.7598512 -0.3433178 0.5520498
vn -0.6739837 -0.3128694 0.6692225
vn -0.6739849 -0.3128689 0.6692215
vn 0.7413449 -0.3789083 -0.5539279
vn 0.6016164 -0.400082 -0.6913698
vn 0.1968726 -0.4515204 -0.8702703
vn -0.0821282 -0.4652333 -0.8813699
vn -0.3141828 -0.4453208 -0.838438
vn -0.2924003 -0.4450535 -0.8464215
vn -0.427364 -0.4676393 -0.7737399
vn -0.5755429 -0.4761016 -0.6648892
vn -0.7435998 -0.4723754 -0.4732027
vn -0.7825076 -0.4729295 -0.4049933
vn -0.8163961 -0.4705893 -0.3347283
vn -0.8163964 -0.4705912 -0.3347251
vn -0.4020957 0.8868967 0.2274497
vn -0.2188305 0.9137311 0.3423574
vn -0.4147211 0.9064998 0.07914743
vn -0.1443885 0.8211775 0.5521045
vn 0.06567108 0.8791057 0.472081
vn -0.456252 0.8398201 -0.2941707
vn -0.343627 0.92264 -0.1750882
vn -0.4918188 0.8524151 -0.1774902
vn -0.4333358 0.7982626 -0.4183263
vn -0.2670199 0.8175372 -0.5102288
vn -0.162823 0.7713255 -0.6152606
vn 0.1237419 0.9123638 0.3902312
vn -0.1821314 0.959299 -0.2158095
vn -0.3827407 0.8720347 -0.3050656
vn -0.2287764 0.5761034 -0.7847078
vn 0.2236469 0.2155019 0.9505478
vn -0.1166312 0.3905068 0.9131821
vn 0.1237419 0.9123638 0.3902312
vn 0.3668165 0.3533909 0.8605583
vn 0.4413066 0.8914154 -0.1030887
vn 0.2279301 0.9026389 0.3650903
vn 0.008107956 0.9813173 -0.1922249
vn 0.4709525 0.8421749 0.2625739
vn 0.1237419 0.9123638 0.3902312
vn 0.3367522 0.7620106 0.5531164
vn 0.1708678 0.9550993 -0.2420526
vn 0.3378322 0.8275543 -0.4483562
vn 0.1525421 0.86955 -0.4696954
vn -0.162823 0.7713255 -0.6152606
vn -0.3916919 -0.2140282 -0.8948571
vn -0.6639716 -0.2483167 -0.705323
vn -0.4907425 -0.2299394 -0.8404163
vn -0.08090818 -0.2385908 -0.967744
vn -0.01344231 -0.0462858 -0.9988378
vn -0.651057 -0.2127485 0.7286033
vn -0.009125145 0.06942462 0.9975454
vn -0.4353518 -0.1808389 0.8819104
vn 0.06607026 -0.13913 0.9880676
vn 0.2236469 0.2155019 0.9505478
vn 0.2637589 -0.1354175 0.9550357
vn 0.4366968 0.06308002 0.8973944
vn 0.618228 -0.1793306 0.7652677
vn -0.911233 -0.2522622 0.3256042
vn -0.9515418 -0.2829951 0.1203407
vn -0.9268513 -0.282046 -0.2477835
vn -0.8822095 -0.2801248 -0.3784661
vn -0.7576035 -0.27105 -0.5937751
vn -0.6639716 -0.2483167 -0.705323
vn -0.4907425 -0.2299394 -0.8404163
vn 0.4657576 -0.1605944 0.870218
vn 0.8311074 -0.2108604 0.5145857
vn 0.618228 -0.1793306 0.7652677
vn 0.8990353 -0.2255886 0.3752937
vn 0.964287 -0.261683 -0.04089895
vn 0.9042457 -0.2687908 -0.3318
vn 0.6711024 -0.2555995 -0.6959099
vn 0.5425633 -0.2498636 -0.8019933
vn 0.1737399 -0.2455991 -0.9536747
vn -0.08090818 -0.2385908 -0.967744
vn -0.4886238 0.8195446 0.2993217
vn -0.3247883 0.8215755 0.4685364
vn -0.5643099 0.8095236 0.1619436
vn -0.5044557 0.797936 -0.3298827
vn -0.6268829 0.7743018 -0.08645502
vn -0.5553163 0.8056744 -0.2061857
vn -0.5076769 0.7537565 -0.4172714
vn -0.2047817 0.76261 -0.6135882
vn -0.06438086 0.6880523 -0.7227995
vn -0.2528247 0.7636491 0.5940704
vn -0.1771216 0.8141711 0.5529497
vn -0.5696187 0.8125213 0.1238694
vn -0.2969205 0.3639591 0.8828205
vn -0.08620968 0.8329161 -0.5466431
vn -0.07651456 0.4817839 -0.8729431
vn 0.01178377 0.3536683 0.9352967
vn -0.2969205 0.3639591 0.8828205
vn 0.0986331 0.8754503 0.4731367
vn 0.5356087 0.8263518 -0.173971
vn 0.5383513 0.8172103 0.2057796
vn 0.4085149 0.8006803 -0.4382083
vn 0.2358928 0.7862455 -0.5711152
vn 0.352609 0.7625951 -0.5423244
vn 0.8150866 0.5443891 0.1981774
vn 0.4301044 0.8409222 0.3284207
vn 0.8466818 0.5269413 -0.07391142
vn 0.6579952 0.2927341 0.6937933
vn 0.8835691 0.301192 0.3585934
vn 0.3896562 0.4804804 -0.7856887
vn 0.2358928 0.7862455 -0.5711152
vn 0.02998077 0.4943125 -0.8687671
vn 0.6579952 0.2927341 0.6937933
vn 0.3223413 0.5170797 0.7929215
vn 0.1710438 0.9097179 0.3783614
vn -0.6034262 -0.1959106 0.7729785
vn -0.3039482 0.2404111 0.9218557
vn -0.4757573 -0.1646347 0.8640315
vn -0.1966464 -0.1076609 0.9745457
vn 0.06263033 0.1300092 0.9895327
vn 0.3575115 -0.06981826 0.9312953
vn -0.8325819 -0.2698283 0.4837356
vn -0.913845 -0.306201 0.2666989
vn -0.9370572 -0.342048 -0.07019316
vn -0.9159763 -0.354217 -0.1884619
vn -0.7776345 -0.3794619 -0.5012916
vn -0.6241115 -0.3776457 -0.6840092
vn -0.329713 -0.3487349 -0.8773102
vn -0.2054204 -0.3349992 -0.919553
vn 0.043911 -0.3093979 -0.9499183
vn 0.04606641 -0.1019209 -0.9937254
vn 0.2029972 0.1374611 0.9694826
vn 0.6579952 0.2927341 0.6937933
vn 0.3575115 -0.06981826 0.9312953
vn 0.7716807 -0.05879907 0.6332864
vn 0.8994488 0.1422875 0.4132146
vn 0.9643629 -0.09647222 0.2463682
vn 0.8835691 0.301192 0.3585934
vn 0.9896158 0.1087338 -0.09400821
vn 0.9048716 -0.1867946 -0.3825114
vn 0.9787049 -0.1524714 -0.137438
vn 0.6427813 -0.2419681 -0.7268313
vn 0.4724067 -0.2677006 -0.839743
vn 0.594315 -0.001768967 -0.8042304
vn 0.1997107 -0.05316329 -0.9784117
vn 0.4724067 -0.2677006 -0.839743
vn 0.1693928 -0.2977183 -0.9395051
vn 0.043911 -0.3093979 -0.9499183
vn -0.3134054 0.9287214 0.1981255
vn -0.1907415 0.9199259 0.3425699
vn -0.2947404 0.9554042 0.01819461
vn -0.3923686 0.866926 -0.307386
vn -0.324135 0.8870203 -0.3288333
vn -0.3740654 0.8825251 -0.2849989
vn -0.1448697 0.8953461 0.421151
vn 0.2119156 0.9300501 0.3001643
vn 0.1432357 0.867786 0.4758476
vn -0.304894 0.8489271 -0.431697
vn -0.2288507 0.7999433 -0.5547234
vn -0.2839365 0.8523358 -0.4392081
vn 0.02610233 0.9581178 0.2851825
vn -0.06614753 0.9605983 -0.2699547
vn 0.5450555 0.838288 -0.01369834
vn 0.2119156 0.9300501 0.3001643
vn 0.2343163 0.9455603 -0.2258576
vn 0.385661 0.8292693 -0.4044478
vn 0.6875249 0.3956271 0.6089241
vn 0.343773 0.6718706 0.6560563
vn 0.8354011 0.3749731 0.4018708
vn 0.3140777 0.8920882 0.3248599
vn 0.7749123 0.6011721 0.1951999
vn 0.6875249 0.3956271 0.6089241
vn 0.385661 0.8292693 -0.4044478
vn -0.06614753 0.9605983 -0.2699547
vn -0.2288507 0.7999433 -0.5547234
vn -0.6780401 -0.4879936 -0.5496581
vn -0.7114931 -0.6160178 -0.3380823
vn -0.7217477 -0.5966766 -0.3507949
vn -0.6305577 -0.4082902 -0.6600727
vn -0.5444394 -0.3154698 -0.7772159
vn -0.4623134 -0.3131479 -0.8295811
vn -0.4398438 -0.34915 -0.8274247
vn -0.1794108 -0.3868112 -0.9045379
vn 0.07523106 -0.379023 -0.9223241
vn 0.5526887 -0.2644421 -0.7903199
vn 0.7672925 -0.1624695 -0.6203755
vn 0.9841672 -0.050497 -0.1698971
vn 0.9854779 0.03049549 0.1670428
vn 0.8949328 0.08922607 0.4371887
vn 0.9463938 0.2365876 0.2199201
vn 0.8354011 0.3749731 0.4018708
vn 0.8230433 0.08642691 0.5613645
vn 0.6875249 0.3956271 0.6089241
vn 0.3849914 0.03183981 0.9223708
vn 0.1988108 0.2340394 0.9516826
vn -0.7217477 -0.5966766 -0.3507949
vn -0.7922834 -0.6101526 -0.0009869946
vn -0.831493 -0.4494466 0.3265229
vn -0.7715175 -0.5796439 0.2622473
vn -0.6435281 -0.2033136 0.7379263
vn -0.4816373 -0.08687192 0.8720543
vn -0.1974904 -0.02727232 0.9799254
vn -0.1582744 -0.0400316 0.9865833
vn 0.1123201 -0.008247662 0.9936379
vn 0.3849914 0.03183981 0.9223708
vn -0.1230674 0.9133968 0.3880214
vn -0.1344589 0.8489215 0.5111291
vn -0.3422921 0.8268055 0.4463504
vn -0.4996614 0.8454613 0.1885036
vn -0.4723215 0.8581614 0.2011751
vn 0.1569562 0.8798519 0.4485814
vn 0.3484741 0.9157141 0.2000837
vn 0.2959334 0.882304 0.3660097
vn -0.345971 0.9359646 -0.06537875
vn -0.1230674 0.9133968 0.3880214
vn -0.4336047 0.896845 0.0874985
vn -0.2774849 0.8507808 -0.4462892
vn 0.2581176 0.9241155 0.281755
vn -0.340965 0.6919018 -0.6364077
vn -0.2406656 0.9705959 -0.004847105
vn -0.04889918 0.9611928 0.2715093
vn -0.4336047 0.896845 0.0874985
vn -0.4723215 0.8581614 0.2011751
vn -0.6991909 0.7076609 0.1017263
vn -0.4996614 0.8454613 0.1885036
vn -0.7070724 0.6492862 0.2801358
vn -0.2774849 0.8507808 -0.4462892
vn -0.3684869 0.9161463 -0.1577763
vn 0.09980017 0.8521084 -0.5137617
vn 0.6139985 0.7892759 -0.007029652
vn 0.2959334 0.882304 0.3660097
vn 0.3735881 0.9229995 0.09221582
vn -0.2810544 -0.7727354 0.5691119
vn 0.1967245 -0.7096596 0.6765226
vn -0.1075364 -0.7552465 0.6465589
vn 0.2721367 -0.7227333 0.6352938
vn 0.3918788 -0.7359183 0.5521369
vn -0.5651094 -0.778729 0.2724563
vn -0.4255828 -0.8707193 0.2464292
vn 0.4896426 -0.7771276 0.3953769
vn 0.6159253 -0.7814081 0.1001863
vn 0.7073065 -0.7007383 -0.09318423
vn -0.4054248 -0.9098178 0.08867057
vn -0.1384256 -0.9515465 0.274586
vn -0.0364239 -0.980406 0.1935903
vn 0.1368439 -0.9903978 -0.01964568
vn 0.0251854 -0.9521195 -0.304687
vn 0.08076169 -0.8834025 -0.4616034
vn -0.02855 -0.9399409 -0.3401409
vn 0.7811022 -0.6025884 -0.1636047
vn 0.7176975 -0.6645554 -0.2080296
vn 0.5430923 -0.7633597 -0.349761
vn 0.3569569 -0.8036181 -0.4762139
vn 0.2950312 -0.7925779 -0.5336449
vn 0.3462127 -0.767573 -0.5394149
vn 0.2827188 -0.761452 -0.5833188
vn 0.03713413 -0.8374159 -0.5453033
vn -0.1065485 -0.8655465 -0.4893635
vn -0.1714098 -0.8995073 -0.4018771
vn -0.03954473 -0.924687 -0.3786689
vn -0.07862937 -0.9282099 -0.3636535
vn 0.7719797 0.6063358 -0.1907993
vn 0.3735881 0.9229995 0.09221582
vn 0.5569826 0.6800326 -0.4767873
vn 0.6139985 0.7892759 -0.007029652
vn 0.5150692 0.8566731 0.02854761
vn 0.5569826 0.6800326 -0.4767873
vn 0.2790244 0.5930415 -0.7552795
vn 0.3489365 0.6087888 -0.7124742
vn 0.6348373 0.7494581 -0.1878672
vn 0.2605143 0.5593761 -0.7869121
vn 0.1342147 0.5204501 -0.8432782
vn 0.1157007 0.6487839 -0.7521256
vn -0.340965 0.6919018 -0.6364077
vn 0.1342147 0.5204501 -0.8432782
vn -0.3948036 0.6165485 -0.681174
vn -0.4027672 0.9047274 -0.1387336
vn -0.340965 0.6919018 -0.6364077
vn -0.2907329 0.9340973 0.2072116
vn -0.3674117 0.8833422 0.2910587
vn -0.619871 0.7821435 -0.06333591
vn -0.4758113 0.8557116 -0.2033745
vn -0.7398753 0.6236676 -0.2522364
vn -0.2377825 0.9559396 -0.1721595
vn -0.7064518 0.6912363 -0.1520468
vn -0.1092702 0.9061272 -0.4086487
vn -0.2934227 0.9147515 -0.2777281
vn -0.125309 0.9084874 0.3986834
vn 0.1743878 0.95735 0.2303689
vn 0.01639331 0.9104636 0.4132642
vn 0.301139 0.8776561 0.3728739
vn 0.5452868 0.8133989 0.2025947
vn 0.6072667 0.783569 -0.1313275
vn 0.3637949 0.8771271 -0.3135304
vn 0.2818852 0.9406825 -0.1888307
vn 0.5932759 0.7900791 -0.1542685
vn 0.0290498 0.8584101 -0.5121409
vn 0.3201654 0.8747696 -0.3636926
vn 0.4736058 0.8400807 -0.2645029
vn 0.5374819 0.7683185 -0.3475627
vn 0.4415927 0.8114093 -0.3828979
vn 0.5096861 0.6546221 -0.558292
vn 0.0290498 0.8584101 -0.5121409
vn -0.5106372 -0.8191653 0.2611851
vn -0.2260693 -0.7636762 0.6047241
vn -0.4288303 -0.804239 0.4114659
vn -0.147683 -0.7754128 0.6139419
vn -0.01483104 -0.7871289 0.6166102
vn -0.555662 -0.8241211 -0.1098369
vn -0.460707 -0.8694347 -0.1784162
vn 0.1399276 -0.823079 0.5504192
vn 0.3292146 -0.8314187 0.4476168
vn 0.4311093 -0.8473952 0.3099453
vn 0.4798575 -0.8561106 0.1918625
vn 0.4628184 -0.8838647 0.0676925
vn 0.4503302 -0.8904678 -0.06534375
vn -0.414887 -0.8626885 -0.2892012
vn -0.3651574 -0.9309456 0.0005896345
vn 0.434754 -0.8894466 -0.1409747
vn -0.2156117 -0.9691541 0.1193821
vn 0.08029088 -0.993955 0.07487914
vn 0.1310453 -0.9780572 -0.1619609
vn 0.2277649 -0.936529 -0.2665272
vn 0.04493496 -0.9775483 -0.2058647
vn 0.1435384 -0.967019 -0.2104067
vn 0.1138861 -0.9717976 -0.2064927
vn 0.07456262 -0.945484 -0.3170181
vn 0.1131171 -0.9230709 -0.3676202
vn 0.1585117 -0.9245859 -0.3464317
vn 0.3828923 -0.9059201 -0.1808377
vn 0.4381173 -0.8918168 -0.1127653
vn 0.4493126 -0.8834558 -0.1327555
vn -0.2471364 0.9041793 0.348401
vn -0.394386 0.8484893 0.3528817
vn -0.4709245 0.8137314 0.3406924
vn -0.1822983 0.8809587 0.4366682
vn 0.2605818 0.9267139 0.2707368
vn 0.2178129 0.8536391 0.4731363
vn 0.4743131 0.782645 0.4031055
vn -0.2625843 0.9429588 0.2046414
vn 0.2013544 0.9702801 -0.1342127
vn 0.1061447 0.8919435 -0.4395111
vn -0.4463225 0.8853565 -0.130154
vn 0.4241337 0.8110977 -0.4027791
vn 0.3705547 0.8100796 -0.454379
vn 0.2353347 0.78827 -0.568549
vn -0.6707122 0.7416967 0.005592834
vn -0.5199043 0.806717 -0.2809043
vn -0.6577308 0.6732617 -0.3377999
vn -0.4153588 0.686896 -0.5963647
vn 0.5454639 0.8332621 -0.09024034
vn 0.5383763 0.7883055 0.297868
vn -0.02584546 0.751901 -0.6587692
vn -0.6242019 0.7014472 -0.3440112
vn -0.6057025 0.5995057 -0.5231801
vn -0.4153588 0.686896 -0.5963647
vn -0.5961776 -0.7009827 -0.3914019
vn -0.6398301 -0.7138308 -0.284716
vn -0.5826855 -0.7058388 -0.4028266
vn -0.6979059 -0.6963692 -0.1673242
vn -0.382874 -0.7561893 -0.5306461
vn -0.4234453 -0.741515 -0.5204321
vn -0.05690319 -0.7346075 -0.676102
vn 0.2534015 -0.679764 -0.6882648
vn 0.4301293 -0.6256148 -0.6508417
vn 0.552072 -0.5978804 -0.5811673
vn 0.5140866 -0.6350837 -0.5765271
vn 0.6445444 -0.6125872 -0.4574924
vn -0.752093 -0.6589141 0.01372159
vn -0.7613084 -0.6450775 0.06545649
vn -0.7274912 -0.6141187 0.3059654
vn -0.6702211 -0.5745772 0.4697496
vn -0.5965407 -0.5195674 0.6117099
vn -0.5986599 -0.5202678 0.6090383
vn -0.4498693 -0.5167117 0.7284411
vn -0.2749462 -0.4916175 0.8262668
vn 0.1467106 -0.4465005 0.882674
vn 0.3958443 -0.4152748 0.8190568
vn 0.6272246 -0.3603265 0.690474
vn 0.6602647 -0.3947496 0.6389235
vn 0.722624 -0.4292375 0.5418208
vn 0.7582921 -0.4303376 0.4896966
vn 0.8435581 -0.4671234 0.2649631
vn 0.8641126 -0.5001477 0.05622907
vn 0.7663285 -0.5609607 -0.3131515
vn 0.2577356 0.9133948 0.3150908
vn 0.3546231 0.8489176 0.3918947
vn 0.1868046 0.8268046 0.5305639
vn -0.1151414 0.8454627 0.5214741
vn -0.0895865 0.8581589 0.5055072
vn 0.4614637 0.8798493 0.1136506
vn 0.3579791 0.9157149 -0.1825296
vn 0.4682416 0.8823029 -0.04786871
vn 0.3295967 0.7892769 -0.518081
vn 0.2813615 0.923 -0.2625009
vn 0.2620041 0.6063458 -0.7507986
vn -0.09499335 0.6800358 -0.726999
vn -0.243796 0.9359654 0.2540317
vn 0.2577356 0.9133948 0.3150908
vn -0.1636437 0.8968461 0.4109597
vn -0.5254001 0.850778 -0.0114678
vn 0.3770112 0.9241157 -0.06223
vn -0.7193066 0.6919072 -0.06214938
vn -0.3334922 0.916146 0.2223946
vn -0.3757662 0.8521001 -0.3643144
vn -0.1355652 0.9705964 0.1989086
vn 0.2006736 0.9611939 0.1893052
vn -0.5667046 0.6487898 -0.5078559
vn -0.6329503 0.5204475 -0.5731565
vn -0.7862143 0.6165571 -0.04152642
vn -0.3362647 0.9047288 0.2615183
vn -0.1636437 0.8968461 0.4109597
vn -0.0895865 0.8581589 0.5055072
vn -0.2968357 0.7076473 0.6411895
vn -0.1151414 0.8454627 0.5214741
vn -0.2968357 0.7076473 0.6411895
vn -0.1517127 0.6492711 0.7452719
vn 0.3295967 0.7892769 -0.518081
vn 0.3053437 0.8566743 -0.4157816
vn 0.2620041 0.6063458 -0.7507986
vn -0.09499335 0.6800358 -0.726999
vn 0.1895314 0.7494625 -0.6343373
vn -0.4801092 0.5930457 -0.6463683
vn -0.4060488 0.6087914 -0.6815405
vn -0.5167118 0.5593866 -0.6481479
vn -0.6329503 0.5204475 -0.5731565
vn 0.3230815 -0.7727411 0.546342
vn 0.6740922 -0.7096589 0.2048997
vn 0.4827491 -0.7552469 0.4433456
vn 0.6807727 -0.7227281 0.1192169
vn 0.6765556 -0.7359139 -0.02652257
vn -0.08057701 -0.7787295 0.6221637
vn -0.02614183 -0.870717 0.4910891
vn 0.5986644 -0.7771323 -0.1940784
vn 0.4204239 -0.7814104 -0.4611308
vn 0.3084041 -0.7007438 -0.6433079
vn -0.1472569 -0.9098147 0.3880111
vn 0.1543387 -0.9515471 0.2659655
vn 0.1422335 -0.9804069 0.1362787
vn 0.05831227 -0.9903976 -0.1253485
vn -0.2414307 -0.9521166 -0.1875773
vn -0.3424883 -0.8833963 -0.3198634
vn -0.3004893 -0.9399364 -0.161944
vn -0.3387579 -0.9246851 -0.1737832
vn -0.3475347 -0.9282084 -0.1328489
vn -0.4302356 -0.8995082 -0.07604065
vn -0.468071 -0.8655462 -0.1781555
vn -0.4364087 -0.837416 -0.329062
vn -0.3340635 -0.7614521 -0.5555109
vn -0.2625946 -0.7675664 -0.5847101
vn -0.2857379 -0.7925721 -0.5386866
vn -0.2038096 -0.8036147 -0.5591646
vn 0.003800968 -0.763366 -0.6459551
vn 0.2179173 -0.6645685 -0.7147453
vn 0.2897677 -0.6026066 -0.7435724
vn 0.1350875 0.9495946 0.282881
vn 0.1637056 0.8505079 0.4998368
vn -0.1673685 0.8555943 0.4898429
vn -0.483115 0.874861 0.03490119
vn -0.3932544 0.8621812 0.3193655
vn -0.0710035 0.9403698 -0.3326604
vn 0.4378396 0.896069 -0.07319166
vn 0.6931098 0.6452926 0.3212418
vn 0.8912175 0.3402154 0.2999749
vn 0.8762273 0.4710897 0.1014899
vn -0.6333556 0.7722138 -0.05046336
vn -0.6387118 0.702563 -0.3137712
vn -0.6768418 0.5763553 -0.4579298
vn 0.2385373 0.792221 -0.5616813
vn 0.1390661 0.9372201 -0.3198109
vn 0.2992339 0.892315 -0.3379835
vn 0.5075885 0.8599936 -0.05258301
vn -0.3381185 0.8383128 -0.427677
vn -0.483115 0.874861 0.03490119
vn -0.7772311 0.3618171 -0.5147817
vn -0.3056453 -0.06704778 -0.9497818
vn -0.5172175 0.5518056 -0.6542146
vn -0.7661613 0.08920886 -0.6364264
vn 0.2867757 0.2342999 -0.9289044
vn -0.1795085 0.8845962 -0.4304258
vn -0.2138313 0.03594211 -0.9762091
vn 0.7457768 0.4327552 0.5064977
vn 0.392525 0.6303777 0.6697374
vn 0.1350875 0.9495946 0.282881
vn 0.2351718 0.1363298 0.9623453
vn 0.7493058 0.1890428 0.6346681
vn 0.4388962 -0.09182232 0.8938337
vn 0.8617178 -0.03786639 0.505973
vn 0.7457768 0.4327552 0.5064977
vn 0.8912175 0.3402154 0.2999749
vn 0.8617178 -0.03786639 0.505973
vn 0.9605677 -0.0452694 0.2743363
vn 0.9905781 0.1336226 0.0300011
vn 0.9463384 -0.1956934 -0.2571919
vn 0.9920664 -0.1252865 -0.01036652
vn 0.7116964 -0.3046592 -0.6329857
vn 0.5361442 -0.3471663 -0.7694316
vn 0.1626429 -0.1700999 -0.9719121
vn 0.07921864 -0.4045381 -0.9110837
vn -0.3056453 -0.06704778 -0.9497818
vn -0.4156249 -0.4262974 -0.8034467
vn -0.352832 -0.2328203 -0.9062584
vn -0.6745064 -0.2209588 -0.7044275
vn -0.4156249 -0.4262974 -0.8034467
vn -0.7173396 -0.4055098 -0.566556
vn -0.7539601 -0.05816443 -0.6543401
vn -0.8096461 -0.3957291 -0.4334416
vn -0.7173396 -0.4055098 -0.566556
vn -0.8381055 -0.3937302 -0.3775657
vn -0.9061549 -0.3998157 -0.1379519
vn -0.9169892 -0.3948973 0.05645329
vn -0.7913486 -0.3476951 0.5028672
vn -0.6068387 -0.2852197 0.7418871
vn -0.3138773 -0.1899756 0.9302636
vn -0.2380756 -0.1744274 0.9554554
vn 0.1308233 -0.1326807 0.9824873
vn 0.4388962 -0.09182232 0.8938337
g CatapultRockPile_mesh_0
f 3/3/3 2/2/2 1/1/1
f 3/3/3 1/1/1 4/4/4
f 5/5/5 3/3/3 4/4/4
f 6/6/6 3/3/3 5/5/5
f 6/6/6 7/7/7 3/3/3
f 7/7/7 2/2/2 3/3/3
f 8/8/8 7/7/7 6/6/6
f 4/4/4 1/1/1 9/9/9
f 10/10/10 4/4/4 9/9/9
f 4/4/4 10/10/10 11/11/11
f 12/12/12 4/4/4 11/11/11
f 13/13/13 4/4/4 12/12/12
f 14/14/14 4/4/4 13/13/13
f 15/15/15 14/14/14 13/13/13
f 17/17/17 16/16/16 15/15/15
f 17/17/17 18/18/18 16/16/16
f 21/21/21 20/20/20 19/19/19
f 24/24/24 23/23/23 22/22/22
f 25/25/25 23/23/23 24/24/24
f 28/28/28 27/27/27 26/26/26
f 31/31/31 30/30/30 29/29/29
f 31/31/31 29/29/29 32/32/32
f 32/32/32 29/29/29 33/33/33
f 32/32/32 33/33/33 34/34/34
f 34/34/34 33/33/33 35/35/35
f 34/34/34 35/35/35 36/36/36
f 36/36/36 35/35/35 37/37/37
f 36/36/36 37/37/37 38/38/38
f 38/38/38 37/37/37 39/39/39
f 38/38/38 39/39/39 40/40/40
f 40/40/40 39/39/39 41/41/41
f 40/40/40 41/41/41 42/42/42
f 42/42/42 41/41/41 43/43/43
f 42/42/42 43/43/43 44/44/44
f 44/44/44 43/43/43 45/45/45
f 44/44/44 45/45/45 46/46/46
f 46/46/46 45/45/45 47/47/47
f 46/46/46 47/47/47 48/48/48
f 48/48/48 47/47/47 49/49/49
f 50/50/50 48/48/48 49/49/49
f 48/48/48 50/50/50 51/51/51
f 51/51/51 50/50/50 52/52/52
f 51/51/51 52/52/52 53/53/53
f 53/53/53 52/52/52 54/54/54
f 53/53/53 54/54/54 55/55/55
f 55/55/55 54/54/54 56/56/56
f 55/55/55 56/56/56 57/57/57
f 60/60/60 59/59/59 58/58/58
f 61/61/61 60/60/60 58/58/58
f 61/61/61 58/58/58 62/62/62
f 58/58/58 59/59/59 63/63/63
f 58/58/58 63/63/63 64/64/64
f 62/62/62 58/58/58 64/64/64
f 65/65/65 60/60/60 61/61/61
f 66/66/66 65/65/65 61/61/61
f 67/67/67 66/66/66 61/61/61
f 67/67/67 61/61/61 68/68/68
f 68/68/68 61/61/61 69/69/69
f 68/68/68 69/69/69 70/70/70
f 71/71/71 62/62/62 64/64/64
f 73/73/73 63/63/63 72/72/72
f 76/76/76 75/75/75 74/74/74
f 77/77/77 76/76/76 74/74/74
f 78/78/78 76/76/76 77/77/77
f 80/80/80 79/79/79 78/78/78
f 82/82/82 81/81/81 78/78/78
f 83/83/83 80/80/80 82/82/82
f 85/85/85 84/84/84 83/83/83
f 85/85/85 86/86/86 84/84/84
f 89/89/89 88/88/88 87/87/87
f 90/90/90 88/88/88 89/89/89
f 90/90/90 91/91/91 88/88/88
f 92/92/92 91/91/91 90/90/90
f 92/92/92 93/93/93 91/91/91
f 94/94/94 93/93/93 92/92/92
f 94/94/94 95/95/95 93/93/93
f 96/96/96 95/95/95 94/94/94
f 96/96/96 97/97/97 95/95/95
f 98/98/98 97/97/97 96/96/96
f 98/98/98 99/99/99 97/97/97
f 100/100/100 99/99/99 98/98/98
f 100/100/100 101/101/101 99/99/99
f 102/102/102 101/101/101 100/100/100
f 105/105/105 104/104/104 103/103/103
f 108/108/108 107/107/107 106/106/106
f 106/106/106 110/110/110 109/109/109
f 106/106/106 109/109/109 111/111/111
f 111/111/111 109/109/109 112/112/112
f 111/111/111 112/112/112 113/113/113
f 113/113/113 112/112/112 114/114/114
f 113/113/113 114/114/114 115/115/115
f 115/115/115 114/114/114 116/116/116
f 115/115/115 116/116/116 117/117/117
f 118/118/118 115/115/115 117/117/117
f 119/119/119 115/115/115 118/118/118
f 119/119/119 118/118/118 120/120/120
f 120/120/120 118/118/118 121/121/121
f 120/120/120 121/121/121 122/122/122
f 125/125/125 124/124/124 123/123/123
f 128/128/128 127/127/127 126/126/126
f 129/129/129 128/128/128 126/126/126
f 130/130/130 128/128/128 129/129/129
f 129/129/129 126/126/126 131/131/131
f 132/132/132 130/130/130 129/129/129
f 133/133/133 132/132/132 129/129/129
f 133/133/133 129/129/129 134/134/134
f 134/134/134 129/129/129 135/135/135
f 126/126/126 127/127/127 136/136/136
f 126/126/126 136/136/136 137/137/137
f 131/131/131 126/126/126 138/138/138
f 134/134/134 140/140/140 139/139/139
f 143/143/143 142/142/142 141/141/141
f 146/146/146 145/145/145 144/144/144
f 149/149/149 148/148/148 147/147/147
f 151/151/151 150/150/150 149/149/149
f 151/151/151 152/152/152 150/150/150
f 153/153/153 151/151/151 149/149/149
f 154/154/154 151/151/151 153/153/153
f 155/155/155 151/151/151 154/154/154
f 156/156/156 151/151/151 155/155/155
f 156/156/156 157/157/157 151/151/151
f 157/157/157 158/158/158 151/151/151
f 161/161/161 160/160/160 159/159/159
f 161/161/161 159/159/159 162/162/162
f 162/162/162 159/159/159 163/163/163
f 162/162/162 163/163/163 164/164/164
f 164/164/164 163/163/163 165/165/165
f 164/164/164 165/165/165 166/166/166
f 166/166/166 165/165/165 167/167/167
f 166/166/166 167/167/167 168/168/168
f 168/168/168 167/167/167 169/169/169
f 168/168/168 169/169/169 170/170/170
f 170/170/170 169/169/169 171/171/171
f 170/170/170 171/171/171 172/172/172
f 172/172/172 171/171/171 173/173/173
f 172/172/172 173/173/173 174/174/174
f 174/174/174 173/173/173 175/175/175
f 174/174/174 175/175/175 176/176/176
f 176/176/176 175/175/175 177/177/177
f 176/176/176 177/177/177 178/178/178
f 178/178/178 177/177/177 179/179/179
f 178/178/178 179/179/179 180/180/180
f 180/180/180 179/179/179 181/181/181
f 180/180/180 181/181/181 182/182/182
f 182/182/182 181/181/181 183/183/183
f 182/182/182 183/183/183 184/184/184
f 184/184/184 183/183/183 185/185/185
f 184/184/184 185/185/185 186/186/186
f 186/186/186 185/185/185 187/187/187
f 186/186/186 187/187/187 188/188/188
f 188/188/188 187/187/187 189/189/189
f 192/192/192 191/191/191 190/190/190
f 195/195/195 194/194/194 193/193/193
f 196/196/196 195/195/195 193/193/193
f 193/193/193 194/194/194 197/197/197
f 193/193/193 197/197/197 198/198/198
f 201/201/201 200/200/200 199/199/199
f 202/202/202 201/201/201 199/199/199
f 204/204/204 199/199/199 203/203/203
f 206/206/206 199/199/199 205/205/205
f 206/206/206 207/207/207 199/199/199
f 208/208/208 207/207/207 206/206/206
f 208/208/208 206/206/206 209/209/209
f 209/209/209 206/206/206 210/210/210
f 206/206/206 211/211/211 210/210/210
f 209/209/209 210/210/210 212/212/212
f 212/212/212 210/210/210 213/213/213
f 210/210/210 214/214/214 213/213/213
f 210/210/210 215/215/215 214/214/214
f 213/213/213 214/214/214 216/216/216
f 216/216/216 214/214/214 217/217/217
f 214/214/214 218/218/218 217/217/217
f 214/214/214 219/219/219 218/218/218
f 220/220/220 219/219/219 214/214/214
f 223/223/223 222/222/222 221/221/221
f 226/226/226 225/225/225 224/224/224
f 229/229/229 228/228/228 227/227/227
f 230/230/230 228/228/228 229/229/229
f 229/229/229 227/227/227 231/231/231
f 231/231/231 227/227/227 232/232/232
f 231/231/231 232/232/232 233/233/233
f 233/233/233 232/232/232 234/234/234
f 233/233/233 234/234/234 235/235/235
f 235/235/235 234/234/234 236/236/236
f 235/235/235 236/236/236 237/237/237
f 237/237/237 236/236/236 238/238/238
f 237/237/237 238/238/238 239/239/239
f 239/239/239 238/238/238 240/240/240
f 239/239/239 240/240/240 241/241/241
f 241/241/241 240/240/240 242/242/242
f 241/241/241 242/242/242 243/243/243
f 243/243/243 242/242/242 244/244/244
f 243/243/243 244/244/244 245/245/245
f 245/245/245 244/244/244 246/246/246
f 245/245/245 246/246/246 247/247/247
f 247/247/247 246/246/246 248/248/248
f 247/247/247 248/248/248 249/249/249
f 249/249/249 248/248/248 250/250/250
f 249/249/249 250/250/250 251/251/251
f 251/251/251 250/250/250 252/252/252
f 251/251/251 252/252/252 253/253/253
f 253/253/253 252/252/252 254/254/254
f 253/253/253 254/254/254 255/255/255
f 255/255/255 254/254/254 256/256/256
f 259/259/259 258/258/258 257/257/257
f 260/260/260 259/259/259 257/257/257
f 260/260/260 257/257/257 261/261/261
f 262/262/262 260/260/260 261/261/261
f 257/257/257 258/258/258 263/263/263
f 257/257/257 263/263/263 264/264/264
f 261/261/261 257/257/257 265/265/265
f 264/264/264 263/263/263 266/266/266
f 267/267/267 261/261/261 265/265/265
f 262/262/262 261/261/261 268/268/268
f 270/270/270 269/269/269 260/260/260
f 269/269/269 272/272/272 271/271/271
f 272/272/272 259/259/259 271/271/271
f 274/274/274 261/261/261 273/273/273
f 277/277/277 276/276/276 275/275/275
f 280/280/280 279/279/279 278/278/278
f 281/281/281 280/280/280 278/278/278
f 282/282/282 280/280/280 281/281/281
f 284/284/284 283/283/283 282/282/282
f 286/286/286 285/285/285 282/282/282
f 287/287/287 284/284/284 286/286/286
f 289/289/289 288/288/288 287/287/287
f 291/291/291 290/290/290 285/285/285
f 294/294/294 293/293/293 292/292/292
f 294/294/294 292/292/292 295/295/295
f 295/295/295 292/292/292 296/296/296
f 295/295/295 296/296/296 297/297/297
f 297/297/297 296/296/296 298/298/298
f 299/299/299 293/293/293 294/294/294
f 299/299/299 300/300/300 293/293/293
f 301/301/301 300/300/300 299/299/299
f 301/301/301 302/302/302 300/300/300
f 303/303/303 302/302/302 301/301/301
f 303/303/303 304/304/304 302/302/302
f 305/305/305 304/304/304 303/303/303
f 305/305/305 306/306/306 304/304/304
f 307/307/307 306/306/306 305/305/305
f 307/307/307 308/308/308 306/306/306
f 309/309/309 308/308/308 307/307/307
f 309/309/309 310/310/310 308/308/308
f 311/311/311 310/310/310 309/309/309
f 311/311/311 312/312/312 310/310/310
f 313/313/313 312/312/312 311/311/311
f 313/313/313 314/314/314 312/312/312
f 312/312/312 314/314/314 315/315/315
f 314/314/314 316/316/316 315/315/315
f 314/314/314 317/317/317 316/316/316
f 320/320/320 319/319/319 318/318/318
f 320/320/320 322/322/322 321/321/321
f 323/323/323 322/322/322 320/320/320
f 323/323/323 298/298/298 322/322/322
f 297/297/297 298/298/298 323/323/323
f 326/326/326 325/325/325 324/324/324
f 327/327/327 326/326/326 324/324/324
f 328/328/328 326/326/326 327/327/327
f 329/329/329 328/328/328 327/327/327
f 324/324/324 325/325/325 330/330/330
f 324/324/324 330/330/330 331/331/331
f 331/331/331 332/332/332 324/324/324
f 331/331/331 330/330/330 333/333/333
f 331/331/331 333/333/333 334/334/334
f 334/334/334 333/333/333 335/335/335
f 334/334/334 335/335/335 336/336/336
f 337/337/337 331/331/331 334/334/334
f 337/337/337 338/338/338 331/331/331
f 339/339/339 334/334/334 336/336/336
f 340/340/340 334/334/334 339/339/339
f 341/341/341 334/334/334 340/340/340
f 341/341/341 337/337/337 334/334/334
f 343/343/343 329/329/329 342/342/342
f 346/346/346 345/345/345 344/344/344
f 347/347/347 345/345/345 346/346/346
f 347/347/347 346/346/346 348/348/348
f 348/348/348 346/346/346 349/349/349
f 348/348/348 349/349/349 350/350/350
f 350/350/350 352/352/352 351/351/351
f 355/355/355 354/354/354 353/353/353
f 355/355/355 353/353/353 356/356/356
f 356/356/356 353/353/353 357/357/357
f 358/358/358 354/354/354 355/355/355
f 358/358/358 359/359/359 354/354/354
f 360/360/360 359/359/359 358/358/358
f 360/360/360 361/361/361 359/359/359
f 362/362/362 361/361/361 360/360/360
f 356/356/356 357/357/357 363/363/363
f 363/363/363 357/357/357 364/364/364
f 363/363/363 364/364/364 365/365/365
f 365/365/365 364/364/364 366/366/366
f 365/365/365 366/366/366 367/367/367
f 367/367/367 366/366/366 368/368/368
f 367/367/367 368/368/368 369/369/369
f 369/369/369 368/368/368 370/370/370
f 362/362/362 371/371/371 361/361/361
f 372/372/372 371/371/371 362/362/362
f 372/372/372 373/373/373 371/371/371
f 374/374/374 373/373/373 372/372/372
f 374/374/374 375/375/375 373/373/373
f 376/376/376 375/375/375 374/374/374
f 376/376/376 377/377/377 375/375/375
f 378/378/378 377/377/377 376/376/376
f 378/378/378 379/379/379 377/377/377
f 380/380/380 379/379/379 378/378/378
f 380/380/380 381/381/381 379/379/379
f 382/382/382 381/381/381 380/380/380
f 385/385/385 384/384/384 383/383/383
f 383/383/383 384/384/384 386/386/386
f 383/383/383 386/386/386 387/387/387
f 388/388/388 385/385/385 383/383/383
f 388/388/388 383/383/383 389/389/389
f 390/390/390 385/385/385 388/388/388
f 391/391/391 390/390/390 388/388/388
f 392/392/392 391/391/391 388/388/388
f 392/392/392 388/388/388 393/393/393
f 395/395/395 383/383/383 394/394/394
f 397/397/397 388/388/388 396/396/396
f 400/400/400 399/399/399 398/398/398
f 400/400/400 398/398/398 401/401/401
f 404/404/404 403/403/403 402/402/402
f 402/402/402 406/406/406 405/405/405
f 405/405/405 406/406/406 407/407/407
f 409/409/409 408/408/408 402/402/402
f 411/411/411 410/410/410 409/409/409
f 414/414/414 413/413/413 412/412/412
f 414/414/414 412/412/412 415/415/415
f 415/415/415 412/412/412 416/416/416
f 419/419/419 418/418/418 417/417/417
f 420/420/420 418/418/418 419/419/419
f 420/420/420 421/421/421 418/418/418
f 422/422/422 421/421/421 420/420/420
f 422/422/422 423/423/423 421/421/421
f 424/424/424 423/423/423 422/422/422
f 419/419/419 417/417/417 425/425/425
f 425/425/425 417/417/417 426/426/426
f 425/425/425 426/426/426 427/427/427
f 427/427/427 426/426/426 428/428/428
f 427/427/427 428/428/428 429/429/429
f 429/429/429 428/428/428 430/430/430
f 429/429/429 430/430/430 431/431/431
f 434/434/434 433/433/433 432/432/432
f 435/435/435 433/433/433 434/434/434
f 435/435/435 436/436/436 433/433/433
f 437/437/437 436/436/436 435/435/435
f 437/437/437 438/438/438 436/436/436
f 439/439/439 438/438/438 437/437/437
f 439/439/439 440/440/440 438/438/438
f 441/441/441 440/440/440 439/439/439
f 444/444/444 443/443/443 442/442/442
f 445/445/445 444/444/444 442/442/442
f 446/446/446 444/444/444 445/445/445
f 445/445/445 442/442/442 447/447/447
f 448/448/448 446/446/446 445/445/445
f 449/449/449 448/448/448 445/445/445
f 449/449/449 445/445/445 450/450/450
f 442/442/442 443/443/443 451/451/451
f 453/453/453 442/442/442 452/452/452
f 442/442/442 454/454/454 452/452/452
f 456/456/456 445/445/445 455/455/455
f 459/459/459 458/458/458 457/457/457
f 462/462/462 461/461/461 460/460/460
f 464/464/464 463/463/463 460/460/460
f 467/467/467 466/466/466 465/465/465
f 469/469/469 466/466/466 468/468/468
f 472/472/472 471/471/471 470/470/470
f 475/475/475 474/474/474 473/473/473
f 478/478/478 477/477/477 476/476/476
f 479/479/479 477/477/477 478/478/478
f 479/479/479 480/480/480 477/477/477
f 481/481/481 480/480/480 479/479/479
f 478/478/478 476/476/476 482/482/482
f 482/482/482 476/476/476 483/483/483
f 482/482/482 483/483/483 484/484/484
f 484/484/484 483/483/483 485/485/485
f 484/484/484 485/485/485 486/486/486
f 486/486/486 485/485/485 487/487/487
f 486/486/486 487/487/487 488/488/488
f 488/488/488 487/487/487 489/489/489
f 488/488/488 489/489/489 490/490/490
f 490/490/490 489/489/489 491/491/491
f 494/494/494 493/493/493 492/492/492
f 495/495/495 493/493/493 494/494/494
f 495/495/495 496/496/496 493/493/493
f 497/497/497 496/496/496 495/495/495
f 497/497/497 499/499/499 498/498/498
f 500/500/500 499/499/499 497/497/497
f 500/500/500 502/502/502 501/501/501
f 503/503/503 502/502/502 500/500/500
f 506/506/506 505/505/505 504/504/504
f 508/508/508 507/507/507 506/506/506
f 511/511/511 510/510/510 509/509/509
f 512/512/512 511/511/511 509/509/509
f 513/513/513 511/511/511 512/512/512
f 512/512/512 509/509/509 514/514/514
f 509/509/509 510/510/510 515/515/515
f 509/509/509 515/515/515 516/516/516
f 516/516/516 515/515/515 517/517/517
f 518/518/518 513/513/513 512/512/512
f 519/519/519 512/512/512 514/514/514
f 520/520/520 518/518/518 512/512/512
f 520/520/520 512/512/512 519/519/519
f 522/522/522 509/509/509 521/521/521
f 525/525/525 524/524/524 523/523/523
f 526/526/526 525/525/525 523/523/523
f 524/524/524 528/528/528 527/527/527
f 531/531/531 530/530/530 529/529/529
f 529/529/529 530/530/530 532/532/532
f 535/535/535 534/534/534 533/533/533
f 538/538/538 537/537/537 536/536/536
f 538/538/538 536/536/536 539/539/539
f 539/539/539 536/536/536 540/540/540
f 539/539/539 540/540/540 541/541/541
f 541/541/541 540/540/540 542/542/542
f 541/541/541 542/542/542 543/543/543
f 543/543/543 542/542/542 544/544/544
f 543/543/543 544/544/544 545/545/545
f 545/545/545 544/544/544 546/546/546
f 545/545/545 546/546/546 547/547/547
f 547/547/547 546/546/546 548/548/548
f 547/547/547 550/550/550 549/549/549
f 549/549/549 550/550/550 551/551/551
f 549/549/549 551/551/551 552/552/552
f 552/552/552 551/551/551 553/553/553
f 552/552/552 553/553/553 554/554/554
f 554/554/554 553/553/553 555/555/555
f 558/558/558 557/557/557 556/556/556
f 558/558/558 560/560/560 559/559/559
f 561/561/561 560/560/560 558/558/558
f 561/561/561 562/562/562 560/560/560
f 563/563/563 562/562/562 561/561/561
f 563/563/563 564/564/564 562/562/562
f 565/565/565 564/564/564 563/563/563
f 568/568/568 567/567/567 566/566/566
f 569/569/569 568/568/568 566/566/566
f 570/570/570 568/568/568 569/569/569
f 566/566/566 567/567/567 571/571/571
f 566/566/566 571/571/571 572/572/572
f 572/572/572 571/571/571 573/573/573
f 576/576/576 575/575/575 574/574/574
f 577/577/577 576/576/576 574/574/574
f 574/574/574 575/575/575 578/578/578
f 577/577/577 574/574/574 579/579/579
f 581/581/581 580/580/580 578/578/578
f 584/584/584 583/583/583 582/582/582
f 586/586/586 584/584/584 585/585/585
f 589/589/589 588/588/588 587/587/587
f 592/592/592 591/591/591 590/590/590
f 595/595/595 594/594/594 593/593/593
f 596/596/596 594/594/594 595/595/595
f 596/596/596 597/597/597 594/594/594
f 595/595/595 593/593/593 598/598/598
f 598/598/598 593/593/593 599/599/599
f 600/600/600 597/597/597 596/596/596
f 600/600/600 601/601/601 597/597/597
f 602/602/602 601/601/601 600/600/600
f 598/598/598 599/599/599 603/603/603
f 603/603/603 599/599/599 604/604/604
f 603/603/603 604/604/604 605/605/605
f 605/605/605 604/604/604 606/606/606
f 605/605/605 606/606/606 607/607/607
f 607/607/607 606/606/606 608/608/608
f 607/607/607 608/608/608 609/609/609
f 602/602/602 610/610/610 601/601/601
f 611/611/611 610/610/610 602/602/602
f 611/611/611 612/612/612 610/610/610
f 613/613/613 612/612/612 611/611/611
f 613/613/613 614/614/614 612/612/612
f 615/615/615 614/614/614 613/613/613
f 615/615/615 616/616/616 614/614/614
f 617/617/617 616/616/616 615/615/615
f 617/617/617 618/618/618 616/616/616
f 619/619/619 618/618/618 617/617/617
f 619/619/619 620/620/620 618/618/618
f 620/620/620 607/607/607 609/609/609
f 621/621/621 620/620/620 619/619/619
f 621/621/621 607/607/607 620/620/620
f 624/624/624 623/623/623 622/622/622
f 622/622/622 626/626/626 625/625/625
f 629/629/629 628/628/628 627/627/627
f 628/628/628 630/630/630 627/627/627
f 631/631/631 628/628/628 629/629/629
f 632/632/632 628/628/628 631/631/631
f 635/635/635 634/634/634 633/633/633
f 638/638/638 637/637/637 636/636/636
f 641/641/641 640/640/640 639/639/639
f 642/642/642 641/641/641 639/639/639
f 643/643/643 641/641/641 642/642/642
f 642/642/642 639/639/639 644/644/644
f 645/645/645 643/643/643 642/642/642
f 646/646/646 642/642/642 644/644/644
f 647/647/647 642/642/642 646/646/646
f 647/647/647 645/645/645 642/642/642
f 639/639/639 640/640/640 648/648/648
f 639/639/639 648/648/648 649/649/649
f 644/644/644 639/639/639 649/649/649
f 649/649/649 648/648/648 650/650/650
f 649/649/649 650/650/650 651/651/651
f 652/652/652 649/649/649 651/651/651
f 653/653/653 649/649/649 652/652/652
f 654/654/654 649/649/649 653/653/653
f 655/655/655 644/644/644 649/649/649
f 656/656/656 654/654/654 653/653/653
f 646/646/646 644/644/644 657/657/657
f 657/657/657 644/644/644 658/658/658
f 660/660/660 659/659/659 656/656/656
f 662/662/662 661/661/661 660/660/660
f 662/662/662 663/663/663 661/661/661
f 666/666/666 665/665/665 664/664/664
f 667/667/667 665/665/665 666/666/666
f 667/667/667 668/668/668 665/665/665
f 666/666/666 664/664/664 669/669/669
f 669/669/669 664/664/664 670/670/670
f 671/671/671 668/668/668 667/667/667
f 671/671/671 672/672/672 668/668/668
f 673/673/673 672/672/672 671/671/671
f 673/673/673 674/674/674 672/672/672
f 675/675/675 674/674/674 673/673/673
f 675/675/675 676/676/676 674/674/674
f 669/669/669 670/670/670 677/677/677
f 677/677/677 670/670/670 678/678/678
f 679/679/679 676/676/676 675/675/675
f 677/677/677 678/678/678 680/680/680
f 680/680/680 678/678/678 681/681/681
f 680/680/680 681/681/681 682/682/682
f 682/682/682 681/681/681 683/683/683
f 682/682/682 683/683/683 684/684/684
f 685/685/685 682/682/682 684/684/684
f 686/686/686 682/682/682 685/685/685
f 686/686/686 685/685/685 687/687/687
f 687/687/687 685/685/685 688/688/688
f 687/687/687 688/688/688 689/689/689
f 689/689/689 688/688/688 690/690/690
f 689/689/689 690/690/690 691/691/691
f 691/691/691 690/690/690 692/692/692
f 691/691/691 692/692/692 679/679/679
f 679/679/679 692/692/692 676/676/676
f 695/695/695 694/694/694 693/693/693
f 693/693/693 694/694/694 696/696/696
f 693/693/693 696/696/696 697/697/697
f 697/697/697 696/696/696 698/698/698
f 697/697/697 698/698/698 699/699/699
f 700/700/700 695/695/695 693/693/693
f 701/701/701 693/693/693 697/697/697
f 700/700/700 693/693/693 701/701/701
f 702/702/702 700/700/700 701/701/701
f 703/703/703 700/700/700 702/702/702
f 701/701/701 704/704/704 702/702/702
f 702/702/702 704/704/704 705/705/705
f 706/706/706 702/702/702 705/705/705
f 707/707/707 695/695/695 700/700/700
f 708/708/708 707/707/707 700/700/700
f 709/709/709 707/707/707 708/708/708
f 702/702/702 710/710/710 708/708/708
f 697/697/697 711/711/711 701/701/701
f 701/701/701 711/711/711 704/704/704
f 711/711/711 697/697/697 712/712/712
f 712/712/712 697/697/697 699/699/699
f 713/713/713 710/710/710 702/702/702
f 706/706/706 713/713/713 702/702/702
f 715/715/715 709/709/709 714/714/714
f 714/714/714 716/716/716 715/715/715
f 719/719/719 718/718/718 717/717/717
f 720/720/720 718/718/718 719/719/719
f 719/719/719 717/717/717 721/721/721
f 721/721/721 717/717/717 722/722/722
f 721/721/721 722/722/722 723/723/723
f 724/724/724 721/721/721 723/723/723
f 725/725/725 724/724/724 723/723/723
f 724/724/724 725/725/725 726/726/726
f 726/726/726 725/725/725 727/727/727
f 726/726/726 727/727/727 728/728/728
f 720/720/720 729/729/729 718/718/718
f 730/730/730 729/729/729 720/720/720
f 730/730/730 731/731/731 729/729/729
f 732/732/732 731/731/731 730/730/730
f 732/732/732 733/733/733 731/731/731
f 734/734/734 733/733/733 732/732/732
f 734/734/734 735/735/735 733/733/733
f 736/736/736 735/735/735 734/734/734
f 736/736/736 737/737/737 735/735/735
f 738/738/738 737/737/737 736/736/736
f 738/738/738 739/739/739 737/737/737
f 740/740/740 739/739/739 738/738/738
f 740/740/740 741/741/741 739/739/739
f 742/742/742 741/741/741 740/740/740
f 742/742/742 743/743/743 741/741/741
f 744/744/744 743/743/743 742/742/742
f 744/744/744 745/745/745 743/743/743
f 728/728/728 745/745/745 744/744/744
f 728/728/728 727/727/727 745/745/745
f 748/748/748 747/747/747 746/746/746
f 749/749/749 748/748/748 746/746/746
f 750/750/750 748/748/748 749/749/749
f 746/746/746 747/747/747 751/751/751
f 746/746/746 751/751/751 752/752/752
f 752/752/752 751/751/751 753/753/753
f 755/755/755 753/753/753 754/754/754
f 757/757/757 755/755/755 756/756/756
f 760/760/760 759/759/759 758/758/758
f 761/761/761 760/760/760 758/758/758
f 758/758/758 759/759/759 762/762/762
f 761/761/761 758/758/758 763/763/763
f 765/765/765 764/764/764 761/761/761
f 767/767/767 766/766/766 762/762/762
f 769/769/769 763/763/763 768/768/768
f 763/763/763 771/771/771 770/770/770
f 774/774/774 773/773/773 772/772/772
f 777/777/777 776/776/776 775/775/775
f 780/780/780 779/779/779 778/778/778
f 783/783/783 782/782/782 781/781/781
f 784/784/784 783/783/783 781/781/781
f 785/785/785 783/783/783 784/784/784
f 786/786/786 783/783/783 785/785/785
f 789/789/789 788/788/788 787/787/787
f 790/790/790 788/788/788 789/789/789
f 790/790/790 791/791/791 788/788/788
f 789/789/789 787/787/787 792/792/792
f 792/792/792 787/787/787 793/793/793
f 794/794/794 791/791/791 790/790/790
f 794/794/794 795/795/795 791/791/791
f 796/796/796 795/795/795 794/794/794
f 792/792/792 793/793/793 797/797/797
f 797/797/797 793/793/793 798/798/798
f 797/797/797 798/798/798 799/799/799
f 799/799/799 798/798/798 800/800/800
f 799/799/799 800/800/800 801/801/801
f 801/801/801 800/800/800 802/802/802
f 801/801/801 802/802/802 803/803/803
f 804/804/804 801/801/801 803/803/803
f 805/805/805 801/801/801 804/804/804
f 805/805/805 804/804/804 806/806/806
f 806/806/806 804/804/804 807/807/807
f 806/806/806 807/807/807 808/808/808
f 808/808/808 807/807/807 809/809/809
f 808/808/808 809/809/809 810/810/810
f 810/810/810 809/809/809 811/811/811
f 810/810/810 811/811/811 812/812/812
f 812/812/812 811/811/811 813/813/813
f 812/812/812 813/813/813 814/814/814
f 814/814/814 813/813/813 815/815/815
f 814/814/814 815/815/815 796/796/796
f 796/796/796 815/815/815 795/795/795
f 818/818/818 817/817/817 816/816/816
f 819/819/819 818/818/818 816/816/816
f 820/820/820 818/818/818 819/819/819
f 819/819/819 816/816/816 821/821/821
f 821/821/821 816/816/816 822/822/822
f 816/816/816 823/823/823 822/822/822
f 822/822/822 823/823/823 824/824/824
f 822/822/822 824/824/824 825/825/825
f 826/826/826 820/820/820 819/819/819
f 827/827/827 826/826/826 819/819/819
f 827/827/827 819/819/819 828/828/828
f 830/830/830 822/822/822 829/829/829
f 829/829/829 822/822/822 831/831/831
f 831/831/831 822/822/822 832/832/832
f 835/835/835 834/834/834 833/833/833
f 838/838/838 837/837/837 836/836/836
f 841/841/841 840/840/840 839/839/839
f 844/844/844 843/843/843 842/842/842
f 847/847/847 846/846/846 845/845/845
f 848/848/848 846/846/846 847/847/847
f 851/851/851 850/850/850 849/849/849
f 852/852/852 850/850/850 851/851/851
f 852/852/852 853/853/853 850/850/850
f 854/854/854 853/853/853 852/852/852
f 854/854/854 856/856/856 855/855/855
f 857/857/857 856/856/856 854/854/854
f 857/857/857 858/858/858 856/856/856
f 859/859/859 858/858/858 857/857/857
f 859/859/859 860/860/860 858/858/858
f 861/861/861 860/860/860 859/859/859
f 864/864/864 863/863/863 862/862/862
f 865/865/865 863/863/863 864/864/864
f 868/868/868 867/867/867 866/866/866
f 869/869/869 867/867/867 868/868/868
f 869/869/869 870/870/870 867/867/867
f 871/871/871 870/870/870 869/869/869
f 871/871/871 872/872/872 870/870/870
f 873/873/873 872/872/872 871/871/871
f 873/873/873 874/874/874 872/872/872
f 875/875/875 874/874/874 873/873/873
f 875/875/875 876/876/876 874/874/874
f 877/877/877 876/876/876 875/875/875
