g Deck_Full_mesh_1
v 1558.969 149.9281 -880.3998
v 1562.732 149.9327 -880.0939
v 1558.724 152.3244 -718.7704
v 1563.093 152.3347 -718.0768
v 1563.093 148.1359 -710.4496
v 1559.076 148.1359 -710.4496
v 1554.671 152.3252 -718.7156
v 1558.373 148.1135 -711.9625
v 1555.368 148.1168 -711.7371
v 1553.974 148.1344 -710.5555
v 1555.368 139.4189 -709.3298
v 1558.373 139.4155 -709.561
v 1558.373 148.1135 -711.9625
v 1554.478 149.9274 -880.4465
v 1545.066 152.3155 -719.3716
v 1553.974 148.1344 -710.5555
v 1545.398 148.1265 -711.0847
v 1545.211 149.9136 -881.3824
v 1545.897 145.5074 -887.7411
v 1553.856 145.5229 -886.6994
v 1540.306 152.2846 -721.4597
v 1541.052 149.9005 -882.2627
v 1541.146 145.4823 -889.4379
v 1545.063 145.483 -889.3915
v 1541.146 136.7174 -891.5447
v 1545.063 136.7181 -891.4971
v 1536.519 152.2788 -721.8498
v 1536.508 149.8894 -883.0095
v 1536.602 145.4403 -892.2661
v 1540.953 145.4389 -892.3603
v 1532.913 152.2887 -721.1826
v 1531.769 149.8915 -882.873
v 1531.769 145.4711 -890.1921
v 1535.966 145.4641 -890.6635
v 1531.768 136.7059 -892.3181
v 1535.966 136.6988 -892.8014
v 1527.789 136.7181 -891.4971
v 1527.789 145.483 -889.3915
v 1527.789 145.483 -889.3915
v 1527.458 149.9104 -881.5928
v 1528.028 152.3117 -719.6297
v 1532.913 148.0857 -713.837
v 1528.245 148.103 -712.6726
v 1536.325 148.0861 -713.8104
v 1536.325 139.3874 -711.4559
v 1532.913 139.387 -711.4831
v 1528.245 148.103 -712.6726
v 1528.245 139.4047 -710.2891
v 1522.772 152.3141 -719.4639
v 1527.811 148.1187 -711.614
v 1522.772 148.1135 -711.9625
v 1522.971 149.9184 -881.0579
v 1522.971 145.5004 -888.2124
v 1527.128 145.499 -888.3067
v 1527.811 139.4208 -709.2037
v 1527.811 148.1187 -711.614
v 1522.772 139.4155 -709.561
v 1522.971 136.736 -890.2881
v 1527.128 145.499 -888.3067
v 1527.128 136.7346 -890.3848
v 1563.093 139.4385 -708.0096
v 1559.076 148.1359 -710.4496
v 1559.076 139.4385 -708.0096
v 1559.076 139.4385 -708.0096
v 1558.373 148.1135 -711.9625
v 1559.076 148.1359 -710.4496
v 1558.373 139.4155 -709.561
v 1558.373 148.1135 -711.9625
v 1558.724 152.3244 -718.7704
v 1559.076 148.1359 -710.4496
v 1553.974 139.4369 -708.1182
v 1553.974 148.1344 -710.5555
v 1555.368 139.4189 -709.3298
v 1553.974 139.4369 -708.1182
v 1553.974 148.1344 -710.5555
v 1545.398 139.4288 -708.6609
v 1545.398 139.4288 -708.6609
v 1544.734 148.1035 -712.6388
v 1545.398 148.1265 -711.0847
v 1544.734 139.4052 -710.2545
v 1544.734 139.4052 -710.2545
v 1540.679 148.0995 -712.905
v 1544.734 148.1035 -712.6388
v 1540.679 139.4011 -710.5274
v 1540.679 139.4011 -710.5274
v 1539.932 148.0629 -715.3737
v 1540.679 148.0995 -712.905
v 1539.932 139.3636 -713.0588
v 1539.932 139.3636 -713.0588
v 1536.713 148.0637 -715.319
v 1539.932 148.0629 -715.3737
v 1536.713 139.3644 -713.0027
v 1536.519 152.2788 -721.8498
v 1539.932 148.0629 -715.3737
v 1540.306 152.2846 -721.4597
v 1536.713 139.3644 -713.0027
v 1536.325 148.0861 -713.8104
v 1536.713 148.0637 -715.319
v 1536.325 139.3874 -711.4559
v 1536.325 148.0861 -713.8104
v 1536.519 152.2788 -721.8498
v 1528.245 139.4047 -710.2891
v 1527.811 148.1187 -711.614
v 1528.245 148.103 -712.6726
v 1527.811 139.4208 -709.2037
v 1527.811 148.1187 -711.614
v 1528.028 152.3117 -719.6297
v 1528.245 148.103 -712.6726
v 1536.325 148.0861 -713.8104
v 1532.913 152.2887 -721.1826
v 1536.519 152.2788 -721.8498
v 1539.932 148.0629 -715.3737
v 1540.306 152.2846 -721.4597
v 1540.679 148.0995 -712.905
v 1540.679 148.0995 -712.905
v 1540.306 152.2846 -721.4597
v 1544.734 148.1035 -712.6388
v 1545.066 152.3155 -719.3716
v 1544.734 148.1035 -712.6388
v 1545.066 152.3155 -719.3716
v 1545.398 148.1265 -711.0847
v 1554.529 145.4978 -888.3916
v 1559.084 145.5027 -888.059
v 1559.697 145.5194 -886.9302
v 1562.732 145.516 -887.1609
v 1559.697 136.7555 -888.9733
v 1559.697 145.5194 -886.9302
v 1562.732 136.752 -889.2098
v 1554.529 136.7333 -890.4718
v 1559.084 145.5027 -888.059
v 1554.529 145.4978 -888.3916
v 1559.084 136.7384 -890.1307
v 1559.084 136.7384 -890.1307
v 1559.697 145.5194 -886.9302
v 1559.084 145.5027 -888.059
v 1559.697 136.7555 -888.9733
v 1559.697 145.5194 -886.9302
v 1558.969 149.9281 -880.3998
v 1559.084 145.5027 -888.059
v 1554.529 136.7333 -890.4718
v 1554.529 145.4978 -888.3916
v 1553.862 136.956 -888.7386
v 1553.856 145.5229 -886.6994
v 1554.529 145.4978 -888.3916
v 1554.478 149.9274 -880.4465
v 1553.856 145.5229 -886.6994
v 1553.862 136.956 -888.7386
v 1553.856 145.5229 -886.6994
v 1545.733 136.9402 -889.8085
v 1545.897 145.5074 -887.7411
v 1545.733 136.9402 -889.8085
v 1545.897 145.5074 -887.7411
v 1545.063 136.7181 -891.4971
v 1545.063 136.7181 -891.4971
v 1545.897 145.5074 -887.7411
v 1545.063 145.483 -889.3915
v 1541.146 136.7174 -891.5447
v 1541.146 145.4823 -889.4379
v 1540.953 136.673 -894.5413
v 1540.953 145.4389 -892.3603
v 1541.052 149.9005 -882.2627
v 1540.953 136.673 -894.5413
v 1536.602 136.6744 -894.4447
v 1536.602 145.4403 -892.2661
v 1536.602 136.6744 -894.4447
v 1536.602 145.4403 -892.2661
v 1535.966 136.6988 -892.8014
v 1535.966 145.4641 -890.6635
v 1527.789 136.7181 -891.4971
v 1527.789 145.483 -889.3915
v 1527.128 136.7346 -890.3848
v 1527.128 145.499 -888.3067
v 1545.897 145.5074 -887.7411
v 1545.211 149.9136 -881.3824
v 1545.063 145.483 -889.3915
v 1536.602 145.4403 -892.2661
v 1536.508 149.8894 -883.0095
v 1535.966 145.4641 -890.6635
v 1527.789 145.483 -889.3915
v 1527.458 149.9104 -881.5928
v 1527.128 145.499 -888.3067
v 1562.732 -103.859 -885.6426
v 1562.732 136.752 -889.2098
v 1559.697 -103.8555 -885.4059
v 1559.697 136.7555 -888.9733
v 1562.732 -112.5584 -883.3347
v 1559.697 -112.555 -883.1039
v 1559.697 -112.555 -883.1039
v 1562.732 -116.7636 -876.1398
v 1558.969 -116.7682 -876.4457
v 1558.724 -114.3719 -714.8164
v 1563.093 -114.3616 -714.1229
v 1563.093 -109.9385 -706.6234
v 1559.076 -109.9385 -706.6234
v 1554.671 -114.371 -714.7616
v 1558.373 -109.961 -708.1364
v 1555.368 -109.9576 -707.9109
v 1553.974 -109.9401 -706.7292
v 1555.368 -101.1921 -705.7626
v 1558.373 -101.1956 -705.9938
v 1555.368 139.4189 -709.3298
v 1558.373 139.4155 -709.561
v 1553.974 139.4369 -708.1182
v 1553.974 -101.1742 -704.551
v 1545.398 139.4288 -708.6609
v 1545.398 -101.1822 -705.0937
v 1545.398 -109.9479 -707.2585
v 1553.974 -109.9401 -706.7292
v 1553.974 -109.9401 -706.7292
v 1558.373 -109.961 -708.1364
v 1553.974 -109.9401 -706.7292
v 1545.066 -114.3808 -715.4175
v 1554.478 -116.7689 -876.4924
v 1554.529 -112.5767 -884.5654
v 1559.084 -112.5717 -884.2328
v 1545.211 -116.7827 -877.4283
v 1545.897 -112.567 -883.9149
v 1553.856 -112.5516 -882.8732
v 1540.306 -114.4117 -717.5057
v 1541.052 -116.7958 -878.3087
v 1541.146 -112.5922 -885.6118
v 1545.063 -112.5915 -885.5653
v 1541.146 -103.8936 -887.9775
v 1545.063 -103.8929 -887.9298
v 1545.063 136.7181 -891.4971
v 1541.146 136.7174 -891.5447
v 1536.519 -114.4175 -717.8958
v 1536.508 -116.8069 -879.0555
v 1536.602 -112.6341 -888.4399
v 1540.953 -112.6355 -888.5341
v 1532.913 -114.4076 -717.2286
v 1531.769 -116.8048 -878.919
v 1531.769 -112.6034 -886.3659
v 1535.966 -112.6104 -886.8373
v 1531.769 -103.9051 -888.7508
v 1535.966 -103.9123 -889.2341
v 1535.966 136.6988 -892.8014
v 1531.768 136.7059 -892.3181
v 1527.789 -103.8929 -887.9298
v 1527.789 136.7181 -891.4971
v 1527.128 -103.8764 -886.8174
v 1527.128 136.7346 -890.3848
v 1522.971 -103.875 -886.7208
v 1522.971 136.736 -890.2881
v 1527.789 -112.5915 -885.5653
v 1527.789 -112.5915 -885.5653
v 1527.128 -112.5754 -884.4805
v 1527.128 -112.5754 -884.4805
v 1522.971 -112.574 -884.3862
v 1527.458 -116.7859 -877.6388
v 1527.128 -112.5754 -884.4805
v 1522.971 -116.7779 -877.1039
v 1522.772 -114.3821 -715.5099
v 1528.028 -114.3846 -715.6757
v 1527.811 -109.9558 -707.7878
v 1522.772 -109.961 -708.1364
v 1527.789 -112.5915 -885.5653
v 1532.913 -109.9887 -710.0109
v 1528.245 -109.9715 -708.8464
v 1536.325 -109.9883 -709.9843
v 1536.325 -101.2237 -707.8886
v 1532.913 -101.2241 -707.9158
v 1532.913 139.387 -711.4831
v 1536.325 139.3874 -711.4559
v 1528.245 139.4047 -710.2891
v 1528.245 -101.2064 -706.7219
v 1527.811 139.4208 -709.2037
v 1527.811 -101.1903 -705.6364
v 1527.811 -109.9558 -707.7878
v 1528.245 -109.9715 -708.8464
v 1528.245 -109.9715 -708.8464
v 1559.697 -103.8555 -885.4059
v 1559.697 136.7555 -888.9733
v 1559.084 -103.8727 -886.5634
v 1559.084 136.7384 -890.1307
v 1554.529 -103.8777 -886.9045
v 1554.529 136.7333 -890.4718
v 1559.084 -112.5717 -884.2328
v 1554.529 -112.5767 -884.5654
v 1559.697 -112.555 -883.1039
v 1559.084 -112.5717 -884.2328
v 1554.529 -103.8777 -886.9045
v 1554.529 136.7333 -890.4718
v 1553.862 -104.049 -885.1655
v 1553.862 136.956 -888.7386
v 1554.529 -112.5767 -884.5654
v 1553.856 -112.5516 -882.8732
v 1553.862 -104.049 -885.1655
v 1553.862 136.956 -888.7386
v 1545.733 -104.0648 -886.2354
v 1545.733 136.9402 -889.8085
v 1553.856 -112.5516 -882.8732
v 1545.897 -112.567 -883.9149
v 1545.733 -104.0648 -886.2354
v 1545.733 136.9402 -889.8085
v 1545.063 -103.8929 -887.9298
v 1545.063 136.7181 -891.4971
v 1545.897 -112.567 -883.9149
v 1541.146 -103.8936 -887.9775
v 1541.146 136.7174 -891.5447
v 1540.953 -103.9381 -890.9741
v 1540.953 136.673 -894.5413
v 1541.146 -112.5922 -885.6118
v 1540.953 -112.6355 -888.5341
v 1541.052 -116.7958 -878.3087
v 1540.953 -103.9381 -890.9741
v 1540.953 136.673 -894.5413
v 1536.602 -103.9366 -890.8774
v 1536.602 136.6744 -894.4447
v 1536.602 -112.6341 -888.4399
v 1536.602 -103.9366 -890.8774
v 1536.602 136.6744 -894.4447
v 1535.966 -103.9123 -889.2341
v 1535.966 136.6988 -892.8014
v 1536.602 -112.6341 -888.4399
v 1535.966 -112.6104 -886.8373
v 1545.063 -112.5915 -885.5653
v 1545.897 -112.567 -883.9149
v 1545.063 -103.8929 -887.9298
v 1559.084 -112.5717 -884.2328
v 1558.969 -116.7682 -876.4457
v 1559.697 -112.555 -883.1039
v 1559.076 -109.9385 -706.6234
v 1563.093 -101.1726 -704.4424
v 1559.076 -101.1726 -704.4424
v 1559.076 139.4385 -708.0096
v 1563.093 139.4385 -708.0096
v 1559.076 -101.1726 -704.4424
v 1558.373 139.4155 -709.561
v 1559.076 139.4385 -708.0096
v 1558.373 -101.1956 -705.9938
v 1558.373 -109.961 -708.1364
v 1559.076 -109.9385 -706.6234
v 1545.398 -101.1822 -705.0937
v 1544.734 139.4052 -710.2545
v 1545.398 139.4288 -708.6609
v 1544.734 -101.2058 -706.6872
v 1544.734 -109.971 -708.8126
v 1545.398 -109.9479 -707.2585
v 1544.734 -101.2058 -706.6872
v 1540.679 139.4011 -710.5274
v 1544.734 139.4052 -710.2545
v 1540.679 -101.2099 -706.9601
v 1540.679 -109.9749 -709.0788
v 1544.734 -109.971 -708.8126
v 1540.679 -101.2099 -706.9601
v 1539.932 139.3636 -713.0588
v 1540.679 139.4011 -710.5274
v 1539.932 -101.2474 -709.4915
v 1539.932 -110.0115 -711.5475
v 1540.679 -109.9749 -709.0788
v 1539.932 -101.2474 -709.4915
v 1536.713 139.3644 -713.0027
v 1539.932 139.3636 -713.0588
v 1536.713 -101.2466 -709.4355
v 1536.713 -110.0107 -711.4929
v 1539.932 -110.0115 -711.5475
v 1539.932 -110.0115 -711.5475
v 1536.519 -114.4175 -717.8958
v 1540.306 -114.4117 -717.5057
v 1536.713 -101.2466 -709.4355
v 1536.325 139.3874 -711.4559
v 1536.713 139.3644 -713.0027
v 1536.325 -101.2237 -707.8886
v 1536.325 -109.9883 -709.9843
v 1536.713 -110.0107 -711.4929
v 1536.519 -114.4175 -717.8958
v 1536.325 -109.9883 -709.9843
v 1527.811 -101.1903 -705.6364
v 1522.772 139.4155 -709.561
v 1527.811 139.4208 -709.2037
v 1522.772 -101.1956 -705.9938
v 1527.811 -109.9558 -707.7878
v 1528.245 -109.9715 -708.8464
v 1528.028 -114.3846 -715.6757
v 1527.811 -109.9558 -707.7878
v 1536.519 -114.4175 -717.8958
v 1532.913 -114.4076 -717.2286
v 1536.325 -109.9883 -709.9843
v 1544.734 -109.971 -708.8126
v 1540.306 -114.4117 -717.5057
v 1540.679 -109.9749 -709.0788
v 1545.066 -114.3808 -715.4175
v 1540.679 -109.9749 -709.0788
v 1540.306 -114.4117 -717.5057
v 1539.932 -110.0115 -711.5475
v 1545.398 -109.9479 -707.2585
v 1545.066 -114.3808 -715.4175
v 1544.734 -109.971 -708.8126
v 1559.076 -109.9385 -706.6234
v 1558.724 -114.3719 -714.8164
v 1558.373 -109.961 -708.1364
v 1553.856 -112.5516 -882.8732
v 1554.478 -116.7689 -876.4924
v 1554.529 -112.5767 -884.5654
v 1545.063 -112.5915 -885.5653
v 1545.211 -116.7827 -877.4283
v 1545.897 -112.567 -883.9149
v 1535.966 -112.6104 -886.8373
v 1536.508 -116.8069 -879.0555
v 1536.602 -112.6341 -888.4399
v 1527.128 -112.5754 -884.4805
v 1527.458 -116.7859 -877.6388
v 1527.789 -112.5915 -885.5653
v 1522.971 -103.875 -886.7208
v 1522.971 136.736 -890.2881
v 1522.772 -101.1956 -705.9938
v 1522.772 139.4155 -709.561
v 1522.971 145.5004 -888.2124
v 1522.772 148.1135 -711.9625
v 1522.971 149.9184 -881.0579
v 1522.772 152.3141 -719.4639
v 1522.971 -112.574 -884.3862
v 1522.772 -109.961 -708.1364
v 1522.971 -116.7779 -877.1039
v 1522.772 -114.3821 -715.5099
v 1563.093 -101.1726 -704.4424
v 1563.093 139.4385 -708.0096
v 1562.732 -103.859 -885.6426
v 1562.732 136.752 -889.2098
v 1563.093 148.1359 -710.4496
v 1562.732 145.516 -887.1609
v 1563.093 152.3347 -718.0768
v 1562.732 149.9327 -880.0939
v 1563.093 -109.9385 -706.6234
v 1562.732 -112.5584 -883.3347
v 1563.093 -114.3616 -714.1229
v 1562.732 -116.7636 -876.1398
vt 0.850064 0.07487
vt 0.834712 0.07487
vt 0.852274 0.616288
vt 0.834712 0.616288
vt 0.834712 0.645235
vt 0.848785 0.645235
vt 0.868373 0.616288
vt 0.854631 0.645235
vt 0.865191 0.645235
vt 0.871594 0.645235
vt 0.865169 0.675442
vt 0.854659 0.675442
vt 0.854631 0.645235
vt 0.868328 0.07487
vt 0.906602 0.616288
vt 0.871594 0.645235
vt 0.9017 0.645235
vt 0.906204 0.07487
vt 0.902059 0.048099
vt 0.871145 0.048441
vt 0.927243 0.616288
vt 0.923491 0.07487
vt 0.920502 0.046862
vt 0.907303 0.046862
vt 0.920657 0.016739
vt 0.907565 0.016739
vt 0.942359 0.616288
vt 0.942215 0.07487
vt 0.945033 0.046862
vt 0.930371 0.046862
vt 0.956919 0.616288
vt 0.961496 0.07487
vt 0.966188 0.046862
vt 0.950473 0.046862
vt 0.966357 0.016739
vt 0.950766 0.016739
vt 0.979937 0.016739
vt 0.979866 0.046862
vt 0.979866 0.046862
vt 0.97978 0.07487
vt 0.977274 0.616288
vt 0.959591 0.645235
vt 0.976449 0.645235
vt 0.947637 0.645235
vt 0.947762 0.675442
vt 0.95966 0.675442
vt 0.976449 0.645235
vt 0.976463 0.675442
vt 0.998157 0.616288
vt 0.980458 0.645235
vt 0.998157 0.645235
vt 0.998157 0.07487
vt 0.998157 0.046862
vt 0.984146 0.046862
vt 0.98054 0.675442
vt 0.980458 0.645235
vt 0.998157 0.675442
vt 0.998157 0.016739
vt 0.984146 0.046862
vt 0.98426 0.016739
vt 0.834712 0.675442
vt 0.848785 0.645235
vt 0.848718 0.675442
vt 0.848718 0.675442
vt 0.854631 0.645235
vt 0.848785 0.645235
vt 0.854659 0.675442
vt 0.854631 0.645235
vt 0.852274 0.616288
vt 0.848785 0.645235
vt 0.87161 0.675442
vt 0.871594 0.645235
vt 0.865169 0.675442
vt 0.87161 0.675442
vt 0.871594 0.645235
vt 0.901577 0.675442
vt 0.901577 0.675442
vt 0.907622 0.645235
vt 0.9017 0.645235
vt 0.907598 0.675442
vt 0.907598 0.675442
vt 0.921859 0.645235
vt 0.907622 0.645235
vt 0.921768 0.675442
vt 0.921768 0.675442
vt 0.930897 0.645235
vt 0.921859 0.645235
vt 0.930973 0.675442
vt 0.930973 0.675442
vt 0.942179 0.645235
vt 0.930897 0.645235
vt 0.942201 0.675442
vt 0.942359 0.616288
vt 0.930897 0.645235
vt 0.927243 0.616288
vt 0.942201 0.675442
vt 0.947637 0.645235
vt 0.942179 0.645235
vt 0.947762 0.675442
vt 0.947637 0.645235
vt 0.942359 0.616288
vt 0.976463 0.675442
vt 0.980458 0.645235
vt 0.976449 0.645235
vt 0.98054 0.675442
vt 0.980458 0.645235
vt 0.977274 0.616288
vt 0.976449 0.645235
vt 0.947637 0.645235
vt 0.956919 0.616288
vt 0.942359 0.616288
vt 0.930897 0.645235
vt 0.927243 0.616288
vt 0.921859 0.645235
vt 0.921859 0.645235
vt 0.927243 0.616288
vt 0.907622 0.645235
vt 0.906602 0.616288
vt 0.907622 0.645235
vt 0.906602 0.616288
vt 0.9017 0.645235
vt 0.865904 0.046862
vt 0.850515 0.046862
vt 0.846697 0.046862
vt 0.834712 0.046862
vt 0.8466 0.016739
vt 0.846697 0.046862
vt 0.834712 0.016739
vt 0.865748 0.016739
vt 0.850515 0.046862
vt 0.865904 0.046862
vt 0.850482 0.016739
vt 0.850482 0.016739
vt 0.846697 0.046862
vt 0.850515 0.046862
vt 0.8466 0.016739
vt 0.846697 0.046862
vt 0.850064 0.07487
vt 0.850515 0.046862
vt 0.865748 0.016739
vt 0.865904 0.046862
vt 0.87257 0.017757
vt 0.871145 0.048441
vt 0.865904 0.046862
vt 0.868328 0.07487
vt 0.871145 0.048441
vt 0.87257 0.017757
vt 0.871145 0.048441
vt 0.901105 0.017737
vt 0.902059 0.048099
vt 0.901105 0.017737
vt 0.902059 0.048099
vt 0.907565 0.016739
vt 0.907565 0.016739
vt 0.902059 0.048099
vt 0.907303 0.046862
vt 0.920657 0.016739
vt 0.920502 0.046862
vt 0.930693 0.016739
vt 0.930371 0.046862
vt 0.923491 0.07487
vt 0.930693 0.016739
vt 0.945235 0.016739
vt 0.945033 0.046862
vt 0.945235 0.016739
vt 0.945033 0.046862
vt 0.950766 0.016739
vt 0.950473 0.046862
vt 0.979937 0.016739
vt 0.979866 0.046862
vt 0.98426 0.016739
vt 0.984146 0.046862
vt 0.902059 0.048099
vt 0.906204 0.07487
vt 0.907303 0.046862
vt 0.945033 0.046862
vt 0.942215 0.07487
vt 0.950473 0.046862
vt 0.979866 0.046862
vt 0.97978 0.07487
vt 0.984146 0.046862
vt 0.041464 0.640182
vt 0.041464 0.987447
vt 0.047432 0.640182
vt 0.047432 0.987447
vt 0.041464 0.627189
vt 0.04748 0.627189
vt 0.04748 0.627189
vt 0.041464 0.615108
vt 0.04917 0.615109
vt 0.05028 0.38158
vt 0.041464 0.38158
vt 0.041464 0.369094
vt 0.048528 0.369095
vt 0.058361 0.38158
vt 0.051463 0.369094
vt 0.056764 0.369094
vt 0.059978 0.369094
vt 0.056753 0.356066
vt 0.051477 0.356066
vt 0.056754 0.0088
vt 0.051478 0.0088
vt 0.059987 0.0088
vt 0.059986 0.356066
vt 0.07503 0.0088
vt 0.075029 0.356066
vt 0.075091 0.369094
vt 0.059978 0.369094
vt 0.059978 0.369094
vt 0.051463 0.369094
vt 0.059978 0.369094
vt 0.077552 0.38158
vt 0.058339 0.615109
vt 0.057122 0.627189
vt 0.049397 0.627189
vt 0.077352 0.615109
vt 0.075324 0.626656
vt 0.059696 0.626507
vt 0.087914 0.38158
vt 0.08603 0.615109
vt 0.084529 0.627189
vt 0.077904 0.627189
vt 0.084607 0.640182
vt 0.078035 0.640182
vt 0.078036 0.987447
vt 0.084608 0.987447
vt 0.095501 0.38158
vt 0.095429 0.615109
vt 0.096843 0.627189
vt 0.089483 0.627189
vt 0.10281 0.38158
vt 0.105108 0.615109
vt 0.107463 0.627189
vt 0.099574 0.627189
vt 0.107548 0.640182
vt 0.099721 0.640182
vt 0.099722 0.987447
vt 0.107548 0.987447
vt 0.114365 0.640182
vt 0.114366 0.987447
vt 0.116535 0.640182
vt 0.116535 0.987447
vt 0.123511 0.640182
vt 0.123511 0.987447
vt 0.114329 0.627189
vt 0.114329 0.627189
vt 0.116478 0.627189
vt 0.116478 0.627189
vt 0.123511 0.627189
vt 0.114286 0.615109
vt 0.116478 0.627189
vt 0.123511 0.615109
vt 0.123511 0.38158
vt 0.113028 0.38158
vt 0.114626 0.369094
vt 0.123511 0.369094
vt 0.114329 0.627189
vt 0.104151 0.369094
vt 0.112614 0.369094
vt 0.098151 0.369094
vt 0.098214 0.356066
vt 0.104186 0.356066
vt 0.104186 0.0088
vt 0.098214 0.0088
vt 0.112621 0.0088
vt 0.112621 0.356066
vt 0.114668 0.0088
vt 0.114667 0.356066
vt 0.114626 0.369094
vt 0.112614 0.369094
vt 0.112614 0.369094
vt 0.047432 0.640182
vt 0.047432 0.987447
vt 0.04938 0.640182
vt 0.049381 0.987447
vt 0.057044 0.640182
vt 0.057044 0.987447
vt 0.049397 0.627189
vt 0.057122 0.627189
vt 0.04748 0.627189
vt 0.049397 0.627189
vt 0.057044 0.640182
vt 0.057044 0.987447
vt 0.05957 0.639725
vt 0.060273 0.987716
vt 0.057122 0.627189
vt 0.059696 0.626507
vt 0.05957 0.639725
vt 0.060273 0.987716
vt 0.075666 0.63974
vt 0.074921 0.98772
vt 0.059696 0.626507
vt 0.075324 0.626656
vt 0.075666 0.63974
vt 0.074921 0.98772
vt 0.078035 0.640182
vt 0.078036 0.987447
vt 0.075324 0.626656
vt 0.084607 0.640182
vt 0.084608 0.987447
vt 0.089645 0.640182
vt 0.089646 0.987447
vt 0.084529 0.627189
vt 0.089483 0.627189
vt 0.08603 0.615109
vt 0.089645 0.640182
vt 0.089646 0.987447
vt 0.096945 0.640182
vt 0.096945 0.987447
vt 0.096843 0.627189
vt 0.096945 0.640182
vt 0.096945 0.987447
vt 0.099721 0.640182
vt 0.099722 0.987447
vt 0.096843 0.627189
vt 0.099574 0.627189
vt 0.077904 0.627189
vt 0.075324 0.626656
vt 0.078035 0.640182
vt 0.049397 0.627189
vt 0.04917 0.615109
vt 0.04748 0.627189
vt 0.048528 0.369095
vt 0.041464 0.356066
vt 0.048495 0.356066
vt 0.048495 0.0088
vt 0.041465 0.0088
vt 0.048495 0.356066
vt 0.051478 0.0088
vt 0.048495 0.0088
vt 0.051477 0.356066
vt 0.051463 0.369094
vt 0.048528 0.369095
vt 0.075029 0.356066
vt 0.078052 0.0088
vt 0.07503 0.0088
vt 0.078051 0.356066
vt 0.078064 0.369094
vt 0.075091 0.369094
vt 0.078051 0.356066
vt 0.085165 0.0088
vt 0.078052 0.0088
vt 0.085165 0.356066
vt 0.085211 0.369094
vt 0.078064 0.369094
vt 0.085165 0.356066
vt 0.089786 0.0088
vt 0.085165 0.0088
vt 0.089786 0.356066
vt 0.089747 0.369094
vt 0.085211 0.369094
vt 0.089786 0.356066
vt 0.095422 0.0088
vt 0.089786 0.0088
vt 0.095422 0.356066
vt 0.095411 0.369094
vt 0.089747 0.369094
vt 0.089747 0.369094
vt 0.095501 0.38158
vt 0.087914 0.38158
vt 0.095422 0.356066
vt 0.098214 0.0088
vt 0.095422 0.0088
vt 0.098214 0.356066
vt 0.098151 0.369094
vt 0.095411 0.369094
vt 0.095501 0.38158
vt 0.098151 0.369094
vt 0.114667 0.356066
vt 0.123511 0.0088
vt 0.114668 0.0088
vt 0.123511 0.356066
vt 0.114626 0.369094
vt 0.112614 0.369094
vt 0.113028 0.38158
vt 0.114626 0.369094
vt 0.095501 0.38158
vt 0.10281 0.38158
vt 0.098151 0.369094
vt 0.078064 0.369094
vt 0.087914 0.38158
vt 0.085211 0.369094
vt 0.077552 0.38158
vt 0.085211 0.369094
vt 0.087914 0.38158
vt 0.089747 0.369094
vt 0.075091 0.369094
vt 0.077552 0.38158
vt 0.078064 0.369094
vt 0.048528 0.369095
vt 0.05028 0.38158
vt 0.051463 0.369094
vt 0.059696 0.626507
vt 0.058339 0.615109
vt 0.057122 0.627189
vt 0.077904 0.627189
vt 0.077352 0.615109
vt 0.075324 0.626656
vt 0.099574 0.627189
vt 0.095429 0.615109
vt 0.096843 0.627189
vt 0.116478 0.627189
vt 0.114286 0.615109
vt 0.114329 0.627189
vt 0.172483 0.929803
vt 0.172483 0.063791
vt 0.827747 0.929803
vt 0.827748 0.063791
vt 0.180479 0.032363
vt 0.81951 0.032363
vt 0.20665 0.016848
vt 0.792543 0.016848
vt 0.180479 0.96123
vt 0.81951 0.96123
vt 0.20665 0.976746
vt 0.792542 0.976746
vt 0.173281 0.929995
vt 0.173281 0.063279
vt 0.825998 0.929995
vt 0.825998 0.063279
vt 0.181605 0.031826
vt 0.818151 0.031826
vt 0.208848 0.016297
vt 0.792465 0.016297
vt 0.181605 0.961448
vt 0.818151 0.961448
vt 0.208848 0.976976
vt 0.792465 0.976976
vn 0.1135031 0.9478778 -0.2977325
vn 0.001268481 0.956991 -0.2901149
vn -0.1233979 0.9554561 0.2680984
vn -0.04057645 0.9696304 0.2411855
vn -0.02817922 0.7321365 0.6805748
vn -0.2112881 0.5864522 0.7819405
vn 0.06035505 0.957085 0.2834527
vn -0.1737378 0.7292446 0.6618288
vn 0.267845 0.5316938 0.8034679
vn 0.2949121 0.6235136 0.7240564
vn 0.3812164 0.126911 0.9157334
vn 0.07499442 0.1833881 0.9801758
vn 0.04235689 0.7015277 0.7113824
vn -0.09900441 0.9454846 -0.310253
vn -0.1617883 0.9519809 0.2599174
vn 0.2041931 0.6925883 0.6918284
vn -0.2622195 0.5746998 0.7752168
vn 0.1317668 0.9442234 -0.3017942
vn 0.261021 0.6858769 -0.6792944
vn -0.1306619 0.538649 -0.8323368
vn -0.05526287 0.9651597 0.2557591
vn 0.02875398 0.9703366 -0.2400419
vn 0.04474284 0.7026588 -0.7101188
vn 0.20678 0.5642998 -0.7992545
vn 0.01188728 0.151875 -0.9883283
vn 0.01211624 0.06845319 -0.9975808
vn 0.006567204 0.96411 0.2654218
vn -0.1124992 0.9550087 -0.2744125
vn -0.2003155 0.7686046 -0.6075531
vn -0.01863384 0.5118483 -0.8588737
vn 0.04215517 0.9691584 0.2428061
vn -0.04460229 0.9615257 -0.2710702
vn -0.1204285 0.5918182 -0.7970246
vn -0.2877816 0.5559042 -0.7798412
vn -0.1569254 0.1105119 -0.9814079
vn -0.1139951 0.06917209 -0.9910704
vn -0.5791253 0.1012738 -0.8089236
vn -0.5316311 0.5441664 -0.6490387
vn -0.2929641 0.7071586 -0.643505
vn -0.130242 0.9431267 -0.3058581
vn 0.1668202 0.9491099 0.2671357
vn 0.09155446 0.6063436 0.7899146
vn 0.3855282 0.5340347 0.752446
vn 0.02744987 0.7223642 0.6909678
vn -0.007810732 0.1803439 0.9835725
vn 0.1184337 0.1380878 0.9833134
vn 0.5309676 0.4649767 0.708428
vn 0.6576647 0.09292017 0.7475581
vn -0.005073097 0.9711529 0.2384035
vn 0.1982346 0.7420128 0.6404063
vn -0.0607831 0.5022051 0.8626096
vn -0.03165877 0.9595307 -0.2798188
vn -0.03393533 0.683082 -0.7295529
vn -0.1957432 0.5485988 -0.8128494
vn -0.0691656 0.1835706 0.9805701
vn -0.03100272 0.7263404 0.6866356
vn -0.07049772 0.09907123 0.99258
vn -0.02275103 0.1497594 -0.9884607
vn -0.3605632 0.4848529 -0.7968137
vn -0.501879 0.0836819 -0.8608803
vn 0 0.1863963 0.9824746
vn 0 0.5166833 0.8561766
vn 0 0.1006657 0.9949203
vn -0.9070961 0.07878269 0.4134852
vn -0.8724391 0.2840059 0.3977319
vn -0.844847 0.3691697 0.38723
vn -0.9102312 0.04175898 0.4119897
vn -0.5963699 0.6065439 0.5257828
vn -0.1233979 0.9554561 0.2680984
vn -0.6315904 0.621548 0.4634347
vn 0.32109 0.1415459 0.9364111
vn 0.4431655 0.4102475 0.7970579
vn 0.3812164 0.126911 0.9157334
vn 0.32109 0.1415459 0.9364111
vn 0.2949121 0.6235136 0.7240564
vn -0.06293473 0.09990457 0.9930047
vn -0.9198574 0.07296474 0.3854071
vn -0.8888307 0.2669537 0.3724456
vn -0.8640085 0.3478737 0.3639684
vn -0.9225941 0.0386718 0.3838289
vn -0.06568808 0.1818543 0.9811291
vn -0.05723283 0.5150042 0.8552749
vn -0.3040441 0.7183897 0.6256783
vn -0.06693951 0.09825064 0.9929078
vn -0.9573525 0.05257874 0.2840979
vn -0.9389606 0.2017163 0.2786818
vn -0.9239969 0.2650473 0.2756441
vn -0.9588584 0.02775427 0.2825249
vn 0.01703034 0.1775844 0.9839582
vn 0.01515396 0.4801471 0.8770572
vn -0.01193645 0.6790254 0.7340178
vn 0.01734709 0.09627763 0.9952034
vn 0.006567204 0.96411 0.2654218
vn -0.2603181 0.6874803 0.6779419
vn -0.185682 0.9442809 0.2717641
vn 0.9686704 0.04500122 0.2442386
vn 0.9546205 0.1753566 0.2407278
vn 0.9433013 0.2302656 0.2390825
vn 0.9697801 0.02422554 0.2427746
vn 0.8471193 0.407191 0.3414446
vn 0.562254 0.7276043 0.3930172
vn 0.6576647 0.09292017 0.7475581
vn 0.8961156 0.2588571 0.3605132
vn 0.6109715 0.3279161 0.7205448
vn 0.9280015 0.03771787 0.3706626
vn 0.6286111 0.6079654 0.4850014
vn 0.1668202 0.9491099 0.2671357
vn 0.5309676 0.4649767 0.708428
vn 0.2884603 0.7134203 0.6386095
vn 0.04215517 0.9691584 0.2428061
vn 0.1489445 0.9484246 0.2798325
vn -0.6886809 0.5509895 0.4713057
vn -0.3210434 0.8152357 0.4819978
vn -0.7304739 0.5615003 0.3887483
vn -0.3019615 0.5532168 0.7763829
vn -0.185682 0.9442809 0.2717641
vn -0.3040441 0.7183897 0.6256783
vn -0.1617883 0.9519809 0.2599174
vn -0.5812247 0.5522997 0.5976143
vn -0.1617883 0.9519809 0.2599174
vn -0.4394868 0.5065569 0.7417893
vn -0.1904351 0.7297746 -0.6566304
vn 0.2372205 0.5596367 -0.7940612
vn 0.1655996 0.7158086 -0.6783766
vn -0.06724828 0.4646483 -0.882938
vn -0.07605763 0.1471837 -0.9861806
vn -0.02450149 0.679197 -0.7335471
vn -0.07745576 0.06625191 -0.994792
vn 0.07306423 0.1493465 -0.9860818
vn 0.4024466 0.4918286 -0.7721019
vn 0.0399824 0.7087467 -0.7043291
vn 0.5450561 0.07899749 -0.8346695
vn 0.5450561 0.07899749 -0.8346695
vn 0.8371776 0.303925 -0.4547122
vn 0.4825339 0.353049 -0.8015718
vn 0.8832234 0.03165547 -0.467883
vn 0.5680496 0.6002424 -0.5630531
vn 0.1135031 0.9478778 -0.2977325
vn 0.4024466 0.4918286 -0.7721019
vn -0.9319395 0.02554665 -0.361713
vn -0.8986178 0.2501707 -0.3604173
vn -0.9291413 0.05641799 -0.3653952
vn -0.874892 0.3316165 -0.3529794
vn -0.6276186 0.6003971 -0.4955989
vn -0.09900441 0.9454846 -0.310253
vn -0.6438453 0.5776845 -0.5017409
vn 0.1300588 0.06725512 -0.9892226
vn 0.1153358 0.4491601 -0.8859755
vn 0.1285008 0.1495266 -0.980372
vn 0.4250698 0.6022018 -0.6757728
vn 0.9284286 0.0207264 -0.3709323
vn 0.8677948 0.279787 -0.4106721
vn 0.9152415 0.05864206 -0.3986154
vn 0.9152415 0.05864206 -0.3986154
vn 0.7403765 0.2921831 -0.6053692
vn 0.8225129 0.3822704 -0.4211197
vn 0.9979108 0.004541297 -0.06444559
vn 0.9963316 0.05425189 -0.06618129
vn 0.9978259 0.01035439 -0.06508487
vn 0.9950384 0.07361324 -0.06692872
vn 0.9891557 0.1305009 -0.06738306
vn -0.02212882 0.07111035 -0.997223
vn -0.02169897 0.1570688 -0.9873492
vn 0.01437819 0.7511255 -0.6600028
vn -0.9320919 0.02634503 -0.3612627
vn -0.8939371 0.2725774 -0.3557782
vn -0.9296514 0.05813322 -0.3638253
vn -0.8637816 0.3640825 -0.3483177
vn -0.5791253 0.1012738 -0.8089236
vn -0.6927906 0.3093721 -0.6514063
vn -0.501879 0.0836819 -0.8608803
vn -0.4406788 0.3567577 -0.823727
vn 0.5452545 0.528246 -0.6508869
vn 0.1317668 0.9442234 -0.3017942
vn 0.3857529 0.4980781 -0.7766035
vn -0.6194667 0.6380925 -0.4572734
vn -0.1124992 0.9550087 -0.2744125
vn -0.462286 0.4869172 -0.7410826
vn -0.5316311 0.5441664 -0.6490387
vn -0.130242 0.9431267 -0.3058581
vn -0.3605632 0.4848529 -0.7968137
vn -0.0771477 -0.1362451 -0.9876667
vn -0.07745576 0.06625191 -0.994792
vn -0.07667629 -0.1360982 -0.9877236
vn -0.07605763 0.1471837 -0.9861806
vn -0.0672651 -0.4906192 -0.8687739
vn -0.02451119 -0.7006447 -0.7130891
vn 0.1655978 -0.7356049 -0.6568583
vn 0.00126661 -0.965171 -0.2616169
vn 0.1135044 -0.9562877 -0.2695005
vn -0.1234083 -0.9470876 0.2963029
vn -0.04057544 -0.9620545 0.2698239
vn -0.02817885 -0.7116395 0.7019795
vn -0.2113092 -0.5630038 0.7989838
vn 0.06035816 -0.9482614 0.3117005
vn -0.1737596 -0.7092974 0.683158
vn 0.26785 -0.5076377 0.8188775
vn 0.2949241 -0.6017718 0.7422199
vn 0.480597 -0.09975431 0.8712494
vn 0.07562125 -0.1120654 0.9908193
vn 0.3812164 0.126911 0.9157334
vn 0.07499442 0.1833881 0.9801758
vn 0.32109 0.1415459 0.9364111
vn 0.1890536 -0.1120642 0.9755514
vn -0.06293473 0.09990457 0.9930047
vn -0.06264581 -0.1131902 0.9915964
vn -0.2622228 -0.5514629 0.791914
vn 0.2949241 -0.6017718 0.7422199
vn 0.4431824 -0.3864304 0.808864
vn 0.0423554 -0.6801302 0.7318667
vn 0.2042019 -0.6717724 0.7120557
vn -0.1617893 -0.943857 0.2880248
vn -0.09900203 -0.9542672 -0.2820863
vn -0.190434 -0.7489243 -0.6347025
vn 0.2372245 -0.5829296 -0.7771214
vn 0.1317693 -0.9527549 -0.2736695
vn 0.2610206 -0.7057144 -0.6586618
vn -0.1306594 -0.5630943 -0.8159981
vn -0.0552626 -0.9571535 0.284259
vn 0.02875563 -0.977026 -0.2111712
vn 0.04474493 -0.7234014 -0.6889762
vn 0.206787 -0.5877433 -0.7821745
vn 0.01199358 -0.1396839 -0.9901236
vn 0.01207368 -0.1396512 -0.9901272
vn 0.01211624 0.06845319 -0.9975808
vn 0.01188728 0.151875 -0.9883283
vn 0.006567098 -0.9558175 0.2938875
vn -0.112497 -0.9627243 -0.2459803
vn -0.2003117 -0.7862787 -0.5845007
vn -0.01863892 -0.5370827 -0.8433236
vn 0.04215288 -0.9615344 0.2714307
vn -0.04460295 -0.9691389 -0.242447
vn -0.1204306 -0.6151842 -0.7791308
vn -0.2877759 -0.5787803 -0.7630192
vn -0.1421702 -0.1395748 -0.9799523
vn -0.1134807 -0.1404902 -0.9835571
vn -0.1139951 0.06917209 -0.9910704
vn -0.1569254 0.1105119 -0.9814079
vn -0.4538952 -0.1251741 -0.882219
vn -0.5791253 0.1012738 -0.8089236
vn -0.6506521 -0.1059924 -0.7519426
vn -0.501879 0.0836819 -0.8608803
vn -0.0229251 -0.1380966 -0.9901534
vn -0.02275103 0.1497594 -0.9884607
vn -0.5316397 -0.5631632 -0.6326187
vn -0.6928008 -0.3285386 -0.6419421
vn -0.4406844 -0.3810171 -0.8127873
vn -0.3605652 -0.5082592 -0.7820902
vn -0.03392569 -0.704408 -0.7089841
vn -0.1302437 -0.9517789 -0.2777653
vn -0.1957396 -0.5724517 -0.7962318
vn -0.03165607 -0.9674041 -0.251251
vn -0.005071973 -0.9636586 0.2670887
vn 0.1668198 -0.9407735 0.2951548
vn 0.1982338 -0.722702 0.6621216
vn -0.06078291 -0.4764123 0.8771184
vn -0.292972 -0.7259204 -0.6222595
vn 0.09155413 -0.5826603 0.8075424
vn 0.3855271 -0.5114945 0.7679468
vn 0.02744483 -0.7015623 0.7120794
vn -0.007873692 -0.1096939 0.9939342
vn 0.1615995 -0.1088589 0.9808341
vn 0.1184337 0.1380878 0.9833134
vn -0.007810732 0.1803439 0.9835725
vn 0.6576647 0.09292017 0.7475581
vn 0.7741102 -0.07135375 0.6290167
vn 0.9280015 0.03771787 0.3706626
vn 0.9273984 -0.04283043 0.3716151
vn 0.896115 -0.2480571 0.3680292
vn 0.6109703 -0.3064123 0.7299499
vn 0.5309666 -0.4437717 0.7219011
vn 0.8823991 -0.06480838 -0.4660166
vn 0.8832234 0.03165547 -0.467883
vn 0.6878938 -0.1005131 -0.718818
vn 0.5450561 0.07899749 -0.8346695
vn 0.07365908 -0.1377234 -0.987728
vn 0.07306423 0.1493465 -0.9860818
vn 0.4024542 -0.5144998 -0.7571793
vn 0.03997476 -0.7293173 -0.6830068
vn 0.8371863 -0.3172635 -0.4454918
vn 0.4825445 -0.3766523 -0.790749
vn -0.9308041 -0.05172817 -0.3618395
vn -0.9319395 0.02554665 -0.361713
vn -0.9305953 -0.05174899 -0.3623735
vn -0.9291413 0.05641799 -0.3653952
vn -0.8986226 -0.2607475 -0.3528287
vn -0.8748846 -0.341945 -0.3430023
vn 0.1295055 -0.1375457 -0.9819926
vn 0.1300588 0.06725512 -0.9892226
vn 0.1293298 -0.1377117 -0.9819925
vn 0.1285008 0.1495266 -0.980372
vn 0.115331 -0.4752305 -0.8722699
vn 0.4250722 -0.6219712 -0.6576211
vn 0.9274987 -0.04484668 -0.3711265
vn 0.9284286 0.0207264 -0.3709323
vn 0.9193391 -0.05419124 -0.3897164
vn 0.9152415 0.05864206 -0.3986154
vn 0.8677973 -0.2918351 -0.402194
vn 0.9978939 -0.009191777 -0.06421381
vn 0.9979108 0.004541297 -0.06444559
vn 0.9978649 -0.009442094 -0.06462688
vn 0.9978259 0.01035439 -0.06508487
vn 0.996336 -0.05615916 -0.06450323
vn 0.9950442 -0.0755242 -0.06467622
vn 0.9891676 -0.1323715 -0.0634448
vn -0.02203433 -0.1436321 -0.9893858
vn -0.02212882 0.07111035 -0.997223
vn -0.02189441 -0.1435683 -0.9893982
vn -0.02169897 0.1570688 -0.9873492
vn 0.01437913 -0.7703593 -0.6374478
vn -0.9315054 -0.05289179 -0.3598611
vn -0.9320919 0.02634503 -0.3612627
vn -0.9307325 -0.05301484 -0.3618376
vn -0.9296514 0.05813322 -0.3638253
vn -0.8939357 -0.2830083 -0.3475415
vn -0.8637788 -0.3742552 -0.3373711
vn 0.8225208 -0.3945796 -0.4095933
vn 0.7403781 -0.3100003 -0.5964394
vn 0.9193391 -0.05419124 -0.3897164
vn 0.4024542 -0.5144998 -0.7571793
vn 0.1135044 -0.9562877 -0.2695005
vn 0.5680566 -0.616668 -0.5450066
vn 0 -0.491075 0.8711172
vn 0 -0.1142652 0.9934503
vn 0 -0.1142652 0.9934503
vn 0 0.1006657 0.9949203
vn 0 0.1863963 0.9824746
vn -0.9084837 -0.04834298 0.4151146
vn -0.9102312 0.04175898 0.4119897
vn -0.9070961 0.07878269 0.4134852
vn -0.9095064 -0.04736822 0.4129821
vn -0.8724628 -0.2720661 0.4059416
vn -0.8448882 -0.3574861 0.3979542
vn -0.9210595 -0.04470981 0.3868465
vn -0.9225941 0.0386718 0.3838289
vn -0.9198574 0.07296474 0.3854071
vn -0.9219657 -0.04377383 0.3847896
vn -0.8888307 -0.2557946 0.3801962
vn -0.8640089 -0.3369299 0.3741214
vn -0.06623749 -0.1108911 0.9916227
vn -0.06693951 0.09825064 0.9929078
vn -0.06568808 0.1818543 0.9811291
vn -0.0666442 -0.1107044 0.9916164
vn -0.05723254 -0.4894233 0.8701662
vn -0.3040459 -0.6995248 0.6467002
vn -0.9580066 -0.03205309 0.2849495
vn -0.9588584 0.02775427 0.2825249
vn -0.9573525 0.05257874 0.2840979
vn -0.9585253 -0.03115081 0.2833001
vn -0.9389609 -0.1933655 0.2845386
vn -0.9239975 -0.2567582 0.2833793
vn 0.01716752 -0.107613 0.9940447
vn 0.01734709 0.09627763 0.9952034
vn 0.01703034 0.1775844 0.9839582
vn 0.01727391 -0.1076502 0.9940387
vn 0.01515398 -0.4539346 0.8909061
vn -0.01193346 -0.6569661 0.7538257
vn -0.2603163 -0.6670802 0.6980253
vn 0.006567098 -0.9558175 0.2938875
vn -0.185682 -0.9358094 0.2996379
vn 0.9691556 -0.02740559 0.2449212
vn 0.9697801 0.02422554 0.2427746
vn 0.9686704 0.04500122 0.2442386
vn 0.9695221 -0.02733122 0.2434743
vn 0.9546222 -0.1681338 0.2458199
vn 0.9433048 -0.2230626 0.245803
vn 0.5622603 -0.7156251 0.4144203
vn 0.8471218 -0.396883 0.3533675
vn -0.06975293 -0.1121939 0.991235
vn -0.07049772 0.09907123 0.99258
vn -0.0691656 0.1835706 0.9805701
vn -0.0701804 -0.1119517 0.9912323
vn -0.03100228 -0.7056658 0.7078663
vn 0.5309666 -0.4437717 0.7219011
vn 0.1668198 -0.9407735 0.2951548
vn 0.6286103 -0.5933208 0.5028115
vn 0.1489468 -0.939711 0.3078279
vn 0.04215288 -0.9615344 0.2714307
vn 0.288461 -0.6941706 0.6594826
vn -0.3040459 -0.6995248 0.6467002
vn -0.185682 -0.9358094 0.2996379
vn -0.301962 -0.5299577 0.7924417
vn -0.1617893 -0.943857 0.2880248
vn -0.7304747 -0.5497289 0.4052222
vn -0.3210436 -0.8005885 0.5059536
vn -0.6886803 -0.5367754 0.4874338
vn -0.4394892 -0.4843411 0.7564806
vn -0.1617893 -0.943857 0.2880248
vn -0.5812257 -0.5343397 0.6137246
vn -0.6316337 -0.6075143 0.4816276
vn -0.1234083 -0.9470876 0.2963029
vn -0.5963966 -0.5906799 0.5435148
vn -0.6438367 -0.5923112 -0.4843985
vn -0.09900203 -0.9542672 -0.2820863
vn -0.6276231 -0.6148285 -0.4775722
vn 0.3857611 -0.5208787 -0.7614944
vn 0.1317693 -0.9527549 -0.2736695
vn 0.5452552 -0.5473099 -0.6349398
vn -0.4622819 -0.5086743 -0.7263235
vn -0.112497 -0.9627243 -0.2459803
vn -0.6194642 -0.6513701 -0.4381565
vn -0.3605652 -0.5082592 -0.7820902
vn -0.1302437 -0.9517789 -0.2777653
vn -0.5316397 -0.5631632 -0.6326187
vn -0.9999994 -0.0001551191 -0.001097316
vn -0.9999994 7.624754E-05 -0.001100746
vn -0.9999994 -1.248037E-05 -0.001106414
vn -0.9999994 -2.166689E-05 -0.001108606
vn -0.9999992 0.0006073951 -0.001127243
vn -0.9999993 -0.0001928901 -0.001158777
vn -0.9999993 -0.0001343139 -0.001176689
vn -0.999997 -0.002139513 -0.001198089
vn -0.9999992 -0.0006405433 -0.001108741
vn -0.9999993 0.0001584558 -0.001163986
vn -0.9999993 9.937569E-05 -0.001180154
vn -0.999997 0.002103057 -0.001260989
vn 0.999998 0.0002334171 -0.001990803
vn 0.9999981 -0.0002047081 -0.001984307
vn 0.999998 -2.527968E-05 -0.001999588
vn 0.999998 -3.55279E-05 -0.002003643
vn 0.9999973 -0.00122727 -0.0020028
vn 0.9999979 0.0001720769 -0.002101983
vn 0.9999977 1.90728E-05 -0.002130518
vn 0.9999908 0.003642824 -0.002276639
vn 0.9999973 0.00116736 -0.002038303
vn 0.9999979 -0.0002343187 -0.002095958
vn 0.9999977 -8.222934E-05 -0.002129017
vn 0.9999908 -0.003708734 -0.002167647
g Deck_Full_mesh_1_0
f 3/3/3 2/2/2 1/1/1
f 4/4/4 2/2/2 3/3/3
f 4/4/4 3/3/3 5/5/5
f 5/5/5 3/3/3 6/6/6
f 3/3/3 1/1/1 7/7/7
f 3/3/3 7/7/7 8/8/8
f 8/8/8 7/7/7 9/9/9
f 9/9/9 7/7/7 10/10/10
f 9/9/9 10/10/10 11/11/11
f 12/12/12 9/9/9 11/11/11
f 13/13/13 9/9/9 12/12/12
f 7/7/7 1/1/1 14/14/14
f 7/7/7 14/14/14 15/15/15
f 7/7/7 15/15/15 16/16/16
f 16/16/16 15/15/15 17/17/17
f 15/15/15 14/14/14 18/18/18
f 18/18/18 14/14/14 19/19/19
f 19/19/19 14/14/14 20/20/20
f 15/15/15 18/18/18 21/21/21
f 21/21/21 18/18/18 22/22/22
f 22/22/22 18/18/18 23/23/23
f 23/23/23 18/18/18 24/24/24
f 23/23/23 24/24/24 25/25/25
f 25/25/25 24/24/24 26/26/26
f 21/21/21 22/22/22 27/27/27
f 27/27/27 22/22/22 28/28/28
f 28/28/28 22/22/22 29/29/29
f 29/29/29 22/22/22 30/30/30
f 27/27/27 28/28/28 31/31/31
f 31/31/31 28/28/28 32/32/32
f 32/32/32 28/28/28 33/33/33
f 33/33/33 28/28/28 34/34/34
f 33/33/33 34/34/34 35/35/35
f 35/35/35 34/34/34 36/36/36
f 37/37/37 33/33/33 35/35/35
f 38/38/38 33/33/33 37/37/37
f 39/39/39 32/32/32 33/33/33
f 40/40/40 32/32/32 39/39/39
f 41/41/41 32/32/32 40/40/40
f 31/31/31 32/32/32 41/41/41
f 31/31/31 41/41/41 42/42/42
f 42/42/42 41/41/41 43/43/43
f 44/44/44 31/31/31 42/42/42
f 44/44/44 42/42/42 45/45/45
f 45/45/45 42/42/42 46/46/46
f 42/42/42 47/47/47 46/46/46
f 46/46/46 47/47/47 48/48/48
f 41/41/41 40/40/40 49/49/49
f 41/41/41 49/49/49 50/50/50
f 50/50/50 49/49/49 51/51/51
f 49/49/49 40/40/40 52/52/52
f 52/52/52 40/40/40 53/53/53
f 53/53/53 40/40/40 54/54/54
f 56/56/56 51/51/51 55/55/55
f 55/55/55 51/51/51 57/57/57
f 53/53/53 59/59/59 58/58/58
f 58/58/58 59/59/59 60/60/60
f 5/5/5 62/62/62 61/61/61
f 61/61/61 62/62/62 63/63/63
f 66/66/66 65/65/65 64/64/64
f 64/64/64 65/65/65 67/67/67
f 70/70/70 69/69/69 68/68/68
f 73/73/73 72/72/72 71/71/71
f 75/75/75 17/17/17 74/74/74
f 74/74/74 17/17/17 76/76/76
f 79/79/79 78/78/78 77/77/77
f 77/77/77 78/78/78 80/80/80
f 83/83/83 82/82/82 81/81/81
f 81/81/81 82/82/82 84/84/84
f 87/87/87 86/86/86 85/85/85
f 85/85/85 86/86/86 88/88/88
f 91/91/91 90/90/90 89/89/89
f 89/89/89 90/90/90 92/92/92
f 94/94/94 93/93/93 90/90/90
f 95/95/95 93/93/93 94/94/94
f 98/98/98 97/97/97 96/96/96
f 96/96/96 97/97/97 99/99/99
f 98/98/98 101/101/101 100/100/100
f 104/104/104 103/103/103 102/102/102
f 102/102/102 103/103/103 105/105/105
f 108/108/108 107/107/107 106/106/106
f 111/111/111 110/110/110 109/109/109
f 114/114/114 113/113/113 112/112/112
f 117/117/117 116/116/116 115/115/115
f 118/118/118 116/116/116 117/117/117
f 121/121/121 120/120/120 119/119/119
f 14/14/14 1/1/1 122/122/122
f 122/122/122 1/1/1 123/123/123
f 1/1/1 2/2/2 124/124/124
f 124/124/124 2/2/2 125/125/125
f 127/127/127 125/125/125 126/126/126
f 126/126/126 125/125/125 128/128/128
f 131/131/131 130/130/130 129/129/129
f 129/129/129 130/130/130 132/132/132
f 135/135/135 134/134/134 133/133/133
f 133/133/133 134/134/134 136/136/136
f 139/139/139 138/138/138 137/137/137
f 142/142/142 141/141/141 140/140/140
f 143/143/143 141/141/141 142/142/142
f 146/146/146 145/145/145 144/144/144
f 149/149/149 148/148/148 147/147/147
f 150/150/150 148/148/148 149/149/149
f 153/153/153 152/152/152 151/151/151
f 156/156/156 155/155/155 154/154/154
f 159/159/159 158/158/158 157/157/157
f 160/160/160 158/158/158 159/159/159
f 160/160/160 161/161/161 158/158/158
f 163/163/163 30/30/30 162/162/162
f 164/164/164 30/30/30 163/163/163
f 167/167/167 166/166/166 165/165/165
f 168/168/168 166/166/166 167/167/167
f 171/171/171 170/170/170 169/169/169
f 172/172/172 170/170/170 171/171/171
f 175/175/175 174/174/174 173/173/173
f 178/178/178 177/177/177 176/176/176
f 181/181/181 180/180/180 179/179/179
f 184/184/184 183/183/183 182/182/182
f 185/185/185 183/183/183 184/184/184
f 182/182/182 186/186/186 184/184/184
f 184/184/184 186/186/186 187/187/187
f 186/186/186 189/189/189 188/188/188
f 188/188/188 189/189/189 190/190/190
f 190/190/190 189/189/189 191/191/191
f 191/191/191 189/189/189 192/192/192
f 193/193/193 191/191/191 192/192/192
f 194/194/194 191/191/191 193/193/193
f 195/195/195 190/190/190 191/191/191
f 196/196/196 195/195/195 191/191/191
f 197/197/197 195/195/195 196/196/196
f 198/198/198 195/195/195 197/197/197
f 199/199/199 198/198/198 197/197/197
f 199/199/199 197/197/197 200/200/200
f 200/200/200 201/201/201 199/199/199
f 202/202/202 201/201/201 200/200/200
f 201/201/201 203/203/203 199/199/199
f 199/199/199 203/203/203 204/204/204
f 203/203/203 205/205/205 204/204/204
f 204/204/204 205/205/205 206/206/206
f 206/206/206 207/207/207 204/204/204
f 204/204/204 207/207/207 208/208/208
f 204/204/204 209/209/209 199/199/199
f 200/200/200 197/197/197 210/210/210
f 207/207/207 212/212/212 211/211/211
f 211/211/211 212/212/212 195/195/195
f 212/212/212 213/213/213 195/195/195
f 213/213/213 190/190/190 195/195/195
f 214/214/214 190/190/190 213/213/213
f 215/215/215 190/190/190 214/214/214
f 216/216/216 213/213/213 212/212/212
f 217/217/217 213/213/213 216/216/216
f 218/218/218 213/213/213 217/217/217
f 219/219/219 216/216/216 212/212/212
f 220/220/220 216/216/216 219/219/219
f 221/221/221 216/216/216 220/220/220
f 222/222/222 216/216/216 221/221/221
f 223/223/223 222/222/222 221/221/221
f 224/224/224 222/222/222 223/223/223
f 223/223/223 225/225/225 224/224/224
f 226/226/226 225/225/225 223/223/223
f 227/227/227 220/220/220 219/219/219
f 228/228/228 220/220/220 227/227/227
f 229/229/229 220/220/220 228/228/228
f 230/230/230 220/220/220 229/229/229
f 231/231/231 228/228/228 227/227/227
f 232/232/232 228/228/228 231/231/231
f 233/233/233 228/228/228 232/232/232
f 234/234/234 228/228/228 233/233/233
f 235/235/235 234/234/234 233/233/233
f 236/236/236 234/234/234 235/235/235
f 235/235/235 237/237/237 236/236/236
f 238/238/238 237/237/237 235/235/235
f 239/239/239 238/238/238 235/235/235
f 235/235/235 233/233/233 239/239/239
f 240/240/240 238/238/238 239/239/239
f 241/241/241 240/240/240 239/239/239
f 242/242/242 240/240/240 241/241/241
f 243/243/243 242/242/242 241/241/241
f 244/244/244 242/242/242 243/243/243
f 239/239/239 233/233/233 245/245/245
f 239/239/239 246/246/246 241/241/241
f 241/241/241 246/246/246 247/247/247
f 241/241/241 248/248/248 243/243/243
f 243/243/243 248/248/248 249/249/249
f 251/251/251 250/250/250 249/249/249
f 249/249/249 250/250/250 252/252/252
f 252/252/252 250/250/250 253/253/253
f 253/253/253 250/250/250 254/254/254
f 255/255/255 253/253/253 254/254/254
f 256/256/256 253/253/253 255/255/255
f 250/250/250 232/232/232 254/254/254
f 257/257/257 232/232/232 250/250/250
f 233/233/233 232/232/232 257/257/257
f 254/254/254 232/232/232 231/231/231
f 258/258/258 254/254/254 231/231/231
f 259/259/259 254/254/254 258/258/258
f 258/258/258 231/231/231 260/260/260
f 261/261/261 258/258/258 260/260/260
f 262/262/262 258/258/258 261/261/261
f 261/261/261 263/263/263 262/262/262
f 264/264/264 263/263/263 261/261/261
f 263/263/263 265/265/265 262/262/262
f 262/262/262 265/265/265 266/266/266
f 265/265/265 267/267/267 266/266/266
f 266/266/266 267/267/267 268/268/268
f 268/268/268 269/269/269 266/266/266
f 266/266/266 269/269/269 270/270/270
f 266/266/266 271/271/271 262/262/262
f 262/262/262 271/271/271 258/258/258
f 274/274/274 273/273/273 272/272/272
f 275/275/275 273/273/273 274/274/274
f 276/276/276 275/275/275 274/274/274
f 277/277/277 275/275/275 276/276/276
f 274/274/274 278/278/278 276/276/276
f 276/276/276 278/278/278 279/279/279
f 272/272/272 280/280/280 274/274/274
f 274/274/274 280/280/280 281/281/281
f 284/284/284 283/283/283 282/282/282
f 285/285/285 283/283/283 284/284/284
f 282/282/282 286/286/286 284/284/284
f 284/284/284 286/286/286 287/287/287
f 290/290/290 289/289/289 288/288/288
f 291/291/291 289/289/289 290/290/290
f 288/288/288 292/292/292 290/290/290
f 290/290/290 292/292/292 293/293/293
f 296/296/296 295/295/295 294/294/294
f 297/297/297 295/295/295 296/296/296
f 294/294/294 298/298/298 296/296/296
f 301/301/301 300/300/300 299/299/299
f 302/302/302 300/300/300 301/301/301
f 299/299/299 303/303/303 301/301/301
f 301/301/301 303/303/303 304/304/304
f 303/303/303 305/305/305 304/304/304
f 308/308/308 307/307/307 306/306/306
f 309/309/309 307/307/307 308/308/308
f 306/306/306 230/230/230 308/308/308
f 308/308/308 230/230/230 310/310/310
f 313/313/313 312/312/312 311/311/311
f 314/314/314 312/312/312 313/313/313
f 311/311/311 315/315/315 313/313/313
f 313/313/313 315/315/315 316/316/316
f 319/319/319 318/318/318 317/317/317
f 322/322/322 321/321/321 320/320/320
f 324/324/324 323/323/323 193/193/193
f 325/325/325 323/323/323 324/324/324
f 324/324/324 326/326/326 325/325/325
f 327/327/327 326/326/326 324/324/324
f 330/330/330 329/329/329 328/328/328
f 328/328/328 329/329/329 331/331/331
f 331/331/331 332/332/332 328/328/328
f 328/328/328 332/332/332 333/333/333
f 336/336/336 335/335/335 334/334/334
f 334/334/334 335/335/335 337/337/337
f 337/337/337 338/338/338 334/334/334
f 334/334/334 338/338/338 339/339/339
f 342/342/342 341/341/341 340/340/340
f 340/340/340 341/341/341 343/343/343
f 343/343/343 344/344/344 340/340/340
f 340/340/340 344/344/344 345/345/345
f 348/348/348 347/347/347 346/346/346
f 346/346/346 347/347/347 349/349/349
f 349/349/349 350/350/350 346/346/346
f 346/346/346 350/350/350 351/351/351
f 354/354/354 353/353/353 352/352/352
f 352/352/352 353/353/353 355/355/355
f 355/355/355 356/356/356 352/352/352
f 352/352/352 356/356/356 357/357/357
f 356/356/356 359/359/359 358/358/358
f 358/358/358 359/359/359 360/360/360
f 363/363/363 362/362/362 361/361/361
f 361/361/361 362/362/362 364/364/364
f 364/364/364 365/365/365 361/361/361
f 361/361/361 365/365/365 366/366/366
f 368/368/368 367/367/367 366/366/366
f 371/371/371 370/370/370 369/369/369
f 369/369/369 370/370/370 372/372/372
f 372/372/372 256/256/256 369/369/369
f 369/369/369 256/256/256 373/373/373
f 376/376/376 375/375/375 374/374/374
f 379/379/379 378/378/378 377/377/377
f 382/382/382 381/381/381 380/380/380
f 380/380/380 381/381/381 383/383/383
f 386/386/386 385/385/385 384/384/384
f 389/389/389 388/388/388 387/387/387
f 392/392/392 391/391/391 390/390/390
f 395/395/395 394/394/394 393/393/393
f 398/398/398 397/397/397 396/396/396
f 401/401/401 400/400/400 399/399/399
f 404/404/404 403/403/403 402/402/402
f 407/407/407 406/406/406 405/405/405
f 408/408/408 406/406/406 407/407/407
f 408/408/408 409/409/409 406/406/406
f 410/410/410 409/409/409 408/408/408
f 410/410/410 411/411/411 409/409/409
f 412/412/412 411/411/411 410/410/410
f 405/405/405 413/413/413 407/407/407
f 407/407/407 413/413/413 414/414/414
f 413/413/413 415/415/415 414/414/414
f 414/414/414 415/415/415 416/416/416
f 419/419/419 418/418/418 417/417/417
f 420/420/420 418/418/418 419/419/419
f 420/420/420 421/421/421 418/418/418
f 422/422/422 421/421/421 420/420/420
f 422/422/422 423/423/423 421/421/421
f 424/424/424 423/423/423 422/422/422
f 417/417/417 425/425/425 419/419/419
f 419/419/419 425/425/425 426/426/426
f 425/425/425 427/427/427 426/426/426
f 426/426/426 427/427/427 428/428/428
