g Deck_Full_mesh
v 1554.914 156.9662 -540.3832
v 1558.677 156.9708 -540.0773
v 1554.668 159.3625 -378.7539
v 1559.037 159.3728 -378.0603
v 1559.037 155.174 -370.4331
v 1555.02 155.174 -370.4331
v 1550.615 159.3633 -378.6991
v 1554.317 155.1516 -371.946
v 1551.312 155.1549 -371.7206
v 1549.918 155.1724 -370.5389
v 1551.312 146.457 -369.3134
v 1554.317 146.4536 -369.5445
v 1554.317 155.1516 -371.946
v 1550.422 156.9655 -540.4299
v 1541.01 159.3536 -379.355
v 1549.918 155.1724 -370.5389
v 1541.342 155.1646 -371.0682
v 1541.155 156.9517 -541.3658
v 1541.841 152.5455 -547.7245
v 1549.8 152.561 -546.6829
v 1536.25 159.3226 -381.4432
v 1536.996 156.9386 -542.2462
v 1537.09 152.5204 -549.4214
v 1541.007 152.521 -549.375
v 1537.09 143.7555 -551.5282
v 1541.007 143.7562 -551.4806
v 1532.463 159.3169 -381.8333
v 1532.452 156.9275 -542.993
v 1532.546 152.4784 -552.2495
v 1536.897 152.477 -552.3438
v 1528.858 159.3268 -381.166
v 1527.713 156.9296 -542.8564
v 1527.713 152.5092 -550.1756
v 1531.91 152.5022 -550.6469
v 1527.713 143.744 -552.3015
v 1531.91 143.7369 -552.7849
v 1523.733 143.7562 -551.4806
v 1523.733 152.521 -549.375
v 1523.733 152.521 -549.375
v 1523.402 156.9485 -541.5763
v 1523.973 159.3498 -379.6132
v 1528.858 155.1238 -373.8205
v 1524.19 155.1411 -372.6561
v 1532.269 155.1242 -373.7939
v 1532.269 146.4255 -371.4394
v 1528.858 146.4251 -371.4666
v 1524.19 155.1411 -372.6561
v 1524.19 146.4428 -370.2726
v 1518.716 159.3522 -379.4474
v 1523.755 155.1568 -371.5975
v 1518.716 155.1516 -371.946
v 1518.915 156.9565 -541.0414
v 1518.915 152.5385 -548.1959
v 1523.072 152.5371 -548.2902
v 1523.755 146.4589 -369.1872
v 1523.755 155.1568 -371.5975
v 1518.716 146.4536 -369.5445
v 1518.915 143.7741 -550.2715
v 1523.072 152.5371 -548.2902
v 1523.072 143.7727 -550.3682
v 1559.037 146.4766 -367.9932
v 1555.02 155.174 -370.4331
v 1555.02 146.4766 -367.9932
v 1555.02 146.4766 -367.9932
v 1554.317 155.1516 -371.946
v 1555.02 155.174 -370.4331
v 1554.317 146.4536 -369.5445
v 1554.317 155.1516 -371.946
v 1554.668 159.3625 -378.7539
v 1555.02 155.174 -370.4331
v 1549.918 146.4749 -368.1017
v 1549.918 155.1724 -370.5389
v 1551.312 146.457 -369.3134
v 1549.918 146.4749 -368.1017
v 1549.918 155.1724 -370.5389
v 1541.342 146.4669 -368.6444
v 1541.342 146.4669 -368.6444
v 1540.678 155.1416 -372.6223
v 1541.342 155.1646 -371.0682
v 1540.678 146.4433 -370.2379
v 1540.678 146.4433 -370.2379
v 1536.623 155.1376 -372.8885
v 1540.678 155.1416 -372.6223
v 1536.623 146.4392 -370.5109
v 1536.623 146.4392 -370.5109
v 1535.876 155.101 -375.3571
v 1536.623 155.1376 -372.8885
v 1535.876 146.4017 -373.0423
v 1535.876 146.4017 -373.0423
v 1532.657 155.1018 -375.3025
v 1535.876 155.101 -375.3571
v 1532.657 146.4025 -372.9862
v 1532.463 159.3169 -381.8333
v 1535.876 155.101 -375.3571
v 1536.25 159.3226 -381.4432
v 1532.657 146.4025 -372.9862
v 1532.269 155.1242 -373.7939
v 1532.657 155.1018 -375.3025
v 1532.269 146.4255 -371.4394
v 1532.269 155.1242 -373.7939
v 1532.463 159.3169 -381.8333
v 1524.19 146.4428 -370.2726
v 1523.755 155.1568 -371.5975
v 1524.19 155.1411 -372.6561
v 1523.755 146.4589 -369.1872
v 1523.755 155.1568 -371.5975
v 1523.973 159.3498 -379.6132
v 1524.19 155.1411 -372.6561
v 1532.269 155.1242 -373.7939
v 1528.858 159.3268 -381.166
v 1532.463 159.3169 -381.8333
v 1535.876 155.101 -375.3571
v 1536.25 159.3226 -381.4432
v 1536.623 155.1376 -372.8885
v 1536.623 155.1376 -372.8885
v 1536.25 159.3226 -381.4432
v 1540.678 155.1416 -372.6223
v 1541.01 159.3536 -379.355
v 1540.678 155.1416 -372.6223
v 1541.01 159.3536 -379.355
v 1541.342 155.1646 -371.0682
v 1550.473 152.5359 -548.3751
v 1555.028 152.5408 -548.0424
v 1555.641 152.5575 -546.9136
v 1558.677 152.5541 -547.1444
v 1555.641 143.7936 -548.9567
v 1555.641 152.5575 -546.9136
v 1558.677 143.7901 -549.1934
v 1550.473 143.7714 -550.4553
v 1555.028 152.5408 -548.0424
v 1550.473 152.5359 -548.3751
v 1555.028 143.7765 -550.1142
v 1555.028 143.7765 -550.1142
v 1555.641 152.5575 -546.9136
v 1555.028 152.5408 -548.0424
v 1555.641 143.7936 -548.9567
v 1555.641 152.5575 -546.9136
v 1554.914 156.9662 -540.3832
v 1555.028 152.5408 -548.0424
v 1550.473 143.7714 -550.4553
v 1550.473 152.5359 -548.3751
v 1549.806 143.9941 -548.7222
v 1549.8 152.561 -546.6829
v 1550.473 152.5359 -548.3751
v 1550.422 156.9655 -540.4299
v 1549.8 152.561 -546.6829
v 1549.806 143.9941 -548.7222
v 1549.8 152.561 -546.6829
v 1541.677 143.9783 -549.7921
v 1541.841 152.5455 -547.7245
v 1541.677 143.9783 -549.7921
v 1541.841 152.5455 -547.7245
v 1541.007 143.7562 -551.4806
v 1541.007 143.7562 -551.4806
v 1541.841 152.5455 -547.7245
v 1541.007 152.521 -549.375
v 1537.09 143.7555 -551.5282
v 1537.09 152.5204 -549.4214
v 1536.897 143.7111 -554.5248
v 1536.897 152.477 -552.3438
v 1536.996 156.9386 -542.2462
v 1536.897 143.7111 -554.5248
v 1532.546 143.7125 -554.4282
v 1532.546 152.4784 -552.2495
v 1532.546 143.7125 -554.4282
v 1532.546 152.4784 -552.2495
v 1531.91 143.7369 -552.7849
v 1531.91 152.5022 -550.6469
v 1523.733 143.7562 -551.4806
v 1523.733 152.521 -549.375
v 1523.072 143.7727 -550.3682
v 1523.072 152.5371 -548.2902
v 1541.841 152.5455 -547.7245
v 1541.155 156.9517 -541.3658
v 1541.007 152.521 -549.375
v 1532.546 152.4784 -552.2495
v 1532.452 156.9275 -542.993
v 1531.91 152.5022 -550.6469
v 1523.733 152.521 -549.375
v 1523.402 156.9485 -541.5763
v 1523.072 152.5371 -548.2902
v 1558.677 -96.82092 -545.6261
v 1558.677 143.7901 -549.1934
v 1555.641 -96.81741 -545.3895
v 1555.641 143.7936 -548.9567
v 1558.677 -105.5203 -543.3182
v 1555.641 -105.5169 -543.0875
v 1555.641 -105.5169 -543.0875
v 1558.677 -109.7255 -536.1234
v 1554.914 -109.7301 -536.4293
v 1554.668 -107.3338 -374.7999
v 1559.037 -107.3235 -374.1063
v 1559.037 -102.9004 -366.6069
v 1555.02 -102.9004 -366.6069
v 1550.615 -107.333 -374.7451
v 1554.317 -102.9229 -368.1198
v 1551.312 -102.9195 -367.8944
v 1549.918 -102.902 -366.7128
v 1551.312 -94.15405 -365.7461
v 1554.317 -94.15747 -365.9772
v 1551.312 146.457 -369.3134
v 1554.317 146.4536 -369.5445
v 1549.918 146.4749 -368.1017
v 1549.918 -94.13608 -364.5344
v 1541.342 146.4669 -368.6444
v 1541.342 -94.14413 -365.0771
v 1541.342 -102.9099 -367.2421
v 1549.918 -102.902 -366.7128
v 1549.918 -102.902 -366.7128
v 1554.317 -102.9229 -368.1198
v 1549.918 -102.902 -366.7128
v 1541.01 -107.3427 -375.4011
v 1550.422 -109.7308 -536.476
v 1550.473 -105.5386 -544.5489
v 1555.028 -105.5337 -544.2162
v 1541.155 -109.7446 -537.4119
v 1541.841 -105.5289 -543.8984
v 1549.8 -105.5135 -542.8567
v 1536.25 -107.3736 -377.4892
v 1536.996 -109.7577 -538.2922
v 1537.09 -105.5541 -545.5952
v 1541.007 -105.5534 -545.5488
v 1537.09 -96.85554 -547.9609
v 1541.007 -96.85484 -547.9133
v 1541.007 143.7562 -551.4806
v 1537.09 143.7555 -551.5282
v 1532.463 -107.3794 -377.8792
v 1532.452 -109.7688 -539.0389
v 1532.546 -105.596 -548.4233
v 1536.897 -105.5974 -548.5176
v 1528.858 -107.3695 -377.212
v 1527.713 -109.7667 -538.9025
v 1527.713 -105.5653 -546.3494
v 1531.91 -105.5723 -546.8207
v 1527.713 -96.867 -548.7343
v 1531.91 -96.87417 -549.2176
v 1531.91 143.7369 -552.7849
v 1527.713 143.744 -552.3015
v 1523.733 -96.85484 -547.9133
v 1523.733 143.7562 -551.4806
v 1523.072 -96.83834 -546.801
v 1523.072 143.7727 -550.3682
v 1518.915 -96.83691 -546.7043
v 1518.915 143.7741 -550.2715
v 1523.733 -105.5534 -545.5488
v 1523.733 -105.5534 -545.5488
v 1523.072 -105.5373 -544.464
v 1523.072 -105.5373 -544.464
v 1518.915 -105.5359 -544.3697
v 1523.402 -109.7478 -537.6223
v 1523.072 -105.5373 -544.464
v 1518.915 -109.7398 -537.0874
v 1518.716 -107.3441 -375.4934
v 1523.973 -107.3465 -375.6592
v 1523.755 -102.9177 -367.7713
v 1518.716 -102.9229 -368.1198
v 1523.733 -105.5534 -545.5488
v 1528.858 -102.9507 -369.9943
v 1524.19 -102.9334 -368.8299
v 1532.269 -102.9503 -369.9677
v 1532.269 -94.18556 -367.8721
v 1528.858 -94.18597 -367.8994
v 1528.858 146.4251 -371.4666
v 1532.269 146.4255 -371.4394
v 1524.19 146.4428 -370.2726
v 1524.19 -94.16827 -366.7053
v 1523.755 146.4589 -369.1872
v 1523.755 -94.15217 -365.6199
v 1523.755 -102.9177 -367.7713
v 1524.19 -102.9334 -368.8299
v 1524.19 -102.9334 -368.8299
v 1555.641 -96.81741 -545.3895
v 1555.641 143.7936 -548.9567
v 1555.028 -96.83457 -546.5469
v 1555.028 143.7765 -550.1142
v 1550.473 -96.83963 -546.888
v 1550.473 143.7714 -550.4553
v 1555.028 -105.5337 -544.2162
v 1550.473 -105.5386 -544.5489
v 1555.641 -105.5169 -543.0875
v 1555.028 -105.5337 -544.2162
v 1550.473 -96.83963 -546.888
v 1550.473 143.7714 -550.4553
v 1549.807 -97.0109 -545.149
v 1549.806 143.9941 -548.7222
v 1550.473 -105.5386 -544.5489
v 1549.8 -105.5135 -542.8567
v 1549.807 -97.0109 -545.149
v 1549.806 143.9941 -548.7222
v 1541.677 -97.02676 -546.2189
v 1541.677 143.9783 -549.7921
v 1549.8 -105.5135 -542.8567
v 1541.841 -105.5289 -543.8984
v 1541.677 -97.02676 -546.2189
v 1541.677 143.9783 -549.7921
v 1541.007 -96.85484 -547.9133
v 1541.007 143.7562 -551.4806
v 1541.841 -105.5289 -543.8984
v 1537.09 -96.85554 -547.9609
v 1537.09 143.7555 -551.5282
v 1536.897 -96.89996 -550.9576
v 1536.897 143.7111 -554.5248
v 1537.09 -105.5541 -545.5952
v 1536.897 -105.5974 -548.5176
v 1536.996 -109.7577 -538.2922
v 1536.897 -96.89996 -550.9576
v 1536.897 143.7111 -554.5248
v 1532.546 -96.89854 -550.8609
v 1532.546 143.7125 -554.4282
v 1532.546 -105.596 -548.4233
v 1532.546 -96.89854 -550.8609
v 1532.546 143.7125 -554.4282
v 1531.91 -96.87417 -549.2176
v 1531.91 143.7369 -552.7849
v 1532.546 -105.596 -548.4233
v 1531.91 -105.5723 -546.8207
v 1541.007 -105.5534 -545.5488
v 1541.841 -105.5289 -543.8984
v 1541.007 -96.85484 -547.9133
v 1555.028 -105.5337 -544.2162
v 1554.914 -109.7301 -536.4293
v 1555.641 -105.5169 -543.0875
v 1555.02 -102.9004 -366.6069
v 1559.037 -94.13447 -364.4259
v 1555.02 -94.13447 -364.4259
v 1555.02 146.4766 -367.9932
v 1559.037 146.4766 -367.9932
v 1555.02 -94.13447 -364.4259
v 1554.317 146.4536 -369.5445
v 1555.02 146.4766 -367.9932
v 1554.317 -94.15747 -365.9772
v 1554.317 -102.9229 -368.1198
v 1555.02 -102.9004 -366.6069
v 1541.342 -94.14413 -365.0771
v 1540.678 146.4433 -370.2379
v 1541.342 146.4669 -368.6444
v 1540.678 -94.16775 -366.6707
v 1540.678 -102.9329 -368.7961
v 1541.342 -102.9099 -367.2421
v 1540.678 -94.16775 -366.6707
v 1536.623 146.4392 -370.5109
v 1540.678 146.4433 -370.2379
v 1536.623 -94.1718 -366.9436
v 1536.623 -102.9368 -369.0623
v 1540.678 -102.9329 -368.7961
v 1536.623 -94.1718 -366.9436
v 1535.876 146.4017 -373.0423
v 1536.623 146.4392 -370.5109
v 1535.876 -94.20933 -369.475
v 1535.876 -102.9734 -371.531
v 1536.623 -102.9368 -369.0623
v 1535.876 -94.20933 -369.475
v 1532.657 146.4025 -372.9862
v 1535.876 146.4017 -373.0423
v 1532.657 -94.2085 -369.419
v 1532.657 -102.9726 -371.4763
v 1535.876 -102.9734 -371.531
v 1535.876 -102.9734 -371.531
v 1532.463 -107.3794 -377.8792
v 1536.25 -107.3736 -377.4892
v 1532.657 -94.2085 -369.419
v 1532.269 146.4255 -371.4394
v 1532.657 146.4025 -372.9862
v 1532.269 -94.18556 -367.8721
v 1532.269 -102.9503 -369.9677
v 1532.657 -102.9726 -371.4763
v 1532.463 -107.3794 -377.8792
v 1532.269 -102.9503 -369.9677
v 1523.755 -94.15217 -365.6199
v 1518.716 146.4536 -369.5445
v 1523.755 146.4589 -369.1872
v 1518.716 -94.15747 -365.9772
v 1523.755 -102.9177 -367.7713
v 1524.19 -102.9334 -368.8299
v 1523.973 -107.3465 -375.6592
v 1523.755 -102.9177 -367.7713
v 1532.463 -107.3794 -377.8792
v 1528.858 -107.3695 -377.212
v 1532.269 -102.9503 -369.9677
v 1540.678 -102.9329 -368.7961
v 1536.25 -107.3736 -377.4892
v 1536.623 -102.9368 -369.0623
v 1541.01 -107.3427 -375.4011
v 1536.623 -102.9368 -369.0623
v 1536.25 -107.3736 -377.4892
v 1535.876 -102.9734 -371.531
v 1541.342 -102.9099 -367.2421
v 1541.01 -107.3427 -375.4011
v 1540.678 -102.9329 -368.7961
v 1555.02 -102.9004 -366.6069
v 1554.668 -107.3338 -374.7999
v 1554.317 -102.9229 -368.1198
v 1549.8 -105.5135 -542.8567
v 1550.422 -109.7308 -536.476
v 1550.473 -105.5386 -544.5489
v 1541.007 -105.5534 -545.5488
v 1541.155 -109.7446 -537.4119
v 1541.841 -105.5289 -543.8984
v 1531.91 -105.5723 -546.8207
v 1532.452 -109.7688 -539.0389
v 1532.546 -105.596 -548.4233
v 1523.072 -105.5373 -544.464
v 1523.402 -109.7478 -537.6223
v 1523.733 -105.5534 -545.5488
v 1518.915 -96.83691 -546.7043
v 1518.915 143.7741 -550.2715
v 1518.716 -94.15747 -365.9772
v 1518.716 146.4536 -369.5445
v 1518.915 152.5385 -548.1959
v 1518.716 155.1516 -371.946
v 1518.915 156.9565 -541.0414
v 1518.716 159.3522 -379.4474
v 1518.915 -105.5359 -544.3697
v 1518.716 -102.9229 -368.1198
v 1518.915 -109.7398 -537.0874
v 1518.716 -107.3441 -375.4934
v 1559.037 -94.13447 -364.4259
v 1559.037 146.4766 -367.9932
v 1558.677 -96.82092 -545.6261
v 1558.677 143.7901 -549.1934
v 1559.037 155.174 -370.4331
v 1558.677 152.5541 -547.1444
v 1559.037 159.3728 -378.0603
v 1558.677 156.9708 -540.0773
v 1559.037 -102.9004 -366.6069
v 1558.677 -105.5203 -543.3182
v 1559.037 -107.3235 -374.1063
v 1558.677 -109.7255 -536.1234
vt 0.850064 0.07487
vt 0.834712 0.07487
vt 0.852274 0.616288
vt 0.834712 0.616288
vt 0.834712 0.645235
vt 0.848785 0.645235
vt 0.868373 0.616288
vt 0.854631 0.645235
vt 0.865191 0.645235
vt 0.871594 0.645235
vt 0.865169 0.675442
vt 0.854659 0.675442
vt 0.854631 0.645235
vt 0.868328 0.07487
vt 0.906602 0.616288
vt 0.871594 0.645235
vt 0.9017 0.645235
vt 0.906204 0.07487
vt 0.902059 0.048099
vt 0.871145 0.048441
vt 0.927243 0.616288
vt 0.923491 0.07487
vt 0.920502 0.046862
vt 0.907303 0.046862
vt 0.920657 0.016739
vt 0.907565 0.016739
vt 0.942359 0.616288
vt 0.942215 0.07487
vt 0.945033 0.046862
vt 0.930371 0.046862
vt 0.956919 0.616288
vt 0.961496 0.07487
vt 0.966188 0.046862
vt 0.950473 0.046862
vt 0.966357 0.016739
vt 0.950766 0.016739
vt 0.979937 0.016739
vt 0.979866 0.046862
vt 0.979866 0.046862
vt 0.97978 0.07487
vt 0.977274 0.616288
vt 0.959591 0.645235
vt 0.976449 0.645235
vt 0.947637 0.645235
vt 0.947762 0.675442
vt 0.95966 0.675442
vt 0.976449 0.645235
vt 0.976463 0.675442
vt 0.998157 0.616288
vt 0.980458 0.645235
vt 0.998157 0.645235
vt 0.998157 0.07487
vt 0.998157 0.046862
vt 0.984146 0.046862
vt 0.98054 0.675442
vt 0.980458 0.645235
vt 0.998157 0.675442
vt 0.998157 0.016739
vt 0.984146 0.046862
vt 0.98426 0.016739
vt 0.834712 0.675442
vt 0.848785 0.645235
vt 0.848718 0.675442
vt 0.848718 0.675442
vt 0.854631 0.645235
vt 0.848785 0.645235
vt 0.854659 0.675442
vt 0.854631 0.645235
vt 0.852274 0.616288
vt 0.848785 0.645235
vt 0.87161 0.675442
vt 0.871594 0.645235
vt 0.865169 0.675442
vt 0.87161 0.675442
vt 0.871594 0.645235
vt 0.901577 0.675442
vt 0.901577 0.675442
vt 0.907622 0.645235
vt 0.9017 0.645235
vt 0.907598 0.675442
vt 0.907598 0.675442
vt 0.921859 0.645235
vt 0.907622 0.645235
vt 0.921768 0.675442
vt 0.921768 0.675442
vt 0.930897 0.645235
vt 0.921859 0.645235
vt 0.930973 0.675442
vt 0.930973 0.675442
vt 0.942179 0.645235
vt 0.930897 0.645235
vt 0.942201 0.675442
vt 0.942359 0.616288
vt 0.930897 0.645235
vt 0.927243 0.616288
vt 0.942201 0.675442
vt 0.947637 0.645235
vt 0.942179 0.645235
vt 0.947762 0.675442
vt 0.947637 0.645235
vt 0.942359 0.616288
vt 0.976463 0.675442
vt 0.980458 0.645235
vt 0.976449 0.645235
vt 0.98054 0.675442
vt 0.980458 0.645235
vt 0.977274 0.616288
vt 0.976449 0.645235
vt 0.947637 0.645235
vt 0.956919 0.616288
vt 0.942359 0.616288
vt 0.930897 0.645235
vt 0.927243 0.616288
vt 0.921859 0.645235
vt 0.921859 0.645235
vt 0.927243 0.616288
vt 0.907622 0.645235
vt 0.906602 0.616288
vt 0.907622 0.645235
vt 0.906602 0.616288
vt 0.9017 0.645235
vt 0.865904 0.046862
vt 0.850515 0.046862
vt 0.846697 0.046862
vt 0.834712 0.046862
vt 0.8466 0.016739
vt 0.846697 0.046862
vt 0.834712 0.016739
vt 0.865748 0.016739
vt 0.850515 0.046862
vt 0.865904 0.046862
vt 0.850482 0.016739
vt 0.850482 0.016739
vt 0.846697 0.046862
vt 0.850515 0.046862
vt 0.8466 0.016739
vt 0.846697 0.046862
vt 0.850064 0.07487
vt 0.850515 0.046862
vt 0.865748 0.016739
vt 0.865904 0.046862
vt 0.87257 0.017757
vt 0.871145 0.048441
vt 0.865904 0.046862
vt 0.868328 0.07487
vt 0.871145 0.048441
vt 0.87257 0.017757
vt 0.871145 0.048441
vt 0.901105 0.017737
vt 0.902059 0.048099
vt 0.901105 0.017737
vt 0.902059 0.048099
vt 0.907565 0.016739
vt 0.907565 0.016739
vt 0.902059 0.048099
vt 0.907303 0.046862
vt 0.920657 0.016739
vt 0.920502 0.046862
vt 0.930693 0.016739
vt 0.930371 0.046862
vt 0.923491 0.07487
vt 0.930693 0.016739
vt 0.945235 0.016739
vt 0.945033 0.046862
vt 0.945235 0.016739
vt 0.945033 0.046862
vt 0.950766 0.016739
vt 0.950473 0.046862
vt 0.979937 0.016739
vt 0.979866 0.046862
vt 0.98426 0.016739
vt 0.984146 0.046862
vt 0.902059 0.048099
vt 0.906204 0.07487
vt 0.907303 0.046862
vt 0.945033 0.046862
vt 0.942215 0.07487
vt 0.950473 0.046862
vt 0.979866 0.046862
vt 0.97978 0.07487
vt 0.984146 0.046862
vt 0.041464 0.640182
vt 0.041464 0.987447
vt 0.047432 0.640182
vt 0.047432 0.987447
vt 0.041464 0.627189
vt 0.04748 0.627189
vt 0.04748 0.627189
vt 0.041464 0.615108
vt 0.04917 0.615109
vt 0.05028 0.38158
vt 0.041464 0.38158
vt 0.041464 0.369094
vt 0.048528 0.369095
vt 0.058361 0.38158
vt 0.051463 0.369094
vt 0.056764 0.369094
vt 0.059978 0.369094
vt 0.056753 0.356066
vt 0.051477 0.356066
vt 0.056754 0.0088
vt 0.051478 0.0088
vt 0.059987 0.0088
vt 0.059986 0.356066
vt 0.07503 0.0088
vt 0.075029 0.356066
vt 0.075091 0.369094
vt 0.059978 0.369094
vt 0.059978 0.369094
vt 0.051463 0.369094
vt 0.059978 0.369094
vt 0.077552 0.38158
vt 0.058339 0.615109
vt 0.057122 0.627189
vt 0.049397 0.627189
vt 0.077352 0.615109
vt 0.075324 0.626656
vt 0.059696 0.626507
vt 0.087914 0.38158
vt 0.08603 0.615109
vt 0.084529 0.627189
vt 0.077904 0.627189
vt 0.084607 0.640182
vt 0.078035 0.640182
vt 0.078036 0.987447
vt 0.084608 0.987447
vt 0.095501 0.38158
vt 0.095429 0.615109
vt 0.096843 0.627189
vt 0.089483 0.627189
vt 0.10281 0.38158
vt 0.105108 0.615109
vt 0.107463 0.627189
vt 0.099574 0.627189
vt 0.107548 0.640182
vt 0.099721 0.640182
vt 0.099722 0.987447
vt 0.107548 0.987447
vt 0.114365 0.640182
vt 0.114366 0.987447
vt 0.116535 0.640182
vt 0.116535 0.987447
vt 0.123511 0.640182
vt 0.123511 0.987447
vt 0.114329 0.627189
vt 0.114329 0.627189
vt 0.116478 0.627189
vt 0.116478 0.627189
vt 0.123511 0.627189
vt 0.114286 0.615109
vt 0.116478 0.627189
vt 0.123511 0.615109
vt 0.123511 0.38158
vt 0.113028 0.38158
vt 0.114626 0.369094
vt 0.123511 0.369094
vt 0.114329 0.627189
vt 0.104151 0.369094
vt 0.112614 0.369094
vt 0.098151 0.369094
vt 0.098214 0.356066
vt 0.104186 0.356066
vt 0.104186 0.0088
vt 0.098214 0.0088
vt 0.112621 0.0088
vt 0.112621 0.356066
vt 0.114668 0.0088
vt 0.114667 0.356066
vt 0.114626 0.369094
vt 0.112614 0.369094
vt 0.112614 0.369094
vt 0.047432 0.640182
vt 0.047432 0.987447
vt 0.04938 0.640182
vt 0.049381 0.987447
vt 0.057044 0.640182
vt 0.057044 0.987447
vt 0.049397 0.627189
vt 0.057122 0.627189
vt 0.04748 0.627189
vt 0.049397 0.627189
vt 0.057044 0.640182
vt 0.057044 0.987447
vt 0.05957 0.639725
vt 0.060273 0.987716
vt 0.057122 0.627189
vt 0.059696 0.626507
vt 0.05957 0.639725
vt 0.060273 0.987716
vt 0.075666 0.63974
vt 0.074921 0.98772
vt 0.059696 0.626507
vt 0.075324 0.626656
vt 0.075666 0.63974
vt 0.074921 0.98772
vt 0.078035 0.640182
vt 0.078036 0.987447
vt 0.075324 0.626656
vt 0.084607 0.640182
vt 0.084608 0.987447
vt 0.089645 0.640182
vt 0.089646 0.987447
vt 0.084529 0.627189
vt 0.089483 0.627189
vt 0.08603 0.615109
vt 0.089645 0.640182
vt 0.089646 0.987447
vt 0.096945 0.640182
vt 0.096945 0.987447
vt 0.096843 0.627189
vt 0.096945 0.640182
vt 0.096945 0.987447
vt 0.099721 0.640182
vt 0.099722 0.987447
vt 0.096843 0.627189
vt 0.099574 0.627189
vt 0.077904 0.627189
vt 0.075324 0.626656
vt 0.078035 0.640182
vt 0.049397 0.627189
vt 0.04917 0.615109
vt 0.04748 0.627189
vt 0.048528 0.369095
vt 0.041464 0.356066
vt 0.048495 0.356066
vt 0.048495 0.0088
vt 0.041465 0.0088
vt 0.048495 0.356066
vt 0.051478 0.0088
vt 0.048495 0.0088
vt 0.051477 0.356066
vt 0.051463 0.369094
vt 0.048528 0.369095
vt 0.075029 0.356066
vt 0.078052 0.0088
vt 0.07503 0.0088
vt 0.078051 0.356066
vt 0.078064 0.369094
vt 0.075091 0.369094
vt 0.078051 0.356066
vt 0.085165 0.0088
vt 0.078052 0.0088
vt 0.085165 0.356066
vt 0.085211 0.369094
vt 0.078064 0.369094
vt 0.085165 0.356066
vt 0.089786 0.0088
vt 0.085165 0.0088
vt 0.089786 0.356066
vt 0.089747 0.369094
vt 0.085211 0.369094
vt 0.089786 0.356066
vt 0.095422 0.0088
vt 0.089786 0.0088
vt 0.095422 0.356066
vt 0.095411 0.369094
vt 0.089747 0.369094
vt 0.089747 0.369094
vt 0.095501 0.38158
vt 0.087914 0.38158
vt 0.095422 0.356066
vt 0.098214 0.0088
vt 0.095422 0.0088
vt 0.098214 0.356066
vt 0.098151 0.369094
vt 0.095411 0.369094
vt 0.095501 0.38158
vt 0.098151 0.369094
vt 0.114667 0.356066
vt 0.123511 0.0088
vt 0.114668 0.0088
vt 0.123511 0.356066
vt 0.114626 0.369094
vt 0.112614 0.369094
vt 0.113028 0.38158
vt 0.114626 0.369094
vt 0.095501 0.38158
vt 0.10281 0.38158
vt 0.098151 0.369094
vt 0.078064 0.369094
vt 0.087914 0.38158
vt 0.085211 0.369094
vt 0.077552 0.38158
vt 0.085211 0.369094
vt 0.087914 0.38158
vt 0.089747 0.369094
vt 0.075091 0.369094
vt 0.077552 0.38158
vt 0.078064 0.369094
vt 0.048528 0.369095
vt 0.05028 0.38158
vt 0.051463 0.369094
vt 0.059696 0.626507
vt 0.058339 0.615109
vt 0.057122 0.627189
vt 0.077904 0.627189
vt 0.077352 0.615109
vt 0.075324 0.626656
vt 0.099574 0.627189
vt 0.095429 0.615109
vt 0.096843 0.627189
vt 0.116478 0.627189
vt 0.114286 0.615109
vt 0.114329 0.627189
vt 0.172483 0.929803
vt 0.172483 0.063791
vt 0.827747 0.929803
vt 0.827748 0.063791
vt 0.180479 0.032363
vt 0.81951 0.032363
vt 0.20665 0.016848
vt 0.792543 0.016848
vt 0.180479 0.96123
vt 0.81951 0.96123
vt 0.20665 0.976746
vt 0.792542 0.976746
vt 0.173281 0.929995
vt 0.173281 0.063279
vt 0.825998 0.929995
vt 0.825998 0.063279
vt 0.181605 0.031826
vt 0.818151 0.031826
vt 0.208848 0.016297
vt 0.792465 0.016297
vt 0.181605 0.961448
vt 0.818151 0.961448
vt 0.208848 0.976976
vt 0.792465 0.976976
vn 0.1135033 0.9478781 -0.2977317
vn 0.001263831 0.9569911 -0.2901144
vn -0.1233987 0.9554554 0.2681003
vn -0.04057544 0.9696303 0.2411864
vn -0.02817849 0.7321359 0.6805755
vn -0.2112887 0.5864496 0.7819424
vn 0.06035595 0.9570853 0.2834519
vn -0.1737345 0.7292441 0.6618304
vn 0.2678441 0.5316932 0.8034686
vn 0.2949157 0.6235133 0.7240551
vn 0.381218 0.126909 0.915733
vn 0.0749844 0.1833871 0.9801768
vn 0.04236218 0.7015288 0.7113809
vn -0.0990038 0.9454848 -0.3102524
vn -0.1617907 0.9519799 0.2599191
vn 0.2041925 0.6925879 0.6918291
vn -0.2622217 0.5746969 0.7752182
vn 0.1317685 0.9442234 -0.3017935
vn 0.2610232 0.6858777 -0.6792927
vn -0.1306618 0.5386527 -0.8323345
vn -0.05526467 0.9651597 0.2557589
vn 0.02875431 0.9703364 -0.2400424
vn 0.04474449 0.7026578 -0.7101197
vn 0.2067828 0.5642966 -0.7992561
vn 0.0118876 0.1518707 -0.9883288
vn 0.01211128 0.06845108 -0.9975809
vn 0.006569604 0.9641101 0.2654216
vn -0.1124995 0.9550084 -0.2744136
vn -0.2003208 0.7686024 -0.6075541
vn -0.0186459 0.5118483 -0.8588735
vn 0.04215395 0.9691586 0.2428056
vn -0.04460312 0.9615259 -0.271069
vn -0.1204267 0.591816 -0.7970266
vn -0.2877772 0.5559015 -0.7798447
vn -0.1569209 0.1105098 -0.9814089
vn -0.1140002 0.06917229 -0.9910697
vn -0.5791252 0.101271 -0.8089241
vn -0.5316386 0.5441631 -0.6490355
vn -0.2929697 0.7071562 -0.6435051
vn -0.1302421 0.9431266 -0.3058583
vn 0.166818 0.9491103 0.2671356
vn 0.09155461 0.6063428 0.7899154
vn 0.3855267 0.5340348 0.7524466
vn 0.02745136 0.7223644 0.6909674
vn -0.007813758 0.1803418 0.983573
vn 0.1184314 0.1380854 0.983314
vn 0.5309649 0.4649767 0.70843
vn 0.6576664 0.09291948 0.7475566
vn -0.005072848 0.971153 0.2384031
vn 0.1982307 0.7420142 0.6404057
vn -0.06078126 0.5022067 0.8626089
vn -0.03165552 0.9595308 -0.2798188
vn -0.03392503 0.6830795 -0.7295557
vn -0.1957433 0.5485942 -0.8128524
vn -0.06916191 0.1835719 0.9805703
vn -0.03100364 0.7263409 0.6866351
vn -0.07049403 0.09907236 0.9925801
vn -0.02274597 0.1497574 -0.9884611
vn -0.3605682 0.4848492 -0.7968136
vn -0.5018846 0.08368058 -0.8608772
vn 0 0.1863966 0.9824746
vn 0 0.5166833 0.8561766
vn 0 0.1006659 0.9949203
vn -0.9070909 0.07878507 0.413496
vn -0.8724355 0.2840051 0.3977406
vn -0.8448454 0.3691662 0.3872371
vn -0.9102262 0.04176069 0.4120004
vn -0.5963661 0.6065431 0.5257879
vn -0.1233987 0.9554554 0.2681003
vn -0.6315894 0.6215448 0.4634404
vn 0.3210974 0.1415462 0.9364086
vn 0.4431708 0.4102463 0.7970556
vn 0.381218 0.126909 0.915733
vn 0.3210974 0.1415462 0.9364086
vn 0.2949157 0.6235133 0.7240551
vn -0.06293473 0.09990564 0.9930046
vn -0.9198581 0.07296488 0.3854054
vn -0.8888306 0.2669504 0.3724482
vn -0.8640073 0.34787 0.363975
vn -0.9225966 0.03867086 0.3838229
vn -0.06569088 0.1818533 0.9811291
vn -0.05723701 0.5150036 0.855275
vn -0.3040515 0.718385 0.6256802
vn -0.06693987 0.09825063 0.9929078
vn -0.9573532 0.05257821 0.284096
vn -0.9389609 0.2017164 0.2786809
vn -0.9239966 0.265048 0.2756441
vn -0.9588593 0.02775372 0.282522
vn 0.01703924 0.1775824 0.9839585
vn 0.01516186 0.4801452 0.877058
vn -0.01192809 0.6790254 0.7340179
vn 0.01735607 0.09627654 0.9952033
vn 0.006569604 0.9641101 0.2654216
vn -0.2603116 0.6874818 0.6779429
vn -0.1856834 0.9442807 0.2717638
vn 0.9686701 0.04500126 0.2442401
vn 0.95462 0.1753569 0.2407294
vn 0.9433006 0.2302661 0.2390848
vn 0.9697801 0.0242255 0.2427746
vn 0.8471183 0.4071916 0.3414462
vn 0.5622519 0.7276055 0.3930178
vn 0.6576664 0.09291948 0.7475566
vn 0.8961124 0.2588612 0.3605181
vn 0.6109681 0.3279161 0.7205477
vn 0.9280016 0.03771785 0.3706621
vn 0.6286069 0.6079678 0.4850038
vn 0.166818 0.9491103 0.2671356
vn 0.5309649 0.4649767 0.70843
vn 0.2884613 0.7134204 0.6386089
vn 0.04215395 0.9691586 0.2428056
vn 0.1489466 0.9484244 0.2798322
vn -0.6886793 0.5509914 0.471306
vn -0.321045 0.8152354 0.4819972
vn -0.7304742 0.5615005 0.3887474
vn -0.3019646 0.5532162 0.7763821
vn -0.1856834 0.9442807 0.2717638
vn -0.3040515 0.718385 0.6256802
vn -0.1617907 0.9519799 0.2599191
vn -0.5812286 0.5522953 0.5976146
vn -0.1617907 0.9519799 0.2599191
vn -0.439487 0.5065547 0.7417909
vn -0.1904349 0.7297754 -0.6566296
vn 0.2372228 0.5596361 -0.7940608
vn 0.1655932 0.7158099 -0.6783769
vn -0.06726591 0.4646485 -0.8829367
vn -0.07607731 0.1471836 -0.9861791
vn -0.02451335 0.6791974 -0.7335461
vn -0.07746894 0.0662519 -0.994791
vn 0.07306395 0.1493463 -0.9860818
vn 0.4024489 0.4918279 -0.7721012
vn 0.03998238 0.7087473 -0.7043285
vn 0.5450546 0.07899759 -0.8346706
vn 0.5450546 0.07899759 -0.8346706
vn 0.8371801 0.3039226 -0.4547093
vn 0.4825366 0.3530475 -0.8015709
vn 0.8832235 0.03165546 -0.4678827
vn 0.5680498 0.6002427 -0.5630525
vn 0.1135033 0.9478781 -0.2977317
vn 0.4024489 0.4918279 -0.7721012
vn -0.931935 0.02554745 -0.3617244
vn -0.8986156 0.2501729 -0.3604213
vn -0.9291381 0.05641973 -0.3654028
vn -0.8748913 0.3316185 -0.3529791
vn -0.6276162 0.6003982 -0.4956004
vn -0.0990038 0.9454848 -0.3102524
vn -0.6438445 0.5776861 -0.5017399
vn 0.1300586 0.06725733 -0.9892225
vn 0.1153354 0.4491646 -0.8859734
vn 0.1285006 0.1495309 -0.9803714
vn 0.425074 0.6022022 -0.6757697
vn 0.9284254 0.02072823 -0.3709402
vn 0.8677964 0.2797847 -0.41067
vn 0.9152399 0.05864185 -0.3986191
vn 0.9152399 0.05864185 -0.3986191
vn 0.7403781 0.2921831 -0.6053671
vn 0.82252 0.3822646 -0.4211111
vn 0.9979109 0.004541069 -0.06444432
vn 0.9963318 0.05425165 -0.06618088
vn 0.997826 0.01035415 -0.06508403
vn 0.9950384 0.07361324 -0.06692872
vn 0.9891557 0.1305009 -0.06738306
vn -0.02213809 0.07111042 -0.9972228
vn -0.02171284 0.1570689 -0.987349
vn 0.01437244 0.7511246 -0.660004
vn -0.9320918 0.02634515 -0.3612629
vn -0.8939373 0.2725759 -0.3557786
vn -0.9296513 0.05813336 -0.3638256
vn -0.8637824 0.3640803 -0.348318
vn -0.5791252 0.101271 -0.8089241
vn -0.6928009 0.3093638 -0.6513993
vn -0.5018846 0.08368058 -0.8608772
vn -0.440688 0.3567522 -0.8237244
vn 0.545256 0.5282462 -0.6508853
vn 0.1317685 0.9442234 -0.3017935
vn 0.385758 0.4980748 -0.7766031
vn -0.6194676 0.6380908 -0.4572745
vn -0.1124995 0.9550084 -0.2744136
vn -0.4622828 0.4869152 -0.7410859
vn -0.5316386 0.5441631 -0.6490355
vn -0.1302421 0.9431266 -0.3058583
vn -0.3605682 0.4848492 -0.7968136
vn -0.07714769 -0.136245 -0.9876667
vn -0.07746894 0.0662519 -0.994791
vn -0.07668145 -0.1360981 -0.9877232
vn -0.07607731 0.1471836 -0.9861791
vn -0.06726608 -0.4906193 -0.8687738
vn -0.02451217 -0.700645 -0.7130889
vn 0.165593 -0.7356058 -0.6568585
vn 0.001266023 -0.965171 -0.2616167
vn 0.1135038 -0.9562874 -0.2695016
vn -0.1233964 -0.9470884 0.2963056
vn -0.04057752 -0.9620539 0.2698252
vn -0.02818023 -0.7116392 0.7019798
vn -0.2112856 -0.5630163 0.7989812
vn 0.06035565 -0.9482617 0.3117
vn -0.1737309 -0.7093069 0.6831554
vn 0.2678436 -0.5076408 0.8188776
vn 0.2949141 -0.6017751 0.7422214
vn 0.4805966 -0.09975589 0.8712495
vn 0.07561935 -0.1120664 0.9908193
vn 0.381218 0.126909 0.915733
vn 0.0749844 0.1833871 0.9801768
vn 0.3210974 0.1415462 0.9364086
vn 0.1890535 -0.1120675 0.9755509
vn -0.06293473 0.09990564 0.9930046
vn -0.06264568 -0.1131935 0.991596
vn -0.2622176 -0.5514685 0.7919119
vn 0.2949141 -0.6017751 0.7422214
vn 0.4431695 -0.3864376 0.8088677
vn 0.0423628 -0.680132 0.7318646
vn 0.2041905 -0.6717746 0.7120571
vn -0.1617868 -0.9438573 0.2880252
vn -0.09900285 -0.954267 -0.2820868
vn -0.190432 -0.7489226 -0.6347052
vn 0.2372215 -0.5829302 -0.7771219
vn 0.131767 -0.9527552 -0.2736696
vn 0.2610233 -0.705713 -0.6586623
vn -0.1306591 -0.5630935 -0.8159986
vn -0.05526234 -0.9571537 0.2842585
vn 0.02875322 -0.9770262 -0.2111708
vn 0.0447344 -0.7234018 -0.6889765
vn 0.2067766 -0.5877447 -0.7821763
vn 0.01198193 -0.1396839 -0.9901237
vn 0.01205798 -0.1396512 -0.9901274
vn 0.01211128 0.06845108 -0.9975809
vn 0.0118876 0.1518707 -0.9883288
vn 0.006569436 -0.9558176 0.293887
vn -0.1124986 -0.9627239 -0.2459813
vn -0.2003203 -0.7862768 -0.5845002
vn -0.01864559 -0.5370852 -0.8433219
vn 0.04215372 -0.9615343 0.2714309
vn -0.04460187 -0.969139 -0.2424465
vn -0.1204241 -0.6151844 -0.7791317
vn -0.2877822 -0.5787777 -0.7630188
vn -0.1421699 -0.1395759 -0.9799522
vn -0.1134948 -0.1404931 -0.9835551
vn -0.1140002 0.06917229 -0.9910697
vn -0.1569209 0.1105098 -0.9814089
vn -0.4538887 -0.1251746 -0.8822225
vn -0.5791252 0.101271 -0.8089241
vn -0.6506554 -0.1059919 -0.7519397
vn -0.5018846 0.08368058 -0.8608772
vn -0.02293593 -0.1380965 -0.9901531
vn -0.02274597 0.1497574 -0.9884611
vn -0.5316361 -0.5631655 -0.6326196
vn -0.6927981 -0.3285404 -0.6419438
vn -0.4406905 -0.3810167 -0.8127841
vn -0.3605722 -0.5082592 -0.7820871
vn -0.03393346 -0.7044089 -0.7089829
vn -0.1302443 -0.9517792 -0.2777638
vn -0.1957488 -0.5724524 -0.7962291
vn -0.03165607 -0.9674041 -0.251251
vn -0.005071967 -0.9636588 0.2670884
vn 0.1668172 -0.940774 0.2951548
vn 0.1982304 -0.7227041 0.6621206
vn -0.0607827 -0.4764144 0.8771172
vn -0.2929656 -0.7259228 -0.6222597
vn 0.09155411 -0.5826588 0.8075435
vn 0.3855275 -0.5114953 0.7679461
vn 0.02745085 -0.701562 0.7120794
vn -0.007878344 -0.1096922 0.9939343
vn 0.1616017 -0.1088567 0.9808338
vn 0.1184314 0.1380854 0.983314
vn -0.007813758 0.1803418 0.983573
vn 0.6576664 0.09291948 0.7475566
vn 0.7741113 -0.07135402 0.6290154
vn 0.9280016 0.03771785 0.3706621
vn 0.9273982 -0.04283108 0.3716154
vn 0.8961112 -0.2480625 0.3680349
vn 0.610968 -0.3064132 0.7299514
vn 0.5309651 -0.4437724 0.7219017
vn 0.8823991 -0.06480832 -0.4660166
vn 0.8832235 0.03165546 -0.4678827
vn 0.6878881 -0.100516 -0.718823
vn 0.5450546 0.07899759 -0.8346706
vn 0.07365562 -0.1377233 -0.9877282
vn 0.07306395 0.1493463 -0.9860818
vn 0.4024476 -0.5145009 -0.7571821
vn 0.03998166 -0.729315 -0.6830088
vn 0.8371789 -0.31727 -0.4455012
vn 0.4825353 -0.3766556 -0.7907529
vn -0.9307998 -0.05172852 -0.3618508
vn -0.931935 0.02554745 -0.3617244
vn -0.9305931 -0.05174912 -0.3623791
vn -0.9291381 0.05641973 -0.3654028
vn -0.8986244 -0.2607439 -0.3528267
vn -0.8748901 -0.3419392 -0.3429937
vn 0.1295054 -0.137549 -0.9819921
vn 0.1300586 0.06725733 -0.9892225
vn 0.1293315 -0.1377133 -0.981992
vn 0.1285006 0.1495309 -0.9803714
vn 0.1153346 -0.4752311 -0.872269
vn 0.4250741 -0.6219699 -0.657621
vn 0.9274987 -0.04484672 -0.3711265
vn 0.9284254 0.02072823 -0.3709402
vn 0.9193379 -0.0541913 -0.3897192
vn 0.9152399 0.05864185 -0.3986191
vn 0.8677973 -0.2918352 -0.402194
vn 0.997894 -0.009191592 -0.06421252
vn 0.9979109 0.004541069 -0.06444432
vn 0.9978649 -0.009441901 -0.06462558
vn 0.997826 0.01035415 -0.06508403
vn 0.9963362 -0.05615819 -0.06450193
vn 0.9950445 -0.07552291 -0.06467491
vn 0.9891679 -0.1323693 -0.06344353
vn -0.02203407 -0.1436321 -0.9893858
vn -0.02213809 0.07111042 -0.9972228
vn -0.02190121 -0.1435699 -0.9893978
vn -0.02171284 0.1570689 -0.987349
vn 0.01437156 -0.7703614 -0.6374456
vn -0.9315054 -0.05289297 -0.3598609
vn -0.9320918 0.02634515 -0.3612629
vn -0.9307325 -0.05301604 -0.3618374
vn -0.9296513 0.05813336 -0.3638256
vn -0.8939368 -0.2830049 -0.3475418
vn -0.8637812 -0.3742487 -0.3373721
vn 0.8225207 -0.3945796 -0.4095932
vn 0.7403791 -0.3099999 -0.5964383
vn 0.9193379 -0.0541913 -0.3897192
vn 0.4024476 -0.5145009 -0.7571821
vn 0.1135038 -0.9562874 -0.2695016
vn 0.5680493 -0.6166707 -0.5450113
vn 0 -0.4910767 0.8711163
vn 0 -0.1142666 0.9934501
vn 0 -0.1142666 0.9934501
vn 0 0.1006659 0.9949203
vn 0 0.1863966 0.9824746
vn -0.9084729 -0.04834503 0.4151382
vn -0.9102262 0.04176069 0.4120004
vn -0.9070909 0.07878507 0.413496
vn -0.9095036 -0.04736347 0.4129891
vn -0.8724348 -0.2720948 0.4059826
vn -0.8448421 -0.3575334 0.3980097
vn -0.9210601 -0.04471063 0.386845
vn -0.9225966 0.03867086 0.3838229
vn -0.9198581 0.07296488 0.3854054
vn -0.9219684 -0.0437724 0.3847832
vn -0.8888265 -0.2558011 0.3802016
vn -0.8639998 -0.3369411 0.3741324
vn -0.06623925 -0.1108903 0.9916227
vn -0.06693987 0.09825063 0.9929078
vn -0.06569088 0.1818533 0.9811291
vn -0.066644 -0.1107045 0.9916164
vn -0.05723631 -0.4894223 0.8701665
vn -0.3040429 -0.6995265 0.6466997
vn -0.9580072 -0.03205268 0.2849471
vn -0.9588593 0.02775372 0.282522
vn -0.9573532 0.05257821 0.284096
vn -0.9585262 -0.03114995 0.2832969
vn -0.9389614 -0.193365 0.2845375
vn -0.9239975 -0.2567582 0.2833793
vn 0.01717692 -0.1076114 0.9940447
vn 0.01735607 0.09627654 0.9952033
vn 0.01703924 0.1775824 0.9839585
vn 0.01728334 -0.1076485 0.9940388
vn 0.01516244 -0.4539332 0.8909067
vn -0.01192832 -0.656966 0.7538258
vn -0.2603126 -0.6670808 0.6980261
vn 0.006569436 -0.9558176 0.293887
vn -0.1856818 -0.9358097 0.2996374
vn 0.9691553 -0.02740563 0.2449224
vn 0.9697801 0.0242255 0.2427746
vn 0.9686701 0.04500126 0.2442401
vn 0.9695221 -0.0273312 0.2434743
vn 0.9546213 -0.1681354 0.2458223
vn 0.9433033 -0.2230652 0.2458065
vn 0.5622603 -0.7156254 0.4144198
vn 0.847121 -0.3968836 0.3533686
vn -0.06975134 -0.1121955 0.991235
vn -0.07049403 0.09907236 0.9925801
vn -0.06916191 0.1835719 0.9805703
vn -0.07018022 -0.1119533 0.9912322
vn -0.03100223 -0.7056668 0.7078652
vn 0.5309651 -0.4437724 0.7219017
vn 0.1668172 -0.940774 0.2951548
vn 0.6286058 -0.5933236 0.5028141
vn 0.1489484 -0.939711 0.3078275
vn 0.04215372 -0.9615343 0.2714309
vn 0.2884645 -0.6941701 0.6594816
vn -0.3040429 -0.6995265 0.6466997
vn -0.1856818 -0.9358097 0.2996374
vn -0.3019649 -0.5299564 0.7924414
vn -0.1617868 -0.9438573 0.2880252
vn -0.7304753 -0.5497283 0.4052218
vn -0.3210433 -0.8005891 0.5059528
vn -0.6886802 -0.5367761 0.4874332
vn -0.4394822 -0.4843469 0.756481
vn -0.1617868 -0.9438573 0.2880252
vn -0.5812224 -0.534342 0.6137256
vn -0.6315852 -0.607539 0.4816603
vn -0.1233964 -0.9470884 0.2963056
vn -0.5963643 -0.5906935 0.5435353
vn -0.6438423 -0.5923077 -0.4843952
vn -0.09900285 -0.954267 -0.2820868
vn -0.6276246 -0.6148266 -0.4775726
vn 0.3857534 -0.5208805 -0.761497
vn 0.131767 -0.9527552 -0.2736696
vn 0.5452566 -0.5473088 -0.6349397
vn -0.4622863 -0.5086721 -0.7263223
vn -0.1124986 -0.9627239 -0.2459813
vn -0.6194673 -0.6513675 -0.4381561
vn -0.3605722 -0.5082592 -0.7820871
vn -0.1302443 -0.9517792 -0.2777638
vn -0.5316361 -0.5631655 -0.6326196
vn -0.9999994 -0.0001551192 -0.001097316
vn -0.9999994 7.624497E-05 -0.001100746
vn -0.9999994 -1.247938E-05 -0.001106414
vn -0.9999994 -2.167075E-05 -0.001108606
vn -0.9999992 0.0006073911 -0.001127242
vn -0.9999993 -0.0001928945 -0.001158777
vn -0.9999993 -0.0001343186 -0.001176689
vn -0.999997 -0.002139522 -0.00119809
vn -0.9999992 -0.0006405421 -0.001108741
vn -0.9999993 0.0001584584 -0.001163986
vn -0.9999993 9.937755E-05 -0.001180154
vn -0.999997 0.002103061 -0.00126099
vn 0.999998 0.0002334215 -0.001990802
vn 0.9999981 -0.0002047085 -0.001984307
vn 0.999998 -2.527732E-05 -0.001999588
vn 0.999998 -3.552823E-05 -0.002003643
vn 0.9999973 -0.001227266 -0.0020028
vn 0.9999979 0.0001720881 -0.002101983
vn 0.9999977 1.908956E-05 -0.002130519
vn 0.9999908 0.003642844 -0.00227664
vn 0.9999973 0.001167355 -0.002038302
vn 0.9999979 -0.0002343285 -0.002095958
vn 0.9999977 -8.224424E-05 -0.002129016
vn 0.9999908 -0.00370874 -0.002167646
g Deck_Full_mesh_0
f 3/3/3 2/2/2 1/1/1
f 4/4/4 2/2/2 3/3/3
f 4/4/4 3/3/3 5/5/5
f 5/5/5 3/3/3 6/6/6
f 3/3/3 1/1/1 7/7/7
f 3/3/3 7/7/7 8/8/8
f 8/8/8 7/7/7 9/9/9
f 9/9/9 7/7/7 10/10/10
f 9/9/9 10/10/10 11/11/11
f 12/12/12 9/9/9 11/11/11
f 13/13/13 9/9/9 12/12/12
f 7/7/7 1/1/1 14/14/14
f 7/7/7 14/14/14 15/15/15
f 7/7/7 15/15/15 16/16/16
f 16/16/16 15/15/15 17/17/17
f 15/15/15 14/14/14 18/18/18
f 18/18/18 14/14/14 19/19/19
f 19/19/19 14/14/14 20/20/20
f 15/15/15 18/18/18 21/21/21
f 21/21/21 18/18/18 22/22/22
f 22/22/22 18/18/18 23/23/23
f 23/23/23 18/18/18 24/24/24
f 23/23/23 24/24/24 25/25/25
f 25/25/25 24/24/24 26/26/26
f 21/21/21 22/22/22 27/27/27
f 27/27/27 22/22/22 28/28/28
f 28/28/28 22/22/22 29/29/29
f 29/29/29 22/22/22 30/30/30
f 27/27/27 28/28/28 31/31/31
f 31/31/31 28/28/28 32/32/32
f 32/32/32 28/28/28 33/33/33
f 33/33/33 28/28/28 34/34/34
f 33/33/33 34/34/34 35/35/35
f 35/35/35 34/34/34 36/36/36
f 37/37/37 33/33/33 35/35/35
f 38/38/38 33/33/33 37/37/37
f 39/39/39 32/32/32 33/33/33
f 40/40/40 32/32/32 39/39/39
f 41/41/41 32/32/32 40/40/40
f 31/31/31 32/32/32 41/41/41
f 31/31/31 41/41/41 42/42/42
f 42/42/42 41/41/41 43/43/43
f 44/44/44 31/31/31 42/42/42
f 44/44/44 42/42/42 45/45/45
f 45/45/45 42/42/42 46/46/46
f 42/42/42 47/47/47 46/46/46
f 46/46/46 47/47/47 48/48/48
f 41/41/41 40/40/40 49/49/49
f 41/41/41 49/49/49 50/50/50
f 50/50/50 49/49/49 51/51/51
f 49/49/49 40/40/40 52/52/52
f 52/52/52 40/40/40 53/53/53
f 53/53/53 40/40/40 54/54/54
f 56/56/56 51/51/51 55/55/55
f 55/55/55 51/51/51 57/57/57
f 53/53/53 59/59/59 58/58/58
f 58/58/58 59/59/59 60/60/60
f 5/5/5 62/62/62 61/61/61
f 61/61/61 62/62/62 63/63/63
f 66/66/66 65/65/65 64/64/64
f 64/64/64 65/65/65 67/67/67
f 70/70/70 69/69/69 68/68/68
f 73/73/73 72/72/72 71/71/71
f 75/75/75 17/17/17 74/74/74
f 74/74/74 17/17/17 76/76/76
f 79/79/79 78/78/78 77/77/77
f 77/77/77 78/78/78 80/80/80
f 83/83/83 82/82/82 81/81/81
f 81/81/81 82/82/82 84/84/84
f 87/87/87 86/86/86 85/85/85
f 85/85/85 86/86/86 88/88/88
f 91/91/91 90/90/90 89/89/89
f 89/89/89 90/90/90 92/92/92
f 94/94/94 93/93/93 90/90/90
f 95/95/95 93/93/93 94/94/94
f 98/98/98 97/97/97 96/96/96
f 96/96/96 97/97/97 99/99/99
f 98/98/98 101/101/101 100/100/100
f 104/104/104 103/103/103 102/102/102
f 102/102/102 103/103/103 105/105/105
f 108/108/108 107/107/107 106/106/106
f 111/111/111 110/110/110 109/109/109
f 114/114/114 113/113/113 112/112/112
f 117/117/117 116/116/116 115/115/115
f 118/118/118 116/116/116 117/117/117
f 121/121/121 120/120/120 119/119/119
f 14/14/14 1/1/1 122/122/122
f 122/122/122 1/1/1 123/123/123
f 1/1/1 2/2/2 124/124/124
f 124/124/124 2/2/2 125/125/125
f 127/127/127 125/125/125 126/126/126
f 126/126/126 125/125/125 128/128/128
f 131/131/131 130/130/130 129/129/129
f 129/129/129 130/130/130 132/132/132
f 135/135/135 134/134/134 133/133/133
f 133/133/133 134/134/134 136/136/136
f 139/139/139 138/138/138 137/137/137
f 142/142/142 141/141/141 140/140/140
f 143/143/143 141/141/141 142/142/142
f 146/146/146 145/145/145 144/144/144
f 149/149/149 148/148/148 147/147/147
f 150/150/150 148/148/148 149/149/149
f 153/153/153 152/152/152 151/151/151
f 156/156/156 155/155/155 154/154/154
f 159/159/159 158/158/158 157/157/157
f 160/160/160 158/158/158 159/159/159
f 160/160/160 161/161/161 158/158/158
f 163/163/163 30/30/30 162/162/162
f 164/164/164 30/30/30 163/163/163
f 167/167/167 166/166/166 165/165/165
f 168/168/168 166/166/166 167/167/167
f 171/171/171 170/170/170 169/169/169
f 172/172/172 170/170/170 171/171/171
f 175/175/175 174/174/174 173/173/173
f 178/178/178 177/177/177 176/176/176
f 181/181/181 180/180/180 179/179/179
f 184/184/184 183/183/183 182/182/182
f 185/185/185 183/183/183 184/184/184
f 182/182/182 186/186/186 184/184/184
f 184/184/184 186/186/186 187/187/187
f 186/186/186 189/189/189 188/188/188
f 188/188/188 189/189/189 190/190/190
f 190/190/190 189/189/189 191/191/191
f 191/191/191 189/189/189 192/192/192
f 193/193/193 191/191/191 192/192/192
f 194/194/194 191/191/191 193/193/193
f 195/195/195 190/190/190 191/191/191
f 196/196/196 195/195/195 191/191/191
f 197/197/197 195/195/195 196/196/196
f 198/198/198 195/195/195 197/197/197
f 199/199/199 198/198/198 197/197/197
f 199/199/199 197/197/197 200/200/200
f 200/200/200 201/201/201 199/199/199
f 202/202/202 201/201/201 200/200/200
f 201/201/201 203/203/203 199/199/199
f 199/199/199 203/203/203 204/204/204
f 203/203/203 205/205/205 204/204/204
f 204/204/204 205/205/205 206/206/206
f 206/206/206 207/207/207 204/204/204
f 204/204/204 207/207/207 208/208/208
f 204/204/204 209/209/209 199/199/199
f 200/200/200 197/197/197 210/210/210
f 207/207/207 212/212/212 211/211/211
f 211/211/211 212/212/212 195/195/195
f 212/212/212 213/213/213 195/195/195
f 213/213/213 190/190/190 195/195/195
f 214/214/214 190/190/190 213/213/213
f 215/215/215 190/190/190 214/214/214
f 216/216/216 213/213/213 212/212/212
f 217/217/217 213/213/213 216/216/216
f 218/218/218 213/213/213 217/217/217
f 219/219/219 216/216/216 212/212/212
f 220/220/220 216/216/216 219/219/219
f 221/221/221 216/216/216 220/220/220
f 222/222/222 216/216/216 221/221/221
f 223/223/223 222/222/222 221/221/221
f 224/224/224 222/222/222 223/223/223
f 223/223/223 225/225/225 224/224/224
f 226/226/226 225/225/225 223/223/223
f 227/227/227 220/220/220 219/219/219
f 228/228/228 220/220/220 227/227/227
f 229/229/229 220/220/220 228/228/228
f 230/230/230 220/220/220 229/229/229
f 231/231/231 228/228/228 227/227/227
f 232/232/232 228/228/228 231/231/231
f 233/233/233 228/228/228 232/232/232
f 234/234/234 228/228/228 233/233/233
f 235/235/235 234/234/234 233/233/233
f 236/236/236 234/234/234 235/235/235
f 235/235/235 237/237/237 236/236/236
f 238/238/238 237/237/237 235/235/235
f 239/239/239 238/238/238 235/235/235
f 235/235/235 233/233/233 239/239/239
f 240/240/240 238/238/238 239/239/239
f 241/241/241 240/240/240 239/239/239
f 242/242/242 240/240/240 241/241/241
f 243/243/243 242/242/242 241/241/241
f 244/244/244 242/242/242 243/243/243
f 239/239/239 233/233/233 245/245/245
f 239/239/239 246/246/246 241/241/241
f 241/241/241 246/246/246 247/247/247
f 241/241/241 248/248/248 243/243/243
f 243/243/243 248/248/248 249/249/249
f 251/251/251 250/250/250 249/249/249
f 249/249/249 250/250/250 252/252/252
f 252/252/252 250/250/250 253/253/253
f 253/253/253 250/250/250 254/254/254
f 255/255/255 253/253/253 254/254/254
f 256/256/256 253/253/253 255/255/255
f 250/250/250 232/232/232 254/254/254
f 257/257/257 232/232/232 250/250/250
f 233/233/233 232/232/232 257/257/257
f 254/254/254 232/232/232 231/231/231
f 258/258/258 254/254/254 231/231/231
f 259/259/259 254/254/254 258/258/258
f 258/258/258 231/231/231 260/260/260
f 261/261/261 258/258/258 260/260/260
f 262/262/262 258/258/258 261/261/261
f 261/261/261 263/263/263 262/262/262
f 264/264/264 263/263/263 261/261/261
f 263/263/263 265/265/265 262/262/262
f 262/262/262 265/265/265 266/266/266
f 265/265/265 267/267/267 266/266/266
f 266/266/266 267/267/267 268/268/268
f 268/268/268 269/269/269 266/266/266
f 266/266/266 269/269/269 270/270/270
f 266/266/266 271/271/271 262/262/262
f 262/262/262 271/271/271 258/258/258
f 274/274/274 273/273/273 272/272/272
f 275/275/275 273/273/273 274/274/274
f 276/276/276 275/275/275 274/274/274
f 277/277/277 275/275/275 276/276/276
f 274/274/274 278/278/278 276/276/276
f 276/276/276 278/278/278 279/279/279
f 272/272/272 280/280/280 274/274/274
f 274/274/274 280/280/280 281/281/281
f 284/284/284 283/283/283 282/282/282
f 285/285/285 283/283/283 284/284/284
f 282/282/282 286/286/286 284/284/284
f 284/284/284 286/286/286 287/287/287
f 290/290/290 289/289/289 288/288/288
f 291/291/291 289/289/289 290/290/290
f 288/288/288 292/292/292 290/290/290
f 290/290/290 292/292/292 293/293/293
f 296/296/296 295/295/295 294/294/294
f 297/297/297 295/295/295 296/296/296
f 294/294/294 298/298/298 296/296/296
f 301/301/301 300/300/300 299/299/299
f 302/302/302 300/300/300 301/301/301
f 299/299/299 303/303/303 301/301/301
f 301/301/301 303/303/303 304/304/304
f 303/303/303 305/305/305 304/304/304
f 308/308/308 307/307/307 306/306/306
f 309/309/309 307/307/307 308/308/308
f 306/306/306 230/230/230 308/308/308
f 308/308/308 230/230/230 310/310/310
f 313/313/313 312/312/312 311/311/311
f 314/314/314 312/312/312 313/313/313
f 311/311/311 315/315/315 313/313/313
f 313/313/313 315/315/315 316/316/316
f 319/319/319 318/318/318 317/317/317
f 322/322/322 321/321/321 320/320/320
f 324/324/324 323/323/323 193/193/193
f 325/325/325 323/323/323 324/324/324
f 324/324/324 326/326/326 325/325/325
f 327/327/327 326/326/326 324/324/324
f 330/330/330 329/329/329 328/328/328
f 328/328/328 329/329/329 331/331/331
f 331/331/331 332/332/332 328/328/328
f 328/328/328 332/332/332 333/333/333
f 336/336/336 335/335/335 334/334/334
f 334/334/334 335/335/335 337/337/337
f 337/337/337 338/338/338 334/334/334
f 334/334/334 338/338/338 339/339/339
f 342/342/342 341/341/341 340/340/340
f 340/340/340 341/341/341 343/343/343
f 343/343/343 344/344/344 340/340/340
f 340/340/340 344/344/344 345/345/345
f 348/348/348 347/347/347 346/346/346
f 346/346/346 347/347/347 349/349/349
f 349/349/349 350/350/350 346/346/346
f 346/346/346 350/350/350 351/351/351
f 354/354/354 353/353/353 352/352/352
f 352/352/352 353/353/353 355/355/355
f 355/355/355 356/356/356 352/352/352
f 352/352/352 356/356/356 357/357/357
f 356/356/356 359/359/359 358/358/358
f 358/358/358 359/359/359 360/360/360
f 363/363/363 362/362/362 361/361/361
f 361/361/361 362/362/362 364/364/364
f 364/364/364 365/365/365 361/361/361
f 361/361/361 365/365/365 366/366/366
f 368/368/368 367/367/367 366/366/366
f 371/371/371 370/370/370 369/369/369
f 369/369/369 370/370/370 372/372/372
f 372/372/372 256/256/256 369/369/369
f 369/369/369 256/256/256 373/373/373
f 376/376/376 375/375/375 374/374/374
f 379/379/379 378/378/378 377/377/377
f 382/382/382 381/381/381 380/380/380
f 380/380/380 381/381/381 383/383/383
f 386/386/386 385/385/385 384/384/384
f 389/389/389 388/388/388 387/387/387
f 392/392/392 391/391/391 390/390/390
f 395/395/395 394/394/394 393/393/393
f 398/398/398 397/397/397 396/396/396
f 401/401/401 400/400/400 399/399/399
f 404/404/404 403/403/403 402/402/402
f 407/407/407 406/406/406 405/405/405
f 408/408/408 406/406/406 407/407/407
f 408/408/408 409/409/409 406/406/406
f 410/410/410 409/409/409 408/408/408
f 410/410/410 411/411/411 409/409/409
f 412/412/412 411/411/411 410/410/410
f 405/405/405 413/413/413 407/407/407
f 407/407/407 413/413/413 414/414/414
f 413/413/413 415/415/415 414/414/414
f 414/414/414 415/415/415 416/416/416
f 419/419/419 418/418/418 417/417/417
f 420/420/420 418/418/418 419/419/419
f 420/420/420 421/421/421 418/418/418
f 422/422/422 421/421/421 420/420/420
f 422/422/422 423/423/423 421/421/421
f 424/424/424 423/423/423 422/422/422
f 417/417/417 425/425/425 419/419/419
f 419/419/419 425/425/425 426/426/426
f 425/425/425 427/427/427 426/426/426
f 426/426/426 427/427/427 428/428/428
