g EnemyTray
v 932.9453 29.13802 -974.1473
v 913.1826 29.13802 -978.2762
v 923.5117 29.13802 -985.4082
v 911.4699 46.571 -994.043
v 896.8148 46.571 -986.725
v 916.418 29.13802 -866.1137
v 916.418 29.13802 -866.1137
v 896.9568 46.571 -874.2179
v 897.1601 46.571 -871.5219
v 944.3062 29.13802 -886.2386
v 969.0831 29.13802 -943.9905
v 981.1297 29.13802 -906.2003
v 1021.231 29.13802 -945.1722
v 1030.049 29.13802 -924.9434
v 1070.701 29.13802 -934.5247
v 1049.712 29.13802 -950.0936
v 1077.729 29.13802 -956.9936
v 1092.15 29.13802 -938.3798
v 1071.086 29.13802 -980.2361
v 1041.361 29.13802 -973.9587
v 1015.291 29.13802 -967.4589
v 1011.032 29.13802 -985.656
v 1037.313 29.13802 -994.1973
v 1068.317 29.13802 -1000.695
v 1035.424 29.13802 -1012.817
v 1068.866 29.13802 -1020.112
v 1038.932 29.13802 -1031.436
v 1074.682 29.13802 -1040.713
v 1043.719 29.13802 -1043.156
v 1081.278 29.13802 -1053.858
v 1002.598 29.13802 -1030.627
v 1004.063 29.13802 -1022.05
v 1006.773 29.13802 -1005.789
v 956.6577 29.13802 -1016.17
v 957.4377 29.13802 -1007.69
v 936.0971 29.13802 -1009.103
v 943.1358 29.13802 -1002.563
v 1057.492 46.571 -1064.914
v 1094.888 42.88916 -1072.462
v 1008.224 46.571 -1050.07
v 952.0454 46.571 -1034.795
v 928.637 46.571 -1026.384
v 928.0657 29.13802 -1002.356
v 917.2675 46.571 -1017.856
v 924.8726 29.13802 -995.9415
v 913.1531 46.571 -1007.227
v 912.6965 46.571 -995.9589
v 924.5604 29.13802 -987.3219
v 937.5491 29.13802 -997.3858
v 933.838 29.13802 -991.2007
v 958.3123 29.13802 -997.695
v 959.8868 29.13802 -986.6847
v 962.803 29.13802 -972.8429
v 910.0926 48.06549 -997.4721
v 908.92 48.06549 -995.6255
v 908.92 48.06549 -995.6255
v 907.9764 46.571 -998.702
v 906.8477 46.571 -996.9118
v 903.6461 31.92222 -1001.854
v 902.5173 31.92222 -1000.064
v 891.088 46.571 -988.5833
v 885.0016 31.92222 -990.6273
v 904.1393 31.92222 -1014.026
v 908.4697 46.571 -1010.873
v 910.5695 48.06549 -1009.238
v 910.0926 48.06549 -997.4721
v 907.7191 31.92222 -1025.944
v 912.8428 46.571 -1022.172
v 910.5695 48.06549 -1009.238
v 914.8267 48.06549 -1020.237
v 924.9278 46.571 -1031.235
v 926.5908 48.06549 -1029.06
v 949.809 46.571 -1040.176
v 950.8116 48.06549 -1037.763
v 1009.522 46.571 -1056.412
v 1008.94 48.06549 -1053.569
v 1061.89 46.571 -1072.19
v 1059.918 48.06549 -1068.928
v 1095.161 45.88313 -1083.39
v 1095.546 47.37762 -1080.888
v 1111.099 46.90908 -1086.793
v 1117.437 45.41458 -1091.607
v 1121.512 46.6856 -1090.699
v 1125.41 45.18877 -1094.229
v 1067.696 31.92222 -1081.688
v 1092.322 31.23434 -1090.469
v 1121.58 30.7658 -1099.461
v 1125.979 30.53998 -1100.741
v 1130.307 31.41566 -1101.24
v 1128.323 46.06445 -1094.503
v 1124.57 46.64917 -1090.928
v 1134.569 29.77449 -1100.931
v 1130.555 44.42327 -1094.35
v 910.5695 48.06549 -1009.238
v 910.0926 48.06549 -997.4721
v 1011.952 31.92222 -1065.27
v 946.5743 31.92222 -1047.68
v 920.1277 31.92222 -1037.398
v 1114.484 45.19399 -1085.505
v 1117.864 46.06445 -1085.728
v 1103.263 46.06704 -1072.95
v 1121.512 46.6856 -1090.699
v 1124.57 46.64917 -1090.928
v 1125.41 45.18877 -1094.229
v 1124.57 46.64917 -1090.928
v 1101.48 45.27711 -1073.682
v 1102.822 45.36012 -1080.733
v 1114.484 45.19399 -1085.505
v 1090.969 46.07001 -1054.692
v 1094.888 42.88916 -1072.462
v 1088.593 44.42883 -1054.855
v 1094.888 42.88916 -1072.462
v 1090.969 46.07001 -1054.692
v 1086.001 46.07001 -1041.77
v 1083.625 44.42883 -1041.933
v 1081.822 46.07001 -1021.158
v 1081.278 29.13802 -1053.858
v 1074.682 29.13802 -1040.713
v 1079.741 44.42883 -1021.611
v 1094.888 42.88916 -1072.462
v 1081.301 46.07001 -1001.563
v 1078.925 44.42883 -1001.726
v 1074.682 29.13802 -1040.713
v 1082.38 44.42883 -982.4298
v 1089.455 44.42883 -960.6102
v 1102.189 44.42883 -941.1428
v 1092.15 29.13802 -938.3798
v 1084.556 46.07001 -982.7199
v 1091.464 46.07001 -960.9832
v 1104.975 46.07001 -942.4482
v 1109.096 46.07001 -938.806
v 916.3777 30.99182 -861.8011
v 916.418 29.13802 -866.1137
v 916.3777 30.99182 -861.8011
v 916.2244 29.13802 -857.3575
v 894.8152 46.57101 -868.9935
v 801.4144 46.571 -868.9936
v 801.4144 48.06549 -871.1918
v 893.1662 48.0655 -871.1918
v 801.4144 28.8725 -857.351
v 894.5099 48.06549 -872.5972
v 893.1662 48.0655 -871.1918
v 891.0828 46.571 -873.9691
v 894.6135 48.06549 -874.0807
v 891.0828 46.571 -873.9691
v 891.088 46.571 -988.5833
v 708.0135 46.57101 -868.9935
v 686.6042 29.13802 -857.3575
v 705.6686 46.571 -871.5219
v 686.451 30.99182 -861.8011
v 709.6625 48.0655 -871.1918
v 708.3188 48.06549 -872.5972
v 708.2152 48.06549 -874.0807
v 711.7458 46.571 -873.9691
v 711.7407 46.571 -988.5833
v 709.6625 48.0655 -871.1918
v 711.7458 46.571 -873.9691
v 893.6556 48.06549 -987.7502
v 894.6135 48.06549 -874.0807
v 708.2152 48.06549 -874.0807
v 709.1731 48.06549 -987.7502
v 686.4106 29.13802 -866.1137
v 686.451 30.99182 -861.8011
v 705.8719 46.571 -874.2179
v 686.4106 29.13802 -866.1137
v 706.0139 46.571 -986.725
v 689.6462 29.13802 -978.2762
v 691.3588 46.571 -994.043
v 679.317 29.13802 -985.4082
v 669.8834 29.13802 -974.1473
v 686.4106 29.13802 -866.1137
v 658.5225 29.13802 -886.2386
v 633.7457 29.13802 -943.9905
v 621.699 29.13802 -906.2003
v 581.598 29.13802 -945.1722
v 572.7794 29.13802 -924.9434
v 531.3571 29.13802 -935.627
v 553.1165 29.13802 -950.0936
v 525.0994 29.13802 -956.9936
v 531.7429 29.13802 -980.2361
v 561.4679 29.13802 -973.9587
v 565.5157 29.13802 -994.1973
v 534.5123 29.13802 -1000.695
v 567.4047 29.13802 -1012.817
v 533.9626 29.13802 -1020.112
v 563.8966 29.13802 -1031.436
v 528.1464 29.13802 -1040.713
v 559.1099 29.13802 -1043.156
v 600.231 29.13802 -1030.627
v 598.7657 29.13802 -1022.05
v 646.171 29.13802 -1016.17
v 645.3909 29.13802 -1007.69
v 666.7316 29.13802 -1009.103
v 650.7833 46.571 -1034.795
v 674.1917 46.571 -1026.384
v 652.0171 48.06549 -1037.763
v 593.8886 48.06549 -1053.569
v 593.3066 46.571 -1056.412
v 653.0198 46.571 -1040.176
v 676.2379 48.06549 -1029.06
v 677.9009 46.571 -1031.235
v 688.0021 48.06549 -1020.237
v 689.9859 46.571 -1022.172
v 692.2593 48.06549 -1009.238
v 694.3591 46.571 -1010.873
v 540.9387 46.571 -1072.19
v 542.9105 48.06549 -1068.928
v 507.668 45.88313 -1083.39
v 507.2827 47.37762 -1080.888
v 491.73 46.90908 -1086.793
v 485.3918 45.41458 -1091.607
v 481.317 46.6856 -1090.699
v 477.4185 45.18877 -1094.229
v 689.6756 46.571 -1007.227
v 685.5612 46.571 -1017.856
v 677.9562 29.13802 -995.9415
v 674.7631 29.13802 -1002.356
v 659.6929 29.13802 -1002.563
v 644.5164 29.13802 -997.695
v 596.0555 29.13802 -1005.789
v 642.942 29.13802 -986.6847
v 591.7966 29.13802 -985.656
v 587.5377 29.13802 -967.4589
v 640.0258 29.13802 -972.8429
v 668.9908 29.13802 -991.2007
v 678.2682 29.13802 -987.3219
v 690.1322 46.571 -995.9589
v 665.2797 29.13802 -997.3858
v 692.736 48.06549 -997.4721
v 693.9087 48.06549 -995.6255
v 692.2593 48.06549 -1009.238
v 692.736 48.06549 -997.4721
v 694.8523 46.571 -998.702
v 693.9087 48.06549 -995.6255
v 695.9811 46.571 -996.9118
v 699.1827 31.92222 -1001.854
v 700.3115 31.92222 -1000.064
v 711.7407 46.571 -988.5833
v 717.827 31.92222 -990.6273
v 698.6895 31.92222 -1014.026
v 692.2593 48.06549 -1009.238
v 692.736 48.06549 -997.4721
v 695.1097 31.92222 -1025.944
v 682.701 31.92222 -1037.398
v 656.2545 31.92222 -1047.68
v 590.8768 31.92222 -1065.27
v 535.1332 31.92222 -1081.688
v 510.5068 31.23434 -1090.469
v 481.2492 30.7658 -1099.461
v 476.8496 30.53998 -1100.741
v 472.5219 31.41566 -1101.24
v 474.5052 46.06445 -1094.503
v 478.2586 46.64917 -1090.928
v 468.2599 29.77449 -1100.931
v 472.2735 44.42327 -1094.35
v 484.9644 46.06445 -1085.728
v 488.3452 45.19399 -1085.505
v 499.5657 46.06704 -1072.95
v 501.3484 45.27711 -1073.682
v 511.86 46.07001 -1054.692
v 500.0071 45.36012 -1080.733
v 507.9406 42.88916 -1072.462
v 488.3452 45.19399 -1085.505
v 511.86 46.07001 -1054.692
v 514.2358 44.42883 -1054.855
v 516.8275 46.07001 -1041.77
v 507.9406 42.88916 -1072.462
v 519.2033 44.42883 -1041.933
v 521.5504 29.13802 -1053.858
v 528.1464 29.13802 -1040.713
v 523.0876 44.42883 -1021.611
v 507.9406 42.88916 -1072.462
v 521.0068 46.07001 -1021.158
v 521.5278 46.07001 -1001.563
v 523.9036 44.42883 -1001.726
v 528.1464 29.13802 -1040.713
v 520.4487 44.42883 -982.4298
v 513.3735 44.42883 -960.6102
v 500.6398 44.42883 -941.1428
v 510.6788 29.13802 -938.3798
v 518.2731 46.07001 -982.7199
v 511.3652 46.07001 -960.9832
v 497.8535 46.07001 -942.4482
v 493.733 46.07001 -938.806
v 510.6788 29.13802 -938.3798
v 529.3454 31.22404 -932.7562
v 571.762 31.22404 -921.7335
v 620.6943 31.22404 -902.8521
v 658.1503 31.22404 -882.4706
v 686.451 30.99182 -861.8011
v 510.6788 29.13802 -938.3798
v 507.3733 32.15316 -935.0574
v 686.4106 29.13802 -866.1137
v 686.451 30.99182 -861.8011
v 916.3777 30.99182 -861.8011
v 916.418 29.13802 -866.1137
v 944.6783 31.22404 -882.4706
v 982.1344 31.22404 -902.8521
v 1031.067 31.22404 -921.7335
v 1072.712 31.22404 -931.6539
v 1092.15 29.13802 -938.3798
v 1095.456 32.15316 -935.0574
v 916.3777 30.99182 -861.8011
v 1094.888 42.88916 -1072.462
v 1096.02 45.88313 -1077.81
v 1102.822 45.36012 -1080.733
v 1111.099 46.90908 -1086.793
v 1111.099 46.90908 -1086.793
v 1121.512 46.6856 -1090.699
v 1114.484 45.19399 -1085.505
v 1124.57 46.64917 -1090.928
v 1128.323 46.06445 -1094.503
v 1126.699 45.0876 -1090.736
v 1130.555 44.42327 -1094.35
v 1124.57 46.64917 -1090.928
v 1117.864 46.06445 -1085.728
v 1120.398 44.42327 -1085.691
v 1104.945 44.42597 -1072.269
v 1103.263 46.06704 -1072.95
v 1093.2 44.42883 -1054.539
v 1090.969 46.07001 -1054.692
v 1088.233 44.42883 -1041.617
v 1090.969 46.07001 -1054.692
v 1086.001 46.07001 -1041.77
v 1083.777 44.42883 -1020.732
v 1081.822 46.07001 -1021.158
v 1083.533 44.42883 -1001.41
v 1081.301 46.07001 -1001.563
v 1086.599 44.42883 -982.9924
v 1084.556 46.07001 -982.7199
v 1093.35 44.42883 -961.3335
v 1091.464 46.07001 -960.9832
v 1107.791 44.42883 -942.9487
v 1104.975 46.07001 -942.4482
v 1112.203 44.42883 -938.9097
v 1109.096 46.07001 -938.806
v 1109.096 46.07001 -938.806
v 1126.696 35.57742 -925.0863
v 1130.166 33.98176 -926.0318
v 1105.788 43.85141 -938.6956
v 1092.15 29.13802 -938.3798
v 1102.189 44.42883 -941.1428
v 1109.096 46.07001 -938.806
v 1126.696 35.57742 -925.0863
v 1122.913 33.94547 -926.9819
v 1098.453 29.13802 -932.0383
v 1095.456 32.15316 -935.0574
v 1074.481 29.13802 -929.0581
v 1072.712 31.22404 -931.6539
v 1031.067 31.22404 -921.7335
v 1032.144 29.13802 -918.5306
v 982.1344 31.22404 -902.8521
v 982.8389 29.13802 -899.7349
v 945.172 29.13802 -878.741
v 944.6783 31.22404 -882.4706
v 916.3777 30.99182 -861.8011
v 1095.456 32.15316 -935.0574
v 1092.15 29.13802 -938.3798
v 1105.788 43.85141 -938.6956
v 801.4144 46.571 -873.9691
v 893.1662 48.0655 -871.1918
v 801.4144 48.06549 -871.1918
v 891.0828 46.571 -873.9691
v 709.6625 48.0655 -871.1918
v 711.7458 46.571 -873.9691
v 801.4144 31.92222 -881.4736
v 891.0828 46.571 -873.9691
v 887.8483 31.92222 -881.4736
v 711.7458 46.571 -873.9691
v 714.9805 31.92222 -881.4736
v 906.8477 46.571 -996.9118
v 893.6556 48.06549 -987.7502
v 891.088 46.571 -988.5833
v 908.92 48.06549 -995.6255
v 893.6556 48.06549 -987.7502
v 894.6135 48.06549 -874.0807
v 893.6556 48.06549 -987.7502
v 908.92 48.06549 -995.6255
v 908.92 48.06549 -995.6255
v 896.8148 46.571 -986.725
v 893.6556 48.06549 -987.7502
v 891.088 46.571 -988.5833
v 891.0828 46.571 -873.9691
v 885.0016 31.92222 -990.6273
v 885.0016 31.92222 -990.6273
v 891.0828 46.571 -873.9691
v 887.8483 31.92222 -881.4736
v 711.7407 46.571 -988.5833
v 709.1731 48.06549 -987.7502
v 695.9811 46.571 -996.9118
v 693.9087 48.06549 -995.6255
v 478.2586 46.64917 -1090.928
v 477.4185 45.18877 -1094.229
v 481.317 46.6856 -1090.699
v 478.2586 46.64917 -1090.928
v 476.1292 45.08759 -1090.736
v 474.5052 46.06445 -1094.503
v 478.2586 46.64917 -1090.928
v 472.2735 44.42327 -1094.35
v 482.4305 44.42327 -1085.691
v 484.9644 46.06445 -1085.728
v 497.8835 44.42597 -1072.269
v 499.5657 46.06704 -1072.95
v 509.6283 44.42883 -1054.539
v 511.86 46.07001 -1054.692
v 478.2586 46.64917 -1090.928
v 511.86 46.07001 -1054.692
v 514.5957 44.42883 -1041.617
v 516.8275 46.07001 -1041.77
v 519.0523 44.42883 -1020.732
v 521.0068 46.07001 -1021.158
v 519.296 44.42883 -1001.41
v 521.5278 46.07001 -1001.563
v 516.2294 44.42883 -982.9924
v 518.2731 46.07001 -982.7199
v 509.4786 44.42883 -961.3335
v 511.3652 46.07001 -960.9832
v 495.0384 44.42883 -942.9487
v 497.8535 46.07001 -942.4482
v 490.6262 44.42883 -938.9097
v 493.733 46.07001 -938.806
v 476.1326 35.57742 -925.0863
v 493.733 46.07001 -938.806
v 472.6626 33.98176 -926.0318
v 693.9087 48.06549 -995.6255
v 709.1731 48.06549 -987.7502
v 708.2152 48.06549 -874.0807
v 709.1731 48.06549 -987.7502
v 709.1731 48.06549 -987.7502
v 706.0139 46.571 -986.725
v 693.9087 48.06549 -995.6255
v 521.5504 29.13802 -1053.858
v 545.3365 46.571 -1064.914
v 507.9406 42.88916 -1072.462
v 594.6047 46.571 -1050.07
v 506.8087 45.88313 -1077.81
v 507.9406 42.88916 -1072.462
v 500.0071 45.36012 -1080.733
v 491.73 46.90908 -1086.793
v 491.73 46.90908 -1086.793
v 481.317 46.6856 -1090.699
v 488.3452 45.19399 -1085.505
v 500.6398 44.42883 -941.1428
v 510.6788 29.13802 -938.3798
v 497.0403 43.85141 -938.6956
v 493.733 46.07001 -938.806
v 476.1326 35.57742 -925.0863
v 479.9158 33.94547 -926.9819
v 504.3763 29.13802 -932.0383
v 507.3733 32.15316 -935.0574
v 527.5764 29.13802 -930.1603
v 529.3454 31.22404 -932.7562
v 571.762 31.22404 -921.7335
v 570.6844 29.13802 -918.5306
v 620.6943 31.22404 -902.8521
v 619.9898 29.13802 -899.7349
v 657.6567 29.13802 -878.741
v 658.1503 31.22404 -882.4706
v 686.451 30.99182 -861.8011
v 497.0403 43.85141 -938.6956
v 510.6788 29.13802 -938.3798
v 507.3733 32.15316 -935.0574
v 714.9805 31.92222 -881.4736
v 711.7458 46.571 -873.9691
v 717.827 31.92222 -990.6273
v 717.827 31.92222 -990.6273
v 711.7458 46.571 -873.9691
v 711.7407 46.571 -988.5833
vt 0.692443 0.238922
vt 0.663529 0.232881
vt 0.678641 0.222446
vt 0.661023 0.209813
vt 0.639581 0.22052
vt 0.668262 0.396987
vt 0.668262 0.396987
vt 0.639789 0.385129
vt 0.640086 0.389074
vt 0.709066 0.367542
vt 0.745317 0.283045
vt 0.762942 0.338336
vt 0.821614 0.281316
vt 0.834517 0.310913
vt 0.893994 0.296894
vt 0.863286 0.274115
vt 0.904278 0.26402
vt 0.925376 0.291254
vt 0.894557 0.230014
vt 0.851067 0.239198
vt 0.812924 0.248708
vt 0.806693 0.222084
vt 0.845144 0.209587
vt 0.890506 0.200081
vt 0.842381 0.182344
vt 0.89131 0.171671
vt 0.847513 0.155102
vt 0.899819 0.14153
vt 0.854517 0.137955
vt 0.90947 0.122298
vt 0.794352 0.156286
vt 0.796496 0.168835
vt 0.800462 0.192627
vt 0.727137 0.177438
vt 0.728279 0.189846
vt 0.697055 0.187779
vt 0.707353 0.197348
vt 0.874668 0.106121
vt 0.929383 0.095078
vt 0.802584 0.127839
vt 0.720389 0.150188
vt 0.68614 0.162495
vt 0.685304 0.197649
vt 0.669505 0.174971
vt 0.680632 0.207035
vt 0.663486 0.190524
vt 0.662817 0.20701
vt 0.680175 0.219647
vt 0.699179 0.204922
vt 0.69375 0.213971
vt 0.729558 0.204469
vt 0.731862 0.220579
vt 0.736128 0.240831
vt 0.659008 0.204796
vt 0.657292 0.207497
vt 0.657292 0.207497
vt 0.655911 0.202996
vt 0.65426 0.205615
vt 0.649576 0.198384
vt 0.647924 0.201003
vt 0.631202 0.217801
vt 0.622297 0.21481
vt 0.650297 0.180576
vt 0.656633 0.185188
vt 0.659705 0.18758
vt 0.659008 0.204796
vt 0.655535 0.163138
vt 0.663031 0.168658
vt 0.659705 0.18758
vt 0.665934 0.171489
vt 0.680713 0.155397
vt 0.683146 0.158579
vt 0.717117 0.142316
vt 0.718584 0.145846
vt 0.804483 0.11856
vt 0.803632 0.12272
vt 0.881103 0.095476
vt 0.878218 0.100249
vt 0.929782 0.079089
vt 0.930345 0.082749
vt 0.953101 0.07411
vt 0.962374 0.067067
vt 0.968336 0.068395
vt 0.97404 0.06323
vt 0.889597 0.081579
vt 0.925628 0.068731
vt 0.968435 0.055575
vt 0.974872 0.053702
vt 0.981204 0.052973
vt 0.978302 0.062829
vt 0.972811 0.06806
vt 0.98744 0.053425
vt 0.981568 0.063053
vt 0.659705 0.18758
vt 0.659008 0.204796
vt 0.808038 0.1056
vt 0.712384 0.131336
vt 0.67369 0.146379
vt 0.958053 0.075995
vt 0.962999 0.075668
vt 0.941636 0.094363
vt 0.968336 0.068395
vt 0.972811 0.06806
vt 0.97404 0.06323
vt 0.972811 0.06806
vt 0.939028 0.093292
vt 0.94099 0.082976
vt 0.958053 0.075995
vt 0.923648 0.121076
vt 0.929383 0.095078
vt 0.920172 0.120838
vt 0.929383 0.095078
vt 0.923648 0.121076
vt 0.91638 0.139983
vt 0.912904 0.139744
vt 0.910266 0.170141
vt 0.90947 0.122298
vt 0.899819 0.14153
vt 0.907221 0.169478
vt 0.929383 0.095078
vt 0.909503 0.198811
vt 0.906027 0.198572
vt 0.899819 0.14153
vt 0.911082 0.226804
vt 0.921434 0.258728
vt 0.940065 0.287211
vt 0.925376 0.291254
vt 0.914265 0.22638
vt 0.924372 0.258183
vt 0.944141 0.285301
vt 0.95017 0.29063
vt 0.668203 0.403296
vt 0.668262 0.396987
vt 0.668203 0.403296
vt 0.667979 0.409798
vt 0.636655 0.392773
vt 0.5 0.392773
vt 0.5 0.389557
vt 0.634243 0.389557
vt 0.5 0.409807
vt 0.636209 0.387501
vt 0.634243 0.389557
vt 0.631194 0.385493
vt 0.63636 0.38533
vt 0.631194 0.385493
vt 0.631202 0.217801
vt 0.363345 0.392773
vt 0.332021 0.409798
vt 0.359914 0.389074
vt 0.331797 0.403296
vt 0.365758 0.389557
vt 0.363791 0.387501
vt 0.36364 0.38533
vt 0.368806 0.385493
vt 0.368798 0.217801
vt 0.365758 0.389557
vt 0.368806 0.385493
vt 0.634959 0.21902
vt 0.63636 0.38533
vt 0.36364 0.38533
vt 0.365041 0.21902
vt 0.331738 0.396987
vt 0.331797 0.403296
vt 0.360212 0.385129
vt 0.331738 0.396987
vt 0.360419 0.22052
vt 0.336471 0.232881
vt 0.338977 0.209813
vt 0.321359 0.222446
vt 0.307557 0.238922
vt 0.331738 0.396987
vt 0.290934 0.367542
vt 0.254683 0.283045
vt 0.237058 0.338336
vt 0.178386 0.281316
vt 0.165483 0.310913
vt 0.104878 0.295281
vt 0.136714 0.274115
vt 0.095722 0.26402
vt 0.105443 0.230014
vt 0.148933 0.239198
vt 0.154856 0.209587
vt 0.109494 0.200081
vt 0.157619 0.182344
vt 0.10869 0.171671
vt 0.152487 0.155102
vt 0.100181 0.14153
vt 0.145483 0.137955
vt 0.205648 0.156286
vt 0.203504 0.168835
vt 0.272863 0.177438
vt 0.271721 0.189846
vt 0.302945 0.187779
vt 0.279611 0.150188
vt 0.31386 0.162495
vt 0.281416 0.145846
vt 0.196368 0.12272
vt 0.195517 0.11856
vt 0.282883 0.142316
vt 0.316854 0.158579
vt 0.319287 0.155397
vt 0.334066 0.171489
vt 0.336969 0.168658
vt 0.340295 0.18758
vt 0.343367 0.185188
vt 0.118897 0.095476
vt 0.121782 0.100249
vt 0.070218 0.079089
vt 0.069655 0.082749
vt 0.0469 0.07411
vt 0.037626 0.067067
vt 0.031664 0.068395
vt 0.02596 0.06323
vt 0.336515 0.190524
vt 0.330495 0.174971
vt 0.319368 0.207035
vt 0.314696 0.197649
vt 0.292647 0.197348
vt 0.270442 0.204469
vt 0.199539 0.192627
vt 0.268138 0.220579
vt 0.193307 0.222084
vt 0.187076 0.248708
vt 0.263872 0.240831
vt 0.306251 0.213971
vt 0.319824 0.219647
vt 0.337183 0.20701
vt 0.300821 0.204922
vt 0.340992 0.204796
vt 0.342708 0.207497
vt 0.340295 0.18758
vt 0.340992 0.204796
vt 0.344089 0.202996
vt 0.342708 0.207497
vt 0.34574 0.205615
vt 0.350424 0.198384
vt 0.352076 0.201003
vt 0.368798 0.217801
vt 0.377703 0.21481
vt 0.349703 0.180576
vt 0.340295 0.18758
vt 0.340992 0.204796
vt 0.344465 0.163138
vt 0.32631 0.146379
vt 0.287616 0.131336
vt 0.191962 0.1056
vt 0.110403 0.081579
vt 0.074372 0.068731
vt 0.031565 0.055575
vt 0.025128 0.053702
vt 0.018796 0.052973
vt 0.021698 0.062829
vt 0.027189 0.06806
vt 0.01256 0.053425
vt 0.018433 0.063053
vt 0.037001 0.075668
vt 0.041947 0.075995
vt 0.058364 0.094363
vt 0.060972 0.093292
vt 0.076352 0.121076
vt 0.05901 0.082976
vt 0.070617 0.095078
vt 0.041947 0.075995
vt 0.076352 0.121076
vt 0.079828 0.120838
vt 0.08362 0.139983
vt 0.070617 0.095078
vt 0.087096 0.139744
vt 0.09053 0.122298
vt 0.100181 0.14153
vt 0.092779 0.169478
vt 0.070617 0.095078
vt 0.089735 0.170141
vt 0.090497 0.198811
vt 0.093973 0.198572
vt 0.100181 0.14153
vt 0.088918 0.226804
vt 0.078566 0.258728
vt 0.059936 0.287211
vt 0.074624 0.291254
vt 0.085735 0.22638
vt 0.075628 0.258183
vt 0.055859 0.285301
vt 0.04983 0.29063
vt 0.074624 0.291254
vt 0.101935 0.299482
vt 0.163995 0.315609
vt 0.235588 0.343235
vt 0.29039 0.373055
vt 0.331797 0.403296
vt 0.074624 0.291254
vt 0.069787 0.296115
vt 0.331738 0.396987
vt 0.331797 0.403296
vt 0.668203 0.403296
vt 0.668262 0.396987
vt 0.70961 0.373055
vt 0.764412 0.343235
vt 0.836006 0.315609
vt 0.896937 0.301094
vt 0.925376 0.291254
vt 0.930213 0.296115
vt 0.668203 0.403296
vt 0.929383 0.095078
vt 0.931039 0.087253
vt 0.94099 0.082976
vt 0.953101 0.07411
vt 0.953101 0.07411
vt 0.968336 0.068395
vt 0.958053 0.075995
vt 0.972811 0.06806
vt 0.978302 0.062829
vt 0.975926 0.068342
vt 0.981568 0.063053
vt 0.972811 0.06806
vt 0.962999 0.075668
vt 0.966707 0.075722
vt 0.944097 0.09536
vt 0.941636 0.094363
vt 0.926913 0.121301
vt 0.923648 0.121076
vt 0.919645 0.140207
vt 0.923648 0.121076
vt 0.91638 0.139983
vt 0.913125 0.170764
vt 0.910266 0.170141
vt 0.912769 0.199035
vt 0.909503 0.198811
vt 0.917255 0.225981
vt 0.914265 0.22638
vt 0.927132 0.25767
vt 0.924372 0.258183
vt 0.94826 0.284569
vt 0.944141 0.285301
vt 0.954716 0.290478
vt 0.95017 0.29063
vt 0.95017 0.29063
vt 0.975921 0.310704
vt 0.980998 0.30932
vt 0.945331 0.290792
vt 0.925376 0.291254
vt 0.940065 0.287211
vt 0.95017 0.29063
vt 0.975921 0.310704
vt 0.970386 0.30793
vt 0.934598 0.300532
vt 0.930213 0.296115
vt 0.899525 0.304892
vt 0.896937 0.301094
vt 0.836006 0.315609
vt 0.837582 0.320295
vt 0.764412 0.343235
vt 0.765443 0.347795
vt 0.710333 0.378512
vt 0.70961 0.373055
vt 0.668203 0.403296
vt 0.930213 0.296115
vt 0.925376 0.291254
vt 0.945331 0.290792
vt 0.5 0.385493
vt 0.634243 0.389557
vt 0.5 0.389557
vt 0.631194 0.385493
vt 0.365758 0.389557
vt 0.368806 0.385493
vt 0.5 0.374514
vt 0.631194 0.385493
vt 0.626462 0.374514
vt 0.368806 0.385493
vt 0.373538 0.374514
vt 0.65426 0.205615
vt 0.634959 0.21902
vt 0.631202 0.217801
vt 0.657292 0.207497
vt 0.634959 0.21902
vt 0.63636 0.38533
vt 0.634959 0.21902
vt 0.657292 0.207497
vt 0.657292 0.207497
vt 0.639581 0.22052
vt 0.634959 0.21902
vt 0.631202 0.217801
vt 0.631194 0.385493
vt 0.622297 0.21481
vt 0.622297 0.21481
vt 0.631194 0.385493
vt 0.626462 0.374514
vt 0.368798 0.217801
vt 0.365041 0.21902
vt 0.34574 0.205615
vt 0.342708 0.207497
vt 0.027189 0.06806
vt 0.02596 0.06323
vt 0.031664 0.068395
vt 0.027189 0.06806
vt 0.024074 0.068342
vt 0.021698 0.062829
vt 0.027189 0.06806
vt 0.018433 0.063053
vt 0.033293 0.075722
vt 0.037001 0.075668
vt 0.055903 0.09536
vt 0.058364 0.094363
vt 0.073087 0.121301
vt 0.076352 0.121076
vt 0.027189 0.06806
vt 0.076352 0.121076
vt 0.080354 0.140207
vt 0.08362 0.139983
vt 0.086875 0.170764
vt 0.089735 0.170141
vt 0.087231 0.199035
vt 0.090497 0.198811
vt 0.082745 0.225981
vt 0.085735 0.22638
vt 0.072868 0.25767
vt 0.075628 0.258183
vt 0.05174 0.284569
vt 0.055859 0.285301
vt 0.045285 0.290478
vt 0.04983 0.29063
vt 0.024079 0.310704
vt 0.04983 0.29063
vt 0.019002 0.30932
vt 0.342708 0.207497
vt 0.365041 0.21902
vt 0.36364 0.38533
vt 0.365041 0.21902
vt 0.365041 0.21902
vt 0.360419 0.22052
vt 0.342708 0.207497
vt 0.09053 0.122298
vt 0.125331 0.106121
vt 0.070617 0.095078
vt 0.197416 0.127839
vt 0.068961 0.087253
vt 0.070617 0.095078
vt 0.05901 0.082976
vt 0.0469 0.07411
vt 0.0469 0.07411
vt 0.031664 0.068395
vt 0.041947 0.075995
vt 0.059936 0.287211
vt 0.074624 0.291254
vt 0.054669 0.290792
vt 0.04983 0.29063
vt 0.024079 0.310704
vt 0.029614 0.30793
vt 0.065402 0.300532
vt 0.069787 0.296115
vt 0.099347 0.30328
vt 0.101935 0.299482
vt 0.163995 0.315609
vt 0.162418 0.320295
vt 0.235588 0.343235
vt 0.234557 0.347795
vt 0.289668 0.378512
vt 0.29039 0.373055
vt 0.331797 0.403296
vt 0.054669 0.290792
vt 0.074624 0.291254
vt 0.069787 0.296115
vt 0.373538 0.374514
vt 0.368806 0.385493
vt 0.377703 0.21481
vt 0.377703 0.21481
vt 0.368806 0.385493
vt 0.368798 0.217801
vn 0 1 0
vn 0.3425881 0.8923177 0.293943
vn 0.3891729 0.8657242 0.3147476
vn 0.4131839 0.7868827 0.4583609
vn 0.470921 0.8356186 0.2827984
vn 0.4961034 0.8659253 -0.06367814
vn 0.3970012 0.91027 -0.1174673
vn 0.5731443 0.8192196 -0.01961938
vn 0.542039 0.8329643 0.1111938
vn -0.1458247 0.9647855 -0.2189157
vn 0 1 0
vn -0.1285126 0.9517453 -0.2786851
vn 0 1 0
vn -0.09033675 0.9437352 -0.3181245
vn -0.03818382 0.9821523 -0.1841709
vn 0 1 0
vn -0.3903305 0.8943321 0.21866
vn -0.3850636 0.9148656 -0.1214376
vn -0.3663689 0.9260657 0.09042202
vn 0 1 0
vn 0 1 0
vn 0 1 0
vn 0 1 0
vn -0.4547122 0.8896035 0.04292362
vn 0 1 0
vn -0.4607676 0.8859046 -0.05353576
vn 0 1 0
vn -0.2204861 0.9734019 -0.06224724
vn 0.08765377 0.9507509 0.2973036
vn 0.1435009 0.8618719 0.4863993
vn 0.1144364 0.9207869 0.3729018
vn 0 1 0
vn 0 1 0
vn 0.1097388 0.9287866 0.3539956
vn 0 1 0
vn 0.1608996 0.9319557 0.3249152
vn 0 1 0
vn 0.1825768 0.8016816 0.5691856
vn 0.08804729 0.8914998 0.4443825
vn 0.1619959 0.819313 0.5499851
vn 0.1671353 0.8313403 0.5300369
vn 0.2734981 0.8332368 0.4805364
vn 0.2714296 0.9287564 0.252463
vn 0.4551875 0.825481 0.3337447
vn 0.476467 0.8729089 0.1049248
vn 0.5803645 0.8037102 0.1312516
vn 0.6382084 0.7516831 0.1663202
vn 0.332611 0.9388721 0.08882082
vn 0 1 0
vn 0 1 0
vn 0 1 0
vn 0 1 0
vn 0 1 0
vn 0.05334646 0.9975576 0.04508894
vn -0.05870455 0.9981157 0.01785895
vn -0.1262468 0.9880297 -0.08865216
vn -0.7289281 0.6598198 -0.1824877
vn -0.5419331 0.6186562 -0.5688347
vn -0.8722466 0.3346052 -0.3566867
vn -0.5788196 0.3285376 -0.746345
vn -0.5937679 0.5055736 -0.6259671
vn -0.7851034 0.3929935 -0.4787156
vn -0.9452227 0.3046483 -0.1172318
vn -0.8000673 0.5720643 -0.1806509
vn -0.3648691 0.9293939 -0.0556549
vn -0.07381864 0.9959848 0.05064816
vn -0.8161696 0.3774616 -0.4374813
vn -0.5786762 0.6871046 -0.4393415
vn -0.1154366 0.9926739 -0.03567791
vn -0.0001620191 0.9982727 -0.05875111
vn -0.3302942 0.7049772 -0.6276247
vn 0.001079419 0.9987024 -0.05091574
vn -0.2114468 0.7007881 -0.6813121
vn -0.006283279 0.9990626 -0.04283165
vn -0.1986714 0.6926376 -0.6933851
vn -0.01427256 0.9990495 -0.04118646
vn -0.2189042 0.6846979 -0.6951762
vn -0.005633823 0.9992219 -0.03903718
vn -0.2166055 0.7082058 -0.6719573
vn 0.04282078 0.9972212 0.06096023
vn -0.08152264 0.9551395 -0.2847151
vn -0.226956 0.6549636 -0.720773
vn -0.0784498 0.953401 -0.2913285
vn -0.1994223 0.6658561 -0.7189342
vn -0.266068 0.4530664 -0.8508458
vn -0.273366 0.4526937 -0.8487281
vn -0.2680915 0.4155897 -0.8691445
vn -0.2330129 0.3939649 -0.8890988
vn -0.05264582 0.4124236 -0.9094698
vn 0.03488794 0.5763292 -0.8164725
vn -0.1428445 0.9687181 -0.2029307
vn 0.3140744 0.4502156 -0.8358607
vn 0.3958088 0.4643563 -0.7922806
vn 0.09909202 0.9943245 -0.03872329
vn 0.2213904 0.9732969 0.06065739
vn -0.2358885 0.4763457 -0.847025
vn -0.282132 0.4753527 -0.8333316
vn -0.4973634 0.4440277 -0.745298
vn -0.08970314 0.9959167 0.0101734
vn -0.2568538 0.9309279 -0.2596141
vn -0.2845273 0.9188883 -0.2732923
vn 0.02813784 0.9995669 -0.00861606
vn 0.0791251 0.9953865 0.05426651
vn -0.1994223 0.6658561 -0.7189342
vn -0.00544966 0.9968765 -0.07878824
vn -0.3096675 0.9321924 -0.1874123
vn 0.1284323 0.9145736 0.3834845
vn -0.1528195 0.9828895 -0.1028327
vn -0.06111392 0.9952837 -0.07533626
vn -0.1871485 0.9556617 0.2273462
vn -0.6430354 0.7119274 -0.2822497
vn -0.2723722 0.9566836 0.102811
vn -0.4668491 0.8478495 -0.2514024
vn -0.5510158 0.8153099 -0.1779084
vn -0.7286922 0.6449565 -0.2303019
vn -0.5929211 0.801115 -0.08160408
vn -0.8409225 0.4054849 -0.3583731
vn -0.8269754 0.495107 -0.2664219
vn -0.7241151 0.6826338 -0.0983277
vn -0.5628475 0.7975993 -0.216883
vn -0.5859064 0.8101407 0.01963932
vn -0.7078686 0.7048715 0.04558763
vn -0.4766717 0.8655642 -0.1535666
vn -0.696023 0.6986638 0.1655923
vn -0.6290348 0.719116 0.2952749
vn -0.5027102 0.6817439 0.5315146
vn -0.5257791 0.7517982 0.3979395
vn -0.5792587 0.804841 0.1291907
vn -0.5738333 0.7773696 0.2577048
vn -0.425466 0.8365759 0.3451366
vn -0.160425 0.8154715 0.5561205
vn 0.3369397 0.9345724 0.1142194
vn 0.3970012 0.91027 -0.1174673
vn 0.4656212 0.8533237 0.2345965
vn 0.2522126 0.7635082 0.5945116
vn 0.1984068 0.8272918 0.5255691
vn 0 0.6548452 0.7557629
vn 0 0.8269882 0.5622193
vn 0.02223861 0.9729154 0.2300891
vn 0 0.5495798 0.8354412
vn 0.1126296 0.9897611 0.08767896
vn 0.01362818 0.9971111 -0.07472374
vn -0.3375273 0.8357074 -0.433207
vn 0.05108272 0.9986732 -0.006520269
vn -0.5692793 0.809422 -0.1440728
vn -0.5729496 0.8064731 -0.1460478
vn -0.1984062 0.8272899 0.5255724
vn -0.252211 0.7635084 0.594512
vn -0.5420364 0.8329661 0.111193
vn -0.4656212 0.8533239 0.234596
vn -0.02224241 0.9729146 0.2300923
vn -0.1126266 0.9897612 0.08768211
vn -0.0510772 0.9986734 -0.006522734
vn 0.5692813 0.8094209 -0.1440717
vn 0.5729542 0.8064696 -0.1460488
vn -0.01363051 0.9971112 -0.07472223
vn 0.3375304 0.8357067 -0.4332061
vn -0.08956894 0.9867787 -0.135074
vn -0.2189757 0.9757261 0.002868039
vn 0.2189835 0.9757244 0.002867798
vn 0.08957198 0.9867784 -0.1350752
vn -0.3970013 0.9102699 -0.117469
vn -0.3369394 0.9345726 0.1142185
vn -0.5731444 0.8192194 -0.01962489
vn -0.4961037 0.865925 -0.06367949
vn -0.4709212 0.8356185 0.2827983
vn -0.3425879 0.8923177 0.2939436
vn -0.4131826 0.786881 0.4583649
vn -0.3891715 0.8657247 0.3147479
vn 0 1 0
vn -0.3970013 0.9102699 -0.117469
vn 0.1458244 0.9647857 -0.2189151
vn 0 1 0
vn 0.1285125 0.9517453 -0.278685
vn 0 1 0
vn 0.09457537 0.943961 -0.3162171
vn 0.03589939 0.982005 -0.1854113
vn 0 1 0
vn 0.3903304 0.8943326 0.218658
vn 0.3663682 0.9260659 0.09042259
vn 0 1 0
vn 0 1 0
vn 0.4547106 0.8896044 0.04292388
vn 0 1 0
vn 0.4607675 0.8859047 -0.05353625
vn 0 1 0
vn 0.2204865 0.9734017 -0.06224865
vn -0.08765387 0.9507509 0.2973037
vn -0.1144365 0.9207869 0.3729018
vn 0 1 0
vn -0.1097388 0.9287867 0.3539954
vn 0 1 0
vn -0.1608992 0.9319557 0.3249153
vn -0.1671354 0.8313404 0.5300367
vn -0.2734974 0.8332373 0.4805359
vn 0.006283265 0.9990626 -0.04283161
vn 0.01427189 0.9990496 -0.04118414
vn 0.1986715 0.6926379 -0.6933847
vn 0.2114469 0.7007881 -0.6813121
vn -0.00107845 0.9987023 -0.05091717
vn 0.3302939 0.7049776 -0.6276245
vn 0.000163797 0.9982727 -0.05875169
vn 0.5786754 0.6871055 -0.439341
vn 0.1154324 0.9926744 -0.03567718
vn 0.8000678 0.5720644 -0.1806483
vn 0.2189035 0.6846998 -0.6951743
vn 0.005632204 0.999222 -0.0390322
vn 0.2166048 0.708208 -0.6719551
vn -0.04282251 0.9972209 0.06096486
vn 0.08152109 0.9551408 -0.2847109
vn 0.2269541 0.6549644 -0.7207729
vn 0.0784498 0.9534011 -0.2913276
vn 0.199418 0.6658589 -0.7189329
vn -0.5803628 0.8037114 0.1312522
vn -0.4551855 0.8254822 0.3337445
vn -0.4764669 0.8729089 0.1049245
vn -0.2714294 0.9287562 0.2524635
vn 0 1 0
vn 0 1 0
vn 0 1 0
vn 0 1 0
vn 0 1 0
vn 0 1 0
vn 0 1 0
vn 0 1 0
vn -0.3326107 0.9388723 0.08881939
vn -0.638212 0.7516803 0.1663194
vn 0 1 0
vn -0.05335711 0.9975569 0.04509115
vn 0.05870158 0.9981159 0.01785704
vn -0.0990966 0.9943241 -0.03872434
vn -0.2214011 0.9732945 0.06065835
vn 0.7289231 0.6598238 -0.1824933
vn 0.1262432 0.9880299 -0.08865434
vn 0.5419278 0.6186546 -0.5688416
vn 0.872241 0.3346076 -0.3566981
vn 0.5788168 0.3285373 -0.7463474
vn 0.593769 0.5055722 -0.6259674
vn 0.7851038 0.3929936 -0.478715
vn 0.945223 0.3046491 -0.1172287
vn 0.3648675 0.9293947 -0.05565292
vn 0.07381085 0.9959852 0.05065209
vn 0.8161697 0.3774634 -0.4374796
vn 0.4973627 0.4440294 -0.7452974
vn 0.2821317 0.475353 -0.8333315
vn 0.2358887 0.4763452 -0.8470253
vn 0.266068 0.4530657 -0.8508462
vn 0.2733663 0.4526919 -0.848729
vn 0.2680881 0.4155896 -0.8691456
vn 0.2330096 0.3939631 -0.8891004
vn 0.05263767 0.4124235 -0.9094703
vn -0.03490146 0.576335 -0.8164679
vn 0.1428395 0.96872 -0.2029248
vn -0.3140859 0.4502163 -0.835856
vn -0.3958201 0.4643561 -0.7922752
vn 0.2568505 0.9309301 -0.2596091
vn 0.08970284 0.9959167 0.01017314
vn 0.2845241 0.9188902 -0.2732888
vn 0.3096637 0.9321944 -0.1874093
vn 0.06111391 0.9952837 -0.07533603
vn -0.1284315 0.9145744 0.3834827
vn 0.1871468 0.955662 0.2273463
vn 0.152818 0.98289 -0.1028305
vn 0.4668415 0.8478543 -0.2514002
vn 0.6430299 0.7119323 -0.2822496
vn 0.5510063 0.8153165 -0.1779071
vn 0.2723699 0.9566841 0.1028112
vn 0.7286875 0.6449618 -0.2303016
vn 0.8409225 0.4054853 -0.3583727
vn 0.8269777 0.4951027 -0.2664227
vn 0.7241113 0.6826379 -0.0983277
vn 0.5628447 0.7976019 -0.2168805
vn 0.5929031 0.8011284 -0.08160307
vn 0.5859053 0.8101414 0.01964169
vn 0.707869 0.7048709 0.04558904
vn 0.4766738 0.8655629 -0.1535673
vn 0.6960231 0.6986634 0.1655935
vn 0.6290401 0.719111 0.2952758
vn 0.5027052 0.681748 0.5315139
vn 0.5257799 0.7517994 0.397936
vn 0.5792553 0.8048436 0.1291896
vn 0.5738458 0.7773582 0.2577115
vn 0.4254664 0.8365759 0.3451366
vn 0.1604167 0.815475 0.5561178
vn 0.3761652 0.9175155 -0.1290932
vn 0.1095285 0.8281417 -0.5497135
vn 0.1687776 0.8528558 -0.4941165
vn 0.2169748 0.8564237 -0.468466
vn 0.2725116 0.8516747 -0.4476467
vn 0.2998132 0.8623225 -0.4080588
vn 0.2516554 0.9215144 -0.2957717
vn 0.471155 0.8337479 -0.2878844
vn -0.1128986 0.9767128 -0.1824444
vn -0.1085258 0.9709675 -0.2131765
vn 0.1085264 0.9709671 -0.2131785
vn 0.1128992 0.9767124 -0.1824459
vn -0.2725131 0.8516731 -0.4476489
vn -0.2169746 0.8564237 -0.4684661
vn -0.1653621 0.852887 -0.4952163
vn -0.1163128 0.830703 -0.5444298
vn -0.2637736 0.9210904 -0.286384
vn -0.48109 0.8319695 -0.276368
vn -0.2998134 0.8623223 -0.408059
vn -0.009415514 0.9464884 0.3226004
vn 0.2270121 0.8376859 0.4967372
vn 0.1284323 0.9145736 0.3834845
vn 0.2378776 0.8251607 0.5123711
vn 0.04535945 0.9988475 0.01569165
vn 0.1243426 0.9573675 0.2607421
vn -0.04778196 0.9957187 0.07912843
vn 0.2700135 0.9246143 0.2686659
vn 0.5163809 0.7482189 0.4165566
vn 0.4735108 0.7098576 0.5214304
vn 0.5196352 0.7455632 0.4172707
vn 0.3372699 0.8155029 0.4703233
vn 0.4439982 0.6866763 0.5756226
vn 0.4402239 0.692646 0.5713534
vn 0.4990109 0.7211689 0.4805243
vn 0.5257225 0.7366222 0.4254453
vn 0.5582971 0.7659074 0.318889
vn 0.5590508 0.7850861 0.2666495
vn 0.5735933 0.7974477 0.1872647
vn 0.3770382 0.9118721 0.1622698
vn 0.5915421 0.790947 0.1564631
vn 0.6165115 0.7826021 0.08629914
vn 0.6195424 0.7833662 0.05004708
vn 0.6102637 0.7918018 -0.02506574
vn 0.6008362 0.796872 -0.06317274
vn 0.6030852 0.7868895 -0.1307413
vn 0.6125745 0.7732679 -0.1637349
vn 0.5936126 0.7569678 -0.2731735
vn 0.5392024 0.7800742 -0.3174036
vn 0.461154 0.7947234 -0.394654
vn 0.412289 0.817164 -0.4028158
vn 0.4435749 0.8772817 -0.1833527
vn 0.4525498 0.8692684 -0.1989248
vn 0.2075351 0.9782244 -0.002494233
vn 0.4538861 0.8863344 0.09164488
vn 0.4397816 0.891384 0.1096665
vn -0.443948 0.5135951 0.7342548
vn -0.6502424 0.5787768 0.4921404
vn -0.5027102 0.6817439 0.5315146
vn -0.3534107 0.6787827 0.6437041
vn -0.4145603 0.340526 0.8439087
vn -0.3906299 0.3374727 0.8564581
vn -0.1648925 0.6018348 0.7814125
vn -0.2453801 0.7577762 0.6046188
vn 0.1005379 0.8039761 0.5861011
vn 0.09592756 0.8067988 0.5829869
vn 0.1503251 0.8394986 0.5221538
vn 0.1708852 0.8457192 0.5055267
vn 0.2260383 0.8438453 0.4866536
vn 0.2351757 0.8314954 0.5032969
vn 0.2769147 0.8551512 0.4382175
vn 0.2767562 0.8538169 0.4409112
vn 0.3369397 0.9345724 0.1142194
vn -0.2521252 0.8828577 0.3962264
vn -0.4351668 0.8986317 0.05559648
vn -0.443948 0.5135951 0.7342548
vn 0 0.7699063 -0.6381568
vn 0.01634098 0.9698775 -0.2430446
vn 0 0.8805987 -0.4738628
vn -0.20068 0.8540005 -0.4800111
vn -0.01634378 0.9698777 -0.2430432
vn 0.2006836 0.8540001 -0.4800103
vn 0 0.4559443 -0.8900083
vn -0.07773927 0.7285975 -0.6805161
vn 0 0.4559443 -0.8900083
vn 0.07774129 0.7285982 -0.6805152
vn 0 0.4559443 -0.8900083
vn -0.5419331 0.6186562 -0.5688347
vn -0.02085035 0.9697506 -0.243206
vn -0.5804343 0.6923379 -0.4286774
vn -0.2145307 0.9487306 -0.2321354
vn 0.1535886 0.9786394 -0.1366582
vn 0.1729773 0.9848878 -0.008641126
vn 0.03034965 0.9929979 -0.1141673
vn -0.008017544 0.9901587 0.1397189
vn 0.2847278 0.8748282 0.3919257
vn 0.470921 0.8356186 0.2827984
vn 0.1985409 0.9709736 0.1333857
vn -0.5804343 0.6923379 -0.4286774
vn -0.6629214 0.7461127 -0.06205717
vn -0.8899254 0.3369996 -0.3073502
vn -0.9554997 0.2947142 0.01280114
vn -0.7414154 0.6710462 -0.0004941743
vn -0.9788342 0.2030565 0.025527
vn 0.5804375 0.6923351 -0.4286774
vn 0.02085321 0.9697501 -0.2432074
vn 0.5419278 0.6186546 -0.5688416
vn 0.2145263 0.9487309 -0.2321379
vn 0.005446124 0.9968768 -0.07878472
vn 0.199418 0.6658589 -0.7189329
vn -0.02813668 0.999567 -0.008617588
vn -0.07912744 0.9953863 0.05426812
vn -0.4735167 0.7098504 0.5214349
vn -0.5163856 0.7482184 0.4165516
vn -0.2700118 0.9246157 0.2686619
vn -0.5196465 0.7455572 0.4172672
vn -0.4402412 0.6926144 0.5713782
vn -0.4440093 0.686657 0.575637
vn -0.4990283 0.7211473 0.4805386
vn -0.5257316 0.7366115 0.4254525
vn -0.5583006 0.7659041 0.3188909
vn -0.5590413 0.7850939 0.2666464
vn -0.3372681 0.8155064 0.4703185
vn -0.37703 0.911876 0.1622671
vn -0.573578 0.7974589 0.1872633
vn -0.59154 0.7909482 0.1564652
vn -0.616528 0.7825887 0.0863023
vn -0.6195691 0.7833449 0.05004956
vn -0.6102828 0.7917869 -0.02506681
vn -0.6008505 0.7968611 -0.06317585
vn -0.6031026 0.7868749 -0.1307477
vn -0.6125832 0.7732607 -0.163737
vn -0.5936103 0.7569715 -0.2731683
vn -0.5391977 0.7800791 -0.3173993
vn -0.4611571 0.7947178 -0.3946615
vn -0.4122965 0.8171527 -0.4028311
vn -0.4435794 0.877277 -0.1833639
vn -0.4525525 0.8692654 -0.1989315
vn -0.4538891 0.8863332 0.09164079
vn -0.2075409 0.9782231 -0.002501764
vn -0.4397842 0.8913832 0.1096633
vn 0.008014094 0.9901591 0.1397165
vn -0.03034729 0.9929978 -0.1141683
vn -0.1729729 0.9848887 -0.008644047
vn -0.153588 0.9786394 -0.1366593
vn -0.1985387 0.970974 0.133386
vn -0.4709212 0.8356185 0.2827983
vn -0.2847237 0.874827 0.3919311
vn -0.143501 0.8618717 0.4863995
vn -0.1825771 0.8016812 0.5691862
vn -0.08804769 0.8914998 0.4443825
vn -0.161996 0.8193128 0.5499853
vn -0.2270122 0.837686 0.4967369
vn 0.00941435 0.9464884 0.3226007
vn -0.1284315 0.9145744 0.3834827
vn -0.2378784 0.8251597 0.5123722
vn -0.04536069 0.9988474 0.01569475
vn -0.1243407 0.9573688 0.2607383
vn 0.04778227 0.9957188 0.07912707
vn 0.5027052 0.681748 0.5315139
vn 0.6502443 0.5787777 0.4921368
vn 0.4439456 0.5135985 0.7342541
vn 0.3534022 0.6787881 0.6437032
vn 0.414557 0.3405308 0.8439083
vn 0.3906274 0.3374757 0.856458
vn 0.173679 0.5958455 0.7840943
vn 0.2592335 0.7491351 0.6095856
vn -0.09230909 0.8008876 0.591657
vn -0.08809939 0.804923 0.5868027
vn -0.1571923 0.8401281 0.5191101
vn -0.1741776 0.8457148 0.5044091
vn -0.2260373 0.8438471 0.486651
vn -0.2351743 0.8314976 0.5032941
vn -0.2769136 0.8551524 0.4382159
vn -0.2767561 0.8538169 0.4409113
vn -0.3369394 0.9345726 0.1142185
vn 0.4439456 0.5135985 0.7342541
vn 0.4282866 0.9022594 0.04998512
vn 0.2603817 0.8785807 0.4003715
vn 0.9788325 0.2030648 0.02552586
vn 0.741416 0.6710454 -0.0004945995
vn 0.9554985 0.2947184 0.01280056
vn 0.8899243 0.3370025 -0.3073501
vn 0.6629233 0.7461112 -0.06205605
vn 0.5804375 0.6923351 -0.4286774
g EnemyTray_0
f 3/3/3 2/2/2 1/1/1
f 4/4/4 2/2/2 3/3/3
f 5/5/5 2/2/2 4/4/4
f 2/2/2 5/5/5 6/6/6
f 2/2/2 7/7/7 1/1/1
f 6/6/6 5/5/5 8/8/8
f 8/8/8 9/9/9 6/6/6
f 1/1/1 7/7/7 10/10/10
f 1/1/1 10/10/10 11/11/11
f 11/11/11 10/10/10 12/12/12
f 11/11/11 12/12/12 13/13/13
f 13/13/13 12/12/12 14/14/14
f 14/14/14 15/15/15 13/13/13
f 13/13/13 15/15/15 16/16/16
f 15/15/15 17/17/17 16/16/16
f 18/18/18 17/17/17 15/15/15
f 19/19/19 16/16/16 17/17/17
f 20/20/20 16/16/16 19/19/19
f 21/21/21 16/16/16 20/20/20
f 13/13/13 16/16/16 21/21/21
f 21/21/21 11/11/11 13/13/13
f 20/20/20 22/22/22 21/21/21
f 23/23/23 22/22/22 20/20/20
f 19/19/19 23/23/23 20/20/20
f 24/24/24 23/23/23 19/19/19
f 23/23/23 24/24/24 25/25/25
f 25/25/25 24/24/24 26/26/26
f 25/25/25 26/26/26 27/27/27
f 27/27/27 26/26/26 28/28/28
f 27/27/27 28/28/28 29/29/29
f 29/29/29 28/28/28 30/30/30
f 29/29/29 31/31/31 27/27/27
f 27/27/27 31/31/31 32/32/32
f 27/27/27 32/32/32 25/25/25
f 25/25/25 32/32/32 33/33/33
f 23/23/23 33/33/33 22/22/22
f 25/25/25 33/33/33 23/23/23
f 34/34/34 32/32/32 31/31/31
f 35/35/35 32/32/32 34/34/34
f 35/35/35 33/33/33 32/32/32
f 36/36/36 35/35/35 34/34/34
f 37/37/37 35/35/35 36/36/36
f 29/29/29 30/30/30 38/38/38
f 38/38/38 31/31/31 29/29/29
f 30/30/30 39/39/39 38/38/38
f 40/40/40 31/31/31 38/38/38
f 40/40/40 34/34/34 31/31/31
f 41/41/41 34/34/34 40/40/40
f 41/41/41 36/36/36 34/34/34
f 42/42/42 36/36/36 41/41/41
f 42/42/42 43/43/43 36/36/36
f 36/36/36 43/43/43 37/37/37
f 44/44/44 43/43/43 42/42/42
f 44/44/44 45/45/45 43/43/43
f 46/46/46 45/45/45 44/44/44
f 46/46/46 47/47/47 45/45/45
f 45/45/45 47/47/47 48/48/48
f 37/37/37 43/43/43 49/49/49
f 43/43/43 45/45/45 49/49/49
f 49/49/49 45/45/45 50/50/50
f 45/45/45 48/48/48 50/50/50
f 37/37/37 49/49/49 51/51/51
f 35/35/35 37/37/37 51/51/51
f 51/51/51 33/33/33 35/35/35
f 51/51/51 52/52/52 33/33/33
f 51/51/51 49/49/49 52/52/52
f 49/49/49 50/50/50 52/52/52
f 33/33/33 52/52/52 22/22/22
f 52/52/52 53/53/53 22/22/22
f 52/52/52 50/50/50 53/53/53
f 22/22/22 53/53/53 21/21/21
f 53/53/53 11/11/11 21/21/21
f 53/53/53 1/1/1 11/11/11
f 50/50/50 1/1/1 53/53/53
f 50/50/50 48/48/48 1/1/1
f 1/1/1 48/48/48 3/3/3
f 47/47/47 3/3/3 48/48/48
f 4/4/4 3/3/3 47/47/47
f 54/54/54 4/4/4 47/47/47
f 55/55/55 4/4/4 54/54/54
f 57/57/57 56/56/56 54/54/54
f 58/58/58 56/56/56 57/57/57
f 59/59/59 58/58/58 57/57/57
f 60/60/60 58/58/58 59/59/59
f 60/60/60 61/61/61 58/58/58
f 62/62/62 61/61/61 60/60/60
f 59/59/59 57/57/57 63/63/63
f 63/63/63 57/57/57 64/64/64
f 64/64/64 57/57/57 65/65/65
f 65/65/65 57/57/57 66/66/66
f 63/63/63 64/64/64 67/67/67
f 67/67/67 64/64/64 68/68/68
f 64/64/64 69/69/69 68/68/68
f 68/68/68 69/69/69 70/70/70
f 68/68/68 70/70/70 71/71/71
f 71/71/71 70/70/70 72/72/72
f 71/71/71 72/72/72 73/73/73
f 73/73/73 72/72/72 74/74/74
f 73/73/73 74/74/74 75/75/75
f 75/75/75 74/74/74 76/76/76
f 75/75/75 76/76/76 77/77/77
f 77/77/77 76/76/76 78/78/78
f 77/77/77 78/78/78 79/79/79
f 79/79/79 78/78/78 80/80/80
f 81/81/81 79/79/79 80/80/80
f 82/82/82 79/79/79 81/81/81
f 83/83/83 82/82/82 81/81/81
f 84/84/84 82/82/82 83/83/83
f 74/74/74 41/41/41 76/76/76
f 74/74/74 42/42/42 41/41/41
f 72/72/72 42/42/42 74/74/74
f 72/72/72 44/44/44 42/42/42
f 70/70/70 44/44/44 72/72/72
f 70/70/70 46/46/46 44/44/44
f 69/69/69 46/46/46 70/70/70
f 85/85/85 75/75/75 77/77/77
f 85/85/85 77/77/77 86/86/86
f 86/86/86 77/77/77 79/79/79
f 86/86/86 79/79/79 87/87/87
f 87/87/87 79/79/79 82/82/82
f 87/87/87 82/82/82 88/88/88
f 88/88/88 82/82/82 84/84/84
f 88/88/88 84/84/84 89/89/89
f 89/89/89 84/84/84 90/90/90
f 90/90/90 84/84/84 91/91/91
f 89/89/89 90/90/90 92/92/92
f 92/92/92 90/90/90 93/93/93
f 46/46/46 94/94/94 47/47/47
f 47/47/47 94/94/94 95/95/95
f 96/96/96 75/75/75 85/85/85
f 96/96/96 73/73/73 75/75/75
f 97/97/97 73/73/73 96/96/96
f 97/97/97 71/71/71 73/73/73
f 98/98/98 71/71/71 97/97/97
f 98/98/98 68/68/68 71/71/71
f 67/67/67 68/68/68 98/98/98
f 100/100/100 91/91/91 99/99/99
f 100/100/100 99/99/99 101/101/101
f 99/99/99 103/103/103 102/102/102
f 105/105/105 104/104/104 102/102/102
f 99/99/99 107/107/107 106/106/106
f 101/101/101 108/108/108 106/106/106
f 101/101/101 106/106/106 109/109/109
f 106/106/106 107/107/107 110/110/110
f 106/106/106 112/112/112 111/111/111
f 113/113/113 106/106/106 111/111/111
f 113/113/113 111/111/111 114/114/114
f 114/114/114 111/111/111 115/115/115
f 114/114/114 115/115/115 116/116/116
f 111/111/111 117/117/117 115/115/115
f 115/115/115 117/117/117 118/118/118
f 115/115/115 118/118/118 119/119/119
f 116/116/116 115/115/115 119/119/119
f 111/111/111 120/120/120 117/117/117
f 116/116/116 119/119/119 121/121/121
f 121/121/121 119/119/119 122/122/122
f 119/119/119 26/26/26 122/122/122
f 119/119/119 123/123/123 26/26/26
f 122/122/122 26/26/26 24/24/24
f 122/122/122 24/24/24 124/124/124
f 124/124/124 24/24/24 19/19/19
f 124/124/124 19/19/19 125/125/125
f 125/125/125 19/19/19 17/17/17
f 125/125/125 17/17/17 126/126/126
f 126/126/126 17/17/17 127/127/127
f 121/121/121 122/122/122 128/128/128
f 128/128/128 122/122/122 124/124/124
f 128/128/128 124/124/124 129/129/129
f 129/129/129 124/124/124 125/125/125
f 129/129/129 125/125/125 130/130/130
f 130/130/130 125/125/125 126/126/126
f 130/130/130 126/126/126 131/131/131
f 133/133/133 9/9/9 132/132/132
f 9/9/9 135/135/135 134/134/134
f 136/136/136 135/135/135 9/9/9
f 137/137/137 135/135/135 136/136/136
f 137/137/137 136/136/136 138/138/138
f 138/138/138 136/136/136 139/139/139
f 140/140/140 135/135/135 137/137/137
f 141/141/141 136/136/136 9/9/9
f 142/142/142 136/136/136 141/141/141
f 143/143/143 142/142/142 141/141/141
f 9/9/9 144/144/144 141/141/141
f 144/144/144 145/145/145 141/141/141
f 145/145/145 144/144/144 146/146/146
f 138/138/138 147/147/147 137/137/137
f 147/147/147 148/148/148 137/137/137
f 137/137/137 148/148/148 140/140/140
f 149/149/149 148/148/148 147/147/147
f 150/150/150 148/148/148 149/149/149
f 151/151/151 147/147/147 138/138/138
f 149/149/149 147/147/147 152/152/152
f 152/152/152 153/153/153 149/149/149
f 152/152/152 154/154/154 153/153/153
f 155/155/155 153/153/153 154/154/154
f 152/152/152 147/147/147 156/156/156
f 152/152/152 156/156/156 157/157/157
f 146/146/146 159/159/159 158/158/158
f 161/161/161 160/160/160 155/155/155
f 163/163/163 149/149/149 162/162/162
f 165/165/165 149/149/149 164/164/164
f 164/164/164 166/166/166 165/165/165
f 165/165/165 166/166/166 167/167/167
f 168/168/168 167/167/167 166/166/166
f 169/169/169 167/167/167 168/168/168
f 170/170/170 167/167/167 169/169/169
f 170/170/170 171/171/171 167/167/167
f 172/172/172 171/171/171 170/170/170
f 173/173/173 172/172/172 170/170/170
f 174/174/174 172/172/172 173/173/173
f 175/175/175 174/174/174 173/173/173
f 176/176/176 174/174/174 175/175/175
f 175/175/175 177/177/177 176/176/176
f 178/178/178 177/177/177 175/175/175
f 178/178/178 179/179/179 177/177/177
f 179/179/179 178/178/178 180/180/180
f 180/180/180 178/178/178 181/181/181
f 181/181/181 182/182/182 180/180/180
f 180/180/180 182/182/182 183/183/183
f 184/184/184 183/183/183 182/182/182
f 185/185/185 183/183/183 184/184/184
f 186/186/186 185/185/185 184/184/184
f 187/187/187 185/185/185 186/186/186
f 188/188/188 187/187/187 186/186/186
f 186/186/186 189/189/189 188/188/188
f 190/190/190 189/189/189 186/186/186
f 184/184/184 190/190/190 186/186/186
f 189/189/189 190/190/190 191/191/191
f 191/191/191 190/190/190 192/192/192
f 191/191/191 192/192/192 193/193/193
f 191/191/191 193/193/193 194/194/194
f 194/194/194 193/193/193 195/195/195
f 194/194/194 195/195/195 196/196/196
f 197/197/197 194/194/194 196/196/196
f 197/197/197 196/196/196 198/198/198
f 198/198/198 196/196/196 199/199/199
f 196/196/196 200/200/200 199/199/199
f 196/196/196 195/195/195 200/200/200
f 199/199/199 200/200/200 201/201/201
f 200/200/200 202/202/202 201/201/201
f 201/201/201 202/202/202 203/203/203
f 202/202/202 204/204/204 203/203/203
f 203/203/203 204/204/204 205/205/205
f 206/206/206 197/197/197 198/198/198
f 207/207/207 197/197/197 206/206/206
f 208/208/208 207/207/207 206/206/206
f 209/209/209 207/207/207 208/208/208
f 209/209/209 208/208/208 210/210/210
f 210/210/210 208/208/208 211/211/211
f 210/210/210 211/211/211 212/212/212
f 212/212/212 211/211/211 213/213/213
f 202/202/202 214/214/214 204/204/204
f 215/215/215 214/214/214 202/202/202
f 200/200/200 215/215/215 202/202/202
f 215/215/215 216/216/216 214/214/214
f 217/217/217 216/216/216 215/215/215
f 195/195/195 217/217/217 215/215/215
f 193/193/193 217/217/217 195/195/195
f 218/218/218 217/217/217 193/193/193
f 193/193/193 192/192/192 218/218/218
f 219/219/219 218/218/218 192/192/192
f 192/192/192 220/220/220 219/219/219
f 220/220/220 221/221/221 219/219/219
f 222/222/222 221/221/221 220/220/220
f 222/222/222 220/220/220 182/182/182
f 181/181/181 222/222/222 182/182/182
f 223/223/223 222/222/222 181/181/181
f 181/181/181 178/178/178 223/223/223
f 223/223/223 178/178/178 175/175/175
f 175/175/175 173/173/173 223/223/223
f 182/182/182 220/220/220 184/184/184
f 220/220/220 190/190/190 184/184/184
f 190/190/190 220/220/220 192/192/192
f 222/222/222 224/224/224 221/221/221
f 223/223/223 224/224/224 222/222/222
f 223/223/223 173/173/173 224/224/224
f 224/224/224 225/225/225 221/221/221
f 224/224/224 170/170/170 225/225/225
f 173/173/173 170/170/170 224/224/224
f 170/170/170 226/226/226 225/225/225
f 169/169/169 226/226/226 170/170/170
f 225/225/225 226/226/226 216/216/216
f 226/226/226 227/227/227 216/216/216
f 226/226/226 169/169/169 227/227/227
f 216/216/216 227/227/227 214/214/214
f 225/225/225 216/216/216 228/228/228
f 228/228/228 216/216/216 217/217/217
f 228/228/228 217/217/217 218/218/218
f 219/219/219 228/228/228 218/218/218
f 221/221/221 228/228/228 219/219/219
f 221/221/221 225/225/225 228/228/228
f 227/227/227 169/169/169 168/168/168
f 227/227/227 168/168/168 229/229/229
f 229/229/229 168/168/168 230/230/230
f 227/227/227 231/231/231 214/214/214
f 232/232/232 231/231/231 227/227/227
f 229/229/229 234/234/234 233/233/233
f 233/233/233 234/234/234 235/235/235
f 233/233/233 235/235/235 236/236/236
f 236/236/236 235/235/235 237/237/237
f 235/235/235 238/238/238 237/237/237
f 237/237/237 238/238/238 239/239/239
f 240/240/240 233/233/233 236/236/236
f 205/205/205 233/233/233 240/240/240
f 241/241/241 233/233/233 205/205/205
f 242/242/242 233/233/233 241/241/241
f 243/243/243 205/205/205 240/240/240
f 203/203/203 205/205/205 243/243/243
f 244/244/244 203/203/203 243/243/243
f 201/201/201 203/203/203 244/244/244
f 245/245/245 201/201/201 244/244/244
f 199/199/199 201/201/201 245/245/245
f 246/246/246 199/199/199 245/245/245
f 198/198/198 199/199/199 246/246/246
f 247/247/247 198/198/198 246/246/246
f 206/206/206 198/198/198 247/247/247
f 248/248/248 206/206/206 247/247/247
f 208/208/208 206/206/206 248/248/248
f 249/249/249 208/208/208 248/248/248
f 211/211/211 208/208/208 249/249/249
f 250/250/250 211/211/211 249/249/249
f 213/213/213 211/211/211 250/250/250
f 251/251/251 213/213/213 250/250/250
f 252/252/252 213/213/213 251/251/251
f 253/253/253 213/213/213 252/252/252
f 254/254/254 252/252/252 251/251/251
f 255/255/255 252/252/252 254/254/254
f 257/257/257 253/253/253 256/256/256
f 258/258/258 257/257/257 256/256/256
f 260/260/260 259/259/259 258/258/258
f 259/259/259 261/261/261 257/257/257
f 262/262/262 261/261/261 259/259/259
f 259/259/259 263/263/263 258/258/258
f 265/265/265 259/259/259 264/264/264
f 266/266/266 265/265/265 264/264/264
f 265/265/265 267/267/267 259/259/259
f 268/268/268 265/265/265 266/266/266
f 268/268/268 269/269/269 265/265/265
f 270/270/270 269/269/269 268/268/268
f 271/271/271 270/270/270 268/268/268
f 269/269/269 272/272/272 265/265/265
f 273/273/273 268/268/268 266/266/266
f 271/271/271 268/268/268 273/273/273
f 274/274/274 271/271/271 273/273/273
f 275/275/275 271/271/271 274/274/274
f 275/275/275 185/185/185 271/271/271
f 185/185/185 276/276/276 271/271/271
f 183/183/183 185/185/185 275/275/275
f 277/277/277 183/183/183 275/275/275
f 180/180/180 183/183/183 277/277/277
f 278/278/278 180/180/180 277/277/277
f 179/179/179 180/180/180 278/278/278
f 279/279/279 179/179/179 278/278/278
f 280/280/280 179/179/179 279/279/279
f 281/281/281 275/275/275 274/274/274
f 277/277/277 275/275/275 281/281/281
f 282/282/282 277/277/277 281/281/281
f 278/278/278 277/277/277 282/282/282
f 283/283/283 278/278/278 282/282/282
f 279/279/279 278/278/278 283/283/283
f 284/284/284 279/279/279 283/283/283
f 177/177/177 179/179/179 285/285/285
f 177/177/177 286/286/286 176/176/176
f 176/176/176 286/286/286 287/287/287
f 176/176/176 287/287/287 174/174/174
f 174/174/174 287/287/287 288/288/288
f 289/289/289 174/174/174 288/288/288
f 172/172/172 174/174/174 289/289/289
f 289/289/289 290/290/290 172/172/172
f 177/177/177 291/291/291 286/286/286
f 286/286/286 291/291/291 292/292/292
f 172/172/172 294/294/294 293/293/293
f 296/296/296 295/295/295 10/10/10
f 297/297/297 12/12/12 10/10/10
f 298/298/298 12/12/12 297/297/297
f 298/298/298 299/299/299 12/12/12
f 12/12/12 299/299/299 14/14/14
f 299/299/299 300/300/300 14/14/14
f 14/14/14 300/300/300 15/15/15
f 300/300/300 301/301/301 15/15/15
f 302/302/302 301/301/301 300/300/300
f 10/10/10 303/303/303 297/297/297
f 305/305/305 38/38/38 304/304/304
f 306/306/306 305/305/305 304/304/304
f 306/306/306 307/307/307 305/305/305
f 80/80/80 38/38/38 305/305/305
f 305/305/305 308/308/308 80/80/80
f 78/78/78 38/38/38 80/80/80
f 78/78/78 40/40/40 38/38/38
f 76/76/76 40/40/40 78/78/78
f 76/76/76 41/41/41 40/40/40
f 306/306/306 309/309/309 307/307/307
f 310/310/310 309/309/309 306/306/306
f 313/313/313 312/312/312 311/311/311
f 314/314/314 312/312/312 313/313/313
f 316/316/316 313/313/313 315/315/315
f 317/317/317 313/313/313 316/316/316
f 317/317/317 316/316/316 318/318/318
f 318/318/318 316/316/316 319/319/319
f 318/318/318 319/319/319 320/320/320
f 320/320/320 319/319/319 321/321/321
f 320/320/320 323/323/323 322/322/322
f 322/322/322 323/323/323 324/324/324
f 322/322/322 324/324/324 325/325/325
f 325/325/325 324/324/324 326/326/326
f 325/325/325 326/326/326 327/327/327
f 327/327/327 326/326/326 328/328/328
f 327/327/327 328/328/328 329/329/329
f 329/329/329 328/328/328 330/330/330
f 329/329/329 330/330/330 331/331/331
f 331/331/331 330/330/330 332/332/332
f 331/331/331 332/332/332 333/333/333
f 333/333/333 332/332/332 334/334/334
f 333/333/333 334/334/334 335/335/335
f 335/335/335 334/334/334 336/336/336
f 338/338/338 335/335/335 337/337/337
f 339/339/339 335/335/335 338/338/338
f 342/342/342 341/341/341 340/340/340
f 343/343/343 342/342/342 340/340/340
f 340/340/340 344/344/344 343/343/343
f 345/345/345 344/344/344 340/340/340
f 345/345/345 340/340/340 346/346/346
f 346/346/346 340/340/340 347/347/347
f 346/346/346 347/347/347 348/348/348
f 348/348/348 347/347/347 349/349/349
f 350/350/350 348/348/348 349/349/349
f 351/351/351 348/348/348 350/350/350
f 352/352/352 351/351/351 350/350/350
f 353/353/353 351/351/351 352/352/352
f 353/353/353 352/352/352 354/354/354
f 354/354/354 352/352/352 355/355/355
f 134/134/134 354/354/354 355/355/355
f 135/135/135 354/354/354 356/356/356
f 359/359/359 358/358/358 357/357/357
f 362/362/362 361/361/361 360/360/360
f 360/360/360 361/361/361 363/363/363
f 360/360/360 364/364/364 362/362/362
f 365/365/365 364/364/364 360/360/360
f 367/367/367 366/366/366 360/360/360
f 368/368/368 366/366/366 367/367/367
f 360/360/360 366/366/366 369/369/369
f 369/369/369 366/366/366 370/370/370
f 373/373/373 372/372/372 371/371/371
f 371/371/371 372/372/372 374/374/374
f 376/376/376 8/8/8 375/375/375
f 8/8/8 376/376/376 9/9/9
f 377/377/377 8/8/8 5/5/5
f 378/378/378 5/5/5 4/4/4
f 381/381/381 380/380/380 379/379/379
f 384/384/384 383/383/383 382/382/382
f 387/387/387 386/386/386 385/385/385
f 390/390/390 389/389/389 388/388/388
f 391/391/391 389/389/389 390/390/390
f 394/394/394 393/393/393 392/392/392
f 394/394/394 395/395/395 257/257/257
f 398/398/398 397/397/397 396/396/396
f 396/396/396 397/397/397 399/399/399
f 401/401/401 396/396/396 400/400/400
f 402/402/402 401/401/401 400/400/400
f 403/403/403 401/401/401 402/402/402
f 404/404/404 403/403/403 402/402/402
f 405/405/405 403/403/403 404/404/404
f 406/406/406 396/396/396 401/401/401
f 408/408/408 407/407/407 404/404/404
f 409/409/409 407/407/407 408/408/408
f 410/410/410 409/409/409 408/408/408
f 411/411/411 409/409/409 410/410/410
f 412/412/412 411/411/411 410/410/410
f 413/413/413 411/411/411 412/412/412
f 414/414/414 413/413/413 412/412/412
f 415/415/415 413/413/413 414/414/414
f 416/416/416 415/415/415 414/414/414
f 417/417/417 415/415/415 416/416/416
f 418/418/418 417/417/417 416/416/416
f 419/419/419 417/417/417 418/418/418
f 420/420/420 419/419/419 418/418/418
f 421/421/421 419/419/419 420/420/420
f 423/423/423 420/420/420 422/422/422
f 422/422/422 420/420/420 424/424/424
f 168/168/168 166/166/166 425/425/425
f 166/166/166 164/164/164 426/426/426
f 428/428/428 164/164/164 427/427/427
f 149/149/149 427/427/427 164/164/164
f 431/431/431 430/430/430 429/429/429
f 195/195/195 215/215/215 200/200/200
f 432/432/432 187/187/187 188/188/188
f 188/188/188 433/433/433 432/432/432
f 432/432/432 433/433/433 434/434/434
f 188/188/188 189/189/189 433/433/433
f 433/433/433 189/189/189 435/435/435
f 189/189/189 191/191/191 435/435/435
f 435/435/435 191/191/191 194/194/194
f 433/433/433 435/435/435 207/207/207
f 209/209/209 433/433/433 207/207/207
f 436/436/436 433/433/433 209/209/209
f 436/436/436 437/437/437 433/433/433
f 437/437/437 436/436/436 438/438/438
f 436/436/436 439/439/439 438/438/438
f 209/209/209 440/440/440 436/436/436
f 207/207/207 435/435/435 197/197/197
f 435/435/435 194/194/194 197/197/197
f 439/439/439 441/441/441 438/438/438
f 438/438/438 441/441/441 442/442/442
f 445/445/445 444/444/444 443/443/443
f 445/445/445 443/443/443 446/446/446
f 446/446/446 447/447/447 445/445/445
f 445/445/445 447/447/447 448/448/448
f 449/449/449 445/445/445 448/448/448
f 450/450/450 445/445/445 449/449/449
f 451/451/451 450/450/450 449/449/449
f 452/452/452 450/450/450 451/451/451
f 452/452/452 451/451/451 453/453/453
f 453/453/453 451/451/451 454/454/454
f 453/453/453 454/454/454 455/455/455
f 455/455/455 454/454/454 456/456/456
f 457/457/457 455/455/455 456/456/456
f 458/458/458 455/455/455 457/457/457
f 458/458/458 457/457/457 150/150/150
f 459/459/459 457/457/457 148/148/148
f 462/462/462 461/461/461 460/460/460
f 465/465/465 464/464/464 463/463/463
f 468/468/468 467/467/467 466/466/466
