g EnemyTray_1
v 932.9453 53.0522 -966.849
v 913.1826 53.0522 -970.9779
v 923.5117 53.0522 -978.1099
v 911.4699 70.48518 -986.7446
v 896.8148 70.48518 -979.4267
v 916.418 53.0522 -858.8154
v 916.418 53.0522 -858.8154
v 896.9568 70.48518 -866.9196
v 897.1601 70.48518 -864.2235
v 944.3062 53.0522 -878.9402
v 969.0831 53.0522 -936.6922
v 981.1297 53.0522 -898.9019
v 1021.231 53.0522 -937.8739
v 1030.049 53.0522 -917.645
v 1070.701 53.0522 -927.2264
v 1049.712 53.0522 -942.7952
v 1077.729 53.0522 -949.6953
v 1092.15 53.0522 -931.0814
v 1071.086 53.0522 -972.9377
v 1041.361 53.0522 -966.6603
v 1015.291 53.0522 -960.1605
v 1011.032 53.0522 -978.3577
v 1037.313 53.0522 -986.8989
v 1068.317 53.0522 -993.3965
v 1035.424 53.0522 -1005.519
v 1068.866 53.0522 -1012.814
v 1038.932 53.0522 -1024.138
v 1074.682 53.0522 -1033.415
v 1043.719 53.0522 -1035.858
v 1081.278 53.0522 -1046.559
v 1002.598 53.0522 -1023.329
v 1004.063 53.0522 -1014.752
v 1006.773 53.0522 -998.4908
v 956.6577 53.0522 -1008.872
v 957.4377 53.0522 -1000.391
v 936.0971 53.0522 -1001.804
v 943.1358 53.0522 -995.2643
v 1057.492 70.48518 -1057.615
v 1094.888 66.80334 -1065.164
v 1008.224 70.48518 -1042.772
v 952.0454 70.48518 -1027.497
v 928.637 70.48518 -1019.085
v 928.0657 53.0522 -995.058
v 917.2675 70.48518 -1010.558
v 924.8726 53.0522 -988.6431
v 913.1531 70.48518 -999.9285
v 912.6965 70.48518 -988.6606
v 924.5604 53.0522 -980.0236
v 937.5491 53.0522 -990.0875
v 933.838 53.0522 -983.9024
v 958.3123 53.0522 -990.3967
v 959.8868 53.0522 -979.3864
v 962.803 53.0522 -965.5446
v 910.0926 71.97968 -990.1738
v 908.92 71.97968 -988.3272
v 908.92 71.97968 -988.3272
v 907.9764 70.48518 -991.4036
v 906.8477 70.48518 -989.6135
v 903.6461 55.8364 -994.5561
v 902.5173 55.8364 -992.7659
v 891.088 70.48518 -981.285
v 885.0016 55.8364 -983.329
v 904.1393 55.8364 -1006.727
v 908.4697 70.48518 -1003.575
v 910.5695 71.97968 -1001.94
v 910.0926 71.97968 -990.1738
v 907.7191 55.8364 -1018.646
v 912.8428 70.48518 -1014.873
v 910.5695 71.97968 -1001.94
v 914.8267 71.97968 -1012.938
v 924.9278 70.48518 -1023.937
v 926.5908 71.97968 -1021.761
v 949.809 70.48518 -1032.877
v 950.8116 71.97968 -1030.465
v 1009.522 70.48518 -1049.114
v 1008.94 71.97968 -1046.27
v 1061.89 70.48518 -1064.891
v 1059.918 71.97968 -1061.629
v 1095.161 69.7973 -1076.092
v 1095.546 71.2918 -1073.59
v 1111.099 70.82326 -1079.494
v 1117.437 69.32876 -1084.309
v 1121.512 70.59978 -1083.401
v 1125.41 69.10294 -1086.931
v 1067.696 55.8364 -1074.39
v 1092.322 55.14853 -1083.171
v 1121.58 54.67998 -1092.163
v 1125.979 54.45416 -1093.443
v 1130.307 55.32985 -1093.941
v 1128.323 69.97862 -1087.205
v 1124.57 70.56335 -1083.629
v 1134.569 53.68866 -1093.633
v 1130.555 68.33745 -1087.052
v 910.5695 71.97968 -1001.94
v 910.0926 71.97968 -990.1738
v 1011.952 55.8364 -1057.972
v 946.5743 55.8364 -1040.382
v 920.1277 55.8364 -1030.1
v 1114.484 69.10817 -1078.206
v 1117.864 69.97862 -1078.43
v 1103.263 69.98122 -1065.652
v 1121.512 70.59978 -1083.401
v 1124.57 70.56335 -1083.629
v 1125.41 69.10294 -1086.931
v 1124.57 70.56335 -1083.629
v 1101.48 69.19129 -1066.384
v 1102.822 69.27429 -1073.435
v 1114.484 69.10817 -1078.206
v 1090.969 69.98418 -1047.394
v 1094.888 66.80334 -1065.164
v 1088.593 68.34301 -1047.557
v 1094.888 66.80334 -1065.164
v 1090.969 69.98418 -1047.394
v 1086.001 69.98418 -1034.472
v 1083.625 68.34301 -1034.635
v 1081.822 69.98418 -1013.859
v 1081.278 53.0522 -1046.559
v 1074.682 53.0522 -1033.415
v 1079.741 68.34301 -1014.313
v 1094.888 66.80334 -1065.164
v 1081.301 69.98418 -994.2643
v 1078.925 68.34301 -994.4274
v 1074.682 53.0522 -1033.415
v 1082.38 68.34301 -975.1315
v 1089.455 68.34301 -953.3119
v 1102.189 68.34301 -933.8444
v 1092.15 53.0522 -931.0814
v 1084.556 69.98418 -975.4216
v 1091.464 69.98418 -953.6849
v 1104.975 69.98418 -935.1499
v 1109.096 69.98418 -931.5076
v 916.3777 54.90599 -854.5028
v 916.418 53.0522 -858.8154
v 916.3777 54.90599 -854.5028
v 916.2244 53.0522 -850.0592
v 894.8152 70.48518 -861.6951
v 801.4144 70.48518 -861.6953
v 801.4144 71.97968 -863.8935
v 893.1662 71.97968 -863.8935
v 801.4144 52.78667 -850.0526
v 894.5099 71.97968 -865.2988
v 893.1662 71.97968 -863.8935
v 891.0828 70.48518 -866.6708
v 894.6135 71.97968 -866.7823
v 891.0828 70.48518 -866.6708
v 891.088 70.48518 -981.285
v 708.0135 70.48518 -861.6951
v 686.6042 53.0522 -850.0592
v 705.6686 70.48518 -864.2235
v 686.451 54.90599 -854.5028
v 709.6625 71.97968 -863.8935
v 708.3188 71.97968 -865.2988
v 708.2152 71.97968 -866.7823
v 711.7458 70.48518 -866.6708
v 711.7407 70.48518 -981.285
v 709.6625 71.97968 -863.8935
v 711.7458 70.48518 -866.6708
v 893.6556 71.97968 -980.4518
v 894.6135 71.97968 -866.7823
v 708.2152 71.97968 -866.7823
v 709.1731 71.97968 -980.4518
v 686.4106 53.0522 -858.8154
v 686.451 54.90599 -854.5028
v 705.8719 70.48518 -866.9196
v 686.4106 53.0522 -858.8154
v 706.0139 70.48518 -979.4267
v 689.6462 53.0522 -970.9779
v 691.3588 70.48518 -986.7446
v 679.317 53.0522 -978.1099
v 669.8834 53.0522 -966.849
v 686.4106 53.0522 -858.8154
v 658.5225 53.0522 -878.9402
v 633.7457 53.0522 -936.6922
v 621.699 53.0522 -898.9019
v 581.598 53.0522 -937.8739
v 572.7794 53.0522 -917.645
v 531.3571 53.0522 -928.3287
v 553.1165 53.0522 -942.7952
v 525.0994 53.0522 -949.6953
v 531.7429 53.0522 -972.9377
v 561.4679 53.0522 -966.6603
v 565.5157 53.0522 -986.8989
v 534.5123 53.0522 -993.3965
v 567.4047 53.0522 -1005.519
v 533.9626 53.0522 -1012.814
v 563.8966 53.0522 -1024.138
v 528.1464 53.0522 -1033.415
v 559.1099 53.0522 -1035.858
v 600.231 53.0522 -1023.329
v 598.7657 53.0522 -1014.752
v 646.171 53.0522 -1008.872
v 645.3909 53.0522 -1000.391
v 666.7316 53.0522 -1001.804
v 650.7833 70.48518 -1027.497
v 674.1917 70.48518 -1019.085
v 652.0171 71.97968 -1030.465
v 593.8886 71.97968 -1046.27
v 593.3066 70.48518 -1049.114
v 653.0198 70.48518 -1032.877
v 676.2379 71.97968 -1021.761
v 677.9009 70.48518 -1023.937
v 688.0021 71.97968 -1012.938
v 689.9859 70.48518 -1014.873
v 692.2593 71.97968 -1001.94
v 694.3591 70.48518 -1003.575
v 540.9387 70.48518 -1064.891
v 542.9105 71.97968 -1061.629
v 507.668 69.7973 -1076.092
v 507.2827 71.2918 -1073.59
v 491.73 70.82326 -1079.494
v 485.3918 69.32876 -1084.309
v 481.317 70.59978 -1083.401
v 477.4185 69.10294 -1086.931
v 689.6756 70.48518 -999.9285
v 685.5612 70.48518 -1010.558
v 677.9562 53.0522 -988.6431
v 674.7631 53.0522 -995.058
v 659.6929 53.0522 -995.2643
v 644.5164 53.0522 -990.3967
v 596.0555 53.0522 -998.4908
v 642.942 53.0522 -979.3864
v 591.7966 53.0522 -978.3577
v 587.5377 53.0522 -960.1605
v 640.0258 53.0522 -965.5446
v 668.9908 53.0522 -983.9024
v 678.2682 53.0522 -980.0236
v 690.1322 70.48518 -988.6606
v 665.2797 53.0522 -990.0875
v 692.736 71.97968 -990.1738
v 693.9087 71.97968 -988.3272
v 692.2593 71.97968 -1001.94
v 692.736 71.97968 -990.1738
v 694.8523 70.48518 -991.4036
v 693.9087 71.97968 -988.3272
v 695.9811 70.48518 -989.6135
v 699.1827 55.8364 -994.556
v 700.3115 55.8364 -992.7659
v 711.7407 70.48518 -981.285
v 717.827 55.8364 -983.329
v 698.6895 55.8364 -1006.727
v 692.2593 71.97968 -1001.94
v 692.736 71.97968 -990.1738
v 695.1097 55.8364 -1018.646
v 682.701 55.8364 -1030.1
v 656.2545 55.8364 -1040.382
v 590.8768 55.8364 -1057.972
v 535.1332 55.8364 -1074.39
v 510.5068 55.14853 -1083.171
v 481.2492 54.67998 -1092.163
v 476.8496 54.45416 -1093.443
v 472.5219 55.32985 -1093.941
v 474.5052 69.97863 -1087.205
v 478.2586 70.56335 -1083.629
v 468.2599 53.68866 -1093.633
v 472.2735 68.33745 -1087.052
v 484.9644 69.97863 -1078.43
v 488.3452 69.10817 -1078.206
v 499.5657 69.98122 -1065.652
v 501.3484 69.19129 -1066.384
v 511.86 69.98418 -1047.394
v 500.0071 69.27429 -1073.435
v 507.9406 66.80334 -1065.164
v 488.3452 69.10817 -1078.206
v 511.86 69.98418 -1047.394
v 514.2358 68.34301 -1047.557
v 516.8275 69.98418 -1034.472
v 507.9406 66.80334 -1065.164
v 519.2033 68.34301 -1034.635
v 521.5504 53.0522 -1046.559
v 528.1464 53.0522 -1033.415
v 523.0876 68.34301 -1014.313
v 507.9406 66.80334 -1065.164
v 521.0068 69.98418 -1013.859
v 521.5278 69.98418 -994.2643
v 523.9036 68.34301 -994.4274
v 528.1464 53.0522 -1033.415
v 520.4487 68.34301 -975.1315
v 513.3735 68.34301 -953.3119
v 500.6398 68.34301 -933.8444
v 510.6788 53.0522 -931.0814
v 518.2731 69.98418 -975.4216
v 511.3652 69.98418 -953.6849
v 497.8535 69.98418 -935.1499
v 493.733 69.98418 -931.5076
v 510.6788 53.0522 -931.0814
v 529.3454 55.13821 -925.4578
v 571.762 55.13821 -914.4352
v 620.6943 55.13821 -895.5537
v 658.1503 55.13821 -875.1723
v 686.451 54.90599 -854.5028
v 510.6788 53.0522 -931.0814
v 507.3733 56.06734 -927.7591
v 686.4106 53.0522 -858.8154
v 686.451 54.90599 -854.5028
v 916.3777 54.90599 -854.5028
v 916.418 53.0522 -858.8154
v 944.6783 55.13821 -875.1723
v 982.1344 55.13821 -895.5537
v 1031.067 55.13821 -914.4352
v 1072.712 55.13821 -924.3555
v 1092.15 53.0522 -931.0814
v 1095.456 56.06734 -927.7591
v 916.3777 54.90599 -854.5028
v 1094.888 66.80334 -1065.164
v 1096.02 69.7973 -1070.512
v 1102.822 69.27429 -1073.435
v 1111.099 70.82326 -1079.494
v 1111.099 70.82326 -1079.494
v 1121.512 70.59978 -1083.401
v 1114.484 69.10817 -1078.206
v 1124.57 70.56335 -1083.629
v 1128.323 69.97862 -1087.205
v 1126.699 69.00178 -1083.437
v 1130.555 68.33745 -1087.052
v 1124.57 70.56335 -1083.629
v 1117.864 69.97862 -1078.43
v 1120.398 68.33745 -1078.393
v 1104.945 68.34015 -1064.971
v 1103.263 69.98122 -1065.652
v 1093.2 68.34301 -1047.241
v 1090.969 69.98418 -1047.394
v 1088.233 68.34301 -1034.319
v 1090.969 69.98418 -1047.394
v 1086.001 69.98418 -1034.472
v 1083.777 68.34301 -1013.434
v 1081.822 69.98418 -1013.859
v 1083.533 68.34301 -994.1112
v 1081.301 69.98418 -994.2643
v 1086.599 68.34301 -975.694
v 1084.556 69.98418 -975.4216
v 1093.35 68.34301 -954.0352
v 1091.464 69.98418 -953.6849
v 1107.791 68.34301 -935.6504
v 1104.975 69.98418 -935.1499
v 1112.203 68.34301 -931.6114
v 1109.096 69.98418 -931.5076
v 1109.096 69.98418 -931.5076
v 1126.696 59.49159 -917.788
v 1130.166 57.89594 -918.7335
v 1105.788 67.76559 -931.3973
v 1092.15 53.0522 -931.0814
v 1102.189 68.34301 -933.8444
v 1109.096 69.98418 -931.5076
v 1126.696 59.49159 -917.788
v 1122.913 57.85965 -919.6835
v 1098.453 53.0522 -924.74
v 1095.456 56.06734 -927.7591
v 1074.481 53.0522 -921.7598
v 1072.712 55.13821 -924.3555
v 1031.067 55.13821 -914.4352
v 1032.144 53.0522 -911.2322
v 982.1344 55.13821 -895.5537
v 982.8389 53.0522 -892.4366
v 945.172 53.0522 -871.4426
v 944.6783 55.13821 -875.1723
v 916.3777 54.90599 -854.5028
v 1095.456 56.06734 -927.7591
v 1092.15 53.0522 -931.0814
v 1105.788 67.76559 -931.3973
v 801.4144 70.48518 -866.6708
v 893.1662 71.97968 -863.8935
v 801.4144 71.97968 -863.8935
v 891.0828 70.48518 -866.6708
v 709.6625 71.97968 -863.8935
v 711.7458 70.48518 -866.6708
v 801.4144 55.8364 -874.1752
v 891.0828 70.48518 -866.6708
v 887.8483 55.8364 -874.1752
v 711.7458 70.48518 -866.6708
v 714.9805 55.8364 -874.1752
v 906.8477 70.48518 -989.6135
v 893.6556 71.97968 -980.4518
v 891.088 70.48518 -981.285
v 908.92 71.97968 -988.3272
v 893.6556 71.97968 -980.4518
v 894.6135 71.97968 -866.7823
v 893.6556 71.97968 -980.4518
v 908.92 71.97968 -988.3272
v 908.92 71.97968 -988.3272
v 896.8148 70.48518 -979.4267
v 893.6556 71.97968 -980.4518
v 891.088 70.48518 -981.285
v 891.0828 70.48518 -866.6708
v 885.0016 55.8364 -983.329
v 885.0016 55.8364 -983.329
v 891.0828 70.48518 -866.6708
v 887.8483 55.8364 -874.1752
v 711.7407 70.48518 -981.285
v 709.1731 71.97968 -980.4518
v 695.9811 70.48518 -989.6135
v 693.9087 71.97968 -988.3272
v 478.2586 70.56335 -1083.629
v 477.4185 69.10294 -1086.931
v 481.317 70.59978 -1083.401
v 478.2586 70.56335 -1083.629
v 476.1292 69.00177 -1083.437
v 474.5052 69.97863 -1087.205
v 478.2586 70.56335 -1083.629
v 472.2735 68.33745 -1087.052
v 482.4305 68.33745 -1078.393
v 484.9644 69.97863 -1078.43
v 497.8835 68.34015 -1064.971
v 499.5657 69.98122 -1065.652
v 509.6283 68.34301 -1047.241
v 511.86 69.98418 -1047.394
v 478.2586 70.56335 -1083.629
v 511.86 69.98418 -1047.394
v 514.5957 68.34301 -1034.319
v 516.8275 69.98418 -1034.472
v 519.0523 68.34301 -1013.434
v 521.0068 69.98418 -1013.859
v 519.296 68.34301 -994.1112
v 521.5278 69.98418 -994.2643
v 516.2294 68.34301 -975.694
v 518.2731 69.98418 -975.4216
v 509.4786 68.34301 -954.0352
v 511.3652 69.98418 -953.6849
v 495.0384 68.34301 -935.6504
v 497.8535 69.98418 -935.1499
v 490.6262 68.34301 -931.6114
v 493.733 69.98418 -931.5076
v 476.1326 59.49159 -917.788
v 493.733 69.98418 -931.5076
v 472.6626 57.89594 -918.7335
v 693.9087 71.97968 -988.3272
v 709.1731 71.97968 -980.4518
v 708.2152 71.97968 -866.7823
v 709.1731 71.97968 -980.4518
v 709.1731 71.97968 -980.4518
v 706.0139 70.48518 -979.4267
v 693.9087 71.97968 -988.3272
v 521.5504 53.0522 -1046.559
v 545.3365 70.48518 -1057.615
v 507.9406 66.80334 -1065.164
v 594.6047 70.48518 -1042.772
v 506.8087 69.7973 -1070.512
v 507.9406 66.80334 -1065.164
v 500.0071 69.27429 -1073.435
v 491.73 70.82326 -1079.494
v 491.73 70.82326 -1079.494
v 481.317 70.59978 -1083.401
v 488.3452 69.10817 -1078.206
v 500.6398 68.34301 -933.8444
v 510.6788 53.0522 -931.0814
v 497.0403 67.76559 -931.3973
v 493.733 69.98418 -931.5076
v 476.1326 59.49159 -917.788
v 479.9158 57.85965 -919.6835
v 504.3763 53.0522 -924.74
v 507.3733 56.06734 -927.7591
v 527.5764 53.0522 -922.862
v 529.3454 55.13821 -925.4578
v 571.762 55.13821 -914.4352
v 570.6844 53.0522 -911.2322
v 620.6943 55.13821 -895.5537
v 619.9898 53.0522 -892.4366
v 657.6567 53.0522 -871.4426
v 658.1503 55.13821 -875.1723
v 686.451 54.90599 -854.5028
v 497.0403 67.76559 -931.3973
v 510.6788 53.0522 -931.0814
v 507.3733 56.06734 -927.7591
v 714.9805 55.8364 -874.1752
v 711.7458 70.48518 -866.6708
v 717.827 55.8364 -983.329
v 717.827 55.8364 -983.329
v 711.7458 70.48518 -866.6708
v 711.7407 70.48518 -981.285
vt 0.692443 0.238922
vt 0.663529 0.232881
vt 0.678641 0.222446
vt 0.661023 0.209813
vt 0.639581 0.22052
vt 0.668262 0.396987
vt 0.668262 0.396987
vt 0.639789 0.385129
vt 0.640086 0.389074
vt 0.709066 0.367542
vt 0.745317 0.283045
vt 0.762942 0.338336
vt 0.821614 0.281316
vt 0.834517 0.310913
vt 0.893994 0.296894
vt 0.863286 0.274115
vt 0.904278 0.26402
vt 0.925376 0.291254
vt 0.894557 0.230014
vt 0.851067 0.239198
vt 0.812924 0.248708
vt 0.806693 0.222084
vt 0.845144 0.209587
vt 0.890506 0.200081
vt 0.842381 0.182344
vt 0.89131 0.171671
vt 0.847513 0.155102
vt 0.899819 0.14153
vt 0.854517 0.137955
vt 0.90947 0.122298
vt 0.794352 0.156286
vt 0.796496 0.168835
vt 0.800462 0.192627
vt 0.727137 0.177438
vt 0.728279 0.189846
vt 0.697055 0.187779
vt 0.707353 0.197348
vt 0.874668 0.106121
vt 0.929383 0.095078
vt 0.802584 0.127839
vt 0.720389 0.150188
vt 0.68614 0.162495
vt 0.685304 0.197649
vt 0.669505 0.174971
vt 0.680632 0.207035
vt 0.663486 0.190524
vt 0.662817 0.20701
vt 0.680175 0.219647
vt 0.699179 0.204922
vt 0.69375 0.213971
vt 0.729558 0.204469
vt 0.731862 0.220579
vt 0.736128 0.240831
vt 0.659008 0.204796
vt 0.657292 0.207497
vt 0.657292 0.207497
vt 0.655911 0.202996
vt 0.65426 0.205615
vt 0.649576 0.198384
vt 0.647924 0.201003
vt 0.631202 0.217801
vt 0.622297 0.21481
vt 0.650297 0.180576
vt 0.656633 0.185188
vt 0.659705 0.18758
vt 0.659008 0.204796
vt 0.655535 0.163138
vt 0.663031 0.168658
vt 0.659705 0.18758
vt 0.665934 0.171489
vt 0.680713 0.155397
vt 0.683146 0.158579
vt 0.717117 0.142316
vt 0.718584 0.145846
vt 0.804483 0.11856
vt 0.803632 0.12272
vt 0.881103 0.095476
vt 0.878218 0.100249
vt 0.929782 0.079089
vt 0.930345 0.082749
vt 0.953101 0.07411
vt 0.962374 0.067067
vt 0.968336 0.068395
vt 0.97404 0.06323
vt 0.889597 0.081579
vt 0.925628 0.068731
vt 0.968435 0.055575
vt 0.974872 0.053702
vt 0.981204 0.052973
vt 0.978302 0.062829
vt 0.972811 0.06806
vt 0.98744 0.053425
vt 0.981568 0.063053
vt 0.659705 0.18758
vt 0.659008 0.204796
vt 0.808038 0.1056
vt 0.712384 0.131336
vt 0.67369 0.146379
vt 0.958053 0.075995
vt 0.962999 0.075668
vt 0.941636 0.094363
vt 0.968336 0.068395
vt 0.972811 0.06806
vt 0.97404 0.06323
vt 0.972811 0.06806
vt 0.939028 0.093292
vt 0.94099 0.082976
vt 0.958053 0.075995
vt 0.923648 0.121076
vt 0.929383 0.095078
vt 0.920172 0.120838
vt 0.929383 0.095078
vt 0.923648 0.121076
vt 0.91638 0.139983
vt 0.912904 0.139744
vt 0.910266 0.170141
vt 0.90947 0.122298
vt 0.899819 0.14153
vt 0.907221 0.169478
vt 0.929383 0.095078
vt 0.909503 0.198811
vt 0.906027 0.198572
vt 0.899819 0.14153
vt 0.911082 0.226804
vt 0.921434 0.258728
vt 0.940065 0.287211
vt 0.925376 0.291254
vt 0.914265 0.22638
vt 0.924372 0.258183
vt 0.944141 0.285301
vt 0.95017 0.29063
vt 0.668203 0.403296
vt 0.668262 0.396987
vt 0.668203 0.403296
vt 0.667979 0.409798
vt 0.636655 0.392773
vt 0.5 0.392773
vt 0.5 0.389557
vt 0.634243 0.389557
vt 0.5 0.409807
vt 0.636209 0.387501
vt 0.634243 0.389557
vt 0.631194 0.385493
vt 0.63636 0.38533
vt 0.631194 0.385493
vt 0.631202 0.217801
vt 0.363345 0.392773
vt 0.332021 0.409798
vt 0.359914 0.389074
vt 0.331797 0.403296
vt 0.365758 0.389557
vt 0.363791 0.387501
vt 0.36364 0.38533
vt 0.368806 0.385493
vt 0.368798 0.217801
vt 0.365758 0.389557
vt 0.368806 0.385493
vt 0.634959 0.21902
vt 0.63636 0.38533
vt 0.36364 0.38533
vt 0.365041 0.21902
vt 0.331738 0.396987
vt 0.331797 0.403296
vt 0.360212 0.385129
vt 0.331738 0.396987
vt 0.360419 0.22052
vt 0.336471 0.232881
vt 0.338977 0.209813
vt 0.321359 0.222446
vt 0.307557 0.238922
vt 0.331738 0.396987
vt 0.290934 0.367542
vt 0.254683 0.283045
vt 0.237058 0.338336
vt 0.178386 0.281316
vt 0.165483 0.310913
vt 0.104878 0.295281
vt 0.136714 0.274115
vt 0.095722 0.26402
vt 0.105443 0.230014
vt 0.148933 0.239198
vt 0.154856 0.209587
vt 0.109494 0.200081
vt 0.157619 0.182344
vt 0.10869 0.171671
vt 0.152487 0.155102
vt 0.100181 0.14153
vt 0.145483 0.137955
vt 0.205648 0.156286
vt 0.203504 0.168835
vt 0.272863 0.177438
vt 0.271721 0.189846
vt 0.302945 0.187779
vt 0.279611 0.150188
vt 0.31386 0.162495
vt 0.281416 0.145846
vt 0.196368 0.12272
vt 0.195517 0.11856
vt 0.282883 0.142316
vt 0.316854 0.158579
vt 0.319287 0.155397
vt 0.334066 0.171489
vt 0.336969 0.168658
vt 0.340295 0.18758
vt 0.343367 0.185188
vt 0.118897 0.095476
vt 0.121782 0.100249
vt 0.070218 0.079089
vt 0.069655 0.082749
vt 0.0469 0.07411
vt 0.037626 0.067067
vt 0.031664 0.068395
vt 0.02596 0.06323
vt 0.336515 0.190524
vt 0.330495 0.174971
vt 0.319368 0.207035
vt 0.314696 0.197649
vt 0.292647 0.197348
vt 0.270442 0.204469
vt 0.199539 0.192627
vt 0.268138 0.220579
vt 0.193307 0.222084
vt 0.187076 0.248708
vt 0.263872 0.240831
vt 0.306251 0.213971
vt 0.319824 0.219647
vt 0.337183 0.20701
vt 0.300821 0.204922
vt 0.340992 0.204796
vt 0.342708 0.207497
vt 0.340295 0.18758
vt 0.340992 0.204796
vt 0.344089 0.202996
vt 0.342708 0.207497
vt 0.34574 0.205615
vt 0.350424 0.198384
vt 0.352076 0.201003
vt 0.368798 0.217801
vt 0.377703 0.21481
vt 0.349703 0.180576
vt 0.340295 0.18758
vt 0.340992 0.204796
vt 0.344465 0.163138
vt 0.32631 0.146379
vt 0.287616 0.131336
vt 0.191962 0.1056
vt 0.110403 0.081579
vt 0.074372 0.068731
vt 0.031565 0.055575
vt 0.025128 0.053702
vt 0.018796 0.052973
vt 0.021698 0.062829
vt 0.027189 0.06806
vt 0.01256 0.053425
vt 0.018433 0.063053
vt 0.037001 0.075668
vt 0.041947 0.075995
vt 0.058364 0.094363
vt 0.060972 0.093292
vt 0.076352 0.121076
vt 0.05901 0.082976
vt 0.070617 0.095078
vt 0.041947 0.075995
vt 0.076352 0.121076
vt 0.079828 0.120838
vt 0.08362 0.139983
vt 0.070617 0.095078
vt 0.087096 0.139744
vt 0.09053 0.122298
vt 0.100181 0.14153
vt 0.092779 0.169478
vt 0.070617 0.095078
vt 0.089735 0.170141
vt 0.090497 0.198811
vt 0.093973 0.198572
vt 0.100181 0.14153
vt 0.088918 0.226804
vt 0.078566 0.258728
vt 0.059936 0.287211
vt 0.074624 0.291254
vt 0.085735 0.22638
vt 0.075628 0.258183
vt 0.055859 0.285301
vt 0.04983 0.29063
vt 0.074624 0.291254
vt 0.101935 0.299482
vt 0.163995 0.315609
vt 0.235588 0.343235
vt 0.29039 0.373055
vt 0.331797 0.403296
vt 0.074624 0.291254
vt 0.069787 0.296115
vt 0.331738 0.396987
vt 0.331797 0.403296
vt 0.668203 0.403296
vt 0.668262 0.396987
vt 0.70961 0.373055
vt 0.764412 0.343235
vt 0.836006 0.315609
vt 0.896937 0.301094
vt 0.925376 0.291254
vt 0.930213 0.296115
vt 0.668203 0.403296
vt 0.929383 0.095078
vt 0.931039 0.087253
vt 0.94099 0.082976
vt 0.953101 0.07411
vt 0.953101 0.07411
vt 0.968336 0.068395
vt 0.958053 0.075995
vt 0.972811 0.06806
vt 0.978302 0.062829
vt 0.975926 0.068342
vt 0.981568 0.063053
vt 0.972811 0.06806
vt 0.962999 0.075668
vt 0.966707 0.075722
vt 0.944097 0.09536
vt 0.941636 0.094363
vt 0.926913 0.121301
vt 0.923648 0.121076
vt 0.919645 0.140207
vt 0.923648 0.121076
vt 0.91638 0.139983
vt 0.913125 0.170764
vt 0.910266 0.170141
vt 0.912769 0.199035
vt 0.909503 0.198811
vt 0.917255 0.225981
vt 0.914265 0.22638
vt 0.927132 0.25767
vt 0.924372 0.258183
vt 0.94826 0.284569
vt 0.944141 0.285301
vt 0.954716 0.290478
vt 0.95017 0.29063
vt 0.95017 0.29063
vt 0.975921 0.310704
vt 0.980998 0.30932
vt 0.945331 0.290792
vt 0.925376 0.291254
vt 0.940065 0.287211
vt 0.95017 0.29063
vt 0.975921 0.310704
vt 0.970386 0.30793
vt 0.934598 0.300532
vt 0.930213 0.296115
vt 0.899525 0.304892
vt 0.896937 0.301094
vt 0.836006 0.315609
vt 0.837582 0.320295
vt 0.764412 0.343235
vt 0.765443 0.347795
vt 0.710333 0.378512
vt 0.70961 0.373055
vt 0.668203 0.403296
vt 0.930213 0.296115
vt 0.925376 0.291254
vt 0.945331 0.290792
vt 0.5 0.385493
vt 0.634243 0.389557
vt 0.5 0.389557
vt 0.631194 0.385493
vt 0.365758 0.389557
vt 0.368806 0.385493
vt 0.5 0.374514
vt 0.631194 0.385493
vt 0.626462 0.374514
vt 0.368806 0.385493
vt 0.373538 0.374514
vt 0.65426 0.205615
vt 0.634959 0.21902
vt 0.631202 0.217801
vt 0.657292 0.207497
vt 0.634959 0.21902
vt 0.63636 0.38533
vt 0.634959 0.21902
vt 0.657292 0.207497
vt 0.657292 0.207497
vt 0.639581 0.22052
vt 0.634959 0.21902
vt 0.631202 0.217801
vt 0.631194 0.385493
vt 0.622297 0.21481
vt 0.622297 0.21481
vt 0.631194 0.385493
vt 0.626462 0.374514
vt 0.368798 0.217801
vt 0.365041 0.21902
vt 0.34574 0.205615
vt 0.342708 0.207497
vt 0.027189 0.06806
vt 0.02596 0.06323
vt 0.031664 0.068395
vt 0.027189 0.06806
vt 0.024074 0.068342
vt 0.021698 0.062829
vt 0.027189 0.06806
vt 0.018433 0.063053
vt 0.033293 0.075722
vt 0.037001 0.075668
vt 0.055903 0.09536
vt 0.058364 0.094363
vt 0.073087 0.121301
vt 0.076352 0.121076
vt 0.027189 0.06806
vt 0.076352 0.121076
vt 0.080354 0.140207
vt 0.08362 0.139983
vt 0.086875 0.170764
vt 0.089735 0.170141
vt 0.087231 0.199035
vt 0.090497 0.198811
vt 0.082745 0.225981
vt 0.085735 0.22638
vt 0.072868 0.25767
vt 0.075628 0.258183
vt 0.05174 0.284569
vt 0.055859 0.285301
vt 0.045285 0.290478
vt 0.04983 0.29063
vt 0.024079 0.310704
vt 0.04983 0.29063
vt 0.019002 0.30932
vt 0.342708 0.207497
vt 0.365041 0.21902
vt 0.36364 0.38533
vt 0.365041 0.21902
vt 0.365041 0.21902
vt 0.360419 0.22052
vt 0.342708 0.207497
vt 0.09053 0.122298
vt 0.125331 0.106121
vt 0.070617 0.095078
vt 0.197416 0.127839
vt 0.068961 0.087253
vt 0.070617 0.095078
vt 0.05901 0.082976
vt 0.0469 0.07411
vt 0.0469 0.07411
vt 0.031664 0.068395
vt 0.041947 0.075995
vt 0.059936 0.287211
vt 0.074624 0.291254
vt 0.054669 0.290792
vt 0.04983 0.29063
vt 0.024079 0.310704
vt 0.029614 0.30793
vt 0.065402 0.300532
vt 0.069787 0.296115
vt 0.099347 0.30328
vt 0.101935 0.299482
vt 0.163995 0.315609
vt 0.162418 0.320295
vt 0.235588 0.343235
vt 0.234557 0.347795
vt 0.289668 0.378512
vt 0.29039 0.373055
vt 0.331797 0.403296
vt 0.054669 0.290792
vt 0.074624 0.291254
vt 0.069787 0.296115
vt 0.373538 0.374514
vt 0.368806 0.385493
vt 0.377703 0.21481
vt 0.377703 0.21481
vt 0.368806 0.385493
vt 0.368798 0.217801
vn 0 1 0
vn 0.3425881 0.8923177 0.293943
vn 0.3891729 0.8657242 0.3147476
vn 0.4131842 0.7868824 0.4583611
vn 0.4709213 0.8356184 0.2827987
vn 0.4961034 0.8659253 -0.06367814
vn 0.3970012 0.91027 -0.1174673
vn 0.5731448 0.8192192 -0.01961939
vn 0.5420394 0.8329641 0.1111939
vn -0.1458247 0.9647855 -0.2189157
vn 0 1 0
vn -0.1285126 0.9517453 -0.2786851
vn 0 1 0
vn -0.09033675 0.9437352 -0.3181245
vn -0.03818382 0.9821523 -0.1841709
vn 0 1 0
vn -0.3903305 0.8943321 0.21866
vn -0.3850636 0.9148654 -0.1214377
vn -0.3663689 0.9260656 0.090422
vn 0 1 0
vn 0 1 0
vn 0 1 0
vn 0 1 0
vn -0.4547122 0.8896035 0.04292362
vn 0 1 0
vn -0.4607677 0.8859046 -0.05353553
vn 0 1 0
vn -0.2204862 0.9734019 -0.06224689
vn 0.08765377 0.9507509 0.2973036
vn 0.1435009 0.8618719 0.4863992
vn 0.1144364 0.9207869 0.3729018
vn 0 1 0
vn 0 1 0
vn 0.1097388 0.9287867 0.3539955
vn 0 1 0
vn 0.1608996 0.9319557 0.3249151
vn 0 1 0
vn 0.1825769 0.8016815 0.5691859
vn 0.08804729 0.8914998 0.4443825
vn 0.161996 0.8193126 0.5499854
vn 0.1671354 0.8313401 0.5300373
vn 0.2734982 0.8332365 0.4805367
vn 0.2714296 0.9287564 0.252463
vn 0.4551878 0.8254808 0.333745
vn 0.476467 0.8729089 0.1049249
vn 0.5803649 0.8037098 0.1312517
vn 0.6382089 0.7516828 0.1663203
vn 0.3326109 0.9388721 0.08882081
vn 0 1 0
vn 0 1 0
vn 0 1 0
vn 0 1 0
vn 0 1 0
vn 0.05334663 0.9975575 0.04508907
vn -0.05870469 0.9981157 0.01785904
vn -0.1262471 0.9880295 -0.08865233
vn -0.7289286 0.6598193 -0.1824879
vn -0.5419332 0.6186558 -0.5688351
vn -0.8722466 0.3346052 -0.3566867
vn -0.5788196 0.3285376 -0.746345
vn -0.5937681 0.5055733 -0.6259674
vn -0.7851034 0.3929935 -0.4787156
vn -0.9452229 0.3046483 -0.1172314
vn -0.8000675 0.5720641 -0.1806507
vn -0.3648699 0.9293936 -0.05565502
vn -0.07381877 0.9959848 0.05064832
vn -0.816169 0.3774629 -0.4374813
vn -0.5786767 0.6871043 -0.4393416
vn -0.1154368 0.9926738 -0.03567799
vn -0.000161445 0.9982728 -0.05875
vn -0.3302939 0.7049783 -0.6276236
vn 0.001080865 0.9987025 -0.05091343
vn -0.2114461 0.7007889 -0.6813117
vn -0.006283287 0.9990626 -0.04283171
vn -0.1986715 0.6926371 -0.6933854
vn -0.01427259 0.9990495 -0.04118654
vn -0.2189043 0.6846974 -0.6951764
vn -0.005633848 0.9992219 -0.03903723
vn -0.2166057 0.7082053 -0.6719577
vn 0.04282084 0.9972212 0.06096042
vn -0.08152276 0.9551393 -0.2847156
vn -0.226956 0.6549634 -0.7207732
vn -0.0784504 0.9534006 -0.2913292
vn -0.1994225 0.6658559 -0.7189344
vn -0.2660681 0.4530664 -0.8508458
vn -0.273366 0.4526938 -0.848728
vn -0.2680915 0.4155898 -0.8691445
vn -0.2330129 0.3939649 -0.8890988
vn -0.05264574 0.4124237 -0.9094698
vn 0.03488784 0.5763291 -0.8164727
vn -0.1428451 0.9687178 -0.2029314
vn 0.3140742 0.4502156 -0.8358609
vn 0.395808 0.4643562 -0.7922811
vn 0.09909228 0.9943245 -0.03872338
vn 0.2213909 0.9732968 0.06065756
vn -0.2358885 0.4763457 -0.847025
vn -0.2821315 0.4753517 -0.8333321
vn -0.4973636 0.4440267 -0.7452983
vn -0.08970357 0.9959165 0.010173
vn -0.2568538 0.9309279 -0.2596139
vn -0.2845281 0.9188877 -0.2732929
vn 0.02813754 0.9995669 -0.008616427
vn 0.07912463 0.9953867 0.0542659
vn -0.1994225 0.6658559 -0.7189344
vn -0.005450163 0.9968764 -0.07878897
vn -0.3096677 0.9321924 -0.1874125
vn 0.1284325 0.9145734 0.3834848
vn -0.15282 0.9828892 -0.1028332
vn -0.06111422 0.9952837 -0.07533625
vn -0.1871485 0.9556616 0.2273462
vn -0.6430347 0.7119281 -0.2822494
vn -0.2723722 0.9566836 0.1028109
vn -0.4668484 0.84785 -0.251402
vn -0.5510141 0.8153111 -0.1779079
vn -0.728691 0.6449577 -0.2303021
vn -0.5929195 0.8011163 -0.08160383
vn -0.8409218 0.4054856 -0.358374
vn -0.8269747 0.495108 -0.2664224
vn -0.7241142 0.6826348 -0.09832741
vn -0.5628474 0.7975991 -0.2168831
vn -0.5859047 0.810142 0.01963926
vn -0.7078679 0.7048722 0.04558754
vn -0.4766711 0.8655645 -0.1535668
vn -0.6960223 0.6986647 0.1655921
vn -0.6290342 0.7191167 0.2952746
vn -0.5027097 0.6817444 0.5315143
vn -0.5257791 0.7517982 0.3979395
vn -0.579257 0.8048423 0.1291904
vn -0.5738316 0.777371 0.2577041
vn -0.4254647 0.8365771 0.3451355
vn -0.1604248 0.8154716 0.5561203
vn 0.3369397 0.9345724 0.1142194
vn 0.3970012 0.91027 -0.1174673
vn 0.4656211 0.8533237 0.2345965
vn 0.2522126 0.7635083 0.5945116
vn 0.1984067 0.8272916 0.5255696
vn 0 0.654845 0.7557632
vn 0 0.8269879 0.5622199
vn 0.02223759 0.9729153 0.2300899
vn 0 0.5495798 0.8354412
vn 0.1126292 0.9897611 0.08767964
vn 0.01362757 0.9971112 -0.07472342
vn -0.3375278 0.8357074 -0.4332068
vn 0.0510828 0.9986732 -0.006520288
vn -0.5692798 0.8094218 -0.1440726
vn -0.5729501 0.8064726 -0.146048
vn -0.1984061 0.8272898 0.5255728
vn -0.252211 0.7635084 0.5945119
vn -0.5420368 0.8329659 0.1111931
vn -0.4656211 0.8533239 0.234596
vn -0.02224138 0.9729144 0.230093
vn -0.1126262 0.9897611 0.08768275
vn -0.05107728 0.9986734 -0.006522757
vn 0.5692818 0.8094205 -0.1440714
vn 0.5729548 0.8064692 -0.146049
vn -0.01362989 0.9971112 -0.07472195
vn 0.337531 0.8357065 -0.433206
vn -0.08956912 0.9867787 -0.1350742
vn -0.2189763 0.975726 0.002868042
vn 0.2189841 0.9757242 0.002867793
vn 0.08957211 0.9867783 -0.1350754
vn -0.3970013 0.9102699 -0.117469
vn -0.3369394 0.9345726 0.1142185
vn -0.573145 0.8192191 -0.0196249
vn -0.4961037 0.865925 -0.06367949
vn -0.4709215 0.8356183 0.2827986
vn -0.3425879 0.8923177 0.2939436
vn -0.4131829 0.7868807 0.4583652
vn -0.3891715 0.8657247 0.3147479
vn 0 1 0
vn -0.3970013 0.9102699 -0.117469
vn 0.1458244 0.9647857 -0.2189151
vn 0 1 0
vn 0.1285125 0.9517453 -0.278685
vn 0 1 0
vn 0.09457537 0.943961 -0.3162171
vn 0.03589939 0.982005 -0.1854113
vn 0 1 0
vn 0.3903304 0.8943326 0.218658
vn 0.3663683 0.9260659 0.09042261
vn 0 1 0
vn 0 1 0
vn 0.4547106 0.8896043 0.04292388
vn 0 1 0
vn 0.4607676 0.8859047 -0.05353602
vn 0 1 0
vn 0.2204866 0.9734017 -0.06224829
vn -0.08765385 0.9507509 0.2973037
vn -0.1144365 0.9207869 0.3729018
vn 0 1 0
vn -0.1097388 0.9287867 0.3539954
vn 0 1 0
vn -0.1608992 0.9319557 0.3249153
vn -0.1671355 0.8313402 0.5300371
vn -0.2734976 0.8332371 0.4805362
vn 0.006283276 0.9990626 -0.04283171
vn 0.01427193 0.9990496 -0.04118423
vn 0.1986716 0.6926375 -0.6933851
vn 0.2114462 0.7007888 -0.6813117
vn -0.001079888 0.9987024 -0.05091485
vn 0.3302936 0.7049787 -0.6276234
vn 0.0001632758 0.9982727 -0.05875061
vn 0.578676 0.6871052 -0.439341
vn 0.1154326 0.9926744 -0.03567727
vn 0.800068 0.5720642 -0.1806481
vn 0.2189037 0.6846995 -0.6951747
vn 0.00563223 0.999222 -0.03903229
vn 0.216605 0.7082076 -0.6719556
vn -0.04282257 0.9972209 0.06096504
vn 0.08152119 0.9551407 -0.2847114
vn 0.2269542 0.6549642 -0.7207731
vn 0.07845043 0.953401 -0.2913283
vn 0.1994184 0.6658584 -0.718933
vn -0.5803632 0.8037111 0.1312523
vn -0.4551858 0.8254819 0.3337447
vn -0.4764669 0.8729089 0.1049245
vn -0.2714295 0.9287562 0.2524635
vn 0 1 0
vn 0 1 0
vn 0 1 0
vn 0 1 0
vn 0 1 0
vn 0 1 0
vn 0 1 0
vn 0 1 0
vn -0.3326107 0.9388723 0.08881939
vn -0.6382123 0.75168 0.1663195
vn 0 1 0
vn -0.05335731 0.9975569 0.04509129
vn 0.05870171 0.9981158 0.01785711
vn -0.09909686 0.9943241 -0.03872444
vn -0.2214016 0.9732944 0.06065853
vn 0.7289234 0.6598233 -0.1824934
vn 0.1262435 0.9880299 -0.08865453
vn 0.5419279 0.6186541 -0.5688419
vn 0.872241 0.3346076 -0.3566981
vn 0.5788168 0.3285373 -0.7463474
vn 0.5937691 0.505572 -0.6259676
vn 0.7851038 0.3929936 -0.478715
vn 0.945223 0.3046489 -0.1172283
vn 0.3648683 0.9293944 -0.05565304
vn 0.07381094 0.9959852 0.05065224
vn 0.8161692 0.3774646 -0.4374796
vn 0.497363 0.4440284 -0.7452978
vn 0.2821313 0.4753521 -0.8333321
vn 0.2358887 0.4763452 -0.8470253
vn 0.2660681 0.4530656 -0.8508462
vn 0.2733663 0.4526919 -0.848729
vn 0.2680881 0.4155897 -0.8691456
vn 0.2330096 0.3939632 -0.8891004
vn 0.05263781 0.4124236 -0.9094703
vn -0.03490109 0.5763347 -0.8164682
vn 0.1428407 0.9687195 -0.2029261
vn -0.3140859 0.4502163 -0.835856
vn -0.3958198 0.464356 -0.7922753
vn 0.2568515 0.9309295 -0.2596104
vn 0.08970366 0.9959165 0.0101722
vn 0.2845252 0.9188896 -0.2732898
vn 0.3096639 0.9321942 -0.1874094
vn 0.06111425 0.9952837 -0.07533603
vn -0.1284317 0.9145742 0.3834831
vn 0.1871467 0.955662 0.2273462
vn 0.1528189 0.9828896 -0.1028316
vn 0.4668409 0.8478549 -0.2513998
vn 0.6430292 0.7119331 -0.2822493
vn 0.5510046 0.8153179 -0.1779065
vn 0.2723699 0.9566841 0.1028111
vn 0.7286863 0.644963 -0.2303019
vn 0.8409218 0.4054859 -0.3583736
vn 0.826977 0.4951037 -0.2664232
vn 0.7241105 0.6826388 -0.09832741
vn 0.5628448 0.7976018 -0.2168806
vn 0.5929013 0.8011298 -0.08160283
vn 0.5859035 0.8101428 0.01964163
vn 0.7078683 0.7048717 0.04558896
vn 0.4766731 0.8655633 -0.1535675
vn 0.6960224 0.6986641 0.1655933
vn 0.6290395 0.7191117 0.2952754
vn 0.5027047 0.6817485 0.5315138
vn 0.5257799 0.7517995 0.397936
vn 0.5792536 0.804845 0.1291892
vn 0.5738442 0.7773597 0.2577108
vn 0.425465 0.8365771 0.3451355
vn 0.1604165 0.8154751 0.5561178
vn 0.3761652 0.9175155 -0.1290933
vn 0.1095285 0.8281416 -0.5497135
vn 0.1687776 0.8528558 -0.4941165
vn 0.2169748 0.8564237 -0.468466
vn 0.2725116 0.8516747 -0.4476467
vn 0.2998132 0.8623225 -0.4080588
vn 0.2516553 0.9215143 -0.2957718
vn 0.471155 0.8337477 -0.2878847
vn -0.1128986 0.9767129 -0.1824444
vn -0.1085258 0.9709675 -0.2131766
vn 0.1085264 0.9709671 -0.2131785
vn 0.1128992 0.9767124 -0.1824459
vn -0.2725131 0.8516731 -0.4476489
vn -0.2169746 0.8564237 -0.4684661
vn -0.1653621 0.852887 -0.4952163
vn -0.1163128 0.830703 -0.5444298
vn -0.2637737 0.9210904 -0.2863843
vn -0.48109 0.8319693 -0.2763683
vn -0.2998134 0.8623223 -0.408059
vn -0.009415514 0.9464884 0.3226004
vn 0.2270123 0.8376855 0.4967377
vn 0.1284325 0.9145734 0.3834848
vn 0.237878 0.82516 0.512372
vn 0.04535962 0.9988475 0.01569172
vn 0.1243422 0.9573676 0.2607418
vn -0.04778222 0.9957187 0.0791282
vn 0.2700129 0.9246145 0.2686651
vn 0.5163807 0.7482193 0.4165559
vn 0.4735105 0.7098581 0.5214301
vn 0.5196345 0.745564 0.4172699
vn 0.3372696 0.8155033 0.4703228
vn 0.4439979 0.6866766 0.5756224
vn 0.4402233 0.6926466 0.5713527
vn 0.4990108 0.7211691 0.4805241
vn 0.5257221 0.7366226 0.425445
vn 0.558296 0.7659084 0.3188885
vn 0.5590492 0.7850875 0.2666488
vn 0.5735916 0.7974489 0.1872641
vn 0.3770364 0.911873 0.162269
vn 0.5915405 0.7909483 0.1564627
vn 0.6165097 0.7826035 0.08629891
vn 0.6195405 0.7833676 0.05004694
vn 0.6102619 0.7918031 -0.02506566
vn 0.6008345 0.7968734 -0.06317256
vn 0.6030834 0.7868909 -0.1307409
vn 0.6125728 0.7732694 -0.1637345
vn 0.593611 0.7569693 -0.2731727
vn 0.5392009 0.7800756 -0.3174026
vn 0.4611526 0.7947247 -0.3946529
vn 0.4122877 0.8171653 -0.4028147
vn 0.4435738 0.8772824 -0.1833513
vn 0.4525485 0.8692696 -0.1989228
vn 0.2075343 0.9782245 -0.002493266
vn 0.4538852 0.8863348 0.09164622
vn 0.4397816 0.891384 0.1096667
vn -0.4439479 0.5135952 0.734255
vn -0.6502424 0.5787768 0.4921404
vn -0.5027097 0.6817444 0.5315143
vn -0.35341 0.6787834 0.6437038
vn -0.4145602 0.3405262 0.8439087
vn -0.3906299 0.3374727 0.8564581
vn -0.1648924 0.6018347 0.7814125
vn -0.2453801 0.7577762 0.6046188
vn 0.100538 0.8039761 0.5861012
vn 0.09592753 0.8067988 0.5829869
vn 0.1503251 0.8394986 0.5221538
vn 0.1708852 0.8457192 0.5055267
vn 0.2260383 0.8438453 0.4866536
vn 0.2351757 0.8314954 0.5032969
vn 0.2769147 0.8551512 0.4382175
vn 0.2767562 0.8538169 0.4409112
vn 0.3369397 0.9345724 0.1142194
vn -0.2521252 0.8828577 0.3962264
vn -0.435167 0.8986317 0.05559644
vn -0.4439479 0.5135952 0.734255
vn 0 0.7699062 -0.6381571
vn 0.01634024 0.9698776 -0.2430443
vn 0 0.8805982 -0.4738637
vn -0.2006806 0.8540005 -0.4800109
vn -0.01634304 0.9698778 -0.243043
vn 0.2006842 0.854 -0.4800102
vn 0 0.4559443 -0.8900083
vn -0.07773967 0.7285978 -0.6805159
vn 0 0.4559443 -0.8900083
vn 0.07774168 0.7285984 -0.6805151
vn 0 0.4559443 -0.8900083
vn -0.5419332 0.6186558 -0.5688351
vn -0.02085037 0.9697505 -0.2432066
vn -0.5804346 0.6923375 -0.4286774
vn -0.2145311 0.9487303 -0.2321359
vn 0.1535891 0.9786392 -0.1366585
vn 0.1729776 0.9848878 -0.008641148
vn 0.03034976 0.9929978 -0.1141676
vn -0.008017552 0.9901587 0.1397192
vn 0.2847284 0.8748277 0.3919265
vn 0.4709213 0.8356184 0.2827987
vn 0.1985414 0.9709735 0.133386
vn -0.5804346 0.6923375 -0.4286774
vn -0.6629218 0.7461122 -0.06205691
vn -0.8899254 0.3369996 -0.3073502
vn -0.9554997 0.2947142 0.01280114
vn -0.7414157 0.6710459 -0.0004941907
vn -0.9788342 0.2030565 0.025527
vn 0.5804379 0.6923348 -0.4286775
vn 0.02085321 0.96975 -0.2432079
vn 0.5419279 0.6186541 -0.5688419
vn 0.2145268 0.9487308 -0.2321384
vn 0.005447011 0.9968767 -0.07878569
vn 0.1994184 0.6658584 -0.718933
vn -0.02813637 0.999567 -0.008617916
vn -0.07912683 0.9953864 0.05426745
vn -0.473517 0.7098499 0.5214353
vn -0.5163859 0.7482178 0.4165524
vn -0.2700116 0.924616 0.2686617
vn -0.5196463 0.745557 0.4172678
vn -0.4402412 0.6926144 0.5713781
vn -0.4440095 0.6866568 0.575637
vn -0.4990283 0.7211473 0.4805386
vn -0.5257311 0.7366119 0.4254523
vn -0.5582995 0.765905 0.3188905
vn -0.5590397 0.7850953 0.2666458
vn -0.3372682 0.8155064 0.4703186
vn -0.3770282 0.9118768 0.1622664
vn -0.5735763 0.7974603 0.1872628
vn -0.5915384 0.7909495 0.1564647
vn -0.6165263 0.7825902 0.08630206
vn -0.6195673 0.7833463 0.05004942
vn -0.6102811 0.7917883 -0.02506674
vn -0.6008487 0.7968623 -0.06317567
vn -0.6031009 0.7868764 -0.1307474
vn -0.6125814 0.7732622 -0.1637366
vn -0.5936087 0.756973 -0.2731676
vn -0.5391963 0.7800806 -0.3173985
vn -0.4611557 0.7947192 -0.3946604
vn -0.4122953 0.817154 -0.4028298
vn -0.4435783 0.8772779 -0.1833624
vn -0.4525511 0.8692666 -0.1989294
vn -0.4538883 0.8863335 0.09164228
vn -0.20754 0.9782234 -0.002500682
vn -0.4397842 0.8913831 0.1096635
vn 0.008014096 0.9901591 0.1397169
vn -0.03034742 0.9929978 -0.1141686
vn -0.1729732 0.9848886 -0.008644073
vn -0.1535885 0.9786392 -0.1366596
vn -0.1985392 0.9709738 0.1333863
vn -0.4709215 0.8356183 0.2827986
vn -0.2847243 0.8748265 0.3919319
vn -0.143501 0.8618718 0.4863995
vn -0.1825772 0.801681 0.5691864
vn -0.08804769 0.8914998 0.4443825
vn -0.1619961 0.8193125 0.5499857
vn -0.2270124 0.8376857 0.4967374
vn 0.009414343 0.9464884 0.3226006
vn -0.1284317 0.9145742 0.3834831
vn -0.2378788 0.825159 0.5123731
vn -0.04536087 0.9988474 0.01569488
vn -0.1243403 0.9573689 0.2607381
vn 0.04778299 0.9957188 0.07912621
vn 0.5027047 0.6817485 0.5315138
vn 0.6502444 0.5787777 0.4921368
vn 0.4439454 0.5135986 0.7342541
vn 0.3534015 0.6787888 0.6437027
vn 0.4145568 0.3405311 0.8439083
vn 0.3906274 0.3374757 0.856458
vn 0.1736789 0.5958453 0.7840944
vn 0.2592334 0.7491351 0.6095856
vn -0.09230909 0.8008876 0.591657
vn -0.08809936 0.804923 0.5868027
vn -0.1571923 0.8401281 0.5191101
vn -0.1741776 0.8457148 0.5044091
vn -0.2260373 0.8438471 0.486651
vn -0.2351743 0.8314976 0.5032941
vn -0.2769136 0.8551524 0.4382159
vn -0.2767561 0.8538169 0.4409113
vn -0.3369394 0.9345726 0.1142185
vn 0.4439454 0.5135986 0.7342541
vn 0.4282866 0.9022595 0.04998503
vn 0.2603817 0.8785807 0.4003715
vn 0.9788325 0.2030648 0.02552586
vn 0.7414164 0.6710451 -0.0004946159
vn 0.9554985 0.2947184 0.01280056
vn 0.8899243 0.3370025 -0.3073501
vn 0.6629237 0.7461108 -0.0620558
vn 0.5804379 0.6923348 -0.4286775
g EnemyTray_1_0
f 3/3/3 2/2/2 1/1/1
f 4/4/4 2/2/2 3/3/3
f 5/5/5 2/2/2 4/4/4
f 2/2/2 5/5/5 6/6/6
f 2/2/2 7/7/7 1/1/1
f 6/6/6 5/5/5 8/8/8
f 8/8/8 9/9/9 6/6/6
f 1/1/1 7/7/7 10/10/10
f 1/1/1 10/10/10 11/11/11
f 11/11/11 10/10/10 12/12/12
f 11/11/11 12/12/12 13/13/13
f 13/13/13 12/12/12 14/14/14
f 14/14/14 15/15/15 13/13/13
f 13/13/13 15/15/15 16/16/16
f 15/15/15 17/17/17 16/16/16
f 18/18/18 17/17/17 15/15/15
f 19/19/19 16/16/16 17/17/17
f 20/20/20 16/16/16 19/19/19
f 21/21/21 16/16/16 20/20/20
f 13/13/13 16/16/16 21/21/21
f 21/21/21 11/11/11 13/13/13
f 20/20/20 22/22/22 21/21/21
f 23/23/23 22/22/22 20/20/20
f 19/19/19 23/23/23 20/20/20
f 24/24/24 23/23/23 19/19/19
f 23/23/23 24/24/24 25/25/25
f 25/25/25 24/24/24 26/26/26
f 25/25/25 26/26/26 27/27/27
f 27/27/27 26/26/26 28/28/28
f 27/27/27 28/28/28 29/29/29
f 29/29/29 28/28/28 30/30/30
f 29/29/29 31/31/31 27/27/27
f 27/27/27 31/31/31 32/32/32
f 27/27/27 32/32/32 25/25/25
f 25/25/25 32/32/32 33/33/33
f 23/23/23 33/33/33 22/22/22
f 25/25/25 33/33/33 23/23/23
f 34/34/34 32/32/32 31/31/31
f 35/35/35 32/32/32 34/34/34
f 35/35/35 33/33/33 32/32/32
f 36/36/36 35/35/35 34/34/34
f 37/37/37 35/35/35 36/36/36
f 29/29/29 30/30/30 38/38/38
f 38/38/38 31/31/31 29/29/29
f 30/30/30 39/39/39 38/38/38
f 40/40/40 31/31/31 38/38/38
f 40/40/40 34/34/34 31/31/31
f 41/41/41 34/34/34 40/40/40
f 41/41/41 36/36/36 34/34/34
f 42/42/42 36/36/36 41/41/41
f 42/42/42 43/43/43 36/36/36
f 36/36/36 43/43/43 37/37/37
f 44/44/44 43/43/43 42/42/42
f 44/44/44 45/45/45 43/43/43
f 46/46/46 45/45/45 44/44/44
f 46/46/46 47/47/47 45/45/45
f 45/45/45 47/47/47 48/48/48
f 37/37/37 43/43/43 49/49/49
f 43/43/43 45/45/45 49/49/49
f 49/49/49 45/45/45 50/50/50
f 45/45/45 48/48/48 50/50/50
f 37/37/37 49/49/49 51/51/51
f 35/35/35 37/37/37 51/51/51
f 51/51/51 33/33/33 35/35/35
f 51/51/51 52/52/52 33/33/33
f 51/51/51 49/49/49 52/52/52
f 49/49/49 50/50/50 52/52/52
f 33/33/33 52/52/52 22/22/22
f 52/52/52 53/53/53 22/22/22
f 52/52/52 50/50/50 53/53/53
f 22/22/22 53/53/53 21/21/21
f 53/53/53 11/11/11 21/21/21
f 53/53/53 1/1/1 11/11/11
f 50/50/50 1/1/1 53/53/53
f 50/50/50 48/48/48 1/1/1
f 1/1/1 48/48/48 3/3/3
f 47/47/47 3/3/3 48/48/48
f 4/4/4 3/3/3 47/47/47
f 54/54/54 4/4/4 47/47/47
f 55/55/55 4/4/4 54/54/54
f 57/57/57 56/56/56 54/54/54
f 58/58/58 56/56/56 57/57/57
f 59/59/59 58/58/58 57/57/57
f 60/60/60 58/58/58 59/59/59
f 60/60/60 61/61/61 58/58/58
f 62/62/62 61/61/61 60/60/60
f 59/59/59 57/57/57 63/63/63
f 63/63/63 57/57/57 64/64/64
f 64/64/64 57/57/57 65/65/65
f 65/65/65 57/57/57 66/66/66
f 63/63/63 64/64/64 67/67/67
f 67/67/67 64/64/64 68/68/68
f 64/64/64 69/69/69 68/68/68
f 68/68/68 69/69/69 70/70/70
f 68/68/68 70/70/70 71/71/71
f 71/71/71 70/70/70 72/72/72
f 71/71/71 72/72/72 73/73/73
f 73/73/73 72/72/72 74/74/74
f 73/73/73 74/74/74 75/75/75
f 75/75/75 74/74/74 76/76/76
f 75/75/75 76/76/76 77/77/77
f 77/77/77 76/76/76 78/78/78
f 77/77/77 78/78/78 79/79/79
f 79/79/79 78/78/78 80/80/80
f 81/81/81 79/79/79 80/80/80
f 82/82/82 79/79/79 81/81/81
f 83/83/83 82/82/82 81/81/81
f 84/84/84 82/82/82 83/83/83
f 74/74/74 41/41/41 76/76/76
f 74/74/74 42/42/42 41/41/41
f 72/72/72 42/42/42 74/74/74
f 72/72/72 44/44/44 42/42/42
f 70/70/70 44/44/44 72/72/72
f 70/70/70 46/46/46 44/44/44
f 69/69/69 46/46/46 70/70/70
f 85/85/85 75/75/75 77/77/77
f 85/85/85 77/77/77 86/86/86
f 86/86/86 77/77/77 79/79/79
f 86/86/86 79/79/79 87/87/87
f 87/87/87 79/79/79 82/82/82
f 87/87/87 82/82/82 88/88/88
f 88/88/88 82/82/82 84/84/84
f 88/88/88 84/84/84 89/89/89
f 89/89/89 84/84/84 90/90/90
f 90/90/90 84/84/84 91/91/91
f 89/89/89 90/90/90 92/92/92
f 92/92/92 90/90/90 93/93/93
f 46/46/46 94/94/94 47/47/47
f 47/47/47 94/94/94 95/95/95
f 96/96/96 75/75/75 85/85/85
f 96/96/96 73/73/73 75/75/75
f 97/97/97 73/73/73 96/96/96
f 97/97/97 71/71/71 73/73/73
f 98/98/98 71/71/71 97/97/97
f 98/98/98 68/68/68 71/71/71
f 67/67/67 68/68/68 98/98/98
f 100/100/100 91/91/91 99/99/99
f 100/100/100 99/99/99 101/101/101
f 99/99/99 103/103/103 102/102/102
f 105/105/105 104/104/104 102/102/102
f 99/99/99 107/107/107 106/106/106
f 101/101/101 108/108/108 106/106/106
f 101/101/101 106/106/106 109/109/109
f 106/106/106 107/107/107 110/110/110
f 106/106/106 112/112/112 111/111/111
f 113/113/113 106/106/106 111/111/111
f 113/113/113 111/111/111 114/114/114
f 114/114/114 111/111/111 115/115/115
f 114/114/114 115/115/115 116/116/116
f 111/111/111 117/117/117 115/115/115
f 115/115/115 117/117/117 118/118/118
f 115/115/115 118/118/118 119/119/119
f 116/116/116 115/115/115 119/119/119
f 111/111/111 120/120/120 117/117/117
f 116/116/116 119/119/119 121/121/121
f 121/121/121 119/119/119 122/122/122
f 119/119/119 26/26/26 122/122/122
f 119/119/119 123/123/123 26/26/26
f 122/122/122 26/26/26 24/24/24
f 122/122/122 24/24/24 124/124/124
f 124/124/124 24/24/24 19/19/19
f 124/124/124 19/19/19 125/125/125
f 125/125/125 19/19/19 17/17/17
f 125/125/125 17/17/17 126/126/126
f 126/126/126 17/17/17 127/127/127
f 121/121/121 122/122/122 128/128/128
f 128/128/128 122/122/122 124/124/124
f 128/128/128 124/124/124 129/129/129
f 129/129/129 124/124/124 125/125/125
f 129/129/129 125/125/125 130/130/130
f 130/130/130 125/125/125 126/126/126
f 130/130/130 126/126/126 131/131/131
f 133/133/133 9/9/9 132/132/132
f 9/9/9 135/135/135 134/134/134
f 136/136/136 135/135/135 9/9/9
f 137/137/137 135/135/135 136/136/136
f 137/137/137 136/136/136 138/138/138
f 138/138/138 136/136/136 139/139/139
f 140/140/140 135/135/135 137/137/137
f 141/141/141 136/136/136 9/9/9
f 142/142/142 136/136/136 141/141/141
f 143/143/143 142/142/142 141/141/141
f 9/9/9 144/144/144 141/141/141
f 144/144/144 145/145/145 141/141/141
f 145/145/145 144/144/144 146/146/146
f 138/138/138 147/147/147 137/137/137
f 147/147/147 148/148/148 137/137/137
f 137/137/137 148/148/148 140/140/140
f 149/149/149 148/148/148 147/147/147
f 150/150/150 148/148/148 149/149/149
f 151/151/151 147/147/147 138/138/138
f 149/149/149 147/147/147 152/152/152
f 152/152/152 153/153/153 149/149/149
f 152/152/152 154/154/154 153/153/153
f 155/155/155 153/153/153 154/154/154
f 152/152/152 147/147/147 156/156/156
f 152/152/152 156/156/156 157/157/157
f 146/146/146 159/159/159 158/158/158
f 161/161/161 160/160/160 155/155/155
f 163/163/163 149/149/149 162/162/162
f 165/165/165 149/149/149 164/164/164
f 164/164/164 166/166/166 165/165/165
f 165/165/165 166/166/166 167/167/167
f 168/168/168 167/167/167 166/166/166
f 169/169/169 167/167/167 168/168/168
f 170/170/170 167/167/167 169/169/169
f 170/170/170 171/171/171 167/167/167
f 172/172/172 171/171/171 170/170/170
f 173/173/173 172/172/172 170/170/170
f 174/174/174 172/172/172 173/173/173
f 175/175/175 174/174/174 173/173/173
f 176/176/176 174/174/174 175/175/175
f 175/175/175 177/177/177 176/176/176
f 178/178/178 177/177/177 175/175/175
f 178/178/178 179/179/179 177/177/177
f 179/179/179 178/178/178 180/180/180
f 180/180/180 178/178/178 181/181/181
f 181/181/181 182/182/182 180/180/180
f 180/180/180 182/182/182 183/183/183
f 184/184/184 183/183/183 182/182/182
f 185/185/185 183/183/183 184/184/184
f 186/186/186 185/185/185 184/184/184
f 187/187/187 185/185/185 186/186/186
f 188/188/188 187/187/187 186/186/186
f 186/186/186 189/189/189 188/188/188
f 190/190/190 189/189/189 186/186/186
f 184/184/184 190/190/190 186/186/186
f 189/189/189 190/190/190 191/191/191
f 191/191/191 190/190/190 192/192/192
f 191/191/191 192/192/192 193/193/193
f 191/191/191 193/193/193 194/194/194
f 194/194/194 193/193/193 195/195/195
f 194/194/194 195/195/195 196/196/196
f 197/197/197 194/194/194 196/196/196
f 197/197/197 196/196/196 198/198/198
f 198/198/198 196/196/196 199/199/199
f 196/196/196 200/200/200 199/199/199
f 196/196/196 195/195/195 200/200/200
f 199/199/199 200/200/200 201/201/201
f 200/200/200 202/202/202 201/201/201
f 201/201/201 202/202/202 203/203/203
f 202/202/202 204/204/204 203/203/203
f 203/203/203 204/204/204 205/205/205
f 206/206/206 197/197/197 198/198/198
f 207/207/207 197/197/197 206/206/206
f 208/208/208 207/207/207 206/206/206
f 209/209/209 207/207/207 208/208/208
f 209/209/209 208/208/208 210/210/210
f 210/210/210 208/208/208 211/211/211
f 210/210/210 211/211/211 212/212/212
f 212/212/212 211/211/211 213/213/213
f 202/202/202 214/214/214 204/204/204
f 215/215/215 214/214/214 202/202/202
f 200/200/200 215/215/215 202/202/202
f 215/215/215 216/216/216 214/214/214
f 217/217/217 216/216/216 215/215/215
f 195/195/195 217/217/217 215/215/215
f 193/193/193 217/217/217 195/195/195
f 218/218/218 217/217/217 193/193/193
f 193/193/193 192/192/192 218/218/218
f 219/219/219 218/218/218 192/192/192
f 192/192/192 220/220/220 219/219/219
f 220/220/220 221/221/221 219/219/219
f 222/222/222 221/221/221 220/220/220
f 222/222/222 220/220/220 182/182/182
f 181/181/181 222/222/222 182/182/182
f 223/223/223 222/222/222 181/181/181
f 181/181/181 178/178/178 223/223/223
f 223/223/223 178/178/178 175/175/175
f 175/175/175 173/173/173 223/223/223
f 182/182/182 220/220/220 184/184/184
f 220/220/220 190/190/190 184/184/184
f 190/190/190 220/220/220 192/192/192
f 222/222/222 224/224/224 221/221/221
f 223/223/223 224/224/224 222/222/222
f 223/223/223 173/173/173 224/224/224
f 224/224/224 225/225/225 221/221/221
f 224/224/224 170/170/170 225/225/225
f 173/173/173 170/170/170 224/224/224
f 170/170/170 226/226/226 225/225/225
f 169/169/169 226/226/226 170/170/170
f 225/225/225 226/226/226 216/216/216
f 226/226/226 227/227/227 216/216/216
f 226/226/226 169/169/169 227/227/227
f 216/216/216 227/227/227 214/214/214
f 225/225/225 216/216/216 228/228/228
f 228/228/228 216/216/216 217/217/217
f 228/228/228 217/217/217 218/218/218
f 219/219/219 228/228/228 218/218/218
f 221/221/221 228/228/228 219/219/219
f 221/221/221 225/225/225 228/228/228
f 227/227/227 169/169/169 168/168/168
f 227/227/227 168/168/168 229/229/229
f 229/229/229 168/168/168 230/230/230
f 227/227/227 231/231/231 214/214/214
f 232/232/232 231/231/231 227/227/227
f 229/229/229 234/234/234 233/233/233
f 233/233/233 234/234/234 235/235/235
f 233/233/233 235/235/235 236/236/236
f 236/236/236 235/235/235 237/237/237
f 235/235/235 238/238/238 237/237/237
f 237/237/237 238/238/238 239/239/239
f 240/240/240 233/233/233 236/236/236
f 205/205/205 233/233/233 240/240/240
f 241/241/241 233/233/233 205/205/205
f 242/242/242 233/233/233 241/241/241
f 243/243/243 205/205/205 240/240/240
f 203/203/203 205/205/205 243/243/243
f 244/244/244 203/203/203 243/243/243
f 201/201/201 203/203/203 244/244/244
f 245/245/245 201/201/201 244/244/244
f 199/199/199 201/201/201 245/245/245
f 246/246/246 199/199/199 245/245/245
f 198/198/198 199/199/199 246/246/246
f 247/247/247 198/198/198 246/246/246
f 206/206/206 198/198/198 247/247/247
f 248/248/248 206/206/206 247/247/247
f 208/208/208 206/206/206 248/248/248
f 249/249/249 208/208/208 248/248/248
f 211/211/211 208/208/208 249/249/249
f 250/250/250 211/211/211 249/249/249
f 213/213/213 211/211/211 250/250/250
f 251/251/251 213/213/213 250/250/250
f 252/252/252 213/213/213 251/251/251
f 253/253/253 213/213/213 252/252/252
f 254/254/254 252/252/252 251/251/251
f 255/255/255 252/252/252 254/254/254
f 257/257/257 253/253/253 256/256/256
f 258/258/258 257/257/257 256/256/256
f 260/260/260 259/259/259 258/258/258
f 259/259/259 261/261/261 257/257/257
f 262/262/262 261/261/261 259/259/259
f 259/259/259 263/263/263 258/258/258
f 265/265/265 259/259/259 264/264/264
f 266/266/266 265/265/265 264/264/264
f 265/265/265 267/267/267 259/259/259
f 268/268/268 265/265/265 266/266/266
f 268/268/268 269/269/269 265/265/265
f 270/270/270 269/269/269 268/268/268
f 271/271/271 270/270/270 268/268/268
f 269/269/269 272/272/272 265/265/265
f 273/273/273 268/268/268 266/266/266
f 271/271/271 268/268/268 273/273/273
f 274/274/274 271/271/271 273/273/273
f 275/275/275 271/271/271 274/274/274
f 275/275/275 185/185/185 271/271/271
f 185/185/185 276/276/276 271/271/271
f 183/183/183 185/185/185 275/275/275
f 277/277/277 183/183/183 275/275/275
f 180/180/180 183/183/183 277/277/277
f 278/278/278 180/180/180 277/277/277
f 179/179/179 180/180/180 278/278/278
f 279/279/279 179/179/179 278/278/278
f 280/280/280 179/179/179 279/279/279
f 281/281/281 275/275/275 274/274/274
f 277/277/277 275/275/275 281/281/281
f 282/282/282 277/277/277 281/281/281
f 278/278/278 277/277/277 282/282/282
f 283/283/283 278/278/278 282/282/282
f 279/279/279 278/278/278 283/283/283
f 284/284/284 279/279/279 283/283/283
f 177/177/177 179/179/179 285/285/285
f 177/177/177 286/286/286 176/176/176
f 176/176/176 286/286/286 287/287/287
f 176/176/176 287/287/287 174/174/174
f 174/174/174 287/287/287 288/288/288
f 289/289/289 174/174/174 288/288/288
f 172/172/172 174/174/174 289/289/289
f 289/289/289 290/290/290 172/172/172
f 177/177/177 291/291/291 286/286/286
f 286/286/286 291/291/291 292/292/292
f 172/172/172 294/294/294 293/293/293
f 296/296/296 295/295/295 10/10/10
f 297/297/297 12/12/12 10/10/10
f 298/298/298 12/12/12 297/297/297
f 298/298/298 299/299/299 12/12/12
f 12/12/12 299/299/299 14/14/14
f 299/299/299 300/300/300 14/14/14
f 14/14/14 300/300/300 15/15/15
f 300/300/300 301/301/301 15/15/15
f 302/302/302 301/301/301 300/300/300
f 10/10/10 303/303/303 297/297/297
f 305/305/305 38/38/38 304/304/304
f 306/306/306 305/305/305 304/304/304
f 306/306/306 307/307/307 305/305/305
f 80/80/80 38/38/38 305/305/305
f 305/305/305 308/308/308 80/80/80
f 78/78/78 38/38/38 80/80/80
f 78/78/78 40/40/40 38/38/38
f 76/76/76 40/40/40 78/78/78
f 76/76/76 41/41/41 40/40/40
f 306/306/306 309/309/309 307/307/307
f 310/310/310 309/309/309 306/306/306
f 313/313/313 312/312/312 311/311/311
f 314/314/314 312/312/312 313/313/313
f 316/316/316 313/313/313 315/315/315
f 317/317/317 313/313/313 316/316/316
f 317/317/317 316/316/316 318/318/318
f 318/318/318 316/316/316 319/319/319
f 318/318/318 319/319/319 320/320/320
f 320/320/320 319/319/319 321/321/321
f 320/320/320 323/323/323 322/322/322
f 322/322/322 323/323/323 324/324/324
f 322/322/322 324/324/324 325/325/325
f 325/325/325 324/324/324 326/326/326
f 325/325/325 326/326/326 327/327/327
f 327/327/327 326/326/326 328/328/328
f 327/327/327 328/328/328 329/329/329
f 329/329/329 328/328/328 330/330/330
f 329/329/329 330/330/330 331/331/331
f 331/331/331 330/330/330 332/332/332
f 331/331/331 332/332/332 333/333/333
f 333/333/333 332/332/332 334/334/334
f 333/333/333 334/334/334 335/335/335
f 335/335/335 334/334/334 336/336/336
f 338/338/338 335/335/335 337/337/337
f 339/339/339 335/335/335 338/338/338
f 342/342/342 341/341/341 340/340/340
f 343/343/343 342/342/342 340/340/340
f 340/340/340 344/344/344 343/343/343
f 345/345/345 344/344/344 340/340/340
f 345/345/345 340/340/340 346/346/346
f 346/346/346 340/340/340 347/347/347
f 346/346/346 347/347/347 348/348/348
f 348/348/348 347/347/347 349/349/349
f 350/350/350 348/348/348 349/349/349
f 351/351/351 348/348/348 350/350/350
f 352/352/352 351/351/351 350/350/350
f 353/353/353 351/351/351 352/352/352
f 353/353/353 352/352/352 354/354/354
f 354/354/354 352/352/352 355/355/355
f 134/134/134 354/354/354 355/355/355
f 135/135/135 354/354/354 356/356/356
f 359/359/359 358/358/358 357/357/357
f 362/362/362 361/361/361 360/360/360
f 360/360/360 361/361/361 363/363/363
f 360/360/360 364/364/364 362/362/362
f 365/365/365 364/364/364 360/360/360
f 367/367/367 366/366/366 360/360/360
f 368/368/368 366/366/366 367/367/367
f 360/360/360 366/366/366 369/369/369
f 369/369/369 366/366/366 370/370/370
f 373/373/373 372/372/372 371/371/371
f 371/371/371 372/372/372 374/374/374
f 376/376/376 8/8/8 375/375/375
f 8/8/8 376/376/376 9/9/9
f 377/377/377 8/8/8 5/5/5
f 378/378/378 5/5/5 4/4/4
f 381/381/381 380/380/380 379/379/379
f 384/384/384 383/383/383 382/382/382
f 387/387/387 386/386/386 385/385/385
f 390/390/390 389/389/389 388/388/388
f 391/391/391 389/389/389 390/390/390
f 394/394/394 393/393/393 392/392/392
f 394/394/394 395/395/395 257/257/257
f 398/398/398 397/397/397 396/396/396
f 396/396/396 397/397/397 399/399/399
f 401/401/401 396/396/396 400/400/400
f 402/402/402 401/401/401 400/400/400
f 403/403/403 401/401/401 402/402/402
f 404/404/404 403/403/403 402/402/402
f 405/405/405 403/403/403 404/404/404
f 406/406/406 396/396/396 401/401/401
f 408/408/408 407/407/407 404/404/404
f 409/409/409 407/407/407 408/408/408
f 410/410/410 409/409/409 408/408/408
f 411/411/411 409/409/409 410/410/410
f 412/412/412 411/411/411 410/410/410
f 413/413/413 411/411/411 412/412/412
f 414/414/414 413/413/413 412/412/412
f 415/415/415 413/413/413 414/414/414
f 416/416/416 415/415/415 414/414/414
f 417/417/417 415/415/415 416/416/416
f 418/418/418 417/417/417 416/416/416
f 419/419/419 417/417/417 418/418/418
f 420/420/420 419/419/419 418/418/418
f 421/421/421 419/419/419 420/420/420
f 423/423/423 420/420/420 422/422/422
f 422/422/422 420/420/420 424/424/424
f 168/168/168 166/166/166 425/425/425
f 166/166/166 164/164/164 426/426/426
f 428/428/428 164/164/164 427/427/427
f 149/149/149 427/427/427 164/164/164
f 431/431/431 430/430/430 429/429/429
f 195/195/195 215/215/215 200/200/200
f 432/432/432 187/187/187 188/188/188
f 188/188/188 433/433/433 432/432/432
f 432/432/432 433/433/433 434/434/434
f 188/188/188 189/189/189 433/433/433
f 433/433/433 189/189/189 435/435/435
f 189/189/189 191/191/191 435/435/435
f 435/435/435 191/191/191 194/194/194
f 433/433/433 435/435/435 207/207/207
f 209/209/209 433/433/433 207/207/207
f 436/436/436 433/433/433 209/209/209
f 436/436/436 437/437/437 433/433/433
f 437/437/437 436/436/436 438/438/438
f 436/436/436 439/439/439 438/438/438
f 209/209/209 440/440/440 436/436/436
f 207/207/207 435/435/435 197/197/197
f 435/435/435 194/194/194 197/197/197
f 439/439/439 441/441/441 438/438/438
f 438/438/438 441/441/441 442/442/442
f 445/445/445 444/444/444 443/443/443
f 445/445/445 443/443/443 446/446/446
f 446/446/446 447/447/447 445/445/445
f 445/445/445 447/447/447 448/448/448
f 449/449/449 445/445/445 448/448/448
f 450/450/450 445/445/445 449/449/449
f 451/451/451 450/450/450 449/449/449
f 452/452/452 450/450/450 451/451/451
f 452/452/452 451/451/451 453/453/453
f 453/453/453 451/451/451 454/454/454
f 453/453/453 454/454/454 455/455/455
f 455/455/455 454/454/454 456/456/456
f 457/457/457 455/455/455 456/456/456
f 458/458/458 455/455/455 457/457/457
f 458/458/458 457/457/457 150/150/150
f 459/459/459 457/457/457 148/148/148
f 462/462/462 461/461/461 460/460/460
f 465/465/465 464/464/464 463/463/463
f 468/468/468 467/467/467 466/466/466
