g GateTowers_Gate_mesh
v 1318.716 84.18041 -928.2212
v 1314.863 81.10562 -934.1382
v 1319.723 83.07802 -930.682
v 1317.979 79.58842 -934.8412
v 1325.571 84.71295 -928.8072
v 1318.716 84.18041 -928.2212
v 1324.3 80.40234 -931.2543
v 1325.571 84.71295 -928.8072
v 1319.601 75.02443 -922.5001
v 1318.716 84.18041 -928.2212
v 1322.728 75.90257 -923.6386
v 1321.596 59.04795 -912.3183
v 1319.601 75.02443 -922.5001
v 1317.217 72.80937 -926.0194
v 1318.716 84.18041 -928.2212
v 1321.596 59.04795 -912.3183
v 1314.863 81.10562 -934.1382
v 1324.3 80.40234 -931.2543
v 1318.716 84.18041 -928.2212
v 1319.723 83.07802 -930.682
v 1324.3 80.40234 -931.2543
v 1319.723 83.07802 -930.682
v 1319.576 187.3777 -1013.252
v 1314.006 188.6878 -1011.589
v 1319.723 83.07802 -930.682
v 1317.979 79.58842 -934.8412
v 1314.006 188.6878 -1011.589
v 1311.589 185.2821 -1016.017
v 1308.952 79.87429 -941.7178
v 1309.221 74.76522 -941.4338
v 1308.326 76.94479 -938.3835
v 1301.329 83.6167 -945.2767
v 1302.149 86.18404 -949.2913
v 1302.991 86.3341 -940.4613
v 1303.283 89.20451 -944.5167
v 1303.813 79.51614 -936.752
v 1302.43 77.13138 -942.5129
v 1302.759 83.08846 -950.1689
v 1302.195 81.68208 -947.9178
v 1302.317 78.42499 -945.0928
v 1303.031 84.59694 -951.1659
v 1302.149 86.18404 -949.2913
v 1307.483 87.21062 -946.3294
v 1303.283 89.20451 -944.5167
v 1311.247 85.47356 -948.2247
v 1303.031 84.59694 -951.1659
v 1311.498 83.90595 -946.9916
v 1307.483 87.21062 -946.3294
v 1311.247 85.47356 -948.2247
v 1308.927 83.13715 -944.4813
v 1307.076 84.61482 -942.1627
v 1308.952 79.87429 -941.7178
v 1308.326 76.94479 -938.3835
v 1303.283 89.20451 -944.5167
v 1302.991 86.3341 -940.4613
v 1303.813 79.51614 -936.752
v 1302.43 77.13138 -942.5129
v 1302.195 81.68208 -947.9178
v 1301.329 83.6167 -945.2767
v 1303.436 75.23467 -944.4797
v 1302.317 78.42499 -945.0928
v 1325.179 84.05868 -934.0803
v 1325.334 79.21234 -934.1443
v 1324.44 81.39187 -931.094
v 1315.86 87.83256 -938.1013
v 1316.68 90.39985 -942.1161
v 1318.29 90.63984 -932.9703
v 1318.583 93.51026 -937.0256
v 1319.113 83.82188 -929.2611
v 1316.967 80.45174 -934.6168
v 1317.435 86.70375 -943.8922
v 1316.726 85.8979 -940.7424
v 1316.848 82.64075 -937.9174
v 1317.707 88.21211 -944.8892
v 1316.68 90.39985 -942.1161
v 1323.71 91.39496 -938.6919
v 1318.583 93.51026 -937.0256
v 1325.778 89.68936 -941.0495
v 1317.707 88.21211 -944.8892
v 1326.03 88.12176 -939.8163
v 1323.71 91.39496 -938.6919
v 1325.778 89.68936 -941.0495
v 1325.154 87.32149 -936.8439
v 1323.303 88.79916 -934.5251
v 1325.179 84.05868 -934.0803
v 1324.44 81.39187 -931.094
v 1318.583 93.51026 -937.0256
v 1318.29 90.63984 -932.9703
v 1319.113 83.82188 -929.2611
v 1316.967 80.45174 -934.6168
v 1316.726 85.8979 -940.7424
v 1315.86 87.83256 -938.1013
v 1318.119 77.95464 -937.4822
v 1316.848 82.64075 -937.9174
v 1340.312 80.825 -923.7069
v 1341.327 83.21405 -921.2857
v 1335.526 85.39134 -923.9396
v 1335.526 85.39134 -923.9396
v 1341.327 83.21405 -921.2857
v 1334.1 84.87502 -920.0928
v 1329.238 190.4428 -1005.319
v 1340.312 80.825 -923.7069
v 1335.526 85.39134 -923.9396
v 1334.786 189.7454 -1006.538
v 1341.327 83.21405 -921.2857
v 1339.825 77.66706 -917.7759
v 1334.1 84.87502 -920.0928
v 1334.352 78.95614 -917.4968
v 1335.678 66.43559 -908.9803
v 1335.526 85.39134 -923.9396
v 1334.1 84.87502 -920.0928
v 1333.981 81.08402 -926.5884
v 1326.329 186.4276 -1010.089
v 1329.238 190.4428 -1005.319
v 1334.352 78.95614 -917.4968
v 1331.09 84.17493 -925.6125
v 1332.464 78.49761 -920.3362
v 1333.877 68.54192 -911.4568
v 1333.981 81.08402 -926.5884
v 1334.1 84.87502 -920.0928
v 1331.09 84.17493 -925.6125
v 1335.678 66.43559 -908.9803
v 1333.328 61.30573 -907.1601
v 1333.877 68.54192 -911.4568
v 1334.352 78.95614 -917.4968
v 1333.877 68.54192 -911.4568
v 1333.328 61.30573 -907.1601
v 1332.685 66.6701 -910.0804
v 1332.464 78.49761 -920.3362
v 1333.877 68.54192 -911.4568
v 1332.685 66.6701 -910.0804
v 1340.504 86.66664 -927.0222
v 1341.067 81.35239 -926.3055
v 1339.734 83.01131 -923.6256
v 1331.482 89.55537 -930.6485
v 1332.303 92.12267 -934.6631
v 1333.913 92.36256 -925.5174
v 1334.206 95.23302 -929.5726
v 1334.736 85.54455 -921.8082
v 1333.817 81.93785 -926.5903
v 1332.984 89.26907 -936.5184
v 1333.33 89.93494 -937.4362
v 1332.303 92.12267 -934.6631
v 1339.333 93.11773 -931.2391
v 1334.206 95.23302 -929.5726
v 1341.401 91.41207 -933.5965
v 1333.33 89.93494 -937.4362
v 1341.532 90.67947 -932.4645
v 1339.333 93.11773 -931.2391
v 1341.401 91.41207 -933.5965
v 1340.596 89.92969 -929.7019
v 1338.926 90.52197 -927.0722
v 1340.504 86.66664 -927.0222
v 1339.734 83.01131 -923.6256
v 1334.206 95.23302 -929.5726
v 1333.913 92.36256 -925.5174
v 1334.736 85.54455 -921.8082
v 1332.436 85.29355 -930.7382
v 1332.394 88.54414 -933.4955
v 1333.817 81.93785 -926.5903
v 1332.394 88.54414 -933.4955
v 1332.984 89.26907 -936.5184
v 1331.482 89.55537 -930.6485
v 1333.817 81.93785 -926.5903
v 1334.655 79.98806 -929.5864
v 1332.436 85.29355 -930.7382
v 1291.546 82.01896 -955.7086
v 1356.816 92.40434 -925.7622
v 1290.149 81.02718 -952.6693
v 1355.111 91.55451 -923.4439
v 1354.105 88.14474 -921.1984
v 1289.548 77.62363 -950.1413
v 1290.428 72.7225 -949.7877
v 1354.982 82.42957 -920.2333
v 1340.19 101.8184 -939.4896
v 1340.753 96.50437 -938.7729
v 1339.42 98.16314 -936.093
v 1338.612 105.6739 -939.5398
v 1340.282 105.0815 -942.1693
v 1339.019 108.2696 -943.7066
v 1341.219 105.8313 -944.932
v 1333.892 110.3849 -942.0403
v 1333.599 107.5144 -937.9849
v 1334.422 100.6963 -934.2757
v 1339.019 108.2696 -943.7066
v 1340.716 106.2133 -945.8324
v 1331.169 104.7072 -943.1161
v 1331.99 107.2744 -947.1306
v 1333.599 107.5144 -937.9849
v 1333.892 110.3849 -942.0403
v 1334.422 100.6963 -934.2757
v 1332.721 97.26593 -938.456
v 1332.671 104.421 -948.9859
v 1333.017 105.0868 -949.9036
v 1332.122 100.4454 -943.2056
v 1332.08 103.6959 -945.9631
v 1331.99 107.2744 -947.1306
v 1339.019 108.2696 -943.7066
v 1333.892 110.3849 -942.0403
v 1340.716 106.2133 -945.8324
v 1333.017 105.0868 -949.9036
v 1332.08 103.6959 -945.9631
v 1332.671 104.421 -948.9859
v 1331.169 104.7072 -943.1161
v 1332.721 97.26593 -938.456
v 1334.341 95.13981 -942.0539
v 1332.122 100.4454 -943.2056
v 1292.048 98.95148 -967.8947
v 1356.621 108.3163 -937.2071
v 1290.651 97.95971 -964.8556
v 1354.949 107.8143 -935.1225
v 1353.943 104.4045 -932.8771
v 1290.129 95.40978 -962.901
v 1291.044 90.87085 -962.7909
v 1354.944 100.0256 -932.8094
v 1324.865 99.21042 -946.5479
v 1325.021 94.36414 -946.6119
v 1324.126 96.54372 -943.5616
v 1315.546 102.9844 -950.569
v 1316.367 105.5516 -954.5835
v 1317.977 105.7916 -945.4379
v 1318.799 98.97367 -941.7287
v 1316.654 95.60362 -947.0843
v 1318.269 108.6621 -949.4931
v 1317.121 101.8555 -956.36
v 1316.412 101.0497 -953.21
v 1316.534 97.79259 -950.385
v 1317.394 103.364 -957.3566
v 1317.394 103.364 -957.3566
v 1325.442 104.2982 -953.0963
v 1316.367 105.5516 -954.5835
v 1323.373 106.0039 -950.7388
v 1325.716 103.2736 -952.284
v 1323.373 106.0039 -950.7388
v 1325.442 104.2982 -953.0963
v 1324.841 102.4733 -949.3115
v 1322.989 103.951 -946.9928
v 1324.865 99.21042 -946.5479
v 1324.126 96.54372 -943.5616
v 1317.977 105.7916 -945.4379
v 1318.269 108.6621 -949.4931
v 1323.373 106.0039 -950.7388
v 1318.799 98.97367 -941.7287
v 1316.367 105.5516 -954.5835
v 1323.373 106.0039 -950.7388
v 1318.269 108.6621 -949.4931
v 1316.654 95.60362 -947.0843
v 1316.412 101.0497 -953.21
v 1315.546 102.9844 -950.569
v 1317.806 93.10638 -949.9497
v 1316.534 97.79259 -950.385
v 1310.188 95.31886 -953.534
v 1310.636 89.89883 -953.3924
v 1309.742 92.07832 -950.342
v 1301.015 98.76844 -957.7443
v 1301.836 101.3359 -961.7587
v 1302.677 101.4859 -952.9288
v 1302.97 104.3564 -956.984
v 1303.5 94.66793 -949.2196
v 1302.938 92.0838 -954.592
v 1302.445 98.24033 -962.6364
v 1301.881 96.83391 -960.3852
v 1302.717 99.74883 -963.6332
v 1301.836 101.3359 -961.7587
v 1308.899 102.3442 -958.288
v 1302.97 104.3564 -956.984
v 1310.934 100.6254 -960.6923
v 1302.717 99.74883 -963.6332
v 1311.185 99.05774 -959.4592
v 1308.899 102.3442 -958.288
v 1310.934 100.6254 -960.6923
v 1310.51 98.64718 -956.1519
v 1308.491 99.74839 -954.1211
v 1310.188 95.31886 -953.534
v 1309.742 92.07832 -950.342
v 1302.97 104.3564 -956.984
v 1302.677 101.4859 -952.9288
v 1303.5 94.66793 -949.2196
v 1302.825 93.37737 -957.1719
v 1301.881 96.83391 -960.3852
v 1302.938 92.0838 -954.592
v 1301.015 98.76844 -957.7443
v 1303.944 90.18723 -956.5587
v 1310.134 111.291 -965.1249
v 1310.582 105.8708 -964.9834
v 1309.688 108.0504 -961.9329
v 1300.96 114.7406 -969.3352
v 1301.781 117.3079 -973.3498
v 1302.623 117.458 -964.5197
v 1302.915 120.3284 -968.575
v 1303.445 110.64 -960.8105
v 1302.883 108.0558 -966.183
v 1302.391 114.2124 -974.2275
v 1301.827 112.806 -971.9762
v 1302.663 115.7208 -975.2241
v 1301.781 117.3079 -973.3498
v 1308.845 118.3161 -969.8788
v 1302.915 120.3284 -968.575
v 1310.879 116.5974 -972.2832
v 1302.663 115.7208 -975.2241
v 1311.13 115.0298 -971.0502
v 1308.845 118.3161 -969.8788
v 1310.879 116.5974 -972.2832
v 1310.456 114.6192 -967.7428
v 1308.437 115.7204 -965.712
v 1310.134 111.291 -965.1249
v 1309.688 108.0504 -961.9329
v 1302.915 120.3284 -968.575
v 1302.623 117.458 -964.5197
v 1303.445 110.64 -960.8105
v 1302.771 109.3495 -968.7627
v 1301.827 112.806 -971.9762
v 1302.883 108.0558 -966.183
v 1300.96 114.7406 -969.3352
v 1303.89 106.1591 -968.1496
v 1323.983 115.6916 -958.6738
v 1324.138 110.8453 -958.7377
v 1323.244 113.0249 -955.6873
v 1314.663 119.4654 -962.6947
v 1315.484 122.0328 -966.7092
v 1317.094 122.2727 -957.5636
v 1317.917 115.4547 -953.8546
v 1315.771 112.0848 -959.2101
v 1317.386 125.1432 -961.619
v 1316.239 118.3366 -968.4857
v 1315.53 117.5308 -965.3358
v 1315.652 114.2738 -962.5108
v 1316.511 119.8451 -969.4823
v 1316.511 119.8451 -969.4823
v 1324.559 120.7794 -965.2221
v 1315.484 122.0328 -966.7092
v 1322.491 122.4851 -962.8646
v 1324.833 119.7547 -964.4097
v 1322.491 122.4851 -962.8646
v 1324.559 120.7794 -965.2221
v 1323.958 118.9544 -961.4373
v 1322.107 120.4321 -959.1186
v 1323.983 115.6916 -958.6738
v 1323.244 113.0249 -955.6873
v 1317.094 122.2727 -957.5636
v 1317.386 125.1432 -961.619
v 1322.491 122.4851 -962.8646
v 1317.917 115.4547 -953.8546
v 1315.484 122.0328 -966.7092
v 1322.491 122.4851 -962.8646
v 1317.386 125.1432 -961.619
v 1315.771 112.0848 -959.2101
v 1315.53 117.5308 -965.3358
v 1314.663 119.4654 -962.6947
v 1316.923 109.5875 -962.0754
v 1315.652 114.2738 -962.5108
v 1291.87 115.4309 -979.6251
v 1355.626 125.2414 -948.7145
v 1290.473 114.4391 -976.5858
v 1353.696 124.2689 -946.4304
v 1352.69 120.8592 -944.1848
v 1289.951 111.8891 -974.6311
v 1290.866 107.3503 -974.5212
v 1353.715 116.1389 -943.8828
v 1338.984 118.1053 -951.9495
v 1339.547 112.7912 -951.2329
v 1338.214 114.45 -948.553
v 1337.406 121.9607 -951.9999
v 1339.076 121.3684 -954.6292
v 1337.813 124.5565 -956.1666
v 1340.013 122.1182 -957.392
v 1332.686 126.6717 -954.5001
v 1332.394 123.8013 -950.4449
v 1333.216 116.9832 -946.7357
v 1337.813 124.5565 -956.1666
v 1339.51 122.5002 -958.2924
v 1330.784 123.5613 -959.5905
v 1339.51 122.5002 -958.2924
v 1337.813 124.5565 -956.1666
v 1332.686 126.6717 -954.5001
v 1331.811 121.3737 -962.3635
v 1332.394 123.8013 -950.4449
v 1330.784 123.5613 -959.5905
v 1332.686 126.6717 -954.5001
v 1329.963 120.9941 -955.576
v 1333.216 116.9832 -946.7357
v 1331.515 113.5528 -950.9159
v 1331.465 120.7078 -961.4458
v 1331.811 121.3737 -962.3635
v 1330.916 116.7321 -955.6657
v 1330.874 119.9829 -958.4231
v 1330.874 119.9829 -958.4231
v 1331.465 120.7078 -961.4458
v 1329.963 120.9941 -955.576
v 1331.515 113.5528 -950.9159
v 1333.135 111.4267 -954.5137
v 1330.916 116.7321 -955.6657
v 1303.087 78.9324 -935.6162
v 1300.689 74.75768 -940.7453
v 1304.544 77.46288 -937.9766
v 1303.994 73.22289 -940.6686
v 1309.722 79.4047 -936.5407
v 1303.087 78.9324 -935.6162
v 1308.981 74.40511 -939.0557
v 1309.722 79.4047 -936.5407
v 1304.423 69.40948 -929.7948
v 1303.087 78.9324 -935.6162
v 1307.55 70.28748 -930.9332
v 1305.611 57.82071 -922.2276
v 1306.641 57.87088 -922.4566
v 1305.919 54.88502 -921.1703
v 1304.711 56.311 -922.5899
v 1304.423 69.40948 -929.7948
v 1308.981 74.40511 -939.0557
v 1303.087 78.9324 -935.6162
v 1304.544 77.46288 -937.9766
v 1304.544 77.46288 -937.9766
v 1309.432 80.10279 -943.1025
v 1304.327 82.87222 -942.1733
v 1309.35 183.0979 -1018.23
v 1301.048 183.6711 -1017.448
v 1304.423 69.40948 -929.7948
v 1302.04 67.19438 -933.3141
v 1303.087 78.9324 -935.6162
v 1300.689 74.75768 -940.7453
v 1304.711 56.311 -922.5899
v 1304.544 77.46288 -937.9766
v 1303.994 73.22289 -940.6686
v 1304.327 82.87222 -942.1733
v 1303.726 78.71725 -944.9632
v 1301.048 183.6711 -1017.448
v 1299.831 180.5509 -1021.431
v 1309.094 128.3403 -978.296
v 1309.542 122.9201 -978.1545
v 1308.648 125.0997 -975.104
v 1299.921 131.7899 -982.5063
v 1300.741 134.3572 -986.5209
v 1301.583 134.5072 -977.6908
v 1301.875 137.3777 -981.7461
v 1302.405 127.6893 -973.9816
v 1301.844 125.1051 -979.3541
v 1301.351 131.2616 -987.3986
v 1300.787 129.8553 -985.1473
v 1301.623 132.7701 -988.3952
v 1300.741 134.3572 -986.5209
v 1307.805 135.3654 -983.0499
v 1301.875 137.3777 -981.7461
v 1309.839 133.6466 -985.4543
v 1301.623 132.7701 -988.3952
v 1310.09 132.0791 -984.2213
v 1307.805 135.3654 -983.0499
v 1309.839 133.6466 -985.4543
v 1309.416 131.6684 -980.9139
v 1307.397 132.7697 -978.8831
v 1309.094 128.3403 -978.296
v 1308.648 125.0997 -975.104
v 1301.875 137.3777 -981.7461
v 1301.583 134.5072 -977.6908
v 1302.405 127.6893 -973.9816
v 1301.731 126.3988 -981.9338
v 1300.787 129.8553 -985.1473
v 1301.844 125.1051 -979.3541
v 1299.921 131.7899 -982.5063
v 1302.85 123.2084 -981.3207
v 1322.943 132.7408 -971.8449
v 1323.098 127.8946 -971.9088
v 1322.204 130.0742 -968.8584
v 1313.624 136.5147 -975.8658
v 1314.444 139.0821 -979.8803
v 1316.054 139.322 -970.7347
v 1316.877 132.504 -967.0257
v 1314.731 129.134 -972.3812
v 1316.347 142.1925 -974.7901
v 1315.199 135.3859 -981.6568
v 1314.49 134.5801 -978.5068
v 1314.612 131.3231 -975.6819
v 1315.471 136.8944 -982.6534
v 1315.471 136.8944 -982.6534
v 1323.519 137.8287 -978.3932
v 1314.444 139.0821 -979.8803
v 1321.451 139.5343 -976.0357
v 1323.793 136.8039 -977.5808
v 1321.451 139.5343 -976.0357
v 1323.519 137.8287 -978.3932
v 1322.918 136.0037 -974.6084
v 1321.067 137.4813 -972.2897
v 1322.943 132.7408 -971.8449
v 1322.204 130.0742 -968.8584
v 1316.054 139.322 -970.7347
v 1316.347 142.1925 -974.7901
v 1321.451 139.5343 -976.0357
v 1316.877 132.504 -967.0257
v 1314.444 139.0821 -979.8803
v 1321.451 139.5343 -976.0357
v 1316.347 142.1925 -974.7901
v 1314.731 129.134 -972.3812
v 1314.49 134.5801 -978.5068
v 1313.624 136.5147 -975.8658
v 1315.883 126.6368 -975.2465
v 1314.612 131.3231 -975.6819
v 1290.83 132.4802 -992.7962
v 1354.587 142.2907 -961.8856
v 1289.433 131.4884 -989.7569
v 1352.656 141.3181 -959.6015
v 1351.65 137.9084 -957.3559
v 1288.911 128.9384 -987.8022
v 1289.826 124.3996 -987.6923
v 1352.675 133.1882 -957.0538
v 1337.945 135.1546 -965.1206
v 1338.507 129.8404 -964.404
v 1337.175 131.4993 -961.7241
v 1336.366 139.0099 -965.171
v 1338.036 138.4176 -967.8003
v 1336.774 141.6057 -969.3377
v 1338.973 139.1675 -970.5631
v 1331.646 143.721 -967.6712
v 1331.354 140.8506 -963.616
v 1332.176 134.0325 -959.9068
v 1336.774 141.6057 -969.3377
v 1338.47 139.5495 -971.4635
v 1329.744 140.6106 -972.7616
v 1338.47 139.5495 -971.4635
v 1336.774 141.6057 -969.3377
v 1331.646 143.721 -967.6712
v 1330.771 138.4229 -975.5346
v 1328.923 138.0433 -968.7471
v 1329.744 140.6106 -972.7616
v 1331.354 140.8506 -963.616
v 1331.646 143.721 -967.6712
v 1332.176 134.0325 -959.9068
v 1330.475 130.602 -964.087
v 1330.425 137.7571 -974.6169
v 1330.771 138.4229 -975.5346
v 1329.876 133.7814 -968.8368
v 1329.834 137.0321 -971.5942
v 1329.834 137.0321 -971.5942
v 1330.425 137.7571 -974.6169
v 1328.923 138.0433 -968.7471
v 1330.475 130.602 -964.087
v 1332.095 128.476 -967.6848
v 1329.876 133.7814 -968.8368
v 1307.876 143.5161 -988.5568
v 1308.325 138.0959 -988.4152
v 1307.43 140.2755 -985.3648
v 1298.703 146.9657 -992.767
v 1299.524 149.533 -996.7816
v 1300.365 149.6831 -987.9516
v 1300.658 152.5535 -992.0069
v 1301.188 142.8651 -984.2423
v 1300.626 140.281 -989.6149
v 1300.133 146.4375 -997.6594
v 1299.569 145.0311 -995.4081
v 1300.405 147.9459 -998.656
v 1299.524 149.533 -996.7816
v 1306.587 150.5412 -993.3106
v 1300.658 152.5535 -992.0069
v 1308.622 148.8225 -995.715
v 1300.405 147.9459 -998.656
v 1308.873 147.2549 -994.482
v 1306.587 150.5412 -993.3106
v 1308.622 148.8225 -995.715
v 1308.198 146.8443 -991.1747
v 1306.18 147.9455 -989.1439
v 1307.876 143.5161 -988.5568
v 1307.43 140.2755 -985.3648
v 1300.658 152.5535 -992.0069
v 1300.365 149.6831 -987.9516
v 1301.188 142.8651 -984.2423
v 1300.513 141.5746 -992.1946
v 1299.569 145.0311 -995.4081
v 1300.626 140.281 -989.6149
v 1298.703 146.9657 -992.767
v 1301.632 138.3842 -991.5814
v 1321.725 147.9167 -982.1056
v 1321.881 143.0704 -982.1695
v 1320.986 145.25 -979.1192
v 1312.406 151.6905 -986.1266
v 1313.227 154.2579 -990.1411
v 1314.836 154.4978 -980.9955
v 1315.659 147.6798 -977.2864
v 1313.514 144.3099 -982.642
v 1315.129 157.3683 -985.0509
v 1313.981 150.5618 -991.9176
v 1313.272 149.7559 -988.7676
v 1313.394 146.4989 -985.9426
v 1314.254 152.0702 -992.9142
v 1314.254 152.0702 -992.9142
v 1322.302 153.0045 -988.6539
v 1313.227 154.2579 -990.1411
v 1320.234 154.7102 -986.2965
v 1322.576 151.9798 -987.8416
v 1320.234 154.7102 -986.2965
v 1322.302 153.0045 -988.6539
v 1321.701 151.1795 -984.8692
v 1319.849 152.6572 -982.5504
v 1321.725 147.9167 -982.1056
v 1320.986 145.25 -979.1192
v 1314.836 154.4978 -980.9955
v 1315.129 157.3683 -985.0509
v 1320.234 154.7102 -986.2965
v 1315.659 147.6798 -977.2864
v 1313.227 154.2579 -990.1411
v 1320.234 154.7102 -986.2965
v 1315.129 157.3683 -985.0509
v 1313.514 144.3099 -982.642
v 1313.272 149.7559 -988.7676
v 1312.406 151.6905 -986.1266
v 1314.666 141.8127 -985.5073
v 1313.394 146.4989 -985.9426
v 1289.612 147.6561 -1003.057
v 1353.369 157.4665 -972.1464
v 1288.215 146.6642 -1000.018
v 1351.439 156.494 -969.8623
v 1350.433 153.0843 -967.6167
v 1287.694 144.1142 -998.063
v 1288.608 139.5755 -997.953
v 1351.457 148.364 -967.3146
v 1336.727 150.3304 -975.3814
v 1337.29 145.0163 -974.6648
v 1335.957 146.6751 -971.9849
v 1335.149 154.1858 -975.4317
v 1336.819 153.5935 -978.0611
v 1335.556 156.7816 -979.5984
v 1337.755 154.3433 -980.8239
v 1330.429 158.8968 -977.932
v 1330.136 156.0264 -973.8768
v 1330.958 149.2083 -970.1675
v 1335.556 156.7816 -979.5984
v 1337.253 154.7254 -981.7243
v 1328.526 155.7864 -983.0224
v 1337.253 154.7254 -981.7243
v 1335.556 156.7816 -979.5984
v 1330.429 158.8968 -977.932
v 1329.553 153.5988 -985.7954
v 1327.705 153.2192 -979.0079
v 1328.526 155.7864 -983.0224
v 1330.136 156.0264 -973.8768
v 1330.429 158.8968 -977.932
v 1330.958 149.2083 -970.1675
v 1329.258 145.7779 -974.3478
v 1329.207 152.9329 -984.8777
v 1329.553 153.5988 -985.7954
v 1328.658 148.9572 -979.0976
v 1328.617 152.208 -981.855
v 1328.617 152.208 -981.855
v 1329.207 152.9329 -984.8777
v 1327.705 153.2192 -979.0079
v 1329.258 145.7779 -974.3478
v 1330.878 143.6518 -977.9456
v 1328.658 148.9572 -979.0976
v 1306.802 158.9173 -1000.262
v 1307.25 153.4972 -1000.12
v 1306.356 155.6767 -997.0698
v 1297.629 162.3669 -1004.472
v 1298.449 164.9342 -1008.487
v 1299.291 165.0843 -999.6566
v 1299.583 167.9548 -1003.712
v 1300.113 158.2664 -995.9474
v 1299.551 155.6822 -1001.32
v 1299.058 161.8387 -1009.364
v 1298.495 160.4323 -1007.113
v 1299.331 163.3471 -1010.361
v 1298.449 164.9342 -1008.487
v 1305.513 165.9425 -1005.016
v 1299.583 167.9548 -1003.712
v 1307.547 164.2237 -1007.42
v 1299.331 163.3471 -1010.361
v 1307.798 162.6562 -1006.187
v 1305.513 165.9425 -1005.016
v 1307.547 164.2237 -1007.42
v 1307.124 162.2455 -1002.88
v 1305.105 163.3468 -1000.849
v 1306.802 158.9173 -1000.262
v 1306.356 155.6767 -997.0698
v 1299.583 167.9548 -1003.712
v 1299.291 165.0843 -999.6566
v 1300.113 158.2664 -995.9474
v 1299.439 156.9758 -1003.9
v 1298.495 160.4323 -1007.113
v 1299.551 155.6822 -1001.32
v 1297.629 162.3669 -1004.472
v 1300.558 153.7855 -1003.286
v 1320.651 163.3179 -993.8107
v 1320.806 158.4716 -993.8746
v 1319.912 160.6512 -990.8242
v 1311.332 167.0918 -997.8316
v 1312.152 169.6591 -1001.846
v 1313.762 169.8991 -992.7005
v 1314.584 163.0811 -988.9915
v 1312.439 159.7111 -994.347
v 1314.054 172.7695 -996.7559
v 1312.907 165.963 -1003.623
v 1312.198 165.1572 -1000.473
v 1312.32 161.9001 -997.6477
v 1313.179 167.4715 -1004.619
v 1313.179 167.4715 -1004.619
v 1321.227 168.4058 -1000.359
v 1312.152 169.6591 -1001.846
v 1319.159 170.1114 -998.0015
v 1321.501 167.381 -999.5466
v 1319.159 170.1114 -998.0015
v 1321.227 168.4058 -1000.359
v 1320.626 166.5808 -996.5742
v 1318.775 168.0584 -994.2554
v 1320.651 163.3179 -993.8107
v 1319.912 160.6512 -990.8242
v 1313.762 169.8991 -992.7005
v 1314.054 172.7695 -996.7559
v 1319.159 170.1114 -998.0015
v 1314.584 163.0811 -988.9915
v 1312.152 169.6591 -1001.846
v 1319.159 170.1114 -998.0015
v 1314.054 172.7695 -996.7559
v 1312.439 159.7111 -994.347
v 1312.198 165.1572 -1000.473
v 1311.332 167.0918 -997.8316
v 1313.591 157.2139 -997.2123
v 1312.32 161.9001 -997.6477
v 1288.538 163.0573 -1014.762
v 1352.294 172.8678 -983.8514
v 1287.141 162.0654 -1011.723
v 1350.364 171.8952 -981.5673
v 1349.358 168.4855 -979.3217
v 1286.619 159.5155 -1009.768
v 1287.534 154.9767 -1009.658
v 1350.383 163.7652 -979.0196
v 1335.652 165.7316 -987.0864
v 1336.215 160.4175 -986.3698
v 1334.882 162.0764 -983.6899
v 1334.074 169.587 -987.1367
v 1335.744 168.9947 -989.7661
v 1334.481 172.1828 -991.3034
v 1336.681 169.7445 -992.5289
v 1329.354 174.298 -989.637
v 1329.062 171.4276 -985.5818
v 1329.884 164.6095 -981.8726
v 1334.481 172.1828 -991.3034
v 1336.178 170.1266 -993.4293
v 1327.452 171.1876 -994.7274
v 1336.178 170.1266 -993.4293
v 1334.481 172.1828 -991.3034
v 1329.354 174.298 -989.637
v 1328.479 169 -997.5004
v 1326.631 168.6204 -990.7129
v 1327.452 171.1876 -994.7274
v 1329.062 171.4276 -985.5818
v 1329.354 174.298 -989.637
v 1329.884 164.6095 -981.8726
v 1328.183 161.1791 -986.0528
v 1328.133 168.3342 -996.5827
v 1328.479 169 -997.5004
v 1327.584 164.3585 -990.8026
v 1327.542 167.6092 -993.56
v 1327.542 167.6092 -993.56
v 1328.133 168.3342 -996.5827
v 1326.631 168.6204 -990.7129
v 1328.183 161.1791 -986.0528
v 1329.803 159.053 -989.6506
v 1327.584 164.3585 -990.8026
vt 0.541261 0.468358
vt 0.537405 0.463744
vt 0.541916 0.466412
vt 0.539784 0.463362
vt 0.547218 0.467782
vt 0.541261 0.468358
vt 0.545326 0.466305
vt 0.547218 0.467782
vt 0.540328 0.47452
vt 0.541261 0.468358
vt 0.543151 0.473429
vt 0.539098 0.485323
vt 0.540328 0.47452
vt 0.537894 0.471834
vt 0.541261 0.468358
vt 0.539098 0.485323
vt 0.537405 0.463744
vt 0.545326 0.466305
vt 0.541261 0.468358
vt 0.541916 0.466412
vt 0.545326 0.466305
vt 0.541916 0.466412
vt 0.564123 0.380023
vt 0.559402 0.381263
vt 0.541916 0.466412
vt 0.539784 0.463362
vt 0.559402 0.381263
vt 0.556559 0.37795
vt 0.532138 0.457456
vt 0.531446 0.458443
vt 0.531076 0.460724
vt 0.526302 0.453867
vt 0.527462 0.450053
vt 0.528209 0.457583
vt 0.528975 0.453689
vt 0.527691 0.461743
vt 0.526087 0.457179
vt 0.527429 0.449767
vt 0.526697 0.451899
vt 0.526221 0.454791
vt 0.527932 0.448689
vt 0.527462 0.450053
vt 0.53221 0.452434
vt 0.528975 0.453689
vt 0.535114 0.451072
vt 0.527932 0.448689
vt 0.535043 0.452359
vt 0.53221 0.452434
vt 0.535114 0.451072
vt 0.532707 0.454618
vt 0.531392 0.456381
vt 0.532138 0.457456
vt 0.531076 0.460724
vt 0.528975 0.453689
vt 0.528209 0.457583
vt 0.527691 0.461743
vt 0.526087 0.457179
vt 0.526697 0.451899
vt 0.526302 0.453867
vt 0.526607 0.455782
vt 0.526221 0.454791
vt 0.54676 0.463369
vt 0.545987 0.46401
vt 0.545631 0.466301
vt 0.539492 0.459384
vt 0.540669 0.455569
vt 0.542093 0.463371
vt 0.542878 0.459476
vt 0.541533 0.46752
vt 0.53908 0.463429
vt 0.540632 0.454594
vt 0.539876 0.457407
vt 0.539381 0.460296
vt 0.541144 0.453518
vt 0.540669 0.455569
vt 0.54688 0.458357
vt 0.542878 0.459476
vt 0.548331 0.456587
vt 0.541144 0.453518
vt 0.548251 0.457873
vt 0.54688 0.458357
vt 0.548331 0.456587
vt 0.547351 0.460534
vt 0.546044 0.462305
vt 0.54676 0.463369
vt 0.545631 0.466301
vt 0.542878 0.459476
vt 0.542093 0.463371
vt 0.541533 0.46752
vt 0.53908 0.463429
vt 0.539876 0.457407
vt 0.539492 0.459384
vt 0.539604 0.461346
vt 0.539381 0.460296
vt 0.559068 0.472685
vt 0.560396 0.474419
vt 0.555856 0.471847
vt 0.555856 0.471847
vt 0.560396 0.474419
vt 0.554539 0.475208
vt 0.570113 0.387018
vt 0.559068 0.472685
vt 0.555856 0.471847
vt 0.574938 0.386056
vt 0.560396 0.474419
vt 0.558047 0.478179
vt 0.554539 0.475208
vt 0.553628 0.47824
vt 0.552388 0.487169
vt 0.555856 0.471847
vt 0.554539 0.475208
vt 0.553715 0.47019
vt 0.566681 0.383503
vt 0.570113 0.387018
vt 0.553628 0.47824
vt 0.551833 0.470588
vt 0.551931 0.475883
vt 0.551256 0.484788
vt 0.553715 0.47019
vt 0.554539 0.475208
vt 0.551833 0.470588
vt 0.552388 0.487169
vt 0.548966 0.489387
vt 0.551256 0.484788
vt 0.553628 0.47824
vt 0.551256 0.484788
vt 0.548966 0.489387
vt 0.549894 0.486205
vt 0.551931 0.475883
vt 0.551256 0.484788
vt 0.549894 0.486205
vt 0.560359 0.469031
vt 0.559814 0.470393
vt 0.558996 0.472449
vt 0.553191 0.465516
vt 0.554385 0.461705
vt 0.555812 0.469513
vt 0.556614 0.465624
vt 0.55521 0.473648
vt 0.553738 0.470068
vt 0.554423 0.46053
vt 0.554846 0.459646
vt 0.554385 0.461705
vt 0.560606 0.464498
vt 0.556614 0.465624
vt 0.562048 0.462722
vt 0.554846 0.459646
vt 0.562018 0.463798
vt 0.560606 0.464498
vt 0.562048 0.462722
vt 0.56107 0.466273
vt 0.559754 0.468442
vt 0.560359 0.469031
vt 0.558996 0.472449
vt 0.556614 0.465624
vt 0.555812 0.469513
vt 0.55521 0.473648
vt 0.553196 0.466048
vt 0.553779 0.463223
vt 0.553738 0.470068
vt 0.553779 0.463223
vt 0.554423 0.46053
vt 0.553191 0.465516
vt 0.553738 0.470068
vt 0.554082 0.467787
vt 0.553196 0.466048
vt 0.517666 0.445198
vt 0.57546 0.469297
vt 0.516301 0.447942
vt 0.573829 0.471405
vt 0.572288 0.473807
vt 0.515198 0.450607
vt 0.5151 0.451636
vt 0.571903 0.475427
vt 0.563039 0.456136
vt 0.562484 0.457537
vt 0.561662 0.459597
vt 0.562434 0.45552
vt 0.563759 0.453341
vt 0.563295 0.451536
vt 0.564714 0.450846
vt 0.559279 0.452657
vt 0.558468 0.456589
vt 0.557854 0.46079
vt 0.563295 0.451536
vt 0.564355 0.450011
vt 0.555827 0.452581
vt 0.557032 0.44873
vt 0.558468 0.456589
vt 0.559279 0.452657
vt 0.557854 0.46079
vt 0.55573 0.457697
vt 0.557067 0.447563
vt 0.557494 0.44667
vt 0.555827 0.453141
vt 0.556417 0.450278
vt 0.557032 0.44873
vt 0.563295 0.451536
vt 0.559279 0.452657
vt 0.564355 0.450011
vt 0.557494 0.44667
vt 0.556417 0.450278
vt 0.557067 0.447563
vt 0.555827 0.452581
vt 0.55573 0.457697
vt 0.556713 0.454921
vt 0.555827 0.453141
vt 0.521073 0.43213
vt 0.578505 0.457142
vt 0.519697 0.4349
vt 0.576959 0.459016
vt 0.575402 0.461453
vt 0.518799 0.436979
vt 0.518786 0.437781
vt 0.575383 0.462149
vt 0.549347 0.450451
vt 0.548564 0.451123
vt 0.548207 0.453417
vt 0.542034 0.446418
vt 0.543223 0.442563
vt 0.544657 0.450415
vt 0.544085 0.454631
vt 0.541612 0.450532
vt 0.54545 0.446479
vt 0.543181 0.441603
vt 0.54242 0.444439
vt 0.541917 0.447366
vt 0.543698 0.440511
vt 0.543698 0.440511
vt 0.550811 0.444038
vt 0.543223 0.442563
vt 0.549352 0.44581
vt 0.550852 0.444896
vt 0.549352 0.44581
vt 0.550811 0.444038
vt 0.549946 0.447578
vt 0.548631 0.449352
vt 0.549347 0.450451
vt 0.548207 0.453417
vt 0.544657 0.450415
vt 0.54545 0.446479
vt 0.549352 0.44581
vt 0.544085 0.454631
vt 0.543223 0.442563
vt 0.549352 0.44581
vt 0.54545 0.446479
vt 0.541612 0.450532
vt 0.54242 0.444439
vt 0.542034 0.446418
vt 0.542137 0.448449
vt 0.541917 0.447366
vt 0.536007 0.445037
vt 0.535399 0.445983
vt 0.535031 0.448267
vt 0.528753 0.440889
vt 0.529923 0.437035
vt 0.530675 0.444614
vt 0.531449 0.440678
vt 0.530146 0.448839
vt 0.529197 0.444622
vt 0.529886 0.436764
vt 0.529148 0.438918
vt 0.530394 0.43567
vt 0.529923 0.437035
vt 0.53619 0.439866
vt 0.531449 0.440678
vt 0.537625 0.438064
vt 0.530394 0.43567
vt 0.537552 0.439369
vt 0.53619 0.439866
vt 0.537625 0.438064
vt 0.536896 0.442277
vt 0.535362 0.443854
vt 0.536007 0.445037
vt 0.535031 0.448267
vt 0.531449 0.440678
vt 0.530675 0.444614
vt 0.530146 0.448839
vt 0.529334 0.442211
vt 0.529148 0.438918
vt 0.529197 0.444622
vt 0.528753 0.440889
vt 0.529718 0.443226
vt 0.538912 0.432559
vt 0.538293 0.433542
vt 0.537924 0.43583
vt 0.53161 0.428363
vt 0.532792 0.424468
vt 0.53355 0.4321
vt 0.534333 0.42812
vt 0.533008 0.436393
vt 0.53205 0.43216
vt 0.532752 0.424212
vt 0.532006 0.42639
vt 0.533265 0.423103
vt 0.532792 0.424468
vt 0.539105 0.427314
vt 0.534333 0.42812
vt 0.540548 0.425508
vt 0.533265 0.423103
vt 0.540472 0.426831
vt 0.539105 0.427314
vt 0.540548 0.425508
vt 0.539811 0.429762
vt 0.538267 0.431344
vt 0.538912 0.432559
vt 0.537924 0.43583
vt 0.534333 0.42812
vt 0.53355 0.4321
vt 0.533008 0.436393
vt 0.532189 0.429725
vt 0.532006 0.42639
vt 0.53205 0.43216
vt 0.53161 0.428363
vt 0.532572 0.430765
vt 0.551731 0.437447
vt 0.550936 0.438152
vt 0.55058 0.44045
vt 0.544369 0.433362
vt 0.545569 0.429465
vt 0.547013 0.437373
vt 0.54643 0.441659
vt 0.543936 0.437549
vt 0.547815 0.433391
vt 0.545523 0.428519
vt 0.544755 0.431381
vt 0.544245 0.434347
vt 0.546045 0.42741
vt 0.546045 0.42741
vt 0.553211 0.430958
vt 0.545569 0.429465
vt 0.551744 0.432733
vt 0.553251 0.431828
vt 0.551744 0.432733
vt 0.553211 0.430958
vt 0.552337 0.434535
vt 0.551015 0.436313
vt 0.551731 0.437447
vt 0.55058 0.44045
vt 0.547013 0.437373
vt 0.547815 0.433391
vt 0.551744 0.432733
vt 0.54643 0.441659
vt 0.545569 0.429465
vt 0.551744 0.432733
vt 0.547815 0.433391
vt 0.543936 0.437549
vt 0.544755 0.431381
vt 0.544369 0.433362
vt 0.544462 0.435465
vt 0.544245 0.434347
vt 0.523861 0.419338
vt 0.581105 0.444603
vt 0.522473 0.422133
vt 0.579226 0.44674
vt 0.577655 0.449214
vt 0.521566 0.424242
vt 0.521547 0.425074
vt 0.577582 0.450194
vt 0.565207 0.442899
vt 0.564642 0.444341
vt 0.563816 0.446406
vt 0.564601 0.442256
vt 0.565934 0.440064
vt 0.565471 0.438228
vt 0.566897 0.437546
vt 0.561428 0.439345
vt 0.560608 0.443322
vt 0.559983 0.447592
vt 0.565471 0.438228
vt 0.566536 0.436704
vt 0.559161 0.435407
vt 0.566536 0.436704
vt 0.565471 0.438228
vt 0.561428 0.439345
vt 0.559624 0.433346
vt 0.560608 0.443322
vt 0.559161 0.435407
vt 0.561428 0.439345
vt 0.557945 0.439301
vt 0.559983 0.447592
vt 0.55784 0.444498
vt 0.559193 0.434249
vt 0.559624 0.433346
vt 0.557941 0.43989
vt 0.558539 0.436988
vt 0.558539 0.436988
vt 0.559193 0.434249
vt 0.557945 0.439301
vt 0.55784 0.444498
vt 0.558828 0.441714
vt 0.557941 0.43989
vt 0.526967 0.462795
vt 0.524184 0.459029
vt 0.527947 0.460995
vt 0.526724 0.459318
vt 0.532709 0.461939
vt 0.526967 0.462795
vt 0.531177 0.460518
vt 0.532709 0.461939
vt 0.526412 0.469102
vt 0.526967 0.462795
vt 0.529223 0.468011
vt 0.525371 0.477114
vt 0.526249 0.476914
vt 0.525114 0.478406
vt 0.524345 0.477014
vt 0.526412 0.469102
vt 0.531177 0.460518
vt 0.526967 0.462795
vt 0.527947 0.460995
vt 0.527947 0.460995
vt 0.532588 0.456241
vt 0.52873 0.456628
vt 0.55154 0.37639
vt 0.544238 0.376978
vt 0.526412 0.469102
vt 0.523997 0.466427
vt 0.526967 0.462795
vt 0.524184 0.459029
vt 0.524345 0.477014
vt 0.527947 0.460995
vt 0.526724 0.459318
vt 0.52873 0.456628
vt 0.527474 0.454858
vt 0.544238 0.376978
vt 0.542545 0.374021
vt 0.540967 0.419289
vt 0.540338 0.420313
vt 0.539969 0.422606
vt 0.533614 0.41504
vt 0.534807 0.411099
vt 0.535571 0.418787
vt 0.536363 0.414759
vt 0.535018 0.423156
vt 0.53405 0.418907
vt 0.534763 0.410861
vt 0.534011 0.413063
vt 0.535282 0.409733
vt 0.534807 0.411099
vt 0.541169 0.41396
vt 0.536363 0.414759
vt 0.542621 0.412151
vt 0.535282 0.409733
vt 0.542543 0.413494
vt 0.541169 0.41396
vt 0.542621 0.412151
vt 0.541876 0.416449
vt 0.540323 0.418037
vt 0.540967 0.419289
vt 0.539969 0.422606
vt 0.536363 0.414759
vt 0.535571 0.418787
vt 0.535018 0.423156
vt 0.534192 0.416446
vt 0.534011 0.413063
vt 0.53405 0.418907
vt 0.533614 0.41504
vt 0.534574 0.417513
vt 0.554828 0.42583
vt 0.554022 0.426572
vt 0.553665 0.428874
vt 0.547414 0.421691
vt 0.548625 0.417748
vt 0.550081 0.425715
vt 0.549487 0.430076
vt 0.54697 0.425957
vt 0.550892 0.421684
vt 0.548575 0.416818
vt 0.547801 0.419707
vt 0.547284 0.422716
vt 0.549103 0.415692
vt 0.549103 0.415692
vt 0.556324 0.419261
vt 0.548625 0.417748
vt 0.554847 0.421038
vt 0.556364 0.420143
vt 0.554847 0.421038
vt 0.556324 0.419261
vt 0.555442 0.422876
vt 0.554111 0.424658
vt 0.554828 0.42583
vt 0.553665 0.428874
vt 0.550081 0.425715
vt 0.550892 0.421684
vt 0.554847 0.421038
vt 0.549487 0.430076
vt 0.548625 0.417748
vt 0.554847 0.421038
vt 0.550892 0.421684
vt 0.54697 0.425957
vt 0.547801 0.419707
vt 0.547414 0.421691
vt 0.547497 0.423872
vt 0.547284 0.422716
vt 0.525807 0.406646
vt 0.583496 0.432041
vt 0.524407 0.409469
vt 0.581602 0.434201
vt 0.580015 0.436715
vt 0.523491 0.41161
vt 0.523467 0.412477
vt 0.579935 0.437732
vt 0.567469 0.430369
vt 0.566894 0.431855
vt 0.566064 0.433926
vt 0.566862 0.429697
vt 0.568205 0.427492
vt 0.567742 0.425621
vt 0.569176 0.424951
vt 0.56367 0.426734
vt 0.562841 0.430759
vt 0.562205 0.435105
vt 0.567742 0.425621
vt 0.568813 0.424099
vt 0.561383 0.422786
vt 0.568813 0.424099
vt 0.567742 0.425621
vt 0.56367 0.426734
vt 0.561848 0.420723
vt 0.560155 0.426726
vt 0.561383 0.422786
vt 0.562841 0.430759
vt 0.56367 0.426734
vt 0.562205 0.435105
vt 0.560042 0.432009
vt 0.561413 0.421637
vt 0.561848 0.420723
vt 0.560146 0.427346
vt 0.560752 0.424401
vt 0.560752 0.424401
vt 0.561413 0.421637
vt 0.560155 0.426726
vt 0.560042 0.432009
vt 0.561035 0.429217
vt 0.560146 0.427346
vt 0.542309 0.408212
vt 0.541671 0.409271
vt 0.541302 0.411568
vt 0.534909 0.403916
vt 0.536113 0.399935
vt 0.536881 0.407675
vt 0.537681 0.403604
vt 0.53632 0.412108
vt 0.535343 0.407844
vt 0.536066 0.399711
vt 0.535307 0.401936
vt 0.536588 0.398568
vt 0.536113 0.399935
vt 0.542518 0.40281
vt 0.537681 0.403604
vt 0.543978 0.400998
vt 0.536588 0.398568
vt 0.543899 0.402358
vt 0.542518 0.40281
vt 0.543978 0.400998
vt 0.543228 0.405336
vt 0.541664 0.406929
vt 0.542309 0.408212
vt 0.541302 0.411568
vt 0.537681 0.403604
vt 0.536881 0.407675
vt 0.53632 0.412108
vt 0.535486 0.405359
vt 0.535307 0.401936
vt 0.535343 0.407844
vt 0.534909 0.403916
vt 0.535869 0.406451
vt 0.557201 0.414059
vt 0.556385 0.41483
vt 0.556028 0.417137
vt 0.54974 0.409872
vt 0.550961 0.405888
vt 0.552427 0.413908
vt 0.551823 0.418335
vt 0.549287 0.414205
vt 0.553246 0.409835
vt 0.550908 0.404972
vt 0.550128 0.407884
vt 0.549605 0.410931
vt 0.55144 0.40383
vt 0.55144 0.40383
vt 0.558712 0.407418
vt 0.550961 0.405888
vt 0.557227 0.409199
vt 0.558751 0.408312
vt 0.557227 0.409199
vt 0.558712 0.407418
vt 0.557822 0.411068
vt 0.556483 0.412854
vt 0.557201 0.414059
vt 0.556028 0.417137
vt 0.552427 0.413908
vt 0.553246 0.409835
vt 0.557227 0.409199
vt 0.551823 0.418335
vt 0.550961 0.405888
vt 0.557227 0.409199
vt 0.553246 0.409835
vt 0.549287 0.414205
vt 0.550128 0.407884
vt 0.54974 0.409872
vt 0.549815 0.412119
vt 0.549605 0.410931
vt 0.527049 0.394752
vt 0.58514 0.420269
vt 0.52564 0.397599
vt 0.583232 0.422448
vt 0.58163 0.424997
vt 0.524715 0.399768
vt 0.524688 0.400665
vt 0.581546 0.426045
vt 0.568996 0.418622
vt 0.568413 0.420146
vt 0.567579 0.422222
vt 0.56839 0.417926
vt 0.569741 0.41571
vt 0.569277 0.413809
vt 0.570719 0.413146
vt 0.56518 0.414918
vt 0.564343 0.418986
vt 0.563696 0.423397
vt 0.569277 0.413809
vt 0.570354 0.412287
vt 0.562874 0.410959
vt 0.570354 0.412287
vt 0.569277 0.413809
vt 0.56518 0.414918
vt 0.56334 0.408894
vt 0.561636 0.414939
vt 0.562874 0.410959
vt 0.564343 0.418986
vt 0.56518 0.414918
vt 0.563696 0.423397
vt 0.561515 0.420297
vt 0.562901 0.409817
vt 0.56334 0.408894
vt 0.561623 0.415586
vt 0.562236 0.412604
vt 0.562236 0.412604
vt 0.562901 0.409817
vt 0.561636 0.414939
vt 0.561515 0.420297
vt 0.562513 0.417497
vt 0.561623 0.415586
vt 0.545255 0.394722
vt 0.544608 0.39582
vt 0.544238 0.398119
vt 0.537807 0.390375
vt 0.539021 0.386351
vt 0.539795 0.394144
vt 0.540603 0.390028
vt 0.539224 0.398648
vt 0.538238 0.39437
vt 0.538971 0.386145
vt 0.538206 0.388393
vt 0.539499 0.384985
vt 0.539021 0.386351
vt 0.545472 0.389241
vt 0.540603 0.390028
vt 0.546941 0.387426
vt 0.539499 0.384985
vt 0.546859 0.388805
vt 0.545472 0.389241
vt 0.546941 0.387426
vt 0.546183 0.391806
vt 0.54461 0.393403
vt 0.545255 0.394722
vt 0.544238 0.398119
vt 0.540603 0.390028
vt 0.539795 0.394144
vt 0.539224 0.398648
vt 0.538384 0.39186
vt 0.538206 0.388393
vt 0.538238 0.39437
vt 0.537807 0.390375
vt 0.538766 0.392978
vt 0.560006 0.400342
vt 0.559181 0.401147
vt 0.558823 0.403456
vt 0.552497 0.396104
vt 0.55373 0.392077
vt 0.555206 0.400151
vt 0.554591 0.404648
vt 0.552034 0.400509
vt 0.556034 0.396033
vt 0.553672 0.391176
vt 0.552886 0.394113
vt 0.552356 0.397201
vt 0.55421 0.390017
vt 0.55421 0.390017
vt 0.561533 0.393625
vt 0.55373 0.392077
vt 0.560039 0.395407
vt 0.561571 0.394531
vt 0.560039 0.395407
vt 0.561533 0.393625
vt 0.560635 0.39731
vt 0.559289 0.399101
vt 0.560006 0.400342
vt 0.558823 0.403456
vt 0.555206 0.400151
vt 0.556034 0.396033
vt 0.560039 0.395407
vt 0.554591 0.404648
vt 0.55373 0.392077
vt 0.560039 0.395407
vt 0.556034 0.396033
vt 0.552034 0.400509
vt 0.552886 0.394113
vt 0.552497 0.396104
vt 0.552564 0.398424
vt 0.552356 0.397201
vt 0.529893 0.381144
vt 0.590747 0.407955
vt 0.528473 0.384017
vt 0.588824 0.410155
vt 0.587208 0.412742
vt 0.52754 0.386215
vt 0.527509 0.387145
vt 0.587119 0.413825
vt 0.571429 0.405164
vt 0.570837 0.40673
vt 0.569998 0.40881
vt 0.570822 0.40444
vt 0.572182 0.402212
vt 0.571719 0.400279
vt 0.573169 0.399626
vt 0.567595 0.401383
vt 0.566749 0.405496
vt 0.566091 0.409978
vt 0.571719 0.400279
vt 0.572801 0.398759
vt 0.56527 0.397416
vt 0.572801 0.398759
vt 0.571719 0.400279
vt 0.567595 0.401383
vt 0.565737 0.395348
vt 0.564021 0.401438
vt 0.56527 0.397416
vt 0.566749 0.405496
vt 0.567595 0.401383
vt 0.566091 0.409978
vt 0.563892 0.406877
vt 0.565295 0.396283
vt 0.565737 0.395348
vt 0.564003 0.402115
vt 0.564624 0.399093
vt 0.564624 0.399093
vt 0.565295 0.396283
vt 0.564021 0.401438
vt 0.563892 0.406877
vt 0.564894 0.40407
vt 0.564003 0.402115
vn 0.1117104 0.8351156 -0.5386118
vn 0.06749163 0.8227283 -0.5644139
vn 0.2137554 0.8652171 -0.4535504
vn 0.1931536 0.710267 -0.6769139
vn -0.1126698 0.5154655 -0.849471
vn 0.1117104 0.8351156 -0.5386118
vn 0.2075123 0.7802979 -0.5899778
vn 0.1116023 0.4929512 0.8628696
vn 0.1237349 0.5105156 0.8509192
vn 0.03103402 0.5318048 0.8462982
vn 0.1697396 0.4981148 0.8503354
vn 0.1476791 0.5445882 0.8255996
vn -0.8647323 0.1960684 0.4623799
vn -0.864967 0.1983147 0.460981
vn -0.8653349 0.2028207 0.458322
vn -0.8641595 0.1892863 0.4662607
vn -0.865418 0.2028029 0.4581734
vn 0.3706014 0.9158654 -0.1544191
vn 0.1117104 0.8351156 -0.5386118
vn 0.3573699 0.9331611 0.03869294
vn 0.5093214 0.8077061 0.296989
vn 0.4680676 0.7487007 0.4694251
vn 0.3872113 0.5726143 0.7226204
vn 0.355242 0.5805214 0.7326651
vn -0.9506713 0.1545737 0.2689446
vn -0.9348593 0.1808614 0.3054948
vn -0.9348593 0.1808614 0.3054948
vn -0.9169188 0.2067373 0.3413494
vn 0.8827212 0.2695207 0.3849182
vn 0.9690691 0.06425302 0.2382784
vn 0.7387341 0.3518094 0.5748931
vn -0.9999486 0.002314514 -0.009874951
vn -0.9854307 0.1174852 -0.1229776
vn -0.9593852 0.2329731 0.1590712
vn -0.9705079 0.2241689 0.08867224
vn -0.9604611 -0.003236329 0.2783955
vn -0.9867849 -0.1619942 0.003676987
vn -0.9490188 -0.08169388 -0.3044493
vn -0.9871831 -0.09491636 -0.1282988
vn -0.9828051 -0.1786967 -0.0464943
vn -0.925913 -0.07742132 -0.3697176
vn 0.1364709 0.8171642 -0.5600165
vn 0.1384767 0.8317317 -0.5376304
vn 0.1498647 0.8190834 -0.5537535
vn 0.1297541 0.8161351 -0.5631052
vn 0.1321668 0.7862786 -0.603571
vn 0.5451102 0.5326138 0.6474391
vn 0.6217917 0.5626648 0.5447782
vn 0.5639614 0.564472 0.6027594
vn 0.7378939 0.4494313 0.5035117
vn 0.6839901 0.5159729 0.5156835
vn 0.8827212 0.2695207 0.3849182
vn 0.7387341 0.3518094 0.5748931
vn 0.5217708 0.6890889 0.5029031
vn 0.5139789 0.535714 0.6699524
vn 0.5206205 0.4556342 0.722047
vn -0.9867849 -0.1619942 0.003676987
vn -0.9871831 -0.09491636 -0.1282988
vn -0.9999486 0.002314514 -0.009874951
vn -0.9264943 -0.3511013 -0.1354112
vn -0.9828051 -0.1786967 -0.0464943
vn 0.8758242 0.2559894 0.4091473
vn 0.9643523 0.02744771 0.2631944
vn 0.7024263 0.3437034 0.6232699
vn -0.9983897 0.03915054 0.04105188
vn -0.9806212 0.1822678 -0.07183775
vn -0.9231966 0.3077113 0.2302648
vn -0.9356779 0.3163005 0.1563999
vn -0.9270961 0.06262483 0.3695553
vn -0.9922032 -0.1228705 0.02087206
vn -0.9600667 -0.07293208 -0.2700979
vn -0.9857334 -0.1121716 -0.1254877
vn -0.9875861 -0.1449747 -0.06046484
vn -0.9469012 -0.04012674 -0.3190109
vn 0.1376743 0.824109 -0.5494453
vn 0.1409221 0.8349589 -0.5319631
vn 0.1556845 0.8159611 -0.5567493
vn 0.1286366 0.82805 -0.5456977
vn 0.1310036 0.8013504 -0.5836742
vn 0.811831 0.4457098 0.3771914
vn 0.7409507 0.5297477 0.4127463
vn 0.8086845 0.4382675 0.3923659
vn 0.8198213 0.424957 0.383803
vn 0.6472465 0.5318899 0.5460451
vn 0.8758242 0.2559894 0.4091473
vn 0.7024263 0.3437034 0.6232699
vn 0.4485474 0.7260516 0.5212047
vn 0.4437926 0.5483316 0.708788
vn 0.4701664 0.4648598 0.7502325
vn -0.9922032 -0.1228705 0.02087206
vn -0.9857334 -0.1121716 -0.1254877
vn -0.9983897 0.03915054 0.04105188
vn -0.9513155 -0.2715831 -0.1457444
vn -0.9875861 -0.1449747 -0.06046484
vn 0.5082498 0.4968587 -0.7034299
vn 0.5082498 0.4968587 -0.7034299
vn 0.5082498 0.4968587 -0.7034299
vn 0.3939845 0.7887113 0.4719224
vn 0.2721753 0.7673648 0.5805789
vn 0.387172 0.7824765 0.4876762
vn 0.3714633 0.5783048 0.726346
vn 0.3714633 0.5783048 0.726346
vn 0.3939845 0.7887113 0.4719224
vn 0.2430824 0.59495 0.7661236
vn 0.2721753 0.7673648 0.5805789
vn 0.1884938 0.481387 0.8560004
vn 0.2328384 0.6583636 0.7157817
vn -0.06200346 0.5006829 0.8634073
vn -0.2747722 0.5256411 0.8051098
vn -0.9447971 0.2966819 0.139062
vn -0.9347108 0.3379689 0.1099663
vn -0.9447273 0.3273154 0.0188417
vn -0.9254295 0.1935344 0.3257678
vn -0.9046267 0.2258487 0.3614456
vn -0.7680999 0.3086534 0.5610309
vn -0.8498322 0.216212 0.4806636
vn -0.6414531 0.4441006 0.6255497
vn -0.5004984 0.4947338 0.7104504
vn 0.5966106 0.6883096 -0.412657
vn 0.4595431 0.8820308 -0.1041232
vn 0.5966106 0.6883096 -0.412657
vn -0.2747722 0.5256411 0.8051098
vn -0.1341208 0.5134377 0.8475809
vn -0.3691563 0.5159683 0.7729815
vn -0.5151479 0.4173097 0.748649
vn -0.2342316 0.5407631 0.8079053
vn -0.1341208 0.5134377 0.8475809
vn 0.03233347 0.5786573 0.8149296
vn -0.6414531 0.4441006 0.6255497
vn -0.3691563 0.5159683 0.7729815
vn 0.03233347 0.5786573 0.8149296
vn 0.8491293 0.274747 0.4511028
vn 0.9189458 0.1466649 0.3660981
vn 0.6825063 0.3535797 0.6396614
vn -0.9989789 -0.03385141 0.02992099
vn -0.9775327 0.1954025 -0.07904255
vn -0.9231747 0.3077495 0.2303014
vn -0.9356757 0.3162916 0.1564303
vn -0.9412637 -0.02064228 0.3370408
vn -0.9715794 -0.1086681 0.2102966
vn -0.95658 -0.08968007 -0.2773305
vn -0.9367182 0.003960949 -0.3500621
vn 0.137677 0.8241043 -0.5494516
vn 0.1409217 0.8349501 -0.5319769
vn 0.1556716 0.8159674 -0.5567436
vn 0.128647 0.8280399 -0.5457103
vn 0.1310125 0.8013547 -0.5836663
vn 0.7771105 0.5318251 0.3365434
vn 0.7108164 0.5814435 0.3958074
vn 0.7785799 0.5641247 0.2749123
vn 0.7950961 0.4464122 0.4105342
vn 0.6408237 0.5267705 0.5584424
vn 0.8491293 0.274747 0.4511028
vn 0.6825063 0.3535797 0.6396614
vn 0.4485617 0.7260458 0.5212005
vn 0.4534497 0.5414022 0.7080021
vn 0.4998482 0.4596498 0.7340803
vn -0.5982018 0.5138549 0.6149046
vn -0.5982018 0.5138549 0.6149046
vn -0.8455427 0.2054869 0.4927806
vn -0.9377444 -0.2845907 -0.1991068
vn -0.95658 -0.08968007 -0.2773305
vn -0.9989789 -0.03385141 0.02992099
vn -0.9515709 -0.3047946 0.04016463
vn -0.9220682 -0.3869804 -0.006028245
vn -0.9220682 -0.3869804 -0.006028245
vn -0.2422197 0.9496812 0.1985832
vn -0.2385258 0.9527379 0.1881385
vn -0.3425854 0.8139132 0.469234
vn -0.3419658 0.8159034 0.46622
vn -0.4321661 0.3275005 0.8402237
vn -0.4305491 0.3069892 0.8487551
vn -0.4172554 0.03972923 0.9079205
vn -0.4254684 0.08684575 0.9007966
vn 0.849122 0.2747286 0.4511274
vn 0.9189067 0.14674 0.3661661
vn 0.6825013 0.3535793 0.6396669
vn 0.6408263 0.526773 0.5584369
vn 0.7950696 0.4464516 0.4105428
vn 0.7122976 0.6308892 0.307589
vn 0.7707058 0.6186962 0.1524066
vn 0.4485629 0.7260627 0.5211759
vn 0.4534465 0.541402 0.7080042
vn 0.4998347 0.4596343 0.7340991
vn 0.6078091 0.7940753 0.003535954
vn 0.3823663 0.80624 -0.4514124
vn -0.999256 0.006076338 0.03808597
vn -0.9775185 0.1954634 -0.07906789
vn -0.9231868 0.3077458 0.2302577
vn -0.9356823 0.3162928 0.1563889
vn -0.9270508 0.06284406 0.3696314
vn -0.9889786 -0.1301853 0.07052089
vn -0.956589 -0.08958772 -0.2773295
vn -0.9366989 0.004118256 -0.3501118
vn -0.9925655 -0.1103588 0.05132742
vn -0.9925604 -0.1072042 -0.05771738
vn 0.1740121 0.7988181 -0.5758553
vn 0.3736159 0.811876 -0.4486296
vn 0.1556835 0.815953 -0.5567616
vn 0.3823663 0.80624 -0.4514124
vn 0.1820124 0.8036449 -0.5665918
vn -0.9925604 -0.1072042 -0.05771738
vn -0.956589 -0.08958772 -0.2773295
vn -0.999256 0.006076338 0.03808597
vn -0.9889786 -0.1301853 0.07052089
vn -0.8974513 -0.4104618 -0.1615622
vn -0.9925655 -0.1103588 0.05132742
vn -0.2341984 0.9508356 0.2026396
vn -0.2119747 0.9666544 0.143688
vn -0.3314767 0.8317665 0.4452949
vn -0.3257146 0.8448982 0.4243312
vn -0.4407699 0.2793427 0.8530473
vn -0.44058 0.2909483 0.8492575
vn -0.4158158 -0.07142828 0.9066395
vn -0.4138837 -0.08065183 0.90675
vn 0.8758204 0.2559955 0.4091513
vn 0.964339 0.02749562 0.2632384
vn 0.7024246 0.3437087 0.6232689
vn -0.9983903 0.03913877 0.04104707
vn -0.9805973 0.1823827 -0.07187068
vn -0.9231809 0.3077549 0.2302692
vn -0.9270808 0.06265794 0.3695878
vn -0.9922059 -0.1228514 0.02085179
vn -0.9356859 0.3162797 0.1563936
vn -0.9600643 -0.07292693 -0.2701076
vn -0.9857265 -0.1122452 -0.125476
vn -0.9875948 -0.1449175 -0.06045881
vn -0.946885 -0.03993176 -0.3190832
vn 0.2026736 0.8039039 -0.5591618
vn 0.1990846 0.837417 -0.5090168
vn 0.2211393 0.8179828 -0.5310383
vn 0.3631144 0.9058284 -0.2182264
vn 0.7992244 0.4843749 0.3558388
vn 0.7380667 0.5547961 0.3840038
vn 0.7997482 0.4895711 0.347452
vn 0.8134111 0.4414918 0.3787446
vn 0.6519626 0.5372211 0.5351059
vn 0.8758204 0.2559955 0.4091513
vn 0.7024246 0.3437087 0.6232689
vn 0.4438037 0.5483236 0.7087874
vn 0.4650637 0.7309825 0.4993801
vn 0.6925607 0.6818171 0.2355529
vn 0.4701779 0.4648567 0.7502273
vn 0.2211393 0.8179828 -0.5310383
vn 0.2302923 0.824636 -0.5166633
vn 0.2642753 0.7758825 -0.5728568
vn -0.9922059 -0.1228514 0.02085179
vn -0.9857265 -0.1122452 -0.125476
vn -0.9983903 0.03913877 0.04104707
vn -0.9512849 -0.2716515 -0.145817
vn -0.9875948 -0.1449175 -0.06045881
vn 0.8589493 0.278324 0.429816
vn 0.9709962 0.08615121 0.2230344
vn 0.6628928 0.3826044 0.6435737
vn -0.9993201 -0.03565487 -0.009380167
vn -0.9854329 0.1174705 -0.1229746
vn -0.9593921 0.232939 0.1590791
vn -0.9705072 0.2241602 0.08870191
vn -0.9662335 -0.06971206 0.2480588
vn -0.9479249 -0.3150164 -0.04693654
vn -0.949019 -0.08170417 -0.3044459
vn -0.9505994 -0.2569731 -0.1741422
vn -0.9258729 -0.07736708 -0.3698296
vn 0.1380348 0.8204941 -0.5547395
vn 0.1407944 0.8365126 -0.5295503
vn 0.1556032 0.8176956 -0.5542216
vn 0.1292181 0.8217982 -0.5549328
vn 0.1321468 0.786265 -0.6035932
vn 0.8289035 0.4666314 0.3085029
vn 0.7088454 0.5815954 0.3991052
vn 0.8167929 0.4317901 0.3826312
vn 0.7795714 0.4775415 0.4052439
vn 0.5743895 0.5708731 0.5866691
vn 0.8589493 0.278324 0.429816
vn 0.6628928 0.3826044 0.6435737
vn 0.3578486 0.7631431 0.5381051
vn 0.3367468 0.5752249 0.7454648
vn 0.3442934 0.4803708 0.8066634
vn -0.9162423 -0.3727449 -0.1468379
vn -0.9505994 -0.2569731 -0.1741422
vn -0.9479249 -0.3150164 -0.04693654
vn -0.9993201 -0.03565487 -0.009380167
vn -0.926459 -0.3511381 -0.1355575
vn 0.8589081 0.2783222 0.4298997
vn 0.9709502 0.0861889 0.2232201
vn 0.6628441 0.3825926 0.6436308
vn -0.99932 -0.03565331 -0.009402509
vn -0.9854228 0.1175122 -0.1230148
vn -0.9593834 0.2329818 0.1590689
vn -0.970501 0.2241994 0.08867027
vn -0.9662244 -0.06972855 0.2480892
vn -0.9479191 -0.3150319 -0.04695076
vn -0.9490048 -0.08170336 -0.3044908
vn -0.9505796 -0.2570129 -0.1741916
vn -0.9258634 -0.07735967 -0.3698547
vn 0.13806 0.8204864 -0.5547445
vn 0.1408212 0.8365105 -0.5295465
vn 0.1556387 0.8176827 -0.5542305
vn 0.1292382 0.8217931 -0.5549358
vn 0.1321687 0.7862448 -0.6036146
vn 0.8289462 0.4665917 0.3084483
vn 0.708878 0.5815788 0.3990716
vn 0.8168354 0.4317377 0.3825996
vn 0.7796022 0.4775271 0.4052015
vn 0.5743811 0.5708655 0.5866847
vn 0.8589081 0.2783222 0.4298997
vn 0.6628441 0.3825926 0.6436308
vn 0.3578377 0.7631471 0.5381066
vn 0.3367434 0.575222 0.7454687
vn 0.3443286 0.4803826 0.8066413
vn -0.9162395 -0.372743 -0.1468597
vn -0.9505796 -0.2570129 -0.1741916
vn -0.9479191 -0.3150319 -0.04695076
vn -0.99932 -0.03565331 -0.009402509
vn -0.9264817 -0.3510812 -0.1355491
vn 0.8758361 0.2559887 0.4091218
vn 0.9643685 0.02748028 0.2631313
vn 0.702455 0.3437207 0.6232278
vn -0.9983902 0.03912331 0.04106435
vn -0.9806194 0.1822756 -0.07184097
vn -0.923205 0.3076824 0.2302695
vn -0.9270884 0.06263136 0.3695733
vn -0.9922075 -0.1228373 0.02086473
vn -0.9356749 0.3163074 0.1564039
vn -0.960067 -0.07295293 -0.2700911
vn -0.9857332 -0.112184 -0.1254784
vn -0.9875909 -0.1449379 -0.06047453
vn -0.9468872 -0.04006816 -0.3190599
vn 0.2026596 0.8039129 -0.559154
vn 0.1990724 0.8374113 -0.5090309
vn 0.2211196 0.8179802 -0.5310504
vn 0.3630842 0.9058409 -0.2182254
vn 0.7992781 0.4843284 0.3557814
vn 0.7380734 0.5547788 0.3840158
vn 0.7997999 0.4894999 0.3474336
vn 0.8133991 0.4414844 0.3787791
vn 0.6519452 0.5372248 0.5351233
vn 0.8758361 0.2559887 0.4091218
vn 0.702455 0.3437207 0.6232278
vn 0.4437981 0.5483384 0.7087795
vn 0.4650378 0.7309871 0.4993974
vn 0.692571 0.6818053 0.2355565
vn 0.4701409 0.4648597 0.7502487
vn 0.2211196 0.8179802 -0.5310504
vn 0.2302699 0.8246281 -0.5166858
vn 0.264241 0.7758875 -0.5728658
vn -0.9922075 -0.1228373 0.02086473
vn -0.9857332 -0.112184 -0.1254784
vn -0.9983902 0.03912331 0.04106435
vn -0.9513025 -0.2716049 -0.1457892
vn -0.9875909 -0.1449379 -0.06047453
vn -0.2423678 0.9496597 0.1985054
vn -0.2425039 0.9495495 0.1988662
vn -0.3484329 0.8129687 0.4665581
vn -0.3509165 0.8086761 0.4721234
vn -0.4518523 0.2888156 0.8440468
vn -0.4510878 0.2890339 0.8443809
vn -0.4310347 -0.0504955 0.9009213
vn -0.4337748 -0.03651722 0.900281
vn 0.8490863 0.2747792 0.4511639
vn 0.91892 0.1466663 0.3661624
vn 0.6824713 0.3535888 0.6396934
vn 0.6408007 0.5267881 0.5584522
vn 0.7950664 0.4464574 0.4105427
vn 0.7123216 0.6308452 0.3076236
vn 0.7707402 0.618645 0.1524397
vn 0.4485784 0.7260372 0.5211979
vn 0.4534556 0.5414014 0.7079989
vn 0.4998147 0.459638 0.7341105
vn 0.6078318 0.7940577 0.003562293
vn 0.3823784 0.8062398 -0.4514024
vn 0.1739954 0.798822 -0.575855
vn 0.3823784 0.8062398 -0.4514024
vn 0.3736268 0.811877 -0.4486188
vn 0.1556642 0.8159598 -0.5567569
vn 0.1819969 0.8036498 -0.5665898
vn -0.9231823 0.3077447 0.2302772
vn -0.9775128 0.1954855 -0.07908311
vn -0.9356701 0.3163167 0.1564137
vn -0.9992552 0.006054354 0.03810995
vn -0.9270458 0.06285867 0.3696417
vn -0.9889804 -0.1301558 0.07055015
vn -0.9565811 -0.08959814 -0.277353
vn -0.9366428 0.004228101 -0.3502602
vn -0.9925673 -0.1103191 0.0513799
vn -0.9925641 -0.1071937 -0.0576705
vn -0.9925641 -0.1071937 -0.0576705
vn -0.9565811 -0.08959814 -0.277353
vn -0.9992552 0.006054354 0.03810995
vn -0.9889804 -0.1301558 0.07055015
vn -0.897428 -0.4105127 -0.1615619
vn -0.9925673 -0.1103191 0.0513799
vn 0.08577754 0.7820721 -0.6172563
vn 0.05649327 0.6736558 -0.7368829
vn 0.2312695 0.7755845 -0.5873528
vn 0.2495076 0.4957502 -0.831852
vn -0.1545784 0.4621652 -0.8732175
vn -0.1515303 0.6467478 -0.7474996
vn -0.1545784 0.4621652 -0.8732175
vn 0.1281406 0.507251 0.8522184
vn -0.09577944 0.5130234 0.8530143
vn 0.0802115 0.5280612 0.8454097
vn 0.1587735 0.5288655 0.8337219
vn -0.2021048 0.440231 0.874843
vn 0.1726059 0.452465 0.8749186
vn -0.2487624 0.3050381 0.9192764
vn -0.7608829 0.2476817 0.599759
vn -0.4097992 0.4470206 0.7951335
vn 0.5896406 0.747964 0.3047521
vn 0.2081159 0.8828133 -0.421104
vn 0.4441058 0.8944938 -0.05148639
vn 0.5466819 0.6983954 0.4619336
vn 0.4536687 0.5244672 0.720499
vn 0.3281131 0.5715377 0.7521213
vn 0.2729943 0.5728224 0.7728833
vn 0.1159308 0.5967341 0.7940204
vn -0.830219 0.235326 0.5053298
vn -0.8915507 0.1813976 0.4150088
vn -0.9028875 0.1589016 0.3994301
vn -0.9364483 0.1461082 0.3189308
vn -0.7608829 0.2476817 0.599759
vn -0.9914308 0.05285653 0.1194623
vn -0.9906205 0.05378732 0.1256106
vn -0.9905806 0.05592346 0.1249905
vn -0.9850681 0.07739893 0.1537863
vn -0.9823354 0.08872524 0.1647576
vn -0.9716676 0.1170283 0.2053445
vn 0.8589081 0.2783225 0.4298993
vn 0.9709504 0.08619138 0.2232181
vn 0.6628457 0.3825938 0.6436283
vn -0.9993199 -0.0356565 -0.009393848
vn -0.9854246 0.1175045 -0.1230089
vn -0.9593881 0.2329654 0.1590641
vn -0.9705011 0.2241991 0.08867048
vn -0.9662279 -0.06973955 0.2480728
vn -0.9479231 -0.3150236 -0.0469241
vn -0.9490099 -0.08169233 -0.3044776
vn -0.9505954 -0.256982 -0.1741514
vn -0.9258612 -0.07734964 -0.3698621
vn 0.138058 0.8204853 -0.5547467
vn 0.1408185 0.8365089 -0.5295498
vn 0.1556335 0.8176841 -0.5542301
vn 0.1292378 0.8217906 -0.5549394
vn 0.1321681 0.7862447 -0.6036149
vn 0.8289461 0.4665887 0.3084534
vn 0.7088771 0.5815781 0.399074
vn 0.8168328 0.4317297 0.3826142
vn 0.7795995 0.4775294 0.4052042
vn 0.5743821 0.5708659 0.5866833
vn 0.8589081 0.2783225 0.4298993
vn 0.6628457 0.3825938 0.6436283
vn 0.3578417 0.7631457 0.5381058
vn 0.336744 0.5752215 0.7454688
vn 0.3443196 0.4803783 0.8066478
vn -0.9162516 -0.372731 -0.1468143
vn -0.9505954 -0.256982 -0.1741514
vn -0.9479231 -0.3150236 -0.0469241
vn -0.9993199 -0.0356565 -0.009393848
vn -0.9264748 -0.3511094 -0.1355239
vn 0.8758469 0.2559811 0.4091039
vn 0.9643756 0.0274532 0.2631089
vn 0.7024568 0.3437158 0.6232287
vn -0.9983908 0.03911505 0.04105785
vn -0.980615 0.1822987 -0.07184323
vn -0.9232028 0.3076958 0.2302608
vn -0.9270888 0.06262946 0.3695726
vn -0.9922053 -0.1228609 0.0208238
vn -0.9356704 0.3163272 0.1563901
vn -0.9600695 -0.07296308 -0.2700796
vn -0.9857225 -0.1122407 -0.1255118
vn -0.9875817 -0.1449745 -0.0605371
vn -0.9468961 -0.04005051 -0.3190353
vn 0.202662 0.8039079 -0.5591602
vn 0.1990746 0.8374093 -0.5090336
vn 0.2211223 0.8179782 -0.5310524
vn 0.3630885 0.9058381 -0.2182295
vn 0.7992786 0.4843267 0.3557828
vn 0.7380801 0.5547768 0.3840058
vn 0.7998003 0.4894979 0.3474355
vn 0.8134098 0.4414824 0.3787582
vn 0.6519515 0.5372258 0.5351146
vn 0.8758469 0.2559811 0.4091039
vn 0.7024568 0.3437158 0.6232287
vn 0.4437887 0.5483376 0.7087859
vn 0.465038 0.7309878 0.4993962
vn 0.6925764 0.6818029 0.2355478
vn 0.4701322 0.4648606 0.7502534
vn 0.2211223 0.8179782 -0.5310524
vn 0.2302728 0.8246276 -0.5166855
vn 0.2642451 0.7758858 -0.5728663
vn -0.9922053 -0.1228609 0.0208238
vn -0.9857225 -0.1122407 -0.1255118
vn -0.9983908 0.03911505 0.04105785
vn -0.9512966 -0.2716045 -0.1458277
vn -0.9875817 -0.1449745 -0.0605371
vn -0.2423651 0.9496615 0.1984999
vn -0.2424995 0.9495526 0.1988563
vn -0.3484324 0.81297 0.4665561
vn -0.3509144 0.8086807 0.4721172
vn -0.4518528 0.2888124 0.8440477
vn -0.4510885 0.2890275 0.8443827
vn -0.4310353 -0.05049593 0.900921
vn -0.4337755 -0.03651745 0.9002807
vn 0.8490806 0.2747831 0.4511721
vn 0.9189174 0.1466669 0.366169
vn 0.6824699 0.3535885 0.6396952
vn 0.6407989 0.5267839 0.5584581
vn 0.7950712 0.4464429 0.4105492
vn 0.712333 0.6308203 0.3076483
vn 0.770763 0.6186087 0.152472
vn 0.4485776 0.7260338 0.5212035
vn 0.4534634 0.5414001 0.7079949
vn 0.4998206 0.4596351 0.7341082
vn 0.607846 0.7940468 0.003582665
vn 0.3823984 0.8062382 -0.4513884
vn 0.173994 0.7988216 -0.575856
vn 0.3823984 0.8062382 -0.4513884
vn 0.3736456 0.8118782 -0.4486009
vn 0.1556608 0.8159633 -0.5567528
vn 0.1819966 0.8036453 -0.5665964
vn -0.999255 0.006072565 0.03811081
vn -0.9775099 0.1955019 -0.07907867
vn -0.9231789 0.3077522 0.230281
vn -0.9356813 0.3162811 0.1564177
vn -0.927043 0.06287153 0.3696465
vn -0.9889804 -0.130155 0.07055069
vn -0.9565847 -0.08957424 -0.2773482
vn -0.9366492 0.004255407 -0.3502428
vn -0.9925674 -0.1103177 0.05138069
vn -0.9925644 -0.1071923 -0.05766991
vn -0.9925644 -0.1071923 -0.05766991
vn -0.9565847 -0.08957424 -0.2773482
vn -0.999255 0.006072565 0.03811081
vn -0.9889804 -0.130155 0.07055069
vn -0.8974286 -0.4105116 -0.1615618
vn -0.9925674 -0.1103177 0.05138069
vn 0.8589001 0.278332 0.4299092
vn 0.9709495 0.08619402 0.2232209
vn 0.6628452 0.3825977 0.6436266
vn -0.9993201 -0.03565167 -0.009385746
vn -0.9854274 0.1174897 -0.1230007
vn -0.959383 0.2329724 0.1590851
vn -0.9704992 0.2241962 0.08869779
vn -0.9662271 -0.06971553 0.2480824
vn -0.9479182 -0.315034 -0.04695459
vn -0.9490067 -0.0817088 -0.3044832
vn -0.9505867 -0.2569958 -0.1741781
vn -0.9258493 -0.07736906 -0.3698882
vn 0.1380576 0.8204894 -0.5547407
vn 0.1408201 0.8365093 -0.5295488
vn 0.1556407 0.8176771 -0.5542385
vn 0.1292335 0.8218002 -0.5549262
vn 0.1321637 0.7862573 -0.6035994
vn 0.8289431 0.4665781 0.3084774
vn 0.7088704 0.5815703 0.3990974
vn 0.8168249 0.4317103 0.3826531
vn 0.7795907 0.4775304 0.4052196
vn 0.574374 0.5708662 0.586691
vn 0.8589001 0.278332 0.4299092
vn 0.6628452 0.3825977 0.6436266
vn 0.3578416 0.7631431 0.5381097
vn 0.3367547 0.5752237 0.7454622
vn 0.3443368 0.4803836 0.8066373
vn -0.9162287 -0.372764 -0.1468741
vn -0.9505867 -0.2569958 -0.1741781
vn -0.9479182 -0.315034 -0.04695459
vn -0.9993201 -0.03565167 -0.009385746
vn -0.9264643 -0.3511184 -0.1355716
vn 0.875843 0.2559841 0.4091103
vn 0.9643728 0.02745298 0.2631188
vn 0.7024523 0.3437165 0.6232333
vn -0.998391 0.03910169 0.04106731
vn -0.9806154 0.1822948 -0.07184657
vn -0.9232047 0.3076841 0.2302685
vn -0.9270903 0.06263068 0.3695686
vn -0.9922097 -0.1228191 0.0208687
vn -0.9356749 0.3163074 0.1564039
vn -0.9600676 -0.07297177 -0.2700838
vn -0.9857341 -0.1122028 -0.1254547
vn -0.9875994 -0.1448921 -0.06044643
vn -0.9468771 -0.04001744 -0.319096
vn 0.2026661 0.8039119 -0.559153
vn 0.1990787 0.8374076 -0.5090346
vn 0.221124 0.8179775 -0.5310528
vn 0.3630856 0.9058378 -0.2182352
vn 0.7992764 0.4843187 0.3557984
vn 0.7380785 0.5547755 0.3840106
vn 0.7997974 0.4894804 0.3474667
vn 0.8134114 0.4414849 0.3787518
vn 0.6519475 0.5372306 0.5351146
vn 0.875843 0.2559841 0.4091103
vn 0.7024523 0.3437165 0.6232333
vn 0.4437895 0.5483421 0.7087819
vn 0.4650317 0.7309964 0.4993893
vn 0.6925771 0.6818014 0.23555
vn 0.4701479 0.4648681 0.750239
vn 0.221124 0.8179775 -0.5310528
vn 0.2302733 0.8246247 -0.51669
vn 0.2642419 0.7758871 -0.5728659
vn -0.9922097 -0.1228191 0.0208687
vn -0.9857341 -0.1122028 -0.1254547
vn -0.998391 0.03910169 0.04106731
vn -0.9513026 -0.2716019 -0.1457932
vn -0.9875994 -0.1448921 -0.06044643
vn -0.2423704 0.9496576 0.1985124
vn -0.2425049 0.9495487 0.198869
vn -0.3484347 0.8129649 0.4665633
vn -0.3509158 0.8086772 0.4721222
vn -0.4518523 0.288819 0.8440456
vn -0.4510884 0.2890342 0.8443805
vn -0.4310374 -0.05047841 0.900921
vn -0.4337763 -0.03650597 0.9002807
vn 0.8490823 0.2747802 0.4511708
vn 0.9189296 0.1466441 0.3661473
vn 0.6824772 0.3535835 0.6396903
vn 0.640794 0.5267876 0.5584604
vn 0.7950612 0.4464552 0.4105552
vn 0.7123202 0.6308407 0.3076363
vn 0.7707434 0.6186401 0.1524439
vn 0.4485796 0.7260355 0.5211995
vn 0.4534695 0.5414001 0.7079911
vn 0.4998353 0.4596365 0.7340973
vn 0.6078325 0.7940573 0.003575594
vn 0.3823769 0.8062461 -0.4513923
vn 0.1739984 0.7988261 -0.5758484
vn 0.3823769 0.8062461 -0.4513923
vn 0.3736292 0.8118817 -0.4486081
vn 0.1556758 0.8159568 -0.5567582
vn 0.1819963 0.8036488 -0.5665915
vn -0.9992548 0.006086675 0.03811478
vn -0.9775136 0.1954841 -0.07907704
vn -0.9231778 0.307751 0.2302866
vn -0.9356743 0.3162976 0.1564275
vn -0.9270451 0.06286982 0.3696415
vn -0.9889777 -0.1301953 0.07051357
vn -0.9565845 -0.08955467 -0.2773555
vn -0.9366429 0.00422807 -0.3502602
vn -0.9925619 -0.1104078 0.05129416
vn -0.9925606 -0.1072053 -0.05771126
vn -0.9925606 -0.1072053 -0.05771126
vn -0.9565845 -0.08955467 -0.2773555
vn -0.9992548 0.006086675 0.03811478
vn -0.9889777 -0.1301953 0.07051357
vn -0.8974337 -0.4104956 -0.1615735
vn -0.9925619 -0.1104078 0.05129416
vn 0.8589083 0.278328 0.4298953
vn 0.970957 0.08616716 0.2231989
vn 0.6628434 0.3825926 0.6436315
vn -0.9993203 -0.03564963 -0.009391651
vn -0.9854261 0.1174991 -0.1230012
vn -0.9593849 0.2329712 0.1590756
vn -0.9705046 0.2241781 0.08868459
vn -0.9662276 -0.06972639 0.2480775
vn -0.9479147 -0.3150442 -0.0469554
vn -0.9490097 -0.08169521 -0.3044773
vn -0.9505796 -0.2570169 -0.174186
vn -0.9258633 -0.07735941 -0.3698548
vn 0.1380584 0.8204876 -0.5547433
vn 0.1408199 0.8365122 -0.5295443
vn 0.1556387 0.8176827 -0.5542305
vn 0.1292357 0.8217946 -0.5549339
vn 0.1321664 0.7862445 -0.6036155
vn 0.8289311 0.466602 0.3084733
vn 0.7088685 0.5815827 0.3990828
vn 0.8168195 0.4317482 0.3826215
vn 0.7795953 0.4775351 0.4052054
vn 0.5743786 0.5708713 0.5866815
vn 0.8589083 0.278328 0.4298953
vn 0.6628434 0.3825926 0.6436315
vn 0.35784 0.7631488 0.5381027
vn 0.3367447 0.5752233 0.7454671
vn 0.344322 0.4803793 0.8066462
vn -0.9162264 -0.3727691 -0.1468755
vn -0.9505796 -0.2570169 -0.174186
vn -0.9479147 -0.3150442 -0.0469554
vn -0.9993203 -0.03564963 -0.009391651
vn -0.9264817 -0.3510807 -0.1355509
vn 0.8758334 0.2559851 0.4091301
vn 0.9643648 0.02745565 0.2631478
vn 0.7024424 0.3437138 0.6232458
vn -0.9983913 0.03909681 0.04106153
vn -0.9806176 0.1822873 -0.0718364
vn -0.9232082 0.3076828 0.2302562
vn -0.9270954 0.06262391 0.3695572
vn -0.9922094 -0.1228212 0.02086642
vn -0.9356704 0.3163272 0.1563901
vn -0.9600726 -0.0729827 -0.2700632
vn -0.9857339 -0.1122042 -0.1254555
vn -0.987599 -0.1448949 -0.06044609
vn -0.9468961 -0.04005051 -0.3190353
vn 0.2026594 0.8039079 -0.5591612
vn 0.1990719 0.8374102 -0.509033
vn 0.2211195 0.8179793 -0.5310519
vn 0.3630832 0.9058405 -0.2182284
vn 0.7992744 0.4843344 0.3557818
vn 0.7380737 0.554783 0.3840089
vn 0.7997966 0.4895104 0.3474264
vn 0.8134024 0.4414874 0.3787685
vn 0.651939 0.5372285 0.535127
vn 0.8758334 0.2559851 0.4091301
vn 0.7024424 0.3437138 0.6232458
vn 0.4437819 0.5483378 0.7087899
vn 0.4650291 0.7309926 0.4993976
vn 0.69257 0.6818084 0.2355509
vn 0.4701401 0.4648644 0.7502462
vn 0.2211195 0.8179793 -0.5310519
vn 0.2302699 0.8246291 -0.5166843
vn 0.2642419 0.7758871 -0.5728659
vn -0.9922094 -0.1228212 0.02086642
vn -0.9857339 -0.1122042 -0.1254555
vn -0.9983913 0.03909681 0.04106153
vn -0.9513025 -0.2716045 -0.1457895
vn -0.987599 -0.1448949 -0.06044609
vn -0.2423685 0.9496592 0.1985073
vn -0.2425046 0.9495487 0.1988683
vn -0.3484329 0.8129685 0.4665585
vn -0.3509168 0.8086753 0.4721245
vn -0.4518522 0.2888243 0.8440439
vn -0.4510876 0.2890409 0.8443787
vn -0.4310374 -0.05047876 0.900921
vn -0.4337783 -0.03649535 0.9002802
vn 0.8490852 0.2747734 0.4511693
vn 0.9189202 0.1466667 0.3661622
vn 0.6824753 0.3535856 0.6396911
vn 0.6407976 0.526781 0.5584624
vn 0.7950626 0.4464469 0.4105613
vn 0.7123205 0.6308388 0.3076396
vn 0.7707441 0.6186379 0.1524492
vn 0.4485756 0.7260329 0.5212066
vn 0.4534595 0.5413988 0.7079985
vn 0.4998235 0.4596364 0.7341055
vn 0.6078336 0.7940564 0.003577205
vn 0.3823793 0.8062437 -0.4513949
vn 0.1739983 0.7988238 -0.5758517
vn 0.3823793 0.8062437 -0.4513949
vn 0.3736311 0.8118802 -0.4486094
vn 0.1556749 0.8159559 -0.5567597
vn 0.1819966 0.8036453 -0.5665964
vn -0.9992546 0.006074553 0.03812048
vn -0.9775109 0.195499 -0.07907356
vn -0.9231824 0.3077445 0.2302773
vn -0.9356703 0.3163159 0.1564138
vn -0.9270458 0.06285865 0.3696417
vn -0.9889789 -0.1301696 0.07054505
vn -0.9565898 -0.08955687 -0.2773369
vn -0.9366492 0.004255407 -0.3502428
vn -0.9925644 -0.1103573 0.05135377
vn -0.9925648 -0.1071881 -0.05767026
vn -0.9925648 -0.1071881 -0.05767026
vn -0.9565898 -0.08955687 -0.2773369
vn -0.9992546 0.006074553 0.03812048
vn -0.9889789 -0.1301696 0.07054505
vn -0.8974276 -0.4105133 -0.1615631
vn -0.9925644 -0.1103573 0.05135377
g GateTowers_Gate_mesh_0
f 3/3/3 2/2/2 1/1/1
f 4/4/4 2/2/2 3/3/3
f 7/7/7 6/6/6 5/5/5
f 10/10/10 9/9/9 8/8/8
f 8/8/8 9/9/9 11/11/11
f 9/9/9 12/12/12 11/11/11
f 15/15/15 14/14/14 13/13/13
f 14/14/14 16/16/16 13/13/13
f 17/17/17 14/14/14 15/15/15
f 20/20/20 19/19/19 18/18/18
f 23/23/23 22/22/22 21/21/21
f 24/24/24 22/22/22 23/23/23
f 27/27/27 26/26/26 25/25/25
f 28/28/28 26/26/26 27/27/27
f 31/31/31 30/30/30 29/29/29
f 34/34/34 33/33/33 32/32/32
f 35/35/35 33/33/33 34/34/34
f 34/34/34 32/32/32 36/36/36
f 36/36/36 32/32/32 37/37/37
f 33/33/33 38/38/38 32/32/32
f 32/32/32 38/38/38 39/39/39
f 37/37/37 39/39/39 40/40/40
f 41/41/41 38/38/38 33/33/33
f 44/44/44 43/43/43 42/42/42
f 43/43/43 45/45/45 42/42/42
f 42/42/42 45/45/45 46/46/46
f 49/49/49 48/48/48 47/47/47
f 48/48/48 50/50/50 47/47/47
f 51/51/51 50/50/50 48/48/48
f 51/51/51 52/52/52 50/50/50
f 53/53/53 52/52/52 51/51/51
f 54/54/54 51/51/51 48/48/48
f 55/55/55 51/51/51 54/54/54
f 55/55/55 53/53/53 51/51/51
f 56/56/56 53/53/53 55/55/55
f 59/59/59 58/58/58 57/57/57
f 57/57/57 61/61/61 60/60/60
f 64/64/64 63/63/63 62/62/62
f 67/67/67 66/66/66 65/65/65
f 68/68/68 66/66/66 67/67/67
f 67/67/67 65/65/65 69/69/69
f 69/69/69 65/65/65 70/70/70
f 66/66/66 71/71/71 65/65/65
f 65/65/65 71/71/71 72/72/72
f 70/70/70 72/72/72 73/73/73
f 74/74/74 71/71/71 66/66/66
f 77/77/77 76/76/76 75/75/75
f 76/76/76 78/78/78 75/75/75
f 75/75/75 78/78/78 79/79/79
f 82/82/82 81/81/81 80/80/80
f 81/81/81 83/83/83 80/80/80
f 84/84/84 83/83/83 81/81/81
f 84/84/84 85/85/85 83/83/83
f 86/86/86 85/85/85 84/84/84
f 87/87/87 84/84/84 81/81/81
f 88/88/88 84/84/84 87/87/87
f 88/88/88 86/86/86 84/84/84
f 89/89/89 86/86/86 88/88/88
f 92/92/92 91/91/91 90/90/90
f 90/90/90 94/94/94 93/93/93
f 97/97/97 96/96/96 95/95/95
f 100/100/100 99/99/99 98/98/98
f 103/103/103 102/102/102 101/101/101
f 101/101/101 102/102/102 104/104/104
f 107/107/107 106/106/106 105/105/105
f 108/108/108 106/106/106 107/107/107
f 108/108/108 109/109/109 106/106/106
f 112/112/112 111/111/111 110/110/110
f 112/112/112 110/110/110 113/113/113
f 113/113/113 110/110/110 114/114/114
f 116/116/116 115/115/115 111/111/111
f 117/117/117 115/115/115 116/116/116
f 117/117/117 118/118/118 115/115/115
f 121/121/121 120/120/120 119/119/119
f 124/124/124 123/123/123 122/122/122
f 124/124/124 122/122/122 125/125/125
f 128/128/128 127/127/127 126/126/126
f 131/131/131 130/130/130 129/129/129
f 134/134/134 133/133/133 132/132/132
f 137/137/137 136/136/136 135/135/135
f 138/138/138 136/136/136 137/137/137
f 137/137/137 135/135/135 139/139/139
f 139/139/139 135/135/135 140/140/140
f 136/136/136 141/141/141 135/135/135
f 142/142/142 141/141/141 136/136/136
f 145/145/145 144/144/144 143/143/143
f 144/144/144 146/146/146 143/143/143
f 143/143/143 146/146/146 147/147/147
f 150/150/150 149/149/149 148/148/148
f 149/149/149 151/151/151 148/148/148
f 152/152/152 151/151/151 149/149/149
f 152/152/152 153/153/153 151/151/151
f 154/154/154 153/153/153 152/152/152
f 155/155/155 152/152/152 149/149/149
f 156/156/156 152/152/152 155/155/155
f 156/156/156 154/154/154 152/152/152
f 157/157/157 154/154/154 156/156/156
f 160/160/160 159/159/159 158/158/158
f 163/163/163 162/162/162 161/161/161
f 163/163/163 161/161/161 164/164/164
f 164/164/164 166/166/166 165/165/165
f 169/169/169 168/168/168 167/167/167
f 170/170/170 168/168/168 169/169/169
f 170/170/170 169/169/169 171/171/171
f 171/171/171 169/169/169 172/172/172
f 172/172/172 173/173/173 171/171/171
f 171/171/171 173/173/173 174/174/174
f 177/177/177 176/176/176 175/175/175
f 177/177/177 175/175/175 178/178/178
f 178/178/178 175/175/175 179/179/179
f 178/178/178 179/179/179 180/180/180
f 180/180/180 179/179/179 181/181/181
f 182/182/182 178/178/178 180/180/180
f 183/183/183 178/178/178 182/182/182
f 183/183/183 177/177/177 178/178/178
f 184/184/184 177/177/177 183/183/183
f 186/186/186 185/185/185 181/181/181
f 189/189/189 188/188/188 187/187/187
f 190/190/190 188/188/188 189/189/189
f 189/189/189 187/187/187 191/191/191
f 191/191/191 187/187/187 192/192/192
f 188/188/188 193/193/193 187/187/187
f 194/194/194 193/193/193 188/188/188
f 192/192/192 196/196/196 195/195/195
f 199/199/199 198/198/198 197/197/197
f 198/198/198 200/200/200 197/197/197
f 197/197/197 200/200/200 201/201/201
f 204/204/204 203/203/203 202/202/202
f 204/204/204 202/202/202 205/205/205
f 205/205/205 207/207/207 206/206/206
f 210/210/210 209/209/209 208/208/208
f 211/211/211 209/209/209 210/210/210
f 211/211/211 210/210/210 212/212/212
f 212/212/212 210/210/210 213/213/213
f 213/213/213 214/214/214 212/212/212
f 212/212/212 214/214/214 215/215/215
f 218/218/218 217/217/217 216/216/216
f 221/221/221 220/220/220 219/219/219
f 221/221/221 219/219/219 222/222/222
f 222/222/222 219/219/219 223/223/223
f 224/224/224 220/220/220 221/221/221
f 220/220/220 225/225/225 219/219/219
f 219/219/219 225/225/225 226/226/226
f 223/223/223 226/226/226 227/227/227
f 228/228/228 225/225/225 220/220/220
f 231/231/231 230/230/230 229/229/229
f 232/232/232 230/230/230 231/231/231
f 235/235/235 234/234/234 233/233/233
f 234/234/234 236/236/236 233/233/233
f 237/237/237 236/236/236 234/234/234
f 237/237/237 238/238/238 236/236/236
f 239/239/239 238/238/238 237/237/237
f 240/240/240 239/239/239 237/237/237
f 240/240/240 237/237/237 241/241/241
f 241/241/241 237/237/237 242/242/242
f 243/243/243 239/239/239 240/240/240
f 246/246/246 245/245/245 244/244/244
f 249/249/249 248/248/248 247/247/247
f 247/247/247 251/251/251 250/250/250
f 254/254/254 253/253/253 252/252/252
f 257/257/257 256/256/256 255/255/255
f 258/258/258 256/256/256 257/257/257
f 257/257/257 255/255/255 259/259/259
f 259/259/259 255/255/255 260/260/260
f 256/256/256 261/261/261 255/255/255
f 255/255/255 261/261/261 262/262/262
f 263/263/263 261/261/261 256/256/256
f 266/266/266 265/265/265 264/264/264
f 265/265/265 267/267/267 264/264/264
f 264/264/264 267/267/267 268/268/268
f 271/271/271 270/270/270 269/269/269
f 270/270/270 272/272/272 269/269/269
f 273/273/273 272/272/272 270/270/270
f 273/273/273 274/274/274 272/272/272
f 275/275/275 274/274/274 273/273/273
f 276/276/276 273/273/273 270/270/270
f 277/277/277 273/273/273 276/276/276
f 277/277/277 275/275/275 273/273/273
f 278/278/278 275/275/275 277/277/277
f 281/281/281 280/280/280 279/279/279
f 282/282/282 280/280/280 281/281/281
f 281/281/281 279/279/279 283/283/283
f 286/286/286 285/285/285 284/284/284
f 289/289/289 288/288/288 287/287/287
f 290/290/290 288/288/288 289/289/289
f 289/289/289 287/287/287 291/291/291
f 291/291/291 287/287/287 292/292/292
f 288/288/288 293/293/293 287/287/287
f 287/287/287 293/293/293 294/294/294
f 295/295/295 293/293/293 288/288/288
f 298/298/298 297/297/297 296/296/296
f 297/297/297 299/299/299 296/296/296
f 296/296/296 299/299/299 300/300/300
f 303/303/303 302/302/302 301/301/301
f 302/302/302 304/304/304 301/301/301
f 305/305/305 304/304/304 302/302/302
f 305/305/305 306/306/306 304/304/304
f 307/307/307 306/306/306 305/305/305
f 308/308/308 305/305/305 302/302/302
f 309/309/309 305/305/305 308/308/308
f 309/309/309 307/307/307 305/305/305
f 310/310/310 307/307/307 309/309/309
f 313/313/313 312/312/312 311/311/311
f 314/314/314 312/312/312 313/313/313
f 313/313/313 311/311/311 315/315/315
f 318/318/318 317/317/317 316/316/316
f 321/321/321 320/320/320 319/319/319
f 321/321/321 319/319/319 322/322/322
f 322/322/322 319/319/319 323/323/323
f 324/324/324 320/320/320 321/321/321
f 320/320/320 325/325/325 319/319/319
f 319/319/319 325/325/325 326/326/326
f 323/323/323 326/326/326 327/327/327
f 328/328/328 325/325/325 320/320/320
f 331/331/331 330/330/330 329/329/329
f 332/332/332 330/330/330 331/331/331
f 335/335/335 334/334/334 333/333/333
f 334/334/334 336/336/336 333/333/333
f 337/337/337 336/336/336 334/334/334
f 337/337/337 338/338/338 336/336/336
f 339/339/339 338/338/338 337/337/337
f 340/340/340 339/339/339 337/337/337
f 340/340/340 337/337/337 341/341/341
f 341/341/341 337/337/337 342/342/342
f 343/343/343 339/339/339 340/340/340
f 346/346/346 345/345/345 344/344/344
f 349/349/349 348/348/348 347/347/347
f 347/347/347 351/351/351 350/350/350
f 354/354/354 353/353/353 352/352/352
f 355/355/355 353/353/353 354/354/354
f 355/355/355 354/354/354 356/356/356
f 356/356/356 354/354/354 357/357/357
f 357/357/357 358/358/358 356/356/356
f 356/356/356 358/358/358 359/359/359
f 362/362/362 361/361/361 360/360/360
f 362/362/362 360/360/360 363/363/363
f 363/363/363 360/360/360 364/364/364
f 363/363/363 364/364/364 365/365/365
f 365/365/365 364/364/364 366/366/366
f 367/367/367 363/363/363 365/365/365
f 368/368/368 363/363/363 367/367/367
f 368/368/368 362/362/362 363/363/363
f 369/369/369 362/362/362 368/368/368
f 371/371/371 370/370/370 366/366/366
f 374/374/374 373/373/373 372/372/372
f 375/375/375 374/374/374 372/372/372
f 372/372/372 373/373/373 376/376/376
f 379/379/379 378/378/378 377/377/377
f 377/377/377 378/378/378 380/380/380
f 377/377/377 380/380/380 381/381/381
f 381/381/381 380/380/380 382/382/382
f 378/378/378 383/383/383 380/380/380
f 384/384/384 383/383/383 378/378/378
f 382/382/382 386/386/386 385/385/385
f 389/389/389 388/388/388 387/387/387
f 389/389/389 387/387/387 390/390/390
f 390/390/390 392/392/392 391/391/391
f 395/395/395 394/394/394 393/393/393
f 396/396/396 394/394/394 395/395/395
f 399/399/399 398/398/398 397/397/397
f 402/402/402 401/401/401 400/400/400
f 400/400/400 401/401/401 403/403/403
f 401/401/401 404/404/404 403/403/403
f 403/403/403 404/404/404 405/405/405
f 404/404/404 406/406/406 405/405/405
f 407/407/407 406/406/406 404/404/404
f 408/408/408 407/407/407 404/404/404
f 411/411/411 410/410/410 409/409/409
f 413/413/413 412/412/412 409/409/409
f 414/414/414 412/412/412 413/413/413
f 415/415/415 414/414/414 413/413/413
f 416/416/416 414/414/414 415/415/415
f 419/419/419 418/418/418 417/417/417
f 420/420/420 418/418/418 419/419/419
f 418/418/418 421/421/421 417/417/417
f 424/424/424 423/423/423 422/422/422
f 425/425/425 423/423/423 424/424/424
f 426/426/426 425/425/425 424/424/424
f 427/427/427 425/425/425 426/426/426
f 430/430/430 429/429/429 428/428/428
f 433/433/433 432/432/432 431/431/431
f 434/434/434 432/432/432 433/433/433
f 433/433/433 431/431/431 435/435/435
f 435/435/435 431/431/431 436/436/436
f 432/432/432 437/437/437 431/431/431
f 431/431/431 437/437/437 438/438/438
f 439/439/439 437/437/437 432/432/432
f 442/442/442 441/441/441 440/440/440
f 441/441/441 443/443/443 440/440/440
f 440/440/440 443/443/443 444/444/444
f 447/447/447 446/446/446 445/445/445
f 446/446/446 448/448/448 445/445/445
f 449/449/449 448/448/448 446/446/446
f 449/449/449 450/450/450 448/448/448
f 451/451/451 450/450/450 449/449/449
f 452/452/452 449/449/449 446/446/446
f 453/453/453 449/449/449 452/452/452
f 453/453/453 451/451/451 449/449/449
f 454/454/454 451/451/451 453/453/453
f 457/457/457 456/456/456 455/455/455
f 458/458/458 456/456/456 457/457/457
f 457/457/457 455/455/455 459/459/459
f 462/462/462 461/461/461 460/460/460
f 465/465/465 464/464/464 463/463/463
f 465/465/465 463/463/463 466/466/466
f 466/466/466 463/463/463 467/467/467
f 468/468/468 464/464/464 465/465/465
f 464/464/464 469/469/469 463/463/463
f 463/463/463 469/469/469 470/470/470
f 467/467/467 470/470/470 471/471/471
f 472/472/472 469/469/469 464/464/464
f 475/475/475 474/474/474 473/473/473
f 476/476/476 474/474/474 475/475/475
f 479/479/479 478/478/478 477/477/477
f 478/478/478 480/480/480 477/477/477
f 481/481/481 480/480/480 478/478/478
f 481/481/481 482/482/482 480/480/480
f 483/483/483 482/482/482 481/481/481
f 484/484/484 483/483/483 481/481/481
f 484/484/484 481/481/481 485/485/485
f 485/485/485 481/481/481 486/486/486
f 487/487/487 483/483/483 484/484/484
f 490/490/490 489/489/489 488/488/488
f 493/493/493 492/492/492 491/491/491
f 491/491/491 495/495/495 494/494/494
f 498/498/498 497/497/497 496/496/496
f 499/499/499 497/497/497 498/498/498
f 499/499/499 498/498/498 500/500/500
f 500/500/500 498/498/498 501/501/501
f 501/501/501 502/502/502 500/500/500
f 500/500/500 502/502/502 503/503/503
f 506/506/506 505/505/505 504/504/504
f 506/506/506 504/504/504 507/507/507
f 507/507/507 504/504/504 508/508/508
f 507/507/507 508/508/508 509/509/509
f 509/509/509 508/508/508 510/510/510
f 511/511/511 507/507/507 509/509/509
f 512/512/512 507/507/507 511/511/511
f 512/512/512 506/506/506 507/507/507
f 513/513/513 506/506/506 512/512/512
f 515/515/515 514/514/514 510/510/510
f 518/518/518 517/517/517 516/516/516
f 519/519/519 518/518/518 516/516/516
f 516/516/516 517/517/517 520/520/520
f 523/523/523 522/522/522 521/521/521
f 524/524/524 522/522/522 523/523/523
f 523/523/523 521/521/521 525/525/525
f 525/525/525 521/521/521 526/526/526
f 522/522/522 527/527/527 521/521/521
f 528/528/528 527/527/527 522/522/522
f 526/526/526 530/530/530 529/529/529
f 533/533/533 532/532/532 531/531/531
f 533/533/533 531/531/531 534/534/534
f 534/534/534 536/536/536 535/535/535
f 539/539/539 538/538/538 537/537/537
f 542/542/542 541/541/541 540/540/540
f 543/543/543 541/541/541 542/542/542
f 542/542/542 540/540/540 544/544/544
f 544/544/544 540/540/540 545/545/545
f 541/541/541 546/546/546 540/540/540
f 540/540/540 546/546/546 547/547/547
f 548/548/548 546/546/546 541/541/541
f 551/551/551 550/550/550 549/549/549
f 550/550/550 552/552/552 549/549/549
f 549/549/549 552/552/552 553/553/553
f 556/556/556 555/555/555 554/554/554
f 555/555/555 557/557/557 554/554/554
f 558/558/558 557/557/557 555/555/555
f 558/558/558 559/559/559 557/557/557
f 560/560/560 559/559/559 558/558/558
f 561/561/561 558/558/558 555/555/555
f 562/562/562 558/558/558 561/561/561
f 562/562/562 560/560/560 558/558/558
f 563/563/563 560/560/560 562/562/562
f 566/566/566 565/565/565 564/564/564
f 567/567/567 565/565/565 566/566/566
f 566/566/566 564/564/564 568/568/568
f 571/571/571 570/570/570 569/569/569
f 574/574/574 573/573/573 572/572/572
f 574/574/574 572/572/572 575/575/575
f 575/575/575 572/572/572 576/576/576
f 577/577/577 573/573/573 574/574/574
f 573/573/573 578/578/578 572/572/572
f 572/572/572 578/578/578 579/579/579
f 576/576/576 579/579/579 580/580/580
f 581/581/581 578/578/578 573/573/573
f 584/584/584 583/583/583 582/582/582
f 585/585/585 583/583/583 584/584/584
f 588/588/588 587/587/587 586/586/586
f 587/587/587 589/589/589 586/586/586
f 590/590/590 589/589/589 587/587/587
f 590/590/590 591/591/591 589/589/589
f 592/592/592 591/591/591 590/590/590
f 593/593/593 592/592/592 590/590/590
f 593/593/593 590/590/590 594/594/594
f 594/594/594 590/590/590 595/595/595
f 596/596/596 592/592/592 593/593/593
f 599/599/599 598/598/598 597/597/597
f 602/602/602 601/601/601 600/600/600
f 600/600/600 604/604/604 603/603/603
f 607/607/607 606/606/606 605/605/605
f 608/608/608 606/606/606 607/607/607
f 608/608/608 607/607/607 609/609/609
f 609/609/609 607/607/607 610/610/610
f 610/610/610 611/611/611 609/609/609
f 609/609/609 611/611/611 612/612/612
f 615/615/615 614/614/614 613/613/613
f 615/615/615 613/613/613 616/616/616
f 616/616/616 613/613/613 617/617/617
f 616/616/616 617/617/617 618/618/618
f 618/618/618 617/617/617 619/619/619
f 620/620/620 616/616/616 618/618/618
f 621/621/621 616/616/616 620/620/620
f 621/621/621 615/615/615 616/616/616
f 622/622/622 615/615/615 621/621/621
f 624/624/624 623/623/623 619/619/619
f 627/627/627 626/626/626 625/625/625
f 628/628/628 627/627/627 625/625/625
f 625/625/625 626/626/626 629/629/629
f 632/632/632 631/631/631 630/630/630
f 633/633/633 631/631/631 632/632/632
f 632/632/632 630/630/630 634/634/634
f 634/634/634 630/630/630 635/635/635
f 631/631/631 636/636/636 630/630/630
f 637/637/637 636/636/636 631/631/631
f 635/635/635 639/639/639 638/638/638
f 642/642/642 641/641/641 640/640/640
f 642/642/642 640/640/640 643/643/643
f 643/643/643 645/645/645 644/644/644
f 648/648/648 647/647/647 646/646/646
f 651/651/651 650/650/650 649/649/649
f 652/652/652 650/650/650 651/651/651
f 651/651/651 649/649/649 653/653/653
f 653/653/653 649/649/649 654/654/654
f 650/650/650 655/655/655 649/649/649
f 649/649/649 655/655/655 656/656/656
f 657/657/657 655/655/655 650/650/650
f 660/660/660 659/659/659 658/658/658
f 659/659/659 661/661/661 658/658/658
f 658/658/658 661/661/661 662/662/662
f 665/665/665 664/664/664 663/663/663
f 664/664/664 666/666/666 663/663/663
f 667/667/667 666/666/666 664/664/664
f 667/667/667 668/668/668 666/666/666
f 669/669/669 668/668/668 667/667/667
f 670/670/670 667/667/667 664/664/664
f 671/671/671 667/667/667 670/670/670
f 671/671/671 669/669/669 667/667/667
f 672/672/672 669/669/669 671/671/671
f 675/675/675 674/674/674 673/673/673
f 676/676/676 674/674/674 675/675/675
f 675/675/675 673/673/673 677/677/677
f 680/680/680 679/679/679 678/678/678
f 683/683/683 682/682/682 681/681/681
f 683/683/683 681/681/681 684/684/684
f 684/684/684 681/681/681 685/685/685
f 686/686/686 682/682/682 683/683/683
f 682/682/682 687/687/687 681/681/681
f 681/681/681 687/687/687 688/688/688
f 685/685/685 688/688/688 689/689/689
f 690/690/690 687/687/687 682/682/682
f 693/693/693 692/692/692 691/691/691
f 694/694/694 692/692/692 693/693/693
f 697/697/697 696/696/696 695/695/695
f 696/696/696 698/698/698 695/695/695
f 699/699/699 698/698/698 696/696/696
f 699/699/699 700/700/700 698/698/698
f 701/701/701 700/700/700 699/699/699
f 702/702/702 701/701/701 699/699/699
f 702/702/702 699/699/699 703/703/703
f 703/703/703 699/699/699 704/704/704
f 705/705/705 701/701/701 702/702/702
f 708/708/708 707/707/707 706/706/706
f 711/711/711 710/710/710 709/709/709
f 709/709/709 713/713/713 712/712/712
f 716/716/716 715/715/715 714/714/714
f 717/717/717 715/715/715 716/716/716
f 717/717/717 716/716/716 718/718/718
f 718/718/718 716/716/716 719/719/719
f 719/719/719 720/720/720 718/718/718
f 718/718/718 720/720/720 721/721/721
f 724/724/724 723/723/723 722/722/722
f 724/724/724 722/722/722 725/725/725
f 725/725/725 722/722/722 726/726/726
f 725/725/725 726/726/726 727/727/727
f 727/727/727 726/726/726 728/728/728
f 729/729/729 725/725/725 727/727/727
f 730/730/730 725/725/725 729/729/729
f 730/730/730 724/724/724 725/725/725
f 731/731/731 724/724/724 730/730/730
f 733/733/733 732/732/732 728/728/728
f 736/736/736 735/735/735 734/734/734
f 737/737/737 736/736/736 734/734/734
f 734/734/734 735/735/735 738/738/738
f 741/741/741 740/740/740 739/739/739
f 742/742/742 740/740/740 741/741/741
f 741/741/741 739/739/739 743/743/743
f 743/743/743 739/739/739 744/744/744
f 740/740/740 745/745/745 739/739/739
f 746/746/746 745/745/745 740/740/740
f 744/744/744 748/748/748 747/747/747
f 751/751/751 750/750/750 749/749/749
f 751/751/751 749/749/749 752/752/752
f 752/752/752 754/754/754 753/753/753
