g Ground_TR_mesh
v 1113.296 32.442 -1082.073
v 1141.152 32.442 -1091.435
v 1115.493 41.97588 -1079.002
v 1141.469 42.25283 -1087.639
v 1091.555 42.1277 -1048.909
v 1087.685 32.442 -1051.042
v 1079.995 41.99343 -1022.261
v 1074.416 32.442 -1024.187
v 1079.738 42.05904 -999.3912
v 1074.404 32.442 -999.994
v 1085.952 42.09948 -969.1411
v 1080.166 32.442 -967.4149
v 1094.008 41.97588 -949.8795
v 1089.297 32.442 -947.7372
v 1111.159 42.14602 -933.9524
v 1107.363 32.442 -927.7268
v 1141.494 42.06133 -922.1329
v 1139.199 32.442 -917.3295
v 1280.55 42.10253 -870.0608
v 1279.763 32.442 -863.7559
v 1364.332 42.06057 -837.9246
v 1362.641 32.442 -833.6521
v 1421.175 41.95528 -818.2516
v 1420.486 32.442 -812.9781
v 1452.803 42.15899 -811.3424
v 1453.682 32.442 -805.5685
v 1476.327 42.3276 -810.3414
v 1480.206 32.442 -805.2145
v 1484.732 42.29021 -815.9567
v 1497.976 32.442 -811.1105
v 1493.301 42.04989 -829.5797
v 1506.448 32.442 -828.005
v 1494.595 41.88128 -855.776
v 1506.381 32.442 -854.775
v 1506.385 32.442 -1090.306
v 1494.058 41.84923 -1087.633
v 1490.945 45.22295 -1085.039
v 1422.902 45.22295 -824.6481
v 1367.382 45.22295 -844.9192
v 1453.39 45.22295 -816.4938
v 1475.141 45.22295 -815.3463
v 1482.718 45.22295 -821.1202
v 1489.249 45.22295 -830.5563
v 1490.25 45.22295 -856.2032
v 1282.579 45.22295 -875.7859
v 1143.923 45.22295 -926.8143
v 1114.638 45.22295 -939.1404
v 1100.734 45.22295 -953.6545
v 1091.542 45.22295 -970.1455
v 1085.561 45.22295 -998.4528
v 1313.403 45.22295 -905.0956
v 1084.609 45.22295 -1021.108
v 1095.009 45.22295 -1046.599
v 1118.044 45.22295 -1076.354
v 1142.202 45.22295 -1084.16
v 1490.945 45.22295 -1085.039
v 1506.385 32.442 -1090.306
v 1494.058 41.84923 -1087.633
v 1490.945 45.22295 -1085.039
vt 0.541406 0.090506
vt 0.567824 0.0818
vt 0.543525 0.093315
vt 0.568168 0.08526
vt 0.521832 0.123216
vt 0.521238 0.121765
vt 0.51148 0.147251
vt 0.511125 0.147726
vt 0.510645 0.168748
vt 0.510007 0.169158
vt 0.516168 0.198286
vt 0.515432 0.198611
vt 0.524363 0.214187
vt 0.52401 0.215232
vt 0.540924 0.229178
vt 0.540492 0.231142
vt 0.569465 0.240083
vt 0.56902 0.242055
vt 0.70571 0.287959
vt 0.705457 0.290597
vt 0.787791 0.323323
vt 0.787573 0.324239
vt 0.843384 0.345424
vt 0.843262 0.346745
vt 0.874635 0.35197
vt 0.874428 0.354587
vt 0.902275 0.352918
vt 0.902439 0.355204
vt 0.919489 0.347616
vt 0.920343 0.348603
vt 0.926045 0.333988
vt 0.926374 0.334454
vt 0.927011 0.309525
vt 0.927197 0.309702
vt 0.926556 0.083871
vt 0.9263 0.085372
vt 0.925589 0.087613
vt 0.84584 0.339275
vt 0.791228 0.316813
vt 0.876121 0.346973
vt 0.900985 0.348079
vt 0.917121 0.342639
vt 0.923549 0.333738
vt 0.924535 0.309534
vt 0.706919 0.283064
vt 0.571068 0.236941
vt 0.542533 0.225305
vt 0.528957 0.211603
vt 0.520005 0.196033
vt 0.514185 0.169308
vt 0.740664 0.265938
vt 0.513039 0.147852
vt 0.523331 0.123814
vt 0.546069 0.095746
vt 0.569791 0.088388
vt 0.925589 0.087613
vt 0.926556 0.083871
vt 0.9263 0.085372
vt 0.925589 0.087613
vn -0.5956649 0.3848855 -0.7050153
vn -0.1999585 0.359638 -0.9114149
vn -0.3993283 0.5780544 -0.7116109
vn -0.08776131 0.5407521 -0.8365914
vn -0.6599412 0.6091799 -0.4397472
vn -0.7741671 0.4519309 -0.4431971
vn -0.7111134 0.6713123 -0.2089437
vn -0.8480632 0.513199 -0.1319679
vn -0.7163025 0.6961564 0.04771976
vn -0.8617489 0.4955801 0.1085785
vn -0.6739215 0.7161698 0.1814682
vn -0.8095897 0.5135456 0.2843155
vn -0.5757591 0.7350388 0.3580772
vn -0.6785893 0.5097808 0.5288101
vn -0.3967832 0.7569271 0.5192538
vn -0.3963846 0.5649099 0.7237099
vn -0.2435634 0.7178596 0.6521921
vn -0.2933657 0.5010847 0.8141564
vn -0.2437734 0.7243552 0.6448908
vn -0.3037852 0.5033574 0.8089165
vn -0.2334538 0.7300488 0.6422835
vn -0.2993992 0.4471827 0.8428449
vn -0.2034048 0.7240757 0.6590455
vn -0.2252456 0.4855559 0.8446892
vn -0.1179124 0.7106586 0.6935857
vn -0.08100422 0.4860493 0.8701692
vn 0.114477 0.7199596 0.6845095
vn 0.2367061 0.5708946 0.7861612
vn 0.3873852 0.7869899 0.4801871
vn 0.4400231 0.7822516 0.4409786
vn 0.5458084 0.8103058 0.2133016
vn 0.5913054 0.8002857 0.09950225
vn 0.6271912 0.7788163 0.008728933
vn 0.6251698 0.7804884 -0.0007829383
vn 0.6158355 0.7878744 -0.0007524213
vn 0.6728911 0.7397397 -0.001661746
vn 0.2990966 0.9431968 -0.1446402
vn -0.0660715 0.9707658 0.230756
vn -0.06940541 0.9784823 0.1943071
vn -0.03873773 0.949065 0.3126898
vn 0.1433997 0.9293689 0.3401619
vn 0.2252769 0.9575679 0.1797609
vn 0.3080901 0.9486018 0.07235453
vn 0.2129208 0.9770592 0.004473958
vn -0.07733878 0.975078 0.2079461
vn -0.1114763 0.9514516 0.2869021
vn -0.1417033 0.9580306 0.2491937
vn -0.1929327 0.9677755 0.1618259
vn -0.2596733 0.960569 0.09938245
vn -0.2969918 0.9538118 0.04515542
vn 0 1 0
vn -0.3287174 0.9434848 -0.04220466
vn -0.3262597 0.9295583 -0.171686
vn -0.2590035 0.9144432 -0.3109837
vn -0.0914784 0.9067207 -0.4116907
vn 0.2568679 0.9262763 -0.2757376
vn 0.00160837 0.3176127 -0.9482192
vn 0.0005304412 0.4498938 -0.893082
vn -0.0002520307 0.9194444 -0.3932199
g Ground_TR_mesh_0
f 3/3/3 2/2/2 1/1/1
f 4/4/4 2/2/2 3/3/3
f 3/3/3 1/1/1 5/5/5
f 5/5/5 1/1/1 6/6/6
f 5/5/5 6/6/6 7/7/7
f 7/7/7 6/6/6 8/8/8
f 7/7/7 8/8/8 9/9/9
f 9/9/9 8/8/8 10/10/10
f 9/9/9 10/10/10 11/11/11
f 11/11/11 10/10/10 12/12/12
f 11/11/11 12/12/12 13/13/13
f 13/13/13 12/12/12 14/14/14
f 13/13/13 14/14/14 15/15/15
f 15/15/15 14/14/14 16/16/16
f 15/15/15 16/16/16 17/17/17
f 17/17/17 16/16/16 18/18/18
f 17/17/17 18/18/18 19/19/19
f 19/19/19 18/18/18 20/20/20
f 19/19/19 20/20/20 21/21/21
f 21/21/21 20/20/20 22/22/22
f 21/21/21 22/22/22 23/23/23
f 23/23/23 22/22/22 24/24/24
f 23/23/23 24/24/24 25/25/25
f 25/25/25 24/24/24 26/26/26
f 25/25/25 26/26/26 27/27/27
f 27/27/27 26/26/26 28/28/28
f 27/27/27 28/28/28 29/29/29
f 29/29/29 28/28/28 30/30/30
f 29/29/29 30/30/30 31/31/31
f 31/31/31 30/30/30 32/32/32
f 31/31/31 32/32/32 33/33/33
f 33/33/33 32/32/32 34/34/34
f 35/35/35 33/33/33 34/34/34
f 36/36/36 33/33/33 35/35/35
f 36/36/36 37/37/37 33/33/33
f 25/25/25 38/38/38 23/23/23
f 38/38/38 39/39/39 23/23/23
f 40/40/40 38/38/38 25/25/25
f 27/27/27 40/40/40 25/25/25
f 41/41/41 40/40/40 27/27/27
f 29/29/29 41/41/41 27/27/27
f 42/42/42 41/41/41 29/29/29
f 40/40/40 42/42/42 38/38/38
f 41/41/41 42/42/42 40/40/40
f 31/31/31 42/42/42 29/29/29
f 43/43/43 42/42/42 31/31/31
f 38/38/38 43/43/43 39/39/39
f 42/42/42 43/43/43 38/38/38
f 33/33/33 43/43/43 31/31/31
f 44/44/44 43/43/43 33/33/33
f 43/43/43 44/44/44 39/39/39
f 33/33/33 37/37/37 44/44/44
f 39/39/39 44/44/44 45/45/45
f 39/39/39 45/45/45 21/21/21
f 21/21/21 45/45/45 19/19/19
f 45/45/45 46/46/46 19/19/19
f 19/19/19 46/46/46 17/17/17
f 46/46/46 47/47/47 17/17/17
f 17/17/17 47/47/47 15/15/15
f 47/47/47 48/48/48 15/15/15
f 15/15/15 48/48/48 13/13/13
f 48/48/48 49/49/49 13/13/13
f 13/13/13 49/49/49 11/11/11
f 49/49/49 50/50/50 11/11/11
f 49/49/49 51/51/51 50/50/50
f 49/49/49 48/48/48 51/51/51
f 47/47/47 51/51/51 48/48/48
f 51/51/51 45/45/45 44/44/44
f 46/46/46 51/51/51 47/47/47
f 45/45/45 51/51/51 46/46/46
f 50/50/50 51/51/51 52/52/52
f 52/52/52 51/51/51 53/53/53
f 53/53/53 51/51/51 54/54/54
f 54/54/54 51/51/51 55/55/55
f 56/56/56 55/55/55 51/51/51
f 56/56/56 4/4/4 55/55/55
f 3/3/3 55/55/55 4/4/4
f 54/54/54 55/55/55 3/3/3
f 5/5/5 54/54/54 3/3/3
f 53/53/53 54/54/54 5/5/5
f 7/7/7 53/53/53 5/5/5
f 52/52/52 53/53/53 7/7/7
f 9/9/9 52/52/52 7/7/7
f 50/50/50 52/52/52 9/9/9
f 11/11/11 50/50/50 9/9/9
f 44/44/44 56/56/56 51/51/51
f 58/58/58 57/57/57 4/4/4
f 4/4/4 57/57/57 2/2/2
f 58/58/58 4/4/4 59/59/59
f 23/23/23 39/39/39 21/21/21
