g GVG_LaserGunLever_mesh
v 1438.719 196.3316 -240.3277
v 1432.601 203.3714 -259.9146
v 1502.117 240.0662 -244.4125
v 1495.999 247.106 -263.9995
v 1507.469 231.8768 -249.0276
v 1501.351 238.9166 -268.6147
v 1444.071 188.1422 -244.9428
v 1437.953 195.182 -264.5298
v 1507.469 231.8768 -249.0276
v 1444.071 188.1422 -244.9428
v 1502.117 240.0662 -244.4125
v 1438.719 196.3316 -240.3277
v 1437.953 195.182 -264.5298
v 1501.351 238.9166 -268.6147
v 1432.601 203.3714 -259.9146
v 1495.999 247.106 -263.9995
v 1482.199 283.5474 -226.9912
v 1483.358 283.1605 -226.982
v 1480.714 280.6618 -224.2266
v 1481.779 280.0909 -224.041
v 1483.754 285.8545 -230.6085
v 1482.57 286.0796 -230.4001
v 1482.926 287.9093 -234.5655
v 1481.792 288.011 -234.1196
v 1480.956 289.1236 -238.4658
v 1479.941 289.1526 -237.786
v 1478.038 289.3786 -241.9276
v 1477.198 289.3924 -241.04
v 1474.457 288.6494 -244.6117
v 1473.831 288.7069 -243.5632
v 1470.562 287.0074 -246.256
v 1470.171 287.1634 -245.1088
v 1466.736 284.6132 -246.6989
v 1466.574 284.9129 -245.5251
v 1463.354 281.7012 -245.8974
v 1463.394 282.1755 -244.7718
v 1460.745 278.5565 -243.9299
v 1460.942 279.2195 -242.9224
v 1459.166 275.4869 -240.9891
v 1459.458 276.3341 -240.1577
v 1458.771 272.793 -237.3627
v 1459.086 273.8016 -236.7488
v 1459.598 270.7382 -233.4054
v 1459.864 271.8702 -233.0293
v 1461.568 269.5238 -229.5052
v 1461.716 270.7287 -229.3629
v 1464.486 269.2689 -226.0435
v 1464.459 270.4891 -226.1089
v 1468.068 269.9981 -223.3593
v 1467.826 271.1744 -223.5857
v 1471.962 271.6399 -221.7151
v 1471.486 272.718 -222.0401
v 1516.915 198.6502 -297.1709
v 1519.524 201.7948 -299.1384
v 1522.907 204.7068 -299.9398
v 1526.732 207.1009 -299.4968
v 1530.627 208.743 -297.8526
v 1534.208 209.4723 -295.1683
v 1537.127 209.2172 -291.7066
v 1539.096 208.0027 -287.8063
v 1539.924 205.9481 -283.8495
v 1539.529 203.2541 -280.2229
v 1475.788 274.0342 -221.2722
v 1475.083 274.9686 -221.6239
v 1479.17 276.9463 -222.0736
v 1478.262 277.7058 -222.3772
v 1470.828 279.9406 -233.5744
v 1515.336 195.5805 -294.2298
v 1514.941 192.8866 -290.6035
v 1515.336 195.5805 -294.2298
v 1458.771 272.793 -237.3627
v 1459.166 275.4869 -240.9891
v 1459.598 270.7382 -233.4054
v 1515.769 190.8318 -286.6464
v 1461.568 269.5238 -229.5052
v 1517.738 189.6174 -282.746
v 1464.486 269.2689 -226.0435
v 1520.656 189.3624 -279.2843
v 1468.068 269.9981 -223.3593
v 1524.238 190.0915 -276.6
v 1471.962 271.6399 -221.7151
v 1528.132 191.7336 -274.956
v 1475.788 274.0342 -221.2722
v 1531.958 194.1278 -274.5129
v 1479.17 276.9463 -222.0736
v 1535.341 197.0397 -275.3145
v 1481.779 280.0909 -224.041
v 1537.949 200.1844 -277.2819
v 1483.358 283.1605 -226.982
v 1539.529 203.2541 -280.2229
vt 0.769531 0.14013
vt 0.760576 0.10124
vt 0.927728 0.143477
vt 0.91911 0.103806
vt 0.933958 0.131489
vt 0.925393 0.091929
vt 0.776224 0.128392
vt 0.767325 0.089609
vt 0.933958 0.131489
vt 0.776224 0.128392
vt 0.927728 0.143477
vt 0.769531 0.14013
vt 0.767325 0.089609
vt 0.925393 0.091929
vt 0.760576 0.10124
vt 0.91911 0.103806
vt 0.912209 0.193377
vt 0.914472 0.193279
vt 0.907201 0.198465
vt 0.909143 0.19869
vt 0.917018 0.186254
vt 0.914599 0.186774
vt 0.916519 0.178305
vt 0.914127 0.179301
vt 0.913015 0.170215
vt 0.910833 0.171697
vt 0.906849 0.162787
vt 0.905038 0.164715
vt 0.898634 0.156759
vt 0.897314 0.159047
vt 0.889183 0.152725
vt 0.888432 0.155254
vt 0.879436 0.151082
vt 0.879269 0.153707
vt 0.870355 0.151983
vt 0.870731 0.15455
vt 0.862828 0.15533
vt 0.863652 0.157694
vt 0.857585 0.160785
vt 0.858721 0.16282
vt 0.855128 0.167807
vt 0.856408 0.169422
vt 0.855683 0.17571
vt 0.856929 0.176853
vt 0.859189 0.183727
vt 0.860226 0.184393
vt 0.865302 0.191083
vt 0.865976 0.191311
vt 0.873432 0.197068
vt 0.873622 0.196941
vt 0.882794 0.201104
vt 0.882428 0.200736
vt 0.933266 0.022635
vt 0.940619 0.01922
vt 0.949463 0.018175
vt 0.95893 0.019613
vt 0.968087 0.023399
vt 0.976027 0.029162
vt 0.981959 0.036334
vt 0.985296 0.044203
vt 0.985712 0.051988
vt 0.983175 0.058921
vt 0.892485 0.202793
vt 0.891541 0.202324
vt 0.901564 0.201965
vt 0.900077 0.201545
vt 0.885419 0.178073
vt 0.928115 0.028077
vt 0.92566 0.035006
vt 0.928115 0.028077
vt 0.855128 0.167807
vt 0.857585 0.160785
vt 0.855683 0.17571
vt 0.926129 0.042746
vt 0.859189 0.183727
vt 0.929469 0.050546
vt 0.865302 0.191083
vt 0.935353 0.057651
vt 0.873432 0.197068
vt 0.943211 0.063376
vt 0.882794 0.201104
vt 0.952286 0.067165
vt 0.892485 0.202793
vt 0.961701 0.068647
vt 0.901564 0.201965
vt 0.970542 0.067672
vt 0.909143 0.19869
vt 0.977943 0.064324
vt 0.914472 0.193279
vt 0.983175 0.058921
vn -0.4947735 0.7570763 0.4266551
vn -0.4947736 0.7570765 0.4266548
vn -0.4947736 0.7570765 0.4266548
vn -0.4947737 0.7570767 0.4266544
vn 0.4947748 -0.7570776 -0.4266515
vn 0.4947747 -0.7570776 -0.4266516
vn 0.4947747 -0.7570776 -0.4266516
vn 0.4947746 -0.7570776 -0.4266518
vn 0.2820242 -0.324496 0.9028648
vn 0.2820242 -0.324496 0.9028647
vn 0.2820242 -0.324496 0.9028647
vn 0.2820242 -0.3244961 0.9028647
vn -0.2820261 0.3244987 -0.9028631
vn -0.2820262 0.3244989 -0.902863
vn -0.2820262 0.3244989 -0.902863
vn -0.2820264 0.3244992 -0.902863
vn -0.06661368 0.7754528 0.6278819
vn 0.5629278 0.4900055 0.6655877
vn -0.1100967 0.68072 0.7242231
vn 0.4505365 0.2925026 0.8434803
vn 0.6010957 0.6667122 0.4406573
vn -0.06074951 0.8569418 0.5118205
vn 0.561287 0.805351 0.1907002
vn -0.09295071 0.9172012 0.3874303
vn 0.4475102 0.8922737 -0.05985253
vn -0.1600153 0.95037 0.2668183
vn 0.2708395 0.9190125 -0.2864645
vn -0.2555244 0.9531582 0.1618542
vn 0.04854596 0.8829714 -0.4669099
vn -0.3700923 0.9252967 0.0828104
vn -0.1976153 0.7876741 -0.5835389
vn -0.4924679 0.869525 0.03743799
vn -0.443533 0.6424246 -0.6249552
vn -0.6106963 0.7912919 0.03012028
vn -0.6651059 0.4614432 -0.5871152
vn -0.7131772 0.6982739 0.06157798
vn -0.8406573 0.2624559 -0.4737217
vn -0.7898949 0.5995668 0.1287852
vn -0.9530354 0.06494302 -0.2958138
vn -0.8333312 0.5048299 0.2251799
vn -0.9912058 -0.1117455 -0.07088064
vn -0.839266 0.42334 0.3411975
vn -0.9514491 -0.2503587 0.1790673
vn -0.8070893 0.3630534 0.4656169
vn -0.8376285 -0.3373208 0.429643
vn -0.7399408 0.3298869 0.586227
vn -0.6609259 -0.3640762 0.6562207
vn -0.6444156 0.3271153 0.6911759
vn -0.4386421 -0.3280347 0.8366519
vn -0.5298724 0.3549779 0.7702116
vn -0.1924851 -0.2327137 0.9533068
vn -0.4074881 0.410759 0.8156166
vn -0.7492393 -0.08943878 -0.6562325
vn -0.5801214 0.1281577 -0.8043848
vn -0.3542217 0.3331969 -0.8737888
vn -0.09365583 0.5056145 -0.8576612
vn 0.1760884 0.6285462 -0.7575768
vn 0.4285816 0.6899484 -0.5833431
vn 0.6391311 0.6838161 -0.3520043
vn 0.7871226 0.6107434 -0.08620043
vn 0.8580588 0.4778912 0.1880294
vn 0.8450001 0.2982447 0.4438748
vn 0.05342755 -0.08745866 0.9947344
vn -0.2892773 0.4889608 0.8229435
vn 0.2749895 0.09348153 0.9568918
vn -0.1868067 0.5819813 0.791455
vn -0.504939 0.7183132 0.4786052
vn -0.845005 -0.2982652 -0.4438517
vn -0.8580597 -0.4778841 -0.1880431
vn -0.845005 -0.2982652 -0.4438517
vn -0.9912058 -0.1117455 -0.07088064
vn -0.9530354 0.06494302 -0.2958138
vn -0.9514491 -0.2503587 0.1790673
vn -0.7871223 -0.6107438 0.08619991
vn -0.8376285 -0.3373208 0.429643
vn -0.6391276 -0.6838166 0.3520098
vn -0.6609259 -0.3640762 0.6562207
vn -0.4285901 -0.6899481 0.5833371
vn -0.4386421 -0.3280347 0.8366519
vn -0.1760959 -0.6285487 0.7575729
vn -0.1924851 -0.2327137 0.9533068
vn 0.09367061 -0.505607 0.8576639
vn 0.05342755 -0.08745866 0.9947344
vn 0.3542294 -0.333189 0.8737887
vn 0.2749895 0.09348153 0.9568918
vn 0.5801119 -0.1281662 0.8043902
vn 0.4505365 0.2925026 0.8434803
vn 0.7492355 0.08942974 0.6562381
vn 0.5629278 0.4900055 0.6655877
vn 0.8450001 0.2982447 0.4438748
g GVG_LaserGunLever_mesh_0
f 3/3/3 2/2/2 1/1/1
f 4/4/4 2/2/2 3/3/3
f 7/7/7 6/6/6 5/5/5
f 8/8/8 6/6/6 7/7/7
f 11/11/11 10/10/10 9/9/9
f 12/12/12 10/10/10 11/11/11
f 15/15/15 14/14/14 13/13/13
f 16/16/16 14/14/14 15/15/15
f 19/19/19 18/18/18 17/17/17
f 20/20/20 18/18/18 19/19/19
f 21/21/21 17/17/17 18/18/18
f 22/22/22 17/17/17 21/21/21
f 23/23/23 22/22/22 21/21/21
f 24/24/24 22/22/22 23/23/23
f 25/25/25 24/24/24 23/23/23
f 26/26/26 24/24/24 25/25/25
f 27/27/27 26/26/26 25/25/25
f 28/28/28 26/26/26 27/27/27
f 29/29/29 28/28/28 27/27/27
f 30/30/30 28/28/28 29/29/29
f 31/31/31 30/30/30 29/29/29
f 32/32/32 30/30/30 31/31/31
f 33/33/33 32/32/32 31/31/31
f 34/34/34 32/32/32 33/33/33
f 35/35/35 34/34/34 33/33/33
f 36/36/36 34/34/34 35/35/35
f 37/37/37 36/36/36 35/35/35
f 38/38/38 36/36/36 37/37/37
f 39/39/39 38/38/38 37/37/37
f 40/40/40 38/38/38 39/39/39
f 41/41/41 40/40/40 39/39/39
f 42/42/42 40/40/40 41/41/41
f 43/43/43 42/42/42 41/41/41
f 44/44/44 42/42/42 43/43/43
f 45/45/45 44/44/44 43/43/43
f 46/46/46 44/44/44 45/45/45
f 47/47/47 46/46/46 45/45/45
f 48/48/48 46/46/46 47/47/47
f 49/49/49 48/48/48 47/47/47
f 50/50/50 48/48/48 49/49/49
f 51/51/51 50/50/50 49/49/49
f 52/52/52 50/50/50 51/51/51
f 37/37/37 53/53/53 39/39/39
f 37/37/37 54/54/54 53/53/53
f 35/35/35 54/54/54 37/37/37
f 35/35/35 55/55/55 54/54/54
f 33/33/33 55/55/55 35/35/35
f 33/33/33 56/56/56 55/55/55
f 31/31/31 56/56/56 33/33/33
f 31/31/31 57/57/57 56/56/56
f 29/29/29 57/57/57 31/31/31
f 29/29/29 58/58/58 57/57/57
f 27/27/27 58/58/58 29/29/29
f 27/27/27 59/59/59 58/58/58
f 25/25/25 59/59/59 27/27/27
f 25/25/25 60/60/60 59/59/59
f 23/23/23 60/60/60 25/25/25
f 23/23/23 61/61/61 60/60/60
f 21/21/21 61/61/61 23/23/23
f 21/21/21 62/62/62 61/61/61
f 18/18/18 62/62/62 21/21/21
f 63/63/63 52/52/52 51/51/51
f 64/64/64 52/52/52 63/63/63
f 65/65/65 64/64/64 63/63/63
f 66/66/66 64/64/64 65/65/65
f 67/67/67 52/52/52 64/64/64
f 67/67/67 64/64/64 66/66/66
f 67/67/67 50/50/50 52/52/52
f 67/67/67 48/48/48 50/50/50
f 67/67/67 46/46/46 48/48/48
f 67/67/67 44/44/44 46/46/46
f 67/67/67 42/42/42 44/44/44
f 67/67/67 40/40/40 42/42/42
f 67/67/67 38/38/38 40/40/40
f 67/67/67 36/36/36 38/38/38
f 67/67/67 34/34/34 36/36/36
f 67/67/67 32/32/32 34/34/34
f 67/67/67 30/30/30 32/32/32
f 67/67/67 28/28/28 30/30/30
f 67/67/67 26/26/26 28/28/28
f 67/67/67 24/24/24 26/26/26
f 67/67/67 22/22/22 24/24/24
f 67/67/67 17/17/17 22/22/22
f 67/67/67 19/19/19 17/17/17
f 67/67/67 66/66/66 19/19/19
f 19/19/19 66/66/66 20/20/20
f 20/20/20 66/66/66 65/65/65
f 39/39/39 53/53/53 68/68/68
f 71/71/71 70/70/70 69/69/69
f 72/72/72 70/70/70 71/71/71
f 71/71/71 69/69/69 73/73/73
f 73/73/73 69/69/69 74/74/74
f 73/73/73 74/74/74 75/75/75
f 75/75/75 74/74/74 76/76/76
f 75/75/75 76/76/76 77/77/77
f 77/77/77 76/76/76 78/78/78
f 77/77/77 78/78/78 79/79/79
f 79/79/79 78/78/78 80/80/80
f 79/79/79 80/80/80 81/81/81
f 81/81/81 80/80/80 82/82/82
f 81/81/81 82/82/82 83/83/83
f 83/83/83 82/82/82 84/84/84
f 83/83/83 84/84/84 85/85/85
f 85/85/85 84/84/84 86/86/86
f 85/85/85 86/86/86 87/87/87
f 87/87/87 86/86/86 88/88/88
f 87/87/87 88/88/88 89/89/89
f 89/89/89 88/88/88 90/90/90
