g GVG_TeleporterSidePipe_mesh
v 1192.71 86.86404 -1053.974
v 1189.235 90.00873 -1049.006
v 1183.329 83.06884 -1057.817
v 1181.542 84.45876 -1055.582
v 1184.124 92.23859 -1045.064
v 1178.895 85.4231 -1053.807
v 1177.876 93.33557 -1042.533
v 1175.647 85.86732 -1052.668
v 1171.104 93.19218 -1041.661
v 1172.115 85.74808 -1052.276
v 1164.471 91.82246 -1042.533
v 1168.645 85.077 -1052.668
v 1158.625 89.36046 -1045.064
v 1165.577 83.91979 -1053.807
v 1154.139 86.04736 -1049.006
v 1163.211 82.38964 -1055.582
v 1151.452 82.20717 -1053.974
v 1161.779 80.63646 -1057.817
v 1150.828 78.21605 -1059.48
v 1161.422 78.83178 -1060.295
v 1152.326 74.4646 -1064.987
v 1162.173 77.15227 -1062.773
v 1155.802 71.31996 -1069.954
v 1163.959 75.76235 -1065.008
v 1160.913 69.09001 -1073.896
v 1166.607 74.79802 -1066.782
v 1167.161 67.99309 -1076.427
v 1169.855 74.35378 -1067.921
v 1173.932 68.13652 -1077.3
v 1173.387 74.47301 -1068.313
v 1180.566 69.50616 -1076.427
v 1176.857 75.14411 -1067.921
v 1186.412 71.96813 -1073.896
v 1179.925 76.30131 -1066.782
v 1190.897 75.28133 -1069.954
v 1182.291 77.83146 -1065.008
v 1193.584 79.12148 -1064.987
v 1183.722 79.58464 -1062.773
v 1194.209 83.11258 -1059.48
v 1184.08 81.38934 -1060.295
v 1179.925 76.30131 -1066.782
v 1182.291 77.83146 -1065.008
v 1177.89 94.33363 -1079.621
v 1174.822 93.17641 -1080.76
v 1176.857 75.14411 -1067.921
v 1171.352 92.50533 -1081.153
v 1173.387 74.47301 -1068.313
v 1167.82 92.38609 -1080.76
v 1169.855 74.35378 -1067.921
v 1164.571 92.83034 -1079.621
v 1166.607 74.79802 -1066.782
v 1161.924 93.79467 -1077.847
v 1163.959 75.76235 -1065.008
v 1160.137 95.18458 -1075.612
v 1162.173 77.15227 -1062.773
v 1159.386 96.8641 -1073.134
v 1161.422 78.83178 -1060.295
v 1180.255 95.86378 -1077.847
v 1183.722 79.58464 -1062.773
v 1181.687 97.61694 -1075.612
v 1184.08 81.38934 -1060.295
v 1182.045 99.42165 -1073.134
v 1183.329 83.06884 -1057.817
v 1181.542 84.45876 -1055.582
v 1181.294 101.1012 -1070.656
v 1179.507 102.4911 -1068.421
v 1178.895 85.4231 -1053.807
v 1176.86 103.4554 -1066.647
v 1175.647 85.86732 -1052.668
v 1173.611 103.8996 -1065.508
v 1172.115 85.74808 -1052.276
v 1170.079 103.7804 -1065.115
v 1168.645 85.077 -1052.668
v 1166.609 103.1093 -1065.508
v 1165.577 83.91979 -1053.807
v 1163.542 101.9521 -1066.647
v 1163.211 82.38964 -1055.582
v 1161.176 100.422 -1068.421
v 1161.779 80.63646 -1057.817
v 1159.744 98.66877 -1070.656
v 1161.422 78.83178 -1060.295
v 1159.386 96.8641 -1073.134
v 1187.116 67.7448 -1032.094
v 1189.853 64.51678 -1037.061
v 1194.096 39.06112 -1009.463
v 1197.571 35.91644 -1014.431
v 1188.985 41.29102 -1005.521
v 1185.246 69.2626 -1031.037
v 1183.627 42.82856 -1002.512
v 1181.873 70.00673 -1031.34
v 1177.765 43.7794 -1000.247
v 1177.993 69.07572 -1031.505
v 1172.49 43.79262 -999.3925
v 1172.967 68.27055 -1033.859
v 1177.876 93.33557 -1042.533
v 1184.124 92.23859 -1045.064
v 1189.235 90.00873 -1049.006
v 1192.71 86.86404 -1053.974
v 1171.104 93.19218 -1041.661
v 1191.097 60.73661 -1042.568
v 1199.07 32.165 -1019.937
v 1161.556 41.87037 -1000.359
v 1172.967 68.27055 -1033.859
v 1172.49 43.79262 -999.3925
v 1171.74 66.12788 -1036.166
v 1172.967 68.27055 -1033.859
v 1161.556 41.87037 -1000.359
v 1156.045 35.68305 -1008.175
v 1168.6 63.08026 -1042.474
v 1167.254 79.99823 -1043.489
v 1171.743 81.78866 -1040.881
v 1172.967 68.27055 -1033.859
v 1164.471 91.82246 -1042.533
v 1158.625 89.36046 -1045.064
v 1155.078 31.17183 -1014.358
v 1168.6 63.08026 -1042.474
v 1164.946 60.01416 -1044.119
v 1168.6 63.08026 -1042.474
v 1155.689 27.26847 -1019.937
v 1164.946 60.01416 -1044.119
v 1160.203 56.17159 -1045.453
v 1155.689 27.26847 -1019.937
v 1162.13 76.16441 -1047.045
v 1168.6 63.08026 -1042.474
v 1164.946 60.01416 -1044.119
v 1157.187 23.51697 -1025.443
v 1160.203 56.17159 -1045.453
v 1155.689 27.26847 -1019.937
v 1159.355 53.23323 -1048.074
v 1160.203 56.17159 -1045.453
v 1157.187 23.51697 -1025.443
v 1152.326 74.4646 -1064.987
v 1171.104 93.19218 -1041.661
v 1172.967 68.27055 -1033.859
v 1171.743 81.78866 -1040.881
v 1171.104 93.19218 -1041.661
v 1171.743 81.78866 -1040.881
v 1164.471 91.82246 -1042.533
v 1158.879 72.87643 -1050.828
v 1162.13 76.16441 -1047.045
v 1164.946 60.01416 -1044.119
v 1160.203 56.17159 -1045.453
v 1158.879 72.87643 -1050.828
v 1164.946 60.01416 -1044.119
v 1159.178 67.42979 -1055.407
v 1158.879 72.87643 -1050.828
v 1160.203 56.17159 -1045.453
v 1160.203 56.17159 -1045.453
v 1152.326 74.4646 -1064.987
v 1159.178 67.42979 -1055.407
v 1159.178 67.42979 -1055.407
v 1152.326 74.4646 -1064.987
v 1150.828 78.21605 -1059.48
v 1151.452 82.20717 -1053.974
v 1158.879 72.87643 -1050.828
v 1154.139 86.04736 -1049.006
v 1162.13 76.16441 -1047.045
v 1158.625 89.36046 -1045.064
v 1167.254 79.99823 -1043.489
v 1155.802 71.31996 -1069.954
v 1162.092 50.00528 -1053.042
v 1159.355 53.23323 -1048.074
v 1160.662 20.37238 -1030.411
v 1157.187 23.51697 -1025.443
v 1165.774 18.14239 -1034.353
v 1166.054 47.64555 -1056.984
v 1172.021 17.04552 -1036.884
v 1170.852 46.38506 -1059.515
v 1178.793 17.18889 -1037.756
v 1176.018 46.34719 -1060.387
v 1185.427 18.55865 -1036.884
v 1181.045 47.53558 -1059.515
v 1191.273 21.02051 -1034.353
v 1185.443 49.83401 -1056.984
v 1195.759 24.33372 -1030.411
v 1188.778 53.0174 -1053.042
v 1198.445 28.17384 -1025.443
v 1190.727 56.77419 -1048.074
v 1199.07 32.165 -1019.937
v 1191.097 60.73661 -1042.568
v 1160.913 69.09001 -1073.896
v 1167.161 67.99309 -1076.427
v 1173.932 68.13652 -1077.3
v 1180.566 69.50616 -1076.427
v 1186.412 71.96813 -1073.896
v 1190.897 75.28133 -1069.954
v 1193.584 79.12148 -1064.987
v 1194.209 83.11258 -1059.48
v 1189.853 64.51678 -1037.061
v 1192.71 86.86404 -1053.974
v 1184.08 81.38934 -1060.295
v 1182.045 99.42165 -1073.134
v 1176.358 52.46405 -979.4062
v 1171.844 52.525 -979.6295
v 1175.906 53.29268 -984.6653
v 1171.478 53.36136 -984.8734
v 1177.024 48.6601 -975.8224
v 1172.327 48.71979 -976.0644
v 1177.604 43.78001 -975.2347
v 1172.712 43.84494 -975.4902
v 1167.581 48.98624 -976.3745
v 1167.737 44.1337 -975.8268
v 1162.79 49.48864 -976.8007
v 1162.681 44.67764 -976.295
v 1157.976 50.26362 -977.4063
v 1157.567 45.5159 -976.9622
v 1153.171 51.35762 -978.2799
v 1152.425 46.69782 -977.9211
v 1158.443 53.8886 -980.7566
v 1154.089 54.84488 -981.4793
v 1149.875 56.12275 -982.5281
v 1154.774 55.39661 -986.36
v 1150.999 56.49466 -987.1926
v 1148.441 52.82284 -979.5378
v 1147.329 48.27894 -979.2944
v 1143.906 54.70826 -981.3256
v 1142.405 50.31066 -981.2339
v 1139.759 57.02779 -983.7877
v 1137.865 52.80659 -983.8882
v 1136.237 59.72181 -987.0002
v 1133.978 55.70082 -987.3323
v 1133.523 62.65104 -990.9091
v 1130.953 58.84276 -991.5035
v 1131.688 65.64511 -995.3541
v 1128.872 62.05084 -996.2285
v 1130.797 68.53749 -1000.157
v 1127.794 65.15217 -1001.318
v 1130.933 71.20039 -1005.201
v 1127.795 68.01454 -1006.648
v 1132.192 73.49291 -1010.341
v 1128.966 70.49101 -1012.064
v 1134.608 75.27554 -1015.396
v 1131.34 72.43565 -1017.373
v 1137.983 76.42887 -1020.197
v 1134.703 73.73093 -1022.394
v 1142.017 76.85967 -1024.644
v 1138.728 74.2927 -1027.015
v 1146.48 76.48714 -1028.665
v 1143.168 74.04768 -1031.156
v 1147.809 72.92424 -1034.736
v 1151.177 75.23372 -1032.187
v 1155.912 73.04285 -1035.126
v 1152.443 70.87046 -1037.664
v 1158.911 72.60121 -1030.993
v 1154.442 74.82413 -1028.315
v 1150.04 76.16183 -1025.184
v 1145.424 68.94685 -1035.304
v 1141.13 69.94108 -1031.979
v 1149.665 67.07937 -1037.981
v 1145.874 76.67007 -1021.662
v 1142.111 76.42639 -1017.797
v 1138.946 75.51264 -1013.637
v 1142.456 72.73204 -1012.94
v 1145.26 73.40895 -1016.289
v 1152.216 72.89984 -1022.222
v 1156.07 71.56847 -1024.772
v 1159.988 69.44569 -1027.003
v 1158.777 65.16386 -1024.943
v 1155.431 67.10751 -1023.129
v 1152.116 68.35058 -1021.078
v 1148.567 73.4899 -1019.388
v 1148.958 68.93499 -1018.8
v 1146.076 68.92075 -1016.295
v 1143.612 68.37164 -1013.552
v 1140.366 71.54488 -1009.365
v 1136.635 74.02299 -1009.247
v 1135.35 72.06972 -1004.766
v 1135.061 69.77749 -1000.36
v 1135.684 67.2731 -996.1615
v 1137.141 64.67247 -992.2838
v 1140.243 63.75574 -995.2167
v 1139.136 65.9459 -998.4712
v 1139.136 69.9463 -1005.666
v 1141.752 67.36003 -1010.567
v 1140.629 65.97105 -1007.412
v 1138.748 68.04328 -1001.992
v 1140.235 64.29948 -1004.23
v 1140.527 62.444 -1001.151
v 1141.467 60.49576 -998.2924
v 1139.374 62.12579 -988.8932
v 1142.339 59.78302 -986.1304
v 1145.903 57.76475 -984.0342
v 1144.485 59.61628 -990.1103
v 1142.03 61.6032 -992.3892
v 1143.04 58.57095 -995.8167
v 1145.258 56.78445 -993.8359
v 1147.523 57.89832 -988.4028
v 1148.062 55.23085 -992.3643
v 1144.576 52.61298 -996.0651
v 1142.277 54.40245 -998.0107
v 1147.478 51.04958 -994.6156
v 1150.853 49.75845 -993.593
v 1151.327 53.95357 -991.3298
v 1154.93 52.94741 -990.6235
v 1158.756 54.5695 -985.7906
v 1162.887 53.97584 -985.3944
v 1162.872 53.20865 -980.2557
v 1167.347 52.76468 -979.8987
v 1158.784 52.18344 -990.1409
v 1158.556 47.95675 -992.408
v 1162.831 51.62906 -989.802
v 1162.734 47.38745 -992.0657
v 1154.576 48.73661 -992.8909
v 1167.136 53.58194 -985.1047
v 1167.04 51.25484 -989.5471
v 1167.078 46.99994 -991.8062
v 1171.562 46.77134 -991.5878
v 1171.385 51.03764 -989.3341
v 1175.858 50.95863 -989.1313
v 1176.176 46.68327 -991.3799
v 1134.727 61.05878 -1018.826
v 1137.182 61.99996 -1022.207
v 1131.217 63.83944 -1019.523
v 1134.033 65.01735 -1023.716
v 1140.074 62.37163 -1025.228
v 1137.381 65.5518 -1027.502
v 1143.206 62.12977 -1027.872
v 1141.03 65.39175 -1030.834
v 1146.413 61.23021 -1030.118
v 1144.785 64.4859 -1033.661
v 1148.454 62.7975 -1035.921
v 1149.531 59.64201 -1031.931
v 1149.665 67.07937 -1037.981
v 1145.424 68.94685 -1035.304
v 1141.13 69.94108 -1031.979
v 1136.99 70.10682 -1028.09
v 1133.217 69.5056 -1023.71
v 1130.061 68.19978 -1018.911
v 1149.678 60.82065 -1026.246
v 1152.53 59.2004 -1027.798
v 1153.046 63.13018 -1023.697
v 1146.766 61.80442 -1024.392
v 1150.078 64.24405 -1021.901
v 1156 61.37269 -1025.26
v 1155.431 67.10751 -1023.129
v 1152.116 68.35058 -1021.078
v 1158.777 65.16386 -1024.943
v 1147.219 64.74898 -1019.875
v 1143.931 62.18197 -1022.246
v 1144.59 64.69547 -1017.611
v 1141.31 61.99751 -1019.808
v 1142.332 64.13581 -1015.09
v 1139.065 61.29596 -1017.067
v 1148.958 68.93499 -1018.8
v 1143.612 68.37164 -1013.552
v 1146.076 68.92075 -1016.295
v 1140.632 63.12956 -1012.296
v 1137.406 60.12773 -1014.018
v 1139.622 61.75259 -1009.293
v 1136.484 58.56675 -1010.74
v 1132.963 59.59773 -1015.112
v 1129.232 62.07568 -1014.994
v 1128.281 59.82079 -1010.275
v 1132.067 57.69734 -1011.174
v 1127.846 66.26055 -1013.793
v 1126.788 63.79609 -1008.529
v 1132.039 55.47124 -1007.185
v 1128.353 57.20549 -1005.553
v 1126.866 60.94926 -1003.315
v 1132.842 53.03491 -1003.301
v 1129.389 54.36211 -1000.991
v 1134.454 50.49193 -999.658
v 1131.352 51.4087 -996.7251
v 1127.999 57.86397 -998.3113
v 1130.129 54.6687 -993.6494
v 1136.304 56.71131 -1007.388
v 1139.306 60.09666 -1006.227
v 1139.653 58.25726 -1003.234
v 1136.838 54.66295 -1004.108
v 1140.643 56.32175 -1000.438
v 1138.073 52.51343 -1001.032
v 1140.235 64.29948 -1004.23
v 1140.629 65.97105 -1007.412
v 1141.752 67.36003 -1010.567
v 1141.467 60.49576 -998.2924
v 1140.527 62.444 -1001.151
v 1142.277 54.40245 -998.0107
v 1140.018 50.38156 -998.3428
v 1144.576 52.61298 -996.0651
v 1142.683 48.39188 -996.1655
v 1136.881 47.97739 -996.4499
v 1134.225 48.50005 -992.9539
v 1137.957 45.80327 -989.8429
v 1140.102 45.63661 -993.8227
v 1133.215 51.53238 -989.5264
v 1137.184 48.63508 -986.1172
v 1137.865 52.80659 -983.8882
v 1143.979 43.59559 -991.8151
v 1142.359 43.46193 -987.4466
v 1142.405 50.31066 -981.2339
v 1141.821 46.12947 -983.4852
v 1147.329 48.27894 -979.2944
v 1146.855 44.08382 -981.5575
v 1152.071 42.48698 -980.1886
v 1152.425 46.69782 -977.9211
v 1148.307 41.91465 -990.3593
v 1147.183 41.54273 -985.695
v 1152.911 40.58962 -989.3327
v 1152.227 40.03785 -984.452
v 1145.976 46.65205 -994.5237
v 1147.478 51.04958 -994.6156
v 1150.853 49.75845 -993.593
v 1149.741 45.21456 -993.3497
v 1154.576 48.73661 -992.8909
v 1153.83 44.07679 -992.5322
v 1157.679 39.58409 -988.6135
v 1157.366 38.90319 -983.5793
v 1162.528 38.08932 -982.9662
v 1162.542 38.8565 -988.1051
v 1157.338 41.28917 -979.2293
v 1157.567 45.5159 -976.9622
v 1162.681 44.67764 -976.295
v 1162.583 40.43609 -978.5588
v 1167.468 38.36893 -987.7341
v 1167.679 37.55167 -982.5282
v 1167.737 44.1337 -975.8268
v 1167.775 39.87873 -978.0858
v 1172.712 43.84494 -975.4902
v 1172.889 39.57866 -977.7438
v 1177.922 39.50458 -977.4835
v 1177.604 43.78001 -975.2347
v 1172.43 38.09135 -987.4484
v 1172.796 37.25493 -982.2047
v 1177.422 37.99923 -987.2086
v 1177.874 37.17053 -981.9495
v 1167.234 42.1474 -991.2584
v 1162.625 42.57645 -991.5603
v 1167.078 46.99994 -991.8062
v 1162.734 47.38745 -992.0657
v 1158.146 43.20906 -991.9639
v 1158.556 47.95675 -992.408
v 1171.562 46.77134 -991.5878
v 1171.947 41.89649 -991.0135
v 1176.176 46.68327 -991.3799
v 1176.756 41.8031 -990.7922
v 1136.99 70.10682 -1028.09
v 1133.217 69.5056 -1023.71
v 1130.061 68.19978 -1018.911
v 1127.846 66.26055 -1013.793
v 1126.788 63.79609 -1008.529
v 1126.866 60.94926 -1003.315
v 1127.999 57.86397 -998.3113
v 1130.129 54.6687 -993.6494
v 1133.215 51.53238 -989.5264
v 1145.258 56.78445 -993.8359
v 1143.04 58.57095 -995.8167
v 1167.198 70.36419 -1043.333
v 1170.638 69.48462 -1038.28
v 1157.764 76.64847 -1035.816
v 1161.204 75.76884 -1030.763
v 1153.375 74.70741 -1039.702
v 1162.809 68.42308 -1047.219
v 1149.212 70.46571 -1041.38
v 1158.646 64.18149 -1048.897
v 1146.392 65.06007 -1040.401
v 1155.826 58.77584 -1047.918
v 1172.207 66.02007 -1033.415
v 1162.773 72.30431 -1025.898
v 1171.484 60.89887 -1030.04
v 1162.05 67.18311 -1022.523
v 1157.764 76.64847 -1035.816
v 1161.204 75.76884 -1030.763
v 1154.221 66.12161 -1031.462
v 1153.375 74.70741 -1039.702
v 1149.212 70.46571 -1041.38
v 1146.392 65.06007 -1040.401
v 1145.669 59.93892 -1037.026
v 1147.238 56.47432 -1032.161
v 1150.678 55.59475 -1027.108
v 1155.067 57.53586 -1023.222
v 1159.23 61.77745 -1021.544
v 1162.05 67.18311 -1022.523
v 1162.773 72.30431 -1025.898
v 1155.067 57.53586 -1023.222
v 1160.112 49.31047 -1034.625
v 1150.678 55.59475 -1027.108
v 1156.672 50.19009 -1039.678
v 1147.238 56.47432 -1032.161
v 1164.501 51.25158 -1030.739
v 1159.23 61.77745 -1021.544
v 1168.664 55.49322 -1029.061
v 1162.05 67.18311 -1022.523
v 1171.484 60.89887 -1030.04
v 1155.103 53.65468 -1044.543
v 1145.669 59.93892 -1037.026
v 1155.826 58.77584 -1047.918
v 1146.392 65.06007 -1040.401
v 1166.138 128.9774 -1095.177
v 1167.333 129.6262 -1094.624
v 1161.904 129.3503 -1092.256
v 1164.249 130.6293 -1091.195
v 1160.229 127.7188 -1093.898
v 1165.298 128.1679 -1096.003
v 1159.462 125.9453 -1095.915
v 1164.914 127.2791 -1097.02
v 1159.664 124.1756 -1098.147
v 1165.022 126.3921 -1098.136
v 1160.822 122.596 -1100.356
v 1165.605 125.5751 -1099.27
v 1162.856 121.4255 -1102.221
v 1166.648 124.9934 -1100.182
v 1165.538 120.7538 -1103.569
v 1168.012 124.6587 -1100.848
v 1168.646 120.617 -1104.308
v 1169.632 124.5924 -1101.218
v 1171.79 121.0215 -1104.387
v 1171.235 124.7818 -1101.282
v 1174.632 121.9015 -1103.841
v 1172.663 125.2103 -1101.027
v 1176.883 123.1563 -1103.188
v 1174.019 126.067 -1100.836
v 1156.845 119.4906 -1100.619
v 1159.788 117.7387 -1103.457
v 1163.667 116.7374 -1105.52
v 1168.093 116.5321 -1106.629
v 1172.661 117.1536 -1106.706
v 1176.864 118.4966 -1105.843
v 1180.102 120.0951 -1104.686
v 1156.971 113.7646 -1104.082
v 1153.267 116.0637 -1100.286
v 1155.155 121.8403 -1097.302
v 1154.935 124.475 -1093.981
v 1156.183 127.1531 -1090.959
v 1158.67 129.5625 -1088.595
v 1162.069 131.4273 -1087.119
v 1152.833 126.1938 -1087.526
v 1156.141 129.3564 -1084.5
v 1162.069 131.4273 -1087.119
v 1159.981 131.7305 -1082.742
v 1151.073 122.6506 -1091.484
v 1151.237 119.1567 -1095.881
v 1153.424 127.4007 -1075.873
v 1159.222 130.4991 -1073.963
v 1159.981 131.7305 -1082.742
v 1148.453 122.9623 -1079.886
v 1145.475 117.9047 -1085.42
v 1145.827 112.8261 -1092.131
v 1149.067 108.6171 -1098.552
v 1152.135 105.254 -1103.505
v 1161.974 112.4737 -1106.844
v 1167.712 112.2688 -1108.271
v 1173.572 113.1013 -1108.331
v 1158.838 103.4569 -1107.574
v 1145.622 100.8503 -1094.292
v 1142.719 106.0229 -1086.504
v 1143.177 112.1525 -1078.54
v 1147.215 118.138 -1072.182
v 1148.384 111.9923 -1065.555
v 1155.362 117.6186 -1060.97
v 1153.478 123.3636 -1067.765
v 1163.373 121.9264 -1058.418
v 1159.956 126.9291 -1065.883
v 1159.956 126.9291 -1065.883
v 1143.687 105.7016 -1072.124
v 1142.84 99.13266 -1080.579
v 1165.988 114.7872 -1053.879
v 1158.288 110.6266 -1056.283
v 1151.452 105.1923 -1060.656
v 1146.633 99.03649 -1067.052
v 1145.173 93.44128 -1089.029
v 1145.622 100.8503 -1094.292
v 1145.57 92.63896 -1075.289
v 1146.633 99.03649 -1067.052
v 1159.956 126.9291 -1065.883
v 1159.222 130.4991 -1073.963
v 1167.331 123.5523 -1068.955
v 1166.636 126.002 -1074.552
v 1169.7 120.1618 -1062.849
v 1159.981 131.7305 -1082.742
v 1166.636 126.002 -1074.552
v 1173.946 112.9644 -1058.687
v 1163.373 121.9264 -1058.418
v 1165.988 114.7872 -1053.879
v 1166.636 126.002 -1074.552
v 1159.981 131.7305 -1082.742
v 1167.465 126.8694 -1079.223
v 1162.069 131.4273 -1087.119
v 1184.544 133.5655 -1068.059
v 1185.373 134.4329 -1072.73
v 1168.937 126.3113 -1083.482
v 1162.069 131.4273 -1087.119
v 1170.957 126.0373 -1086.399
v 1173.483 125.0239 -1088.853
v 1170.905 128.0179 -1097.692
v 1186.845 133.8748 -1076.988
v 1188.866 133.6009 -1079.905
v 1173.483 125.0239 -1088.853
v 1191.391 132.5875 -1082.359
v 1170.905 128.0179 -1097.692
v 1170.905 128.0179 -1097.692
v 1170.905 128.0179 -1097.692
v 1175.04 126.5022 -1099.678
v 1170.905 128.0179 -1097.692
v 1179.488 124.4451 -1101.319
v 1179.083 123.2209 -1092.01
v 1176.35 123.7471 -1090.538
v 1182.177 122.0068 -1092.778
v 1182.912 122.0393 -1101.881
v 1182.789 116.8444 -1105.74
v 1185.992 118.9758 -1102.708
v 1184.638 120.5912 -1093.204
v 1182.177 122.0068 -1092.778
v 1178.92 114.8467 -1107.2
v 1186.754 109.3627 -1105.96
v 1191.181 112.6631 -1101.81
v 1187.276 118.9525 -1093.295
v 1184.638 120.5912 -1093.204
v 1189.808 114.4972 -1093.232
v 1194.926 105.2845 -1099.492
v 1193.254 108.4492 -1092.194
v 1197.135 98.28963 -1094.958
v 1195.045 103.4812 -1088.783
v 1197.512 92.18742 -1088.916
v 1195.359 98.23542 -1083.446
v 1173.483 125.0239 -1088.853
v 1176.35 123.7471 -1090.538
v 1170.905 128.0179 -1097.692
v 1176.35 123.7471 -1090.538
v 1179.083 123.2209 -1092.01
v 1182.177 122.0068 -1092.778
v 1196.991 130.7844 -1085.517
v 1200.086 129.5702 -1086.285
v 1182.177 122.0068 -1092.778
v 1184.638 120.5912 -1093.204
v 1200.086 129.5702 -1086.285
v 1202.546 128.1547 -1086.711
v 1184.638 120.5912 -1093.204
v 1187.276 118.9525 -1093.295
v 1202.546 128.1547 -1086.711
v 1205.185 126.516 -1086.802
v 1194.259 131.3106 -1084.045
v 1179.083 123.2209 -1092.01
v 1196.991 130.7844 -1085.517
v 1176.35 123.7471 -1090.538
v 1191.391 132.5875 -1082.359
v 1176.35 123.7471 -1090.538
v 1194.259 131.3106 -1084.045
v 1173.483 125.0239 -1088.853
v 1185.239 131.1158 -1062.462
v 1166.636 126.002 -1074.552
v 1167.331 123.5523 -1068.955
v 1187.608 127.7254 -1056.355
v 1167.331 123.5523 -1068.955
v 1169.7 120.1618 -1062.849
v 1163.373 121.9264 -1058.418
v 1159.956 126.9291 -1065.883
v 1169.7 120.1618 -1062.849
v 1173.946 112.9644 -1058.687
v 1169.7 120.1618 -1062.849
v 1191.855 120.528 -1052.193
v 1187.608 127.7254 -1056.355
v 1166.709 103.2642 -1109.639
v 1167.712 112.2688 -1108.271
v 1158.838 103.4569 -1107.574
v 1161.974 112.4737 -1106.844
v 1156.815 94.73492 -1105.465
v 1149.051 96.8416 -1100.468
v 1152.135 105.254 -1103.505
v 1166.297 94.65369 -1107.923
v 1174.778 104.4955 -1109.669
v 1173.572 113.1013 -1108.331
v 1176.065 96.21238 -1107.971
v 1182.199 106.9451 -1108.043
v 1178.92 114.8467 -1107.2
v 1182.789 116.8444 -1105.74
v 1186.754 109.3627 -1105.96
v 1184.87 99.06099 -1106.111
v 1190.303 101.1267 -1104.319
v 1148.621 89.19267 -1095.704
v 1145.173 93.44128 -1089.029
v 1145.622 100.8503 -1094.292
v 1166.965 87.0917 -1103.614
v 1156.844 87.03801 -1101.032
v 1177.42 88.93555 -1103.575
v 1186.723 91.95429 -1101.613
v 1192.32 94.07127 -1099.804
v 1147.697 87.13831 -1083.447
v 1145.57 92.63896 -1075.289
v 1142.84 99.13266 -1080.579
v 1142.719 106.0229 -1086.504
v 1150.981 83.10435 -1089.777
v 1158.928 81.12754 -1094.842
v 1168.631 81.23763 -1097.355
v 1178.613 83.06517 -1097.375
v 1187.454 85.98993 -1095.494
v 1192.888 88.04353 -1093.721
v 1197.135 98.28963 -1094.958
v 1194.926 105.2845 -1099.492
v 1191.181 112.6631 -1101.81
v 1197.512 92.18742 -1088.916
v 1146.633 99.03649 -1067.052
v 1143.687 105.7016 -1072.124
v 1149.051 96.8416 -1100.468
v 1187.276 118.9525 -1093.295
v 1189.808 114.4972 -1093.232
v 1205.185 126.516 -1086.802
v 1207.716 122.0607 -1086.738
v 1193.254 108.4492 -1092.194
v 1211.163 116.0127 -1085.701
v 1195.045 103.4812 -1088.783
v 1212.953 111.0447 -1082.289
v 1195.359 98.23542 -1083.446
v 1213.268 105.7989 -1076.952
vt 0.218835 0.132804
vt 0.213073 0.141187
vt 0.199466 0.126887
vt 0.196428 0.130657
vt 0.203829 0.147961
vt 0.191588 0.133708
vt 0.192009 0.15245
vt 0.18542 0.135738
vt 0.178787 0.154204
vt 0.178533 0.136548
vt 0.165477 0.15305
vt 0.171604 0.136056
vt 0.1534 0.149105
vt 0.165318 0.134313
vt 0.143749 0.142771
vt 0.16029 0.131492
vt 0.137462 0.13468
vt 0.157012 0.127872
vt 0.135143 0.125635
vt 0.155802 0.12381
vt 0.136996 0.116522
vt 0.156773 0.119702
vt 0.142822 0.108229
vt 0.159825 0.115951
vt 0.152042 0.101553
vt 0.164659 0.11292
vt 0.163758 0.097135
vt 0.170801 0.110904
vt 0.176836 0.095395
vt 0.177654 0.110097
vt 0.190017 0.096505
vt 0.184552 0.110579
vt 0.20203 0.100361
vt 0.190825 0.112303
vt 0.211707 0.106596
vt 0.19586 0.115104
vt 0.218096 0.114616
vt 0.199162 0.11871
vt 0.22056 0.123646
vt 0.200407 0.12277
vt 0.190825 0.112303
vt 0.19586 0.115104
vt 0.192339 0.079843
vt 0.186016 0.078122
vt 0.184552 0.110579
vt 0.179064 0.077646
vt 0.177654 0.110097
vt 0.172157 0.078461
vt 0.170801 0.110904
vt 0.165967 0.080486
vt 0.164659 0.11292
vt 0.161097 0.083527
vt 0.159825 0.115951
vt 0.158021 0.087289
vt 0.156773 0.119702
vt 0.157044 0.091405
vt 0.155802 0.12381
vt 0.197414 0.082645
vt 0.199162 0.11871
vt 0.200743 0.086254
vt 0.200407 0.12277
vt 0.201999 0.090321
vt 0.199466 0.126887
vt 0.196428 0.130657
vt 0.201052 0.094446
vt 0.197991 0.098226
vt 0.191588 0.133708
vt 0.193113 0.101287
vt 0.18542 0.135738
vt 0.186898 0.103328
vt 0.178533 0.136548
vt 0.179956 0.104145
vt 0.171604 0.136056
vt 0.172973 0.103659
vt 0.165318 0.134313
vt 0.166637 0.101919
vt 0.16029 0.131492
vt 0.161569 0.099097
vt 0.157012 0.127872
vt 0.158264 0.095474
vt 0.155802 0.12381
vt 0.157044 0.091405
vt 0.202098 0.182573
vt 0.206375 0.174246
vt 0.206725 0.236342
vt 0.212372 0.228014
vt 0.197674 0.24306
vt 0.198959 0.184032
vt 0.187932 0.248254
vt 0.192687 0.183166
vt 0.177044 0.252238
vt 0.184933 0.183203
vt 0.166997 0.253863
vt 0.175016 0.178975
vt 0.192009 0.15245
vt 0.203829 0.147961
vt 0.213073 0.141187
vt 0.218835 0.132804
vt 0.178787 0.154204
vt 0.207606 0.16512
vt 0.214069 0.218902
vt 0.145631 0.252685
vt 0.175016 0.178975
vt 0.166997 0.253863
vt 0.172029 0.175351
vt 0.175016 0.178975
vt 0.145631 0.252685
vt 0.133452 0.239973
vt 0.165108 0.164395
vt 0.167422 0.155855
vt 0.176639 0.160202
vt 0.175016 0.178975
vt 0.165477 0.15305
vt 0.1534 0.149105
vt 0.130396 0.22983
vt 0.165108 0.164395
vt 0.157214 0.162422
vt 0.165108 0.164395
vt 0.130498 0.220651
vt 0.157214 0.162422
vt 0.147036 0.161349
vt 0.130498 0.220651
vt 0.156407 0.150487
vt 0.165108 0.164395
vt 0.157214 0.162422
vt 0.132319 0.211584
vt 0.147036 0.161349
vt 0.130498 0.220651
vt 0.144593 0.157468
vt 0.147036 0.161349
vt 0.132319 0.211584
vt 0.136996 0.116522
vt 0.178787 0.154204
vt 0.175016 0.178975
vt 0.176639 0.160202
vt 0.178787 0.154204
vt 0.176639 0.160202
vt 0.165477 0.15305
vt 0.149194 0.144484
vt 0.156407 0.150487
vt 0.157214 0.162422
vt 0.147036 0.161349
vt 0.149194 0.144484
vt 0.157214 0.162422
vt 0.148233 0.137823
vt 0.149194 0.144484
vt 0.147036 0.161349
vt 0.147036 0.161349
vt 0.136996 0.116522
vt 0.148233 0.137823
vt 0.148233 0.137823
vt 0.136996 0.116522
vt 0.135143 0.125635
vt 0.137462 0.13468
vt 0.149194 0.144484
vt 0.143749 0.142771
vt 0.156407 0.150487
vt 0.1534 0.149105
vt 0.167422 0.155855
vt 0.142822 0.108229
vt 0.148923 0.149227
vt 0.144593 0.157468
vt 0.138027 0.203343
vt 0.132319 0.211584
vt 0.147054 0.19672
vt 0.155823 0.142624
vt 0.158522 0.192353
vt 0.164619 0.138291
vt 0.171321 0.190657
vt 0.174461 0.136642
vt 0.184217 0.191797
vt 0.1844 0.137837
vt 0.195966 0.195668
vt 0.193478 0.141764
vt 0.205427 0.201903
vt 0.200812 0.14805
vt 0.21167 0.209906
vt 0.205684 0.156094
vt 0.214069 0.218902
vt 0.207606 0.16512
vt 0.152042 0.101553
vt 0.163758 0.097135
vt 0.176836 0.095395
vt 0.190017 0.096505
vt 0.20203 0.100361
vt 0.211707 0.106596
vt 0.218096 0.114616
vt 0.22056 0.123646
vt 0.206375 0.174246
vt 0.218835 0.132804
vt 0.200407 0.12277
vt 0.201999 0.090321
vt 0.123354 0.287235
vt 0.114736 0.286788
vt 0.122731 0.276894
vt 0.114277 0.276473
vt 0.123516 0.295339
vt 0.114561 0.294857
vt 0.123198 0.298054
vt 0.113893 0.297546
vt 0.10557 0.294178
vt 0.10449 0.29681
vt 0.096558 0.293199
vt 0.095002 0.295739
vt 0.087574 0.291786
vt 0.08548 0.294193
vt 0.078687 0.289755
vt 0.075993 0.291975
vt 0.089473 0.284177
vt 0.081402 0.282475
vt 0.073676 0.280038
vt 0.082864 0.272941
vt 0.075931 0.270973
vt 0.070037 0.286864
vt 0.066688 0.288833
vt 0.061861 0.282815
vt 0.057821 0.284454
vt 0.054529 0.27732
vt 0.049795 0.278545
vt 0.048481 0.270248
vt 0.043103 0.270975
vt 0.044032 0.26174
vt 0.038113 0.261906
vt 0.04128 0.252157
vt 0.034942 0.251727
vt 0.040314 0.241896
vt 0.033663 0.240856
vt 0.041268 0.231227
vt 0.034398 0.229579
vt 0.044294 0.22048
vt 0.037291 0.218247
vt 0.049428 0.210066
vt 0.042375 0.207295
vt 0.056257 0.200361
vt 0.049204 0.197123
vt 0.064171 0.191604
vt 0.057126 0.187989
vt 0.072698 0.183971
vt 0.065634 0.180084
vt 0.074289 0.173601
vt 0.08143 0.177641
vt 0.089961 0.172803
vt 0.082662 0.168741
vt 0.095626 0.18095
vt 0.087623 0.185276
vt 0.079489 0.190822
vt 0.068606 0.174028
vt 0.060597 0.180058
vt 0.076264 0.169587
vt 0.071576 0.19744
vt 0.064235 0.205001
vt 0.057872 0.213379
vt 0.063904 0.215742
vt 0.069501 0.209028
vt 0.082788 0.197764
vt 0.089853 0.193341
vt 0.096809 0.189835
vt 0.09327 0.195404
vt 0.087373 0.198171
vt 0.081335 0.20166
vt 0.075907 0.203015
vt 0.075411 0.205832
vt 0.069855 0.210665
vt 0.064959 0.21615
vt 0.059553 0.22307
vt 0.053012 0.222401
vt 0.050016 0.231753
vt 0.048856 0.241067
vt 0.049398 0.250035
vt 0.051517 0.258401
vt 0.05724 0.253079
vt 0.055693 0.246054
vt 0.056755 0.230778
vt 0.061105 0.222267
vt 0.058571 0.228839
vt 0.055501 0.238537
vt 0.057369 0.235557
vt 0.057437 0.242131
vt 0.058725 0.248305
vt 0.055138 0.265794
vt 0.06021 0.271896
vt 0.066507 0.2766
vt 0.064283 0.264315
vt 0.0601 0.259257
vt 0.061231 0.253726
vt 0.065006 0.258141
vt 0.06965 0.268177
vt 0.069961 0.261495
vt 0.062585 0.25531
vt 0.058661 0.250966
vt 0.067716 0.25862
vt 0.073821 0.261017
vt 0.075868 0.263913
vt 0.082489 0.265608
vt 0.090262 0.27431
vt 0.098006 0.275269
vt 0.097762 0.285362
vt 0.1062 0.286193
vt 0.089652 0.266791
vt 0.088042 0.263896
vt 0.097238 0.267628
vt 0.095861 0.264744
vt 0.080655 0.262708
vt 0.106029 0.275956
vt 0.105182 0.268243
vt 0.104046 0.265371
vt 0.112539 0.265865
vt 0.113429 0.268723
vt 0.121958 0.269138
vt 0.121321 0.266292
vt 0.045933 0.208676
vt 0.050893 0.201835
vt 0.039908 0.206316
vt 0.045629 0.197819
vt 0.056547 0.195895
vt 0.05221 0.190336
vt 0.062501 0.190904
vt 0.059189 0.183984
vt 0.068419 0.186927
vt 0.066169 0.178889
vt 0.072765 0.175187
vt 0.073974 0.184043
vt 0.076264 0.169587
vt 0.068606 0.174028
vt 0.060597 0.180058
vt 0.05266 0.187493
vt 0.045229 0.19616
vt 0.038809 0.205891
vt 0.074577 0.194515
vt 0.079609 0.192141
vt 0.081681 0.198556
vt 0.069252 0.197711
vt 0.076282 0.201596
vt 0.08687 0.196204
vt 0.087373 0.198171
vt 0.081335 0.20166
vt 0.09327 0.195404
vt 0.070922 0.205305
vt 0.063907 0.201694
vt 0.065851 0.209679
vt 0.058822 0.206446
vt 0.061359 0.214732
vt 0.054324 0.211968
vt 0.075411 0.205832
vt 0.064959 0.21615
vt 0.069855 0.210665
vt 0.057821 0.220469
vt 0.050832 0.218246
vt 0.055515 0.226734
vt 0.048653 0.225099
vt 0.042166 0.216338
vt 0.03564 0.215665
vt 0.033237 0.225542
vt 0.039956 0.224578
vt 0.034046 0.216455
vt 0.031383 0.22747
vt 0.03933 0.233018
vt 0.032708 0.235531
vt 0.030807 0.238502
vt 0.04024 0.241317
vt 0.033971 0.245273
vt 0.04267 0.249172
vt 0.036973 0.254463
vt 0.032198 0.249186
vt 0.035465 0.259226
vt 0.047824 0.232189
vt 0.054471 0.233213
vt 0.054652 0.239608
vt 0.048313 0.239198
vt 0.056038 0.245647
vt 0.050115 0.245839
vt 0.057369 0.235557
vt 0.058571 0.228839
vt 0.061105 0.222267
vt 0.058725 0.248305
vt 0.057437 0.242131
vt 0.058661 0.250966
vt 0.053277 0.251724
vt 0.062585 0.25531
vt 0.057845 0.256571
vt 0.046655 0.256171
vt 0.041718 0.262668
vt 0.048145 0.269523
vt 0.052195 0.261987
vt 0.040568 0.268188
vt 0.047405 0.275682
vt 0.049795 0.278545
vt 0.059051 0.266509
vt 0.055928 0.274881
vt 0.057821 0.284454
vt 0.055603 0.281545
vt 0.066688 0.288833
vt 0.064663 0.2859
vt 0.074175 0.289036
vt 0.075993 0.291975
vt 0.066852 0.269852
vt 0.064612 0.27886
vt 0.075263 0.272252
vt 0.073812 0.281727
vt 0.063672 0.260302
vt 0.067716 0.25862
vt 0.073821 0.261017
vt 0.07047 0.263033
vt 0.080655 0.262708
vt 0.07796 0.264979
vt 0.084064 0.273959
vt 0.083282 0.283764
vt 0.092874 0.285199
vt 0.093115 0.27517
vt 0.083882 0.291257
vt 0.08548 0.294193
vt 0.095002 0.295739
vt 0.093633 0.292813
vt 0.102348 0.276038
vt 0.10252 0.286209
vt 0.10449 0.29681
vt 0.103357 0.293896
vt 0.113893 0.297546
vt 0.113004 0.294644
vt 0.122561 0.295164
vt 0.123198 0.298054
vt 0.111706 0.276674
vt 0.112163 0.286922
vt 0.121173 0.277161
vt 0.121792 0.287435
vt 0.102969 0.26806
vt 0.094308 0.26734
vt 0.104046 0.265371
vt 0.095861 0.264744
vt 0.085949 0.266357
vt 0.088042 0.263896
vt 0.112539 0.265865
vt 0.111876 0.268611
vt 0.121321 0.266292
vt 0.121009 0.269065
vt 0.05266 0.187493
vt 0.045229 0.19616
vt 0.038809 0.205891
vt 0.034046 0.216455
vt 0.031383 0.22747
vt 0.030807 0.238502
vt 0.032198 0.249186
vt 0.035465 0.259226
vt 0.040568 0.268188
vt 0.065006 0.258141
vt 0.061231 0.253726
vt 0.110971 0.158006
vt 0.117347 0.168087
vt 0.094557 0.170086
vt 0.100956 0.180188
vt 0.085529 0.163326
vt 0.101954 0.151275
vt 0.076321 0.161732
vt 0.092741 0.149707
vt 0.069415 0.165707
vt 0.085815 0.153699
vt 0.119355 0.178781
vt 0.102994 0.190893
vt 0.116473 0.187201
vt 0.10014 0.199309
vt 0.094557 0.170086
vt 0.100956 0.180188
vt 0.08477 0.1825
vt 0.085529 0.163326
vt 0.076321 0.161732
vt 0.069415 0.165707
vt 0.066643 0.174152
vt 0.068718 0.184794
vt 0.075071 0.194804
vt 0.084017 0.201534
vt 0.093187 0.203192
vt 0.10014 0.199309
vt 0.102994 0.190893
vt 0.084017 0.201534
vt 0.091391 0.182767
vt 0.075071 0.194804
vt 0.08506 0.172779
vt 0.068718 0.184794
vt 0.100326 0.189469
vt 0.093187 0.203192
vt 0.109502 0.191101
vt 0.10014 0.199309
vt 0.116473 0.187201
vt 0.083015 0.162148
vt 0.066643 0.174152
vt 0.085815 0.153699
vt 0.069415 0.165707
vt 0.179814 0.034047
vt 0.182375 0.034846
vt 0.171556 0.039653
vt 0.17658 0.041173
vt 0.167759 0.037145
vt 0.177909 0.032783
vt 0.165717 0.033966
vt 0.176881 0.031179
vt 0.16559 0.030366
vt 0.176827 0.029377
vt 0.167405 0.02673
vt 0.177732 0.027512
vt 0.171065 0.023589
vt 0.179614 0.025978
vt 0.176146 0.021242
vt 0.182203 0.024818
vt 0.182227 0.019849
vt 0.185379 0.024118
vt 0.188542 0.019508
vt 0.1886 0.023905
vt 0.194412 0.020179
vt 0.19155 0.024211
vt 0.199238 0.020891
vt 0.194491 0.024197
vt 0.158654 0.027629
vt 0.16393 0.022843
vt 0.171261 0.019245
vt 0.179901 0.017159
vt 0.189073 0.016721
vt 0.197754 0.017801
vt 0.204624 0.019345
vt 0.157229 0.023429
vt 0.15062 0.029842
vt 0.156014 0.033092
vt 0.156351 0.038447
vt 0.159599 0.043205
vt 0.165227 0.046794
vt 0.172508 0.048877
vt 0.152703 0.050416
vt 0.160165 0.054983
vt 0.172508 0.048877
vt 0.168466 0.057403
vt 0.148203 0.044194
vt 0.147519 0.037105
vt 0.154222 0.072895
vt 0.166597 0.075316
vt 0.168466 0.057403
vt 0.143127 0.06692
vt 0.135823 0.058248
vt 0.135081 0.047315
vt 0.140246 0.036606
vt 0.145296 0.028426
vt 0.166671 0.018599
vt 0.177868 0.015892
vt 0.189623 0.015391
vt 0.157886 0.021284
vt 0.131324 0.048402
vt 0.127088 0.061348
vt 0.129692 0.074281
vt 0.139312 0.084189
vt 0.139864 0.099828
vt 0.155189 0.106464
vt 0.153151 0.090643
vt 0.172233 0.109678
vt 0.166985 0.092829
vt 0.166985 0.092829
vt 0.128893 0.089626
vt 0.125418 0.075917
vt 0.17524 0.121584
vt 0.158898 0.118586
vt 0.143941 0.112277
vt 0.132792 0.102349
vt 0.128392 0.061914
vt 0.131324 0.048402
vt 0.128943 0.088997
vt 0.132792 0.102349
vt 0.166985 0.092829
vt 0.166597 0.075316
vt 0.180524 0.088215
vt 0.179896 0.076113
vt 0.184162 0.101694
vt 0.168466 0.057403
vt 0.179896 0.076113
vt 0.190315 0.112899
vt 0.172233 0.109678
vt 0.17524 0.121584
vt 0.179896 0.076113
vt 0.168466 0.057403
vt 0.181795 0.06651
vt 0.172508 0.048877
vt 0.217667 0.08567
vt 0.219587 0.076039
vt 0.184533 0.058348
vt 0.172508 0.048877
vt 0.188437 0.052711
vt 0.19311 0.048319
vt 0.188942 0.029513
vt 0.222324 0.067847
vt 0.226238 0.06219
vt 0.19311 0.048319
vt 0.230908 0.05778
vt 0.188942 0.029513
vt 0.188942 0.029513
vt 0.188942 0.029513
vt 0.196641 0.026282
vt 0.188942 0.029513
vt 0.204778 0.023985
vt 0.203595 0.0429
vt 0.198371 0.045567
vt 0.209314 0.041932
vt 0.210772 0.023979
vt 0.20889 0.018763
vt 0.215866 0.02375
vt 0.213713 0.041729
vt 0.209314 0.041932
vt 0.200662 0.016811
vt 0.214315 0.021753
vt 0.224049 0.028391
vt 0.218386 0.042286
vt 0.213713 0.041729
vt 0.221939 0.044407
vt 0.229016 0.036262
vt 0.226761 0.049137
vt 0.231081 0.048237
vt 0.228668 0.058005
vt 0.229856 0.06268
vt 0.2276 0.070712
vt 0.19311 0.048319
vt 0.198371 0.045567
vt 0.188942 0.029513
vt 0.198371 0.045567
vt 0.203595 0.0429
vt 0.209314 0.041932
vt 0.241399 0.052335
vt 0.247116 0.051358
vt 0.209314 0.041932
vt 0.213713 0.041729
vt 0.247116 0.051358
vt 0.251507 0.05115
vt 0.213713 0.041729
vt 0.218386 0.042286
vt 0.251507 0.05115
vt 0.256168 0.051701
vt 0.236167 0.055013
vt 0.203595 0.0429
vt 0.241399 0.052335
vt 0.198371 0.045567
vt 0.230908 0.05778
vt 0.198371 0.045567
vt 0.236167 0.055013
vt 0.19311 0.048319
vt 0.218257 0.097802
vt 0.179896 0.076113
vt 0.180524 0.088215
vt 0.221851 0.111312
vt 0.180524 0.088215
vt 0.184162 0.101694
vt 0.172233 0.109678
vt 0.166985 0.092829
vt 0.184162 0.101694
vt 0.190315 0.112899
vt 0.184162 0.101694
vt 0.227905 0.122524
vt 0.221851 0.111312
vt 0.173215 0.017336
vt 0.177868 0.015892
vt 0.157886 0.021284
vt 0.166671 0.018599
vt 0.151422 0.029345
vt 0.136892 0.038136
vt 0.145296 0.028426
vt 0.169862 0.024594
vt 0.18936 0.016714
vt 0.189623 0.015391
vt 0.189356 0.023797
vt 0.204635 0.018777
vt 0.200662 0.016811
vt 0.20889 0.018763
vt 0.214315 0.021753
vt 0.207401 0.026135
vt 0.218653 0.0287
vt 0.133918 0.050794
vt 0.128392 0.061914
vt 0.131324 0.048402
vt 0.168937 0.036365
vt 0.149279 0.041399
vt 0.189788 0.035617
vt 0.208797 0.038086
vt 0.220351 0.040664
vt 0.131553 0.075487
vt 0.128943 0.088997
vt 0.125418 0.075917
vt 0.127088 0.061348
vt 0.1368 0.064946
vt 0.151634 0.055995
vt 0.17045 0.051082
vt 0.190327 0.050243
vt 0.208364 0.052607
vt 0.219552 0.05515
vt 0.231081 0.048237
vt 0.229016 0.036262
vt 0.224049 0.028391
vt 0.229856 0.06268
vt 0.132792 0.102349
vt 0.128893 0.089626
vt 0.136892 0.038136
vt 0.218386 0.042286
vt 0.221939 0.044407
vt 0.256168 0.051701
vt 0.259659 0.053811
vt 0.226761 0.049137
vt 0.264397 0.058532
vt 0.228668 0.058005
vt 0.266229 0.067409
vt 0.2276 0.070712
vt 0.265071 0.080136
vn -0.09156057 0.8111908 -0.5775692
vn -0.09155567 0.8111849 -0.5775781
vn -0.09155713 0.8111876 -0.5775743
vn -0.09155754 0.8111871 -0.5775749
vn -0.09155955 0.8111894 -0.5775715
vn -0.09156662 0.8111874 -0.577573
vn -0.09156886 0.8111854 -0.5775754
vn -0.09157179 0.8111843 -0.5775764
vn -0.09156151 0.8111849 -0.5775774
vn -0.0915589 0.8111851 -0.5775775
vn -0.09155998 0.8111842 -0.5775784
vn -0.09155688 0.8111879 -0.5775738
vn -0.09155616 0.8111903 -0.5775706
vn -0.0915546 0.8111918 -0.5775688
vn -0.0915614 0.811187 -0.5775744
vn -0.09156468 0.8111838 -0.5775784
vn -0.09156505 0.8111849 -0.5775767
vn -0.09156433 0.8111904 -0.5775691
vn -0.09156363 0.8111956 -0.5775619
vn -0.09156121 0.8111953 -0.5775629
vn -0.09155598 0.8111896 -0.5775717
vn -0.09154935 0.8111836 -0.577581
vn -0.09155003 0.8111829 -0.5775819
vn -0.09155466 0.8111851 -0.5775782
vn -0.09155955 0.8111874 -0.5775742
vn -0.09156235 0.811187 -0.5775741
vn -0.09157174 0.8111872 -0.5775725
vn -0.09157802 0.8111889 -0.5775691
vn -0.09156702 0.8111924 -0.5775658
vn -0.0915519 0.8111928 -0.5775678
vn -0.09154639 0.8111904 -0.5775719
vn -0.09155575 0.8111871 -0.5775751
vn -0.09156127 0.8111857 -0.5775762
vn -0.09156077 0.8111874 -0.5775739
vn -0.09156463 0.8111849 -0.5775769
vn -0.09156751 0.8111826 -0.5775797
vn -0.09156885 0.8111851 -0.5775759
vn -0.09156391 0.811188 -0.5775725
vn -0.09155928 0.8111923 -0.5775673
vn -0.0915611 0.8111923 -0.577567
vn 0.5436996 -0.4452045 -0.7114659
vn 0.770253 -0.3099173 -0.5573703
vn 0.624139 -0.4051999 -0.6680297
vn 0.3752092 -0.5091587 -0.7745809
vn 0.2877471 -0.5337134 -0.7952054
vn 0.1098729 -0.568237 -0.8154965
vn 0.0195508 -0.5784315 -0.8154966
vn -0.1615299 -0.5844244 -0.7952082
vn -0.2522748 -0.5799836 -0.7745814
vn -0.4307837 -0.5551963 -0.7114649
vn -0.5181311 -0.5341257 -0.6680194
vn -0.6817954 -0.4738134 -0.5573652
vn -0.756935 -0.4335736 -0.4889411
vn -0.8822008 -0.3351082 -0.3307934
vn -0.9306269 -0.2760877 -0.240227
vn -0.9878671 -0.1470562 -0.04993018
vn -0.9957918 -0.07686239 0.04990851
vn 0.8345544 -0.25392 -0.4889208
vn 0.9347074 -0.1300174 -0.3307834
vn 0.9687514 -0.06170208 -0.2402368
vn 0.9957918 0.07683852 -0.04994574
vn 0.9878657 0.1470616 0.04994055
vn 0.9306176 0.2760998 0.2402494
vn 0.7569411 0.4335659 0.4889385
vn 0.8821954 0.3351105 0.3308054
vn 0.6818058 0.4738023 0.5573617
vn 0.518155 0.5341126 0.6680113
vn 0.4308159 0.5551856 0.7114539
vn 0.2522838 0.5799814 0.7745802
vn 0.1615149 0.5844267 0.7952096
vn -0.01957178 0.5784321 0.8154957
vn -0.1098638 0.5682403 0.8154955
vn -0.287728 0.533718 0.7952092
vn -0.3752214 0.5091526 0.7745789
vn -0.5437329 0.4451865 0.7114517
vn -0.624169 0.4051805 0.6680135
vn -0.7702492 0.3099176 0.5573753
vn -0.8345281 0.2539459 0.4889522
vn -0.9347022 0.1300297 0.3307933
vn -0.9687597 0.06168567 0.2402073
vn -0.9957918 -0.07686239 0.04990851
vn -0.9878671 -0.1470562 -0.04993018
vn 0.7973137 0.3965185 0.4550428
vn 0.9433625 0.2353844 0.2337978
vn 0.8024001 0.4813485 0.3527857
vn 0.9274607 0.3523316 0.1252155
vn 0.6222572 0.5725284 0.5338606
vn 0.4726948 0.5645047 0.6766788
vn 0.3278442 0.6888366 0.6465463
vn 0.0957663 0.6199185 0.7788002
vn 0.08575238 0.7626299 0.6411258
vn -0.1679209 0.593446 0.7871622
vn -0.1562908 0.7939626 0.5875343
vn -0.6409316 0.5389069 0.5466133
vn 0.1277976 0.4354749 0.8910832
vn 0.3826009 0.4811599 0.7887342
vn 0.7406677 0.360799 0.5667764
vn 0.9207294 0.1611125 0.3553872
vn -0.1653468 0.2456045 0.9551644
vn 0.9963321 0.08291449 0.02115671
vn 0.9767724 0.1876286 -0.1034949
vn -0.6963677 0.6614214 0.2785567
vn -0.5313052 0.6307036 0.5656215
vn -0.1562908 0.7939626 0.5875343
vn -0.8741286 0.3340811 0.3525465
vn -0.7470922 0.4540269 0.4855027
vn -0.6963677 0.6614214 0.2785567
vn -0.8733347 0.4826525 0.06582493
vn -0.8235766 0.2892388 0.4879166
vn -0.5589346 -0.06473415 0.8266811
vn -0.6988533 0.04309336 0.7139657
vn -0.8295161 0.3469704 0.4376238
vn -0.3113752 -0.09124809 0.945896
vn -0.4295551 -0.2205668 0.8756899
vn -0.9241532 0.380719 0.03152654
vn -0.8907327 0.3877888 0.2370971
vn -0.7449389 0.3093554 0.5910712
vn -0.8235766 0.2892388 0.4879166
vn -0.968214 0.2464044 0.04297209
vn -0.8472695 0.3666628 0.3843081
vn -0.8241938 0.2779347 0.4934135
vn -0.8971344 0.3968872 0.1939856
vn -0.5620179 -0.126531 0.8173896
vn -0.7592579 0.2686126 0.5927687
vn -0.6308411 0.3203672 0.7066855
vn -0.9809703 -0.05231591 -0.1869766
vn -0.9977242 0.002145043 0.06739152
vn -0.9759971 0.03934171 -0.2142006
vn -0.9788703 -0.1728783 -0.1092069
vn -0.8873847 0.2361126 0.395979
vn -0.9809703 -0.05231591 -0.1869766
vn -0.9556108 -0.2301795 0.1839175
vn -0.9958186 -0.05060267 0.07605715
vn -0.9680603 0.178378 0.1761837
vn -0.8063238 0.03564395 0.5903994
vn -0.1653468 0.2456045 0.9551644
vn -0.558953 0.06488337 0.8266569
vn -0.3113752 -0.09124809 0.945896
vn -0.7655077 -0.1694089 0.6207241
vn -0.5620179 -0.126531 0.8173896
vn -0.7449389 0.3093554 0.5910712
vn -0.7444928 0.3417205 0.5735481
vn -0.6763214 -0.1808614 0.7140578
vn -0.6308411 0.3203672 0.7066855
vn -0.8728696 -0.3988703 0.2810714
vn -0.8020388 -0.2498953 0.5424815
vn -0.9766032 0.1261699 0.1741479
vn -0.7444928 0.3417205 0.5735481
vn -0.7429633 0.3122788 0.5920199
vn -0.3833471 0.591975 0.7089504
vn -0.8728696 -0.3988703 0.2810714
vn -0.9156724 -0.4018463 0.007962557
vn -0.8063439 -0.513386 0.2936739
vn -0.7516956 -0.4137276 0.5135983
vn -0.7655077 -0.1694089 0.6207241
vn -0.5988327 -0.3046682 0.7406597
vn -0.5620179 -0.126531 0.8173896
vn -0.4295551 -0.2205668 0.8756899
vn -0.5589346 -0.06473415 0.8266811
vn -0.7432959 -0.5302017 -0.4079183
vn -0.8092495 -0.4268049 -0.4036743
vn -0.9788703 -0.1728783 -0.1092069
vn -0.8228973 -0.3142813 -0.4733574
vn -0.9809703 -0.05231591 -0.1869766
vn -0.6145682 -0.4704815 -0.6332085
vn -0.5960152 -0.5438966 -0.5907135
vn -0.3327385 -0.579466 -0.7439787
vn -0.2941733 -0.61243 -0.7337517
vn -0.0002730036 -0.6113206 -0.791383
vn 0.06863701 -0.6080148 -0.7909533
vn 0.3376443 -0.5490125 -0.7645793
vn 0.4228145 -0.525498 -0.7382952
vn 0.6267025 -0.404191 -0.6662384
vn 0.7018693 -0.3901247 -0.5959715
vn 0.832599 -0.2110159 -0.5121046
vn 0.8841083 -0.2336379 -0.40468
vn 0.9474605 -0.005146482 -0.3198315
vn 0.978192 -0.0739661 -0.1940862
vn 0.9767724 0.1876286 -0.1034949
vn 0.9963321 0.08291449 0.02115671
vn -0.5114097 -0.5985388 -0.6166129
vn -0.2051782 -0.6223443 -0.7553738
vn 0.137112 -0.6015983 -0.7869434
vn 0.4580748 -0.5423249 -0.7043091
vn 0.7139713 -0.4521553 -0.5346033
vn 0.8873966 -0.3349602 -0.3167475
vn 0.9778442 -0.1919603 -0.08349705
vn 0.9892041 -0.02464147 0.1444581
vn 0.9433625 0.2353844 0.2337978
vn 0.9207294 0.1611125 0.3553872
vn 0.9957918 0.07683852 -0.04994574
vn 0.9878657 0.1470616 0.04994055
vn -0.01122826 0.8836145 0.4680806
vn -0.002377992 0.8591875 0.5116554
vn 0.02257049 0.9866142 -0.1615025
vn 0.04654879 0.9856669 -0.1621539
vn -0.036833 0.5156683 0.8559962
vn -0.04138082 0.3579804 0.9328117
vn -0.05286252 -0.08379557 0.9950799
vn -0.06682073 -0.22958 0.9709933
vn -0.03622498 0.4178509 0.9077932
vn -0.09857698 -0.1870492 0.9773921
vn -0.04069818 0.4157635 0.9085616
vn -0.1402384 -0.1856607 0.972555
vn -0.05554859 0.4133554 0.9088738
vn -0.1828219 -0.1235939 0.9753464
vn -0.06980854 0.4537111 0.8884104
vn -0.258127 -0.1716179 0.9507459
vn 0.09163796 0.8789082 0.4681057
vn 0.1428391 0.9033021 0.4045272
vn 0.1285844 0.8447717 0.5194486
vn 0.2796247 0.9440391 -0.1749291
vn 0.3785404 0.911118 -0.1630067
vn -0.1624211 0.3566035 0.920029
vn -0.3707484 -0.1811037 0.9109045
vn -0.2010288 0.4315111 0.8794234
vn -0.4911186 -0.08986012 0.8664454
vn -0.2869939 0.4631788 0.8385106
vn -0.6186314 -0.01734282 0.7854899
vn -0.3754565 0.5134411 0.7716285
vn -0.7064336 0.1117506 0.6989015
vn -0.4129387 0.6108589 0.6755244
vn -0.8060873 0.1510437 0.5721966
vn -0.5482388 0.6083243 0.5739129
vn -0.8818201 0.225011 0.4144434
vn -0.5149288 0.7154574 0.4721961
vn -0.8929816 0.3647726 0.2636752
vn -0.5097181 0.7881205 0.3450413
vn -0.8814369 0.4627985 0.09426816
vn -0.4739542 0.8562338 0.2055023
vn -0.8082491 0.5863191 -0.05443682
vn -0.3630755 0.9284377 0.07861073
vn -0.7608859 0.6052915 -0.2338265
vn -0.3603197 0.9275002 -0.09956361
vn -0.6692776 0.619212 -0.4106628
vn -0.2115276 0.9627815 -0.1682491
vn -0.5043622 0.707989 -0.4943382
vn -0.05945018 0.9580499 -0.2803679
vn -0.4762114 0.5806568 -0.6603487
vn -0.2336157 0.6904544 -0.6846141
vn 0.1420393 0.9325027 -0.3320596
vn 0.08930955 0.8671338 -0.4900029
vn -0.2810021 0.5181081 -0.8078377
vn 0.4453359 0.8951201 0.02088052
vn 0.4551082 0.8704051 0.1878066
vn 0.3827593 0.8871871 0.257671
vn -0.5384952 0.1406871 -0.8308009
vn -0.6457234 0.07144807 -0.7602213
vn -0.5389252 -0.02283307 -0.8420441
vn 0.2786229 0.9233481 0.2641925
vn 0.17375 0.9381101 0.2996005
vn 0.2499228 0.8778633 0.4085273
vn 0.6553229 0.451754 0.6053678
vn 0.6083993 0.4612508 0.6458312
vn 0.5850496 0.4904904 0.6458608
vn 0.6002346 0.4376482 0.6694643
vn 0.6133695 0.5698953 0.5468065
vn 0.4997313 0.04546553 0.8649865
vn 0.4623756 -0.1071321 0.8801883
vn 0.5553209 -0.05000929 0.8301312
vn 0.5848203 0.4785776 0.6549418
vn 0.6084158 -0.1820159 0.7724639
vn 0.7157897 -0.1032313 0.6906435
vn 0.8194807 -0.18701 0.5417367
vn 0.7132936 0.4631854 0.5259959
vn 0.1757581 0.8951966 0.4095511
vn 0.1691389 0.8811009 0.4416485
vn 0.1694667 0.8673815 0.4678998
vn 0.1181504 0.8521472 0.5097898
vn 0.2595059 0.8473231 0.4633577
vn 0.7560896 0.6427023 0.1235409
vn 0.7795748 0.5863726 0.2200689
vn 0.7587961 0.49525 0.4230318
vn 0.9160712 -0.04883296 0.3980314
vn 0.9764009 -0.03589175 0.2129626
vn 0.7803296 0.5377082 0.3193047
vn 0.9996529 0.02527696 0.00744144
vn 0.9758402 0.1935456 -0.1013708
vn 0.9268987 0.2212992 -0.3031262
vn 0.1862827 0.8473614 0.4972701
vn 0.1828243 0.851388 0.4916438
vn 0.169672 0.8588951 0.4832294
vn 0.6105658 0.7894066 -0.06361164
vn 0.7022153 0.7114701 0.02652906
vn 0.8242732 0.4074627 -0.3931258
vn 0.6922369 0.4736418 -0.544492
vn 0.4941702 0.8597883 -0.1286852
vn 0.5129145 0.5461761 -0.6622766
vn 0.5680075 0.04971034 -0.8215207
vn 0.7431219 -0.03543526 -0.6682171
vn 0.4083581 0.0666426 -0.9103859
vn 0.3048624 0.1992316 -0.9313247
vn 0.3762953 0.6744664 -0.6352141
vn 0.2611893 0.6398427 -0.7227597
vn 0.2003327 0.9639652 -0.1750369
vn 0.1375715 0.9756925 -0.1705819
vn 0.06150653 0.8817149 0.4677562
vn 0.03160601 0.8829706 0.4683631
vn 0.1857897 0.7310098 -0.6565873
vn 0.1407502 0.2295977 -0.9630547
vn 0.1296608 0.7005395 -0.7017354
vn 0.0899412 0.1896816 -0.9777175
vn 0.188411 0.1253708 -0.9740552
vn 0.0873976 0.982314 -0.1655924
vn 0.08438559 0.6747652 -0.7331923
vn 0.06441474 0.1272984 -0.9897707
vn 0.05395002 0.2293075 -0.9718578
vn 0.05304454 0.7507014 -0.6585087
vn 0.04637338 0.6322309 -0.7733909
vn 0.04675211 0.08325653 -0.9954308
vn -0.1699977 -0.8985779 -0.4045475
vn -0.1656689 -0.9348655 -0.313975
vn -0.6625084 -0.5053226 -0.5529301
vn -0.6427539 -0.4651101 -0.60872
vn -0.268678 -0.9227416 -0.2763332
vn -0.6121973 -0.4759587 -0.6314093
vn -0.3659888 -0.8892019 -0.2745398
vn -0.6008508 -0.4860307 -0.6346278
vn -0.4528445 -0.8711717 -0.1897152
vn -0.604668 -0.434722 -0.667378
vn -0.609112 -0.5705072 -0.550912
vn -0.470901 -0.8821856 -0.0009424739
vn -0.5389252 -0.02283307 -0.8420441
vn -0.5384952 0.1406871 -0.8308009
vn -0.6457234 0.07144807 -0.7602213
vn -0.7148986 0.1922467 -0.6722806
vn -0.809221 0.08874124 -0.5807636
vn -0.8854921 0.1237429 -0.4478742
vn -0.1967324 -0.9049932 0.3772051
vn -0.1720503 -0.8148078 0.5536125
vn 0.136678 -0.637188 0.7584922
vn 0.008796162 -0.9433708 0.3316233
vn 0.3560369 -0.5388793 0.7634441
vn 0.1903472 -0.4604303 0.8670477
vn 0.4623756 -0.1071321 0.8801883
vn 0.5553209 -0.05000929 0.8301312
vn 0.4997313 0.04546553 0.8649865
vn 0.4034987 -0.689202 0.6018216
vn 0.1788125 -0.9607865 0.2119325
vn 0.5817007 -0.6210987 0.5252244
vn 0.3347915 -0.9314141 0.1427669
vn 0.6722279 -0.6683696 0.3184206
vn 0.3611038 -0.929547 -0.07447333
vn 0.6084158 -0.1820159 0.7724639
vn 0.8194807 -0.18701 0.5417367
vn 0.7157897 -0.1032313 0.6906435
vn 0.822061 -0.5402004 0.1799978
vn 0.521125 -0.8379524 -0.1620633
vn 0.8787406 -0.4745632 -0.0510375
vn 0.4666531 -0.8107367 -0.3534698
vn -0.1636707 -0.8854855 -0.4348876
vn -0.7822018 -0.427002 -0.4536843
vn -0.7392938 -0.5590048 -0.3754441
vn -0.1626168 -0.8674751 -0.470152
vn -0.9624829 0.09658712 -0.25357
vn -0.9964773 -0.03225098 -0.0774132
vn -0.1659066 -0.8597114 -0.4830852
vn -0.8104141 -0.5430695 -0.2197827
vn -0.9929595 -0.0675522 0.09730502
vn -0.1185567 -0.8453254 -0.5209311
vn -0.7208402 -0.6669039 -0.1887557
vn -0.2603824 -0.8412401 -0.4738314
vn -0.7307934 -0.6790703 -0.0693149
vn -0.9526356 -0.2654408 0.1484135
vn -0.9018585 -0.2815889 0.3276566
vn 0.5152066 -0.7163926 -0.4704717
vn 0.8726228 -0.42642 -0.2381081
vn 0.8978735 -0.2563271 -0.3579379
vn 0.5498791 -0.6105488 -0.5699677
vn 0.8045731 -0.2223803 -0.5506443
vn 0.4044752 -0.6042023 -0.6865416
vn 0.9996529 0.02527696 0.00744144
vn 0.9764009 -0.03589175 0.2129626
vn 0.9160712 -0.04883296 0.3980314
vn 0.9268987 0.2212992 -0.3031262
vn 0.9758402 0.1935456 -0.1013708
vn 0.7431219 -0.03543526 -0.6682171
vn 0.4039288 -0.4532339 -0.7946198
vn 0.5680075 0.04971034 -0.8215207
vn 0.2256306 -0.4858125 -0.8444389
vn -0.1957122 -0.8392927 -0.5072322
vn -0.7019137 -0.7093065 0.06481856
vn -0.5614865 -0.8263292 0.04373627
vn -0.1959262 -0.8445386 -0.498365
vn -0.8010524 -0.3590233 0.4789753
vn -0.6628801 -0.494332 0.5623397
vn -0.6186314 -0.01734282 0.7854899
vn -0.1874328 -0.8517441 -0.489286
vn -0.475926 -0.8603649 0.1823914
vn -0.4911186 -0.08986012 0.8664454
vn -0.5391954 -0.5230526 0.660064
vn -0.3707484 -0.1811037 0.9109045
vn -0.4275057 -0.6807698 0.5948036
vn -0.3248214 -0.6554823 0.6817874
vn -0.258127 -0.1716179 0.9507459
vn -0.1479847 -0.8399352 -0.5221201
vn -0.344399 -0.9334953 0.09987983
vn -0.1573687 -0.9013098 -0.4035784
vn -0.2841354 -0.9434233 0.1709371
vn 0.1543486 -0.4173256 -0.8955534
vn 0.4083581 0.0666426 -0.9103859
vn 0.3048624 0.1992316 -0.9313247
vn 0.1111536 -0.3453753 -0.9318587
vn 0.188411 0.1253708 -0.9740552
vn 0.03727935 -0.4488181 -0.8928452
vn -0.101979 -0.8784278 -0.466867
vn -0.2232376 -0.9458409 0.2356906
vn -0.1455147 -0.981746 0.1224762
vn -0.0676329 -0.8819051 -0.4665502
vn -0.2324414 -0.6511877 0.7224442
vn -0.1828219 -0.1235939 0.9753464
vn -0.1402384 -0.1856607 0.972555
vn -0.1590984 -0.6974701 0.6987296
vn -0.04354223 -0.8830789 -0.4671997
vn -0.09233061 -0.9733371 0.2099763
vn -0.09857698 -0.1870492 0.9773921
vn -0.1089314 -0.659892 0.7434222
vn -0.06682073 -0.22958 0.9709933
vn -0.0654154 -0.776293 0.6269688
vn -0.04922235 -0.6322685 0.7731842
vn -0.05286252 -0.08379557 0.9950799
vn -0.008492629 -0.8594522 -0.5111455
vn -0.03892864 -0.9945878 0.09633142
vn 0.00109262 -0.9311361 -0.3646702
vn -0.02916295 -0.9627417 0.2688455
vn 0.02332298 -0.4184078 -0.9079598
vn 0.01457376 -0.4575181 -0.8890809
vn 0.06441474 0.1272984 -0.9897707
vn 0.0899412 0.1896816 -0.9777175
vn 0.03872705 -0.3492872 -0.9362151
vn 0.1407502 0.2295977 -0.9630547
vn 0.05395002 0.2293075 -0.9718578
vn 0.03225566 -0.358792 -0.93286
vn 0.04675211 0.08325653 -0.9954308
vn 0.03011289 -0.5163705 -0.8558357
vn -0.7148986 0.1922467 -0.6722806
vn -0.809221 0.08874124 -0.5807636
vn -0.8854921 0.1237429 -0.4478742
vn -0.9624829 0.09658712 -0.25357
vn -0.9964773 -0.03225098 -0.0774132
vn -0.9929595 -0.0675522 0.09730502
vn -0.9526356 -0.2654408 0.1484135
vn -0.9018585 -0.2815889 0.3276566
vn -0.8010524 -0.3590233 0.4789753
vn 0.6922369 0.4736418 -0.544492
vn 0.8242732 0.4074627 -0.3931258
vn 0.2374437 0.8709748 -0.4301436
vn 0.5456787 0.8378492 -0.01560093
vn 0.3542106 0.8868066 -0.2968314
vn 0.6203795 0.7730605 0.132313
vn -0.006866953 0.7629359 -0.6464377
vn -0.1344138 0.6707236 -0.7294263
vn -0.3661084 0.434628 -0.8228385
vn -0.4702554 0.2907486 -0.8332618
vn -0.6272496 -0.01012831 -0.7787524
vn -0.6800964 -0.1671297 -0.7138183
vn 0.7077001 0.580227 0.4031094
vn 0.7203203 0.4521818 0.5259945
vn 0.6800948 0.1671291 0.7138199
vn 0.6272452 0.01012018 0.7787561
vn -0.6936023 0.4620288 0.552671
vn -0.6936051 0.4620309 0.5526658
vn -0.6936081 0.4620298 0.5526628
vn -0.6936123 0.4620214 0.5526646
vn -0.6936139 0.462026 0.5526588
vn -0.6936062 0.4620348 0.552661
vn -0.6936067 0.4620266 0.5526673
vn -0.6936126 0.4620269 0.5526597
vn -0.6936103 0.4620335 0.552657
vn -0.6936072 0.4620308 0.5526633
vn -0.6936082 0.462033 0.5526601
vn -0.6936054 0.4620341 0.5526628
vn -0.6936073 0.4620309 0.5526629
vn 0.006876432 -0.7629317 0.6464426
vn -0.2374435 -0.870975 0.4301431
vn -0.354215 -0.886806 0.2968282
vn -0.5456851 -0.8378451 0.01559652
vn -0.620384 -0.7730558 -0.1323195
vn 0.1344229 -0.6707206 0.7294273
vn 0.3661107 -0.4346335 0.8228346
vn 0.4702506 -0.2907607 0.8332602
vn 0.6272452 0.01012018 0.7787561
vn 0.6800948 0.1671291 0.7138199
vn -0.7076997 -0.5802232 -0.4031157
vn -0.7203188 -0.4521809 -0.5259974
vn -0.6800964 -0.1671297 -0.7138183
vn -0.6272496 -0.01012831 -0.7787524
vn -0.2263367 0.8115231 -0.5387039
vn 0.1568885 0.966516 -0.203059
vn -0.3209953 0.8413079 -0.4349289
vn 0.10506 0.9869996 -0.1216321
vn -0.3647856 0.789054 -0.4942927
vn -0.2431198 0.7840619 -0.5710864
vn -0.3816143 0.7328877 -0.563246
vn -0.2476787 0.7568346 -0.6048609
vn -0.3723561 0.6804028 -0.6311917
vn -0.2415696 0.7332819 -0.6355643
vn -0.3375195 0.6341956 -0.6956124
vn -0.2213858 0.7094375 -0.669094
vn -0.2759359 0.5969123 -0.7533625
vn -0.1902182 0.6890393 -0.6993152
vn -0.2021837 0.5753964 -0.7924903
vn -0.1539069 0.6766515 -0.7200385
vn -0.1253408 0.5666518 -0.8143681
vn -0.1181477 0.6710249 -0.7319609
vn -0.05343884 0.5699262 -0.8199563
vn -0.08355372 0.672498 -0.7353674
vn -0.02453786 0.5613678 -0.8272026
vn -0.1533239 0.6269549 -0.7638189
vn 0.0616973 0.6309755 -0.7733455
vn -0.01841401 0.7381521 -0.674383
vn -0.464292 0.5335593 -0.7069281
vn -0.3721991 0.4799503 -0.7944278
vn -0.2560353 0.4469745 -0.8571229
vn -0.1316368 0.4344715 -0.8910142
vn -0.01430937 0.4420139 -0.896894
vn 0.06453917 0.4587346 -0.8862264
vn 0.1848359 0.5323968 -0.8260685
vn -0.5214746 0.3389768 -0.7830447
vn -0.6422502 0.3844827 -0.6630895
vn -0.5199277 0.6040273 -0.6040084
vn -0.5316145 0.6877846 -0.4943058
vn -0.4963045 0.7752565 -0.3907164
vn -0.4192299 0.8528873 -0.3111744
vn 0.08500592 0.9930188 -0.08177705
vn -0.6284836 0.7501607 -0.2055904
vn -0.5143026 0.8500926 -0.1132939
vn -0.1852142 0.9665679 -0.1773194
vn -0.01148109 0.997914 0.06352745
vn -0.6961024 0.630007 -0.3442855
vn -0.703526 0.4979623 -0.5070352
vn -0.6184305 0.7663649 0.173864
vn -0.5271863 0.8328991 0.1683862
vn -0.4909955 0.8657699 -0.0967774
vn -0.7811374 0.6227348 0.04500746
vn -0.8789781 0.4494877 -0.1592431
vn -0.8766303 0.2648982 -0.4016818
vn -0.7940845 0.1808033 -0.580293
vn -0.6513304 0.1429597 -0.7452055
vn -0.3458546 0.2921164 -0.8916572
vn -0.1673101 0.2660855 -0.9493187
vn 0.005794527 0.2662442 -0.9638882
vn -0.3896669 0.03607539 -0.920249
vn -0.9177877 -0.02909471 -0.3960042
vn -0.978763 0.05041644 -0.1986984
vn -0.9640675 0.2481352 0.09488301
vn -0.83091 0.4447946 0.3342848
vn -0.7913631 0.2447233 0.5602278
vn -0.5966371 0.4021974 0.6944504
vn -0.6410101 0.6057298 0.4713784
vn -0.4958608 0.5136872 0.7001768
vn -0.5271959 0.7089151 0.4685126
vn -0.3084615 0.8189743 0.4838724
vn -0.9452912 0.0334342 0.3245098
vn -0.983609 -0.1779214 0.02928011
vn -0.450672 0.3574063 0.8180193
vn -0.5873972 0.2705978 0.7627197
vn -0.7747386 0.109382 0.6227485
vn -0.9220435 -0.1144304 0.3697856
vn -0.939554 -0.2893138 -0.183128
vn -0.9177877 -0.02909471 -0.3960042
vn -0.9444467 -0.3154136 0.09238286
vn -0.9220435 -0.1144304 0.3697856
vn 0.485428 0.818992 0.3059604
vn 0.5125342 0.8198392 0.2552887
vn 0.2842473 0.8919178 0.3516904
vn 0.02167065 0.9523941 0.3040984
vn 0.5086975 0.7700261 0.3850802
vn 0.4832203 0.8544977 0.1906095
vn 0.291087 0.9322796 0.2147628
vn 0.5340875 0.6126024 0.5826396
vn 0.5170319 0.6899149 0.5066512
vn 0.5130208 0.5864221 0.6268324
vn 0.02167065 0.9523941 0.3040984
vn 0.2862704 0.954234 0.08652541
vn 0.06627424 0.994077 0.08613154
vn 0.08500592 0.9930188 -0.08177705
vn -0.4416671 0.8748053 0.1991126
vn -0.348353 0.9294111 -0.1218415
vn 0.1219242 0.9909636 -0.05590786
vn 0.3490641 0.9370359 0.01085432
vn 0.125254 0.9870092 -0.1006202
vn 0.2572059 0.9573399 -0.1317021
vn 0.2262001 0.9505786 -0.2126826
vn -0.2922283 0.9190308 -0.2645467
vn -0.2075626 0.8720211 -0.4432796
vn 0.2045328 0.9491568 -0.2393066
vn -0.1008769 0.7747371 -0.6241844
vn -0.01613412 0.8571365 -0.5148365
vn -0.04935597 0.8302387 -0.5552186
vn -0.1363231 0.7631804 -0.631642
vn 0.3132203 0.9288362 -0.1978797
vn -0.01613412 0.8571365 -0.5148365
vn 0.3881321 0.8563696 -0.3405652
vn 0.1934686 0.9716334 -0.1360085
vn 0.1773844 0.9516171 -0.250918
vn 0.4938204 0.8661399 0.07709058
vn 0.5184641 0.7561026 -0.3993793
vn 0.304013 0.3825693 -0.8724775
vn 0.6291986 0.6202387 -0.4684156
vn 0.5811991 0.813611 -0.01564813
vn 0.3589685 0.8777049 -0.3174521
vn 0.1385642 0.2890802 -0.9472237
vn 0.4726358 0.139511 -0.8701448
vn 0.8099151 0.3947356 -0.4338449
vn 0.740194 0.6706882 -0.04785553
vn 0.4588083 0.7837136 -0.418674
vn 0.875059 0.4835783 0.02058455
vn 0.9155933 0.2013941 -0.3480365
vn 0.9177622 0.3963588 0.02474247
vn 0.9710292 -0.006591002 -0.2388698
vn 0.9601775 0.2578853 0.1074909
vn 0.9985857 0.0110003 -0.05201593
vn 0.9664484 0.2093776 0.1487899
vn 0.2045328 0.9491568 -0.2393066
vn 0.1773844 0.9516171 -0.250918
vn 0.3017582 0.9461559 -0.1171788
vn 0.2905692 0.9568009 0.01008844
vn -0.08443248 0.7565914 -0.6484139
vn 0.1946238 0.7075583 -0.6793253
vn -0.02354344 0.6827239 -0.730297
vn 0.09176731 0.5146183 -0.8524944
vn 0.06432528 0.557998 -0.8273455
vn 0.2632216 0.5937356 -0.7603897
vn 0.09176731 0.5146183 -0.8524944
vn 0.1635666 0.3905062 -0.9059529
vn 0.1413321 0.4306496 -0.8913844
vn 0.2187949 0.2835312 -0.9336695
vn 0.1635666 0.3905062 -0.9059529
vn 0.2511464 0.2155039 -0.9436544
vn -0.1181371 0.7929172 -0.5977675
vn 0.1728112 0.9473267 -0.2696453
vn -0.02354344 0.6827239 -0.730297
vn 0.1773844 0.9516171 -0.250918
vn -0.1008769 0.7747371 -0.6241844
vn 0.1147655 0.9313309 -0.3456179
vn -0.1181371 0.7929172 -0.5977675
vn 0.0208439 0.9035289 -0.4280199
vn -0.4815145 0.7481456 0.4565324
vn -0.09276947 0.9413461 0.3244402
vn 0.01078819 0.8856573 0.464214
vn -0.4799024 0.5482277 0.684938
vn -0.4849635 0.7105603 0.5098181
vn -0.2536382 0.5839031 0.7711841
vn 0.5170319 0.6899149 0.5066512
vn 0.09166182 0.9169961 0.3882217
vn 0.2872767 0.8298456 0.4783601
vn -0.4226488 0.2537331 0.8700503
vn -0.4579965 0.4050139 0.7913298
vn -0.4226484 0.2537366 0.8700495
vn -0.4799024 0.5482277 0.684938
vn -0.1330593 -0.01189637 -0.9910367
vn -0.1673101 0.2660855 -0.9493187
vn -0.3896669 0.03607539 -0.920249
vn -0.3458546 0.2921164 -0.8916572
vn -0.4154847 -0.2976063 -0.8595365
vn -0.7553081 -0.1500338 -0.6379651
vn -0.6513304 0.1429597 -0.7452055
vn -0.09492189 -0.3487933 -0.9323803
vn 0.1009886 -0.009705491 -0.9948402
vn 0.005794527 0.2662442 -0.9638882
vn 0.1740658 -0.3296345 -0.9279236
vn 0.2853846 0.03358214 -0.9578245
vn 0.1385642 0.2890802 -0.9472237
vn 0.304013 0.3825693 -0.8724775
vn 0.4726358 0.139511 -0.8701448
vn 0.3546015 -0.2648705 -0.896717
vn 0.5646357 -0.1374035 -0.8138223
vn -0.7582161 -0.4662344 -0.4557782
vn -0.939554 -0.2893138 -0.183128
vn -0.9177877 -0.02909471 -0.3960042
vn -0.04117143 -0.6266023 -0.7782509
vn -0.3744605 -0.6086431 -0.6995234
vn 0.2270503 -0.5846174 -0.7788907
vn 0.389145 -0.5318715 -0.7521164
vn 0.6326725 -0.4064335 -0.6591945
vn -0.8918269 -0.4421949 -0.09543779
vn -0.9444467 -0.3154136 0.09238286
vn -0.983609 -0.1779214 0.02928011
vn -0.978763 0.05041644 -0.1986984
vn -0.6478816 -0.6479202 -0.4005606
vn -0.2776181 -0.7402794 -0.6123027
vn 0.03205446 -0.7259144 -0.6870378
vn 0.2810177 -0.6707318 -0.6864021
vn 0.4156323 -0.6262844 -0.6595587
vn 0.7018692 -0.4753333 -0.5305073
vn 0.9710292 -0.006591002 -0.2388698
vn 0.9155933 0.2013941 -0.3480365
vn 0.8099151 0.3947356 -0.4338449
vn 0.9985857 0.0110003 -0.05201593
vn -0.9220435 -0.1144304 0.3697856
vn -0.9452912 0.0334342 0.3245098
vn -0.7553081 -0.1500338 -0.6379651
vn 0.2187949 0.2835312 -0.9336695
vn 0.2987427 0.1068319 -0.9483353
vn 0.2511464 0.2155039 -0.9436544
vn 0.3150819 0.06675948 -0.9467135
vn 0.3808374 -0.1139263 -0.9175968
vn 0.4230204 -0.2551286 -0.8694614
vn 0.4687836 -0.4653808 -0.7507747
vn 0.4790204 -0.5401019 -0.6919749
vn 0.4848437 -0.609277 -0.6274617
vn 0.4848437 -0.609277 -0.6274617
g GVG_TeleporterSidePipe_mesh_0
f 3/3/3 2/2/2 1/1/1
f 4/4/4 2/2/2 3/3/3
f 4/4/4 5/5/5 2/2/2
f 6/6/6 5/5/5 4/4/4
f 6/6/6 7/7/7 5/5/5
f 8/8/8 7/7/7 6/6/6
f 8/8/8 9/9/9 7/7/7
f 10/10/10 9/9/9 8/8/8
f 10/10/10 11/11/11 9/9/9
f 12/12/12 11/11/11 10/10/10
f 12/12/12 13/13/13 11/11/11
f 14/14/14 13/13/13 12/12/12
f 14/14/14 15/15/15 13/13/13
f 16/16/16 15/15/15 14/14/14
f 16/16/16 17/17/17 15/15/15
f 18/18/18 17/17/17 16/16/16
f 18/18/18 19/19/19 17/17/17
f 20/20/20 19/19/19 18/18/18
f 20/20/20 21/21/21 19/19/19
f 22/22/22 21/21/21 20/20/20
f 22/22/22 23/23/23 21/21/21
f 24/24/24 23/23/23 22/22/22
f 24/24/24 25/25/25 23/23/23
f 26/26/26 25/25/25 24/24/24
f 26/26/26 27/27/27 25/25/25
f 28/28/28 27/27/27 26/26/26
f 28/28/28 29/29/29 27/27/27
f 30/30/30 29/29/29 28/28/28
f 30/30/30 31/31/31 29/29/29
f 32/32/32 31/31/31 30/30/30
f 32/32/32 33/33/33 31/31/31
f 34/34/34 33/33/33 32/32/32
f 34/34/34 35/35/35 33/33/33
f 36/36/36 35/35/35 34/34/34
f 36/36/36 37/37/37 35/35/35
f 38/38/38 37/37/37 36/36/36
f 38/38/38 39/39/39 37/37/37
f 40/40/40 39/39/39 38/38/38
f 40/40/40 1/1/1 39/39/39
f 3/3/3 1/1/1 40/40/40
f 43/43/43 42/42/42 41/41/41
f 43/43/43 41/41/41 44/44/44
f 44/44/44 41/41/41 45/45/45
f 44/44/44 45/45/45 46/46/46
f 46/46/46 45/45/45 47/47/47
f 46/46/46 47/47/47 48/48/48
f 48/48/48 47/47/47 49/49/49
f 48/48/48 49/49/49 50/50/50
f 50/50/50 49/49/49 51/51/51
f 50/50/50 51/51/51 52/52/52
f 52/52/52 51/51/51 53/53/53
f 52/52/52 53/53/53 54/54/54
f 54/54/54 53/53/53 55/55/55
f 54/54/54 55/55/55 56/56/56
f 56/56/56 55/55/55 57/57/57
f 58/58/58 42/42/42 43/43/43
f 58/58/58 59/59/59 42/42/42
f 60/60/60 59/59/59 58/58/58
f 60/60/60 61/61/61 59/59/59
f 62/62/62 61/61/61 60/60/60
f 65/65/65 64/64/64 63/63/63
f 66/66/66 64/64/64 65/65/65
f 66/66/66 67/67/67 64/64/64
f 68/68/68 67/67/67 66/66/66
f 68/68/68 69/69/69 67/67/67
f 70/70/70 69/69/69 68/68/68
f 70/70/70 71/71/71 69/69/69
f 72/72/72 71/71/71 70/70/70
f 72/72/72 73/73/73 71/71/71
f 74/74/74 73/73/73 72/72/72
f 74/74/74 75/75/75 73/73/73
f 76/76/76 75/75/75 74/74/74
f 76/76/76 77/77/77 75/75/75
f 78/78/78 77/77/77 76/76/76
f 78/78/78 79/79/79 77/77/77
f 80/80/80 79/79/79 78/78/78
f 80/80/80 81/81/81 79/79/79
f 82/82/82 81/81/81 80/80/80
f 85/85/85 84/84/84 83/83/83
f 86/86/86 84/84/84 85/85/85
f 85/85/85 83/83/83 87/87/87
f 87/87/87 83/83/83 88/88/88
f 87/87/87 88/88/88 89/89/89
f 89/89/89 88/88/88 90/90/90
f 89/89/89 90/90/90 91/91/91
f 91/91/91 90/90/90 92/92/92
f 91/91/91 92/92/92 93/93/93
f 93/93/93 92/92/92 94/94/94
f 90/90/90 95/95/95 92/92/92
f 90/90/90 96/96/96 95/95/95
f 88/88/88 96/96/96 90/90/90
f 88/88/88 97/97/97 96/96/96
f 83/83/83 97/97/97 88/88/88
f 83/83/83 98/98/98 97/97/97
f 84/84/84 98/98/98 83/83/83
f 92/92/92 99/99/99 94/94/94
f 92/92/92 95/95/95 99/99/99
f 86/86/86 100/100/100 84/84/84
f 101/101/101 100/100/100 86/86/86
f 104/104/104 103/103/103 102/102/102
f 107/107/107 106/106/106 105/105/105
f 107/107/107 105/105/105 108/108/108
f 108/108/108 105/105/105 109/109/109
f 105/105/105 110/110/110 109/109/109
f 105/105/105 111/111/111 110/110/110
f 112/112/112 111/111/111 105/105/105
f 111/111/111 113/113/113 110/110/110
f 110/110/110 113/113/113 114/114/114
f 108/108/108 116/116/116 115/115/115
f 115/115/115 118/118/118 117/117/117
f 115/115/115 120/120/120 119/119/119
f 122/122/122 117/117/117 121/121/121
f 124/124/124 110/110/110 123/123/123
f 124/124/124 123/123/123 125/125/125
f 128/128/128 127/127/127 126/126/126
f 131/131/131 130/130/130 129/129/129
f 129/129/129 130/130/130 132/132/132
f 135/135/135 134/134/134 133/133/133
f 138/138/138 137/137/137 136/136/136
f 141/141/141 140/140/140 139/139/139
f 144/144/144 143/143/143 142/142/142
f 147/147/147 146/146/146 145/145/145
f 150/150/150 149/149/149 148/148/148
f 153/153/153 152/152/152 151/151/151
f 151/151/151 154/154/154 153/153/153
f 155/155/155 154/154/154 151/151/151
f 155/155/155 156/156/156 154/154/154
f 157/157/157 156/156/156 155/155/155
f 157/157/157 158/158/158 156/156/156
f 159/159/159 158/158/158 157/157/157
f 161/161/161 152/152/152 160/160/160
f 162/162/162 152/152/152 161/161/161
f 163/163/163 162/162/162 161/161/161
f 164/164/164 162/162/162 163/163/163
f 163/163/163 161/161/161 165/165/165
f 165/165/165 161/161/161 166/166/166
f 161/161/161 160/160/160 166/166/166
f 165/165/165 166/166/166 167/167/167
f 167/167/167 166/166/166 168/168/168
f 167/167/167 168/168/168 169/169/169
f 169/169/169 168/168/168 170/170/170
f 169/169/169 170/170/170 171/171/171
f 171/171/171 170/170/170 172/172/172
f 171/171/171 172/172/172 173/173/173
f 173/173/173 172/172/172 174/174/174
f 173/173/173 174/174/174 175/175/175
f 175/175/175 174/174/174 176/176/176
f 175/175/175 176/176/176 177/177/177
f 177/177/177 176/176/176 178/178/178
f 177/177/177 178/178/178 179/179/179
f 179/179/179 178/178/178 180/180/180
f 166/166/166 181/181/181 168/168/168
f 166/166/166 160/160/160 181/181/181
f 168/168/168 181/181/181 182/182/182
f 168/168/168 182/182/182 170/170/170
f 170/170/170 182/182/182 183/183/183
f 170/170/170 183/183/183 172/172/172
f 172/172/172 183/183/183 184/184/184
f 172/172/172 184/184/184 174/174/174
f 174/174/174 184/184/184 185/185/185
f 174/174/174 185/185/185 176/176/176
f 176/176/176 185/185/185 186/186/186
f 176/176/176 186/186/186 178/178/178
f 178/178/178 186/186/186 187/187/187
f 178/178/178 187/187/187 180/180/180
f 180/180/180 187/187/187 188/188/188
f 180/180/180 188/188/188 189/189/189
f 189/189/189 188/188/188 190/190/190
f 192/192/192 63/63/63 191/191/191
f 65/65/65 63/63/63 192/192/192
f 195/195/195 194/194/194 193/193/193
f 196/196/196 194/194/194 195/195/195
f 194/194/194 197/197/197 193/193/193
f 198/198/198 197/197/197 194/194/194
f 198/198/198 199/199/199 197/197/197
f 200/200/200 199/199/199 198/198/198
f 198/198/198 201/201/201 200/200/200
f 198/198/198 194/194/194 201/201/201
f 200/200/200 201/201/201 202/202/202
f 201/201/201 203/203/203 202/202/202
f 202/202/202 203/203/203 204/204/204
f 203/203/203 205/205/205 204/204/204
f 204/204/204 205/205/205 206/206/206
f 205/205/205 207/207/207 206/206/206
f 206/206/206 207/207/207 208/208/208
f 205/205/205 209/209/209 207/207/207
f 207/207/207 209/209/209 210/210/210
f 211/211/211 207/207/207 210/210/210
f 212/212/212 211/211/211 210/210/210
f 213/213/213 211/211/211 212/212/212
f 214/214/214 207/207/207 211/211/211
f 214/214/214 208/208/208 207/207/207
f 215/215/215 208/208/208 214/214/214
f 214/214/214 216/216/216 215/215/215
f 214/214/214 211/211/211 216/216/216
f 215/215/215 216/216/216 217/217/217
f 216/216/216 218/218/218 217/217/217
f 217/217/217 218/218/218 219/219/219
f 218/218/218 220/220/220 219/219/219
f 219/219/219 220/220/220 221/221/221
f 220/220/220 222/222/222 221/221/221
f 221/221/221 222/222/222 223/223/223
f 224/224/224 223/223/223 222/222/222
f 225/225/225 223/223/223 224/224/224
f 224/224/224 226/226/226 225/225/225
f 225/225/225 226/226/226 227/227/227
f 226/226/226 228/228/228 227/227/227
f 227/227/227 228/228/228 229/229/229
f 228/228/228 230/230/230 229/229/229
f 229/229/229 230/230/230 231/231/231
f 230/230/230 232/232/232 231/231/231
f 231/231/231 232/232/232 233/233/233
f 234/234/234 233/233/233 232/232/232
f 235/235/235 233/233/233 234/234/234
f 234/234/234 236/236/236 235/235/235
f 235/235/235 236/236/236 237/237/237
f 236/236/236 238/238/238 237/237/237
f 237/237/237 238/238/238 239/239/239
f 238/238/238 240/240/240 239/239/239
f 241/241/241 240/240/240 238/238/238
f 241/241/241 242/242/242 240/240/240
f 240/240/240 242/242/242 243/243/243
f 241/241/241 244/244/244 242/242/242
f 245/245/245 244/244/244 241/241/241
f 241/241/241 238/238/238 245/245/245
f 245/245/245 238/238/238 246/246/246
f 240/240/240 247/247/247 239/239/239
f 240/240/240 243/243/243 247/247/247
f 239/239/239 247/247/247 248/248/248
f 247/247/247 243/243/243 249/249/249
f 238/238/238 250/250/250 246/246/246
f 236/236/236 250/250/250 238/238/238
f 236/236/236 251/251/251 250/250/250
f 234/234/234 251/251/251 236/236/236
f 234/234/234 232/232/232 251/251/251
f 251/251/251 232/232/232 252/252/252
f 253/253/253 251/251/251 252/252/252
f 254/254/254 251/251/251 253/253/253
f 254/254/254 250/250/250 251/251/251
f 255/255/255 245/245/245 246/246/246
f 256/256/256 245/245/245 255/255/255
f 245/245/245 257/257/257 244/244/244
f 256/256/256 257/257/257 245/245/245
f 256/256/256 258/258/258 257/257/257
f 259/259/259 258/258/258 256/256/256
f 256/256/256 255/255/255 259/259/259
f 259/259/259 255/255/255 260/260/260
f 255/255/255 261/261/261 260/260/260
f 261/261/261 250/250/250 254/254/254
f 255/255/255 246/246/246 261/261/261
f 261/261/261 246/246/246 250/250/250
f 260/260/260 261/261/261 262/262/262
f 261/261/261 254/254/254 262/262/262
f 262/262/262 254/254/254 263/263/263
f 254/254/254 253/253/253 263/263/263
f 263/263/263 253/253/253 264/264/264
f 253/253/253 265/265/265 264/264/264
f 253/253/253 252/252/252 265/265/265
f 265/265/265 252/252/252 266/266/266
f 232/232/232 266/266/266 252/252/252
f 230/230/230 266/266/266 232/232/232
f 230/230/230 267/267/267 266/266/266
f 228/228/228 267/267/267 230/230/230
f 228/228/228 268/268/268 267/267/267
f 226/226/226 268/268/268 228/228/228
f 226/226/226 269/269/269 268/268/268
f 224/224/224 269/269/269 226/226/226
f 224/224/224 222/222/222 269/269/269
f 269/269/269 222/222/222 270/270/270
f 271/271/271 269/269/269 270/270/270
f 272/272/272 269/269/269 271/271/271
f 272/272/272 268/268/268 269/269/269
f 273/273/273 266/266/266 267/267/267
f 265/265/265 266/266/266 273/273/273
f 265/265/265 273/273/273 274/274/274
f 264/264/264 265/265/265 274/274/274
f 274/274/274 273/273/273 275/275/275
f 276/276/276 267/267/267 268/268/268
f 273/273/273 267/267/267 276/276/276
f 273/273/273 276/276/276 275/275/275
f 276/276/276 268/268/268 272/272/272
f 275/275/275 276/276/276 277/277/277
f 276/276/276 272/272/272 277/277/277
f 277/277/277 272/272/272 278/278/278
f 272/272/272 271/271/271 278/278/278
f 278/278/278 271/271/271 279/279/279
f 222/222/222 280/280/280 270/270/270
f 220/220/220 280/280/280 222/222/222
f 220/220/220 281/281/281 280/280/280
f 218/218/218 281/281/281 220/220/220
f 218/218/218 282/282/282 281/281/281
f 216/216/216 282/282/282 218/218/218
f 216/216/216 211/211/211 282/282/282
f 283/283/283 280/280/280 281/281/281
f 284/284/284 280/280/280 283/283/283
f 284/284/284 270/270/270 280/280/280
f 271/271/271 270/270/270 284/284/284
f 271/271/271 284/284/284 279/279/279
f 279/279/279 284/284/284 285/285/285
f 284/284/284 283/283/283 285/285/285
f 285/285/285 283/283/283 286/286/286
f 287/287/287 281/281/281 282/282/282
f 283/283/283 281/281/281 287/287/287
f 283/283/283 287/287/287 286/286/286
f 286/286/286 287/287/287 288/288/288
f 286/286/286 288/288/288 289/289/289
f 290/290/290 286/286/286 289/289/289
f 289/289/289 288/288/288 291/291/291
f 288/288/288 292/292/292 291/291/291
f 293/293/293 292/292/292 288/288/288
f 213/213/213 282/282/282 211/211/211
f 288/288/288 213/213/213 293/293/293
f 287/287/287 213/213/213 288/288/288
f 287/287/287 282/282/282 213/213/213
f 213/213/213 212/212/212 293/293/293
f 293/293/293 212/212/212 294/294/294
f 293/293/293 294/294/294 292/292/292
f 212/212/212 295/295/295 294/294/294
f 212/212/212 210/210/210 295/295/295
f 295/295/295 210/210/210 209/209/209
f 295/295/295 209/209/209 296/296/296
f 296/296/296 209/209/209 297/297/297
f 205/205/205 297/297/297 209/209/209
f 203/203/203 297/297/297 205/205/205
f 203/203/203 298/298/298 297/297/297
f 201/201/201 298/298/298 203/203/203
f 201/201/201 194/194/194 298/298/298
f 294/294/294 295/295/295 299/299/299
f 295/295/295 296/296/296 299/299/299
f 299/299/299 300/300/300 294/294/294
f 299/299/299 301/301/301 300/300/300
f 299/299/299 296/296/296 301/301/301
f 300/300/300 301/301/301 302/302/302
f 294/294/294 300/300/300 303/303/303
f 304/304/304 297/297/297 298/298/298
f 296/296/296 297/297/297 304/304/304
f 296/296/296 304/304/304 301/301/301
f 301/301/301 305/305/305 302/302/302
f 301/301/301 304/304/304 305/305/305
f 302/302/302 305/305/305 306/306/306
f 305/305/305 307/307/307 306/306/306
f 308/308/308 307/307/307 305/305/305
f 308/308/308 309/309/309 307/307/307
f 307/307/307 309/309/309 310/310/310
f 196/196/196 298/298/298 194/194/194
f 304/304/304 298/298/298 196/196/196
f 305/305/305 196/196/196 308/308/308
f 304/304/304 196/196/196 305/305/305
f 308/308/308 195/195/195 309/309/309
f 196/196/196 195/195/195 308/308/308
f 292/292/292 294/294/294 303/303/303
f 313/313/313 312/312/312 311/311/311
f 314/314/314 312/312/312 313/313/313
f 314/314/314 315/315/315 312/312/312
f 316/316/316 315/315/315 314/314/314
f 316/316/316 317/317/317 315/315/315
f 318/318/318 317/317/317 316/316/316
f 318/318/318 319/319/319 317/317/317
f 320/320/320 319/319/319 318/318/318
f 320/320/320 321/321/321 319/319/319
f 319/319/319 321/321/321 322/322/322
f 320/320/320 323/323/323 321/321/321
f 324/324/324 323/323/323 320/320/320
f 320/320/320 318/318/318 324/324/324
f 324/324/324 318/318/318 325/325/325
f 318/318/318 316/316/316 325/325/325
f 325/325/325 316/316/316 326/326/326
f 316/316/316 314/314/314 326/326/326
f 326/326/326 314/314/314 327/327/327
f 314/314/314 313/313/313 327/327/327
f 327/327/327 313/313/313 328/328/328
f 319/319/319 322/322/322 329/329/329
f 329/329/329 322/322/322 330/330/330
f 329/329/329 330/330/330 331/331/331
f 329/329/329 331/331/331 332/332/332
f 319/319/319 332/332/332 317/317/317
f 329/329/329 332/332/332 319/319/319
f 332/332/332 331/331/331 333/333/333
f 331/331/331 330/330/330 334/334/334
f 331/331/331 335/335/335 333/333/333
f 331/331/331 334/334/334 335/335/335
f 333/333/333 335/335/335 336/336/336
f 335/335/335 334/334/334 337/337/337
f 338/338/338 332/332/332 333/333/333
f 339/339/339 332/332/332 338/338/338
f 339/339/339 315/315/315 332/332/332
f 332/332/332 315/315/315 317/317/317
f 340/340/340 339/339/339 338/338/338
f 341/341/341 339/339/339 340/340/340
f 340/340/340 342/342/342 341/341/341
f 341/341/341 342/342/342 343/343/343
f 339/339/339 312/312/312 315/315/315
f 341/341/341 312/312/312 339/339/339
f 341/341/341 343/343/343 312/312/312
f 312/312/312 343/343/343 311/311/311
f 333/333/333 344/344/344 338/338/338
f 336/336/336 344/344/344 333/333/333
f 344/344/344 340/340/340 338/338/338
f 340/340/340 345/345/345 342/342/342
f 346/346/346 345/345/345 340/340/340
f 346/346/346 340/340/340 344/344/344
f 347/347/347 343/343/343 342/342/342
f 345/345/345 347/347/347 342/342/342
f 348/348/348 343/343/343 347/347/347
f 347/347/347 349/349/349 348/348/348
f 348/348/348 349/349/349 350/350/350
f 343/343/343 351/351/351 311/311/311
f 348/348/348 351/351/351 343/343/343
f 348/348/348 350/350/350 351/351/351
f 351/351/351 313/313/313 311/311/311
f 352/352/352 313/313/313 351/351/351
f 352/352/352 351/351/351 353/353/353
f 353/353/353 351/351/351 354/354/354
f 351/351/351 350/350/350 354/354/354
f 352/352/352 328/328/328 313/313/313
f 355/355/355 328/328/328 352/352/352
f 352/352/352 353/353/353 355/355/355
f 355/355/355 353/353/353 356/356/356
f 357/357/357 353/353/353 354/354/354
f 350/350/350 357/357/357 354/354/354
f 358/358/358 353/353/353 357/357/357
f 358/358/358 356/356/356 353/353/353
f 359/359/359 356/356/356 358/358/358
f 360/360/360 358/358/358 357/357/357
f 361/361/361 358/358/358 360/360/360
f 360/360/360 362/362/362 361/361/361
f 361/361/361 362/362/362 363/363/363
f 358/358/358 364/364/364 359/359/359
f 361/361/361 364/364/364 358/358/358
f 361/361/361 363/363/363 364/364/364
f 364/364/364 363/363/363 365/365/365
f 366/366/366 360/360/360 357/357/357
f 366/366/366 357/357/357 350/350/350
f 366/366/366 350/350/350 367/367/367
f 367/367/367 350/350/350 349/349/349
f 368/368/368 366/366/366 367/367/367
f 369/369/369 366/366/366 368/368/368
f 369/369/369 360/360/360 366/366/366
f 368/368/368 370/370/370 369/369/369
f 369/369/369 370/370/370 371/371/371
f 360/360/360 371/371/371 362/362/362
f 369/369/369 371/371/371 360/360/360
f 349/349/349 372/372/372 367/367/367
f 372/372/372 368/368/368 367/367/367
f 373/373/373 372/372/372 349/349/349
f 347/347/347 373/373/373 349/349/349
f 374/374/374 373/373/373 347/347/347
f 374/374/374 347/347/347 345/345/345
f 368/368/368 375/375/375 370/370/370
f 376/376/376 375/375/375 368/368/368
f 376/376/376 368/368/368 372/372/372
f 377/377/377 371/371/371 370/370/370
f 375/375/375 377/377/377 370/370/370
f 378/378/378 371/371/371 377/377/377
f 377/377/377 379/379/379 378/378/378
f 378/378/378 379/379/379 380/380/380
f 378/378/378 381/381/381 371/371/371
f 378/378/378 380/380/380 381/381/381
f 371/371/371 381/381/381 362/362/362
f 381/381/381 363/363/363 362/362/362
f 382/382/382 363/363/363 381/381/381
f 382/382/382 381/381/381 383/383/383
f 383/383/383 381/381/381 384/384/384
f 381/381/381 380/380/380 384/384/384
f 382/382/382 365/365/365 363/363/363
f 385/385/385 365/365/365 382/382/382
f 382/382/382 383/383/383 385/385/385
f 385/385/385 383/383/383 386/386/386
f 387/387/387 385/385/385 386/386/386
f 388/388/388 383/383/383 384/384/384
f 380/380/380 388/388/388 384/384/384
f 389/389/389 383/383/383 388/388/388
f 389/389/389 386/386/386 383/383/383
f 386/386/386 390/390/390 387/387/387
f 391/391/391 390/390/390 386/386/386
f 391/391/391 386/386/386 389/389/389
f 391/391/391 392/392/392 390/390/390
f 393/393/393 392/392/392 391/391/391
f 389/389/389 393/393/393 391/391/391
f 393/393/393 394/394/394 392/392/392
f 392/392/392 394/394/394 395/395/395
f 396/396/396 389/389/389 388/388/388
f 397/397/397 389/389/389 396/396/396
f 397/397/397 393/393/393 389/389/389
f 396/396/396 398/398/398 397/397/397
f 397/397/397 398/398/398 399/399/399
f 393/393/393 399/399/399 394/394/394
f 397/397/397 399/399/399 393/393/393
f 400/400/400 396/396/396 388/388/388
f 400/400/400 388/388/388 380/380/380
f 400/400/400 380/380/380 401/401/401
f 401/401/401 380/380/380 379/379/379
f 402/402/402 400/400/400 401/401/401
f 403/403/403 396/396/396 400/400/400
f 403/403/403 400/400/400 402/402/402
f 402/402/402 404/404/404 403/403/403
f 403/403/403 404/404/404 405/405/405
f 396/396/396 405/405/405 398/398/398
f 403/403/403 405/405/405 396/396/396
f 406/406/406 399/399/399 398/398/398
f 405/405/405 406/406/406 398/398/398
f 407/407/407 399/399/399 406/406/406
f 407/407/407 394/394/394 399/399/399
f 407/407/407 406/406/406 408/408/408
f 408/408/408 406/406/406 409/409/409
f 407/407/407 408/408/408 410/410/410
f 410/410/410 394/394/394 407/407/407
f 410/410/410 395/395/395 394/394/394
f 411/411/411 395/395/395 410/410/410
f 411/411/411 410/410/410 412/412/412
f 412/412/412 410/410/410 413/413/413
f 410/410/410 408/408/408 413/413/413
f 414/414/414 408/408/408 409/409/409
f 415/415/415 408/408/408 414/414/414
f 415/415/415 413/413/413 408/408/408
f 413/413/413 416/416/416 412/412/412
f 417/417/417 416/416/416 413/413/413
f 417/417/417 413/413/413 415/415/415
f 417/417/417 418/418/418 416/416/416
f 419/419/419 418/418/418 417/417/417
f 415/415/415 419/419/419 417/417/417
f 419/419/419 420/420/420 418/418/418
f 418/418/418 420/420/420 421/421/421
f 422/422/422 415/415/415 414/414/414
f 423/423/423 415/415/415 422/422/422
f 423/423/423 419/419/419 415/415/415
f 422/422/422 424/424/424 423/423/423
f 423/423/423 424/424/424 425/425/425
f 419/419/419 425/425/425 420/420/420
f 423/423/423 425/425/425 419/419/419
f 426/426/426 422/422/422 414/414/414
f 426/426/426 414/414/414 427/427/427
f 426/426/426 427/427/427 428/428/428
f 428/428/428 427/427/427 429/429/429
f 430/430/430 429/429/429 427/427/427
f 431/431/431 429/429/429 430/430/430
f 430/430/430 405/405/405 431/431/431
f 431/431/431 405/405/405 404/404/404
f 430/430/430 406/406/406 405/405/405
f 430/430/430 427/427/427 406/406/406
f 406/406/406 427/427/427 409/409/409
f 427/427/427 414/414/414 409/409/409
f 432/432/432 426/426/426 428/428/428
f 433/433/433 426/426/426 432/432/432
f 432/432/432 434/434/434 433/433/433
f 433/433/433 434/434/434 435/435/435
f 433/433/433 422/422/422 426/426/426
f 433/433/433 435/435/435 422/422/422
f 422/422/422 435/435/435 424/424/424
f 239/239/239 436/436/436 237/237/237
f 248/248/248 436/436/436 239/239/239
f 436/436/436 235/235/235 237/237/237
f 437/437/437 235/235/235 436/436/436
f 437/437/437 438/438/438 235/235/235
f 235/235/235 438/438/438 233/233/233
f 439/439/439 233/233/233 438/438/438
f 231/231/231 233/233/233 439/439/439
f 231/231/231 439/439/439 229/229/229
f 229/229/229 439/439/439 440/440/440
f 440/440/440 227/227/227 229/229/229
f 441/441/441 227/227/227 440/440/440
f 441/441/441 225/225/225 227/227/227
f 442/442/442 225/225/225 441/441/441
f 442/442/442 443/443/443 225/225/225
f 225/225/225 443/443/443 223/223/223
f 444/444/444 223/223/223 443/443/443
f 221/221/221 223/223/223 444/444/444
f 221/221/221 444/444/444 219/219/219
f 446/446/446 445/445/445 377/377/377
f 446/446/446 377/377/377 375/375/375
f 449/449/449 448/448/448 447/447/447
f 450/450/450 448/448/448 449/449/449
f 449/449/449 447/447/447 451/451/451
f 451/451/451 447/447/447 452/452/452
f 451/451/451 452/452/452 453/453/453
f 453/453/453 452/452/452 454/454/454
f 453/453/453 454/454/454 455/455/455
f 455/455/455 454/454/454 456/456/456
f 450/450/450 457/457/457 448/448/448
f 458/458/458 457/457/457 450/450/450
f 458/458/458 459/459/459 457/457/457
f 460/460/460 459/459/459 458/458/458
f 463/463/463 462/462/462 461/461/461
f 463/463/463 461/461/461 464/464/464
f 463/463/463 464/464/464 465/465/465
f 463/463/463 465/465/465 466/466/466
f 463/463/463 466/466/466 467/467/467
f 463/463/463 467/467/467 468/468/468
f 463/463/463 468/468/468 469/469/469
f 463/463/463 469/469/469 470/470/470
f 463/463/463 470/470/470 471/471/471
f 463/463/463 471/471/471 472/472/472
f 463/463/463 472/472/472 473/473/473
f 463/463/463 473/473/473 462/462/462
f 476/476/476 475/475/475 474/474/474
f 476/476/476 477/477/477 475/475/475
f 478/478/478 477/477/477 476/476/476
f 474/474/474 475/475/475 479/479/479
f 474/474/474 479/479/479 480/480/480
f 480/480/480 479/479/479 481/481/481
f 480/480/480 481/481/481 482/482/482
f 482/482/482 481/481/481 483/483/483
f 478/478/478 484/484/484 477/477/477
f 485/485/485 484/484/484 478/478/478
f 485/485/485 486/486/486 484/484/484
f 487/487/487 486/486/486 485/485/485
f 490/490/490 489/489/489 488/488/488
f 491/491/491 489/489/489 490/490/490
f 490/490/490 488/488/488 492/492/492
f 492/492/492 488/488/488 493/493/493
f 492/492/492 493/493/493 494/494/494
f 494/494/494 493/493/493 495/495/495
f 494/494/494 495/495/495 496/496/496
f 496/496/496 495/495/495 497/497/497
f 496/496/496 497/497/497 498/498/498
f 498/498/498 497/497/497 499/499/499
f 498/498/498 499/499/499 500/500/500
f 500/500/500 499/499/499 501/501/501
f 500/500/500 501/501/501 502/502/502
f 502/502/502 501/501/501 503/503/503
f 502/502/502 503/503/503 504/504/504
f 504/504/504 503/503/503 505/505/505
f 504/504/504 505/505/505 506/506/506
f 506/506/506 505/505/505 507/507/507
f 506/506/506 507/507/507 508/508/508
f 508/508/508 507/507/507 509/509/509
f 508/508/508 509/509/509 510/510/510
f 510/510/510 509/509/509 511/511/511
f 512/512/512 496/496/496 498/498/498
f 513/513/513 498/498/498 500/500/500
f 512/512/512 498/498/498 513/513/513
f 514/514/514 500/500/500 502/502/502
f 513/513/513 500/500/500 514/514/514
f 515/515/515 502/502/502 504/504/504
f 514/514/514 502/502/502 515/515/515
f 516/516/516 504/504/504 506/506/506
f 515/515/515 504/504/504 516/516/516
f 517/517/517 506/506/506 508/508/508
f 516/516/516 506/506/506 517/517/517
f 518/518/518 508/508/508 510/510/510
f 517/517/517 508/508/508 518/518/518
f 519/519/519 512/512/512 513/513/513
f 520/520/520 512/512/512 519/519/519
f 520/520/520 521/521/521 512/512/512
f 521/521/521 496/496/496 512/512/512
f 521/521/521 494/494/494 496/496/496
f 522/522/522 494/494/494 521/521/521
f 522/522/522 492/492/492 494/494/494
f 523/523/523 492/492/492 522/522/522
f 523/523/523 490/490/490 492/492/492
f 524/524/524 490/490/490 523/523/523
f 524/524/524 491/491/491 490/490/490
f 525/525/525 491/491/491 524/524/524
f 526/526/526 524/524/524 523/523/523
f 527/527/527 524/524/524 526/526/526
f 527/527/527 528/528/528 524/524/524
f 529/529/529 528/528/528 527/527/527
f 530/530/530 523/523/523 522/522/522
f 526/526/526 523/523/523 530/530/530
f 531/531/531 522/522/522 521/521/521
f 530/530/530 522/522/522 531/531/531
f 531/531/531 521/521/521 520/520/520
f 527/527/527 526/526/526 532/532/532
f 533/533/533 527/527/527 532/532/532
f 534/534/534 527/527/527 533/533/533
f 532/532/532 526/526/526 535/535/535
f 526/526/526 530/530/530 535/535/535
f 535/535/535 530/530/530 536/536/536
f 530/530/530 531/531/531 536/536/536
f 536/536/536 531/531/531 537/537/537
f 531/531/531 520/520/520 537/537/537
f 537/537/537 520/520/520 538/538/538
f 520/520/520 519/519/519 538/538/538
f 538/538/538 519/519/519 539/539/539
f 519/519/519 540/540/540 539/539/539
f 519/519/519 513/513/513 540/540/540
f 540/540/540 513/513/513 514/514/514
f 540/540/540 514/514/514 541/541/541
f 541/541/541 514/514/514 515/515/515
f 541/541/541 515/515/515 542/542/542
f 542/542/542 515/515/515 516/516/516
f 539/539/539 540/540/540 543/543/543
f 538/538/538 539/539/539 544/544/544
f 545/545/545 538/538/538 544/544/544
f 537/537/537 538/538/538 545/545/545
f 546/546/546 537/537/537 545/545/545
f 536/536/536 537/537/537 546/546/546
f 547/547/547 536/536/536 546/546/546
f 547/547/547 546/546/546 548/548/548
f 549/549/549 547/547/547 548/548/548
f 550/550/550 547/547/547 549/549/549
f 550/550/550 535/535/535 547/547/547
f 532/532/532 535/535/535 550/550/550
f 535/535/535 536/536/536 547/547/547
f 551/551/551 550/550/550 549/549/549
f 552/552/552 550/550/550 551/551/551
f 553/553/553 532/532/532 550/550/550
f 533/533/533 532/532/532 553/553/553
f 548/548/548 546/546/546 554/554/554
f 546/546/546 545/545/545 554/554/554
f 554/554/554 545/545/545 555/555/555
f 551/551/551 549/549/549 556/556/556
f 556/556/556 549/549/549 557/557/557
f 549/549/549 548/548/548 557/557/557
f 557/557/557 548/548/548 558/558/558
f 548/548/548 554/554/554 558/558/558
f 558/558/558 554/554/554 559/559/559
f 555/555/555 561/561/561 560/560/560
f 563/563/563 555/555/555 562/562/562
f 566/566/566 565/565/565 564/564/564
f 567/567/567 565/565/565 566/566/566
f 566/566/566 564/564/564 568/568/568
f 570/570/570 569/569/569 565/565/565
f 568/568/568 572/572/572 571/571/571
f 571/571/571 572/572/572 573/573/573
f 576/576/576 575/575/575 574/574/574
f 576/576/576 577/577/577 575/575/575
f 578/578/578 576/576/576 574/574/574
f 579/579/579 576/576/576 578/578/578
f 579/579/579 580/580/580 576/576/576
f 580/580/580 581/581/581 576/576/576
f 580/580/580 491/491/491 581/581/581
f 582/582/582 491/491/491 580/580/580
f 582/582/582 489/489/489 491/491/491
f 583/583/583 489/489/489 582/582/582
f 583/583/583 584/584/584 489/489/489
f 585/585/585 582/582/582 580/580/580
f 585/585/585 580/580/580 579/579/579
f 586/586/586 582/582/582 585/585/585
f 586/586/586 587/587/587 582/582/582
f 588/588/588 587/587/587 586/586/586
f 589/589/589 488/488/488 489/489/489
f 590/590/590 493/493/493 488/488/488
f 591/591/591 495/495/495 493/493/493
f 591/591/591 497/497/497 495/495/495
f 591/591/591 499/499/499 497/497/497
f 591/591/591 501/501/501 499/499/499
f 591/591/591 503/503/503 501/501/501
f 591/591/591 505/505/505 503/503/503
f 591/591/591 507/507/507 505/505/505
f 591/591/591 509/509/509 507/507/507
f 509/509/509 591/591/591 511/511/511
f 593/593/593 592/592/592 511/511/511
f 592/592/592 510/510/510 511/511/511
f 594/594/594 510/510/510 592/592/592
f 595/595/595 594/594/594 592/592/592
f 595/595/595 592/592/592 596/596/596
f 597/597/597 594/594/594 595/595/595
f 597/597/597 598/598/598 594/594/594
f 598/598/598 518/518/518 594/594/594
f 594/594/594 518/518/518 510/510/510
f 598/598/598 599/599/599 518/518/518
f 600/600/600 599/599/599 598/598/598
f 601/601/601 600/600/600 598/598/598
f 601/601/601 598/598/598 602/602/602
f 599/599/599 517/517/517 518/518/518
f 603/603/603 517/517/517 599/599/599
f 603/603/603 516/516/516 517/517/517
f 542/542/542 516/516/516 603/603/603
f 599/599/599 600/600/600 604/604/604
f 604/604/604 600/600/600 605/605/605
f 606/606/606 605/605/605 600/600/600
f 606/606/606 600/600/600 607/607/607
f 608/608/608 605/605/605 606/606/606
f 608/608/608 609/609/609 605/605/605
f 610/610/610 609/609/609 608/608/608
f 610/610/610 611/611/611 609/609/609
f 612/612/612 611/611/611 610/610/610
f 612/612/612 613/613/613 611/611/611
f 614/614/614 613/613/613 612/612/612
f 616/616/616 584/584/584 615/615/615
f 618/618/618 592/592/592 617/617/617
f 621/621/621 620/620/620 619/619/619
f 622/622/622 620/620/620 621/621/621
f 625/625/625 624/624/624 623/623/623
f 626/626/626 624/624/624 625/625/625
f 629/629/629 628/628/628 627/627/627
f 630/630/630 628/628/628 629/629/629
f 633/633/633 632/632/632 631/631/631
f 631/631/631 632/632/632 634/634/634
f 637/637/637 636/636/636 635/635/635
f 635/635/635 636/636/636 638/638/638
f 578/578/578 640/640/640 639/639/639
f 639/639/639 640/640/640 641/641/641
f 639/639/639 643/643/643 642/642/642
f 642/642/642 643/643/643 644/644/644
f 647/647/647 646/646/646 645/645/645
f 650/650/650 649/649/649 648/648/648
f 651/651/651 649/649/649 650/650/650
f 654/654/654 653/653/653 652/652/652
f 655/655/655 653/653/653 654/654/654
f 654/654/654 652/652/652 656/656/656
f 657/657/657 654/654/654 656/656/656
f 658/658/658 654/654/654 657/657/657
f 656/656/656 652/652/652 659/659/659
f 652/652/652 660/660/660 659/659/659
f 652/652/652 661/661/661 660/660/660
f 653/653/653 661/661/661 652/652/652
f 659/659/659 660/660/660 662/662/662
f 660/660/660 663/663/663 662/662/662
f 660/660/660 664/664/664 663/663/663
f 661/661/661 664/664/664 660/660/660
f 664/664/664 665/665/665 663/663/663
f 663/663/663 665/665/665 666/666/666
f 662/662/662 663/663/663 667/667/667
f 663/663/663 666/666/666 667/667/667
f 667/667/667 666/666/666 668/668/668
f 657/657/657 656/656/656 669/669/669
f 670/670/670 657/657/657 669/669/669
f 671/671/671 657/657/657 670/670/670
f 659/659/659 662/662/662 672/672/672
f 673/673/673 659/659/659 672/672/672
f 669/669/669 656/656/656 673/673/673
f 656/656/656 659/659/659 673/673/673
f 672/672/672 662/662/662 674/674/674
f 662/662/662 667/667/667 674/674/674
f 674/674/674 667/667/667 675/675/675
f 667/667/667 668/668/668 675/675/675
f 675/675/675 668/668/668 676/676/676
f 670/670/670 669/669/669 677/677/677
f 678/678/678 670/670/670 677/677/677
f 679/679/679 670/670/670 678/678/678
f 680/680/680 671/671/671 679/679/679
f 677/677/677 669/669/669 681/681/681
f 669/669/669 673/673/673 681/681/681
f 681/681/681 673/673/673 682/682/682
f 673/673/673 672/672/672 682/682/682
f 682/682/682 672/672/672 683/683/683
f 672/672/672 674/674/674 683/683/683
f 683/683/683 674/674/674 684/684/684
f 674/674/674 675/675/675 684/684/684
f 684/684/684 675/675/675 685/685/685
f 675/675/675 676/676/676 685/685/685
f 685/685/685 676/676/676 686/686/686
f 676/676/676 687/687/687 686/686/686
f 676/676/676 688/688/688 687/687/687
f 668/668/668 688/688/688 676/676/676
f 668/668/668 689/689/689 688/688/688
f 666/666/666 689/689/689 668/668/668
f 686/686/686 687/687/687 690/690/690
f 692/692/692 679/679/679 691/691/691
f 544/544/544 539/539/539 693/693/693
f 696/696/696 695/695/695 694/694/694
f 697/697/697 695/695/695 696/696/696
f 697/697/697 698/698/698 695/695/695
f 699/699/699 698/698/698 697/697/697
f 699/699/699 700/700/700 698/698/698
f 701/701/701 700/700/700 699/699/699
f 701/701/701 702/702/702 700/700/700
f 703/703/703 702/702/702 701/701/701
