g GVG_Stove_BoxRocketBlue_mesh
v 162.2692 225.3017 -323.3293
v 137.533 166.2343 -302.2265
v 166.8066 225.3017 -327.8669
v 142.0704 166.2606 -306.7642
v 134.6196 166.2342 -296.5088
v 159.3559 225.3017 -317.6114
v 158.3519 225.3017 -311.2734
v 133.6156 166.2604 -290.1707
v 159.3559 225.3017 -317.6114
v 134.6196 166.2342 -296.5088
v 134.6192 166.3102 -283.8328
v 159.3555 225.3017 -304.9355
v 137.5321 166.3789 -278.1152
v 162.2684 225.3018 -299.218
v 142.0693 166.4596 -273.5779
v 167.8554 225.3119 -294.8838
v 147.7865 166.5445 -270.6648
v 173.2714 225.0094 -293.1723
v 154.1241 166.6252 -269.6612
v 178.3582 225.3121 -290.8158
v 160.4619 166.694 -270.6653
v 185.1981 225.3022 -291.768
v 166.1794 166.7439 -273.5787
v 190.9156 225.3022 -294.6815
v 170.7168 166.7702 -278.1164
v 195.453 225.3022 -299.2191
v 215.3711 278.8015 -365.9856
v 218.3244 274.0255 -364.0851
v 219.6974 274.0254 -361.803
v 215.3711 278.8015 -365.9856
v 216.3568 274.0255 -365.8657
v 218.3244 274.0255 -364.0851
v 213.9401 274.0254 -367.0049
v 215.3711 278.8015 -365.9856
v 219.6974 274.0254 -361.803
v 220.3475 274.0254 -359.1841
v 218.404 253.1864 -338.4106
v 220.168 274.0253 -356.4392
v 218.7746 253.1864 -344.0784
v 218.5403 225.3223 -324.0013
v 217.8754 225.3221 -313.8351
v 216.2142 253.1863 -333.055
v 220.168 274.0253 -356.4392
v 219.1075 274.0253 -353.8456
v 212.3482 253.1864 -328.6781
v 217.2352 274.0254 -351.726
v 215.3711 278.8015 -365.9856
v 214.7766 274.0254 -350.3555
v 212.0511 274.0254 -349.8651
v 201.6435 253.1864 -324.8356
v 196.0921 253.1863 -325.6057
v 209.3627 274.0253 -350.238
v 215.3711 278.8015 -365.9856
v 191.1019 253.1863 -327.958
v 206.946 274.0253 -351.3773
v 215.3711 278.8015 -365.9856
v 204.9783 274.0253 -353.1578
v 203.6055 274.0253 -355.4399
v 202.9554 274.0254 -358.0588
v 182.8616 253.1864 -341.7548
v 183.2323 253.1865 -347.4227
v 203.1349 274.0254 -360.8037
v 215.3711 278.8015 -365.9856
v 185.422 253.1865 -352.7782
v 204.1953 274.0254 -363.3972
v 215.3711 278.8015 -365.9856
v 184.204 253.1864 -336.347
v 187.0389 253.1863 -331.6347
v 154.6462 225.3221 -309.0103
v 153.2201 225.3222 -319.2527
v 154.79 225.3224 -329.9997
v 159.7026 225.3224 -338.441
v 189.288 253.1865 -357.1552
v 206.0676 274.0254 -365.517
v 215.3711 278.8015 -365.9856
v 166.6884 225.3224 -346.1454
v 194.365 253.1865 -359.9851
v 175.7946 225.3223 -351.2213
v 159.7026 225.322 -300.8423
v 167.8554 225.3119 -294.8838
v 178.3582 225.3121 -290.8158
v 187.8132 225.3222 -289.4865
v 197.9075 225.3222 -291.3026
v 207.2713 253.1864 -325.8482
v 207.0135 225.3222 -296.3785
v 213.9478 225.3221 -304.2292
v 215.3711 278.8015 -365.9856
v 220.3475 274.0254 -359.1841
v 220.168 274.0253 -356.4392
v 215.3711 278.8015 -365.9856
v 220.168 274.0253 -356.4392
v 219.1075 274.0253 -353.8456
v 215.3711 278.8015 -365.9856
v 206.0676 274.0254 -365.517
v 208.5262 274.0254 -366.8875
v 215.3711 278.8015 -365.9856
v 208.5262 274.0254 -366.8875
v 211.2517 274.0254 -367.3778
v 215.3711 278.8015 -365.9856
v 211.2517 274.0254 -367.3778
v 213.9401 274.0254 -367.0049
v 219.6974 274.0254 -361.803
v 220.3475 274.0254 -359.1841
v 217.4323 253.1865 -349.4862
v 216.1326 225.3224 -333.7009
v 189.288 253.1865 -357.1552
v 194.365 253.1865 -359.9851
v 206.0676 274.0254 -365.517
v 208.5262 274.0254 -366.8875
v 199.9928 253.1865 -360.9977
v 211.2517 274.0254 -367.3778
v 205.5441 253.1865 -360.2275
v 213.9401 274.0254 -367.0049
v 210.5343 253.1866 -357.8752
v 216.3568 274.0255 -365.8657
v 214.5973 253.1866 -354.1985
v 218.3244 274.0255 -364.0851
v 217.4323 253.1865 -349.4862
v 219.6974 274.0254 -361.803
v 211.0477 225.3225 -342.1532
v 216.1326 225.3224 -333.7009
v 203.7601 225.3225 -348.7478
v 194.8095 225.3224 -352.967
v 184.8524 225.3223 -354.3483
v 175.7946 225.3223 -351.2213
vt 0.550788 0.084552
vt 0.53702 0.112667
vt 0.560186 0.075153
vt 0.546159 0.103518
vt 0.531142 0.124203
vt 0.544754 0.096395
vt 0.542675 0.109522
vt 0.5291 0.136998
vt 0.544754 0.096395
vt 0.531142 0.124203
vt 0.531094 0.1498
vt 0.544753 0.122649
vt 0.536929 0.161355
vt 0.550786 0.134491
vt 0.546035 0.170534
vt 0.562352 0.143471
vt 0.557519 0.176436
vt 0.573757 0.146931
vt 0.57026 0.178484
vt 0.584105 0.151897
vt 0.583008 0.176478
vt 0.598278 0.149922
vt 0.594517 0.170612
vt 0.61012 0.143887
vt 0.603658 0.161462
vt 0.619518 0.134489
vt 0.629051 0.007805
vt 0.6382 0.01077
vt 0.641107 0.015603
vt 0.629051 0.007805
vt 0.634033 0.007
vt 0.6382 0.01077
vt 0.628916 0.004588
vt 0.629051 0.007805
vt 0.641107 0.015603
vt 0.642484 0.021149
vt 0.650793 0.060017
vt 0.642103 0.026961
vt 0.65157 0.048129
vt 0.667325 0.083165
vt 0.665948 0.104221
vt 0.6462 0.07125
vt 0.642103 0.026961
vt 0.639858 0.032453
vt 0.638091 0.080431
vt 0.635893 0.036942
vt 0.629051 0.007805
vt 0.630687 0.039844
vt 0.624916 0.040882
vt 0.615638 0.08849
vt 0.603994 0.086875
vt 0.619223 0.040092
vt 0.629051 0.007805
vt 0.593528 0.081941
vt 0.614105 0.03768
vt 0.629051 0.007805
vt 0.609939 0.033909
vt 0.607032 0.029077
vt 0.605655 0.023531
vt 0.576244 0.053003
vt 0.577021 0.041115
vt 0.606035 0.017719
vt 0.629051 0.007805
vt 0.581614 0.029881
vt 0.608281 0.012227
vt 0.629051 0.007805
vt 0.579059 0.064345
vt 0.585006 0.074229
vt 0.534987 0.114215
vt 0.532033 0.093001
vt 0.535284 0.070741
vt 0.545459 0.053258
vt 0.589723 0.020701
vt 0.612245 0.007738
vt 0.629051 0.007805
vt 0.559928 0.0373
vt 0.600372 0.014765
vt 0.578789 0.026787
vt 0.54546 0.131132
vt 0.562352 0.143471
vt 0.584105 0.151897
vt 0.603682 0.154653
vt 0.62459 0.150891
vt 0.627442 0.086366
vt 0.64345 0.140378
vt 0.657813 0.124117
vt 0.629051 0.007805
vt 0.642484 0.021149
vt 0.642103 0.026961
vt 0.629051 0.007805
vt 0.642103 0.026961
vt 0.639858 0.032453
vt 0.629051 0.007805
vt 0.612245 0.007738
vt 0.617452 0.004836
vt 0.629051 0.007805
vt 0.617452 0.004836
vt 0.623223 0.003798
vt 0.629051 0.007805
vt 0.623223 0.003798
vt 0.628916 0.004588
vt 0.641107 0.015603
vt 0.642484 0.021149
vt 0.648755 0.036786
vt 0.662338 0.063075
vt 0.589723 0.020701
vt 0.600372 0.014765
vt 0.612245 0.007738
vt 0.617452 0.004836
vt 0.612176 0.012641
vt 0.623223 0.003798
vt 0.62382 0.014257
vt 0.628916 0.004588
vt 0.634286 0.019191
vt 0.634033 0.007
vt 0.642808 0.026902
vt 0.6382 0.01077
vt 0.648755 0.036786
vt 0.641107 0.015603
vt 0.651806 0.045569
vt 0.662338 0.063075
vt 0.636712 0.03191
vt 0.618173 0.023171
vt 0.59755 0.02031
vt 0.578789 0.026787
vn -0.8280648 0.1542088 -0.5390067
vn -0.7722084 0.09917855 -0.6275809
vn -0.7065171 0.0435277 -0.7063561
vn -0.7065766 0.04358448 -0.706293
vn -0.9020424 0.2527462 -0.3499129
vn -0.9216971 0.2968105 -0.2497556
vn -0.9155705 0.3996715 0.04464763
vn -0.9276602 0.3696323 -0.05309054
vn -0.9216971 0.2968105 -0.2497556
vn -0.9020424 0.2527462 -0.3499129
vn -0.8664906 0.4444914 0.2272033
vn -0.8296314 0.4608217 0.3152065
vn -0.7383257 0.4795981 0.474195
vn -0.6570053 0.486345 0.5760316
vn -0.5260904 0.4800105 0.7020105
vn -0.3658535 0.6662225 0.6498452
vn -0.2697601 0.4413131 0.8558459
vn -0.2659232 0.4370678 0.8592186
vn -0.1365563 0.3929284 0.9093732
vn -0.1177685 0.6158972 0.7789744
vn 0.2464525 0.2350999 0.9402069
vn 0.3491242 0.1835568 0.9189229
vn 0.5431308 0.07200393 0.8365551
vn 0.6300279 0.0136675 0.7764523
vn 0.7065036 -0.04390497 0.7063463
vn 0.7064371 -0.04386249 0.7064154
vn 0.690371 0.4900201 -0.5322295
vn 0.7803862 -0.1565077 -0.6053945
vn 0.9346024 0.002949595 -0.3556821
vn 0.5120344 0.3084908 -0.8016572
vn 0.5628009 -0.2282176 -0.7944633
vn 0.7803862 -0.1565077 -0.6053945
vn 0.3060657 -0.20194 -0.9303462
vn 0.61424 0.7696338 -0.1742785
vn 0.9346024 0.002949595 -0.3556821
vn 0.9731505 0.2228595 -0.05754672
vn 0.9810764 0.0959707 0.1681626
vn 0.9200878 0.3209766 0.2245271
vn 0.9805257 -0.1402981 -0.1374261
vn 0.9987556 -0.03441098 -0.03610159
vn 0.9385967 0.2180295 0.2673939
vn 0.8236775 0.3568074 0.4407309
vn 0.8618613 0.4533023 0.227403
vn 0.6392424 0.6407007 0.4252903
vn 0.5588071 0.5665012 0.6056493
vn 0.3899052 0.7620484 0.5169682
vn 0.02576133 0.994472 0.1017925
vn 0.170426 0.8292339 0.5322838
vn -0.007585604 0.8632069 0.5047933
vn 0.0505617 0.7659295 0.6409334
vn -0.1407392 0.799284 0.584241
vn -0.1529637 0.8783175 0.4529465
vn -0.04070846 0.9915666 0.1230383
vn -0.2928652 0.8124388 0.5041559
vn -0.2768398 0.8813769 0.3827982
vn -0.06812166 0.9955989 0.06435867
vn -0.3871056 0.8741928 0.2931487
vn -0.4877267 0.8547465 0.1775701
vn -0.577311 0.8161676 0.02413316
vn -0.6666824 0.7412496 0.07799666
vn -0.7471702 0.6480745 -0.1474316
vn -0.6430752 0.7434781 -0.1835609
vn -0.1277165 0.9897164 0.06442075
vn -0.7604049 0.471132 -0.4470113
vn -0.6487793 0.6120252 -0.4522284
vn -0.1368088 0.9905346 -0.01115888
vn -0.5512483 0.7930205 0.2593143
vn -0.4253694 0.8125961 0.3984323
vn -0.5826673 0.7920673 0.1820111
vn -0.6951339 0.7185757 -0.02092295
vn -0.7581598 0.5841219 -0.2898193
vn -0.7284132 0.377175 -0.5719732
vn -0.6471761 0.2350116 -0.7252122
vn -0.5381556 0.4042373 -0.7395815
vn -0.1870524 0.9819304 -0.02870701
vn -0.5694313 0.1419163 -0.809696
vn -0.3893098 -0.03516957 -0.9204352
vn -0.3333116 -0.06307466 -0.9407046
vn -0.4413404 0.82459 0.3539349
vn -0.3658535 0.6662225 0.6498452
vn -0.1177685 0.6158972 0.7789744
vn -0.01739182 0.7884755 0.6148202
vn 0.1979834 0.7360345 0.6473452
vn 0.2844212 0.6964255 0.6588597
vn 0.4563026 0.6350969 0.6232494
vn 0.7306381 0.4613005 0.5033585
vn 0.2267426 0.9651903 0.1303666
vn 0.9406202 0.3393839 -0.007230038
vn 0.8618613 0.4533023 0.227403
vn 0.1305291 0.9867275 0.09659661
vn 0.7855412 0.5613739 0.2603541
vn 0.6392424 0.6407007 0.4252903
vn -0.2957581 0.9104942 -0.2890112
vn -0.5381556 0.4042373 -0.7395815
vn -0.2950141 0.1501548 -0.9436208
vn -0.02836646 0.5488938 -0.8354105
vn -0.2950141 0.1501548 -0.9436208
vn 0.01211617 -0.07170517 -0.9973524
vn 0.290758 0.3302171 -0.898007
vn 0.01211617 -0.07170517 -0.9973524
vn 0.3060657 -0.20194 -0.9303462
vn 0.9346024 0.002949595 -0.3556821
vn 0.9943663 0.06878408 -0.08065052
vn 0.8626689 -0.3016663 -0.4059555
vn 0.9181715 -0.2268381 -0.3248165
vn -0.6471761 0.2350116 -0.7252122
vn -0.3893098 -0.03516957 -0.9204352
vn -0.5381556 0.4042373 -0.7395815
vn -0.2950141 0.1501548 -0.9436208
vn -0.09975018 -0.2191175 -0.9705861
vn 0.01211617 -0.07170517 -0.9973524
vn 0.2191574 -0.3525001 -0.9097877
vn 0.3060657 -0.20194 -0.9303462
vn 0.4695376 -0.4017983 -0.7861887
vn 0.5628009 -0.2282176 -0.7944633
vn 0.6839427 -0.38524 -0.6195261
vn 0.7803862 -0.1565077 -0.6053945
vn 0.8626689 -0.3016663 -0.4059555
vn 0.9346024 0.002949595 -0.3556821
vn 0.7560946 -0.3384652 -0.5601448
vn 0.9181715 -0.2268381 -0.3248165
vn 0.5509965 -0.3777119 -0.7441347
vn 0.3106834 -0.3499675 -0.8837411
vn -0.02184161 -0.2208171 -0.9750707
vn -0.3333116 -0.06307466 -0.9407046
g GVG_Stove_BoxRocketBlue_mesh_0
f 3/3/3 2/2/2 1/1/1
f 4/4/4 2/2/2 3/3/3
f 2/2/2 5/5/5 1/1/1
f 1/1/1 5/5/5 6/6/6
f 9/9/9 8/8/8 7/7/7
f 10/10/10 8/8/8 9/9/9
f 8/8/8 11/11/11 7/7/7
f 7/7/7 11/11/11 12/12/12
f 11/11/11 13/13/13 12/12/12
f 12/12/12 13/13/13 14/14/14
f 13/13/13 15/15/15 14/14/14
f 14/14/14 15/15/15 16/16/16
f 15/15/15 17/17/17 16/16/16
f 16/16/16 17/17/17 18/18/18
f 17/17/17 19/19/19 18/18/18
f 18/18/18 19/19/19 20/20/20
f 19/19/19 21/21/21 20/20/20
f 20/20/20 21/21/21 22/22/22
f 21/21/21 23/23/23 22/22/22
f 22/22/22 23/23/23 24/24/24
f 23/23/23 25/25/25 24/24/24
f 24/24/24 25/25/25 26/26/26
f 29/29/29 28/28/28 27/27/27
f 32/32/32 31/31/31 30/30/30
f 31/31/31 33/33/33 30/30/30
f 36/36/36 35/35/35 34/34/34
f 38/38/38 37/37/37 36/36/36
f 36/36/36 37/37/37 39/39/39
f 37/37/37 40/40/40 39/39/39
f 41/41/41 40/40/40 37/37/37
f 42/42/42 41/41/41 37/37/37
f 43/43/43 42/42/42 37/37/37
f 44/44/44 42/42/42 43/43/43
f 44/44/44 45/45/45 42/42/42
f 46/46/46 45/45/45 44/44/44
f 46/46/46 44/44/44 47/47/47
f 48/48/48 46/46/46 47/47/47
f 49/49/49 48/48/48 47/47/47
f 49/49/49 50/50/50 48/48/48
f 49/49/49 51/51/51 50/50/50
f 52/52/52 51/51/51 49/49/49
f 52/52/52 49/49/49 53/53/53
f 52/52/52 54/54/54 51/51/51
f 55/55/55 54/54/54 52/52/52
f 55/55/55 52/52/52 56/56/56
f 57/57/57 55/55/55 56/56/56
f 58/58/58 57/57/57 56/56/56
f 59/59/59 58/58/58 56/56/56
f 59/59/59 60/60/60 58/58/58
f 59/59/59 61/61/61 60/60/60
f 62/62/62 61/61/61 59/59/59
f 62/62/62 59/59/59 63/63/63
f 62/62/62 64/64/64 61/61/61
f 65/65/65 64/64/64 62/62/62
f 65/65/65 62/62/62 66/66/66
f 58/58/58 60/60/60 67/67/67
f 58/58/58 67/67/67 57/57/57
f 57/57/57 67/67/67 68/68/68
f 57/57/57 68/68/68 55/55/55
f 55/55/55 68/68/68 54/54/54
f 60/60/60 69/69/69 67/67/67
f 70/70/70 69/69/69 60/60/60
f 61/61/61 70/70/70 60/60/60
f 71/71/71 70/70/70 61/61/61
f 64/64/64 71/71/71 61/61/61
f 72/72/72 71/71/71 64/64/64
f 73/73/73 72/72/72 64/64/64
f 65/65/65 73/73/73 64/64/64
f 74/74/74 73/73/73 65/65/65
f 74/74/74 65/65/65 75/75/75
f 76/76/76 72/72/72 73/73/73
f 77/77/77 76/76/76 73/73/73
f 78/78/78 76/76/76 77/77/77
f 67/67/67 79/79/79 68/68/68
f 69/69/69 79/79/79 67/67/67
f 79/79/79 80/80/80 68/68/68
f 68/68/68 80/80/80 54/54/54
f 80/80/80 81/81/81 54/54/54
f 54/54/54 81/81/81 51/51/51
f 81/81/81 82/82/82 51/51/51
f 51/51/51 82/82/82 50/50/50
f 82/82/82 83/83/83 50/50/50
f 50/50/50 83/83/83 84/84/84
f 48/48/48 50/50/50 84/84/84
f 48/48/48 84/84/84 46/46/46
f 46/46/46 84/84/84 45/45/45
f 84/84/84 85/85/85 45/45/45
f 83/83/83 85/85/85 84/84/84
f 85/85/85 86/86/86 45/45/45
f 45/45/45 86/86/86 42/42/42
f 86/86/86 41/41/41 42/42/42
f 89/89/89 88/88/88 87/87/87
f 92/92/92 91/91/91 90/90/90
f 95/95/95 94/94/94 93/93/93
f 98/98/98 97/97/97 96/96/96
f 101/101/101 100/100/100 99/99/99
f 103/103/103 39/39/39 102/102/102
f 102/102/102 39/39/39 104/104/104
f 39/39/39 105/105/105 104/104/104
f 40/40/40 105/105/105 39/39/39
f 108/108/108 107/107/107 106/106/106
f 109/109/109 107/107/107 108/108/108
f 109/109/109 110/110/110 107/107/107
f 111/111/111 110/110/110 109/109/109
f 111/111/111 112/112/112 110/110/110
f 113/113/113 112/112/112 111/111/111
f 113/113/113 114/114/114 112/112/112
f 115/115/115 114/114/114 113/113/113
f 115/115/115 116/116/116 114/114/114
f 117/117/117 116/116/116 115/115/115
f 117/117/117 118/118/118 116/116/116
f 119/119/119 118/118/118 117/117/117
f 118/118/118 120/120/120 116/116/116
f 121/121/121 120/120/120 118/118/118
f 116/116/116 122/122/122 114/114/114
f 120/120/120 122/122/122 116/116/116
f 114/114/114 123/123/123 112/112/112
f 122/122/122 123/123/123 114/114/114
f 123/123/123 124/124/124 112/112/112
f 112/112/112 124/124/124 110/110/110
f 124/124/124 125/125/125 110/110/110
f 110/110/110 125/125/125 107/107/107
