g GVG_TeleporterButton_mesh
v 1421.786 118.9369 -905.1323
v 1414.765 123.3418 -922.8062
v 1429.561 119.4311 -908.9914
v 1410.113 119.2406 -904.4507
v 1401.132 120.3447 -907.5021
v 1395.312 121.6537 -912.8577
v 1393.152 123.0349 -918.0375
v 1393.795 124.3267 -923.4082
v 1396.099 125.1224 -927.4016
v 1432.458 120.1661 -913.0399
v 1433.788 121.3148 -917.9332
v 1431.881 122.9327 -924.1174
v 1428.861 124.0488 -928.2488
v 1401.742 125.8774 -930.408
v 1410.807 126.0478 -932.7604
v 1417.556 125.6083 -932.2709
v 1423.429 124.9623 -930.9561
v 1393.225 114.5356 -904.9785
v 1389.846 116.5659 -912.5864
v 1393.152 123.0349 -918.0375
v 1401.101 112.8883 -899.5221
v 1411.567 111.6124 -896.4174
v 1424.507 111.2551 -897.4367
v 1433.896 111.863 -901.8998
v 1438.036 112.9091 -906.2433
v 1439.861 114.5247 -913.0624
v 1431.881 122.9327 -924.1174
v 1437.448 116.5608 -920.871
v 1401.742 125.8774 -930.408
v 1412.373 120.4255 -931.7241
v 1410.807 126.0478 -932.7604
v 1401.904 120.2286 -929.0075
v 1396.099 125.1224 -927.4016
v 1420.087 119.9243 -931.1687
v 1417.556 125.6083 -932.2709
v 1426.742 119.1866 -929.6642
v 1423.429 124.9623 -930.9561
v 1433.489 118.0319 -926.2745
v 1428.861 124.0488 -928.2488
v 1395.057 119.3097 -925.1315
v 1389.846 116.5659 -912.5864
v 1391.443 118.2923 -920.3401
v 1393.152 123.0349 -918.0375
v 1393.795 124.3267 -923.4082
v 1395.057 119.3097 -925.1315
v 1396.099 125.1224 -927.4016
v 1428.861 124.0488 -928.2488
v 1437.448 116.5608 -920.871
v 1431.881 122.9327 -924.1174
v 1433.489 118.0319 -926.2745
vt 0.074738 0.070776
vt 0.062994 0.034085
vt 0.090565 0.062911
vt 0.051533 0.072055
vt 0.03412 0.065632
vt 0.023127 0.054526
vt 0.019497 0.043739
vt 0.021442 0.032582
vt 0.02647 0.024329
vt 0.09676 0.054592
vt 0.100044 0.044455
vt 0.097098 0.031579
vt 0.091643 0.022956
vt 0.038184 0.018064
vt 0.056471 0.013289
vt 0.069788 0.014407
vt 0.081233 0.017244
vt 0.015357 0.072327
vt 0.009622 0.056543
vt 0.019497 0.043739
vt 0.030253 0.083683
vt 0.050485 0.09023
vt 0.076113 0.088295
vt 0.09517 0.079222
vt 0.103996 0.07026
vt 0.108516 0.056181
vt 0.097098 0.031579
vt 0.104798 0.03998
vt 0.038184 0.018064
vt 0.056674 0.017097
vt 0.056471 0.013289
vt 0.035605 0.022597
vt 0.02647 0.024329
vt 0.071859 0.018362
vt 0.069788 0.014407
vt 0.084791 0.0216
vt 0.081233 0.017244
vt 0.097673 0.028733
vt 0.091643 0.022956
vt 0.021428 0.030636
vt 0.009622 0.056543
vt 0.013682 0.040529
vt 0.019497 0.043739
vt 0.021442 0.032582
vt 0.021428 0.030636
vt 0.02647 0.024329
vt 0.091643 0.022956
vt 0.104798 0.03998
vt 0.097098 0.031579
vt 0.097673 0.028733
vn 0.1011662 0.8547467 0.509091
vn 0.04121926 0.9708636 0.2360611
vn 0.2308604 0.8607193 0.4537244
vn -0.02509826 0.8532625 0.5208772
vn -0.1544023 0.8587254 0.4886214
vn -0.3191549 0.8568751 0.404852
vn -0.1865145 0.9276531 0.3235305
vn 0.03916264 0.9729586 0.2276354
vn 0.03081651 0.9677982 0.2498338
vn 0.3151651 0.8724499 0.3734997
vn 0.4280636 0.8740105 0.2299283
vn 0.4482167 0.8892148 0.09164529
vn 0.0424128 0.9708355 0.2359653
vn 0.0337303 0.963998 0.2637616
vn 0.0453487 0.9684032 0.2452321
vn 0.0482318 0.9680564 0.2460497
vn 0.04748959 0.9688306 0.2431296
vn -0.4261299 0.7090796 0.5617999
vn -0.7475318 0.6061926 0.2715265
vn -0.5696782 0.8004478 0.1864139
vn -0.1889208 0.7123698 0.6758981
vn 0.004471506 0.7218431 0.6920423
vn 0.1986892 0.730119 0.6537958
vn 0.3683552 0.7496979 0.5497884
vn 0.5060133 0.7639116 0.4004868
vn 0.7205369 0.6904133 0.06446728
vn 0.5468754 0.8368136 -0.02588988
vn 0.787956 0.5217831 -0.3269063
vn -0.3057719 -0.2373437 -0.9220474
vn -0.1412118 -0.2173302 -0.9658296
vn -0.04000058 -0.1916596 -0.980646
vn -0.376644 -0.2419688 -0.8941982
vn -0.6056188 -0.1820885 -0.7746416
vn 0.1104447 -0.1417712 -0.9837189
vn 0.1595182 -0.1197881 -0.9799004
vn 0.2941519 -0.04412302 -0.9547396
vn 0.3761435 0.007025518 -0.9265348
vn 0.5917618 0.2000756 -0.7808891
vn 0.7039014 0.3361884 -0.6256997
vn -0.7286235 -0.1003713 -0.6775201
vn -0.7475318 0.6061926 0.2715265
vn -0.9309904 0.2589175 -0.2573299
vn -0.8636069 0.4931291 0.1049132
vn -0.9107517 0.1099386 -0.3980511
vn -0.7286235 -0.1003713 -0.6775201
vn -0.6056188 -0.1820885 -0.7746416
vn 0.7039014 0.3361884 -0.6256997
vn 0.787956 0.5217831 -0.3269063
vn 0.7858143 0.5854157 -0.1994602
vn 0.5917618 0.2000756 -0.7808891
g GVG_TeleporterButton_mesh_0
f 3/3/3 2/2/2 1/1/1
f 1/1/1 2/2/2 4/4/4
f 4/4/4 2/2/2 5/5/5
f 5/5/5 2/2/2 6/6/6
f 2/2/2 7/7/7 6/6/6
f 7/7/7 2/2/2 8/8/8
f 8/8/8 2/2/2 9/9/9
f 10/10/10 2/2/2 3/3/3
f 11/11/11 2/2/2 10/10/10
f 12/12/12 2/2/2 11/11/11
f 2/2/2 12/12/12 13/13/13
f 9/9/9 2/2/2 14/14/14
f 2/2/2 15/15/15 14/14/14
f 15/15/15 2/2/2 16/16/16
f 16/16/16 2/2/2 17/17/17
f 17/17/17 2/2/2 13/13/13
f 6/6/6 18/18/18 5/5/5
f 6/6/6 19/19/19 18/18/18
f 20/20/20 19/19/19 6/6/6
f 5/5/5 18/18/18 21/21/21
f 5/5/5 21/21/21 4/4/4
f 4/4/4 21/21/21 22/22/22
f 4/4/4 22/22/22 1/1/1
f 1/1/1 22/22/22 23/23/23
f 1/1/1 23/23/23 3/3/3
f 3/3/3 23/23/23 24/24/24
f 3/3/3 24/24/24 10/10/10
f 10/10/10 24/24/24 25/25/25
f 10/10/10 25/25/25 11/11/11
f 11/11/11 25/25/25 26/26/26
f 11/11/11 26/26/26 27/27/27
f 27/27/27 26/26/26 28/28/28
f 31/31/31 30/30/30 29/29/29
f 29/29/29 30/30/30 32/32/32
f 29/29/29 32/32/32 33/33/33
f 31/31/31 34/34/34 30/30/30
f 35/35/35 34/34/34 31/31/31
f 35/35/35 36/36/36 34/34/34
f 37/37/37 36/36/36 35/35/35
f 37/37/37 38/38/38 36/36/36
f 39/39/39 38/38/38 37/37/37
f 33/33/33 32/32/32 40/40/40
f 43/43/43 42/42/42 41/41/41
f 44/44/44 42/42/42 43/43/43
f 44/44/44 45/45/45 42/42/42
f 46/46/46 45/45/45 44/44/44
f 49/49/49 48/48/48 47/47/47
f 47/47/47 48/48/48 50/50/50
