g GVG_TeleporterLever1_mesh
v 1188.397 152.0631 -1009.102
v 1189.12 152.5826 -1007.677
v 1188.683 154.1319 -1010.894
v 1190.057 155.12 -1008.184
v 1186.415 152.2308 -1012.099
v 1187.205 151.0636 -1009.735
v 1184.118 150.143 -1011.338
v 1185.998 149.966 -1009.335
v 1182.671 148.666 -1008.902
v 1185.237 149.1893 -1008.054
v 1182.627 148.3636 -1005.721
v 1185.213 149.0305 -1006.382
v 1184.001 149.3518 -1003.01
v 1185.936 149.55 -1004.957
v 1186.269 151.2527 -1001.806
v 1187.129 150.5494 -1004.324
v 1188.565 153.3405 -1002.567
v 1188.336 151.647 -1004.724
v 1190.012 154.8178 -1005.003
v 1189.096 152.4236 -1006.005
v 1180.005 148.9649 -1009.515
v 1179.943 148.5489 -1005.137
v 1181.835 149.9089 -1001.406
v 1184.957 152.5253 -999.7482
v 1188.118 155.399 -1000.796
v 1190.109 157.4321 -1004.149
v 1190.171 157.8482 -1008.527
v 1188.279 156.4883 -1012.258
v 1185.157 153.8717 -1013.916
v 1181.997 150.998 -1012.868
v 1187.226 158.9015 -1013.059
v 1189.45 160.5003 -1008.673
v 1183.556 155.8256 -1015.008
v 1179.84 152.4474 -1013.776
v 1177.5 150.0573 -1009.834
v 1177.427 149.5681 -1004.688
v 1179.65 151.1669 -1000.302
v 1183.321 154.2428 -998.3531
v 1175.399 151.836 -1009.829
v 1177.861 154.349 -1013.973
v 1181.767 157.9009 -1015.268
v 1175.323 151.3216 -1004.417
v 1177.661 153.0026 -999.8059
v 1181.52 156.2368 -997.7565
v 1176.252 156.5169 -1013.44
v 1179.967 159.8951 -1014.672
v 1173.911 154.1268 -1009.498
v 1173.838 153.6376 -1004.352
v 1176.062 155.2365 -999.9661
v 1173.179 156.7057 -1008.876
v 1175.17 158.7389 -1012.229
v 1173.117 156.2897 -1004.497
v 1187.036 157.6209 -999.5847
v 1185.627 161.1353 -1013.219
v 1190.109 157.4321 -1004.149
v 1188.118 155.399 -1000.796
v 1189.377 160.0111 -1003.527
v 1187.036 157.6209 -999.5847
v 1189.45 160.5003 -1008.673
v 1190.171 157.8482 -1008.527
v 1187.888 162.302 -1003.196
v 1185.427 159.7888 -999.0515
v 1183.321 154.2428 -998.3531
v 1181.52 156.2368 -997.7565
v 1187.965 162.8162 -1008.608
v 1185.627 161.1353 -1013.219
v 1187.226 158.9015 -1013.059
v 1183.637 162.9709 -1012.723
v 1185.861 164.5697 -1008.337
v 1179.967 159.8951 -1014.672
v 1181.767 157.9009 -1015.268
v 1183.447 161.6906 -999.2485
v 1179.732 158.3123 -998.0169
v 1185.788 164.0806 -1003.191
v 1181.453 164.229 -1011.618
v 1183.344 165.589 -1007.888
v 1178.331 161.6125 -1013.276
v 1181.291 163.1397 -1000.157
v 1178.131 160.2662 -999.1089
v 1176.062 155.2365 -999.9661
v 1175.008 157.6496 -1000.767
v 1173.838 153.6376 -1004.352
v 1173.117 156.2897 -1004.497
v 1183.282 165.1729 -1003.51
v 1179.287 164.7862 -1010.014
v 1180.661 165.7742 -1007.304
v 1177.018 162.8852 -1011.219
v 1174.722 160.7973 -1010.458
v 1175.17 158.7389 -1012.229
v 1176.252 156.5169 -1013.44
v 1173.276 159.3201 -1008.022
v 1173.179 156.7057 -1008.876
v 1173.231 159.0178 -1004.841
v 1174.605 160.006 -1002.131
v 1176.873 161.907 -1000.926
v 1179.17 163.9949 -1001.687
v 1180.616 165.4719 -1004.123
v 1174.192 161.7142 -1007.02
v 1174.168 161.5554 -1005.348
v 1174.891 162.0747 -1003.923
v 1176.083 163.0742 -1003.289
v 1177.29 164.1719 -1003.69
v 1178.051 164.9485 -1004.97
v 1178.074 165.1075 -1006.643
v 1177.352 164.5878 -1008.068
v 1176.159 163.5885 -1008.701
v 1174.952 162.4909 -1008.301
v 1175.837 163.6534 -1005.969
v 1177.661 153.0026 -999.8059
v 1187.141 155.5404 -1005.886
v 1186.019 154.7333 -1008.1
v 1207.475 132.5429 -1007.055
v 1206.439 131.798 -1009.099
v 1184.166 153.1805 -1009.084
v 1204.728 130.3645 -1010.007
v 1207.441 132.315 -1004.657
v 1187.105 155.2934 -1003.288
v 1206.35 131.2013 -1002.82
v 1185.923 154.0869 -1001.298
v 1204.619 129.6269 -1002.246
v 1184.047 152.3816 -1000.676
v 1184.166 153.1805 -1009.084
v 1182.29 151.4751 -1008.462
v 1204.728 130.3645 -1010.007
v 1202.997 128.7903 -1009.434
v 1181.108 150.2684 -1006.472
v 1201.906 127.6765 -1007.596
v 1181.072 150.0216 -1003.874
v 1201.872 127.4486 -1005.198
v 1182.194 150.8287 -1001.66
v 1202.908 128.1936 -1003.155
v 1184.047 152.3816 -1000.676
v 1204.619 129.6269 -1002.246
vt 0.122716 0.45999
vt 0.124362 0.462681
vt 0.12402 0.455572
vt 0.127155 0.460694
vt 0.118757 0.453854
vt 0.119951 0.459086
vt 0.113381 0.45619
vt 0.117124 0.460311
vt 0.109943 0.461679
vt 0.115315 0.463196
vt 0.109749 0.468227
vt 0.115212 0.46664
vt 0.11287 0.473342
vt 0.116854 0.469329
vt 0.118122 0.475074
vt 0.119617 0.470237
vt 0.123504 0.472754
vt 0.122445 0.469016
vt 0.126958 0.467261
vt 0.124258 0.46613
vt 0.104652 0.460326
vt 0.104385 0.469339
vt 0.108678 0.476382
vt 0.115906 0.478771
vt 0.123319 0.475579
vt 0.128077 0.468012
vt 0.12835 0.458962
vt 0.124029 0.451906
vt 0.11678 0.449544
vt 0.10938 0.452766
vt 0.122738 0.449353
vt 0.127823 0.457657
vt 0.11421 0.446578
vt 0.10551 0.450373
vt 0.099953 0.459266
vt 0.09964 0.469867
vt 0.104687 0.478151
vt 0.113185 0.480963
vt 0.096304 0.458604
vt 0.102148 0.449244
vt 0.111298 0.445249
vt 0.095975 0.46976
vt 0.101283 0.478477
vt 0.110221 0.481437
vt 0.099622 0.449494
vt 0.108329 0.445692
vt 0.094061 0.458405
vt 0.093749 0.469025
vt 0.0988 0.477323
vt 0.093448 0.458689
vt 0.098183 0.451103
vt 0.093182 0.467734
vt 0.121903 0.477212
vt 0.12027 0.448168
vt 0.128077 0.468012
vt 0.123319 0.475579
vt 0.127502 0.468307
vt 0.121903 0.477212
vt 0.127823 0.457657
vt 0.12835 0.458962
vt 0.125283 0.468117
vt 0.119392 0.477489
vt 0.113185 0.480963
vt 0.110221 0.481437
vt 0.125619 0.456908
vt 0.12027 0.448168
vt 0.122738 0.449353
vt 0.116865 0.448471
vt 0.121954 0.456789
vt 0.108329 0.445692
vt 0.111298 0.445249
vt 0.11603 0.47638
vt 0.107306 0.48014
vt 0.121634 0.467458
vt 0.112854 0.450235
vt 0.117183 0.457315
vt 0.105593 0.447867
vt 0.112147 0.47399
vt 0.104723 0.477194
vt 0.0988 0.477323
vt 0.097483 0.474799
vt 0.093749 0.469025
vt 0.093182 0.467734
vt 0.116911 0.466395
vt 0.108636 0.453289
vt 0.111779 0.458434
vt 0.10336 0.451565
vt 0.097974 0.453914
vt 0.098183 0.451103
vt 0.099622 0.449494
vt 0.09453 0.459431
vt 0.093448 0.458689
vt 0.094336 0.46601
vt 0.097465 0.471148
vt 0.102729 0.472886
vt 0.108122 0.470553
vt 0.111582 0.465033
vt 0.097206 0.460558
vt 0.097104 0.464021
vt 0.098751 0.466724
vt 0.10152 0.467636
vt 0.104356 0.466407
vt 0.106173 0.463505
vt 0.106276 0.460036
vt 0.104625 0.457331
vt 0.101852 0.456423
vt 0.099019 0.457656
vt 0.101218 0.461962
vt 0.101283 0.478477
vt 0.121387 0.465198
vt 0.118827 0.461011
vt 0.154259 0.471426
vt 0.151909 0.467597
vt 0.11453 0.459604
vt 0.147961 0.466307
vt 0.154108 0.476328
vt 0.121226 0.470562
vt 0.151517 0.480425
vt 0.118408 0.475049
vt 0.147477 0.482152
vt 0.114013 0.476943
vt 0.11453 0.459604
vt 0.110139 0.461508
vt 0.147961 0.466307
vt 0.143926 0.468043
vt 0.107331 0.465992
vt 0.141342 0.472139
vt 0.107172 0.471345
vt 0.141194 0.47703
vt 0.109722 0.475527
vt 0.143535 0.480854
vt 0.114013 0.476943
vt 0.147477 0.482152
vn 0.763396 -0.4799079 -0.4323365
vn 0.9025773 -0.3754757 -0.2106473
vn 0.7921551 -0.3411788 -0.5060508
vn 0.9532048 -0.2241969 -0.2028212
vn 0.5326756 -0.5593701 -0.6351076
vn 0.5570008 -0.6555113 -0.5099559
vn 0.2738665 -0.795382 -0.5407075
vn 0.362227 -0.8351936 -0.4138156
vn 0.1146367 -0.9590791 -0.258893
vn 0.2535236 -0.9503244 -0.1805808
vn 0.1157756 -0.9879501 0.1027158
vn 0.2724124 -0.956905 0.1006202
vn 0.2768428 -0.8709585 0.4059427
vn 0.4116096 -0.8524575 0.3223254
vn 0.5363189 -0.6527963 0.5349946
vn 0.6179938 -0.6768467 0.3999527
vn 0.7950945 -0.416774 0.4405952
vn 0.8127638 -0.4971305 0.3037701
vn 0.954336 -0.2530506 0.1587707
vn 0.9214572 -0.3820258 0.07051836
vn -0.1875081 -0.9243134 -0.3323934
vn -0.190127 -0.9677429 0.1653041
vn 0.02828161 -0.809843 0.5859646
vn 0.3843501 -0.5109347 0.7689088
vn 0.7420701 -0.1852005 0.6442304
vn 0.9647667 0.04292526 0.2595817
vn 0.9673935 0.08635083 -0.2381039
vn 0.7489588 -0.07149501 -0.6587481
vn 0.3928874 -0.3703921 -0.8416942
vn 0.03517215 -0.69617 -0.7170148
vn 0.6320533 0.2053904 -0.7472104
vn 0.8866147 0.3888948 -0.2503499
vn 0.21416 -0.1450644 -0.9659668
vn -0.2074638 -0.5286846 -0.8230742
vn -0.4717469 -0.798898 -0.3731178
vn -0.4777566 -0.8525158 0.2120505
vn -0.2231791 -0.6690509 0.7089161
vn 0.1947109 -0.3185661 0.927687
vn -0.7098944 -0.5949184 -0.3769908
vn -0.4300628 -0.3092211 -0.8481913
vn 0.01403887 0.09459862 -0.9954165
vn -0.7185766 -0.653379 0.2382091
vn -0.4527864 -0.4622684 0.7624253
vn -0.0140345 -0.09460086 0.9954163
vn -0.6103814 -0.05932092 -0.7898833
vn -0.1874538 0.3249582 -0.9269645
vn -0.8782434 -0.3324106 -0.34379
vn -0.8887468 -0.3899734 0.2409355
vn -0.6378544 -0.2100438 0.7409611
vn -0.9601268 -0.03743691 -0.2770468
vn -0.7304331 0.1962654 -0.6541768
vn -0.9715289 -0.08849955 0.2197716
vn 0.6163173 0.06505927 0.7848059
vn 0.4527721 0.4623026 -0.7624131
vn 0.9647667 0.04292526 0.2595817
vn 0.7420701 -0.1852005 0.6442304
vn 0.8806048 0.3352886 0.3348382
vn 0.6163173 0.06505927 0.7848059
vn 0.8866147 0.3888948 -0.2503499
vn 0.9673935 0.08635083 -0.2381039
vn 0.7098938 0.5949184 0.3769919
vn 0.4300717 0.3092057 0.8481923
vn 0.1947109 -0.3185661 0.927687
vn -0.0140345 -0.09460086 0.9954163
vn 0.7185581 0.6534018 -0.2382025
vn 0.4527721 0.4623026 -0.7624131
vn 0.6320533 0.2053904 -0.7472104
vn 0.2290031 0.6736666 -0.70266
vn 0.4798865 0.8536034 -0.2026577
vn -0.1874538 0.3249582 -0.9269645
vn 0.01403887 0.09459862 -0.9954165
vn 0.2014884 0.5229841 0.8281848
vn -0.2214199 0.1386828 0.9652669
vn 0.469373 0.7960526 0.3820854
vn -0.01697696 0.8188283 -0.5737874
vn 0.1942632 0.9698734 -0.146994
vn -0.3701869 0.5233287 -0.7675211
vn -0.04680513 0.6850731 0.7269691
vn -0.4070605 0.3580119 0.8403149
vn -0.6378544 -0.2100438 0.7409611
vn -0.7602909 0.06253604 0.6465656
vn -0.8887468 -0.3899734 0.2409355
vn -0.9715289 -0.08849955 0.2197716
vn 0.1828488 0.918785 0.3498578
vn -0.2607729 0.8837047 -0.388669
vn -0.1099189 0.9909729 -0.07675025
vn -0.5161842 0.6703908 -0.5330384
vn -0.7785952 0.4324749 -0.4547032
vn -0.7304331 0.1962654 -0.6541768
vn -0.6103814 -0.05932092 -0.7898833
vn -0.9477589 0.2609046 -0.1835266
vn -0.9601268 -0.03743691 -0.2770468
vn -0.9590632 0.2211711 0.176865
vn -0.8082364 0.3284687 0.4887353
vn -0.5528092 0.5417703 0.6331564
vn -0.2903788 0.7796566 0.5548114
vn -0.1212051 0.9512347 0.2836578
vn -0.8537065 0.5116825 -0.09677891
vn -0.8704314 0.4798541 0.1099515
vn -0.7918988 0.5336785 0.2967886
vn -0.6480933 0.6526108 0.392523
vn -0.4938789 0.7912406 0.3605856
vn -0.3882308 0.8965845 0.213104
vn -0.3714973 0.928412 0.006401974
vn -0.4500481 0.8745683 -0.1805188
vn -0.5938705 0.7556576 -0.2762238
vn -0.7480782 0.6170215 -0.244261
vn -0.660171 0.7485653 0.06184085
vn -0.4527864 -0.4622684 0.7624253
vn 0.7392001 0.6603116 -0.1325583
vn 0.5257478 0.4981292 -0.6895335
vn 0.6954178 0.6322342 -0.3415758
vn 0.3998629 0.3921046 -0.8284707
vn 0.1141841 0.1427042 -0.9831569
vn -0.04559955 -0.0006618223 -0.9989595
vn 0.7279243 0.6277982 0.2756731
vn 0.6728852 0.5672209 0.4748537
vn 0.4850027 0.3805355 0.7873787
vn 0.3521878 0.2544487 0.9006773
vn 0.05950652 -0.0150692 0.9981141
vn -0.1002953 -0.1584524 0.9822595
vn 0.1141841 0.1427042 -0.9831569
vn -0.3381112 -0.2700261 -0.9015357
vn -0.04559955 -0.0006618223 -0.9989595
vn -0.4708803 -0.3960706 -0.7882892
vn -0.6587223 -0.5827197 -0.4759437
vn -0.7137946 -0.6433282 -0.2768145
vn -0.7251719 -0.6759312 0.131312
vn -0.6814644 -0.6479144 0.3403136
vn -0.5118914 -0.513899 0.6883857
vn -0.3860351 -0.4078991 0.8274027
vn -0.1002953 -0.1584524 0.9822595
vn 0.05950652 -0.0150692 0.9981141
g GVG_TeleporterLever1_mesh_0
f 3/3/3 2/2/2 1/1/1
f 4/4/4 2/2/2 3/3/3
f 3/3/3 1/1/1 5/5/5
f 5/5/5 1/1/1 6/6/6
f 5/5/5 6/6/6 7/7/7
f 7/7/7 6/6/6 8/8/8
f 7/7/7 8/8/8 9/9/9
f 9/9/9 8/8/8 10/10/10
f 9/9/9 10/10/10 11/11/11
f 11/11/11 10/10/10 12/12/12
f 11/11/11 12/12/12 13/13/13
f 13/13/13 12/12/12 14/14/14
f 13/13/13 14/14/14 15/15/15
f 15/15/15 14/14/14 16/16/16
f 15/15/15 16/16/16 17/17/17
f 17/17/17 16/16/16 18/18/18
f 17/17/17 18/18/18 19/19/19
f 19/19/19 18/18/18 20/20/20
f 19/19/19 20/20/20 4/4/4
f 4/4/4 20/20/20 2/2/2
f 21/21/21 7/7/7 9/9/9
f 22/22/22 9/9/9 11/11/11
f 21/21/21 9/9/9 22/22/22
f 23/23/23 11/11/11 13/13/13
f 22/22/22 11/11/11 23/23/23
f 24/24/24 13/13/13 15/15/15
f 23/23/23 13/13/13 24/24/24
f 25/25/25 15/15/15 17/17/17
f 24/24/24 15/15/15 25/25/25
f 26/26/26 17/17/17 19/19/19
f 25/25/25 17/17/17 26/26/26
f 27/27/27 19/19/19 4/4/4
f 26/26/26 19/19/19 27/27/27
f 27/27/27 4/4/4 28/28/28
f 28/28/28 4/4/4 3/3/3
f 28/28/28 3/3/3 29/29/29
f 29/29/29 3/3/3 5/5/5
f 29/29/29 5/5/5 30/30/30
f 30/30/30 5/5/5 7/7/7
f 30/30/30 7/7/7 21/21/21
f 31/31/31 27/27/27 28/28/28
f 32/32/32 27/27/27 31/31/31
f 33/33/33 28/28/28 29/29/29
f 31/31/31 28/28/28 33/33/33
f 34/34/34 29/29/29 30/30/30
f 33/33/33 29/29/29 34/34/34
f 34/34/34 30/30/30 35/35/35
f 35/35/35 30/30/30 21/21/21
f 35/35/35 21/21/21 36/36/36
f 36/36/36 21/21/21 22/22/22
f 36/36/36 22/22/22 37/37/37
f 37/37/37 22/22/22 23/23/23
f 37/37/37 23/23/23 38/38/38
f 38/38/38 23/23/23 24/24/24
f 39/39/39 34/34/34 35/35/35
f 40/40/40 34/34/34 39/39/39
f 40/40/40 33/33/33 34/34/34
f 41/41/41 33/33/33 40/40/40
f 41/41/41 31/31/31 33/33/33
f 42/42/42 35/35/35 36/36/36
f 39/39/39 35/35/35 42/42/42
f 43/43/43 36/36/36 37/37/37
f 42/42/42 36/36/36 43/43/43
f 43/43/43 37/37/37 44/44/44
f 44/44/44 37/37/37 38/38/38
f 45/45/45 41/41/41 40/40/40
f 46/46/46 41/41/41 45/45/45
f 47/47/47 40/40/40 39/39/39
f 45/45/45 40/40/40 47/47/47
f 48/48/48 39/39/39 42/42/42
f 47/47/47 39/39/39 48/48/48
f 49/49/49 42/42/42 43/43/43
f 48/48/48 42/42/42 49/49/49
f 50/50/50 45/45/45 47/47/47
f 51/51/51 45/45/45 50/50/50
f 52/52/52 47/47/47 48/48/48
f 50/50/50 47/47/47 52/52/52
f 38/38/38 24/24/24 53/53/53
f 53/53/53 24/24/24 25/25/25
f 54/54/54 31/31/31 41/41/41
f 57/57/57 56/56/56 55/55/55
f 58/58/58 56/56/56 57/57/57
f 57/57/57 55/55/55 59/59/59
f 59/59/59 55/55/55 60/60/60
f 61/61/61 58/58/58 57/57/57
f 62/62/62 58/58/58 61/61/61
f 62/62/62 63/63/63 58/58/58
f 64/64/64 63/63/63 62/62/62
f 65/65/65 57/57/57 59/59/59
f 61/61/61 57/57/57 65/65/65
f 65/65/65 59/59/59 66/66/66
f 66/66/66 59/59/59 67/67/67
f 68/68/68 65/65/65 66/66/66
f 69/69/69 65/65/65 68/68/68
f 69/69/69 61/61/61 65/65/65
f 68/68/68 66/66/66 70/70/70
f 70/70/70 66/66/66 71/71/71
f 72/72/72 64/64/64 62/62/62
f 73/73/73 64/64/64 72/72/72
f 74/74/74 62/62/62 61/61/61
f 72/72/72 62/62/62 74/74/74
f 74/74/74 61/61/61 69/69/69
f 75/75/75 69/69/69 68/68/68
f 76/76/76 69/69/69 75/75/75
f 76/76/76 74/74/74 69/69/69
f 75/75/75 68/68/68 77/77/77
f 77/77/77 68/68/68 70/70/70
f 78/78/78 73/73/73 72/72/72
f 79/79/79 73/73/73 78/78/78
f 79/79/79 80/80/80 73/73/73
f 81/81/81 80/80/80 79/79/79
f 81/81/81 82/82/82 80/80/80
f 83/83/83 82/82/82 81/81/81
f 84/84/84 72/72/72 74/74/74
f 78/78/78 72/72/72 84/84/84
f 84/84/84 74/74/74 76/76/76
f 85/85/85 76/76/76 75/75/75
f 86/86/86 76/76/76 85/85/85
f 86/86/86 84/84/84 76/76/76
f 87/87/87 75/75/75 77/77/77
f 85/85/85 75/75/75 87/87/87
f 87/87/87 77/77/77 88/88/88
f 88/88/88 77/77/77 89/89/89
f 77/77/77 70/70/70 89/89/89
f 89/89/89 70/70/70 90/90/90
f 88/88/88 89/89/89 91/91/91
f 91/91/91 89/89/89 92/92/92
f 93/93/93 92/92/92 83/83/83
f 91/91/91 92/92/92 93/93/93
f 94/94/94 83/83/83 81/81/81
f 93/93/93 83/83/83 94/94/94
f 94/94/94 81/81/81 95/95/95
f 95/95/95 81/81/81 79/79/79
f 95/95/95 79/79/79 96/96/96
f 96/96/96 79/79/79 78/78/78
f 96/96/96 78/78/78 97/97/97
f 97/97/97 78/78/78 84/84/84
f 97/97/97 84/84/84 86/86/86
f 98/98/98 88/88/88 91/91/91
f 99/99/99 91/91/91 93/93/93
f 98/98/98 91/91/91 99/99/99
f 100/100/100 93/93/93 94/94/94
f 99/99/99 93/93/93 100/100/100
f 101/101/101 94/94/94 95/95/95
f 100/100/100 94/94/94 101/101/101
f 102/102/102 95/95/95 96/96/96
f 101/101/101 95/95/95 102/102/102
f 103/103/103 96/96/96 97/97/97
f 102/102/102 96/96/96 103/103/103
f 103/103/103 97/97/97 104/104/104
f 104/104/104 97/97/97 86/86/86
f 104/104/104 86/86/86 105/105/105
f 105/105/105 86/86/86 85/85/85
f 105/105/105 85/85/85 106/106/106
f 106/106/106 85/85/85 87/87/87
f 106/106/106 87/87/87 107/107/107
f 107/107/107 87/87/87 88/88/88
f 107/107/107 88/88/88 98/98/98
f 108/108/108 104/104/104 105/105/105
f 108/108/108 105/105/105 106/106/106
f 108/108/108 106/106/106 107/107/107
f 108/108/108 107/107/107 98/98/98
f 108/108/108 98/98/98 99/99/99
f 108/108/108 99/99/99 100/100/100
f 108/108/108 100/100/100 101/101/101
f 108/108/108 101/101/101 102/102/102
f 108/108/108 102/102/102 103/103/103
f 108/108/108 103/103/103 104/104/104
f 73/73/73 109/109/109 64/64/64
f 80/80/80 109/109/109 73/73/73
f 112/112/112 111/111/111 110/110/110
f 113/113/113 111/111/111 112/112/112
f 113/113/113 114/114/114 111/111/111
f 115/115/115 114/114/114 113/113/113
f 112/112/112 110/110/110 116/116/116
f 116/116/116 110/110/110 117/117/117
f 116/116/116 117/117/117 118/118/118
f 118/118/118 117/117/117 119/119/119
f 118/118/118 119/119/119 120/120/120
f 120/120/120 119/119/119 121/121/121
f 124/124/124 123/123/123 122/122/122
f 125/125/125 123/123/123 124/124/124
f 125/125/125 126/126/126 123/123/123
f 127/127/127 126/126/126 125/125/125
f 127/127/127 128/128/128 126/126/126
f 129/129/129 128/128/128 127/127/127
f 129/129/129 130/130/130 128/128/128
f 131/131/131 130/130/130 129/129/129
f 131/131/131 132/132/132 130/130/130
f 133/133/133 132/132/132 131/131/131
