g GVG_LaserGunCtrlPanel
v 1161.004 173.2208 -187.3313
v 1160.345 174.233 -185.1797
v 1153.044 148.8032 -190.3714
v 1151.965 148.2771 -188.346
v 1181.818 149.5521 -202.2244
v 1190.204 174.0325 -197.491
v 1189.88 175.0219 -195.3858
v 1160.345 174.233 -185.1797
v 1221.432 175.6404 -203.1878
v 1220.995 174.6327 -205.0842
v 1252.495 174.4873 -206.3286
v 1251.472 173.5091 -208.1635
v 1268.045 173.106 -206.1108
v 1267.479 172.1026 -207.982
v 1280.765 172.0979 -202.9971
v 1278.927 171.1848 -205.2115
v 1265.046 143.8074 -111.3945
v 1239.856 143.5342 -105.1434
v 1213.573 143.2491 -98.6212
v 1185.622 142.9459 -91.68501
v 1160.345 174.233 -185.1797
v 1276.682 143.9336 -114.2818
v 1244.513 149.0282 -214.9434
v 1213.206 150.1723 -211.7621
v 1263.148 148.0839 -213.6696
v 1285.197 144.026 -116.3948
v 1280.765 172.0979 -202.9971
v 1275.505 147.4683 -210.8894
v 1277.151 146.9539 -209.0609
v 1160.345 174.233 -185.1797
v 1185.622 142.9459 -91.68501
v 1174.99 117.0025 -96.64354
v 1280.765 172.0979 -202.9971
v 1278.927 171.1848 -205.2115
v 1277.151 146.9539 -209.0609
v 1208.404 165.062 -145.8133
v 1210.804 164.2696 -143.846
v 1204.161 162.7524 -137.4121
v 1205.588 165.6284 -146.9581
v 1202.632 165.9133 -147.1685
v 1199.826 165.8888 -146.4238
v 1197.445 165.5572 -144.7971
v 1195.721 164.9511 -142.4475
v 1194.823 164.1298 -139.6049
v 1194.839 163.1736 -136.5477
v 1195.768 162.1763 -133.575
v 1197.519 161.2353 -130.978
v 1199.919 160.4428 -129.0108
v 1202.735 159.8764 -127.866
v 1205.691 159.5915 -127.6555
v 1208.496 159.616 -128.4001
v 1210.878 159.9476 -130.0269
v 1212.602 160.5537 -132.3766
v 1209.918 155.4115 -127.0158
v 1213.193 155.8674 -129.2529
v 1206.06 155.3778 -125.9919
v 1198.123 156.5484 -127.8555
v 1201.995 155.7695 -126.2813
v 1194.822 157.6382 -130.5608
v 1192.415 158.9322 -134.1321
v 1191.137 160.3037 -138.22
v 1191.115 161.6186 -142.4241
v 1192.35 162.7481 -146.3331
v 1194.72 163.5816 -149.5643
v 1197.995 164.0375 -151.8013
v 1201.854 164.0712 -152.8252
v 1205.918 163.6795 -152.5359
v 1209.791 162.9006 -150.9616
v 1213.092 161.8108 -148.2563
v 1215.499 160.5168 -144.6849
v 1212.555 163.3286 -141.2489
v 1213.484 162.3312 -138.2763
v 1213.5 161.375 -135.2191
v 1215.564 156.701 -132.4841
v 1216.799 157.8304 -136.393
v 1216.776 159.1452 -140.5972
v 1209.791 162.9006 -150.9616
v 1213.948 163.001 -148.6967
v 1213.092 161.8108 -148.2563
v 1210.365 164.1839 -151.6332
v 1216.561 161.5964 -144.82
v 1215.499 160.5168 -144.6849
v 1217.947 160.1075 -140.3827
v 1216.776 159.1452 -140.5972
v 1217.972 158.6802 -135.8192
v 1216.799 157.8304 -136.393
v 1216.631 157.4542 -131.5759
v 1215.564 156.701 -132.4841
v 1214.058 156.5495 -128.0685
v 1213.193 155.8674 -129.2529
v 1210.502 156.0546 -125.6402
v 1209.918 155.4115 -127.0158
v 1206.314 156.018 -124.5288
v 1206.06 155.3778 -125.9919
v 1201.903 156.4432 -124.8429
v 1201.995 155.7695 -126.2813
v 1197.699 157.2887 -126.5519
v 1198.123 156.5484 -127.8555
v 1194.116 158.4716 -129.4883
v 1194.822 157.6382 -130.5608
v 1191.503 159.8763 -133.3649
v 1192.415 158.9322 -134.1321
v 1190.116 161.3651 -137.8023
v 1191.137 160.3037 -138.22
v 1190.092 162.7924 -142.3659
v 1191.115 161.6186 -142.4241
v 1191.432 164.0184 -146.609
v 1192.35 162.7481 -146.3331
v 1194.006 164.9231 -150.1164
v 1194.72 163.5816 -149.5643
v 1197.561 165.418 -152.5447
v 1197.995 164.0375 -151.8013
v 1201.749 165.4547 -153.6562
v 1201.854 164.0712 -152.8252
v 1206.161 165.0294 -153.3422
v 1205.918 163.6795 -152.5359
v 1210.365 164.1839 -151.6332
v 1218.324 159.0726 -151.7145
v 1213.948 163.001 -148.6967
v 1213.578 160.6393 -155.6039
v 1206.161 165.0294 -153.3422
v 1208.01 161.7591 -157.8673
v 1201.749 165.4547 -153.6562
v 1202.167 162.3224 -158.2833
v 1197.561 165.418 -152.5447
v 1196.62 162.2739 -156.8113
v 1194.006 164.9231 -150.1164
v 1191.911 161.6184 -153.595
v 1191.432 164.0184 -146.609
v 1188.502 160.4201 -148.9495
v 1190.092 162.7924 -142.3659
v 1186.727 158.7962 -143.3294
v 1190.116 161.3651 -137.8023
v 1186.76 156.9059 -137.2852
v 1191.503 159.8763 -133.3649
v 1188.596 154.9339 -131.408
v 1194.116 158.4716 -129.4883
v 1192.057 153.0735 -126.2735
v 1197.699 157.2887 -126.5519
v 1196.803 151.5067 -122.3841
v 1201.903 156.4432 -124.8429
v 1202.37 150.3869 -120.1206
v 1206.314 156.018 -124.5288
v 1208.214 149.8237 -119.7046
v 1210.502 156.0546 -125.6402
v 1213.761 149.8722 -121.1767
v 1214.058 156.5495 -128.0685
v 1218.469 150.5276 -124.393
v 1216.631 157.4542 -131.5759
v 1221.878 151.726 -129.0384
v 1217.972 158.6802 -135.8192
v 1223.653 153.3498 -134.6584
v 1217.947 160.1075 -140.3827
v 1223.621 155.2402 -140.7027
v 1216.561 161.5964 -144.82
v 1221.784 157.2121 -146.58
v 1254.056 164.4535 -153.1188
v 1256.457 163.6611 -151.1515
v 1249.814 162.1439 -144.7176
v 1251.24 165.0199 -154.2636
v 1248.285 165.3048 -154.474
v 1245.479 165.2803 -153.7294
v 1243.097 164.9487 -152.1027
v 1241.373 164.3426 -149.753
v 1240.475 163.5213 -146.9104
v 1240.492 162.5651 -143.8532
v 1241.42 161.5677 -140.8805
v 1243.171 160.6268 -138.2836
v 1245.571 159.8343 -136.3163
v 1248.387 159.2679 -135.1715
v 1251.343 158.983 -134.961
v 1254.149 159.0075 -135.7056
v 1256.53 159.3391 -137.3324
v 1258.254 159.9452 -139.6821
v 1243.648 163.429 -159.1068
v 1240.373 162.9731 -156.8698
v 1247.506 163.4627 -160.1308
v 1251.57 163.071 -159.8414
v 1255.443 162.2921 -158.2671
v 1258.744 161.2023 -155.5618
v 1240.474 157.0297 -137.8663
v 1238.067 158.3237 -141.4377
v 1236.79 159.6952 -145.5255
v 1236.767 161.0101 -149.7296
v 1238.002 162.1396 -153.6386
v 1261.151 159.9083 -151.9904
v 1258.207 162.7201 -148.5545
v 1259.136 161.7227 -145.5818
v 1259.152 160.7665 -142.5246
v 1261.216 156.0924 -139.7896
v 1258.845 155.259 -136.5584
v 1255.57 154.803 -134.3213
v 1251.712 154.7693 -133.2974
v 1247.647 155.161 -133.5868
v 1243.775 155.9399 -135.1611
v 1262.451 157.2219 -143.6985
v 1262.428 158.5368 -147.9027
v 1255.443 162.2921 -158.2671
v 1259.6 162.3925 -156.0022
v 1258.744 161.2023 -155.5618
v 1256.017 163.5754 -158.9388
v 1251.57 163.071 -159.8414
v 1251.813 164.4209 -160.6478
v 1247.506 163.4627 -160.1308
v 1247.401 164.8461 -160.9617
v 1243.648 163.429 -159.1068
v 1243.213 164.8095 -159.8503
v 1240.373 162.9731 -156.8698
v 1239.658 164.3147 -157.422
v 1238.002 162.1396 -153.6386
v 1237.085 163.4099 -153.9146
v 1236.767 161.0101 -149.7296
v 1235.744 162.1839 -149.6714
v 1236.79 159.6952 -145.5255
v 1235.769 160.7566 -145.1078
v 1238.067 158.3237 -141.4377
v 1237.155 159.2678 -140.6704
v 1240.474 157.0297 -137.8663
v 1239.768 157.8631 -136.7938
v 1243.775 155.9399 -135.1611
v 1243.351 156.6802 -133.8574
v 1247.647 155.161 -133.5868
v 1247.555 155.8347 -132.1485
v 1251.712 154.7693 -133.2974
v 1251.967 155.4095 -131.8343
v 1255.57 154.803 -134.3213
v 1256.155 155.4461 -132.9457
v 1258.845 155.259 -136.5584
v 1259.71 155.941 -135.374
v 1261.216 156.0924 -139.7896
v 1262.283 156.8457 -138.8815
v 1262.451 157.2219 -143.6985
v 1263.624 158.0717 -143.1247
v 1262.428 158.5368 -147.9027
v 1263.599 159.499 -147.6882
v 1261.151 159.9083 -151.9904
v 1262.213 160.9879 -152.1255
v 1256.017 163.5754 -158.9388
v 1263.976 158.4641 -159.0201
v 1259.6 162.3925 -156.0022
v 1259.23 160.0308 -162.9095
v 1251.813 164.4209 -160.6478
v 1253.663 161.1506 -165.1729
v 1247.401 164.8461 -160.9617
v 1247.819 161.7139 -165.5888
v 1243.213 164.8095 -159.8503
v 1242.272 161.6654 -164.1168
v 1239.658 164.3147 -157.422
v 1237.563 161.0099 -160.9005
v 1237.085 163.4099 -153.9146
v 1234.155 159.8116 -156.255
v 1235.744 162.1839 -149.6714
v 1232.379 158.1877 -150.6349
v 1235.769 160.7566 -145.1078
v 1232.412 156.2974 -144.5907
v 1237.155 159.2678 -140.6704
v 1234.248 154.3254 -138.7135
v 1239.768 157.8631 -136.7938
v 1237.709 152.465 -133.579
v 1243.351 156.6802 -133.8574
v 1242.455 150.8982 -129.6896
v 1247.555 155.8347 -132.1485
v 1248.022 149.7784 -127.4262
v 1251.967 155.4095 -131.8343
v 1253.866 149.2151 -127.0101
v 1256.155 155.4461 -132.9457
v 1259.413 149.2637 -128.4823
v 1259.71 155.941 -135.374
v 1264.122 149.9191 -131.6986
v 1262.283 156.8457 -138.8815
v 1267.53 151.1175 -136.344
v 1263.624 158.0717 -143.1247
v 1269.305 152.7413 -141.9639
v 1263.599 159.499 -147.6882
v 1269.273 154.6317 -148.0083
v 1262.213 160.9879 -152.1255
v 1267.437 156.6036 -153.8855
v 1302.608 101.5086 -129.4041
v 1302.99 106.5583 -125.1747
v 1305.472 116.9129 -143.5648
v 1302.328 97.87131 -135.0371
v 1302.543 96.28841 -141.3412
v 1303.079 96.57494 -147.911
v 1303.579 98.9052 -153.9603
v 1304.359 102.9946 -159.079
v 1305.425 108.2458 -162.1381
v 1276.783 91.82384 -122.8004
v 1277.402 100.0117 -115.9426
v 1302.99 106.5583 -125.1747
v 1278.358 87.60254 -162.6173
v 1277.547 83.82408 -152.8086
v 1276.677 83.35952 -142.1559
v 1276.329 85.92609 -131.9341
v 1303.486 112.727 -122.9921
v 1304.074 119.29 -122.658
v 1304.799 125.6203 -124.3703
v 1305.59 131.0983 -127.9616
v 1306.369 135.1877 -133.0801
v 1307.061 137.4883 -139.2251
v 1307.285 137.8408 -145.7029
v 1307.614 136.0852 -152.0543
v 1307.702 132.4593 -157.5658
v 1307.541 127.3181 -161.6978
v 1306.76 121.1492 -163.5753
v 1305.928 114.6111 -163.7405
v 1305.425 108.2458 -162.1381
v 1306.76 121.1492 -163.5753
v 1305.928 114.6111 -163.7405
v 1278.207 110.014 -112.4036
v 1302.99 106.5583 -125.1747
v 1277.402 100.0117 -115.9426
v 1303.486 112.727 -122.9921
v 1279.16 120.6556 -111.8618
v 1304.074 119.29 -122.658
v 1280.335 130.9201 -114.6383
v 1304.799 125.6203 -124.3703
v 1279.622 94.23331 -170.917
v 1305.425 108.2458 -162.1381
v 1281.351 102.748 -175.8773
v 1305.425 108.2458 -162.1381
v 1305.928 114.6111 -163.7405
v 1281.351 102.748 -175.8773
v 1282.166 113.0691 -178.4755
v 1305.928 114.6111 -163.7405
v 1306.76 121.1492 -163.5753
v 1282.166 113.0691 -178.4755
v 1283.515 123.6702 -178.2077
v 1306.76 121.1492 -163.5753
v 1307.541 127.3181 -161.6978
v 1283.515 123.6702 -178.2077
v 1284.781 133.6729 -175.1633
v 1307.702 132.4593 -157.5658
v 1285.042 142.0091 -168.4634
v 1307.614 136.0852 -152.0543
v 1284.899 147.8884 -159.5268
v 1307.285 137.8408 -145.7029
v 1284.367 150.735 -149.2282
v 1307.061 137.4883 -139.2251
v 1284.003 150.1634 -138.7247
v 1306.369 135.1877 -133.0801
v 1282.882 146.4332 -128.7609
v 1305.59 131.0983 -127.9616
v 1281.618 139.8023 -120.4614
v 1304.799 125.6203 -124.3703
v 1280.335 130.9201 -114.6383
vt 0.200543 0.613464
vt 0.199515 0.618229
vt 0.172079 0.602713
vt 0.169734 0.606638
vt 0.229863 0.576613
vt 0.255991 0.598356
vt 0.255669 0.603011
vt 0.199515 0.618229
vt 0.320595 0.587222
vt 0.319322 0.582995
vt 0.383839 0.580395
vt 0.381351 0.576309
vt 0.41514 0.580381
vt 0.413566 0.576215
vt 0.440769 0.586421
vt 0.436616 0.581582
vt 0.39704 0.762265
vt 0.346 0.774791
vt 0.292759 0.787858
vt 0.236154 0.801751
vt 0.199515 0.618229
vt 0.42062 0.756478
vt 0.357533 0.55454
vt 0.29449 0.561355
vt 0.394921 0.55682
vt 0.437877 0.752242
vt 0.440769 0.586421
vt 0.4197 0.562255
vt 0.422819 0.565792
vt 0.199515 0.618229
vt 0.236154 0.801751
vt 0.206407 0.780893
vt 0.440769 0.586421
vt 0.436616 0.581582
vt 0.422819 0.565792
vt 0.289859 0.700753
vt 0.294449 0.704445
vt 0.280595 0.717274
vt 0.284343 0.69865
vt 0.278442 0.698341
vt 0.272733 0.69986
vt 0.267777 0.703058
vt 0.26406 0.707625
vt 0.261946 0.713114
vt 0.261644 0.718984
vt 0.263187 0.724661
vt 0.266422 0.729584
vt 0.271033 0.73327
vt 0.276563 0.735356
vt 0.282467 0.735643
vt 0.288165 0.734106
vt 0.293103 0.7309
vt 0.296802 0.72634
vt 0.289884 0.735962
vt 0.296701 0.731381
vt 0.281938 0.73823
vt 0.265868 0.735069
vt 0.273652 0.737931
vt 0.259388 0.729919
vt 0.254873 0.723001
vt 0.252773 0.715018
vt 0.253282 0.706783
vt 0.256321 0.699121
vt 0.261555 0.692789
vt 0.268445 0.68839
vt 0.276308 0.686325
vt 0.28439 0.686768
vt 0.291933 0.689659
vt 0.298226 0.694717
vt 0.302675 0.701458
vt 0.297667 0.709361
vt 0.299201 0.71502
vt 0.298902 0.720869
vt 0.30174 0.72496
vt 0.304538 0.717336
vt 0.304853 0.709244
vt 0.291933 0.689659
vt 0.299597 0.694212
vt 0.298226 0.694717
vt 0.292855 0.688879
vt 0.304431 0.701371
vt 0.302675 0.701458
vt 0.306858 0.709691
vt 0.304853 0.709244
vt 0.306606 0.718373
vt 0.304538 0.717336
vt 0.303667 0.72657
vt 0.30174 0.72496
vt 0.298305 0.733476
vt 0.296701 0.731381
vt 0.291024 0.738399
vt 0.289884 0.735962
vt 0.282528 0.740835
vt 0.281938 0.73823
vt 0.273655 0.740516
vt 0.273652 0.737931
vt 0.2653 0.737444
vt 0.265868 0.735069
vt 0.258323 0.731906
vt 0.259388 0.729919
vt 0.253452 0.724452
vt 0.254873 0.723001
vt 0.251196 0.715846
vt 0.252773 0.715018
vt 0.251775 0.706987
vt 0.253282 0.706783
vt 0.255086 0.698797
vt 0.256321 0.699121
vt 0.260719 0.692096
vt 0.261555 0.692789
vt 0.268048 0.687497
vt 0.268445 0.68839
vt 0.276343 0.685366
vt 0.276308 0.686325
vt 0.284861 0.685844
vt 0.28439 0.686768
vt 0.292855 0.688879
vt 0.305466 0.687137
vt 0.299597 0.694212
vt 0.296821 0.680381
vt 0.284861 0.685844
vt 0.286693 0.676535
vt 0.276343 0.685366
vt 0.275895 0.675881
vt 0.268048 0.687497
vt 0.265234 0.678522
vt 0.260719 0.692096
vt 0.25558 0.684392
vt 0.255086 0.698797
vt 0.24791 0.693161
vt 0.251775 0.706987
vt 0.243193 0.704113
vt 0.251196 0.715846
vt 0.24215 0.71615
vt 0.253452 0.724452
vt 0.245049 0.727944
vt 0.258323 0.731906
vt 0.251629 0.73815
vt 0.2653 0.737444
vt 0.261147 0.745627
vt 0.273655 0.740516
vt 0.27251 0.749586
vt 0.282528 0.740835
vt 0.28445 0.749678
vt 0.291024 0.738399
vt 0.295698 0.745993
vt 0.298305 0.733476
vt 0.305127 0.739012
vt 0.303667 0.72657
vt 0.311855 0.72952
vt 0.306606 0.718373
vt 0.315309 0.718508
vt 0.306858 0.709691
vt 0.315262 0.707069
vt 0.304431 0.701371
vt 0.311835 0.696289
vt 0.38314 0.685705
vt 0.387726 0.689476
vt 0.373873 0.702598
vt 0.377608 0.68352
vt 0.371668 0.68314
vt 0.365905 0.684605
vt 0.360885 0.687771
vt 0.357109 0.692329
vt 0.354952 0.697829
vt 0.35463 0.703725
vt 0.356172 0.709434
vt 0.359417 0.714395
vt 0.364036 0.718128
vt 0.369572 0.720274
vt 0.375487 0.720632
vt 0.381208 0.719167
vt 0.386181 0.716021
vt 0.389924 0.711497
vt 0.361544 0.67324
vt 0.354832 0.677584
vt 0.36936 0.671148
vt 0.377549 0.67155
vt 0.385307 0.674448
vt 0.391854 0.679588
vt 0.352563 0.713994
vt 0.34832 0.707026
vt 0.346391 0.699169
vt 0.346912 0.691167
vt 0.349812 0.68375
vt 0.396519 0.686488
vt 0.39092 0.694459
vt 0.392416 0.700165
vt 0.392072 0.706035
vt 0.395455 0.710589
vt 0.390083 0.717038
vt 0.382909 0.721454
vt 0.374721 0.723375
vt 0.366395 0.722641
vt 0.35877 0.719388
vt 0.398459 0.702799
vt 0.398811 0.694485
vt 0.385307 0.674448
vt 0.393717 0.679023
vt 0.391854 0.679588
vt 0.386634 0.673535
vt 0.377549 0.67155
vt 0.378268 0.670542
vt 0.36936 0.671148
vt 0.369546 0.670281
vt 0.361544 0.67324
vt 0.36136 0.67265
vt 0.354832 0.677584
vt 0.354402 0.677295
vt 0.349812 0.68375
vt 0.349148 0.683764
vt 0.346912 0.691167
vt 0.345975 0.691559
vt 0.346391 0.699169
vt 0.345226 0.700071
vt 0.34832 0.707026
vt 0.347108 0.708534
vt 0.352563 0.713994
vt 0.351566 0.716087
vt 0.35877 0.719388
vt 0.358222 0.721914
vt 0.366395 0.722641
vt 0.366424 0.725377
vt 0.374721 0.723375
vt 0.375344 0.726095
vt 0.382909 0.721454
vt 0.384065 0.723975
vt 0.390083 0.717038
vt 0.391689 0.719228
vt 0.395455 0.710589
vt 0.397427 0.712337
vt 0.398459 0.702799
vt 0.400688 0.704006
vt 0.398811 0.694485
vt 0.401137 0.695078
vt 0.396519 0.686488
vt 0.39873 0.686458
vt 0.386634 0.673535
vt 0.401427 0.672103
vt 0.393717 0.679023
vt 0.392128 0.664344
vt 0.378268 0.670542
vt 0.380463 0.660265
vt 0.369546 0.670281
vt 0.368743 0.659882
vt 0.36136 0.67265
vt 0.358921 0.663245
vt 0.354402 0.677295
vt 0.350672 0.668825
vt 0.349148 0.683764
vt 0.343573 0.676671
vt 0.345975 0.691559
vt 0.338661 0.686183
vt 0.345226 0.700071
vt 0.336668 0.696653
vt 0.347108 0.708534
vt 0.338103 0.71014
vt 0.351566 0.716087
vt 0.344658 0.720539
vt 0.358222 0.721914
vt 0.354224 0.729123
vt 0.366424 0.725377
vt 0.36528 0.733305
vt 0.375344 0.726095
vt 0.37695 0.733892
vt 0.384065 0.723975
vt 0.38807 0.731069
vt 0.391689 0.719228
vt 0.396313 0.723908
vt 0.397427 0.712337
vt 0.403725 0.715357
vt 0.400688 0.704006
vt 0.408784 0.705125
vt 0.401137 0.695078
vt 0.410695 0.693175
vt 0.39873 0.686458
vt 0.4089 0.682641
vt 0.457973 0.857674
vt 0.46086 0.868006
vt 0.470219 0.835256
vt 0.455891 0.845134
vt 0.455653 0.83206
vt 0.456835 0.819153
vt 0.458805 0.808003
vt 0.462076 0.799299
vt 0.466423 0.795072
vt 0.402873 0.867071
vt 0.407346 0.883809
vt 0.46086 0.868006
vt 0.404316 0.786907
vt 0.401228 0.804921
vt 0.399334 0.825735
vt 0.399654 0.846819
vt 0.464465 0.874737
vt 0.468442 0.877962
vt 0.472615 0.877009
vt 0.476575 0.871938
vt 0.479924 0.863226
vt 0.482324 0.851727
vt 0.482931 0.838798
vt 0.482823 0.825337
vt 0.481415 0.812907
vt 0.478853 0.802743
vt 0.474615 0.796774
vt 0.470142 0.794126
vt 0.466423 0.795072
vt 0.474615 0.796774
vt 0.470142 0.794126
vt 0.41295 0.894779
vt 0.46086 0.868006
vt 0.407346 0.883809
vt 0.464465 0.874737
vt 0.419161 0.900105
vt 0.468442 0.877962
vt 0.425721 0.898656
vt 0.472615 0.877009
vt 0.409442 0.772787
vt 0.466423 0.795072
vt 0.41628 0.765851
vt 0.466423 0.795072
vt 0.470142 0.794126
vt 0.41628 0.765851
vt 0.42208 0.764186
vt 0.470142 0.794126
vt 0.474615 0.796774
vt 0.42208 0.764186
vt 0.429118 0.768346
vt 0.474615 0.796774
vt 0.478853 0.802743
vt 0.429118 0.768346
vt 0.435807 0.777925
vt 0.481415 0.812907
vt 0.43982 0.794385
vt 0.482823 0.825337
vt 0.442007 0.814597
vt 0.482931 0.838798
vt 0.44213 0.836534
vt 0.482324 0.851727
vt 0.441151 0.857617
vt 0.479924 0.863226
vt 0.437309 0.876346
vt 0.476575 0.871938
vt 0.431982 0.890487
vt 0.472615 0.877009
vt 0.425721 0.898656
vn -0.4255921 0.5786459 -0.69573
vn -0.8144774 0.5145174 -0.2681385
vn -0.7388353 0.3138203 -0.596355
vn -0.9447254 0.3123477 0.09966413
vn -0.3276725 0.2649205 -0.9068891
vn -0.2292683 0.63996 -0.733408
vn -0.03516869 0.999114 -0.02311827
vn -0.5663211 0.7685537 -0.2976671
vn -0.01463812 0.996628 -0.0807366
vn -0.1011679 0.643317 -0.7588863
vn 0.0479716 0.9940036 -0.09826334
vn 0.03168482 0.6120716 -0.7901674
vn 0.09120879 0.989739 -0.1099899
vn 0.1609385 0.6444416 -0.747525
vn 0.3546776 0.834578 -0.4215251
vn 0.4812508 0.2924651 -0.8263546
vn 0.06451198 0.951977 0.2992956
vn 0.06110303 0.9521697 0.2993983
vn 0.06343804 0.9526802 0.2972812
vn 0.07041661 0.9521514 0.2974041
vn -0.05798749 0.9941651 -0.09095659
vn 0.06922414 0.9523743 0.2969702
vn -0.03131309 0.2747778 -0.9609978
vn -0.2018965 0.2969114 -0.9333174
vn 0.1453859 0.2129288 -0.9661906
vn 0.03162105 0.9525576 0.3027112
vn 0.1382536 0.9567522 -0.2559517
vn 0.5120791 0.1294047 -0.8491346
vn 0.7540762 0.04877442 -0.6549734
vn -0.9323795 0.3223178 -0.163645
vn -0.9021168 0.2786202 0.3294783
vn -0.8944197 0.303819 0.328188
vn 0.4290216 0.6512539 -0.6259463
vn 0.4812508 0.2924651 -0.8263546
vn 0.7540762 0.04877442 -0.6549734
vn 0.2932613 0.9553923 -0.03497734
vn 0.3882156 0.9212347 0.02480115
vn 0.0705987 0.952137 0.2974069
vn 0.1815404 0.9810177 -0.06817106
vn 0.05906995 0.995596 -0.07279664
vn -0.0665869 0.9966584 -0.04730858
vn -0.1859363 0.9825263 0.008359781
vn -0.2881645 0.9531705 0.09179917
vn -0.3626135 0.9107236 0.1977217
vn -0.4003435 0.8592642 0.318418
vn -0.3948109 0.8041591 0.4443562
vn -0.3421266 0.7513612 0.5642745
vn -0.2418096 0.7070218 0.6645662
vn -0.09940529 0.6770672 0.7291766
vn 0.06947476 0.6662049 0.7425257
vn 0.2386427 0.6759869 0.6972025
vn 0.3790198 0.7037058 0.600951
vn 0.4712106 0.7435399 0.4744565
vn 0.3967015 0.4052996 0.8236262
vn 0.5915569 0.4611127 0.6613891
vn 0.1473114 0.3743528 0.9155105
vn -0.3464492 0.4100758 0.8436888
vn -0.1144662 0.3755077 0.9197235
vn -0.5218812 0.473572 0.7094854
vn -0.6296953 0.5581655 0.5403102
vn -0.667662 0.6544101 0.3549292
vn -0.6375374 0.7516478 0.1690317
vn -0.5448217 0.8385474 -0.002728514
vn -0.4000263 0.9047461 -0.1463337
vn -0.2189604 0.9431282 -0.2501313
vn -0.02044745 0.951481 -0.3070271
vn 0.1775142 0.9322654 -0.3152298
vn 0.3603991 0.8907558 -0.2768874
vn 0.5175627 0.832916 -0.1959078
vn 0.6406241 0.7640514 -0.07632957
vn 0.460749 0.8807921 0.1091586
vn 0.5044015 0.8360616 0.2158242
vn 0.5109605 0.7892536 0.340585
vn 0.7089083 0.5320589 0.4629928
vn 0.7482418 0.6097789 0.2613505
vn 0.7210691 0.6884705 0.07789557
vn -0.3482397 0.55216 0.7575279
vn -0.4535555 0.5774041 0.6788901
vn -0.4984863 0.5926473 0.6326773
vn -0.2876959 0.5419305 0.789647
vn -0.5702434 0.6272687 0.5304304
vn -0.5971616 0.6467318 0.474485
vn -0.6312577 0.6886794 0.3566993
vn -0.6383222 0.7110861 0.2947904
vn -0.6312019 0.7569286 0.169243
vn -0.6167537 0.7800526 0.1055118
vn -0.5660643 0.8241585 -0.01827192
vn -0.5294722 0.8447009 -0.07835637
vn -0.4363294 0.8798965 -0.1881458
vn -0.3795549 0.8940883 -0.2377901
vn -0.2519448 0.9133418 -0.3198912
vn -0.1810542 0.9182097 -0.3522929
vn -0.03435327 0.9177902 -0.3955768
vn 0.04142364 0.9126874 -0.4065535
vn 0.1884531 0.8939697 -0.4065755
vn 0.2597644 0.8808125 -0.3958431
vn 0.3908587 0.8491653 -0.3551729
vn 0.4508196 0.8311734 -0.325442
vn 0.555153 0.7930248 -0.2508326
vn 0.5997277 0.7732225 -0.2060431
vn 0.6711338 0.7338206 -0.1052939
vn 0.6980592 0.7143386 -0.0493339
vn 0.7325079 0.6771536 0.06996535
vn 0.7399265 0.6593473 0.1333037
vn 0.7337871 0.6264589 0.2628795
vn 0.7199268 0.6111038 0.3290251
vn 0.6704692 0.5836884 0.4580162
vn 0.634472 0.5712948 0.5206415
vn 0.5423825 0.5502528 0.6348568
vn 0.4859854 0.5413136 0.686147
vn 0.3587859 0.5276203 0.7699932
vn 0.2878993 0.5227511 0.8023998
vn 0.140798 0.5176089 0.8439531
vn 0.06462895 0.517451 0.8532687
vn -0.08344985 0.5220256 0.8488376
vn -0.1553674 0.5270074 0.8355382
vn 0.4607029 0.8139818 -0.3538168
vn 0.548235 0.7994239 -0.2456826
vn 0.5812613 0.7917503 -0.1877946
vn 0.405652 0.8200144 -0.4037608
vn 0.2739593 0.8291622 -0.4872745
vn 0.1968045 0.8310683 -0.5201859
vn 0.02724982 0.8289282 -0.5586909
vn -0.06533056 0.8235828 -0.5634211
vn -0.249991 0.8049737 -0.5380723
vn -0.3419239 0.7909371 -0.5074511
vn -0.5052689 0.7567746 -0.4147234
vn -0.5767688 0.7368324 -0.3527263
vn -0.6863713 0.6960032 -0.2108885
vn -0.7251788 0.6759115 -0.1313745
vn -0.7681801 0.6395164 0.03029995
vn -0.7732884 0.6240117 0.1124029
vn -0.7544492 0.5990273 0.2682774
vn -0.7312104 0.5900924 0.3422316
vn -0.6630346 0.5782158 0.4754488
vn -0.6184936 0.5755798 0.5349518
vn -0.5150073 0.5750221 0.6357021
vn -0.4562692 0.5773097 0.6771498
vn -0.3312489 0.5849813 0.7403182
vn -0.265083 0.5905334 0.7622344
vn -0.1315186 0.603225 0.7866526
vn -0.06418061 0.6105445 0.7893771
vn 0.06640549 0.6256847 0.7772445
vn 0.129652 0.6336995 0.7626371
vn 0.2480381 0.6495926 0.7186838
vn 0.303248 0.6576708 0.6895722
vn 0.4028907 0.6734643 0.6197782
vn 0.4474305 0.681359 0.5792717
vn 0.5240167 0.696871 0.4896707
vn 0.5561763 0.7046126 0.4406689
vn 0.6068037 0.7200536 0.3366189
vn 0.625303 0.7278001 0.2816082
vn 0.6473144 0.7435098 0.1678607
vn 0.6507568 0.7514051 0.1091139
vn 0.6409131 0.7675521 -0.00969547
vn 0.6274044 0.7755623 -0.0697637
vn 0.2932606 0.9553926 -0.03497402
vn 0.3882141 0.9212354 0.02480442
vn 0.07059884 0.9521369 0.2974072
vn 0.1815337 0.9810189 -0.06817323
vn 0.05907212 0.9955959 -0.07279736
vn -0.06658648 0.9966586 -0.04730827
vn -0.1859401 0.9825255 0.008361964
vn -0.2881554 0.9531736 0.09179617
vn -0.3626179 0.9107208 0.197727
vn -0.4003407 0.859267 0.3184139
vn -0.3948074 0.8041636 0.4443511
vn -0.3421244 0.7513602 0.5642771
vn -0.241805 0.7070232 0.6645665
vn -0.09940334 0.6770684 0.7291759
vn 0.06947713 0.666205 0.7425253
vn 0.2386392 0.6759877 0.6972029
vn 0.3790177 0.7037095 0.6009482
vn 0.4712067 0.7435433 0.4744551
vn -0.2189662 0.9431276 -0.2501283
vn -0.4000233 0.9047473 -0.146334
vn -0.02044203 0.9514805 -0.3070292
vn 0.1775108 0.9322658 -0.3152305
vn 0.3603917 0.8907575 -0.2768914
vn 0.5175648 0.8329169 -0.1958983
vn -0.5218753 0.473573 0.7094892
vn -0.6296954 0.5581655 0.5403102
vn -0.6676537 0.654425 0.3549176
vn -0.6375444 0.7516408 0.1690366
vn -0.5448165 0.8385509 -0.002730686
vn 0.6406177 0.7640563 -0.07633404
vn 0.4607447 0.8807942 0.1091606
vn 0.5044003 0.8360611 0.2158294
vn 0.5109624 0.7892542 0.3405808
vn 0.7089043 0.5320632 0.4629939
vn 0.5915596 0.4611202 0.6613814
vn 0.3966922 0.4053035 0.8236287
vn 0.1473127 0.3743532 0.9155101
vn -0.1144649 0.3755081 0.9197235
vn -0.3464443 0.4100809 0.8436883
vn 0.7482468 0.6097762 0.2613422
vn 0.7210645 0.6884733 0.07791289
vn -0.348237 0.5521596 0.7575294
vn -0.4535587 0.5774054 0.6788871
vn -0.4985008 0.592634 0.6326784
vn -0.2876902 0.5419323 0.7896479
vn -0.1553631 0.5270112 0.8355366
vn -0.08344863 0.5220284 0.8488361
vn 0.06462583 0.5174552 0.8532664
vn 0.140797 0.5176107 0.8439522
vn 0.2879018 0.5227548 0.8023964
vn 0.3587938 0.5276199 0.7699898
vn 0.4859887 0.5413104 0.6861472
vn 0.5423896 0.5502386 0.6348631
vn 0.6344908 0.5712712 0.5206442
vn 0.6704899 0.5836672 0.4580129
vn 0.7199374 0.6110917 0.3290244
vn 0.7337846 0.6264567 0.2628919
vn 0.7399261 0.6593451 0.1333171
vn 0.7325088 0.677152 0.0699714
vn 0.6980592 0.7143386 -0.04933389
vn 0.6711403 0.7338126 -0.1053079
vn 0.5997395 0.7732069 -0.2060671
vn 0.5551677 0.7930077 -0.2508536
vn 0.450826 0.8311669 -0.3254496
vn 0.3908568 0.8491692 -0.3551657
vn 0.2597601 0.8808161 -0.395838
vn 0.1884529 0.8939717 -0.406571
vn 0.04142659 0.9126868 -0.4065547
vn -0.03434993 0.9177902 -0.3955772
vn -0.1810522 0.9182109 -0.3522911
vn -0.2519485 0.913341 -0.3198909
vn -0.379565 0.8940819 -0.2377979
vn -0.4363469 0.879884 -0.1881635
vn -0.5295004 0.8446816 -0.07837273
vn -0.566074 0.8241518 -0.01827874
vn -0.6167408 0.7800629 0.1055117
vn -0.6311732 0.7569523 0.1692441
vn -0.6383051 0.7111025 0.2947876
vn -0.6312678 0.6886683 0.3567028
vn -0.5971851 0.6467048 0.4744923
vn -0.5702706 0.6272396 0.5304356
vn 0.4606995 0.81398 -0.3538257
vn 0.5482332 0.7994236 -0.2456871
vn 0.5812598 0.7917535 -0.1877858
vn 0.4056499 0.8200125 -0.4037669
vn 0.2739587 0.8291622 -0.4872747
vn 0.1968057 0.8310704 -0.5201823
vn 0.02724996 0.828928 -0.5586911
vn -0.06533117 0.8235805 -0.5634243
vn -0.2499969 0.8049679 -0.5380781
vn -0.3419262 0.7909333 -0.5074553
vn -0.5052693 0.7567751 -0.4147221
vn -0.5767655 0.7368382 -0.3527195
vn -0.68637 0.6960067 -0.210881
vn -0.7251787 0.6759125 -0.1313699
vn -0.7681786 0.6395185 0.03029393
vn -0.773289 0.6240129 0.1123917
vn -0.7544512 0.5990298 0.2682661
vn -0.7312132 0.5900895 0.3422307
vn -0.6630349 0.5782087 0.4754572
vn -0.6184941 0.5755753 0.5349562
vn -0.5150087 0.5750237 0.6356995
vn -0.4562703 0.5773137 0.6771457
vn -0.3312499 0.5849809 0.7403181
vn -0.2650826 0.5905291 0.7622379
vn -0.1315194 0.6032225 0.7866545
vn -0.06418054 0.6105431 0.7893782
vn 0.0664036 0.625684 0.7772452
vn 0.1296496 0.6336981 0.7626386
vn 0.2480404 0.6495906 0.718685
vn 0.3032497 0.6576694 0.6895728
vn 0.402891 0.6734658 0.6197765
vn 0.4474247 0.6813642 0.5792702
vn 0.5240076 0.6968762 0.489673
vn 0.5561686 0.7046162 0.4406729
vn 0.6067981 0.7200556 0.3366242
vn 0.625303 0.7278001 0.2816082
vn 0.6473148 0.7435107 0.1678549
vn 0.6507541 0.751408 0.1091105
vn 0.6409084 0.7675562 -0.009690982
vn 0.6273998 0.7755669 -0.06975297
vn 0.7306445 -0.5155742 0.4475957
vn 0.8970214 -0.3154226 0.3096147
vn 0.9922267 -0.1090468 0.05995777
vn 0.733344 -0.6121736 0.2957195
vn 0.7417014 -0.6565561 0.1371617
vn 0.7572094 -0.6519194 -0.04043531
vn 0.7714378 -0.5964227 -0.2217285
vn 0.7863862 -0.5050441 -0.3557065
vn 0.8592929 -0.3559792 -0.3672798
vn 0.4128177 -0.7238012 0.5528954
vn 0.404487 -0.5210946 0.7515655
vn 0.7324775 -0.3479978 0.5851277
vn 0.4878781 -0.7605748 -0.4283699
vn 0.4676465 -0.8630048 -0.1911264
vn 0.4438567 -0.8928082 0.07671151
vn 0.4268916 -0.8464983 0.318126
vn 0.9921694 -0.09944577 0.07556721
vn 0.9927013 -0.09285644 0.07695269
vn 0.9927004 -0.09285951 0.07696114
vn 0.9926971 -0.09288478 0.07697321
vn 0.9926987 -0.09287804 0.07695999
vn 0.9946778 -0.08807173 0.0534738
vn 0.9953827 -0.08095608 0.05156809
vn 0.9942942 -0.07960392 0.07100853
vn 0.9943585 -0.08211289 0.06714635
vn 0.9926763 -0.1098898 0.05017965
vn 0.8773575 -0.1024233 -0.4687785
vn 0.8159821 -0.1689382 -0.5528409
vn 0.8075168 -0.3414854 -0.4809411
vn 0.9906634 -0.1315239 0.03588313
vn 0.8709304 -0.1985806 -0.4494951
vn 0.3967521 -0.2522065 0.8825982
vn 0.4017185 -0.4297556 0.8086609
vn 0.404487 -0.5210946 0.7515655
vn 0.3961148 -0.1673198 0.9028273
vn 0.3980988 0.01108626 0.9172755
vn 0.4002532 0.1047045 0.9104034
vn 0.4070539 0.2859554 0.8674887
vn 0.4116252 0.373551 0.8312788
vn 0.5094332 -0.5823178 -0.6335486
vn 0.8075168 -0.3414854 -0.4809411
vn 0.5235479 -0.3368624 -0.7825736
vn 0.7062364 -0.3703386 -0.6033898
vn 0.8159821 -0.1689382 -0.5528409
vn 0.5235479 -0.3368624 -0.7825736
vn 0.5289154 -0.1133217 -0.8410747
vn 0.7133937 -0.1694001 -0.6799802
vn 0.7210999 -0.01263611 -0.6927158
vn 0.5289154 -0.1133217 -0.8410747
vn 0.5379533 0.1069353 -0.8361645
vn 0.5348409 0.03041488 -0.8444052
vn 0.5463586 0.298764 -0.7824528
vn 0.5379533 0.1069353 -0.8361645
vn 0.5464283 0.4123006 -0.7289886
vn 0.538176 0.588928 -0.6029348
vn 0.5333889 0.655422 -0.5347134
vn 0.5218815 0.7635609 -0.380282
vn 0.5151 0.8051246 -0.2940178
vn 0.5005701 0.8577802 -0.1168023
vn 0.4932104 0.8695211 -0.02600908
vn 0.4779782 0.8630528 0.1633306
vn 0.4692866 0.8433558 0.2617655
vn 0.452162 0.7744417 0.4424812
vn 0.4441423 0.7259635 0.5250853
vn 0.4294728 0.6053518 0.6701509
vn 0.4228634 0.5332807 0.7326651
vn 0.4116252 0.373551 0.8312788
vn 0.4070539 0.2859554 0.8674887
g GVG_LaserGunCtrlPanel_0
f 3/3/3 2/2/2 1/1/1
f 4/4/4 2/2/2 3/3/3
f 3/3/3 1/1/1 5/5/5
f 5/5/5 1/1/1 6/6/6
f 6/6/6 1/1/1 7/7/7
f 7/7/7 1/1/1 8/8/8
f 9/9/9 6/6/6 7/7/7
f 10/10/10 6/6/6 9/9/9
f 11/11/11 10/10/10 9/9/9
f 12/12/12 10/10/10 11/11/11
f 13/13/13 12/12/12 11/11/11
f 14/14/14 12/12/12 13/13/13
f 15/15/15 14/14/14 13/13/13
f 16/16/16 14/14/14 15/15/15
f 11/11/11 9/9/9 17/17/17
f 17/17/17 9/9/9 18/18/18
f 9/9/9 7/7/7 18/18/18
f 18/18/18 7/7/7 19/19/19
f 7/7/7 20/20/20 19/19/19
f 21/21/21 20/20/20 7/7/7
f 22/22/22 11/11/11 17/17/17
f 13/13/13 11/11/11 22/22/22
f 23/23/23 10/10/10 12/12/12
f 24/24/24 10/10/10 23/23/23
f 25/25/25 12/12/12 14/14/14
f 23/23/23 12/12/12 25/25/25
f 16/16/16 25/25/25 14/14/14
f 26/26/26 13/13/13 22/22/22
f 27/27/27 13/13/13 26/26/26
f 28/28/28 25/25/25 16/16/16
f 28/28/28 16/16/16 29/29/29
f 24/24/24 6/6/6 10/10/10
f 5/5/5 6/6/6 24/24/24
f 4/4/4 31/31/31 30/30/30
f 32/32/32 31/31/31 4/4/4
f 35/35/35 34/34/34 33/33/33
f 38/38/38 37/37/37 36/36/36
f 38/38/38 36/36/36 39/39/39
f 38/38/38 39/39/39 40/40/40
f 38/38/38 40/40/40 41/41/41
f 38/38/38 41/41/41 42/42/42
f 38/38/38 42/42/42 43/43/43
f 38/38/38 43/43/43 44/44/44
f 38/38/38 44/44/44 45/45/45
f 38/38/38 45/45/45 46/46/46
f 38/38/38 46/46/46 47/47/47
f 38/38/38 47/47/47 48/48/48
f 38/38/38 48/48/48 49/49/49
f 38/38/38 49/49/49 50/50/50
f 38/38/38 50/50/50 51/51/51
f 38/38/38 51/51/51 52/52/52
f 38/38/38 52/52/52 53/53/53
f 51/51/51 54/54/54 52/52/52
f 52/52/52 54/54/54 55/55/55
f 52/52/52 55/55/55 53/53/53
f 51/51/51 56/56/56 54/54/54
f 50/50/50 56/56/56 51/51/51
f 48/48/48 57/57/57 49/49/49
f 49/49/49 57/57/57 58/58/58
f 49/49/49 58/58/58 50/50/50
f 50/50/50 58/58/58 56/56/56
f 48/48/48 59/59/59 57/57/57
f 47/47/47 59/59/59 48/48/48
f 47/47/47 60/60/60 59/59/59
f 46/46/46 60/60/60 47/47/47
f 46/46/46 61/61/61 60/60/60
f 45/45/45 61/61/61 46/46/46
f 45/45/45 62/62/62 61/61/61
f 44/44/44 62/62/62 45/45/45
f 44/44/44 63/63/63 62/62/62
f 43/43/43 63/63/63 44/44/44
f 43/43/43 64/64/64 63/63/63
f 42/42/42 64/64/64 43/43/43
f 42/42/42 65/65/65 64/64/64
f 41/41/41 65/65/65 42/42/42
f 41/41/41 66/66/66 65/65/65
f 40/40/40 66/66/66 41/41/41
f 40/40/40 67/67/67 66/66/66
f 39/39/39 67/67/67 40/40/40
f 39/39/39 68/68/68 67/67/67
f 36/36/36 68/68/68 39/39/39
f 36/36/36 69/69/69 68/68/68
f 37/37/37 69/69/69 36/36/36
f 37/37/37 70/70/70 69/69/69
f 71/71/71 70/70/70 37/37/37
f 38/38/38 71/71/71 37/37/37
f 38/38/38 72/72/72 71/71/71
f 38/38/38 73/73/73 72/72/72
f 38/38/38 53/53/53 73/73/73
f 53/53/53 74/74/74 73/73/73
f 53/53/53 55/55/55 74/74/74
f 73/73/73 74/74/74 75/75/75
f 73/73/73 75/75/75 72/72/72
f 72/72/72 75/75/75 76/76/76
f 72/72/72 76/76/76 71/71/71
f 71/71/71 76/76/76 70/70/70
f 79/79/79 78/78/78 77/77/77
f 77/77/77 78/78/78 80/80/80
f 79/79/79 81/81/81 78/78/78
f 82/82/82 81/81/81 79/79/79
f 82/82/82 83/83/83 81/81/81
f 84/84/84 83/83/83 82/82/82
f 84/84/84 85/85/85 83/83/83
f 86/86/86 85/85/85 84/84/84
f 86/86/86 87/87/87 85/85/85
f 88/88/88 87/87/87 86/86/86
f 88/88/88 89/89/89 87/87/87
f 90/90/90 89/89/89 88/88/88
f 90/90/90 91/91/91 89/89/89
f 92/92/92 91/91/91 90/90/90
f 92/92/92 93/93/93 91/91/91
f 94/94/94 93/93/93 92/92/92
f 94/94/94 95/95/95 93/93/93
f 96/96/96 95/95/95 94/94/94
f 96/96/96 97/97/97 95/95/95
f 98/98/98 97/97/97 96/96/96
f 98/98/98 99/99/99 97/97/97
f 100/100/100 99/99/99 98/98/98
f 100/100/100 101/101/101 99/99/99
f 102/102/102 101/101/101 100/100/100
f 102/102/102 103/103/103 101/101/101
f 104/104/104 103/103/103 102/102/102
f 104/104/104 105/105/105 103/103/103
f 106/106/106 105/105/105 104/104/104
f 106/106/106 107/107/107 105/105/105
f 108/108/108 107/107/107 106/106/106
f 108/108/108 109/109/109 107/107/107
f 110/110/110 109/109/109 108/108/108
f 110/110/110 111/111/111 109/109/109
f 112/112/112 111/111/111 110/110/110
f 112/112/112 113/113/113 111/111/111
f 114/114/114 113/113/113 112/112/112
f 114/114/114 115/115/115 113/113/113
f 116/116/116 115/115/115 114/114/114
f 116/116/116 80/80/80 115/115/115
f 77/77/77 80/80/80 116/116/116
f 119/119/119 118/118/118 117/117/117
f 117/117/117 118/118/118 120/120/120
f 117/117/117 120/120/120 121/121/121
f 121/121/121 120/120/120 122/122/122
f 121/121/121 122/122/122 123/123/123
f 123/123/123 122/122/122 124/124/124
f 123/123/123 124/124/124 125/125/125
f 125/125/125 124/124/124 126/126/126
f 125/125/125 126/126/126 127/127/127
f 127/127/127 126/126/126 128/128/128
f 127/127/127 128/128/128 129/129/129
f 129/129/129 128/128/128 130/130/130
f 129/129/129 130/130/130 131/131/131
f 131/131/131 130/130/130 132/132/132
f 131/131/131 132/132/132 133/133/133
f 133/133/133 132/132/132 134/134/134
f 133/133/133 134/134/134 135/135/135
f 135/135/135 134/134/134 136/136/136
f 135/135/135 136/136/136 137/137/137
f 137/137/137 136/136/136 138/138/138
f 137/137/137 138/138/138 139/139/139
f 139/139/139 138/138/138 140/140/140
f 139/139/139 140/140/140 141/141/141
f 141/141/141 140/140/140 142/142/142
f 141/141/141 142/142/142 143/143/143
f 143/143/143 142/142/142 144/144/144
f 143/143/143 144/144/144 145/145/145
f 145/145/145 144/144/144 146/146/146
f 145/145/145 146/146/146 147/147/147
f 147/147/147 146/146/146 148/148/148
f 147/147/147 148/148/148 149/149/149
f 149/149/149 148/148/148 150/150/150
f 149/149/149 150/150/150 151/151/151
f 151/151/151 150/150/150 152/152/152
f 151/151/151 152/152/152 153/153/153
f 153/153/153 152/152/152 154/154/154
f 153/153/153 154/154/154 155/155/155
f 155/155/155 154/154/154 156/156/156
f 155/155/155 156/156/156 119/119/119
f 119/119/119 156/156/156 118/118/118
f 159/159/159 158/158/158 157/157/157
f 159/159/159 157/157/157 160/160/160
f 159/159/159 160/160/160 161/161/161
f 159/159/159 161/161/161 162/162/162
f 159/159/159 162/162/162 163/163/163
f 159/159/159 163/163/163 164/164/164
f 159/159/159 164/164/164 165/165/165
f 159/159/159 165/165/165 166/166/166
f 159/159/159 166/166/166 167/167/167
f 159/159/159 167/167/167 168/168/168
f 159/159/159 168/168/168 169/169/169
f 159/159/159 169/169/169 170/170/170
f 159/159/159 170/170/170 171/171/171
f 159/159/159 171/171/171 172/172/172
f 159/159/159 172/172/172 173/173/173
f 159/159/159 173/173/173 174/174/174
f 162/162/162 175/175/175 163/163/163
f 163/163/163 175/175/175 176/176/176
f 163/163/163 176/176/176 164/164/164
f 162/162/162 177/177/177 175/175/175
f 161/161/161 177/177/177 162/162/162
f 161/161/161 178/178/178 177/177/177
f 160/160/160 178/178/178 161/161/161
f 160/160/160 179/179/179 178/178/178
f 157/157/157 179/179/179 160/160/160
f 157/157/157 180/180/180 179/179/179
f 168/168/168 181/181/181 169/169/169
f 168/168/168 182/182/182 181/181/181
f 167/167/167 182/182/182 168/168/168
f 167/167/167 183/183/183 182/182/182
f 166/166/166 183/183/183 167/167/167
f 166/166/166 184/184/184 183/183/183
f 165/165/165 184/184/184 166/166/166
f 165/165/165 185/185/185 184/184/184
f 164/164/164 185/185/185 165/165/165
f 164/164/164 176/176/176 185/185/185
f 158/158/158 180/180/180 157/157/157
f 158/158/158 186/186/186 180/180/180
f 187/187/187 186/186/186 158/158/158
f 159/159/159 187/187/187 158/158/158
f 159/159/159 188/188/188 187/187/187
f 159/159/159 189/189/189 188/188/188
f 159/159/159 174/174/174 189/189/189
f 174/174/174 190/190/190 189/189/189
f 174/174/174 191/191/191 190/190/190
f 173/173/173 191/191/191 174/174/174
f 173/173/173 192/192/192 191/191/191
f 172/172/172 192/192/192 173/173/173
f 172/172/172 193/193/193 192/192/192
f 171/171/171 193/193/193 172/172/172
f 171/171/171 194/194/194 193/193/193
f 170/170/170 194/194/194 171/171/171
f 170/170/170 195/195/195 194/194/194
f 169/169/169 195/195/195 170/170/170
f 169/169/169 181/181/181 195/195/195
f 189/189/189 190/190/190 196/196/196
f 189/189/189 196/196/196 188/188/188
f 188/188/188 196/196/196 197/197/197
f 188/188/188 197/197/197 187/187/187
f 187/187/187 197/197/197 186/186/186
f 200/200/200 199/199/199 198/198/198
f 198/198/198 199/199/199 201/201/201
f 198/198/198 201/201/201 202/202/202
f 202/202/202 201/201/201 203/203/203
f 202/202/202 203/203/203 204/204/204
f 204/204/204 203/203/203 205/205/205
f 204/204/204 205/205/205 206/206/206
f 206/206/206 205/205/205 207/207/207
f 206/206/206 207/207/207 208/208/208
f 208/208/208 207/207/207 209/209/209
f 208/208/208 209/209/209 210/210/210
f 210/210/210 209/209/209 211/211/211
f 210/210/210 211/211/211 212/212/212
f 212/212/212 211/211/211 213/213/213
f 212/212/212 213/213/213 214/214/214
f 214/214/214 213/213/213 215/215/215
f 214/214/214 215/215/215 216/216/216
f 216/216/216 215/215/215 217/217/217
f 216/216/216 217/217/217 218/218/218
f 218/218/218 217/217/217 219/219/219
f 218/218/218 219/219/219 220/220/220
f 220/220/220 219/219/219 221/221/221
f 220/220/220 221/221/221 222/222/222
f 222/222/222 221/221/221 223/223/223
f 222/222/222 223/223/223 224/224/224
f 224/224/224 223/223/223 225/225/225
f 224/224/224 225/225/225 226/226/226
f 226/226/226 225/225/225 227/227/227
f 226/226/226 227/227/227 228/228/228
f 228/228/228 227/227/227 229/229/229
f 228/228/228 229/229/229 230/230/230
f 230/230/230 229/229/229 231/231/231
f 230/230/230 231/231/231 232/232/232
f 232/232/232 231/231/231 233/233/233
f 232/232/232 233/233/233 234/234/234
f 234/234/234 233/233/233 235/235/235
f 234/234/234 235/235/235 236/236/236
f 236/236/236 235/235/235 237/237/237
f 236/236/236 237/237/237 200/200/200
f 200/200/200 237/237/237 199/199/199
f 240/240/240 239/239/239 238/238/238
f 238/238/238 239/239/239 241/241/241
f 238/238/238 241/241/241 242/242/242
f 242/242/242 241/241/241 243/243/243
f 242/242/242 243/243/243 244/244/244
f 244/244/244 243/243/243 245/245/245
f 244/244/244 245/245/245 246/246/246
f 246/246/246 245/245/245 247/247/247
f 246/246/246 247/247/247 248/248/248
f 248/248/248 247/247/247 249/249/249
f 248/248/248 249/249/249 250/250/250
f 250/250/250 249/249/249 251/251/251
f 250/250/250 251/251/251 252/252/252
f 252/252/252 251/251/251 253/253/253
f 252/252/252 253/253/253 254/254/254
f 254/254/254 253/253/253 255/255/255
f 254/254/254 255/255/255 256/256/256
f 256/256/256 255/255/255 257/257/257
f 256/256/256 257/257/257 258/258/258
f 258/258/258 257/257/257 259/259/259
f 258/258/258 259/259/259 260/260/260
f 260/260/260 259/259/259 261/261/261
f 260/260/260 261/261/261 262/262/262
f 262/262/262 261/261/261 263/263/263
f 262/262/262 263/263/263 264/264/264
f 264/264/264 263/263/263 265/265/265
f 264/264/264 265/265/265 266/266/266
f 266/266/266 265/265/265 267/267/267
f 266/266/266 267/267/267 268/268/268
f 268/268/268 267/267/267 269/269/269
f 268/268/268 269/269/269 270/270/270
f 270/270/270 269/269/269 271/271/271
f 270/270/270 271/271/271 272/272/272
f 272/272/272 271/271/271 273/273/273
f 272/272/272 273/273/273 274/274/274
f 274/274/274 273/273/273 275/275/275
f 274/274/274 275/275/275 276/276/276
f 276/276/276 275/275/275 277/277/277
f 276/276/276 277/277/277 240/240/240
f 240/240/240 277/277/277 239/239/239
f 280/280/280 279/279/279 278/278/278
f 280/280/280 278/278/278 281/281/281
f 280/280/280 281/281/281 282/282/282
f 280/280/280 282/282/282 283/283/283
f 280/280/280 283/283/283 284/284/284
f 280/280/280 284/284/284 285/285/285
f 280/280/280 285/285/285 286/286/286
f 287/287/287 281/281/281 278/278/278
f 287/287/287 278/278/278 288/288/288
f 288/288/288 278/278/278 289/289/289
f 290/290/290 285/285/285 284/284/284
f 290/290/290 284/284/284 291/291/291
f 291/291/291 284/284/284 283/283/283
f 291/291/291 283/283/283 292/292/292
f 292/292/292 283/283/283 282/282/282
f 292/292/292 282/282/282 293/293/293
f 293/293/293 281/281/281 287/287/287
f 293/293/293 282/282/282 281/281/281
f 280/280/280 294/294/294 279/279/279
f 280/280/280 295/295/295 294/294/294
f 280/280/280 296/296/296 295/295/295
f 280/280/280 297/297/297 296/296/296
f 280/280/280 298/298/298 297/297/297
f 280/280/280 299/299/299 298/298/298
f 280/280/280 300/300/300 299/299/299
f 280/280/280 301/301/301 300/300/300
f 280/280/280 302/302/302 301/301/301
f 280/280/280 303/303/303 302/302/302
f 280/280/280 304/304/304 303/303/303
f 280/280/280 306/306/306 305/305/305
f 280/280/280 308/308/308 307/307/307
f 311/311/311 310/310/310 309/309/309
f 309/309/309 310/310/310 312/312/312
f 309/309/309 312/312/312 313/313/313
f 313/313/313 312/312/312 314/314/314
f 313/313/313 314/314/314 315/315/315
f 315/315/315 314/314/314 316/316/316
f 317/317/317 285/285/285 290/290/290
f 317/317/317 318/318/318 285/285/285
f 319/319/319 318/318/318 317/317/317
f 322/322/322 321/321/321 320/320/320
f 323/323/323 321/321/321 322/322/322
f 326/326/326 325/325/325 324/324/324
f 327/327/327 325/325/325 326/326/326
f 330/330/330 329/329/329 328/328/328
f 331/331/331 329/329/329 330/330/330
f 331/331/331 332/332/332 329/329/329
f 333/333/333 332/332/332 331/331/331
f 333/333/333 334/334/334 332/332/332
f 335/335/335 334/334/334 333/333/333
f 335/335/335 336/336/336 334/334/334
f 337/337/337 336/336/336 335/335/335
f 337/337/337 338/338/338 336/336/336
f 339/339/339 338/338/338 337/337/337
f 339/339/339 340/340/340 338/338/338
f 341/341/341 340/340/340 339/339/339
f 341/341/341 342/342/342 340/340/340
f 343/343/343 342/342/342 341/341/341
f 343/343/343 344/344/344 342/342/342
f 345/345/345 344/344/344 343/343/343
