g GVG_LaserGunTip_mesh
v 1292.891 180.1469 -338.2845
v 1293.347 178.4555 -339.1261
v 1318.697 176.2322 -316.4151
v 1319.502 173.6727 -317.4716
v 1317.327 178.2635 -314.8945
v 1292.029 181.4815 -337.1657
v 1315.526 179.5677 -313.0587
v 1290.845 182.3288 -335.8792
v 1313.47 180.017 -311.0876
v 1289.454 182.6059 -334.5508
v 1311.36 179.5676 -309.1739
v 1287.992 182.2855 -333.3107
v 1309.403 178.2635 -307.5051
v 1286.604 181.399 -332.2802
v 1307.79 176.2322 -306.2445
v 1285.424 180.0333 -331.5603
v 1306.68 173.6727 -305.5154
v 1284.568 178.3219 -331.2213
v 1306.181 170.8354 -305.3893
v 1284.12 176.4325 -331.2964
v 1284.123 174.55 -331.7784
v 1284.12 176.4325 -331.2964
v 1306.342 167.9981 -305.8785
v 1306.181 170.8354 -305.3893
v 1307.146 165.4386 -306.9351
v 1284.579 172.8586 -332.62
v 1308.516 163.4073 -308.4557
v 1285.441 171.5239 -333.7388
v 1310.318 162.1031 -310.2914
v 1286.625 170.6766 -335.0253
v 1312.374 161.6538 -312.2625
v 1288.016 170.3996 -336.3536
v 1314.484 162.1032 -314.1762
v 1289.478 170.72 -337.5937
v 1316.441 163.4073 -315.845
v 1290.866 171.6065 -338.6242
v 1318.053 165.4386 -317.1057
v 1292.046 172.9722 -339.3441
v 1319.163 167.9981 -317.8347
v 1292.902 174.6835 -339.6832
v 1319.662 170.8354 -317.9608
v 1293.35 176.5729 -339.608
v 1293.35 176.5729 -339.608
v 1319.662 170.8354 -317.9608
v 1292.233 177.1566 -332.1826
v 1291.909 177.4112 -331.8317
v 1292.869 178.5428 -333.0085
v 1292.229 179.0456 -332.3156
v 1293.329 177.7781 -333.5964
v 1292.466 176.7695 -332.4801
v 1293.565 176.8265 -334.0215
v 1292.585 176.2878 -332.6953
v 1293.553 175.7811 -334.2424
v 1292.579 175.7585 -332.8072
v 1293.295 174.7441 -334.2373
v 1292.449 175.2336 -332.8046
v 1292.816 173.8172 -334.0067
v 1292.206 174.7644 -332.6879
v 1292.162 173.091 -333.5733
v 1291.875 174.3968 -332.4684
v 1291.399 172.6367 -332.9795
v 1291.489 174.1668 -332.1679
v 1290.6 172.4987 -332.2833
v 1291.084 174.0969 -331.8155
v 1289.844 172.6905 -331.553
v 1290.702 174.194 -331.4457
v 1289.204 173.1933 -330.86
v 1290.378 174.4486 -331.0949
v 1288.744 173.958 -330.2722
v 1290.145 174.8357 -330.7973
v 1288.509 174.9096 -329.8471
v 1290.026 175.3174 -330.5821
v 1288.521 175.9551 -329.6263
v 1290.032 175.8466 -330.4703
v 1288.779 176.992 -329.6313
v 1290.163 176.3716 -330.4729
v 1289.258 177.9189 -329.8619
v 1290.405 176.8408 -330.5896
v 1289.911 178.6451 -330.2953
v 1290.736 177.2084 -330.809
v 1290.675 179.0994 -330.8891
v 1291.122 177.4384 -331.1096
v 1291.473 179.2374 -331.5852
v 1291.527 177.5083 -331.462
v 1286.9 176.1032 -329.0279
v 1287.279 177.6266 -329.0354
v 1287.983 178.9884 -329.3741
v 1288.942 180.0552 -330.0108
v 1285.699 178.2598 -328.6998
v 1285.208 176.2874 -328.6901
v 1286.882 174.5673 -329.3523
v 1287.228 173.1692 -329.9769
v 1287.904 172.0458 -330.8405
v 1288.844 171.3071 -331.8587
v 1289.954 171.0253 -332.9316
v 1291.128 171.2281 -333.9543
v 1292.25 171.8956 -334.8268
v 1293.209 172.9624 -335.4635
v 1293.913 174.3242 -335.8022
v 1294.292 175.8475 -335.8097
v 1294.31 177.3834 -335.4852
v 1293.964 178.7815 -334.8606
v 1293.288 179.9049 -333.997
v 1292.349 180.6437 -332.9789
v 1294.802 177.9449 -337.0504
v 1294.354 179.7551 -336.2418
v 1294.78 175.9564 -337.4705
v 1294.289 173.9841 -337.4608
v 1293.378 172.221 -337.0223
v 1292.135 170.8397 -336.1979
v 1290.683 169.9755 -335.0684
v 1289.163 169.713 -333.7442
v 1287.725 170.0778 -332.3551
v 1286.509 171.0343 -331.037
v 1285.634 172.4888 -329.9188
v 1285.186 174.2988 -329.1102
v 1290.075 168.9099 -336.2942
v 1291.822 169.9496 -337.6531
v 1288.247 168.5941 -334.7013
v 1286.517 169.033 -333.0302
v 1285.054 170.1836 -331.4444
v 1284.001 171.9333 -330.0992
v 1283.462 174.1109 -329.1264
v 1283.489 176.5031 -328.6212
v 1284.079 178.8759 -328.6328
v 1289.319 168.0575 -337.6016
v 1291.317 169.247 -339.1563
v 1293.317 171.6112 -338.6448
v 1294.413 173.7322 -339.1723
v 1295.004 176.1049 -339.1839
v 1295.031 178.4972 -338.6786
v 1294.491 180.6747 -337.7058
v 1294.958 176.2895 -340.9078
v 1294.988 179.0265 -340.3297
v 1294.282 173.5748 -340.8945
v 1293.027 171.1481 -340.291
v 1294.643 176.5055 -342.5997
v 1294.677 179.5199 -341.963
v 1293.899 173.5157 -342.585
v 1292.517 170.843 -341.9203
v 1290.634 168.7493 -340.6707
v 1288.433 167.4393 -338.9584
v 1286.129 167.0413 -336.9512
v 1287.227 167.6962 -335.7791
v 1285.248 168.1983 -333.8671
v 1283.574 169.5148 -332.0528
v 1282.369 171.5167 -330.5139
v 1281.752 174.0081 -329.4008
v 1281.783 176.7451 -328.8227
v 1282.459 179.4598 -328.836
v 1283.949 167.5943 -334.8454
v 1282.106 169.0442 -332.8473
v 1280.779 171.249 -331.1523
v 1280.1 173.9929 -329.9265
v 1280.134 177.0073 -329.2898
v 1282.653 167.236 -335.941
v 1284.98 166.6457 -338.1887
v 1287.439 167.0704 -340.3312
v 1289.789 168.4687 -342.1588
v 1291.799 170.7036 -343.4927
v 1293.274 173.5563 -344.2022
v 1294.068 176.7477 -344.2179
v 1294.104 179.9652 -343.5382
v 1278.581 177.2833 -330.011
v 1293.246 177.0101 -345.7226
v 1293.284 180.3515 -345.0168
v 1292.421 173.6958 -345.7063
v 1290.89 170.7332 -344.9694
v 1288.802 168.4122 -343.5842
v 1286.362 166.9601 -341.6862
v 1283.809 166.5189 -339.4611
v 1281.392 167.132 -337.1269
v 1279.348 168.7392 -334.9119
v 1280.686 168.7835 -333.8082
v 1279.27 171.1369 -331.999
v 1278.545 174.0657 -330.6906
v 1277.878 171.1832 -333.0331
v 1277.125 174.2248 -331.6742
v 1277.163 177.5663 -330.9684
v 1280.196 167.285 -338.3738
v 1278.127 168.9122 -336.1313
v 1276.639 171.3867 -334.229
v 1275.876 174.4662 -332.8532
v 1275.914 177.8493 -332.1386
v 1277.052 169.2983 -337.4362
v 1279.096 167.6911 -339.6512
v 1282.643 166.6643 -340.7372
v 1285.228 167.1109 -342.99
v 1287.699 168.5812 -344.9117
v 1289.813 170.931 -346.3141
v 1291.363 173.9306 -347.0602
v 1292.198 177.2862 -347.0767
v 1290.125 174.2549 -348.2305
v 1290.95 177.5692 -348.2469
v 1288.594 171.2923 -347.4937
v 1286.506 168.9713 -346.1085
v 1284.066 167.5192 -344.2104
v 1281.512 167.0781 -341.9854
v 1288.738 174.6609 -349.1886
v 1289.532 177.8522 -349.2043
v 1287.263 171.8081 -348.4792
v 1285.253 169.5732 -347.1453
v 1282.903 168.175 -345.3176
v 1280.444 167.7502 -343.1751
v 1278.117 168.3405 -340.9274
v 1276.149 169.888 -338.7946
v 1274.734 172.2414 -336.9855
v 1275.582 171.7423 -335.5574
v 1274.829 174.7839 -334.1985
v 1274.866 178.1254 -333.4927
v 1274.009 175.1702 -335.677
v 1283.97 170.372 -347.9964
v 1281.769 169.062 -346.2842
v 1277.285 169.217 -342.1713
v 1275.441 170.6669 -340.1731
v 1273.436 175.6156 -337.2523
v 1274.115 172.8717 -338.4781
v 1280.69 170.1585 -347.0864
v 1282.689 171.3479 -348.6411
v 1285.853 172.4657 -349.2461
v 1287.235 175.1384 -349.9107
v 1287.979 178.1282 -349.9255
v 1285.654 175.6757 -350.3793
v 1286.329 178.3904 -350.3926
v 1284.399 173.249 -349.7757
v 1273.124 176.109 -338.8856
v 1273.741 173.6176 -339.9986
v 1274.946 171.6157 -341.5376
v 1276.619 170.2992 -343.3519
v 1279.465 168.664 -344.277
v 1278.599 169.7971 -345.2639
v 1277.867 171.1216 -346.1115
v 1279.695 171.4374 -347.7044
v 1281.442 172.477 -349.0632
v 1282.937 174.1386 -350.055
v 1284.033 176.2596 -350.5825
v 1276.137 171.5604 -344.4403
v 1274.674 172.711 -342.8546
v 1281.502 175.1126 -350.077
v 1282.413 176.8757 -350.5154
v 1280.26 173.7314 -349.2526
v 1278.807 172.8672 -348.123
v 1277.288 172.6047 -346.7989
v 1275.85 172.9695 -345.4098
v 1274.634 173.926 -344.0916
v 1273.759 175.3804 -342.9734
v 1273.621 174.4608 -341.5095
v 1273.082 176.6383 -340.5367
v 1279.171 175.0803 -349.2045
v 1280.13 176.1471 -349.8411
v 1278.049 174.4128 -348.332
v 1276.875 174.21 -347.3093
v 1275.764 174.4918 -346.2363
v 1274.825 175.2306 -345.2183
v 1274.149 176.354 -344.3546
v 1277.438 176.0361 -348.3262
v 1278.202 176.4904 -348.92
v 1276.639 175.8981 -347.63
v 1275.883 176.0899 -346.8997
v 1290.675 179.0994 -330.8891
v 1289.911 178.6451 -330.2953
v 1290.064 180.7227 -330.8832
v 1288.942 180.0552 -330.0108
v 1291.238 180.9254 -331.906
v 1291.473 179.2374 -331.5852
v 1292.349 180.6437 -332.9789
v 1292.229 179.0456 -332.3156
v 1289.305 182.2683 -331.0922
v 1287.853 181.4041 -329.9627
v 1287.983 178.9884 -329.3741
v 1286.611 180.0229 -329.1383
v 1290.825 182.5308 -332.4164
v 1292.263 182.166 -333.8055
v 1293.479 181.2095 -335.1237
v 1293.288 179.9049 -333.997
v 1294.354 179.7551 -336.2418
v 1293.964 178.7815 -334.8606
v 1293.439 182.4245 -336.3607
v 1291.976 183.5751 -334.775
v 1294.491 180.6747 -337.7058
v 1286.671 182.6585 -330.152
v 1285.176 180.9969 -329.1603
v 1285.699 178.2598 -328.6998
v 1284.079 178.8759 -328.6328
v 1288.417 183.6981 -331.5109
v 1290.245 184.0139 -333.1039
v 1293.167 183.5198 -337.6777
v 1291.493 184.8362 -335.8634
v 1294.372 181.5179 -339.2167
v 1294.988 179.0265 -340.3297
v 1295.031 178.4972 -338.6786
v 1283.714 181.8865 -329.4396
v 1282.459 179.4598 -328.836
v 1285.424 183.7876 -330.5742
v 1287.422 184.977 -332.1289
v 1289.514 185.3383 -333.9514
v 1292.671 184.4686 -339.0422
v 1290.828 185.9184 -337.0441
v 1293.998 182.2638 -340.7371
v 1294.677 179.5199 -341.963
v 1284.143 184.7635 -331.2188
v 1282.26 182.6697 -329.9692
v 1280.878 179.9971 -329.3045
v 1281.783 176.7451 -328.8227
v 1280.134 177.0073 -329.2898
v 1286.344 186.0735 -332.9311
v 1288.648 186.4714 -334.9383
v 1291.963 185.2474 -340.4207
v 1289.996 186.795 -338.2878
v 1293.379 182.894 -342.2298
v 1294.104 179.9652 -343.5382
v 1279.375 180.4746 -330.0267
v 1278.581 177.2833 -330.011
v 1280.85 183.3273 -330.7362
v 1282.86 185.5622 -332.07
v 1285.21 186.9605 -333.8976
v 1287.668 187.3853 -336.0402
v 1291.061 185.8372 -341.7791
v 1289.017 187.4444 -339.5641
v 1292.531 183.3932 -343.6579
v 1293.284 180.3515 -345.0168
v 1277.988 180.8805 -330.9847
v 1277.163 177.5663 -330.9684
v 1279.519 183.8431 -331.7215
v 1281.607 186.1641 -333.1068
v 1284.047 187.6162 -335.0048
v 1286.6 188.0574 -337.2298
v 1289.985 186.2233 -343.084
v 1287.917 187.8505 -340.8415
v 1291.474 183.7488 -344.9863
v 1292.237 180.6693 -346.3621
v 1292.198 177.2862 -347.0767
v 1293.246 177.0101 -345.7226
v 1276.75 181.2049 -332.1551
v 1275.914 177.8493 -332.1386
v 1278.3 184.2044 -332.9012
v 1280.414 186.5543 -334.3036
v 1282.885 188.0245 -336.2253
v 1285.47 188.4712 -338.4781
v 1288.764 186.3963 -344.3034
v 1286.721 188.0035 -342.0884
v 1290.235 183.9523 -346.1822
v 1290.988 180.9107 -347.541
v 1290.95 177.5692 -348.2469
v 1275.691 181.4397 -333.509
v 1274.866 178.1254 -333.4927
v 1277.223 184.4023 -334.2458
v 1279.311 186.7233 -335.6311
v 1281.751 188.1754 -337.5291
v 1284.304 188.6165 -339.7542
v 1287.427 186.352 -345.4071
v 1285.459 187.8995 -343.2742
v 1288.843 183.9986 -347.2163
v 1289.568 181.0698 -348.5247
v 1289.532 177.8522 -349.2043
v 1274.839 181.5791 -335.0131
v 1274.045 178.3878 -334.9973
v 1274.829 174.7839 -334.1985
v 1274.009 175.1702 -335.677
v 1276.314 184.4319 -335.7226
v 1278.324 186.6668 -337.0564
v 1280.674 188.065 -338.8841
v 1283.132 188.4898 -341.0266
v 1286.007 186.0913 -346.368
v 1284.164 187.5412 -344.3699
v 1287.334 183.8865 -348.063
v 1288.013 181.1426 -349.2888
v 1287.979 178.1282 -349.9255
v 1273.47 178.63 -336.6155
v 1273.436 175.6156 -337.2523
v 1274.214 181.6198 -336.6303
v 1275.595 184.2924 -337.295
v 1277.479 186.3862 -338.5446
v 1279.68 187.6962 -340.2568
v 1281.984 188.0941 -342.2641
v 1284.539 185.6207 -347.1625
v 1282.865 186.9372 -345.3482
v 1285.743 183.6188 -348.7014
v 1286.36 181.1274 -349.8145
v 1286.329 178.3904 -350.3926
v 1273.155 178.846 -338.3074
v 1273.124 176.109 -338.8856
v 1273.831 181.5607 -338.3208
v 1275.085 183.9874 -338.9243
v 1276.796 185.8885 -340.059
v 1278.794 187.078 -341.6137
v 1280.886 187.4393 -343.4362
v 1283.059 184.9519 -347.7709
v 1281.596 186.1025 -346.1852
v 1284.112 183.2021 -349.116
v 1284.651 181.0246 -350.0888
v 1284.624 178.6324 -350.5941
v 1273.109 179.0305 -340.0313
v 1273.082 176.6383 -340.5367
v 1273.7 181.4033 -340.043
v 1274.796 183.5243 -340.5705
v 1276.291 185.1859 -341.5622
v 1278.038 186.2255 -342.9211
v 1279.866 186.5414 -344.514
v 1281.604 184.1012 -348.1783
v 1280.388 185.0577 -346.8602
v 1282.479 182.6467 -349.2965
v 1282.927 180.8366 -350.1051
v 1282.904 178.8481 -350.5251
v 1282.413 176.8757 -350.5154
v 1284.033 176.2596 -350.5825
v 1273.333 179.1791 -341.7448
v 1273.31 177.1905 -342.1648
v 1273.621 174.4608 -341.5095
v 1273.759 175.3804 -342.9734
v 1274.735 182.9145 -342.193
v 1275.978 184.2958 -343.0174
v 1278.949 185.4225 -345.4711
v 1280.209 183.0897 -348.3747
v 1279.269 183.8284 -347.3566
v 1281.231 180.5682 -349.8629
v 1280.884 181.9663 -349.2384
v 1273.803 177.752 -343.7301
v 1274.149 176.354 -344.3546
v 1273.82 179.2879 -343.4056
v 1275.863 183.2399 -344.3885
v 1274.904 182.1731 -343.7518
v 1273.824 181.1514 -341.7545
v 1274.2 180.8113 -343.4131
v 1275.297 181.3183 -345.2085
v 1274.818 180.3914 -344.978
v 1275.951 182.0444 -345.642
v 1276.714 182.4988 -346.2357
v 1276.985 183.9074 -345.2609
v 1277.43 185.1599 -344.1469
v 1278.158 184.1102 -346.2836
v 1277.513 182.6368 -346.9319
v 1278.269 182.445 -347.6622
v 1278.908 181.9422 -348.3553
v 1279.368 181.1775 -348.9431
v 1279.604 180.2259 -349.3682
v 1279.592 179.1804 -349.589
v 1281.213 179.0323 -350.1873
v 1280.834 177.5089 -350.1798
v 1280.13 176.1471 -349.8411
v 1281.502 175.1126 -350.077
v 1279.334 178.1435 -349.5839
v 1278.855 177.2166 -349.3534
v 1278.202 176.4904 -348.92
v 1279.171 175.0803 -349.2045
v 1278.087 179.8181 -348.6331
v 1278.081 179.2888 -348.745
v 1277.95 178.7639 -348.7424
v 1277.708 178.2947 -348.6256
v 1277.377 177.9271 -348.4063
v 1276.991 177.6971 -348.1056
v 1277.438 176.0361 -348.3262
v 1276.586 177.6272 -347.7533
v 1276.639 175.8981 -347.63
v 1276.203 177.7243 -347.3835
v 1275.883 176.0899 -346.8997
v 1275.88 177.9789 -347.0327
v 1275.244 176.5927 -346.2068
v 1275.764 174.4918 -346.2363
v 1274.825 175.2306 -345.2183
v 1274.784 177.3574 -345.6189
v 1274.548 178.309 -345.1937
v 1274.56 179.3544 -344.9729
v 1275.647 178.366 -346.7351
v 1275.528 178.8477 -346.5199
v 1275.534 179.3769 -346.4081
v 1275.664 179.9019 -346.4107
v 1275.907 180.3711 -346.5274
v 1276.237 180.7387 -346.7468
v 1276.624 180.9687 -347.0474
v 1277.028 181.0386 -347.3998
v 1277.411 180.9415 -347.7695
v 1277.735 180.6869 -348.1204
v 1277.968 180.2998 -348.418
v 1276.717 179.3549 -347.6759
v 1286.611 180.0229 -329.1383
v 1285.654 175.6757 -350.3793
v 1291.396 175.7806 -331.5394
vt 0.058829 0.037112
vt 0.059056 0.035071
vt 0.110275 0.081391
vt 0.110798 0.078704
vt 0.108354 0.084932
vt 0.057612 0.039662
vt 0.105219 0.08898
vt 0.055524 0.042472
vt 0.10118 0.093134
vt 0.05277 0.045264
vt 0.096636 0.096984
vt 0.049622 0.047762
vt 0.092037 0.100147
vt 0.046389 0.049721
vt 0.087838 0.102314
vt 0.043392 0.050949
vt 0.084452 0.103272
vt 0.040923 0.051325
vt 0.082208 0.102932
vt 0.039224 0.050815
vt 0.03846 0.04947
vt 0.039224 0.050815
vt 0.081323 0.101332
vt 0.082208 0.102932
vt 0.081877 0.098632
vt 0.038703 0.047425
vt 0.083812 0.095099
vt 0.039927 0.04488
vt 0.086936 0.091077
vt 0.04201 0.042084
vt 0.090946 0.086957
vt 0.044751 0.039307
vt 0.095452 0.083136
vt 0.047882 0.036821
vt 0.10002 0.079985
vt 0.051099 0.034866
vt 0.104206 0.077811
vt 0.05409 0.033634
vt 0.107602 0.076827
vt 0.056563 0.033245
vt 0.109875 0.077133
vt 0.058275 0.03374
vt 0.058275 0.03374
vt 0.109875 0.077133
vt 0.05622 0.049127
vt 0.05566 0.049897
vt 0.058109 0.047686
vt 0.057003 0.049207
vt 0.058736 0.046333
vt 0.056537 0.048442
vt 0.058822 0.045281
vt 0.056581 0.047909
vt 0.058359 0.044633
vt 0.056347 0.047581
vt 0.057394 0.044452
vt 0.05586 0.047488
vt 0.056023 0.044754
vt 0.055165 0.047641
vt 0.054377 0.04551
vt 0.054332 0.048023
vt 0.052621 0.046646
vt 0.053442 0.048598
vt 0.050922 0.04805
vt 0.052582 0.049309
vt 0.049449 0.049585
vt 0.051835 0.050087
vt 0.048344 0.051103
vt 0.051276 0.050856
vt 0.047715 0.052455
vt 0.050958 0.051541
vt 0.047624 0.053508
vt 0.050913 0.052074
vt 0.048082 0.05416
vt 0.051145 0.052404
vt 0.049042 0.054346
vt 0.051632 0.052497
vt 0.050413 0.054047
vt 0.052326 0.052346
vt 0.052061 0.053292
vt 0.05316 0.051963
vt 0.053822 0.052155
vt 0.054051 0.051388
vt 0.055526 0.050747
vt 0.054913 0.050676
vt 0.044808 0.055419
vt 0.046218 0.055693
vt 0.048231 0.055255
vt 0.050652 0.054146
vt 0.043228 0.056505
vt 0.041405 0.056149
vt 0.044139 0.054461
vt 0.044274 0.052913
vt 0.045199 0.050928
vt 0.046823 0.048699
vt 0.048986 0.046445
vt 0.051479 0.044383
vt 0.054059 0.042715
vt 0.056475 0.041604
vt 0.05849 0.041157
vt 0.059908 0.041422
vt 0.060589 0.042372
vt 0.060464 0.043916
vt 0.059543 0.045903
vt 0.057918 0.048139
vt 0.061839 0.039253
vt 0.061678 0.04125
vt 0.060957 0.038025
vt 0.05912 0.037686
vt 0.056511 0.038267
vt 0.053385 0.039707
vt 0.050047 0.041867
vt 0.046821 0.044535
vt 0.044022 0.047452
vt 0.041919 0.050335
vt 0.040719 0.052904
vt 0.040542 0.054908
vt 0.048359 0.039158
vt 0.052372 0.03656
vt 0.044481 0.042366
vt 0.041114 0.045873
vt 0.038584 0.04934
vt 0.037139 0.052429
vt 0.036921 0.054839
vt 0.037956 0.056332
vt 0.040146 0.05676
vt 0.046457 0.036323
vt 0.051046 0.03335
vt 0.056131 0.034825
vt 0.05927 0.034124
vt 0.061479 0.034528
vt 0.062541 0.036001
vt 0.062348 0.038401
vt 0.061462 0.031014
vt 0.062678 0.032696
vt 0.058934 0.030557
vt 0.055345 0.031363
vt 0.060906 0.027572
vt 0.062244 0.02942
vt 0.058122 0.027073
vt 0.054171 0.027964
vt 0.049439 0.030156
vt 0.044387 0.033431
vt 0.039504 0.037472
vt 0.042022 0.039993
vt 0.03817 0.044004
vt 0.035275 0.047967
vt 0.033619 0.051499
vt 0.033366 0.054255
vt 0.034546 0.055963
vt 0.037047 0.056453
vt 0.035263 0.041888
vt 0.032073 0.046251
vt 0.030246 0.050138
vt 0.029963 0.053172
vt 0.031258 0.055052
vt 0.032462 0.039577
vt 0.036989 0.034866
vt 0.042199 0.030553
vt 0.04759 0.027055
vt 0.052639 0.024713
vt 0.056855 0.023757
vt 0.059824 0.024285
vt 0.061252 0.026253
vt 0.028174 0.05362
vt 0.058244 0.021235
vt 0.059724 0.023274
vt 0.055162 0.020691
vt 0.050786 0.021688
vt 0.045544 0.024123
vt 0.039948 0.027757
vt 0.034538 0.032237
vt 0.029836 0.037129
vt 0.026296 0.041961
vt 0.029056 0.044232
vt 0.027102 0.04838
vt 0.026797 0.051615
vt 0.024265 0.046266
vt 0.023943 0.049624
vt 0.02537 0.051703
vt 0.027448 0.034601
vt 0.023862 0.039492
vt 0.021802 0.043849
vt 0.021473 0.047245
vt 0.022914 0.049347
vt 0.021812 0.036887
vt 0.025356 0.032057
vt 0.03221 0.029649
vt 0.037687 0.025113
vt 0.043352 0.021431
vt 0.048657 0.018962
vt 0.053085 0.017949
vt 0.056203 0.018496
vt 0.050675 0.0156
vt 0.053751 0.016137
vt 0.046304 0.016604
vt 0.041066 0.019045
vt 0.035471 0.022683
vt 0.030061 0.027165
vt 0.047991 0.0137
vt 0.05095 0.014214
vt 0.043785 0.014669
vt 0.038742 0.017023
vt 0.033355 0.020528
vt 0.028143 0.024845
vt 0.023612 0.029557
vt 0.020198 0.034207
vt 0.018234 0.038346
vt 0.019775 0.041187
vt 0.019448 0.044538
vt 0.020868 0.046611
vt 0.017916 0.04157
vt 0.036437 0.015414
vt 0.031389 0.0187
vt 0.022257 0.027162
vt 0.019057 0.031518
vt 0.016917 0.038412
vt 0.017215 0.035395
vt 0.029622 0.017244
vt 0.034207 0.014258
vt 0.04116 0.013207
vt 0.045099 0.012297
vt 0.047867 0.012777
vt 0.042069 0.011425
vt 0.044579 0.01186
vt 0.038495 0.012253
vt 0.016474 0.035142
vt 0.016746 0.032405
vt 0.018418 0.028887
vt 0.021327 0.024931
vt 0.026505 0.022747
vt 0.025186 0.020921
vt 0.024217 0.019411
vt 0.028097 0.016196
vt 0.032106 0.013584
vt 0.035854 0.01183
vt 0.038976 0.011106
vt 0.020842 0.022918
vt 0.018299 0.026377
vt 0.033301 0.011951
vt 0.035896 0.011349
vt 0.030185 0.01341
vt 0.026852 0.015582
vt 0.023625 0.018257
vt 0.020818 0.021173
vt 0.018703 0.024049
vt 0.017487 0.026604
vt 0.016836 0.029451
vt 0.016599 0.031841
vt 0.028494 0.013739
vt 0.030901 0.012612
vt 0.025918 0.015418
vt 0.023424 0.017486
vt 0.021254 0.01974
vt 0.01962 0.021962
vt 0.01868 0.023935
vt 0.025318 0.015709
vt 0.027072 0.014566
vt 0.023619 0.017118
vt 0.022141 0.018653
vt 0.053822 0.052155
vt 0.052061 0.053292
vt 0.053242 0.052474
vt 0.050652 0.054146
vt 0.055746 0.050404
vt 0.055526 0.050747
vt 0.057918 0.048139
vt 0.057003 0.049207
vt 0.052323 0.052335
vt 0.048968 0.054501
vt 0.048231 0.055255
vt 0.045833 0.055938
vt 0.055567 0.049653
vt 0.058381 0.046719
vt 0.060487 0.043823
vt 0.059543 0.045903
vt 0.061678 0.04125
vt 0.060464 0.043916
vt 0.060915 0.041496
vt 0.05838 0.044981
vt 0.062348 0.038401
vt 0.04705 0.054349
vt 0.043279 0.056078
vt 0.043228 0.056505
vt 0.040146 0.05676
vt 0.051087 0.051742
vt 0.054993 0.048513
vt 0.060816 0.03898
vt 0.057915 0.042968
vt 0.062457 0.03544
vt 0.062678 0.032696
vt 0.062541 0.036001
vt 0.04063 0.055672
vt 0.037047 0.056453
vt 0.044944 0.053692
vt 0.049566 0.050707
vt 0.054037 0.04701
vt 0.060192 0.036336
vt 0.056994 0.040729
vt 0.062 0.032439
vt 0.062244 0.02942
vt 0.042704 0.052546
vt 0.037953 0.054728
vt 0.03401 0.05559
vt 0.034546 0.055963
vt 0.031258 0.055052
vt 0.047795 0.049256
vt 0.052721 0.045183
vt 0.059058 0.033631
vt 0.055643 0.038319
vt 0.06099 0.029472
vt 0.061252 0.026253
vt 0.031107 0.054193
vt 0.028174 0.05362
vt 0.035314 0.05327
vt 0.040385 0.050939
vt 0.045819 0.047425
vt 0.051079 0.043075
vt 0.057441 0.030931
vt 0.053892 0.0358
vt 0.05945 0.026614
vt 0.059724 0.023274
vt 0.028412 0.052295
vt 0.02537 0.051703
vt 0.032779 0.051334
vt 0.038043 0.04891
vt 0.043687 0.045259
vt 0.049151 0.040739
vt 0.055382 0.028303
vt 0.051786 0.033232
vt 0.057418 0.023935
vt 0.057698 0.020557
vt 0.056203 0.018496
vt 0.058244 0.021235
vt 0.025991 0.049943
vt 0.022914 0.049347
vt 0.03041 0.048967
vt 0.035738 0.04651
vt 0.041452 0.04281
vt 0.046984 0.038233
vt 0.052931 0.025814
vt 0.049377 0.030681
vt 0.054944 0.021502
vt 0.055225 0.018169
vt 0.053751 0.016137
vt 0.023904 0.047195
vt 0.020868 0.046611
vt 0.028266 0.046228
vt 0.033527 0.043798
vt 0.039169 0.040141
vt 0.044634 0.03562
vt 0.050149 0.023525
vt 0.046725 0.028209
vt 0.052091 0.019376
vt 0.052365 0.016168
vt 0.05095 0.014214
vt 0.022203 0.044119
vt 0.019282 0.043561
vt 0.019448 0.044538
vt 0.017916 0.04157
vt 0.026401 0.043184
vt 0.031465 0.040841
vt 0.036896 0.037319
vt 0.042157 0.032964
vt 0.047106 0.021494
vt 0.043897 0.02588
vt 0.048928 0.017608
vt 0.049189 0.014605
vt 0.047867 0.012777
vt 0.018194 0.040274
vt 0.016917 0.038412
vt 0.02093 0.040792
vt 0.024861 0.039911
vt 0.029603 0.037714
vt 0.03469 0.034413
vt 0.039617 0.030333
vt 0.043877 0.01977
vt 0.040963 0.02375
vt 0.045535 0.016244
vt 0.045775 0.013519
vt 0.044579 0.01186
vt 0.017634 0.036829
vt 0.016474 0.035142
vt 0.020117 0.037295
vt 0.023685 0.036492
vt 0.027988 0.034494
vt 0.032604 0.031496
vt 0.037077 0.027792
vt 0.040544 0.018396
vt 0.037995 0.021874
vt 0.041995 0.015316
vt 0.042208 0.012936
vt 0.041167 0.011486
vt 0.017613 0.033311
vt 0.016599 0.031841
vt 0.019783 0.033715
vt 0.0229 0.03301
vt 0.02666 0.031262
vt 0.030693 0.028641
vt 0.0346 0.025405
vt 0.037188 0.017407
vt 0.035069 0.020296
vt 0.038396 0.014848
vt 0.038576 0.01287
vt 0.037714 0.011665
vt 0.035896 0.011349
vt 0.038976 0.011106
vt 0.018133 0.029808
vt 0.017289 0.028589
vt 0.016836 0.029451
vt 0.017487 0.026604
vt 0.022528 0.029552
vt 0.025652 0.028097
vt 0.032248 0.023229
vt 0.033894 0.016827
vt 0.032257 0.019056
vt 0.03497 0.013323
vt 0.034828 0.014851
vt 0.018529 0.025467
vt 0.01868 0.023935
vt 0.019181 0.026406
vt 0.024987 0.025079
vt 0.022576 0.026204
vt 0.019937 0.030141
vt 0.020575 0.026661
vt 0.023043 0.023049
vt 0.021681 0.023361
vt 0.024684 0.022282
vt 0.026442 0.021137
vt 0.027573 0.023396
vt 0.029002 0.025918
vt 0.030079 0.021321
vt 0.028147 0.019725
vt 0.029629 0.018185
vt 0.030743 0.016668
vt 0.031379 0.015324
vt 0.031477 0.014284
vt 0.031027 0.01365
vt 0.034306 0.012392
vt 0.032904 0.012147
vt 0.030901 0.012612
vt 0.033301 0.011951
vt 0.030074 0.013483
vt 0.028711 0.013798
vt 0.027072 0.014566
vt 0.028494 0.013739
vt 0.028185 0.015729
vt 0.027958 0.015407
vt 0.027476 0.015322
vt 0.026787 0.015482
vt 0.025957 0.01587
vt 0.025068 0.016449
vt 0.025318 0.015709
vt 0.024208 0.017163
vt 0.023619 0.017118
vt 0.023459 0.017941
vt 0.022141 0.018653
vt 0.022895 0.018707
vt 0.021028 0.020166
vt 0.021254 0.01974
vt 0.01962 0.021962
vt 0.020389 0.021509
vt 0.020287 0.022551
vt 0.020731 0.023189
vt 0.022572 0.019387
vt 0.02252 0.019914
vt 0.022746 0.020236
vt 0.023227 0.020323
vt 0.023916 0.020164
vt 0.024747 0.019776
vt 0.025637 0.019196
vt 0.026499 0.018482
vt 0.027248 0.017703
vt 0.027812 0.016936
vt 0.028135 0.016255
vt 0.025175 0.017621
vt 0.045833 0.055938
vt 0.042069 0.011425
vt 0.053923 0.050192
vn 0.5492435 0.6428779 -0.533891
vn 0.629709 0.379557 -0.6777928
vn 0.5858393 0.5541077 -0.5914025
vn 0.6429249 0.2739581 -0.7152584
vn 0.4654215 0.781689 -0.4151447
vn 0.4093508 0.8452241 -0.3435524
vn 0.2933098 0.934055 -0.2037416
vn 0.2234048 0.9666472 -0.1252332
vn 0.08630989 0.9960269 0.02193265
vn 0.009328499 0.9949701 0.09973721
vn -0.1352882 0.9614102 0.2395571
vn -0.2120226 0.9270617 0.3091972
vn -0.3497859 0.8335125 0.4276761
vn -0.4189141 0.7692696 0.4824264
vn -0.5360628 0.624772 0.5677116
vn -0.5908077 0.5369475 0.6021907
vn -0.6756261 0.3556519 0.6457872
vn -0.7105595 0.2529545 0.6565966
vn -0.7545237 0.05264869 0.6541576
vn -0.7661914 -0.05468697 0.6402813
vn -0.7521279 -0.3554081 0.5549672
vn -0.7661914 -0.05468697 0.6402813
vn -0.7647923 -0.2541321 0.5920385
vn -0.7545237 0.05264869 0.6541576
vn -0.7054943 -0.534134 0.4658096
vn -0.6698591 -0.6195254 0.4092398
vn -0.5827914 -0.7597826 0.2882441
vn -0.5276877 -0.8210922 0.2176081
vn -0.409195 -0.9091833 0.07710442
vn -0.339865 -0.9404737 -0.0009699193
vn -0.2020893 -0.9682978 -0.1468308
vn -0.125027 -0.9662862 -0.225076
vn 0.01824951 -0.9320161 -0.361957
vn 0.09571271 -0.8963411 -0.4329108
vn 0.2305688 -0.8042537 -0.5477353
vn 0.3008156 -0.7377585 -0.6043364
vn 0.4145733 -0.5973986 -0.6864722
vn 0.4704434 -0.5061812 -0.7228165
vn 0.5526368 -0.3312063 -0.7647842
vn 0.5883008 -0.2242105 -0.7769375
vn 0.6313774 -0.03110595 -0.7748516
vn 0.6431414 0.08087596 -0.7614645
vn 0.6431414 0.08087596 -0.7614645
vn 0.6313774 -0.03110595 -0.7748516
vn 0.7502527 -0.02908808 0.660511
vn 0.7191098 -0.001758372 0.6948943
vn 0.7993584 0.08582432 0.5946935
vn 0.742071 0.1323752 0.6571205
vn 0.8402181 0.01581947 0.5420179
vn 0.7719769 -0.06914845 0.6318783
vn 0.8606573 -0.07082681 0.5042347
vn 0.7821897 -0.1180751 0.6117496
vn 0.858654 -0.1655727 0.4850762
vn 0.779874 -0.170977 0.6021325
vn 0.8344537 -0.2591175 0.486359
vn 0.7652456 -0.2227388 0.6039757
vn 0.790372 -0.3423881 0.5080183
vn 0.7397187 -0.2683439 0.6170962
vn 0.7307465 -0.4072015 0.5479019
vn 0.705843 -0.3032226 0.6401887
vn 0.6613865 -0.4472012 0.6021454
vn 0.6668583 -0.3240491 0.6710382
vn 0.5891402 -0.4584925 0.6653558
vn 0.6267059 -0.3287275 0.7065251
vn 0.5210564 -0.4399373 0.7314065
vn 0.589201 -0.3168199 0.7432815
vn 0.4637623 -0.393369 0.7938423
vn 0.5580484 -0.2895018 0.77767
vn 0.4228971 -0.3233785 0.8465131
vn 0.536302 -0.2494173 0.806332
vn 0.402469 -0.2367746 0.8842831
vn 0.5261083 -0.2005226 0.8264386
vn 0.4044571 -0.1420226 0.9034622
vn 0.5284289 -0.1476262 0.8360439
vn 0.4286596 -0.04843828 0.9021667
vn 0.5430974 -0.09577597 0.8341896
vn 0.4727757 0.03484889 0.8804935
vn 0.5686168 -0.05018118 0.8210705
vn 0.5323942 0.09962672 0.8406134
vn 0.6024586 -0.01533916 0.7980027
vn 0.6017259 0.1396253 0.7864036
vn 0.6413851 0.005469625 0.7671995
vn 0.6739705 0.1509081 0.7231809
vn 0.6815682 0.01016446 0.731684
vn 0.2577653 -0.1288682 0.957575
vn 0.2928886 0.008739792 0.9561066
vn 0.3572422 0.1313772 0.9247258
vn 0.4445624 0.2270611 0.8664915
vn 0.1498828 0.0656856 0.9865194
vn 0.1047189 -0.1125625 0.9881111
vn 0.2553391 -0.2679755 0.9289731
vn 0.2858429 -0.3949278 0.8731127
vn 0.3462656 -0.4973542 0.7954488
vn 0.4307337 -0.5651884 0.703584
vn 0.5309249 -0.5917858 0.6065544
vn 0.6371018 -0.5745806 0.5137689
vn 0.73882 -0.5152211 0.4343871
vn 0.8261443 -0.4195226 0.3761467
vn 0.8904877 -0.2968955 0.3447967
vn 0.9256268 -0.1592634 0.3432934
vn 0.9280529 -0.02018587 0.3719011
vn 0.8975548 0.1067974 0.4277729
vn 0.8371269 0.2091836 0.5054313
vn 0.752668 0.277021 0.5972857
vn 0.9725986 0.03094348 0.2304228
vn 0.9327983 0.1951586 0.3029862
vn 0.9697866 -0.1490967 0.1930906
vn 0.924646 -0.32732 0.1946573
vn 0.8415654 -0.4863394 0.2350351
vn 0.7287132 -0.6105392 0.310192
vn 0.59711 -0.6878014 0.4127818
vn 0.4596519 -0.7105296 0.5327923
vn 0.3297964 -0.6765184 0.6584507
vn 0.220242 -0.5890877 0.7774762
vn 0.1417166 -0.4567947 0.8782111
vn 0.1019114 -0.2925878 0.9507926
vn 0.5424154 -0.784095 0.3016297
vn 0.7006668 -0.6908463 0.1783183
vn 0.377052 -0.8117763 0.445927
vn 0.2207408 -0.7711923 0.5971063
vn 0.08878886 -0.666317 0.7403634
vn -0.005893242 -0.5074026 0.8616889
vn -0.05402208 -0.3100039 0.9491993
vn -0.05089971 -0.09347212 0.9943199
vn 0.003172754 0.1210287 0.9926439
vn 0.4743567 -0.8610969 0.1830244
vn 0.6553544 -0.7541493 0.04206309
vn 0.8362883 -0.5411675 0.08808861
vn 0.9360096 -0.3497185 0.03978546
vn 0.9900792 -0.135241 0.0381204
vn 0.9932059 0.0813413 0.08322066
vn 0.9450812 0.2786883 0.170746
vn 0.9859949 -0.1180352 -0.1178204
vn 0.9893572 0.1296821 -0.0659915
vn 0.9243273 -0.3635094 -0.1161029
vn 0.8104061 -0.5826836 -0.06100767
vn 0.9576322 -0.09794763 -0.2708263
vn 0.9611372 0.1748692 -0.2136257
vn 0.8898918 -0.368352 -0.2690898
vn 0.7645603 -0.6098593 -0.2086126
vn 0.5938953 -0.7988846 -0.09524538
vn 0.3946142 -0.9168915 0.0599135
vn 0.1862196 -0.9523293 0.2416428
vn 0.2851454 -0.8930545 0.3480597
vn 0.106239 -0.846889 0.5210493
vn -0.04486245 -0.7271355 0.6850266
vn -0.1533656 -0.545517 0.8239479
vn -0.2086329 -0.319793 0.9242319
vn -0.2052729 -0.07206764 0.9760477
vn -0.1436158 0.1734017 0.9743235
vn -0.01088981 -0.9017366 0.4321487
vn -0.1774124 -0.7700529 0.6128159
vn -0.2970585 -0.5701889 0.7659248
vn -0.3581334 -0.3216983 0.8764992
vn -0.3546157 -0.04888639 0.9337332
vn -0.1277501 -0.9343686 0.332619
vn 0.08270124 -0.9881552 0.129266
vn 0.3051434 -0.9501081 -0.06467002
vn 0.5178125 -0.8239474 -0.2301757
vn 0.6998852 -0.6220295 -0.3510559
vn 0.8335302 -0.3641159 -0.415508
vn 0.9056704 -0.07542799 -0.4172192
vn 0.9092636 0.2157142 -0.3559591
vn -0.4952319 -0.02450275 0.8684151
vn 0.8314207 -0.05109066 -0.5532897
vn 0.8349814 0.251265 -0.4895629
vn 0.7566314 -0.3509199 -0.551692
vn 0.6179551 -0.6188685 -0.4849054
vn 0.4289677 -0.8287179 -0.3594627
vn 0.2081572 -0.9599249 -0.1876557
vn -0.02286451 -0.9996448 0.01369817
vn -0.2414773 -0.9439876 0.2248915
vn -0.4262736 -0.7984037 0.4252555
vn -0.3056074 -0.7940099 0.5255019
vn -0.4334575 -0.5808157 0.6890339
vn -0.4987938 -0.3156561 0.8071963
vn -0.5591765 -0.577139 0.5951741
vn -0.6271811 -0.3018505 0.7180042
vn -0.6236173 0.0004926169 0.7817296
vn -0.3492561 -0.9303548 0.1116248
vn -0.5364515 -0.7831346 0.3145155
vn -0.6711389 -0.5592434 0.4866408
vn -0.7401235 -0.2806097 0.6111264
vn -0.7366529 0.02548311 0.6757906
vn -0.6334023 -0.7485726 0.1960627
vn -0.4484227 -0.8938109 -0.004378982
vn -0.1278695 -0.9865112 -0.1022009
vn 0.1060362 -0.9461 -0.3060247
vn 0.3295559 -0.8130779 -0.4798928
vn 0.5208212 -0.6004764 -0.6067728
vn 0.6611021 -0.3290803 -0.6742775
vn 0.7366648 -0.0254764 -0.675778
vn 0.5492759 -0.2991291 -0.7802678
vn 0.623767 0.0007643635 -0.7816099
vn 0.4108548 -0.5672829 -0.7137147
vn 0.2220291 -0.7774206 -0.5884899
vn 0.001299366 -0.9089719 -0.4168554
vn -0.2297213 -0.9490818 -0.2155729
vn 0.4239259 -0.2618127 -0.86703
vn 0.4955185 0.02698366 -0.8681781
vn 0.2907564 -0.5200987 -0.8030928
vn 0.1090295 -0.7226015 -0.6826124
vn -0.1034595 -0.8494583 -0.5174134
vn -0.3259197 -0.888271 -0.3236526
vn -0.5365553 -0.8352473 -0.1202922
vn -0.7147629 -0.6955713 0.07276313
vn -0.8431009 -0.4829066 0.2366052
vn -0.7665656 -0.5275697 0.3661249
vn -0.8348505 -0.2524596 0.4891716
vn -0.8315685 0.04983923 0.5531815
vn -0.9089881 -0.2180956 0.3552113
vn -0.006647374 -0.6499794 -0.7599227
vn -0.2056689 -0.7690198 -0.6052346
vn -0.61146 -0.7561227 -0.2332278
vn -0.7785091 -0.625448 -0.05232937
vn -0.9607483 -0.1783613 0.2124853
vn -0.8988684 -0.4263584 0.1012622
vn -0.3028026 -0.6696462 -0.6781479
vn -0.1221435 -0.5613551 -0.8185117
vn 0.163515 -0.4601249 -0.8726671
vn 0.2881708 -0.2180712 -0.9324175
vn 0.3550891 0.05253438 -0.9333552
vn 0.1453007 -0.1689349 -0.9748583
vn 0.2058839 0.0768192 -0.9755566
vn 0.03226389 -0.3888327 -0.9207433
vn -0.9888473 -0.1342299 0.0645242
vn -0.9325007 -0.3593108 -0.03658295
vn -0.823079 -0.5399228 -0.1761368
vn -0.6713082 -0.6583685 -0.3404355
vn -0.414075 -0.8055894 -0.4237542
vn -0.4920317 -0.7030699 -0.5134174
vn -0.557873 -0.5832457 -0.5904254
vn -0.392476 -0.5537652 -0.7343749
vn -0.2346431 -0.4589104 -0.8569386
vn -0.09980095 -0.3079496 -0.9461537
vn -0.001154849 -0.115618 -0.993293
vn -0.7146153 -0.5444129 -0.4392487
vn -0.8473789 -0.441104 -0.2955946
vn -0.2293843 -0.219469 -0.9482701
vn -0.1475624 -0.0594826 -0.9872624
vn -0.3413425 -0.3451861 -0.8742608
vn -0.4724652 -0.424269 -0.7725105
vn -0.6099589 -0.449047 -0.6529219
vn -0.7403226 -0.4170676 -0.5272354
vn -0.8508059 -0.3314455 -0.4077663
vn -0.9306048 -0.2005662 -0.3061828
vn -0.9431633 -0.2834188 -0.1735411
vn -0.9925917 -0.08679543 -0.0850189
vn -0.4396179 -0.2229505 -0.8700743
vn -0.353298 -0.1256058 -0.9270403
vn -0.5408252 -0.2843723 -0.7916062
vn -0.6470205 -0.3038146 -0.6993292
vn -0.7477911 -0.279453 -0.6022578
vn -0.8332909 -0.2136194 -0.5098951
vn -0.8951252 -0.1127827 -0.4313132
vn -0.5958706 -0.1374301 -0.7912339
vn -0.5270782 -0.09521689 -0.8444657
vn -0.6681858 -0.151127 -0.7284837
vn -0.7368475 -0.1349684 -0.6624495
vn 0.6017259 0.1396253 0.7864036
vn 0.5323942 0.09962672 0.8406134
vn 0.5463017 0.2864225 0.7870937
vn 0.4445624 0.2270611 0.8664915
vn 0.6524457 0.3036559 0.6943398
vn 0.6739705 0.1509081 0.7231809
vn 0.752668 0.277021 0.5972857
vn 0.742071 0.1323752 0.6571205
vn 0.4774041 0.4261791 0.7684119
vn 0.3458006 0.3489157 0.8710222
vn 0.3572422 0.1313772 0.9247258
vn 0.2329635 0.2246924 0.9461719
vn 0.6148662 0.448895 0.6484079
vn 0.744713 0.4148782 0.5227607
vn 0.8542811 0.3274351 0.4037202
vn 0.8371269 0.2091836 0.5054313
vn 0.9327983 0.1951586 0.3029862
vn 0.8975548 0.1067974 0.4277729
vn 0.8504075 0.4376054 0.2920763
vn 0.7184412 0.5425069 0.4353486
vn 0.9450812 0.2786883 0.170746
vn 0.2385482 0.462164 0.8541072
vn 0.1029021 0.3124892 0.9443313
vn 0.1498828 0.0656856 0.9865194
vn 0.003172754 0.1210287 0.9926439
vn 0.3967722 0.5554105 0.7308152
vn 0.5621326 0.5830933 0.5865229
vn 0.8255804 0.5370488 0.1731923
vn 0.674481 0.6567927 0.3371926
vn 0.9340836 0.3554057 0.03427073
vn 0.9893572 0.1296821 -0.0659915
vn 0.9932059 0.0813413 0.08322066
vn -0.02968629 0.3925973 0.9192313
vn -0.1436158 0.1734017 0.9743235
vn 0.1253657 0.564052 0.8161671
vn 0.3063713 0.6709855 0.6752148
vn 0.4955793 0.7029374 0.5101767
vn 0.7804441 0.6232162 0.0500849
vn 0.6139042 0.7549064 0.2307335
vn 0.9000856 0.4233535 -0.1030427
vn 0.9611372 0.1748692 -0.2136257
vn 0.009125257 0.6520512 0.7581201
vn -0.1615327 0.463033 0.8714973
vn -0.2868712 0.2215127 0.932007
vn -0.2052729 -0.07206764 0.9760477
vn -0.3546157 -0.04888639 0.9337332
vn 0.2084006 0.7700627 0.6029699
vn 0.4167913 0.8055037 0.4212468
vn 0.7160655 0.6940677 -0.07429767
vn 0.5382102 0.8344246 0.1185979
vn 0.8439305 0.4808631 -0.2378065
vn 0.9092636 0.2157142 -0.3559591
vn -0.4230635 0.2641617 0.8667387
vn -0.4952319 -0.02450275 0.8684151
vn -0.289414 0.5220747 0.8022951
vn -0.1073462 0.7239994 0.6813969
vn 0.105324 0.8501603 0.5158821
vn 0.3277607 0.8882096 0.3219574
vn 0.6340724 0.7478017 -0.1968368
vn 0.4492691 0.8933895 0.003532577
vn 0.7669635 0.5265558 -0.3667504
vn 0.8349814 0.251265 -0.4895629
vn -0.5488497 0.3003078 0.7801149
vn -0.6236173 0.0004926169 0.7817296
vn -0.4101664 0.5682695 0.7133255
vn -0.2211804 0.7781239 0.5878797
vn -0.0003661141 0.9093308 0.4160737
vn 0.2306551 0.949047 0.214728
vn 0.5364519 0.7831271 -0.3145334
vn 0.3492476 0.9303573 -0.1116311
vn 0.6711323 0.5592499 -0.4866425
vn 0.7401202 0.2806323 -0.61112
vn 0.7366648 -0.0254764 -0.675778
vn 0.8314207 -0.05109066 -0.5532897
vn -0.6610976 0.3290712 0.6742863
vn -0.7366529 0.02548311 0.6757906
vn -0.5208207 0.6004671 0.6067826
vn -0.3295524 0.8130814 0.4798893
vn -0.1060327 0.9461007 0.3060237
vn 0.1278638 0.9865119 0.1022014
vn 0.4256319 0.7991593 -0.4244784
vn 0.2406312 0.9444073 -0.2240347
vn 0.5587701 0.5781722 -0.5945528
vn 0.6270325 0.3030734 -0.7176188
vn 0.623767 0.0007643635 -0.7816099
vn -0.7570753 0.3497275 0.5518403
vn -0.8315685 0.04983923 0.5531815
vn -0.6186337 0.6178733 0.4853091
vn -0.4298123 0.8280104 0.3600834
vn -0.2090883 0.9595696 0.1884366
vn 0.02193155 0.9996771 -0.01283912
vn 0.3042926 0.7955203 -0.5239785
vn 0.1260894 0.9351953 -0.3309249
vn 0.432656 0.5828535 -0.6878158
vn 0.4985386 0.3180382 -0.8064187
vn 0.4955185 0.02698366 -0.8681781
vn -0.834408 0.3617691 0.415796
vn -0.9059941 0.07296629 0.4169542
vn -0.8348505 -0.2524596 0.4891716
vn -0.9089881 -0.2180956 0.3552113
vn -0.7012293 0.6200549 0.3518658
vn -0.5194923 0.8225462 0.2313989
vn -0.3070062 0.9494026 0.0661953
vn -0.08455072 0.98822 -0.1275641
vn 0.1754811 0.7722807 -0.6105644
vn 0.008448592 0.9029524 -0.4296575
vn 0.2958314 0.5731981 -0.7641516
vn 0.3577326 0.3251848 -0.8753755
vn 0.3550891 0.05253438 -0.9333552
vn -0.9580967 0.0942897 0.2704815
vn -0.9607483 -0.1783613 0.2124853
vn -0.8911728 0.3649032 0.2695492
vn -0.766549 0.6069597 0.2097676
vn -0.5963729 0.7968217 0.09702876
vn -0.3973471 0.9158555 -0.05765456
vn -0.1889557 0.9524218 -0.2391406
vn 0.04236799 0.730023 -0.682108
vn -0.1094172 0.8484731 -0.5178044
vn 0.1517745 0.5494198 -0.8216462
vn 0.2081138 0.3243344 -0.9227654
vn 0.2058839 0.0768192 -0.9755566
vn -0.9866159 0.1132813 0.1172874
vn -0.9888473 -0.1342299 0.0645242
vn -0.9260113 0.3590265 0.1166317
vn -0.8129715 0.5789366 0.06252629
vn -0.6585782 0.7514623 -0.03973921
vn -0.4779162 0.8597462 -0.1800904
vn -0.2886873 0.8931745 -0.3448174
vn -0.09181207 0.6697966 -0.7368467
vn -0.2245768 0.7731065 -0.5931876
vn 0.003981285 0.5121146 -0.858908
vn 0.05340775 0.3154983 -0.947422
vn 0.05164096 0.09919711 -0.9937268
vn -0.9908227 0.129504 -0.03871869
vn -0.9925917 -0.08679543 -0.0850189
vn -0.9380465 0.3442872 -0.03918239
vn -0.8393979 0.5366234 -0.08629288
vn -0.7045426 0.6876177 -0.1755039
vn -0.5467136 0.7824661 -0.2980791
vn -0.3813238 0.8119296 -0.4419983
vn -0.2237052 0.5930889 -0.7734349
vn -0.3341982 0.6787123 -0.6539581
vn -0.1438984 0.4622093 -0.8750176
vn -0.1026174 0.2988969 -0.948752
vn -0.1038787 0.1191335 -0.9874292
vn -0.1475624 -0.0594826 -0.9872624
vn -0.001154849 -0.115618 -0.993293
vn -0.9706448 0.1425135 -0.1937492
vn -0.9718971 -0.03725275 -0.23244
vn -0.9431633 -0.2834188 -0.1735411
vn -0.9306048 -0.2005662 -0.3061828
vn -0.8451576 0.4810907 -0.2329388
vn -0.7331735 0.6068344 -0.3069343
vn -0.464568 0.7107016 -0.5282799
vn -0.3501072 0.50178 -0.7909752
vn -0.435611 0.5676017 -0.6986211
vn -0.256115 0.2749332 -0.9267237
vn -0.2882566 0.4009236 -0.8695795
vn -0.9272745 0.01320898 -0.3741492
vn -0.8951252 -0.1127827 -0.4313132
vn -0.9265696 0.1519907 -0.3440459
vn -0.7437701 0.5110831 -0.4308132
vn -0.8300896 0.4137674 -0.3738286
vn -0.9269692 0.3211289 -0.1939184
vn -0.8930789 0.2900495 -0.3439205
vn -0.7945888 0.3362411 -0.50554
vn -0.8371962 0.2517843 -0.4854968
vn -0.73602 0.4028127 -0.5440741
vn -0.6672384 0.4449917 -0.5973067
vn -0.6425458 0.5725138 -0.5092769
vn -0.6020348 0.6859403 -0.4087051
vn -0.5363548 0.5919823 -0.601565
vn -0.5949451 0.4586833 -0.6600379
vn -0.5262634 0.442545 -0.7260858
vn -0.4678792 0.3981251 -0.7890409
vn -0.4254955 0.3297625 -0.8427398
vn -0.4032977 0.2442062 -0.8818812
vn -0.4034463 0.1497866 -0.90266
vn -0.2568276 0.1361358 -0.956821
vn -0.2903193 -0.001890113 -0.956928
vn -0.353298 -0.1256058 -0.9270403
vn -0.2293843 -0.219469 -0.9482701
vn -0.4259223 0.05576295 -0.9030398
vn -0.468518 -0.02865804 -0.882989
vn -0.5270782 -0.09521689 -0.8444657
vn -0.4396179 -0.2229505 -0.8700743
vn -0.5276774 0.2145388 -0.8219062
vn -0.5265417 0.1622117 -0.8345305
vn -0.5378966 0.1095615 -0.8358609
vn -0.5606234 0.06183692 -0.8257588
vn -0.5925087 0.02363826 -0.8052171
vn -0.6304073 -0.001283776 -0.7762635
vn -0.5958706 -0.1374301 -0.7912339
vn -0.6706875 -0.01050596 -0.7416656
vn -0.6681858 -0.151127 -0.7284837
vn -0.7093166 -0.003120735 -0.7048832
vn -0.7368475 -0.1349684 -0.6624495
vn -0.7424784 0.02015996 -0.6695666
vn -0.7952429 -0.09055007 -0.5994909
vn -0.7477911 -0.279453 -0.6022578
vn -0.8332909 -0.2136194 -0.5098951
vn -0.8376293 -0.0222158 -0.5457873
vn -0.859815 0.06333727 -0.5066622
vn -0.8596772 0.1577496 -0.4858706
vn -0.7670925 0.0571021 -0.6389903
vn -0.7806115 0.1040175 -0.6163003
vn -0.7817503 0.1563413 -0.6036752
vn -0.7703955 0.2089529 -0.6023533
vn -0.747672 0.2567063 -0.6124446
vn -0.7157912 0.2949191 -0.6329815
vn -0.6778421 0.3198878 -0.6619682
vn -0.6376128 0.3290864 -0.6965287
vn -0.5990059 0.3216917 -0.7332846
vn -0.565806 0.2984011 -0.7686484
vn -0.5412046 0.2614496 -0.7992131
vn -0.6640551 0.1616868 -0.7299919
vn 0.2329635 0.2246924 0.9461719
vn 0.1453007 -0.1689349 -0.9748583
vn 0.6640594 -0.1616938 0.7299864
g GVG_LaserGunTip_mesh_0
f 3/3/3 2/2/2 1/1/1
f 4/4/4 2/2/2 3/3/3
f 3/3/3 1/1/1 5/5/5
f 5/5/5 1/1/1 6/6/6
f 5/5/5 6/6/6 7/7/7
f 7/7/7 6/6/6 8/8/8
f 7/7/7 8/8/8 9/9/9
f 9/9/9 8/8/8 10/10/10
f 9/9/9 10/10/10 11/11/11
f 11/11/11 10/10/10 12/12/12
f 11/11/11 12/12/12 13/13/13
f 13/13/13 12/12/12 14/14/14
f 13/13/13 14/14/14 15/15/15
f 15/15/15 14/14/14 16/16/16
f 15/15/15 16/16/16 17/17/17
f 17/17/17 16/16/16 18/18/18
f 17/17/17 18/18/18 19/19/19
f 19/19/19 18/18/18 20/20/20
f 23/23/23 22/22/22 21/21/21
f 24/24/24 22/22/22 23/23/23
f 23/23/23 21/21/21 25/25/25
f 25/25/25 21/21/21 26/26/26
f 25/25/25 26/26/26 27/27/27
f 27/27/27 26/26/26 28/28/28
f 27/27/27 28/28/28 29/29/29
f 29/29/29 28/28/28 30/30/30
f 29/29/29 30/30/30 31/31/31
f 31/31/31 30/30/30 32/32/32
f 31/31/31 32/32/32 33/33/33
f 33/33/33 32/32/32 34/34/34
f 33/33/33 34/34/34 35/35/35
f 35/35/35 34/34/34 36/36/36
f 35/35/35 36/36/36 37/37/37
f 37/37/37 36/36/36 38/38/38
f 37/37/37 38/38/38 39/39/39
f 39/39/39 38/38/38 40/40/40
f 39/39/39 40/40/40 41/41/41
f 41/41/41 40/40/40 42/42/42
f 4/4/4 43/43/43 2/2/2
f 44/44/44 43/43/43 4/4/4
f 47/47/47 46/46/46 45/45/45
f 48/48/48 46/46/46 47/47/47
f 47/47/47 45/45/45 49/49/49
f 49/49/49 45/45/45 50/50/50
f 49/49/49 50/50/50 51/51/51
f 51/51/51 50/50/50 52/52/52
f 51/51/51 52/52/52 53/53/53
f 53/53/53 52/52/52 54/54/54
f 53/53/53 54/54/54 55/55/55
f 55/55/55 54/54/54 56/56/56
f 55/55/55 56/56/56 57/57/57
f 57/57/57 56/56/56 58/58/58
f 57/57/57 58/58/58 59/59/59
f 59/59/59 58/58/58 60/60/60
f 59/59/59 60/60/60 61/61/61
f 61/61/61 60/60/60 62/62/62
f 61/61/61 62/62/62 63/63/63
f 63/63/63 62/62/62 64/64/64
f 63/63/63 64/64/64 65/65/65
f 65/65/65 64/64/64 66/66/66
f 65/65/65 66/66/66 67/67/67
f 67/67/67 66/66/66 68/68/68
f 67/67/67 68/68/68 69/69/69
f 69/69/69 68/68/68 70/70/70
f 69/69/69 70/70/70 71/71/71
f 71/71/71 70/70/70 72/72/72
f 71/71/71 72/72/72 73/73/73
f 73/73/73 72/72/72 74/74/74
f 73/73/73 74/74/74 75/75/75
f 75/75/75 74/74/74 76/76/76
f 75/75/75 76/76/76 77/77/77
f 77/77/77 76/76/76 78/78/78
f 77/77/77 78/78/78 79/79/79
f 79/79/79 78/78/78 80/80/80
f 79/79/79 80/80/80 81/81/81
f 81/81/81 80/80/80 82/82/82
f 81/81/81 82/82/82 83/83/83
f 83/83/83 82/82/82 84/84/84
f 83/83/83 84/84/84 48/48/48
f 48/48/48 84/84/84 46/46/46
f 85/85/85 71/71/71 73/73/73
f 86/86/86 73/73/73 75/75/75
f 85/85/85 73/73/73 86/86/86
f 87/87/87 75/75/75 77/77/77
f 86/86/86 75/75/75 87/87/87
f 88/88/88 77/77/77 79/79/79
f 87/87/87 77/77/77 88/88/88
f 89/89/89 85/85/85 86/86/86
f 90/90/90 85/85/85 89/89/89
f 90/90/90 91/91/91 85/85/85
f 91/91/91 71/71/71 85/85/85
f 91/91/91 69/69/69 71/71/71
f 92/92/92 69/69/69 91/91/91
f 92/92/92 67/67/67 69/69/69
f 93/93/93 67/67/67 92/92/92
f 93/93/93 65/65/65 67/67/67
f 94/94/94 65/65/65 93/93/93
f 94/94/94 63/63/63 65/65/65
f 95/95/95 63/63/63 94/94/94
f 95/95/95 61/61/61 63/63/63
f 96/96/96 61/61/61 95/95/95
f 96/96/96 59/59/59 61/61/61
f 97/97/97 59/59/59 96/96/96
f 97/97/97 57/57/57 59/59/59
f 98/98/98 57/57/57 97/97/97
f 98/98/98 55/55/55 57/57/57
f 99/99/99 55/55/55 98/98/98
f 99/99/99 53/53/53 55/55/55
f 100/100/100 53/53/53 99/99/99
f 100/100/100 51/51/51 53/53/53
f 101/101/101 51/51/51 100/100/100
f 101/101/101 49/49/49 51/51/51
f 102/102/102 49/49/49 101/101/101
f 102/102/102 47/47/47 49/49/49
f 103/103/103 47/47/47 102/102/102
f 103/103/103 48/48/48 47/47/47
f 104/104/104 48/48/48 103/103/103
f 105/105/105 102/102/102 101/101/101
f 106/106/106 102/102/102 105/105/105
f 107/107/107 101/101/101 100/100/100
f 105/105/105 101/101/101 107/107/107
f 108/108/108 100/100/100 99/99/99
f 107/107/107 100/100/100 108/108/108
f 108/108/108 99/99/99 109/109/109
f 109/109/109 99/99/99 98/98/98
f 109/109/109 98/98/98 110/110/110
f 110/110/110 98/98/98 97/97/97
f 110/110/110 97/97/97 111/111/111
f 111/111/111 97/97/97 96/96/96
f 111/111/111 96/96/96 112/112/112
f 112/112/112 96/96/96 95/95/95
f 112/112/112 95/95/95 113/113/113
f 113/113/113 95/95/95 94/94/94
f 113/113/113 94/94/94 114/114/114
f 114/114/114 94/94/94 93/93/93
f 114/114/114 93/93/93 115/115/115
f 115/115/115 93/93/93 92/92/92
f 115/115/115 92/92/92 116/116/116
f 116/116/116 92/92/92 91/91/91
f 116/116/116 91/91/91 90/90/90
f 117/117/117 110/110/110 111/111/111
f 118/118/118 110/110/110 117/117/117
f 119/119/119 111/111/111 112/112/112
f 117/117/117 111/111/111 119/119/119
f 120/120/120 112/112/112 113/113/113
f 119/119/119 112/112/112 120/120/120
f 121/121/121 113/113/113 114/114/114
f 120/120/120 113/113/113 121/121/121
f 122/122/122 114/114/114 115/115/115
f 121/121/121 114/114/114 122/122/122
f 123/123/123 115/115/115 116/116/116
f 122/122/122 115/115/115 123/123/123
f 124/124/124 116/116/116 90/90/90
f 123/123/123 116/116/116 124/124/124
f 124/124/124 90/90/90 125/125/125
f 125/125/125 90/90/90 89/89/89
f 126/126/126 118/118/118 117/117/117
f 127/127/127 118/118/118 126/126/126
f 127/127/127 128/128/128 118/118/118
f 128/128/128 109/109/109 118/118/118
f 128/128/128 108/108/108 109/109/109
f 129/129/129 108/108/108 128/128/128
f 129/129/129 107/107/107 108/108/108
f 130/130/130 107/107/107 129/129/129
f 130/130/130 105/105/105 107/107/107
f 131/131/131 105/105/105 130/130/130
f 131/131/131 106/106/106 105/105/105
f 132/132/132 106/106/106 131/131/131
f 133/133/133 131/131/131 130/130/130
f 134/134/134 131/131/131 133/133/133
f 135/135/135 130/130/130 129/129/129
f 133/133/133 130/130/130 135/135/135
f 136/136/136 129/129/129 128/128/128
f 135/135/135 129/129/129 136/136/136
f 136/136/136 128/128/128 127/127/127
f 137/137/137 134/134/134 133/133/133
f 138/138/138 134/134/134 137/137/137
f 139/139/139 133/133/133 135/135/135
f 137/137/137 133/133/133 139/139/139
f 140/140/140 135/135/135 136/136/136
f 139/139/139 135/135/135 140/140/140
f 140/140/140 136/136/136 141/141/141
f 141/141/141 136/136/136 127/127/127
f 141/141/141 127/127/127 142/142/142
f 142/142/142 127/127/127 126/126/126
f 142/142/142 126/126/126 143/143/143
f 143/143/143 126/126/126 144/144/144
f 126/126/126 117/117/117 144/144/144
f 144/144/144 117/117/117 119/119/119
f 144/144/144 119/119/119 145/145/145
f 145/145/145 119/119/119 120/120/120
f 145/145/145 120/120/120 146/146/146
f 146/146/146 120/120/120 121/121/121
f 146/146/146 121/121/121 147/147/147
f 147/147/147 121/121/121 122/122/122
f 147/147/147 122/122/122 148/148/148
f 148/148/148 122/122/122 123/123/123
f 148/148/148 123/123/123 149/149/149
f 149/149/149 123/123/123 124/124/124
f 149/149/149 124/124/124 150/150/150
f 150/150/150 124/124/124 125/125/125
f 151/151/151 144/144/144 145/145/145
f 143/143/143 144/144/144 151/151/151
f 152/152/152 145/145/145 146/146/146
f 151/151/151 145/145/145 152/152/152
f 153/153/153 146/146/146 147/147/147
f 152/152/152 146/146/146 153/153/153
f 154/154/154 147/147/147 148/148/148
f 153/153/153 147/147/147 154/154/154
f 155/155/155 148/148/148 149/149/149
f 154/154/154 148/148/148 155/155/155
f 156/156/156 143/143/143 151/151/151
f 157/157/157 143/143/143 156/156/156
f 157/157/157 142/142/142 143/143/143
f 158/158/158 142/142/142 157/157/157
f 158/158/158 141/141/141 142/142/142
f 159/159/159 141/141/141 158/158/158
f 159/159/159 140/140/140 141/141/141
f 160/160/160 140/140/140 159/159/159
f 160/160/160 139/139/139 140/140/140
f 161/161/161 139/139/139 160/160/160
f 161/161/161 137/137/137 139/139/139
f 162/162/162 137/137/137 161/161/161
f 162/162/162 138/138/138 137/137/137
f 163/163/163 138/138/138 162/162/162
f 164/164/164 154/154/154 155/155/155
f 165/165/165 163/163/163 162/162/162
f 166/166/166 163/163/163 165/165/165
f 167/167/167 162/162/162 161/161/161
f 165/165/165 162/162/162 167/167/167
f 168/168/168 161/161/161 160/160/160
f 167/167/167 161/161/161 168/168/168
f 169/169/169 160/160/160 159/159/159
f 168/168/168 160/160/160 169/169/169
f 169/169/169 159/159/159 170/170/170
f 170/170/170 159/159/159 158/158/158
f 170/170/170 158/158/158 171/171/171
f 171/171/171 158/158/158 157/157/157
f 171/171/171 157/157/157 172/172/172
f 172/172/172 157/157/157 156/156/156
f 172/172/172 156/156/156 173/173/173
f 173/173/173 156/156/156 174/174/174
f 156/156/156 151/151/151 174/174/174
f 174/174/174 151/151/151 152/152/152
f 174/174/174 152/152/152 175/175/175
f 175/175/175 152/152/152 153/153/153
f 175/175/175 153/153/153 176/176/176
f 176/176/176 153/153/153 154/154/154
f 176/176/176 154/154/154 164/164/164
f 177/177/177 174/174/174 175/175/175
f 173/173/173 174/174/174 177/177/177
f 178/178/178 175/175/175 176/176/176
f 177/177/177 175/175/175 178/178/178
f 179/179/179 176/176/176 164/164/164
f 178/178/178 176/176/176 179/179/179
f 180/180/180 171/171/171 172/172/172
f 181/181/181 172/172/172 173/173/173
f 180/180/180 172/172/172 181/181/181
f 182/182/182 173/173/173 177/177/177
f 181/181/181 173/173/173 182/182/182
f 183/183/183 177/177/177 178/178/178
f 182/182/182 177/177/177 183/183/183
f 184/184/184 178/178/178 179/179/179
f 183/183/183 178/178/178 184/184/184
f 185/185/185 180/180/180 181/181/181
f 186/186/186 180/180/180 185/185/185
f 186/186/186 187/187/187 180/180/180
f 187/187/187 171/171/171 180/180/180
f 187/187/187 170/170/170 171/171/171
f 188/188/188 170/170/170 187/187/187
f 188/188/188 169/169/169 170/170/170
f 189/189/189 169/169/169 188/188/188
f 189/189/189 168/168/168 169/169/169
f 190/190/190 168/168/168 189/189/189
f 190/190/190 167/167/167 168/168/168
f 191/191/191 167/167/167 190/190/190
f 191/191/191 165/165/165 167/167/167
f 192/192/192 165/165/165 191/191/191
f 193/193/193 192/192/192 191/191/191
f 194/194/194 192/192/192 193/193/193
f 195/195/195 191/191/191 190/190/190
f 193/193/193 191/191/191 195/195/195
f 196/196/196 190/190/190 189/189/189
f 195/195/195 190/190/190 196/196/196
f 197/197/197 189/189/189 188/188/188
f 196/196/196 189/189/189 197/197/197
f 197/197/197 188/188/188 198/198/198
f 198/198/198 188/188/188 187/187/187
f 198/198/198 187/187/187 186/186/186
f 199/199/199 194/194/194 193/193/193
f 200/200/200 194/194/194 199/199/199
f 201/201/201 193/193/193 195/195/195
f 199/199/199 193/193/193 201/201/201
f 202/202/202 195/195/195 196/196/196
f 201/201/201 195/195/195 202/202/202
f 203/203/203 196/196/196 197/197/197
f 202/202/202 196/196/196 203/203/203
f 204/204/204 197/197/197 198/198/198
f 203/203/203 197/197/197 204/204/204
f 205/205/205 198/198/198 186/186/186
f 204/204/204 198/198/198 205/205/205
f 205/205/205 186/186/186 206/206/206
f 206/206/206 186/186/186 185/185/185
f 206/206/206 185/185/185 207/207/207
f 207/207/207 185/185/185 208/208/208
f 185/185/185 181/181/181 208/208/208
f 208/208/208 181/181/181 182/182/182
f 208/208/208 182/182/182 209/209/209
f 209/209/209 182/182/182 183/183/183
f 209/209/209 183/183/183 210/210/210
f 210/210/210 183/183/183 184/184/184
f 211/211/211 208/208/208 209/209/209
f 207/207/207 208/208/208 211/211/211
f 212/212/212 201/201/201 202/202/202
f 213/213/213 202/202/202 203/203/203
f 212/212/212 202/202/202 213/213/213
f 214/214/214 204/204/204 205/205/205
f 215/215/215 205/205/205 206/206/206
f 214/214/214 205/205/205 215/215/215
f 216/216/216 207/207/207 211/211/211
f 217/217/217 207/207/207 216/216/216
f 215/215/215 206/206/206 217/217/217
f 217/217/217 206/206/206 207/207/207
f 218/218/218 212/212/212 213/213/213
f 219/219/219 212/212/212 218/218/218
f 219/219/219 220/220/220 212/212/212
f 220/220/220 201/201/201 212/212/212
f 220/220/220 199/199/199 201/201/201
f 221/221/221 199/199/199 220/220/220
f 221/221/221 200/200/200 199/199/199
f 222/222/222 200/200/200 221/221/221
f 223/223/223 222/222/222 221/221/221
f 224/224/224 222/222/222 223/223/223
f 225/225/225 221/221/221 220/220/220
f 223/223/223 221/221/221 225/225/225
f 225/225/225 220/220/220 219/219/219
f 226/226/226 217/217/217 216/216/216
f 227/227/227 217/217/217 226/226/226
f 227/227/227 215/215/215 217/217/217
f 228/228/228 215/215/215 227/227/227
f 228/228/228 214/214/214 215/215/215
f 229/229/229 214/214/214 228/228/228
f 229/229/229 230/230/230 214/214/214
f 230/230/230 204/204/204 214/214/214
f 230/230/230 203/203/203 204/204/204
f 213/213/213 203/203/203 230/230/230
f 231/231/231 213/213/213 230/230/230
f 231/231/231 230/230/230 229/229/229
f 218/218/218 213/213/213 231/231/231
f 232/232/232 218/218/218 231/231/231
f 233/233/233 218/218/218 232/232/232
f 233/233/233 219/219/219 218/218/218
f 234/234/234 219/219/219 233/233/233
f 234/234/234 225/225/225 219/219/219
f 235/235/235 225/225/225 234/234/234
f 235/235/235 223/223/223 225/225/225
f 236/236/236 223/223/223 235/235/235
f 237/237/237 231/231/231 229/229/229
f 232/232/232 231/231/231 237/237/237
f 237/237/237 229/229/229 238/238/238
f 239/239/239 236/236/236 235/235/235
f 240/240/240 236/236/236 239/239/239
f 241/241/241 235/235/235 234/234/234
f 239/239/239 235/235/235 241/241/241
f 242/242/242 234/234/234 233/233/233
f 241/241/241 234/234/234 242/242/242
f 243/243/243 233/233/233 232/232/232
f 242/242/242 233/233/233 243/243/243
f 244/244/244 232/232/232 237/237/237
f 243/243/243 232/232/232 244/244/244
f 245/245/245 237/237/237 238/238/238
f 244/244/244 237/237/237 245/245/245
f 245/245/245 238/238/238 246/246/246
f 246/246/246 238/238/238 247/247/247
f 238/238/238 228/228/228 247/247/247
f 238/238/238 229/229/229 228/228/228
f 247/247/247 228/228/228 227/227/227
f 247/247/247 227/227/227 248/248/248
f 248/248/248 227/227/227 226/226/226
f 249/249/249 239/239/239 241/241/241
f 250/250/250 239/239/239 249/249/249
f 251/251/251 241/241/241 242/242/242
f 249/249/249 241/241/241 251/251/251
f 252/252/252 242/242/242 243/243/243
f 251/251/251 242/242/242 252/252/252
f 253/253/253 243/243/243 244/244/244
f 252/252/252 243/243/243 253/253/253
f 254/254/254 244/244/244 245/245/245
f 253/253/253 244/244/244 254/254/254
f 255/255/255 245/245/245 246/246/246
f 254/254/254 245/245/245 255/255/255
f 256/256/256 249/249/249 251/251/251
f 257/257/257 249/249/249 256/256/256
f 258/258/258 251/251/251 252/252/252
f 256/256/256 251/251/251 258/258/258
f 259/259/259 252/252/252 253/253/253
f 258/258/258 252/252/252 259/259/259
f 262/262/262 261/261/261 260/260/260
f 263/263/263 261/261/261 262/262/262
f 262/262/262 260/260/260 264/264/264
f 264/264/264 260/260/260 265/265/265
f 264/264/264 265/265/265 266/266/266
f 266/266/266 265/265/265 267/267/267
f 268/268/268 263/263/263 262/262/262
f 269/269/269 263/263/263 268/268/268
f 269/269/269 270/270/270 263/263/263
f 271/271/271 270/270/270 269/269/269
f 272/272/272 262/262/262 264/264/264
f 268/268/268 262/262/262 272/272/272
f 273/273/273 264/264/264 266/266/266
f 272/272/272 264/264/264 273/273/273
f 273/273/273 266/266/266 274/274/274
f 274/274/274 266/266/266 275/275/275
f 274/274/274 275/275/275 276/276/276
f 276/276/276 275/275/275 277/277/277
f 278/278/278 273/273/273 274/274/274
f 279/279/279 273/273/273 278/278/278
f 279/279/279 272/272/272 273/273/273
f 280/280/280 274/274/274 276/276/276
f 278/278/278 274/274/274 280/280/280
f 281/281/281 271/271/271 269/269/269
f 282/282/282 271/271/271 281/281/281
f 282/282/282 283/283/283 271/271/271
f 284/284/284 283/283/283 282/282/282
f 281/281/281 269/269/269 285/285/285
f 286/286/286 272/272/272 279/279/279
f 286/286/286 268/268/268 272/272/272
f 285/285/285 268/268/268 286/286/286
f 285/285/285 269/269/269 268/268/268
f 287/287/287 279/279/279 278/278/278
f 288/288/288 279/279/279 287/287/287
f 288/288/288 286/286/286 279/279/279
f 289/289/289 278/278/278 280/280/280
f 287/287/287 278/278/278 289/289/289
f 289/289/289 280/280/280 290/290/290
f 290/290/290 280/280/280 291/291/291
f 292/292/292 284/284/284 282/282/282
f 293/293/293 284/284/284 292/292/292
f 294/294/294 282/282/282 281/281/281
f 292/292/292 282/282/282 294/294/294
f 295/295/295 281/281/281 285/285/285
f 294/294/294 281/281/281 295/295/295
f 296/296/296 285/285/285 286/286/286
f 295/295/295 285/285/285 296/296/296
f 296/296/296 286/286/286 288/288/288
f 297/297/297 288/288/288 287/287/287
f 298/298/298 288/288/288 297/297/297
f 298/298/298 296/296/296 288/288/288
f 299/299/299 287/287/287 289/289/289
f 297/297/297 287/287/287 299/299/299
f 300/300/300 289/289/289 290/290/290
f 299/299/299 289/289/289 300/300/300
f 301/301/301 292/292/292 294/294/294
f 302/302/302 292/292/292 301/301/301
f 302/302/302 293/293/293 292/292/292
f 303/303/303 293/293/293 302/302/302
f 303/303/303 304/304/304 293/293/293
f 305/305/305 304/304/304 303/303/303
f 306/306/306 294/294/294 295/295/295
f 301/301/301 294/294/294 306/306/306
f 307/307/307 295/295/295 296/296/296
f 306/306/306 295/295/295 307/307/307
f 307/307/307 296/296/296 298/298/298
f 308/308/308 298/298/298 297/297/297
f 309/309/309 298/298/298 308/308/308
f 309/309/309 307/307/307 298/298/298
f 310/310/310 297/297/297 299/299/299
f 308/308/308 297/297/297 310/310/310
f 311/311/311 299/299/299 300/300/300
f 310/310/310 299/299/299 311/311/311
f 312/312/312 305/305/305 303/303/303
f 313/313/313 305/305/305 312/312/312
f 314/314/314 303/303/303 302/302/302
f 312/312/312 303/303/303 314/314/314
f 315/315/315 302/302/302 301/301/301
f 314/314/314 302/302/302 315/315/315
f 316/316/316 301/301/301 306/306/306
f 315/315/315 301/301/301 316/316/316
f 317/317/317 306/306/306 307/307/307
f 316/316/316 306/306/306 317/317/317
f 317/317/317 307/307/307 309/309/309
f 318/318/318 309/309/309 308/308/308
f 319/319/319 309/309/309 318/318/318
f 319/319/319 317/317/317 309/309/309
f 320/320/320 308/308/308 310/310/310
f 318/318/318 308/308/308 320/320/320
f 321/321/321 310/310/310 311/311/311
f 320/320/320 310/310/310 321/321/321
f 322/322/322 313/313/313 312/312/312
f 323/323/323 313/313/313 322/322/322
f 324/324/324 312/312/312 314/314/314
f 322/322/322 312/312/312 324/324/324
f 325/325/325 314/314/314 315/315/315
f 324/324/324 314/314/314 325/325/325
f 326/326/326 315/315/315 316/316/316
f 325/325/325 315/315/315 326/326/326
f 327/327/327 316/316/316 317/317/317
f 326/326/326 316/316/316 327/327/327
f 327/327/327 317/317/317 319/319/319
f 328/328/328 319/319/319 318/318/318
f 329/329/329 319/319/319 328/328/328
f 329/329/329 327/327/327 319/319/319
f 330/330/330 318/318/318 320/320/320
f 328/328/328 318/318/318 330/330/330
f 331/331/331 320/320/320 321/321/321
f 330/330/330 320/320/320 331/331/331
f 331/331/331 321/321/321 332/332/332
f 332/332/332 321/321/321 333/333/333
f 334/334/334 323/323/323 322/322/322
f 335/335/335 323/323/323 334/334/334
f 336/336/336 322/322/322 324/324/324
f 334/334/334 322/322/322 336/336/336
f 337/337/337 324/324/324 325/325/325
f 336/336/336 324/324/324 337/337/337
f 338/338/338 325/325/325 326/326/326
f 337/337/337 325/325/325 338/338/338
f 339/339/339 326/326/326 327/327/327
f 338/338/338 326/326/326 339/339/339
f 339/339/339 327/327/327 329/329/329
f 340/340/340 329/329/329 328/328/328
f 341/341/341 329/329/329 340/340/340
f 341/341/341 339/339/339 329/329/329
f 342/342/342 328/328/328 330/330/330
f 340/340/340 328/328/328 342/342/342
f 343/343/343 330/330/330 331/331/331
f 342/342/342 330/330/330 343/343/343
f 344/344/344 331/331/331 332/332/332
f 343/343/343 331/331/331 344/344/344
f 345/345/345 335/335/335 334/334/334
f 346/346/346 335/335/335 345/345/345
f 347/347/347 334/334/334 336/336/336
f 345/345/345 334/334/334 347/347/347
f 348/348/348 336/336/336 337/337/337
f 347/347/347 336/336/336 348/348/348
f 349/349/349 337/337/337 338/338/338
f 348/348/348 337/337/337 349/349/349
f 350/350/350 338/338/338 339/339/339
f 349/349/349 338/338/338 350/350/350
f 350/350/350 339/339/339 341/341/341
f 351/351/351 341/341/341 340/340/340
f 352/352/352 341/341/341 351/351/351
f 352/352/352 350/350/350 341/341/341
f 353/353/353 340/340/340 342/342/342
f 351/351/351 340/340/340 353/353/353
f 354/354/354 342/342/342 343/343/343
f 353/353/353 342/342/342 354/354/354
f 355/355/355 343/343/343 344/344/344
f 354/354/354 343/343/343 355/355/355
f 356/356/356 346/346/346 345/345/345
f 357/357/357 346/346/346 356/356/356
f 357/357/357 358/358/358 346/346/346
f 359/359/359 358/358/358 357/357/357
f 360/360/360 345/345/345 347/347/347
f 356/356/356 345/345/345 360/360/360
f 361/361/361 347/347/347 348/348/348
f 360/360/360 347/347/347 361/361/361
f 362/362/362 348/348/348 349/349/349
f 361/361/361 348/348/348 362/362/362
f 363/363/363 349/349/349 350/350/350
f 362/362/362 349/349/349 363/363/363
f 363/363/363 350/350/350 352/352/352
f 364/364/364 352/352/352 351/351/351
f 365/365/365 352/352/352 364/364/364
f 365/365/365 363/363/363 352/352/352
f 366/366/366 351/351/351 353/353/353
f 364/364/364 351/351/351 366/366/366
f 367/367/367 353/353/353 354/354/354
f 366/366/366 353/353/353 367/367/367
f 368/368/368 354/354/354 355/355/355
f 367/367/367 354/354/354 368/368/368
f 369/369/369 359/359/359 357/357/357
f 370/370/370 359/359/359 369/369/369
f 371/371/371 357/357/357 356/356/356
f 369/369/369 357/357/357 371/371/371
f 372/372/372 356/356/356 360/360/360
f 371/371/371 356/356/356 372/372/372
f 373/373/373 360/360/360 361/361/361
f 372/372/372 360/360/360 373/373/373
f 374/374/374 361/361/361 362/362/362
f 373/373/373 361/361/361 374/374/374
f 375/375/375 362/362/362 363/363/363
f 374/374/374 362/362/362 375/375/375
f 375/375/375 363/363/363 365/365/365
f 376/376/376 365/365/365 364/364/364
f 377/377/377 365/365/365 376/376/376
f 377/377/377 375/375/375 365/365/365
f 378/378/378 364/364/364 366/366/366
f 376/376/376 364/364/364 378/378/378
f 379/379/379 366/366/366 367/367/367
f 378/378/378 366/366/366 379/379/379
f 380/380/380 367/367/367 368/368/368
f 379/379/379 367/367/367 380/380/380
f 381/381/381 370/370/370 369/369/369
f 382/382/382 370/370/370 381/381/381
f 383/383/383 369/369/369 371/371/371
f 381/381/381 369/369/369 383/383/383
f 384/384/384 371/371/371 372/372/372
f 383/383/383 371/371/371 384/384/384
f 385/385/385 372/372/372 373/373/373
f 384/384/384 372/372/372 385/385/385
f 386/386/386 373/373/373 374/374/374
f 385/385/385 373/373/373 386/386/386
f 387/387/387 374/374/374 375/375/375
f 386/386/386 374/374/374 387/387/387
f 387/387/387 375/375/375 377/377/377
f 388/388/388 377/377/377 376/376/376
f 389/389/389 377/377/377 388/388/388
f 389/389/389 387/387/387 377/377/377
f 390/390/390 376/376/376 378/378/378
f 388/388/388 376/376/376 390/390/390
f 391/391/391 378/378/378 379/379/379
f 390/390/390 378/378/378 391/391/391
f 392/392/392 379/379/379 380/380/380
f 391/391/391 379/379/379 392/392/392
f 393/393/393 382/382/382 381/381/381
f 394/394/394 382/382/382 393/393/393
f 395/395/395 381/381/381 383/383/383
f 393/393/393 381/381/381 395/395/395
f 396/396/396 383/383/383 384/384/384
f 395/395/395 383/383/383 396/396/396
f 397/397/397 384/384/384 385/385/385
f 396/396/396 384/384/384 397/397/397
f 398/398/398 385/385/385 386/386/386
f 397/397/397 385/385/385 398/398/398
f 399/399/399 386/386/386 387/387/387
f 398/398/398 386/386/386 399/399/399
f 399/399/399 387/387/387 389/389/389
f 400/400/400 389/389/389 388/388/388
f 401/401/401 389/389/389 400/400/400
f 401/401/401 399/399/399 389/389/389
f 402/402/402 388/388/388 390/390/390
f 400/400/400 388/388/388 402/402/402
f 403/403/403 390/390/390 391/391/391
f 402/402/402 390/390/390 403/403/403
f 404/404/404 391/391/391 392/392/392
f 403/403/403 391/391/391 404/404/404
f 404/404/404 392/392/392 405/405/405
f 405/405/405 392/392/392 406/406/406
f 407/407/407 394/394/394 393/393/393
f 408/408/408 394/394/394 407/407/407
f 408/408/408 409/409/409 394/394/394
f 410/410/410 409/409/409 408/408/408
f 411/411/411 395/395/395 396/396/396
f 412/412/412 396/396/396 397/397/397
f 411/411/411 396/396/396 412/412/412
f 413/413/413 398/398/398 399/399/399
f 413/413/413 399/399/399 401/401/401
f 414/414/414 401/401/401 400/400/400
f 415/415/415 401/401/401 414/414/414
f 415/415/415 413/413/413 401/401/401
f 416/416/416 402/402/402 403/403/403
f 417/417/417 402/402/402 416/416/416
f 414/414/414 400/400/400 417/417/417
f 417/417/417 400/400/400 402/402/402
f 418/418/418 410/410/410 408/408/408
f 419/419/419 410/410/410 418/418/418
f 420/420/420 408/408/408 407/407/407
f 418/418/418 408/408/408 420/420/420
f 421/421/421 411/411/411 412/412/412
f 422/422/422 411/411/411 421/421/421
f 422/422/422 423/423/423 411/411/411
f 423/423/423 395/395/395 411/411/411
f 423/423/423 393/393/393 395/395/395
f 407/407/407 393/393/393 423/423/423
f 420/420/420 407/407/407 424/424/424
f 424/424/424 407/407/407 423/423/423
f 424/424/424 423/423/423 422/422/422
f 425/425/425 424/424/424 422/422/422
f 426/426/426 424/424/424 425/425/425
f 426/426/426 420/420/420 424/424/424
f 427/427/427 422/422/422 421/421/421
f 425/425/425 422/422/422 427/427/427
f 427/427/427 421/421/421 428/428/428
f 428/428/428 421/421/421 429/429/429
f 421/421/421 412/412/412 429/429/429
f 429/429/429 412/412/412 430/430/430
f 412/412/412 397/397/397 430/430/430
f 430/430/430 397/397/397 398/398/398
f 430/430/430 398/398/398 413/413/413
f 431/431/431 430/430/430 413/413/413
f 429/429/429 430/430/430 431/431/431
f 431/431/431 413/413/413 415/415/415
f 432/432/432 429/429/429 431/431/431
f 428/428/428 429/429/429 432/432/432
f 433/433/433 431/431/431 415/415/415
f 432/432/432 431/431/431 433/433/433
f 433/433/433 415/415/415 434/434/434
f 434/434/434 415/415/415 414/414/414
f 434/434/434 414/414/414 435/435/435
f 435/435/435 414/414/414 417/417/417
f 435/435/435 417/417/417 436/436/436
f 436/436/436 417/417/417 416/416/416
f 436/436/436 416/416/416 437/437/437
f 437/437/437 416/416/416 438/438/438
f 416/416/416 403/403/403 438/438/438
f 438/438/438 403/403/403 404/404/404
f 438/438/438 404/404/404 439/439/439
f 439/439/439 404/404/404 405/405/405
f 439/439/439 405/405/405 440/440/440
f 440/440/440 405/405/405 441/441/441
f 442/442/442 438/438/438 439/439/439
f 437/437/437 438/438/438 442/442/442
f 443/443/443 439/439/439 440/440/440
f 442/442/442 439/439/439 443/443/443
f 443/443/443 440/440/440 444/444/444
f 444/444/444 440/440/440 445/445/445
f 446/446/446 435/435/435 436/436/436
f 447/447/447 436/436/436 437/437/437
f 446/446/446 436/436/436 447/447/447
f 448/448/448 437/437/437 442/442/442
f 447/447/447 437/437/437 448/448/448
f 449/449/449 442/442/442 443/443/443
f 448/448/448 442/442/442 449/449/449
f 450/450/450 443/443/443 444/444/444
f 449/449/449 443/443/443 450/450/450
f 450/450/450 444/444/444 451/451/451
f 451/451/451 444/444/444 452/452/452
f 451/451/451 452/452/452 453/453/453
f 453/453/453 452/452/452 454/454/454
f 453/453/453 454/454/454 455/455/455
f 455/455/455 454/454/454 456/456/456
f 455/455/455 456/456/456 457/457/457
f 457/457/457 456/456/456 458/458/458
f 456/456/456 459/459/459 458/458/458
f 458/458/458 459/459/459 460/460/460
f 458/458/458 460/460/460 461/461/461
f 461/461/461 460/460/460 419/419/419
f 461/461/461 419/419/419 462/462/462
f 462/462/462 419/419/419 418/418/418
f 462/462/462 418/418/418 463/463/463
f 463/463/463 418/418/418 420/420/420
f 463/463/463 420/420/420 426/426/426
f 464/464/464 458/458/458 461/461/461
f 457/457/457 458/458/458 464/464/464
f 465/465/465 461/461/461 462/462/462
f 464/464/464 461/461/461 465/465/465
f 466/466/466 462/462/462 463/463/463
f 465/465/465 462/462/462 466/466/466
f 467/467/467 463/463/463 426/426/426
f 466/466/466 463/463/463 467/467/467
f 467/467/467 426/426/426 468/468/468
f 468/468/468 426/426/426 425/425/425
f 468/468/468 425/425/425 469/469/469
f 469/469/469 425/425/425 427/427/427
f 469/469/469 427/427/427 470/470/470
f 470/470/470 427/427/427 428/428/428
f 470/470/470 428/428/428 471/471/471
f 471/471/471 428/428/428 432/432/432
f 471/471/471 432/432/432 472/472/472
f 472/472/472 432/432/432 433/433/433
f 472/472/472 433/433/433 473/473/473
f 473/473/473 433/433/433 434/434/434
f 473/473/473 434/434/434 474/474/474
f 474/474/474 434/434/434 435/435/435
f 474/474/474 435/435/435 446/446/446
f 475/475/475 472/472/472 473/473/473
f 475/475/475 473/473/473 474/474/474
f 475/475/475 474/474/474 446/446/446
f 475/475/475 468/468/468 469/469/469
f 475/475/475 469/469/469 470/470/470
f 475/475/475 470/470/470 471/471/471
f 475/475/475 471/471/471 472/472/472
f 475/475/475 446/446/446 447/447/447
f 475/475/475 447/447/447 448/448/448
f 475/475/475 448/448/448 449/449/449
f 475/475/475 449/449/449 450/450/450
f 475/475/475 450/450/450 451/451/451
f 475/475/475 451/451/451 453/453/453
f 475/475/475 453/453/453 455/455/455
f 475/475/475 455/455/455 457/457/457
f 475/475/475 457/457/457 464/464/464
f 475/475/475 464/464/464 465/465/465
f 475/475/475 465/465/465 466/466/466
f 475/475/475 466/466/466 467/467/467
f 475/475/475 467/467/467 468/468/468
f 476/476/476 86/86/86 87/87/87
f 89/89/89 86/86/86 476/476/476
f 118/118/118 109/109/109 110/110/110
f 406/406/406 380/380/380 477/477/477
f 392/392/392 380/380/380 406/406/406
f 478/478/478 45/45/45 46/46/46
f 478/478/478 50/50/50 45/45/45
f 478/478/478 52/52/52 50/50/50
f 478/478/478 54/54/54 52/52/52
f 478/478/478 56/56/56 54/54/54
f 478/478/478 58/58/58 56/56/56
f 478/478/478 60/60/60 58/58/58
f 478/478/478 62/62/62 60/60/60
f 478/478/478 64/64/64 62/62/62
f 478/478/478 66/66/66 64/64/64
f 478/478/478 68/68/68 66/66/66
f 478/478/478 70/70/70 68/68/68
f 478/478/478 72/72/72 70/70/70
f 478/478/478 74/74/74 72/72/72
f 478/478/478 76/76/76 74/74/74
f 478/478/478 78/78/78 76/76/76
f 478/478/478 80/80/80 78/78/78
f 478/478/478 82/82/82 80/80/80
f 478/478/478 84/84/84 82/82/82
f 478/478/478 46/46/46 84/84/84
