g HeroTray
v 731.2995 49.00747 -324.4408
v 733.4805 46.00469 -321.2533
v 724.0363 48.92133 -315.7227
v 726.0991 45.91977 -312.3528
v 744.8882 46.12516 -333.6675
v 743.0739 49.12701 -336.7299
v 759.6441 46.21359 -344.8085
v 758.3445 49.22422 -349.2228
v 771.9638 46.38209 -351.8377
v 770.4639 49.38916 -356.0661
v 789.7684 46.46611 -359.8254
v 789.1061 49.48328 -363.7927
v 790.0844 21.50531 -355.9164
v 772.7402 21.42205 -348.1148
v 800.4589 21.57258 -358.3735
v 800.4589 46.5337 -363.0932
v 800.4589 49.55203 -366.2118
v 736.0353 21.06159 -318.8308
v 728.7481 19.33517 -310.9742
v 746.9188 21.18039 -331.2
v 760.6575 21.26027 -342.2234
v 719.5352 45.8767 -302.6877
v 722.1122 20.93366 -300.7706
v 711.7899 45.80382 -282.79
v 715.0383 20.86136 -281.6794
v 709.3263 45.66118 -267.9604
v 704.1258 48.63776 -270.3091
v 708.3149 48.79874 -285.3877
v 712.1756 20.71603 -266.4321
v 717.2562 48.8758 -305.3645
v 708.3149 48.79874 -285.3877
v 709.048 45.57586 -243.7112
v 703.7224 48.54751 -244.6705
v 703.5839 48.40802 -208.8662
v 708.8209 45.43155 -206.1514
v 711.6799 20.64255 -243.3643
v 708.8209 45.43155 -206.1514
v 711.1508 20.49781 -204.2505
v 721.2483 45.93528 -320.7112
v 731.2995 49.00747 -324.4408
v 724.0363 48.92133 -315.7227
v 728.2799 46.02165 -328.9702
v 743.0739 49.12701 -336.7299
v 741.5329 46.12943 -342.3911
v 758.3445 49.22422 -349.2228
v 756.5549 46.22869 -352.8931
v 770.4639 49.38916 -356.0661
v 740.1908 29.59579 -348.5982
v 754.4221 29.7596 -358.0956
v 722.6827 29.85555 -336.7907
v 768.9989 46.39178 -359.0457
v 766.34 29.97015 -364.6524
v 789.1061 49.48328 -363.7927
v 788.6027 46.4966 -367.9407
v 787.4315 30.11511 -376.1008
v 800.4589 46.56892 -370.8264
v 800.4589 30.21994 -381.6408
v 800.4589 49.55203 -366.2118
v 813.054 30.11511 -375.8699
v 812.3151 46.4966 -367.9407
v 834.5778 29.97015 -364.6524
v 831.9189 46.39178 -359.0457
v 846.7558 29.7596 -358.3265
v 844.3629 46.22869 -352.8931
v 860.7271 29.59579 -348.5982
v 859.3849 46.12943 -342.3911
v 842.5732 49.22422 -349.2229
v 857.8439 49.12701 -336.7299
v 830.454 49.38916 -356.0661
v 872.6379 46.02165 -328.9702
v 869.6183 49.00747 -324.4408
v 879.6696 45.93528 -320.7113
v 876.8815 48.92133 -315.7227
v 878.2352 29.85555 -336.7907
v 811.8117 49.48328 -363.7928
v 883.6655 33.32181 -328.6949
v 883.6616 48.8758 -305.3645
v 887.2971 45.88123 -309.3206
v 892.6028 48.79874 -285.3877
v 895.9225 31.72698 -316.3941
v 907.8974 31.72698 -293.9796
v 898.0438 45.78975 -289.128
v 913.5778 31.72698 -274.0214
v 918.6293 31.72698 -286.4017
v 945.2115 31.72698 -273.0273
v 935.692 31.72698 -257.0798
v 972.1028 31.72698 -261.7746
v 980.0204 31.72698 -282.4414
v 960.1042 31.72698 -291.2361
v 981.263 32.93442 -287.2011
v 1013.512 32.73571 -273.0221
v 1011.41 31.72698 -268.6112
v 999.5107 31.72698 -251.2307
v 1030.524 31.72698 -259.2873
v 1024.805 31.72698 -239.8876
v 989.8241 31.72698 -236.0432
v 1015.987 31.72698 -225.8234
v 979.4225 31.72698 -220.7117
v 1007.972 31.72698 -211.0652
v 965.3152 31.72698 -204.6638
v 1000.719 31.72698 -195.6197
v 965.1619 31.72698 -188.8154
v 999.6331 31.72698 -179.5079
v 960.7097 31.72698 -184.2097
v 1000.012 31.72698 -169.6248
v 999.6042 44.63186 -157.4796
v 953.2014 44.9566 -174.8775
v 998.2531 47.62506 -153.5278
v 1041.193 31.72698 -216.1212
v 1050.257 31.72698 -229.1129
v 1077.821 31.72698 -231.9999
v 1087.203 31.72698 -239.2865
v 1071.238 31.72698 -241.7278
v 1065.879 31.72698 -216.0775
v 1034.202 31.72698 -202.2083
v 1057.52 31.72698 -198.9611
v 1029.843 31.72698 -186.965
v 1054.316 31.72698 -180.2348
v 1029.267 31.72698 -169.8229
v 1055.532 31.72698 -159.0054
v 1030.563 31.72698 -157.8035
v 1058.505 31.72698 -146.1356
v 1030.484 44.42887 -145.3199
v 1028.849 47.42279 -141.1209
v 1064.082 44.32187 -131.0115
v 1066.136 47.31544 -124.722
v 1066.136 47.31544 -124.722
v 1095.734 44.2302 -113.8132
v 1100.469 47.2248 -105.9824
v 1103.867 46.85355 -104.4725
v 1058.505 31.72698 -146.1356
v 1095.734 44.2302 -113.8132
v 1099.501 46.36328 -112.2255
v 1107.1 45.4152 -103.0372
v 1110.381 44.21663 -96.87243
v 1103.069 44.23019 -110.7272
v 1087.587 47.20822 -132.687
v 1091.138 45.07516 -130.8843
v 1080.415 47.23629 -163.008
v 1084.067 45.10321 -161.317
v 1109.401 44.33619 -96.21805
v 1103.867 46.85355 -104.4725
v 1100.469 47.2248 -105.9824
v 1108.372 44.21663 -95.53224
v 1080.415 47.23629 -163.008
v 1082.484 47.26619 -188.9323
v 1082.484 47.26619 -188.9323
v 1085.601 45.13311 -187.3819
v 1088.667 47.29235 -211.9054
v 1091.354 45.15925 -210.577
v 1095.773 47.32153 -223.6567
v 1098.144 45.18845 -222.1886
v 1107.295 47.34809 -237.1103
v 1109.174 45.21498 -235.8712
v 1121.646 45.22916 -244.2445
v 1118.754 47.36223 -245.4151
v 857.8439 49.12701 -336.7299
v 841.2737 46.21359 -344.8086
v 842.5732 49.22422 -349.2229
v 828.954 46.38209 -351.8378
v 830.454 49.38916 -356.0661
v 856.0297 46.12516 -333.6675
v 869.6183 49.00747 -324.4408
v 867.4374 46.00469 -321.2533
v 876.8815 48.92133 -315.7227
v 874.8188 45.91978 -312.3528
v 811.1494 46.46611 -359.8255
v 811.8117 49.48328 -363.7928
v 864.8824 21.06158 -318.8308
v 872.1697 19.33517 -310.9742
v 853.999 21.18039 -331.2
v 840.2603 21.26027 -342.2234
v 881.3826 45.8767 -302.6877
v 883.6616 48.8758 -305.3645
v 889.1279 45.80382 -282.79
v 878.8055 20.93366 -300.7706
v 885.8794 20.86136 -281.6795
v 891.5916 45.66118 -267.9605
v 896.7921 48.63776 -270.3091
v 892.6028 48.79874 -285.3877
v 888.7422 20.71603 -266.4321
v 892.6028 48.79874 -285.3877
v 891.8698 45.57586 -243.7112
v 897.1954 48.54752 -244.6705
v 897.334 48.40802 -208.8663
v 892.097 45.43155 -206.1514
v 889.2379 20.64255 -243.3644
v 892.097 45.43155 -206.1514
v 889.7671 20.49781 -204.2506
v 910.0135 29.62819 -323.5107
v 883.6655 33.32181 -328.6949
v 878.2352 29.85555 -336.7907
v 908.2004 33.51508 -319.499
v 943.6472 33.33217 -304.8422
v 943.6472 33.33217 -304.8422
v 945.0172 29.4534 -308.9065
v 961.6613 33.13539 -296.4678
v 963.6419 29.24382 -300.2349
v 981.9553 29.02903 -291.5915
v 981.263 32.93442 -287.2011
v 1015.51 28.84423 -275.9833
v 1013.512 32.73571 -273.0221
v 981.263 32.93442 -287.2011
v 1031.784 28.6416 -268.3128
v 1031.148 32.54456 -264.6843
v 1075.326 28.40378 -249.0241
v 1073.066 32.32529 -245.9894
v 1103.211 28.23833 -245.9745
v 1094.521 33.13425 -243.1744
v 1073.066 32.32529 -245.9894
v 1103.211 28.23833 -245.9745
v 1115.041 45.22915 -245.9417
v 1122.647 29.28441 -251.3314
v 1118.754 47.36223 -245.4151
v 1127.642 31.4175 -251.3938
v 1094.521 33.13425 -243.1744
v 1087.203 31.72698 -239.2865
v 1105.3 45.21499 -238.4265
v 1118.754 47.36223 -245.4151
v 1107.295 47.34809 -237.1103
v 1095.773 47.32153 -223.6567
v 1093.26 45.18843 -225.2127
v 1088.667 47.29235 -211.9054
v 1085.825 45.15928 -213.3152
v 1082.484 47.26619 -188.9323
v 1079.191 45.13311 -190.5749
v 1082.484 47.26619 -188.9323
v 1076.558 45.10322 -164.7979
v 1083.837 45.07515 -134.5943
v 1095.734 44.2302 -113.8132
v 1080.415 47.23629 -163.008
v 1080.415 47.23629 -163.008
v 1087.587 47.20822 -132.687
v 1099.501 46.36328 -112.2255
v 1103.867 46.85355 -104.4725
v 1058.505 31.72698 -146.1356
v 1095.734 44.2302 -113.8132
v 1118.754 47.36223 -245.4151
v 1127.642 31.4175 -251.3938
v 1121.646 45.22916 -244.2445
v 1131.293 29.28442 -250.2748
v 950.971 47.95215 -170.1965
v 953.2014 44.9566 -174.8775
v 998.2531 47.62506 -153.5278
v 939.715 48.03441 -175.5234
v 996.8672 44.6151 -148.6971
v 950.971 47.95215 -170.1965
v 998.2531 47.62506 -153.5278
v 948.0367 44.95268 -165.8001
v 1028.511 44.41373 -135.474
v 1028.849 47.42279 -141.1209
v 998.2531 47.62506 -153.5278
v 1068.544 44.30968 -117.4483
v 1066.136 47.31544 -124.722
v 1066.136 47.31544 -124.722
v 1100.469 47.2248 -105.9824
v 1108.372 44.21663 -95.53224
v 936.5033 45.03688 -171.2321
v 950.971 47.95215 -170.1965
v 939.715 48.03441 -175.5234
v 929.3602 45.1192 -180.8819
v 933.1809 48.1118 -184.7934
v 928.5023 48.18278 -196.7376
v 924.764 45.19271 -193.6325
v 922.4276 45.21363 -195.6684
v 925.8253 48.20581 -198.8705
v 897.334 48.40802 -208.8663
v 892.097 45.43155 -206.1514
v 897.334 48.40802 -208.8663
v 1087.203 31.72698 -239.2865
v 1094.521 33.13425 -243.1744
v 1094.521 33.13425 -243.1744
v 1073.066 32.32529 -245.9894
v 1031.148 32.54456 -264.6843
v 1013.512 32.73571 -273.0221
v 675.0925 48.20581 -198.8705
v 703.5839 48.40802 -208.8662
v 678.4903 45.21363 -195.6683
v 708.8209 45.43155 -206.1514
v 672.4155 48.18278 -196.7376
v 676.1539 45.1927 -193.6325
v 671.5576 45.1192 -180.8819
v 667.7369 48.1118 -184.7934
v 661.2028 48.0344 -175.5234
v 664.4145 45.03688 -171.232
v 649.9468 47.95215 -170.1965
v 652.8812 44.95268 -165.8001
v 604.0505 44.6151 -148.6971
v 649.9468 47.95215 -170.1965
v 602.6648 47.62506 -153.5278
v 572.4072 44.41373 -135.4739
v 602.6648 47.62506 -153.5278
v 572.0691 47.42279 -141.1209
v 532.3734 44.30968 -117.4483
v 534.7816 47.31544 -124.722
v 500.4483 47.2248 -105.9824
v 534.7816 47.31544 -124.722
v 492.5461 44.21663 -95.53224
v 675.0925 48.20581 -198.8705
v 700.1216 45.40047 -210.7095
v 703.5839 48.40802 -208.8662
v 671.7684 45.19519 -201.1822
v 686.4987 31.72698 -218.0448
v 663.235 31.72698 -209.2424
v 703.7224 48.54751 -244.6705
v 699.7784 45.5273 -245.4085
v 686.0796 31.72698 -247.1768
v 669.3405 45.17399 -199.1387
v 672.4155 48.18278 -196.7376
v 667.7369 48.1118 -184.7934
v 664.9554 45.10621 -187.6158
v 656.9476 31.72698 -197.5057
v 661.3488 31.72698 -205.6795
v 650.6601 31.72698 -189.7512
v 658.4936 45.03199 -179.1028
v 661.2028 48.0344 -175.5234
v 655.3026 31.72698 -202.6868
v 656.1208 31.72698 -215.9624
v 674.0915 31.72698 -223.614
v 670.6277 31.72698 -239.4788
v 646.2615 31.72698 -230.6641
v 635.6026 31.72698 -204.6638
v 621.4954 31.72698 -220.7117
v 592.946 31.72698 -211.0652
v 584.9306 31.72698 -225.8234
v 611.0937 31.72698 -236.0432
v 576.113 31.72698 -239.8876
v 601.407 31.72698 -251.2307
v 570.3937 31.72698 -259.2873
v 589.5076 31.72698 -268.6111
v 600.1985 31.72698 -195.6197
v 635.6228 31.72698 -188.9411
v 601.2847 31.72698 -179.5078
v 640.082 31.72698 -184.4513
v 600.6293 31.72698 -169.7618
v 601.3136 44.63186 -157.4796
v 647.7164 44.9566 -174.8775
v 602.6648 47.62506 -153.5278
v 529.6802 31.72698 -241.7277
v 550.6609 31.72698 -229.1128
v 513.7154 31.72698 -239.2864
v 523.0966 31.72698 -231.9999
v 559.7244 31.72698 -216.1212
v 535.0384 31.72698 -216.0775
v 566.716 31.72698 -202.2083
v 543.3975 31.72698 -198.9611
v 571.075 31.72698 -186.965
v 546.6015 31.72698 -180.2347
v 571.6507 31.72698 -169.8229
v 545.3859 31.72698 -159.0054
v 570.3141 31.72698 -157.983
v 542.1578 31.72698 -146.4647
v 570.4337 44.42887 -145.3199
v 572.0691 47.42279 -141.1209
v 536.8359 44.32187 -131.0115
v 542.1578 31.72698 -146.4647
v 505.1833 44.2302 -113.8132
v 534.7816 47.31544 -124.722
v 505.1833 44.2302 -113.8132
v 534.7816 47.31544 -124.722
v 500.4483 47.2248 -105.9824
v 497.0511 46.85354 -104.4725
v 493.8179 45.4152 -103.0372
v 501.4165 46.36328 -112.2255
v 490.5369 44.21663 -96.87243
v 497.8493 44.23019 -110.7272
v 513.3306 47.20822 -132.687
v 509.7798 45.07516 -130.8843
v 520.5032 47.23629 -163.0079
v 516.8505 45.10321 -161.317
v 497.0511 46.85354 -104.4725
v 491.5169 44.33619 -96.21802
v 500.4483 47.2248 -105.9824
v 492.5461 44.21663 -95.53224
v 518.4334 47.26619 -188.9322
v 520.5032 47.23629 -163.0079
v 515.3171 45.13311 -187.3819
v 518.4334 47.26619 -188.9322
v 512.2504 47.29234 -211.9054
v 509.5641 45.15924 -210.577
v 505.145 47.32153 -223.6567
v 502.774 45.18845 -222.1886
v 493.6224 47.34809 -237.1102
v 491.7439 45.21498 -235.8711
v 479.2715 45.22916 -244.2445
v 482.1642 47.36223 -245.4151
v 602.6648 47.62506 -153.5278
v 647.7164 44.9566 -174.8775
v 649.9468 47.95215 -170.1965
v 661.2028 48.0344 -175.5234
v 505.1833 44.2302 -113.8132
v 542.1578 31.72698 -146.4647
v 517.0809 45.07515 -134.5943
v 524.3595 45.10322 -164.7979
v 521.7271 45.13311 -190.5748
v 515.0933 45.15928 -213.3152
v 507.6573 45.18843 -225.2127
v 495.6176 45.21499 -238.4265
v 505.145 47.32153 -223.6567
v 493.6224 47.34809 -237.1102
v 512.2504 47.29234 -211.9054
v 518.4334 47.26619 -188.9322
v 518.4334 47.26619 -188.9322
v 520.5032 47.23629 -163.0079
v 520.5032 47.23629 -163.0079
v 513.3306 47.20822 -132.687
v 482.1642 47.36223 -245.4151
v 485.877 45.22915 -245.9417
v 513.7154 31.72698 -239.2864
v 506.3969 33.13425 -243.1744
v 501.4165 46.36328 -112.2255
v 505.1833 44.2302 -113.8132
v 497.0511 46.85354 -104.4725
v 478.2712 29.28441 -251.3313
v 497.7066 28.23833 -245.9745
v 506.3969 33.13425 -243.1744
v 527.8516 32.32529 -245.9893
v 482.1642 47.36223 -245.4151
v 473.2755 31.4175 -251.3938
v 506.3969 33.13425 -243.1744
v 513.7154 31.72698 -239.2864
v 527.8516 32.32529 -245.9893
v 506.3969 33.13425 -243.1744
v 569.7698 32.54456 -264.6843
v 587.406 32.73571 -273.0221
v 620.8974 31.72698 -282.4413
v 628.815 31.72698 -261.7745
v 655.7063 31.72698 -273.0273
v 665.2258 31.72698 -257.0798
v 687.337 31.72698 -274.213
v 682.2885 31.72698 -286.4017
v 692.9958 31.72698 -294.3329
v 702.874 45.78975 -289.1279
v 713.6207 45.88123 -309.3206
v 704.9586 31.72698 -316.5804
v 717.1282 33.32181 -329.2159
v 699.764 45.61544 -271.4835
v 708.3149 48.79874 -285.3877
v 708.3149 48.79874 -285.3877
v 704.1258 48.63776 -270.3091
v 717.2562 48.8758 -305.3645
v 659.6771 31.72698 -300.8698
v 640.0453 31.72698 -292.2706
v 637.8985 31.72698 -246.498
v 525.5917 28.40378 -249.0241
v 527.8516 32.32529 -245.9893
v 497.7066 28.23833 -245.9745
v 569.7698 32.54456 -264.6843
v 569.1335 28.6416 -268.3127
v 587.406 32.73571 -273.0221
v 585.4075 28.84423 -275.9832
v 619.6548 32.93441 -287.2011
v 618.9626 29.02903 -291.5915
v 619.6548 32.93441 -287.2011
v 638.055 33.13539 -296.7008
v 637.0027 29.24382 -300.486
v 638.055 33.13539 -296.7008
v 655.91 29.4534 -309.2672
v 657.2799 33.33217 -305.2029
v 690.9044 29.62819 -323.5107
v 657.2799 33.33217 -305.2029
v 692.7174 33.51508 -319.4989
v 717.1282 33.32181 -329.2159
v 722.6827 29.85555 -336.7907
v 717.1282 33.32181 -329.2159
v 704.9586 31.72698 -316.5804
v 692.7174 33.51508 -319.4989
v 692.7174 33.51508 -319.4989
v 694.2854 31.72698 -314.5909
v 657.2799 33.33217 -305.2029
v 704.9586 31.72698 -316.5804
v 657.2799 33.33217 -305.2029
v 638.055 33.13539 -296.7008
v 638.055 33.13539 -296.7008
v 619.6548 32.93441 -287.2011
v 587.406 32.73571 -273.0221
v 479.2715 45.22916 -244.2445
v 473.2755 31.4175 -251.3938
v 482.1642 47.36223 -245.4151
v 469.6251 29.28442 -250.2748
v 643.9711 31.72698 -196.2117
v 897.334 48.40802 -208.8663
v 900.8353 45.40048 -210.7694
v 925.8253 48.20581 -198.8705
v 929.1494 45.19519 -201.1822
v 914.4989 31.72698 -217.678
v 937.5276 31.72698 -209.2341
v 901.1393 45.5273 -245.4086
v 897.1954 48.54752 -244.6705
v 897.334 48.40802 -208.8663
v 914.6525 31.72698 -247.1546
v 931.5773 45.17399 -199.1388
v 928.5023 48.18278 -196.7376
v 933.1809 48.1118 -184.7934
v 935.9624 45.10622 -187.6158
v 943.9755 31.72698 -197.2592
v 939.5233 31.72698 -205.2425
v 950.4235 31.72698 -189.7365
v 942.4242 45.03199 -179.1028
v 939.715 48.03441 -175.5234
v 945.6152 31.72698 -202.6868
v 944.7969 31.72698 -215.9624
v 926.8264 31.72698 -223.6141
v 930.29 31.72698 -239.4788
v 954.6563 31.72698 -230.6641
v 963.0193 31.72698 -246.498
v 901.1539 45.61544 -271.4836
v 896.7921 48.63776 -270.3091
v 892.6028 48.79874 -285.3877
v 906.6324 31.72698 -314.591
v 895.9225 31.72698 -316.3941
v 941.2501 31.72698 -300.5092
v 943.6472 33.33217 -304.8422
v 961.6613 33.13539 -296.4678
v 961.6613 33.13539 -296.4678
v 895.9225 31.72698 -316.3941
v 908.2004 33.51508 -319.499
v 943.6472 33.33217 -304.8422
v 908.2004 33.51508 -319.499
v 883.6655 33.32181 -328.6949
v 828.1777 21.42205 -348.1148
v 810.8334 21.50531 -355.9165
v 956.8716 31.72698 -196.031
vt 0.396936 0.621971
vt 0.400186 0.626721
vt 0.386111 0.634963
vt 0.389186 0.639985
vt 0.417186 0.608221
vt 0.414482 0.603657
vt 0.439176 0.591618
vt 0.437239 0.58504
vt 0.457535 0.581143
vt 0.4553 0.574842
vt 0.484069 0.569239
vt 0.483081 0.563327
vt 0.484539 0.575065
vt 0.458692 0.586691
vt 0.5 0.571403
vt 0.5 0.564369
vt 0.5 0.559722
vt 0.403993 0.630331
vt 0.393133 0.64204
vt 0.420212 0.611898
vt 0.440686 0.595471
vt 0.379404 0.654389
vt 0.383244 0.657246
vt 0.367861 0.684041
vt 0.372702 0.685696
vt 0.36419 0.706141
vt 0.35644 0.702641
vt 0.362683 0.68017
vt 0.368436 0.708418
vt 0.376008 0.650399
vt 0.362683 0.68017
vt 0.363775 0.742278
vt 0.355839 0.740848
vt 0.355632 0.794206
vt 0.363437 0.798251
vt 0.367697 0.742795
vt 0.363437 0.798251
vt 0.366909 0.801084
vt 0.381957 0.627529
vt 0.396936 0.621971
vt 0.386111 0.634963
vt 0.392436 0.615221
vt 0.414482 0.603657
vt 0.412186 0.595221
vt 0.437239 0.58504
vt 0.434572 0.57957
vt 0.4553 0.574842
vt 0.410186 0.585971
vt 0.431394 0.571817
vt 0.384094 0.603567
vt 0.453117 0.570401
vt 0.449155 0.562046
vt 0.483081 0.563327
vt 0.482331 0.557146
vt 0.480586 0.544985
vt 0.5 0.552845
vt 0.5 0.536729
vt 0.5 0.559722
vt 0.51877 0.545329
vt 0.517669 0.557145
vt 0.550846 0.562046
vt 0.546883 0.570401
vt 0.568994 0.571473
vt 0.565428 0.57957
vt 0.589814 0.585971
vt 0.587814 0.595221
vt 0.562761 0.58504
vt 0.585518 0.603657
vt 0.5447 0.574841
vt 0.607565 0.615221
vt 0.603065 0.621971
vt 0.618043 0.627529
vt 0.613889 0.634963
vt 0.615906 0.603567
vt 0.516918 0.563327
vt 0.623998 0.615631
vt 0.623993 0.650399
vt 0.62941 0.644504
vt 0.637317 0.68017
vt 0.642264 0.633963
vt 0.66011 0.667366
vt 0.645426 0.674596
vt 0.668575 0.697108
vt 0.676103 0.678659
vt 0.715717 0.69859
vt 0.701531 0.722356
vt 0.755792 0.715359
vt 0.767591 0.684561
vt 0.737911 0.671454
vt 0.769443 0.677467
vt 0.817501 0.698598
vt 0.814369 0.705171
vt 0.796636 0.731072
vt 0.842854 0.719066
vt 0.834331 0.747976
vt 0.782201 0.753705
vt 0.82119 0.768935
vt 0.7667 0.776553
vt 0.809245 0.790929
vt 0.745677 0.800468
vt 0.798437 0.813946
vt 0.745448 0.824086
vt 0.796819 0.837957
vt 0.738813 0.83095
vt 0.797383 0.852685
vt 0.796776 0.870784
vt 0.727624 0.844857
vt 0.794762 0.876674
vt 0.858754 0.783394
vt 0.872261 0.764033
vt 0.913338 0.759731
vt 0.927318 0.748872
vt 0.903527 0.745234
vt 0.895542 0.783459
vt 0.848334 0.804127
vt 0.883085 0.808967
vt 0.841838 0.826844
vt 0.87831 0.836874
vt 0.840981 0.85239
vt 0.880122 0.868511
vt 0.842912 0.870302
vt 0.884552 0.88769
vt 0.842794 0.888905
vt 0.840357 0.895163
vt 0.892863 0.910228
vt 0.895925 0.919601
vt 0.895925 0.919601
vt 0.940033 0.935858
vt 0.94709 0.947528
vt 0.952152 0.949778
vt 0.884552 0.88769
vt 0.940033 0.935858
vt 0.945647 0.938224
vt 0.956971 0.951917
vt 0.96186 0.961104
vt 0.950963 0.940457
vt 0.927892 0.907731
vt 0.933184 0.910418
vt 0.917203 0.862546
vt 0.922646 0.865066
vt 0.9604 0.962079
vt 0.952152 0.949778
vt 0.94709 0.947528
vt 0.958866 0.963101
vt 0.917203 0.862546
vt 0.920288 0.823912
vt 0.920288 0.823912
vt 0.924931 0.826223
vt 0.929502 0.789676
vt 0.933505 0.791656
vt 0.94009 0.772164
vt 0.943624 0.774352
vt 0.957262 0.752115
vt 0.960061 0.753962
vt 0.978648 0.741483
vt 0.974338 0.739739
vt 0.585518 0.603657
vt 0.560824 0.591618
vt 0.562761 0.58504
vt 0.542465 0.581143
vt 0.5447 0.574841
vt 0.582814 0.608221
vt 0.603065 0.621971
vt 0.599814 0.626721
vt 0.613889 0.634963
vt 0.610815 0.639985
vt 0.515931 0.569239
vt 0.516918 0.563327
vt 0.596007 0.630331
vt 0.606867 0.64204
vt 0.579788 0.611898
vt 0.559314 0.595471
vt 0.620596 0.654389
vt 0.623993 0.650399
vt 0.632139 0.684041
vt 0.616756 0.657246
vt 0.627298 0.685696
vt 0.63581 0.706141
vt 0.64356 0.702641
vt 0.637317 0.68017
vt 0.631564 0.708418
vt 0.637317 0.68017
vt 0.636225 0.742278
vt 0.644161 0.740848
vt 0.644368 0.794206
vt 0.636563 0.798251
vt 0.632303 0.742795
vt 0.636563 0.798251
vt 0.633091 0.801084
vt 0.663263 0.623357
vt 0.623998 0.615631
vt 0.615906 0.603567
vt 0.660561 0.629336
vt 0.713386 0.651178
vt 0.713386 0.651178
vt 0.715427 0.645121
vt 0.740231 0.663658
vt 0.743183 0.658044
vt 0.770474 0.670925
vt 0.769443 0.677467
vt 0.820479 0.694185
vt 0.817501 0.698598
vt 0.769443 0.677467
vt 0.844732 0.705616
vt 0.843783 0.711023
vt 0.90962 0.73436
vt 0.906252 0.738883
vt 0.951175 0.738905
vt 0.938225 0.743078
vt 0.906252 0.738883
vt 0.951175 0.738905
vt 0.968804 0.738954
vt 0.980139 0.730922
vt 0.974338 0.739739
vt 0.987584 0.730829
vt 0.938225 0.743078
vt 0.927318 0.748872
vt 0.954289 0.750153
vt 0.974338 0.739739
vt 0.957262 0.752115
vt 0.94009 0.772164
vt 0.936346 0.769845
vt 0.929502 0.789676
vt 0.925265 0.787576
vt 0.920288 0.823912
vt 0.915379 0.821464
vt 0.920288 0.823912
vt 0.911456 0.859878
vt 0.922303 0.904889
vt 0.940033 0.935858
vt 0.917203 0.862546
vt 0.917203 0.862546
vt 0.927892 0.907731
vt 0.945647 0.938224
vt 0.952152 0.949778
vt 0.884552 0.88769
vt 0.940033 0.935858
vt 0.974338 0.739739
vt 0.987584 0.730829
vt 0.978648 0.741483
vt 0.993024 0.732497
vt 0.7243 0.851833
vt 0.727624 0.844857
vt 0.794762 0.876674
vt 0.707526 0.843895
vt 0.792697 0.883872
vt 0.7243 0.851833
vt 0.794762 0.876674
vt 0.719927 0.858385
vt 0.839853 0.903578
vt 0.840357 0.895163
vt 0.794762 0.876674
vt 0.899513 0.930441
vt 0.895925 0.919601
vt 0.895925 0.919601
vt 0.94709 0.947528
vt 0.958866 0.963101
vt 0.70274 0.85029
vt 0.7243 0.851833
vt 0.707526 0.843895
vt 0.692095 0.835909
vt 0.697788 0.83008
vt 0.690816 0.81228
vt 0.685245 0.816907
vt 0.681763 0.813874
vt 0.686827 0.809102
vt 0.644368 0.794206
vt 0.636563 0.798251
vt 0.644368 0.794206
vt 0.927318 0.748872
vt 0.938225 0.743078
vt 0.938225 0.743078
vt 0.906252 0.738883
vt 0.843783 0.711023
vt 0.817501 0.698598
vt 0.313173 0.809102
vt 0.355632 0.794206
vt 0.318237 0.813874
vt 0.363437 0.798251
vt 0.309184 0.81228
vt 0.314755 0.816907
vt 0.307905 0.835909
vt 0.302212 0.83008
vt 0.292474 0.843895
vt 0.29726 0.85029
vt 0.2757 0.851833
vt 0.280073 0.858385
vt 0.207303 0.883872
vt 0.2757 0.851833
vt 0.205238 0.876674
vt 0.160147 0.903578
vt 0.205238 0.876674
vt 0.159643 0.895163
vt 0.100487 0.930441
vt 0.104075 0.919601
vt 0.05291 0.947528
vt 0.104075 0.919601
vt 0.041134 0.963101
vt 0.313173 0.809102
vt 0.350473 0.791459
vt 0.355632 0.794206
vt 0.30822 0.805657
vt 0.330171 0.780527
vt 0.295503 0.793645
vt 0.355839 0.740848
vt 0.349961 0.739749
vt 0.329547 0.737113
vt 0.304601 0.808702
vt 0.309184 0.81228
vt 0.302212 0.83008
vt 0.298066 0.825874
vt 0.286133 0.811136
vt 0.292692 0.798955
vt 0.276763 0.822692
vt 0.288437 0.83856
vt 0.292474 0.843895
vt 0.283681 0.803414
vt 0.284901 0.783631
vt 0.311682 0.772228
vt 0.30652 0.748585
vt 0.270208 0.761721
vt 0.254324 0.800468
vt 0.2333 0.776553
vt 0.190755 0.790929
vt 0.17881 0.768935
vt 0.217799 0.753705
vt 0.165669 0.747976
vt 0.203364 0.731072
vt 0.157146 0.719066
vt 0.185631 0.705171
vt 0.201563 0.813946
vt 0.254354 0.823899
vt 0.203181 0.837957
vt 0.260999 0.83059
vt 0.202205 0.852481
vt 0.203225 0.870784
vt 0.272376 0.844857
vt 0.205238 0.876674
vt 0.096473 0.745234
vt 0.12774 0.764033
vt 0.072682 0.748872
vt 0.086662 0.759731
vt 0.141246 0.783394
vt 0.104458 0.783459
vt 0.151666 0.804127
vt 0.116915 0.808967
vt 0.158161 0.826844
vt 0.12169 0.836874
vt 0.15902 0.85239
vt 0.119878 0.868511
vt 0.157028 0.870034
vt 0.115068 0.887199
vt 0.157206 0.888905
vt 0.159643 0.895163
vt 0.107137 0.910228
vt 0.115068 0.887199
vt 0.059967 0.935858
vt 0.104075 0.919601
vt 0.059967 0.935858
vt 0.104075 0.919601
vt 0.05291 0.947528
vt 0.047848 0.949778
vt 0.043029 0.951917
vt 0.054353 0.938224
vt 0.03814 0.961104
vt 0.049037 0.940457
vt 0.072108 0.907731
vt 0.066817 0.910418
vt 0.082797 0.862546
vt 0.077354 0.865066
vt 0.047848 0.949778
vt 0.0396 0.962079
vt 0.05291 0.947528
vt 0.041134 0.963101
vt 0.079713 0.823912
vt 0.082797 0.862546
vt 0.075069 0.826223
vt 0.079713 0.823912
vt 0.070498 0.789676
vt 0.066495 0.791656
vt 0.05991 0.772164
vt 0.056376 0.774352
vt 0.042738 0.752115
vt 0.039939 0.753962
vt 0.021352 0.741483
vt 0.025663 0.739739
vt 0.205238 0.876674
vt 0.272376 0.844857
vt 0.2757 0.851833
vt 0.292474 0.843895
vt 0.059967 0.935858
vt 0.115068 0.887199
vt 0.077697 0.904889
vt 0.088544 0.859878
vt 0.084621 0.821464
vt 0.074735 0.787576
vt 0.063654 0.769845
vt 0.045711 0.750154
vt 0.05991 0.772164
vt 0.042738 0.752115
vt 0.070498 0.789676
vt 0.079713 0.823912
vt 0.079713 0.823912
vt 0.082797 0.862546
vt 0.082797 0.862546
vt 0.072108 0.907731
vt 0.025663 0.739739
vt 0.031196 0.738954
vt 0.072682 0.748872
vt 0.061775 0.743078
vt 0.054353 0.938224
vt 0.059967 0.935858
vt 0.047848 0.949778
vt 0.019861 0.730922
vt 0.048825 0.738905
vt 0.061775 0.743078
vt 0.093748 0.738883
vt 0.025663 0.739739
vt 0.012416 0.730829
vt 0.061775 0.743078
vt 0.072682 0.748872
vt 0.093748 0.738883
vt 0.061775 0.743078
vt 0.156217 0.711023
vt 0.182499 0.698598
vt 0.232409 0.684561
vt 0.244208 0.715359
vt 0.284283 0.69859
vt 0.298469 0.722356
vt 0.331421 0.696823
vt 0.323897 0.678659
vt 0.339854 0.666839
vt 0.354575 0.674596
vt 0.37059 0.644504
vt 0.357681 0.633685
vt 0.375817 0.614855
vt 0.34994 0.70089
vt 0.362683 0.68017
vt 0.362683 0.68017
vt 0.35644 0.702641
vt 0.376008 0.650399
vt 0.2902 0.657097
vt 0.260944 0.669912
vt 0.257745 0.738125
vt 0.09038 0.73436
vt 0.093748 0.738883
vt 0.048825 0.738905
vt 0.156217 0.711023
vt 0.155268 0.705616
vt 0.182499 0.698598
vt 0.179521 0.694185
vt 0.230557 0.677467
vt 0.229526 0.670925
vt 0.230557 0.677467
vt 0.257978 0.66331
vt 0.25641 0.65767
vt 0.257978 0.66331
vt 0.284587 0.644583
vt 0.286628 0.65064
vt 0.336737 0.623357
vt 0.286628 0.65064
vt 0.339439 0.629336
vt 0.375817 0.614855
vt 0.384094 0.603567
vt 0.375817 0.614855
vt 0.357681 0.633685
vt 0.339439 0.629336
vt 0.339439 0.629336
vt 0.341775 0.63665
vt 0.286628 0.65064
vt 0.357681 0.633685
vt 0.286628 0.65064
vt 0.257978 0.66331
vt 0.257978 0.66331
vt 0.230557 0.677467
vt 0.182499 0.698598
vt 0.021352 0.741483
vt 0.012416 0.730829
vt 0.025663 0.739739
vt 0.006976 0.732497
vt 0.266795 0.813064
vt 0.644368 0.794206
vt 0.649585 0.791369
vt 0.686827 0.809102
vt 0.69178 0.805657
vt 0.669948 0.781074
vt 0.704266 0.793657
vt 0.650039 0.739749
vt 0.644161 0.740848
vt 0.644368 0.794206
vt 0.670177 0.737146
vt 0.695399 0.808702
vt 0.690816 0.81228
vt 0.697788 0.83008
vt 0.701934 0.825874
vt 0.713875 0.811503
vt 0.70724 0.799606
vt 0.723484 0.822713
vt 0.711563 0.83856
vt 0.707526 0.843895
vt 0.716319 0.803414
vt 0.715099 0.783631
vt 0.688319 0.772228
vt 0.69348 0.748585
vt 0.729792 0.761721
vt 0.742255 0.738125
vt 0.65006 0.70089
vt 0.64356 0.702641
vt 0.637317 0.68017
vt 0.658225 0.63665
vt 0.642264 0.633963
vt 0.709813 0.657635
vt 0.713386 0.651178
vt 0.740231 0.663658
vt 0.740231 0.663658
vt 0.642264 0.633963
vt 0.660561 0.629336
vt 0.713386 0.651178
vt 0.660561 0.629336
vt 0.623998 0.615631
vt 0.541308 0.586691
vt 0.515461 0.575065
vt 0.733093 0.813333
vn 0.4683788 0.7715966 0.4304185
vn 0.6542425 0.4930367 0.573482
vn 0.509737 0.7695752 0.3846064
vn 0.7118798 0.4106906 0.5697019
vn 0.5861349 0.4775093 0.6545462
vn 0.4077871 0.7787957 0.4766414
vn 0.4623339 0.5044429 0.7292356
vn 0.2994896 0.8258696 0.4777502
vn 0.3752503 0.533428 0.7580513
vn 0.2410212 0.8173837 0.523252
vn 0.2606358 0.5535467 0.7909837
vn 0.1754952 0.7975108 0.5772157
vn 0.3467887 0.1496475 0.9259282
vn 0.4432457 0.1337848 0.8863605
vn 0 0.1715947 0.9851677
vn 0 0.4774483 0.8786599
vn 0 0.7641374 0.6450535
vn 0.7408668 0.1288422 0.6591783
vn 0.796339 0.1155778 0.5937052
vn 0.6996695 0.1312546 0.7023068
vn 0.553841 0.1151853 0.8246166
vn 0.7718661 0.4644001 0.4342296
vn 0.9017916 0.1294988 0.4123129
vn 0.7862387 0.5642474 0.2518998
vn 0.9638423 0.131651 0.2316809
vn 0.9067805 0.412298 0.0880871
vn 0.5052427 0.8602763 0.06822401
vn 0.5479096 0.8115952 0.2027519
vn 0.9874877 0.1191246 0.1033319
vn 0.5777535 0.7639479 0.287375
vn 0.2744595 0.9582317 0.08039919
vn 0.7296609 0.6837486 0.009105498
vn 0.4861476 0.87384 0.008002907
vn 0.3553354 0.8876916 0.2928149
vn 0.8036371 0.5695906 0.1724355
vn 0.9944066 0.1047628 0.01343072
vn 0.9182422 0.3958973 0.009825527
vn 0.9954693 0.09407338 0.01381592
vn -0.5145541 0.7630285 -0.3911799
vn -0.3741925 0.8702788 -0.3203042
vn -0.4044927 0.8664728 -0.2925926
vn -0.5026277 0.7188565 -0.4802195
vn -0.3464694 0.8679755 -0.3557775
vn -0.4747995 0.6508163 -0.5924555
vn -0.3202818 0.8286108 -0.4591555
vn -0.4252398 0.5783661 -0.696178
vn -0.2886539 0.764448 -0.5764532
vn -0.5312753 0.329108 -0.7806628
vn -0.4698991 0.3312231 -0.8182213
vn -0.4991426 0.5569362 -0.6638364
vn -0.3594573 0.5714729 -0.7377052
vn -0.4264325 0.3780298 -0.8217353
vn -0.1942108 0.7990295 -0.5690641
vn -0.2966976 0.5887508 -0.751893
vn -0.3304308 0.4670531 -0.8201689
vn 0.003204367 0.6861881 -0.7274171
vn 0.01212059 0.5516576 -0.8339826
vn 0 0.8398026 -0.5428919
vn 0.3352331 0.455204 -0.8248686
vn 0.2952338 0.5829451 -0.7569756
vn 0.4162506 0.3725037 -0.8294435
vn 0.3552936 0.5738239 -0.7378975
vn 0.4669037 0.3424275 -0.8153186
vn 0.4263196 0.583132 -0.6915264
vn 0.5353947 0.3344818 -0.7755478
vn 0.4747991 0.6508167 -0.5924554
vn 0.320282 0.8286111 -0.4591549
vn 0.3464691 0.8679753 -0.355778
vn 0.2886548 0.7644464 -0.5764547
vn 0.5104017 0.7155061 -0.4770127
vn 0.3741927 0.8702785 -0.3203049
vn 0.5171871 0.7585723 -0.3963401
vn 0.404492 0.8664739 -0.2925904
vn 0.50647 0.5662849 -0.650238
vn 0.1942104 0.7990291 -0.569065
vn 0.4762293 0.6565543 -0.5849292
vn 0.4400641 0.8614232 -0.2535617
vn 0.5644363 0.7626286 -0.3159261
vn 0.4590709 0.874991 -0.1537683
vn 0.5390521 0.7562422 -0.3708377
vn 0.3427001 0.9270377 -0.1521769
vn 0.6176514 0.7607666 -0.1993513
vn 0.4048569 0.9130087 -0.05005911
vn 0 1 0
vn 0 1 0
vn 0 1 0
vn 0 1 0
vn -0.04543406 0.9933923 0.1053921
vn -0.06216941 0.988643 0.1368207
vn 0.06661418 0.9901466 -0.1231753
vn -0.08370005 0.9765952 0.1981318
vn -0.03823843 0.9955615 0.0859956
vn 0 1 0
vn -0.02980148 0.9972953 0.06718576
vn 0 1 0
vn 0 1 0
vn 0 1 0
vn 0 1 0
vn 0 1 0
vn 0 1 0
vn 0 1 0
vn 0 1 0
vn 0 1 0
vn 0.1789381 0.8862782 -0.4271911
vn 0.1465712 0.9134137 -0.3797266
vn 0.2431628 0.7453159 -0.6207866
vn 0.2296171 0.7866806 -0.5730703
vn 0.2020798 0.8308256 -0.5185485
vn 0 1 0
vn 0 1 0
vn -0.2537188 0.9425231 -0.2174329
vn -0.2981688 0.9030598 -0.3091575
vn -0.02424598 0.9961267 0.08452106
vn -0.2568643 0.957799 -0.1290032
vn 0 1 0
vn -0.2474255 0.9670012 -0.06073877
vn 0 1 0
vn -0.2591519 0.9657238 0.0147616
vn 0 1 0
vn -0.2602869 0.9613102 0.09018634
vn 0.1527129 0.9157925 -0.3714873
vn 0.075086 0.9300302 -0.3597305
vn 0.2477414 0.7621961 -0.5980647
vn 0.2187968 0.8260725 -0.5193576
vn 0.2848445 0.7453235 -0.6027907
vn 0.1691573 0.9281249 -0.3316174
vn 0.2398382 0.840318 -0.4861515
vn 0.1780381 0.8783126 -0.4436994
vn 0.1612973 0.9800817 -0.1158567
vn 0.3039342 0.9484556 -0.08975466
vn 0.234273 0.8418143 -0.4862765
vn 0.3035833 0.7871281 -0.5369046
vn 0.5588282 0.750463 -0.3528685
vn 0.51489 0.8131601 -0.2714018
vn 0.3242299 0.9446639 0.04985169
vn 0.5915651 0.7263089 -0.3500374
vn 0.5833371 0.7708303 -0.256005
vn 0.571485 0.7969816 -0.195513
vn 0.5325702 0.8432752 -0.07249788
vn 0.5305311 0.8474886 -0.01731427
vn 0.07735616 0.9685383 0.2365364
vn 0.1629122 0.986205 -0.02931396
vn 0.02200947 0.9962884 0.08321604
vn -0.09378213 0.9356464 0.340251
vn 0.3129537 0.9469383 -0.07326539
vn 0.2983509 0.9542497 0.01985693
vn 0.5190433 0.8518051 0.07086676
vn 0.54626 0.8309965 0.1050941
vn 0.5283747 0.8262641 0.1952118
vn 0.5323651 0.8081637 0.2519106
vn 0.4954749 0.8005871 0.3369939
vn 0.509248 0.7715612 0.3812605
vn 0.4443544 0.7518681 0.4870766
vn 0.4703001 0.7148176 0.5175457
vn 0.3841696 0.7391401 0.55325
vn 0.3679114 0.7782173 0.5089391
vn -0.4077905 0.7787904 0.4766469
vn -0.4623342 0.5044405 0.7292372
vn -0.2994909 0.8258685 0.4777514
vn -0.3752505 0.5334276 0.7580515
vn -0.2410218 0.8173829 0.523253
vn -0.5861357 0.4775058 0.6545481
vn -0.4683836 0.7715911 0.4304231
vn -0.6542441 0.4930357 0.5734811
vn -0.5097409 0.7695726 0.3846065
vn -0.7118821 0.4106906 0.5696992
vn -0.2606348 0.5535463 0.7909841
vn -0.1754951 0.7975094 0.5772175
vn -0.7408676 0.1288451 0.6591768
vn -0.79634 0.1155788 0.5937037
vn -0.69967 0.1312574 0.7023058
vn -0.5538406 0.115186 0.8246168
vn -0.7718669 0.4643993 0.434229
vn -0.5777556 0.7639461 0.287376
vn -0.7862388 0.5642468 0.2519008
vn -0.9017914 0.1295 0.412313
vn -0.9638417 0.1316548 0.2316811
vn -0.9067796 0.4123001 0.08808771
vn -0.5052451 0.8602749 0.06822466
vn -0.5479149 0.8115908 0.2027552
vn -0.9874871 0.119127 0.1033337
vn -0.274465 0.9582299 0.08040208
vn -0.7296615 0.6837478 0.009105465
vn -0.4861524 0.8738374 0.008002759
vn -0.3553367 0.8876909 0.2928151
vn -0.8036367 0.569591 0.1724358
vn -0.9944063 0.1047646 0.01343112
vn -0.9182419 0.3958981 0.0098261
vn -0.9954693 0.09407349 0.01381747
vn 0.2409879 0.7705777 -0.5900297
vn 0.4119294 0.7705714 -0.4863475
vn 0.50647 0.5662849 -0.650238
vn 0.1465415 0.9144475 -0.3772417
vn 0.1307346 0.9480029 -0.2901704
vn 0.2695686 0.7432577 -0.6122913
vn 0.2813911 0.7393234 -0.6117352
vn 0.1795072 0.9121597 -0.3684317
vn 0.2934462 0.7378023 -0.6078956
vn 0.2928497 0.7373152 -0.6087736
vn 0.1140491 0.9656127 -0.2336339
vn 0.3044807 0.6942801 -0.6521248
vn 0.1802032 0.9093904 -0.3748812
vn 0.295436 0.7156434 -0.6329076
vn 0.3155694 0.6732826 -0.6686602
vn 0.1363788 0.9470184 -0.2907865
vn 0.2309611 0.671389 -0.7041973
vn 0.05845236 0.9342273 -0.3518561
vn -0.08454305 0.4150067 -0.9058818
vn -0.2109597 0.4905162 -0.8455116
vn 0.1572928 0.6469858 -0.746102
vn -0.08454305 0.4150067 -0.9058818
vn -0.324898 0.4830389 -0.8130896
vn -0.1481724 0.2600395 -0.9541616
vn -0.07461009 0.6020416 -0.7949712
vn 0.371334 0.5081931 -0.7770784
vn -0.1935187 0.7093349 -0.6777865
vn -0.3317578 0.8541949 -0.4003594
vn -0.453467 0.7423951 -0.4931705
vn -0.2557979 0.5591025 -0.788652
vn -0.4585713 0.7361112 -0.4978479
vn -0.4840824 0.7888396 -0.378677
vn -0.4818095 0.785028 -0.3893465
vn -0.5094098 0.823925 -0.2482929
vn -0.5133834 0.8238832 -0.2401123
vn -0.5216475 0.8460795 -0.1096963
vn -0.4983011 0.860045 -0.1096295
vn -0.2994489 0.9507074 -0.08053457
vn -0.5185822 0.8542501 0.03645908
vn -0.5719668 0.7838867 0.2416104
vn -0.5494272 0.7867215 0.2814233
vn -0.2862827 0.957906 0.02140775
vn -0.5083472 0.861064 0.01232969
vn -0.5580075 0.8021894 0.212414
vn -0.5749936 0.7475052 0.3325932
vn -0.1330878 0.9571518 0.2571928
vn -0.1969417 0.9793593 0.04548967
vn -0.2303497 0.9711605 -0.06153173
vn 0.1672124 0.4165782 -0.8935898
vn 0.371334 0.5081931 -0.7770784
vn 0.578136 0.5587627 -0.5945948
vn 0.5239067 0.5597666 -0.642015
vn -0.006640399 0.9999664 -0.004804312
vn 0.2296171 0.7866806 -0.5730703
vn 0.1198565 0.9436184 -0.3085753
vn -0.01862714 0.9984817 -0.05184047
vn -0.174071 0.8588918 0.4816682
vn -0.1856194 0.8640127 0.4680038
vn -0.1795263 0.8624889 0.4731629
vn -0.1847131 0.8648674 0.4667819
vn -0.1912627 0.8663945 0.4612798
vn -0.1882559 0.8758748 0.4443007
vn -0.1017941 0.9593034 0.263391
vn -0.214005 0.8741826 0.4358974
vn -0.08185915 0.9857181 0.1471692
vn -0.2107959 0.8768284 0.4321308
vn -0.1154753 0.9260271 0.3593596
vn -0.09378213 0.9356464 0.340251
vn -0.2734701 0.8722327 0.4054926
vn -0.0664079 0.9814522 0.1798374
vn -0.21676 0.962429 0.1635405
vn -0.4468634 0.8609446 0.2430792
vn -0.4356042 0.8679505 0.2385603
vn -0.4207228 0.8539375 0.3062404
vn -0.4320685 0.8507946 0.2991074
vn -0.2639081 0.8332593 0.4858306
vn -0.2631598 0.8282556 0.4947117
vn -0.3553367 0.8876909 0.2928151
vn -0.3547436 0.8888033 0.2901477
vn -0.1610685 0.9529675 0.2567292
vn -0.2110715 0.9645081 -0.1586603
vn -0.04716431 0.9798504 0.1940842
vn -0.2073029 0.9739721 -0.09167188
vn 0.05072432 0.9702258 -0.2368309
vn 0.1363788 0.9470184 -0.2907865
vn 0.1340456 0.9526847 -0.2728068
vn 0.2631568 0.8282549 0.4947144
vn 0.3553354 0.8876916 0.2928149
vn 0.2639057 0.8332595 0.4858315
vn 0.3547435 0.8888034 0.2901478
vn 0.4207207 0.8539382 0.3062412
vn 0.4320641 0.8507973 0.2991064
vn 0.4468632 0.8609446 0.2430799
vn 0.4356073 0.8679485 0.2385617
vn 0.2167598 0.9624289 0.1635412
vn 0.2734702 0.8722332 0.4054913
vn 0.0664078 0.9814523 0.1798369
vn 0.1847129 0.8648683 0.4667803
vn 0.1740711 0.8588916 0.4816685
vn 0.1856195 0.8640131 0.4680029
vn 0.1795267 0.8624887 0.4731633
vn 0.1912629 0.8663946 0.4612795
vn 0.1017945 0.9593034 0.2633914
vn 0.1882553 0.8758755 0.4442996
vn 0.2140043 0.8741832 0.4358965
vn 0.08185829 0.9857184 0.1471672
vn 0.1154761 0.926027 0.3593596
vn 0.210795 0.8768294 0.4321291
vn 0.09378502 0.9356453 0.3402531
vn -0.3153084 0.7582715 -0.5706181
vn -0.490841 0.7887313 -0.3701053
vn -0.4897366 0.789929 -0.3690124
vn -0.3998655 0.6891977 -0.6042467
vn -0.3163763 0.9192126 -0.2344231
vn -0.1750478 0.9639211 -0.2005354
vn -0.6109102 0.7916983 0.001575283
vn -0.6837429 0.7297229 0.0002566113
vn -0.3060126 0.9520149 -0.004894503
vn -0.5715192 0.7236831 -0.3868444
vn -0.4949255 0.7916729 -0.3581937
vn -0.5393222 0.7920195 -0.2860707
vn -0.5976745 0.719287 -0.3541346
vn -0.4400818 0.8638626 -0.2450904
vn -0.4218687 0.8559025 -0.2990948
vn -0.2283984 0.9438864 -0.238564
vn -0.4000665 0.7627451 -0.5081011
vn -0.3053462 0.8445188 -0.4399451
vn 0 1 0
vn 0 1 0
vn 0 1 0
vn 0 1 0
vn 0 1 0
vn 0 1 0
vn 0 1 0
vn 0 1 0
vn 0 1 0
vn 0 1 0
vn 0 1 0
vn 0 1 0
vn 0.02980162 0.9972953 0.06718605
vn 0.03823824 0.9955615 0.0859954
vn 0 1 0
vn 0 1 0
vn 0 1 0
vn -0.174985 0.888037 -0.425171
vn -0.1454271 0.9152191 -0.3757992
vn -0.2419327 0.7487442 -0.6171309
vn -0.2285438 0.7890489 -0.5702365
vn -0.2020805 0.8308246 -0.51855
vn 0.02424604 0.9961267 0.08452107
vn 0 1 0
vn 0.2981687 0.90306 -0.3091572
vn 0.2537192 0.9425231 -0.2174324
vn 0 1 0
vn 0.256865 0.9577988 -0.1290035
vn 0 1 0
vn 0.2474257 0.9670011 -0.06073922
vn 0 1 0
vn 0.2591514 0.9657239 0.01476112
vn 0 1 0
vn 0.2626821 0.9604281 0.09260719
vn -0.1499642 0.9181319 -0.3668031
vn -0.06667841 0.9347013 -0.3491236
vn -0.2467166 0.7648948 -0.595035
vn -0.2187971 0.8260714 -0.519359
vn -0.2809424 0.7515277 -0.59689
vn -0.2276794 0.849041 -0.4767508
vn -0.3018409 0.7899738 -0.5336978
vn -0.2398386 0.8403172 -0.4861528
vn -0.174235 0.8813542 -0.4391548
vn -0.1691578 0.9281242 -0.3316188
vn -0.1612975 0.9800817 -0.1158568
vn -0.3039413 0.9484527 -0.08976167
vn -0.5148899 0.813159 -0.2714053
vn -0.5588239 0.7504665 -0.3528681
vn -0.324241 0.9446605 0.04984186
vn -0.5915582 0.726317 -0.3500323
vn -0.5833313 0.7708364 -0.2559997
vn -0.5714802 0.7969857 -0.1955098
vn -0.5325653 0.8432783 -0.07249714
vn -0.5305225 0.8474941 -0.0173148
vn -0.1629158 0.9862044 -0.02931628
vn -0.07736158 0.9685392 0.2365316
vn -0.02200969 0.9962884 0.08321586
vn 0.09378502 0.9356453 0.3402531
vn -0.2983415 0.9542527 0.01985456
vn -0.3129504 0.9469395 -0.07326416
vn -0.5462472 0.8310053 0.1050919
vn -0.5190329 0.8518116 0.0708644
vn -0.5283625 0.8262724 0.1952101
vn -0.5323641 0.8081638 0.2519121
vn -0.4954834 0.8005795 0.3369996
vn -0.5092597 0.7715507 0.3812667
vn -0.4443578 0.7518664 0.4870759
vn -0.4702997 0.7148188 0.5175444
vn -0.38417 0.7391449 0.5532435
vn -0.3679102 0.778224 0.5089296
vn -0.1198571 0.9436179 -0.3085769
vn -0.2285438 0.7890489 -0.5702365
vn 0.006640511 0.9999664 -0.004804928
vn 0.01862706 0.9984817 -0.05184099
vn 0.232818 0.9707161 -0.05921303
vn 0.2039804 0.9775659 0.05250665
vn 0.5719678 0.7838857 0.2416113
vn 0.5185786 0.8542524 0.03645792
vn 0.4983011 0.8600451 -0.1096293
vn 0.5133837 0.8238828 -0.240113
vn 0.4818054 0.7850318 -0.3893439
vn 0.4534658 0.7423977 -0.4931677
vn 0.4840724 0.7888491 -0.3786701
vn 0.4585695 0.7361178 -0.4978401
vn 0.5094044 0.8239284 -0.2482924
vn 0.5216476 0.8460795 -0.1096963
vn 0.2994499 0.950707 -0.08053527
vn 0.2862804 0.9579067 0.02140743
vn 0.5083436 0.861066 0.01233023
vn 0.5580002 0.8021957 0.2124096
vn 0.2557974 0.5591019 -0.7886524
vn 0.3248982 0.4830364 -0.813091
vn 0.3317578 0.8541952 -0.4003588
vn 0.1935183 0.7093342 -0.6777874
vn 0.5750028 0.7474945 0.3326014
vn 0.5519827 0.7838278 0.2844803
vn 0.1330881 0.9571511 0.2571954
vn 0.1481701 0.2600393 -0.954162
vn 0.08454308 0.4150057 -0.9058823
vn 0.2109592 0.4905149 -0.8455124
vn -0.1572924 0.6469877 -0.7461004
vn 0.07461295 0.6020397 -0.7949724
vn -0.3713282 0.5081921 -0.7770818
vn 0.04716427 0.9798505 0.194084
vn 0.2110716 0.9645081 -0.1586598
vn -0.05072388 0.9702263 -0.2368288
vn 0.2073026 0.9739721 -0.09167194
vn -0.1363791 0.9470184 -0.2907865
vn -0.1340466 0.9526839 -0.2728092
vn 0.04776782 0.9933495 0.1047624
vn 0 1 0
vn 0 1 0
vn 0 1 0
vn -0.4033714 0.9136605 -0.05015831
vn 0 1 0
vn -0.3404871 0.9280282 -0.1511035
vn -0.6157178 0.7626728 -0.1980452
vn -0.5620989 0.7647343 -0.3150019
vn -0.5363522 0.7613591 -0.3642235
vn -0.471393 0.6562275 -0.5891979
vn -0.6121859 0.7887295 -0.05598414
vn -0.4590745 0.8749891 -0.1537682
vn -0.2889453 0.9537439 -0.08296488
vn -0.5545585 0.8288923 -0.07350147
vn -0.4400645 0.8614227 -0.2535631
vn 0.04964492 0.9915188 0.1201074
vn 0.06912281 0.9868609 0.146039
vn 0 1 0
vn -0.2309611 0.6713904 -0.704196
vn -0.05845192 0.9342279 -0.3518546
vn 0.08454308 0.4150057 -0.9058823
vn -0.1363791 0.9470184 -0.2907865
vn -0.3155704 0.6732798 -0.6686625
vn -0.1802042 0.9093892 -0.3748836
vn -0.3044814 0.6942776 -0.6521271
vn -0.303232 0.7144199 -0.6305985
vn -0.3093169 0.7248125 -0.6156054
vn -0.1123848 0.9667131 -0.2298591
vn -0.1875413 0.9080126 -0.3746217
vn -0.3130583 0.7043393 -0.6371035
vn -0.3058746 0.7205905 -0.6222459
vn -0.2800568 0.7289634 -0.6246444
vn -0.2619401 0.7435046 -0.6152952
vn -0.2449111 0.7629282 -0.5982969
vn -0.127124 0.9481247 -0.2913745
vn -0.1476418 0.9143986 -0.3769312
vn -0.4071722 0.7700786 -0.4911108
vn -0.4991426 0.5569362 -0.6638364
vn -0.1390689 0.9275991 -0.3467272
vn 0.05127873 0.9822527 0.1804166
vn -0.05017973 0.9948071 -0.0885485
vn 0.09045897 0.9553998 0.28112
vn 0.0595112 0.9806775 0.1863595
vn 0.116825 0.948608 0.2940998
vn -0.3556978 0.9212942 -0.1571507
vn 0.02757071 0.9968208 0.07475318
vn 0.1161848 0.9572992 0.2647249
vn -0.05682753 0.9937551 -0.09602775
vn -0.06440561 0.9909022 -0.1181719
vn 0.08369938 0.9765954 0.1981305
vn -0.5781268 0.5587635 -0.594603
vn -0.3713282 0.5081921 -0.7770818
vn -0.1672088 0.4165771 -0.8935909
vn -0.5239046 0.5597667 -0.6420166
vn 0 1 0
vn 0.4850928 0.7950848 -0.36404
vn 0.4903653 0.7889186 -0.3703365
vn 0.3148461 0.7603045 -0.5681628
vn 0.4041287 0.684242 -0.6070362
vn 0.317242 0.91786 -0.2385174
vn 0.176727 0.9638036 -0.1996252
vn 0.6851409 0.7284105 -0.0003385577
vn 0.6097945 0.7925583 0.001415167
vn 0.2966192 0.9535851 -0.05189069
vn 0.308486 0.9512138 -0.005355008
vn 0.5731785 0.720471 -0.3903689
vn 0.4949226 0.7916773 -0.3581879
vn 0.5393203 0.7920213 -0.2860697
vn 0.5956778 0.7192788 -0.3574996
vn 0.4389241 0.8623322 -0.2524457
vn 0.4277326 0.8519864 -0.3019337
vn 0.228665 0.9437707 -0.2387655
vn 0.4027867 0.7622241 -0.506732
vn 0.3053459 0.8445197 -0.4399437
vn 0 1 0
vn 0 1 0
vn 0 1 0
vn 0 1 0
vn 0 1 0
vn 0 1 0
vn 0.612372 0.7885828 -0.05601436
vn 0.5545532 0.8288958 -0.07350128
vn 0.2889411 0.9537452 -0.08296446
vn -0.05943194 0.9806998 0.1862676
vn 0.3596972 0.9190787 -0.1609731
vn -0.05064309 0.9920214 0.1154508
vn -0.02884642 0.9968359 0.07406882
vn -0.1110482 0.9624395 0.2477471
vn 0.1368742 0.9515572 -0.2753261
vn -0.04802937 0.982167 0.1817724
vn -0.08814701 0.955305 0.2821746
vn -0.1201044 0.9486852 0.2925261
vn 0.05013932 0.994812 -0.08851652
vn 0.1299825 0.9339048 -0.333056
vn -0.4432454 0.1337848 0.8863606
vn -0.346788 0.1496481 0.9259285
vn 0 1 0
g HeroTray_0
f 3/3/3 2/2/2 1/1/1
f 4/4/4 2/2/2 3/3/3
f 2/2/2 5/5/5 1/1/1
f 1/1/1 5/5/5 6/6/6
f 5/5/5 7/7/7 6/6/6
f 6/6/6 7/7/7 8/8/8
f 7/7/7 9/9/9 8/8/8
f 8/8/8 9/9/9 10/10/10
f 9/9/9 11/11/11 10/10/10
f 10/10/10 11/11/11 12/12/12
f 11/11/11 9/9/9 13/13/13
f 13/13/13 9/9/9 14/14/14
f 9/9/9 7/7/7 14/14/14
f 15/15/15 11/11/11 13/13/13
f 16/16/16 11/11/11 15/15/15
f 11/11/11 17/17/17 12/12/12
f 16/16/16 17/17/17 11/11/11
f 2/2/2 4/4/4 18/18/18
f 18/18/18 4/4/4 19/19/19
f 20/20/20 2/2/2 18/18/18
f 5/5/5 2/2/2 20/20/20
f 21/21/21 5/5/5 20/20/20
f 7/7/7 5/5/5 21/21/21
f 14/14/14 7/7/7 21/21/21
f 4/4/4 22/22/22 19/19/19
f 19/19/19 22/22/22 23/23/23
f 22/22/22 24/24/24 23/23/23
f 23/23/23 24/24/24 25/25/25
f 24/24/24 26/26/26 25/25/25
f 24/24/24 27/27/27 26/26/26
f 28/28/28 27/27/27 24/24/24
f 25/25/25 26/26/26 29/29/29
f 22/22/22 30/30/30 24/24/24
f 24/24/24 30/30/30 31/31/31
f 27/27/27 32/32/32 26/26/26
f 33/33/33 32/32/32 27/27/27
f 33/33/33 34/34/34 32/32/32
f 32/32/32 34/34/34 35/35/35
f 32/32/32 36/36/36 26/26/26
f 26/26/26 36/36/36 29/29/29
f 32/32/32 37/37/37 36/36/36
f 36/36/36 37/37/37 38/38/38
f 22/22/22 3/3/3 30/30/30
f 4/4/4 3/3/3 22/22/22
f 41/41/41 40/40/40 39/39/39
f 39/39/39 40/40/40 42/42/42
f 43/43/43 42/42/42 40/40/40
f 44/44/44 42/42/42 43/43/43
f 45/45/45 44/44/44 43/43/43
f 46/46/46 44/44/44 45/45/45
f 47/47/47 46/46/46 45/45/45
f 46/46/46 48/48/48 44/44/44
f 49/49/49 48/48/48 46/46/46
f 44/44/44 50/50/50 42/42/42
f 48/48/48 50/50/50 44/44/44
f 51/51/51 49/49/49 46/46/46
f 51/51/51 46/46/46 47/47/47
f 52/52/52 49/49/49 51/51/51
f 53/53/53 51/51/51 47/47/47
f 54/54/54 52/52/52 51/51/51
f 54/54/54 51/51/51 53/53/53
f 55/55/55 52/52/52 54/54/54
f 56/56/56 55/55/55 54/54/54
f 53/53/53 56/56/56 54/54/54
f 57/57/57 55/55/55 56/56/56
f 58/58/58 56/56/56 53/53/53
f 56/56/56 59/59/59 57/57/57
f 60/60/60 59/59/59 56/56/56
f 60/60/60 61/61/61 59/59/59
f 62/62/62 61/61/61 60/60/60
f 62/62/62 63/63/63 61/61/61
f 64/64/64 63/63/63 62/62/62
f 64/64/64 65/65/65 63/63/63
f 66/66/66 65/65/65 64/64/64
f 67/67/67 66/66/66 64/64/64
f 68/68/68 66/66/66 67/67/67
f 69/69/69 64/64/64 62/62/62
f 67/67/67 64/64/64 69/69/69
f 68/68/68 70/70/70 66/66/66
f 71/71/71 70/70/70 68/68/68
f 70/70/70 71/71/71 72/72/72
f 72/72/72 71/71/71 73/73/73
f 66/66/66 74/74/74 65/65/65
f 70/70/70 74/74/74 66/66/66
f 69/69/69 62/62/62 75/75/75
f 75/75/75 62/62/62 60/60/60
f 70/70/70 76/76/76 74/74/74
f 72/72/72 76/76/76 70/70/70
f 77/77/77 72/72/72 73/73/73
f 78/78/78 72/72/72 77/77/77
f 79/79/79 78/78/78 77/77/77
f 72/72/72 80/80/80 76/76/76
f 78/78/78 80/80/80 72/72/72
f 78/78/78 81/81/81 80/80/80
f 82/82/82 81/81/81 78/78/78
f 82/82/82 83/83/83 81/81/81
f 81/81/81 83/83/83 84/84/84
f 84/84/84 83/83/83 85/85/85
f 85/85/85 83/83/83 86/86/86
f 85/85/85 86/86/86 87/87/87
f 88/88/88 85/85/85 87/87/87
f 89/89/89 85/85/85 88/88/88
f 90/90/90 89/89/89 88/88/88
f 90/90/90 88/88/88 91/91/91
f 88/88/88 87/87/87 92/92/92
f 92/92/92 87/87/87 93/93/93
f 92/92/92 93/93/93 94/94/94
f 94/94/94 93/93/93 95/95/95
f 93/93/93 96/96/96 95/95/95
f 95/95/95 96/96/96 97/97/97
f 96/96/96 98/98/98 97/97/97
f 97/97/97 98/98/98 99/99/99
f 98/98/98 100/100/100 99/99/99
f 99/99/99 100/100/100 101/101/101
f 100/100/100 102/102/102 101/101/101
f 101/101/101 102/102/102 103/103/103
f 102/102/102 104/104/104 103/103/103
f 103/103/103 104/104/104 105/105/105
f 105/105/105 104/104/104 106/106/106
f 106/106/106 104/104/104 107/107/107
f 106/106/106 107/107/107 108/108/108
f 97/97/97 99/99/99 109/109/109
f 110/110/110 97/97/97 109/109/109
f 95/95/95 97/97/97 110/110/110
f 110/110/110 109/109/109 111/111/111
f 112/112/112 110/110/110 111/111/111
f 113/113/113 110/110/110 112/112/112
f 111/111/111 109/109/109 114/114/114
f 109/109/109 115/115/115 114/114/114
f 114/114/114 115/115/115 116/116/116
f 115/115/115 117/117/117 116/116/116
f 116/116/116 117/117/117 118/118/118
f 117/117/117 119/119/119 118/118/118
f 118/118/118 119/119/119 120/120/120
f 119/119/119 121/121/121 120/120/120
f 120/120/120 121/121/121 122/122/122
f 113/113/113 95/95/95 110/110/110
f 94/94/94 95/95/95 113/113/113
f 115/115/115 101/101/101 117/117/117
f 99/99/99 101/101/101 115/115/115
f 109/109/109 99/99/99 115/115/115
f 117/117/117 103/103/103 119/119/119
f 101/101/101 103/103/103 117/117/117
f 119/119/119 105/105/105 121/121/121
f 103/103/103 105/105/105 119/119/119
f 121/121/121 105/105/105 123/123/123
f 123/123/123 105/105/105 106/106/106
f 106/106/106 124/124/124 123/123/123
f 108/108/108 124/124/124 106/106/106
f 125/125/125 121/121/121 123/123/123
f 123/123/123 126/126/126 125/125/125
f 124/124/124 127/127/127 123/123/123
f 127/127/127 128/128/128 125/125/125
f 129/129/129 128/128/128 127/127/127
f 130/130/130 128/128/128 129/129/129
f 132/132/132 131/131/131 125/125/125
f 131/131/131 121/121/121 125/125/125
f 134/134/134 133/133/133 130/130/130
f 134/134/134 130/130/130 135/135/135
f 136/136/136 133/133/133 134/134/134
f 136/136/136 137/137/137 133/133/133
f 138/138/138 137/137/137 136/136/136
f 138/138/138 139/139/139 137/137/137
f 140/140/140 139/139/139 138/138/138
f 135/135/135 142/142/142 141/141/141
f 142/142/142 143/143/143 141/141/141
f 141/141/141 143/143/143 144/144/144
f 140/140/140 146/146/146 145/145/145
f 148/148/148 147/147/147 140/140/140
f 148/148/148 149/149/149 147/147/147
f 150/150/150 149/149/149 148/148/148
f 150/150/150 151/151/151 149/149/149
f 152/152/152 151/151/151 150/150/150
f 152/152/152 153/153/153 151/151/151
f 154/154/154 153/153/153 152/152/152
f 154/154/154 155/155/155 153/153/153
f 153/153/153 155/155/155 156/156/156
f 159/159/159 158/158/158 157/157/157
f 159/159/159 160/160/160 158/158/158
f 161/161/161 160/160/160 159/159/159
f 157/157/157 158/158/158 162/162/162
f 157/157/157 162/162/162 163/163/163
f 163/163/163 162/162/162 164/164/164
f 163/163/163 164/164/164 165/165/165
f 165/165/165 164/164/164 166/166/166
f 161/161/161 167/167/167 160/160/160
f 168/168/168 167/167/167 161/161/161
f 169/169/169 166/166/166 164/164/164
f 170/170/170 166/166/166 169/169/169
f 171/171/171 164/164/164 162/162/162
f 169/169/169 164/164/164 171/171/171
f 171/171/171 162/162/162 172/172/172
f 172/172/172 162/162/162 158/158/158
f 173/173/173 165/165/165 166/166/166
f 170/170/170 173/173/173 166/166/166
f 174/174/174 165/165/165 173/173/173
f 175/175/175 174/174/174 173/173/173
f 176/176/176 175/175/175 173/173/173
f 176/176/176 173/173/173 170/170/170
f 177/177/177 175/175/175 176/176/176
f 177/177/177 178/178/178 175/175/175
f 178/178/178 179/179/179 175/175/175
f 175/175/175 179/179/179 180/180/180
f 181/181/181 178/178/178 177/177/177
f 182/182/182 174/174/174 175/175/175
f 178/178/178 183/183/183 179/179/179
f 179/179/179 183/183/183 184/184/184
f 183/183/183 185/185/185 184/184/184
f 186/186/186 185/185/185 183/183/183
f 178/178/178 187/187/187 183/183/183
f 181/181/181 187/187/187 178/178/178
f 187/187/187 188/188/188 183/183/183
f 189/189/189 188/188/188 187/187/187
f 192/192/192 191/191/191 190/190/190
f 190/190/190 191/191/191 193/193/193
f 194/194/194 190/190/190 193/193/193
f 196/196/196 190/190/190 195/195/195
f 197/197/197 196/196/196 195/195/195
f 198/198/198 196/196/196 197/197/197
f 198/198/198 197/197/197 199/199/199
f 199/199/199 197/197/197 200/200/200
f 199/199/199 200/200/200 201/201/201
f 201/201/201 203/203/203 202/202/202
f 201/201/201 202/202/202 204/204/204
f 204/204/204 202/202/202 205/205/205
f 204/204/204 205/205/205 206/206/206
f 206/206/206 205/205/205 207/207/207
f 206/206/206 207/207/207 208/208/208
f 211/211/211 210/210/210 209/209/209
f 212/212/212 211/211/211 209/209/209
f 213/213/213 211/211/211 212/212/212
f 214/214/214 213/213/213 212/212/212
f 215/215/215 213/213/213 214/214/214
f 217/217/217 212/212/212 216/216/216
f 218/218/218 212/212/212 217/217/217
f 218/218/218 219/219/219 212/212/212
f 220/220/220 219/219/219 218/218/218
f 220/220/220 218/218/218 221/221/221
f 221/221/221 218/218/218 222/222/222
f 221/221/221 222/222/222 223/223/223
f 218/218/218 112/112/112 222/222/222
f 222/222/222 112/112/112 111/111/111
f 222/222/222 111/111/111 224/224/224
f 223/223/223 222/222/222 224/224/224
f 223/223/223 224/224/224 225/225/225
f 224/224/224 111/111/111 114/114/114
f 224/224/224 114/114/114 226/226/226
f 227/227/227 224/224/224 226/226/226
f 226/226/226 114/114/114 116/116/116
f 226/226/226 116/116/116 228/228/228
f 228/228/228 116/116/116 118/118/118
f 228/228/228 118/118/118 229/229/229
f 229/229/229 118/118/118 120/120/120
f 229/229/229 120/120/120 230/230/230
f 231/231/231 226/226/226 228/228/228
f 225/225/225 226/226/226 232/232/232
f 233/233/233 228/228/228 229/229/229
f 232/232/232 228/228/228 233/233/233
f 234/234/234 229/229/229 230/230/230
f 233/233/233 229/229/229 234/234/234
f 234/234/234 230/230/230 235/235/235
f 237/237/237 120/120/120 236/236/236
f 240/240/240 239/239/239 238/238/238
f 241/241/241 239/239/239 240/240/240
f 244/244/244 243/243/243 242/242/242
f 242/242/242 243/243/243 245/245/245
f 248/248/248 247/247/247 246/246/246
f 246/246/246 247/247/247 249/249/249
f 246/246/246 250/250/250 248/248/248
f 252/252/252 250/250/250 251/251/251
f 250/250/250 253/253/253 251/251/251
f 251/251/251 253/253/253 254/254/254
f 253/253/253 256/256/256 255/255/255
f 257/257/257 256/256/256 253/253/253
f 249/249/249 259/259/259 258/258/258
f 258/258/258 259/259/259 260/260/260
f 258/258/258 260/260/260 261/261/261
f 261/261/261 260/260/260 262/262/262
f 262/262/262 263/263/263 261/261/261
f 261/261/261 263/263/263 264/264/264
f 263/263/263 265/265/265 264/264/264
f 266/266/266 265/265/265 263/263/263
f 266/266/266 267/267/267 265/265/265
f 265/265/265 269/269/269 268/268/268
f 271/271/271 113/113/113 270/270/270
f 273/273/273 113/113/113 272/272/272
f 273/273/273 94/94/94 113/113/113
f 274/274/274 94/94/94 273/273/273
f 274/274/274 92/92/92 94/94/94
f 275/275/275 92/92/92 274/274/274
f 275/275/275 88/88/88 92/92/92
f 278/278/278 277/277/277 276/276/276
f 279/279/279 277/277/277 278/278/278
f 280/280/280 278/278/278 276/276/276
f 281/281/281 278/278/278 280/280/280
f 281/281/281 280/280/280 282/282/282
f 282/282/282 280/280/280 283/283/283
f 283/283/283 284/284/284 282/282/282
f 282/282/282 284/284/284 285/285/285
f 284/284/284 286/286/286 285/285/285
f 285/285/285 286/286/286 287/287/287
f 287/287/287 289/289/289 288/288/288
f 288/288/288 289/289/289 290/290/290
f 290/290/290 291/291/291 288/288/288
f 293/293/293 291/291/291 292/292/292
f 293/293/293 294/294/294 291/291/291
f 295/295/295 294/294/294 293/293/293
f 297/297/297 296/296/296 294/294/294
f 294/294/294 296/296/296 298/298/298
f 301/301/301 300/300/300 299/299/299
f 299/299/299 300/300/300 302/302/302
f 300/300/300 303/303/303 302/302/302
f 302/302/302 303/303/303 304/304/304
f 305/305/305 300/300/300 301/301/301
f 306/306/306 303/303/303 300/300/300
f 306/306/306 300/300/300 305/305/305
f 307/307/307 303/303/303 306/306/306
f 308/308/308 299/299/299 302/302/302
f 309/309/309 299/299/299 308/308/308
f 309/309/309 308/308/308 310/310/310
f 310/310/310 308/308/308 311/311/311
f 308/308/308 312/312/312 311/311/311
f 313/313/313 312/312/312 308/308/308
f 308/308/308 302/302/302 313/313/313
f 313/313/313 302/302/302 304/304/304
f 312/312/312 314/314/314 311/311/311
f 311/311/311 314/314/314 315/315/315
f 311/311/311 315/315/315 310/310/310
f 310/310/310 315/315/315 316/316/316
f 304/304/304 317/317/317 313/313/313
f 317/317/317 312/312/312 313/313/313
f 317/317/317 314/314/314 312/312/312
f 318/318/318 317/317/317 304/304/304
f 318/318/318 304/304/304 319/319/319
f 320/320/320 318/318/318 319/319/319
f 321/321/321 318/318/318 320/320/320
f 321/321/321 322/322/322 318/318/318
f 323/323/323 322/322/322 321/321/321
f 324/324/324 322/322/322 323/323/323
f 324/324/324 323/323/323 325/325/325
f 325/325/325 323/323/323 326/326/326
f 325/325/325 326/326/326 327/327/327
f 327/327/327 326/326/326 328/328/328
f 327/327/327 328/328/328 329/329/329
f 329/329/329 328/328/328 330/330/330
f 331/331/331 322/322/322 324/324/324
f 331/331/331 332/332/332 322/322/322
f 333/333/333 332/332/332 331/331/331
f 333/333/333 334/334/334 332/332/332
f 335/335/335 334/334/334 333/333/333
f 336/336/336 334/334/334 335/335/335
f 337/337/337 334/334/334 336/336/336
f 338/338/338 337/337/337 336/336/336
f 339/339/339 327/327/327 329/329/329
f 340/340/340 327/327/327 339/339/339
f 340/340/340 325/325/325 327/327/327
f 341/341/341 340/340/340 339/339/339
f 342/342/342 340/340/340 341/341/341
f 342/342/342 343/343/343 340/340/340
f 344/344/344 343/343/343 342/342/342
f 344/344/344 345/345/345 343/343/343
f 346/346/346 345/345/345 344/344/344
f 346/346/346 347/347/347 345/345/345
f 348/348/348 347/347/347 346/346/346
f 348/348/348 349/349/349 347/347/347
f 350/350/350 349/349/349 348/348/348
f 350/350/350 351/351/351 349/349/349
f 352/352/352 351/351/351 350/350/350
f 343/343/343 325/325/325 340/340/340
f 343/343/343 324/324/324 325/325/325
f 345/345/345 324/324/324 343/343/343
f 345/345/345 331/331/331 324/324/324
f 347/347/347 331/331/331 345/345/345
f 347/347/347 333/333/333 331/331/331
f 349/349/349 333/333/333 347/347/347
f 349/349/349 335/335/335 333/333/333
f 351/351/351 335/335/335 349/349/349
f 353/353/353 335/335/335 351/351/351
f 336/336/336 335/335/335 353/353/353
f 353/353/353 354/354/354 336/336/336
f 336/336/336 354/354/354 338/338/338
f 353/353/353 351/351/351 355/355/355
f 355/355/355 351/351/351 356/356/356
f 355/355/355 356/356/356 357/357/357
f 353/353/353 358/358/358 354/354/354
f 355/355/355 359/359/359 358/358/358
f 355/355/355 360/360/360 353/353/353
f 358/358/358 359/359/359 361/361/361
f 361/361/361 359/359/359 362/362/362
f 362/362/362 364/364/364 363/363/363
f 365/365/365 362/362/362 363/363/363
f 363/363/363 364/364/364 366/366/366
f 364/364/364 367/367/367 366/366/366
f 366/366/366 367/367/367 368/368/368
f 367/367/367 369/369/369 368/368/368
f 368/368/368 369/369/369 370/370/370
f 372/372/372 371/371/371 365/365/365
f 372/372/372 373/373/373 371/371/371
f 374/374/374 373/373/373 372/372/372
f 376/376/376 375/375/375 370/370/370
f 370/370/370 378/378/378 377/377/377
f 378/378/378 379/379/379 377/377/377
f 377/377/377 379/379/379 380/380/380
f 379/379/379 381/381/381 380/380/380
f 380/380/380 381/381/381 382/382/382
f 381/381/381 383/383/383 382/382/382
f 382/382/382 383/383/383 384/384/384
f 383/383/383 385/385/385 384/384/384
f 386/386/386 385/385/385 383/383/383
f 389/389/389 388/388/388 387/387/387
f 390/390/390 388/388/388 389/389/389
f 392/392/392 350/350/350 391/391/391
f 350/350/350 348/348/348 393/393/393
f 393/393/393 348/348/348 394/394/394
f 348/348/348 346/346/346 394/394/394
f 394/394/394 346/346/346 395/395/395
f 346/346/346 344/344/344 395/395/395
f 395/395/395 344/344/344 396/396/396
f 344/344/344 342/342/342 396/396/396
f 396/396/396 342/342/342 397/397/397
f 342/342/342 341/341/341 397/397/397
f 397/397/397 341/341/341 398/398/398
f 397/397/397 398/398/398 399/399/399
f 399/399/399 398/398/398 400/400/400
f 401/401/401 397/397/397 399/399/399
f 396/396/396 397/397/397 401/401/401
f 402/402/402 396/396/396 401/401/401
f 395/395/395 396/396/396 403/403/403
f 394/394/394 395/395/395 404/404/404
f 405/405/405 395/395/395 402/402/402
f 406/406/406 394/394/394 405/405/405
f 398/398/398 407/407/407 400/400/400
f 408/408/408 407/407/407 398/398/398
f 409/409/409 408/408/408 398/398/398
f 410/410/410 408/408/408 409/409/409
f 393/393/393 394/394/394 406/406/406
f 411/411/411 393/393/393 406/406/406
f 412/412/412 393/393/393 411/411/411
f 413/413/413 412/412/412 411/411/411
f 412/412/412 350/350/350 393/393/393
f 408/408/408 415/415/415 414/414/414
f 416/416/416 415/415/415 408/408/408
f 416/416/416 417/417/417 415/415/415
f 408/408/408 414/414/414 418/418/418
f 418/418/418 414/414/414 419/419/419
f 421/421/421 339/339/339 420/420/420
f 423/423/423 339/339/339 422/422/422
f 339/339/339 329/329/329 422/422/422
f 422/422/422 329/329/329 424/424/424
f 329/329/329 330/330/330 424/424/424
f 424/424/424 330/330/330 425/425/425
f 330/330/330 426/426/426 425/425/425
f 330/330/330 427/427/427 426/426/426
f 427/427/427 428/428/428 426/426/426
f 427/427/427 429/429/429 428/428/428
f 429/429/429 430/430/430 428/428/428
f 428/428/428 430/430/430 431/431/431
f 431/431/431 430/430/430 432/432/432
f 432/432/432 430/430/430 433/433/433
f 434/434/434 432/432/432 433/433/433
f 435/435/435 432/432/432 434/434/434
f 39/39/39 435/435/435 434/434/434
f 436/436/436 435/435/435 39/39/39
f 42/42/42 436/436/436 39/39/39
f 50/50/50 436/436/436 42/42/42
f 433/433/433 430/430/430 437/437/437
f 433/433/433 437/437/437 438/438/438
f 439/439/439 434/434/434 433/433/433
f 438/438/438 437/437/437 440/440/440
f 441/441/441 434/434/434 438/438/438
f 441/441/441 39/39/39 434/434/434
f 431/431/431 432/432/432 442/442/442
f 431/431/431 442/442/442 428/428/428
f 428/428/428 442/442/442 443/443/443
f 426/426/426 428/428/428 443/443/443
f 437/437/437 305/305/305 440/440/440
f 306/306/306 305/305/305 437/437/437
f 430/430/430 306/306/306 437/437/437
f 307/307/307 306/306/306 430/430/430
f 429/429/429 307/307/307 430/430/430
f 320/320/320 307/307/307 429/429/429
f 444/444/444 320/320/320 429/429/429
f 444/444/444 429/429/429 427/427/427
f 328/328/328 444/444/444 427/427/427
f 328/328/328 427/427/427 330/330/330
f 326/326/326 444/444/444 328/328/328
f 326/326/326 323/323/323 444/444/444
f 444/444/444 323/323/323 321/321/321
f 321/321/321 320/320/320 444/444/444
f 320/320/320 303/303/303 307/307/307
f 319/319/319 303/303/303 320/320/320
f 319/319/319 304/304/304 303/303/303
f 447/447/447 446/446/446 445/445/445
f 446/446/446 448/448/448 445/445/445
f 445/445/445 448/448/448 449/449/449
f 448/448/448 450/450/450 449/449/449
f 449/449/449 450/450/450 451/451/451
f 450/450/450 452/452/452 451/451/451
f 451/451/451 454/454/454 453/453/453
f 454/454/454 455/455/455 453/453/453
f 453/453/453 457/457/457 456/456/456
f 457/457/457 458/458/458 456/456/456
f 459/459/459 458/458/458 455/455/455
f 459/459/459 460/460/460 458/458/458
f 462/462/462 460/460/460 461/461/461
f 462/462/462 463/463/463 460/460/460
f 460/460/460 463/463/463 464/464/464
f 467/467/467 466/466/466 465/465/465
f 469/469/469 466/466/466 468/468/468
f 468/468/468 470/470/470 469/469/469
f 469/469/469 432/432/432 471/471/471
f 442/442/442 432/432/432 469/469/469
f 469/469/469 472/472/472 442/442/442
f 472/472/472 473/473/473 442/442/442
f 442/442/442 474/474/474 443/443/443
f 475/475/475 443/443/443 474/474/474
f 426/426/426 443/443/443 475/475/475
f 476/476/476 426/426/426 475/475/475
f 41/41/41 39/39/39 441/441/441
f 479/479/479 478/478/478 477/477/477
f 477/477/477 478/478/478 480/480/480
f 315/315/315 337/337/337 316/316/316
f 315/315/315 334/334/334 337/337/337
f 314/314/314 334/334/334 315/315/315
f 314/314/314 332/332/332 334/334/334
f 481/481/481 332/332/332 314/314/314
f 322/322/322 332/332/332 481/481/481
f 481/481/481 314/314/314 317/317/317
f 318/318/318 481/481/481 317/317/317
f 322/322/322 481/481/481 318/318/318
f 484/484/484 483/483/483 482/482/482
f 485/485/485 483/483/483 484/484/484
f 485/485/485 486/486/486 483/483/483
f 487/487/487 486/486/486 485/485/485
f 483/483/483 486/486/486 488/488/488
f 489/489/489 483/483/483 488/488/488
f 490/490/490 483/483/483 489/489/489
f 488/488/488 486/486/486 491/491/491
f 485/485/485 484/484/484 492/492/492
f 492/492/492 484/484/484 493/493/493
f 494/494/494 492/492/492 493/493/493
f 495/495/495 492/492/492 494/494/494
f 495/495/495 496/496/496 492/492/492
f 492/492/492 496/496/496 497/497/497
f 497/497/497 485/485/485 492/492/492
f 487/487/487 485/485/485 497/497/497
f 495/495/495 498/498/498 496/496/496
f 499/499/499 498/498/498 495/495/495
f 494/494/494 499/499/499 495/495/495
f 500/500/500 499/499/499 494/494/494
f 497/497/497 501/501/501 487/487/487
f 497/497/497 496/496/496 501/501/501
f 496/496/496 498/498/498 501/501/501
f 487/487/487 501/501/501 502/502/502
f 503/503/503 487/487/487 502/502/502
f 503/503/503 502/502/502 504/504/504
f 504/504/504 502/502/502 505/505/505
f 502/502/502 100/100/100 505/505/505
f 505/505/505 100/100/100 98/98/98
f 504/504/504 486/486/486 503/503/503
f 486/486/486 487/487/487 503/503/503
f 491/491/491 486/486/486 504/504/504
f 505/505/505 98/98/98 506/506/506
f 506/506/506 504/504/504 505/505/505
f 506/506/506 98/98/98 96/96/96
f 93/93/93 506/506/506 96/96/96
f 87/87/87 506/506/506 93/93/93
f 87/87/87 86/86/86 506/506/506
f 86/86/86 504/504/504 506/506/506
f 86/86/86 491/491/491 504/504/504
f 83/83/83 491/491/491 86/86/86
f 83/83/83 488/488/488 491/491/491
f 507/507/507 488/488/488 83/83/83
f 507/507/507 83/83/83 82/82/82
f 79/79/79 507/507/507 82/82/82
f 508/508/508 507/507/507 79/79/79
f 508/508/508 489/489/489 507/507/507
f 507/507/507 489/489/489 488/488/488
f 82/82/82 78/78/78 509/509/509
f 511/511/511 81/81/81 510/510/510
f 510/510/510 81/81/81 512/512/512
f 512/512/512 81/81/81 84/84/84
f 85/85/85 512/512/512 84/84/84
f 89/89/89 512/512/512 85/85/85
f 512/512/512 513/513/513 510/510/510
f 512/512/512 514/514/514 513/513/513
f 89/89/89 515/515/515 512/512/512
f 515/515/515 89/89/89 90/90/90
f 517/517/517 516/516/516 510/510/510
f 510/510/510 518/518/518 517/517/517
f 520/520/520 516/516/516 519/519/519
f 521/521/521 158/158/158 160/160/160
f 172/172/172 158/158/158 521/521/521
f 521/521/521 160/160/160 522/522/522
f 522/522/522 160/160/160 167/167/167
f 522/522/522 167/167/167 15/15/15
f 15/15/15 167/167/167 16/16/16
f 167/167/167 17/17/17 16/16/16
f 168/168/168 17/17/17 167/167/167
f 75/75/75 56/56/56 58/58/58
f 60/60/60 56/56/56 75/75/75
f 500/500/500 107/107/107 499/499/499
f 107/107/107 104/104/104 499/499/499
f 499/499/499 104/104/104 498/498/498
f 104/104/104 102/102/102 498/498/498
f 498/498/498 102/102/102 523/523/523
f 523/523/523 102/102/102 100/100/100
f 501/501/501 498/498/498 523/523/523
f 502/502/502 523/523/523 100/100/100
f 501/501/501 523/523/523 502/502/502
