g HeroBackPlate_mesh
v 800.1818 24.03956 -266.5384
v 890.2355 24.03956 -266.5384
v 800.1818 24.03956 -156.6558
v 890.5062 24.03956 -156.6558
v 710.1282 24.03956 -266.5384
v 709.8574 24.03956 -156.6558
v 721.4158 24.03956 -299.5458
v 800.1818 24.03956 -299.5458
v 878.9592 24.03956 -299.5458
v 742.986 24.03956 -327.1294
v 800.1818 24.03956 -327.1294
v 857.3895 24.03956 -327.1294
v 764.6705 24.03956 -343.4915
v 800.1818 24.03956 -343.4915
v 835.6973 24.03956 -343.4915
v 789.7415 24.03956 -354.9836
v 800.1818 24.03956 -356.5705
v 810.6343 24.03956 -354.9836
vt 0.515625 0.458398
vt 0.92732 0.458398
vt 0.515625 0.976635
vt 0.928558 0.976635
vt 0.10393 0.458398
vt 0.102692 0.976635
vt 0.155533 0.302726
vt 0.515625 0.302726
vt 0.875769 0.302726
vt 0.254145 0.172634
vt 0.515625 0.172634
vt 0.777159 0.172634
vt 0.353279 0.095466
vt 0.515625 0.095466
vt 0.67799 0.095466
vt 0.467895 0.041266
vt 0.515625 0.033782
vt 0.56341 0.041266
vn 0 1 0
vn 0 1 0
vn 0 1 0
vn 0 1 0
vn 0 1 0
vn 0 1 0
vn 0 1 0
vn 0 1 0
vn 0 1 0
vn 0 1 0
vn 0 1 0
vn 0 1 0
vn 0 1 0
vn 0 1 0
vn 0 1 0
vn 0 1 0
vn 0 1 0
vn 0 1 0
g HeroBackPlate_mesh_0
f 3/3/3 2/2/2 1/1/1
f 4/4/4 2/2/2 3/3/3
f 5/5/5 3/3/3 1/1/1
f 6/6/6 3/3/3 5/5/5
f 1/1/1 7/7/7 5/5/5
f 8/8/8 7/7/7 1/1/1
f 9/9/9 1/1/1 2/2/2
f 8/8/8 1/1/1 9/9/9
f 8/8/8 10/10/10 7/7/7
f 11/11/11 10/10/10 8/8/8
f 12/12/12 8/8/8 9/9/9
f 11/11/11 8/8/8 12/12/12
f 11/11/11 13/13/13 10/10/10
f 14/14/14 13/13/13 11/11/11
f 15/15/15 11/11/11 12/12/12
f 14/14/14 11/11/11 15/15/15
f 14/14/14 16/16/16 13/13/13
f 17/17/17 16/16/16 14/14/14
f 18/18/18 14/14/14 15/15/15
f 17/17/17 14/14/14 18/18/18
