g MillWheel_mesh
v 1127.315 100.7529 -1022.027
v 1114.335 91.92275 -1030.571
v 1135.683 105.0764 -1039.205
v 1122.702 96.24635 -1047.75
v 1173.333 87.12415 -1077.846
v 1160.353 78.29353 -1086.39
v 1185.957 72.79039 -1082.209
v 1172.977 63.96011 -1090.754
v 1202.767 40.59797 -1074.478
v 1189.788 31.76777 -1083.022
v 1207.584 23.43748 -1064.06
v 1194.604 14.60724 -1072.605
v 1200.651 0.187115 -1029.499
v 1187.672 -8.64286 -1038.044
v 1191.249 -2.568196 -1012.371
v 1178.27 -11.39821 -1020.916
v 1157.505 14.20851 -978.3844
v 1144.526 5.378244 -986.929
v 1146.421 25.90407 -973.6949
v 1133.441 17.07374 -982.2394
v 1146.421 25.90407 -973.6949
v 1133.441 17.07374 -982.2394
v 1125.674 62.49531 -979.9963
v 1112.694 53.66489 -988.5408
v 1122.054 78.36635 -990.8978
v 1109.076 69.53635 -999.4418
v 1122.702 96.24635 -1047.75
v 1114.335 91.92275 -1030.571
v 1130.31 78.8866 -1041.366
v 1126.806 76.5987 -1033.678
v 1159.776 64.83675 -1071.606
v 1160.353 78.29353 -1086.39
v 1165.168 58.44136 -1073.187
v 1172.977 63.96011 -1090.754
v 1177.943 33.69775 -1067.024
v 1189.788 31.76777 -1083.022
v 1180.874 24.30015 -1061.764
v 1194.604 14.60724 -1072.605
v 1175.627 7.209204 -1036.131
v 1187.672 -8.64286 -1038.044
v 1171.323 5.877064 -1028.217
v 1178.27 -11.39821 -1020.916
v 1144.757 19.10868 -1001.469
v 1144.526 5.378244 -986.929
v 1140.448 23.71825 -999.7534
v 1133.441 17.07374 -982.2394
v 1112.694 53.66489 -988.5408
v 1133.441 17.07374 -982.2394
v 1124.554 51.69829 -1004.525
v 1140.448 23.71825 -999.7534
v 1122.814 59.61294 -1010.06
v 1109.076 69.53635 -999.4418
v 1139.723 85.38622 -1025.176
v 1127.315 100.7529 -1022.027
v 1143.228 87.67396 -1032.863
v 1135.683 105.0764 -1039.205
v 1172.693 73.62415 -1063.103
v 1173.333 87.12415 -1077.846
v 1178.086 67.22875 -1064.684
v 1185.957 72.79039 -1082.209
v 1190.86 42.48493 -1058.521
v 1202.767 40.59797 -1074.478
v 1193.791 33.08749 -1053.261
v 1207.584 23.43748 -1064.06
v 1188.544 15.99653 -1027.628
v 1200.651 0.187115 -1029.499
v 1184.24 14.66453 -1019.714
v 1191.249 -2.568196 -1012.371
v 1157.674 27.89604 -992.9664
v 1157.505 14.20851 -978.3844
v 1153.365 32.50584 -991.2504
v 1146.421 25.90407 -973.6949
v 1153.365 32.50584 -991.2504
v 1146.421 25.90407 -973.6949
v 1137.471 60.4856 -996.0215
v 1125.674 62.49531 -979.9963
v 1135.731 68.40023 -1001.557
v 1122.054 78.36635 -990.8978
v 1159.776 64.83675 -1071.606
v 1130.31 78.8866 -1041.366
v 1172.693 73.62415 -1063.103
v 1143.228 87.67396 -1032.863
v 1178.086 67.22875 -1064.684
v 1165.168 58.44136 -1073.187
v 1190.86 42.48493 -1058.521
v 1177.943 33.69775 -1067.024
v 1193.791 33.08749 -1053.261
v 1180.874 24.30015 -1061.764
v 1188.544 15.99653 -1027.628
v 1175.627 7.209204 -1036.131
v 1184.24 14.66453 -1019.714
v 1171.323 5.877064 -1028.217
v 1157.674 27.89604 -992.9664
v 1144.757 19.10868 -1001.469
v 1153.365 32.50584 -991.2504
v 1140.448 23.71825 -999.7534
v 1126.806 76.5987 -1033.678
v 1139.723 85.38622 -1025.176
v 1122.814 59.61294 -1010.06
v 1135.731 68.40023 -1001.557
v 1124.554 51.69829 -1004.525
v 1137.471 60.4856 -996.0215
v 1140.448 23.71825 -999.7534
v 1153.365 32.50584 -991.2504
v 1186.818 100.0481 -1109.544
v 1173.732 113.5249 -1104.473
v 1171.25 89.45749 -1119.792
v 1158.164 102.9343 -1114.722
v 1267.914 31.40131 -1058.732
v 1266.488 48.38743 -1072.403
v 1251.344 18.86537 -1070.979
v 1249.895 35.38312 -1084.949
v 1147.911 -5.716492 -942.842
v 1161.332 -14.31633 -952.304
v 1136.139 -15.51056 -952.1189
v 1147.75 -23.56004 -960.9611
v 1100.928 89.71606 -963.7515
v 1105.246 71.87701 -951.6633
v 1083.278 77.70849 -975.3699
v 1087.701 60.77213 -964.4532
v 1212.682 -34.28365 -1012.645
v 1222.169 -28.6958 -1032.83
v 1197.659 -44.50416 -1022.534
v 1207.254 -38.74221 -1043.066
v 1171.25 89.45749 -1119.792
v 1158.164 102.9343 -1114.722
v 1154.428 48.90167 -1053.833
v 1149.398 54.41142 -1051.857
v 1153.723 45.58642 -1049.775
v 1154.589 37.7363 -1044.377
v 1220.843 10.84772 -1107.015
v 1222.873 -5.470016 -1094.391
v 1153.375 31.78889 -1034.206
v 1148.513 31.44014 -1025.984
v 1207.254 -38.74221 -1043.066
v 1197.659 -44.50416 -1022.534
v 1150.434 32.84268 -1033.081
v 1143.911 38.7125 -1029.759
v 1147.75 -23.56004 -960.9611
v 1136.139 -15.51056 -952.1189
v 1083.278 77.70849 -975.3699
v 1087.701 60.77213 -964.4532
v 1141.618 47.16723 -1030.921
v 1142.764 42.14555 -1027.471
v 1238.881 7.015051 -1082.932
v 1236.898 21.77038 -1096.445
v 1222.873 -5.470016 -1094.391
v 1220.843 10.84772 -1107.015
v 1247.054 -10.89954 -990.0179
v 1256.22 -5.817051 -1009.196
v 1232.001 -21.13999 -999.9262
v 1241.28 -15.87964 -1019.459
v 1181.307 26.3116 -920.6238
v 1199.668 11.91923 -930.0034
v 1165.755 14.76412 -930.5912
v 1183.371 0.901332 -939.962
v 1183.371 0.901332 -939.962
v 1199.668 11.91923 -930.0034
v 1185.628 60.03632 -1017.536
v 1201.924 71.05436 -1007.579
v 1165.755 14.76412 -930.5912
v 1183.371 0.901332 -939.962
v 1173.568 68.71249 -1011.068
v 1185.628 60.03632 -1017.536
v 1232.001 -21.13999 -999.9262
v 1241.28 -15.87964 -1019.459
v 1181.823 49.36388 -994.357
v 1185.084 58.62525 -1011.25
v 1238.881 7.015051 -1082.932
v 1222.873 -5.470016 -1094.391
v 1170.491 50.14621 -1032.786
v 1154.589 37.7363 -1044.377
v 1267.914 31.40131 -1058.732
v 1251.344 18.86537 -1070.979
v 1194.962 80.56641 -1010.495
v 1182.662 70.22559 -1018.982
v 1251.344 18.86537 -1070.979
v 1249.895 35.38312 -1084.949
v 1182.662 70.22559 -1018.982
v 1178.876 81.90555 -1026.136
v 1147.75 -23.56004 -960.9611
v 1161.332 -14.31633 -952.304
v 1150.434 32.84268 -1033.081
v 1167.354 43.97309 -1023.037
v 1212.682 -34.28365 -1012.645
v 1197.659 -44.50416 -1022.534
v 1163.397 41.94093 -1016.015
v 1148.513 31.44014 -1025.984
v 1247.054 -10.89954 -990.0179
v 1232.001 -21.13999 -999.9262
v 1196.952 59.31366 -984.7235
v 1181.823 49.36388 -994.357
v 1147.911 -5.716492 -942.842
v 1136.139 -15.51056 -952.1189
v 1155.311 48.61459 -1020.27
v 1143.911 38.7125 -1029.759
v 1207.254 -38.74221 -1043.066
v 1222.169 -28.6958 -1032.83
v 1153.375 31.78889 -1034.206
v 1168.17 41.82061 -1024.275
v 1241.28 -15.87964 -1019.459
v 1256.22 -5.817051 -1009.196
v 1185.084 58.62525 -1011.25
v 1199.891 68.71993 -1001.076
v 1236.898 21.77038 -1096.445
v 1238.881 7.015051 -1082.932
v 1169.943 60.55548 -1041.261
v 1170.491 50.14621 -1032.786
v 1266.488 48.38743 -1072.403
v 1267.914 31.40131 -1058.732
v 1195.945 89.82762 -1019.259
v 1194.962 80.56641 -1010.495
v 1181.307 26.3116 -920.6238
v 1165.755 14.76412 -930.5912
v 1190.315 80.59367 -1001.71
v 1173.568 68.71249 -1011.068
v 1142.764 42.14555 -1027.471
v 1087.701 60.77213 -964.4532
v 1159.769 53.71371 -1016.277
v 1105.246 71.87701 -951.6633
v 1083.278 77.70849 -975.3699
v 1141.618 47.16723 -1030.921
v 1100.928 89.71606 -963.7515
v 1158.623 58.73547 -1019.727
v 1149.398 54.41142 -1051.857
v 1158.164 102.9343 -1114.722
v 1164.803 64.89146 -1041.716
v 1173.732 113.5249 -1104.473
v 1171.25 89.45749 -1119.792
v 1154.428 48.90167 -1053.833
v 1186.818 100.0481 -1109.544
v 1169.834 59.38168 -1043.692
v 1153.723 45.58642 -1049.775
v 1220.843 10.84772 -1107.015
v 1169.943 60.55548 -1041.261
v 1236.898 21.77038 -1096.445
v 1178.876 81.90555 -1026.136
v 1249.895 35.38312 -1084.949
v 1195.945 89.82762 -1019.259
v 1266.488 48.38743 -1072.403
v 1167.354 43.97309 -1023.037
v 1161.332 -14.31633 -952.304
v 1155.311 48.61459 -1020.27
v 1147.911 -5.716492 -942.842
v 1201.924 71.05436 -1007.579
v 1199.668 11.91923 -930.0034
v 1190.315 80.59367 -1001.71
v 1181.307 26.3116 -920.6238
v 1247.054 -10.89954 -990.0179
v 1196.952 59.31366 -984.7235
v 1256.22 -5.817051 -1009.196
v 1199.891 68.71993 -1001.076
v 1159.769 53.71371 -1016.277
v 1105.246 71.87701 -951.6633
v 1158.623 58.73547 -1019.727
v 1100.928 89.71606 -963.7515
v 1164.803 64.89146 -1041.716
v 1173.732 113.5249 -1104.473
v 1169.834 59.38168 -1043.692
v 1186.818 100.0481 -1109.544
v 1212.682 -34.28365 -1012.645
v 1163.397 41.94093 -1016.015
v 1222.169 -28.6958 -1032.83
v 1168.17 41.82061 -1024.275
v 1172.622 107.1753 -1003.374
v 1160.226 122.5499 -1000.218
v 1176.126 109.4633 -1011.062
v 1168.593 126.8739 -1017.397
v 1205.591 95.41323 -1041.302
v 1206.243 108.921 -1056.037
v 1210.983 89.0182 -1042.884
v 1218.866 94.58733 -1060.401
v 1223.758 64.27491 -1036.719
v 1235.678 62.39511 -1052.669
v 1226.689 54.87693 -1031.46
v 1240.494 45.23432 -1042.252
v 1221.442 37.78572 -1005.827
v 1233.56 21.98417 -1007.691
v 1217.139 36.45384 -997.9127
v 1224.159 19.22889 -990.5625
v 1190.573 49.68541 -971.1649
v 1190.416 36.00568 -956.5756
v 1168.63 90.19019 -979.7565
v 1154.964 100.1633 -969.0891
v 1158.584 84.29216 -958.1873
v 1170.37 82.27495 -974.2199
v 1179.33 47.70111 -951.8867
v 1186.264 54.29493 -969.4493
v 1190.416 36.00568 -956.5756
v 1190.573 49.68541 -971.1649
v 1160.226 122.5499 -1000.218
v 1148.736 114.7332 -1007.781
v 1168.593 126.8739 -1017.397
v 1157.103 119.0572 -1024.961
v 1206.243 108.921 -1056.037
v 1194.753 101.1042 -1063.601
v 1218.866 94.58733 -1060.401
v 1207.376 86.77082 -1067.964
v 1235.678 62.39511 -1052.669
v 1224.187 54.57839 -1060.233
v 1240.494 45.23432 -1042.252
v 1229.004 37.41773 -1049.815
v 1233.56 21.98417 -1007.691
v 1222.07 14.1674 -1015.254
v 1224.159 19.22889 -990.5625
v 1212.67 11.41222 -998.1261
v 1190.416 36.00568 -956.5756
v 1178.926 28.18901 -964.1393
v 1190.416 36.00568 -956.5756
v 1178.926 28.18901 -964.1393
v 1179.33 47.70111 -951.8867
v 1167.84 39.88438 -959.4504
v 1158.584 84.29216 -958.1873
v 1147.094 76.47566 -965.7512
v 1154.964 100.1633 -969.0891
v 1143.474 92.34671 -976.6528
v 1157.103 119.0572 -1024.961
v 1148.736 114.7332 -1007.781
v 1164.71 101.6971 -1018.577
v 1161.206 99.40925 -1010.889
v 1194.175 87.64716 -1048.817
v 1194.753 101.1042 -1063.601
v 1199.567 81.25197 -1050.398
v 1207.376 86.77082 -1067.964
v 1212.342 56.50878 -1044.234
v 1224.187 54.57839 -1060.233
v 1215.274 47.11086 -1038.974
v 1229.004 37.41773 -1049.815
v 1210.027 30.01974 -1013.341
v 1222.07 14.1674 -1015.254
v 1205.723 28.68782 -1005.427
v 1212.67 11.41222 -998.1261
v 1179.157 41.91926 -978.6797
v 1178.926 28.18901 -964.1393
v 1143.474 92.34671 -976.6528
v 1157.214 82.42399 -987.2709
v 1147.094 76.47566 -965.7512
v 1158.954 74.50879 -981.7348
v 1167.84 39.88438 -959.4504
v 1174.849 46.52907 -976.964
v 1178.926 28.18901 -964.1393
v 1179.157 41.91926 -978.6797
v 1172.622 107.1753 -1003.374
v 1176.126 109.4633 -1011.062
v 1161.206 99.40925 -1010.889
v 1164.71 101.6971 -1018.577
v 1157.214 82.42399 -987.2709
v 1168.63 90.19019 -979.7565
v 1158.954 74.50879 -981.7348
v 1170.37 82.27495 -974.2199
v 1174.849 46.52907 -976.964
v 1186.264 54.29493 -969.4493
v 1179.157 41.91926 -978.6797
v 1190.573 49.68541 -971.1649
v 1205.591 95.41323 -1041.302
v 1194.175 87.64716 -1048.817
v 1210.983 89.0182 -1042.884
v 1199.567 81.25197 -1050.398
v 1223.758 64.27491 -1036.719
v 1212.342 56.50878 -1044.234
v 1226.689 54.87693 -1031.46
v 1215.274 47.11086 -1038.974
v 1221.442 37.78572 -1005.827
v 1210.027 30.01974 -1013.341
v 1217.139 36.45384 -997.9127
v 1205.723 28.68782 -1005.427
v 1190.573 49.68541 -971.1649
v 1179.157 41.91926 -978.6797
v 1135.301 113.1004 -941.1241
v 1139.619 95.26141 -929.0356
v 1117.922 101.2767 -952.5643
v 1122.345 84.3404 -941.6476
v 1117.922 101.2767 -952.5643
v 1122.345 84.3404 -941.6476
v 1176.262 70.73551 -1008.115
v 1177.407 65.71387 -1004.666
v 1177.407 65.71387 -1004.666
v 1122.345 84.3404 -941.6476
v 1194.141 77.09803 -993.6498
v 1139.619 95.26141 -929.0356
v 1117.922 101.2767 -952.5643
v 1176.262 70.73551 -1008.115
v 1135.301 113.1004 -941.1241
v 1192.996 82.11965 -997.0992
v 1194.141 77.09803 -993.6498
v 1139.619 95.26141 -929.0356
v 1192.996 82.11965 -997.0992
v 1135.301 113.1004 -941.1241
v 1235.127 -10.32981 -1001.852
v 1238.822 -8.152988 -1009.715
v 1211.267 -26.53813 -1017.66
v 1215.005 -24.29369 -1025.658
v 1215.005 -24.29369 -1025.658
v 1238.822 -8.152988 -1009.715
v 1204.62 -8.918577 -1025.772
v 1228.437 7.222271 -1009.829
v 1235.127 -10.32981 -1001.852
v 1211.267 -26.53813 -1017.66
v 1224.742 5.045417 -1001.965
v 1200.881 -11.16303 -1017.773
v 1204.62 -8.918577 -1025.772
v 1228.437 7.222271 -1009.829
v 1200.881 -11.16303 -1017.773
v 1224.742 5.045417 -1001.965
v 1176.644 14.96111 -932.2283
v 1185.271 9.316705 -937.7826
v 1150.565 -4.005138 -949.053
v 1158.249 -8.978577 -954.5971
v 1158.249 -8.978577 -954.5971
v 1185.271 9.316705 -937.7826
v 1159.635 4.410748 -970.5399
v 1186.658 22.70607 -953.7256
v 1159.635 4.410748 -970.5399
v 1186.658 22.70607 -953.7256
v 1150.993 9.745884 -968.1641
v 1179.834 29.27842 -950.1523
v 1176.644 14.96111 -932.2283
v 1150.565 -4.005138 -949.053
v 1179.834 29.27842 -950.1523
v 1150.993 9.745884 -968.1641
v 1251.042 26.36411 -1067.399
v 1249.607 36.60512 -1073.517
v 1228.135 9.819622 -1083.034
v 1226.677 20.82169 -1088.719
v 1251.042 26.36411 -1067.399
v 1228.135 9.819622 -1083.034
v 1237.558 37.2674 -1058.14
v 1214.65 20.7227 -1073.774
v 1226.677 20.82169 -1088.719
v 1249.607 36.60512 -1073.517
v 1215.244 27.61951 -1078.333
v 1238.174 43.40316 -1063.132
v 1237.558 37.2674 -1058.14
v 1214.65 20.7227 -1073.774
v 1238.174 43.40316 -1063.132
v 1215.244 27.61951 -1078.333
v 1220.792 123.1614 -1087.179
v 1207.706 136.6381 -1082.108
v 1207.074 113.8295 -1096.21
v 1193.989 127.3063 -1091.139
v 1207.074 113.8295 -1096.21
v 1193.989 127.3063 -1091.139
v 1190.253 73.27354 -1030.25
v 1185.223 78.78331 -1028.274
v 1185.223 78.78331 -1028.274
v 1193.989 127.3063 -1091.139
v 1198.777 88.0042 -1019.351
v 1207.706 136.6381 -1082.108
v 1207.074 113.8295 -1096.21
v 1190.253 73.27354 -1030.25
v 1220.792 123.1614 -1087.179
v 1203.808 82.49461 -1021.327
v 1198.777 88.0042 -1019.351
v 1207.706 136.6381 -1082.108
v 1203.808 82.49461 -1021.327
v 1220.792 123.1614 -1087.179
v 1209.445 116.3135 -1086.797
v 1200.589 124.5283 -1080.115
v 1182.756 99.34939 -1104.765
v 1174.323 106.5311 -1098.388
v 1174.323 106.5311 -1098.388
v 1200.589 124.5283 -1080.115
v 1172.363 93.6458 -1082.094
v 1198.629 111.6429 -1063.821
v 1209.445 116.3135 -1086.797
v 1182.756 99.34939 -1104.765
v 1205.149 104.5915 -1068.158
v 1178.46 87.62732 -1086.125
v 1172.363 93.6458 -1082.094
v 1198.629 111.6429 -1063.821
v 1178.46 87.62732 -1086.125
v 1205.149 104.5915 -1068.158
v 1152.151 159.4375 -1019.468
v 1144.841 155.4005 -1001.281
v 1136.659 148.8987 -1029.667
v 1129.35 144.8619 -1011.48
v 1136.659 148.8987 -1029.667
v 1129.35 144.8619 -1011.48
v 1179.95 75.11477 -1018.624
v 1177.304 73.74748 -1013.189
v 1177.304 73.74748 -1013.189
v 1129.35 144.8619 -1011.48
v 1192.836 84.31394 -1002.965
v 1144.841 155.4005 -1001.281
v 1136.659 148.8987 -1029.667
v 1179.95 75.11477 -1018.624
v 1152.151 159.4375 -1019.468
v 1195.483 85.6813 -1008.399
v 1192.836 84.31394 -1002.965
v 1144.841 155.4005 -1001.281
v 1195.483 85.6813 -1008.399
v 1152.151 159.4375 -1019.468
v 1143.964 150.7177 -1022.881
v 1139.661 146.6423 -1010.413
v 1116.75 133.4724 -1039.761
v 1112.809 129.2061 -1028.376
v 1112.809 129.2061 -1028.376
v 1139.661 146.6423 -1010.413
v 1124.529 111.9426 -1028.338
v 1151.38 129.3791 -1010.376
v 1143.964 150.7177 -1022.881
v 1116.75 133.4724 -1039.761
v 1155.145 131.4845 -1019.99
v 1127.932 114.2395 -1036.87
v 1124.529 111.9426 -1028.338
v 1151.38 129.3791 -1010.376
v 1127.932 114.2395 -1036.87
v 1155.145 131.4845 -1019.99
v 1119.816 137.4402 -1040.754
v 1112.507 133.4032 -1022.567
v 1101.48 124.9662 -1052.825
v 1094.171 120.9296 -1034.638
v 1101.48 124.9662 -1052.825
v 1094.171 120.9296 -1034.638
v 1144.77 51.18236 -1041.782
v 1142.125 49.81496 -1036.347
v 1142.125 49.81496 -1036.347
v 1094.171 120.9296 -1034.638
v 1160.501 62.3168 -1024.25
v 1112.507 133.4032 -1022.567
v 1101.48 124.9662 -1052.825
v 1144.77 51.18236 -1041.782
v 1119.816 137.4402 -1040.754
v 1163.148 63.68418 -1029.685
v 1160.501 62.3168 -1024.25
v 1112.507 133.4032 -1022.567
v 1163.148 63.68418 -1029.685
v 1119.816 137.4402 -1040.754
v 1127.164 102.9259 -947.97
v 1131.788 91.60088 -941.5725
v 1100.234 84.73756 -964.3054
v 1104.577 74.02806 -958.8474
v 1104.577 74.02806 -958.8474
v 1131.788 91.60088 -941.5725
v 1117.961 69.09046 -974.0749
v 1145.172 86.66345 -956.8002
v 1127.164 102.9259 -947.97
v 1100.234 84.73756 -964.3054
v 1142.205 94.95758 -962.584
v 1115.274 76.76955 -978.9196
v 1117.961 69.09046 -974.0749
v 1145.172 86.66345 -956.8002
v 1115.274 76.76955 -978.9196
v 1142.205 94.95758 -962.584
vt 0.12531 0.470699
vt 0.163834 0.470699
vt 0.12531 0.50292
vt 0.163834 0.50292
vt 0.125309 0.614427
vt 0.163834 0.614428
vt 0.125309 0.646427
vt 0.163834 0.646427
vt 0.125309 0.718773
vt 0.163834 0.718773
vt 0.125309 0.754685
vt 0.163834 0.754686
vt 0.125309 0.836008
vt 0.163834 0.836008
vt 0.125309 0.869013
vt 0.163834 0.869013
vt 0.12531 0.969148
vt 0.163834 0.969148
vt 0.12531 0.996403
vt 0.163834 0.996403
vt 0.12531 0.279154
vt 0.163834 0.279154
vt 0.125308 0.362278
vt 0.163834 0.362278
vt 0.12531 0.395632
vt 0.163834 0.395632
vt 0.003597 0.50292
vt 0.003597 0.470699
vt 0.045398 0.50292
vt 0.045398 0.470699
vt 0.045398 0.614416
vt 0.003597 0.614427
vt 0.045397 0.646426
vt 0.003597 0.646426
vt 0.045397 0.718773
vt 0.003597 0.718773
vt 0.045398 0.754666
vt 0.003597 0.754685
vt 0.045397 0.836008
vt 0.003598 0.836008
vt 0.045397 0.869013
vt 0.003597 0.869013
vt 0.045398 0.969118
vt 0.003597 0.969148
vt 0.045398 0.996403
vt 0.003597 0.996403
vt 0.003597 0.362278
vt 0.003597 0.279154
vt 0.045397 0.362278
vt 0.045398 0.279154
vt 0.045398 0.395632
vt 0.003597 0.395632
vt 0.08348 0.470699
vt 0.12531 0.470699
vt 0.08348 0.50292
vt 0.12531 0.50292
vt 0.08348 0.614428
vt 0.125309 0.614427
vt 0.083479 0.646426
vt 0.125309 0.646427
vt 0.083479 0.718773
vt 0.125309 0.718773
vt 0.08348 0.754685
vt 0.125309 0.754685
vt 0.083479 0.836008
vt 0.125309 0.836008
vt 0.083479 0.869013
vt 0.125309 0.869013
vt 0.08348 0.969148
vt 0.12531 0.969148
vt 0.08348 0.996403
vt 0.12531 0.996403
vt 0.083481 0.279154
vt 0.12531 0.279154
vt 0.083479 0.362278
vt 0.125308 0.362278
vt 0.08348 0.395632
vt 0.12531 0.395632
vt 0.045398 0.614416
vt 0.045398 0.50292
vt 0.08348 0.614428
vt 0.08348 0.50292
vt 0.083479 0.646426
vt 0.045397 0.646426
vt 0.083479 0.718773
vt 0.045397 0.718773
vt 0.08348 0.754685
vt 0.045398 0.754666
vt 0.083479 0.836008
vt 0.045397 0.836008
vt 0.083479 0.869013
vt 0.045397 0.869013
vt 0.08348 0.969148
vt 0.045398 0.969118
vt 0.08348 0.996403
vt 0.045398 0.996403
vt 0.045398 0.470699
vt 0.08348 0.470699
vt 0.045398 0.395632
vt 0.08348 0.395632
vt 0.045397 0.362278
vt 0.083479 0.362278
vt 0.045398 0.279154
vt 0.083481 0.279154
vt 0.528667 0.063575
vt 0.486638 0.060773
vt 0.530755 0.017203
vt 0.488717 0.014399
vt 0.5928 0.775629
vt 0.585946 0.728814
vt 0.644732 0.770224
vt 0.638815 0.723652
vt 0.29004 0.052662
vt 0.25067 0.059343
vt 0.282058 0.014731
vt 0.246267 0.019375
vt 0.147484 0.076735
vt 0.099919 0.075588
vt 0.148998 0.024131
vt 0.104347 0.022977
vt 0.582078 0.519312
vt 0.57987 0.46957
vt 0.626823 0.517324
vt 0.624586 0.466742
vt 0.39928 0.073785
vt 0.440386 0.064569
vt 0.43768 0.241007
vt 0.453917 0.237043
vt 0.48519 0.726618
vt 0.464927 0.722314
vt 0.523032 0.524846
vt 0.478848 0.517009
vt 0.655182 0.707908
vt 0.635154 0.713165
vt 0.677428 0.516051
vt 0.626823 0.517324
vt 0.340759 0.26259
vt 0.320445 0.262003
vt 0.363518 0.065563
vt 0.328611 0.056416
vt 0.003597 0.090073
vt 0.047565 0.082233
vt 0.053646 0.269784
vt 0.06676 0.266878
vt 0.428473 0.514029
vt 0.384969 0.513244
vt 0.429176 0.463573
vt 0.384342 0.465388
vt 0.86599 0.552438
vt 0.819246 0.545148
vt 0.872914 0.508094
vt 0.8253 0.500667
vt 0.489172 0.782014
vt 0.434739 0.781208
vt 0.492103 0.734934
vt 0.439508 0.733703
vt 0.387088 0.78396
vt 0.434739 0.781208
vt 0.39099 0.995198
vt 0.438667 0.992449
vt 0.334532 0.786103
vt 0.387088 0.78396
vt 0.355901 0.995491
vt 0.39099 0.995198
vt 0.726618 0.551026
vt 0.774378 0.544825
vt 0.730963 0.738744
vt 0.772311 0.74767
vt 0.428473 0.514029
vt 0.478848 0.517009
vt 0.414605 0.719577
vt 0.464927 0.722314
vt 0.5928 0.775629
vt 0.644732 0.770224
vt 0.61542 0.991697
vt 0.654491 0.987172
vt 0.644732 0.770224
vt 0.691577 0.772897
vt 0.654491 0.987172
vt 0.683848 0.996403
vt 0.21047 0.059793
vt 0.25067 0.059343
vt 0.205036 0.258056
vt 0.253993 0.258168
vt 0.582078 0.519312
vt 0.626823 0.517324
vt 0.590262 0.715827
vt 0.635154 0.713165
vt 0.86599 0.552438
vt 0.910836 0.554076
vt 0.857335 0.739363
vt 0.901695 0.741626
vt 0.29004 0.052662
vt 0.328611 0.056416
vt 0.28203 0.25792
vt 0.320445 0.262003
vt 0.677428 0.516051
vt 0.721937 0.521101
vt 0.655182 0.707908
vt 0.699182 0.712966
vt 0.774378 0.544825
vt 0.819246 0.545148
vt 0.772311 0.74767
vt 0.816952 0.748202
vt 0.384969 0.513244
vt 0.428473 0.514029
vt 0.385543 0.719013
vt 0.414605 0.719577
vt 0.546762 0.786515
vt 0.5928 0.775629
vt 0.587809 0.993741
vt 0.61542 0.991697
vt 0.489172 0.782014
vt 0.536122 0.786377
vt 0.473594 0.993632
vt 0.52238 0.996403
vt 0.06676 0.266878
vt 0.047565 0.082233
vt 0.117227 0.262028
vt 0.099919 0.075588
vt 0.199879 0.081579
vt 0.181154 0.267189
vt 0.147484 0.076735
vt 0.130656 0.262522
vt 0.453917 0.237043
vt 0.440386 0.064569
vt 0.499709 0.233284
vt 0.486638 0.060773
vt 0.574917 0.067447
vt 0.562155 0.238546
vt 0.528667 0.063575
vt 0.516374 0.234712
vt 0.334532 0.720057
vt 0.337345 0.514837
vt 0.385543 0.719013
vt 0.384969 0.513244
vt 0.683848 0.996403
vt 0.691577 0.772897
vt 0.726547 0.988661
vt 0.744424 0.778166
vt 0.253993 0.258168
vt 0.25067 0.059343
vt 0.28203 0.25792
vt 0.29004 0.052662
vt 0.438667 0.992449
vt 0.434739 0.781208
vt 0.473594 0.993632
vt 0.489172 0.782014
vt 0.86599 0.552438
vt 0.857335 0.739363
vt 0.819246 0.545148
vt 0.816952 0.748202
vt 0.117227 0.262028
vt 0.099919 0.075588
vt 0.130656 0.262522
vt 0.147484 0.076735
vt 0.499709 0.233284
vt 0.486638 0.060773
vt 0.516374 0.234712
vt 0.528667 0.063575
vt 0.582078 0.519312
vt 0.590262 0.715827
vt 0.532374 0.522006
vt 0.570073 0.711501
vt 0.282271 0.5005
vt 0.324089 0.5005
vt 0.282271 0.532391
vt 0.324089 0.532391
vt 0.282271 0.643506
vt 0.324089 0.643506
vt 0.282271 0.675092
vt 0.324089 0.67508
vt 0.282271 0.747008
vt 0.324089 0.747001
vt 0.28227 0.782512
vt 0.324089 0.782512
vt 0.28227 0.863506
vt 0.324089 0.863506
vt 0.282271 0.896245
vt 0.324089 0.896245
vt 0.282271 0.996403
vt 0.324089 0.996403
vt 0.282271 0.42569
vt 0.324089 0.42569
vt 0.324089 0.392471
vt 0.282271 0.392497
vt 0.324089 0.309565
vt 0.282271 0.309595
vt 0.324089 0.282328
vt 0.282271 0.282328
vt 0.172662 0.5005
vt 0.206748 0.5005
vt 0.172662 0.532391
vt 0.206748 0.532391
vt 0.172662 0.643506
vt 0.206748 0.643507
vt 0.172662 0.675081
vt 0.206748 0.67508
vt 0.172662 0.747001
vt 0.206747 0.747
vt 0.172662 0.782512
vt 0.206748 0.782512
vt 0.172662 0.863506
vt 0.206747 0.863506
vt 0.172662 0.896245
vt 0.206748 0.896245
vt 0.172662 0.996403
vt 0.206748 0.996403
vt 0.172662 0.282328
vt 0.206748 0.282328
vt 0.172662 0.309566
vt 0.206748 0.309565
vt 0.172662 0.392471
vt 0.206747 0.39247
vt 0.172662 0.42569
vt 0.206748 0.42569
vt 0.206748 0.532391
vt 0.206748 0.5005
vt 0.248602 0.532391
vt 0.248602 0.5005
vt 0.248601 0.643506
vt 0.206748 0.643507
vt 0.248602 0.675081
vt 0.206748 0.67508
vt 0.248602 0.747001
vt 0.206747 0.747
vt 0.248602 0.782513
vt 0.206748 0.782512
vt 0.248601 0.863506
vt 0.206747 0.863506
vt 0.248602 0.896245
vt 0.206748 0.896245
vt 0.248602 0.996403
vt 0.206748 0.996403
vt 0.206748 0.42569
vt 0.248602 0.42569
vt 0.206747 0.39247
vt 0.248602 0.392471
vt 0.206748 0.309565
vt 0.248602 0.309566
vt 0.206748 0.282328
vt 0.248602 0.282328
vt 0.282271 0.5005
vt 0.282271 0.532391
vt 0.248602 0.5005
vt 0.248602 0.532391
vt 0.248602 0.42569
vt 0.282271 0.42569
vt 0.248602 0.392471
vt 0.282271 0.392497
vt 0.248602 0.309566
vt 0.282271 0.309595
vt 0.248602 0.282328
vt 0.282271 0.282328
vt 0.282271 0.643506
vt 0.248601 0.643506
vt 0.282271 0.675092
vt 0.248602 0.675081
vt 0.282271 0.747008
vt 0.248602 0.747001
vt 0.28227 0.782512
vt 0.248602 0.782513
vt 0.28227 0.863506
vt 0.248601 0.863506
vt 0.282271 0.896245
vt 0.248602 0.896245
vt 0.282271 0.996403
vt 0.248602 0.996403
vt 0.89163 0.805104
vt 0.84412 0.802501
vt 0.8947 0.753372
vt 0.850106 0.750856
vt 0.748202 0.813977
vt 0.792389 0.807487
vt 0.792729 0.995137
vt 0.805925 0.992633
vt 0.805925 0.992633
vt 0.792389 0.807487
vt 0.855709 0.989383
vt 0.84412 0.802501
vt 0.943054 0.811456
vt 0.918638 0.996403
vt 0.89163 0.805104
vt 0.869112 0.990288
vt 0.855709 0.989383
vt 0.84412 0.802501
vt 0.869112 0.990288
vt 0.89163 0.805104
vt 0.989619 0.089928
vt 0.970231 0.0896
vt 0.990618 0.01871
vt 0.970892 0.018376
vt 0.970892 0.018376
vt 0.970231 0.0896
vt 0.930712 0.017942
vt 0.930065 0.089166
vt 0.870503 0.088994
vt 0.870803 0.01777
vt 0.910676 0.089137
vt 0.910981 0.017912
vt 0.930712 0.017942
vt 0.930065 0.089166
vt 0.910981 0.017912
vt 0.910676 0.089137
vt 0.608761 0.119902
vt 0.583522 0.122302
vt 0.605844 0.041203
vt 0.582734 0.042816
vt 0.723737 0.039306
vt 0.725934 0.118769
vt 0.678603 0.041402
vt 0.680802 0.120863
vt 0.678603 0.041402
vt 0.680802 0.120863
vt 0.656589 0.03635
vt 0.658882 0.121229
vt 0.608761 0.119902
vt 0.605844 0.041203
vt 0.658882 0.121229
vt 0.656589 0.03635
vt 0.862227 0.07942
vt 0.836653 0.084188
vt 0.856748 0.00971
vt 0.830449 0.015788
vt 0.740666 0.089928
vt 0.733813 0.020337
vt 0.783124 0.086843
vt 0.776267 0.017254
vt 0.830449 0.015788
vt 0.836653 0.084188
vt 0.794081 0.019292
vt 0.800276 0.087692
vt 0.783124 0.086843
vt 0.776267 0.017254
vt 0.800276 0.087692
vt 0.794081 0.019292
vt 0.790171 0.277184
vt 0.793726 0.319125
vt 0.749498 0.281524
vt 0.753067 0.323545
vt 0.71223 0.333919
vt 0.753067 0.323545
vt 0.7553 0.5
vt 0.771415 0.495593
vt 0.771415 0.495593
vt 0.753067 0.323545
vt 0.811596 0.491186
vt 0.793726 0.319125
vt 0.876648 0.323019
vt 0.868649 0.494409
vt 0.835811 0.320743
vt 0.828292 0.492158
vt 0.811596 0.491186
vt 0.793726 0.319125
vt 0.828292 0.492158
vt 0.835811 0.320743
vt 0.805138 0.101098
vt 0.834991 0.099763
vt 0.805027 0.179856
vt 0.832696 0.179221
vt 0.832696 0.179221
vt 0.834991 0.099763
vt 0.877878 0.179676
vt 0.880168 0.100217
vt 0.805138 0.101098
vt 0.805027 0.179856
vt 0.756582 0.099754
vt 0.756466 0.178513
vt 0.735979 0.17778
vt 0.733813 0.098319
vt 0.756466 0.178513
vt 0.756582 0.099754
vt 0.621533 0.22373
vt 0.625392 0.266889
vt 0.575349 0.224635
vt 0.579215 0.267798
vt 0.535971 0.270468
vt 0.579215 0.267798
vt 0.567085 0.454632
vt 0.580447 0.45356
vt 0.580447 0.45356
vt 0.579215 0.267798
vt 0.626762 0.452645
vt 0.625392 0.266889
vt 0.714325 0.275824
vt 0.685949 0.460432
vt 0.668654 0.268947
vt 0.640147 0.453535
vt 0.626762 0.452645
vt 0.625392 0.266889
vt 0.640147 0.453535
vt 0.668654 0.268947
vt 0.725348 0.21325
vt 0.695524 0.215268
vt 0.723657 0.134511
vt 0.69602 0.135778
vt 0.69602 0.135778
vt 0.695524 0.215268
vt 0.650849 0.136338
vt 0.650338 0.215828
vt 0.579137 0.210635
vt 0.581921 0.131925
vt 0.627626 0.213624
vt 0.630404 0.134916
vt 0.650849 0.136338
vt 0.650338 0.215828
vt 0.630404 0.134916
vt 0.627626 0.213624
vt 0.421349 0.218221
vt 0.428317 0.260984
vt 0.366905 0.22324
vt 0.373875 0.266016
vt 0.330935 0.27182
vt 0.373875 0.266016
vt 0.375339 0.453238
vt 0.388584 0.4512
vt 0.388584 0.4512
vt 0.373875 0.266016
vt 0.443148 0.446151
vt 0.428317 0.260984
vt 0.526119 0.264099
vt 0.511208 0.450278
vt 0.471616 0.259903
vt 0.456563 0.44607
vt 0.443148 0.446151
vt 0.428317 0.260984
vt 0.456563 0.44607
vt 0.471616 0.259903
vt 0.85026 0.189825
vt 0.880098 0.18817
vt 0.850993 0.268579
vt 0.878652 0.267646
vt 0.736802 0.269784
vt 0.733813 0.190349
vt 0.781915 0.267238
vt 0.778919 0.187803
vt 0.85026 0.189825
vt 0.850993 0.268579
vt 0.801695 0.188999
vt 0.802416 0.267754
vt 0.781915 0.267238
vt 0.778919 0.187803
vt 0.802416 0.267754
vt 0.801695 0.188999
vn -0.6446468 0.7309741 0.2238468
vn -0.5984374 0.7965479 0.08593124
vn -0.4398013 0.8683476 -0.2292318
vn -0.3164901 0.8575829 -0.4054449
vn -0.04525809 0.7282323 -0.6838343
vn 0.1026581 0.609643 -0.7860004
vn 0.3415139 0.3442496 -0.874563
vn 0.4366367 0.2056536 -0.8758169
vn 0.5692021 -0.04213586 -0.8211173
vn 0.612989 -0.15052 -0.7756212
vn 0.6794432 -0.4097968 -0.6086243
vn 0.6866842 -0.5546073 -0.4699742
vn 0.6293425 -0.7576081 -0.173084
vn 0.5702204 -0.8213063 -0.01745176
vn 0.4014283 -0.8692645 0.288504
vn 0.290118 -0.8506761 0.4383854
vn 0.05186126 -0.7327806 0.6784859
vn -0.07487859 -0.6344039 0.7693666
vn -0.2996349 -0.3983938 0.8668917
vn -0.3987578 -0.263733 0.8783149
vn -0.2996349 -0.3983938 0.8668917
vn -0.3987578 -0.263733 0.8783149
vn -0.5601864 0.02218097 0.8280696
vn -0.6212279 0.1737667 0.7641211
vn -0.6828331 0.4376036 0.5850146
vn -0.6868389 0.5515014 0.4733906
vn -0.726198 -0.4940777 -0.4780415
vn -0.7262108 -0.4940702 -0.4780299
vn -0.7262027 -0.4940673 -0.478045
vn -0.7262292 -0.4940471 -0.4780257
vn -0.7262024 -0.4940807 -0.4780319
vn -0.726207 -0.4940855 -0.4780199
vn -0.7262254 -0.4940592 -0.4780191
vn -0.7262209 -0.4940479 -0.4780375
vn -0.7262182 -0.4940433 -0.4780463
vn -0.7262133 -0.4940425 -0.4780545
vn -0.7262223 -0.4940339 -0.4780498
vn -0.7262208 -0.4940394 -0.4780465
vn -0.7262034 -0.4940588 -0.4780528
vn -0.7261848 -0.4940704 -0.4780692
vn -0.7263508 -0.4940301 -0.4778585
vn -0.7265053 -0.4939038 -0.4777542
vn -0.7253741 -0.4947837 -0.4785618
vn -0.7248502 -0.4953123 -0.4788087
vn -0.7247071 -0.4954348 -0.4788987
vn -0.7258459 -0.4945629 -0.4780745
vn -0.726236 -0.4939869 -0.4780775
vn -0.7258459 -0.4945629 -0.4780745
vn -0.72622 -0.4940326 -0.4780548
vn -0.7247071 -0.4954348 -0.4788987
vn -0.7262578 -0.4939621 -0.4780702
vn -0.7262486 -0.4940005 -0.4780445
vn 0.7290282 0.4909002 0.477006
vn 0.7288405 0.4905879 0.4776139
vn 0.7281187 0.4903149 0.4789933
vn 0.7275763 0.4903058 0.4798259
vn 0.7263374 0.4909245 0.4810686
vn 0.7257065 0.4914649 0.4814689
vn 0.7246667 0.4925891 0.481886
vn 0.7243312 0.4931502 0.4818166
vn 0.7237584 0.4941585 0.4816443
vn 0.7235438 0.4946421 0.4814703
vn 0.7232946 0.4957643 0.48069
vn 0.7232178 0.496462 0.4800849
vn 0.7234438 0.4973635 0.4788097
vn 0.7237021 0.4976306 0.4781413
vn 0.7246056 0.497797 0.4765973
vn 0.7252409 0.4976004 0.4758357
vn 0.7251635 0.4979524 0.4755853
vn 0.7251947 0.4980442 0.4754415
vn 0.7260358 0.4971513 0.4750921
vn 0.7275839 0.4957059 0.4742334
vn 0.7260358 0.4971513 0.4750921
vn 0.7275839 0.4957059 0.4742334
vn 0.7286611 0.4939193 0.4744436
vn 0.7289236 0.4932429 0.4747441
vn 0.7292046 0.4920788 0.4755197
vn 0.729195 0.4916334 0.475995
vn -0.1226991 -0.5910701 0.7972334
vn 0.3258725 -0.85968 0.3933922
vn 0.03585731 -0.7216561 0.6913225
vn 0.4571635 -0.8663975 0.2008903
vn -0.3605573 -0.3183549 0.876726
vn -0.4473264 -0.1884579 0.8742899
vn -0.5657871 0.03450122 0.8238292
vn -0.6041582 0.1268269 0.7867069
vn -0.676069 0.3871109 0.6269578
vn -0.6869966 0.5473568 0.47795
vn -0.6289984 0.7581381 0.1720105
vn -0.5715493 0.8203119 0.02048754
vn -0.4042593 0.8693356 -0.2843062
vn -0.2914195 0.8510403 -0.4368124
vn -0.04746538 0.7297549 -0.6820593
vn 0.08365569 0.6267059 -0.7747524
vn 0.3070644 0.3890519 -0.8685334
vn 0.4014962 0.2596783 -0.8782756
vn 0.6092371 -0.7846656 -0.1145859
vn 0.6483503 -0.7234179 -0.2372938
vn 0.6867119 -0.5539637 -0.4706922
vn 0.6834085 -0.4433001 -0.5800327
vn 0.6232954 -0.179778 -0.7610405
vn 0.5611815 -0.02432896 -0.8273352
vn 0.4014962 0.2596783 -0.8782756
vn 0.3070644 0.3890519 -0.8685334
vn 0.2024345 0.510902 -0.8354636
vn 0.2024366 0.5109017 -0.8354633
vn 0.2024366 0.5109017 -0.8354633
vn 0.2024387 0.5109013 -0.835463
vn 0.7205337 -0.3970421 -0.5684969
vn 0.7260275 -0.3994391 -0.5597609
vn 0.7260275 -0.3994391 -0.5597609
vn 0.7314399 -0.4017912 -0.5509623
vn 0.03887684 -0.7113907 0.7017207
vn 0.03890763 -0.712162 0.7009362
vn 0.03890763 -0.712162 0.7009362
vn 0.03893837 -0.7129323 0.7001509
vn -0.6597835 0.3055268 0.6865414
vn -0.666355 0.2871721 0.6881158
vn -0.666355 0.2871721 0.6881158
vn -0.6726714 0.2687076 0.6894269
vn 0.5499145 -0.8347726 0.02736431
vn 0.5491076 -0.8353928 0.02449119
vn 0.5491076 -0.8353928 0.02449119
vn 0.5482954 -0.8360052 0.02161784
vn -0.7099832 -0.5045401 -0.4912873
vn -0.7183557 -0.4978751 -0.4858864
vn -0.7183557 -0.4978751 -0.4858864
vn -0.7266248 -0.4911385 -0.4804157
vn -0.702413 -0.4542597 -0.5479637
vn -0.6989727 -0.4732304 -0.5361812
vn -0.6989727 -0.4732304 -0.5361812
vn -0.6951755 -0.4919594 -0.524125
vn -0.7341297 -0.5035931 -0.455464
vn -0.7307881 -0.4980353 -0.466808
vn -0.7307881 -0.4980353 -0.466808
vn -0.7273217 -0.4923924 -0.4780722
vn -0.7131998 -0.5390298 -0.4480993
vn -0.713621 -0.5387228 -0.4477979
vn -0.713621 -0.5387228 -0.4477979
vn -0.7140418 -0.5384156 -0.4474963
vn -0.7202169 -0.4988541 -0.4821122
vn -0.7206337 -0.4976943 -0.4826877
vn -0.7206337 -0.4976943 -0.4826877
vn -0.7210492 -0.4965336 -0.4832622
vn 0.7206835 -0.4130483 -0.5567822
vn 0.6995842 -0.4046104 -0.5889586
vn 0.6995842 -0.4046104 -0.5889586
vn 0.6773995 -0.3955447 -0.6202212
vn 0.5447032 -0.8377523 0.03833345
vn 0.5439122 -0.8384041 0.03518915
vn 0.5439122 -0.8384041 0.03518915
vn 0.5431151 -0.8390465 0.03204446
vn -0.06423049 -0.6010885 0.7965972
vn -0.06469998 -0.6077392 0.7914967
vn -0.06469998 -0.6077392 0.7914967
vn -0.0651649 -0.614347 0.7863404
vn 0.6715306 -0.5985774 -0.4367514
vn 0.6715408 -0.5985684 -0.4367481
vn 0.6715408 -0.5985684 -0.4367481
vn 0.6715509 -0.5985594 -0.4367447
vn -0.6877462 -0.570353 -0.4491132
vn -0.6777798 -0.5765038 -0.4563529
vn -0.6777798 -0.5765038 -0.4563529
vn -0.6676849 -0.5825452 -0.463506
vn -0.7328435 -0.4837817 -0.4784304
vn -0.7389386 -0.4993865 -0.4523083
vn -0.7389386 -0.4993865 -0.4523083
vn -0.7443222 -0.5145105 -0.4257505
vn 0.05944002 -0.7152876 0.6962978
vn 0.05683836 -0.7165452 0.695221
vn 0.05683836 -0.7165452 0.695221
vn 0.05423616 -0.7177961 0.6941377
vn 0.001066268 -0.6995344 0.7145982
vn 0.0285369 -0.6863274 0.7267327
vn 0.0285369 -0.6863274 0.7267327
vn 0.05597681 -0.6723817 0.738085
vn -0.7287168 -0.4783604 -0.4900441
vn -0.7250355 -0.4976363 -0.4761109
vn -0.7250355 -0.4976363 -0.4761109
vn -0.7209343 -0.516624 -0.461902
vn 0.67951 -0.5899751 -0.4361142
vn 0.670413 -0.5978355 -0.439476
vn 0.670413 -0.5978355 -0.439476
vn 0.6612115 -0.6056028 -0.4427692
vn -0.4194832 -0.2324304 0.877502
vn -0.4207876 -0.232891 0.8767551
vn -0.4207876 -0.232891 0.8767551
vn -0.4220909 -0.2333511 0.876006
vn -0.3581393 -0.3216506 0.8765142
vn -0.354431 -0.3204056 0.8784754
vn -0.354431 -0.3204056 0.8784754
vn -0.3507159 -0.3191546 0.8804196
vn -0.7443991 0.5779627 0.3344083
vn -0.7517167 0.5725565 0.3272628
vn -0.7517167 0.5725565 0.3272628
vn -0.7589338 0.5670736 0.3200736
vn 0.3429257 0.370395 -0.8632552
vn 0.3398566 0.3668421 -0.8659818
vn 0.3398566 0.3668421 -0.8659818
vn 0.3367773 0.3632784 -0.8686829
vn 0.3511796 0.3601026 -0.864291
vn 0.3505898 0.359435 -0.8648083
vn 0.3505898 0.359435 -0.8648083
vn 0.3499995 0.3587671 -0.8653246
vn 0.700547 0.5308619 0.4768854
vn 0.6984664 0.5036345 0.508426
vn 0.6984664 0.5036345 0.508426
vn 0.6951701 0.4755307 0.5390817
vn 0.6896728 0.4882711 0.5347361
vn 0.6871396 0.4750335 0.5497112
vn 0.6871396 0.4750335 0.5497112
vn 0.6843275 0.4616029 0.5644632
vn -0.6922098 0.6329142 0.3467926
vn -0.6792877 0.6404822 0.3582604
vn -0.6792877 0.6404822 0.3582604
vn -0.6661241 0.6478226 0.3696007
vn 0.2592851 -0.8408672 0.4750932
vn 0.2448474 -0.8551254 0.4569577
vn 0.2448474 -0.8551254 0.4569577
vn 0.2302283 -0.8687502 0.4384838
vn -0.1491025 0.7920072 -0.5920244
vn -0.1490921 0.7920118 -0.592021
vn -0.1490921 0.7920118 -0.592021
vn -0.1490818 0.7920163 -0.5920176
vn -0.6790593 0.6238757 0.386856
vn -0.6790593 0.6238756 0.386856
vn -0.6790593 0.6238756 0.386856
vn -0.6790593 0.6238756 0.386856
vn 0.6559608 -0.706054 -0.2668394
vn 0.655962 -0.7060534 -0.2668382
vn 0.655962 -0.7060534 -0.2668382
vn 0.6559631 -0.7060527 -0.266837
vn -0.2503369 0.6691785 -0.6996652
vn -0.1718467 0.7172759 -0.6752659
vn -0.1718467 0.7172759 -0.6752659
vn -0.09179787 0.758868 -0.6447422
vn -0.07219611 0.7379819 -0.6709475
vn -0.07187027 0.7381387 -0.6708099
vn -0.07187027 0.7381387 -0.6708099
vn -0.07154442 0.7382955 -0.6706722
vn 0.4038325 0.6888285 0.6020254
vn 0.5528432 0.6352801 0.5392435
vn 0.5528432 0.6352801 0.5392435
vn 0.6858142 0.5633001 0.4608164
vn 0.6916423 0.5645497 0.4504604
vn 0.6865511 0.5677597 0.4541987
vn 0.6865511 0.5677597 0.4541987
vn 0.6814255 0.5709413 0.4579143
vn 0.731475 0.4858842 0.4783941
vn 0.7372615 0.500306 0.4540258
vn 0.7372615 0.500306 0.4540258
vn 0.7424322 0.5143098 0.4292783
vn 0.7282652 0.4930783 0.4759239
vn 0.7275307 0.4950882 0.4749597
vn 0.7275307 0.4950882 0.4749597
vn 0.7267921 0.4970955 0.4739929
vn 0.7260314 0.4896916 0.4827842
vn 0.7177603 0.4964209 0.4882481
vn 0.7177603 0.4964209 0.4882481
vn 0.7093863 0.5030791 0.4936421
vn 0.7277505 0.4916871 0.4781453
vn 0.7361036 0.5052341 0.4504332
vn 0.7361036 0.5052341 0.4504332
vn 0.7437049 0.518265 0.422261
vn 0.7295421 0.4902987 0.4768391
vn 0.7293235 0.4899341 0.4775477
vn 0.7284694 0.4896292 0.4791614
vn 0.727832 0.4896261 0.4801322
vn 0.7263749 0.4903338 0.4816142
vn 0.7256201 0.490955 0.4821189
vn 0.7243656 0.4923118 0.4826216
vn 0.7239568 0.4929969 0.4825356
vn 0.7232843 0.4941938 0.4823197
vn 0.7230572 0.4947391 0.4821012
vn 0.7227705 0.4960563 0.4811769
vn 0.7226868 0.4968765 0.4804557
vn 0.7229574 0.4979419 0.4789432
vn 0.7232676 0.4982591 0.4781443
vn 0.7243003 0.4984697 0.4763582
vn 0.7250187 0.4982671 0.4754764
vn 0.7251089 0.498538 0.4750548
vn 0.7252218 0.4985645 0.4748545
vn 0.7297226 0.4917684 0.475046
vn 0.7297372 0.4911946 0.4756169
vn 0.7293913 0.4931312 0.4741413
vn 0.729082 0.4939107 0.4738055
vn 0.7278777 0.4959076 0.4735713
vn 0.7262394 0.4974793 0.4744371
vn 0.7252218 0.4985645 0.4748545
vn 0.7251089 0.498538 0.4750548
vn -0.6446413 0.7309778 0.2238507
vn -0.5984499 0.7965385 0.08592984
vn -0.4398265 0.8683332 -0.2292379
vn -0.3165031 0.8575715 -0.4054586
vn -0.04525638 0.7282323 -0.6838345
vn 0.1026682 0.6096545 -0.7859902
vn 0.3415211 0.3442586 -0.8745566
vn 0.436639 0.2056511 -0.8758162
vn 0.5691972 -0.04214054 -0.8211204
vn 0.6129786 -0.1505261 -0.7756283
vn 0.6794338 -0.4098036 -0.6086302
vn 0.6866811 -0.5546124 -0.4699727
vn 0.6293473 -0.7576047 -0.1730813
vn 0.5702356 -0.8212959 -0.01745582
vn 0.4014513 -0.8692547 0.2885014
vn 0.2901315 -0.8506697 0.4383887
vn 0.05186252 -0.7327728 0.6784943
vn -0.07488738 -0.6343962 0.7693721
vn 0.05186252 -0.7327728 0.6784943
vn -0.07488738 -0.6343962 0.7693721
vn -0.2996397 -0.398387 0.8668933
vn -0.3987647 -0.2637332 0.8783116
vn -0.5601943 0.02217027 0.8280645
vn -0.6212285 0.173748 0.7641249
vn -0.6828262 0.4375966 0.5850279
vn -0.686829 0.5515069 0.4733984
vn -0.7262148 -0.4940379 -0.4780571
vn -0.7262194 -0.4940375 -0.4780506
vn -0.7262172 -0.4940353 -0.4780563
vn -0.7262172 -0.494043 -0.4780483
vn -0.7262142 -0.4940426 -0.4780532
vn -0.7262096 -0.4940501 -0.4780523
vn -0.7262056 -0.4940505 -0.478058
vn -0.7262049 -0.4940493 -0.4780604
vn -0.7262112 -0.4940436 -0.4780566
vn -0.7262192 -0.4940357 -0.4780529
vn -0.7262225 -0.4940317 -0.4780519
vn -0.7262225 -0.4940338 -0.4780498
vn -0.7262179 -0.4940381 -0.4780521
vn -0.7262139 -0.4940434 -0.4780528
vn -0.726371 -0.4940177 -0.4778406
vn -0.7265155 -0.4939066 -0.4777358
vn -0.7253807 -0.4947851 -0.4785505
vn -0.7248433 -0.495321 -0.4788104
vn -0.7262151 -0.4940394 -0.4780554
vn -0.7262167 -0.4940315 -0.4780607
vn -0.7262164 -0.4940305 -0.4780624
vn -0.7262132 -0.4940363 -0.4780613
vn -0.7258315 -0.4945565 -0.4781031
vn -0.7246959 -0.4954348 -0.4789158
vn -0.7248433 -0.495321 -0.4788104
vn -0.7253807 -0.4947851 -0.4785505
vn 0.6483516 -0.7234187 -0.2372883
vn 0.4571607 -0.8663978 0.2008955
vn 0.6092353 -0.7846683 -0.1145775
vn 0.3258742 -0.8596792 0.3933926
vn 0.6867125 -0.5539694 -0.4706845
vn 0.6834102 -0.4433147 -0.5800195
vn 0.6232966 -0.1797926 -0.7610361
vn 0.5611857 -0.02433224 -0.8273322
vn 0.401511 0.2596711 -0.8782709
vn 0.3070863 0.38904 -0.8685309
vn 0.0836743 0.6266966 -0.774758
vn -0.047465 0.7297559 -0.6820582
vn 0.03587303 -0.7216632 0.6913142
vn -0.1226743 -0.5910828 0.7972277
vn -0.3605376 -0.3183689 0.8767291
vn -0.4473155 -0.1884562 0.8742958
vn -0.5657781 0.03450362 0.8238353
vn -0.6041463 0.1268103 0.7867187
vn -0.6760659 0.3870876 0.6269754
vn -0.686999 0.5473419 0.4779636
vn -0.6289979 0.7581383 0.1720116
vn -0.5715442 0.8203156 0.02048435
vn -0.4042538 0.8693373 -0.2843085
vn -0.2914174 0.8510419 -0.4368109
vn -0.047465 0.7297559 -0.6820582
vn 0.0836743 0.6266966 -0.774758
vn -0.6597803 0.3055314 0.6865425
vn -0.6664972 0.2870755 0.6880183
vn -0.6664972 0.2870755 0.6880183
vn -0.6729556 0.2685082 0.6892272
vn -0.7202144 -0.4988525 -0.4821177
vn -0.7206389 -0.4976712 -0.4827038
vn -0.7206389 -0.4976712 -0.4827038
vn -0.7210621 -0.496489 -0.483289
vn 0.2592906 -0.8408633 0.4750971
vn 0.2445511 -0.8553159 0.4567598
vn 0.2445511 -0.8553159 0.4567598
vn 0.2296251 -0.8691164 0.4380743
vn -0.1491091 0.7920018 -0.5920301
vn -0.1490947 0.792008 -0.5920253
vn -0.1490947 0.792008 -0.5920253
vn -0.1490803 0.7920144 -0.5920205
vn 0.7282918 0.4930081 0.4759559
vn 0.7275423 0.4950596 0.474972
vn 0.7275423 0.4950596 0.474972
vn 0.7267885 0.4971081 0.4739852
vn 0.5494096 -0.835117 0.02699492
vn 0.5498435 -0.8348942 0.02497405
vn 0.5498435 -0.8348942 0.02497405
vn 0.5502751 -0.8346679 0.02295308
vn 0.4046456 0.266863 -0.8746691
vn 0.4046465 0.2668558 -0.8746709
vn 0.4046465 0.2668558 -0.8746709
vn 0.4046475 0.2668487 -0.8746726
vn -0.401271 -0.2645583 0.876921
vn -0.4012688 -0.2645596 0.8769217
vn -0.4012688 -0.2645596 0.8769217
vn -0.4012667 -0.2645608 0.8769223
vn -0.5502737 0.8346689 -0.02295145
vn -0.5498406 0.834896 -0.02497886
vn -0.5498406 0.834896 -0.02497886
vn -0.5494052 0.8351195 -0.02700616
vn 0.02440605 -0.6819829 0.7309608
vn 0.03491465 -0.6969398 0.7162791
vn 0.03491465 -0.6969398 0.7162791
vn 0.04540408 -0.7115136 0.7012038
vn 0.6748218 -0.5929689 -0.4393216
vn 0.674821 -0.5929707 -0.4393207
vn 0.674821 -0.5929707 -0.4393207
vn 0.6748199 -0.5929724 -0.4393196
vn 0.124744 0.5652019 -0.8154665
vn 0.123555 0.5671602 -0.8142872
vn 0.123555 0.5671602 -0.8142872
vn 0.1223651 0.5691147 -0.8131023
vn -0.6908656 0.619841 0.3721584
vn -0.6827043 0.6134822 0.3969313
vn -0.6827043 0.6134822 0.3969313
vn -0.6740509 0.6066812 0.4214182
vn 0.6772743 -0.3050612 -0.6695052
vn 0.6667615 -0.2906869 -0.6862435
vn 0.6667615 -0.2906869 -0.6862435
vn 0.6558505 -0.276139 -0.702572
vn -0.02722645 -0.6664129 0.7450857
vn -0.02721728 -0.6664148 0.7450843
vn -0.02721728 -0.6664148 0.7450843
vn -0.02720811 -0.6664167 0.745083
vn -0.1131827 0.7696407 -0.628365
vn -0.1131814 0.7696376 -0.6283692
vn -0.1131814 0.7696376 -0.6283692
vn -0.11318 0.7696345 -0.6283733
vn -0.7043685 0.489215 0.5143284
vn -0.6961108 0.4655352 0.5465407
vn -0.6961108 0.4655352 0.5465407
vn -0.6866931 0.4410796 0.5778422
vn 0.2024284 0.5109054 -0.835463
vn 0.2024259 0.5109057 -0.8354634
vn 0.2024259 0.5109057 -0.8354634
vn 0.2024234 0.510906 -0.8354638
vn -0.7099987 -0.5045286 -0.4912766
vn -0.7183638 -0.4978693 -0.4858803
vn -0.7183638 -0.4978693 -0.4858803
vn -0.7266257 -0.4911385 -0.4804143
vn -0.6790664 0.6238713 0.3868506
vn -0.6790672 0.6238707 0.3868504
vn -0.6790672 0.6238707 0.3868504
vn -0.679068 0.62387 0.3868501
vn 0.65596 -0.7060537 -0.266842
vn 0.6559627 -0.7060523 -0.2668393
vn 0.6559627 -0.7060523 -0.2668393
vn 0.6559653 -0.7060508 -0.2668366
vn 0.7260181 0.4897037 0.482792
vn 0.7177532 0.4964278 0.4882517
vn 0.7177532 0.4964278 0.4882517
vn 0.7093856 0.5030808 0.4936414
vn 0.06827509 0.672818 -0.7366509
vn 0.05170891 0.6796844 -0.7316798
vn 0.05170891 0.6796844 -0.7316798
vn 0.03512482 0.6863154 -0.7264554
vn -0.6903391 0.6055847 0.3958522
vn -0.6903382 0.6055838 0.3958554
vn -0.6903382 0.6055838 0.3958554
vn -0.6903373 0.6055828 0.3958586
vn 0.6458552 -0.7044993 -0.2941969
vn 0.6458571 -0.7044969 -0.2941985
vn 0.6458571 -0.7044969 -0.2941985
vn 0.645859 -0.7044945 -0.2941999
vn -0.1078518 -0.6264132 0.7719939
vn -0.1233866 -0.6177077 0.7766677
vn -0.1233866 -0.6177077 0.7766677
vn -0.1388797 -0.608793 0.7810784
vn -0.5467429 0.8366087 -0.03403125
vn -0.5467336 0.8366145 -0.03403527
vn -0.5467336 0.8366145 -0.03403527
vn -0.5467244 0.8366204 -0.03403928
vn -0.7557858 -0.5056969 -0.4160031
vn -0.7450053 -0.4946455 -0.4475408
vn -0.7450053 -0.4946455 -0.4475408
vn -0.7333064 -0.4829844 -0.4785267
vn -0.3864729 -0.2817149 0.8782229
vn -0.386482 -0.2817254 0.8782155
vn -0.386482 -0.2817254 0.8782155
vn -0.3864911 -0.281736 0.8782081
vn 0.4722052 0.1469691 -0.8691503
vn 0.4721923 0.1469648 -0.869158
vn 0.4721923 0.1469648 -0.869158
vn 0.4721795 0.1469605 -0.8691657
vn 0.7329045 0.4834886 0.4786333
vn 0.744629 0.4951748 0.4475819
vn 0.744629 0.4951748 0.4475819
vn 0.7554315 0.506248 0.4159764
vn -0.5658137 0.8212817 0.07315088
vn -0.5766116 0.8125316 0.08550702
vn -0.5766116 0.8125316 0.08550702
vn -0.5872101 0.8035004 0.09783358
vn -0.4057621 -0.2735466 0.8720834
vn -0.4057557 -0.2735504 0.8720852
vn -0.4057557 -0.2735504 0.8720852
vn -0.4057492 -0.2735541 0.8720869
vn 0.4591295 0.1349384 -0.8780613
vn 0.4591293 0.1349463 -0.8780601
vn 0.4591293 0.1349463 -0.8780601
vn 0.4591292 0.1349542 -0.878059
vn 0.5477803 -0.8365949 -0.006752795
vn 0.5371287 -0.8434744 0.006605268
vn 0.5371287 -0.8434744 0.006605268
vn 0.5262949 -0.8500677 0.01996109
vn -0.5467413 0.8366098 -0.03402973
vn -0.5467304 0.8366166 -0.03403558
vn -0.5467304 0.8366166 -0.03403558
vn -0.5467196 0.8366235 -0.03404143
vn -0.7557901 -0.5056973 -0.4159947
vn -0.7450124 -0.4946487 -0.4475256
vn -0.7450124 -0.4946487 -0.4475256
vn -0.7333165 -0.4829906 -0.478505
vn -0.3864748 -0.2817124 0.8782228
vn -0.3864836 -0.2817237 0.8782154
vn -0.3864836 -0.2817237 0.8782154
vn -0.3864923 -0.2817349 0.8782079
vn 0.4722078 0.146971 -0.8691487
vn 0.4721934 0.146967 -0.8691571
vn 0.4721934 0.146967 -0.8691571
vn 0.4721791 0.1469629 -0.8691655
vn 0.7329081 0.4834933 0.4786229
vn 0.7446309 0.495178 0.447575
vn 0.7446309 0.495178 0.447575
vn 0.755432 0.5062497 0.4159732
vn -0.6008279 0.1928889 0.7757575
vn -0.6002812 0.1748851 0.7804343
vn -0.6002812 0.1748851 0.7804343
vn -0.5995267 0.1568208 0.7848407
vn 0.2380259 -0.8429208 0.4825228
vn 0.2380338 -0.8429205 0.4825192
vn 0.2380338 -0.8429205 0.4825192
vn 0.2380417 -0.8429203 0.4825157
vn -0.1662855 0.7837048 -0.5984614
vn -0.1662872 0.7837105 -0.5984534
vn -0.1662872 0.7837105 -0.5984534
vn -0.166289 0.7837163 -0.5984454
vn 0.6277947 -0.2462436 -0.7384023
vn 0.6285776 -0.2634065 -0.7317835
vn 0.6285776 -0.2634065 -0.7317835
vn 0.6291475 -0.2804802 -0.7249167
g MillWheel_mesh_0
f 3/3/3 2/2/2 1/1/1
f 4/4/4 2/2/2 3/3/3
f 5/5/5 4/4/4 3/3/3
f 6/6/6 4/4/4 5/5/5
f 7/7/7 6/6/6 5/5/5
f 8/8/8 6/6/6 7/7/7
f 9/9/9 8/8/8 7/7/7
f 10/10/10 8/8/8 9/9/9
f 11/11/11 10/10/10 9/9/9
f 12/12/12 10/10/10 11/11/11
f 13/13/13 12/12/12 11/11/11
f 14/14/14 12/12/12 13/13/13
f 15/15/15 14/14/14 13/13/13
f 16/16/16 14/14/14 15/15/15
f 17/17/17 16/16/16 15/15/15
f 18/18/18 16/16/16 17/17/17
f 19/19/19 18/18/18 17/17/17
f 20/20/20 18/18/18 19/19/19
f 23/23/23 22/22/22 21/21/21
f 24/24/24 22/22/22 23/23/23
f 25/25/25 24/24/24 23/23/23
f 26/26/26 24/24/24 25/25/25
f 1/1/1 26/26/26 25/25/25
f 2/2/2 26/26/26 1/1/1
f 29/29/29 28/28/28 27/27/27
f 30/30/30 28/28/28 29/29/29
f 29/29/29 27/27/27 31/31/31
f 31/31/31 27/27/27 32/32/32
f 31/31/31 32/32/32 33/33/33
f 33/33/33 32/32/32 34/34/34
f 33/33/33 34/34/34 35/35/35
f 35/35/35 34/34/34 36/36/36
f 35/35/35 36/36/36 37/37/37
f 37/37/37 36/36/36 38/38/38
f 37/37/37 38/38/38 39/39/39
f 39/39/39 38/38/38 40/40/40
f 39/39/39 40/40/40 41/41/41
f 41/41/41 40/40/40 42/42/42
f 41/41/41 42/42/42 43/43/43
f 43/43/43 42/42/42 44/44/44
f 43/43/43 44/44/44 45/45/45
f 45/45/45 44/44/44 46/46/46
f 49/49/49 48/48/48 47/47/47
f 50/50/50 48/48/48 49/49/49
f 49/49/49 47/47/47 51/51/51
f 51/51/51 47/47/47 52/52/52
f 51/51/51 52/52/52 30/30/30
f 30/30/30 52/52/52 28/28/28
f 55/55/55 54/54/54 53/53/53
f 56/56/56 54/54/54 55/55/55
f 57/57/57 56/56/56 55/55/55
f 58/58/58 56/56/56 57/57/57
f 59/59/59 58/58/58 57/57/57
f 60/60/60 58/58/58 59/59/59
f 61/61/61 60/60/60 59/59/59
f 62/62/62 60/60/60 61/61/61
f 63/63/63 62/62/62 61/61/61
f 64/64/64 62/62/62 63/63/63
f 65/65/65 64/64/64 63/63/63
f 66/66/66 64/64/64 65/65/65
f 67/67/67 66/66/66 65/65/65
f 68/68/68 66/66/66 67/67/67
f 69/69/69 68/68/68 67/67/67
f 70/70/70 68/68/68 69/69/69
f 71/71/71 70/70/70 69/69/69
f 72/72/72 70/70/70 71/71/71
f 75/75/75 74/74/74 73/73/73
f 76/76/76 74/74/74 75/75/75
f 77/77/77 76/76/76 75/75/75
f 78/78/78 76/76/76 77/77/77
f 53/53/53 78/78/78 77/77/77
f 54/54/54 78/78/78 53/53/53
f 81/81/81 80/80/80 79/79/79
f 82/82/82 80/80/80 81/81/81
f 81/81/81 79/79/79 83/83/83
f 83/83/83 79/79/79 84/84/84
f 83/83/83 84/84/84 85/85/85
f 85/85/85 84/84/84 86/86/86
f 85/85/85 86/86/86 87/87/87
f 87/87/87 86/86/86 88/88/88
f 87/87/87 88/88/88 89/89/89
f 89/89/89 88/88/88 90/90/90
f 89/89/89 90/90/90 91/91/91
f 91/91/91 90/90/90 92/92/92
f 91/91/91 92/92/92 93/93/93
f 93/93/93 92/92/92 94/94/94
f 93/93/93 94/94/94 95/95/95
f 95/95/95 94/94/94 96/96/96
f 98/98/98 97/97/97 82/82/82
f 98/98/98 99/99/99 97/97/97
f 100/100/100 99/99/99 98/98/98
f 100/100/100 101/101/101 99/99/99
f 102/102/102 101/101/101 100/100/100
f 102/102/102 103/103/103 101/101/101
f 104/104/104 103/103/103 102/102/102
f 82/82/82 97/97/97 80/80/80
f 107/107/107 106/106/106 105/105/105
f 108/108/108 106/106/106 107/107/107
f 111/111/111 110/110/110 109/109/109
f 112/112/112 110/110/110 111/111/111
f 115/115/115 114/114/114 113/113/113
f 116/116/116 114/114/114 115/115/115
f 119/119/119 118/118/118 117/117/117
f 120/120/120 118/118/118 119/119/119
f 123/123/123 122/122/122 121/121/121
f 124/124/124 122/122/122 123/123/123
f 127/127/127 126/126/126 125/125/125
f 128/128/128 126/126/126 127/127/127
f 131/131/131 130/130/130 129/129/129
f 132/132/132 130/130/130 131/131/131
f 135/135/135 134/134/134 133/133/133
f 136/136/136 134/134/134 135/135/135
f 139/139/139 138/138/138 137/137/137
f 140/140/140 138/138/138 139/139/139
f 143/143/143 142/142/142 141/141/141
f 144/144/144 142/142/142 143/143/143
f 147/147/147 146/146/146 145/145/145
f 148/148/148 146/146/146 147/147/147
f 151/151/151 150/150/150 149/149/149
f 152/152/152 150/150/150 151/151/151
f 155/155/155 154/154/154 153/153/153
f 156/156/156 154/154/154 155/155/155
f 159/159/159 158/158/158 157/157/157
f 160/160/160 158/158/158 159/159/159
f 163/163/163 162/162/162 161/161/161
f 164/164/164 162/162/162 163/163/163
f 167/167/167 166/166/166 165/165/165
f 168/168/168 166/166/166 167/167/167
f 171/171/171 170/170/170 169/169/169
f 172/172/172 170/170/170 171/171/171
f 175/175/175 174/174/174 173/173/173
f 176/176/176 174/174/174 175/175/175
f 179/179/179 178/178/178 177/177/177
f 180/180/180 178/178/178 179/179/179
f 183/183/183 182/182/182 181/181/181
f 184/184/184 182/182/182 183/183/183
f 187/187/187 186/186/186 185/185/185
f 188/188/188 186/186/186 187/187/187
f 191/191/191 190/190/190 189/189/189
f 192/192/192 190/190/190 191/191/191
f 195/195/195 194/194/194 193/193/193
f 196/196/196 194/194/194 195/195/195
f 199/199/199 198/198/198 197/197/197
f 200/200/200 198/198/198 199/199/199
f 203/203/203 202/202/202 201/201/201
f 204/204/204 202/202/202 203/203/203
f 207/207/207 206/206/206 205/205/205
f 208/208/208 206/206/206 207/207/207
f 211/211/211 210/210/210 209/209/209
f 212/212/212 210/210/210 211/211/211
f 215/215/215 214/214/214 213/213/213
f 216/216/216 214/214/214 215/215/215
f 219/219/219 218/218/218 217/217/217
f 220/220/220 218/218/218 219/219/219
f 223/223/223 222/222/222 221/221/221
f 224/224/224 222/222/222 223/223/223
f 227/227/227 226/226/226 225/225/225
f 228/228/228 226/226/226 227/227/227
f 231/231/231 230/230/230 229/229/229
f 232/232/232 230/230/230 231/231/231
f 235/235/235 234/234/234 233/233/233
f 236/236/236 234/234/234 235/235/235
f 239/239/239 238/238/238 237/237/237
f 240/240/240 238/238/238 239/239/239
f 243/243/243 242/242/242 241/241/241
f 244/244/244 242/242/242 243/243/243
f 247/247/247 246/246/246 245/245/245
f 248/248/248 246/246/246 247/247/247
f 251/251/251 250/250/250 249/249/249
f 252/252/252 250/250/250 251/251/251
f 255/255/255 254/254/254 253/253/253
f 256/256/256 254/254/254 255/255/255
f 259/259/259 258/258/258 257/257/257
f 260/260/260 258/258/258 259/259/259
f 263/263/263 262/262/262 261/261/261
f 264/264/264 262/262/262 263/263/263
f 267/267/267 266/266/266 265/265/265
f 268/268/268 266/266/266 267/267/267
f 269/269/269 268/268/268 267/267/267
f 270/270/270 268/268/268 269/269/269
f 271/271/271 270/270/270 269/269/269
f 272/272/272 270/270/270 271/271/271
f 273/273/273 272/272/272 271/271/271
f 274/274/274 272/272/272 273/273/273
f 275/275/275 274/274/274 273/273/273
f 276/276/276 274/274/274 275/275/275
f 277/277/277 276/276/276 275/275/275
f 278/278/278 276/276/276 277/277/277
f 279/279/279 278/278/278 277/277/277
f 280/280/280 278/278/278 279/279/279
f 281/281/281 280/280/280 279/279/279
f 282/282/282 280/280/280 281/281/281
f 265/265/265 284/284/284 283/283/283
f 284/284/284 285/285/285 283/283/283
f 283/283/283 285/285/285 286/286/286
f 285/285/285 287/287/287 286/286/286
f 286/286/286 287/287/287 288/288/288
f 287/287/287 289/289/289 288/288/288
f 288/288/288 289/289/289 290/290/290
f 266/266/266 284/284/284 265/265/265
f 293/293/293 292/292/292 291/291/291
f 294/294/294 292/292/292 293/293/293
f 295/295/295 294/294/294 293/293/293
f 296/296/296 294/294/294 295/295/295
f 297/297/297 296/296/296 295/295/295
f 298/298/298 296/296/296 297/297/297
f 299/299/299 298/298/298 297/297/297
f 300/300/300 298/298/298 299/299/299
f 301/301/301 300/300/300 299/299/299
f 302/302/302 300/300/300 301/301/301
f 303/303/303 302/302/302 301/301/301
f 304/304/304 302/302/302 303/303/303
f 305/305/305 304/304/304 303/303/303
f 306/306/306 304/304/304 305/305/305
f 307/307/307 306/306/306 305/305/305
f 308/308/308 306/306/306 307/307/307
f 311/311/311 310/310/310 309/309/309
f 312/312/312 310/310/310 311/311/311
f 313/313/313 312/312/312 311/311/311
f 314/314/314 312/312/312 313/313/313
f 315/315/315 314/314/314 313/313/313
f 316/316/316 314/314/314 315/315/315
f 291/291/291 316/316/316 315/315/315
f 292/292/292 316/316/316 291/291/291
f 319/319/319 318/318/318 317/317/317
f 320/320/320 318/318/318 319/319/319
f 319/319/319 317/317/317 321/321/321
f 321/321/321 317/317/317 322/322/322
f 321/321/321 322/322/322 323/323/323
f 323/323/323 322/322/322 324/324/324
f 323/323/323 324/324/324 325/325/325
f 325/325/325 324/324/324 326/326/326
f 325/325/325 326/326/326 327/327/327
f 327/327/327 326/326/326 328/328/328
f 327/327/327 328/328/328 329/329/329
f 329/329/329 328/328/328 330/330/330
f 329/329/329 330/330/330 331/331/331
f 331/331/331 330/330/330 332/332/332
f 331/331/331 332/332/332 333/333/333
f 333/333/333 332/332/332 334/334/334
f 320/320/320 335/335/335 318/318/318
f 336/336/336 335/335/335 320/320/320
f 336/336/336 337/337/337 335/335/335
f 338/338/338 337/337/337 336/336/336
f 338/338/338 339/339/339 337/337/337
f 340/340/340 339/339/339 338/338/338
f 340/340/340 341/341/341 339/339/339
f 342/342/342 341/341/341 340/340/340
f 345/345/345 344/344/344 343/343/343
f 346/346/346 344/344/344 345/345/345
f 345/345/345 343/343/343 347/347/347
f 347/347/347 343/343/343 348/348/348
f 347/347/347 348/348/348 349/349/349
f 349/349/349 348/348/348 350/350/350
f 349/349/349 350/350/350 351/351/351
f 351/351/351 350/350/350 352/352/352
f 351/351/351 352/352/352 353/353/353
f 353/353/353 352/352/352 354/354/354
f 346/346/346 355/355/355 344/344/344
f 356/356/356 355/355/355 346/346/346
f 356/356/356 357/357/357 355/355/355
f 358/358/358 357/357/357 356/356/356
f 358/358/358 359/359/359 357/357/357
f 360/360/360 359/359/359 358/358/358
f 360/360/360 361/361/361 359/359/359
f 362/362/362 361/361/361 360/360/360
f 362/362/362 363/363/363 361/361/361
f 364/364/364 363/363/363 362/362/362
f 364/364/364 365/365/365 363/363/363
f 366/366/366 365/365/365 364/364/364
f 366/366/366 367/367/367 365/365/365
f 368/368/368 367/367/367 366/366/366
f 371/371/371 370/370/370 369/369/369
f 372/372/372 370/370/370 371/371/371
f 375/375/375 374/374/374 373/373/373
f 376/376/376 374/374/374 375/375/375
f 379/379/379 378/378/378 377/377/377
f 380/380/380 378/378/378 379/379/379
f 383/383/383 382/382/382 381/381/381
f 384/384/384 382/382/382 383/383/383
f 387/387/387 386/386/386 385/385/385
f 388/388/388 386/386/386 387/387/387
f 391/391/391 390/390/390 389/389/389
f 392/392/392 390/390/390 391/391/391
f 395/395/395 394/394/394 393/393/393
f 396/396/396 394/394/394 395/395/395
f 399/399/399 398/398/398 397/397/397
f 400/400/400 398/398/398 399/399/399
f 403/403/403 402/402/402 401/401/401
f 404/404/404 402/402/402 403/403/403
f 407/407/407 406/406/406 405/405/405
f 408/408/408 406/406/406 407/407/407
f 411/411/411 410/410/410 409/409/409
f 412/412/412 410/410/410 411/411/411
f 415/415/415 414/414/414 413/413/413
f 416/416/416 414/414/414 415/415/415
f 419/419/419 418/418/418 417/417/417
f 420/420/420 418/418/418 419/419/419
f 423/423/423 422/422/422 421/421/421
f 424/424/424 422/422/422 423/423/423
f 427/427/427 426/426/426 425/425/425
f 428/428/428 426/426/426 427/427/427
f 431/431/431 430/430/430 429/429/429
f 432/432/432 430/430/430 431/431/431
f 435/435/435 434/434/434 433/433/433
f 436/436/436 434/434/434 435/435/435
f 439/439/439 438/438/438 437/437/437
f 440/440/440 438/438/438 439/439/439
f 443/443/443 442/442/442 441/441/441
f 444/444/444 442/442/442 443/443/443
f 447/447/447 446/446/446 445/445/445
f 448/448/448 446/446/446 447/447/447
f 451/451/451 450/450/450 449/449/449
f 452/452/452 450/450/450 451/451/451
f 455/455/455 454/454/454 453/453/453
f 456/456/456 454/454/454 455/455/455
f 459/459/459 458/458/458 457/457/457
f 460/460/460 458/458/458 459/459/459
f 463/463/463 462/462/462 461/461/461
f 464/464/464 462/462/462 463/463/463
f 467/467/467 466/466/466 465/465/465
f 468/468/468 466/466/466 467/467/467
f 471/471/471 470/470/470 469/469/469
f 472/472/472 470/470/470 471/471/471
f 475/475/475 474/474/474 473/473/473
f 476/476/476 474/474/474 475/475/475
f 479/479/479 478/478/478 477/477/477
f 480/480/480 478/478/478 479/479/479
f 483/483/483 482/482/482 481/481/481
f 484/484/484 482/482/482 483/483/483
f 487/487/487 486/486/486 485/485/485
f 488/488/488 486/486/486 487/487/487
f 491/491/491 490/490/490 489/489/489
f 492/492/492 490/490/490 491/491/491
f 495/495/495 494/494/494 493/493/493
f 496/496/496 494/494/494 495/495/495
f 499/499/499 498/498/498 497/497/497
f 500/500/500 498/498/498 499/499/499
f 503/503/503 502/502/502 501/501/501
f 504/504/504 502/502/502 503/503/503
f 507/507/507 506/506/506 505/505/505
f 508/508/508 506/506/506 507/507/507
f 511/511/511 510/510/510 509/509/509
f 512/512/512 510/510/510 511/511/511
f 515/515/515 514/514/514 513/513/513
f 516/516/516 514/514/514 515/515/515
f 519/519/519 518/518/518 517/517/517
f 520/520/520 518/518/518 519/519/519
f 523/523/523 522/522/522 521/521/521
f 524/524/524 522/522/522 523/523/523
f 527/527/527 526/526/526 525/525/525
f 528/528/528 526/526/526 527/527/527
f 531/531/531 530/530/530 529/529/529
f 532/532/532 530/530/530 531/531/531
f 535/535/535 534/534/534 533/533/533
f 536/536/536 534/534/534 535/535/535
f 539/539/539 538/538/538 537/537/537
f 540/540/540 538/538/538 539/539/539
f 543/543/543 542/542/542 541/541/541
f 544/544/544 542/542/542 543/543/543
