g MoP_KitePole_mesh
v 494.9407 83.67646 -971.4188
v 486.2101 88.63003 -967.1556
v 488.9359 83.04128 -974.7322
v 481.9094 84.54767 -975.1603
v 476.494 87.61011 -972.5267
v 474.7939 91.04293 -967.8036
v 477.4745 93.52322 -962.8337
v 483.468 94.13599 -959.5328
v 490.4867 92.67352 -959.1196
v 495.8801 89.72359 -961.7205
v 497.604 86.2943 -966.4343
v 483.468 94.13599 -959.5328
v 473.235 76.3839 -952.8313
v 477.4745 93.52322 -962.8337
v 470.7385 73.97149 -958.7509
v 474.7939 91.04293 -967.8036
v 478.9658 77.11117 -949.031
v 490.4867 92.67352 -959.1196
v 485.7436 75.90609 -948.7522
v 495.8801 89.72359 -961.7205
v 491.0278 73.22924 -952.1085
v 497.604 86.2943 -966.4343
v 492.7833 70.0265 -957.8563
v 478.9658 77.11117 -949.031
v 476.2866 74.56495 -954.8123
v 473.235 76.3839 -952.8313
v 474.6841 73.04372 -958.5444
v 470.7385 73.97149 -958.7509
v 475.7852 71.11306 -962.1935
v 472.472 70.76324 -964.5118
v 479.1695 69.51051 -964.3659
v 477.7578 67.9995 -967.8691
v 483.5443 68.84812 -964.2318
v 484.5428 66.74979 -967.5772
v 487.2383 69.37894 -961.842
v 490.2845 67.5014 -963.761
v 488.8339 70.96716 -958.0969
v 492.7833 70.0265 -957.8563
v 487.7307 72.88102 -954.4394
v 491.0278 73.22924 -952.1085
v 484.3556 74.4334 -952.2884
v 485.7436 75.90609 -948.7522
v 479.9807 75.09577 -952.4226
v 475.7852 71.11306 -962.1935
v 476.7129 60.53186 -959.5039
v 479.1695 69.51051 -964.3659
v 481.1023 60.00691 -959.3975
v 483.5443 68.84812 -964.2318
v 484.7762 60.4276 -956.9614
v 487.2383 69.37894 -961.842
v 473.2844 61.80197 -957.2402
v 474.6841 73.04372 -958.5444
v 472.1268 63.33212 -953.4708
v 486.3344 61.68222 -953.1369
v 488.8339 70.96716 -958.0969
v 484.5428 66.74979 -967.5772
v 490.2845 67.5014 -963.761
v 488.9359 83.04128 -974.7322
v 494.9407 83.67646 -971.4188
v 481.9094 84.54767 -975.1603
v 477.7578 67.9995 -967.8691
v 476.494 87.61011 -972.5267
v 472.472 70.76324 -964.5118
v 474.7939 91.04293 -967.8036
v 470.7385 73.97149 -958.7509
v 492.7833 70.0265 -957.8563
v 497.604 86.2943 -966.4343
v 484.3556 74.4334 -952.2884
v 477.3559 64.95847 -947.1998
v 479.9807 75.09577 -952.4226
v 473.6818 64.53776 -949.6357
v 476.2866 74.56495 -954.8123
v 472.1268 63.33212 -953.4708
v 474.6841 73.04372 -958.5444
v 481.7453 64.43348 -947.0934
v 487.7307 72.88102 -954.4394
v 485.1753 63.19502 -949.3609
v 488.8339 70.96716 -958.0969
v 486.3344 61.68222 -953.1369
v 472.1268 63.33212 -953.4708
v 473.6818 64.53776 -949.6357
v 468.9573 64.01635 -953.5745
v 470.9341 61.54465 -958.9014
v 473.2844 61.80197 -957.2402
v 471.197 65.89603 -948.2523
v 477.3559 64.95847 -947.1998
v 475.7578 59.42909 -962.0226
v 476.7129 60.53186 -959.5039
v 476.6079 66.40788 -944.7697
v 481.7453 64.43348 -947.0934
v 482.697 65.50104 -944.5577
v 485.1753 63.19502 -949.3609
v 487.5257 63.44408 -947.6975
v 486.3344 61.68222 -953.1369
v 489.143 60.98105 -953.0255
v 484.7762 60.4276 -956.9614
v 486.9253 59.06237 -958.3902
v 481.1023 60.00691 -959.3975
v 481.8385 58.49717 -961.7954
v 471.197 65.89603 -948.2523
v 466.869 56.08592 -949.4315
v 468.9573 64.01635 -953.5745
v 469.07 57.7079 -944.0251
v 476.6079 66.40788 -944.7697
v 474.4644 58.12983 -940.5047
v 482.697 65.50104 -944.5577
v 480.5654 57.33519 -940.3155
v 487.5257 63.44408 -947.6975
v 485.439 55.53456 -943.5504
v 489.143 60.98105 -953.0255
v 487.1019 53.39905 -948.9753
v 474.4644 58.12983 -940.5047
v 471.5548 56.34962 -945.4086
v 469.07 57.7079 -944.0251
v 470.0385 55.40169 -949.3276
v 475.2123 56.6804 -942.9349
v 466.869 56.08592 -949.4315
v 471.2424 54.19861 -953.1951
v 468.892 53.9413 -954.8566
v 474.7067 53.19998 -955.5333
v 473.7517 52.0972 -958.052
v 479.1082 52.78723 -955.4498
v 479.8444 51.27748 -957.8478
v 482.7656 53.118 -952.9761
v 484.9147 51.75277 -954.4047
v 484.2934 54.10022 -949.0864
v 487.1019 53.39905 -948.9753
v 483.0885 55.28548 -945.2139
v 485.439 55.53456 -943.5504
v 479.6138 56.26764 -942.8512
v 480.5654 57.33519 -940.3155
v 475.2123 56.6804 -942.9349
v 463.7309 26.23017 -929.8593
v 471.5548 56.34962 -945.4086
v 462.3571 26.23017 -934.0874
v 470.0385 55.40169 -949.3276
v 467.3274 26.23017 -927.2465
v 479.6138 56.26764 -942.8512
v 471.773 26.23017 -927.2465
v 483.0885 55.28548 -945.2139
v 475.4128 26.19086 -929.9592
v 484.2934 54.10022 -949.0864
v 476.7858 26.21037 -934.1875
v 479.8444 51.27748 -957.8478
v 484.9147 51.75277 -954.4047
v 481.8385 58.49717 -961.7954
v 486.9253 59.06237 -958.3902
v 475.7578 59.42909 -962.0226
v 487.1019 53.39905 -948.9753
v 489.143 60.98105 -953.0255
v 473.7517 52.0972 -958.052
v 470.9341 61.54465 -958.9014
v 468.892 53.9413 -954.8566
v 468.9573 64.01635 -953.5745
v 466.869 56.08592 -949.4315
v 486.9253 59.06237 -958.3902
v 481.1023 60.00691 -959.3975
v 481.8385 58.49717 -961.7954
v 476.7129 60.53186 -959.5039
v 479.1082 52.78723 -955.4498
v 475.3696 26.23017 -938.3157
v 482.7656 53.118 -952.9761
v 471.773 26.23017 -940.9285
v 474.7067 53.19998 -955.5333
v 467.3274 26.23017 -940.9285
v 471.2424 54.19861 -953.1951
v 463.7309 26.23017 -938.3157
v 470.0385 55.40169 -949.3276
v 462.3571 26.23017 -934.0874
v 476.7858 26.21037 -934.1875
v 484.2934 54.10022 -949.0864
vt 0.987133 0.432825
vt 0.970247 0.438987
vt 0.976619 0.427013
vt 0.963472 0.425979
vt 0.953761 0.430472
vt 0.948828 0.437034
vt 0.953061 0.445302
vt 0.963835 0.45113
vt 0.977011 0.452345
vt 0.987578 0.448535
vt 0.990629 0.442442
vt 0.963835 0.45113
vt 0.951958 0.467887
vt 0.953061 0.445302
vt 0.947377 0.459779
vt 0.948828 0.437034
vt 0.961215 0.472453
vt 0.977011 0.452345
vt 0.971933 0.473554
vt 0.987578 0.448535
vt 0.979369 0.469457
vt 0.990629 0.442442
vt 0.986824 0.461681
vt 0.961215 0.472453
vt 0.955861 0.465789
vt 0.951958 0.467887
vt 0.953359 0.459508
vt 0.947377 0.459779
vt 0.955851 0.453511
vt 0.949957 0.449433
vt 0.962376 0.450088
vt 0.960216 0.44424
vt 0.970441 0.450537
vt 0.972771 0.44516
vt 0.976975 0.454685
vt 0.982938 0.451807
vt 0.979459 0.460957
vt 0.986824 0.461681
vt 0.976987 0.466979
vt 0.979369 0.469457
vt 0.970492 0.470395
vt 0.971933 0.473554
vt 0.962408 0.469951
vt 0.955851 0.453511
vt 0.960252 0.461626
vt 0.962376 0.450088
vt 0.968278 0.461978
vt 0.970441 0.450537
vt 0.974778 0.466229
vt 0.976975 0.454685
vt 0.953758 0.465309
vt 0.953359 0.459508
vt 0.951276 0.471629
vt 0.977267 0.472728
vt 0.979459 0.460957
vt 0.972771 0.44516
vt 0.982938 0.451807
vt 0.976619 0.427013
vt 0.987133 0.432825
vt 0.963472 0.425979
vt 0.960216 0.44424
vt 0.953761 0.430472
vt 0.949957 0.449433
vt 0.948828 0.437034
vt 0.947377 0.459779
vt 0.986824 0.461681
vt 0.990629 0.442442
vt 0.970492 0.470395
vt 0.960273 0.482435
vt 0.962408 0.469951
vt 0.953763 0.478173
vt 0.955861 0.465789
vt 0.951276 0.471629
vt 0.953359 0.459508
vt 0.968315 0.482783
vt 0.976987 0.466979
vt 0.974803 0.479069
vt 0.979459 0.460957
vt 0.977267 0.472728
vt 0.951276 0.471629
vt 0.953763 0.478173
vt 0.945157 0.473098
vt 0.950527 0.467288
vt 0.953758 0.465309
vt 0.948466 0.480724
vt 0.960273 0.482435
vt 0.958818 0.46023
vt 0.960252 0.461626
vt 0.958087 0.486617
vt 0.968315 0.482783
vt 0.969992 0.486336
vt 0.974803 0.479069
vt 0.978973 0.48199
vt 0.977267 0.472728
vt 0.982028 0.475002
vt 0.974778 0.466229
vt 0.976187 0.467103
vt 0.968278 0.461978
vt 0.969051 0.463021
vt 0.948466 0.480724
vt 0.942558 0.484788
vt 0.945157 0.473098
vt 0.946084 0.490756
vt 0.958087 0.486617
vt 0.956828 0.496024
vt 0.969992 0.486336
vt 0.967523 0.496362
vt 0.978973 0.48199
vt 0.977188 0.491779
vt 0.982028 0.475002
vt 0.980467 0.483377
vt 0.956828 0.496024
vt 0.952064 0.488205
vt 0.946084 0.490756
vt 0.949589 0.481452
vt 0.958544 0.492549
vt 0.942558 0.484788
vt 0.952061 0.474874
vt 0.947913 0.471972
vt 0.95853 0.470981
vt 0.957101 0.466801
vt 0.966524 0.471255
vt 0.968224 0.467415
vt 0.972298 0.472796
vt 0.977188 0.473439
vt 0.97549 0.482271
vt 0.980467 0.483377
vt 0.973033 0.488867
vt 0.977188 0.491779
vt 0.96655 0.49282
vt 0.967523 0.496362
vt 0.958544 0.492549
vt 0.945913 0.524511
vt 0.952064 0.488205
vt 0.943479 0.517019
vt 0.949589 0.481452
vt 0.952287 0.529141
vt 0.96655 0.49282
vt 0.960165 0.529141
vt 0.973033 0.488867
vt 0.966625 0.524345
vt 0.97549 0.482271
vt 0.969053 0.516847
vt 0.968224 0.467415
vt 0.977188 0.473439
vt 0.969051 0.463021
vt 0.976187 0.467103
vt 0.958818 0.46023
vt 0.980467 0.483377
vt 0.982028 0.475002
vt 0.957101 0.466801
vt 0.950527 0.467288
vt 0.947913 0.471972
vt 0.945157 0.473098
vt 0.942558 0.484788
vt 0.976187 0.467103
vt 0.968278 0.461978
vt 0.969051 0.463021
vt 0.960252 0.461626
vt 0.966524 0.471255
vt 0.966538 0.509526
vt 0.972298 0.472796
vt 0.960165 0.504895
vt 0.95853 0.470981
vt 0.952287 0.504895
vt 0.952061 0.474874
vt 0.945913 0.509526
vt 0.949589 0.481452
vt 0.943479 0.517019
vt 0.969053 0.516847
vt 0.97549 0.482271
vn 0.2041572 0.8200065 -0.5347047
vn 0.2042912 0.8244016 -0.5278514
vn 0.2074505 0.8214116 -0.5312696
vn 0.207687 0.8217379 -0.5306722
vn 0.2056285 0.8237226 -0.528392
vn 0.2044376 0.8263313 -0.5247685
vn 0.2042789 0.8271344 -0.5235636
vn 0.2035918 0.8269747 -0.5240831
vn 0.2018609 0.8275614 -0.5238267
vn 0.2015672 0.826896 -0.5249892
vn 0.2022251 0.822129 -0.5321739
vn -0.3125494 0.5496276 0.7747402
vn -0.6526659 0.5029325 0.5666445
vn -0.7841565 0.4405157 0.4370865
vn -0.9587119 0.2745441 0.07414288
vn -0.976361 0.1660679 -0.1383496
vn -0.1381627 0.5462291 0.8261627
vn 0.2276656 0.4646339 0.8557358
vn 0.4201466 0.3792503 0.8244065
vn 0.726032 0.1842329 0.6625223
vn 0.8589328 0.03766144 0.5107017
vn 0.9677374 -0.1937815 0.1610375
vn 0.9519014 -0.3021095 -0.05112341
vn -0.1843885 -0.8649275 0.466799
vn -0.2013152 -0.8638632 0.4617494
vn -0.2184995 -0.8624891 0.4564761
vn -0.2269256 -0.8726128 0.4324947
vn -0.2210136 -0.8775603 0.4254893
vn -0.2046042 -0.8905936 0.4061777
vn -0.1860142 -0.8871923 0.4222423
vn -0.1663592 -0.8889564 0.4267095
vn -0.1667025 -0.8731877 0.4579885
vn -0.1714899 -0.8664204 0.4689424
vn -0.1935312 -0.8531157 0.4844989
vn -0.2124661 -0.8525773 0.4774621
vn -0.227044 -0.8520408 0.4716752
vn -0.2344283 -0.8666508 0.4404088
vn -0.2255174 -0.8750238 0.4283402
vn -0.2062377 -0.8925552 0.4010127
vn -0.1847624 -0.8909523 0.4148096
vn -0.1645398 -0.8945301 0.415623
vn -0.164317 -0.8813369 0.4429957
vn -0.1656256 -0.876261 0.4524761
vn -0.7489053 -0.1443883 -0.6467556
vn -0.4300407 -0.3348517 -0.8384148
vn -0.2377138 -0.4126921 -0.8793051
vn 0.1508461 -0.5048183 -0.8499435
vn 0.3423586 -0.5213779 -0.7816365
vn 0.6687752 -0.4895881 -0.5595027
vn 0.8046266 -0.4374926 -0.4014678
vn -0.868609 -0.03046693 -0.4945607
vn -0.972831 0.1821538 -0.1428981
vn -0.9579037 0.2810891 0.05839055
vn 0.9563164 -0.2877471 -0.05158108
vn 0.9722081 -0.1831883 0.1457853
vn 0.1637244 -0.4339174 -0.8859515
vn 0.6652069 -0.45852 -0.589287
vn 0.3341298 -0.4624952 -0.8212524
vn 0.7880399 -0.4388173 -0.4317783
vn -0.2029997 -0.3511672 -0.9140421
vn -0.4029704 -0.2928236 -0.8671039
vn -0.718157 -0.1405229 -0.6815453
vn -0.862135 -0.04084095 -0.5050301
vn -0.976361 0.1660679 -0.1383496
vn -0.9587119 0.2745441 0.07414288
vn 0.9519014 -0.3021095 -0.05112341
vn 0.9677374 -0.1937815 0.1610375
vn 0.2337673 0.3984252 0.8869105
vn -0.154674 0.4848501 0.8608115
vn -0.3471351 0.4992916 0.7938547
vn -0.6734554 0.4693711 0.5710942
vn -0.8065849 0.4238628 0.4120209
vn -0.9579037 0.2810891 0.05839055
vn -0.972831 0.1821538 -0.1428981
vn 0.4267734 0.327276 0.8430628
vn 0.7470956 0.1426036 0.6492398
vn 0.8684588 0.0296925 0.4948713
vn 0.9722081 -0.1831883 0.1457853
vn 0.9563164 -0.2877471 -0.05158108
vn 0.1842196 0.9180584 -0.3510442
vn 0.2224053 0.8814156 -0.4167041
vn 0.2217434 0.8993549 -0.3768163
vn 0.1688254 0.9208667 -0.3514291
vn 0.1189822 0.9189917 -0.3758955
vn 0.2227958 0.8677419 -0.4442815
vn 0.1786196 0.8657972 -0.4674292
vn 0.1243542 0.9027231 -0.411858
vn 0.1086667 0.8831057 -0.4564163
vn 0.1576443 0.8761365 -0.455558
vn 0.1080028 0.8913332 -0.4402961
vn 0.1220191 0.9085399 -0.399583
vn 0.1181888 0.9227686 -0.3667827
vn 0.178125 0.9209403 -0.3466129
vn 0.2049791 0.9115934 -0.3563442
vn 0.2494274 0.8882468 -0.3857506
vn 0.2430295 0.8693399 -0.4303308
vn 0.2370377 0.857098 -0.4573795
vn 0.1853567 0.8544884 -0.4852756
vn 0.1623916 0.8657098 -0.4734716
vn -0.7995763 0.427242 0.4220687
vn -0.9598922 0.2762119 0.04810403
vn -0.970958 0.1662835 -0.1720183
vn -0.6616318 0.4721795 0.582486
vn -0.3350781 0.4989419 0.799237
vn -0.1501446 0.484264 0.8619426
vn 0.2322454 0.3989184 0.8870886
vn 0.427827 0.3268203 0.8427055
vn 0.7486034 0.141437 0.6477565
vn 0.8694459 0.02855622 0.4932022
vn 0.9723955 -0.1854719 0.141588
vn 0.9552808 -0.2902161 -0.05668651
vn -0.1923721 -0.8677229 0.458312
vn -0.2509416 -0.8768044 0.4101734
vn -0.2455858 -0.8916702 0.3802787
vn -0.2418308 -0.9202667 0.3076151
vn -0.1486335 -0.8815095 0.448162
vn -0.18275 -0.9348671 0.304345
vn -0.1431871 -0.9502186 0.2767346
vn -0.09435748 -0.9353451 0.3409199
vn -0.08313223 -0.9228168 0.3761623
vn -0.09701117 -0.8877176 0.4500515
vn -0.1541704 -0.8717315 0.4650975
vn -0.2014743 -0.8559272 0.4762318
vn -0.2663828 -0.8641581 0.426932
vn -0.2669747 -0.8790993 0.3948532
vn -0.2706405 -0.9108231 0.311697
vn -0.2061446 -0.9299964 0.3043205
vn -0.1557651 -0.949964 0.27075
vn -0.09581317 -0.9371659 0.3354698
vn -0.08250083 -0.9273133 0.3650803
vn -0.09554687 -0.8955565 0.434568
vn -0.3470797 0.4992898 0.7938799
vn -0.6602686 0.4724931 0.583777
vn -0.7939392 0.4298627 0.4299752
vn -0.9528375 0.2921339 0.0822097
vn -0.9733335 0.1891768 -0.1297454
vn -0.1676733 0.486499 0.8574407
vn 0.2153564 0.4042705 0.8889247
vn 0.4091686 0.3348795 0.8487854
vn 0.7427237 0.1459728 0.6534933
vn 0.8696801 0.02822676 0.4928081
vn 0.9728029 -0.1918899 0.1297406
vn 0.9485642 -0.304523 -0.08655373
vn 0.1529205 -0.5051057 -0.8494019
vn 0.667482 -0.4899199 -0.5607552
vn 0.3435177 -0.521409 -0.781107
vn 0.8014348 -0.4391028 -0.4060677
vn -0.234618 -0.4137475 -0.8796405
vn 0.9552808 -0.2902161 -0.05668651
vn 0.9723955 -0.1854719 0.141588
vn -0.4286407 -0.3355054 -0.8388703
vn -0.7377197 -0.1531258 -0.6575121
vn -0.8520367 -0.04890414 -0.5211928
vn -0.970958 0.1662835 -0.1720183
vn -0.9598922 0.2762119 0.04810403
vn 0.2370377 0.857098 -0.4573795
vn 0.1853567 0.8544884 -0.4852756
vn 0.1623916 0.8657098 -0.4734716
vn 0.1086667 0.8831057 -0.4564163
vn 0.3414629 -0.521359 -0.7820409
vn 0.6483822 -0.4945211 -0.5788344
vn 0.7846373 -0.4471693 -0.4293996
vn 0.1640525 -0.5065512 -0.846459
vn -0.2156866 -0.4199549 -0.8815424
vn -0.4038822 -0.3464001 -0.8466913
vn -0.738879 -0.1522874 -0.6564041
vn -0.8672809 -0.03208203 -0.4967843
vn -0.9733335 0.1891768 -0.1297454
vn -0.9528375 0.2921339 0.0822097
vn 0.9485642 -0.304523 -0.08655373
vn 0.9728029 -0.1918899 0.1297406
g MoP_KitePole_mesh_0
f 3/3/3 2/2/2 1/1/1
f 4/4/4 2/2/2 3/3/3
f 5/5/5 2/2/2 4/4/4
f 6/6/6 2/2/2 5/5/5
f 7/7/7 2/2/2 6/6/6
f 8/8/8 2/2/2 7/7/7
f 9/9/9 2/2/2 8/8/8
f 10/10/10 2/2/2 9/9/9
f 11/11/11 2/2/2 10/10/10
f 1/1/1 2/2/2 11/11/11
f 14/14/14 13/13/13 12/12/12
f 14/14/14 15/15/15 13/13/13
f 16/16/16 15/15/15 14/14/14
f 12/12/12 13/13/13 17/17/17
f 12/12/12 17/17/17 18/18/18
f 18/18/18 17/17/17 19/19/19
f 18/18/18 19/19/19 20/20/20
f 20/20/20 19/19/19 21/21/21
f 20/20/20 21/21/21 22/22/22
f 22/22/22 21/21/21 23/23/23
f 26/26/26 25/25/25 24/24/24
f 26/26/26 27/27/27 25/25/25
f 28/28/28 27/27/27 26/26/26
f 28/28/28 29/29/29 27/27/27
f 30/30/30 29/29/29 28/28/28
f 30/30/30 31/31/31 29/29/29
f 32/32/32 31/31/31 30/30/30
f 32/32/32 33/33/33 31/31/31
f 34/34/34 33/33/33 32/32/32
f 34/34/34 35/35/35 33/33/33
f 36/36/36 35/35/35 34/34/34
f 36/36/36 37/37/37 35/35/35
f 38/38/38 37/37/37 36/36/36
f 38/38/38 39/39/39 37/37/37
f 40/40/40 39/39/39 38/38/38
f 40/40/40 41/41/41 39/39/39
f 42/42/42 41/41/41 40/40/40
f 42/42/42 43/43/43 41/41/41
f 24/24/24 43/43/43 42/42/42
f 24/24/24 25/25/25 43/43/43
f 46/46/46 45/45/45 44/44/44
f 46/46/46 47/47/47 45/45/45
f 48/48/48 47/47/47 46/46/46
f 48/48/48 49/49/49 47/47/47
f 50/50/50 49/49/49 48/48/48
f 44/44/44 45/45/45 51/51/51
f 44/44/44 51/51/51 52/52/52
f 52/52/52 51/51/51 53/53/53
f 50/50/50 54/54/54 49/49/49
f 55/55/55 54/54/54 50/50/50
f 58/58/58 57/57/57 56/56/56
f 59/59/59 57/57/57 58/58/58
f 58/58/58 56/56/56 60/60/60
f 60/60/60 56/56/56 61/61/61
f 60/60/60 61/61/61 62/62/62
f 62/62/62 61/61/61 63/63/63
f 62/62/62 63/63/63 64/64/64
f 64/64/64 63/63/63 65/65/65
f 59/59/59 66/66/66 57/57/57
f 67/67/67 66/66/66 59/59/59
f 70/70/70 69/69/69 68/68/68
f 70/70/70 71/71/71 69/69/69
f 72/72/72 71/71/71 70/70/70
f 72/72/72 73/73/73 71/71/71
f 74/74/74 73/73/73 72/72/72
f 68/68/68 69/69/69 75/75/75
f 68/68/68 75/75/75 76/76/76
f 76/76/76 75/75/75 77/77/77
f 76/76/76 77/77/77 78/78/78
f 78/78/78 77/77/77 79/79/79
f 82/82/82 81/81/81 80/80/80
f 82/82/82 80/80/80 83/83/83
f 83/83/83 80/80/80 84/84/84
f 85/85/85 81/81/81 82/82/82
f 85/85/85 86/86/86 81/81/81
f 83/83/83 84/84/84 87/87/87
f 87/87/87 84/84/84 88/88/88
f 89/89/89 86/86/86 85/85/85
f 89/89/89 90/90/90 86/86/86
f 91/91/91 90/90/90 89/89/89
f 91/91/91 92/92/92 90/90/90
f 93/93/93 92/92/92 91/91/91
f 93/93/93 94/94/94 92/92/92
f 95/95/95 94/94/94 93/93/93
f 95/95/95 96/96/96 94/94/94
f 97/97/97 96/96/96 95/95/95
f 97/97/97 98/98/98 96/96/96
f 87/87/87 88/88/88 99/99/99
f 102/102/102 101/101/101 100/100/100
f 100/100/100 101/101/101 103/103/103
f 100/100/100 103/103/103 104/104/104
f 104/104/104 103/103/103 105/105/105
f 104/104/104 105/105/105 106/106/106
f 106/106/106 105/105/105 107/107/107
f 106/106/106 107/107/107 108/108/108
f 108/108/108 107/107/107 109/109/109
f 108/108/108 109/109/109 110/110/110
f 110/110/110 109/109/109 111/111/111
f 114/114/114 113/113/113 112/112/112
f 114/114/114 115/115/115 113/113/113
f 112/112/112 113/113/113 116/116/116
f 117/117/117 115/115/115 114/114/114
f 117/117/117 118/118/118 115/115/115
f 119/119/119 118/118/118 117/117/117
f 119/119/119 120/120/120 118/118/118
f 121/121/121 120/120/120 119/119/119
f 121/121/121 122/122/122 120/120/120
f 123/123/123 122/122/122 121/121/121
f 123/123/123 124/124/124 122/122/122
f 125/125/125 124/124/124 123/123/123
f 125/125/125 126/126/126 124/124/124
f 127/127/127 126/126/126 125/125/125
f 127/127/127 128/128/128 126/126/126
f 129/129/129 128/128/128 127/127/127
f 129/129/129 130/130/130 128/128/128
f 131/131/131 116/116/116 130/130/130
f 131/131/131 130/130/130 129/129/129
f 112/112/112 116/116/116 131/131/131
f 134/134/134 133/133/133 132/132/132
f 134/134/134 135/135/135 133/133/133
f 136/136/136 135/135/135 134/134/134
f 132/132/132 133/133/133 137/137/137
f 132/132/132 137/137/137 138/138/138
f 138/138/138 137/137/137 139/139/139
f 138/138/138 139/139/139 140/140/140
f 140/140/140 139/139/139 141/141/141
f 140/140/140 141/141/141 142/142/142
f 142/142/142 141/141/141 143/143/143
f 146/146/146 145/145/145 144/144/144
f 147/147/147 145/145/145 146/146/146
f 146/146/146 144/144/144 148/148/148
f 147/147/147 149/149/149 145/145/145
f 150/150/150 149/149/149 147/147/147
f 148/148/148 144/144/144 151/151/151
f 148/148/148 151/151/151 152/152/152
f 152/152/152 151/151/151 153/153/153
f 152/152/152 153/153/153 154/154/154
f 154/154/154 153/153/153 155/155/155
f 158/158/158 157/157/157 156/156/156
f 158/158/158 159/159/159 157/157/157
f 162/162/162 161/161/161 160/160/160
f 160/160/160 161/161/161 163/163/163
f 160/160/160 163/163/163 164/164/164
f 164/164/164 163/163/163 165/165/165
f 164/164/164 165/165/165 166/166/166
f 166/166/166 165/165/165 167/167/167
f 166/166/166 167/167/167 168/168/168
f 168/168/168 167/167/167 169/169/169
f 162/162/162 170/170/170 161/161/161
f 171/171/171 170/170/170 162/162/162
