g MoP_Sanctuary_Lamp_mesh
v 525.8075 241.7227 -1053.142
v 527.4858 244.3047 -1050.135
v 530.6929 242.5279 -1057.137
v 532.356 246.2668 -1054.128
v 526.6966 239.1358 -1060.017
v 523.0975 239.1083 -1055.703
v 522.0069 236.5866 -1062.625
v 519.1847 236.7546 -1057.616
v 515.5343 235.5512 -1064.456
v 514.5877 235.9311 -1059.233
v 509.4846 236.2442 -1065.377
v 509.5266 236.4505 -1059.996
v 503.6688 238.3246 -1064.99
v 505.147 238.0946 -1059.816
v 499.0928 241.3831 -1063.485
v 501.3834 240.6422 -1058.686
v 496.3971 245.5575 -1061.326
v 499.0767 243.7765 -1056.764
v 494.9589 249.4866 -1058.388
v 498.0052 246.9764 -1054.14
v 492.9001 252.185 -1054.096
v 497.6473 249.0659 -1050.288
v 517.4988 236.8186 -1071.253
v 509.6633 237.7198 -1072.038
v 502.9458 240.0455 -1071.601
v 497.4022 243.6593 -1069.844
v 493.6393 247.9279 -1066.98
v 491.7722 252.8134 -1063.748
v 488.9722 257.032 -1059.792
v 510.8794 241.284 -1079.279
v 518.6129 240.3648 -1078.395
v 524.3818 237.7698 -1069.103
v 531.1437 240.7538 -1065.946
v 535.2467 244.9427 -1062.826
v 538.0622 250.076 -1060.111
v 539.007 248.8492 -1068.967
v 542.0139 254.1029 -1065.315
v 533.5865 244.2783 -1072.668
v 526.9978 241.5331 -1076.233
v 486.7184 262.0664 -1065.635
v 540.1215 253.9687 -1075.462
v 543.764 259.4026 -1071.737
v 535.0367 249.9428 -1079.206
v 527.9986 246.9126 -1082.553
v 520.1957 246.0839 -1084.889
v 511.9651 246.7168 -1085.543
v 504.4942 248.6009 -1085.025
v 503.0493 243.5997 -1078.569
v 496.8555 247.097 -1076.568
v 492.3191 251.8871 -1073.418
v 489.6601 256.7624 -1069.672
v 497.6124 252.1857 -1083.264
v 492.7874 256.5631 -1080.137
v 489.8161 261.766 -1075.976
v 488.2914 266.6655 -1071.188
v 500.4853 257.8116 -1088.344
v 506.5619 254.7784 -1089.727
v 497.2965 261.3251 -1084.589
v 493.6703 265.557 -1080.31
v 492.6231 271.2215 -1076.711
v 504.4899 262.5001 -1089.546
v 509.5398 260.6201 -1092.573
v 513.8756 253.0016 -1089.877
v 520.9901 252.4381 -1089.214
v 528.3085 253.4599 -1087.209
v 534.1771 255.7857 -1084.196
v 539.2311 259.5131 -1080.492
v 542.0885 263.8152 -1075.953
v 532.6926 261.6298 -1087.371
v 536.3796 264.3253 -1084.062
v 527.4197 259.5981 -1090.195
v 521.6888 258.8091 -1091.807
v 515.3682 259.1856 -1092.494
v 530.0117 266.4009 -1089.107
v 526.2792 264.9847 -1091.184
v 521.6198 264.2974 -1092.615
v 516.9114 264.5875 -1093.309
v 512.0775 265.9006 -1093.636
v 524.7722 269.6493 -1091.562
v 527.5473 270.9378 -1090.15
v 521.618 269.0988 -1092.648
v 518.0027 269.22 -1093.338
v 514.5113 270.1828 -1093.563
v 524.7109 273.4008 -1094.239
v 527.0606 274.6645 -1093.312
v 523.8218 277.7744 -1095.801
v 525.273 278.7291 -1094.696
v 528.8154 276.3834 -1092.191
v 521.9947 276.9926 -1096.807
v 521.8798 272.7397 -1095.241
v 521.9947 276.9926 -1096.807
v 520.0103 276.926 -1097.185
v 518.9677 272.8759 -1095.858
v 518.0557 277.6622 -1096.829
v 516.0535 273.8033 -1095.966
v 518.0557 277.6622 -1096.829
v 514.5113 270.1828 -1093.563
v 516.383 278.7347 -1096.122
v 513.5833 275.1828 -1095.57
v 515.2172 279.6264 -1095.499
v 511.609 276.7014 -1094.801
v 514.5113 270.1828 -1093.563
v 511.6546 270.4253 -1090.631
v 510.4966 272.4042 -1090.604
v 536.3796 264.3253 -1084.062
v 542.0885 263.8152 -1075.953
v 539.8021 267.3829 -1080.466
v 529.4192 272.5868 -1088.927
v 530.2371 274.4867 -1088.09
v 529.8305 278.5403 -1091.197
v 526.2274 279.7014 -1093.653
v 532.7593 268.3694 -1086.248
v 535.988 270.8365 -1085.147
v 539.8021 267.3829 -1080.466
v 510.8012 278.42 -1093.204
v 510.4966 272.4042 -1090.604
v 511.609 276.7014 -1094.801
v 510.0963 274.8437 -1089.25
v 505.6984 269.0991 -1089.186
v 507.9471 266.505 -1090.557
v 510.4966 272.4042 -1090.604
v 501.3195 265.5768 -1087.672
v 498.2989 269.1013 -1083.723
v 496.3648 273.7443 -1081.059
v 503.3969 271.9708 -1086.968
v 501.6644 275.4881 -1084.482
v 539.2311 259.5131 -1080.492
v 542.0885 263.8152 -1075.953
v 536.3796 264.3253 -1084.062
v 536.3796 264.3253 -1084.062
v 539.8021 267.3829 -1080.466
v 532.7593 268.3694 -1086.248
v 530.0117 266.4009 -1089.107
v 527.5473 270.9378 -1090.15
v 542.0885 263.8152 -1075.953
v 541.6226 269.7399 -1070.639
v 539.8021 267.3829 -1080.466
v 543.3547 266.3392 -1065.867
v 539.9246 271.8976 -1059.77
v 538.2542 267.1541 -1054.054
v 532.6223 272.3933 -1049.616
v 529.9807 266.465 -1044.64
v 522.9236 270.1811 -1042.003
v 520.1292 262.8508 -1039.343
v 514.1031 264.6163 -1038.594
v 513.5126 259.1792 -1038.745
v 509.073 259.1799 -1039.139
v 517.8596 257.8506 -1039.394
v 515.6741 272.3282 -1041.057
v 508.3728 264.76 -1039.177
v 508.4661 272.5232 -1041.822
v 502.3464 263.3768 -1041.339
v 504.3658 258.1262 -1040.82
v 500.7225 270.8678 -1044.565
v 498.3285 260.9962 -1045.207
v 494.5246 267.4873 -1048.935
v 500.8402 276.8493 -1049.504
v 493.9847 273.2082 -1053.922
v 490.9824 262.6922 -1054.266
v 488.3186 267.8552 -1059.167
v 509.0984 278.5942 -1046.584
v 517.2643 278.337 -1045.63
v 525.1765 276.0958 -1046.615
v 495.2059 277.8887 -1059.865
v 490.4952 272.7846 -1065.265
v 486.7184 262.0664 -1065.635
v 488.2914 266.6655 -1071.188
v 501.9582 281.4752 -1055.514
v 510.0923 283.194 -1052.638
v 518.8109 282.8802 -1051.523
v 527.0477 280.6912 -1052.43
v 534.3787 277.0614 -1055.402
v 494.3713 276.9351 -1071.48
v 492.6231 271.2215 -1076.711
v 498.0108 281.0838 -1066.182
v 504.1275 284.3329 -1062.239
v 511.4965 285.8899 -1059.634
v 519.4049 285.6091 -1058.629
v 527.0637 283.6051 -1059.411
v 533.7196 280.2095 -1062.007
v 538.7356 275.4527 -1065.891
v 498.1002 278.6087 -1076.368
v 496.3648 273.7443 -1081.059
v 501.0992 282.9543 -1072.349
v 506.4386 285.8113 -1068.906
v 512.9244 287.1978 -1066.655
v 519.9534 287.024 -1065.871
v 526.7197 285.2268 -1066.522
v 532.6479 282.0433 -1068.61
v 536.83 277.565 -1071.629
v 539.3755 272.5669 -1075.792
v 503.0054 279.2271 -1080.871
v 501.6644 275.4881 -1084.482
v 505.5399 282.8482 -1077.968
v 509.5937 285.1747 -1075.425
v 514.6572 286.2936 -1073.762
v 520.2186 286.2271 -1073.241
v 525.7573 284.9633 -1073.881
v 530.5534 282.5616 -1075.545
v 533.6009 279.0639 -1077.845
v 535.5992 275.1275 -1081.149
v 535.988 270.8365 -1085.147
v 509.7119 279.214 -1084.671
v 509.2257 275.8874 -1087.998
v 503.3969 271.9708 -1086.968
v 510.0963 274.8437 -1089.25
v 514.183 282.5477 -1081.296
v 511.5534 281.17 -1082.894
v 511.5534 281.17 -1082.894
v 524.8804 282.6839 -1080.653
v 527.9937 281.0567 -1082.094
v 530.5254 277.363 -1085.098
v 530.2371 274.4867 -1088.09
v 529.4192 272.5868 -1088.927
v 530.0009 279.3155 -1083.391
v 529.6179 282.4729 -1086.701
v 527.8303 283.9254 -1085.435
v 526.2472 284.1812 -1089.575
v 525.248 285.0808 -1088.919
v 525.0564 285.2699 -1084.054
v 523.7002 286.0166 -1088.321
v 521.8511 285.8766 -1083.597
v 521.8865 286.4879 -1088.187
v 518.5259 285.8401 -1083.781
v 519.9944 286.5831 -1088.407
v 515.5278 285.2274 -1084.656
v 518.272 286.2925 -1088.949
v 513.1859 284.1319 -1086.173
v 511.5534 281.17 -1082.894
v 514.183 282.5477 -1081.296
v 516.9054 285.6463 -1089.756
v 511.5461 282.5358 -1087.888
v 515.944 284.7441 -1090.73
v 511.1145 279.8349 -1091.066
v 515.6306 283.0418 -1092.324
v 510.8012 278.42 -1093.204
v 514.9419 280.4741 -1094.771
v 511.609 276.7014 -1094.801
v 515.2172 279.6264 -1095.499
v 510.0963 274.8437 -1089.25
v 516.383 278.7347 -1096.122
v 518.0557 277.6622 -1096.829
v 520.0103 276.926 -1097.185
v 521.9947 276.9926 -1096.807
v 523.8218 277.7744 -1095.801
v 525.273 278.7291 -1094.696
v 526.2274 279.7014 -1093.653
v 528.8154 276.3834 -1092.191
v 526.2736 281.6964 -1091.824
v 529.8305 278.5403 -1091.197
v 530.0856 280.8679 -1088.348
v 526.4836 283.1954 -1090.431
v 524.8804 282.6839 -1080.653
v 521.2823 283.3961 -1080.184
v 517.5493 283.3263 -1080.377
v 521.2823 283.3961 -1080.184
v 517.5493 283.3263 -1080.377
v 514.183 282.5477 -1081.296
v 524.8804 282.6839 -1080.653
v 517.5493 283.3263 -1080.377
v 514.183 282.5477 -1081.296
v 505.5399 282.8482 -1077.968
v 511.5534 281.17 -1082.894
v 521.2823 283.3961 -1080.184
v 517.5493 283.3263 -1080.377
v 514.183 282.5477 -1081.296
v 503.3969 271.9708 -1086.968
v 505.6984 269.0991 -1089.186
v 510.0963 274.8437 -1089.25
v 510.0963 274.8437 -1089.25
v 505.6984 269.0991 -1089.186
v 510.4966 272.4042 -1090.604
v 498.2989 269.1013 -1083.723
v 501.3195 265.5768 -1087.672
v 503.3969 271.9708 -1086.968
v 507.9471 266.505 -1090.557
v 512.0775 265.9006 -1093.636
v 511.6546 270.4253 -1090.631
v 514.5113 270.1828 -1093.563
v 510.4966 272.4042 -1090.604
v 507.9471 266.505 -1090.557
v 511.6546 270.4253 -1090.631
v 509.2257 275.8874 -1087.998
v 510.0963 274.8437 -1089.25
v 511.1145 279.8349 -1091.066
v 522.4116 245.3498 -1048.046
v 522.0272 241.81 -1050.447
v 519.9049 239.3634 -1052.651
v 517.0896 237.5232 -1054.386
v 513.5314 236.8395 -1055.627
v 509.9698 237.1389 -1056.216
v 506.4725 238.3926 -1056.052
v 503.6106 240.2873 -1055.098
v 501.6181 242.7618 -1053.372
v 500.6506 245.5749 -1050.909
v 516.1263 236.0196 -1051.305
v 518.5635 237.6741 -1049.52
v 512.8717 235.4082 -1052.602
v 509.508 235.6816 -1053.216
v 506.316 236.7623 -1053.092
v 503.4843 238.4875 -1052.157
v 501.4201 240.8024 -1050.405
v 500.6506 245.5749 -1050.909
v 500.2538 243.3742 -1048.084
v 516.9639 235.994 -1047.021
v 519.0109 238.0652 -1044.458
v 520.7161 239.7194 -1047.311
v 522.0272 241.81 -1050.447
v 522.3856 242.0635 -1045.061
v 520.2587 239.8997 -1041.414
v 512.1445 234.3074 -1049.933
v 515.2216 234.7355 -1048.668
v 503.8727 236.8809 -1049.622
v 501.7389 238.9771 -1047.815
v 500.4795 241.3507 -1045.181
v 509.308 234.5921 -1050.599
v 506.5309 235.4676 -1050.511
v 499.8999 245.9682 -1045.598
v 501.1995 248.7345 -1048.155
v 500.7017 243.5949 -1042.278
v 500.6506 245.5749 -1050.909
v 501.1995 248.7345 -1048.155
v 498.9758 252.7531 -1046.72
v 494.6314 256.99 -1049.447
v 498.3285 260.9962 -1045.207
v 501.813 255.8275 -1043.466
v 502.3464 263.3768 -1041.339
v 504.3658 258.1262 -1040.82
v 490.9824 262.6922 -1054.266
v 494.5246 267.4873 -1048.935
v 488.3186 267.8552 -1059.167
v 502.1439 251.3557 -1045.618
v 504.1607 253.5412 -1043.305
v 505.9757 255.1755 -1041.424
v 509.073 259.1799 -1039.139
v 509.3219 255.9245 -1040.229
v 513.5126 259.1792 -1038.745
v 512.4782 255.9241 -1039.949
v 517.8596 257.8506 -1039.394
v 515.5684 254.9795 -1040.41
v 521.9592 255.2985 -1040.948
v 518.4828 253.1653 -1041.515
v 525.2202 252.0959 -1043.492
v 520.801 250.8884 -1043.323
v 527.1587 248.2653 -1046.621
v 531.952 251.4034 -1049.529
v 529.4526 256.3664 -1045.427
v 537.5685 256.3514 -1054.485
v 541.4891 260.7412 -1059.364
v 522.1791 248.1653 -1045.548
v 529.4526 256.3664 -1045.427
v 535.3021 261.4533 -1048.781
v 522.4116 245.3498 -1048.046
v 522.0272 241.81 -1050.447
v 522.3856 242.0635 -1045.061
v 522.1752 245.2445 -1042.653
v 522.1791 248.1653 -1045.548
v 520.747 248.3241 -1040.533
v 520.801 250.8884 -1043.323
v 518.8982 245.7124 -1037.927
v 516.8051 248.13 -1036.636
v 518.314 250.9132 -1038.824
v 518.4828 253.1653 -1041.515
v 515.2426 252.966 -1037.824
v 515.5684 254.9795 -1040.41
v 511.9724 254.0506 -1037.435
v 512.4782 255.9241 -1039.949
v 508.6193 254.0786 -1037.752
v 509.3219 255.9245 -1040.229
v 505.0556 253.2435 -1038.977
v 505.9757 255.1755 -1041.424
v 505.2732 250.3449 -1037.005
v 503.5558 248.6242 -1038.51
v 503.1074 251.3931 -1040.845
v 504.1607 253.5412 -1043.305
v 500.937 248.9283 -1043.125
v 502.1439 251.3557 -1045.618
v 499.8999 245.9682 -1045.598
v 501.1995 248.7345 -1048.155
v 500.7017 243.5949 -1042.278
v 501.6375 246.3409 -1040.331
v 508.3884 251.1102 -1035.98
v 511.3115 251.0597 -1035.684
v 514.1507 250.038 -1035.928
v 500.6506 245.5749 -1050.909
v 500.2538 243.3742 -1048.084
v 529.4526 256.3664 -1045.427
v 521.9592 255.2985 -1040.948
v 525.8863 259.6552 -1041.358
v 521.9592 255.2985 -1040.948
v 525.8863 259.6552 -1041.358
v 535.3021 261.4533 -1048.781
v 529.4526 256.3664 -1045.427
v 541.4891 260.7412 -1059.364
v 537.5685 256.3514 -1054.485
v 543.764 259.4026 -1071.737
v 542.0139 254.1029 -1065.315
v 531.952 251.4034 -1049.529
v 529.4526 256.3664 -1045.427
v 525.2202 252.0959 -1043.492
v 521.9592 255.2985 -1040.948
v 529.4526 256.3664 -1045.427
v 520.1096 242.852 -1039.545
v 520.1096 242.852 -1039.545
v 520.2587 239.8997 -1041.414
v 522.1752 245.2445 -1042.653
v 522.3856 242.0635 -1045.061
v 520.1096 242.852 -1039.545
v 505.9541 243.6987 -1035.937
v 504.7544 241.7433 -1037.879
v 507.9963 250.6637 -1043.587
v 506.8177 248.7503 -1045.516
v 509.5356 251.3451 -1042.267
v 507.4533 244.33 -1034.625
v 511.1562 251.262 -1042.489
v 509.1757 244.1655 -1034.809
v 513.2377 249.6267 -1043.641
v 511.2176 242.402 -1035.92
v 513.8805 247.4326 -1045.532
v 511.9119 240.1407 -1037.805
v 502.691 234.7361 -1030.241
v 503.912 236.7338 -1028.287
v 505.3712 237.3148 -1026.983
v 507.1952 237.0689 -1027.128
v 509.1973 235.1776 -1028.198
v 509.9429 232.8487 -1030.077
v 500.628 227.7287 -1022.603
v 501.8699 229.769 -1020.638
v 503.2887 230.2998 -1019.342
v 505.2146 229.9723 -1019.448
v 507.1771 227.9529 -1020.477
v 507.9741 225.5569 -1022.35
v 498.5816 220.7505 -1015.009
v 499.8274 222.804 -1012.989
v 501.2065 223.2846 -1011.7
v 503.234 222.8756 -1011.768
v 505.1569 220.7286 -1012.756
v 506.3218 218.1355 -1015.756
v 497.3799 219.5998 -1013.632
v 498.6428 221.6821 -1011.656
v 503.4537 219.8984 -1008.252
v 504.5314 218.2152 -1009.072
v 497.1533 217.7691 -1012.022
v 498.4163 219.8514 -1010.045
v 499.2716 220.587 -1010.9
v 500.6506 221.0677 -1009.612
v 505.8124 219.6534 -1011.924
v 506.7628 216.9778 -1014.132
v 505.7239 218.5782 -1011.092
v 506.5721 216.1146 -1012.959
v 526.172 280.2903 -1101.415
v 528.6489 277.9126 -1103.565
v 526.0455 279.5638 -1100.385
v 528.3954 276.4597 -1101.504
v 528.4174 279.8311 -1105.206
v 526.0563 281.2494 -1102.235
v 527.7237 282.027 -1106.265
v 525.7095 282.3474 -1102.765
v 526.6357 284.2858 -1106.639
v 525.1655 283.4767 -1102.952
v 525.2598 286.3862 -1106.292
v 524.4775 284.527 -1102.778
v 523.7308 288.1225 -1105.256
v 523.713 285.3952 -1102.26
v 522.1983 289.3251 -1103.634
v 522.9467 285.9965 -1101.449
v 520.8123 289.8758 -1101.584
v 522.2538 286.2718 -1100.424
v 519.7086 289.721 -1099.307
v 521.7018 286.1944 -1099.286
v 518.9949 288.8759 -1097.026
v 521.3451 285.7719 -1098.146
v 518.7415 287.423 -1094.965
v 521.2183 285.0454 -1097.115
v 518.9728 285.5045 -1093.324
v 521.3341 284.0862 -1096.294
v 519.6667 283.3086 -1092.265
v 521.6808 282.9883 -1095.765
v 520.7546 281.0498 -1091.891
v 522.225 281.8589 -1095.578
v 522.1307 278.9495 -1092.239
v 522.913 280.8087 -1095.752
v 523.6597 277.2131 -1093.274
v 523.6775 279.9405 -1096.27
v 525.1921 276.0107 -1094.896
v 524.4437 279.3393 -1097.081
v 526.5781 275.4599 -1096.946
v 525.1367 279.0639 -1098.106
v 527.6818 275.6146 -1099.223
v 525.6886 279.1413 -1099.244
v 527.6818 275.6146 -1099.223
v 528.3954 276.4597 -1101.504
v 526.3752 275.355 -1100.097
v 527.1545 276.278 -1102.588
v 524.7804 275.6056 -1100.974
v 523.6765 275.4508 -1098.697
v 525.1698 275.1859 -1097.61
v 526.5781 275.4599 -1096.946
v 522.2906 276.0017 -1096.647
v 523.6561 275.7876 -1095.372
v 525.1921 276.0107 -1094.896
v 520.7581 277.2041 -1095.025
v 521.9822 277.1008 -1093.6
v 519.2291 278.9405 -1093.99
v 520.3124 278.9972 -1092.469
v 517.8532 281.0408 -1093.642
v 518.8096 281.2912 -1092.089
v 525.4938 276.4507 -1103.254
v 527.4314 277.8649 -1104.839
v 525.7473 277.9036 -1105.316
v 527.1786 279.96 -1106.631
v 525.5157 279.8219 -1106.957
v 526.421 282.3585 -1107.788
v 524.8221 282.018 -1108.016
v 525.2326 284.8254 -1108.197
v 523.7342 284.2767 -1108.39
v 523.6597 277.2131 -1093.274
v 527.7237 282.027 -1106.265
v 528.4174 279.8311 -1105.206
v 528.6489 277.9126 -1103.565
v 523.7301 287.1194 -1107.817
v 522.3583 286.3772 -1108.042
v 522.1307 278.9495 -1092.239
v 518.8096 281.2912 -1092.089
v 520.7546 281.0498 -1091.891
v 523.7301 287.1194 -1107.817
v 522.0601 289.0158 -1106.685
v 522.3583 286.3772 -1108.042
v 520.8293 288.1136 -1107.006
v 522.0601 289.0158 -1106.685
v 520.3862 290.3291 -1104.914
v 520.8293 288.1136 -1107.006
v 519.2967 289.3161 -1105.384
v 518.8726 290.9307 -1102.675
v 517.9108 289.8668 -1103.335
v 517.6671 290.7617 -1100.189
v 516.8069 289.712 -1101.058
v 516.8877 289.8385 -1097.698
v 516.0935 288.8668 -1098.777
v 516.611 288.2518 -1095.446
v 515.8401 287.414 -1096.715
v 516.8636 286.1566 -1093.654
v 516.0714 285.4956 -1095.075
v 516.611 288.2518 -1095.446
v 516.8636 286.1566 -1093.654
v 519.6667 283.3086 -1092.265
v 517.6213 283.7582 -1092.497
v 516.8877 289.8385 -1097.698
v 517.6671 290.7617 -1100.189
v 518.8726 290.9307 -1102.675
v 520.3862 290.3291 -1104.914
v 522.0601 289.0158 -1106.685
v 523.7301 287.1194 -1107.817
v 522.0601 289.0158 -1106.685
v 525.2326 284.8254 -1108.197
v 523.7301 287.1194 -1107.817
v 526.6357 284.2858 -1106.639
v 519.6667 283.3086 -1092.265
v 520.7546 281.0498 -1091.891
v 517.6213 283.7582 -1092.497
v 518.8096 281.2912 -1092.089
v 527.7237 282.027 -1106.265
v 526.6357 284.2858 -1106.639
v 526.421 282.3585 -1107.788
v 525.2326 284.8254 -1108.197
v 516.8636 286.1566 -1093.654
v 517.6213 283.7582 -1092.497
v 516.0714 285.4956 -1095.075
v 516.7651 283.2996 -1094.015
v 518.8096 281.2912 -1092.089
v 517.8532 281.0408 -1093.642
v 526.0455 279.5638 -1100.385
v 525.6886 279.1413 -1099.244
v 523.138 277.9114 -1101.906
v 522.7812 277.4888 -1100.766
v 525.1367 279.0639 -1098.106
v 522.2294 277.4114 -1099.627
v 524.4437 279.3393 -1097.081
v 521.5364 277.6868 -1098.603
v 523.6775 279.9405 -1096.27
v 520.7701 278.2881 -1097.792
v 522.913 280.8087 -1095.752
v 520.0056 279.1562 -1097.274
v 522.225 281.8589 -1095.578
v 519.3176 280.2064 -1097.1
v 523.2646 278.6377 -1102.937
v 526.172 280.2903 -1101.415
v 523.1489 279.597 -1103.757
v 526.0563 281.2494 -1102.235
v 522.802 280.6951 -1104.287
v 525.7095 282.3474 -1102.765
v 522.2581 281.8243 -1104.474
v 525.1655 283.4767 -1102.952
v 522.225 281.8589 -1095.578
v 521.6808 282.9883 -1095.765
v 519.3176 280.2064 -1097.1
v 518.7736 281.3358 -1097.287
v 521.3341 284.0862 -1096.294
v 518.4268 282.4337 -1097.816
v 521.2183 285.0454 -1097.115
v 518.3111 283.393 -1098.637
v 521.3451 285.7719 -1098.146
v 518.4378 284.1194 -1099.668
v 521.7018 286.1944 -1099.286
v 518.7945 284.542 -1100.808
v 522.2538 286.2718 -1100.424
v 519.3465 284.6193 -1101.946
v 522.9467 285.9965 -1101.449
v 520.0394 284.344 -1102.971
v 523.713 285.3952 -1102.26
v 520.8055 283.7428 -1103.782
v 524.4775 284.527 -1102.778
v 521.5701 282.8744 -1104.3
v 525.1655 283.4767 -1102.952
v 522.2581 281.8243 -1104.474
vt 0.960874 0.308731
vt 0.963552 0.313754
vt 0.97062 0.300219
vt 0.972948 0.304731
vt 0.963441 0.295833
vt 0.956107 0.304644
vt 0.954624 0.29164
vt 0.948825 0.301772
vt 0.941747 0.28837
vt 0.939706 0.29884
vt 0.929217 0.286186
vt 0.929239 0.297057
vt 0.916722 0.28605
vt 0.919807 0.296701
vt 0.906425 0.287759
vt 0.911335 0.297885
vt 0.899586 0.290317
vt 0.905633 0.300432
vt 0.895377 0.294588
vt 0.902423 0.304396
vt 0.890279 0.302198
vt 0.901021 0.311374
vt 0.94537 0.273959
vt 0.92913 0.271951
vt 0.91471 0.271792
vt 0.902248 0.273749
vt 0.893177 0.277681
vt 0.887759 0.28211
vt 0.880619 0.288343
vt 0.930522 0.255555
vt 0.946585 0.257782
vt 0.959118 0.277913
vt 0.972049 0.283015
vt 0.979239 0.287522
vt 0.983553 0.290795
vt 0.985835 0.273195
vt 0.990531 0.278309
vt 0.976033 0.267694
vt 0.96336 0.261662
vt 0.874302 0.274037
vt 0.986682 0.25753
vt 0.99265 0.262686
vt 0.977388 0.25171
vt 0.963843 0.246259
vt 0.948116 0.241864
vt 0.931081 0.240231
vt 0.915198 0.24041
vt 0.913809 0.255941
vt 0.90003 0.258428
vt 0.889184 0.262683
vt 0.882122 0.268145
vt 0.899949 0.242343
vt 0.888619 0.246719
vt 0.880788 0.252859
vt 0.87601 0.260466
vt 0.904049 0.22925
vt 0.917503 0.227847
vt 0.89635 0.235315
vt 0.887487 0.242144
vt 0.883451 0.246918
vt 0.910802 0.224536
vt 0.921802 0.219199
vt 0.933074 0.228383
vt 0.947848 0.230012
vt 0.962569 0.233645
vt 0.973951 0.238738
vt 0.983286 0.244608
vt 0.987959 0.251951
vt 0.969208 0.229435
vt 0.976034 0.23498
vt 0.95894 0.224587
vt 0.947375 0.221645
vt 0.93425 0.220052
vt 0.962282 0.223572
vt 0.954993 0.219964
vt 0.945581 0.217342
vt 0.935776 0.215769
vt 0.92539 0.214458
vt 0.950485 0.216932
vt 0.955843 0.219232
vt 0.944126 0.214953
vt 0.936611 0.213467
vt 0.929091 0.212534
vt 0.94923 0.209565
vt 0.953722 0.210869
vt 0.946063 0.204183
vt 0.948788 0.206009
vt 0.956849 0.212357
vt 0.942507 0.202479
vt 0.943563 0.207812
vt 0.942507 0.202479
vt 0.938408 0.201725
vt 0.937488 0.206467
vt 0.934123 0.202101
vt 0.931162 0.205789
vt 0.934123 0.202101
vt 0.929091 0.212534
vt 0.930315 0.203043
vt 0.925611 0.205933
vt 0.927615 0.203899
vt 0.921037 0.206785
vt 0.929091 0.212534
vt 0.923103 0.218484
vt 0.920084 0.217581
vt 0.976034 0.23498
vt 0.987959 0.251951
vt 0.982227 0.24096
vt 0.959229 0.220968
vt 0.960362 0.221785
vt 0.958314 0.213369
vt 0.950478 0.207698
vt 0.967384 0.228538
vt 0.973345 0.229636
vt 0.982227 0.24096
vt 0.918818 0.209259
vt 0.920084 0.217581
vt 0.921037 0.206785
vt 0.918485 0.219208
vt 0.911198 0.222113
vt 0.916669 0.220526
vt 0.920084 0.217581
vt 0.903276 0.226931
vt 0.895893 0.233412
vt 0.890368 0.236717
vt 0.905516 0.225322
vt 0.900789 0.228787
vt 0.983286 0.244608
vt 0.987959 0.251951
vt 0.976034 0.23498
vt 0.976034 0.23498
vt 0.982227 0.24096
vt 0.967384 0.228538
vt 0.962282 0.223572
vt 0.955843 0.219232
vt 0.987959 0.251951
vt 0.985321 0.260177
vt 0.982227 0.24096
vt 0.989863 0.27161
vt 0.981191 0.281687
vt 0.979093 0.295648
vt 0.965922 0.302495
vt 0.962199 0.315403
vt 0.9465 0.319233
vt 0.942943 0.327904
vt 0.929971 0.328688
vt 0.930431 0.330712
vt 0.921291 0.329901
vt 0.939784 0.329947
vt 0.930833 0.320256
vt 0.918098 0.327425
vt 0.91584 0.318585
vt 0.906101 0.32356
vt 0.911933 0.326894
vt 0.900334 0.313629
vt 0.898583 0.316619
vt 0.888617 0.306079
vt 0.898636 0.300745
vt 0.885613 0.293211
vt 0.882886 0.297198
vt 0.875668 0.284764
vt 0.915225 0.306032
vt 0.93227 0.308126
vt 0.949383 0.307075
vt 0.886596 0.278761
vt 0.878523 0.269898
vt 0.874302 0.274037
vt 0.87601 0.260466
vt 0.899453 0.286173
vt 0.915828 0.291379
vt 0.934078 0.293843
vt 0.951885 0.292942
vt 0.968196 0.288405
vt 0.885179 0.255083
vt 0.883451 0.246918
vt 0.89137 0.264161
vt 0.90304 0.270863
vt 0.917896 0.275575
vt 0.93447 0.277798
vt 0.95104 0.277089
vt 0.965902 0.273247
vt 0.977706 0.267372
vt 0.89237 0.244146
vt 0.890368 0.236717
vt 0.897182 0.250453
vt 0.907377 0.256281
vt 0.920459 0.260327
vt 0.935175 0.262044
vt 0.949833 0.261524
vt 0.963132 0.258661
vt 0.973139 0.254481
vt 0.979862 0.248189
vt 0.902361 0.234495
vt 0.900789 0.228787
vt 0.906461 0.238806
vt 0.914158 0.242995
vt 0.924358 0.245929
vt 0.935975 0.247048
vt 0.947908 0.246313
vt 0.958619 0.243985
vt 0.965993 0.24086
vt 0.971294 0.235873
vt 0.973345 0.229636
vt 0.916303 0.226604
vt 0.916349 0.221299
vt 0.905516 0.225322
vt 0.918485 0.219208
vt 0.924549 0.232022
vt 0.919511 0.229358
vt 0.919511 0.229358
vt 0.946774 0.233294
vt 0.953743 0.231076
vt 0.960107 0.226607
vt 0.960362 0.221785
vt 0.959229 0.220968
vt 0.958437 0.229216
vt 0.956698 0.220808
vt 0.95254 0.222738
vt 0.949165 0.213992
vt 0.946811 0.214918
vt 0.946354 0.224966
vt 0.943299 0.215708
vt 0.939487 0.225625
vt 0.939372 0.215758
vt 0.932566 0.225259
vt 0.935398 0.215252
vt 0.926508 0.223731
vt 0.931896 0.214264
vt 0.921974 0.221102
vt 0.919511 0.229358
vt 0.924549 0.232022
vt 0.929248 0.212898
vt 0.919064 0.218306
vt 0.927527 0.211309
vt 0.919021 0.21301
vt 0.927407 0.208824
vt 0.918818 0.209259
vt 0.926778 0.204994
vt 0.921037 0.206785
vt 0.927615 0.203899
vt 0.918485 0.219208
vt 0.930315 0.203043
vt 0.934123 0.202101
vt 0.938408 0.201725
vt 0.942507 0.202479
vt 0.946063 0.204183
vt 0.948788 0.206009
vt 0.950478 0.207698
vt 0.956849 0.212357
vt 0.949972 0.210525
vt 0.958314 0.213369
vt 0.958151 0.21816
vt 0.949956 0.212691
vt 0.946774 0.233294
vt 0.939065 0.233929
vt 0.931313 0.233562
vt 0.939065 0.233929
vt 0.931313 0.233562
vt 0.924549 0.232022
vt 0.946774 0.233294
vt 0.931313 0.233562
vt 0.924549 0.232022
vt 0.906461 0.238806
vt 0.919511 0.229358
vt 0.939065 0.233929
vt 0.931313 0.233562
vt 0.924549 0.232022
vt 0.905516 0.225322
vt 0.911198 0.222113
vt 0.918485 0.219208
vt 0.918485 0.219208
vt 0.911198 0.222113
vt 0.920084 0.217581
vt 0.895893 0.233412
vt 0.903276 0.226931
vt 0.905516 0.225322
vt 0.916669 0.220526
vt 0.92539 0.214458
vt 0.923103 0.218484
vt 0.929091 0.212534
vt 0.920084 0.217581
vt 0.916669 0.220526
vt 0.923103 0.218484
vt 0.916349 0.221299
vt 0.918485 0.219208
vt 0.919021 0.21301
vt 0.952868 0.317575
vt 0.953128 0.314196
vt 0.94952 0.31076
vt 0.944326 0.30802
vt 0.93728 0.305789
vt 0.929932 0.304458
vt 0.922418 0.304245
vt 0.915991 0.305364
vt 0.911147 0.307809
vt 0.908282 0.311621
vt 0.942813 0.314949
vt 0.947286 0.317874
vt 0.936369 0.312572
vt 0.929436 0.311202
vt 0.922602 0.310986
vt 0.916295 0.312146
vt 0.911359 0.314718
vt 0.908282 0.311621
vt 0.908166 0.31835
vt 0.944527 0.323686
vt 0.948082 0.328025
vt 0.951069 0.321499
vt 0.953128 0.314196
vt 0.953785 0.325088
vt 0.950082 0.333455
vt 0.935221 0.318479
vt 0.941355 0.320869
vt 0.917587 0.318007
vt 0.912583 0.32079
vt 0.909266 0.325149
vt 0.929361 0.317001
vt 0.923439 0.316803
vt 0.906622 0.322317
vt 0.908405 0.315888
vt 0.909012 0.330121
vt 0.908282 0.311621
vt 0.908405 0.315888
vt 0.902566 0.317088
vt 0.892272 0.309639
vt 0.898583 0.316619
vt 0.907412 0.322442
vt 0.906101 0.32356
vt 0.911933 0.326894
vt 0.882886 0.297198
vt 0.888617 0.306079
vt 0.875668 0.284764
vt 0.909511 0.319954
vt 0.91296 0.323759
vt 0.916174 0.32692
vt 0.921291 0.329901
vt 0.922817 0.329055
vt 0.930431 0.330712
vt 0.929306 0.329631
vt 0.939784 0.329947
vt 0.935946 0.329088
vt 0.948983 0.327845
vt 0.942483 0.327596
vt 0.95663 0.323998
vt 0.947923 0.324863
vt 0.961729 0.319232
vt 0.970644 0.311911
vt 0.964071 0.318179
vt 0.980762 0.29956
vt 0.98759 0.287563
vt 0.951558 0.321474
vt 0.964071 0.318179
vt 0.974638 0.309054
vt 0.952868 0.317575
vt 0.953128 0.314196
vt 0.953785 0.325088
vt 0.952415 0.328652
vt 0.951558 0.321474
vt 0.948577 0.331679
vt 0.947923 0.324863
vt 0.945573 0.338122
vt 0.940561 0.339744
vt 0.942815 0.33408
vt 0.942483 0.327596
vt 0.935891 0.335259
vt 0.935946 0.329088
vt 0.928844 0.335596
vt 0.929306 0.329631
vt 0.921948 0.334932
vt 0.922817 0.329055
vt 0.914891 0.332772
vt 0.916174 0.32692
vt 0.916248 0.33805
vt 0.913268 0.335696
vt 0.911476 0.32973
vt 0.91296 0.323759
vt 0.907807 0.326111
vt 0.909511 0.319954
vt 0.906622 0.322317
vt 0.908405 0.315888
vt 0.909012 0.330121
vt 0.910059 0.332937
vt 0.922397 0.33983
vt 0.928408 0.340458
vt 0.934543 0.340389
vt 0.908282 0.311621
vt 0.908166 0.31835
vt 0.964071 0.318179
vt 0.948983 0.327845
vt 0.955765 0.325128
vt 0.948983 0.327845
vt 0.955765 0.325128
vt 0.974638 0.309054
vt 0.964071 0.318179
vt 0.98759 0.287563
vt 0.980762 0.29956
vt 0.99265 0.262686
vt 0.990531 0.278309
vt 0.970644 0.311911
vt 0.964071 0.318179
vt 0.95663 0.323998
vt 0.948983 0.327845
vt 0.964071 0.318179
vt 0.948902 0.336022
vt 0.948902 0.336022
vt 0.950082 0.333455
vt 0.952415 0.328652
vt 0.953785 0.325088
vt 0.948902 0.336022
vt 0.919716 0.343039
vt 0.917873 0.339893
vt 0.921732 0.324419
vt 0.919912 0.321287
vt 0.924677 0.326834
vt 0.922585 0.345456
vt 0.928027 0.326413
vt 0.926157 0.345149
vt 0.932797 0.324753
vt 0.930871 0.343619
vt 0.934783 0.321822
vt 0.932978 0.340718
vt 0.915847 0.35838
vt 0.917712 0.361539
vt 0.920506 0.363958
vt 0.924299 0.363763
vt 0.928957 0.362358
vt 0.931184 0.359488
vt 0.913835 0.376749
vt 0.915722 0.37992
vt 0.91844 0.382341
vt 0.922453 0.382255
vt 0.927056 0.380973
vt 0.929402 0.378132
vt 0.911862 0.394899
vt 0.913744 0.398184
vt 0.916387 0.400606
vt 0.920619 0.400627
vt 0.925167 0.399465
vt 0.928311 0.394412
vt 0.90979 0.398132
vt 0.911695 0.401318
vt 0.921977 0.408894
vt 0.92467 0.407884
vt 0.909903 0.402099
vt 0.911807 0.405286
vt 0.913308 0.403272
vt 0.915948 0.405693
vt 0.92682 0.401565
vt 0.929552 0.398144
vt 0.926968 0.403663
vt 0.929428 0.400847
vt 0.950185 0.19127
vt 0.956047 0.187988
vt 0.950141 0.193774
vt 0.955954 0.192992
vt 0.954991 0.183618
vt 0.949655 0.189085
vt 0.95289 0.180311
vt 0.948601 0.187434
vt 0.949943 0.178392
vt 0.947126 0.186479
vt 0.946438 0.178055
vt 0.945374 0.186315
vt 0.942718 0.179337
vt 0.943516 0.186958
vt 0.939149 0.182116
vt 0.941734 0.188348
vt 0.936084 0.186119
vt 0.940205 0.190346
vt 0.933827 0.190952
vt 0.939078 0.192759
vt 0.9326 0.196136
vt 0.938464 0.195347
vt 0.932524 0.201161
vt 0.938424 0.197856
vt 0.933602 0.205531
vt 0.93896 0.200041
vt 0.935728 0.208817
vt 0.94002 0.201687
vt 0.938688 0.210702
vt 0.941499 0.202634
vt 0.942192 0.211006
vt 0.943251 0.20279
vt 0.945896 0.209704
vt 0.945105 0.202141
vt 0.949441 0.206926
vt 0.94688 0.200752
vt 0.952482 0.202943
vt 0.948404 0.198758
vt 0.954726 0.198143
vt 0.949528 0.196355
vt 0.954726 0.198143
vt 0.955954 0.192992
vt 0.952093 0.196459
vt 0.953433 0.190832
vt 0.948709 0.194516
vt 0.946466 0.199315
vt 0.949644 0.2017
vt 0.952482 0.202943
vt 0.943423 0.203297
vt 0.946321 0.206049
vt 0.949441 0.206926
vt 0.939875 0.206073
vt 0.942448 0.209082
vt 0.936166 0.207372
vt 0.938399 0.210505
vt 0.932656 0.207065
vt 0.934568 0.210172
vt 0.949935 0.189363
vt 0.953532 0.185366
vt 0.950023 0.184357
vt 0.952378 0.180591
vt 0.948962 0.179983
vt 0.950079 0.176974
vt 0.946854 0.176673
vt 0.946856 0.174874
vt 0.943901 0.17475
vt 0.945896 0.209704
vt 0.95289 0.180311
vt 0.954991 0.183618
vt 0.956047 0.187988
vt 0.943024 0.174502
vt 0.94039 0.174409
vt 0.942192 0.211006
vt 0.934568 0.210172
vt 0.938688 0.210702
vt 0.943024 0.174502
vt 0.938956 0.1759
vt 0.94039 0.174409
vt 0.936666 0.175688
vt 0.938956 0.1759
vt 0.935054 0.178934
vt 0.936666 0.175688
vt 0.933093 0.178465
vt 0.931704 0.183307
vt 0.930027 0.182467
vt 0.929238 0.188589
vt 0.92777 0.1873
vt 0.927899 0.194254
vt 0.926546 0.192486
vt 0.927819 0.199745
vt 0.926473 0.197513
vt 0.929002 0.20452
vt 0.927557 0.201885
vt 0.927819 0.199745
vt 0.929002 0.20452
vt 0.935728 0.208817
vt 0.931329 0.208112
vt 0.927899 0.194254
vt 0.929238 0.188589
vt 0.931704 0.183307
vt 0.935054 0.178934
vt 0.938956 0.1759
vt 0.943024 0.174502
vt 0.938956 0.1759
vt 0.946856 0.174874
vt 0.943024 0.174502
vt 0.949943 0.178392
vt 0.935728 0.208817
vt 0.938688 0.210702
vt 0.931329 0.208112
vt 0.934568 0.210172
vt 0.95289 0.180311
vt 0.949943 0.178392
vt 0.950079 0.176974
vt 0.946856 0.174874
vt 0.929002 0.20452
vt 0.931329 0.208112
vt 0.927557 0.201885
vt 0.929689 0.205176
vt 0.934568 0.210172
vt 0.932656 0.207065
vt 0.950141 0.193774
vt 0.949528 0.196355
vt 0.944601 0.191434
vt 0.943989 0.194013
vt 0.948404 0.198758
vt 0.942866 0.196415
vt 0.94688 0.200752
vt 0.941343 0.198407
vt 0.945105 0.202141
vt 0.939568 0.199794
vt 0.943251 0.20279
vt 0.937713 0.200441
vt 0.941499 0.202634
vt 0.93596 0.200284
vt 0.944643 0.188931
vt 0.950185 0.19127
vt 0.944111 0.186747
vt 0.949655 0.189085
vt 0.943055 0.185096
vt 0.948601 0.187434
vt 0.941578 0.184141
vt 0.947126 0.186479
vt 0.941499 0.202634
vt 0.94002 0.201687
vt 0.93596 0.200284
vt 0.934479 0.199337
vt 0.93896 0.200041
vt 0.933417 0.197691
vt 0.938424 0.197856
vt 0.932879 0.195507
vt 0.938464 0.195347
vt 0.932917 0.192998
vt 0.939078 0.192759
vt 0.933529 0.190412
vt 0.940205 0.190346
vt 0.934655 0.188002
vt 0.941734 0.188348
vt 0.936184 0.186005
vt 0.943516 0.186958
vt 0.937965 0.184617
vt 0.945374 0.186315
vt 0.939824 0.183975
vt 0.947126 0.186479
vt 0.941578 0.184141
vn 0.3838765 -0.7749548 0.5020797
vn 0.3819685 -0.6878639 0.6172061
vn 0.5814555 -0.7448207 0.3273404
vn 0.7081179 -0.5280454 0.4687613
vn 0.4437269 -0.8709409 0.2111124
vn 0.3733463 -0.8462166 0.3801711
vn 0.2902784 -0.9544249 0.06936638
vn 0.2333754 -0.9364081 0.2620603
vn 0.02900246 -0.9982907 -0.05073848
vn -0.008792691 -0.9874045 0.1579725
vn -0.2226925 -0.9711494 -0.08530468
vn -0.2307944 -0.9650139 0.1244276
vn -0.4575801 -0.8879725 -0.04610028
vn -0.4295942 -0.8894603 0.1559136
vn -0.6700134 -0.7379318 0.0808619
vn -0.6147841 -0.7547269 0.2289713
vn -0.8039543 -0.5537852 0.2167474
vn -0.7385284 -0.6080725 0.2912447
vn -0.8019325 -0.5741466 0.1651054
vn -0.7352832 -0.6136684 0.2876972
vn -0.8153422 -0.4627579 0.3479541
vn -0.6457356 -0.5235362 0.5558195
vn 0.06922817 -0.9520928 -0.2978702
vn -0.1979186 -0.9209406 -0.3357031
vn -0.4566664 -0.8410371 -0.2900216
vn -0.6886044 -0.7024011 -0.1801571
vn -0.8503678 -0.5257577 0.02129297
vn -0.8673427 -0.4907769 0.08279309
vn -0.9100914 -0.3565498 0.2112014
vn -0.1547388 -0.8149311 -0.5585188
vn 0.1117323 -0.8364819 -0.5364829
vn 0.3403853 -0.9208549 -0.1901688
vn 0.5631419 -0.8257565 -0.03157981
vn 0.7372004 -0.6591889 0.1483426
vn 0.8101978 -0.469314 0.351175
vn 0.8000815 -0.5912932 -0.1012025
vn 0.9149504 -0.3743431 0.1507745
vn 0.6322622 -0.716764 -0.2940982
vn 0.3866341 -0.8087193 -0.4432687
vn -0.9935637 -0.1029518 -0.04724837
vn 0.8166203 -0.4307262 -0.3841955
vn 0.9773843 -0.1484859 -0.1505719
vn 0.6445656 -0.5543178 -0.5265614
vn 0.4178724 -0.6391729 -0.645632
vn 0.1458894 -0.671649 -0.7263634
vn -0.0956451 -0.6541897 -0.7502586
vn -0.3434728 -0.6031874 -0.719855
vn -0.4143488 -0.7489942 -0.5170326
vn -0.6730018 -0.6235632 -0.3977908
vn -0.8590368 -0.4513345 -0.2415633
vn -0.9326436 -0.3312784 -0.1429347
vn -0.6303075 -0.4302936 -0.6461887
vn -0.7973862 -0.2250694 -0.5599278
vn -0.9111076 -0.04950011 -0.4091852
vn -0.9421163 0.2089261 -0.2622342
vn -0.5310545 -0.1460869 -0.8346495
vn -0.2846385 -0.3624673 -0.8874674
vn -0.7112609 0.04778137 -0.7013022
vn -0.744419 0.1422069 -0.6523936
vn -0.8157559 0.383411 -0.433057
vn -0.4176394 0.06363338 -0.9063818
vn -0.3182697 -0.1367685 -0.9380825
vn -0.0388291 -0.4751013 -0.879074
vn 0.175293 -0.4833044 -0.8577232
vn 0.4217397 -0.4472831 -0.7887163
vn 0.6281757 -0.3537548 -0.6930027
vn 0.7903254 -0.174714 -0.5872485
vn 0.9219524 0.08104726 -0.3787283
vn 0.597226 -0.1056312 -0.7950868
vn 0.7175723 0.027588 -0.6959374
vn 0.4137299 -0.2175883 -0.8840151
vn 0.2002875 -0.271266 -0.9414349
vn 0.02363667 -0.2805597 -0.9595456
vn 0.5592036 0.08535222 -0.8246251
vn 0.3973347 -0.01735417 -0.9175096
vn 0.226491 -0.07367291 -0.9712231
vn 0.08710532 -0.09231114 -0.991913
vn -0.3040863 0.1077752 -0.9465284
vn 0.4444051 -0.2499271 -0.8602561
vn 0.6089204 -0.2117893 -0.7644352
vn 0.2519169 -0.3008912 -0.9197839
vn 0.05115763 -0.2995965 -0.9526935
vn -0.3103124 -0.1812581 -0.9331943
vn 0.4848709 -0.3787509 -0.7883197
vn 0.6206151 -0.2615998 -0.7391903
vn 0.3672967 0.3005055 -0.8802214
vn 0.4466735 0.3200683 -0.8354872
vn 0.7477799 -0.09954625 -0.6564416
vn 0.2828799 0.2222773 -0.9330444
vn 0.2766509 -0.4548535 -0.846506
vn 0.3727981 -0.2899261 -0.8814559
vn 0.03596012 -0.3177647 -0.9474875
vn 0.004277291 -0.4281142 -0.9037145
vn -0.2307777 -0.1514469 -0.961148
vn -0.2038624 -0.2925241 -0.934275
vn -0.03371179 0.3594667 -0.9325489
vn -0.2176103 -0.2906359 -0.9317599
vn -0.105606 0.3884874 -0.9153824
vn -0.4359846 -0.17319 -0.8831323
vn -0.1524307 0.4898043 -0.8584036
vn -0.6578506 0.01385253 -0.7530211
vn -0.3103124 -0.1812581 -0.9331943
vn -0.5879354 -0.07388707 -0.8055263
vn -0.669148 -0.005679121 -0.7431076
vn 0.7175723 0.027588 -0.6959374
vn 0.9219524 0.08104726 -0.3787283
vn 0.8435441 0.09974726 -0.5277156
vn 0.6786937 -0.1885314 -0.7098104
vn 0.8390515 0.1463105 -0.5240093
vn 0.8588361 0.1912565 -0.4752067
vn 0.4068842 0.4945431 -0.7680315
vn 0.6016884 -0.02108463 -0.7984526
vn 0.7022059 0.1748976 -0.6901577
vn 0.8435441 0.09974726 -0.5277156
vn -0.8423502 0.3470696 -0.412297
vn -0.7699701 -0.006827414 -0.6380435
vn -0.6578506 0.01385253 -0.7530211
vn -0.7746545 0.2425227 -0.5840319
vn -0.4356428 0.2236993 -0.8718796
vn -0.4009988 0.175699 -0.8990716
vn -0.669148 -0.005679121 -0.7431076
vn -0.5633572 0.1832302 -0.8056397
vn -0.641835 0.2021555 -0.7397168
vn -0.6764424 0.4355935 -0.593872
vn -0.5076703 0.3301695 -0.7957757
vn -0.4878229 0.5033346 -0.7132202
vn 0.7903254 -0.174714 -0.5872485
vn 0.9219524 0.08104726 -0.3787283
vn 0.7175723 0.027588 -0.6959374
vn 0.7175723 0.027588 -0.6959374
vn 0.8435441 0.09974726 -0.5277156
vn 0.6016884 -0.02108463 -0.7984526
vn 0.5592036 0.08535222 -0.8246251
vn 0.6089204 -0.2117893 -0.7644352
vn 0.9219524 0.08104726 -0.3787283
vn 0.9194154 0.3773085 -0.1109672
vn 0.8435441 0.09974726 -0.5277156
vn 0.9745171 0.1939856 0.1126324
vn 0.8571861 0.4159646 0.3036537
vn 0.8289138 0.19075 0.5258482
vn 0.6428655 0.3987633 0.6539968
vn 0.5785246 0.207712 0.7887743
vn 0.3547333 0.3462512 0.8684897
vn 0.2601562 0.0640403 0.9634405
vn 0.03924446 0.1334561 0.9902774
vn 0.002359108 -0.1904475 0.9816945
vn -0.1879057 -0.17465 0.9665344
vn 0.1377223 -0.2463604 0.9593431
vn 0.08034471 0.4427268 0.8930496
vn -0.2258073 0.1482452 0.9628262
vn -0.2337261 0.4711245 0.8505373
vn -0.5320892 0.06227677 0.8443949
vn -0.4182914 -0.2355764 0.877232
vn -0.5418276 0.3805971 0.7493788
vn -0.6725256 -0.05967034 0.7376644
vn -0.7542888 0.2102035 0.621983
vn -0.5116659 0.6419055 0.5711001
vn -0.7425386 0.4842898 0.4627091
vn -0.8676378 0.003961027 0.497181
vn -0.9145493 0.2663175 0.3044249
vn -0.2161971 0.7110286 0.6691017
vn 0.1044958 0.6825987 0.723284
vn 0.4019972 0.5625942 0.7224168
vn -0.6864473 0.6977414 0.2048096
vn -0.8530622 0.5215856 -0.01527812
vn -0.9935637 -0.1029518 -0.04724837
vn -0.9421163 0.2089261 -0.2622342
vn -0.4640393 0.8109625 0.3563809
vn -0.1819696 0.8723267 0.4537987
vn 0.120142 0.8584009 0.4987121
vn 0.4107743 0.7625901 0.4997207
vn 0.6632921 0.608508 0.4356165
vn -0.7595689 0.6172593 -0.2050513
vn -0.8157559 0.383411 -0.433057
vn -0.6192947 0.784959 0.01770244
vn -0.4001111 0.9032606 0.1550213
vn -0.1414055 0.9593766 0.2441332
vn 0.1339428 0.9495882 0.2834461
vn 0.3967018 0.8778458 0.268355
vn 0.6356542 0.7483183 0.1896403
vn 0.8171207 0.5736049 0.05736806
vn -0.6279197 0.6719712 -0.3926469
vn -0.6764424 0.4355935 -0.593872
vn -0.5112469 0.8299694 -0.2231083
vn -0.31507 0.9465836 -0.06863241
vn -0.0995206 0.9949981 0.008620395
vn 0.132416 0.9898027 0.05250581
vn 0.3677174 0.9280631 0.05901628
vn 0.6058068 0.7956105 -0.001474436
vn 0.7572808 0.6431319 -0.1136105
vn 0.8522272 0.4637957 -0.2420793
vn -0.4303669 0.720883 -0.5432422
vn -0.4878229 0.5033346 -0.7132202
vn -0.3393539 0.8137126 -0.4719224
vn -0.1906903 0.9152387 -0.3549298
vn -0.04994838 0.9585701 -0.2804433
vn 0.1053848 0.966635 -0.2334753
vn 0.2852224 0.9347102 -0.2120494
vn 0.4989319 0.8354819 -0.2302974
vn 0.6766938 0.6733144 -0.2978815
vn 0.7181322 0.5667479 -0.4038353
vn 0.7022059 0.1748976 -0.6901577
vn -0.649316 0.6948513 -0.3091446
vn -0.7157743 0.403362 -0.570058
vn -0.5076703 0.3301695 -0.7957757
vn -0.7746545 0.2425227 -0.5840319
vn -0.2732042 0.9126328 -0.3040735
vn -0.5196289 0.8411841 -0.1496496
vn -0.4250202 0.8075646 -0.4088975
vn 0.3809281 0.9173753 0.1153961
vn 0.5899709 0.8050998 0.06122608
vn 0.8918152 0.3563839 -0.2786686
vn 0.8390515 0.1463105 -0.5240093
vn 0.6786937 -0.1885314 -0.7098104
vn 0.8207939 0.5616674 -0.1040528
vn 0.7968177 0.6037799 -0.02304956
vn 0.6115265 0.766709 0.1954298
vn 0.411788 0.7399953 -0.5318249
vn 0.3138196 0.8132104 -0.4901084
vn 0.3834388 0.8680027 0.3155093
vn 0.2482929 0.8953289 -0.3697795
vn 0.1014453 0.9231661 0.3707738
vn 0.1185343 0.9344457 -0.3357988
vn -0.1535625 0.9267111 0.3429651
vn -0.007175755 0.9370908 -0.349012
vn -0.3999344 0.8843789 0.2406792
vn -0.175074 0.9306592 -0.3212828
vn -0.6073138 0.7913865 0.069838
vn -0.5467172 0.8365135 -0.03668262
vn -0.3141519 0.949203 -0.01795115
vn -0.2127562 0.8408125 -0.4977641
vn -0.7638422 0.617815 -0.1866808
vn -0.2602222 0.7397261 -0.620556
vn -0.817232 0.4404153 -0.3717073
vn -0.3256803 0.7088602 -0.6256593
vn -0.8423502 0.3470696 -0.412297
vn -0.3743896 0.5857704 -0.7188224
vn -0.6578506 0.01385253 -0.7530211
vn -0.1524307 0.4898043 -0.8584036
vn -0.8319621 0.219811 -0.5094332
vn -0.105606 0.3884874 -0.9153824
vn 0.009545226 0.4539454 -0.8909784
vn 0.1182201 0.6680762 -0.7346415
vn 0.2441716 0.4992197 -0.8313603
vn 0.3672967 0.3005055 -0.8802214
vn 0.4466735 0.3200683 -0.8354872
vn 0.4068842 0.4945431 -0.7680315
vn 0.7477799 -0.09954625 -0.6564416
vn 0.4566134 0.59973 -0.6571364
vn 0.8588361 0.1912565 -0.4752067
vn 0.8828149 0.3813875 -0.274192
vn 0.5463541 0.6053392 -0.578845
vn 0.4217823 0.8800135 0.2183483
vn 0.136752 0.9611053 0.2399487
vn -0.1128147 0.9294823 0.3511916
vn 0.1159589 0.9855441 0.1235162
vn -0.105067 0.9918404 0.07220487
vn -0.3361588 0.9369655 0.09535711
vn 0.2330143 0.9651626 -0.1190179
vn -0.1259971 0.967414 -0.2196247
vn -0.3011895 0.943446 -0.1385438
vn -0.3393539 0.8137126 -0.4719224
vn -0.5196289 0.8411841 -0.1496496
vn 0.03897521 0.98752 -0.1525947
vn -0.105067 0.9918404 0.07220487
vn -0.4138753 0.7867085 0.458036
vn -0.5076703 0.3301695 -0.7957757
vn -0.4356428 0.2236993 -0.8718796
vn -0.6905124 0.2386425 -0.6828195
vn -0.7746545 0.2425227 -0.5840319
vn -0.4356428 0.2236993 -0.8718796
vn -0.669148 -0.005679121 -0.7431076
vn -0.641835 0.2021555 -0.7397168
vn -0.5633572 0.1832302 -0.8056397
vn -0.5076703 0.3301695 -0.7957757
vn -0.4009988 0.175699 -0.8990716
vn -0.3040863 0.1077752 -0.9465284
vn -0.5879354 -0.07388707 -0.8055263
vn -0.3526187 -0.09970918 -0.9304398
vn -0.4313776 0.03253286 -0.9015847
vn -0.4009988 0.175699 -0.8990716
vn -0.5879354 -0.07388707 -0.8055263
vn -0.7157743 0.403362 -0.570058
vn -0.7746545 0.2425227 -0.5840319
vn -0.817232 0.4404153 -0.3717073
vn 0.2562596 -0.6649709 0.7015302
vn 0.612889 -0.7143127 0.3378232
vn 0.5572885 -0.8115233 0.1756686
vn 0.3601395 -0.9315728 0.04971578
vn 0.07818594 -0.9935795 -0.08177184
vn -0.1944854 -0.9721711 -0.130609
vn -0.4490812 -0.8849304 -0.1233864
vn -0.6788635 -0.7316308 -0.06213542
vn -0.8505427 -0.5250767 0.02952425
vn -0.9141273 -0.3680152 0.1701059
vn 0.4792885 -0.8418187 -0.2482412
vn 0.6677614 -0.7390179 -0.08914755
vn 0.1445911 -0.9145249 -0.3778064
vn -0.1569278 -0.8915792 -0.4248061
vn -0.4436778 -0.7940999 -0.4153978
vn -0.70073 -0.6210356 -0.3511301
vn -0.8924779 -0.3793894 -0.2440223
vn -0.9505002 -0.3078815 0.04193411
vn -0.9834274 -0.1063384 -0.1468425
vn 0.6672218 -0.7394285 -0.0897813
vn 0.7237554 -0.6897283 0.02128837
vn 0.7632561 -0.6460888 -0.003074204
vn 0.7207379 -0.6333516 0.2817849
vn 0.9445711 -0.2941319 0.1458483
vn 0.8376822 -0.5113049 0.1919789
vn 0.08291904 -0.9286808 -0.3614918
vn 0.4148234 -0.8706157 -0.2644804
vn -0.7175221 -0.6250795 -0.3073072
vn -0.8955333 -0.4035383 -0.1875553
vn -0.9820105 -0.1888193 -0.001630531
vn -0.2012533 -0.8952426 -0.3975397
vn -0.4662847 -0.7978101 -0.382201
vn -0.9907159 0.1359277 0.002386098
vn -0.9623616 0.2431899 -0.121321
vn -0.9653014 0.02431926 0.2600036
vn -0.6535075 -0.5994403 0.462168
vn -0.4744498 -0.5218549 0.7089181
vn -0.5783877 -0.3654727 0.729313
vn -0.7587031 -0.1837354 0.6249887
vn -0.6725256 -0.05967034 0.7376644
vn -0.5519157 -0.2966015 0.7793694
vn -0.5320892 0.06227677 0.8443949
vn -0.4182914 -0.2355764 0.877232
vn -0.8676378 0.003961027 0.497181
vn -0.7542888 0.2102035 0.621983
vn -0.9145493 0.2663175 0.3044249
vn -0.4636669 -0.4485731 0.7640649
vn -0.4539647 -0.4103956 0.7908803
vn -0.3217107 -0.355099 0.8777283
vn -0.1879057 -0.17465 0.9665344
vn -0.1405284 -0.3239547 0.9355775
vn 0.002359108 -0.1904475 0.9816945
vn -0.007354971 -0.3447416 0.9386688
vn 0.1377223 -0.2463604 0.9593431
vn 0.07481074 -0.3851964 0.9197972
vn 0.2853547 -0.3391576 0.8964066
vn 0.1454806 -0.4685176 0.8713935
vn 0.3965852 -0.3924847 0.829865
vn 0.1798039 -0.5434845 0.819936
vn 0.4330607 -0.5182403 0.7374858
vn 0.7078819 -0.3338538 0.6224507
vn 0.6245579 -0.2707006 0.7325631
vn 0.8003637 -0.2932865 0.5228776
vn 0.9236896 -0.09033134 0.3723411
vn 0.1773485 -0.6191049 0.7650207
vn 0.6245579 -0.2707006 0.7325631
vn 0.7502881 -0.09540278 0.6541911
vn 0.9999572 0.003349022 0.008621858
vn 0.9018527 -0.4280028 -0.05895263
vn 0.9445711 -0.2941319 0.1458483
vn 0.9450424 0.01752592 0.326478
vn 0.9638619 0.1880165 0.1887327
vn 0.8324803 0.232758 0.5027926
vn 0.8394312 0.3925504 0.375845
vn 0.7820921 0.07784217 0.6182819
vn 0.6207981 0.257462 0.7404884
vn 0.6519468 0.4118743 0.6366514
vn 0.6537353 0.5593578 0.5096558
vn 0.4217652 0.5473518 0.7228556
vn 0.4075778 0.6950701 0.5922482
vn 0.1165533 0.6462626 0.7541617
vn 0.07200661 0.7934411 0.6043727
vn -0.2232419 0.6752298 0.7030132
vn -0.2567019 0.808033 0.5302705
vn -0.6082447 0.5873194 0.5339421
vn -0.6496555 0.6949143 0.3082887
vn -0.5304272 0.447598 0.7199326
vn -0.7984533 0.3028323 0.5203506
vn -0.8168688 0.4583036 0.3502615
vn -0.7928545 0.5839165 0.1744223
vn -0.9097054 0.3449962 0.231114
vn -0.8926911 0.4504828 0.01295793
vn -0.9907159 0.1359277 0.002386098
vn -0.9623616 0.2431899 -0.121321
vn -0.9653014 0.02431926 0.2600036
vn -0.8709357 0.2257563 0.436469
vn -0.1795579 0.5149494 0.8382041
vn 0.1393641 0.4814592 0.8653177
vn 0.4052875 0.3932385 0.8252912
vn -0.9505002 -0.3078815 0.04193411
vn -0.9834274 -0.1063384 -0.1468425
vn 0.6245579 -0.2707006 0.7325631
vn 0.2853547 -0.3391576 0.8964066
vn 0.4652624 -0.1232999 0.8765432
vn 0.2853547 -0.3391576 0.8964066
vn 0.4652624 -0.1232999 0.8765432
vn 0.7502881 -0.09540278 0.6541911
vn 0.6245579 -0.2707006 0.7325631
vn 0.9236896 -0.09033134 0.3723411
vn 0.8003637 -0.2932865 0.5228776
vn 0.9773843 -0.1484859 -0.1505719
vn 0.9149504 -0.3743431 0.1507745
vn 0.7078819 -0.3338538 0.6224507
vn 0.6245579 -0.2707006 0.7325631
vn 0.3965852 -0.3924847 0.829865
vn 0.2853547 -0.3391576 0.8964066
vn 0.6245579 -0.2707006 0.7325631
vn 0.8762426 -0.142837 0.4602134
vn 0.8762426 -0.142837 0.4602134
vn 0.8376822 -0.5113049 0.1919789
vn 0.9450424 0.01752592 0.326478
vn 0.9445711 -0.2941319 0.1458483
vn 0.8762426 -0.142837 0.4602134
vn -0.7892776 0.5439869 0.2848143
vn -0.8993394 0.4149843 0.1377559
vn -0.8317989 0.5026112 0.235569
vn -0.899326 0.4150026 0.1377883
vn -0.4153346 0.7238942 0.5508852
vn -0.2738104 0.7444467 0.6089556
vn 0.3299511 0.6498469 0.6847125
vn 0.4356917 0.6017839 0.6693495
vn 0.8041551 0.3160607 0.5034285
vn 0.8576671 0.2455741 0.451775
vn 0.9567587 0.04319936 0.2876568
vn 0.9538612 0.05338525 0.2954639
vn -0.8993487 0.4149648 0.1377538
vn -0.7878424 0.5452479 0.2863725
vn -0.2668826 0.7450159 0.6113304
vn 0.4483539 0.5953791 0.6667101
vn 0.8586439 0.2441037 0.4507149
vn 0.950143 0.06458896 0.3050518
vn -0.8994366 0.4147207 0.1379152
vn -0.7866888 0.5461977 0.2877305
vn -0.2603756 0.7455124 0.6135274
vn 0.460302 0.5891722 0.6640769
vn 0.8596411 0.2426098 0.4496192
vn 0.9476569 0.06948283 0.3116385
vn -0.8707449 0.4900703 0.04042979
vn -0.7582735 0.6209039 0.1987453
vn -0.35061 0.7168182 0.6026976
vn 0.6231097 0.528738 0.5763423
vn 0.8874551 0.3251142 0.3266869
vn 0.9493448 0.3043316 0.07827342
vn -0.842874 0.5374956 -0.02572953
vn -0.8928037 0.4367157 0.1103667
vn 0.8126534 0.4351956 0.3875554
vn 0.8505536 0.3557995 0.3872534
vn -0.9142515 0.3254499 0.2413018
vn -0.9142494 0.3254482 0.2413122
vn -0.6468433 0.6025364 0.4674866
vn -0.6468669 0.6025416 0.4674473
vn 0.9448679 0.3217603 0.0607854
vn 0.9640022 0.2034776 0.1711631
vn 0.9571713 0.129862 0.2587644
vn 0.9571859 0.135857 0.2556131
vn 0.7913035 0.449755 0.4141971
vn 0.791306 0.4497385 0.4142101
vn 0.79131 0.4497199 0.4142227
vn 0.7913143 0.449712 0.4142231
vn 0.7913064 0.4497454 0.4142018
vn 0.7913166 0.4497211 0.4142088
vn 0.7913151 0.4497262 0.4142062
vn 0.7913129 0.4497379 0.4141976
vn 0.8330483 0.5103572 0.2134619
vn 0.791288 0.4497835 0.4141956
vn 0.8142861 0.5803775 0.01000423
vn 0.7913013 0.4497577 0.4141985
vn 0.7504466 0.6530293 0.1018953
vn 0.7913114 0.4497393 0.414199
vn 0.6930276 0.6945046 0.1933288
vn 0.7913011 0.4497572 0.4141993
vn 0.6413347 0.7128915 0.2836822
vn 0.7913058 0.449762 0.4141849
vn 0.5938687 0.7119331 0.3747948
vn 0.7912988 0.4497527 0.4142084
vn 0.5492545 0.6914576 0.469261
vn 0.7912974 0.4497284 0.4142376
vn 0.5070618 0.6472406 0.5691817
vn 0.7912954 0.449733 0.4142364
vn 0.4684629 0.57085 0.6742944
vn 0.7912784 0.4497907 0.4142063
vn 0.5308588 0.4983116 0.6854739
vn 0.791289 0.4497558 0.4142239
vn 0.7912899 0.4497477 0.414231
vn 0.791305 0.449736 0.4142147
vn 0.7913095 0.4497384 0.4142036
vn 0.7913007 0.449746 0.4142122
vn 0.7912839 0.449762 0.414227
vn 0.7912931 0.449757 0.4142146
vn 0.7913108 0.4497465 0.4141923
vn 0.7913156 0.4497489 0.4141804
vn 0.791312 0.4497533 0.4141828
vn 0.791312 0.4497443 0.4141926
vn 0.7913141 0.4497365 0.4141968
vn 0.7913123 0.4497204 0.4142179
vn 0.2356043 -0.969727 -0.06418908
vn 0.3977233 -0.863342 -0.3105751
vn 0.1204178 -0.9777417 -0.1718163
vn 0.2681944 -0.8726341 -0.408144
vn -0.00626471 -0.964452 -0.2641839
vn -0.1438756 -0.988649 -0.04327812
vn -0.02810076 -0.9971272 0.07033888
vn 0.09410686 -0.9747661 0.2024229
vn -0.2947719 -0.9425277 0.1573247
vn -0.1695026 -0.9364225 0.3072159
vn -0.01969562 -0.8790541 0.4763151
vn -0.4484418 -0.832683 0.3248676
vn -0.2978106 -0.7951198 0.5282929
vn -0.5949589 -0.6668695 0.4486748
vn -0.4055127 -0.5710366 0.7137764
vn -0.7238545 -0.4544998 0.5190999
vn -0.5481488 -0.3482868 0.7604139
vn 0.1063304 -0.8657793 -0.4889991
vn 0.4002704 -0.6758692 -0.6188575
vn 0.1813021 -0.6939406 -0.6968328
vn 0.4924901 -0.3962078 -0.7749018
vn 0.2071522 -0.4592471 -0.8638172
vn 0.5216323 -0.0684154 -0.8504228
vn 0.1767705 -0.183161 -0.9670596
vn 0.4809868 0.2587393 -0.8376787
vn 0.08964477 0.1038257 -0.9905472
vn -0.09728195 -0.6729386 0.7332734
vn 0.7632821 0.03597473 -0.6450629
vn 0.6982468 -0.3275437 -0.6365269
vn 0.5636549 -0.6462741 -0.514415
vn 0.1978032 0.378501 -0.9042183
vn -0.04627176 0.3672858 -0.9289564
vn -0.1263778 -0.3620411 0.9235556
vn -0.4831609 -0.2742227 0.831479
vn -0.1013142 0.0005658212 0.9948544
vn 0.3820989 0.5455596 -0.7458989
vn 0.04603839 0.6268335 -0.7777919
vn -0.04627176 0.3672858 -0.9289564
vn -0.2162081 0.5754797 -0.7887187
vn -0.1564084 0.5133295 -0.8438182
vn -0.3388302 0.6707682 -0.6597454
vn -0.2162081 0.5754797 -0.7887187
vn -0.40157 0.7039106 -0.5858766
vn -0.5225219 0.7375049 -0.427852
vn -0.5807362 0.7379773 -0.3437078
vn -0.6856557 0.7066125 -0.1748569
vn -0.7324477 0.6748256 -0.09017062
vn -0.8090492 0.5835617 0.06996478
vn -0.8390418 0.5242752 0.1454111
vn -0.8791579 0.386373 0.2789216
vn -0.8896844 0.3079536 0.3370852
vn -0.8911415 0.1417487 0.4310152
vn -0.8825897 0.05412089 0.4670187
vn 0.1160791 0.7049065 0.6997374
vn 0.02328898 0.5106989 0.8594441
vn 0.4382566 0.4504879 0.7778122
vn -0.06027731 0.2286341 0.9716446
vn 0.2089469 0.8243756 0.5260665
vn 0.3001206 0.8867199 0.3516468
vn 0.3904378 0.9030698 0.1789506
vn 0.4812619 0.8765542 0.006301927
vn 0.5728263 0.8022447 -0.1681474
vn 0.5180432 0.6729661 -0.5279658
vn 0.3547235 0.7680861 -0.5331184
vn 0.4809868 0.2587393 -0.8376787
vn 0.3820989 0.5455596 -0.7458989
vn 0.8822173 0.4647646 -0.07540923
vn -0.03392905 0.3332436 0.9422302
vn -0.1013142 0.0005658212 0.9948544
vn -0.521504 0.06136826 0.8510391
vn -0.425735 -0.2099627 0.8801507
vn 0.7632821 0.03597473 -0.6450629
vn 0.7514147 0.3625983 -0.5512698
vn 0.5216323 -0.0684154 -0.8504228
vn 0.4809868 0.2587393 -0.8376787
vn -0.8911415 0.1417487 0.4310152
vn -0.6089243 -0.0258308 0.7928076
vn -0.8825897 0.05412089 0.4670187
vn -0.8237358 -0.2081313 0.5273903
vn -0.4831609 -0.2742227 0.831479
vn -0.7238545 -0.4544998 0.5190999
vn -0.5895041 0.7409423 0.3216979
vn -0.5104893 0.8588202 0.04275933
vn -0.569118 0.7893778 0.23019
vn -0.472252 0.8798583 -0.05317302
vn -0.3815714 0.8925709 -0.2402508
vn -0.32914 0.8842269 -0.3313752
vn -0.215249 0.8389667 -0.4998028
vn -0.1537891 0.8020557 -0.5771098
vn -0.02785903 0.7032546 -0.7103919
vn 0.03661261 0.6413612 -0.766365
vn 0.1622082 0.4987197 -0.85145
vn 0.2233507 0.4179685 -0.8805776
vn 0.3363934 0.2454384 -0.9091752
vn 0.3883821 0.1535681 -0.9086123
vn -0.6103322 0.6215338 0.4911113
vn -0.6107951 0.5505701 0.5690358
vn -0.5917759 0.3930156 0.703804
vn -0.5722963 0.3063729 0.7606659
vn -0.5152909 0.1258533 0.8477241
vn -0.4777601 0.03199637 0.8779075
vn -0.3883647 -0.1535762 0.9086182
vn -0.3365183 -0.2452668 0.9091752
vn 0.3363934 0.2454384 -0.9091752
vn 0.4778646 -0.0321128 -0.8778463
vn 0.3883821 0.1535681 -0.9086123
vn 0.515393 -0.1259492 -0.8476478
vn 0.5723386 -0.3063585 -0.7606398
vn 0.5917934 -0.3929728 -0.7038131
vn 0.6108186 -0.5505986 -0.568983
vn 0.6103619 -0.621568 -0.491031
vn 0.5895322 -0.740939 -0.3216538
vn 0.5691586 -0.7893452 -0.2302014
vn 0.5105125 -0.8588058 -0.04277315
vn 0.4722415 -0.8798623 0.05320062
vn 0.3815491 -0.8925742 0.240274
vn 0.3291353 -0.8842391 0.3313476
vn 0.2152703 -0.839004 0.499731
vn 0.153804 -0.8020769 0.5770762
vn 0.02787836 -0.7032535 0.7103924
vn -0.03658198 -0.6413572 0.7663698
vn -0.1622501 -0.4986516 0.8514819
vn -0.2234549 -0.4178472 0.8806087
vn -0.3365183 -0.2452668 0.9091752
vn -0.3883647 -0.1535762 0.9086182
g MoP_Sanctuary_Lamp_mesh_0
f 3/3/3 2/2/2 1/1/1
f 4/4/4 2/2/2 3/3/3
f 3/3/3 1/1/1 5/5/5
f 5/5/5 1/1/1 6/6/6
f 5/5/5 6/6/6 7/7/7
f 7/7/7 6/6/6 8/8/8
f 7/7/7 8/8/8 9/9/9
f 9/9/9 8/8/8 10/10/10
f 9/9/9 10/10/10 11/11/11
f 11/11/11 10/10/10 12/12/12
f 11/11/11 12/12/12 13/13/13
f 13/13/13 12/12/12 14/14/14
f 13/13/13 14/14/14 15/15/15
f 15/15/15 14/14/14 16/16/16
f 15/15/15 16/16/16 17/17/17
f 17/17/17 16/16/16 18/18/18
f 17/17/17 18/18/18 19/19/19
f 19/19/19 18/18/18 20/20/20
f 19/19/19 20/20/20 21/21/21
f 21/21/21 20/20/20 22/22/22
f 23/23/23 7/7/7 9/9/9
f 24/24/24 9/9/9 11/11/11
f 23/23/23 9/9/9 24/24/24
f 25/25/25 11/11/11 13/13/13
f 24/24/24 11/11/11 25/25/25
f 26/26/26 13/13/13 15/15/15
f 25/25/25 13/13/13 26/26/26
f 27/27/27 15/15/15 17/17/17
f 26/26/26 15/15/15 27/27/27
f 28/28/28 17/17/17 19/19/19
f 27/27/27 17/17/17 28/28/28
f 29/29/29 19/19/19 21/21/21
f 28/28/28 19/19/19 29/29/29
f 30/30/30 23/23/23 24/24/24
f 31/31/31 23/23/23 30/30/30
f 31/31/31 32/32/32 23/23/23
f 32/32/32 7/7/7 23/23/23
f 32/32/32 5/5/5 7/7/7
f 33/33/33 5/5/5 32/32/32
f 33/33/33 3/3/3 5/5/5
f 34/34/34 3/3/3 33/33/33
f 34/34/34 4/4/4 3/3/3
f 35/35/35 4/4/4 34/34/34
f 36/36/36 35/35/35 34/34/34
f 37/37/37 35/35/35 36/36/36
f 38/38/38 34/34/34 33/33/33
f 36/36/36 34/34/34 38/38/38
f 39/39/39 33/33/33 32/32/32
f 38/38/38 33/33/33 39/39/39
f 39/39/39 32/32/32 31/31/31
f 40/40/40 28/28/28 29/29/29
f 41/41/41 37/37/37 36/36/36
f 42/42/42 37/37/37 41/41/41
f 43/43/43 36/36/36 38/38/38
f 41/41/41 36/36/36 43/43/43
f 44/44/44 38/38/38 39/39/39
f 43/43/43 38/38/38 44/44/44
f 44/44/44 39/39/39 45/45/45
f 45/45/45 39/39/39 31/31/31
f 45/45/45 31/31/31 46/46/46
f 46/46/46 31/31/31 30/30/30
f 46/46/46 30/30/30 47/47/47
f 47/47/47 30/30/30 48/48/48
f 30/30/30 24/24/24 48/48/48
f 48/48/48 24/24/24 25/25/25
f 48/48/48 25/25/25 49/49/49
f 49/49/49 25/25/25 26/26/26
f 49/49/49 26/26/26 50/50/50
f 50/50/50 26/26/26 27/27/27
f 50/50/50 27/27/27 51/51/51
f 51/51/51 27/27/27 28/28/28
f 51/51/51 28/28/28 40/40/40
f 52/52/52 48/48/48 49/49/49
f 47/47/47 48/48/48 52/52/52
f 53/53/53 49/49/49 50/50/50
f 52/52/52 49/49/49 53/53/53
f 54/54/54 50/50/50 51/51/51
f 53/53/53 50/50/50 54/54/54
f 55/55/55 51/51/51 40/40/40
f 54/54/54 51/51/51 55/55/55
f 56/56/56 47/47/47 52/52/52
f 57/57/57 47/47/47 56/56/56
f 58/58/58 52/52/52 53/53/53
f 56/56/56 52/52/52 58/58/58
f 59/59/59 53/53/53 54/54/54
f 58/58/58 53/53/53 59/59/59
f 60/60/60 54/54/54 55/55/55
f 59/59/59 54/54/54 60/60/60
f 61/61/61 57/57/57 56/56/56
f 62/62/62 57/57/57 61/61/61
f 62/62/62 63/63/63 57/57/57
f 63/63/63 46/46/46 57/57/57
f 63/63/63 45/45/45 46/46/46
f 64/64/64 45/45/45 63/63/63
f 64/64/64 44/44/44 45/45/45
f 65/65/65 44/44/44 64/64/64
f 65/65/65 43/43/43 44/44/44
f 66/66/66 43/43/43 65/65/65
f 66/66/66 41/41/41 43/43/43
f 67/67/67 41/41/41 66/66/66
f 67/67/67 42/42/42 41/41/41
f 68/68/68 42/42/42 67/67/67
f 69/69/69 67/67/67 66/66/66
f 70/70/70 67/67/67 69/69/69
f 71/71/71 66/66/66 65/65/65
f 69/69/69 66/66/66 71/71/71
f 72/72/72 65/65/65 64/64/64
f 71/71/71 65/65/65 72/72/72
f 72/72/72 64/64/64 73/73/73
f 73/73/73 64/64/64 63/63/63
f 73/73/73 63/63/63 62/62/62
f 74/74/74 70/70/70 69/69/69
f 75/75/75 69/69/69 71/71/71
f 74/74/74 69/69/69 75/75/75
f 76/76/76 71/71/71 72/72/72
f 75/75/75 71/71/71 76/76/76
f 77/77/77 72/72/72 73/73/73
f 76/76/76 72/72/72 77/77/77
f 78/78/78 73/73/73 62/62/62
f 77/77/77 73/73/73 78/78/78
f 79/79/79 74/74/74 75/75/75
f 80/80/80 74/74/74 79/79/79
f 81/81/81 75/75/75 76/76/76
f 79/79/79 75/75/75 81/81/81
f 82/82/82 76/76/76 77/77/77
f 81/81/81 76/76/76 82/82/82
f 82/82/82 77/77/77 83/83/83
f 83/83/83 77/77/77 78/78/78
f 84/84/84 80/80/80 79/79/79
f 85/85/85 80/80/80 84/84/84
f 86/86/86 85/85/85 84/84/84
f 87/87/87 85/85/85 86/86/86
f 87/87/87 88/88/88 85/85/85
f 86/86/86 84/84/84 89/89/89
f 90/90/90 79/79/79 81/81/81
f 84/84/84 79/79/79 90/90/90
f 91/91/91 84/84/84 90/90/90
f 91/91/91 90/90/90 92/92/92
f 92/92/92 90/90/90 93/93/93
f 93/93/93 81/81/81 82/82/82
f 90/90/90 81/81/81 93/93/93
f 92/92/92 93/93/93 94/94/94
f 93/93/93 82/82/82 95/95/95
f 96/96/96 93/93/93 95/95/95
f 95/95/95 82/82/82 97/97/97
f 96/96/96 95/95/95 98/98/98
f 98/98/98 95/95/95 99/99/99
f 98/98/98 99/99/99 100/100/100
f 100/100/100 99/99/99 101/101/101
f 95/95/95 102/102/102 99/99/99
f 99/99/99 102/102/102 103/103/103
f 99/99/99 103/103/103 101/101/101
f 101/101/101 103/103/103 104/104/104
f 107/107/107 106/106/106 105/105/105
f 88/88/88 108/108/108 85/85/85
f 88/88/88 109/109/109 108/108/108
f 110/110/110 109/109/109 88/88/88
f 111/111/111 110/110/110 88/88/88
f 85/85/85 108/108/108 80/80/80
f 108/108/108 112/112/112 80/80/80
f 108/108/108 113/113/113 112/112/112
f 113/113/113 114/114/114 112/112/112
f 117/117/117 116/116/116 115/115/115
f 115/115/115 116/116/116 118/118/118
f 121/121/121 120/120/120 119/119/119
f 120/120/120 61/61/61 119/119/119
f 120/120/120 62/62/62 61/61/61
f 78/78/78 62/62/62 120/120/120
f 119/119/119 61/61/61 122/122/122
f 61/61/61 56/56/56 122/122/122
f 122/122/122 56/56/56 58/58/58
f 122/122/122 58/58/58 123/123/123
f 123/123/123 58/58/58 59/59/59
f 123/123/123 59/59/59 124/124/124
f 124/124/124 59/59/59 60/60/60
f 119/119/119 122/122/122 125/125/125
f 126/126/126 123/123/123 124/124/124
f 125/125/125 123/123/123 126/126/126
f 57/57/57 46/46/46 47/47/47
f 129/129/129 128/128/128 127/127/127
f 132/132/132 131/131/131 130/130/130
f 132/132/132 130/130/130 133/133/133
f 134/134/134 132/132/132 133/133/133
f 137/137/137 136/136/136 135/135/135
f 136/136/136 138/138/138 135/135/135
f 136/136/136 139/139/139 138/138/138
f 139/139/139 140/140/140 138/138/138
f 139/139/139 141/141/141 140/140/140
f 141/141/141 142/142/142 140/140/140
f 141/141/141 143/143/143 142/142/142
f 143/143/143 144/144/144 142/142/142
f 143/143/143 145/145/145 144/144/144
f 145/145/145 146/146/146 144/144/144
f 145/145/145 147/147/147 146/146/146
f 144/144/144 146/146/146 148/148/148
f 149/149/149 145/145/145 143/143/143
f 149/149/149 150/150/150 145/145/145
f 150/150/150 147/147/147 145/145/145
f 151/151/151 150/150/150 149/149/149
f 151/151/151 152/152/152 150/150/150
f 152/152/152 153/153/153 150/150/150
f 150/150/150 153/153/153 147/147/147
f 154/154/154 152/152/152 151/151/151
f 154/154/154 155/155/155 152/152/152
f 156/156/156 155/155/155 154/154/154
f 157/157/157 156/156/156 154/154/154
f 158/158/158 156/156/156 157/157/157
f 158/158/158 159/159/159 156/156/156
f 160/160/160 159/159/159 158/158/158
f 161/161/161 154/154/154 151/151/151
f 157/157/157 154/154/154 161/161/161
f 162/162/162 151/151/151 149/149/149
f 161/161/161 151/151/151 162/162/162
f 162/162/162 149/149/149 163/163/163
f 164/164/164 160/160/160 158/158/158
f 165/165/165 160/160/160 164/164/164
f 165/165/165 166/166/166 160/160/160
f 167/167/167 166/166/166 165/165/165
f 168/168/168 158/158/158 157/157/157
f 164/164/164 158/158/158 168/168/168
f 169/169/169 157/157/157 161/161/161
f 168/168/168 157/157/157 169/169/169
f 170/170/170 161/161/161 162/162/162
f 169/169/169 161/161/161 170/170/170
f 171/171/171 162/162/162 163/163/163
f 170/170/170 162/162/162 171/171/171
f 171/171/171 163/163/163 172/172/172
f 172/172/172 163/163/163 141/141/141
f 163/163/163 143/143/143 141/141/141
f 163/163/163 149/149/149 143/143/143
f 172/172/172 141/141/141 139/139/139
f 173/173/173 167/167/167 165/165/165
f 174/174/174 167/167/167 173/173/173
f 175/175/175 165/165/165 164/164/164
f 173/173/173 165/165/165 175/175/175
f 176/176/176 164/164/164 168/168/168
f 175/175/175 164/164/164 176/176/176
f 177/177/177 168/168/168 169/169/169
f 176/176/176 168/168/168 177/177/177
f 178/178/178 169/169/169 170/170/170
f 177/177/177 169/169/169 178/178/178
f 179/179/179 170/170/170 171/171/171
f 178/178/178 170/170/170 179/179/179
f 180/180/180 171/171/171 172/172/172
f 179/179/179 171/171/171 180/180/180
f 181/181/181 172/172/172 139/139/139
f 180/180/180 172/172/172 181/181/181
f 181/181/181 139/139/139 136/136/136
f 182/182/182 174/174/174 173/173/173
f 183/183/183 174/174/174 182/182/182
f 184/184/184 173/173/173 175/175/175
f 182/182/182 173/173/173 184/184/184
f 185/185/185 175/175/175 176/176/176
f 184/184/184 175/175/175 185/185/185
f 186/186/186 176/176/176 177/177/177
f 185/185/185 176/176/176 186/186/186
f 187/187/187 177/177/177 178/178/178
f 186/186/186 177/177/177 187/187/187
f 188/188/188 178/178/178 179/179/179
f 187/187/187 178/178/178 188/188/188
f 189/189/189 179/179/179 180/180/180
f 188/188/188 179/179/179 189/189/189
f 190/190/190 180/180/180 181/181/181
f 189/189/189 180/180/180 190/190/190
f 191/191/191 181/181/181 136/136/136
f 190/190/190 181/181/181 191/191/191
f 191/191/191 136/136/136 137/137/137
f 192/192/192 183/183/183 182/182/182
f 193/193/193 183/183/183 192/192/192
f 194/194/194 182/182/182 184/184/184
f 192/192/192 182/182/182 194/194/194
f 195/195/195 184/184/184 185/185/185
f 194/194/194 184/184/184 195/195/195
f 196/196/196 185/185/185 186/186/186
f 195/195/195 185/185/185 196/196/196
f 197/197/197 186/186/186 187/187/187
f 196/196/196 186/186/186 197/197/197
f 198/198/198 187/187/187 188/188/188
f 197/197/197 187/187/187 198/198/198
f 199/199/199 188/188/188 189/189/189
f 198/198/198 188/188/188 199/199/199
f 200/200/200 189/189/189 190/190/190
f 199/199/199 189/189/189 200/200/200
f 201/201/201 190/190/190 191/191/191
f 200/200/200 190/190/190 201/201/201
f 202/202/202 191/191/191 137/137/137
f 201/201/201 191/191/191 202/202/202
f 203/203/203 193/193/193 192/192/192
f 204/204/204 193/193/193 203/203/203
f 204/204/204 205/205/205 193/193/193
f 206/206/206 205/205/205 204/204/204
f 207/207/207 194/194/194 195/195/195
f 203/203/203 192/192/192 208/208/208
f 209/209/209 192/192/192 194/194/194
f 210/210/210 197/197/197 198/198/198
f 211/211/211 198/198/198 199/199/199
f 210/210/210 198/198/198 211/211/211
f 212/212/212 200/200/200 201/201/201
f 213/213/213 201/201/201 202/202/202
f 212/212/212 201/201/201 213/213/213
f 213/213/213 202/202/202 214/214/214
f 215/215/215 200/200/200 212/212/212
f 216/216/216 211/211/211 215/215/215
f 217/217/217 211/211/211 216/216/216
f 218/218/218 217/217/217 216/216/216
f 219/219/219 217/217/217 218/218/218
f 219/219/219 220/220/220 217/217/217
f 221/221/221 220/220/220 219/219/219
f 221/221/221 222/222/222 220/220/220
f 223/223/223 222/222/222 221/221/221
f 223/223/223 224/224/224 222/222/222
f 225/225/225 224/224/224 223/223/223
f 225/225/225 226/226/226 224/224/224
f 227/227/227 226/226/226 225/225/225
f 227/227/227 228/228/228 226/226/226
f 228/228/228 229/229/229 226/226/226
f 226/226/226 229/229/229 230/230/230
f 231/231/231 228/228/228 227/227/227
f 231/231/231 232/232/232 228/228/228
f 233/233/233 232/232/232 231/231/231
f 233/233/233 234/234/234 232/232/232
f 235/235/235 234/234/234 233/233/233
f 235/235/235 236/236/236 234/234/234
f 237/237/237 236/236/236 235/235/235
f 237/237/237 238/238/238 236/236/236
f 239/239/239 238/238/238 237/237/237
f 235/235/235 233/233/233 239/239/239
f 237/237/237 235/235/235 239/239/239
f 236/236/236 240/240/240 234/234/234
f 234/234/234 204/204/204 232/232/232
f 232/232/232 204/204/204 203/203/203
f 232/232/232 203/203/203 228/228/228
f 228/228/228 203/203/203 208/208/208
f 233/233/233 231/231/231 241/241/241
f 239/239/239 233/233/233 241/241/241
f 241/241/241 231/231/231 242/242/242
f 231/231/231 227/227/227 242/242/242
f 227/227/227 225/225/225 242/242/242
f 242/242/242 225/225/225 243/243/243
f 225/225/225 223/223/223 243/243/243
f 243/243/243 223/223/223 244/244/244
f 223/223/223 221/221/221 244/244/244
f 244/244/244 221/221/221 245/245/245
f 221/221/221 219/219/219 245/245/245
f 245/245/245 219/219/219 246/246/246
f 246/246/246 219/219/219 247/247/247
f 247/247/247 248/248/248 246/246/246
f 219/219/219 218/218/218 247/247/247
f 247/247/247 218/218/218 249/249/249
f 249/249/249 250/250/250 247/247/247
f 249/249/249 251/251/251 250/250/250
f 252/252/252 251/251/251 249/249/249
f 252/252/252 249/249/249 218/218/218
f 218/218/218 216/216/216 252/252/252
f 252/252/252 216/216/216 251/251/251
f 216/216/216 215/215/215 251/251/251
f 251/251/251 215/215/215 212/212/212
f 251/251/251 212/212/212 250/250/250
f 250/250/250 212/212/212 213/213/213
f 211/211/211 199/199/199 215/215/215
f 215/215/215 199/199/199 200/200/200
f 217/217/217 253/253/253 211/211/211
f 220/220/220 253/253/253 217/217/217
f 220/220/220 254/254/254 210/210/210
f 222/222/222 254/254/254 220/220/220
f 224/224/224 255/255/255 222/222/222
f 222/222/222 255/255/255 256/256/256
f 224/224/224 258/258/258 257/257/257
f 256/256/256 196/196/196 197/197/197
f 256/256/256 197/197/197 259/259/259
f 260/260/260 195/195/195 196/196/196
f 261/261/261 195/195/195 260/260/260
f 263/263/263 262/262/262 261/261/261
f 265/265/265 196/196/196 264/264/264
f 226/226/226 266/266/266 224/224/224
f 269/269/269 268/268/268 267/267/267
f 272/272/272 271/271/271 270/270/270
f 275/275/275 274/274/274 273/273/273
f 278/278/278 277/277/277 276/276/276
f 279/279/279 277/277/277 278/278/278
f 282/282/282 281/281/281 280/280/280
f 285/285/285 284/284/284 283/283/283
f 286/286/286 1/1/1 2/2/2
f 287/287/287 1/1/1 286/286/286
f 287/287/287 6/6/6 1/1/1
f 288/288/288 6/6/6 287/287/287
f 288/288/288 8/8/8 6/6/6
f 289/289/289 8/8/8 288/288/288
f 289/289/289 10/10/10 8/8/8
f 290/290/290 10/10/10 289/289/289
f 290/290/290 12/12/12 10/10/10
f 291/291/291 12/12/12 290/290/290
f 291/291/291 14/14/14 12/12/12
f 292/292/292 14/14/14 291/291/291
f 292/292/292 16/16/16 14/14/14
f 293/293/293 16/16/16 292/292/292
f 293/293/293 18/18/18 16/16/16
f 294/294/294 18/18/18 293/293/293
f 294/294/294 20/20/20 18/18/18
f 295/295/295 20/20/20 294/294/294
f 295/295/295 22/22/22 20/20/20
f 296/296/296 290/290/290 289/289/289
f 296/296/296 289/289/289 297/297/297
f 298/298/298 290/290/290 296/296/296
f 298/298/298 291/291/291 290/290/290
f 299/299/299 291/291/291 298/298/298
f 299/299/299 292/292/292 291/291/291
f 300/300/300 292/292/292 299/299/299
f 300/300/300 293/293/293 292/292/292
f 301/301/301 293/293/293 300/300/300
f 301/301/301 294/294/294 293/293/293
f 302/302/302 294/294/294 301/301/301
f 302/302/302 303/303/303 294/294/294
f 304/304/304 303/303/303 302/302/302
f 305/305/305 296/296/296 297/297/297
f 305/305/305 297/297/297 306/306/306
f 306/306/306 297/297/297 307/307/307
f 297/297/297 288/288/288 307/307/307
f 307/307/307 288/288/288 308/308/308
f 307/307/307 308/308/308 309/309/309
f 297/297/297 289/289/289 288/288/288
f 310/310/310 307/307/307 309/309/309
f 306/306/306 307/307/307 310/310/310
f 311/311/311 299/299/299 298/298/298
f 311/311/311 298/298/298 312/312/312
f 312/312/312 296/296/296 305/305/305
f 312/312/312 298/298/298 296/296/296
f 313/313/313 302/302/302 301/301/301
f 314/314/314 302/302/302 313/313/313
f 314/314/314 304/304/304 302/302/302
f 315/315/315 304/304/304 314/314/314
f 316/316/316 299/299/299 311/311/311
f 316/316/316 300/300/300 299/299/299
f 317/317/317 300/300/300 316/316/316
f 317/317/317 301/301/301 300/300/300
f 313/313/313 301/301/301 317/317/317
f 315/315/315 318/318/318 304/304/304
f 318/318/318 319/319/319 304/304/304
f 320/320/320 318/318/318 315/315/315
f 322/322/322 22/22/22 321/321/321
f 322/322/322 323/323/323 22/22/22
f 324/324/324 22/22/22 323/323/323
f 21/21/21 22/22/22 324/324/324
f 324/324/324 323/323/323 325/325/325
f 325/325/325 323/323/323 326/326/326
f 325/325/325 326/326/326 327/327/327
f 327/327/327 326/326/326 328/328/328
f 329/329/329 21/21/21 324/324/324
f 29/29/29 21/21/21 329/329/329
f 330/330/330 324/324/324 325/325/325
f 329/329/329 324/324/324 330/330/330
f 331/331/331 29/29/29 329/329/329
f 40/40/40 29/29/29 331/331/331
f 332/332/332 323/323/323 322/322/322
f 332/332/332 326/326/326 323/323/323
f 333/333/333 326/326/326 332/332/332
f 333/333/333 328/328/328 326/326/326
f 334/334/334 328/328/328 333/333/333
f 334/334/334 335/335/335 328/328/328
f 336/336/336 335/335/335 334/334/334
f 336/336/336 337/337/337 335/335/335
f 338/338/338 337/337/337 336/336/336
f 338/338/338 339/339/339 337/337/337
f 340/340/340 339/339/339 338/338/338
f 340/340/340 341/341/341 339/339/339
f 342/342/342 341/341/341 340/340/340
f 342/342/342 343/343/343 341/341/341
f 344/344/344 343/343/343 342/342/342
f 344/344/344 345/345/345 343/343/343
f 346/346/346 343/343/343 345/345/345
f 347/347/347 343/343/343 346/346/346
f 346/346/346 345/345/345 4/4/4
f 4/4/4 345/345/345 2/2/2
f 35/35/35 346/346/346 4/4/4
f 348/348/348 346/346/346 35/35/35
f 37/37/37 348/348/348 35/35/35
f 349/349/349 348/348/348 37/37/37
f 350/350/350 345/345/345 344/344/344
f 350/350/350 2/2/2 345/345/345
f 286/286/286 2/2/2 350/350/350
f 352/352/352 351/351/351 348/348/348
f 355/355/355 354/354/354 353/353/353
f 355/355/355 353/353/353 356/356/356
f 356/356/356 353/353/353 357/357/357
f 356/356/356 357/357/357 358/358/358
f 358/358/358 357/357/357 359/359/359
f 360/360/360 356/356/356 358/358/358
f 360/360/360 358/358/358 361/361/361
f 361/361/361 358/358/358 362/362/362
f 358/358/358 359/359/359 362/362/362
f 362/362/362 359/359/359 363/363/363
f 362/362/362 363/363/363 364/364/364
f 364/364/364 363/363/363 365/365/365
f 364/364/364 365/365/365 366/366/366
f 366/366/366 365/365/365 367/367/367
f 366/366/366 367/367/367 368/368/368
f 368/368/368 367/367/367 369/369/369
f 368/368/368 369/369/369 370/370/370
f 370/370/370 369/369/369 371/371/371
f 372/372/372 368/368/368 370/370/370
f 372/372/372 370/370/370 373/373/373
f 373/373/373 370/370/370 374/374/374
f 370/370/370 371/371/371 374/374/374
f 374/374/374 371/371/371 375/375/375
f 374/374/374 375/375/375 376/376/376
f 376/376/376 375/375/375 377/377/377
f 376/376/376 377/377/377 378/378/378
f 378/378/378 377/377/377 379/379/379
f 380/380/380 376/376/376 378/378/378
f 381/381/381 376/376/376 380/380/380
f 381/381/381 374/374/374 376/376/376
f 373/373/373 374/374/374 381/381/381
f 382/382/382 368/368/368 372/372/372
f 382/382/382 366/366/366 368/368/368
f 383/383/383 366/366/366 382/382/382
f 383/383/383 364/364/364 366/366/366
f 384/384/384 364/364/364 383/383/383
f 384/384/384 362/362/362 364/364/364
f 361/361/361 362/362/362 384/384/384
f 386/386/386 379/379/379 385/385/385
f 389/389/389 388/388/388 387/387/387
f 391/391/391 148/148/148 390/390/390
f 144/144/144 148/148/148 391/391/391
f 142/142/142 144/144/144 391/391/391
f 142/142/142 391/391/391 392/392/392
f 392/392/392 391/391/391 393/393/393
f 140/140/140 142/142/142 392/392/392
f 140/140/140 392/392/392 394/394/394
f 394/394/394 392/392/392 395/395/395
f 138/138/138 140/140/140 394/394/394
f 138/138/138 394/394/394 396/396/396
f 396/396/396 394/394/394 397/397/397
f 135/135/135 138/138/138 396/396/396
f 395/395/395 399/399/399 398/398/398
f 402/402/402 401/401/401 400/400/400
f 403/403/403 356/356/356 360/360/360
f 405/405/405 355/355/355 404/404/404
f 408/408/408 407/407/407 406/406/406
f 411/411/411 410/410/410 409/409/409
f 412/412/412 410/410/410 411/411/411
f 411/411/411 409/409/409 413/413/413
f 413/413/413 409/409/409 414/414/414
f 413/413/413 414/414/414 415/415/415
f 415/415/415 414/414/414 416/416/416
f 415/415/415 416/416/416 417/417/417
f 417/417/417 416/416/416 418/418/418
f 417/417/417 418/418/418 419/419/419
f 419/419/419 418/418/418 420/420/420
f 410/410/410 421/421/421 409/409/409
f 409/409/409 421/421/421 422/422/422
f 409/409/409 422/422/422 414/414/414
f 414/414/414 422/422/422 423/423/423
f 414/414/414 423/423/423 416/416/416
f 416/416/416 423/423/423 424/424/424
f 416/416/416 424/424/424 418/418/418
f 418/418/418 424/424/424 425/425/425
f 418/418/418 425/425/425 420/420/420
f 420/420/420 425/425/425 426/426/426
f 421/421/421 427/427/427 422/422/422
f 422/422/422 427/427/427 428/428/428
f 422/422/422 428/428/428 423/423/423
f 423/423/423 428/428/428 429/429/429
f 423/423/423 429/429/429 424/424/424
f 424/424/424 429/429/429 430/430/430
f 424/424/424 430/430/430 425/425/425
f 425/425/425 430/430/430 431/431/431
f 425/425/425 431/431/431 426/426/426
f 426/426/426 431/431/431 432/432/432
f 427/427/427 433/433/433 428/428/428
f 428/428/428 433/433/433 434/434/434
f 428/428/428 434/434/434 429/429/429
f 429/429/429 434/434/434 435/435/435
f 429/429/429 435/435/435 430/430/430
f 430/430/430 435/435/435 436/436/436
f 430/430/430 436/436/436 431/431/431
f 431/431/431 436/436/436 437/437/437
f 431/431/431 437/437/437 432/432/432
f 432/432/432 437/437/437 438/438/438
f 439/439/439 434/434/434 433/433/433
f 440/440/440 434/434/434 439/439/439
f 441/441/441 437/437/437 436/436/436
f 442/442/442 437/437/437 441/441/441
f 443/443/443 440/440/440 439/439/439
f 444/444/444 440/440/440 443/443/443
f 445/445/445 435/435/435 434/434/434
f 446/446/446 435/435/435 445/445/445
f 447/447/447 438/438/438 437/437/437
f 448/448/448 438/438/438 447/447/447
f 449/449/449 448/448/448 447/447/447
f 450/450/450 448/448/448 449/449/449
f 453/453/453 452/452/452 451/451/451
f 454/454/454 452/452/452 453/453/453
f 452/452/452 455/455/455 451/451/451
f 451/451/451 455/455/455 456/456/456
f 455/455/455 457/457/457 456/456/456
f 456/456/456 457/457/457 458/458/458
f 457/457/457 459/459/459 458/458/458
f 458/458/458 459/459/459 460/460/460
f 459/459/459 461/461/461 460/460/460
f 460/460/460 461/461/461 462/462/462
f 461/461/461 463/463/463 462/462/462
f 462/462/462 463/463/463 464/464/464
f 463/463/463 465/465/465 464/464/464
f 464/464/464 465/465/465 466/466/466
f 465/465/465 467/467/467 466/466/466
f 466/466/466 467/467/467 468/468/468
f 467/467/467 469/469/469 468/468/468
f 468/468/468 469/469/469 470/470/470
f 469/469/469 471/471/471 470/470/470
f 470/470/470 471/471/471 472/472/472
f 471/471/471 473/473/473 472/472/472
f 472/472/472 473/473/473 474/474/474
f 473/473/473 475/475/475 474/474/474
f 474/474/474 475/475/475 476/476/476
f 475/475/475 477/477/477 476/476/476
f 476/476/476 477/477/477 478/478/478
f 477/477/477 479/479/479 478/478/478
f 478/478/478 479/479/479 480/480/480
f 479/479/479 481/481/481 480/480/480
f 480/480/480 481/481/481 482/482/482
f 481/481/481 483/483/483 482/482/482
f 482/482/482 483/483/483 484/484/484
f 483/483/483 485/485/485 484/484/484
f 484/484/484 485/485/485 486/486/486
f 485/485/485 487/487/487 486/486/486
f 486/486/486 487/487/487 488/488/488
f 487/487/487 489/489/489 488/488/488
f 488/488/488 489/489/489 490/490/490
f 489/489/489 454/454/454 490/490/490
f 490/490/490 454/454/454 453/453/453
f 493/493/493 492/492/492 491/491/491
f 494/494/494 492/492/492 493/493/493
f 495/495/495 494/494/494 493/493/493
f 495/495/495 493/493/493 496/496/496
f 496/496/496 493/493/493 497/497/497
f 493/493/493 491/491/491 497/497/497
f 497/497/497 491/491/491 498/498/498
f 496/496/496 497/497/497 499/499/499
f 499/499/499 497/497/497 500/500/500
f 497/497/497 498/498/498 500/500/500
f 500/500/500 498/498/498 501/501/501
f 499/499/499 500/500/500 502/502/502
f 502/502/502 500/500/500 503/503/503
f 500/500/500 501/501/501 503/503/503
f 502/502/502 503/503/503 504/504/504
f 504/504/504 503/503/503 505/505/505
f 504/504/504 505/505/505 506/506/506
f 506/506/506 505/505/505 507/507/507
f 508/508/508 494/494/494 495/495/495
f 508/508/508 509/509/509 494/494/494
f 510/510/510 509/509/509 508/508/508
f 510/510/510 511/511/511 509/509/509
f 512/512/512 511/511/511 510/510/510
f 512/512/512 513/513/513 511/511/511
f 514/514/514 513/513/513 512/512/512
f 514/514/514 515/515/515 513/513/513
f 516/516/516 515/515/515 514/514/514
f 503/503/503 501/501/501 517/517/517
f 503/503/503 517/517/517 505/505/505
f 513/513/513 518/518/518 511/511/511
f 511/511/511 518/518/518 519/519/519
f 511/511/511 519/519/519 509/509/509
f 509/509/509 519/519/519 520/520/520
f 516/516/516 521/521/521 515/515/515
f 522/522/522 521/521/521 516/516/516
f 509/509/509 520/520/520 494/494/494
f 494/494/494 520/520/520 492/492/492
f 505/505/505 517/517/517 523/523/523
f 505/505/505 523/523/523 524/524/524
f 524/524/524 523/523/523 525/525/525
f 528/528/528 527/527/527 526/526/526
f 529/529/529 527/527/527 528/528/528
f 532/532/532 531/531/531 530/530/530
f 533/533/533 531/531/531 532/532/532
f 533/533/533 534/534/534 531/531/531
f 535/535/535 534/534/534 533/533/533
f 535/535/535 536/536/536 534/534/534
f 537/537/537 536/536/536 535/535/535
f 537/537/537 538/538/538 536/536/536
f 539/539/539 538/538/538 537/537/537
f 539/539/539 540/540/540 538/538/538
f 541/541/541 540/540/540 539/539/539
f 541/541/541 542/542/542 540/540/540
f 543/543/543 542/542/542 541/541/541
f 545/545/545 475/475/475 544/544/544
f 545/545/545 546/546/546 475/475/475
f 547/547/547 546/546/546 545/545/545
f 544/544/544 475/475/475 473/473/473
f 544/544/544 473/473/473 548/548/548
f 548/548/548 473/473/473 471/471/471
f 548/548/548 471/471/471 549/549/549
f 549/549/549 471/471/471 469/469/469
f 549/549/549 469/469/469 550/550/550
f 550/550/550 469/469/469 467/467/467
f 550/550/550 467/467/467 551/551/551
f 551/551/551 467/467/467 465/465/465
f 551/551/551 465/465/465 552/552/552
f 552/552/552 465/465/465 463/463/463
f 554/554/554 463/463/463 553/553/553
f 553/553/553 463/463/463 461/461/461
f 556/556/556 461/461/461 555/555/555
f 555/555/555 461/461/461 557/557/557
f 560/560/560 559/559/559 558/558/558
f 561/561/561 559/559/559 560/560/560
f 564/564/564 563/563/563 562/562/562
f 565/565/565 563/563/563 564/564/564
f 568/568/568 567/567/567 566/566/566
f 569/569/569 567/567/567 568/568/568
f 569/569/569 570/570/570 567/567/567
f 571/571/571 570/570/570 569/569/569
f 574/574/574 573/573/573 572/572/572
f 575/575/575 573/573/573 574/574/574
f 575/575/575 576/576/576 573/573/573
f 577/577/577 576/576/576 575/575/575
f 577/577/577 578/578/578 576/576/576
f 579/579/579 578/578/578 577/577/577
f 579/579/579 580/580/580 578/578/578
f 581/581/581 580/580/580 579/579/579
f 581/581/581 582/582/582 580/580/580
f 583/583/583 582/582/582 581/581/581
f 583/583/583 584/584/584 582/582/582
f 585/585/585 584/584/584 583/583/583
f 574/574/574 572/572/572 586/586/586
f 586/586/586 572/572/572 587/587/587
f 586/586/586 587/587/587 588/588/588
f 588/588/588 587/587/587 589/589/589
f 588/588/588 589/589/589 590/590/590
f 590/590/590 589/589/589 591/591/591
f 590/590/590 591/591/591 592/592/592
f 592/592/592 591/591/591 593/593/593
f 596/596/596 595/595/595 594/594/594
f 597/597/597 595/595/595 596/596/596
f 597/597/597 598/598/598 595/595/595
f 599/599/599 598/598/598 597/597/597
f 599/599/599 600/600/600 598/598/598
f 601/601/601 600/600/600 599/599/599
f 601/601/601 602/602/602 600/600/600
f 603/603/603 602/602/602 601/601/601
f 603/603/603 604/604/604 602/602/602
f 605/605/605 604/604/604 603/603/603
f 605/605/605 606/606/606 604/604/604
f 607/607/607 606/606/606 605/605/605
f 607/607/607 608/608/608 606/606/606
f 609/609/609 608/608/608 607/607/607
f 609/609/609 610/610/610 608/608/608
f 611/611/611 610/610/610 609/609/609
f 611/611/611 612/612/612 610/610/610
f 613/613/613 612/612/612 611/611/611
f 613/613/613 614/614/614 612/612/612
f 615/615/615 614/614/614 613/613/613
