g MoText_Text___TURN_T_Cap_16
v 1471.822 57.77439 -629.1812
v 1472.162 57.77439 -634.1733
v 1473.814 57.77439 -634.1733
v 1473.908 57.77439 -633.5757
v 1474.285 57.77439 -630.9476
v 1474.413 57.77439 -631.0393
v 1474.579 57.77439 -631.135
v 1474.757 57.77439 -631.2152
v 1474.948 57.77439 -631.2799
v 1483.201 57.77439 -633.5757
v 1475.188 57.77439 -631.3358
v 1475.444 57.77439 -631.3705
v 1475.759 57.77439 -631.3843
v 1474.166 57.77439 -630.8452
v 1474.055 57.77439 -630.7316
v 1473.933 57.77439 -630.5797
v 1473.823 57.77439 -630.4109
v 1473.724 57.77439 -630.2253
v 1473.624 57.77439 -629.9874
v 1473.53 57.77439 -629.6874
v 1473.473 57.77439 -629.4427
v 1473.427 57.77439 -629.1812
v 1481.326 57.77439 -631.3843
v 1481.644 57.77439 -631.3704
v 1481.904 57.77439 -631.3353
v 1482.146 57.77439 -631.2788
v 1482.339 57.77439 -631.2134
v 1482.52 57.77439 -631.1323
v 1482.687 57.77439 -631.0355
v 1482.817 57.77439 -630.9429
v 1485.263 57.77439 -629.1812
v 1484.923 57.77439 -634.1733
v 1483.271 57.77439 -634.1733
v 1482.937 57.77439 -630.8394
v 1483.07 57.77439 -630.7004
v 1483.192 57.77439 -630.545
v 1483.301 57.77439 -630.3734
v 1483.413 57.77439 -630.1523
v 1483.509 57.77439 -629.9091
v 1483.599 57.77439 -629.6038
v 1483.681 57.77439 -629.1812
v 1474.634 57.77439 -617.228
v 1474.634 57.77439 -619.0562
v 1476.052 57.77439 -619.0562
v 1481.033 57.77439 -619.0562
v 1482.451 57.77439 -619.0562
v 1482.451 57.77439 -617.228
v 1481.033 57.77439 -631.3843
v 1476.052 57.77439 -631.3843
vt 0 0
vt 0 0
vt 0 0
vt 0 0
vt 0 0
vt 0 0
vt 0 0
vt 0 0
vt 0 0
vt 0 0
vt 0 0
vt 0 0
vt 0 0
vt 0 0
vt 0 0
vt 0 0
vt 0 0
vt 0 0
vt 0 0
vt 0 0
vt 0 0
vt 0 0
vt 0 0
vt 0 0
vt 0 0
vt 0 0
vt 0 0
vt 0 0
vt 0 0
vt 0 0
vt 0 0
vt 0 0
vt 0 0
vt 0 0
vt 0 0
vt 0 0
vt 0 0
vt 0 0
vt 0 0
vt 0 0
vt 0 0
vt 0 0
vt 0 0
vt 0 0
vt 0 0
vt 0 0
vt 0 0
vt 0 0
vt 0 0
vn 0 1 0
vn 0 1 0
vn 0 1 0
vn 0 1 0
vn 0 1 0
vn 0 1 0
vn 0 1 0
vn 0 1 0
vn 0 1 0
vn 0 1 0
vn 0 1 0
vn 0 1 0
vn 0 1 0
vn 0 1 0
vn 0 1 0
vn 0 1 0
vn 0 1 0
vn 0 1 0
vn 0 1 0
vn 0 1 0
vn 0 1 0
vn 0 1 0
vn 0 1 0
vn 0 1 0
vn 0 1 0
vn 0 1 0
vn 0 1 0
vn 0 1 0
vn 0 1 0
vn 0 1 0
vn 0 1 0
vn 0 1 0
vn 0 1 0
vn 0 1 0
vn 0 1 0
vn 0 1 0
vn 0 1 0
vn 0 1 0
vn 0 1 0
vn 0 1 0
vn 0 1 0
vn 0 1 0
vn 0 1 0
vn 0 1 0
vn 0 1 0
vn 0 1 0
vn 0 1 0
vn 0 1 0
vn 0 1 0
g MoText_Text___TURN_T_Cap_16_0
f 3/3/3 2/2/2 1/1/1
f 1/1/1 4/4/4 3/3/3
f 1/1/1 5/5/5 4/4/4
f 5/5/5 6/6/6 4/4/4
f 6/6/6 7/7/7 4/4/4
f 7/7/7 8/8/8 4/4/4
f 8/8/8 9/9/9 4/4/4
f 9/9/9 10/10/10 4/4/4
f 9/9/9 11/11/11 10/10/10
f 11/11/11 12/12/12 10/10/10
f 12/12/12 13/13/13 10/10/10
f 1/1/1 14/14/14 5/5/5
f 1/1/1 15/15/15 14/14/14
f 1/1/1 16/16/16 15/15/15
f 1/1/1 17/17/17 16/16/16
f 1/1/1 18/18/18 17/17/17
f 1/1/1 19/19/19 18/18/18
f 1/1/1 20/20/20 19/19/19
f 1/1/1 21/21/21 20/20/20
f 1/1/1 22/22/22 21/21/21
f 10/10/10 13/13/13 23/23/23
f 10/10/10 23/23/23 24/24/24
f 10/10/10 24/24/24 25/25/25
f 10/10/10 25/25/25 26/26/26
f 10/10/10 26/26/26 27/27/27
f 10/10/10 27/27/27 28/28/28
f 10/10/10 28/28/28 29/29/29
f 10/10/10 29/29/29 30/30/30
f 10/10/10 30/30/30 31/31/31
f 10/10/10 31/31/31 32/32/32
f 32/32/32 33/33/33 10/10/10
f 30/30/30 34/34/34 31/31/31
f 34/34/34 35/35/35 31/31/31
f 35/35/35 36/36/36 31/31/31
f 36/36/36 37/37/37 31/31/31
f 37/37/37 38/38/38 31/31/31
f 38/38/38 39/39/39 31/31/31
f 39/39/39 40/40/40 31/31/31
f 40/40/40 41/41/41 31/31/31
f 44/44/44 43/43/43 42/42/42
f 42/42/42 45/45/45 44/44/44
f 42/42/42 46/46/46 45/45/45
f 42/42/42 47/47/47 46/46/46
f 44/44/44 45/45/45 48/48/48
f 48/48/48 49/49/49 44/44/44
f 49/49/49 48/48/48 23/23/23
f 13/13/13 49/49/49 23/23/23
