g MoText_Text___END_E_Cap_26
v 1428.216 37.77439 -633.5757
v 1416.146 37.77439 -633.5757
v 1425.351 37.77439 -631.3843
v 1425.648 37.77439 -631.306
v 1425.888 37.77439 -631.2219
v 1426.104 37.77439 -631.1249
v 1428.216 37.77439 -630.1655
v 1424.841 37.77439 -631.4739
v 1424.159 37.77439 -631.5373
v 1417.318 37.77439 -631.7241
v 1423.318 37.77439 -631.5601
v 1426.276 37.77439 -631.0279
v 1426.41 37.77439 -630.9346
v 1426.529 37.77439 -630.8335
v 1426.552 37.77439 -630.1655
v 1422.31 37.77439 -631.5601
v 1417.318 37.77439 -619.0562
v 1422.31 37.77439 -627.9858
v 1422.31 37.77439 -625.8179
v 1426.552 37.77439 -625.8179
v 1426.552 37.77439 -627.9858
v 1428.216 37.77439 -624.7866
v 1426.552 37.77439 -629.1812
v 1428.216 37.77439 -629.1812
v 1426.552 37.77439 -624.7866
v 1422.31 37.77439 -619.2905
v 1428.216 37.77439 -617.228
v 1423.318 37.77439 -619.2905
v 1423.985 37.77439 -619.3198
v 1424.52 37.77439 -619.3934
v 1424.874 37.77439 -619.4733
v 1425.205 37.77439 -619.5762
v 1425.543 37.77439 -619.7157
v 1425.831 37.77439 -619.8665
v 1426.098 37.77439 -620.0401
v 1426.322 37.77439 -620.2159
v 1426.552 37.77439 -620.4329
v 1426.552 37.77439 -621.4937
v 1428.216 37.77439 -621.4937
v 1416.146 37.77439 -619.0562
v 1416.146 37.77439 -617.228
v 1416.146 37.77439 -631.7241
vt 0 0
vt 0 0
vt 0 0
vt 0 0
vt 0 0
vt 0 0
vt 0 0
vt 0 0
vt 0 0
vt 0 0
vt 0 0
vt 0 0
vt 0 0
vt 0 0
vt 0 0
vt 0 0
vt 0 0
vt 0 0
vt 0 0
vt 0 0
vt 0 0
vt 0 0
vt 0 0
vt 0 0
vt 0 0
vt 0 0
vt 0 0
vt 0 0
vt 0 0
vt 0 0
vt 0 0
vt 0 0
vt 0 0
vt 0 0
vt 0 0
vt 0 0
vt 0 0
vt 0 0
vt 0 0
vt 0 0
vt 0 0
vt 0 0
vn 0 -1 0
vn 0 -1 0
vn 0 -1 0
vn 0 -1 0
vn 0 -1 0
vn 0 -1 0
vn 0 -1 0
vn 0 -1 0
vn 0 -1 0
vn 0 -1 0
vn 0 -1 0
vn 0 -1 0
vn 0 -1 0
vn 0 -1 0
vn 0 -1 0
vn 0 -1 0
vn 0 -1 0
vn 0 -1 0
vn 0 -1 0
vn 0 -1 0
vn 0 -1 0
vn 0 -1 0
vn 0 -1 0
vn 0 -1 0
vn 0 -1 0
vn 0 -1 0
vn 0 -1 0
vn 0 -1 0
vn 0 -1 0
vn 0 -1 0
vn 0 -1 0
vn 0 -1 0
vn 0 -1 0
vn 0 -1 0
vn 0 -1 0
vn 0 -1 0
vn 0 -1 0
vn 0 -1 0
vn 0 -1 0
vn 0 -1 0
vn 0 -1 0
vn 0 -1 0
g MoText_Text___END_E_Cap_26_0
f 3/3/3 2/2/2 1/1/1
f 1/1/1 4/4/4 3/3/3
f 1/1/1 5/5/5 4/4/4
f 1/1/1 6/6/6 5/5/5
f 1/1/1 7/7/7 6/6/6
f 3/3/3 8/8/8 2/2/2
f 8/8/8 9/9/9 2/2/2
f 9/9/9 10/10/10 2/2/2
f 9/9/9 11/11/11 10/10/10
f 7/7/7 12/12/12 6/6/6
f 7/7/7 13/13/13 12/12/12
f 7/7/7 14/14/14 13/13/13
f 7/7/7 15/15/15 14/14/14
f 10/10/10 11/11/11 16/16/16
f 16/16/16 17/17/17 10/10/10
f 16/16/16 18/18/18 17/17/17
f 18/18/18 19/19/19 17/17/17
f 18/18/18 20/20/20 19/19/19
f 20/20/20 18/18/18 21/21/21
f 22/22/22 20/20/20 21/21/21
f 22/22/22 21/21/21 23/23/23
f 23/23/23 24/24/24 22/22/22
f 22/22/22 25/25/25 20/20/20
f 19/19/19 26/26/26 17/17/17
f 27/27/27 17/17/17 26/26/26
f 27/27/27 26/26/26 28/28/28
f 27/27/27 28/28/28 29/29/29
f 27/27/27 29/29/29 30/30/30
f 27/27/27 30/30/30 31/31/31
f 27/27/27 31/31/31 32/32/32
f 27/27/27 32/32/32 33/33/33
f 27/27/27 33/33/33 34/34/34
f 27/27/27 34/34/34 35/35/35
f 27/27/27 35/35/35 36/36/36
f 27/27/27 36/36/36 37/37/37
f 27/27/27 37/37/37 38/38/38
f 38/38/38 39/39/39 27/27/27
f 27/27/27 40/40/40 17/17/17
f 27/27/27 41/41/41 40/40/40
f 2/2/2 10/10/10 42/42/42
