g MoText_Text_END_E
v 1428.216 57.77439 -630.1655
v 1428.216 57.77439 -633.5757
v 1428.216 37.77439 -633.5757
v 1428.216 37.77439 -630.1655
v 1426.552 57.77439 -630.1655
v 1428.216 57.77439 -630.1655
v 1428.216 37.77439 -630.1655
v 1426.552 37.77439 -630.1655
v 1426.529 57.77439 -630.8335
v 1426.552 57.77439 -630.1655
v 1426.552 37.77439 -630.1655
v 1426.529 37.77439 -630.8335
v 1426.41 57.77439 -630.9346
v 1426.41 37.77439 -630.9346
v 1426.276 57.77439 -631.0279
v 1426.276 37.77439 -631.0279
v 1426.104 57.77439 -631.1249
v 1426.104 37.77439 -631.1249
v 1425.888 57.77439 -631.2219
v 1425.888 37.77439 -631.2219
v 1425.648 57.77439 -631.306
v 1425.648 37.77439 -631.306
v 1425.351 57.77439 -631.3843
v 1425.351 37.77439 -631.3843
v 1424.841 57.77439 -631.4739
v 1424.841 37.77439 -631.4739
v 1424.159 57.77439 -631.5373
v 1424.159 37.77439 -631.5373
v 1423.318 57.77439 -631.5601
v 1423.318 37.77439 -631.5601
v 1422.31 57.77439 -631.5601
v 1422.31 37.77439 -631.5601
v 1422.31 57.77439 -627.9858
v 1422.31 57.77439 -631.5601
v 1422.31 37.77439 -631.5601
v 1422.31 37.77439 -627.9858
v 1426.552 57.77439 -627.9858
v 1422.31 57.77439 -627.9858
v 1422.31 37.77439 -627.9858
v 1426.552 37.77439 -627.9858
v 1426.552 57.77439 -629.1812
v 1426.552 57.77439 -627.9858
v 1426.552 37.77439 -627.9858
v 1426.552 37.77439 -629.1812
v 1428.216 57.77439 -629.1812
v 1426.552 57.77439 -629.1812
v 1426.552 37.77439 -629.1812
v 1428.216 37.77439 -629.1812
v 1428.216 57.77439 -624.7866
v 1428.216 57.77439 -629.1812
v 1428.216 37.77439 -629.1812
v 1428.216 37.77439 -624.7866
v 1426.552 57.77439 -624.7866
v 1428.216 57.77439 -624.7866
v 1428.216 37.77439 -624.7866
v 1426.552 37.77439 -624.7866
v 1426.552 57.77439 -625.8179
v 1426.552 57.77439 -624.7866
v 1426.552 37.77439 -624.7866
v 1426.552 37.77439 -625.8179
v 1422.31 57.77439 -625.8179
v 1426.552 57.77439 -625.8179
v 1426.552 37.77439 -625.8179
v 1422.31 37.77439 -625.8179
v 1422.31 57.77439 -619.2905
v 1422.31 57.77439 -625.8179
v 1422.31 37.77439 -625.8179
v 1422.31 37.77439 -619.2905
v 1423.318 57.77439 -619.2905
v 1422.31 57.77439 -619.2905
v 1422.31 37.77439 -619.2905
v 1423.318 37.77439 -619.2905
v 1423.985 57.77439 -619.3198
v 1423.985 37.77439 -619.3198
v 1424.52 57.77439 -619.3934
v 1424.52 37.77439 -619.3934
v 1424.874 57.77439 -619.4733
v 1424.874 37.77439 -619.4733
v 1425.205 57.77439 -619.5762
v 1425.205 37.77439 -619.5762
v 1425.543 57.77439 -619.7157
v 1425.543 37.77439 -619.7157
v 1425.831 57.77439 -619.8665
v 1425.831 37.77439 -619.8665
v 1426.098 57.77439 -620.0401
v 1426.098 37.77439 -620.0401
v 1426.322 57.77439 -620.2159
v 1426.322 37.77439 -620.2159
v 1426.552 57.77439 -620.4329
v 1426.552 37.77439 -620.4329
v 1426.552 57.77439 -621.4937
v 1426.552 37.77439 -621.4937
v 1428.216 57.77439 -621.4937
v 1426.552 57.77439 -621.4937
v 1426.552 37.77439 -621.4937
v 1428.216 37.77439 -621.4937
v 1428.216 57.77439 -617.228
v 1428.216 57.77439 -621.4937
v 1428.216 37.77439 -621.4937
v 1428.216 37.77439 -617.228
v 1416.146 57.77439 -617.228
v 1428.216 57.77439 -617.228
v 1428.216 37.77439 -617.228
v 1416.146 37.77439 -617.228
v 1416.146 57.77439 -619.0562
v 1416.146 57.77439 -617.228
v 1416.146 37.77439 -617.228
v 1416.146 37.77439 -619.0562
v 1417.318 57.77439 -619.0562
v 1416.146 57.77439 -619.0562
v 1416.146 37.77439 -619.0562
v 1417.318 37.77439 -619.0562
v 1417.318 57.77439 -631.7241
v 1417.318 57.77439 -619.0562
v 1417.318 37.77439 -619.0562
v 1417.318 37.77439 -631.7241
v 1416.146 57.77439 -631.7241
v 1417.318 57.77439 -631.7241
v 1417.318 37.77439 -631.7241
v 1416.146 37.77439 -631.7241
v 1416.146 57.77439 -633.5757
v 1416.146 57.77439 -631.7241
v 1416.146 37.77439 -631.7241
v 1416.146 37.77439 -633.5757
v 1428.216 57.77439 -633.5757
v 1416.146 57.77439 -633.5757
v 1416.146 37.77439 -633.5757
v 1428.216 37.77439 -633.5757
vt 0.036667 1
vt 0 1
vt 0 0
vt 0.036667 0
vt 0.05456 1
vt 0.036667 1
vt 0.036667 0
vt 0.05456 0
vt 0.061747 1
vt 0.05456 1
vt 0.05456 0
vt 0.061747 0
vt 0.063426 1
vt 0.063426 0
vt 0.065181 1
vt 0.065181 0
vt 0.067299 1
vt 0.067299 0
vt 0.069845 1
vt 0.069845 0
vt 0.072588 1
vt 0.072588 0
vt 0.075885 1
vt 0.075885 0
vt 0.081456 1
vt 0.081456 0
vt 0.088816 1
vt 0.088816 0
vt 0.097866 1
vt 0.097866 0
vt 0.108702 1
vt 0.108702 0
vt 0.147133 1
vt 0.108702 1
vt 0.108702 0
vt 0.147133 0
vt 0.192747 1
vt 0.147133 1
vt 0.147133 0
vt 0.192747 0
vt 0.205599 1
vt 0.192747 1
vt 0.192747 0
vt 0.205599 0
vt 0.223492 1
vt 0.205599 1
vt 0.205599 0
vt 0.223492 0
vt 0.270744 1
vt 0.223492 1
vt 0.223492 0
vt 0.270744 0
vt 0.288636 1
vt 0.270744 1
vt 0.270744 0
vt 0.288636 0
vt 0.299725 1
vt 0.288636 1
vt 0.288636 0
vt 0.299725 0
vt 0.345338 1
vt 0.299725 1
vt 0.299725 0
vt 0.345338 0
vt 0.415523 1
vt 0.345338 1
vt 0.345338 0
vt 0.415523 0
vt 0.426359 1
vt 0.415523 1
vt 0.415523 0
vt 0.426359 0
vt 0.433543 1
vt 0.433543 0
vt 0.439348 1
vt 0.439348 0
vt 0.443249 1
vt 0.443249 0
vt 0.446971 1
vt 0.446971 0
vt 0.45091 1
vt 0.45091 0
vt 0.454398 1
vt 0.454398 0
vt 0.457828 1
vt 0.457828 0
vt 0.460889 1
vt 0.460889 0
vt 0.46429 1
vt 0.46429 0
vt 0.475696 1
vt 0.475696 0
vt 0.493588 1
vt 0.475696 1
vt 0.475696 0
vt 0.493588 0
vt 0.539454 1
vt 0.493588 1
vt 0.493588 0
vt 0.539454 0
vt 0.669239 1
vt 0.539454 1
vt 0.539454 0
vt 0.669239 0
vt 0.688895 1
vt 0.669239 1
vt 0.669239 0
vt 0.688895 0
vt 0.701496 1
vt 0.688895 1
vt 0.688895 0
vt 0.701496 0
vt 0.837706 1
vt 0.701496 1
vt 0.701496 0
vt 0.837706 0
vt 0.850307 1
vt 0.837706 1
vt 0.837706 0
vt 0.850307 0
vt 0.870215 1
vt 0.850307 1
vt 0.850307 0
vt 0.870215 0
vt 1 1
vt 0.870215 1
vt 0.870215 0
vt 1 0
vn 1 0 0
vn 1 0 0
vn 1 0 0
vn 1 0 0
vn 0 0 1
vn 0 0 1
vn 0 0 1
vn 0 0 1
vn -0.9001153 0 0.4356517
vn -0.999385 0 0.03506614
vn -0.999385 0 0.03506614
vn -0.9001153 0 0.4356517
vn -0.6102219 0 0.7922306
vn -0.6102219 0 0.7922306
vn -0.532694 0 0.8463079
vn -0.532694 0 0.8463079
vn -0.4516106 0 0.8922152
vn -0.4516106 0 0.8922152
vn -0.3699399 0 0.9290556
vn -0.3699399 0 0.9290556
vn -0.2926468 0 0.9562206
vn -0.2926468 0 0.9562206
vn -0.2143021 0 0.9767675
vn -0.2143021 0 0.9767675
vn -0.1329154 0 0.9911274
vn -0.1329154 0 0.9911274
vn -0.05983006 0 0.9982086
vn -0.05983006 0 0.9982086
vn -0.01352647 0 0.9999086
vn -0.01352647 0 0.9999086
vn 0 0 1
vn 0 0 1
vn 1 0 0
vn 1 0 0
vn 1 0 0
vn 1 0 0
vn 0 0 -1
vn 0 0 -1
vn 0 0 -1
vn 0 0 -1
vn -1 0 0
vn -1 0 0
vn -1 0 0
vn -1 0 0
vn 0 0 -1
vn 0 0 -1
vn 0 0 -1
vn 0 0 -1
vn 1 0 0
vn 1 0 0
vn 1 0 0
vn 1 0 0
vn 0 0 1
vn 0 0 1
vn 0 0 1
vn 0 0 1
vn -1 0 0
vn -1 0 0
vn -1 0 0
vn -1 0 0
vn 0 0 1
vn 0 0 1
vn 0 0 1
vn 0 0 1
vn 1 0 0
vn 1 0 0
vn 1 0 0
vn 1 0 0
vn -0.02188041 0 -0.9997606
vn 0 0 -1
vn 0 0 -1
vn -0.02188041 0 -0.9997606
vn -0.09014979 0 -0.9959282
vn -0.09014979 0 -0.9959282
vn -0.1785324 0 -0.983934
vn -0.1785324 0 -0.983934
vn -0.2589822 0 -0.9658821
vn -0.2589822 0 -0.9658821
vn -0.3393461 0 -0.9406615
vn -0.3393461 0 -0.9406615
vn -0.423248 0 -0.9060138
vn -0.423248 0 -0.9060138
vn -0.5050915 0 -0.8630658
vn -0.5050915 0 -0.8630658
vn -0.5814438 0 -0.8135865
vn -0.5814438 0 -0.8135865
vn -0.6524261 0 -0.7578523
vn -0.6524261 0 -0.7578523
vn -0.9181936 0 -0.3961321
vn -0.9181936 0 -0.3961321
vn -1 0 0
vn -1 0 0
vn 0 0 -1
vn 0 0 -1
vn 0 0 -1
vn 0 0 -1
vn 1 0 0
vn 1 0 0
vn 1 0 0
vn 1 0 0
vn 0 0 1
vn 0 0 1
vn 0 0 1
vn 0 0 1
vn -1 0 0
vn -1 0 0
vn -1 0 0
vn -1 0 0
vn 0 0 -1
vn 0 0 -1
vn 0 0 -1
vn 0 0 -1
vn -1 0 0
vn -1 0 0
vn -1 0 0
vn -1 0 0
vn 0 0 1
vn 0 0 1
vn 0 0 1
vn 0 0 1
vn -1 0 0
vn -1 0 0
vn -1 0 0
vn -1 0 0
vn 0 0 -1
vn 0 0 -1
vn 0 0 -1
vn 0 0 -1
g MoText_Text_END_E_0
f 3/3/3 2/2/2 1/1/1
f 4/4/4 3/3/3 1/1/1
f 7/7/7 6/6/6 5/5/5
f 8/8/8 7/7/7 5/5/5
f 11/11/11 10/10/10 9/9/9
f 12/12/12 11/11/11 9/9/9
f 12/12/12 9/9/9 13/13/13
f 14/14/14 12/12/12 13/13/13
f 14/14/14 13/13/13 15/15/15
f 16/16/16 14/14/14 15/15/15
f 16/16/16 15/15/15 17/17/17
f 18/18/18 16/16/16 17/17/17
f 18/18/18 17/17/17 19/19/19
f 20/20/20 18/18/18 19/19/19
f 20/20/20 19/19/19 21/21/21
f 22/22/22 20/20/20 21/21/21
f 22/22/22 21/21/21 23/23/23
f 24/24/24 22/22/22 23/23/23
f 24/24/24 23/23/23 25/25/25
f 26/26/26 24/24/24 25/25/25
f 26/26/26 25/25/25 27/27/27
f 28/28/28 26/26/26 27/27/27
f 28/28/28 27/27/27 29/29/29
f 30/30/30 28/28/28 29/29/29
f 30/30/30 29/29/29 31/31/31
f 32/32/32 30/30/30 31/31/31
f 35/35/35 34/34/34 33/33/33
f 36/36/36 35/35/35 33/33/33
f 39/39/39 38/38/38 37/37/37
f 40/40/40 39/39/39 37/37/37
f 43/43/43 42/42/42 41/41/41
f 44/44/44 43/43/43 41/41/41
f 47/47/47 46/46/46 45/45/45
f 48/48/48 47/47/47 45/45/45
f 51/51/51 50/50/50 49/49/49
f 52/52/52 51/51/51 49/49/49
f 55/55/55 54/54/54 53/53/53
f 56/56/56 55/55/55 53/53/53
f 59/59/59 58/58/58 57/57/57
f 60/60/60 59/59/59 57/57/57
f 63/63/63 62/62/62 61/61/61
f 64/64/64 63/63/63 61/61/61
f 67/67/67 66/66/66 65/65/65
f 68/68/68 67/67/67 65/65/65
f 71/71/71 70/70/70 69/69/69
f 72/72/72 71/71/71 69/69/69
f 72/72/72 69/69/69 73/73/73
f 74/74/74 72/72/72 73/73/73
f 74/74/74 73/73/73 75/75/75
f 76/76/76 74/74/74 75/75/75
f 76/76/76 75/75/75 77/77/77
f 78/78/78 76/76/76 77/77/77
f 78/78/78 77/77/77 79/79/79
f 80/80/80 78/78/78 79/79/79
f 80/80/80 79/79/79 81/81/81
f 82/82/82 80/80/80 81/81/81
f 82/82/82 81/81/81 83/83/83
f 84/84/84 82/82/82 83/83/83
f 84/84/84 83/83/83 85/85/85
f 86/86/86 84/84/84 85/85/85
f 86/86/86 85/85/85 87/87/87
f 88/88/88 86/86/86 87/87/87
f 88/88/88 87/87/87 89/89/89
f 90/90/90 88/88/88 89/89/89
f 90/90/90 89/89/89 91/91/91
f 92/92/92 90/90/90 91/91/91
f 95/95/95 94/94/94 93/93/93
f 96/96/96 95/95/95 93/93/93
f 99/99/99 98/98/98 97/97/97
f 100/100/100 99/99/99 97/97/97
f 103/103/103 102/102/102 101/101/101
f 104/104/104 103/103/103 101/101/101
f 107/107/107 106/106/106 105/105/105
f 108/108/108 107/107/107 105/105/105
f 111/111/111 110/110/110 109/109/109
f 112/112/112 111/111/111 109/109/109
f 115/115/115 114/114/114 113/113/113
f 116/116/116 115/115/115 113/113/113
f 119/119/119 118/118/118 117/117/117
f 120/120/120 119/119/119 117/117/117
f 123/123/123 122/122/122 121/121/121
f 124/124/124 123/123/123 121/121/121
f 127/127/127 126/126/126 125/125/125
f 128/128/128 127/127/127 125/125/125
