g MoText_Text_END_N1_Cap_25
v 1446.263 37.77439 -631.7241
v 1446.263 37.77439 -633.5757
v 1441.775 37.77439 -633.5757
v 1441.775 37.77439 -631.7241
v 1441.775 37.77439 -631.7241
v 1445.115 37.77439 -631.7241
v 1446.263 37.77439 -631.7241
v 1442.947 37.77439 -631.7241
v 1445.115 37.77439 -617.228
v 1445.115 37.77439 -631.7241
v 1442.947 37.77439 -631.7241
v 1442.947 37.77439 -624.9858
v 1441.001 37.77439 -619.3608
v 1441.374 37.77439 -618.7896
v 1441.693 37.77439 -618.2476
v 1442.208 37.77439 -617.228
v 1434.931 37.77439 -628.2437
v 1432.775 37.77439 -631.7241
v 1431.603 37.77439 -633.5757
v 1437.041 37.77439 -633.5757
v 1432.775 37.77439 -619.0562
v 1434.931 37.77439 -619.0562
v 1436.326 37.77439 -617.228
v 1436.326 37.77439 -619.0562
v 1431.603 37.77439 -619.0562
v 1431.603 37.77439 -617.228
v 1431.603 37.77439 -631.7241
vt 0 0
vt 0 0
vt 0 0
vt 0 0
vt 0 0
vt 0 0
vt 0 0
vt 0 0
vt 0 0
vt 0 0
vt 0 0
vt 0 0
vt 0 0
vt 0 0
vt 0 0
vt 0 0
vt 0 0
vt 0 0
vt 0 0
vt 0 0
vt 0 0
vt 0 0
vt 0 0
vt 0 0
vt 0 0
vt 0 0
vt 0 0
vn 0 -1 0
vn 0 -1 0
vn 0 -1 0
vn 0 -1 0
vn 0 1 0
vn 0 1 0
vn 0 1 0
vn 0 1 0
vn 0 -1 0
vn 0 -1 0
vn 0 -1 0
vn 0 -1 0
vn 0 -1 0
vn 0 -1 0
vn 0 -1 0
vn 0 -1 0
vn 0 -1 0
vn 0 -1 0
vn 0 -1 0
vn 0 -1 0
vn 0 -1 0
vn 0 -1 0
vn 0 -1 0
vn 0 -1 0
vn 0 -1 0
vn 0 -1 0
vn 0 -1 0
g MoText_Text_END_N1_Cap_25_0
f 3/3/3 2/2/2 1/1/1
f 1/1/1 4/4/4 3/3/3
f 7/7/7 6/6/6 5/5/5
f 6/6/6 8/8/8 5/5/5
f 11/11/11 10/10/10 9/9/9
f 9/9/9 12/12/12 11/11/11
f 9/9/9 13/13/13 12/12/12
f 9/9/9 14/14/14 13/13/13
f 9/9/9 15/15/15 14/14/14
f 9/9/9 16/16/16 15/15/15
f 12/12/12 13/13/13 17/17/17
f 12/12/12 17/17/17 18/18/18
f 12/12/12 18/18/18 19/19/19
f 19/19/19 20/20/20 12/12/12
f 21/21/21 18/18/18 17/17/17
f 17/17/17 22/22/22 21/21/21
f 23/23/23 21/21/21 22/22/22
f 22/22/22 24/24/24 23/23/23
f 23/23/23 25/25/25 21/21/21
f 23/23/23 26/26/26 25/25/25
f 19/19/19 18/18/18 27/27/27
