g MoText_Text_TURN_U_Cap_15
v 1487.068 57.77439 -631.7241
v 1487.068 57.77439 -633.5757
v 1493.232 57.77439 -633.5757
v 1488.24 57.77439 -631.7241
v 1493.232 57.77439 -622.0093
v 1488.24 57.77439 -622.103
v 1488.271 57.77439 -621.3301
v 1493.249 57.77439 -621.611
v 1493.294 57.77439 -621.2895
v 1488.351 57.77439 -620.7022
v 1493.355 57.77439 -621.0333
v 1493.424 57.77439 -620.8323
v 1493.508 57.77439 -620.6485
v 1488.478 57.77439 -620.1196
v 1493.59 57.77439 -620.5085
v 1493.664 57.77439 -620.4051
v 1493.765 57.77439 -620.2866
v 1493.877 57.77439 -620.1797
v 1494.001 57.77439 -620.0841
v 1488.626 57.77439 -619.6563
v 1494.135 57.77439 -619.9998
v 1494.281 57.77439 -619.9266
v 1494.47 57.77439 -619.8538
v 1494.676 57.77439 -619.7971
v 1494.936 57.77439 -619.7513
v 1495.135 57.77439 -619.7322
v 1495.388 57.77439 -619.7241
v 1502.443 57.77439 -619.0562
v 1495.658 57.77439 -619.7368
v 1495.875 57.77439 -619.7677
v 1496.078 57.77439 -619.8172
v 1496.238 57.77439 -619.8726
v 1496.388 57.77439 -619.941
v 1496.529 57.77439 -620.0222
v 1496.661 57.77439 -620.1163
v 1496.783 57.77439 -620.2233
v 1496.852 57.77439 -620.2936
v 1496.917 57.77439 -620.3687
v 1497.019 57.77439 -620.5032
v 1497.109 57.77439 -620.649
v 1497.204 57.77439 -620.8387
v 1497.284 57.77439 -621.0447
v 1497.357 57.77439 -621.3055
v 1497.415 57.77439 -621.6306
v 1497.44 57.77439 -621.8933
v 1497.451 57.77439 -622.2202
v 1497.451 57.77439 -631.7241
v 1502.443 57.77439 -633.5757
v 1496.279 57.77439 -631.7241
v 1496.279 57.77439 -633.5757
v 1488.809 57.77439 -619.2261
v 1489.027 57.77439 -618.8293
v 1503.626 57.77439 -619.0562
v 1497.474 57.77439 -618.8101
v 1489.236 57.77439 -618.5239
v 1496.906 57.77439 -618.3096
v 1489.47 57.77439 -618.2417
v 1496.361 57.77439 -617.9124
v 1489.726 57.77439 -617.9846
v 1489.946 57.77439 -617.7983
v 1495.886 57.77439 -617.627
v 1490.238 57.77439 -617.5898
v 1495.353 57.77439 -617.3687
v 1490.551 57.77439 -617.4085
v 1490.884 57.77439 -617.2542
v 1494.85 57.77439 -617.1805
v 1491.31 57.77439 -617.1047
v 1494.331 57.77439 -617.0389
v 1491.765 57.77439 -616.9943
v 1493.797 57.77439 -616.9437
v 1492.332 57.77439 -616.9147
v 1493.398 57.77439 -616.9037
v 1492.939 57.77439 -616.8882
v 1503.626 57.77439 -617.228
v 1497.697 57.77439 -617.228
vt 0 0
vt 0 0
vt 0 0
vt 0 0
vt 0 0
vt 0 0
vt 0 0
vt 0 0
vt 0 0
vt 0 0
vt 0 0
vt 0 0
vt 0 0
vt 0 0
vt 0 0
vt 0 0
vt 0 0
vt 0 0
vt 0 0
vt 0 0
vt 0 0
vt 0 0
vt 0 0
vt 0 0
vt 0 0
vt 0 0
vt 0 0
vt 0 0
vt 0 0
vt 0 0
vt 0 0
vt 0 0
vt 0 0
vt 0 0
vt 0 0
vt 0 0
vt 0 0
vt 0 0
vt 0 0
vt 0 0
vt 0 0
vt 0 0
vt 0 0
vt 0 0
vt 0 0
vt 0 0
vt 0 0
vt 0 0
vt 0 0
vt 0 0
vt 0 0
vt 0 0
vt 0 0
vt 0 0
vt 0 0
vt 0 0
vt 0 0
vt 0 0
vt 0 0
vt 0 0
vt 0 0
vt 0 0
vt 0 0
vt 0 0
vt 0 0
vt 0 0
vt 0 0
vt 0 0
vt 0 0
vt 0 0
vt 0 0
vt 0 0
vt 0 0
vt 0 0
vt 0 0
vn 0 1 0
vn 0 1 0
vn 0 1 0
vn 0 1 0
vn 0 1 0
vn 0 1 0
vn 0 1 0
vn 0 1 0
vn 0 1 0
vn 0 1 0
vn 0 1 0
vn 0 1 0
vn 0 1 0
vn 0 1 0
vn 0 1 0
vn 0 1 0
vn 0 1 0
vn 0 1 0
vn 0 1 0
vn 0 1 0
vn 0 1 0
vn 0 1 0
vn 0 1 0
vn 0 1 0
vn 0 1 0
vn 0 1 0
vn 0 1 0
vn 0 1 0
vn 0 1 0
vn 0 1 0
vn 0 1 0
vn 0 1 0
vn 0 1 0
vn 0 1 0
vn 0 1 0
vn 0 1 0
vn 0 1 0
vn 0 1 0
vn 0 1 0
vn 0 1 0
vn 0 1 0
vn 0 1 0
vn 0 1 0
vn 0 1 0
vn 0 1 0
vn 0 1 0
vn 0 1 0
vn 0 1 0
vn 0 1 0
vn 0 1 0
vn 0 1 0
vn 0 1 0
vn 0 1 0
vn 0 1 0
vn 0 1 0
vn 0 1 0
vn 0 1 0
vn 0 1 0
vn 0 1 0
vn 0 1 0
vn 0 1 0
vn 0 1 0
vn 0 1 0
vn 0 1 0
vn 0 1 0
vn 0 1 0
vn 0 1 0
vn 0 1 0
vn 0 1 0
vn 0 1 0
vn 0 1 0
vn 0 1 0
vn 0 1 0
vn 0 1 0
vn 0 1 0
g MoText_Text_TURN_U_Cap_15_0
f 3/3/3 2/2/2 1/1/1
f 1/1/1 4/4/4 3/3/3
f 4/4/4 5/5/5 3/3/3
f 4/4/4 6/6/6 5/5/5
f 6/6/6 7/7/7 5/5/5
f 7/7/7 8/8/8 5/5/5
f 7/7/7 9/9/9 8/8/8
f 7/7/7 10/10/10 9/9/9
f 10/10/10 11/11/11 9/9/9
f 10/10/10 12/12/12 11/11/11
f 10/10/10 13/13/13 12/12/12
f 10/10/10 14/14/14 13/13/13
f 14/14/14 15/15/15 13/13/13
f 14/14/14 16/16/16 15/15/15
f 14/14/14 17/17/17 16/16/16
f 14/14/14 18/18/18 17/17/17
f 14/14/14 19/19/19 18/18/18
f 14/14/14 20/20/20 19/19/19
f 20/20/20 21/21/21 19/19/19
f 20/20/20 22/22/22 21/21/21
f 20/20/20 23/23/23 22/22/22
f 20/20/20 24/24/24 23/23/23
f 20/20/20 25/25/25 24/24/24
f 20/20/20 26/26/26 25/25/25
f 20/20/20 27/27/27 26/26/26
f 27/27/27 20/20/20 28/28/28
f 29/29/29 27/27/27 28/28/28
f 30/30/30 29/29/29 28/28/28
f 31/31/31 30/30/30 28/28/28
f 32/32/32 31/31/31 28/28/28
f 33/33/33 32/32/32 28/28/28
f 34/34/34 33/33/33 28/28/28
f 35/35/35 34/34/34 28/28/28
f 36/36/36 35/35/35 28/28/28
f 37/37/37 36/36/36 28/28/28
f 38/38/38 37/37/37 28/28/28
f 39/39/39 38/38/38 28/28/28
f 40/40/40 39/39/39 28/28/28
f 41/41/41 40/40/40 28/28/28
f 42/42/42 41/41/41 28/28/28
f 43/43/43 42/42/42 28/28/28
f 44/44/44 43/43/43 28/28/28
f 45/45/45 44/44/44 28/28/28
f 46/46/46 45/45/45 28/28/28
f 47/47/47 46/46/46 28/28/28
f 47/47/47 28/28/28 48/48/48
f 49/49/49 47/47/47 48/48/48
f 48/48/48 50/50/50 49/49/49
f 20/20/20 51/51/51 28/28/28
f 51/51/51 52/52/52 28/28/28
f 52/52/52 53/53/53 28/28/28
f 52/52/52 54/54/54 53/53/53
f 54/54/54 52/52/52 55/55/55
f 55/55/55 56/56/56 54/54/54
f 55/55/55 57/57/57 56/56/56
f 57/57/57 58/58/58 56/56/56
f 57/57/57 59/59/59 58/58/58
f 59/59/59 60/60/60 58/58/58
f 60/60/60 61/61/61 58/58/58
f 60/60/60 62/62/62 61/61/61
f 62/62/62 63/63/63 61/61/61
f 62/62/62 64/64/64 63/63/63
f 64/64/64 65/65/65 63/63/63
f 65/65/65 66/66/66 63/63/63
f 65/65/65 67/67/67 66/66/66
f 67/67/67 68/68/68 66/66/66
f 67/67/67 69/69/69 68/68/68
f 69/69/69 70/70/70 68/68/68
f 69/69/69 71/71/71 70/70/70
f 71/71/71 72/72/72 70/70/70
f 71/71/71 73/73/73 72/72/72
f 54/54/54 74/74/74 53/53/53
f 54/54/54 75/75/75 74/74/74
