g MoText_Text_TURN_R_Cap_11
v 1512.24 57.77439 -624.6226
v 1507.341 57.77439 -631.7241
v 1512.24 57.77439 -631.5601
v 1507.341 57.77439 -619.0562
v 1512.24 57.77439 -622.7241
v 1512.24 57.77439 -619.0562
v 1513.388 57.77439 -617.228
v 1506.169 57.77439 -617.228
v 1506.169 57.77439 -619.0562
v 1513.388 57.77439 -619.0562
v 1512.931 57.77439 -624.6226
v 1513.248 57.77439 -622.7241
v 1513.25 57.77439 -624.6364
v 1513.555 57.77439 -624.6779
v 1513.845 57.77439 -624.7471
v 1514.075 57.77439 -624.8259
v 1514.296 57.77439 -624.9239
v 1517.419 57.77439 -623.6382
v 1514.506 57.77439 -625.0411
v 1514.706 57.77439 -625.1776
v 1514.933 57.77439 -625.3667
v 1515.146 57.77439 -625.5835
v 1515.339 57.77439 -625.8228
v 1515.507 57.77439 -626.0792
v 1514.923 57.77439 -619.0562
v 1517.618 57.77439 -623.4579
v 1517.767 57.77439 -623.3002
v 1517.917 57.77439 -623.1167
v 1518.11 57.77439 -622.8378
v 1518.24 57.77439 -622.6208
v 1518.38 57.77439 -622.3608
v 1515.079 57.77439 -618.6592
v 1520.162 57.77439 -619.0562
v 1515.216 57.77439 -618.2183
v 1515.336 57.77439 -617.7393
v 1515.439 57.77439 -617.228
v 1521.169 57.77439 -617.228
v 1521.169 57.77439 -619.0562
v 1515.651 57.77439 -626.3528
v 1517.97 57.77439 -623.8813
v 1518.475 57.77439 -624.1636
v 1515.77 57.77439 -626.6437
v 1518.885 57.77439 -624.4473
v 1519.259 57.77439 -624.762
v 1515.865 57.77439 -626.9518
v 1519.597 57.77439 -625.1075
v 1519.898 57.77439 -625.4839
v 1515.944 57.77439 -627.3329
v 1520.128 57.77439 -625.8333
v 1520.298 57.77439 -626.1432
v 1515.985 57.77439 -627.6783
v 1520.464 57.77439 -626.517
v 1520.596 57.77439 -626.9039
v 1520.692 57.77439 -627.3038
v 1516.001 57.77439 -628.103
v 1520.76 57.77439 -627.7769
v 1520.783 57.77439 -628.2671
v 1520.763 57.77439 -628.7424
v 1515.978 57.77439 -628.5895
v 1520.719 57.77439 -629.1085
v 1520.628 57.77439 -629.5483
v 1520.498 57.77439 -629.9686
v 1515.92 57.77439 -628.9888
v 1520.328 57.77439 -630.3691
v 1520.119 57.77439 -630.7499
v 1519.87 57.77439 -631.111
v 1515.841 57.77439 -629.3115
v 1519.581 57.77439 -631.4525
v 1519.254 57.77439 -631.7742
v 1515.737 57.77439 -629.6161
v 1518.808 57.77439 -632.1343
v 1515.606 57.77439 -629.9028
v 1518.399 57.77439 -632.4081
v 1517.963 57.77439 -632.6532
v 1515.449 57.77439 -630.1713
v 1517.403 57.77439 -632.9092
v 1515.298 57.77439 -630.3813
v 1516.7 57.77439 -633.1554
v 1515.093 57.77439 -630.6167
v 1514.866 57.77439 -630.8295
v 1515.83 57.77439 -633.3676
v 1514.663 57.77439 -630.9861
v 1514.448 57.77439 -631.1238
v 1514.768 57.77439 -633.5181
v 1514.22 57.77439 -631.2427
v 1513.93 57.77439 -631.3605
v 1513.621 57.77439 -631.451
v 1513.482 57.77439 -633.5757
v 1513.295 57.77439 -631.5144
v 1513.009 57.77439 -631.5465
v 1512.65 57.77439 -631.5601
v 1506.169 57.77439 -633.5757
v 1506.169 57.77439 -631.7241
vt 0 0
vt 0 0
vt 0 0
vt 0 0
vt 0 0
vt 0 0
vt 0 0
vt 0 0
vt 0 0
vt 0 0
vt 0 0
vt 0 0
vt 0 0
vt 0 0
vt 0 0
vt 0 0
vt 0 0
vt 0 0
vt 0 0
vt 0 0
vt 0 0
vt 0 0
vt 0 0
vt 0 0
vt 0 0
vt 0 0
vt 0 0
vt 0 0
vt 0 0
vt 0 0
vt 0 0
vt 0 0
vt 0 0
vt 0 0
vt 0 0
vt 0 0
vt 0 0
vt 0 0
vt 0 0
vt 0 0
vt 0 0
vt 0 0
vt 0 0
vt 0 0
vt 0 0
vt 0 0
vt 0 0
vt 0 0
vt 0 0
vt 0 0
vt 0 0
vt 0 0
vt 0 0
vt 0 0
vt 0 0
vt 0 0
vt 0 0
vt 0 0
vt 0 0
vt 0 0
vt 0 0
vt 0 0
vt 0 0
vt 0 0
vt 0 0
vt 0 0
vt 0 0
vt 0 0
vt 0 0
vt 0 0
vt 0 0
vt 0 0
vt 0 0
vt 0 0
vt 0 0
vt 0 0
vt 0 0
vt 0 0
vt 0 0
vt 0 0
vt 0 0
vt 0 0
vt 0 0
vt 0 0
vt 0 0
vt 0 0
vt 0 0
vt 0 0
vt 0 0
vt 0 0
vt 0 0
vt 0 0
vt 0 0
vn 0 1 0
vn 0 1 0
vn 0 1 0
vn 0 1 0
vn 0 1 0
vn 0 1 0
vn 0 1 0
vn 0 1 0
vn 0 1 0
vn 0 1 0
vn 0 1 0
vn 0 1 0
vn 0 1 0
vn 0 1 0
vn 0 1 0
vn 0 1 0
vn 0 1 0
vn 0 1 0
vn 0 1 0
vn 0 1 0
vn 0 1 0
vn 0 1 0
vn 0 1 0
vn 0 1 0
vn 0 1 0
vn 0 1 0
vn 0 1 0
vn 0 1 0
vn 0 1 0
vn 0 1 0
vn 0 1 0
vn 0 1 0
vn 0 1 0
vn 0 1 0
vn 0 1 0
vn 0 1 0
vn 0 1 0
vn 0 1 0
vn 0 1 0
vn 0 1 0
vn 0 1 0
vn 0 1 0
vn 0 1 0
vn 0 1 0
vn 0 1 0
vn 0 1 0
vn 0 1 0
vn 0 1 0
vn 0 1 0
vn 0 1 0
vn 0 1 0
vn 0 1 0
vn 0 1 0
vn 0 1 0
vn 0 1 0
vn 0 1 0
vn 0 1 0
vn 0 1 0
vn 0 1 0
vn 0 1 0
vn 0 1 0
vn 0 1 0
vn 0 1 0
vn 0 1 0
vn 0 1 0
vn 0 1 0
vn 0 1 0
vn 0 1 0
vn 0 1 0
vn 0 1 0
vn 0 1 0
vn 0 1 0
vn 0 1 0
vn 0 1 0
vn 0 1 0
vn 0 1 0
vn 0 1 0
vn 0 1 0
vn 0 1 0
vn 0 1 0
vn 0 1 0
vn 0 1 0
vn 0 1 0
vn 0 1 0
vn 0 1 0
vn 0 1 0
vn 0 1 0
vn 0 1 0
vn 0 1 0
vn 0 1 0
vn 0 1 0
vn 0 1 0
vn 0 1 0
g MoText_Text_TURN_R_Cap_11_0
f 3/3/3 2/2/2 1/1/1
f 2/2/2 4/4/4 1/1/1
f 4/4/4 5/5/5 1/1/1
f 6/6/6 5/5/5 4/4/4
f 7/7/7 6/6/6 4/4/4
f 8/8/8 7/7/7 4/4/4
f 9/9/9 8/8/8 4/4/4
f 10/10/10 6/6/6 7/7/7
f 1/1/1 5/5/5 11/11/11
f 5/5/5 12/12/12 11/11/11
f 11/11/11 12/12/12 13/13/13
f 13/13/13 12/12/12 14/14/14
f 14/14/14 12/12/12 15/15/15
f 15/15/15 12/12/12 16/16/16
f 16/16/16 12/12/12 17/17/17
f 12/12/12 18/18/18 17/17/17
f 17/17/17 18/18/18 19/19/19
f 19/19/19 18/18/18 20/20/20
f 20/20/20 18/18/18 21/21/21
f 21/21/21 18/18/18 22/22/22
f 22/22/22 18/18/18 23/23/23
f 23/23/23 18/18/18 24/24/24
f 25/25/25 18/18/18 12/12/12
f 26/26/26 18/18/18 25/25/25
f 27/27/27 26/26/26 25/25/25
f 28/28/28 27/27/27 25/25/25
f 29/29/29 28/28/28 25/25/25
f 30/30/30 29/29/29 25/25/25
f 31/31/31 30/30/30 25/25/25
f 32/32/32 31/31/31 25/25/25
f 33/33/33 31/31/31 32/32/32
f 34/34/34 33/33/33 32/32/32
f 35/35/35 33/33/33 34/34/34
f 36/36/36 33/33/33 35/35/35
f 37/37/37 33/33/33 36/36/36
f 38/38/38 33/33/33 37/37/37
f 24/24/24 40/40/40 39/39/39
f 18/18/18 40/40/40 24/24/24
f 40/40/40 41/41/41 39/39/39
f 39/39/39 41/41/41 42/42/42
f 41/41/41 43/43/43 42/42/42
f 43/43/43 44/44/44 42/42/42
f 42/42/42 44/44/44 45/45/45
f 44/44/44 46/46/46 45/45/45
f 46/46/46 47/47/47 45/45/45
f 45/45/45 47/47/47 48/48/48
f 47/47/47 49/49/49 48/48/48
f 49/49/49 50/50/50 48/48/48
f 48/48/48 50/50/50 51/51/51
f 50/50/50 52/52/52 51/51/51
f 52/52/52 53/53/53 51/51/51
f 53/53/53 54/54/54 51/51/51
f 51/51/51 54/54/54 55/55/55
f 54/54/54 56/56/56 55/55/55
f 56/56/56 57/57/57 55/55/55
f 57/57/57 58/58/58 55/55/55
f 55/55/55 58/58/58 59/59/59
f 58/58/58 60/60/60 59/59/59
f 60/60/60 61/61/61 59/59/59
f 61/61/61 62/62/62 59/59/59
f 59/59/59 62/62/62 63/63/63
f 62/62/62 64/64/64 63/63/63
f 64/64/64 65/65/65 63/63/63
f 65/65/65 66/66/66 63/63/63
f 63/63/63 66/66/66 67/67/67
f 66/66/66 68/68/68 67/67/67
f 68/68/68 69/69/69 67/67/67
f 67/67/67 69/69/69 70/70/70
f 69/69/69 71/71/71 70/70/70
f 70/70/70 71/71/71 72/72/72
f 71/71/71 73/73/73 72/72/72
f 73/73/73 74/74/74 72/72/72
f 72/72/72 74/74/74 75/75/75
f 74/74/74 76/76/76 75/75/75
f 75/75/75 76/76/76 77/77/77
f 76/76/76 78/78/78 77/77/77
f 77/77/77 78/78/78 79/79/79
f 79/79/79 78/78/78 80/80/80
f 78/78/78 81/81/81 80/80/80
f 80/80/80 81/81/81 82/82/82
f 82/82/82 81/81/81 83/83/83
f 81/81/81 84/84/84 83/83/83
f 83/83/83 84/84/84 85/85/85
f 85/85/85 84/84/84 86/86/86
f 86/86/86 84/84/84 87/87/87
f 84/84/84 88/88/88 87/87/87
f 87/87/87 88/88/88 89/89/89
f 89/89/89 88/88/88 90/90/90
f 90/90/90 88/88/88 91/91/91
f 91/91/91 88/88/88 3/3/3
f 3/3/3 88/88/88 2/2/2
f 88/88/88 92/92/92 2/2/2
f 2/2/2 92/92/92 93/93/93
