g MoText_Text_END_D
v 1454.994 57.77439 -619.3843
v 1454.994 57.77439 -631.3843
v 1454.994 37.77439 -631.3843
v 1454.994 37.77439 -619.3843
v 1455.498 57.77439 -619.3843
v 1454.994 57.77439 -619.3843
v 1454.994 37.77439 -619.3843
v 1455.498 37.77439 -619.3843
v 1455.812 57.77439 -619.4005
v 1455.812 37.77439 -619.4005
v 1456.052 57.77439 -619.4367
v 1456.052 37.77439 -619.4367
v 1456.284 57.77439 -619.4936
v 1456.284 37.77439 -619.4936
v 1456.507 57.77439 -619.5712
v 1456.507 37.77439 -619.5712
v 1456.72 57.77439 -619.6696
v 1456.72 37.77439 -619.6696
v 1456.924 57.77439 -619.7886
v 1456.924 37.77439 -619.7886
v 1457.12 57.77439 -619.9283
v 1457.12 37.77439 -619.9283
v 1457.305 57.77439 -620.0887
v 1457.305 37.77439 -620.0887
v 1457.525 57.77439 -620.3184
v 1457.525 37.77439 -620.3184
v 1457.73 57.77439 -620.5804
v 1457.73 37.77439 -620.5804
v 1457.847 57.77439 -620.7531
v 1457.847 37.77439 -620.7531
v 1457.994 57.77439 -621.0015
v 1457.994 37.77439 -621.0015
v 1458.195 57.77439 -621.409
v 1458.195 37.77439 -621.409
v 1458.397 57.77439 -621.9335
v 1458.397 37.77439 -621.9335
v 1458.585 57.77439 -622.5977
v 1458.585 37.77439 -622.5977
v 1458.756 57.77439 -623.5248
v 1458.756 37.77439 -623.5248
v 1458.849 57.77439 -624.4515
v 1458.849 37.77439 -624.4515
v 1458.884 57.77439 -625.5835
v 1458.884 37.77439 -625.5835
v 1458.824 57.77439 -626.9962
v 1458.824 37.77439 -626.9962
v 1458.696 57.77439 -627.9485
v 1458.696 37.77439 -627.9485
v 1458.542 57.77439 -628.6264
v 1458.542 37.77439 -628.6264
v 1458.37 57.77439 -629.1583
v 1458.37 37.77439 -629.1583
v 1458.195 57.77439 -629.5687
v 1458.195 37.77439 -629.5687
v 1457.994 57.77439 -629.937
v 1457.994 37.77439 -629.937
v 1457.807 57.77439 -630.212
v 1457.807 37.77439 -630.212
v 1457.602 57.77439 -630.458
v 1457.602 37.77439 -630.458
v 1457.38 57.77439 -630.6751
v 1457.38 37.77439 -630.6751
v 1457.19 57.77439 -630.8279
v 1457.19 37.77439 -630.8279
v 1456.988 57.77439 -630.9623
v 1456.988 37.77439 -630.9623
v 1456.776 57.77439 -631.0781
v 1456.776 37.77439 -631.0781
v 1456.552 57.77439 -631.1753
v 1456.552 37.77439 -631.1753
v 1456.256 57.77439 -631.2708
v 1456.256 37.77439 -631.2708
v 1455.942 57.77439 -631.3374
v 1455.942 37.77439 -631.3374
v 1455.679 57.77439 -631.3698
v 1455.679 37.77439 -631.3698
v 1455.333 57.77439 -631.3843
v 1455.333 37.77439 -631.3843
v 1454.994 57.77439 -631.3843
v 1454.994 37.77439 -631.3843
v 1455.427 57.77439 -633.5757
v 1448.83 57.77439 -633.5757
v 1448.83 37.77439 -633.5757
v 1455.427 37.77439 -633.5757
v 1456.705 57.77439 -633.5212
v 1456.705 37.77439 -633.5212
v 1457.746 57.77439 -633.3843
v 1457.746 37.77439 -633.3843
v 1458.716 57.77439 -633.1639
v 1458.716 37.77439 -633.1639
v 1459.491 57.77439 -632.9087
v 1459.491 37.77439 -632.9087
v 1460.213 57.77439 -632.5922
v 1460.213 37.77439 -632.5922
v 1460.884 57.77439 -632.2144
v 1460.884 37.77439 -632.2144
v 1461.402 57.77439 -631.8528
v 1461.402 37.77439 -631.8528
v 1461.884 57.77439 -631.4487
v 1461.884 37.77439 -631.4487
v 1462.325 57.77439 -631.0073
v 1462.325 37.77439 -631.0073
v 1462.72 57.77439 -630.5335
v 1462.72 37.77439 -630.5335
v 1463.068 57.77439 -630.0275
v 1463.068 37.77439 -630.0275
v 1463.369 57.77439 -629.4894
v 1463.369 37.77439 -629.4894
v 1463.625 57.77439 -628.9189
v 1463.625 37.77439 -628.9189
v 1463.87 57.77439 -628.1919
v 1463.87 37.77439 -628.1919
v 1464.048 57.77439 -627.4185
v 1464.048 37.77439 -627.4185
v 1464.159 57.77439 -626.5986
v 1464.159 37.77439 -626.5986
v 1464.205 57.77439 -625.5835
v 1464.205 37.77439 -625.5835
v 1464.156 57.77439 -624.4983
v 1464.156 37.77439 -624.4983
v 1464.026 57.77439 -623.5605
v 1464.026 37.77439 -623.5605
v 1463.834 57.77439 -622.7549
v 1463.834 37.77439 -622.7549
v 1463.676 57.77439 -622.2691
v 1463.676 37.77439 -622.2691
v 1463.49 57.77439 -621.8042
v 1463.49 37.77439 -621.8042
v 1463.207 57.77439 -621.2326
v 1463.207 37.77439 -621.2326
v 1462.873 57.77439 -620.6865
v 1462.873 37.77439 -620.6865
v 1462.443 57.77439 -620.1095
v 1462.443 37.77439 -620.1095
v 1461.95 57.77439 -619.5639
v 1461.95 37.77439 -619.5639
v 1461.624 57.77439 -619.2516
v 1461.624 37.77439 -619.2516
v 1461.275 57.77439 -618.9507
v 1461.275 37.77439 -618.9507
v 1460.767 57.77439 -618.5688
v 1460.767 37.77439 -618.5688
v 1460.232 57.77439 -618.2381
v 1460.232 37.77439 -618.2381
v 1459.67 57.77439 -617.9584
v 1459.67 37.77439 -617.9584
v 1459.245 57.77439 -617.787
v 1459.245 37.77439 -617.787
v 1458.75 57.77439 -617.6265
v 1458.75 37.77439 -617.6265
v 1458.021 57.77439 -617.4582
v 1458.021 37.77439 -617.4582
v 1456.952 57.77439 -617.3123
v 1456.952 37.77439 -617.3123
v 1456.056 57.77439 -617.251
v 1456.056 37.77439 -617.251
v 1454.97 57.77439 -617.228
v 1454.97 37.77439 -617.228
v 1448.83 57.77439 -617.228
v 1448.83 37.77439 -617.228
v 1448.83 57.77439 -619.0562
v 1448.83 57.77439 -617.228
v 1448.83 37.77439 -617.228
v 1448.83 37.77439 -619.0562
v 1450.001 57.77439 -619.0562
v 1448.83 57.77439 -619.0562
v 1448.83 37.77439 -619.0562
v 1450.001 37.77439 -619.0562
v 1450.001 57.77439 -631.7241
v 1450.001 57.77439 -619.0562
v 1450.001 37.77439 -619.0562
v 1450.001 37.77439 -631.7241
v 1448.83 57.77439 -631.7241
v 1450.001 57.77439 -631.7241
v 1450.001 37.77439 -631.7241
v 1448.83 37.77439 -631.7241
v 1448.83 57.77439 -633.5757
v 1448.83 57.77439 -631.7241
v 1448.83 37.77439 -631.7241
v 1448.83 37.77439 -633.5757
vt 0.42303 1
vt 0 1
vt 0 0
vt 0.42303 0
vt 0.440794 1
vt 0.42303 1
vt 0.42303 0
vt 0.440794 0
vt 0.451877 1
vt 0.451877 0
vt 0.460463 1
vt 0.460463 0
vt 0.468874 1
vt 0.468874 0
vt 0.477184 1
vt 0.477184 0
vt 0.485467 1
vt 0.485467 0
vt 0.493801 1
vt 0.493801 0
vt 0.502261 1
vt 0.502261 0
vt 0.510919 1
vt 0.510919 0
vt 0.52212 1
vt 0.52212 0
vt 0.533853 1
vt 0.533853 0
vt 0.541194 1
vt 0.541194 0
vt 0.551371 1
vt 0.551371 0
vt 0.567388 1
vt 0.567388 0
vt 0.587202 1
vt 0.587202 0
vt 0.611535 1
vt 0.611535 0
vt 0.644772 1
vt 0.644772 0
vt 0.677603 1
vt 0.677603 0
vt 0.71753 1
vt 0.71753 0
vt 0.767373 1
vt 0.767373 0
vt 0.801251 1
vt 0.801251 0
vt 0.825757 1
vt 0.825757 0
vt 0.845463 1
vt 0.845463 0
vt 0.861194 1
vt 0.861194 0
vt 0.875986 1
vt 0.875986 0
vt 0.887707 1
vt 0.887707 0
vt 0.898985 1
vt 0.898985 0
vt 0.909933 1
vt 0.909933 0
vt 0.918537 1
vt 0.918537 0
vt 0.927076 1
vt 0.927076 0
vt 0.935616 1
vt 0.935616 0
vt 0.944227 1
vt 0.944227 0
vt 0.955189 1
vt 0.955189 0
vt 0.966486 1
vt 0.966486 0
vt 0.975843 1
vt 0.975843 0
vt 0.98802 1
vt 0.98802 0
vt 1 1
vt 1 0
vt 0.111656 1
vt 0 1
vt 0 0
vt 0.111656 0
vt 0.133291 1
vt 0.133291 0
vt 0.151065 1
vt 0.151065 0
vt 0.167901 1
vt 0.167901 0
vt 0.181707 1
vt 0.181707 0
vt 0.195057 1
vt 0.195057 0
vt 0.208077 1
vt 0.208077 0
vt 0.218776 1
vt 0.218776 0
vt 0.229423 1
vt 0.229423 0
vt 0.239982 1
vt 0.239982 0
vt 0.250415 1
vt 0.250415 0
vt 0.260808 1
vt 0.260808 0
vt 0.271249 1
vt 0.271249 0
vt 0.281825 1
vt 0.281825 0
vt 0.294808 1
vt 0.294808 0
vt 0.308241 1
vt 0.308241 0
vt 0.322243 1
vt 0.322243 0
vt 0.33944 1
vt 0.33944 0
vt 0.357824 1
vt 0.357824 0
vt 0.373846 1
vt 0.373846 0
vt 0.387862 1
vt 0.387862 0
vt 0.396508 1
vt 0.396508 0
vt 0.404983 1
vt 0.404983 0
vt 0.415775 1
vt 0.415775 0
vt 0.426606 1
vt 0.426606 0
vt 0.438788 1
vt 0.438788 0
vt 0.451235 1
vt 0.451235 0
vt 0.458876 1
vt 0.458876 0
vt 0.466671 1
vt 0.466671 0
vt 0.47743 1
vt 0.47743 0
vt 0.488075 1
vt 0.488075 0
vt 0.498694 1
vt 0.498694 0
vt 0.506452 1
vt 0.506452 0
vt 0.515263 1
vt 0.515263 0
vt 0.527917 1
vt 0.527917 0
vt 0.546179 1
vt 0.546179 0
vt 0.561379 1
vt 0.561379 0
vt 0.579754 1
vt 0.579754 0
vt 0.683675 1
vt 0.683675 0
vt 0.714613 1
vt 0.683675 1
vt 0.683675 0
vt 0.714613 0
vt 0.734446 1
vt 0.714613 1
vt 0.714613 0
vt 0.734446 0
vt 0.948833 1
vt 0.734446 1
vt 0.734446 0
vt 0.948833 0
vt 0.968665 1
vt 0.948833 1
vt 0.948833 0
vt 0.968665 0
vt 1 1
vt 0.968665 1
vt 0.968665 0
vt 1 0
vn 1 0 0
vn 1 0 0
vn 1 0 0
vn 1 0 0
vn -0.02573257 0 -0.9996688
vn 0 0 -1
vn 0 0 -1
vn -0.02573257 0 -0.9996688
vn -0.1002718 0 -0.9949601
vn -0.1002718 0 -0.9949601
vn -0.1937899 0 -0.9810431
vn -0.1937899 0 -0.9810431
vn -0.2841838 0 -0.9587698
vn -0.2841838 0 -0.9587698
vn -0.3743919 0 -0.9272706
vn -0.3743919 0 -0.9272706
vn -0.4615461 0 -0.8871162
vn -0.4615461 0 -0.8871162
vn -0.5433692 0 -0.8394939
vn -0.5433692 0 -0.8394939
vn -0.6183468 0 -0.7859054
vn -0.6183468 0 -0.7859054
vn -0.6888224 0 -0.7249301
vn -0.6888224 0 -0.7249301
vn -0.7558203 0 -0.6547791
vn -0.7558203 0 -0.6547791
vn -0.8087509 0 -0.5881514
vn -0.8087509 0 -0.5881514
vn -0.8453546 0 -0.5342056
vn -0.8453546 0 -0.5342056
vn -0.8794183 0 -0.4760499
vn -0.8794183 0 -0.4760499
vn -0.9159806 0 -0.4012226
vn -0.9159806 0 -0.4012226
vn -0.9486585 0 -0.3163021
vn -0.9486585 0 -0.3163021
vn -0.9738466 0 -0.227207
vn -0.9738466 0 -0.227207
vn -0.9900445 0 -0.1407551
vn -0.9900445 0 -0.1407551
vn -0.997842 0 -0.06566088
vn -0.997842 0 -0.06566088
vn -0.9999844 0 0.005602874
vn -0.9999844 0 0.005602874
vn -0.996115 0 0.08806196
vn -0.996115 0 0.08806196
vn -0.9841045 0 0.1775904
vn -0.9841045 0 0.1775904
vn -0.96427 0 0.2649213
vn -0.96427 0 0.2649213
vn -0.9364818 0 0.3507161
vn -0.9364818 0 0.3507161
vn -0.8997731 0 0.4363582
vn -0.8997731 0 0.4363582
vn -0.8534812 0 0.5211238
vn -0.8534812 0 0.5211238
vn -0.7989919 0 0.6013418
vn -0.7989919 0 0.6013418
vn -0.7350709 0 0.6779903
vn -0.7350709 0 0.6779903
vn -0.6634184 0 0.7482486
vn -0.6634184 0 0.7482486
vn -0.5909808 0 0.8066857
vn -0.5909808 0 0.8066857
vn -0.5167296 0 0.8561487
vn -0.5167296 0 0.8561487
vn -0.4384021 0 0.898779
vn -0.4384021 0 0.898779
vn -0.3531035 0 0.9355843
vn -0.3531035 0 0.9355843
vn -0.2578362 0 0.9661886
vn -0.2578362 0 0.9661886
vn -0.1651037 0 0.9862763
vn -0.1651037 0 0.9862763
vn -0.08205431 0 0.9966279
vn -0.08205431 0 0.9966279
vn -0.02093742 0 0.9997808
vn -0.02093742 0 0.9997808
vn 0 0 1
vn 0 0 1
vn 0.02129666 0 -0.9997732
vn 0 0 -1
vn 0 0 -1
vn 0.02129666 0 -0.9997732
vn 0.08658219 0 -0.9962447
vn 0.08658219 0 -0.9962447
vn 0.176139 0 -0.9843653
vn 0.176139 0 -0.9843653
vn 0.2674747 0 -0.9635649
vn 0.2674747 0 -0.9635649
vn 0.3574629 0 -0.9339273
vn 0.3574629 0 -0.9339273
vn 0.4467098 0 -0.894679
vn 0.4467098 0 -0.894679
vn 0.5321018 0 -0.8466804
vn 0.5321018 0 -0.8466804
vn 0.6077453 0 -0.7941321
vn 0.6077453 0 -0.7941321
vn 0.6756036 0 -0.7372651
vn 0.6756036 0 -0.7372651
vn 0.7387947 0 -0.6739305
vn 0.7387947 0 -0.6739305
vn 0.7970141 0 -0.6039608
vn 0.7970141 0 -0.6039608
vn 0.8489661 0 -0.5284473
vn 0.8489661 0 -0.5284473
vn 0.8934985 0 -0.4490662
vn 0.8934985 0 -0.4490662
vn 0.9312863 0 -0.3642882
vn 0.9312863 0 -0.3642882
vn 0.9622011 0 -0.2723398
vn 0.9622011 0 -0.2723398
vn 0.9837141 0 -0.1797407
vn 0.9837141 0 -0.1797407
vn 0.9959674 0 -0.08971559
vn 0.9959674 0 -0.08971559
vn 1 0 -0.0001502504
vn 1 0 -0.0001502504
vn 0.9958318 0 0.09120871
vn 0.9958318 0 0.09120871
vn 0.9827549 0 0.1849134
vn 0.9827549 0 0.1849134
vn 0.9626288 0 0.2708244
vn 0.9626288 0 0.2708244
vn 0.9401131 0 0.3408625
vn 0.9401131 0 0.3408625
vn 0.9130496 0 0.4078485
vn 0.9130496 0 0.4078485
vn 0.87572 0 0.4828193
vn 0.87572 0 0.4828193
vn 0.8283423 0 0.5602221
vn 0.8283423 0 0.5602221
vn 0.7725236 0 0.634986
vn 0.7725236 0 0.634986
vn 0.7171807 0 0.6968873
vn 0.7171807 0 0.6968873
vn 0.6727231 0 0.7398944
vn 0.6727231 0 0.7398944
vn 0.6273316 0 0.7787523
vn 0.6273316 0 0.7787523
vn 0.5638391 0 0.8258846
vn 0.5638391 0 0.8258846
vn 0.4863725 0 0.8737516
vn 0.4863725 0 0.8737516
vn 0.4101142 0 0.9120342
vn 0.4101142 0 0.9120342
vn 0.3412641 0 0.9399675
vn 0.3412641 0 0.9399675
vn 0.2669466 0 0.9637113
vn 0.2669466 0 0.9637113
vn 0.1803058 0 0.9836106
vn 0.1803058 0 0.9836106
vn 0.1017972 0 0.9948052
vn 0.1017972 0 0.9948052
vn 0.04473052 0 0.9989991
vn 0.04473052 0 0.9989991
vn 0.01056834 0 0.9999442
vn 0.01056834 0 0.9999442
vn 0 0 1
vn 0 0 1
vn -1 0 0
vn -1 0 0
vn -1 0 0
vn -1 0 0
vn 0 0 -1
vn 0 0 -1
vn 0 0 -1
vn 0 0 -1
vn -1 0 0
vn -1 0 0
vn -1 0 0
vn -1 0 0
vn 0 0 1
vn 0 0 1
vn 0 0 1
vn 0 0 1
vn -1 0 0
vn -1 0 0
vn -1 0 0
vn -1 0 0
g MoText_Text_END_D_0
f 3/3/3 2/2/2 1/1/1
f 4/4/4 3/3/3 1/1/1
f 7/7/7 6/6/6 5/5/5
f 8/8/8 7/7/7 5/5/5
f 8/8/8 5/5/5 9/9/9
f 10/10/10 8/8/8 9/9/9
f 10/10/10 9/9/9 11/11/11
f 12/12/12 10/10/10 11/11/11
f 12/12/12 11/11/11 13/13/13
f 14/14/14 12/12/12 13/13/13
f 14/14/14 13/13/13 15/15/15
f 16/16/16 14/14/14 15/15/15
f 16/16/16 15/15/15 17/17/17
f 18/18/18 16/16/16 17/17/17
f 18/18/18 17/17/17 19/19/19
f 20/20/20 18/18/18 19/19/19
f 20/20/20 19/19/19 21/21/21
f 22/22/22 20/20/20 21/21/21
f 22/22/22 21/21/21 23/23/23
f 24/24/24 22/22/22 23/23/23
f 24/24/24 23/23/23 25/25/25
f 26/26/26 24/24/24 25/25/25
f 26/26/26 25/25/25 27/27/27
f 28/28/28 26/26/26 27/27/27
f 28/28/28 27/27/27 29/29/29
f 30/30/30 28/28/28 29/29/29
f 30/30/30 29/29/29 31/31/31
f 32/32/32 30/30/30 31/31/31
f 32/32/32 31/31/31 33/33/33
f 34/34/34 32/32/32 33/33/33
f 34/34/34 33/33/33 35/35/35
f 36/36/36 34/34/34 35/35/35
f 36/36/36 35/35/35 37/37/37
f 38/38/38 36/36/36 37/37/37
f 38/38/38 37/37/37 39/39/39
f 40/40/40 38/38/38 39/39/39
f 40/40/40 39/39/39 41/41/41
f 42/42/42 40/40/40 41/41/41
f 42/42/42 41/41/41 43/43/43
f 44/44/44 42/42/42 43/43/43
f 44/44/44 43/43/43 45/45/45
f 46/46/46 44/44/44 45/45/45
f 46/46/46 45/45/45 47/47/47
f 48/48/48 46/46/46 47/47/47
f 48/48/48 47/47/47 49/49/49
f 50/50/50 48/48/48 49/49/49
f 50/50/50 49/49/49 51/51/51
f 52/52/52 50/50/50 51/51/51
f 52/52/52 51/51/51 53/53/53
f 54/54/54 52/52/52 53/53/53
f 54/54/54 53/53/53 55/55/55
f 56/56/56 54/54/54 55/55/55
f 56/56/56 55/55/55 57/57/57
f 58/58/58 56/56/56 57/57/57
f 58/58/58 57/57/57 59/59/59
f 60/60/60 58/58/58 59/59/59
f 60/60/60 59/59/59 61/61/61
f 62/62/62 60/60/60 61/61/61
f 62/62/62 61/61/61 63/63/63
f 64/64/64 62/62/62 63/63/63
f 64/64/64 63/63/63 65/65/65
f 66/66/66 64/64/64 65/65/65
f 66/66/66 65/65/65 67/67/67
f 68/68/68 66/66/66 67/67/67
f 68/68/68 67/67/67 69/69/69
f 70/70/70 68/68/68 69/69/69
f 70/70/70 69/69/69 71/71/71
f 72/72/72 70/70/70 71/71/71
f 72/72/72 71/71/71 73/73/73
f 74/74/74 72/72/72 73/73/73
f 74/74/74 73/73/73 75/75/75
f 76/76/76 74/74/74 75/75/75
f 76/76/76 75/75/75 77/77/77
f 78/78/78 76/76/76 77/77/77
f 78/78/78 77/77/77 79/79/79
f 80/80/80 78/78/78 79/79/79
f 83/83/83 82/82/82 81/81/81
f 84/84/84 83/83/83 81/81/81
f 84/84/84 81/81/81 85/85/85
f 86/86/86 84/84/84 85/85/85
f 86/86/86 85/85/85 87/87/87
f 88/88/88 86/86/86 87/87/87
f 88/88/88 87/87/87 89/89/89
f 90/90/90 88/88/88 89/89/89
f 90/90/90 89/89/89 91/91/91
f 92/92/92 90/90/90 91/91/91
f 92/92/92 91/91/91 93/93/93
f 94/94/94 92/92/92 93/93/93
f 94/94/94 93/93/93 95/95/95
f 96/96/96 94/94/94 95/95/95
f 96/96/96 95/95/95 97/97/97
f 98/98/98 96/96/96 97/97/97
f 98/98/98 97/97/97 99/99/99
f 100/100/100 98/98/98 99/99/99
f 100/100/100 99/99/99 101/101/101
f 102/102/102 100/100/100 101/101/101
f 102/102/102 101/101/101 103/103/103
f 104/104/104 102/102/102 103/103/103
f 104/104/104 103/103/103 105/105/105
f 106/106/106 104/104/104 105/105/105
f 106/106/106 105/105/105 107/107/107
f 108/108/108 106/106/106 107/107/107
f 108/108/108 107/107/107 109/109/109
f 110/110/110 108/108/108 109/109/109
f 110/110/110 109/109/109 111/111/111
f 112/112/112 110/110/110 111/111/111
f 112/112/112 111/111/111 113/113/113
f 114/114/114 112/112/112 113/113/113
f 114/114/114 113/113/113 115/115/115
f 116/116/116 114/114/114 115/115/115
f 116/116/116 115/115/115 117/117/117
f 118/118/118 116/116/116 117/117/117
f 118/118/118 117/117/117 119/119/119
f 120/120/120 118/118/118 119/119/119
f 120/120/120 119/119/119 121/121/121
f 122/122/122 120/120/120 121/121/121
f 122/122/122 121/121/121 123/123/123
f 124/124/124 122/122/122 123/123/123
f 124/124/124 123/123/123 125/125/125
f 126/126/126 124/124/124 125/125/125
f 126/126/126 125/125/125 127/127/127
f 128/128/128 126/126/126 127/127/127
f 128/128/128 127/127/127 129/129/129
f 130/130/130 128/128/128 129/129/129
f 130/130/130 129/129/129 131/131/131
f 132/132/132 130/130/130 131/131/131
f 132/132/132 131/131/131 133/133/133
f 134/134/134 132/132/132 133/133/133
f 134/134/134 133/133/133 135/135/135
f 136/136/136 134/134/134 135/135/135
f 136/136/136 135/135/135 137/137/137
f 138/138/138 136/136/136 137/137/137
f 138/138/138 137/137/137 139/139/139
f 140/140/140 138/138/138 139/139/139
f 140/140/140 139/139/139 141/141/141
f 142/142/142 140/140/140 141/141/141
f 142/142/142 141/141/141 143/143/143
f 144/144/144 142/142/142 143/143/143
f 144/144/144 143/143/143 145/145/145
f 146/146/146 144/144/144 145/145/145
f 146/146/146 145/145/145 147/147/147
f 148/148/148 146/146/146 147/147/147
f 148/148/148 147/147/147 149/149/149
f 150/150/150 148/148/148 149/149/149
f 150/150/150 149/149/149 151/151/151
f 152/152/152 150/150/150 151/151/151
f 152/152/152 151/151/151 153/153/153
f 154/154/154 152/152/152 153/153/153
f 154/154/154 153/153/153 155/155/155
f 156/156/156 154/154/154 155/155/155
f 156/156/156 155/155/155 157/157/157
f 158/158/158 156/156/156 157/157/157
f 158/158/158 157/157/157 159/159/159
f 160/160/160 158/158/158 159/159/159
f 163/163/163 162/162/162 161/161/161
f 164/164/164 163/163/163 161/161/161
f 167/167/167 166/166/166 165/165/165
f 168/168/168 167/167/167 165/165/165
f 171/171/171 170/170/170 169/169/169
f 172/172/172 171/171/171 169/169/169
f 175/175/175 174/174/174 173/173/173
f 176/176/176 175/175/175 173/173/173
f 179/179/179 178/178/178 177/177/177
f 180/180/180 179/179/179 177/177/177
