g NAX_SpiderNest_Wall
v 190.2621 82.03118 -365.8021
v 228.4525 81.77575 -330.1844
v 153.5962 81.87519 -318.0644
v 194.3574 81.52625 -284.2374
v 228.2117 81.69369 -333.0592
v 193.8937 79.66106 -367.9855
v 233.5268 79.20357 -334.2296
v 210.5207 57.7969 -366.2339
v 253.8303 57.48069 -331.7703
v 233.71 79.32915 -329.1846
v 254.316 57.46553 -327.9958
v 198.682 79.30503 -282.1557
v 218.732 57.46554 -280.4684
v 293.1548 137.9425 -258.577
v 295.1381 145.9792 -225.5209
v 266.7133 133.8278 -263.4641
v 307.6062 145.9792 -242.1738
v 293.1548 137.9425 -258.577
v 316.1211 126.1768 -241.1544
v 307.6062 145.9792 -242.1738
v 290.8997 121.4632 -268.2172
v 312.2682 57.79691 -262.2264
v 331.4557 57.79691 -254.639
v 370.9925 126.43 -211.1797
v 391.0422 57.79691 -231.0768
v 423.7272 126.3728 -171.074
v 445.0611 57.58672 -189.2783
v 454.1273 126.3399 -147.9542
v 476.2015 57.46555 -165.1826
v 316.1211 126.1768 -241.1544
v 295.1381 145.9792 -225.5209
v 307.6062 145.9792 -242.1738
v 304.0614 126.1297 -224.1495
v 293.1548 137.9425 -258.577
v 266.7133 133.8278 -263.4641
v 290.8997 121.4632 -268.2172
v 359.3411 126.3357 -193.8227
v 304.0614 126.1297 -224.1495
v 316.1211 126.1768 -241.1544
v 370.9925 126.43 -211.1797
v 423.7272 126.3728 -171.074
v 413.7567 126.2072 -151.4512
v 350.749 126.2662 -181.0233
v 296.1421 126.2662 -211.2364
v 405.5478 126.0324 -138.9813
v 445.1258 126.1331 -127.0253
v 435.8295 125.8976 -112.9981
v 454.1273 126.3399 -147.9542
v 454.1273 126.3399 -147.9542
v 476.2015 57.46555 -165.1826
v 462.766 57.70111 -142.304
v 445.1258 126.1331 -127.0253
v 450.6747 57.46555 -125.5889
v 435.8295 125.8976 -112.9981
v 246.5899 181.2224 -206.6241
v 260.0247 165.2288 -214.1991
v 259.4434 165.2377 -211.1561
v 264.3874 181.2224 -193.299
v 235.2611 179.7962 -168.1918
v 244.3156 185.8901 -209.5539
v 260.0247 165.2288 -214.1991
v 230.0727 183.8502 -164.458
v 191.5668 185.0025 -195.557
v 277.2409 165.2377 -197.831
v 271.5804 165.3242 -168.1957
v 248.286 179.7962 -158.44
v 244.3156 185.8901 -209.5539
v 204.271 184.8874 -237.5864
v 218.0213 165.2725 -239.0128
v 260.0247 165.2288 -214.1991
v 244.3156 185.8901 -209.5539
v 204.271 184.8874 -237.5864
v 218.0213 165.2725 -239.0128
v 244.3156 185.8901 -209.5539
v 285.9083 165.5832 -217.246
v 257.3368 165.6776 -231.3441
v 259.8135 165.6895 -238.434
v 285.9083 165.5832 -217.246
v 284.0462 165.2434 -208.9845
v 245.5414 165.6207 -197.5785
v 275.3892 164.6323 -173.7985
v 301.1454 165.5212 -204.874
v 285.9083 165.5832 -217.246
v 299.7267 165.3073 -198.0426
v 289.3189 173.4826 -192.6877
v 299.7267 165.3073 -198.0426
v 286.6332 158.3775 -154.1296
v 276.3096 171.2241 -147.2995
v 264.1085 171.8013 -157.2712
v 276.2888 173.5447 -203.4073
v 299.7267 165.3073 -198.0426
v 297.7955 145.2733 -162.3472
v 310.1473 149.4279 -202.9569
v 301.1454 165.5212 -204.874
v 311.8272 149.5467 -209.7002
v 259.8135 165.6895 -238.434
v 269.239 149.6821 -243.3033
v 285.9083 165.5832 -217.246
v 269.239 149.6821 -243.3033
v 296.127 149.5966 -222.0881
v 285.9083 165.5832 -217.246
v 285.8009 83.73218 -251.1225
v 313.9207 83.67892 -229.8651
v 311.8272 149.5467 -209.7002
v 330.3403 83.64783 -217.4526
v 341.4875 149.5467 -187.4935
v 360.0006 83.6478 -195.2459
v 296.127 149.5966 -222.0881
v 301.1454 165.5212 -204.874
v 285.9083 165.5832 -217.246
v 311.8272 149.5467 -209.7002
v 310.1473 149.4279 -202.9569
v 311.8272 149.5467 -209.7002
v 341.4875 149.5467 -187.4935
v 297.7955 145.2733 -162.3472
v 327.4557 145.2733 -140.1405
v 341.4875 149.5467 -187.4935
v 360.0006 83.6478 -195.2459
v 346.7149 83.83194 -153.1596
v 327.4557 145.2733 -140.1405
v 327.4557 145.2733 -140.1405
v 317.0547 83.83194 -175.3663
v 297.7955 145.2733 -162.3472
v 346.7149 83.83194 -153.1596
v 246.1745 185.027 -140.5214
v 222.4644 220.7771 -123.4587
v 230.792 222.2431 -168.4196
v 258.0626 184.8429 -180.7411
v 230.792 222.2431 -168.4196
v 207.1148 183.4407 -217.0362
v 183.4359 222.7786 -206.4901
v 207.1148 183.4407 -217.0362
v 169.1637 223.0006 -165.6345
v 230.792 222.2431 -168.4196
v 222.4644 220.7771 -123.4587
v 230.792 222.2431 -168.4196
v 183.4359 222.7786 -206.4901
v 185.6086 224.0899 -214.4702
v 176.0249 224.5165 -229.7384
v 187.6149 220.5882 -221.9889
v 185.6086 224.0899 -214.4702
v 157.3464 223.7747 -189.5108
v 176.0249 224.5165 -229.7384
v 171.1057 223.1955 -179.7797
v 94.27528 226.4298 -234.1168
v 111.0364 226.4273 -286.063
v 194.7925 197.1031 -215.6365
v 185.6086 224.0899 -214.4702
v 187.6149 220.5882 -221.9889
v 184.796 198.781 -188.5803
v 171.1057 223.1955 -179.7797
v 187.6149 220.5882 -221.9889
v 197.3884 196.6674 -222.6623
v 197.3884 196.6674 -222.6623
v 187.6149 220.5882 -221.9889
v 184.5609 197.0665 -232.6389
v 176.0249 224.5165 -229.7384
v 117.8388 190.167 -284.5325
v 111.0364 226.4273 -286.063
v 99.13425 198.3689 -241.0361
v 101.3247 208.4527 -291.7303
v 114.7035 197.0724 -291.7946
v 77.78638 227.8519 -289.4088
v 60.63364 227.7292 -237.1754
v 80.28626 226.3485 -291.6294
v 10.65718 228.9081 -290.6099
v 32.52372 228.7964 -339.9315
v 61.02869 197.3722 -340.8712
v 54.56779 208.9019 -339.804
v 34.80265 227.0324 -344.0813
v 115.2734 188.7503 -302.1734
v 80.82024 198.0018 -271.5947
v 99.53635 189.1907 -318.6411
v 115.2734 188.7503 -302.1734
v 99.89417 196.2301 -257.4588
v 98.9913 167.1358 -319.3528
v 115.2734 188.7503 -302.1734
v 99.53635 189.1907 -318.6411
v 123.7915 167.2388 -298.7108
v 98.62334 152.2472 -319.8333
v 126.4786 153.9119 -298.0262
v 134.2827 168.0417 -289.1018
v 127.3495 57.41164 -303.6312
v 143.9695 57.15146 -294.289
v 136.8999 154.3301 -288.665
v 155.4544 57.12538 -285.5688
v 99.89417 196.2301 -257.4588
v 115.2734 188.7503 -302.1734
v 110.6857 168.4671 -256.6549
v 123.7915 167.2388 -298.7108
v 115.2734 188.7503 -302.1734
v 134.2827 168.0417 -289.1018
v 110.6857 168.4671 -256.6549
v 123.7915 167.2388 -298.7108
v 122.4765 166.8929 -249.1595
v 136.8999 154.3301 -288.665
v 122.4765 166.8929 -249.1595
v 134.2827 168.0417 -289.1018
v 125.1134 153.342 -248.4272
v 155.4544 57.12538 -285.5688
v 143.8076 57.27682 -243.2356
v 150.2979 170.6711 -228.751
v 161.9608 170.06 -270.8421
v 150.3069 167.6887 -229.7614
v 161.9538 167.5372 -272.0946
v 137.149 192.6377 -231.1037
v 161.9608 170.06 -270.8421
v 146.9441 191.4747 -271.4988
v 145.9191 192.5893 -270.3872
v 118.7541 186.9473 -297.1871
v 131.3333 170.0818 -294.3739
v 161.9608 170.06 -270.8421
v 113.4831 191.8066 -293.2954
v 103.791 198.9179 -254.3965
v 134.4503 197.1461 -231.5865
v 133.1795 167.6066 -293.9611
v 161.9538 167.5372 -272.0946
v 185.8887 230.5477 -130.3883
v 196.7248 232.614 -184.7569
v 198.7653 222.2396 -139.7938
v 210.5698 222.8454 -186.3578
v 181.8963 232.3244 -131.7541
v 193.1493 233.8808 -186.13
v 160.5882 232.3071 -153.1268
v 175.3118 233.1918 -202.95
v 140.8867 232.642 -169.2668
v 158.6174 232.547 -218.6921
v 139.6135 232.6637 -170.5236
v 157.5386 232.5053 -219.7093
v 164.7905 224.1643 -222.965
v 163.4269 224.2036 -224.0553
v 185.8912 223.5564 -206.0919
v 207.2651 222.9406 -189.0003
v 157.5386 232.5053 -219.7093
v 163.4269 224.2036 -224.0553
v 158.6174 232.547 -218.6921
v 157.5386 232.5053 -219.7093
v 165.0755 224.3939 -228.3514
v 163.4269 224.2036 -224.0553
v 165.0755 224.3939 -228.3514
v 150.9286 249.6318 -226.4255
v 139.6135 232.6637 -170.5236
v 137.6154 259.4465 -207.9641
v 150.9286 249.6318 -226.4255
v 137.6154 259.4465 -207.9641
v 133.023 259.5356 -238.754
v 133.023 259.5356 -238.754
v 150.6262 225.0954 -242.3543
v 101.127 259.7649 -272.3814
v 118.6487 226.6478 -273.344
v 101.6024 259.7888 -282.9547
v 120.1987 226.8312 -282.9276
v 94.19704 228.1627 -308.4402
v 75.76186 259.9789 -310.3824
v 165.0755 224.3939 -228.3514
v 150.9286 249.6318 -226.4255
v 115.013 259.4465 -159.0584
v 135.249 232.3503 -163.9466
v 141.1909 224.3939 -165.3819
v 143.8989 224.3939 -172.5211
v 111.389 259.6974 -192.1744
v 133.023 259.5356 -238.754
v 137.6154 259.4465 -207.9641
v 124.11 259.4465 -178.7419
v 102.4057 259.7693 -172.8284
v 115.013 259.4465 -159.0584
v 82.67676 260.2638 -222.4924
v 101.127 259.7649 -272.3814
v 55.36242 260.8231 -251.33
v 73.04344 259.9789 -302.506
v 101.6024 259.7888 -282.9547
v 75.76186 259.9789 -310.3824
v 48.55969 261.1479 -231.6402
v 75.27055 260.464 -202.466
v 139.6135 232.6637 -170.5236
v 124.11 259.4465 -178.7419
v 137.6154 259.4465 -207.9641
v 115.013 259.4465 -159.0584
v 438.8826 75.53164 -230.9892
v 439.4604 72.73425 -232.1807
v 437.9273 72.93153 -230.0323
v 437.8935 75.76667 -229.9222
v 436.0743 74.11573 -228.9157
v 436.8785 76.37859 -229.389
v 438.8826 75.53164 -230.9892
v 436.9319 78.64136 -230.8317
v 439.6308 76.02628 -232.8875
v 439.4604 72.73425 -232.1807
v 440.2238 73.68742 -235.1308
v 437.8935 75.76667 -229.9222
v 436.8785 76.37859 -229.389
v 436.0244 77.18929 -229.1933
v 435.3587 78.13575 -229.3118
vt 0.415454 0.511878
vt 0.482996 0.574713
vt 0.350796 0.59613
vt 0.422924 0.655769
vt 0.482608 0.569622
vt 0.422989 0.507626
vt 0.493095 0.567075
vt 0.462294 0.507058
vt 0.538104 0.567218
vt 0.493363 0.575996
vt 0.538959 0.57381
vt 0.431601 0.658927
vt 0.47679 0.656845
vt 0.574266 0.715566
vt 0.574489 0.777704
vt 0.528238 0.705659
vt 0.597125 0.747471
vt 0.574266 0.715566
vt 0.620501 0.743839
vt 0.597125 0.747471
vt 0.577067 0.693942
vt 0.640083 0.688797
vt 0.673611 0.702055
vt 0.719166 0.797861
vt 0.77773 0.743226
vt 0.814104 0.87003
vt 0.872178 0.816201
vt 0.86883 0.911632
vt 0.926618 0.858263
vt 0.620501 0.743839
vt 0.574489 0.777704
vt 0.597125 0.747471
vt 0.598816 0.77443
vt 0.574266 0.715566
vt 0.528238 0.705659
vt 0.577067 0.693942
vt 0.698229 0.829073
vt 0.598816 0.77443
vt 0.620501 0.743839
vt 0.719166 0.797861
vt 0.814104 0.87003
vt 0.796211 0.905292
vt 0.68279 0.852088
vt 0.584507 0.79771
vt 0.781493 0.927673
vt 0.85269 0.949226
vt 0.83603 0.974383
vt 0.86883 0.911632
vt 0.86883 0.911632
vt 0.926618 0.858263
vt 0.903082 0.898312
vt 0.85269 0.949226
vt 0.88202 0.927437
vt 0.83603 0.974383
vt 0.469911 0.823004
vt 0.502035 0.804102
vt 0.500967 0.809677
vt 0.502734 0.847578
vt 0.449707 0.893385
vt 0.463491 0.819071
vt 0.502035 0.804102
vt 0.438167 0.901694
vt 0.366468 0.844649
vt 0.533556 0.834076
vt 0.523152 0.888371
vt 0.473712 0.911359
vt 0.463491 0.819071
vt 0.389996 0.76697
vt 0.425102 0.758678
vt 0.502035 0.804102
vt 0.463491 0.819071
vt 0.389996 0.76697
vt 0.425102 0.758678
vt 0.463491 0.819071
vt 0.549276 0.798631
vt 0.496908 0.772839
vt 0.501438 0.759858
vt 0.549276 0.798631
vt 0.546015 0.813655
vt 0.475332 0.834661
vt 0.530434 0.877877
vt 0.577208 0.821269
vt 0.549276 0.798631
vt 0.5747 0.833711
vt 0.552095 0.846173
vt 0.5747 0.833711
vt 0.553725 0.911669
vt 0.529193 0.92877
vt 0.506528 0.910667
vt 0.52812 0.826492
vt 0.5747 0.833711
vt 0.579609 0.892155
vt 0.600329 0.81974
vt 0.577208 0.821269
vt 0.603335 0.807515
vt 0.501438 0.759858
vt 0.525833 0.74645
vt 0.549276 0.798631
vt 0.525833 0.74645
vt 0.574765 0.785004
vt 0.549276 0.798631
vt 0.583446 0.71479
vt 0.63315 0.752334
vt 0.603335 0.807515
vt 0.662172 0.774256
vt 0.657268 0.847895
vt 0.714576 0.813491
vt 0.574765 0.785004
vt 0.577208 0.821269
vt 0.549276 0.798631
vt 0.603335 0.807515
vt 0.600329 0.81974
vt 0.603335 0.807515
vt 0.657268 0.847895
vt 0.579609 0.892155
vt 0.63344 0.932459
vt 0.657268 0.847895
vt 0.714576 0.813491
vt 0.691037 0.88791
vt 0.63344 0.932459
vt 0.63344 0.932459
vt 0.638629 0.848672
vt 0.579609 0.892155
vt 0.691037 0.88791
vt 0.467338 0.94633
vt 0.405532 0.991915
vt 0.420427 0.908025
vt 0.489386 0.871965
vt 0.420427 0.908025
vt 0.395984 0.804485
vt 0.331158 0.836672
vt 0.395984 0.804485
vt 0.304212 0.913534
vt 0.420427 0.908025
vt 0.405532 0.991915
vt 0.420427 0.908025
vt 0.331158 0.836672
vt 0.334527 0.822097
vt 0.316269 0.793518
vt 0.3402 0.806854
vt 0.334527 0.822097
vt 0.281561 0.868924
vt 0.316269 0.793518
vt 0.307754 0.887017
vt 0.161317 0.785869
vt 0.192871 0.68808
vt 0.366118 0.81133
vt 0.334527 0.822097
vt 0.3402 0.806854
vt 0.346656 0.862153
vt 0.307754 0.887017
vt 0.3402 0.806854
vt 0.371168 0.798146
vt 0.371168 0.798146
vt 0.3402 0.806854
vt 0.347133 0.779738
vt 0.316269 0.793518
vt 0.227248 0.681586
vt 0.192871 0.68808
vt 0.187667 0.764521
vt 0.185625 0.672836
vt 0.217371 0.669859
vt 0.129367 0.68215
vt 0.097136 0.780506
vt 0.135035 0.677581
vt 0.002177 0.68016
vt 0.043463 0.587183
vt 0.11748 0.578763
vt 0.098034 0.583173
vt 0.048953 0.57899
vt 0.22333 0.648582
vt 0.153857 0.707628
vt 0.193944 0.618207
vt 0.22333 0.648582
vt 0.190372 0.733402
vt 0.206046 0.611976
vt 0.22333 0.648582
vt 0.193944 0.618207
vt 0.251438 0.64983
vt 0.214083 0.607747
vt 0.263864 0.647931
vt 0.270216 0.667638
vt 0.294565 0.62892
vt 0.323732 0.645184
vt 0.28262 0.665087
vt 0.343808 0.660411
vt 0.190372 0.733402
vt 0.22333 0.648582
vt 0.226707 0.727242
vt 0.251438 0.64983
vt 0.22333 0.648582
vt 0.270216 0.667638
vt 0.226707 0.727242
vt 0.251438 0.64983
vt 0.249225 0.740548
vt 0.28262 0.665087
vt 0.249225 0.740548
vt 0.270216 0.667638
vt 0.261696 0.738138
vt 0.343808 0.660411
vt 0.345983 0.721847
vt 0.298138 0.779061
vt 0.319875 0.701641
vt 0.299788 0.776329
vt 0.321219 0.698688
vt 0.261597 0.78126
vt 0.319875 0.701641
vt 0.280409 0.706068
vt 0.277882 0.708424
vt 0.230822 0.65737
vt 0.26366 0.658465
vt 0.319875 0.701641
vt 0.218217 0.665765
vt 0.195992 0.739844
vt 0.254008 0.781716
vt 0.268438 0.658624
vt 0.321219 0.698688
vt 0.331525 0.982769
vt 0.350848 0.880952
vt 0.360255 0.961809
vt 0.382117 0.87453
vt 0.323014 0.980898
vt 0.34341 0.878803
vt 0.282803 0.940549
vt 0.310101 0.8468
vt 0.245418 0.910205
vt 0.278946 0.816866
vt 0.243002 0.90784
vt 0.276933 0.814933
vt 0.295338 0.806147
vt 0.292751 0.804109
vt 0.335349 0.837677
vt 0.375857 0.869597
vt 0.276933 0.814933
vt 0.292751 0.804109
vt 0.278946 0.816866
vt 0.276933 0.814933
vt 0.295745 0.796089
vt 0.292751 0.804109
vt 0.295745 0.796089
vt 0.254452 0.807688
vt 0.243002 0.90784
vt 0.2232 0.846128
vt 0.254452 0.807688
vt 0.2232 0.846128
vt 0.214368 0.787303
vt 0.214368 0.787303
vt 0.268166 0.769963
vt 0.153252 0.723089
vt 0.207068 0.712083
vt 0.154146 0.702883
vt 0.209875 0.694089
vt 0.160085 0.646376
vt 0.10462 0.650495
vt 0.295745 0.796089
vt 0.254452 0.807688
vt 0.179998 0.939608
vt 0.234948 0.920141
vt 0.250824 0.914517
vt 0.255917 0.90109
vt 0.172913 0.876398
vt 0.214368 0.787303
vt 0.2232 0.846128
vt 0.197386 0.901984
vt 0.155694 0.913407
vt 0.179998 0.939608
vt 0.117654 0.818625
vt 0.153252 0.723089
vt 0.065044 0.763652
vt 0.099423 0.665554
vt 0.154146 0.702883
vt 0.10462 0.650495
vt 0.05181 0.801415
vt 0.103359 0.856988
vt 0.243002 0.90784
vt 0.197386 0.901984
vt 0.2232 0.846128
vt 0.179998 0.939608
vt 0.856279 0.509791
vt 0.858096 0.50694
vt 0.855343 0.510771
vt 0.85447 0.511733
vt 0.851743 0.513056
vt 0.852506 0.512838
vt 0.856279 0.509791
vt 0.851947 0.51091
vt 0.857455 0.506581
vt 0.858096 0.50694
vt 0.859167 0.502006
vt 0.85447 0.511733
vt 0.852506 0.512838
vt 0.850768 0.513403
vt 0.849321 0.513452
vn 0.1280405 0.9819385 -0.1392933
vn 0.2327998 0.9706506 0.06034651
vn 0.002315141 0.9999788 0.006094327
vn 0.1756289 0.97507 0.1356206
vn 0.2846318 0.9339721 -0.2160573
vn 0.4389687 0.7434731 -0.5045336
vn 0.5518883 0.7593533 -0.3446764
vn 0.578868 0.4214919 -0.6980376
vn 0.7127188 0.6367259 -0.2942992
vn 0.602403 0.7893003 0.1188099
vn 0.6881949 0.6630366 0.2945679
vn 0.5037835 0.7771863 0.3770727
vn 0.6308227 0.6156268 0.472299
vn -0.1116776 0.8729637 -0.474829
vn -0.1956268 0.9555495 -0.2205795
vn -0.01389509 0.8006656 -0.5989504
vn -0.2814417 0.9361567 -0.2107159
vn 0.4956723 0.366927 -0.7871935
vn 0.5793936 0.2542098 -0.7743903
vn 0.6630489 0.2487626 -0.7060336
vn 0.5142032 0.3425274 -0.7863015
vn 0.5424028 0.2193485 -0.8109781
vn 0.3876752 0.2939858 -0.8736592
vn 0.4582395 0.335665 -0.82301
vn 0.4951159 0.3697836 -0.7862063
vn 0.5642357 0.3727887 -0.7366592
vn 0.5673724 0.3691823 -0.7360659
vn 0.5664298 0.3683927 -0.7371866
vn 0.5702414 0.3666457 -0.7351161
vn 0.7524591 0.3639225 0.5489679
vn 0.7524591 0.3639225 0.5489679
vn 0.7495147 0.3511747 0.5611632
vn 0.7551628 0.376554 0.536597
vn 0.2489243 0.7161045 -0.6520975
vn -0.01389509 0.8006656 -0.5989504
vn 0.5142032 0.3425274 -0.7863015
vn -0.003413732 0.9999889 0.003254715
vn -0.001437055 0.9999973 -0.001886451
vn -0.004661206 0.9999888 0.0008995412
vn -0.003781112 0.9999887 0.002891604
vn -0.002959998 0.9999787 0.005821805
vn -0.003675476 0.9999617 0.007939867
vn -0.001518508 0.9999957 0.002509969
vn 0.00436632 0.9999593 -0.007891653
vn -0.005439617 0.9999207 0.01135567
vn -0.005332612 0.9999323 0.01034775
vn -0.006347964 0.9999007 0.01258426
vn -0.003919602 0.9999655 0.007321851
vn 0.8824071 0.1478257 0.4466599
vn 0.8534076 0.1485365 0.4996321
vn 0.860184 0.1247594 0.4944882
vn 0.8528876 0.101404 0.5121523
vn 0.818994 0.07807195 0.568466
vn 0.8303698 0.07863916 0.5516355
vn 0.6572804 0.7535981 0.00850871
vn 0.7702683 0.6245085 -0.1291353
vn 0.6445637 0.6378247 -0.4215654
vn 0.4522022 0.8783785 -0.1548039
vn 0.4067648 0.8995999 0.1589417
vn 0.5084571 0.8423826 0.1785021
vn 0.7949643 0.5718404 0.2025597
vn 0.3808225 0.9104421 0.1614608
vn -0.01217559 0.9997724 0.01751927
vn 0.7082641 0.6485676 -0.278787
vn 0.6987205 0.6777473 0.2290159
vn 0.304584 0.9355216 0.1789633
vn 0.5364918 0.8438411 0.01043392
vn -0.01908105 0.9997818 -0.008504074
vn 0.478251 0.4594661 -0.7484431
vn 0.7026015 0.625316 -0.3396041
vn 0.3586112 0.7346579 -0.5759129
vn 0.5146745 0.415338 -0.7500696
vn 0.478251 0.4594661 -0.7484431
vn 0.478251 0.4594661 -0.7484431
vn 0.2992536 0.8815256 -0.3651849
vn -0.0005637157 0.9998834 0.0152609
vn 0.3109847 0.8717383 -0.3786305
vn 0.2327614 0.9303719 -0.2832494
vn 0.1123267 0.9843931 -0.1354732
vn 0.01379961 0.9998135 0.01351067
vn 0.01611256 0.9996427 0.02132446
vn 0.2892967 0.8873026 -0.3591677
vn 0.1367348 0.977654 -0.1596755
vn 0.3808767 0.9222415 -0.06635923
vn 0.4315602 0.8992488 -0.07146622
vn 0.6644832 0.737525 0.1204943
vn 0.7730318 0.5605142 0.2970617
vn 0.4685812 0.8654315 0.1773696
vn -0.008121649 0.9990993 0.04164921
vn 0.2184737 0.940536 -0.2601177
vn 0.7666239 0.6283087 0.1323485
vn 0.8243062 0.4734994 0.3103504
vn 0.8425673 0.4835213 0.2372499
vn 0.7708951 0.5843951 -0.2533833
vn 0.7690258 0.5891528 -0.2479886
vn 0.3109847 0.8717383 -0.3786305
vn 0.5612954 0.4368448 -0.7029324
vn 0.4403288 0.7142392 -0.5440338
vn 0.5612954 0.4368448 -0.7029324
vn 0.567748 0.3987607 -0.720175
vn 0.3616816 0.8205569 -0.4425753
vn 0.5930107 0.2451279 -0.7669749
vn 0.5893056 0.2517005 -0.7677017
vn 0.5763839 0.3297704 -0.7476851
vn 0.5809492 0.2541709 -0.7732368
vn 0.5796893 0.2539371 -0.7742586
vn 0.5796894 0.253937 -0.7742584
vn 0.567748 0.3987607 -0.720175
vn 0.5432631 0.822341 -0.1691758
vn 0.2992536 0.8815256 -0.3651849
vn 0.6226713 0.5605983 -0.5459029
vn -0.02905737 0.9982645 0.05122283
vn 0.2908443 0.8836166 -0.3669215
vn -0.03773633 0.9975636 0.05867611
vn -0.05101119 0.9954456 0.08053581
vn -0.0550651 0.9957704 0.07354731
vn 0.9283931 0.2274029 0.2938949
vn 0.9290869 0.2266244 0.2922992
vn 0.9283931 0.2274029 0.2938949
vn 0.9276958 0.2281806 0.2954896
vn -0.5643581 -0.336624 0.75378
vn -0.5643581 -0.336624 0.75378
vn -0.5643576 -0.3366242 0.7537802
vn -0.5643584 -0.3366238 0.7537798
vn 0.8393331 0.5024621 0.2074895
vn 0.5022948 0.8561953 0.1209517
vn 0.6448525 0.7336325 -0.214356
vn 0.7404218 0.6229994 -0.2522842
vn 0.5453665 0.8184881 -0.180701
vn 0.5065544 0.5365382 -0.6749291
vn 0.3194593 0.8657761 -0.3851982
vn 0.5065544 0.5365382 -0.6749291
vn 0.0130575 0.9997702 0.01700049
vn 0.5190716 0.8529525 -0.05510516
vn 0.5022948 0.8561953 0.1209517
vn 0.4442848 0.858288 -0.2568125
vn 0.3194593 0.8657761 -0.3851982
vn 0.6395337 0.760094 0.1151243
vn 0.4171111 0.7932517 -0.4435877
vn 0.8168287 0.478728 -0.3218855
vn 0.1702771 0.9826499 -0.07351795
vn 0.01632115 0.9994699 0.0281692
vn 0.1336662 0.9895471 -0.05412674
vn 0.01840439 0.9992707 0.03345669
vn 0.02243212 0.9995868 0.01797616
vn 0.0230028 0.9997081 0.007373983
vn 0.9148628 0.322621 0.2427793
vn 0.860662 0.4892422 0.1410782
vn 0.8168287 0.478728 -0.3218855
vn 0.8826396 0.3219776 0.3424582
vn 0.8610772 0.3498282 0.3690071
vn 0.833645 0.5499287 0.05113108
vn 0.8845945 0.3528379 0.3049558
vn 0.5970669 0.2652588 -0.757066
vn 0.73751 0.4791831 -0.4758807
vn 0.5897955 0.263917 -0.7632097
vn 0.614641 0.3918285 -0.684607
vn 0.6174802 0.1767096 -0.7664801
vn 0.6537504 0.090937 -0.7512262
vn 0.6272 0.7565981 0.1848771
vn 0.6627291 0.7179665 -0.2128715
vn 0.6321015 0.7443188 -0.2154932
vn 0.3938 0.917267 0.05952272
vn 0.3298088 0.9375578 0.1105065
vn 0.5140293 0.8075764 -0.2891269
vn 0.01562297 0.9998596 0.006071539
vn 0.2091397 0.9632874 -0.1683392
vn 0.5944648 0.5279685 -0.6065153
vn 0.6139089 0.5471258 -0.5690073
vn 0.4795748 0.7780758 -0.4057168
vn 0.1621923 0.9801742 -0.113808
vn 0.1621923 0.9801742 -0.113808
vn 0.1550314 0.9803561 -0.1219313
vn 0.4562831 0.889732 0.01351445
vn 0.1693342 0.9798773 -0.1056714
vn 0.667677 0.04740822 -0.7429399
vn 0.6809911 0.06663124 -0.7292541
vn 0.7230157 0.004424154 -0.6908174
vn 0.63916 0.07935449 -0.7649689
vn 0.6219118 0.04772827 -0.7816315
vn 0.6201382 0.08024631 -0.7803775
vn 0.6653241 0.09981883 -0.7398514
vn 0.5533493 0.05327533 -0.8312439
vn 0.5876646 0.07896523 -0.805242
vn 0.6432142 0.09465759 -0.7598128
vn 0.6024109 0.08972467 -0.7931271
vn 0.9000425 0.3570834 0.2498299
vn 0.8910552 0.3743805 0.2566317
vn 0.8910552 0.3743805 0.2566317
vn 0.8816881 0.3915181 0.2633242
vn 0.7395314 0.6551625 0.1544522
vn 0.02896553 0.9995487 0.007959926
vn 0.02896553 0.9995487 0.007959926
vn -0.03866248 0.9984023 -0.04120731
vn 0.09639101 0.993706 0.05707151
vn 0.9403006 0.1916771 0.2812378
vn 0.9398482 0.1932222 0.2816923
vn 0.9403046 0.1885096 0.2833576
vn 0.942004 0.1948387 0.2732512
vn 0.9433001 0.1932884 0.2698603
vn 0.9452743 0.1979652 0.2593576
vn 0.9394775 0.2265341 0.2570296
vn 0.9413208 0.2299405 0.2470678
vn 0.9577994 -0.1105454 0.2653303
vn 0.9554322 -0.133425 0.263338
vn 0.8179635 0.5425352 0.1912886
vn 0.9152399 0.3331923 -0.2265363
vn 0.7097096 0.6021584 -0.3656743
vn 0.4702961 0.8667351 -0.1661078
vn 0.4427202 0.6643005 -0.6022488
vn 0.5840821 0.3374839 -0.7382091
vn 0.6932276 0.4457592 -0.5663339
vn 0.2226163 0.9113127 -0.3463397
vn 0.1028749 0.9874565 -0.1197763
vn 0.5326815 0.8443058 0.05829317
vn 0.5721037 0.3365704 -0.7479423
vn 0.5636106 0.3660657 -0.7404992
vn 0.497144 0.857618 0.1316789
vn 0.4906009 0.8660711 -0.09608164
vn 0.5966187 0.7874883 0.1546227
vn 0.5493035 0.8113163 -0.2000788
vn 0.2202867 0.9725175 0.07538885
vn 0.2916152 0.9190093 -0.265297
vn -0.02191167 0.999638 0.01561769
vn 0.2510919 0.9205688 -0.2991753
vn -0.00385402 0.9999875 0.003213318
vn 0.2666193 0.9102166 -0.316891
vn 0.4291953 0.881417 0.1972188
vn 0.2640726 0.9107991 -0.3173494
vn 0.4840892 0.667066 -0.5662867
vn 0.4950486 0.6534677 -0.5726315
vn 0.462851 0.7020317 -0.5412213
vn 0.449756 0.7202913 -0.5281099
vn 0.7333597 0.6652337 0.1401704
vn 0.6934768 0.6530876 -0.3042475
vn 0.2666193 0.9102166 -0.316891
vn 0.8313786 0.5319939 0.1605992
vn 0.8403114 0.4323009 0.3270973
vn 0.7762263 0.6173958 -0.1276527
vn 0.8768042 0.4808348 0.003515882
vn 0.7953961 0.5851651 -0.1578828
vn 0.7846373 0.4790499 0.3935168
vn 0.7593765 0.6047762 0.2399852
vn 0.7968099 0.6040866 -0.01316892
vn 0.5542802 0.8136886 0.1751697
vn 0.362508 0.8958028 -0.2571485
vn 0.654918 0.5883209 -0.4743007
vn 0.6565931 0.3965934 -0.64156
vn 0.7821252 0.4392269 -0.4419954
vn 0.8638928 0.4744763 -0.169001
vn 0.8379663 0.4561576 -0.2995543
vn 0.8368073 0.4719394 -0.2775367
vn 0.6706994 0.363823 -0.6463707
vn 0.6814499 0.35581 -0.6395509
vn 0.8500812 0.4910355 -0.1903839
vn 0.7496035 0.5935078 -0.2929901
vn 0.7488969 0.5033626 0.4310215
vn 0.7318298 0.4550234 0.5073253
vn 0.80596 0.4157458 0.4214072
vn 0.8684686 0.3704719 0.3294127
vn 0.01610692 0.9998655 0.003070684
vn 0.1441111 0.9893713 -0.01940377
vn 0.3575671 0.9306596 0.07757938
vn 0.3523915 0.9217186 0.1620339
vn 0.01751708 0.9998306 0.005646507
vn 0.4392622 0.8751202 0.2030108
vn 0.02104965 0.9997763 -0.00207189
vn 0.01462216 0.9998864 -0.003662603
vn 0.02284509 0.9997194 -0.006252385
vn 0.009600579 0.9999521 -0.001921986
vn 0.005167311 0.9999843 0.002173126
vn 0.005383113 0.9999838 0.001857895
vn 0.02688051 0.999632 -0.003638536
vn 0.02248465 0.9997466 0.001034177
vn 0.6545272 0.6812931 0.3277711
vn 0.3523915 0.9217186 0.1620339
vn 0.5542802 0.8136886 0.1751697
vn 0.5687264 0.7549063 0.3265987
vn 0.820223 0.1690578 0.5464921
vn 0.9126608 -0.01541088 0.4084271
vn 0.6914526 -0.04305049 0.7211381
vn 0.6270121 0.1669041 0.7609197
vn 0.4880091 -0.005621595 0.8728204
vn 0.5638128 0.2957416 0.7711369
vn 0.820223 0.1690578 0.5464921
vn 0.6458952 0.4434485 0.621428
vn 0.9164983 0.1719968 0.3611759
vn 0.9126608 -0.01541088 0.4084271
vn 0.9677922 0.003951862 0.2517195
vn 0.6270121 0.1669041 0.7609197
vn 0.5638128 0.2957416 0.7711369
vn 0.5521674 0.4481538 0.703043
vn 0.5338048 0.4640124 0.7069263
g NAX_SpiderNest_Wall_0
f 3/3/3 2/2/2 1/1/1
f 2/2/2 3/3/3 4/4/4
f 5/5/5 1/1/1 2/2/2
f 6/6/6 1/1/1 5/5/5
f 5/5/5 7/7/7 6/6/6
f 5/5/5 2/2/2 7/7/7
f 6/6/6 7/7/7 8/8/8
f 9/9/9 8/8/8 7/7/7
f 7/7/7 10/10/10 9/9/9
f 7/7/7 2/2/2 10/10/10
f 11/11/11 9/9/9 10/10/10
f 10/10/10 12/12/12 11/11/11
f 4/4/4 12/12/12 2/2/2
f 10/10/10 2/2/2 12/12/12
f 13/13/13 11/11/11 12/12/12
f 16/16/16 15/15/15 14/14/14
f 17/17/17 14/14/14 15/15/15
f 20/20/20 19/19/19 18/18/18
f 18/18/18 19/19/19 21/21/21
f 21/21/21 19/19/19 22/22/22
f 23/23/23 22/22/22 19/19/19
f 19/19/19 24/24/24 23/23/23
f 25/25/25 23/23/23 24/24/24
f 24/24/24 26/26/26 25/25/25
f 27/27/27 25/25/25 26/26/26
f 28/28/28 27/27/27 26/26/26
f 27/27/27 28/28/28 29/29/29
f 32/32/32 31/31/31 30/30/30
f 33/33/33 30/30/30 31/31/31
f 36/36/36 35/35/35 34/34/34
f 39/39/39 38/38/38 37/37/37
f 40/40/40 39/39/39 37/37/37
f 37/37/37 41/41/41 40/40/40
f 41/41/41 37/37/37 42/42/42
f 37/37/37 38/38/38 43/43/43
f 43/43/43 42/42/42 37/37/37
f 38/38/38 44/44/44 43/43/43
f 42/42/42 43/43/43 45/45/45
f 45/45/45 46/46/46 42/42/42
f 46/46/46 45/45/45 47/47/47
f 41/41/41 42/42/42 48/48/48
f 46/46/46 48/48/48 42/42/42
f 51/51/51 50/50/50 49/49/49
f 49/49/49 52/52/52 51/51/51
f 53/53/53 51/51/51 52/52/52
f 52/52/52 54/54/54 53/53/53
f 57/57/57 56/56/56 55/55/55
f 58/58/58 57/57/57 55/55/55
f 55/55/55 59/59/59 58/58/58
f 55/55/55 60/60/60 59/59/59
f 55/55/55 61/61/61 60/60/60
f 59/59/59 60/60/60 62/62/62
f 62/62/62 60/60/60 63/63/63
f 57/57/57 58/58/58 64/64/64
f 58/58/58 65/65/65 64/64/64
f 65/65/65 58/58/58 66/66/66
f 66/66/66 58/58/58 59/59/59
f 68/68/68 63/63/63 67/67/67
f 71/71/71 70/70/70 69/69/69
f 74/74/74 73/73/73 72/72/72
f 77/77/77 76/76/76 75/75/75
f 79/79/79 78/78/78 76/76/76
f 76/76/76 80/80/80 79/79/79
f 81/81/81 79/79/79 80/80/80
f 83/83/83 79/79/79 82/82/82
f 84/84/84 82/82/82 79/79/79
f 86/86/86 79/79/79 85/85/85
f 85/85/85 87/87/87 86/86/86
f 87/87/87 85/85/85 88/88/88
f 88/88/88 85/85/85 89/89/89
f 90/90/90 89/89/89 85/85/85
f 90/90/90 85/85/85 79/79/79
f 92/92/92 91/91/91 87/87/87
f 91/91/91 92/92/92 93/93/93
f 94/94/94 91/91/91 93/93/93
f 93/93/93 95/95/95 94/94/94
f 98/98/98 97/97/97 96/96/96
f 101/101/101 100/100/100 99/99/99
f 100/100/100 102/102/102 99/99/99
f 102/102/102 100/100/100 103/103/103
f 104/104/104 103/103/103 100/100/100
f 103/103/103 104/104/104 105/105/105
f 106/106/106 105/105/105 104/104/104
f 105/105/105 106/106/106 107/107/107
f 110/110/110 109/109/109 108/108/108
f 111/111/111 108/108/108 109/109/109
f 114/114/114 113/113/113 112/112/112
f 112/112/112 115/115/115 114/114/114
f 116/116/116 114/114/114 115/115/115
f 119/119/119 118/118/118 117/117/117
f 117/117/117 120/120/120 119/119/119
f 123/123/123 122/122/122 121/121/121
f 124/124/124 121/121/121 122/122/122
f 127/127/127 126/126/126 125/125/125
f 129/129/129 125/125/125 128/128/128
f 129/129/129 128/128/128 130/130/130
f 127/127/127 132/132/132 131/131/131
f 135/135/135 134/134/134 133/133/133
f 137/137/137 133/133/133 136/136/136
f 140/140/140 139/139/139 138/138/138
f 143/143/143 142/142/142 141/141/141
f 144/144/144 141/141/141 142/142/142
f 142/142/142 143/143/143 145/145/145
f 146/146/146 145/145/145 143/143/143
f 149/149/149 148/148/148 147/147/147
f 148/148/148 150/150/150 147/147/147
f 148/148/148 151/151/151 150/150/150
f 147/147/147 153/153/153 152/152/152
f 156/156/156 155/155/155 154/154/154
f 155/155/155 156/156/156 157/157/157
f 157/157/157 156/156/156 158/158/158
f 157/157/157 158/158/158 159/159/159
f 162/162/162 161/161/161 160/160/160
f 160/160/160 161/161/161 163/163/163
f 164/164/164 160/160/160 163/163/163
f 165/165/165 163/163/163 161/161/161
f 164/164/164 163/163/163 166/166/166
f 167/167/167 166/166/166 163/163/163
f 163/163/163 165/165/165 167/167/167
f 161/161/161 162/162/162 168/168/168
f 168/168/168 169/169/169 161/161/161
f 165/165/165 161/161/161 169/169/169
f 170/170/170 167/167/167 165/165/165
f 169/169/169 170/170/170 165/165/165
f 173/173/173 172/172/172 171/171/171
f 175/175/175 174/174/174 172/172/172
f 178/178/178 177/177/177 176/176/176
f 179/179/179 176/176/176 177/177/177
f 179/179/179 180/180/180 176/176/176
f 179/179/179 181/181/181 180/180/180
f 179/179/179 182/182/182 181/181/181
f 181/181/181 183/183/183 180/180/180
f 183/183/183 181/181/181 184/184/184
f 185/185/185 184/184/184 181/181/181
f 185/185/185 181/181/181 182/182/182
f 184/184/184 185/185/185 186/186/186
f 189/189/189 188/188/188 187/187/187
f 191/191/191 189/189/189 190/190/190
f 194/194/194 193/193/193 192/192/192
f 195/195/195 192/192/192 193/193/193
f 198/198/198 197/197/197 196/196/196
f 199/199/199 196/196/196 197/197/197
f 196/196/196 199/199/199 200/200/200
f 201/201/201 200/200/200 199/199/199
f 204/204/204 203/203/203 202/202/202
f 203/203/203 204/204/204 205/205/205
f 202/202/202 203/203/203 206/206/206
f 208/208/208 206/206/206 207/207/207
f 209/209/209 206/206/206 208/208/208
f 208/208/208 210/210/210 209/209/209
f 210/210/210 208/208/208 211/211/211
f 212/212/212 211/211/211 208/208/208
f 210/210/210 213/213/213 209/209/209
f 213/213/213 214/214/214 209/209/209
f 215/215/215 209/209/209 214/214/214
f 206/206/206 209/209/209 215/215/215
f 211/211/211 212/212/212 216/216/216
f 217/217/217 216/216/216 212/212/212
f 220/220/220 219/219/219 218/218/218
f 219/219/219 220/220/220 221/221/221
f 222/222/222 218/218/218 219/219/219
f 219/219/219 223/223/223 222/222/222
f 222/222/222 223/223/223 224/224/224
f 225/225/225 224/224/224 223/223/223
f 224/224/224 225/225/225 226/226/226
f 227/227/227 226/226/226 225/225/225
f 226/226/226 227/227/227 228/228/228
f 229/229/229 228/228/228 227/227/227
f 230/230/230 227/227/227 225/225/225
f 231/231/231 227/227/227 230/230/230
f 225/225/225 232/232/232 230/230/230
f 232/232/232 225/225/225 223/223/223
f 223/223/223 233/233/233 232/232/232
f 219/219/219 233/233/233 223/223/223
f 233/233/233 219/219/219 221/221/221
f 236/236/236 235/235/235 234/234/234
f 239/239/239 238/238/238 237/237/237
f 241/241/241 237/237/237 240/240/240
f 243/243/243 242/242/242 237/237/237
f 243/243/243 237/237/237 244/244/244
f 241/241/241 246/246/246 245/245/245
f 241/241/241 248/248/248 247/247/247
f 247/247/247 248/248/248 249/249/249
f 250/250/250 249/249/249 248/248/248
f 249/249/249 250/250/250 251/251/251
f 252/252/252 251/251/251 250/250/250
f 252/252/252 253/253/253 251/251/251
f 254/254/254 251/251/251 253/253/253
f 248/248/248 256/256/256 255/255/255
f 258/258/258 242/242/242 257/257/257
f 242/242/242 258/258/258 259/259/259
f 242/242/242 259/259/259 260/260/260
f 263/263/263 262/262/262 261/261/261
f 263/263/263 261/261/261 264/264/264
f 264/264/264 261/261/261 265/265/265
f 264/264/264 265/265/265 266/266/266
f 262/262/262 267/267/267 261/261/261
f 262/262/262 268/268/268 267/267/267
f 268/268/268 269/269/269 267/267/267
f 268/268/268 270/270/270 269/269/269
f 271/271/271 270/270/270 268/268/268
f 270/270/270 271/271/271 272/272/272
f 273/273/273 267/267/267 269/269/269
f 267/267/267 273/273/273 274/274/274
f 274/274/274 261/261/261 267/267/267
f 261/261/261 274/274/274 265/265/265
f 277/277/277 276/276/276 275/275/275
f 276/276/276 278/278/278 275/275/275
f 281/281/281 280/280/280 279/279/279
f 279/279/279 282/282/282 281/281/281
f 281/281/281 282/282/282 283/283/283
f 284/284/284 283/283/283 282/282/282
f 287/287/287 286/286/286 285/285/285
f 285/285/285 288/288/288 287/287/287
f 289/289/289 287/287/287 288/288/288
f 286/286/286 290/290/290 285/285/285
f 290/290/290 286/286/286 291/291/291
f 286/286/286 292/292/292 291/291/291
f 292/292/292 286/286/286 293/293/293
