g Plants_Church_mesh_1
v 1467.334 94.07179 -904.9446
v 1466.445 95.03579 -905.525
v 1460.966 95.66856 -904.2873
v 1452.867 101.0755 -907.6954
v 1452.385 96.49732 -901.9998
v 1462.446 97.97649 -905.9391
v 1440.452 102.6633 -910.6204
v 1439.308 93.34301 -901.6131
v 1450.043 95.81998 -896.8489
v 1459.46 95.9901 -901.2582
v 1460.966 95.66856 -904.2873
v 1440.041 91.30614 -890.7137
v 1430.043 87.87724 -903.7183
v 1428.341 84.21066 -889.5148
v 1428.945 98.48516 -913.4476
v 1422.233 84.07851 -904.4085
v 1419.673 80.53742 -891.587
v 1411.497 78.02499 -897.5693
v 1413.553 79.49757 -905.3626
v 1421.458 92.09797 -912.0299
v 1467.334 94.07179 -904.9446
v 1460.966 95.66856 -904.2873
v 1459.46 95.9901 -901.2582
v 1462.446 97.97649 -905.9391
v 1460.966 95.66856 -904.2873
v 1412.517 76.70477 -897.5627
v 1419.673 80.53742 -891.587
v 1411.497 78.02499 -897.5693
v 1421.22 78.5136 -891.9764
v 1428.341 84.21066 -889.5148
v 1431.5 80.97699 -890.3015
v 1440.041 91.30614 -890.7137
v 1442.466 86.85374 -892.4213
v 1450.043 95.81998 -896.8489
v 1451.937 91.84867 -897.0096
v 1459.46 95.9901 -901.2582
v 1459.851 92.08876 -900.9995
v 1467.334 94.07179 -904.9446
v 1472.331 65.83754 -889.5477
v 1473.154 67.45871 -891.5842
v 1468.456 69.14289 -891.3952
v 1463.109 75.53959 -897.8846
v 1459.939 71.77891 -891.1177
v 1470.641 70.84672 -892.9974
v 1452.469 77.38471 -900.7814
v 1446.651 70.96758 -893.0839
v 1456.761 72.20502 -886.0643
v 1466.515 70.23579 -888.8288
v 1468.456 69.14289 -891.3952
v 1444.99 71.77396 -884.2562
v 1437.03 66.84209 -896.334
v 1434.815 67.9896 -886.1843
v 1440.951 74.50467 -904.8603
v 1428.882 64.33834 -898.1357
v 1427.972 65.76563 -889.7732
v 1423.559 63.17104 -895.456
v 1424.207 62.44919 -902.2996
v 1431.123 70.91684 -906.7786
v 1472.331 65.83754 -889.5477
v 1468.456 69.14289 -891.3952
v 1473.154 67.45871 -891.5842
v 1468.456 69.14289 -891.3952
v 1425.403 61.04142 -893.4012
v 1427.972 65.76563 -889.7732
v 1423.559 63.17104 -895.456
v 1429.048 62.46934 -887.384
v 1434.815 67.9896 -886.1843
v 1436.984 63.56529 -884.5479
v 1444.99 71.77396 -884.2562
v 1447.077 66.3063 -883.7682
v 1456.761 72.20502 -886.0643
v 1457.779 68.3733 -886.0681
v 1466.515 70.23579 -888.8288
v 1466.206 66.53608 -888.1642
v 1472.331 65.83754 -889.5477
v 1447.936 53.82772 -876.8897
v 1449.954 55.53613 -877.5665
v 1446.449 57.65726 -880.4228
v 1447.936 53.82772 -876.8897
v 1442.224 59.04789 -880.6874
v 1446.449 57.65726 -880.4228
v 1442.311 60.89008 -884.9049
v 1435.362 61.61366 -884.5481
v 1450.745 64.69206 -886.3649
v 1450.909 61.66454 -878.7375
v 1436.971 61.92279 -895.7647
v 1427.208 61.48643 -889.5745
v 1445.649 66.34187 -892.1401
v 1433.186 58.88463 -904.6374
v 1419.38 59.23403 -899.3853
v 1442.253 64.13142 -901.098
v 1449.954 55.53613 -877.5665
v 1446.449 57.65726 -880.4228
v 1428.363 56.07069 -889.0749
v 1435.362 61.61366 -884.5481
v 1427.208 61.48643 -889.5745
v 1436.536 57.64768 -884.1455
v 1442.224 59.04789 -880.6874
v 1442.716 55.2605 -880.5244
v 1447.936 53.82772 -876.8897
v 1420.674 55.06996 -898.4385
v 1419.38 59.23403 -899.3853
v 1413.734 60.15522 -865.1921
v 1414.562 62.73842 -871.12
v 1410.631 63.01305 -868.4052
v 1411.562 67.05438 -879.3577
v 1402.587 66.15142 -874.1239
v 1420.759 68.16423 -877.2421
v 1416.288 63.09058 -869.3054
v 1413.734 60.15522 -865.1921
v 1408.354 70.03498 -891.6199
v 1396.376 69.38647 -882.2946
v 1422.819 73.57097 -889.6003
v 1422.577 73.17297 -902.149
v 1407.557 64.34504 -903.1677
v 1396.376 69.38647 -882.2946
v 1418.596 66.56992 -912.8505
v 1407.32 60.76696 -911.9266
v 1406.618 57.73437 -918.9854
v 1402.887 60.10334 -916.0966
v 1396.713 62.92114 -905.1163
v 1395.183 67.30395 -895.8628
v 1396.376 69.38647 -882.2946
v 1416.156 60.11034 -864.9769
v 1422.944 65.96442 -874.2199
v 1422.819 73.57097 -889.6003
v 1424.891 71.18971 -886.2053
v 1396.404 61.78263 -906.5827
v 1396.713 62.92114 -905.1163
v 1401.026 58.21889 -913.6416
v 1395.183 67.30395 -895.8628
v 1401.026 58.21889 -913.6416
v 1396.713 62.92114 -905.1163
v 1402.887 60.10334 -916.0966
v 1396.574 63.87907 -880.5488
v 1396.376 69.38647 -882.2946
v 1393.414 63.82882 -893.6029
v 1402.587 66.15142 -874.1239
v 1402.507 62.70919 -874.0752
v 1410.631 63.01305 -868.4052
v 1410.42 59.69483 -868.5638
v 1413.734 60.15522 -865.1921
v 1393.414 63.82882 -893.6029
v 1396.376 69.38647 -882.2946
v 1395.183 67.30395 -895.8628
v 1396.404 61.78263 -906.5827
v 1423.558 71.11355 -899.6265
v 1422.577 73.17297 -902.149
v 1424.891 71.18971 -886.2053
v 1424.891 71.18971 -886.2053
v 1422.577 73.17297 -902.149
v 1422.819 73.57097 -889.6003
v 1486.016 105.6597 -940.2476
v 1484.357 106.9593 -944.314
v 1478.285 106.4063 -944.0073
v 1481.97 108.0581 -947.8752
v 1475.138 108.0523 -955.7187
v 1469.639 108.3098 -948.7362
v 1475.209 108.4541 -942.9387
v 1486.016 105.6597 -940.2476
v 1463.98 105.3581 -963.8173
v 1457.095 104.648 -951.9524
v 1466.083 110.541 -944.8024
v 1453.27 111.0343 -943.892
v 1448.42 98.12086 -953.4683
v 1441.473 105.5279 -943.6215
v 1453.874 99.80118 -969.4646
v 1440.865 93.94479 -954.6444
v 1432.811 100.0976 -945.6583
v 1427.268 93.07238 -951.0322
v 1433.047 89.36341 -956.6799
v 1444.77 95.66332 -968.2872
v 1475.209 108.4541 -942.9387
v 1469.639 108.3098 -948.7362
v 1466.083 110.541 -944.8024
v 1442.797 103.6299 -941.8284
v 1453.27 111.0343 -943.892
v 1441.473 105.5279 -943.6215
v 1454.594 107.6511 -942.2857
v 1466.083 110.541 -944.8024
v 1433.901 98.60784 -943.8601
v 1433.901 98.60784 -943.8601
v 1432.811 100.0976 -945.6583
v 1433.901 98.60784 -943.8601
v 1427.888 92.28442 -949.6987
v 1427.268 93.07238 -951.0322
v 1466.393 107.9721 -941.6727
v 1466.083 110.541 -944.8024
v 1454.594 107.6511 -942.2857
v 1475.209 108.4541 -942.9387
v 1475.569 106.1443 -940.2394
v 1486.016 105.6597 -940.2476
v 1482.161 104.3485 -936.8262
v 1447.064 97.3888 -944.2036
v 1454.594 107.6511 -942.2857
v 1442.797 103.6299 -941.8284
v 1439.434 92.48991 -946.2937
v 1433.901 98.60784 -943.8601
v 1459.752 100.4928 -942.5354
v 1454.594 107.6511 -942.2857
v 1447.064 97.3888 -944.2036
v 1466.393 107.9721 -941.6727
v 1469.376 101.433 -943.6133
v 1466.393 107.9721 -941.6727
v 1475.569 106.1443 -940.2394
v 1476.871 102.3241 -940.9993
v 1482.161 104.3485 -936.8262
v 1439.434 92.48991 -946.2937
v 1433.901 98.60784 -943.8601
v 1432.361 86.59187 -953.2244
v 1433.901 98.60784 -943.8601
v 1427.888 92.28442 -949.6987
v 1507.398 96.27317 -984.6689
v 1504.313 97.12556 -987.4245
v 1499.026 98.14453 -985.6024
v 1500.784 98.02679 -989.5193
v 1491.862 98.76297 -994.804
v 1490.507 100.7911 -986.2341
v 1479.256 97.76915 -998.3763
v 1476.391 99.81252 -985.3382
v 1489.027 104.0828 -981.7539
v 1496.901 100.8628 -983.9022
v 1476.801 107.6376 -977.6578
v 1465.544 96.14959 -985.3116
v 1463.901 105.7766 -975.0782
v 1465.776 94.11993 -1000.168
v 1458.055 93.53114 -983.1622
v 1454.893 102.0662 -973.1306
v 1447.728 95.48355 -974.2416
v 1450.287 90.15472 -980.8885
v 1456.476 92.19416 -995.726
v 1449.152 89.58466 -987.2471
v 1448.604 93.80414 -971.0989
v 1454.893 102.0662 -973.1306
v 1447.728 95.48355 -974.2416
v 1457.211 99.38075 -968.8502
v 1463.901 105.7766 -975.0782
v 1466.864 102.7187 -970.8906
v 1476.801 107.6376 -977.6578
v 1478.11 104.2452 -976.0587
v 1489.027 104.0828 -981.7539
v 1489.21 102.2775 -979.6133
v 1452.751 84.4967 -969.1725
v 1461.555 90.76893 -968.9965
v 1469.807 94.62485 -971.3846
v 1481.888 95.65685 -975.611
v 1490.189 94.38102 -979.7669
v 1496.901 100.8628 -983.9022
v 1498.676 99.01104 -981.4221
v 1496.901 100.8628 -983.9022
v 1489.21 102.2775 -979.6133
v 1507.398 96.27317 -984.6689
v 1490.189 94.38102 -979.7669
v 1498.676 99.01104 -981.4221
v 1489.21 102.2775 -979.6133
v 1499.015 94.25126 -980.4189
v 1498.676 99.01104 -981.4221
v 1506.943 96.60442 -980.6796
v 1504.28 94.61112 -980.1261
v 1506.943 96.60442 -980.6796
v 1507.398 96.27317 -984.6689
v 1498.676 99.01104 -981.4221
v 1507.398 96.27317 -984.6689
v 1499.026 98.14453 -985.6024
v 1496.901 100.8628 -983.9022
v 1490.507 100.7911 -986.2341
v 1476.157 73.82913 -934.3412
v 1476.439 75.40858 -937.5577
v 1471.851 74.29224 -939.5576
v 1475.802 77.05714 -941.5803
v 1470.877 77.41663 -949.8145
v 1465.164 75.87178 -945.9512
v 1468.488 75.52419 -939.2158
v 1476.157 73.82913 -934.3412
v 1463.342 74.52101 -959.1813
v 1455.69 71.6117 -953.056
v 1460.588 76.61631 -943.2227
v 1449.012 75.22156 -946.1531
v 1449.694 64.91182 -957.9788
v 1439.613 68.67218 -950.2827
v 1456.796 69.05855 -967.353
v 1444.152 60.4094 -961.9031
v 1433.562 63.07252 -955.4835
v 1431.428 57.12302 -962.9225
v 1438.682 55.68445 -966.7194
v 1450.546 64.97153 -971.7698
v 1468.488 75.52419 -939.2158
v 1465.164 75.87178 -945.9512
v 1460.588 76.61631 -943.2227
v 1450.377 72.00573 -944.8898
v 1460.588 76.61631 -943.2227
v 1449.012 75.22156 -946.1531
v 1440.653 66.75934 -948.6227
v 1439.613 68.67218 -950.2827
v 1434.319 61.4967 -953.8248
v 1434.319 61.4967 -953.8248
v 1433.562 63.07252 -955.4835
v 1446.185 62.16447 -950.4097
v 1450.377 72.00573 -944.8898
v 1440.653 66.75934 -948.6227
v 1440.955 57.18812 -955.2678
v 1434.319 61.4967 -953.8248
v 1456.3 66.25918 -944.7008
v 1450.377 72.00573 -944.8898
v 1446.185 62.16447 -950.4097
v 1460.508 73.69102 -940.8026
v 1464.854 68.57154 -942.6383
v 1460.508 73.69102 -940.8026
v 1468.519 72.92818 -937.1157
v 1470.573 69.80342 -937.9925
v 1473.818 71.94415 -933.5099
v 1460.508 73.69102 -940.8026
v 1460.588 76.61631 -943.2227
v 1450.377 72.00573 -944.8898
v 1468.488 75.52419 -939.2158
v 1468.519 72.92818 -937.1157
v 1476.157 73.82913 -934.3412
v 1473.818 71.94415 -933.5099
v 1434.319 61.4967 -953.8248
v 1433.562 63.07252 -955.4835
v 1431.764 56.216 -961.6984
v 1431.428 57.12302 -962.9225
v 1440.955 57.18812 -955.2678
v 1434.319 61.4967 -953.8248
v 1437.681 52.38047 -964.3422
v 1434.319 61.4967 -953.8248
v 1431.764 56.216 -961.6984
v 1439.587 113.3436 -914.1121
v 1438.859 113.438 -915.3444
v 1433.413 112.1265 -916.0953
v 1434.921 113.7941 -918.3735
v 1433.413 112.1265 -916.0953
v 1426.818 111.0847 -923.528
v 1433.413 112.1265 -916.0953
v 1423.332 109.6664 -917.09
v 1417.702 105.0501 -928.4373
v 1415.159 101.1819 -917.494
v 1420.391 111.189 -913.6822
v 1430.689 113.119 -914.3236
v 1433.413 112.1265 -916.0953
v 1412.106 106.6699 -909.4101
v 1409.942 89.13424 -917.4196
v 1410.198 95.96072 -931.9409
v 1405.207 84.66209 -928.4501
v 1405.162 78.79224 -916.7896
v 1401.313 70.10641 -917.8885
v 1395.896 72.69367 -910.1707
v 1397.048 82.33105 -906.0162
v 1402.712 93.61806 -906.0439
v 1439.587 113.3436 -914.1121
v 1433.413 112.1265 -916.0953
v 1397.071 72.11555 -909.1366
v 1397.048 82.33105 -906.0162
v 1395.896 72.69367 -910.1707
v 1398.982 81.32661 -904.7625
v 1402.712 93.61806 -906.0439
v 1406.864 92.75735 -904.3771
v 1412.106 106.6699 -909.4101
v 1415.072 104.0638 -908.8941
v 1420.391 111.189 -913.6822
v 1422.626 109.0576 -911.4838
v 1430.689 113.119 -914.3236
v 1431.447 110.6916 -912.4338
v 1439.587 113.3436 -914.1121
vt 0.300563 0.929009
vt 0.300815 0.926411
vt 0.310307 0.922667
vt 0.317059 0.904942
vt 0.325549 0.917476
vt 0.304527 0.919359
vt 0.335451 0.887518
vt 0.3516 0.908959
vt 0.333031 0.923818
vt 0.314188 0.925604
vt 0.310307 0.922667
vt 0.358199 0.928174
vt 0.371957 0.902343
vt 0.386174 0.92582
vt 0.3581 0.876552
vt 0.388837 0.897676
vt 0.403666 0.918106
vt 0.417002 0.903852
vt 0.407789 0.892558
vt 0.378173 0.877856
vt 0.300563 0.929009
vt 0.310307 0.922667
vt 0.314188 0.925604
vt 0.304527 0.919359
vt 0.310307 0.922667
vt 0.416524 0.906031
vt 0.403666 0.918106
vt 0.417002 0.903852
vt 0.402756 0.920816
vt 0.386174 0.92582
vt 0.383466 0.930523
vt 0.358199 0.928174
vt 0.357521 0.931931
vt 0.333031 0.923818
vt 0.333664 0.929012
vt 0.314188 0.925604
vt 0.317602 0.929983
vt 0.300563 0.929009
vt 0.328523 0.982832
vt 0.32442 0.979022
vt 0.330904 0.973508
vt 0.330281 0.952941
vt 0.343066 0.963768
vt 0.324601 0.971521
vt 0.345226 0.937118
vt 0.365697 0.949375
vt 0.350794 0.968179
vt 0.3345 0.974659
vt 0.330904 0.973508
vt 0.372479 0.960561
vt 0.384561 0.939432
vt 0.392698 0.95177
vt 0.365739 0.923051
vt 0.400031 0.93157
vt 0.404713 0.942099
vt 0.411746 0.931843
vt 0.407643 0.922758
vt 0.385135 0.914489
vt 0.328523 0.982832
vt 0.330904 0.973508
vt 0.32442 0.979022
vt 0.330904 0.973508
vt 0.411746 0.938583
vt 0.404713 0.942099
vt 0.411746 0.931843
vt 0.40735 0.949718
vt 0.392698 0.95177
vt 0.394164 0.960268
vt 0.372479 0.960561
vt 0.37453 0.96818
vt 0.350794 0.968179
vt 0.352845 0.972575
vt 0.3345 0.974659
vt 0.339072 0.978729
vt 0.328523 0.982832
vt 0.388949 0.990667
vt 0.383456 0.989944
vt 0.385873 0.980506
vt 0.388949 0.990667
vt 0.391632 0.975004
vt 0.385873 0.980506
vt 0.387424 0.967008
vt 0.398853 0.96056
vt 0.368544 0.968868
vt 0.375078 0.982868
vt 0.389768 0.944737
vt 0.410281 0.945616
vt 0.372479 0.954113
vt 0.394457 0.930671
vt 0.420589 0.925716
vt 0.375703 0.939462
vt 0.383456 0.989944
vt 0.385873 0.980506
vt 0.413798 0.952356
vt 0.398853 0.96056
vt 0.410281 0.945616
vt 0.400904 0.965835
vt 0.391632 0.975004
vt 0.394561 0.979109
vt 0.388949 0.990667
vt 0.422882 0.932136
vt 0.420589 0.925716
vt 0.448043 0.97161
vt 0.440889 0.960976
vt 0.448905 0.961268
vt 0.437415 0.941736
vt 0.456661 0.942311
vt 0.421616 0.952364
vt 0.438564 0.965003
vt 0.448043 0.97161
vt 0.433387 0.917426
vt 0.459809 0.921201
vt 0.406099 0.930471
vt 0.400123 0.911587
vt 0.433927 0.904523
vt 0.459809 0.921201
vt 0.407604 0.897943
vt 0.433001 0.894459
vt 0.433274 0.886065
vt 0.438962 0.884793
vt 0.452846 0.893025
vt 0.456384 0.90149
vt 0.459809 0.921201
vt 0.444022 0.974195
vt 0.421617 0.960982
vt 0.406099 0.930471
vt 0.40668 0.939725
vt 0.453655 0.8916
vt 0.452846 0.893025
vt 0.445271 0.888534
vt 0.456384 0.90149
vt 0.445271 0.888534
vt 0.452846 0.893025
vt 0.438962 0.884793
vt 0.465668 0.929127
vt 0.459809 0.921201
vt 0.463972 0.90652
vt 0.456661 0.942311
vt 0.460107 0.94547
vt 0.448905 0.961268
vt 0.452352 0.963854
vt 0.448043 0.97161
vt 0.463972 0.90652
vt 0.459809 0.921201
vt 0.456384 0.90149
vt 0.453655 0.8916
vt 0.401798 0.918211
vt 0.400123 0.911587
vt 0.40668 0.939725
vt 0.40668 0.939725
vt 0.400123 0.911587
vt 0.406099 0.930471
vt 0.238067 0.881701
vt 0.237492 0.872797
vt 0.248692 0.868202
vt 0.238641 0.86418
vt 0.246397 0.846083
vt 0.259198 0.851299
vt 0.252426 0.865041
vt 0.238067 0.881701
vt 0.264206 0.826263
vt 0.282914 0.838427
vt 0.265065 0.851828
vt 0.287183 0.840913
vt 0.303684 0.834445
vt 0.313323 0.835742
vt 0.284314 0.813911
vt 0.320251 0.829765
vt 0.332665 0.829934
vt 0.346375 0.823551
vt 0.337166 0.823965
vt 0.304708 0.811327
vt 0.252426 0.865041
vt 0.259198 0.851299
vt 0.265065 0.851828
vt 0.313898 0.841487
vt 0.287183 0.840913
vt 0.313323 0.835742
vt 0.289194 0.847807
vt 0.265065 0.851828
vt 0.333229 0.835068
vt 0.333229 0.835068
vt 0.332665 0.829934
vt 0.333229 0.835068
vt 0.346798 0.82687
vt 0.346375 0.823551
vt 0.2688 0.859297
vt 0.265065 0.851828
vt 0.289194 0.847807
vt 0.252426 0.865041
vt 0.255587 0.871648
vt 0.238067 0.881701
vt 0.247831 0.884574
vt 0.3116 0.847807
vt 0.289194 0.847807
vt 0.313898 0.841487
vt 0.328548 0.842349
vt 0.333229 0.835068
vt 0.287471 0.859009
vt 0.289194 0.847807
vt 0.3116 0.847807
vt 0.2688 0.859297
vt 0.269375 0.865329
vt 0.2688 0.859297
vt 0.255587 0.871648
vt 0.256897 0.875313
vt 0.247831 0.884574
vt 0.328548 0.842349
vt 0.333229 0.835068
vt 0.342911 0.831147
vt 0.333229 0.835068
vt 0.346798 0.82687
vt 0.188833 0.843455
vt 0.19182 0.835742
vt 0.200665 0.832673
vt 0.195842 0.828562
vt 0.207618 0.811901
vt 0.212114 0.821446
vt 0.2283 0.796102
vt 0.237663 0.810846
vt 0.213466 0.823614
vt 0.202301 0.830677
vt 0.232771 0.815124
vt 0.259939 0.804521
vt 0.258127 0.808952
vt 0.254055 0.784726
vt 0.276475 0.803405
vt 0.278368 0.807193
vt 0.296736 0.805343
vt 0.294299 0.802951
vt 0.274084 0.784686
vt 0.293528 0.793063
vt 0.29856 0.812434
vt 0.278368 0.807193
vt 0.296736 0.805343
vt 0.279339 0.818286
vt 0.258127 0.808952
vt 0.258333 0.820865
vt 0.232771 0.815124
vt 0.234855 0.821974
vt 0.213466 0.823614
vt 0.216111 0.828701
vt 0.301835 0.827987
vt 0.280579 0.830285
vt 0.261334 0.830572
vt 0.237492 0.834306
vt 0.222555 0.836891
vt 0.202301 0.830677
vt 0.202448 0.837753
vt 0.202301 0.830677
vt 0.216111 0.828701
vt 0.188833 0.843455
vt 0.222555 0.836891
vt 0.202448 0.837753
vt 0.216111 0.828701
vt 0.207331 0.844072
vt 0.202448 0.837753
vt 0.191245 0.848668
vt 0.198139 0.848955
vt 0.191245 0.848668
vt 0.188833 0.843455
vt 0.202448 0.837753
vt 0.188833 0.843455
vt 0.200665 0.832673
vt 0.202301 0.830677
vt 0.212114 0.821446
vt 0.290632 0.911288
vt 0.286898 0.905256
vt 0.294822 0.89912
vt 0.284248 0.897115
vt 0.288047 0.879978
vt 0.301335 0.882006
vt 0.299497 0.895436
vt 0.290632 0.911288
vt 0.298962 0.861882
vt 0.318049 0.866788
vt 0.309811 0.881236
vt 0.329435 0.867637
vt 0.332316 0.860314
vt 0.349761 0.859097
vt 0.311314 0.848956
vt 0.344089 0.853713
vt 0.362796 0.851156
vt 0.36829 0.843817
vt 0.355439 0.8461
vt 0.323665 0.840626
vt 0.299497 0.895436
vt 0.301335 0.882006
vt 0.309811 0.881236
vt 0.330958 0.873774
vt 0.309811 0.881236
vt 0.329435 0.867637
vt 0.35074 0.864302
vt 0.349761 0.859097
vt 0.363918 0.855775
vt 0.363918 0.855775
vt 0.362796 0.851156
vt 0.344915 0.870941
vt 0.330958 0.873774
vt 0.35074 0.864302
vt 0.35611 0.863653
vt 0.363918 0.855775
vt 0.326667 0.884778
vt 0.330958 0.873774
vt 0.344915 0.870941
vt 0.314131 0.887512
vt 0.310884 0.893461
vt 0.314131 0.887512
vt 0.303139 0.901019
vt 0.302319 0.904455
vt 0.296952 0.91215
vt 0.314131 0.887512
vt 0.309811 0.881236
vt 0.330958 0.873774
vt 0.299497 0.895436
vt 0.303139 0.901019
vt 0.290632 0.911288
vt 0.296952 0.91215
vt 0.363918 0.855775
vt 0.362796 0.851156
vt 0.369242 0.846776
vt 0.36829 0.843817
vt 0.35611 0.863653
vt 0.363918 0.855775
vt 0.361579 0.851789
vt 0.363918 0.855775
vt 0.369242 0.846776
vt 0.324286 0.871231
vt 0.3248 0.868587
vt 0.335217 0.863646
vt 0.329686 0.859975
vt 0.335217 0.863646
vt 0.343773 0.847232
vt 0.335217 0.863646
vt 0.354716 0.855145
vt 0.363018 0.837179
vt 0.377162 0.855111
vt 0.360146 0.856137
vt 0.339908 0.862865
vt 0.335217 0.863646
vt 0.381402 0.859297
vt 0.3981 0.861917
vt 0.383125 0.833732
vt 0.404669 0.845222
vt 0.416749 0.868286
vt 0.431135 0.871305
vt 0.442176 0.875518
vt 0.433206 0.873743
vt 0.412425 0.868201
vt 0.324286 0.871231
vt 0.335217 0.863646
vt 0.441272 0.878694
vt 0.433206 0.873743
vt 0.442176 0.875518
vt 0.431515 0.878367
vt 0.412425 0.868201
vt 0.406967 0.875383
vt 0.381402 0.859297
vt 0.379104 0.865329
vt 0.360146 0.856137
vt 0.359571 0.863605
vt 0.339908 0.862865
vt 0.342049 0.868776
vt 0.324286 0.871231
vn -0.3632526 -0.6773834 -0.6396868
vn -0.2436567 -0.5577776 -0.7934202
vn -0.1993177 -0.8113496 -0.5495308
vn -0.07569522 -0.7099257 -0.700197
vn 0.01036152 -0.9293779 -0.3689841
vn -0.1404112 -0.5151532 -0.8455188
vn 0.1995377 -0.7224399 -0.662016
vn 0.3710118 -0.82443 -0.4273937
vn 0.1628035 -0.9786484 -0.1254683
vn -0.1269427 -0.9912609 -0.03587914
vn -0.1831457 -0.8657528 -0.4657572
vn 0.4468615 -0.8757482 -0.1827018
vn 0.4714937 -0.7578716 -0.4509152
vn 0.4539373 -0.8754578 -0.1658749
vn 0.4219061 -0.6110684 -0.669769
vn 0.4349145 -0.8355162 -0.3358009
vn 0.4090687 -0.8972496 -0.1661504
vn 0.4362997 -0.8935362 -0.1059987
vn 0.4632207 -0.796928 -0.3877269
vn 0.3813443 -0.6125475 -0.6923597
vn -0.2615581 -0.8784301 -0.3999348
vn -0.1993177 -0.8113496 -0.5495308
vn -0.1269427 -0.9912609 -0.03587914
vn -0.1404112 -0.5151532 -0.8455188
vn -0.2143702 -0.7276058 -0.6516404
vn 0.4425184 0.4139895 -0.795481
vn 0.3386502 0.372668 -0.8639645
vn 0.4749854 0.3629772 -0.8016461
vn 0.2044192 0.3539903 -0.9126355
vn 0.01335577 0.2254822 -0.9741557
vn -0.1230007 0.2029501 -0.971433
vn -0.3311377 0.1096853 -0.9371856
vn -0.4042113 0.03229139 -0.9140954
vn -0.4431545 -0.09006803 -0.8919091
vn -0.4111134 -0.1353136 -0.9014854
vn -0.4347256 -0.1231488 -0.8921031
vn -0.4437615 -0.1035475 -0.8901426
vn -0.3571332 -0.3969263 -0.8455208
vn -0.4233861 -0.6175844 -0.6628224
vn -0.2477808 -0.6063674 -0.7555947
vn -0.2986669 -0.813215 -0.4994792
vn -0.08585117 -0.7979193 -0.5966192
vn -0.1069597 -0.963097 -0.2469894
vn -0.09667958 -0.6132324 -0.7839637
vn 0.1606222 -0.8491908 -0.5030661
vn 0.2521017 -0.947877 -0.194869
vn -0.0388923 -0.9977651 0.05433618
vn -0.3786502 -0.9255357 0.002749252
vn -0.3084955 -0.8573653 -0.4120138
vn 0.2397959 -0.96026 0.142823
vn 0.3779635 -0.90895 -0.1759358
vn 0.2616748 -0.9491525 0.1750306
vn 0.4061515 -0.786006 -0.4660851
vn 0.3555515 -0.9339235 -0.03701541
vn 0.2578693 -0.9473658 0.1897402
vn 0.287403 -0.9444516 0.1594075
vn 0.4687437 -0.8737366 -0.1298599
vn 0.4535356 -0.7578239 -0.4690503
vn -0.4664215 -0.7800116 -0.4171726
vn -0.2986669 -0.813215 -0.4994792
vn -0.2477808 -0.6063674 -0.7555947
vn -0.2833271 -0.7366073 -0.6141135
vn 0.8222579 -0.01016926 -0.5690242
vn 0.7445343 -0.1385211 -0.6530547
vn 0.7742419 0.06260479 -0.6297858
vn 0.6069503 -0.2209296 -0.7634144
vn 0.383735 -0.26001 -0.8860825
vn 0.2366597 -0.1486528 -0.9601534
vn 0.069943 -0.1412966 -0.9874933
vn -0.085399 -0.08367691 -0.9928268
vn -0.2109394 -0.09018017 -0.9733304
vn -0.252118 -0.09201111 -0.9633123
vn -0.2633176 -0.1255551 -0.9565039
vn -0.2517183 -0.1507215 -0.9559921
vn -0.2681829 -0.4456316 -0.8541022
vn 0.2413918 -0.4744924 -0.8465146
vn 0.3991059 -0.4305807 -0.8095151
vn 0.2265519 -0.7043682 -0.6727106
vn 0.03350427 -0.6706482 -0.7410187
vn -0.192923 -0.8447984 -0.4990956
vn 0.151941 -0.7761936 -0.611913
vn 0.09466158 -0.9039833 -0.4169574
vn -0.06481768 -0.9853088 -0.1580038
vn 0.4107381 -0.7592816 -0.5047629
vn 0.6528723 -0.4802413 -0.5857696
vn 0.2727494 -0.962085 -0.0004714241
vn 0.09169748 -0.9863387 0.1368485
vn 0.433158 -0.8615178 -0.2648793
vn 0.2413948 -0.9535697 0.1800924
vn 0.04668709 -0.9810615 0.1879865
vn 0.4514202 -0.8888024 0.07905698
vn 0.3991059 -0.4305807 -0.8095151
vn 0.3234259 -0.6332027 -0.7031714
vn 0.6055746 0.06746295 -0.7929238
vn 0.5126666 0.05296646 -0.8569524
vn 0.6933783 0.07806214 -0.7163329
vn 0.5092702 0.0518524 -0.8590432
vn 0.53359 0.04434964 -0.8445797
vn 0.5465626 0.03503132 -0.8366852
vn 0.4462404 -0.3004379 -0.8429748
vn 0.7653698 0.09904878 -0.6359233
vn 0.7675512 0.09420746 -0.6340269
vn 0.05972933 -0.8887343 -0.4545148
vn 0.1096375 -0.9103139 -0.3991342
vn -0.2557952 -0.8907713 -0.3756266
vn 0.03866256 -0.9320391 -0.3602892
vn -0.09990282 -0.9544115 -0.2812795
vn 0.08042549 -0.8797701 -0.4685469
vn 0.2348797 -0.8643931 -0.4445853
vn 0.2663628 -0.7568927 -0.596795
vn 0.1998632 -0.9798229 0.001291606
vn 0.02237787 -0.9941897 0.1052907
vn 0.02473305 -0.950196 -0.3106699
vn 0.3900409 -0.886566 0.2487344
vn 0.2731797 -0.9001533 0.3392591
vn 0.2810675 -0.9559541 0.08457489
vn 0.4562102 -0.8283502 0.3251281
vn 0.1222338 -0.9249035 0.3600173
vn 0.1109522 -0.9170788 0.382957
vn -0.1543921 -0.9370288 0.313273
vn 0.2233766 -0.8754923 0.4285044
vn 0.1396562 -0.9187284 0.3693702
vn 0.02237787 -0.9941897 0.1052907
vn -0.03147028 -0.8240178 -0.5656893
vn -0.2115228 -0.8552286 -0.4731196
vn -0.1226419 -0.9556138 -0.2678832
vn -0.7381132 -0.6661354 -0.1070167
vn 0.6216781 -0.6430384 0.4472339
vn 0.3804545 -0.7883685 0.4834558
vn 0.6046667 -0.5274538 0.5968005
vn 0.4558581 -0.829367 0.3230227
vn 0.6046667 -0.5274538 0.5968005
vn 0.5954946 -0.5946802 0.5401312
vn 0.8420823 -0.1609784 0.5147653
vn 0.8423366 -0.08304073 -0.5325159
vn 0.920296 -0.2373383 -0.3110076
vn 0.9612784 -0.2755244 0.00548987
vn 0.6914665 -0.07645801 -0.7183511
vn 0.6298305 -0.01636889 -0.7765602
vn 0.62208 -0.01135372 -0.7828713
vn 0.6459164 -0.004494538 -0.763395
vn 0.6754717 -0.4758132 -0.5633293
vn 0.9612784 -0.2755244 0.00548987
vn 0.8800806 -0.4521543 -0.1449641
vn 0.8276003 -0.5091465 0.236321
vn 0.6216781 -0.6430384 0.4472339
vn -0.938889 -0.3308164 0.09512068
vn -0.8713797 -0.4861495 0.0660003
vn -0.7381132 -0.6661354 -0.1070167
vn -0.7381132 -0.6661354 -0.1070167
vn -0.8713797 -0.4861495 0.0660003
vn -0.4788763 -0.8297633 -0.2866536
vn -0.09755713 -0.9658902 -0.2398723
vn 0.06885153 -0.940584 -0.3325074
vn -0.09928858 -0.9950556 -0.002489271
vn 0.1471149 -0.9525104 -0.2666109
vn 0.06594744 -0.9965693 -0.050005
vn -0.0611834 -0.9678124 0.2441222
vn -0.3379938 -0.8470423 0.4102188
vn -0.1154886 -0.9905509 -0.07396814
vn 0.2645299 -0.9545183 0.1375458
vn 0.30249 -0.8669901 0.3960151
vn -0.05321212 -0.8643193 0.5001208
vn 0.2337745 -0.6963477 0.6785642
vn 0.4313154 -0.8074421 0.4024975
vn 0.2791576 -0.6616029 0.6959544
vn 0.4693491 -0.8756837 0.1135316
vn 0.3466762 -0.7943795 0.4987753
vn 0.2422355 -0.6855718 0.6865225
vn 0.225995 -0.6946765 0.6828989
vn 0.3893837 -0.8361537 0.3862993
vn 0.4661922 -0.8839487 0.03604976
vn -0.2280582 -0.9634384 -0.1406269
vn -0.0611834 -0.9678124 0.2441222
vn -0.03674127 -0.9981843 0.04772901
vn 0.1247325 -0.07368863 -0.9894503
vn 0.0898708 -0.4784672 -0.8734943
vn 0.3901692 -0.5095317 -0.7669063
vn 0.0173777 -0.2115533 -0.977212
vn -0.0254436 -0.6793497 -0.7333735
vn 0.4751907 -0.2106348 -0.854299
vn 0.5769657 -0.3830671 -0.7213669
vn 0.7088851 -0.314848 -0.6311517
vn 0.4597836 -0.04263754 -0.8870068
vn 0.7962806 -0.208065 -0.5680196
vn 0.8164709 -0.2438886 -0.5233485
vn 0.001244471 -0.6092402 -0.7929847
vn -0.09836044 -0.8372452 -0.5379086
vn 0.04850272 -0.3087263 -0.9499135
vn -0.1108515 -0.8852816 -0.4516507
vn -0.04363111 -0.8210101 -0.569244
vn -0.003215022 -0.8853611 -0.4648929
vn -0.04279876 -0.9158617 -0.3992064
vn -0.002624081 0.2525785 -0.9675729
vn 0.008745366 -0.08297218 -0.9965135
vn 0.1247325 -0.07368863 -0.9894503
vn 0.1040157 0.4416978 -0.8911138
vn 0.3775342 0.213309 -0.9010922
vn 0.007685069 0.1365408 -0.9906046
vn 0.0173777 -0.2115533 -0.977212
vn -0.002624081 0.2525785 -0.9675729
vn 0.01754988 -0.3247743 -0.9456287
vn 0.1258437 0.2966727 -0.9466512
vn 0.04548175 0.2254734 -0.9731871
vn 0.3379704 0.3287556 -0.8818705
vn 0.3980361 0.3075757 -0.864271
vn 0.5033886 0.3303845 -0.7984022
vn 0.1040157 0.4416978 -0.8911138
vn 0.3336797 0.3793797 -0.8629768
vn 0.2125792 0.5835525 -0.7837579
vn 0.1441451 0.5191118 -0.8424637
vn 0.1382088 0.5977183 -0.7897032
vn -0.3084317 -0.9457533 0.1020809
vn -0.2105421 -0.9753891 -0.06548233
vn -0.2319679 -0.9345481 0.269835
vn -0.1451003 -0.9887838 -0.03539181
vn -0.12577 -0.9827917 0.135286
vn -0.09835331 -0.8989214 0.4269272
vn 0.1075249 -0.9734634 0.202008
vn 0.1727874 -0.8817043 0.4390239
vn -0.02016458 -0.7781811 0.6277162
vn -0.3355513 -0.8934813 0.2984905
vn 0.169118 -0.6954127 0.698427
vn 0.3177186 -0.8524203 0.4152524
vn 0.351013 -0.652235 0.6718476
vn 0.2705553 -0.9499575 0.1561429
vn 0.4355621 -0.7600572 0.4822848
vn 0.4281116 -0.6172556 0.6600879
vn 0.4533332 -0.6026708 0.6567168
vn 0.4312184 -0.8652841 0.2556055
vn 0.3437602 -0.9368485 0.064373
vn 0.3562199 -0.9341842 0.02017973
vn 0.5137918 -0.4347043 -0.7396284
vn 0.4611765 -0.662697 -0.5900414
vn 0.6279905 -0.5999628 -0.4956535
vn 0.1793595 -0.4122576 -0.8932378
vn 0.1063499 -0.7847207 -0.610658
vn -0.1873167 -0.4128262 -0.89134
vn -0.2435722 -0.6254267 -0.7412922
vn -0.3583201 -0.3834496 -0.8512185
vn -0.3919717 -0.6581698 -0.6427835
vn -0.3863537 -0.4659791 -0.7959864
vn 0.1509673 -0.02383424 -0.9882514
vn -0.146941 -0.03066911 -0.9886696
vn -0.3272464 -0.1049021 -0.9390982
vn -0.3659089 -0.139744 -0.920099
vn -0.2430434 -0.08613596 -0.9661835
vn -0.4036219 -0.8075325 -0.4300935
vn -0.2605993 -0.7335168 -0.627727
vn -0.3872852 -0.8985758 -0.2063289
vn -0.4147396 -0.5488296 -0.7257941
vn -0.3024242 -0.9449198 -0.1251639
vn -0.2430434 -0.08613596 -0.9661835
vn -0.07928354 -0.140989 -0.9868314
vn -0.3744599 -0.3627775 -0.8533301
vn 0.009936589 -0.2596413 -0.9656541
vn -0.2296734 -0.4878868 -0.84215
vn 0.05257624 -0.2832165 -0.9576137
vn 0.07633375 -0.3601714 -0.929758
vn -0.2830943 -0.9579284 0.04723123
vn -0.3084317 -0.9457533 0.1020809
vn -0.3560399 -0.9055558 -0.2306607
vn -0.259914 -0.9299396 0.2601096
vn -0.2319679 -0.9345481 0.269835
vn -0.2241039 -0.7072102 0.6705455
vn -0.09835331 -0.8989214 0.4269272
vn 0.2010727 -0.8686956 -0.4527006
vn 0.3752383 -0.8398765 -0.3921782
vn 0.1083195 -0.9743731 -0.1971393
vn 0.4093517 -0.8420106 -0.3513536
vn 0.2719616 -0.9443864 -0.1848544
vn 0.06278108 -0.9961119 0.0618034
vn -0.2686225 -0.9572353 0.1074366
vn 0.02836857 -0.993347 -0.1116102
vn 0.3882982 -0.9164609 0.09656071
vn 0.3317302 -0.8809629 0.3374307
vn -0.01983426 -0.9522369 0.3047156
vn 0.1655274 -0.7898468 0.5905443
vn 0.4427251 -0.8113627 0.381687
vn 0.1962717 -0.753877 0.6270143
vn 0.5621281 -0.8160473 0.1344572
vn 0.340844 -0.8291021 0.4431873
vn 0.1690487 -0.7800379 0.6024644
vn 0.1566443 -0.7902671 0.5924022
vn 0.4205094 -0.838942 0.3454679
vn 0.5928843 -0.8044193 0.03738674
vn 0.02166087 -0.9261491 -0.3765351
vn 0.06278108 -0.9961119 0.0618034
vn 0.1503613 -0.9794048 -0.1347508
vn 0.3351288 0.01374257 -0.9420722
vn 0.3188528 -0.4976545 -0.8066429
vn 0.4268036 -0.2568396 -0.8671057
vn 0.4119289 0.1643639 -0.8962697
vn 0.6845344 -0.268957 -0.6775505
vn 0.7296528 0.05066209 -0.6819386
vn 0.8217578 -0.1311232 -0.5545456
vn 0.9064396 -0.06700327 -0.4169866
vn 0.2214136 0.4569924 -0.861472
vn 0.3069405 0.1409676 -0.9412308
vn 0.4119289 0.1643639 -0.8962697
vn 0.2622241 0.6374445 -0.724502
vn 0.5670432 0.4568447 -0.6853866
vn 0.2606515 0.3514525 -0.8991896
vn 0.3351288 0.01374257 -0.9420722
vn 0.2214136 0.4569924 -0.861472
vn 0.3488457 -0.1025375 -0.9315538
vn 0.3272412 0.5126731 -0.7937754
vn 0.2735057 0.4386966 -0.8560023
vn 0.4673368 0.5456468 -0.6956046
vn 0.5071574 0.5250697 -0.6834422
vn 0.5404471 0.5369399 -0.6477751
vn 0.3468466 -0.4131367 -0.8420306
vn 0.2264517 -0.7032948 -0.6738665
vn 0.3759076 -0.08181064 -0.9230387
vn 0.2097792 -0.769186 -0.6036105
vn 0.3144261 -0.6262406 -0.7134137
vn 0.3485333 -0.7191573 -0.6011133
vn 0.3188309 -0.6846567 -0.6554328
vn 0.6910775 0.2179588 -0.6891342
vn 0.9064396 -0.06700327 -0.4169866
vn 0.9493495 0.03419688 -0.3123557
vn 0.9627774 -0.00754383 -0.2701902
vn 0.2622241 0.6374445 -0.724502
vn 0.4820952 0.6027398 -0.6358374
vn 0.3054655 0.7656941 -0.5660418
vn 0.270696 0.7069901 -0.6533672
vn 0.2345444 0.7704274 -0.5928158
vn 0.1212135 -0.9705794 -0.2080455
vn 0.2641258 -0.90324 -0.3382235
vn 0.2539467 -0.9671199 0.01378328
vn 0.3706139 -0.8491668 -0.376246
vn 0.2674099 -0.9563059 -0.1181995
vn 0.4180985 -0.9030678 -0.09829636
vn 0.2539467 -0.9671199 0.01378328
vn 0.4217703 -0.8470477 0.3234501
vn 0.6802852 -0.7328944 -0.008821491
vn 0.7792384 -0.5639524 0.2733957
vn 0.4456389 -0.6482528 0.6173932
vn 0.1085602 -0.8246948 0.5550614
vn 0.2433895 -0.9630883 0.1149888
vn 0.7047074 -0.4150926 0.5754004
vn 0.888208 -0.4100894 0.2071546
vn 0.8595315 -0.4927301 -0.1357306
vn 0.8882316 -0.4151909 -0.1966247
vn 0.8359593 -0.397993 0.3778541
vn 0.8774772 -0.4185383 0.2342205
vn 0.6887612 -0.3695667 0.6237215
vn 0.6891826 -0.3504445 0.6342049
vn 0.7174775 -0.3382927 0.6089203
vn 0.1447053 -0.9780774 0.1497497
vn 0.2539467 -0.9671199 0.01378328
vn 0.6578313 0.2213769 -0.7198959
vn 0.6049179 0.0745356 -0.7927917
vn 0.7022 0.2094363 -0.680479
vn 0.4769283 -0.06511913 -0.8765267
vn 0.3488902 -0.2809331 -0.894065
vn 0.1675948 -0.3120893 -0.9351535
vn -0.02030168 -0.3904229 -0.9204118
vn -0.05817565 -0.4633471 -0.8842652
vn 0.004277322 -0.587653 -0.8091018
vn 0.08708693 -0.6377779 -0.7652811
vn 0.04739686 -0.6305615 -0.7746907
vn 0.0307837 -0.6080149 -0.7933286
vn 0.1554443 -0.8253677 -0.5427756
g Plants_Church_mesh_1_0
f 3/3/3 2/2/2 1/1/1
f 5/5/5 4/4/4 3/3/3
f 3/3/3 4/4/4 6/6/6
f 5/5/5 7/7/7 4/4/4
f 8/8/8 7/7/7 5/5/5
f 9/9/9 8/8/8 5/5/5
f 9/9/9 5/5/5 10/10/10
f 10/10/10 5/5/5 11/11/11
f 12/12/12 8/8/8 9/9/9
f 12/12/12 13/13/13 8/8/8
f 14/14/14 13/13/13 12/12/12
f 8/8/8 15/15/15 7/7/7
f 13/13/13 15/15/15 8/8/8
f 14/14/14 16/16/16 13/13/13
f 17/17/17 16/16/16 14/14/14
f 17/17/17 18/18/18 16/16/16
f 16/16/16 18/18/18 19/19/19
f 16/16/16 19/19/19 20/20/20
f 13/13/13 20/20/20 15/15/15
f 16/16/16 20/20/20 13/13/13
f 23/23/23 22/22/22 21/21/21
f 25/25/25 24/24/24 2/2/2
f 28/28/28 27/27/27 26/26/26
f 26/26/26 27/27/27 29/29/29
f 27/27/27 30/30/30 29/29/29
f 29/29/29 30/30/30 31/31/31
f 30/30/30 32/32/32 31/31/31
f 31/31/31 32/32/32 33/33/33
f 32/32/32 34/34/34 33/33/33
f 33/33/33 34/34/34 35/35/35
f 34/34/34 36/36/36 35/35/35
f 35/35/35 36/36/36 37/37/37
f 36/36/36 38/38/38 37/37/37
f 41/41/41 40/40/40 39/39/39
f 43/43/43 42/42/42 41/41/41
f 41/41/41 42/42/42 44/44/44
f 43/43/43 45/45/45 42/42/42
f 46/46/46 45/45/45 43/43/43
f 47/47/47 46/46/46 43/43/43
f 47/47/47 43/43/43 48/48/48
f 48/48/48 43/43/43 49/49/49
f 50/50/50 46/46/46 47/47/47
f 50/50/50 51/51/51 46/46/46
f 52/52/52 51/51/51 50/50/50
f 46/46/46 53/53/53 45/45/45
f 51/51/51 53/53/53 46/46/46
f 52/52/52 54/54/54 51/51/51
f 55/55/55 54/54/54 52/52/52
f 55/55/55 56/56/56 54/54/54
f 54/54/54 56/56/56 57/57/57
f 54/54/54 57/57/57 58/58/58
f 51/51/51 58/58/58 53/53/53
f 54/54/54 58/58/58 51/51/51
f 48/48/48 60/60/60 59/59/59
f 62/62/62 44/44/44 61/61/61
f 65/65/65 64/64/64 63/63/63
f 63/63/63 64/64/64 66/66/66
f 64/64/64 67/67/67 66/66/66
f 66/66/66 67/67/67 68/68/68
f 67/67/67 69/69/69 68/68/68
f 68/68/68 69/69/69 70/70/70
f 69/69/69 71/71/71 70/70/70
f 70/70/70 71/71/71 72/72/72
f 71/71/71 73/73/73 72/72/72
f 72/72/72 73/73/73 74/74/74
f 73/73/73 75/75/75 74/74/74
f 78/78/78 77/77/77 76/76/76
f 80/80/80 78/78/78 79/79/79
f 80/80/80 82/82/82 81/81/81
f 83/83/83 82/82/82 80/80/80
f 82/82/82 84/84/84 78/78/78
f 78/78/78 84/84/84 85/85/85
f 83/83/83 86/86/86 82/82/82
f 87/87/87 86/86/86 83/83/83
f 82/82/82 88/88/88 84/84/84
f 86/86/86 88/88/88 82/82/82
f 87/87/87 89/89/89 86/86/86
f 90/90/90 89/89/89 87/87/87
f 86/86/86 91/91/91 88/88/88
f 89/89/89 91/91/91 86/86/86
f 93/93/93 85/85/85 92/92/92
f 96/96/96 95/95/95 94/94/94
f 94/94/94 95/95/95 97/97/97
f 95/95/95 98/98/98 97/97/97
f 97/97/97 98/98/98 99/99/99
f 98/98/98 100/100/100 99/99/99
f 101/101/101 96/96/96 94/94/94
f 102/102/102 96/96/96 101/101/101
f 105/105/105 104/104/104 103/103/103
f 105/105/105 106/106/106 104/104/104
f 107/107/107 106/106/106 105/105/105
f 106/106/106 108/108/108 104/104/104
f 104/104/104 108/108/108 109/109/109
f 104/104/104 109/109/109 110/110/110
f 107/107/107 111/111/111 106/106/106
f 112/112/112 111/111/111 107/107/107
f 106/106/106 113/113/113 108/108/108
f 111/111/111 113/113/113 106/106/106
f 111/111/111 114/114/114 113/113/113
f 115/115/115 114/114/114 111/111/111
f 116/116/116 115/115/115 111/111/111
f 115/115/115 117/117/117 114/114/114
f 118/118/118 117/117/117 115/115/115
f 118/118/118 119/119/119 117/117/117
f 118/118/118 120/120/120 119/119/119
f 121/121/121 120/120/120 118/118/118
f 122/122/122 118/118/118 115/115/115
f 121/121/121 118/118/118 122/122/122
f 122/122/122 115/115/115 123/123/123
f 109/109/109 108/108/108 124/124/124
f 103/103/103 109/109/109 124/124/124
f 124/124/124 108/108/108 125/125/125
f 108/108/108 126/126/126 125/125/125
f 125/125/125 126/126/126 127/127/127
f 130/130/130 129/129/129 128/128/128
f 129/129/129 131/131/131 128/128/128
f 134/134/134 133/133/133 132/132/132
f 137/137/137 136/136/136 135/135/135
f 136/136/136 138/138/138 135/135/135
f 135/135/135 138/138/138 139/139/139
f 138/138/138 140/140/140 139/139/139
f 139/139/139 140/140/140 141/141/141
f 140/140/140 142/142/142 141/141/141
f 145/145/145 144/144/144 143/143/143
f 146/146/146 145/145/145 143/143/143
f 149/149/149 148/148/148 147/147/147
f 152/152/152 151/151/151 150/150/150
f 155/155/155 154/154/154 153/153/153
f 155/155/155 156/156/156 154/154/154
f 155/155/155 157/157/157 156/156/156
f 158/158/158 157/157/157 155/155/155
f 159/159/159 158/158/158 155/155/155
f 159/159/159 155/155/155 160/160/160
f 158/158/158 161/161/161 157/157/157
f 162/162/162 161/161/161 158/158/158
f 163/163/163 162/162/162 158/158/158
f 164/164/164 162/162/162 163/163/163
f 164/164/164 165/165/165 162/162/162
f 166/166/166 165/165/165 164/164/164
f 162/162/162 167/167/167 161/161/161
f 165/165/165 167/167/167 162/162/162
f 166/166/166 168/168/168 165/165/165
f 169/169/169 168/168/168 166/166/166
f 169/169/169 170/170/170 168/168/168
f 168/168/168 170/170/170 171/171/171
f 168/168/168 171/171/171 172/172/172
f 165/165/165 172/172/172 167/167/167
f 168/168/168 172/172/172 165/165/165
f 175/175/175 174/174/174 173/173/173
f 178/178/178 177/177/177 176/176/176
f 176/176/176 177/177/177 179/179/179
f 177/177/177 180/180/180 179/179/179
f 181/181/181 178/178/178 176/176/176
f 183/183/183 178/178/178 182/182/182
f 185/185/185 183/183/183 184/184/184
f 186/186/186 183/183/183 185/185/185
f 189/189/189 188/188/188 187/187/187
f 188/188/188 190/190/190 187/187/187
f 187/187/187 190/190/190 191/191/191
f 190/190/190 192/192/192 191/191/191
f 191/191/191 153/153/153 193/193/193
f 196/196/196 195/195/195 194/194/194
f 197/197/197 196/196/196 194/194/194
f 198/198/198 196/196/196 197/197/197
f 201/201/201 200/200/200 199/199/199
f 200/200/200 202/202/202 199/199/199
f 199/199/199 204/204/204 203/203/203
f 204/204/204 205/205/205 203/203/203
f 203/203/203 205/205/205 206/206/206
f 205/205/205 207/207/207 206/206/206
f 210/210/210 209/209/209 208/208/208
f 212/212/212 211/211/211 210/210/210
f 215/215/215 214/214/214 213/213/213
f 215/215/215 216/216/216 214/214/214
f 215/215/215 217/217/217 216/216/216
f 218/218/218 217/217/217 215/215/215
f 218/218/218 219/219/219 217/217/217
f 220/220/220 219/219/219 218/218/218
f 221/221/221 220/220/220 218/218/218
f 221/221/221 218/218/218 222/222/222
f 223/223/223 220/220/220 221/221/221
f 223/223/223 224/224/224 220/220/220
f 225/225/225 224/224/224 223/223/223
f 220/220/220 226/226/226 219/219/219
f 224/224/224 226/226/226 220/220/220
f 225/225/225 227/227/227 224/224/224
f 228/228/228 227/227/227 225/225/225
f 228/228/228 229/229/229 227/227/227
f 227/227/227 229/229/229 230/230/230
f 227/227/227 230/230/230 231/231/231
f 224/224/224 231/231/231 226/226/226
f 227/227/227 231/231/231 224/224/224
f 231/231/231 230/230/230 232/232/232
f 235/235/235 234/234/234 233/233/233
f 233/233/233 234/234/234 236/236/236
f 234/234/234 237/237/237 236/236/236
f 236/236/236 237/237/237 238/238/238
f 237/237/237 239/239/239 238/238/238
f 238/238/238 239/239/239 240/240/240
f 239/239/239 241/241/241 240/240/240
f 240/240/240 241/241/241 242/242/242
f 233/233/233 236/236/236 243/243/243
f 243/243/243 236/236/236 244/244/244
f 236/236/236 238/238/238 244/244/244
f 238/238/238 240/240/240 245/245/245
f 244/244/244 238/238/238 245/245/245
f 245/245/245 240/240/240 246/246/246
f 240/240/240 242/242/242 246/246/246
f 246/246/246 242/242/242 247/247/247
f 241/241/241 248/248/248 242/242/242
f 251/251/251 250/250/250 249/249/249
f 250/250/250 252/252/252 249/249/249
f 255/255/255 254/254/254 253/253/253
f 253/253/253 257/257/257 256/256/256
f 257/257/257 258/258/258 256/256/256
f 256/256/256 258/258/258 259/259/259
f 262/262/262 261/261/261 260/260/260
f 265/265/265 264/264/264 263/263/263
f 265/265/265 266/266/266 264/264/264
f 269/269/269 268/268/268 267/267/267
f 269/269/269 270/270/270 268/268/268
f 269/269/269 271/271/271 270/270/270
f 272/272/272 271/271/271 269/269/269
f 273/273/273 272/272/272 269/269/269
f 273/273/273 269/269/269 274/274/274
f 272/272/272 275/275/275 271/271/271
f 276/276/276 275/275/275 272/272/272
f 277/277/277 276/276/276 272/272/272
f 278/278/278 276/276/276 277/277/277
f 278/278/278 279/279/279 276/276/276
f 280/280/280 279/279/279 278/278/278
f 276/276/276 281/281/281 275/275/275
f 279/279/279 281/281/281 276/276/276
f 280/280/280 282/282/282 279/279/279
f 283/283/283 282/282/282 280/280/280
f 283/283/283 284/284/284 282/282/282
f 282/282/282 284/284/284 285/285/285
f 282/282/282 285/285/285 286/286/286
f 279/279/279 286/286/286 281/281/281
f 282/282/282 286/286/286 279/279/279
f 289/289/289 288/288/288 287/287/287
f 292/292/292 291/291/291 290/290/290
f 293/293/293 292/292/292 290/290/290
f 294/294/294 292/292/292 293/293/293
f 295/295/295 294/294/294 293/293/293
f 297/297/297 294/294/294 296/296/296
f 300/300/300 299/299/299 298/298/298
f 301/301/301 300/300/300 298/298/298
f 302/302/302 300/300/300 301/301/301
f 305/305/305 304/304/304 303/303/303
f 304/304/304 306/306/306 303/303/303
f 303/303/303 308/308/308 307/307/307
f 308/308/308 309/309/309 307/307/307
f 307/307/307 309/309/309 310/310/310
f 309/309/309 311/311/311 310/310/310
f 314/314/314 313/313/313 312/312/312
f 313/313/313 315/315/315 312/312/312
f 312/312/312 315/315/315 316/316/316
f 315/315/315 317/317/317 316/316/316
f 316/316/316 317/317/317 318/318/318
f 321/321/321 320/320/320 319/319/319
f 322/322/322 320/320/320 321/321/321
f 325/325/325 324/324/324 323/323/323
f 327/327/327 326/326/326 325/325/325
f 330/330/330 329/329/329 328/328/328
f 332/332/332 331/331/331 329/329/329
f 334/334/334 333/333/333 331/331/331
f 335/335/335 333/333/333 334/334/334
f 335/335/335 336/336/336 333/333/333
f 337/337/337 336/336/336 335/335/335
f 338/338/338 337/337/337 335/335/335
f 338/338/338 335/335/335 339/339/339
f 339/339/339 335/335/335 340/340/340
f 341/341/341 337/337/337 338/338/338
f 341/341/341 342/342/342 337/337/337
f 337/337/337 343/343/343 336/336/336
f 342/342/342 343/343/343 337/337/337
f 342/342/342 344/344/344 343/343/343
f 345/345/345 344/344/344 342/342/342
f 345/345/345 346/346/346 344/344/344
f 345/345/345 347/347/347 346/346/346
f 348/348/348 347/347/347 345/345/345
f 349/349/349 345/345/345 342/342/342
f 348/348/348 345/345/345 349/349/349
f 349/349/349 342/342/342 341/341/341
f 339/339/339 351/351/351 350/350/350
f 354/354/354 353/353/353 352/352/352
f 352/352/352 353/353/353 355/355/355
f 353/353/353 356/356/356 355/355/355
f 355/355/355 356/356/356 357/357/357
f 356/356/356 358/358/358 357/357/357
f 357/357/357 358/358/358 359/359/359
f 358/358/358 360/360/360 359/359/359
f 359/359/359 360/360/360 361/361/361
f 360/360/360 362/362/362 361/361/361
f 361/361/361 362/362/362 363/363/363
f 362/362/362 364/364/364 363/363/363
