g Plants_Church2_mesh
v 138.9475 89.41198 -889.0234
v 139.2445 89.49932 -890.4236
v 144.4069 89.60667 -892.7229
v 148.6715 89.32257 -902.1132
v 152.6904 89.89887 -896.0182
v 141.8979 90.41325 -894.5391
v 157.6237 85.76822 -910.6237
v 164.718 85.14257 -899.7339
v 157.2745 92.43199 -893.7729
v 147.0713 91.57187 -891.9573
v 144.4069 89.60667 -892.7229
v 169.6574 91.30447 -891.9162
v 172.7521 77.89127 -901.4743
v 181.6687 84.64153 -891.8303
v 166.9842 78.44309 -914.6962
v 179.878 73.08353 -902.892
v 188.851 78.79498 -894.5048
v 193.5289 71.20099 -899.9275
v 187.7798 67.36169 -904.3251
v 175.3437 73.3312 -913.0101
v 138.9475 89.41198 -889.0234
v 144.4069 89.60667 -892.7229
v 147.0713 91.57187 -891.9573
v 141.8979 90.41325 -894.5391
v 144.4069 89.60667 -892.7229
v 192.918 70.50161 -898.5414
v 188.851 78.79498 -894.5048
v 193.5289 71.20099 -899.9275
v 187.7395 77.44703 -892.6105
v 181.6687 84.64153 -891.8303
v 179.2255 82.52335 -888.5751
v 169.6574 91.30447 -891.9162
v 167.6485 87.54831 -888.6797
v 157.2745 92.43199 -893.7729
v 156.3594 89.9524 -890.2521
v 147.0713 91.57187 -891.9573
v 147.6301 89.10387 -888.951
v 138.9475 89.41198 -889.0234
v 147.5424 81.23433 -858.7172
v 145.5508 81.15721 -860.5826
v 149.3381 81.45305 -863.8245
v 149.5846 80.35345 -874.329
v 156.256 81.65327 -869.4517
v 146.3671 82.02279 -864.8692
v 156.9765 77.38019 -882.1728
v 166.8865 76.88645 -876.1869
v 161.2931 84.71179 -868.4084
v 152.0034 83.549 -864.0492
v 149.3381 81.45305 -863.8245
v 172.3355 83.10986 -872.5932
v 174.4183 69.7156 -879.6522
v 180.9012 76.95953 -875.8138
v 165.4966 70.10739 -887.8401
v 181.0511 64.98331 -882.7366
v 185.5122 71.48553 -879.4784
v 187.1189 64.84814 -882.9225
v 183.4629 59.81815 -885.9406
v 173.7305 64.17574 -891.0285
v 147.5424 81.23433 -858.7172
v 149.3381 81.45305 -863.8245
v 145.5508 81.15721 -860.5826
v 149.3381 81.45305 -863.8245
v 186.932 65.1559 -879.4546
v 185.5122 71.48553 -879.4784
v 187.1189 64.84814 -882.9225
v 186.3739 71.0399 -875.3809
v 180.9012 76.95953 -875.8138
v 180.6916 75.44705 -870.8517
v 172.3355 83.10986 -872.5932
v 171.8584 80.06729 -867.5931
v 161.2931 84.71179 -868.4084
v 161.1766 82.2482 -865.3046
v 152.0034 83.549 -864.0492
v 153.3152 81.34796 -861.2817
v 147.5424 81.23433 -858.7172
v 176.8502 76.21276 -854.7872
v 174.4593 77.38074 -855.3965
v 175.6936 76.16324 -860.0803
v 176.8502 76.21276 -854.7872
v 178.9188 76.04631 -863.1533
v 175.6936 76.16324 -860.0803
v 176.4805 74.479 -866.7292
v 182.4693 73.73296 -870.2678
v 167.7995 77.95782 -866.2217
v 171.8727 81.07411 -859.8134
v 175.712 66.65041 -875.9837
v 187.1086 68.46366 -876.7849
v 169.1085 74.07898 -872.9509
v 175.3556 57.6638 -880.6088
v 189.6213 58.51725 -884.3581
v 168.2147 65.69681 -878.0108
v 174.4593 77.38074 -855.3965
v 175.6936 76.16324 -860.0803
v 187.4261 65.26493 -872.2484
v 182.4693 73.73296 -870.2678
v 187.1086 68.46366 -876.7849
v 182.437 71.48628 -866.7718
v 178.9188 76.04631 -863.1533
v 179.323 73.61443 -860.2317
v 176.8502 76.21276 -854.7872
v 189.7844 56.52853 -880.3672
v 189.6213 58.51725 -884.3581
v 210.4889 81.25169 -868.5593
v 206.4579 79.1963 -873.2524
v 211.0634 80.39278 -873.7606
v 204.2739 75.9548 -882.2084
v 214.6341 76.95931 -882.8552
v 197.1654 80.15189 -877.5025
v 205.7673 81.05074 -871.6777
v 210.4889 81.25169 -868.5593
v 200.6262 68.99143 -892.5884
v 215.4513 72.31657 -892.529
v 188.4712 75.95368 -887.1454
v 182.8111 67.07024 -893.9818
v 196.9628 56.96982 -895.4907
v 215.4513 72.31657 -892.529
v 182.4621 54.30157 -897.27
v 193.7231 48.44648 -898.0272
v 191.5804 41.36332 -900.2075
v 195.6824 44.18638 -901.9637
v 205.6259 52.31252 -900.6557
v 210.4573 61.35549 -899.2202
v 215.4513 72.31657 -892.529
v 208.5212 81.88815 -867.279
v 197.1581 81.14336 -873.2877
v 188.4712 75.95368 -887.1454
v 188.7738 77.04791 -882.6512
v 205.4209 50.45041 -900.8353
v 205.6259 52.31252 -900.6557
v 198.8154 44.14109 -900.1685
v 210.4573 61.35549 -899.2202
v 198.8154 44.14109 -900.1685
v 205.6259 52.31252 -900.6557
v 195.6824 44.18638 -901.9637
v 217.1986 69.6971 -887.6808
v 215.4513 72.31657 -892.529
v 213.7334 60.08469 -896.3981
v 214.6341 76.95931 -882.8552
v 215.4073 74.56771 -880.5015
v 211.0634 80.39278 -873.7606
v 211.8255 77.91862 -871.6683
v 210.4889 81.25169 -868.5593
v 213.7334 60.08469 -896.3981
v 215.4513 72.31657 -892.529
v 210.4573 61.35549 -899.2202
v 205.4209 50.45041 -900.8353
v 183.5721 67.56033 -890.7034
v 182.8111 67.07024 -893.9818
v 188.7738 77.04791 -882.6512
v 188.7738 77.04791 -882.6512
v 182.8111 67.07024 -893.9818
v 188.4712 75.95368 -887.1454
v 139.7404 73.15443 -910.3381
v 138.9794 70.93492 -914.2713
v 144.4446 69.45061 -916.5521
v 139.1227 68.76254 -918.1248
v 141.2688 61.9425 -925.6796
v 149.2454 65.69849 -924.5276
v 147.1851 70.94929 -918.797
v 139.7404 73.15443 -910.3381
v 147.5375 52.13768 -933.5475
v 159.209 58.24632 -929.6551
v 153.7191 69.17511 -925.5247
v 165.0479 67.38345 -931.331
v 167.2253 50.78146 -930.0625
v 176.3879 61.17829 -932.8993
v 154.6326 42.22743 -937.5923
v 173.9769 45.43345 -931.3731
v 183.9288 54.12846 -934.3442
v 187.5283 44.35959 -935.1002
v 180.6275 39.15957 -933.0073
v 163.8208 38.17699 -938.3392
v 147.1851 70.94929 -918.797
v 149.2454 65.69849 -924.5276
v 153.7191 69.17511 -925.5247
v 176.4765 61.35805 -929.9783
v 165.0479 67.38345 -931.331
v 176.3879 61.17829 -932.8993
v 165.3424 66.39687 -927.4944
v 153.7191 69.17511 -925.5247
v 184.1408 54.54654 -931.8103
v 184.1408 54.54654 -931.8103
v 183.9288 54.12846 -934.3442
v 184.1408 54.54654 -931.8103
v 187.7847 44.85069 -933.5267
v 187.5283 44.35959 -935.1002
v 155.4447 69.57823 -921.8709
v 153.7191 69.17511 -925.5247
v 165.3424 66.39687 -927.4944
v 147.1851 70.94929 -918.797
v 148.6121 71.25115 -915.5376
v 139.7404 73.15443 -910.3381
v 144.9285 73.73998 -909.3273
v 172.9249 56.29212 -925.0267
v 165.3424 66.39687 -927.4944
v 176.4765 61.35805 -929.9783
v 179.45 49.79958 -926.3852
v 184.1408 54.54654 -931.8103
v 162.2137 62.33034 -920.3116
v 165.3424 66.39687 -927.4944
v 172.9249 56.29212 -925.0267
v 155.4447 69.57823 -921.8709
v 153.259 64.32401 -917.0707
v 155.4447 69.57823 -921.8709
v 148.6121 71.25115 -915.5376
v 147.8905 68.34164 -912.7304
v 144.9285 73.73998 -909.3273
v 179.45 49.79958 -926.3852
v 184.1408 54.54654 -931.8103
v 183.4017 39.42873 -929.497
v 184.1408 54.54654 -931.8103
v 187.7847 44.85069 -933.5267
v 135.6313 25.07826 -935.8032
v 138.2676 24.47932 -939.048
v 143.4686 26.77291 -938.993
v 141.3946 24.32863 -941.8511
v 149.5477 22.68527 -948.0874
v 151.3538 29.28709 -942.3824
v 161.7593 20.8822 -952.5909
v 165.464 30.13421 -943.4775
v 152.6959 34.63659 -940.746
v 145.2776 30.1386 -939.4351
v 164.5182 40.86024 -941.3688
v 176.7132 28.01811 -943.275
v 177.7341 41.83023 -940.3964
v 175.4239 17.96802 -954.3304
v 184.6945 27.68295 -941.3364
v 187.3633 40.60675 -938.2821
v 195.3602 35.14937 -936.8049
v 193.0828 26.81702 -938.9288
v 185.287 19.64041 -951.1899
v 193.6953 22.86155 -944.0302
v 195.0637 35.46558 -933.1611
v 187.3633 40.60675 -938.2821
v 195.3602 35.14937 -936.8049
v 185.9192 40.61854 -932.9139
v 177.7341 41.83023 -940.3964
v 175.7064 41.43092 -934.793
v 164.5182 40.86024 -941.3688
v 163.928 38.86335 -937.986
v 152.6959 34.63659 -940.746
v 153.0069 34.34152 -937.9728
v 192.6682 28.55658 -925.8082
v 183.0242 33.09909 -927.6096
v 174.0725 34.25577 -930.2914
v 161.6409 31.74353 -932.3014
v 153.3022 27.68012 -933.6282
v 145.2776 30.1386 -939.4351
v 144.0639 29.86695 -936.0911
v 145.2776 30.1386 -939.4351
v 153.0069 34.34152 -937.9728
v 135.6313 25.07826 -935.8032
v 153.3022 27.68012 -933.6282
v 144.0639 29.86695 -936.0911
v 153.0069 34.34152 -937.9728
v 144.5909 26.4887 -932.6144
v 144.0639 29.86695 -936.0911
v 136.3982 27.63301 -932.7838
v 139.3874 26.52139 -931.6882
v 136.3982 27.63301 -932.7838
v 135.6313 25.07826 -935.8032
v 144.0639 29.86695 -936.0911
v 135.6313 25.07826 -935.8032
v 143.4686 26.77291 -938.993
v 145.2776 30.1386 -939.4351
v 151.3538 29.28709 -942.3824
v 125.3371 34.57725 -905.4689
v 126.1556 35.05754 -908.9358
v 131.0084 36.66887 -908.5405
v 128.033 36.01536 -912.7911
v 136.3337 38.28314 -917.5271
v 139.0313 41.27927 -911.7225
v 132.6739 39.7423 -907.6922
v 125.3371 34.57725 -905.4689
v 148.047 39.04915 -921.4139
v 151.526 42.58169 -912.4726
v 139.9803 44.73729 -908.8478
v 150.4486 50.265 -906.7524
v 159.0432 37.03827 -924.0498
v 160.939 39.84862 -912.049
v 162.318 50.27979 -904.0313
v 169.0248 39.104 -911.3821
v 171.9456 48.78102 -903.7479
v 180.1352 44.21577 -906.4646
v 177.6385 37.98828 -911.3741
v 167.7134 36.96269 -923.7408
v 132.6739 39.7423 -907.6922
v 139.0313 41.27927 -911.7225
v 139.9803 44.73729 -908.8478
v 161.541 48.45881 -902.14
v 150.4486 50.265 -906.7524
v 162.318 50.27979 -904.0313
v 150.2371 47.17276 -904.7046
v 139.9803 44.73729 -908.8478
v 171.2207 47.39327 -901.9161
v 171.2207 47.39327 -901.9161
v 171.9456 48.78102 -903.7479
v 160.6102 41.21227 -903.3783
v 150.2371 47.17276 -904.7046
v 161.541 48.45881 -902.14
v 148.482 39.14505 -903.9195
v 169.1879 39.74858 -903.3707
v 171.2207 47.39327 -901.9161
v 139.9558 43.62514 -906.0162
v 150.2371 47.17276 -904.7046
v 140.1333 36.69497 -906.6588
v 139.9558 43.62514 -906.0162
v 132.5949 38.75983 -905.3115
v 133.0004 34.94063 -905.3018
v 127.4063 34.70921 -903.1418
v 139.9558 43.62514 -906.0162
v 139.9803 44.73729 -908.8478
v 150.2371 47.17276 -904.7046
v 139.9558 43.62514 -906.0162
v 132.6739 39.7423 -907.6922
v 139.9803 44.73729 -908.8478
v 132.5949 38.75983 -905.3115
v 139.9558 43.62514 -906.0162
v 125.3371 34.57725 -905.4689
v 127.4063 34.70921 -903.1418
v 171.2207 47.39327 -901.9161
v 171.9456 48.78102 -903.7479
v 179.6439 43.52494 -905.1547
v 180.1352 44.21577 -906.4646
v 169.1879 39.74858 -903.3707
v 171.2207 47.39327 -901.9161
v 178.5585 36.47694 -907.5741
v 171.2207 47.39327 -901.9161
v 179.6439 43.52494 -905.1547
v 151.8771 85.06635 -911.4557
v 151.9065 84.54802 -912.7924
v 156.548 83.37294 -915.7965
v 153.7312 83.51083 -917.3101
v 156.548 83.37294 -915.7965
v 159.101 79.01064 -924.4144
v 156.548 83.37294 -915.7965
v 165.325 81.37644 -921.0554
v 166.5257 71.87102 -930.5406
v 174.7671 74.44572 -922.3776
v 168.7793 84.63004 -920.8061
v 159.2737 85.30846 -916.4053
v 156.548 83.37294 -915.7965
v 179.0702 83.52028 -920.3969
v 183.1378 64.55254 -920.2744
v 192.7114 74.74561 -917.7774
v 174.24 62.76731 -933.5099
v 190.8253 56.37376 -918.2216
v 201.1824 65.50251 -916.2642
v 203.4958 55.20487 -915.9957
v 196.424 48.64507 -917.5945
v 183.6854 55.28044 -929.0959
v 151.8771 85.06635 -911.4557
v 156.548 83.37294 -915.7965
v 203.1658 55.18088 -914.3605
v 201.1824 65.50251 -916.2642
v 203.4958 55.20487 -915.9957
v 200.4572 65.18397 -913.8775
v 192.7114 74.74561 -917.7774
v 190.2735 74.62944 -913.9304
v 179.0702 83.52028 -920.3969
v 177.6901 81.39101 -917.3287
v 168.7793 84.63004 -920.8061
v 168.595 83.82717 -917.1058
v 159.2737 85.30846 -916.4053
v 160.2816 84.1829 -913.6204
v 151.8771 85.06635 -911.4557
vt 0.300563 0.929009
vt 0.300815 0.926411
vt 0.310307 0.922667
vt 0.317059 0.904942
vt 0.325549 0.917476
vt 0.304527 0.919359
vt 0.335451 0.887518
vt 0.3516 0.908959
vt 0.333031 0.923818
vt 0.314188 0.925604
vt 0.310307 0.922667
vt 0.358199 0.928174
vt 0.371957 0.902343
vt 0.386174 0.92582
vt 0.3581 0.876552
vt 0.388837 0.897676
vt 0.403666 0.918106
vt 0.417002 0.903852
vt 0.407789 0.892558
vt 0.378173 0.877856
vt 0.300563 0.929009
vt 0.310307 0.922667
vt 0.314188 0.925604
vt 0.304527 0.919359
vt 0.310307 0.922667
vt 0.416524 0.906031
vt 0.403666 0.918106
vt 0.417002 0.903852
vt 0.402756 0.920816
vt 0.386174 0.92582
vt 0.383466 0.930523
vt 0.358199 0.928174
vt 0.357521 0.931931
vt 0.333031 0.923818
vt 0.333664 0.929012
vt 0.314188 0.925604
vt 0.317602 0.929983
vt 0.300563 0.929009
vt 0.411155 0.81227
vt 0.407052 0.808461
vt 0.413536 0.802947
vt 0.412913 0.78238
vt 0.425699 0.793207
vt 0.407233 0.80096
vt 0.427858 0.766556
vt 0.448329 0.778814
vt 0.433426 0.797618
vt 0.417132 0.804098
vt 0.413536 0.802947
vt 0.455111 0.789999
vt 0.467194 0.768871
vt 0.47533 0.781208
vt 0.448371 0.75249
vt 0.482663 0.761009
vt 0.487345 0.771538
vt 0.494378 0.761281
vt 0.490275 0.752197
vt 0.467767 0.743928
vt 0.411155 0.81227
vt 0.413536 0.802947
vt 0.407052 0.808461
vt 0.413536 0.802947
vt 0.494379 0.768022
vt 0.487345 0.771538
vt 0.494378 0.761281
vt 0.489982 0.779157
vt 0.47533 0.781208
vt 0.476796 0.789706
vt 0.455111 0.789999
vt 0.457162 0.797618
vt 0.433426 0.797618
vt 0.435477 0.802014
vt 0.417132 0.804098
vt 0.421704 0.808168
vt 0.411155 0.81227
vt 0.388949 0.990667
vt 0.383456 0.989944
vt 0.385873 0.980506
vt 0.388949 0.990667
vt 0.391632 0.975004
vt 0.385873 0.980506
vt 0.387424 0.967008
vt 0.398853 0.96056
vt 0.368544 0.968868
vt 0.375078 0.982868
vt 0.389768 0.944737
vt 0.410281 0.945616
vt 0.372479 0.954113
vt 0.394457 0.930671
vt 0.420589 0.925716
vt 0.375703 0.939462
vt 0.383456 0.989944
vt 0.385873 0.980506
vt 0.413798 0.952356
vt 0.398853 0.96056
vt 0.410281 0.945616
vt 0.400904 0.965835
vt 0.391632 0.975004
vt 0.394561 0.979109
vt 0.388949 0.990667
vt 0.422882 0.932136
vt 0.420589 0.925716
vt 0.448043 0.97161
vt 0.440889 0.960976
vt 0.448905 0.961268
vt 0.437415 0.941736
vt 0.456661 0.942311
vt 0.421616 0.952364
vt 0.438564 0.965003
vt 0.448043 0.97161
vt 0.433387 0.917426
vt 0.459809 0.921201
vt 0.406099 0.930471
vt 0.400123 0.911587
vt 0.433927 0.904523
vt 0.459809 0.921201
vt 0.407604 0.897943
vt 0.433001 0.894459
vt 0.433274 0.886065
vt 0.438962 0.884793
vt 0.452846 0.893025
vt 0.456384 0.90149
vt 0.459809 0.921201
vt 0.444022 0.974195
vt 0.421617 0.960982
vt 0.406099 0.930471
vt 0.40668 0.939725
vt 0.453655 0.8916
vt 0.452846 0.893025
vt 0.445271 0.888534
vt 0.456384 0.90149
vt 0.445271 0.888534
vt 0.452846 0.893025
vt 0.438962 0.884793
vt 0.465668 0.929127
vt 0.459809 0.921201
vt 0.463972 0.90652
vt 0.456661 0.942311
vt 0.460107 0.94547
vt 0.448905 0.961268
vt 0.452352 0.963854
vt 0.448043 0.97161
vt 0.463972 0.90652
vt 0.459809 0.921201
vt 0.456384 0.90149
vt 0.453655 0.8916
vt 0.401798 0.918211
vt 0.400123 0.911587
vt 0.40668 0.939725
vt 0.40668 0.939725
vt 0.400123 0.911587
vt 0.406099 0.930471
vt 0.238067 0.881701
vt 0.237492 0.872797
vt 0.248692 0.868202
vt 0.238641 0.86418
vt 0.246397 0.846083
vt 0.259198 0.851299
vt 0.252426 0.865041
vt 0.238067 0.881701
vt 0.264206 0.826263
vt 0.282914 0.838427
vt 0.265065 0.851828
vt 0.287183 0.840913
vt 0.303684 0.834445
vt 0.313323 0.835742
vt 0.284314 0.813911
vt 0.320251 0.829765
vt 0.332665 0.829934
vt 0.346375 0.823551
vt 0.337166 0.823965
vt 0.304708 0.811327
vt 0.252426 0.865041
vt 0.259198 0.851299
vt 0.265065 0.851828
vt 0.313898 0.841487
vt 0.287183 0.840913
vt 0.313323 0.835742
vt 0.289194 0.847807
vt 0.265065 0.851828
vt 0.333229 0.835068
vt 0.333229 0.835068
vt 0.332665 0.829934
vt 0.333229 0.835068
vt 0.346798 0.82687
vt 0.346375 0.823551
vt 0.2688 0.859297
vt 0.265065 0.851828
vt 0.289194 0.847807
vt 0.252426 0.865041
vt 0.255587 0.871648
vt 0.238067 0.881701
vt 0.247831 0.884574
vt 0.3116 0.847807
vt 0.289194 0.847807
vt 0.313898 0.841487
vt 0.328548 0.842349
vt 0.333229 0.835068
vt 0.287471 0.859009
vt 0.289194 0.847807
vt 0.3116 0.847807
vt 0.2688 0.859297
vt 0.269375 0.865329
vt 0.2688 0.859297
vt 0.255587 0.871648
vt 0.256897 0.875313
vt 0.247831 0.884574
vt 0.328548 0.842349
vt 0.333229 0.835068
vt 0.342911 0.831147
vt 0.333229 0.835068
vt 0.346798 0.82687
vt 0.188833 0.843455
vt 0.19182 0.835742
vt 0.200665 0.832673
vt 0.195842 0.828562
vt 0.207618 0.811901
vt 0.212114 0.821446
vt 0.2283 0.796102
vt 0.237663 0.810846
vt 0.213466 0.823614
vt 0.202301 0.830677
vt 0.232771 0.815124
vt 0.259939 0.804521
vt 0.258127 0.808952
vt 0.254055 0.784726
vt 0.276475 0.803405
vt 0.278368 0.807193
vt 0.296736 0.805343
vt 0.294299 0.802951
vt 0.274084 0.784686
vt 0.293528 0.793063
vt 0.29856 0.812434
vt 0.278368 0.807193
vt 0.296736 0.805343
vt 0.279339 0.818286
vt 0.258127 0.808952
vt 0.258333 0.820865
vt 0.232771 0.815124
vt 0.234855 0.821974
vt 0.213466 0.823614
vt 0.216111 0.828701
vt 0.301835 0.827987
vt 0.280579 0.830285
vt 0.261334 0.830572
vt 0.237492 0.834306
vt 0.222555 0.836891
vt 0.202301 0.830677
vt 0.202448 0.837753
vt 0.202301 0.830677
vt 0.216111 0.828701
vt 0.188833 0.843455
vt 0.222555 0.836891
vt 0.202448 0.837753
vt 0.216111 0.828701
vt 0.207331 0.844072
vt 0.202448 0.837753
vt 0.191245 0.848668
vt 0.198139 0.848955
vt 0.191245 0.848668
vt 0.188833 0.843455
vt 0.202448 0.837753
vt 0.188833 0.843455
vt 0.200665 0.832673
vt 0.202301 0.830677
vt 0.212114 0.821446
vt 0.290632 0.911288
vt 0.286898 0.905256
vt 0.294822 0.89912
vt 0.284248 0.897115
vt 0.288047 0.879978
vt 0.301335 0.882006
vt 0.299497 0.895436
vt 0.290632 0.911288
vt 0.298962 0.861882
vt 0.318049 0.866788
vt 0.309811 0.881236
vt 0.329435 0.867637
vt 0.311314 0.848956
vt 0.332316 0.860314
vt 0.349761 0.859097
vt 0.344089 0.853713
vt 0.362796 0.851156
vt 0.36829 0.843817
vt 0.355439 0.8461
vt 0.323665 0.840626
vt 0.299497 0.895436
vt 0.301335 0.882006
vt 0.309811 0.881236
vt 0.35074 0.864302
vt 0.329435 0.867637
vt 0.349761 0.859097
vt 0.330958 0.873774
vt 0.309811 0.881236
vt 0.363918 0.855775
vt 0.363918 0.855775
vt 0.362796 0.851156
vt 0.344915 0.870941
vt 0.330958 0.873774
vt 0.35074 0.864302
vt 0.326667 0.884778
vt 0.35611 0.863653
vt 0.363918 0.855775
vt 0.314131 0.887512
vt 0.330958 0.873774
vt 0.310884 0.893461
vt 0.314131 0.887512
vt 0.303139 0.901019
vt 0.302319 0.904455
vt 0.296952 0.91215
vt 0.314131 0.887512
vt 0.309811 0.881236
vt 0.330958 0.873774
vt 0.314131 0.887512
vt 0.299497 0.895436
vt 0.309811 0.881236
vt 0.303139 0.901019
vt 0.314131 0.887512
vt 0.290632 0.911288
vt 0.296952 0.91215
vt 0.363918 0.855775
vt 0.362796 0.851156
vt 0.369242 0.846776
vt 0.36829 0.843817
vt 0.35611 0.863653
vt 0.363918 0.855775
vt 0.361579 0.851789
vt 0.363918 0.855775
vt 0.369242 0.846776
vt 0.324286 0.871231
vt 0.3248 0.868587
vt 0.335217 0.863646
vt 0.329686 0.859975
vt 0.335217 0.863646
vt 0.343773 0.847232
vt 0.335217 0.863646
vt 0.354716 0.855145
vt 0.363018 0.837179
vt 0.377162 0.849699
vt 0.360146 0.856137
vt 0.339908 0.862865
vt 0.335217 0.863646
vt 0.38091 0.859297
vt 0.399576 0.855521
vt 0.412425 0.868201
vt 0.383125 0.833732
vt 0.417241 0.862874
vt 0.433206 0.873743
vt 0.442176 0.875518
vt 0.430643 0.864909
vt 0.404669 0.845222
vt 0.324286 0.871231
vt 0.335217 0.863646
vt 0.441272 0.878694
vt 0.433206 0.873743
vt 0.442176 0.875518
vt 0.431515 0.878367
vt 0.412425 0.868201
vt 0.406967 0.875383
vt 0.38091 0.859297
vt 0.379104 0.865329
vt 0.360146 0.856137
vt 0.359571 0.863605
vt 0.339908 0.862865
vt 0.342049 0.868776
vt 0.324286 0.871231
vn -0.142563 0.9879159 0.06081207
vn 0.05655993 0.9833152 0.1728935
vn -0.07112671 0.9848899 -0.1579013
vn 0.1264216 0.990044 -0.06189081
vn -0.0001172891 0.8992671 -0.4374
vn 0.1782853 0.9667967 0.1830804
vn 0.3420179 0.9135508 -0.2201106
vn 0.3577825 0.7880734 -0.5009313
vn 0.005526514 0.734951 -0.6780977
vn -0.2880343 0.7450698 -0.6015872
vn -0.1077122 0.9623623 -0.2495134
vn 0.2967481 0.6408663 -0.7079765
vn 0.4683166 0.7359329 -0.4889604
vn 0.2949019 0.6276747 -0.7204563
vn 0.5585343 0.793093 -0.2429877
vn 0.3670125 0.7196493 -0.5894122
vn 0.2522255 0.6527581 -0.7143452
vn 0.2478197 0.6033014 -0.7580321
vn 0.423548 0.7219568 -0.5471612
vn 0.5341398 0.8182538 -0.2124982
vn -0.2087043 0.9432374 -0.258352
vn -0.07112671 0.9848899 -0.1579013
vn -0.2880343 0.7450698 -0.6015872
vn 0.1782853 0.9667967 0.1830804
vn -0.01908707 0.9991536 -0.03643924
vn 0.8386059 0.1574184 0.5214975
vn 0.7737612 0.255346 0.5797345
vn 0.8592972 0.1903196 0.4747491
vn 0.6779519 0.3304629 0.6566395
vn 0.5177412 0.5033863 0.6917704
vn 0.3949871 0.5466261 0.7383665
vn 0.1817108 0.6332933 0.7522771
vn 0.09275457 0.6874055 0.7203265
vn 0.0246167 0.7662438 0.6420783
vn 0.04769455 0.7975274 0.6013945
vn 0.02539193 0.7877095 0.6155233
vn 0.0205896 0.7746123 0.6321012
vn 0.01571382 0.9307473 0.365325
vn -0.1713583 0.9748011 0.1428259
vn 0.02551812 0.9924008 0.1203723
vn -0.1804598 0.9734575 -0.140765
vn 0.05120783 0.9831762 -0.175335
vn -0.1652763 0.8649449 -0.4738714
vn 0.1672517 0.9840245 0.06101286
vn 0.2082194 0.9022379 -0.3776394
vn 0.1211327 0.7415168 -0.6599088
vn -0.2565275 0.6691733 -0.6974244
vn -0.5093309 0.7269135 -0.4606289
vn -0.2390821 0.9468358 -0.2152716
vn -0.0519168 0.5226634 -0.8509569
vn 0.2278557 0.6743048 -0.7024207
vn -0.04620952 0.4882366 -0.8714871
vn 0.4138757 0.7800097 -0.4693524
vn 0.1378479 0.601908 -0.7865778
vn -0.05609034 0.4777797 -0.8766872
vn -0.01579558 0.4900567 -0.8715474
vn 0.2908827 0.5987344 -0.7462603
vn 0.4615134 0.7521234 -0.4704421
vn -0.3568412 0.9302323 -0.08562851
vn -0.1804598 0.9734575 -0.140765
vn 0.02551812 0.9924008 0.1203723
vn -0.09781166 0.9947098 -0.03138867
vn 0.9731996 0.2180185 -0.07314632
vn 0.9209366 0.3817844 -0.07820829
vn 0.975193 0.2188653 0.0331176
vn 0.8388779 0.5442433 -0.009123609
vn 0.6977491 0.7032125 0.136522
vn 0.6286861 0.7074595 0.3228852
vn 0.5000466 0.7568219 0.4209206
vn 0.3806827 0.7535854 0.5359009
vn 0.262434 0.7718606 0.5791025
vn 0.22199 0.7751715 0.5914638
vn 0.2025177 0.7963986 0.5698561
vn 0.20725 0.8111518 0.5468823
vn 0.08649524 0.951511 0.295204
vn 0.5144231 0.8568807 0.033532
vn 0.6409053 0.7670146 -0.03048157
vn 0.3738405 0.902389 -0.2143302
vn 0.2472358 0.9669007 -0.06306877
vn -0.09615914 0.9725328 -0.2119748
vn 0.2667965 0.9272397 -0.2627661
vn 0.09997345 0.8960633 -0.4325226
vn -0.1756809 0.8107615 -0.5583925
vn 0.4414299 0.7866929 -0.4315716
vn 0.7427908 0.5946451 -0.307667
vn 0.04390704 0.6145133 -0.7876837
vn -0.1813202 0.5768412 -0.796478
vn 0.3267522 0.6898735 -0.6459934
vn -0.06688479 0.4922387 -0.8678868
vn -0.243135 0.5479832 -0.8003749
vn 0.1740218 0.4706092 -0.8650106
vn 0.6409053 0.7670146 -0.03048157
vn 0.4854808 0.8525319 -0.1936431
vn 0.9087418 0.362951 0.206046
vn 0.8564977 0.4367225 0.2751091
vn 0.9498816 0.2844456 0.1296749
vn 0.8543537 0.4396574 0.2770943
vn 0.8668827 0.4298116 0.25254
vn 0.8724296 0.4281537 0.2356925
vn 0.7229568 0.6886543 0.05557717
vn 0.9776993 0.1994743 0.0656827
vn 0.9777144 0.2011022 0.06027045
vn 0.09081478 0.9185145 -0.3848164
vn 0.1031277 0.8851189 -0.4537942
vn -0.217711 0.9340623 -0.2830716
vn 0.01951662 0.8891109 -0.4572755
vn -0.1412536 0.8807235 -0.4520768
vn 0.1169962 0.9173549 -0.3804891
vn 0.2412118 0.8570368 -0.4553072
vn 0.3616301 0.878817 -0.3112946
vn -0.02297926 0.6414053 -0.766858
vn -0.2274049 0.6187604 -0.7519459
vn -0.01954096 0.8709876 -0.4909161
vn 0.04139231 0.3666104 -0.9294533
vn -0.1044739 0.3395582 -0.934765
vn 0.01195005 0.550474 -0.8347667
vn 0.07347798 0.2595832 -0.9629214
vn -0.2487263 0.3751954 -0.8929522
vn -0.267731 0.3565162 -0.8951069
vn -0.4663328 0.4750606 -0.7462246
vn -0.1846159 0.2721949 -0.9443659
vn -0.2369781 0.3607489 -0.9020541
vn -0.2274049 0.6187604 -0.7519459
vn 0.0780438 0.9686515 -0.2358464
vn -0.126485 0.966126 -0.2249495
vn -0.1673484 0.8773264 -0.4497699
vn -0.7144199 0.6976573 -0.05365047
vn 0.1942682 0.01114226 -0.9808851
vn -0.05864125 0.1400078 -0.9884123
vn 0.1316385 -0.167968 -0.9769637
vn 0.07398602 0.2617985 -0.9622825
vn 0.1316385 -0.167968 -0.9769637
vn 0.1373385 -0.08035884 -0.9872592
vn 0.4467408 -0.4194557 -0.7902402
vn 0.9587091 0.2397796 -0.1529133
vn 0.8901039 0.1799388 -0.4187328
vn 0.7677207 -0.01788999 -0.6405348
vn 0.9186232 0.3943067 0.02556578
vn 0.9052098 0.4052217 0.1280258
vn 0.9025428 0.407682 0.1386071
vn 0.9151236 0.3844787 0.121346
vn 0.7524215 0.5713884 -0.3276847
vn 0.7677207 -0.01788999 -0.6405348
vn 0.7344033 0.2256712 -0.6400971
vn 0.4974094 0.01693725 -0.8673506
vn 0.1942682 0.01114226 -0.9808851
vn -0.9161475 0.368578 0.1575564
vn -0.875156 0.4825264 0.03564238
vn -0.7144199 0.6976573 -0.05365047
vn -0.7144199 0.6976573 -0.05365047
vn -0.875156 0.4825264 0.03564238
vn -0.4392245 0.878752 -0.1867528
vn -0.1611333 0.8600237 -0.484144
vn 0.03056833 0.8696573 -0.4927087
vn -0.2808844 0.7190037 -0.6357182
vn 0.06413386 0.8162436 -0.574137
vn -0.1168881 0.7168914 -0.6873165
vn -0.3596761 0.523667 -0.7722732
vn -0.6520124 0.385559 -0.6528583
vn -0.2600209 0.7680541 -0.5852196
vn -0.02705705 0.5169228 -0.8556043
vn -0.09965825 0.2713702 -0.9573016
vn -0.4536815 0.2750849 -0.8476447
vn -0.2587624 -0.02576999 -0.9655972
vn 0.01958936 0.1975855 -0.9800899
vn -0.2211916 -0.07168646 -0.972592
vn 0.1756696 0.4340811 -0.8835801
vn -0.09607889 0.1410411 -0.9853306
vn -0.2531427 -0.04055054 -0.9665787
vn -0.2671604 -0.02821984 -0.9632388
vn -0.01439217 0.2377279 -0.9712252
vn 0.2080438 0.4933518 -0.8445838
vn -0.3196584 0.818748 -0.4769384
vn -0.3596761 0.523667 -0.7722732
vn -0.2516378 0.6735038 -0.6950331
vn 0.5613638 0.6990815 0.4428948
vn 0.3964101 0.9106517 0.1165021
vn 0.5974234 0.7951133 -0.1043082
vn 0.4361691 0.810263 0.3914466
vn 0.1913171 0.9804583 -0.04581861
vn 0.7709333 0.6273353 0.1100553
vn 0.7611446 0.6354304 -0.1299506
vn 0.8450824 0.4978461 -0.1948979
vn 0.806453 0.5354462 0.2508605
vn 0.9112805 0.3613286 -0.1975084
vn 0.9003522 0.3515968 -0.256409
vn 0.2563362 0.9663112 0.023118
vn 0.004875431 0.9733575 -0.229241
vn 0.430714 0.8529217 0.2949745
vn -0.05622983 0.95085 -0.3045036
vn 0.06989267 0.9715826 -0.2261466
vn 0.04238882 0.9367701 -0.3473685
vn -0.02874496 0.9218472 -0.3864863
vn 0.5062705 0.483386 0.7141625
vn 0.4633485 0.735347 0.4945433
vn 0.5613638 0.6990815 0.4428948
vn 0.5989546 0.2760493 0.7516983
vn 0.7931931 0.3837346 0.4728555
vn 0.5030707 0.5780264 0.6424993
vn 0.4361691 0.810263 0.3914466
vn 0.5062705 0.483386 0.7141625
vn 0.3989497 0.8678867 0.2959928
vn 0.615311 0.4106392 0.6728804
vn 0.5448456 0.4958197 0.6762441
vn 0.7729744 0.2983992 0.5598826
vn 0.811981 0.2882906 0.5075189
vn 0.8756751 0.204776 0.4373326
vn 0.5989546 0.2760493 0.7516983
vn 0.7703558 0.2510415 0.5861145
vn 0.6692938 0.08030697 0.7386451
vn 0.6256453 0.1801134 0.7590305
vn 0.6111009 0.09045415 0.7863675
vn -0.4649009 0.6954156 -0.5479638
vn -0.3578373 0.8220551 -0.4429196
vn -0.403649 0.5979995 -0.6924335
vn -0.2985154 0.8214559 -0.4859001
vn -0.2945068 0.7220408 -0.6260374
vn -0.2813131 0.4911445 -0.8244028
vn -0.07002127 0.6957842 -0.7148296
vn -0.01327182 0.4922136 -0.8703732
vn -0.2038084 0.2851734 -0.9365566
vn -0.501483 0.5396724 -0.6762164
vn -0.01111421 0.1926791 -0.9811988
vn 0.1360618 0.4932899 -0.8591578
vn 0.1770402 0.1869153 -0.9662915
vn 0.09822627 0.7155187 -0.6916537
vn 0.2604589 0.3891721 -0.8835757
vn 0.2595245 0.1710304 -0.9504713
vn 0.2869685 0.1629825 -0.9439734
vn 0.2604204 0.6029577 -0.7540712
vn 0.1808372 0.7623412 -0.6213967
vn 0.1976319 0.7860388 -0.5857342
vn 0.5039108 0.8156341 0.2842795
vn 0.4015168 0.914701 0.04589247
vn 0.566699 0.8235343 -0.02536645
vn 0.1932961 0.856431 0.4787092
vn 0.03516624 0.9978264 0.05572836
vn -0.1672364 0.8260147 0.5382674
vn -0.2707746 0.9118673 0.3085112
vn -0.3342705 0.7653652 0.5499812
vn -0.4310586 0.8712928 0.2346
vn -0.3802665 0.7998888 0.4643009
vn 0.2368387 0.588091 0.773341
vn -0.05691602 0.5697275 0.8198605
vn -0.2506601 0.5882291 0.7688667
vn -0.2960374 0.6030521 0.7407361
vn -0.1623773 0.5948867 0.7872378
vn -0.4864344 0.8734975 -0.01958777
vn -0.3155237 0.935478 0.1591403
vn -0.5059575 0.8237725 -0.2557456
vn -0.4280604 0.8262235 0.3662226
vn -0.4376288 0.8231142 -0.3618894
vn -0.1623773 0.5948867 0.7872378
vn -0.008386377 0.6649431 0.7468469
vn -0.3466001 0.7482409 0.5656888
vn 0.05818091 0.7578639 0.6498131
vn -0.2255391 0.8566309 0.4640211
vn 0.09552539 0.7761928 0.6232172
vn 0.1038678 0.8257329 0.5544157
vn -0.4368445 0.7383627 -0.5137969
vn -0.4649009 0.6954156 -0.5479638
vn -0.4741085 0.8457506 -0.2448
vn -0.4294541 0.5974142 -0.6772484
vn -0.403649 0.5979995 -0.6924335
vn -0.3967583 0.1861231 -0.8988554
vn -0.2813131 0.4911445 -0.8244028
vn -0.511216 0.8592392 0.01913308
vn -0.3193447 0.9452451 0.067311
vn -0.4619863 0.8505228 -0.2513559
vn -0.2850861 0.9570678 0.05241086
vn -0.3349659 0.9246506 -0.1811605
vn -0.3576622 0.7822148 -0.5101153
vn -0.5407364 0.5339102 -0.6500339
vn -0.4851848 0.8012071 -0.3502327
vn -0.07685996 0.9265485 -0.3682397
vn 0.03329119 0.8129969 -0.5813154
vn -0.2649774 0.6331378 -0.7272712
vn 0.08307838 0.5960557 -0.7986336
vn 0.1247004 0.946757 -0.2968181
vn 0.1620721 0.8272989 -0.5378748
vn 0.139 0.5911331 -0.7945066
vn 0.1097626 0.769944 -0.6286004
vn 0.09463416 0.5988223 -0.7952712
vn 0.07577945 0.600827 -0.7957792
vn 0.1097488 0.8435284 -0.5257517
vn 0.08282126 0.9766799 -0.1980835
vn -0.5986329 0.7776684 -0.1920173
vn -0.3576622 0.7822148 -0.5101153
vn -0.3899953 0.8494706 -0.3553917
vn -0.1136222 0.2831475 0.9523222
vn -0.2762192 0.6112765 0.7416496
vn 0.004284096 0.7458529 0.666097
vn -0.2668231 0.3765367 0.8871446
vn -0.4381849 0.7592963 0.4811061
vn 0.1774928 0.5284302 0.8302155
vn 0.2302063 0.7026434 0.6732736
vn 0.3933595 0.6813169 0.6173131
vn -0.099772 -0.06513803 0.9928759
vn -0.2320373 0.2460674 0.9410682
vn -0.1136222 0.2831475 0.9523222
vn -0.174457 0.04974503 0.9834074
vn 0.08389423 -0.2028222 0.9756151
vn 0.2416484 0.1165954 0.9633335
vn -0.2812662 0.3983698 0.8730353
vn -0.2668231 0.3765367 0.8871446
vn 0.01668998 -0.05512784 0.9983398
vn -0.1034531 -0.01719212 0.9944857
vn 0.2321153 -0.008429899 0.9726518
vn 0.2712181 0.03126065 0.9620101
vn 0.3584391 0.0404477 0.9326765
vn -0.4222344 0.7277514 0.5404591
vn -0.5198359 0.8209608 0.2362074
vn -0.3174545 0.556843 0.7675601
vn -0.4512272 0.8315365 0.3239461
vn -0.5453106 0.8322114 0.1003028
vn -0.5198359 0.8209608 0.2362074
vn -0.4833909 0.8081277 0.3365453
vn -0.4222344 0.7277514 0.5404591
vn -0.4283038 0.8673562 0.2534738
vn -0.4695038 0.8007002 0.3720826
vn 0.221099 0.3772641 0.8993259
vn 0.3933595 0.6813169 0.6173131
vn 0.5256104 0.6115437 0.591395
vn 0.5391343 0.6445369 0.5421314
vn 0.08389423 -0.2028222 0.9756151
vn 0.2730254 -0.05650297 0.960346
vn 0.2574403 -0.3025987 0.9176919
vn 0.1593578 -0.2635461 0.951393
vn 0.194524 -0.345139 0.9181718
vn -0.1283583 0.94179 -0.3107339
vn 0.07064016 0.9611549 -0.266817
vn -0.1147193 0.831193 -0.5440199
vn 0.1941298 0.9414938 -0.275505
vn -0.04152971 0.8916887 -0.4507399
vn 0.09288855 0.8452086 -0.5263023
vn -0.1147193 0.831193 -0.5440199
vn -0.07207832 0.5776798 -0.8130749
vn 0.3281751 0.6697394 -0.6661459
vn 0.34174 0.3847643 -0.8574207
vn -0.116394 0.2565961 -0.9594847
vn -0.4281828 0.4186659 -0.800861
vn -0.1669565 0.7743031 -0.6103935
vn 0.1953128 0.09595032 -0.976036
vn 0.512819 0.2950738 -0.8061936
vn 0.2165636 0.01389929 -0.9761696
vn 0.6132416 0.542573 -0.5740638
vn 0.39776 0.1925124 -0.8970653
vn 0.1777669 0.009315347 -0.9840285
vn 0.1757227 0.03102772 -0.9839506
vn 0.4891014 0.287483 -0.8234885
vn 0.6897783 0.5101258 -0.5137875
vn -0.2695513 0.7628861 -0.5876622
vn -0.1147193 0.831193 -0.5440199
vn 0.9400439 0.2274942 0.2540942
vn 0.8795639 0.3872434 0.2764233
vn 0.9556313 0.2197948 0.1961095
vn 0.7636876 0.5419475 0.3508196
vn 0.5932652 0.7269054 0.3458975
vn 0.4500297 0.7637829 0.4627191
vn 0.260973 0.8112646 0.5232044
vn 0.1892676 0.8521342 0.4878988
vn 0.1669021 0.9224867 0.3480832
vn 0.1999328 0.9473248 0.2502053
vn 0.1734108 0.9436693 0.2818106
vn 0.1752764 0.9331959 0.3137255
vn 0.0963427 0.9950044 -0.02616219
g Plants_Church2_mesh_0
f 3/3/3 2/2/2 1/1/1
f 5/5/5 4/4/4 3/3/3
f 3/3/3 4/4/4 6/6/6
f 5/5/5 7/7/7 4/4/4
f 8/8/8 7/7/7 5/5/5
f 9/9/9 8/8/8 5/5/5
f 9/9/9 5/5/5 10/10/10
f 10/10/10 5/5/5 11/11/11
f 12/12/12 8/8/8 9/9/9
f 12/12/12 13/13/13 8/8/8
f 14/14/14 13/13/13 12/12/12
f 8/8/8 15/15/15 7/7/7
f 13/13/13 15/15/15 8/8/8
f 14/14/14 16/16/16 13/13/13
f 17/17/17 16/16/16 14/14/14
f 17/17/17 18/18/18 16/16/16
f 16/16/16 18/18/18 19/19/19
f 16/16/16 19/19/19 20/20/20
f 13/13/13 20/20/20 15/15/15
f 16/16/16 20/20/20 13/13/13
f 23/23/23 22/22/22 21/21/21
f 25/25/25 24/24/24 2/2/2
f 28/28/28 27/27/27 26/26/26
f 26/26/26 27/27/27 29/29/29
f 27/27/27 30/30/30 29/29/29
f 29/29/29 30/30/30 31/31/31
f 30/30/30 32/32/32 31/31/31
f 31/31/31 32/32/32 33/33/33
f 32/32/32 34/34/34 33/33/33
f 33/33/33 34/34/34 35/35/35
f 34/34/34 36/36/36 35/35/35
f 35/35/35 36/36/36 37/37/37
f 36/36/36 38/38/38 37/37/37
f 41/41/41 40/40/40 39/39/39
f 43/43/43 42/42/42 41/41/41
f 41/41/41 42/42/42 44/44/44
f 43/43/43 45/45/45 42/42/42
f 46/46/46 45/45/45 43/43/43
f 47/47/47 46/46/46 43/43/43
f 47/47/47 43/43/43 48/48/48
f 48/48/48 43/43/43 49/49/49
f 50/50/50 46/46/46 47/47/47
f 50/50/50 51/51/51 46/46/46
f 52/52/52 51/51/51 50/50/50
f 46/46/46 53/53/53 45/45/45
f 51/51/51 53/53/53 46/46/46
f 52/52/52 54/54/54 51/51/51
f 55/55/55 54/54/54 52/52/52
f 55/55/55 56/56/56 54/54/54
f 54/54/54 56/56/56 57/57/57
f 54/54/54 57/57/57 58/58/58
f 51/51/51 58/58/58 53/53/53
f 54/54/54 58/58/58 51/51/51
f 48/48/48 60/60/60 59/59/59
f 62/62/62 44/44/44 61/61/61
f 65/65/65 64/64/64 63/63/63
f 63/63/63 64/64/64 66/66/66
f 64/64/64 67/67/67 66/66/66
f 66/66/66 67/67/67 68/68/68
f 67/67/67 69/69/69 68/68/68
f 68/68/68 69/69/69 70/70/70
f 69/69/69 71/71/71 70/70/70
f 70/70/70 71/71/71 72/72/72
f 71/71/71 73/73/73 72/72/72
f 72/72/72 73/73/73 74/74/74
f 73/73/73 75/75/75 74/74/74
f 78/78/78 77/77/77 76/76/76
f 80/80/80 78/78/78 79/79/79
f 80/80/80 82/82/82 81/81/81
f 83/83/83 82/82/82 80/80/80
f 82/82/82 84/84/84 78/78/78
f 78/78/78 84/84/84 85/85/85
f 83/83/83 86/86/86 82/82/82
f 87/87/87 86/86/86 83/83/83
f 82/82/82 88/88/88 84/84/84
f 86/86/86 88/88/88 82/82/82
f 87/87/87 89/89/89 86/86/86
f 90/90/90 89/89/89 87/87/87
f 86/86/86 91/91/91 88/88/88
f 89/89/89 91/91/91 86/86/86
f 93/93/93 85/85/85 92/92/92
f 96/96/96 95/95/95 94/94/94
f 94/94/94 95/95/95 97/97/97
f 95/95/95 98/98/98 97/97/97
f 97/97/97 98/98/98 99/99/99
f 98/98/98 100/100/100 99/99/99
f 101/101/101 96/96/96 94/94/94
f 102/102/102 96/96/96 101/101/101
f 105/105/105 104/104/104 103/103/103
f 105/105/105 106/106/106 104/104/104
f 107/107/107 106/106/106 105/105/105
f 106/106/106 108/108/108 104/104/104
f 104/104/104 108/108/108 109/109/109
f 104/104/104 109/109/109 110/110/110
f 107/107/107 111/111/111 106/106/106
f 112/112/112 111/111/111 107/107/107
f 106/106/106 113/113/113 108/108/108
f 111/111/111 113/113/113 106/106/106
f 111/111/111 114/114/114 113/113/113
f 115/115/115 114/114/114 111/111/111
f 116/116/116 115/115/115 111/111/111
f 115/115/115 117/117/117 114/114/114
f 118/118/118 117/117/117 115/115/115
f 118/118/118 119/119/119 117/117/117
f 118/118/118 120/120/120 119/119/119
f 121/121/121 120/120/120 118/118/118
f 122/122/122 118/118/118 115/115/115
f 121/121/121 118/118/118 122/122/122
f 122/122/122 115/115/115 123/123/123
f 109/109/109 108/108/108 124/124/124
f 103/103/103 109/109/109 124/124/124
f 124/124/124 108/108/108 125/125/125
f 108/108/108 126/126/126 125/125/125
f 125/125/125 126/126/126 127/127/127
f 130/130/130 129/129/129 128/128/128
f 129/129/129 131/131/131 128/128/128
f 134/134/134 133/133/133 132/132/132
f 137/137/137 136/136/136 135/135/135
f 136/136/136 138/138/138 135/135/135
f 135/135/135 138/138/138 139/139/139
f 138/138/138 140/140/140 139/139/139
f 139/139/139 140/140/140 141/141/141
f 140/140/140 142/142/142 141/141/141
f 145/145/145 144/144/144 143/143/143
f 146/146/146 145/145/145 143/143/143
f 149/149/149 148/148/148 147/147/147
f 152/152/152 151/151/151 150/150/150
f 155/155/155 154/154/154 153/153/153
f 155/155/155 156/156/156 154/154/154
f 155/155/155 157/157/157 156/156/156
f 158/158/158 157/157/157 155/155/155
f 159/159/159 158/158/158 155/155/155
f 159/159/159 155/155/155 160/160/160
f 158/158/158 161/161/161 157/157/157
f 162/162/162 161/161/161 158/158/158
f 163/163/163 162/162/162 158/158/158
f 164/164/164 162/162/162 163/163/163
f 164/164/164 165/165/165 162/162/162
f 166/166/166 165/165/165 164/164/164
f 162/162/162 167/167/167 161/161/161
f 165/165/165 167/167/167 162/162/162
f 166/166/166 168/168/168 165/165/165
f 169/169/169 168/168/168 166/166/166
f 169/169/169 170/170/170 168/168/168
f 168/168/168 170/170/170 171/171/171
f 168/168/168 171/171/171 172/172/172
f 165/165/165 172/172/172 167/167/167
f 168/168/168 172/172/172 165/165/165
f 175/175/175 174/174/174 173/173/173
f 178/178/178 177/177/177 176/176/176
f 176/176/176 177/177/177 179/179/179
f 177/177/177 180/180/180 179/179/179
f 181/181/181 178/178/178 176/176/176
f 183/183/183 178/178/178 182/182/182
f 185/185/185 183/183/183 184/184/184
f 186/186/186 183/183/183 185/185/185
f 189/189/189 188/188/188 187/187/187
f 188/188/188 190/190/190 187/187/187
f 187/187/187 190/190/190 191/191/191
f 190/190/190 192/192/192 191/191/191
f 191/191/191 153/153/153 193/193/193
f 196/196/196 195/195/195 194/194/194
f 197/197/197 196/196/196 194/194/194
f 198/198/198 196/196/196 197/197/197
f 201/201/201 200/200/200 199/199/199
f 200/200/200 202/202/202 199/199/199
f 199/199/199 204/204/204 203/203/203
f 204/204/204 205/205/205 203/203/203
f 203/203/203 205/205/205 206/206/206
f 205/205/205 207/207/207 206/206/206
f 210/210/210 209/209/209 208/208/208
f 212/212/212 211/211/211 210/210/210
f 215/215/215 214/214/214 213/213/213
f 215/215/215 216/216/216 214/214/214
f 215/215/215 217/217/217 216/216/216
f 218/218/218 217/217/217 215/215/215
f 218/218/218 219/219/219 217/217/217
f 220/220/220 219/219/219 218/218/218
f 221/221/221 220/220/220 218/218/218
f 221/221/221 218/218/218 222/222/222
f 223/223/223 220/220/220 221/221/221
f 223/223/223 224/224/224 220/220/220
f 225/225/225 224/224/224 223/223/223
f 220/220/220 226/226/226 219/219/219
f 224/224/224 226/226/226 220/220/220
f 225/225/225 227/227/227 224/224/224
f 228/228/228 227/227/227 225/225/225
f 228/228/228 229/229/229 227/227/227
f 227/227/227 229/229/229 230/230/230
f 227/227/227 230/230/230 231/231/231
f 224/224/224 231/231/231 226/226/226
f 227/227/227 231/231/231 224/224/224
f 231/231/231 230/230/230 232/232/232
f 235/235/235 234/234/234 233/233/233
f 233/233/233 234/234/234 236/236/236
f 234/234/234 237/237/237 236/236/236
f 236/236/236 237/237/237 238/238/238
f 237/237/237 239/239/239 238/238/238
f 238/238/238 239/239/239 240/240/240
f 239/239/239 241/241/241 240/240/240
f 240/240/240 241/241/241 242/242/242
f 233/233/233 236/236/236 243/243/243
f 243/243/243 236/236/236 244/244/244
f 236/236/236 238/238/238 244/244/244
f 238/238/238 240/240/240 245/245/245
f 244/244/244 238/238/238 245/245/245
f 245/245/245 240/240/240 246/246/246
f 240/240/240 242/242/242 246/246/246
f 246/246/246 242/242/242 247/247/247
f 241/241/241 248/248/248 242/242/242
f 251/251/251 250/250/250 249/249/249
f 250/250/250 252/252/252 249/249/249
f 255/255/255 254/254/254 253/253/253
f 253/253/253 257/257/257 256/256/256
f 257/257/257 258/258/258 256/256/256
f 256/256/256 258/258/258 259/259/259
f 262/262/262 261/261/261 260/260/260
f 265/265/265 264/264/264 263/263/263
f 265/265/265 266/266/266 264/264/264
f 269/269/269 268/268/268 267/267/267
f 269/269/269 270/270/270 268/268/268
f 269/269/269 271/271/271 270/270/270
f 272/272/272 271/271/271 269/269/269
f 273/273/273 272/272/272 269/269/269
f 273/273/273 269/269/269 274/274/274
f 272/272/272 275/275/275 271/271/271
f 276/276/276 275/275/275 272/272/272
f 277/277/277 276/276/276 272/272/272
f 278/278/278 276/276/276 277/277/277
f 276/276/276 279/279/279 275/275/275
f 280/280/280 279/279/279 276/276/276
f 278/278/278 280/280/280 276/276/276
f 281/281/281 280/280/280 278/278/278
f 281/281/281 282/282/282 280/280/280
f 283/283/283 282/282/282 281/281/281
f 283/283/283 284/284/284 282/282/282
f 282/282/282 284/284/284 285/285/285
f 282/282/282 285/285/285 286/286/286
f 280/280/280 286/286/286 279/279/279
f 282/282/282 286/286/286 280/280/280
f 289/289/289 288/288/288 287/287/287
f 292/292/292 291/291/291 290/290/290
f 290/290/290 291/291/291 293/293/293
f 291/291/291 294/294/294 293/293/293
f 295/295/295 292/292/292 290/290/290
f 297/297/297 292/292/292 296/296/296
f 300/300/300 299/299/299 298/298/298
f 298/298/298 299/299/299 301/301/301
f 302/302/302 300/300/300 298/298/298
f 303/303/303 300/300/300 302/302/302
f 305/305/305 304/304/304 301/301/301
f 301/301/301 307/307/307 306/306/306
f 307/307/307 308/308/308 306/306/306
f 306/306/306 308/308/308 309/309/309
f 308/308/308 310/310/310 309/309/309
f 313/313/313 312/312/312 311/311/311
f 316/316/316 315/315/315 314/314/314
f 318/318/318 315/315/315 317/317/317
f 315/315/315 319/319/319 317/317/317
f 317/317/317 319/319/319 320/320/320
f 323/323/323 322/322/322 321/321/321
f 324/324/324 322/322/322 323/323/323
f 327/327/327 326/326/326 325/325/325
f 329/329/329 328/328/328 327/327/327
f 332/332/332 331/331/331 330/330/330
f 334/334/334 333/333/333 331/331/331
f 336/336/336 335/335/335 333/333/333
f 337/337/337 335/335/335 336/336/336
f 337/337/337 338/338/338 335/335/335
f 339/339/339 338/338/338 337/337/337
f 340/340/340 339/339/339 337/337/337
f 340/340/340 337/337/337 341/341/341
f 341/341/341 337/337/337 342/342/342
f 343/343/343 339/339/339 340/340/340
f 343/343/343 344/344/344 339/339/339
f 345/345/345 344/344/344 343/343/343
f 339/339/339 346/346/346 338/338/338
f 344/344/344 346/346/346 339/339/339
f 345/345/345 347/347/347 344/344/344
f 348/348/348 347/347/347 345/345/345
f 348/348/348 349/349/349 347/347/347
f 347/347/347 349/349/349 350/350/350
f 347/347/347 350/350/350 351/351/351
f 344/344/344 351/351/351 346/346/346
f 347/347/347 351/351/351 344/344/344
f 341/341/341 353/353/353 352/352/352
f 356/356/356 355/355/355 354/354/354
f 354/354/354 355/355/355 357/357/357
f 355/355/355 358/358/358 357/357/357
f 357/357/357 358/358/358 359/359/359
f 358/358/358 360/360/360 359/359/359
f 359/359/359 360/360/360 361/361/361
f 360/360/360 362/362/362 361/361/361
f 361/361/361 362/362/362 363/363/363
f 362/362/362 364/364/364 363/363/363
f 363/363/363 364/364/364 365/365/365
f 364/364/364 366/366/366 365/365/365
