g PlaySurface_Combined
v 112.1061 17.14864 -807.3042
v 151.6403 18.76871 -807.084
v 125.2276 36.20428 -789.9225
v 152.8558 36.10665 -790.8505
v 171.7534 18.80055 -807.9793
v 172.8307 36.15564 -793.4346
v 199.7012 17.70319 -816.5144
v 201.5567 35.65147 -800.9037
v 230.69 17.95443 -829.514
v 233.0251 35.83845 -813.0914
v 288.1689 18.28059 -852.2004
v 291.6794 36.15507 -835.7634
v 351.794 18.64163 -877.3127
v 349.5069 36.46722 -858.1158
v 415.2806 19.00188 -902.3703
v 414.9328 36.82039 -883.4053
v 477.6843 19.35598 -927.0004
v 478.8062 37.16519 -908.0947
v 502.9955 18.74573 -934.0735
v 504.1969 36.76883 -914.7894
v 538.2287 20.64509 -929.5819
v 538.2004 37.41738 -912.0917
v 572.0186 19.77996 -919.9461
v 570.6326 37.2438 -901.9995
v 620.5235 20.41804 -901.0583
v 619.3356 37.59712 -883.1477
v 657.5541 20.37322 -880.8138
v 655.294 37.77198 -863.7706
v 687.0995 20.20057 -859.7476
v 686.1953 37.60094 -842.197
v 746.9617 20.33096 -859.695
v 748.1188 37.7189 -842.1526
v 783.0756 20.40962 -859.6632
v 784.1445 37.78753 -842.1268
v 797.3647 20.44074 -859.6506
v 797.4235 37.81282 -842.1173
v 817.1401 20.48382 -859.6333
v 816.7665 37.84967 -842.1035
v 856.9142 20.57045 -859.5983
v 857.84 37.9279 -842.074
v 915.9939 20.69914 -859.5464
v 916.9483 38.0405 -842.0316
v 945.3384 20.03654 -880.6604
v 945.0289 38.25364 -859.8414
v 982.5476 20.70939 -900.6568
v 982.7093 38.33004 -882.7781
v 1031.563 21.29889 -919.4482
v 1031.247 38.57233 -901.815
v 1074.963 21.52344 -930.7313
v 1074.932 38.66235 -913.9179
v 1102.388 21.51797 -931.1148
v 1104.197 38.72556 -912.2961
v 1149.973 21.65571 -916.7034
v 1147.829 38.97947 -901.7585
v 1213.317 21.78151 -892.6512
v 1214.569 39.13781 -875.8398
v 1286.343 21.92653 -864.9226
v 1286.158 39.30765 -848.0383
v 1337.795 22.02871 -845.3856
v 1343.195 39.44297 -825.8879
v 1422.712 22.19735 -813.1418
v 1421.246 39.62814 -795.5769
v 1451.018 21.8859 -807.6375
v 1451.098 39.57495 -788.9512
v 1468.751 22.03465 -807.6681
v 1469.685 39.52559 -789.7569
v 1492.918 39.46373 -810.8726
v 201.5567 35.65147 -800.9037
v 233.0251 35.83845 -813.0914
v 203.1426 21.33658 -792.0555
v 235.0464 21.43532 -804.1503
v 174.678 21.2673 -784.9927
v 172.8307 36.15564 -793.4346
v 153.3941 21.20846 -780.3671
v 152.8558 36.10665 -790.8505
v 125.2276 36.20428 -789.9225
v 132.4019 21.18541 -778.5387
v 291.6794 36.15507 -835.7634
v 286.9805 21.56068 -823.8415
v 350.4353 21.71386 -847.9008
v 349.5069 36.46722 -858.1158
v 414.9328 36.82039 -883.4053
v 414.5956 21.86874 -872.2276
v 481.8887 22.03119 -897.7422
v 478.8062 37.16519 -908.0947
v 283.7301 21.57026 -778.8558
v 347.8881 21.72441 -778.99
v 345.6937 21.73349 -719.6231
v 411.0582 21.87974 -719.8749
v 409.5922 21.88429 -656.7344
v 478.8969 22.03119 -656.7939
v 478.4253 22.03119 -618.8201
v 408.7009 21.88706 -618.3519
v 343.367 21.74312 -656.6776
v 341.9338 21.74905 -617.9035
v 274.898 21.59629 -656.6187
v 272.0668 21.60463 -617.4344
v 213.8546 21.46469 -656.5662
v 208.174 21.47256 -617.0053
v 173.1037 21.36792 -656.5313
v 172.6164 21.39907 -616.7665
v 479.6834 22.03119 -720.1392
v 279.4319 21.58293 -719.3682
v 222.8411 21.45224 -719.1503
v 173.8688 21.31902 -718.9623
v 138.6692 21.29687 -656.5016
v 153.7147 21.34518 -634.7531
v 145.7164 21.25456 -715.7825
v 132.2787 21.23987 -716.0079
v 132.2065 21.27181 -679.3273
v 231.3986 21.44037 -778.7462
v 174.6 21.27229 -778.6266
v 153.1818 21.20974 -778.5815
v 132.2787 21.23987 -716.0079
v 125.2276 36.20428 -789.9225
v 132.4019 21.18541 -778.5387
v 125.8437 36.47246 -716.5361
v 132.2065 21.27181 -679.3273
v 126.1661 36.61279 -678.1354
v 138.6692 21.29687 -656.5016
v 132.8804 36.41392 -655.7101
v 153.7147 21.34518 -634.7531
v 144.7539 36.32386 -633.9052
v 172.6164 21.39907 -616.7665
v 159.1723 36.08874 -617.2622
v 144.7539 36.32386 -633.9052
v 172.6164 21.39907 -616.7665
v 143.7486 23.38257 -617.2622
v 144.7539 36.32386 -633.9052
v 159.1723 36.08874 -617.2622
v 132.8785 23.15009 -632.0311
v 119.5828 23.49244 -652.0052
v 132.8804 36.41392 -655.7101
v 111.3778 23.62042 -676.079
v 126.1661 36.61279 -678.1354
v 111.6014 21.63354 -716.3661
v 125.8437 36.47246 -716.5361
v 112.1061 17.14864 -807.3042
v 130.5239 23.15012 -601.4663
v 144.7549 36.32386 -597.9293
v 117.6472 23.05007 -582.1633
v 131.8238 35.97166 -578.4584
v 112.7889 23.62044 -557.1386
v 127.4191 36.61279 -558.8895
v 112.1966 21.4322 -478.7696
v 126.3656 36.30611 -479.2075
v 111.602 19.23555 -400.0997
v 125.4209 36.03112 -407.7539
v 171.5829 36.15563 -391.9011
v 167.9457 23.01002 -381.8539
v 256.9581 36.44241 -354.548
v 252.7575 23.1665 -344.7218
v 329.705 36.68676 -322.72
v 330.445 23.30984 -310.7088
v 401.1886 36.92687 -291.4447
v 400.8501 23.43974 -279.8842
v 472.145 37.16521 -260.4001
v 468.9395 23.56536 -250.0734
v 497.7821 23.0221 -247.1607
v 497.0051 36.76881 -257.3343
v 526.2726 24.92145 -248.842
v 523.6406 37.41739 -259.6362
v 569.4894 24.0563 -266.7827
v 568.1425 37.2438 -277.408
v 654.188 37.77197 -319.4066
v 656.0781 24.64961 -308.2701
v 717.1849 24.35967 -333.6292
v 714.4517 37.52239 -346.4775
v 755.0853 24.61814 -360.1741
v 752.6158 37.68274 -369.7196
v 787.4109 24.70124 -378.1147
v 786.3495 37.736 -386.867
v 801.0236 24.79283 -383.0284
v 800.1746 37.7964 -392.4017
v 813.8502 24.85319 -378.377
v 813.4461 37.85905 -386.8772
v 846.0218 24.91214 -360.1718
v 846.6228 37.92775 -368.6359
v 882.9517 25.03792 -333.3623
v 885.3233 38.11681 -342.6668
v 944.5519 24.31294 -310.0195
v 943.7376 38.25363 -319.2979
v 981.4059 24.98576 -292.5033
v 982.6184 38.33002 -302.3307
v 1030.904 25.5752 -269.1868
v 1030.833 38.57233 -276.7196
v 1076.673 25.7998 -248.1064
v 1074.501 38.66233 -257.4092
v 1111.612 25.79433 -241.8849
v 1107.513 38.72557 -254.2882
v 1149.973 25.93211 -259.9308
v 1148.381 38.97947 -269.7991
v 1218.882 39.15001 -302.0532
v 1218.133 26.06933 -288.7899
v 1283.178 39.30555 -331.4683
v 1283.156 26.20023 -316.3209
v 1346.558 39.45886 -360.4648
v 1345.137 26.32501 -342.564
v 1416.536 39.62814 -392.4797
v 1419.016 26.47374 -373.8444
v 1446.709 26.16232 -387.165
v 1447.23 39.57493 -402.4914
v 1470.901 26.31103 -391.6959
v 1465.62 39.52559 -406.8433
v 1484.208 26.2228 -392.2422
v 1484.556 38.44398 -406.7625
v 125.8437 36.47246 -716.5361
v 112.1061 17.14864 -807.3042
v 125.2276 36.20428 -789.9225
v 412.4339 21.87546 -779.125
v 480.4176 22.03119 -779.2671
v 413.5243 21.87207 -826.0866
v 481.0138 22.03119 -827.2839
v 349.587 21.71737 -824.9523
v 504.3015 21.82375 -827.6918
v 503.7071 21.82375 -779.3096
v 556.9234 22.26912 -779.4285
v 552.2183 22.25965 -720.4166
v 601.4497 22.38442 -720.606
v 595.8685 22.37006 -656.8934
v 650.8172 22.53493 -656.9402
v 650.7778 22.53493 -619.9734
v 694.587 22.67815 -620.2657
v 693.0422 22.68495 -656.9758
v 747.1877 22.82635 -620.6179
v 747.1785 22.826 -657.0219
v 592.6002 22.36164 -619.5845
v 547.15 22.24945 -656.8517
v 544.1527 22.24342 -619.2595
v 502.2021 21.82375 -656.8172
v 501.7373 21.82375 -618.9845
v 782.1552 22.92487 -620.8519
v 782.3194 22.91838 -657.0519
v 798.2169 22.97012 -620.9595
v 798.088 22.96018 -657.0653
v 782.611 22.90686 -721.3007
v 797.8582 22.94249 -721.3593
v 747.1622 22.82538 -721.1642
v 690.3502 22.6968 -720.9454
v 650.8852 22.53493 -720.7952
v 782.877 22.89636 -779.903
v 797.649 22.92638 -779.9338
v 747.1473 22.82482 -779.8287
v 687.8774 22.70769 -779.7053
v 650.9478 22.53493 -779.626
v 606.6116 22.39771 -779.5326
v 783.1116 22.88709 -831.5947
v 797.4641 22.91213 -831.6942
v 747.1342 22.82432 -831.3453
v 685.7222 22.71718 -830.9195
v 651.0018 22.53493 -830.3015
v 610.9968 22.409 -829.5913
v 560.8521 22.27703 -828.7014
v 651.0261 22.53493 -853.1825
v 614.8672 22.41896 -873.7742
v 565.9106 22.28721 -892.1453
v 538.0891 22.18755 -901.0582
v 505.224 21.82375 -902.7772
v 686.1953 37.60094 -842.197
v 655.294 37.77198 -863.7706
v 619.3356 37.59712 -883.1477
v 570.6326 37.2438 -901.9995
v 538.2004 37.41738 -912.0917
v 504.1969 36.76883 -914.7894
v 748.1188 37.7189 -842.1526
v 784.1445 37.78753 -842.1268
v 797.4235 37.81282 -842.1173
v 817.0688 22.94634 -831.8302
v 816.7665 37.84967 -842.1035
v 856.7383 23.01555 -832.1053
v 857.84 37.9279 -842.074
v 919.6152 23.12525 -832.5412
v 916.3731 23.16253 -780.1812
v 856.1028 23.04326 -780.0556
v 912.7888 23.20374 -722.2936
v 950.0558 23.35008 -722.7552
v 949.7092 23.38022 -657.1945
v 987.5632 23.48563 -657.2267
v 987.4949 23.50339 -622.2263
v 949.523 23.39641 -621.9722
v 908.7559 23.25011 -657.1598
v 906.5594 23.27536 -621.6846
v 854.6018 23.1087 -657.1136
v 854.165 23.12775 -621.3339
v 816.9404 23.00973 -657.0814
v 816.914 23.0228 -621.0846
v 816.9876 22.98635 -721.4329
v 817.0306 22.96513 -779.9742
v 1035.239 23.63791 -622.5459
v 855.3888 23.07438 -721.5807
v 798.4697 22.95629 -550.234
v 816.8627 23.00621 -550.0264
v 798.7103 22.94313 -482.8683
v 816.8142 22.99057 -482.9765
v 798.9619 22.92937 -412.476
v 816.7635 22.97415 -412.6722
v 816.7554 22.9875 -401.9156
v 813.4461 37.85905 -386.8772
v 846.6228 37.92775 -368.6359
v 851.2284 23.05194 -381.9039
v 890.144 23.23529 -356.9007
v 885.3233 38.11681 -342.6668
v 943.7376 38.25363 -319.2979
v 947.9621 23.29043 -329.6639
v 982.6184 38.33002 -302.3307
v 986.8732 23.37605 -313.5508
v 1030.833 38.57233 -276.7196
v 1035.23 23.48877 -288.5475
v 1074.501 38.66233 -257.4092
v 1076.356 23.59311 -268.5486
v 1107.513 38.72557 -254.2882
v 1106.364 23.66881 -267.4468
v 1148.381 38.97947 -269.7991
v 1146.918 23.85131 -283.5902
v 1218.882 39.15001 -302.0532
v 1217.81 24.1072 -314.7798
v 1283.178 39.30555 -331.4683
v 1283.323 24.34367 -343.6024
v 1346.558 39.45886 -360.4648
v 1349.371 24.58207 -372.6608
v 1416.536 39.62814 -392.4797
v 1411.516 24.80639 -400.002
v 1447.23 39.57493 -402.4914
v 1440.708 24.77184 -414.2752
v 1465.62 39.52559 -406.8433
v 1465.726 24.71399 -419.8274
v 1484.556 38.44398 -406.7625
v 1477.774 24.75713 -421.1791
v 1355.624 24.63566 -418.6104
v 1283.751 24.34307 -417.8194
v 1217.614 24.11045 -340.8709
v 1217.042 24.11996 -417.0846
v 1146.87 23.86737 -337.9302
v 1146.8 23.89053 -416.3106
v 1216.53 24.12848 -485.3692
v 1146.739 23.91081 -484.951
v 1216.078 24.13598 -545.5165
v 1146.685 23.92895 -546.3015
v 1284.483 24.34205 -544.7421
v 1284.143 24.34253 -485.7744
v 1372.632 24.96044 -543.7056
v 1364.823 24.79905 -486.2628
v 1372.187 24.57814 -593.4776
v 1378.179 24.8693 -584.3856
v 1284.942 24.34141 -624.2173
v 1215.491 24.14574 -623.7524
v 1215.237 24.13767 -657.4205
v 1285.133 24.34182 -657.4799
v 1368.965 24.57814 -624.7797
v 1370.888 24.57814 -657.5529
v 1285.534 24.34268 -726.9175
v 1214.72 24.12123 -726.0391
v 1214.308 24.1081 -780.8098
v 1146.465 23.89217 -780.6666
v 1213.914 24.09556 -833.0881
v 1146.415 23.87239 -832.9628
v 1104.125 23.74104 -780.577
v 1146.519 23.91315 -725.1931
v 1104.372 23.774 -724.6706
v 1146.584 23.93881 -657.3619
v 1104.669 23.81371 -657.3264
v 1146.617 23.9517 -623.2914
v 1104.82 23.83394 -623.0116
v 1075.345 23.73179 -657.3015
v 1075.437 23.75116 -622.8149
v 1035.238 23.61869 -657.2674
v 1075.167 23.69415 -724.308
v 1035.236 23.58185 -723.8125
v 987.6922 23.45213 -723.2225
v 1075.017 23.66258 -780.5157
v 1035.234 23.55051 -780.4322
v 987.8037 23.42313 -780.3326
v 950.3597 23.32366 -780.2541
v 950.6365 23.29959 -832.6004
v 950.7419 23.29043 -852.5378
v 987.9061 23.39657 -832.6692
v 987.985 23.37605 -873.0975
v 1035.232 23.52155 -832.7564
v 1035.23 23.48877 -891.9844
v 1074.878 23.6332 -832.8297
v 1074.688 23.59311 -904.2
v 1103.895 23.7102 -832.8832
v 1103.585 23.66881 -903.0777
v 1146.362 23.85135 -888.6009
v 1213.697 24.08865 -861.9249
v 1286.147 24.34399 -833.2227
v 1285.846 24.34334 -780.9609
v 1358.637 24.75222 -727.8204
v 1349.313 24.56681 -781.0953
v 1384.099 24.86926 -667.8284
v 1392.879 25.38856 -672.4092
v 1412.348 25.30973 -679.2806
v 1414.77 25.0667 -728.5137
v 1437.304 25.5573 -684.7858
v 1443.766 25.17867 -728.873
v 1452.259 25.2063 -705.393
v 1465.617 25.11494 -712.6196
v 1466.354 25.01252 -729.158
v 1452.899 24.7933 -686.209
v 1471.715 25.16049 -718.1723
v 1476.725 25.12395 -729.285
v 1468.505 24.71403 -777.3582
v 1475.714 24.76227 -776.7985
v 1450.709 24.77184 -776.242
v 1417.364 24.80643 -781.2395
v 1344.225 24.54867 -810.2142
v 1469.685 39.52559 -789.7569
v 1484.019 38.44396 -791.7887
v 1475.714 24.76227 -776.7985
v 1451.098 39.57495 -788.9512
v 1421.246 39.62814 -795.5769
v 1343.195 39.44297 -825.8879
v 1286.158 39.30765 -848.0383
v 1214.569 39.13781 -875.8398
v 1147.829 38.97947 -901.7585
v 1104.197 38.72556 -912.2961
v 1074.932 38.66235 -913.9179
v 1031.247 38.57233 -901.815
v 982.7093 38.33004 -882.7781
v 945.0289 38.25364 -859.8414
v 916.9483 38.0405 -842.0316
v 502.9813 21.82375 -720.2355
v 1105.151 23.79853 -546.7722
v 1105.421 23.76971 -484.7031
v 1075.796 23.68946 -484.5259
v 1075.633 23.71738 -547.1054
v 1035.235 23.57617 -484.2831
v 1035.237 23.60442 -547.5616
v 987.2165 23.44636 -483.996
v 987.3456 23.47281 -548.1022
v 948.785 23.3463 -483.7661
v 949.1308 23.36978 -548.5333
v 897.9902 23.25445 -483.4632
v 902.0571 23.26437 -549.0621
v 852.4708 23.08401 -483.1898
v 853.2854 23.10504 -549.6153
v 851.6106 23.0618 -413.0565
v 893.6541 23.24386 -413.5191
v 948.4131 23.32105 -414.1238
v 987.0766 23.41771 -414.5503
v 986.9088 23.38336 -331.2822
v 1035.233 23.54527 -415.0811
v 1035.231 23.50875 -333.2901
v 1075.974 23.65869 -415.5305
v 1076.183 23.62276 -334.9919
v 1105.72 23.73774 -415.8582
v 1106.066 23.70076 -336.2336
v 1391.816 38.61901 -659.4473
v 1384.355 38.29802 -654.6848
v 1385.947 39.31665 -664.4613
v 1376.955 39.1045 -658.4401
v 1394.024 39.53939 -668.7411
v 1397.077 38.38261 -662.224
v 1413.004 39.58947 -674.7843
v 1415.874 38.69463 -668.8071
v 1438.793 39.74927 -679.9439
v 1439.504 39.16978 -673.6243
v 1459.98 39.40741 -681.6803
v 1466.303 37.62182 -676.2075
v 1383.013 38.29802 -626.4514
v 1374.037 39.10448 -625.2822
v 1376.595 39.10448 -597.1514
v 1384.786 38.29803 -603.3568
v 1382.754 39.31668 -589.1134
v 1390.316 38.619 -599.0413
v 1391.833 39.53939 -586.1907
v 1397.274 38.38261 -595.5925
v 1411.544 39.58947 -578.1548
v 1415.874 38.69463 -588.11
v 1439.126 39.74927 -573.1364
v 1440.334 39.16977 -580.8464
v 1456.345 39.40741 -570.0432
v 1463.462 37.62182 -577.2991
v 1459.359 39.79963 -700.7241
v 1466.303 37.62182 -676.2075
v 1466.072 38.12474 -694.7048
v 1471.851 39.70672 -707.592
v 1466.072 38.12474 -694.7048
v 1477.917 39.30133 -702.0952
v 1479.757 39.70789 -712.4651
v 1487.174 39.313 -708.9786
v 1484.331 39.67352 -722.6423
v 1492.176 39.27046 -719.9591
v 1492.918 39.46373 -810.8726
v 1463.462 37.62182 -577.2991
v 1456.573 39.79962 -553.7867
v 1463.286 38.12477 -559.806
v 1484.019 38.44396 -791.7887
v 1492.918 39.46373 -810.8726
v 1484.331 39.67352 -722.6423
v 1469.685 39.52559 -789.7569
v 1492.918 39.46373 -810.8726
v 1484.019 38.44396 -791.7887
v 1471.851 39.70672 -707.592
v 1459.359 39.79963 -700.7241
v 1465.617 25.11494 -712.6196
v 1452.259 25.2063 -705.393
v 1459.98 39.40741 -681.6803
v 1452.899 24.7933 -686.209
v 1471.715 25.16049 -718.1723
v 1459.98 39.40741 -681.6803
v 1438.793 39.74927 -679.9439
v 1452.899 24.7933 -686.209
v 1437.304 25.5573 -684.7858
v 1413.004 39.58947 -674.7843
v 1412.348 25.30973 -679.2806
v 1394.024 39.53939 -668.7411
v 1392.879 25.38856 -672.4092
v 1385.947 39.31665 -664.4613
v 1384.099 24.86926 -667.8284
v 1376.955 39.1045 -658.4401
v 1370.888 24.57814 -657.5529
v 1374.037 39.10448 -625.2822
v 1368.965 24.57814 -624.7797
v 1376.595 39.10448 -597.1514
v 1372.187 24.57814 -593.4776
v 1378.179 24.8693 -584.3856
v 1382.754 39.31668 -589.1134
v 1388.875 25.38857 -580.0572
v 1391.833 39.53939 -586.1907
v 1410.102 25.30972 -572.2666
v 1411.544 39.58947 -578.1548
v 1437.304 25.5573 -565.7762
v 1484.019 38.44396 -791.7887
v 1476.725 25.12395 -729.285
v 1475.714 24.76227 -776.7985
v 1484.331 39.67352 -722.6423
v 1476.725 25.12395 -729.285
v 1484.331 39.67352 -722.6423
v 1479.757 39.70789 -712.4651
v 1476.725 25.12395 -729.285
v 1471.715 25.16049 -718.1723
v 1479.757 39.70789 -712.4651
v 1471.851 39.70672 -707.592
v 1471.715 25.16049 -718.1723
v 1477.917 39.30133 -702.0952
v 1487.174 39.313 -708.9786
v 1490.484 7.550383 -699.3177
v 1504.305 7.562054 -706.872
v 1479.318 6.373799 -691.5864
v 1466.072 38.12474 -694.7048
v 1466.303 37.62182 -676.2075
v 1466.072 38.12474 -694.7048
v 1477.231 5.870879 -673.4312
v 1479.318 6.373799 -691.5864
v 1439.504 39.16978 -673.6243
v 1466.303 37.62182 -676.2075
v 1440.928 7.418836 -670.9265
v 1477.231 5.870879 -673.4312
v 1417.279 6.943691 -665.7239
v 1415.874 38.69463 -668.8071
v 1399.07 6.631673 -659.8118
v 1397.077 38.38261 -662.224
v 1384.355 38.29802 -654.6848
v 1391.816 38.61901 -659.4473
v 1390.793 6.547082 -652.9538
v 1397.077 38.38261 -662.224
v 1393.631 6.868065 -656.2645
v 1391.158 6.547082 -628.8442
v 1383.013 38.29802 -626.4514
v 1391.502 6.547106 -606.13
v 1394.104 6.868053 -600.6909
v 1384.786 38.29803 -603.3568
v 1390.793 6.547082 -652.9538
v 1391.816 38.61901 -659.4473
v 1393.631 6.868065 -656.2645
v 1397.077 38.38261 -662.224
v 1399.07 6.631673 -659.8118
v 1391.158 6.547082 -628.8442
v 1384.355 38.29802 -654.6848
v 1487.174 39.313 -708.9786
v 1492.176 39.27046 -719.9591
v 1504.305 7.562054 -706.872
v 1510.217 7.51952 -718.9326
v 1492.918 39.46373 -810.8726
v 1507.753 3.813815 -805.3469
v 1510.217 7.51952 -718.9326
v 1492.918 39.46373 -810.8726
v 1456.573 39.79962 -553.7867
v 1463.286 38.12477 -559.806
v 1471.183 39.70671 -546.9188
v 1478.103 39.30133 -553.7664
v 1477.552 39.70789 -540.6521
v 1486.291 39.31301 -546.4372
v 1482.381 39.67351 -532.134
v 1491.786 39.27048 -535.7168
v 1492.721 33.77843 -487.2334
v 1483.159 39.23389 -487.3067
v 1494.581 22.86221 -390.8657
v 1484.556 38.44398 -406.7625
v 1508.486 7.586043 -486.7032
v 1511.986 8.824933 -534.0012
v 1486.291 39.31301 -546.4372
v 1486.291 39.31301 -546.4372
v 1499.786 8.729482 -549.1913
v 1478.103 39.30133 -553.7664
v 1490.156 8.7178 -555.8609
v 1463.286 38.12477 -559.806
v 1494.581 22.86221 -390.8657
v 1501.126 4.98122 -387.2571
v 1468.585 25.11493 -541.1011
v 1456.573 39.79962 -553.7867
v 1471.183 39.70671 -546.9188
v 1476.796 25.16048 -535.9078
v 1477.552 39.70789 -540.6521
v 1477.642 25.23046 -524.223
v 1482.381 39.67351 -532.134
v 1477.69 25.05919 -486.9369
v 1483.159 39.23389 -487.3067
v 1477.774 24.75713 -421.1791
v 1484.556 38.44398 -406.7625
v 1477.642 25.23046 -524.223
v 1477.552 39.70789 -540.6521
v 1449.515 25.20629 -542.8339
v 1456.573 39.79962 -553.7867
v 1468.585 25.11493 -541.1011
v 1445.673 25.01675 -486.7464
v 1410.34 25.22497 -543.2622
v 1410.806 25.05924 -486.5412
v 1411.358 24.86255 -419.2238
v 1441.07 24.78968 -419.5535
v 1467.307 24.93565 -486.8726
v 1468.585 25.11493 -541.1011
v 1476.796 25.16048 -535.9078
v 1477.642 25.23046 -524.223
v 1477.69 25.05919 -486.9369
v 1477.642 25.23046 -524.223
v 1410.102 25.30972 -572.2666
v 1437.304 25.5573 -565.7762
v 1388.875 25.38857 -580.0572
v 1449.625 24.7933 -563.1735
v 1437.304 25.5573 -565.7762
v 1449.625 24.7933 -563.1735
v 1449.515 25.20629 -542.8339
v 1456.345 39.40741 -570.0432
v 1456.573 39.79962 -553.7867
v 1449.625 24.7933 -563.1735
v 1449.625 24.7933 -563.1735
v 1439.126 39.74927 -573.1364
v 1456.345 39.40741 -570.0432
v 1437.304 25.5573 -565.7762
v 1411.544 39.58947 -578.1548
v 1484.556 38.44398 -406.7625
v 1494.581 22.86221 -390.8657
v 1484.208 26.2228 -392.2422
v 800.1746 37.7964 -392.4017
v 781.1674 22.8629 -404.6864
v 786.3495 37.736 -386.867
v 747.246 22.80439 -384.6633
v 752.6158 37.68274 -369.7196
v 705.5321 22.62997 -360.1797
v 714.4517 37.52239 -346.4775
v 650.47 22.53493 -330.6954
v 654.188 37.77197 -319.4066
v 568.1425 37.2438 -277.408
v 563.6859 22.28721 -289.5106
v 516.3965 22.18755 -271.143
v 523.6406 37.41739 -259.6362
v 497.4357 21.82375 -268.8699
v 497.0051 36.76881 -257.3343
v 474.1011 22.03119 -270.5662
v 472.145 37.16521 -260.4001
v 401.3988 21.84365 -303.8736
v 401.1886 36.92687 -291.4447
v 331.521 21.6634 -335.887
v 329.705 36.68676 -322.72
v 254.2315 21.46403 -371.296
v 256.9581 36.44241 -354.548
v 177.9662 21.2673 -406.2357
v 171.5829 36.15563 -391.9011
v 125.4209 36.03112 -407.7539
v 132.8712 21.18541 -421.8103
v 498.2257 21.82375 -333.1651
v 474.8832 22.03119 -333.5527
v 499.2517 21.82375 -416.6789
v 527.9681 22.21084 -416.2737
v 521.3124 22.19745 -332.7982
v 574.7328 22.31565 -415.6184
v 567.412 22.2968 -332.0471
v 650.5592 22.53493 -414.5557
v 703.2749 22.63991 -413.8172
v 747.2389 22.80705 -413.2007
v 781.2042 22.8652 -412.725
v 781.5242 22.88528 -482.7652
v 781.8333 22.90468 -550.4224
v 747.2219 22.8135 -482.5605
v 747.205 22.81985 -550.8121
v 700.3939 22.65259 -482.2795
v 697.4861 22.66539 -551.3754
v 650.631 22.53493 -481.9822
v 650.7054 22.53493 -551.9037
v 580.5095 22.33052 -481.5624
v 586.7347 22.34654 -552.627
v 533.1512 22.22128 -481.2795
v 538.8829 22.23281 -553.1655
v 500.0429 21.82375 -481.0742
v 500.9343 21.82375 -553.6272
v 476.7133 22.03119 -480.941
v 477.6187 22.03119 -553.8607
v 405.5004 21.86804 -480.5157
v 404.0491 21.85941 -418.0106
v 334.5891 21.68864 -418.9838
v 257.765 21.49189 -420.0602
v 180.1036 21.28183 -421.1487
v 132.8712 21.18541 -421.8103
v 134.1594 21.2217 -478.8944
v 188.4262 21.33838 -479.2184
v 135.9376 21.2718 -557.6976
v 199.5715 21.41411 -556.983
v 262.0835 21.52593 -479.6588
v 267.631 21.56966 -556.218
v 336.8459 21.7072 -480.1055
v 339.6264 21.73007 -555.4095
v 407.2218 21.87827 -554.6508
v 155.2056 21.34518 -597.0815
v 155.2056 21.34518 -597.0815
v 142.6821 20.85458 -577.6669
v 172.6164 21.39907 -616.7665
v 144.7549 36.32386 -597.9293
v 159.1723 36.08874 -617.2622
v 155.2056 21.34518 -597.0815
v 144.7549 36.32386 -597.9293
v 172.6164 21.39907 -616.7665
v 155.2056 21.34518 -597.0815
v 131.8238 35.97166 -578.4584
v 142.6821 20.85458 -577.6669
v 127.4191 36.61279 -558.8895
v 135.9376 21.2718 -557.6976
v 126.3656 36.30611 -479.2075
v 134.1594 21.2217 -478.8944
v 125.4209 36.03112 -407.7539
v 132.8712 21.18541 -421.8103
v 1490.156 8.7178 -555.8609
v 1463.286 38.12477 -559.806
v 1476.029 7.54124 -563.2623
v 1463.286 38.12477 -559.806
v 1463.462 37.62182 -577.2991
v 1476.029 7.54124 -563.2623
v 1476.029 7.54124 -563.2623
v 1463.462 37.62182 -577.2991
v 1476.699 6.454587 -579.9438
v 1463.462 37.62182 -577.2991
v 1440.334 39.16977 -580.8464
v 1476.699 6.454587 -579.9438
v 1441.4 7.418836 -584.137
v 1415.874 38.69463 -588.11
v 1418.462 6.943703 -590.5221
v 1397.274 38.38261 -595.5925
v 1390.316 38.619 -599.0413
v 1384.786 38.29803 -603.3568
v 1394.104 6.868053 -600.6909
v 1398.68 6.631673 -598.0804
v 1397.274 38.38261 -595.5925
v 1418.462 6.943703 -590.5221
v 1383.013 38.29802 -626.4514
v 1391.502 6.547106 -606.13
v 475.9193 22.03119 -417.0034
v 402.1154 21.84791 -334.7377
vt 0.001525 0.169262
vt 0.027867 0.166099
vt 0.006889 0.200926
vt 0.026901 0.199595
vt 0.041519 0.162634
vt 0.041345 0.195849
vt 0.061022 0.150506
vt 0.062227 0.185109
vt 0.083538 0.13394
vt 0.084959 0.167448
vt 0.125105 0.101486
vt 0.127363 0.134577
vt 0.171116 0.065561
vt 0.169169 0.102168
vt 0.217027 0.029714
vt 0.216468 0.065502
vt 0.262155 -0.005521
vt 0.262645 0.029706
vt 0.281247 -0.016659
vt 0.281064 0.020096
vt 0.309154 -0.014397
vt 0.305619 0.023866
vt 0.33491 -0.001426
vt 0.329113 0.038515
vt 0.368162 0.025102
vt 0.36435 0.065743
vt 0.396188 0.051008
vt 0.390376 0.093772
vt 0.419099 0.085177
vt 0.412759 0.125043
vt 0.460146 0.085231
vt 0.457598 0.125087
vt 0.48491 0.085263
vt 0.483684 0.125114
vt 0.494708 0.085276
vt 0.4933 0.125123
vt 0.508268 0.085294
vt 0.507306 0.125137
vt 0.535541 0.08533
vt 0.537048 0.125167
vt 0.576052 0.085383
vt 0.579849 0.12521
vt 0.595802 0.056177
vt 0.600192 0.099378
vt 0.623983 0.027253
vt 0.627486 0.066139
vt 0.658508 0.000608
vt 0.662657 0.038515
vt 0.691418 -0.017324
vt 0.694306 0.020963
vt 0.713348 -0.020048
vt 0.715511 0.023299
vt 0.750359 -0.002026
vt 0.747143 0.038515
vt 0.795704 0.032992
vt 0.795524 0.076048
vt 0.847981 0.073364
vt 0.84742 0.116308
vt 0.884814 0.101809
vt 0.888767 0.148384
vt 0.945603 0.148754
vt 0.945347 0.192278
vt 0.964856 0.159988
vt 0.966969 0.201888
vt 0.977662 0.158295
vt 0.980429 0.200727
vt 0.998264 0.156167
vt 0.062227 0.185109
vt 0.084959 0.167448
vt 0.065143 0.199158
vt 0.088115 0.181714
vt 0.044646 0.209345
vt 0.041345 0.195849
vt 0.029322 0.216018
vt 0.026901 0.199595
vt 0.006889 0.200926
vt 0.014201 0.218656
vt 0.127363 0.134577
vt 0.125526 0.15331
vt 0.171236 0.118605
vt 0.169169 0.102168
vt 0.216468 0.065502
vt 0.217454 0.083515
vt 0.265929 0.046711
vt 0.262645 0.029706
vt 0.123183 0.219939
vt 0.169399 0.220015
vt 0.167818 0.30738
vt 0.214904 0.30657
vt 0.213847 0.399012
vt 0.263772 0.397909
vt 0.263433 0.453259
vt 0.213205 0.455207
vt 0.16614 0.400012
vt 0.165107 0.457072
vt 0.116817 0.400987
vt 0.114776 0.459024
vt 0.072843 0.401811
vt 0.068749 0.460809
vt 0.043492 0.402128
vt 0.043135 0.461803
vt 0.264339 0.305579
vt 0.120085 0.308048
vt 0.079319 0.308477
vt 0.044053 0.308437
vt 0.018694 0.404542
vt 0.029525 0.435883
vt 0.02378 0.314316
vt 0.014101 0.315084
vt 0.014042 0.371649
vt 0.085486 0.219599
vt 0.044589 0.218899
vt 0.029169 0.218736
vt 0.014101 0.315084
vt 0.006889 0.200926
vt 0.014201 0.218656
vt 0.007278 0.313729
vt 0.014042 0.371649
vt 0.007481 0.372755
vt 0.018694 0.404542
vt 0.012383 0.405225
vt 0.029525 0.435883
vt 0.020994 0.436787
vt 0.043135 0.461803
vt 0.031475 0.46088
vt 0.020994 0.436787
vt 0.043135 0.461803
vt 0.024425 0.460607
vt 0.020994 0.436787
vt 0.031475 0.46088
vt 0.017736 0.445329
vt 0.008096 0.417653
vt 0.012383 0.405225
vt 0.001349 0.378648
vt 0.007481 0.372755
vt 0.001403 0.314365
vt 0.007278 0.313729
vt 0.001525 0.169262
vt 0.016042 0.481175
vt 0.020995 0.488855
vt 0.007611 0.5095
vt 0.011711 0.517035
vt 0.002093 0.547153
vt 0.008388 0.545363
vt 0.001725 0.659727
vt 0.007691 0.660668
vt 0.001355 0.772733
vt 0.007066 0.764067
vt 0.040442 0.787023
vt 0.041164 0.802475
vt 0.10219 0.841137
vt 0.10195 0.855948
vt 0.154803 0.887247
vt 0.157629 0.904929
vt 0.206504 0.932557
vt 0.208089 0.949318
vt 0.257823 0.977532
vt 0.256889 0.992248
vt 0.277767 0.993803
vt 0.275858 0.981891
vt 0.29739 0.988691
vt 0.295078 0.978688
vt 0.328388 0.962175
vt 0.327311 0.952922
vt 0.389576 0.892199
vt 0.390867 0.903359
vt 0.435606 0.869561
vt 0.43322 0.852958
vt 0.46289 0.831371
vt 0.460849 0.819324
vt 0.486166 0.805544
vt 0.485274 0.794498
vt 0.495968 0.798479
vt 0.495284 0.78649
vt 0.505205 0.805185
vt 0.504894 0.794498
vt 0.528373 0.831414
vt 0.528919 0.820925
vt 0.554972 0.870048
vt 0.556948 0.858564
vt 0.599309 0.903551
vt 0.599257 0.892434
vt 0.625876 0.928892
vt 0.62742 0.917024
vt 0.661562 0.962589
vt 0.662356 0.954168
vt 0.694379 0.9986
vt 0.693994 0.982161
vt 0.721063 1.009964
vt 0.717913 0.986696
vt 0.748729 0.977624
vt 0.747544 0.964272
vt 0.798651 0.917558
vt 0.797591 0.935683
vt 0.84526 0.874955
vt 0.844204 0.895672
vt 0.891205 0.832959
vt 0.888636 0.857533
vt 0.941934 0.786591
vt 0.941597 0.812073
vt 0.961208 0.792684
vt 0.964167 0.772075
vt 0.978669 0.786171
vt 0.977484 0.765762
vt 0.98824 0.785374
vt 0.990983 0.765762
vt 0.007278 0.313729
vt 0.001525 0.169262
vt 0.006889 0.200926
vt 0.215896 0.219824
vt 0.264869 0.219396
vt 0.216682 0.151069
vt 0.265298 0.149409
vt 0.170624 0.152377
vt 0.282104 0.148914
vt 0.281675 0.21942
vt 0.319994 0.219055
vt 0.316603 0.305085
vt 0.352084 0.304655
vt 0.348061 0.397608
vt 0.387664 0.397588
vt 0.387636 0.451599
vt 0.419214 0.45118
vt 0.4181 0.397463
vt 0.457163 0.451101
vt 0.457153 0.397755
vt 0.345706 0.45204
vt 0.312951 0.397753
vt 0.310791 0.452557
vt 0.280591 0.397924
vt 0.280255 0.453056
vt 0.482391 0.451049
vt 0.482503 0.397951
vt 0.493979 0.451025
vt 0.493878 0.398042
vt 0.482702 0.303712
vt 0.493699 0.303695
vt 0.457134 0.303761
vt 0.416159 0.303857
vt 0.387713 0.304291
vt 0.482883 0.217754
vt 0.493536 0.217741
vt 0.457117 0.217795
vt 0.414375 0.217875
vt 0.387758 0.218334
vt 0.355804 0.218685
vt 0.483044 0.141934
vt 0.493393 0.141786
vt 0.457102 0.142303
vt 0.412821 0.142934
vt 0.387797 0.144293
vt 0.358964 0.145653
vt 0.322825 0.147222
vt 0.387815 0.110862
vt 0.361754 0.081192
vt 0.326471 0.05473
vt 0.306424 0.0419
vt 0.282768 0.039494
vt 0.412759 0.125043
vt 0.390376 0.093772
vt 0.36435 0.065743
vt 0.329113 0.038515
vt 0.305619 0.023866
vt 0.281064 0.020096
vt 0.457598 0.125087
vt 0.483684 0.125114
vt 0.4933 0.125123
vt 0.507528 0.141585
vt 0.507306 0.125137
vt 0.536132 0.141178
vt 0.537048 0.125167
vt 0.581469 0.140532
vt 0.579153 0.217593
vt 0.53569 0.217673
vt 0.576593 0.30279
vt 0.603481 0.302559
vt 0.603259 0.398991
vt 0.630569 0.399296
vt 0.630534 0.450742
vt 0.603139 0.450799
vt 0.573712 0.398652
vt 0.572143 0.450863
vt 0.534646 0.398357
vt 0.534343 0.450941
vt 0.507478 0.398147
vt 0.507468 0.450997
vt 0.507497 0.303667
vt 0.507513 0.217718
vt 0.66498 0.450671
vt 0.535194 0.303612
vt 0.494144 0.554613
vt 0.507412 0.554959
vt 0.494301 0.653281
vt 0.50736 0.653058
vt 0.494465 0.756382
vt 0.507305 0.755916
vt 0.507295 0.771617
vt 0.504894 0.794498
vt 0.528919 0.820925
vt 0.532154 0.800485
vt 0.560219 0.83657
vt 0.556948 0.858564
vt 0.599257 0.892434
vt 0.601917 0.875862
vt 0.62742 0.917024
vt 0.629983 0.899116
vt 0.662356 0.954168
vt 0.664865 0.935201
vt 0.693994 0.982161
vt 0.694535 0.964069
vt 0.717913 0.986696
vt 0.716185 0.965673
vt 0.747544 0.964272
vt 0.745454 0.942418
vt 0.798651 0.917558
vt 0.796638 0.89745
vt 0.84526 0.874955
vt 0.843938 0.855894
vt 0.891205 0.832959
vt 0.891624 0.813999
vt 0.941934 0.786591
vt 0.936492 0.77458
vt 0.964167 0.772075
vt 0.957552 0.753976
vt 0.977484 0.765762
vt 0.975594 0.745957
vt 0.990983 0.765762
vt 0.984297 0.744011
vt 0.896147 0.747617
vt 0.844253 0.748622
vt 0.796502 0.859699
vt 0.796103 0.749426
vt 0.745435 0.86373
vt 0.745407 0.750228
vt 0.795746 0.650626
vt 0.745383 0.650832
vt 0.795432 0.5636
vt 0.745361 0.561992
vt 0.844791 0.56517
vt 0.844541 0.650401
vt 0.908477 0.567026
vt 0.902814 0.649943
vt 0.908072 0.495345
vt 0.912446 0.508466
vt 0.845129 0.450298
vt 0.795023 0.450401
vt 0.794832 0.400585
vt 0.845263 0.400815
vt 0.905748 0.450172
vt 0.907135 0.402876
vt 0.845545 0.297517
vt 0.794441 0.299056
vt 0.79413 0.218016
vt 0.745167 0.218595
vt 0.793832 0.140664
vt 0.745112 0.141531
vt 0.714617 0.218846
vt 0.745226 0.300341
vt 0.714817 0.301064
vt 0.745297 0.400298
vt 0.715057 0.400102
vt 0.745333 0.450504
vt 0.715179 0.450567
vt 0.693901 0.399929
vt 0.69398 0.450611
vt 0.664965 0.399647
vt 0.693746 0.301457
vt 0.664937 0.301859
vt 0.630635 0.302291
vt 0.693617 0.218854
vt 0.664913 0.218657
vt 0.630692 0.218346
vt 0.603677 0.217985
vt 0.603854 0.140989
vt 0.603922 0.111664
vt 0.630745 0.141419
vt 0.630785 0.081994
vt 0.66489 0.141766
vt 0.664865 0.05473
vt 0.693496 0.141974
vt 0.693332 0.037089
vt 0.714431 0.141923
vt 0.714181 0.038693
vt 0.745053 0.059542
vt 0.793668 0.097997
vt 0.845976 0.139373
vt 0.845764 0.217119
vt 0.898345 0.296424
vt 0.891583 0.215764
vt 0.916718 0.388032
vt 0.923145 0.381392
vt 0.937184 0.371477
vt 0.938888 0.295586
vt 0.955244 0.363515
vt 0.959835 0.295068
vt 0.965971 0.33379
vt 0.975594 0.323366
vt 0.976106 0.29694
vt 0.966353 0.361508
vt 0.980004 0.315347
vt 0.983613 0.299309
vt 0.977599 0.219923
vt 0.982811 0.220725
vt 0.964769 0.221527
vt 0.940712 0.21431
vt 0.887908 0.172541
vt 0.980429 0.200727
vt 0.990594 0.193079
vt 0.982811 0.220725
vt 0.966969 0.201888
vt 0.945347 0.192278
vt 0.888767 0.148384
vt 0.84742 0.116308
vt 0.795524 0.076048
vt 0.747143 0.038515
vt 0.715511 0.023299
vt 0.694306 0.020963
vt 0.662657 0.038515
vt 0.627486 0.066139
vt 0.600192 0.099378
vt 0.579849 0.12521
vt 0.281152 0.305506
vt 0.715395 0.561015
vt 0.715571 0.650934
vt 0.694197 0.651041
vt 0.694099 0.560341
vt 0.664932 0.651248
vt 0.664954 0.55945
vt 0.630287 0.651532
vt 0.630402 0.558413
vt 0.602561 0.651773
vt 0.602832 0.557591
vt 0.565919 0.652208
vt 0.568873 0.556651
vt 0.53308 0.652618
vt 0.533687 0.555643
vt 0.532439 0.755005
vt 0.562769 0.754095
vt 0.60227 0.753044
vt 0.630163 0.752407
vt 0.630015 0.87336
vt 0.664908 0.751639
vt 0.66488 0.870293
vt 0.694305 0.75104
vt 0.694431 0.867769
vt 0.715765 0.750669
vt 0.715991 0.866021
vt 0.923842 0.399711
vt 0.918381 0.406625
vt 0.919712 0.392412
vt 0.913161 0.401148
vt 0.925604 0.386198
vt 0.92761 0.3957
vt 0.939367 0.377437
vt 0.941283 0.386147
vt 0.958086 0.369949
vt 0.95849 0.379142
vt 0.973373 0.367454
vt 0.977599 0.375488
vt 0.917409 0.447522
vt 0.911047 0.449194
vt 0.9129 0.489956
vt 0.918694 0.480975
vt 0.917399 0.501603
vt 0.922755 0.487223
vt 0.924016 0.505838
vt 0.927753 0.492221
vt 0.93831 0.517484
vt 0.941283 0.503059
vt 0.958327 0.524758
vt 0.959092 0.513583
vt 0.970739 0.529239
vt 0.975542 0.518718
vt 0.973 0.339827
vt 0.977599 0.375488
vt 0.977531 0.348667
vt 0.982035 0.329879
vt 0.977531 0.348667
vt 0.986348 0.337876
vt 0.987765 0.322816
vt 0.993058 0.3279
vt 0.991073 0.308068
vt 0.996674 0.311991
vt 0.998264 0.156167
vt 0.975542 0.518718
vt 0.970981 0.552805
vt 0.975514 0.544057
vt 0.990594 0.193079
vt 0.998264 0.156167
vt 0.991073 0.308068
vt 0.980429 0.200727
vt 0.998264 0.156167
vt 0.990594 0.193079
vt 0.982035 0.329879
vt 0.973 0.339827
vt 0.975594 0.323366
vt 0.965971 0.33379
vt 0.973373 0.367454
vt 0.966353 0.361508
vt 0.980004 0.315347
vt 0.973373 0.367454
vt 0.958086 0.369949
vt 0.966353 0.361508
vt 0.955244 0.363515
vt 0.939367 0.377437
vt 0.937184 0.371477
vt 0.925604 0.386198
vt 0.923145 0.381392
vt 0.919712 0.392412
vt 0.916718 0.388032
vt 0.913161 0.401148
vt 0.907135 0.402876
vt 0.911047 0.449194
vt 0.905748 0.450172
vt 0.9129 0.489956
vt 0.908072 0.495345
vt 0.912446 0.508466
vt 0.917399 0.501603
vt 0.920256 0.514713
vt 0.924016 0.505838
vt 0.935563 0.52596
vt 0.93831 0.517484
vt 0.955244 0.535331
vt 0.990594 0.193079
vt 0.983613 0.299309
vt 0.982811 0.220725
vt 0.991073 0.308068
vt 0.983613 0.299309
vt 0.991073 0.308068
vt 0.987765 0.322816
vt 0.983613 0.299309
vt 0.980004 0.315347
vt 0.987765 0.322816
vt 0.982035 0.329879
vt 0.980004 0.315347
vt 0.986348 0.337876
vt 0.993058 0.3279
vt 0.98897 0.344157
vt 0.998853 0.333354
vt 0.980754 0.355288
vt 0.977531 0.348667
vt 0.977599 0.375488
vt 0.977531 0.348667
vt 0.98215 0.382891
vt 0.980754 0.355288
vt 0.95849 0.379142
vt 0.977599 0.375488
vt 0.953516 0.384759
vt 0.98215 0.382891
vt 0.936525 0.392221
vt 0.941283 0.386147
vt 0.923455 0.400687
vt 0.92761 0.3957
vt 0.918381 0.406625
vt 0.923842 0.399711
vt 0.917526 0.410492
vt 0.92761 0.3957
vt 0.919609 0.405746
vt 0.917787 0.444951
vt 0.917409 0.447522
vt 0.918033 0.477415
vt 0.919947 0.485186
vt 0.918694 0.480975
vt 0.917526 0.410492
vt 0.923842 0.399711
vt 0.919609 0.405746
vt 0.92761 0.3957
vt 0.923455 0.400687
vt 0.917787 0.444951
vt 0.918381 0.406625
vt 0.993058 0.3279
vt 0.996674 0.311991
vt 0.998853 0.333354
vt 1.000214 0.316113
vt 0.998264 0.156167
vt 1.004396 0.15455
vt 1.000214 0.316113
vt 0.998264 0.156167
vt 0.970981 0.552805
vt 0.975514 0.544057
vt 0.981551 0.562758
vt 0.986483 0.552825
vt 0.986166 0.57184
vt 0.992419 0.563447
vt 0.989659 0.584186
vt 0.996391 0.578981
vt 0.995933 0.648596
vt 0.990132 0.649109
vt 0.995023 0.786966
vt 0.990983 0.765762
vt 1.002987 0.649141
vt 1.004607 0.580571
vt 0.992419 0.563447
vt 0.992419 0.563447
vt 0.997218 0.553408
vt 0.986483 0.552825
vt 0.991413 0.543324
vt 0.975514 0.544057
vt 0.995023 0.786966
vt 0.999582 0.793314
vt 0.977736 0.570944
vt 0.970981 0.552805
vt 0.981551 0.562758
vt 0.983672 0.578442
vt 0.986166 0.57184
vt 0.984296 0.595311
vt 0.989659 0.584186
vt 0.984296 0.649118
vt 0.990132 0.649109
vt 0.984297 0.744011
vt 0.990983 0.765762
vt 0.984296 0.595311
vt 0.986166 0.57184
vt 0.963991 0.568445
vt 0.970981 0.552805
vt 0.977736 0.570944
vt 0.961182 0.649389
vt 0.935719 0.56782
vt 0.936025 0.649682
vt 0.936388 0.746838
vt 0.957816 0.746359
vt 0.976778 0.649203
vt 0.977736 0.570944
vt 0.983672 0.578442
vt 0.984296 0.595311
vt 0.984296 0.649118
vt 0.984296 0.595311
vt 0.935563 0.52596
vt 0.955244 0.535331
vt 0.920256 0.514713
vt 0.963991 0.53908
vt 0.955244 0.535331
vt 0.963991 0.53908
vt 0.963991 0.568445
vt 0.970739 0.529239
vt 0.970981 0.552805
vt 0.963991 0.53908
vt 0.963991 0.53908
vt 0.958327 0.524758
vt 0.970739 0.529239
vt 0.955244 0.535331
vt 0.93831 0.517484
vt 0.990983 0.765762
vt 0.995023 0.786966
vt 0.98824 0.785374
vt 0.495284 0.78649
vt 0.481635 0.767608
vt 0.485274 0.794498
vt 0.457178 0.796476
vt 0.460849 0.819324
vt 0.427107 0.831758
vt 0.43322 0.852958
vt 0.387414 0.874258
vt 0.389576 0.892199
vt 0.327311 0.952922
vt 0.324867 0.933597
vt 0.290787 0.960059
vt 0.295078 0.978688
vt 0.277155 0.963267
vt 0.275858 0.981891
vt 0.260316 0.960861
vt 0.257823 0.977532
vt 0.20795 0.912826
vt 0.206504 0.932557
vt 0.157618 0.866657
vt 0.154803 0.887247
vt 0.101948 0.815591
vt 0.10219 0.841137
vt 0.047015 0.765202
vt 0.040442 0.787023
vt 0.007066 0.764067
vt 0.014539 0.74275
vt 0.277725 0.869572
vt 0.260879 0.869054
vt 0.278464 0.74787
vt 0.299127 0.74848
vt 0.29433 0.870175
vt 0.332829 0.749614
vt 0.327553 0.871539
vt 0.387478 0.751731
vt 0.425479 0.753272
vt 0.457176 0.754705
vt 0.481663 0.755836
vt 0.481908 0.653267
vt 0.482144 0.554188
vt 0.457172 0.65318
vt 0.457167 0.553278
vt 0.423402 0.653092
vt 0.421305 0.551985
vt 0.38753 0.653216
vt 0.387584 0.551055
vt 0.336992 0.653406
vt 0.341479 0.549727
vt 0.302862 0.653712
vt 0.306993 0.548913
vt 0.279034 0.654029
vt 0.279677 0.548299
vt 0.262199 0.654226
vt 0.262851 0.547941
vt 0.210901 0.655782
vt 0.209857 0.746737
vt 0.159825 0.745972
vt 0.104489 0.744949
vt 0.048553 0.743665
vt 0.014539 0.74275
vt 0.01546 0.660489
vt 0.054541 0.659801
vt 0.016731 0.54693
vt 0.06256 0.547493
vt 0.107596 0.658612
vt 0.111586 0.547705
vt 0.161448 0.657202
vt 0.163448 0.547835
vt 0.21214 0.547902
vt 0.030599 0.490173
vt 0.030599 0.490173
vt 0.021676 0.518151
vt 0.043135 0.461803
vt 0.020995 0.488855
vt 0.031475 0.46088
vt 0.030599 0.490173
vt 0.020995 0.488855
vt 0.043135 0.461803
vt 0.030599 0.490173
vt 0.011711 0.517035
vt 0.021676 0.518151
vt 0.008388 0.545363
vt 0.016731 0.54693
vt 0.007691 0.660668
vt 0.01546 0.660489
vt 0.007066 0.764067
vt 0.014539 0.74275
vt 0.991413 0.543324
vt 0.975514 0.544057
vt 0.981891 0.534351
vt 0.975514 0.544057
vt 0.975542 0.518718
vt 0.981891 0.534351
vt 0.981891 0.534351
vt 0.975542 0.518718
vt 0.980256 0.513756
vt 0.975542 0.518718
vt 0.959092 0.513583
vt 0.980256 0.513756
vt 0.953854 0.508848
vt 0.941283 0.503059
vt 0.93737 0.499721
vt 0.927753 0.492221
vt 0.922755 0.487223
vt 0.918694 0.480975
vt 0.919947 0.485186
vt 0.923177 0.488919
vt 0.927753 0.492221
vt 0.93737 0.499721
vt 0.917409 0.447522
vt 0.918033 0.477415
vt 0.261626 0.74742
vt 0.208465 0.867914
vn -0.4277042 0.7889642 -0.44114
vn -0.02649502 0.6837178 -0.7292653
vn -0.02298841 0.6833935 -0.7296882
vn -0.0518501 0.6710002 -0.739642
vn -0.1121984 0.6562775 -0.7461309
vn -0.1605922 0.6457687 -0.7464536
vn -0.2276859 0.6463227 -0.7283036
vn -0.250803 0.6575224 -0.7104661
vn -0.2827729 0.6610408 -0.6950286
vn -0.2717071 0.6731861 -0.6877469
vn -0.2720508 0.6764414 -0.6844088
vn -0.2680023 0.6836252 -0.6788456
vn -0.2685993 0.6867433 -0.6754539
vn -0.2644992 0.693935 -0.6696972
vn -0.2650559 0.6970183 -0.6662664
vn -0.2609107 0.7041901 -0.6603347
vn -0.2309988 0.7118955 -0.6632077
vn -0.1973703 0.720365 -0.6649204
vn -0.09610423 0.729215 -0.6775025
vn -0.02539146 0.7286462 -0.6844195
vn 0.1002993 0.7206516 -0.6860039
vn 0.1555919 0.7141181 -0.6825147
vn 0.2246854 0.7059898 -0.671636
vn 0.2379927 0.706379 -0.6666244
vn 0.2835166 0.7002376 -0.6551988
vn 0.315477 0.6920797 -0.6492304
vn 0.3786959 0.6753829 -0.6328089
vn 0.4083054 0.6626722 -0.6278155
vn 0.2991896 0.688028 -0.6611376
vn 0.1486516 0.7061145 -0.6923186
vn -0.0009009934 0.7102091 -0.7039902
vn -0.0008745606 0.7102826 -0.7039161
vn -0.0009002415 0.7103103 -0.7038881
vn -0.0008750217 0.7103465 -0.7038515
vn -0.0009029799 0.7103566 -0.7038414
vn -0.000878519 0.7103811 -0.7038167
vn -0.000904198 0.710396 -0.7038016
vn -0.0008757716 0.7104421 -0.7037551
vn -0.0009015817 0.7104737 -0.7037231
vn -0.0008752241 0.7105497 -0.7036465
vn -0.1481864 0.7067502 -0.6917695
vn -0.2808476 0.698341 -0.658365
vn -0.3906262 0.682353 -0.6179041
vn -0.3772047 0.6835892 -0.6248378
vn -0.3361105 0.6837803 -0.6476682
vn -0.3102732 0.6779524 -0.6664166
vn -0.2398032 0.6918773 -0.6810288
vn -0.2158689 0.6915216 -0.6893464
vn -0.1298719 0.6983996 -0.7038262
vn -0.05676356 0.7113604 -0.7005314
vn 0.07611498 0.7195809 -0.6902243
vn 0.1374497 0.704038 -0.6967338
vn 0.2150804 0.6732829 -0.7074112
vn 0.2381593 0.6551125 -0.7170131
vn 0.2684245 0.6561709 -0.7052575
vn 0.2674579 0.6645374 -0.697751
vn 0.2642308 0.66935 -0.6943721
vn 0.2635727 0.6764278 -0.6877316
vn 0.2607035 0.6800989 -0.6852002
vn 0.2598112 0.6875672 -0.6780482
vn 0.2197834 0.6974316 -0.6821177
vn 0.1845126 0.7084842 -0.6811793
vn 0.09595743 0.7193291 -0.6880101
vn 0.03897766 0.7222277 -0.6905562
vn -0.1932084 0.710629 -0.6765183
vn -0.1754836 0.877695 -0.445934
vn -0.1459933 0.9798701 -0.1361638
vn 0.2447747 0.5197888 0.8184772
vn 0.3018924 0.5304129 0.7921636
vn 0.1819761 0.8167076 0.5476069
vn 0.1690046 0.8770608 0.4496685
vn 0.09822868 0.9070023 0.4095095
vn 0.1709632 0.5271837 0.8323755
vn 0.07027921 0.7940121 0.6038259
vn 0.06657924 0.5758055 0.8148713
vn 0.04837119 0.5997862 0.7986969
vn 0.02370131 0.9584739 0.2841933
vn 0.2979251 0.5449584 0.783748
vn 0.1086342 0.950079 0.2924867
vn 0.1894684 0.8441065 0.5015835
vn 0.2970302 0.5561239 0.7762083
vn 0.2922296 0.5683944 0.7691097
vn 0.1288464 0.929464 0.345681
vn 0.1571773 0.8561683 0.4922103
vn 0.2537064 0.5807962 0.7735043
vn -0.002435164 0.999997 -0.0003919636
vn -0.002372199 0.9999971 -0.0002459739
vn -0.002259663 0.9999975 -0.0002412826
vn -0.002225123 0.9999975 -0.0001264309
vn -0.00213478 0.9999977 -0.0001242253
vn 0.003375669 0.9999943 2.587865E-05
vn 0.001561961 0.9999988 2.29402E-05
vn -0.002098933 0.9999979 -1.110304E-05
vn -0.002149153 0.9999977 -0.0002366801
vn -0.002107158 0.9999979 0
vn -0.002163696 0.9999976 -0.0003699834
vn -0.002118788 0.9999977 4.627878E-05
vn -0.002309287 0.9999973 -0.0005526741
vn -0.002132661 0.9999977 6.878187E-05
vn -0.002172035 0.9999974 -0.0007620188
vn 0.2911033 0.9565664 -0.0154779
vn 0.003333892 0.9999945 2.520008E-05
vn -0.002299453 0.9999973 -0.0003808702
vn -0.002530839 0.9999967 -0.0005750244
vn -0.002444908 0.9999967 -0.0008065322
vn -0.001681167 0.9999982 -0.000863198
vn -0.002072567 0.9999976 -0.0008012355
vn -0.001973076 0.9999976 -0.0009113856
vn -0.001031726 0.9999992 -0.0008574194
vn -0.0007957548 0.9999993 -0.0008724445
vn -0.002773359 0.9999959 -0.0007609994
vn -0.002811902 0.9999957 -0.0008254707
vn -0.002044404 0.9999975 -0.0009196994
vn 0.9150105 0.4034245 -0.002093937
vn 0.9118513 0.4105023 -0.003878772
vn 0.9019217 0.4318971 0.001399961
vn 0.9242665 0.3817067 -0.005610506
vn 0.9214245 0.3785493 -0.08762024
vn 0.912921 0.3677109 -0.1770988
vn 0.8644208 0.3550645 -0.3559574
vn 0.8226022 0.3929099 -0.4110323
vn 0.7315428 0.4113354 -0.5437356
vn 0.6818797 0.4895592 -0.5434813
vn 0.631828 0.4880347 -0.6021758
vn 0.6306048 0.5589663 -0.5384183
vn 0.6818797 0.4895592 -0.5434813
vn 0.288839 0.9164861 -0.2768126
vn -0.6493801 0.7391715 0.1786925
vn -0.6087497 0.6672869 0.4291293
vn -0.6217263 0.7693198 -0.1469813
vn -0.6331705 0.6339421 0.4440861
vn -0.6333082 0.6988051 0.3325542
vn -0.6297456 0.7348808 0.2517352
vn -0.6515853 0.7478036 0.1273826
vn -0.6762235 0.7347688 0.0532597
vn -0.7024032 0.7113376 -0.0250736
vn -0.7585467 0.651543 -0.009939051
vn -0.6019968 0.7429363 -0.2926525
vn -0.5657285 0.7082591 -0.4222798
vn -0.5683701 0.7242516 -0.3904039
vn -0.6020582 0.7405416 -0.2985365
vn -0.6316882 0.7406267 -0.2290024
vn -0.6605042 0.7440756 -0.1004277
vn -0.6870915 0.7244785 -0.05510174
vn -0.7041967 0.7099643 0.007595001
vn -0.7411253 0.6713667 -0.0003074728
vn -0.570326 0.7056723 0.4204221
vn -0.5888796 0.6820951 0.4335518
vn -0.2861465 0.6118014 0.7374411
vn -0.301215 0.6293044 0.7164115
vn -0.3135045 0.6279765 0.7122924
vn -0.3138646 0.6262124 0.7136855
vn -0.3143462 0.6253459 0.7142331
vn -0.3146513 0.6237471 0.7154958
vn -0.3151193 0.622914 0.7160154
vn -0.3153941 0.6214039 0.7172055
vn -0.198771 0.6160435 0.7622208
vn -0.19339 0.6218311 0.7588981
vn -0.04997715 0.5998414 0.7985565
vn -0.01104343 0.6159173 0.7877334
vn 0.1199093 0.6440306 0.7555438
vn 0.2156357 0.6499695 0.7287254
vn 0.3169038 0.6315686 0.7075967
vn 0.3192382 0.6141294 0.7217562
vn 0.3167764 0.6478167 0.6928104
vn 0.3127766 0.6403787 0.7014883
vn 0.3379892 0.6744792 0.6563849
vn 0.3795162 0.6560426 0.6523615
vn 0.4105894 0.6189867 0.6695311
vn 0.3976639 0.5712265 0.7180277
vn 0.3515432 0.5602432 0.7500299
vn 0.3220429 0.5530907 0.7683613
vn 0.1024961 0.5782432 0.8094006
vn -0.1105483 0.5666876 0.8164828
vn -0.3514829 0.5145945 0.782082
vn -0.3937849 0.5012392 0.7705145
vn -0.4546861 0.4930476 0.7417308
vn -0.4645376 0.5215488 0.7156757
vn -0.4213234 0.5509899 0.7203448
vn -0.3551722 0.5593165 0.7490112
vn -0.3272874 0.533833 0.7796828
vn -0.3427209 0.5301213 0.7755732
vn -0.3540563 0.5512006 0.7555277
vn -0.3679991 0.5374746 0.7587475
vn -0.3830788 0.498619 0.7775794
vn -0.3806938 0.4760526 0.7927459
vn -0.290452 0.5156276 0.8060806
vn -0.1898794 0.5900406 0.784728
vn 0.02843705 0.6659004 0.7454985
vn 0.1723766 0.673803 0.7185234
vn 0.3004955 0.6457323 0.7019488
vn 0.3070562 0.5976369 0.7406394
vn 0.3098073 0.6463397 0.6973267
vn 0.287099 0.6910022 0.6633928
vn 0.2865478 0.7079239 0.6455494
vn 0.2659776 0.742231 0.615101
vn 0.2658441 0.755008 0.5994079
vn 0.2465737 0.7833024 0.5706477
vn 0.2430298 0.7795359 0.577287
vn 0.2463297 0.8069358 0.5368205
vn 0.199412 0.7633446 0.6144428
vn 0.1600379 0.749854 0.6419556
vn 0.09976467 0.7591187 0.643262
vn 0.07392641 0.765443 0.6392432
vn 0.07749147 0.7599674 0.6453252
vn 0.1003432 0.7600332 0.6420909
vn -0.7585467 0.651543 -0.009939051
vn -0.7762449 0.6302108 -0.0166841
vn -0.8256844 0.5641114 0.004870463
vn -0.002315337 0.9999974 -0.0001286133
vn 0.003296298 0.9999946 2.458203E-05
vn -0.002386245 0.9999971 -0.0001303305
vn 0.003263639 0.9999948 2.405158E-05
vn -0.002440133 0.999997 -0.0002203794
vn -0.001656743 0.9999986 0.0002519868
vn 0.0001883737 1 -6.483644E-05
vn -0.005412223 0.9999853 -0.0001962777
vn -0.005603768 0.9999843 -0.0002060387
vn -0.002791044 0.9999962 -2.018653E-05
vn -0.002744183 0.9999963 -1.678696E-05
vn -0.003236736 0.9999948 4.728425E-05
vn -0.003073573 0.9999954 -1.402871E-05
vn -0.003085716 0.9999952 0.0002063268
vn -0.003205319 0.9999949 0.000213058
vn -0.002829673 0.9999961 0.0001295366
vn -0.002591527 0.9999967 1.131621E-05
vn -0.002615146 0.9999967 -1.886152E-05
vn -0.005864717 0.9999828 -0.000219827
vn -0.007485289 0.999972 -0.0002673822
vn -0.0003552647 1 -8.389258E-05
vn 0.002634122 0.9999965 3.275225E-05
vn -0.002725012 0.9999963 4.184595E-05
vn -0.00261304 0.9999965 -0.0001731341
vn -0.002837596 0.9999959 0
vn -0.002619365 0.9999965 -0.000269936
vn -0.002321195 0.9999974 -0.0001725007
vn -0.002320637 0.9999973 -0.000270382
vn -0.002288063 0.9999974 0
vn -0.00333498 0.9999944 0.0002169538
vn -0.003489829 0.9999939 5.030986E-05
vn -0.002025599 0.999998 -0.0001718126
vn -0.002017596 0.999998 -0.0002707009
vn -0.00200002 0.999998 0
vn -0.00346853 0.999994 0.0002204573
vn -0.003799128 0.9999928 5.340881E-05
vn -0.002840359 0.9999959 -2.371467E-05
vn 0.0003813104 0.8889996 0.4579079
vn 0.0004075012 0.8873293 0.4611361
vn 0.0003490559 0.8924293 0.4511871
vn -0.08612221 0.9565068 0.2787072
vn -0.004111767 0.9999915 5.637047E-05
vn -0.002890577 0.9999958 -2.728632E-05
vn -0.00478002 0.9999886 -0.0002117937
vn -0.295892 0.8359935 0.4621285
vn -0.2054156 0.8874741 0.412546
vn -0.1368402 0.9195756 0.3683143
vn -0.1242579 0.8386131 0.5303659
vn 0.01009371 0.8523595 0.5228589
vn -0.23458 0.5993568 0.765339
vn -0.4179075 0.5838728 0.6960214
vn -0.327415 0.5728951 0.7513925
vn -0.262013 0.5821926 0.7696759
vn -0.121733 0.5951677 0.7943277
vn 0.1049837 0.6141279 0.7821926
vn 0.0004014089 0.5839127 0.8118165
vn 0.0004315221 0.5758169 0.8175786
vn 0.0004466362 0.5713075 0.8207359
vn 0.0004211105 0.8859477 0.4637851
vn 0.0004645934 0.5636713 0.8259991
vn 0.0004489628 0.8832352 0.4689302
vn 0.0005040151 0.5493503 0.835592
vn 0.1284976 0.8853536 0.4468082
vn -0.003189137 0.9999946 -0.0007762247
vn -0.001995153 0.9999979 -0.000570863
vn -0.002925797 0.9999955 -0.0007652327
vn -0.00347219 0.9999938 -0.0005636882
vn -0.003113093 0.999995 -0.000554577
vn -0.002781879 0.9999961 -0.0005133055
vn -0.00279279 0.9999962 -5.651827E-05
vn -0.002782841 0.9999962 -0.000193821
vn -0.002777705 0.9999958 -0.0007602893
vn -0.0028593 0.9999958 -0.0003532365
vn -0.002599372 0.9999964 -0.0005824228
vn -0.002769587 0.9999962 -0.0001165693
vn -0.002604499 0.9999965 -0.000381743
vn -0.002769246 0.9999962 -5.44366E-05
vn -0.002300764 0.9999973 -0.0003809305
vn -0.002007096 0.999998 -0.0003800631
vn -0.002802583 0.9999961 -5.335389E-05
vn -0.002287611 0.9999973 -0.0005762376
vn -0.002970623 0.9999956 0.0002214497
vn -0.002716695 0.9999963 0.0002356479
vn -0.00304995 0.9999954 0.0002214085
vn -0.002617581 0.9999965 0.0002359001
vn 0.04506695 0.9706262 -0.236334
vn -0.002540557 0.9999968 -0.0003472543
vn 0.1924236 0.9208538 -0.3391188
vn 0.3151153 0.7279284 -0.6089521
vn 0.3751924 0.6902135 -0.6187373
vn 0.1636494 0.9479415 -0.2731774
vn 0.216584 0.8880179 -0.4056052
vn 0.3291848 0.7061945 -0.6268387
vn 0.307583 0.637493 -0.706396
vn 0.1509128 0.9258472 -0.3464567
vn 0.3272317 0.6162571 -0.7163425
vn 0.185942 0.9030325 -0.3872438
vn 0.3421021 0.6345356 -0.693059
vn 0.1865686 0.9008915 -0.3919014
vn 0.2479573 0.6131176 -0.7500693
vn 0.08312888 0.9014447 -0.4248376
vn -0.05893962 0.6415856 -0.7647837
vn -0.09921916 0.9122687 -0.3973932
vn -0.2901247 0.6540717 -0.6985826
vn -0.1693946 0.9074733 -0.3844448
vn -0.3193046 0.6353165 -0.7031482
vn -0.216028 0.8513016 -0.4781397
vn -0.3297183 0.6030169 -0.7263997
vn -0.1622527 0.9200284 -0.3566819
vn -0.3400272 0.5680864 -0.7494394
vn -0.1972831 0.8783262 -0.4354567
vn -0.3206272 0.5260162 -0.7877215
vn -0.1765856 0.8868817 -0.4269173
vn -0.255961 0.6167801 -0.7443563
vn -0.1431537 0.8723606 -0.4674335
vn -0.09848475 0.658954 -0.7457079
vn -0.0324896 0.9419524 -0.3341708
vn -0.01839346 0.7023481 -0.711596
vn -0.04320778 0.9337574 -0.3552889
vn -0.004194342 0.9999903 0.001294349
vn -0.004003074 0.999992 0.0003143612
vn -0.003472124 0.999994 0.000145511
vn -0.003301671 0.9999945 0.0001448694
vn -0.003771886 0.9999928 0.000304681
vn -0.003524286 0.9999938 0.0003040654
vn -0.003140752 0.9999951 0.0001442037
vn -0.003293923 0.9999945 0.000303529
vn -0.002988796 0.9999956 0.0001435594
vn -0.003081562 0.9999952 0.0003030545
vn -0.00407085 0.9999912 -0.001047679
vn -0.004665799 0.999989 0.0003412543
vn -0.01459103 0.9998933 -0.0006222165
vn -0.005613422 0.9999828 0.001722248
vn -0.01563121 0.9998658 -0.004899577
vn -0.04125877 0.9991176 -0.007863894
vn -0.002867186 0.9999959 -2.181646E-05
vn -0.002858748 0.9999959 -3.682202E-05
vn -0.00291795 0.9999957 -0.0002084808
vn -0.002883008 0.9999958 -6.620461E-05
vn -0.002734275 0.9999963 1.802375E-05
vn -0.007194186 0.9999717 0.002211325
vn -0.003910587 0.9999923 0.0005324107
vn -0.003078385 0.9999952 -0.000207882
vn -0.003252104 0.9999948 -0.0001457988
vn -0.003311545 0.9999945 -0.0003219102
vn -0.00335263 0.9999944 -0.0002678759
vn -0.003659276 0.9999932 -0.0004408047
vn -0.003276303 0.9999945 -0.0005088138
vn -0.003198508 0.9999949 -0.0003820529
vn -0.002963124 0.9999955 -0.0005393573
vn -0.002981646 0.9999955 -0.0003826485
vn -0.002853477 0.9999958 -0.0005396784
vn -0.002899822 0.9999958 -4.252628E-05
vn -0.002803279 0.9999961 -5.036542E-05
vn -0.002811584 0.9999959 -0.0005578871
vn -0.002815462 0.9999961 -5.141451E-05
vn -0.002796715 0.9999959 -0.000546801
vn -0.002788796 0.9999959 -0.0005579732
vn -0.002769347 0.9999961 -0.00054679
vn -0.002725729 0.9999962 -0.0005132015
vn -0.002737462 0.9999961 -0.000562116
vn -0.002774364 0.9999961 -0.0005536638
vn -0.002677674 0.9999963 -0.0005263807
vn -0.003677301 0.9999931 -0.0005646759
vn -0.004111828 0.9999914 -0.0004814516
vn 0.2422328 0.8804598 0.4075706
vn -0.002621486 0.9999964 -0.0004996574
vn 0.1825669 0.8912829 0.4150712
vn -0.002702024 0.9999962 -0.0005398626
vn 0.1442649 0.8828444 0.44696
vn -0.002762904 0.9999961 -0.0005540572
vn 0.03076483 0.8772587 0.479031
vn -0.003038958 0.9999952 -0.0005684411
vn -0.09354252 0.8862306 0.4537015
vn -0.1186063 0.9422005 0.313354
vn -0.1842038 0.8682413 0.4606799
vn -0.1136213 0.9531035 0.2805066
vn -0.003845495 0.9999925 -0.0005808487
vn -0.01161223 0.9999323 0.0007332317
vn -0.003875865 0.9999909 -0.001748509
vn -0.03345097 0.9993654 0.0122476
vn -0.02460558 0.9996903 0.003724931
vn -0.005599791 0.999957 -0.007393272
vn -0.005643466 0.9999694 -0.005433763
vn 0.01255404 0.9999212 -0.0003251416
vn 0.004097482 0.9999706 -0.006492944
vn 0.02350289 0.9997179 0.003434358
vn -0.0003975507 0.9999862 -0.005241062
vn -0.002987076 0.9999721 -0.006851807
vn 0.05072363 0.9985164 0.01980416
vn -0.3518255 0.8833658 -0.3096506
vn -0.4545588 0.8808776 -0.1320263
vn 0.02482439 0.9177641 0.3963494
vn -0.3575423 0.8968855 0.2603074
vn -0.002735275 0.909488 0.4157211
vn -0.1089895 0.9202843 0.3757634
vn -0.1762766 0.8803036 0.4404453
vn 0.08704632 0.7703425 0.6316609
vn 0.01038719 0.9134064 0.4069161
vn -0.03319963 0.9373407 0.3468286
vn -0.07678812 0.6717218 0.736813
vn -0.2052335 0.7077091 0.6760378
vn -0.2633709 0.695287 0.668739
vn -0.2679691 0.6818932 0.6805984
vn -0.2729459 0.6668231 0.6934317
vn -0.2524841 0.6205491 0.7424087
vn -0.09558718 0.5289323 0.8432637
vn 0.1417155 0.5505885 0.8226597
vn 0.2710534 0.5798589 0.7683057
vn 0.3750495 0.5707371 0.7304773
vn 0.4498793 0.5281852 0.720159
vn 0.2303491 0.5513789 0.8018234
vn -7.744043E-05 1 -7.355439E-05
vn -0.002886236 0.9999957 0.0004431435
vn -0.003005793 0.9999955 0.0004435146
vn -0.002754324 0.9999962 0.00045594
vn -0.002786093 0.9999961 0.0004560354
vn -0.002737936 0.9999962 0.0004410348
vn -0.002770586 0.9999961 0.0004410197
vn -0.002642072 0.9999964 0.0004040132
vn -0.002720383 0.9999963 0.0004038207
vn -0.002153792 0.9999976 0.00030856
vn -0.002417401 0.999997 0.0003031309
vn -0.002945426 0.9999957 7.955795E-05
vn -0.002930187 0.9999957 8.071071E-05
vn -0.003084601 0.9999952 0.0002114044
vn -0.002900592 0.9999958 0.0002177401
vn -0.003246921 0.9999948 -4.137516E-05
vn -0.002984343 0.9999956 7.820689E-05
vn -0.001921591 0.9999981 0.0003135073
vn -0.002558323 0.9999967 0.0004042132
vn -0.002507359 0.9999968 0.0004153499
vn -0.002702108 0.9999963 0.0004410431
vn -0.002670883 0.9999964 0.0004410838
vn -0.002722253 0.9999962 0.0004558509
vn -0.002687076 0.9999963 0.0004557553
vn -0.00312297 0.9999951 0.000443864
vn -0.003261674 0.9999946 0.0004442773
vn 0.05470448 0.9921659 0.1123127
vn 0.061211 0.9953032 0.07499821
vn 0.03526804 0.9934977 0.108252
vn 0.0827155 0.9957023 0.04165279
vn 0.06145408 0.9899237 0.1275718
vn 0.06213512 0.9886104 0.1370711
vn 0.03271022 0.989364 0.1417347
vn 0.01682771 0.9925008 0.1210743
vn 0.01447781 0.9942539 0.1060643
vn 0.0333861 0.9901474 0.1359905
vn 0.1224634 0.9863666 0.1099259
vn 0.1890382 0.9780229 0.08795337
vn 0.09436041 0.995538 -0.0005394222
vn 0.08948524 0.9959882 -3.718613E-05
vn 0.07689399 0.9966877 -0.02647382
vn 0.04675685 0.9977665 -0.04770746
vn 0.01531944 0.9974953 -0.06905463
vn 0.02328912 0.9969644 -0.07429332
vn 0.03672964 0.995805 -0.08380498
vn 0.04271221 0.9952479 -0.08750658
vn 0.02150065 0.9957722 -0.08930612
vn 0.009649792 0.9966875 -0.08075271
vn 0.01495301 0.9969517 -0.07657479
vn 0.04160249 0.9941462 -0.09971175
vn 0.1136823 0.9899623 -0.08396993
vn 0.1764209 0.9818814 -0.06917047
vn 0.1950305 0.9785228 0.06675578
vn 0.4213704 0.904003 0.0722886
vn 0.5028014 0.8590848 0.0957288
vn 0.03113558 0.9939162 0.1056468
vn 0.09673465 0.9903408 0.09933522
vn 0.00922134 0.9978023 0.06561647
vn -0.3227111 0.9371514 -0.1326826
vn 0.2581528 0.9581892 0.1234124
vn -0.1662956 0.9835795 -0.07012267
vn 0.5911883 0.7861807 0.1800455
vn 0.0804106 0.989638 -0.1189574
vn 0.5380169 0.8417488 -0.04468611
vn 0.1263859 0.9800853 0.1531649
vn 0.3354771 0.9382528 -0.08447886
vn -0.3452532 0.8869337 0.3068368
vn -0.1459933 0.9798701 -0.1361638
vn -0.3130516 0.947704 -0.06209516
vn -0.05131068 0.966409 0.2518348
vn 0.0804106 0.989638 -0.1189574
vn 0.01038719 0.9134064 0.4069161
vn -0.4910326 0.4885872 -0.7212278
vn -0.6533052 0.4980162 -0.5702386
vn -0.4831987 0.4641314 -0.7423618
vn -0.8317594 0.4884974 -0.263717
vn -0.9036502 0.426509 0.03881276
vn -0.9039534 0.4258189 0.03932474
vn -0.6127493 0.532032 -0.5843629
vn -0.07195263 0.3268759 -0.9423242
vn -0.1097239 0.3305922 -0.9373737
vn -0.07090269 0.3277695 -0.9420934
vn -0.1552734 0.3225774 -0.9337205
vn -0.2286745 0.3125864 -0.9219532
vn -0.273241 0.2883429 -0.9177133
vn -0.3572793 0.273898 -0.8929341
vn -0.4134161 0.2594714 -0.8727896
vn -0.4868205 0.2570828 -0.8348139
vn -0.5362927 0.2399375 -0.8092095
vn -0.7445214 0.3028751 -0.5949408
vn -0.88679 0.3278324 -0.325775
vn -0.9376292 0.3472187 -0.01705403
vn -0.9450523 0.3241369 0.04256319
vn -0.8749216 0.3651876 0.3180414
vn -0.8858184 0.3467899 0.3083223
vn -0.6435115 0.4007773 0.6521277
vn -0.4728365 0.4232869 0.7728221
vn -0.319187 0.4183023 0.850378
vn -0.3149673 0.416834 0.8526692
vn -0.2923198 0.40406 0.8667668
vn -0.2431391 0.4178473 0.8753782
vn -0.1775263 0.4444466 0.8780385
vn -0.6884676 0.7252623 -0.002621815
vn -0.537017 0.8357578 -0.1145495
vn -0.4873993 0.8731713 0.003717831
vn -0.6604249 0.7388253 -0.1340747
vn -0.8271404 0.5349444 -0.1722596
vn -0.3130516 0.947704 -0.06209516
vn -0.3602 0.8980274 -0.2525922
vn -0.537017 0.8357578 -0.1145495
vn -0.4181103 0.8171426 -0.3968145
vn -0.6725136 0.5609309 -0.4827856
vn -0.4910326 0.4885872 -0.7212278
vn -0.4181103 0.8171426 -0.3968145
vn 0.5284644 0.2855449 0.7994933
vn 0.6346386 0.3648891 0.6812415
vn 0.5187933 0.2916746 0.8036041
vn 0.7159751 0.4263163 0.5528417
vn 0.6956941 0.3449442 0.6300977
vn 0.8630457 0.3685847 0.345395
vn 0.5339157 0.8454532 0.01195317
vn 0.7595841 0.5847741 0.2847301
vn 0.9314159 0.3595419 0.05651716
vn 0.6956941 0.3449442 0.6300977
vn 0.17005 0.09487963 0.9808573
vn 0.08690777 0.1002891 0.9911554
vn 0.1288983 0.09776067 0.9868273
vn 0.07314447 0.1118309 0.9910316
vn 0.2384042 0.1004516 0.965957
vn 0.277127 0.1004476 0.9555684
vn 0.396198 0.09903739 0.9128081
vn 0.4497006 0.1018911 0.8873487
vn 0.9203622 0.2213342 0.3224044
vn 0.5887418 0.126676 0.7983334
vn 0.8253442 0.1677469 0.5391362
vn 0.4497006 0.1018911 0.8873487
vn 0.5950096 0.1080697 0.7964197
vn 0.9729471 0.2309621 0.005509431
vn 0.9716403 0.2360186 -0.01450127
vn 0.956393 0.2324848 -0.1768145
vn 0.6813582 0.1515223 -0.716095
vn 0.8681235 0.1939072 -0.4569044
vn 0.8253442 0.1677469 0.5391362
vn 0.5887418 0.126676 0.7983334
vn 0.5950096 0.1080697 0.7964197
vn 0.4497006 0.1018911 0.8873487
vn 0.396198 0.09903739 0.9128081
vn 0.9729471 0.2309621 0.005509431
vn 0.9203622 0.2213342 0.3224044
vn 0.3960939 0.8193678 0.4144225
vn 0.5911883 0.7861807 0.1800455
vn 0.7159751 0.4263163 0.5528417
vn 0.8820783 0.4554137 0.1205667
vn 0.5594411 0.8286745 0.01800456
vn 0.9247442 0.3781987 -0.04259007
vn 0.8820783 0.4554137 0.1205667
vn 0.8991758 0.4372469 -0.01726322
vn 0.1761076 0.9814361 -0.07595692
vn 0.09049053 0.9908389 -0.1002484
vn 0.02621716 0.9945285 -0.1011227
vn 0.005174632 0.9985982 -0.05267725
vn 0.0297375 0.9992422 -0.02511534
vn 0.2406536 0.9624265 -0.1257812
vn 0.1666164 0.9858111 0.02037944
vn 0.5874433 0.8082029 -0.04145548
vn 0.5944477 0.8018641 0.06038097
vn 0.6284828 0.777352 0.02708093
vn 0.7229072 0.6659215 0.1842655
vn 0.574127 0.7357938 0.3591457
vn 0.8710926 0.4874752 0.05971257
vn 0.8106757 0.4939378 -0.3143729
vn 0.4391036 0.8300618 -0.3437809
vn 0.7170237 0.4060244 -0.5665874
vn 0.6371052 0.3294646 -0.6968142
vn 0.516366 0.2741311 -0.8113065
vn 0.4461088 0.250717 -0.8591437
vn 0.3925461 0.2395416 -0.8879907
vn 0.807737 0.587289 0.05150321
vn 0.9309873 0.3565687 0.07823966
vn -0.3232417 0.4829129 0.8138243
vn -0.5290332 0.5684676 0.6300544
vn -0.5249534 0.3560703 0.7730703
vn -0.7863975 0.2657042 0.5576559
vn -0.8592487 0.2900407 0.4213882
vn -0.9367266 0.3028534 0.1755648
vn -0.9045098 0.3969941 0.1557484
vn -0.9387211 0.344575 0.00840738
vn -0.9237721 0.3826812 0.01415126
vn -0.9191337 0.3937817 0.01136737
vn -0.9040315 0.4270038 0.01987008
vn -0.8165037 0.5575432 0.1498908
vn -0.8592487 0.2900407 0.4213882
vn -0.01252997 0.9862437 0.1648226
vn -0.005392078 0.8853594 0.4648758
vn -0.22231 0.7984976 0.5594461
vn 0.002157266 0.9999921 0.003342999
vn 0.002458258 0.9999613 0.008456163
vn -0.002571102 0.9999931 0.00267867
vn -0.0007009096 0.9999963 0.002645369
vn 0.002982989 0.9999896 0.003440176
vn -0.006985435 0.999972 0.002715387
vn -0.025989 0.957252 0.2880855
vn -0.02363261 0.9997206 1.032056E-05
vn -0.3060377 0.9378253 0.1637825
vn -0.008937565 0.9999517 0.004077224
vn -0.02580375 0.9996667 0.0007503015
vn -0.005796624 0.9999661 0.005841841
vn 0.01852328 0.9991461 0.03693298
vn -0.02281815 0.9997384 0.001578552
vn 0.02379435 0.9993972 0.02528041
vn -0.08029529 0.8485632 0.5229658
vn -0.07338014 0.8523685 0.5177676
vn -0.9053408 0.4246487 -0.005604989
vn -0.9053408 0.4246487 -0.005604989
vn -0.7370889 0.4790961 0.4766202
vn -0.9108471 0.412529 -0.0133126
vn -0.09529439 0.7287097 0.6781601
vn -0.1537949 0.4720611 0.868047
vn -0.1464212 0.4751714 0.8676249
vn -0.1347802 0.6468259 0.7506334
vn -0.2431391 0.4178473 0.8753782
vn 0.3974382 0.7798127 0.4836683
vn 0.6468335 0.73355 0.2085927
vn 0.07749147 0.7599674 0.6453252
vn -0.0843111 0.8000992 -0.5939133
vn -0.1729446 0.9172449 -0.3588203
vn -0.291482 0.759719 -0.5812618
vn -0.1779933 0.9328154 -0.3133271
vn -0.3388814 0.7301251 -0.5933605
vn -0.1849282 0.930816 -0.3152506
vn -0.332557 0.6995937 -0.6324354
vn -0.1825872 0.9097768 -0.3727843
vn -0.3359281 0.6122564 -0.7157476
vn -0.3074602 0.6443003 -0.7002466
vn -0.166989 0.908802 -0.3823526
vn -0.1249027 0.9081541 -0.3995692
vn -0.1553699 0.6355671 -0.7562503
vn -0.0280534 0.8995433 -0.4359299
vn 0.02999618 0.5963212 -0.8021853
vn 0.1004168 0.8898434 -0.4450788
vn 0.2592879 0.5781851 -0.7736096
vn 0.1845802 0.8912673 -0.4142134
vn 0.3172992 0.6192635 -0.7182157
vn 0.1288635 0.9480084 -0.2909883
vn 0.3027174 0.6619613 -0.6856889
vn 0.1636467 0.9153122 -0.3679993
vn 0.2880076 0.7006074 -0.6528407
vn 0.1812864 0.867581 -0.4630748
vn 0.2481692 0.7249968 -0.6424887
vn 0.6426628 0.6737513 -0.3647516
vn 0.3284366 0.9264254 -0.1840254
vn -0.003195926 0.9999949 -0.00019407
vn 0.003175801 0.999995 5.770174E-05
vn -0.002048015 0.999998 -0.0001496021
vn -0.008316497 0.9999654 -0.0003699719
vn -0.009708442 0.9999528 -0.0004504368
vn -0.002556121 0.9999968 0
vn -0.002504462 0.9999969 0
vn -0.002500233 0.9999969 3.844812E-05
vn -0.002770243 0.9999962 0.0002147492
vn -0.002876169 0.9999958 0.0001665779
vn -0.002597853 0.9999967 0.0002336118
vn -0.002622284 0.9999965 0.0002334585
vn -0.002670052 0.9999964 0.0002331936
vn -0.002884357 0.9999958 0.0001636741
vn -0.002895593 0.9999958 0.000161127
vn -0.002783765 0.9999962 0.000215197
vn -0.002829536 0.9999959 0.000216353
vn -0.002706373 0.9999964 4.052283E-05
vn -0.00294245 0.9999957 4.293655E-05
vn -0.002604969 0.9999967 0
vn -0.002654663 0.9999965 0
vn -0.007412344 0.9999725 -0.0003144851
vn -0.00679209 0.9999769 -0.0002789452
vn -0.001353866 0.999999 -0.0001247116
vn -0.0007932777 0.9999998 -0.0001038813
vn 0.003284659 0.9999946 5.947663E-05
vn 0.003342261 0.9999944 6.03991E-05
vn -0.002316328 0.9999974 8.764096E-05
vn -0.00243458 0.999997 8.480988E-05
vn -0.002469381 0.9999969 0.0002199392
vn -0.002641224 0.9999964 0.0003855175
vn -0.002418176 0.9999969 0.0005771159
vn 0.07786306 0.9699336 -0.2305776
vn -0.002114156 0.9999976 0.0006143674
vn -0.002389353 0.999997 0.0005812143
vn -0.03880014 0.9990989 -0.01720574
vn -0.002261243 0.9999973 0.0005972215
vn -0.002464783 0.9999969 0.0003994772
vn -0.002254608 0.9999974 0.0003451034
vn -0.002325749 0.9999973 0.0002258072
vn -0.002182965 0.9999976 0.0001959763
vn -0.002190322 0.9999976 9.067489E-05
vn 0.2388587 0.9565964 0.1669425
vn -0.03875644 0.999102 -0.01712061
vn -0.148178 0.9864335 -0.07065585
vn 0.2918704 0.9264508 0.2376982
vn 0.6693398 0.5390474 0.5112846
vn 0.6424543 0.6038972 0.4717634
vn 0.6897379 0.5142702 0.5096938
vn 0.6693398 0.5390474 0.5112846
vn 0.6497501 0.5478405 0.5269684
vn 0.3949017 0.8706868 0.2931846
vn 0.7459277 0.5511433 0.3739424
vn 0.7867837 0.5376163 0.3032164
vn 0.8405945 0.5206575 0.1493872
vn 0.8713372 0.4798858 0.1023769
vn 0.8834408 0.4682777 0.01575694
vn 0.892611 0.450462 0.01815377
vn 0.6426628 0.6737513 -0.3647516
vn 0.648625 0.6690557 -0.3628362
vn 0.4461088 0.250717 -0.8591437
vn 0.6541407 0.3307715 -0.6802134
vn 0.7793267 0.3809299 -0.4975363
vn 0.6450553 0.6714779 -0.3647207
vn 0.6418232 0.766759 -0.01198647
vn 0.8593578 0.3973581 -0.3218861
vn 0.9218888 0.3874236 0.004906528
vn 0.6418232 0.766759 -0.01198647
vn 0.9207172 0.3900578 0.01160049
vn 0.1597183 0.1506202 -0.9756042
vn 0.1874774 0.1220615 -0.9746554
vn 0.140002 0.1285342 -0.9817731
vn 0.222733 0.1033159 -0.9693895
vn 0.3057286 0.1011463 -0.946731
vn 0.330166 0.09459459 -0.939171
vn 0.3900041 0.09290889 -0.9161139
vn 0.5179948 0.1026321 -0.8492044
vn 0.8681235 0.1939072 -0.4569044
vn 0.6813582 0.1515223 -0.716095
vn 0.4329065 0.09427098 -0.896496
vn 0.3900041 0.09290889 -0.9161139
vn 0.330166 0.09459459 -0.939171
vn 0.9716403 0.2360186 -0.01450127
vn 0.956393 0.2324848 -0.1768145
vn 0.003228366 0.9999949 5.859902E-05
vn -0.00253182 0.9999968 5.707832E-05
g PlaySurface_Combined_0
f 3/3/3 2/2/2 1/1/1
f 4/4/4 2/2/2 3/3/3
f 4/4/4 5/5/5 2/2/2
f 6/6/6 5/5/5 4/4/4
f 6/6/6 7/7/7 5/5/5
f 8/8/8 7/7/7 6/6/6
f 8/8/8 9/9/9 7/7/7
f 10/10/10 9/9/9 8/8/8
f 10/10/10 11/11/11 9/9/9
f 12/12/12 11/11/11 10/10/10
f 12/12/12 13/13/13 11/11/11
f 14/14/14 13/13/13 12/12/12
f 14/14/14 15/15/15 13/13/13
f 16/16/16 15/15/15 14/14/14
f 16/16/16 17/17/17 15/15/15
f 18/18/18 17/17/17 16/16/16
f 18/18/18 19/19/19 17/17/17
f 20/20/20 19/19/19 18/18/18
f 20/20/20 21/21/21 19/19/19
f 22/22/22 21/21/21 20/20/20
f 22/22/22 23/23/23 21/21/21
f 24/24/24 23/23/23 22/22/22
f 24/24/24 25/25/25 23/23/23
f 26/26/26 25/25/25 24/24/24
f 26/26/26 27/27/27 25/25/25
f 28/28/28 27/27/27 26/26/26
f 28/28/28 29/29/29 27/27/27
f 30/30/30 29/29/29 28/28/28
f 30/30/30 31/31/31 29/29/29
f 32/32/32 31/31/31 30/30/30
f 32/32/32 33/33/33 31/31/31
f 34/34/34 33/33/33 32/32/32
f 34/34/34 35/35/35 33/33/33
f 36/36/36 35/35/35 34/34/34
f 36/36/36 37/37/37 35/35/35
f 38/38/38 37/37/37 36/36/36
f 38/38/38 39/39/39 37/37/37
f 40/40/40 39/39/39 38/38/38
f 40/40/40 41/41/41 39/39/39
f 42/42/42 41/41/41 40/40/40
f 42/42/42 43/43/43 41/41/41
f 44/44/44 43/43/43 42/42/42
f 44/44/44 45/45/45 43/43/43
f 46/46/46 45/45/45 44/44/44
f 46/46/46 47/47/47 45/45/45
f 48/48/48 47/47/47 46/46/46
f 48/48/48 49/49/49 47/47/47
f 50/50/50 49/49/49 48/48/48
f 50/50/50 51/51/51 49/49/49
f 52/52/52 51/51/51 50/50/50
f 52/52/52 53/53/53 51/51/51
f 54/54/54 53/53/53 52/52/52
f 54/54/54 55/55/55 53/53/53
f 56/56/56 55/55/55 54/54/54
f 56/56/56 57/57/57 55/55/55
f 58/58/58 57/57/57 56/56/56
f 58/58/58 59/59/59 57/57/57
f 60/60/60 59/59/59 58/58/58
f 60/60/60 61/61/61 59/59/59
f 62/62/62 61/61/61 60/60/60
f 62/62/62 63/63/63 61/61/61
f 64/64/64 63/63/63 62/62/62
f 64/64/64 65/65/65 63/63/63
f 66/66/66 65/65/65 64/64/64
f 66/66/66 67/67/67 65/65/65
f 70/70/70 69/69/69 68/68/68
f 71/71/71 69/69/69 70/70/70
f 70/70/70 68/68/68 72/72/72
f 72/72/72 68/68/68 73/73/73
f 72/72/72 73/73/73 74/74/74
f 74/74/74 73/73/73 75/75/75
f 75/75/75 76/76/76 74/74/74
f 74/74/74 76/76/76 77/77/77
f 69/69/69 71/71/71 78/78/78
f 78/78/78 71/71/71 79/79/79
f 80/80/80 78/78/78 79/79/79
f 81/81/81 78/78/78 80/80/80
f 81/81/81 80/80/80 82/82/82
f 82/82/82 80/80/80 83/83/83
f 84/84/84 82/82/82 83/83/83
f 85/85/85 82/82/82 84/84/84
f 79/79/79 71/71/71 86/86/86
f 87/87/87 79/79/79 86/86/86
f 87/87/87 86/86/86 88/88/88
f 89/89/89 87/87/87 88/88/88
f 89/89/89 88/88/88 90/90/90
f 91/91/91 89/89/89 90/90/90
f 91/91/91 90/90/90 92/92/92
f 92/92/92 90/90/90 93/93/93
f 90/90/90 94/94/94 93/93/93
f 90/90/90 88/88/88 94/94/94
f 93/93/93 94/94/94 95/95/95
f 94/94/94 96/96/96 95/95/95
f 95/95/95 96/96/96 97/97/97
f 96/96/96 98/98/98 97/97/97
f 97/97/97 98/98/98 99/99/99
f 98/98/98 100/100/100 99/99/99
f 99/99/99 100/100/100 101/101/101
f 102/102/102 89/89/89 91/91/91
f 94/94/94 103/103/103 96/96/96
f 88/88/88 103/103/103 94/94/94
f 96/96/96 104/104/104 98/98/98
f 103/103/103 104/104/104 96/96/96
f 98/98/98 105/105/105 100/100/100
f 104/104/104 105/105/105 98/98/98
f 105/105/105 106/106/106 100/100/100
f 106/106/106 107/107/107 100/100/100
f 100/100/100 107/107/107 101/101/101
f 108/108/108 106/106/106 105/105/105
f 109/109/109 106/106/106 108/108/108
f 110/110/110 106/106/106 109/109/109
f 103/103/103 111/111/111 104/104/104
f 86/86/86 111/111/111 103/103/103
f 88/88/88 86/86/86 103/103/103
f 104/104/104 112/112/112 105/105/105
f 111/111/111 112/112/112 104/104/104
f 112/112/112 108/108/108 105/105/105
f 113/113/113 108/108/108 112/112/112
f 113/113/113 109/109/109 108/108/108
f 77/77/77 109/109/109 113/113/113
f 86/86/86 71/71/71 111/111/111
f 71/71/71 70/70/70 111/111/111
f 72/72/72 111/111/111 70/70/70
f 112/112/112 111/111/111 72/72/72
f 72/72/72 113/113/113 112/112/112
f 74/74/74 113/113/113 72/72/72
f 74/74/74 77/77/77 113/113/113
f 116/116/116 115/115/115 114/114/114
f 114/114/114 115/115/115 117/117/117
f 114/114/114 117/117/117 118/118/118
f 118/118/118 117/117/117 119/119/119
f 118/118/118 119/119/119 120/120/120
f 120/120/120 119/119/119 121/121/121
f 120/120/120 121/121/121 122/122/122
f 122/122/122 121/121/121 123/123/123
f 122/122/122 123/123/123 124/124/124
f 127/127/127 126/126/126 125/125/125
f 130/130/130 129/129/129 128/128/128
f 128/128/128 129/129/129 131/131/131
f 129/129/129 132/132/132 131/131/131
f 133/133/133 132/132/132 129/129/129
f 133/133/133 134/134/134 132/132/132
f 135/135/135 134/134/134 133/133/133
f 135/135/135 136/136/136 134/134/134
f 137/137/137 136/136/136 135/135/135
f 137/137/137 138/138/138 136/136/136
f 128/128/128 139/139/139 130/130/130
f 130/130/130 139/139/139 140/140/140
f 139/139/139 141/141/141 140/140/140
f 140/140/140 141/141/141 142/142/142
f 141/141/141 143/143/143 142/142/142
f 142/142/142 143/143/143 144/144/144
f 143/143/143 145/145/145 144/144/144
f 144/144/144 145/145/145 146/146/146
f 145/145/145 147/147/147 146/146/146
f 146/146/146 147/147/147 148/148/148
f 148/148/148 147/147/147 149/149/149
f 149/149/149 147/147/147 150/150/150
f 149/149/149 150/150/150 151/151/151
f 151/151/151 150/150/150 152/152/152
f 151/151/151 152/152/152 153/153/153
f 153/153/153 152/152/152 154/154/154
f 153/153/153 154/154/154 155/155/155
f 155/155/155 154/154/154 156/156/156
f 155/155/155 156/156/156 157/157/157
f 157/157/157 156/156/156 158/158/158
f 158/158/158 159/159/159 157/157/157
f 157/157/157 159/159/159 160/160/160
f 159/159/159 161/161/161 160/160/160
f 160/160/160 161/161/161 162/162/162
f 161/161/161 163/163/163 162/162/162
f 162/162/162 163/163/163 164/164/164
f 164/164/164 163/163/163 165/165/165
f 165/165/165 163/163/163 166/166/166
f 166/166/166 167/167/167 165/165/165
f 165/165/165 167/167/167 168/168/168
f 169/169/169 168/168/168 167/167/167
f 170/170/170 168/168/168 169/169/169
f 171/171/171 170/170/170 169/169/169
f 172/172/172 170/170/170 171/171/171
f 173/173/173 172/172/172 171/171/171
f 174/174/174 172/172/172 173/173/173
f 173/173/173 175/175/175 174/174/174
f 174/174/174 175/175/175 176/176/176
f 175/175/175 177/177/177 176/176/176
f 176/176/176 177/177/177 178/178/178
f 179/179/179 178/178/178 177/177/177
f 180/180/180 178/178/178 179/179/179
f 179/179/179 181/181/181 180/180/180
f 180/180/180 181/181/181 182/182/182
f 181/181/181 183/183/183 182/182/182
f 182/182/182 183/183/183 184/184/184
f 183/183/183 185/185/185 184/184/184
f 184/184/184 185/185/185 186/186/186
f 185/185/185 187/187/187 186/186/186
f 186/186/186 187/187/187 188/188/188
f 187/187/187 189/189/189 188/188/188
f 188/188/188 189/189/189 190/190/190
f 189/189/189 191/191/191 190/190/190
f 190/190/190 191/191/191 192/192/192
f 192/192/192 191/191/191 193/193/193
f 193/193/193 191/191/191 194/194/194
f 193/193/193 194/194/194 195/195/195
f 195/195/195 194/194/194 196/196/196
f 195/195/195 196/196/196 197/197/197
f 197/197/197 196/196/196 198/198/198
f 197/197/197 198/198/198 199/199/199
f 199/199/199 198/198/198 200/200/200
f 200/200/200 201/201/201 199/199/199
f 199/199/199 201/201/201 202/202/202
f 201/201/201 203/203/203 202/202/202
f 202/202/202 203/203/203 204/204/204
f 203/203/203 205/205/205 204/204/204
f 204/204/204 205/205/205 206/206/206
f 209/209/209 208/208/208 207/207/207
f 102/102/102 210/210/210 89/89/89
f 211/211/211 210/210/210 102/102/102
f 210/210/210 87/87/87 89/89/89
f 211/211/211 212/212/212 210/210/210
f 213/213/213 212/212/212 211/211/211
f 210/210/210 214/214/214 87/87/87
f 212/212/212 214/214/214 210/210/210
f 214/214/214 79/79/79 87/87/87
f 213/213/213 83/83/83 212/212/212
f 84/84/84 83/83/83 213/213/213
f 212/212/212 80/80/80 214/214/214
f 83/83/83 80/80/80 212/212/212
f 80/80/80 79/79/79 214/214/214
f 215/215/215 84/84/84 213/213/213
f 215/215/215 213/213/213 216/216/216
f 216/216/216 213/213/213 211/211/211
f 217/217/217 215/215/215 216/216/216
f 217/217/217 216/216/216 218/218/218
f 219/219/219 217/217/217 218/218/218
f 219/219/219 218/218/218 220/220/220
f 221/221/221 219/219/219 220/220/220
f 221/221/221 220/220/220 222/222/222
f 223/223/223 221/221/221 222/222/222
f 224/224/224 221/221/221 223/223/223
f 225/225/225 224/224/224 223/223/223
f 226/226/226 224/224/224 225/225/225
f 222/222/222 220/220/220 227/227/227
f 220/220/220 228/228/228 227/227/227
f 220/220/220 218/218/218 228/228/228
f 227/227/227 228/228/228 229/229/229
f 228/228/228 230/230/230 229/229/229
f 229/229/229 230/230/230 231/231/231
f 230/230/230 91/91/91 231/231/231
f 231/231/231 91/91/91 92/92/92
f 232/232/232 226/226/226 225/225/225
f 233/233/233 226/226/226 232/232/232
f 234/234/234 233/233/233 232/232/232
f 235/235/235 233/233/233 234/234/234
f 235/235/235 236/236/236 233/233/233
f 237/237/237 236/236/236 235/235/235
f 233/233/233 238/238/238 226/226/226
f 236/236/236 238/238/238 233/233/233
f 238/238/238 239/239/239 226/226/226
f 226/226/226 239/239/239 224/224/224
f 239/239/239 240/240/240 224/224/224
f 224/224/224 240/240/240 221/221/221
f 240/240/240 219/219/219 221/221/221
f 237/237/237 241/241/241 236/236/236
f 242/242/242 241/241/241 237/237/237
f 236/236/236 243/243/243 238/238/238
f 241/241/241 243/243/243 236/236/236
f 238/238/238 244/244/244 239/239/239
f 243/243/243 244/244/244 238/238/238
f 239/239/239 245/245/245 240/240/240
f 244/244/244 245/245/245 239/239/239
f 240/240/240 246/246/246 219/219/219
f 245/245/245 246/246/246 240/240/240
f 246/246/246 217/217/217 219/219/219
f 242/242/242 247/247/247 241/241/241
f 248/248/248 247/247/247 242/242/242
f 241/241/241 249/249/249 243/243/243
f 247/247/247 249/249/249 241/241/241
f 243/243/243 250/250/250 244/244/244
f 249/249/249 250/250/250 243/243/243
f 244/244/244 251/251/251 245/245/245
f 250/250/250 251/251/251 244/244/244
f 245/245/245 252/252/252 246/246/246
f 251/251/251 252/252/252 245/245/245
f 246/246/246 253/253/253 217/217/217
f 252/252/252 253/253/253 246/246/246
f 253/253/253 215/215/215 217/217/217
f 250/250/250 254/254/254 251/251/251
f 251/251/251 255/255/255 252/252/252
f 254/254/254 255/255/255 251/251/251
f 252/252/252 256/256/256 253/253/253
f 255/255/255 256/256/256 252/252/252
f 253/253/253 256/256/256 215/215/215
f 256/256/256 257/257/257 215/215/215
f 258/258/258 215/215/215 257/257/257
f 258/258/258 84/84/84 215/215/215
f 250/250/250 259/259/259 254/254/254
f 249/249/249 259/259/259 250/250/250
f 254/254/254 259/259/259 260/260/260
f 254/254/254 260/260/260 255/255/255
f 255/255/255 260/260/260 261/261/261
f 255/255/255 261/261/261 256/256/256
f 256/256/256 261/261/261 262/262/262
f 256/256/256 262/262/262 257/257/257
f 257/257/257 262/262/262 263/263/263
f 257/257/257 263/263/263 258/258/258
f 258/258/258 264/264/264 84/84/84
f 258/258/258 263/263/263 264/264/264
f 84/84/84 264/264/264 85/85/85
f 265/265/265 259/259/259 249/249/249
f 247/247/247 265/265/265 249/249/249
f 266/266/266 265/265/265 247/247/247
f 248/248/248 266/266/266 247/247/247
f 267/267/267 266/266/266 248/248/248
f 268/268/268 267/267/267 248/248/248
f 269/269/269 267/267/267 268/268/268
f 270/270/270 269/269/269 268/268/268
f 271/271/271 269/269/269 270/270/270
f 272/272/272 271/271/271 270/270/270
f 272/272/272 270/270/270 273/273/273
f 273/273/273 270/270/270 274/274/274
f 270/270/270 268/268/268 274/274/274
f 273/273/273 274/274/274 275/275/275
f 276/276/276 273/273/273 275/275/275
f 276/276/276 275/275/275 277/277/277
f 278/278/278 276/276/276 277/277/277
f 278/278/278 277/277/277 279/279/279
f 279/279/279 277/277/277 280/280/280
f 277/277/277 281/281/281 280/280/280
f 277/277/277 275/275/275 281/281/281
f 280/280/280 281/281/281 282/282/282
f 281/281/281 283/283/283 282/282/282
f 282/282/282 283/283/283 284/284/284
f 283/283/283 285/285/285 284/284/284
f 284/284/284 285/285/285 286/286/286
f 285/285/285 235/235/235 286/286/286
f 285/285/285 237/237/237 235/235/235
f 287/287/287 237/237/237 285/285/285
f 283/283/283 287/287/287 285/285/285
f 287/287/287 242/242/242 237/237/237
f 288/288/288 242/242/242 287/287/287
f 288/288/288 248/248/248 242/242/242
f 286/286/286 235/235/235 234/234/234
f 289/289/289 278/278/278 279/279/279
f 281/281/281 290/290/290 283/283/283
f 290/290/290 288/288/288 287/287/287
f 290/290/290 287/287/287 283/283/283
f 275/275/275 290/290/290 281/281/281
f 275/275/275 274/274/274 290/290/290
f 274/274/274 288/288/288 290/290/290
f 268/268/268 248/248/248 288/288/288
f 274/274/274 268/268/268 288/288/288
f 291/291/291 286/286/286 234/234/234
f 292/292/292 286/286/286 291/291/291
f 293/293/293 292/292/292 291/291/291
f 294/294/294 292/292/292 293/293/293
f 295/295/295 294/294/294 293/293/293
f 296/296/296 294/294/294 295/295/295
f 297/297/297 296/296/296 295/295/295
f 295/295/295 298/298/298 297/297/297
f 298/298/298 299/299/299 297/297/297
f 297/297/297 299/299/299 300/300/300
f 299/299/299 301/301/301 300/300/300
f 302/302/302 301/301/301 299/299/299
f 302/302/302 303/303/303 301/301/301
f 301/301/301 303/303/303 304/304/304
f 303/303/303 305/305/305 304/304/304
f 304/304/304 305/305/305 306/306/306
f 305/305/305 307/307/307 306/306/306
f 306/306/306 307/307/307 308/308/308
f 307/307/307 309/309/309 308/308/308
f 308/308/308 309/309/309 310/310/310
f 309/309/309 311/311/311 310/310/310
f 310/310/310 311/311/311 312/312/312
f 311/311/311 313/313/313 312/312/312
f 312/312/312 313/313/313 314/314/314
f 315/315/315 314/314/314 313/313/313
f 316/316/316 314/314/314 315/315/315
f 317/317/317 316/316/316 315/315/315
f 318/318/318 316/316/316 317/317/317
f 319/319/319 318/318/318 317/317/317
f 320/320/320 318/318/318 319/319/319
f 321/321/321 320/320/320 319/319/319
f 322/322/322 320/320/320 321/321/321
f 321/321/321 323/323/323 322/322/322
f 322/322/322 323/323/323 324/324/324
f 323/323/323 325/325/325 324/324/324
f 324/324/324 325/325/325 326/326/326
f 325/325/325 327/327/327 326/326/326
f 326/326/326 327/327/327 328/328/328
f 320/320/320 329/329/329 318/318/318
f 318/318/318 329/329/329 330/330/330
f 318/318/318 330/330/330 331/331/331
f 316/316/316 318/318/318 331/331/331
f 331/331/331 330/330/330 332/332/332
f 331/331/331 332/332/332 333/333/333
f 333/333/333 332/332/332 334/334/334
f 332/332/332 335/335/335 334/334/334
f 334/334/334 335/335/335 336/336/336
f 335/335/335 337/337/337 336/336/336
f 336/336/336 337/337/337 338/338/338
f 335/335/335 339/339/339 337/337/337
f 340/340/340 339/339/339 335/335/335
f 332/332/332 340/340/340 335/335/335
f 330/330/330 340/340/340 332/332/332
f 340/340/340 341/341/341 339/339/339
f 342/342/342 341/341/341 340/340/340
f 330/330/330 342/342/342 340/340/340
f 329/329/329 342/342/342 330/330/330
f 341/341/341 343/343/343 339/339/339
f 344/344/344 343/343/343 341/341/341
f 339/339/339 345/345/345 337/337/337
f 337/337/337 345/345/345 346/346/346
f 337/337/337 346/346/346 338/338/338
f 345/345/345 347/347/347 346/346/346
f 348/348/348 347/347/347 345/345/345
f 349/349/349 348/348/348 345/345/345
f 339/339/339 349/349/349 345/345/345
f 343/343/343 349/349/349 339/339/339
f 350/350/350 348/348/348 349/349/349
f 350/350/350 351/351/351 348/348/348
f 351/351/351 352/352/352 348/348/348
f 348/348/348 352/352/352 347/347/347
f 351/351/351 353/353/353 352/352/352
f 353/353/353 354/354/354 352/352/352
f 353/353/353 355/355/355 354/354/354
f 354/354/354 355/355/355 356/356/356
f 354/354/354 356/356/356 357/357/357
f 354/354/354 357/357/357 358/358/358
f 352/352/352 358/358/358 347/347/347
f 352/352/352 354/354/354 358/358/358
f 358/358/358 357/357/357 359/359/359
f 358/358/358 359/359/359 360/360/360
f 347/347/347 360/360/360 346/346/346
f 347/347/347 358/358/358 360/360/360
f 360/360/360 359/359/359 361/361/361
f 360/360/360 361/361/361 362/362/362
f 362/362/362 361/361/361 363/363/363
f 361/361/361 364/364/364 363/363/363
f 363/363/363 364/364/364 365/365/365
f 364/364/364 366/366/366 365/365/365
f 365/365/365 366/366/366 289/289/289
f 366/366/366 278/278/278 289/289/289
f 361/361/361 367/367/367 364/364/364
f 359/359/359 367/367/367 361/361/361
f 364/364/364 368/368/368 366/366/366
f 367/367/367 368/368/368 364/364/364
f 366/366/366 369/369/369 278/278/278
f 368/368/368 369/369/369 366/366/366
f 369/369/369 276/276/276 278/278/278
f 359/359/359 370/370/370 367/367/367
f 357/357/357 370/370/370 359/359/359
f 367/367/367 371/371/371 368/368/368
f 370/370/370 371/371/371 367/367/367
f 368/368/368 372/372/372 369/369/369
f 371/371/371 372/372/372 368/368/368
f 369/369/369 373/373/373 276/276/276
f 372/372/372 373/373/373 369/369/369
f 373/373/373 273/273/273 276/276/276
f 373/373/373 272/272/272 273/273/273
f 374/374/374 272/272/272 373/373/373
f 375/375/375 272/272/272 374/374/374
f 376/376/376 375/375/375 374/374/374
f 373/373/373 376/376/376 374/374/374
f 372/372/372 376/376/376 373/373/373
f 377/377/377 375/375/375 376/376/376
f 378/378/378 377/377/377 376/376/376
f 372/372/372 378/378/378 376/376/376
f 371/371/371 378/378/378 372/372/372
f 379/379/379 377/377/377 378/378/378
f 380/380/380 379/379/379 378/378/378
f 371/371/371 380/380/380 378/378/378
f 370/370/370 380/380/380 371/371/371
f 381/381/381 379/379/379 380/380/380
f 382/382/382 381/381/381 380/380/380
f 370/370/370 382/382/382 380/380/380
f 357/357/357 382/382/382 370/370/370
f 383/383/383 381/381/381 382/382/382
f 356/356/356 383/383/383 382/382/382
f 384/384/384 383/383/383 356/356/356
f 357/357/357 356/356/356 382/382/382
f 355/355/355 384/384/384 356/356/356
f 385/385/385 384/384/384 355/355/355
f 386/386/386 385/385/385 355/355/355
f 353/353/353 386/386/386 355/355/355
f 387/387/387 386/386/386 353/353/353
f 387/387/387 353/353/353 351/351/351
f 388/388/388 387/387/387 351/351/351
f 388/388/388 351/351/351 350/350/350
f 389/389/389 387/387/387 388/388/388
f 389/389/389 386/386/386 387/387/387
f 350/350/350 390/390/390 388/388/388
f 390/390/390 391/391/391 388/388/388
f 391/391/391 392/392/392 388/388/388
f 393/393/393 388/388/388 392/392/392
f 393/393/393 389/389/389 388/388/388
f 394/394/394 393/393/393 392/392/392
f 395/395/395 393/393/393 394/394/394
f 394/394/394 396/396/396 395/395/395
f 396/396/396 397/397/397 395/395/395
f 398/398/398 395/395/395 397/397/397
f 399/399/399 396/396/396 394/394/394
f 400/400/400 398/398/398 397/397/397
f 401/401/401 398/398/398 400/400/400
f 401/401/401 402/402/402 398/398/398
f 403/403/403 402/402/402 401/401/401
f 398/398/398 404/404/404 395/395/395
f 402/402/402 404/404/404 398/398/398
f 395/395/395 405/405/405 393/393/393
f 404/404/404 405/405/405 395/395/395
f 405/405/405 389/389/389 393/393/393
f 405/405/405 406/406/406 389/389/389
f 406/406/406 386/386/386 389/389/389
f 402/402/402 407/407/407 404/404/404
f 407/407/407 402/402/402 408/408/408
f 408/408/408 402/402/402 409/409/409
f 404/404/404 407/407/407 410/410/410
f 404/404/404 410/410/410 405/405/405
f 405/405/405 410/410/410 411/411/411
f 412/412/412 405/405/405 411/411/411
f 406/406/406 405/405/405 412/412/412
f 413/413/413 406/406/406 412/412/412
f 386/386/386 406/406/406 413/413/413
f 414/414/414 386/386/386 413/413/413
f 385/385/385 386/386/386 414/414/414
f 415/415/415 385/385/385 414/414/414
f 384/384/384 385/385/385 415/415/415
f 384/384/384 415/415/415 383/383/383
f 383/383/383 415/415/415 416/416/416
f 383/383/383 416/416/416 381/381/381
f 381/381/381 416/416/416 417/417/417
f 381/381/381 417/417/417 379/379/379
f 379/379/379 417/417/417 418/418/418
f 379/379/379 418/418/418 377/377/377
f 377/377/377 418/418/418 419/419/419
f 377/377/377 419/419/419 375/375/375
f 375/375/375 419/419/419 420/420/420
f 375/375/375 420/420/420 272/272/272
f 272/272/272 420/420/420 421/421/421
f 421/421/421 271/271/271 272/272/272
f 230/230/230 102/102/102 91/91/91
f 422/422/422 102/102/102 230/230/230
f 228/228/228 422/422/422 230/230/230
f 218/218/218 422/422/422 228/228/228
f 218/218/218 216/216/216 422/422/422
f 422/422/422 211/211/211 102/102/102
f 216/216/216 211/211/211 422/422/422
f 346/346/346 360/360/360 362/362/362
f 338/338/338 346/346/346 362/362/362
f 338/338/338 362/362/362 423/423/423
f 424/424/424 338/338/338 423/423/423
f 424/424/424 423/423/423 425/425/425
f 425/425/425 423/423/423 426/426/426
f 425/425/425 426/426/426 427/427/427
f 427/427/427 426/426/426 428/428/428
f 427/427/427 428/428/428 429/429/429
f 429/429/429 428/428/428 430/430/430
f 429/429/429 430/430/430 431/431/431
f 431/431/431 430/430/430 432/432/432
f 431/431/431 432/432/432 433/433/433
f 433/433/433 432/432/432 434/434/434
f 336/336/336 338/338/338 424/424/424
f 433/433/433 434/434/434 435/435/435
f 435/435/435 434/434/434 436/436/436
f 423/423/423 363/363/363 426/426/426
f 423/423/423 362/362/362 363/363/363
f 426/426/426 363/363/363 365/365/365
f 426/426/426 365/365/365 428/428/428
f 428/428/428 365/365/365 289/289/289
f 428/428/428 289/289/289 430/430/430
f 430/430/430 289/289/289 279/279/279
f 430/430/430 279/279/279 432/432/432
f 437/437/437 433/433/433 435/435/435
f 437/437/437 435/435/435 296/296/296
f 297/297/297 437/437/437 296/296/296
f 300/300/300 437/437/437 297/297/297
f 300/300/300 438/438/438 437/437/437
f 438/438/438 433/433/433 437/437/437
f 301/301/301 438/438/438 300/300/300
f 301/301/301 439/439/439 438/438/438
f 304/304/304 439/439/439 301/301/301
f 304/304/304 440/440/440 439/439/439
f 440/440/440 429/429/429 439/439/439
f 440/440/440 427/427/427 429/429/429
f 441/441/441 440/440/440 304/304/304
f 441/441/441 442/442/442 440/440/440
f 442/442/442 427/427/427 440/440/440
f 443/443/443 442/442/442 441/441/441
f 443/443/443 444/444/444 442/442/442
f 445/445/445 444/444/444 443/443/443
f 445/445/445 446/446/446 444/444/444
f 447/447/447 446/446/446 445/445/445
f 447/447/447 334/334/334 446/446/446
f 333/333/333 334/334/334 447/447/447
f 306/306/306 441/441/441 304/304/304
f 306/306/306 443/443/443 441/441/441
f 308/308/308 443/443/443 306/306/306
f 308/308/308 445/445/445 443/443/443
f 310/310/310 445/445/445 308/308/308
f 310/310/310 447/447/447 445/445/445
f 312/312/312 447/447/447 310/310/310
f 312/312/312 333/333/333 447/447/447
f 314/314/314 333/333/333 312/312/312
f 314/314/314 331/331/331 333/333/333
f 316/316/316 331/331/331 314/314/314
f 444/444/444 425/425/425 442/442/442
f 442/442/442 425/425/425 427/427/427
f 444/444/444 424/424/424 425/425/425
f 446/446/446 424/424/424 444/444/444
f 446/446/446 336/336/336 424/424/424
f 334/334/334 336/336/336 446/446/446
f 450/450/450 449/449/449 448/448/448
f 451/451/451 449/449/449 450/450/450
f 450/450/450 448/448/448 452/452/452
f 452/452/452 448/448/448 453/453/453
f 452/452/452 453/453/453 454/454/454
f 454/454/454 453/453/453 455/455/455
f 454/454/454 455/455/455 456/456/456
f 456/456/456 455/455/455 457/457/457
f 456/456/456 457/457/457 458/458/458
f 458/458/458 457/457/457 459/459/459
f 449/449/449 451/451/451 460/460/460
f 460/460/460 451/451/451 461/461/461
f 462/462/462 460/460/460 461/461/461
f 463/463/463 460/460/460 462/462/462
f 464/464/464 463/463/463 462/462/462
f 465/465/465 463/463/463 464/464/464
f 466/466/466 465/465/465 464/464/464
f 467/467/467 465/465/465 466/466/466
f 468/468/468 467/467/467 466/466/466
f 469/469/469 467/467/467 468/468/468
f 470/470/470 469/469/469 468/468/468
f 471/471/471 469/469/469 470/470/470
f 472/472/472 471/471/471 470/470/470
f 473/473/473 471/471/471 472/472/472
f 458/458/458 475/475/475 474/474/474
f 474/474/474 475/475/475 476/476/476
f 474/474/474 478/478/478 477/477/477
f 477/477/477 478/478/478 479/479/479
f 477/477/477 479/479/479 480/480/480
f 480/480/480 479/479/479 481/481/481
f 480/480/480 481/481/481 482/482/482
f 482/482/482 481/481/481 483/483/483
f 483/483/483 484/484/484 482/482/482
f 486/486/486 485/485/485 472/472/472
f 487/487/487 485/485/485 486/486/486
f 490/490/490 489/489/489 488/488/488
f 493/493/493 492/492/492 491/491/491
f 496/496/496 495/495/495 494/494/494
f 497/497/497 495/495/495 496/496/496
f 497/497/497 498/498/498 495/495/495
f 499/499/499 498/498/498 497/497/497
f 496/496/496 494/494/494 500/500/500
f 503/503/503 502/502/502 501/501/501
f 504/504/504 502/502/502 503/503/503
f 504/504/504 505/505/505 502/502/502
f 506/506/506 505/505/505 504/504/504
f 506/506/506 507/507/507 505/505/505
f 508/508/508 507/507/507 506/506/506
f 508/508/508 509/509/509 507/507/507
f 510/510/510 509/509/509 508/508/508
f 510/510/510 511/511/511 509/509/509
f 512/512/512 511/511/511 510/510/510
f 511/511/511 512/512/512 513/513/513
f 513/513/513 512/512/512 514/514/514
f 513/513/513 514/514/514 515/515/515
f 515/515/515 514/514/514 516/516/516
f 517/517/517 515/515/515 516/516/516
f 518/518/518 515/515/515 517/517/517
f 519/519/519 518/518/518 517/517/517
f 520/520/520 518/518/518 519/519/519
f 521/521/521 520/520/520 519/519/519
f 522/522/522 520/520/520 521/521/521
f 523/523/523 522/522/522 521/521/521
f 526/526/526 525/525/525 524/524/524
f 524/524/524 528/528/528 527/527/527
f 531/531/531 530/530/530 529/529/529
f 532/532/532 530/530/530 531/531/531
f 535/535/535 534/534/534 533/533/533
f 538/538/538 537/537/537 536/536/536
f 539/539/539 537/537/537 538/538/538
f 538/538/538 536/536/536 540/540/540
f 540/540/540 536/536/536 541/541/541
f 544/544/544 543/543/543 542/542/542
f 545/545/545 543/543/543 544/544/544
f 548/548/548 547/547/547 546/546/546
f 549/549/549 547/547/547 548/548/548
f 548/548/548 546/546/546 550/550/550
f 550/550/550 546/546/546 551/551/551
f 550/550/550 551/551/551 552/552/552
f 552/552/552 551/551/551 553/553/553
f 556/556/556 555/555/555 554/554/554
f 558/558/558 557/557/557 555/555/555
f 560/560/560 559/559/559 554/554/554
f 560/560/560 561/561/561 559/559/559
f 561/561/561 563/563/563 562/562/562
f 566/566/566 565/565/565 564/564/564
f 568/568/568 567/567/567 566/566/566
f 570/570/570 569/569/569 564/564/564
f 573/573/573 572/572/572 571/571/571
f 574/574/574 572/572/572 573/573/573
f 572/572/572 574/574/574 575/575/575
f 578/578/578 577/577/577 576/576/576
f 581/581/581 580/580/580 579/579/579
f 582/582/582 580/580/580 581/581/581
f 583/583/583 582/582/582 581/581/581
f 584/584/584 582/582/582 583/583/583
f 585/585/585 584/584/584 583/583/583
f 586/586/586 584/584/584 585/585/585
f 585/585/585 587/587/587 586/586/586
f 588/588/588 587/587/587 585/585/585
f 588/588/588 589/589/589 587/587/587
f 590/590/590 589/589/589 588/588/588
f 591/591/591 586/586/586 587/587/587
f 589/589/589 591/591/591 587/587/587
f 592/592/592 586/586/586 591/591/591
f 592/592/592 593/593/593 586/586/586
f 595/595/595 594/594/594 592/592/592
f 595/595/595 596/596/596 594/594/594
f 597/597/597 596/596/596 595/595/595
f 597/597/597 598/598/598 596/596/596
f 600/600/600 591/591/591 599/599/599
f 603/603/603 602/602/602 601/601/601
f 604/604/604 603/603/603 601/601/601
f 605/605/605 603/603/603 604/604/604
f 606/606/606 605/605/605 604/604/604
f 608/608/608 607/607/607 606/606/606
f 609/609/609 607/607/607 608/608/608
f 610/610/610 609/609/609 608/608/608
f 611/611/611 609/609/609 610/610/610
f 607/607/607 613/613/613 612/612/612
f 616/616/616 615/615/615 614/614/614
f 614/614/614 618/618/618 617/617/617
f 617/617/617 618/618/618 619/619/619
f 620/620/620 617/617/617 619/619/619
f 621/621/621 617/617/617 620/620/620
f 322/322/322 621/621/621 620/620/620
f 322/322/322 620/620/620 320/320/320
f 320/320/320 620/620/620 329/329/329
f 620/620/620 619/619/619 329/329/329
f 324/324/324 621/621/621 322/322/322
f 324/324/324 326/326/326 621/621/621
f 622/622/622 614/614/614 617/617/617
f 621/621/621 622/622/622 617/617/617
f 326/326/326 622/622/622 621/621/621
f 623/623/623 614/614/614 622/622/622
f 623/623/623 622/622/622 624/624/624
f 625/625/625 624/624/624 622/622/622
f 326/326/326 626/626/626 622/622/622
f 626/626/626 627/627/627 622/622/622
f 328/328/328 626/626/626 326/326/326
f 619/619/619 618/618/618 342/342/342
f 329/329/329 619/619/619 342/342/342
f 342/342/342 618/618/618 341/341/341
f 618/618/618 628/628/628 341/341/341
f 628/628/628 618/618/618 629/629/629
f 628/628/628 630/630/630 341/341/341
f 344/344/344 341/341/341 630/630/630
f 614/614/614 631/631/631 618/618/618
f 633/633/633 632/632/632 618/618/618
f 636/636/636 635/635/635 634/634/634
f 634/634/634 635/635/635 637/637/637
f 640/640/640 639/639/639 638/638/638
f 638/638/638 639/639/639 641/641/641
f 639/639/639 642/642/642 641/641/641
f 645/645/645 644/644/644 643/643/643
f 646/646/646 298/298/298 295/295/295
f 647/647/647 646/646/646 295/295/295
f 648/648/648 646/646/646 647/647/647
f 649/649/649 648/648/648 647/647/647
f 650/650/650 648/648/648 649/649/649
f 651/651/651 650/650/650 649/649/649
f 652/652/652 650/650/650 651/651/651
f 653/653/653 652/652/652 651/651/651
f 654/654/654 652/652/652 653/653/653
f 654/654/654 653/653/653 655/655/655
f 655/655/655 653/653/653 656/656/656
f 657/657/657 655/655/655 656/656/656
f 658/658/658 655/655/655 657/657/657
f 659/659/659 658/658/658 657/657/657
f 660/660/660 658/658/658 659/659/659
f 661/661/661 660/660/660 659/659/659
f 662/662/662 660/660/660 661/661/661
f 661/661/661 663/663/663 662/662/662
f 662/662/662 663/663/663 664/664/664
f 663/663/663 665/665/665 664/664/664
f 664/664/664 665/665/665 666/666/666
f 665/665/665 667/667/667 666/666/666
f 666/666/666 667/667/667 668/668/668
f 667/667/667 669/669/669 668/668/668
f 668/668/668 669/669/669 670/670/670
f 670/670/670 669/669/669 671/671/671
f 671/671/671 669/669/669 672/672/672
f 659/659/659 673/673/673 661/661/661
f 661/661/661 673/673/673 674/674/674
f 661/661/661 674/674/674 663/663/663
f 673/673/673 675/675/675 674/674/674
f 673/673/673 676/676/676 675/675/675
f 677/677/677 676/676/676 673/673/673
f 677/677/677 678/678/678 676/676/676
f 679/679/679 678/678/678 677/677/677
f 679/679/679 680/680/680 678/678/678
f 653/653/653 680/680/680 679/679/679
f 653/653/653 681/681/681 680/680/680
f 651/651/651 681/681/681 653/653/653
f 651/651/651 682/682/682 681/681/681
f 649/649/649 682/682/682 651/651/651
f 649/649/649 683/683/683 682/682/682
f 683/683/683 684/684/684 682/682/682
f 683/683/683 293/293/293 684/684/684
f 293/293/293 291/291/291 684/684/684
f 684/684/684 291/291/291 685/685/685
f 684/684/684 685/685/685 686/686/686
f 682/682/682 686/686/686 681/681/681
f 682/682/682 684/684/684 686/686/686
f 686/686/686 685/685/685 687/687/687
f 686/686/686 687/687/687 688/688/688
f 681/681/681 688/688/688 680/680/680
f 681/681/681 686/686/686 688/688/688
f 688/688/688 687/687/687 689/689/689
f 688/688/688 689/689/689 690/690/690
f 680/680/680 688/688/688 690/690/690
f 690/690/690 689/689/689 691/691/691
f 690/690/690 691/691/691 692/692/692
f 692/692/692 691/691/691 693/693/693
f 692/692/692 693/693/693 694/694/694
f 694/694/694 693/693/693 695/695/695
f 694/694/694 695/695/695 696/696/696
f 696/696/696 695/695/695 697/697/697
f 696/696/696 697/697/697 698/698/698
f 698/698/698 697/697/697 699/699/699
f 291/291/291 234/234/234 685/685/685
f 687/687/687 225/225/225 689/689/689
f 687/687/687 232/232/232 225/225/225
f 685/685/685 234/234/234 232/232/232
f 685/685/685 232/232/232 687/687/687
f 691/691/691 222/222/222 693/693/693
f 691/691/691 223/223/223 222/222/222
f 689/689/689 225/225/225 223/223/223
f 689/689/689 223/223/223 691/691/691
f 695/695/695 229/229/229 697/697/697
f 695/695/695 227/227/227 229/229/229
f 693/693/693 222/222/222 227/227/227
f 693/693/693 227/227/227 695/695/695
f 698/698/698 699/699/699 700/700/700
f 701/701/701 698/698/698 700/700/700
f 701/701/701 700/700/700 702/702/702
f 665/665/665 701/701/701 702/702/702
f 703/703/703 665/665/665 702/702/702
f 667/667/667 665/665/665 703/703/703
f 704/704/704 667/667/667 703/703/703
f 669/669/669 667/667/667 704/704/704
f 705/705/705 669/669/669 704/704/704
f 705/705/705 704/704/704 706/706/706
f 706/706/706 704/704/704 707/707/707
f 704/704/704 703/703/703 707/707/707
f 706/706/706 707/707/707 708/708/708
f 708/708/708 707/707/707 709/709/709
f 707/707/707 710/710/710 709/709/709
f 703/703/703 702/702/702 710/710/710
f 707/707/707 703/703/703 710/710/710
f 709/709/709 710/710/710 711/711/711
f 710/710/710 712/712/712 711/711/711
f 710/710/710 702/702/702 712/712/712
f 711/711/711 712/712/712 713/713/713
f 712/712/712 714/714/714 713/713/713
f 700/700/700 714/714/714 712/712/712
f 700/700/700 699/699/699 714/714/714
f 699/699/699 92/92/92 714/714/714
f 699/699/699 231/231/231 92/92/92
f 697/697/697 231/231/231 699/699/699
f 697/697/697 229/229/229 231/231/231
f 714/714/714 92/92/92 93/93/93
f 714/714/714 93/93/93 713/713/713
f 713/713/713 93/93/93 95/95/95
f 95/95/95 711/711/711 713/713/713
f 97/97/97 711/711/711 95/95/95
f 97/97/97 709/709/709 711/711/711
f 99/99/99 709/709/709 97/97/97
f 99/99/99 715/715/715 709/709/709
f 101/101/101 715/715/715 99/99/99
f 702/702/702 700/700/700 712/712/712
f 715/715/715 708/708/708 709/709/709
f 717/717/717 708/708/708 716/716/716
f 720/720/720 719/719/719 718/718/718
f 723/723/723 722/722/722 721/721/721
f 722/722/722 725/725/725 724/724/724
f 724/724/724 725/725/725 726/726/726
f 725/725/725 727/727/727 726/726/726
f 726/726/726 727/727/727 728/728/728
f 727/727/727 729/729/729 728/728/728
f 728/728/728 729/729/729 730/730/730
f 729/729/729 731/731/731 730/730/730
f 730/730/730 731/731/731 732/732/732
f 735/735/735 734/734/734 733/733/733
f 738/738/738 737/737/737 736/736/736
f 741/741/741 740/740/740 739/739/739
f 744/744/744 743/743/743 742/742/742
f 745/745/745 743/743/743 744/744/744
f 745/745/745 746/746/746 743/743/743
f 747/747/747 746/746/746 745/745/745
f 747/747/747 748/748/748 746/746/746
f 751/751/751 750/750/750 749/749/749
f 751/751/751 749/749/749 752/752/752
f 752/752/752 749/749/749 753/753/753
f 752/752/752 753/753/753 754/754/754
f 750/750/750 756/756/756 755/755/755
f 296/296/296 435/435/435 294/294/294
f 435/435/435 436/436/436 294/294/294
f 294/294/294 436/436/436 292/292/292
f 436/436/436 284/284/284 292/292/292
f 292/292/292 284/284/284 286/286/286
f 436/436/436 282/282/282 284/284/284
f 434/434/434 282/282/282 436/436/436
f 434/434/434 280/280/280 282/282/282
f 432/432/432 280/280/280 434/434/434
f 432/432/432 279/279/279 280/280/280
f 438/438/438 431/431/431 433/433/433
f 439/439/439 431/431/431 438/438/438
f 439/439/439 429/429/429 431/431/431
f 674/674/674 675/675/675 757/757/757
f 675/675/675 696/696/696 757/757/757
f 757/757/757 696/696/696 698/698/698
f 675/675/675 694/694/694 696/696/696
f 676/676/676 694/694/694 675/675/675
f 676/676/676 692/692/692 694/694/694
f 678/678/678 692/692/692 676/676/676
f 678/678/678 690/690/690 692/692/692
f 680/680/680 690/690/690 678/678/678
f 674/674/674 757/757/757 758/758/758
f 758/758/758 757/757/757 701/701/701
f 757/757/757 698/698/698 701/701/701
f 758/758/758 701/701/701 665/665/665
f 663/663/663 758/758/758 665/665/665
f 663/663/663 674/674/674 758/758/758
f 647/647/647 683/683/683 649/649/649
f 647/647/647 295/295/295 683/683/683
f 295/295/295 293/293/293 683/683/683
f 659/659/659 677/677/677 673/673/673
f 657/657/657 677/677/677 659/659/659
f 657/657/657 679/679/679 677/677/677
f 656/656/656 679/679/679 657/657/657
f 656/656/656 653/653/653 679/679/679
