g polySurface97
v 304.2256 90.06097 -268.2157
v 247.5513 90.06099 -300.1263
v 321.9388 90.06097 -292.8036
v 263.2425 90.06097 -327.7336
v 183.1064 90.06099 -328.0775
v 195.3002 90.06097 -357.5054
v 357.0368 90.06097 -274.5766
v 333.5832 91.16251 -253.1505
v 143.95 90.06097 -340.9886
v 152 90.06097 -371.2999
v 345.5738 90.36108 -288.8192
v 328.237 90.36108 -299.066
v 354.9165 90.36108 -282.0461
v 197.4454 90.62782 -367.1786
v 177.5538 90.62782 -373.8537
v 156.1931 90.62782 -377.0948
v 88.88149 90.06097 -185.2129
v 117.8202 90.06097 -170.5197
v 164.2205 90.06097 -146.9605
v 204.5556 90.06097 -126.4809
v 228.183 90.06097 -114.4844
v 342.8347 5.304426 -281.9853
v 318.3846 6.384116 -261.9031
v 357.0368 90.06097 -274.5766
v 333.5832 91.16251 -253.1505
v 214.1136 5.165456 -119.7483
v 228.183 90.06097 -114.4844
v 252.4329 5.304426 -335.027
v 307.4861 5.304426 -303.0457
v 263.2425 90.06097 -327.7336
v 321.9388 90.06097 -292.8036
v 195.3002 90.06097 -357.5054
v 196.3604 5.304426 -359.1454
v 143.5514 5.304426 -345.0885
v 151.5269 5.304426 -376.1656
v 143.95 90.06097 -340.9886
v 152 90.06097 -371.2999
v 156.1931 90.62782 -377.0948
v 155.7201 5.871296 -381.9605
v 88.88149 90.06097 -185.2129
v 88.88149 5.304426 -185.2129
v 313.0226 5.604556 -309.4067
v 332.4824 5.604556 -296.2376
v 328.237 90.36108 -299.066
v 345.5738 90.36108 -288.8192
v 339.0291 5.604556 -290.4665
v 354.9165 90.36108 -282.0461
v 357.0368 90.06097 -274.5766
v 342.8347 5.304426 -281.9853
v 155.7201 5.871296 -381.9605
v 176.1687 5.871296 -377.676
v 156.1931 90.62782 -377.0948
v 177.5538 90.62782 -373.8537
v 198.5934 5.871296 -368.8033
v 197.4454 90.62782 -367.1786
v 321.9388 90.06097 -292.8036
v 307.4861 5.304426 -303.0457
v 328.237 90.36108 -299.066
v 313.0226 5.604556 -309.4067
v 196.3604 5.304426 -359.1454
v 195.3002 90.06097 -357.5054
v 198.5934 5.871296 -368.8033
v 197.4454 90.62782 -367.1786
v 243.9174 137.0916 -340.972
v 213.6028 138.9798 -345.4665
v 242.2726 94.18768 -340.6013
v 216.0635 97.8719 -345.6587
v 187.9503 147.6788 -348.3438
v 196.4354 115.8732 -348.833
v 175.2029 210.078 -354.8931
v 205.7699 219.629 -346.0115
v 255.1161 89.92268 -337.2155
v 259.3258 137.0592 -336.4198
v 263.6767 95.1596 -333.1961
v 266.5089 136.9639 -330.6169
v 283.0769 138.977 -316.1921
v 279.9397 98.77232 -319.4486
v 239.1151 175.0534 -339.2593
v 258.3376 168.5229 -331.485
v 222.6903 200.8884 -344.5783
v 217.5268 220.6325 -345.7574
v 285.6948 170.399 -314.6444
v 266.7593 167.1501 -326.9834
v 203.9585 238.2797 -346.1376
v 223.0324 247.0805 -342.4887
v 198.2829 296.7165 -346.5325
v 161.954 269.7215 -359.1035
v 235.9909 267.1136 -335.5395
v 298.0432 178.3165 -306.6095
v 306.1551 141.7811 -296.0989
v 307.4342 185.2406 -297.3697
v 313.1701 197.7851 -292.6151
v 313.224 196.1384 -289.5664
v 319.3771 147.7318 -281.1101
v 314.247 115.9261 -287.5172
v 301.1933 103.6254 -300.6843
v 315.8897 216.6384 -287.1028
v 253.7769 282.5949 -325.4268
v 261.024 342.4849 -321.5543
v 262.1053 282.8906 -319.6162
v 266.4938 352.0594 -315.6895
v 271.3514 281.8259 -314.2083
v 273.3841 344.7227 -313.9581
v 291.6566 275.1913 -303.8728
v 325.1946 288.1897 -278.504
v 308.0706 253.3447 -295.9853
v 331.2397 210.131 -272.0026
v 315.8897 216.6384 -287.1028
v 325.1946 288.1897 -278.504
v 341.9205 269.7744 -262.0306
v 308.0706 253.3447 -295.9853
v 315.8897 216.6384 -287.1028
v 304.3237 185.5485 -296.2044
v 301.8162 188.1216 -298.0066
v 295.5112 178.8893 -304.4306
v 290.8198 237.895 -296.9847
v 302.0709 223.6823 -292.6078
v 306.2357 198.4624 -293.694
v 307.3645 208.8585 -291.4035
v 310.2271 197.555 -291.1087
v 313.6831 216.469 -286.4873
v 312.0024 207.271 -288.7347
v 310.2271 197.555 -291.1087
v 313.6831 216.469 -286.4873
v 302.3831 253.3389 -287.992
v 276.8622 250.1075 -303.5982
v 283.115 171.2178 -312.1923
v 295.5112 178.8893 -304.4306
v 265.8725 167.8925 -323.2878
v 259.3185 254.5459 -313.0186
v 256.4377 169.1109 -328.3384
v 244.9422 249.4801 -321.5782
v 238.3162 175.4878 -336.0646
v 229.6894 237.9177 -330.3674
v 222.1468 200.6963 -340.7348
v 222.511 225.9885 -336.9451
v 220.075 213.9724 -340.2566
v 216.7887 220.2916 -341.865
v 284.7882 274.8943 -295.2762
v 265.0775 281.3389 -305.8767
v 231.6253 266.7662 -327.3835
v 248.8307 281.8802 -315.2717
v 256.6815 282.1049 -310.6648
v 221.4031 246.3568 -336.1547
v 216.7887 220.2916 -341.865
v 222.1468 200.6963 -340.7348
v 223.0324 247.0805 -342.4887
v 217.5268 220.6325 -345.7574
v 221.4031 246.3568 -336.1547
v 216.7887 220.2916 -341.865
v 222.6903 200.8884 -344.5783
v 216.7887 220.2916 -341.865
v 222.1468 200.6963 -340.7348
v 222.6903 200.8884 -344.5783
v 239.1151 175.0534 -339.2593
v 222.1468 200.6963 -340.7348
v 238.3162 175.4878 -336.0646
v 258.3376 168.5229 -331.485
v 256.4377 169.1109 -328.3384
v 266.7593 167.1501 -326.9834
v 265.8725 167.8925 -323.2878
v 285.6948 170.399 -314.6444
v 283.115 171.2178 -312.1923
v 298.0432 178.3165 -306.6095
v 295.5112 178.8893 -304.4306
v 307.4342 185.2406 -297.3697
v 295.5112 178.8893 -304.4306
v 304.3237 185.5485 -296.2044
v 235.9909 267.1136 -335.5395
v 223.0324 247.0805 -342.4887
v 231.6253 266.7662 -327.3835
v 221.4031 246.3568 -336.1547
v 248.8307 281.8802 -315.2717
v 253.7769 282.5949 -325.4268
v 256.6815 282.1049 -310.6648
v 262.1053 282.8906 -319.6162
v 265.0775 281.3389 -305.8767
v 271.3514 281.8259 -314.2083
v 284.7882 274.8943 -295.2762
v 291.6566 275.1913 -303.8728
v 302.3831 253.3389 -287.992
v 308.0706 253.3447 -295.9853
v 313.6831 216.469 -286.4873
v 307.4342 185.2406 -297.3697
v 313.1701 197.7851 -292.6151
v 304.3237 185.5485 -296.2044
v 304.3237 185.5485 -296.2044
v 313.1701 197.7851 -292.6151
v 310.2271 197.555 -291.1087
v 313.6831 216.469 -286.4873
v 315.8897 216.6384 -287.1028
v 313.1701 197.7851 -292.6151
v 312.0024 207.271 -288.7347
v 310.2271 197.555 -291.1087
v 313.6831 216.469 -286.4873
v 315.8897 216.6384 -287.1028
v 308.0706 253.3447 -295.9853
v 313.6831 216.469 -286.4873
v 332.9959 126.6338 -280.9693
v 312.5105 126.6338 -291.5213
v 333.631 90.05576 -283.169
v 309.3897 90.05576 -295.553
v 315.1165 158.8411 -286.7272
v 337.7805 158.8411 -276.2575
v 337.3839 274.6241 -268.8502
v 367.4404 274.6241 -252.8484
v 202.619 126.6338 -348.1267
v 181.1523 126.6338 -358.4295
v 203.5217 90.05576 -349.4334
v 176.2922 90.05576 -361.4013
v 176.9951 158.8411 -361.1615
v 200.8065 158.8411 -347.5048
v 141.7175 274.6241 -372.7555
v 176.1489 274.6241 -354.6894
v 309.3897 90.05576 -295.553
v 312.5105 126.6338 -291.5213
v 305.2876 90.05576 -289.0519
v 308.4085 126.6338 -285.0203
v 315.1165 158.8411 -286.7272
v 311.0145 158.8411 -280.2261
v 337.3839 274.6241 -268.8502
v 333.2819 274.6241 -262.349
v 202.619 126.6338 -348.1267
v 203.5217 90.05576 -349.4334
v 198.5169 126.6338 -341.6256
v 199.4197 90.05576 -342.9323
v 196.7045 158.8411 -341.0037
v 200.8065 158.8411 -347.5048
v 172.047 274.6241 -348.1883
v 176.1489 274.6241 -354.6894
v 192.5867 318.4392 -304.2741
v 127.1063 318.4392 -338.2774
v 208.5632 318.4392 -340.2707
v 145.8383 318.4392 -374.3496
v 153.2425 274.1367 -338.2445
v 127.1063 318.4392 -338.2774
v 211.8215 274.1367 -307.825
v 192.5867 318.4392 -304.2741
v 211.8215 274.1367 -307.825
v 192.5867 318.4392 -304.2741
v 233.0129 274.1367 -347.951
v 208.5632 318.4392 -340.2707
v 233.0129 274.1367 -347.951
v 208.5632 318.4392 -340.2707
v 174.771 274.1367 -379.7019
v 145.8383 318.4392 -374.3496
v 174.771 274.1367 -379.7019
v 145.8383 318.4392 -374.3496
v 153.2425 274.1367 -338.2445
v 127.1063 318.4392 -338.2774
v 364.8882 318.7769 -216.7089
v 283.438 318.7769 -259.0052
v 381.1516 318.7769 -247.3449
v 300.0385 318.7769 -290.9728
v 295.9215 274.4744 -266.062
v 283.438 318.7769 -259.0052
v 353.3618 274.4744 -236.2337
v 364.8882 318.7769 -216.7089
v 353.3618 274.4744 -236.2337
v 364.8882 318.7769 -216.7089
v 372.4218 274.4744 -272.255
v 381.1516 318.7769 -247.3449
v 372.4218 274.4744 -272.255
v 381.1516 318.7769 -247.3449
v 315.3185 274.4744 -303.4147
v 300.0385 318.7769 -290.9728
v 315.3185 274.4744 -303.4147
v 300.0385 318.7769 -290.9728
v 295.9215 274.4744 -266.062
v 283.438 318.7769 -259.0052
v 332.2657 370.03 -234.7257
v 326.3188 370.03 -237.7982
v 330.8658 371.9713 -238.9511
v 332.2657 370.03 -234.7257
v 339.9183 343.8081 -208.793
v 326.3188 370.03 -237.7982
v 326.3188 370.03 -237.7982
v 339.9183 343.8081 -208.793
v 293.7668 351.873 -233.2005
v 343.6182 340.6099 -203.9427
v 293.7668 351.873 -233.2005
v 343.6182 340.6099 -203.9427
v 290.3411 348.6748 -233.2342
v 343.6182 340.6099 -203.9427
v 354.6705 318.7769 -180.601
v 290.3411 348.6748 -233.2342
v 354.6705 318.7769 -180.601
v 263.771 329.9167 -231.618
v 326.3188 370.03 -237.7982
v 293.7668 351.873 -233.2005
v 329.5896 370.03 -242.8035
v 318.9882 351.873 -271.7968
v 330.8658 371.9713 -238.9511
v 290.3411 348.6748 -233.2342
v 318.9882 351.873 -271.7968
v 318.7885 348.6748 -277.0822
v 263.771 329.9167 -231.618
v 311.533 329.9167 -307.2881
v 256.8409 314.9798 -235.6424
v 306.911 314.9798 -311.4871
v 329.5896 370.03 -242.8035
v 318.9882 351.873 -271.7968
v 335.3878 370.03 -239.5327
v 318.9882 351.873 -271.7968
v 363.9862 343.8081 -242.1293
v 335.3878 370.03 -239.5327
v 330.8658 371.9713 -238.9511
v 332.2657 370.03 -234.7257
v 330.8658 371.9713 -238.9511
v 318.9882 351.873 -271.7968
v 318.7885 348.6748 -277.0822
v 363.9862 343.8081 -242.1293
v 363.9862 343.8081 -242.1293
v 318.7885 348.6748 -277.0822
v 371.8036 340.6098 -242.7666
v 339.9183 343.8081 -208.793
v 343.6182 340.6099 -203.9427
v 318.7885 348.6748 -277.0822
v 345.6194 328.3125 -280.2274
v 371.8036 340.6098 -242.7666
v 331.7945 332.7119 -286.8748
v 311.533 329.9167 -307.2881
v 326.1411 327.8729 -297.8043
v 341.7295 325.692 -287.6842
v 333.2311 326.881 -293.2014
v 332.4328 311.5213 -296.5986
v 340.0701 310.39 -291.6365
v 345.6194 328.3125 -280.2274
v 343.9427 309.5914 -282.7574
v 306.911 314.9798 -311.4871
v 327.4573 312.4836 -300.9777
v 371.8036 340.6098 -242.7666
v 363.5061 323.8854 -271.9474
v 362.2907 322.8153 -274.3355
v 352.2176 324.2246 -280.8751
v 399.8896 318.7769 -248.9722
v 362.3286 307.0931 -277.1747
v 351.8494 308.6453 -283.9832
v 343.9427 309.5914 -282.7574
v 345.6194 328.3125 -280.2274
v 399.8896 318.7769 -248.9722
v 366.9385 322.165 -271.3181
v 335.3878 370.03 -239.5327
v 363.9862 343.8081 -242.1293
v 332.2657 370.03 -234.7257
v 339.9183 343.8081 -208.793
v 371.8036 340.6098 -242.7666
v 399.8896 318.7769 -248.9722
v 343.6182 340.6099 -203.9427
v 343.6182 340.6099 -203.9427
v 399.8896 318.7769 -248.9722
v 354.6705 318.7769 -180.601
v 256.8409 314.9798 -235.6424
v 263.771 329.9167 -231.618
v 336.4508 303.8399 -192.1236
v 354.6705 318.7769 -180.601
v 394.1663 303.8399 -254.8597
v 399.8896 318.7769 -248.9722
v 366.8187 306.4281 -274.2574
v 366.9385 322.165 -271.3181
v 363.0415 306.7896 -273.8348
v 363.5061 323.8854 -271.9474
v 363.0415 306.7896 -273.8348
v 363.5061 323.8854 -271.9474
v 362.3286 307.0931 -277.1747
v 336.4508 303.8399 -192.1236
v 354.6705 318.7769 -180.601
v 394.1663 303.8399 -254.8597
v 399.8896 318.7769 -248.9722
v 327.5889 312.1395 -292.676
v 331.7945 332.7119 -286.8748
v 327.4573 312.4836 -300.9777
v 327.4573 312.4836 -300.9777
v 331.7945 332.7119 -286.8748
v 326.1411 327.8729 -297.8043
v 332.4328 311.5213 -296.5986
v 333.2311 326.881 -293.2014
v 327.5889 312.1395 -292.676
v 331.7945 332.7119 -286.8748
v 169.6412 371.9714 -333.9262
v 170.8693 370.03 -329.3628
v 165.2303 370.03 -333.1319
v 169.6412 371.9714 -333.9262
v 167.9223 370.03 -338.1932
v 170.8693 370.03 -329.3628
v 137.3186 343.8082 -325.9232
v 165.2303 370.03 -333.1319
v 177.5782 351.873 -299.267
v 137.3186 343.8082 -325.9232
v 170.8693 370.03 -329.3628
v 177.5782 351.873 -299.267
v 135.0769 340.6099 -325.5661
v 137.3186 343.8082 -325.9232
v 179.2979 348.6749 -296.2621
v 179.2979 348.6749 -296.2621
v 111.3626 318.7769 -323.1989
v 135.0769 340.6099 -325.5661
v 181.5995 329.9167 -272.0418
v 199.2863 351.873 -342.4413
v 177.5782 351.873 -299.267
v 173.6625 370.03 -334.6504
v 170.8693 370.03 -329.3628
v 179.2979 348.6749 -296.2621
v 170.8693 370.03 -329.3628
v 169.6412 371.9714 -333.9262
v 167.9223 370.03 -338.1932
v 199.2863 351.873 -342.4413
v 169.6412 371.9714 -333.9262
v 158.5846 343.8082 -365.4519
v 199.2863 351.873 -342.4413
v 202.6343 348.6749 -344.1412
v 158.7272 340.6099 -369.4745
v 158.5846 343.8082 -365.4519
v 229.6119 329.9168 -351.4497
v 149.2501 318.7769 -395.9032
v 202.6343 348.6749 -344.1412
v 179.2979 348.6749 -296.2621
v 199.2863 351.873 -342.4413
v 181.5995 329.9167 -272.0418
v 229.6119 329.9168 -351.4497
v 185.9937 314.9798 -269.6342
v 233.287 314.9799 -352.0706
v 137.3186 343.8082 -325.9232
v 158.5846 343.8082 -365.4519
v 165.2303 370.03 -333.1319
v 167.9223 370.03 -338.1932
v 137.3186 343.8082 -325.9232
v 158.7272 340.6099 -369.4745
v 158.5846 343.8082 -365.4519
v 135.0769 340.6099 -325.5661
v 135.0769 340.6099 -325.5661
v 149.2501 318.7769 -395.9032
v 158.7272 340.6099 -369.4745
v 111.3626 318.7769 -323.1989
v 111.3626 318.7769 -323.1989
v 181.5995 329.9167 -272.0418
v 124.3531 303.84 -314.8618
v 185.9937 314.9798 -269.6342
v 229.6119 329.9168 -351.4497
v 149.2501 318.7769 -395.9032
v 233.287 314.9799 -352.0706
v 157.687 303.84 -395.6855
v 149.2501 318.7769 -395.9032
v 111.3626 318.7769 -323.1989
v 157.687 303.84 -395.6855
v 124.3531 303.84 -314.8618
v 130.017 384.3134 -240.9681
v 129.9734 382.3721 -235.6033
v 124.3344 382.3721 -239.3723
v 130.017 384.3134 -240.9681
v 127.0264 382.3721 -244.4336
v 129.9734 382.3721 -235.6033
v 91.04905 341.2838 -226.686
v 124.3344 382.3721 -239.3723
v 132.0369 352.9864 -208.2228
v 132.0369 352.9864 -208.2228
v 88.80736 338.0854 -226.3289
v 91.04905 341.2838 -226.686
v 132.3858 349.7882 -205.8309
v 132.3858 349.7882 -205.8309
v 77.86029 323.9168 -221.0143
v 88.80736 338.0854 -226.3289
v 133.2217 325.8666 -178.7318
v 77.86029 323.9168 -221.0143
v 154.5569 364.2151 -245.9785
v 132.0369 352.9864 -208.2228
v 132.7666 382.372 -240.8908
v 129.9734 382.3721 -235.6033
v 132.3858 349.7882 -205.8309
v 157.5112 361.0168 -248.1202
v 133.2217 325.8666 -178.7318
v 175.2003 340.1668 -250.1237
v 139.3474 316.2318 -178.5411
v 179.3583 330.5851 -248.3949
v 132.7666 382.372 -240.8908
v 129.9734 382.3721 -235.6033
v 130.017 384.3134 -240.9681
v 112.8747 356.1502 -270.6706
v 154.5569 364.2151 -245.9785
v 127.0264 382.3721 -244.4336
v 132.7666 382.372 -240.8908
v 134.0755 356.1138 -261.3827
v 157.5112 361.0168 -248.1202
v 139.6649 336.2967 -274.2237
v 172.1539 341.3961 -258.6083
v 135.7181 340.7077 -273.5417
v 113.0173 352.952 -274.6932
v 112.8747 356.1502 -270.6706
v 124.2099 341.569 -276.9901
v 125.7865 334.387 -281.9254
v 132.8774 335.1513 -278.2453
v 123.3898 333.748 -283.0327
v 110.8625 331.1189 -288.4396
v 122.4867 317.8255 -283.5496
v 131.9435 319.5417 -279.5779
v 134.6005 320.2548 -273.8376
v 135.7181 340.7077 -273.5417
v 126.3318 318.4509 -282.4353
v 130.017 384.3134 -240.9681
v 132.7666 382.372 -240.8908
v 157.5112 361.0168 -248.1202
v 172.1539 341.3961 -258.6083
v 175.2003 340.1668 -250.1237
v 91.04905 341.2838 -226.686
v 112.8747 356.1502 -270.6706
v 124.3344 382.3721 -239.3723
v 88.80736 338.0854 -226.3289
v 113.0173 352.952 -274.6932
v 91.04905 341.2838 -226.686
v 124.3344 382.3721 -239.3723
v 112.8747 356.1502 -270.6706
v 127.0264 382.3721 -244.4336
v 77.86029 323.9168 -221.0143
v 110.8625 331.1189 -288.4396
v 88.80736 338.0854 -226.3289
v 113.0173 352.952 -274.6932
v 77.86029 323.9168 -221.0143
v 133.2217 325.8666 -178.7318
v 78.90637 310.5271 -215.6768
v 139.3474 316.2318 -178.5411
v 124.2099 341.569 -276.9901
v 123.3898 333.748 -283.0327
v 121.8246 318.109 -278.405
v 122.4867 317.8255 -283.5496
v 122.4867 317.8255 -283.5496
v 110.8625 331.1189 -288.4396
v 114.799 323.1742 -289.6265
v 110.8625 331.1189 -288.4396
v 77.86029 323.9168 -221.0143
v 114.799 323.1742 -289.6265
v 78.90637 310.5271 -215.6768
v 179.3583 330.5851 -248.3949
v 175.2003 340.1668 -250.1237
v 174.4518 326.4113 -257.928
v 172.1539 341.3961 -258.6083
v 139.6649 336.2967 -274.2237
v 140.837 320.8126 -274.9366
v 135.7181 340.7077 -273.5417
v 134.6005 320.2548 -273.8376
v 174.4518 326.4113 -257.928
v 175.2003 340.1668 -250.1237
v 172.1539 341.3961 -258.6083
v 125.7865 334.387 -281.9254
v 124.2099 341.569 -276.9901
v 126.3318 318.4509 -282.4353
v 126.3318 318.4509 -282.4353
v 124.2099 341.569 -276.9901
v 121.8246 318.109 -278.405
v 216.6147 337.9435 -175.3327
v 213.2302 360.8853 -216.412
v 234.465 337.304 -208.2975
v 191.2952 360.3724 -179.3673
v 215.0056 337.9975 -172.5475
v 249.8926 321.8139 -202.9669
v 231.7967 323.1613 -170.4825
v 191.2952 360.3724 -179.3673
v 167.4191 336.042 -195.8342
v 213.2302 360.8853 -216.412
v 169.5476 335.804 -199.5919
v 188.4191 333.7973 -237.1488
v 149.5018 316.9962 -219.289
v 169.4465 313.0836 -253.0058
v 213.6572 355.3874 -217.6925
v 190.2042 328.2994 -236.7758
v 214.1346 347.1575 -220.5798
v 192.8764 320.0696 -236.2175
v 188.4191 333.7973 -237.1488
v 169.4465 313.0836 -253.0058
v 170.5471 307.5857 -253.7719
v 213.2302 360.8853 -216.412
v 225.7651 323.5763 -213.6753
v 230.3086 331.8061 -212.6418
v 234.465 337.304 -208.2975
v 249.8926 321.8139 -202.9669
v 247.6636 312.2011 -207.8501
v 288.7313 312.7338 -262.9783
v 271.6684 332.839 -270.2671
v 308.8303 310.6781 -298.594
v 294.2009 330.834 -305.1545
v 266.7349 360.8852 -314.3625
v 245.7129 360.3723 -278.4753
v 270.0377 333.0086 -267.3634
v 245.7129 360.3723 -278.4753
v 220.9492 333.4268 -298.208
v 266.7349 360.8852 -314.3625
v 221.8059 333.4939 -301.777
v 242.7212 334.6678 -334.4328
v 207.488 317.4368 -312.4706
v 228.4207 313.0836 -345.262
v 266.7349 360.8852 -314.3625
v 242.7212 334.6678 -334.4328
v 247.1747 331.0345 -333.0429
v 267.8011 347.1575 -317.5597
v 250.5277 328.299 -331.9965
v 228.4207 313.0836 -345.262
v 230.31 299.3558 -346.2999
v 287.8873 322.7422 -310.699
v 294.2009 330.834 -305.1545
v 310.0346 296.9504 -301.7701
v 308.8303 310.6781 -298.594
v 273.9207 376.7276 -151.2098
v 268.6734 376.7276 -153.9209
v 272.6855 378.4406 -154.9382
v 273.9207 376.7276 -151.2098
v 281.1374 353.5903 -130.6778
v 268.6734 376.7276 -153.9209
v 268.6734 376.7276 -153.9209
v 281.1374 353.5903 -130.6778
v 242.4365 360.7065 -149.5666
v 281.1977 350.7682 -129.0184
v 240.0593 357.8845 -148.9255
v 293.1695 331.5034 -106.2657
v 209.432 341.3329 -146.1643
v 268.6734 376.7276 -153.9209
v 242.4365 360.7065 -149.5666
v 271.5594 376.7276 -158.3374
v 262.2189 360.7065 -181.4164
v 272.6855 378.4406 -154.9382
v 242.4365 360.7065 -149.5666
v 240.0593 357.8845 -148.9255
v 262.2189 360.7065 -181.4164
v 261.6527 357.8845 -184.9806
v 209.432 341.3329 -146.1643
v 253.3764 341.3329 -210.6827
v 203.9428 328.153 -150.0127
v 248.9792 328.153 -215.9588
v 240.0593 357.8845 -148.9255
v 209.432 341.3329 -146.1643
v 261.6527 357.8845 -184.9806
v 271.5594 376.7276 -158.3374
v 262.2189 360.7065 -181.4164
v 276.6756 376.7276 -155.4514
v 276.6756 376.7276 -155.4514
v 272.6855 378.4406 -154.9382
v 273.9207 376.7276 -151.2098
v 272.6855 378.4406 -154.9382
v 276.6756 376.7276 -155.4514
v 262.2189 360.7065 -181.4164
v 300.7658 353.5902 -153.9569
v 261.6527 357.8845 -184.9806
v 300.7658 353.5902 -153.9569
v 302.2452 350.7682 -155.5181
v 261.6527 357.8845 -184.9806
v 285.8916 339.3218 -186.9716
v 302.2452 350.7682 -155.5181
v 292.658 335.8678 -185.2472
v 332.5111 331.5034 -156.647
v 283.8194 322.6183 -187.9757
v 313.0156 332.6674 -172.3168
v 291.6068 321.7628 -188.4353
v 283.8194 322.6183 -187.9757
v 311.1548 318.4358 -176.07
v 332.5111 331.5034 -156.647
v 326.0816 317.5409 -163.6108
v 271.7543 342.3148 -194.9671
v 282.1021 337.3364 -192.0824
v 275.7494 338.2778 -196.8848
v 261.6527 357.8845 -184.9806
v 253.3764 341.3329 -210.6827
v 269.9905 339.0215 -199.9248
v 248.9792 328.153 -215.9588
v 268.5772 325.2151 -203.3049
v 271.7543 342.3148 -194.9671
v 282.1021 337.3364 -192.0824
v 285.8916 339.3218 -186.9716
v 281.6717 323.2521 -194.8502
v 273.6572 324.4536 -200.0249
v 275.7494 338.2778 -196.8848
v 283.8194 322.6183 -187.9757
v 276.6756 376.7276 -155.4514
v 300.7658 353.5902 -153.9569
v 273.9207 376.7276 -151.2098
v 300.7658 353.5902 -153.9569
v 281.1374 353.5903 -130.6778
v 300.7658 353.5902 -153.9569
v 302.2452 350.7682 -155.5181
v 281.1374 353.5903 -130.6778
v 281.1977 350.7682 -129.0184
v 302.2452 350.7682 -155.5181
v 332.5111 331.5034 -156.647
v 281.1977 350.7682 -129.0184
v 293.1695 331.5034 -106.2657
v 203.9428 328.153 -150.0127
v 209.432 341.3329 -146.1643
v 277.8062 318.3235 -110.3237
v 277.8062 318.3235 -110.3237
v 209.432 341.3329 -146.1643
v 293.1695 331.5034 -106.2657
v 277.8062 318.3235 -110.3237
v 293.1695 331.5034 -106.2657
v 326.0816 317.5409 -163.6108
v 332.5111 331.5034 -156.647
v 269.2801 324.8488 -195.8909
v 271.7543 342.3148 -194.9671
v 268.5772 325.2151 -203.3049
v 269.2801 324.8488 -195.8909
v 275.7494 338.2778 -196.8848
v 271.7543 342.3148 -194.9671
v 273.6572 324.4536 -200.0249
v 275.7494 338.2778 -196.8848
v 269.2801 324.8488 -195.8909
v 240.7579 275.6181 -196.0101
v 204.005 275.6181 -217.8796
v 297.3474 275.6181 -275.7213
v 255.3753 275.6181 -298.3271
v 170.4465 275.6181 -237.8483
v 217.5145 275.6181 -321.2342
v 206.0647 314.0095 -327.8352
v 217.5145 275.6181 -321.2342
v 159.2712 307.6943 -250.8697
v 170.4465 275.6181 -237.8483
v 251.2884 307.6943 -194.684
v 240.7579 275.6181 -196.0101
v 308.1549 314.0095 -275.2049
v 297.3474 275.6181 -275.7213
v 208.8178 334.0524 -216.4714
v 204.005 275.6181 -217.8796
v 251.2884 307.6943 -194.684
v 240.7579 275.6181 -196.0101
v 170.4465 275.6181 -237.8483
v 159.2712 307.6943 -250.8697
v 292.9809 285.21 -168.2189
v 251.2884 307.6943 -194.684
v 348.58 291.5251 -248.5477
v 308.1549 314.0095 -275.2049
v 175.5032 287.9598 -347.8303
v 206.0647 314.0095 -327.8352
v 125.405 281.6447 -270.4555
v 159.2712 307.6943 -250.8697
vt 0.558756 0.483092
vt 0.443889 0.418416
vt 0.594657 0.433258
vt 0.475692 0.362461
vt 0.313272 0.361764
vt 0.337987 0.30212
vt 0.665794 0.4702
vt 0.617796 0.513971
vt 0.23391 0.335596
vt 0.250226 0.274161
vt 0.642438 0.441417
vt 0.607295 0.420646
vt 0.661376 0.455147
vt 0.342028 0.282634
vt 0.301701 0.269101
vt 0.258396 0.26253
vt 0.122297 0.651322
vt 0.18095 0.681102
vt 0.274994 0.728852
vt 0.356745 0.77036
vt 0.404634 0.794675
vt 0.6706 0.431748
vt 0.622398 0.471288
vt 0.665794 0.4702
vt 0.617796 0.513971
vt 0.41919 0.74865
vt 0.404634 0.794675
vt 0.493985 0.328122
vt 0.601541 0.390603
vt 0.475692 0.362461
vt 0.594657 0.433258
vt 0.337987 0.30212
vt 0.384438 0.281003
vt 0.281266 0.308465
vt 0.296848 0.247751
vt 0.23391 0.335596
vt 0.250226 0.274161
vt 0.258396 0.26253
vt 0.304735 0.236533
vt 0.122297 0.651322
vt 0.174459 0.620809
vt 0.612235 0.378249
vt 0.650258 0.40398
vt 0.607295 0.420646
vt 0.642438 0.441417
vt 0.66305 0.415256
vt 0.661376 0.455147
vt 0.665794 0.4702
vt 0.6706 0.431748
vt 0.304735 0.236533
vt 0.344695 0.244906
vt 0.258396 0.26253
vt 0.301701 0.269101
vt 0.388516 0.262244
vt 0.342028 0.282634
vt 0.594657 0.433258
vt 0.601541 0.390603
vt 0.607295 0.420646
vt 0.612235 0.378249
vt 0.384438 0.281003
vt 0.337987 0.30212
vt 0.388516 0.262244
vt 0.342028 0.282634
vt 0.408705 0.345264
vt 0.344704 0.336385
vt 0.427363 0.33571
vt 0.372013 0.326261
vt 0.286348 0.332486
vt 0.322015 0.323945
vt 0.221672 0.333853
vt 0.281586 0.355391
vt 0.455631 0.341591
vt 0.440723 0.354711
vt 0.470501 0.351034
vt 0.45569 0.366738
vt 0.489118 0.397235
vt 0.501946 0.379981
vt 0.378361 0.358343
vt 0.422413 0.37306
vt 0.328965 0.353641
vt 0.306355 0.3562
vt 0.479113 0.40906
vt 0.440864 0.38218
vt 0.266305 0.359992
vt 0.30255 0.370296
vt 0.216631 0.37495
vt 0.153881 0.339764
vt 0.318993 0.39108
vt 0.501283 0.428272
vt 0.535783 0.439809
vt 0.517814 0.449886
vt 0.523953 0.463807
vt 0.524865 0.469807
vt 0.560592 0.472809
vt 0.564354 0.450099
vt 0.543132 0.419618
vt 0.520603 0.481516
vt 0.349192 0.417959
vt 0.329495 0.445153
vt 0.367533 0.430964
vt 0.336152 0.461716
vt 0.388694 0.442657
vt 0.356438 0.463275
vt 0.43743 0.463505
vt 0.505065 0.524206
vt 0.485163 0.473916
vt 0.556748 0.511884
vt 0.520603 0.481516
vt 0.505065 0.524206
vt 0.551405 0.554219
vt 0.485163 0.473916
vt 0.520603 0.481516
vt 0.511061 0.452453
vt 0.504475 0.449394
vt 0.495642 0.433049
vt 0.455534 0.466838
vt 0.487273 0.471864
vt 0.508813 0.46171
vt 0.506103 0.469822
vt 0.517781 0.466952
vt 0.515933 0.482788
vt 0.516835 0.475052
vt 0.517781 0.466952
vt 0.515933 0.482788
vt 0.4727 0.491434
vt 0.418232 0.456375
vt 0.473263 0.41446
vt 0.495642 0.433049
vt 0.438613 0.39016
vt 0.377422 0.437317
vt 0.418101 0.379845
vt 0.349041 0.416691
vt 0.376436 0.365206
vt 0.322513 0.39421
vt 0.327913 0.36181
vt 0.313964 0.37666
vt 0.315763 0.36631
vt 0.304963 0.36451
vt 0.422381 0.482447
vt 0.375034 0.461014
vt 0.309571 0.408973
vt 0.338622 0.440311
vt 0.355935 0.450618
vt 0.299425 0.383938
vt 0.304963 0.36451
vt 0.327913 0.36181
vt 0.30255 0.370296
vt 0.306355 0.3562
vt 0.299425 0.383938
vt 0.304963 0.36451
vt 0.328965 0.353641
vt 0.304963 0.36451
vt 0.327913 0.36181
vt 0.328965 0.353641
vt 0.378361 0.358343
vt 0.327913 0.36181
vt 0.376436 0.365206
vt 0.422413 0.37306
vt 0.418101 0.379845
vt 0.440864 0.38218
vt 0.438613 0.39016
vt 0.479113 0.40906
vt 0.473263 0.41446
vt 0.501283 0.428272
vt 0.495642 0.433049
vt 0.517814 0.449886
vt 0.495642 0.433049
vt 0.511061 0.452453
vt 0.318993 0.39108
vt 0.30255 0.370296
vt 0.309571 0.408973
vt 0.299425 0.383938
vt 0.338622 0.440311
vt 0.349192 0.417959
vt 0.355935 0.450618
vt 0.367533 0.430964
vt 0.375034 0.461014
vt 0.388694 0.442657
vt 0.422381 0.482447
vt 0.43743 0.463505
vt 0.4727 0.491434
vt 0.485163 0.473916
vt 0.515933 0.482788
vt 0.517814 0.449886
vt 0.523953 0.463807
vt 0.511061 0.452453
vt 0.511061 0.452453
vt 0.523953 0.463807
vt 0.517781 0.466952
vt 0.515933 0.482788
vt 0.520603 0.481516
vt 0.523953 0.463807
vt 0.516835 0.475052
vt 0.517781 0.466952
vt 0.515933 0.482788
vt 0.520603 0.481516
vt 0.485163 0.473916
vt 0.515933 0.482788
vt 0.600188 0.467786
vt 0.557569 0.445833
vt 0.617256 0.452479
vt 0.567637 0.427131
vt 0.548126 0.465443
vt 0.595969 0.487545
vt 0.540508 0.542388
vt 0.60749 0.578048
vt 0.328942 0.328067
vt 0.284281 0.306632
vt 0.350939 0.316844
vt 0.295204 0.292348
vt 0.256552 0.308313
vt 0.306818 0.337142
vt 0.104463 0.310833
vt 0.181194 0.351094
vt 0.567637 0.427131
vt 0.557569 0.445833
vt 0.559241 0.440438
vt 0.549034 0.459358
vt 0.548126 0.465443
vt 0.539466 0.479167
vt 0.540508 0.542388
vt 0.531367 0.556876
vt 0.328942 0.328067
vt 0.350939 0.316844
vt 0.320408 0.341592
vt 0.342543 0.330151
vt 0.298158 0.350866
vt 0.306818 0.337142
vt 0.172053 0.365582
vt 0.181194 0.351094
vt 0.184647 0.480448
vt 0.031096 0.40071
vt 0.222112 0.396036
vt 0.075023 0.316121
vt 0.124794 0.387592
vt 0.031096 0.40071
vt 0.259235 0.457407
vt 0.184647 0.480448
vt 0.259235 0.457407
vt 0.184647 0.480448
vt 0.307871 0.365315
vt 0.222112 0.396036
vt 0.307871 0.365315
vt 0.222112 0.396036
vt 0.174203 0.292445
vt 0.075023 0.316121
vt 0.174203 0.292445
vt 0.075023 0.316121
vt 0.124794 0.387592
vt 0.031096 0.40071
vt 0.581525 0.676979
vt 0.39587 0.58057
vt 0.618596 0.607148
vt 0.433709 0.507704
vt 0.448904 0.548152
vt 0.39587 0.58057
vt 0.577043 0.614694
vt 0.581525 0.676979
vt 0.577043 0.614694
vt 0.581525 0.676979
vt 0.619562 0.534337
vt 0.618596 0.607148
vt 0.619562 0.534337
vt 0.618596 0.607148
vt 0.492175 0.464825
vt 0.433709 0.507704
vt 0.492175 0.464825
vt 0.433709 0.507704
vt 0.448904 0.548152
vt 0.39587 0.58057
vt 0.478324 0.656779
vt 0.464397 0.649583
vt 0.473964 0.647717
vt 0.478324 0.656779
vt 0.510364 0.705486
vt 0.464397 0.649583
vt 0.464397 0.649583
vt 0.510364 0.705486
vt 0.39896 0.65251
vt 0.513795 0.708944
vt 0.39896 0.65251
vt 0.513795 0.708944
vt 0.392904 0.651065
vt 0.513795 0.708944
vt 0.53724 0.743535
vt 0.392904 0.651065
vt 0.53724 0.743535
vt 0.342902 0.646849
vt 0.464397 0.649583
vt 0.39896 0.65251
vt 0.472057 0.637862
vt 0.45749 0.562943
vt 0.473964 0.647717
vt 0.392904 0.651065
vt 0.45749 0.562943
vt 0.458815 0.549473
vt 0.342902 0.646849
vt 0.452538 0.473152
vt 0.336163 0.631444
vt 0.450254 0.458621
vt 0.472057 0.637862
vt 0.45749 0.562943
vt 0.485635 0.645522
vt 0.45749 0.562943
vt 0.565241 0.621578
vt 0.485635 0.645522
vt 0.473964 0.647717
vt 0.478324 0.656779
vt 0.473964 0.647717
vt 0.45749 0.562943
vt 0.458815 0.549473
vt 0.565241 0.621578
vt 0.565241 0.621578
vt 0.458815 0.549473
vt 0.57579 0.613738
vt 0.510364 0.705486
vt 0.513795 0.708944
vt 0.458815 0.549473
vt 0.531611 0.534683
vt 0.57579 0.613738
vt 0.497554 0.521011
vt 0.452538 0.473152
vt 0.487172 0.494216
vt 0.524053 0.516647
vt 0.503956 0.504424
vt 0.510222 0.491367
vt 0.528177 0.502263
vt 0.531611 0.534683
vt 0.537388 0.522166
vt 0.450254 0.458621
vt 0.498395 0.481729
vt 0.57579 0.613738
vt 0.57483 0.552021
vt 0.572579 0.54616
vt 0.548823 0.531712
vt 0.64047 0.587451
vt 0.580392 0.533951
vt 0.55583 0.519046
vt 0.537388 0.522166
vt 0.531611 0.534683
vt 0.64047 0.587451
vt 0.583529 0.55282
vt 0.485635 0.645522
vt 0.565241 0.621578
vt 0.478324 0.656779
vt 0.510364 0.705486
vt 0.57579 0.613738
vt 0.64047 0.587451
vt 0.513795 0.708944
vt 0.513795 0.708944
vt 0.64047 0.587451
vt 0.53724 0.743535
vt 0.336163 0.631444
vt 0.342902 0.646849
vt 0.52333 0.725528
vt 0.53724 0.743535
vt 0.631752 0.56512
vt 0.64047 0.587451
vt 0.590905 0.540331
vt 0.583529 0.55282
vt 0.582158 0.541422
vt 0.57483 0.552021
vt 0.582158 0.541422
vt 0.57483 0.552021
vt 0.580392 0.533951
vt 0.52333 0.725528
vt 0.53724 0.743535
vt 0.631752 0.56512
vt 0.64047 0.587451
vt 0.498876 0.500503
vt 0.497554 0.521011
vt 0.498395 0.481729
vt 0.498395 0.481729
vt 0.497554 0.521011
vt 0.487172 0.494216
vt 0.510222 0.491367
vt 0.503956 0.504424
vt 0.498876 0.500503
vt 0.497554 0.521011
vt 0.099199 0.425897
vt 0.10347 0.43584
vt 0.090433 0.427126
vt 0.099199 0.425897
vt 0.096657 0.415424
vt 0.10347 0.43584
vt 0.045949 0.435454
vt 0.090433 0.427126
vt 0.132075 0.499065
vt 0.045949 0.435454
vt 0.10347 0.43584
vt 0.132075 0.499065
vt 0.043251 0.435265
vt 0.045949 0.435454
vt 0.13829 0.504831
vt 0.13829 0.504831
vt 0.006105 0.433834
vt 0.043251 0.435265
vt 0.156707 0.553228
vt 0.181808 0.400152
vt 0.132075 0.499065
vt 0.109928 0.423615
vt 0.10347 0.43584
vt 0.13829 0.504831
vt 0.10347 0.43584
vt 0.099199 0.425897
vt 0.096657 0.415424
vt 0.181808 0.400152
vt 0.099199 0.425897
vt 0.094474 0.345256
vt 0.181808 0.400152
vt 0.191669 0.395314
vt 0.097132 0.335233
vt 0.094474 0.345256
vt 0.265511 0.373276
vt 0.091495 0.269976
vt 0.191669 0.395314
vt 0.13829 0.504831
vt 0.181808 0.400152
vt 0.156707 0.553228
vt 0.265511 0.373276
vt 0.176892 0.55316
vt 0.283282 0.367714
vt 0.045949 0.435454
vt 0.094474 0.345256
vt 0.090433 0.427126
vt 0.096657 0.415424
vt 0.045949 0.435454
vt 0.097132 0.335233
vt 0.094474 0.345256
vt 0.043251 0.435265
vt 0.043251 0.435265
vt 0.091495 0.269976
vt 0.097132 0.335233
vt 0.006105 0.433834
vt 0.006105 0.433834
vt 0.156707 0.553228
vt 0.046511 0.447902
vt 0.176892 0.55316
vt 0.265511 0.373276
vt 0.091495 0.269976
vt 0.283282 0.367714
vt 0.12109 0.267072
vt 0.091495 0.269976
vt 0.006105 0.433834
vt 0.12109 0.267072
vt 0.046511 0.447902
vt 0.803085 0.186534
vt 0.804533 0.198248
vt 0.791344 0.189433
vt 0.803085 0.186534
vt 0.79764 0.177595
vt 0.804533 0.198248
vt 0.742839 0.197238
vt 0.791344 0.189433
vt 0.832372 0.248749
vt 0.832372 0.248749
vt 0.740296 0.196713
vt 0.742839 0.197238
vt 0.835638 0.252802
vt 0.835638 0.252802
vt 0.726821 0.202888
vt 0.740296 0.196713
vt 0.855712 0.303656
vt 0.726821 0.202888
vt 0.875849 0.166375
vt 0.832372 0.248749
vt 0.811066 0.185881
vt 0.804533 0.198248
vt 0.835638 0.252802
vt 0.885093 0.160094
vt 0.855712 0.303656
vt 0.941038 0.14702
vt 0.876764 0.299534
vt 0.957312 0.14714
vt 0.811066 0.185881
vt 0.804533 0.198248
vt 0.803085 0.186534
vt 0.785697 0.106047
vt 0.875849 0.166375
vt 0.79764 0.177595
vt 0.811066 0.185881
vt 0.83466 0.127471
vt 0.885093 0.160094
vt 0.862577 0.090393
vt 0.933182 0.128072
vt 0.85022 0.093598
vt 0.788568 0.095553
vt 0.785697 0.106047
vt 0.823197 0.086018
vt 0.83232 0.072098
vt 0.847932 0.080781
vt 0.827337 0.069339
vt 0.800793 0.056066
vt 0.837406 0.062468
vt 0.857543 0.072079
vt 0.863035 0.085352
vt 0.85022 0.093598
vt 0.845644 0.065214
vt 0.803085 0.186534
vt 0.811066 0.185881
vt 0.885093 0.160094
vt 0.933182 0.128072
vt 0.941038 0.14702
vt 0.742839 0.197238
vt 0.785697 0.106047
vt 0.791344 0.189433
vt 0.740296 0.196713
vt 0.788568 0.095553
vt 0.742839 0.197238
vt 0.791344 0.189433
vt 0.785697 0.106047
vt 0.79764 0.177595
vt 0.726821 0.202888
vt 0.800793 0.056066
vt 0.740296 0.196713
vt 0.788568 0.095553
vt 0.726821 0.202888
vt 0.855712 0.303656
vt 0.739964 0.209356
vt 0.876764 0.299534
vt 0.823197 0.086018
vt 0.827337 0.069339
vt 0.835692 0.074221
vt 0.837406 0.062468
vt 0.837406 0.062468
vt 0.800793 0.056066
vt 0.815896 0.050571
vt 0.800793 0.056066
vt 0.726821 0.202888
vt 0.815896 0.050571
vt 0.739964 0.209356
vt 0.957312 0.14714
vt 0.941038 0.14702
vt 0.949074 0.123798
vt 0.933182 0.128072
vt 0.862577 0.090393
vt 0.876764 0.083064
vt 0.85022 0.093598
vt 0.863035 0.085352
vt 0.949074 0.123798
vt 0.941038 0.14702
vt 0.933182 0.128072
vt 0.83232 0.072098
vt 0.823197 0.086018
vt 0.845644 0.065214
vt 0.845644 0.065214
vt 0.823197 0.086018
vt 0.835692 0.074221
vt 0.229999 0.776753
vt 0.207093 0.694173
vt 0.27064 0.702168
vt 0.15744 0.778386
vt 0.226337 0.783057
vt 0.314888 0.707319
vt 0.273576 0.7806
vt 0.15744 0.778386
vt 0.120458 0.729678
vt 0.207093 0.694173
vt 0.125419 0.721109
vt 0.169284 0.635728
vt 0.09385 0.668794
vt 0.141049 0.592082
vt 0.211757 0.688841
vt 0.177035 0.634335
vt 0.218325 0.678716
vt 0.188559 0.632263
vt 0.169284 0.635728
vt 0.141049 0.592082
vt 0.147277 0.588291
vt 0.207093 0.694173
vt 0.259816 0.684128
vt 0.264777 0.689991
vt 0.27064 0.702168
vt 0.314888 0.707319
vt 0.31574 0.692246
vt 0.411172 0.56724
vt 0.360944 0.55828
vt 0.45748 0.486472
vt 0.413254 0.478388
vt 0.332635 0.467351
vt 0.284556 0.549799
vt 0.35714 0.564937
vt 0.284556 0.549799
vt 0.245387 0.495032
vt 0.332635 0.467351
vt 0.247289 0.486948
vt 0.29406 0.413122
vt 0.225414 0.457464
vt 0.275346 0.382328
vt 0.332635 0.467351
vt 0.29406 0.413122
vt 0.306448 0.415182
vt 0.343506 0.455502
vt 0.315745 0.416727
vt 0.275346 0.382328
vt 0.288186 0.376146
vt 0.403578 0.463174
vt 0.413254 0.478388
vt 0.467561 0.474832
vt 0.45748 0.486472
vt 0.339476 0.853295
vt 0.327283 0.846996
vt 0.335539 0.845533
vt 0.339476 0.853295
vt 0.370245 0.888327
vt 0.327283 0.846996
vt 0.327283 0.846996
vt 0.370245 0.888327
vt 0.276769 0.848657
vt 0.372069 0.890607
vt 0.273122 0.848657
vt 0.391676 0.917054
vt 0.213844 0.846377
vt 0.327283 0.846996
vt 0.276769 0.848657
vt 0.333989 0.836733
vt 0.322367 0.775244
vt 0.335539 0.845533
vt 0.276769 0.848657
vt 0.273122 0.848657
vt 0.322367 0.775244
vt 0.322823 0.765669
vt 0.213844 0.846377
vt 0.31416 0.699096
vt 0.210196 0.830874
vt 0.312336 0.681312
vt 0.273122 0.848657
vt 0.213844 0.846377
vt 0.322823 0.765669
vt 0.333989 0.836733
vt 0.322367 0.775244
vt 0.345877 0.843439
vt 0.345877 0.843439
vt 0.335539 0.845533
vt 0.339476 0.853295
vt 0.335539 0.845533
vt 0.345877 0.843439
vt 0.322367 0.775244
vt 0.414931 0.823578
vt 0.322823 0.765669
vt 0.414931 0.823578
vt 0.419947 0.818562
vt 0.322823 0.765669
vt 0.389561 0.752276
vt 0.419947 0.818562
vt 0.40698 0.754581
vt 0.481048 0.802603
vt 0.394554 0.742216
vt 0.455089 0.782468
vt 0.412653 0.740782
vt 0.394554 0.742216
vt 0.458661 0.767162
vt 0.481048 0.802603
vt 0.480592 0.782996
vt 0.355521 0.735425
vt 0.382086 0.7397
vt 0.367053 0.72919
vt 0.322823 0.765669
vt 0.31416 0.699096
vt 0.353479 0.7226
vt 0.312336 0.681312
vt 0.358535 0.7087
vt 0.355521 0.735425
vt 0.382086 0.7397
vt 0.389561 0.752276
vt 0.389329 0.726955
vt 0.370488 0.715786
vt 0.367053 0.72919
vt 0.394554 0.742216
vt 0.345877 0.843439
vt 0.414931 0.823578
vt 0.339476 0.853295
vt 0.414931 0.823578
vt 0.370245 0.888327
vt 0.414931 0.823578
vt 0.419947 0.818562
vt 0.370245 0.888327
vt 0.372069 0.890607
vt 0.419947 0.818562
vt 0.481048 0.802603
vt 0.372069 0.890607
vt 0.391676 0.917054
vt 0.210196 0.830874
vt 0.213844 0.846377
vt 0.383455 0.915498
vt 0.383455 0.915498
vt 0.213844 0.846377
vt 0.391676 0.917054
vt 0.383455 0.915498
vt 0.391676 0.917054
vt 0.480592 0.782996
vt 0.481048 0.802603
vt 0.360345 0.725324
vt 0.355521 0.735425
vt 0.358535 0.7087
vt 0.360345 0.725324
vt 0.367053 0.72919
vt 0.355521 0.735425
vt 0.370488 0.715786
vt 0.367053 0.72919
vt 0.360345 0.725324
vt 0.326258 0.705323
vt 0.243699 0.656197
vt 0.453376 0.526266
vt 0.359093 0.475486
vt 0.168316 0.611341
vt 0.274046 0.42403
vt 0.236662 0.428711
vt 0.274046 0.42403
vt 0.128546 0.601802
vt 0.168316 0.611341
vt 0.334886 0.727087
vt 0.326258 0.705323
vt 0.458443 0.547714
vt 0.453376 0.526266
vt 0.21596 0.684438
vt 0.243699 0.656197
vt 0.334886 0.727087
vt 0.326258 0.705323
vt 0.168316 0.611341
vt 0.128546 0.601802
vt 0.432447 0.769588
vt 0.334886 0.727087
vt 0.552361 0.594298
vt 0.458443 0.547714
vt 0.171466 0.371594
vt 0.236662 0.428711
vt 0.065069 0.540734
vt 0.128546 0.601802
vn -0.005780937 0.9998977 -0.01308562
vn 0 1 0
vn -0.007309062 0.9998856 0.01324468
vn 0 1 0
vn 0 1 0
vn -0.004353414 0.9998971 0.01366473
vn -0.01564298 0.9998538 0.006894629
vn -0.01253398 0.999627 -0.02426338
vn 0 1 0
vn -0.01195554 0.9987589 0.0483499
vn -0.02438314 0.9989454 0.0389041
vn -0.01775413 0.9993911 0.03003876
vn -0.03660435 0.9980534 0.05049131
vn -0.0172381 0.9984587 0.0527527
vn -0.01519717 0.9974774 0.06933983
vn -0.01332121 0.9960496 0.08779409
vn 0 1 0
vn 0 1 0
vn 0 1 0
vn -0.01015681 0.9999381 -0.004549366
vn -0.002910173 0.9999794 0.005731639
vn 0.6208488 -0.1709075 0.7650734
vn 0.6936316 -0.1895957 0.6949307
vn 0.6390893 -0.1820278 0.7472822
vn 0.7475566 -0.1879982 0.6370368
vn 0.7882485 -0.184317 0.5871044
vn 0.7855652 -0.1671296 0.595781
vn 0.4335046 0.02025647 -0.9009236
vn 0.5068139 0.01349224 -0.8619499
vn 0.4723558 0.01823033 -0.8812193
vn 0.5113236 0.01663941 -0.8592271
vn 0.3981152 0.02516579 -0.9169901
vn 0.3950247 0.02271136 -0.9183897
vn -0.9532193 0.01238652 -0.3020259
vn -0.904664 0.02866876 -0.4251603
vn -0.9599002 0.01909999 -0.2796905
vn -0.9037484 0.02955921 -0.4270423
vn -0.8113311 0.03801639 -0.5833493
vn -0.8113295 0.03801627 -0.5833519
vn -0.9444776 0.01027661 -0.328415
vn -0.9462081 0 -0.3235587
vn 0.5604596 0.0004364666 -0.8281816
vn 0.5785682 -0.01313037 -0.8155284
vn 0.5348859 -0.001403177 -0.8449231
vn 0.5872473 -0.02316281 -0.809076
vn 0.8070922 -0.08648847 -0.5840564
vn 0.8131167 -0.09536777 -0.5742353
vn 0.9295318 -0.1335257 -0.3437174
vn 0.904689 -0.1157489 -0.4100489
vn 0.2047627 0.05495945 -0.9772675
vn 0.2418967 0.04452505 -0.9692799
vn 0.1773955 0.04854838 -0.9829414
vn 0.2798503 0.03364838 -0.9594538
vn 0.3429951 0.02919824 -0.9388833
vn 0.3180593 0.0224767 -0.9478044
vn -0.6953869 0.2019197 -0.6896851
vn -0.7192817 0.2065153 -0.6633138
vn -0.7192817 0.2065153 -0.6633138
vn -0.7422504 0.2108451 -0.6360885
vn 0.974167 0.007818218 0.225693
vn 0.975158 0.008439871 0.2213494
vn 0.975158 0.008439871 0.2213494
vn 0.9761293 0.009061354 0.2170014
vn 0.2228879 0.02030418 -0.9746326
vn 0.1649178 -0.001857032 -0.9863056
vn 0.1957733 -0.005338967 -0.9806347
vn 0.1779469 0.0343382 -0.9834409
vn 0.1416229 -0.0002406555 -0.9899206
vn 0.2260805 0.07525237 -0.9711975
vn 0.2314677 -0.0125036 -0.9727622
vn 0.1371033 -0.003163163 -0.9905517
vn 0.324369 -0.01701981 -0.9457775
vn 0.4518962 0.05845036 -0.8901536
vn 0.5949168 -0.001169304 -0.8037865
vn 0.5995944 0.05488557 -0.7984199
vn 0.6379656 -0.01120756 -0.7699834
vn 0.6537811 0.008601421 -0.756635
vn 0.2816081 0.06800957 -0.9571162
vn 0.5094829 0.132302 -0.8502489
vn 0.1284505 -0.02585004 -0.991379
vn 0.06503167 0.01132847 -0.9978189
vn 0.5810872 0.02501935 -0.8134565
vn 0.5069124 0.09887015 -0.8563086
vn 0.2060065 0.02334942 -0.978272
vn 0.2270699 0.06708945 -0.9715649
vn 0.3187481 0.06066541 -0.945896
vn 0.3022604 0.0107367 -0.9531649
vn 0.3669914 0.1251767 -0.9217636
vn 0.6439913 -0.03836924 -0.7640701
vn 0.7515467 -0.03090389 -0.6589556
vn 0.7030659 -0.04145119 -0.7099155
vn 0.9444027 -0.09878367 -0.3136004
vn 0.9182711 -0.07263559 -0.3892327
vn 0.7379032 -0.01301053 -0.6747811
vn 0.7309782 0.002277836 -0.682397
vn 0.6882313 -0.002313166 -0.7254876
vn 0.8033363 -0.03787265 -0.5943202
vn 0.4426059 0.05141148 -0.8952413
vn 0.5667673 -0.002695065 -0.8238735
vn 0.6106035 -0.002683413 -0.7919319
vn 0.5093594 0.001509306 -0.8605525
vn 0.402034 0.0006463137 -0.9156246
vn 0.4335925 0.008212665 -0.9010717
vn 0.5387747 0.05321511 -0.8407675
vn 0.6598571 0.02963682 -0.7508065
vn 0.3964155 -0.05916848 -0.9161626
vn 0.6980015 -0.01267701 -0.715984
vn 0.6886617 -0.08704588 -0.719839
vn 0.6598571 0.02963682 -0.7508065
vn 0.6986243 -0.005487009 -0.7154677
vn 0.6507302 0.05995499 -0.7569383
vn 0.8033363 -0.03787265 -0.5943202
vn 0.4245825 0.1865559 -0.8859609
vn 0.5776039 0.1101074 -0.8088574
vn 0.5664086 0.1292197 -0.8139308
vn 0.5172939 0.1384548 -0.8445338
vn 0.5250681 0.1307405 -0.8409581
vn 0.5615125 0.1015549 -0.8212127
vn 0.5369573 0.1187478 -0.83521
vn 0.5459028 0.1032677 -0.8314601
vn 0.2324051 0.09738216 -0.9677317
vn 0.1507003 0.2106261 -0.965881
vn 0.3295472 0.1667313 -0.9293004
vn 0.1123195 0.137586 -0.9841008
vn 0.5060423 0.1206291 -0.8540316
vn 0.5064509 0.1296383 -0.8524678
vn 0.4979555 0.1378207 -0.8561809
vn 0.4391128 0.3402746 -0.8315005
vn 0.4983655 0.1370751 -0.8560621
vn 0.4883057 0.1301469 -0.8629133
vn 0.4599941 0.1386754 -0.877026
vn 0.4663573 0.1156415 -0.8770051
vn 0.4396486 0.1402774 -0.8871479
vn 0.5238668 0.09468459 -0.8465214
vn 0.5529606 0.1252681 -0.8237369
vn 0.5860786 0.09212537 -0.8049998
vn 0.5866654 0.1141242 -0.8017477
vn 0.6071293 0.09678978 -0.7886861
vn 0.5003704 0.1253457 -0.8566902
vn 0.5003036 0.1209965 -0.8573541
vn 0.5257995 0.06944624 -0.8477689
vn 0.5049565 0.1061295 -0.8565952
vn 0.4924912 0.1160482 -0.8625458
vn 0.6094808 0.05671115 -0.7907699
vn 0.7714854 0.155566 -0.6169356
vn 0.6988718 0.1700851 -0.6947296
vn 0.8583504 -0.4466962 0.2523827
vn 0.9779755 -0.05899997 0.2002074
vn 0.9318796 -0.3127093 0.183884
vn 0.9782531 0.1097785 0.1759818
vn 0.9163852 0.3640576 0.1664341
vn 0.9891706 0.1266564 -0.07415918
vn 0.9020614 0.420096 -0.09901758
vn 0.9163852 0.3640576 0.1664341
vn 0.6937324 0.7156832 0.08082621
vn 0.8750167 0.4626771 0.1423927
vn 0.5197764 0.8534901 0.03724549
vn 0.2862276 0.9576914 -0.03001584
vn 0.2417226 0.9682155 -0.06425702
vn 0.1220051 0.9826428 -0.1397421
vn 0.06084491 0.9735757 -0.2201092
vn -0.07877541 0.9363652 -0.3420742
vn -0.1420585 0.8894462 -0.4344017
vn -0.2094345 0.8521802 -0.4795062
vn -0.1797028 0.8507965 -0.493814
vn -0.2037429 0.7422233 -0.6384304
vn -0.02240833 0.7527378 -0.6579391
vn -0.2804455 0.6187099 -0.7338586
vn 0.6130358 -0.7387565 0.280046
vn 0.8583504 -0.4466962 0.2523827
vn 0.7169639 -0.6453935 0.2634954
vn 0.9318796 -0.3127093 0.183884
vn 0.401114 -0.9039127 0.1484902
vn 0.2394141 -0.9698684 0.04512331
vn 0.03057151 -0.9973922 -0.065378
vn -0.006175995 -0.9964283 -0.0842167
vn -0.09627512 -0.9856896 -0.1383729
vn -0.1564226 -0.9729074 -0.1702445
vn -0.3453518 -0.8853618 -0.3112344
vn -0.4940041 -0.7745766 -0.3949571
vn -0.681271 -0.5251365 -0.5100015
vn -0.5893881 -0.4185922 -0.6909429
vn -0.4759823 0.0150118 -0.8793267
vn -0.2037429 0.7422233 -0.6384304
vn -0.3797651 0.3743549 -0.8459532
vn 0.1986691 0.4027146 -0.8935053
vn -0.2804455 0.6187099 -0.7338586
vn -0.3797651 0.3743549 -0.8459532
vn -0.4409712 0.408716 -0.7990593
vn -0.03304476 0.08023569 -0.9962281
vn -0.2697719 0.01576779 -0.9627951
vn -0.3797651 0.3743549 -0.8459532
vn 0.1507003 0.2106261 -0.965881
vn -0.1338011 0.3513978 -0.9266158
vn -0.1464988 0.0574875 -0.9875391
vn 0.2593597 -0.0007023194 -0.9657806
vn -0.3467261 -0.3325145 -0.8770491
vn -0.03304476 0.08023569 -0.9962281
vn 0.4438848 0.07551581 -0.8928963
vn 0.4557475 0.07180262 -0.8872083
vn 0.4556011 0.06026604 -0.8881416
vn 0.4541402 0.05923591 -0.8889588
vn 0.4310745 0.07488737 -0.8992034
vn 0.4355305 0.06259896 -0.8979948
vn 0.444066 0.05871939 -0.894068
vn 0.4691495 0.05798291 -0.8812132
vn 0.4544491 0.02233369 -0.8904926
vn 0.4225891 0.01438594 -0.9062072
vn 0.4173706 0.0318847 -0.9081768
vn 0.4022839 0.02091241 -0.9152761
vn 0.4759636 0.02959543 -0.8789669
vn 0.4859888 0.05109402 -0.8724702
vn 0.4804364 0.05428542 -0.8753479
vn 0.464175 0.04395742 -0.8846521
vn -0.8385541 0.1298651 -0.5291146
vn -0.8379368 0.1353385 -0.5287206
vn -0.8385555 0.1298656 -0.5291121
vn -0.8372922 0.1408074 -0.5283134
vn -0.8323612 0.1770197 -0.5252038
vn -0.8272882 0.2076257 -0.5220017
vn -0.8214168 0.2380004 -0.5182956
vn -0.8214187 0.2380006 -0.5182924
vn 0.8454456 0.02544733 0.533455
vn 0.8457192 0.001808733 0.5336253
vn 0.8456415 0.01362818 0.5335773
vn 0.8457204 0.001809371 0.5336231
vn 0.8419217 0.09466576 0.5312309
vn 0.8359008 0.1519462 0.5274299
vn 0.8271281 0.2085328 0.5218939
vn 0.8271289 0.208533 0.5218925
vn 0 1 0
vn 0 1 0
vn 0 1 0
vn 0 1 0
vn -0.4447876 -0.2617649 0.8565297
vn -0.4447877 -0.2617653 0.8565295
vn -0.4447877 -0.2617653 0.8565295
vn -0.4447878 -0.2617657 0.8565294
vn 0.8355258 0.3273914 0.4412614
vn 0.8380039 0.3632416 0.4071915
vn 0.8380039 0.3632416 0.4071915
vn 0.8384272 0.398201 0.3721231
vn 0.4418779 0.3843819 -0.8105519
vn 0.4411778 0.3849961 -0.8106419
vn 0.4411778 0.3849961 -0.8106419
vn 0.4404773 0.3856099 -0.8107311
vn -0.7861211 -0.4640749 -0.4082257
vn -0.7861209 -0.464075 -0.4082259
vn -0.7861209 -0.464075 -0.4082259
vn -0.7861207 -0.4640751 -0.4082261
vn 0 1 0
vn 0 1 0
vn 0 1 0
vn 0 1 0
vn -0.4447891 -0.261766 0.8565286
vn -0.4447888 -0.261765 0.8565291
vn -0.4447888 -0.261765 0.8565291
vn -0.4447883 -0.2617641 0.8565297
vn 0.8102029 -0.3997308 0.4287033
vn 0.809675 -0.4003483 0.4291242
vn 0.809675 -0.4003483 0.4291242
vn 0.8091465 -0.4009654 0.4295447
vn 0.4448648 0.3707382 -0.8152598
vn 0.4415268 0.3753337 -0.8149716
vn 0.4415268 0.3753337 -0.8149716
vn 0.4381746 0.379917 -0.814657
vn -0.8739409 -0.1739704 -0.4538299
vn -0.8739409 -0.1739705 -0.45383
vn -0.8739409 -0.1739705 -0.45383
vn -0.8739408 -0.1739705 -0.45383
vn 0.2406411 0.8165981 0.5246516
vn -0.4140249 0.8612087 0.2947932
vn -0.10299 0.9797912 0.1714709
vn -0.07374763 0.8458104 0.5283616
vn -0.01594515 0.8179482 0.575071
vn -0.2953964 0.7088546 0.6405203
vn -0.2953964 0.7088546 0.6405203
vn 0.1032731 0.8128641 0.5732247
vn -0.2935098 0.6071128 0.7384214
vn 0.1289012 0.7650903 0.6308892
vn -0.2935098 0.6071128 0.7384214
vn -0.3072776 0.5960174 0.7418516
vn -0.3506803 0.5335542 0.7696384
vn 0.1289012 0.7650903 0.6308892
vn -0.1692007 0.5487435 0.818689
vn -0.3506803 0.5335542 0.7696384
vn -0.4055223 0.3937261 0.8249432
vn -0.4632102 0.1688571 0.8700135
vn -0.4237401 0.9044011 -0.05002952
vn -0.5398768 0.7642466 -0.3527893
vn -0.1776614 0.8791716 -0.4421468
vn -0.2164949 0.8386078 -0.4998668
vn -0.1537644 0.9802151 -0.1246393
vn -0.5947299 0.7047469 -0.3868181
vn -0.3822144 0.7966134 -0.4683153
vn -0.3732129 0.8442266 -0.3846994
vn -0.6237676 0.6732767 -0.3970045
vn -0.7020439 0.5513382 -0.4507334
vn -0.759287 0.4277247 -0.4904434
vn -0.7713189 0.3818152 -0.5091996
vn -0.1776614 0.8791716 -0.4421468
vn -0.0853929 0.8347422 -0.5439792
vn 0.4146904 0.8237725 -0.3865626
vn 0.431735 0.7085941 -0.5581213
vn 0.4497174 0.8416572 -0.2989438
vn 0.4923032 0.8393304 -0.2305688
vn 0.09864067 0.9745674 -0.2012173
vn 0.2406411 0.8165981 0.5246516
vn 0.1743121 0.9806333 0.08929422
vn 0.2187546 0.8065253 -0.549239
vn 0.439062 0.756173 -0.485208
vn 0.5530716 0.8318193 -0.0467818
vn 0.5530716 0.8318193 -0.0467818
vn 0.06824619 0.859958 -0.5057814
vn 0.4833466 0.8627013 -0.1487365
vn 0.1032731 0.8128641 0.5732247
vn 0.2369799 0.7997838 0.551531
vn 0.439062 0.756173 -0.485208
vn 0.5549757 0.5541761 -0.6203958
vn 0.4400201 0.862789 -0.2489526
vn 0.5409279 0.6400719 -0.5456235
vn 0.5149133 0.5208169 -0.6808921
vn 0.611538 0.3081 -0.728763
vn 0.6280442 0.3790187 -0.6796361
vn 0.5295541 0.4508902 -0.7185196
vn 0.5536447 0.1518604 -0.8187892
vn 0.8111026 0.05142875 -0.5826384
vn 0.6050981 0.5842 -0.5408942
vn 0.9153426 -0.02769249 -0.4017226
vn 0.5094829 0.1409514 -0.848858
vn 0.6749335 0.2039507 -0.7091324
vn 0.4833466 0.8627013 -0.1487365
vn 0.615366 0.4902951 -0.6171997
vn 0.6111866 0.4042536 -0.680463
vn 0.2324472 0.3458364 -0.9090465
vn 0.6718106 0.628626 -0.3917905
vn 0.843621 0.08253736 -0.5305575
vn 0.346033 0.1753284 -0.9216947
vn -0.07049836 0.1663802 -0.9835383
vn 0.4026647 0.6722244 -0.6212692
vn 0.6200696 0.5594369 -0.5500401
vn 0.3124382 0.3054039 -0.8995059
vn 0.4929242 0.8676912 0.06432544
vn 0.5366067 0.8401926 0.0782911
vn 0.3870751 0.8136556 0.4337482
vn 0.2029065 0.8292406 0.5207583
vn 0.477207 0.8758826 -0.07143603
vn 0.6129062 0.7825109 0.1096483
vn 0.2369799 0.7997838 0.551531
vn 0.2369799 0.7997838 0.551531
vn 0.5980817 0.7977725 -0.0765328
vn 0.1606608 0.7576361 0.6325943
vn -0.4810211 -0.01300752 0.8766125
vn -0.4632102 0.1688571 0.8700135
vn -0.48793 -0.03924983 0.8719999
vn -0.4055223 0.3937261 0.8249432
vn 0.5818956 0.09538016 -0.807651
vn 0.5395036 0.4384886 -0.7187932
vn 0.3721147 0.1502519 -0.9159448
vn 0.3124382 0.3054039 -0.8995059
vn 0.06899457 0.1440957 -0.9871557
vn 0.5149652 0.5517781 -0.656012
vn 0.9778994 -0.00349459 -0.2090467
vn 0.6583706 0.5393726 -0.5250004
vn 0.843621 0.08253736 -0.5305575
vn 0.4237469 -0.8175984 0.389835
vn 0.5962742 -0.6642849 0.450758
vn 0.5962742 -0.6642849 0.450758
vn 0.7348243 -0.4731189 0.4859957
vn 0.9807488 -0.1938447 -0.02358053
vn 0.9591657 -0.008552099 -0.2827154
vn 0.9591657 -0.008552099 -0.2827154
vn 0.8512468 0.07467661 -0.5194249
vn 0.6548953 0.5600686 -0.5073808
vn 0.611538 0.3081 -0.728763
vn -0.6005924 0.2023052 -0.7735381
vn -0.730494 0.257044 -0.6326981
vn -0.730494 0.257044 -0.6326981
vn -0.83139 0.3015765 -0.4667357
vn -0.1001079 0.9798802 0.1726654
vn -0.03703299 0.8666558 0.4975303
vn -0.5725399 0.8194147 0.02752495
vn 0.01203888 0.9998627 -0.01138957
vn -0.04140212 0.8414025 -0.5388207
vn -0.2079923 0.8347961 0.5097595
vn -0.4942172 0.6026652 0.6265333
vn -0.4167165 0.8544581 0.3102398
vn -0.5394982 0.522838 0.6599866
vn -0.6038382 0.6781931 0.4188479
vn -0.4086356 0.7336807 0.5428902
vn -0.5394982 0.522838 0.6599866
vn -0.5428802 0.4937722 0.6793159
vn -0.4942172 0.6026652 0.6265333
vn -0.5306766 0.5603019 0.6359592
vn -0.5306766 0.5603019 0.6359592
vn -0.6704906 0.5631855 0.4829746
vn -0.6798762 0.6630085 0.3133498
vn -0.5981601 0.1998221 0.7760642
vn 0.650765 0.7500722 0.1178829
vn 0.6234009 0.7140946 0.3184969
vn 0.5121589 0.8577355 -0.04453078
vn 0.2757116 0.8902718 0.3624903
vn 0.7152125 0.6037902 0.3520062
vn 0.09348015 0.878937 0.4676871
vn 0.01203888 0.9998627 -0.01138957
vn 0.1366305 0.8299622 -0.5408279
vn 0.5063675 0.8028392 -0.314708
vn 0.1282236 0.9746715 -0.1832324
vn 0.2515079 0.6919977 -0.6766704
vn 0.3000963 0.6831703 -0.6657481
vn 0.2515571 0.699473 -0.6689219
vn 0.03344158 0.7732812 -0.6331806
vn -0.1425112 0.7616267 -0.6321514
vn 0.351877 0.523645 -0.7758728
vn -0.02471 0.6224283 -0.7822867
vn 0.6948624 0.6213343 0.3620911
vn 0.7152125 0.6037902 0.3520062
vn 0.6714712 0.6615731 0.3338375
vn 0.7318055 0.5422779 0.4127897
vn 0.7796401 0.4224194 0.4623021
vn 0.8334454 0.2540884 0.4907218
vn 0.8517204 0.1892505 0.4886272
vn -0.7493067 0.6359746 -0.184596
vn -0.5344783 0.6928639 -0.4840171
vn -0.5694107 0.8097311 -0.1417992
vn -0.5682124 0.7653729 -0.3022235
vn -0.742856 0.5369502 -0.3998119
vn -0.7293504 0.5602208 -0.3926838
vn -0.716731 0.5819768 -0.3841872
vn -0.6903719 0.6228619 -0.3680074
vn -0.7130193 0.6873438 -0.1384267
vn -0.3818267 0.772071 -0.5080498
vn -0.2761306 0.7410964 -0.6119869
vn -0.6211346 0.7231569 0.302053
vn -0.5689402 0.4337457 0.6986929
vn -0.5981601 0.1998221 0.7760642
vn -0.5842229 -0.04783356 0.8101825
vn -0.5861063 -0.04199524 0.8091451
vn 0.351877 0.523645 -0.7758728
vn 0.413032 0.3759114 -0.829515
vn 0.4603141 0.1981328 -0.8653637
vn 0.45699 0.2456671 -0.854873
vn -0.7907581 -0.4526521 -0.4120774
vn -0.7295026 -0.5909218 -0.3444381
vn -0.7295026 -0.5909218 -0.3444381
vn -0.6482251 -0.7129731 -0.2673453
vn -0.01493166 0.986948 0.1603457
vn -0.1685118 0.8134643 0.5566682
vn -0.5573153 0.8279434 0.06252563
vn -0.06384367 0.9721762 -0.2253827
vn 0.03536873 0.7916207 -0.6099882
vn -0.3929035 0.7166697 0.5762043
vn -0.6845288 0.6181785 0.386362
vn -0.5148449 0.8394585 0.1739086
vn -0.4719118 0.4999723 0.7261728
vn -0.4719118 0.4999723 0.7261728
vn -0.4724643 0.5063341 0.7213898
vn -0.4651468 0.5285477 0.7101237
vn -0.4737428 0.5852264 0.6580864
vn -0.4737428 0.5852264 0.6580864
vn -0.5212468 0.5148277 0.6806278
vn -0.6200578 0.573382 0.5355011
vn -0.5635344 0.2262503 0.794506
vn -0.6674196 0.573467 0.4750651
vn 0.689959 0.4729796 0.5479478
vn 0.6983195 0.5073842 0.5048873
vn 0.6632574 0.6170791 0.4234419
vn 0.6859774 0.6309772 0.3623572
vn 0.687713 0.4825011 0.5424422
vn 0.7389144 0.5630625 0.3700894
vn 0.66862 0.5363258 0.5150746
vn 0.8446894 0.4830353 0.2306006
vn 0.7337949 0.4425091 0.5154908
vn 0.7487082 0.4177703 0.5146884
vn 0.6782087 0.7139647 0.1740331
vn 0.4241931 0.8155251 0.3936738
vn 0.1770182 0.9250209 0.336156
vn 0.3094157 0.6432266 -0.7003723
vn 0.3264793 0.6266986 -0.7075734
vn 0.2182982 0.747238 -0.6276793
vn 0.5161287 0.7604226 -0.3941682
vn 0.339229 0.6340008 -0.694958
vn 0.4123654 0.6627629 -0.6250599
vn 0.3274809 0.3355713 -0.8832599
vn 0.680106 0.4011077 -0.6136518
vn 0.3296143 0.3772434 -0.8654721
vn 0.3145935 0.5760157 -0.754478
vn 0.07859778 0.7291294 -0.6798475
vn 0.318427 0.5265515 -0.7882561
vn 0.3979352 0.3023129 -0.8661723
vn 0.7035661 0.1293118 -0.6987655
vn 0.3591829 0.3592993 -0.8613314
vn 0.4864874 0.3340819 -0.8072913
vn 0.5939696 0.236538 -0.7689278
vn 0.6352004 0.0258949 -0.7719131
vn 0.8926898 -0.0297992 -0.4496853
vn 0.471576 0.4672849 -0.7478375
vn 0.4465154 0.04387217 -0.8936997
vn 0.03613121 0.8582626 -0.5119373
vn 0.4128663 0.6181308 -0.6689213
vn 0.6635896 0.7335779 -0.1466705
vn 0.7240937 0.5119672 -0.4621449
vn 0.8803176 0.4641328 0.09809066
vn -0.7822878 0.6078084 0.1363624
vn -0.7831579 0.5505853 -0.2889972
vn -0.5573153 0.8279434 0.06252563
vn -0.833674 0.5466026 -0.07882336
vn -0.8631434 0.4040056 -0.302924
vn -0.8313011 0.49555 -0.2517315
vn -0.5430018 0.8327524 -0.1080394
vn -0.5919858 0.6889297 -0.4182447
vn -0.5129372 0.8139198 -0.2728186
vn -0.9610198 0.1791424 -0.210592
vn -0.8999178 0.1626482 -0.4045905
vn -0.8374342 0.4492664 -0.3112291
vn -0.8631434 0.4040056 -0.302924
vn -0.5212468 0.5148277 0.6806278
vn -0.5635344 0.2262503 0.794506
vn -0.5591769 -0.01638213 0.8288864
vn -0.4810957 -0.2894949 0.8274899
vn 0.9948881 -0.1008851 -0.004453235
vn 0.9947178 -0.08082741 0.06327286
vn 0.9947178 -0.08082741 0.06327286
vn 0.9520777 0.2100088 -0.2223612
vn 0.8378722 0.1531645 -0.5239378
vn 0.4864874 0.3340819 -0.8072913
vn 0.7249644 0.4385607 -0.5311225
vn -0.8999178 0.1626482 -0.4045905
vn -0.894244 -0.03648367 -0.4460904
vn -0.8421184 -0.2969778 -0.4501565
vn -0.8539171 -0.2488978 -0.457029
vn 0.8093888 0.2558668 -0.5286037
vn 0.8640897 0.3580262 -0.3537885
vn 0.6977543 0.1292031 -0.7045888
vn 0.6121647 0.2829472 -0.7383734
vn 0.3274809 0.3355713 -0.8832599
vn 0.0463999 0.04660487 -0.9978352
vn 0.2282729 0.4209864 -0.8778736
vn -0.1755576 0.02383194 -0.9841807
vn 0.6977543 0.1292031 -0.7045888
vn 0.8803176 0.4641328 0.09809066
vn 0.680106 0.4011077 -0.6136518
vn -0.9619688 -0.0242084 -0.2720847
vn -0.8493435 0.04589746 -0.5258414
vn -0.8493435 0.04589746 -0.5258414
vn -0.8493435 0.04589746 -0.5258414
vn -0.8493435 0.04589746 -0.5258414
vn -0.6670789 0.1122401 -0.7364835
vn 0.6099138 0.7204591 0.3300663
vn 0.614036 0.7095537 0.3456781
vn 0.6276972 0.7068239 0.3261843
vn 0.5913771 0.729434 0.3438011
vn 0.5959129 0.7320833 0.3300636
vn 0.6125438 0.7252499 0.314329
vn 0.6105904 0.72879 0.3099104
vn -0.5587245 0.7650312 -0.3202409
vn -0.5622821 0.752107 -0.3437645
vn -0.5621209 0.7553528 -0.3368416
vn -0.5394124 0.7759484 -0.3270143
vn -0.520924 0.7851643 -0.334896
vn -0.500039 0.796217 -0.340587
vn -0.5100951 0.7662813 -0.3906609
vn 0.510105 0.1936968 -0.8380182
vn 0.4891638 0.1797047 -0.8534781
vn 0.5675936 0.2317605 -0.7900156
vn 0.4999452 0.1040018 -0.8597898
vn 0.5188918 0.1596796 -0.8397939
vn 0.52635 0.1704724 -0.8330035
vn 0.4977993 0.2166639 -0.8397932
vn 0.5257064 0.228048 -0.8195285
vn 0.5728032 0.1155406 -0.8115091
vn 0.4951419 0.1928542 -0.8471374
vn 0.5391793 0.2320973 -0.8095779
vn 0.5317187 0.2624851 -0.8052185
vn 0.5362648 0.2801136 -0.7962139
vn 0.6566498 0.6774529 0.3314645
vn 0.6442154 0.675848 0.3580725
vn 0.6664283 0.64943 0.3662158
vn 0.6521488 0.6538638 0.3836198
vn 0.6229498 0.6897562 0.369012
vn 0.6292845 0.6961969 0.3454143
vn 0.6403943 0.6987443 0.3188286
vn -0.5678847 0.7575837 -0.3218287
vn -0.55754 0.8006649 -0.2192827
vn -0.5582206 0.7890418 -0.2565208
vn -0.5614641 0.7843835 -0.2636297
vn -0.582312 0.7171881 -0.3828236
vn -0.5937746 0.6930199 -0.4088461
vn -0.6069844 0.6391253 -0.4723228
vn 0.4922241 0.2235977 -0.8412607
vn 0.4389211 0.2031872 -0.8752504
vn 0.449993 0.2012991 -0.8700488
vn 0.4909976 0.2335945 -0.8392586
vn 0.4592076 0.2351745 -0.8566337
vn 0.4349726 0.1499352 -0.8878729
vn 0.4517654 0.1289195 -0.8827727
vn 0.5250379 0.1952307 -0.8283842
vn 0.5558782 0.1945914 -0.8081669
vn 0.5850549 0.1947606 -0.7872605
vn 0.6405071 0.2259986 -0.7339451
vn 0.2259052 0.8095651 0.541822
vn -0.4307707 0.8472784 0.3107346
vn -0.1029933 0.979791 0.1714702
vn -0.08093999 0.8338237 0.5460648
vn -0.3180738 0.5465869 0.7746431
vn -0.2992181 0.6817505 0.6675963
vn -0.2992181 0.6817505 0.6675963
vn -0.09826116 0.6234263 0.7756833
vn -0.2965307 0.5186749 0.8019015
vn 0.03386408 0.7095006 0.7038909
vn -0.2728386 0.5949427 0.7560439
vn -0.1105888 0.6400937 0.760296
vn -0.4042083 0.2679679 0.8745335
vn -0.438287 0.8969302 -0.05848646
vn -0.6048279 0.6990479 -0.3814645
vn -0.1896604 0.8662792 -0.4621572
vn -0.4419566 0.7390906 -0.5083497
vn -0.1537664 0.9802141 -0.1246444
vn -0.6048279 0.6990479 -0.3814645
vn -0.6336232 0.6710552 -0.3849761
vn -0.647799 0.6499493 -0.3973945
vn -0.5529692 0.7583373 -0.3451807
vn -0.5881487 0.7100278 -0.3872229
vn -0.6752768 0.5762256 -0.4603969
vn -0.7374687 0.4507341 -0.5029698
vn -0.7382402 0.4481292 -0.5041643
vn -0.6336232 0.6710552 -0.3849761
vn -0.5881487 0.7100278 -0.3872229
vn -0.170316 0.8397402 -0.5155861
vn -0.1896604 0.8662792 -0.4621572
vn 0.2558381 0.7463763 -0.6143852
vn 0.4381673 0.7991027 -0.4116362
vn 0.5090377 0.8229827 -0.2521509
vn 0.09864063 0.9745666 -0.2012217
vn 0.2259052 0.8095651 0.541822
vn 0.1743122 0.9806336 0.08929244
vn 0.4381673 0.7991027 -0.4116362
vn 0.4807917 0.6221687 -0.6178556
vn 0.5386606 0.5889822 -0.6024488
vn 0.4929788 0.656873 -0.5705171
vn 0.622222 0.6785718 -0.390359
vn 0.4928939 0.6880456 -0.5325871
vn 0.4929788 0.656873 -0.5705171
vn 0.6431637 0.3921946 -0.6576656
vn 0.5336985 0.7589749 -0.3729919
vn 0.3918488 0.4834522 -0.7827698
vn 0.6474034 0.6752217 -0.353475
vn 0.4624294 0.05887806 -0.8846991
vn 0.5648328 0.3180861 -0.7614362
vn 0.3685994 0.1788418 -0.9122226
vn 0.1149036 0.1262583 -0.9853203
vn 0.6056881 0.117555 -0.7869706
vn 0.5737287 0.4655884 -0.673842
vn 0.6414795 0.08486951 -0.7624311
vn 0.6082215 0.5741615 -0.5480924
vn 0.5939899 0.4201537 -0.6860371
vn 0.584196 0.4296598 -0.6885548
vn 0.3797543 0.7306201 -0.5674337
vn 0.5154039 0.5054241 -0.6920299
vn 0.6799706 0.246692 -0.6904948
vn 0.5519215 0.1445993 -0.8212634
vn 0.8937557 -0.002531945 -0.448547
vn 0.7202615 0.4798508 -0.5009655
vn 0.5939899 0.4201537 -0.6860371
vn 0.6431637 0.3921946 -0.6576656
vn 0.7934405 0.04966659 -0.606618
vn 0.5809848 0.1158397 -0.8056288
vn 0.2969626 0.3595703 -0.884603
vn 0.6879759 -0.04179486 -0.7245291
vn 0.4856989 0.8720277 0.06053398
vn 0.7593684 0.6436602 0.09519026
vn 0.3725198 0.8157611 0.4424509
vn 0.6941931 0.4723311 0.5431384
vn 0.3624675 0.5047657 0.7834724
vn 0.6941931 0.4723311 0.5431384
vn 0.7066485 0.4130735 0.574472
vn 0.7205793 0.3556182 0.595232
vn 0.5955132 0.6510112 0.4706893
vn 0.7197881 0.6939483 0.0184643
vn 0.5195944 0.8529796 -0.04947234
vn 0.1699238 0.6774243 0.7156971
vn 0.003333982 0.7544615 0.6563358
vn -0.478404 -0.05662727 0.8763121
vn -0.4042083 0.2679679 0.8745335
vn -0.4446587 0.06962749 0.8929898
vn -0.4446587 0.06962749 0.8929898
vn -0.4042083 0.2679679 0.8745335
vn -0.307772 0.5188376 0.7975488
vn 0.5021619 -0.7287099 0.4656342
vn 0.5825101 -0.6470999 0.4918779
vn 0.5825101 -0.6470999 0.4918779
vn 0.6548168 -0.5565567 0.5113313
vn 0.9858628 -0.1343609 -0.1001081
vn 0.9737718 -0.0764322 -0.2143046
vn 0.8937557 -0.002531945 -0.448547
vn -0.509808 0.1833879 -0.8405145
vn -0.1554165 0.1780381 -0.9716728
vn -0.3478998 0.09859411 -0.9323331
vn -0.6503884 0.2605096 -0.7135332
vn -0.509808 0.1833879 -0.8405145
vn -0.509808 0.1833879 -0.8405145
vn 0 1 0
vn 0 1 0
vn 0 1 0
vn 0 1 0
vn 0 1 0
vn 0 1 0
vn 0.7959535 0.3251781 0.5106047
vn 0.7890289 0.3882614 0.4761159
vn 0.7890289 0.3882614 0.4761159
vn 0.7779881 0.4493192 0.4391433
vn -0.7937889 0.2828541 -0.5384169
vn -0.7939092 0.2569932 -0.551056
vn -0.7939092 0.2569932 -0.551056
vn -0.7933717 0.2309194 -0.5632384
vn 0.5238854 -0.04884754 -0.850387
vn 0.4899648 -0.0561251 -0.8699336
vn 0.4789745 -0.07348889 -0.8747473
vn 0.5069388 -0.1312051 -0.8519379
vn 0.5598365 -0.06544215 -0.8260148
vn 0.6054076 -0.1091277 -0.7883989
vn 0.3085648 0.9075296 0.2849173
vn 0.3099749 0.9061095 0.2878906
vn 0.3099749 0.9061095 0.2878906
vn 0.3113811 0.9046778 0.2908604
vn -0.5170961 0.8127323 -0.268473
vn -0.5098351 0.8222617 -0.2528911
vn -0.5098351 0.8222617 -0.2528911
vn -0.5023771 0.8314734 -0.2372115
g polySurface97_0
f 3/3/3 2/2/2 1/1/1
f 4/4/4 2/2/2 3/3/3
f 4/4/4 5/5/5 2/2/2
f 6/6/6 5/5/5 4/4/4
f 3/3/3 1/1/1 7/7/7
f 7/7/7 1/1/1 8/8/8
f 6/6/6 9/9/9 5/5/5
f 10/10/10 9/9/9 6/6/6
f 7/7/7 11/11/11 3/3/3
f 12/12/12 3/3/3 11/11/11
f 13/13/13 11/11/11 7/7/7
f 6/6/6 14/14/14 10/10/10
f 14/14/14 15/15/15 10/10/10
f 16/16/16 10/10/10 15/15/15
f 9/9/9 17/17/17 5/5/5
f 5/5/5 17/17/17 18/18/18
f 5/5/5 18/18/18 2/2/2
f 2/2/2 18/18/18 19/19/19
f 2/2/2 19/19/19 1/1/1
f 1/1/1 19/19/19 20/20/20
f 1/1/1 20/20/20 8/8/8
f 8/8/8 20/20/20 21/21/21
f 24/24/24 23/23/23 22/22/22
f 25/25/25 23/23/23 24/24/24
f 25/25/25 26/26/26 23/23/23
f 27/27/27 26/26/26 25/25/25
f 30/30/30 29/29/29 28/28/28
f 31/31/31 29/29/29 30/30/30
f 30/30/30 28/28/28 32/32/32
f 32/32/32 28/28/28 33/33/33
f 36/36/36 35/35/35 34/34/34
f 37/37/37 35/35/35 36/36/36
f 38/38/38 35/35/35 37/37/37
f 39/39/39 35/35/35 38/38/38
f 36/36/36 34/34/34 40/40/40
f 40/40/40 34/34/34 41/41/41
f 44/44/44 43/43/43 42/42/42
f 45/45/45 43/43/43 44/44/44
f 45/45/45 46/46/46 43/43/43
f 47/47/47 46/46/46 45/45/45
f 47/47/47 48/48/48 46/46/46
f 46/46/46 48/48/48 49/49/49
f 52/52/52 51/51/51 50/50/50
f 53/53/53 51/51/51 52/52/52
f 53/53/53 54/54/54 51/51/51
f 55/55/55 54/54/54 53/53/53
f 58/58/58 57/57/57 56/56/56
f 59/59/59 57/57/57 58/58/58
f 62/62/62 61/61/61 60/60/60
f 63/63/63 61/61/61 62/62/62
f 66/66/66 65/65/65 64/64/64
f 67/67/67 65/65/65 66/66/66
f 67/67/67 68/68/68 65/65/65
f 69/69/69 68/68/68 67/67/67
f 68/68/68 70/70/70 65/65/65
f 65/65/65 70/70/70 71/71/71
f 66/66/66 64/64/64 72/72/72
f 72/72/72 64/64/64 73/73/73
f 72/72/72 73/73/73 74/74/74
f 74/74/74 73/73/73 75/75/75
f 76/76/76 74/74/74 75/75/75
f 77/77/77 74/74/74 76/76/76
f 64/64/64 78/78/78 73/73/73
f 64/64/64 65/65/65 78/78/78
f 73/73/73 78/78/78 79/79/79
f 73/73/73 79/79/79 75/75/75
f 65/65/65 71/71/71 80/80/80
f 78/78/78 65/65/65 80/80/80
f 80/80/80 71/71/71 81/81/81
f 76/76/76 75/75/75 82/82/82
f 75/75/75 79/79/79 83/83/83
f 82/82/82 75/75/75 83/83/83
f 71/71/71 84/84/84 81/81/81
f 71/71/71 70/70/70 84/84/84
f 81/81/81 84/84/84 85/85/85
f 84/84/84 86/86/86 85/85/85
f 84/84/84 87/87/87 86/86/86
f 70/70/70 87/87/87 84/84/84
f 85/85/85 86/86/86 88/88/88
f 82/82/82 89/89/89 76/76/76
f 76/76/76 89/89/89 90/90/90
f 90/90/90 77/77/77 76/76/76
f 91/91/91 90/90/90 89/89/89
f 92/92/92 90/90/90 91/91/91
f 93/93/93 90/90/90 92/92/92
f 90/90/90 93/93/93 94/94/94
f 95/95/95 90/90/90 94/94/94
f 96/96/96 90/90/90 95/95/95
f 96/96/96 77/77/77 90/90/90
f 97/97/97 93/93/93 92/92/92
f 93/93/93 97/97/97 94/94/94
f 88/88/88 86/86/86 98/98/98
f 98/98/98 86/86/86 99/99/99
f 98/98/98 99/99/99 100/100/100
f 100/100/100 99/99/99 101/101/101
f 100/100/100 101/101/101 102/102/102
f 102/102/102 101/101/101 103/103/103
f 103/103/103 104/104/104 102/102/102
f 105/105/105 104/104/104 103/103/103
f 105/105/105 106/106/106 104/104/104
f 94/94/94 108/108/108 107/107/107
f 108/108/108 109/109/109 107/107/107
f 107/107/107 109/109/109 110/110/110
f 109/109/109 112/112/112 111/111/111
f 115/115/115 114/114/114 113/113/113
f 115/115/115 116/116/116 114/114/114
f 116/116/116 117/117/117 114/114/114
f 114/114/114 117/117/117 118/118/118
f 114/114/114 118/118/118 113/113/113
f 119/119/119 118/118/118 117/117/117
f 118/118/118 119/119/119 120/120/120
f 113/113/113 118/118/118 120/120/120
f 117/117/117 116/116/116 121/121/121
f 119/119/119 117/117/117 122/122/122
f 123/123/123 119/119/119 122/122/122
f 122/122/122 117/117/117 124/124/124
f 124/124/124 116/116/116 125/125/125
f 116/116/116 126/126/126 125/125/125
f 126/126/126 116/116/116 127/127/127
f 127/127/127 116/116/116 128/128/128
f 129/129/129 126/126/126 127/127/127
f 130/130/130 126/126/126 129/129/129
f 131/131/131 130/130/130 129/129/129
f 132/132/132 130/130/130 131/131/131
f 133/133/133 132/132/132 131/131/131
f 134/134/134 132/132/132 133/133/133
f 135/135/135 134/134/134 133/133/133
f 136/136/136 134/134/134 135/135/135
f 137/137/137 136/136/136 135/135/135
f 137/137/137 138/138/138 136/136/136
f 126/126/126 130/130/130 139/139/139
f 125/125/125 126/126/126 139/139/139
f 139/139/139 130/130/130 140/140/140
f 134/134/134 141/141/141 132/132/132
f 141/141/141 142/142/142 132/132/132
f 142/142/142 143/143/143 132/132/132
f 140/140/140 130/130/130 143/143/143
f 132/132/132 143/143/143 130/130/130
f 138/138/138 144/144/144 136/136/136
f 144/144/144 141/141/141 134/134/134
f 136/136/136 144/144/144 134/134/134
f 146/146/146 145/145/145 137/137/137
f 149/149/149 148/148/148 147/147/147
f 150/150/150 148/148/148 149/149/149
f 150/150/150 151/151/151 148/148/148
f 153/153/153 151/151/151 152/152/152
f 156/156/156 155/155/155 154/154/154
f 157/157/157 155/155/155 156/156/156
f 157/157/157 158/158/158 155/155/155
f 159/159/159 158/158/158 157/157/157
f 159/159/159 160/160/160 158/158/158
f 161/161/161 160/160/160 159/159/159
f 161/161/161 162/162/162 160/160/160
f 163/163/163 162/162/162 161/161/161
f 163/163/163 164/164/164 162/162/162
f 165/165/165 164/164/164 163/163/163
f 165/165/165 166/166/166 164/164/164
f 168/168/168 166/166/166 167/167/167
f 171/171/171 170/170/170 169/169/169
f 172/172/172 170/170/170 171/171/171
f 171/171/171 169/169/169 173/173/173
f 173/173/173 169/169/169 174/174/174
f 173/173/173 174/174/174 175/175/175
f 175/175/175 174/174/174 176/176/176
f 175/175/175 176/176/176 177/177/177
f 177/177/177 176/176/176 178/178/178
f 177/177/177 178/178/178 179/179/179
f 179/179/179 178/178/178 180/180/180
f 179/179/179 180/180/180 181/181/181
f 181/181/181 180/180/180 182/182/182
f 181/181/181 182/182/182 183/183/183
f 186/186/186 185/185/185 184/184/184
f 189/189/189 188/188/188 187/187/187
f 191/191/191 188/188/188 190/190/190
f 194/194/194 193/193/193 192/192/192
f 193/193/193 195/195/195 192/192/192
f 198/198/198 197/197/197 196/196/196
f 201/201/201 200/200/200 199/199/199
f 202/202/202 200/200/200 201/201/201
f 200/200/200 203/203/203 199/199/199
f 199/199/199 203/203/203 204/204/204
f 203/203/203 205/205/205 204/204/204
f 204/204/204 205/205/205 206/206/206
f 209/209/209 208/208/208 207/207/207
f 210/210/210 208/208/208 209/209/209
f 208/208/208 211/211/211 207/207/207
f 207/207/207 211/211/211 212/212/212
f 211/211/211 213/213/213 212/212/212
f 212/212/212 213/213/213 214/214/214
f 217/217/217 216/216/216 215/215/215
f 218/218/218 216/216/216 217/217/217
f 218/218/218 219/219/219 216/216/216
f 220/220/220 219/219/219 218/218/218
f 220/220/220 221/221/221 219/219/219
f 222/222/222 221/221/221 220/220/220
f 225/225/225 224/224/224 223/223/223
f 226/226/226 224/224/224 225/225/225
f 225/225/225 223/223/223 227/227/227
f 227/227/227 223/223/223 228/228/228
f 227/227/227 228/228/228 229/229/229
f 229/229/229 228/228/228 230/230/230
f 233/233/233 232/232/232 231/231/231
f 234/234/234 232/232/232 233/233/233
f 237/237/237 236/236/236 235/235/235
f 238/238/238 236/236/236 237/237/237
f 241/241/241 240/240/240 239/239/239
f 242/242/242 240/240/240 241/241/241
f 245/245/245 244/244/244 243/243/243
f 246/246/246 244/244/244 245/245/245
f 249/249/249 248/248/248 247/247/247
f 250/250/250 248/248/248 249/249/249
f 253/253/253 252/252/252 251/251/251
f 254/254/254 252/252/252 253/253/253
f 257/257/257 256/256/256 255/255/255
f 258/258/258 256/256/256 257/257/257
f 261/261/261 260/260/260 259/259/259
f 262/262/262 260/260/260 261/261/261
f 265/265/265 264/264/264 263/263/263
f 266/266/266 264/264/264 265/265/265
f 269/269/269 268/268/268 267/267/267
f 270/270/270 268/268/268 269/269/269
f 273/273/273 272/272/272 271/271/271
f 276/276/276 275/275/275 274/274/274
f 279/279/279 278/278/278 277/277/277
f 279/279/279 280/280/280 278/278/278
f 283/283/283 282/282/282 281/281/281
f 286/286/286 285/285/285 284/284/284
f 288/288/288 287/287/287 286/286/286
f 291/291/291 290/290/290 289/289/289
f 292/292/292 290/290/290 291/291/291
f 291/291/291 289/289/289 293/293/293
f 295/295/295 294/294/294 290/290/290
f 296/296/296 294/294/294 295/295/295
f 296/296/296 297/297/297 294/294/294
f 298/298/298 297/297/297 296/296/296
f 297/297/297 298/298/298 299/299/299
f 299/299/299 298/298/298 300/300/300
f 303/303/303 302/302/302 301/301/301
f 305/305/305 304/304/304 303/303/303
f 307/307/307 306/306/306 301/301/301
f 309/309/309 308/308/308 306/306/306
f 312/312/312 311/311/311 310/310/310
f 315/315/315 314/314/314 313/313/313
f 316/316/316 315/315/315 313/313/313
f 317/317/317 315/315/315 316/316/316
f 320/320/320 319/319/319 318/318/318
f 319/319/319 321/321/321 318/318/318
f 321/321/321 322/322/322 318/318/318
f 323/323/323 322/322/322 321/321/321
f 324/324/324 321/321/321 319/319/319
f 325/325/325 321/321/321 324/324/324
f 325/325/325 324/324/324 326/326/326
f 326/326/326 324/324/324 327/327/327
f 324/324/324 328/328/328 327/327/327
f 327/327/327 328/328/328 329/329/329
f 322/322/322 323/323/323 330/330/330
f 330/330/330 323/323/323 331/331/331
f 333/333/333 319/319/319 332/332/332
f 334/334/334 319/319/319 333/333/333
f 335/335/335 319/319/319 334/334/334
f 336/336/336 333/333/333 332/332/332
f 334/334/334 333/333/333 337/337/337
f 338/338/338 334/334/334 337/337/337
f 335/335/335 334/334/334 338/338/338
f 339/339/339 335/335/335 338/338/338
f 340/340/340 335/335/335 339/339/339
f 342/342/342 333/333/333 341/341/341
f 345/345/345 344/344/344 343/343/343
f 346/346/346 344/344/344 345/345/345
f 349/349/349 348/348/348 347/347/347
f 352/352/352 351/351/351 350/350/350
f 355/355/355 354/354/354 353/353/353
f 356/356/356 354/354/354 355/355/355
f 359/359/359 358/358/358 357/357/357
f 360/360/360 358/358/358 359/359/359
f 361/361/361 360/360/360 359/359/359
f 362/362/362 360/360/360 361/361/361
f 365/365/365 364/364/364 363/363/363
f 368/368/368 367/367/367 366/366/366
f 369/369/369 367/367/367 368/368/368
f 372/372/372 371/371/371 370/370/370
f 375/375/375 374/374/374 373/373/373
f 378/378/378 377/377/377 376/376/376
f 379/379/379 377/377/377 378/378/378
f 382/382/382 381/381/381 380/380/380
f 384/384/384 382/382/382 383/383/383
f 387/387/387 386/386/386 385/385/385
f 390/390/390 389/389/389 388/388/388
f 393/393/393 392/392/392 391/391/391
f 391/391/391 392/392/392 394/394/394
f 397/397/397 396/396/396 395/395/395
f 395/395/395 396/396/396 398/398/398
f 401/401/401 400/400/400 399/399/399
f 402/402/402 400/400/400 401/401/401
f 400/400/400 403/403/403 399/399/399
f 405/405/405 404/404/404 401/401/401
f 401/401/401 407/407/407 406/406/406
f 401/401/401 406/406/406 408/408/408
f 406/406/406 410/410/410 409/409/409
f 410/410/410 411/411/411 409/409/409
f 413/413/413 411/411/411 412/412/412
f 411/411/411 414/414/414 412/412/412
f 412/412/412 414/414/414 415/415/415
f 418/418/418 417/417/417 416/416/416
f 417/417/417 419/419/419 416/416/416
f 416/416/416 419/419/419 420/420/420
f 421/421/421 420/420/420 419/419/419
f 422/422/422 420/420/420 421/421/421
f 425/425/425 424/424/424 423/423/423
f 426/426/426 424/424/424 425/425/425
f 429/429/429 428/428/428 427/427/427
f 427/427/427 428/428/428 430/430/430
f 433/433/433 432/432/432 431/431/431
f 431/431/431 432/432/432 434/434/434
f 437/437/437 436/436/436 435/435/435
f 438/438/438 436/436/436 437/437/437
f 441/441/441 440/440/440 439/439/439
f 442/442/442 440/440/440 441/441/441
f 445/445/445 444/444/444 443/443/443
f 446/446/446 444/444/444 445/445/445
f 449/449/449 448/448/448 447/447/447
f 451/451/451 449/449/449 450/450/450
f 454/454/454 453/453/453 452/452/452
f 452/452/452 453/453/453 455/455/455
f 458/458/458 457/457/457 456/456/456
f 456/456/456 457/457/457 459/459/459
f 462/462/462 461/461/461 460/460/460
f 460/460/460 464/464/464 463/463/463
f 467/467/467 466/466/466 465/465/465
f 468/468/468 466/466/466 467/467/467
f 466/466/466 469/469/469 465/465/465
f 465/465/465 469/469/469 470/470/470
f 469/469/469 471/471/471 470/470/470
f 470/470/470 471/471/471 472/472/472
f 473/473/473 472/472/472 471/471/471
f 474/474/474 472/472/472 473/473/473
f 477/477/477 476/476/476 475/475/475
f 480/480/480 479/479/479 478/478/478
f 481/481/481 479/479/479 480/480/480
f 479/479/479 482/482/482 478/478/478
f 483/483/483 482/482/482 479/479/479
f 482/482/482 483/483/483 484/484/484
f 485/485/485 484/484/484 483/483/483
f 486/486/486 482/482/482 484/484/484
f 486/486/486 487/487/487 482/482/482
f 487/487/487 488/488/488 482/482/482
f 489/489/489 487/487/487 486/486/486
f 489/489/489 486/486/486 490/490/490
f 490/490/490 486/486/486 491/491/491
f 489/489/489 492/492/492 487/487/487
f 487/487/487 492/492/492 493/493/493
f 494/494/494 493/493/493 492/492/492
f 495/495/495 490/490/490 491/491/491
f 495/495/495 491/491/491 496/496/496
f 496/496/496 491/491/491 497/497/497
f 498/498/498 490/490/490 495/495/495
f 500/500/500 480/480/480 499/499/499
f 503/503/503 502/502/502 501/501/501
f 506/506/506 505/505/505 504/504/504
f 504/504/504 508/508/508 507/507/507
f 505/505/505 508/508/508 509/509/509
f 512/512/512 511/511/511 510/510/510
f 515/515/515 514/514/514 513/513/513
f 516/516/516 514/514/514 515/515/515
f 519/519/519 518/518/518 517/517/517
f 520/520/520 518/518/518 519/519/519
f 523/523/523 522/522/522 521/521/521
f 524/524/524 522/522/522 523/523/523
f 527/527/527 526/526/526 525/525/525
f 530/530/530 529/529/529 528/528/528
f 531/531/531 529/529/529 530/530/530
f 534/534/534 533/533/533 532/532/532
f 534/534/534 536/536/536 535/535/535
f 537/537/537 536/536/536 534/534/534
f 537/537/537 538/538/538 536/536/536
f 539/539/539 538/538/538 537/537/537
f 542/542/542 541/541/541 540/540/540
f 545/545/545 544/544/544 543/543/543
f 548/548/548 547/547/547 546/546/546
f 551/551/551 550/550/550 549/549/549
f 550/550/550 552/552/552 549/549/549
f 549/549/549 552/552/552 553/553/553
f 551/551/551 549/549/549 554/554/554
f 554/554/554 549/549/549 555/555/555
f 558/558/558 557/557/557 556/556/556
f 559/559/559 557/557/557 558/558/558
f 560/560/560 559/559/559 558/558/558
f 560/560/560 561/561/561 559/559/559
f 562/562/562 561/561/561 560/560/560
f 565/565/565 564/564/564 563/563/563
f 566/566/566 564/564/564 565/565/565
f 564/564/564 567/567/567 563/563/563
f 564/564/564 568/568/568 567/567/567
f 569/569/569 568/568/568 564/564/564
f 563/563/563 567/567/567 570/570/570
f 565/565/565 563/563/563 571/571/571
f 571/571/571 563/563/563 572/572/572
f 563/563/563 570/570/570 572/572/572
f 572/572/572 570/570/570 573/573/573
f 574/574/574 572/572/572 573/573/573
f 575/575/575 572/572/572 574/574/574
f 578/578/578 577/577/577 576/576/576
f 579/579/579 577/577/577 578/578/578
f 579/579/579 580/580/580 577/577/577
f 580/580/580 581/581/581 577/577/577
f 577/577/577 581/581/581 582/582/582
f 585/585/585 584/584/584 583/583/583
f 586/586/586 584/584/584 585/585/585
f 587/587/587 586/586/586 585/585/585
f 587/587/587 588/588/588 586/586/586
f 589/589/589 588/588/588 587/587/587
f 592/592/592 591/591/591 590/590/590
f 593/593/593 592/592/592 590/590/590
f 594/594/594 592/592/592 593/593/593
f 592/592/592 595/595/595 591/591/591
f 596/596/596 595/595/595 592/592/592
f 593/593/593 590/590/590 597/597/597
f 597/597/597 590/590/590 598/598/598
f 597/597/597 598/598/598 599/599/599
f 599/599/599 598/598/598 600/600/600
f 603/603/603 602/602/602 601/601/601
f 606/606/606 605/605/605 604/604/604
f 609/609/609 608/608/608 607/607/607
f 609/609/609 610/610/610 608/608/608
f 611/611/611 610/610/610 609/609/609
f 611/611/611 612/612/612 610/610/610
f 613/613/613 612/612/612 611/611/611
f 616/616/616 615/615/615 614/614/614
f 617/617/617 615/615/615 616/616/616
f 616/616/616 614/614/614 618/618/618
f 621/621/621 620/620/620 619/619/619
f 622/622/622 620/620/620 621/621/621
f 624/624/624 623/623/623 622/622/622
f 623/623/623 624/624/624 625/625/625
f 625/625/625 624/624/624 626/626/626
f 629/629/629 628/628/628 627/627/627
f 632/632/632 631/631/631 630/630/630
f 634/634/634 633/633/633 630/630/630
f 636/636/636 635/635/635 633/633/633
f 639/639/639 638/638/638 637/637/637
f 641/641/641 640/640/640 638/638/638
f 642/642/642 640/640/640 641/641/641
f 645/645/645 644/644/644 643/643/643
f 646/646/646 644/644/644 645/645/645
f 647/647/647 646/646/646 645/645/645
f 644/644/644 646/646/646 648/648/648
f 649/649/649 646/646/646 647/647/647
f 646/646/646 649/649/649 650/650/650
f 651/651/651 646/646/646 650/650/650
f 650/650/650 649/649/649 652/652/652
f 649/649/649 653/653/653 652/652/652
f 652/652/652 653/653/653 654/654/654
f 643/643/643 656/656/656 655/655/655
f 657/657/657 655/655/655 656/656/656
f 655/655/655 659/659/659 658/658/658
f 660/660/660 659/659/659 655/655/655
f 659/659/659 660/660/660 661/661/661
f 661/661/661 660/660/660 662/662/662
f 660/660/660 663/663/663 662/662/662
f 665/665/665 664/664/664 658/658/658
f 664/664/664 665/665/665 666/666/666
f 667/667/667 664/664/664 666/666/666
f 668/668/668 664/664/664 667/667/667
f 666/666/666 665/665/665 669/669/669
f 672/672/672 671/671/671 670/670/670
f 674/674/674 673/673/673 672/672/672
f 677/677/677 676/676/676 675/675/675
f 678/678/678 676/676/676 677/677/677
f 681/681/681 680/680/680 679/679/679
f 682/682/682 680/680/680 681/681/681
f 685/685/685 684/684/684 683/683/683
f 688/688/688 687/687/687 686/686/686
f 691/691/691 690/690/690 689/689/689
f 692/692/692 690/690/690 691/691/691
f 695/695/695 694/694/694 693/693/693
f 698/698/698 697/697/697 696/696/696
f 701/701/701 700/700/700 699/699/699
f 704/704/704 703/703/703 702/702/702
f 705/705/705 703/703/703 704/704/704
f 705/705/705 706/706/706 703/703/703
f 707/707/707 706/706/706 705/705/705
f 710/710/710 709/709/709 708/708/708
f 711/711/711 709/709/709 710/710/710
f 714/714/714 713/713/713 712/712/712
f 715/715/715 713/713/713 714/714/714
f 718/718/718 717/717/717 716/716/716
f 719/719/719 717/717/717 718/718/718
f 717/717/717 720/720/720 716/716/716
f 716/716/716 720/720/720 721/721/721
f 724/724/724 723/723/723 722/722/722
f 725/725/725 723/723/723 724/724/724
f 728/728/728 727/727/727 726/726/726
f 729/729/729 727/727/727 728/728/728
