g Pump_BottomPipe
v 1166.479 288.6526 -978.9341
v 1164.217 287.8981 -978.8362
v 1165.822 290.2737 -993.0415
v 1163.414 289.1432 -992.8646
v 1164.217 287.8981 -978.8362
v 1166.479 288.6526 -978.9341
v 1165.304 287.3361 -978.581
v 1167.566 288.0905 -978.6784
v 1168.759 285.5196 -978.3002
v 1171.021 286.2745 -978.3975
v 1165.822 290.2737 -993.0415
v 1163.414 289.1432 -992.8646
v 1166.538 289.8988 -993.5984
v 1164.129 288.7686 -993.4217
v 1166.538 289.8988 -993.5984
v 1164.129 288.7686 -993.4217
v 1170.606 287.6057 -993.7567
v 1168.196 286.4759 -993.5797
v 1165.822 290.2737 -993.0415
v 1165.068 289.9879 -977.0449
v 1166.479 288.6526 -978.9341
v 1164.274 291.335 -993.8491
v 1165.068 289.9879 -977.0449
v 1166.538 289.8988 -993.5984
v 1165.826 290.8944 -995.585
v 1170.606 287.6057 -993.7567
v 1170.579 287.6567 -995.9207
v 1164.274 291.335 -993.8491
v 1162.806 289.2333 -976.9471
v 1165.068 289.9879 -977.0449
v 1161.825 290.1052 -993.6726
v 1164.341 288.7267 -975.8957
v 1165.068 289.9879 -977.0449
v 1166.603 289.4814 -975.993
v 1168.475 286.5785 -974.8777
v 1170.737 287.3329 -974.9755
v 1165.304 287.3361 -978.581
v 1162.806 289.2333 -976.9471
v 1164.217 287.8981 -978.8362
v 1164.341 288.7267 -975.8957
v 1168.759 285.5196 -978.3002
v 1168.475 286.5785 -974.8777
v 1161.825 290.1052 -993.6726
v 1163.414 289.1432 -992.8646
v 1163.416 289.7643 -995.4082
v 1164.129 288.7686 -993.4217
v 1168.17 286.5265 -995.744
v 1162.806 289.2333 -976.9471
v 1164.217 287.8981 -978.8362
v 1168.17 286.5265 -995.744
v 1168.196 286.4759 -993.5797
v 1165.068 289.9879 -977.0449
v 1166.603 289.4814 -975.993
v 1166.479 288.6526 -978.9341
v 1167.566 288.0905 -978.6784
v 1170.737 287.3329 -974.9755
v 1171.021 286.2745 -978.3975
v 1165.826 290.8944 -995.585
v 1161.825 290.1052 -993.6726
v 1164.274 291.335 -993.8491
v 1163.416 289.7643 -995.4082
v 1170.579 287.6567 -995.9207
v 1163.416 289.7643 -995.4082
v 1165.826 290.8944 -995.585
v 1168.17 286.5265 -995.744
v 1168.196 286.4759 -993.5797
v 1170.579 287.6567 -995.9207
v 1170.606 287.6057 -993.7567
v 1168.17 286.5265 -995.744
v 1207.304 285.4917 -969.374
v 1200.954 287.3738 -971.2993
v 1207.232 285.5213 -970.4689
v 1200.894 287.4081 -972.3918
v 1191.594 290.2256 -971.3524
v 1191.475 290.2697 -972.4865
v 1183.472 289.9995 -971.1002
v 1183.349 290.0475 -972.2372
v 1176.174 289.2935 -969.0419
v 1176.032 289.3549 -970.1808
v 1168.17 286.0063 -964.5188
v 1168.061 286.0961 -965.7207
v 1200.762 284.9745 -967.5075
v 1206.069 283.3174 -966.635
v 1192.019 287.85 -968.0505
v 1169.723 283.963 -962.5004
v 1177.335 286.901 -965.6599
v 1184.363 287.4115 -967.009
v 1170.141 283.4131 -961.9572
v 1177.646 286.2574 -964.75
v 1184.603 286.7152 -965.9084
v 1192.133 287.2109 -967.162
v 1200.709 284.3291 -966.4877
v 1205.737 282.7323 -965.8984
v 1208.891 280.8017 -966.1711
v 1210.679 282.8568 -968.3498
v 1210.6 282.8836 -969.4468
v 1208.409 280.2487 -965.5851
v 1210.225 283.0114 -974.6678
v 1206.888 285.6619 -975.6942
v 1205.997 286.0258 -989.2229
v 1199.965 287.9459 -989.4879
v 1205.057 286.4097 -1003.492
v 1198.984 288.5132 -1007.52
v 1189.601 290.9597 -990.2354
v 1187.623 291.6874 -1008.956
v 1181.432 290.7996 -990.0325
v 1179.41 291.5928 -1008.802
v 1173.824 290.3179 -988.0019
v 1171.495 291.3337 -1006.799
v 1166.344 287.5032 -984.5292
v 1164.535 288.9874 -1004.367
v 1198.933 288.543 -1008.466
v 1204.85 286.4943 -1006.639
v 1187.52 291.726 -1009.939
v 1179.304 291.6345 -1009.787
v 1171.372 291.3871 -1007.785
v 1164.439 289.0653 -1005.408
v 1204.913 286.4688 -1005.69
v 1208.064 283.7472 -1004.717
v 1207.995 283.7706 -1005.667
v 1208.221 283.6937 -1002.528
v 1207.609 286.4929 -1003.043
v 1208.595 286.1265 -988.7571
v 1209.97 283.9739 -1002.622
v 1210.998 283.6238 -988.3265
v 1209.53 285.7791 -975.2123
v 1211.974 283.2919 -974.7726
v 1169.723 283.963 -962.5004
v 1169.603 284.0577 -963.7255
v 1168.17 286.0063 -964.5188
v 1168.061 286.0961 -965.7207
v 1170.018 283.5094 -963.189
v 1170.141 283.4131 -961.9572
v 1167.726 285.5401 -982.9048
v 1168.098 285.012 -982.468
v 1165.747 287.1037 -1003.134
v 1164.535 288.9874 -1004.367
v 1166.344 287.5032 -984.5292
v 1166.073 286.5968 -1002.802
v 1165.643 287.1856 -1004.196
v 1164.439 289.0653 -1005.408
v 1165.966 286.68 -1003.869
v 1210.6 282.8836 -969.4468
v 1208.891 280.8017 -966.1711
v 1210.679 282.8568 -968.3498
v 1208.851 280.8381 -967.3016
v 1208.409 280.2487 -965.5851
v 1208.38 280.2877 -966.7249
v 1208.663 281.0105 -972.6661
v 1210.225 283.0114 -974.6678
v 1208.24 280.4765 -972.2531
v 1207.876 280.9643 -986.5359
v 1208.173 281.4605 -986.657
v 1207.493 281.4787 -1001.601
v 1207.656 281.9352 -1001.414
v 1207.447 281.5395 -1003.378
v 1207.577 282.0075 -1003.662
v 1207.423 281.573 -1004.366
v 1207.543 282.039 -1004.641
v 1208.064 283.7472 -1004.717
v 1207.995 283.7706 -1005.667
v 1208.221 283.6937 -1002.528
v 1211.974 283.2919 -974.7726
v 1210.998 283.6238 -988.3265
v 1207.656 281.9352 -1001.414
v 1209.97 283.9739 -1002.622
v 1210.225 283.0114 -974.6678
v 1206.888 285.6619 -975.6942
v 1211.974 283.2919 -974.7726
v 1209.53 285.7791 -975.2123
v 1208.663 281.0105 -972.6661
v 1210.225 283.0114 -974.6678
v 1211.974 283.2919 -974.7726
v 1198.933 288.543 -1008.466
v 1204.326 284.7021 -1005.451
v 1204.85 286.4943 -1006.639
v 1198.273 286.6368 -1006.973
v 1187.52 291.726 -1009.939
v 1187.543 289.7455 -1008.485
v 1179.304 291.6345 -1009.787
v 1179.727 289.5923 -1008.23
v 1171.372 291.3871 -1007.785
v 1172.378 289.4728 -1006.568
v 1164.439 289.0653 -1005.408
v 1165.643 287.1856 -1004.196
v 1207.543 282.039 -1004.641
v 1207.995 283.7706 -1005.667
v 1198.096 286.1241 -1006.571
v 1187.549 289.2127 -1008.094
v 1179.842 289.0427 -1007.811
v 1172.647 288.9579 -1006.24
v 1165.966 286.68 -1003.869
v 1204.186 284.22 -1005.131
v 1207.423 281.573 -1004.366
v 1204.186 284.22 -1005.131
v 1207.423 281.573 -1004.366
v 1204.326 284.7021 -1005.451
v 1207.656 281.9352 -1001.414
v 1209.97 283.9739 -1002.622
v 1208.221 283.6937 -1002.528
v 1207.609 286.4929 -1003.043
v 1205.057 286.4097 -1003.492
v 1200.632 284.382 -967.6653
v 1200.709 284.3291 -966.4877
v 1205.691 282.7761 -967.0511
v 1205.737 282.7323 -965.8984
v 1192.133 287.2109 -967.162
v 1191.999 287.2697 -968.365
v 1184.603 286.7152 -965.9084
v 1184.463 286.7836 -967.14
v 1177.646 286.2574 -964.75
v 1177.499 286.3369 -965.9692
v 1170.141 283.4131 -961.9572
v 1170.018 283.5094 -963.189
v 1208.38 280.2877 -966.7249
v 1208.409 280.2487 -965.5851
v 1205.465 282.9928 -972.7646
v 1208.24 280.4765 -972.2531
v 1200.34 284.5827 -972.1523
v 1191.682 287.4078 -971.1879
v 1184.267 286.8793 -968.8607
v 1177.41 286.3847 -966.7053
v 1190.007 288.1394 -986.1476
v 1199.402 285.227 -986.538
v 1188.24 288.9109 -1001.926
v 1198.413 285.9064 -1001.711
v 1187.666 289.1618 -1007.052
v 1179.962 288.9836 -1006.744
v 1180.479 288.7314 -1002.204
v 1172.775 288.889 -1005.184
v 1173.103 288.7118 -1002.46
v 1166.073 286.5968 -1002.802
v 1198.162 286.0785 -1005.55
v 1204.325 284.0858 -1001.59
v 1204.224 284.1821 -1004.132
v 1207.493 281.4787 -1001.601
v 1207.447 281.5395 -1003.378
v 1207.423 281.573 -1004.366
v 1204.186 284.22 -1005.131
v 1165.966 286.68 -1003.869
v 1172.647 288.9579 -1006.24
v 1179.842 289.0427 -1007.811
v 1187.549 289.2127 -1008.094
v 1198.096 286.1241 -1006.571
v 1204.186 284.22 -1005.131
v 1207.876 280.9643 -986.5359
v 1204.91 283.5247 -986.7935
v 1182.423 287.7807 -985.0881
v 1175.314 287.5172 -984.1065
v 1168.098 285.012 -982.468
v 1316.218 244.384 -913.038
v 1310.985 228.2189 -907.4245
v 1332.951 242.5248 -915.3495
v 1326.52 226.8683 -910.1349
v 1310.594 217.4765 -891.4266
v 1326.902 215.3368 -894.3929
v 1315.275 218.6107 -874.4161
v 1333.871 215.0419 -877.3461
v 1320.923 228.5204 -866.649
v 1340.762 223.3701 -872.2943
v 1325.402 239.3579 -865.7675
v 1346.643 232.4831 -870.8171
v 1302.815 228.9291 -905.9991
v 1307.419 245.3617 -911.8224
v 1314.231 242.9732 -863.1119
v 1310.49 231.2288 -863.6802
v 1305.495 220.4874 -872.8753
v 1302.018 218.6018 -889.8667
v 1292.883 229.7927 -904.2662
v 1291.591 219.9699 -887.9702
v 1292.883 229.7927 -904.2662
v 1293.605 222.7693 -871.0019
v 1291.591 219.9699 -887.9702
v 1297.806 234.5219 -860.0707
v 1293.605 222.7693 -871.0019
v 1293.937 235.9229 -856.8729
v 1296.899 249.8551 -855.7599
v 1300.649 247.3689 -859.8831
v 1300.649 247.3689 -859.8831
v 1289.154 219.0907 -866.5934
v 1293.605 222.7693 -871.0019
v 1342.425 253.3794 -906.9833
v 1316.218 244.384 -913.038
v 1332.951 242.5248 -915.3495
v 1323.232 256.2911 -904.9793
v 1345.541 253.3831 -899.3568
v 1325.325 256.7688 -897.369
v 1326.657 257.0413 -892.528
v 1347.522 253.3573 -894.5054
v 1328.746 260.8462 -882.0692
v 1350.224 256.8809 -884.0368
v 1314.694 258.5493 -896.3237
v 1313.138 257.8223 -903.9254
v 1307.419 245.3617 -911.8224
v 1315.684 258.9786 -891.4882
v 1317.452 262.9315 -881.0344
v 1302.343 261.3341 -890.2239
v 1301.768 260.714 -895.0527
v 1298.903 266.1584 -896.6801
v 1298.028 264.7665 -906.1008
v 1300.866 259.6841 -902.644
v 1299.463 266.9997 -890.6871
v 1303.719 265.4669 -879.7764
v 1300.822 271.3409 -879.1433
v 1296.72 246.5504 -910.3444
v 1300.866 259.6841 -902.644
v 1300.866 259.6841 -902.644
v 1302.664 257.8599 -867.7825
v 1303.719 265.4669 -879.7764
v 1299.27 261.5457 -863.1511
v 1300.649 247.3689 -859.8831
v 1296.899 249.8551 -855.7599
v 1314.231 242.9732 -863.1119
v 1316.361 254.6154 -870.1298
v 1325.402 239.3579 -865.7675
v 1327.626 251.9469 -872.0604
v 1346.643 232.4831 -870.8171
v 1349.048 246.8727 -875.7315
v 1328.746 260.8462 -882.0692
v 1350.224 256.8809 -884.0368
v 1317.452 262.9315 -881.0344
v 1317.452 262.9315 -881.0344
v 1303.719 265.4669 -879.7764
v 1317.452 262.9315 -881.0344
v 1298.028 264.7665 -906.1008
v 1293.469 248.2079 -915.5883
v 1300.866 259.6841 -902.644
v 1300.866 259.6841 -902.644
v 1296.72 246.5504 -910.3444
v 1291.591 219.9699 -887.9702
v 1289.154 219.0907 -866.5934
v 1293.605 222.7693 -871.0019
v 1287.204 215.2729 -887.652
v 1292.883 229.7927 -904.2662
v 1291.591 219.9699 -887.9702
v 1288.991 227.2797 -907.9465
v 1296.72 246.5504 -910.3444
v 1288.991 227.2797 -907.9465
v 1292.883 229.7927 -904.2662
v 1293.469 248.2079 -915.5883
v 1299.463 266.9997 -890.6871
v 1300.822 271.3409 -879.1433
v 1293.827 262.8378 -889.4169
v 1293.517 262.0959 -894.2412
v 1275.679 264.8991 -894.0749
v 1275.972 264.4023 -898.8898
v 1276.43 262.8346 -906.4592
v 1293.031 260.8727 -901.8258
v 1275.83 267.1773 -886.5305
v 1294.954 267.0854 -878.9733
v 1294.954 267.0854 -878.9733
v 1256.782 267.0456 -898.9254
v 1257.702 266.8039 -903.7303
v 1235.187 271.403 -911.2649
v 1240.123 270.0884 -919.2636
v 1259.144 264.8775 -911.2841
v 1231.473 271.6651 -905.0742
v 1207.286 276.696 -921.2715
v 1219.536 277.2247 -928.2595
v 1222.258 280.8059 -935.3763
v 1236.852 260.7028 -938.1068
v 1231.113 262.2205 -931.963
v 1243.208 238.8612 -926.5268
v 1231.945 250.5028 -923.6323
v 1202.937 277.4059 -914.3672
v 1204.651 293.1306 -928.6901
v 1231.203 225.3116 -909.2502
v 1198.841 278.0745 -907.8634
v 1192.097 289.9767 -918.2867
v 1204.651 293.1306 -928.6901
v 1213.319 288.0356 -954.2925
v 1226.825 272.9167 -951.9228
v 1236.852 260.7028 -938.1068
v 1184.675 286.9963 -907.3429
v 1166.582 290.8789 -939.4839
v 1184.947 295.3094 -950.2091
v 1204.651 293.1306 -928.6901
v 1213.319 288.0356 -954.2925
v 1158.358 287.2851 -925.4076
v 1181.463 274.3069 -889.56
v 1197.144 268.6432 -892.8832
v 1197.144 268.6432 -892.8832
v 1157.722 271.552 -908.6833
v 1186.511 262.3827 -877.2053
v 1162.853 260.8799 -895.8369
v 1186.511 262.3827 -877.2053
v 1201.626 261.2398 -888.6636
v 1186.511 262.3827 -877.2053
v 1207.934 249.6849 -885.3197
v 1196.109 240.6625 -874.231
v 1275.872 248.4244 -914.2774
v 1293.031 260.8727 -901.8258
v 1289.89 247.3096 -909.4009
v 1261.274 249.5852 -919.3553
v 1248.341 251.4186 -923.769
v 1240.123 270.0884 -919.2636
v 1275.872 248.4244 -914.2774
v 1273.283 234.2859 -907.1398
v 1289.89 247.3096 -909.4009
v 1286.541 230.344 -903.1601
v 1259.477 238.3907 -911.2841
v 1256.407 232.3169 -894.4001
v 1244.639 235.0508 -896.8191
v 1252.233 245.4193 -916.6353
v 1261.274 249.5852 -919.3553
v 1248.341 251.4186 -923.769
v 1237.283 239.3873 -881.1458
v 1251.429 236.3656 -875.4625
v 1228.894 253.4698 -873.9301
v 1250.969 251.7315 -868.9437
v 1231.945 250.5028 -923.6323
v 1231.113 262.2205 -931.963
v 1207.934 249.6849 -885.3197
v 1220.888 243.323 -888.4882
v 1207.934 249.6849 -885.3197
v 1230.107 239.0312 -904.8315
v 1269.072 230.173 -872.5771
v 1270.96 226.4641 -890.5024
v 1269.072 230.173 -872.5771
v 1284.934 220.8434 -886.7593
v 1286.541 230.344 -903.1601
v 1284.934 220.8434 -886.7593
v 1286.541 230.344 -903.1601
v 1288.991 227.2797 -907.9465
v 1287.204 215.2729 -887.652
v 1269.072 230.173 -872.5771
v 1286.014 224.226 -869.806
v 1286.014 224.226 -869.806
v 1289.154 219.0907 -866.5934
v 1284.934 220.8434 -886.7593
v 1286.014 224.226 -869.806
v 1289.89 247.3096 -909.4009
v 1286.541 230.344 -903.1601
v 1293.469 248.2079 -915.5883
v 1288.991 227.2797 -907.9465
v 1298.028 264.7665 -906.1008
v 1293.031 260.8727 -901.8258
v 1269.072 230.173 -872.5771
v 1270.884 243.4623 -867.9069
v 1286.014 224.226 -869.806
v 1286.014 224.226 -869.806
v 1270.884 243.4623 -867.9069
v 1290.009 235.5212 -866.9112
v 1270.884 243.4623 -867.9069
v 1272.442 253.4589 -869.3224
v 1290.009 235.5212 -866.9112
v 1292.606 248.3799 -866.806
v 1273.594 261.7926 -874.1747
v 1294.419 258.1772 -873.5045
v 1275.83 267.1773 -886.5305
v 1255.916 267.2731 -894.3997
v 1251.909 265.5573 -874.8724
v 1227.974 271.9117 -899.2432
v 1224.888 268.2006 -879.9624
v 1251.909 265.5573 -874.8724
v 1251.444 258.7478 -871.9426
v 1251.909 265.5573 -874.8724
v 1224.888 268.2006 -879.9624
v 1226.866 261.0314 -876.9814
v 1250.969 251.7315 -868.9437
v 1228.894 253.4698 -873.9301
v 1201.626 261.2398 -888.6636
v 1207.934 249.6849 -885.3197
v 1197.144 268.6432 -892.8832
v 1224.888 268.2006 -879.9624
v 1197.144 268.6432 -892.8832
v 1198.841 278.0745 -907.8634
v 1294.419 258.1772 -873.5045
v 1275.83 267.1773 -886.5305
v 1294.954 267.0854 -878.9733
v 1294.419 258.1772 -873.5045
v 1294.954 267.0854 -878.9733
v 1299.27 261.5457 -863.1511
v 1296.899 249.8551 -855.7599
v 1292.606 248.3799 -866.806
v 1293.937 235.9229 -856.8729
v 1290.009 235.5212 -866.9112
v 1289.154 219.0907 -866.5934
v 1286.014 224.226 -869.806
v 1290.009 235.5212 -866.9112
v 1289.154 219.0907 -866.5934
v 1240.123 270.0884 -919.2636
v 1231.113 262.2205 -931.963
v 1248.341 251.4186 -923.769
v 1219.536 277.2247 -928.2595
v 1219.536 277.2247 -928.2595
v 1240.123 270.0884 -919.2636
v 1207.934 249.6849 -885.3197
v 1220.888 243.323 -888.4882
v 1196.109 240.6625 -874.231
v 1220.334 228.1498 -882.6908
v 1230.107 239.0312 -904.8315
v 1220.334 228.1498 -882.6908
v 1230.107 239.0312 -904.8315
v 1231.203 225.3116 -909.2502
v 1231.945 250.5028 -923.6323
v 1232.58 237.5749 -948.9853
v 1236.852 260.7028 -938.1068
v 1226.825 272.9167 -951.9228
v 1243.208 238.8612 -926.5268
v 1232.58 237.5749 -948.9853
v 1186.511 262.3827 -877.2053
v 1196.109 240.6625 -874.231
v 1162.853 260.8799 -895.8369
v 1162.853 260.8799 -895.8369
v 1196.109 240.6625 -874.231
v 1175.079 232.039 -895.4514
v 1220.334 228.1498 -882.6908
v 1197.979 224.8111 -906.816
v 1231.203 225.3116 -909.2502
v 1216.023 221.2903 -927.2892
v 1243.208 238.8612 -926.5268
v 1232.58 237.5749 -948.9853
v 1275.872 248.4244 -914.2774
v 1293.031 260.8727 -901.8258
v 1298.903 266.1584 -896.6801
v 1298.028 264.7665 -906.1008
v 1170.411 283.9651 -924.7159
v 1177.42 286.2721 -918.2715
v 1167.678 288.5761 -920.6652
v 1167.678 288.5761 -920.6652
v 1177.42 286.2721 -918.2715
v 1173.099 289.7794 -915.4151
v 1179.214 283.1266 -907.7797
v 1173.518 288.2095 -906.5986
v 1173.802 275.5858 -900.5228
v 1168.398 283.1802 -900.3429
v 1169.47 272.5804 -899.8668
v 1165.175 280.475 -899.614
v 1165.05 288.3392 -914.4799
v 1168.68 290.1256 -911.4725
v 1166.471 286.9131 -903.9456
v 1164.386 285.6253 -904.519
v 1169.313 289.4908 -906.7842
v 1163.958 288.002 -908.9924
v 1161.155 285.477 -913.5419
v 1167.678 288.5761 -920.6652
v 1160.539 284.5827 -911.4467
v 1161.217 284.2219 -919.2933
v 1167.678 288.5761 -920.6652
v 1170.411 283.9651 -924.7159
v 1162.16 278.5341 -922.622
v 1159.928 283.6941 -909.3652
v 1158.591 280.7539 -915.5245
v 1158.183 278.0564 -910.1592
v 1158.913 275.4322 -917.6312
v 1158.066 272.8374 -911.2117
v 1161.842 278.495 -901.0994
v 1164.905 270.4266 -901.3693
v 1162.294 284.3332 -905.0943
v 1164.905 270.4266 -901.3693
v 1158.066 272.8374 -911.2117
v 1161.842 278.495 -901.0994
v 1213.082 286.9308 -932.4269
v 1203.735 291.5935 -930.3876
v 1213.094 290.2553 -935.1215
v 1205.597 293.9946 -933.4858
v 1216.379 286.6837 -941.6655
v 1217.177 282.4771 -940.587
v 1196.172 292.9544 -936.0043
v 1199.533 295.086 -937.9901
v 1194.767 291.7146 -940.1719
v 1198.136 294.1211 -941.3193
v 1196.091 289.9882 -945.0476
v 1199.468 292.7075 -945.2425
v 1203.551 284.9294 -950.7078
v 1205.451 288.6501 -949.782
v 1211.569 292.6169 -938.7732
v 1207.409 294.6921 -937.8653
v 1213.392 290.6349 -942.4044
v 1211.504 290.2385 -946.0251
v 1212.977 285.9694 -948.1895
v 1207.328 291.7261 -946.909
v 1204.007 293.9777 -944.39
v 1202.66 294.8283 -942.1829
v 1204.043 295.2978 -940.365
v 1208.809 293.5481 -942.6581
v 1212.977 285.9694 -948.1895
v 1217.177 282.4771 -940.587
v 1216.379 286.6837 -941.6655
v 1212.937 281.586 -948.7226
v 1205.451 288.6501 -949.782
v 1203.551 284.9294 -950.7078
v 1225.378 252.34 -922.5822
v 1221.093 265.2636 -933.5004
v 1223.795 257.2347 -965.1663
v 1218.174 271.0319 -970.2744
v 1209.123 280.4419 -940.7026
v 1206.431 282.4506 -970.0043
v 1195.866 285.3645 -940.2921
v 1192.024 287.1253 -970.5042
v 1181.834 283.2259 -929.5105
v 1177.175 286.1765 -967.8598
v 1172.749 277.5675 -920.8602
v 1171.077 283.3362 -965.1368
v 1165.118 265.4836 -908.7298
v 1163.023 274.1778 -959.0311
v 1165.005 259.0738 -904.4163
v 1160.055 263.2744 -953.2868
v 1191.728 287.2609 -972.8295
v 1178.961 286.4672 -970.3078
v 1175.948 287.7474 -987.8876
v 1201.05 284.3165 -973.2813
v 1200.997 284.861 -989.5356
v 1204.664 283.769 -989.2365
v 1202.989 285.0193 -1007.477
v 1215.647 276.025 -1002.108
v 1216.877 273.5945 -986.6125
v 1222.629 260.8451 -996.5767
v 1223.196 259.0876 -981.2872
v 1222.215 262.1221 -1007.686
v 1214.753 277.7911 -1013.367
v 1201.866 285.8577 -1019.706
v 1187.075 289.3935 -1009.416
v 1187.496 289.2006 -1006.106
v 1172.488 289.1454 -1006.444
v 1198.588 286.1427 -1004.369
v 1174.569 289.0255 -1004.3
v 1174.77 287.7002 -987.6623
v 1168.751 285.1742 -984.7662
v 1166.544 286.9173 -1003.383
v 1161.28 276.7868 -979.3592
v 1159.627 279.2614 -998.6392
v 1158.168 264.8755 -971.9133
v 1156.379 266.3939 -989.5792
v 1185.445 290.1407 -1022.239
v 1170.883 290.162 -1019.657
v 1161.465 287.2292 -1015.437
v 1155.761 278.1429 -1010.899
v 1184.378 290.6295 -1030.626
v 1201.131 286.406 -1027.703
v 1210.461 293.0878 -1035.132
v 1226.076 280.0525 -1022.722
v 1214.168 278.9462 -1020.73
v 1214.168 278.9462 -1020.73
v 1169.834 290.8269 -1028.298
v 1187.069 302.0052 -1039.295
v 1210.461 293.0878 -1035.132
v 1187.069 302.0052 -1039.295
v 1164.551 303.8914 -1039.511
v 1158.144 287.4331 -1023.319
v 1145.752 298.3418 -1029.989
v 1153.233 277.4114 -1018.916
v 1143.33 279.4757 -1019.097
v 1154.229 268.2188 -1010.81
v 1214.168 278.9462 -1020.73
v 1221.944 262.9572 -1014.951
v 1214.168 278.9462 -1020.73
v 1158.144 287.4331 -1023.319
v 1208.69 242.3385 -954.773
v 1225.378 252.34 -922.5822
v 1223.795 257.2347 -965.1663
v 1210.221 241.4846 -914.3503
v 1189.836 239.8084 -949.2558
v 1196.624 237.3027 -907.1449
v 1172.747 247.7301 -948.9962
v 1175.906 241.6361 -903.6137
v 1160.055 263.2744 -953.2868
v 1165.005 259.0738 -904.4163
v 1186.696 240.9674 -968.7355
v 1207.989 242.7299 -973.2751
v 1183.719 242.0666 -987.2106
v 1169.932 253.1642 -989.4681
v 1171.302 250.5191 -969.7678
v 1207.325 243.101 -990.8234
v 1223.196 259.0876 -981.2872
v 1222.629 260.8451 -996.5767
v 1156.379 266.3939 -989.5792
v 1158.168 264.8755 -971.9133
v 1206.842 243.3706 -1003.573
v 1181.554 242.8654 -1000.634
v 1222.215 262.1221 -1007.686
v 1155.079 267.4973 -1002.415
v 1168.935 255.0862 -1003.782
v 1206.527 243.547 -1011.911
v 1221.944 262.9572 -1014.951
v 1154.229 268.2188 -1010.81
v 1168.283 256.3433 -1013.143
v 1180.138 243.3878 -1009.413
v 1155.761 278.1429 -1010.899
v 1156.379 266.3939 -989.5792
v 1155.079 267.4973 -1002.415
v 1158.144 287.4331 -1023.319
v 1153.233 277.4114 -1018.916
v 1155.079 267.4973 -1002.415
v 1153.233 277.4114 -1018.916
v 1154.229 268.2188 -1010.81
v 1174.569 289.0255 -1004.3
v 1187.496 289.2006 -1006.106
v 1174.618 285.8333 -1004.524
v 1187.085 286.0656 -1006.265
v 1198.588 286.1427 -1004.369
v 1197.716 283.0649 -1004.464
v 1176.032 284.5562 -988.1127
v 1174.569 289.0255 -1004.3
v 1174.618 285.8333 -1004.524
v 1175.948 287.7474 -987.8876
v 1179.079 283.2771 -970.5346
v 1178.961 286.4672 -970.3078
v 1198.588 286.1427 -1004.369
v 1200.997 284.861 -989.5356
v 1197.716 283.0649 -1004.464
v 1200.094 281.7921 -989.6229
v 1201.05 284.3165 -973.2813
v 1200.116 281.2565 -973.36
v 1201.05 284.3165 -973.2813
v 1191.728 287.2609 -972.8295
v 1200.116 281.2565 -973.36
v 1191.32 284.1358 -972.9823
v 1178.961 286.4672 -970.3078
v 1179.079 283.2771 -970.5346
v 1221.944 262.9572 -1014.951
v 1214.168 278.9462 -1020.73
v 1229.977 260.1454 -1013.754
v 1209.478 237.2307 -1009.996
v 1206.527 243.547 -1011.911
v 1177.419 235.8611 -1004.601
v 1180.138 243.3878 -1009.413
v 1159.385 251.8535 -1006.057
v 1168.283 256.3433 -1013.143
v 1149.207 271.3869 -1009.987
v 1229.977 260.1454 -1013.754
v 1214.168 278.9462 -1020.73
v 1226.076 280.0525 -1022.722
v 1154.229 268.2188 -1010.81
v 1168.283 256.3433 -1013.143
v 1149.207 271.3869 -1009.987
v 1143.33 279.4757 -1019.097
v 1154.229 268.2188 -1010.81
v 1149.207 271.3869 -1009.987
v 1164.551 303.8914 -1039.511
v 1145.752 298.3418 -1029.989
v 1170.025 298.8168 -1063.867
v 1151.225 293.2666 -1054.345
v 1145.752 298.3418 -1029.989
v 1143.33 279.4757 -1019.097
v 1151.225 293.2666 -1054.345
v 1148.802 274.4013 -1043.453
v 1143.33 279.4757 -1019.097
v 1149.207 271.3869 -1009.987
v 1148.802 274.4013 -1043.453
v 1154.679 266.3123 -1034.342
v 1159.385 251.8535 -1006.057
v 1164.857 246.779 -1030.412
v 1177.419 235.8611 -1004.601
v 1182.891 230.7868 -1028.956
v 1209.478 237.2307 -1009.996
v 1214.951 232.1556 -1034.351
v 1229.977 260.1454 -1013.754
v 1235.449 255.071 -1038.11
v 1192.542 296.9306 -1063.65
v 1164.551 303.8914 -1039.511
v 1170.025 298.8168 -1063.867
v 1187.069 302.0052 -1039.295
v 1215.933 288.0132 -1059.488
v 1210.461 293.0878 -1035.132
v 1231.548 274.978 -1047.078
v 1226.076 280.0525 -1022.722
v 1235.449 255.071 -1038.11
v 1226.076 280.0525 -1022.722
v 1229.977 260.1454 -1013.754
v 1158.168 264.8755 -971.9133
v 1189.378 274.8135 -992.9753
v 1162.666 273.659 -987.8113
v 1185.31 276.7509 -1024.999
v 1159.771 276.2753 -1021.431
v 1207.088 270.6039 -1021.309
v 1211.961 267.9964 -990.9051
v 1193.985 272.7976 -956.8152
v 1212.006 266.8992 -957.5891
v 1168.909 271.0385 -951.8011
v 1296.72 246.5504 -910.3444
v 1292.883 229.7927 -904.2662
v 1297.806 234.5219 -860.0707
v 1300.649 247.3689 -859.8831
v 1310.49 231.2288 -863.6802
v 1302.343 261.3341 -890.2239
v 1317.452 262.9315 -881.0344
v 1303.719 265.4669 -879.7764
vt 0.899537 0.60723
vt 0.89511 0.607679
vt 0.898831 0.5805
vt 0.894009 0.581243
vt 0.89511 0.607679
vt 0.899537 0.60723
vt 0.896945 0.608351
vt 0.901372 0.607903
vt 0.902765 0.609514
vt 0.907191 0.609067
vt 0.898831 0.5805
vt 0.894009 0.581243
vt 0.90004 0.579605
vt 0.895218 0.580348
vt 0.90004 0.579605
vt 0.895218 0.580348
vt 0.906848 0.580155
vt 0.902028 0.580896
vt 0.898831 0.5805
vt 0.897343 0.610258
vt 0.899537 0.60723
vt 0.896294 0.578612
vt 0.897343 0.610258
vt 0.90004 0.579605
vt 0.899034 0.575555
vt 0.906848 0.580155
vt 0.906815 0.576128
vt 0.896294 0.578612
vt 0.892914 0.610705
vt 0.897343 0.610258
vt 0.891368 0.579392
vt 0.895598 0.612833
vt 0.897343 0.610258
vt 0.900028 0.612386
vt 0.902575 0.615474
vt 0.907003 0.615028
vt 0.896945 0.608351
vt 0.892914 0.610705
vt 0.89511 0.607679
vt 0.895598 0.612833
vt 0.902765 0.609514
vt 0.902575 0.615474
vt 0.891368 0.579392
vt 0.894009 0.581243
vt 0.89421 0.576301
vt 0.895218 0.580348
vt 0.901995 0.576872
vt 0.892914 0.610705
vt 0.89511 0.607679
vt 0.901995 0.576872
vt 0.902028 0.580896
vt 0.897343 0.610258
vt 0.900028 0.612386
vt 0.899537 0.60723
vt 0.901372 0.607903
vt 0.907003 0.615028
vt 0.907191 0.609067
vt 0.899034 0.575555
vt 0.891368 0.579392
vt 0.896294 0.578612
vt 0.89421 0.576301
vt 0.906815 0.576128
vt 0.89421 0.576301
vt 0.899034 0.575555
vt 0.901995 0.576872
vt 0.902028 0.580896
vt 0.906815 0.576128
vt 0.906848 0.580155
vt 0.901995 0.576872
vt 0.974066 0.626038
vt 0.962964 0.62182
vt 0.973942 0.624002
vt 0.962866 0.619785
vt 0.946593 0.620726
vt 0.946386 0.618609
vt 0.931461 0.621273
vt 0.93125 0.619149
vt 0.917704 0.625333
vt 0.917462 0.623202
vt 0.901831 0.634843
vt 0.901656 0.632589
vt 0.961784 0.629669
vt 0.971028 0.631852
vt 0.946581 0.627671
vt 0.904056 0.639274
vt 0.919077 0.632424
vt 0.932258 0.62975
vt 0.904654 0.640465
vt 0.919446 0.634329
vt 0.932472 0.632028
vt 0.946578 0.629536
vt 0.961468 0.631777
vt 0.970212 0.633414
vt 0.975367 0.633572
vt 0.979388 0.628841
vt 0.979251 0.626806
vt 0.974286 0.634843
vt 0.978602 0.617113
vt 0.973355 0.614285
vt 0.971833 0.589119
vt 0.961329 0.587928
vt 0.970228 0.562575
vt 0.959707 0.554326
vt 0.943142 0.585441
vt 0.939721 0.550458
vt 0.927942 0.585875
vt 0.924452 0.550781
vt 0.913678 0.589812
vt 0.909686 0.554595
vt 0.898923 0.597255
vt 0.896039 0.559987
vt 0.959622 0.552562
vt 0.969873 0.55672
vt 0.939541 0.548621
vt 0.924269 0.548938
vt 0.909477 0.552745
vt 0.895888 0.558029
vt 0.96998 0.558485
vt 0.974864 0.561306
vt 0.974746 0.559541
vt 0.975137 0.565373
vt 0.974979 0.563375
vt 0.976675 0.589945
vt 0.978467 0.565095
vt 0.980246 0.591647
vt 0.978284 0.615135
vt 0.981932 0.616821
vt 0.904056 0.639274
vt 0.903864 0.636977
vt 0.901831 0.634843
vt 0.901656 0.632589
vt 0.904457 0.638156
vt 0.904654 0.640465
vt 0.90086 0.600963
vt 0.901381 0.60196
vt 0.897692 0.562978
vt 0.896039 0.559987
vt 0.898923 0.597255
vt 0.898135 0.563782
vt 0.897525 0.560982
vt 0.895888 0.558029
vt 0.897965 0.561776
vt 0.979251 0.626806
vt 0.975367 0.633572
vt 0.979388 0.628841
vt 0.975306 0.631473
vt 0.974286 0.634843
vt 0.974247 0.632726
vt 0.975019 0.621508
vt 0.978602 0.617113
vt 0.974052 0.622456
vt 0.97355 0.59591
vt 0.974271 0.595509
vt 0.97302 0.567911
vt 0.973481 0.568086
vt 0.972957 0.564605
vt 0.973361 0.563906
vt 0.972922 0.562769
vt 0.973308 0.562085
vt 0.974864 0.561306
vt 0.974746 0.559541
vt 0.975137 0.565373
vt 0.981932 0.616821
vt 0.980246 0.591647
vt 0.973481 0.568086
vt 0.978467 0.565095
vt 0.978602 0.617113
vt 0.973355 0.614285
vt 0.981932 0.616821
vt 0.978284 0.615135
vt 0.975019 0.621508
vt 0.978602 0.617113
vt 0.981932 0.616821
vt 0.959622 0.552562
vt 0.968284 0.559592
vt 0.969873 0.55672
vt 0.95775 0.556048
vt 0.939541 0.548621
vt 0.938922 0.55207
vt 0.924269 0.548938
vt 0.924386 0.552601
vt 0.909477 0.552745
vt 0.910726 0.555727
vt 0.895888 0.558029
vt 0.897525 0.560982
vt 0.973308 0.562085
vt 0.974746 0.559541
vt 0.957246 0.556985
vt 0.938756 0.552997
vt 0.924417 0.553586
vt 0.911062 0.556528
vt 0.897965 0.561776
vt 0.967857 0.560364
vt 0.972922 0.562769
vt 0.967857 0.560364
vt 0.972922 0.562769
vt 0.968284 0.559592
vt 0.973481 0.568086
vt 0.978467 0.565095
vt 0.975137 0.565373
vt 0.974979 0.563375
vt 0.970228 0.562575
vt 0.975252 0.533283
vt 0.975398 0.535512
vt 0.98483 0.534446
vt 0.984917 0.536628
vt 0.95916 0.534236
vt 0.958905 0.531958
vt 0.944903 0.536609
vt 0.944637 0.534278
vt 0.931731 0.538803
vt 0.931452 0.536494
vt 0.917522 0.54409
vt 0.917288 0.541758
vt 0.989922 0.535063
vt 0.989977 0.537221
vt 0.984402 0.523628
vt 0.989656 0.524597
vt 0.974698 0.524787
vt 0.958306 0.526613
vt 0.944267 0.53102
vt 0.931285 0.5351
vt 0.955134 0.49829
vt 0.972923 0.49755
vt 0.951789 0.468416
vt 0.97105 0.468822
vt 0.950702 0.458711
vt 0.936116 0.459293
vt 0.937095 0.46789
vt 0.922508 0.462247
vt 0.92313 0.467404
vt 0.909819 0.466757
vt 0.970575 0.461554
vt 0.982243 0.469051
vt 0.982053 0.464239
vt 0.988242 0.469032
vt 0.988154 0.465666
vt 0.988109 0.463797
vt 0.98198 0.462348
vt 0.909618 0.464737
vt 0.922267 0.460248
vt 0.935889 0.457274
vt 0.950481 0.456738
vt 0.97045 0.459622
vt 0.98198 0.462348
vt 0.988968 0.497554
vt 0.983351 0.497067
vt 0.940777 0.500296
vt 0.927316 0.502154
vt 0.913653 0.505257
vt 0.313267 0.88899
vt 0.297074 0.90378
vt 0.342896 0.885329
vt 0.324556 0.899269
vt 0.291964 0.935535
vt 0.320393 0.930777
vt 0.30081 0.965807
vt 0.332774 0.961448
vt 0.315067 0.977311
vt 0.348728 0.968408
vt 0.327714 0.976185
vt 0.363319 0.968758
vt 0.282621 0.906152
vt 0.297686 0.890916
vt 0.30899 0.980091
vt 0.297365 0.981992
vt 0.284 0.9681
vt 0.277014 0.938037
vt 0.265049 0.909036
vt 0.258836 0.941079
vt 0.265049 0.909036
vt 0.263562 0.970887
vt 0.258836 0.941079
vt 0.275843 0.987684
vt 0.263562 0.970887
vt 0.269403 0.993129
vt 0.28041 0.99173
vt 0.286224 0.984839
vt 0.286224 0.984839
vt 0.254109 0.97974
vt 0.263562 0.970887
vt 0.364906 0.897412
vt 0.313267 0.88899
vt 0.342896 0.885329
vt 0.331094 0.900238
vt 0.370592 0.911324
vt 0.335115 0.914005
vt 0.337659 0.922774
vt 0.374196 0.920182
vt 0.343129 0.94086
vt 0.380715 0.938328
vt 0.316458 0.915415
vt 0.313313 0.901724
vt 0.297686 0.890916
vt 0.318446 0.924138
vt 0.323362 0.942192
vt 0.295084 0.925795
vt 0.293773 0.91713
vt 0.290786 0.912616
vt 0.288602 0.895737
vt 0.291694 0.903531
vt 0.29216 0.923376
vt 0.29933 0.943811
vt 0.29647 0.94339
vt 0.278742 0.893257
vt 0.291694 0.903531
vt 0.291694 0.903531
vt 0.294225 0.967774
vt 0.29933 0.943811
vt 0.289545 0.975301
vt 0.286224 0.984839
vt 0.28041 0.99173
vt 0.30899 0.980091
vt 0.317802 0.964336
vt 0.327714 0.976185
vt 0.337194 0.961508
vt 0.363319 0.968758
vt 0.374067 0.956132
vt 0.343129 0.94086
vt 0.380715 0.938328
vt 0.323362 0.942192
vt 0.323362 0.942192
vt 0.29933 0.943811
vt 0.323362 0.942192
vt 0.288602 0.895737
vt 0.2735 0.883233
vt 0.291694 0.903531
vt 0.291694 0.903531
vt 0.278742 0.893257
vt 0.258836 0.941079
vt 0.254109 0.97974
vt 0.263562 0.970887
vt 0.249117 0.942892
vt 0.265049 0.909036
vt 0.258836 0.941079
vt 0.257032 0.903099
vt 0.278742 0.893257
vt 0.257032 0.903099
vt 0.265049 0.909036
vt 0.2735 0.883233
vt 0.29216 0.923376
vt 0.29647 0.94339
vt 0.28011 0.926858
vt 0.279238 0.918228
vt 0.247653 0.917739
vt 0.24799 0.909052
vt 0.248215 0.895632
vt 0.277849 0.904689
vt 0.24886 0.930954
vt 0.283921 0.944849
vt 0.283921 0.944849
vt 0.213855 0.908244
vt 0.215451 0.899496
vt 0.175817 0.884313
vt 0.184405 0.870003
vt 0.217358 0.886202
vt 0.169082 0.89562
vt 0.126338 0.864303
vt 0.149104 0.851261
vt 0.155403 0.837007
vt 0.174966 0.838339
vt 0.165008 0.849113
vt 0.178613 0.866132
vt 0.162329 0.867903
vt 0.118567 0.876815
vt 0.127164 0.845482
vt 0.152097 0.901304
vt 0.111241 0.888608
vt 0.102797 0.865761
vt 0.127164 0.845482
vt 0.141448 0.79967
vt 0.160986 0.809061
vt 0.174966 0.838339
vt 0.088053 0.886932
vt 0.055787 0.826176
vt 0.091312 0.804812
vt 0.127164 0.845482
vt 0.141448 0.79967
vt 0.039424 0.8534
vt 0.077976 0.923412
vt 0.104944 0.918885
vt 0.104944 0.918885
vt 0.033432 0.889016
vt 0.083379 0.949348
vt 0.039593 0.915648
vt 0.083379 0.949348
vt 0.110678 0.928677
vt 0.083379 0.949348
vt 0.118302 0.937931
vt 0.093812 0.960474
vt 0.241539 0.885552
vt 0.277849 0.904689
vt 0.266624 0.894755
vt 0.215417 0.875968
vt 0.192542 0.867379
vt 0.184405 0.870003
vt 0.241539 0.885552
vt 0.231337 0.902562
vt 0.266624 0.894755
vt 0.253814 0.91088
vt 0.207931 0.893901
vt 0.200113 0.926165
vt 0.179826 0.921041
vt 0.197402 0.882146
vt 0.215417 0.875968
vt 0.192542 0.867379
vt 0.168058 0.948266
vt 0.1926 0.959355
vt 0.157818 0.957599
vt 0.197326 0.967102
vt 0.162329 0.867903
vt 0.165008 0.849113
vt 0.118302 0.937931
vt 0.139689 0.933887
vt 0.118302 0.937931
vt 0.154921 0.905416
vt 0.222117 0.966149
vt 0.224135 0.934766
vt 0.222117 0.966149
vt 0.247205 0.943026
vt 0.253814 0.91088
vt 0.247205 0.943026
vt 0.253814 0.91088
vt 0.257032 0.903099
vt 0.249117 0.942892
vt 0.222117 0.966149
vt 0.250464 0.972674
vt 0.250464 0.972674
vt 0.254109 0.97974
vt 0.247205 0.943026
vt 0.250464 0.972674
vt 0.266624 0.894755
vt 0.253814 0.91088
vt 0.2735 0.883233
vt 0.257032 0.903099
vt 0.288602 0.895737
vt 0.277849 0.904689
vt 0.222117 0.966149
vt 0.230409 0.971225
vt 0.250464 0.972674
vt 0.250464 0.972674
vt 0.230409 0.971225
vt 0.26218 0.975184
vt 0.230409 0.971225
vt 0.237196 0.966051
vt 0.26218 0.975184
vt 0.27203 0.972049
vt 0.242576 0.954996
vt 0.279297 0.957156
vt 0.24886 0.930954
vt 0.212352 0.916486
vt 0.204337 0.952746
vt 0.162737 0.906271
vt 0.15569 0.942679
vt 0.204337 0.952746
vt 0.200923 0.959805
vt 0.204337 0.952746
vt 0.15569 0.942679
vt 0.156798 0.950022
vt 0.197326 0.967102
vt 0.157818 0.957599
vt 0.110678 0.928677
vt 0.118302 0.937931
vt 0.104944 0.918885
vt 0.15569 0.942679
vt 0.104944 0.918885
vt 0.111241 0.888608
vt 0.279297 0.957156
vt 0.24886 0.930954
vt 0.283921 0.944849
vt 0.279297 0.957156
vt 0.283921 0.944849
vt 0.289545 0.975301
vt 0.28041 0.99173
vt 0.27203 0.972049
vt 0.269403 0.993129
vt 0.26218 0.975184
vt 0.254109 0.97974
vt 0.250464 0.972674
vt 0.26218 0.975184
vt 0.254109 0.97974
vt 0.184405 0.870003
vt 0.165008 0.849113
vt 0.192542 0.867379
vt 0.149104 0.851261
vt 0.149104 0.851261
vt 0.184405 0.870003
vt 0.118302 0.937931
vt 0.139689 0.933887
vt 0.093812 0.960474
vt 0.133474 0.948431
vt 0.154921 0.905416
vt 0.133474 0.948431
vt 0.154921 0.905416
vt 0.152097 0.901304
vt 0.162329 0.867903
vt 0.15889 0.825824
vt 0.174966 0.838339
vt 0.160986 0.809061
vt 0.178613 0.866132
vt 0.15889 0.825824
vt 0.083379 0.949348
vt 0.093812 0.960474
vt 0.039593 0.915648
vt 0.039593 0.915648
vt 0.093812 0.960474
vt 0.052997 0.924341
vt 0.133474 0.948431
vt 0.09205 0.905832
vt 0.152097 0.901304
vt 0.123383 0.86998
vt 0.178613 0.866132
vt 0.15889 0.825824
vt 0.241539 0.885552
vt 0.277849 0.904689
vt 0.290786 0.912616
vt 0.288602 0.895737
vt 0.060684 0.855711
vt 0.074388 0.866921
vt 0.057088 0.861783
vt 0.057088 0.861783
vt 0.074388 0.866921
vt 0.067517 0.871143
vt 0.076686 0.88727
vt 0.067788 0.88795
vt 0.064278 0.902861
vt 0.056714 0.900999
vt 0.055355 0.904933
vt 0.049911 0.903127
vt 0.052145 0.873313
vt 0.059438 0.878347
vt 0.054327 0.893245
vt 0.050064 0.892563
vt 0.060408 0.887226
vt 0.050014 0.883578
vt 0.044041 0.875914
vt 0.057088 0.861783
vt 0.042625 0.880058
vt 0.043767 0.865658
vt 0.057088 0.861783
vt 0.060684 0.855711
vt 0.043746 0.861251
vt 0.04122 0.884172
vt 0.037845 0.873673
vt 0.036264 0.884379
vt 0.036807 0.871394
vt 0.034453 0.883987
vt 0.043148 0.900959
vt 0.04629 0.902789
vt 0.045792 0.891879
vt 0.04629 0.902789
vt 0.034453 0.883987
vt 0.043148 0.900959
vt 0.140619 0.840516
vt 0.124927 0.842818
vt 0.141817 0.834466
vt 0.129222 0.836304
vt 0.146633 0.823494
vt 0.146616 0.826849
vt 0.111363 0.831962
vt 0.118336 0.827587
vt 0.108336 0.82463
vt 0.115411 0.821717
vt 0.110202 0.816151
vt 0.117397 0.814897
vt 0.122284 0.807339
vt 0.127089 0.80782
vt 0.139824 0.826933
vt 0.13283 0.827946
vt 0.142503 0.82084
vt 0.138863 0.814257
vt 0.140085 0.811654
vt 0.13164 0.812128
vt 0.126263 0.816062
vt 0.124058 0.819882
vt 0.126789 0.823106
vt 0.135028 0.819418
vt 0.140085 0.811654
vt 0.146616 0.826849
vt 0.146633 0.823494
vt 0.138466 0.81211
vt 0.127089 0.80782
vt 0.122284 0.807339
vt 0.15101 0.869266
vt 0.147731 0.845349
vt 0.149845 0.78998
vt 0.144403 0.775943
vt 0.131025 0.827291
vt 0.126752 0.772507
vt 0.108215 0.826462
vt 0.1017 0.769961
vt 0.08156 0.847078
vt 0.073904 0.775185
vt 0.062968 0.864796
vt 0.061716 0.781197
vt 0.045154 0.890708
vt 0.043989 0.795561
vt 0.042978 0.900464
vt 0.035198 0.809718
vt 0.101198 0.765605
vt 0.077304 0.770549
vt 0.072139 0.73753
vt 0.117438 0.765799
vt 0.117526 0.735529
vt 0.123941 0.736479
vt 0.121276 0.702308
vt 0.141509 0.715578
vt 0.142918 0.744962
vt 0.148983 0.731281
vt 0.149403 0.759854
vt 0.148677 0.71047
vt 0.140482 0.694155
vt 0.119486 0.679359
vt 0.093294 0.697061
vt 0.094009 0.703262
vt 0.066182 0.702663
vt 0.113509 0.707637
vt 0.069997 0.706675
vt 0.069941 0.737964
vt 0.057994 0.74423
vt 0.054464 0.709169
vt 0.041581 0.757181
vt 0.039297 0.72078
vt 0.032224 0.775021
vt 0.029403 0.742113
vt 0.090519 0.673
vt 0.063532 0.677777
vt 0.04516 0.686735
vt 0.031826 0.698591
vt 0.088705 0.657264
vt 0.118316 0.66435
vt 0.137931 0.647919
vt 0.162177 0.676041
vt 0.139811 0.680145
vt 0.139811 0.680145
vt 0.061799 0.661502
vt 0.097501 0.636559
vt 0.137931 0.647919
vt 0.097501 0.636559
vt 0.05614 0.635383
vt 0.039075 0.672063
vt 0.019401 0.655369
vt 0.02694 0.68408
vt 0.009293 0.682953
vt 0.026005 0.70248
vt 0.139811 0.680145
vt 0.148477 0.696859
vt 0.139811 0.680145
vt 0.039075 0.672063
vt 0.117201 0.813804
vt 0.15101 0.869266
vt 0.149845 0.78998
vt 0.11969 0.887446
vt 0.082157 0.824625
vt 0.093652 0.901713
vt 0.053607 0.822576
vt 0.057458 0.906889
vt 0.035198 0.809718
vt 0.042978 0.900464
vt 0.076829 0.788893
vt 0.116061 0.780074
vt 0.071775 0.755004
vt 0.050156 0.74701
vt 0.051836 0.783793
vt 0.114979 0.748083
vt 0.149403 0.759854
vt 0.148983 0.731281
vt 0.029403 0.742113
vt 0.032224 0.775021
vt 0.114193 0.724827
vt 0.068097 0.730343
vt 0.148677 0.71047
vt 0.027348 0.718151
vt 0.048931 0.720185
vt 0.113679 0.709617
vt 0.148477 0.696859
vt 0.026005 0.70248
vt 0.04813 0.702641
vt 0.065692 0.714214
vt 0.031826 0.698591
vt 0.029403 0.742113
vt 0.027348 0.718151
vt 0.039075 0.672063
vt 0.02694 0.68408
vt 0.027348 0.718151
vt 0.02694 0.68408
vt 0.026005 0.70248
vt 0.069997 0.706675
vt 0.094009 0.703262
vt 0.069997 0.706675
vt 0.094009 0.703262
vt 0.113509 0.707637
vt 0.113509 0.707637
vt 0.072139 0.73753
vt 0.069997 0.706675
vt 0.069997 0.706675
vt 0.072139 0.73753
vt 0.077304 0.770549
vt 0.077304 0.770549
vt 0.113509 0.707637
vt 0.117526 0.735529
vt 0.113509 0.707637
vt 0.117526 0.735529
vt 0.117438 0.765799
vt 0.117438 0.765799
vt 0.117438 0.765799
vt 0.101198 0.765605
vt 0.117438 0.765799
vt 0.101198 0.765605
vt 0.077304 0.770549
vt 0.077304 0.770549
vt 0.148477 0.696859
vt 0.139811 0.680145
vt 0.162182 0.700105
vt 0.116916 0.715402
vt 0.113679 0.709617
vt 0.05841 0.725668
vt 0.065692 0.714214
vt 0.030525 0.717229
vt 0.04813 0.702641
vt 0.017724 0.702805
vt 0.162182 0.700105
vt 0.139811 0.680145
vt 0.162177 0.676041
vt 0.026005 0.70248
vt 0.04813 0.702641
vt 0.017724 0.702805
vt 0.009293 0.682953
vt 0.026005 0.70248
vt 0.017724 0.702805
vt 0.05614 0.635383
vt 0.019401 0.655369
vt 0.064711 0.592136
vt 0.028033 0.612183
vt 0.019401 0.655369
vt 0.009293 0.682953
vt 0.028033 0.612183
vt 0.017877 0.640061
vt 0.009293 0.682953
vt 0.017724 0.702805
vt 0.017877 0.640061
vt 0.02626 0.660021
vt 0.030525 0.717229
vt 0.038961 0.674774
vt 0.05841 0.725668
vt 0.066728 0.683485
vt 0.116916 0.715402
vt 0.125111 0.673217
vt 0.162182 0.700105
vt 0.170359 0.657534
vt 0.105973 0.593346
vt 0.05614 0.635383
vt 0.064711 0.592136
vt 0.097501 0.636559
vt 0.14628 0.60485
vt 0.137931 0.647919
vt 0.170425 0.633154
vt 0.162177 0.676041
vt 0.170359 0.657534
vt 0.162177 0.676041
vt 0.162182 0.700105
vt 0.032224 0.775021
vt 0.100874 0.479702
vt 0.029088 0.486887
vt 0.097866 0.394152
vt 0.029562 0.397404
vt 0.154487 0.409155
vt 0.16001 0.490624
vt 0.104308 0.576306
vt 0.152083 0.578615
vt 0.036875 0.58349
vt 0.278742 0.893257
vt 0.265049 0.909036
vt 0.275843 0.987684
vt 0.286224 0.984839
vt 0.297365 0.981992
vt 0.295084 0.925795
vt 0.323362 0.942192
vt 0.29933 0.943811
vn -0.3092437 0.9430258 0.1227626
vn 0.07377268 0.9971929 0.01280648
vn -0.389832 0.8977398 -0.2051691
vn 0.09572642 0.9728219 -0.2108413
vn -0.06242176 0.3101597 0.9486329
vn -0.06253609 0.3102517 0.9485953
vn -0.04356207 0.2555009 0.965827
vn -0.0244217 0.1996305 0.9795669
vn -0.005173015 0.1431759 0.9896837
vn -0.005210489 0.1431589 0.9896861
vn -0.389832 0.8977398 -0.2051691
vn -0.3900202 0.7469006 -0.5385386
vn -0.2415299 0.3747883 -0.8950961
vn -0.1511648 0.1699482 -0.9737899
vn -0.2415299 0.3747883 -0.8950961
vn -0.1511648 0.1699482 -0.9737899
vn -0.05758711 -0.03336694 -0.9977828
vn -0.05760035 -0.03344161 -0.9977794
vn -0.6016049 -0.7961793 -0.06457578
vn -0.586538 -0.8078179 0.05833884
vn -0.5669165 -0.808264 0.1591067
vn -0.1840202 -0.9752585 -0.1225047
vn -0.1970491 -0.949077 -0.2458139
vn -0.5040452 -0.8408777 -0.197137
vn -0.5193846 -0.8381001 -0.1668168
vn -0.5273927 -0.8394547 -0.1310455
vn -0.5635093 -0.8260161 -0.01243979
vn -0.08129813 -0.9966897 0.0004624953
vn 0.3384653 -0.8960423 -0.2873141
vn -0.06384369 -0.9580193 -0.279505
vn 0.4342062 -0.8322711 0.3446589
vn 0.1688333 -0.6064321 -0.7770041
vn 0.05268837 -0.9109975 -0.4090323
vn 0.1185103 -0.4683854 -0.8755401
vn 0.06612435 -0.3204278 -0.9449622
vn 0.06603079 -0.3204834 -0.9449499
vn 0.4728241 0.8429679 -0.2565981
vn 0.5536355 0.8152965 -0.1696451
vn 0.2163103 0.9762745 0.009887708
vn 0.4737737 0.8433834 -0.2534617
vn 0.4786805 0.8431408 -0.2449052
vn 0.4918337 0.8424764 -0.2198479
vn 0.5430443 0.8350621 0.08817182
vn 0.2946273 0.9431241 0.1539856
vn 0.5198135 0.8294474 0.204477
vn 0.543631 0.8279689 0.1375973
vn 0.5292035 0.8415494 0.108343
vn 0.5536355 0.8152965 -0.1696451
vn 0.5655066 0.822413 -0.06196102
vn 0.2361357 0.9674786 0.09069324
vn -0.1308676 0.9910879 0.0248705
vn -0.3916117 -0.9198561 0.02246917
vn -0.4811845 -0.8384338 0.2559106
vn -0.5669165 -0.808264 0.1591067
vn -0.4843753 -0.8399081 0.2448163
vn -0.4810885 -0.8433164 0.2395229
vn -0.4675356 -0.8547059 0.2255844
vn 0.3250975 -0.5547265 0.7658917
vn 0.4342062 -0.8322711 0.3446589
vn 0.4080741 -0.9028372 0.135501
vn 0.2016899 -0.2834652 0.9375333
vn 0.07204968 0.002342381 0.9973984
vn 0.2016899 -0.2834652 0.9375333
vn 0.3250975 -0.5547265 0.7658917
vn 0.07204691 0.002332954 0.9973985
vn -0.1308676 0.9910879 0.0248705
vn -0.4228159 0.9058289 0.02647169
vn -0.4226991 0.9058791 0.02661594
vn 0.03851604 0.9989958 0.0228851
vn 0.308913 0.8634359 0.3988124
vn 0.2462164 0.9260916 0.2858878
vn 0.4850548 0.8744377 -0.008978353
vn 0.2890269 0.9572563 0.01113318
vn 0.1442291 0.9421449 0.3025906
vn 0.1318978 0.9909084 0.02652043
vn -0.004166455 0.9526543 0.3040271
vn -0.05149416 0.9974579 0.04925461
vn -0.0698878 0.9312192 0.3576961
vn -0.2014334 0.9764727 0.0769789
vn -0.206074 0.9283766 0.3092743
vn -0.3234263 0.9412687 0.09699759
vn 0.1810037 0.8112708 0.5559474
vn 0.260555 0.6951219 0.6700125
vn 0.1351145 0.8205103 0.5554339
vn 0.01194908 0.7511815 0.6599876
vn 0.006227543 0.8053967 0.5927035
vn 0.02835988 0.8377688 0.5452881
vn -0.03200461 0.7578185 0.65168
vn -0.0003652287 0.8256104 0.5642405
vn 0.03299903 0.8365994 0.5468203
vn 0.1693767 0.8146782 0.5546269
vn 0.1876066 0.7966189 0.574632
vn 0.3239557 0.622321 0.7125794
vn 0.3823748 0.5455824 0.7457409
vn 0.5223452 0.7600221 0.3866805
vn 0.6211382 0.7832857 -0.02551189
vn 0.3740968 0.501009 0.7804111
vn 0.4406472 0.8659019 0.236736
vn 0.2278503 0.9736346 0.01094888
vn 0.1291693 0.9914348 0.01930014
vn 0.2955657 0.9552534 0.01148329
vn 0.3837068 0.9234549 -3.937464E-05
vn 0.3011064 0.9535342 0.01036074
vn 0.1284205 0.9913589 0.02675272
vn 0.1284212 0.9913573 0.0268078
vn -0.03757104 0.9981527 0.04774524
vn -0.02034334 0.9987363 0.04595552
vn -0.1805955 0.9807042 0.07486258
vn -0.1597174 0.9844753 0.0727924
vn -0.3036911 0.947972 0.09550358
vn -0.2878815 0.9530193 0.09422608
vn 0.2862736 0.9580659 0.01253528
vn 0.5009615 0.8654204 -0.009228369
vn 0.08286965 0.9960631 0.03148244
vn -0.0162207 0.9987108 0.04810119
vn -0.1995131 0.9765282 0.08116166
vn -0.2858738 0.9532983 0.09746002
vn 0.5006242 0.8656101 -0.009734246
vn 0.6576912 0.7528389 -0.02599931
vn 0.6594747 0.7511665 -0.02901746
vn 0.6561235 0.754105 -0.02876488
vn 0.235986 0.9717143 0.009047346
vn 0.3745489 0.9272041 -0.002400115
vn 0.7278779 0.6848571 -0.0341274
vn 0.7211133 0.6919845 -0.0339593
vn 0.5034381 0.8639237 -0.01363888
vn 0.7158973 0.6973565 -0.03442335
vn -0.8124527 -0.5819746 0.03501747
vn -0.8154382 -0.5778536 0.03384959
vn -0.8114409 -0.5835373 0.03236924
vn -0.8111002 -0.5841228 0.03028186
vn -0.8178967 -0.5742208 0.03627038
vn -0.812386 -0.58202 0.03580203
vn -0.8323004 -0.5530076 0.03819198
vn -0.8394772 -0.5418454 0.04100608
vn -0.8498747 -0.5252222 0.04306414
vn -0.8473036 -0.529605 0.0399393
vn -0.8245607 -0.5647293 0.03435791
vn -0.8534083 -0.5193298 0.04461898
vn -0.8532668 -0.5197757 0.04205986
vn -0.8527655 -0.5208423 0.03891611
vn -0.8538326 -0.5186625 0.04426331
vn 0.7337423 -0.6768995 -0.05855953
vn 0.7254843 -0.6860417 -0.05494828
vn 0.7156719 -0.6950772 -0.06842033
vn 0.7391174 -0.6720156 -0.04583091
vn 0.7322378 -0.6795591 -0.04502485
vn 0.7374122 -0.6741474 -0.04181489
vn 0.7424214 -0.6680445 -0.05026949
vn 0.7511265 -0.6564279 -0.07008223
vn 0.7565671 -0.6524652 -0.04353898
vn 0.8263216 -0.5615865 -0.04258279
vn 0.7527925 -0.65644 -0.0488886
vn 0.9200999 -0.3896591 -0.03977159
vn 0.8695403 -0.4915236 -0.04800221
vn 0.952868 -0.3010903 -0.03724403
vn 0.953391 -0.2980947 -0.0467464
vn 0.9590948 -0.2805639 -0.03769962
vn 0.956484 -0.2868029 -0.05369015
vn 0.9520007 -0.2991518 -0.0648275
vn 0.9528847 -0.2936672 -0.07596277
vn 0.9452957 -0.3207045 -0.05970421
vn 0.5653064 -0.8231154 -0.05394236
vn 0.6048981 -0.7942046 -0.0577704
vn 0.8178974 -0.5464378 -0.1801375
vn 0.6404321 -0.765275 -0.06481387
vn -0.04064912 0.5622132 0.8259926
vn -0.09241784 0.1822943 0.9788911
vn -0.09152442 0.3866452 0.9176757
vn -0.1793189 -0.002283979 0.9837884
vn -0.07742697 0.7346734 0.6739882
vn 0.3542979 0.8062287 0.4737809
vn -0.09152442 0.3866452 0.9176757
vn -0.001627598 -0.5949087 -0.8037917
vn -0.08220177 -0.5383803 -0.8386832
vn -0.09622938 -0.5167579 -0.8507063
vn -0.0267473 -0.5980951 -0.8009787
vn -0.0437404 -0.5949834 -0.8025469
vn -0.03568885 -0.5961516 -0.8020782
vn -0.06559829 -0.6083998 -0.790915
vn -0.09208301 -0.6080822 -0.7885156
vn -0.1445575 -0.5932351 -0.791944
vn -0.1287131 -0.5865278 -0.7996362
vn -0.08947732 -0.5735478 -0.8142706
vn -0.09086996 -0.5761848 -0.8122523
vn -0.1720208 -0.4816297 -0.8593264
vn -0.1443067 -0.4760891 -0.867476
vn -0.183859 -0.8699113 -0.4576573
vn -0.1163796 -0.8775694 -0.4651105
vn -0.05595062 -0.8847936 -0.4626119
vn -0.0113065 -0.8716903 -0.4899268
vn 0.1795664 -0.9112993 -0.3705259
vn -0.1307254 -0.7202997 -0.6812335
vn -0.1889985 -0.4833339 -0.8547911
vn -0.2544365 -0.7803824 -0.5711965
vn -0.4741723 -0.7260817 -0.4979619
vn -0.08220177 -0.5383803 -0.8386832
vn 0.3644406 -0.7790532 -0.5101561
vn 0.009599906 -0.3723497 -0.9280428
vn 0.06641322 -0.2969653 -0.9525759
vn 0.07679824 -0.1642644 -0.9834222
vn 0.1759943 -0.140879 -0.9742582
vn -0.3103306 -0.9504446 -0.01870968
vn -0.3056327 -0.951868 -0.02314728
vn -0.4355872 -0.8999953 -0.01650134
vn -0.5653756 -0.8247573 -0.01120858
vn -0.1954076 -0.9802699 -0.02977706
vn -0.07009227 -0.9966063 -0.04316018
vn 0.05536182 -0.9966996 -0.0593702
vn 0.05339849 -0.9964743 -0.06471119
vn 0.1435865 -0.9865421 -0.07821544
vn 0.2139345 -0.972669 -0.09026083
vn 0.3184768 -0.9423519 -0.1026898
vn 0.3176444 -0.9425578 -0.103377
vn -0.677341 -0.7356557 -0.004455949
vn -0.6802285 -0.7329594 -0.007722282
vn -0.4977554 -0.8672021 -0.01414618
vn -0.6651955 -0.7466423 -0.006344834
vn -0.3030343 -0.9527414 -0.02130735
vn -0.1347372 -0.9902171 -0.03627658
vn 0.0485053 -0.9969314 -0.06144109
vn 0.1844173 -0.9791485 -0.08519634
vn -0.1355409 -0.9901155 -0.03605595
vn -0.294554 -0.9553794 -0.02209672
vn -0.1335092 -0.9903868 -0.03618488
vn -0.2879855 -0.9573654 -0.0227115
vn -0.1314018 -0.9906628 -0.03634464
vn 0.01114039 -0.9983026 -0.05716506
vn 0.01659505 -0.99819 -0.05780527
vn 0.1474633 -0.9857104 -0.08142166
vn 0.1250637 -0.9891174 -0.07749669
vn 0.2940138 -0.9505233 -0.1003063
vn -0.286069 -0.9579362 -0.022864
vn -0.4769267 -0.8788096 -0.01531737
vn -0.4966396 -0.8678257 -0.0150875
vn -0.6344727 -0.7729029 -0.00809597
vn -0.6326125 -0.7743987 -0.01040101
vn -0.5529249 -0.7684129 -0.3222044
vn -0.4279842 -0.8415658 -0.3295397
vn 0.1795664 -0.9112993 -0.3705259
vn -0.0113065 -0.8716903 -0.4899268
vn -0.05595062 -0.8847936 -0.4626119
vn -0.1163796 -0.8775694 -0.4651105
vn -0.183859 -0.8699113 -0.4576573
vn -0.2544365 -0.7803824 -0.5711965
vn -0.6472303 -0.7622582 -0.007438639
vn -0.4880948 -0.8726671 -0.01468603
vn 0.03190461 -0.9977156 -0.05954607
vn 0.1696541 -0.9819438 -0.08368798
vn 0.3093638 -0.9453962 -0.1025674
vn -0.1114987 0.174607 -0.9783049
vn -0.1909734 -0.5746611 -0.7957976
vn -0.1426083 0.04182211 -0.9888952
vn -0.1982736 -0.6511539 -0.7325886
vn -0.1725631 -0.9558725 -0.2377598
vn -0.1761647 -0.9731016 -0.1484561
vn -0.07386557 -0.8803832 0.4684754
vn -0.03251716 -0.7934505 0.6077655
vn 0.1374696 -0.3921492 0.9095719
vn 0.156364 -0.336124 0.928747
vn 0.2577878 0.1117988 0.9597117
vn 0.2438456 0.1414388 0.9594448
vn -0.1904962 -0.5897952 -0.7847629
vn -0.1151351 0.1471752 -0.9823866
vn 0.2756393 0.182058 0.9438633
vn 0.1377074 -0.3943334 0.9085912
vn -0.07462528 -0.8798019 0.4694461
vn -0.1684518 -0.9631575 -0.2096463
vn -0.1817327 -0.5016934 -0.8457404
vn 0.05969814 -0.9359373 -0.3470699
vn 0.2075429 -0.6496511 -0.7313545
vn 0.14862 -0.9094917 0.3882485
vn 0.3139043 -0.9237665 -0.219362
vn 0.3307243 -0.445311 0.8320574
vn 0.277731 -0.8681242 0.4113705
vn 0.5850862 -0.4788641 0.6544946
vn 0.6990665 -0.04684338 0.7135206
vn 0.5679616 0.1056333 0.8162483
vn 0.5679616 0.1056333 0.8162483
vn 0.7445226 -0.6444536 0.1742571
vn 0.475269 -0.7174661 0.5092758
vn 0.03836795 0.7944391 -0.6061307
vn -0.1114987 0.174607 -0.9783049
vn -0.1426083 0.04182211 -0.9888952
vn 0.07056465 0.8579266 -0.5089033
vn 0.1552124 0.9845417 -0.08115911
vn 0.151063 0.9829301 -0.1050154
vn 0.1507615 0.971037 -0.1853592
vn 0.1467225 0.95433 -0.2602438
vn 0.1331373 0.923232 -0.3604399
vn 0.1392861 0.9270931 -0.3479912
vn 0.1511051 0.980926 -0.1222765
vn 0.06570146 0.8427088 -0.5343456
vn -0.1151351 0.1471752 -0.9823866
vn 0.1452913 0.957454 -0.2493439
vn 0.2006243 0.9794663 0.01988944
vn 0.576066 0.7687882 -0.277692
vn 0.5936326 0.7874415 -0.16594
vn 0.8907375 0.4289627 -0.1502589
vn 0.9028615 0.3125579 -0.2952094
vn 0.7039863 0.6071622 -0.3684524
vn 0.8697278 0.435969 -0.2313101
vn 0.7691589 0.6156558 -0.1713547
vn 0.8948574 0.4267763 0.1307372
vn -0.08358462 0.2756597 -0.9576145
vn 0.3386129 0.7857012 -0.5177018
vn 0.3506465 0.8534443 -0.3855902
vn 0.6297076 0.4997057 0.5947793
vn 0.7173088 0.6629509 0.2143925
vn 0.8435619 0.267338 0.4657616
vn 0.5679616 0.1056333 0.8162483
vn 0.6990665 -0.04684338 0.7135206
vn 0.2756393 0.182058 0.9438633
vn 0.2736188 0.619379 0.7358685
vn 0.2577878 0.1117988 0.9597117
vn 0.2662515 0.553529 0.7891235
vn 0.2438456 0.1414388 0.9594448
vn 0.2352263 0.5456364 0.8043317
vn 0.2195677 0.6819263 0.6976866
vn 0.1837804 0.614846 0.7669349
vn 0.224377 0.7482345 0.6243399
vn 0.2156957 0.9410255 0.2606656
vn 0.4327388 0.8437228 0.3175987
vn 0.2071156 0.9674576 0.145358
vn 0.9028615 0.3125579 -0.2952094
vn 0.8245375 -0.08301807 -0.5596837
vn 0.7414531 0.2954952 -0.6024366
vn 0.8885926 0.1777224 -0.4228687
vn 0.7965395 -0.2384163 -0.5555921
vn 0.5414895 -0.8405046 -0.01846691
vn 0.7445226 -0.6444536 0.1742571
vn 0.277731 -0.8681242 0.4113705
vn 0.7165213 -0.6673874 -0.2029564
vn 0.5452813 -0.6908159 -0.474807
vn 0.3139043 -0.9237665 -0.219362
vn 0.7425289 -0.4637043 -0.483352
vn 0.6194121 -0.2854653 -0.7313263
vn 0.7425289 -0.4637043 -0.483352
vn 0.5621391 -0.5593107 -0.6092382
vn 0.8245375 -0.08301807 -0.5596837
vn -0.6120795 0.7820775 -0.117104
vn -0.5992824 0.8002205 -0.02253447
vn -0.2361278 0.9384064 -0.2522642
vn -0.1869781 0.9738312 -0.1291977
vn 0.1575619 0.9746927 -0.1585824
vn 0.1670381 0.9736839 -0.1550417
vn 0.2590314 0.785369 -0.5622261
vn -0.1231932 0.852202 -0.5085028
vn 0.09597009 0.9946373 -0.03855124
vn -0.2241602 0.9109479 -0.3463038
vn -0.5652357 0.8243412 0.03114791
vn 0.1475049 0.9882808 -0.03928761
vn 0.2004486 0.9754382 -0.09132636
vn 0.193567 0.9792963 0.05925016
vn 0.4418212 0.7842754 -0.4355528
vn 0.3210501 0.7689193 -0.5528922
vn 0.1777067 0.9829539 0.04713904
vn 0.3880793 0.8409829 0.3770176
vn 0.4607286 0.7883467 0.4077238
vn 0.6698076 0.6825026 0.2924859
vn 0.7639139 0.5053803 0.4012808
vn 0.6856717 0.4568614 0.5666852
vn 0.6446147 0.450826 0.6174366
vn 0.7949437 0.3230561 0.5135167
vn 0.5052028 0.7914429 0.3440759
vn 0.6365323 0.5758778 0.5130216
vn 0.8909649 0.1353128 0.4334421
vn 0.2901498 0.8979102 0.3310142
vn 0.2223086 0.8955619 0.3854192
vn 0.4838473 0.7873445 0.3820737
vn 0.5396193 0.8395316 -0.06322652
vn 0.8464338 0.4726742 -0.2452116
vn 0.9085066 0.4020948 0.113735
vn 0.1359818 0.8843116 0.4466564
vn -0.1191221 0.9753199 0.1859061
vn 0.004934998 0.9960209 0.0889836
vn 0.3167334 0.9226075 0.2201712
vn 0.5396193 0.8395316 -0.06322652
vn -0.3417061 0.8322761 0.4365244
vn -0.2321832 0.7154992 0.658902
vn 0.1144517 0.6748636 0.729013
vn 0.3151468 0.7593549 0.5692649
vn -0.5564311 0.5648015 0.6094126
vn 0.3056429 0.598056 0.7408856
vn -0.6357039 0.1460453 0.7579917
vn -0.3271495 0.434295 0.8392622
vn 0.524123 0.5677776 0.6347627
vn 0.4908441 0.5600388 0.6674044
vn 0.4892164 0.4243076 0.7619911
vn 0.4548714 0.3593964 0.8148167
vn 0.296237 0.07875637 -0.951862
vn 0.2863918 0.6688969 -0.6859714
vn 0.2723102 -0.1599414 -0.9488235
vn 0.3194197 0.4650393 -0.8256571
vn 0.4638723 0.4337924 -0.772429
vn 0.4545643 0.720084 -0.5242618
vn 0.293586 -0.04579167 -0.9548353
vn 0.002895195 -0.7169887 -0.6970788
vn 0.2723102 -0.1599414 -0.9488235
vn -0.06072313 -0.7472892 -0.6617185
vn -0.04974746 -0.7526228 -0.65657
vn -0.2495281 -0.9588227 -0.1356277
vn -0.2324835 -0.9565191 -0.1761331
vn -0.03050864 -0.7802702 -0.624698
vn 0.1269751 -0.6389464 -0.7586995
vn 0.06417261 -0.6898798 -0.7210739
vn -0.3279226 -0.8633479 0.3835325
vn -0.3554318 -0.771104 0.5282679
vn -0.3653636 -0.1796361 0.9133676
vn -0.1638071 0.006027862 0.986474
vn 0.009849154 -0.7386652 -0.6740006
vn 0.02548848 -0.5780416 -0.8156091
vn -0.4230739 -0.5413734 0.7265834
vn -0.3162586 -0.9321265 0.1764105
vn -0.3441181 -0.7539527 0.5595872
vn -0.1140316 -0.9415846 -0.3168834
vn -0.3447536 -0.7072977 0.6171507
vn -0.3005252 -0.937748 -0.1741071
vn -0.375494 -0.8472536 0.3757201
vn -0.7033045 -0.7027795 -0.1070691
vn -0.31944 -0.7102391 -0.6273105
vn -0.6365214 -0.7545025 -0.1598953
vn -0.7091479 -0.4809527 -0.5155519
vn -0.9165091 -0.2087068 -0.3412514
vn -0.9190679 -0.3940037 0.008682409
vn -0.3447536 -0.7072977 0.6171507
vn -0.6948291 -0.5889795 0.4126931
vn -0.7231543 -0.4670251 0.508857
vn -0.8856619 -0.1191035 0.4487954
vn -0.7745782 -0.6323581 -0.01231735
vn -0.8021265 -0.4820011 0.3525165
vn -0.8286414 0.3003667 -0.4723697
vn -0.9021119 -0.1031011 -0.4190039
vn -0.870912 0.15496 -0.4663688
vn -0.9165091 -0.2087068 -0.3412514
vn -0.7565126 0.5700369 -0.3205411
vn -0.6972809 0.6842952 -0.2133993
vn -0.2899757 -0.516863 0.8054605
vn -0.09198526 -0.02092012 0.9955406
vn -0.5496475 -0.4290525 0.7167994
vn -0.3694318 -0.1539174 0.9164222
vn -0.09198526 -0.02092012 0.9955406
vn -0.2422128 0.000891541 0.9702228
vn -0.09198526 -0.02092012 0.9955406
vn -0.02320824 0.289819 0.9568001
vn -0.2422128 0.000891541 0.9702228
vn -0.01106715 0.370358 0.9288232
vn 0.05590659 0.780031 0.6232383
vn -0.03593687 0.6915491 0.721435
vn 0.03688683 0.9947985 0.0949487
vn 0.07248171 0.9911451 0.1112552
vn 0.1151612 0.9291162 0.3513989
vn 0.1444516 0.9838251 0.1059339
vn -0.06906182 0.7872742 0.6127234
vn 0.05301502 0.8033007 0.5932093
vn -0.07167633 0.3482087 0.9346727
vn -0.008132499 0.6178063 0.7862883
vn -0.1352422 0.7152459 0.6856623
vn -0.2869084 0.3060609 0.9077501
vn -0.1638071 0.006027862 0.986474
vn -0.3653636 -0.1796361 0.9133676
vn -0.4322169 0.1668173 0.8862056
vn -0.1515432 -0.05592475 0.9868673
vn -0.05964801 0.6353548 0.7699132
vn -0.2402406 0.4805028 0.8434462
vn 0.1144517 0.6748636 0.729013
vn 0.2901498 0.8979102 0.3310142
vn -0.5515392 0.5878299 0.5918281
vn -0.1110227 0.8200979 0.5613496
vn -0.6278882 0.5455906 0.5550562
vn -0.7933199 0.3994603 0.4594291
vn -0.6608453 0.6545065 0.3672938
vn -0.8025791 0.4758019 0.3598325
vn -0.9015889 0.3014676 0.3102498
vn -0.9131626 0.240162 0.3293269
vn -0.9264526 0.13618 0.3509139
vn -0.8625949 0.09823708 0.4962654
vn -0.8856619 -0.1191035 0.4487954
vn -0.6663525 -0.2973702 0.683773
vn -0.5318099 0.04633264 0.8455953
vn -0.8856619 -0.1191035 0.4487954
vn 0.4418212 0.7842754 -0.4355528
vn 0.5414178 0.4866399 -0.6856007
vn 0.4638723 0.4337924 -0.772429
vn 0.4411906 0.8236955 -0.3561974
vn 0.5152662 0.8242498 0.2347617
vn 0.4240238 0.8404852 -0.3373255
vn 0.2780651 0.3565063 0.8919547
vn 0.6074033 0.3100509 0.7313889
vn 0.4548714 0.3593964 0.8148167
vn 0.7934595 0.1401681 0.5922626
vn 0.9445034 0.04511818 0.3253886
vn 0.7934595 0.1401681 0.5922626
vn 0.9445034 0.04511818 0.3253886
vn 0.8909649 0.1353128 0.4334421
vn 0.7949437 0.3230561 0.5135167
vn 0.8747287 0.06433119 -0.4803241
vn 0.8982138 0.2537081 -0.3589487
vn 0.8464338 0.4726742 -0.2452116
vn 0.7324821 -0.5924013 -0.3354561
vn 0.8598517 -0.2603787 -0.439156
vn -0.6169277 0.1610949 0.7703562
vn -0.5203602 -0.4359538 0.7342816
vn -0.6357039 0.1460453 0.7579917
vn -0.6357039 0.1460453 0.7579917
vn -0.5203602 -0.4359538 0.7342816
vn -0.3708791 -0.7337027 0.5693234
vn -0.1233349 -0.9383823 0.3228424
vn -0.03613211 -0.9795998 0.1976831
vn 0.2045833 -0.9787222 0.01576902
vn 0.3848894 -0.9177822 -0.09765165
vn 0.7324821 -0.5924013 -0.3354561
vn 0.8184959 -0.4463107 -0.3617613
vn 0.2016631 -0.5125798 -0.834622
vn -0.5195997 0.8257315 -0.2195078
vn -0.6276327 0.775889 -0.06382343
vn -0.7565126 0.5700369 -0.3205411
vn -0.2151339 0.5609893 -0.79938
vn 0.4655204 0.808104 -0.3609135
vn -0.1321393 0.861513 -0.4902393
vn -0.2275121 0.8623453 -0.452326
vn 0.4655204 0.808104 -0.3609135
vn 0.2775248 0.9563947 -0.09104452
vn 0.660868 0.6635369 0.350674
vn 0.4460677 0.7577454 0.4762829
vn 0.4028412 0.2813456 0.8709556
vn 0.1375601 0.445555 0.8846231
vn 0.01467561 -0.01484317 0.9997821
vn -0.3330572 0.2540483 0.9080377
vn -0.4151139 0.8990375 -0.1393268
vn -0.09509757 0.995304 0.01806617
vn -0.3580692 0.7060479 0.6109687
vn -0.5510746 0.6049677 0.5747442
vn -0.0417209 0.8955233 0.4430547
vn -0.5775926 0.7910702 0.2014813
vn -0.7038001 0.7028188 -0.103495
vn -0.3411797 0.8527516 -0.3954886
vn -0.8268179 0.5621689 -0.01839132
vn -0.7501141 0.4891636 -0.4450257
vn -0.2275121 0.8623453 -0.452326
vn -0.2151339 0.5609893 -0.79938
vn -0.7598983 0.2300517 -0.6079726
vn -0.8603498 0.4781954 0.1764294
vn -0.9423321 0.2718631 -0.1951942
vn -0.9747571 0.1316905 0.1802946
vn -0.9713997 0.05336301 -0.2313763
vn -0.9577433 -0.1174457 0.2625533
vn -0.7512108 0.1475927 0.6433497
vn -0.4880772 -0.2269124 0.8427879
vn -0.7363395 0.4944021 0.4619205
vn -0.4880772 -0.2269124 0.8427879
vn -0.9577433 -0.1174457 0.2625533
vn -0.7512108 0.1475927 0.6433497
vn 0.7963374 0.3790767 0.4713255
vn 0.2286161 0.6981287 0.6784917
vn 0.6878622 0.6125169 0.3894466
vn 0.1768319 0.8711382 0.4580925
vn 0.9129549 0.3901804 -0.1194689
vn 0.9669407 0.1269775 -0.2211387
vn -0.3551945 0.8725166 0.3354872
vn -0.2411236 0.9680573 0.06873488
vn -0.597297 0.7868423 -0.1552911
vn -0.4540718 0.8391827 -0.2993177
vn -0.5403748 0.6062105 -0.5835271
vn -0.3095181 0.6972901 -0.6465177
vn -0.1733903 0.3202563 -0.9313279
vn 0.06156807 0.4553108 -0.8882012
vn 0.561955 0.8219404 0.09284703
vn 0.2650203 0.9598267 0.09217868
vn 0.7034881 0.6881867 -0.1774926
vn 0.5714895 0.6355908 -0.5190608
vn 0.6299235 0.3148132 -0.7099923
vn 0.2607973 0.7019745 -0.6627343
vn 0.02638434 0.8467231 -0.5313791
vn -0.06028665 0.9495925 -0.3076353
vn 0.09293271 0.9877427 -0.1254114
vn 0.3473001 0.8900071 -0.295415
vn 0.6299235 0.3148132 -0.7099923
vn 0.9669407 0.1269775 -0.2211387
vn 0.9129549 0.3901804 -0.1194689
vn 0.4952899 0.1003178 -0.8629161
vn 0.06156807 0.4553108 -0.8882012
vn -0.1733903 0.3202563 -0.9313279
vn 0.9489383 0.3154603 0.0009758165
vn 0.8956071 0.4447789 0.007724769
vn 0.9343994 0.3562233 -0.001636076
vn 0.8384675 0.5448484 0.01060629
vn 0.6235514 0.7815601 0.01864011
vn 0.4590954 0.8880489 0.02450637
vn 0.1905171 0.9808519 0.04040629
vn 0.1220186 0.9913242 0.04886531
vn -0.1982417 0.9757248 0.09306595
vn -0.1784554 0.9791328 0.09722446
vn -0.546483 0.8281138 0.1248353
vn -0.555439 0.8206339 0.1343403
vn -0.8703378 0.4802207 0.1090884
vn -0.86169 0.4905994 0.1296245
vn -0.9955103 -0.0559359 0.07635675
vn -0.9846873 -0.1570764 0.07561716
vn 0.06923446 0.9959958 0.05656012
vn -0.04787671 0.9953766 0.08326538
vn -0.03335552 0.9962219 0.08018239
vn 0.3066217 0.9514104 0.02830851
vn 0.2869884 0.957208 0.03728874
vn 0.4913996 0.870416 0.03004177
vn 0.3792782 0.9246734 0.03357127
vn 0.7719493 0.6350581 0.02820428
vn 0.8047896 0.5932254 0.01993292
vn 0.910361 0.4137602 0.006720337
vn 0.9194528 0.3931832 0.003658088
vn 0.9034629 0.4285738 0.008903627
vn 0.7433649 0.6679694 0.03500626
vn 0.3814208 0.9235779 0.03901293
vn 0.1535327 0.9872563 0.04186583
vn 0.1298866 0.9906516 0.04169944
vn -0.1206405 0.9889793 0.08582339
vn 0.2675695 0.9630457 0.03081303
vn -0.01812799 0.9971412 0.0733541
vn -0.1892227 0.9767658 0.1006152
vn -0.5175423 0.8444117 0.1382707
vn -0.4848992 0.8596486 0.160863
vn -0.8362349 0.5303088 0.1395838
vn -0.829332 0.5254582 0.1900052
vn -0.9897669 0.09326012 0.1079998
vn -0.9426284 0.2925577 0.1608156
vn 0.1269191 0.9907575 0.04786519
vn -0.1251114 0.9878646 0.09203631
vn -0.498237 0.8435397 0.2005012
vn -0.8731331 0.4296936 0.2302215
vn 0.1009179 0.8865623 0.4514674
vn 0.2030062 0.8967459 0.3932369
vn 0.3514731 0.8493068 0.3938841
vn 0.2372731 0.7354638 0.634661
vn 0.2592694 0.746481 0.6128176
vn 0.5407894 0.8111735 0.2225857
vn -0.02841472 0.8819858 0.4704185
vn 0.08930439 0.6120428 0.7857661
vn 0.06049817 0.6732296 0.7369545
vn 0.2116179 0.9014618 0.3776036
vn 0.1164685 0.8998893 0.4202789
vn -0.1695182 0.7556524 0.6326554
vn 0.05784678 0.5344343 0.8432282
vn 0.03933343 0.5370771 0.8426156
vn 0.265498 0.678974 0.6844744
vn 0.3117553 0.5404541 0.7814844
vn 0.4802568 0.7815725 0.3981178
vn 0.9000947 0.4356423 0.006738252
vn 0.6547732 0.7548911 0.03756921
vn -0.3083711 0.7486606 0.5868685
vn 0.3885117 -0.9197847 -0.05526936
vn 0.614615 -0.7852874 -0.07464519
vn 0.6828719 -0.7254326 -0.08621716
vn 0.319558 -0.9459698 -0.05498817
vn -0.1562345 -0.9867938 -0.04276506
vn -0.1381439 -0.9880207 -0.06878565
vn -0.5774736 -0.8153571 -0.04143783
vn -0.6525411 -0.7568191 -0.03761853
vn -0.9846873 -0.1570764 0.07561716
vn -0.9955103 -0.0559359 0.07635675
vn -0.2529831 -0.9670643 -0.02803707
vn 0.4089457 -0.9109169 -0.05471611
vn -0.3260656 -0.945201 -0.01661862
vn -0.6422937 -0.7658985 -0.02929542
vn -0.6147746 -0.7879391 -0.03469956
vn 0.416018 -0.9077589 -0.05387717
vn 0.7201791 -0.6886302 -0.08444236
vn 0.7484067 -0.6580289 -0.08297826
vn -0.8473243 -0.5304958 0.02481304
vn -0.7509473 -0.6603619 0.0006015789
vn 0.4229605 -0.9045727 -0.05341178
vn -0.3776243 -0.9259229 -0.008160749
vn 0.7661545 -0.6374069 -0.08197363
vn -0.8880437 -0.4581908 0.03794198
vn -0.667388 -0.7443123 -0.0243418
vn 0.5617071 -0.8251582 -0.05999188
vn 0.7712803 -0.6284355 -0.1009717
vn -0.8348618 -0.5502089 0.01660996
vn -0.6975774 -0.7164623 -0.00821914
vn -0.264859 -0.964287 -0.0005747615
vn -0.8731331 0.4296936 0.2302215
vn -0.9663495 -0.2411741 0.08946202
vn -0.9363621 -0.3410528 0.08311947
vn -0.6327955 0.7383013 0.2334119
vn -0.9448406 0.2593759 0.200001
vn -0.9774984 0.1361056 0.1611585
vn -0.9448406 0.2593759 0.200001
vn -0.8348618 -0.5502089 0.01660996
vn 0.1388977 -0.06697252 0.9880396
vn 0.03898342 -0.055373 0.9977044
vn 0.1390935 -0.0677597 0.9879583
vn -0.06265402 -0.02763683 0.9976526
vn -0.1626531 -0.006736851 0.9866604
vn -0.1627821 0.01541414 0.9865416
vn 0.9933334 0.03029621 -0.1112243
vn 0.9962214 0.02657437 -0.08268432
vn 0.9962262 0.02131508 -0.08413679
vn 0.989611 0.03925386 -0.1383081
vn 0.9850777 0.04291501 -0.1666738
vn 0.9850633 0.04816505 -0.1653187
vn -0.9484171 0.2631458 0.176803
vn -0.9540914 0.273616 0.1218361
vn -0.9471557 0.2682362 0.1759133
vn -0.9567748 0.2831558 0.0663693
vn -0.9579188 0.2867989 0.01174497
vn -0.9564532 0.2916821 0.01090486
vn -0.03672703 0.03692666 -0.9986429
vn -0.08700732 0.05440794 -0.9947208
vn -0.03126191 0.04455063 -0.9985179
vn -0.141595 0.06284748 -0.9879276
vn -0.1987732 0.06786498 -0.9776929
vn -0.199888 0.06213222 -0.9778469
vn -0.06864238 0.2635346 0.9622046
vn 0.04520993 0.5046212 0.8621563
vn 0.005778007 0.3273513 0.944885
vn -0.01304284 0.2713265 0.9623989
vn 0.03602774 0.3731005 0.9270911
vn 0.1783925 0.4345722 0.8827928
vn 0.2465692 0.4985419 0.8310592
vn 0.3677138 0.4545893 0.8112552
vn 0.3269044 0.3189459 0.8896106
vn 0.4260476 0.431218 0.7953203
vn 0.005778007 0.3273513 0.944885
vn 0.1751646 0.6557977 0.7343343
vn 0.06805423 0.6316736 0.7722416
vn 0.1503372 0.3504112 0.9244516
vn 0.3269044 0.3189459 0.8896106
vn 0.3104441 0.1985974 0.9296147
vn 0.265498 0.678974 0.6844744
vn 0.34861 0.7506865 0.5611959
vn 0.517087 0.6112866 0.5991241
vn -0.07851236 0.9722838 -0.2202273
vn -0.3965468 0.8768499 -0.271818
vn -0.2432478 0.9372082 -0.2499422
vn -0.3965561 0.8768436 -0.2718247
vn -0.9757221 -0.00115805 -0.2190092
vn -0.9607549 -0.2190066 -0.1702526
vn -0.9757228 -0.00114947 -0.219006
vn -0.8928692 -0.4367715 -0.109614
vn -0.9607549 -0.2190066 -0.1702526
vn -0.8161033 -0.5743864 -0.06368293
vn -0.8928692 -0.4367715 -0.109614
vn -0.8468558 -0.5256573 -0.0807448
vn -0.8160566 -0.5744547 -0.06366716
vn -0.7447924 -0.6666894 -0.02845227
vn -0.4499165 -0.8890982 0.08414074
vn -0.1824936 -0.9699225 0.1610788
vn 0.3185344 -0.9111497 0.261423
vn 0.5529956 -0.7821116 0.2872233
vn 0.8937407 -0.3546271 0.2747132
vn 0.9735522 -0.03422726 0.2258858
vn 0.1813721 0.9700843 -0.161371
vn 0.02252247 0.9505721 0.3096859
vn -0.2432478 0.9372082 -0.2499422
vn 0.2420968 0.9655227 0.09568243
vn 0.4687957 0.8798558 -0.07800219
vn 0.3974142 0.872088 0.2855249
vn 0.7823862 0.6210634 0.04639101
vn 0.636384 0.6551166 0.4072317
vn 0.9735522 -0.03422726 0.2258858
vn 0.8887787 0.4457092 0.1068444
vn 0.8937407 -0.3546271 0.2747132
vn -0.978117 -0.1954703 0.07126299
vn 0.1576586 0.986653 0.04073851
vn -0.03085527 0.9970011 0.07096855
vn 0.07721802 0.9954335 0.05612086
vn -0.007637418 0.9969055 0.07823705
vn 0.2767659 0.9604597 0.03029712
vn 0.2951707 0.9550349 0.02797772
vn 0.1306592 0.990266 0.0479713
vn 0.3121227 0.9495409 0.03084497
vn -0.05348132 0.9952214 0.08169515
vn 0.3183601 0.005567546 -0.9479536
vn 0.0688559 -0.5190389 -0.8519728
vn 0.3307243 -0.445311 0.8320574
vn 0.5679616 0.1056333 0.8162483
vn 0.1377074 -0.3943334 0.9085912
vn 0.576066 0.7687882 -0.277692
vn 0.1648129 0.9760445 -0.1420346
vn 0.5700642 0.8199817 0.05154352
g Pump_BottomPipe_0
f 3/3/3 2/2/2 1/1/1
f 4/4/4 2/2/2 3/3/3
f 7/7/7 6/6/6 5/5/5
f 8/8/8 6/6/6 7/7/7
f 9/9/9 8/8/8 7/7/7
f 10/10/10 8/8/8 9/9/9
f 13/13/13 12/12/12 11/11/11
f 14/14/14 12/12/12 13/13/13
f 17/17/17 16/16/16 15/15/15
f 18/18/18 16/16/16 17/17/17
f 21/21/21 20/20/20 19/19/19
f 19/19/19 23/23/23 22/22/22
f 19/19/19 22/22/22 24/24/24
f 24/24/24 22/22/22 25/25/25
f 24/24/24 25/25/25 26/26/26
f 26/26/26 25/25/25 27/27/27
f 30/30/30 29/29/29 28/28/28
f 28/28/28 29/29/29 31/31/31
f 29/29/29 33/33/33 32/32/32
f 32/32/32 33/33/33 34/34/34
f 32/32/32 34/34/34 35/35/35
f 35/35/35 34/34/34 36/36/36
f 39/39/39 38/38/38 37/37/37
f 37/37/37 38/38/38 40/40/40
f 37/37/37 40/40/40 41/41/41
f 41/41/41 40/40/40 42/42/42
f 44/44/44 43/43/43 39/39/39
f 44/44/44 45/45/45 43/43/43
f 46/46/46 45/45/45 44/44/44
f 46/46/46 47/47/47 45/45/45
f 49/49/49 43/43/43 48/48/48
f 51/51/51 50/50/50 46/46/46
f 54/54/54 53/53/53 52/52/52
f 55/55/55 53/53/53 54/54/54
f 55/55/55 56/56/56 53/53/53
f 57/57/57 56/56/56 55/55/55
f 60/60/60 59/59/59 58/58/58
f 58/58/58 59/59/59 61/61/61
f 64/64/64 63/63/63 62/62/62
f 62/62/62 63/63/63 65/65/65
f 68/68/68 67/67/67 66/66/66
f 66/66/66 67/67/67 69/69/69
f 72/72/72 71/71/71 70/70/70
f 73/73/73 71/71/71 72/72/72
f 73/73/73 74/74/74 71/71/71
f 75/75/75 74/74/74 73/73/73
f 75/75/75 76/76/76 74/74/74
f 77/77/77 76/76/76 75/75/75
f 77/77/77 78/78/78 76/76/76
f 79/79/79 78/78/78 77/77/77
f 79/79/79 80/80/80 78/78/78
f 81/81/81 80/80/80 79/79/79
f 71/71/71 82/82/82 70/70/70
f 70/70/70 82/82/82 83/83/83
f 71/71/71 84/84/84 82/82/82
f 74/74/74 84/84/84 71/71/71
f 80/80/80 85/85/85 78/78/78
f 78/78/78 85/85/85 86/86/86
f 78/78/78 86/86/86 76/76/76
f 74/74/74 87/87/87 84/84/84
f 76/76/76 87/87/87 74/74/74
f 76/76/76 86/86/86 87/87/87
f 85/85/85 88/88/88 86/86/86
f 86/86/86 88/88/88 89/89/89
f 86/86/86 89/89/89 87/87/87
f 87/87/87 89/89/89 90/90/90
f 87/87/87 90/90/90 84/84/84
f 84/84/84 90/90/90 91/91/91
f 84/84/84 91/91/91 82/82/82
f 82/82/82 91/91/91 92/92/92
f 82/82/82 92/92/92 83/83/83
f 83/83/83 92/92/92 93/93/93
f 83/83/83 93/93/93 94/94/94
f 95/95/95 83/83/83 94/94/94
f 70/70/70 83/83/83 95/95/95
f 95/95/95 72/72/72 70/70/70
f 96/96/96 72/72/72 95/95/95
f 94/94/94 93/93/93 97/97/97
f 96/96/96 98/98/98 72/72/72
f 72/72/72 98/98/98 99/99/99
f 72/72/72 99/99/99 73/73/73
f 99/99/99 100/100/100 73/73/73
f 73/73/73 100/100/100 101/101/101
f 100/100/100 102/102/102 101/101/101
f 101/101/101 102/102/102 103/103/103
f 101/101/101 103/103/103 104/104/104
f 104/104/104 103/103/103 105/105/105
f 104/104/104 105/105/105 106/106/106
f 106/106/106 105/105/105 107/107/107
f 106/106/106 107/107/107 108/108/108
f 108/108/108 107/107/107 109/109/109
f 108/108/108 109/109/109 110/110/110
f 110/110/110 109/109/109 111/111/111
f 112/112/112 105/105/105 103/103/103
f 112/112/112 103/103/103 113/113/113
f 114/114/114 105/105/105 112/112/112
f 114/114/114 107/107/107 105/105/105
f 115/115/115 107/107/107 114/114/114
f 115/115/115 109/109/109 107/107/107
f 116/116/116 109/109/109 115/115/115
f 116/116/116 111/111/111 109/109/109
f 117/117/117 111/111/111 116/116/116
f 113/113/113 103/103/103 118/118/118
f 119/119/119 113/113/113 118/118/118
f 120/120/120 113/113/113 119/119/119
f 102/102/102 119/119/119 118/118/118
f 102/102/102 118/118/118 103/103/103
f 121/121/121 119/119/119 102/102/102
f 81/81/81 108/108/108 110/110/110
f 100/100/100 122/122/122 102/102/102
f 123/123/123 122/122/122 100/100/100
f 123/123/123 124/124/124 122/122/122
f 125/125/125 124/124/124 123/123/123
f 99/99/99 123/123/123 100/100/100
f 126/126/126 123/123/123 99/99/99
f 126/126/126 125/125/125 123/123/123
f 127/127/127 125/125/125 126/126/126
f 79/79/79 108/108/108 81/81/81
f 79/79/79 106/106/106 108/108/108
f 77/77/77 106/106/106 79/79/79
f 77/77/77 104/104/104 106/106/106
f 75/75/75 104/104/104 77/77/77
f 75/75/75 101/101/101 104/104/104
f 73/73/73 101/101/101 75/75/75
f 130/130/130 129/129/129 128/128/128
f 131/131/131 129/129/129 130/130/130
f 129/129/129 132/132/132 128/128/128
f 128/128/128 132/132/132 133/133/133
f 129/129/129 134/134/134 132/132/132
f 132/132/132 134/134/134 135/135/135
f 134/134/134 136/136/136 135/135/135
f 134/134/134 137/137/137 136/136/136
f 138/138/138 137/137/137 134/134/134
f 129/129/129 138/138/138 134/134/134
f 131/131/131 138/138/138 129/129/129
f 135/135/135 136/136/136 139/139/139
f 137/137/137 140/140/140 136/136/136
f 141/141/141 140/140/140 137/137/137
f 140/140/140 142/142/142 136/136/136
f 136/136/136 142/142/142 139/139/139
f 145/145/145 144/144/144 143/143/143
f 143/143/143 144/144/144 146/146/146
f 144/144/144 147/147/147 146/146/146
f 146/146/146 147/147/147 148/148/148
f 146/146/146 149/149/149 143/143/143
f 143/143/143 149/149/149 150/150/150
f 146/146/146 151/151/151 149/149/149
f 148/148/148 151/151/151 146/146/146
f 151/151/151 152/152/152 149/149/149
f 149/149/149 152/152/152 153/153/153
f 152/152/152 154/154/154 153/153/153
f 153/153/153 154/154/154 155/155/155
f 154/154/154 156/156/156 155/155/155
f 155/155/155 156/156/156 157/157/157
f 158/158/158 157/157/157 156/156/156
f 159/159/159 157/157/157 158/158/158
f 159/159/159 160/160/160 157/157/157
f 161/161/161 160/160/160 159/159/159
f 162/162/162 157/157/157 160/160/160
f 155/155/155 157/157/157 162/162/162
f 153/153/153 163/163/163 149/149/149
f 164/164/164 163/163/163 153/153/153
f 165/165/165 164/164/164 153/153/153
f 166/166/166 164/164/164 155/155/155
f 169/169/169 168/168/168 167/167/167
f 170/170/170 168/168/168 169/169/169
f 173/173/173 172/172/172 171/171/171
f 176/176/176 175/175/175 174/174/174
f 174/174/174 175/175/175 177/177/177
f 174/174/174 177/177/177 178/178/178
f 178/178/178 177/177/177 179/179/179
f 178/178/178 179/179/179 180/180/180
f 180/180/180 179/179/179 181/181/181
f 180/180/180 181/181/181 182/182/182
f 182/182/182 181/181/181 183/183/183
f 182/182/182 183/183/183 184/184/184
f 184/184/184 183/183/183 185/185/185
f 176/176/176 186/186/186 175/175/175
f 187/187/187 186/186/186 176/176/176
f 177/177/177 188/188/188 179/179/179
f 179/179/179 188/188/188 189/189/189
f 179/179/179 189/189/189 181/181/181
f 181/181/181 189/189/189 190/190/190
f 181/181/181 190/190/190 183/183/183
f 183/183/183 190/190/190 191/191/191
f 183/183/183 191/191/191 185/185/185
f 185/185/185 191/191/191 192/192/192
f 177/177/177 193/193/193 188/188/188
f 175/175/175 193/193/193 177/177/177
f 186/186/186 194/194/194 175/175/175
f 197/197/197 196/196/196 195/195/195
f 200/200/200 199/199/199 198/198/198
f 199/199/199 200/200/200 201/201/201
f 201/201/201 200/200/200 202/202/202
f 205/205/205 204/204/204 203/203/203
f 206/206/206 204/204/204 205/205/205
f 204/204/204 207/207/207 203/203/203
f 203/203/203 207/207/207 208/208/208
f 207/207/207 209/209/209 208/208/208
f 208/208/208 209/209/209 210/210/210
f 209/209/209 211/211/211 210/210/210
f 210/210/210 211/211/211 212/212/212
f 211/211/211 213/213/213 212/212/212
f 212/212/212 213/213/213 214/214/214
f 215/215/215 206/206/206 205/205/205
f 216/216/216 206/206/206 215/215/215
f 205/205/205 217/217/217 215/215/215
f 215/215/215 217/217/217 218/218/218
f 205/205/205 219/219/219 217/217/217
f 203/203/203 219/219/219 205/205/205
f 203/203/203 220/220/220 219/219/219
f 208/208/208 220/220/220 203/203/203
f 208/208/208 221/221/221 220/220/220
f 210/210/210 221/221/221 208/208/208
f 210/210/210 222/222/222 221/221/221
f 212/212/212 222/222/222 210/210/210
f 212/212/212 214/214/214 222/222/222
f 220/220/220 223/223/223 219/219/219
f 219/219/219 223/223/223 224/224/224
f 219/219/219 224/224/224 217/217/217
f 223/223/223 225/225/225 224/224/224
f 224/224/224 225/225/225 226/226/226
f 225/225/225 227/227/227 226/226/226
f 225/225/225 228/228/228 227/227/227
f 229/229/229 228/228/228 225/225/225
f 223/223/223 229/229/229 225/225/225
f 229/229/229 230/230/230 228/228/228
f 231/231/231 230/230/230 229/229/229
f 231/231/231 232/232/232 230/230/230
f 226/226/226 227/227/227 233/233/233
f 226/226/226 233/233/233 234/234/234
f 234/234/234 233/233/233 235/235/235
f 234/234/234 235/235/235 236/236/236
f 236/236/236 235/235/235 237/237/237
f 237/237/237 235/235/235 238/238/238
f 238/238/238 235/235/235 239/239/239
f 240/240/240 230/230/230 232/232/232
f 241/241/241 230/230/230 240/240/240
f 241/241/241 228/228/228 230/230/230
f 242/242/242 228/228/228 241/241/241
f 242/242/242 227/227/227 228/228/228
f 243/243/243 227/227/227 242/242/242
f 243/243/243 233/233/233 227/227/227
f 244/244/244 233/233/233 243/243/243
f 244/244/244 235/235/235 233/233/233
f 245/245/245 235/235/235 244/244/244
f 246/246/246 234/234/234 236/236/236
f 247/247/247 234/234/234 246/246/246
f 247/247/247 226/226/226 234/234/234
f 224/224/224 226/226/226 247/247/247
f 218/218/218 247/247/247 246/246/246
f 217/217/217 247/247/247 218/218/218
f 217/217/217 224/224/224 247/247/247
f 248/248/248 229/229/229 223/223/223
f 248/248/248 231/231/231 229/229/229
f 249/249/249 231/231/231 248/248/248
f 249/249/249 232/232/232 231/231/231
f 250/250/250 232/232/232 249/249/249
f 220/220/220 248/248/248 223/223/223
f 221/221/221 248/248/248 220/220/220
f 221/221/221 249/249/249 248/248/248
f 222/222/222 249/249/249 221/221/221
f 222/222/222 250/250/250 249/249/249
f 214/214/214 250/250/250 222/222/222
f 253/253/253 252/252/252 251/251/251
f 254/254/254 252/252/252 253/253/253
f 254/254/254 255/255/255 252/252/252
f 256/256/256 255/255/255 254/254/254
f 256/256/256 257/257/257 255/255/255
f 258/258/258 257/257/257 256/256/256
f 258/258/258 259/259/259 257/257/257
f 260/260/260 259/259/259 258/258/258
f 260/260/260 261/261/261 259/259/259
f 262/262/262 261/261/261 260/260/260
f 252/252/252 263/263/263 251/251/251
f 251/251/251 263/263/263 264/264/264
f 261/261/261 265/265/265 259/259/259
f 259/259/259 265/265/265 266/266/266
f 259/259/259 266/266/266 257/257/257
f 257/257/257 266/266/266 267/267/267
f 257/257/257 267/267/267 255/255/255
f 255/255/255 267/267/267 268/268/268
f 252/252/252 268/268/268 263/263/263
f 255/255/255 268/268/268 252/252/252
f 263/263/263 269/269/269 264/264/264
f 268/268/268 270/270/270 263/263/263
f 263/263/263 270/270/270 271/271/271
f 267/267/267 272/272/272 268/268/268
f 268/268/268 272/272/272 273/273/273
f 266/266/266 274/274/274 267/267/267
f 267/267/267 274/274/274 275/275/275
f 274/274/274 276/276/276 275/275/275
f 274/274/274 277/277/277 276/276/276
f 278/278/278 277/277/277 274/274/274
f 265/265/265 279/279/279 266/266/266
f 281/281/281 276/276/276 280/280/280
f 284/284/284 283/283/283 282/282/282
f 282/282/282 283/283/283 285/285/285
f 282/282/282 285/285/285 286/286/286
f 286/286/286 285/285/285 287/287/287
f 288/288/288 286/286/286 287/287/287
f 289/289/289 286/286/286 288/288/288
f 290/290/290 289/289/289 288/288/288
f 291/291/291 289/289/289 290/290/290
f 292/292/292 288/288/288 287/287/287
f 287/287/287 293/293/293 292/292/292
f 285/285/285 293/293/293 287/287/287
f 285/285/285 294/294/294 293/293/293
f 283/283/283 294/294/294 285/285/285
f 295/295/295 288/288/288 292/292/292
f 295/295/295 290/290/290 288/288/288
f 296/296/296 290/290/290 295/295/295
f 297/297/297 296/296/296 295/295/295
f 297/297/297 295/295/295 298/298/298
f 298/298/298 295/295/295 292/292/292
f 299/299/299 297/297/297 298/298/298
f 298/298/298 300/300/300 299/299/299
f 301/301/301 300/300/300 298/298/298
f 302/302/302 297/297/297 299/299/299
f 302/302/302 303/303/303 297/297/297
f 304/304/304 303/303/303 302/302/302
f 294/294/294 305/305/305 293/293/293
f 293/293/293 305/305/305 306/306/306
f 293/293/293 307/307/307 292/292/292
f 292/292/292 307/307/307 298/298/298
f 309/309/309 304/304/304 308/308/308
f 308/308/308 304/304/304 310/310/310
f 308/308/308 310/310/310 311/311/311
f 311/311/311 310/310/310 312/312/312
f 313/313/313 308/308/308 311/311/311
f 314/314/314 308/308/308 313/313/313
f 315/315/315 314/314/314 313/313/313
f 316/316/316 314/314/314 315/315/315
f 317/317/317 316/316/316 315/315/315
f 318/318/318 316/316/316 317/317/317
f 318/318/318 319/319/319 316/316/316
f 320/320/320 319/319/319 318/318/318
f 319/319/319 321/321/321 316/316/316
f 316/316/316 322/322/322 314/314/314
f 314/314/314 323/323/323 308/308/308
f 324/324/324 323/323/323 314/314/314
f 327/327/327 326/326/326 325/325/325
f 329/329/329 326/326/326 328/328/328
f 332/332/332 331/331/331 330/330/330
f 330/330/330 331/331/331 333/333/333
f 335/335/335 333/333/333 334/334/334
f 334/334/334 333/333/333 336/336/336
f 339/339/339 338/338/338 337/337/337
f 337/337/337 338/338/338 340/340/340
f 343/343/343 342/342/342 341/341/341
f 343/343/343 341/341/341 344/344/344
f 343/343/343 344/344/344 345/345/345
f 345/345/345 344/344/344 346/346/346
f 344/344/344 347/347/347 346/346/346
f 348/348/348 347/347/347 344/344/344
f 349/349/349 343/343/343 345/345/345
f 350/350/350 343/343/343 349/349/349
f 351/351/351 342/342/342 343/343/343
f 352/352/352 349/349/349 345/345/345
f 352/352/352 345/345/345 353/353/353
f 353/353/353 345/345/345 346/346/346
f 353/353/353 354/354/354 352/352/352
f 353/353/353 355/355/355 354/354/354
f 356/356/356 355/355/355 353/353/353
f 347/347/347 356/356/356 346/346/346
f 346/346/346 356/356/356 353/353/353
f 352/352/352 354/354/354 357/357/357
f 354/354/354 358/358/358 357/357/357
f 354/354/354 359/359/359 358/358/358
f 360/360/360 358/358/358 359/359/359
f 360/360/360 359/359/359 361/361/361
f 361/361/361 359/359/359 362/362/362
f 361/361/361 362/362/362 363/363/363
f 363/363/363 362/362/362 364/364/364
f 357/357/357 358/358/358 365/365/365
f 366/366/366 358/358/358 360/360/360
f 366/366/366 365/365/365 358/358/358
f 363/363/363 364/364/364 367/367/367
f 368/368/368 357/357/357 365/365/365
f 369/369/369 368/368/368 365/365/365
f 369/369/369 365/365/365 370/370/370
f 371/371/371 370/370/370 360/360/360
f 371/371/371 360/360/360 372/372/372
f 372/372/372 360/360/360 373/373/373
f 374/374/374 368/368/368 369/369/369
f 375/375/375 374/374/374 369/369/369
f 375/375/375 369/369/369 376/376/376
f 376/376/376 369/369/369 377/377/377
f 376/376/376 377/377/377 378/378/378
f 379/379/379 374/374/374 375/375/375
f 379/379/379 380/380/380 374/374/374
f 380/380/380 381/381/381 374/374/374
f 374/374/374 382/382/382 368/368/368
f 383/383/383 380/380/380 379/379/379
f 380/380/380 384/384/384 381/381/381
f 383/383/383 385/385/385 380/380/380
f 380/380/380 385/385/385 386/386/386
f 382/382/382 388/388/388 387/387/387
f 388/388/388 389/389/389 387/387/387
f 390/390/390 389/389/389 388/388/388
f 392/392/392 391/391/391 347/347/347
f 393/393/393 391/391/391 392/392/392
f 391/391/391 394/394/394 347/347/347
f 347/347/347 394/394/394 356/356/356
f 394/394/394 395/395/395 356/356/356
f 356/356/356 395/395/395 396/396/396
f 399/399/399 398/398/398 397/397/397
f 400/400/400 398/398/398 399/399/399
f 398/398/398 401/401/401 397/397/397
f 398/398/398 402/402/402 401/401/401
f 402/402/402 403/403/403 401/401/401
f 401/401/401 403/403/403 404/404/404
f 401/401/401 404/404/404 405/405/405
f 405/405/405 404/404/404 406/406/406
f 402/402/402 407/407/407 403/403/403
f 408/408/408 407/407/407 402/402/402
f 408/408/408 409/409/409 407/407/407
f 410/410/410 409/409/409 408/408/408
f 404/404/404 411/411/411 406/406/406
f 406/406/406 411/411/411 412/412/412
f 409/409/409 413/413/413 407/407/407
f 407/407/407 414/414/414 403/403/403
f 407/407/407 415/415/415 414/414/414
f 403/403/403 414/414/414 416/416/416
f 404/404/404 416/416/416 411/411/411
f 403/403/403 416/416/416 404/404/404
f 417/417/417 410/410/410 408/408/408
f 418/418/418 408/408/408 402/402/402
f 419/419/419 408/408/408 418/418/418
f 420/420/420 419/419/419 418/418/418
f 421/421/421 418/418/418 398/398/398
f 422/422/422 418/418/418 421/421/421
f 418/418/418 402/402/402 398/398/398
f 424/424/424 420/420/420 423/423/423
f 425/425/425 420/420/420 424/424/424
f 427/427/427 426/426/426 420/420/420
f 429/429/429 428/428/428 425/425/425
f 425/425/425 431/431/431 430/430/430
f 434/434/434 433/433/433 432/432/432
f 435/435/435 433/433/433 434/434/434
f 434/434/434 432/432/432 436/436/436
f 436/436/436 432/432/432 437/437/437
f 440/440/440 439/439/439 438/438/438
f 439/439/439 410/410/410 438/438/438
f 443/443/443 442/442/442 441/441/441
f 446/446/446 445/445/445 444/444/444
f 447/447/447 445/445/445 446/446/446
f 447/447/447 448/448/448 445/445/445
f 449/449/449 448/448/448 447/447/447
f 449/449/449 450/450/450 448/448/448
f 450/450/450 451/451/451 448/448/448
f 448/448/448 451/451/451 452/452/452
f 451/451/451 453/453/453 452/452/452
f 451/451/451 352/352/352 453/453/453
f 453/453/453 352/352/352 357/357/357
f 453/453/453 357/357/357 368/368/368
f 453/453/453 368/368/368 454/454/454
f 455/455/455 453/453/453 454/454/454
f 448/448/448 455/455/455 445/445/445
f 451/451/451 349/349/349 352/352/352
f 445/445/445 456/456/456 444/444/444
f 445/445/445 457/457/457 456/456/456
f 457/457/457 458/458/458 456/456/456
f 456/456/456 458/458/458 459/459/459
f 456/456/456 459/459/459 460/460/460
f 460/460/460 459/459/459 461/461/461
f 459/459/459 462/462/462 461/461/461
f 461/461/461 462/462/462 463/463/463
f 459/459/459 464/464/464 462/462/462
f 465/465/465 464/464/464 459/459/459
f 444/444/444 456/456/456 460/460/460
f 458/458/458 467/467/467 466/466/466
f 470/470/470 469/469/469 468/468/468
f 473/473/473 472/472/472 471/471/471
f 342/342/342 472/472/472 473/473/473
f 473/473/473 471/471/471 474/474/474
f 474/474/474 471/471/471 475/475/475
f 474/474/474 475/475/475 476/476/476
f 476/476/476 475/475/475 477/477/477
f 476/476/476 477/477/477 478/478/478
f 481/481/481 480/480/480 479/479/479
f 484/484/484 483/483/483 482/482/482
f 482/482/482 483/483/483 485/485/485
f 487/487/487 486/486/486 354/354/354
f 490/490/490 489/489/489 488/488/488
f 491/491/491 489/489/489 490/490/490
f 491/491/491 492/492/492 489/489/489
f 495/495/495 494/494/494 493/493/493
f 495/495/495 496/496/496 494/494/494
f 499/499/499 498/498/498 497/497/497
f 501/501/501 498/498/498 500/500/500
f 504/504/504 503/503/503 502/502/502
f 507/507/507 506/506/506 505/505/505
f 507/507/507 508/508/508 506/506/506
f 509/509/509 508/508/508 507/507/507
f 509/509/509 510/510/510 508/508/508
f 511/511/511 510/510/510 509/509/509
f 511/511/511 512/512/512 510/510/510
f 513/513/513 512/512/512 511/511/511
f 514/514/514 401/401/401 405/405/405
f 516/516/516 515/515/515 344/344/344
f 517/517/517 515/515/515 516/516/516
f 344/344/344 341/341/341 516/516/516
f 520/520/520 519/519/519 518/518/518
f 523/523/523 522/522/522 521/521/521
f 523/523/523 524/524/524 522/522/522
f 525/525/525 524/524/524 523/523/523
f 525/525/525 526/526/526 524/524/524
f 527/527/527 526/526/526 525/525/525
f 527/527/527 528/528/528 526/526/526
f 529/529/529 528/528/528 527/527/527
f 530/530/530 523/523/523 521/521/521
f 531/531/531 523/523/523 530/530/530
f 531/531/531 525/525/525 523/523/523
f 532/532/532 529/529/529 527/527/527
f 533/533/533 529/529/529 532/532/532
f 534/534/534 527/527/527 525/525/525
f 532/532/532 527/527/527 534/534/534
f 534/534/534 525/525/525 531/531/531
f 535/535/535 531/531/531 530/530/530
f 532/532/532 535/535/535 533/533/533
f 535/535/535 532/532/532 534/534/534
f 535/535/535 534/534/534 531/531/531
f 535/535/535 530/530/530 536/536/536
f 530/530/530 537/537/537 536/536/536
f 535/535/535 536/536/536 538/538/538
f 536/536/536 539/539/539 538/538/538
f 536/536/536 540/540/540 539/539/539
f 540/540/540 541/541/541 539/539/539
f 539/539/539 541/541/541 542/542/542
f 543/543/543 535/535/535 538/538/538
f 538/538/538 544/544/544 543/543/543
f 538/538/538 539/539/539 544/544/544
f 539/539/539 542/542/542 544/544/544
f 543/543/543 544/544/544 545/545/545
f 544/544/544 546/546/546 545/545/545
f 544/544/544 542/542/542 546/546/546
f 545/545/545 546/546/546 547/547/547
f 545/545/545 547/547/547 548/548/548
f 533/533/533 548/548/548 529/529/529
f 548/548/548 549/549/549 529/529/529
f 550/550/550 545/545/545 548/548/548
f 543/543/543 545/545/545 550/550/550
f 550/550/550 548/548/548 533/533/533
f 535/535/535 543/543/543 550/550/550
f 535/535/535 550/550/550 533/533/533
f 529/529/529 549/549/549 528/528/528
f 553/553/553 552/552/552 551/551/551
f 556/556/556 555/555/555 554/554/554
f 557/557/557 555/555/555 556/556/556
f 556/556/556 554/554/554 558/558/558
f 558/558/558 554/554/554 559/559/559
f 557/557/557 560/560/560 555/555/555
f 561/561/561 560/560/560 557/557/557
f 561/561/561 562/562/562 560/560/560
f 563/563/563 562/562/562 561/561/561
f 563/563/563 564/564/564 562/562/562
f 565/565/565 564/564/564 563/563/563
f 565/565/565 566/566/566 564/564/564
f 567/567/567 566/566/566 565/565/565
f 568/568/568 557/557/557 556/556/556
f 569/569/569 557/557/557 568/568/568
f 569/569/569 561/561/561 557/557/557
f 570/570/570 556/556/556 558/558/558
f 568/568/568 556/556/556 570/570/570
f 570/570/570 558/558/558 571/571/571
f 571/571/571 558/558/558 572/572/572
f 573/573/573 572/572/572 567/567/567
f 571/571/571 572/572/572 573/573/573
f 574/574/574 567/567/567 565/565/565
f 573/573/573 567/567/567 574/574/574
f 575/575/575 565/565/565 563/563/563
f 561/561/561 575/575/575 563/563/563
f 574/574/574 565/565/565 575/575/575
f 576/576/576 561/561/561 569/569/569
f 576/576/576 575/575/575 561/561/561
f 577/577/577 569/569/569 568/568/568
f 577/577/577 568/568/568 570/570/570
f 577/577/577 570/570/570 571/571/571
f 577/577/577 571/571/571 573/573/573
f 577/577/577 573/573/573 574/574/574
f 576/576/576 577/577/577 575/575/575
f 577/577/577 576/576/576 569/569/569
f 577/577/577 574/574/574 575/575/575
f 580/580/580 579/579/579 578/578/578
f 578/578/578 579/579/579 581/581/581
f 578/578/578 581/581/581 582/582/582
f 582/582/582 581/581/581 583/583/583
f 586/586/586 585/585/585 584/584/584
f 587/587/587 585/585/585 586/586/586
f 587/587/587 588/588/588 585/585/585
f 589/589/589 588/588/588 587/587/587
f 589/589/589 590/590/590 588/588/588
f 591/591/591 590/590/590 589/589/589
f 591/591/591 592/592/592 590/590/590
f 593/593/593 592/592/592 591/591/591
f 593/593/593 594/594/594 592/592/592
f 595/595/595 594/594/594 593/593/593
f 595/595/595 596/596/596 594/594/594
f 597/597/597 596/596/596 595/595/595
f 597/597/597 598/598/598 596/596/596
f 599/599/599 598/598/598 597/597/597
f 600/600/600 593/593/593 591/591/591
f 601/601/601 593/593/593 600/600/600
f 602/602/602 593/593/593 601/601/601
f 600/600/600 591/591/591 603/603/603
f 603/603/603 591/591/591 589/589/589
f 589/589/589 604/604/604 603/603/603
f 605/605/605 604/604/604 589/589/589
f 606/606/606 604/604/604 605/605/605
f 606/606/606 605/605/605 607/607/607
f 607/607/607 605/605/605 608/608/608
f 607/607/607 608/608/608 609/609/609
f 609/609/609 608/608/608 610/610/610
f 611/611/611 607/607/607 609/609/609
f 612/612/612 607/607/607 611/611/611
f 612/612/612 606/606/606 607/607/607
f 613/613/613 606/606/606 612/612/612
f 613/613/613 614/614/614 606/606/606
f 614/614/614 615/615/615 606/606/606
f 614/614/614 616/616/616 615/615/615
f 606/606/606 615/615/615 617/617/617
f 617/617/617 604/604/604 606/606/606
f 615/615/615 616/616/616 618/618/618
f 616/616/616 619/619/619 618/618/618
f 616/616/616 620/620/620 619/619/619
f 621/621/621 620/620/620 616/616/616
f 621/621/621 622/622/622 620/620/620
f 623/623/623 622/622/622 621/621/621
f 623/623/623 624/624/624 622/622/622
f 625/625/625 624/624/624 623/623/623
f 626/626/626 614/614/614 613/613/613
f 626/626/626 616/616/616 614/614/614
f 627/627/627 616/616/616 626/626/626
f 627/627/627 621/621/621 616/616/616
f 628/628/628 621/621/621 627/627/627
f 628/628/628 623/623/623 621/621/621
f 629/629/629 623/623/623 628/628/628
f 629/629/629 625/625/625 623/623/623
f 624/624/624 599/599/599 622/622/622
f 622/622/622 599/599/599 597/597/597
f 622/622/622 597/597/597 620/620/620
f 620/620/620 597/597/597 595/595/595
f 620/620/620 595/595/595 619/619/619
f 619/619/619 595/595/595 593/593/593
f 619/619/619 593/593/593 602/602/602
f 618/618/618 619/619/619 602/602/602
f 630/630/630 627/627/627 626/626/626
f 630/630/630 626/626/626 631/631/631
f 632/632/632 630/630/630 631/631/631
f 632/632/632 631/631/631 633/633/633
f 633/633/633 631/631/631 634/634/634
f 631/631/631 626/626/626 613/613/613
f 631/631/631 613/613/613 635/635/635
f 636/636/636 627/627/627 630/630/630
f 637/637/637 636/636/636 630/630/630
f 637/637/637 630/630/630 638/638/638
f 640/640/640 636/636/636 639/639/639
f 640/640/640 641/641/641 636/636/636
f 642/642/642 641/641/641 640/640/640
f 642/642/642 643/643/643 641/641/641
f 644/644/644 643/643/643 642/642/642
f 644/644/644 645/645/645 643/643/643
f 646/646/646 613/613/613 612/612/612
f 647/647/647 612/612/612 611/611/611
f 648/648/648 612/612/612 647/647/647
f 636/636/636 628/628/628 627/627/627
f 649/649/649 628/628/628 636/636/636
f 649/649/649 629/629/629 628/628/628
f 652/652/652 651/651/651 650/650/650
f 650/650/650 651/651/651 653/653/653
f 650/650/650 653/653/653 654/654/654
f 654/654/654 653/653/653 655/655/655
f 654/654/654 655/655/655 656/656/656
f 656/656/656 655/655/655 657/657/657
f 656/656/656 657/657/657 658/658/658
f 658/658/658 657/657/657 659/659/659
f 660/660/660 650/650/650 654/654/654
f 661/661/661 650/650/650 660/660/660
f 661/661/661 652/652/652 650/650/650
f 662/662/662 661/661/661 660/660/660
f 662/662/662 660/660/660 663/663/663
f 663/663/663 660/660/660 664/664/664
f 664/664/664 654/654/654 656/656/656
f 660/660/660 654/654/654 664/664/664
f 665/665/665 661/661/661 662/662/662
f 665/665/665 666/666/666 661/661/661
f 666/666/666 652/652/652 661/661/661
f 667/667/667 666/666/666 665/665/665
f 663/663/663 664/664/664 668/668/668
f 668/668/668 664/664/664 669/669/669
f 664/664/664 656/656/656 669/669/669
f 670/670/670 667/667/667 665/665/665
f 670/670/670 665/665/665 671/671/671
f 671/671/671 665/665/665 662/662/662
f 672/672/672 667/667/667 670/670/670
f 673/673/673 663/663/663 668/668/668
f 674/674/674 663/663/663 673/673/673
f 674/674/674 662/662/662 663/663/663
f 671/671/671 662/662/662 674/674/674
f 675/675/675 672/672/672 670/670/670
f 676/676/676 672/672/672 675/675/675
f 677/677/677 674/674/674 673/673/673
f 678/678/678 674/674/674 677/677/677
f 678/678/678 671/671/671 674/674/674
f 679/679/679 671/671/671 678/678/678
f 679/679/679 670/670/670 671/671/671
f 675/675/675 670/670/670 679/679/679
f 682/682/682 681/681/681 680/680/680
f 684/684/684 680/680/680 683/683/683
f 684/684/684 685/685/685 680/680/680
f 687/687/687 682/682/682 686/686/686
f 690/690/690 689/689/689 688/688/688
f 691/691/691 689/689/689 690/690/690
f 691/691/691 692/692/692 689/689/689
f 693/693/693 692/692/692 691/691/691
f 696/696/696 695/695/695 694/694/694
f 694/694/694 695/695/695 697/697/697
f 694/694/694 697/697/697 698/698/698
f 698/698/698 697/697/697 699/699/699
f 605/605/605 589/589/589 608/608/608
f 608/608/608 589/589/589 587/587/587
f 608/608/608 587/587/587 610/610/610
f 610/610/610 587/587/587 586/586/586
f 702/702/702 701/701/701 700/700/700
f 703/703/703 701/701/701 702/702/702
f 703/703/703 704/704/704 701/701/701
f 705/705/705 704/704/704 703/703/703
f 708/708/708 707/707/707 706/706/706
f 709/709/709 707/707/707 708/708/708
f 709/709/709 710/710/710 707/707/707
f 711/711/711 710/710/710 709/709/709
f 714/714/714 713/713/713 712/712/712
f 714/714/714 712/712/712 715/715/715
f 715/715/715 712/712/712 716/716/716
f 715/715/715 716/716/716 717/717/717
f 717/717/717 716/716/716 718/718/718
f 717/717/717 718/718/718 719/719/719
f 719/719/719 718/718/718 720/720/720
f 719/719/719 720/720/720 721/721/721
f 724/724/724 723/723/723 722/722/722
f 727/727/727 726/726/726 725/725/725
f 730/730/730 729/729/729 728/728/728
f 733/733/733 732/732/732 731/731/731
f 734/734/734 732/732/732 733/733/733
f 737/737/737 736/736/736 735/735/735
f 738/738/738 736/736/736 737/737/737
f 741/741/741 740/740/740 739/739/739
f 742/742/742 740/740/740 741/741/741
f 742/742/742 743/743/743 740/740/740
f 744/744/744 743/743/743 742/742/742
f 744/744/744 745/745/745 743/743/743
f 746/746/746 745/745/745 744/744/744
f 746/746/746 747/747/747 745/745/745
f 748/748/748 747/747/747 746/746/746
f 748/748/748 749/749/749 747/747/747
f 750/750/750 749/749/749 748/748/748
f 753/753/753 752/752/752 751/751/751
f 751/751/751 752/752/752 754/754/754
f 751/751/751 754/754/754 755/755/755
f 755/755/755 754/754/754 756/756/756
f 755/755/755 756/756/756 757/757/757
f 757/757/757 756/756/756 758/758/758
f 757/757/757 760/760/760 759/759/759
f 759/759/759 760/760/760 761/761/761
f 762/762/762 656/656/656 658/658/658
f 765/765/765 764/764/764 763/763/763
f 766/766/766 764/764/764 765/765/765
f 765/765/765 763/763/763 767/767/767
f 767/767/767 763/763/763 768/768/768
f 763/763/763 769/769/769 768/768/768
f 763/763/763 764/764/764 769/769/769
f 768/768/768 769/769/769 770/770/770
f 769/769/769 764/764/764 771/771/771
f 264/264/264 773/773/773 772/772/772
f 776/776/776 775/775/775 774/774/774
f 779/779/779 778/778/778 777/777/777
