g Pump_BottomBackPipe
v 1248.274 123.0405 -1124.198
v 1253.311 115.0496 -1116.449
v 1230.147 133.3028 -1101.833
v 1235.183 125.3119 -1094.084
v 1221.562 136.0828 -1110.067
v 1239.689 125.8204 -1132.432
v 1211.727 132.9073 -1116.581
v 1229.854 122.6449 -1138.946
v 1203.278 124.6267 -1119.63
v 1221.405 114.3645 -1141.995
v 1198.479 113.4602 -1118.396
v 1216.606 103.1979 -1140.761
v 1253.447 103.9891 -1111.263
v 1235.32 114.2515 -1088.898
v 1198.615 102.3997 -1113.21
v 1216.606 103.1979 -1140.761
v 1198.479 113.4602 -1118.396
v 1216.742 92.13729 -1135.575
v 1203.651 94.40902 -1105.462
v 1221.778 84.14664 -1127.827
v 1212.237 91.62881 -1097.227
v 1230.364 81.36639 -1119.592
v 1222.071 94.80462 -1090.713
v 1240.199 84.54209 -1113.078
v 1230.521 103.0849 -1087.665
v 1248.648 92.82248 -1110.03
v 1235.32 114.2515 -1088.898
v 1253.447 103.9891 -1111.263
v 1216.606 103.1979 -1140.761
v 1216.742 92.13729 -1135.575
v 1221.289 103.2985 -1137.011
v 1224.868 111.626 -1137.932
v 1221.391 95.04989 -1133.144
v 1221.778 84.14664 -1127.827
v 1225.146 89.09059 -1127.366
v 1230.364 81.36639 -1119.592
v 1231.549 87.01712 -1121.225
v 1240.199 84.54209 -1113.078
v 1238.884 89.38554 -1116.366
v 1248.648 92.82248 -1110.03
v 1245.184 95.56094 -1114.093
v 1253.447 103.9891 -1111.263
v 1248.764 103.8884 -1115.013
v 1253.311 115.0496 -1116.449
v 1248.662 112.1371 -1118.88
v 1248.274 123.0405 -1124.198
v 1244.907 118.0965 -1124.659
v 1239.689 125.8204 -1132.432
v 1238.503 120.1697 -1130.8
v 1229.854 122.6449 -1138.946
v 1231.169 117.8014 -1135.658
v 1221.405 114.3645 -1141.995
v 1248.662 112.1371 -1118.88
v 1244.907 118.0965 -1124.659
v 1265.098 105.0738 -1118.068
v 1265.098 105.0738 -1118.068
v 1244.907 118.0965 -1124.659
v 1265.688 112.5463 -1123.246
v 1238.503 120.1697 -1130.8
v 1265.688 112.5463 -1123.246
v 1265.009 116.577 -1131.389
v 1231.169 117.8014 -1135.658
v 1265.009 116.577 -1131.389
v 1231.169 117.8014 -1135.658
v 1263.242 116.0855 -1140.313
v 1231.169 117.8014 -1135.658
v 1224.868 111.626 -1137.932
v 1263.242 116.0855 -1140.313
v 1263.242 116.0855 -1140.313
v 1224.868 111.626 -1137.932
v 1260.863 111.2038 -1147.628
v 1224.868 111.626 -1137.932
v 1221.289 103.2985 -1137.011
v 1260.863 111.2038 -1147.628
v 1260.863 111.2038 -1147.628
v 1221.289 103.2985 -1137.011
v 1258.506 103.2398 -1151.374
v 1221.289 103.2985 -1137.011
v 1221.391 95.04989 -1133.144
v 1258.506 103.2398 -1151.374
v 1258.506 103.2398 -1151.374
v 1221.391 95.04989 -1133.144
v 1256.805 94.32749 -1150.547
v 1256.216 86.85497 -1145.368
v 1260.753 95.57319 -1158.211
v 1261.481 84.52926 -1153.159
v 1305.387 95.7206 -1166.896
v 1305.954 107.8311 -1165.878
v 1261.32 107.6837 -1157.193
v 1306.115 84.67667 -1161.844
v 1263.307 77.51073 -1143.39
v 1256.895 82.82415 -1137.226
v 1256.216 86.85497 -1145.368
v 1307.941 77.65812 -1152.075
v 1265.743 76.39877 -1131.522
v 1258.661 83.31572 -1128.301
v 1256.895 82.82415 -1137.226
v 1310.377 76.54617 -1140.207
v 1268.136 81.49094 -1120.735
v 1261.041 88.19746 -1120.986
v 1258.661 83.31572 -1128.301
v 1312.77 81.63833 -1129.42
v 1269.846 91.42287 -1113.919
v 1314.48 91.57026 -1122.604
v 1256.805 94.32749 -1150.547
v 1225.146 89.09059 -1127.366
v 1256.216 86.85497 -1145.368
v 1231.549 87.01712 -1121.225
v 1225.146 89.09059 -1127.366
v 1256.216 86.85497 -1145.368
v 1238.884 89.38554 -1116.366
v 1256.895 82.82415 -1137.226
v 1238.884 89.38554 -1116.366
v 1258.661 83.31572 -1128.301
v 1245.184 95.56094 -1114.093
v 1261.041 88.19746 -1120.986
v 1221.391 95.04989 -1133.144
v 1225.146 89.09059 -1127.366
v 1256.805 94.32749 -1150.547
v 1238.884 89.38554 -1116.366
v 1245.184 95.56094 -1114.093
v 1258.661 83.31572 -1128.301
v 1245.184 95.56094 -1114.093
v 1248.764 103.8884 -1115.013
v 1261.041 88.19746 -1120.986
v 1261.041 88.19746 -1120.986
v 1248.764 103.8884 -1115.013
v 1263.397 96.16148 -1117.24
v 1268.136 81.49094 -1120.735
v 1263.397 96.16148 -1117.24
v 1269.846 91.42287 -1113.919
v 1248.764 103.8884 -1115.013
v 1248.662 112.1371 -1118.88
v 1263.397 96.16148 -1117.24
v 1263.397 96.16148 -1117.24
v 1248.662 112.1371 -1118.88
v 1265.098 105.0738 -1118.068
v 1269.846 91.42287 -1113.919
v 1258.506 103.2398 -1151.374
v 1256.805 94.32749 -1150.547
v 1261.32 107.6837 -1157.193
v 1260.753 95.57319 -1158.211
v 1263.029 117.6155 -1150.377
v 1258.506 103.2398 -1151.374
v 1261.32 107.6837 -1157.193
v 1265.422 122.7077 -1139.589
v 1260.863 111.2038 -1147.628
v 1263.242 116.0855 -1140.313
v 1267.858 121.5957 -1127.721
v 1265.009 116.577 -1131.389
v 1269.685 114.5772 -1117.952
v 1258.506 103.2398 -1151.374
v 1270.412 103.5332 -1112.9
v 1265.688 112.5463 -1123.246
v 1269.846 91.42287 -1113.919
v 1265.098 105.0738 -1118.068
v 1270.412 103.5332 -1112.9
v 1265.098 105.0738 -1118.068
v 1265.688 112.5463 -1123.246
v 1270.412 103.5332 -1112.9
v 1265.688 112.5463 -1123.246
v 1265.009 116.577 -1131.389
v 1269.685 114.5772 -1117.952
v 1270.412 103.5332 -1112.9
v 1269.685 114.5772 -1117.952
v 1315.046 103.6806 -1121.585
v 1314.319 114.7246 -1126.637
v 1314.48 91.57026 -1122.604
v 1269.846 91.42287 -1113.919
v 1269.685 114.5772 -1117.952
v 1267.858 121.5957 -1127.721
v 1314.319 114.7246 -1126.637
v 1312.492 121.7431 -1136.406
v 1265.422 122.7077 -1139.589
v 1310.056 122.8551 -1148.274
v 1263.029 117.6155 -1150.377
v 1307.663 117.7629 -1159.062
v 1261.32 107.6837 -1157.193
v 1305.954 107.8311 -1165.878
vt 0.274923 0.791124
vt 0.281028 0.808138
vt 0.246323 0.826464
vt 0.252555 0.84343
vt 0.231999 0.810689
vt 0.260698 0.775377
vt 0.213496 0.800449
vt 0.24224 0.765233
vt 0.195902 0.79853
vt 0.224621 0.76345
vt 0.183983 0.805371
vt 0.212614 0.77043
vt 0.27743 0.821786
vt 0.249079 0.856969
vt 0.180854 0.819022
vt 0.212614 0.77043
vt 0.183983 0.805371
vt 0.209363 0.784187
vt 0.187229 0.835787
vt 0.215611 0.800999
vt 0.201349 0.851248
vt 0.229635 0.816433
vt 0.219504 0.861374
vt 0.247749 0.826466
vt 0.236955 0.863494
vt 0.265223 0.828452
vt 0.249079 0.856969
vt 0.27743 0.821786
vt 0.212614 0.77043
vt 0.209363 0.784187
vt 0.220851 0.776956
vt 0.229824 0.77178
vt 0.218393 0.787206
vt 0.215611 0.800999
vt 0.223041 0.799762
vt 0.229635 0.816433
vt 0.233518 0.811301
vt 0.247749 0.826466
vt 0.247058 0.818794
vt 0.265223 0.828452
vt 0.260104 0.820257
vt 0.27743 0.821786
vt 0.269189 0.815255
vt 0.281028 0.808138
vt 0.271839 0.805067
vt 0.274923 0.791124
vt 0.267273 0.792398
vt 0.260698 0.775377
vt 0.256683 0.780684
vt 0.24224 0.765233
vt 0.24295 0.773129
vt 0.224621 0.76345
vt 0.271839 0.805067
vt 0.267273 0.792398
vt 0.298234 0.809415
vt 0.298234 0.809415
vt 0.267273 0.792398
vt 0.301929 0.797217
vt 0.256683 0.780684
vt 0.301929 0.797217
vt 0.302174 0.781178
vt 0.24295 0.773129
vt 0.302174 0.781178
vt 0.24295 0.773129
vt 0.298887 0.765666
vt 0.24295 0.773129
vt 0.229824 0.77178
vt 0.298887 0.765666
vt 0.298887 0.765666
vt 0.229824 0.77178
vt 0.292966 0.754914
vt 0.229824 0.77178
vt 0.220851 0.776956
vt 0.292966 0.754914
vt 0.292966 0.754914
vt 0.220851 0.776956
vt 0.286036 0.751817
vt 0.220851 0.776956
vt 0.218393 0.787206
vt 0.286036 0.751817
vt 0.286036 0.751817
vt 0.218393 0.787206
vt 0.279969 0.757137
vt 0.276375 0.769367
vt 0.287293 0.743215
vt 0.284729 0.756818
vt 0.365286 0.727984
vt 0.370934 0.724349
vt 0.292528 0.73966
vt 0.362351 0.74166
vt 0.285475 0.776758
vt 0.276177 0.785221
vt 0.276375 0.769367
vt 0.362863 0.761647
vt 0.289311 0.797779
vt 0.279412 0.800517
vt 0.276177 0.785221
vt 0.366662 0.782676
vt 0.295232 0.814399
vt 0.285233 0.811235
vt 0.279412 0.800517
vt 0.372753 0.799265
vt 0.301698 0.822234
vt 0.379553 0.807036
vt 0.279969 0.757137
vt 0.223041 0.799762
vt 0.276375 0.769367
vt 0.233518 0.811301
vt 0.223041 0.799762
vt 0.276375 0.769367
vt 0.247058 0.818794
vt 0.276177 0.785221
vt 0.247058 0.818794
vt 0.279412 0.800517
vt 0.260104 0.820257
vt 0.285233 0.811235
vt 0.218393 0.787206
vt 0.223041 0.799762
vt 0.279969 0.757137
vt 0.247058 0.818794
vt 0.260104 0.820257
vt 0.279412 0.800517
vt 0.260104 0.820257
vt 0.269189 0.815255
vt 0.285233 0.811235
vt 0.285233 0.811235
vt 0.269189 0.815255
vt 0.292116 0.814516
vt 0.295232 0.814399
vt 0.292116 0.814516
vt 0.301698 0.822234
vt 0.269189 0.815255
vt 0.271839 0.805067
vt 0.292116 0.814516
vt 0.292116 0.814516
vt 0.271839 0.805067
vt 0.298234 0.809415
vt 0.301698 0.822234
vt 0.286036 0.751817
vt 0.279969 0.757137
vt 0.292528 0.73966
vt 0.287293 0.743215
vt 0.299056 0.747261
vt 0.286036 0.751817
vt 0.292528 0.73966
vt 0.305106 0.764069
vt 0.292966 0.754914
vt 0.298887 0.765666
vt 0.309008 0.785512
vt 0.302174 0.781178
vt 0.309692 0.805688
vt 0.286036 0.751817
vt 0.306999 0.819103
vt 0.301929 0.797217
vt 0.301698 0.822234
vt 0.298234 0.809415
vt 0.306999 0.819103
vt 0.298234 0.809415
vt 0.301929 0.797217
vt 0.306999 0.819103
vt 0.301929 0.797217
vt 0.302174 0.781178
vt 0.309692 0.805688
vt 0.306999 0.819103
vt 0.309692 0.805688
vt 0.385264 0.803824
vt 0.388335 0.790334
vt 0.379553 0.807036
vt 0.301698 0.822234
vt 0.309692 0.805688
vt 0.309008 0.785512
vt 0.388335 0.790334
vt 0.387893 0.77011
vt 0.305106 0.764069
vt 0.384029 0.748658
vt 0.299056 0.747261
vt 0.377803 0.731883
vt 0.292528 0.73966
vt 0.370934 0.724349
vn 0.5077786 0.8613328 0.01632843
vn 0.7521537 0.5553063 0.3548236
vn 0.6104676 0.7801342 0.1368212
vn 0.7911499 0.4116774 0.4523313
vn 0.2662232 0.9395488 -0.2153445
vn 0.1273534 0.9365669 -0.3265324
vn -0.1493579 0.8472211 -0.5098123
vn -0.2872046 0.7608501 -0.5819111
vn -0.5249299 0.5278632 -0.6676893
vn -0.6248053 0.3812607 -0.6813651
vn -0.7598363 0.06709217 -0.6466432
vn -0.7949911 -0.100467 -0.5982437
vn 0.7949933 0.1004746 0.5982394
vn 0.759841 -0.06709729 0.646637
vn -0.7911509 -0.4116704 -0.452336
vn -0.7949911 -0.100467 -0.5982437
vn -0.7598363 0.06709217 -0.6466432
vn -0.752156 -0.555301 -0.3548271
vn -0.6104737 -0.7801283 -0.1368274
vn -0.5077838 -0.8613296 -0.01633541
vn -0.2662186 -0.9395493 0.215348
vn -0.1273455 -0.936566 0.3265384
vn 0.1493679 -0.8472146 0.5098202
vn 0.2872129 -0.7608459 0.5819126
vn 0.5249292 -0.5278754 0.6676802
vn 0.6248083 -0.3812717 0.6813564
vn 0.759841 -0.06709729 0.646637
vn 0.7949933 0.1004746 0.5982394
vn 0.5930709 -0.335774 -0.7317942
vn 0.5931346 -0.3357728 -0.731743
vn 0.2693035 -0.3184422 -0.9088839
vn 0.4164999 -0.2747782 -0.8666168
vn 0.2620017 -0.4944674 -0.8287685
vn 0.5930796 -0.3358005 -0.731775
vn 0.4097161 -0.4886727 -0.7702804
vn 0.5930807 -0.3358147 -0.7317675
vn 0.5931067 -0.3357769 -0.7317638
vn 0.5931051 -0.3357603 -0.7317727
vn 0.5930977 -0.33572 -0.7317973
vn 0.5930709 -0.3357193 -0.7318193
vn 0.5930966 -0.3357587 -0.7317804
vn 0.59313 -0.3357888 -0.7317395
vn 0.5931422 -0.3357985 -0.7317251
vn 0.5931207 -0.3357601 -0.7317602
vn 0.5931007 -0.3357519 -0.7317802
vn 0.5931104 -0.3357523 -0.7317721
vn 0.59311 -0.3357591 -0.7317693
vn 0.5931127 -0.3357687 -0.7317627
vn 0.5931188 -0.3357684 -0.7317579
vn 0.59312 -0.3357675 -0.7317573
vn 0.5931094 -0.3357549 -0.7317718
vn 0.5930863 -0.3357643 -0.7317861
vn 0.2239196 0.44592 0.8666114
vn 0.2305865 0.8181092 0.5268086
vn -0.1091862 0.4578594 0.8822943
vn -0.2264782 0.388403 0.893225
vn 0.2305865 0.8181092 0.5268086
vn -0.1827033 0.8173905 0.5463446
vn 0.1773659 0.9838897 -0.02241618
vn 0.1711857 0.8658251 0.4701515
vn -0.1418153 0.9887487 0.04758737
vn 0.01383955 0.8314534 -0.5554222
vn 0.1002893 0.9926285 -0.06805018
vn 0.07451056 0.9445805 -0.3197121
vn -0.0446206 0.9521874 -0.3022385
vn -0.003367371 0.6579367 -0.7530658
vn -0.1806135 0.4676733 -0.8652518
vn -0.1230737 0.6663545 -0.7354078
vn -0.07071824 0.8369026 -0.5427642
vn -0.1806135 0.4676733 -0.8652518
vn -0.2564499 0.48229 -0.8376334
vn 0.2694929 0.05856472 -0.96122
vn 0.1748316 -0.1855906 -0.9669489
vn -0.2564499 0.48229 -0.8376334
vn -0.2564499 0.48229 -0.8376334
vn -0.3244841 0.02854402 -0.9454603
vn -0.6808279 0.1221722 -0.7221824
vn 0.1748316 -0.1855906 -0.9669489
vn 0.1394393 -0.4271854 -0.8933473
vn -0.5686414 0.06249587 -0.820208
vn -0.6808279 0.1221722 -0.7221824
vn -0.3807539 -0.4111063 -0.8282621
vn -0.7219557 -0.2371131 -0.6500441
vn -0.6815783 -0.5348305 -0.4994069
vn -0.5864157 -0.130861 -0.7993698
vn -0.5077472 -0.5904365 -0.6273577
vn -0.1837797 -0.2568164 -0.9488258
vn -0.1852122 0.2610049 -0.9474033
vn -0.5353557 0.3382915 -0.7739206
vn -0.1331023 -0.7055867 -0.6960108
vn -0.4076289 -0.8819528 -0.2366391
vn -0.5515516 -0.8215162 -0.1445747
vn -0.617059 -0.6388167 -0.4595122
vn -0.04680437 -0.9652992 -0.2569177
vn -0.3065766 -0.9190657 0.2476467
vn -0.4197953 -0.8506674 0.3164441
vn -0.4655856 -0.8829121 -0.06079788
vn 0.05203555 -0.9665837 0.2510143
vn -0.234815 -0.6948002 0.6797903
vn -0.3307021 -0.607114 0.7225295
vn -0.3147139 -0.8515974 0.41921
vn 0.1369744 -0.7088758 0.6919054
vn -0.1073009 -0.3265776 0.93906
vn 0.1852118 -0.2610112 0.9474016
vn -0.7219557 -0.2371131 -0.6500441
vn -0.329818 -0.7831417 -0.5271709
vn -0.617059 -0.6388167 -0.4595122
vn -0.1703192 -0.9830078 -0.06846293
vn -0.329818 -0.7831417 -0.5271709
vn -0.4542345 -0.7881382 -0.4153425
vn 0.04277973 -0.8962184 0.4415457
vn -0.2915094 -0.9547483 0.05897305
vn 0.04277973 -0.8962184 0.4415457
vn -0.3147139 -0.8515974 0.41921
vn 0.196282 -0.5251726 0.8280502
vn -0.2212751 -0.5454144 0.8084309
vn 0.1394393 -0.4271854 -0.8933473
vn 0.1712301 -0.6480711 -0.7420809
vn -0.5529072 -0.4039203 -0.728795
vn 0.04277973 -0.8962184 0.4415457
vn 0.196282 -0.5251726 0.8280502
vn -0.1298661 -0.8234048 0.5523942
vn 0.196282 -0.5251726 0.8280502
vn 0.2320701 -0.02260436 0.9724364
vn -0.04275781 -0.4335299 0.9001243
vn -0.2212751 -0.5454144 0.8084309
vn 0.2320701 -0.02260436 0.9724364
vn -0.1972475 -0.08188075 0.9769283
vn -0.234815 -0.6948002 0.6797903
vn -0.298509 -0.1793725 0.9373996
vn -0.2244196 -0.2823754 0.9326842
vn 0.2320701 -0.02260436 0.9724364
vn 0.2239196 0.44592 0.8666114
vn -0.09514986 -0.01618714 0.9953313
vn -0.1972475 -0.08188075 0.9769283
vn 0.2239196 0.44592 0.8666114
vn -0.2264782 0.388403 0.893225
vn -0.2244196 -0.2823754 0.9326842
vn -0.7655424 0.1632673 -0.6223252
vn -0.7709924 -0.1114922 -0.6270089
vn -0.6315533 0.3448623 -0.6944137
vn -0.5864157 -0.130861 -0.7993698
vn -0.9455289 0.3178245 -0.07044639
vn -0.8055711 0.2789933 -0.5227026
vn -0.9247167 0.1789805 -0.3359541
vn -0.9430285 0.3081964 0.1253483
vn -0.948553 0.3143903 0.03749663
vn -0.9307147 0.328176 0.161464
vn -0.9176996 0.3139004 0.2435033
vn -0.8632732 0.4140583 0.2886435
vn -0.8381055 0.3466515 0.4212029
vn -0.946 0.2543565 -0.2009642
vn -0.7033439 0.2358499 0.6705834
vn -0.7161742 0.4406854 0.5411939
vn -0.4110189 -0.09075944 0.9070977
vn -0.3255778 0.283256 0.9020893
vn -0.2908116 0.1804284 0.9396139
vn -0.2264782 0.388403 0.893225
vn -0.4266664 0.6291096 0.6497514
vn -0.2908116 0.1804284 0.9396139
vn -0.4266664 0.6291096 0.6497514
vn -0.5791992 0.7589705 0.2974761
vn -0.6751484 0.5260331 0.5171691
vn -0.1524361 0.1663746 0.9742088
vn 0.1552734 0.5688828 0.8076277
vn 0.1837806 0.2568013 0.9488297
vn 0.1331019 0.7055911 0.6960065
vn 0.1852118 -0.2610112 0.9474016
vn -0.2244196 -0.2823754 0.9326842
vn -0.08387885 0.6345773 0.7682942
vn 0.07886607 0.903792 0.4206427
vn 0.1331019 0.7055911 0.6960065
vn 0.0468038 0.9653006 0.2569127
vn -0.0186458 0.9967074 -0.07890894
vn -0.05203325 0.9665865 -0.2510042
vn -0.1111994 0.822688 -0.5575116
vn -0.1369748 0.7088739 -0.6919073
vn -0.5353557 0.3382915 -0.7739206
vn -0.1852122 0.2610049 -0.9474033
g Pump_BottomBackPipe_0
f 3/3/3 2/2/2 1/1/1
f 4/4/4 2/2/2 3/3/3
f 3/3/3 1/1/1 5/5/5
f 5/5/5 1/1/1 6/6/6
f 5/5/5 6/6/6 7/7/7
f 7/7/7 6/6/6 8/8/8
f 7/7/7 8/8/8 9/9/9
f 9/9/9 8/8/8 10/10/10
f 9/9/9 10/10/10 11/11/11
f 11/11/11 10/10/10 12/12/12
f 4/4/4 13/13/13 2/2/2
f 14/14/14 13/13/13 4/4/4
f 17/17/17 16/16/16 15/15/15
f 15/15/15 16/16/16 18/18/18
f 15/15/15 18/18/18 19/19/19
f 19/19/19 18/18/18 20/20/20
f 19/19/19 20/20/20 21/21/21
f 21/21/21 20/20/20 22/22/22
f 21/21/21 22/22/22 23/23/23
f 23/23/23 22/22/22 24/24/24
f 23/23/23 24/24/24 25/25/25
f 25/25/25 24/24/24 26/26/26
f 25/25/25 26/26/26 27/27/27
f 27/27/27 26/26/26 28/28/28
f 31/31/31 30/30/30 29/29/29
f 31/31/31 29/29/29 32/32/32
f 33/33/33 30/30/30 31/31/31
f 33/33/33 34/34/34 30/30/30
f 35/35/35 34/34/34 33/33/33
f 35/35/35 36/36/36 34/34/34
f 37/37/37 36/36/36 35/35/35
f 37/37/37 38/38/38 36/36/36
f 39/39/39 38/38/38 37/37/37
f 39/39/39 40/40/40 38/38/38
f 41/41/41 40/40/40 39/39/39
f 41/41/41 42/42/42 40/40/40
f 43/43/43 42/42/42 41/41/41
f 43/43/43 44/44/44 42/42/42
f 45/45/45 44/44/44 43/43/43
f 45/45/45 46/46/46 44/44/44
f 47/47/47 46/46/46 45/45/45
f 47/47/47 48/48/48 46/46/46
f 49/49/49 48/48/48 47/47/47
f 49/49/49 50/50/50 48/48/48
f 51/51/51 50/50/50 49/49/49
f 51/51/51 52/52/52 50/50/50
f 32/32/32 52/52/52 51/51/51
f 32/32/32 29/29/29 52/52/52
f 55/55/55 54/54/54 53/53/53
f 58/58/58 57/57/57 56/56/56
f 60/60/60 59/59/59 57/57/57
f 61/61/61 59/59/59 58/58/58
f 63/63/63 62/62/62 59/59/59
f 65/65/65 64/64/64 61/61/61
f 68/68/68 67/67/67 66/66/66
f 71/71/71 70/70/70 69/69/69
f 74/74/74 73/73/73 72/72/72
f 77/77/77 76/76/76 75/75/75
f 80/80/80 79/79/79 78/78/78
f 83/83/83 82/82/82 81/81/81
f 85/85/85 84/84/84 83/83/83
f 86/86/86 84/84/84 85/85/85
f 87/87/87 86/86/86 85/85/85
f 87/87/87 85/85/85 88/88/88
f 88/88/88 85/85/85 89/89/89
f 90/90/90 86/86/86 87/87/87
f 90/90/90 91/91/91 86/86/86
f 91/91/91 92/92/92 86/86/86
f 86/86/86 92/92/92 93/93/93
f 94/94/94 91/91/91 90/90/90
f 94/94/94 95/95/95 91/91/91
f 95/95/95 96/96/96 91/91/91
f 91/91/91 96/96/96 97/97/97
f 98/98/98 95/95/95 94/94/94
f 98/98/98 99/99/99 95/95/95
f 99/99/99 100/100/100 95/95/95
f 95/95/95 100/100/100 101/101/101
f 102/102/102 99/99/99 98/98/98
f 102/102/102 103/103/103 99/99/99
f 104/104/104 103/103/103 102/102/102
f 93/93/93 106/106/106 105/105/105
f 97/97/97 108/108/108 107/107/107
f 110/110/110 108/108/108 109/109/109
f 112/112/112 111/111/111 108/108/108
f 114/114/114 113/113/113 97/97/97
f 116/116/116 115/115/115 114/114/114
f 119/119/119 118/118/118 117/117/117
f 122/122/122 121/121/121 120/120/120
f 125/125/125 124/124/124 123/123/123
f 128/128/128 127/127/127 126/126/126
f 129/129/129 128/128/128 126/126/126
f 131/131/131 130/130/130 129/129/129
f 134/134/134 133/133/133 132/132/132
f 137/137/137 136/136/136 135/135/135
f 138/138/138 137/137/137 135/135/135
f 141/141/141 140/140/140 139/139/139
f 142/142/142 140/140/140 141/141/141
f 145/145/145 144/144/144 143/143/143
f 143/143/143 147/147/147 146/146/146
f 146/146/146 147/147/147 148/148/148
f 146/146/146 148/148/148 149/149/149
f 149/149/149 148/148/148 150/150/150
f 149/149/149 150/150/150 151/151/151
f 143/143/143 152/152/152 147/147/147
f 151/151/151 154/154/154 153/153/153
f 157/157/157 156/156/156 155/155/155
f 160/160/160 159/159/159 158/158/158
f 163/163/163 162/162/162 161/161/161
f 166/166/166 165/165/165 164/164/164
f 167/167/167 165/165/165 166/166/166
f 166/166/166 164/164/164 168/168/168
f 168/168/168 164/164/164 169/169/169
f 172/172/172 171/171/171 170/170/170
f 173/173/173 171/171/171 172/172/172
f 173/173/173 174/174/174 171/171/171
f 175/175/175 174/174/174 173/173/173
f 175/175/175 176/176/176 174/174/174
f 177/177/177 176/176/176 175/175/175
f 177/177/177 178/178/178 176/176/176
f 179/179/179 178/178/178 177/177/177
