g Pump_TopLid
v 1442.063 197.5453 -1099.843
v 1441.08 201.4452 -1092.492
v 1388.598 197.4745 -1112.061
v 1441.205 193.5876 -1107.382
v 1438.545 189.7239 -1114.821
v 1434.192 186.0984 -1121.881
v 1428.331 182.84 -1128.312
v 1421.221 180.0555 -1133.897
v 1413.118 177.8932 -1138.349
v 1404.477 176.5334 -1141.329
v 1395.732 176.0077 -1142.775
v 1386.979 176.2553 -1142.757
v 1378.47 177.1801 -1141.43
v 1370.093 178.6586 -1138.989
v 1362.547 180.8024 -1135.251
v 1356.146 183.4891 -1130.401
v 1351.253 186.6706 -1124.537
v 1347.965 190.2395 -1117.851
v 1498.432 189.3596 -1102.292
v 1503.982 197.6272 -1085.691
v 1500.835 205.9662 -1070.211
v 1493.899 213.7073 -1056.03
v 1438.302 205.1363 -1085.614
v 1433.798 208.4948 -1079.44
v 1427.676 211.4284 -1074.14
v 1420.294 213.7573 -1070.042
v 1411.936 215.392 -1067.302
v 1402.922 216.2695 -1066.026
v 1393.6 216.3562 -1066.262
v 1384.328 215.6489 -1068.003
v 1375.462 214.1746 -1071.18
v 1361.173 232.3407 -1026.71
v 1379.684 235.4189 -1020.076
v 1399.042 236.8951 -1016.443
v 1418.736 237.0172 -1015.207
v 1437.802 235.2507 -1017.694
v 1455.344 231.7625 -1023.577
v 1470.828 226.8376 -1032.266
v 1483.917 220.7146 -1043.268
v 1359.409 234.5858 -1021.214
v 1379.11 237.8623 -1014.153
v 1348.912 212.3008 -985.1761
v 1337.558 209.2549 -991.4372
v 1347.642 232.2788 -1026.829
v 1375.357 216.6915 -975.6848
v 1399.716 239.434 -1010.286
v 1403.019 218.7849 -970.4606
v 1420.432 239.2414 -1009.76
v 1430.846 218.5001 -969.7047
v 1440.46 237.2914 -1012.596
v 1457.775 215.8463 -973.4509
v 1459.359 233.3468 -1018.176
v 1482.777 210.9226 -981.5617
v 1475.438 228.4835 -1027.793
v 1504.889 203.9158 -993.7372
v 1489.26 221.7935 -1039.379
v 1523.255 195.0947 -1009.519
v 1501.865 212.3065 -1051.44
v 1537.127 184.8145 -1028.27
v 1509.722 202.6634 -1066.378
v 1545.56 173.6921 -1048.878
v 1514.57 191.4258 -1082.473
v 1548.582 161.9608 -1070.913
v 1516.936 177.2799 -1100.045
v 1546.064 150.0798 -1093.503
v 1512.053 166.741 -1117.406
v 1538.088 138.515 -1115.757
v 1499.346 160.2235 -1134.669
v 1524.948 127.7185 -1136.799
v 1476.892 164.9533 -1148.174
v 1507.143 118.1131 -1155.803
v 1461.093 158.7656 -1160.586
v 1485.348 110.0749 -1172.026
v 1443.085 153.9611 -1170.478
v 1461.094 103.604 -1185.353
v 1423.884 150.9392 -1177.101
v 1435.694 99.26734 -1194.739
v 1404.451 149.7718 -1180.313
v 1409.733 97.58347 -1199.281
v 1385.002 150.3209 -1180.273
v 1383.621 98.29613 -1199.305
v 1366.09 152.3759 -1177.326
v 1358.171 101.0743 -1195.348
v 1347.476 155.6617 -1171.901
v 1333.1 105.5195 -1188.029
v 1330.707 160.4257 -1163.593
v 1310.49 111.9797 -1176.797
v 1316.483 166.3957 -1152.817
v 1291.251 120.105 -1162.179
v 1305.609 173.4656 -1139.786
v 1276.393 129.8029 -1144.382
v 1298.304 181.3968 -1124.927
v 1266.604 140.5329 -1124.383
v 1294.948 189.7979 -1109.003
v 1262.145 151.9012 -1102.969
v 1295.952 198.5295 -1092.318
v 1263.561 163.715 -1080.554
v 1301.431 207.3434 -1075.369
v 1270.984 175.6235 -1057.807
v 1311 215.6691 -1059.169
v 1283.884 186.8555 -1036.079
v 1324.474 223.2265 -1044.258
v 1302.004 197.0349 -1016.087
v 1341.083 229.6709 -1031.323
v 1324.313 205.7013 -998.7418
v 1264.999 135.5964 -1122.915
v 1274.959 124.8053 -1143.136
v 1290.125 115.0855 -1161.077
v 1349.518 230.5807 -1031.29
v 1351.547 230.5902 -1031.273
v 1369.768 213.2539 -1073.831
v 1368.825 212.4995 -1073.96
v 1349.931 229.6918 -1031.797
v 1349.931 229.6918 -1031.797
v 1343.754 227.3035 -1035.494
v 1336.772 204.9463 -988.035
v 1348.312 208.0406 -981.6716
v 1337.277 193.319 -983.499
v 1348.784 196.3987 -977.1638
v 1375.137 212.5018 -972.0583
v 1375.281 200.8046 -967.6688
v 1403.191 214.6424 -966.7929
v 1402.99 202.9188 -962.4674
v 1431.396 214.3806 -966.0773
v 1430.848 202.6591 -961.7607
v 1458.664 211.7267 -969.9391
v 1457.783 200.0368 -965.5745
v 1483.953 206.7823 -978.2296
v 1482.761 195.1519 -973.7629
v 1506.289 199.7371 -990.6307
v 1504.821 188.192 -986.0115
v 1524.811 190.8619 -1006.666
v 1523.117 179.4253 -1001.849
v 1538.786 180.5107 -1025.694
v 1547.256 169.3092 -1046.565
v 1550.274 157.4824 -1068.855
v 1264.999 135.5964 -1122.915
v 1275.87 114.1441 -1136.795
v 1274.959 124.8053 -1143.136
v 1265.975 124.7752 -1116.868
v 1291.279 104.7087 -1154.223
v 1290.125 115.0855 -1161.077
v 1310.134 96.4401 -1169.085
v 1309.527 106.8609 -1175.904
v 1332.833 90.04126 -1180.236
v 1332.419 100.3609 -1187.244
v 1358.181 85.69018 -1187.389
v 1357.828 95.90116 -1194.614
v 1383.592 82.93855 -1191.332
v 1383.554 93.11451 -1198.604
v 1409.659 82.2484 -1191.297
v 1409.946 92.41489 -1198.568
v 1435.568 83.94189 -1186.75
v 1436.175 94.12776 -1193.966
v 1460.893 88.27699 -1177.34
v 1461.832 98.50723 -1184.462
v 1485.425 94.49365 -1164.485
v 1486.405 104.9925 -1171.069
v 1506.918 102.6809 -1148.039
v 1508.384 113.1706 -1154.642
v 1524.65 112.3021 -1129.038
v 1526.367 122.8964 -1135.438
v 1537.75 123.0875 -1108.029
v 1539.641 133.8125 -1114.178
v 1545.714 134.6263 -1085.812
v 1547.71 145.4939 -1091.69
v 1548.25 146.4659 -1063.257
v 1550.274 157.4824 -1068.855
v 1545.269 158.1461 -1041.242
v 1547.256 169.3092 -1046.565
v 1536.905 169.2092 -1020.628
v 1538.786 180.5107 -1025.694
v 1523.117 179.4253 -1001.849
v 1524.811 190.8619 -1006.666
v 1548.582 161.9608 -1070.913
v 1546.064 150.0798 -1093.503
v 1538.088 138.515 -1115.757
v 1524.948 127.7185 -1136.799
v 1507.143 118.1131 -1155.803
v 1485.348 110.0749 -1172.026
v 1461.094 103.604 -1185.353
v 1435.694 99.26734 -1194.739
v 1409.733 97.58347 -1199.281
v 1383.621 98.29613 -1199.305
v 1358.171 101.0743 -1195.348
v 1333.1 105.5195 -1188.029
v 1310.49 111.9797 -1176.797
v 1291.251 120.105 -1162.179
v 1260.428 147.0334 -1101.237
v 1265.975 124.7752 -1116.868
v 1261.455 136.0692 -1095.46
v 1261.774 158.909 -1078.542
v 1262.682 147.7448 -1073.132
v 1269.23 170.9096 -1055.466
v 1270.047 159.5967 -1050.34
v 1282.291 182.255 -1033.397
v 1283.077 170.8281 -1028.481
v 1300.673 192.5557 -1013.08
v 1301.401 181.0358 -1008.337
v 1323.308 201.3359 -995.4595
v 1323.851 189.7258 -990.8903
v 1347.954 194.1428 -1110.734
v 1346.326 193.4503 -1110.341
v 1346.683 193.4528 -1111.76
v 1348.429 197.9318 -1103.501
v 1346.825 197.3652 -1102.78
v 1350.474 201.7906 -1096.014
v 1349.325 201.3193 -1095.177
v 1354.854 205.3865 -1089.06
v 1353.637 205.0605 -1087.895
v 1360.524 208.7488 -1082.377
v 1359.729 208.4569 -1081.182
v 1367.874 211.5171 -1076.847
v 1367.253 211.3639 -1075.4
v 1353.551 203.8037 -1087.133
v 1359.703 207.1912 -1080.416
v 1367.253 211.3639 -1075.4
v 1367.33 210.1132 -1074.713
v 1359.387 192.0483 -1071.238
v 1352.516 188.7695 -1078.02
v 1348.015 185.1783 -1085.085
v 1349.223 200.0743 -1094.399
v 1344.577 181.5522 -1092.043
v 1346.651 196.1457 -1101.952
v 1342.824 178.0269 -1101.027
v 1346.057 192.2607 -1109.623
v 1368.254 195.1477 -1066.49
v 1368.955 211.2634 -1073.251
v 1370.509 196.4754 -1064.77
v 1368.825 212.4995 -1073.96
v 1346.326 193.4503 -1110.341
v 1367.253 211.3639 -1075.4
v 1303.638 189.9348 -1106.976
v 1346.326 193.4503 -1110.341
v 1304.127 189.3782 -1109.75
v 1307.282 182.9954 -1123.648
v 1313.77 175.827 -1137.06
v 1326.196 170.5823 -1147.327
v 1338.574 165.4608 -1156.59
v 1353.218 161.5004 -1163.545
v 1369.17 158.5482 -1168.393
v 1385.404 155.6016 -1172.634
v 1402.882 154.4923 -1173.559
v 1421.749 153.7545 -1173.166
v 1439.788 156.5937 -1166.943
v 1456.706 161.1076 -1157.65
v 1471.55 166.9209 -1145.989
v 1483.787 173.7243 -1132.564
v 1492.878 181.2934 -1117.824
v 1305.458 174.5116 -1098.245
v 1346.057 192.2607 -1109.623
v 1342.824 178.0269 -1101.027
v 1303.777 188.7454 -1106.302
v 1346.326 193.4503 -1110.341
v 1303.638 189.9348 -1106.976
v 1305.711 182.1753 -1085.457
v 1303.777 188.7454 -1106.302
v 1305.458 174.5116 -1098.245
v 1304.188 196.6489 -1093.089
v 1309.738 189.95 -1070.317
v 1308.44 204.74 -1077.379
v 1316.538 197.8929 -1054.447
v 1315.407 212.8231 -1061.239
v 1329.029 204.9112 -1040.596
v 1328.114 219.9513 -1047.174
v 1345.306 211.1479 -1028.184
v 1343.875 226.0573 -1034.929
v 1352.165 213.7286 -1024.208
v 1350.102 228.4607 -1031.212
v 1304.06 197.8588 -1093.728
v 1303.638 189.9348 -1106.976
v 1315.313 214.071 -1061.806
v 1308.331 205.9762 -1077.969
v 1315.313 214.071 -1061.806
v 1343.754 227.3035 -1035.494
v 1328.038 221.2084 -1047.724
v 1349.931 229.6918 -1031.797
v 1370.509 196.4754 -1064.77
v 1350.102 228.4607 -1031.212
v 1352.165 213.7286 -1024.208
v 1368.955 211.2634 -1073.251
v 1349.931 229.6918 -1031.797
v 1368.825 212.4995 -1073.96
v 1369.486 212.5223 -1075.675
v 1368.825 212.4995 -1073.96
v 1368.825 212.4995 -1073.96
v 1367.874 211.5171 -1076.847
v 1367.253 211.3639 -1075.4
v 1302.276 190.3986 -1107.554
v 1302.793 198.4515 -1093.776
v 1307.252 206.6843 -1077.819
v 1314.628 214.8185 -1061.642
v 1327.472 222.0226 -1047.428
v 1343.304 228.1656 -1035.097
v 1304.06 197.8588 -1093.728
v 1308.331 205.9762 -1077.969
v 1308.331 205.9762 -1077.969
v 1315.313 214.071 -1061.806
v 1315.313 214.071 -1061.806
v 1328.038 221.2084 -1047.724
v 1303.638 189.9348 -1106.976
v 1304.06 197.8588 -1093.728
v 1302.276 190.3986 -1107.554
v 1423.879 164.1436 -1150.194
v 1442.611 170.6389 -1137.837
v 1424.162 185.9345 -1161.554
v 1442.894 192.4299 -1149.197
v 1401.849 184.9193 -1164.659
v 1401.566 163.1279 -1153.299
v 1380.137 189.1561 -1157.905
v 1379.854 167.3652 -1146.545
v 1361.983 195.3862 -1145.842
v 1361.7 173.5952 -1134.482
v 1453.572 181.7662 -1116.286
v 1453.855 203.5572 -1127.645
v 1447.772 192.9333 -1095.008
v 1448.054 214.7244 -1106.368
v 1355.699 199.7627 -1136.5
v 1356.924 178.5152 -1123.723
v 1447.772 192.9333 -1095.008
v 1427.1 200.4341 -1081.309
v 1448.054 214.7244 -1106.368
v 1427.382 222.2252 -1092.669
v 1403.551 202.6508 -1077.526
v 1403.835 224.4419 -1088.886
v 1379.596 201.2186 -1080.746
v 1379.878 223.0094 -1092.106
v 1360.908 194.2192 -1094.577
v 1361.19 216.0101 -1105.937
v 1355.96 184.8659 -1112.621
v 1354.682 206.4941 -1124.636
v 1356.924 178.5152 -1123.723
v 1355.699 199.7627 -1136.5
v 1354.682 206.4941 -1124.636
v 1355.699 199.7627 -1136.5
v 1365.968 205.295 -1126.463
v 1366.899 200.7795 -1134.903
v 1371.665 213.2455 -1111.033
v 1361.19 216.0101 -1105.937
v 1385.704 218.4827 -1100.644
v 1379.878 223.0094 -1092.106
v 1403.006 220.2367 -1096.848
v 1403.835 224.4419 -1088.886
v 1422.148 219.1746 -1098.182
v 1427.382 222.2252 -1092.669
v 1440.612 212.9996 -1109.851
v 1448.054 214.7244 -1106.368
v 1443.292 203.7186 -1127.584
v 1453.855 203.5572 -1127.645
v 1431.485 195.7693 -1143.075
v 1442.894 192.4299 -1149.197
v 1418.59 190.2297 -1154.022
v 1424.162 185.9345 -1161.554
v 1401.29 188.4756 -1157.818
v 1401.849 184.9193 -1164.659
v 1384.22 190.9767 -1153.445
v 1380.137 189.1561 -1157.905
v 1370.902 196.8858 -1142.473
v 1361.983 195.3862 -1145.842
v 1384.22 190.9767 -1153.445
v 1401.29 188.4756 -1157.818
v 1385.697 204.4949 -1160.993
v 1402.651 201.1868 -1164.76
v 1418.59 190.2297 -1154.022
v 1387.343 219.5509 -1169.399
v 1404.167 215.3441 -1172.491
v 1419.818 202.3283 -1160.477
v 1421.186 215.8034 -1167.665
v 1432.61 207.7144 -1149.376
v 1433.863 221.0184 -1156.395
v 1374.126 227.6454 -1159.777
v 1372.427 211.4379 -1150.659
v 1444.282 215.4922 -1133.691
v 1445.384 228.6053 -1140.494
v 1441.554 225.3919 -1116.291
v 1442.604 239.1941 -1123.464
v 1370.136 232.0435 -1152.767
v 1368.43 215.5702 -1143.354
v 1374.076 250.3067 -1166.773
v 1378.285 245.7173 -1173.956
v 1378.002 268.5058 -1180.729
v 1382.428 263.7257 -1188.085
v 1391.564 237.3724 -1183.884
v 1395.77 255.1313 -1198.318
v 1408.187 233.2843 -1186.889
v 1412.193 251.1615 -1201.235
v 1425.094 233.7109 -1182.134
v 1428.988 251.5556 -1196.551
v 1437.806 239.0547 -1170.689
v 1441.736 257.0277 -1184.933
v 1449.502 246.6678 -1154.708
v 1453.605 264.6667 -1168.872
v 1446.785 257.0411 -1137.93
v 1450.951 274.8255 -1152.346
v 1447.584 272.767 -1229.559
v 1460.181 276.7224 -1217.186
v 1431.935 276.0069 -1236.537
v 1417.162 284.7119 -1236.707
v 1405.954 298.3464 -1229.994
v 1472.138 283.8028 -1200.935
v 1470.95 297.2444 -1186.748
v 1441.554 225.3919 -1116.291
v 1423.262 232.7501 -1105.471
v 1442.604 239.1941 -1123.464
v 1424.502 247.8701 -1113.59
v 1404.291 234.5314 -1104.755
v 1405.723 250.4523 -1113.56
v 1387.057 233.3563 -1109.007
v 1388.564 249.922 -1118.321
v 1373.147 228.4563 -1119.687
v 1374.798 245.3975 -1129.326
v 1367.535 220.2328 -1135.103
v 1369.281 236.8699 -1144.726
v 1368.43 215.5702 -1143.354
v 1370.136 232.0435 -1152.767
v 1373.29 254.8512 -1159.075
v 1374.076 250.3067 -1166.773
v 1377.284 272.7692 -1173.373
v 1378.002 268.5058 -1180.729
v 1382.901 281.1941 -1158.074
v 1378.857 263.3273 -1143.725
v 1396.568 285.7746 -1147.026
v 1392.573 267.8798 -1132.699
v 1413.542 286.2614 -1142.372
v 1409.639 268.3884 -1127.992
v 1432.656 283.5049 -1142.523
v 1428.587 265.7188 -1128.082
v 1450.951 274.8255 -1152.346
v 1446.785 257.0411 -1137.93
v 1402.249 311.0581 -1217.771
v 1402.412 305.4428 -1224.194
v 1382.428 263.7257 -1188.085
v 1405.954 298.3464 -1229.994
v 1408.553 320.4117 -1203.303
v 1421.822 323.1705 -1191.214
v 1437.673 319.9644 -1184.254
v 1455.092 312.2089 -1181.173
v 1470.95 297.2444 -1186.748
v 1370.902 196.8858 -1142.473
v 1366.899 200.7795 -1134.903
v 1366.899 200.7795 -1134.903
v 1365.968 205.295 -1126.463
v 1371.665 213.2455 -1111.033
v 1385.704 218.4827 -1100.644
v 1403.006 220.2367 -1096.848
v 1422.148 219.1746 -1098.182
v 1440.612 212.9996 -1109.851
v 1440.612 212.9996 -1109.851
v 1443.292 203.7186 -1127.584
v 1431.485 195.7693 -1143.075
vt 0.807306 0.13113
vt 0.807604 0.143598
vt 0.70375 0.107504
vt 0.803425 0.118369
vt 0.79613 0.105803
vt 0.785729 0.093899
vt 0.772665 0.083071
vt 0.757495 0.073669
vt 0.740786 0.066166
vt 0.723498 0.061107
vt 0.706459 0.058591
vt 0.689802 0.058505
vt 0.673944 0.060599
vt 0.658602 0.064566
vt 0.645155 0.070709
vt 0.634146 0.078741
vt 0.626252 0.088511
vt 0.621617 0.099715
vt 0.911447 0.130142
vt 0.927249 0.158493
vt 0.926311 0.184853
vt 0.917602 0.209133
vt 0.804292 0.155285
vt 0.797426 0.165789
vt 0.787146 0.174811
vt 0.774047 0.181777
vt 0.758633 0.18641
vt 0.741509 0.188519
vt 0.723349 0.188019
vt 0.704871 0.184929
vt 0.686804 0.179374
vt 0.668071 0.258824
vt 0.706112 0.270643
vt 0.745062 0.277215
vt 0.783962 0.279603
vt 0.820535 0.275406
vt 0.853023 0.265221
vt 0.880498 0.25015
vt 0.902418 0.231115
vt 0.665734 0.268737
vt 0.706267 0.281346
vt 0.634084 0.347857
vt 0.610502 0.336768
vt 0.641414 0.258615
vt 0.687887 0.364809
vt 0.747774 0.288358
vt 0.743053 0.374281
vt 0.788562 0.289472
vt 0.797303 0.375859
vt 0.826962 0.284645
vt 0.84839 0.36947
vt 0.861871 0.275216
vt 0.894214 0.355397
vt 0.890548 0.258261
vt 0.932914 0.33425
vt 0.91354 0.23828
vt 0.96296 0.306945
vt 0.932265 0.218677
vt 0.983175 0.274708
vt 0.941513 0.193728
vt 0.992235 0.239556
vt 0.94387 0.167464
vt 0.990511 0.202293
vt 0.939631 0.139944
vt 0.978209 0.164436
vt 0.92382 0.11152
vt 0.955942 0.127471
vt 0.895676 0.081651
vt 0.924681 0.092806
vt 0.855656 0.053646
vt 0.885695 0.061714
vt 0.822038 0.033036
vt 0.840492 0.035305
vt 0.785167 0.01663
vt 0.791881 0.013683
vt 0.747131 0.005585
vt 0.742514 -0.001582
vt 0.709699 8.8E-05
vt 0.693592 -0.009154
vt 0.673117 -0.000114
vt 0.645581 -0.009555
vt 0.638253 0.004433
vt 0.599698 -0.00361
vt 0.60446 0.013074
vt 0.555118 0.00777
vt 0.574737 0.026489
vt 0.515776 0.025494
vt 0.550271 0.04408
vt 0.483176 0.04885
vt 0.532564 0.06555
vt 0.459175 0.077605
vt 0.52197 0.090264
vt 0.444927 0.11029
vt 0.519115 0.116994
vt 0.440894 0.145692
vt 0.524828 0.145254
vt 0.448193 0.183175
vt 0.539326 0.174219
vt 0.467125 0.221659
vt 0.561709 0.202168
vt 0.496534 0.258865
vt 0.591556 0.228128
vt 0.535895 0.293498
vt 0.627235 0.250842
vt 0.58307 0.32387
vt 0.44 0.1153
vt 0.454536 0.082275
vt 0.47907 0.053305
vt 0.64426 0.250533
vt 0.648256 0.250564
vt 0.675227 0.174608
vt 0.673008 0.174691
vt 0.644632 0.249901
vt 0.644632 0.249901
vt 0.631324 0.243623
vt 0.606929 0.344951
vt 0.630848 0.356212
vt 0.602431 0.357898
vt 0.629132 0.364588
vt 0.685315 0.37336
vt 0.682633 0.379966
vt 0.741158 0.382887
vt 0.738236 0.389339
vt 0.796052 0.384374
vt 0.79067 0.389305
vt 0.847708 0.377761
vt 0.842174 0.382796
vt 0.893991 0.363354
vt 0.884677 0.374587
vt 0.933026 0.341799
vt 0.923057 0.354862
vt 0.963284 0.314047
vt 0.952829 0.327542
vt 0.983611 0.281333
vt 0.992674 0.245745
vt 0.990879 0.208078
vt 0.44 0.1153
vt 0.452113 0.099036
vt 0.454536 0.082275
vt 0.437691 0.131506
vt 0.477102 0.070953
vt 0.47907 0.053305
vt 0.508737 0.047291
vt 0.511877 0.029644
vt 0.548019 0.029746
vt 0.551645 0.011768
vt 0.592865 0.01866
vt 0.596749 0.00032
vt 0.638393 0.012742
vt 0.643042 -0.005674
vt 0.686009 0.013142
vt 0.691463 -0.00526
vt 0.734506 0.020685
vt 0.740784 0.002395
vt 0.783389 0.035933
vt 0.790533 0.017831
vt 0.832023 0.056719
vt 0.839632 0.03953
vt 0.876414 0.083371
vt 0.885157 0.066212
vt 0.914965 0.114329
vt 0.92446 0.097573
vt 0.945887 0.148803
vt 0.955978 0.132544
vt 0.967908 0.185565
vt 0.978443 0.169849
vt 0.980077 0.223222
vt 0.990879 0.208078
vt 0.981783 0.260319
vt 0.992674 0.245745
vt 0.972825 0.295361
vt 0.983611 0.281333
vt 0.952829 0.327542
vt 0.963284 0.314047
vt 0.990511 0.202293
vt 0.978209 0.164436
vt 0.955942 0.127471
vt 0.924681 0.092806
vt 0.885695 0.061714
vt 0.840492 0.035305
vt 0.791881 0.013683
vt 0.742514 -0.001582
vt 0.693592 -0.009154
vt 0.645581 -0.009555
vt 0.599698 -0.00361
vt 0.555118 0.00777
vt 0.515776 0.025494
vt 0.483176 0.04885
vt 0.435765 0.151119
vt 0.437691 0.131506
vt 0.433504 0.166788
vt 0.442908 0.189056
vt 0.440304 0.204008
vt 0.461873 0.228077
vt 0.458923 0.242434
vt 0.491546 0.265847
vt 0.488326 0.279727
vt 0.531362 0.301022
vt 0.527765 0.314487
vt 0.579107 0.331854
vt 0.574846 0.344906
vt 0.623458 0.111631
vt 0.619982 0.112713
vt 0.620671 0.10997
vt 0.626192 0.123868
vt 0.622816 0.125524
vt 0.632021 0.136608
vt 0.629562 0.138446
vt 0.642274 0.148475
vt 0.639752 0.150887
vt 0.654959 0.159961
vt 0.653267 0.162416
vt 0.670657 0.169497
vt 0.66937 0.172385
vt 0.63897 0.152932
vt 0.65259 0.164472
vt 0.66937 0.172385
vt 0.668891 0.174276
vt 0.644541 0.188888
vt 0.629694 0.177221
vt 0.619305 0.165179
vt 0.628766 0.140522
vt 0.61098 0.153399
vt 0.621897 0.127689
vt 0.605961 0.137725
vt 0.618893 0.114655
vt 0.663202 0.196735
vt 0.672636 0.176617
vt 0.668228 0.199496
vt 0.673008 0.174691
vt 0.619982 0.112713
vt 0.66937 0.172385
vt 0.535939 0.120843
vt 0.619982 0.112713
vt 0.536641 0.115747
vt 0.539925 0.091967
vt 0.549235 0.069636
vt 0.570694 0.05252
vt 0.592016 0.03734
vt 0.618099 0.026046
vt 0.64706 0.018293
vt 0.676482 0.01171
vt 0.709121 0.010512
vt 0.744557 0.01163
vt 0.780333 0.022027
vt 0.814999 0.037467
vt 0.846593 0.05686
vt 0.873943 0.079259
vt 0.895878 0.103966
vt 0.532725 0.144638
vt 0.618893 0.114655
vt 0.605961 0.137725
vt 0.53569 0.12269
vt 0.619982 0.112713
vt 0.535939 0.120843
vt 0.536544 0.165785
vt 0.53569 0.12269
vt 0.532725 0.144638
vt 0.53995 0.144611
vt 0.547717 0.19157
vt 0.55179 0.171461
vt 0.564414 0.218882
vt 0.56901 0.199352
vt 0.59187 0.242848
vt 0.597139 0.223793
vt 0.626498 0.264477
vt 0.630949 0.245243
vt 0.64113 0.2712
vt 0.644359 0.251555
vt 0.540237 0.142828
vt 0.535939 0.120843
vt 0.569397 0.197708
vt 0.552134 0.169767
vt 0.569397 0.197708
vt 0.631324 0.243623
vt 0.597584 0.222188
vt 0.644632 0.249901
vt 0.668228 0.199496
vt 0.644359 0.251555
vt 0.64113 0.2712
vt 0.672636 0.176617
vt 0.644632 0.249901
vt 0.673008 0.174691
vt 0.674307 0.171337
vt 0.673008 0.174691
vt 0.673008 0.174691
vt 0.670657 0.169497
vt 0.66937 0.172385
vt 0.533517 0.119513
vt 0.538043 0.142466
vt 0.550352 0.169745
vt 0.568402 0.197707
vt 0.596861 0.222425
vt 0.630863 0.244045
vt 0.540237 0.142828
vt 0.552134 0.169767
vt 0.552134 0.169767
vt 0.569397 0.197708
vt 0.569397 0.197708
vt 0.597584 0.222188
vt 0.535939 0.120843
vt 0.540237 0.142828
vt 0.533517 0.119513
vt 0.754092 0.050187
vt 0.793379 0.070642
vt 0.766322 0.017568
vt 0.806039 0.03813
vt 0.722818 0.012106
vt 0.711021 0.044765
vt 0.683155 0.022968
vt 0.671727 0.055581
vt 0.65119 0.04314
vt 0.640046 0.075646
vt 0.820605 0.106701
vt 0.833601 0.074384
vt 0.815745 0.14258
vt 0.828759 0.110458
vt 0.641168 0.059062
vt 0.633255 0.093938
vt 0.815745 0.14258
vt 0.779927 0.165737
vt 0.828759 0.110458
vt 0.792624 0.133736
vt 0.735449 0.172096
vt 0.747711 0.140127
vt 0.688225 0.16648
vt 0.7 0.134477
vt 0.64854 0.142831
vt 0.659875 0.110692
vt 0.634452 0.112309
vt 0.642482 0.078806
vt 0.633255 0.093938
vt 0.641168 0.059062
vt 0.642482 0.078806
vt 0.641168 0.059062
vt 0.663826 0.075837
vt 0.663381 0.061659
vt 0.678923 0.102057
vt 0.659875 0.110692
vt 0.709039 0.119873
vt 0.7 0.134477
vt 0.743808 0.126478
vt 0.747711 0.140127
vt 0.780672 0.124364
vt 0.792624 0.133736
vt 0.813251 0.104479
vt 0.828759 0.110458
vt 0.813182 0.074425
vt 0.833601 0.074384
vt 0.785844 0.048302
vt 0.806039 0.03813
vt 0.757903 0.029918
vt 0.766322 0.017568
vt 0.7236 0.023481
vt 0.722818 0.012106
vt 0.691955 0.030656
vt 0.683155 0.022968
vt 0.669191 0.048914
vt 0.65119 0.04314
vt 0.691955 0.030656
vt 0.7236 0.023481
vt 0.701819 0.009003
vt 0.732987 0.003421
vt 0.757903 0.029918
vt 0.712805 -0.015113
vt 0.743441 -0.01892
vt 0.7669 0.011155
vt 0.776921 -0.009741
vt 0.794732 0.029974
vt 0.804632 0.009562
vt 0.691124 -0.000534
vt 0.679567 0.025521
vt 0.82189 0.056643
vt 0.831589 0.036838
vt 0.822266 0.085821
vt 0.832306 0.06504
vt 0.685553 0.010938
vt 0.67387 0.037663
vt 0.703023 -0.026787
vt 0.708938 -0.038517
vt 0.720432 -0.06438
vt 0.726689 -0.076367
vt 0.730721 -0.053539
vt 0.748575 -0.091831
vt 0.761248 -0.057198
vt 0.778993 -0.095341
vt 0.794771 -0.048072
vt 0.812558 -0.086267
vt 0.822908 -0.028426
vt 0.84112 -0.06628
vt 0.850526 -0.000908
vt 0.869397 -0.038522
vt 0.851339 0.026956
vt 0.870305 -0.010993
vt 0.862288 -0.164727
vt 0.890016 -0.142304
vt 0.832832 -0.18074
vt 0.808255 -0.186537
vt 0.793565 -0.181545
vt 0.918557 -0.113847
vt 0.924804 -0.093099
vt 0.822266 0.085821
vt 0.790542 0.103503
vt 0.832306 0.06504
vt 0.801534 0.08027
vt 0.75419 0.104042
vt 0.765752 0.079054
vt 0.719623 0.096218
vt 0.731412 0.069871
vt 0.689704 0.077588
vt 0.701713 0.050335
vt 0.674489 0.051442
vt 0.686364 0.024271
vt 0.67387 0.037663
vt 0.685553 0.010938
vt 0.703865 -0.013955
vt 0.703023 -0.026787
vt 0.721304 -0.052047
vt 0.720432 -0.06438
vt 0.737205 -0.025994
vt 0.71949 0.012103
vt 0.767322 -0.006233
vt 0.749398 0.031752
vt 0.801858 0.002896
vt 0.783837 0.040908
vt 0.83878 0.004078
vt 0.82019 0.042107
vt 0.870305 -0.010993
vt 0.851339 0.026956
vt 0.793468 -0.164649
vt 0.790507 -0.174223
vt 0.726689 -0.076367
vt 0.793565 -0.181545
vt 0.811928 -0.140849
vt 0.840848 -0.117717
vt 0.871401 -0.101494
vt 0.902144 -0.090571
vt 0.924804 -0.093099
vt 0.669191 0.048914
vt 0.663381 0.061659
vt 0.663381 0.061659
vt 0.663826 0.075837
vt 0.678923 0.102057
vt 0.709039 0.119873
vt 0.743808 0.126478
vt 0.780672 0.124364
vt 0.813251 0.104479
vt 0.813251 0.104479
vt 0.813182 0.074425
vt 0.785844 0.048302
vn 0.104398 0.8807595 -0.461913
vn 0.09910005 0.8894092 -0.4462404
vn 0.01084165 0.8827701 -0.4696801
vn 0.1069437 0.8716713 -0.4782804
vn 0.1064766 0.8624225 -0.494864
vn 0.1028415 0.8533683 -0.5110638
vn 0.09604985 0.8449791 -0.5261034
vn 0.08588739 0.8374469 -0.5397277
vn 0.07198405 0.8308834 -0.5517708
vn 0.05498614 0.8259179 -0.5611026
vn 0.03521554 0.8229618 -0.5670041
vn 0.01353022 0.822181 -0.5690654
vn -0.007018209 0.8237985 -0.5668392
vn -0.02659061 0.8279112 -0.5602286
vn -0.04577767 0.834753 -0.5487183
vn -0.06275267 0.8440407 -0.532595
vn -0.07597749 0.8550234 -0.5129936
vn -0.08473691 0.8676941 -0.4898231
vn 0.3235821 0.7959841 -0.5115702
vn 0.3197022 0.8344663 -0.448839
vn 0.2609608 0.8814115 -0.3937173
vn 0.1812456 0.8997992 -0.3968773
vn 0.09129024 0.8974513 -0.4315637
vn 0.08133671 0.9046517 -0.4183176
vn 0.06955775 0.9108433 -0.4068492
vn 0.056095 0.9159876 -0.3972656
vn 0.04111819 0.920012 -0.389727
vn 0.02494893 0.9227846 -0.3845076
vn 0.007951336 0.9241776 -0.3818803
vn -0.009474281 0.9240714 -0.3821026
vn 0.004236397 0.9264415 -0.3764149
vn -0.007006261 0.9264444 -0.3763666
vn -0.007718313 0.924146 -0.3819616
vn 0.009678769 0.9240894 -0.3820537
vn 0.02660112 0.9225552 -0.3849472
vn 0.04267596 0.9196588 -0.3903926
vn 0.07080104 0.9218796 -0.3809528
vn 0.07395239 0.9150525 -0.396497
vn 0.09171517 0.9055232 -0.4142655
vn -0.2096612 0.9775741 0.01977389
vn -0.1415167 0.9892754 0.03615508
vn -0.3799723 0.7384671 0.5570345
vn -0.4650937 0.7131126 0.5245553
vn -0.2271066 0.9723891 -0.05368452
vn -0.2268662 0.7659103 0.6015921
vn -0.05046716 0.9977151 0.04491859
vn -0.06387499 0.7848493 0.6163859
vn 0.04194767 0.998519 0.03464312
vn 0.1041988 0.7933766 0.5997468
vn 0.1388449 0.9902019 0.01490832
vn 0.2716449 0.7893123 0.5506317
vn 0.2231008 0.9746274 -0.0181009
vn 0.4312346 0.7706742 0.4691461
vn 0.2868668 0.9533058 -0.09442091
vn 0.5744184 0.7363833 0.3574677
vn 0.3926376 0.9080327 -0.1459879
vn 0.6925965 0.6869124 0.2201399
vn 0.5124857 0.8396276 -0.1799554
vn 0.7795179 0.6234452 0.06056339
vn 0.5820533 0.7703575 -0.260314
vn 0.8279526 0.5502673 -0.1081682
vn 0.6129265 0.688096 -0.3883876
vn 0.8364944 0.4738451 -0.2752237
vn 0.5906777 0.6436749 -0.4866031
vn 0.8098596 0.3991271 -0.4299126
vn 0.5612796 0.5959106 -0.5743307
vn 0.7537951 0.3287169 -0.5689799
vn 0.5017256 0.6339582 -0.5885307
vn 0.674255 0.266466 -0.6887497
vn 0.3519211 0.7072096 -0.6131933
vn 0.5766234 0.2140698 -0.7884667
vn 0.2642551 0.6509764 -0.7116171
vn 0.4742461 0.1725968 -0.8633081
vn 0.2079381 0.6319306 -0.7466092
vn 0.3620845 0.1391488 -0.9217009
vn 0.1407522 0.6203064 -0.7716274
vn 0.2167086 0.1206946 -0.9687467
vn 0.06432117 0.61365 -0.7869539
vn 0.05702401 0.1099284 -0.9923024
vn -0.01163939 0.6119992 -0.7907727
vn -0.09285904 0.1100528 -0.9895784
vn -0.07987592 0.6156195 -0.7839851
vn -0.2187127 0.1203955 -0.9683335
vn -0.1453702 0.6255687 -0.7665058
vn -0.3555458 0.1460886 -0.9231713
vn -0.2182231 0.6430791 -0.734049
vn -0.4969207 0.1806494 -0.8487847
vn -0.288111 0.6679986 -0.6861268
vn -0.631165 0.2293739 -0.7409577
vn -0.3521643 0.7000222 -0.6212481
vn -0.7409778 0.2987312 -0.6014246
vn -0.4628459 0.695774 -0.549247
vn -0.8195159 0.3678615 -0.4393992
vn -0.3115308 0.8299117 -0.4628121
vn -0.8602346 0.4413921 -0.2552833
vn -0.4499048 0.8187451 -0.3567102
vn -0.8563638 0.5121936 -0.06556431
vn -0.4412223 0.8589848 -0.2597463
vn -0.8124458 0.5726716 0.1094499
vn -0.4108616 0.8955616 -0.1707696
vn -0.7351367 0.6243179 0.264199
vn -0.3622106 0.9273531 -0.09391271
vn -0.6338068 0.6679108 0.3901079
vn -0.3401322 0.9388753 -0.05313475
vn -0.5341758 0.6980414 0.4768592
vn -0.9361096 -0.03605071 -0.3498559
vn -0.8374282 -0.1403535 -0.5282185
vn -0.7060648 -0.2283086 -0.670334
vn 0.06221743 0.766345 -0.6394094
vn -0.1151784 0.8617924 -0.4940119
vn -0.2148188 0.8975261 -0.3850974
vn -0.4763461 0.8261888 -0.3008429
vn -0.01709824 0.663982 -0.7475531
vn 0.1559176 0.4782281 -0.8642844
vn 0.4895962 0.2101963 -0.8462346
vn -0.5207873 0.4470447 0.7272768
vn -0.4706111 0.4595042 0.753247
vn -0.5201821 0.2904599 0.803146
vn -0.4189612 0.3130188 0.8523443
vn -0.310307 0.4896925 0.8148072
vn -0.2553379 0.3369584 0.9062348
vn -0.1372044 0.5081439 0.8502733
vn -0.08016928 0.3462262 0.9347194
vn 0.04498328 0.5131613 0.8571126
vn 0.1028443 0.3395184 0.93496
vn 0.2322747 0.5030163 0.8324801
vn 0.2891534 0.3156266 0.9037533
vn 0.4186214 0.4758217 0.7735308
vn 0.4719519 0.2734837 0.8381336
vn 0.5953299 0.4303646 0.6785046
vn 0.6417555 0.2131941 0.7366806
vn 0.7514316 0.3668936 0.5483973
vn 0.7874224 0.1364135 0.6011299
vn 0.8769632 0.2865545 0.3857746
vn 0.9611493 0.1928289 0.197507
vn 0.9954254 0.09551916 0.00210271
vn -0.9361096 -0.03605071 -0.3498559
vn -0.8771871 -0.2969812 -0.3772862
vn -0.8374282 -0.1403535 -0.5282185
vn -0.9630476 -0.1921218 -0.1887553
vn -0.7524032 -0.4076543 -0.5174044
vn -0.7060648 -0.2283086 -0.670334
vn -0.6070625 -0.4684093 -0.6419252
vn -0.5458281 -0.275767 -0.7912169
vn -0.4347771 -0.5157951 -0.73819
vn -0.3749809 -0.3259157 -0.8678526
vn -0.2736056 -0.5572799 -0.783951
vn -0.2268447 -0.3562265 -0.906446
vn -0.129115 -0.5768923 -0.806551
vn -0.06635289 -0.367818 -0.9275275
vn 0.04990175 -0.581951 -0.8116913
vn 0.1202072 -0.3666981 -0.9225415
vn 0.2435043 -0.5702887 -0.7845231
vn 0.3142303 -0.3493408 -0.8827345
vn 0.4135822 -0.5448486 -0.7294449
vn 0.4691266 -0.3130407 -0.825788
vn 0.5530266 -0.4899311 -0.673891
vn 0.599829 -0.263386 -0.7555349
vn 0.6816897 -0.4485975 -0.5779786
vn 0.7249789 -0.2258411 -0.6506931
vn 0.7972435 -0.4005756 -0.4515994
vn 0.8384545 -0.1630994 -0.5199928
vn 0.8935261 -0.3310223 -0.3033732
vn 0.9269293 -0.08689102 -0.3650371
vn 0.9594023 -0.2483139 -0.1337438
vn 0.9819939 0.0005052274 -0.188912
vn 0.9865562 -0.1549319 0.05199158
vn 0.9954254 0.09551916 0.00210271
vn 0.9680053 -0.05558755 0.2446956
vn 0.9611493 0.1928289 0.197507
vn 0.9004544 0.04404492 0.4327145
vn 0.8769632 0.2865545 0.3857746
vn 0.7874224 0.1364135 0.6011299
vn 0.7514316 0.3668936 0.5483973
vn 0.8364944 0.4738451 -0.2752237
vn 0.8098596 0.3991271 -0.4299126
vn 0.7537951 0.3287169 -0.5689799
vn 0.674255 0.266466 -0.6887497
vn 0.5766234 0.2140698 -0.7884667
vn 0.4742461 0.1725968 -0.8633081
vn 0.3620845 0.1391488 -0.9217009
vn 0.2167086 0.1206946 -0.9687467
vn 0.05702401 0.1099284 -0.9923024
vn -0.09285904 0.1100528 -0.9895784
vn -0.2187127 0.1203955 -0.9683335
vn -0.3555458 0.1460886 -0.9231713
vn -0.4969207 0.1806494 -0.8487847
vn -0.631165 0.2293739 -0.7409577
vn -0.9866512 0.06227323 -0.1504709
vn -0.9630476 -0.1921218 -0.1887553
vn -0.9964199 -0.08357925 0.0127254
vn -0.9848942 0.1633307 0.05750218
vn -0.9766336 0.02404567 0.2135617
vn -0.9346007 0.2517992 0.2512342
vn -0.911111 0.1115457 0.3967801
vn -0.8487506 0.3214354 0.4198829
vn -0.8127541 0.180176 0.5540465
vn -0.7371235 0.3773078 0.5606138
vn -0.6953635 0.2349502 0.6791671
vn -0.6114079 0.422479 0.6690978
vn -0.5661274 0.2785231 0.775838
vn -0.2278492 0.8912449 -0.3921317
vn -0.5261828 0.8244192 -0.2084819
vn -0.1501216 0.943487 -0.2954588
vn -0.3063261 0.8614378 -0.4050794
vn -0.8075823 0.5701775 -0.1506933
vn -0.3253997 0.8881478 -0.3245126
vn -0.7825418 0.621954 0.02830997
vn -0.2893654 0.9182642 -0.2702934
vn -0.7087883 0.6868764 0.160686
vn -0.2612189 0.9426993 -0.2075636
vn -0.6186872 0.7276416 0.2962496
vn -0.3207818 0.9251119 -0.2031427
vn -0.6060984 0.7231663 0.3311725
vn -0.8274923 0.3293698 0.454722
vn -0.705422 0.3714048 0.6036872
vn -0.654561 0.6414177 0.4001664
vn -0.6807082 0.3296095 0.6542124
vn -0.6423654 0.3856211 0.6623164
vn -0.7948037 0.3453253 0.4990366
vn -0.8865972 0.2907523 0.3597342
vn -0.9122722 0.2733234 0.305047
vn -0.9474639 0.2477764 0.2022841
vn -0.9700262 0.2162123 0.1109112
vn -0.9772428 0.208421 0.0394636
vn -0.982964 0.1826074 -0.0208885
vn -0.6596362 0.326583 0.6769223
vn -0.7246987 0.2886078 0.6257135
vn -0.684702 0.3070897 0.6609682
vn -0.7401788 0.6251692 0.2475859
vn -0.6233945 0.7406072 -0.2507595
vn -0.6993612 0.5157648 0.4948541
vn 0.1675825 0.9618315 -0.2163247
vn -0.3577056 0.9045881 -0.2318772
vn 0.03523246 0.9440514 -0.327911
vn -0.07429529 0.8776625 -0.4734857
vn -0.07701943 0.8561772 -0.5109098
vn -0.06427324 0.8451055 -0.5307218
vn -0.0475942 0.8355962 -0.5472785
vn -0.0285762 0.8284937 -0.5592688
vn -0.008950652 0.8241013 -0.5663717
vn 0.01138411 0.8222546 -0.569006
vn 0.03301779 0.8227873 -0.5673895
vn 0.05315701 0.8255448 -0.5618274
vn 0.07037756 0.8303118 -0.5528374
vn 0.08464079 0.8367431 -0.5410148
vn 0.1855895 0.8416786 -0.5070835
vn 0.288947 0.7545955 -0.5891479
vn 0.311994 0.7769808 -0.546773
vn 0.02126303 0.50463 0.8630738
vn 0.02243777 0.5073076 0.8614729
vn 0.01544643 0.5143314 0.8574523
vn 0.02652146 0.5008722 0.8651149
vn 0.02624357 0.5038754 0.8633776
vn 0.02769805 0.4950522 0.8684216
vn 0.9909492 0.04014246 -0.1280946
vn 0.9947408 0.07359189 -0.07123908
vn 0.9945765 0.07931713 -0.06727934
vn 0.9868847 0.02045393 -0.1601254
vn 0.9581434 -0.04899295 -0.2820654
vn 0.9514787 -0.06026452 -0.3017556
vn 0.8886279 -0.1315013 -0.4393721
vn 0.8634641 -0.1529828 -0.4806516
vn 0.736201 -0.2327499 -0.6354806
vn 0.7166811 -0.2405491 -0.6546025
vn 0.6210231 -0.2762458 -0.7334975
vn 0.6111929 -0.2774256 -0.741268
vn 0.5650774 -0.2912749 -0.771911
vn 0.5706865 -0.288281 -0.7689024
vn 0.9350439 0.2108377 -0.2850268
vn 0.913561 0.3356941 -0.2295991
vn 0.7704455 0.1488244 -0.6198911
vn 0.8384467 0.2918243 -0.460267
vn 0.7310218 0.2647103 -0.628916
vn 0.4895962 0.2101963 -0.8462346
vn 0.6201408 0.1706485 -0.7657052
vn 0.309436 0.290213 -0.9055527
vn -0.9151837 -0.2694184 -0.2997541
vn -0.9151222 -0.2695398 -0.2998328
vn -0.9151959 -0.2702825 -0.2989378
vn -0.9151053 -0.2689922 -0.3003754
vn -0.9150728 -0.2692114 -0.3002781
vn -0.9151462 -0.2686402 -0.300566
vn -0.3135494 0.8961974 -0.3138742
vn -0.6387217 0.7681546 -0.04441755
vn -0.4763461 0.8261888 -0.3008429
vn -0.3207818 0.9251119 -0.2031427
vn -0.654561 0.6414177 0.4001664
vn 0.2572848 0.8752121 -0.4096439
vn 0.1801957 0.8501014 -0.4948304
vn 0.1977668 0.8384997 -0.5077467
vn 0.2187726 0.7941318 -0.5670038
vn 0.1824015 0.7766172 -0.6029888
vn 0.1000257 0.80496 -0.5848371
vn 0.4090248 0.7745512 -0.4824616
vn 0.4039555 0.754196 -0.5176953
vn 0.7800598 0.3955303 -0.4848325
vn 0.6362731 0.4996544 -0.5877941
vn 0.7310218 0.2647103 -0.628916
vn 0.6201408 0.1706485 -0.7657052
vn 0.5572868 0.804499 -0.2054574
vn 0.803811 0.4501675 -0.388892
vn 0.2572848 0.8752121 -0.4096439
vn 0.3026971 -0.4436702 -0.8435231
vn 0.7224907 -0.3269592 -0.6091837
vn 0.4584906 -0.4154946 -0.7855893
vn 0.8300889 -0.2662061 -0.4899864
vn -0.01980823 -0.4619708 -0.8866739
vn -0.1864782 -0.4522519 -0.8721778
vn -0.4327909 -0.4123104 -0.8016809
vn -0.5186863 -0.3899239 -0.7608705
vn -0.6951286 -0.3252042 -0.6411228
vn -0.8135573 -0.2844471 -0.5071631
vn 0.9784418 -0.1053052 -0.1776582
vn 0.999731 -0.0008738429 0.02317526
vn 0.8952281 0.1968142 0.3997884
vn 0.7653876 0.2896864 0.5746857
vn -0.9433024 -0.1863642 -0.2746798
vn -0.9825969 -0.1339212 -0.1287177
vn 0.8952281 0.1968142 0.3997884
vn 0.4739321 0.4022319 0.7833248
vn 0.7653876 0.2896864 0.5746857
vn 0.3305926 0.4329162 0.8386251
vn 0.0743542 0.4602377 0.8846766
vn -0.03633745 0.4623366 0.8859597
vn -0.3201655 0.4411999 0.8383536
vn -0.4901172 0.407927 0.770312
vn -0.7846731 0.2945326 0.5454712
vn -0.8916314 0.2021806 0.4051129
vn -0.9874807 0.0466422 0.1506866
vn -0.9974384 -0.0211083 0.06834521
vn -0.9825969 -0.1339212 -0.1287177
vn -0.9433024 -0.1863642 -0.2746798
vn 0.01475901 0.8819513 -0.4711093
vn -0.006521893 0.8842285 -0.4670092
vn 0.006419189 0.8792052 -0.4764
vn -0.004265099 0.8917869 -0.4524355
vn 0.01385248 0.8875771 -0.460451
vn 0.01099436 0.8877435 -0.460207
vn 0.01068688 0.8868267 -0.4619786
vn 0.01069548 0.8856168 -0.4642935
vn 0.0126492 0.8846301 -0.466122
vn 0.01013116 0.8802438 -0.4744135
vn 0.003988212 0.8784349 -0.4778453
vn 0.002754847 0.8789564 -0.4768942
vn 0.005063942 0.8833652 -0.4686579
vn 0.01148185 0.8860784 -0.4633932
vn 0.01086873 0.8864992 -0.4626025
vn 0.01087043 0.8863725 -0.4628452
vn 0.01107852 0.886393 -0.4628009
vn 0.01322109 0.8823751 -0.4703608
vn 0.01553801 0.8783519 -0.4777619
vn 0.01956202 0.8787438 -0.4768926
vn 0.01783903 0.8832851 -0.4684969
vn 0.02796961 0.8950018 -0.445185
vn 0.03860519 0.9009804 -0.4321389
vn 0.03970622 0.9041501 -0.4253658
vn 0.03013174 0.8990715 -0.4367637
vn 0.005074564 0.8972066 -0.4415819
vn -0.5614234 -0.3573692 -0.7463853
vn -0.1114574 -0.4696983 -0.8757629
vn -0.4911781 -0.382559 -0.7825552
vn -0.01736618 -0.4775072 -0.8784562
vn 0.3998529 -0.4658282 -0.7893807
vn -0.4937861 -0.4203515 -0.7612358
vn -0.01916916 -0.548071 -0.8362122
vn 0.4838425 -0.4500869 -0.7505453
vn 0.4779435 -0.5345806 -0.696989
vn 0.7649792 -0.3549185 -0.5374379
vn 0.7599338 -0.4325112 -0.4852161
vn -0.7998293 -0.2317592 -0.5536793
vn -0.8032842 -0.225687 -0.5511804
vn 0.9721788 -0.1674516 -0.1637939
vn 0.9650432 -0.232922 -0.1201623
vn 0.8525798 0.1886648 0.4873534
vn 0.8490571 0.1802995 0.4965825
vn -0.9571297 -0.03420738 -0.2876328
vn -0.9607377 -0.05501674 -0.271949
vn -0.9543563 -0.02132593 -0.2979082
vn -0.8011157 -0.2466199 -0.5453368
vn -0.9335168 0.06373964 -0.3528225
vn -0.7972838 -0.2001159 -0.5694665
vn -0.5029097 -0.468302 -0.7264813
vn -0.5122765 -0.4751769 -0.7153879
vn -0.02788842 -0.622584 -0.7820559
vn -0.05715807 -0.6986791 -0.7131484
vn 0.4637866 -0.6148319 -0.6378744
vn 0.4116074 -0.7471662 -0.5218449
vn 0.7452792 -0.5076593 -0.432251
vn 0.6787038 -0.6680288 -0.3051207
vn 0.9537956 -0.2869121 -0.08919418
vn 0.8932387 -0.4487902 0.02668229
vn 0.8507411 0.1967595 0.4873655
vn 0.8329535 0.1272817 0.5385051
vn 0.3761429 -0.86465 -0.3330118
vn 0.5824164 -0.7989469 -0.1499168
vn -0.05467727 -0.8106375 -0.5829899
vn -0.4774702 -0.5563415 -0.6800782
vn -0.7722769 -0.2091387 -0.5998745
vn 0.8517892 -0.4847601 0.1986523
vn 0.764662 0.2243288 0.6041264
vn 0.8525798 0.1886648 0.4873534
vn 0.3401036 0.4236226 0.8395674
vn 0.8490571 0.1802995 0.4965825
vn 0.3404377 0.4795934 0.8087597
vn -0.08307519 0.4872966 0.8692759
vn -0.07926223 0.5633458 0.8224105
vn -0.4522492 0.4680842 0.759189
vn -0.446438 0.5470519 0.7081153
vn -0.8267345 0.337004 0.4504867
vn -0.8204756 0.4076678 0.4007825
vn -0.9901921 0.1307445 0.04925019
vn -0.9839479 0.1774403 0.01901446
vn -0.9607377 -0.05501674 -0.271949
vn -0.9571297 -0.03420738 -0.2876328
vn -0.9761305 0.2171831 -0.0008965369
vn -0.9543563 -0.02132593 -0.2979082
vn -0.9415069 0.3298894 -0.06883226
vn -0.9335168 0.06373964 -0.3528225
vn -0.764089 0.5831276 0.2759171
vn -0.8072014 0.4691531 0.3582194
vn -0.3950059 0.7179235 0.5731983
vn -0.4321108 0.6209512 0.6539875
vn -0.03638814 0.7107766 0.702476
vn -0.06635026 0.6345522 0.7700267
vn 0.3614543 0.5765455 0.7327661
vn 0.3461722 0.5413586 0.7662216
vn 0.8329535 0.1272817 0.5385051
vn 0.8507411 0.1967595 0.4873655
vn -0.9057254 0.3842633 -0.1788941
vn -0.8971914 0.08196687 -0.4339689
vn -0.7972838 -0.2001159 -0.5694665
vn -0.7722769 -0.2091387 -0.5998745
vn -0.7509177 0.6464222 0.1351333
vn -0.3942388 0.7978183 0.4561378
vn -0.02969145 0.7815757 0.6231034
vn 0.3226642 0.6518416 0.6862874
vn 0.764662 0.2243288 0.6041264
vn -0.8416269 -0.1964032 -0.5030804
vn -0.9746962 -0.02578417 -0.2220415
vn -0.9746962 -0.02578417 -0.2220415
vn -0.979956 0.164599 0.1122195
vn -0.7669687 0.3700802 0.5242133
vn -0.378451 0.4775395 0.7929254
vn -0.02323019 0.4819647 0.8758826
vn 0.4284869 0.3973761 0.8114747
vn 0.9189605 0.122096 0.3749724
vn 0.9189605 0.122096 0.3749724
vn 0.9348877 -0.225265 -0.2743003
vn 0.7384781 -0.3698643 -0.5637823
g Pump_TopLid_0
f 3/3/3 2/2/2 1/1/1
f 3/3/3 1/1/1 4/4/4
f 3/3/3 4/4/4 5/5/5
f 3/3/3 5/5/5 6/6/6
f 3/3/3 6/6/6 7/7/7
f 3/3/3 7/7/7 8/8/8
f 3/3/3 8/8/8 9/9/9
f 3/3/3 9/9/9 10/10/10
f 3/3/3 10/10/10 11/11/11
f 3/3/3 11/11/11 12/12/12
f 3/3/3 12/12/12 13/13/13
f 3/3/3 13/13/13 14/14/14
f 3/3/3 14/14/14 15/15/15
f 3/3/3 15/15/15 16/16/16
f 3/3/3 16/16/16 17/17/17
f 3/3/3 17/17/17 18/18/18
f 4/4/4 19/19/19 5/5/5
f 4/4/4 20/20/20 19/19/19
f 1/1/1 20/20/20 4/4/4
f 1/1/1 21/21/21 20/20/20
f 2/2/2 21/21/21 1/1/1
f 2/2/2 22/22/22 21/21/21
f 23/23/23 22/22/22 2/2/2
f 3/3/3 23/23/23 2/2/2
f 3/3/3 24/24/24 23/23/23
f 3/3/3 25/25/25 24/24/24
f 3/3/3 26/26/26 25/25/25
f 3/3/3 27/27/27 26/26/26
f 3/3/3 28/28/28 27/27/27
f 3/3/3 29/29/29 28/28/28
f 3/3/3 30/30/30 29/29/29
f 3/3/3 31/31/31 30/30/30
f 31/31/31 32/32/32 30/30/30
f 30/30/30 32/32/32 33/33/33
f 30/30/30 33/33/33 29/29/29
f 29/29/29 33/33/33 34/34/34
f 29/29/29 34/34/34 28/28/28
f 28/28/28 34/34/34 35/35/35
f 28/28/28 35/35/35 27/27/27
f 27/27/27 35/35/35 36/36/36
f 27/27/27 36/36/36 26/26/26
f 26/26/26 36/36/36 37/37/37
f 26/26/26 37/37/37 25/25/25
f 25/25/25 37/37/37 38/38/38
f 25/25/25 38/38/38 24/24/24
f 24/24/24 38/38/38 39/39/39
f 24/24/24 39/39/39 23/23/23
f 23/23/23 39/39/39 22/22/22
f 32/32/32 40/40/40 33/33/33
f 33/33/33 40/40/40 41/41/41
f 33/33/33 41/41/41 34/34/34
f 40/40/40 42/42/42 41/41/41
f 40/40/40 43/43/43 42/42/42
f 44/44/44 43/43/43 40/40/40
f 40/40/40 32/32/32 44/44/44
f 41/41/41 42/42/42 45/45/45
f 41/41/41 45/45/45 46/46/46
f 34/34/34 41/41/41 46/46/46
f 34/34/34 46/46/46 35/35/35
f 46/46/46 45/45/45 47/47/47
f 46/46/46 47/47/47 48/48/48
f 35/35/35 46/46/46 48/48/48
f 35/35/35 48/48/48 36/36/36
f 48/48/48 47/47/47 49/49/49
f 48/48/48 49/49/49 50/50/50
f 36/36/36 48/48/48 50/50/50
f 50/50/50 49/49/49 51/51/51
f 50/50/50 51/51/51 52/52/52
f 52/52/52 51/51/51 53/53/53
f 52/52/52 53/53/53 54/54/54
f 54/54/54 53/53/53 55/55/55
f 54/54/54 55/55/55 56/56/56
f 56/56/56 55/55/55 57/57/57
f 56/56/56 57/57/57 58/58/58
f 58/58/58 57/57/57 59/59/59
f 58/58/58 59/59/59 60/60/60
f 60/60/60 59/59/59 61/61/61
f 60/60/60 61/61/61 62/62/62
f 62/62/62 61/61/61 63/63/63
f 62/62/62 63/63/63 64/64/64
f 64/64/64 63/63/63 65/65/65
f 64/64/64 65/65/65 66/66/66
f 66/66/66 65/65/65 67/67/67
f 66/66/66 67/67/67 68/68/68
f 68/68/68 67/67/67 69/69/69
f 68/68/68 69/69/69 70/70/70
f 70/70/70 69/69/69 71/71/71
f 70/70/70 71/71/71 72/72/72
f 72/72/72 71/71/71 73/73/73
f 72/72/72 73/73/73 74/74/74
f 74/74/74 73/73/73 75/75/75
f 74/74/74 75/75/75 76/76/76
f 76/76/76 75/75/75 77/77/77
f 76/76/76 77/77/77 78/78/78
f 78/78/78 77/77/77 79/79/79
f 78/78/78 79/79/79 80/80/80
f 80/80/80 79/79/79 81/81/81
f 80/80/80 81/81/81 82/82/82
f 82/82/82 81/81/81 83/83/83
f 82/82/82 83/83/83 84/84/84
f 84/84/84 83/83/83 85/85/85
f 84/84/84 85/85/85 86/86/86
f 86/86/86 85/85/85 87/87/87
f 86/86/86 87/87/87 88/88/88
f 88/88/88 87/87/87 89/89/89
f 88/88/88 89/89/89 90/90/90
f 90/90/90 89/89/89 91/91/91
f 90/90/90 91/91/91 92/92/92
f 92/92/92 91/91/91 93/93/93
f 92/92/92 93/93/93 94/94/94
f 94/94/94 93/93/93 95/95/95
f 94/94/94 95/95/95 96/96/96
f 96/96/96 95/95/95 97/97/97
f 96/96/96 97/97/97 98/98/98
f 98/98/98 97/97/97 99/99/99
f 98/98/98 99/99/99 100/100/100
f 100/100/100 99/99/99 101/101/101
f 100/100/100 101/101/101 102/102/102
f 102/102/102 101/101/101 103/103/103
f 102/102/102 103/103/103 104/104/104
f 104/104/104 103/103/103 105/105/105
f 93/93/93 91/91/91 106/106/106
f 106/106/106 91/91/91 107/107/107
f 91/91/91 89/89/89 107/107/107
f 107/107/107 89/89/89 108/108/108
f 104/104/104 105/105/105 44/44/44
f 109/109/109 104/104/104 44/44/44
f 109/109/109 44/44/44 110/110/110
f 32/32/32 110/110/110 44/44/44
f 32/32/32 31/31/31 110/110/110
f 110/110/110 31/31/31 111/111/111
f 112/112/112 110/110/110 111/111/111
f 113/113/113 110/110/110 112/112/112
f 109/109/109 110/110/110 114/114/114
f 115/115/115 109/109/109 114/114/114
f 44/44/44 105/105/105 43/43/43
f 43/43/43 105/105/105 116/116/116
f 117/117/117 43/43/43 116/116/116
f 116/116/116 118/118/118 117/117/117
f 117/117/117 118/118/118 119/119/119
f 117/117/117 119/119/119 120/120/120
f 120/120/120 119/119/119 121/121/121
f 120/120/120 121/121/121 122/122/122
f 122/122/122 121/121/121 123/123/123
f 122/122/122 123/123/123 124/124/124
f 124/124/124 123/123/123 125/125/125
f 124/124/124 125/125/125 126/126/126
f 126/126/126 125/125/125 127/127/127
f 126/126/126 127/127/127 128/128/128
f 128/128/128 127/127/127 129/129/129
f 128/128/128 129/129/129 130/130/130
f 130/130/130 129/129/129 131/131/131
f 130/130/130 131/131/131 132/132/132
f 132/132/132 131/131/131 133/133/133
f 122/122/122 45/45/45 120/120/120
f 45/45/45 42/42/42 120/120/120
f 120/120/120 42/42/42 117/117/117
f 42/42/42 43/43/43 117/117/117
f 126/126/126 49/49/49 124/124/124
f 49/49/49 47/47/47 124/124/124
f 47/47/47 45/45/45 122/122/122
f 124/124/124 47/47/47 122/122/122
f 130/130/130 53/53/53 128/128/128
f 53/53/53 51/51/51 128/128/128
f 51/51/51 49/49/49 126/126/126
f 128/128/128 51/51/51 126/126/126
f 55/55/55 53/53/53 130/130/130
f 132/132/132 55/55/55 130/130/130
f 57/57/57 55/55/55 132/132/132
f 134/134/134 57/57/57 132/132/132
f 59/59/59 57/57/57 134/134/134
f 134/134/134 135/135/135 59/59/59
f 59/59/59 135/135/135 61/61/61
f 136/136/136 61/61/61 135/135/135
f 63/63/63 61/61/61 136/136/136
f 139/139/139 138/138/138 137/137/137
f 137/137/137 138/138/138 140/140/140
f 139/139/139 141/141/141 138/138/138
f 142/142/142 141/141/141 139/139/139
f 142/142/142 143/143/143 141/141/141
f 144/144/144 143/143/143 142/142/142
f 144/144/144 145/145/145 143/143/143
f 146/146/146 145/145/145 144/144/144
f 146/146/146 147/147/147 145/145/145
f 148/148/148 147/147/147 146/146/146
f 148/148/148 149/149/149 147/147/147
f 150/150/150 149/149/149 148/148/148
f 150/150/150 151/151/151 149/149/149
f 152/152/152 151/151/151 150/150/150
f 152/152/152 153/153/153 151/151/151
f 154/154/154 153/153/153 152/152/152
f 154/154/154 155/155/155 153/153/153
f 156/156/156 155/155/155 154/154/154
f 156/156/156 157/157/157 155/155/155
f 158/158/158 157/157/157 156/156/156
f 158/158/158 159/159/159 157/157/157
f 160/160/160 159/159/159 158/158/158
f 160/160/160 161/161/161 159/159/159
f 162/162/162 161/161/161 160/160/160
f 162/162/162 163/163/163 161/161/161
f 164/164/164 163/163/163 162/162/162
f 164/164/164 165/165/165 163/163/163
f 166/166/166 165/165/165 164/164/164
f 166/166/166 167/167/167 165/165/165
f 168/168/168 167/167/167 166/166/166
f 168/168/168 169/169/169 167/167/167
f 170/170/170 169/169/169 168/168/168
f 170/170/170 171/171/171 169/169/169
f 172/172/172 171/171/171 170/170/170
f 172/172/172 173/173/173 171/171/171
f 174/174/174 173/173/173 172/172/172
f 166/166/166 175/175/175 168/168/168
f 176/176/176 175/175/175 166/166/166
f 164/164/164 176/176/176 166/166/166
f 177/177/177 176/176/176 164/164/164
f 162/162/162 177/177/177 164/164/164
f 178/178/178 177/177/177 162/162/162
f 160/160/160 178/178/178 162/162/162
f 179/179/179 178/178/178 160/160/160
f 158/158/158 179/179/179 160/160/160
f 180/180/180 179/179/179 158/158/158
f 156/156/156 180/180/180 158/158/158
f 181/181/181 180/180/180 156/156/156
f 154/154/154 181/181/181 156/156/156
f 182/182/182 181/181/181 154/154/154
f 152/152/152 182/182/182 154/154/154
f 183/183/183 182/182/182 152/152/152
f 150/150/150 183/183/183 152/152/152
f 184/184/184 183/183/183 150/150/150
f 148/148/148 184/184/184 150/150/150
f 185/185/185 184/184/184 148/148/148
f 146/146/146 185/185/185 148/148/148
f 186/186/186 185/185/185 146/146/146
f 144/144/144 186/186/186 146/146/146
f 187/187/187 186/186/186 144/144/144
f 142/142/142 187/187/187 144/144/144
f 188/188/188 187/187/187 142/142/142
f 106/106/106 190/190/190 189/189/189
f 189/189/189 190/190/190 191/191/191
f 189/189/189 191/191/191 192/192/192
f 192/192/192 191/191/191 193/193/193
f 192/192/192 193/193/193 194/194/194
f 194/194/194 193/193/193 195/195/195
f 194/194/194 195/195/195 196/196/196
f 196/196/196 195/195/195 197/197/197
f 196/196/196 197/197/197 198/198/198
f 198/198/198 197/197/197 199/199/199
f 198/198/198 199/199/199 200/200/200
f 200/200/200 199/199/199 201/201/201
f 200/200/200 103/103/103 198/198/198
f 105/105/105 103/103/103 200/200/200
f 116/116/116 105/105/105 200/200/200
f 200/200/200 201/201/201 116/116/116
f 103/103/103 101/101/101 198/198/198
f 198/198/198 101/101/101 196/196/196
f 101/101/101 99/99/99 196/196/196
f 196/196/196 99/99/99 194/194/194
f 99/99/99 97/97/97 194/194/194
f 194/194/194 97/97/97 192/192/192
f 97/97/97 95/95/95 192/192/192
f 116/116/116 201/201/201 118/118/118
f 192/192/192 95/95/95 189/189/189
f 95/95/95 93/93/93 189/189/189
f 189/189/189 93/93/93 106/106/106
f 204/204/204 203/203/203 202/202/202
f 205/205/205 202/202/202 203/203/203
f 206/206/206 205/205/205 203/203/203
f 206/206/206 207/207/207 205/205/205
f 208/208/208 207/207/207 206/206/206
f 208/208/208 209/209/209 207/207/207
f 210/210/210 209/209/209 208/208/208
f 210/210/210 211/211/211 209/209/209
f 212/212/212 211/211/211 210/210/210
f 212/212/212 213/213/213 211/211/211
f 214/214/214 213/213/213 212/212/212
f 215/215/215 212/212/212 210/210/210
f 216/216/216 212/212/212 215/215/215
f 216/216/216 217/217/217 212/212/212
f 218/218/218 217/217/217 216/216/216
f 219/219/219 218/218/218 216/216/216
f 219/219/219 216/216/216 220/220/220
f 220/220/220 216/216/216 215/215/215
f 220/220/220 215/215/215 221/221/221
f 221/221/221 215/215/215 222/222/222
f 222/222/222 210/210/210 208/208/208
f 215/215/215 210/210/210 222/222/222
f 221/221/221 222/222/222 223/223/223
f 223/223/223 222/222/222 224/224/224
f 223/223/223 224/224/224 225/225/225
f 225/225/225 224/224/224 226/226/226
f 227/227/227 218/218/218 219/219/219
f 227/227/227 228/228/228 218/218/218
f 229/229/229 228/228/228 227/227/227
f 228/228/228 230/230/230 218/218/218
f 224/224/224 206/206/206 226/226/226
f 226/226/226 206/206/206 231/231/231
f 224/224/224 208/208/208 206/206/206
f 222/222/222 208/208/208 224/224/224
f 218/218/218 230/230/230 232/232/232
f 234/234/234 204/204/204 233/233/233
f 233/233/233 204/204/204 235/235/235
f 204/204/204 236/236/236 235/235/235
f 235/235/235 236/236/236 94/94/94
f 92/92/92 94/94/94 236/236/236
f 236/236/236 90/90/90 92/92/92
f 237/237/237 90/90/90 236/236/236
f 18/18/18 237/237/237 236/236/236
f 18/18/18 236/236/236 204/204/204
f 17/17/17 237/237/237 18/18/18
f 17/17/17 238/238/238 237/237/237
f 16/16/16 238/238/238 17/17/17
f 16/16/16 239/239/239 238/238/238
f 15/15/15 239/239/239 16/16/16
f 15/15/15 240/240/240 239/239/239
f 14/14/14 240/240/240 15/15/15
f 14/14/14 241/241/241 240/240/240
f 13/13/13 241/241/241 14/14/14
f 13/13/13 242/242/242 241/241/241
f 12/12/12 242/242/242 13/13/13
f 12/12/12 243/243/243 242/242/242
f 11/11/11 243/243/243 12/12/12
f 11/11/11 244/244/244 243/243/243
f 10/10/10 244/244/244 11/11/11
f 10/10/10 245/245/245 244/244/244
f 9/9/9 245/245/245 10/10/10
f 9/9/9 246/246/246 245/245/245
f 8/8/8 246/246/246 9/9/9
f 8/8/8 247/247/247 246/246/246
f 7/7/7 247/247/247 8/8/8
f 7/7/7 248/248/248 247/247/247
f 6/6/6 248/248/248 7/7/7
f 6/6/6 249/249/249 248/248/248
f 5/5/5 249/249/249 6/6/6
f 5/5/5 19/19/19 249/249/249
f 244/244/244 76/76/76 243/243/243
f 243/243/243 76/76/76 78/78/78
f 243/243/243 78/78/78 242/242/242
f 246/246/246 72/72/72 245/245/245
f 245/245/245 72/72/72 74/74/74
f 244/244/244 74/74/74 76/76/76
f 245/245/245 74/74/74 244/244/244
f 248/248/248 68/68/68 247/247/247
f 247/247/247 68/68/68 70/70/70
f 246/246/246 70/70/70 72/72/72
f 247/247/247 70/70/70 246/246/246
f 19/19/19 64/64/64 249/249/249
f 249/249/249 64/64/64 66/66/66
f 248/248/248 66/66/66 68/68/68
f 249/249/249 66/66/66 248/248/248
f 242/242/242 78/78/78 80/80/80
f 242/242/242 80/80/80 241/241/241
f 241/241/241 80/80/80 82/82/82
f 241/241/241 82/82/82 240/240/240
f 240/240/240 82/82/82 84/84/84
f 240/240/240 84/84/84 239/239/239
f 239/239/239 84/84/84 86/86/86
f 239/239/239 86/86/86 238/238/238
f 238/238/238 86/86/86 88/88/88
f 238/238/238 88/88/88 237/237/237
f 237/237/237 88/88/88 90/90/90
f 19/19/19 62/62/62 64/64/64
f 20/20/20 62/62/62 19/19/19
f 20/20/20 60/60/60 62/62/62
f 21/21/21 60/60/60 20/20/20
f 21/21/21 58/58/58 60/60/60
f 22/22/22 58/58/58 21/21/21
f 22/22/22 56/56/56 58/58/58
f 39/39/39 56/56/56 22/22/22
f 39/39/39 54/54/54 56/56/56
f 38/38/38 54/54/54 39/39/39
f 38/38/38 52/52/52 54/54/54
f 37/37/37 52/52/52 38/38/38
f 37/37/37 50/50/50 52/52/52
f 36/36/36 50/50/50 37/37/37
f 252/252/252 251/251/251 250/250/250
f 250/250/250 251/251/251 253/253/253
f 251/251/251 254/254/254 253/253/253
f 253/253/253 254/254/254 255/255/255
f 258/258/258 257/257/257 256/256/256
f 256/256/256 257/257/257 259/259/259
f 256/256/256 259/259/259 260/260/260
f 260/260/260 259/259/259 261/261/261
f 260/260/260 261/261/261 262/262/262
f 262/262/262 261/261/261 263/263/263
f 262/262/262 263/263/263 264/264/264
f 264/264/264 263/263/263 265/265/265
f 264/264/264 265/265/265 266/266/266
f 266/266/266 265/265/265 267/267/267
f 266/266/266 267/267/267 268/268/268
f 268/268/268 267/267/267 269/269/269
f 259/259/259 270/270/270 261/261/261
f 259/259/259 271/271/271 270/270/270
f 257/257/257 271/271/271 259/259/259
f 263/263/263 272/272/272 265/265/265
f 261/261/261 270/270/270 273/273/273
f 261/261/261 273/273/273 263/263/263
f 263/263/263 273/273/273 274/274/274
f 267/267/267 275/275/275 269/269/269
f 267/267/267 276/276/276 275/275/275
f 265/265/265 272/272/272 276/276/276
f 265/265/265 276/276/276 267/267/267
f 269/269/269 275/275/275 277/277/277
f 280/280/280 279/279/279 278/278/278
f 278/278/278 279/279/279 281/281/281
f 279/279/279 282/282/282 281/281/281
f 281/281/281 282/282/282 283/283/283
f 285/285/285 111/111/111 284/284/284
f 111/111/111 3/3/3 284/284/284
f 3/3/3 213/213/213 284/284/284
f 3/3/3 211/211/211 213/213/213
f 3/3/3 209/209/209 211/211/211
f 3/3/3 207/207/207 209/209/209
f 3/3/3 205/205/205 207/207/207
f 3/3/3 202/202/202 205/205/205
f 3/3/3 18/18/18 202/202/202
f 202/202/202 18/18/18 204/204/204
f 31/31/31 3/3/3 111/111/111
f 213/213/213 286/286/286 284/284/284
f 288/288/288 285/285/285 287/287/287
f 289/289/289 235/235/235 94/94/94
f 289/289/289 94/94/94 290/290/290
f 290/290/290 94/94/94 96/96/96
f 290/290/290 96/96/96 291/291/291
f 291/291/291 96/96/96 98/98/98
f 291/291/291 98/98/98 292/292/292
f 292/292/292 98/98/98 100/100/100
f 292/292/292 100/100/100 293/293/293
f 293/293/293 100/100/100 102/102/102
f 293/293/293 102/102/102 294/294/294
f 294/294/294 102/102/102 104/104/104
f 294/294/294 104/104/104 109/109/109
f 290/290/290 295/295/295 289/289/289
f 290/290/290 296/296/296 295/295/295
f 291/291/291 297/297/297 290/290/290
f 291/291/291 298/298/298 297/297/297
f 292/292/292 299/299/299 291/291/291
f 292/292/292 300/300/300 299/299/299
f 293/293/293 300/300/300 292/292/292
f 293/293/293 115/115/115 300/300/300
f 294/294/294 115/115/115 293/293/293
f 294/294/294 109/109/109 115/115/115
f 303/303/303 302/302/302 301/301/301
f 289/289/289 233/233/233 235/235/235
f 306/306/306 305/305/305 304/304/304
f 307/307/307 305/305/305 306/306/306
f 306/306/306 304/304/304 308/308/308
f 308/308/308 304/304/304 309/309/309
f 308/308/308 309/309/309 310/310/310
f 310/310/310 309/309/309 311/311/311
f 310/310/310 311/311/311 312/312/312
f 312/312/312 311/311/311 313/313/313
f 307/307/307 314/314/314 305/305/305
f 315/315/315 314/314/314 307/307/307
f 315/315/315 316/316/316 314/314/314
f 317/317/317 316/316/316 315/315/315
f 312/312/312 313/313/313 318/318/318
f 318/318/318 313/313/313 319/319/319
f 322/322/322 321/321/321 320/320/320
f 323/323/323 321/321/321 322/322/322
f 323/323/323 324/324/324 321/321/321
f 325/325/325 324/324/324 323/323/323
f 325/325/325 326/326/326 324/324/324
f 327/327/327 326/326/326 325/325/325
f 327/327/327 328/328/328 326/326/326
f 329/329/329 328/328/328 327/327/327
f 329/329/329 330/330/330 328/328/328
f 331/331/331 330/330/330 329/329/329
f 331/331/331 332/332/332 330/330/330
f 333/333/333 332/332/332 331/331/331
f 336/336/336 335/335/335 334/334/334
f 337/337/337 335/335/335 336/336/336
f 336/336/336 334/334/334 338/338/338
f 338/338/338 334/334/334 339/339/339
f 338/338/338 339/339/339 340/340/340
f 340/340/340 339/339/339 341/341/341
f 340/340/340 341/341/341 342/342/342
f 342/342/342 341/341/341 343/343/343
f 342/342/342 343/343/343 344/344/344
f 344/344/344 343/343/343 345/345/345
f 344/344/344 345/345/345 346/346/346
f 346/346/346 345/345/345 347/347/347
f 346/346/346 347/347/347 348/348/348
f 348/348/348 347/347/347 349/349/349
f 348/348/348 349/349/349 350/350/350
f 350/350/350 349/349/349 351/351/351
f 350/350/350 351/351/351 352/352/352
f 352/352/352 351/351/351 353/353/353
f 352/352/352 353/353/353 354/354/354
f 354/354/354 353/353/353 355/355/355
f 354/354/354 355/355/355 356/356/356
f 356/356/356 355/355/355 357/357/357
f 356/356/356 357/357/357 358/358/358
f 358/358/358 357/357/357 359/359/359
f 358/358/358 359/359/359 337/337/337
f 337/337/337 359/359/359 335/335/335
f 362/362/362 361/361/361 360/360/360
f 363/363/363 361/361/361 362/362/362
f 363/363/363 364/364/364 361/361/361
f 365/365/365 363/363/363 362/362/362
f 366/366/366 363/363/363 365/365/365
f 366/366/366 367/367/367 363/363/363
f 367/367/367 364/364/364 363/363/363
f 368/368/368 367/367/367 366/366/366
f 368/368/368 369/369/369 367/367/367
f 370/370/370 369/369/369 368/368/368
f 365/365/365 362/362/362 371/371/371
f 371/371/371 362/362/362 372/372/372
f 362/362/362 360/360/360 372/372/372
f 370/370/370 373/373/373 369/369/369
f 374/374/374 373/373/373 370/370/370
f 374/374/374 375/375/375 373/373/373
f 376/376/376 375/375/375 374/374/374
f 371/371/371 372/372/372 377/377/377
f 377/377/377 372/372/372 378/378/378
f 379/379/379 371/371/371 377/377/377
f 380/380/380 371/371/371 379/379/379
f 380/380/380 365/365/365 371/371/371
f 381/381/381 380/380/380 379/379/379
f 382/382/382 380/380/380 381/381/381
f 382/382/382 383/383/383 380/380/380
f 384/384/384 383/383/383 382/382/382
f 384/384/384 385/385/385 383/383/383
f 386/386/386 385/385/385 384/384/384
f 386/386/386 387/387/387 385/385/385
f 388/388/388 387/387/387 386/386/386
f 388/388/388 389/389/389 387/387/387
f 390/390/390 389/389/389 388/388/388
f 390/390/390 391/391/391 389/389/389
f 392/392/392 391/391/391 390/390/390
f 392/392/392 393/393/393 391/391/391
f 394/394/394 393/393/393 392/392/392
f 395/395/395 390/390/390 388/388/388
f 396/396/396 390/390/390 395/395/395
f 396/396/396 392/392/392 390/390/390
f 397/397/397 388/388/388 386/386/386
f 395/395/395 388/388/388 397/397/397
f 398/398/398 386/386/386 384/384/384
f 397/397/397 386/386/386 398/398/398
f 398/398/398 384/384/384 399/399/399
f 399/399/399 384/384/384 382/382/382
f 400/400/400 394/394/394 392/392/392
f 400/400/400 392/392/392 396/396/396
f 401/401/401 394/394/394 400/400/400
f 391/391/391 374/374/374 389/389/389
f 389/389/389 374/374/374 370/370/370
f 389/389/389 370/370/370 387/387/387
f 387/387/387 370/370/370 368/368/368
f 387/387/387 368/368/368 385/385/385
f 385/385/385 368/368/368 366/366/366
f 385/385/385 366/366/366 383/383/383
f 383/383/383 366/366/366 365/365/365
f 383/383/383 365/365/365 380/380/380
f 391/391/391 376/376/376 374/374/374
f 393/393/393 376/376/376 391/391/391
f 404/404/404 403/403/403 402/402/402
f 405/405/405 403/403/403 404/404/404
f 405/405/405 406/406/406 403/403/403
f 407/407/407 406/406/406 405/405/405
f 407/407/407 408/408/408 406/406/406
f 409/409/409 408/408/408 407/407/407
f 409/409/409 410/410/410 408/408/408
f 411/411/411 410/410/410 409/409/409
f 411/411/411 412/412/412 410/410/410
f 413/413/413 412/412/412 411/411/411
f 413/413/413 414/414/414 412/412/412
f 415/415/415 414/414/414 413/413/413
f 416/416/416 415/415/415 413/413/413
f 417/417/417 415/415/415 416/416/416
f 418/418/418 417/417/417 416/416/416
f 419/419/419 417/417/417 418/418/418
f 418/418/418 416/416/416 420/420/420
f 420/420/420 416/416/416 421/421/421
f 421/421/421 413/413/413 411/411/411
f 416/416/416 413/413/413 421/421/421
f 420/420/420 421/421/421 422/422/422
f 422/422/422 421/421/421 423/423/423
f 421/421/421 411/411/411 423/423/423
f 423/423/423 411/411/411 409/409/409
f 422/422/422 423/423/423 424/424/424
f 424/424/424 423/423/423 425/425/425
f 424/424/424 425/425/425 426/426/426
f 426/426/426 425/425/425 427/427/427
f 426/426/426 427/427/427 428/428/428
f 428/428/428 427/427/427 429/429/429
f 430/430/430 419/419/419 418/418/418
f 431/431/431 419/419/419 430/430/430
f 431/431/431 432/432/432 419/419/419
f 433/433/433 432/432/432 431/431/431
f 430/430/430 418/418/418 434/434/434
f 434/434/434 418/418/418 420/420/420
f 434/434/434 420/420/420 435/435/435
f 435/435/435 420/420/420 422/422/422
f 435/435/435 422/422/422 436/436/436
f 436/436/436 422/422/422 424/424/424
f 436/436/436 424/424/424 437/437/437
f 437/437/437 424/424/424 426/426/426
f 437/437/437 426/426/426 438/438/438
f 438/438/438 426/426/426 428/428/428
f 429/429/429 405/405/405 404/404/404
f 427/427/427 405/405/405 429/429/429
f 427/427/427 407/407/407 405/405/405
f 425/425/425 407/407/407 427/427/427
f 425/425/425 409/409/409 407/407/407
f 423/423/423 409/409/409 425/425/425
f 372/372/372 360/360/360 439/439/439
f 372/372/372 439/439/439 378/378/378
f 378/378/378 439/439/439 440/440/440
f 414/414/414 441/441/441 412/412/412
f 412/412/412 441/441/441 442/442/442
f 412/412/412 442/442/442 410/410/410
f 410/410/410 442/442/442 443/443/443
f 410/410/410 443/443/443 408/408/408
f 408/408/408 443/443/443 444/444/444
f 408/408/408 444/444/444 406/406/406
f 406/406/406 444/444/444 445/445/445
f 406/406/406 445/445/445 403/403/403
f 403/403/403 445/445/445 446/446/446
f 403/403/403 446/446/446 402/402/402
f 402/402/402 446/446/446 447/447/447
f 375/375/375 448/448/448 373/373/373
f 373/373/373 448/448/448 449/449/449
f 373/373/373 449/449/449 369/369/369
f 369/369/369 449/449/449 450/450/450
f 369/369/369 450/450/450 367/367/367
f 367/367/367 450/450/450 364/364/364
