g Pump_TopSlidingDoor
v 1293.499 222.3763 -1097.29
v 1336.385 225.8916 -1100.677
v 1293.928 230.3096 -1084.025
v 1336.837 229.821 -1093.169
v 1298.209 238.4397 -1068.244
v 1339.302 233.7871 -1085.542
v 1305.198 246.5402 -1052.07
v 1343.608 237.5337 -1078.252
v 1317.93 253.6818 -1037.979
v 1349.672 240.9346 -1071.542
v 1333.626 259.7719 -1025.755
v 1339.777 262.1531 -1022.07
v 1358.693 244.9631 -1064.291
vt 0.827422 0.70224
vt 0.911803 0.694075
vt 0.831736 0.724247
vt 0.914554 0.706773
vt 0.84365 0.751217
vt 0.921236 0.719731
vt 0.860923 0.779167
vt 0.931412 0.732181
vt 0.889116 0.803655
vt 0.944868 0.743699
vt 0.922796 0.825072
vt 0.936045 0.831331
vt 0.964447 0.756031
vn -0.1101337 0.854568 -0.5075274
vn -0.09885357 0.8700866 -0.4828845
vn -0.09367785 0.8786356 -0.4682136
vn -0.08465888 0.8915647 -0.4449105
vn -0.08039106 0.8980362 -0.4325139
vn -0.07753217 0.9011307 -0.4265584
vn -0.07066114 0.9067977 -0.4156017
vn -0.06664711 0.9093763 -0.4106007
vn -0.05799792 0.9138321 -0.4019292
vn -0.07414553 0.9116809 -0.404154
vn -0.0770479 0.9122532 -0.4023155
vn -0.09258462 0.9082471 -0.4080629
vn -0.07984842 0.9102172 -0.4063606
g Pump_TopSlidingDoor_0
f 3/3/3 2/2/2 1/1/1
f 4/4/4 2/2/2 3/3/3
f 5/5/5 4/4/4 3/3/3
f 6/6/6 4/4/4 5/5/5
f 7/7/7 6/6/6 5/5/5
f 8/8/8 6/6/6 7/7/7
f 9/9/9 8/8/8 7/7/7
f 10/10/10 8/8/8 9/9/9
f 11/11/11 10/10/10 9/9/9
f 12/12/12 10/10/10 11/11/11
f 13/13/13 10/10/10 12/12/12
