g RockSpire
v 212.6405 226.0378 -948.6902
v 196.6624 233.1184 -939.563
v 203.2426 298.9962 -977.6759
v 191.2658 307.3835 -971.4122
v 213.9869 275.5267 -989.155
v 221.6129 214.7438 -964.0231
v 222.9912 266.0392 -993.7721
v 213.4687 279.6573 -990.8629
v 212.9759 283.5846 -992.4868
v 199.6988 312.7483 -1002.979
v 193.4215 315.0177 -993.4202
v 191.2658 307.3835 -971.4122
v 204.3438 307.7854 -1009.155
v 220.9247 281.1548 -1000.901
v 204.3438 307.7854 -1009.155
v 224.7069 274.9297 -997.8
v 224.7069 274.9297 -997.8
v 196.6624 233.1184 -939.563
v 183.7287 232.3161 -941.7106
v 191.2658 307.3835 -971.4122
v 191.2658 307.3835 -971.4122
v 183.7287 232.3161 -941.7106
v 180.2241 302.639 -973.2697
v 202.5985 230.0504 -920.3735
v 183.7287 232.3161 -941.7106
v 196.6624 233.1184 -939.563
v 219.8135 224.1664 -932.2332
v 202.5985 230.0504 -920.3735
v 196.6624 233.1184 -939.563
v 230.9875 220.5806 -940.8339
v 230.2126 223.6335 -928.1924
v 234.6469 222.0363 -933.2716
v 220.8871 230.0694 -919.7556
v 175.2831 232.9199 -911.8158
v 197.339 232.8799 -909.816
v 183.7287 232.3161 -941.7106
v 151.9145 230.5934 -920.5743
v 142.5308 229.4996 -924.6633
v 176.7435 228.3779 -949.4072
v 137.5077 228.063 -932.2538
v 173.6609 223.9903 -958.753
v 165.5009 218.1172 -970.9581
v 151.58 207.3422 -974.4838
v 225.846 210.1343 -974.7349
v 221.6129 214.7438 -964.0231
v 222.9912 266.0392 -993.7721
v 225.846 210.1343 -974.7349
v 242.0995 211.0986 -959.7979
v 221.6129 214.7438 -964.0231
v 242.671 204.5467 -975.1002
v 230.9875 220.5806 -940.8339
v 212.6405 226.0378 -948.6902
v 196.6624 233.1184 -939.563
v 238.4802 196.1395 -992.7917
v 221.5604 207.3063 -980.9976
v 231.6169 192.7598 -998.6246
v 217.7253 203.8425 -986.4228
v 222.1853 187.7532 -1003.928
v 210.2406 198.3937 -994.0057
v 205.1083 195.5012 -997.0316
v 242.671 204.5467 -975.1002
v 237.6595 170.387 -944.5209
v 242.0995 211.0986 -959.7979
v 242.1907 160.6705 -960.8814
v 239.8731 149.4244 -937.5583
v 246.5862 144.8356 -959.12
v 225.5805 174.9665 -934.0529
v 227.2318 150.435 -928.85
v 239.8731 149.4244 -937.5583
v 238.2599 151.4865 -979.0863
v 238.4802 196.1395 -992.7917
v 243.0953 140.7711 -970.6649
v 250.5567 125.5872 -963.8514
v 264.8032 137.8309 -942.4227
v 241.3499 120.9314 -983.1923
v 232.9505 133.3411 -979.6953
v 243.4843 77.49047 -969.41
v 251.9602 91.4041 -948.3112
v 244.4833 50.88212 -961.7225
v 252.1883 51.18041 -941.5261
v 260.1814 84.95028 -926.5103
v 254.7864 51.15478 -920.5087
v 237.8922 49.75738 -894.4643
v 260.1814 84.95028 -926.5103
v 242.4396 94.5833 -903.6909
v 222.0723 51.29556 -865.1468
v 235.3735 102.5519 -882.0101
v 199.1714 51.06103 -842.9747
v 201.6059 111.5365 -862.2532
v 159.5564 50.70691 -840.9168
v 157.8381 110.387 -862.1942
v 264.8032 137.8309 -942.4227
v 253.3296 144.8761 -918.2625
v 264.8032 137.8309 -942.4227
v 234.1991 152.4062 -897.0511
v 196.1041 154.3613 -880.5605
v 196.1041 154.3613 -880.5605
v 239.8731 149.4244 -937.5583
v 246.5862 144.8356 -959.12
v 253.3296 144.8761 -918.2625
v 264.8032 137.8309 -942.4227
v 239.8731 149.4244 -937.5583
v 227.2318 150.435 -928.85
v 232.4267 150.7637 -920.2647
v 228.5912 152.8375 -911.7943
v 234.1991 152.4062 -897.0511
v 196.1041 154.3613 -880.5605
v 199.2874 155.8882 -898.5477
v 196.1041 154.3613 -880.5605
v 144.7648 153.8246 -883.4153
v 195.8167 155.3844 -899.8469
v 225.5805 174.9665 -934.0529
v 230.9875 220.5806 -940.8339
v 225.5805 174.9665 -934.0529
v 234.6469 222.0363 -933.2716
v 196.1041 154.3613 -880.5605
v 157.8381 110.387 -862.1942
v 144.7648 153.8246 -883.4153
v 229.8669 183.5473 -921.5381
v 232.4267 150.7637 -920.2647
v 228.5912 152.8375 -911.7943
v 199.2874 155.8882 -898.5477
v 203.0357 187.404 -907.9269
v 230.2126 223.6335 -928.1924
v 231.7745 179.8769 -926.2467
v 220.8871 230.0694 -919.7556
v 231.7745 179.8769 -926.2467
v 227.2318 150.435 -928.85
v 225.5805 174.9665 -934.0529
v 234.6469 222.0363 -933.2716
v 231.7745 179.8769 -926.2467
v 195.8167 155.3844 -899.8469
v 144.7648 153.8246 -883.4153
v 150.9525 155.2073 -894.3554
v 195.8167 155.3844 -899.8469
v 150.9525 155.2073 -894.3554
v 155.9768 173.5022 -901.7311
v 155.9209 187.9283 -907.7027
v 195.8167 155.3844 -899.8469
v 195.8167 155.3844 -899.8469
v 155.9209 187.9283 -907.7027
v 198.7402 186.3475 -910.7915
v 199.2874 155.8882 -898.5477
v 198.7402 186.3475 -910.7915
v 202.5985 230.0504 -920.3735
v 203.0357 187.404 -907.9269
v 199.2874 155.8882 -898.5477
v 198.7402 186.3475 -910.7915
v 155.9209 187.9283 -907.7027
v 197.339 232.8799 -909.816
v 175.2831 232.9199 -911.8158
v 155.9209 187.9283 -907.7027
v 151.9145 230.5934 -920.5743
v 142.5308 229.4996 -924.6633
v 197.339 232.8799 -909.816
v 173.6163 294.244 -979.3386
v 183.7287 232.3161 -941.7106
v 176.7435 228.3779 -949.4072
v 180.2241 302.639 -973.2697
v 169.2182 288.1284 -984.3042
v 181.9659 311.8036 -985.8432
v 188.5187 313.9076 -984.9161
v 191.2658 307.3835 -971.4122
v 174.2955 306.2018 -990.2086
v 171.0344 306.9235 -996.0577
v 193.4215 315.0177 -993.4202
v 191.2658 307.3835 -971.4122
v 188.5187 313.9076 -984.9161
v 202.2449 306.1952 -1012.414
v 220.9247 281.1548 -1000.901
v 204.3438 307.7854 -1009.155
v 218.5938 278.3056 -1012.048
v 220.9247 281.1548 -1000.901
v 202.2449 306.1952 -1012.414
v 200.3128 304.7316 -1015.414
v 213.9958 276.5481 -1015.775
v 224.7069 274.9297 -997.8
v 221.5604 207.3063 -980.9976
v 222.9912 266.0392 -993.7721
v 218.5938 278.3056 -1012.048
v 221.5604 207.3063 -980.9976
v 218.5938 278.3056 -1012.048
v 217.7253 203.8425 -986.4228
v 213.9958 276.5481 -1015.775
v 222.9912 266.0392 -993.7721
v 224.7069 274.9297 -997.8
v 225.846 210.1343 -974.7349
v 222.9912 266.0392 -993.7721
v 243.0953 140.7711 -970.6649
v 238.2599 151.4865 -979.0863
v 232.9505 133.3411 -979.6953
v 222.479 143.3638 -993.8088
v 238.4802 196.1395 -992.7917
v 231.6169 192.7598 -998.6246
v 213.0473 138.3573 -999.1127
v 222.1853 187.7532 -1003.928
v 260.1814 84.95028 -926.5103
v 264.8032 137.8309 -942.4227
v 251.9602 91.4041 -948.3112
v 250.5567 125.5872 -963.8514
v 155.9209 187.9283 -907.7027
v 155.9768 173.5022 -901.7311
v 142.7689 146.9928 -915.7342
v 155.9209 187.9283 -907.7027
v 145.8353 183.6656 -916.4688
v 142.5308 229.4996 -924.6633
v 137.5077 228.063 -932.2538
v 141.9455 181.4409 -920.4005
v 150.9525 155.2073 -894.3554
v 149.3249 150.2748 -904.2927
v 142.7689 146.9928 -915.7342
v 155.9768 173.5022 -901.7311
v 149.3249 150.2748 -904.2927
v 169.2182 288.1284 -984.3042
v 176.7435 228.3779 -949.4072
v 173.6609 223.9903 -958.753
v 234.6469 222.0363 -933.2716
v 225.5805 174.9665 -934.0529
v 231.7745 179.8769 -926.2467
v 203.0357 187.404 -907.9269
v 202.5985 230.0504 -920.3735
v 220.8871 230.0694 -919.7556
v 198.7402 186.3475 -910.7915
v 197.339 232.8799 -909.816
v 202.5985 230.0504 -920.3735
v 281.4584 55.03218 -909.418
v 254.796 55.63671 -921.6268
v 275.7357 79.03466 -918.3133
v 254.3451 80.40995 -928.2977
v 275.7357 79.03466 -918.3133
v 254.3451 80.40995 -928.2977
v 279.9835 82.93822 -936.4689
v 270.4911 83.7218 -939.5267
v 288.9031 78.68549 -927.9681
v 283.9438 79.02773 -940.7128
v 298.0148 78.73048 -934.6016
v 298.0148 78.73048 -934.6016
v 282.778 77.56214 -947.1839
v 241.3097 71.99726 -960.7444
v 225.1637 68.68546 -949.5153
v 226.2928 71.83437 -963.8272
v 210.1468 68.52259 -952.5982
v 244.7859 65.19358 -968.0139
v 255.5977 64.817 -967.3428
v 265.9832 69.04711 -957.4783
v 298.0148 78.73048 -934.6016
v 297.7519 74.43111 -943.1392
v 311.6098 64.07356 -948.3739
v 282.778 77.56214 -947.1839
v 265.9832 69.04711 -957.4783
v 298.0148 78.73048 -934.6016
v 293.497 69.92817 -923.436
v 288.9031 78.68549 -927.9681
v 303.6331 67.25659 -929.8626
v 281.4584 55.03218 -909.418
v 305.082 41.73462 -922.1854
v 308.0658 48.18384 -931.2095
v 314.6426 51.48661 -943.5773
v 313.2511 60.35709 -943.0503
v 311.6098 64.07356 -948.3739
v 298.0148 78.73048 -934.6016
v 313.1385 55.69644 -949.2162
v 282.4876 42.08686 -912.9617
v 311.6098 64.07356 -948.3739
v 297.7519 74.43111 -943.1392
v 313.1385 55.69644 -949.2162
v 297.9126 55.95839 -943.1459
v 283.9438 79.02773 -940.7128
v 284.1457 55.83768 -940.7212
v 281.4584 55.03218 -909.418
v 293.497 69.92817 -923.436
v 282.4876 42.08686 -912.9617
v 288.9031 78.68549 -927.9681
v 281.4584 55.03218 -909.418
v 275.7357 79.03466 -918.3133
v 254.796 55.63671 -921.6268
v 281.4584 55.03218 -909.418
v 256.4799 41.66581 -921.8047
v 282.4876 42.08686 -912.9617
v 314.6426 51.48661 -943.5773
v 313.1385 55.69644 -949.2162
v 303.2083 44.82369 -944.9586
v 297.4424 41.54129 -937.4415
v 308.0658 48.18384 -931.2095
v 296.8274 37.70771 -927.1936
v 305.082 41.73462 -922.1854
v 283.9438 79.02773 -940.7128
v 282.778 77.56214 -947.1839
v 284.1457 55.83768 -940.7212
v 282.9671 55.82986 -947.1918
v 282.778 77.56214 -947.1839
v 265.9832 69.04711 -957.4783
v 282.9671 55.82986 -947.1918
v 266.0995 55.68685 -957.4831
v 255.5977 64.817 -967.3428
v 244.7859 65.19358 -968.0139
v 255.6779 55.59981 -967.3461
v 244.8703 55.50596 -968.0174
v 265.9832 69.04711 -957.4783
v 255.5977 64.817 -967.3428
v 266.0995 55.68685 -957.4831
v 255.6779 55.59981 -967.3461
v 263.8597 62.42866 -860.2465
v 226.1253 63.74061 -873.8746
v 255.3318 100.3438 -871.7636
v 225.0473 102.7998 -882.9575
v 255.3318 100.3438 -871.7636
v 225.0473 102.7998 -882.9575
v 259.1131 106.4292 -897.0093
v 272.1894 99.60708 -886.421
v 279.6845 99.19389 -905.2391
v 260.1088 104.1053 -920.2859
v 236.3082 107.6394 -896.5156
v 225.0473 102.7998 -882.9575
v 288.9229 62.95221 -872.2225
v 305.9861 62.47322 -890.8417
v 263.8597 62.42866 -860.2465
v 285.4648 98.87526 -919.7515
v 312.9128 62.10377 -916.7108
v 248.1514 107.0106 -911.7723
v 308.0971 40.4237 -891.2545
v 311.6 40.7566 -917.1376
v 288.2972 41.19754 -875.2182
v 264.7085 42.00325 -865.1754
v 309.0185 61.60252 -924.5316
v 307.7058 40.25538 -924.9583
v 272.1894 99.60708 -886.421
v 263.8597 62.42866 -860.2465
v 255.3318 100.3438 -871.7636
v 226.1253 63.74061 -873.8746
v 263.8597 62.42866 -860.2465
v 228.2361 41.69118 -874.2874
v 264.7085 42.00325 -865.1754
v 214.4851 62.43107 -830.4921
v 185.0866 60.40015 -848.5223
v 212.748 83.55026 -843.9728
v 199.1949 82.87701 -855.0868
v 231.463 80.67989 -846.853
v 185.8585 46.46189 -837.5553
v 215.0449 48.68643 -828.7281
v 231.0145 59.93864 -837.9948
v 231.463 80.67989 -846.853
v 240.9466 79.03703 -857.3906
v 242.2679 55.26693 -849.3553
v 246.4684 50.82612 -869.0845
v 230.6019 45.82939 -834.7271
v 243.6601 41.58299 -844.4268
v 247.4083 41.10198 -851.5016
v 251.0582 51.12765 -859.017
v 258.0213 48.95851 -865.209
v 262.2888 39.87918 -863.755
v 246.4684 50.82612 -869.0845
v 239.1807 74.78811 -869.6369
v 212.748 83.55026 -843.9728
v 199.1949 82.87701 -855.0868
v 217.5183 81.62143 -859.6107
v 231.463 80.67989 -846.853
v 199.1949 82.87701 -855.0868
v 206.418 82.95894 -863.3931
v 225.2433 74.68105 -876.1795
v 240.9466 79.03703 -857.3906
v 231.463 80.67989 -846.853
v 239.1807 74.78811 -869.6369
v 214.8708 78.52502 -870.3102
v 246.4684 50.82612 -869.0845
v 251.0582 51.12765 -859.017
v 242.2679 55.26693 -849.3553
v 246.4684 50.82612 -869.0845
v 258.0213 48.95851 -865.209
v 146.8945 107.5811 -854.0167
v 140.3785 93.82219 -850.2386
v 134.784 106.4514 -861.9102
v 142.2631 85.94758 -840.3339
v 151.1389 92.35452 -836.9937
v 147.2269 44.84739 -832.9787
v 155.8112 48.76043 -826.9949
v 171.7225 92.53313 -836.8003
v 160.2569 107.6017 -852.1388
v 146.8945 107.5811 -854.0167
v 176.8351 105.5143 -857.0862
v 184.6145 87.17918 -842.7931
v 157.9176 105.8105 -864.2061
v 146.8945 107.5811 -854.0167
v 134.784 106.4514 -861.9102
v 184.1436 101.9907 -867.4922
v 171.2282 100.1678 -877.3726
v 184.1436 101.9907 -867.4922
v 143.3877 107.408 -871.8369
v 135.4391 107.5187 -864.556
v 134.784 106.4514 -861.9102
v 148.2987 104.9733 -878.3347
v 172.6893 47.90456 -827.7479
v 189.0566 65.76979 -853.0509
v 184.6145 87.17918 -842.7931
v 184.1436 101.9907 -867.4922
v 188.5428 45.44193 -832.7716
v 188.5428 45.44193 -832.7716
v 196.4564 40.19377 -847.1454
v 172.6893 47.90456 -827.7479
v 184.6145 87.17918 -842.7931
v 188.5428 45.44193 -832.7716
v 154.7255 249.1244 -933.2384
v 145.6097 241.716 -938.0427
v 152.7543 256.0722 -938.4688
v 143.2568 237.5028 -934.4708
v 156.8411 241.6687 -927.6255
v 154.7255 249.1244 -933.2384
v 143.5299 227.9543 -931.067
v 157.4369 229.726 -925.8762
v 171.1731 240.2398 -934.2373
v 168.1364 247.4467 -938.4932
v 154.7255 249.1244 -933.2384
v 165.3067 254.1623 -942.4593
v 152.7543 256.0722 -938.4688
v 172.8323 251.0799 -952.1279
v 175.8192 244.4523 -947.3455
v 172.8323 251.0799 -952.1279
v 173.4871 239.1923 -966.0129
v 176.0932 238.29 -961.9255
v 179.0245 237.34 -942.2133
v 171.1753 230.4101 -932.1194
v 180.2773 227.8228 -938.9453
v 182.3422 230.6543 -957.3185
v 182.0197 221.3929 -954.1578
v 172.7556 241.3338 -967.2943
v 171.1682 247.9095 -960.141
v 152.7543 256.0722 -938.4688
v 145.6097 241.716 -938.0427
v 145.7132 248.9118 -941.3479
v 152.7543 256.0722 -938.4688
v 145.7132 248.9118 -941.3479
v 157.0212 254.668 -951.6283
v 157.0212 254.668 -951.6283
v 145.7132 248.9118 -941.3479
v 147.8565 252.007 -950.5706
v 152.9426 252.9478 -954.9079
v 158.6121 249.9255 -962.2454
v 161.4802 250.846 -958.795
v 171.1682 247.9095 -960.141
v 172.8323 251.0799 -952.1279
v 160.4395 249.1794 -963.4456
v 152.7543 256.0722 -938.4688
v 157.0212 254.668 -951.6283
v 165.3067 254.1623 -942.4593
v 172.8323 251.0799 -952.1279
v 173.4871 239.1923 -966.0129
v 172.8323 251.0799 -952.1279
v 172.7556 241.3338 -967.2943
v 171.1682 247.9095 -960.141
v 172.7288 256.4759 -971.7085
v 171.0288 264.742 -965.5621
v 172.7111 266.476 -974.6237
v 171.7734 275.8155 -969.3692
v 172.6873 266.331 -975.3696
v 171.6761 276.4015 -969.7039
v 172.6108 265.8657 -977.7643
v 171.364 278.2827 -970.7781
v 171.0846 275.8813 -979.6281
v 170.4723 281.9797 -976.197
v 171.7511 285.0429 -985.8236
v 170.293 295.3587 -981.5723
v 171.1682 247.9095 -960.141
v 161.4802 250.846 -958.795
v 171.0288 264.742 -965.5621
v 164.0048 265.9781 -964.0347
v 171.7734 275.8155 -969.3692
v 164.0958 276.8012 -967.4472
v 171.6761 276.4015 -969.7039
v 164.2752 277.446 -967.9318
v 171.364 278.2827 -970.7781
v 164.8512 279.5157 -969.4875
v 170.4723 281.9797 -976.197
v 164.8512 279.5157 -969.4875
v 166.5002 282.6009 -975.4971
v 164.2752 277.446 -967.9318
v 160.616 272.6578 -968.6858
v 164.8512 279.5157 -969.4875
v 164.8512 279.5157 -969.4875
v 160.616 272.6578 -968.6858
v 159.074 274.2669 -971.1786
v 164.8512 279.5157 -969.4875
v 166.5002 282.6009 -975.4971
v 163.6625 279.8407 -975.9634
v 166.5002 282.6009 -975.4971
v 164.9598 292.1105 -981.1763
v 161.3746 290.151 -981.6946
v 170.293 295.3587 -981.5723
v 170.4723 281.9797 -976.197
v 166.5002 282.6009 -975.4971
v 170.293 295.3587 -981.5723
v 164.2752 277.446 -967.9318
v 162.4442 272.2603 -968.6339
v 160.616 272.6578 -968.6858
v 164.0958 276.8012 -967.4472
v 162.4442 272.2603 -968.6339
v 164.2752 277.446 -967.9318
v 164.0048 265.9781 -964.0347
v 162.5961 262.5803 -966.5992
v 164.0958 276.8012 -967.4472
v 162.4442 272.2603 -968.6339
v 160.4395 249.1794 -963.4456
v 161.4802 250.846 -958.795
vt 0.116529 0.313651
vt 0.100805 0.320552
vt 0.089633 0.275863
vt 0.076538 0.280052
vt 0.105385 0.26972
vt 0.127059 0.302064
vt 0.115798 0.267296
vt 0.103866 0.267454
vt 0.102417 0.265292
vt 0.08274 0.250403
vt 0.076412 0.258671
vt 0.076538 0.280052
vt 0.088292 0.245744
vt 0.110161 0.258194
vt 0.088292 0.245744
vt 0.11511 0.262106
vt 0.11511 0.262106
vt 0.100805 0.320552
vt 0.089684 0.318794
vt 0.076538 0.280052
vt 0.076538 0.280052
vt 0.089684 0.318794
vt 0.067836 0.279203
vt 0.106767 0.337796
vt 0.089684 0.318794
vt 0.100805 0.320552
vt 0.123241 0.328291
vt 0.106767 0.337796
vt 0.100805 0.320552
vt 0.13383 0.321328
vt 0.132436 0.331893
vt 0.136676 0.327699
vt 0.122756 0.338334
vt 0.082134 0.344879
vt 0.101457 0.346636
vt 0.089684 0.318794
vt 0.062299 0.337543
vt 0.054389 0.334124
vt 0.084591 0.312665
vt 0.050392 0.3277
vt 0.083036 0.305191
vt 0.077456 0.295498
vt 0.068207 0.294179
vt 0.13182 0.29351
vt 0.127059 0.302064
vt 0.115798 0.267296
vt 0.13182 0.29351
vt 0.145684 0.306303
vt 0.127059 0.302064
vt 0.147672 0.294097
vt 0.13383 0.321328
vt 0.116529 0.313651
vt 0.100805 0.320552
vt 0.145966 0.280214
vt 0.128775 0.288548
vt 0.140832 0.275763
vt 0.126278 0.284427
vt 0.133887 0.272057
vt 0.121115 0.278791
vt 0.117387 0.276671
vt 0.147672 0.294097
vt 0.151047 0.325539
vt 0.145684 0.306303
vt 0.157035 0.313075
vt 0.157526 0.334409
vt 0.164168 0.316907
vt 0.139727 0.333802
vt 0.146644 0.341613
vt 0.157526 0.334409
vt 0.155716 0.299081
vt 0.145966 0.280214
vt 0.162103 0.307807
vt 0.171559 0.31576
vt 0.180939 0.331935
vt 0.164865 0.300338
vt 0.155199 0.301363
vt 0.17561 0.318094
vt 0.17974 0.333445
vt 0.181746 0.328035
vt 0.18791 0.344305
vt 0.187777 0.352186
vt 0.190013 0.361282
vt 0.176649 0.382473
vt 0.187777 0.352186
vt 0.171262 0.369729
vt 0.163564 0.405978
vt 0.16378 0.386669
vt 0.145118 0.423908
vt 0.133893 0.402024
vt 0.113206 0.425603
vt 0.097884 0.402196
vt 0.180939 0.331935
vt 0.169832 0.351275
vt 0.180939 0.331935
vt 0.152088 0.368188
vt 0.119471 0.381877
vt 0.119471 0.381877
vt 0.157526 0.334409
vt 0.164168 0.316907
vt 0.169832 0.351275
vt 0.180939 0.331935
vt 0.157526 0.334409
vt 0.146644 0.341613
vt 0.150953 0.34881
vt 0.147258 0.355686
vt 0.152088 0.368188
vt 0.119471 0.381877
vt 0.121804 0.366489
vt 0.119471 0.381877
vt 0.076232 0.379529
vt 0.118988 0.365454
vt 0.139727 0.333802
vt 0.13383 0.321328
vt 0.139727 0.333802
vt 0.136676 0.327699
vt 0.119471 0.381877
vt 0.097884 0.402196
vt 0.076232 0.379529
vt 0.141435 0.343301
vt 0.150953 0.34881
vt 0.147258 0.355686
vt 0.121804 0.366489
vt 0.117546 0.354443
vt 0.132436 0.331893
vt 0.1439 0.33978
vt 0.122756 0.338334
vt 0.1439 0.33978
vt 0.146644 0.341613
vt 0.139727 0.333802
vt 0.136676 0.327699
vt 0.1439 0.33978
vt 0.118988 0.365454
vt 0.076232 0.379529
vt 0.08111 0.370118
vt 0.118988 0.365454
vt 0.08111 0.370118
vt 0.080745 0.361553
vt 0.077007 0.354565
vt 0.118988 0.365454
vt 0.118988 0.365454
vt 0.077007 0.354565
vt 0.114116 0.352127
vt 0.121804 0.366489
vt 0.114116 0.352127
vt 0.106767 0.337796
vt 0.117546 0.354443
vt 0.121804 0.366489
vt 0.114116 0.352127
vt 0.077007 0.354565
vt 0.101457 0.346636
vt 0.082134 0.344879
vt 0.077007 0.354565
vt 0.062299 0.337543
vt 0.054389 0.334124
vt 0.101457 0.346636
vt 0.064189 0.275204
vt 0.089684 0.318794
vt 0.084591 0.312665
vt 0.067836 0.279203
vt 0.061924 0.271821
vt 0.066878 0.266157
vt 0.072255 0.266615
vt 0.076538 0.280052
vt 0.061477 0.263222
vt 0.058318 0.257785
vt 0.076412 0.258671
vt 0.076538 0.280052
vt 0.072255 0.266615
vt 0.086813 0.243095
vt 0.110161 0.258194
vt 0.088292 0.245744
vt 0.108796 0.248748
vt 0.110161 0.258194
vt 0.086813 0.243095
vt 0.085454 0.240661
vt 0.105132 0.245746
vt 0.11511 0.262106
vt 0.128775 0.288548
vt 0.115798 0.267296
vt 0.108796 0.248748
vt 0.128775 0.288548
vt 0.108796 0.248748
vt 0.126278 0.284427
vt 0.105132 0.245746
vt 0.115798 0.267296
vt 0.11511 0.262106
vt 0.13182 0.29351
vt 0.115798 0.267296
vt 0.162103 0.307807
vt 0.155716 0.299081
vt 0.155199 0.301363
vt 0.144214 0.287958
vt 0.145966 0.280214
vt 0.140832 0.275763
vt 0.137413 0.284305
vt 0.133887 0.272057
vt 0.187777 0.352186
vt 0.180939 0.331935
vt 0.17974 0.333445
vt 0.171559 0.31576
vt 0.077007 0.354565
vt 0.080745 0.361553
vt 0.076281 0.353126
vt 0.077007 0.354565
vt 0.069468 0.347624
vt 0.054389 0.334124
vt 0.050392 0.3277
vt 0.06672 0.344562
vt 0.08111 0.370118
vt 0.080978 0.362345
vt 0.076281 0.353126
vt 0.080745 0.361553
vt 0.080978 0.362345
vt 0.061924 0.271821
vt 0.084591 0.312665
vt 0.083036 0.305191
vt 0.136676 0.327699
vt 0.139727 0.333802
vt 0.1439 0.33978
vt 0.117546 0.354443
vt 0.106767 0.337796
vt 0.122756 0.338334
vt 0.114116 0.352127
vt 0.101457 0.346636
vt 0.106767 0.337796
vt 0.210835 0.369781
vt 0.189149 0.35983
vt 0.201658 0.359638
vt 0.1839 0.351302
vt 0.201658 0.359638
vt 0.1839 0.351302
vt 0.204387 0.344289
vt 0.196463 0.341682
vt 0.212486 0.351791
vt 0.208368 0.341331
vt 0.219924 0.346364
vt 0.219924 0.346364
vt 0.207692 0.336238
vt 0.174949 0.325933
vt 0.16248 0.335527
vt 0.162746 0.323443
vt 0.150295 0.33304
vt 0.179146 0.320964
vt 0.188004 0.321562
vt 0.195625 0.328998
vt 0.219924 0.346364
vt 0.220497 0.339957
vt 0.233637 0.33707
vt 0.207692 0.336238
vt 0.195625 0.328998
vt 0.219924 0.346364
vt 0.217855 0.356593
vt 0.212486 0.351791
vt 0.226588 0.3517
vt 0.210835 0.369781
vt 0.232291 0.361077
vt 0.233563 0.353012
vt 0.238296 0.342608
vt 0.235623 0.34188
vt 0.233637 0.33707
vt 0.219924 0.346364
vt 0.236347 0.337498
vt 0.214052 0.368454
vt 0.233637 0.33707
vt 0.220497 0.339957
vt 0.236347 0.337498
vt 0.223979 0.342376
vt 0.208368 0.341331
vt 0.21286 0.344354
vt 0.210835 0.369781
vt 0.217855 0.356593
vt 0.214052 0.368454
vt 0.212486 0.351791
vt 0.210835 0.369781
vt 0.201658 0.359638
vt 0.189149 0.35983
vt 0.210835 0.369781
vt 0.19321 0.361391
vt 0.214052 0.368454
vt 0.238296 0.342608
vt 0.236347 0.337498
vt 0.230239 0.342359
vt 0.22618 0.34883
vt 0.233563 0.353012
vt 0.226368 0.357543
vt 0.232291 0.361077
vt 0.208368 0.341331
vt 0.207692 0.336238
vt 0.21286 0.344354
vt 0.211908 0.339119
vt 0.207692 0.336238
vt 0.195625 0.328998
vt 0.211908 0.339119
vt 0.198286 0.33081
vt 0.188004 0.321562
vt 0.179146 0.320964
vt 0.18987 0.322841
vt 0.181144 0.322311
vt 0.195625 0.328998
vt 0.188004 0.321562
vt 0.198286 0.33081
vt 0.18987 0.322841
vt 0.195177 0.408806
vt 0.164284 0.397606
vt 0.180708 0.395372
vt 0.1552 0.385858
vt 0.180708 0.395372
vt 0.1552 0.385858
vt 0.182601 0.373821
vt 0.194759 0.383365
vt 0.201021 0.367896
vt 0.183893 0.354864
vt 0.163483 0.374086
vt 0.1552 0.385858
vt 0.21542 0.399031
vt 0.229355 0.383972
vt 0.195177 0.408806
vt 0.205848 0.35597
vt 0.235041 0.363023
vt 0.173414 0.361538
vt 0.234944 0.386102
vt 0.237703 0.365254
vt 0.218887 0.398912
vt 0.199765 0.406906
vt 0.23197 0.35674
vt 0.234659 0.359027
vt 0.194759 0.383365
vt 0.195177 0.408806
vt 0.180708 0.395372
vt 0.164284 0.397606
vt 0.195177 0.408806
vt 0.170487 0.399609
vt 0.199765 0.406906
vt 0.155108 0.432952
vt 0.131698 0.418519
vt 0.149208 0.419958
vt 0.138256 0.410925
vt 0.165131 0.417884
vt 0.135367 0.428712
vt 0.15843 0.435627
vt 0.169031 0.427098
vt 0.165131 0.417884
vt 0.173223 0.409433
vt 0.179086 0.418345
vt 0.18336 0.402847
vt 0.171557 0.43105
vt 0.182915 0.423638
vt 0.186023 0.417994
vt 0.187008 0.410946
vt 0.193049 0.406168
vt 0.198222 0.408264
vt 0.18336 0.402847
vt 0.172646 0.399877
vt 0.149208 0.419958
vt 0.138256 0.410925
vt 0.153525 0.407351
vt 0.165131 0.417884
vt 0.138256 0.410925
vt 0.144152 0.404116
vt 0.161298 0.394551
vt 0.173223 0.409433
vt 0.165131 0.417884
vt 0.172646 0.399877
vt 0.152019 0.398928
vt 0.18336 0.402847
vt 0.187008 0.410946
vt 0.179086 0.418345
vt 0.18336 0.402847
vt 0.193049 0.406168
vt 0.089499 0.409263
vt 0.087462 0.413791
vt 0.079756 0.402851
vt 0.090909 0.422706
vt 0.096664 0.424828
vt 0.104602 0.432548
vt 0.110626 0.437019
vt 0.113544 0.42497
vt 0.100553 0.410815
vt 0.089499 0.409263
vt 0.114757 0.40694
vt 0.125352 0.420569
vt 0.099044 0.401021
vt 0.089499 0.409263
vt 0.079756 0.402851
vt 0.121605 0.398718
vt 0.111367 0.390764
vt 0.121605 0.398718
vt 0.086639 0.394535
vt 0.080035 0.400548
vt 0.079756 0.402851
vt 0.091293 0.389432
vt 0.124433 0.436488
vt 0.13374 0.414312
vt 0.125352 0.420569
vt 0.121605 0.398718
vt 0.137751 0.432661
vt 0.137751 0.432661
vt 0.145243 0.421584
vt 0.124433 0.436488
vt 0.125352 0.420569
vt 0.137751 0.432661
vt 0.059743 0.323697
vt 0.053743 0.320586
vt 0.056096 0.318018
vt 0.052834 0.324358
vt 0.063631 0.329752
vt 0.059743 0.323697
vt 0.055684 0.328753
vt 0.067361 0.333031
vt 0.076609 0.324153
vt 0.072023 0.319317
vt 0.059743 0.323697
vt 0.067722 0.314782
vt 0.056096 0.318018
vt 0.075199 0.306721
vt 0.079585 0.31198
vt 0.075199 0.306721
vt 0.078918 0.296404
vt 0.081443 0.300139
vt 0.084263 0.317588
vt 0.079194 0.327471
vt 0.087821 0.32189
vt 0.088898 0.305393
vt 0.090988 0.309602
vt 0.077712 0.294929
vt 0.074573 0.300158
vt 0.056096 0.318018
vt 0.053743 0.320586
vt 0.05185 0.316575
vt 0.056096 0.318018
vt 0.05185 0.316575
vt 0.060257 0.306593
vt 0.060257 0.306593
vt 0.05185 0.316575
vt 0.052887 0.30795
vt 0.057122 0.303968
vt 0.062955 0.297975
vt 0.065237 0.300872
vt 0.074573 0.300158
vt 0.075199 0.306721
vt 0.064769 0.297037
vt 0.056096 0.318018
vt 0.060257 0.306593
vt 0.067722 0.314782
vt 0.075199 0.306721
vt 0.078918 0.296404
vt 0.075199 0.306721
vt 0.077712 0.294929
vt 0.074573 0.300158
vt 0.073668 0.288528
vt 0.069939 0.292599
vt 0.070966 0.28425
vt 0.067597 0.287345
vt 0.070984 0.283611
vt 0.06735 0.286947
vt 0.071042 0.281561
vt 0.066557 0.285666
vt 0.066964 0.278168
vt 0.064745 0.280178
vt 0.06505 0.271007
vt 0.060883 0.272992
vt 0.074573 0.300158
vt 0.065237 0.300872
vt 0.069939 0.292599
vt 0.063358 0.293751
vt 0.067597 0.287345
vt 0.060466 0.288896
vt 0.06735 0.286947
vt 0.060448 0.288353
vt 0.066557 0.285666
vt 0.060391 0.28661
vt 0.064745 0.280178
vt 0.060391 0.28661
vt 0.061015 0.280697
vt 0.060448 0.288353
vt 0.058503 0.28849
vt 0.060391 0.28661
vt 0.060391 0.28661
vt 0.058503 0.28849
vt 0.056681 0.285993
vt 0.060391 0.28661
vt 0.061015 0.280697
vt 0.059237 0.280758
vt 0.061015 0.280697
vt 0.056985 0.273927
vt 0.054308 0.273808
vt 0.060883 0.272992
vt 0.064745 0.280178
vt 0.061015 0.280697
vt 0.060883 0.272992
vt 0.060448 0.288353
vt 0.060244 0.288604
vt 0.058503 0.28849
vt 0.060466 0.288896
vt 0.060244 0.288604
vt 0.060448 0.288353
vt 0.063358 0.293751
vt 0.063035 0.292037
vt 0.060466 0.288896
vt 0.060244 0.288604
vt 0.064769 0.297037
vt 0.065237 0.300872
vn 0.8221341 0.2991835 0.4843394
vn 0.4068579 0.7045202 0.5814791
vn 0.8022113 0.4319904 0.4121181
vn 0.2733315 0.6224048 0.7334182
vn 0.7938417 0.2911864 0.5338781
vn 0.862703 0.256954 0.4355666
vn 0.7743458 0.2484253 0.5819566
vn 0.7690123 0.3772056 0.5160778
vn 0.8287719 0.4256935 0.3632108
vn 0.8109422 0.5424752 0.2193024
vn 0.5762448 0.7561027 0.3102427
vn 0.5774166 0.6661581 0.4720418
vn 0.8636423 0.5021976 0.04381032
vn 0.8177286 0.5299236 0.2247242
vn 0.7669988 0.5263373 0.3669901
vn 0.7525848 0.4499336 0.4808075
vn 0.6112663 0.4104446 0.6766748
vn 0.2727197 0.6086936 0.7450612
vn -0.4910175 0.4983338 0.7145385
vn 0.02439947 0.6403724 0.7676769
vn -0.08062565 0.5363494 0.8401361
vn -0.4910175 0.4983338 0.7145385
vn -0.5809595 0.5731371 0.5779272
vn 0.08361407 0.9923189 -0.09116921
vn -0.1402995 0.9538281 0.2655711
vn 0.1749373 0.9542869 0.2423503
vn 0.2183415 0.9542992 -0.2040585
vn 0.08361407 0.9923189 -0.09116921
vn 0.4078595 0.8611044 0.3035619
vn 0.2615985 0.9423051 -0.2088715
vn 0.1466652 0.9433975 -0.2974732
vn 0.08715669 0.9695635 -0.2288021
vn 0.1138689 0.894244 -0.4328528
vn 0.0165069 0.995393 -0.09444699
vn 0.02419949 0.9685772 -0.2475327
vn -0.07080687 0.9965746 -0.04272677
vn -0.08706544 0.9949492 -0.0499577
vn -0.1177885 0.9786136 -0.1686455
vn -0.144162 0.9507036 -0.2745544
vn -0.2126867 0.9121853 -0.3502606
vn -0.1596769 0.9195104 -0.3591709
vn -0.3013712 0.8480425 -0.4358891
vn -0.442253 0.7380991 -0.5095311
vn 0.9929581 0.01052365 -0.117998
vn 0.862703 0.256954 0.4355666
vn 0.9953622 0.02969836 0.09149987
vn 0.245885 0.8760396 -0.4148436
vn 0.2481193 0.9095119 -0.333504
vn 0.2900516 0.8957176 -0.3369865
vn 0.2782925 0.8652484 -0.4170113
vn 0.2615985 0.9423051 -0.2088715
vn 0.3751453 0.8904705 -0.2575427
vn 0.2402545 0.9699748 0.03777162
vn 0.1932687 0.8286952 -0.5252727
vn 0.1416649 0.81173 -0.566591
vn 0.07345135 0.7788225 -0.6229288
vn 0.07624023 0.7617457 -0.6433746
vn 0.04659637 0.7279371 -0.6840588
vn 0.07440516 0.7234924 -0.6863108
vn 0.02805792 0.6983807 -0.7151763
vn 0.9990716 -0.03863531 -0.01905572
vn 0.8675458 0.1504728 0.4740489
vn 0.8905448 0.029382 0.4539456
vn 0.9887065 0.1461323 -0.03323892
vn 0.8194361 0.4779853 0.3163138
vn 0.8029241 0.5461747 -0.2387596
vn 0.7507543 0.1216095 0.6492913
vn 0.6222267 0.255889 0.7398342
vn 0.8693913 0.2683221 0.4149242
vn 0.8813131 -0.09237953 -0.4634146
vn 0.8265458 -0.1619191 -0.5390772
vn 0.8291858 0.2076654 -0.5189661
vn 0.8866482 0.07277046 -0.4566831
vn 0.849605 0.2465026 -0.4662701
vn 0.7680681 0.2171652 -0.6024207
vn 0.6480361 0.03387139 -0.7608562
vn 0.931651 -0.08368504 -0.3535862
vn 0.9208158 -0.109178 -0.374404
vn 0.9364502 -0.05830143 -0.345922
vn 0.954085 -0.09702446 -0.2833869
vn 0.9855435 -0.06042879 0.1582792
vn 0.9676935 -0.114599 0.2245805
vn 0.8410559 0.004578966 0.540929
vn 0.9613637 -0.02739022 0.2739151
vn 0.8821948 -0.02324862 0.4703104
vn 0.8513435 -0.02102905 0.5241871
vn 0.7670838 0.09111413 0.6350439
vn 0.4479949 0.2083299 0.8694248
vn 0.2564053 0.3323073 0.9076498
vn 0.01962322 0.3188164 0.9476134
vn -0.02378725 0.3846232 0.9227671
vn 0.8559939 0.02001684 0.5165984
vn 0.8795282 0.01200283 0.4756953
vn 0.9942695 -0.09682796 0.04530364
vn 0.5720332 0.2937295 0.7658336
vn 0.1315118 0.6177973 0.7752619
vn 0.1078305 0.4155099 0.9031744
vn 0.7199351 0.6812581 0.1325922
vn 0.8029241 0.5461747 -0.2387596
vn 0.3071758 0.9491128 -0.06948447
vn 0.6225054 0.6750498 -0.3959733
vn 0.2864688 0.9577373 0.02597918
vn 0.2254974 0.9732106 -0.04485579
vn 0.2816833 0.946483 -0.1575576
vn 0.1946818 0.9807098 -0.01753187
vn 0.1718548 0.9844433 -0.03656702
vn 0.06420969 0.9956791 0.06708334
vn 0.01855764 0.9997754 0.0102402
vn 0.1204236 0.8848814 0.4499813
vn -0.02854553 0.9994379 0.01757693
vn -0.03536638 0.9992614 -0.01502616
vn 0.8978057 0.05564397 0.4368623
vn 0.9921312 -0.108255 0.06290123
vn 0.9495868 -0.115704 -0.2913719
vn 0.86215 -0.1580743 -0.4813626
vn 0.1315118 0.6177973 0.7752619
vn -0.02378725 0.3846232 0.9227671
vn -0.02416859 0.8069077 0.590183
vn 0.741989 0.1470533 0.6540854
vn 0.9969096 0.03174919 0.07185663
vn 0.7140305 0.184613 0.6753358
vn 0.1858322 0.2894523 0.9389802
vn 0.403448 0.1468914 0.9031349
vn 0.7300367 0.04833398 0.6816965
vn 0.9973297 -0.02251211 -0.06947407
vn 0.33379 0.1195707 0.9350331
vn 0.9737982 -0.03831132 -0.2241638
vn 0.8292322 -0.07902341 -0.5532895
vn 0.8444933 -0.1294847 -0.5196776
vn 0.760776 0.05590858 0.6466019
vn 0.8949223 0.06453261 0.4415309
vn 0.02363151 0.9356087 0.352247
vn -0.03952288 0.9618489 0.2707116
vn 0.01227067 0.991146 0.1322083
vn -0.01293033 0.3556242 0.9345396
vn 0.1127072 0.3447493 0.931904
vn 0.1210531 0.3622969 0.9241684
vn -0.2570023 0.1913986 0.9472678
vn -0.008558536 0.5324495 0.8464185
vn -0.01293033 0.3556242 0.9345396
vn -0.2570023 0.1913986 0.9472678
vn -0.292918 0.2475298 0.9235411
vn -0.01862758 0.3102236 0.9504811
vn -0.292918 0.2475298 0.9235411
vn -0.3189623 0.2625183 0.910685
vn -0.4125348 0.2765398 0.867952
vn -0.4792704 0.3199154 0.8172846
vn -0.09724572 0.2386481 0.9662248
vn -0.2570023 0.1913986 0.9472678
vn 0.3400374 0.04941557 0.9391127
vn -0.2281208 0.1855501 0.9557887
vn -0.339674 0.1973061 0.919615
vn -0.386506 0.2329312 0.8923879
vn -0.6592016 0.1193575 0.7424331
vn -0.009089302 0.05531336 0.9984276
vn -0.8152817 0.3389333 0.4695104
vn -0.5434739 0.3172114 0.7771828
vn -0.8689161 0.1591648 0.4686698
vn -0.5809595 0.5731371 0.5779272
vn -0.8770298 0.2477242 0.4116449
vn -0.6409005 0.6223386 0.4493787
vn -0.1266522 0.8705574 0.475488
vn -0.1432251 0.6732338 0.725426
vn -0.7858198 0.420814 0.4532138
vn -0.7872273 0.3798544 0.4857816
vn 0.5762448 0.7561027 0.3102427
vn 0.2507 0.7238722 0.6427741
vn -0.1266522 0.8705574 0.475488
vn 0.7615622 0.3872261 -0.5196912
vn 0.8287027 0.3879346 -0.4034334
vn 0.8861478 0.417787 -0.2004898
vn 0.8426143 0.08958206 -0.5310143
vn 0.8545051 0.5136023 0.07767761
vn 0.7615622 0.3872261 -0.5196912
vn 0.6134843 0.3331784 -0.7159813
vn 0.6269814 0.01195778 -0.7789425
vn 0.9585273 0.2729743 -0.08191694
vn 0.8906484 -0.1334127 -0.4346799
vn 0.9607191 -0.1144653 -0.2528171
vn 0.8426143 0.08958206 -0.5310143
vn 0.8906484 -0.1334127 -0.4346799
vn 0.8426143 0.08958206 -0.5310143
vn 0.7679119 -0.2164251 -0.602886
vn 0.6269814 0.01195778 -0.7789425
vn 0.9607191 -0.1144653 -0.2528171
vn 0.9203699 0.01801907 -0.3906335
vn 0.9929581 0.01052365 -0.117998
vn 0.9607191 -0.1144653 -0.2528171
vn 0.8291858 0.2076654 -0.5189661
vn 0.8813131 -0.09237953 -0.4634146
vn 0.6480361 0.03387139 -0.7608562
vn 0.6741288 -0.1937478 -0.7127498
vn 0.8265458 -0.1619191 -0.5390772
vn 0.6008471 -0.1869213 -0.7772021
vn 0.5534673 -0.1816275 -0.8128256
vn 0.5534433 -0.1816192 -0.8128439
vn 0.9875153 -0.1273043 -0.09277359
vn 0.9523643 -0.03933103 -0.3024162
vn 0.9208158 -0.109178 -0.374404
vn 0.8866482 0.07277046 -0.4566831
vn -0.5393851 0.1642534 0.8258841
vn -0.921476 0.2258238 0.3160469
vn -0.796701 0.1356208 0.5889606
vn -0.339674 0.1973061 0.919615
vn -0.7324707 0.07356469 0.6768123
vn -0.6592016 0.1193575 0.7424331
vn -0.7887854 0.06919737 0.6107612
vn -0.732483 0.08756238 0.6751308
vn -0.9617605 0.2730054 0.02201835
vn -0.9403274 0.2430304 0.238161
vn -0.796701 0.1356208 0.5889606
vn -0.921476 0.2258238 0.3160469
vn -0.9403274 0.2430304 0.238161
vn -0.8770298 0.2477242 0.4116449
vn -0.8689161 0.1591648 0.4686698
vn -0.9552339 0.049999 0.2915962
vn 0.86215 -0.1580743 -0.4813626
vn 0.8444933 -0.1294847 -0.5196776
vn 0.9737982 -0.03831132 -0.2241638
vn 0.07531376 0.2105515 0.9746773
vn -0.3189623 0.2625183 0.910685
vn 0.33379 0.1195707 0.9350331
vn 0.5581048 -0.0005899951 0.8297703
vn 0.5581048 -0.0005899951 0.8297703
vn 0.8968299 0.01773867 0.4420199
vn -0.07407554 0.1952599 0.97795
vn -0.4094483 0.1355794 0.902203
vn -0.0943883 0.3254298 0.9408434
vn -0.3991901 0.2316207 0.8871297
vn 0.2679664 0.8579209 0.4383669
vn -0.1571645 0.9860626 0.05458898
vn 0.1528411 0.9882007 -0.00995437
vn 0.07418758 0.9339914 -0.3495087
vn 0.3587487 0.7320366 0.579156
vn 0.2496189 0.8610982 -0.442945
vn 0.2889204 0.9105344 -0.2957231
vn 0.4994948 0.8629028 0.07683499
vn 0.1507293 0.8742784 -0.4614304
vn -0.01392593 0.9191167 -0.3937391
vn -0.133763 0.9861063 0.09849784
vn 0.006175037 0.9965521 -0.08273914
vn -0.05380591 0.9761081 0.210518
vn 0.08658111 0.4114836 -0.9072953
vn 0.3877079 0.3674312 -0.8453857
vn 0.3914903 0.4467647 -0.8044479
vn 0.4277283 0.883639 -0.1903432
vn 0.3276455 0.8397514 -0.4329734
vn 0.8118964 0.5831431 -0.02772104
vn 0.3164269 0.661109 -0.6803005
vn 0.309809 0.5282002 -0.7905838
vn 0.5408879 0.685183 0.4878163
vn 0.5307039 0.3572515 0.7685861
vn 0.3587487 0.7320366 0.579156
vn 0.7859641 0.3566898 0.5050078
vn 0.09840678 0.152694 0.9833619
vn 0.6386727 0.2227324 0.7365375
vn 0.8718756 0.1702044 0.4591987
vn 0.9355966 0.1484442 0.3203487
vn 0.9481848 0.2923425 0.1244248
vn 0.8118964 0.5831431 -0.02772104
vn 0.5247776 0.8296558 0.1904721
vn 0.9723806 0.1773089 -0.151781
vn 0.339664 -0.06903935 0.9380096
vn -0.3304698 0.03453493 -0.9431846
vn -0.2926139 0.01020967 -0.9561762
vn -0.3505637 0.01583275 -0.936405
vn -0.2402092 -0.001736302 -0.9707196
vn -0.1734429 -0.001151247 -0.9848433
vn -0.1734482 -0.00115456 -0.9848423
vn 0.5751696 0.3051421 0.7589916
vn 0.5307039 0.3572515 0.7685861
vn 0.6179231 0.05082738 0.7845938
vn 0.3587487 0.7320366 0.579156
vn 0.3529304 0.3176911 0.8800639
vn -0.01800718 0.6856172 0.7277396
vn -0.4094483 0.1355794 0.902203
vn -0.238992 0.1219395 0.9633346
vn -0.3637758 -0.1690667 0.9160151
vn 0.03718526 -0.0440458 0.9983373
vn 0.5155678 -0.8342283 -0.1955833
vn 0.4533633 -0.6520373 -0.6077081
vn 0.5057876 -0.8022332 -0.3171764
vn 0.5483785 -0.8336895 -0.06513745
vn 0.5745124 -0.7974249 -0.1845234
vn 0.5933002 -0.7492704 -0.2942596
vn 0.5718107 -0.7450556 -0.3434018
vn 0.9837747 0.008627267 -0.1792008
vn 0.8989912 0.007984114 -0.4378939
vn 0.9837749 0.008627514 -0.1792
vn 0.7317275 0.006614209 -0.6815652
vn 0.7773962 0.2495365 -0.5773965
vn 0.3914903 0.4467647 -0.8044479
vn 0.7317275 0.006614209 -0.6815652
vn 0.6349294 0.005801867 -0.7725485
vn 0.3877079 0.3674312 -0.8453857
vn 0.08658111 0.4114836 -0.9072953
vn 0.2855906 0.00283268 -0.9583476
vn 0.06198829 0.0009043556 -0.9980764
vn 0.4648509 0.3553374 -0.8109556
vn 0.3877079 0.3674312 -0.8453857
vn 0.6349294 0.005801867 -0.7725485
vn 0.2855906 0.00283268 -0.9583476
vn 0.09913356 0.1057677 0.9894371
vn -0.3329028 0.1217077 0.9350738
vn -0.01043431 0.2878942 0.9576054
vn -0.153327 0.6480857 0.7459731
vn 0.3280794 0.8342717 0.4431192
vn 0.0250114 0.9515701 0.3064127
vn 0.1791609 0.9736363 0.1411864
vn 0.5363033 0.6930872 0.4816729
vn 0.5342679 0.8172166 0.2161363
vn 0.246849 0.9681426 0.04201896
vn 0.1804185 0.9639029 0.1958067
vn -0.1049728 0.8033665 0.5861596
vn 0.6138263 0.2126858 0.7602512
vn 0.8022921 0.3395895 0.4909239
vn 0.09913356 0.1057677 0.9894371
vn 0.668162 0.7432034 0.03475858
vn 0.9723169 0.194354 -0.1297159
vn 0.4130754 0.8649525 0.2850013
vn 0.9112125 0.024584 0.4112023
vn 0.9851274 -0.05733998 -0.1619753
vn 0.5928505 -0.06954482 0.802304
vn 0.2018661 -0.1993468 0.9589113
vn 0.8601276 0.2504864 -0.444339
vn 0.8953874 -0.0462055 -0.4428841
vn 0.5363033 0.6930872 0.4816729
vn 0.3056767 0.2351989 0.9226285
vn 0.05793742 0.6577332 0.7510195
vn -0.3329028 0.1217077 0.9350738
vn -0.0230632 0.04492925 0.9987239
vn -0.2888595 -0.1445712 0.9463928
vn 0.2018661 -0.1993468 0.9589113
vn -0.03562593 0.3895578 0.9203127
vn -0.5057039 0.5022295 0.7014477
vn -0.2978556 0.5390281 0.7878646
vn -0.2637642 0.8704459 0.4156348
vn 0.4361115 0.6222088 0.6501253
vn -0.395941 0.3309042 0.8565823
vn 0.1820405 0.155451 0.9709255
vn 0.5884404 0.2242729 0.7768137
vn 0.4762031 0.3928131 0.78672
vn 0.9141369 0.2425106 0.3248726
vn 0.8041347 0.214049 0.5545724
vn 0.9790455 0.202077 -0.02519516
vn 0.5928524 0.2209729 0.7744011
vn 0.75908 0.2875741 0.5840366
vn 0.7386609 0.2747915 0.6155241
vn 0.7267787 0.222527 0.6498265
vn 0.6464489 0.3283235 0.6886998
vn 0.6032106 0.3945297 0.6931691
vn 0.8494242 0.5217389 -0.0791638
vn 0.9323305 0.2782311 -0.2309703
vn 0.09015839 0.9914072 -0.09478094
vn 0.06560692 0.9977828 -0.01119786
vn 0.1231763 0.9837541 -0.1305967
vn 0.1267892 0.9897621 -0.0655394
vn -0.1603857 0.9585778 0.2353829
vn 0.1118819 0.9615492 -0.2508097
vn 0.1314308 0.9181414 -0.3738213
vn 0.1355796 0.9603036 -0.2437934
vn 0.1742706 0.9501041 0.258712
vn 0.1541965 0.9263567 -0.3436375
vn 0.02178149 0.8535659 -0.5205294
vn 0.5288491 0.8272303 -0.189759
vn 0.2372326 0.96175 -0.1369577
vn 0.2767268 0.9484367 -0.1545641
vn 0.2372326 0.96175 -0.1369577
vn 0.1972529 0.9730948 -0.119071
vn -0.5001958 0.5631339 0.6577876
vn -0.6209058 0.4669434 0.6296347
vn -0.2490568 0.7495772 0.6132738
vn -0.6000519 0.382558 0.7025576
vn -0.3156828 0.4349785 0.8432901
vn -0.5140643 0.1141775 0.8501185
vn -0.1966132 0.1888826 0.9621157
vn 0.2343963 0.4955615 0.8363475
vn 0.05629971 0.9299468 0.3633581
vn -0.3737488 0.8173064 0.4385454
vn 0.3435344 0.9289591 0.13791
vn 0.7571822 0.3663887 0.540772
vn 0.08453254 0.993725 -0.07324518
vn -0.02381944 0.9906306 0.1344757
vn 0.03925505 0.9921714 0.1185536
vn 0.7268177 0.6845773 0.05558764
vn 0.1538809 0.9585621 -0.2397484
vn 0.4718468 0.8810606 0.03305896
vn 0.1660434 0.9797274 -0.1120882
vn 0.07019415 0.9707172 0.2297408
vn -0.1714729 0.9124172 0.371607
vn 0.2090036 0.9571053 -0.2006663
vn 0.2908273 0.2149736 0.9323121
vn 0.9564941 0.2124371 0.1999735
vn 0.8182121 0.3758316 0.4350628
vn 0.898226 0.3842925 0.2133294
vn 0.9368492 0.2348499 0.2591504
vn 0.8073793 0.2644715 0.5274405
vn 0.8717495 0.334814 0.3577043
vn 0.2908273 0.2149736 0.9323121
vn 0.5532945 0.442183 0.7059315
vn 0.6513503 0.3174196 0.6891935
vn -0.6329619 0.485361 0.6031451
vn -0.6719254 0.4535513 0.5854976
vn -0.6328646 0.3356633 0.6977195
vn -0.5913926 0.4699236 0.6553065
vn -0.03829557 0.4129707 0.9099389
vn -0.1575984 0.6323372 0.7584935
vn -0.4326848 0.1993362 0.879232
vn 0.1662107 0.1657576 0.9720588
vn 0.5841833 0.3940297 0.7095564
vn 0.5552806 0.5985289 0.5774311
vn 0.1414119 0.6090165 0.7804495
vn 0.3985105 0.8392553 0.3699187
vn -0.07358463 0.8193133 0.5686045
vn 0.7979816 0.6025147 -0.01419531
vn 0.8271479 0.5492494 0.1189599
vn 0.7320846 0.6767927 -0.07748389
vn 0.8843918 0.4134697 -0.2165504
vn 0.8182243 0.5501789 -0.1667702
vn 0.8612081 0.3983583 0.3156443
vn 0.5950733 0.2250264 0.771525
vn 0.9227456 0.1796162 0.3409962
vn 0.9612618 0.2700254 0.05533616
vn 0.9936733 0.00370424 0.112248
vn 0.9421134 0.3093023 -0.1294385
vn 0.7627029 0.6186147 -0.1886799
vn -0.3567309 0.4899921 0.7953935
vn -0.6719254 0.4535513 0.5854976
vn -0.4788568 0.6992922 0.5307415
vn -0.2720494 0.9435617 -0.1888928
vn -0.4623571 0.8866106 -0.01214318
vn -0.03292647 0.9737301 -0.225312
vn -0.03292647 0.9737301 -0.225312
vn -0.5779725 0.77223 0.2638345
vn -0.2716381 0.9603724 0.06243028
vn -0.1736916 0.9443607 -0.2793101
vn 0.08541127 0.9179606 -0.3873668
vn 0.1781761 0.9148175 -0.3624395
vn 0.3943039 0.8325793 -0.3890194
vn 0.6284137 0.7605985 -0.1630523
vn 0.1389976 0.9219484 -0.3615119
vn -0.07316301 0.9853254 0.1542109
vn -0.03292647 0.9737301 -0.225312
vn 0.3985105 0.8392553 0.3699187
vn 0.6676496 0.7420279 -0.06032092
vn 0.8843918 0.4134697 -0.2165504
vn 0.8738443 0.4860023 0.01406888
vn 0.9421134 0.3093023 -0.1294385
vn 0.9670665 0.2543247 -0.01006582
vn 0.9815657 0.05873754 0.1818754
vn 0.9817957 0.04036734 0.1856009
vn 0.9923206 0.06249588 0.106743
vn 0.9959289 0.08724634 0.02266484
vn 0.9896573 0.131552 -0.05720447
vn 0.9896584 0.1315483 -0.05719526
vn 0.9891539 0.133627 -0.06097826
vn 0.988628 0.1357134 -0.0647815
vn 0.99502 0.09967474 0.000412477
vn 0.9940414 0.07875394 0.07536341
vn 0.9879941 0.04850775 0.1466789
vn 0.9850546 0.07542044 0.1548519
vn 0.2200662 0.3006893 0.9279854
vn 0.2354164 0.2899683 0.9276301
vn 0.2412034 0.2931041 0.9251545
vn 0.2568845 0.2887532 0.9222971
vn 0.2650021 0.368382 0.8911052
vn 0.270196 0.4462727 0.8531322
vn 0.2683806 0.5173745 0.8125858
vn 0.1958583 0.3848096 0.9019762
vn 0.2669267 0.6328355 0.7268214
vn 0.03719035 0.7292691 0.6832154
vn 0.2410669 0.7057571 0.6661784
vn -0.1290001 0.7776685 0.6152974
vn -0.3297788 0.6799725 0.6548919
vn -0.8692758 0.4279025 0.2475056
vn -0.6868909 0.4872394 0.539239
vn -0.7021587 0.5716193 0.4245286
vn -0.2575395 0.7580221 0.5992294
vn -0.5354392 0.3216397 0.7809308
vn -0.6899596 0.6406164 0.3369962
vn -0.5144819 0.7059305 0.4867961
vn -0.4338858 0.7086739 0.5563493
vn -0.5561513 0.5331409 0.6375394
vn -0.3297788 0.6799725 0.6548919
vn -0.357874 0.4210775 0.8334386
vn -0.3406335 0.3979223 0.8518373
vn -0.004008309 0.4309039 0.9023889
vn 0.2410669 0.7057571 0.6661784
vn -0.07874107 0.5617719 0.8235363
vn -0.004008309 0.4309039 0.9023889
vn 0.1958583 0.3848096 0.9019762
vn -0.4558598 0.001782575 0.8900498
vn -0.3617581 0.1841333 0.913907
vn -0.9114535 0.1929287 0.3633607
vn -0.9004855 0.2313002 0.3682744
vn -0.8692758 0.4279025 0.2475056
vn -0.95218 0.1804356 0.2465686
vn -0.898122 0.1515989 0.4127891
vn -0.9114535 0.1929287 0.3633607
vn -0.7161733 0.1317048 0.6853828
vn -0.9585899 0.2101889 0.1921612
vn -0.9674022 0.2102697 0.1411363
g RockSpire_0
f 3/3/3 2/2/2 1/1/1
f 4/4/4 2/2/2 3/3/3
f 3/3/3 1/1/1 5/5/5
f 5/5/5 1/1/1 6/6/6
f 5/5/5 6/6/6 7/7/7
f 8/8/8 3/3/3 5/5/5
f 9/9/9 3/3/3 8/8/8
f 10/10/10 3/3/3 9/9/9
f 11/11/11 3/3/3 10/10/10
f 11/11/11 12/12/12 3/3/3
f 10/10/10 9/9/9 13/13/13
f 9/9/9 8/8/8 14/14/14
f 15/15/15 9/9/9 14/14/14
f 14/14/14 8/8/8 16/16/16
f 8/8/8 5/5/5 17/17/17
f 17/17/17 5/5/5 7/7/7
f 20/20/20 19/19/19 18/18/18
f 23/23/23 22/22/22 21/21/21
f 26/26/26 25/25/25 24/24/24
f 29/29/29 28/28/28 27/27/27
f 30/30/30 29/29/29 27/27/27
f 31/31/31 30/30/30 27/27/27
f 32/32/32 30/30/30 31/31/31
f 31/31/31 27/27/27 33/33/33
f 33/33/33 27/27/27 28/28/28
f 35/35/35 28/28/28 34/34/34
f 28/28/28 36/36/36 34/34/34
f 36/36/36 37/37/37 34/34/34
f 38/38/38 37/37/37 36/36/36
f 39/39/39 38/38/38 36/36/36
f 40/40/40 38/38/38 39/39/39
f 39/39/39 41/41/41 40/40/40
f 41/41/41 42/42/42 40/40/40
f 43/43/43 40/40/40 42/42/42
f 46/46/46 45/45/45 44/44/44
f 49/49/49 48/48/48 47/47/47
f 47/47/47 48/48/48 50/50/50
f 49/49/49 51/51/51 48/48/48
f 52/52/52 51/51/51 49/49/49
f 52/52/52 53/53/53 51/51/51
f 54/54/54 47/47/47 50/50/50
f 55/55/55 47/47/47 54/54/54
f 56/56/56 55/55/55 54/54/54
f 57/57/57 55/55/55 56/56/56
f 58/58/58 57/57/57 56/56/56
f 59/59/59 57/57/57 58/58/58
f 60/60/60 59/59/59 58/58/58
f 63/63/63 62/62/62 61/61/61
f 61/61/61 62/62/62 64/64/64
f 62/62/62 65/65/65 64/64/64
f 64/64/64 65/65/65 66/66/66
f 63/63/63 67/67/67 62/62/62
f 67/67/67 68/68/68 62/62/62
f 62/62/62 68/68/68 69/69/69
f 70/70/70 61/61/61 64/64/64
f 71/71/71 61/61/61 70/70/70
f 72/72/72 64/64/64 66/66/66
f 70/70/70 64/64/64 72/72/72
f 72/72/72 66/66/66 73/73/73
f 73/73/73 66/66/66 74/74/74
f 75/75/75 72/72/72 73/73/73
f 76/76/76 72/72/72 75/75/75
f 75/75/75 73/73/73 77/77/77
f 77/77/77 73/73/73 78/78/78
f 77/77/77 78/78/78 79/79/79
f 79/79/79 78/78/78 80/80/80
f 78/78/78 81/81/81 80/80/80
f 80/80/80 81/81/81 82/82/82
f 81/81/81 83/83/83 82/82/82
f 85/85/85 83/83/83 84/84/84
f 85/85/85 86/86/86 83/83/83
f 87/87/87 86/86/86 85/85/85
f 87/87/87 88/88/88 86/86/86
f 89/89/89 88/88/88 87/87/87
f 89/89/89 90/90/90 88/88/88
f 91/91/91 90/90/90 89/89/89
f 92/92/92 85/85/85 84/84/84
f 93/93/93 87/87/87 85/85/85
f 93/93/93 85/85/85 94/94/94
f 95/95/95 87/87/87 93/93/93
f 95/95/95 89/89/89 87/87/87
f 96/96/96 89/89/89 95/95/95
f 97/97/97 91/91/91 89/89/89
f 100/100/100 99/99/99 98/98/98
f 101/101/101 99/99/99 100/100/100
f 103/103/103 100/100/100 102/102/102
f 104/104/104 100/100/100 103/103/103
f 105/105/105 100/100/100 104/104/104
f 106/106/106 100/100/100 105/105/105
f 106/106/106 105/105/105 107/107/107
f 109/109/109 105/105/105 108/108/108
f 110/110/110 107/107/107 108/108/108
f 111/111/111 110/110/110 108/108/108
f 113/113/113 112/112/112 63/63/63
f 115/115/115 114/114/114 113/113/113
f 118/118/118 117/117/117 116/116/116
f 121/121/121 120/120/120 119/119/119
f 119/119/119 122/122/122 121/121/121
f 123/123/123 122/122/122 119/119/119
f 124/124/124 123/123/123 119/119/119
f 119/119/119 125/125/125 124/124/124
f 119/119/119 120/120/120 125/125/125
f 126/126/126 123/123/123 124/124/124
f 120/120/120 128/128/128 127/127/127
f 127/127/127 128/128/128 129/129/129
f 124/124/124 131/131/131 130/130/130
f 134/134/134 133/133/133 132/132/132
f 137/137/137 136/136/136 135/135/135
f 137/137/137 139/139/139 138/138/138
f 142/142/142 141/141/141 140/140/140
f 143/143/143 142/142/142 140/140/140
f 146/146/146 145/145/145 144/144/144
f 146/146/146 144/144/144 147/147/147
f 150/150/150 149/149/149 148/148/148
f 153/153/153 152/152/152 151/151/151
f 154/154/154 152/152/152 153/153/153
f 151/151/151 152/152/152 155/155/155
f 158/158/158 157/157/157 156/156/156
f 156/156/156 157/157/157 159/159/159
f 160/160/160 158/158/158 156/156/156
f 161/161/161 156/156/156 159/159/159
f 161/161/161 159/159/159 162/162/162
f 162/162/162 159/159/159 163/163/163
f 164/164/164 156/156/156 161/161/161
f 164/164/164 160/160/160 156/156/156
f 165/165/165 160/160/160 164/164/164
f 168/168/168 167/167/167 166/166/166
f 171/171/171 170/170/170 169/169/169
f 174/174/174 173/173/173 172/172/172
f 174/174/174 172/172/172 175/175/175
f 175/175/175 172/172/172 176/176/176
f 172/172/172 173/173/173 177/177/177
f 180/180/180 179/179/179 178/178/178
f 183/183/183 182/182/182 181/181/181
f 184/184/184 182/182/182 183/183/183
f 182/182/182 186/186/186 185/185/185
f 181/181/181 188/188/188 187/187/187
f 191/191/191 190/190/190 189/189/189
f 192/192/192 190/190/190 191/191/191
f 192/192/192 193/193/193 190/190/190
f 194/194/194 193/193/193 192/192/192
f 195/195/195 194/194/194 192/192/192
f 196/196/196 194/194/194 195/195/195
f 199/199/199 198/198/198 197/197/197
f 200/200/200 198/198/198 199/199/199
f 203/203/203 202/202/202 201/201/201
f 205/205/205 203/203/203 204/204/204
f 205/205/205 204/204/204 206/206/206
f 207/207/207 205/205/205 206/206/206
f 208/208/208 205/205/205 207/207/207
f 208/208/208 203/203/203 205/205/205
f 210/210/210 209/209/209 202/202/202
f 213/213/213 212/212/212 211/211/211
f 216/216/216 215/215/215 214/214/214
f 219/219/219 218/218/218 217/217/217
f 222/222/222 221/221/221 220/220/220
f 225/225/225 224/224/224 223/223/223
f 228/228/228 227/227/227 226/226/226
f 229/229/229 227/227/227 228/228/228
f 232/232/232 231/231/231 230/230/230
f 233/233/233 231/231/231 232/232/232
f 234/234/234 232/232/232 230/230/230
f 235/235/235 233/233/233 232/232/232
f 236/236/236 235/235/235 232/232/232
f 237/237/237 232/232/232 234/234/234
f 238/238/238 233/233/233 235/235/235
f 239/239/239 231/231/231 233/233/233
f 240/240/240 231/231/231 239/239/239
f 241/241/241 240/240/240 239/239/239
f 242/242/242 240/240/240 241/241/241
f 241/241/241 239/239/239 243/243/243
f 243/243/243 239/239/239 244/244/244
f 244/244/244 239/239/239 245/245/245
f 239/239/239 233/233/233 245/245/245
f 247/247/247 235/235/235 246/246/246
f 247/247/247 246/246/246 248/248/248
f 250/250/250 233/233/233 249/249/249
f 253/253/253 252/252/252 251/251/251
f 251/251/251 252/252/252 254/254/254
f 253/253/253 255/255/255 252/252/252
f 256/256/256 254/254/254 252/252/252
f 257/257/257 254/254/254 256/256/256
f 257/257/257 258/258/258 254/254/254
f 254/254/254 258/258/258 259/259/259
f 260/260/260 254/254/254 259/259/259
f 261/261/261 254/254/254 260/260/260
f 260/260/260 259/259/259 262/262/262
f 258/258/258 262/262/262 259/259/259
f 256/256/256 252/252/252 263/263/263
f 266/266/266 265/265/265 264/264/264
f 267/267/267 265/265/265 266/266/266
f 267/267/267 268/268/268 265/265/265
f 269/269/269 268/268/268 267/267/267
f 272/272/272 271/271/271 270/270/270
f 275/275/275 274/274/274 273/273/273
f 278/278/278 277/277/277 276/276/276
f 279/279/279 277/277/277 278/278/278
f 282/282/282 281/281/281 280/280/280
f 282/282/282 280/280/280 283/283/283
f 283/283/283 280/280/280 284/284/284
f 283/283/283 284/284/284 285/285/285
f 285/285/285 284/284/284 286/286/286
f 289/289/289 288/288/288 287/287/287
f 290/290/290 288/288/288 289/289/289
f 293/293/293 292/292/292 291/291/291
f 294/294/294 292/292/292 293/293/293
f 297/297/297 296/296/296 295/295/295
f 298/298/298 296/296/296 297/297/297
f 301/301/301 300/300/300 299/299/299
f 302/302/302 300/300/300 301/301/301
f 305/305/305 304/304/304 303/303/303
f 306/306/306 304/304/304 305/305/305
f 309/309/309 308/308/308 307/307/307
f 310/310/310 309/309/309 307/307/307
f 311/311/311 309/309/309 310/310/310
f 311/311/311 312/312/312 309/309/309
f 312/312/312 313/313/313 309/309/309
f 313/313/313 314/314/314 309/309/309
f 310/310/310 315/315/315 311/311/311
f 311/311/311 315/315/315 316/316/316
f 310/310/310 317/317/317 315/315/315
f 311/311/311 316/316/316 318/318/318
f 318/318/318 312/312/312 311/311/311
f 318/318/318 316/316/316 319/319/319
f 320/320/320 313/313/313 312/312/312
f 321/321/321 319/319/319 316/316/316
f 322/322/322 319/319/319 321/321/321
f 323/323/323 316/316/316 315/315/315
f 321/321/321 316/316/316 323/323/323
f 323/323/323 315/315/315 324/324/324
f 324/324/324 315/315/315 317/317/317
f 325/325/325 318/318/318 319/319/319
f 326/326/326 319/319/319 322/322/322
f 325/325/325 319/319/319 326/326/326
f 329/329/329 328/328/328 327/327/327
f 332/332/332 331/331/331 330/330/330
f 333/333/333 331/331/331 332/332/332
f 336/336/336 335/335/335 334/334/334
f 337/337/337 335/335/335 336/336/336
f 336/336/336 334/334/334 338/338/338
f 339/339/339 334/334/334 335/335/335
f 340/340/340 334/334/334 339/339/339
f 340/340/340 341/341/341 334/334/334
f 342/342/342 334/334/334 341/341/341
f 342/342/342 341/341/341 343/343/343
f 343/343/343 341/341/341 344/344/344
f 343/343/343 344/344/344 345/345/345
f 346/346/346 344/344/344 341/341/341
f 346/346/346 341/341/341 340/340/340
f 347/347/347 344/344/344 346/346/346
f 348/348/348 344/344/344 347/347/347
f 349/349/349 344/344/344 348/348/348
f 348/348/348 350/350/350 349/349/349
f 351/351/351 350/350/350 348/348/348
f 353/353/353 343/343/343 352/352/352
f 356/356/356 355/355/355 354/354/354
f 357/357/357 356/356/356 354/354/354
f 359/359/359 358/358/358 356/356/356
f 360/360/360 359/359/359 356/356/356
f 361/361/361 360/360/360 356/356/356
f 361/361/361 356/356/356 362/362/362
f 363/363/363 360/360/360 361/361/361
f 364/364/364 359/359/359 360/360/360
f 367/367/367 366/366/366 365/365/365
f 366/366/366 369/369/369 368/368/368
f 372/372/372 371/371/371 370/370/370
f 371/371/371 373/373/373 370/370/370
f 370/370/370 373/373/373 374/374/374
f 375/375/375 374/374/374 373/373/373
f 376/376/376 374/374/374 375/375/375
f 376/376/376 377/377/377 374/374/374
f 378/378/378 374/374/374 377/377/377
f 379/379/379 374/374/374 378/378/378
f 378/378/378 377/377/377 380/380/380
f 380/380/380 377/377/377 381/381/381
f 380/380/380 382/382/382 378/378/378
f 378/378/378 382/382/382 383/383/383
f 382/382/382 384/384/384 383/383/383
f 380/380/380 381/381/381 385/385/385
f 380/380/380 386/386/386 382/382/382
f 387/387/387 386/386/386 380/380/380
f 386/386/386 388/388/388 382/382/382
f 388/388/388 389/389/389 382/382/382
f 389/389/389 390/390/390 382/382/382
f 391/391/391 388/388/388 386/386/386
f 392/392/392 377/377/377 376/376/376
f 392/392/392 381/381/381 377/377/377
f 395/395/395 394/394/394 393/393/393
f 396/396/396 393/393/393 394/394/394
f 398/398/398 393/393/393 397/397/397
f 401/401/401 400/400/400 399/399/399
f 404/404/404 403/403/403 402/402/402
f 403/403/403 405/405/405 402/402/402
f 407/407/407 405/405/405 406/406/406
f 408/408/408 406/406/406 405/405/405
f 409/409/409 406/406/406 408/408/408
f 409/409/409 410/410/410 406/406/406
f 411/411/411 406/406/406 410/410/410
f 412/412/412 406/406/406 411/411/411
f 413/413/413 412/412/412 411/411/411
f 414/414/414 412/412/412 413/413/413
f 413/413/413 411/411/411 415/415/415
f 411/411/411 410/410/410 416/416/416
f 417/417/417 411/411/411 416/416/416
f 417/417/417 416/416/416 418/418/418
f 418/418/418 416/416/416 419/419/419
f 416/416/416 410/410/410 420/420/420
f 416/416/416 420/420/420 419/419/419
f 421/421/421 420/420/420 410/410/410
f 421/421/421 410/410/410 409/409/409
f 422/422/422 420/420/420 421/421/421
f 422/422/422 423/423/423 420/420/420
f 419/419/419 420/420/420 423/423/423
f 424/424/424 423/423/423 422/422/422
f 426/426/426 417/417/417 425/425/425
f 429/429/429 428/428/428 427/427/427
f 432/432/432 431/431/431 430/430/430
f 435/435/435 434/434/434 433/433/433
f 436/436/436 435/435/435 433/433/433
f 437/437/437 436/436/436 433/433/433
f 438/438/438 437/437/437 433/433/433
f 438/438/438 433/433/433 439/439/439
f 439/439/439 433/433/433 440/440/440
f 441/441/441 437/437/437 438/438/438
f 444/444/444 443/443/443 442/442/442
f 445/445/445 443/443/443 444/444/444
f 448/448/448 447/447/447 446/446/446
f 450/450/450 449/449/449 448/448/448
f 451/451/451 449/449/449 450/450/450
f 452/452/452 451/451/451 450/450/450
f 453/453/453 451/451/451 452/452/452
f 454/454/454 453/453/453 452/452/452
f 455/455/455 453/453/453 454/454/454
f 456/456/456 455/455/455 454/454/454
f 457/457/457 455/455/455 456/456/456
f 458/458/458 457/457/457 456/456/456
f 459/459/459 457/457/457 458/458/458
f 460/460/460 459/459/459 458/458/458
f 461/461/461 459/459/459 460/460/460
f 464/464/464 463/463/463 462/462/462
f 465/465/465 463/463/463 464/464/464
f 466/466/466 465/465/465 464/464/464
f 467/467/467 465/465/465 466/466/466
f 468/468/468 467/467/467 466/466/466
f 469/469/469 467/467/467 468/468/468
f 470/470/470 469/469/469 468/468/468
f 471/471/471 469/469/469 470/470/470
f 472/472/472 471/471/471 470/470/470
f 474/474/474 473/473/473 472/472/472
f 477/477/477 476/476/476 475/475/475
f 480/480/480 479/479/479 478/478/478
f 482/482/482 480/480/480 481/481/481
f 483/483/483 480/480/480 482/482/482
f 485/485/485 483/483/483 484/484/484
f 486/486/486 483/483/483 485/485/485
f 485/485/485 484/484/484 487/487/487
f 490/490/490 489/489/489 488/488/488
f 493/493/493 492/492/492 491/491/491
f 496/496/496 495/495/495 494/494/494
f 499/499/499 498/498/498 497/497/497
f 500/500/500 498/498/498 499/499/499
f 498/498/498 501/501/501 497/497/497
f 497/497/497 501/501/501 502/502/502
