g STR_StatueEyeGem_mesh
v 196.2013 233.6904 -992.9841
v 175.6099 223.0513 -990.0248
v 178.1618 226.7749 -1001.979
v 197.0749 228.4256 -1007.297
v 196.2013 233.6904 -992.9841
v 178.1618 226.7749 -1001.979
v 197.0749 228.4256 -1007.297
v 206.4547 227.1132 -1003.095
v 196.2013 233.6904 -992.9841
v 190.2665 221.3619 -984.6179
v 175.6099 223.0513 -990.0248
v 196.2013 233.6904 -992.9841
v 203.9332 223.0421 -990.0255
v 190.2665 221.3619 -984.6179
v 196.2013 233.6904 -992.9841
v 206.4547 227.1132 -1003.095
v 203.9332 223.0421 -990.0255
v 196.2013 233.6904 -992.9841
v 178.1618 226.7749 -1001.979
v 175.6099 223.0513 -990.0248
v 196.1955 215.9633 -998.5073
v 178.1618 226.7749 -1001.979
v 196.1955 215.9633 -998.5073
v 197.0749 228.4256 -1007.297
v 196.1955 215.9633 -998.5073
v 206.4547 227.1132 -1003.095
v 197.0749 228.4256 -1007.297
v 196.1955 215.9633 -998.5073
v 175.6099 223.0513 -990.0248
v 190.2665 221.3619 -984.6179
v 196.1955 215.9633 -998.5073
v 190.2665 221.3619 -984.6179
v 203.9332 223.0421 -990.0255
v 196.1955 215.9633 -998.5073
v 203.9332 223.0421 -990.0255
v 206.4547 227.1132 -1003.095
vt 0.821251 0.049249
vt 0.787615 0.058929
vt 0.790478 0.034657
vt 0.825762 0.02385
vt 0.821251 0.049249
vt 0.790478 0.034657
vt 0.825762 0.02385
vt 0.844411 0.032393
vt 0.821251 0.049249
vt 0.816558 0.069856
vt 0.787615 0.058929
vt 0.821251 0.049249
vt 0.841746 0.058913
vt 0.816558 0.069856
vt 0.821251 0.049249
vt 0.844411 0.032393
vt 0.841746 0.058913
vt 0.821251 0.049249
vt 0.790478 0.034657
vt 0.787615 0.058929
vt 0.821251 0.049249
vt 0.790478 0.034657
vt 0.821251 0.049249
vt 0.825762 0.02385
vt 0.821251 0.049249
vt 0.844411 0.032393
vt 0.825762 0.02385
vt 0.821251 0.049249
vt 0.787615 0.058929
vt 0.816558 0.069856
vt 0.821251 0.049249
vt 0.816558 0.069856
vt 0.841746 0.058913
vt 0.821251 0.049249
vt 0.841746 0.058913
vt 0.844411 0.032393
vn -0.1619972 0.9834226 0.0814661
vn -0.3395002 0.7963265 0.5006033
vn -0.3185926 0.9439126 -0.08676271
vn 0.04675252 0.938419 -0.3423215
vn -0.1221726 0.9770981 -0.1742213
vn -0.3185926 0.9439126 -0.08676271
vn 0.04675252 0.938419 -0.3423215
vn 0.5443759 0.838817 0.006390475
vn 0.1130877 0.9925187 -0.04601938
vn 0.03807702 0.5484975 0.8352849
vn -0.3395002 0.7963265 0.5006033
vn -0.1337688 0.7278162 0.672599
vn 0.5342453 0.563102 0.6304745
vn 0.03807702 0.5484975 0.8352849
vn 0.2953376 0.6233956 0.7239846
vn 0.5443759 0.838817 0.006390475
vn 0.5342453 0.563102 0.6304745
vn 0.5095609 0.7877148 0.3461977
vn -0.3191463 -0.727403 -0.6074788
vn -0.3400747 -0.9395378 -0.04022183
vn -0.1626064 -0.8555674 -0.4914912
vn -0.3191463 -0.727403 -0.6074788
vn -0.1227302 -0.7051587 -0.6983471
vn 0.04624988 -0.5779462 -0.8147632
vn 0.1124971 -0.79081 -0.6016342
vn 0.5438687 -0.6943361 -0.4712792
vn 0.04624988 -0.5779462 -0.8147632
vn -0.1343344 -0.9809664 0.1402109
vn -0.3400747 -0.9395378 -0.04022183
vn 0.03758938 -0.9258873 0.3759251
vn 0.2948256 -0.9244692 0.2417325
vn 0.03758938 -0.9258873 0.3759251
vn 0.5337869 -0.8218771 0.1989715
vn 0.5090206 -0.8452621 -0.1625728
vn 0.5337869 -0.8218771 0.1989715
vn 0.5438687 -0.6943361 -0.4712792
g STR_StatueEyeGem_mesh_0
f 3/3/3 2/2/2 1/1/1
f 6/6/6 5/5/5 4/4/4
f 9/9/9 8/8/8 7/7/7
f 12/12/12 11/11/11 10/10/10
f 15/15/15 14/14/14 13/13/13
f 18/18/18 17/17/17 16/16/16
f 21/21/21 20/20/20 19/19/19
f 24/24/24 23/23/23 22/22/22
f 27/27/27 26/26/26 25/25/25
f 30/30/30 29/29/29 28/28/28
f 33/33/33 32/32/32 31/31/31
f 36/36/36 35/35/35 34/34/34
