g STW_ClockArrowBig
v 261.4068 215.3769 -320.6778
v 267.3727 215.2188 -317.4739
v 260.8011 238.7584 -321.0031
v 266.532 238.3975 -317.9254
v 264.6127 249.2316 -319.8561
v 254.5325 239.0823 -325.1034
v 272.9357 238.5686 -313.7527
v 266.532 238.3975 -317.9254
v 267.3727 215.2188 -317.4739
v 264.2883 238.576 -314.044
v 265.2498 215.2188 -313.5211
v 261.4068 215.3769 -320.6778
v 260.8011 238.7584 -321.0031
v 259.284 215.3769 -316.725
v 258.5577 239.0413 -317.1277
v 272.9357 238.5686 -313.7527
v 266.532 238.3975 -317.9254
v 270.4852 238.8029 -310.0015
v 264.2883 238.576 -314.044
v 260.8011 238.7584 -321.0031
v 254.5325 239.0823 -325.1034
v 258.5577 239.0413 -317.1277
v 252.1072 239.5548 -321.3582
v 264.6127 249.2316 -319.8561
v 272.9357 238.5686 -313.7527
v 262.2959 249.5747 -316.0291
v 270.4852 238.8029 -310.0015
v 254.5325 239.0823 -325.1034
v 264.6127 249.2316 -319.8561
v 252.1072 239.5548 -321.3582
v 262.2959 249.5747 -316.0291
v 267.3727 215.2188 -317.4739
v 261.4068 215.3769 -320.6778
v 265.2498 215.2188 -313.5211
v 259.284 215.3769 -316.725
vt 0.698299 0.797872
vt 0.626194 0.843887
vt 0.578209 0.371569
vt 0.446631 0.41775
vt 0.440494 0.186192
vt 0.638863 0.253116
vt 0.318357 0.37159
vt 0.446631 0.41775
vt 0.626194 0.843887
vt 0.375378 0.47963
vt 0.601058 0.912816
vt 0.698299 0.797872
vt 0.578209 0.371569
vt 0.76394 0.846307
vt 0.667344 0.36779
vt 0.318357 0.37159
vt 0.446631 0.41775
vt 0.249251 0.382774
vt 0.375378 0.47963
vt 0.578209 0.371569
vt 0.638863 0.253116
vt 0.667344 0.36779
vt 0.708741 0.22061
vt 0.440494 0.186192
vt 0.318357 0.37159
vt 0.403375 0.104504
vt 0.249251 0.382774
vt 0.638863 0.253116
vt 0.440494 0.186192
vt 0.708741 0.22061
vt 0.403375 0.104504
vt 0.626194 0.843887
vt 0.698299 0.797872
vt 0.601058 0.912816
vt 0.76394 0.846307
vn 0.4731257 0 -0.880995
vn 0.4731251 0 -0.8809953
vn 0.4895891 -0.04489604 -0.8707967
vn 0.4964998 -0.04212333 -0.8670141
vn 0.518873 -0.07725345 -0.8513534
vn 0.5405366 -0.105307 -0.834704
vn 0.5461693 -0.0522321 -0.8360447
vn 0.8658457 0.04111718 0.4986188
vn 0.8730361 0.04396825 0.4856694
vn 0.8730361 0.04396825 0.4856694
vn 0.8800279 0.04680931 0.4726094
vn -0.8806087 -0.02939108 -0.4729318
vn -0.8734143 -0.03223249 -0.48591
vn -0.8734143 -0.03223249 -0.48591
vn -0.8660205 -0.03506654 -0.4987774
vn -0.009809015 -0.9983841 0.05597229
vn -0.002507446 -0.9986261 0.05234187
vn -0.002507446 -0.9986261 0.05234187
vn 0.00479429 -0.9988016 0.04870797
vn -0.07188334 -0.9969264 0.03115373
vn -0.0925009 -0.9948444 0.04156985
vn -0.0925009 -0.9948444 0.04156985
vn -0.1130687 -0.9922274 0.05196361
vn 0.6443374 0.6907623 0.3281417
vn 0.6369243 0.687764 0.348293
vn 0.6369243 0.687764 0.348293
vn 0.629212 0.6844426 0.3682806
vn -0.5197415 0.7383762 -0.4297316
vn -0.5268225 0.7444835 -0.410125
vn -0.5268225 0.7444835 -0.410125
vn -0.5336549 0.7502394 -0.3903247
vn -0.02056465 -0.9997275 -0.01104402
vn -0.02056454 -0.9997275 -0.01104408
vn -0.02056454 -0.9997275 -0.01104408
vn -0.02056442 -0.9997275 -0.01104414
g STW_ClockArrowBig_0
f 3/3/3 2/2/2 1/1/1
f 4/4/4 2/2/2 3/3/3
f 4/4/4 3/3/3 5/5/5
f 6/6/6 5/5/5 3/3/3
f 7/7/7 4/4/4 5/5/5
f 10/10/10 9/9/9 8/8/8
f 11/11/11 9/9/9 10/10/10
f 14/14/14 13/13/13 12/12/12
f 15/15/15 13/13/13 14/14/14
f 18/18/18 17/17/17 16/16/16
f 19/19/19 17/17/17 18/18/18
f 22/22/22 21/21/21 20/20/20
f 23/23/23 21/21/21 22/22/22
f 26/26/26 25/25/25 24/24/24
f 27/27/27 25/25/25 26/26/26
f 30/30/30 29/29/29 28/28/28
f 31/31/31 29/29/29 30/30/30
f 34/34/34 33/33/33 32/32/32
f 35/35/35 33/33/33 34/34/34
